<svg width="1024" height="1024" viewBox="0 0 1024 1024" fill="none" xmlns="http://www.w3.org/2000/svg">
<path fill-rule="evenodd" clip-rule="evenodd" d="M480.563 334.774C472.953 325.494 465.301 316.251 457.607 307.044C446.784 294.118 439.59 284.547 436.027 278.332C415.516 242.516 414.592 195.415 432.965 158.563C435.502 153.487 438.733 148.889 442.658 144.771C442.926 144.49 443.18 144.186 443.435 143.881C444.336 142.802 445.256 141.702 446.88 141.518C447.026 141.501 447.173 141.521 447.309 141.577C447.444 141.632 447.564 141.721 447.656 141.835C447.748 141.95 447.81 142.085 447.836 142.23C447.862 142.375 447.851 142.523 447.804 142.663C435.719 178.097 436.933 217.803 461.774 247.441C462.305 248.071 462.662 247.986 462.843 247.186C468.84 220.801 487.702 191.435 513.612 180.95C516.849 179.63 517.538 180.46 515.678 183.44C495.221 216.203 488.481 266.648 514.826 298.776C517.816 302.428 522.345 304.209 527.31 304.863C564.309 309.679 602.957 299.266 627.272 269.519C638.923 255.254 646.786 238.409 648.87 220.219C651.606 196.56 646.188 171.483 634.61 151.076C633.306 148.762 633.819 148.235 636.15 149.495C670.957 168.139 689.873 206.445 687.681 245.66C687.451 249.548 686.823 253.11 685.796 256.345C685.446 257.411 685.772 257.683 686.775 257.162C705.184 247.422 716.399 227.888 718.61 207.517C722.002 176.102 707.991 158.275 691.06 136.733L691.055 136.726C689.086 134.221 687.078 131.666 685.053 129.034C672.805 113.079 662.671 95.4828 654.65 76.245C653.708 73.9796 654.318 73.4284 656.48 74.5914C674.834 84.4461 690.578 97.6572 706.649 111.142L706.656 111.149C708.749 112.904 710.847 114.665 712.957 116.423C717.124 119.893 725.332 126.108 731.021 125.272C732.555 125.042 733.455 124.158 733.721 122.619C737.145 102.776 732.688 79.625 724.969 61.1444C724.873 60.9125 724.846 60.6583 724.891 60.4129C724.936 60.1676 725.052 59.9418 725.223 59.7633C726.226 58.7336 727.361 58.7457 728.63 59.7997C739.561 68.8976 748.373 79.7582 755.065 92.3815C765.369 111.874 769.808 132.65 768.382 154.71C768.373 154.856 768.392 155.001 768.44 155.139C768.489 155.276 768.564 155.402 768.662 155.509C768.761 155.616 768.88 155.702 769.012 155.762C769.145 155.821 769.288 155.853 769.433 155.855C787.625 156.146 794.999 130.269 796.666 116.768C796.751 116.065 797.137 115.696 797.826 115.659C798.043 115.647 798.261 115.653 798.478 115.678C799.07 115.726 799.462 116.029 799.656 116.586C808.534 142.263 805.472 169.975 796.902 195.233C783.439 234.884 749.376 270.319 713.482 290.653C696.764 300.126 679.328 308.104 661.173 314.585C655.445 316.628 649.642 318.576 643.815 320.533C619.004 328.864 593.754 337.343 572.01 353.854C557.714 364.684 544.124 381.021 532.003 395.812C531.483 396.442 531.58 396.558 532.293 396.158C541.896 390.839 552.061 386.212 562.787 382.275C626.167 359.015 693.787 344.078 760.012 335.174C762.548 334.822 763.158 335.749 761.841 337.954C755.633 348.312 749.261 358.482 742.726 368.464C727.542 391.706 715.529 409.478 695.381 422.234C676.936 433.919 654.179 435.645 633.505 430.848C632.871 430.701 632.239 430.555 631.608 430.409C620.083 427.743 609.021 425.184 597.666 425.287C575.331 425.505 554.048 430.593 533.815 440.551C533.646 440.636 533.597 440.769 533.67 440.951C533.742 441.133 533.869 441.193 534.05 441.133C553.691 434.627 583.424 440.86 602.667 447.293C612.801 450.685 622.966 454.01 633.161 457.269C633.717 457.451 634.157 457.784 634.484 458.269C693.184 543.494 692.311 642.91 691.449 741.166C691.411 745.481 691.374 749.794 691.341 754.104C691.329 755.406 690.854 756.662 690 757.647C657.855 794.697 625.277 831.401 592.703 868.101L592.699 868.105L592.688 868.117C571.507 891.982 550.326 915.844 529.267 939.8C522.152 947.893 515.152 956.046 508.267 964.259C508.076 964.488 507.837 964.673 507.568 964.801C507.299 964.929 507.006 964.996 506.708 965C506.41 965.003 506.116 964.942 505.844 964.821C505.572 964.699 505.329 964.52 505.133 964.296L324.288 758.792C324.13 758.616 324.025 758.398 323.985 758.164C323.946 757.931 323.973 757.69 324.064 757.472C324.155 757.253 324.306 757.065 324.5 756.928C324.693 756.792 324.921 756.714 325.157 756.702C364.475 754.449 400.894 741.583 427.928 711.891C443.419 694.864 455.088 670.95 451.464 648.326C451.029 645.54 451.501 645.376 452.878 647.836L453.458 648.874C459.976 660.527 465.095 669.677 467.717 685.051C472.573 713.599 468.822 747.58 453.367 772.893C453.318 772.99 453.337 773.069 453.421 773.13L453.802 773.402C454.14 773.644 454.442 773.608 454.708 773.293C465.796 759.931 475.943 745.878 485.147 731.135C502.759 702.884 516.892 675.996 527.546 650.471C547.331 602.988 558.185 560.811 558.221 512.802C558.221 510.379 557.931 510.349 557.351 512.711C555.262 521.312 551.867 529.841 547.168 538.297C525.389 577.457 489.514 583.581 448.203 579.656C437.344 578.626 425.095 579.565 411.458 582.472C390.404 586.979 369.603 592.448 349.056 598.881C337.46 602.516 328.92 605.853 323.436 608.894C322.108 609.626 320.819 610.344 319.562 611.045L319.555 611.049C306.15 618.519 296.373 623.968 281.781 622.523C274.932 621.832 259.875 606.204 255.2 600.953C253.292 598.796 251.945 596.319 251.16 593.521C251.027 593.024 250.701 592.769 250.181 592.757L242.245 592.666C240.783 592.654 239.678 592.018 238.929 590.758C231.452 578.268 224.899 565.306 219.27 551.871C218.966 551.143 218.917 550.332 219.131 549.571C219.345 548.809 219.809 548.14 220.448 547.673L226.672 543.095L226.674 543.094C266.342 513.918 305.954 484.784 344.454 454.271C346.338 452.769 347.758 450.861 348.712 448.547C351.744 441.217 355.047 434.022 358.623 426.959C359.311 425.578 360.326 424.56 361.667 423.906C375.643 417.013 388.785 408.775 401.094 399.192C412.654 390.179 419.756 375.66 409.32 362.776C399.825 351.019 390.295 345.513 375.039 339.607C373.766 339.114 372.499 338.623 371.238 338.135C328.717 321.673 293.178 307.913 262.031 274.716C230.468 241.074 216.8 201.793 221.028 156.873C223.456 131.124 233.91 99.5593 255.146 83.7318C255.543 83.4329 256.042 83.3034 256.534 83.3715C257.026 83.4395 257.471 83.6996 257.773 84.0952C257.99 84.3738 257.948 84.8645 257.646 85.5671C256.597 88.1189 255.398 90.7563 254.214 93.3602C252.615 96.8753 251.044 100.33 249.909 103.43C234.689 144.952 240.035 196.396 270.8 230.05C279.787 239.887 290.623 246.908 303.306 251.111C303.429 251.152 303.56 251.163 303.688 251.144C303.816 251.125 303.938 251.076 304.042 251.001C304.147 250.926 304.232 250.828 304.289 250.715C304.347 250.601 304.377 250.475 304.375 250.348C303.904 217.621 314.449 187.946 337.061 164.196C341.301 159.738 346.217 155.795 351.81 152.366C352.752 151.785 353.296 152.045 353.441 153.148C353.477 153.426 353.308 153.947 352.934 154.71C339 183.821 334.036 220.437 344.889 250.948C355.38 280.44 379.695 300.211 407.906 312.822C428.248 321.908 452.394 329.346 480.346 335.137C480.769 335.222 480.841 335.101 480.563 334.774ZM392.705 469.917C396.447 467.07 399.415 460.894 402.393 454.698C406.221 446.734 410.065 438.736 415.589 437.735C426.553 435.738 437.842 434.906 449.05 434.081C454.161 433.705 459.254 433.33 464.292 432.846C464.376 432.834 464.461 432.849 464.536 432.888C464.61 432.927 464.671 432.989 464.711 433.066C464.75 433.142 464.765 433.23 464.756 433.318C464.746 433.405 464.71 433.488 464.655 433.555C455.064 445.149 445.038 455.961 434.577 465.991C433.406 467.118 430.936 467.803 427.167 468.045C418.325 468.602 409.483 469.172 400.641 469.753C397.778 469.947 395.32 470.359 393.266 470.989C391.056 471.679 390.869 471.322 392.705 469.917Z" fill="black"/>
<path d="M407.29 601.97C438.165 608.04 466.739 627.32 482.248 654.977C485.498 660.78 487.624 666.516 488.626 672.186C488.964 674.1 489.574 674.191 490.456 672.458C504.444 645.055 513.413 617.907 522.509 588.978C522.762 588.142 522.515 587.942 521.766 588.378C520.933 588.854 520.144 589.398 519.364 589.937C518.21 590.733 517.074 591.517 515.841 592.049C498.676 599.511 482.17 602.927 466.322 602.297C446.693 601.534 427.058 601.098 407.417 600.989C407.369 600.989 407.327 601.001 407.29 601.025C407.133 601.147 407.031 601.286 406.982 601.443C406.964 601.497 406.957 601.553 406.962 601.61C406.968 601.666 406.986 601.721 407.015 601.771C407.044 601.821 407.084 601.864 407.131 601.899C407.179 601.933 407.233 601.958 407.29 601.97Z" fill="black"/>
</svg>
