<svg width="1024" height="1024" viewBox="0 0 1024 1024" fill="none" xmlns="http://www.w3.org/2000/svg">
<rect width="1024" height="1024" fill="white"/>
<path d="M457.929 757.456L319.511 756.846" stroke="#666D74" stroke-width="2"/>
<path d="M457.929 757.456L319.511 756.846C312.33 751.686 310.144 745.553 312.953 738.448C314.783 733.834 319.492 730.23 321.685 725.959C330.442 708.915 339.74 692.423 349.578 676.484C350.048 675.734 349.991 675.028 349.406 674.367C338.92 662.305 329.762 649.41 321.933 635.683C301.99 600.754 299.626 556.712 310.245 518.638C312.431 510.77 317.535 500.08 325.555 486.569C325.628 486.451 325.667 486.316 325.67 486.177C325.673 486.038 325.639 485.901 325.572 485.778C325.505 485.655 325.406 485.551 325.287 485.476C325.167 485.4 325.029 485.357 324.888 485.349C322.257 485.196 319.893 485.635 317.509 485.025C293.086 478.676 280.674 457.97 281.704 433.299C284.335 370.23 330.874 313.604 384.163 282.698C407.475 269.174 432.247 259.33 458.482 253.166C530.989 236.159 608.892 255.263 667.462 299.038C707.043 328.59 736.671 372.098 744.355 421.421C748.969 451.03 736.347 483.461 702.467 485.711C701.399 485.775 701.132 486.27 701.666 487.198C737.567 549.238 726.89 621.879 676.48 671.946C676.27 672.155 676.133 672.427 676.088 672.722C676.044 673.016 676.094 673.319 676.233 673.586C687.621 694.939 699.245 716.357 711.104 737.837C715.794 746.36 710.856 749.639 706.261 755.721C705.867 756.23 705.359 756.554 704.736 756.693C702.499 757.164 700.649 757.399 699.188 757.399C656.035 757.513 575.616 757.532 457.929 757.456Z" fill="#010808"/>
<path d="M718.148 747.363C719.054 753.424 723.993 757.709 729.179 756.934C734.365 756.159 737.835 750.617 736.929 744.556C736.023 738.495 731.085 734.21 725.899 734.985C720.712 735.76 717.242 741.302 718.148 747.363Z" fill="#CBD2E0"/>
<path d="M256.377 747.273C256.842 753.183 261.652 757.625 267.122 757.194C272.591 756.764 276.647 751.624 276.182 745.714C275.717 739.804 270.906 735.362 265.437 735.793C259.968 736.223 255.912 741.363 256.377 747.273Z" fill="#CBD2E0"/>
<path d="M747.865 745.009C747.228 750.691 750.961 755.774 756.203 756.362C761.446 756.95 766.213 752.821 766.85 747.139C767.487 741.457 763.754 736.374 758.511 735.786C753.269 735.198 748.502 739.327 747.865 745.009Z" fill="#CBD2E0"/>
<path d="M296.365 755.74C301.578 755.74 305.803 751.515 305.803 746.303C305.803 741.09 301.578 736.865 296.365 736.865C291.153 736.865 286.928 741.09 286.928 746.303C286.928 751.515 291.153 755.74 296.365 755.74Z" fill="#CBD2E0"/>
<path d="M319.512 756.846L457.929 757.456L456.347 757.876C456.239 757.906 456.137 757.958 456.049 758.03C455.96 758.103 455.886 758.193 455.832 758.295C455.667 758.6 455.661 758.905 455.813 759.21C455.94 759.477 456.15 759.611 456.442 759.611C505.689 759.649 544.564 761.365 588.606 760.678C623.211 760.126 656.919 760.793 691.085 760.488C689.229 760.259 694.123 759.687 705.766 758.772C711.549 758.314 713.907 760.933 712.839 766.627L712.572 768.076C712.117 770.483 710.839 772.657 708.957 774.225C707.076 775.794 704.707 776.66 702.258 776.675C631.676 777.081 560.592 777.107 489.007 776.751C432.267 776.465 375.546 776.98 318.825 776.656C314.643 776.63 312.038 774.635 311.008 770.669C309.28 764.11 312.114 759.503 319.512 756.846Z" fill="#CBD2E0"/>
<path d="M489.845 372.231L485.27 386.016" stroke="#C7B5C2" stroke-width="2"/>
<path d="M485.269 386.016C483.909 384.707 482.721 383.188 481.704 381.459C472.572 366.035 450.684 367.846 439.092 377.722C432.775 383.112 428.625 390.827 426.642 400.868" stroke="#FFCAA1" stroke-width="2"/>
<path d="M485.27 386.016L486.261 400.926" stroke="#C78063" stroke-width="2"/>
<path d="M569.54 373.967C554.574 374.31 544.545 379.877 535.451 391.183C532.527 394.818 529.718 398.371 527.023 401.841" stroke="#B5BDC9" stroke-width="2"/>
<path d="M644.278 432.479C641.647 437.03 638.425 439.305 634.612 439.305C548.434 439.191 462.257 439.178 376.079 439.267C375.431 439.267 374.885 439.496 374.44 439.953C373.054 441.415 372.018 443.099 371.332 445.006C371.103 445.667 370.639 445.972 369.94 445.921C369.533 445.895 369.19 445.679 368.911 445.273" stroke="#94A1A9" stroke-width="2"/>
<path d="M649.102 432.861C647.488 433.369 646.661 433.929 646.623 434.539C646.56 435.632 647.081 436.191 648.187 436.216L660.465 436.464C660.794 436.47 661.113 436.348 661.355 436.124C661.596 435.9 661.742 435.592 661.762 435.263C661.812 434.297 661.253 433.662 660.084 433.357C657.491 432.67 654.758 432.27 651.886 432.156" stroke="#7A8A9A" stroke-width="2"/>
<path d="M336.423 578.543C340.846 575.823 344.214 572.238 346.528 567.79C348.396 564.224 347.576 557.418 346.585 553.261C344.43 544.148 347.328 532.766 351.218 524.205C351.349 523.912 351.548 523.654 351.797 523.452C352.047 523.251 352.341 523.111 352.655 523.044C352.969 522.977 353.294 522.985 353.604 523.068C353.914 523.15 354.201 523.305 354.44 523.519C362.81 530.897 372.972 531.259 382.905 526.302C403.878 515.835 406.871 489.238 382.181 480.125" stroke="#94A1A9" stroke-width="2"/>
<path d="M600.694 296.75C628.466 308.635 652.654 325.629 673.258 347.732C686.808 362.273 697.713 379.934 705.975 400.716C710.989 413.319 717.148 435.492 709.045 447.084C704.367 453.783 697.694 457.507 689.026 458.257C687.64 458.384 687.399 457.913 688.301 456.846C696.385 447.351 702.2 438.161 699.912 424.224C698.438 415.225 693.868 408.292 686.204 403.423C679.55 399.21 669.35 399.82 661.876 399.992C661.606 399.998 661.343 399.904 661.139 399.728C660.935 399.552 660.803 399.306 660.77 399.038C658.775 381.383 649.47 369.454 632.858 363.252C622.804 359.489 612.851 359.782 603.001 364.129C602.802 364.216 602.579 364.231 602.371 364.172C602.162 364.113 601.98 363.983 601.857 363.805C581.189 334.558 541.266 326.798 511.866 348.514C511.477 348.798 510.992 348.92 510.515 348.852C510.038 348.784 509.606 348.533 509.311 348.152C503.916 341.288 496.061 336.483 488.472 332.48C446.413 310.249 394.554 336.197 386.756 382.718C385.898 387.847 386.127 393.719 385.746 399.515C385.726 399.807 385.594 400.079 385.377 400.275C385.16 400.471 384.875 400.574 384.583 400.564C375.635 400.322 366.75 400.138 357.929 400.011C325.498 399.534 319.035 438.295 340.808 456.598C340.938 456.705 341.035 456.848 341.087 457.009C341.138 457.17 341.142 457.343 341.098 457.506C341.054 457.669 340.963 457.816 340.837 457.929C340.711 458.042 340.555 458.116 340.388 458.142C328.015 460.278 314.44 449.982 314.173 436.655C313.258 389.372 352.781 341.021 390.379 315.625C400.153 309.029 411.339 303.048 423.935 297.684C482.734 272.594 540.064 270.783 600.694 296.75Z" fill="white"/>
<path d="M489.845 372.231L485.269 386.016C483.909 384.707 482.721 383.188 481.704 381.459C472.571 366.035 450.684 367.846 439.092 377.722C432.775 383.112 428.625 390.827 426.642 400.868L417.204 400.792C416.124 400.779 415.552 400.233 415.488 399.152C413.887 370.916 435.507 349.658 464.22 354.996C474.961 357.004 483.502 362.749 489.845 372.231Z" fill="white"/>
<path d="M569.54 373.967C554.573 374.31 544.545 379.877 535.45 391.183C532.527 394.818 529.718 398.371 527.023 401.841C524.329 401.561 522.848 400.862 522.581 399.744C520.045 389.258 520.465 377.399 529.94 371.336C542.486 363.29 558.825 361.993 569.54 373.967Z" fill="white"/>
<path d="M485.269 386.016L486.26 400.926L426.642 400.869C428.624 390.827 432.774 383.112 439.092 377.723C450.684 367.846 472.571 366.035 481.704 381.459C482.72 383.188 483.909 384.707 485.269 386.016Z" fill="#FF9442"/>
<path d="M489.845 372.232C494.827 380.862 496.448 389.906 494.707 399.362C494.661 399.595 494.57 399.815 494.437 400.011C494.305 400.206 494.134 400.373 493.936 400.499C493.738 400.626 493.516 400.711 493.285 400.748C493.053 400.785 492.817 400.774 492.59 400.716C490.086 400.068 487.976 400.138 486.26 400.926L485.269 386.016L489.845 372.232Z" fill="#8F6B84"/>
<path d="M569.54 373.967L577.395 382.584C577.721 382.946 577.948 383.386 578.055 383.863C578.162 384.341 578.145 384.839 578.005 385.311L574.135 397.894C573.912 398.617 573.469 399.252 572.867 399.71C572.266 400.168 571.535 400.427 570.779 400.449L527.023 401.841C529.718 398.371 532.527 394.818 535.451 391.183C544.545 379.877 554.574 374.31 569.54 373.967Z" fill="#6B7B92"/>
<path d="M605.784 400.926C605.693 400.926 605.606 400.889 605.541 400.825C605.477 400.761 605.441 400.673 605.441 400.582V400.487C605.445 399.032 605.795 397.591 606.471 396.249C607.148 394.906 608.138 393.688 609.385 392.662C610.631 391.637 612.11 390.826 613.736 390.274C615.363 389.723 617.105 389.442 618.863 389.448H619.321C622.869 389.46 626.268 390.638 628.77 392.722C631.273 394.806 632.674 397.627 632.667 400.563V400.659C632.667 400.75 632.631 400.837 632.566 400.901C632.502 400.966 632.415 401.002 632.324 401.002L605.784 400.926Z" fill="#FF9442"/>
<path d="M644.278 432.48C641.647 437.03 638.425 439.305 634.612 439.305C548.434 439.191 462.257 439.178 376.079 439.267C375.431 439.267 374.885 439.496 374.44 439.953C373.054 441.415 372.018 443.099 371.332 445.006C371.103 445.667 370.639 445.972 369.94 445.921C369.533 445.896 369.19 445.679 368.911 445.273L361.685 434.386C361.445 434.025 361.309 433.605 361.291 433.171C361.272 432.738 361.372 432.308 361.58 431.928C361.788 431.547 362.096 431.231 362.471 431.012C362.845 430.793 363.272 430.681 363.706 430.687C455.984 431.755 548.282 431.583 640.56 431.545C641.437 431.545 642.677 431.857 644.278 432.48Z" fill="white"/>
<path d="M368.911 445.273C369.19 445.679 369.534 445.896 369.94 445.921C370.639 445.972 371.103 445.667 371.332 445.006C372.018 443.099 373.054 441.415 374.44 439.953C374.885 439.496 375.431 439.267 376.08 439.267C462.257 439.178 548.434 439.191 634.612 439.305C638.425 439.305 641.647 437.03 644.278 432.48L649.102 432.861C647.488 433.369 646.661 433.929 646.623 434.539C646.56 435.632 647.081 436.191 648.187 436.216L660.465 436.464C660.794 436.47 661.113 436.348 661.355 436.124C661.596 435.9 661.742 435.592 661.762 435.263C661.812 434.297 661.253 433.662 660.084 433.357C657.491 432.67 654.758 432.27 651.885 432.156L664.107 431.812C664.411 431.807 664.712 431.882 664.978 432.029C665.244 432.177 665.467 432.392 665.622 432.652C665.777 432.912 665.86 433.208 665.862 433.509C665.863 433.811 665.784 434.107 665.632 434.367C661.857 440.945 658.082 450.325 648.911 450.363C589.426 450.63 529.883 451.374 470.398 450.954C440.795 450.738 411.192 450.751 381.59 450.992C378.749 451.012 375.202 451.279 373.124 449.544C371.726 448.361 370.557 447.618 369.616 447.313C369.006 447.122 368.739 446.715 368.815 446.093L368.911 445.273Z" fill="#284253"/>
<path d="M651.886 432.156C654.758 432.27 657.491 432.67 660.084 433.357C661.253 433.662 661.812 434.297 661.762 435.263C661.742 435.592 661.596 435.9 661.355 436.124C661.113 436.348 660.794 436.47 660.465 436.464L648.187 436.216C647.081 436.191 646.56 435.632 646.623 434.539C646.661 433.929 647.488 433.369 649.102 432.861L651.886 432.156Z" fill="#CBD2E0"/>
<path d="M336.423 578.543C340.846 575.823 344.214 572.238 346.528 567.79C348.396 564.224 347.576 557.418 346.585 553.261C344.43 544.148 347.328 532.766 351.218 524.205C351.349 523.912 351.547 523.654 351.797 523.453C352.047 523.251 352.341 523.111 352.655 523.044C352.968 522.977 353.294 522.985 353.604 523.068C353.914 523.15 354.201 523.305 354.44 523.519C362.81 530.897 372.972 531.26 382.905 526.302C403.877 515.835 406.871 489.238 382.181 480.125C384.392 479.591 387.265 479.337 390.798 479.362C433.963 479.706 487.665 479.604 551.904 479.057C560.84 478.981 571.885 480.633 585.041 484.014C595.413 486.684 605.498 492.334 615.298 500.964C621.762 506.665 626.356 514.31 631.027 521.746C631.358 522.267 631.517 522.839 631.504 523.462C631.428 526.474 632.229 529.226 633.906 531.717C634.288 532.264 634.415 532.867 634.288 533.528C631.924 545.673 632.801 554.329 625.232 565.273C601.876 599.077 569.159 619.782 529.902 630.287C489.915 641.002 449.718 642.337 409.311 634.291C404.735 633.376 400.198 632.149 395.698 630.611C391.237 629.099 386.814 627.485 382.428 625.769C369.565 620.723 358.889 614.374 350.398 606.722C343.598 600.596 338.634 592.562 335.508 582.623C335.279 581.898 335.26 581.199 335.45 580.526C335.743 579.534 336.067 578.873 336.423 578.543Z" fill="#284253"/>
<path d="M382.181 480.125C406.871 489.239 403.877 515.835 382.905 526.303C372.972 531.26 362.81 530.897 354.44 523.519C354.201 523.305 353.914 523.15 353.604 523.068C353.294 522.985 352.968 522.977 352.654 523.044C352.34 523.111 352.047 523.251 351.797 523.453C351.547 523.655 351.349 523.912 351.218 524.205C347.328 532.766 344.43 544.148 346.585 553.262C347.576 557.418 348.396 564.224 346.527 567.79C344.214 572.238 340.846 575.823 336.423 578.543C334.192 564.72 333.391 544.491 338.158 530.478C344.004 513.268 353.067 498.079 365.345 484.911C367.646 482.445 370.175 480.945 372.934 480.411C375.959 479.839 379.041 479.744 382.181 480.125Z" fill="white"/>
<path d="M671.313 515.053C667.36 506.169 663.033 497.475 658.33 488.971C657.453 487.395 657.097 485.864 657.262 484.377C657.299 484.019 657.436 483.68 657.658 483.398C657.879 483.115 658.176 482.9 658.515 482.778C658.854 482.655 659.222 482.629 659.576 482.702C659.931 482.776 660.259 482.946 660.522 483.194C681.666 503.385 691.275 532.232 690.799 561.04C690.697 567.65 690.621 574.456 690.57 581.46C690.545 584.459 689.083 585.572 686.185 584.796L680.865 583.385C678.107 582.648 676.9 580.862 677.243 578.028C679.702 557.57 679.207 532.842 671.313 515.053Z" fill="#284253"/>
<path d="M638.025 594.31C642.067 589.486 648.625 592.289 649.007 598.028C649.96 612.327 621.457 637.17 610.761 645.254C606.909 648.171 602.334 649.563 598.616 652.556C595.552 655.009 593.169 656.255 591.466 656.293C581.914 656.541 580.884 645.769 587.748 641.708C603.255 632.556 616.766 621.123 628.282 607.408C631.371 603.729 634.517 598.524 638.025 594.31Z" fill="#284253"/>
<path d="M598.349 722.223C616.404 715.778 631.924 706.798 647.119 695.626C647.21 695.56 647.313 695.514 647.423 695.491C647.533 695.468 647.646 695.468 647.756 695.491C647.865 695.515 647.969 695.561 648.06 695.626C648.15 695.692 648.226 695.777 648.282 695.874L667.996 730.821C668.062 730.943 668.095 731.08 668.093 731.219C668.09 731.358 668.051 731.494 667.98 731.613C667.908 731.732 667.808 731.831 667.687 731.899C667.566 731.968 667.43 732.003 667.291 732.003L564.259 732.747C561.704 732.772 561.672 732.518 564.164 731.984C575.502 729.544 586.897 726.29 598.349 722.223Z" fill="white"/>
<path d="M465.65 732.118C466.248 732.169 466.858 732.251 467.481 732.366C467.514 732.366 467.545 732.379 467.565 732.402C467.585 732.425 467.594 732.457 467.589 732.489C467.584 732.522 467.565 732.554 467.538 732.577C467.511 732.6 467.476 732.613 467.443 732.613L358.024 731.717C357.94 731.715 357.858 731.69 357.786 731.647C357.714 731.604 357.655 731.544 357.614 731.472C357.574 731.401 357.553 731.321 357.555 731.24C357.556 731.159 357.58 731.08 357.624 731.012L377.929 696.903C377.97 696.834 378.024 696.773 378.089 696.726C378.154 696.678 378.228 696.645 378.307 696.627C378.386 696.609 378.467 696.607 378.546 696.622C378.625 696.637 378.701 696.668 378.768 696.713C403.057 713.51 435.946 729.086 465.65 732.118Z" fill="white"/>
<path d="M363.858 571.393C371.429 571.393 377.567 565.256 377.567 557.685C377.567 550.114 371.429 543.976 363.858 543.976C356.287 543.976 350.15 550.114 350.15 557.685C350.15 565.256 356.287 571.393 363.858 571.393Z" fill="white"/>
</svg>
