<svg width="1024" height="1024" viewBox="0 0 1024 1024" fill="none" xmlns="http://www.w3.org/2000/svg">
<rect width="1024" height="1024" fill="white"/>
<path d="M776.401 809.086C771.726 791.426 764.62 774.764 755.084 759.099C751.042 752.482 747.971 746.697 744.524 740.417C740.139 732.492 731.388 720.281 718.273 703.784C713.65 697.959 703.004 686.144 686.335 668.34C676.931 658.275 665.011 650.621 650.574 645.377" stroke="#112533" stroke-width="2"/>
<path d="M650.573 645.378C631.474 635.412 611.82 629.548 591.454 623.128C569.343 616.174 540.437 612.212 523.339 606.407C512.614 602.762 504.432 597.749 498.792 591.37C491.877 583.504 481.674 568.031 472.878 553.013C468.895 546.237 463.625 540.096 460.237 531.378C459.963 530.662 459.511 530.025 458.923 529.527C458.334 529.028 457.628 528.684 456.869 528.525L455.027 528.149C454.765 528.097 454.493 528.122 454.245 528.221C453.997 528.32 453.783 528.488 453.628 528.705C453.473 528.923 453.384 529.181 453.372 529.447C453.361 529.714 453.426 529.979 453.561 530.209C467.964 554.479 481.773 578.036 499.327 599.79C501.493 602.484 505.634 606.215 511.749 610.984" stroke="#283849" stroke-width="2"/>
<path d="M511.749 610.983C520.823 614.668 528.814 617.323 535.722 618.947C548.573 621.959 567.626 625.948 592.88 630.914" stroke="#01223B" stroke-width="2"/>
<path d="M592.881 630.914C616.616 637.611 638.548 643.891 657.607 657.859" stroke="#283849" stroke-width="2"/>
<path d="M657.607 657.858L667.196 666.932" stroke="#112533" stroke-width="2"/>
<path d="M667.195 666.933C679.492 678.846 691.835 692.675 704.224 708.419C708.477 713.821 712.063 719.039 714.982 724.071C719.321 731.501 724.651 737.682 728.474 744.141C739.193 762.328 752.606 785.548 759.916 809.006" stroke="#283849" stroke-width="2"/>
<path d="M650.574 645.377L659.728 653.302C660.243 653.751 660.454 654.319 660.361 655.006C660.163 656.565 659.245 657.516 657.608 657.859" stroke="#385C6D" stroke-width="2"/>
<path d="M592.88 630.914C590.648 628.074 587.643 626.621 583.865 626.555C581.369 626.496 579.13 624.752 576.733 624.257C566.054 622.078 556.009 617.917 545.35 616.213C539.189 615.223 533.107 613.816 526.945 612.865C521.061 611.973 518.148 610.091 511.749 610.983" stroke="#285875" stroke-width="2"/>
<path d="M763.979 808.966L763.92 805.499C763.92 804.838 763.775 804.211 763.484 803.616C759.502 795.256 756.609 785.805 751.933 777.92C749.021 773.007 746.287 765.894 744.464 762.407C735.45 745.171 726.871 728.31 714.588 713.075C708.327 705.328 700.977 695.818 693.289 688.012C685.602 680.22 677.75 672.579 669.733 665.09C669.218 664.601 668.65 664.542 668.029 664.911C667.368 665.308 667.091 665.981 667.197 666.932" stroke="#385C6D" stroke-width="2"/>
<path d="M671.138 798.783C665.591 790.303 661.212 784.722 658.002 782.041C653.948 778.66 650.989 776.005 649.127 774.077C644.174 768.926 638.943 764.171 633.713 759.317C626.798 752.858 620.399 743.388 612.098 736.572" stroke="#01223B" stroke-width="2"/>
<path d="M612.097 736.573L596.683 719.297C596.409 718.985 596.071 718.736 595.692 718.565C595.313 718.394 594.901 718.306 594.484 718.306L576.752 718.366" stroke="#01495C" stroke-width="2"/>
<path d="M576.753 718.365L555.178 718.028" stroke="#011C36" stroke-width="2"/>
<path d="M555.178 718.028H524.885" stroke="#03354A" stroke-width="2"/>
<path d="M424.179 797.257C412.866 799.397 407.141 790.917 414.788 782.259C417.086 779.67 419.484 776.85 421.98 773.799C422.143 773.595 422.258 773.357 422.317 773.103C422.376 772.848 422.377 772.584 422.32 772.329C422.263 772.074 422.149 771.836 421.988 771.63C421.826 771.425 421.62 771.259 421.386 771.144L412.787 767.023" stroke="#44657F" stroke-width="2"/>
<path d="M576.752 718.365L597 744.418" stroke="#006383" stroke-width="2"/>
<path d="M597.002 744.418C601.044 751.491 607.086 757.771 611.188 763.715C614.655 768.787 618.181 773.086 621.252 778.812C622.639 781.374 624.164 783.765 625.829 785.984" stroke="#003C62" stroke-width="2"/>
<path d="M608.988 796.326C600.997 784.677 592.511 772.492 583.53 759.773C576.688 750.105 568.875 742.886 560.092 738.118" stroke="#598CAC" stroke-width="2"/>
<path d="M560.091 738.117C553.989 732.273 555.832 725.339 555.178 718.028" stroke="#024F71" stroke-width="2"/>
<path d="M560.091 738.118C558.255 738.118 557.001 737.973 556.327 737.682" stroke="#5BA5BF" stroke-width="2"/>
<path d="M612.099 736.572C609.741 742.476 602.668 744.041 597.002 744.418" stroke="#006988" stroke-width="2"/>
<path d="M776.398 809.085C771.723 791.426 764.617 774.764 755.08 759.099C751.039 752.482 747.968 746.697 744.52 740.416C740.135 732.491 731.385 720.28 718.269 703.783C713.646 697.959 703.001 686.144 686.332 668.339C676.928 658.275 665.007 650.621 650.571 645.377C631.472 635.412 611.818 629.547 591.451 623.128C569.341 616.174 540.435 612.212 523.337 606.407C512.612 602.761 504.43 597.749 498.79 591.369C491.875 583.504 481.672 568.03 472.876 553.013C468.893 546.237 463.623 540.095 460.235 531.378C459.961 530.661 459.509 530.025 458.921 529.526C458.332 529.028 457.626 528.684 456.867 528.525L455.025 528.148C454.763 528.097 454.491 528.122 454.243 528.22C453.995 528.319 453.781 528.487 453.626 528.705C453.471 528.923 453.382 529.18 453.37 529.447C453.358 529.714 453.424 529.978 453.559 530.209C467.962 554.479 481.771 578.035 499.325 599.789C501.491 602.484 505.632 606.215 511.747 610.983C520.821 614.668 528.812 617.323 535.72 618.948C548.571 621.959 567.624 625.948 592.878 630.914C616.613 637.611 638.545 643.891 657.604 657.859L667.193 666.933C679.49 678.847 691.833 692.675 704.222 708.42C708.475 713.822 712.061 719.039 714.98 724.071C719.319 731.501 724.649 737.682 728.473 744.141C739.191 762.328 752.604 785.548 759.914 809.006C751.534 809.759 745.036 813.444 740.36 803.498C723.183 766.925 702.875 732.155 676.485 701.723C659.051 681.653 647.243 669.469 624.756 660.197C610.174 654.174 597.798 649.901 587.628 647.378C562.532 641.17 540.779 636.29 522.366 632.737C518.899 632.083 515.511 632.063 512.381 634.342C496.677 645.806 480.998 657.297 465.347 668.815C462.243 671.113 458.406 671.595 453.836 670.261C444.603 667.58 435.338 665.07 426.04 662.733C419.145 660.989 412.349 658.334 405.435 656.195C402.186 655.184 400.601 655.263 397.906 657.661C394.631 660.58 391.19 663.017 387.584 664.971C387.185 665.189 386.868 665.532 386.682 665.947C386.496 666.362 386.451 666.827 386.554 667.27C388.634 676.423 389.664 686.824 384.374 695.343C376.667 707.746 363.988 702.436 353.289 698.533C352.433 698.222 351.492 698.236 350.645 698.572C349.798 698.908 349.103 699.542 348.693 700.356C342.036 713.63 337.023 718.147 321.372 716.859C320.738 716.793 320.381 717.084 320.302 717.731C316.339 750.065 270.791 749.768 266.234 719.435C265.402 713.828 266.393 710.381 269.484 705.289C272.904 699.689 275.969 693.897 278.676 687.914C278.927 687.333 278.855 686.798 278.459 686.309C277.442 685.107 276.306 683.958 275.051 682.862C263.698 672.936 261.876 653.421 275.368 644.327C275.587 644.181 275.76 643.978 275.869 643.739C275.978 643.5 276.018 643.235 275.985 642.973C275.952 642.711 275.848 642.462 275.683 642.253C275.518 642.045 275.299 641.885 275.051 641.791C268.889 639.493 265.818 642.861 261.222 643.673C223.321 650.33 201.112 605.693 232.118 580.69C247.195 568.545 260.628 573.756 278.141 579.759C282.956 581.423 291 581.146 297.736 583.9C298.436 584.191 298.858 583.966 299.004 583.226C300.926 573.736 307.523 561.037 318.281 559.452C330.802 557.629 347.861 568.328 356.103 577.639C356.591 578.194 357.067 578.187 357.529 577.619C368.082 565.019 381.574 557.86 398.005 556.143C408.367 555.053 416.351 568.09 418.907 576.292C421.502 584.633 422.275 591.686 421.086 600.364C420.611 603.785 421.866 607.14 424.851 610.428C432.432 618.776 440.344 626.43 448.586 633.391C449.424 634.096 450.47 634.509 451.564 634.566C452.658 634.624 453.741 634.322 454.648 633.708L486.685 612.033C487.437 611.518 487.51 610.917 486.903 610.23C468.636 589.527 454.708 564.385 440.819 539.897C440.014 538.471 439.05 538.358 437.927 539.56C432.71 545.134 426.614 550.384 419.64 555.311C411.081 561.373 387.544 547.624 380.848 542.017C380.239 541.509 379.503 541.178 378.72 541.06C377.938 540.941 377.139 541.039 376.41 541.343C363.79 546.574 350.991 554.459 337.915 545.96C320.817 534.845 318.241 505.424 322.778 487.652C322.807 487.535 322.811 487.412 322.789 487.293C322.766 487.174 322.719 487.061 322.65 486.961C322.58 486.862 322.49 486.778 322.386 486.717C322.282 486.655 322.166 486.616 322.045 486.602C306.433 484.964 292.624 479.008 280.618 468.732C266.809 456.924 285.294 446.067 280.44 433.169C276.735 423.342 271.029 414.05 278.974 404.203C285.829 395.704 294.546 392.891 304.175 388.274C304.343 388.193 304.492 388.077 304.611 387.932C304.73 387.788 304.816 387.619 304.863 387.438C304.91 387.257 304.917 387.068 304.884 386.884C304.851 386.7 304.778 386.525 304.67 386.372L291.138 367.075C290.768 366.547 290.26 366.309 289.613 366.362C279.482 367.115 273.017 368.04 270.217 369.136C266.413 370.642 263.276 370.483 260.806 368.66C248.166 359.368 235.189 354.237 219.359 357.169C216.268 357.737 213.93 357.539 212.345 356.575C206.303 352.929 209.591 343.221 213.257 338.704C215.33 336.168 218.243 333.797 221.994 331.592C238.94 321.62 255.78 322.577 272.515 334.464C273.875 335.442 274.278 335.138 273.723 333.553C268.638 319.262 268.751 305.063 274.06 290.957C274.194 290.595 274.239 290.206 274.191 289.823C274.143 289.44 274.003 289.075 273.783 288.758C267.06 279.169 260.066 270.352 252.802 262.308C251.005 260.327 251.038 257.752 252.901 254.582C262.272 238.633 280.281 261.457 285.393 269.302C285.528 269.508 285.708 269.681 285.92 269.807C286.131 269.934 286.368 270.012 286.614 270.035C286.859 270.058 287.106 270.025 287.337 269.939C287.568 269.854 287.777 269.717 287.949 269.54C295.675 261.635 320.203 241.248 327.078 262.229C328.266 265.848 329.217 270.782 329.931 277.029C332.288 297.535 331.833 313.642 319.628 331.235C319.206 331.829 319.173 332.444 319.529 333.078L325.631 343.974C325.719 344.135 325.851 344.267 326.013 344.353C326.175 344.438 326.359 344.475 326.543 344.459C326.727 344.442 326.903 344.372 327.051 344.258C327.198 344.144 327.311 343.991 327.375 343.816C327.982 342.112 328.676 340.461 329.455 338.863C333.279 330.978 344.314 330.462 349.683 324.043C354.874 317.802 355.944 314.058 364.126 307.599C374.389 299.496 381.878 304.964 390.754 311.264C395.945 314.969 402.265 315.96 408.03 318.654C413.895 321.388 417.738 326.341 422.097 331.096C422.572 331.625 423.074 331.645 423.603 331.156C434.361 321.17 451.419 307.797 464.376 324.222C470.478 331.962 474.797 341.703 477.333 353.445C477.782 355.518 479.506 356.905 482.504 357.605C496.155 360.834 513.59 368.264 520.98 381.083C522.247 383.275 522.465 385.58 521.633 387.997C518.86 396.146 516.211 404.335 513.689 412.564C509.33 426.849 505.11 435.487 497.185 446.978C497.126 447.067 497.094 447.173 497.094 447.282C497.094 447.391 497.126 447.499 497.185 447.592C506.55 461.817 512.295 477.475 514.422 494.567C517.294 517.648 500.177 523.71 481.256 525.256C480.936 525.283 480.626 525.384 480.352 525.552C480.078 525.719 479.848 525.949 479.679 526.221C479.511 526.494 479.411 526.801 479.385 527.119C479.359 527.436 479.41 527.755 479.532 528.049C486.942 545.861 499.959 563.909 510.638 578.57C517.631 588.179 528.072 591.884 539.306 594.143C539.73 594.232 540.172 594.159 540.549 593.94C540.925 593.721 541.209 593.37 541.346 592.954C549.212 569.615 561.555 554.241 578.217 536.687C578.862 536.007 579.238 535.116 579.274 534.179C579.311 533.242 579.005 532.324 578.415 531.596C573.436 525.48 572.584 518.751 575.859 511.407C576.137 510.773 576.137 510.139 575.859 509.505C569.856 495.894 562.645 483.789 559.356 468.236C556.622 455.358 555.908 441.47 555.572 427.978C555.555 427.267 555.335 426.576 554.939 425.987C554.542 425.397 553.985 424.933 553.333 424.65C540.257 418.944 533.917 401.469 531.658 390.81C529.915 382.555 530.621 374.439 533.778 366.461C533.877 366.217 533.924 365.954 533.916 365.69C533.909 365.426 533.846 365.166 533.733 364.926C533.619 364.686 533.458 364.472 533.258 364.296C533.057 364.121 532.823 363.988 532.57 363.905C516.363 358.715 504.555 349.066 497.958 333.117C495.541 327.24 492.14 321.25 487.754 315.148C485.826 312.466 485.773 309.521 487.596 306.311C496.313 290.897 505.268 279.446 522.882 273.344C530.78 270.597 536.235 268.774 539.246 267.876C539.533 267.794 539.788 267.63 539.978 267.404C540.169 267.178 540.287 266.9 540.316 266.608C540.95 261.219 541.868 255.975 543.07 250.877C546.359 237.028 554.561 232.927 567.32 229.579C576.493 227.181 578.97 218.524 586.597 214.68C606.628 204.576 610.927 226.013 625.39 229.995C634.424 232.471 641.239 232.253 647.262 241.625C652.136 249.219 654.335 257.25 653.86 265.716C653.833 266.269 654.004 266.814 654.341 267.253C654.679 267.692 655.161 267.997 655.702 268.113C671.096 271.283 689.898 279.208 699.487 292.146C706.996 302.289 692.315 309.897 696.694 318.734C699.408 324.241 702.34 334.524 697.724 339.992C687.726 351.866 675.297 360.022 660.438 364.46C659.777 364.658 659.539 365.088 659.724 365.748C664.697 383.5 660.636 402.658 650.472 417.121C639.08 433.327 610.55 420.271 598.247 411.534C598.177 411.48 598.093 411.448 598.005 411.441C597.917 411.434 597.829 411.452 597.752 411.494L576.691 422.946C576.244 423.187 575.867 423.541 575.596 423.971C575.325 424.401 575.17 424.895 575.146 425.402C573.977 448.305 576.553 473.665 591.689 492.15C592.099 492.652 592.634 492.883 593.294 492.843C603.913 492.249 615.186 495.993 620.139 483.373C620.364 482.779 620.338 482.197 620.06 481.629C617.722 476.967 616.97 472.021 617.802 466.79C620.219 451.772 624.26 436.22 642.666 437.508C649.745 438.01 655.986 440.631 661.388 445.373C661.558 445.524 661.765 445.628 661.987 445.673C662.21 445.718 662.44 445.704 662.656 445.632C662.871 445.559 663.063 445.431 663.213 445.261C663.363 445.09 663.465 444.883 663.508 444.66C666.124 432.02 676.149 410.028 690.394 407.968C705.53 405.769 714.307 421.024 717.675 433.466C717.778 433.839 717.979 434.178 718.258 434.446C718.537 434.715 718.883 434.904 719.259 434.993C719.636 435.082 720.03 435.068 720.399 434.953C720.769 434.838 721.101 434.625 721.36 434.338C732.891 421.519 741.331 406.997 743.787 389.542C744.798 382.43 737.804 385.283 734.337 384.49C729.027 383.282 724.748 374.485 722.925 369.928C721.644 366.706 721.505 363.549 722.509 360.458C724.966 352.91 732.217 343.915 741.113 343.994C741.813 344.007 742.169 343.664 742.183 342.964C742.262 339.061 740.835 333.414 743.51 330.363C749.573 323.449 757.696 315.861 767.007 323.647C767.575 324.123 768.17 324.162 768.79 323.766C773.506 320.695 777.745 318.238 783.214 321.904C790.782 326.975 796.052 332.642 792.823 341.082C792.72 341.345 792.686 341.63 792.723 341.911C792.76 342.191 792.867 342.458 793.034 342.688C793.201 342.918 793.423 343.103 793.68 343.228C793.937 343.352 794.221 343.411 794.507 343.4C806.909 342.825 811.288 353.068 815.725 364.619C815.937 365.2 815.91 365.768 815.646 366.322C812.225 373.283 809.287 378.593 806.83 382.251C804.016 386.452 798.41 386.67 793.219 384.669C792.136 384.246 791.839 384.556 792.327 385.6C794.031 389.265 795.101 392.138 793.1 396.001C789.236 403.53 776.656 414.367 767.938 406.838C767.466 406.431 766.858 406.216 766.235 406.234C765.612 406.252 765.018 406.503 764.57 406.937C762.483 408.945 760.793 411.019 759.498 413.158C752.683 424.412 745.498 435.526 737.943 446.502C737.755 446.782 737.673 447.12 737.713 447.454C737.753 447.789 737.912 448.098 738.161 448.325C746.204 455.675 750.405 452.426 759.578 451.614C774.41 450.293 785.023 456.125 791.416 469.108C797.558 481.61 786.245 490.089 778.221 497.321C778.071 497.457 777.958 497.63 777.895 497.823C777.832 498.015 777.819 498.222 777.859 498.422C777.899 498.623 777.989 498.811 778.122 498.968C778.255 499.126 778.425 499.247 778.617 499.322C791.138 503.997 799.479 512.807 803.64 525.751C807.246 536.965 783.015 551.428 774.892 554.221C774.325 554.419 774.285 554.697 774.774 555.053C776.557 556.374 778.406 557.583 780.321 558.679C789.421 563.896 795.2 571.233 797.657 580.69C799.915 589.368 790.108 599.869 784.046 604.505C771.465 614.113 755.378 613.955 741.905 605.911C741.298 605.541 740.921 605.707 740.776 606.407C739.402 613.248 737.203 619.694 734.178 625.743C732.633 628.821 730.434 631.198 727.581 632.876C722.588 635.788 715.694 640.186 709.611 637.611C695.287 631.568 685.064 615.58 681.359 601.909C679.074 593.456 677.925 593.661 677.912 602.523L677.833 636.858C677.826 637.328 677.925 637.793 678.12 638.218C678.315 638.643 678.603 639.018 678.962 639.315C700.696 657.601 721.023 677.612 737.923 700.554C760.39 731.038 778.868 763.894 793.357 799.12C798.865 812.533 783.709 810.928 776.398 809.085Z" fill="#01010F"/>
<path d="M452.43 246.736C452.43 249.852 451.192 252.84 448.989 255.044C446.786 257.247 443.797 258.485 440.681 258.485C437.565 258.485 434.577 257.247 432.374 255.044C430.17 252.84 428.933 249.852 428.933 246.736C428.933 243.62 430.17 240.632 432.374 238.429C434.577 236.225 437.565 234.988 440.681 234.988C443.797 234.988 446.786 236.225 448.989 238.429C451.192 240.632 452.43 243.62 452.43 246.736Z" fill="#010108"/>
<path d="M272.689 500.367C273.448 502.595 273.205 505.063 272.015 507.226C270.824 509.39 268.783 511.073 266.341 511.904C265.132 512.316 263.86 512.506 262.599 512.464C261.338 512.422 260.112 512.149 258.992 511.66C257.871 511.171 256.877 510.475 256.068 509.614C255.258 508.752 254.648 507.74 254.272 506.637C253.513 504.408 253.756 501.941 254.946 499.777C256.137 497.614 258.178 495.931 260.62 495.099C261.829 494.688 263.101 494.497 264.362 494.539C265.623 494.581 266.849 494.855 267.969 495.344C269.09 495.833 270.084 496.528 270.894 497.39C271.704 498.252 272.314 499.263 272.689 500.367Z" fill="#010108"/>
<path d="M242.26 503.958C242.26 506.391 241.294 508.724 239.573 510.445C237.853 512.165 235.52 513.131 233.087 513.131C230.654 513.131 228.321 512.165 226.601 510.445C224.88 508.724 223.914 506.391 223.914 503.958C223.914 501.525 224.88 499.192 226.601 497.472C228.321 495.752 230.654 494.785 233.087 494.785C235.52 494.785 237.853 495.752 239.573 497.472C241.294 499.192 242.26 501.525 242.26 503.958Z" fill="#010108"/>
<path d="M650.571 645.378L659.724 653.302C660.24 653.752 660.451 654.319 660.358 655.006C660.16 656.565 659.242 657.516 657.605 657.859C638.545 643.892 616.613 637.611 592.878 630.915C590.646 628.075 587.641 626.622 583.863 626.556C581.367 626.497 579.128 624.753 576.731 624.258C566.052 622.078 556.008 617.918 545.349 616.214C539.187 615.223 533.105 613.817 526.943 612.866C521.059 611.974 518.147 610.092 511.747 610.984C505.632 606.215 501.491 602.484 499.325 599.79C481.771 578.036 467.962 554.479 453.559 530.209C453.424 529.979 453.359 529.714 453.371 529.447C453.382 529.181 453.471 528.923 453.626 528.705C453.781 528.488 453.995 528.32 454.243 528.221C454.491 528.122 454.763 528.097 455.025 528.149L456.867 528.525C457.626 528.684 458.332 529.028 458.921 529.527C459.509 530.025 459.961 530.662 460.236 531.378C463.623 540.096 468.893 546.237 472.876 553.013C481.672 568.031 491.875 583.504 498.79 591.37C504.43 597.749 512.612 602.762 523.337 606.407C540.435 612.212 569.341 616.174 591.452 623.128C611.819 629.548 631.472 635.412 650.571 645.378Z" fill="#4F6E82"/>
<path d="M511.747 610.983C518.146 610.091 521.059 611.973 526.943 612.865C533.105 613.816 539.187 615.223 545.348 616.213C556.007 617.917 566.052 622.078 576.731 624.257C579.128 624.752 581.367 626.496 583.863 626.555C587.641 626.621 590.646 628.074 592.878 630.914C567.624 625.948 548.571 621.959 535.72 618.947C528.812 617.323 520.821 614.668 511.747 610.983Z" fill="#004267"/>
<path d="M650.569 645.377C665.006 650.621 676.926 658.275 686.33 668.34C702.999 686.144 713.645 697.959 718.268 703.784C731.383 720.281 740.134 732.492 744.519 740.417C747.966 746.697 751.037 752.482 755.079 759.099C764.615 774.764 771.721 791.426 776.397 809.086L763.974 808.967L763.915 805.5C763.915 804.839 763.77 804.212 763.479 803.617C759.497 795.257 756.604 785.806 751.929 777.921C749.016 773.008 746.282 765.895 744.459 762.408C735.445 745.171 726.866 728.311 714.583 713.076C708.322 705.329 700.972 695.819 693.285 688.013C685.597 680.22 677.745 672.58 669.728 665.091C669.213 664.602 668.645 664.542 668.024 664.912C667.364 665.308 667.086 665.982 667.192 666.933L657.603 657.859C659.241 657.516 660.158 656.565 660.357 655.006C660.449 654.319 660.238 653.751 659.723 653.302L650.569 645.377Z" fill="#204957"/>
<path d="M763.977 808.966C762.789 809.243 761.435 809.256 759.916 809.005C752.605 785.548 739.192 762.328 728.474 744.14C724.65 737.682 719.321 731.5 714.982 724.071C712.063 719.038 708.477 713.821 704.224 708.419C691.834 692.675 679.491 678.846 667.195 666.932C667.089 665.981 667.367 665.308 668.027 664.911C668.648 664.542 669.216 664.601 669.731 665.09C677.748 672.579 685.6 680.22 693.287 688.012C700.975 695.818 708.325 705.328 714.586 713.075C726.869 728.31 735.448 745.171 744.462 762.407C746.285 765.894 749.019 773.007 751.931 777.92C756.607 785.805 759.5 795.256 763.482 803.616C763.773 804.211 763.918 804.838 763.918 805.499L763.977 808.966Z" fill="#4F6E82"/>
<path d="M671.137 798.783C665.59 790.303 661.211 784.723 658.001 782.042C653.947 778.66 650.988 776.005 649.126 774.077C644.173 768.926 638.942 764.171 633.712 759.317C626.797 752.858 620.398 743.388 612.097 736.573L596.683 719.296C596.409 718.985 596.071 718.735 595.692 718.564C595.312 718.394 594.901 718.305 594.484 718.306L576.752 718.365L555.176 718.028H524.883L503.05 717.791C502.469 717.784 501.892 717.897 501.354 718.121C500.816 718.346 500.328 718.679 499.92 719.098L424.178 797.257C412.865 799.397 407.14 790.917 414.787 782.26C417.085 779.671 419.483 776.851 421.979 773.8C422.142 773.596 422.257 773.358 422.316 773.103C422.375 772.849 422.376 772.585 422.319 772.33C422.262 772.075 422.148 771.836 421.986 771.631C421.825 771.426 421.619 771.26 421.385 771.145L412.786 767.024C401.955 761.45 391.27 755.797 380.73 750.065C375.401 747.152 372.409 748.282 368.189 751.927C348.179 769.243 327.006 787.998 304.671 808.194C302.788 809.896 300.337 810.836 297.798 810.829C295.259 810.821 292.815 809.868 290.941 808.154L289.317 806.668C288.62 806.033 288.063 805.26 287.681 804.397C287.299 803.535 287.101 802.603 287.1 801.66C287.098 800.717 287.292 799.784 287.67 798.92C288.049 798.057 288.602 797.281 289.297 796.643C305.226 781.995 328.604 761.556 359.432 735.324C368.783 727.36 375.836 727.776 386.515 732.689C402.801 740.198 418.294 749.015 434.5 756.187C435.649 756.702 436.66 756.504 437.531 755.592C454.345 737.986 471.569 720.663 489.202 703.625C493.6 699.385 497.543 691.064 502.397 686.289C511.688 677.136 524.844 669.964 538.217 669.885C549.966 669.806 564.864 668.914 574.949 672.48C593.869 679.177 598.605 694.214 611.344 707.488C638.751 736.044 666.263 765.472 693.881 795.771C697.844 800.104 697.613 804.198 693.188 808.055L691.821 809.264C687.317 813.2 683.13 812.889 679.26 808.332L671.137 798.783Z" fill="#01010F"/>
<path d="M576.751 718.365L596.999 744.418C601.041 751.491 607.084 757.771 611.185 763.715C614.652 768.787 618.178 773.086 621.249 778.812C622.636 781.374 624.162 783.765 625.826 785.984C629.61 792.007 640.646 800.585 630.66 807.341C620.219 814.414 613.741 803.557 608.986 796.326C600.995 784.676 592.509 772.492 583.527 759.772C576.685 750.104 568.873 742.886 560.089 738.117C553.987 732.273 555.83 725.339 555.176 718.028L576.751 718.365Z" fill="#00365D"/>
<path d="M555.175 718.028C555.829 725.339 553.986 732.273 560.088 738.117C558.252 738.117 556.998 737.972 556.324 737.682C540.118 730.846 525.457 745.844 516.125 757.771C505.981 770.755 495.091 784.286 483.455 798.366C481.892 800.25 479.689 801.49 477.269 801.848C474.848 802.206 472.38 801.658 470.339 800.308L468.556 799.119C467.801 798.622 467.158 797.972 466.669 797.211C466.179 796.451 465.853 795.596 465.711 794.702C465.57 793.808 465.616 792.893 465.846 792.016C466.077 791.139 466.487 790.32 467.05 789.609C485.819 766.059 503.967 744.358 521.494 724.506C522.366 723.516 523.825 722.195 525.873 720.544C526.11 720.346 526.262 720.135 526.328 719.91C526.394 719.672 526.421 719.435 526.408 719.197C526.368 718.735 526.124 718.457 525.675 718.365C525.384 718.299 525.12 718.186 524.882 718.028H555.175Z" fill="#046884"/>
<path d="M576.75 718.366L594.482 718.306C594.899 718.306 595.311 718.394 595.69 718.565C596.069 718.736 596.407 718.985 596.681 719.297L612.095 736.573C609.737 742.477 602.664 744.042 596.998 744.419L576.75 718.366Z" fill="#0090A8"/>
<path d="M612.097 736.572C620.398 743.388 626.798 752.858 633.712 759.317C638.942 764.171 644.173 768.926 649.126 774.077C650.988 776.005 653.947 778.66 658.002 782.041C661.211 784.722 665.59 790.303 671.137 798.783C660.756 800.07 659.785 789.689 653.088 784.439C644.833 777.993 635.746 778.508 625.827 785.984C624.162 783.765 622.637 781.374 621.25 778.812C618.179 773.086 614.653 768.787 611.186 763.715C607.084 757.771 601.042 751.491 597 744.418C602.666 744.041 609.739 742.476 612.097 736.572Z" fill="#004267"/>
<path d="M556.325 737.682C556.999 737.973 558.254 738.118 560.089 738.118C568.873 742.886 576.685 750.104 583.527 759.773C592.509 772.492 600.995 784.677 608.986 796.326C604.786 804.053 600.018 808.121 594.682 808.531C585.634 809.217 578.039 809.244 571.898 808.61C560.842 807.441 559.119 799.813 558.94 789.669C558.742 778.594 558.405 769.58 557.276 756.741C556.721 750.402 556.404 744.048 556.325 737.682Z" fill="#B1E1FA"/>
<path d="M412.786 767.023L421.384 771.144C421.619 771.259 421.824 771.425 421.986 771.63C422.148 771.836 422.262 772.074 422.319 772.329C422.376 772.584 422.375 772.848 422.316 773.103C422.257 773.357 422.142 773.595 421.979 773.799C419.482 776.85 417.085 779.67 414.787 782.259C407.139 790.917 412.865 799.397 424.178 797.257C418.412 802.626 415.143 807.995 406.466 808.589C398.673 809.131 390.979 808.589 383.384 806.965C383.054 806.895 382.747 806.741 382.494 806.516C382.242 806.292 382.052 806.006 381.944 805.685C381.836 805.365 381.813 805.023 381.878 804.691C381.943 804.359 382.094 804.05 382.315 803.795C390.015 794.827 398.217 786.182 406.921 777.861C409.603 775.298 411.557 771.686 412.786 767.023Z" fill="#86C8EF"/>
<path d="M629.611 249.53C624.763 252.951 619.533 255.203 613.919 256.286C611.245 256.801 608.471 258.346 606.747 260.585C602.864 265.617 590.521 274.969 587.668 262.764C587.575 262.378 587.347 262.037 587.028 261.805C586.708 261.572 586.317 261.463 585.925 261.496C576.164 262.289 570.194 268.635 568.015 280.536" stroke="#FFD1CA" stroke-width="2"/>
<path d="M674.525 312.928C673.045 310.419 671.685 309.29 670.443 309.541C664.103 310.809 650.809 314.335 647.758 321.23C647.217 322.458 646.286 322.768 644.965 322.161" stroke="#FF848D" stroke-width="2"/>
<path d="M644.966 322.161C644.807 307.698 628.799 315.167 620.3 315.148C619.704 315.149 619.115 315.023 618.571 314.78C618.027 314.537 617.54 314.182 617.142 313.737C616.743 313.292 616.443 312.768 616.26 312.198C616.077 311.629 616.016 311.027 616.08 310.432C616.542 306.272 617.896 302.124 620.141 297.99C621.911 294.715 622.73 292.232 622.598 290.541C622.281 286.162 617.189 280.239 612.335 282.834C605.678 286.44 604.747 292.72 602.132 299.219C602.028 299.483 601.842 299.708 601.6 299.861C601.358 300.014 601.073 300.087 600.785 300.071L591.651 299.516C591.232 299.492 590.833 299.329 590.517 299.053C590.201 298.777 589.987 298.403 589.908 297.99C588.58 291.016 581.765 276.93 572.473 286.162C563.122 295.454 582.459 303.399 575.901 314.494C575.741 314.765 575.508 314.985 575.23 315.126C574.952 315.266 574.641 315.322 574.335 315.286C569.396 314.771 564.456 314.428 559.516 314.256C552.106 313.999 546.222 320.299 551.036 326.956C558.387 337.119 570.65 322.003 575.663 332.642C581.904 345.936 569.145 344.767 568.709 354.138C568.55 357.638 570.182 360.63 573.602 363.113" stroke="#80524F" stroke-width="2"/>
<path d="M573.602 363.112C572.664 373.851 569.772 384.265 564.924 394.356C564.066 396.139 563.491 398.319 563.201 400.894C562.95 403.047 562.454 405.299 561.715 407.65" stroke="#FF848D" stroke-width="2"/>
<path d="M550.54 349.106C550.038 347.428 548.605 346.425 546.241 346.094C545.223 345.952 544.301 345.413 543.675 344.594C543.049 343.775 542.768 342.742 542.893 341.716C543.685 335.416 541.387 330.647 535.998 327.411C532.67 325.41 531.025 322.894 533.482 319.427C533.689 319.134 533.965 318.896 534.286 318.734C534.607 318.572 534.963 318.49 535.324 318.496L540.634 318.635C541 318.647 541.36 318.554 541.673 318.368C541.986 318.182 542.237 317.91 542.397 317.585L545.627 311.126C545.944 310.465 545.911 309.818 545.528 309.184C543.329 305.578 540.476 301.378 540.297 297.257C540.06 291.327 543.243 287.12 549.847 284.637" stroke="#FFD1CA" stroke-width="2"/>
<path d="M644.965 322.16C642.766 340.744 621.171 321.625 617.882 336.029C617.261 338.789 616.713 340.876 616.237 342.29C616.129 342.611 616.105 342.955 616.167 343.292C616.229 343.628 616.376 343.944 616.594 344.211C622.993 351.918 624.4 361.091 614.157 366.421C613.523 366.751 612.922 366.705 612.354 366.282C608.511 363.409 607.262 361.626 605.202 356.574C603.089 351.37 598.961 348.722 592.819 348.629C592.235 348.618 591.657 348.752 591.139 349.018C590.62 349.284 590.176 349.675 589.848 350.155L581.566 362.32C581.117 362.993 580.483 363.317 579.664 363.291L573.602 363.112" stroke="#803346" stroke-width="2"/>
<path d="M310.872 278.376L301.877 289.57" stroke="#49819F" stroke-width="2"/>
<path d="M414.51 361.468C406.863 354.626 399.757 353.821 393.192 359.051C390.696 361.052 388.418 364.539 386.08 367.194C385.657 367.672 385.103 368.016 384.488 368.185C383.872 368.354 383.221 368.34 382.613 368.145C372.33 364.816 362.979 363.628 358.541 375.812C356.533 381.307 354.572 385.051 352.657 387.046C351.349 388.413 351.329 392.256 350.141 394.218C348.021 397.724 342.652 400.34 339.303 402.004C338.603 402.345 337.986 402.836 337.496 403.442C337.006 404.048 336.656 404.754 336.47 405.511C333.657 416.625 328.07 429.087 329.536 440.895C330.5 448.662 331.946 456.322 333.875 463.877C333.975 464.263 334.166 464.619 334.43 464.918C334.694 465.216 335.025 465.448 335.395 465.594C335.766 465.741 336.165 465.798 336.562 465.762C336.959 465.725 337.341 465.595 337.679 465.383C344.336 461.203 349.843 471.545 351.468 476.775C353.938 484.726 356.705 492.4 359.769 499.797" stroke="#FFCFD0" stroke-width="2"/>
<path d="M359.768 499.797C358.381 501.911 357.576 504.024 357.351 506.137C357.275 506.807 356.99 507.436 356.539 507.933C356.087 508.431 355.491 508.773 354.835 508.911L339.203 512.2" stroke="#D8F0FD" stroke-width="2"/>
<path d="M430.638 382.925C429.476 385.249 431.463 385.765 436.601 384.47C440.088 383.585 443.635 383.017 447.241 382.766C458.95 381.914 469.133 390.533 474.383 400.419C480.129 411.276 473.294 418.309 467.548 426.69" stroke="#FFCFD0" stroke-width="2"/>
<path d="M467.548 426.69C468.155 420.284 462.793 416.784 451.46 416.189" stroke="#FF8292" stroke-width="2"/>
<path d="M451.459 416.19C451.062 413.495 449.88 411.25 447.912 409.453C441.176 403.292 433.846 410.484 427.882 413.852C427.613 414.002 427.318 414.095 427.014 414.126C426.711 414.157 426.406 414.124 426.119 414.03C422.275 412.789 419.7 410.253 418.392 406.422C418.194 405.841 418.24 405.28 418.531 404.738C421.225 399.785 426.575 391.959 423.662 386.669C419.957 379.933 411.458 383.896 408.288 388.591C406.287 391.563 406.01 395.724 405.732 399.329C405.707 399.654 405.56 399.956 405.322 400.177C405.083 400.397 404.769 400.519 404.444 400.518L394.895 400.538C393.814 400.54 392.765 400.165 391.93 399.478C391.095 398.791 390.525 397.835 390.318 396.774C389.625 393.227 389.506 389.483 387.445 386.709C383.404 381.201 372.884 381.043 371.814 389.067C370.902 395.882 374.706 401.073 379.976 405.174C380.138 405.3 380.27 405.458 380.366 405.639C380.462 405.82 380.518 406.019 380.531 406.223C380.544 406.427 380.514 406.631 380.442 406.823C380.37 407.014 380.259 407.188 380.115 407.334L373.755 413.753C372.765 414.757 371.688 414.862 370.526 414.07C367.197 411.824 363.248 409.321 358.678 406.561C345.444 398.596 336.548 417.121 348.455 422.113C354.201 424.511 360.501 423.5 366.484 425.838C367.168 426.106 367.751 426.579 368.152 427.194C368.553 427.808 368.753 428.532 368.723 429.266L368.485 436.517C368.475 436.825 368.345 437.118 368.123 437.332C367.901 437.546 367.605 437.666 367.296 437.666C361.016 437.626 341.877 436.121 342.591 446.958C343.165 455.695 349.267 460.034 357.39 455.596C361.934 453.126 366.682 451.085 371.635 449.474C372.309 449.25 372.87 449.415 373.319 449.969L376.588 453.991C377.064 454.572 377.051 455.147 376.549 455.715C373.366 459.308 370.182 462.894 366.999 466.473C361.947 472.159 366.484 479.707 372.864 480.579C381.938 481.847 383.84 471.703 386.891 465.898C387.208 465.291 387.71 464.974 388.396 464.947L396.262 464.789" stroke="#805054" stroke-width="2"/>
<path d="M396.264 464.789C397.598 464.089 397.439 465.08 395.788 467.761C394.54 469.782 394.362 471.922 391.37 472.437C390.749 472.542 390.214 472.807 389.765 473.229C385.585 477.211 381.999 481.53 377.581 485.176C371.914 489.852 367.417 494.309 364.089 498.549C363.177 499.698 363.468 501.125 364.96 502.829" stroke="#FF8292" stroke-width="2"/>
<path d="M364.959 502.829L359.769 499.797" stroke="#D8C0CD" stroke-width="2"/>
<path d="M465.011 444.561C463.056 446.859 460.824 448.16 458.314 448.464C457.772 448.527 457.251 448.707 456.785 448.991C456.319 449.274 455.919 449.656 455.613 450.108C455.307 450.561 455.101 451.075 455.01 451.615C454.919 452.155 454.944 452.709 455.085 453.239C457.383 461.877 463.346 468.237 466.932 476.221C472.519 488.663 461.306 494.785 451.023 496.548C439.928 498.437 429.996 496.258 421.226 490.01C420.222 489.284 419.575 489.522 419.284 490.723C417.679 497.123 411.775 509.466 403.712 510.159C402.285 510.278 399.393 510.153 395.034 509.783C392.121 509.525 390.18 508.158 387.763 506.712C387.221 506.395 386.64 506.23 386.019 506.217C378.821 506.137 371.801 505.008 364.959 502.829" stroke="#D8A3BF" stroke-width="2"/>
<path d="M467.665 443.629L465.01 444.561" stroke="#D8F0FD" stroke-width="2"/>
<path d="M465.01 444.561C467.361 439.648 468.206 433.691 467.546 426.69" stroke="#FFB2C2" stroke-width="2"/>
<path d="M451.458 416.189C450.527 427.918 440.918 426.016 432.736 426.809C432.329 426.848 431.935 426.972 431.579 427.173C431.223 427.375 430.913 427.649 430.67 427.978C430.427 428.307 430.256 428.683 430.168 429.082C430.081 429.482 430.078 429.895 430.16 430.296C430.874 433.73 430.814 437.138 429.982 440.519C429.846 441.08 429.941 441.674 430.246 442.168C430.55 442.662 431.04 443.017 431.607 443.154C437.194 444.501 446.664 446.641 449.517 451.851C453.36 458.905 445.713 466.928 438.283 465.304C433.528 464.254 430.874 459.36 427.486 455.695C426.845 455 425.969 454.569 425.028 454.484C424.087 454.4 423.148 454.669 422.394 455.239L415.083 460.807C414.515 461.242 414.39 461.784 414.707 462.431C417.692 468.56 418.795 475.005 418.016 481.768C417.487 486.417 414.885 488.742 410.21 488.742H408.327C406.795 488.736 405.326 488.127 404.242 487.047C403.159 485.967 402.548 484.504 402.542 482.976L402.463 466.215C402.45 465.581 402.159 465.139 401.591 464.888C399.821 464.069 398.045 464.036 396.262 464.789" stroke="#803346" stroke-width="2"/>
<path d="M771.407 337.417C771.803 343.651 774.405 346.444 779.213 345.797" stroke="#FF8482" stroke-width="2"/>
<path d="M759.42 351.067C764.281 344.529 765.76 339.576 763.858 336.208" stroke="#FFA3A6" stroke-width="2"/>
<path d="M748.743 356.932C748.452 361.568 746.623 364.348 743.255 365.273C740.798 365.959 739.338 364.929 738.876 362.182" stroke="#FFA3A6" stroke-width="2"/>
<path d="M763.422 390.077C765.218 387.567 766.374 385.005 766.889 382.39C766.951 382.074 766.942 381.749 766.863 381.437C766.785 381.126 766.638 380.835 766.434 380.587C765.218 379.094 763.495 378.639 761.263 379.22" stroke="#FFB2C2" stroke-width="2"/>
<path d="M705.986 451.475C705.854 451.607 705.696 451.68 705.511 451.693C705.464 451.698 705.418 451.69 705.379 451.668C705.34 451.647 705.31 451.614 705.293 451.574L694.555 430.197C693.643 428.374 692.336 428.018 690.632 429.127C683.539 433.724 679.273 440.196 677.833 448.543C677.622 449.745 677.345 450.69 677.001 451.376C675.945 453.503 674.974 453.952 674.089 452.724" stroke="#FFCFD0" stroke-width="2"/>
<path d="M728.79 509.169C726.413 507.042 727.225 505.504 731.227 504.553C731.266 504.54 731.307 504.512 731.346 504.473L732.416 503.364C732.865 502.915 732.805 502.558 732.237 502.294L729.523 501.006C728.823 500.689 728.473 500.148 728.473 499.382C728.533 493.775 731.405 491.794 734.674 488.089C735.108 487.603 735.608 487.182 736.16 486.84C737.877 485.744 739.72 484.932 741.688 484.404C742.388 484.219 742.903 483.809 743.233 483.175C744.145 481.498 744.362 479.86 743.887 478.262C743.689 477.601 743.253 477.212 742.579 477.093C724.035 473.864 710.424 494.25 706.818 509.684" stroke="#FFCFD0" stroke-width="2"/>
<path d="M656.833 541.384C654.957 541.622 653.035 542.447 651.067 543.86C648.135 545.98 646.174 546 642.925 546.852C642.291 547.024 641.736 547.334 641.261 547.783C639.874 549.117 637.998 550.009 635.634 550.458" stroke="#FF8292" stroke-width="2"/>
<path d="M634.821 551.032C629.604 550.199 626.289 550.021 624.875 550.497C621.494 551.659 618.034 552.438 614.494 552.834C611.892 553.138 606.78 556.077 599.159 561.651" stroke="#E68799" stroke-width="2"/>
<path d="M588.877 515.884L589.59 518.103C589.854 518.896 590.402 519.219 591.235 519.074C591.974 518.955 592.661 518.638 593.295 518.123C593.529 517.928 593.794 517.792 594.068 517.727L607.005 514.616C607.306 514.544 607.586 514.405 607.826 514.21C608.067 514.014 608.261 513.768 608.395 513.488C608.53 513.208 608.601 512.901 608.604 512.589C608.607 512.277 608.541 511.968 608.412 511.684C607.831 510.469 608.214 509.287 609.561 508.138C610.459 507.385 610.934 506.52 610.987 505.542" stroke="#FFCFD0" stroke-width="2"/>
<path d="M766.355 540.293C773.19 537.618 779.174 535.598 783.057 531.754C783.466 531.345 783.638 530.856 783.572 530.288L782.938 523.988C782.859 523.301 782.594 522.693 782.145 522.165L778.46 517.846C777.958 517.265 777.364 516.809 776.677 516.479C769.604 513.131 752.308 509.782 746.206 516.697" stroke="#C7AEC7" stroke-width="2"/>
<path d="M738.816 530.208C738.777 530.842 738.909 531.41 739.213 531.912C739.332 532.097 739.49 532.229 739.688 532.309C739.899 532.375 740.111 532.421 740.322 532.447C740.784 532.5 741.068 532.751 741.174 533.2C742.085 537.044 743.802 540.438 746.325 543.384C746.761 543.885 747.124 544.434 747.415 545.028C749.733 549.684 754.21 552.596 751.159 558.916C748.174 565.137 745.269 571.372 742.442 577.619" stroke="#C3E4F7" stroke-width="2"/>
<path d="M783.057 575.083C782.978 577.038 783.618 579.277 784.979 581.799C785.335 582.473 785.302 583.127 784.88 583.761C783.572 585.762 780.878 586.158 779.471 587.248C775.007 590.735 771.209 595.04 768.079 600.165" stroke="#6F7191" stroke-width="2"/>
<path d="M404.367 590.12L387.982 606.505C387.269 607.205 386.655 607.126 386.139 606.267L385.803 605.693C385.677 605.489 385.622 605.249 385.647 605.01C385.672 604.77 385.776 604.543 385.941 604.365C391.211 598.805 395.425 592.544 398.582 585.583C398.802 585.093 398.901 584.556 398.87 584.018C398.839 583.48 398.679 582.957 398.403 582.493C393.133 573.656 384.079 583.661 381.167 589.288C380.176 591.17 380.196 593.072 379.443 595.133C379.179 595.859 378.657 596.17 377.878 596.064C372.251 595.311 367.04 596.024 364.663 600.641C364.41 601.138 364.017 601.549 363.533 601.826C363.048 602.102 362.493 602.23 361.937 602.194C361.38 602.158 360.847 601.96 360.402 601.624C359.957 601.288 359.62 600.829 359.433 600.304C359.419 600.277 359.538 599.709 359.789 598.6" stroke="#FFB2C2" stroke-width="2"/>
<path d="M353.607 598.719L339.085 610.963C338.596 611.386 338.021 611.624 337.361 611.676C333.379 612.073 330.308 614.093 326.385 614.232C324.734 614.285 323.037 614.358 321.293 614.45C320.448 614.503 320.144 614.939 320.382 615.758C320.871 617.382 320.844 618.624 320.303 619.482" stroke="#FF939E" stroke-width="2"/>
<path d="M329.277 577.957L327.752 581.483C327.474 582.13 326.986 582.5 326.286 582.593C319.926 583.425 320.916 590.517 320.738 595.094C320.712 595.754 320.507 596.349 320.124 596.877C318.196 599.558 315.739 601.923 312.754 603.97" stroke="#FFE0DB" stroke-width="2"/>
<path d="M690.832 583.186L689.98 587.782C689.917 588.117 689.928 588.461 690.01 588.789C690.092 589.118 690.244 589.423 690.455 589.684L707.454 610.051" stroke="#FFB2C2" stroke-width="2"/>
<path d="M707.453 610.051C706.475 612.904 706.984 615.856 708.978 618.907" stroke="#C3E4F7" stroke-width="2"/>
<path d="M708.979 618.908C710.894 623.676 710.729 626.126 708.483 626.258" stroke="#89B9C8" stroke-width="2"/>
<path d="M722.213 621.423C718.667 620.928 715.497 617.501 711.713 616.213" stroke="#896C8A" stroke-width="2"/>
<path d="M711.712 616.213C712.306 613.875 710.886 611.821 707.452 610.051" stroke="#C396BA" stroke-width="2"/>
<path d="M711.714 616.214C710.261 615.976 709.349 616.874 708.979 618.909" stroke="#4C9EC0" stroke-width="2"/>
<path d="M269.545 615.817C265.067 618.076 260.649 620.711 255.716 620.433C247.857 620.011 243.195 615.718 241.729 607.555C241.583 606.737 241.095 606.373 240.263 606.466C239.642 606.545 239.1 606.789 238.638 607.199C238.162 607.635 237.641 607.707 237.073 607.417C236.426 607.073 235.977 606.492 235.726 605.673" stroke="#FFB2C2" stroke-width="2"/>
<path d="M357.709 649.994L347.922 657.146" stroke="#FF5668" stroke-width="2"/>
<path d="M299.262 652.47C291.707 652.43 287.19 654.444 285.711 658.513C284.469 661.933 283.558 664.245 282.977 665.447" stroke="#FFB2C2" stroke-width="2"/>
<path d="M326.643 663.327C325.89 662.521 325.566 661.564 325.672 660.454C325.712 659.9 325.249 659.669 324.285 659.761" stroke="#C3E4F7" stroke-width="2"/>
<path d="M294.785 702.594L292.467 712.778C292.456 712.846 292.428 712.911 292.387 712.969C292.346 713.027 292.292 713.077 292.23 713.115L291.397 713.63C291.212 713.747 291.053 713.904 290.934 714.089C290.814 714.273 290.736 714.482 290.704 714.699L289.119 725.517" stroke="#FF899B" stroke-width="2"/>
<path d="M561.616 688.448C563.558 691.83 563.822 695.653 562.409 699.92" stroke="#87CCE7" stroke-width="2"/>
<path d="M629.609 249.53C624.762 252.951 619.531 255.203 613.918 256.286C611.243 256.801 608.47 258.346 606.746 260.585C602.863 265.617 590.52 274.969 587.667 262.764C587.573 262.378 587.346 262.037 587.026 261.805C586.706 261.572 586.315 261.463 585.924 261.496C576.163 262.289 570.193 268.635 568.013 280.536C558.569 273.087 556.43 263.755 561.594 252.541C561.858 251.96 562.274 251.524 562.842 251.234C567.98 248.645 573.296 246.314 578.791 244.24C585.963 241.526 588.816 237.643 593.928 232.155C594.155 231.91 594.434 231.719 594.745 231.595C595.055 231.471 595.389 231.417 595.723 231.438C596.056 231.459 596.381 231.554 596.674 231.715C596.966 231.877 597.219 232.101 597.415 232.373C601.034 237.392 605.762 241.281 611.6 244.042C616.474 246.36 623.448 247.271 629.609 249.53Z" fill="white"/>
<path d="M629.611 249.53C634.617 253.36 636.578 258.861 635.495 266.033C634.821 270.412 631.493 273.542 628.897 277.069C624.816 282.636 631.057 289.848 637.219 289.134C640.408 288.758 643.519 286.044 646.491 284.181C646.765 284.013 647.072 283.907 647.39 283.869C647.708 283.832 648.03 283.864 648.333 283.963C660.438 287.847 671.632 289.313 679.973 300.11C680.256 300.474 680.425 300.914 680.461 301.375C680.496 301.836 680.395 302.299 680.171 302.706L674.525 312.929C673.046 310.419 671.685 309.29 670.444 309.541C664.104 310.809 650.81 314.335 647.759 321.23C647.217 322.458 646.286 322.769 644.965 322.161C644.807 307.698 628.798 315.168 620.299 315.148C619.703 315.149 619.114 315.024 618.57 314.781C618.026 314.537 617.539 314.182 617.141 313.737C616.743 313.292 616.442 312.768 616.259 312.199C616.076 311.629 616.015 311.027 616.079 310.432C616.541 306.272 617.895 302.125 620.14 297.99C621.91 294.715 622.729 292.232 622.597 290.541C622.28 286.163 617.188 280.239 612.334 282.834C605.678 286.44 604.746 292.72 602.131 299.219C602.027 299.483 601.841 299.708 601.599 299.861C601.357 300.014 601.072 300.088 600.784 300.071L591.65 299.516C591.231 299.492 590.832 299.33 590.516 299.053C590.2 298.777 589.986 298.403 589.907 297.99C588.58 291.017 581.764 276.93 572.472 286.163C563.121 295.454 582.458 303.399 575.9 314.494C575.74 314.766 575.507 314.985 575.229 315.126C574.951 315.267 574.641 315.322 574.335 315.286C569.395 314.771 564.455 314.428 559.515 314.256C552.105 313.999 546.221 320.299 551.036 326.956C558.386 337.119 570.65 322.003 575.662 332.642C581.903 345.936 569.144 344.767 568.708 354.138C568.55 357.638 570.181 360.63 573.602 363.113C572.664 373.851 569.771 384.266 564.924 394.357C564.065 396.14 563.491 398.319 563.2 400.895C562.949 403.048 562.454 405.3 561.714 407.651C549.312 398.973 545.237 386.333 549.49 369.73C550.996 363.826 558.247 361.528 562.745 358.735C563.327 358.375 563.825 357.894 564.203 357.325C564.582 356.755 564.832 356.11 564.938 355.434C565.043 354.758 565.001 354.067 564.814 353.409C564.627 352.751 564.299 352.141 563.854 351.622C559.951 347.065 555.79 347.798 550.54 349.106C550.038 347.428 548.605 346.425 546.241 346.094C545.223 345.952 544.301 345.413 543.675 344.594C543.049 343.775 542.768 342.742 542.893 341.716C543.685 335.416 541.387 330.647 535.998 327.411C532.67 325.41 531.025 322.894 533.482 319.427C533.689 319.134 533.965 318.896 534.286 318.734C534.607 318.572 534.963 318.49 535.324 318.496L540.634 318.635C541 318.647 541.36 318.554 541.673 318.368C541.986 318.182 542.237 317.91 542.397 317.585L545.627 311.126C545.944 310.465 545.911 309.818 545.528 309.184C543.329 305.578 540.476 301.378 540.297 297.257C540.06 291.327 543.243 287.12 549.847 284.637C559.502 292.509 565.558 291.142 568.015 280.536C570.194 268.635 576.164 262.289 585.925 261.496C586.317 261.463 586.708 261.572 587.028 261.805C587.347 262.037 587.575 262.378 587.668 262.764C590.521 274.969 602.864 265.617 606.747 260.585C608.471 258.346 611.245 256.801 613.919 256.286C619.533 255.203 624.763 252.951 629.611 249.53Z" fill="#FFA395"/>
<path d="M310.871 278.376L301.876 289.57C290.821 301.041 291.039 313.523 296.626 327.094C299.32 333.672 301.618 340.428 305.224 346.431C311.306 356.555 321.629 367.313 324.541 378.745C324.659 379.221 324.606 379.722 324.392 380.161C324.178 380.599 323.817 380.947 323.372 381.142C323.082 381.274 322.692 381.228 322.203 381.003C321.886 380.858 321.602 380.6 321.351 380.23C309.444 361.884 296.923 344.826 289.374 324.003C282.559 305.202 294.248 284.934 309.821 274.949C310.534 274.499 310.983 274.691 311.168 275.523C311.313 276.183 311.214 277.134 310.871 278.376Z" fill="#86C8EF"/>
<path d="M310.87 278.375C311.015 278.719 311.392 279.122 311.999 279.584C312.527 279.98 312.825 280.509 312.891 281.169C313.921 292.541 315.466 304.845 312.95 316.118C312.501 318.112 311.748 318.231 310.691 316.474C306.214 308.985 303.275 300.017 301.875 289.569L310.87 278.375Z" fill="#0B394F"/>
<path d="M644.963 322.161C642.764 340.745 621.169 321.626 617.88 336.03C617.259 338.79 616.711 340.877 616.235 342.29C616.127 342.611 616.103 342.956 616.165 343.292C616.227 343.628 616.374 343.945 616.592 344.212C622.991 351.919 624.398 361.092 614.155 366.422C613.521 366.752 612.92 366.706 612.352 366.283C608.509 363.41 607.26 361.627 605.2 356.575C603.087 351.371 598.959 348.723 592.817 348.63C592.233 348.619 591.655 348.752 591.137 349.019C590.618 349.285 590.174 349.676 589.846 350.156L581.564 362.32C581.115 362.994 580.481 363.318 579.662 363.291L573.6 363.113C570.179 360.63 568.547 357.638 568.706 354.138C569.142 344.767 581.901 345.936 575.66 332.642C570.647 322.003 558.384 337.119 551.033 326.956C546.219 320.299 552.103 313.999 559.513 314.256C564.453 314.428 569.393 314.771 574.333 315.286C574.638 315.322 574.949 315.266 575.227 315.126C575.505 314.985 575.738 314.765 575.898 314.494C582.456 303.399 563.119 295.454 572.47 286.162C581.762 276.93 588.577 291.016 589.905 297.99C589.984 298.403 590.198 298.777 590.514 299.053C590.83 299.329 591.229 299.492 591.648 299.516L600.782 300.071C601.07 300.087 601.355 300.014 601.597 299.861C601.839 299.708 602.025 299.483 602.129 299.219C604.744 292.72 605.675 286.44 612.332 282.834C617.186 280.239 622.278 286.162 622.595 290.541C622.727 292.232 621.908 294.715 620.138 297.99C617.893 302.124 616.539 306.272 616.077 310.432C616.013 311.027 616.074 311.629 616.257 312.198C616.44 312.768 616.741 313.292 617.139 313.737C617.537 314.182 618.024 314.537 618.568 314.78C619.112 315.023 619.701 315.149 620.297 315.148C628.796 315.167 644.805 307.698 644.963 322.161Z" fill="#010108"/>
<path d="M549.845 284.637C543.241 287.12 540.058 291.327 540.296 297.257C540.474 301.378 543.327 305.578 545.526 309.184C545.909 309.818 545.942 310.465 545.625 311.126L542.396 317.585C542.236 317.91 541.984 318.182 541.672 318.368C541.359 318.554 540.998 318.647 540.633 318.635L535.323 318.496C534.962 318.49 534.605 318.572 534.284 318.734C533.963 318.896 533.687 319.134 533.48 319.427C531.024 322.894 532.668 325.41 535.997 327.411C541.386 330.647 543.684 335.416 542.891 341.716C542.766 342.742 543.047 343.775 543.673 344.594C544.3 345.413 545.221 345.952 546.239 346.094C548.604 346.425 550.037 347.428 550.539 349.106C540.236 349.542 530.951 345.89 522.683 338.15C515.214 331.176 512.678 320.339 508.339 311.383C508.048 310.802 508.068 310.228 508.398 309.66C517.591 293.744 531.407 285.403 549.845 284.637Z" fill="white"/>
<path d="M674.523 312.928L680.388 329.749C680.618 330.401 680.649 331.108 680.476 331.781C680.303 332.455 679.935 333.064 679.417 333.533C671.433 340.804 656.574 349.482 645.36 348.214C639.476 347.54 632.541 345.599 629.193 352.058C624.914 360.299 639.575 363.568 642.646 368.561C648.807 378.586 640.962 412.485 624.22 405.055C615.344 401.093 603.596 395.981 598.682 387.066C598.586 386.886 598.443 386.736 598.27 386.63C598.096 386.524 597.897 386.466 597.693 386.462C597.49 386.458 597.289 386.508 597.111 386.607C596.933 386.706 596.785 386.851 596.681 387.026C595.631 388.75 594.978 390.632 593.511 392.038C584.86 400.346 574.261 405.55 561.713 407.651C562.453 405.299 562.948 403.047 563.199 400.895C563.489 398.319 564.064 396.14 564.922 394.357C569.77 384.266 572.662 373.851 573.6 363.113L579.663 363.291C580.482 363.317 581.116 362.994 581.565 362.32L589.846 350.156C590.175 349.676 590.619 349.285 591.137 349.018C591.656 348.752 592.234 348.619 592.818 348.63C598.96 348.722 603.087 351.371 605.201 356.575C607.261 361.627 608.509 363.41 612.353 366.283C612.921 366.705 613.522 366.752 614.156 366.421C624.399 361.092 622.992 351.919 616.593 344.212C616.375 343.945 616.228 343.628 616.166 343.292C616.103 342.956 616.128 342.611 616.236 342.29C616.712 340.877 617.26 338.79 617.88 336.029C621.169 321.626 642.765 340.745 644.964 322.161C646.285 322.768 647.216 322.458 647.757 321.23C650.808 314.335 664.102 310.809 670.442 309.541C671.684 309.29 673.044 310.419 674.523 312.928Z" fill="#FF6484"/>
<path d="M414.507 361.468C406.86 354.626 399.754 353.821 393.189 359.051C390.693 361.052 388.414 364.539 386.077 367.194C385.653 367.672 385.1 368.016 384.485 368.185C383.869 368.354 383.217 368.34 382.61 368.145C372.327 364.816 362.976 363.628 358.538 375.812C356.53 381.307 354.569 385.051 352.653 387.046C351.346 388.413 351.326 392.256 350.137 394.218C348.018 397.724 342.648 400.34 339.3 402.004C338.6 402.345 337.983 402.836 337.493 403.442C337.003 404.048 336.653 404.754 336.467 405.511C333.654 416.625 328.067 429.087 329.533 440.895C330.497 448.661 331.943 456.322 333.872 463.877C333.972 464.263 334.162 464.619 334.427 464.917C334.691 465.216 335.021 465.448 335.392 465.594C335.762 465.741 336.162 465.798 336.559 465.762C336.956 465.725 337.338 465.595 337.675 465.383C344.332 461.203 349.84 471.545 351.465 476.775C353.935 484.726 356.702 492.4 359.766 499.797C358.379 501.91 357.574 504.023 357.349 506.137C357.272 506.806 356.988 507.435 356.537 507.933C356.085 508.431 355.489 508.773 354.833 508.91L339.201 512.199C339.056 506.863 339.036 502.135 339.142 498.014C339.36 490.762 344.134 484.977 348.671 479.767C348.876 479.537 349.026 479.266 349.112 478.971C349.197 478.676 349.216 478.366 349.167 478.063C347.839 469.127 333.634 470.237 327.056 469.009C317.348 467.212 307.693 464.254 298.091 460.133C297.148 459.725 296.395 458.975 295.983 458.033C295.572 457.092 295.532 456.03 295.872 455.061L301.855 437.884C302.288 436.646 302.246 435.291 301.736 434.08L295.416 419.042C294.924 417.878 294.848 416.58 295.202 415.364C295.555 414.148 296.316 413.09 297.358 412.366C309.839 403.807 324.283 399.606 339.36 397.09C346.175 395.961 349.285 392.177 345.759 385.659C340.687 376.307 339.637 366.547 342.609 356.376C345.62 346.034 358.082 343.578 362.381 337.575C365.353 333.427 368.609 329.069 372.149 324.498C372.379 324.197 372.668 323.945 372.998 323.757C373.328 323.569 373.692 323.449 374.069 323.405C374.446 323.361 374.828 323.392 375.192 323.499C375.557 323.605 375.896 323.783 376.19 324.023C382.293 328.976 389.207 332.8 396.934 335.494C409.554 339.873 412.843 348.471 414.507 361.468Z" fill="white"/>
<path d="M431.766 358.793C431.231 349.343 434.579 342.904 443.078 337.713C452.39 332.007 457.026 346.292 458.076 352.592C458.104 352.759 458.098 352.93 458.058 353.095C458.017 353.259 457.944 353.414 457.842 353.549C457.74 353.685 457.612 353.798 457.465 353.882C457.318 353.966 457.155 354.019 456.987 354.038C449.062 354.871 441.454 356.944 434.163 360.259C433.91 360.372 433.634 360.422 433.358 360.405C433.082 360.387 432.814 360.302 432.578 360.158C432.342 360.013 432.145 359.814 432.003 359.576C431.862 359.338 431.78 359.07 431.766 358.793Z" fill="white"/>
<path d="M771.405 337.416C771.802 343.651 774.404 346.444 779.211 345.797C777.521 351.556 774.265 356.324 769.444 360.101C769.136 360.344 768.782 360.522 768.403 360.623C768.024 360.724 767.629 360.747 767.241 360.689C766.853 360.632 766.481 360.495 766.148 360.289C765.814 360.082 765.527 359.809 765.303 359.487L759.419 351.067C764.28 344.529 765.759 339.576 763.857 336.208C766.116 335.455 767.76 336.016 768.79 337.892C769.345 338.896 770.217 338.737 771.405 337.416Z" fill="#FE474C"/>
<path d="M763.856 336.208C765.758 339.576 764.279 344.529 759.418 351.067C756.803 344.926 755.456 337.575 763.856 336.208Z" fill="white"/>
<path d="M779.211 345.797C774.404 346.445 771.802 343.651 771.405 337.417C778.122 333.633 780.063 340.349 779.211 345.797Z" fill="#FFC1B7"/>
<path d="M263.123 348.63C263.371 348.833 263.55 349.107 263.635 349.416C263.721 349.725 263.708 350.052 263.599 350.354L263.42 350.889C263.116 351.747 262.575 351.939 261.796 351.463C255.363 347.487 248.535 344.41 241.31 342.231C241.178 342.193 241.059 342.122 240.964 342.023C240.869 341.924 240.802 341.802 240.77 341.669C240.738 341.536 240.741 341.397 240.78 341.266C240.82 341.135 240.893 341.017 240.993 340.923L241.468 340.467C241.83 340.124 242.269 339.873 242.749 339.735C243.228 339.597 243.733 339.577 244.222 339.675C251.236 341.115 257.536 344.1 263.123 348.63Z" fill="#00365D"/>
<path d="M780.065 366.976C779.271 366.184 778.823 365.11 778.819 363.989C778.816 362.867 779.256 361.79 780.045 360.993L781.788 359.249C783.964 357.062 786.697 355.608 789.39 355.207C792.083 354.806 794.515 355.49 796.152 357.11L796.747 357.684C797.558 358.489 798.149 359.5 798.486 360.66C798.822 361.82 798.898 363.105 798.709 364.443C798.519 365.781 798.068 367.144 797.381 368.456C796.694 369.768 795.785 371.002 794.706 372.088L792.982 373.831C792.59 374.227 792.123 374.542 791.609 374.757C791.094 374.973 790.543 375.085 789.985 375.086C789.427 375.088 788.875 374.98 788.359 374.768C787.843 374.556 787.374 374.244 786.979 373.851L780.065 366.976Z" fill="#FF6484"/>
<path d="M414.508 361.468C415.459 363.185 416.153 365.985 416.589 369.869C417.322 376.585 422.513 385.203 430.636 382.925C429.473 385.249 431.461 385.764 436.599 384.47C440.086 383.585 443.632 383.017 447.238 382.766C458.947 381.914 469.131 390.533 474.381 400.419C480.126 411.276 473.291 418.309 467.546 426.69C468.153 420.284 462.791 416.784 451.458 416.189C451.062 413.495 449.88 411.25 447.912 409.453C441.176 403.292 433.845 410.483 427.882 413.852C427.613 414.002 427.317 414.095 427.014 414.126C426.71 414.156 426.405 414.124 426.118 414.03C422.275 412.788 419.699 410.252 418.392 406.422C418.194 405.841 418.24 405.279 418.53 404.738C421.225 399.785 426.574 391.959 423.662 386.669C419.957 379.933 411.457 383.896 408.287 388.591C406.286 391.563 406.009 395.723 405.732 399.329C405.707 399.653 405.56 399.956 405.321 400.176C405.082 400.397 404.769 400.519 404.444 400.518L394.894 400.538C393.813 400.539 392.765 400.165 391.93 399.478C391.095 398.791 390.525 397.835 390.318 396.773C389.624 393.227 389.505 389.483 387.445 386.709C383.403 381.201 372.883 381.043 371.813 389.067C370.902 395.882 374.706 401.073 379.976 405.174C380.137 405.299 380.27 405.458 380.366 405.639C380.461 405.819 380.518 406.018 380.531 406.222C380.544 406.426 380.514 406.631 380.442 406.823C380.37 407.014 380.259 407.188 380.115 407.333L373.755 413.753C372.764 414.756 371.688 414.862 370.525 414.07C367.197 411.824 363.248 409.321 358.678 406.561C345.443 398.596 336.547 417.121 348.455 422.113C354.2 424.511 360.5 423.5 366.484 425.838C367.167 426.105 367.75 426.579 368.151 427.194C368.553 427.808 368.752 428.532 368.723 429.265L368.485 436.517C368.475 436.825 368.345 437.117 368.123 437.332C367.901 437.546 367.605 437.666 367.296 437.666C361.016 437.626 341.877 436.12 342.59 446.958C343.165 455.695 349.267 460.034 357.39 455.596C361.933 453.126 366.682 451.085 371.635 449.474C372.308 449.249 372.87 449.414 373.319 449.969L376.588 453.991C377.063 454.572 377.05 455.147 376.548 455.715C373.365 459.307 370.182 462.893 366.999 466.473C361.947 472.159 366.484 479.707 372.863 480.579C381.937 481.847 383.839 471.703 386.89 465.898C387.207 465.291 387.709 464.974 388.396 464.947L396.261 464.789C397.595 464.089 397.437 465.079 395.786 467.761C394.538 469.781 394.359 471.921 391.368 472.436C390.747 472.542 390.212 472.806 389.763 473.229C385.583 477.211 381.997 481.53 377.579 485.175C371.912 489.851 367.415 494.309 364.086 498.549C363.175 499.698 363.466 501.124 364.958 502.828L359.767 499.797C356.703 492.4 353.936 484.726 351.466 476.775C349.841 471.545 344.334 461.203 337.677 465.383C337.339 465.595 336.957 465.725 336.56 465.762C336.163 465.798 335.764 465.741 335.393 465.594C335.023 465.448 334.692 465.216 334.428 464.918C334.164 464.619 333.974 464.263 333.873 463.877C331.944 456.322 330.498 448.662 329.534 440.895C328.068 429.087 333.655 416.625 336.468 405.511C336.654 404.754 337.005 404.048 337.494 403.442C337.984 402.836 338.601 402.345 339.301 402.004C342.65 400.34 348.019 397.724 350.139 394.218C351.327 392.256 351.347 388.413 352.655 387.046C354.57 385.051 356.531 381.307 358.539 375.812C362.977 363.628 372.328 364.816 382.611 368.145C383.219 368.34 383.87 368.354 384.486 368.185C385.101 368.016 385.655 367.672 386.078 367.194C388.416 364.539 390.694 361.052 393.191 359.051C399.755 353.821 406.861 354.626 414.508 361.468Z" fill="#FF9FA0"/>
<path d="M748.741 356.931C748.45 361.567 746.621 364.348 743.253 365.272C740.796 365.959 739.336 364.929 738.874 362.182C738.993 357.532 742.282 355.782 748.741 356.931Z" fill="white"/>
<path d="M748.741 356.932C760.628 355.208 763.739 369.612 753.872 370.008C753.565 370.021 753.265 370.104 752.997 370.252C752.729 370.4 752.499 370.608 752.327 370.86C750.9 372.907 748.945 374.162 746.462 374.624C745.749 374.769 745.095 374.644 744.501 374.248L737.606 369.711C737.341 369.536 737.149 369.271 737.065 368.964C736.981 368.658 737.012 368.332 737.151 368.046C738.154 366.039 738.729 364.084 738.874 362.182C739.337 364.929 740.796 365.959 743.253 365.273C746.621 364.348 748.45 361.568 748.741 356.932Z" fill="#FE474C"/>
<path d="M763.419 390.077C765.216 387.567 766.371 385.005 766.886 382.39C766.948 382.074 766.939 381.749 766.86 381.437C766.782 381.125 766.635 380.835 766.431 380.587C765.216 379.094 763.492 378.639 761.26 379.22C762.171 374.306 764.119 370.093 767.104 366.58C767.284 366.371 767.503 366.199 767.748 366.076C767.994 365.953 768.261 365.88 768.535 365.861C768.808 365.843 769.082 365.879 769.34 365.969C769.598 366.058 769.835 366.198 770.037 366.381C777.942 373.474 778.377 380.468 777.129 390.572C777.09 390.882 776.984 391.181 776.818 391.446C776.653 391.712 776.433 391.938 776.173 392.109C775.913 392.281 775.619 392.393 775.312 392.439C775.005 392.485 774.692 392.463 774.395 392.375C770.195 391.147 767.956 389.047 763.419 390.077Z" fill="#FF6484"/>
<path d="M467.665 443.629L465.01 444.561C467.361 439.647 468.207 433.69 467.546 426.69C473.292 418.309 480.127 411.276 474.381 400.419C469.131 390.533 458.948 381.914 447.239 382.766C443.633 383.017 440.086 383.585 436.599 384.47C431.462 385.765 429.474 385.249 430.636 382.925C440.602 376.625 446.842 372.523 457.957 372.523C473.351 372.543 491.143 375.733 502.059 386.451C502.268 386.654 502.417 386.909 502.49 387.188C502.564 387.468 502.558 387.761 502.475 388.036C499.345 398.352 496.122 408.595 492.807 418.765C490.588 425.567 486.665 431.121 481.038 435.427C477.413 438.181 468.834 435.586 467.665 443.629Z" fill="white"/>
<path d="M761.262 379.22C763.494 378.639 765.218 379.094 766.433 380.587C766.637 380.835 766.784 381.126 766.863 381.437C766.942 381.749 766.95 382.074 766.889 382.39C766.374 385.005 765.218 387.567 763.422 390.077C762.933 391.464 762.193 392.653 761.203 393.643C760.674 394.172 760.219 394.119 759.836 393.485C756.89 388.703 757.366 383.948 761.262 379.22Z" fill="white"/>
<path d="M451.459 416.19C450.527 427.918 440.919 426.016 432.736 426.809C432.329 426.848 431.935 426.972 431.579 427.173C431.223 427.375 430.913 427.649 430.67 427.978C430.427 428.307 430.256 428.683 430.169 429.083C430.081 429.482 430.078 429.895 430.16 430.296C430.874 433.73 430.814 437.138 429.982 440.519C429.846 441.081 429.941 441.674 430.246 442.168C430.551 442.662 431.04 443.017 431.607 443.154C437.194 444.501 446.664 446.641 449.517 451.852C453.361 458.905 445.713 466.929 438.284 465.304C433.529 464.254 430.874 459.36 427.486 455.695C426.845 455 425.969 454.569 425.028 454.484C424.087 454.4 423.148 454.669 422.394 455.239L415.083 460.807C414.515 461.243 414.39 461.784 414.707 462.431C417.692 468.56 418.795 475.005 418.016 481.768C417.487 486.417 414.885 488.742 410.21 488.742H408.328C406.795 488.737 405.326 488.128 404.243 487.047C403.159 485.967 402.548 484.504 402.542 482.976L402.463 466.215C402.45 465.581 402.159 465.139 401.591 464.888C399.821 464.069 398.045 464.036 396.262 464.789L388.396 464.947C387.71 464.974 387.208 465.291 386.891 465.898C383.84 471.703 381.938 481.847 372.864 480.579C366.484 479.707 361.947 472.159 366.999 466.473C370.182 462.894 373.366 459.308 376.549 455.715C377.051 455.147 377.064 454.572 376.588 453.991L373.319 449.969C372.87 449.415 372.309 449.25 371.635 449.474C366.682 451.085 361.934 453.126 357.39 455.596C349.267 460.034 343.165 455.695 342.591 446.958C341.877 436.121 361.016 437.626 367.296 437.666C367.605 437.666 367.901 437.546 368.123 437.332C368.345 437.118 368.475 436.825 368.485 436.517L368.723 429.266C368.753 428.532 368.553 427.808 368.152 427.194C367.751 426.579 367.168 426.106 366.484 425.838C360.501 423.5 354.201 424.511 348.455 422.113C336.548 417.121 345.444 398.596 358.678 406.561C363.248 409.321 367.197 411.824 370.526 414.07C371.688 414.862 372.765 414.757 373.755 413.753L380.115 407.334C380.259 407.188 380.37 407.014 380.442 406.823C380.514 406.631 380.544 406.427 380.531 406.223C380.518 406.019 380.462 405.82 380.366 405.639C380.27 405.458 380.138 405.3 379.976 405.174C374.706 401.073 370.902 395.882 371.814 389.067C372.884 381.043 383.404 381.201 387.445 386.709C389.506 389.483 389.625 393.227 390.318 396.774C390.525 397.835 391.095 398.791 391.93 399.478C392.765 400.165 393.814 400.54 394.895 400.538L404.444 400.518C404.769 400.519 405.083 400.397 405.322 400.177C405.56 399.956 405.707 399.654 405.732 399.329C406.01 395.724 406.287 391.563 408.288 388.591C411.458 383.896 419.957 379.933 423.662 386.669C426.575 391.959 421.225 399.785 418.531 404.738C418.24 405.28 418.194 405.841 418.392 406.422C419.7 410.253 422.275 412.789 426.119 414.03C426.406 414.124 426.711 414.157 427.014 414.126C427.318 414.095 427.613 414.002 427.882 413.852C433.846 410.484 441.176 403.292 447.912 409.453C449.88 411.25 451.062 413.495 451.459 416.19Z" fill="#010108"/>
<path d="M451.458 416.189C462.791 416.784 468.154 420.284 467.546 426.69C468.206 433.69 467.361 439.647 465.01 444.561C463.055 446.859 460.823 448.16 458.313 448.464C457.772 448.527 457.25 448.706 456.784 448.99C456.318 449.274 455.919 449.655 455.612 450.108C455.306 450.561 455.1 451.075 455.009 451.615C454.918 452.155 454.944 452.708 455.084 453.238C457.382 461.876 463.346 468.236 466.932 476.22C472.519 488.662 461.305 494.784 451.023 496.548C439.928 498.436 429.995 496.257 421.225 490.01C420.221 489.283 419.574 489.521 419.283 490.723C417.679 497.122 411.775 509.465 403.711 510.159C402.285 510.278 399.392 510.152 395.033 509.782C392.121 509.525 390.179 508.158 387.762 506.711C387.221 506.394 386.64 506.229 386.019 506.216C378.82 506.137 371.8 505.007 364.958 502.828C363.466 501.124 363.175 499.698 364.087 498.549C367.415 494.309 371.912 489.851 377.579 485.175C381.997 481.53 385.583 477.211 389.763 473.229C390.212 472.806 390.747 472.542 391.368 472.436C394.36 471.921 394.538 469.781 395.786 467.761C397.437 465.079 397.596 464.089 396.262 464.789C398.045 464.036 399.821 464.069 401.591 464.888C402.159 465.139 402.45 465.581 402.463 466.215L402.542 482.976C402.547 484.504 403.159 485.967 404.242 487.047C405.326 488.127 406.795 488.736 408.327 488.742H410.209C414.885 488.742 417.487 486.417 418.015 481.768C418.795 475.005 417.692 468.56 414.707 462.431C414.39 461.784 414.515 461.242 415.083 460.807L422.394 455.239C423.148 454.669 424.086 454.4 425.028 454.484C425.969 454.569 426.845 455 427.486 455.695C430.874 459.36 433.528 464.254 438.283 465.304C445.713 466.928 453.36 458.905 449.517 451.851C446.664 446.641 437.194 444.501 431.607 443.154C431.04 443.017 430.55 442.662 430.246 442.168C429.941 441.674 429.846 441.08 429.982 440.519C430.814 437.138 430.873 433.73 430.16 430.296C430.078 429.895 430.08 429.482 430.168 429.082C430.256 428.683 430.427 428.307 430.67 427.978C430.913 427.649 431.223 427.375 431.579 427.173C431.934 426.972 432.329 426.848 432.736 426.809C440.918 426.016 450.527 427.918 451.458 416.189Z" fill="#FF6484"/>
<path d="M705.985 451.475C705.853 451.607 705.695 451.68 705.51 451.693C705.463 451.698 705.417 451.689 705.378 451.668C705.339 451.646 705.309 451.613 705.292 451.574L694.554 430.197C693.642 428.374 692.335 428.017 690.631 429.127C683.538 433.723 679.272 440.195 677.832 448.543C677.621 449.745 677.344 450.689 677 451.376C675.944 453.503 674.973 453.952 674.088 452.723C677.515 439.528 678.843 431.485 690.869 423.599C691.299 423.312 691.811 423.168 692.331 423.19C692.85 423.211 693.351 423.396 693.761 423.718C698.536 427.482 709.829 445.809 705.985 451.475Z" fill="white"/>
<path d="M705.986 451.475C705.788 452.387 705.518 453.054 705.174 453.476C699.528 460.549 693.921 467.503 690.632 476.221C688.314 482.402 685.104 489.891 677.853 490.961C674.155 491.529 670.602 492.566 667.194 494.072C666.534 494.362 666.032 494.19 665.688 493.556C664.5 491.338 664.044 488.425 662.994 486.563C656.892 475.904 643.935 473.031 632.622 475.547C632.48 475.576 632.335 475.574 632.194 475.543C632.053 475.511 631.921 475.45 631.805 475.365C631.689 475.279 631.593 475.169 631.522 475.044C631.451 474.918 631.407 474.779 631.393 474.636C630.482 464.472 634.167 449.316 647.739 452.506C654.811 454.17 658.695 459.242 662.717 464.611C665.728 468.633 669.393 469.762 673.633 467.068C674.214 466.685 674.498 466.143 674.485 465.443L674.089 452.724C674.974 453.952 675.945 453.503 677.001 451.376C677.345 450.69 677.622 449.745 677.833 448.543C679.273 440.196 683.539 433.724 690.632 429.127C692.336 428.018 693.643 428.374 694.555 430.197L705.293 451.574C705.31 451.614 705.34 451.647 705.379 451.668C705.418 451.69 705.464 451.698 705.511 451.693C705.696 451.68 705.854 451.607 705.986 451.475Z" fill="#FF9FA0"/>
<path d="M467.665 443.629C464.574 453.417 472.757 454.605 479.909 456.111C480.596 456.256 481.117 456.633 481.474 457.24C488.197 468.613 493.018 480.711 495.937 493.536C500.335 512.814 457.779 508.554 448.942 507.9C447.566 507.796 446.184 508.005 444.9 508.513C443.616 509.021 442.465 509.814 441.533 510.832C433.687 519.371 424.474 530.189 413.895 535.221C406.643 538.668 395.43 529.733 389.149 525.117C376.014 515.528 354.993 537.995 346.018 528.287C341.342 523.228 339.071 517.866 339.203 512.199L354.835 508.911C355.491 508.773 356.087 508.431 356.538 507.933C356.99 507.435 357.274 506.807 357.351 506.137C357.575 504.024 358.381 501.91 359.768 499.797L364.959 502.828C371.8 505.008 378.82 506.137 386.019 506.216C386.64 506.229 387.221 506.394 387.762 506.711C390.179 508.158 392.121 509.525 395.033 509.782C399.392 510.152 402.285 510.278 403.711 510.159C411.775 509.465 417.679 497.122 419.284 490.723C419.574 489.521 420.221 489.283 421.225 490.01C429.995 496.257 439.928 498.436 451.023 496.548C461.305 494.784 472.519 488.662 466.932 476.22C463.346 468.236 457.382 461.876 455.084 453.238C454.944 452.709 454.918 452.155 455.009 451.615C455.101 451.075 455.306 450.561 455.613 450.108C455.919 449.655 456.318 449.274 456.784 448.99C457.251 448.707 457.772 448.527 458.314 448.464C460.823 448.16 463.055 446.859 465.01 444.561L467.665 443.629Z" fill="#B1E1FA"/>
<path d="M728.789 509.168C726.412 507.041 727.224 505.503 731.226 504.552C731.265 504.539 731.306 504.511 731.345 504.472L732.415 503.363C732.864 502.914 732.805 502.557 732.237 502.293L729.522 501.005C728.822 500.688 728.472 500.147 728.472 499.381C728.532 493.774 731.404 491.793 734.673 488.088C735.107 487.602 735.607 487.181 736.159 486.84C737.876 485.743 739.719 484.931 741.687 484.403C742.387 484.218 742.902 483.808 743.232 483.174C744.144 481.497 744.362 479.859 743.886 478.261C743.688 477.6 743.252 477.211 742.579 477.092C724.034 473.863 710.423 494.249 706.818 509.683L699.309 511.09C699.053 511.137 698.79 511.118 698.543 511.035C698.297 510.952 698.076 510.807 697.902 510.615C697.727 510.422 697.604 510.188 697.545 509.935C697.487 509.682 697.493 509.418 697.565 509.168C698.345 506.487 699.348 503.931 700.577 501.501C707.709 487.573 709.71 467.998 727.442 463.521C731.206 462.57 735.208 463.091 739.448 465.086C747.109 468.678 750.933 475.045 750.92 484.185C750.9 491.654 745.669 497.003 740.142 500.906C737.579 502.703 735.704 504.096 734.515 505.087C732.309 506.896 730.401 508.257 728.789 509.168Z" fill="white"/>
<path d="M774.159 465.483C791.733 474.101 773.208 485.453 766.532 491.516C766.177 491.84 765.714 492.02 765.234 492.02C764.753 492.02 764.291 491.84 763.936 491.516C763.368 490.988 762.972 490.254 762.747 489.317C762.602 488.722 762.596 487.89 762.728 486.82C763.745 479.054 762.047 472.027 757.636 465.74C757.552 465.618 757.497 465.477 757.477 465.33C757.456 465.183 757.471 465.033 757.519 464.892C757.567 464.752 757.648 464.624 757.754 464.52C757.86 464.416 757.99 464.339 758.131 464.294C763.547 462.511 768.889 462.907 774.159 465.483Z" fill="#CC6E91"/>
<path d="M728.79 509.167L706.818 509.682C710.424 494.249 724.035 473.862 742.579 477.091C743.253 477.21 743.689 477.6 743.887 478.26C744.362 479.859 744.145 481.496 743.233 483.174C742.903 483.808 742.388 484.217 741.688 484.402C739.72 484.93 737.877 485.743 736.16 486.839C735.608 487.181 735.108 487.601 734.674 488.087C731.405 491.792 728.533 493.773 728.473 499.38C728.473 500.146 728.823 500.688 729.523 501.005L732.237 502.293C732.805 502.557 732.865 502.913 732.416 503.362L731.346 504.472C731.307 504.511 731.266 504.538 731.227 504.551C727.225 505.502 726.413 507.041 728.79 509.167Z" fill="#FF9FA0"/>
<path d="M649.853 491.861C651.757 494.361 652.494 497.588 651.902 500.832C651.31 504.077 649.436 507.073 646.694 509.162C643.952 511.251 640.566 512.261 637.281 511.97C633.996 511.68 631.08 510.113 629.176 507.613C627.272 505.114 626.535 501.887 627.128 498.642C627.72 495.398 629.593 492.402 632.335 490.313C635.077 488.224 638.463 487.214 641.749 487.504C645.034 487.794 647.949 489.362 649.853 491.861Z" fill="#FF9FA0"/>
<path d="M656.832 541.383C654.956 541.621 653.035 542.446 651.067 543.859C648.134 545.979 646.173 545.999 642.924 546.851C642.29 547.023 641.735 547.333 641.26 547.782C639.873 549.116 637.997 550.008 635.633 550.457C636.082 550.642 635.811 550.833 634.821 551.031C629.603 550.199 626.288 550.021 624.875 550.497C621.494 551.659 618.033 552.438 614.493 552.834C611.891 553.138 606.78 556.077 599.159 561.651C598.762 549.744 616.851 554.241 617.643 541.72C617.66 541.484 617.585 541.251 617.433 541.07C617.282 540.889 617.066 540.774 616.831 540.749C605.083 539.461 585.488 531.1 588.876 515.885L589.589 518.104C589.854 518.896 590.402 519.22 591.234 519.074C591.974 518.956 592.66 518.638 593.294 518.123C593.529 517.928 593.793 517.793 594.067 517.727L607.004 514.617C607.305 514.544 607.585 514.405 607.826 514.21C608.066 514.015 608.26 513.768 608.395 513.488C608.529 513.208 608.6 512.901 608.603 512.589C608.606 512.278 608.54 511.969 608.411 511.684C607.83 510.469 608.213 509.287 609.56 508.138C610.458 507.385 610.934 506.52 610.987 505.543L615.563 504.711C616.171 504.605 616.461 504.862 616.435 505.483C615.9 515.251 623.627 520.56 629.808 526.623C630.297 527.098 630.871 527.237 631.532 527.039C634.332 526.22 637.139 526.128 639.952 526.761C648.491 528.703 655.425 518.738 660.497 514.042C663.76 511.004 667.359 510.542 671.295 512.655L679.22 516.915C682.878 518.87 682.859 520.785 679.16 522.66C668.482 528.129 662.617 531.259 656.832 541.383Z" fill="#FF9FA0"/>
<path d="M610.986 505.543C610.933 506.52 610.458 507.385 609.56 508.138C608.213 509.287 607.83 510.469 608.411 511.685C608.54 511.969 608.606 512.278 608.603 512.589C608.6 512.901 608.529 513.208 608.394 513.488C608.26 513.768 608.066 514.015 607.825 514.21C607.585 514.405 607.305 514.544 607.004 514.617L594.067 517.727C593.793 517.793 593.528 517.928 593.294 518.124C592.66 518.639 591.973 518.956 591.234 519.075C590.402 519.22 589.853 518.896 589.589 518.104L588.876 515.885C594.265 508.713 601.635 505.265 610.986 505.543Z" fill="white"/>
<path d="M766.354 540.293C773.189 537.619 779.172 535.598 783.055 531.754C783.465 531.345 783.637 530.856 783.57 530.288L782.937 523.988C782.857 523.301 782.593 522.693 782.144 522.165L778.459 517.846C777.957 517.265 777.363 516.809 776.676 516.479C769.603 513.131 752.307 509.782 746.205 516.697C745.61 517.001 745.023 516.822 744.441 516.162C744.226 515.908 744.117 515.58 744.14 515.25C744.162 514.92 744.313 514.614 744.56 514.399C748.978 510.535 753.02 506.375 759.36 506.434C773.189 506.58 783.722 512.635 790.961 524.602C791.306 525.165 791.485 525.814 791.478 526.473C791.471 527.132 791.278 527.775 790.921 528.327C785.671 536.489 777.528 539.897 768.85 543.84C768.044 544.209 767.41 544.018 766.948 543.265C766.684 542.816 766.486 541.825 766.354 540.293Z" fill="#C2EDFC"/>
<path d="M766.354 540.293C764.591 535.617 763.204 530.446 759.935 526.662C755.933 522.026 751.356 518.704 746.205 516.697C752.307 509.782 769.603 513.131 776.676 516.479C777.363 516.809 777.957 517.265 778.459 517.846L782.144 522.165C782.593 522.693 782.858 523.301 782.937 523.988L783.571 530.288C783.637 530.856 783.465 531.345 783.056 531.754C779.173 535.598 773.189 537.618 766.354 540.293Z" fill="#CC6E91"/>
<path d="M738.813 530.208C738.774 530.842 738.906 531.41 739.209 531.912C739.328 532.097 739.487 532.229 739.685 532.308C739.896 532.374 740.108 532.42 740.319 532.447C740.781 532.5 741.065 532.751 741.171 533.2C742.082 537.043 743.799 540.438 746.322 543.383C746.758 543.885 747.121 544.433 747.412 545.028C749.73 549.683 754.207 552.596 751.156 558.916C748.171 565.137 745.265 571.371 742.439 577.619C724.885 589.823 703.052 573.319 691.759 560.303C687.652 555.561 683.445 550.918 679.139 546.375C678.623 545.835 678.319 545.129 678.283 544.386C678.247 543.643 678.48 542.914 678.941 542.333C691.363 526.523 721.299 522.6 738.813 530.208Z" fill="white"/>
<path d="M738.813 530.208C742.789 531.437 745.649 533.2 747.392 535.498C753.435 543.403 759.874 553.31 755.02 562.74C752.008 568.591 747.815 573.551 742.439 577.619C745.266 571.372 748.171 565.137 751.156 558.916C754.208 552.596 749.73 549.684 747.412 545.028C747.121 544.434 746.758 543.885 746.322 543.384C743.8 540.438 742.083 537.044 741.171 533.2C741.065 532.751 740.782 532.5 740.319 532.447C740.108 532.421 739.897 532.375 739.685 532.309C739.487 532.229 739.329 532.097 739.21 531.912C738.906 531.41 738.774 530.842 738.813 530.208Z" fill="#86C8EF"/>
<path d="M656.833 541.382C657.903 551.407 663.278 559.88 672.96 566.801C681.083 572.606 664.163 592.537 652.752 583.463C648.525 580.109 645.13 576.1 642.568 571.437C642.245 570.843 642.114 570.165 642.192 569.496C642.885 563.354 645.936 549.941 635.634 550.456C637.998 550.007 639.874 549.116 641.261 547.782C641.736 547.333 642.291 547.022 642.925 546.85C646.174 545.999 648.135 545.979 651.067 543.859C653.035 542.446 654.957 541.62 656.833 541.382Z" fill="#FF6484"/>
<path d="M634.821 551.032C633.791 552.418 633.275 553.231 633.493 555.073C636.188 578.273 597.93 596.401 599.159 561.651C606.78 556.077 611.891 553.138 614.493 552.834C618.033 552.438 621.494 551.659 624.875 550.497C626.288 550.021 629.604 550.199 634.821 551.032Z" fill="#CC6E91"/>
<path d="M659.803 600.582L659.625 628.834C659.622 628.961 659.59 629.086 659.531 629.198C659.471 629.31 659.386 629.406 659.283 629.478C659.18 629.55 659.062 629.596 658.939 629.611C658.816 629.627 658.691 629.611 658.575 629.567C645.122 624.634 632.819 618.116 619.01 613.757C600.452 607.906 581.71 603.025 562.783 599.116C562.463 599.048 562.159 598.917 561.891 598.729C561.622 598.542 561.394 598.303 561.221 598.025C561.047 597.748 560.931 597.438 560.879 597.115C560.828 596.792 560.842 596.462 560.92 596.144C564.658 581.285 572.22 568.816 583.605 558.738C583.705 558.654 583.827 558.6 583.956 558.584C584.085 558.567 584.217 558.588 584.334 558.645C584.452 558.702 584.55 558.791 584.618 558.903C584.685 559.014 584.719 559.143 584.715 559.273C583.546 587.308 608.113 606.486 633.611 586.872C634.1 586.489 634.562 586.528 634.998 586.991C641.563 594.11 649.646 598.429 659.248 599.948C659.405 599.976 659.546 600.055 659.647 600.171C659.749 600.287 659.804 600.432 659.803 600.582Z" fill="white"/>
<path d="M783.056 575.083C782.976 577.038 783.617 579.277 784.977 581.799C785.334 582.473 785.301 583.127 784.878 583.761C783.571 585.762 780.876 586.158 779.47 587.248C775.005 590.735 771.208 595.041 768.078 600.165C759.321 600.126 751.501 597.438 744.62 592.102C744.558 592.054 744.508 591.991 744.476 591.919C744.444 591.847 744.43 591.768 744.436 591.689C744.442 591.611 744.467 591.535 744.51 591.469C744.552 591.402 744.61 591.347 744.679 591.309C755.794 585.167 760.668 580.512 765.918 568.842C766.212 568.194 766.716 567.663 767.349 567.336C767.981 567.009 768.706 566.904 769.405 567.039C774.424 568.043 778.974 570.724 783.056 575.083Z" fill="#CC6E91"/>
<path d="M404.365 590.122L387.98 606.506C387.267 607.206 386.653 607.127 386.137 606.268L385.801 605.694C385.675 605.491 385.62 605.251 385.645 605.011C385.67 604.771 385.774 604.545 385.939 604.367C391.209 598.806 395.423 592.545 398.58 585.585C398.8 585.094 398.899 584.558 398.868 584.02C398.837 583.482 398.677 582.958 398.401 582.494C393.131 573.658 384.077 583.663 381.165 589.289C380.174 591.172 380.194 593.074 379.441 595.134C379.177 595.861 378.655 596.171 377.876 596.065C372.249 595.312 367.038 596.026 364.661 600.642C364.408 601.139 364.015 601.551 363.531 601.827C363.046 602.103 362.491 602.231 361.935 602.195C361.379 602.159 360.845 601.961 360.4 601.625C359.955 601.289 359.618 600.83 359.431 600.305C359.417 600.279 359.536 599.711 359.787 598.601C365.751 594.599 367.078 591.013 370.704 586.219C373.438 582.633 377.242 580.869 380.947 578.333C386.831 574.311 390.952 573.38 397.589 575.144C398.17 575.289 398.652 575.599 399.035 576.075C402.284 580.116 404.061 584.799 404.365 590.122Z" fill="white"/>
<path d="M783.055 575.083C789.184 581.066 788.55 587.67 781.153 594.895C777.415 598.541 773.057 600.297 768.077 600.165C771.207 595.04 775.005 590.735 779.469 587.248C780.876 586.158 783.57 585.762 784.878 583.761C785.301 583.127 785.334 582.473 784.977 581.799C783.616 579.277 782.976 577.038 783.055 575.083Z" fill="#127390"/>
<path d="M329.277 577.956L327.752 581.482C327.474 582.13 326.985 582.5 326.285 582.592C319.926 583.424 320.916 590.517 320.738 595.093C320.712 595.754 320.507 596.348 320.124 596.877C318.195 599.558 315.739 601.922 312.754 603.969C311.407 595.807 314.933 589.447 317.588 582.414C319.305 577.91 323.201 576.424 329.277 577.956Z" fill="white"/>
<path d="M329.277 577.957C338.391 582.804 346.501 589.725 353.607 598.72L339.085 610.964C338.596 611.386 338.021 611.624 337.361 611.677C333.379 612.073 330.308 614.094 326.385 614.233C324.734 614.285 323.037 614.358 321.293 614.451C320.448 614.503 320.144 614.939 320.382 615.758C320.871 617.383 320.844 618.624 320.303 619.483C315.204 615.045 312.688 609.874 312.754 603.97C315.739 601.923 318.196 599.558 320.124 596.877C320.507 596.349 320.712 595.754 320.738 595.094C320.917 590.517 319.926 583.425 326.286 582.593C326.986 582.5 327.475 582.13 327.752 581.483L329.277 577.957Z" fill="#FFC1B7"/>
<path d="M404.366 590.12C404.802 598.243 403.553 605.494 396.025 609.972C390.649 613.155 384.811 615.117 378.511 615.856C377.851 615.936 377.421 616.292 377.223 616.926C377.051 617.468 377.025 618.029 377.144 618.61C377.263 619.191 377.599 619.581 378.154 619.779C387.03 622.87 400.681 627.11 395.371 639.254C392.082 646.783 386.541 650.052 378.749 649.061C373.822 648.441 370.626 646.037 369.16 641.85C366.822 635.173 365.91 633.033 360.541 629.646C359.709 629.13 359.742 628.681 360.64 628.298C381.582 619.323 363.89 599.63 352.121 609.893C347.445 613.954 347.604 618.234 349.902 623.623C349.978 623.804 350.002 624.003 349.97 624.197C349.939 624.391 349.853 624.572 349.724 624.718C349.595 624.864 349.427 624.969 349.241 625.02C349.055 625.072 348.858 625.068 348.674 625.01C338.074 621.741 329.139 629.071 320.303 619.482C320.844 618.623 320.871 617.382 320.382 615.757C320.144 614.938 320.448 614.502 321.293 614.45C323.037 614.357 324.734 614.285 326.385 614.232C330.308 614.093 333.379 612.072 337.361 611.676C338.021 611.623 338.596 611.385 339.085 610.963L353.607 598.719C355.086 600.924 357.147 600.885 359.788 598.6C359.537 599.709 359.419 600.277 359.432 600.304C359.619 600.829 359.956 601.288 360.401 601.624C360.846 601.96 361.38 602.158 361.936 602.194C362.493 602.23 363.047 602.102 363.532 601.826C364.016 601.549 364.409 601.138 364.662 600.641C367.04 596.024 372.25 595.311 377.877 596.064C378.656 596.17 379.178 595.859 379.442 595.133C380.195 593.072 380.175 591.17 381.166 589.288C384.078 583.661 393.132 573.656 398.402 582.493C398.678 582.957 398.838 583.48 398.869 584.018C398.9 584.556 398.801 585.093 398.581 585.583C395.424 592.544 391.211 598.805 385.941 604.365C385.775 604.543 385.671 604.77 385.646 605.01C385.621 605.249 385.676 605.489 385.802 605.693L386.139 606.267C386.654 607.126 387.268 607.205 387.981 606.505L404.366 590.12Z" fill="#FF6484"/>
<path d="M690.829 583.186L689.977 587.783C689.915 588.118 689.925 588.461 690.007 588.789C690.089 589.118 690.241 589.423 690.453 589.685L707.452 610.052C706.474 612.905 706.983 615.857 708.977 618.908C710.893 623.676 710.727 626.126 708.482 626.258C698.906 617.29 692.302 606.096 688.67 592.676C687.732 589.216 687.237 585.696 687.184 582.116C687.171 581.324 687.554 581 688.333 581.146C689.205 581.317 690.037 581.998 690.829 583.186Z" fill="white"/>
<path d="M690.83 583.186C700.577 591.507 712.181 595.846 725.64 596.203C730.533 596.341 731.247 599.789 730.335 603.89C728.777 610.89 726.069 616.735 722.212 621.424C718.666 620.928 715.496 617.501 711.712 616.213C712.306 613.875 710.886 611.821 707.452 610.051L690.453 589.684C690.242 589.423 690.09 589.118 690.008 588.789C689.926 588.461 689.915 588.117 689.978 587.782L690.83 583.186Z" fill="#FF6484"/>
<path d="M269.543 615.817C265.065 618.076 260.647 620.711 255.714 620.433C247.855 620.011 243.193 615.718 241.727 607.555C241.581 606.736 241.093 606.373 240.261 606.466C239.64 606.545 239.098 606.789 238.636 607.199C238.16 607.635 237.639 607.707 237.071 607.417C236.424 607.073 235.975 606.492 235.724 605.673C239.746 580.234 277.805 587.703 269.543 615.817Z" fill="white"/>
<path d="M287.829 604.287C287.726 604.243 287.643 604.16 287.599 604.057C287.554 603.954 287.552 603.837 287.591 603.732L287.69 603.454C287.975 602.727 288.611 602.17 289.457 601.906C290.304 601.643 291.293 601.694 292.208 602.048L293.099 602.385C293.553 602.561 293.975 602.808 294.341 603.11C294.706 603.412 295.008 603.763 295.229 604.144C295.449 604.525 295.585 604.928 295.628 605.33C295.67 605.732 295.619 606.124 295.477 606.486L295.378 606.743C295.337 606.85 295.257 606.937 295.153 606.986C295.049 607.034 294.931 607.039 294.823 607.001L287.829 604.287Z" fill="white"/>
<path d="M235.724 605.673C235.975 606.492 236.424 607.073 237.071 607.417C237.639 607.707 238.161 607.635 238.636 607.199C239.099 606.789 239.64 606.545 240.261 606.466C241.093 606.373 241.582 606.737 241.727 607.555C243.193 615.718 247.856 620.011 255.715 620.433C260.648 620.711 265.066 618.076 269.544 615.817C259.796 638.165 232.653 626.179 235.724 605.673Z" fill="#FF6484"/>
<path d="M707.451 610.051C710.885 611.821 712.305 613.875 711.711 616.213C710.258 615.975 709.346 616.873 708.977 618.907C706.982 615.856 706.474 612.904 707.451 610.051Z" fill="#86C8EF"/>
<path d="M361.8 615.59C362.018 616.025 362.141 616.502 362.163 616.994C362.184 617.486 362.103 617.983 361.925 618.457C361.747 618.932 361.475 619.373 361.124 619.757C360.773 620.141 360.351 620.46 359.881 620.695C359.411 620.93 358.902 621.078 358.385 621.128C357.867 621.179 357.351 621.133 356.864 620.992C356.378 620.851 355.932 620.617 355.55 620.305C355.169 619.994 354.861 619.609 354.643 619.174C354.425 618.739 354.302 618.262 354.281 617.77C354.259 617.278 354.34 616.781 354.518 616.307C354.696 615.833 354.969 615.391 355.32 615.007C355.67 614.623 356.093 614.305 356.563 614.069C357.033 613.834 357.541 613.687 358.059 613.636C358.576 613.585 359.093 613.631 359.579 613.773C360.065 613.914 360.512 614.147 360.893 614.459C361.274 614.771 361.582 615.155 361.8 615.59Z" fill="#FEAADF"/>
<path d="M711.712 616.214C715.496 617.502 718.666 620.929 722.212 621.425C716.685 622.891 715.516 628.26 708.482 626.259C710.728 626.127 710.893 623.677 708.978 618.909C709.348 616.874 710.259 615.976 711.712 616.214Z" fill="#127390"/>
<path d="M283.807 624.218C283.799 624.215 283.792 624.212 283.785 624.206C283.779 624.201 283.774 624.194 283.77 624.187C283.766 624.179 283.764 624.171 283.764 624.163C283.763 624.154 283.765 624.146 283.768 624.138L283.788 624.119C284.289 623.055 285.424 622.343 286.943 622.138C288.463 621.934 290.242 622.254 291.891 623.029L308.592 630.894C309.411 631.279 310.174 631.764 310.835 632.321C311.497 632.879 312.045 633.499 312.448 634.145C312.851 634.791 313.102 635.451 313.184 636.086C313.267 636.722 313.181 637.321 312.931 637.848L312.911 637.868C312.903 637.881 312.891 637.89 312.876 637.894C312.861 637.898 312.846 637.895 312.832 637.888L283.807 624.218Z" fill="white"/>
<path d="M420.123 636.196C420.018 636.293 419.771 636.235 419.398 636.025C419.025 635.816 418.532 635.459 417.947 634.974C417.362 634.49 416.698 633.888 415.991 633.202C415.284 632.517 414.548 631.762 413.827 630.98C412.369 629.4 411.056 627.808 410.176 626.552C409.295 625.297 408.92 624.481 409.132 624.285C409.237 624.188 409.484 624.246 409.857 624.456C410.23 624.665 410.723 625.023 411.308 625.507C411.893 625.991 412.557 626.593 413.264 627.279C413.971 627.964 414.707 628.72 415.428 629.502C416.886 631.081 418.199 632.674 419.079 633.929C419.96 635.184 420.335 636 420.123 636.196Z" fill="#86C8EF"/>
<path d="M357.707 649.993L347.92 657.145C339.229 653.341 336.481 647.556 339.678 639.79C342.055 634.024 348.653 635.075 353.328 636.144C354.847 636.501 355.726 637.445 355.964 638.978L357.707 649.993Z" fill="#FF6484"/>
<path d="M299.261 652.47C291.706 652.431 287.189 654.445 285.71 658.513C284.468 661.934 283.557 664.245 282.976 665.447C281.331 663.288 279.984 661.742 280.776 658.969C281.899 655.099 284.138 651.962 287.493 649.558C288.034 649.175 288.629 649.016 289.276 649.082C293.258 649.518 296.369 648.686 299.261 652.47Z" fill="white"/>
<path d="M357.707 649.994C360.441 653.058 363.664 655.482 367.376 657.265C367.674 657.406 367.937 657.613 368.144 657.872C368.351 658.13 368.497 658.432 368.572 658.755C368.646 659.079 368.646 659.416 368.573 659.741C368.5 660.066 368.354 660.371 368.148 660.633L364.978 664.674C364.739 664.978 364.568 665.33 364.477 665.706C364.385 666.082 364.376 666.473 364.45 666.852C364.523 667.232 364.677 667.591 364.902 667.906C365.126 668.221 365.416 668.484 365.751 668.677C369.291 670.711 372.058 673.504 374.052 677.057C374.24 677.39 374.338 677.765 374.338 678.147C374.338 678.529 374.24 678.904 374.052 679.236C372.837 681.376 372.005 683.661 371.556 686.091C371.488 686.46 371.301 686.796 371.025 687.046C370.749 687.297 370.4 687.449 370.03 687.478L356.677 688.548C355.96 688.606 355.24 688.488 354.58 688.203C353.919 687.918 353.339 687.476 352.889 686.915C352.439 686.354 352.134 685.691 352 684.984C351.866 684.278 351.907 683.549 352.12 682.862C353.996 676.879 353.124 671.417 349.505 666.477C349.145 665.99 348.964 665.396 348.99 664.793C349.056 663.301 349.511 661.934 350.357 660.692C350.793 660.071 350.713 659.51 350.119 659.008L347.92 657.146L357.707 649.994Z" fill="#FE474C"/>
<path d="M299.261 652.47C301.269 653.011 302.874 655.177 304.076 658.968C304.3 659.695 304.168 660.355 303.679 660.949L296.567 669.488C296.488 669.593 296.428 669.707 296.389 669.825L294.922 674.679C294.864 674.887 294.746 675.073 294.582 675.214C294.418 675.354 294.216 675.443 294.002 675.468C293.787 675.494 293.57 675.455 293.378 675.357C293.185 675.259 293.027 675.106 292.921 674.917C291.706 672.791 289.771 671.509 287.116 671.073C283.062 670.413 281.681 668.538 282.976 665.447C283.557 664.245 284.468 661.933 285.71 658.513C287.189 654.444 291.706 652.43 299.261 652.47Z" fill="#FF6484"/>
<path d="M326.642 663.327C325.889 662.521 325.565 661.564 325.671 660.454C325.711 659.9 325.248 659.668 324.284 659.761C325.38 659.431 326.219 659.662 326.8 660.454C327.672 661.683 327.619 662.64 326.642 663.327Z" fill="#86C8EF"/>
<path d="M324.284 659.761C325.248 659.669 325.711 659.9 325.671 660.454C325.565 661.564 325.889 662.521 326.642 663.327C329.125 663.288 331.126 663.875 332.645 665.09C332.898 665.29 333.071 665.574 333.133 665.89C333.195 666.206 333.141 666.534 332.982 666.814C331.08 670.129 331.78 672.804 335.082 674.838C335.629 675.168 336.033 675.699 336.211 676.324C337.836 681.951 338.212 687.102 334.705 692.312C332.843 695.126 331.674 698.434 328.504 699.782C321.233 702.892 311.188 699.227 309.009 691.124C305.997 680.029 306.136 679.038 314.437 672.064C314.953 671.629 315.256 671.074 315.349 670.4L316.32 663.862C316.425 663.07 316.828 662.482 317.528 662.099C319.641 660.95 321.894 660.17 324.284 659.761Z" fill="white"/>
<path d="M561.615 688.449C563.557 691.83 563.821 695.654 562.408 699.92L520.505 700.376C517.084 700.416 516.582 699.22 518.999 696.79L523.398 692.352C526.118 689.605 529.414 688.244 533.284 688.271L561.615 688.449Z" fill="white"/>
<path d="M562.406 699.92C563.819 695.654 563.555 691.83 561.613 688.449C570.806 686.903 576.67 692.569 582.713 698.533C583.308 699.101 583.189 699.398 582.357 699.424L562.406 699.92Z" fill="#0E99CE"/>
<path d="M294.783 702.594L292.465 712.778C292.453 712.846 292.426 712.911 292.385 712.969C292.344 713.027 292.29 713.077 292.227 713.114L291.395 713.63C291.209 713.747 291.051 713.904 290.932 714.089C290.812 714.273 290.734 714.482 290.702 714.699L289.117 725.517C286.026 723.483 283.847 721.231 282.579 718.761C282.288 718.18 282.209 717.572 282.341 716.938C284.045 708.597 286.601 701.782 293.495 697.938C293.713 697.817 293.96 697.76 294.209 697.775C294.457 697.789 294.696 697.874 294.898 698.02C295.1 698.165 295.256 698.366 295.348 698.597C295.44 698.828 295.464 699.081 295.417 699.325L294.783 702.594Z" fill="#FEAADF"/>
<path d="M294.783 702.594C295.259 707.745 300.014 710.955 304.273 713.134C304.554 713.284 304.788 713.508 304.949 713.781C305.11 714.054 305.192 714.365 305.185 714.68C305.04 724.797 299.684 728.409 289.117 725.517L290.702 714.699C290.734 714.482 290.812 714.273 290.932 714.089C291.051 713.904 291.21 713.747 291.396 713.63L292.228 713.115C292.29 713.077 292.344 713.027 292.385 712.969C292.426 712.911 292.454 712.846 292.465 712.778L294.783 702.594Z" fill="#FF6756"/>
<path d="M603.52 314.633C597.774 320.365 592.907 326.705 588.918 333.653" stroke="#FDDAAF" stroke-width="2"/>
<path d="M411.124 419.359C409.797 423.48 403.081 421.994 400.01 422.589" stroke="#FFD1CA" stroke-width="2"/>
<path d="M400.01 422.589C393.968 425.085 385.587 432.733 388.817 439.865" stroke="#EFD6A2" stroke-width="2"/>
<path d="M388.815 439.865C388.603 441.714 388.049 442.454 387.15 442.084" stroke="#FFD1CA" stroke-width="2"/>
<path d="M388.814 439.865C391.806 444.462 396.759 447.513 401.871 445.115C404.427 443.927 406.863 443.59 408.825 441.688C412.629 437.99 413.976 433.426 412.866 427.998C412.219 424.92 410.331 423.276 407.2 423.064L400.008 422.589" stroke="#EFA86D" stroke-width="2"/>
<path d="M327.14 690.332C324.551 688.786 321.632 688.139 318.383 688.39" stroke="#FF8482" stroke-width="2"/>
<path d="M603.519 314.632C597.773 320.364 592.906 326.704 588.917 333.652C584.889 325.674 585.549 319.275 590.898 314.454C594.821 310.94 599.028 311 603.519 314.632Z" fill="white"/>
<path d="M603.52 314.633C610.137 319.586 612.059 334.069 601.578 335.891C596.255 336.816 592.035 336.07 588.918 333.653C592.907 326.705 597.774 320.365 603.52 314.633Z" fill="#FAB45F"/>
<path d="M411.123 419.36C409.795 423.481 403.079 421.995 400.008 422.589C393.965 425.086 385.585 432.733 388.814 439.866C388.603 441.715 388.048 442.454 387.15 442.085C379.502 434.833 383.643 422.53 391.013 417.101C397.71 412.188 405.179 414.684 411.123 419.36Z" fill="white"/>
<path d="M411.123 419.359C426.874 435.07 403.575 461.163 387.15 442.084C388.049 442.454 388.603 441.714 388.815 439.865C391.806 444.461 396.759 447.512 401.871 445.115C404.427 443.926 406.864 443.59 408.825 441.688C412.629 437.989 413.976 433.426 412.867 427.997C412.219 424.92 410.331 423.276 407.2 423.064L400.008 422.589C403.079 421.994 409.796 423.48 411.123 419.359Z" fill="#FFA395"/>
<path d="M400.009 422.589L407.2 423.064C410.331 423.276 412.219 424.92 412.867 427.998C413.976 433.426 412.629 437.99 408.825 441.688C406.864 443.59 404.427 443.927 401.871 445.115C396.759 447.513 391.806 444.462 388.815 439.865C385.585 432.733 393.966 425.085 400.009 422.589Z" fill="#DFAC44"/>
<path d="M681.798 479.846L680.193 472.496C680.133 472.209 680.132 471.913 680.19 471.626C680.249 471.339 680.365 471.066 680.531 470.825C680.698 470.584 680.912 470.38 681.161 470.224C681.409 470.069 681.687 469.965 681.976 469.921L685.978 469.267C686.301 469.215 686.631 469.237 686.944 469.331C687.256 469.425 687.544 469.589 687.784 469.81C688.025 470.031 688.211 470.304 688.331 470.608C688.451 470.912 688.5 471.239 688.475 471.565L687.841 479.926C687.817 480.233 687.727 480.532 687.578 480.803C687.428 481.073 687.223 481.308 686.975 481.492C686.727 481.676 686.443 481.804 686.141 481.869C685.839 481.934 685.527 481.933 685.225 481.867L683.442 481.491C683.04 481.402 682.671 481.2 682.38 480.909C682.088 480.617 681.887 480.249 681.798 479.846Z" fill="#010108"/>
<path d="M594.227 518.738L605.401 517.37C605.671 517.345 605.934 517.4 606.153 517.529L619.963 525.612C621.548 526.537 621.429 527.105 619.606 527.316C618.774 527.422 617.565 527.349 615.98 527.098C608.716 525.989 601.418 525.447 594.088 525.474C593.309 525.474 592.919 525.084 592.919 524.305V520.223C592.921 519.857 593.054 519.503 593.295 519.23C593.536 518.956 593.867 518.781 594.227 518.738Z" fill="#FE474C"/>
<path d="M639.201 532.805C640.311 532.382 641.447 532.21 642.609 532.289C643.401 532.355 643.87 532.778 644.015 533.557C644.947 538.966 640.588 540.056 637.616 542.79C635.873 544.401 635.225 544.038 635.675 541.7C636.401 537.923 635.417 534.753 632.723 532.19C632.6 532.077 632.52 531.928 632.494 531.764C632.469 531.601 632.498 531.433 632.58 531.287C632.661 531.14 632.789 531.023 632.943 530.954C633.098 530.884 633.271 530.866 633.436 530.903C634.809 531.22 636.091 531.774 637.279 532.567C637.874 532.976 638.514 533.055 639.201 532.805Z" fill="#01010F"/>
<path d="M740.838 546.792C743.77 548.773 748.564 549.05 748.208 553.884C747.99 556.856 744.186 558.679 746.187 562.958C746.464 563.553 746.55 564.18 746.444 564.84C745.097 572.805 736.142 572.666 729.941 574.053C728.633 574.357 728.072 574.998 728.257 575.975C728.31 576.318 728.171 576.444 727.841 576.351C711.179 571.933 700.936 559.887 694.18 545.88C693.268 544.005 693.79 542.697 695.745 541.957C710.129 536.549 723.958 533.656 737.826 541.006C739.609 541.957 740.382 543.384 740.144 545.286C740.065 545.92 740.296 546.422 740.838 546.792Z" fill="#FF6484"/>
<path d="M327.139 690.331C324.551 688.786 321.632 688.139 318.383 688.389C317.537 688.297 316.85 688.125 316.322 687.874C315.754 687.597 315.576 687.161 315.787 686.567C317.795 681.006 319.287 677.579 320.265 676.284C327.556 666.695 340.81 682.03 327.139 690.331Z" fill="#FE474C"/>
<path d="M318.383 688.39C321.632 688.139 324.551 688.786 327.14 690.332C323.851 692.075 321.374 689.499 318.383 688.39Z" fill="#FFC1B7"/>
</svg>
