<svg width="1024" height="1024" viewBox="0 0 1024 1024" fill="none" xmlns="http://www.w3.org/2000/svg">
<rect width="1024" height="1024" fill="white"/>
<path d="M496.152 255.509C500.624 264.719 511.548 268.642 520.552 264.27C529.555 259.898 533.228 248.888 528.756 239.677C524.283 230.467 513.359 226.544 504.356 230.916C495.352 235.288 491.679 246.298 496.152 255.509Z" fill="#010112"/>
<path d="M513.402 432.511C515.613 428.29 519.746 420.998 525.799 410.635C535.353 394.257 536.49 377.215 532.377 358.847C530.652 351.132 526.899 343.511 523.373 336.156C517.932 324.839 523.866 319.607 535.239 319.551C561.892 319.456 582.44 311.722 594.193 287.988C599.709 276.88 601.017 264.104 603.178 250.588C603.848 246.354 606.426 243.397 610.913 241.716C619.253 238.589 626.893 249.014 632.125 254.36C646.936 269.512 665.102 276.299 686.624 274.719C709.864 272.994 722.906 262.89 740.706 246.891C743.113 244.73 747.814 241.072 751.53 240.56C762.885 239.006 771.623 253.678 763.832 262.834C748.023 281.335 737.616 298.907 736.706 323.437C735.701 350.563 746.051 371.415 767.889 387.243C776.704 393.65 775.339 409.327 762.657 409.82C730.507 411.109 703.855 428.227 708.423 464.774C708.979 469.273 710.06 474.871 711.665 481.569C713.56 489.55 712.935 497.587 703.646 498.971C701.144 499.35 698.136 498.636 694.623 496.829C679.326 488.981 659.706 482.479 642.513 488.564C638.399 490.024 631.821 492.602 629.092 496.355C628.751 496.816 628.608 497.396 628.694 497.966C630.273 508.557 629.648 518.989 626.817 529.263C626.615 529.996 626.823 530.59 627.442 531.045C649.64 547.48 678.207 544.921 700.784 532.05C705.732 529.225 712.442 533.168 713.75 538.002C714.218 539.771 713.978 542.754 713.03 546.949C709.826 561.148 707.513 575.668 711.798 589.43C716.537 604.728 733.597 615.154 748.269 618.452C756.819 620.367 772.268 620.215 772.249 632.859C772.249 637.156 770.72 640.549 767.662 643.038C758.544 650.431 750.942 656.516 744.952 666.885C732.441 688.533 735.796 719.375 746.81 740.644C751.625 749.932 761.368 759.392 766.126 767.296C768.793 771.732 768.243 776.478 764.477 781.533C756.326 792.451 745.331 784.983 737.692 777.552C728.119 768.244 717.75 758.633 704.708 754.558C677.146 745.952 648.56 752.397 630.873 776.035C626.229 782.253 622.154 791.333 612.694 789.76C604.866 788.452 603.482 781.191 603.084 773.666C601.795 749.497 595.918 729.1 573 717.157C558.688 709.688 545.988 709.878 530.235 709.613C522.558 709.48 519.619 703.547 522.614 696.855C526.494 688.097 529.685 679.093 532.187 669.843C539.277 643.607 529.439 622.187 514.293 601.809C513.37 600.583 512.435 600.57 511.487 601.771C496.872 620.139 486.029 641.105 491.943 665.255C494.028 673.747 497.422 683.314 502.123 693.955C507.279 705.651 500.72 710.2 489.498 710.238C473.689 710.295 457.746 711.034 444.515 720.702C431.454 730.275 424.27 746.862 422.715 762.88C421.824 772.187 423.265 781.893 414.848 788.262C409.692 792.167 404.119 789.001 400.233 783.921C386.376 765.837 369.24 753.231 345.848 751.203C318.077 748.795 297.888 762.083 280.013 781.381C273.814 788.072 265.322 788.452 259.388 781.305C251.332 771.543 262.061 761.515 268.108 754.179C280.126 739.601 286.932 723.356 288.126 704.57C290.078 674.032 276.032 660.725 255.18 642.204C249.721 637.352 250.1 627.419 256.033 623.457C257.524 622.458 260.665 621.706 265.454 621.201C277.548 619.912 288.587 615.678 298.571 608.5C315.366 596.425 318.323 577.393 314.286 559.1C312.63 551.581 311.638 546.684 311.31 544.409C310.172 536.429 315.707 529.017 324.636 532.41C330.815 534.779 337.393 538.267 342.947 539.954C361.904 545.679 383.608 543.575 398.565 529.51C399.033 529.08 399.178 528.562 399.001 527.955C396.158 518.237 395.911 508.443 398.262 498.573C398.401 497.954 398.217 497.455 397.712 497.076C382.547 485.626 363.856 483.901 345.582 489.455C337.298 491.976 318.702 506.288 311.821 494.82C308.997 490.1 312.087 481.854 313.47 476.167C318.153 456.85 318.342 435.847 299.651 422.919C288.834 415.45 276.436 411.217 262.459 410.218C252.792 409.536 246.157 398.333 253.739 390.674C255.205 389.196 258.775 386.118 264.45 381.443C295.178 356.212 293.965 309.693 273.113 278.416C269.72 273.316 264.45 267.648 260.26 262.246C250.631 249.792 266.364 232.276 279.975 244.92C288.012 252.389 297.168 260.919 306.153 265.867C337.507 283.193 376.841 274.511 398.982 246.361C404.062 239.915 414.261 238.683 418.905 246.038C420.005 247.782 420.801 250.916 421.293 255.441C422.924 270.473 425.217 283.287 434.032 296.064C447.643 315.759 469.006 320.764 492.303 318.887C501.004 318.186 506.748 328.308 502.654 335.322C487.583 361.122 485.422 386.144 500.777 412.739C506.11 421.99 510.015 428.593 512.492 432.549C512.82 433.067 513.124 433.054 513.402 432.511Z" fill="#010112"/>
<path d="M494.296 779.71C493.603 790.146 501.111 799.142 511.066 799.803C521.022 800.464 529.654 792.54 530.347 782.104C531.04 771.669 523.532 762.673 513.576 762.011C503.621 761.35 494.989 769.274 494.296 779.71Z" fill="#010112"/>
<path d="M465.593 353.16C450.34 353.426 436.786 349.059 424.932 340.061C419.094 335.626 413.54 329.124 408.023 323.323" stroke="#85ECDB" stroke-width="2"/>
<path d="M401.447 316.404C396.151 307.318 393.567 297.523 393.693 287.022" stroke="#85ECDB" stroke-width="2"/>
<path d="M331.138 304.784L332.37 304.84C333.09 304.866 333.545 304.531 333.735 303.836C333.987 302.926 333.634 302.218 332.673 301.713" stroke="#85ECDB" stroke-width="2"/>
<path d="M464.855 399.792C456.59 406.086 447.384 411.691 437.236 416.607" stroke="#15B0B1" stroke-width="2"/>
<path d="M316.541 314.205C316.781 314.723 316.351 315.286 315.252 315.892" stroke="#85ECDB" stroke-width="2"/>
<path d="M421.616 426.445C417.319 428.239 409.288 430.767 397.523 434.027C386.263 437.149 377.524 444.586 371.306 456.339C371.003 456.907 370.529 457.204 369.884 457.23L359.231 457.533" stroke="#15B0B1" stroke-width="2"/>
<path d="M629.205 285.979C630.513 291.875 633.66 297.296 630.02 302.926C626.785 307.931 623.644 313.093 620.599 318.413" stroke="#85ECDB" stroke-width="2"/>
<path d="M616.978 323.077C600.562 340.782 584.43 352.952 559.086 352.838" stroke="#85ECDB" stroke-width="2"/>
<path d="M697.447 301.22C697.055 302.471 697.22 303.192 697.94 303.381" stroke="#85ECDB" stroke-width="2"/>
<path d="M591.577 438.994C608.954 437.136 625.465 436.169 641.11 436.094C644.914 436.081 647.422 434.893 648.635 432.53C654.613 420.967 661.633 409.713 669.696 398.769" stroke="#15B0B1" stroke-width="2"/>
<path d="M673.335 381.424L672.956 354.184" stroke="#15B0B1" stroke-width="2"/>
<path d="M490.635 468.66C482.623 470.657 474.51 472.711 466.296 474.821C456.742 477.266 452.609 480.205 448.268 488.545C444.01 496.747 441.052 504.38 439.397 511.444C439.245 512.102 438.973 512.525 438.582 512.715C438.127 512.955 437.571 513.018 436.914 512.904" stroke="#FCA6A6" stroke-width="2"/>
<path d="M436.914 512.904C433.539 512.26 430.481 510.914 427.739 508.866" stroke="#C7A3B1" stroke-width="2"/>
<path d="M480.304 511.994C479.723 519.084 480.058 525.801 481.309 532.145C481.878 535.039 480.968 536.966 478.579 537.926C470.706 541.111 462.833 540.492 454.96 536.069C446.031 531.064 439.321 526.515 439.567 516.373C439.631 513.82 438.746 512.664 436.914 512.904" stroke="#CA4B57" stroke-width="2"/>
<path d="M562.821 461.609C563.25 465.728 562.909 469.438 561.797 472.736C561.613 473.296 561.266 473.789 560.8 474.15C560.333 474.512 559.77 474.726 559.181 474.764C556.072 474.992 552.509 474.669 549.627 475.333C533.969 478.916 526.33 496.526 522.482 511.065" stroke="#FCA6A6" stroke-width="2"/>
<path d="M522.482 511.065L511.07 509.492" stroke="#C7A3B1" stroke-width="2"/>
<path d="M596.544 495.616C596.62 503.502 595.931 509.189 594.478 512.677C587.097 530.268 573.739 539.209 554.404 539.5C544.661 539.651 536.282 536.069 529.268 528.751C523.872 523.115 521.61 517.22 522.482 511.065" stroke="#CA4B57" stroke-width="2"/>
<path d="M429.805 591.364C425.369 589.468 418.911 587.649 410.432 585.905C399.841 583.731 391.513 577.551 385.447 567.365" stroke="#15B0B1" stroke-width="2"/>
<path d="M316.826 713.935C316.005 713.733 315.43 713.808 315.101 714.162" stroke="#85ECDB" stroke-width="2"/>
<path d="M300.163 647.114C307.442 644.896 326.133 634.413 320.977 624.935" stroke="#85ECDB" stroke-width="2"/>
<path d="M329.034 722.313C328.604 721.088 328.035 720.702 327.328 721.157" stroke="#85ECDB" stroke-width="2"/>
<path d="M470.2 614.263C460.381 616.651 445.273 615.362 438.221 606.775" stroke="#15B0B1" stroke-width="2"/>
<path d="M638.21 567.328C634.457 572.313 631.026 578.758 627.386 582.701C621.169 589.399 613.043 593.847 603.009 596.046" stroke="#15B0B1" stroke-width="2"/>
<path d="M728.081 645.787C703.609 641.143 686.302 650.413 666.019 663.625" stroke="#15B0B1" stroke-width="2"/>
<path d="M708.916 712.21C709.232 713.84 708.922 714.44 707.987 714.011" stroke="#26AFD5" stroke-width="2"/>
<path d="M596.373 618.775L555.693 616.671" stroke="#15B0B1" stroke-width="2"/>
<path d="M653.109 677.596L636.295 697.272C635.659 698.015 635.205 698.893 634.968 699.837C634.731 700.781 634.718 701.766 634.93 702.713C635.258 704.166 635.246 705.967 634.892 708.115C633.59 715.963 632.421 723.824 631.385 731.697C631.309 732.329 631.094 732.91 630.741 733.441C630.159 734.338 629.906 735.292 629.982 736.303C630.005 736.587 629.951 736.871 629.828 737.127C629.705 737.384 629.516 737.603 629.281 737.763L627.196 739.203C627.061 739.298 626.908 739.361 626.745 739.387C626.583 739.413 626.417 739.402 626.26 739.355C626.103 739.307 625.959 739.224 625.839 739.113C625.718 739.001 625.625 738.864 625.565 738.711L624.087 734.995" stroke="#15B0B1" stroke-width="2"/>
<path d="M465.594 353.16C450.341 353.426 436.787 349.059 424.933 340.061C419.095 335.626 413.541 329.124 408.024 323.323L401.447 316.404C396.151 307.318 393.567 297.524 393.693 287.022L398.887 281.506C399.494 280.861 399.835 280.981 399.911 281.866C402.508 315.096 435.53 342.829 468.305 343.796C468.988 343.808 469.202 344.137 468.95 344.781L465.594 353.16Z" fill="#F9FEFF"/>
<path d="M629.205 285.979C630.513 291.875 633.66 297.296 630.02 302.926C626.785 307.931 623.645 313.093 620.599 318.413L616.978 323.077C600.562 340.782 584.431 352.952 559.086 352.838L556.717 344.383C556.502 343.612 556.799 343.208 557.608 343.17C591.501 341.805 616.637 315.21 624.447 284.027C624.649 283.231 625.079 283.066 625.736 283.534L629.205 285.979Z" fill="#F9FEFF"/>
<path d="M629.205 285.979C642.613 296.456 657.007 302.035 672.387 302.718C679.464 303.021 687.817 302.522 697.447 301.22C697.055 302.471 697.22 303.192 697.94 303.381C692.443 304.537 691.154 309.845 688.405 312.594C670.561 330.488 653.109 348.649 636.048 367.074C635.916 367.217 635.748 367.322 635.561 367.376C635.374 367.43 635.176 367.432 634.988 367.381C634.8 367.33 634.63 367.229 634.496 367.088C634.362 366.946 634.269 366.771 634.228 366.581C633.811 364.812 633.603 362.954 633.603 361.008C633.628 349.002 633.78 337.003 634.058 325.01C634.228 317.048 626.684 316.082 620.599 318.413C623.644 313.093 626.785 307.931 630.02 302.926C633.66 297.296 630.513 291.875 629.205 285.979Z" fill="#10DAB7"/>
<path d="M393.693 287.022C393.567 297.523 396.151 307.318 401.446 316.404C394.812 317.162 392.063 320.65 392.12 327.455C392.234 340.409 392.354 353.324 392.48 366.202C392.493 366.808 392.398 367.327 392.196 367.756C392.171 367.809 392.134 367.856 392.088 367.893C392.043 367.929 391.989 367.954 391.933 367.965C391.877 367.977 391.82 367.974 391.767 367.957C391.713 367.941 391.665 367.911 391.627 367.87L331.138 304.784L332.37 304.841C333.09 304.866 333.545 304.531 333.735 303.836C333.987 302.926 333.634 302.218 332.673 301.713C349.961 301.827 364.842 302.717 380.879 294.926C384.935 292.955 389.314 289.524 393.693 287.022Z" fill="#10DAB7"/>
<path d="M697.94 303.381C697.22 303.192 697.055 302.471 697.447 301.22L711.172 296.746C711.279 296.71 711.394 296.701 711.506 296.721C711.617 296.742 711.722 296.79 711.809 296.863C711.897 296.935 711.964 297.028 712.005 297.134C712.046 297.24 712.059 297.354 712.044 297.467L710.565 308.897C710.451 309.706 710.167 309.776 709.712 309.106C706.944 305.074 703.02 303.166 697.94 303.381Z" fill="#F9FEFF"/>
<path d="M332.674 301.713C333.634 302.218 333.988 302.926 333.735 303.836C333.546 304.531 333.091 304.866 332.37 304.841L331.138 304.784C323.878 301.03 316.353 306.054 316.542 314.205C316.782 314.723 316.352 315.286 315.253 315.892L311.5 298.396C311.463 298.234 311.469 298.066 311.516 297.908C311.563 297.749 311.65 297.604 311.769 297.487C311.888 297.37 312.035 297.285 312.197 297.238C312.358 297.191 312.529 297.185 312.694 297.22L332.674 301.713Z" fill="#F9FEFF"/>
<path d="M316.541 314.205C318.121 317.794 320.352 321.042 323.233 323.949C341.861 342.753 360.551 361.735 379.305 380.893C380.455 382.068 380.209 382.637 378.566 382.599L335.137 381.784C329.4 381.67 326.639 384.482 326.854 390.22L326.91 392.058C326.969 393.716 327.671 395.286 328.867 396.436C330.063 397.585 331.659 398.225 333.318 398.219L390.528 397.973C391.536 397.973 392.508 398.367 393.238 399.072L421.616 426.445C417.319 428.239 409.288 430.767 397.522 434.027C386.262 437.149 377.524 444.586 371.306 456.339C371.003 456.908 370.529 457.205 369.884 457.23L359.231 457.533L344.862 460.377C344.729 460.401 344.593 460.398 344.462 460.366C344.331 460.334 344.21 460.274 344.105 460.191C344 460.108 343.915 460.004 343.856 459.885C343.797 459.767 343.765 459.637 343.763 459.504C343.327 445.003 342.113 432.283 333.488 419.393C323.682 404.772 310.437 395.401 293.756 391.281C293.463 391.212 293.193 391.065 292.976 390.856C292.758 390.648 292.601 390.384 292.52 390.094C292.438 389.804 292.436 389.497 292.514 389.206C292.591 388.914 292.745 388.649 292.96 388.438C313.338 368.363 318.342 343.701 315.252 315.892C316.352 315.286 316.782 314.723 316.541 314.205Z" fill="#10DAB7"/>
<path d="M591.577 438.994C608.954 437.136 625.465 436.169 641.11 436.094C644.914 436.081 647.422 434.893 648.635 432.53C654.613 420.967 661.633 409.713 669.696 398.769L687.969 398.409C693.378 398.295 696.279 395.54 696.67 390.144L696.822 387.907C696.882 387.058 696.766 386.206 696.481 385.403C696.197 384.601 695.749 383.867 695.167 383.246C694.585 382.624 693.881 382.13 693.099 381.794C692.318 381.458 691.475 381.286 690.623 381.291L673.335 381.424L672.956 354.184L707.381 318.167C708.581 316.903 709.169 317.15 709.144 318.906C708.954 327.095 708.347 335.739 709.542 343.417C710.692 350.81 712.619 358.007 715.323 365.008C719.418 375.623 725.522 380.741 732.687 387.66C732.925 387.894 733.095 388.188 733.177 388.512C733.259 388.835 733.251 389.175 733.153 389.494C733.055 389.813 732.872 390.098 732.622 390.32C732.373 390.542 732.068 390.691 731.739 390.75C713.466 393.973 698.32 405.309 688.5 420.322C680.747 432.189 679.875 444.302 679.724 458.291C679.723 458.481 679.681 458.669 679.602 458.841C679.523 459.013 679.407 459.167 679.263 459.291C679.12 459.415 678.951 459.506 678.769 459.56C678.586 459.613 678.395 459.626 678.207 459.599C674.782 459.081 671.25 458.582 667.611 458.102C650.967 455.928 635.524 459.069 621.282 467.523C621.06 467.654 620.813 467.737 620.557 467.769C620.302 467.801 620.042 467.779 619.793 467.707C619.545 467.634 619.313 467.511 619.113 467.346C618.913 467.181 618.748 466.977 618.628 466.746C613.206 456.105 604.189 446.854 591.577 438.994Z" fill="#1985AA"/>
<path d="M408.023 323.323C413.54 329.124 419.094 335.626 424.932 340.061C436.786 349.059 450.34 353.426 465.593 353.16C460.956 367.984 460.709 383.528 464.854 399.793C456.589 406.086 447.383 411.691 437.235 416.607C427.277 407.672 418.039 397.992 409.521 387.566C408.327 386.106 408.156 385.064 408.194 383.282C408.459 363.567 408.403 343.581 408.023 323.323Z" fill="#10DAB7"/>
<path d="M616.979 323.077C616.613 342.703 616.638 362.013 617.055 381.007C617.15 385.367 615.349 387.812 612.468 390.655C601.081 402.017 589.72 413.403 578.384 424.815C577 426.217 575.048 429.174 572.963 430.956C572.486 431.372 571.869 431.607 571.219 431.62L545.363 431.771C545.247 431.775 545.132 431.746 545.032 431.686C544.933 431.627 544.852 431.54 544.8 431.436C544.748 431.333 544.727 431.216 544.74 431.101C544.752 430.986 544.797 430.876 544.87 430.786C556.888 415.33 562.739 397.834 562.423 378.296C562.29 370.41 560.319 361.406 559.087 352.838C584.431 352.952 600.563 340.782 616.979 323.077Z" fill="#10DAB7"/>
<path d="M672.956 354.184L673.335 381.424C665.904 381.664 658.486 381.948 651.08 382.277C649.627 382.34 648.584 382.106 647.953 381.575C647.093 380.855 647.055 380.103 647.839 379.32L672.956 354.184Z" fill="#10DAB7"/>
<path d="M669.696 398.769C661.633 409.713 654.613 420.967 648.635 432.53C647.422 434.893 644.914 436.081 641.11 436.094C625.465 436.169 608.954 437.136 591.577 438.994L630.532 400.039C631.335 399.237 632.419 398.787 633.546 398.788L669.696 398.769Z" fill="#10DAB7"/>
<path d="M464.855 399.792C467.711 410.572 472.943 420.619 480.551 429.933C480.688 430.103 480.77 430.312 480.784 430.53C480.798 430.749 480.745 430.966 480.631 431.153C480.516 431.34 480.347 431.487 480.146 431.574C479.945 431.661 479.723 431.684 479.508 431.639C471.534 429.983 463.661 430.28 455.889 432.53C455.325 432.697 454.726 432.71 454.153 432.567C453.58 432.424 453.053 432.129 452.628 431.715L437.236 416.607C447.384 411.691 456.59 406.086 464.855 399.792Z" fill="#1985AA"/>
<path d="M421.616 426.445L433.634 439.695C433.742 439.814 433.822 439.955 433.87 440.108C433.917 440.262 433.931 440.423 433.909 440.582C433.887 440.741 433.831 440.894 433.744 441.028C433.658 441.163 433.542 441.278 433.407 441.363C422.475 448.504 413.534 457.609 406.584 468.679C406.438 468.91 406.247 469.109 406.022 469.264C405.797 469.419 405.543 469.526 405.275 469.58C405.007 469.633 404.731 469.631 404.464 469.574C404.197 469.517 403.944 469.406 403.721 469.248C398.489 465.507 392.783 462.531 386.604 460.32C378.054 457.287 368.444 457.362 359.231 457.533L369.884 457.23C370.529 457.204 371.003 456.907 371.306 456.339C377.524 444.586 386.263 437.149 397.523 434.027C409.288 430.767 417.319 428.239 421.616 426.445Z" fill="#1985AA"/>
<path d="M490.635 468.66C482.623 470.657 474.51 472.71 466.296 474.821C456.742 477.266 452.609 480.204 448.268 488.545C444.009 496.747 441.052 504.38 439.397 511.444C439.245 512.101 438.973 512.525 438.582 512.714C438.127 512.955 437.571 513.018 436.914 512.904C433.539 512.259 430.481 510.914 427.739 508.866C427.587 486.479 440.345 465.987 462.959 460.68C474.535 457.963 484.506 459.656 492.872 465.76C493.441 466.164 493.662 466.714 493.536 467.409C493.296 468.875 492.329 469.292 490.635 468.66Z" fill="#F9FEFF"/>
<path d="M562.821 461.608C563.25 465.728 562.909 469.437 561.797 472.736C561.613 473.296 561.266 473.789 560.799 474.15C560.333 474.512 559.77 474.725 559.181 474.764C556.072 474.992 552.509 474.669 549.627 475.333C533.969 478.915 526.33 496.526 522.482 511.065L511.07 509.492C511.506 481.816 532.472 453.514 562.821 461.608Z" fill="#F9FEFF"/>
<path d="M562.821 461.609C581.79 466.967 593.031 478.303 596.544 495.616C596.62 503.502 595.931 509.189 594.478 512.677C587.097 530.268 573.739 539.209 554.404 539.5C544.661 539.651 536.282 536.069 529.268 528.752C523.872 523.115 521.61 517.22 522.482 511.065C526.33 496.526 533.969 478.916 549.627 475.333C552.508 474.669 556.072 474.992 559.181 474.764C559.77 474.726 560.333 474.512 560.799 474.15C561.266 473.789 561.613 473.296 561.797 472.736C562.909 469.438 563.25 465.728 562.821 461.609Z" fill="#FF4D4C"/>
<path d="M490.635 468.66C491.609 470.341 491.924 471.491 491.583 472.11C484.304 484.824 480.544 498.118 480.304 511.994C479.723 519.084 480.058 525.801 481.309 532.145C481.878 535.039 480.968 536.966 478.579 537.926C470.706 541.111 462.833 540.492 454.96 536.069C446.031 531.064 439.321 526.515 439.567 516.373C439.631 513.82 438.746 512.664 436.914 512.904C437.571 513.018 438.127 512.955 438.582 512.715C438.973 512.525 439.245 512.102 439.397 511.444C441.052 504.38 444.01 496.747 448.268 488.545C452.609 480.205 456.742 477.266 466.296 474.821C474.51 472.711 482.623 470.657 490.635 468.66Z" fill="#FF4D4C"/>
<path d="M596.544 495.616L597.302 503.938C597.328 504.19 597.448 504.241 597.662 504.089L598.25 503.691C598.528 503.489 598.686 503.565 598.724 503.919C604.676 555.044 539.05 576.919 515.563 529.813C512.227 523.128 510.729 516.354 511.07 509.492L522.482 511.065C521.61 517.22 523.872 523.115 529.268 528.751C536.282 536.069 544.661 539.651 554.404 539.5C573.74 539.209 587.098 530.268 594.478 512.677C595.931 509.189 596.62 503.502 596.544 495.616Z" fill="#944862"/>
<path d="M427.739 508.866C430.481 510.914 433.539 512.26 436.913 512.904C438.746 512.664 439.63 513.82 439.567 516.373C439.321 526.515 446.031 531.064 454.96 536.069C462.833 540.492 470.706 541.111 478.579 537.926C480.968 536.966 481.878 535.039 481.309 532.145C480.058 525.801 479.723 519.084 480.304 511.994C480.961 527.298 485.624 541.402 494.294 554.304C494.761 554.987 494.591 555.423 493.782 555.612C471.584 560.674 448.515 555.252 435.245 535.614C430.051 527.943 427.549 519.027 427.739 508.866Z" fill="#944862"/>
<path d="M429.805 591.364C425.369 589.468 418.911 587.649 410.432 585.905C399.841 583.731 391.513 577.551 385.447 567.365C394.344 564.737 402.129 559.947 408.801 552.997C408.924 552.87 409.072 552.77 409.236 552.703C409.4 552.637 409.576 552.605 409.752 552.611C409.929 552.616 410.102 552.658 410.262 552.734C410.421 552.811 410.563 552.919 410.678 553.054C420.175 564.219 429.615 570.455 442.069 578.569C442.179 578.641 442.271 578.738 442.339 578.851C442.406 578.965 442.446 579.092 442.457 579.223C442.468 579.355 442.449 579.487 442.402 579.61C442.354 579.733 442.28 579.844 442.183 579.933L429.805 591.364Z" fill="#1985AA"/>
<path d="M638.21 567.327C634.456 572.313 631.025 578.758 627.386 582.701C621.168 589.399 613.042 593.847 603.008 596.046L585.436 579.744C585.252 579.572 585.111 579.357 585.027 579.12C584.943 578.882 584.918 578.628 584.954 578.38C584.989 578.132 585.084 577.897 585.231 577.695C585.378 577.494 585.572 577.331 585.796 577.223C596.98 571.725 606.528 564.168 614.439 554.551C614.894 553.995 615.387 553.951 615.917 554.418C622.628 560.143 630.059 564.446 638.21 567.327Z" fill="#1985AA"/>
<path d="M728.082 645.787C703.609 641.143 686.302 650.413 666.019 663.625L646.229 643.323C644.776 641.844 645.085 641.143 647.158 641.219L689.734 642.811C690.637 642.845 691.538 642.693 692.381 642.365C693.224 642.037 693.991 641.54 694.634 640.904C695.277 640.268 695.783 639.507 696.12 638.668C696.458 637.828 696.62 636.929 696.596 636.025L696.539 633.978C696.4 628.126 693.405 625.214 687.553 625.239L634.192 625.542C633.293 625.549 632.403 625.372 631.576 625.023C630.748 624.675 630 624.161 629.377 623.514L603.009 596.046C613.043 593.847 621.169 589.399 627.386 582.701C631.026 578.758 634.457 572.313 638.21 567.328C652.428 571.624 666.632 571.725 680.824 567.631C681.494 567.429 681.797 567.675 681.734 568.37C679.497 592.23 687.111 611.211 704.576 625.315C712.67 631.873 722.907 635.835 733.029 639.21C733.157 639.251 733.273 639.322 733.368 639.416C733.463 639.51 733.536 639.625 733.58 639.751C733.624 639.878 733.638 640.013 733.622 640.145C733.605 640.278 733.558 640.406 733.484 640.518C731.917 642.843 730.117 644.599 728.082 645.787Z" fill="#10DAB7"/>
<path d="M385.447 567.365C391.513 577.551 399.841 583.731 410.431 585.905C418.911 587.649 425.369 589.468 429.805 591.364C419.379 601.765 409.243 611.691 399.399 621.144C396.568 623.874 393.421 625.245 389.959 625.258C374.49 625.27 359.035 625.201 343.592 625.049C335.535 624.973 330.247 626.357 327.422 634.015C327.22 634.571 327.239 635.121 327.479 635.665C329.248 639.747 332.06 641.8 335.914 641.825C350.283 641.939 364.658 641.876 379.04 641.636C380.43 641.611 381.302 641.914 381.656 642.546C382.161 643.418 382.041 644.195 381.296 644.877C361.013 663.619 341.172 682.569 321.773 701.727C318.02 705.442 317.698 709.044 316.826 713.935C316.004 713.733 315.429 713.808 315.101 714.162C315.341 706.858 315.574 699.553 315.802 692.249C316.295 675.643 311.082 660.598 300.163 647.114C307.442 644.896 326.133 634.414 320.977 624.935C328.774 619.185 334.31 612.178 337.583 603.913C341.854 593.121 343.364 581.658 342.113 569.526C342.094 569.339 342.119 569.149 342.187 568.973C342.256 568.798 342.364 568.64 342.505 568.515C342.645 568.389 342.814 568.298 342.996 568.25C343.178 568.202 343.37 568.197 343.554 568.237C357.354 571.346 371.318 571.056 385.447 567.365Z" fill="#10DAB7"/>
<path d="M596.374 618.775L555.693 616.67C550.967 606.245 544.275 596.255 535.619 586.701C534.785 585.778 534.987 585.374 536.225 585.487L563.958 588.028C564.324 588.052 564.668 588.207 564.925 588.464L596.374 618.775Z" fill="#1985AA"/>
<path d="M470.2 614.263C460.381 616.651 445.273 615.362 438.221 606.775L459.964 587.099C460.476 586.635 461.147 586.384 461.841 586.397L485.915 586.928C486.091 586.931 486.262 586.98 486.412 587.072C486.562 587.163 486.685 587.292 486.768 587.447C486.851 587.602 486.891 587.776 486.885 587.951C486.878 588.126 486.825 588.297 486.73 588.445L470.2 614.263Z" fill="#1985AA"/>
<path d="M438.222 606.775C445.273 615.362 460.381 616.651 470.201 614.263C459.939 637.251 459.598 660.213 469.177 683.15C469.259 683.347 469.291 683.56 469.271 683.772C469.251 683.984 469.18 684.187 469.064 684.364C468.947 684.54 468.789 684.685 468.604 684.784C468.419 684.883 468.212 684.934 468.002 684.932C434.828 684.875 406.11 711.281 399.74 743.127C399.702 743.319 399.611 743.496 399.478 743.64C399.345 743.783 399.175 743.887 398.987 743.94C398.799 743.993 398.6 743.993 398.411 743.94C398.223 743.887 398.054 743.783 397.921 743.639C378.263 722.105 356.369 720.854 329.034 722.313C328.604 721.088 328.035 720.702 327.328 721.157C329.324 720.374 330.658 719.641 331.327 718.958C346.657 703.048 362.359 687.516 378.434 672.364C383.173 667.909 387.229 663.037 391.305 658.166C392.076 657.256 392.461 657.395 392.461 658.583C392.613 672.977 392.569 687.522 392.329 702.22C392.196 709.48 400.707 713.252 405.503 707.793C407.374 705.657 408.283 702.378 408.233 697.955C408.043 678.493 408.391 659.202 409.275 640.081C409.362 638.15 410.142 636.312 411.474 634.906L438.222 606.775Z" fill="#10DAB7"/>
<path d="M596.373 618.775C602.262 623.906 608.341 629.738 614.609 636.271C616.403 638.154 617.294 640.391 617.282 642.982C617.193 662.254 617.155 681.526 617.168 700.798C617.168 715.413 635.138 714.959 633.641 700.419C632.977 694.05 633.167 688.079 633.262 681.728C633.356 675.435 632.541 666.279 632.655 658.545C632.656 658.398 632.7 658.254 632.782 658.133C632.865 658.011 632.982 657.917 633.118 657.862C633.254 657.807 633.404 657.794 633.548 657.824C633.691 657.855 633.823 657.928 633.925 658.033L653.109 677.596L636.295 697.272C635.659 698.015 635.205 698.893 634.968 699.837C634.731 700.782 634.718 701.766 634.93 702.713C635.258 704.166 635.246 705.967 634.892 708.115C633.59 715.963 632.421 723.824 631.385 731.697C631.309 732.329 631.094 732.91 630.741 733.441C630.159 734.338 629.906 735.292 629.982 736.303C630.005 736.587 629.951 736.871 629.828 737.128C629.705 737.384 629.516 737.603 629.281 737.763L627.196 739.204C627.061 739.298 626.908 739.361 626.745 739.387C626.583 739.413 626.417 739.402 626.26 739.355C626.103 739.307 625.959 739.225 625.839 739.113C625.718 739.001 625.625 738.864 625.565 738.711L624.087 734.995C614.305 709.101 596.221 692.799 569.834 686.088C566.157 685.14 560.546 685.008 555.977 683.851C555.219 683.662 554.998 683.213 555.314 682.506C564.413 661.755 564.539 639.81 555.693 616.671L596.373 618.775Z" fill="#10DAB7"/>
<path d="M320.977 624.935C326.133 634.413 307.442 644.896 300.163 647.114C299.051 644.814 296.985 642.849 293.964 641.219C293.839 641.151 293.735 641.049 293.666 640.924C293.597 640.799 293.566 640.657 293.576 640.515C293.586 640.373 293.637 640.236 293.723 640.122C293.808 640.009 293.925 639.922 294.059 639.873C303.563 636.448 312.535 631.469 320.977 624.935Z" fill="#F9FEFF"/>
<path d="M728.081 645.787C715.76 660.118 708.253 674.184 708.916 693.69C709.018 696.369 709.018 702.542 708.916 712.21C709.232 713.84 708.923 714.44 707.988 714.011C708.657 710.637 708.266 708.191 706.812 706.675C696.519 696.059 686.87 684.761 676.426 674.316C672.912 670.803 669.443 667.239 666.019 663.625C686.302 650.413 703.609 641.143 728.081 645.787Z" fill="#1985AA"/>
<path d="M653.109 677.596C659.744 682.771 666.132 691.017 670.283 695.358C678.036 703.528 685.714 713.006 694.168 720.342C695.786 721.745 695.533 722.307 693.41 722.029C670.871 719.053 641.678 722.257 627.821 742.938C627.684 743.146 627.488 743.309 627.258 743.405C627.028 743.501 626.775 743.526 626.53 743.477C626.286 743.428 626.062 743.308 625.887 743.13C625.711 742.953 625.593 742.728 625.546 742.483L624.087 734.995L625.565 738.711C625.625 738.864 625.718 739.001 625.839 739.113C625.959 739.224 626.103 739.307 626.26 739.355C626.417 739.402 626.583 739.413 626.745 739.387C626.908 739.361 627.061 739.298 627.196 739.203L629.281 737.763C629.516 737.603 629.705 737.384 629.828 737.127C629.951 736.871 630.005 736.587 629.982 736.303C629.906 735.292 630.159 734.338 630.741 733.441C631.094 732.91 631.309 732.329 631.385 731.697C632.421 723.824 633.59 715.963 634.892 708.115C635.246 705.967 635.258 704.166 634.93 702.713C634.718 701.766 634.731 700.781 634.968 699.837C635.205 698.893 635.659 698.015 636.295 697.272L653.109 677.596Z" fill="#1985AA"/>
<path d="M708.916 712.21L711.874 725.972C712.013 726.642 711.76 726.869 711.115 726.654L703.23 723.944C702.969 723.852 702.738 723.692 702.56 723.48C702.383 723.269 702.267 723.013 702.224 722.742C702.181 722.471 702.213 722.194 702.317 721.941C702.42 721.689 702.592 721.47 702.812 721.309C705.226 719.527 706.951 717.094 707.988 714.011C708.923 714.44 709.232 713.84 708.916 712.21Z" fill="#32D8FF"/>
<path d="M316.826 713.935C319.278 718.737 322.778 721.144 327.328 721.157C328.035 720.702 328.604 721.088 329.034 722.313L312.864 726.939C312.75 726.974 312.629 726.978 312.513 726.95C312.396 726.922 312.29 726.863 312.205 726.779C312.119 726.696 312.058 726.591 312.027 726.475C311.996 726.36 311.998 726.238 312.03 726.124L315.101 714.162C315.43 713.808 316.005 713.733 316.826 713.935Z" fill="#F9FEFF"/>
<path d="M458.992 478.833L456.674 480.045C453.417 481.747 452.157 485.767 453.86 489.024L454.422 490.099C456.124 493.355 460.145 494.615 463.401 492.913L465.719 491.701C468.976 489.998 470.236 485.978 468.533 482.722L467.971 481.647C466.269 478.39 462.249 477.13 458.992 478.833Z" fill="#F9FEFF"/>
<path d="M552.843 491.754C556.753 489.931 558.516 485.438 556.781 481.719C555.047 478 550.472 476.462 546.563 478.285C542.653 480.108 540.89 484.601 542.625 488.32C544.359 492.04 548.934 493.577 552.843 491.754Z" fill="#F9FEFF"/>
</svg>
