<svg width="512" height="512" viewBox="0 0 512 512" fill="none" xmlns="http://www.w3.org/2000/svg">
<rect width="512" height="512" fill="white"/>
<path fill-rule="evenodd" clip-rule="evenodd" d="M134.454 244.239C133.273 261.618 138.1 275.886 153.037 285.429C153.267 285.577 153.26 285.715 153.015 285.841C142.258 291.069 135.291 303.755 133.819 315.047C133.537 317.225 133.44 320.665 133.529 325.37C133.618 330.386 135.157 331.813 139.393 333.752C142.848 335.328 146.397 336.134 150.038 336.171C150.633 336.179 150.7 336.372 150.239 336.751L143.974 341.856C143.42 342.31 142.721 342.555 142.001 342.548C132.667 342.458 123.315 342.41 113.943 342.403C111.863 342.403 110.309 342.718 109.284 343.35C105.85 345.446 105.572 350.93 108.581 353.528C109.637 354.442 111.183 354.899 113.219 354.899C208.447 354.877 303.679 354.932 398.914 355.066C408.824 355.077 407.899 342.068 398.613 342.38C391.91 342.603 385.206 342.748 378.503 342.815C375.626 342.85 373.09 340.768 370.828 338.911L370.828 338.91C370.172 338.372 369.539 337.852 368.928 337.409C368.11 336.822 368.203 336.506 369.206 336.461C374.542 336.216 379.871 335.031 385.192 332.905C389.416 331.2 390.33 329.048 390.342 324.422C390.386 308.047 385.927 295.205 372.06 286.332C371.562 286.012 371.544 285.666 372.004 285.295C380.982 277.967 386.544 269.477 388.692 259.823C389.58 255.801 389.478 251 389.381 246.475V246.474L389.381 246.469C389.365 245.717 389.349 244.972 389.338 244.239C389.222 236.085 379.862 234.449 372.018 233.078C371.573 233.001 371.133 232.924 370.7 232.847C360.411 231.018 348.171 234.351 339.933 241.597C339.525 241.954 339.175 241.909 338.885 241.463C336.478 237.8 333.676 234.478 330.48 231.498C330.392 231.417 330.321 231.319 330.273 231.21C330.224 231.1 330.199 230.982 330.199 230.862C330.199 230.743 330.224 230.624 330.273 230.515C330.321 230.406 330.392 230.307 330.48 230.227C345.968 216.107 361.448 201.857 376.92 187.477C377.636 186.811 378.364 186.156 379.084 185.508L379.084 185.508L379.085 185.507C385.561 179.683 391.446 174.391 382.438 165.885C379.139 162.763 375.884 159.601 372.673 156.398C369.686 153.422 366.141 154.592 363.142 157.19C353.682 165.402 344.277 173.676 334.928 182.015C332.03 184.593 329.329 187.213 326.824 189.874C326.319 190.409 326.073 190.308 326.088 189.573C326.096 189.094 326.122 188.536 326.149 187.926C326.311 184.321 326.555 178.894 323.848 177.121C314.027 170.689 302.958 169.741 290.473 170.511C290.079 170.533 289.867 170.347 289.837 169.953C289.421 165.427 288.652 161.741 287.53 158.895C284.297 150.724 269.315 130.001 257.811 136.11C245.616 142.583 238.359 153.009 236.04 167.389C235.877 168.4 235.854 169.37 235.973 170.299C235.987 170.395 235.978 170.492 235.946 170.584C235.915 170.676 235.861 170.759 235.79 170.826C235.72 170.893 235.634 170.943 235.54 170.972C235.445 171 235.346 171.007 235.249 170.99C225.521 169.407 216.131 170.202 207.079 173.376C203.757 174.535 199.165 176.965 198.741 180.421C198.057 186.054 198.607 191.483 200.391 196.707C200.822 197.963 200.54 198.149 199.544 197.264C195.332 193.52 191.04 189.57 186.783 185.652L186.783 185.651C181.687 180.961 176.641 176.318 171.843 172.127C165.764 166.821 159.677 161.526 153.583 156.242C149.838 152.998 147.129 154.548 143.919 157.658C141.191 160.296 138.434 162.901 135.647 165.472C127.342 173.164 129.461 176.976 136.952 183.988C152.491 198.546 168.242 212.874 184.205 226.972C184.956 227.637 185.732 228.448 186.52 229.271L186.52 229.272C187.673 230.477 188.849 231.706 190.002 232.534C190.99 233.24 191.105 234.069 190.347 235.02L186.145 240.282C185.357 241.27 184.454 241.393 183.436 240.65C172.5 232.657 157.44 230.651 144.61 234.251C139.248 235.756 134.833 238.532 134.454 244.239ZM229.809 324.556C224.607 329.416 218.769 333.303 212.296 336.216L205.775 342.235C205.478 342.518 205.534 342.655 205.942 342.648L248.548 342.246C250.673 342.224 251.747 341.154 251.769 339.036L251.992 322.549C251.999 321.858 251.814 321.223 251.435 320.643C248.9 316.749 245.939 313.215 242.55 310.042C242.26 309.774 241.937 309.722 241.58 309.886C241.201 310.064 240.86 310.361 240.555 310.778C240.696 311.699 241.049 312.245 241.614 312.416C241.74 312.455 241.856 312.525 241.949 312.619C242.042 312.714 242.11 312.829 242.147 312.956C242.183 313.082 242.187 313.216 242.158 313.344C242.13 313.471 242.069 313.589 241.982 313.687C240.012 315.954 237.939 317.93 235.761 319.617C233.205 321.594 231.221 323.24 229.809 324.556ZM265.18 316.296L269.07 310.833C269.14 310.736 269.23 310.654 269.334 310.593C269.438 310.532 269.552 310.494 269.671 310.48C269.79 310.466 269.91 310.478 270.023 310.514C270.137 310.55 270.241 310.609 270.33 310.688C273.015 313.126 275.702 315.613 278.402 318.11C287.011 326.075 295.749 334.159 304.964 341.176C306.235 342.143 306.072 342.611 304.474 342.581C294.56 342.395 284.308 342.362 273.718 342.481C271.586 342.51 269.468 342.354 267.364 342.012C267.186 341.984 267.014 341.919 266.863 341.821C266.711 341.723 266.582 341.595 266.484 341.444C265.904 340.589 265.581 339.627 265.514 338.557C265.038 331.155 264.89 323.846 265.068 316.63C265.068 316.514 265.107 316.397 265.18 316.296ZM241.613 312.416C241.049 312.245 240.696 311.699 240.554 310.778C236.787 313.817 233.149 316.994 229.641 320.309C227.813 322.033 224.863 324.615 220.79 328.056C217.884 330.508 215.053 333.228 212.296 336.216C218.769 333.303 224.606 329.416 229.808 324.556C231.22 323.24 233.205 321.594 235.761 319.617C237.938 317.93 240.012 315.954 241.981 313.687C242.068 313.589 242.129 313.471 242.158 313.344C242.187 313.216 242.183 313.083 242.146 312.956C242.109 312.829 242.041 312.714 241.948 312.619C241.855 312.525 241.74 312.455 241.613 312.416Z" fill="#01010A"/>
<path d="M402.525 363.204C398.768 363.192 394.833 362.769 391.3 362.825C370.198 363.181 348.828 362.813 328.061 362.869C249.338 363.099 183.892 363.107 131.723 362.891C122.523 362.854 114.887 363.033 108.815 363.426" stroke="#7D5432" stroke-width="2"/>
<path d="M402.525 363.204C398.768 363.192 394.833 362.769 391.3 362.824C370.198 363.181 348.828 362.813 328.061 362.869C249.338 363.099 183.892 363.107 131.723 362.891C122.523 362.854 114.887 363.033 108.815 363.426L111.791 360.071C112.051 359.781 112.371 359.584 112.75 359.48C113.917 359.153 115.321 358.982 116.964 358.967C161.702 358.588 201.505 358.588 236.374 358.967C244.162 359.057 251.59 359.075 258.658 359.023C303.069 358.719 347.476 358.689 391.879 358.934C395.703 358.945 401.031 359.313 402.525 363.204Z" fill="#F9A65A"/>
<path d="M402.526 363.204C407.23 366.436 407.13 372.746 402.392 375.622C401.359 376.246 399.858 376.558 397.888 376.558C304.162 376.328 210.435 376.294 116.708 376.458C111.413 376.469 108.124 376.803 106.419 371.464C105.416 368.35 106.214 365.671 108.815 363.426C114.887 363.033 122.523 362.854 131.723 362.891C183.893 363.107 249.339 363.099 328.061 362.869C348.829 362.813 370.198 363.181 391.3 362.825C394.834 362.769 398.769 363.192 402.526 363.204Z" fill="#01010A"/>
<path d="M278.199 174.635C277.776 174.799 277.449 174.899 277.218 174.936C276.995 174.981 276.847 174.799 276.772 174.39C275.219 166.572 271.221 160.315 264.778 155.618C259.572 151.839 251.39 164.803 249.183 168.616C248.952 169.01 248.778 169.474 248.659 170.009C248.257 171.852 247.845 172.201 247.421 171.057" stroke="#FFA3AD" stroke-width="2"/>
<path d="M286.047 185.905C289.503 186.329 293.01 185.656 296.57 183.887C296.927 183.713 297.325 183.643 297.718 183.687C300.943 184.066 303.804 183.542 306.302 182.115" stroke="#FFA3AD" stroke-width="2"/>
<path d="M308.955 202.437C298.893 202.526 289.191 203.184 279.849 204.41C277.189 204.752 275.167 205.721 273.785 207.319" stroke="#F03659" stroke-width="2"/>
<path d="M253.285 238.743L248.447 219.982C248.365 219.648 248.176 219.388 247.878 219.202L245.961 217.998" stroke="#FF4C67" stroke-width="2"/>
<path d="M248.247 208.066C247.79 204.51 245.594 203.529 242.138 203.663C238.08 203.804 234.026 203.685 229.976 203.306C227.509 203.068 223.447 203.778 217.792 205.435" stroke="#F03659" stroke-width="2"/>
<path d="M216.499 183.207C222.124 183.594 227.445 184.255 232.461 185.192C234.847 185.645 237.441 186.529 240.242 187.845" stroke="#FFA3AD" stroke-width="2"/>
<path d="M371.335 170.288C369.99 171.187 368.99 172.265 368.336 173.52" stroke="#FFB889" stroke-width="2"/>
<path d="M159.893 182.728L156.85 179.663" stroke="#FCD3AC" stroke-width="2"/>
<path d="M359.864 180.153C359.136 182.078 358.029 183.148 356.542 183.364" stroke="#E79594" stroke-width="2"/>
<path d="M348.439 189.45L344.214 193.24" stroke="#FFB889" stroke-width="2"/>
<path d="M182.678 203.986L179.412 200.597" stroke="#FFB889" stroke-width="2"/>
<path d="M336.801 201.656L331.918 204.577" stroke="#FFB889" stroke-width="2"/>
<path d="M207.123 224.787L191.852 210.675" stroke="#FFB889" stroke-width="2"/>
<path d="M323.569 211.354C316.427 217.753 309.185 224.077 301.843 230.327C294.14 236.882 287.507 243.37 280.607 250.214" stroke="#FFB889" stroke-width="2"/>
<path d="M233.61 248.007L215.573 231.375" stroke="#FFB889" stroke-width="2"/>
<path d="M339.944 261.83C341.193 260.789 343.333 258.619 346.365 255.32C350.445 250.872 361.046 244.317 367.278 249.077C370.689 251.678 372.223 255.071 371.881 259.255C371.852 259.589 371.997 259.816 372.316 259.935C372.442 259.979 372.58 259.979 372.729 259.935C372.937 259.875 373.137 259.686 373.331 259.366C374.267 257.843 375.504 256.642 377.043 255.765" stroke="#FFA3AD" stroke-width="2"/>
<path d="M374.98 307.378C374.141 307.348 373.286 306.783 372.417 305.683C368.326 300.511 360.578 295.606 355.395 293.811C351.374 292.414 347.168 292.797 342.776 294.96C339.108 296.765 339.811 299.764 340.301 303.588C340.323 303.744 340.286 303.885 340.19 304.011C340.1 304.13 339.985 304.219 339.844 304.279C339.666 304.346 339.547 304.286 339.487 304.1C339.339 303.655 338.945 303.331 338.306 303.131" stroke="#F03659" stroke-width="2"/>
<path d="M324.638 288.605C324.638 287.766 324.56 287.435 324.404 287.613" stroke="#F03659" stroke-width="2"/>
<path d="M327.136 301.715C322.083 304.665 316.624 306.501 310.761 307.222C309.794 307.34 309.308 307.883 309.3 308.849C309.241 314.505 310.266 320.127 312.377 325.715C313.224 327.967 313.536 330.007 313.871 332.27" stroke="#F03659" stroke-width="2"/>
<path d="M309.088 285.128C304.361 284.771 299.639 284.266 294.92 283.612C292.2 283.233 290.19 282.709 288.889 282.04C286.422 280.776 283.427 278.673 279.904 275.73" stroke="#F03659" stroke-width="2"/>
<path d="M209.699 274.928C209.654 275.983 209.788 276.369 210.1 276.087C215.005 271.598 220.385 268.105 226.242 265.608" stroke="#FF888F" stroke-width="2"/>
<path d="M187.794 291.56L178.854 291.147C178.623 291.136 178.392 291.179 178.181 291.271C177.97 291.363 177.785 291.502 177.644 291.675C177.503 291.848 177.409 292.051 177.371 292.264C177.334 292.477 177.353 292.695 177.427 292.897C177.553 293.247 177.312 293.54 176.703 293.778C176.413 293.882 176.064 293.919 175.655 293.889C170.653 293.51 166.692 294.19 163.772 295.929C158.923 298.816 153.661 301.202 150.127 305.817C150.079 305.883 150.012 305.933 149.935 305.96C149.858 305.987 149.774 305.99 149.695 305.968C149.617 305.946 149.546 305.901 149.494 305.838C149.442 305.775 149.41 305.698 149.403 305.616C149.395 305.557 149.347 305.416 149.258 305.193" stroke="#F03659" stroke-width="2"/>
<path d="M150.228 265.965L150.339 261.384" stroke="#FF888F" stroke-width="2"/>
<path d="M150.339 261.384C150.975 259.188 151.12 256.891 152.134 254.963C157.853 244.172 166.893 246.758 174.574 253.068C177.665 255.609 179.508 257.486 180.103 258.697C181.344 261.202 183.038 263.379 185.186 265.23" stroke="#FFA3AD" stroke-width="2"/>
<path d="M150.339 261.384L147.675 258.385" stroke="#FFE4E0" stroke-width="2"/>
<path d="M246.875 257.449L242.026 254.751" stroke="#FFB889" stroke-width="2"/>
<path d="M272.492 256.68L269.214 260.726" stroke="#FFB889" stroke-width="2"/>
<path d="M260.653 267.18L169.022 343.116" stroke="#FFB889" stroke-width="2"/>
<path d="M349.654 342.949L335.63 331.612" stroke="#FFB69C" stroke-width="2"/>
<path d="M278.199 174.635C277.776 174.799 277.449 174.899 277.218 174.936C276.995 174.981 276.847 174.799 276.772 174.39C275.219 166.572 271.221 160.315 264.778 155.618C259.572 151.839 251.39 164.803 249.183 168.616C248.952 169.01 248.778 169.474 248.659 170.009C248.257 171.852 247.845 172.201 247.421 171.057C247.834 168.003 248.012 164.892 249.272 162.161C251.732 156.818 255.578 152.188 260.809 148.272C263.206 146.477 264.009 147.659 266.049 149.375C273.844 155.952 277.894 164.372 278.199 174.635Z" fill="#FFFFFE"/>
<path d="M278.199 174.635C277.025 179.778 275.323 184.876 273.093 189.929C271.265 194.087 266.661 198.68 267.598 203.284C267.726 203.926 268.086 204.5 268.61 204.896C269.133 205.292 269.784 205.484 270.44 205.435C273.658 205.19 276.248 203.548 278.21 200.508C281.346 195.655 283.958 190.788 286.047 185.905C289.502 186.329 293.01 185.656 296.57 183.888C296.927 183.713 297.325 183.643 297.718 183.687C300.943 184.066 303.804 183.542 306.301 182.115C308.3 182.286 310.248 183.081 312.143 184.501C315.732 187.198 317.493 191.602 315.141 195.637C313.573 198.327 311.511 200.594 308.954 202.437C298.892 202.526 289.19 203.184 279.849 204.41C277.188 204.752 275.167 205.721 273.785 207.319C272.752 207.394 271.707 207.394 270.652 207.319C267.174 207.074 266.427 211.945 267.877 213.796C268.486 214.576 269.753 215.241 271.678 215.791C277.623 217.493 283.609 218.968 289.636 220.217C289.686 220.226 289.732 220.249 289.769 220.284C289.807 220.318 289.833 220.363 289.846 220.412C289.859 220.461 289.857 220.513 289.842 220.561C289.826 220.609 289.798 220.652 289.759 220.685L271.901 236.726C271.67 236.927 271.514 236.882 271.432 236.592C270.686 234.039 268.969 232.735 268.534 230.272C267.895 226.6 267.598 222.903 267.642 219.18C267.732 212.157 259.014 211.366 258.424 218.645C258.056 223.07 258.869 228.689 256.974 232.624C255.971 234.69 254.741 236.73 253.285 238.744L248.447 219.983C248.365 219.648 248.175 219.388 247.878 219.202L245.961 217.998C249.194 217.04 259.014 215.68 258.758 211.042C258.479 206.037 251.724 206.784 248.246 208.066C247.789 204.51 245.593 203.529 242.137 203.663C238.08 203.804 234.026 203.685 229.976 203.306C227.508 203.068 223.447 203.778 217.791 205.435C213.11 200.538 210.706 194.897 210.579 188.514C210.549 186.611 211.151 185.3 212.385 184.579C213.203 184.096 214.574 183.639 216.498 183.208C222.124 183.594 227.445 184.255 232.461 185.192C234.847 185.645 237.441 186.53 240.242 187.845C243.051 193.515 245.411 197.792 247.321 200.675C249.026 203.25 255.213 208.356 257.766 204.131C259.237 201.712 257.955 198.881 256.272 196.495C251.546 189.784 246.217 179.239 247.421 171.057C247.845 172.201 248.257 171.852 248.659 170.009C248.777 169.474 248.952 169.01 249.182 168.616C251.39 164.803 259.572 151.839 264.778 155.618C271.221 160.315 275.219 166.572 276.772 174.39C276.846 174.799 276.995 174.981 277.218 174.936C277.448 174.899 277.775 174.799 278.199 174.635Z" fill="#FF465C"/>
<path d="M146.817 174.423L146.561 174.891C146.278 175.397 145.918 175.456 145.479 175.07L144.13 173.866C143.974 173.725 143.875 173.53 143.852 173.321C143.829 173.111 143.885 172.9 144.008 172.729L147.151 168.359C147.45 167.944 147.89 167.652 148.388 167.537C148.887 167.422 149.41 167.492 149.86 167.735L150.518 168.092C151.543 168.649 151.714 169.403 151.031 170.355C150.087 171.648 148.946 172.729 147.608 173.598C147.274 173.806 147.01 174.081 146.817 174.423Z" fill="#FFFFFE"/>
<path d="M371.335 170.288C369.99 171.187 368.991 172.265 368.337 173.52L365.661 171.012C365.149 170.529 365.123 170.017 365.583 169.474L366.932 167.891C367.05 167.753 367.195 167.641 367.358 167.562C367.521 167.483 367.698 167.438 367.879 167.431C368.061 167.424 368.241 167.454 368.41 167.519C368.579 167.585 368.732 167.685 368.861 167.813L371.335 170.288Z" fill="#FFFFFE"/>
<path d="M371.335 170.288C374.111 171.414 374.668 174.97 371.87 176.564C371.536 176.757 371.209 176.735 370.889 176.497C369.782 175.657 368.931 174.665 368.336 173.52C368.99 172.265 369.99 171.187 371.335 170.288Z" fill="#FE7014"/>
<path d="M159.893 182.728L156.85 179.663L158.499 177.467C158.6 177.333 158.726 177.221 158.871 177.136C159.015 177.052 159.175 176.996 159.34 176.974C159.506 176.951 159.675 176.961 159.836 177.004C159.998 177.046 160.15 177.12 160.283 177.221L162.055 178.548C162.185 178.646 162.292 178.77 162.371 178.911C162.45 179.053 162.498 179.209 162.513 179.37C162.527 179.53 162.508 179.692 162.456 179.844C162.404 179.997 162.321 180.136 162.211 180.253L159.893 182.728Z" fill="#FFFFFE"/>
<path d="M359.864 180.153C359.136 182.078 358.029 183.148 356.543 183.364C355.517 182.858 354.733 182.171 354.19 181.301C354.012 181.011 353.953 180.699 354.012 180.365C354.636 176.92 358.805 176.597 359.864 180.153Z" fill="#FFFFFE"/>
<path d="M156.849 179.663L159.892 182.728C159.343 183.56 158.611 184.3 157.696 184.946C157.31 185.214 156.961 185.173 156.649 184.824L155.155 183.174C154.887 182.877 154.835 182.542 154.999 182.171C155.452 181.175 156.069 180.339 156.849 179.663Z" fill="#F9A65A"/>
<path d="M359.864 180.153C360.875 180.896 361.692 181.814 362.317 182.906C362.547 183.323 362.51 183.713 362.205 184.077L360.411 186.206C360.106 186.555 359.79 186.567 359.463 186.24L356.542 183.364C358.029 183.148 359.136 182.078 359.864 180.153Z" fill="#CE2A29"/>
<path d="M240.242 187.845C237.441 186.529 234.847 185.645 232.461 185.192C227.445 184.255 222.124 183.594 216.499 183.208C223.053 180.276 237.043 178.771 240.242 187.845Z" fill="#FFFFFE"/>
<path d="M306.302 182.115C303.804 183.542 300.943 184.066 297.718 183.687C297.325 183.643 296.927 183.712 296.57 183.887C293.01 185.656 289.503 186.329 286.047 185.905C290.654 180.948 297.406 179.685 306.302 182.115Z" fill="#FFFFFE"/>
<path d="M174.161 188.995C174.278 189.114 174.371 189.254 174.435 189.408C174.498 189.563 174.53 189.728 174.53 189.895C174.529 190.062 174.496 190.227 174.431 190.381C174.367 190.535 174.273 190.675 174.154 190.792L169.836 195.081C169.717 195.199 169.577 195.292 169.422 195.355C169.268 195.418 169.102 195.451 168.936 195.45C168.769 195.449 168.604 195.416 168.45 195.352C168.296 195.287 168.156 195.193 168.038 195.075L166.247 193.271C166.13 193.153 166.037 193.012 165.973 192.858C165.91 192.704 165.878 192.538 165.878 192.371C165.879 192.204 165.912 192.039 165.977 191.885C166.041 191.731 166.135 191.592 166.254 191.474L170.572 187.185C170.691 187.068 170.831 186.975 170.986 186.911C171.14 186.848 171.305 186.816 171.472 186.816C171.639 186.817 171.804 186.85 171.958 186.915C172.112 186.979 172.252 187.073 172.37 187.192L174.161 188.995Z" fill="#FFFFFE"/>
<path d="M348.438 189.45L344.213 193.24C343.009 193.299 342.166 192.724 341.683 191.512C341.534 191.148 341.612 190.84 341.917 190.587L345.618 187.477C345.744 187.372 345.892 187.294 346.051 187.25C346.211 187.206 346.378 187.196 346.543 187.221C347.48 187.377 348.111 188.12 348.438 189.45Z" fill="#FFFFFE"/>
<path d="M348.439 189.45L351.181 192.616C351.909 193.448 351.954 194.318 351.315 195.224L350.256 196.729C349.617 197.628 348.896 197.695 348.093 196.93L344.214 193.24L348.439 189.45Z" fill="#FE7014"/>
<path d="M182.678 203.986L179.412 200.597C179.835 199.275 180.482 198.201 181.351 197.376C181.494 197.24 181.678 197.158 181.873 197.141C182.068 197.125 182.261 197.176 182.421 197.287C183.759 198.178 184.896 199.275 185.832 200.575C185.935 200.717 185.988 200.889 185.984 201.064C185.98 201.239 185.919 201.408 185.81 201.545C185.06 202.474 184.015 203.288 182.678 203.986Z" fill="#FFFFFE"/>
<path d="M336.801 201.656L331.918 204.577C329.748 203.284 329.209 202.047 330.302 200.865C331.231 199.869 332.275 199.022 333.434 198.323C333.783 198.108 334.103 198.141 334.393 198.424C335.381 199.375 336.184 200.452 336.801 201.656Z" fill="#FFFFFE"/>
<path d="M179.411 200.597L182.677 203.986L180.76 206.216C180.403 206.624 180.02 206.65 179.612 206.294L177.204 204.176C176.795 203.811 176.777 203.432 177.148 203.039L179.411 200.597Z" fill="#FE7014"/>
<path d="M336.801 201.656L339.487 203.496C340.2 203.986 340.256 204.543 339.654 205.168L337.235 207.676C336.996 207.924 336.669 208.07 336.326 208.082C335.983 208.095 335.649 207.973 335.396 207.743L331.918 204.577L336.801 201.656Z" fill="#FE7014"/>
<path d="M308.955 202.437C306.391 204.986 303.853 207.07 301.341 208.69C299.476 209.894 297.354 210.57 294.976 210.719C287.76 211.172 280.697 210.039 273.785 207.319C275.167 205.721 277.189 204.752 279.849 204.41C289.191 203.184 298.893 202.526 308.955 202.437Z" fill="#E12555"/>
<path d="M248.247 208.066C240.198 211.934 230.522 211.611 222.452 208.813C220.534 208.144 218.981 207.018 217.792 205.435C223.447 203.778 227.509 203.068 229.976 203.306C234.026 203.685 238.08 203.804 242.138 203.663C245.594 203.529 247.79 204.51 248.247 208.066Z" fill="#E12555"/>
<path d="M207.123 224.787L191.852 210.675L194.148 207.576C194.22 207.477 194.312 207.393 194.417 207.33C194.522 207.267 194.639 207.226 194.76 207.208C194.882 207.19 195.005 207.197 195.124 207.228C195.243 207.258 195.354 207.312 195.452 207.386C200.788 211.488 205.678 216.07 210.122 221.131C210.412 221.458 210.393 221.77 210.066 222.067L207.123 224.787Z" fill="#FFFFFE"/>
<path d="M323.569 211.355C316.427 217.753 309.185 224.077 301.843 230.327C294.14 236.882 287.508 243.37 280.607 250.214C279.262 249.478 278.114 248.512 277.163 247.316C276.925 247.011 276.951 246.729 277.241 246.469C280.841 243.202 284.81 240.025 288.187 236.882C299.61 226.24 310.033 217.01 319.456 209.192C321.031 207.884 322.402 208.605 323.569 211.355Z" fill="#FFFFFE"/>
<path d="M191.852 210.675L207.124 224.787L204.27 227.451C203.958 227.741 203.634 227.756 203.3 227.496C198.246 223.631 193.557 219.369 189.232 214.71C189.141 214.613 189.072 214.498 189.029 214.372C188.987 214.246 188.972 214.112 188.985 213.98C188.999 213.848 189.041 213.72 189.109 213.606C189.176 213.491 189.268 213.392 189.377 213.316C190.232 212.7 191.057 211.819 191.852 210.675Z" fill="#FE7014"/>
<path d="M323.569 211.354L327.448 214.654C327.524 214.721 327.586 214.803 327.629 214.895C327.673 214.987 327.696 215.087 327.698 215.188C327.7 215.289 327.681 215.389 327.642 215.481C327.602 215.574 327.544 215.656 327.47 215.724L285.935 253.547C285.66 253.797 285.3 253.931 284.929 253.923C284.557 253.915 284.204 253.764 283.94 253.503L280.607 250.214C287.507 243.37 294.14 236.882 301.843 230.327C309.185 224.077 316.427 217.753 323.569 211.354Z" fill="#FE7014"/>
<path d="M245.961 217.998L247.878 219.202C248.175 219.388 248.365 219.648 248.447 219.982L253.285 238.743C253.084 239.39 252.72 240.07 252.192 240.783C251.887 241.192 251.549 241.226 251.178 240.884L233.152 224.252C233.075 224.18 233.015 224.093 232.977 223.995C232.938 223.897 232.922 223.792 232.93 223.687C232.937 223.582 232.968 223.48 233.02 223.389C233.072 223.298 233.144 223.219 233.231 223.159C236.983 220.566 241.227 218.845 245.961 217.998Z" fill="#FF5172"/>
<path d="M233.61 248.007L215.573 231.375L217.747 227.975C217.803 227.89 217.876 227.819 217.962 227.765C218.048 227.711 218.145 227.677 218.246 227.664C218.346 227.652 218.449 227.661 218.545 227.691C218.642 227.722 218.731 227.773 218.806 227.841L235.728 243.236C236.023 243.504 236.221 243.862 236.291 244.253C236.362 244.644 236.301 245.047 236.118 245.398C235.56 246.454 234.724 247.323 233.61 248.007Z" fill="#FFFFFE"/>
<path d="M215.574 231.375L233.61 248.007L229.742 251.529C229.51 251.744 229.205 251.861 228.888 251.857C228.571 251.853 228.266 251.728 228.036 251.507L212.308 236.336C211.914 235.949 211.899 235.548 212.263 235.132L215.574 231.375Z" fill="#FE7014"/>
<path d="M339.944 261.83C341.192 260.789 343.333 258.619 346.365 255.32C350.445 250.872 361.046 244.317 367.277 249.077C370.688 251.678 372.223 255.071 371.881 259.255C371.851 259.589 371.996 259.816 372.316 259.935C372.442 259.979 372.579 259.979 372.728 259.935C372.936 259.875 373.137 259.686 373.33 259.366C374.266 257.843 375.504 256.642 377.042 255.766C376.362 264.795 370.209 272.765 362.473 277.213C355.851 281.014 346.911 281.137 339.219 280.357C333.545 279.777 330.145 286.22 336.555 288.828C339.465 290.01 344.871 289.453 348.115 289.542C351.511 289.639 354.268 290.003 356.386 290.634C364.903 293.198 371.101 298.779 374.98 307.378C374.14 307.348 373.286 306.783 372.416 305.683C368.325 300.511 360.578 295.606 355.394 293.811C351.374 292.414 347.167 292.797 342.775 294.96C339.108 296.765 339.81 299.764 340.301 303.588C340.323 303.744 340.286 303.885 340.189 304.011C340.1 304.13 339.985 304.219 339.843 304.279C339.665 304.346 339.546 304.286 339.487 304.1C339.338 303.654 338.944 303.331 338.305 303.131C337.012 299.459 336.083 295.718 335.518 291.905C334.827 287.179 327.804 287.246 324.639 288.606C324.639 287.766 324.56 287.435 324.404 287.613C325.92 285.15 324.694 283.913 323.546 281.939C323.353 281.605 323.371 281.285 323.602 280.981C325.787 278.001 325.783 274.493 323.591 270.458C319.749 263.39 314.74 257.244 308.564 252.02C308.504 251.968 308.455 251.905 308.42 251.834C308.385 251.763 308.365 251.686 308.361 251.608C308.356 251.53 308.368 251.452 308.396 251.379C308.423 251.306 308.465 251.239 308.519 251.184L319.589 239.736C320.57 238.718 321.562 238.714 322.565 239.724C326.299 243.503 330.357 249.4 331.84 254.484C331.951 254.87 331.925 255.245 331.762 255.609C329.242 261.243 327.578 267.11 326.768 273.211C326.285 276.875 327.555 279.101 330.58 279.888C336.388 281.393 335.987 271.862 336.901 268.708C337.651 266.121 338.666 263.829 339.944 261.83Z" fill="#FF465C"/>
<path d="M209.699 274.928C209.654 275.983 209.788 276.369 210.1 276.087C215.005 271.598 220.385 268.106 226.241 265.609L230.689 269.923C230.753 269.986 230.801 270.063 230.829 270.149C230.857 270.235 230.863 270.326 230.848 270.415C230.832 270.504 230.796 270.587 230.741 270.659C230.686 270.73 230.615 270.788 230.533 270.826C225.461 273.166 220.144 283.712 213.288 281.873C209.877 280.947 198.496 279.454 197.715 284.514C196.734 290.868 202.988 289.096 206.388 289.62C208.684 289.977 208.792 290.675 206.711 291.716C203.623 293.254 199.521 298.348 197.191 300.845C196.56 301.522 196.266 301.395 196.311 300.466C196.4 298.385 196.716 296.204 197.258 293.923C198.005 290.824 197.849 288.65 194.315 288.093C190.733 287.528 188.56 288.684 187.794 291.56L178.854 291.147C178.623 291.136 178.392 291.179 178.181 291.271C177.97 291.363 177.785 291.502 177.644 291.675C177.503 291.848 177.409 292.051 177.371 292.264C177.334 292.477 177.353 292.695 177.427 292.897C177.553 293.247 177.312 293.54 176.703 293.778C176.413 293.882 176.064 293.919 175.655 293.889C170.653 293.51 166.692 294.19 163.772 295.929C158.923 298.816 153.661 301.202 150.127 305.817C150.079 305.883 150.012 305.933 149.935 305.96C149.858 305.987 149.774 305.99 149.695 305.968C149.617 305.946 149.546 305.901 149.494 305.838C149.442 305.775 149.41 305.698 149.403 305.616C149.395 305.557 149.347 305.416 149.258 305.193C153.308 297.858 159.19 293.016 166.904 290.668C172.188 289.074 178.564 289.843 184.361 289.531C187.259 289.367 188.831 287.84 189.076 284.949L189.165 283.913C189.205 283.435 189.143 282.955 188.984 282.503C188.824 282.051 188.57 281.638 188.24 281.292C187.909 280.945 187.508 280.673 187.065 280.492C186.621 280.312 186.144 280.228 185.665 280.245C178.271 280.542 173.366 280.505 170.951 280.134C161.453 278.662 154.545 273.939 150.228 265.965L150.339 261.384C150.974 259.188 151.12 256.891 152.134 254.963C157.852 244.172 166.893 246.758 174.574 253.068C177.665 255.609 179.508 257.486 180.103 258.697C181.344 261.202 183.038 263.379 185.186 265.23C186.077 267.236 186.516 268.603 186.501 269.332C186.39 274.002 186.211 279.844 192.9 279.342C195.163 279.164 196.478 278.339 196.422 275.831C196.289 269.298 194.193 263.669 193.368 257.95C192.599 252.544 196.4 246.257 199.399 242.021C199.464 241.928 199.55 241.851 199.648 241.794C199.747 241.738 199.856 241.703 199.969 241.692C200.083 241.682 200.197 241.695 200.304 241.733C200.411 241.77 200.509 241.831 200.591 241.909L212.865 253.725C213.207 254.053 213.407 254.501 213.421 254.975C213.436 255.448 213.264 255.908 212.943 256.256C207.837 261.818 202.888 266.801 198.886 273.289C197.548 275.459 197.622 277.402 199.109 279.119C199.352 279.398 199.687 279.574 200.045 279.61C204.281 280.022 206.6 278.06 209.699 274.928Z" fill="#FF465C"/>
<path d="M185.186 265.23C183.038 263.379 181.344 261.202 180.103 258.697C179.508 257.486 177.665 255.609 174.574 253.068C166.893 246.758 157.853 244.172 152.134 254.963C151.12 256.891 150.975 259.188 150.339 261.384L147.675 258.385C145.921 254.796 145.409 250.979 146.137 246.937C146.204 246.565 146.378 246.253 146.661 246C150.964 242.188 161.364 243.347 166.514 245.042C177.684 248.687 181.652 254.394 185.186 265.23Z" fill="#FFFFFE"/>
<path d="M377.043 255.766C375.504 256.642 374.267 257.843 373.331 259.366C373.137 259.686 372.937 259.875 372.729 259.935C372.58 259.979 372.442 259.979 372.316 259.935C371.997 259.816 371.852 259.589 371.881 259.255C372.223 255.071 370.689 251.678 367.278 249.077C361.046 244.317 350.445 250.872 346.365 255.32C343.333 258.619 341.193 260.789 339.944 261.83C345.652 245.7 360.924 240.471 376.273 245.8C376.603 245.916 376.886 246.134 377.083 246.423C377.28 246.712 377.379 247.056 377.366 247.405L377.043 255.766Z" fill="#FFFFFE"/>
<path d="M246.875 257.449L242.026 254.751L243.876 251.608C243.96 251.465 244.073 251.342 244.206 251.246C244.34 251.149 244.493 251.082 244.654 251.047C244.815 251.012 244.982 251.012 245.144 251.045C245.305 251.078 245.458 251.144 245.593 251.24L249.684 254.149C250.071 254.417 250.085 254.703 249.729 255.008L246.875 257.449Z" fill="#FFFFFE"/>
<path d="M272.492 256.68L269.215 260.726C267.721 259.849 266.595 258.92 265.837 257.939C265.272 257.204 265.335 256.527 266.026 255.91L268.668 253.547C269.352 252.945 269.954 253.02 270.474 253.77L272.492 256.68Z" fill="#FFFFFE"/>
<path d="M242.026 254.751L246.875 257.449C245.834 259.455 244.333 260.778 242.371 261.417C242.015 261.529 241.691 261.462 241.401 261.216L238.548 258.775C238.478 258.716 238.423 258.643 238.384 258.561C238.345 258.479 238.325 258.389 238.324 258.298C238.323 258.208 238.341 258.118 238.378 258.034C238.414 257.951 238.469 257.877 238.536 257.817L242.026 254.751Z" fill="#FE7014"/>
<path d="M272.492 256.68L275.613 260.124C275.772 260.303 275.862 260.533 275.864 260.771C275.866 261.01 275.78 261.239 275.624 261.417L273.149 264.26C272.718 264.758 272.306 264.746 271.912 264.226L269.214 260.726L272.492 256.68Z" fill="#FE7014"/>
<path d="M147.675 258.385L150.339 261.384L150.228 265.965C148.348 263.178 147.497 260.652 147.675 258.385Z" fill="#FFC9C2"/>
<path d="M309.088 285.128C304.361 284.771 299.639 284.265 294.92 283.611C292.2 283.232 290.19 282.709 288.889 282.04C286.422 280.776 283.427 278.673 279.904 275.73L298.275 258.931C298.535 258.693 298.821 258.66 299.133 258.831C306.903 262.989 310.359 268.306 315.041 275.53C316.434 277.692 318.206 278.606 320.224 280.134C320.707 280.498 320.644 280.691 320.035 280.713C315.765 280.892 310.392 279.208 309.088 285.128Z" fill="#FF465C"/>
<path d="M226.242 265.609C220.385 268.106 215.005 271.598 210.1 276.087C209.788 276.369 209.654 275.983 209.699 274.928C213.229 270.186 217.234 265.85 221.716 261.919C221.804 261.84 221.918 261.798 222.036 261.8C222.153 261.802 222.266 261.849 222.351 261.93L226.242 265.609Z" fill="#FFC9C2"/>
<path d="M260.654 267.18L169.022 343.116C166.592 342.796 164.705 342.785 163.36 343.083C163.33 343.097 163.296 343.1 163.264 343.089C163.233 343.079 163.207 343.056 163.192 343.027C163.178 342.997 163.175 342.963 163.186 342.932C163.196 342.9 163.219 342.874 163.248 342.86L256.986 264.215C257.335 263.925 257.718 263.877 258.134 264.07C259.398 264.665 260.237 265.702 260.654 267.18Z" fill="#FFFFFE"/>
<path d="M260.653 267.18L264.41 271.082C264.707 271.394 264.7 271.695 264.388 271.985L187.705 342.648C187.504 342.834 187.245 342.938 186.98 342.938L169.022 343.116L260.653 267.18Z" fill="#FE7014"/>
<path d="M279.905 275.73C283.427 278.673 286.422 280.776 288.889 282.04C290.19 282.709 292.2 283.233 294.92 283.612C299.639 284.266 304.362 284.771 309.088 285.128C310.76 290.947 320.47 289.564 324.405 287.614C324.561 287.435 324.639 287.766 324.639 288.606C322.848 290.255 322.413 292.381 323.335 294.982C324.249 297.535 326.802 298.582 327.136 301.715C322.083 304.665 316.624 306.501 310.76 307.222C309.794 307.341 309.308 307.883 309.3 308.849C309.241 314.505 310.266 320.127 312.377 325.715C313.224 327.967 313.536 330.007 313.871 332.27C303.169 321.435 304.195 307.3 311.987 295.116C312.618 294.135 312.369 293.8 311.24 294.112C300.394 297.144 280.808 290.902 277.14 279.019C277.021 278.647 277.088 278.317 277.341 278.027C278.351 276.845 279.206 276.08 279.905 275.73Z" fill="#E12555"/>
<path d="M267.576 287.234C275.646 296.609 282.09 302.45 294.63 305.193C295.024 305.274 295.184 305.512 295.11 305.906C294.53 309.042 294.441 312.193 294.842 315.359C294.939 316.073 294.719 316.188 294.184 315.705L264.388 288.884C263.957 288.49 263.997 288.16 264.51 287.892L266.238 286.978C266.455 286.862 266.706 286.824 266.95 286.87C267.193 286.917 267.414 287.045 267.576 287.234Z" fill="#FF6C3A"/>
<path d="M187.794 291.56C187.594 295.454 187.066 299.288 186.211 303.064C185.089 308.02 182.091 312.535 177.216 316.608C172.367 320.665 165.99 325.347 159.447 325.704C155.181 325.942 150.581 325.782 145.646 325.225C145 325.15 144.68 324.79 144.688 324.143C144.702 317.566 146.226 311.249 149.258 305.193C149.347 305.416 149.395 305.557 149.403 305.616C149.41 305.698 149.442 305.775 149.494 305.838C149.547 305.901 149.617 305.946 149.696 305.968C149.774 305.99 149.858 305.987 149.935 305.96C150.012 305.933 150.08 305.883 150.128 305.817C153.661 301.202 158.923 298.816 163.772 295.929C166.692 294.19 170.654 293.51 175.655 293.889C176.064 293.919 176.413 293.882 176.703 293.778C177.312 293.54 177.554 293.247 177.427 292.897C177.353 292.695 177.334 292.477 177.372 292.264C177.409 292.051 177.503 291.848 177.644 291.675C177.786 291.502 177.97 291.363 178.181 291.271C178.392 291.179 178.623 291.136 178.854 291.147L187.794 291.56Z" fill="#E12555"/>
<path d="M374.98 307.378C378.581 313.709 377.511 317.957 378.157 324.188C378.174 324.352 378.127 324.517 378.025 324.649C377.924 324.781 377.776 324.871 377.611 324.901C364.167 327.276 354.358 326.429 343.656 317.555C341.761 315.995 341.137 315.716 340.836 313.029C340.45 309.648 339.606 306.348 338.306 303.131C338.945 303.331 339.339 303.655 339.487 304.1C339.547 304.286 339.666 304.346 339.844 304.279C339.985 304.219 340.1 304.13 340.19 304.011C340.286 303.885 340.323 303.744 340.301 303.588C339.811 299.764 339.108 296.765 342.776 294.96C347.168 292.797 351.374 292.414 355.395 293.811C360.578 295.606 368.326 300.511 372.417 305.683C373.286 306.783 374.141 307.348 374.98 307.378Z" fill="#E12555"/>
<path d="M327.136 301.715C328.414 306.746 329.243 310.555 329.622 313.141C330.737 320.643 320.882 328.914 316.189 333.752C315.907 334.049 315.587 334.094 315.231 333.886C314.651 333.552 314.198 333.013 313.871 332.27C313.536 330.007 313.224 327.967 312.377 325.715C310.266 320.127 309.241 314.505 309.3 308.849C309.308 307.883 309.794 307.34 310.761 307.222C316.624 306.501 322.083 304.665 327.136 301.715Z" fill="#FF465C"/>
<path d="M349.654 342.949L335.63 331.612L337.826 328.468C338.153 328.008 338.529 327.959 338.952 328.323L355.082 342.146C355.67 342.644 355.577 342.897 354.804 342.904L349.654 342.949Z" fill="#FFFFFE"/>
<path d="M335.63 331.612L349.654 342.949L325.698 342.938C325.626 342.937 325.555 342.916 325.494 342.876C325.433 342.836 325.386 342.78 325.357 342.714C325.328 342.649 325.32 342.577 325.333 342.507C325.346 342.438 325.38 342.374 325.431 342.325L335.63 331.612Z" fill="#FF6C3A"/>
<path d="M266.753 196.113C266.757 196.621 266.661 197.125 266.471 197.596C266.281 198.067 266 198.496 265.644 198.858C265.287 199.221 264.864 199.509 264.396 199.708C263.928 199.906 263.426 200.011 262.918 200.015L262.45 200.019C261.424 200.028 260.437 199.629 259.705 198.91C258.973 198.191 258.557 197.211 258.548 196.185L258.477 188.026C258.473 187.518 258.568 187.014 258.759 186.543C258.949 186.072 259.23 185.643 259.586 185.281C259.942 184.918 260.366 184.63 260.834 184.431C261.301 184.233 261.803 184.128 262.311 184.124L262.78 184.12C263.805 184.111 264.793 184.51 265.525 185.229C266.256 185.948 266.672 186.928 266.681 187.954L266.753 196.113Z" fill="#010103"/>
<path d="M368.708 262.047C368.443 262.028 368.205 261.769 368.048 261.328C367.891 260.888 367.827 260.3 367.871 259.696C367.892 259.396 367.939 259.102 368.009 258.829C368.079 258.556 368.171 258.31 368.279 258.105C368.387 257.9 368.51 257.74 368.639 257.634C368.769 257.528 368.903 257.479 369.035 257.488C369.3 257.507 369.537 257.765 369.694 258.206C369.852 258.647 369.915 259.235 369.872 259.839C369.851 260.138 369.804 260.433 369.733 260.706C369.663 260.979 369.572 261.225 369.463 261.43C369.355 261.635 369.233 261.795 369.103 261.901C368.974 262.007 368.839 262.056 368.708 262.047Z" fill="#FFFFFE"/>
<path d="M183.522 275.781C183.201 276.293 182.753 276.719 182.203 277.034C181.653 277.349 181.011 277.547 180.315 277.616C179.619 277.685 178.882 277.624 178.145 277.437C177.409 277.25 176.688 276.94 176.024 276.525C174.683 275.686 173.653 274.471 173.163 273.146C172.672 271.822 172.759 270.496 173.406 269.46C173.727 268.947 174.175 268.521 174.725 268.206C175.275 267.892 175.917 267.694 176.613 267.625C177.309 267.556 178.046 267.617 178.782 267.804C179.519 267.991 180.24 268.301 180.904 268.716C182.245 269.554 183.274 270.77 183.765 272.094C184.256 273.419 184.169 274.745 183.522 275.781Z" fill="#010103"/>
<path d="M350.205 268.902C350.531 269.354 350.726 269.895 350.778 270.492C350.831 271.09 350.74 271.733 350.51 272.385C350.281 273.036 349.918 273.684 349.441 274.291C348.965 274.897 348.385 275.451 347.734 275.92C346.42 276.868 344.899 277.414 343.503 277.438C342.108 277.462 340.954 276.962 340.295 276.049C339.969 275.596 339.774 275.056 339.722 274.459C339.669 273.861 339.76 273.218 339.99 272.566C340.219 271.915 340.582 271.267 341.059 270.66C341.535 270.054 342.115 269.5 342.766 269.031C344.08 268.083 345.602 267.537 346.997 267.513C348.392 267.489 349.546 267.988 350.205 268.902Z" fill="#010103"/>
</svg>
