<svg width="1024" height="1024" viewBox="0 0 1024 1024" fill="none" xmlns="http://www.w3.org/2000/svg">
<rect width="1024" height="1024" fill="white"/>
<path d="M747.265 331.853C742.642 341.839 736.067 350.471 727.541 357.75C727.365 357.9 727.23 358.092 727.15 358.308C727.07 358.524 727.048 358.756 727.085 358.982C727.683 363.108 728.165 367.229 728.53 371.345C729.473 382.203 727.45 392.407 722.462 401.957C722.229 402.403 722.336 402.737 722.782 402.96C766.653 424.767 764.327 485.016 720.774 504.831C713.338 508.222 706.754 508.42 699.698 509.241C699.458 509.273 699.235 509.379 699.06 509.546C698.885 509.713 698.767 509.931 698.724 510.169C695.957 525.649 681.799 539.868 668.174 546.893C651.091 555.693 632.666 557.361 612.897 551.896C612.42 551.764 612.187 551.942 612.197 552.429L612.471 574.418C612.491 575.765 612.841 577.086 613.49 578.265C623.557 596.412 633.857 614.452 644.39 632.386C657.377 654.466 669.649 676.532 682.483 698.49C689.793 711.001 694.269 720.054 695.911 725.65C699.368 737.4 699.434 749.119 696.109 760.808C684.141 802.764 636.042 819.826 598.557 799.342C583.411 791.055 572.644 778.615 563.961 764.017C557.169 752.601 553.732 746.833 553.651 746.711C540.239 725.868 526.897 704.239 513.626 681.824C512.532 679.979 511.447 679.984 510.372 681.839C492.656 712.298 474.484 743.67 454.882 773.582C436.239 802.049 401.826 815.249 369.709 803.996C335.493 792.028 318.34 756.611 329.912 722.38C331.251 718.437 334.039 712.901 338.276 705.774C358.729 671.361 378.407 636.416 398.237 601.623C402.383 594.344 406.717 587.181 411.239 580.135C414.888 574.463 413.231 560.001 413.352 553.067C413.353 553.006 413.341 552.946 413.316 552.89C413.291 552.835 413.253 552.786 413.207 552.746C413.16 552.707 413.105 552.679 413.046 552.663C412.987 552.647 412.926 552.645 412.866 552.657C408.872 553.346 404.811 553.939 400.685 554.436C367.382 558.42 337.516 542.255 327.008 509.591C326.856 509.124 326.537 508.871 326.05 508.83C320.636 508.481 314.797 508.344 309.839 506.914C283.775 499.357 268.69 474.676 271.031 447.927C272.674 429.055 283.699 409.195 302.464 402.687C302.571 402.648 302.668 402.585 302.748 402.503C302.828 402.422 302.888 402.323 302.925 402.215C302.961 402.107 302.973 401.992 302.959 401.879C302.945 401.766 302.906 401.657 302.844 401.561C294.359 388.179 292.793 373.92 298.145 358.784C298.308 358.318 298.196 357.933 297.811 357.629C288.291 350.086 282.893 341.814 277.038 331.032" stroke="#656C6B" stroke-width="2"/>
<path d="M747.265 331.853C742.642 341.839 736.067 350.471 727.541 357.75C727.365 357.9 727.23 358.092 727.15 358.308C727.07 358.524 727.048 358.756 727.085 358.982C727.683 363.108 728.165 367.229 728.53 371.345C729.473 382.203 727.45 392.407 722.462 401.957C722.229 402.403 722.336 402.737 722.782 402.96C766.653 424.767 764.327 485.017 720.774 504.831C713.338 508.222 706.754 508.42 699.698 509.241C699.458 509.273 699.235 509.379 699.06 509.546C698.885 509.713 698.767 509.931 698.724 510.169C695.957 525.649 681.799 539.868 668.174 546.893C651.091 555.693 632.666 557.361 612.897 551.896C612.42 551.764 612.187 551.942 612.197 552.429L612.471 574.418C612.491 575.765 612.841 577.086 613.49 578.265C623.557 596.412 633.857 614.452 644.39 632.386C657.377 654.466 669.649 676.532 682.483 698.49C689.793 711.001 694.269 720.054 695.911 725.65C699.368 737.4 699.434 749.119 696.109 760.808C684.141 802.764 636.042 819.826 598.557 799.342C583.411 791.054 572.644 778.615 563.961 764.017C557.169 752.601 553.732 746.833 553.651 746.711C540.239 725.868 526.897 704.239 513.627 681.824C512.532 679.979 511.447 679.984 510.372 681.839C492.656 712.298 474.484 743.67 454.882 773.582C436.239 802.049 401.826 815.249 369.709 803.996C335.493 792.028 318.34 756.611 329.913 722.38C331.251 718.437 334.039 712.901 338.276 705.774C358.729 671.361 378.407 636.416 398.237 601.623C402.383 594.344 406.717 587.181 411.239 580.135C414.888 574.463 413.231 560.002 413.353 553.067C413.354 553.006 413.341 552.946 413.316 552.89C413.291 552.835 413.253 552.786 413.207 552.746C413.16 552.707 413.105 552.679 413.046 552.663C412.988 552.648 412.926 552.645 412.866 552.657C408.872 553.346 404.811 553.939 400.685 554.436C367.382 558.42 337.516 542.255 327.008 509.591C326.856 509.124 326.537 508.871 326.05 508.83C320.636 508.481 314.797 508.344 309.839 506.914C283.775 499.357 268.69 474.676 271.032 447.927C272.674 429.055 283.699 409.195 302.464 402.687C302.571 402.648 302.668 402.585 302.748 402.503C302.828 402.422 302.888 402.323 302.925 402.215C302.961 402.107 302.973 401.992 302.959 401.879C302.945 401.766 302.906 401.657 302.844 401.561C294.359 388.179 292.793 373.92 298.145 358.784C298.308 358.318 298.196 357.933 297.811 357.629C288.291 350.086 282.893 341.814 277.038 331.032C273.622 324.209 271.483 316.666 270.621 308.404C269.181 294.769 270.854 281.833 275.639 269.596C278.635 261.917 286.314 253.69 295.56 257.263C297.223 257.912 299.443 259.555 302.221 262.19C327.753 286.506 359.824 304.511 391.804 318.851C395.829 320.656 399.93 322.263 404.107 323.672C404.583 323.824 404.821 323.651 404.821 323.155C405.166 296.583 413.332 273.525 429.32 253.979C465.147 210.153 533.456 203.522 577.967 237.92C606.008 259.605 618.174 288.301 620.227 323.444C620.234 323.534 620.263 323.62 620.311 323.697C620.358 323.774 620.423 323.839 620.499 323.886C620.576 323.933 620.663 323.962 620.753 323.97C620.843 323.977 620.934 323.964 621.017 323.93C644.03 314.654 666.035 303.29 687.03 289.837C699.48 281.858 710.18 273.479 719.132 264.7C723.461 260.462 726.776 257.943 729.077 257.142C739.372 253.614 746.717 262.631 749.987 272.044C757.022 292.33 756.115 312.267 747.265 331.853Z" fill="black"/>
<path d="M561.087 253.31C562.334 255.246 562.587 256.599 561.847 257.37C559.83 259.458 558.025 260.797 556.434 261.385" stroke="#C28B85" stroke-width="2"/>
<path d="M556.434 261.385C543.705 250.527 528.803 246.026 512.455 245.174C496.99 244.368 486.406 250.451 472.978 256.427C465.375 259.813 458.344 265.952 451.886 274.843C424.119 313.073 432.589 363.179 469.314 392.285C472.01 394.424 473.556 397.38 473.952 401.151C475.249 413.56 471.508 421.736 462.729 425.68C459.079 427.322 452.312 428.184 442.428 428.265C415.856 428.457 389.3 428.564 362.759 428.584C362.544 428.584 362.331 428.627 362.133 428.709C361.934 428.792 361.754 428.913 361.603 429.066C361.452 429.219 361.332 429.4 361.251 429.599C361.171 429.798 361.13 430.011 361.132 430.226L361.451 473.581" stroke="#F0B68F" stroke-width="2"/>
<path d="M361.451 473.581C361.086 474.057 361.051 474.215 361.345 474.052" stroke="#C28B85" stroke-width="2"/>
<path d="M361.345 474.052L349.772 474.098" stroke="#BDDAE0" stroke-width="2"/>
<path d="M556.434 261.384C555.765 261.547 555.638 262.069 556.054 262.951C556.226 263.306 556.53 263.681 556.966 264.076C574.53 280.423 584.932 303.431 583.198 327.367C581.434 351.865 566.729 374.143 548.405 389.745C548.064 390.033 547.823 390.421 547.717 390.855C547.61 391.29 547.644 391.747 547.812 392.163L553.286 405.667" stroke="#B34115" stroke-width="2"/>
<path d="M555.552 413.62C553.848 423.094 563.87 428.493 571.762 428.493C600.909 428.523 630.146 428.538 659.475 428.538C659.834 428.54 660.189 428.613 660.519 428.752C660.85 428.891 661.149 429.093 661.401 429.347C661.652 429.602 661.851 429.903 661.985 430.234C662.119 430.565 662.186 430.919 662.182 431.276L661.832 473.718" stroke="#F0B68F" stroke-width="2"/>
<path d="M661.833 473.718C661.853 473.657 661.868 473.596 661.878 473.535" stroke="#99A68E" stroke-width="2"/>
<path d="M661.878 473.535C637.537 473.86 613.257 473.855 589.037 473.52C582.742 473.429 578.2 475.816 575.412 480.683C573.972 483.197 573.222 487.085 573.161 492.346C572.878 517.093 572.786 541.85 572.888 566.616C572.949 579.39 576.978 588.058 583.031 598.931C600.214 629.821 617.996 660.392 636.376 690.644" stroke="#B34115" stroke-width="2"/>
<path d="M636.376 690.644L582.058 720.373" stroke="#F0B68F" stroke-width="2"/>
<path d="M582.057 720.373C582.128 718.741 581.51 717.382 580.202 716.298C579.837 715.983 579.609 715.593 579.518 715.127C579.467 714.843 579.345 714.544 579.153 714.229C564.889 690.649 552.105 669.972 540.801 652.201C535.813 644.354 531.54 640.187 522.705 638.834C514.296 637.541 499.956 636.705 492.763 642.286C489.042 645.175 485.93 648.622 483.426 652.626C471.605 671.554 460.24 690.755 449.332 710.23C447.598 713.332 445.474 716.135 442.96 718.639C442.768 718.832 442.798 719.39 443.051 720.312" stroke="#B34115" stroke-width="2"/>
<path d="M443.051 720.312C443.223 720.049 442.848 720.003 441.926 720.175" stroke="#BD9774" stroke-width="2"/>
<path d="M441.926 720.175L388.261 689.777C387.795 689.512 387.386 689.157 387.058 688.733C386.73 688.31 386.489 687.825 386.349 687.308C386.209 686.79 386.173 686.25 386.243 685.719C386.312 685.187 386.487 684.675 386.756 684.211C404.355 653.666 421.64 622.958 438.611 592.088C443.102 583.907 445.49 578.371 445.773 575.482C447.066 562.206 446.321 548.672 446.458 535.351C446.468 534.631 446.143 533.668 445.484 532.462C443.112 528.143 438.581 530.074 436.087 533.633" stroke="#F0B68F" stroke-width="2"/>
<path d="M436.452 516.525C437.162 514.234 437.425 512.024 437.243 509.895C437.215 509.581 437.256 509.265 437.363 508.969C437.469 508.672 437.637 508.403 437.857 508.178C438.077 507.954 438.343 507.781 438.636 507.67C438.929 507.56 439.242 507.515 439.554 507.538C445.333 507.949 450.168 505.774 452.145 499.934C453.925 494.658 454.761 489.183 452.313 483.998C449.16 477.327 443.619 473.88 435.692 473.657C430.785 473.525 420.272 473.419 404.152 473.338C392.428 473.277 375.746 474.098 361.452 473.581" stroke="#B34115" stroke-width="2"/>
<path d="M361.345 487.906V474.052" stroke="#806566" stroke-width="2"/>
<path d="M582.057 720.373C582.037 720.535 581.89 720.763 581.616 721.057" stroke="#C28B85" stroke-width="2"/>
<path d="M581.616 721.057L567.687 727.475" stroke="#806566" stroke-width="2"/>
<path d="M456.555 727.718L443.051 720.312" stroke="#8E6C6A" stroke-width="2"/>
<path d="M661.878 473.535L662.197 487.45" stroke="#6A7B83" stroke-width="2"/>
<path d="M648.085 683.588L636.376 690.644" stroke="#C28B85" stroke-width="2"/>
<path d="M441.926 720.175C441.875 720.327 441.926 720.439 442.078 720.51C442.159 720.54 442.174 720.591 442.124 720.662L433.517 735.489" stroke="#CCE0E4" stroke-width="2"/>
<path d="M675.899 473.459L661.833 473.718" stroke="#A8EFFE" stroke-width="2"/>
<path d="M593.478 734.987C589.159 731.996 585.215 727.53 581.647 721.59C581.515 721.367 581.505 721.189 581.616 721.057" stroke="#BDDAE0" stroke-width="2"/>
<path d="M409.627 359.469C393.771 356.934 382.554 354.841 375.974 353.188C352.677 347.318 329.213 337.89 311.984 320.311C304.076 312.251 297.638 303.634 292.671 294.459" stroke="#BDDAE0" stroke-width="2"/>
<path d="M731.16 290.232C730.39 295.94 727.977 300.948 723.922 305.256C722.259 307.03 719.491 310.64 715.619 316.084C705.917 329.724 691.637 338.362 674.849 344.292C661.315 349.067 647.228 353.016 632.589 356.138C630.156 356.655 628.012 357.051 626.157 357.325C624.768 357.537 623.024 357.973 620.926 358.632C619.111 359.2 617.332 359.504 615.588 359.545" stroke="#BDDAE0" stroke-width="2"/>
<path d="M731.708 291.692L732.681 302.671" stroke="#3E8999" stroke-width="2"/>
<path d="M422.416 391.418C408.958 392.011 395.348 390.947 381.95 389.639C360.919 387.586 346.138 386.476 329.578 382.903C325.888 382.102 321.949 380.464 317.762 377.991" stroke="#BDDAE0" stroke-width="2"/>
<path d="M707.028 377.9C702.415 380.738 696.616 382.725 689.631 383.861C660.809 388.544 632.418 391.206 604.457 391.844C602.927 391.885 602.237 391.18 602.389 389.73" stroke="#B4D5E1" stroke-width="2"/>
<path d="M326.825 423.931C326.632 424.488 326.288 425.031 325.791 425.558C325.446 425.943 325.015 426.146 324.498 426.166C302.783 427.185 299.027 448.703 303.163 466.206" stroke="#F0B68F" stroke-width="2"/>
<path d="M303.164 466.206C305.369 476.349 311.467 478.021 317.215 485.108" stroke="#C28B85" stroke-width="2"/>
<path d="M326.871 471.148L326.552 472.349C326.368 473.057 325.916 473.666 325.292 474.046C324.667 474.426 323.919 474.549 323.206 474.387C314.447 472.4 308.136 467.321 304.274 459.15C303.99 458.552 303.675 458.536 303.331 459.104C302.966 459.682 302.875 460.392 303.057 461.233C303.24 462.095 303.275 463.752 303.164 466.206" stroke="#B34115" stroke-width="2"/>
<path d="M729.989 444.11L716.364 431.61" stroke="#C28880" stroke-width="2"/>
<path d="M716.364 431.61C714.489 429.887 712.02 428.589 708.959 427.717C707.935 427.433 706.171 427.261 703.667 427.2C701.396 427.149 699.627 426.739 698.359 425.968" stroke="#F0B38B" stroke-width="2"/>
<path d="M716.364 431.61C719.071 440.46 719.664 448.992 718.144 457.203C716.608 465.491 708.153 477.504 698.04 473.14" stroke="#B34115" stroke-width="2"/>
<path d="M412.896 528.113C406.154 527.555 399.504 527.307 392.945 527.368C386.842 527.418 381.869 527.216 378.027 526.759C373.161 526.171 368.223 525.472 363.215 524.661" stroke="#80B6C6" stroke-width="2"/>
<path d="M661.513 525.68C658.725 525.842 655.988 526.359 653.302 527.231C651.892 527.677 650.463 527.895 649.013 527.885C645.287 527.839 641.212 528.554 638.034 528.539C629.731 528.498 621.144 528.625 612.273 528.919" stroke="#5CC5E0" stroke-width="2"/>
<path d="M603.56 754.573C614.823 767.803 627.764 771.828 642.383 766.647C659.902 760.428 666.927 739.975 662.654 723.293" stroke="#B34115" stroke-width="2"/>
<path d="M360.584 722.472C359.865 725.381 359.114 728.291 358.334 731.2C356.281 738.849 356.418 746.362 357.969 753.843" stroke="#F0B68F" stroke-width="2"/>
<path d="M357.969 753.844C360.625 766.861 367.656 776.547 379.061 782.904" stroke="#C28B85" stroke-width="2"/>
<path d="M420.134 753.691C412.572 765.117 401.668 770.15 387.425 768.792C375.046 767.606 366.454 760.808 358.76 751.638C358.717 751.59 358.662 751.552 358.601 751.53C358.54 751.508 358.475 751.503 358.411 751.513C358.346 751.524 358.286 751.551 358.236 751.591C358.185 751.632 358.145 751.685 358.121 751.745C357.888 752.414 357.837 753.113 357.969 753.843" stroke="#B34115" stroke-width="2"/>
<path d="M561.087 253.31C562.334 255.246 562.587 256.6 561.847 257.37C559.83 259.458 558.025 260.797 556.434 261.385C543.706 250.527 528.803 246.026 512.455 245.174C496.99 244.368 486.406 250.451 472.978 256.427C465.375 259.813 458.344 265.952 451.887 274.843C424.119 313.073 432.589 363.179 469.314 392.285C472.01 394.424 473.556 397.38 473.952 401.151C475.249 413.56 471.508 421.736 462.729 425.68C459.079 427.322 452.312 428.184 442.428 428.265C415.856 428.457 389.3 428.564 362.759 428.584C362.544 428.584 362.331 428.627 362.133 428.709C361.935 428.792 361.754 428.913 361.603 429.066C361.452 429.219 361.332 429.4 361.252 429.599C361.171 429.798 361.13 430.011 361.132 430.226L361.451 473.581C361.086 474.058 361.051 474.215 361.345 474.053L349.772 474.098L349.377 421.802C349.367 420.96 349.783 420.54 350.624 420.54C386.279 420.489 421.214 420.484 455.43 420.524C458.491 420.535 461.771 419.029 465.269 416.008C469.8 412.115 472.674 403.234 466.896 398.855C459.399 393.167 451.552 386.826 445.819 379.846C420.956 349.554 420.5 305.104 442.458 272.972C461.33 245.341 495.044 232.705 527.662 238.696C539.949 240.957 551.091 245.828 561.087 253.31Z" fill="white"/>
<path d="M556.434 261.385C555.764 261.547 555.638 262.069 556.053 262.951C556.226 263.306 556.53 263.681 556.966 264.076C574.53 280.424 584.931 303.432 583.198 327.367C581.434 351.865 566.729 374.143 548.404 389.746C548.064 390.033 547.823 390.422 547.717 390.856C547.61 391.29 547.643 391.748 547.811 392.164L553.286 405.667C553.235 408.861 553.99 411.512 555.552 413.62C553.848 423.094 563.87 428.493 571.762 428.493C600.909 428.523 630.146 428.538 659.475 428.538C659.834 428.54 660.189 428.613 660.519 428.752C660.85 428.891 661.149 429.093 661.401 429.347C661.653 429.602 661.851 429.903 661.985 430.234C662.119 430.565 662.186 430.919 662.182 431.276L661.832 473.718C661.853 473.657 661.868 473.596 661.878 473.536C637.537 473.86 613.257 473.855 589.037 473.52C582.741 473.429 578.2 475.817 575.412 480.683C573.972 483.197 573.222 487.085 573.161 492.346C572.877 517.093 572.786 541.85 572.887 566.617C572.948 579.39 576.978 588.058 583.03 598.931C600.214 629.821 617.996 660.392 636.376 690.644L582.057 720.373C582.128 718.741 581.51 717.383 580.202 716.298C579.837 715.984 579.609 715.593 579.518 715.127C579.467 714.843 579.345 714.544 579.153 714.23C564.889 690.649 552.105 669.973 540.801 652.201C535.813 644.354 531.54 640.187 522.705 638.834C514.295 637.541 499.955 636.705 492.762 642.286C489.042 645.175 485.93 648.622 483.425 652.627C471.605 671.554 460.24 690.755 449.332 710.23C447.598 713.332 445.474 716.136 442.96 718.64C442.767 718.832 442.798 719.39 443.051 720.312C443.224 720.049 442.848 720.003 441.926 720.176L388.261 689.777C387.795 689.512 387.386 689.157 387.058 688.734C386.73 688.31 386.489 687.825 386.349 687.308C386.209 686.79 386.173 686.25 386.242 685.719C386.312 685.187 386.487 684.675 386.755 684.211C404.355 653.666 421.64 622.958 438.611 592.088C443.102 583.907 445.489 578.372 445.773 575.482C447.066 562.207 446.321 548.673 446.458 535.351C446.468 534.632 446.143 533.669 445.484 532.462C443.112 528.143 438.58 530.075 436.087 533.633L436.451 516.525C437.161 514.234 437.425 512.024 437.242 509.895C437.215 509.581 437.256 509.265 437.362 508.969C437.468 508.672 437.637 508.403 437.857 508.179C438.077 507.954 438.342 507.781 438.635 507.67C438.928 507.56 439.242 507.515 439.554 507.538C445.332 507.949 450.168 505.774 452.145 499.935C453.924 494.658 454.761 489.183 452.312 483.998C449.159 477.327 443.619 473.88 435.691 473.657C430.784 473.525 420.271 473.419 404.152 473.338C392.428 473.277 375.746 474.098 361.451 473.581L361.132 430.226C361.13 430.011 361.171 429.798 361.251 429.599C361.332 429.4 361.452 429.219 361.603 429.066C361.754 428.913 361.934 428.792 362.133 428.709C362.331 428.627 362.544 428.584 362.759 428.584C389.3 428.564 415.856 428.457 442.428 428.265C452.312 428.184 459.079 427.322 462.729 425.68C471.508 421.736 475.249 413.56 473.952 401.151C473.556 397.38 472.01 394.424 469.314 392.285C432.589 363.179 424.119 313.073 451.886 274.843C458.344 265.952 465.375 259.813 472.978 256.427C486.406 250.451 496.99 244.368 512.455 245.174C528.803 246.026 543.705 250.527 556.434 261.385Z" fill="#E16C1F"/>
<path d="M561.087 253.31C566.714 256.605 572.214 261.486 577.587 267.954C601.142 296.315 603.864 334.408 587 366.601C580.111 379.755 570.348 388.453 558.228 397.851C556.008 399.574 554.361 402.18 553.286 405.667L547.812 392.163C547.644 391.748 547.61 391.29 547.717 390.856C547.823 390.421 548.064 390.033 548.405 389.746C566.729 374.143 581.434 351.865 583.198 327.367C584.932 303.431 574.53 280.424 556.966 264.076C556.53 263.681 556.226 263.306 556.054 262.951C555.638 262.069 555.765 261.547 556.434 261.385C558.026 260.797 559.83 259.458 561.848 257.37C562.588 256.599 562.334 255.246 561.087 253.31Z" fill="#84160A"/>
<path d="M409.627 359.469C393.771 356.934 382.554 354.841 375.974 353.188C352.677 347.319 329.213 337.89 311.984 320.311C304.076 312.252 297.638 303.634 292.671 294.46L293.857 286.947C293.88 286.802 293.941 286.666 294.034 286.552C294.126 286.438 294.247 286.351 294.384 286.298C294.522 286.246 294.67 286.23 294.815 286.254C294.96 286.277 295.097 286.338 295.21 286.43C323.303 309.291 354.223 327.474 387.972 340.977C392.884 342.939 399.225 346.3 405.278 348.185C405.825 348.358 406.19 348.723 406.373 349.28L409.627 359.469Z" fill="white"/>
<path d="M731.16 290.232C730.39 295.94 727.977 300.948 723.922 305.256C722.259 307.031 719.491 310.64 715.619 316.084C705.917 329.724 691.637 338.362 674.849 344.292C661.315 349.067 647.228 353.016 632.589 356.139C630.156 356.656 628.012 357.051 626.157 357.325C624.768 357.538 623.024 357.974 620.926 358.633C619.111 359.2 617.332 359.504 615.588 359.545C617.017 356.068 617.823 352.859 618.006 349.919C618.02 349.671 618.087 349.43 618.203 349.212C618.318 348.994 618.479 348.805 618.675 348.657C619.486 348.038 620.484 347.466 621.671 346.938C633.015 341.93 641.328 338.286 646.61 336.005C668.305 326.627 689.017 315.43 708.745 302.413C715.608 297.891 722.056 292.873 728.088 287.358C728.248 287.213 728.437 287.103 728.642 287.037C728.848 286.971 729.064 286.949 729.278 286.973C729.491 286.998 729.697 287.068 729.88 287.179C730.063 287.29 730.219 287.439 730.339 287.617C730.755 288.235 731.028 289.107 731.16 290.232Z" fill="white"/>
<path d="M731.161 290.232L731.708 291.692L732.681 302.671C731.678 329.009 708.746 346.68 685.936 355.074C681.434 356.737 675.438 358.237 667.946 359.575C650.559 362.677 632.914 364.512 615.011 365.08C614.896 365.084 614.781 365.061 614.677 365.013C614.572 364.965 614.481 364.893 614.41 364.802C614.338 364.712 614.29 364.606 614.267 364.493C614.245 364.38 614.25 364.263 614.281 364.152L615.589 359.545C617.332 359.504 619.112 359.2 620.926 358.632C623.025 357.973 624.768 357.537 626.157 357.325C628.013 357.051 630.157 356.655 632.59 356.138C647.229 353.016 661.316 349.067 674.85 344.292C691.638 338.362 705.917 329.724 715.619 316.084C719.492 310.64 722.26 307.03 723.922 305.256C727.977 300.948 730.39 295.94 731.161 290.232Z" fill="#7BB4C1"/>
<path d="M731.708 291.692C733.168 294.794 733.492 298.454 732.681 302.671L731.708 291.692Z" fill="#015E71"/>
<path d="M292.671 294.459C297.638 303.634 304.076 312.251 311.983 320.311C329.213 337.89 352.677 347.318 375.974 353.188C382.553 354.841 393.771 356.934 409.627 359.469C410.367 360.564 410.919 361.942 411.284 363.605C411.324 363.789 411.321 363.981 411.275 364.164C411.229 364.347 411.142 364.517 411.02 364.661C410.898 364.805 410.745 364.919 410.572 364.994C410.398 365.07 410.21 365.104 410.022 365.095C393.163 364.254 376.683 362.779 360.584 360.67C338.413 357.75 317.579 349.128 302.874 331.245C294.308 320.843 290.907 308.581 292.671 294.459Z" fill="#7BB4C1"/>
<path d="M422.416 391.418C408.957 392.011 395.347 390.947 381.95 389.639C360.919 387.586 346.138 386.476 329.578 382.902C325.887 382.102 321.949 380.464 317.762 377.991C317.397 375.243 317.427 372.962 317.853 371.148C317.872 371.068 317.91 370.994 317.963 370.932C318.016 370.869 318.084 370.821 318.159 370.789C318.235 370.758 318.317 370.746 318.399 370.752C318.48 370.759 318.559 370.785 318.629 370.828C324.194 374.275 330.161 376.602 336.527 377.808C344.298 379.268 352.221 381.169 359.809 382.081C379.243 384.403 398.738 385.883 418.294 386.522C421.518 386.628 422.461 388.514 422.416 391.418Z" fill="white"/>
<path d="M707.028 377.9C702.415 380.738 696.616 382.725 689.631 383.861C660.809 388.544 632.418 391.206 604.457 391.844C602.927 391.885 602.237 391.18 602.389 389.73C602.866 387.591 604.315 386.476 606.738 386.385C629.163 385.533 651.462 383.435 673.633 380.089C684.886 378.401 695.364 376.014 705.613 370.935C705.755 370.862 705.912 370.826 706.071 370.832C706.23 370.837 706.385 370.883 706.52 370.966C706.656 371.048 706.769 371.164 706.847 371.303C706.925 371.441 706.966 371.597 706.967 371.756L707.028 377.9Z" fill="white"/>
<path d="M707.027 377.9C706.794 384.53 704.214 390.182 699.287 394.855C697.29 396.751 694.7 397.714 691.516 397.744C670.47 397.937 649.439 398.621 628.423 399.797C619.831 400.284 610.251 400.208 600.99 400.619C600.728 400.63 600.467 400.577 600.23 400.465C599.993 400.353 599.787 400.185 599.63 399.975C599.473 399.766 599.369 399.521 599.328 399.262C599.286 399.003 599.309 398.738 599.393 398.49L602.389 389.73C602.237 391.18 602.926 391.885 604.457 391.844C632.418 391.206 660.809 388.544 689.631 383.861C696.616 382.725 702.415 380.738 707.027 377.9Z" fill="#68ABC3"/>
<path d="M317.762 377.991C321.949 380.464 325.888 382.102 329.578 382.903C346.138 386.476 360.919 387.586 381.95 389.639C395.348 390.947 408.958 392.011 422.416 391.418L424.818 398.155C424.874 398.31 424.892 398.476 424.871 398.639C424.849 398.802 424.789 398.958 424.696 399.093C424.602 399.229 424.477 399.34 424.332 399.417C424.187 399.495 424.025 399.536 423.86 399.539C419.217 399.681 414.407 399.655 409.429 399.463C383.081 398.459 356.722 398.003 330.353 398.094C328.914 398.104 327.266 397.116 325.411 395.129C320.606 389.999 318.056 384.286 317.762 377.991Z" fill="#7BB4C1"/>
<path d="M555.552 413.62C560.387 418.233 565.912 420.514 572.127 420.464C602.936 420.22 633.735 420.068 664.524 420.007C667.93 419.997 671.332 420.2 674.728 420.616C675.275 420.676 675.549 420.981 675.549 421.528L675.899 473.459L661.832 473.718L662.182 431.276C662.186 430.919 662.119 430.565 661.985 430.234C661.851 429.903 661.652 429.602 661.401 429.347C661.149 429.093 660.85 428.891 660.519 428.752C660.189 428.613 659.834 428.54 659.475 428.538C630.146 428.538 600.909 428.523 571.762 428.493C563.87 428.493 553.848 423.094 555.552 413.62Z" fill="white"/>
<path d="M326.825 423.931C326.633 424.488 326.288 425.031 325.791 425.558C325.447 425.943 325.016 426.146 324.499 426.166C302.783 427.185 299.027 448.703 303.163 466.206C305.368 476.349 311.466 478.022 317.215 485.108C303.133 479.35 295.322 470.109 293.781 457.386C291.196 436.203 304.319 420.996 325.7 419.171C326.491 419.11 326.881 419.475 326.871 420.266L326.825 423.931Z" fill="white"/>
<path d="M729.99 444.11L716.364 431.61C714.489 429.887 712.02 428.589 708.959 427.717C707.935 427.433 706.171 427.261 703.667 427.2C701.396 427.15 699.627 426.739 698.359 425.969L698.435 420.6C698.435 420.083 698.694 419.8 699.211 419.749C713.308 418.319 725.382 431.321 729.99 444.11Z" fill="#FFF9F6"/>
<path d="M326.825 423.931C327.362 424.833 327.616 425.857 327.585 427.003C327.291 441.733 327.053 456.448 326.871 471.148L326.551 472.349C326.368 473.057 325.916 473.666 325.291 474.046C324.667 474.427 323.919 474.549 323.206 474.387C314.447 472.4 308.136 467.321 304.273 459.15C303.989 458.552 303.675 458.537 303.33 459.104C302.965 459.682 302.874 460.392 303.057 461.233C303.239 462.095 303.275 463.752 303.163 466.206C299.027 448.703 302.783 427.185 324.498 426.166C325.015 426.146 325.446 425.943 325.791 425.558C326.288 425.031 326.632 424.488 326.825 423.931Z" fill="#E16C1F"/>
<path d="M698.359 425.968C699.627 426.739 701.396 427.149 703.667 427.2C706.171 427.261 707.935 427.433 708.959 427.717C712.02 428.589 714.489 429.887 716.364 431.61C719.071 440.461 719.664 448.992 718.144 457.203C716.608 465.491 708.153 477.504 698.04 473.14L698.359 425.968Z" fill="#E16C1F"/>
<path d="M716.364 431.61L729.99 444.11C733.487 461.547 727.724 474.808 712.7 483.891C707.894 486.796 703.864 487.663 698.436 487.161C698.261 487.146 698.098 487.064 697.979 486.931C697.861 486.799 697.796 486.626 697.797 486.446L698.04 473.14C708.153 477.504 716.608 465.491 718.144 457.203C719.664 448.992 719.071 440.46 716.364 431.61Z" fill="#84160A"/>
<path d="M326.871 471.148L326.293 485.138C326.286 485.351 326.233 485.559 326.137 485.75C326.041 485.94 325.905 486.107 325.737 486.24C325.569 486.373 325.375 486.468 325.166 486.52C324.958 486.571 324.74 486.577 324.529 486.537L317.215 485.108C311.466 478.021 305.369 476.349 303.164 466.206C303.275 463.752 303.24 462.095 303.057 461.233C302.875 460.392 302.966 459.682 303.331 459.104C303.675 458.536 303.99 458.552 304.274 459.15C308.136 467.321 314.447 472.4 323.206 474.387C323.919 474.549 324.667 474.426 325.292 474.046C325.916 473.666 326.368 473.057 326.552 472.349L326.871 471.148Z" fill="#84160A"/>
<path d="M436.451 516.525C435.995 513.413 435.696 508.161 435.554 500.771C435.372 491.079 430.09 486.573 419.709 487.252C405.019 488.215 385.564 488.433 361.345 487.906V474.052C361.051 474.215 361.086 474.058 361.451 473.581C375.746 474.098 392.428 473.277 404.152 473.338C420.271 473.419 430.784 473.525 435.691 473.657C443.619 473.88 449.159 477.327 452.312 483.998C454.76 489.183 453.924 494.658 452.145 499.934C450.168 505.774 445.332 507.949 439.554 507.538C439.242 507.515 438.928 507.56 438.635 507.67C438.342 507.781 438.077 507.954 437.857 508.178C437.637 508.403 437.468 508.672 437.362 508.969C437.256 509.265 437.215 509.581 437.242 509.895C437.425 512.024 437.161 514.234 436.451 516.525Z" fill="#84160A"/>
<path d="M661.878 473.535L662.198 487.45C642.895 487.865 623.613 487.87 604.351 487.465C591.227 487.176 588.885 494.399 589.037 506.063C589.301 527.109 589.26 548.15 588.916 569.186C588.764 578.082 594.04 589.503 598.466 597.152C615.132 625.893 631.206 654.999 648.086 683.588L636.376 690.644C617.996 660.392 600.214 629.821 583.031 598.931C576.978 588.058 572.949 579.39 572.888 566.616C572.786 541.85 572.878 517.093 573.161 492.346C573.222 487.085 573.972 483.197 575.412 480.683C578.2 475.816 582.742 473.429 589.037 473.52C613.257 473.855 637.537 473.86 661.878 473.535Z" fill="#84160A"/>
<path d="M661.833 473.718L675.899 473.459V486.796C675.899 486.907 675.877 487.017 675.834 487.119C675.791 487.222 675.728 487.315 675.649 487.393C675.569 487.471 675.475 487.532 675.372 487.573C675.269 487.614 675.158 487.634 675.047 487.632L662.197 487.45L661.878 473.535C661.868 473.596 661.853 473.657 661.833 473.718Z" fill="#50DFFC"/>
<path d="M349.772 474.098L361.345 474.052V487.906L350.761 487.754C350.143 487.744 349.828 487.429 349.818 486.811L349.772 474.098Z" fill="#7BB4C1"/>
<path d="M412.896 528.113C406.154 527.555 399.504 527.307 392.944 527.368C386.841 527.418 381.869 527.216 378.026 526.76C373.16 526.172 368.223 525.472 363.215 524.661C358.683 520.849 355.165 516.297 352.661 511.005C352.627 510.935 352.612 510.856 352.617 510.778C352.622 510.7 352.647 510.624 352.69 510.558C352.733 510.493 352.792 510.439 352.862 510.403C352.931 510.367 353.009 510.349 353.087 510.351L412.227 511.218C412.354 511.22 412.481 511.247 412.598 511.298C412.715 511.349 412.821 511.422 412.91 511.514C412.999 511.606 413.069 511.714 413.116 511.833C413.164 511.952 413.187 512.079 413.185 512.207L412.896 528.113Z" fill="#68ABC3"/>
<path d="M661.513 525.68C658.725 525.842 655.988 526.359 653.302 527.231C651.892 527.677 650.463 527.895 649.013 527.885C645.288 527.839 641.212 528.554 638.034 528.538C629.731 528.498 621.144 528.625 612.273 528.919L612.015 512.936C612.011 512.688 612.056 512.442 612.147 512.211C612.239 511.981 612.375 511.771 612.547 511.594C612.72 511.417 612.926 511.276 613.153 511.181C613.38 511.085 613.624 511.035 613.87 511.035L672.508 511.233C673.532 511.233 673.78 511.674 673.253 512.556C669.887 518.233 665.974 522.608 661.513 525.68Z" fill="#68ABC3"/>
<path d="M412.896 528.113C394.476 535.088 377.915 533.937 363.215 524.661C368.223 525.472 373.161 526.171 378.027 526.759C381.869 527.216 386.842 527.418 392.945 527.368C399.504 527.307 406.154 527.555 412.896 528.113Z" fill="#98C1C9"/>
<path d="M661.513 525.68C646.104 533.841 629.69 534.92 612.273 528.919C621.144 528.625 629.731 528.498 638.034 528.539C641.212 528.554 645.287 527.839 649.013 527.885C650.463 527.895 651.892 527.677 653.302 527.231C655.988 526.359 658.725 525.842 661.513 525.68Z" fill="#50DFFC"/>
<path d="M441.926 720.175C441.875 720.327 441.926 720.439 442.078 720.51C442.159 720.54 442.174 720.591 442.124 720.662L433.517 735.489L368.477 701.912C368.209 701.774 367.973 701.582 367.784 701.347C367.596 701.112 367.458 700.84 367.381 700.547C367.304 700.255 367.288 699.95 367.335 699.65C367.383 699.351 367.492 699.065 367.656 698.81C370.859 693.812 373.896 688.692 376.765 683.451C394.597 650.918 412.176 620.428 429.502 591.981C434.855 583.177 436.558 576.288 436.376 565.263C436.203 554.618 436.107 544.075 436.087 533.633C438.581 530.074 443.112 528.143 445.485 532.462C446.143 533.668 446.468 534.631 446.458 535.351C446.321 548.672 447.066 562.206 445.773 575.482C445.49 578.371 443.102 583.907 438.611 592.088C421.64 622.958 404.355 653.666 386.756 684.211C386.487 684.675 386.312 685.187 386.243 685.719C386.173 686.25 386.209 686.79 386.349 687.308C386.489 687.825 386.73 688.31 387.058 688.733C387.386 689.157 387.795 689.512 388.261 689.777L441.926 720.175Z" fill="white"/>
<path d="M582.057 720.373C582.037 720.535 581.89 720.763 581.616 721.057L567.687 727.475C564.422 722.507 561.021 717.494 557.483 712.435C544.603 693.974 533.639 672.547 522.735 657.386C520.728 654.588 517.291 652.87 512.425 652.231C505.187 651.288 501.856 654.695 498.176 660.869C486.33 680.714 473.754 700.148 462.106 720.069C460.423 722.958 458.573 725.508 456.555 727.718L443.051 720.312C442.798 719.39 442.768 718.832 442.96 718.639C445.474 716.135 447.598 713.332 449.332 710.23C460.24 690.755 471.605 671.554 483.426 652.626C485.93 648.622 489.042 645.175 492.763 642.286C499.956 636.705 514.296 637.541 522.705 638.834C531.54 640.187 535.813 644.354 540.801 652.201C552.105 669.972 564.889 690.649 579.153 714.229C579.345 714.544 579.467 714.843 579.518 715.127C579.609 715.593 579.837 715.983 580.202 716.298C581.51 717.382 582.128 718.741 582.057 720.373Z" fill="#84160A"/>
<path d="M648.085 683.588L657.635 699.829C657.96 700.386 657.838 700.817 657.27 701.121L593.478 734.987C589.159 731.996 585.215 727.531 581.647 721.59C581.515 721.367 581.505 721.189 581.616 721.058C581.89 720.764 582.037 720.535 582.057 720.373L636.376 690.644L648.085 683.588Z" fill="white"/>
<path d="M603.56 754.573C614.823 767.803 627.764 771.828 642.383 766.648C659.901 760.428 666.927 739.975 662.654 723.293C664.043 721.661 665.974 720.388 668.447 719.476C668.682 719.39 668.939 719.383 669.178 719.457C669.417 719.531 669.626 719.682 669.77 719.886C676.309 729.269 678.21 747.244 673.238 757.752C656.556 793.016 612.623 792.666 590.041 764.123C589.688 763.676 589.511 763.114 589.545 762.545C589.579 761.976 589.82 761.439 590.223 761.036C591.136 760.124 592.423 759.308 594.086 758.588C597.908 756.935 601.066 755.597 603.56 754.573Z" fill="#84160A"/>
<path d="M441.926 720.175C442.849 720.003 443.224 720.049 443.051 720.312L456.555 727.718L448.921 741.723C448.698 742.133 448.323 742.438 447.878 742.572C447.434 742.706 446.956 742.658 446.549 742.438L433.517 735.489L442.124 720.662C442.174 720.591 442.159 720.54 442.078 720.51C441.926 720.439 441.875 720.327 441.926 720.175Z" fill="#98C1C9"/>
<path d="M360.584 722.472C359.864 725.381 359.114 728.291 358.334 731.2C356.281 738.849 356.418 746.362 357.969 753.843C360.625 766.86 367.655 776.547 379.061 782.904C364.903 778.509 350.168 764.519 349.042 749.753C348.252 739.564 348.89 729.923 354.456 721.498C354.73 721.083 355.11 720.9 355.596 720.951C357.229 721.113 358.891 721.62 360.584 722.472Z" fill="white"/>
<path d="M581.616 721.057C581.504 721.189 581.515 721.367 581.646 721.59C585.215 727.53 589.159 731.996 593.477 734.987L578.696 742.484C578.395 742.636 578.066 742.724 577.729 742.74C577.393 742.757 577.057 742.702 576.744 742.58C576.43 742.458 576.147 742.271 575.912 742.032C575.677 741.792 575.496 741.506 575.381 741.191C573.982 737.45 572.902 733.253 570.165 730.486C569.304 729.614 568.477 728.61 567.687 727.475L581.616 721.057Z" fill="#7BB4C1"/>
<path d="M360.584 722.472C360.909 721.985 361.542 722.021 362.485 722.578C381.707 734.024 400.923 744.395 420.134 753.691C412.571 765.117 401.668 770.15 387.424 768.792C375.046 767.606 366.454 760.808 358.759 751.638C358.717 751.589 358.662 751.552 358.601 751.53C358.54 751.508 358.474 751.503 358.41 751.513C358.346 751.524 358.286 751.551 358.235 751.591C358.185 751.632 358.145 751.685 358.121 751.745C357.888 752.414 357.837 753.113 357.969 753.843C356.418 746.362 356.281 738.849 358.334 731.2C359.114 728.291 359.865 725.381 360.584 722.472Z" fill="#E16C1F"/>
<path d="M662.654 723.293C666.927 739.975 659.902 760.428 642.383 766.647C627.764 771.828 614.823 767.803 603.56 754.573L662.654 723.293Z" fill="#E16C1F"/>
<path d="M420.134 753.691L433.395 760.276C433.555 760.355 433.697 760.467 433.811 760.604C433.926 760.741 434.011 760.9 434.061 761.072C434.111 761.243 434.125 761.423 434.102 761.6C434.079 761.777 434.019 761.948 433.927 762.101C422.765 781.033 399.955 787.709 379.061 782.904C367.656 776.547 360.625 766.86 357.969 753.843C357.837 753.113 357.888 752.414 358.121 751.745C358.145 751.685 358.185 751.632 358.236 751.591C358.286 751.551 358.346 751.524 358.411 751.513C358.475 751.503 358.54 751.508 358.601 751.53C358.662 751.552 358.717 751.59 358.76 751.638C366.454 760.808 375.046 767.606 387.425 768.792C401.668 770.15 412.572 765.117 420.134 753.691Z" fill="#84160A"/>
<path d="M495.804 266.129C498.534 266.129 500.746 263.916 500.746 261.187C500.746 258.457 498.534 256.245 495.804 256.245C493.075 256.245 490.862 258.457 490.862 261.187C490.862 263.916 493.075 266.129 495.804 266.129Z" fill="#FFF9F6"/>
<path d="M473.235 259.557C471.373 261.865 471.485 265.043 473.485 266.657C475.485 268.271 478.616 267.709 480.478 265.402C482.339 263.094 482.227 259.916 480.227 258.302C478.227 256.688 475.097 257.25 473.235 259.557Z" fill="white"/>
<path d="M467.25 311.45C467.456 319.88 474.116 326.555 482.126 326.359C490.136 326.163 496.462 319.171 496.256 310.741C496.05 302.312 489.39 295.637 481.38 295.833C473.37 296.028 467.044 303.021 467.25 311.45Z" fill="black"/>
<path d="M526.874 314.319C528.766 322.45 536.706 327.55 544.607 325.712C552.509 323.873 557.381 315.791 555.489 307.66C553.597 299.529 545.657 294.428 537.755 296.267C529.854 298.106 524.982 306.188 526.874 314.319Z" fill="black"/>
<path d="M549.606 362.723C543.052 374.524 525.23 382.705 512.076 382.401C498.896 382.076 488.206 376.845 480.004 366.707C468.478 352.474 484.186 337.86 495.47 352.671C497.051 354.755 498.389 356.975 500.61 358.283C507.012 362.054 515.862 362.084 522.538 358.906C526.34 357.097 529.092 353.371 532.24 350.056C540.893 340.947 555.795 351.561 549.606 362.723Z" fill="black"/>
<path d="M536.239 459.347C536.239 465.595 533.758 471.586 529.34 476.004C524.923 480.421 518.931 482.903 512.684 482.903C506.437 482.903 500.445 480.421 496.028 476.004C491.61 471.586 489.128 465.595 489.128 459.347C489.128 453.1 491.61 447.109 496.028 442.691C500.445 438.274 506.437 435.792 512.684 435.792C518.931 435.792 524.923 438.274 529.34 442.691C533.758 447.109 536.239 453.1 536.239 459.347Z" fill="black"/>
<path d="M527.961 541.044C523.18 544.971 517.013 546.811 510.816 546.159C504.619 545.507 498.9 542.416 494.916 537.567C490.933 532.717 489.012 526.507 489.576 520.301C490.14 514.095 493.143 508.403 497.923 504.476C502.704 500.549 508.871 498.709 515.068 499.361C521.265 500.014 526.985 503.104 530.968 507.953C534.951 512.803 536.872 519.013 536.308 525.219C535.744 531.425 532.742 537.117 527.961 541.044Z" fill="black"/>
<path d="M448.994 515.42C448.676 518.554 450.741 521.33 453.607 521.621C456.473 521.912 459.054 519.608 459.372 516.474C459.691 513.341 457.625 510.565 454.759 510.274C451.894 509.983 449.312 512.287 448.994 515.42Z" fill="white"/>
<path d="M536.361 586.948C536.361 593.175 533.887 599.147 529.484 603.55C525.08 607.954 519.108 610.427 512.881 610.427C506.654 610.427 500.682 607.954 496.279 603.55C491.876 599.147 489.402 593.175 489.402 586.948C489.402 580.721 491.876 574.749 496.279 570.346C500.682 565.942 506.654 563.469 512.881 563.469C519.108 563.469 525.08 565.942 529.484 570.346C533.887 574.749 536.361 580.721 536.361 586.948Z" fill="black"/>
<path d="M507.437 458.855C507.452 461.66 509.595 463.923 512.224 463.909C514.852 463.896 516.971 461.61 516.957 458.805C516.942 456 514.799 453.737 512.17 453.751C509.542 453.765 507.423 456.05 507.437 458.855Z" fill="white"/>
<path d="M512.456 526.942C515.143 526.942 517.322 524.763 517.322 522.076C517.322 519.388 515.143 517.209 512.456 517.209C509.768 517.209 507.589 519.388 507.589 522.076C507.589 524.763 509.768 526.942 512.456 526.942Z" fill="white"/>
<path d="M512.775 591.1C515.538 591.1 517.778 588.86 517.778 586.096C517.778 583.333 515.538 581.093 512.775 581.093C510.012 581.093 507.772 583.333 507.772 586.096C507.772 588.86 510.012 591.1 512.775 591.1Z" fill="white"/>
</svg>
