<svg width="512" height="512" viewBox="0 0 512 512" fill="none" xmlns="http://www.w3.org/2000/svg">
<rect width="512" height="512" fill="white"/>
<path d="M203.333 370.309C197.557 370.667 191.227 370.862 185.743 369.941C170.787 367.433 159.888 359.186 153.045 345.198C148.826 336.57 144.649 327.943 140.516 319.316C136.409 310.754 131.228 300.577 131.152 291.94C131.044 279.577 130.993 267.215 131.001 254.852C131.012 246.247 132.54 239.018 135.347 231.388C135.621 230.636 135.762 229.867 135.769 229.079C135.885 215.149 135.928 201.222 135.899 187.299C135.878 169.806 144.451 150.07 155.831 137.639C170.95 121.133 189.483 111.682 211.397 107.585C216.722 106.595 223.875 106.082 232.856 106.046C249.388 105.981 265.927 105.985 282.473 106.057C287.35 106.079 292.042 106.794 296.952 107.358C333.823 111.574 366.044 137.91 374.075 174.694C374.971 178.813 375.423 184.036 375.43 190.366C375.43 203.003 375.423 215.636 375.408 228.266C375.408 230.965 378.053 235.831 378.779 238.877C381.965 252.316 380.99 266.795 380.632 288.233C380.502 296.763 378.649 303.753 375.094 310.874C369.184 322.701 363.302 334.544 357.45 346.401C352.508 356.4 344.759 363.503 334.202 367.708C325.933 370.992 317.241 370.418 308.928 370.32C307.599 370.306 307.422 370.75 308.397 371.653L330.756 392.332C331.016 392.57 331.316 392.69 331.655 392.69C342.551 392.769 353.433 392.74 364.299 392.603C366.966 392.567 368.888 392.874 370.065 393.524C374.151 395.789 373.49 402.639 369.751 404.904C368.544 405.627 366.662 405.988 364.104 405.988C290.659 406.009 217.213 406.002 143.768 405.966C142.077 405.966 140.596 405.002 139.324 403.072C136.571 398.856 139.27 393.015 144.396 392.961C156.094 392.845 167.705 392.718 179.23 392.581C179.705 392.575 180.163 392.394 180.52 392.072L203.702 371.165C204.403 370.537 204.28 370.251 203.333 370.309Z" fill="#021424"/>
<path d="M342.19 181.912C337.631 181.999 334.517 182.783 332.848 184.264" stroke="#EEF5FE" stroke-width="2"/>
<path d="M272.058 147.502C272.079 147.819 272.029 148.04 271.906 148.163C271.812 148.264 271.638 148.271 271.386 148.184C267.972 146.981 264.113 147.545 259.204 147.794C256.245 147.935 253.579 150.677 251.021 153.083C250.746 153.343 250.425 153.48 250.056 153.495L244.562 153.733" stroke="#FEE696" stroke-width="2"/>
<path d="M244.561 153.733C241.902 154.03 239.601 155.594 237.657 158.426" stroke="#FFCE7F" stroke-width="2"/>
<path d="M272.296 147.827C272.375 148.412 271.971 148.69 271.082 148.661C270.913 148.658 270.747 148.702 270.601 148.788C270.456 148.874 270.337 148.999 270.258 149.149C267.831 153.853 262.26 152.628 257.957 153.181C253.564 153.737 249.099 153.921 244.562 153.733" stroke="#FEB417" stroke-width="2"/>
<path d="M241.635 179.864C240.399 179.813 239.406 180.12 238.654 180.785" stroke="#82A3CE" stroke-width="2"/>
<path d="M238.655 180.785L235.935 180.005" stroke="#1077CE" stroke-width="2"/>
<path d="M243.434 180.2C243.535 180.467 243.597 180.695 243.618 180.883C243.64 181.085 243.55 181.287 243.347 181.49C239.305 185.706 235.555 189.531 230.157 191.959C229.995 192.03 229.85 192.137 229.734 192.272C229.618 192.407 229.533 192.567 229.485 192.739C228.532 196.424 226.227 199.3 222.571 201.366" stroke="#8DD3FE" stroke-width="2"/>
<path d="M238.655 180.785C235.02 183.74 231.848 187.064 229.139 190.756C227.86 192.49 225.736 192.718 224.143 194.267C221.917 196.435 219.576 198.744 217.12 201.193" stroke="#8DD3FE" stroke-width="2"/>
<path d="M287.718 201.193L294.709 192.804C295.807 191.489 295.76 190.218 294.568 188.989L294.221 188.632C293.101 187.49 291.981 187.49 290.861 188.632L278.593 201.226" stroke="#8DD3FE" stroke-width="2"/>
<path d="M177.182 346.411L183.034 354.431" stroke="#8493A2" stroke-width="2"/>
<path d="M342.19 181.912C337.631 181.999 334.517 182.783 332.848 184.264C327.689 177.14 320.922 172.209 312.548 169.47C309.969 168.625 306.808 168.213 303.065 168.235C297.061 168.271 291.057 168.329 285.052 168.408C284.655 168.408 284.561 168.242 284.77 167.909C295.468 151.371 284.727 129.695 264.536 129.673C258.683 129.666 252.835 129.68 246.989 129.716C235.653 129.792 226.809 136.36 223.482 147.035C221.22 154.261 222.737 161.226 228.034 167.931C228.294 168.249 228.218 168.408 227.806 168.408C221.332 168.343 214.909 168.278 208.536 168.213C188.312 168.018 174.852 185.565 170.115 203.241C170.072 203.422 169.96 203.552 169.779 203.632L157.825 209.051C157.802 209.059 157.778 209.062 157.754 209.058C157.73 209.055 157.708 209.045 157.69 209.03C157.672 209.016 157.658 208.997 157.652 208.975C157.645 208.954 157.645 208.931 157.652 208.91C164.057 184.34 179.284 161.797 205.447 155.836C208.688 155.099 213.034 150.85 210.888 147.014C208.655 143.018 205.252 141.663 200.678 142.95C176.239 149.81 159.082 166.262 150.249 190.062C149.743 191.428 149.48 191.385 149.458 189.932C149.187 172.19 159.093 153.343 171.687 141.822C187.359 127.495 210.194 119.496 231.328 119.691C246.762 119.829 262.195 119.897 277.628 119.897C297.733 119.886 318.477 125.533 334.343 138.224C339.827 142.603 345.16 147.447 349.17 152.986C355.665 161.945 359.585 172.05 360.929 183.299C361.124 184.918 361.272 186.352 361.373 187.602C361.446 188.484 361.287 188.527 360.897 187.732C359.09 184.098 357.208 180.471 355.25 176.851C350.344 167.769 344.145 160.536 336.652 155.153C329.954 150.352 310.608 139.2 302.501 143.221C298.632 145.139 297.895 150.959 300.984 153.809C301.895 154.647 303.607 155.377 306.121 155.999C320.612 159.586 334.04 169.145 342.19 181.912Z" fill="#FFFFFE"/>
<path d="M272.057 147.501C272.079 147.819 272.029 148.04 271.906 148.163C271.812 148.264 271.638 148.271 271.386 148.184C267.972 146.981 264.113 147.545 259.204 147.794C256.245 147.935 253.579 150.677 251.021 153.083C250.746 153.343 250.425 153.48 250.056 153.495L244.561 153.733C241.903 154.03 239.601 155.594 237.658 158.426C235.078 149.264 238.554 144.51 248.084 144.163C250.656 144.062 255.981 144.051 264.059 144.131C267.354 144.167 270.02 145.291 272.057 147.501Z" fill="#FFFFFE"/>
<path d="M272.058 147.502C272.007 147.791 272.086 147.899 272.296 147.827C272.375 148.412 271.971 148.69 271.082 148.661C270.913 148.658 270.747 148.702 270.601 148.788C270.456 148.874 270.337 148.999 270.258 149.149C267.831 153.853 262.26 152.628 257.957 153.181C253.564 153.737 249.099 153.921 244.562 153.733L250.056 153.495C250.425 153.48 250.746 153.343 251.021 153.083C253.579 150.677 256.245 147.935 259.204 147.794C264.113 147.545 267.972 146.981 271.386 148.184C271.638 148.271 271.812 148.264 271.906 148.163C272.029 148.04 272.079 147.819 272.058 147.502Z" fill="#FCCC2E"/>
<path d="M272.295 147.827C277.725 152.173 273.943 162.956 266.963 162.967C257.13 162.967 250.204 163.014 246.187 163.108C242.567 163.195 239.724 161.634 237.657 158.426C239.601 155.594 241.902 154.03 244.561 153.733C249.099 153.921 253.564 153.737 257.957 153.181C262.259 152.628 267.83 153.853 270.258 149.149C270.336 148.999 270.455 148.874 270.601 148.788C270.746 148.702 270.913 148.658 271.082 148.661C271.97 148.69 272.375 148.412 272.295 147.827Z" fill="#FF9C00"/>
<path d="M241.635 179.864C240.4 179.813 239.406 180.12 238.655 180.785L235.935 180.005C238.008 179.297 239.909 179.25 241.635 179.864Z" fill="#05469D"/>
<path d="M235.934 180.005L238.655 180.785C235.02 183.74 231.848 187.064 229.139 190.756C227.86 192.49 225.736 192.718 224.143 194.268C221.917 196.435 219.576 198.744 217.12 201.193L186.524 201.421C186.38 201.421 186.238 201.389 186.11 201.325C185.981 201.261 185.869 201.168 185.783 201.053C185.696 200.938 185.638 200.805 185.612 200.664C185.587 200.522 185.595 200.377 185.635 200.239C188.41 191.005 197.405 180.492 207.972 180.482C217.307 180.467 226.628 180.308 235.934 180.005Z" fill="#1BA7FE"/>
<path d="M241.635 179.864C242.35 180.319 242.95 180.431 243.434 180.2C243.535 180.467 243.597 180.695 243.618 180.883C243.64 181.085 243.55 181.287 243.348 181.49C239.305 185.706 235.555 189.531 230.158 191.959C229.995 192.03 229.851 192.138 229.734 192.273C229.618 192.407 229.533 192.567 229.486 192.739C228.532 196.424 226.227 199.3 222.571 201.366L217.12 201.193C219.576 198.744 221.917 196.435 224.143 194.268C225.736 192.718 227.86 192.49 229.139 190.756C231.848 187.064 235.02 183.74 238.655 180.785C239.406 180.12 240.4 179.813 241.635 179.864Z" fill="#FFFFFE"/>
<path d="M287.718 201.193L294.709 192.804C295.807 191.489 295.76 190.218 294.568 188.989L294.221 188.632C293.101 187.49 291.981 187.49 290.861 188.632L278.592 201.225L222.571 201.366C226.227 199.3 228.532 196.424 229.485 192.739C229.533 192.567 229.618 192.407 229.734 192.272C229.85 192.138 229.995 192.03 230.157 191.959C235.555 189.531 239.305 185.706 243.347 181.49C243.55 181.287 243.64 181.085 243.618 180.883C243.597 180.695 243.535 180.467 243.434 180.2C262.885 180.099 282.335 180.164 301.786 180.395C312.981 180.525 322.118 190.333 326.746 199.665C326.823 199.818 326.861 199.99 326.853 200.162C326.846 200.334 326.795 200.501 326.705 200.648C326.615 200.795 326.489 200.916 326.338 201C326.188 201.084 326.018 201.128 325.846 201.128L287.718 201.193Z" fill="#1BA7FE"/>
<path d="M342.19 181.912C345.196 186.363 347.822 191.453 350.069 197.183C351.326 200.38 352.161 204.444 353.505 207.934C353.794 208.671 353.577 208.877 352.855 208.552L342.992 204.141C342.255 203.809 341.829 203.241 341.713 202.439C340.803 196.229 336.522 189.531 332.848 184.264C334.517 182.783 337.631 181.999 342.19 181.912Z" fill="#DDEAFE"/>
<path d="M287.718 201.193L278.593 201.226L290.861 188.632C291.981 187.49 293.101 187.49 294.221 188.632L294.568 188.989C295.76 190.218 295.807 191.489 294.709 192.804L287.718 201.193Z" fill="#FFFFFE"/>
<path d="M323.137 215.011C344.119 215.109 366.25 229.513 366.283 252.652C366.297 266.105 366.272 279.559 366.207 293.012C366.185 296.611 362.685 297.705 359.433 297.705C289.167 297.561 219.002 297.633 148.938 297.922C148.385 297.924 147.837 297.816 147.325 297.605C146.814 297.394 146.349 297.085 145.957 296.694C145.566 296.304 145.255 295.84 145.043 295.329C144.831 294.818 144.722 294.27 144.722 293.717C144.751 282.214 144.841 270.661 144.993 259.057C145.101 250.683 145.744 244.679 146.922 241.044C149.516 233.024 154.602 226.673 162.182 221.991C169.602 217.403 177.915 215.087 187.12 215.044C232.459 214.82 277.798 214.809 323.137 215.011Z" fill="#FFFFFE"/>
<path d="M177.182 346.411L183.034 354.431C173.042 350.747 169.042 345.143 164.1 334.977C160.155 326.87 156.163 318.908 152.124 311.09C151.626 310.129 151.918 309.634 153.002 309.605L155.376 309.54C156.532 309.504 157.384 309.992 157.933 311.004L177.182 346.411Z" fill="#FFFFFE"/>
<path d="M183.034 354.431L177.182 346.411C180.361 346.043 185.119 346.122 191.455 346.65C197.922 347.184 212.976 347.152 236.617 346.552C238.836 346.502 242.867 346.549 248.712 346.693C254.121 346.834 259.897 346.401 264.861 346.509C280.323 346.82 299.116 346.971 321.24 346.964C327.642 346.957 332.895 345.096 336.999 341.383C338.986 339.583 341.778 335.23 345.377 328.323C348.223 322.875 351.222 317.322 354.372 311.665C355.145 310.285 356.323 309.602 357.905 309.616L359.184 309.638C360.644 309.653 360.958 310.263 360.127 311.47C357.237 315.668 354.777 320.267 352.746 325.266C351.749 327.705 349.842 330.057 349.04 331.986C345.16 341.328 338.039 351.852 328.285 354.908C326.045 355.616 322.747 355.996 318.39 356.046C281.801 356.48 245.208 356.516 208.612 356.155C202.445 356.09 195.097 356.512 189.83 356.437C187.33 356.393 185.065 355.725 183.034 354.431Z" fill="#092645"/>
<path d="M227.599 327.327C227.592 328.71 227.036 330.033 226.053 331.005C225.07 331.978 223.741 332.52 222.359 332.513L186.724 332.326C186.039 332.323 185.362 332.184 184.731 331.919C184.1 331.654 183.527 331.267 183.046 330.78C182.564 330.293 182.183 329.717 181.924 329.083C181.666 328.449 181.535 327.77 181.538 327.086L181.54 326.804C181.547 325.421 182.103 324.098 183.086 323.126C184.069 322.153 185.397 321.611 186.78 321.618L222.415 321.805C223.099 321.808 223.777 321.947 224.408 322.212C225.039 322.477 225.611 322.864 226.093 323.351C226.575 323.838 226.955 324.414 227.214 325.048C227.473 325.682 227.604 326.361 227.6 327.045L227.599 327.327Z" fill="#FFAC01"/>
<path d="M330.42 327.259C330.417 328.653 329.861 329.989 328.874 330.973C327.886 331.957 326.548 332.508 325.154 332.506L288.023 332.441C287.333 332.44 286.65 332.303 286.012 332.038C285.375 331.772 284.796 331.384 284.309 330.895C283.822 330.406 283.436 329.826 283.173 329.188C282.909 328.55 282.775 327.866 282.776 327.176L282.776 326.894C282.779 325.5 283.335 324.164 284.322 323.18C285.31 322.196 286.648 321.644 288.042 321.647L325.173 321.711C325.863 321.713 326.546 321.85 327.184 322.115C327.821 322.38 328.4 322.768 328.887 323.257C329.374 323.746 329.761 324.327 330.024 324.965C330.287 325.603 330.421 326.287 330.42 326.977L330.42 327.259Z" fill="#FF9C00"/>
<path d="M219.287 373.821C219.215 373.821 219.201 373.795 219.244 373.745L221.693 370.764C221.751 370.693 221.824 370.636 221.906 370.597C221.989 370.558 222.079 370.537 222.17 370.537C243.673 370.544 265.132 370.555 286.548 370.569C289.178 370.569 291.104 371.422 292.325 373.127C292.614 373.532 292.509 373.734 292.01 373.734L219.287 373.821Z" fill="#FFFFFE"/>
<path d="M309.037 392.31L202.196 392.332C202.115 392.333 202.036 392.31 201.969 392.266C201.901 392.222 201.848 392.159 201.815 392.085C201.783 392.011 201.773 391.93 201.787 391.85C201.8 391.771 201.837 391.697 201.892 391.638L206.433 386.891C206.471 386.851 206.516 386.819 206.567 386.797C206.617 386.774 206.671 386.762 206.726 386.761L304.767 386.826C304.823 386.826 304.88 386.837 304.932 386.859C304.984 386.882 305.031 386.915 305.07 386.956L309.34 391.617C309.395 391.675 309.432 391.749 309.446 391.829C309.459 391.908 309.45 391.99 309.417 392.064C309.385 392.137 309.332 392.2 309.264 392.244C309.196 392.288 309.117 392.311 309.037 392.31Z" fill="#FFFFFE"/>
<path d="M299.803 273.654C299.806 275.12 299.52 276.573 298.961 277.928C298.402 279.283 297.582 280.515 296.548 281.554C295.513 282.592 294.284 283.417 292.93 283.98C291.577 284.543 290.126 284.835 288.66 284.837L222.483 284.953C219.522 284.958 216.681 283.787 214.584 281.697C212.487 279.607 211.306 276.77 211.3 273.809L211.299 273.18C211.297 271.714 211.583 270.262 212.142 268.907C212.7 267.552 213.52 266.32 214.555 265.281C215.59 264.243 216.819 263.418 218.173 262.855C219.526 262.292 220.977 262 222.443 261.998L288.62 261.882C291.58 261.877 294.422 263.048 296.519 265.138C298.616 267.228 299.797 270.065 299.802 273.026L299.803 273.654Z" fill="#021424"/>
</svg>
