<svg width="1024" height="1024" viewBox="0 0 1024 1024" fill="none" xmlns="http://www.w3.org/2000/svg">
<rect width="1024" height="1024" fill="white"/>
<path d="M453.13 468.745C431.704 457.255 410.937 456.024 389.349 468.102C379.679 473.49 370.848 464.498 373.364 454.508C375.362 446.568 376.95 438.254 374.291 430.44C369.064 415.133 353.614 405.838 338.271 403.072C329.778 401.538 323.32 399.486 323.213 390.227C323.189 387.67 324.2 385.237 326.246 382.93C332.133 376.311 337.182 371.619 341.428 362.77C344.586 356.204 346.549 344.911 346.531 336.972C346.477 320.879 342.552 308.016 337.646 292.958C334.471 283.199 344.069 277.24 352.633 281.094C354.666 282.01 358.354 284.27 363.694 287.873C366.001 289.431 371.853 291.227 381.249 293.261C404.996 298.4 428.581 292.441 443.818 272.851C447.778 267.767 452.631 260.077 460.534 264.145C464.638 266.25 465.815 269.604 466.029 274.332C466.761 290.246 467.956 303.556 474.843 317.953C481.694 332.279 500.213 350.941 517.947 345.232C546.867 335.955 555.751 306.41 557.464 278.989C557.785 273.779 558.279 270.467 558.945 269.051C562.709 261.094 572.825 261.915 577.607 269.105C588.537 285.566 603.69 294.136 623.065 294.813C639.705 295.384 654.905 291.067 668.667 281.861C677.551 275.92 688.755 282.896 685.348 293.832C683.932 298.376 682.493 302.919 681.03 307.463C673.805 329.71 675.232 354.955 690.432 373.688C693.626 377.613 700.138 383.626 701.101 387.854C702.778 395.347 695.963 400.592 689.38 401.913C673.894 405.053 658.533 409.87 651.129 425.124C646.026 435.632 647.846 446.122 650.754 457.077C653.163 466.158 642.708 471.813 635.108 467.745C625.545 462.607 617.588 459.146 606.741 459.111C594.442 459.087 583.203 462.637 573.021 469.762C572.925 469.826 572.849 469.918 572.803 470.024C572.757 470.131 572.743 470.248 572.761 470.363C572.78 470.477 572.832 470.584 572.909 470.671C572.987 470.757 573.088 470.819 573.2 470.85C579.426 472.545 586.366 473.972 591.968 476.238C616.97 486.36 634.192 503.855 643.636 528.726C647.222 538.181 649.559 552.276 653.002 561.91C657.462 574.41 664.92 585.811 675.375 596.111C681.762 602.391 685.401 606.601 693.216 610.758C707.595 618.412 719.121 623.176 726.364 639.107C735.213 658.572 725.704 679.553 711.003 693.13C695.035 707.884 681.726 715.145 659.193 725.208C658.087 725.707 657.195 726.778 656.517 728.419C646.58 752.576 623.761 759.587 600.318 749.043C599.774 748.801 599.164 748.75 598.587 748.9C594.282 750.054 587.574 751.963 578.463 754.627C562.299 759.361 545.094 760.997 526.849 759.534C521.122 759.07 515.467 757.232 509.811 755.591C509.216 755.412 508.639 755.46 508.08 755.734C484.994 766.991 451.275 757.982 427.636 749.347C427.065 749.144 426.512 749.168 425.977 749.418C403.836 759.766 376.771 752.736 367.03 729.133C366.673 728.253 365.627 727.402 363.89 726.581C341.821 716.073 318.753 702.782 303.98 684.352C292.081 669.508 288.673 647.457 301.483 631.953C313.276 617.716 328.244 615.789 341.928 605.62C358.841 593.06 373.31 576.468 377.128 555.987C378.96 546.15 380.797 538.497 382.641 533.025C389.944 511.295 403.188 494.198 422.373 481.733C432.703 475.025 442.033 472.812 453.006 469.779C453.898 469.53 453.939 469.185 453.13 468.745Z" fill="#010112"/>
<path d="M584.314 311.174C585.908 319.499 584.422 327.528 579.854 335.259" stroke="#85ECDB" stroke-width="2"/>
<path d="M574.77 344.911C568.68 352.392 562.977 358.327 557.66 362.716C548.431 370.316 537.584 375.074 525.119 376.989" stroke="#85ECDB" stroke-width="2"/>
<path d="M626.312 322.628C626.122 322.794 625.997 322.99 625.937 323.216C625.818 323.692 626.003 323.924 626.49 323.912C627.299 323.9 627.87 324.204 628.203 324.822C628.857 326.071 629.714 326.933 630.772 327.409" stroke="#85ECDB" stroke-width="2"/>
<path d="M497.626 371.601C485.006 380.022 471.709 387.337 457.733 393.545" stroke="#15B0B1" stroke-width="2"/>
<path d="M386.245 323.181C387.292 323.026 387.601 322.318 387.173 321.057" stroke="#85ECDB" stroke-width="2"/>
<path d="M379.465 338.381C379.025 339.345 378.3 339.761 377.289 339.63C376.468 339.523 375.475 338.803 374.309 337.471" stroke="#85ECDB" stroke-width="2"/>
<path d="M402.855 378.059C391.413 374.099 379.87 371.066 368.225 368.96" stroke="#15B0B1" stroke-width="2"/>
<path d="M652.181 356.632C642.833 366.171 630.54 373.48 615.304 378.559" stroke="#15B0B1" stroke-width="2"/>
<path d="M567.919 417.72C577.25 417.862 596.571 417.773 601.406 408.532C603.631 404.262 605.73 399.795 607.704 395.133" stroke="#15B0B1" stroke-width="2"/>
<path d="M529.472 423.554C528.08 430.868 516.894 427.336 511.203 428.977C498.928 432.51 494.593 442.768 492.72 454.632C492.626 455.219 492.325 455.753 491.871 456.139C491.416 456.525 490.838 456.737 490.24 456.738L484.316 456.702" stroke="#FCA6A6" stroke-width="2"/>
<path d="M484.316 456.702C483.841 456.226 483.395 455.893 482.978 455.703" stroke="#C7A3B1" stroke-width="2"/>
<path d="M545.1 446.586L544.886 451.136C544.863 451.612 544.619 451.885 544.155 451.956C543.144 452.099 542.502 452.622 542.228 453.526C542.097 453.966 541.847 454.329 541.479 454.615C540.658 455.245 539.677 456.357 538.535 457.951C529.846 470.136 506.957 468.691 494.397 463.589C494.206 463.505 492.791 463.059 490.15 462.251C487.367 461.382 485.423 459.533 484.316 456.702" stroke="#CA4B57" stroke-width="2"/>
<path d="M470.989 498.646C471.56 501.286 471.007 503.635 469.33 505.693C468.949 506.157 468.468 506.448 467.885 506.567C450.686 510.171 438.079 519.092 430.062 533.329C428.04 536.933 425.53 544.004 422.533 554.542C419.465 565.317 415.771 575.873 411.454 586.209C410.152 589.296 407.707 592.329 406.334 595.808C406.131 596.331 405.769 596.682 405.245 596.86C404.294 597.205 403.217 597.372 402.016 597.36" stroke="#FCDBB2" stroke-width="2"/>
<path d="M391.115 607.922C386.822 610.063 382.932 613.107 379.448 617.056" stroke="#FCDBB2" stroke-width="2"/>
<path d="M445.191 634.076C445.762 639.179 444.37 641.528 441.016 641.124" stroke="#FF4437" stroke-width="2"/>
<path d="M477.412 545.496C477.352 550.527 477.21 555.553 476.984 560.572C476.466 572.597 470.757 585.549 467.314 597.128C465.839 602.088 462.735 609.242 458.001 618.59" stroke="#FF4437" stroke-width="2"/>
<path d="M617.749 625.941C617.879 622.968 616.862 618.971 614.698 613.952C607.918 598.145 598.177 572.989 591.647 551.99C588.769 542.725 586.206 535.922 583.958 531.58C574.217 512.681 559.111 502.952 538.642 502.393" stroke="#FF4437" stroke-width="2"/>
<path d="M536.555 661.891C540.254 646.417 540.242 631.525 536.519 617.217C534.437 609.177 531.274 598.062 527.027 583.872C523.293 571.384 521.479 562.546 521.586 557.361C521.836 544.711 527.688 526.888 539.926 520.216C547.669 515.988 542.192 508.744 538.107 504.105C537.702 503.654 537.155 503.374 536.465 503.267" stroke="#FCDBB2" stroke-width="2"/>
<path d="M432.81 658.911C432.988 660.624 432.548 662.789 431.49 665.405" stroke="#D2A6AF" stroke-width="2"/>
<path d="M431.489 665.405C415.302 657.686 398.704 651.65 381.695 647.297C374.797 645.536 368.273 644.525 362.124 644.264C351.55 643.824 340.608 644.603 329.297 646.601" stroke="#FCDBB2" stroke-width="2"/>
<path d="M431.49 665.405C431.073 669.818 429.67 671.822 427.279 671.417" stroke="#FF4437" stroke-width="2"/>
<path d="M659.086 648.973L650.165 642.14" stroke="#FF4437" stroke-width="2"/>
<path d="M650.166 642.141C649.761 639.631 648.774 638.561 647.204 638.929" stroke="#D2A6AF" stroke-width="2"/>
<path d="M650.165 642.14C645.717 643.698 641.417 645.393 637.266 647.225C628.542 651.079 619.461 653.327 610.13 657.038C581.264 668.491 554.484 680.034 530.328 697.59C528.496 698.922 524.755 702.597 519.106 708.616C515.894 712.041 514.866 715.514 516.019 719.035" stroke="#FCDBB2" stroke-width="2"/>
<path d="M417.431 690.079C422.765 699.82 418.073 712.434 409.456 718.357C406.084 720.658 401.106 721.8 396.967 723.941" stroke="#C98063" stroke-width="2"/>
<path d="M395.522 723.103C396.414 722.591 396.729 721.937 396.468 721.14C392.959 710.293 392.739 699.784 395.807 689.615C395.982 689.025 396.345 688.505 396.842 688.134C399.97 685.875 400.339 684.632 397.948 684.406" stroke="#FCDBB2" stroke-width="2"/>
<path d="M609.238 724.744C613.294 722.662 616.951 719.754 620.21 716.02C625.634 709.793 631.914 693.29 624.421 686.975C623.981 686.594 623.469 686.38 622.887 686.332L617.356 685.815" stroke="#FF4437" stroke-width="2"/>
<path d="M600.907 719.641C602.75 716.085 603.523 711.928 603.226 707.171C603.012 703.828 603.071 701.111 603.404 699.017C603.821 696.377 604.207 693.641 604.564 690.81" stroke="#FCDBB2" stroke-width="2"/>
<path d="M584.315 311.173C585.909 319.499 584.422 327.528 579.855 335.259C577.202 338.018 575.507 341.235 574.77 344.911C568.68 352.392 562.977 358.327 557.66 362.716C548.431 370.316 537.583 375.074 525.119 376.989L524.994 372.011C524.982 371.381 525.285 370.994 525.904 370.851C547.527 365.892 567.188 345.589 574.806 325.5C576.304 321.551 577.458 316.038 578.267 308.961C578.338 308.236 578.725 307.974 579.426 308.176C581.246 308.711 582.876 309.711 584.315 311.173Z" fill="#F9FEFF"/>
<path d="M497.626 371.601C485.006 380.022 471.709 387.336 457.733 393.545L449.295 385.124C449.119 384.948 448.98 384.74 448.885 384.51C448.79 384.281 448.741 384.035 448.742 383.786L448.26 343.216C448.248 342.265 448.049 341.327 447.674 340.453C447.299 339.58 446.756 338.789 446.074 338.126C445.393 337.463 444.588 336.941 443.705 336.59C442.822 336.239 441.878 336.065 440.927 336.079L438.893 336.115C437.357 336.139 435.891 336.765 434.813 337.86C433.735 338.955 433.131 340.43 433.131 341.967L433.149 366.819C433.149 368.627 432.518 368.883 431.258 367.587C417.52 353.385 403.705 339.017 389.813 324.483C389.052 323.686 387.862 323.252 386.245 323.181C387.292 323.026 387.601 322.318 387.173 321.057C408.1 321.949 424.032 322.503 441.73 309.586C441.882 309.478 442.06 309.412 442.245 309.392C442.43 309.373 442.616 309.402 442.786 309.475C442.955 309.549 443.102 309.666 443.211 309.814C443.32 309.961 443.387 310.135 443.407 310.317C445.887 330.156 458.911 349.728 474.218 361.057C479.166 364.732 486.969 368.247 497.626 371.601Z" fill="#10DAB7"/>
<path d="M584.314 311.174C591.023 313.814 597.285 317.935 603.904 319.541C611.207 321.301 618.676 322.33 626.312 322.628C626.122 322.794 625.997 322.99 625.937 323.216C625.818 323.692 626.003 323.924 626.49 323.912C627.299 323.9 627.87 324.204 628.203 324.822C628.857 326.071 629.714 326.933 630.772 327.409L593.627 368.015C593.417 368.241 593.143 368.399 592.842 368.467C592.541 368.535 592.226 368.511 591.939 368.397C591.651 368.283 591.405 368.085 591.232 367.829C591.059 367.573 590.968 367.271 590.969 366.962C591.005 360.777 591.165 354.509 591.451 348.158C591.826 339.594 590.594 332.743 579.854 335.259C584.422 327.528 585.908 319.499 584.314 311.174Z" fill="#10DAB7"/>
<path d="M387.172 321.058C387.601 322.318 387.291 323.026 386.245 323.181C377.842 322.877 375.005 332.244 379.465 338.381C379.025 339.345 378.3 339.761 377.289 339.63C376.468 339.523 375.475 338.803 374.309 337.471L372.168 318.132C372.16 318.033 372.175 317.934 372.212 317.843C372.25 317.751 372.308 317.67 372.383 317.606C372.458 317.541 372.547 317.495 372.643 317.472C372.739 317.449 372.839 317.449 372.935 317.472L387.172 321.058Z" fill="#F9FEFF"/>
<path d="M630.772 327.409C629.714 326.933 628.857 326.071 628.203 324.822C627.87 324.203 627.299 323.9 626.49 323.912C626.003 323.924 625.818 323.692 625.937 323.216C625.997 322.99 626.122 322.794 626.312 322.628C634.364 322.211 642.416 320.617 650.469 317.846C650.595 317.803 650.73 317.792 650.861 317.815C650.992 317.838 651.115 317.895 651.219 317.978C651.322 318.062 651.402 318.171 651.452 318.295C651.502 318.418 651.52 318.552 651.503 318.685L649.559 333.51C649.368 334.938 649.154 334.938 648.916 333.51C647.489 324.965 636.41 318.595 630.772 327.409Z" fill="#F9FEFF"/>
<path d="M652.182 356.632C642.833 366.171 630.54 373.48 615.304 378.559L608.882 378.969C608.66 378.988 608.438 378.938 608.246 378.827C608.053 378.716 607.899 378.548 607.803 378.346C607.706 378.144 607.673 377.917 607.706 377.694C607.739 377.471 607.838 377.262 607.99 377.096C620.514 363.572 633.449 347.141 648.792 337.471C649.363 337.114 649.696 337.275 649.791 337.953L652.182 356.632Z" fill="#10DAB7"/>
<path d="M374.309 337.471C375.475 338.803 376.468 339.523 377.289 339.63C378.299 339.761 379.025 339.345 379.465 338.381C391.793 352.208 403.354 365.446 417.502 377.363C419.69 379.207 419.363 379.962 416.521 379.629L402.855 378.059C391.413 374.099 379.87 371.066 368.225 368.96C373.203 359.416 373.453 348.907 374.309 337.471Z" fill="#10DAB7"/>
<path d="M574.77 344.911L575.02 382.823C575.025 383.479 574.9 384.13 574.652 384.74C574.404 385.349 574.038 385.904 573.575 386.373L555.234 404.785C555.024 404.996 554.743 405.122 554.444 405.139C554.144 405.155 553.848 405.061 553.611 404.874C545.475 398.416 536.323 394.075 526.153 391.85C525.356 391.684 524.958 391.19 524.958 390.37L525.119 376.989C537.583 375.074 548.431 370.316 557.66 362.716C562.977 358.327 568.68 352.392 574.77 344.911Z" fill="#10DAB7"/>
<path d="M652.182 356.632C653.038 359.261 654.245 362.847 655.803 367.39C657.421 372.124 659.942 376.662 663.368 381.003C663.508 381.181 663.603 381.391 663.644 381.615C663.684 381.838 663.669 382.068 663.601 382.284C663.532 382.501 663.412 382.697 663.25 382.856C663.088 383.015 662.89 383.133 662.672 383.197C640.496 389.763 622.566 408.103 621.442 431.76C621.428 431.996 621.364 432.225 621.255 432.434C621.145 432.643 620.993 432.826 620.807 432.971C620.621 433.116 620.407 433.22 620.178 433.276C619.949 433.332 619.711 433.338 619.479 433.295C603.315 430.155 588.579 431.314 574.698 440.717C574.514 440.841 574.303 440.919 574.082 440.944C573.861 440.97 573.637 440.942 573.43 440.864C573.222 440.785 573.036 440.658 572.887 440.492C572.738 440.327 572.632 440.129 572.575 439.914C571.172 434.205 569.406 428.448 567.277 422.644C566.944 421.74 566.813 420.907 566.884 420.146C567.027 418.826 567.372 418.017 567.919 417.72C577.25 417.862 596.571 417.773 601.406 408.532C603.63 404.262 605.73 399.795 607.704 395.133C612.022 395.204 616.839 395.252 622.155 395.276C629.809 395.311 637.052 387.64 629.095 381.467C625.313 378.541 620.716 377.572 615.304 378.559C630.54 373.48 642.833 366.171 652.182 356.632Z" fill="#1985AA"/>
<path d="M368.226 368.96C379.87 371.066 391.413 374.099 402.855 378.059C396.039 380.426 393.179 384.018 394.273 388.835C395.284 393.272 398.246 395.514 403.158 395.561C412.483 395.644 421.106 395.222 429.027 394.295C432.578 393.884 434.772 394.384 437.163 397.292C444.573 406.307 452.381 414.776 460.588 422.697C461.066 423.155 461.375 423.761 461.465 424.418C461.556 425.075 461.423 425.744 461.087 426.319C458.816 430.208 457.21 434.359 456.27 438.772C456.218 439.009 456.116 439.231 455.972 439.425C455.827 439.619 455.643 439.779 455.433 439.894C455.223 440.01 454.991 440.078 454.754 440.093C454.516 440.109 454.279 440.072 454.058 439.985C450.74 438.701 447.267 437.416 443.639 436.131C431.174 431.695 418.293 431.154 404.996 434.508C404.654 434.592 404.298 434.6 403.953 434.532C403.608 434.464 403.282 434.322 402.999 434.114C402.715 433.907 402.479 433.64 402.31 433.332C402.14 433.024 402.04 432.682 402.016 432.331C401.16 419.771 396.628 408.995 388.421 400.004C381.41 392.314 370.01 387.925 360.233 383.679C359.341 383.287 359.257 382.763 359.983 382.109L364.158 378.327C364.534 377.987 364.826 377.566 365.014 377.096L368.226 368.96Z" fill="#1985AA"/>
<path d="M497.626 371.601L496.68 390.566C496.648 391.146 496.451 391.704 496.112 392.173C495.774 392.641 495.308 393 494.771 393.206C486.612 396.346 479.565 401.116 473.63 407.515C473.367 407.798 473.048 408.023 472.692 408.173C472.337 408.324 471.953 408.398 471.567 408.389C471.181 408.381 470.801 408.291 470.452 408.125C470.103 407.958 469.794 407.72 469.544 407.425L457.733 393.545C471.709 387.337 485.006 380.022 497.626 371.601Z" fill="#1985AA"/>
<path d="M607.704 395.133C605.73 399.796 603.631 404.262 601.406 408.532C596.571 417.773 577.25 417.862 567.919 417.72L589.15 395.419C589.566 394.978 590.071 394.717 590.666 394.634C595.959 393.92 601.638 394.086 607.704 395.133Z" fill="#10DAB7"/>
<path d="M529.472 423.554C528.08 430.868 516.894 427.336 511.203 428.977C498.928 432.51 494.593 442.768 492.719 454.632C492.626 455.219 492.325 455.753 491.871 456.139C491.416 456.525 490.838 456.737 490.239 456.738L484.316 456.702C483.841 456.226 483.394 455.893 482.978 455.703C480.32 449.441 483.103 439.414 485.904 433.848C492.969 419.807 508.526 412.492 524.084 416.417C526.974 417.155 528.77 419.533 529.472 423.554Z" fill="#F9FEFF"/>
<path d="M529.472 423.554C538.606 427.978 543.816 435.656 545.1 446.586L544.886 451.136C544.863 451.611 544.619 451.885 544.155 451.956C543.144 452.099 542.502 452.622 542.228 453.526C542.097 453.966 541.847 454.329 541.479 454.615C540.658 455.245 539.677 456.357 538.535 457.951C529.846 470.136 506.957 468.691 494.397 463.589C494.206 463.505 492.791 463.059 490.15 462.251C487.367 461.382 485.423 459.533 484.316 456.702L490.24 456.738C490.838 456.737 491.416 456.525 491.871 456.139C492.325 455.753 492.626 455.219 492.72 454.632C494.593 442.768 498.928 432.51 511.203 428.977C516.894 427.336 528.08 430.868 529.472 423.554Z" fill="#FF4D4C"/>
<path d="M545.1 446.586C547.545 471.367 519.784 485.961 498.91 476.024C491.798 472.634 486.463 466.491 482.907 457.594C482.764 457.261 482.711 456.946 482.746 456.649C482.782 456.28 482.859 455.965 482.978 455.703C483.395 455.893 483.841 456.226 484.316 456.702C485.422 459.533 487.367 461.382 490.15 462.251C492.791 463.059 494.206 463.505 494.396 463.589C506.956 468.691 529.846 470.136 538.535 457.951C539.677 456.357 540.658 455.245 541.479 454.615C541.847 454.329 542.097 453.966 542.228 453.526C542.502 452.622 543.144 452.099 544.155 451.956C544.619 451.885 544.862 451.612 544.886 451.136L545.1 446.586Z" fill="#944862"/>
<path d="M470.989 498.646C471.56 501.286 471.007 503.635 469.33 505.693C468.949 506.157 468.467 506.448 467.885 506.567C450.686 510.171 438.078 519.092 430.062 533.329C428.04 536.933 425.53 544.003 422.533 554.542C419.464 565.317 415.771 575.873 411.454 586.209C410.151 589.296 407.707 592.329 406.334 595.808C406.131 596.331 405.769 596.682 405.245 596.86C404.294 597.205 403.217 597.372 402.016 597.36L391.115 607.922C386.822 610.062 382.932 613.107 379.447 617.056L371.08 615.7C371.002 615.689 370.93 615.656 370.87 615.605C370.811 615.554 370.767 615.487 370.745 615.412C370.722 615.337 370.722 615.257 370.743 615.181C370.764 615.106 370.807 615.038 370.866 614.987C385.406 602.105 397.984 587.601 402.801 567.78C404.323 561.535 405.834 555.291 407.333 549.047C413.399 523.784 428.498 506.532 452.631 497.29C456.698 495.732 461.819 494.953 467.992 494.953C468.241 494.954 468.484 495.032 468.685 495.176C468.887 495.32 469.037 495.523 469.116 495.756C469.568 497.088 470.192 498.051 470.989 498.646Z" fill="#F9FEFF"/>
<path d="M470.989 498.646L491.97 506.157C492.094 506.202 492.206 506.276 492.296 506.372C492.387 506.469 492.454 506.585 492.492 506.713C492.53 506.841 492.538 506.976 492.515 507.109C492.493 507.241 492.441 507.368 492.363 507.477C484.013 518.61 479.029 531.283 477.412 545.496C477.352 550.527 477.21 555.553 476.984 560.572C476.466 572.597 470.757 585.549 467.314 597.128C465.839 602.088 462.735 609.242 458.001 618.59C440.398 611.026 422.545 604.056 404.443 597.681C403.931 597.491 403.122 597.384 402.016 597.36C403.217 597.372 404.294 597.205 405.245 596.86C405.769 596.682 406.131 596.331 406.334 595.808C407.707 592.329 410.152 589.296 411.454 586.209C415.771 575.873 419.465 565.317 422.533 554.542C425.53 544.004 428.04 536.933 430.062 533.329C438.079 519.092 450.686 510.171 467.885 506.567C468.468 506.448 468.949 506.157 469.33 505.693C471.007 503.635 471.56 501.286 470.989 498.646Z" fill="#FEB864"/>
<path d="M617.749 625.941C617.879 622.968 616.862 618.971 614.698 613.952C607.918 598.145 598.177 572.989 591.647 551.99C588.769 542.725 586.206 535.922 583.958 531.58C574.217 512.681 559.111 502.952 538.642 502.393C579.034 488.173 612.503 516.202 620.514 554.577C622.958 566.245 625.688 577.271 631.647 587.137C638.081 597.818 646.24 606.815 656.124 614.13C657.587 615.201 657.415 615.778 655.607 615.861C652.627 615.968 649.309 616.182 646.294 617.021C636.434 619.744 626.919 622.718 617.749 625.941Z" fill="#AA4D5F"/>
<path d="M538.642 502.393C559.111 502.952 574.217 512.681 583.958 531.58C586.206 535.922 588.769 542.725 591.647 551.99C598.177 572.989 607.918 598.145 614.698 613.952C616.862 618.971 617.879 622.968 617.749 625.941C589.346 635.563 562.281 647.546 536.555 661.89C540.254 646.416 540.242 631.525 536.519 617.217C534.437 609.177 531.274 598.062 527.027 583.872C523.293 571.383 521.479 562.546 521.586 557.361C521.836 544.711 527.688 526.888 539.926 520.216C547.669 515.987 542.192 508.744 538.107 504.105C537.702 503.653 537.155 503.374 536.465 503.267C536.989 503.219 537.714 502.928 538.642 502.393Z" fill="#FEB864"/>
<path d="M536.465 503.267C537.155 503.374 537.702 503.654 538.107 504.105C542.192 508.744 547.669 515.988 539.926 520.216C527.688 526.888 521.836 544.711 521.586 557.361C521.479 562.546 523.293 571.384 527.027 583.872C531.274 598.062 534.437 609.177 536.519 617.217C540.242 631.525 540.254 646.417 536.555 661.891L521.943 670.65C521.875 670.695 521.795 670.717 521.715 670.714C521.634 670.711 521.556 670.683 521.492 670.634C521.427 670.586 521.38 670.518 521.355 670.441C521.33 670.364 521.33 670.282 521.354 670.204C524.672 658.703 525.963 647.089 525.226 635.361C524.833 629.152 522.936 620.274 519.534 608.725C516.299 597.723 513.225 586.667 510.311 575.558C507.539 565.008 506.302 556.665 506.6 550.528C507.527 531.705 518.268 511.741 536.465 503.267Z" fill="#F9FEFF"/>
<path d="M477.412 545.496C477.376 558.788 478.304 573.631 482.425 586.62C486.184 598.466 490.014 610.283 493.915 622.069C495.187 625.947 495.669 629.557 495.36 632.899C495.241 634.255 494.557 634.659 493.308 634.112L458.001 618.59C462.735 609.242 465.839 602.088 467.314 597.128C470.757 585.549 476.466 572.597 476.984 560.572C477.21 555.553 477.352 550.527 477.412 545.496Z" fill="#AA4D5F"/>
<path d="M391.115 607.922C390.675 608.457 390.247 608.849 389.831 609.099C389.617 609.228 389.443 609.413 389.33 609.635C389.216 609.857 389.166 610.107 389.187 610.355C389.207 610.604 389.297 610.842 389.445 611.042C389.594 611.243 389.795 611.398 390.027 611.49L445.191 634.076C445.762 639.179 444.371 641.528 441.017 641.124C415.522 629.081 398.18 622.605 379.448 617.056C382.932 613.107 386.822 610.063 391.115 607.922Z" fill="#FEB864"/>
<path d="M445.191 634.076C446.321 633.85 447.552 634.106 448.884 634.844C463.621 643.015 478.512 649.735 493.558 655.004C494.819 655.456 495.467 656.354 495.503 657.698L495.734 666.261C495.77 667.582 495.193 667.95 494.004 667.368L441.016 641.124C444.37 641.528 445.762 639.179 445.191 634.076Z" fill="#AA4D5F"/>
<path d="M432.81 658.911C432.988 660.624 432.548 662.788 431.489 665.405C415.302 657.686 398.704 651.65 381.695 647.296C374.797 645.536 368.273 644.525 362.124 644.264C351.55 643.823 340.608 644.603 329.297 646.601C327.227 647.409 324.872 647.63 322.232 647.261C322.09 647.239 321.956 647.18 321.844 647.09C321.733 647 321.646 646.883 321.594 646.749C321.541 646.616 321.525 646.471 321.546 646.329C321.567 646.187 321.625 646.053 321.714 645.941C324.795 642.016 328.755 639.429 333.596 638.18C365.157 630.026 404.086 644.281 432.81 658.911Z" fill="#F9FEFF"/>
<path d="M659.086 648.974L650.166 642.141C649.761 639.631 648.774 638.561 647.204 638.929C663.457 634.915 686.365 631.383 700.174 643.925C701.851 645.447 701.559 646.161 699.299 646.066C698.389 646.03 696.944 645.423 695.731 645.405C683.017 645.263 670.802 646.452 659.086 648.974Z" fill="#AA4D5F"/>
<path d="M647.204 638.929C648.774 638.561 649.761 639.631 650.165 642.141C645.717 643.699 641.417 645.394 637.266 647.225C628.542 651.079 619.461 653.327 610.13 657.038C581.264 668.492 554.485 680.035 530.328 697.59C528.496 698.922 524.756 702.598 519.106 708.616C515.895 712.041 514.866 715.514 516.02 719.035L513.718 722.55C512.255 724.798 511.536 724.578 511.559 721.889C511.916 688.634 567.259 668.848 590.166 658.18C608.459 649.663 627.472 643.247 647.204 638.929Z" fill="#F9FEFF"/>
<path d="M650.165 642.14L659.086 648.973C633.062 656.633 615.215 662.646 605.545 667.011C580.586 678.268 554.966 688.812 532.95 703.799C526.742 708.021 521.098 713.1 516.019 719.035C514.866 715.514 515.894 712.041 519.106 708.616C524.755 702.597 528.496 698.922 530.328 697.59C554.484 680.034 581.264 668.491 610.13 657.038C619.461 653.327 628.542 651.079 637.266 647.225C641.417 645.393 645.717 643.698 650.165 642.14Z" fill="#FEB864"/>
<path d="M431.489 665.405C431.073 669.818 429.67 671.822 427.279 671.418C401.249 659.892 371.187 650.098 342.82 648.242C338.372 647.957 333.864 647.41 329.297 646.601C340.608 644.603 351.55 643.824 362.124 644.264C368.273 644.525 374.797 645.536 381.695 647.297C398.704 651.65 415.302 657.686 431.489 665.405Z" fill="#FEB864"/>
<path d="M432.81 658.911L493.897 690.186C494.367 690.427 494.736 690.825 494.942 691.311C495.147 691.797 495.175 692.34 495.021 692.845L491.596 704.138C491.537 704.335 491.429 704.514 491.281 704.658C491.133 704.801 490.951 704.903 490.751 704.955C490.552 705.008 490.343 705.007 490.144 704.955C489.945 704.902 489.763 704.799 489.615 704.655C485.244 700.427 480.606 697.055 474.879 694.183C462.105 687.784 449.14 681.801 435.985 676.235C432.81 674.891 429.908 673.285 427.279 671.418C429.67 671.822 431.073 669.818 431.49 665.405C432.548 662.789 432.988 660.624 432.81 658.911Z" fill="#AA4D5F"/>
<path d="M664.902 687.439C674.608 681.337 685.972 675.218 694.393 667.332C695.345 666.44 696.409 666.268 697.587 666.815L697.997 666.993C698.169 667.072 698.32 667.189 698.44 667.336C698.559 667.483 698.644 667.656 698.687 667.841C698.73 668.027 698.73 668.221 698.688 668.407C698.646 668.594 698.562 668.769 698.443 668.92C688.274 681.712 678.069 687.564 665.973 695.324C664.795 696.074 664.099 695.759 663.885 694.379L663.332 690.864C663.106 689.378 663.629 688.236 664.902 687.439Z" fill="#AA4D5F"/>
<path d="M359.305 695.413C346.816 687.617 334.988 680.302 324.248 670.062C323.986 669.816 323.833 669.476 323.823 669.114C323.813 668.753 323.946 668.401 324.194 668.135L324.836 667.439C325.025 667.234 325.279 667.101 325.554 667.065C325.828 667.029 326.105 667.092 326.335 667.243C337.842 674.629 348.618 682.211 361.303 687.296C362.707 687.855 363.224 688.872 362.855 690.347L361.856 694.379C361.488 695.889 360.637 696.234 359.305 695.413Z" fill="#AA4D5F"/>
<path d="M417.431 690.079C422.765 699.82 418.073 712.434 409.456 718.357C406.084 720.658 401.106 721.8 396.967 723.941L395.522 723.103C396.414 722.591 396.729 721.937 396.468 721.14C392.959 710.293 392.739 699.785 395.807 689.615C395.982 689.025 396.345 688.505 396.842 688.134C399.97 685.875 400.339 684.632 397.948 684.406C404.3 682.675 412.114 686.939 417.431 690.079Z" fill="#FEB864"/>
<path d="M397.948 684.406C400.339 684.632 399.97 685.875 396.842 688.134C396.345 688.505 395.982 689.025 395.808 689.615C392.739 699.784 392.959 710.293 396.468 721.14C396.729 721.937 396.414 722.591 395.522 723.103C380.09 712.915 378.573 690.935 397.948 684.406Z" fill="#F9FEFF"/>
<path d="M609.238 724.744C613.294 722.663 616.951 719.754 620.21 716.02C625.634 709.793 631.914 693.29 624.421 686.975C623.981 686.594 623.469 686.38 622.887 686.332L617.356 685.815C631.022 683.103 634.662 684.477 639.764 696.27C643.047 703.852 639.764 708.562 636.267 715.235C635.256 717.173 634.144 718.738 632.931 719.927C626.294 726.469 618.397 728.074 609.238 724.744Z" fill="#AA4D5F"/>
<path d="M617.356 685.815L622.887 686.332C623.469 686.38 623.981 686.594 624.421 686.975C631.914 693.29 625.634 709.793 620.211 716.02C616.952 719.754 613.294 722.662 609.238 724.744C604.576 723.495 601.799 721.794 600.907 719.641C602.75 716.085 603.523 711.928 603.226 707.171C603.012 703.828 603.071 701.111 603.404 699.017C603.821 696.377 604.207 693.641 604.564 690.81C607.668 688.384 611.932 686.719 617.356 685.815Z" fill="#FEB864"/>
<path d="M417.431 690.079C424.103 691.59 428.51 695.414 430.651 701.551C434.522 712.648 428.617 721.818 418.055 725.565C412.935 727.402 400.785 729.508 396.967 723.941C401.106 721.8 406.084 720.658 409.456 718.357C418.073 712.434 422.765 699.82 417.431 690.079Z" fill="#944862"/>
<path d="M604.564 690.81C604.207 693.641 603.821 696.377 603.405 699.017C603.072 701.111 603.012 703.828 603.226 707.171C603.524 711.928 602.75 716.085 600.907 719.641C590.22 708.741 589.792 697.893 604.564 690.81Z" fill="#F9FEFF"/>
<path d="M486.546 731.559L488.134 734.931C488.872 736.489 488.372 737.251 486.636 737.215C474.379 736.965 461.944 732.719 450.204 730.31C448.575 729.977 448.064 729.038 448.67 727.492L450.151 723.656C450.758 722.098 451.882 721.479 453.523 721.8C463.103 723.691 471.185 728.027 482.925 729.044C484.614 729.186 485.821 730.025 486.546 731.559Z" fill="#AA4D5F"/>
<path d="M535.645 729.775C547.152 728.187 556.643 726.778 570.827 722.371C572.552 721.836 573.687 722.436 574.235 724.173L574.93 726.457C575.454 728.134 574.871 729.204 573.182 729.668C560.634 733.141 547.836 734.866 534.788 734.842C534.577 734.842 534.369 734.8 534.174 734.72C533.979 734.639 533.802 734.521 533.653 734.372C533.504 734.222 533.385 734.045 533.305 733.851C533.224 733.656 533.183 733.447 533.183 733.236V732.612C533.183 730.947 534.003 730.001 535.645 729.775Z" fill="#AA4D5F"/>
</svg>
