<svg width="1024" height="1024" viewBox="0 0 1024 1024" fill="none" xmlns="http://www.w3.org/2000/svg">
<rect width="1024" height="1024" fill="white"/>
<path d="M576.99 296.291C576.809 302.836 576.649 309.328 576.511 315.769C576.343 324.176 569.838 329.452 561.819 330.345C559.672 330.59 557.991 329.776 555.96 329.129C549.662 327.124 546.157 321.33 546.506 314.786C546.998 305.552 547.084 297.886 546.765 291.791" stroke="#0D5C6D" stroke-width="2"/>
<path d="M638.177 328.03C637.341 328.314 636.492 328.547 635.63 328.728C600.283 336.165 565.195 344.662 529.706 351.465C515.816 354.129 503.697 357.013 490.777 360.311C480.663 362.885 478.503 369.494 478.529 379.634C478.581 404.328 478.594 428.909 478.568 453.379C478.567 453.648 478.492 453.911 478.35 454.14C478.209 454.368 478.006 454.553 477.766 454.673L308.818 540.239" stroke="#0D5C6D" stroke-width="2"/>
<path d="M715.622 452.085C710.087 460.397 701.374 474.822 689.484 495.36C683.005 506.56 668.636 507.595 655.198 511.307C627.404 518.989 600.231 527.215 573.059 535.169C571.007 535.764 570.994 536.393 573.02 537.057C577.245 538.419 581.84 539.67 586.807 540.808C599.999 543.808 605.702 561.799 592.148 569.326C588.346 571.43 584.543 573.516 580.741 575.585C561.376 586.079 541.967 596.499 522.515 606.845C513.548 611.605 504.525 616.558 495.446 621.706C493.592 622.749 493.709 623.486 495.795 623.917C501.331 625.068 508.302 627.913 511.548 632.582C515.919 638.868 515.428 648.568 508.612 653.108C490.626 665.084 472.727 677.306 454.913 689.773" stroke="#0D5C6D" stroke-width="2"/>
<path d="M576.99 296.291C576.809 302.835 576.649 309.328 576.511 315.769C576.343 324.175 569.838 329.452 561.819 330.344C559.672 330.59 557.991 329.775 555.96 329.129C549.662 327.124 546.157 321.33 546.506 314.786C546.998 305.551 547.084 297.886 546.765 291.79C546.368 268.717 546.325 253.318 546.636 245.593C546.851 240.428 548.899 236.617 552.779 234.16C554.684 232.944 558.491 231.814 564.199 230.771C596.92 224.77 629.628 218.709 662.324 212.587C666.264 211.845 669.454 211.807 671.894 212.47C684.44 215.885 688.436 232.724 677.145 240.329C674.938 241.812 670.593 243.019 664.109 243.95C640.971 247.261 614.885 252.564 577.766 259.431C577.326 259.517 577.102 259.785 577.093 260.233L576.99 296.291Z" fill="#001117"/>
<path d="M274.415 293.86C266.849 290.885 260.641 288.531 260.809 279.012C260.912 273.477 265.672 269.403 270.483 267.139C279.562 262.846 284.373 258.94 288.447 248.865C290.336 244.209 293.979 241.307 299.376 240.161C300.993 239.811 302.221 240.574 303.942 240.186C304.364 240.083 304.787 240.092 305.209 240.212C316.72 243.355 315.077 253.676 322.268 260.246C327.946 265.432 337.387 265.794 340.918 273.438C343.116 278.197 342.69 283.668 339.301 287.716C336.339 291.26 329.743 293.485 325.644 295.787C316.138 301.102 316.888 315.937 306.451 319.028C300.303 320.856 295.212 319.593 291.176 315.238C287.956 311.733 286.391 305.616 284.037 301.982C281.52 298.11 278.312 295.403 274.415 293.86Z" fill="#001117"/>
<path d="M546.766 291.79C547.085 297.886 546.998 305.551 546.507 314.786C546.158 321.33 549.663 327.124 555.961 329.129C557.992 329.775 559.673 330.59 561.82 330.344C569.839 329.452 576.344 324.175 576.512 315.768C576.65 309.328 576.81 302.835 576.991 296.291C590.26 300.688 602.573 306.702 614.859 313.052C622.361 316.932 629.759 322.364 637.363 326.93C637.553 327.042 637.635 327.171 637.609 327.318C637.592 327.37 637.57 327.413 637.544 327.447C637.475 327.542 637.462 327.624 637.506 327.693C637.704 327.977 637.928 328.09 638.178 328.029C637.342 328.314 636.492 328.547 635.63 328.728C600.284 336.164 565.196 344.661 529.707 351.464C515.816 354.129 503.698 357.013 490.777 360.311C480.664 362.884 478.504 369.493 478.53 379.633C478.581 404.327 478.594 428.909 478.568 453.379C478.568 453.647 478.493 453.911 478.351 454.139C478.209 454.368 478.007 454.552 477.766 454.672L308.819 540.239C307.28 528.754 305.288 517.463 305.198 505.978C305.12 495.58 304.887 484.742 305.909 474.835C310.151 433.681 327.753 392.372 355.831 361.837C359.694 357.629 363.652 353.512 367.704 349.486C398.085 319.235 439.82 300.119 481.75 292.786C502.792 289.113 525.452 290.031 546.766 291.79Z" fill="#1AA6C3"/>
<path d="M715.622 452.085C710.087 460.397 701.374 474.822 689.484 495.36C683.004 506.56 668.635 507.595 655.198 511.307C627.404 518.989 600.231 527.215 573.058 535.169C571.006 535.764 570.993 536.393 573.02 537.057C577.244 538.419 581.84 539.67 586.806 540.808C599.998 543.808 605.702 561.798 592.148 569.326C588.345 571.429 584.543 573.516 580.741 575.585C561.375 586.079 541.967 596.498 522.515 606.845C513.548 611.605 504.525 616.558 495.446 621.705C493.592 622.749 493.708 623.486 495.795 623.917C501.33 625.068 508.301 627.913 511.548 632.582C515.919 638.868 515.428 648.568 508.612 653.108C490.626 665.084 472.726 677.306 454.913 689.773C404.145 726.081 353.809 763.079 303.904 800.767C298.834 804.595 292.134 809.665 285.823 809.613C279.059 809.536 273.161 804.621 271.027 798.31C270.337 796.266 269.988 793.11 269.98 788.842C269.902 716.899 269.885 644.955 269.928 573.012C269.941 565.575 269.242 561.488 275.489 557.983C286.491 551.818 297.601 545.903 308.818 540.239L477.766 454.672C478.006 454.552 478.209 454.368 478.35 454.139C478.492 453.911 478.567 453.647 478.568 453.379C478.594 428.909 478.581 404.327 478.529 379.633C478.503 369.493 480.663 362.884 490.777 360.311C503.697 357.013 515.816 354.129 529.706 351.464C565.195 344.661 600.283 336.164 635.63 328.728C636.492 328.547 637.341 328.314 638.177 328.029C647.041 326.072 655.913 324.123 664.794 322.183C703.81 313.673 742.821 305.129 781.828 296.55C786.708 295.481 791.045 296.666 794.838 300.106C799.999 304.788 802.042 311.462 797.916 317.657C794.183 323.244 785.82 336.651 772.826 357.879C753.633 389.221 734.565 420.623 715.622 452.085Z" fill="#001117"/>
<path d="M303.852 365.536C303.852 367.715 303.423 369.873 302.589 371.886C301.755 373.899 300.533 375.728 298.992 377.269C297.451 378.81 295.622 380.032 293.609 380.866C291.595 381.7 289.438 382.129 287.258 382.129C285.079 382.129 282.922 381.7 280.908 380.866C278.895 380.032 277.066 378.81 275.525 377.269C273.984 375.728 272.762 373.899 271.928 371.886C271.094 369.873 270.665 367.715 270.665 365.536C270.665 361.135 272.413 356.914 275.525 353.803C278.637 350.691 282.858 348.942 287.258 348.942C289.438 348.942 291.595 349.372 293.609 350.205C295.622 351.039 297.451 352.262 298.992 353.803C300.533 355.343 301.755 357.173 302.589 359.186C303.423 361.199 303.852 363.357 303.852 365.536Z" fill="#001117"/>
<path d="M790.894 429.194C799.159 430.992 802.159 438.183 803.75 445.994C806.483 459.497 808.462 473.098 809.686 486.799C810.605 497.133 810.424 508.268 810.307 519.132C810.113 536.178 807.074 554.065 804.151 570.865C803.427 575.081 801.513 581.095 798.189 584.432C790.286 592.399 775.62 588.674 773.137 577.707C772.62 575.456 772.796 571.99 773.667 567.309C775.348 558.255 777.405 548.685 778.401 540.071C780.949 518.214 781.466 495.296 777.702 473.529C776.168 464.657 774.447 455.824 772.542 447.029C772.137 445.201 772.339 442.989 773.15 440.394C775.659 432.341 781.203 428.461 789.782 428.754C789.911 428.754 790.101 428.827 790.351 428.974C790.541 429.086 790.722 429.159 790.894 429.194Z" fill="#001117"/>
<path d="M244.242 519.3C245.393 534.38 246.842 550.158 250.101 564.941C251.989 573.464 252.959 580.875 245.613 585.854C235.693 592.567 224.312 586.449 221.674 575.081C218.914 563.2 216.772 551.219 215.246 539.139C213.487 525.068 214.03 508.526 214.276 495.205C214.599 478.663 218.505 462.587 221.415 446.214C222.825 438.273 224.402 433.203 231.477 430.215C233.934 429.172 236.577 428.879 239.405 429.336C246.639 430.491 250.955 435.108 252.351 443.187C252.705 445.231 252.399 448.464 251.433 452.887C246.648 474.783 242.638 498.218 244.242 519.3Z" fill="#001117"/>
<path d="M715.622 452.085C716.515 458.668 718.028 465.549 718.623 471.679C720.14 487.199 720.489 500.003 719.67 510.091C716.14 553.444 700.697 589.903 674.908 624.409C645.407 663.881 599.119 692.05 549.455 697.727C518.416 701.271 484.892 698.956 454.913 689.773C472.727 677.306 490.626 665.084 508.612 653.108C515.428 648.568 515.919 638.868 511.548 632.582C508.302 627.913 501.331 625.068 495.795 623.917C493.709 623.486 493.592 622.749 495.446 621.706C504.525 616.558 513.548 611.605 522.515 606.845C541.967 596.499 561.376 586.079 580.741 575.585C584.543 573.516 588.346 571.43 592.148 569.326C605.702 561.799 599.999 543.808 586.807 540.808C581.84 539.67 577.245 538.419 573.02 537.057C570.994 536.393 571.007 535.764 573.059 535.169C600.231 527.215 627.404 518.989 655.198 511.307C668.636 507.595 683.005 506.56 689.484 495.36C701.374 474.822 710.087 460.397 715.622 452.085Z" fill="#1AA6C3"/>
<path d="M746.998 639.14C746.998 643.516 745.26 647.714 742.165 650.809C739.07 653.904 734.872 655.642 730.496 655.642C726.119 655.642 721.921 653.904 718.826 650.809C715.731 647.714 713.993 643.516 713.993 639.14C713.993 634.763 715.731 630.565 718.826 627.47C721.921 624.375 726.119 622.637 730.496 622.637C734.872 622.637 739.07 624.375 742.165 627.47C745.26 630.565 746.998 634.763 746.998 639.14Z" fill="#001117"/>
<path d="M667.175 737.239C667.175 741.764 665.377 746.103 662.178 749.302C658.979 752.501 654.64 754.298 650.116 754.298C645.591 754.298 641.252 752.501 638.053 749.302C634.854 746.103 633.057 741.764 633.057 737.239C633.057 732.715 634.854 728.376 638.053 725.177C641.252 721.977 645.591 720.18 650.116 720.18C654.64 720.18 658.979 721.977 662.178 725.177C665.377 728.376 667.175 732.715 667.175 737.239Z" fill="#001117"/>
<path d="M745.343 787.498C742.54 787.558 741.139 788.989 741.139 791.792C741.152 796.098 741.631 801.039 740.169 804.841C737.565 811.627 732.258 813.589 724.248 810.726C717.484 808.307 717.898 797.819 718.803 791.714C719.01 790.36 718.493 789.201 717.251 788.235C716.924 787.968 716.549 787.83 716.126 787.821C711.082 787.653 703.348 788.636 699.248 786.373C691.708 782.195 692.769 770.193 700.18 766.701C704.098 764.852 709.776 765.511 714.277 765.498C714.871 765.497 715.459 765.376 716.005 765.142C716.552 764.909 717.045 764.568 717.457 764.139C717.869 763.711 718.19 763.204 718.401 762.648C718.612 762.093 718.71 761.501 718.687 760.907C718.519 756.251 717.756 750.069 720.213 746.202C725.192 738.325 736.419 739.011 740.221 747.534C742.484 752.591 738.721 758.708 741.967 763.209C746.119 769.003 756.569 762.588 762.143 767.891C768.959 774.345 765.596 788.196 755.275 787.705C751.249 787.506 747.938 787.437 745.343 787.498Z" fill="#001117"/>
<path d="M428.723 779.802C421.803 778.056 415.906 775.65 413.914 768.356C411.651 760.066 416.539 751.62 425.153 749.861C427.602 749.361 430.969 749.633 435.254 750.676C455.365 755.565 476.149 759.755 496.816 761.359C504.201 761.928 511.573 762.743 518.958 762.406C528.632 761.954 538.345 761.592 547.967 760.492C552.287 760.001 555.421 759.966 557.37 760.389C570.316 763.234 575.024 777.448 565.156 786.643C562.841 788.79 557.654 790.032 554.473 790.148C526.071 791.261 497.114 792.709 468.932 788.157C455.775 786.027 442.371 783.242 428.723 779.802Z" fill="#001117"/>
<path d="M722.244 379.168C721.537 379.297 720.89 379.664 720.304 380.267C720.002 380.586 719.64 380.798 719.217 380.901C711.716 382.75 703.465 387.031 696.507 390.446C692.329 392.502 688.359 393.964 684.155 395.593C677.96 397.999 671.623 401.698 665.105 404.323C662.328 405.444 659.582 406.712 656.866 408.126C654.072 409.583 651.223 410.928 648.317 412.161C648.05 412.273 647.839 412.45 647.683 412.691C647.476 412.993 647.214 413.092 646.895 412.988C646.481 412.851 646.131 412.945 645.847 413.273C645.683 413.463 645.627 413.661 645.679 413.868" stroke="#D4EDF7" stroke-width="2"/>
<path d="M645.679 413.868C636.962 417.231 628.473 419.731 620.213 421.369" stroke="#90BAC9" stroke-width="2"/>
<path d="M633.314 467.27C629.081 468.459 625.714 469.649 623.213 470.839C603.995 479.97 580.12 492.127 558.133 501.724C553.361 503.806 548.705 506.444 543.932 508.785C542.182 509.639 539.186 510.721 534.944 512.032C531.271 513.161 527.77 514.748 524.442 516.791" stroke="#D4EDF7" stroke-width="2"/>
<path d="M538.241 558.41C537.534 559.367 536.357 559.979 534.71 560.246C533.107 560.505 531.891 560.85 531.063 561.281C522.217 565.911 514.289 571.627 505.662 576.568C503.593 577.749 501.226 579.301 498.562 581.224C493.182 585.087 481.313 591.95 462.956 601.814C461.87 602.4 461.586 603.219 462.103 604.271" stroke="#D4EDF7" stroke-width="2"/>
<path d="M449.39 655.746C446.377 653.055 443.48 653.935 440.363 656.315C438.423 657.776 436.211 658.875 434.452 660.35C426.753 666.791 419.027 673.205 411.276 679.595C410.069 680.586 408.37 681.828 406.18 683.319C404.305 684.6 401.291 686.488 399.998 688.325C398.342 690.665 393.557 693.575 391.113 695.334C390.078 696.072 389.587 697.248 388.164 697.766C387.98 697.83 387.818 697.948 387.698 698.104C387.579 698.26 387.507 698.448 387.491 698.645L387.427 699.628" stroke="#D4EDF7" stroke-width="2"/>
<path d="M711.897 398.115C709.267 397.951 707.237 398.028 705.806 398.347C686.328 402.667 666.708 408.707 645.679 413.867" stroke="#65A8C1" stroke-width="2"/>
<path d="M288.023 280.849C287.884 280.819 287.756 280.748 287.656 280.645C287.555 280.542 287.485 280.41 287.454 280.267C287.066 278.249 288.489 277.59 290.273 277.241C296.404 276.051 298.37 271.873 300.633 266.687C300.738 266.439 300.91 266.224 301.13 266.067C301.349 265.911 301.608 265.818 301.877 265.799C302.146 265.78 302.415 265.836 302.655 265.961C302.894 266.086 303.094 266.274 303.232 266.506C306.737 272.209 308.225 275.326 315.105 277.241C315.469 277.343 315.798 277.546 316.051 277.827C316.305 278.108 316.473 278.455 316.537 278.826C316.601 279.198 316.557 279.58 316.411 279.927C316.265 280.274 316.023 280.571 315.713 280.784C313.708 282.168 311.238 281.948 309.259 283.487C306.466 285.673 305.25 288.751 303.646 291.584C303.485 291.872 303.247 292.109 302.959 292.271C302.671 292.432 302.344 292.512 302.014 292.5C301.684 292.488 301.363 292.385 301.088 292.203C300.812 292.021 300.592 291.766 300.452 291.467C297.413 285.117 295.253 282.31 288.023 280.849Z" fill="white"/>
<path d="M722.246 379.167C721.539 379.297 720.892 379.663 720.306 380.267C720.004 380.586 719.642 380.797 719.219 380.9C711.718 382.75 703.466 387.031 696.508 390.445C692.331 392.502 688.36 393.963 684.157 395.593C677.962 397.998 671.625 401.697 665.106 404.323C662.33 405.444 659.584 406.711 656.868 408.125C654.074 409.582 651.225 410.927 648.319 412.16C648.052 412.272 647.84 412.449 647.685 412.691C647.478 412.992 647.215 413.091 646.896 412.988C646.482 412.85 646.133 412.945 645.849 413.273C645.685 413.462 645.629 413.66 645.68 413.867C636.963 417.23 628.475 419.73 620.215 421.369C612.748 417.644 606.415 418.351 601.216 423.49C595.383 429.245 593.236 437.548 598.332 444.416C599.608 446.149 602.044 448.115 605.639 450.313C614.692 455.849 623.918 461.501 633.316 467.269C629.083 468.459 625.716 469.649 623.215 470.839C603.996 479.969 580.122 492.127 558.135 501.723C553.363 503.806 548.707 506.444 543.934 508.785C542.184 509.638 539.188 510.721 534.946 512.031C531.273 513.161 527.772 514.747 524.444 516.791C515.597 519.351 506.04 521.278 501.086 525.87C492.369 533.927 496.896 547.145 508.225 549.9C518.158 552.323 528.164 555.159 538.244 558.41C537.537 559.367 536.36 559.979 534.713 560.246C533.109 560.505 531.893 560.85 531.066 561.281C522.219 565.911 514.291 571.628 505.665 576.568C503.595 577.749 501.229 579.301 498.564 581.224C493.184 585.087 481.316 591.95 462.959 601.814C461.873 602.4 461.588 603.219 462.105 604.271C454.932 607.988 445.163 613.303 432.798 620.218C429.056 622.313 426.358 625.146 424.702 628.715C423.59 631.121 423.732 635.971 424.689 638.48C429.462 650.961 441.826 651.219 452.405 652.719C453.061 652.806 453.121 653.043 452.586 653.431L449.392 655.746C446.378 653.056 443.481 653.935 440.365 656.315C438.425 657.776 436.213 658.876 434.454 660.35C426.754 666.791 419.029 673.206 411.278 679.595C410.07 680.586 408.372 681.828 406.182 683.32C404.307 684.6 401.293 686.488 400 688.325C398.344 690.666 393.559 693.576 391.115 695.335C390.08 696.072 389.588 697.249 388.166 697.766C387.981 697.831 387.82 697.948 387.7 698.104C387.581 698.261 387.509 698.448 387.493 698.646L387.429 699.628L301.875 763.428C301.843 763.45 301.807 763.464 301.768 763.467C301.73 763.471 301.692 763.464 301.659 763.448C301.625 763.432 301.597 763.407 301.578 763.376C301.559 763.345 301.55 763.31 301.552 763.273L301.539 585.466C301.539 584.983 301.78 584.742 302.263 584.742C340.856 584.708 379.419 584.725 417.951 584.794C423.305 584.802 427.138 584.216 429.449 583.035C441.192 577.06 439.692 560.583 428.66 555.021C426.513 553.944 423.642 553.4 420.046 553.392C397.568 553.366 375.164 553.396 352.832 553.482C351.616 553.491 351.556 553.228 352.651 552.693C366.757 545.778 381.07 538.596 395.589 531.146C424.87 516.109 454.061 500.9 483.161 485.518C491.792 480.957 500.323 476.486 508.756 472.106C509.029 471.966 509.258 471.752 509.418 471.49C509.578 471.227 509.662 470.926 509.661 470.619L509.558 388.234C509.558 388.016 509.631 387.806 509.765 387.637C509.899 387.467 510.086 387.349 510.295 387.302L747.194 336.539C747.284 336.522 747.378 336.531 747.463 336.565C747.549 336.599 747.622 336.657 747.676 336.732C747.729 336.807 747.759 336.896 747.763 336.988C747.767 337.08 747.745 337.171 747.698 337.251L722.246 379.167Z" fill="white"/>
<path d="M449.522 359.535C449.522 363.991 447.752 368.264 444.601 371.415C441.45 374.566 437.177 376.336 432.721 376.336C428.266 376.336 423.992 374.566 420.842 371.415C417.691 368.264 415.921 363.991 415.921 359.535C415.921 355.079 417.691 350.806 420.842 347.656C423.992 344.505 428.266 342.735 432.721 342.735C437.177 342.735 441.45 344.505 444.601 347.656C447.752 350.806 449.522 355.079 449.522 359.535Z" fill="#001117"/>
<path d="M722.246 379.168L711.9 398.115C709.27 397.951 707.239 398.029 705.808 398.348C686.331 402.668 666.711 408.708 645.681 413.868C645.629 413.661 645.686 413.463 645.849 413.273C646.134 412.945 646.483 412.851 646.897 412.988C647.216 413.092 647.479 412.993 647.686 412.691C647.841 412.45 648.052 412.273 648.32 412.161C651.225 410.928 654.075 409.583 656.868 408.126C659.584 406.712 662.331 405.444 665.107 404.323C671.625 401.698 677.963 397.999 684.158 395.593C688.361 393.964 692.332 392.502 696.509 390.446C703.467 387.031 711.719 382.75 719.22 380.901C719.642 380.798 720.005 380.586 720.306 380.267C720.893 379.664 721.539 379.297 722.246 379.168Z" fill="#A8DAEF"/>
<path d="M711.899 398.115C708.201 403.944 704.467 409.764 700.699 415.575C692.344 428.444 685.037 441.998 677.148 455.28C677.02 455.498 676.85 455.687 676.648 455.838C676.445 455.988 676.215 456.096 675.97 456.155C675.725 456.214 675.47 456.224 675.221 456.182C674.973 456.141 674.735 456.049 674.522 455.914L620.215 421.369C628.475 419.731 636.964 417.231 645.681 413.868C666.711 408.707 686.33 402.668 705.808 398.348C707.239 398.029 709.27 397.951 711.899 398.115Z" fill="#217592"/>
<path d="M361.687 469.374C357.159 468.169 353.309 465.164 350.984 461.018C348.658 456.873 348.048 451.928 349.287 447.271C349.901 444.965 350.95 442.799 352.375 440.897C353.8 438.995 355.572 437.393 357.591 436.185C359.611 434.976 361.837 434.183 364.143 433.852C366.449 433.52 368.79 433.657 371.032 434.253C375.56 435.458 379.411 438.464 381.736 442.609C384.062 446.754 384.672 451.699 383.433 456.356C382.819 458.662 381.77 460.828 380.345 462.731C378.92 464.633 377.148 466.234 375.128 467.443C373.109 468.652 370.883 469.444 368.577 469.776C366.27 470.107 363.93 469.971 361.687 469.374Z" fill="#001117"/>
<path d="M633.317 467.27L651.76 478.948C651.859 479.012 651.938 479.102 651.986 479.21C652.035 479.317 652.052 479.436 652.034 479.553C652.016 479.669 651.965 479.778 651.886 479.866C651.808 479.954 651.705 480.017 651.591 480.048L524.444 516.791C527.773 514.748 531.273 513.161 534.946 512.032C539.188 510.721 542.185 509.639 543.935 508.785C548.707 506.444 553.363 503.806 558.136 501.724C580.122 492.127 603.997 479.97 623.216 470.839C625.716 469.649 629.083 468.459 633.317 467.27Z" fill="#A8DAEF"/>
<path d="M538.244 558.41C539.856 558.22 541.559 558.626 543.353 559.626C543.433 559.67 543.5 559.735 543.547 559.814C543.593 559.894 543.617 559.984 543.616 560.076C543.614 560.168 543.588 560.258 543.539 560.335C543.491 560.413 543.422 560.477 543.34 560.518L462.106 604.272C461.588 603.22 461.873 602.401 462.959 601.814C481.316 591.95 493.184 585.087 498.565 581.224C501.229 579.302 503.596 577.75 505.665 576.568C514.292 571.628 522.22 565.911 531.066 561.281C531.894 560.85 533.11 560.505 534.713 560.247C536.36 559.979 537.537 559.367 538.244 558.41Z" fill="#A8DAEF"/>
<path d="M621.12 614.773C621.12 619.527 619.231 624.086 615.869 627.448C612.508 630.81 607.948 632.698 603.194 632.698C598.44 632.698 593.881 630.81 590.519 627.448C587.157 624.086 585.269 619.527 585.269 614.773C585.269 610.019 587.157 605.459 590.519 602.097C593.881 598.736 598.44 596.847 603.194 596.847C607.948 596.847 612.508 598.736 615.869 602.097C619.231 605.459 621.12 610.019 621.12 614.773Z" fill="#001117"/>
<path d="M449.392 655.746L387.429 699.628L387.493 698.645C387.509 698.448 387.581 698.26 387.7 698.104C387.82 697.948 387.982 697.83 388.166 697.766C389.589 697.248 390.08 696.072 391.115 695.334C393.559 693.575 398.344 690.665 400 688.325C401.293 686.488 404.307 684.6 406.182 683.319C408.372 681.828 410.071 680.586 411.278 679.595C419.029 673.205 426.755 666.791 434.454 660.35C436.213 658.875 438.425 657.776 440.365 656.315C443.482 653.935 446.379 653.055 449.392 655.746Z" fill="#A8DAEF"/>
</svg>
