<svg width="512" height="512" viewBox="0 0 512 512" fill="none" xmlns="http://www.w3.org/2000/svg">
<rect width="512" height="512" fill="white"/>
<path d="M183.747 322.752L183.654 292.593C183.654 291.91 183.416 291.25 182.981 290.725C180.754 288.027 178.631 285.15 176.613 282.095C174.456 278.848 173.388 275.031 171.88 271.366C171.809 271.198 171.689 271.056 171.536 270.956C171.383 270.857 171.204 270.806 171.022 270.809C148.044 271.412 131.642 251.484 142.36 229.341C145.948 221.917 151.446 214.961 158.854 208.473C166.804 201.514 176.076 197.817 186.67 197.384C187.056 197.369 187.288 197.172 187.366 196.793C188.897 189.381 193.792 183.975 201.471 183.395C203.489 183.248 205.415 182.989 207.247 182.618C207.557 182.556 207.7 182.367 207.677 182.05L207.329 176.551C207.305 176.188 207.112 176.01 206.749 176.018C195.996 176.273 184.559 173.315 174.293 170.288C168.18 168.478 162.102 166.112 161.047 158.897C160.351 154.095 164.144 150.754 168.053 148.968C184.199 141.602 201.03 135.025 218.429 131.313C218.7 131.253 218.951 131.127 219.159 130.947C219.368 130.766 219.528 130.538 219.624 130.281C221.99 123.87 224.303 117.583 226.561 111.42C228.068 107.291 233.079 106.224 237.51 106.166C250.293 106.011 258.602 105.965 262.438 106.027C266.884 106.104 269.974 108.261 271.706 112.499C274.095 118.353 276.423 124.218 278.689 130.095C278.828 130.451 279.083 130.683 279.454 130.791C293.126 134.82 306.574 139.468 319.797 144.734C324.994 146.799 332.893 149.931 335.503 154.57C337.39 157.934 336.725 161.321 333.508 164.732C330.422 168.003 325.539 169.313 320.041 170.961C310.112 173.922 299.866 175.678 289.302 176.227C289.127 176.235 288.96 176.309 288.836 176.433C288.712 176.558 288.638 176.724 288.629 176.899L288.339 182.409C288.324 182.835 288.513 183.121 288.908 183.268C300.67 187.629 309.416 192.28 313.708 204.657C314.001 205.515 314.581 205.802 315.448 205.515C328.416 201.247 341.198 197.326 354.294 192.849C361.78 190.289 370.507 187.382 380.474 184.126C387.689 181.76 394.568 181.319 397.769 189.705C399.788 194.964 401.848 201.548 403.952 209.459C404.756 212.498 404.853 214.957 404.242 216.837C403.244 219.914 401.183 221.948 398.059 222.938C387.828 226.147 377.056 229.716 365.743 233.644C365.574 233.705 365.423 233.804 365.302 233.934C365.181 234.063 365.094 234.218 365.047 234.387C362.031 244.849 360.036 253.607 351.255 261.645C345.827 266.622 339.018 269.661 331.617 269.684C330.751 269.684 329.889 269.746 329.031 269.869C328.652 269.924 328.431 270.136 328.369 270.507C326.66 281.218 321.433 289.685 312.687 295.91C312.37 296.135 312.265 296.436 312.374 296.815C312.637 297.735 312.76 298.551 312.745 299.263C312.613 307.576 312.49 315.815 312.374 323.981C312.366 324.816 312.613 324.901 313.116 324.236C326.931 306.118 352.868 295.876 374.64 294.6C378.97 294.344 381.553 296.154 382.388 300.028C382.991 302.847 381.518 305.526 380.509 308.125C372.482 328.718 360.643 346.933 344.991 362.77C344.927 362.836 344.884 362.92 344.865 363.01C344.847 363.101 344.854 363.195 344.887 363.281C344.92 363.367 344.977 363.442 345.051 363.498C345.124 363.553 345.213 363.586 345.305 363.593C351.715 363.965 358.203 364.181 364.769 364.243C371.612 364.301 374.953 366.25 374.779 373.314C374.655 378.325 374.725 383.297 374.988 388.231C374.992 388.325 375.016 388.418 375.057 388.504C375.099 388.589 375.158 388.665 375.231 388.727C375.304 388.788 375.389 388.835 375.481 388.863C375.572 388.892 375.669 388.902 375.765 388.892C377.853 388.675 379.999 388.664 382.203 388.857C393.234 389.843 393.315 405.955 381.634 405.966C293.184 406.036 204.734 405.997 116.284 405.85C108.13 405.839 105.601 397.313 110.473 391.444C113.407 387.906 118.465 389.228 122.919 388.869C123.313 388.838 123.511 388.625 123.511 388.231C123.495 383.351 123.472 378.495 123.441 373.662C123.406 367.015 125.993 364.347 132.419 364.22C138.861 364.088 145.252 364.065 151.593 364.15C151.676 364.153 151.758 364.131 151.828 364.086C151.899 364.042 151.954 363.978 151.988 363.902C152.021 363.826 152.032 363.742 152.017 363.66C152.002 363.578 151.964 363.502 151.906 363.443C135.86 346.708 123.599 327.538 115.124 305.932C111.946 297.847 116.586 293.614 124.508 294.286C142.124 295.794 157.919 302.031 171.892 312.996C175.875 316.113 179.691 319.423 183.341 322.926C183.375 322.957 183.418 322.977 183.464 322.985C183.51 322.992 183.557 322.986 183.599 322.968C183.642 322.95 183.678 322.92 183.705 322.881C183.731 322.843 183.745 322.798 183.747 322.752Z" fill="#020111"/>
<path d="M138.139 192.125C136.893 192.164 135.652 191.944 134.486 191.477C133.319 191.01 132.251 190.306 131.341 189.405C130.431 188.503 129.698 187.422 129.183 186.223C128.668 185.024 128.382 183.731 128.341 182.417C128.257 179.764 129.177 177.187 130.896 175.255C132.616 173.323 134.995 172.193 137.51 172.114C138.755 172.075 139.997 172.295 141.163 172.761C142.33 173.228 143.398 173.932 144.308 174.834C145.218 175.735 145.951 176.816 146.466 178.015C146.981 179.214 147.267 180.507 147.308 181.821C147.392 184.475 146.472 187.051 144.753 188.983C143.033 190.916 140.654 192.046 138.139 192.125Z" fill="#020111"/>
<path d="M259.375 128.518C254.302 128.069 249.33 128.011 244.458 128.344C241.806 128.522 239.973 129.469 238.96 131.186" stroke="#FFDC91" stroke-width="2"/>
<path d="M298.176 153.422C293.776 153.669 287.18 153.832 278.387 153.909C249.303 154.157 223.162 153.971 199.963 153.352" stroke="#FFD393" stroke-width="2"/>
<path d="M231.862 206.246C230.439 206.509 228.958 206.463 227.419 206.107C220.459 204.518 212.943 204.019 205.67 203.335" stroke="#FFDC91" stroke-width="2"/>
<path d="M295.415 205.051L264.375 205.921" stroke="#FFDC91" stroke-width="2"/>
<path d="M386.205 206.397L360.953 213.925" stroke="#A99CAF" stroke-width="2"/>
<path d="M344.829 219.887C335.078 222.385 325.52 225.37 316.155 228.842C314.121 229.6 312.176 230.536 310.32 231.649" stroke="#C0B8C8" stroke-width="2"/>
<path d="M232.43 237.924C226.483 234.63 220.046 233.304 213.117 233.946C206.59 234.549 201.135 237.344 196.75 242.332" stroke="#FFDC91" stroke-width="2"/>
<path d="M241.338 262.434C240.101 263.146 239.026 263.996 238.114 264.986C234.68 268.709 229.727 272.039 224.148 273.825C219.601 275.286 214.613 274.254 209.765 274.37C209.379 274.378 209.003 274.269 208.686 274.057L193.653 264.035" stroke="#FF6F3B" stroke-width="2"/>
<path d="M292.863 236.127C290.787 236.312 288.792 236.463 286.75 237.043C279.381 239.139 272.096 241.505 264.897 244.142C261.881 245.244 258.726 245.743 255.605 246.566" stroke="#C0B8C8" stroke-width="2"/>
<path d="M180.046 244.478C177.958 244.354 173.137 244.451 165.582 244.768C160.888 244.969 157.524 243.21 155.49 239.49" stroke="#FDD3BD" stroke-width="2"/>
<path d="M308.662 262.991L306.423 269.649C306.299 270.02 306.102 270.341 305.832 270.612C305.283 271.169 304.629 272.108 303.871 273.43C302.603 275.634 299.893 277.745 295.74 279.764C281.38 286.758 266.985 285.877 251.65 283.673C251.101 283.595 250.378 283.603 249.481 283.696C248.414 283.797 247.679 283.623 247.277 283.174" stroke="#FFDC91" stroke-width="2"/>
<path d="M278.747 355.683C280.757 358.366 282.188 359.905 283.038 360.299C285.126 361.266 285.772 362.375 284.976 363.628" stroke="#FFAA2A" stroke-width="2"/>
<path d="M224.693 363.837L216.318 363.118C215.939 363.087 215.792 362.89 215.877 362.526C215.97 362.155 215.866 361.853 215.564 361.622C215.108 361.289 214.876 361.115 214.868 361.1C214.195 360.334 214.106 359.483 214.601 358.548C214.671 358.416 214.671 358.285 214.601 358.153C214.547 358.045 214.493 357.937 214.439 357.828C214.424 357.797 214.417 357.762 214.418 357.727C214.419 357.692 214.428 357.658 214.445 357.627C214.462 357.597 214.487 357.57 214.516 357.551C214.545 357.532 214.578 357.519 214.613 357.515C215.293 357.438 215.862 357.163 216.318 356.692" stroke="#FFAA2A" stroke-width="2"/>
<path d="M173.156 338.446L172.576 338.805" stroke="#AEC0C4" stroke-width="2"/>
<path d="M172.576 338.805C167.901 333.493 160.292 330.036 154.283 326.278C150.03 323.618 145.398 321.638 140.387 320.339" stroke="#BBDFA7" stroke-width="2"/>
<path d="M172.576 338.805C172.313 342.486 172.089 346.217 171.903 349.999C171.764 352.945 170.268 354.929 168.83 357.341" stroke="#6BA06D" stroke-width="2"/>
<path d="M356.602 320.397C343.209 325.508 331.114 332.77 320.319 342.181" stroke="#BBDFA7" stroke-width="2"/>
<path d="M245.293 383.939C242.718 384.821 239.818 383.765 237.22 383.927C233.949 384.136 228.726 384.221 221.549 384.183C200.693 384.067 179.513 383.278 158.715 384.832C158.668 384.832 158.641 384.867 158.634 384.937C158.626 384.96 158.614 384.987 158.599 385.018C158.483 385.242 158.394 385.354 158.332 385.354L142.348 385.029C141.93 385.022 141.578 384.855 141.292 384.531C140.534 383.657 140.086 382.806 139.947 381.979" stroke="#6B5679" stroke-width="2"/>
<path d="M357.948 383.394C357.971 383.896 357.905 384.345 357.751 384.739C357.604 385.095 357.337 385.254 356.95 385.215C351.336 384.716 345.467 385.737 340.386 385.482C327.986 384.855 315.609 385.238 303.244 384.751C293.28 384.357 283.142 384.333 273.167 384.194C269.231 384.14 265.318 384.233 261.428 384.473" stroke="#6B5679" stroke-width="2"/>
<path d="M259.375 128.518C254.302 128.069 249.33 128.011 244.458 128.344C241.806 128.522 239.973 129.469 238.96 131.186C238.635 131.294 238.28 131.325 237.893 131.279C237.383 131.224 237.251 130.977 237.499 130.536C238.96 127.899 239.962 125.092 240.503 122.115C240.536 121.933 240.631 121.768 240.773 121.649C240.916 121.53 241.095 121.465 241.28 121.465H256.417C256.593 121.465 256.765 121.52 256.908 121.622C257.052 121.724 257.16 121.868 257.218 122.034L259.375 128.518Z" fill="#FEFEFE"/>
<path d="M259.375 128.518C259.855 129.129 260.145 129.84 260.245 130.652C260.315 131.232 260.056 131.518 259.468 131.511L238.96 131.186C239.973 129.469 241.806 128.522 244.458 128.344C249.33 128.011 254.302 128.069 259.375 128.518Z" fill="#FFB923"/>
<path d="M298.176 153.422C293.776 153.67 287.18 153.832 278.387 153.909C249.303 154.157 223.162 153.971 199.963 153.352C205.531 150.94 210.959 148.925 216.249 147.309C218.847 146.52 221.666 146.141 224.705 146.172C240.279 146.319 255.853 146.343 271.427 146.242C273.307 146.23 275.603 146.961 277.923 145.894C278.279 145.732 278.642 145.72 279.013 145.859L298.176 153.422Z" fill="#FEFEFE"/>
<path d="M199.963 153.352C223.162 153.971 249.303 154.157 278.387 153.909C287.18 153.832 293.776 153.669 298.176 153.422L311.747 157.772C312.992 158.166 312.969 158.46 311.678 158.653C302.224 160.068 292.991 160.37 283.491 161.089C264.201 162.539 244.911 162.423 225.609 161.692C212.247 161.19 199.267 160.061 186.67 158.305C185.069 158.081 185.046 157.741 186.6 157.285L199.963 153.352Z" fill="#FFA828"/>
<path d="M239.262 191.608C234.413 190.135 229.681 188.348 225.087 186.214C224.677 186.028 224.461 185.711 224.438 185.263L224.101 178.071C224.078 177.622 224.287 177.418 224.728 177.456C240.225 178.748 255.718 178.79 271.207 177.584C271.294 177.576 271.383 177.586 271.466 177.614C271.55 177.641 271.626 177.686 271.692 177.745C271.757 177.804 271.81 177.875 271.846 177.956C271.882 178.036 271.902 178.122 271.903 178.21L272.019 184.694C272.026 185.022 271.933 185.344 271.753 185.617C271.573 185.891 271.314 186.103 271.01 186.225C260.907 190.32 250.119 194.902 239.262 191.608Z" fill="#FE532B"/>
<path d="M231.861 206.246C230.438 206.509 228.957 206.463 227.418 206.107C220.459 204.518 212.942 204.019 205.669 203.335L202.538 200.783C202.182 200.497 202.205 200.245 202.607 200.029C204.069 199.263 205.449 198.347 207.108 198.196C215.158 197.477 224.704 202.627 231.861 206.246Z" fill="#FEFEFE"/>
<path d="M295.415 205.051L264.375 205.921C272.645 202.059 288.989 193.348 295.415 205.051Z" fill="#FEFEFE"/>
<path d="M386.204 206.397L360.952 213.925L358.922 209.065C358.768 208.686 358.88 208.411 359.259 208.241C367.023 204.738 375.069 202.055 383.397 200.191C383.562 200.155 383.735 200.171 383.889 200.238C384.043 200.305 384.171 200.418 384.256 200.562C385.253 202.256 385.903 204.201 386.204 206.397Z" fill="#FEFEFE"/>
<path d="M205.67 203.335C212.943 204.019 220.459 204.518 227.419 206.107C228.958 206.463 230.439 206.509 231.862 206.246C236.188 207.476 240.445 208.821 244.888 208.949C251.616 209.127 258.111 208.118 264.375 205.921L295.415 205.051C296.444 206.358 297.186 207.735 297.642 209.181C297.758 209.537 297.654 209.807 297.329 209.993L288.688 214.876C288.426 215.026 288.121 215.075 287.829 215.015C280.081 213.368 273.365 213.16 266.335 216.813C260.319 219.938 254.369 222.891 248.484 225.675C248.07 225.872 247.61 225.952 247.153 225.907C246.695 225.863 246.257 225.694 245.885 225.42C236.246 218.356 226.885 213.716 214.787 212.672C213.558 212.568 212.931 212.034 212.2 211.164C210.229 208.783 208.052 206.173 205.67 203.335Z" fill="#FFB923"/>
<path d="M386.205 206.397C386.468 207.132 386.537 207.766 386.413 208.299C386.313 208.771 385.915 209.158 385.219 209.459C381.159 211.199 376.635 212.382 372.842 213.832C369.942 214.946 366.756 216.067 363.284 217.196C363.012 217.288 362.72 217.305 362.437 217.246C362.154 217.187 361.89 217.053 361.672 216.86C360.914 216.187 360.674 215.209 360.953 213.925L386.205 206.397Z" fill="#54395F"/>
<path d="M169.375 221.001C175.534 213.96 186.403 210.538 195.103 215.317C196.27 215.959 196.193 216.373 194.871 216.558C189.543 217.324 185.042 219.628 181.369 223.471C181.207 223.642 181.013 223.7 180.789 223.645L169.433 221.175C169.317 221.152 169.298 221.094 169.375 221.001Z" fill="#FEFEFE"/>
<path d="M344.829 219.887C335.078 222.385 325.52 225.37 316.155 228.842C314.121 229.6 312.176 230.536 310.32 231.649L307.78 225.409C307.746 225.323 307.73 225.231 307.733 225.139C307.737 225.047 307.759 224.956 307.799 224.872C307.84 224.789 307.897 224.714 307.967 224.652C308.038 224.591 308.12 224.544 308.209 224.515L342.787 214.053C343.143 213.944 343.367 214.072 343.46 214.435L344.829 219.887Z" fill="#FEFEFE"/>
<path d="M344.829 219.887C345.146 220.529 345.343 221.094 345.42 221.581C345.467 221.921 345.328 222.141 345.003 222.242L311.817 233.064C311.664 233.113 311.502 233.129 311.343 233.11C311.184 233.091 311.031 233.037 310.895 232.953C310.759 232.869 310.643 232.757 310.556 232.624C310.469 232.491 310.412 232.34 310.39 232.183L310.32 231.649C312.176 230.536 314.121 229.6 316.155 228.842C325.52 225.37 335.078 222.385 344.829 219.887Z" fill="#817292"/>
<path d="M232.429 237.924C226.483 234.63 220.045 233.304 213.116 233.946C206.59 234.549 201.134 237.344 196.749 242.332L194.244 235.338C194.101 234.937 194.104 234.498 194.253 234.1C194.401 233.701 194.686 233.367 195.056 233.157C207.177 226.255 222.825 226.406 233.207 236.637C233.485 236.908 233.543 237.225 233.381 237.588C233.18 238.021 232.863 238.133 232.429 237.924Z" fill="#FEFEFE"/>
<path d="M292.863 236.127C290.787 236.312 288.792 236.463 286.75 237.043C279.381 239.138 272.096 241.505 264.897 244.142C261.881 245.244 258.726 245.742 255.605 246.566L253.135 240.569C253.098 240.48 253.08 240.385 253.082 240.289C253.084 240.193 253.106 240.098 253.146 240.011C253.187 239.924 253.245 239.846 253.316 239.783C253.388 239.719 253.473 239.671 253.564 239.641C261.56 237.074 269.552 234.363 277.54 231.51C281.252 230.18 285.049 229.368 288.931 229.074C289.581 229.025 290.227 229.212 290.749 229.6C291.271 229.988 291.635 230.551 291.773 231.185L292.863 236.127Z" fill="#FEFEFE"/>
<path d="M232.43 237.924C224.345 239.896 203.362 243.724 206.609 256.565C208.465 263.896 216.585 261.158 221.155 259.163C226.661 256.774 232.248 254.477 237.917 252.273C238.249 252.142 238.504 252.23 238.682 252.54C240.619 255.915 242.116 257.841 241.338 262.434C240.101 263.146 239.026 263.996 238.114 264.986C234.68 268.71 229.727 272.039 224.148 273.825C219.601 275.286 214.613 274.254 209.765 274.37C209.379 274.378 209.003 274.269 208.686 274.057L193.653 264.035C195.834 260.687 197.086 257.35 197.411 254.025C197.666 251.403 197.446 247.506 196.75 242.332C201.135 237.344 206.59 234.549 213.117 233.946C220.046 233.304 226.483 234.63 232.43 237.924Z" fill="#FFB923"/>
<path d="M180.046 244.478C177.958 244.354 173.137 244.451 165.582 244.768C160.888 244.969 157.524 243.21 155.49 239.49C156.001 237.163 157.176 235.485 159.016 234.456C159.334 234.278 159.593 234.34 159.794 234.642C160.188 235.245 160.466 235.628 161.244 235.697C165.547 236.138 169.862 235.755 174.038 237.089C177.483 238.18 178.991 241.369 180.046 244.478Z" fill="#FEFEFE"/>
<path d="M292.863 236.127C293.265 236.652 293.497 237.259 293.559 237.948C293.572 238.09 293.537 238.233 293.459 238.352C293.381 238.472 293.265 238.563 293.13 238.609L257.044 250.603C256.869 250.659 256.683 250.669 256.504 250.632C256.324 250.595 256.158 250.512 256.021 250.39C255.885 250.269 255.783 250.115 255.726 249.942C255.67 249.77 255.66 249.585 255.698 249.408C255.961 248.194 255.93 247.247 255.605 246.566C258.726 245.743 261.881 245.244 264.897 244.142C272.096 241.505 279.381 239.139 286.75 237.043C288.792 236.463 290.787 236.312 292.863 236.127Z" fill="#817292"/>
<path d="M318.174 248.422L345.723 238.992C345.794 238.969 345.87 238.965 345.943 238.981C346.016 238.996 346.084 239.031 346.138 239.081C346.193 239.131 346.233 239.194 346.253 239.264C346.274 239.334 346.275 239.408 346.256 239.479C342.695 253.329 329.332 257.91 318.011 249.478C317.923 249.412 317.854 249.324 317.812 249.222C317.77 249.121 317.757 249.009 317.774 248.901C317.79 248.792 317.836 248.69 317.907 248.606C317.978 248.521 318.07 248.458 318.174 248.422Z" fill="#FF743D"/>
<path d="M155.49 239.49C157.524 243.21 160.888 244.969 165.582 244.768C173.137 244.451 177.958 244.354 180.046 244.478C180.866 247.463 180.932 250.378 180.243 253.224C180.151 253.603 179.93 253.885 179.582 254.071C176.74 255.637 173.156 255.59 169.908 255.393C163.633 255.01 158.344 252.076 155.583 246.311C154.5 244.045 154.469 241.772 155.49 239.49Z" fill="#FCA87C"/>
<path d="M287.284 260.903C283.073 263.13 277.424 263.652 272.645 262.805C271.547 262.612 271.524 262.334 272.575 261.97L293.246 254.941C295.38 254.214 295.527 254.504 293.687 255.811C291.517 257.353 289.592 259.673 287.284 260.903Z" fill="#FE2453"/>
<path d="M308.662 262.991L306.423 269.649C306.299 270.02 306.102 270.341 305.832 270.612C305.283 271.169 304.629 272.108 303.871 273.431C302.603 275.634 299.893 277.746 295.74 279.764C281.38 286.758 266.985 285.877 251.65 283.673C251.101 283.596 250.378 283.603 249.481 283.696C248.414 283.797 247.679 283.623 247.277 283.174L251.256 277.432C251.488 277.108 251.801 276.98 252.196 277.05C272.645 280.703 295.404 283.313 307.688 262.527C307.904 262.164 308.155 262.136 308.442 262.446C308.573 262.585 308.646 262.767 308.662 262.991Z" fill="#FEFEFE"/>
<path d="M241.338 262.434C238.547 269.881 233.404 275.588 225.911 279.555C214.717 285.494 200.949 286.747 191.936 276.4C190.351 274.583 189.144 272.104 188.317 268.965C188.257 268.74 188.25 268.504 188.294 268.276C188.338 268.047 188.434 267.832 188.573 267.645C188.713 267.459 188.893 267.307 189.099 267.2C189.306 267.093 189.534 267.034 189.767 267.028C190.981 266.997 192.276 265.999 193.653 264.035L208.686 274.057C209.003 274.269 209.379 274.378 209.765 274.37C214.613 274.254 219.601 275.286 224.148 273.825C229.727 272.039 234.68 268.709 238.114 264.986C239.026 263.996 240.101 263.146 241.338 262.434Z" fill="#FE2453"/>
<path d="M308.662 262.991C310.177 263.965 311.395 265.203 312.316 266.703C312.517 267.035 312.575 267.387 312.49 267.758C307.676 288.626 282.215 295.238 263.598 292.349C256.638 291.267 249.74 289.72 242.904 287.709C242.862 287.697 242.824 287.674 242.794 287.642C242.764 287.61 242.743 287.571 242.734 287.528C242.724 287.485 242.727 287.441 242.74 287.399C242.754 287.358 242.778 287.321 242.811 287.292L247.277 283.174C247.679 283.623 248.414 283.797 249.481 283.696C250.378 283.603 251.101 283.595 251.65 283.673C266.985 285.877 281.38 286.758 295.74 279.764C299.893 277.745 302.603 275.634 303.871 273.43C304.629 272.108 305.282 271.169 305.832 270.612C306.102 270.341 306.299 270.02 306.423 269.649L308.662 262.991Z" fill="#FFB923"/>
<path d="M278.747 355.683C280.757 358.366 282.188 359.905 283.038 360.299C285.126 361.266 285.772 362.375 284.975 363.628L224.693 363.837L216.318 363.118C215.939 363.087 215.792 362.89 215.877 362.526C215.97 362.155 215.866 361.853 215.564 361.621C215.108 361.289 214.876 361.115 214.868 361.099C214.195 360.334 214.106 359.483 214.601 358.548C214.671 358.416 214.671 358.285 214.601 358.153C214.547 358.045 214.493 357.937 214.439 357.828C214.424 357.797 214.417 357.762 214.418 357.727C214.419 357.692 214.428 357.658 214.445 357.627C214.462 357.596 214.487 357.57 214.516 357.551C214.545 357.531 214.578 357.519 214.613 357.515C215.293 357.438 215.862 357.163 216.318 356.692C219.071 355.64 220.459 353.513 220.482 350.312C220.59 333.694 220.633 316.615 220.61 299.077C220.61 298.969 220.645 298.864 220.709 298.777C220.774 298.689 220.865 298.624 220.969 298.59L229.982 295.771C230.09 295.74 230.133 295.779 230.11 295.887C229.414 298.872 229.263 301.911 229.657 305.004C229.726 305.512 229.977 305.977 230.365 306.311C230.752 306.645 231.247 306.824 231.757 306.814C237.719 306.686 243.925 304.32 249.678 305.665C259.259 307.885 267.739 308.809 275.116 308.438C275.479 308.422 275.665 308.596 275.673 308.96C275.843 323.258 275.99 337.518 276.113 351.739C276.129 353.223 277.007 354.538 278.747 355.683Z" fill="#FFB923"/>
<path d="M216.318 356.692C215.862 357.163 215.294 357.438 214.613 357.515C214.578 357.519 214.545 357.531 214.516 357.551C214.487 357.57 214.463 357.597 214.446 357.627C214.429 357.658 214.419 357.692 214.418 357.727C214.417 357.762 214.424 357.797 214.439 357.828C214.493 357.937 214.547 358.045 214.601 358.153C214.671 358.285 214.671 358.416 214.601 358.548C214.107 359.483 214.195 360.334 214.868 361.099C214.876 361.115 215.108 361.289 215.564 361.621C215.866 361.853 215.97 362.155 215.877 362.526C215.792 362.89 215.939 363.087 216.318 363.118L224.693 363.837L200.624 364.243C200.51 364.244 200.397 364.224 200.292 364.182C200.186 364.14 200.09 364.078 200.01 363.999C199.929 363.92 199.864 363.826 199.82 363.723C199.777 363.619 199.754 363.508 199.754 363.396L199.534 298.915C199.534 298.873 199.542 298.832 199.559 298.793C199.575 298.755 199.6 298.721 199.63 298.693C199.661 298.664 199.697 298.643 199.736 298.629C199.775 298.615 199.817 298.61 199.858 298.613L206.749 299.123C206.831 299.129 206.907 299.166 206.963 299.226C207.019 299.287 207.05 299.366 207.05 299.448C206.81 325.934 206.822 342.989 207.085 350.614C207.263 355.578 210.341 357.604 216.318 356.692Z" fill="#FF9B30"/>
<path d="M284.976 363.628C285.772 362.376 285.126 361.266 283.038 360.299C282.188 359.905 280.757 358.366 278.747 355.683C284.407 357.655 289.662 356.147 289.685 349.72C289.747 335.36 289.658 321.093 289.418 306.918C289.41 306.709 289.503 306.574 289.697 306.512L296.308 304.355C296.349 304.34 296.393 304.336 296.437 304.343C296.48 304.349 296.521 304.366 296.557 304.392C296.593 304.418 296.623 304.452 296.645 304.492C296.666 304.532 296.678 304.576 296.679 304.622L296.958 363.176C296.966 363.601 296.757 363.81 296.331 363.802L284.976 363.628Z" fill="#FF9B30"/>
<path d="M173.156 338.446L172.576 338.805C167.902 333.493 160.292 330.036 154.284 326.278C150.031 323.618 145.399 321.638 140.388 320.339L135.725 313.333C135.438 312.9 135.543 312.753 136.038 312.892C151.287 317.107 163.66 325.624 173.156 338.446Z" fill="#FEFEFE"/>
<path d="M356.602 320.397C343.209 325.508 331.114 332.77 320.319 342.181C330.093 327.697 343.475 318.158 360.465 313.565C360.514 313.552 360.566 313.555 360.614 313.572C360.662 313.59 360.703 313.621 360.733 313.662C360.763 313.703 360.78 313.753 360.782 313.803C360.784 313.854 360.77 313.904 360.743 313.948L356.602 320.397Z" fill="#FEFEFE"/>
<path d="M172.576 338.805C172.313 342.486 172.089 346.217 171.903 349.999C171.764 352.945 170.268 354.929 168.829 357.341C164.298 351.82 159.669 346.438 154.945 341.195C148.994 334.583 144.934 327.774 140.387 320.339C145.398 321.638 150.03 323.618 154.283 326.278C160.292 330.036 167.901 333.493 172.576 338.805Z" fill="#78BF4F"/>
<path d="M356.602 320.397C352.071 328.076 348.463 333.632 345.78 337.065C340.224 344.164 330.295 353.432 323.729 363.408C323.615 363.583 323.461 363.728 323.279 363.829C323.096 363.93 322.893 363.985 322.685 363.988L313.243 364.127C313.122 364.127 313.006 364.08 312.919 363.995C312.833 363.911 312.782 363.796 312.779 363.675C312.71 359.626 312.025 354.94 314.02 351.275C315.861 347.888 317.96 344.856 320.319 342.181C331.114 332.77 343.209 325.508 356.602 320.397Z" fill="#78BF4F"/>
<path d="M173.156 338.446C175.994 341.663 178.616 345.115 181.021 348.804C183.793 353.073 183.236 358.582 183.526 363.431C183.534 363.556 183.517 363.681 183.475 363.799C183.433 363.916 183.368 364.025 183.284 364.117C183.199 364.209 183.097 364.283 182.983 364.334C182.869 364.386 182.746 364.414 182.621 364.417L174.397 364.603C174.018 364.61 173.725 364.459 173.516 364.15L168.83 357.341C170.268 354.929 171.764 352.945 171.903 349.999C172.089 346.217 172.313 342.486 172.576 338.805L173.156 338.446Z" fill="#5E818A"/>
<path d="M245.293 383.939C242.718 384.821 239.818 383.765 237.22 383.927C233.949 384.136 228.726 384.221 221.549 384.183C200.693 384.067 179.513 383.278 158.715 384.832C158.668 384.832 158.641 384.867 158.634 384.937C158.626 384.96 158.614 384.987 158.599 385.018C158.483 385.242 158.394 385.354 158.332 385.354L142.348 385.029C141.93 385.022 141.578 384.855 141.292 384.531C140.534 383.657 140.086 382.806 139.947 381.979C140.086 381.058 140.608 380.583 141.513 380.552C153.541 380.134 167.542 380.784 178.237 380.714C200.098 380.575 222.137 380.471 244.354 380.401C244.507 380.399 244.658 380.429 244.799 380.489C244.94 380.549 245.066 380.638 245.171 380.751C245.276 380.863 245.356 380.996 245.407 381.142C245.458 381.287 245.479 381.442 245.467 381.596L245.293 383.939Z" fill="#817292"/>
<path d="M357.948 383.394C357.971 383.897 357.905 384.345 357.751 384.739C357.604 385.095 357.337 385.254 356.95 385.215C351.336 384.716 345.467 385.737 340.386 385.482C327.986 384.855 315.61 385.238 303.245 384.751C293.281 384.357 283.143 384.333 273.167 384.194C269.231 384.14 265.318 384.233 261.428 384.473C261.166 383.506 261.154 382.501 261.394 381.457C261.479 381.062 261.726 380.865 262.136 380.865C293.656 380.687 325.175 380.672 356.695 380.819C357.492 380.819 357.963 381.031 358.11 381.457C358.273 381.913 358.219 382.559 357.948 383.394Z" fill="#817292"/>
<path d="M139.947 381.979C140.086 382.806 140.534 383.657 141.292 384.531C141.578 384.855 141.93 385.022 142.348 385.029L158.332 385.354C158.394 385.354 158.483 385.242 158.599 385.018C158.614 384.987 158.626 384.96 158.633 384.937C158.641 384.867 158.668 384.832 158.715 384.832C179.512 383.278 200.693 384.067 221.549 384.183C228.725 384.221 233.949 384.136 237.22 383.927C239.818 383.765 242.718 384.821 245.293 383.939L245.305 388.068C245.306 388.223 245.278 388.377 245.22 388.52C245.162 388.664 245.077 388.794 244.969 388.904C244.861 389.014 244.733 389.102 244.592 389.161C244.45 389.221 244.298 389.252 244.145 389.252L141.35 389.426C141.162 389.426 140.975 389.388 140.801 389.316C140.628 389.243 140.47 389.137 140.337 389.004C140.205 388.87 140.1 388.711 140.029 388.537C139.958 388.362 139.922 388.176 139.923 387.987L139.947 381.979Z" fill="#54395F"/>
<path d="M357.948 383.394C358.226 385.087 358.222 386.792 357.936 388.509C357.882 388.842 357.689 389.008 357.356 389.008L262.09 389.321C261.975 389.321 261.862 389.298 261.757 389.254C261.652 389.209 261.557 389.143 261.478 389.061C261.399 388.979 261.338 388.881 261.297 388.774C261.257 388.668 261.238 388.554 261.243 388.44L261.428 384.473C265.318 384.233 269.231 384.14 273.167 384.194C283.143 384.333 293.281 384.357 303.245 384.751C315.61 385.238 327.986 384.855 340.386 385.482C345.467 385.737 351.336 384.716 356.95 385.215C357.337 385.254 357.604 385.095 357.751 384.739C357.905 384.345 357.971 383.896 357.948 383.394Z" fill="#54395F"/>
<path d="M266.713 327.903C266.71 328.305 266.628 328.702 266.471 329.073C266.315 329.443 266.087 329.779 265.801 330.062C265.514 330.344 265.175 330.567 264.803 330.719C264.43 330.87 264.031 330.946 263.629 330.943L232.914 330.729C232.102 330.723 231.326 330.395 230.755 329.817C230.185 329.239 229.868 328.458 229.874 327.645L229.929 319.665C229.932 319.263 230.014 318.865 230.171 318.495C230.327 318.124 230.555 317.788 230.841 317.506C231.128 317.224 231.467 317 231.839 316.849C232.212 316.698 232.611 316.622 233.013 316.624L263.728 316.839C264.54 316.844 265.316 317.173 265.887 317.751C266.457 318.329 266.774 319.11 266.768 319.922L266.713 327.903Z" fill="#000001"/>
<path d="M266.951 352.825C266.952 353.142 266.892 353.456 266.772 353.749C266.652 354.043 266.476 354.31 266.253 354.535C266.03 354.76 265.765 354.939 265.473 355.062C265.181 355.185 264.868 355.249 264.551 355.251L232.444 355.419C231.804 355.422 231.189 355.171 230.734 354.721C230.279 354.271 230.022 353.658 230.019 353.019L229.97 343.693C229.968 343.376 230.029 343.062 230.149 342.768C230.268 342.475 230.445 342.208 230.667 341.983C230.89 341.758 231.155 341.579 231.447 341.456C231.74 341.333 232.053 341.269 232.37 341.267L264.477 341.099C265.117 341.096 265.732 341.347 266.186 341.797C266.641 342.247 266.899 342.859 266.902 343.499L266.951 352.825Z" fill="#000001"/>
</svg>
