<svg width="512" height="512" viewBox="0 0 512 512" fill="none" xmlns="http://www.w3.org/2000/svg">
<rect width="512" height="512" fill="white"/>
<path d="M400.124 310.009C398.405 308.917 396.165 308.355 394.52 307.541C376.11 298.434 358.571 287.371 342.85 274.11C341.763 273.192 339.561 271.658 336.243 269.507" stroke="#051531" stroke-width="2"/>
<path d="M336.243 269.507L329.311 263.479" stroke="#0A3F77" stroke-width="2"/>
<path d="M329.311 263.479C314.502 248.857 300.817 233.273 289.127 216.305C284.834 210.082 280.468 202.62 276.248 195.728C276.162 195.587 276.039 195.47 275.892 195.388C275.745 195.307 275.579 195.264 275.409 195.264L264.078 195.28" stroke="#616E8D" stroke-width="2"/>
<path d="M336.243 269.507C337.536 271.826 338.358 273.781 338.711 275.372C341.131 286.288 332.814 289.286 324.105 292.756" stroke="#0E508B" stroke-width="2"/>
<path d="M324.106 292.756C321.874 290.334 319.52 287.901 317.043 285.457C315.333 283.773 313.516 283.282 311.594 283.982" stroke="#0A3F77" stroke-width="2"/>
<path d="M399.53 317.43C398.987 317.984 398.503 318.264 398.08 318.269C385.741 318.378 368.705 318.37 346.972 318.245" stroke="#7388A2" stroke-width="2"/>
<path d="M346.971 318.245C348.166 315.127 347.631 312.741 345.367 311.084C337.351 305.225 330.264 299.115 324.105 292.756" stroke="#051531" stroke-width="2"/>
<path d="M329.311 263.479C327.302 262.914 325.38 262.36 323.544 261.817C321.336 261.166 319.952 262.037 318.331 263.78C312.205 270.338 306.348 259.349 303.717 255.414C300.882 251.17 295.31 251.17 292.296 255.3" stroke="#6AA8E8" stroke-width="2"/>
<path d="M292.295 255.3C290.568 256.072 289.707 257.353 289.713 259.145" stroke="#6BC8FF" stroke-width="2"/>
<path d="M346.971 318.245L339.045 318.481" stroke="#6F778D" stroke-width="2"/>
<path d="M292.296 255.3L311.594 283.983" stroke="#1499E8" stroke-width="2"/>
<path d="M311.593 283.983C310.111 284.618 309.152 285.671 308.718 287.143" stroke="#0B5E8E" stroke-width="2"/>
<path d="M308.718 287.143C303.325 284.754 298.715 285.31 294.886 288.813C293.118 290.418 291.628 293.073 290.129 295.224C282.838 305.651 261.96 305.838 251.052 303.899C245.79 302.96 241.418 300.904 237.937 297.733C234.736 294.817 233.986 290.507 229.873 288.544C229.259 288.251 227.855 287.974 225.661 287.713C218.354 286.834 215.584 280.92 214.721 274.126C214.701 273.976 214.638 273.836 214.539 273.723C214.44 273.609 214.31 273.527 214.165 273.487C214.02 273.447 213.866 273.451 213.723 273.498C213.58 273.545 213.454 273.633 213.361 273.751L203.887 285.962" stroke="#1C79B0" stroke-width="2"/>
<path d="M203.886 285.962C199.642 282.06 197.386 283.999 194.315 287.86C193.104 289.381 191.806 290.828 190.421 292.202" stroke="#0B5E8E" stroke-width="2"/>
<path d="M190.421 292.202C187.081 283.086 180.727 281.221 171.848 284.463C171.701 284.517 169.988 285.416 166.708 287.159C164.97 288.083 163.134 288.748 161.201 289.155" stroke="#1C79B0" stroke-width="2"/>
<path d="M308.718 287.143C308.305 288.723 308.699 290.201 309.899 291.575C317.176 299.9 325.222 307.402 334.036 314.082C336.409 315.88 338.079 317.346 339.046 318.481" stroke="#131F3F" stroke-width="2"/>
<path d="M339.045 318.481L175.506 318.375" stroke="#8192B0" stroke-width="2"/>
<path d="M175.506 318.375C176.711 317.283 177.534 315.939 178.74 314.954C186.878 308.323 193.452 302.971 201.475 293.945C202.985 292.24 203.876 291.083 204.147 290.475C204.745 289.144 204.658 287.64 203.887 285.962" stroke="#131F3F" stroke-width="2"/>
<path d="M190.422 292.202C183.949 298.653 177.32 304.467 170.537 309.642C169.272 310.609 168.24 311.693 167.442 312.893C167.284 313.132 167.217 313.395 167.238 313.683C167.358 315.258 167.819 316.803 168.623 318.318" stroke="#131F3F" stroke-width="2"/>
<path d="M168.623 318.318L122.142 318.399" stroke="#8192B0" stroke-width="2"/>
<path d="M175.505 318.375C173.246 318.771 170.952 318.752 168.622 318.318" stroke="#6F778D" stroke-width="2"/>
<path d="M400.124 310.009C398.405 308.917 396.165 308.355 394.52 307.541C376.11 298.433 358.571 287.371 342.85 274.109C341.763 273.192 339.561 271.657 336.243 269.507L329.311 263.479C314.501 248.857 300.816 233.273 289.127 216.305C284.834 210.082 280.467 202.62 276.248 195.728C276.161 195.587 276.038 195.47 275.891 195.388C275.745 195.307 275.578 195.264 275.409 195.264L264.078 195.28L236.112 195.468C235.835 195.468 235.624 195.59 235.477 195.834C231.282 202.913 226.907 210.644 222.671 216.941C204.139 244.474 181.314 266.346 154.448 285.758C141.024 295.457 126.649 303.443 111.323 309.716C110.52 310.047 109.537 309.803 108.374 308.983C103.405 305.496 107.153 301.219 111.25 299.395C125.94 292.851 140.31 284.363 154.359 273.93C182.251 253.212 204.902 228.318 222.313 199.248C224.52 195.549 227.795 186.067 232.886 186.075C256.944 186.135 272.028 186.111 278.138 186.002C280.853 185.948 282.813 186.952 284.019 189.016C287.856 195.582 291.766 202.522 295.782 208.51C322.305 248.091 358.979 280.48 402.584 300.462C403.709 300.972 404.768 301.931 405.761 303.337C405.913 303.549 405.992 303.788 405.998 304.054C406.079 308.035 404.121 310.02 400.124 310.009Z" fill="#01041C"/>
<path d="M264.078 195.28L275.409 195.264C275.579 195.264 275.745 195.307 275.892 195.388C276.039 195.47 276.162 195.587 276.248 195.728C280.468 202.62 284.834 210.082 289.127 216.305C300.817 233.273 314.502 248.857 329.311 263.479C327.302 262.914 325.38 262.36 323.544 261.817C321.337 261.165 319.952 262.037 318.331 263.78C312.205 270.338 306.348 259.349 303.717 255.414C300.882 251.17 295.31 251.17 292.296 255.3C290.569 256.071 289.708 257.353 289.714 259.145C281.676 243.081 276.327 231.761 273.666 225.184C270.94 218.456 267.744 208.488 264.078 195.28Z" fill="#C1D7FE"/>
<path d="M378.277 219.653C383.009 214.081 390.015 220.989 385.135 226.83C380.297 232.619 375.358 237.146 370.318 240.409C366 243.212 359.093 235.815 365.463 231.449C369.911 228.408 374.182 224.476 378.277 219.653Z" fill="#01041C"/>
<path d="M142.254 236.988C142.254 238.474 141.663 239.9 140.612 240.951C139.561 242.002 138.136 242.593 136.649 242.593C135.163 242.593 133.737 242.002 132.686 240.951C131.635 239.9 131.045 238.474 131.045 236.988C131.045 235.502 131.635 234.076 132.686 233.025C133.737 231.974 135.163 231.384 136.649 231.384C138.136 231.384 139.561 231.974 140.612 233.025C141.663 234.076 142.254 235.502 142.254 236.988Z" fill="#01041C"/>
<path d="M289.713 259.145C289.707 257.353 290.568 256.072 292.295 255.3L311.593 283.983C310.11 284.618 309.152 285.672 308.717 287.143C303.325 284.754 298.714 285.31 294.886 288.813C293.118 290.418 291.627 293.074 290.128 295.224C282.838 305.651 261.959 305.838 251.052 303.9C245.789 302.96 241.418 300.905 237.937 297.733C234.735 294.817 233.986 290.508 229.872 288.544C229.258 288.251 227.855 287.974 225.661 287.713C218.354 286.834 215.584 280.92 214.721 274.126C214.701 273.977 214.638 273.836 214.539 273.723C214.44 273.609 214.31 273.527 214.165 273.487C214.019 273.447 213.866 273.451 213.723 273.498C213.58 273.545 213.453 273.633 213.36 273.751L203.886 285.962C199.642 282.06 197.386 283.999 194.315 287.86C193.104 289.381 191.806 290.828 190.421 292.202C187.081 283.087 180.727 281.221 171.848 284.463C171.701 284.517 169.988 285.416 166.708 287.16C164.97 288.083 163.134 288.748 161.201 289.155C171.807 281.129 182.09 272.798 192.05 264.163C192.599 263.685 193.166 263.224 193.753 262.778C194.03 262.568 194.37 262.458 194.718 262.467C195.066 262.476 195.401 262.603 195.667 262.827C197.101 264.041 198.624 265.646 200.53 265.858C202.556 266.075 204.193 265.423 205.442 263.903C208.073 260.701 209.54 256.767 212.741 254.119C217.702 250.03 224.732 255.52 223.583 261.223C223.062 263.824 222.451 266.409 221.751 268.978C220.455 273.727 229.163 277.262 231.167 270.46C234.312 259.816 237.22 250.435 239.892 242.316C241.35 237.892 245.692 235.106 249.757 238.674C250.81 239.592 251.312 240.798 251.264 242.291C251.025 250.063 251.12 255.243 251.549 257.834C252.086 261.065 253.889 262.537 256.958 262.249C260.338 261.931 261.137 259.129 261.169 256.009C261.202 252.629 260.387 241.306 262.31 239.09C264.46 236.622 268.167 236.475 270.529 238.699C272.826 240.866 274.358 246.56 275.449 249.745C277.632 256.156 280.467 262.371 282.903 268.709C283.799 271.039 284.679 272.565 285.542 273.287C288.532 275.796 295.236 273.629 293.289 268.407C292.138 265.328 290.946 262.241 289.713 259.145Z" fill="#14B8FF"/>
<path d="M329.311 263.479L336.244 269.507C337.536 271.826 338.359 273.781 338.712 275.372C341.131 286.288 332.814 289.286 324.106 292.756C321.874 290.334 319.52 287.901 317.044 285.457C315.333 283.773 313.516 283.282 311.594 283.983L292.296 255.3C295.31 251.17 300.882 251.17 303.717 255.414C306.348 259.349 312.205 270.338 318.331 263.78C319.952 262.037 321.336 261.166 323.544 261.817C325.38 262.36 327.302 262.914 329.311 263.479Z" fill="#1379D1"/>
<path d="M336.243 269.507C339.561 271.658 341.763 273.192 342.849 274.11C358.571 287.371 376.11 298.434 394.52 307.541C396.165 308.355 398.405 308.917 400.124 310.009C401.368 313.132 401.17 315.605 399.53 317.43C398.986 317.984 398.503 318.264 398.08 318.269C385.741 318.378 368.705 318.37 346.971 318.245C348.166 315.127 347.631 312.741 345.367 311.084C337.351 305.225 330.264 299.115 324.105 292.756C332.814 289.286 341.131 286.288 338.711 275.372C338.358 273.781 337.536 271.826 336.243 269.507Z" fill="#092645"/>
<path d="M308.718 287.143C308.305 288.723 308.699 290.201 309.899 291.575C317.176 299.9 325.222 307.402 334.036 314.082C336.409 315.88 338.079 317.346 339.045 318.481L175.506 318.375C176.711 317.283 177.534 315.939 178.74 314.954C186.878 308.323 193.452 302.971 201.475 293.945C202.985 292.24 203.876 291.083 204.147 290.475C204.745 289.144 204.658 287.64 203.887 285.962L213.36 273.751C213.454 273.633 213.58 273.545 213.723 273.498C213.866 273.451 214.02 273.447 214.165 273.487C214.31 273.527 214.44 273.609 214.539 273.723C214.638 273.836 214.701 273.976 214.721 274.126C215.584 280.92 218.354 286.834 225.661 287.713C227.855 287.974 229.259 288.251 229.872 288.544C233.986 290.507 234.736 294.817 237.937 297.733C241.418 300.904 245.79 302.96 251.052 303.899C261.96 305.838 282.838 305.651 290.129 295.224C291.627 293.073 293.118 290.418 294.886 288.813C298.714 285.31 303.325 284.754 308.718 287.143Z" fill="#243961"/>
<path d="M190.421 292.202C183.948 298.653 177.32 304.467 170.537 309.642C169.271 310.609 168.24 311.693 167.441 312.893C167.284 313.132 167.216 313.395 167.238 313.683C167.357 315.258 167.819 316.803 168.622 318.318L122.141 318.399C122.005 317.634 122.092 317.134 122.402 316.901C127.273 313.305 132.245 309.86 137.317 306.563C141.879 303.593 149.84 297.79 161.201 289.155C163.135 288.748 164.97 288.083 166.708 287.159C169.988 285.416 171.702 284.517 171.848 284.463C180.727 281.221 187.081 283.086 190.421 292.202Z" fill="#243961"/>
<path d="M324.106 292.756C330.264 299.115 337.351 305.225 345.367 311.084C347.632 312.741 348.166 315.127 346.972 318.245L339.046 318.481C338.079 317.346 336.409 315.88 334.036 314.082C325.222 307.402 317.176 299.9 309.899 291.575C308.699 290.201 308.305 288.723 308.718 287.143C309.152 285.671 310.111 284.618 311.594 283.982C313.516 283.282 315.333 283.773 317.043 285.457C319.52 287.901 321.874 290.334 324.106 292.756Z" fill="#01041C"/>
<path d="M203.887 285.962C204.658 287.64 204.745 289.144 204.148 290.475C203.876 291.083 202.986 292.24 201.476 293.945C193.452 302.971 186.878 308.323 178.741 314.954C177.535 315.939 176.712 317.283 175.507 318.375C173.247 318.771 170.953 318.752 168.623 318.318C167.819 316.803 167.358 315.258 167.238 313.683C167.217 313.395 167.284 313.132 167.442 312.893C168.24 311.693 169.272 310.609 170.537 309.642C177.32 304.467 183.949 298.653 190.422 292.202C191.807 290.828 193.105 289.381 194.316 287.86C197.387 283.999 199.643 282.06 203.887 285.962Z" fill="#01041C"/>
<path d="M399.53 317.43C399.147 318.424 402.365 320.526 402.454 322.521C402.625 326.651 398.129 326.619 395.229 326.602C353.097 326.456 316.343 326.969 268.754 326.659C263.236 326.621 257.811 326.611 252.478 326.627C206.654 326.741 160.83 326.736 115.006 326.611C107.242 326.586 109.336 318.562 114.395 318.513C116.996 318.486 119.578 318.448 122.141 318.399L168.623 318.318C170.952 318.752 173.247 318.771 175.506 318.375L339.046 318.481L346.972 318.245C368.705 318.37 385.741 318.378 398.08 318.269C398.503 318.264 398.987 317.984 399.53 317.43Z" fill="#DDEAFE"/>
</svg>
