<svg width="1024" height="1024" viewBox="0 0 1024 1024" fill="none" xmlns="http://www.w3.org/2000/svg">
<rect width="1024" height="1024" fill="white"/>
<path d="M315.947 751.501C316.973 751.486 317.486 750.966 317.486 749.94C317.56 641.971 317.552 534.178 317.464 426.561C317.464 419.698 319.121 408.7 322.435 393.567C334.775 337.193 369.594 294.697 418.732 265.905C494.969 221.232 588.56 236.057 650.653 297.139C679.863 325.887 698.582 365.149 705.752 405.291C707.615 415.775 708.553 430.381 708.568 449.106C708.7 586.74 708.714 682.237 708.612 735.598C708.597 741.435 708.707 746.325 708.942 750.269C708.986 751.076 709.418 751.486 710.239 751.501C723.671 751.618 737.023 751.626 750.293 751.523C770.287 751.369 771.167 783.571 747.324 783.637C539.29 784.106 382.637 784.121 277.367 783.681C255.503 783.593 253.633 751.589 276.289 751.611C289.779 751.626 302.999 751.589 315.947 751.501Z" fill="#010808"/>
<path d="M225.467 768.632C226.494 774.902 232.127 779.198 238.049 778.228C243.971 777.259 247.94 771.39 246.913 765.12C245.887 758.85 240.253 754.554 234.331 755.524C228.409 756.493 224.441 762.362 225.467 768.632Z" fill="#010808"/>
<path d="M778.033 767.288C778.21 773.614 783.187 778.608 789.149 778.441C795.111 778.275 799.801 773.011 799.625 766.684C799.448 760.358 794.471 755.364 788.509 755.531C782.547 755.697 777.857 760.961 778.033 767.288Z" fill="#010808"/>
<path d="M526.73 292.146C523.079 292.498 519.119 292.74 514.852 292.872C480.451 293.905 442.883 310.314 419.524 336.049C419.329 336.263 419.196 336.525 419.137 336.808C419.077 337.091 419.094 337.386 419.186 337.662C419.277 337.938 419.44 338.186 419.657 338.382C419.875 338.578 420.14 338.714 420.425 338.776C424.868 339.7 428.432 341.856 429.905 346.475C433.527 357.927 429.37 365.86 417.434 370.274C411.129 372.605 405.498 371.594 400.541 367.239C400.152 366.9 399.645 366.728 399.13 366.761C398.616 366.794 398.135 367.029 397.792 367.415C381.581 385.319 375.312 413.033 374.587 436.459C373.927 457.912 374.073 509.653 375.026 591.681" stroke="#94A1A9" stroke-width="2"/>
<path d="M530.777 329.164C530.469 329.545 530.257 329.897 530.139 330.22C530.076 330.411 530.055 330.613 530.078 330.813C530.101 331.012 530.167 331.205 530.272 331.376C530.377 331.548 530.517 331.695 530.684 331.806C530.851 331.918 531.041 331.992 531.239 332.024C534.92 332.581 538.527 332.375 542.061 331.408" stroke="#4A5F73" stroke-width="2"/>
<path d="M375.005 751.589C375.064 730.254 375.247 709.343 375.555 688.858C375.599 685.969 376.083 683.308 377.006 680.873C377.35 679.963 378.02 679.213 378.886 678.77C379.752 678.327 380.752 678.222 381.692 678.476C393.95 681.702 400.974 677.075 402.763 664.597" stroke="#94A1A9" stroke-width="2"/>
<path d="M381.142 624.873C381.215 625.166 381.281 625.415 381.34 625.621C381.4 625.84 381.512 626.041 381.667 626.207C381.822 626.373 382.014 626.498 382.227 626.572C382.44 626.646 382.667 626.666 382.888 626.63C383.109 626.595 383.318 626.505 383.495 626.368C387.85 623.113 389.786 620.298 389.302 617.922" stroke="#7A8A9A" stroke-width="2"/>
<path d="M578.024 288.846C577.833 296.955 576.191 303.591 573.097 308.752" stroke="#B5BDC9" stroke-width="2"/>
<path d="M559.174 317.617C559.811 327.647 549.957 331.144 542.061 331.408" stroke="#94A1A9" stroke-width="2"/>
<path d="M542.061 331.408C540.595 330.982 539.4 330.286 538.476 329.318C537.992 328.819 538.036 328.357 538.608 327.932C539.414 327.346 539.876 326.356 539.993 324.963" stroke="#B5BDC9" stroke-width="2"/>
<path d="M586.624 473.587C589.307 473.265 590.818 473.895 591.155 475.479C593.289 485.641 587.504 493.449 581.279 500.664C577.518 504.997 572.393 504.733 567.048 505.085" stroke="#E5E9F0" stroke-width="2"/>
<path d="M526.73 292.146C523.079 292.498 519.119 292.739 514.852 292.871C480.451 293.905 442.883 310.314 419.523 336.049C419.329 336.263 419.196 336.525 419.137 336.808C419.077 337.091 419.094 337.386 419.185 337.662C419.277 337.938 419.439 338.186 419.657 338.382C419.875 338.577 420.139 338.714 420.425 338.776C424.868 339.7 428.432 341.856 429.905 346.475C433.527 357.927 429.37 365.86 417.434 370.274C411.128 372.605 405.498 371.594 400.541 367.239C400.152 366.9 399.645 366.728 399.13 366.761C398.615 366.794 398.134 367.029 397.792 367.414C381.581 385.319 375.312 413.033 374.586 436.459C373.927 457.912 374.073 509.653 375.026 591.681C372.695 596.256 368.838 600.142 363.457 603.339C361.418 604.556 360.473 607.218 360.619 611.323C361.367 631.369 361.404 645.116 360.729 652.565C360.377 656.48 358.031 659.89 353.691 662.793C353.133 663.16 352.855 663.013 352.855 662.353C353.089 592.554 353.053 522.762 352.745 452.977C352.657 433.475 353.456 418.862 355.142 409.14C366.162 345.397 412.265 298.194 473.874 280.158C494.917 273.985 516.304 272.592 538.035 275.979C539.561 276.228 540.917 276.573 542.105 277.013C542.3 277.085 542.472 277.207 542.604 277.368C542.736 277.529 542.823 277.723 542.856 277.93C542.889 278.137 542.868 278.35 542.794 278.548C542.72 278.746 542.596 278.922 542.435 279.058L526.73 292.146Z" fill="white"/>
<path d="M578.024 288.846C577.833 296.955 576.191 303.591 573.097 308.752C565.428 308.503 560.787 311.458 559.174 317.616C559.811 327.646 549.957 331.144 542.061 331.408C540.595 330.982 539.4 330.286 538.476 329.318C537.992 328.819 538.036 328.357 538.608 327.932C539.414 327.346 539.876 326.356 539.993 324.963L550.485 319.816C551.248 319.435 551.519 318.833 551.299 318.012C550.111 313.503 549.672 301.977 555.742 299.888C560.684 298.202 564.944 295.467 568.522 291.684C568.976 291.214 569.248 290.657 569.336 290.012C569.468 288.985 569.827 288.04 570.413 287.174C570.883 286.485 571.535 286.192 572.371 286.295C574.556 286.544 576.44 287.394 578.024 288.846Z" fill="white"/>
<path d="M578.024 288.846C625.248 312.58 662.311 357.099 671.109 409.844C672.443 417.821 673.14 430.85 673.199 448.93C673.506 548.174 673.748 648.137 673.924 748.818C673.924 750.255 673.199 750.995 671.747 751.039L654.656 751.457C653.307 751.487 652.618 750.819 652.589 749.456C652.471 744.045 652.435 738.326 652.479 732.299C652.992 636.076 653.256 539.845 653.271 443.607C653.271 431.73 652.669 421.634 651.467 413.319C645.55 372.364 619.683 335.477 586.206 313.547C582.643 311.216 578.273 309.618 573.097 308.752C576.191 303.591 577.833 296.955 578.024 288.846Z" fill="#6B7B92"/>
<path d="M526.73 292.146C528.9 303.598 528.79 314.97 526.4 326.261C526.295 326.757 526.327 327.272 526.492 327.752C526.658 328.231 526.951 328.656 527.34 328.982C527.728 329.307 528.198 329.521 528.699 329.599C529.2 329.678 529.713 329.619 530.183 329.428C530.374 329.355 530.572 329.267 530.777 329.164C530.469 329.545 530.257 329.897 530.139 330.22C530.076 330.411 530.055 330.613 530.078 330.813C530.101 331.012 530.167 331.205 530.272 331.376C530.376 331.548 530.517 331.695 530.684 331.807C530.851 331.918 531.04 331.992 531.239 332.024C534.92 332.581 538.527 332.376 542.061 331.408C549.957 331.144 559.811 327.647 559.173 317.617C559.437 318.584 559.775 319.274 560.185 319.684C560.713 320.212 561.248 320.227 561.791 319.728C562.597 318.951 563.433 318.225 564.298 317.551C565.325 316.729 566.271 316.399 567.136 316.561C567.986 316.722 568.595 317.221 568.961 318.056C569.24 318.672 569.636 319.2 570.149 319.64L592.563 339.194C593.208 339.766 593.714 340.441 594.08 341.218C594.945 343.051 596.317 344.459 598.194 345.441C598.866 345.785 599.413 346.34 599.755 347.025C602.307 352.018 606.442 355.581 608.883 360.002C613.282 367.935 617.278 376.059 620.871 384.373C621.15 385.062 621.164 385.752 620.915 386.441C620.108 388.699 620.959 390.07 623.466 390.554C623.635 390.585 623.794 390.652 623.933 390.751C624.073 390.851 624.189 390.979 624.272 391.128C624.356 391.278 624.407 391.443 624.419 391.614C624.432 391.784 624.407 391.956 624.346 392.116C623.246 395.034 624.09 397.065 626.876 398.208C627.697 398.56 628.401 398.399 628.987 397.724C629.427 397.211 629.933 396.793 630.505 396.471C631.136 396.104 631.678 396.207 632.133 396.779L634.156 399.264C634.299 399.443 634.383 399.66 634.399 399.888C634.414 400.116 634.36 400.343 634.243 400.54C634.125 400.736 633.951 400.891 633.743 400.986C633.535 401.08 633.303 401.109 633.078 401.068C631.524 400.804 630.05 400.203 628.657 399.264C628.428 399.109 628.164 399.014 627.888 398.989C627.612 398.963 627.335 399.007 627.081 399.116C626.827 399.226 626.604 399.397 626.434 399.615C626.263 399.833 626.151 400.091 626.106 400.364C625.871 401.874 626.223 403.084 627.162 403.993C628.415 405.247 630.637 404.785 632.265 404.741C632.427 404.735 632.589 404.762 632.741 404.82C632.893 404.878 633.032 404.966 633.149 405.079C633.266 405.192 633.359 405.328 633.422 405.477C633.486 405.627 633.518 405.788 633.518 405.951L633.54 407.205C633.54 407.703 633.298 408.004 632.815 408.106C632.067 408.282 631.429 408.092 630.901 407.534C630.736 407.362 630.534 407.231 630.31 407.15C630.085 407.069 629.846 407.042 629.609 407.069C629.372 407.097 629.145 407.179 628.946 407.31C628.746 407.44 628.58 407.615 628.459 407.82C627.521 409.419 627.521 411.032 628.459 412.659C628.855 413.349 629.449 413.679 630.241 413.649C631.18 413.605 632.118 413.488 633.056 413.297C633.584 413.18 634.024 413.165 634.376 413.253C635.256 413.459 635.52 413.979 635.168 414.815C635.08 415.037 634.921 415.226 634.715 415.352C634.51 415.479 634.267 415.537 634.024 415.519C632.133 415.358 630.82 415.585 630.087 416.201C629.559 416.655 629.501 417.748 629.911 419.478C630.292 421.076 630.278 422.697 629.867 424.339C629.662 425.146 629.794 425.886 630.263 426.561C631.187 427.924 631.267 429.347 630.505 430.828C630.08 431.678 630.109 432.514 630.593 433.335L631.957 435.601C632.115 435.86 632.183 436.164 632.151 436.466C632.119 436.768 631.989 437.052 631.781 437.272C630.08 439.105 630.234 440.843 632.243 442.485C632.844 442.984 632.903 443.534 632.419 444.135C630.923 446.041 630.857 448.021 632.221 450.074C632.356 450.269 632.541 450.427 632.756 450.531C632.972 450.635 633.212 450.682 633.452 450.668C633.966 450.624 634.31 450.8 634.486 451.196C634.567 451.382 634.571 451.594 634.497 451.783C634.423 451.973 634.277 452.125 634.09 452.207C631.861 453.161 630.864 454.876 631.099 457.354C631.158 458.029 631.524 458.322 632.199 458.234L637.478 457.508C637.771 457.464 637.983 457.567 638.115 457.816L638.445 458.432C638.563 458.652 638.504 458.806 638.269 458.894L633.716 460.918C632.147 461.607 630.85 461.27 629.823 459.906C621.157 448.358 611.215 442.221 596.346 442.661C583.94 443.013 571.711 443.299 559.657 443.519C559.378 443.525 559.101 443.475 558.841 443.373C558.581 443.271 558.344 443.119 558.143 442.924C557.943 442.73 557.783 442.498 557.673 442.241C557.563 441.985 557.505 441.709 557.502 441.43C557.458 428.203 557.421 415.211 557.392 402.453C557.377 392.937 556.585 386.001 555.016 381.646C541.555 344.275 486.258 344.495 471.829 381.404C470.099 385.861 469.27 391.544 469.343 398.45C469.475 412 469.637 425.835 469.827 439.956C469.833 440.315 469.767 440.671 469.633 441.005C469.498 441.338 469.298 441.641 469.044 441.897C468.79 442.153 468.488 442.356 468.154 442.495C467.82 442.634 467.462 442.705 467.1 442.705C454.416 442.603 441.402 442.683 428.058 442.947C396.142 443.585 382.813 474.445 387.498 502.445C389.632 515.225 396.758 521.032 404.94 528.928C410.791 534.559 421.085 534.823 431.665 535.351C444.071 535.937 456.344 536.062 468.486 535.725C469.321 535.695 469.732 536.099 469.717 536.934C468.867 572.23 468.61 607.482 468.948 642.689C469.036 650.974 469.739 657.111 471.059 661.099C475.414 674.341 486.874 683.975 499.785 688.198C530.667 698.272 556.864 675.638 556.886 644.867C556.901 608.75 556.769 572.574 556.49 536.34C556.49 536.109 556.536 535.879 556.625 535.665C556.714 535.451 556.844 535.258 557.008 535.096C557.172 534.934 557.366 534.807 557.58 534.722C557.793 534.638 558.021 534.597 558.25 534.603C571.945 534.911 585.737 535.021 599.623 534.933C612.865 534.845 621.355 531.084 627.888 520.152C629.163 517.996 629.911 518.165 630.131 520.658C630.644 526.729 630.578 532.755 629.933 538.738C629.891 539.141 629.955 539.548 630.119 539.918C630.284 540.289 630.543 540.609 630.871 540.848C631.198 541.086 631.583 541.234 631.986 541.277C632.389 541.32 632.796 541.256 633.166 541.092C634.12 540.666 635.117 540.49 636.158 540.564C636.454 540.58 636.733 540.706 636.941 540.918C637.148 541.13 637.269 541.411 637.28 541.707L637.346 543.027C637.354 543.176 637.327 543.326 637.267 543.462C637.207 543.599 637.115 543.72 636.999 543.814C636.883 543.909 636.746 543.974 636.6 544.006C636.454 544.037 636.302 544.033 636.158 543.995L631.891 542.851C631.114 542.646 630.571 542.917 630.263 543.665C629.647 545.205 629.676 546.752 630.351 548.306C630.674 549.025 630.769 549.772 630.637 550.55C630.094 554.01 629.984 557.471 630.307 560.932C630.571 563.703 629.427 566.21 630.395 569.114C630.63 569.803 630.644 570.5 630.439 571.204C630.131 572.347 629.779 572.787 630.043 574.129C630.864 578.352 630.806 582.898 629.867 587.766C629.812 588.058 629.835 588.359 629.933 588.64C630.031 588.92 630.201 589.17 630.426 589.364C630.651 589.558 630.923 589.689 631.215 589.744C631.507 589.8 631.808 589.777 632.089 589.68C634.083 588.976 635.887 589.254 637.5 590.516C637.652 590.637 637.771 590.796 637.844 590.977C637.916 591.158 637.94 591.354 637.914 591.548C637.887 591.741 637.811 591.924 637.692 592.078C637.573 592.233 637.416 592.354 637.236 592.429C635.637 593.074 634.068 593.016 632.529 592.253C632.257 592.118 631.954 592.057 631.651 592.075C631.348 592.094 631.055 592.191 630.801 592.358C630.548 592.525 630.342 592.756 630.205 593.027C630.068 593.298 630.005 593.6 630.021 593.903C630.417 601.132 630.571 608.684 630.483 616.558C630.336 629.037 630.219 641.516 630.131 653.995C630.131 656.282 631.935 658.262 629.251 660.747C629.171 660.821 629.107 660.911 629.065 661.011C629.022 661.112 629.003 661.221 629.007 661.33C629.011 661.439 629.039 661.545 629.089 661.642C629.139 661.739 629.209 661.824 629.295 661.891L633.1 664.751C634.582 665.88 634.398 666.32 632.551 666.07C598.589 661.627 613.238 702.869 608.531 719.542C608.437 719.89 608.226 720.195 607.934 720.407C607.642 720.619 607.286 720.725 606.926 720.707C591.925 719.901 584.483 726.764 584.6 741.295C584.622 743.935 586.008 746.882 586.14 749.39C586.243 751.149 585.407 752.029 583.632 752.029L375.004 751.589C375.063 730.253 375.246 709.343 375.554 688.858C375.598 685.969 376.082 683.308 377.006 680.873C377.349 679.963 378.02 679.213 378.886 678.77C379.752 678.327 380.752 678.222 381.691 678.476C393.95 681.702 400.974 677.075 402.763 664.597C404.86 663.218 405.241 661.217 403.907 658.592C402.521 655.886 399.068 653.445 397.132 650.124C395.182 646.722 392.894 643.569 390.269 640.666C386.97 637.014 385.518 633.737 383.627 629.536C383.348 628.92 382.886 628.502 382.241 628.282C381.522 628.033 381.024 627.512 380.745 626.72C380.379 625.679 380.511 625.063 381.141 624.873C381.215 625.166 381.281 625.415 381.339 625.621C381.4 625.839 381.512 626.041 381.667 626.207C381.822 626.373 382.014 626.498 382.227 626.572C382.44 626.646 382.667 626.666 382.888 626.63C383.109 626.595 383.317 626.505 383.495 626.368C387.85 623.113 389.785 620.298 389.302 617.922C390.357 614.139 389.969 610.737 388.136 607.716C384.382 601.587 380.012 596.242 375.026 591.681C374.073 509.653 373.927 457.912 374.587 436.459C375.312 413.033 381.581 385.319 397.792 367.415C398.135 367.029 398.616 366.794 399.13 366.761C399.645 366.728 400.152 366.9 400.541 367.239C405.498 371.594 411.129 372.605 417.434 370.274C429.37 365.86 433.527 357.927 429.905 346.475C428.432 341.856 424.868 339.7 420.425 338.776C420.14 338.714 419.875 338.578 419.657 338.382C419.44 338.186 419.277 337.938 419.186 337.662C419.094 337.386 419.077 337.091 419.137 336.808C419.196 336.525 419.329 336.263 419.524 336.049C442.883 310.314 480.451 293.905 514.852 292.872C519.119 292.74 523.079 292.498 526.73 292.146Z" fill="#284253"/>
<path d="M539.993 324.963C539.876 326.356 539.414 327.346 538.608 327.932C538.036 328.357 537.992 328.819 538.476 329.318C539.399 330.286 540.595 330.982 542.061 331.408C538.527 332.375 534.92 332.581 531.239 332.024C531.041 331.992 530.851 331.918 530.684 331.806C530.517 331.695 530.377 331.548 530.272 331.376C530.167 331.205 530.101 331.012 530.078 330.813C530.055 330.613 530.076 330.411 530.139 330.22C530.257 329.897 530.469 329.545 530.777 329.164L539.993 324.963Z" fill="#6B7B92"/>
<path d="M586.624 473.587C589.307 473.265 590.818 473.895 591.155 475.479C593.289 485.641 587.504 493.449 581.279 500.664C577.518 504.997 572.393 504.733 567.048 505.085C558.909 505.158 550.734 505.21 542.523 505.239C531.437 505.283 526.84 511.97 526.884 522.154C526.987 561.071 527.111 599.981 527.258 638.884C527.287 645.747 526.473 650.6 524.816 653.445C520.109 661.539 504.514 661.1 500.291 651.795C499.353 649.743 498.898 646.516 498.928 642.117C499.177 602.701 499.397 563.293 499.587 523.891C499.617 516.765 497.219 511.574 492.395 508.318C489.389 506.265 484.396 505.276 477.416 505.349C463.353 505.496 449.298 505.569 435.25 505.569C411.473 505.569 413.761 473.323 431.445 473.609C447.795 473.859 464.138 473.822 480.473 473.499C493.715 473.235 499.367 466.615 499.345 454.055C499.331 435.168 499.272 416.289 499.17 397.417C499.148 391.962 502.623 388.31 506.538 385.319C511.311 381.668 515.798 382.768 520.241 386.089C529.545 393.061 526.62 397.967 526.73 407.513C526.935 422.455 527.089 437.375 527.192 452.274C527.28 466.417 531.107 473.587 545.756 473.741C559.335 473.888 572.957 473.837 586.624 473.587Z" fill="white"/>
<path d="M567.048 505.085C572.393 504.733 577.518 504.997 581.279 500.664C587.504 493.449 593.289 485.641 591.155 475.479C590.818 473.895 589.307 473.265 586.624 473.587C598.795 472.003 605.254 476.74 606.002 487.796C607.52 510.694 580.157 505.041 567.048 505.085Z" fill="#CBD2E0"/>
<path d="M636.136 548.372C636.258 548.323 636.395 548.326 636.518 548.379C636.642 548.432 636.741 548.533 636.796 548.658C637.06 549.215 637.126 549.817 636.994 550.462C636.936 550.763 636.786 551.039 636.565 551.248C636.344 551.457 636.063 551.59 635.762 551.627C634.985 551.715 634.274 551.518 633.629 551.034C633.48 550.918 633.365 550.764 633.295 550.589C633.226 550.414 633.204 550.223 633.233 550.036C633.263 549.85 633.341 549.675 633.461 549.529C633.581 549.384 633.737 549.273 633.915 549.208L636.136 548.372Z" fill="#284253"/>
<path d="M389.302 617.922C389.786 620.298 387.85 623.113 383.495 626.368C383.318 626.505 383.109 626.595 382.888 626.63C382.667 626.666 382.44 626.646 382.227 626.572C382.014 626.498 381.822 626.373 381.667 626.207C381.512 626.041 381.4 625.84 381.34 625.621C381.281 625.415 381.215 625.166 381.142 624.873C381.845 621.705 384.566 619.388 389.302 617.922Z" fill="#CBD2E0"/>
<path d="M402.763 664.597C400.974 677.075 393.95 681.702 381.691 678.476C380.752 678.222 379.752 678.327 378.886 678.77C378.02 679.213 377.35 679.963 377.006 680.873C376.082 683.308 375.598 685.969 375.554 688.858C375.246 709.343 375.063 730.253 375.004 751.589L355.406 751.853C354.101 751.882 353.449 751.245 353.449 749.94L353.031 690.529C353.024 689.55 353.252 688.583 353.696 687.707C354.139 686.831 354.786 686.072 355.582 685.492C361.228 681.475 365.458 675.807 368.274 668.49C372.299 657.998 380.327 663.695 385.408 668.886C385.778 669.266 386.222 669.565 386.714 669.764C387.206 669.963 387.735 670.057 388.266 670.04C388.798 670.024 389.321 669.897 389.802 669.668C390.283 669.439 390.712 669.113 391.061 668.71C393.466 665.938 397.367 664.567 402.763 664.597Z" fill="white"/>
</svg>
