<svg width="1024" height="1024" viewBox="0 0 1024 1024" fill="none" xmlns="http://www.w3.org/2000/svg">
<rect width="1024" height="1024" fill="white"/>
<path d="M476.768 327.935C475.288 348.219 491.807 366.442 512.54 360.39C519.936 358.216 526.84 366.218 521.886 373.48C511.681 388.497 498.367 396.88 481.945 398.628C451.866 401.855 418.268 379.711 411.14 349.654C402.309 312.559 418.604 281.158 451.956 265.356C482.774 250.765 527.423 261.277 540.355 297.094C540.594 297.796 540.579 298.483 540.31 299.156C538.966 302.473 536.53 304.513 533.004 305.275C532.227 305.439 531.494 305.327 530.807 304.939C526.033 302.227 521.326 299.649 515.924 298.977C497.769 296.735 478.247 307.875 476.768 327.935Z" fill="#010808"/>
<path d="M623.891 366.016C616.607 365.881 605.534 367.137 599.684 363.64C592.624 359.404 591.033 347.569 597.914 342.437C603.584 338.2 617.234 339.613 624.429 339.792C624.595 339.795 624.759 339.765 624.913 339.704C625.067 339.643 625.206 339.552 625.323 339.437C625.441 339.322 625.533 339.185 625.595 339.034C625.657 338.883 625.687 338.722 625.684 338.559C625.639 330.513 624.026 318.947 628.934 312.895C634.269 306.306 645.924 308.032 649.958 316.056C652.872 321.883 652.2 332.238 651.863 338.694C651.851 338.861 651.873 339.029 651.928 339.188C651.983 339.346 652.07 339.492 652.184 339.616C652.297 339.739 652.434 339.839 652.587 339.908C652.74 339.976 652.906 340.013 653.074 340.016C660.044 340.106 672.574 338.245 678.289 342.84C685.887 348.981 684.699 359.83 676.227 364.223C670.758 367.047 659.372 366.106 653.163 366.083C652.933 366.08 652.704 366.124 652.491 366.212C652.277 366.3 652.084 366.43 651.921 366.595C651.758 366.76 651.629 366.956 651.542 367.173C651.455 367.389 651.412 367.62 651.415 367.854C651.527 375.407 653.275 388.811 649.644 394.974C645.296 402.393 633.26 403.021 628.082 396.14C623.286 389.774 624.945 375.452 625.146 367.316C625.149 367.148 625.119 366.981 625.058 366.825C624.996 366.669 624.905 366.527 624.788 366.406C624.671 366.285 624.532 366.189 624.378 366.122C624.224 366.055 624.059 366.019 623.891 366.016Z" fill="#010808"/>
<path d="M324.681 372.05C325.956 381.734 334.63 388.578 344.056 387.337C353.482 386.096 360.089 377.24 358.814 367.557C357.539 357.874 348.865 351.03 339.439 352.271C330.014 353.511 323.406 362.367 324.681 372.05Z" fill="#010808"/>
<path d="M437.633 557.339C437.633 544.743 442.945 540.506 449.737 531.25C450.2 530.637 450.379 529.95 450.274 529.188C447.794 510.883 449.012 492.847 453.928 475.081C456.931 464.277 463.655 462.238 470.312 471.629C477.888 482.343 485.008 493.258 491.673 504.376C491.908 504.758 492.264 505.05 492.683 505.204C493.102 505.359 493.56 505.367 493.981 505.227C506.652 501.058 519.376 500.954 532.152 504.914C532.552 505.038 532.984 505.016 533.37 504.852C533.755 504.687 534.071 504.392 534.259 504.017C539.653 493.184 546.198 482.941 553.893 473.288C559.407 466.384 565.862 461.565 569.784 473.333C575.731 491.249 577.383 509.635 574.738 528.493C574.618 529.3 574.827 530.009 575.365 530.622C582.358 538.482 586.505 547.619 587.805 558.034C587.819 558.158 587.87 558.276 587.951 558.371C588.031 558.466 588.139 558.535 588.26 558.569C588.38 558.603 588.508 558.6 588.626 558.56C588.745 558.521 588.849 558.447 588.926 558.348C603.719 539.677 608.403 518.519 607.507 495.164C607.283 489.411 606.072 483.867 603.876 478.533C601.739 473.303 600.738 469.717 600.872 467.774C601.612 457.24 616.495 451.928 625.034 449.686C672.82 437.09 719.777 439.428 765.904 456.702C790.739 465.996 811.255 477.868 827.452 492.317C837.516 501.26 855.492 518.788 840.385 527.439C838.024 528.784 834.49 529.262 829.783 528.874C784.911 525.086 739.725 561.732 734.368 606.156C733.539 612.836 736.273 630.004 732.172 637.468C723.789 652.732 707.27 641.054 696.444 638.387C672.081 632.403 643.167 637.311 626.962 657.282C620.97 664.678 616.592 673.696 613.827 684.335C612.991 687.563 610.405 688.975 606.072 688.571C583.33 686.42 564.39 693.607 549.253 710.133C540.258 719.936 534.416 728.625 531.726 736.201C528.035 746.556 525.42 753.295 523.881 756.418C516.619 771.256 500.795 765.137 496.559 751.106C485.576 714.773 458.456 684.089 417.237 688.594C413.74 688.975 410.916 686.106 409.997 682.632C398.364 638.858 355.061 627.248 316.218 642.489C311.631 644.282 307.88 645.022 304.966 644.708C295.06 643.617 290.375 637.506 290.913 626.373C291.287 618.304 290.995 610.998 290.039 604.453C284.144 563.794 239.698 527.91 199.801 528.896C192.793 529.061 188.348 528.821 186.465 528.179C175.662 524.526 176.222 515 182.991 507.491C216.858 470.038 270.203 446.033 320.522 442.334C351.303 440.063 381.472 444.225 411.028 454.819C412.507 455.342 414.816 456.769 417.954 459.1C429.945 467.976 417.752 479.81 417.394 491.286C416.654 514.574 420.688 539.453 435.997 557.944C437.088 559.259 437.633 559.058 437.633 557.339Z" fill="#010808"/>
<path d="M648.056 710.238C648.235 718.74 654.92 725.496 662.989 725.327C671.059 725.158 677.456 718.128 677.278 709.626C677.099 701.123 670.414 694.368 662.345 694.537C654.275 694.706 647.878 701.735 648.056 710.238Z" fill="#010808"/>
<path d="M358.065 726.608C366.346 726.608 373.059 719.894 373.059 711.613C373.059 703.331 366.346 696.618 358.065 696.618C349.783 696.618 343.07 703.331 343.07 711.613C343.07 719.894 349.783 726.608 358.065 726.608Z" fill="#010808"/>
<path d="M364.48 476.026L320.685 476.332C319.422 476.341 318.406 477.372 318.415 478.634L318.416 478.724C318.424 479.987 319.455 481.003 320.718 480.994L364.513 480.688C365.776 480.68 366.792 479.649 366.783 478.386L366.782 478.297C366.774 477.034 365.743 476.018 364.48 476.026Z" fill="#284253"/>
<path d="M706.015 477.143C707.046 477.203 707.479 477.741 707.315 478.757L707.203 479.564C707.171 479.759 707.074 479.936 706.93 480.063C706.787 480.19 706.605 480.26 706.418 480.259L660.918 481.447C659.095 481.491 658.826 480.864 660.111 479.564C661.247 478.413 663.227 477.726 666.051 477.502C678.244 476.486 691.565 476.366 706.015 477.143Z" fill="#284253"/>
<path d="M322.472 514.843C322.905 514.186 323.488 513.887 324.22 513.946C324.788 513.991 325.094 514.298 325.139 514.865C325.229 515.926 325.864 516.36 327.044 516.165C336.308 514.686 345.64 513.879 355.039 513.745C355.876 513.745 356.511 513.932 356.944 514.305C357.087 514.434 357.202 514.591 357.283 514.766C357.364 514.94 357.409 515.129 357.415 515.322C357.421 515.514 357.389 515.706 357.319 515.886C357.25 516.065 357.145 516.229 357.011 516.367C344.818 528.829 334.284 542.599 325.408 557.676C323.884 560.253 321.306 562.226 319.647 564.758C319.443 565.074 319.162 565.331 318.83 565.507C318.498 565.682 318.126 565.77 317.751 565.761C317.375 565.752 317.008 565.647 316.685 565.455C316.362 565.264 316.093 564.993 315.904 564.669C307.283 549.681 297.181 535.755 285.601 522.89C285.362 522.628 285.2 522.304 285.135 521.955C285.069 521.607 285.103 521.247 285.231 520.916C285.359 520.585 285.577 520.297 285.86 520.083C286.143 519.869 286.481 519.739 286.834 519.707L295.485 518.833C296.173 518.773 296.83 518.594 297.458 518.295C300.148 517.062 302.927 519.034 306.491 517.129C307.148 516.786 307.85 516.636 308.598 516.681C312.781 517.01 316.958 516.711 321.127 515.784C321.687 515.656 322.17 515.317 322.472 514.843Z" fill="#284253"/>
<path d="M728.653 519.416L741.003 520.738C742.093 520.858 742.243 521.298 741.451 522.06C729.885 533.312 715.496 548.195 710.184 563.279C709.392 565.55 708.219 565.767 706.665 563.929C694.322 549.315 682.794 535.232 672.08 521.679C670.317 519.453 668.831 517.241 667.62 515.045C667.502 514.837 667.443 514.6 667.451 514.361C667.458 514.122 667.531 513.889 667.662 513.686C667.794 513.484 667.978 513.32 668.195 513.212C668.413 513.104 668.656 513.056 668.898 513.072L725.492 517.667C725.881 517.697 726.217 517.854 726.501 518.138L727.017 518.631C727.465 519.094 728.01 519.356 728.653 519.416Z" fill="#284253"/>
<path d="M650.676 602.794C635.367 607.3 619.812 611.782 604.997 615.682C602.352 616.385 601.784 615.6 603.293 613.329C611.228 601.382 619.745 588.696 625.348 576.212C630.324 565.124 634.254 553.641 637.138 541.762C637.362 540.836 637.638 540.133 637.967 539.655C638.07 539.503 638.207 539.377 638.368 539.288C638.528 539.199 638.708 539.149 638.891 539.143C639.075 539.136 639.257 539.173 639.424 539.25C639.591 539.328 639.737 539.443 639.85 539.588C644.915 545.983 649.697 552.535 654.195 559.245C662.518 571.692 671.834 584.154 682.145 596.631C682.351 596.876 682.485 597.174 682.53 597.492C682.575 597.81 682.529 598.133 682.398 598.426C682.266 598.719 682.055 598.969 681.788 599.147C681.522 599.325 681.21 599.424 680.889 599.432C670.893 599.791 660.493 599.903 650.676 602.794Z" fill="#284253"/>
<path d="M414.48 610.729C415.137 610.998 415.855 611.065 416.632 610.931C416.921 610.874 417.223 610.926 417.479 611.079C417.735 611.232 417.928 611.474 418.021 611.76L419.142 615.436C419.188 615.591 419.196 615.755 419.167 615.914C419.138 616.074 419.071 616.224 418.973 616.353C418.875 616.481 418.747 616.585 418.602 616.656C418.456 616.726 418.295 616.761 418.133 616.758C414.532 616.683 409.653 615.092 403.497 611.984C398.79 609.623 387.314 606.395 369.07 602.301C366.963 601.831 364.363 602.548 361.628 601.741C359.103 601.024 356.533 600.747 353.918 600.912C350.444 601.136 348.091 600.329 344.975 599.925C344.6 599.875 344.246 599.725 343.949 599.492C343.651 599.259 343.421 598.951 343.281 598.6C343.142 598.248 343.099 597.866 343.156 597.492C343.214 597.119 343.37 596.767 343.608 596.474C358.072 578.946 371.274 560.507 383.213 541.157C383.43 540.803 383.771 540.542 384.172 540.422C384.572 540.303 385.004 540.333 385.387 540.507C386.418 540.985 387.143 541.949 387.561 543.398C389.758 551.064 391.349 559.065 394.487 566.193C397.326 572.648 400.329 579.021 403.497 585.312C407.083 592.439 412.754 599.006 417.035 606.291C417.782 607.561 417.461 607.964 416.071 607.501L414.39 606.963C414.295 606.928 414.192 606.917 414.091 606.93C413.99 606.944 413.893 606.981 413.808 607.04C413.723 607.099 413.652 607.178 413.602 607.269C413.551 607.361 413.522 607.464 413.516 607.568L413.426 609.07C413.397 609.862 413.748 610.415 414.48 610.729Z" fill="#284253"/>
<path d="M496.559 567.224C497.364 567.619 497.979 568.318 498.269 569.167C498.559 570.016 498.5 570.946 498.105 571.751L497.971 572.043C496.579 574.882 493.998 576.994 490.795 577.915C487.592 578.835 484.03 578.489 480.891 576.951L479.435 576.257C477.879 575.495 476.474 574.464 475.3 573.221C474.127 571.978 473.208 570.549 472.596 569.015C471.984 567.481 471.691 565.872 471.734 564.28C471.776 562.688 472.154 561.144 472.845 559.738L473.002 559.446C473.196 559.046 473.467 558.687 473.799 558.391C474.132 558.096 474.52 557.868 474.94 557.723C475.361 557.577 475.806 557.515 476.25 557.542C476.695 557.569 477.129 557.683 477.529 557.877L496.559 567.224Z" fill="#FF9442"/>
<path d="M547.147 557.317C547.497 557.134 547.879 557.022 548.273 556.987C548.667 556.952 549.063 556.995 549.44 557.114C549.817 557.232 550.167 557.424 550.469 557.678C550.772 557.932 551.021 558.244 551.203 558.594L551.338 558.886C552.924 561.933 553.206 565.5 552.122 568.804C551.038 572.108 548.675 574.877 545.555 576.503L544.905 576.817C541.785 578.442 538.161 578.791 534.832 577.786C531.503 576.782 528.741 574.506 527.153 571.46L527.019 571.191C526.836 570.841 526.724 570.458 526.689 570.064C526.654 569.671 526.697 569.274 526.816 568.897C526.935 568.521 527.126 568.171 527.38 567.868C527.635 567.566 527.946 567.316 528.297 567.134L547.147 557.317Z" fill="#FF9442"/>
</svg>
