<svg width="1024" height="1024" viewBox="0 0 1024 1024" fill="none" xmlns="http://www.w3.org/2000/svg">
<rect width="1024" height="1024" fill="white"/>
<path d="M522.797 393.291C524.301 371.965 502.429 369.207 500.777 391.684C500.758 391.998 500.595 392.19 500.29 392.259C500.143 392.288 500 392.273 499.863 392.214" stroke="#026B6A" stroke-width="2"/>
<path d="M522.383 420.783C520.013 423.968 516.793 426.721 512.722 429.042C512.27 429.298 511.788 429.357 511.277 429.219C506.676 427.931 503.475 425.02 501.676 420.488" stroke="#026B6A" stroke-width="2"/>
<path d="M620.653 444.852C609.916 450.535 599.209 457.373 588.531 465.367C588.336 465.514 588.187 465.715 588.103 465.945C588.019 466.174 588.004 466.424 588.058 466.662C588.113 466.901 588.235 467.118 588.411 467.289C588.586 467.459 588.807 467.575 589.047 467.623C594.327 468.675 598.997 471.173 603.058 475.115C605.079 477.062 608.441 478.611 610.698 477.225C616.037 473.931 621.4 471.571 626.789 470.145" stroke="#026B6A" stroke-width="2"/>
<path d="M637.819 573.519C635.872 573.892 633.837 573.681 631.713 572.885C629.845 572.177 627.967 571.538 626.079 570.967C621.153 569.463 609.133 558.667 605.033 563.033C600.432 567.919 595.058 571.444 588.913 573.607C588.769 573.655 588.641 573.742 588.542 573.857C588.443 573.972 588.377 574.112 588.351 574.262C588.325 574.412 588.341 574.566 588.395 574.708C588.45 574.85 588.543 574.974 588.662 575.067C598.652 583.11 609.138 589.958 620.121 595.612C620.829 595.981 621.006 596.467 621.434 597.102" stroke="#026B6A" stroke-width="2"/>
<path d="M522.369 617.852L515.157 609.047C514.84 608.657 514.441 608.34 513.989 608.12C513.537 607.899 513.042 607.78 512.538 607.77C512.035 607.76 511.534 607.86 511.072 608.063C510.61 608.266 510.197 608.566 509.862 608.944L501.426 618.516" stroke="#026B6A" stroke-width="2"/>
<path d="M402.936 598.547C403.103 596.767 404.037 595.386 405.738 594.403C418.451 587.043 428.392 581.262 437.934 574.256C438.367 573.942 438.377 573.612 437.964 573.268C436.862 572.354 435.717 571.739 434.527 571.425C428.018 569.704 422.733 566.464 418.673 561.705C418.256 561.213 417.669 560.897 417.028 560.82C416.388 560.744 415.742 560.912 415.222 561.292C406.52 567.575 397.627 571.1 387.981 575.259C384.894 576.596 381.723 577.668 378.468 578.474" stroke="#026B6A" stroke-width="2"/>
<path d="M396.786 470.81C398.163 469.817 400.277 470.072 403.128 471.577C407.479 473.863 413.467 477.933 418.525 476.916C419.007 476.827 419.42 476.611 419.764 476.267C424.376 471.685 429.857 468.647 436.209 467.152C437.202 466.916 437.561 466.376 437.286 465.53C437.19 465.244 437.003 465 436.755 464.837C425.733 457.925 414.843 450.855 404.087 443.628C403.31 443.097 402.99 442.331 403.128 441.328" stroke="#026B6A" stroke-width="2"/>
<path d="M523.902 636.951C523.263 639.98 522.83 642.846 522.604 645.55C522.014 653.027 515.318 657.319 508.372 655.048C499.95 652.304 500.452 644.134 500.88 637.172" stroke="#026B6A" stroke-width="2"/>
<path d="M374.678 581.261C383.379 586.098 389.077 589.186 391.771 590.523C395.665 592.45 397.685 595.395 397.833 599.357" stroke="#026B6A" stroke-width="2"/>
<path d="M398.85 440.486C396.417 443.303 394.544 445.648 391.225 447.507C385.739 450.584 380.144 453.396 374.441 455.943" stroke="#026B6A" stroke-width="2"/>
<path d="M627.526 601.599C625.786 590.316 632.511 589.284 639.812 585.228C642.82 583.562 646.419 583.208 649.413 580.966" stroke="#026B6A" stroke-width="2"/>
<path d="M650.017 456.12C640.991 452.227 632.977 447.271 625.977 441.254" stroke="#026B6A" stroke-width="2"/>
<path d="M522.796 393.292C524.3 371.965 502.428 369.207 500.777 391.684C500.757 391.999 500.595 392.19 500.29 392.259C500.142 392.289 500 392.274 499.862 392.215C498.574 391.261 497.266 390.337 495.939 389.442C478.025 377.565 459.894 366.036 441.547 354.857C434.467 350.536 429.261 346.303 431.798 336.879C433.804 329.357 440.735 324.416 448.582 326.171C450.991 326.712 455.248 329.037 461.354 333.147C473.92 341.613 486.495 350.054 499.081 358.47C499.385 358.677 499.523 358.598 499.493 358.234C498.658 347.498 498.5 336.682 499.022 325.788C499.149 323.143 498.24 321.147 496.293 319.8C482.557 310.263 468.787 300.774 454.982 291.335C451.925 289.251 448.96 287.043 446.089 284.713C435.352 276.012 443.715 258.24 457.401 260.599C459.25 260.924 462.121 262.472 466.014 265.245C476.692 272.875 487.557 280.225 498.609 287.294C499.002 287.55 499.194 287.442 499.184 286.97C498.623 267.138 498.363 247.341 498.402 227.578C498.446 204.703 526.232 209.319 526.011 226.604C525.756 246.259 525.628 266.587 525.628 287.589C525.628 288.179 525.864 288.302 526.336 287.958C536.876 280.505 547.583 273.042 558.458 265.57C565.965 260.422 571.097 258.269 578.309 264.655C584.843 270.422 583.398 279.743 577.616 285.244C574.667 288.046 569.765 291.778 562.912 296.438C551.88 303.921 540.878 311.442 529.905 319.003C526.945 321.039 525.475 323.664 525.495 326.879C525.574 336.977 525.657 347.109 525.746 357.276C525.746 357.6 525.883 357.674 526.159 357.497C538.98 349.12 551.797 340.615 564.608 331.982C569.785 328.502 575.124 324.859 581.407 326.068C591.082 327.941 595.359 340.477 589.548 348.147C588.26 349.838 585.305 352.197 580.684 355.226C563.762 366.336 546.738 377.29 529.61 388.085C527.496 389.413 525.225 391.148 522.796 393.292Z" fill="#01020B"/>
<path d="M398.85 440.487C396.416 443.304 394.543 445.649 391.225 447.507C385.738 450.585 380.144 453.397 374.441 455.943C371.157 457.153 367.927 458.637 364.751 460.397C345.49 471.105 327.157 480.146 314.105 487.431C300.359 495.086 287.558 480.426 295.522 467.344C299.696 460.486 315.196 454.793 322.6 451.135C330.014 447.478 337.353 443.668 344.62 439.705C344.685 439.672 344.739 439.621 344.777 439.559C344.815 439.496 344.835 439.424 344.835 439.351C344.835 439.278 344.815 439.206 344.777 439.144C344.739 439.082 344.685 439.031 344.62 438.997L316.125 423.231C315.409 422.836 314.606 422.626 313.788 422.618C312.969 422.61 312.161 422.806 311.435 423.187C296.559 431.023 281.668 439.253 266.762 447.876C262.937 450.088 259.236 451.155 255.657 451.076C247.515 450.899 241.026 443.422 242.353 435.281C243.16 430.325 246.286 426.304 251.733 423.216C262.834 416.924 274.141 410.97 285.655 405.356C285.729 405.319 285.792 405.263 285.836 405.193C285.881 405.123 285.905 405.043 285.907 404.962C285.908 404.88 285.887 404.801 285.845 404.732C285.803 404.664 285.742 404.609 285.67 404.574C271.413 397.338 257.402 389.482 243.637 381.006C240.259 378.927 236.321 375.638 234.817 371.833C230.643 361.229 239.492 348.56 251.63 352.424C253.203 352.915 255.681 354.238 259.063 356.391C272.337 364.798 285.66 373.032 299.032 381.095C299.094 381.131 299.165 381.15 299.237 381.15C299.31 381.15 299.381 381.131 299.443 381.096C299.506 381.06 299.558 381.008 299.595 380.946C299.631 380.884 299.651 380.813 299.651 380.741C299.602 366.238 299.612 351.735 299.681 337.233C299.769 316.437 326.612 316.629 326.7 335.95C326.798 356.214 326.838 376.469 326.818 396.713C326.818 396.969 326.885 397.221 327.011 397.443C327.138 397.666 327.321 397.851 327.541 397.982L357.185 415.223C357.267 415.272 357.361 415.299 357.456 415.3C357.552 415.302 357.646 415.278 357.73 415.232C357.813 415.186 357.883 415.118 357.933 415.036C357.982 414.955 358.009 414.861 358.011 414.766C358.159 397.824 358.134 380.824 357.937 363.765C357.878 358.593 359.501 354.351 362.804 351.037C368.733 345.079 380.34 346.111 384.057 354.135C385.011 356.199 385.493 359.493 385.502 364.016C385.522 385.45 385.512 406.89 385.473 428.334C385.472 428.818 385.651 429.282 385.974 429.632C386.781 430.517 387.518 431.141 388.187 431.505C392.326 433.757 395.88 436.751 398.85 440.487Z" fill="#01020B"/>
<path d="M650.017 456.12C640.991 452.227 632.977 447.271 625.977 441.254C628.828 436.731 632.633 433.481 637.392 431.505C637.864 431.308 638.1 430.954 638.1 430.443C638.06 406.344 638.08 382.28 638.159 358.249C638.188 349.4 649.25 345.315 656.167 347.498C665.149 350.344 664.972 357.556 664.986 366.626C665.045 383.302 665.04 399.919 664.972 416.476C664.97 416.543 664.986 416.608 665.018 416.666C665.051 416.724 665.098 416.772 665.155 416.805C665.213 416.838 665.278 416.855 665.344 416.855C665.411 416.854 665.475 416.835 665.532 416.801L696.873 398.749C697.305 398.503 697.517 398.129 697.507 397.628C697.271 377.54 697.153 357.404 697.153 337.218C697.153 316.954 724.364 317.293 724.511 336.495C724.639 351.342 724.6 366.11 724.393 380.8C724.393 380.885 724.415 380.968 724.457 381.042C724.499 381.116 724.559 381.177 724.632 381.221C724.705 381.264 724.788 381.287 724.873 381.288C724.958 381.29 725.042 381.269 725.116 381.227C739.54 372.801 753.935 364.193 768.3 355.403C775.831 350.791 782.075 350.929 787.03 355.816C794.537 363.205 792.148 374.502 783.255 379.502C768.575 387.761 753.856 395.961 739.098 404.102C738.596 404.378 738.596 404.653 739.098 404.928C748.458 410.1 757.794 415.242 767.105 420.355C776.632 425.591 783.712 431.004 779.302 442.33C776.898 448.51 768.639 453.377 762.253 450.073C745.366 441.328 729.142 431.313 712.093 422.951C711.7 422.764 711.311 422.764 710.928 422.951L679.13 438.437C679.069 438.468 679.016 438.515 678.979 438.573C678.942 438.631 678.922 438.697 678.92 438.765C678.919 438.833 678.936 438.899 678.971 438.955C679.005 439.012 679.055 439.057 679.115 439.086C690.078 444.956 701.214 450.599 712.521 456.017C722.152 460.633 736.354 468.022 729.762 481.827C728.051 485.396 725.509 487.864 722.137 489.231C716.695 491.428 711.828 488.567 706.739 485.971C687.625 476.208 668.718 466.257 650.017 456.12Z" fill="#01020B"/>
<path d="M522.796 393.291L522.383 420.782C520.013 423.968 516.793 426.721 512.723 429.041C512.27 429.297 511.788 429.356 511.277 429.218C506.676 427.93 503.475 425.02 501.676 420.487C500.879 411.304 500.535 402.352 500.643 393.63C500.653 393.198 500.393 392.726 499.862 392.214C499.999 392.273 500.142 392.288 500.289 392.259C500.594 392.19 500.757 391.998 500.776 391.684C502.428 369.207 524.3 371.965 522.796 393.291Z" fill="#02D4C9"/>
<path d="M501.676 420.488C503.475 425.021 506.675 427.931 511.277 429.219C511.788 429.357 512.27 429.298 512.722 429.042C516.793 426.722 520.013 423.969 522.383 420.783C525.273 415.779 528.4 411.226 531.763 407.126C536.438 401.419 542.47 399.531 548.856 403.292C563.398 411.846 549.8 426.786 543.974 435.148C543.895 435.262 543.844 435.393 543.825 435.53C543.806 435.667 543.819 435.806 543.864 435.935C543.908 436.065 543.983 436.182 544.082 436.276C544.181 436.37 544.301 436.438 544.432 436.476C550.125 438.147 554.726 441.362 558.236 446.121C558.31 446.219 558.407 446.298 558.518 446.351C558.629 446.404 558.752 446.429 558.875 446.424C558.997 446.42 559.118 446.386 559.225 446.326C559.332 446.265 559.423 446.18 559.49 446.077C563.634 439.366 572.321 436.667 578.943 441.269C584.164 444.897 584.046 452.375 583.191 458.466C583.063 459.37 583.382 459.577 584.149 459.085L592.364 453.82C593.161 453.318 593.554 452.596 593.544 451.652C593.436 438.958 593.411 426.206 593.47 413.394C593.48 410.445 593.864 408.149 594.621 406.507C599.399 396.124 614.516 395.504 619.752 405.681C620.647 407.411 621.099 410.022 621.109 413.512C621.139 423.364 621.129 433.206 621.08 443.039C621.08 443.648 620.937 444.253 620.652 444.853C609.915 450.536 599.208 457.374 588.53 465.368C588.334 465.515 588.186 465.716 588.102 465.946C588.018 466.176 588.002 466.425 588.057 466.663C588.112 466.902 588.234 467.12 588.409 467.29C588.585 467.461 588.806 467.577 589.046 467.625C594.326 468.677 598.996 471.174 603.057 475.117C605.077 477.064 608.44 478.612 610.697 477.226C616.036 473.932 621.399 471.572 626.787 470.147C630.543 471.022 633.793 472.398 636.536 474.276C644.618 479.807 645.99 493.346 636.86 498.626C635.012 499.688 632.274 500.209 628.646 500.189C621.596 500.16 614.546 500.145 607.496 500.145C606.995 500.145 606.651 500.381 606.464 500.853C602.349 511.088 603.145 528.02 604.694 537.444C605.136 540.099 607.688 541.338 610.372 541.308C621.207 541.2 628.473 541.234 632.17 541.411C640.592 541.824 645.916 551.248 642.966 558.726C640.813 564.193 637.141 567.595 631.949 568.932C630.258 569.365 630.204 569.955 631.787 570.702L637.819 573.519C635.872 573.892 633.837 573.681 631.713 572.885C629.845 572.177 627.967 571.537 626.079 570.967C621.153 569.463 609.133 558.667 605.033 563.033C600.432 567.919 595.058 571.444 588.913 573.607C588.769 573.655 588.641 573.742 588.542 573.857C588.443 573.972 588.377 574.112 588.351 574.262C588.325 574.412 588.341 574.566 588.395 574.708C588.45 574.85 588.543 574.974 588.662 575.067C598.652 583.11 609.138 589.958 620.121 595.612C620.829 595.981 621.006 596.467 621.434 597.102C621.237 605.577 621.065 614.038 620.917 622.484C620.829 627.4 620.401 630.866 619.634 632.881C615.696 643.25 604.281 645.624 596.715 637.055C594.503 634.548 593.397 631.82 593.397 628.87C593.387 615.242 593.347 601.688 593.279 588.208C593.274 587.88 593.184 587.558 593.019 587.274C592.853 586.99 592.618 586.753 592.335 586.586L584.562 582.102C584.463 582.045 584.35 582.017 584.236 582.022C584.122 582.026 584.011 582.063 583.917 582.128C583.823 582.193 583.749 582.283 583.704 582.388C583.659 582.493 583.644 582.609 583.663 582.722C584.739 589.447 582.881 597.677 576.097 600.022C570.61 601.924 562.027 599.801 560.242 593.591C560.208 593.474 560.142 593.369 560.053 593.286C559.963 593.203 559.853 593.145 559.734 593.12C559.615 593.094 559.491 593.101 559.375 593.14C559.259 593.179 559.156 593.248 559.077 593.341C555.626 597.441 551.452 600.572 546.555 602.735C546.024 602.971 545.916 603.34 546.231 603.842C551.201 611.658 561.525 624.298 549.712 631.923C537.81 639.607 528.769 625.286 522.368 617.853L515.156 609.048C514.839 608.657 514.441 608.341 513.989 608.121C513.536 607.9 513.041 607.781 512.538 607.771C512.034 607.761 511.534 607.861 511.071 608.064C510.609 608.266 510.196 608.567 509.861 608.945L501.425 618.516C494.773 626.304 481.692 642.512 471.087 630.359C465.011 623.398 468.905 614.357 474.258 608.015C475.777 606.216 476.618 604.609 477.503 602.499C477.67 602.096 477.552 601.801 477.149 601.615C472.769 599.55 468.801 599.078 466.604 593.99C466.554 593.876 466.475 593.777 466.376 593.703C466.277 593.628 466.16 593.581 466.037 593.564C465.914 593.548 465.789 593.564 465.674 593.61C465.559 593.656 465.458 593.731 465.38 593.827C461.766 598.355 458.374 602.087 451.531 600.656C442.357 598.753 440.086 591.114 442.121 582.707C442.367 581.704 442.028 581.439 441.104 581.911L431.93 586.615C431.515 586.83 431.165 587.152 430.919 587.547C430.672 587.941 430.537 588.394 430.529 588.857C430.303 600.361 430.175 611.978 430.146 623.708C430.136 628.634 429.561 632.232 428.42 634.504C422.093 647.246 402.964 642.512 402.846 628.693C402.767 618.654 402.797 608.605 402.935 598.547C403.102 596.767 404.036 595.386 405.737 594.403C418.45 587.043 428.39 581.262 437.933 574.256C438.365 573.942 438.375 573.612 437.962 573.268C436.861 572.354 435.716 571.739 434.526 571.424C428.017 569.704 422.732 566.464 418.671 561.705C418.255 561.213 417.667 560.897 417.027 560.82C416.387 560.744 415.741 560.912 415.22 561.292C406.518 567.575 397.625 571.1 387.98 575.259C384.892 576.596 381.721 577.668 378.467 578.474L391.563 569.728C391.627 569.683 391.677 569.621 391.707 569.548C391.736 569.476 391.745 569.397 391.73 569.321C391.716 569.246 391.68 569.177 391.627 569.123C391.574 569.07 391.505 569.034 391.431 569.02C373.644 565.496 376.948 541.102 394.705 541.352C401.617 541.451 408.514 541.5 415.397 541.5C415.889 541.5 416.331 541.357 416.724 541.072C422.786 536.869 422.27 506.118 418.008 500.425C417.703 500.012 417.3 499.816 416.798 499.835C408.908 500.13 396.784 501.428 390.295 499.216C376.83 494.659 377.139 475.854 391.578 472.388C394.095 471.789 395.831 471.262 396.784 470.81C398.161 469.817 400.275 470.073 403.126 471.577C407.477 473.863 413.465 477.934 418.524 476.916C419.006 476.828 419.418 476.611 419.763 476.267C424.374 471.685 429.855 468.647 436.207 467.153C437.2 466.917 437.559 466.376 437.284 465.53C437.189 465.244 437.002 465 436.753 464.837C425.731 457.925 414.842 450.855 404.085 443.629C403.308 443.098 402.989 442.331 403.126 441.328C403.205 432.027 403.22 422.76 403.171 413.527C403.067 392.923 430.78 394.236 430.514 412.067C430.337 423.895 430.259 437.361 430.278 452.463C430.278 452.778 430.421 453.014 430.706 453.171L441.93 459.292C441.971 459.311 442.016 459.319 442.062 459.314C442.107 459.309 442.15 459.292 442.186 459.265C442.223 459.238 442.251 459.201 442.268 459.159C442.285 459.117 442.29 459.071 442.284 459.026C441.055 452.851 441.379 447.999 443.257 444.469C446.944 437.538 457.356 436.756 462.504 442.714C463.605 443.993 464.5 445.005 465.188 445.753C465.268 445.837 465.365 445.903 465.473 445.945C465.582 445.987 465.698 446.004 465.814 445.996C465.929 445.987 466.042 445.953 466.143 445.896C466.244 445.838 466.331 445.759 466.397 445.664C470.453 439.765 473.432 439.219 478.506 436.284C478.948 436.028 479.14 435.645 479.081 435.134C478.653 431.269 474.76 427.907 472.223 425.237C469.259 422.14 467.666 415.164 468.551 410.843C470.497 401.404 482.326 398.867 489.552 404.398C493.992 407.805 497.753 415.267 501.676 420.488Z" fill="#01020B"/>
<path d="M398.85 440.486C400.512 441.745 401.938 442.025 403.127 441.327C402.99 442.33 403.309 443.097 404.086 443.628C414.842 450.855 425.732 457.924 436.754 464.836C437.003 464.999 437.19 465.243 437.285 465.529C437.56 466.375 437.201 466.916 436.208 467.152C429.856 468.646 424.375 471.684 419.764 476.266C419.419 476.61 419.006 476.827 418.525 476.915C413.466 477.933 407.478 473.862 403.127 471.576C400.276 470.072 398.162 469.816 396.785 470.809C389.278 466.547 380.223 462.373 374.441 455.943C380.144 453.396 385.739 450.584 391.225 447.507C394.544 445.648 396.417 443.303 398.85 440.486Z" fill="#02D4C9"/>
<path d="M625.976 441.254C632.977 447.271 640.99 452.227 650.016 456.12C642.603 461.42 634.86 466.095 626.788 470.146C621.399 471.572 616.036 473.932 610.697 477.225C608.44 478.612 605.078 477.063 603.057 475.116C598.996 471.174 594.326 468.676 589.046 467.624C588.806 467.576 588.585 467.46 588.41 467.29C588.234 467.119 588.112 466.902 588.057 466.663C588.003 466.425 588.018 466.175 588.102 465.946C588.186 465.716 588.335 465.515 588.53 465.368C599.208 457.374 609.915 450.536 620.652 444.853C621.016 445.826 621.729 445.782 622.791 444.72C624.01 443.491 625.072 442.335 625.976 441.254Z" fill="#02D4C9"/>
<path d="M644.515 525.054C641.728 497.843 672.744 483.183 688.097 508.079C696.976 522.473 686.799 540.201 671.21 543.903C659.529 546.69 645.769 537.354 644.515 525.054Z" fill="#02D4C9"/>
<path d="M348.41 497.725C369.028 490.071 388.363 513.89 376.107 532.723C372.376 538.446 361.993 545.422 355.253 545.009C328.617 543.401 325.196 506.353 348.41 497.725Z" fill="#02D4C9"/>
<path d="M627.525 601.599C625.785 590.317 632.51 589.284 639.811 585.228C642.819 583.562 646.418 583.208 649.412 580.966C668.546 570.642 687.738 560.407 706.99 550.26C708.898 549.257 710.864 548.397 712.889 547.679C721.606 544.626 730.381 553.298 730.75 561.041C731.045 567.088 726.34 571.468 720.986 574.639C706.975 582.928 692.345 590.125 677.64 597.543C676.736 597.996 676.726 598.468 677.611 598.959L706.179 614.622C706.592 614.848 707.01 614.843 707.432 614.607C731.885 600.695 748.733 591.231 757.976 586.217C760.424 584.889 764.907 583.06 767.975 583.001C779.066 582.81 786.219 594.033 780.408 603.826C778.648 606.796 776.028 609.219 772.547 611.097C760.63 617.528 748.841 623.943 737.18 630.344C737.056 630.41 736.954 630.509 736.883 630.63C736.812 630.751 736.777 630.89 736.78 631.031C736.783 631.172 736.824 631.311 736.9 631.431C736.976 631.552 737.083 631.65 737.21 631.716C753.463 639.945 769.302 648.844 784.729 658.41C796.661 665.814 790.275 686.359 776.323 684.235C772.94 683.714 769.755 682.598 766.766 680.887C753.05 673.002 739.338 664.919 725.632 656.641C725.538 656.583 725.43 656.551 725.32 656.549C725.209 656.547 725.1 656.574 725.004 656.628C724.908 656.683 724.828 656.761 724.772 656.857C724.717 656.953 724.688 657.061 724.688 657.172C724.619 671.419 724.531 685.744 724.423 700.149C724.393 703.541 723.97 706.102 723.154 707.833C718.243 718.245 705.235 720.207 699.232 709.706C698.062 707.651 697.462 704.76 697.433 701.034C697.295 681.89 697.384 662.717 697.698 643.514C697.703 643.013 697.574 642.52 697.325 642.084C697.077 641.649 696.717 641.287 696.283 641.037L666.314 623.914C665.409 623.393 664.962 623.653 664.972 624.695C665.05 642.787 665.06 661.139 665.001 679.752C664.927 700.562 637.967 700.399 638.011 678.277C638.06 655.692 638.08 633.107 638.07 610.522C638.07 610.031 637.874 609.632 637.48 609.328L627.525 601.599Z" fill="#01020B"/>
<path d="M374.677 581.261C383.379 586.099 389.077 589.186 391.771 590.523C395.664 592.45 397.685 595.395 397.832 599.357C394.951 603.015 391.559 606.063 387.656 608.501C386.24 609.386 385.527 610.645 385.517 612.277C385.291 635.265 385.222 658.248 385.311 681.226C385.331 684.795 383.654 688.34 380.282 691.86C374.751 697.671 363.645 694.957 359.811 687.952C358.759 686.024 358.223 682.917 358.203 678.631C358.115 660.077 358.1 641.543 358.159 623.029C358.16 622.937 358.136 622.847 358.09 622.768C358.044 622.689 357.977 622.624 357.896 622.579C357.815 622.534 357.723 622.511 357.629 622.512C357.536 622.514 357.443 622.539 357.362 622.586L327.644 640.314C327.113 640.629 326.848 641.101 326.848 641.73C326.799 660.165 326.813 678.616 326.892 697.081C326.922 704.337 326.981 711.844 319.12 715.959C312.876 719.223 307.331 717.729 302.483 711.475C300.428 708.811 299.44 705.728 299.519 702.228C299.902 687.018 300.104 671.797 300.124 656.567C300.124 655.997 299.878 655.849 299.386 656.124C290.95 660.775 282.607 665.504 274.358 670.312C267.972 674.044 259.713 680.238 252.987 683.35C244.654 687.199 234.507 681.123 233.165 672.053C231.897 663.351 238.15 659.561 244.212 655.8C258.085 647.206 272.16 638.952 286.437 631.037C286.86 630.811 286.86 630.59 286.437 630.373C267.156 620.453 254.28 613.737 247.811 610.227C229.788 600.464 244.64 574.654 263.429 585.435C280.547 595.247 297.621 604.741 314.651 613.914C315.26 614.239 315.87 614.239 316.48 613.914L344.266 598.915C344.324 598.882 344.371 598.834 344.404 598.776C344.437 598.718 344.454 598.653 344.452 598.586C344.451 598.52 344.431 598.455 344.396 598.398C344.36 598.342 344.31 598.296 344.251 598.266C332.59 592.357 321.091 586.172 309.754 579.712C305.448 577.249 297.941 574.388 294.593 569.359C292.056 565.554 291.506 561.685 292.941 557.752C296.377 548.372 305.993 544.744 315.182 549.817C334.827 560.682 354.659 571.163 374.677 581.261Z" fill="#01020B"/>
<path d="M402.934 598.547C403.013 598.223 403.052 597.942 403.052 597.706C403.055 597.447 402.983 597.191 402.845 596.971C402.707 596.751 402.509 596.576 402.274 596.466C402.04 596.357 401.78 596.318 401.525 596.355C401.271 596.392 401.033 596.503 400.84 596.674L397.831 599.358C397.684 595.396 395.663 592.451 391.77 590.524C389.076 589.187 383.378 586.099 374.676 581.262C375.777 579.482 377.041 578.553 378.467 578.474C381.721 577.668 384.892 576.596 387.979 575.259C397.625 571.1 406.518 567.575 415.22 561.292C415.741 560.912 416.386 560.744 417.027 560.82C417.667 560.897 418.254 561.213 418.671 561.705C422.732 566.464 428.017 569.704 434.526 571.425C435.715 571.739 436.861 572.354 437.962 573.268C438.375 573.612 438.365 573.942 437.933 574.256C428.39 581.262 418.45 587.043 405.737 594.403C404.036 595.386 403.102 596.767 402.934 598.547Z" fill="#02D4C9"/>
<path d="M637.819 573.519C640.503 574.276 643.325 575.515 646.285 577.235C647.774 578.106 647.848 579.005 648.187 580.569C648.335 581.227 648.743 581.36 649.411 580.967C646.417 583.208 642.819 583.562 639.81 585.229C632.51 589.285 625.784 590.317 627.525 601.6C626.109 600.066 624.934 598.812 624 597.839C623.193 596.993 622.338 596.748 621.434 597.102C621.006 596.467 620.829 595.981 620.121 595.612C609.138 589.958 598.652 583.11 588.662 575.067C588.543 574.974 588.45 574.85 588.395 574.708C588.341 574.566 588.325 574.412 588.351 574.262C588.377 574.112 588.443 573.972 588.542 573.857C588.641 573.742 588.769 573.655 588.913 573.607C595.058 571.444 600.432 567.919 605.033 563.033C609.133 558.667 621.153 569.463 626.079 570.967C627.967 571.538 629.845 572.177 631.713 572.885C633.837 573.681 635.872 573.892 637.819 573.519Z" fill="#02D4C9"/>
<path d="M522.368 617.852C522.142 624.557 522.653 630.924 523.902 636.951C523.263 639.979 522.83 642.846 522.604 645.549C522.014 653.027 515.318 657.319 508.372 655.048C499.95 652.304 500.452 644.134 500.88 637.172C502.109 631.283 502.29 625.064 501.425 618.516L509.861 608.944C510.197 608.566 510.609 608.266 511.072 608.063C511.534 607.86 512.034 607.76 512.538 607.77C513.042 607.78 513.537 607.899 513.989 608.12C514.441 608.34 514.839 608.657 515.156 609.047L522.368 617.852Z" fill="#02D4C9"/>
<path d="M500.88 637.172C500.452 644.134 499.951 652.304 508.372 655.048C515.319 657.319 522.015 653.027 522.604 645.55C522.831 642.846 523.263 639.98 523.902 636.951C547.716 651.474 564.136 661.212 573.162 666.168C583.634 671.92 598.073 678.483 590.551 692.656C585.241 702.685 576.259 701.859 567.72 696.653C553.935 688.237 540.244 679.663 526.646 670.932C526.124 670.597 525.859 670.74 525.849 671.359L525.525 701.741C525.521 702.205 525.629 702.662 525.839 703.074C526.05 703.485 526.357 703.837 526.734 704.101C541.591 714.543 556.374 724.921 571.083 735.235C575.379 738.244 578.649 741.498 580.891 744.999C586.731 754.084 576.894 769.275 566.216 765.602C563.925 764.806 562.312 764.073 561.378 763.405C549.678 754.998 538.208 746.926 526.97 739.188C526.075 738.568 525.628 738.804 525.628 739.896C525.579 759.285 525.579 778.168 525.628 796.545C525.638 800.281 525.028 803.172 523.799 805.217C519.846 811.765 511.278 814.169 504.788 809.759C500.054 806.515 498.402 802.311 498.417 796.309C498.437 776.949 498.638 757.604 499.022 738.273C499.031 737.762 498.82 737.644 498.387 737.919C486.333 745.51 474.765 753.784 463.684 762.741C462.573 763.636 460.73 764.417 458.154 765.086C447.933 767.756 440.411 759.644 441.738 749.807C442.653 742.949 447.313 738.878 453.272 734.601C468.168 723.923 483.142 713.353 498.196 702.892C498.55 702.636 498.732 702.292 498.741 701.859L498.889 670.873C498.889 669.752 498.412 669.477 497.458 670.047C482.385 679.093 468.266 687.961 455.101 696.653C437.225 708.467 421.843 682.303 440.559 671.05C460.174 659.266 480.173 646.906 500.88 637.172Z" fill="#01020B"/>
<path d="M520.451 448.746C515.771 448.343 512.29 449.351 510.009 451.769C509.655 452.143 509.473 452.591 509.463 453.112L508.785 482.904C508.775 483.395 508.942 483.818 509.286 484.172C509.562 484.457 509.552 484.752 509.257 485.057C509.05 489.619 508.913 494.166 508.844 498.699C508.834 499.909 508.396 500.715 507.531 501.118" stroke="#C1F6F1" stroke-width="2"/>
<path d="M507.532 501.118C506.263 501.148 505.039 500.862 503.859 500.263" stroke="#80C5CA" stroke-width="2"/>
<path d="M522.796 504.849C522.589 504.996 522.471 505.232 522.442 505.557C522.383 506.098 522.624 506.348 523.164 506.309C526.458 506.102 529.246 505.498 531.527 504.495C538.031 501.663 544.786 499.141 550.67 495.528C555.095 492.814 559.441 489.953 563.708 486.944C565.419 485.745 565.198 484.073 563.044 481.93" stroke="#C1F6F1" stroke-width="2"/>
<path d="M511.249 593.886L510.63 591.201C510.512 590.72 510.497 590.238 510.585 589.756C510.984 587.662 510.29 585.449 510.231 583.871C509.818 573.793 509.346 563.72 508.815 553.652C508.56 548.804 507.213 545.186 504.774 542.797" stroke="#BCF6EF" stroke-width="2"/>
<path d="M448.848 563.239C450.352 563.268 451.586 563.017 452.55 562.486C452.781 562.361 452.975 562.176 453.11 561.95C453.245 561.725 453.316 561.466 453.316 561.203C453.331 557.103 452.004 550.481 457.726 548.741C458.179 548.603 458.547 548.348 458.832 547.974C459.137 547.571 459.55 547.325 460.071 547.236C460.317 547.197 460.474 547.06 460.543 546.824C460.602 546.588 460.804 546.381 461.148 546.204C468.04 542.664 478.05 537.109 491.176 529.538C492.788 528.604 494.352 527.267 495.866 525.527C496.21 525.143 496.308 524.701 496.161 524.199C495.414 521.741 494.14 520.542 492.341 520.601" stroke="#C1F6F1" stroke-width="2"/>
<path d="M450.396 496.531L453.626 493.006C453.951 492.642 454.202 492.229 454.379 491.767C454.742 490.774 455.337 489.943 456.163 489.275C456.355 489.123 456.584 489.025 456.825 488.992C457.066 488.958 457.311 488.989 457.535 489.083C463.926 491.698 470.273 494.422 476.575 497.254C478.473 498.099 480.095 498.561 481.442 498.64C483.89 498.778 485.572 498.203 486.486 496.914" stroke="#C1F6F1" stroke-width="2"/>
<path d="M503.593 504.481C504.242 504.628 504.846 504.687 505.407 504.658C506.056 504.618 506.542 504.338 506.867 503.817C507.3 503.129 507.275 502.465 506.793 501.826C506.567 501.521 506.641 501.325 507.014 501.236L507.531 501.118" stroke="#42BCBC" stroke-width="2"/>
<path d="M585.344 521.25C584.715 522.4 584.607 523.595 585.02 524.833" stroke="#42BCBC" stroke-width="2"/>
<path d="M520.453 448.746C515.773 448.342 512.292 449.35 510.011 451.769C509.657 452.143 509.475 452.59 509.465 453.111L508.787 482.903C508.777 483.395 508.944 483.818 509.288 484.171C509.563 484.457 509.554 484.752 509.259 485.056C509.052 489.619 508.915 494.166 508.846 498.699C508.836 499.908 508.398 500.714 507.533 501.117C506.265 501.147 505.041 500.862 503.861 500.262C503.556 484.491 503.6 468.74 503.993 453.008C504.111 448.092 506.275 444.911 510.483 443.466C514.603 442.05 517.926 443.81 520.453 448.746Z" fill="white"/>
<path d="M520.454 448.746C520.503 456.533 520.567 464.384 520.645 472.299C520.734 481.96 519.967 493.154 520.129 502.77C520.149 504.097 521.039 504.79 522.799 504.849C522.592 504.997 522.474 505.233 522.445 505.557C522.386 506.098 522.627 506.349 523.167 506.309C526.461 506.103 529.249 505.498 531.53 504.495C538.034 501.664 544.789 499.142 550.673 495.528C555.098 492.815 559.444 489.953 563.711 486.945C565.422 485.745 565.201 484.074 563.047 481.93C567.777 478.892 571.955 477.663 575.583 478.243C579.551 478.892 582.191 483.612 582.014 487.52C581.817 491.708 579.61 494.835 575.392 496.9C565.019 501.964 554.808 507.347 544.759 513.05C541.052 515.144 537.66 517.341 534.583 519.642C534.384 519.79 534.225 519.984 534.119 520.207C534.012 520.43 533.962 520.676 533.972 520.923C533.982 521.17 534.053 521.411 534.177 521.625C534.301 521.838 534.476 522.018 534.686 522.149C548.068 530.526 561.415 538.564 574.728 546.263C580.008 549.331 583.562 553.151 580.096 559.153C577.107 564.335 572.757 565.343 567.044 562.177C552.256 553.957 537.405 545.339 522.489 536.323C522.197 536.143 521.847 536.085 521.515 536.16C520.542 536.396 520.07 537.193 520.1 538.55C520.513 553.524 520.798 568.509 520.955 583.503C521.024 589.914 517.789 593.375 511.251 593.886L510.631 591.202C510.513 590.72 510.498 590.238 510.587 589.756C510.985 587.662 510.292 585.45 510.233 583.872C509.82 573.794 509.348 563.72 508.817 553.652C508.561 548.805 507.214 545.186 504.776 542.797C505.1 542.079 505.223 541.15 505.145 540.01C505.118 539.596 504.985 539.196 504.759 538.848C504.533 538.501 504.221 538.217 503.854 538.025C503.487 537.832 503.076 537.737 502.662 537.749C502.247 537.761 501.843 537.879 501.487 538.092C497.151 540.688 492.181 542.532 488.125 544.951C475.028 552.748 464.178 558.868 455.575 563.312C453.392 564.443 451.15 564.419 448.85 563.239C450.354 563.268 451.588 563.017 452.551 562.486C452.783 562.362 452.977 562.176 453.112 561.95C453.247 561.725 453.318 561.466 453.318 561.203C453.333 557.103 452.006 550.481 457.728 548.741C458.18 548.603 458.549 548.348 458.834 547.974C459.139 547.571 459.552 547.325 460.073 547.237C460.319 547.197 460.476 547.06 460.545 546.824C460.604 546.588 460.806 546.381 461.15 546.204C468.042 542.664 478.052 537.109 491.178 529.538C492.79 528.604 494.354 527.267 495.868 525.527C496.212 525.143 496.31 524.701 496.163 524.199C495.416 521.741 494.142 520.542 492.343 520.601L450.398 496.531L453.628 493.006C453.953 492.643 454.203 492.23 454.38 491.767C454.744 490.774 455.339 489.944 456.165 489.275C456.357 489.123 456.585 489.025 456.827 488.992C457.068 488.958 457.313 488.99 457.536 489.083C463.927 491.699 470.274 494.422 476.577 497.254C478.474 498.099 480.097 498.562 481.444 498.64C483.892 498.778 485.573 498.203 486.488 496.915C490.175 498.694 494.147 500.73 498.405 503.021C499.781 503.768 501.512 504.254 503.596 504.481C504.245 504.628 504.85 504.687 505.41 504.658C506.059 504.618 506.546 504.338 506.87 503.817C507.303 503.129 507.278 502.465 506.796 501.826C506.57 501.521 506.644 501.324 507.018 501.236L507.534 501.118C508.399 500.715 508.837 499.909 508.847 498.699C508.915 494.166 509.053 489.619 509.259 485.057C509.554 484.752 509.564 484.457 509.289 484.172C508.945 483.818 508.778 483.395 508.787 482.904L509.466 453.112C509.476 452.591 509.658 452.143 510.012 451.769C512.293 449.351 515.773 448.343 520.454 448.746Z" fill="#83EDE3"/>
<path d="M551.647 462.211C556.071 472.255 539.45 483.641 536.53 475.706C534.258 469.527 533.89 454.572 544.995 456.725C548.083 457.325 550.3 459.153 551.647 462.211Z" fill="#83EDE3"/>
<path d="M474.836 459.306C478.7 455.619 484.466 455.988 487.505 460.353C490.204 464.217 489.407 470.102 488.581 474.792C488.208 476.847 486.979 477.86 484.894 477.83C478.936 477.742 473.435 476.311 472.151 469.66C471.306 465.284 472.201 461.833 474.836 459.306Z" fill="white"/>
<path d="M486.488 496.914C485.573 498.202 483.892 498.778 481.444 498.64C480.097 498.561 478.474 498.099 476.577 497.254C470.274 494.422 463.928 491.698 457.537 489.083C457.313 488.989 457.068 488.958 456.827 488.991C456.585 489.025 456.357 489.123 456.165 489.275C455.339 489.943 454.744 490.774 454.38 491.767C454.203 492.229 453.953 492.642 453.628 493.006L450.398 496.531C433.791 490.336 445.31 471.385 458.569 479.88C467.448 485.573 476.754 491.251 486.488 496.914Z" fill="white"/>
<path d="M563.046 481.93C565.2 484.073 565.421 485.745 563.71 486.944C559.443 489.953 555.097 492.814 550.672 495.528C544.788 499.141 538.033 501.663 531.529 504.495C529.248 505.498 526.46 506.102 523.166 506.309C522.626 506.348 522.385 506.098 522.444 505.557C522.473 505.232 522.591 504.996 522.798 504.849L563.046 481.93Z" fill="white"/>
<path d="M503.861 500.263C505.041 500.862 506.265 501.148 507.534 501.118L507.017 501.236C506.644 501.325 506.57 501.521 506.796 501.826C507.278 502.465 507.302 503.129 506.87 503.817C506.545 504.338 506.059 504.618 505.41 504.658C504.849 504.687 504.245 504.628 503.596 504.481C504.559 504.245 504.648 502.839 503.861 500.263Z" fill="#008B94"/>
<path d="M458.536 520.346C458.606 521.491 458.43 522.639 458.019 523.725C457.608 524.812 456.97 525.815 456.141 526.678C455.311 527.541 454.307 528.247 453.185 528.755C452.064 529.263 450.846 529.564 449.603 529.64C448.36 529.716 447.116 529.566 445.941 529.198C444.765 528.83 443.683 528.252 442.754 527.497C441.826 526.741 441.07 525.823 440.529 524.795C439.989 523.767 439.675 522.648 439.605 521.504C439.535 520.359 439.71 519.211 440.121 518.125C440.532 517.038 441.171 516.035 442 515.172C442.83 514.309 443.834 513.603 444.956 513.095C446.077 512.587 447.294 512.286 448.537 512.21C449.78 512.134 451.025 512.284 452.2 512.652C453.376 513.02 454.458 513.598 455.387 514.353C456.315 515.109 457.071 516.027 457.612 517.055C458.152 518.083 458.466 519.202 458.536 520.346Z" fill="white"/>
<path d="M585.346 521.25C584.717 522.4 584.609 523.595 585.022 524.833C584.157 525.63 583.449 526.603 582.898 527.754C582.678 528.203 582.315 528.566 581.866 528.786C576.704 531.264 568.784 531.013 566.675 524.701C565.75 521.938 566.419 519.165 568.68 516.383C570.937 513.595 573.208 513.403 576.836 513.403C581.841 513.413 584.678 516.029 585.346 521.25Z" fill="#83EDE3"/>
<path d="M669.873 516.761C670.465 517.612 670.656 518.69 670.404 519.758C670.152 520.825 669.479 521.795 668.531 522.454C668.062 522.78 667.54 523.019 666.994 523.159C666.449 523.299 665.891 523.337 665.352 523.269C664.813 523.202 664.304 523.031 663.854 522.766C663.403 522.502 663.021 522.149 662.728 521.727C662.136 520.876 661.946 519.798 662.197 518.731C662.449 517.663 663.123 516.694 664.07 516.035C664.539 515.709 665.062 515.469 665.607 515.329C666.153 515.189 666.711 515.152 667.25 515.219C667.789 515.287 668.298 515.457 668.748 515.722C669.198 515.987 669.58 516.34 669.873 516.761Z" fill="#F5FEFB"/>
<path d="M360.229 517.03C360.503 517.457 360.666 517.949 360.707 518.48C360.749 519.01 360.669 519.567 360.473 520.12C360.276 520.673 359.966 521.21 359.56 521.701C359.155 522.192 358.661 522.628 358.109 522.982C356.993 523.699 355.703 524.043 354.523 523.94C353.342 523.837 352.368 523.294 351.814 522.432C351.54 522.005 351.377 521.512 351.336 520.982C351.294 520.451 351.373 519.894 351.57 519.341C351.767 518.788 352.077 518.251 352.483 517.76C352.888 517.269 353.381 516.834 353.934 516.479C355.05 515.763 356.34 515.418 357.52 515.521C358.701 515.625 359.675 516.167 360.229 517.03Z" fill="white"/>
<path d="M492.342 520.601C494.141 520.542 495.415 521.741 496.162 524.199C496.309 524.701 496.211 525.143 495.867 525.527C494.353 527.267 492.789 528.604 491.177 529.538C478.051 537.109 468.041 542.664 461.149 546.204C460.805 546.381 460.603 546.588 460.544 546.824C460.475 547.06 460.318 547.197 460.072 547.236C459.551 547.325 459.138 547.571 458.833 547.974C458.548 548.348 458.18 548.603 457.727 548.741C452.005 550.481 453.332 557.103 453.317 561.203C453.317 561.466 453.246 561.725 453.111 561.95C452.976 562.176 452.782 562.361 452.551 562.486C451.587 563.017 450.353 563.268 448.849 563.239C442.433 560.318 439.513 551.882 446.592 547.753C453.16 543.918 459.713 540.074 466.252 536.219C474.737 531.234 483.434 526.028 492.342 520.601Z" fill="white"/>
<path d="M585.346 521.25C586.103 522.37 585.995 523.565 585.022 524.833C584.609 523.595 584.717 522.4 585.346 521.25Z" fill="#008B94"/>
<path d="M504.776 542.797C507.215 545.186 508.562 548.804 508.817 553.652C509.348 563.72 509.82 573.793 510.233 583.871C510.292 585.449 510.985 587.662 510.587 589.756C510.499 590.238 510.513 590.72 510.631 591.201L511.251 593.886C505.351 592.175 503.523 588.635 503.478 582.441C503.409 569.6 503.842 556.385 504.776 542.797Z" fill="#F5FEFB"/>
<path d="M485.515 582.5C480.796 585.863 472.699 583.68 472.138 577.235C471.548 570.401 474.237 565.952 480.206 563.888C492.727 559.566 491.37 578.341 485.515 582.5Z" fill="#02D4C9"/>
<path d="M544.843 583.976C542.541 584.32 540.168 583.54 538.245 581.808C536.322 580.076 535.007 577.534 534.59 574.741C534.172 571.948 534.686 569.133 536.019 566.914C537.351 564.696 539.393 563.257 541.695 562.913C543.997 562.569 546.37 563.348 548.293 565.08C550.215 566.812 551.53 569.354 551.948 572.147C552.365 574.94 551.851 577.755 550.519 579.974C549.186 582.192 547.145 583.632 544.843 583.976Z" fill="#02D4C9"/>
</svg>
