<svg width="1024" height="1024" viewBox="0 0 1024 1024" fill="none" xmlns="http://www.w3.org/2000/svg">
<rect width="1024" height="1024" fill="white"/>
<path d="M290.553 645.597L325.476 645.386" stroke="#006C8D" stroke-width="2"/>
<path d="M360.75 645.457L395.925 645.443" stroke="#006C8D" stroke-width="2"/>
<path d="M626.775 645.443L661.712 645.569" stroke="#006C8D" stroke-width="2"/>
<path d="M698.698 645.499L733.424 645.457" stroke="#805B0F" stroke-width="2"/>
<path d="M453.046 239.052C498.281 188.302 581.892 212.842 591.208 280.345C592.106 286.841 591.643 294.025 587.728 299.37C580.208 309.627 563.244 306.653 559.176 294.053C557.688 289.437 558.811 282.281 557.057 276.823C548.638 250.543 519.931 239.318 495.054 249.056C480.196 254.878 468.746 269.05 468.185 285.255C468.026 289.783 467.703 292.771 467.217 294.221C465 300.834 460.407 304.571 453.439 305.432C438.734 307.242 433.781 294.39 434.75 282.112C436.05 265.64 442.148 251.287 453.046 239.052Z" fill="#00101B"/>
<path d="M340.18 238.242C340.176 240.09 339.809 241.919 339.099 243.626C338.389 245.332 337.35 246.881 336.04 248.186C334.731 249.49 333.178 250.524 331.47 251.229C329.761 251.933 327.93 252.294 326.082 252.29L285.056 252.219C283.208 252.216 281.378 251.848 279.672 251.138C277.966 250.428 276.416 249.389 275.112 248.08C273.807 246.771 272.773 245.217 272.069 243.509C271.365 241.8 271.004 239.969 271.007 238.121L271.01 236.831C271.013 234.982 271.38 233.153 272.09 231.447C272.8 229.741 273.84 228.191 275.149 226.887C276.458 225.582 278.011 224.548 279.72 223.844C281.428 223.14 283.259 222.779 285.107 222.782L326.133 222.854C327.982 222.857 329.811 223.224 331.517 223.934C333.223 224.644 334.773 225.684 336.077 226.993C337.382 228.302 338.416 229.855 339.12 231.564C339.824 233.272 340.185 235.103 340.182 236.951L340.18 238.242Z" fill="#00101B"/>
<path d="M759.26 238.049C759.286 241.759 757.837 245.327 755.232 247.969C752.627 250.61 749.079 252.109 745.369 252.135L707.15 252.402C703.44 252.428 699.872 250.979 697.23 248.374C694.588 245.769 693.09 242.221 693.064 238.511L693.054 237.136C693.028 233.426 694.477 229.858 697.082 227.216C699.687 224.574 703.235 223.076 706.945 223.05L745.164 222.783C748.874 222.757 752.442 224.206 755.084 226.811C757.726 229.416 759.224 232.964 759.25 236.674L759.26 238.049Z" fill="#00101B"/>
<path d="M243.943 238.546C243.943 242.666 242.307 246.617 239.394 249.529C236.481 252.442 232.531 254.079 228.411 254.079C224.292 254.079 220.341 252.442 217.428 249.529C214.515 246.617 212.879 242.666 212.879 238.546C212.879 236.507 213.281 234.487 214.061 232.603C214.842 230.718 215.986 229.006 217.428 227.564C218.87 226.121 220.583 224.977 222.467 224.197C224.352 223.416 226.371 223.014 228.411 223.014C230.451 223.014 232.471 223.416 234.355 224.197C236.239 224.977 237.952 226.121 239.394 227.564C240.836 229.006 241.98 230.718 242.761 232.603C243.542 234.487 243.943 236.507 243.943 238.546Z" fill="#00101B"/>
<path d="M391.871 238.196C391.871 242.196 390.281 246.033 387.453 248.861C384.624 251.69 380.788 253.279 376.787 253.279C372.787 253.279 368.95 251.69 366.122 248.861C363.293 246.033 361.704 242.196 361.704 238.196C361.704 234.195 363.293 230.359 366.122 227.53C368.95 224.702 372.787 223.113 376.787 223.113C380.788 223.113 384.624 224.702 387.453 227.53C390.281 230.359 391.871 234.195 391.871 238.196Z" fill="#00101B"/>
<path d="M797.876 253.849C793.952 254.047 790.106 252.617 787.185 249.872C784.263 247.127 782.506 243.293 782.299 239.212C782.197 237.192 782.478 235.171 783.127 233.267C783.777 231.363 784.781 229.611 786.082 228.113C787.384 226.615 788.958 225.398 790.714 224.534C792.47 223.67 794.374 223.175 796.318 223.076C800.242 222.877 804.088 224.308 807.009 227.053C809.931 229.798 811.688 233.632 811.895 237.713C811.997 239.733 811.716 241.753 811.067 243.658C810.417 245.562 809.413 247.314 808.112 248.812C806.81 250.31 805.236 251.526 803.48 252.391C801.724 253.255 799.82 253.75 797.876 253.849Z" fill="#00101B"/>
<path d="M665.69 234.3C666.152 236.152 666.236 238.079 665.937 239.971C665.637 241.863 664.961 243.684 663.946 245.328C662.932 246.972 661.598 248.408 660.022 249.553C658.447 250.699 656.659 251.532 654.762 252.005C650.931 252.96 646.887 252.391 643.519 250.421C640.15 248.451 637.734 245.243 636.801 241.502C636.339 239.65 636.256 237.723 636.555 235.831C636.854 233.939 637.531 232.119 638.545 230.474C639.56 228.83 640.893 227.394 642.469 226.249C644.045 225.103 645.832 224.27 647.729 223.797C651.56 222.842 655.605 223.412 658.973 225.381C662.341 227.351 664.758 230.559 665.69 234.3Z" fill="#FF653B"/>
<path d="M535.103 292.017C534.713 294.869 533.754 297.614 532.282 300.096C530.809 302.578 528.852 304.749 526.522 306.484C524.192 308.219 521.535 309.484 518.702 310.208C515.87 310.931 512.917 311.099 510.012 310.701C504.147 309.898 498.835 306.839 495.245 302.199C491.655 297.559 490.081 291.717 490.87 285.958C491.261 283.107 492.22 280.361 493.692 277.879C495.164 275.397 497.121 273.227 499.451 271.492C501.781 269.757 504.438 268.491 507.271 267.768C510.104 267.044 513.057 266.876 515.961 267.274C521.827 268.078 527.139 271.136 530.729 275.776C534.319 280.416 535.892 286.258 535.103 292.017Z" fill="#FF653B"/>
<path d="M290.554 645.597L325.477 645.386L360.751 645.457L395.926 645.443H626.777L661.714 645.569L698.699 645.499L733.426 645.457L769.822 645.541C770.607 645.541 771 645.148 771 644.362C771.122 541.778 771.07 438.959 770.846 335.907C770.837 329.434 770.186 324.514 768.896 321.146C766.033 313.682 760.865 308.561 753.392 305.783C750.024 304.538 745.043 303.935 738.449 303.973C704.831 304.178 671.217 304.239 637.608 304.155C630.724 304.146 626.005 303.678 623.451 302.752C607.863 297.139 610.641 271.645 628.699 271.617C691.099 271.533 731.321 271.561 749.365 271.702C774.017 271.884 794.951 290.559 801.097 313.991C802.462 319.219 803.159 327.493 803.187 338.811C803.393 459.505 803.463 580.208 803.398 700.921C803.398 708.31 801.284 716.205 797.056 724.605C790.012 738.58 779.456 747.564 765.388 751.558C760.748 752.868 753.747 753.523 744.384 753.523C687.774 753.523 631.557 753.509 575.732 753.481C574.133 753.481 573.567 754.243 574.035 755.768L581.008 778.75C581.166 779.277 581.491 779.739 581.934 780.065C582.376 780.391 582.913 780.565 583.463 780.56C594.913 780.467 606.366 780.28 617.825 779.999C624.26 779.84 629.344 782.295 633.077 787.365C638.703 795.026 636.304 805.984 627.647 810.123C625.346 811.227 621.978 811.779 617.544 811.779C548.653 811.76 479.761 811.821 410.869 811.961C398.761 811.989 391.591 799.797 396.642 789.077C399.841 782.258 405.131 780.939 412.735 780.686C422.052 780.368 431.368 780.261 440.685 780.364C441.508 780.382 443.206 780.097 445.778 779.508C446.115 779.433 446.339 779.227 446.452 778.89L454.435 753.733C454.491 753.537 454.416 753.438 454.211 753.438C397.601 753.457 340.953 753.495 284.268 753.551C273.175 753.56 265.271 752.858 260.556 751.446C243.144 746.241 229.871 731.564 224.946 714.25C223.552 709.358 222.86 701.337 222.869 690.187C222.916 569.241 222.897 448.294 222.813 327.348C222.804 321.296 223.968 315.029 226.307 308.547C233 289.928 246.862 276.023 266.772 272.529C270.13 271.94 279.46 271.65 294.764 271.659C328.082 271.669 361.406 271.669 394.734 271.659C418.783 271.645 416.818 303.832 396.137 303.93C358.076 304.118 320.014 304.178 281.953 304.113C270.672 304.099 261.328 311.395 257.497 321.539C256.122 325.206 255.44 331.267 255.449 339.723C255.627 441.298 255.636 542.821 255.477 644.292C255.477 644.565 255.584 644.827 255.776 645.021C255.968 645.216 256.228 645.327 256.501 645.33L290.554 645.597Z" fill="#00101B"/>
<path d="M731.854 338.208C742.981 351.243 742.026 365.54 741.619 382.419C741.423 390.838 738.056 397.559 729.721 400.014C722.552 402.133 713.894 398.457 711.144 391.273C708.745 384.987 709.924 372.654 710.106 365.358C710.289 357.753 704.227 354.793 697.45 354.835C686.805 354.909 676.165 355.045 665.53 355.241C650.573 355.508 643.964 334.097 659.918 327.853C661.611 327.198 664.22 326.857 667.747 326.829C679.879 326.726 692.002 326.595 704.115 326.436C715.779 326.286 725.026 330.21 731.854 338.208Z" fill="#FF653B"/>
<path d="M360.344 326.997C375.076 327.46 379.117 346.711 366.672 353.852C364.745 354.956 361.845 355.489 357.972 355.452C348.46 355.358 338.965 355.344 329.49 355.41C322.797 355.452 316.273 356.406 316.273 364.881C316.282 370.615 316.202 376.349 316.034 382.083C315.768 391.427 313.649 397.489 304.571 400.239C293.823 403.522 284.914 394.416 284.128 384.187C282.416 362.159 284.956 337.17 308.906 328.863C312.508 327.61 317.39 326.965 323.555 326.927C342.394 326.796 354.656 326.82 360.344 326.997Z" fill="#FF653B"/>
<path d="M534.452 337.085C581.526 341.098 627.533 365.498 661.081 398.092C673.307 409.962 683.844 423.165 692.693 437.701C694.657 440.91 695.985 443.996 696.677 446.961C698.684 455.576 691.514 463.574 683.39 465.131C674.494 466.843 669.654 461.848 664.533 454.538C660.421 448.659 656.31 442.415 651.961 437.154C627.818 407.951 598.325 387.489 563.482 375.769C492.121 351.776 414.698 382.279 369.729 441.63C367.737 444.268 363.921 449.791 358.28 458.2C351.209 468.723 334.105 467.503 329.531 455.254C326.135 446.162 335.326 432.832 340.643 425.171C373.237 378.126 423.833 348.184 479.647 338.348C497.481 335.205 516.479 335.57 534.452 337.085Z" fill="#00101B"/>
<path d="M630.691 500.517C605 450.862 551.514 417.637 494.829 425.733C451.46 431.92 415.022 462.339 395.364 500.475C392.408 506.209 390.019 509.848 388.195 511.391C381.488 517.018 371.301 515.643 365.787 508.277C358.674 498.764 364.735 488.563 370.123 478.685C391.515 439.53 423.22 413.156 465.238 399.565C517.124 382.77 570.203 395.314 613.236 427.711C633.048 442.626 649.015 464.374 660.183 486.262C664.266 494.274 665.627 503.408 658.584 509.904C652.41 515.615 642.799 515.951 636.626 509.96C635.223 508.604 633.244 505.456 630.691 500.517Z" fill="#00101B"/>
<path d="M403.418 524.805C422.191 479.724 463.358 449.375 512.943 450.062C562.458 450.764 600.945 479.738 621.626 523.5C625.948 532.662 626.383 542.316 617.207 548.447C611.987 551.936 606.632 552.076 601.141 548.868C594.014 544.701 591.881 537.11 588.121 530.389C570.498 498.82 537.806 477.619 501.087 482.628C467.89 487.16 444.655 512.051 431.494 541.235C427.818 549.387 417.954 554.2 409.241 549.569C399.503 544.378 399.63 533.897 403.418 524.805Z" fill="#00101B"/>
<path d="M297.063 508.277C294.952 506.937 293.136 505.178 291.719 503.099C290.303 501.02 289.313 498.662 288.807 496.16C288.3 493.658 288.287 491.062 288.768 488.518C289.249 485.974 290.215 483.534 291.61 481.335C294.427 476.896 298.823 473.713 303.83 472.487C308.837 471.261 314.045 472.092 318.309 474.798C320.42 476.138 322.236 477.898 323.652 479.977C325.069 482.056 326.059 484.413 326.565 486.915C327.071 489.417 327.084 492.014 326.603 494.557C326.122 497.101 325.157 499.541 323.762 501.74C320.944 506.179 316.549 509.362 311.541 510.588C306.534 511.814 301.326 510.983 297.063 508.277Z" fill="#00C7FF"/>
<path d="M708.306 509.449C703.742 507.262 700.266 503.285 698.642 498.393C697.017 493.501 697.379 488.094 699.646 483.363C701.913 478.631 705.9 474.961 710.731 473.162C715.561 471.362 720.839 471.58 725.403 473.766C729.967 475.953 733.443 479.93 735.067 484.822C736.692 489.714 736.33 495.121 734.063 499.853C731.796 504.585 727.809 508.254 722.978 510.054C718.148 511.853 712.87 511.636 708.306 509.449Z" fill="#00C7FF"/>
<path d="M438.65 574.278C444.557 538.345 473.18 507.407 511.344 507.365C548.89 507.308 577.121 533.518 586.269 568.918C588.472 577.435 587.433 585.054 581.091 590.877C572.322 598.944 558.796 592.167 555.134 582.332C554.535 580.732 553.188 576.701 551.093 570.237C543.306 546.174 517.377 531.315 493.665 544.687C480.756 551.969 475.004 563.895 471.075 577.744C469.737 582.458 468.498 585.615 467.357 587.214C456.553 602.494 435.731 592.083 438.65 574.278Z" fill="#00101B"/>
<path d="M325.477 645.386L290.554 645.597C290.218 614.448 290.045 583.314 290.035 552.193C290.035 547.909 290.475 544.546 291.354 542.105C297.149 525.997 319.36 526.938 324.579 543.255C325.262 545.407 325.618 549.074 325.646 554.256C325.758 584.488 325.702 614.864 325.477 645.386Z" fill="#00C7FF"/>
<path d="M733.425 645.457L698.699 645.499C698.643 613.143 698.624 580.872 698.643 548.685C698.652 542.456 700.813 537.751 705.125 534.57C711.579 529.814 719.97 529.407 726.354 534.374C731.012 538.003 733.337 543.475 733.327 550.79C733.29 582.135 733.323 613.691 733.425 645.457Z" fill="#FFA602"/>
<path d="M661.713 645.569L626.776 645.443C627.309 644.75 627.478 643.586 627.281 641.949C627.066 640.162 626.949 639.012 626.931 638.497C626.276 610.267 626.215 591.845 626.748 583.23C627.618 569.213 641.382 559.503 653.772 568.525C660.927 573.717 661.966 579.427 662.036 588.617C662.195 607.512 662.087 626.496 661.713 645.569Z" fill="#00C7FF"/>
<path d="M395.925 645.443L360.75 645.457C360.712 626.777 360.562 608.111 360.301 589.459C360.207 582.883 360.801 578.239 362.082 575.527C368.438 562.099 390.088 562.155 395.406 576.972C396.182 579.133 396.57 582.533 396.57 587.172C396.584 606.535 397.216 626.164 395.925 645.443Z" fill="#00C7FF"/>
<path d="M502.709 623.222C497.635 620.648 493.818 616.112 492.096 610.613C490.375 605.113 490.891 599.1 493.531 593.896C494.838 591.32 496.627 589.02 498.797 587.127C500.966 585.234 503.472 583.786 506.173 582.866C508.874 581.945 511.716 581.57 514.538 581.762C517.359 581.953 520.104 582.708 522.617 583.983C527.691 586.557 531.509 591.093 533.23 596.592C534.951 602.092 534.435 608.105 531.795 613.309C530.488 615.885 528.699 618.185 526.53 620.078C524.361 621.971 521.854 623.419 519.153 624.339C516.452 625.26 513.61 625.635 510.788 625.443C507.967 625.252 505.222 624.497 502.709 623.222Z" fill="#00C7FF"/>
<path d="M306.1 782.3C317.675 787.505 318.096 804.876 306.619 810.264C304.58 811.218 301.044 811.728 296.012 811.793C273.431 812.074 250.846 812.069 228.256 811.779C223.561 811.723 220.067 811.096 217.775 809.899C206.691 804.104 205.835 789.694 216.765 783.17C218.926 781.879 222.181 781.206 226.531 781.149C249.831 780.859 273.123 780.794 296.405 780.953C300.932 780.99 304.164 781.439 306.1 782.3Z" fill="#00101B"/>
<path d="M814.049 796.836C814.052 798.786 813.672 800.717 812.929 802.519C812.186 804.322 811.095 805.96 809.719 807.341C808.343 808.722 806.709 809.818 804.909 810.567C803.109 811.316 801.18 811.704 799.23 811.707L733.004 811.823C729.067 811.83 725.289 810.272 722.5 807.493C719.711 804.714 718.141 800.941 718.134 797.004L718.132 795.994C718.128 794.044 718.509 792.113 719.252 790.311C719.995 788.509 721.085 786.87 722.461 785.489C723.837 784.108 725.472 783.012 727.272 782.263C729.072 781.514 731.001 781.126 732.951 781.123L799.176 781.007C803.114 781.001 806.892 782.558 809.681 785.337C812.469 788.116 814.04 791.889 814.047 795.826L814.049 796.836Z" fill="#00101B"/>
<path d="M370.235 796.429C370.235 800.463 368.633 804.331 365.781 807.184C362.928 810.036 359.06 811.638 355.026 811.638C350.992 811.638 347.124 810.036 344.271 807.184C341.419 804.331 339.816 800.463 339.816 796.429C339.816 792.395 341.419 788.527 344.271 785.674C347.124 782.822 350.992 781.219 355.026 781.219C359.06 781.219 362.928 782.822 365.781 785.674C368.633 788.527 370.235 792.395 370.235 796.429Z" fill="#00101B"/>
<path d="M676.625 811.748C674.65 811.714 672.701 811.281 670.89 810.474C669.079 809.668 667.441 808.503 666.069 807.047C664.698 805.591 663.62 803.872 662.897 801.988C662.174 800.105 661.82 798.093 661.855 796.068C661.926 791.979 663.579 788.086 666.45 785.243C669.321 782.401 673.174 780.844 677.163 780.913C679.138 780.948 681.087 781.381 682.898 782.187C684.709 782.994 686.347 784.159 687.718 785.615C689.09 787.071 690.168 788.79 690.891 790.673C691.614 792.557 691.968 794.569 691.933 796.593C691.861 800.682 690.208 804.576 687.338 807.418C684.467 810.261 680.613 811.818 676.625 811.748Z" fill="#00101B"/>
<path d="M739.023 678.135C740.931 691.688 736.399 702.422 725.427 710.336C721.592 713.104 717.289 714.531 712.518 714.615C705.989 714.727 699.441 714.882 692.875 715.078C686.028 715.284 680.444 717.019 676.122 720.283" stroke="#5A8299" stroke-width="2"/>
<path d="M508.326 780.181C509.298 778.002 509.532 775.486 509.027 772.633C508.925 772.055 508.621 771.532 508.17 771.155C507.718 770.778 507.148 770.571 506.558 770.57L483.407 770.654" stroke="#5A8299" stroke-width="2"/>
<path d="M739.022 678.135C740.93 691.689 736.398 702.422 725.426 710.336C721.591 713.105 717.288 714.531 712.518 714.615C705.988 714.727 699.441 714.882 692.874 715.078C686.027 715.284 680.443 717.019 676.121 720.284C464.984 720.574 331.2 720.62 274.768 720.424C266.377 720.396 259.726 712.426 256.906 704.976C254.198 697.862 255.391 686.96 255.475 678.78C255.484 678.284 255.737 678.037 256.233 678.037L739.022 678.135Z" fill="#7FA2B7"/>
<path d="M739.023 678.135L770.564 678.12C770.776 678.12 770.98 678.205 771.13 678.355C771.28 678.505 771.364 678.708 771.364 678.92C771.364 694.046 774.366 709.269 758.512 718.572C756.575 719.703 753.877 720.265 750.416 720.255C725.637 720.152 700.873 720.162 676.122 720.283C680.444 717.019 686.028 715.284 692.875 715.078C699.441 714.881 705.989 714.727 712.518 714.615C717.289 714.531 721.592 713.104 725.427 710.335C736.399 702.422 740.931 691.688 739.023 678.135Z" fill="#34627B"/>
<path d="M508.327 780.182C509.3 778.002 509.534 775.486 509.029 772.633C508.926 772.055 508.623 771.532 508.171 771.155C507.72 770.778 507.149 770.571 506.559 770.57L483.408 770.655L487.716 754.253C487.884 753.616 488.3 753.303 488.964 753.312L536.389 753.986C537.09 753.994 537.771 754.225 538.333 754.646C538.895 755.067 539.31 755.657 539.518 756.329L546.505 778.891C546.549 779.032 546.559 779.181 546.535 779.326C546.511 779.472 546.453 779.61 546.365 779.728C546.278 779.847 546.164 779.944 546.032 780.01C545.9 780.077 545.755 780.112 545.607 780.111L508.327 780.182Z" fill="#34627B"/>
<path d="M483.409 770.654L506.56 770.57C507.15 770.571 507.72 770.778 508.172 771.155C508.623 771.532 508.927 772.055 509.029 772.633C509.534 775.486 509.3 778.002 508.328 780.181L482.034 780.153C481.862 780.154 481.692 780.115 481.538 780.038C481.384 779.961 481.251 779.849 481.148 779.711C481.046 779.573 480.977 779.413 480.948 779.244C480.919 779.074 480.931 778.901 480.981 778.736L483.409 770.654Z" fill="#7FA2B7"/>
</svg>
