<svg width="1024" height="1024" viewBox="0 0 1024 1024" fill="none" xmlns="http://www.w3.org/2000/svg">
<rect width="1024" height="1024" fill="white"/>
<path d="M768.455 750.019C759.73 763.19 748.122 771.399 733.629 774.646C720.389 777.623 699.737 776.23 683.596 776.55" stroke="#5D737C" stroke-width="2"/>
<path d="M683.595 776.55L348.581 776.435" stroke="#194350" stroke-width="2"/>
<path d="M348.581 776.435C339.61 775.923 326.101 775.681 308.056 775.706C288.767 775.723 273.444 767.476 262.086 750.964" stroke="#5D737C" stroke-width="2"/>
<path d="M643.632 793.534C657.37 788.512 671.646 784.064 683.595 776.55" stroke="#76A2B6" stroke-width="2"/>
<path d="M348.581 776.435C362.23 783.362 372.339 788.41 385.732 793.062" stroke="#76A2B6" stroke-width="2"/>
<path d="M641.918 256.84C636.065 256.831 630.22 256.861 624.384 256.929C622.765 256.946 621.125 256.005 619.464 254.105C615.055 249.019 616.013 241.146 622.224 238.258C626.646 236.187 636.883 237.35 641.969 237.312C642.055 237.31 642.139 237.292 642.218 237.258C642.296 237.223 642.367 237.174 642.426 237.112C642.486 237.051 642.532 236.978 642.563 236.898C642.595 236.818 642.61 236.733 642.608 236.648C642.544 230.961 641.471 220.967 644.039 216.366C647.554 210.053 658.66 210.832 661.497 217.12C663.554 221.708 662.161 230.628 662.098 236.469C662.096 236.586 662.118 236.701 662.162 236.809C662.207 236.917 662.273 237.015 662.357 237.097C662.441 237.178 662.54 237.241 662.65 237.283C662.759 237.324 662.875 237.343 662.992 237.338C666.971 237.201 671.035 237.018 675.184 236.788C687.964 236.085 691.134 256.329 677.114 256.942C672.309 257.155 667.572 257.206 662.903 257.096C662.803 257.092 662.703 257.109 662.609 257.144C662.516 257.18 662.43 257.234 662.357 257.303C662.285 257.372 662.227 257.454 662.187 257.546C662.146 257.638 662.125 257.737 662.123 257.837C662.055 263.664 662.161 269.398 662.443 275.039C662.604 278.378 661.037 281.096 657.74 283.192C650.736 287.652 642.174 281.429 642.416 273.761C642.587 268.367 642.659 262.97 642.634 257.568C642.634 257.091 642.395 256.848 641.918 256.84Z" fill="#001416"/>
<path d="M369.82 253.415C376.619 257.441 385.706 253.07 385.667 244.686C385.642 239.331 384.249 229.325 386.664 224.864C391.112 216.609 404.249 218.973 404.237 228.698C404.211 237.81 405.489 250.13 402.46 257.824C393.514 280.559 358.05 280.815 348.874 258.092C345.794 250.463 346.957 236.341 347.11 229.35C347.379 217.286 365.156 216.724 365.373 229.67C365.467 235.421 365.552 241.172 365.629 246.923C365.667 249.223 367.724 252.175 369.82 253.415Z" fill="#001416"/>
<path d="M768.451 750.018C759.727 763.19 748.119 771.399 733.626 774.645C720.386 777.623 699.734 776.23 683.593 776.549L348.579 776.434C339.607 775.923 326.099 775.68 308.054 775.706C288.764 775.723 273.441 767.476 262.084 750.964C255.524 741.677 252.26 730.75 252.295 718.183C252.405 680.159 252.38 603.841 252.218 489.23C252.209 480.838 252.78 474.418 253.93 469.971C256.623 459.628 261.811 450.695 269.496 443.171C295.312 417.927 315.824 398.182 331.032 383.936C333.588 381.559 334.546 380.166 334.495 376.435C334.329 360.536 336.31 346.555 348.962 335.475C356.136 329.196 364.882 325.881 375.199 325.532C381.249 325.327 387.319 325.204 393.411 325.161C393.823 325.153 394.218 324.999 394.523 324.727C420.824 301.033 446.039 276.444 471.228 251.587C487.944 235.101 503.421 225.235 527.741 230.462C538.655 232.813 545.671 237.018 554.438 245.274C582.299 271.524 610.065 297.821 637.738 324.164C638.82 325.195 640.107 325.698 641.598 325.673C659.387 325.353 675.26 324.97 687.797 339.73C697.65 351.335 698.187 363.297 697.305 378.236C697.248 379.179 697.509 380.108 698.047 380.869C700.134 383.843 702.605 386.718 705.459 389.496C719.619 403.289 733.814 417.045 748.042 430.762C757.405 439.785 763.05 445.532 764.975 448.002C772.273 457.332 778.433 470.278 778.407 482.393C778.237 560.99 778.147 639.587 778.139 718.183C778.139 729.668 774.91 740.28 768.451 750.018Z" fill="#001416"/>
<path d="M745.576 286.553C741.883 291.154 735.863 299.333 730.125 300.496C723.045 301.94 715.901 293.506 721.844 286.847C725.652 282.57 729.525 278.404 733.461 274.349C733.512 274.297 733.551 274.235 733.576 274.166C733.601 274.098 733.612 274.025 733.607 273.952C733.602 273.878 733.582 273.806 733.548 273.741C733.514 273.675 733.467 273.616 733.41 273.569C729.363 270.28 725.729 266.485 722.508 262.182C719.697 258.425 720.174 254.774 723.94 251.23C731.991 243.651 740.477 254.156 744.452 260.316C745.474 261.901 746.582 261.965 747.774 260.508C750.594 257.091 753.704 253.773 757.104 250.552C763.647 244.367 772.67 251.562 771.66 260.022C771.226 263.613 762.177 271.09 759.097 273.85C759.038 273.903 758.99 273.968 758.957 274.04C758.924 274.113 758.907 274.192 758.907 274.272C758.907 274.352 758.924 274.43 758.957 274.503C758.99 274.576 759.038 274.641 759.097 274.694C763.391 278.476 767.421 282.583 771.187 287.013C775.954 292.624 771.238 299.602 765.027 300.547C757.896 301.634 750.663 291.167 746.65 286.528C746.283 286.11 745.926 286.119 745.576 286.553Z" fill="#001416"/>
<path d="M287.67 282.067C288.011 282.408 288.356 282.412 288.705 282.08C293.357 277.556 300.373 268.879 305.715 266.655C314.623 262.949 323.441 274.169 316.489 281.812C312.766 285.893 306.827 292.002 298.674 300.138C293.421 305.365 288.13 309.595 281.267 303.078C270.745 293.067 263.908 286.183 260.756 282.425C256.044 276.819 256.606 271.601 262.442 266.77C270.277 260.278 282.775 277.083 287.67 282.067Z" fill="#001416"/>
<path d="M729.55 363.82C725.646 363.54 722.017 361.657 719.461 358.586C716.906 355.514 715.634 351.506 715.926 347.442C716.217 343.379 718.048 339.593 721.015 336.917C723.982 334.242 727.842 332.896 731.747 333.175C735.652 333.455 739.281 335.338 741.836 338.41C744.391 341.481 745.663 345.489 745.372 349.553C745.08 353.617 743.25 357.403 740.283 360.078C737.316 362.754 733.455 364.1 729.55 363.82Z" fill="#001416"/>
<path d="M315.506 348.28C315.506 352.209 313.945 355.976 311.167 358.754C308.39 361.532 304.622 363.092 300.694 363.092C298.749 363.092 296.823 362.709 295.026 361.965C293.228 361.22 291.596 360.129 290.22 358.754C288.845 357.378 287.754 355.746 287.009 353.949C286.265 352.151 285.882 350.225 285.882 348.28C285.882 344.352 287.442 340.584 290.22 337.807C292.998 335.029 296.765 333.468 300.694 333.468C304.622 333.468 308.39 335.029 311.167 337.807C313.945 340.584 315.506 344.352 315.506 348.28Z" fill="#001416"/>
<path d="M242.11 400.134C240.196 400.074 238.313 399.626 236.569 398.815C234.824 398.005 233.252 396.848 231.943 395.41C230.633 393.973 229.612 392.283 228.936 390.437C228.261 388.592 227.946 386.627 228.008 384.654C228.07 382.681 228.508 380.74 229.298 378.94C230.087 377.141 231.213 375.518 232.61 374.166C234.008 372.814 235.649 371.758 237.441 371.058C239.233 370.359 241.14 370.03 243.054 370.09C244.968 370.15 246.852 370.598 248.596 371.409C250.341 372.219 251.913 373.376 253.222 374.814C254.532 376.251 255.553 377.941 256.228 379.787C256.904 381.632 257.219 383.597 257.157 385.57C257.095 387.543 256.657 389.484 255.867 391.284C255.077 393.083 253.952 394.706 252.554 396.058C251.157 397.41 249.516 398.466 247.724 399.166C245.932 399.865 244.024 400.194 242.11 400.134Z" fill="#001416"/>
<path d="M780.253 407.671C776.469 407.227 773.02 405.268 770.665 402.226C768.31 399.184 767.242 395.307 767.695 391.449C768.148 387.592 770.086 384.069 773.082 381.655C776.078 379.241 779.886 378.135 783.67 378.58C787.454 379.024 790.902 380.983 793.258 384.025C795.613 387.067 796.681 390.944 796.228 394.801C795.775 398.659 793.837 402.182 790.841 404.596C787.845 407.009 784.036 408.116 780.253 407.671Z" fill="#001416"/>
<path d="M768.453 750.019C769.386 750.095 770.114 750.376 770.459 751.335C772.133 756.025 774.114 761.342 774.268 766.147C774.919 787.489 755.443 797.969 736.209 798.148C711.484 798.369 686.759 798.433 662.034 798.34C661.974 798.34 660.517 798.382 657.663 798.467C651.452 798.646 646.775 797.002 643.631 793.534C657.369 788.512 671.645 784.064 683.594 776.55C699.735 776.23 720.387 777.623 733.627 774.646C748.12 771.399 759.728 763.19 768.453 750.019Z" fill="#B9D2E2"/>
<path d="M262.085 750.964C273.443 767.476 288.766 775.723 308.055 775.706C326.1 775.681 339.609 775.923 348.58 776.435C362.229 783.361 372.338 788.409 385.731 793.061C379.15 798.915 372.811 798.633 363.673 798.569C341.206 798.425 318.735 798.386 296.259 798.454C285.588 798.48 275.364 796.729 266.558 789.726C254.852 780.422 250.315 764.843 259.67 751.68C259.761 751.543 259.896 751.441 260.053 751.388C260.21 751.335 260.38 751.334 260.539 751.386C261.331 751.641 261.847 751.501 262.085 750.964Z" fill="#B9D2E2"/>
<path d="M683.593 776.55C671.644 784.064 657.369 788.512 643.63 793.534C624.009 799.464 603.318 803.907 581.558 806.864C576.02 807.613 563.568 808.866 544.202 810.621C499.383 814.685 452.583 809.407 408.812 799.515C401.169 797.777 393.399 795.362 385.731 793.061C372.338 788.409 362.229 783.361 348.58 776.435L683.593 776.55Z" fill="#32728A"/>
<path d="M591.184 324.472C583.49 318.9 576.282 313.647 569.202 306.848C556.806 294.938 545.559 285.148 531.297 271.959C517.827 259.499 505.52 268.1 495.053 278.745C491.832 282.017 488.433 284.075 485.021 287.96C479.129 294.644 472.036 300.625 465.672 306.9C461.386 311.117 458.379 313.754 456.649 314.81C455.422 315.552 454.442 316.331 453.71 317.149C451.345 319.743 449.595 320.957 447.141 322.862C446.246 323.56 445.36 323.914 444.483 323.922C442.932 323.939 442.016 323.416 441.735 322.351" stroke="#FEB560" stroke-width="2"/>
<path d="M663.377 357.533C659.62 360.737 657.745 363.378 657.754 365.457C658.026 408.483 657.996 451.509 657.664 494.534C657.639 498.867 657.166 501.985 653.958 505.257C649.792 509.5 645.464 513.564 640.974 517.449C634.158 523.362 629.706 527.281 627.619 529.206C607.784 547.622 587.605 565.565 567.131 583.266C564.447 585.583 561.947 587.53 559.629 589.106C558.031 590.189 556.146 590.763 554.223 590.755C529.933 590.678 505.365 590.716 480.521 590.87C476.802 590.895 472.713 590.256 468.738 590.218C466.182 590.192 465.045 588.173 463.409 586.742C448.328 573.561 438.092 564.556 432.699 559.725C430.509 557.765 429.359 555.895 429.248 554.115" stroke="#DCE9F1" stroke-width="2"/>
<path d="M429.249 554.115C432.789 552.159 437.006 549.399 437.543 545.335C438.757 536.018 429.888 530.28 421.504 531.89C418.335 532.495 415.48 534.301 412.941 537.309" stroke="#808A8B" stroke-width="2"/>
<path d="M412.94 537.309C410.18 536.534 408.259 535.669 407.177 534.715C400.284 528.657 393.421 522.561 386.588 516.427C382 512.299 375.585 505.129 368.977 500.401C368.794 500.268 368.656 500.08 368.581 499.864C368.027 498.262 366.911 497.491 365.233 497.551C364.687 497.568 364.406 497.299 364.389 496.745L364.3 494.253" stroke="#DCE9F1" stroke-width="2"/>
<path d="M412.941 537.309C410.104 549.135 415.539 554.737 429.248 554.115" stroke="#5D737C" stroke-width="2"/>
<path d="M334.127 430.021L307.992 453.971" stroke="#FF9401" stroke-width="2"/>
<path d="M724.389 454.737C722.072 453.459 720.21 452.186 718.804 450.916C713.965 446.563 706.863 439.989 697.5 431.197" stroke="#FF9401" stroke-width="2"/>
<path d="M434.437 623.05C396.873 587.121 358.878 551.776 320.453 517.014C320.306 516.879 320.124 516.788 319.927 516.754C319.73 516.72 319.527 516.744 319.344 516.822C319.16 516.9 319.003 517.03 318.891 517.196C318.78 517.362 318.718 517.556 318.715 517.756C317.999 545.68 319.418 573.604 318.983 601.567C318.498 631.497 318.753 661.415 318.229 691.346C318.135 696.483 315.737 700.066 311.034 702.094C310.511 702.314 309.922 702.319 309.398 702.107C306.574 700.982 303.507 699.269 300.721 698.784C293.044 697.463 286.586 700.441 281.346 707.717" stroke="#FFDC80" stroke-width="2"/>
<path d="M749.45 480.719L722.919 505.934" stroke="#FFB880" stroke-width="2"/>
<path d="M722.919 505.934L598.084 623.548" stroke="#FFDC80" stroke-width="2"/>
<path d="M704.542 702.285C705.462 701.135 707.213 700.424 709.795 700.151C715.111 699.589 718.834 697.212 720.964 693.02C722.14 690.702 722.736 686.732 722.753 681.109C722.881 644.797 722.813 608.485 722.549 572.173C722.396 550.089 722.779 528.146 722.92 505.934" stroke="#FF9401" stroke-width="2"/>
<path d="M704.451 735.705C701.921 736.463 698.96 736.706 695.569 736.434" stroke="#FFB880" stroke-width="2"/>
<path d="M695.569 736.433L575.233 647.97C573.683 646.829 572.192 646.905 570.76 648.2L517.902 696.112C517.429 696.538 516.816 696.774 516.18 696.774C515.545 696.774 514.934 696.538 514.465 696.112L461.057 647.485C460.657 647.127 460.205 647.05 459.703 647.255C458.254 647.851 456.908 648.605 455.664 649.517C415.987 678.834 376.028 707.772 335.788 736.331C334.416 737.302 332.964 737.677 331.43 737.456" stroke="#FFDC80" stroke-width="2"/>
<path d="M331.431 737.456C329.122 737.686 327.056 737.503 325.232 736.906" stroke="#FFB880" stroke-width="2"/>
<path d="M695.569 736.434C688.907 737.303 683.71 737.669 679.978 737.533C667.309 737.098 654.635 736.894 641.958 736.919C557.934 737.115 473.905 737.102 389.873 736.881C374.217 736.843 356.849 737.724 342.587 738.044C339.392 738.12 335.673 737.925 331.43 737.456" stroke="#FF9401" stroke-width="2"/>
<path d="M591.182 324.472C583.489 318.899 576.281 313.647 569.201 306.848C556.804 294.937 545.558 285.148 531.295 271.959C517.825 259.498 505.518 268.099 495.051 278.745C491.831 282.017 488.431 284.074 485.019 287.959C479.128 294.643 472.035 300.624 465.67 306.899C461.385 311.116 458.377 313.753 456.648 314.81C455.421 315.551 454.441 316.331 453.708 317.149C451.344 319.743 449.593 320.957 447.139 322.861C446.245 323.56 445.359 323.913 444.481 323.922C442.93 323.939 442.015 323.415 441.733 322.35C462.859 301.468 483.383 280.649 498.936 266.834C502.847 263.371 510.95 259.984 516.356 260.009C524.956 260.061 532.561 265.415 538.695 271.269C546.039 278.298 553.388 285.322 560.74 292.343C569.661 300.867 581.636 313.161 592.562 323.219C592.695 323.336 592.771 323.513 592.778 323.717C592.785 323.92 592.722 324.138 592.601 324.331C592.464 324.552 591.992 324.599 591.182 324.472Z" fill="#FDFABE"/>
<path d="M591.182 324.472C589.572 325 588.392 325.264 587.642 325.264C544.778 325.2 501.838 324.894 458.974 325.558C453.47 325.635 447.966 325.546 442.462 325.29C442.258 325.28 442.06 325.225 441.879 325.131C441.699 325.036 441.541 324.903 441.417 324.741C441.293 324.58 441.206 324.393 441.161 324.194C441.117 323.996 441.116 323.789 441.158 323.59C441.235 323.224 441.427 322.811 441.734 322.351C442.015 323.416 442.931 323.939 444.481 323.922C445.359 323.914 446.245 323.56 447.139 322.862C449.593 320.957 451.344 319.743 453.708 317.149C454.441 316.331 455.421 315.552 456.648 314.81C458.377 313.754 461.385 311.117 465.67 306.9C472.035 300.625 479.128 294.644 485.019 287.96C488.431 284.075 491.831 282.017 495.051 278.745C505.518 268.1 517.825 259.499 531.295 271.959C545.558 285.148 556.804 294.938 569.201 306.848C576.281 313.647 583.489 318.9 591.182 324.472Z" fill="#FF7001"/>
<path d="M663.376 357.534C659.619 360.737 657.745 363.378 657.753 365.457C658.026 408.483 657.996 451.509 657.664 494.535C657.638 498.867 657.165 501.986 653.958 505.257C649.791 509.5 645.463 513.564 640.973 517.449C634.157 523.362 629.706 527.281 627.618 529.207C607.784 547.623 587.604 565.566 567.131 583.266C564.447 585.583 561.946 587.53 559.629 589.106C558.03 590.189 556.146 590.764 554.223 590.755C529.932 590.678 505.365 590.717 480.521 590.87C476.802 590.896 472.712 590.257 468.738 590.218C466.182 590.193 465.044 588.174 463.408 586.742C448.328 573.562 438.091 564.556 432.698 559.725C430.509 557.766 429.358 555.896 429.248 554.115C432.788 552.16 437.005 549.399 437.542 545.335C438.756 536.019 429.887 530.28 421.503 531.891C418.334 532.495 415.479 534.302 412.94 537.309C410.18 536.534 408.259 535.669 407.177 534.715C400.284 528.657 393.421 522.561 386.588 516.427C382 512.299 375.585 505.129 368.977 500.401C368.794 500.268 368.656 500.081 368.581 499.864C368.027 498.262 366.911 497.491 365.233 497.551C364.687 497.568 364.406 497.299 364.389 496.746L364.3 494.254C364.419 453 364.411 411.738 364.274 370.467C364.257 365.696 364.854 362.266 366.064 360.179C368.287 356.345 372.07 354.428 377.412 354.428C470.178 354.351 562.939 354.351 655.696 354.428C658.49 354.428 661.05 355.463 663.376 357.534Z" fill="white"/>
<path d="M663.376 357.533C666.085 359.467 667.444 362.266 667.453 365.93C667.512 411.563 667.525 457.2 667.491 502.841C667.491 504.222 666.827 505.563 665.497 506.867C620.751 550.549 588.903 580.799 569.954 597.617C551.969 613.592 534.171 629.806 516.56 646.258C516.361 646.445 516.098 646.549 515.825 646.549C515.552 646.549 515.289 646.445 515.09 646.258C499.741 631.919 484.993 617.644 468.916 603.19C454.999 590.665 441.171 577.221 427.829 565.029C408.569 547.431 389.872 529.194 370.728 511.455C369.671 510.467 367.631 508.243 364.606 504.784C364.351 504.496 364.21 504.119 364.21 503.723L364.299 494.253L364.389 496.745C364.406 497.299 364.687 497.567 365.232 497.55C366.911 497.491 368.027 498.262 368.581 499.864C368.656 500.08 368.794 500.267 368.977 500.4C375.584 505.129 382 512.299 386.588 516.426C393.421 522.561 400.284 528.657 407.176 534.715C408.258 535.669 410.179 536.534 412.94 537.309C410.103 549.135 415.539 554.736 429.247 554.115C429.358 555.895 430.508 557.765 432.698 559.725C438.091 564.556 448.328 573.561 463.408 586.742C465.044 588.173 466.181 590.192 468.737 590.218C472.712 590.256 476.801 590.895 480.52 590.87C505.365 590.716 529.932 590.678 554.222 590.755C556.146 590.763 558.03 590.189 559.628 589.106C561.946 587.53 564.446 585.583 567.13 583.266C587.604 565.565 607.783 547.622 627.618 529.206C629.705 527.281 634.157 523.362 640.973 517.449C645.463 513.564 649.791 509.5 653.957 505.257C657.165 501.985 657.638 498.867 657.663 494.534C657.996 451.509 658.025 408.483 657.753 365.457C657.744 363.378 659.619 360.737 663.376 357.533Z" fill="#B9D2E2"/>
<path d="M334.127 430.021L307.992 453.971L305.704 452.054C305.536 451.914 305.398 451.74 305.301 451.544C305.203 451.347 305.148 451.133 305.138 450.914C305.129 450.695 305.165 450.476 305.245 450.272C305.325 450.068 305.446 449.882 305.602 449.728C313.321 442.086 321.253 434.626 329.398 427.35C330.438 426.43 331.635 425.527 332.99 424.641C333.074 424.584 333.172 424.551 333.273 424.545C333.375 424.538 333.476 424.559 333.567 424.604C333.658 424.65 333.735 424.718 333.791 424.803C333.847 424.888 333.879 424.987 333.884 425.088L334.127 430.021Z" fill="#FFB800"/>
<path d="M724.387 454.737C722.07 453.459 720.208 452.186 718.803 450.916C713.963 446.563 706.862 439.989 697.498 431.197L697.256 425.804C697.248 425.589 697.305 425.377 697.418 425.194C697.531 425.011 697.696 424.866 697.892 424.778C698.087 424.689 698.305 424.66 698.517 424.694C698.729 424.729 698.926 424.826 699.083 424.973L726.56 451.261C726.662 451.359 726.743 451.477 726.798 451.608C726.853 451.739 726.879 451.881 726.877 452.023C726.875 452.166 726.843 452.307 726.784 452.437C726.725 452.568 726.64 452.685 726.534 452.782L724.387 454.737Z" fill="#FFB800"/>
<path d="M334.127 430.021L334.089 475.991C334.08 477.925 333.377 478.223 331.98 476.885L307.992 453.971L334.127 430.021Z" fill="#FF7001"/>
<path d="M697.499 431.197C706.862 439.989 713.964 446.563 718.803 450.916C720.209 452.186 722.071 453.459 724.388 454.737L698.662 478.61C698.577 478.69 698.47 478.742 698.355 478.762C698.241 478.782 698.123 478.768 698.016 478.722C697.909 478.676 697.817 478.6 697.753 478.503C697.688 478.406 697.653 478.292 697.652 478.176L697.499 431.197Z" fill="#FF7001"/>
<path d="M434.436 623.05C396.872 587.121 358.877 551.776 320.452 517.014C320.305 516.879 320.123 516.788 319.926 516.754C319.729 516.72 319.527 516.744 319.343 516.822C319.159 516.9 319.002 517.03 318.89 517.196C318.779 517.361 318.718 517.556 318.714 517.756C317.998 545.68 319.417 573.604 318.982 601.567C318.497 631.497 318.752 661.415 318.228 691.346C318.135 696.483 315.736 700.066 311.033 702.094C310.51 702.314 309.922 702.319 309.397 702.106C306.573 700.982 303.506 699.269 300.72 698.784C293.043 697.463 286.585 700.441 281.345 707.717C281.669 631.344 281.614 555.278 281.179 479.518C281.171 477.771 282.257 476.076 284.438 474.432C284.753 474.201 285.064 474.21 285.371 474.457C286.163 475.105 287.177 475.999 288.413 477.141C305.555 493.005 322.723 508.839 339.916 524.644C366.609 549.181 393.221 573.808 419.752 598.525C426.441 604.753 433.095 611.156 439.715 617.733C440.217 618.227 440.187 618.687 439.625 619.113L434.436 623.05Z" fill="white"/>
<path d="M749.45 480.719L722.918 505.934L598.084 623.548L592.116 619.177C592.045 619.125 591.987 619.058 591.945 618.98C591.904 618.903 591.88 618.817 591.875 618.729C591.87 618.641 591.884 618.554 591.917 618.472C591.95 618.391 592 618.317 592.064 618.257L745.219 474.866C745.381 474.712 745.589 474.616 745.811 474.593C746.033 474.57 746.256 474.621 746.446 474.738C748.235 475.812 749.237 477.806 749.45 480.719Z" fill="white"/>
<path d="M749.449 480.719C749.108 559.265 749.121 637.781 749.487 716.267C749.513 722.171 747.6 726.657 743.749 729.724C742.394 730.797 741.04 730.806 739.685 729.749L704.54 702.285C705.46 701.135 707.211 700.424 709.793 700.151C715.109 699.589 718.832 697.212 720.962 693.02C722.138 690.702 722.734 686.732 722.751 681.109C722.879 644.797 722.811 608.485 722.547 572.173C722.394 550.089 722.777 528.146 722.918 505.934L749.449 480.719Z" fill="#FF7001"/>
<path d="M722.918 505.934C722.778 528.146 722.394 550.089 722.548 572.173C722.812 608.485 722.88 644.797 722.752 681.109C722.735 686.732 722.139 690.702 720.963 693.02C718.833 697.212 715.11 699.589 709.793 700.151C707.212 700.424 705.461 701.135 704.541 702.285L598.083 623.548L722.918 505.934Z" fill="#FFB800"/>
<path d="M434.437 623.05C421.708 632.464 409.367 641.559 397.414 650.335C391.202 654.885 385.042 659.958 378.998 664.227C361.455 676.632 344.228 689.459 327.315 702.707C315.238 712.177 302.267 721.366 289.934 731.002C289.61 731.258 289.282 731.266 288.95 731.028C285.338 728.48 283.093 725.596 282.215 722.376C281.082 718.209 280.792 713.323 281.346 707.717C286.586 700.441 293.044 697.463 300.72 698.784C303.506 699.269 306.574 700.982 309.398 702.107C309.922 702.319 310.51 702.314 311.034 702.094C315.737 700.066 318.135 696.483 318.229 691.346C318.753 661.415 318.497 631.497 318.983 601.567C319.417 573.604 317.999 545.68 318.715 517.756C318.718 517.556 318.779 517.362 318.891 517.196C319.003 517.03 319.16 516.9 319.343 516.822C319.527 516.744 319.73 516.72 319.926 516.754C320.123 516.788 320.306 516.879 320.453 517.014C358.878 551.776 396.872 587.121 434.437 623.05Z" fill="#FFB800"/>
<path d="M429.248 554.115C415.539 554.737 410.104 549.135 412.941 537.309C415.48 534.302 418.334 532.495 421.503 531.89C429.887 530.28 438.756 536.018 437.542 545.335C437.005 549.399 432.788 552.159 429.248 554.115Z" fill="#001416"/>
<path d="M704.451 735.705C701.921 736.463 698.96 736.706 695.569 736.434L575.233 647.971C573.682 646.829 572.191 646.906 570.76 648.201L517.902 696.113C517.429 696.539 516.815 696.775 516.18 696.775C515.545 696.775 514.933 696.539 514.464 696.113L461.057 647.485C460.656 647.127 460.205 647.05 459.702 647.255C458.254 647.851 456.908 648.605 455.664 649.517C415.986 678.834 376.028 707.772 335.788 736.331C334.416 737.303 332.963 737.677 331.43 737.456C329.121 737.686 327.055 737.503 325.231 736.906L460.776 638.194C460.924 638.087 461.103 638.03 461.287 638.033C461.47 638.035 461.65 638.096 461.798 638.207C468.584 643.344 476.329 650.999 480.712 654.897C492.589 665.437 504.232 676.18 515.64 687.128C515.747 687.233 515.89 687.292 516.04 687.294C516.19 687.297 516.335 687.242 516.445 687.141C532.829 671.967 549.362 656.908 566.044 641.964C567.586 640.584 569.167 639.408 570.786 638.437C570.997 638.31 571.239 638.246 571.486 638.25C571.732 638.255 571.972 638.328 572.179 638.462C591.617 650.846 609.816 665.76 628.525 679.256C653.906 697.54 679.215 716.356 704.451 735.705Z" fill="white"/>
<path d="M695.569 736.434C688.907 737.303 683.71 737.669 679.978 737.533C667.309 737.098 654.635 736.894 641.958 736.919C557.934 737.115 473.905 737.102 389.873 736.881C374.217 736.843 356.849 737.724 342.587 738.044C339.392 738.121 335.673 737.925 331.43 737.456C332.964 737.678 334.416 737.303 335.788 736.331C376.028 707.772 415.987 678.834 455.664 649.517C456.908 648.606 458.254 647.851 459.703 647.255C460.205 647.051 460.657 647.127 461.057 647.485L514.465 696.113C514.934 696.539 515.545 696.775 516.18 696.775C516.816 696.775 517.429 696.539 517.902 696.113L570.76 648.201C572.192 646.906 573.683 646.829 575.233 647.971L695.569 736.434Z" fill="#FFB800"/>
<path d="M704.452 735.705C709.129 737.277 714.573 743.232 718.65 746.325C718.966 746.555 719.132 746.738 719.149 746.875C719.225 747.429 718.948 747.705 718.318 747.705L310.97 747.68C310.501 747.68 310.458 747.539 310.842 747.258L325.232 736.906C327.055 737.503 329.121 737.686 331.43 737.456C335.673 737.925 339.392 738.12 342.587 738.044C356.85 737.724 374.218 736.842 389.873 736.881C473.906 737.102 557.934 737.115 641.958 736.919C654.635 736.894 667.309 737.098 679.978 737.533C683.71 737.669 688.907 737.303 695.57 736.434C698.961 736.706 701.921 736.463 704.452 735.705Z" fill="#FF7001"/>
<path d="M465.818 378.359C467.469 380.872 468.02 383.96 467.35 386.943C466.68 389.927 464.844 392.561 462.247 394.268C460.96 395.113 459.526 395.704 458.024 396.009C456.523 396.313 454.985 396.325 453.498 396.042C452.01 395.76 450.602 395.189 449.355 394.363C448.108 393.537 447.045 392.471 446.228 391.227C444.577 388.714 444.026 385.627 444.696 382.643C445.366 379.66 447.202 377.025 449.799 375.319C451.086 374.474 452.52 373.882 454.022 373.577C455.523 373.273 457.061 373.262 458.548 373.544C460.036 373.826 461.443 374.397 462.691 375.223C463.938 376.049 465.001 377.115 465.818 378.359Z" fill="#43DAF4"/>
<path d="M432.728 387.755C432.365 389.19 431.714 390.537 430.813 391.72C429.912 392.903 428.779 393.898 427.478 394.648C426.176 395.398 424.732 395.889 423.229 396.093C421.725 396.297 420.19 396.21 418.713 395.836C417.236 395.462 415.844 394.809 414.618 393.915C413.392 393.02 412.356 391.901 411.568 390.622C410.78 389.343 410.256 387.929 410.027 386.46C409.797 384.991 409.865 383.497 410.228 382.062C410.592 380.627 411.242 379.279 412.143 378.096C413.044 376.914 414.177 375.919 415.479 375.168C416.78 374.418 418.224 373.927 419.728 373.723C421.231 373.519 422.766 373.607 424.243 373.981C425.72 374.354 427.112 375.007 428.338 375.902C429.564 376.796 430.6 377.915 431.388 379.194C432.176 380.473 432.7 381.887 432.93 383.356C433.159 384.825 433.091 386.32 432.728 387.755Z" fill="#43DAF4"/>
<path d="M536.447 425.804C536.447 428.692 535.3 431.461 533.258 433.503C531.216 435.545 528.447 436.693 525.559 436.693C522.671 436.693 519.902 435.545 517.86 433.503C515.818 431.461 514.67 428.692 514.67 425.804C514.67 422.916 515.818 420.147 517.86 418.105C519.902 416.063 522.671 414.916 525.559 414.916C528.447 414.916 531.216 416.063 533.258 418.105C535.3 420.147 536.447 422.916 536.447 425.804Z" fill="#FFB800"/>
<path d="M500.535 426.076C500.53 428.75 499.464 431.313 497.569 433.201C495.675 435.089 493.109 436.147 490.434 436.142L418.355 436.016C417.031 436.014 415.72 435.751 414.498 435.242C413.275 434.733 412.165 433.988 411.23 433.05C410.296 432.112 409.555 431 409.05 429.775C408.546 428.551 408.287 427.239 408.29 425.915L408.29 425.43C408.295 422.755 409.362 420.192 411.256 418.305C413.15 416.417 415.717 415.359 418.391 415.364L490.47 415.49C491.794 415.492 493.105 415.755 494.328 416.264C495.55 416.773 496.66 417.517 497.595 418.455C498.53 419.393 499.271 420.506 499.775 421.731C500.28 422.955 500.538 424.266 500.536 425.591L500.535 426.076Z" fill="#001416"/>
<path d="M628.334 426.06C628.334 428.697 627.287 431.226 625.422 433.09C623.557 434.955 621.029 436.002 618.392 436.002H558.096C555.459 436.002 552.93 434.955 551.065 433.09C549.2 431.226 548.153 428.697 548.153 426.06V425.497C548.153 422.86 549.2 420.331 551.065 418.467C552.93 416.602 555.459 415.554 558.096 415.554H618.392C621.029 415.554 623.557 416.602 625.422 418.467C627.287 420.331 628.334 422.86 628.334 425.497V426.06Z" fill="#001416"/>
<path d="M501.225 464.744C501.225 467.419 500.163 469.983 498.272 471.874C496.381 473.765 493.816 474.828 491.142 474.828H418.347C415.673 474.828 413.108 473.765 411.217 471.874C409.326 469.983 408.264 467.419 408.264 464.744V464.259C408.264 461.584 409.326 459.02 411.217 457.129C413.108 455.238 415.673 454.175 418.347 454.175H491.142C493.816 454.175 496.381 455.238 498.272 457.129C500.163 459.02 501.225 461.584 501.225 464.259V464.744Z" fill="#001416"/>
<path d="M628.438 464.84C628.443 467.507 627.387 470.068 625.505 471.957C623.622 473.847 621.065 474.911 618.398 474.915L557.616 475.021C556.296 475.024 554.987 474.766 553.766 474.262C552.545 473.759 551.435 473.02 550.499 472.088C549.564 471.156 548.821 470.048 548.313 468.829C547.806 467.609 547.543 466.302 547.541 464.981L547.54 464.419C547.535 461.751 548.591 459.191 550.474 457.302C552.356 455.412 554.913 454.348 557.58 454.343L618.362 454.237C619.682 454.235 620.991 454.493 622.212 454.996C623.433 455.5 624.543 456.238 625.479 457.171C626.414 458.103 627.157 459.211 627.665 460.43C628.172 461.649 628.435 462.957 628.437 464.278L628.438 464.84Z" fill="#001416"/>
<path d="M501.008 503.174C501.008 504.506 500.746 505.826 500.236 507.057C499.726 508.288 498.979 509.407 498.036 510.349C497.094 511.291 495.975 512.039 494.744 512.548C493.513 513.058 492.194 513.321 490.861 513.321H418.118C416.785 513.321 415.466 513.058 414.234 512.548C413.003 512.039 411.885 511.291 410.942 510.349C410 509.407 409.253 508.288 408.743 507.057C408.233 505.826 407.97 504.506 407.97 503.174V502.662C407.97 499.971 409.039 497.39 410.942 495.487C412.845 493.584 415.426 492.515 418.118 492.515H490.861C493.552 492.515 496.133 493.584 498.036 495.487C499.939 497.39 501.008 499.971 501.008 502.662V503.174Z" fill="#001416"/>
<path d="M628.336 503.155C628.338 504.491 628.077 505.814 627.568 507.049C627.059 508.284 626.312 509.407 625.369 510.353C624.426 511.299 623.305 512.051 622.072 512.564C620.839 513.077 619.516 513.343 618.18 513.345L557.655 513.451C556.319 513.453 554.995 513.192 553.76 512.683C552.525 512.174 551.402 511.427 550.456 510.484C549.51 509.541 548.759 508.421 548.245 507.187C547.732 505.954 547.466 504.632 547.464 503.296L547.463 502.708C547.461 501.372 547.721 500.049 548.231 498.813C548.74 497.578 549.487 496.456 550.43 495.509C551.373 494.563 552.493 493.812 553.726 493.298C554.96 492.785 556.282 492.52 557.618 492.517L618.144 492.412C619.48 492.409 620.803 492.67 622.038 493.179C623.273 493.688 624.396 494.436 625.342 495.379C626.289 496.322 627.04 497.442 627.553 498.675C628.067 499.908 628.332 501.231 628.335 502.567L628.336 503.155Z" fill="#001416"/>
<path d="M532.587 543.303C532.587 545.95 531.536 548.489 529.664 550.36C527.792 552.232 525.253 553.284 522.606 553.284H463.869C461.222 553.284 458.683 552.232 456.812 550.36C454.94 548.489 453.888 545.95 453.888 543.303V542.459C453.888 539.812 454.94 537.273 456.812 535.401C458.683 533.53 461.222 532.478 463.869 532.478H522.606C525.253 532.478 527.792 533.53 529.664 535.401C531.536 537.273 532.587 539.812 532.587 542.459V543.303Z" fill="#001416"/>
<path d="M579.311 543.512C579.331 544.749 579.106 545.978 578.651 547.128C578.196 548.278 577.518 549.327 576.658 550.215C575.797 551.103 574.77 551.813 573.634 552.305C572.499 552.796 571.278 553.059 570.042 553.078L557.008 553.283C555.771 553.302 554.543 553.078 553.392 552.623C552.242 552.167 551.193 551.49 550.305 550.629C549.417 549.768 548.707 548.741 548.216 547.606C547.724 546.471 547.462 545.25 547.442 544.013L547.413 542.148C547.393 540.911 547.618 539.682 548.073 538.532C548.528 537.382 549.206 536.333 550.067 535.445C550.927 534.557 551.955 533.847 553.09 533.355C554.225 532.864 555.446 532.601 556.682 532.582L569.716 532.377C570.953 532.358 572.182 532.582 573.332 533.037C574.482 533.493 575.531 534.17 576.419 535.031C577.307 535.892 578.017 536.919 578.509 538.054C579 539.189 579.263 540.41 579.282 541.647L579.311 543.512Z" fill="#001416"/>
<path d="M304.991 598.868C302.643 598.819 300.412 597.751 298.789 595.9C297.167 594.049 296.285 591.566 296.339 588.998C296.393 586.429 297.378 583.985 299.076 582.203C300.775 580.422 303.048 579.449 305.397 579.498C307.745 579.547 309.976 580.615 311.598 582.466C313.221 584.317 314.102 586.8 314.048 589.368C313.995 591.937 313.01 594.381 311.312 596.162C309.613 597.944 307.339 598.917 304.991 598.868Z" fill="#FFB800"/>
</svg>
