<svg width="1024" height="1024" viewBox="0 0 1024 1024" fill="none" xmlns="http://www.w3.org/2000/svg">
<rect width="1024" height="1024" fill="white"/>
<path d="M811.436 757.172C811.227 759.324 811.219 761.378 811.413 763.336C811.75 766.519 815.112 769.299 811.638 772.975C811.533 773.079 811.511 773.199 811.57 773.333C811.645 773.543 811.757 773.692 811.907 773.782C812.026 773.886 812.011 773.939 811.862 773.939H810.629C810.21 773.939 809.882 773.767 809.643 773.423C808.103 771.331 807.394 768.992 807.513 766.407C807.523 766.242 807.482 766.078 807.396 765.937C807.309 765.796 807.181 765.685 807.03 765.619C806.878 765.553 806.71 765.535 806.548 765.567C806.386 765.6 806.237 765.682 806.123 765.802L805.047 766.9C804.524 767.408 804.405 768.006 804.689 768.693C805.361 770.322 805.391 771.996 804.778 773.715C804.734 773.864 804.636 773.939 804.487 773.939H799.757C799.428 773.939 799.257 773.774 799.242 773.445L798.861 764.457C798.831 763.889 799.018 763.403 799.421 763C799.78 762.641 799.765 762.26 799.376 761.857C798.984 761.464 798.606 761.112 798.306 760.856C798.005 760.6 797.797 760.455 797.717 760.444C796.507 760.325 796.036 759.727 796.305 758.651C796.455 758.009 796.201 757.687 795.543 757.687C795.304 757.687 795.065 757.687 794.826 757.687C794.589 757.687 794.358 757.632 794.151 757.526C793.944 757.421 793.768 757.268 793.638 757.082C792.054 754.885 789.065 753.017 784.671 751.478" stroke="#010113" stroke-width="2"/>
<path d="M784.672 751.478C716.752 751.238 648.249 751.261 579.164 751.545C475.693 751.971 387.913 751.097 251.288 751.253C240.26 751.276 233.513 754.481 229.859 764.725" stroke="#808088" stroke-width="2"/>
<path d="M229.859 764.725C228.05 768.461 227.303 772.099 227.617 775.641" stroke="#627088" stroke-width="2"/>
<path d="M227.618 775.642C227.737 774.267 227.655 773.004 227.371 771.854C227.072 770.688 226.811 770.696 226.587 771.876L225.78 776.023C225.697 776.468 225.516 776.888 225.25 777.254C224.985 777.62 224.641 777.923 224.244 778.14C223.847 778.356 223.407 778.482 222.955 778.507C222.503 778.533 222.052 778.458 221.633 778.287C219.541 777.45 217.441 777.346 215.334 777.973C214.804 778.127 214.244 778.151 213.703 778.043C213.162 777.934 212.655 777.697 212.227 777.35C211.799 777.004 211.463 776.56 211.246 776.055C211.03 775.55 210.94 775.001 210.985 774.454L212.196 759.57" stroke="#010113" stroke-width="2"/>
<path d="M227.617 775.642C229.41 792.297 239.004 794.718 254.494 794.651C354.872 794.202 455.249 795.099 555.65 794.852C629.607 794.658 703.571 794.695 777.543 794.964C794.916 795.009 800.923 779.453 796.261 764.905" stroke="#61708B" stroke-width="2"/>
<path d="M784.671 751.478C790.709 756.185 794.572 760.661 796.26 764.905" stroke="#80808B" stroke-width="2"/>
<path d="M796.261 764.904C789.626 766.72 784.784 769.028 777.813 769.006C746.162 768.842 714.503 768.857 682.837 769.051C631.438 769.365 576.138 768.289 532.091 768.558C429.314 769.208 331.335 766.607 231.226 769.947C230.524 769.977 230.15 769.634 230.105 768.916L229.859 764.725" stroke="#E1EFFF" stroke-width="2"/>
<path d="M811.435 757.171C811.226 759.323 811.218 761.378 811.412 763.335C811.749 766.518 815.111 769.298 811.637 772.974C811.532 773.079 811.51 773.198 811.569 773.333C811.644 773.542 811.756 773.691 811.906 773.781C812.025 773.886 812.01 773.938 811.861 773.938H810.628C810.21 773.938 809.881 773.766 809.642 773.423C808.102 771.33 807.393 768.992 807.512 766.406C807.522 766.241 807.481 766.077 807.395 765.936C807.308 765.795 807.181 765.684 807.029 765.618C806.877 765.552 806.709 765.534 806.547 765.567C806.385 765.6 806.236 765.681 806.122 765.801L805.046 766.899C804.523 767.408 804.404 768.005 804.688 768.693C805.36 770.322 805.39 771.995 804.777 773.714C804.733 773.863 804.635 773.938 804.486 773.938H799.756C799.428 773.938 799.256 773.774 799.241 773.445L798.86 764.456C798.83 763.888 799.017 763.403 799.42 762.999C799.779 762.64 799.764 762.259 799.375 761.856C798.983 761.464 798.606 761.111 798.305 760.855C798.004 760.599 797.797 760.454 797.716 760.444C796.506 760.324 796.035 759.726 796.304 758.65C796.454 758.008 796.2 757.687 795.542 757.687C795.303 757.687 795.064 757.687 794.825 757.687C794.588 757.686 794.357 757.631 794.15 757.526C793.943 757.42 793.767 757.268 793.637 757.081C792.053 754.885 789.064 753.017 784.67 751.477C716.751 751.238 648.248 751.261 579.163 751.545C475.691 751.971 387.911 751.096 251.287 751.253C240.258 751.276 233.511 754.481 229.858 764.725C228.049 768.461 227.302 772.1 227.616 775.642C227.736 774.267 227.653 773.004 227.369 771.853C227.071 770.688 226.809 770.695 226.585 771.876L225.778 776.023C225.695 776.467 225.514 776.888 225.248 777.254C224.983 777.62 224.639 777.922 224.242 778.139C223.845 778.356 223.405 778.482 222.953 778.507C222.501 778.533 222.05 778.457 221.631 778.287C219.539 777.45 217.439 777.345 215.332 777.973C214.802 778.127 214.242 778.151 213.701 778.042C213.16 777.934 212.653 777.696 212.225 777.35C211.797 777.004 211.461 776.559 211.244 776.055C211.028 775.55 210.939 775.001 210.983 774.454L212.194 759.569C217.604 744.312 229.028 735.869 246.468 734.24C248.679 734.045 249.808 732.835 249.852 730.608C250.48 700.317 250.712 669.458 250.547 638.031C250.368 603.974 254.956 571.658 264.311 541.083C274.151 508.984 288.721 473.813 309.546 444.942C309.703 444.722 309.815 444.474 309.877 444.212C309.938 443.95 309.947 443.678 309.904 443.413C309.86 443.149 309.764 442.896 309.622 442.669C309.479 442.443 309.294 442.248 309.075 442.095L280.315 422.122C279.597 421.619 278.734 421.362 277.857 421.391C276.98 421.419 276.136 421.731 275.451 422.279C266.276 429.647 256.801 436.79 247.028 443.709C241.088 447.923 220.241 465.295 215.063 455.813C214.759 455.248 214.656 454.6 214.772 453.975C227.414 386.683 271.416 325.914 323.533 283.189C358.995 254.124 397.886 233.636 440.207 221.725C540.563 193.504 654.973 228.495 727.129 303.476C766.29 344.16 797.358 395.986 811.726 450.882C811.818 451.222 811.842 451.577 811.796 451.923C811.749 452.27 811.634 452.602 811.457 452.899C810.396 454.678 808.827 455.051 806.75 454.02C804.217 452.765 802.424 449.828 800.025 448.237C789.071 440.989 778.222 433.592 767.478 426.045C764.541 423.983 760.865 422.414 757.884 420.217C757.321 419.803 756.64 419.584 755.944 419.592C755.248 419.6 754.575 419.835 754.028 420.262L729.438 439.248C728.831 439.719 728.429 440.406 728.316 441.166C728.203 441.926 728.388 442.701 728.833 443.328C754.23 479.103 769.674 521.447 779.761 561.257C785.545 584.099 787.495 607.12 787.809 633.189C788.108 657.877 788.264 682.556 788.279 707.229C788.279 715.41 789.221 724.444 789.311 733.119C789.311 733.881 789.632 734.464 790.274 734.867C800.025 741.121 806.795 746.12 811.435 757.171Z" fill="#010110"/>
<path d="M784.67 751.478C790.707 756.185 794.57 760.661 796.259 764.905C789.624 766.72 784.782 769.029 777.811 769.007C746.16 768.842 714.501 768.857 682.835 769.052C631.436 769.365 576.136 768.289 532.089 768.558C429.313 769.208 331.333 766.608 231.224 769.948C230.522 769.978 230.148 769.634 230.104 768.917L229.857 764.725C233.511 754.481 240.258 751.276 251.286 751.253C387.911 751.097 475.691 751.971 579.162 751.545C648.247 751.261 716.75 751.238 784.67 751.478Z" fill="white"/>
<path d="M784.67 751.477C789.064 753.016 792.052 754.884 793.636 757.081C793.767 757.267 793.943 757.419 794.15 757.525C794.357 757.63 794.588 757.685 794.825 757.686C795.064 757.686 795.303 757.686 795.542 757.686C796.199 757.686 796.453 758.007 796.304 758.65C796.035 759.726 796.506 760.323 797.716 760.443C797.796 760.453 798.003 760.598 798.304 760.854C798.605 761.11 798.982 761.463 799.375 761.855C799.763 762.259 799.778 762.64 799.42 762.998C799.016 763.402 798.829 763.888 798.859 764.455L799.24 773.444C799.255 773.773 799.427 773.937 799.756 773.937H804.486C804.635 773.937 804.732 773.863 804.777 773.713C805.39 771.995 805.36 770.321 804.687 768.692C804.403 768.004 804.523 767.407 805.046 766.899L806.122 765.8C806.236 765.681 806.384 765.599 806.546 765.566C806.709 765.533 806.877 765.551 807.029 765.617C807.18 765.683 807.308 765.794 807.394 765.935C807.481 766.076 807.522 766.24 807.512 766.406C807.392 768.991 808.102 771.33 809.641 773.422C809.88 773.765 810.209 773.937 810.628 773.937H811.861C812.01 773.937 812.025 773.885 811.905 773.78C811.756 773.691 811.644 773.541 811.569 773.332C811.509 773.197 811.532 773.078 811.636 772.973C815.111 769.297 811.748 766.518 811.412 763.335C811.218 761.377 811.225 759.322 811.435 757.17C819.93 780.909 807.489 811.327 779.223 811.304C601.959 811.08 424.688 811.312 247.409 811.999C218.47 812.111 204.214 785.28 212.194 759.569L210.983 774.453C210.938 775 211.028 775.549 211.244 776.054C211.46 776.558 211.797 777.003 212.225 777.349C212.653 777.696 213.159 777.933 213.701 778.042C214.242 778.15 214.802 778.126 215.332 777.972C217.439 777.344 219.539 777.449 221.631 778.286C222.05 778.457 222.501 778.532 222.953 778.506C223.404 778.481 223.845 778.355 224.242 778.138C224.639 777.922 224.982 777.619 225.248 777.253C225.514 776.887 225.695 776.466 225.778 776.022L226.585 771.875C226.809 770.694 227.07 770.687 227.369 771.853C227.653 773.003 227.735 774.266 227.616 775.641C229.409 792.296 239.003 794.717 254.492 794.649C354.87 794.201 455.248 795.098 555.648 794.851C629.605 794.657 703.57 794.694 777.542 794.963C794.914 795.008 800.922 779.451 796.259 764.904C794.57 760.66 790.707 756.184 784.67 751.477Z" fill="#000116"/>
<path d="M229.857 764.725L230.103 768.916C230.148 769.634 230.522 769.977 231.224 769.947C331.333 766.607 429.312 769.208 532.089 768.558C576.136 768.289 631.435 769.365 682.835 769.051C714.501 768.857 746.159 768.842 777.81 769.006C784.782 769.028 789.623 766.72 796.259 764.904C800.921 779.452 794.914 795.008 777.541 794.963C703.569 794.694 629.605 794.657 555.648 794.851C455.247 795.098 354.869 794.201 254.492 794.65C239.002 794.717 229.408 792.296 227.615 775.641C227.301 772.099 228.048 768.461 229.857 764.725Z" fill="#C2DEFF"/>
<path d="M608.505 394.597C610.209 413.359 579.544 417.08 567.821 419.164" stroke="#CFE2FE" stroke-width="2"/>
<path d="M616.329 432.322C606.705 433.533 597.104 435.505 587.525 438.24C582.818 439.585 578.85 439.092 574.277 438.195C574.034 438.15 573.784 438.155 573.542 438.209C573.301 438.264 573.073 438.366 572.872 438.51C572.671 438.655 572.501 438.838 572.373 439.05C572.245 439.262 572.16 439.497 572.125 439.742L571.812 441.983" stroke="#CFE2FE" stroke-width="2"/>
<path d="M620.385 437.568C626.751 448.753 636.525 460.88 629.733 473.904C621.865 489.012 602.565 497.53 585.327 495.782C584.52 495.707 583.788 495.416 583.13 494.907C582.652 494.534 582.368 494.646 582.279 495.244C582.114 496.32 582.167 497.373 582.436 498.404" stroke="#E1EFFF" stroke-width="2"/>
<path d="M632.356 370.073C630.01 375.199 625.467 378.883 618.727 381.124" stroke="#D5E7FF" stroke-width="2"/>
<path d="M512.118 527.724C512.536 530.653 511.826 532.229 509.988 532.453C497.854 533.873 487.416 537.086 478.674 542.092C471.388 546.262 459.127 553.95 454.778 561.19C453.971 562.55 453.164 563.611 452.357 564.374" stroke="#E1EFFF" stroke-width="2"/>
<path d="M442.023 577.038C430.8 591.877 424.853 608.6 424.18 627.205" stroke="#CEF4EC" stroke-width="2"/>
<path d="M601.041 553.21C601.594 556.139 601.332 558.388 600.256 559.957C598.059 563.14 593.307 561.168 590.236 560.181" stroke="#F0F5FF" stroke-width="2"/>
<path d="M590.236 560.182C586.59 558.448 582.734 555.803 578.669 552.247C565.339 540.516 549.626 533.574 531.529 531.422C529.84 531.213 528.742 529.98 528.234 527.724" stroke="#E1EFFF" stroke-width="2"/>
<path d="M627.469 627.205C625.108 627.414 623.897 625.404 623.838 621.175C623.808 618.44 623.576 616.266 623.143 614.652C619.945 602.951 616.889 593.551 613.975 586.453C611.076 579.414 606.249 573.048 599.494 567.354" stroke="#BFEAEC" stroke-width="2"/>
<path d="M590.236 560.182C592.956 561.691 593.793 562.513 592.747 562.647" stroke="#D2E5FF" stroke-width="2"/>
<path d="M603.888 627.385C605.053 610.528 600.817 597.549 592.478 583.271" stroke="#CEF4EC" stroke-width="2"/>
<path d="M323.445 610.438C321.92 613.083 322.929 616.445 319.029 617.431C318.326 617.611 318.013 618.066 318.087 618.799C318.326 621.234 317.363 622.467 315.196 622.497C309.203 622.602 304.279 622.781 300.424 623.035C290.224 623.73 279.756 623.259 269.557 625.523" stroke="#F0F5FF" stroke-width="2"/>
<path d="M395.063 614.226C387.846 615.869 381.405 616.43 375.741 615.907C368.269 615.219 361.993 615.219 356.912 615.907C356.511 615.963 356.126 616.104 355.782 616.32C355.438 616.536 355.143 616.823 354.917 617.162C353.497 619.284 353.004 621.608 353.437 624.133C353.557 624.881 353.355 625.523 352.832 626.061C351.936 626.958 350.822 627.301 349.492 627.092" stroke="#D5E7FF" stroke-width="2"/>
<path d="M645.356 614.921C675.506 618.911 697.473 604.207 687.655 570.986C685.085 562.274 682.709 553.502 680.527 544.67C680.198 543.295 680.101 542.04 680.235 540.904C680.318 540.272 680.265 539.63 680.08 539.02C679.895 538.41 679.582 537.847 679.162 537.367C678.742 536.888 678.225 536.504 677.645 536.24C677.064 535.976 676.434 535.839 675.797 535.838H657.685" stroke="#CFE2FE" stroke-width="2"/>
<path d="M577.392 707.228C577.392 703.687 576.704 701.169 575.33 699.674C574.822 699.136 574.463 698.516 574.254 697.814C573.761 696.2 573.454 694.563 573.335 692.905C572.662 682.907 572.132 672.91 571.743 662.912C571.609 659.505 572.572 655.313 572.259 652.041C571.586 645.062 571.467 640.213 571.9 637.493C572.602 632.98 572.759 629.042 572.371 625.68C571.9 621.6 572.079 614.696 569.053 610.078C568.665 609.496 568.142 609.099 567.484 608.89C565.706 608.337 564.809 607.246 564.794 605.618C564.794 604.885 564.63 604.19 564.301 603.533C561.746 598.489 559.863 594.455 555.85 589.994C554.117 588.051 552.548 585.959 551.143 583.717C551.009 583.508 550.822 583.404 550.583 583.404C550.373 583.404 550.157 583.411 549.933 583.426C549.723 583.441 549.559 583.359 549.439 583.179C548.065 581.057 546.152 579.675 543.701 579.032C543.1 578.871 542.563 578.544 542.154 578.091C539.958 575.603 531.888 574.235 528.57 573.451C514.74 570.178 500.82 575.67 489.455 583.112C484.777 586.191 480.989 589.553 478.09 593.199C469.258 604.385 464.259 619.762 466.232 632.987C468.489 648.036 469.109 661.291 468.093 672.753C467.614 678.222 465.963 681.801 463.139 683.49" stroke="#FFDD72" stroke-width="2"/>
<path d="M539.823 623.147C535.355 610.415 526.494 601.613 513.238 596.741C512.961 596.641 512.666 596.603 512.373 596.629C512.08 596.656 511.796 596.746 511.543 596.894C511.291 597.042 511.074 597.243 510.91 597.484C510.746 597.725 510.637 598 510.593 598.288C509.667 603.966 511.086 609.787 514.852 615.75" stroke="#FFAC51" stroke-width="2"/>
<path d="M394.524 648.052L392.843 711.533C392.824 712.15 392.679 712.756 392.416 713.313C392.153 713.87 391.778 714.367 391.315 714.771C390.852 715.176 390.31 715.479 389.724 715.662C389.138 715.846 388.521 715.906 387.911 715.837C381.657 715.12 374.551 718.505 367.894 718.213C355.61 717.645 345.478 717.698 337.498 718.37" stroke="#E1EFFF" stroke-width="2"/>
<path d="M319.14 707.005L318.602 714.806C318.548 715.623 318.192 716.392 317.604 716.963C317.017 717.534 316.238 717.868 315.419 717.899C305.497 718.317 295.283 718.392 284.777 718.123C277.156 717.921 268.817 716.038 267.898 707.745" stroke="#E1EFFF" stroke-width="2"/>
<path d="M425.728 644.308L425.257 684.365" stroke="#D8FFFF" stroke-width="2"/>
<path d="M603.934 644.308L603.44 684.388" stroke="#CEF4EC" stroke-width="2"/>
<path d="M673.96 644.308C676.859 647.357 675.469 651.758 669.79 657.511C663.768 663.638 656.632 667.344 648.383 668.629C648.168 668.661 647.949 668.648 647.739 668.592C647.53 668.535 647.334 668.437 647.166 668.302C646.997 668.167 646.859 667.999 646.76 667.808C646.661 667.618 646.603 667.409 646.59 667.195L645.985 659.416" stroke="#CFE2FE" stroke-width="2"/>
<path d="M426.334 701.02C424.556 710.405 424.279 720.245 425.504 730.542C425.555 730.999 425.424 731.458 425.138 731.818C424.853 732.179 424.437 732.413 423.98 732.469L415.619 733.501" stroke="#D8FFFF" stroke-width="2"/>
<path d="M604.896 701.02L603.103 730.452C603.058 731.229 602.699 731.819 602.027 732.223C600.204 733.344 598.022 733.792 595.481 733.568" stroke="#CEF4EC" stroke-width="2"/>
<path d="M554.551 722.786C557.211 723.623 560.021 723.839 562.979 723.436C563.757 723.316 564.175 723.652 564.235 724.444L564.28 725.05C564.299 725.367 564.198 725.682 563.995 725.93C563.791 726.179 563.501 726.345 563.181 726.395C555.605 727.485 550.658 728.016 548.342 727.986C522.37 727.762 496.405 727.732 470.447 727.897C467.907 727.926 466.517 727.112 466.278 725.453" stroke="#FFB66D" stroke-width="2"/>
<path d="M514.157 295.78C511.274 296.574 508.171 296.108 505.531 294.485C502.891 292.862 500.929 290.215 500.078 287.126C499.657 285.596 499.521 284.004 499.678 282.44C499.835 280.876 500.282 279.372 500.994 278.012C501.705 276.652 502.667 275.464 503.825 274.516C504.982 273.567 506.313 272.876 507.74 272.483C510.623 271.689 513.726 272.155 516.366 273.778C519.007 275.401 520.968 278.048 521.819 281.137C522.24 282.667 522.376 284.259 522.219 285.823C522.062 287.387 521.615 288.891 520.904 290.251C520.192 291.611 519.23 292.799 518.073 293.747C516.915 294.696 515.585 295.387 514.157 295.78Z" fill="white"/>
<path d="M595.769 281.912C595.769 283.827 595.009 285.662 593.655 287.016C592.302 288.37 590.466 289.13 588.551 289.13C586.637 289.13 584.801 288.37 583.448 287.016C582.094 285.662 581.333 283.827 581.333 281.912C581.333 279.998 582.094 278.162 583.448 276.808C584.801 275.455 586.637 274.694 588.551 274.694C590.466 274.694 592.302 275.455 593.655 276.808C595.009 278.162 595.769 279.998 595.769 281.912Z" fill="white"/>
<path d="M440.038 288.838C439.383 290.806 437.946 292.425 436.043 293.339C434.14 294.252 431.927 294.384 429.89 293.707C428.882 293.371 427.947 292.847 427.14 292.164C426.332 291.481 425.668 290.653 425.184 289.726C424.7 288.8 424.407 287.793 424.321 286.764C424.234 285.735 424.357 284.704 424.681 283.729C425.336 281.76 426.773 280.141 428.676 279.228C430.579 278.315 432.792 278.183 434.829 278.86C435.837 279.196 436.772 279.72 437.579 280.403C438.387 281.086 439.051 281.914 439.535 282.841C440.019 283.767 440.312 284.774 440.398 285.803C440.485 286.832 440.362 287.863 440.038 288.838Z" fill="white"/>
<path d="M687.994 346.062C686.485 345.39 685.131 344.412 684.009 343.182C682.886 341.952 682.017 340.495 681.452 338.894C680.886 337.294 680.635 335.581 680.712 333.853C680.79 332.125 681.195 330.416 681.904 328.824C682.612 327.232 683.611 325.788 684.844 324.574C686.076 323.361 687.517 322.401 689.085 321.75C690.653 321.099 692.317 320.77 693.982 320.782C695.647 320.793 697.28 321.144 698.789 321.816C700.298 322.488 701.652 323.466 702.775 324.696C703.897 325.926 704.766 327.383 705.332 328.984C705.897 330.584 706.148 332.297 706.071 334.025C705.993 335.753 705.589 337.462 704.88 339.054C704.171 340.646 703.172 342.09 701.94 343.304C700.708 344.518 699.266 345.477 697.698 346.128C696.13 346.779 694.466 347.108 692.801 347.097C691.136 347.085 689.503 346.734 687.994 346.062Z" fill="#FAFCFF"/>
<path d="M339.849 344.183C339.849 347.536 338.517 350.751 336.146 353.122C333.775 355.493 330.559 356.825 327.206 356.825C323.853 356.825 320.638 355.493 318.267 353.122C315.896 350.751 314.564 347.536 314.564 344.183C314.564 340.83 315.896 337.614 318.267 335.243C320.638 332.872 323.853 331.54 327.206 331.54C330.559 331.54 333.775 332.872 336.146 335.243C338.517 337.614 339.849 340.83 339.849 344.183Z" fill="white"/>
<path d="M490.73 417.214C496.423 396.008 502.072 373.817 510.231 353.441C512.114 348.733 514.528 344.302 517.472 340.148C517.769 339.734 518.165 339.401 518.624 339.178C519.083 338.956 519.589 338.851 520.099 338.873C520.608 338.895 521.104 339.044 521.541 339.306C521.979 339.567 522.344 339.934 522.605 340.372C523.576 341.986 524.562 343.936 525.564 346.223C535.696 368.982 543.735 392.638 549.683 417.191C549.772 417.559 549.775 417.942 549.694 418.312C549.612 418.681 549.447 419.027 549.211 419.323C548.976 419.619 548.676 419.858 548.334 420.021C547.992 420.183 547.618 420.266 547.24 420.262L492.075 420.15C491.372 420.15 490.916 419.821 490.707 419.164C490.513 418.611 490.52 417.961 490.73 417.214Z" fill="white"/>
<path d="M608.502 394.597C610.205 413.359 579.541 417.08 567.817 419.164C566.188 419.493 565.307 419.232 565.172 418.38C560.958 392.482 552.933 367.242 541.098 342.659C540.925 342.295 540.853 341.891 540.889 341.49C540.925 341.088 541.067 340.705 541.301 340.379C541.535 340.053 541.852 339.797 542.219 339.638C542.585 339.479 542.988 339.424 543.384 339.476C568.512 342.839 593.506 376.171 608.502 394.597Z" fill="white"/>
<path d="M405.439 436.155C418.44 442.184 432.853 426.202 416.288 420.464C415.182 420.075 414.883 419.35 415.391 418.289C426.734 395.044 445.854 375.565 463.966 357.206C474.255 346.761 484.275 341.807 498.15 340.35C498.344 340.33 498.54 340.363 498.717 340.444C498.895 340.526 499.047 340.653 499.159 340.813C499.271 340.973 499.338 341.159 499.354 341.354C499.37 341.548 499.333 341.743 499.249 341.919C488.758 363.841 482.751 385.674 476.542 408.942C475.779 411.841 475.354 414.449 475.264 416.765C475.239 417.306 475.105 417.836 474.868 418.322C474.631 418.808 474.297 419.241 473.887 419.592C473.477 419.943 472.999 420.206 472.484 420.363C471.969 420.521 471.428 420.57 470.893 420.508C464.706 419.813 453.677 417.818 451.795 426.247C449.687 435.594 463.07 435.774 468.225 435.684C468.454 435.678 468.681 435.726 468.887 435.825C469.094 435.924 469.274 436.071 469.414 436.255C469.554 436.438 469.649 436.652 469.691 436.88C469.734 437.108 469.723 437.343 469.66 437.567C462.442 463.046 457.944 489.026 456.166 515.507C455.971 518.346 454.447 519.75 451.593 519.721L373.877 519.115C373.695 519.111 373.516 519.068 373.351 518.99C373.187 518.911 373.041 518.799 372.925 518.661C372.808 518.523 372.722 518.362 372.674 518.189C372.626 518.016 372.616 517.835 372.644 517.658C376.814 490.199 389.21 462.157 402.368 437.186C403.055 435.856 404.079 435.512 405.439 436.155Z" fill="white"/>
<path d="M367.353 419.254C362.87 422.818 364.103 428.22 368.586 431.179C373.002 434.071 378.763 433.398 383.605 433.578C383.991 433.591 384.368 433.705 384.697 433.907C385.027 434.11 385.299 434.394 385.486 434.732C385.673 435.071 385.77 435.452 385.766 435.839C385.763 436.226 385.659 436.605 385.465 436.94C371.089 461.777 361.316 488.347 356.145 516.65C355.832 518.324 354.823 519.109 353.119 519.004L293.448 515.261C293.277 515.249 293.11 515.198 292.962 515.112C292.813 515.026 292.686 514.907 292.591 514.764C292.495 514.621 292.434 514.458 292.412 514.288C292.39 514.117 292.407 513.944 292.462 513.781C297.947 497.941 304.948 482.855 313.466 468.524C322.32 453.64 332.99 436.133 344.377 423.401C373.226 391.167 407.164 362.99 446.346 350.438C449.873 349.317 450.292 350.027 447.602 352.567C427.629 371.419 409.607 392.624 396.628 416.631C396.214 417.406 395.571 418.034 394.785 418.431C393.999 418.828 393.109 418.975 392.235 418.85C386.496 417.999 371.993 415.6 367.353 419.254Z" fill="white"/>
<path d="M632.353 370.074C630.007 375.2 625.464 378.884 618.724 381.125L591.108 351.536C589.031 349.31 589.404 348.772 592.229 349.923C605.424 355.243 618.799 361.96 632.353 370.074Z" fill="white"/>
<path d="M632.353 370.073C651.945 381.057 669.526 395.284 685.098 412.753C685.471 413.171 685.74 413.552 685.905 413.896C685.965 414.035 685.993 414.187 685.984 414.338C685.975 414.49 685.931 414.637 685.854 414.768C685.778 414.899 685.671 415.01 685.544 415.092C685.416 415.175 685.271 415.225 685.12 415.241L646.475 419.074C646.135 419.109 645.792 419.052 645.481 418.911C645.169 418.769 644.902 418.547 644.705 418.267L618.725 381.124C625.464 378.883 630.007 375.199 632.353 370.073Z" fill="#AACFFF"/>
<path d="M608.503 394.597C615.108 401.994 620.891 410.183 625.853 419.164C625.925 419.293 625.961 419.438 625.96 419.586C625.959 419.734 625.92 419.879 625.846 420.009C625.772 420.139 625.666 420.248 625.538 420.328C625.41 420.408 625.264 420.455 625.113 420.465C617.462 420.838 614.533 424.791 616.326 432.322C606.702 433.533 597.101 435.505 587.522 438.24C582.815 439.585 578.847 439.092 574.274 438.195C574.031 438.151 573.781 438.155 573.539 438.21C573.298 438.264 573.07 438.366 572.869 438.511C572.668 438.655 572.498 438.839 572.37 439.05C572.242 439.262 572.157 439.497 572.122 439.742L571.808 441.984C570.882 440.639 570.396 439.144 570.351 437.501C570.344 437.247 570.424 436.999 570.579 436.795C570.734 436.592 570.954 436.445 571.203 436.38C575.522 435.378 578.839 432.987 581.156 429.207C581.347 428.896 581.471 428.548 581.521 428.185C581.571 427.823 581.546 427.453 581.447 427.1C579.923 421.563 572.884 419.164 567.818 419.164C579.542 417.08 610.207 413.359 608.503 394.597Z" fill="#9FC5FC"/>
<path d="M655.24 434.586L697.135 429.475C697.718 429.401 698.218 429.58 698.637 430.013C702.537 434.048 705.877 439.316 708.477 442.88C724.437 464.519 737.214 488.026 746.808 513.4C746.891 513.613 746.922 513.843 746.9 514.07C746.877 514.298 746.801 514.516 746.678 514.707C746.555 514.898 746.389 515.056 746.194 515.168C745.998 515.28 745.778 515.342 745.553 515.35L684.627 518.332C684.164 518.347 683.895 518.13 683.82 517.682C682.699 510.262 679.673 503.806 678.194 496.723C673.867 476.078 663.668 454.693 654.679 435.617C654.381 435.02 654.567 434.676 655.24 434.586Z" fill="#C2DEFF"/>
<path d="M616.325 432.322C617.864 434.967 619.216 436.716 620.382 437.568C626.748 448.753 636.521 460.88 629.729 473.904C621.862 489.012 602.562 497.53 585.324 495.781C584.517 495.707 583.785 495.415 583.127 494.907C582.649 494.534 582.365 494.646 582.275 495.243C582.111 496.319 582.163 497.373 582.432 498.404C580.011 479.351 576.47 460.544 571.807 441.983L572.121 439.742C572.156 439.497 572.24 439.262 572.369 439.05C572.497 438.838 572.667 438.655 572.868 438.51C573.069 438.366 573.297 438.264 573.538 438.209C573.78 438.155 574.029 438.15 574.273 438.195C578.846 439.092 582.813 439.585 587.521 438.24C597.1 435.505 606.701 433.533 616.325 432.322Z" fill="white"/>
<path d="M554.795 437.724C560.982 460.185 564.524 484.394 567.259 507.863C567.276 508.039 567.248 508.215 567.179 508.378C567.11 508.54 567.001 508.682 566.863 508.791C566.725 508.901 566.561 508.973 566.388 509.003C566.214 509.033 566.036 509.019 565.869 508.961C537.565 498.874 508.925 498.292 479.949 507.213C477.947 507.841 476.116 508.775 474.457 510.015C474.239 510.18 473.978 510.277 473.705 510.295C473.432 510.312 473.161 510.249 472.924 510.112C472.687 509.976 472.496 509.773 472.374 509.528C472.252 509.284 472.205 509.009 472.238 508.737C475.436 484.752 479.889 461.007 485.598 437.5C485.792 436.678 486.315 436.267 487.167 436.267L553.518 436.738C554.19 436.738 554.616 437.067 554.795 437.724Z" fill="white"/>
<path d="M582.433 498.404C582.164 497.372 582.112 496.319 582.276 495.243C582.366 494.645 582.65 494.533 583.128 494.907C583.785 495.415 584.518 495.706 585.325 495.781C602.562 497.529 621.862 489.011 629.73 473.903C636.522 460.879 626.749 448.753 620.383 437.567L635.648 435.953C636.515 435.863 637.165 436.2 637.598 436.962C651.025 460.543 660.866 489.908 667.389 515.865C667.487 516.261 667.495 516.674 667.41 517.073C667.326 517.472 667.152 517.846 666.901 518.168C666.651 518.49 666.33 518.75 665.964 518.93C665.598 519.11 665.196 519.204 664.789 519.205L588.799 519.474C587.556 519.473 586.359 519.007 585.446 518.168C584.532 517.33 583.969 516.18 583.868 514.946L582.433 498.404Z" fill="#C2DEFF"/>
<path d="M512.114 527.724C512.532 530.653 511.822 532.23 509.984 532.454C497.85 533.874 487.412 537.087 478.669 542.093C471.384 546.262 459.123 553.951 454.774 561.191C453.967 562.551 453.16 563.612 452.353 564.374C442.423 560.16 437.245 568.812 442.02 577.039C430.797 591.878 424.849 608.6 424.177 627.205L412.924 627.161C412.544 627.159 412.177 627.029 411.883 626.793C411.589 626.556 411.387 626.227 411.31 625.86C410.667 622.961 410.623 619.547 411.176 615.616C417.34 571.592 444.172 535.189 487.322 522.3C494.562 520.125 503.013 516.584 510.724 517.435C511.486 517.51 511.875 517.928 511.89 518.691L512.114 527.724Z" fill="white"/>
<path d="M601.037 553.21C601.59 556.139 601.329 558.388 600.253 559.957C598.056 563.14 593.304 561.168 590.233 560.182C586.587 558.448 582.731 555.803 578.666 552.246C565.337 540.515 549.623 533.574 531.526 531.422C529.837 531.213 528.739 529.98 528.231 527.723C527.947 524.391 528.209 521.559 529.016 519.228C529.249 518.565 529.712 518.007 530.319 517.654C530.927 517.3 531.641 517.175 532.333 517.3C561.922 522.77 580.325 529.539 601.037 553.21Z" fill="white"/>
<path d="M512.114 527.724L512.226 550.834C512.225 551.24 512.079 551.632 511.815 551.936C511.551 552.241 511.188 552.439 510.791 552.493C493.426 555.183 478.594 562.745 466.296 575.178C465.728 575.746 465.145 575.768 464.547 575.245L452.353 564.374C453.16 563.611 453.967 562.55 454.774 561.19C459.123 553.95 471.384 546.262 478.669 542.092C487.411 537.086 497.85 533.873 509.984 532.453C511.822 532.229 512.532 530.653 512.114 527.724Z" fill="#C2DEFF"/>
<path d="M528.232 527.724C528.74 529.98 529.838 531.213 531.527 531.422C549.624 533.574 565.338 540.516 578.667 552.247C582.732 555.803 586.588 558.448 590.234 560.182C592.954 561.691 593.791 562.513 592.745 562.647L577.121 575.335C576.224 576.067 575.357 576.037 574.521 575.245C561.938 563.395 547.136 555.811 530.115 552.493C529.353 552.344 528.964 551.88 528.949 551.103L528.232 527.724Z" fill="#C2DEFF"/>
<path d="M701.304 537.834C701.187 537.477 701.153 537.098 701.205 536.727C701.257 536.355 701.393 536 701.602 535.688C701.812 535.377 702.09 535.118 702.415 534.93C702.74 534.743 703.104 534.632 703.479 534.606L752.278 531.647C753.025 531.602 753.526 531.931 753.78 532.633C764.599 562.865 770.337 594.06 770.995 626.219C770.998 626.386 770.967 626.552 770.904 626.706C770.841 626.861 770.748 627.002 770.629 627.121C770.51 627.24 770.368 627.335 770.211 627.399C770.055 627.464 769.887 627.497 769.717 627.497L719.304 627.43C719.054 627.43 718.813 627.336 718.629 627.165C718.446 626.994 718.335 626.76 718.318 626.511C717.078 607.368 714.343 588.307 710.114 569.328C708.007 559.824 705.07 549.326 701.304 537.834Z" fill="#9FC5FC"/>
<path d="M323.441 610.438C321.917 613.083 322.926 616.445 319.025 617.431C318.323 617.611 318.009 618.066 318.084 618.799C318.323 621.234 317.359 622.467 315.192 622.497C309.2 622.602 304.276 622.781 300.42 623.035C290.221 623.73 279.753 623.259 269.554 625.523C268.926 624.746 268.605 624.044 268.59 623.416C268.187 592.184 273.835 562.012 285.536 532.901C285.668 532.586 285.894 532.318 286.182 532.134C286.471 531.949 286.808 531.857 287.15 531.87L337.675 534.583C337.91 534.597 338.137 534.666 338.34 534.783C338.544 534.9 338.717 535.063 338.847 535.258C338.978 535.454 339.061 535.676 339.091 535.909C339.121 536.142 339.097 536.378 339.02 536.6C330.637 560.346 325.444 584.958 323.441 610.438Z" fill="white"/>
<path d="M395.059 614.226C387.841 615.87 381.401 616.43 375.737 615.907C368.265 615.22 361.988 615.22 356.908 615.907C356.506 615.963 356.121 616.104 355.777 616.32C355.434 616.537 355.139 616.824 354.913 617.162C353.493 619.284 353 621.608 353.433 624.134C353.553 624.881 353.351 625.523 352.828 626.061C351.931 626.958 350.818 627.302 349.488 627.093L340.544 626.981C340.318 626.978 340.096 626.93 339.889 626.842C339.682 626.753 339.494 626.625 339.338 626.464C339.182 626.304 339.059 626.114 338.977 625.906C338.896 625.699 338.857 625.477 338.863 625.255C339.057 613.673 339.901 602.51 341.396 591.765C343.906 573.9 350.071 554.062 355.428 535.502C355.481 535.341 355.582 535.201 355.716 535.104C355.849 535.007 356.008 534.958 356.168 534.964L432.337 535.995C433.353 536.01 433.51 536.376 432.807 537.093C411.856 558.328 399.273 584.039 395.059 614.226Z" fill="white"/>
<path d="M645.354 614.921C675.503 618.911 697.471 604.206 687.653 570.986C685.082 562.274 682.706 553.502 680.524 544.67C680.196 543.295 680.098 542.04 680.233 540.904C680.316 540.272 680.263 539.63 680.078 539.02C679.893 538.41 679.58 537.846 679.16 537.367C678.74 536.887 678.222 536.503 677.642 536.239C677.062 535.976 676.432 535.839 675.795 535.838H657.683L683.214 535.009C684.021 534.979 684.559 535.345 684.828 536.107C694.796 565.023 700.519 594.769 701.999 625.344C702.073 626.659 701.453 627.324 700.138 627.339L647.932 627.832C647.309 627.832 646.712 627.588 646.267 627.152C645.823 626.716 645.567 626.123 645.556 625.501L645.354 614.921Z" fill="#9FC5FC"/>
<path d="M657.681 535.838H675.793C676.431 535.839 677.06 535.976 677.641 536.24C678.221 536.504 678.738 536.888 679.158 537.367C679.578 537.847 679.891 538.41 680.076 539.02C680.262 539.63 680.314 540.272 680.231 540.904C680.097 542.04 680.194 543.295 680.523 544.67C682.705 553.502 685.081 562.274 687.651 570.986C697.469 604.207 675.502 618.911 645.353 614.921C641.609 586.408 631.141 559.509 610.586 539.089C608.434 536.937 608.882 535.861 611.931 535.861L657.681 535.838Z" fill="white"/>
<path d="M601.039 553.21C617.559 570.963 630.314 602.906 627.467 627.204C625.106 627.414 623.895 625.404 623.836 621.175C623.806 618.44 623.574 616.266 623.141 614.652C619.943 602.951 616.887 593.551 613.973 586.453C611.074 579.414 606.247 573.048 599.492 567.354C597.505 565.307 595.255 563.738 592.745 562.647C593.791 562.513 592.954 561.691 590.234 560.181C593.305 561.168 598.057 563.14 600.254 559.957C601.33 558.388 601.592 556.139 601.039 553.21Z" fill="#E1EBFE"/>
<path d="M599.492 567.354C606.247 573.048 611.074 579.414 613.973 586.453C616.887 593.551 619.943 602.951 623.141 614.652C623.574 616.266 623.806 618.44 623.836 621.175C623.895 625.404 625.106 627.414 627.467 627.205L603.886 627.384C605.051 610.527 600.815 597.549 592.476 583.27C597.161 579.302 604.065 573.945 599.492 567.354Z" fill="#9CE9D9"/>
<path d="M577.39 707.229C577.39 703.687 576.702 701.169 575.327 699.675C574.819 699.137 574.461 698.517 574.251 697.814C573.758 696.2 573.452 694.564 573.332 692.905C572.66 682.908 572.129 672.91 571.741 662.913C571.606 659.506 572.57 655.314 572.256 652.041C571.584 645.062 571.464 640.213 571.898 637.493C572.6 632.98 572.757 629.043 572.368 625.68C571.898 621.601 572.077 614.697 569.051 610.079C568.662 609.496 568.139 609.1 567.482 608.891C565.703 608.338 564.807 607.247 564.792 605.618C564.792 604.886 564.628 604.191 564.299 603.533C561.743 598.49 559.86 594.455 555.848 589.994C554.115 588.052 552.545 585.96 551.141 583.718C551.006 583.509 550.819 583.404 550.58 583.404C550.371 583.404 550.154 583.412 549.93 583.427C549.721 583.441 549.557 583.359 549.437 583.18C548.062 581.058 546.149 579.676 543.699 579.033C543.098 578.872 542.561 578.545 542.152 578.092C539.955 575.603 531.886 574.236 528.568 573.451C514.737 570.179 500.817 575.671 489.452 583.113C484.775 586.191 480.987 589.553 478.088 593.2C469.256 604.385 464.257 619.762 466.23 632.988C468.486 648.036 469.106 661.291 468.09 672.753C467.612 678.223 465.961 681.802 463.136 683.491C463.405 678.38 462.509 673 462.598 668.45C462.793 657.929 462.554 647.416 461.881 636.911C461.313 628.124 461.605 621.235 462.755 616.243C471.811 577.307 519.534 553.031 553.853 578.181C563.193 585.025 569.895 593.992 573.96 605.08C576.127 610.968 577.315 619.389 577.524 630.343C577.987 654.552 578.294 678.791 578.443 703.06C578.458 703.792 578.107 705.182 577.39 707.229Z" fill="#FFE78E"/>
<path d="M577.389 707.228L552.127 706.914C552.004 706.916 551.883 706.882 551.78 706.816C551.676 706.75 551.594 706.655 551.544 706.543C551.494 706.431 551.478 706.306 551.498 706.185C551.518 706.064 551.573 705.951 551.656 705.861C563.693 692.411 561.81 672.327 543.452 664.593C542.989 664.414 542.869 664.1 543.093 663.652C548.877 652.242 547.576 642.267 542.51 630.97C541.33 628.37 540.433 625.762 539.821 623.147C535.352 610.415 526.491 601.613 513.235 596.741C512.958 596.641 512.663 596.603 512.37 596.629C512.077 596.655 511.794 596.746 511.541 596.894C511.288 597.042 511.071 597.243 510.907 597.484C510.743 597.725 510.635 598 510.59 598.288C509.664 603.966 511.084 609.787 514.849 615.749C497.836 627.025 488.87 647.109 497.567 666.566C497.955 667.418 497.686 667.806 496.76 667.732C494.048 667.53 492.008 667.216 489.632 668.763C476.541 677.371 476.496 696.334 487.816 706.376C488.369 706.885 488.272 707.124 487.525 707.094L464.84 706.533C464.108 706.518 463.727 706.152 463.697 705.435L463.136 683.49C465.961 681.801 467.612 678.222 468.09 672.753C469.106 661.291 468.486 648.036 466.23 632.987C464.257 619.762 469.256 604.385 478.088 593.199C480.987 589.553 484.775 586.191 489.452 583.112C500.817 575.67 514.737 570.178 528.568 573.451C531.885 574.235 539.955 575.603 542.152 578.091C542.561 578.544 543.098 578.871 543.699 579.032C546.149 579.675 548.062 581.057 549.437 583.179C549.557 583.359 549.721 583.441 549.93 583.426C550.154 583.411 550.371 583.404 550.58 583.404C550.819 583.404 551.006 583.508 551.141 583.717C552.545 585.959 554.114 588.051 555.848 589.994C559.86 594.455 561.743 598.489 564.299 603.533C564.627 604.19 564.792 604.885 564.792 605.618C564.807 607.246 565.703 608.337 567.482 608.89C568.139 609.099 568.662 609.496 569.051 610.078C572.077 614.696 571.898 621.6 572.368 625.68C572.757 629.042 572.6 632.98 571.898 637.493C571.464 640.213 571.584 645.062 572.256 652.041C572.57 655.313 571.606 659.505 571.741 662.912C572.129 672.91 572.66 682.907 573.332 692.905C573.452 694.563 573.758 696.2 574.251 697.814C574.46 698.516 574.819 699.136 575.327 699.674C576.702 701.169 577.389 703.687 577.389 707.228Z" fill="#FFD356"/>
<path d="M442.021 577.038L455.874 586.722C456.16 586.923 456.356 587.229 456.422 587.575C456.489 587.921 456.421 588.281 456.233 588.582C449.03 599.76 445.503 612.037 445.653 625.411C445.656 625.659 445.609 625.906 445.515 626.136C445.422 626.365 445.283 626.574 445.108 626.75C444.932 626.925 444.724 627.064 444.494 627.157C444.264 627.251 444.018 627.297 443.77 627.294L424.178 627.205C424.851 608.6 430.798 591.877 442.021 577.038Z" fill="#9CE9D9"/>
<path d="M592.474 583.271C600.813 597.549 605.05 610.528 603.884 627.385C601.149 628.177 598.31 628.237 595.366 627.564C594.649 627.4 594.26 626.951 594.2 626.219C593.02 613.965 590.076 602.152 585.368 590.78C585.164 590.295 585.129 589.757 585.267 589.253C585.405 588.748 585.71 588.307 586.131 588L592.474 583.271Z" fill="white"/>
<path d="M539.821 623.148C538.716 622.55 537.841 622.214 537.199 622.139C536.526 622.049 536.041 622.58 535.742 623.731C533.605 632.159 529.488 639.407 523.391 645.474C523.153 645.712 522.864 645.892 522.545 646C522.227 646.109 521.888 646.142 521.554 646.099C521.221 646.056 520.902 645.936 520.622 645.75C520.342 645.564 520.108 645.316 519.939 645.026C516.173 638.615 517.047 626.869 516.957 619.561C516.927 618.052 516.225 616.782 514.85 615.751C511.084 609.788 509.665 603.967 510.591 598.289C510.636 598.001 510.744 597.726 510.908 597.485C511.072 597.244 511.289 597.043 511.542 596.895C511.794 596.747 512.078 596.657 512.371 596.63C512.664 596.604 512.959 596.642 513.236 596.742C526.492 601.614 535.353 610.416 539.821 623.148Z" fill="#FF844C"/>
<path d="M323.44 610.438L322.162 625.95C322.134 626.293 321.978 626.612 321.724 626.845C321.471 627.078 321.139 627.206 320.795 627.205H271.615C270.972 627.205 270.427 626.966 269.978 626.488C269.62 626.099 269.478 625.778 269.553 625.524C279.752 623.26 290.22 623.731 300.419 623.036C304.275 622.782 309.199 622.602 315.191 622.498C317.358 622.468 318.322 621.235 318.083 618.799C318.008 618.067 318.322 617.611 319.024 617.432C322.924 616.445 321.916 613.083 323.44 610.438Z" fill="#E1EBFE"/>
<path d="M395.059 614.226L394.723 625.524C394.699 626.239 394.396 626.916 393.88 627.407C393.363 627.899 392.675 628.164 391.966 628.146L349.488 627.093C350.818 627.302 351.931 626.958 352.828 626.062C353.351 625.524 353.553 624.881 353.433 624.134C353 621.608 353.493 619.285 354.912 617.163C355.139 616.824 355.433 616.537 355.777 616.32C356.121 616.104 356.506 615.963 356.907 615.907C361.988 615.22 368.265 615.22 375.737 615.907C381.4 616.43 387.841 615.87 395.059 614.226Z" fill="#AACFFF"/>
<path d="M394.52 648.051L392.839 711.533C392.821 712.149 392.676 712.755 392.413 713.313C392.15 713.87 391.775 714.366 391.311 714.771C390.848 715.175 390.306 715.479 389.72 715.662C389.135 715.846 388.517 715.905 387.908 715.837C381.654 715.12 374.548 718.504 367.89 718.213C355.606 717.645 345.475 717.697 337.495 718.37C336.972 709.404 336.867 700.617 337.181 692.009C337.248 689.947 338.817 688.512 338.615 686.629C337.427 675.309 322.386 671.185 318.845 681.429C318.202 683.297 318.142 686.524 318.665 691.112C319.263 696.358 319.42 701.655 319.136 707.005L318.598 714.806C318.543 715.623 318.188 716.392 317.6 716.963C317.012 717.534 316.234 717.868 315.415 717.899C305.492 718.318 295.278 718.392 284.773 718.123C277.151 717.921 268.813 716.039 267.894 707.745L267.983 644.958C267.983 644.726 268.073 644.504 268.233 644.34C268.392 644.176 268.609 644.084 268.835 644.084C309.766 644.099 350.735 644.129 391.741 644.174C392.966 644.189 393.781 644.472 394.184 645.025C394.677 645.728 394.789 646.736 394.52 648.051Z" fill="white"/>
<path d="M425.724 644.308L425.254 684.365L413.665 684.41C413.324 684.413 412.987 684.348 412.671 684.22C412.356 684.092 412.069 683.902 411.827 683.663C411.586 683.423 411.394 683.138 411.263 682.824C411.132 682.509 411.064 682.172 411.064 681.832L411.02 645.765C411.02 644.764 411.52 644.271 412.521 644.285L425.724 644.308Z" fill="white"/>
<path d="M425.724 644.308L445.203 644.555C446.1 644.555 446.548 645.003 446.548 645.9L446.57 682.729C446.57 683.536 446.174 683.947 445.382 683.962L425.253 684.365L425.724 644.308Z" fill="#B0FFFE"/>
<path d="M603.93 644.308L603.437 684.388L595.39 684.41C593.731 684.425 592.894 683.603 592.879 681.944L592.565 645.339C592.565 645.078 592.669 644.827 592.854 644.642C593.039 644.457 593.29 644.353 593.552 644.353L603.93 644.308Z" fill="white"/>
<path d="M603.929 644.308L627.466 644.756C627.771 644.762 628.062 644.888 628.276 645.106C628.489 645.324 628.609 645.617 628.609 645.922L628.945 682.617C628.948 682.811 628.913 683.004 628.841 683.185C628.77 683.365 628.663 683.53 628.528 683.669C628.392 683.809 628.231 683.92 628.053 683.997C627.874 684.075 627.682 684.116 627.488 684.119L603.436 684.388L603.929 644.308Z" fill="#9CE9D9"/>
<path d="M673.955 644.308C676.854 647.357 675.464 651.758 669.786 657.511C663.763 663.638 656.628 667.344 648.379 668.629C648.163 668.661 647.944 668.648 647.734 668.592C647.525 668.535 647.329 668.437 647.161 668.302C646.992 668.167 646.854 667.999 646.755 667.808C646.656 667.618 646.598 667.409 646.585 667.195L645.98 659.416L645.89 648.253C645.884 647.763 645.976 647.276 646.159 646.821C646.342 646.366 646.613 645.951 646.956 645.601C647.3 645.251 647.71 644.972 648.162 644.781C648.613 644.59 649.098 644.49 649.589 644.487L673.955 644.308Z" fill="white"/>
<path d="M673.957 644.308L770.906 644.443C771.072 644.443 771.232 644.509 771.349 644.626C771.467 644.744 771.533 644.904 771.533 645.07L771.511 731.573C771.511 732.042 771.324 732.493 770.992 732.825C770.66 733.157 770.21 733.344 769.74 733.344L722.667 733.702C722.368 733.705 722.071 733.649 721.794 733.536C721.516 733.424 721.264 733.258 721.051 733.047C720.839 732.837 720.67 732.586 720.555 732.31C720.44 732.034 720.38 731.737 720.38 731.438L720.134 683.85C720.119 681.563 719.232 679.37 717.656 677.723C716.079 676.075 713.933 675.099 711.661 674.995L709.554 674.906C708.71 674.869 707.868 675.004 707.079 675.303C706.289 675.602 705.57 676.058 704.963 676.643C704.357 677.228 703.877 677.931 703.552 678.708C703.228 679.484 703.065 680.318 703.075 681.16L703.636 732.088C703.636 733.209 703.083 733.77 701.977 733.77L648.628 733.837C647.043 733.837 646.251 733.045 646.251 731.461L645.982 659.416L646.588 667.195C646.6 667.409 646.658 667.618 646.757 667.808C646.856 667.999 646.995 668.167 647.163 668.302C647.332 668.437 647.527 668.535 647.737 668.592C647.946 668.648 648.166 668.661 648.381 668.629C656.63 667.344 663.766 663.638 669.788 657.511C675.467 651.758 676.856 647.357 673.957 644.308Z" fill="#9FC5FC"/>
<path d="M394.522 648.052L395.239 730.026C395.269 732.537 394.021 733.8 391.496 733.815L339.289 733.949C338.899 733.949 338.523 733.797 338.243 733.525C337.963 733.253 337.799 732.883 337.787 732.492L337.496 718.37C345.476 717.698 355.608 717.645 367.892 718.213C374.549 718.505 381.655 715.12 387.909 715.837C388.519 715.906 389.136 715.846 389.722 715.662C390.308 715.479 390.85 715.176 391.313 714.771C391.776 714.367 392.151 713.87 392.414 713.313C392.677 712.756 392.822 712.15 392.841 711.533L394.522 648.052Z" fill="#C2DEFF"/>
<path d="M426.329 701.02C424.551 710.405 424.274 720.245 425.5 730.542C425.55 730.999 425.419 731.458 425.134 731.818C424.848 732.179 424.432 732.413 423.976 732.469L415.614 733.501C414.793 733.501 414.045 733.373 413.373 733.119C412.641 732.835 412.275 732.312 412.275 731.55C412.155 723.122 412.088 714.746 412.073 706.422C412.05 698.397 421.465 699.854 426.329 701.02Z" fill="white"/>
<path d="M426.329 701.02L444.979 701.267C445.696 701.282 446.055 701.64 446.055 702.343L446.369 731.259C446.372 731.601 446.306 731.941 446.177 732.257C446.047 732.574 445.856 732.862 445.614 733.104C445.372 733.346 445.084 733.538 444.767 733.667C444.45 733.797 444.111 733.862 443.768 733.859L415.614 733.501L423.975 732.469C424.432 732.413 424.848 732.179 425.133 731.818C425.419 731.458 425.55 730.999 425.5 730.542C424.274 720.245 424.551 710.405 426.329 701.02Z" fill="#B0FFFE"/>
<path d="M604.894 701.02L603.101 730.451C603.056 731.229 602.697 731.819 602.025 732.222C600.202 733.343 598.02 733.791 595.479 733.567C594.702 733.582 594.045 733.448 593.507 733.164C593.196 733.001 592.938 732.758 592.759 732.461C592.581 732.164 592.491 731.825 592.498 731.483L592.924 702.544C592.927 702.296 592.98 702.051 593.08 701.823C593.18 701.595 593.325 701.39 593.507 701.218C593.688 701.047 593.903 700.914 594.138 700.826C594.373 700.737 594.623 700.697 594.874 700.706L604.894 701.02Z" fill="white"/>
<path d="M604.894 701.02L628.475 701.244C628.683 701.244 628.883 701.327 629.03 701.474C629.177 701.621 629.26 701.821 629.26 702.029L629.148 732.066C629.148 733.022 628.669 733.501 627.713 733.501L595.479 733.568C598.019 733.792 600.201 733.344 602.024 732.223C602.697 731.819 603.056 731.229 603.1 730.452L604.894 701.02Z" fill="#9CE9D9"/>
<path d="M319.136 707.005L319.069 731.528C319.054 733.231 318.195 734.083 316.491 734.083L269.171 734.038C268.94 734.038 268.711 733.992 268.497 733.901C268.283 733.811 268.09 733.679 267.927 733.512C267.764 733.345 267.636 733.147 267.55 732.93C267.463 732.712 267.42 732.48 267.423 732.245L267.894 707.745C268.813 716.038 277.151 717.921 284.773 718.123C295.278 718.392 305.492 718.317 315.415 717.899C316.234 717.868 317.012 717.534 317.6 716.963C318.188 716.392 318.543 715.623 318.598 714.806L319.136 707.005Z" fill="#C2DEFF"/>
<path d="M554.547 722.786C557.207 723.623 560.016 723.84 562.975 723.436C563.752 723.317 564.171 723.653 564.23 724.445L564.275 725.05C564.295 725.368 564.193 725.682 563.99 725.931C563.787 726.18 563.497 726.345 563.177 726.395C555.6 727.486 550.654 728.017 548.338 727.987C522.365 727.763 496.4 727.733 470.443 727.897C467.902 727.927 466.513 727.112 466.273 725.454C466.453 723.81 467.656 722.973 469.882 722.943C498.126 722.614 526.348 722.562 554.547 722.786Z" fill="#FFE78E"/>
<path d="M554.548 722.786L573.265 722.853C573.652 722.851 574.035 722.931 574.389 723.085C574.743 723.24 575.062 723.467 575.323 723.752C575.585 724.037 575.784 724.373 575.908 724.74C576.033 725.106 576.079 725.494 576.045 725.879L575.664 730.273C575.454 732.783 574.087 734.046 571.562 734.061L468.763 734.218C468.183 734.219 467.618 734.038 467.147 733.7C466.676 733.362 466.324 732.884 466.14 732.335C465.423 730.168 465.468 727.874 466.275 725.453C466.514 727.112 467.903 727.926 470.444 727.897C496.401 727.732 522.366 727.762 548.339 727.986C550.655 728.016 555.601 727.485 563.178 726.395C563.498 726.345 563.788 726.179 563.991 725.93C564.195 725.682 564.296 725.367 564.276 725.05L564.232 724.444C564.172 723.652 563.753 723.316 562.976 723.436C560.017 723.839 557.208 723.623 554.548 722.786Z" fill="#FF844C"/>
</svg>
