<svg width="1024" height="1024" viewBox="0 0 1024 1024" fill="none" xmlns="http://www.w3.org/2000/svg">
<rect width="1024" height="1024" fill="white"/>
<path d="M790.278 520.678C789.516 522.303 788.162 525.682 786.215 530.815C779.535 548.362 757.884 555.331 740.406 552.549C740.118 552.503 739.823 552.52 739.542 552.599C739.261 552.677 738.999 552.815 738.776 553.003C738.553 553.191 738.372 553.425 738.247 553.689C738.122 553.952 738.055 554.24 738.051 554.532L737.899 568.87C737.899 568.976 737.921 569.081 737.962 569.179C738.003 569.277 738.063 569.365 738.138 569.44C738.214 569.514 738.304 569.572 738.402 569.612C738.501 569.651 738.606 569.67 738.712 569.669C745.254 569.476 752.568 569.049 758.587 570.798C770.721 574.324 779.659 582.891 786.215 593.744" stroke="#227785" stroke-width="2"/>
<path d="M761.645 710.843C760.956 711.265 760.745 711.467 761.011 711.449" stroke="#5D737C" stroke-width="2"/>
<path d="M761.011 711.449L739.305 712.151C738.943 712.162 738.598 712.312 738.342 712.57C738.086 712.829 737.938 713.177 737.927 713.542L737.294 735.359C737.248 736.849 736.633 738.265 735.575 739.316C734.517 740.366 733.096 740.971 731.606 741.006L709.197 741.46C707.911 741.488 707.282 740.863 707.31 739.587L707.806 716.256C707.809 716.13 707.788 716.005 707.742 715.889C707.697 715.772 707.629 715.665 707.541 715.575C707.454 715.485 707.349 715.414 707.234 715.365C707.119 715.316 706.994 715.291 706.869 715.291L688.95 715.305C688.574 715.309 688.215 715.46 687.951 715.726C687.688 715.992 687.542 716.351 687.545 716.724L687.835 739.808C687.837 739.991 687.802 740.174 687.733 740.344C687.664 740.514 687.562 740.669 687.432 740.8C687.303 740.931 687.149 741.034 686.979 741.105C686.809 741.176 686.627 741.212 686.444 741.212C678.712 741.231 671.192 741.309 663.883 741.447C662.001 741.483 660.403 741.217 659.09 740.648C658.638 740.453 658.253 740.128 657.983 739.714C657.714 739.3 657.572 738.815 657.575 738.32L657.864 713.322C657.866 713.167 657.837 713.013 657.779 712.87C657.721 712.726 657.635 712.595 657.527 712.485C657.418 712.375 657.288 712.287 657.145 712.228C657.002 712.168 656.849 712.137 656.694 712.137L360.531 712.372C359.953 712.372 359.663 712.656 359.663 713.225L359.622 738.21C359.622 738.939 359.334 739.639 358.821 740.158C358.308 740.676 357.611 740.971 356.881 740.978L337.034 741.143C336.837 741.145 336.642 741.108 336.46 741.033C336.277 740.958 336.112 740.847 335.973 740.707C335.835 740.567 335.725 740.401 335.652 740.218C335.579 740.035 335.543 739.839 335.547 739.642L336.029 715.925C336.031 715.788 336.006 715.652 335.955 715.525C335.905 715.398 335.83 715.283 335.735 715.186C335.64 715.088 335.527 715.011 335.403 714.958C335.278 714.905 335.145 714.878 335.01 714.878L316.829 714.933C315.929 714.943 315.479 715.392 315.479 716.283L315.355 740.207C315.353 740.448 315.3 740.687 315.201 740.906C315.101 741.126 314.958 741.323 314.779 741.484C314.6 741.644 314.39 741.766 314.162 741.84C313.934 741.914 313.693 741.94 313.455 741.915C305.448 741.125 297.359 741.075 289.187 741.763" stroke="#194350" stroke-width="2"/>
<path d="M289.185 741.763C287.744 741.323 286.247 740.12 284.695 738.155" stroke="#5D737C" stroke-width="2"/>
<path d="M284.696 738.155L285.33 715.512C285.342 715.092 285.267 714.674 285.108 714.285C284.95 713.897 284.712 713.545 284.41 713.253C284.108 712.962 283.748 712.736 283.354 712.591C282.96 712.447 282.54 712.386 282.121 712.413C276.735 712.785 266.915 713.405 262.521 710.14" stroke="#194350" stroke-width="2"/>
<path d="M262.522 710.14C261.989 709.718 261.484 709.53 261.007 709.576" stroke="#5D737C" stroke-width="2"/>
<path d="M237.633 597.05C240.278 592.381 243.06 587.243 246.531 583.497C256.135 573.085 268.297 568.393 283.015 569.421C283.229 569.436 283.444 569.408 283.645 569.338C283.847 569.268 284.032 569.158 284.189 569.014C284.345 568.871 284.47 568.697 284.555 568.504C284.639 568.311 284.683 568.103 284.682 567.892L284.778 554.546C284.777 554.337 284.733 554.13 284.648 553.939C284.563 553.748 284.439 553.576 284.285 553.436C284.131 553.296 283.949 553.19 283.752 553.125C283.554 553.06 283.346 553.037 283.139 553.059C264.913 555.005 251.002 548.582 241.407 533.79C239.488 530.833 237.33 524.608 234.934 515.114" stroke="#227785" stroke-width="2"/>
<path d="M726.908 749.022C735.751 740.501 744.06 732.053 751.837 723.679C755.29 719.961 758.348 715.884 761.01 711.449" stroke="#76A2B6" stroke-width="2"/>
<path d="M262.521 710.14C262.54 711.6 262.668 712.505 262.907 712.854C268.334 720.778 275.597 729.212 284.696 738.155" stroke="#76A2B6" stroke-width="2"/>
<path d="M289.187 741.763L296.459 748.829" stroke="#76A2B6" stroke-width="2"/>
<path d="M399.962 246.448C397.795 246.834 395.571 246.774 393.415 246.272C391.26 245.769 389.217 244.834 387.402 243.519C385.586 242.204 384.035 240.535 382.836 238.609C381.637 236.682 380.815 234.534 380.415 232.289C379.607 227.754 380.571 223.095 383.094 219.337C385.618 215.58 389.494 213.03 393.871 212.251C396.038 211.865 398.263 211.925 400.418 212.428C402.573 212.93 404.616 213.866 406.432 215.18C408.247 216.495 409.798 218.164 410.997 220.09C412.196 222.017 413.019 224.165 413.419 226.41C414.226 230.945 413.263 235.604 410.739 239.362C408.215 243.12 404.339 245.669 399.962 246.448Z" fill="#001416"/>
<path d="M661.017 246.52C658.825 246.154 656.728 245.348 654.846 244.148C652.965 242.949 651.335 241.381 650.051 239.532C648.767 237.683 647.853 235.59 647.361 233.373C646.87 231.156 646.81 228.858 647.186 226.611C647.562 224.363 648.367 222.209 649.553 220.273C650.74 218.337 652.285 216.656 654.101 215.326C655.918 213.996 657.969 213.043 660.139 212.522C662.308 212.001 664.553 211.921 666.746 212.288C668.938 212.655 671.035 213.461 672.916 214.66C674.798 215.859 676.428 217.428 677.712 219.277C678.996 221.126 679.91 223.218 680.402 225.435C680.893 227.652 680.952 229.95 680.576 232.198C680.2 234.446 679.396 236.599 678.209 238.536C677.023 240.472 675.477 242.153 673.661 243.483C671.845 244.813 669.794 245.766 667.624 246.287C665.455 246.808 663.21 246.887 661.017 246.52Z" fill="#001416"/>
<path d="M546.067 235.272C546.067 239.432 544.414 243.423 541.472 246.365C538.53 249.307 534.54 250.959 530.379 250.959C526.218 250.959 522.228 249.307 519.286 246.365C516.344 243.423 514.691 239.432 514.691 235.272C514.691 231.111 516.344 227.121 519.286 224.179C522.228 221.237 526.218 219.584 530.379 219.584C534.54 219.584 538.53 221.237 541.472 224.179C544.414 227.121 546.067 231.111 546.067 235.272Z" fill="#001416"/>
<path d="M790.277 520.678C789.515 522.303 788.161 525.682 786.214 530.815C779.534 548.362 757.883 555.331 740.405 552.549C740.116 552.503 739.822 552.521 739.54 552.599C739.259 552.677 738.998 552.815 738.775 553.003C738.551 553.191 738.371 553.425 738.246 553.689C738.121 553.953 738.054 554.24 738.05 554.532L737.898 568.87C737.898 568.976 737.919 569.081 737.96 569.179C738.001 569.277 738.061 569.365 738.137 569.44C738.213 569.514 738.302 569.573 738.401 569.612C738.499 569.651 738.605 569.671 738.711 569.669C745.253 569.476 752.566 569.049 758.585 570.798C770.719 574.324 779.658 582.891 786.214 593.744C789.621 600.64 791.287 606.489 791.214 611.291C790.957 628.048 790.892 644.796 791.021 661.535C791.094 671.039 790.516 677.87 789.285 682.03C785.98 693.158 778.033 704.617 766.395 708.612C764.264 709.346 762.68 710.09 761.643 710.843C760.954 711.265 760.743 711.467 761.009 711.449L739.303 712.151C738.941 712.162 738.596 712.312 738.34 712.57C738.084 712.829 737.936 713.177 737.926 713.542L737.292 735.359C737.247 736.849 736.631 738.266 735.573 739.316C734.515 740.367 733.094 740.971 731.604 741.006L709.195 741.46C707.909 741.488 707.28 740.864 707.308 739.587L707.804 716.256C707.808 716.13 707.786 716.006 707.741 715.889C707.695 715.772 707.627 715.665 707.54 715.576C707.452 715.486 707.348 715.414 707.232 715.365C707.117 715.317 706.993 715.292 706.867 715.292L688.949 715.305C688.572 715.309 688.213 715.461 687.949 715.727C687.686 715.993 687.54 716.351 687.544 716.724L687.833 739.808C687.835 739.992 687.8 740.174 687.731 740.344C687.662 740.515 687.56 740.67 687.43 740.8C687.301 740.931 687.147 741.035 686.977 741.105C686.808 741.176 686.626 741.213 686.442 741.213C678.711 741.231 671.19 741.309 663.881 741.447C661.999 741.483 660.401 741.217 659.088 740.648C658.636 740.453 658.251 740.128 657.982 739.714C657.712 739.3 657.57 738.815 657.573 738.32L657.863 713.322C657.864 713.167 657.836 713.013 657.778 712.87C657.719 712.726 657.634 712.595 657.525 712.485C657.416 712.375 657.286 712.288 657.143 712.228C657 712.168 656.847 712.138 656.692 712.138L360.529 712.372C359.951 712.372 359.662 712.656 359.662 713.226L359.62 738.21C359.62 738.939 359.332 739.64 358.819 740.158C358.306 740.676 357.609 740.971 356.879 740.978L337.032 741.144C336.835 741.146 336.64 741.108 336.458 741.033C336.276 740.958 336.11 740.847 335.972 740.707C335.833 740.567 335.724 740.401 335.65 740.218C335.577 740.035 335.541 739.839 335.545 739.642L336.027 715.925C336.029 715.788 336.004 715.653 335.953 715.526C335.903 715.399 335.828 715.283 335.733 715.186C335.639 715.088 335.526 715.011 335.401 714.958C335.276 714.906 335.143 714.878 335.008 714.878L316.827 714.934C315.927 714.943 315.478 715.393 315.478 716.283L315.354 740.207C315.351 740.449 315.298 740.687 315.199 740.907C315.1 741.127 314.956 741.323 314.777 741.484C314.598 741.645 314.388 741.766 314.16 741.84C313.932 741.914 313.691 741.94 313.453 741.915C305.446 741.125 297.357 741.075 289.185 741.763C287.743 741.323 286.246 740.12 284.695 738.155L285.328 715.512C285.341 715.092 285.265 714.674 285.107 714.286C284.948 713.897 284.711 713.545 284.409 713.253C284.106 712.962 283.747 712.736 283.353 712.591C282.958 712.447 282.538 712.386 282.119 712.413C276.734 712.785 266.914 713.405 262.52 710.14C261.987 709.718 261.482 709.53 261.005 709.576C248.912 704.438 240.593 694.164 236.654 681.782C235.479 678.09 234.9 673.04 234.919 666.631C234.955 647.266 234.887 627.901 234.712 608.536C234.694 606.066 235.667 602.238 237.632 597.05C240.276 592.381 243.059 587.243 246.529 583.497C256.134 573.085 268.296 568.392 283.014 569.421C283.228 569.436 283.443 569.408 283.644 569.338C283.846 569.268 284.031 569.158 284.188 569.014C284.344 568.871 284.469 568.697 284.554 568.504C284.638 568.311 284.682 568.102 284.681 567.892L284.777 554.546C284.776 554.337 284.732 554.13 284.647 553.938C284.562 553.747 284.438 553.576 284.284 553.436C284.13 553.296 283.948 553.19 283.751 553.125C283.553 553.06 283.345 553.037 283.138 553.058C264.912 555.005 251.001 548.582 241.406 533.79C239.487 530.833 237.329 524.608 234.933 515.114C235.125 514.094 235.162 512.813 235.043 511.271C234.905 509.508 234.836 508.236 234.836 507.456C234.873 493.398 234.882 479.34 234.864 465.283C234.854 457.891 235.465 452.23 236.695 448.3C241.778 432.076 255.62 420.823 272.809 418.95C274.25 418.794 277.592 418.725 282.835 418.743C283.246 418.743 283.64 418.581 283.931 418.292C284.222 418.003 284.388 417.611 284.392 417.201L284.419 411.898C284.421 411.649 284.37 411.403 284.27 411.176C284.17 410.948 284.024 410.745 283.84 410.578C283.657 410.412 283.44 410.286 283.206 410.21C282.971 410.133 282.722 410.108 282.477 410.135C261.377 412.49 243.141 401.885 236.888 382.107C235.612 378.067 234.96 372.177 234.933 364.436C234.877 349.552 234.854 334.677 234.864 319.811C234.864 311.97 235.497 305.965 236.764 301.796C241.186 287.21 253.017 275.476 267.699 271.413C271.904 270.247 278.754 269.659 288.248 269.65C438.861 269.631 589.479 269.654 740.102 269.719C749.321 269.728 756.051 270.398 760.293 271.729C775.581 276.55 786.421 289.552 790.277 305.556C790.938 308.292 791.237 312.424 791.172 317.952C790.98 333.754 790.888 349.552 790.897 365.345C790.897 371.975 790.323 377.245 789.175 381.157C784.373 397.418 773.258 407.022 755.831 409.97C750.679 410.851 744.84 410.369 739.33 410.259C739.192 410.257 739.054 410.283 738.926 410.335C738.797 410.387 738.68 410.463 738.581 410.561C738.483 410.658 738.404 410.774 738.351 410.902C738.297 411.03 738.27 411.167 738.27 411.306L738.242 417.793C738.233 418.5 738.587 418.849 739.303 418.84C742.498 418.812 746.043 418.872 749.936 419.019C769.342 419.776 783.955 432.034 789.409 450.105C790.677 454.301 791.296 460.145 791.269 467.638C791.195 485.414 790.865 503.094 790.277 520.678Z" fill="#001416"/>
<path d="M234.932 515.114C237.329 524.608 239.486 530.833 241.406 533.79C251.001 548.582 264.912 555.005 283.138 553.059C283.344 553.037 283.553 553.06 283.75 553.125C283.948 553.19 284.129 553.296 284.284 553.436C284.438 553.576 284.562 553.748 284.647 553.939C284.731 554.13 284.776 554.337 284.777 554.546L284.681 567.892C284.681 568.103 284.638 568.311 284.553 568.504C284.468 568.697 284.344 568.871 284.187 569.014C284.031 569.158 283.846 569.268 283.644 569.338C283.442 569.408 283.228 569.436 283.014 569.421C268.295 568.393 256.134 573.085 246.529 583.497C243.058 587.243 240.276 592.381 237.632 597.05C236.241 587.67 234.133 577.795 233.252 569.159C232.297 559.766 231.888 551.429 232.026 544.147C232.173 536.499 233.142 526.821 234.932 515.114Z" fill="#43DAF4"/>
<path d="M790.277 520.678C790.745 531.659 791.305 542.582 791.957 553.444C792.664 565.188 790.749 578.621 786.213 593.744C779.657 582.891 770.719 574.324 758.585 570.798C752.566 569.049 745.252 569.476 738.71 569.669C738.604 569.67 738.499 569.651 738.4 569.612C738.302 569.572 738.212 569.514 738.136 569.44C738.061 569.365 738.001 569.277 737.96 569.179C737.919 569.081 737.897 568.976 737.897 568.87L738.049 554.532C738.053 554.24 738.12 553.952 738.245 553.689C738.371 553.425 738.551 553.191 738.774 553.003C738.997 552.815 739.259 552.677 739.54 552.599C739.821 552.52 740.116 552.503 740.404 552.549C757.882 555.331 779.534 548.362 786.213 530.815C788.16 525.682 789.514 522.303 790.277 520.678Z" fill="#43DAF4"/>
<path d="M261.005 709.576C261.482 709.53 261.987 709.718 262.52 710.14C262.538 711.6 262.667 712.505 262.905 712.854C268.332 720.778 275.595 729.211 284.694 738.155C286.246 740.12 287.743 741.323 289.184 741.763L296.457 748.829C283.354 749.013 270.609 748.916 258.223 748.54C253.044 748.374 249.275 747.695 246.915 746.501C238.389 742.204 234.078 731.089 239.409 722.509C244.449 714.41 251.804 713.102 260.702 712.234C260.928 712.209 261.142 712.126 261.324 711.993C261.506 711.86 261.647 711.681 261.735 711.476C262.019 710.824 261.776 710.191 261.005 709.576Z" fill="#B9D2E2"/>
<path d="M262.521 710.14C266.914 713.405 276.734 712.785 282.12 712.413C282.539 712.386 282.959 712.447 283.353 712.591C283.747 712.736 284.107 712.962 284.409 713.253C284.711 713.545 284.949 713.897 285.107 714.285C285.266 714.674 285.341 715.092 285.329 715.512L284.695 738.155C275.596 729.212 268.333 720.778 262.906 712.854C262.667 712.505 262.539 711.6 262.521 710.14Z" fill="#32728A"/>
<path d="M761.643 710.843C761.496 712.045 761.845 712.647 762.69 712.647C769.673 712.647 775.719 711.449 781.641 716.806C789.437 723.886 791.241 735.111 783.225 743.058C778.226 748.016 771.064 748.705 763.309 748.691C751.419 748.663 739.285 748.774 726.907 749.022C735.75 740.501 744.059 732.053 751.836 723.679C755.289 719.96 758.347 715.883 761.009 711.449C760.743 711.467 760.954 711.265 761.643 710.843Z" fill="#B9D2E2"/>
<path d="M761.009 711.449C758.346 715.884 755.288 719.961 751.836 723.679C744.059 732.053 735.749 740.501 726.907 749.022C724.694 750.766 722.086 752.635 719.083 754.627C692.432 772.312 662.724 787.421 631.858 796.126C568.461 814.017 503.59 816.744 437.314 804.513C391.752 796.112 348.312 781.609 309.031 756.597C304.615 753.787 300.423 751.198 296.456 748.829L289.184 741.763C297.356 741.075 305.446 741.125 313.452 741.915C313.691 741.94 313.931 741.914 314.159 741.84C314.387 741.766 314.598 741.644 314.776 741.484C314.955 741.323 315.099 741.126 315.198 740.906C315.298 740.687 315.35 740.448 315.353 740.207L315.477 716.283C315.477 715.392 315.927 714.943 316.827 714.933L335.007 714.878C335.142 714.878 335.276 714.905 335.4 714.958C335.525 715.011 335.638 715.088 335.733 715.186C335.828 715.283 335.902 715.398 335.953 715.525C336.003 715.652 336.028 715.788 336.026 715.925L335.544 739.642C335.541 739.839 335.576 740.035 335.65 740.218C335.723 740.401 335.832 740.567 335.971 740.707C336.11 740.847 336.275 740.958 336.457 741.033C336.639 741.108 336.835 741.145 337.032 741.143L356.879 740.978C357.608 740.971 358.305 740.676 358.819 740.158C359.332 739.639 359.62 738.939 359.62 738.21L359.661 713.225C359.661 712.656 359.95 712.372 360.529 712.372L656.691 712.137C656.846 712.137 657 712.168 657.143 712.228C657.285 712.287 657.415 712.375 657.524 712.485C657.633 712.595 657.719 712.726 657.777 712.87C657.835 713.013 657.864 713.167 657.862 713.322L657.573 738.32C657.57 738.815 657.711 739.3 657.981 739.714C658.25 740.128 658.635 740.453 659.088 740.648C660.401 741.217 661.999 741.483 663.881 741.447C671.19 741.309 678.71 741.231 686.441 741.212C686.625 741.212 686.807 741.176 686.977 741.105C687.146 741.034 687.3 740.931 687.43 740.8C687.559 740.669 687.661 740.514 687.73 740.344C687.799 740.174 687.834 739.991 687.832 739.808L687.543 716.724C687.539 716.351 687.685 715.992 687.949 715.726C688.212 715.46 688.572 715.309 688.948 715.305L706.867 715.291C706.992 715.291 707.116 715.316 707.232 715.365C707.347 715.414 707.452 715.485 707.539 715.575C707.626 715.665 707.695 715.772 707.74 715.889C707.785 716.005 707.807 716.13 707.803 716.256L707.307 739.587C707.28 740.863 707.909 741.488 709.194 741.46L731.603 741.006C733.094 740.971 734.514 740.366 735.573 739.316C736.631 738.265 737.246 736.849 737.291 735.359L737.925 713.542C737.935 713.177 738.084 712.829 738.34 712.57C738.596 712.312 738.94 712.162 739.302 712.151L761.009 711.449Z" fill="#32728A"/>
<path d="M765.279 785.507C765.279 789.711 763.609 793.743 760.636 796.716C757.663 799.689 753.63 801.359 749.426 801.359C745.222 801.359 741.189 799.689 738.216 796.716C735.243 793.743 733.573 789.711 733.573 785.507C733.573 781.302 735.243 777.27 738.216 774.297C741.189 771.324 745.222 769.654 749.426 769.654C753.63 769.654 757.663 771.324 760.636 774.297C763.609 777.27 765.279 781.302 765.279 785.507Z" fill="#001416"/>
<path d="M289.625 787.297C289.625 791.563 287.93 795.655 284.913 798.672C281.896 801.689 277.804 803.384 273.538 803.384C269.271 803.384 265.179 801.689 262.162 798.672C259.146 795.655 257.451 791.563 257.451 787.297C257.451 783.03 259.146 778.939 262.162 775.922C265.179 772.905 269.271 771.21 273.538 771.21C277.804 771.21 281.896 772.905 284.913 775.922C287.93 778.939 289.625 783.03 289.625 787.297Z" fill="#001416"/>
<path d="M707.694 335.526C702.663 337.197 697.47 337.904 692.117 337.647C689.197 337.51 686.25 338.061 684.308 338.102C663.951 338.561 643.599 338.552 623.252 338.074C621.447 338.033 619.643 337.193 617.715 337.413C617.6 337.426 617.484 337.413 617.375 337.376C617.266 337.339 617.166 337.279 617.083 337.201C617 337.122 616.936 337.026 616.895 336.92C616.855 336.814 616.838 336.7 616.847 336.587C616.902 335.724 617.228 335.333 617.825 335.416" stroke="#DCE9F1" stroke-width="2"/>
<path d="M617.825 335.416C618.835 335.719 619.496 335.871 619.809 335.871C642.305 335.779 664.801 335.77 687.297 335.843C688.178 335.843 689.583 335.191 691.511 333.887" stroke="#808A8B" stroke-width="2"/>
<path d="M691.512 333.887L700.974 333.901C701.383 333.91 701.786 334.004 702.158 334.177C703.077 334.617 703.816 334.585 704.376 334.08C704.807 333.685 705.014 332.969 704.996 331.932C704.913 327.754 704.908 323.571 704.982 319.384C705.023 316.575 706.111 312.925 705.615 309.399C705.588 309.214 705.492 309.046 705.347 308.929C705.201 308.811 705.017 308.753 704.83 308.765C701.277 308.944 697.627 308.476 694.363 308.6C668.538 309.55 642.741 308.435 617.054 308.862C607.762 309.018 598.465 309.077 589.164 309.041C569.193 308.944 547.927 309.289 527.295 308.724C512.035 308.311 498.565 308.545 484.158 308.793C479.985 308.862 474.999 308.38 470.344 308.559C464.017 308.788 460.817 308.903 460.744 308.903C432.729 309.077 404.719 309.403 376.714 309.881C370.626 309.977 364.552 309.413 357.432 309.523C345.036 309.716 333.604 309.151 315.548 309.413" stroke="#DCE9F1" stroke-width="2"/>
<path d="M691.511 333.887C696.029 330.017 696.208 323.296 692.365 318.93C690.547 316.873 688.279 315.803 685.561 315.721C674.13 315.39 653.149 315.431 622.618 315.845C617.757 315.9 613.831 317.029 611.738 321.312C608.391 328.171 612.55 331.739 617.825 335.416" stroke="#5D737C" stroke-width="2"/>
<path d="M758.725 308.035C754.666 307.641 749.221 307.471 742.39 307.526C741.545 307.535 740.824 307.709 740.227 308.049C739.924 308.224 739.667 308.173 739.456 307.898C739.107 307.448 738.841 306.897 738.657 306.245" stroke="#DCE9F1" stroke-width="2"/>
<path d="M284.461 338.171C284.168 338.189 283.984 338.345 283.911 338.639C283.855 338.859 283.713 339.002 283.484 339.066C283.024 339.194 282.822 339.158 282.878 338.956C282.942 338.699 282.845 338.575 282.588 338.584L265.055 339.217" stroke="#DCE9F1" stroke-width="2"/>
<path d="M329.927 409.97C331.699 409.823 332.631 410.236 332.723 411.209C332.925 413.275 332.672 415.828 331.965 418.867" stroke="#A1EDFA" stroke-width="2"/>
<path d="M683.799 409.998C687.233 412.725 689.914 415.603 691.842 418.633" stroke="#A1EDFA" stroke-width="2"/>
<path d="M707.737 492.292C697.765 501.52 694.28 509.894 679.378 509.976C572.774 510.564 473.553 510.642 381.714 510.211C380.979 510.201 379.74 510.362 377.995 510.693C376.462 510.977 375.172 510.858 374.125 510.334" stroke="#DCE9F1" stroke-width="2"/>
<path d="M374.124 510.334C393.971 497.705 394.921 472.844 375.336 459.36C364.552 451.95 346.743 452.777 337.309 462.432C324.683 475.36 324.045 489.427 335.394 504.632" stroke="#808A8B" stroke-width="2"/>
<path d="M335.394 504.632C335.706 506.239 335.403 507.226 334.485 507.593C334.219 507.704 334.008 507.878 333.851 508.117C333.181 509.127 332.203 509.6 330.918 509.535C328.039 509.412 324.734 509.976 322.282 509.343C319.28 508.562 317.159 506.74 315.919 503.875" stroke="#DCE9F1" stroke-width="2"/>
<path d="M374.125 510.334C359.985 517.579 347.075 515.678 335.395 504.632" stroke="#5D737C" stroke-width="2"/>
<path d="M284.199 509.673L265.192 509.136" stroke="#DCE9F1" stroke-width="2"/>
<path d="M324.541 552.728L318.715 569.449" stroke="#A1EDFA" stroke-width="2"/>
<path d="M693.48 552.962C697.236 558.398 699.55 563.866 700.422 569.366" stroke="#A1EDFA" stroke-width="2"/>
<path d="M707.461 598.262C706.772 599.29 706.377 600.121 706.276 600.755C706.174 601.394 705.854 601.979 705.369 602.408C704.884 602.838 704.265 603.086 703.618 603.11C693.715 603.427 683.248 602.173 674.502 602.339C650.61 602.77 626.718 602.834 602.827 602.531C597.579 602.476 591.216 603 585.362 602.807C578.163 602.577 573.802 602.472 572.278 602.49C550.709 602.701 529.136 602.674 507.558 602.407C470.398 601.939 433.225 602.49 396.037 602.077C386.92 601.98 375.708 602.449 365.558 602.228C348.52 601.857 335.036 602.201 319.735 602.311C318.991 602.311 318.128 602.518 317.145 602.931C316.613 603.16 316.163 602.857 315.795 602.022" stroke="#DCE9F1" stroke-width="2"/>
<path d="M757.43 604.06C755.997 603.656 754.638 603.266 753.353 602.89C748.904 601.595 743.271 602.118 738.505 601.829" stroke="#DCE9F1" stroke-width="2"/>
<path d="M707.694 335.526C702.662 337.197 697.469 337.904 692.116 337.647C689.196 337.51 686.249 338.061 684.307 338.102C663.95 338.561 643.598 338.552 623.251 338.074C621.447 338.033 619.642 337.193 617.714 337.413C617.599 337.426 617.483 337.413 617.374 337.376C617.265 337.339 617.165 337.279 617.082 337.201C617 337.122 616.935 337.026 616.895 336.92C616.854 336.814 616.837 336.7 616.846 336.587C616.902 335.724 617.227 335.333 617.824 335.416C618.834 335.719 619.495 335.871 619.808 335.871C642.304 335.779 664.8 335.77 687.296 335.843C688.177 335.843 689.582 335.191 691.51 333.887L700.972 333.901C701.381 333.91 701.785 334.004 702.157 334.177C703.075 334.617 703.814 334.585 704.374 334.08C704.806 333.685 705.013 332.969 704.994 331.932C704.912 327.754 704.907 323.571 704.98 319.384C705.022 316.575 706.11 312.925 705.614 309.399C705.587 309.214 705.491 309.046 705.345 308.929C705.2 308.811 705.015 308.753 704.829 308.765C701.275 308.944 697.626 308.476 694.361 308.6C668.537 309.55 642.74 308.435 617.053 308.862C607.761 309.018 598.464 309.077 589.163 309.041C569.192 308.944 547.926 309.289 527.294 308.724C512.033 308.311 498.563 308.545 484.157 308.793C479.983 308.862 474.997 308.38 470.342 308.559C464.016 308.788 460.816 308.903 460.742 308.903C432.728 309.077 404.718 309.403 376.713 309.881C370.625 309.977 364.551 309.413 357.43 309.523C345.035 309.716 333.603 309.151 315.546 309.413L315.767 302.044C315.785 301.475 316.084 301.19 316.662 301.19L706.661 301.08C706.96 301.08 707.248 301.199 707.459 301.411C707.671 301.622 707.79 301.91 707.79 302.209L707.694 335.526Z" fill="white"/>
<path d="M758.724 308.035C754.665 307.641 749.22 307.471 742.389 307.526C741.544 307.535 740.823 307.709 740.227 308.049C739.924 308.224 739.667 308.173 739.455 307.898C739.106 307.448 738.84 306.897 738.657 306.245C738.399 304.721 738.422 303.265 738.725 301.879C738.836 301.401 739.129 301.158 739.607 301.149C747.802 300.929 753.903 300.02 758.724 308.035Z" fill="white"/>
<path d="M284.461 338.171C284.168 338.189 283.984 338.345 283.91 338.639C283.855 338.86 283.713 339.002 283.483 339.066C283.024 339.195 282.822 339.158 282.877 338.956C282.942 338.699 282.845 338.575 282.588 338.584L265.055 339.218C264.945 332.451 264.922 325.812 264.986 319.302C265.032 315.005 265.689 311.69 266.956 309.358C270.124 303.518 275.564 300.887 283.277 301.466C283.432 301.48 283.575 301.551 283.68 301.666C283.784 301.78 283.842 301.93 283.842 302.086L284.461 338.171Z" fill="white"/>
<path d="M738.656 306.245C738.84 306.897 739.106 307.448 739.455 307.898C739.666 308.173 739.923 308.224 740.226 308.049C740.823 307.709 741.544 307.535 742.389 307.526C749.22 307.471 754.665 307.641 758.723 308.035C759.669 309.358 760.147 311.102 760.156 313.269C760.229 323.525 760.128 341.141 759.853 366.116C759.788 372.03 757.709 376.589 753.614 379.793C750.046 382.562 744.785 382.534 740.378 382.534C740.103 382.534 739.832 382.479 739.579 382.373C739.325 382.267 739.095 382.112 738.902 381.916C738.709 381.72 738.556 381.488 738.452 381.232C738.349 380.977 738.296 380.703 738.298 380.427L738.656 306.245Z" fill="#B9D2E2"/>
<path d="M691.511 333.887C696.028 330.017 696.207 323.296 692.365 318.93C690.546 316.873 688.278 315.803 685.561 315.721C674.129 315.39 653.148 315.431 622.618 315.845C617.756 315.9 613.83 317.029 611.737 321.313C608.39 328.172 612.549 331.739 617.825 335.416C617.228 335.334 616.902 335.724 616.847 336.587C616.838 336.7 616.854 336.814 616.895 336.92C616.936 337.026 617 337.122 617.083 337.201C617.166 337.28 617.265 337.34 617.374 337.376C617.484 337.413 617.6 337.426 617.714 337.413C619.643 337.193 621.447 338.033 623.251 338.074C643.599 338.552 663.951 338.561 684.307 338.102C686.249 338.061 689.197 337.51 692.117 337.647C697.47 337.905 702.662 337.198 707.694 335.526L707.625 381.06C707.622 381.303 707.524 381.534 707.354 381.704C707.184 381.874 706.955 381.969 706.716 381.969L317.062 382.024C315.978 382.024 315.437 381.483 315.437 380.399L315.547 309.413C333.603 309.151 345.035 309.716 357.431 309.523C364.551 309.413 370.625 309.977 376.713 309.881C404.718 309.403 432.728 309.077 460.743 308.903C460.816 308.903 464.016 308.788 470.342 308.559C474.998 308.38 479.984 308.862 484.157 308.793C498.563 308.545 512.034 308.311 527.294 308.724C547.926 309.289 569.192 308.944 589.163 309.041C598.464 309.077 607.761 309.018 617.053 308.862C642.74 308.435 668.537 309.55 694.362 308.6C697.626 308.476 701.276 308.944 704.829 308.765C705.016 308.753 705.2 308.811 705.346 308.929C705.491 309.046 705.587 309.214 705.614 309.399C706.11 312.925 705.022 316.575 704.981 319.384C704.907 323.571 704.912 327.754 704.994 331.932C705.013 332.969 704.806 333.685 704.375 334.08C703.815 334.585 703.075 334.617 702.157 334.177C701.785 334.004 701.382 333.91 700.973 333.901L691.511 333.887Z" fill="#B9D2E2"/>
<path d="M691.51 333.887C689.582 335.191 688.177 335.843 687.295 335.843C664.799 335.77 642.303 335.779 619.807 335.871C619.495 335.871 618.834 335.719 617.824 335.416C612.549 331.739 608.389 328.171 611.736 321.312C613.83 317.029 617.755 315.9 622.617 315.845C653.147 315.431 674.128 315.39 685.56 315.721C688.278 315.803 690.546 316.873 692.364 318.93C696.207 323.296 696.028 330.017 691.51 333.887Z" fill="#001416"/>
<path d="M284.461 338.171L284.668 381.143C284.671 381.413 284.566 381.674 284.375 381.868C284.184 382.062 283.922 382.172 283.649 382.176C273.704 382.273 265.385 378.939 264.903 367.494C264.646 361.333 264.697 351.908 265.055 339.218L282.588 338.584C282.845 338.575 282.942 338.699 282.877 338.956C282.822 339.158 283.024 339.195 283.483 339.066C283.713 339.002 283.855 338.86 283.91 338.639C283.984 338.346 284.167 338.19 284.461 338.171Z" fill="#B9D2E2"/>
<path d="M329.925 409.97C331.697 409.823 332.629 410.236 332.721 411.209C332.923 413.275 332.671 415.828 331.964 418.867L316.703 418.964C315.913 418.973 315.523 418.583 315.532 417.793L315.546 411.017C315.55 410.706 315.675 410.41 315.895 410.193C316.114 409.976 316.41 409.856 316.717 409.86L329.925 409.97Z" fill="white"/>
<path d="M331.965 418.867C332.672 415.828 332.925 413.275 332.723 411.209C332.631 410.236 331.699 409.823 329.927 409.97L351.702 410.08C352.299 410.08 352.588 410.378 352.57 410.975L352.418 417.834C352.4 418.523 352.046 418.867 351.358 418.867H331.965Z" fill="#43DAF4"/>
<path d="M683.798 409.998C687.232 412.725 689.914 415.603 691.842 418.633L666.499 418.73C665.425 418.739 664.902 418.202 664.929 417.118L665.095 411.995C665.122 410.966 665.65 410.438 666.678 410.411L683.798 409.998Z" fill="#43DAF4"/>
<path d="M683.798 409.998L706.785 410.342C707.009 410.346 707.223 410.437 707.38 410.597C707.537 410.757 707.625 410.972 707.625 411.196L707.598 417.738C707.598 417.94 707.518 418.134 707.377 418.279C707.235 418.423 707.042 418.506 706.84 418.509L691.841 418.633C689.913 415.603 687.232 412.725 683.798 409.998Z" fill="white"/>
<path d="M635.537 417.972C635.537 418.093 635.489 418.208 635.404 418.293C635.319 418.379 635.203 418.426 635.083 418.426H382.484C382.364 418.426 382.248 418.379 382.163 418.293C382.078 418.208 382.03 418.093 382.03 417.972V411.526C382.03 411.406 382.078 411.29 382.163 411.205C382.248 411.12 382.364 411.072 382.484 411.072H635.083C635.203 411.072 635.319 411.12 635.404 411.205C635.489 411.29 635.537 411.406 635.537 411.526V417.972Z" fill="#43DAF4"/>
<path d="M707.735 492.292C697.764 501.52 694.279 509.894 679.377 509.976C572.773 510.564 473.552 510.642 381.713 510.211C380.978 510.201 379.739 510.362 377.994 510.693C376.461 510.977 375.17 510.858 374.124 510.335C393.971 497.705 394.921 472.844 375.336 459.36C364.551 451.95 346.743 452.777 337.308 462.432C324.683 475.36 324.045 489.427 335.394 504.632C335.706 506.239 335.403 507.226 334.485 507.594C334.219 507.704 334.007 507.878 333.851 508.117C333.181 509.127 332.203 509.6 330.918 509.536C328.039 509.412 324.733 509.976 322.282 509.343C319.279 508.562 317.158 506.74 315.919 503.875L315.822 445.257C315.822 444.871 316.02 444.678 316.415 444.678L706.895 444.513C707.071 444.513 707.239 444.581 707.363 444.703C707.487 444.824 707.556 444.989 707.556 445.16L707.735 492.292Z" fill="white"/>
<path d="M738.325 446.455C738.323 446.204 738.371 445.955 738.466 445.723C738.561 445.491 738.7 445.28 738.877 445.102C739.054 444.924 739.264 444.783 739.495 444.686C739.727 444.59 739.975 444.54 740.226 444.54L744.33 444.526C748.502 444.512 752.508 446.196 755.468 449.208C758.428 452.219 760.099 456.312 760.114 460.586L760.28 508.02C760.287 510.137 759.887 512.234 759.104 514.192C758.32 516.15 757.168 517.93 755.712 519.432C754.257 520.933 752.527 522.126 750.621 522.943C748.715 523.759 746.671 524.183 744.606 524.19L740.501 524.204C740 524.204 739.518 524.005 739.162 523.652C738.806 523.298 738.604 522.819 738.601 522.317L738.325 446.455Z" fill="#B9D2E2"/>
<path d="M284.199 509.673L265.192 509.136C265.008 493.398 264.981 477.509 265.109 461.468C265.137 457.932 265.738 455.118 266.913 453.025C270.237 447.139 275.71 444.439 283.331 444.926C283.827 444.954 284.075 445.22 284.075 445.725L284.199 509.673Z" fill="white"/>
<path d="M374.124 510.334C359.984 517.579 347.074 515.678 335.394 504.632C324.045 489.427 324.683 475.36 337.309 462.432C346.743 452.777 364.552 451.95 375.336 459.36C394.921 472.844 393.971 497.705 374.124 510.334Z" fill="#001416"/>
<path d="M707.735 492.292L707.873 523.336C707.873 523.512 707.804 523.68 707.683 523.804C707.561 523.928 707.397 523.997 707.225 523.997L316.455 523.942C316.291 523.942 316.133 523.877 316.017 523.761C315.901 523.645 315.835 523.487 315.835 523.323L315.918 503.875C317.158 506.74 319.279 508.562 322.281 509.343C324.733 509.976 328.038 509.412 330.917 509.536C332.202 509.6 333.18 509.127 333.851 508.117C334.007 507.878 334.218 507.704 334.484 507.594C335.402 507.226 335.705 506.239 335.393 504.632C347.073 515.678 359.983 517.579 374.123 510.334C375.17 510.858 376.46 510.977 377.993 510.693C379.738 510.362 380.978 510.201 381.712 510.211C473.551 510.642 572.772 510.564 679.376 509.976C694.278 509.894 697.763 501.52 707.735 492.292Z" fill="#B9D2E2"/>
<path d="M284.199 509.673V523.46C284.199 523.637 284.137 523.808 284.023 523.944C283.91 524.08 283.753 524.172 283.579 524.204C273.566 525.994 264.82 519.438 265.192 509.136L284.199 509.673Z" fill="#B9D2E2"/>
<path d="M324.541 552.728L318.715 569.449C317.907 569.586 317.273 569.586 316.814 569.449C316.346 569.311 316.102 568.847 316.084 568.057C315.937 563.292 315.873 558.476 315.891 553.609C315.891 553.095 316.148 552.834 316.663 552.824L324.541 552.728Z" fill="white"/>
<path d="M324.541 552.728L352.101 553.251C352.68 553.27 352.969 553.564 352.969 554.133L352.997 568.884C352.997 569.037 352.936 569.184 352.827 569.293C352.719 569.401 352.571 569.462 352.418 569.462L318.715 569.449L324.541 552.728Z" fill="#43DAF4"/>
<path d="M635.675 568.76C635.675 568.898 635.62 569.032 635.522 569.13C635.424 569.228 635.29 569.283 635.152 569.283H382.14C382.001 569.283 381.868 569.228 381.77 569.13C381.672 569.032 381.617 568.898 381.617 568.76V553.912C381.617 553.773 381.672 553.64 381.77 553.542C381.868 553.444 382.001 553.389 382.14 553.389H635.152C635.29 553.389 635.424 553.444 635.522 553.542C635.62 553.64 635.675 553.773 635.675 553.912V568.76Z" fill="#148DB8"/>
<path d="M693.48 552.962C697.236 558.398 699.55 563.866 700.422 569.366L666.788 569.49C666.623 569.492 666.459 569.461 666.306 569.399C666.153 569.338 666.014 569.246 665.898 569.131C665.781 569.015 665.689 568.878 665.626 568.727C665.564 568.576 665.533 568.414 665.535 568.25V553.486C665.535 553.109 665.728 552.921 666.113 552.921L693.48 552.962Z" fill="#43DAF4"/>
<path d="M693.48 552.962L707.143 553.252C707.291 553.255 707.431 553.316 707.534 553.422C707.637 553.527 707.694 553.669 707.694 553.816L707.653 568.195C707.653 568.443 707.557 568.68 707.384 568.858C707.212 569.035 706.977 569.139 706.73 569.146L700.422 569.366C699.55 563.866 697.236 558.398 693.48 552.962Z" fill="white"/>
<path d="M284.378 682.663C284.378 682.963 284.259 683.25 284.047 683.462C283.835 683.674 283.548 683.793 283.248 683.793H282.835C278.035 683.793 273.432 681.835 270.038 678.351C266.644 674.866 264.737 670.14 264.737 665.213V614.445C264.737 609.517 266.644 604.792 270.038 601.307C273.432 597.823 278.035 595.865 282.835 595.865H283.248C283.548 595.865 283.835 595.984 284.047 596.196C284.259 596.408 284.378 596.695 284.378 596.995V682.663Z" fill="white"/>
<path d="M707.461 598.262C706.772 599.29 706.377 600.121 706.276 600.755C706.175 601.395 705.854 601.979 705.369 602.409C704.884 602.838 704.265 603.086 703.618 603.11C693.715 603.427 683.248 602.173 674.502 602.339C650.61 602.77 626.718 602.835 602.827 602.532C597.579 602.476 591.216 603 585.362 602.807C578.164 602.577 573.802 602.472 572.278 602.49C550.709 602.701 529.136 602.674 507.558 602.408C470.398 601.939 433.225 602.49 396.038 602.077C386.92 601.981 375.708 602.449 365.558 602.229C348.52 601.857 335.037 602.201 319.735 602.311C318.991 602.311 318.128 602.518 317.145 602.931C316.613 603.161 316.163 602.857 315.796 602.022C315.566 600.075 315.649 598.266 316.043 596.595C316.163 596.09 316.48 595.838 316.994 595.838C446.745 595.774 576.493 595.879 706.235 596.155C707.162 596.155 707.571 596.857 707.461 598.262Z" fill="white"/>
<path d="M757.429 604.061C755.997 603.657 754.638 603.266 753.352 602.89C748.904 601.595 743.27 602.119 738.505 601.829C738.312 599.92 738.376 598.354 738.698 597.133C738.826 596.655 739.129 596.366 739.607 596.265C747.311 594.649 753.251 597.248 757.429 604.061Z" fill="white"/>
<path d="M707.46 598.262L707.666 682.815C707.666 683.027 707.582 683.23 707.432 683.38C707.282 683.529 707.079 683.614 706.867 683.614L316.538 683.71C316.416 683.71 316.295 683.686 316.182 683.638C316.069 683.591 315.967 683.522 315.881 683.435C315.795 683.348 315.727 683.244 315.682 683.131C315.636 683.017 315.614 682.896 315.615 682.773L315.794 602.022C316.162 602.857 316.612 603.16 317.144 602.931C318.127 602.518 318.99 602.311 319.733 602.311C335.035 602.201 348.519 601.857 365.557 602.228C375.707 602.449 386.919 601.98 396.036 602.077C433.224 602.49 470.397 601.939 507.557 602.407C529.135 602.674 550.708 602.701 572.277 602.49C573.801 602.472 578.162 602.577 585.361 602.807C591.215 603 597.578 602.476 602.825 602.531C626.717 602.834 650.609 602.77 674.501 602.339C683.247 602.173 693.714 603.427 703.617 603.11C704.264 603.086 704.883 602.838 705.368 602.408C705.853 601.979 706.173 601.394 706.275 600.755C706.376 600.121 706.771 599.29 707.46 598.262Z" fill="#B9D2E2"/>
<path d="M738.505 601.829C743.271 602.118 748.904 601.595 753.353 602.89C754.638 603.266 755.997 603.656 757.43 604.06C759.229 606.696 760.129 609.216 760.129 611.622C760.147 630.004 760.102 648.368 759.991 666.714C759.909 679.799 751.466 683.586 739.828 683.2C739.543 683.19 739.273 683.07 739.075 682.868C738.877 682.665 738.767 682.394 738.767 682.112L738.505 601.829Z" fill="#B9D2E2"/>
<path d="M576.23 746.873C576.23 750.906 574.628 754.774 571.777 757.625C568.925 760.477 565.058 762.079 561.025 762.079C556.992 762.079 553.124 760.477 550.273 757.625C547.421 754.774 545.819 750.906 545.819 746.873C545.819 742.841 547.421 738.973 550.273 736.122C553.124 733.27 556.992 731.668 561.025 731.668C565.058 731.668 568.925 733.27 571.777 736.122C574.628 738.973 576.23 742.841 576.23 746.873Z" fill="#001416"/>
<path d="M475.778 762.402C473.807 762.792 471.777 762.784 469.803 762.376C467.83 761.969 465.953 761.171 464.278 760.028C462.603 758.885 461.164 757.419 460.042 755.715C458.921 754.01 458.139 752.1 457.742 750.093C456.939 746.041 457.751 741.841 459.999 738.418C462.246 734.995 465.746 732.629 469.727 731.841C471.698 731.45 473.728 731.459 475.701 731.866C477.674 732.274 479.552 733.072 481.227 734.215C482.902 735.358 484.341 736.823 485.462 738.528C486.584 740.232 487.365 742.142 487.763 744.149C488.565 748.202 487.753 752.402 485.506 755.825C483.258 759.248 479.759 761.614 475.778 762.402Z" fill="#001416"/>
<path d="M363.462 476.948C359.193 480.603 354.569 483.527 349.593 485.722" stroke="#83D5EB" stroke-width="2"/>
<path d="M686.924 665.35L619.133 665.502" stroke="#808A8B" stroke-width="2"/>
<path d="M367.754 372.09C363.825 373.254 359.702 373.624 355.621 373.18C351.54 372.736 347.581 371.485 343.971 369.5C340.36 367.515 337.168 364.834 334.578 361.611C331.987 358.387 330.048 354.684 328.872 350.712C327.695 346.741 327.304 342.579 327.721 338.465C328.138 334.35 329.355 330.363 331.302 326.732C333.249 323.101 335.888 319.896 339.068 317.301C342.249 314.706 345.908 312.771 349.838 311.607C353.768 310.443 357.891 310.072 361.972 310.517C366.053 310.961 370.011 312.211 373.622 314.196C377.233 316.181 380.424 318.862 383.015 322.086C385.606 325.31 387.545 329.013 388.721 332.984C389.897 336.956 390.288 341.117 389.871 345.232C389.454 349.346 388.237 353.333 386.29 356.964C384.344 360.596 381.704 363.8 378.524 366.396C375.344 368.991 371.684 370.926 367.754 372.09Z" fill="#001416"/>
<path d="M444.417 323.689C444.982 326.466 444.358 329.367 442.682 331.754C441.006 334.14 438.416 335.816 435.48 336.414C434.027 336.709 432.533 336.731 431.083 336.478C429.633 336.225 428.256 335.702 427.031 334.938C425.805 334.175 424.755 333.186 423.94 332.028C423.126 330.871 422.562 329.567 422.282 328.192C421.717 325.414 422.341 322.513 424.017 320.127C425.693 317.74 428.284 316.064 431.219 315.467C432.672 315.171 434.166 315.149 435.616 315.402C437.066 315.656 438.443 316.179 439.669 316.942C440.894 317.706 441.944 318.694 442.759 319.852C443.574 321.009 444.137 322.313 444.417 323.689Z" fill="#001416"/>
<path d="M483.585 328.797C482.929 331.551 481.134 333.914 478.595 335.367C476.056 336.82 472.98 337.244 470.045 336.544C467.11 335.845 464.556 334.08 462.944 331.639C461.333 329.197 460.796 326.278 461.452 323.524C462.108 320.77 463.903 318.407 466.442 316.954C468.982 315.501 472.057 315.078 474.992 315.777C477.927 316.476 480.482 318.241 482.093 320.683C483.705 323.124 484.241 326.043 483.585 328.797Z" fill="#001416"/>
<path d="M592.868 326.09C592.866 327.369 592.612 328.635 592.12 329.815C591.629 330.996 590.91 332.068 590.004 332.971C589.098 333.873 588.024 334.589 586.841 335.076C585.659 335.563 584.392 335.813 583.114 335.811L510.089 335.683C508.81 335.681 507.544 335.427 506.364 334.935C505.183 334.444 504.111 333.725 503.208 332.819C502.306 331.913 501.59 330.839 501.103 329.656C500.616 328.474 500.366 327.207 500.368 325.929L500.369 325.433C500.371 324.154 500.625 322.888 501.117 321.708C501.608 320.527 502.327 319.455 503.233 318.552C504.139 317.65 505.214 316.934 506.396 316.447C507.578 315.96 508.845 315.71 510.124 315.712L583.148 315.84C584.427 315.842 585.693 316.096 586.874 316.587C588.054 317.079 589.126 317.798 590.029 318.704C590.932 319.61 591.647 320.684 592.134 321.867C592.622 323.049 592.871 324.315 592.869 325.594L592.868 326.09Z" fill="#001416"/>
<path d="M483.332 360.115C483.431 361.534 483.24 362.958 482.771 364.307C482.301 365.657 481.561 366.905 480.594 367.98C479.627 369.056 478.451 369.937 477.134 370.575C475.817 371.212 474.384 371.593 472.917 371.696C471.45 371.798 469.978 371.621 468.585 371.173C467.191 370.725 465.904 370.015 464.797 369.085C463.69 368.155 462.784 367.022 462.131 365.751C461.478 364.48 461.09 363.096 460.991 361.677C460.892 360.259 461.083 358.835 461.553 357.485C462.022 356.136 462.762 354.888 463.729 353.812C464.696 352.737 465.872 351.856 467.189 351.218C468.506 350.581 469.939 350.2 471.406 350.097C472.873 349.994 474.345 350.172 475.739 350.62C477.132 351.068 478.419 351.778 479.526 352.708C480.634 353.638 481.54 354.771 482.193 356.042C482.846 357.313 483.233 358.697 483.332 360.115Z" fill="#001416"/>
<path d="M521.057 361.034C521.057 363.924 519.909 366.695 517.866 368.738C515.823 370.781 513.051 371.929 510.162 371.929C507.273 371.929 504.502 370.781 502.459 368.738C500.415 366.695 499.268 363.924 499.268 361.034C499.268 359.603 499.549 358.187 500.097 356.865C500.644 355.543 501.447 354.342 502.459 353.331C503.47 352.319 504.671 351.516 505.993 350.969C507.315 350.421 508.731 350.14 510.162 350.14C511.593 350.14 513.009 350.421 514.331 350.969C515.653 351.516 516.854 352.319 517.866 353.331C518.877 354.342 519.68 355.543 520.227 356.865C520.775 358.187 521.057 359.603 521.057 361.034Z" fill="#001416"/>
<path d="M555.89 364.539C555.448 365.885 554.733 367.126 553.786 368.192C552.84 369.258 551.68 370.128 550.373 370.753C549.067 371.378 547.639 371.744 546.171 371.832C544.703 371.92 543.224 371.728 541.819 371.265C540.413 370.803 539.109 370.081 537.979 369.139C536.85 368.197 535.918 367.055 535.237 365.777C534.556 364.498 534.139 363.11 534.01 361.69C533.881 360.27 534.042 358.847 534.484 357.502C534.927 356.156 535.642 354.915 536.588 353.849C537.535 352.783 538.694 351.913 540.001 351.288C541.307 350.664 542.735 350.297 544.203 350.209C545.671 350.121 547.15 350.314 548.555 350.776C549.961 351.238 551.266 351.96 552.395 352.902C553.524 353.844 554.456 354.987 555.137 356.265C555.818 357.543 556.235 358.931 556.364 360.351C556.493 361.771 556.332 363.194 555.89 364.539Z" fill="#001416"/>
<path d="M593.392 360.805C593.432 363.65 592.26 366.396 590.134 368.438C588.008 370.48 585.103 371.651 582.056 371.693C580.548 371.714 579.051 371.458 577.65 370.938C576.249 370.418 574.971 369.646 573.891 368.665C572.81 367.683 571.948 366.512 571.352 365.219C570.757 363.925 570.441 362.534 570.421 361.125C570.381 358.28 571.553 355.535 573.679 353.493C575.805 351.451 578.711 350.28 581.757 350.237C583.265 350.216 584.762 350.473 586.163 350.992C587.565 351.512 588.842 352.285 589.922 353.266C591.003 354.247 591.865 355.418 592.461 356.712C593.056 358.005 593.373 359.396 593.392 360.805Z" fill="#001416"/>
<path d="M445.183 363.015C444.991 364.398 444.512 365.728 443.771 366.927C443.031 368.127 442.045 369.174 440.869 370.007C439.694 370.841 438.351 371.445 436.919 371.786C435.487 372.127 433.992 372.197 432.521 371.993C429.551 371.581 426.856 370.076 425.03 367.809C423.203 365.543 422.395 362.7 422.782 359.907C422.974 358.524 423.454 357.195 424.194 355.995C424.934 354.795 425.921 353.749 427.096 352.915C428.272 352.081 429.615 351.477 431.047 351.136C432.479 350.795 433.973 350.725 435.444 350.929C438.415 351.341 441.11 352.846 442.936 355.113C444.763 357.379 445.571 360.222 445.183 363.015Z" fill="#001416"/>
<path d="M695.037 361.397C695.035 362.681 694.779 363.952 694.286 365.137C693.792 366.323 693.07 367.4 692.161 368.306C691.251 369.213 690.172 369.931 688.984 370.421C687.797 370.91 686.525 371.161 685.241 371.158L620.755 371.046C619.471 371.044 618.2 370.788 617.015 370.295C615.829 369.801 614.752 369.079 613.846 368.17C612.939 367.26 612.221 366.181 611.731 364.993C611.242 363.806 610.991 362.534 610.994 361.25L610.995 360.699C610.997 359.415 611.252 358.144 611.746 356.958C612.239 355.773 612.961 354.696 613.871 353.789C614.781 352.883 615.86 352.164 617.047 351.675C618.234 351.186 619.506 350.935 620.791 350.937L685.276 351.05C686.56 351.052 687.831 351.307 689.017 351.801C690.203 352.294 691.279 353.016 692.186 353.926C693.092 354.836 693.811 355.915 694.3 357.102C694.789 358.29 695.04 359.562 695.038 360.846L695.037 361.397Z" fill="#001416"/>
<path d="M602.8 482.995C602.8 487.119 601.162 491.074 598.245 493.99C595.329 496.906 591.374 498.545 587.25 498.545C583.126 498.545 579.171 496.906 576.255 493.99C573.338 491.074 571.7 487.119 571.7 482.995C571.7 478.871 573.338 474.916 576.255 472C579.171 469.083 583.126 467.445 587.25 467.445C591.374 467.445 595.329 469.083 598.245 472C601.162 474.916 602.8 478.871 602.8 482.995Z" fill="#001416"/>
<path d="M699.449 484.343C699.082 488.37 697.075 492.081 693.868 494.66C690.661 497.24 686.517 498.476 682.348 498.096C678.179 497.717 674.326 495.753 671.638 492.637C668.949 489.522 667.644 485.509 668.011 481.482C668.377 477.455 670.385 473.743 673.592 471.164C676.799 468.585 680.943 467.349 685.112 467.728C689.281 468.108 693.133 470.071 695.822 473.187C698.511 476.303 699.815 480.316 699.449 484.343Z" fill="#001416"/>
<path d="M652.258 483.744C652.17 485.745 651.672 487.708 650.792 489.521C649.912 491.334 648.667 492.962 647.128 494.312C645.59 495.662 643.787 496.707 641.824 497.389C639.861 498.07 637.775 498.373 635.686 498.282C631.467 498.098 627.492 496.317 624.633 493.33C621.775 490.343 620.268 486.395 620.445 482.355C620.532 480.355 621.03 478.392 621.91 476.579C622.79 474.766 624.035 473.138 625.574 471.788C627.113 470.438 628.915 469.393 630.878 468.711C632.842 468.03 634.927 467.726 637.016 467.818C641.235 468.002 645.211 469.783 648.069 472.77C650.927 475.757 652.434 479.705 652.258 483.744Z" fill="#001416"/>
<path d="M553.587 482.683C553.584 484.379 553.247 486.059 552.595 487.625C551.943 489.191 550.989 490.614 549.787 491.811C548.586 493.009 547.16 493.958 545.591 494.604C544.023 495.251 542.342 495.582 540.646 495.579L418.892 495.367C417.195 495.364 415.516 495.027 413.95 494.375C412.383 493.723 410.961 492.769 409.763 491.567C408.566 490.365 407.616 488.939 406.97 487.371C406.323 485.802 405.992 484.122 405.995 482.425L405.996 481.902C405.999 480.205 406.336 478.526 406.988 476.959C407.64 475.393 408.594 473.971 409.796 472.773C410.998 471.576 412.424 470.626 413.992 469.98C415.561 469.333 417.241 469.002 418.938 469.005L540.692 469.218C542.388 469.221 544.068 469.558 545.634 470.21C547.2 470.862 548.623 471.816 549.82 473.017C551.018 474.219 551.967 475.645 552.614 477.214C553.26 478.782 553.591 480.463 553.588 482.159L553.587 482.683Z" fill="#001416"/>
<path d="M363.465 476.948C359.195 480.603 354.572 483.527 349.595 485.722C348.838 478.147 356.275 470.241 363.465 476.948Z" fill="white"/>
<path d="M363.465 476.948C365.366 478.298 366.688 480.148 367.432 482.499C369.939 490.515 358.617 497.181 352.612 491.892C350.785 490.276 349.779 488.219 349.596 485.722C354.572 483.527 359.196 480.603 363.465 476.948Z" fill="#06ABD7"/>
<path d="M390.052 638.792C390.237 646.954 387.137 654.856 381.435 660.76C375.733 666.664 367.894 670.086 359.645 670.273C355.56 670.366 351.497 669.662 347.688 668.201C343.879 666.74 340.399 664.551 337.445 661.759C334.492 658.966 332.124 655.626 330.476 651.927C328.828 648.229 327.933 644.246 327.841 640.204C327.656 632.042 330.755 624.14 336.458 618.236C342.16 612.333 349.998 608.911 358.248 608.723C362.333 608.631 366.396 609.335 370.205 610.796C374.014 612.257 377.494 614.446 380.447 617.238C383.401 620.03 385.769 623.371 387.417 627.069C389.065 630.767 389.96 634.751 390.052 638.792Z" fill="#001416"/>
<path d="M482.614 626.589C481.116 629.246 478.599 631.186 475.617 631.981C472.634 632.776 469.43 632.361 466.709 630.828C463.988 629.294 461.973 626.768 461.108 623.805C460.242 620.842 460.598 617.685 462.095 615.027C463.592 612.37 466.109 610.431 469.092 609.636C472.075 608.841 475.279 609.256 478 610.789C480.721 612.322 482.735 614.848 483.601 617.811C484.466 620.774 484.111 623.932 482.614 626.589Z" fill="#001416"/>
<path d="M592.304 620.96C592.304 623.634 591.242 626.198 589.351 628.089C587.46 629.98 584.896 631.042 582.222 631.042H510.189C507.515 631.042 504.951 629.98 503.06 628.089C501.169 626.198 500.107 623.634 500.107 620.96V619.886C500.107 617.212 501.169 614.647 503.06 612.757C504.951 610.866 507.515 609.804 510.189 609.804H582.222C584.896 609.804 587.46 610.866 589.351 612.757C591.242 614.647 592.304 617.212 592.304 619.886V620.96Z" fill="#001416"/>
<path d="M444.947 621.333C445.127 624.041 444.223 626.709 442.435 628.752C440.648 630.794 438.122 632.042 435.414 632.222L433.133 632.373C430.425 632.553 427.756 631.65 425.714 629.862C423.672 628.074 422.423 625.549 422.244 622.841L422.108 620.807C421.929 618.099 422.832 615.43 424.62 613.388C426.407 611.346 428.933 610.098 431.641 609.918L433.922 609.766C436.631 609.586 439.299 610.49 441.341 612.277C443.383 614.065 444.632 616.591 444.812 619.299L444.947 621.333Z" fill="#001416"/>
<path d="M695.149 620.969C695.152 622.278 694.896 623.575 694.397 624.786C693.898 625.997 693.165 627.097 692.241 628.025C691.317 628.953 690.219 629.689 689.01 630.192C687.801 630.695 686.505 630.956 685.195 630.958L620.82 631.07C619.51 631.073 618.213 630.817 617.002 630.318C615.792 629.819 614.691 629.086 613.764 628.162C612.836 627.238 612.1 626.14 611.596 624.931C611.093 623.722 610.833 622.425 610.831 621.116L610.829 619.986C610.826 618.677 611.082 617.38 611.581 616.169C612.08 614.958 612.813 613.858 613.737 612.93C614.661 612.003 615.759 611.266 616.968 610.763C618.177 610.26 619.473 610 620.783 609.997L685.158 609.885C686.468 609.883 687.765 610.138 688.976 610.637C690.186 611.136 691.287 611.869 692.214 612.793C693.142 613.718 693.878 614.816 694.382 616.025C694.885 617.234 695.145 618.53 695.147 619.839L695.149 620.969Z" fill="#001416"/>
<path d="M444.731 658C444.431 659.439 443.844 660.804 443.005 662.017C442.167 663.23 441.092 664.266 439.843 665.067C438.594 665.869 437.194 666.419 435.725 666.687C434.255 666.955 432.744 666.935 431.278 666.629C428.318 666.01 425.72 664.262 424.056 661.769C422.392 659.276 421.798 656.243 422.405 653.336C422.706 651.896 423.293 650.531 424.131 649.319C424.97 648.106 426.045 647.07 427.294 646.268C428.543 645.467 429.943 644.917 431.412 644.649C432.882 644.381 434.392 644.401 435.858 644.707C438.819 645.326 441.417 647.074 443.081 649.566C444.745 652.059 445.339 655.093 444.731 658Z" fill="#001416"/>
<path d="M513.03 666.411C511.636 666.771 510.183 666.847 508.754 666.633C507.325 666.419 505.948 665.92 504.701 665.165C503.454 664.409 502.362 663.412 501.487 662.23C500.612 661.048 499.972 659.704 499.602 658.275C499.232 656.846 499.141 655.36 499.333 653.902C499.525 652.444 499.997 651.042 500.721 649.777C501.445 648.512 502.408 647.408 503.555 646.528C504.701 645.648 506.008 645.01 507.402 644.649C508.796 644.289 510.249 644.213 511.678 644.427C513.108 644.641 514.485 645.139 515.732 645.895C516.979 646.65 518.071 647.648 518.946 648.83C519.82 650.012 520.461 651.356 520.83 652.785C521.2 654.214 521.291 655.7 521.099 657.158C520.907 658.616 520.436 660.018 519.711 661.283C518.987 662.548 518.024 663.652 516.878 664.532C515.732 665.412 514.424 666.05 513.03 666.411Z" fill="#001416"/>
<path d="M556.617 655.544C556.617 658.561 555.419 661.455 553.285 663.589C551.152 665.722 548.258 666.921 545.241 666.921C542.224 666.921 539.33 665.722 537.196 663.589C535.063 661.455 533.864 658.561 533.864 655.544C533.864 652.527 535.063 649.633 537.196 647.5C539.33 645.366 542.224 644.167 545.241 644.167C548.258 644.167 551.152 645.366 553.285 647.5C555.419 649.633 556.617 652.527 556.617 655.544Z" fill="#001416"/>
<path d="M590.131 663.509C589.096 664.54 587.864 665.354 586.506 665.904C585.148 666.454 583.691 666.73 582.217 666.714C580.742 666.699 579.281 666.394 577.915 665.815C576.549 665.237 575.306 664.398 574.257 663.344C573.207 662.291 572.372 661.045 571.799 659.678C571.225 658.31 570.925 656.847 570.915 655.373C570.905 653.899 571.185 652.442 571.74 651.086C572.295 649.73 573.113 648.501 574.148 647.47C575.183 646.438 576.415 645.624 577.773 645.074C579.131 644.524 580.589 644.249 582.063 644.264C583.537 644.279 584.999 644.585 586.364 645.163C587.73 645.741 588.973 646.581 590.023 647.634C591.072 648.687 591.907 649.933 592.481 651.301C593.054 652.668 593.355 654.131 593.365 655.605C593.375 657.079 593.094 658.536 592.54 659.892C591.985 661.248 591.166 662.477 590.131 663.509Z" fill="#001416"/>
<path d="M483.607 655.696C483.607 658.655 482.432 661.492 480.34 663.584C478.248 665.677 475.41 666.852 472.451 666.852C469.492 666.852 466.655 665.677 464.562 663.584C462.47 661.492 461.295 658.655 461.295 655.696C461.295 652.737 462.47 649.899 464.562 647.807C466.655 645.715 469.492 644.54 472.451 644.54C475.41 644.54 478.248 645.715 480.34 647.807C482.432 649.899 483.607 652.737 483.607 655.696Z" fill="#001416"/>
<path d="M686.925 665.351L619.134 665.502C612.927 663.014 610.324 658.854 611.325 653.024C612.55 645.931 616.972 644.746 623.762 644.732C642.594 644.723 661.427 644.709 680.259 644.691C687.765 644.677 694.211 645.765 695.175 654.057C695.85 659.965 692.2 663.601 686.925 665.351Z" fill="#001416"/>
<path d="M619.135 665.502L686.926 665.35C688.119 665.479 688.983 666.085 689.515 667.168C689.594 667.328 689.631 667.505 689.623 667.682C689.616 667.86 689.564 668.033 689.472 668.185C689.38 668.337 689.251 668.464 689.097 668.554C688.944 668.643 688.77 668.692 688.592 668.697C669.108 669.285 649.463 669.496 629.657 669.331C625.952 669.303 622.33 668.518 618.625 667.967C618.184 667.903 617.941 667.65 617.895 667.21C617.776 666.163 618.189 665.594 619.135 665.502Z" fill="white"/>
<path d="M365.325 334.7C360.752 338.455 355.486 341.077 349.527 342.564" stroke="#83D5EB" stroke-width="2"/>
<path d="M362.667 629.843C361.217 633.571 358.361 635.876 354.1 636.757C353.66 636.849 353.292 637.065 352.999 637.405C352.282 638.231 351.736 639.085 351.36 639.966C350.983 640.83 350.308 641.123 349.335 640.848" stroke="#83D5EB" stroke-width="2"/>
<path d="M365.326 334.7C360.754 338.455 355.488 341.077 349.528 342.564C348.991 333.24 358.137 326.34 365.326 334.7Z" fill="white"/>
<path d="M365.325 334.7C368.291 338.161 369.214 341.522 368.093 344.782C364.939 353.996 349.596 354.216 349.527 342.564C355.486 341.077 360.752 338.455 365.325 334.7Z" fill="#06ABD7"/>
<path d="M362.667 629.843C361.217 633.571 358.361 635.876 354.1 636.757C353.66 636.849 353.292 637.065 352.999 637.405C352.282 638.231 351.736 639.085 351.36 639.966C350.983 640.829 350.308 641.123 349.335 640.848C350.878 630.738 355.322 627.07 362.667 629.843Z" fill="white"/>
<path d="M362.667 629.843C365.119 632.029 366.808 634.434 367.736 637.06C371.661 648.203 353.55 654.497 349.335 640.848C350.308 641.123 350.983 640.83 351.36 639.966C351.736 639.085 352.282 638.231 352.999 637.405C353.292 637.065 353.66 636.849 354.1 636.757C358.361 635.876 361.217 633.571 362.667 629.843Z" fill="#06ABD7"/>
</svg>
