<svg width="1024" height="1024" viewBox="0 0 1024 1024" fill="none" xmlns="http://www.w3.org/2000/svg">
<rect width="1024" height="1024" fill="white"/>
<path d="M334.672 683.207C323.071 684.336 314.486 677.173 314.253 665.513C313.941 650.317 313.948 640.169 314.272 635.069C314.428 632.5 314.24 630.897 313.708 630.261C306.272 621.385 300.984 611.549 297.844 600.752C296.105 594.77 295.229 586.399 295.216 575.642C295.19 509.317 295.177 443.142 295.177 377.115C295.177 376.551 295.04 375.996 294.779 375.498C294.518 374.999 294.14 374.573 293.678 374.254C266.602 355.587 255.915 322.963 271.682 292.772C279.871 277.096 291.991 266.838 308.043 261.998C314.687 259.999 326.036 259 342.088 259C392.97 259.013 443.859 259.11 494.754 259.292C518.93 259.389 540.595 277.94 549.724 299.76C559.963 324.228 551.865 350.506 532.556 367.714C532.096 368.126 531.737 368.64 531.507 369.218C531.278 369.795 531.183 370.419 531.232 371.042C531.602 375.441 532.77 382.41 535.943 385.972C538.032 388.308 539.265 389.962 539.641 390.936C542.107 397.217 541.121 403.082 536.682 408.532C536.241 409.077 536.306 409.551 536.877 409.953C544.78 415.559 545.967 423.17 546.474 432.358C546.525 433.123 546.928 433.48 547.68 433.428C559.535 432.65 564.479 437.886 566.893 448.436C567.048 449.111 567.47 449.494 568.158 449.584C576.165 450.571 581.563 454.84 584.353 462.393C584.625 463.119 585.138 463.424 585.891 463.308C598.29 461.458 607.147 459.2 616.471 469.498C616.9 469.964 617.469 470.273 618.086 470.374C628.403 472.086 637.104 467.979 646.564 468.797C693.339 472.846 727.812 504.243 738.596 549.519C739.491 553.276 738.81 558.571 741.73 562.035C768.748 594.173 775.502 643.42 762.888 682.895C747.277 731.656 701.962 764.766 649.99 764.786C534.989 764.825 419.982 764.896 304.968 765C291.796 765.013 280.182 761.211 270.125 753.593C255.098 742.187 249.278 720.716 259.906 704.366C265.843 695.236 274.037 693.407 285.288 693.407C301.704 693.42 318.023 693.368 334.244 693.251C335.152 693.251 335.632 692.803 335.684 691.908L336.132 684.608C336.197 683.583 335.71 683.116 334.672 683.207Z" fill="black"/>
<path d="M524.108 313.211C523.459 314.963 523.154 317.006 523.193 319.342C523.193 319.952 523.044 320.517 522.745 321.036C522.278 321.84 521.83 322.599 521.402 323.313C511.494 340.19 485.489 340.89 473.634 325.902C473.219 325.383 472.7 325.026 472.077 324.831C464.427 322.535 450.49 332.034 441.342 333.163C431.161 334.428 419.949 331.508 410.1 327.81C401.905 324.715 396.785 334.428 389.33 337.153C379.325 340.832 364.921 339.489 354.663 337.172C349.952 336.102 343.645 330.165 336.871 328.082C330.02 325.98 325.29 331.08 318.73 331.819C304.494 333.403 296.689 326.544 295.313 311.245" stroke="#BDDAE0" stroke-width="2"/>
<path d="M293.522 322.087L295.196 312.685" stroke="#3E788B" stroke-width="2"/>
<path d="M470.442 396.931C454.286 395.335 438.071 394.783 421.798 395.276C407.718 395.692 396.649 395.789 388.591 395.568C374.485 395.192 360.366 395.03 346.234 395.082C345.209 395.082 344.645 395.588 344.541 396.6C344.022 401.051 343.782 405.593 343.82 410.226C344.015 430.989 344.294 451.758 344.657 472.534C344.709 476.038 346.487 477.647 349.991 477.361C350.363 477.336 350.735 477.389 351.081 477.517C358.076 480.126 362.28 482.092 363.695 483.415C371.39 490.695 371.533 499.656 364.123 510.297" stroke="#EE233B" stroke-width="2"/>
<path d="M624.062 498.987C623.024 502.465 622.109 506.079 621.317 509.829C620.63 513.126 620.351 516.818 620.48 520.905C620.883 533.155 620.87 545.412 620.441 557.675C620.169 565.033 619.741 573.792 628.305 577.16" stroke="#FFA29B" stroke-width="2"/>
<path d="M628.091 595.087C624.289 594.62 620.5 594.426 616.724 594.503C586.163 595.087 556.848 593.705 524.925 594.289C493.054 594.873 461.125 594.841 429.137 594.192" stroke="#EE233B" stroke-width="2"/>
<path d="M681.932 510.842C681.958 513.528 681.368 515.753 680.161 517.518C679.813 518.03 679.364 518.465 678.842 518.796C678.32 519.128 677.735 519.35 677.123 519.449C676.511 519.547 675.884 519.52 675.282 519.368C674.68 519.217 674.115 518.945 673.621 518.569L657.309 506.112" stroke="#FFA29B" stroke-width="2"/>
<path d="M707.568 547.65C709.514 564.858 680.745 560.439 686.039 581.462C686.805 584.459 687.266 587.314 687.421 590.026C687.603 592.959 686.221 594.464 683.275 594.542L657.309 595.185" stroke="#EE233B" stroke-width="2"/>
<path d="M339.947 534.784C338.481 537.198 338.091 539.579 338.779 541.928C338.961 542.564 339.357 543.024 339.966 543.31L353.651 549.753" stroke="#808991" stroke-width="2"/>
<path d="M353.651 549.753L354.857 552.011C355.078 552.413 354.961 552.66 354.507 552.751C352.729 553.088 350.932 554.347 349.115 556.527" stroke="#01273C" stroke-width="2"/>
<path d="M349.116 556.527C344.145 555.502 340.765 557.072 338.974 561.237" stroke="#808991" stroke-width="2"/>
<path d="M338.974 561.237C330.117 596.47 365.447 609.686 389.934 592.012C392.4 590.234 393.198 588.638 392.328 587.224" stroke="#01273C" stroke-width="2"/>
<path d="M392.328 587.224C394.456 585.316 396.202 583.149 397.564 580.722" stroke="#808991" stroke-width="2"/>
<path d="M392.328 587.224C388.889 585.446 385.872 582.474 383.277 578.308C379.267 571.911 377.015 568.414 376.522 567.817C370.189 560.342 362.565 554.321 353.65 549.753" stroke="#809EAA" stroke-width="2"/>
<path d="M338.974 561.237C339.48 570.308 352.152 570.756 353.32 563.028C353.8 559.862 352.399 557.695 349.116 556.527" stroke="#809EAA" stroke-width="2"/>
<path d="M372.551 737.807L299.653 737.281" stroke="#34748C" stroke-width="2"/>
<path d="M291.303 731.773C296.377 732.59 301.166 732.843 305.669 732.532C320.579 731.481 335.859 731.053 350.594 731.072C434.71 731.085 518.826 731.215 602.942 731.461C617.035 731.5 631.05 730.799 645.163 730.274C657.127 729.833 666.399 728.632 672.978 726.673C701.028 718.322 729.934 692.881 735.89 663.605C737.934 653.581 739.063 628.412 732.425 618.329C731.102 616.305 729.713 614.228 728.26 612.1" stroke="#B4D5E1" stroke-width="2"/>
<path d="M362.858 721.398C367.387 720.204 371.721 720.165 375.861 721.281" stroke="#BDDAE0" stroke-width="2"/>
<path d="M376.269 697.475C370.299 698.863 365.835 698.331 362.876 695.879" stroke="#BDDAE0" stroke-width="2"/>
<path d="M524.108 313.211C523.459 314.962 523.154 317.006 523.193 319.342C523.193 319.952 523.044 320.517 522.745 321.036C522.278 321.84 521.83 322.599 521.402 323.313C511.494 340.189 485.489 340.89 473.634 325.902C473.219 325.383 472.7 325.026 472.077 324.831C464.427 322.535 450.49 332.034 441.342 333.162C431.161 334.428 419.949 331.508 410.1 327.81C401.905 324.715 396.785 334.428 389.33 337.153C379.325 340.832 364.921 339.489 354.663 337.172C349.952 336.102 343.645 330.165 336.871 328.082C330.02 325.98 325.29 331.08 318.73 331.819C304.494 333.403 296.689 326.544 295.313 311.245C300.828 295.841 311.021 288.139 325.893 288.139C410.139 288.152 467.075 288.405 496.701 288.898C509.275 289.113 520.079 302.038 524.108 313.211Z" fill="white"/>
<path d="M295.313 311.245C296.688 326.545 304.494 333.403 318.73 331.82C325.289 331.08 330.019 325.98 336.871 328.082C343.645 330.165 349.952 336.102 354.662 337.173C364.921 339.489 379.325 340.832 389.33 337.153C396.785 334.428 401.905 324.715 410.1 327.81C419.949 331.508 431.161 334.428 441.341 333.163C450.49 332.034 464.427 322.535 472.077 324.832C472.7 325.026 473.219 325.383 473.634 325.902C485.489 340.89 511.494 340.19 521.402 323.313C521.83 322.6 522.278 321.84 522.745 321.036C523.044 320.517 523.193 319.952 523.193 319.342C523.154 317.007 523.459 314.963 524.108 313.211C526.482 323.878 524.121 333.292 517.022 341.455C505.032 355.217 488.876 352.317 473.342 348.54C460.242 345.367 442.957 352.083 430.032 350.993C414.577 349.708 399.115 349.637 383.646 350.779C378.644 351.168 373.33 350.915 368.522 349.825C356.804 347.165 346.643 346.951 338.039 349.183C332.706 350.571 327.846 351.272 323.46 351.285C306.972 351.285 295.293 338.048 293.522 322.087L295.196 312.685C295.417 312.049 295.456 311.569 295.313 311.245Z" fill="#7BB4C1"/>
<path d="M295.196 312.685L293.522 322.087C291.952 318.622 292.51 315.488 295.196 312.685Z" fill="#003C55"/>
<path d="M470.442 396.931C454.286 395.335 438.071 394.783 421.798 395.276C407.718 395.692 396.649 395.789 388.59 395.568C374.484 395.192 360.366 395.03 346.234 395.082C345.209 395.082 344.644 395.588 344.54 396.6C344.021 401.051 343.781 405.593 343.82 410.226C344.015 430.989 344.294 451.758 344.657 472.534C344.709 476.038 346.487 477.647 349.991 477.361C350.363 477.336 350.734 477.389 351.081 477.517C358.075 480.126 362.28 482.091 363.694 483.415C371.389 490.695 371.532 499.656 364.122 510.297C356.531 507.727 346.208 505.164 333.153 502.608C325.698 501.148 324.511 495.153 324.355 488.009C323.524 452.634 323.531 417.272 324.374 381.923C324.376 381.776 324.409 381.63 324.47 381.496C324.531 381.361 324.619 381.241 324.729 381.142C324.838 381.044 324.967 380.969 325.107 380.922C325.247 380.876 325.395 380.859 325.542 380.872C331.518 381.281 336.482 381.067 342.769 379.626C349.893 378.004 354.974 377.466 358.01 378.011C379.578 381.923 400.114 378.478 421.856 380.055C437.292 381.184 449.633 379.023 463.609 377.758C469.546 377.232 480.486 381.534 487.007 382.118C493.781 382.728 500.379 382.384 506.803 381.086C507.646 380.918 508.146 381.255 508.302 382.098L508.457 383.013C508.639 384.026 508.211 384.564 507.173 384.629C501.139 384.966 495 385.187 488.759 385.291C483.776 385.382 480.116 386.102 477.78 387.451C474.147 389.541 471.701 392.7 470.442 396.931Z" fill="#DD023E"/>
<path d="M470.442 396.931C472.077 417.447 493.1 413.691 509.509 413.223C509.838 413.216 510.164 413.274 510.47 413.395C510.776 413.516 511.054 413.697 511.288 413.928C511.522 414.158 511.708 414.433 511.834 414.737C511.959 415.041 512.023 415.367 512.02 415.695L511.942 422.431C511.94 422.763 511.871 423.091 511.741 423.397C511.61 423.703 511.42 423.981 511.182 424.214C510.943 424.447 510.66 424.632 510.35 424.756C510.04 424.881 509.708 424.944 509.373 424.941C497.888 424.812 490.258 424.935 486.481 425.311C473.771 426.557 467.406 444.134 479.221 451.356C486.618 455.872 507.777 453.555 516.653 452.933C517.327 452.881 517.879 453.004 518.307 453.302C518.371 453.347 518.425 453.404 518.465 453.47C518.506 453.536 518.532 453.609 518.543 453.686C518.554 453.762 518.549 453.841 518.529 453.915C518.508 453.99 518.473 454.06 518.424 454.12C513.207 460.323 507.413 465.845 501.042 470.685C496.642 474.033 493.859 476.914 492.691 479.327C488.584 487.912 492.302 496.496 501.042 500.155C515.29 506.112 518.463 495.464 526.444 487.736C532.906 481.482 539.129 474.76 545.111 467.57C545.669 466.883 546.246 466.87 546.843 467.532L551.69 473.079C552.222 473.689 552.274 474.338 551.846 475.026C546.694 483.331 540.848 491.123 534.308 498.403C518.774 515.689 539.738 541.792 555.194 524.448C556.245 523.267 557.569 520.6 559.165 516.448C563.583 505.08 574.426 497.119 580.46 486.627C580.629 486.303 580.869 486.238 581.18 486.432L591.321 492.797C591.555 492.94 591.6 493.135 591.458 493.381C586.436 502.238 576.82 513.664 575.224 522.307C573.433 531.884 579.409 542.551 589.278 544.205C597.161 545.548 605.726 537.607 605.687 529.431C605.661 527.303 605.583 525.175 605.453 523.047C605.414 522.398 605.609 521.833 606.037 521.353C612.694 513.937 616.49 505.294 618.904 495.717C619.111 494.9 619.527 494.776 620.15 495.347L624.062 498.987C623.024 502.465 622.109 506.079 621.317 509.83C620.63 513.126 620.351 516.818 620.48 520.905C620.883 533.155 620.87 545.412 620.442 557.675C620.169 565.033 619.741 573.792 628.306 577.16L628.091 595.087C624.289 594.62 620.5 594.426 616.724 594.503C586.163 595.087 556.848 593.705 524.925 594.289C493.054 594.873 461.125 594.841 429.137 594.192C428.28 589.702 427.346 585.173 426.334 580.605C419.229 548.449 393.554 523.806 364.123 510.297C371.533 499.656 371.39 490.695 363.695 483.415C362.28 482.092 358.076 480.126 351.081 477.517C350.735 477.389 350.363 477.336 349.991 477.361C346.487 477.647 344.709 476.038 344.657 472.534C344.294 451.758 344.015 430.989 343.82 410.226C343.782 405.593 344.022 401.051 344.541 396.6C344.645 395.588 345.209 395.082 346.234 395.082C360.366 395.03 374.485 395.192 388.591 395.568C396.649 395.789 407.718 395.692 421.798 395.276C438.071 394.783 454.286 395.335 470.442 396.931Z" fill="#FF4437"/>
<path d="M681.932 510.842C681.958 513.528 681.368 515.753 680.161 517.518C679.813 518.03 679.364 518.465 678.842 518.796C678.32 519.128 677.735 519.35 677.123 519.449C676.511 519.547 675.884 519.52 675.282 519.368C674.68 519.217 674.115 518.945 673.621 518.569L657.309 506.112L657.776 498.793C657.782 498.679 657.814 498.568 657.87 498.469C657.926 498.37 658.004 498.285 658.098 498.221C658.193 498.157 658.3 498.115 658.413 498.1C658.526 498.084 658.641 498.095 658.749 498.131C667.392 500.83 675.119 505.067 681.932 510.842Z" fill="white"/>
<path d="M624.062 498.987L626.709 498.754C627.397 498.689 627.76 499 627.799 499.688C629.279 525.447 629.447 551.271 628.305 577.16C619.741 573.792 620.169 565.033 620.441 557.675C620.87 545.412 620.883 533.155 620.48 520.905C620.351 516.818 620.63 513.126 621.317 509.829C622.109 506.079 623.024 502.465 624.062 498.987Z" fill="white"/>
<path d="M657.309 506.112L673.621 518.57C674.115 518.946 674.68 519.217 675.282 519.369C675.884 519.52 676.511 519.547 677.123 519.449C677.735 519.35 678.32 519.128 678.842 518.797C679.364 518.465 679.813 518.03 680.161 517.518C681.368 515.754 681.958 513.528 681.932 510.842C694.487 518.803 703.363 533.441 707.568 547.651C709.514 564.858 680.745 560.439 686.039 581.462C686.805 584.459 687.266 587.314 687.421 590.027C687.603 592.959 686.221 594.465 683.275 594.543L657.309 595.185V506.112Z" fill="#FF4437"/>
<path d="M339.947 534.784C338.481 537.198 338.091 539.579 338.779 541.928C338.961 542.564 339.356 543.025 339.966 543.31L353.65 549.753L354.857 552.011C355.078 552.413 354.961 552.66 354.507 552.751C352.729 553.088 350.932 554.347 349.115 556.527C344.145 555.502 340.764 557.072 338.974 561.238C330.117 596.47 365.446 609.687 389.934 592.012C392.399 590.234 393.197 588.638 392.328 587.224C394.456 585.316 396.202 583.149 397.564 580.722C400.315 589.365 401.438 598.63 400.932 608.519C400.854 610.329 401.73 612.451 401.516 614.456C401.451 615.143 401.074 615.546 400.387 615.662C395.073 616.538 389.505 615.565 384.853 615.877C369.631 616.869 352.95 617.434 341.154 610.932C329.299 604.411 323.44 589.696 323.635 576.751C323.693 572.391 323.012 568.362 323.44 564.021C324.128 557.208 324.057 550.389 323.226 543.563C322.889 540.773 324.109 537.289 326.886 533.11C327.21 532.617 327.664 532.325 328.248 532.234C330.052 531.962 331.797 532.001 333.484 532.351C335.781 532.857 336.871 534.959 339.947 534.784Z" fill="#011223"/>
<path d="M397.564 580.722C396.202 583.149 394.456 585.316 392.328 587.223C388.889 585.446 385.872 582.474 383.277 578.308C379.267 571.911 377.015 568.414 376.522 567.817C370.19 560.342 362.566 554.321 353.651 549.753L339.966 543.31C339.357 543.024 338.961 542.564 338.779 541.928C338.091 539.579 338.481 537.198 339.947 534.784C342.426 534.135 344.573 534.109 346.39 534.706C370.177 542.414 387.235 557.753 397.564 580.722Z" fill="white"/>
<path d="M707.569 547.65C709.489 552.608 710.463 557.863 710.489 563.417C710.605 584.654 706.79 601.122 686.78 612.45C679.441 616.596 667.334 615.429 659.061 615.506C658.827 615.509 658.595 615.465 658.377 615.377C658.16 615.289 657.963 615.159 657.796 614.995C657.63 614.83 657.497 614.634 657.407 614.417C657.317 614.201 657.27 613.969 657.271 613.735L657.309 595.185L683.276 594.542C686.222 594.464 687.604 592.959 687.422 590.026C687.266 587.314 686.806 584.459 686.04 581.462C680.746 560.439 709.515 564.858 707.569 547.65Z" fill="#DD023E"/>
<path d="M353.651 549.753C362.566 554.321 370.19 560.342 376.522 567.817C377.015 568.414 379.267 571.911 383.277 578.308C385.872 582.474 388.889 585.446 392.328 587.224C393.198 588.638 392.4 590.234 389.934 592.012C365.447 609.687 330.117 596.47 338.974 561.237C339.48 570.308 352.152 570.756 353.32 563.028C353.8 559.862 352.398 557.695 349.115 556.527C350.932 554.347 352.729 553.088 354.507 552.751C354.961 552.66 355.078 552.413 354.857 552.011L353.651 549.753Z" fill="#003C55"/>
<path d="M349.116 556.527C352.399 557.695 353.8 559.862 353.32 563.028C352.152 570.756 339.48 570.308 338.974 561.237C340.765 557.072 344.145 555.502 349.116 556.527Z" fill="white"/>
<path d="M628.091 595.088L627.488 613.794C627.483 614.08 627.366 614.352 627.162 614.552C626.958 614.752 626.684 614.865 626.398 614.864L430.85 614.767C430.65 614.767 430.457 614.691 430.312 614.553C430.167 614.415 430.081 614.227 430.071 614.027L429.137 594.192C461.125 594.841 493.054 594.874 524.925 594.29C556.848 593.706 586.163 595.088 616.724 594.504C620.5 594.426 624.289 594.62 628.091 595.088Z" fill="#DD023E"/>
<path d="M372.551 737.807L299.654 737.282L291.303 731.773C296.377 732.59 301.166 732.843 305.669 732.532C320.579 731.481 335.859 731.053 350.594 731.072C434.71 731.085 518.826 731.215 602.942 731.461C617.035 731.5 631.05 730.799 645.163 730.274C657.127 729.833 666.399 728.632 672.978 726.673C701.028 718.322 729.934 692.881 735.89 663.605C737.934 653.581 739.063 628.412 732.425 618.329C731.102 616.305 729.713 614.228 728.26 612.1C728.221 609.855 729.168 608.266 731.102 607.331C731.488 607.147 731.909 607.05 732.337 607.045C732.764 607.041 733.187 607.13 733.575 607.307C733.963 607.483 734.307 607.742 734.583 608.066C734.858 608.39 735.059 608.77 735.17 609.181C736.591 614.28 739.044 619.01 739.861 624.11C740.912 630.793 741.522 635.089 741.691 636.996C745.74 683.674 716.016 723.675 670.954 734.809C664.193 736.483 655.005 737.307 643.391 737.282C553.085 737.1 462.805 737.275 372.551 737.807Z" fill="#68ABC3"/>
<path d="M291.303 731.773C287.968 730.021 285.775 727.133 284.724 723.111C284.668 722.89 284.663 722.66 284.709 722.438C284.755 722.215 284.851 722.006 284.989 721.826C285.128 721.646 285.306 721.5 285.51 721.398C285.713 721.297 285.937 721.244 286.165 721.242L362.858 721.398C367.387 720.204 371.721 720.165 375.861 721.281C459.912 721.125 543.989 721.067 628.092 721.106C647.038 721.119 659.95 720.275 666.828 718.575C710.235 707.811 738.752 665.416 724.114 621.229C723.906 620.594 723.958 619.984 724.27 619.4L728.26 612.1C729.713 614.228 731.102 616.305 732.426 618.329C739.063 628.412 737.934 653.581 735.89 663.605C729.934 692.881 701.028 718.322 672.979 726.673C666.399 728.632 657.127 729.833 645.163 730.274C631.05 730.799 617.035 731.5 602.942 731.461C518.827 731.215 434.711 731.085 350.595 731.072C335.859 731.053 320.579 731.481 305.669 732.532C301.166 732.843 296.377 732.59 291.303 731.773Z" fill="white"/>
<path d="M697.193 638.592C697.295 638.542 697.408 638.517 697.522 638.518C697.636 638.52 697.748 638.548 697.848 638.602C697.949 638.655 698.036 638.731 698.101 638.824C698.167 638.917 698.209 639.025 698.225 639.137C702.507 672.112 678.954 692.959 647.576 693.212C631.329 693.355 615.056 693.374 598.757 693.27C598.406 693.27 598.07 693.131 597.822 692.883C597.573 692.634 597.434 692.298 597.434 691.947L597.356 643.887C597.356 643.342 597.628 643.063 598.173 643.05C619.572 642.777 640.893 642.81 662.136 643.147C674.205 643.342 686.001 644.218 697.193 638.592Z" fill="#FFF9F6"/>
<path d="M399.725 643.906L398.732 652.919C398.684 653.315 398.494 653.679 398.197 653.945C397.899 654.21 397.515 654.357 397.116 654.359L343.567 654.69C343.349 654.693 343.133 654.652 342.931 654.57C342.729 654.487 342.546 654.366 342.391 654.212C342.237 654.057 342.116 653.874 342.033 653.672C341.951 653.47 341.91 653.254 341.913 653.036L342.068 642.505C342.071 642.289 342.116 642.075 342.202 641.876C342.288 641.677 342.412 641.498 342.568 641.348C342.724 641.197 342.908 641.079 343.109 641.001C343.311 640.922 343.526 640.884 343.742 640.889L398.128 642.096C398.355 642.1 398.579 642.152 398.785 642.247C398.991 642.342 399.175 642.479 399.325 642.65C399.476 642.82 399.589 643.02 399.657 643.236C399.726 643.452 399.749 643.681 399.725 643.906Z" fill="#003C55"/>
<path d="M428.144 642.836L567.846 643.089C568.612 643.089 569.001 643.471 569.014 644.237L569.19 691.402C569.19 691.758 569.048 692.099 568.796 692.351C568.544 692.603 568.203 692.745 567.846 692.745L407.141 693.465C405.156 693.465 404.098 692.479 403.968 690.506L403.618 684.822C403.488 682.915 404.377 681.935 406.285 681.883C414.071 681.688 420.319 681.494 424.816 674.467C428.923 668.063 427.249 651.712 427.171 643.809C427.171 643.679 427.196 643.551 427.245 643.432C427.295 643.313 427.367 643.204 427.457 643.114C427.548 643.023 427.655 642.952 427.773 642.904C427.891 642.856 428.017 642.833 428.144 642.836Z" fill="#FFF9F6"/>
<path d="M376.269 697.475C370.299 698.863 365.835 698.331 362.876 695.879L363.13 683.46C363.155 682.629 363.584 682.207 364.414 682.195L374.575 682.039C374.758 682.034 374.941 682.065 375.111 682.131C375.282 682.197 375.438 682.296 375.571 682.423C375.703 682.55 375.809 682.701 375.882 682.869C375.955 683.037 375.994 683.218 375.996 683.401L376.269 697.475Z" fill="white"/>
<path d="M362.877 695.879C365.836 698.332 370.3 698.864 376.269 697.475L375.861 721.281C371.721 720.165 367.387 720.204 362.858 721.398L362.877 695.879Z" fill="#7BB4C1"/>
<path d="M299.653 737.281L372.551 737.807C347.947 738.975 323.648 738.8 299.653 737.281Z" fill="#003C55"/>
<path d="M436.299 320.014C443.01 320.507 448.809 316.03 449.251 310.015C449.693 304.001 444.61 298.725 437.898 298.232C431.186 297.739 425.388 302.216 424.946 308.231C424.504 314.245 429.587 319.521 436.299 320.014Z" fill="black"/>
<path d="M377.029 328.155C384.935 326.575 390.177 319.449 388.736 312.238C387.295 305.028 379.718 300.463 371.811 302.043C363.905 303.623 358.663 310.749 360.104 317.959C361.545 325.17 369.122 329.735 377.029 328.155Z" fill="#02BFFA"/>
<path d="M421.98 442.863C423.939 450.961 431.964 455.969 439.906 454.047C447.847 452.126 452.696 444.004 450.737 435.906C448.778 427.808 440.752 422.801 432.811 424.722C424.87 426.643 420.02 434.765 421.98 442.863Z" fill="black"/>
<path d="M363.14 432.808C359.381 440.122 362.046 448.988 369.093 452.609C376.139 456.231 384.9 453.237 388.659 445.923C392.418 438.608 389.753 429.742 382.706 426.121C375.659 422.499 366.899 425.493 363.14 432.808Z" fill="black"/>
<path d="M446.948 502.55L452.613 502.647C455.078 502.673 456.629 503.886 457.265 506.287L457.557 507.455C458.206 509.921 457.252 511.173 454.695 511.212L445.936 511.329C445.118 511.341 444.775 511.75 444.904 512.555C445.229 514.813 446.572 516.078 448.934 516.351C449.912 516.458 450.819 516.915 451.488 517.637C452.156 518.359 452.542 519.299 452.574 520.282C452.703 524.785 450.698 527.803 446.559 529.334C446.402 529.395 446.233 529.419 446.065 529.403C445.897 529.388 445.735 529.333 445.591 529.245C445.448 529.156 445.327 529.035 445.238 528.892C445.15 528.749 445.095 528.587 445.08 528.419C444.989 527.472 445.138 526.55 445.527 525.655C445.584 525.525 445.609 525.383 445.599 525.242C445.589 525.1 445.544 524.963 445.47 524.842C445.395 524.722 445.292 524.621 445.17 524.549C445.048 524.477 444.91 524.436 444.768 524.429C437.968 524.182 434.724 520.639 435.035 513.801C435.052 513.459 434.95 513.122 434.748 512.846C434.547 512.57 434.256 512.371 433.926 512.282C432.511 511.893 431.077 511.757 429.624 511.873C429.521 511.873 429.429 511.86 429.352 511.835C422.954 509.719 421.384 507.643 424.641 505.606C427.483 503.815 430.5 503.023 433.692 503.231C433.906 503.247 434.12 503.219 434.323 503.15C434.525 503.08 434.711 502.97 434.869 502.826C435.028 502.682 435.155 502.507 435.244 502.313C435.333 502.118 435.381 501.907 435.386 501.693L435.483 497.897C435.493 497.499 435.583 497.106 435.746 496.742C435.91 496.378 436.145 496.051 436.436 495.779C436.728 495.507 437.072 495.296 437.446 495.158C437.82 495.021 438.219 494.959 438.617 494.978C442.925 495.159 445.3 497.32 445.741 501.46C445.819 502.186 446.221 502.55 446.948 502.55Z" fill="white"/>
<path d="M677.969 545.609C681.738 548.287 686.837 547.581 689.359 544.032C691.881 540.483 690.871 535.435 687.103 532.757C683.335 530.079 678.236 530.786 675.714 534.335C673.191 537.884 674.201 542.931 677.969 545.609Z" fill="white"/>
<path d="M506.006 543.154L504.799 540.039C504.512 539.297 504.429 538.492 504.557 537.707C504.686 536.922 505.021 536.185 505.528 535.572C506.036 534.96 506.697 534.493 507.445 534.221C508.193 533.949 508.999 533.881 509.782 534.025C512.922 534.596 514.895 536.568 515.699 539.942C515.868 540.669 515.712 541.318 515.232 541.889C512.948 544.536 511.521 547.56 510.95 550.959C510.874 551.41 510.896 551.871 511.015 552.312C511.134 552.753 511.347 553.163 511.639 553.514C511.931 553.865 512.295 554.149 512.707 554.347C513.119 554.544 513.569 554.65 514.025 554.658C516.114 554.671 517.276 555.767 517.509 557.948C517.899 561.588 514.862 564.624 511.475 565.286C510.839 565.403 510.392 565.163 510.132 564.566C507.913 559.232 503.637 554.139 497.305 549.285C494.793 547.339 494.151 541.11 498.297 539.903C501.937 538.852 502.619 542.414 505.169 543.874C506.129 544.419 506.408 544.179 506.006 543.154Z" fill="white"/>
<path d="M487.825 557.617C487.847 558.124 487.691 558.622 487.385 559.025C487.079 559.427 486.642 559.707 486.151 559.816C483.231 560.478 480.435 560.134 477.762 558.785C477.489 558.648 477.257 558.443 477.09 558.19C476.922 557.937 476.825 557.646 476.808 557.344C476.6 553.516 478.384 550.985 482.161 549.753C483.032 549.469 483.978 549.526 484.809 549.912C485.64 550.299 486.294 550.986 486.638 551.835C487.364 553.678 487.76 555.605 487.825 557.617Z" fill="white"/>
<path d="M591.09 585.232C596.392 583.458 599.442 578.293 597.904 573.695C596.365 569.097 590.821 566.808 585.519 568.582C580.218 570.356 577.168 575.521 578.706 580.119C580.244 584.717 585.789 587.006 591.09 585.232Z" fill="#84160A"/>
</svg>
