<svg width="1024" height="1024" viewBox="0 0 1024 1024" fill="none" xmlns="http://www.w3.org/2000/svg">
<rect width="1024" height="1024" fill="white"/>
<path d="M338.271 224.032C338.271 227.223 337.004 230.283 334.747 232.54C332.491 234.796 329.431 236.064 326.24 236.064C323.049 236.064 319.988 234.796 317.732 232.54C315.475 230.283 314.208 227.223 314.208 224.032C314.208 220.841 315.475 217.78 317.732 215.524C319.988 213.268 323.049 212 326.24 212C329.431 212 332.491 213.268 334.747 215.524C337.004 217.78 338.271 220.841 338.271 224.032Z" fill="#001215"/>
<path d="M706.697 224.047C706.697 227.238 705.429 230.298 703.173 232.555C700.916 234.811 697.856 236.079 694.665 236.079C691.474 236.079 688.413 234.811 686.157 232.555C683.901 230.298 682.633 227.238 682.633 224.047C682.633 220.856 683.901 217.796 686.157 215.539C688.413 213.283 691.474 212.015 694.665 212.015C697.856 212.015 700.916 213.283 703.173 215.539C705.429 217.796 706.697 220.856 706.697 224.047Z" fill="#001215"/>
<path d="M290.237 255.265C289.928 258.309 289.012 261.261 287.543 263.953C286.073 266.645 284.078 269.024 281.672 270.954C279.265 272.884 276.495 274.328 273.518 275.202C270.541 276.077 267.417 276.365 264.323 276.051C258.074 275.416 252.33 272.365 248.353 267.57C244.376 262.774 242.493 256.626 243.117 250.479C243.427 247.435 244.342 244.482 245.812 241.79C247.281 239.098 249.276 236.72 251.683 234.789C254.089 232.859 256.86 231.416 259.836 230.541C262.813 229.667 265.938 229.378 269.032 229.693C275.28 230.327 281.025 233.378 285.001 238.174C288.978 242.969 290.861 249.117 290.237 255.265Z" fill="#001215"/>
<path d="M780.649 254.227C780.458 257.259 779.661 260.222 778.304 262.949C776.947 265.675 775.056 268.111 772.74 270.117C770.423 272.124 767.726 273.661 764.802 274.642C761.878 275.623 758.785 276.027 755.699 275.833C752.614 275.639 749.596 274.85 746.818 273.51C744.04 272.171 741.557 270.308 739.51 268.027C737.463 265.746 735.892 263.092 734.888 260.217C733.883 257.342 733.464 254.302 733.655 251.271C733.846 248.239 734.642 245.276 735.999 242.549C737.356 239.823 739.247 237.387 741.564 235.381C743.881 233.374 746.578 231.837 749.502 230.856C752.426 229.875 755.518 229.471 758.604 229.665C761.69 229.859 764.708 230.648 767.485 231.988C770.263 233.327 772.747 235.19 774.794 237.471C776.841 239.752 778.411 242.406 779.416 245.281C780.42 248.156 780.839 251.196 780.649 254.227Z" fill="#001215"/>
<path d="M350.333 272.634C354.813 271.063 359.354 269.664 363.957 268.44C409.911 256.204 458.507 250.096 509.747 250.117C578.571 250.162 642.052 256.638 703.727 283.64C725.479 293.177 747.308 310.735 753.017 333.452C754.181 338.126 754.773 344.494 754.793 352.556C754.967 462.281 754.977 572.002 754.824 681.717C754.813 689.208 754.15 695.188 752.834 699.658C746.435 721.41 728.188 737.116 708.503 746.958C676.877 762.802 639.649 772.553 605.742 777.788C530.321 789.407 450.828 787.248 376.892 769.537C355.869 764.496 336.235 757.414 317.988 748.29C294.69 736.641 272.509 714.996 272.601 687.427C272.754 638.299 272.897 547.576 273.029 415.256C273.06 385.528 272.932 361.929 272.647 344.458C272.575 339.886 273.647 334.661 275.861 328.783C287.893 296.836 320.728 282.967 350.333 272.634Z" fill="#001215"/>
<path d="M274.96 797.315C272.056 798.36 268.972 798.813 265.883 798.648C262.793 798.483 259.76 797.704 256.955 796.354C254.15 795.004 251.628 793.11 249.535 790.781C247.441 788.451 245.816 785.731 244.752 782.777C242.604 776.811 242.873 770.25 245.5 764.538C248.127 758.826 252.897 754.432 258.761 752.321C261.664 751.275 264.748 750.822 267.838 750.987C270.927 751.152 273.961 751.932 276.766 753.282C279.571 754.632 282.092 756.525 284.186 758.855C286.28 761.184 287.905 763.904 288.968 766.858C291.117 772.825 290.847 779.386 288.22 785.097C285.593 790.809 280.823 795.204 274.96 797.315Z" fill="#001215"/>
<path d="M747.317 796.418C744.537 795.121 742.044 793.279 739.982 790.995C737.92 788.711 736.329 786.03 735.299 783.106C734.269 780.183 733.821 777.072 733.979 773.954C734.138 770.835 734.901 767.769 736.225 764.931C737.549 762.092 739.407 759.537 741.694 757.411C743.981 755.284 746.651 753.629 749.553 752.538C752.455 751.448 755.531 750.944 758.606 751.055C761.681 751.167 764.695 751.892 767.475 753.188C770.255 754.484 772.748 756.327 774.81 758.611C776.872 760.895 778.463 763.576 779.493 766.5C780.523 769.423 780.972 772.533 780.813 775.652C780.654 778.771 779.891 781.837 778.567 784.675C777.243 787.514 775.385 790.069 773.098 792.195C770.812 794.322 768.141 795.977 765.239 797.068C762.337 798.158 759.261 798.662 756.186 798.551C753.111 798.439 750.097 797.714 747.317 796.418Z" fill="#001215"/>
<path d="M322.977 811.586C319.835 810.732 317.173 808.618 315.578 805.71C313.982 802.801 313.583 799.336 314.469 796.076C315.355 792.817 317.452 790.03 320.3 788.329C323.148 786.627 326.513 786.151 329.655 787.005C332.797 787.859 335.459 789.972 337.055 792.881C338.65 795.789 339.049 799.255 338.163 802.514C337.278 805.774 335.18 808.561 332.332 810.262C329.484 811.963 326.119 812.439 322.977 811.586Z" fill="#001215"/>
<path d="M692.83 811.647C691.261 811.376 689.763 810.785 688.422 809.907C687.081 809.029 685.923 807.881 685.014 806.53C684.105 805.179 683.463 803.65 683.124 802.031C682.785 800.412 682.757 798.734 683.04 797.094C683.612 793.781 685.42 790.822 688.065 788.867C690.71 786.911 693.976 786.12 697.144 786.668C698.713 786.939 700.211 787.53 701.552 788.408C702.893 789.286 704.051 790.434 704.96 791.785C705.869 793.136 706.511 794.665 706.85 796.284C707.188 797.903 707.217 799.581 706.934 801.221C706.361 804.534 704.554 807.493 701.909 809.448C699.264 811.404 695.998 812.195 692.83 811.647Z" fill="#001215"/>
<path d="M669.346 306.157L671.719 315.541" stroke="#B1E4EE" stroke-width="2"/>
<path d="M671.719 315.542C671.147 316.46 670.887 317.144 670.938 317.593C671.152 319.246 670.479 319.787 668.917 319.215C649.966 312.286 630.618 307.27 610.871 304.168C605.635 303.341 598.318 302.836 592.073 301.719C584.95 300.453 580.286 299.693 578.082 299.438C536.465 294.631 494.813 294.606 453.125 299.361C430.347 301.964 413.34 304.199 393.241 309.342C390.363 310.087 384.444 311.526 375.484 313.659C363.483 316.521 355.936 321.251 345.925 324.879C343.629 325.716 339.312 328.4 332.975 332.931C329.5 335.396 327.265 338.457 324.571 341.672C322.979 343.58 322.116 345.56 321.984 347.611C320.514 369.164 358.324 380.324 371.979 385.13C381.194 388.376 390.884 390.733 400.252 393.856C407.982 396.428 416.616 397.499 424.744 400.147C427.132 400.923 428.877 402.183 429.98 403.928C432.296 407.592 431.663 410.062 428.081 411.337" stroke="#DDF3F7" stroke-width="2"/>
<path d="M671.72 315.542C671.261 318.282 671.551 319.767 674.23 321.068C681.655 324.665 692.232 332.043 690.533 341.917C689.492 348.009 681.241 355.357 676.006 359.934C658.693 375.058 636.344 389.294 609.907 405.934C609.05 406.464 607.274 407.959 604.58 410.419" stroke="#8FD8E6" stroke-width="2"/>
<path d="M720.659 417.552C706.851 426.89 692.62 434.161 677.966 439.366C669.332 442.442 652.019 449.805 652.249 461.057C652.524 474.589 652.519 485.804 652.233 494.703C652.019 501.545 646.876 505.633 641.457 508.786C637.768 510.929 634.584 514.266 630.206 515.843C629.695 516.027 629.695 516.215 630.206 516.409C630.706 516.593 631.349 516.567 632.134 516.333" stroke="#FF9D24" stroke-width="2"/>
<path d="M347.824 502.678L344.839 499.172C344.492 498.764 344.074 498.468 343.584 498.284C340.012 496.988 338.328 494.315 338.532 490.263C338.563 489.733 338.4 489.273 338.042 488.886C332.96 483.268 327.097 478.92 322.459 472.812C319.673 469.139 320.76 452.315 320.714 440.682C320.704 437.916 320.954 436.048 321.464 435.079C322.872 432.4 327.847 432.369 330.603 433.686C341.395 438.799 350.533 442.702 362.121 445.825C446.451 468.649 538.665 467.608 623.072 455.239C631.629 453.984 635.624 449.606 628.123 441.967" stroke="#FFDE98" stroke-width="2"/>
<path d="M641.105 626.149C648.437 622.904 652.784 620.394 652.57 611.959C652.254 598.825 652.187 585.686 652.371 572.542C652.601 557.403 678.333 550.422 689.998 546.473C693.712 545.218 701.029 540.942 711.949 533.645C716.449 530.634 717.643 527.175 715.531 523.266" stroke="#FF9D24" stroke-width="2"/>
<path d="M616.856 554.632L623.929 561.459C624.159 561.68 624.329 561.955 624.424 562.259C624.518 562.563 624.534 562.886 624.47 563.198C624.406 563.51 624.263 563.801 624.056 564.043C623.849 564.285 623.584 564.471 623.286 564.582C621.439 565.276 619.428 565.791 617.254 566.128C605.141 567.996 593.002 569.675 580.837 571.165C509.075 579.982 435.047 574.716 364.739 558.184C354.779 555.847 342.619 551.484 328.26 545.095C323.27 542.876 320.897 547.009 320.897 551.525C320.908 559.811 321.005 568.093 321.188 576.369C321.229 578.288 321.591 579.864 322.275 581.099C327.337 590.304 334.628 597.096 344.15 601.474C344.629 601.698 344.859 602.071 344.839 602.591C344.818 603.816 345.298 604.785 346.278 605.5C346.714 605.807 347.033 606.261 347.181 606.785C348.635 612.036 361.034 615.266 366.53 616.567C367.219 616.72 367.571 617.134 368.045 617.577C368.443 617.965 368.918 618.195 369.469 618.266C370.836 618.44 372.051 618.904 373.112 619.659C373.49 619.935 373.908 620.093 374.367 620.134C376.572 620.338 378.5 621.205 380.154 622.736C380.48 623.042 380.853 623.257 381.271 623.379C383.496 623.991 384.037 624.838 382.894 625.92" stroke="#FFDE98" stroke-width="2"/>
<path d="M720.398 643.05C718.225 643.774 716.056 644.529 713.892 645.315C711.862 646.04 709.805 647.03 707.724 648.285C690.273 658.832 673.189 663.439 655.846 671.338" stroke="#25575D" stroke-width="2"/>
<path d="M655.846 671.338C651.029 671.522 646.396 672.522 641.946 674.338C640.186 675.043 637.859 675.196 635.639 676.022C632.455 677.216 629.098 677.936 625.567 678.181" stroke="#397881" stroke-width="2"/>
<path d="M625.567 678.181C626.516 675.425 625.2 672.44 621.618 669.226C620.179 667.94 618.628 667.435 616.964 667.71" stroke="#82B6BE" stroke-width="2"/>
<path d="M450.431 685.605C509.733 690.473 567.382 689.83 625.566 678.181" stroke="#72A9B1" stroke-width="2"/>
<path d="M441.231 745.718C442.537 745.902 443.267 745.938 443.42 745.825C443.655 745.649 443.834 745.41 443.938 745.136C444.042 744.861 444.066 744.563 444.006 744.275C443.947 743.988 443.807 743.724 443.603 743.513C443.399 743.302 443.139 743.154 442.854 743.085C439.317 742.213 436.608 742.182 433.302 740.284C428.372 737.426 423.091 735.503 417.458 734.513C415.024 734.1 412.82 732.86 410.309 732.339C408.013 731.849 406.227 731.38 404.952 730.931C399.655 729.094 394.742 728.772 388.848 726.323C381.715 723.354 374.26 723.185 367.555 719.358C362.932 716.725 359.442 715.991 355.355 714.169C353.702 713.434 351.844 712.674 349.783 711.888C346.446 710.623 343.354 708.862 340.506 706.607C339.241 705.607 337.822 705.107 336.251 705.107C335.751 705.107 335.292 704.974 334.873 704.709L327.923 700.224" stroke="#397881" stroke-width="2"/>
<path d="M618.909 740.437C621.868 739.233 624.527 737.513 626.884 735.278C630.129 732.207 632.339 730.257 633.512 729.431C641.329 723.889 646.126 720.052 647.901 717.919C650.269 715.093 651.478 711.148 651.529 706.087C651.667 694.744 649.861 681.64 655.846 671.338" stroke="#154951" stroke-width="2"/>
<path d="M446.481 674.124C445.359 679.237 446.374 682.416 449.527 683.661C449.956 683.824 450.206 684.136 450.277 684.595L450.431 685.605" stroke="#DDF3F7" stroke-width="2"/>
<path d="M450.431 685.606C407.662 681.503 366.224 676.666 329.577 658.572C325.704 656.674 320.683 656.49 320.729 662.108C320.836 675.288 317.744 689.739 327.924 700.224" stroke="#94B5BA" stroke-width="2"/>
<path d="M327.923 700.224C330.74 703.545 334.689 706.821 334.98 711.521C335.149 714.245 336.113 715.562 337.981 717.23C338.195 717.424 338.19 717.618 337.965 717.812C337.812 717.935 337.669 717.96 337.537 717.889" stroke="#A4C2C6" stroke-width="2"/>
<path d="M669.346 306.158L671.719 315.542C671.147 316.46 670.887 317.144 670.938 317.593C671.153 319.246 670.479 319.787 668.918 319.215C649.967 312.286 630.618 307.27 610.871 304.168C605.636 303.341 598.319 302.836 592.073 301.719C584.95 300.453 580.286 299.693 578.082 299.438C536.465 294.631 494.813 294.606 453.125 299.361C430.347 301.964 413.34 304.199 393.241 309.342C390.364 310.087 384.445 311.526 375.484 313.659C363.483 316.521 355.936 321.251 345.925 324.879C343.629 325.716 339.312 328.4 332.975 332.931C329.5 335.396 327.265 338.457 324.571 341.672C322.979 343.58 322.117 345.56 321.984 347.611C320.515 369.164 358.325 380.324 371.979 385.13C381.194 388.376 390.884 390.733 400.252 393.856C407.983 396.427 416.616 397.499 424.745 400.147C427.133 400.923 428.878 402.183 429.98 403.928C432.296 407.592 431.664 410.061 428.082 411.337C405.437 408.439 383.546 403.377 362.412 396.152C342.971 389.493 320.025 379.834 310.136 362.72C297.905 341.58 322.382 321.619 338.746 313.904C354.084 306.678 369.637 301.78 384.684 298.167C416.412 290.554 448.543 286.028 481.077 284.589C527.582 282.538 574.944 284.819 619.091 292.947C632.756 295.468 649.508 299.872 669.346 306.158Z" fill="white"/>
<path d="M671.719 315.542C671.259 318.282 671.55 319.767 674.229 321.068C681.653 324.665 692.231 332.043 690.532 341.917C689.491 348.009 681.24 355.357 676.005 359.934C658.692 375.058 636.343 389.294 609.906 405.934C609.049 406.464 607.273 407.959 604.579 410.419C583.353 413.327 568.708 415.052 560.646 415.593C516.09 418.603 471.902 417.185 428.081 411.337C431.663 410.062 432.296 407.592 429.98 403.928C428.877 402.183 427.132 400.923 424.744 400.147C416.616 397.499 407.982 396.427 400.252 393.856C390.884 390.733 381.194 388.376 371.979 385.13C358.324 380.324 320.514 369.164 321.984 347.611C322.116 345.56 322.979 343.58 324.571 341.672C327.265 338.457 329.5 335.396 332.975 332.931C339.312 328.4 343.629 325.716 345.925 324.879C355.936 321.251 363.483 316.521 375.484 313.659C384.444 311.526 390.363 310.087 393.241 309.342C413.34 304.199 430.347 301.964 453.125 299.361C494.813 294.606 536.465 294.631 578.082 299.438C580.286 299.693 584.95 300.453 592.073 301.719C598.318 302.836 605.635 303.341 610.871 304.168C630.618 307.27 649.966 312.286 668.917 319.215C670.479 319.787 671.152 319.246 670.938 317.593C670.887 317.144 671.147 316.46 671.719 315.542Z" fill="#BBE7EE"/>
<path d="M669.347 306.158C688.421 312.083 718.47 327.681 720.689 349.801C722.633 369.134 693.748 385.927 677.567 392.065C654.096 400.964 629.767 407.082 604.58 410.419C607.274 407.96 609.05 406.465 609.907 405.934C636.344 389.295 658.693 375.058 676.006 359.934C681.241 355.357 689.492 348.01 690.533 341.917C692.232 332.044 681.655 324.665 674.23 321.068C671.551 319.767 671.261 318.282 671.72 315.542L669.347 306.158Z" fill="#63C9DD"/>
<path d="M720.658 417.552C706.851 426.89 692.62 434.161 677.965 439.366C669.332 442.442 652.019 449.805 652.248 461.057C652.524 474.589 652.519 485.804 652.233 494.703C652.019 501.545 646.875 505.633 641.456 508.786C637.767 510.929 634.583 514.266 630.205 515.843C629.695 516.027 629.695 516.215 630.205 516.409C630.705 516.593 631.348 516.567 632.134 516.333C625.429 517.251 617.882 519.195 612.31 520.129C538.022 532.62 463.489 530.707 389.599 515.583C375.873 512.776 361.948 508.475 347.824 502.678L344.839 499.173C344.492 498.765 344.074 498.469 343.584 498.285C340.012 496.989 338.328 494.315 338.532 490.264C338.563 489.733 338.4 489.274 338.042 488.886C332.96 483.268 327.097 478.921 322.459 472.813C319.673 469.139 320.76 452.316 320.714 440.682C320.704 437.916 320.954 436.049 321.464 435.079C322.872 432.401 327.847 432.37 330.603 433.686C341.395 438.799 350.533 442.703 362.121 445.825C446.451 468.649 538.665 467.608 623.072 455.24C631.629 453.984 635.624 449.606 628.123 441.968C653.789 437.406 678.577 429.569 702.488 418.455C707.57 416.088 712.361 413.271 716.862 410.005C717.77 409.342 718.679 408.862 719.587 408.567C720.342 408.311 720.714 408.582 720.704 409.378L720.658 417.552Z" fill="#FFBC31"/>
<path d="M628.123 441.967C635.624 449.606 631.628 453.984 623.071 455.239C538.665 467.608 446.451 468.649 362.121 445.825C350.533 442.702 341.394 438.799 330.602 433.686C327.847 432.37 322.872 432.4 321.464 435.079C320.954 436.048 320.704 437.916 320.714 440.682C320.76 452.315 319.673 469.139 322.459 472.812C327.097 478.92 332.96 483.268 338.042 488.886C338.399 489.273 338.563 489.733 338.532 490.263C338.328 494.315 340.012 496.988 343.583 498.284C344.073 498.468 344.492 498.764 344.839 499.172L347.824 502.678C329.561 496.065 306.799 484.921 306.921 463.49C307.024 445.999 307.008 428.41 306.875 410.724C306.876 410.448 306.95 410.176 307.091 409.938C307.232 409.699 307.434 409.504 307.676 409.372C307.918 409.24 308.191 409.176 308.465 409.188C308.739 409.2 309.005 409.286 309.233 409.439C328.658 422.282 351.375 430.502 373.862 436.457C422.02 449.193 471.188 452.867 520.847 452.545C556.789 452.321 592.548 448.795 628.123 441.967Z" fill="white"/>
<path d="M720.659 417.552C720.628 434.125 720.608 449.943 720.598 465.006C720.582 477.926 712.714 484.416 702.473 490.417C679.895 503.612 657.928 510.776 632.134 516.333C631.349 516.567 630.706 516.593 630.206 516.409C629.695 516.215 629.695 516.027 630.206 515.843C634.584 514.266 637.768 510.929 641.457 508.786C646.876 505.633 652.019 501.545 652.233 494.703C652.519 485.804 652.524 474.589 652.249 461.057C652.019 449.805 669.332 442.442 677.966 439.366C692.62 434.161 706.851 426.89 720.659 417.552Z" fill="#FF7D17"/>
<path d="M641.105 626.15C648.437 622.905 652.784 620.394 652.57 611.96C652.254 598.826 652.187 585.687 652.371 572.542C652.601 557.403 678.333 550.423 689.998 546.473C693.712 545.218 701.029 540.942 711.949 533.646C716.449 530.635 717.643 527.175 715.531 523.267C715.847 522.614 717 521.813 718.99 520.864C719.2 520.763 719.432 520.717 719.665 520.73C719.897 520.743 720.123 520.815 720.32 520.938C720.517 521.062 720.68 521.234 720.793 521.438C720.905 521.642 720.965 521.871 720.965 522.104C721.118 541.065 720.996 560.169 720.598 579.416C720.567 580.589 720.48 581.753 720.337 582.906C719.832 586.916 714.306 592.075 711.352 594.647C692.079 611.485 663.316 621.343 641.105 626.15Z" fill="#FF7D17"/>
<path d="M616.857 554.632L623.929 561.459C624.159 561.68 624.329 561.955 624.424 562.259C624.519 562.563 624.535 562.886 624.47 563.198C624.406 563.51 624.264 563.801 624.057 564.043C623.85 564.285 623.584 564.471 623.286 564.582C621.439 565.276 619.428 565.791 617.255 566.128C605.141 567.996 593.002 569.675 580.838 571.165C509.075 579.982 435.047 574.716 364.739 558.184C354.779 555.847 342.619 551.484 328.261 545.096C323.27 542.876 320.898 547.009 320.898 551.525C320.908 559.811 321.005 568.093 321.189 576.369C321.229 578.288 321.592 579.864 322.276 581.099C327.337 590.304 334.629 597.096 344.15 601.474C344.63 601.698 344.859 602.071 344.839 602.591C344.819 603.816 345.298 604.785 346.278 605.5C346.714 605.807 347.033 606.261 347.181 606.786C348.635 612.036 361.035 615.266 366.53 616.567C367.219 616.72 367.571 617.134 368.045 617.577C368.443 617.965 368.918 618.195 369.469 618.266C370.837 618.44 372.051 618.904 373.112 619.659C373.49 619.935 373.908 620.093 374.368 620.134C376.572 620.338 378.501 621.205 380.154 622.736C380.48 623.042 380.853 623.257 381.271 623.379C383.496 623.991 384.037 624.838 382.894 625.92C362.091 620.226 318.387 606.25 308.866 584.681C307.57 581.732 306.912 577.885 306.891 573.139C306.84 557.107 307.029 541.095 307.458 525.104C307.488 524.042 307.59 523.083 307.764 522.226C307.795 522.065 307.867 521.916 307.973 521.791C308.078 521.665 308.214 521.569 308.368 521.51C308.522 521.45 308.688 521.43 308.853 521.451C309.017 521.472 309.174 521.533 309.31 521.629C322.505 530.89 338.578 537.442 353.978 541.957C431.542 564.735 512.351 569.159 593.926 558.428C600.983 557.495 609.188 555.75 616.857 554.632Z" fill="white"/>
<path d="M715.53 523.267C717.642 527.176 716.448 530.635 711.948 533.646C701.028 540.942 693.711 545.218 689.997 546.474C678.332 550.423 652.6 557.403 652.37 572.543C652.187 585.687 652.253 598.826 652.569 611.96C652.784 620.394 648.436 622.905 641.104 626.15C621.245 631.089 601.141 634.641 580.791 636.804C566.035 638.381 550.758 640.34 536.522 640.784C485.96 642.376 431.894 638.657 382.894 625.921C384.037 624.839 383.496 623.992 381.271 623.379C380.853 623.257 380.48 623.043 380.154 622.737C378.5 621.206 376.572 620.338 374.367 620.134C373.908 620.093 373.49 619.935 373.112 619.66C372.051 618.904 370.836 618.44 369.469 618.267C368.918 618.195 368.443 617.966 368.045 617.578C367.571 617.134 367.219 616.721 366.53 616.568C361.034 615.266 348.635 612.036 347.181 606.786C347.033 606.262 346.714 605.808 346.278 605.5C345.298 604.786 344.818 603.816 344.839 602.592C344.859 602.071 344.629 601.699 344.15 601.474C334.628 597.096 327.337 590.305 322.275 581.1C321.591 579.865 321.229 578.288 321.188 576.369C321.005 568.093 320.908 559.812 320.897 551.525C320.897 547.009 323.27 542.876 328.26 545.096C342.619 551.484 354.779 555.847 364.739 558.184C435.047 574.716 509.075 579.982 580.837 571.165C593.002 569.675 605.141 567.996 617.254 566.129C619.428 565.792 621.439 565.276 623.286 564.583C623.584 564.471 623.849 564.285 624.056 564.043C624.263 563.801 624.406 563.511 624.47 563.199C624.534 562.887 624.518 562.564 624.424 562.259C624.329 561.955 624.159 561.68 623.929 561.46L616.856 554.633C650.319 549.627 685.909 539.952 715.53 523.267Z" fill="#FFBC31"/>
<path d="M720.398 643.05C718.225 643.775 716.056 644.53 713.892 645.316C711.862 646.04 709.805 647.03 707.724 648.285C690.273 658.832 673.189 663.44 655.846 671.339C651.029 671.522 646.396 672.522 641.946 674.339C640.186 675.043 637.859 675.196 635.64 676.023C632.456 677.217 629.098 677.936 625.567 678.181C626.516 675.426 625.2 672.441 621.618 669.226C620.179 667.94 618.628 667.435 616.964 667.711C630.144 664.741 643.722 662.445 656.213 658.603C667.679 655.097 679.236 651.622 689.875 646.816C699.937 642.274 709.632 637.254 718.959 631.753C719.144 631.642 719.355 631.584 719.57 631.583C719.785 631.583 719.997 631.641 720.182 631.751C720.367 631.86 720.519 632.018 720.622 632.207C720.724 632.396 720.774 632.61 720.766 632.825L720.398 643.05Z" fill="#49858D"/>
<path d="M446.482 674.124C445.36 679.237 446.375 682.416 449.528 683.661C449.957 683.824 450.207 684.135 450.279 684.594L450.432 685.605C407.662 681.502 366.224 676.665 329.577 658.571C325.704 656.673 320.684 656.49 320.729 662.107C320.837 675.287 317.744 689.738 327.924 700.224C330.741 703.545 334.69 706.821 334.981 711.521C335.149 714.245 336.114 715.562 337.981 717.23C338.195 717.424 338.19 717.618 337.966 717.812C337.813 717.935 337.67 717.96 337.537 717.889C326.975 713.235 312.968 704.142 308.621 692.662C307.601 689.937 307.065 685.707 307.014 679.972C306.881 664.337 306.896 648.81 307.06 633.39C307.064 633.171 307.127 632.957 307.241 632.769C307.355 632.582 307.517 632.429 307.71 632.324C307.903 632.22 308.12 632.169 308.339 632.176C308.559 632.183 308.772 632.248 308.958 632.365C325.725 642.998 343.671 651.259 362.795 657.148C389.665 665.414 417.561 671.073 446.482 674.124Z" fill="white"/>
<path d="M720.399 643.05C720.603 654.796 720.69 666.567 720.659 678.364C720.628 689.248 718.761 695.815 711.076 702.734C689.355 722.297 659.398 731.038 629.731 739.243C628.313 739.631 624.705 740.029 618.909 740.437C621.868 739.233 624.527 737.513 626.884 735.278C630.129 732.207 632.339 730.257 633.512 729.431C641.329 723.889 646.126 720.052 647.901 717.92C650.269 715.093 651.478 711.148 651.529 706.087C651.667 694.744 649.861 681.64 655.846 671.338C673.19 663.439 690.273 658.832 707.724 648.285C709.806 647.03 711.862 646.04 713.893 645.315C716.056 644.529 718.225 643.774 720.399 643.05Z" fill="#00282D"/>
<path d="M450.431 685.606C509.733 690.473 567.382 689.83 625.567 678.181C629.098 677.936 632.455 677.217 635.639 676.023C637.859 675.196 640.185 675.043 641.946 674.339C646.395 672.523 651.028 671.522 655.845 671.339C649.86 681.641 651.666 694.744 651.528 706.087C651.477 711.149 650.268 715.093 647.901 717.92C646.125 720.053 641.328 723.89 633.511 729.431C632.338 730.258 630.128 732.207 626.883 735.279C624.526 737.514 621.867 739.234 618.908 740.438C560.677 752.041 500.028 753.158 441.231 745.719C442.538 745.903 443.267 745.938 443.42 745.826C443.655 745.65 443.835 745.411 443.939 745.136C444.042 744.862 444.066 744.564 444.007 744.276C443.947 743.989 443.807 743.724 443.603 743.514C443.399 743.303 443.139 743.155 442.854 743.086C439.318 742.213 436.608 742.183 433.302 740.285C428.373 737.427 423.092 735.504 417.458 734.514C415.025 734.1 412.82 732.86 410.31 732.34C408.014 731.85 406.228 731.381 404.952 730.932C399.656 729.095 394.742 728.773 388.848 726.324C381.715 723.354 374.26 723.186 367.555 719.359C362.932 716.726 359.442 715.991 355.355 714.17C353.702 713.435 351.845 712.675 349.783 711.889C346.446 710.623 343.354 708.863 340.507 706.608C339.241 705.608 337.823 705.108 336.251 705.108C335.751 705.108 335.292 704.975 334.873 704.71L327.924 700.224C317.744 689.739 320.836 675.288 320.729 662.108C320.683 656.49 325.704 656.674 329.577 658.572C366.224 676.666 407.662 681.503 450.431 685.606Z" fill="#296A74"/>
<path d="M616.963 667.71C618.626 667.435 620.178 667.94 621.617 669.226C625.199 672.44 626.515 675.425 625.566 678.181C567.381 689.83 509.733 690.473 450.431 685.605L450.277 684.595C450.206 684.135 449.956 683.824 449.527 683.661C446.374 682.416 445.359 679.237 446.481 674.124C449.441 674.063 451.65 674.119 453.109 674.292C481.459 677.476 504.742 677.476 534.99 676.696C562.595 675.971 589.919 672.976 616.963 667.71Z" fill="#BBE7EE"/>
<path d="M327.923 700.224L334.873 704.709C335.292 704.975 335.751 705.107 336.251 705.107C337.822 705.107 339.241 705.607 340.506 706.607C343.354 708.863 346.446 710.623 349.783 711.889C351.844 712.674 353.702 713.435 355.355 714.169C359.442 715.991 362.932 716.726 367.555 719.359C374.26 723.186 381.715 723.354 388.848 726.324C394.742 728.773 399.655 729.094 404.952 730.931C406.227 731.38 408.013 731.85 410.309 732.34C412.82 732.86 415.024 734.1 417.458 734.513C423.091 735.503 428.372 737.427 433.302 740.284C436.608 742.182 439.317 742.213 442.854 743.086C443.139 743.154 443.399 743.303 443.603 743.513C443.807 743.724 443.947 743.989 444.006 744.276C444.066 744.563 444.042 744.862 443.938 745.136C443.834 745.41 443.655 745.65 443.42 745.826C443.267 745.938 442.537 745.902 441.231 745.719C422.423 743.974 403.957 740.524 385.832 735.371C369.514 730.732 353.64 726.14 338.302 718.762C337.853 718.547 337.598 718.257 337.537 717.889C337.669 717.961 337.812 717.935 337.965 717.813C338.19 717.619 338.195 717.425 337.981 717.231C336.113 715.562 335.149 714.246 334.98 711.521C334.689 706.822 330.74 703.546 327.923 700.224Z" fill="#49858D"/>
</svg>
