<svg width="1024" height="1024" viewBox="0 0 1024 1024" fill="none" xmlns="http://www.w3.org/2000/svg">
<rect width="1024" height="1024" fill="white"/>
<path d="M520.924 802.959L520.85 754.396" stroke="#802221" stroke-width="2"/>
<path d="M520.85 754.397L520.895 737.859C520.895 736.941 520.441 736.472 519.532 736.453L501.247 735.949C501.1 735.945 500.953 735.971 500.816 736.026C500.678 736.081 500.553 736.164 500.448 736.269C500.343 736.374 500.26 736.499 500.204 736.638C500.148 736.776 500.12 736.925 500.122 737.074L500.167 755.137" stroke="#440D20" stroke-width="2"/>
<path d="M500.166 755.137C499.83 767.317 499.811 780.78 500.107 795.527C500.176 798.587 499.919 801.671 499.337 804.78" stroke="#802221" stroke-width="2"/>
<path d="M520.85 754.396C514.957 755.951 506.547 756.706 500.166 755.137" stroke="#C32D36" stroke-width="2"/>
<path d="M520.923 802.959L520.849 754.397L520.893 737.858C520.893 736.941 520.439 736.472 519.531 736.452L501.246 735.949C501.099 735.945 500.952 735.971 500.815 736.026C500.677 736.081 500.552 736.163 500.447 736.268C500.342 736.373 500.259 736.499 500.203 736.637C500.147 736.776 500.119 736.924 500.121 737.074L500.165 755.137C499.83 767.317 499.81 780.78 500.106 795.527C500.175 798.587 499.919 801.671 499.336 804.781C492.999 813.427 482.991 814.345 476.713 805.713C474.759 803.019 475.011 801.124 475.025 797.955C475.075 777.661 475.085 757.368 475.055 737.074C475.055 736.561 474.798 736.299 474.285 736.289C468.195 736.111 462.149 736.028 456.148 736.037C411.124 736.111 366.085 735.845 321.06 736.393C308.525 736.551 298.482 731.763 290.931 722.031C282.225 710.823 281.781 694.537 290.324 683.122C291.784 681.167 295.58 677.737 301.709 672.832C316.939 660.661 330.827 647.08 343.373 632.086C348.041 626.49 352.631 620.982 357.142 615.563C357.635 614.961 357.492 614.665 356.713 614.675C350.761 614.764 344.498 615.178 338.886 613.772C319.002 608.797 304.182 592.94 304.848 571.59C305.263 558.132 312.369 549.529 322.763 539.343C331.232 531.042 337.84 524.419 342.588 519.474C374.687 486.013 400.034 448.628 420.955 406.476C422.05 404.265 422.845 402.498 423.338 401.176C423.526 400.663 423.373 400.292 422.88 400.065C404.728 391.745 394.556 369.95 403.721 351.636C405.468 348.132 410.191 342.525 417.89 334.816C428.362 324.334 435.356 316.788 438.87 312.178C460.289 284.077 478.959 254.239 494.88 222.663C497.678 217.096 501.483 212.151 507.613 212.003C513.106 211.869 519.22 216.652 521.619 221.138C542.095 259.292 559.078 289.57 585.387 320.558C591.65 327.932 599.26 335.32 606.293 342.619C622.017 358.95 618.404 388.25 597.543 398.555C597.244 398.701 597.015 398.959 596.905 399.275C596.794 399.59 596.811 399.938 596.951 400.243C614.925 439.922 640.716 479.498 667.974 510.783C674.784 518.6 686.047 530.287 701.761 545.843C703.221 547.294 705.097 550.156 707.387 554.43C722.503 582.665 701.05 612.972 671.024 614.275C667.668 614.423 664.381 614.512 661.163 614.541C661.086 614.543 661.01 614.565 660.944 614.605C660.878 614.645 660.824 614.701 660.788 614.768C660.751 614.835 660.734 614.909 660.737 614.984C660.741 615.059 660.765 615.131 660.808 615.193C672.075 632.175 689.442 651.067 703.567 662.482C719.113 675.053 736.924 685.668 733.933 706.53C732.157 718.952 722.03 729.73 710.407 733.831C706.429 735.223 700.438 735.934 692.433 735.963C643.989 736.141 595.278 736.116 546.3 735.889C546.041 735.889 545.793 735.992 545.609 736.176C545.426 736.359 545.323 736.607 545.323 736.867C545.372 757.338 545.264 777.878 544.997 798.488C544.923 803.67 542.91 807.742 538.261 810.318C531.509 814.039 525.73 811.586 520.923 802.959Z" fill="#01020B"/>
<path d="M688.652 290.607C686.468 290.879 684.25 290.7 682.123 290.081C679.997 289.462 678.005 288.414 676.26 286.998C674.515 285.582 673.052 283.825 671.955 281.827C670.857 279.83 670.146 277.631 669.863 275.356C669.58 273.081 669.729 270.775 670.303 268.569C670.877 266.364 671.865 264.302 673.209 262.501C674.553 260.7 676.227 259.196 678.137 258.074C680.046 256.952 682.153 256.234 684.337 255.962C686.521 255.69 688.74 255.869 690.866 256.488C692.992 257.107 694.985 258.155 696.729 259.571C698.474 260.987 699.937 262.744 701.035 264.742C702.132 266.739 702.843 268.938 703.126 271.213C703.41 273.488 703.26 275.794 702.686 277.999C702.112 280.205 701.125 282.267 699.781 284.068C698.437 285.869 696.762 287.373 694.853 288.495C692.943 289.617 690.836 290.335 688.652 290.607Z" fill="#83EDE3"/>
<path d="M409.893 292.14C408.324 291.202 406.962 289.954 405.883 288.469C404.804 286.984 404.029 285.29 403.604 283.485C403.178 281.679 403.11 279.797 403.403 277.946C403.696 276.094 404.344 274.31 405.311 272.695C406.277 271.08 407.543 269.666 409.036 268.533C410.529 267.4 412.22 266.571 414.013 266.093C415.805 265.615 417.664 265.497 419.482 265.746C421.301 265.995 423.044 266.606 424.613 267.545C426.181 268.483 427.543 269.731 428.622 271.216C429.701 272.701 430.476 274.395 430.901 276.2C431.327 278.006 431.395 279.888 431.102 281.739C430.809 283.591 430.161 285.375 429.195 286.99C428.228 288.605 426.962 290.019 425.469 291.152C423.976 292.285 422.285 293.114 420.492 293.592C418.7 294.07 416.842 294.188 415.023 293.939C413.204 293.69 411.461 293.079 409.893 292.14Z" fill="#02D4C9"/>
<path d="M593.877 301.345C590.279 301.068 586.942 299.332 584.599 296.521C582.256 293.709 581.1 290.05 581.384 286.351C581.669 282.651 583.371 279.213 586.117 276.792C588.862 274.372 592.426 273.167 596.024 273.444C599.622 273.721 602.96 275.456 605.302 278.268C607.645 281.08 608.802 284.738 608.517 288.438C608.232 292.138 606.53 295.576 603.784 297.997C601.039 300.417 597.475 301.621 593.877 301.345Z" fill="#02D4C9"/>
<path d="M304.167 366.678C298.294 370.093 292.248 373.79 286.03 377.767C276.821 383.66 265.332 373.755 271.506 364.783C273.416 362.014 276.673 359.956 280.197 358.327C285.161 356.018 289.934 353.21 294.514 349.903C294.562 349.871 294.601 349.828 294.628 349.776C294.655 349.725 294.668 349.668 294.666 349.61C294.665 349.552 294.649 349.496 294.619 349.446C294.59 349.396 294.549 349.355 294.499 349.326C289.455 346.147 284.105 343.532 278.449 341.478C269.492 338.221 267.612 326.525 276.243 321.639C280.981 318.959 287.17 323.83 291.686 326.954C296.113 330.004 300.392 331.781 305.174 333.676C305.229 333.698 305.288 333.706 305.347 333.7C305.406 333.693 305.462 333.672 305.51 333.638C305.559 333.604 305.598 333.559 305.625 333.506C305.651 333.453 305.664 333.394 305.662 333.335C305.455 326.747 303.738 312.859 306.077 307.262C308.653 301.118 318.854 301.755 322.008 307.396C322.847 308.906 323.217 311.186 323.118 314.236C322.921 320.316 322.862 326.288 322.941 332.151C322.941 332.294 322.978 332.434 323.048 332.559C323.117 332.684 323.218 332.789 323.339 332.864C323.46 332.94 323.599 332.983 323.742 332.99C323.884 332.998 324.026 332.969 324.155 332.906C331.074 329.619 337.411 325.853 343.165 321.609C347.133 318.692 354.003 320.425 356.668 324.615C359.97 329.782 357.231 336.741 351.797 339.213C345.46 342.105 339.499 345.501 333.912 349.4C333.792 349.486 333.695 349.601 333.631 349.734C333.566 349.867 333.536 350.013 333.544 350.16C333.551 350.306 333.595 350.448 333.673 350.571C333.75 350.695 333.858 350.796 333.986 350.865C340.056 354.167 361.421 363.006 356.979 372.541C353.238 380.566 347.548 382.13 339.908 377.234C334.825 373.967 329.554 370.769 324.096 367.64C323.993 367.583 323.878 367.554 323.761 367.555C323.644 367.557 323.529 367.589 323.428 367.649C323.328 367.709 323.245 367.795 323.188 367.897C323.131 368 323.102 368.115 323.104 368.232C323.237 374.318 324.273 386.74 321.875 391.862C319.195 397.592 309.038 398.066 306.077 392.055C303.486 386.769 305.13 373.681 305.544 367.522C305.613 366.377 305.154 366.096 304.167 366.678Z" fill="#008B94"/>
<path d="M668.269 375.784C673.816 376.051 674.166 374.827 669.32 372.112C662.435 368.248 647.141 355.308 659.311 347.15C665.781 342.812 671.674 347.298 675.45 352.554C677.187 354.982 678.643 356.591 679.817 357.381C682.705 359.32 687.842 362.015 690.951 359.394C691.127 359.251 691.269 359.07 691.366 358.865C691.464 358.661 691.514 358.437 691.514 358.21C691.504 352.129 691.544 346.079 691.632 340.058C691.706 334.772 692.639 330.123 697.88 328.539C704.647 326.511 709.088 332.314 709.34 338.459C709.607 345.195 708.792 352.08 709.903 358.728C709.96 359.071 710.091 359.398 710.286 359.686C710.482 359.973 710.737 360.215 711.034 360.394C711.331 360.573 711.663 360.685 712.007 360.722C712.352 360.759 712.699 360.72 713.027 360.608L720.637 357.988C721.13 357.81 721.53 357.509 721.836 357.084C724.56 353.176 732.23 344.055 738.019 345.403C745.436 347.105 749.36 355.693 743.763 361.881C740.161 365.869 735.847 368.924 730.823 371.046C729.501 371.609 728.612 372.354 728.158 373.282C728.083 373.435 728.048 373.606 728.056 373.776C728.065 373.947 728.117 374.113 728.207 374.258C728.297 374.403 728.423 374.523 728.573 374.606C728.722 374.689 728.89 374.733 729.061 374.733C734.051 374.718 744.356 374.259 743.008 382.728C742.135 388.221 736.005 390.072 731.164 389.968C730.187 389.948 729.466 390.131 729.002 390.516C728.866 390.627 728.76 390.77 728.694 390.933C728.627 391.096 728.603 391.273 728.622 391.449C728.641 391.625 728.703 391.794 728.803 391.941C728.903 392.088 729.037 392.209 729.195 392.292C738.685 397.282 754.409 406.047 742.076 418.588C736.731 424.021 729.283 416.752 725.626 412.591C723.317 409.956 714.433 401.428 710.761 402.582C710.43 402.69 710.14 402.898 709.933 403.177C709.726 403.456 709.612 403.791 709.607 404.137C709.498 410.908 709.414 417.497 709.355 423.903C709.251 434.504 693.305 437.169 691.44 424.924C690.532 418.992 690.349 415.069 690.892 413.154C691.83 409.827 691.771 406.437 690.714 402.982C690.676 402.855 690.608 402.738 690.517 402.641C690.426 402.545 690.313 402.471 690.189 402.426C690.065 402.382 689.932 402.367 689.802 402.384C689.672 402.401 689.549 402.448 689.441 402.523C686.302 404.685 682.808 406.363 678.959 407.557C674.014 409.082 675.228 413.85 672.844 416.219C667.652 421.341 662.588 421.514 657.653 416.737C646.889 406.314 665.411 396.246 672.237 391.671C672.395 391.568 672.518 391.421 672.59 391.247C672.662 391.073 672.681 390.882 672.642 390.698C672.604 390.514 672.511 390.345 672.375 390.215C672.239 390.085 672.067 389.999 671.882 389.968C665.308 388.769 656.321 390.442 659.533 379.648C660.792 375.414 665.648 375.651 668.269 375.784Z" fill="#008B94"/>
<path d="M271.712 485.095C265.197 485.539 260.089 485.574 256.388 485.199C247.771 484.311 245.994 473.576 251.842 468.439C255.958 464.826 266.485 466.085 271.549 466.766C272.042 466.835 272.299 466.618 272.319 466.114C272.437 460.991 272.457 457.532 272.378 455.735C271.786 441.241 292.455 441.966 290.293 454.625C289.888 456.984 289.809 460.898 290.056 466.366C290.086 466.869 290.352 467.091 290.856 467.032C296.334 466.396 307.349 464.175 311.199 469.001C314.821 473.532 314.787 478.161 311.095 482.889C307.764 487.183 295.697 485.317 290.841 484.932C290.741 484.924 290.64 484.937 290.545 484.97C290.45 485.002 290.363 485.055 290.289 485.123C290.215 485.191 290.156 485.274 290.116 485.366C290.076 485.458 290.056 485.557 290.056 485.658C290.012 490.766 291.152 501.263 288.413 505.201C286.088 508.548 281.691 509.451 277.96 507.926C269.254 504.358 272.6 493.09 272.482 485.806C272.472 485.303 272.215 485.066 271.712 485.095Z" fill="#008B94"/>
<path d="M759.369 502.491C759.369 506.399 757.817 510.146 755.054 512.908C752.291 515.671 748.544 517.223 744.637 517.223C740.73 517.223 736.983 515.671 734.22 512.908C731.457 510.146 729.905 506.399 729.905 502.491C729.905 498.584 731.457 494.837 734.22 492.075C736.983 489.312 740.73 487.76 744.637 487.76C748.544 487.76 752.291 489.312 755.054 492.075C757.817 494.837 759.369 498.584 759.369 502.491Z" fill="#01020B"/>
<path d="M753.021 635.803C750.897 635.104 748.939 633.969 747.26 632.462C745.581 630.956 744.213 629.106 743.234 627.02C742.256 624.934 741.686 622.653 741.557 620.305C741.428 617.958 741.743 615.591 742.483 613.339C743.223 611.088 744.375 608.996 745.871 607.183C747.368 605.37 749.181 603.871 751.207 602.773C753.232 601.675 755.43 600.998 757.676 600.782C759.922 600.565 762.171 600.814 764.295 601.512C766.419 602.21 768.377 603.345 770.056 604.852C771.735 606.359 773.103 608.208 774.081 610.294C775.06 612.38 775.63 614.662 775.759 617.009C775.888 619.357 775.573 621.724 774.833 623.975C774.092 626.227 772.941 628.319 771.444 630.132C769.947 631.945 768.135 633.443 766.109 634.541C764.084 635.64 761.885 636.316 759.64 636.533C757.394 636.749 755.145 636.501 753.021 635.803Z" fill="#02D4C9"/>
<path d="M265.426 633.322C261.512 633.963 257.499 632.992 254.269 630.623C251.04 628.254 248.858 624.681 248.204 620.689C247.551 616.698 248.479 612.615 250.784 609.34C253.089 606.064 256.583 603.864 260.497 603.223C264.411 602.582 268.424 603.553 271.654 605.922C274.884 608.291 277.065 611.865 277.719 615.856C278.372 619.847 277.444 623.93 275.139 627.205C272.834 630.481 269.34 632.681 265.426 633.322Z" fill="#01020B"/>
<path d="M520.848 754.397C514.956 755.952 506.546 756.707 500.165 755.137L500.12 737.074C500.118 736.925 500.146 736.776 500.202 736.638C500.258 736.499 500.341 736.374 500.446 736.269C500.551 736.164 500.676 736.081 500.814 736.026C500.951 735.971 501.098 735.945 501.245 735.949L519.531 736.453C520.439 736.472 520.893 736.941 520.893 737.859L520.848 754.397Z" fill="#861735"/>
<path d="M520.85 754.396L520.924 802.959C519.611 806.197 518.135 808.038 516.497 808.482C509.913 810.249 504.193 809.015 499.337 804.78C499.919 801.671 500.176 798.587 500.107 795.527C499.811 780.78 499.83 767.317 500.166 755.137C506.547 756.706 514.957 755.951 520.85 754.396Z" fill="#FF4237"/>
<path d="M509.389 253.532L507.716 255.501C507.419 255.836 507.247 256.265 507.227 256.715C506.872 262.983 507.351 269.73 508.663 276.955C513.194 301.903 518.761 326.806 530.428 349.237C533.182 354.547 538.3 362.493 545.781 373.074" stroke="#C1F6F1" stroke-width="2"/>
<path d="M497.411 347.15C495.614 344.021 492.959 342.269 489.445 341.894C488.918 341.836 488.386 341.956 487.935 342.234C484.233 344.554 481.095 348.369 478.518 353.679C476.327 358.2 472.621 362.024 467.399 365.153C461.773 368.529 454.326 369.329 447.663 370.439C446.173 370.686 444.919 371.332 443.903 372.379C443.557 372.724 443.35 373.139 443.281 373.622L442.496 378.715" stroke="#C1F6F1" stroke-width="2"/>
<path d="M579.598 564.824C575.956 554.119 566.199 534.827 555.731 529.631C549.483 526.536 543.901 529.542 537.476 532.162C524.476 537.478 516.555 532.251 504.474 528.624" stroke="#66BC72" stroke-width="2"/>
<path d="M504.473 528.624C506.862 528.752 509.191 527.711 511.462 525.5C515.449 521.621 516.047 517.352 513.253 512.693C509.537 506.489 507.064 508.369 501.009 508.192" stroke="#025455" stroke-width="2"/>
<path d="M501.009 508.192C502.223 507.057 504.01 506.371 506.369 506.134C506.472 506.126 506.571 506.096 506.662 506.046C506.752 505.996 506.83 505.927 506.892 505.844C506.954 505.762 506.997 505.667 507.019 505.566C507.041 505.466 507.042 505.361 507.02 505.26C505.954 500.078 492.896 494.852 492.599 493.134C492.55 492.838 492.372 492.666 492.066 492.616C488.587 492.113 485.685 489.433 482.487 487.878C482.422 487.845 482.367 487.794 482.329 487.731C482.291 487.668 482.271 487.596 482.271 487.523C482.271 487.45 482.291 487.378 482.329 487.315C482.367 487.252 482.422 487.201 482.487 487.168C482.793 487.01 483.153 486.98 483.568 487.079" stroke="#66BC72" stroke-width="2"/>
<path d="M483.567 487.079C492.244 490.001 499.143 491.63 504.266 491.965C532.209 493.781 553.885 483.358 569.293 460.695C573.853 453.988 576.681 445.845 571.499 438.531C566.628 431.646 555.627 432.772 552.488 439.938C549.606 446.482 545.485 451.254 540.125 454.255" stroke="#025455" stroke-width="2"/>
<path d="M540.125 454.254C537.776 448.805 535.501 443.401 533.3 438.042C528.473 426.345 523.558 416.159 510.188 419.253C503.674 420.753 497.194 420.546 490.748 418.631C488.034 417.822 484.451 415.912 479.999 412.901C476.476 410.523 472.774 408.267 468.895 406.135" stroke="#66BC72" stroke-width="2"/>
<path d="M468.896 406.135C467.593 404.615 465.811 403.865 463.551 403.885C461.843 403.905 460.136 403.87 458.428 403.781" stroke="#81D3CF" stroke-width="2"/>
<path d="M540.126 454.254C530.976 460.931 516.245 467.105 504.667 464.603C491.894 461.849 480.267 455.592 469.784 445.83" stroke="#666A29" stroke-width="2"/>
<path d="M468.895 406.135C474.58 414.204 481.939 429.736 476.638 439.448C476.421 439.843 476.313 440.272 476.313 440.736C476.342 445.815 474.358 446.348 469.783 445.829" stroke="#E5E8A3" stroke-width="2"/>
<path d="M469.784 445.83C467.612 440.085 464.592 436.473 460.723 434.992C451.469 431.468 444.525 439.878 446.48 449.265" stroke="#808185" stroke-width="2"/>
<path d="M446.479 449.265C443.414 449.886 443.385 453.277 442.26 455.157C439.871 459.086 435.952 465.201 430.504 473.502" stroke="#E5E8A3" stroke-width="2"/>
<path d="M430.504 473.503C420.653 475.536 417.293 481.641 420.421 491.818" stroke="#808185" stroke-width="2"/>
<path d="M420.421 491.816L394.066 524.123" stroke="#E5E8A3" stroke-width="2"/>
<path d="M394.067 524.122C386.151 526.234 382.667 531.481 383.614 539.861" stroke="#808185" stroke-width="2"/>
<path d="M383.614 539.861C381.432 542.132 379.063 544.357 376.507 546.539C367.372 554.327 358.429 562.647 349.634 570.835C348.282 572.088 347.414 573.401 347.029 574.773C345.588 579.866 347.611 584.165 353.099 587.669" stroke="#E5E8A3" stroke-width="2"/>
<path d="M414.735 467.861L424.418 452.7" stroke="#80C5CA" stroke-width="2"/>
<path d="M428.757 445.563C430.326 443.214 432.34 439.453 434.798 434.281C435.607 432.593 437.537 429.252 440.587 424.258C442.511 421.099 445.083 415.799 448.3 408.356" stroke="#80C5CA" stroke-width="2"/>
<path d="M483.568 487.079C465.786 482.607 451.499 466.217 446.479 449.265" stroke="#666A29" stroke-width="2"/>
<path d="M501.01 508.191C490.898 513.521 494.036 526.047 504.474 528.623" stroke="#666A29" stroke-width="2"/>
<path d="M383.614 539.861C384.799 544.698 387.755 547.496 392.483 548.256C410.057 551.113 412.5 523.678 394.067 524.123" stroke="#666A29" stroke-width="2"/>
<path d="M420.422 491.818C424.173 496.388 428.348 497.942 432.948 496.481C436.708 495.287 439.413 492.622 441.061 488.486C443.953 481.271 440.434 476.277 430.505 473.503" stroke="#666A29" stroke-width="2"/>
<path d="M449.145 609.952C435.02 621.678 425.219 631.346 405.068 630.236C402.857 630.107 399.037 629.13 393.608 627.304" stroke="#65AE6D" stroke-width="2"/>
<path d="M393.608 627.304L383.925 619.842" stroke="#80C5CA" stroke-width="2"/>
<path d="M458.383 626.727C443.977 628.118 444.836 650.075 460.53 648.802C465.455 648.397 468.796 645.16 470.553 639.089" stroke="#666A29" stroke-width="2"/>
<path d="M489.001 648.106C489.741 653.545 492.461 657.286 497.159 659.329" stroke="#666A29" stroke-width="2"/>
<path d="M320.468 709.417C330.279 702.715 338.689 695.958 345.697 689.148C354.087 680.995 362.891 671.415 372.11 660.41C379.972 651.053 386.146 640.526 394.319 631.509C395.168 630.581 394.931 629.18 393.608 627.304" stroke="#E5E8A3" stroke-width="2"/>
<path d="M596.877 709.284C589.198 691.902 580.176 677.328 569.812 665.562C560.795 655.317 548.521 658.84 536.499 663.919C530.962 666.268 526.584 667.591 523.366 667.887C513.402 668.819 505.703 665.414 497.16 659.329" stroke="#66BC72" stroke-width="2"/>
<path d="M497.159 659.329C503.792 659.684 507.933 657.197 509.581 651.867C514.038 637.505 490.792 631.909 489.001 648.106" stroke="#025455" stroke-width="2"/>
<path d="M489.001 648.106C485.551 645.13 481.051 644.02 478.252 642.569C475.804 641.305 473.238 640.145 470.553 639.089" stroke="#66BC72" stroke-width="2"/>
<path d="M470.554 639.089C470.494 636.77 469.774 634.268 468.392 631.583C466.418 627.733 463.082 626.115 458.383 626.727" stroke="#025455" stroke-width="2"/>
<path d="M458.384 626.727L460.471 626.357C460.905 626.278 461.034 626.031 460.856 625.616C460.501 624.797 459.997 624.086 459.346 623.484C458.971 623.129 458.694 622.714 458.517 622.241C457.224 618.885 455.279 615.978 452.683 613.52C452.338 613.194 452.2 612.795 452.269 612.321L452.387 611.64" stroke="#66BC72" stroke-width="2"/>
<path d="M630.115 614.467C629.562 616.017 629.005 617.335 628.442 618.421C627.83 619.575 626.863 620.562 625.54 621.382C614.613 628.113 603.331 628.883 591.694 623.691C584.844 620.632 578.512 615.731 572.698 608.989" stroke="#019999" stroke-width="2"/>
<path d="M509.391 253.533L507.717 255.503C507.421 255.837 507.248 256.266 507.229 256.717C506.873 262.984 507.352 269.731 508.665 276.956C513.196 301.904 518.762 326.807 530.429 349.238C533.183 354.548 538.301 362.494 545.783 373.075C536.337 368.949 528.87 363.101 523.382 355.53C516.719 346.336 509.524 334.254 497.413 347.15C495.616 344.021 492.961 342.269 489.447 341.894C488.92 341.836 488.388 341.956 487.937 342.235C484.235 344.554 481.097 348.369 478.52 353.679C476.329 358.2 472.623 362.025 467.401 365.154C461.775 368.53 454.328 369.329 447.665 370.44C446.175 370.686 444.921 371.333 443.905 372.379C443.559 372.725 443.352 373.139 443.283 373.623L442.498 378.716C429.972 378.627 421.578 365.154 432.134 355.826C436.946 351.577 442.187 347.446 446.422 342.96C471.029 316.902 490.424 284.907 506.415 252.986C506.829 252.156 507.273 251.826 507.747 251.994C508.231 252.161 508.779 252.675 509.391 253.533Z" fill="white"/>
<path d="M509.392 253.532C520.003 272.74 527.208 285.34 531.008 291.331C546.095 315.109 561.345 337.999 583.036 355.485C584.516 356.679 586.313 358.702 588.425 361.555C588.714 361.941 588.879 362.406 588.899 362.887C589.269 370.32 585.153 374.214 578.046 375.887C566.527 378.591 555.773 377.654 545.784 373.074C538.303 362.493 533.185 354.547 530.431 349.237C518.764 326.806 513.197 301.903 508.666 276.955C507.354 269.73 506.875 262.983 507.23 256.715C507.25 256.265 507.422 255.836 507.719 255.501L509.392 253.532Z" fill="#83EDE3"/>
<path d="M497.413 347.15C496.367 348.452 495.37 349.948 494.423 351.636C483.585 370.78 464.101 380.24 442.499 378.715L443.284 373.622C443.353 373.139 443.56 372.724 443.905 372.379C444.922 371.332 446.176 370.686 447.666 370.439C454.329 369.329 461.776 368.529 467.402 365.153C472.624 362.024 476.33 358.2 478.521 353.679C481.098 348.369 484.236 344.554 487.938 342.234C488.389 341.956 488.921 341.836 489.448 341.894C492.962 342.269 495.617 344.021 497.413 347.15Z" fill="#83EDE3"/>
<path d="M711.119 381.365C711.119 384.228 709.982 386.973 707.958 388.997C705.934 391.021 703.188 392.159 700.326 392.159C697.463 392.159 694.718 391.021 692.694 388.997C690.669 386.973 689.532 384.228 689.532 381.365C689.532 378.503 690.669 375.757 692.694 373.733C694.718 371.709 697.463 370.572 700.326 370.572C703.188 370.572 705.934 371.709 707.958 373.733C709.982 375.757 711.119 378.503 711.119 381.365Z" fill="white"/>
<path d="M579.6 564.824C575.958 554.119 566.201 534.827 555.733 529.63C549.485 526.536 543.903 529.541 537.478 532.162C524.478 537.477 516.557 532.251 504.476 528.624C506.864 528.752 509.194 527.71 511.464 525.499C515.452 521.62 516.049 517.351 513.255 512.693C509.539 506.489 507.067 508.369 501.011 508.192C502.225 507.056 504.012 506.37 506.371 506.134C506.473 506.125 506.573 506.095 506.664 506.045C506.754 505.995 506.832 505.927 506.894 505.844C506.956 505.761 506.999 505.667 507.021 505.566C507.043 505.465 507.044 505.361 507.022 505.26C505.956 500.078 492.897 494.852 492.601 493.134C492.552 492.838 492.374 492.665 492.068 492.616C488.589 492.113 485.687 489.433 482.489 487.878C482.424 487.844 482.369 487.794 482.331 487.731C482.293 487.668 482.272 487.596 482.272 487.523C482.272 487.449 482.293 487.377 482.331 487.315C482.369 487.252 482.424 487.201 482.489 487.167C482.795 487.009 483.155 486.98 483.57 487.079C492.246 490 499.146 491.629 504.268 491.964C532.212 493.781 553.887 483.357 569.295 460.695C573.855 453.988 576.683 445.845 571.501 438.531C566.63 431.646 555.629 432.771 552.491 439.937C549.608 446.481 545.487 451.254 540.128 454.254C537.779 448.806 535.503 443.402 533.302 438.042C528.476 426.345 523.56 416.159 510.191 419.253C503.676 420.754 497.196 420.546 490.751 418.632C488.036 417.822 484.453 415.912 480.002 412.902C476.478 410.523 472.776 408.268 468.897 406.136C467.594 404.615 465.813 403.865 463.553 403.885C461.845 403.905 460.137 403.87 458.43 403.781C464.219 403.752 468.127 402.641 473.65 401.413C489.048 397.992 497.621 389.035 507.081 378.271C507.644 377.639 508.157 377.679 508.621 378.39C521.665 398.348 543.43 406.284 567.03 403.426C567.533 403.367 567.977 403.495 568.362 403.811C569.152 404.472 569.799 405.326 570.302 406.372C598.092 464.367 635.181 520.081 682.796 563.713C689.858 570.183 685.639 582.428 678.34 586.203C675.605 587.624 671.006 588.33 664.541 588.32C655.272 588.305 643.309 589.327 634.959 585.818C621.219 580.059 611.462 565.964 603.334 553.216C602.751 552.288 601.873 551.306 600.698 550.27C600.323 549.934 599.889 549.746 599.395 549.707C595.25 549.337 589.549 548.226 587.21 552.742C585.068 556.858 582.532 560.885 579.6 564.824Z" fill="#02A69E"/>
<path d="M458.43 403.781C460.137 403.87 461.845 403.905 463.552 403.885C465.813 403.865 467.594 404.615 468.897 406.135C474.583 414.204 481.941 429.736 476.641 439.448C476.424 439.843 476.315 440.272 476.315 440.736C476.345 445.815 474.361 446.348 469.786 445.83C467.614 440.085 464.594 436.472 460.725 434.992C451.471 431.468 444.527 439.878 446.481 449.265C443.417 449.886 443.387 453.277 442.262 455.157C439.873 459.086 435.955 465.2 430.506 473.502C420.655 475.535 417.294 481.64 420.423 491.816L394.069 524.122C386.153 526.235 382.669 531.481 383.616 539.861C381.435 542.131 379.066 544.357 376.509 546.538C367.374 554.326 358.432 562.647 349.637 570.835C348.285 572.088 347.416 573.401 347.031 574.773C345.59 579.866 347.614 584.165 353.102 587.669C344.682 588.735 338.316 586.613 334.002 581.302C328.672 574.743 329.857 566.511 335.927 560.929C344.514 553.038 353.294 545.161 361.111 536.767C375.266 521.576 385.674 509.203 392.337 499.648C399.779 488.959 407.246 478.363 414.738 467.861L424.421 452.699L428.759 445.563C430.328 443.214 432.342 439.453 434.8 434.281C435.609 432.593 437.539 429.252 440.589 424.258C442.513 421.099 445.085 415.799 448.303 408.356C448.707 406.935 449.304 405.652 450.094 404.507C450.4 404.072 450.815 403.855 451.338 403.855L458.43 403.781Z" fill="white"/>
<path d="M468.898 406.136C472.777 408.268 476.478 410.524 480.002 412.902C484.454 415.913 488.037 417.823 490.751 418.632C497.197 420.547 503.677 420.754 510.191 419.254C523.561 416.16 528.476 426.346 533.303 438.043C535.504 443.402 537.779 448.806 540.128 454.255C530.978 460.932 516.247 467.106 504.669 464.604C491.896 461.85 480.269 455.592 469.786 445.83C474.361 446.349 476.345 445.816 476.316 440.737C476.316 440.273 476.424 439.844 476.641 439.449C481.942 429.737 474.583 414.205 468.898 406.136Z" fill="#CAD146"/>
<path d="M448.302 408.357C445.085 415.799 442.513 421.1 440.588 424.258C437.538 429.253 435.609 432.594 434.799 434.282C432.342 439.454 430.328 443.215 428.759 445.564C428.611 444.093 429.035 442.603 430.032 441.092C431.187 439.326 432.13 437.426 432.86 435.392C432.911 435.256 432.989 435.132 433.088 435.028C433.187 434.924 433.306 434.841 433.437 434.785C434.227 434.459 434.592 433.887 434.533 433.068C434.503 432.554 434.617 432.076 434.873 431.632L448.302 408.357Z" fill="#008B94"/>
<path d="M483.57 487.079C465.788 482.608 451.5 466.218 446.481 449.265C444.527 439.878 451.471 431.469 460.724 434.993C464.594 436.473 467.614 440.086 469.785 445.83C480.268 455.592 491.895 461.85 504.668 464.604C516.246 467.106 530.978 460.932 540.128 454.255C545.487 451.254 549.608 446.482 552.49 439.938C555.629 432.772 566.63 431.646 571.501 438.531C576.683 445.845 573.855 453.988 569.295 460.695C553.887 483.358 532.211 493.781 504.268 491.965C499.145 491.63 492.246 490.001 483.57 487.079Z" fill="#01020B"/>
<path d="M446.481 449.265C451.5 466.217 465.788 482.607 483.569 487.079C483.155 486.98 482.794 487.009 482.488 487.167C482.423 487.201 482.368 487.252 482.33 487.315C482.292 487.377 482.272 487.449 482.272 487.523C482.272 487.596 482.292 487.668 482.33 487.731C482.368 487.793 482.423 487.844 482.488 487.878C485.686 489.433 488.588 492.112 492.068 492.616C492.374 492.665 492.551 492.838 492.601 493.134C492.897 494.852 505.956 500.078 507.022 505.26C507.043 505.361 507.043 505.465 507.02 505.566C506.998 505.667 506.955 505.761 506.893 505.844C506.832 505.927 506.753 505.995 506.663 506.045C506.573 506.095 506.473 506.125 506.37 506.134C504.011 506.37 502.224 507.056 501.01 508.192C490.898 513.522 494.037 526.047 504.475 528.623C516.556 532.251 524.478 537.477 537.477 532.162C543.903 529.541 549.484 526.536 555.733 529.63C566.2 534.827 575.957 554.119 579.599 564.824C573.307 574.255 565.889 583.434 554.607 587.417C550.916 588.72 545.418 589.327 538.114 589.238C518.846 589.021 499.584 588.922 480.327 588.942C474.592 588.942 470.121 588.478 466.913 587.55C452.507 583.375 442.128 568.673 436.591 555.289C435.534 552.722 433.531 551.049 430.579 550.269C424.795 548.74 420.364 550.378 417.284 555.185C408.682 568.658 392.603 587.565 376.938 588.157C368.529 588.483 360.583 588.32 353.101 587.669C347.613 584.165 345.59 579.866 347.031 574.773C347.416 573.401 348.284 572.088 349.636 570.835C358.431 562.647 367.374 554.326 376.509 546.538C379.065 544.357 381.434 542.131 383.616 539.861C384.8 544.698 387.756 547.496 392.484 548.256C410.059 551.113 412.502 523.678 394.069 524.123L420.423 491.816C424.174 496.386 428.349 497.941 432.948 496.48C436.709 495.286 439.414 492.621 441.062 488.485C443.954 481.27 440.435 476.275 430.505 473.502C435.954 465.201 439.873 459.086 442.261 455.157C443.386 453.277 443.416 449.886 446.481 449.265Z" fill="#CAD146"/>
<path d="M424.421 452.7L414.738 467.861C414.768 465.867 415.582 464.278 417.181 463.093C417.556 462.807 417.833 462.447 418.01 462.013C419.293 458.647 421.43 455.542 424.421 452.7Z" fill="#008B94"/>
<path d="M430.505 473.503C440.435 476.277 443.954 481.271 441.062 488.486C439.413 492.622 436.709 495.287 432.948 496.481C428.348 497.942 424.173 496.388 420.422 491.818C417.293 481.641 420.654 475.536 430.505 473.503Z" fill="#01020B"/>
<path d="M504.475 528.624C494.037 526.048 490.899 513.522 501.011 508.192C507.066 508.369 509.539 506.489 513.255 512.693C516.049 517.352 515.451 521.621 511.464 525.5C509.194 527.711 506.864 528.752 504.475 528.624Z" fill="#01020B"/>
<path d="M394.069 524.123C412.502 523.678 410.059 551.113 392.484 548.256C387.756 547.496 384.8 544.698 383.616 539.861C382.668 531.481 386.153 526.235 394.069 524.123Z" fill="#01020B"/>
<path d="M449.146 609.952C435.021 621.678 425.22 631.346 405.069 630.235C402.858 630.107 399.039 629.13 393.61 627.304L383.927 619.842C385.822 615.953 388.122 613.623 390.826 612.853C404.714 608.876 415.32 600.762 422.644 588.513C422.741 588.352 422.875 588.217 423.037 588.121C423.198 588.025 423.38 587.97 423.568 587.961C423.755 587.952 423.942 587.99 424.111 588.071C424.281 588.152 424.428 588.273 424.539 588.424C430.846 596.878 439.049 606.132 449.146 609.952Z" fill="#008B94"/>
<path d="M630.116 614.468C629.564 616.017 629.006 617.335 628.443 618.421C627.831 619.576 626.864 620.563 625.541 621.382C614.615 628.114 603.333 628.884 591.696 623.692C584.845 620.632 578.513 615.731 572.7 608.99C583.463 603.6 589.119 597.323 595.96 588.143C596.305 587.679 596.651 587.674 596.996 588.128C599 590.764 601.063 593.241 603.185 595.561C610.953 604.02 619.93 610.322 630.116 614.468Z" fill="#008B94"/>
<path d="M572.7 608.989C578.514 615.731 584.846 620.632 591.696 623.691C603.333 628.883 614.615 628.113 625.542 621.382C626.864 620.562 627.832 619.575 628.444 618.421C629.006 617.335 629.564 616.017 630.117 614.467C642.139 635.6 654.388 652.489 666.865 665.133C678.611 677.036 691.743 687.84 706.263 697.542C708.563 699.082 709.175 701.249 708.099 704.042C706.485 708.232 701.866 709.195 697.379 709.209C663.79 709.308 630.29 709.333 596.878 709.283C589.199 691.901 580.177 677.328 569.813 665.562C560.796 655.316 548.522 658.84 536.5 663.919C530.963 666.268 526.585 667.59 523.367 667.887C513.403 668.819 505.704 665.414 497.161 659.329C503.794 659.684 507.935 657.197 509.583 651.867C514.04 637.505 490.795 631.909 489.003 648.106C485.554 645.13 481.053 644.02 478.254 642.569C475.806 641.305 473.24 640.145 470.555 639.089C470.496 636.77 469.776 634.268 468.394 631.583C466.42 627.733 463.083 626.115 458.385 626.727L460.473 626.356C460.907 626.277 461.035 626.031 460.858 625.616C460.502 624.797 459.999 624.086 459.347 623.484C458.972 623.129 458.696 622.714 458.518 622.24C457.225 618.884 455.281 615.978 452.685 613.52C452.339 613.194 452.201 612.794 452.27 612.321L452.389 611.639C462.353 615.889 471.769 616.303 482.43 616.451C502.664 616.728 522.904 616.782 543.148 616.614C555.141 616.516 564.991 613.974 572.7 608.989Z" fill="#02A69E"/>
<path d="M449.147 609.952L452.389 611.639L452.271 612.321C452.201 612.794 452.34 613.194 452.685 613.52C455.281 615.978 457.225 618.884 458.519 622.24C458.696 622.714 458.973 623.129 459.348 623.484C459.999 624.086 460.503 624.797 460.858 625.616C461.036 626.031 460.907 626.277 460.473 626.356L458.385 626.727C443.979 628.118 444.838 650.075 460.532 648.802C465.458 648.397 468.799 645.16 470.556 639.089C473.24 640.146 475.807 641.305 478.255 642.569C481.053 644.02 485.554 645.13 489.004 648.106C489.744 653.545 492.463 657.286 497.162 659.329C505.705 665.414 513.404 668.819 523.368 667.887C526.586 667.59 530.963 666.268 536.5 663.919C548.523 658.84 560.797 655.316 569.813 665.562C580.177 677.328 589.199 691.901 596.878 709.283L320.47 709.417C330.281 702.715 338.691 695.958 345.699 689.148C354.089 680.995 362.893 671.415 372.112 660.41C379.974 651.052 386.148 640.526 394.321 631.509C395.17 630.581 394.933 629.179 393.61 627.304C399.039 629.13 402.859 630.107 405.07 630.236C425.22 631.346 435.022 621.678 449.147 609.952Z" fill="#CAD146"/>
<path d="M383.927 619.842L393.611 627.304C394.933 629.179 395.17 630.581 394.321 631.509C386.148 640.525 379.974 651.052 372.113 660.41C362.893 671.415 354.089 680.994 345.699 689.148C338.691 695.958 330.281 702.715 320.47 709.417C311.868 710.645 304.435 701.806 312.771 695.529C341.613 673.735 362.711 649.749 383.927 619.842Z" fill="white"/>
<path d="M458.386 626.727C463.084 626.115 466.42 627.733 468.394 631.583C469.776 634.268 470.497 636.77 470.556 639.089C468.799 645.16 465.458 648.397 460.533 648.802C444.839 650.075 443.98 628.118 458.386 626.727Z" fill="#01020B"/>
<path d="M497.162 659.329C492.464 657.286 489.744 653.545 489.004 648.106C490.795 631.909 514.04 637.505 509.584 651.867C507.936 657.197 503.795 659.684 497.162 659.329Z" fill="#01020B"/>
<path d="M583.223 491.153C580.353 491.97 577.267 491.584 574.644 490.079C572.021 488.575 570.076 486.074 569.237 483.129C568.398 480.183 568.734 477.033 570.17 474.372C571.606 471.711 574.025 469.757 576.895 468.939C579.765 468.122 582.851 468.508 585.474 470.013C588.097 471.517 590.042 474.018 590.881 476.963C591.72 479.909 591.384 483.059 589.948 485.72C588.512 488.381 586.093 490.335 583.223 491.153Z" fill="#01020B"/>
<path d="M590.044 518.906C587.411 517.342 585.535 514.748 584.829 511.694C584.124 508.64 584.646 505.377 586.282 502.622C587.918 499.866 590.533 497.845 593.552 497.003C596.571 496.16 599.747 496.566 602.38 498.129C605.014 499.693 606.89 502.287 607.595 505.341C608.301 508.395 607.778 511.658 606.142 514.414C604.506 517.169 601.891 519.19 598.872 520.032C595.853 520.875 592.678 520.47 590.044 518.906Z" fill="#01020B"/>
<path d="M475.65 515.432C475.65 518.13 474.578 520.717 472.671 522.625C470.763 524.532 468.176 525.604 465.478 525.604C462.781 525.604 460.193 524.532 458.286 522.625C456.378 520.717 455.307 518.13 455.307 515.432C455.307 512.735 456.378 510.147 458.286 508.24C460.193 506.332 462.781 505.261 465.478 505.261C468.176 505.261 470.763 506.332 472.671 508.24C474.578 510.147 475.65 512.735 475.65 515.432Z" fill="#01020B"/>
<path d="M436.252 517.712C436.252 520.559 435.121 523.289 433.108 525.302C431.095 527.315 428.364 528.446 425.517 528.446C422.67 528.446 419.94 527.315 417.927 525.302C415.914 523.289 414.783 520.559 414.783 517.712C414.783 514.865 415.914 512.135 417.927 510.122C419.94 508.109 422.67 506.978 425.517 506.978C428.364 506.978 431.095 508.109 433.108 510.122C435.121 512.135 436.252 514.865 436.252 517.712Z" fill="#01020B"/>
<path d="M611.949 542.549C609.619 540.315 608.31 537.207 608.31 533.91C608.309 530.613 609.618 527.396 611.947 524.967C613.1 523.765 614.469 522.792 615.976 522.104C617.483 521.416 619.098 521.027 620.73 520.959C622.361 520.89 623.976 521.144 625.483 521.706C626.99 522.268 628.36 523.126 629.513 524.233C631.843 526.467 633.152 529.574 633.152 532.871C633.153 536.169 631.844 539.386 629.515 541.814C628.362 543.017 626.993 543.99 625.486 544.678C623.979 545.366 622.363 545.755 620.732 545.823C619.101 545.891 617.486 545.637 615.979 545.075C614.472 544.514 613.102 543.655 611.949 542.549Z" fill="#01020B"/>
<path d="M514.268 555.664C514.004 558.262 512.64 560.641 510.475 562.277C508.311 563.913 505.524 564.672 502.726 564.388C501.341 564.247 499.996 563.855 498.766 563.233C497.536 562.61 496.447 561.771 495.56 560.762C494.673 559.753 494.006 558.594 493.597 557.351C493.187 556.109 493.044 554.808 493.175 553.521C493.439 550.923 494.803 548.545 496.967 546.909C499.132 545.273 501.919 544.513 504.716 544.797C506.101 544.938 507.447 545.331 508.677 545.953C509.906 546.575 510.996 547.415 511.882 548.424C512.769 549.433 513.437 550.592 513.846 551.834C514.255 553.076 514.399 554.378 514.268 555.664Z" fill="#01020B"/>
<path d="M622.716 677.147C620.936 676.457 619.313 675.412 617.941 674.072C616.569 672.732 615.473 671.123 614.718 669.338C613.962 667.553 613.561 665.625 613.537 663.666C613.513 661.707 613.867 659.755 614.579 657.92C616.016 654.215 618.822 651.216 622.381 649.582C625.939 647.949 629.957 647.814 633.552 649.209C635.333 649.899 636.955 650.944 638.327 652.284C639.7 653.624 640.795 655.233 641.551 657.018C642.306 658.803 642.707 660.731 642.731 662.69C642.755 664.649 642.401 666.601 641.69 668.436C640.252 672.141 637.446 675.14 633.888 676.774C630.33 678.407 626.311 678.542 622.716 677.147Z" fill="#01020B"/>
<path d="M405.839 663.09C405.839 666.545 404.467 669.859 402.023 672.303C399.58 674.746 396.266 676.119 392.81 676.119C389.355 676.119 386.041 674.746 383.597 672.303C381.154 669.859 379.781 666.545 379.781 663.09C379.781 661.379 380.118 659.684 380.773 658.104C381.428 656.523 382.388 655.087 383.597 653.877C384.807 652.667 386.244 651.707 387.824 651.052C389.405 650.398 391.099 650.061 392.81 650.061C394.521 650.061 396.216 650.398 397.796 651.052C399.377 651.707 400.813 652.667 402.023 653.877C403.233 655.087 404.193 656.523 404.848 658.104C405.502 659.684 405.839 661.379 405.839 663.09Z" fill="#01020B"/>
</svg>
