<svg width="512" height="512" viewBox="0 0 512 512" fill="none" xmlns="http://www.w3.org/2000/svg">
<rect width="512" height="512" fill="white"/>
<path d="M173.625 362.305C149.471 345.763 134.102 325.021 122.229 298.485C119.938 293.378 118.227 288.419 117.094 283.607C115.338 276.202 114.365 270.373 114.173 266.12C113.958 261.244 113.675 257.957 113.324 256.257C111.875 236.951 115.418 219.428 121.379 201.282C128.596 179.295 140.685 161.113 158.208 144.632C165.095 138.16 170.924 133.425 175.695 130.424C193.781 119.077 214.727 109.897 235.721 107.3C270.049 103.063 303.012 109.035 332.493 127.432C363.768 146.942 386.271 179.594 395.2 214.951C398.615 228.461 399.784 240.933 398.707 252.367C398.188 257.841 397.841 261.524 397.665 263.415C394.47 297.264 379.089 327.546 354.157 350.587C349.836 354.597 344.63 358.175 339.674 361.659C338.533 362.472 338.661 362.867 340.057 362.843C352.505 362.628 365.209 362.588 378.167 362.724C380.585 362.748 382.42 363.274 383.673 364.304C388.078 367.906 385.924 376.859 379.352 376.859C358.087 376.883 336.774 376.883 315.413 376.859C314.699 376.859 313.992 376.968 313.318 377.183C307.541 379.05 301.504 380.841 295.208 382.557C265.764 390.6 236.866 389.962 208.515 380.642C202.1 378.535 197.958 377.003 191.148 376.979C172.005 376.899 152.866 376.855 133.731 376.848C131.449 376.848 129.729 376.397 128.572 375.495C125.257 372.946 125.233 367.356 128.333 364.591C129.482 363.562 131.21 363.027 133.516 362.987C146.841 362.716 160.127 362.748 173.373 363.083C173.464 363.082 173.552 363.053 173.625 362.999C173.697 362.946 173.752 362.87 173.779 362.784C173.807 362.698 173.807 362.606 173.779 362.52C173.752 362.434 173.698 362.358 173.625 362.305Z" fill="#021424"/>
<path d="M174.788 400.189C174.793 400.924 174.653 401.654 174.376 402.335C174.1 403.017 173.691 403.637 173.175 404.161C172.658 404.685 172.044 405.102 171.366 405.388C170.688 405.674 169.961 405.824 169.225 405.829L160.177 405.892C158.691 405.903 157.263 405.323 156.205 404.279C155.147 403.236 154.547 401.816 154.537 400.33L154.532 399.66C154.527 398.924 154.666 398.195 154.943 397.513C155.22 396.832 155.628 396.211 156.145 395.688C156.661 395.164 157.276 394.747 157.954 394.461C158.631 394.174 159.359 394.024 160.094 394.019L169.143 393.956C170.628 393.946 172.057 394.526 173.115 395.569C174.173 396.612 174.773 398.033 174.783 399.518L174.788 400.189Z" fill="#021424"/>
<path d="M354.123 400.049C354.131 400.798 353.991 401.542 353.712 402.238C353.432 402.934 353.018 403.567 352.494 404.103C351.969 404.639 351.344 405.066 350.654 405.36C349.965 405.654 349.224 405.81 348.474 405.817L331.072 406C329.558 406.016 328.099 405.429 327.018 404.37C325.936 403.31 325.319 401.865 325.303 400.35L325.298 399.872C325.29 399.122 325.43 398.378 325.71 397.682C325.989 396.987 326.403 396.353 326.928 395.817C327.453 395.282 328.078 394.854 328.767 394.56C329.457 394.266 330.198 394.111 330.947 394.103L348.35 393.921C349.864 393.905 351.322 394.491 352.404 395.55C353.486 396.61 354.103 398.056 354.118 399.57L354.123 400.049Z" fill="#021424"/>
<path d="M356.73 292.775C348.799 290.804 342.172 288.806 336.85 286.779C332.445 285.095 325.391 282.155 315.688 277.957C311.139 275.983 305.239 276.27 308.291 283.116C312.72 293.115 316.673 303.296 320.152 313.662C320.887 315.856 320.695 317.396 319.578 318.282C318.349 319.263 317.132 319.116 315.927 317.839C304.126 305.407 292.38 292.923 280.69 280.387C275.327 274.642 270.815 276.425 268.96 283.463C265.784 295.6 262.792 307.781 259.983 320.005C259.013 324.255 253.412 325.2 252.442 320.891C249.534 307.952 245.704 294.918 242.651 282.278C241.766 278.592 237.852 275.049 234.129 277.802C233.236 278.464 232.406 279.194 231.64 279.992C219.798 292.305 208.072 304.717 196.462 317.229C195.632 318.122 194.483 318.629 193.015 318.749C192.608 318.781 192.269 318.649 191.997 318.354C191.056 317.316 190.848 316.151 191.375 314.859C195.947 303.663 200.34 292.396 204.553 281.057C206.54 275.719 200.256 276.677 197.647 277.694C183.723 283.12 169.483 288.347 154.929 293.374" stroke="#8493A2" stroke-width="2"/>
<path d="M134.234 287.916C122.863 246.586 128.381 206.333 154.498 171.802C170.214 151.023 193.027 135.978 217.744 127.815C282.761 106.342 353.236 142.549 376.145 206.561C383.709 227.714 385.186 249.646 380.574 272.356C379.632 276.992 378.519 281.752 377.234 286.635C377.205 286.744 377.15 286.844 377.075 286.927C377 287.011 376.906 287.076 376.801 287.117C376.696 287.157 376.583 287.173 376.471 287.162C376.36 287.151 376.252 287.114 376.157 287.054C365.42 280.208 356.013 273.648 344.343 265.689C322.235 250.632 301.588 232.211 287.393 209.338C286.571 208.013 284.803 207.355 282.09 207.363C264.639 207.403 247.184 207.502 229.725 207.662C226.134 207.698 224.662 208.631 222.603 211.708C212.461 226.908 201.585 239.185 189.975 248.537C171.195 263.666 150.943 276.725 134.844 288.131C134.533 288.347 134.33 288.275 134.234 287.916Z" fill="#FF465C"/>
<path d="M356.73 292.775C348.799 290.804 342.172 288.806 336.85 286.779C332.445 285.095 325.391 282.155 315.688 277.957C311.139 275.982 305.239 276.27 308.291 283.116C312.72 293.114 316.673 303.296 320.152 313.662C320.887 315.856 320.695 317.396 319.578 318.282C318.349 319.263 317.132 319.116 315.927 317.839C304.126 305.407 292.38 292.923 280.69 280.387C275.327 274.642 270.815 276.425 268.96 283.463C265.784 295.6 262.792 307.781 259.983 320.005C259.013 324.254 253.412 325.2 252.442 320.891C249.534 307.952 245.704 294.918 242.651 282.278C241.766 278.592 237.852 275.049 234.129 277.802C233.236 278.464 232.406 279.194 231.64 279.992C219.798 292.305 208.072 304.717 196.462 317.229C195.632 318.122 194.483 318.629 193.015 318.749C192.608 318.781 192.269 318.649 191.997 318.354C191.056 317.316 190.848 316.151 191.375 314.859C195.947 303.663 200.34 292.396 204.553 281.057C206.54 275.719 200.256 276.677 197.647 277.694C183.723 283.12 169.483 288.347 154.929 293.374C176.066 278.412 196.63 265.066 214.919 245.784C221.131 239.237 227.558 231.026 233.878 223.497C234.096 223.235 234.367 223.024 234.673 222.879C234.979 222.734 235.313 222.659 235.649 222.659L276.106 222.755C276.552 222.755 276.911 222.931 277.183 223.282C288.027 237.382 299.589 249.77 313.689 261.26C327.246 272.328 341.593 282.833 356.73 292.775Z" fill="#FFFFFE"/>
<path d="M356.731 292.775L369.49 301.178C369.996 301.514 370.359 302.025 370.509 302.613C370.659 303.201 370.586 303.824 370.304 304.362C344.546 353.567 293.761 377.135 239.277 371.461C223.174 369.786 208.049 364.946 193.901 356.943C182.514 350.503 173.637 344.239 167.269 338.151C159.075 330.315 153.868 324.558 151.65 320.879C148.131 315.062 144.556 309.596 140.925 304.481C140.722 304.195 140.583 303.868 140.519 303.523C140.455 303.178 140.467 302.823 140.555 302.483C140.643 302.143 140.804 301.827 141.027 301.556C141.25 301.285 141.53 301.066 141.847 300.914C145.27 299.275 148.957 298.006 151.805 295.624C152.93 294.675 153.972 293.924 154.929 293.374C169.484 288.347 183.723 283.12 197.647 277.694C200.257 276.677 206.541 275.719 204.554 281.057C200.341 292.396 195.948 303.663 191.376 314.859C190.849 316.151 191.056 317.316 191.998 318.354C192.269 318.649 192.608 318.781 193.015 318.749C194.484 318.629 195.633 318.122 196.463 317.229C208.073 304.717 219.799 292.305 231.64 279.992C232.406 279.194 233.236 278.464 234.13 277.802C237.852 275.049 241.766 278.592 242.652 282.278C245.704 294.918 249.534 307.952 252.443 320.891C253.412 325.2 259.014 324.255 259.983 320.005C262.792 307.781 265.785 295.6 268.96 283.463C270.816 276.425 275.328 274.642 280.69 280.387C292.38 292.923 304.126 305.407 315.928 317.839C317.133 319.116 318.349 319.263 319.578 318.282C320.695 317.396 320.887 315.856 320.153 313.662C316.674 303.296 312.72 293.115 308.291 283.116C305.239 276.27 311.14 275.983 315.688 277.957C325.391 282.155 332.445 285.095 336.85 286.779C342.172 288.806 348.799 290.804 356.731 292.775Z" fill="#092645"/>
</svg>
