<svg width="512" height="512" viewBox="0 0 512 512" fill="none" xmlns="http://www.w3.org/2000/svg">
<rect width="512" height="512" fill="white"/>
<path d="M339.13 158.076C363.055 158.611 380.205 170.671 394.033 189.548C396.049 192.303 399.503 197.465 398.352 200.929C397.272 204.199 393.591 206.78 390.106 205.052C388.118 204.065 386.165 203.023 384.245 201.927C376.329 197.403 367.617 195.107 358.11 195.038C357.041 195.031 356.996 195.24 357.976 195.665C358.826 196.029 359.69 196.587 360.567 197.341C373.796 208.713 381.99 222.743 385.15 239.434C387.114 249.818 386.569 261.868 385.027 272.581C384.06 279.326 376.38 284.055 372.35 276.293C370.16 272.087 368.196 267.368 366.037 263.626C356.259 246.682 342.492 234.663 325.631 225.965C322.848 224.525 319.986 223.367 317.046 222.49C316.985 222.473 316.92 222.471 316.858 222.483C316.796 222.496 316.739 222.524 316.69 222.563C316.641 222.603 316.603 222.653 316.579 222.71C316.555 222.767 316.546 222.829 316.552 222.891C318.3 242.446 318.249 261.981 317.971 281.588C317.591 307.774 313.817 334.208 308.399 359.922C308.352 360.145 308.393 360.377 308.514 360.572C308.634 360.767 308.825 360.91 309.047 360.971C330.905 366.948 350.526 377.226 367.908 391.805C370.479 393.964 373.224 396.534 373.224 400.092C373.224 403.896 371.085 405.798 366.808 405.798C295.695 405.812 224.581 405.822 153.468 405.829C149.592 405.829 141.603 406.62 138.498 404.801C134.457 402.446 135.753 396.668 138.981 393.83C157.851 377.243 179.555 366.163 204.094 360.59C204.443 360.508 204.58 360.292 204.505 359.943C201.935 348.777 199.169 337.231 197.74 326.291C194.295 299.909 194.213 271.152 194.594 246.888C194.703 239.8 195.211 231.914 196.115 223.23C196.15 222.846 195.982 222.702 195.612 222.798C174.442 228.134 155.247 246.764 144.358 265.189C142.271 268.715 140.78 272.694 139.228 276.58C137.007 282.143 129.666 281.32 127.672 275.943C124.587 267.636 125.255 257.272 125.749 248.45C126.647 232.631 132.161 218.699 142.292 206.656C146.014 202.235 149.866 198.866 153.848 196.55C156.227 195.165 156.045 194.548 153.303 194.699C142.494 195.288 132.261 198.705 122.603 204.95C118.614 207.52 113 204.024 113 199.305C113.007 197.975 113.524 196.354 114.553 194.442C125.996 173.252 146.507 158.601 170.864 158.333C171.025 158.334 171.181 158.281 171.308 158.181C171.434 158.082 171.523 157.943 171.561 157.786C171.599 157.629 171.583 157.462 171.516 157.314C171.45 157.165 171.336 157.043 171.193 156.966C168.294 155.424 165.086 153.768 162.999 150.756C157.92 143.436 163.091 138.86 170.329 138.48C185.238 137.719 200.958 140.721 213.553 149.018C214.039 149.341 214.423 149.245 214.704 148.731C223.824 132.105 236.254 117.506 252.098 107.235C256.457 104.407 261.577 106.926 265.063 109.877C269.792 113.887 275.149 118.112 279.107 122.204C286.476 129.82 292.449 138.49 297.028 148.216C297.068 148.303 297.126 148.38 297.199 148.442C297.272 148.504 297.357 148.55 297.45 148.577C297.542 148.603 297.64 148.609 297.735 148.595C297.831 148.581 297.923 148.546 298.005 148.494C310.795 140.248 324.736 137.812 339.819 138.038C344.837 138.11 353.206 142.222 349.813 148.659C348.075 151.969 342.462 155.054 338.904 157.274C338.088 157.789 338.164 158.056 339.13 158.076Z" fill="#020111"/>
<path d="M250.238 129.864C246.057 133.942 242.42 137.932 239.329 141.832C235.35 146.849 236.368 156.072 236.605 162.148" stroke="#FE91A9" stroke-width="2"/>
<path d="M236.603 162.148C226.753 175.833 222.322 189.24 220.585 206.019C218.679 224.43 217.743 242.892 217.778 261.405C217.809 280.272 217.654 299.179 219.207 317.994C219.255 318.584 219.018 319.019 218.497 319.3C216.345 320.458 214.234 321.065 212.164 321.12" stroke="#FFDC91" stroke-width="2"/>
<path d="M250.123 170.435L250.267 354.596" stroke="#7F122A" stroke-width="2"/>
<path d="M250.165 361.012L237.961 368.538C237.481 368.833 237.238 369.264 237.231 369.833L236.974 391.65" stroke="#D81755" stroke-width="2"/>
<path d="M223.494 376.115L236.171 368.939C236.358 368.836 236.514 368.685 236.622 368.503C236.731 368.32 236.788 368.112 236.788 367.9L236.603 162.148" stroke="#FF6F3B" stroke-width="2"/>
<path d="M218.57 353.064C218.755 351.001 218.467 349.037 217.706 347.173" stroke="#FF8627" stroke-width="2"/>
<path d="M276.979 158.498C276.506 163.454 276.177 168.241 275.992 172.861C275.683 180.654 275.522 188.451 275.508 196.251C275.467 225.543 275.118 254.866 275.498 284.158C275.813 308.422 275.704 334.938 275.169 363.706C275.135 365.44 275.906 366.482 277.482 366.831C277.805 366.9 278.103 367.03 278.377 367.222L280.844 368.918" stroke="#FF6F3B" stroke-width="2"/>
<path d="M280.845 368.918C283.566 371.831 286.582 373.908 289.892 375.149" stroke="#FE3C3F" stroke-width="2"/>
<path d="M274.799 391.712C275.54 383.837 275.79 376.002 275.55 368.209C275.499 366.646 275.149 365.844 273.658 365.155C269.635 363.304 265.995 360.799 262.739 357.639" stroke="#D81755" stroke-width="2"/>
<path d="M262.543 355.655L262.553 171.237" stroke="#7F122A" stroke-width="2"/>
<path d="M291.98 187.625L291.023 187.728C290.789 187.751 290.572 187.863 290.417 188.041C290.263 188.219 290.182 188.449 290.191 188.684C290.406 195.624 291.167 203.479 291.414 209.093C292.586 234.982 292.473 260.788 292.627 286.687C292.689 296.79 292.055 306.846 290.725 316.853C290.636 317.511 289.954 323.149 288.679 333.766C287.466 343.807 285.18 353.619 281.821 363.202C281.153 365.114 281.03 366.965 280.845 368.918" stroke="#FF8627" stroke-width="2"/>
<path d="M295.866 186.34L291.979 187.625" stroke="#FEA995" stroke-width="2"/>
<path d="M291.98 187.625C291.596 187.618 291.37 187.492 291.302 187.245C290.321 183.852 289.317 180.463 288.289 177.077C286.274 170.496 281.524 164.43 276.979 158.498" stroke="#FFDC91" stroke-width="2"/>
<path d="M276.979 158.498C276.575 155.468 276.341 152.072 276.28 148.309C276.246 146.006 275.93 144.402 275.334 143.497C272.078 138.569 267.835 134.391 262.605 130.964" stroke="#FE91A9" stroke-width="2"/>
<path d="M208.022 161.767C207.85 161.959 207.604 161.994 207.282 161.87C202.107 159.972 196.661 159.235 190.944 159.66" stroke="#BBDFA7" stroke-width="2"/>
<path d="M204.916 173.725C201.407 171.833 197.959 169.211 194.573 165.859" stroke="#6BA06D" stroke-width="2"/>
<path d="M192.105 187.204L191.807 184.561C191.766 184.205 191.824 183.866 191.981 183.544C192.708 182.063 192.958 180.562 192.732 179.04" stroke="#6BA06D" stroke-width="2"/>
<path d="M192.732 179.04C193.877 178.526 193.99 177.419 193.072 175.719" stroke="#AEC0C4" stroke-width="2"/>
<path d="M192.732 179.04C176.734 176.305 161.435 176.305 146.003 181.456" stroke="#BBDFA7" stroke-width="2"/>
<path d="M320.304 159.464C317.754 159.598 315.544 160.41 313.025 160.472C309.838 160.554 306.863 161.202 304.101 162.415" stroke="#BBDFA7" stroke-width="2"/>
<path d="M315.4 175.884C315.126 175.15 314.855 175.438 314.588 176.747C314.389 177.693 314.341 178.595 314.444 179.451C314.456 179.544 314.488 179.633 314.536 179.713C314.584 179.793 314.648 179.863 314.725 179.917C314.801 179.971 314.887 180.009 314.979 180.028C315.07 180.047 315.165 180.046 315.256 180.027C323.327 178.351 330.997 176.542 339.315 177.004C347.293 177.443 355.07 178.955 362.644 181.539" stroke="#BBDFA7" stroke-width="2"/>
<path d="M197.338 201.917C192.917 202.348 187.975 203.284 182.512 204.723C171.182 207.705 160.078 212.887 151.935 221.143C150.05 223.055 148.134 225.053 146.188 227.137" stroke="#BBDFA7" stroke-width="2"/>
<path d="M365.255 226.407C352.023 210.676 336.077 205.022 316.326 202.153C316.066 202.112 315.987 201.961 316.09 201.701" stroke="#BBDFA7" stroke-width="2"/>
<path d="M208.977 382.017C203.374 383.22 197.318 383.323 192.249 384.371C186.307 385.605 180.36 386.853 174.411 388.114C172.601 388.498 170.929 389.485 169.394 391.075" stroke="#FFDC91" stroke-width="2"/>
<path d="M338.236 391.661C338.037 391.62 337.9 391.441 337.825 391.126C337.743 390.797 337.554 390.554 337.259 390.396C331.82 387.497 326.608 386.448 320.624 385.081C315.781 383.97 309.345 383.343 303.731 381.832" stroke="#FFDC91" stroke-width="2"/>
<path d="M250.237 129.864C246.056 133.942 242.419 137.932 239.328 141.832C235.349 146.849 236.367 156.072 236.604 162.148C226.754 175.832 222.323 189.24 220.585 206.019C218.68 224.43 217.744 242.892 217.778 261.405C217.809 280.272 217.655 299.179 219.207 317.994C219.255 318.584 219.019 319.019 218.498 319.3C216.346 320.458 214.235 321.065 212.165 321.12C208.875 293.894 208.669 266.823 209.676 239.691C210.341 221.582 212.672 203.695 216.668 186.032C221.836 163.159 232.861 143.826 249.743 128.034C250.607 127.225 250.888 127.393 250.586 128.538L250.237 129.864Z" fill="#FEFEFE"/>
<path d="M295.866 186.34L291.98 187.625C291.596 187.618 291.37 187.492 291.301 187.245C290.321 183.852 289.317 180.463 288.289 177.076C286.273 170.496 281.523 164.43 276.979 158.498C276.575 155.468 276.341 152.072 276.28 148.309C276.246 146.006 275.93 144.402 275.334 143.497C272.078 138.569 267.835 134.391 262.605 130.964L262.739 128.764C262.767 128.27 262.965 128.188 263.335 128.517C280.66 144.309 289.79 163.824 295.866 186.34Z" fill="#FEFEFE"/>
<path d="M250.236 129.864L250.123 170.435L250.267 354.596L250.164 361.012L237.96 368.538C237.48 368.833 237.237 369.264 237.23 369.833L236.973 391.651L228.491 391.579C228.114 391.579 227.871 391.397 227.761 391.034L223.494 376.115L236.171 368.939C236.358 368.836 236.514 368.685 236.622 368.503C236.731 368.32 236.788 368.112 236.788 367.9L236.603 162.148C236.367 156.072 235.349 146.849 239.328 141.832C242.419 137.932 246.055 133.942 250.236 129.864Z" fill="#FE2453"/>
<path d="M262.605 130.964C267.834 134.391 272.077 138.569 275.333 143.497C275.929 144.402 276.245 146.006 276.279 148.309C276.341 152.072 276.574 155.468 276.978 158.498C276.505 163.454 276.176 168.241 275.991 172.861C275.683 180.654 275.522 188.451 275.508 196.251C275.467 225.543 275.117 254.866 275.498 284.158C275.813 308.422 275.703 334.938 275.169 363.705C275.134 365.44 275.905 366.481 277.482 366.831C277.804 366.9 278.102 367.03 278.376 367.222L280.844 368.918C283.565 371.831 286.581 373.908 289.892 375.149L285.029 391.229C284.926 391.572 284.696 391.743 284.34 391.743L274.798 391.712C275.539 383.837 275.789 376.002 275.549 368.209C275.498 366.646 275.148 365.844 273.657 365.155C269.634 363.305 265.994 360.799 262.738 357.639L262.543 355.655L262.553 171.237L262.605 130.964Z" fill="#FE2453"/>
<path d="M208.021 161.767C207.85 161.959 207.603 161.994 207.281 161.87C202.106 159.972 196.66 159.235 190.944 159.66L185.402 153.758C185.135 153.477 185.193 153.364 185.577 153.419C193.678 154.529 201.16 157.312 208.021 161.767Z" fill="#FEFEFE"/>
<path d="M320.305 159.464C317.755 159.598 315.544 160.41 313.025 160.472C309.838 160.554 306.863 161.202 304.101 162.415C303.731 161.579 303.789 161.007 304.276 160.698C310.794 156.575 317.93 154.899 325.425 153.337C326.46 153.117 326.597 153.374 325.836 154.108L320.305 159.464Z" fill="#FEFEFE"/>
<path d="M276.979 158.498C281.523 164.43 286.273 170.496 288.288 177.077C289.316 180.463 290.321 183.852 291.301 187.245C291.369 187.492 291.595 187.618 291.979 187.625L291.023 187.728C290.789 187.752 290.572 187.863 290.417 188.041C290.262 188.219 290.181 188.449 290.19 188.684C290.406 195.624 291.167 203.479 291.414 209.093C292.586 234.982 292.473 260.788 292.627 286.687C292.689 296.79 292.055 306.846 290.725 316.853C290.636 317.511 289.954 323.149 288.679 333.766C287.466 343.807 285.18 353.619 281.821 363.202C281.153 365.114 281.029 366.965 280.844 368.918L278.377 367.222C278.103 367.03 277.805 366.9 277.482 366.831C275.906 366.482 275.135 365.44 275.169 363.706C275.704 334.938 275.813 308.422 275.498 284.158C275.118 254.866 275.467 225.543 275.508 196.251C275.522 188.451 275.683 180.654 275.992 172.861C276.177 168.241 276.506 163.454 276.979 158.498Z" fill="#FFB923"/>
<path d="M208.022 161.767C208.221 161.671 208.392 161.747 208.536 161.994C208.707 162.288 208.738 162.597 208.628 162.919L204.917 173.725C201.407 171.833 197.96 169.211 194.574 165.859L190.944 159.66C196.661 159.235 202.107 159.972 207.282 161.87C207.604 161.994 207.85 161.959 208.022 161.767Z" fill="#78BF4F"/>
<path d="M320.304 159.464C318.69 162.22 316.808 164.564 316.264 167.731C315.818 170.294 315.53 173.012 315.4 175.884C315.126 175.15 314.855 175.438 314.588 176.747C314.389 177.693 314.341 178.595 314.444 179.451C314.456 179.544 314.487 179.633 314.535 179.713C314.584 179.793 314.648 179.863 314.724 179.917C314.8 179.971 314.887 180.009 314.979 180.028C315.07 180.047 315.164 180.046 315.256 180.027C323.327 178.351 330.997 176.542 339.315 177.004C347.293 177.443 355.069 178.955 362.643 181.539C356.228 181.737 349.891 182.488 343.633 183.79C340.384 184.469 337.121 184.949 333.845 185.23C326.545 185.86 319.372 187.197 312.326 189.239C311.99 189.335 311.781 189.212 311.699 188.869C309.725 180.055 307.192 171.237 304.101 162.415C306.863 161.202 309.838 160.554 313.025 160.472C315.544 160.41 317.754 159.598 320.304 159.464Z" fill="#78BF4F"/>
<path d="M236.603 162.148L236.788 367.9C236.788 368.112 236.731 368.32 236.622 368.503C236.514 368.685 236.358 368.836 236.171 368.939L223.494 376.115L218.569 353.064C218.754 351.001 218.467 349.037 217.706 347.173L212.164 321.12C214.234 321.065 216.345 320.458 218.497 319.3C219.018 319.019 219.255 318.584 219.207 317.994C217.654 299.179 217.809 280.272 217.778 261.405C217.743 242.892 218.679 224.43 220.585 206.019C222.322 189.24 226.753 175.833 236.603 162.148Z" fill="#FFB923"/>
<path d="M194.572 165.859C197.958 169.211 201.406 171.833 204.916 173.725L200.844 188.067C200.798 188.234 200.692 188.378 200.548 188.471C200.404 188.564 200.231 188.6 200.063 188.571L192.105 187.204L191.807 184.561C191.766 184.205 191.824 183.866 191.981 183.544C192.708 182.063 192.958 180.562 192.732 179.04C193.877 178.526 193.99 177.419 193.071 175.719C195.354 172.255 194.562 169.509 194.572 165.859Z" fill="#5E818A"/>
<path d="M262.553 171.237L262.543 355.655C262.372 356.073 262.303 356.533 262.337 357.033C262.331 357.033 262.331 357.029 262.337 357.023C262.056 355.254 261.974 353.476 262.091 351.687C262.118 351.31 262.022 350.963 261.803 350.648C261.323 349.956 261.203 349.25 261.443 348.53C261.553 348.194 261.481 347.903 261.227 347.656C260.987 347.409 260.864 347.152 260.857 346.885C260.829 345.624 260.792 344.421 260.744 343.276C260.73 343.016 260.596 342.903 260.343 342.937L260.086 342.958C259.948 342.975 259.82 343.035 259.72 343.13C259.62 343.224 259.554 343.348 259.531 343.482L258.955 346.577C258.907 346.851 258.763 346.913 258.523 346.762C258.269 346.604 258.191 346.385 258.287 346.104C258.313 346.018 258.314 345.926 258.288 345.839C258.262 345.753 258.211 345.677 258.141 345.621C258.072 345.565 257.988 345.532 257.9 345.526C257.812 345.521 257.724 345.543 257.649 345.59C255.696 346.762 254.359 346.303 253.639 344.212C253.573 344.023 253.452 343.857 253.293 343.736C253.134 343.614 252.942 343.542 252.742 343.528C252.543 343.514 252.343 343.558 252.168 343.656C251.993 343.754 251.85 343.901 251.758 344.078C251.559 344.476 251.508 344.86 251.604 345.23C251.652 345.422 251.628 345.61 251.532 345.795C250.784 347.221 250.493 348.345 250.658 349.168C251.048 351.101 250.918 352.91 250.267 354.596L250.123 170.435C250.795 170.421 251.11 171.134 251.069 172.573C251.062 172.752 251.144 172.813 251.316 172.758C251.432 172.724 251.532 172.741 251.614 172.81C251.689 172.871 251.758 172.865 251.819 172.789C254.256 170.013 257.413 171.782 260.734 171.124C261.501 170.973 262.108 171.011 262.553 171.237Z" fill="#000001"/>
<path d="M193.072 175.719C193.991 177.419 193.878 178.526 192.733 179.04C176.735 176.305 161.436 176.305 146.004 181.456C145.181 181.847 144.499 182.022 143.958 181.981C143.211 181.919 143.142 181.672 143.752 181.24C153.499 174.27 164.284 171.086 176.108 171.689C181.639 171.977 187.438 174.167 193.072 175.719Z" fill="#FEFEFE"/>
<path d="M362.644 181.539C355.07 178.955 347.293 177.443 339.315 177.004C330.997 176.542 323.327 178.351 315.256 180.027C315.165 180.046 315.07 180.047 314.979 180.028C314.887 180.009 314.801 179.971 314.725 179.917C314.648 179.863 314.584 179.793 314.536 179.713C314.488 179.633 314.456 179.544 314.444 179.451C314.341 178.595 314.389 177.693 314.588 176.747C314.855 175.438 315.126 175.15 315.4 175.884C321.405 174.414 327.738 172.368 333.424 171.946C344.987 171.069 355.563 173.941 365.152 180.562C365.968 181.124 365.862 181.545 364.834 181.826C364.422 181.936 363.692 181.84 362.644 181.539Z" fill="#FEFEFE"/>
<path d="M192.732 179.04C192.958 180.562 192.708 182.063 191.982 183.544C191.824 183.866 191.766 184.205 191.807 184.561L192.105 187.204C189.051 186.854 186.09 186.217 183.068 186.093C180.072 185.97 177.087 185.768 174.112 185.487C172.063 185.295 169.129 184.76 165.312 183.883C159.403 182.519 153.395 181.851 147.288 181.878C146.939 181.878 146.51 181.738 146.003 181.456C161.435 176.305 176.734 176.305 192.732 179.04Z" fill="#78BF4F"/>
<path d="M295.866 186.34C300.486 207.684 302.946 229.409 303.248 251.514C303.385 261.282 303.351 271.049 303.145 280.816C302.679 302.901 300.16 324.746 295.588 346.35C294.574 351.148 292.675 360.748 289.892 375.149C286.582 373.908 283.566 371.831 280.845 368.918C281.03 366.965 281.153 365.114 281.821 363.202C285.18 353.619 287.466 343.807 288.679 333.766C289.954 323.149 290.636 317.511 290.725 316.853C292.055 306.846 292.689 296.79 292.627 286.687C292.473 260.788 292.586 234.982 291.414 209.093C291.167 203.479 290.406 195.624 290.191 188.684C290.182 188.449 290.263 188.219 290.417 188.041C290.572 187.863 290.789 187.751 291.023 187.728L291.98 187.625L295.866 186.34Z" fill="#FE532B"/>
<path d="M197.338 201.917C192.917 202.348 187.975 203.284 182.512 204.723C171.182 207.705 160.078 212.887 151.935 221.143C150.05 223.055 148.134 225.053 146.188 227.137C149.861 218.795 155.345 212.15 162.638 207.201C170.596 201.807 179.705 199.446 189.966 200.117C193.146 200.33 195.604 200.929 197.338 201.917Z" fill="#FEFEFE"/>
<path d="M365.255 226.407C352.023 210.676 336.077 205.022 316.326 202.153C316.066 202.112 315.987 201.961 316.09 201.701C336.961 195.09 357.01 207.294 365.255 226.407Z" fill="#FEFEFE"/>
<path d="M316.09 201.701C315.987 201.961 316.066 202.112 316.327 202.153C336.077 205.021 352.024 210.676 365.256 226.407C368.752 232.062 370.853 238.135 371.559 244.626C371.689 245.839 371.432 245.928 370.788 244.893C359.447 226.787 337.208 213.082 316.378 208.044C315.96 207.941 315.724 207.677 315.669 207.253L314.98 202.215C314.918 201.769 315.114 201.574 315.566 201.629L316.09 201.701Z" fill="#78BF4F"/>
<path d="M197.339 201.917L197.112 206.749C197.094 207.12 196.952 207.474 196.709 207.757C196.465 208.04 196.133 208.235 195.766 208.312C173.424 212.866 154.753 226.345 141.438 244.471C140.677 245.513 140.383 245.393 140.554 244.112C141.377 238.1 143.255 232.442 146.188 227.137C148.135 225.053 150.051 223.055 151.936 221.143C160.079 212.887 171.183 207.705 182.513 204.723C187.976 203.284 192.918 202.348 197.339 201.917Z" fill="#78BF4F"/>
<path d="M217.706 347.173C218.467 349.037 218.755 351.001 218.57 353.064C217.761 351.227 217.473 349.264 217.706 347.173Z" fill="#FE532B"/>
<path d="M262.738 357.639C265.994 360.799 269.634 363.304 273.657 365.155C275.148 365.844 275.498 366.646 275.549 368.209C275.789 376.002 275.539 383.837 274.799 391.712L263.304 391.681C263.143 391.681 262.989 391.618 262.875 391.507C262.761 391.395 262.697 391.243 262.697 391.085L262.738 357.639Z" fill="#B20957"/>
<path d="M250.165 361.012L250.072 391.064C250.072 391.441 249.88 391.63 249.496 391.63L236.974 391.65L237.231 369.833C237.238 369.264 237.481 368.833 237.961 368.538L250.165 361.012Z" fill="#B20957"/>
<path d="M208.977 382.017C203.373 383.22 197.317 383.323 192.249 384.371C186.306 385.605 180.36 386.853 174.41 388.114C172.601 388.498 170.928 389.485 169.393 391.075C169.023 391.082 168.769 391.01 168.632 390.859C168.569 390.785 168.523 390.699 168.497 390.605C168.471 390.512 168.467 390.414 168.484 390.32C168.5 390.225 168.538 390.135 168.594 390.058C168.65 389.98 168.723 389.917 168.807 389.872C172.837 387.624 176.94 385.495 181.114 383.487C189.072 379.652 197.873 376.856 206.478 374.049C206.814 373.939 207.027 374.059 207.116 374.409L208.977 382.017Z" fill="#FEFEFE"/>
<path d="M338.236 391.661C338.037 391.62 337.9 391.441 337.825 391.126C337.743 390.797 337.554 390.554 337.259 390.396C331.82 387.497 326.608 386.448 320.624 385.081C315.781 383.97 309.345 383.343 303.731 381.832L305.047 376.197C305.082 376.046 305.147 375.902 305.239 375.776C305.33 375.65 305.446 375.543 305.579 375.463C305.712 375.382 305.86 375.329 306.015 375.307C306.169 375.285 306.326 375.294 306.477 375.334C318.67 378.511 329.301 383.59 339.984 390.057C340.11 390.132 340.212 390.239 340.28 390.369C340.348 390.498 340.379 390.644 340.37 390.79C340.36 390.935 340.31 391.076 340.226 391.195C340.142 391.314 340.026 391.408 339.891 391.465C339.398 391.678 338.846 391.743 338.236 391.661Z" fill="#FEFEFE"/>
<path d="M303.731 381.832C309.345 383.343 315.781 383.97 320.624 385.081C326.608 386.448 331.82 387.497 337.259 390.396C337.554 390.554 337.742 390.797 337.825 391.126C337.9 391.441 338.037 391.62 338.236 391.661L301.11 391.64C301.018 391.64 300.928 391.618 300.847 391.576C300.765 391.535 300.695 391.474 300.642 391.4C300.589 391.325 300.554 391.239 300.54 391.149C300.527 391.058 300.535 390.966 300.565 390.879L303.731 381.832Z" fill="#FFB923"/>
<path d="M208.977 382.017L212.164 391.034C212.194 391.119 212.203 391.21 212.19 391.299C212.177 391.388 212.143 391.473 212.091 391.547C212.038 391.62 211.969 391.68 211.889 391.721C211.809 391.763 211.72 391.784 211.63 391.784C197.949 391.675 184.387 391.613 170.946 391.599C170.281 391.599 169.764 391.424 169.394 391.075C170.929 389.485 172.601 388.498 174.411 388.114C180.36 386.853 186.307 385.605 192.249 384.371C197.318 383.323 203.374 383.22 208.977 382.017Z" fill="#FFB923"/>
</svg>
