<svg width="1024" height="1024" viewBox="0 0 1024 1024" fill="none" xmlns="http://www.w3.org/2000/svg">
<rect width="1024" height="1024" fill="white"/>
<path d="M513.218 242.757C511.295 242.747 509.392 242.34 507.619 241.557C505.846 240.775 504.237 239.634 502.885 238.199C501.532 236.764 500.462 235.063 499.736 233.193C499.009 231.323 498.641 229.322 498.652 227.302C498.673 223.223 500.237 219.32 502.999 216.45C505.76 213.581 509.494 211.98 513.379 212C515.303 212.01 517.205 212.418 518.978 213.2C520.751 213.982 522.36 215.124 523.713 216.559C525.065 217.994 526.135 219.695 526.862 221.565C527.588 223.434 527.956 225.436 527.946 227.456C527.924 231.534 526.361 235.438 523.599 238.307C520.837 241.177 517.103 242.778 513.218 242.757Z" fill="#010818"/>
<path d="M616.388 262.544C614.482 262.35 612.636 261.763 610.954 260.814C609.272 259.866 607.788 258.575 606.585 257.016C605.382 255.457 604.485 253.66 603.945 251.728C603.404 249.795 603.231 247.765 603.436 245.754C603.848 241.692 605.773 237.952 608.785 235.356C611.797 232.76 615.651 231.521 619.499 231.912C621.404 232.105 623.251 232.693 624.932 233.641C626.614 234.59 628.099 235.881 629.302 237.44C630.504 238.999 631.402 240.796 631.942 242.728C632.482 244.66 632.655 246.69 632.451 248.701C632.038 252.764 630.114 256.504 627.102 259.1C624.089 261.696 620.235 262.935 616.388 262.544Z" fill="#010818"/>
<path d="M409.553 262.354C405.705 262.738 401.856 261.523 398.854 258.976C395.851 256.43 393.941 252.76 393.543 248.774C393.145 244.789 394.293 240.814 396.732 237.724C399.172 234.634 402.705 232.682 406.553 232.298C410.402 231.914 414.25 233.129 417.253 235.676C420.255 238.222 422.165 241.892 422.563 245.878C422.961 249.863 421.814 253.838 419.374 256.928C416.934 260.018 413.402 261.97 409.553 262.354Z" fill="#010818"/>
<path d="M288.812 288.651C288.805 288.764 288.821 288.877 288.859 288.984C288.896 289.091 288.954 289.19 289.029 289.275C289.105 289.359 289.196 289.428 289.299 289.477C289.401 289.526 289.512 289.555 289.625 289.561C293.386 289.767 297.2 290.125 301.069 290.634C308.71 291.642 312.693 300.209 306.662 305.98C302.061 310.386 296.794 309.833 291.007 310.126C290.371 310.155 289.772 310.428 289.333 310.888C288.893 311.349 288.649 311.961 288.649 312.597C288.617 317.658 288.622 322.833 288.666 328.122C288.731 338.591 269.028 339.16 269.076 325.862C269.087 320.822 269.071 315.767 269.028 310.695C269.017 310.088 268.708 309.79 268.101 309.8C262.883 309.898 256.25 310.63 252.007 308.224C247.845 305.866 245.195 301.152 247.358 296.405C252.186 285.854 268.605 293.885 269.044 284.651C269.418 276.556 268.15 261.079 281.236 263.892C291.738 266.135 289.137 281.059 288.812 288.651Z" fill="#010818"/>
<path d="M589.218 370.55C584.942 381.28 568.555 407.941 556.184 390.969C552.467 385.875 552.732 380.667 556.981 375.346C591.656 331.925 547.406 277.172 497.547 291.364C468.138 299.72 451.134 333.079 463.066 362.211C466.106 369.64 477.21 379.15 474.365 387.278C471.048 396.724 461.831 398.999 454.271 392.464C441.884 381.719 434.861 364.162 433.951 348.035C432.097 315.538 447.411 288.536 475.307 273.254C492.279 263.945 510.519 261.322 530.027 265.386C576.879 275.157 607.718 324.219 589.218 370.55Z" fill="#010818"/>
<path d="M741.688 309.914C735.266 309.41 726.894 310.921 723.187 303.915C721.876 301.444 721.746 298.87 722.797 296.193C725.268 289.869 734.892 289.772 740.712 289.235C741.345 289.174 741.932 288.876 742.354 288.403C742.777 287.929 743.003 287.315 742.988 286.683C742.891 281.107 741.964 272.621 744.76 268.085C747.897 262.981 755.002 262.46 759.375 266.541C763.813 270.67 762.496 281.237 762.447 286.618C762.438 287.394 762.733 288.143 763.269 288.703C763.804 289.262 764.536 289.588 765.308 289.609C771.388 289.772 786.003 290.308 783.971 300.501C781.971 310.58 772.006 309.718 764.024 310.157C763.485 310.183 762.977 310.42 762.61 310.818C762.242 311.216 762.043 311.743 762.057 312.287C762.203 317.44 763.13 326.544 760.952 330.95C757.977 336.932 748.109 337.534 744.646 332.023C741.704 327.308 743.167 317.148 742.809 311.052C742.791 310.759 742.667 310.482 742.461 310.273C742.255 310.064 741.98 309.936 741.688 309.914Z" fill="#010818"/>
<path d="M322.234 783.811C322.358 783.807 322.475 783.756 322.563 783.669C322.651 783.581 322.701 783.464 322.706 783.34L322.819 769.505C322.819 769.224 322.678 769.088 322.397 769.099C300.109 769.814 283.999 764.108 270.441 746.372C262.291 735.73 258.21 722.714 258.199 707.324C258.178 671.679 258.194 636.044 258.248 600.42C258.281 584.684 259.131 573.927 260.8 568.151C263.943 557.226 269.985 547.678 278.926 539.507C291.265 528.257 305.864 524.291 322.283 524.356C322.425 524.356 322.562 524.299 322.662 524.198C322.763 524.098 322.819 523.961 322.819 523.819C322.668 455.801 322.521 387.995 322.38 320.4C322.364 312.369 327.761 306.387 335.077 303.347C349.285 297.413 365.428 307.086 365.477 323.31C365.715 389.789 365.742 456.473 365.558 523.364C365.558 523.64 365.668 523.905 365.863 524.1C366.058 524.295 366.322 524.404 366.598 524.404L498.537 524.469C498.723 524.469 498.9 524.396 499.031 524.265C499.163 524.134 499.236 523.956 499.236 523.77L499.106 370.243C499.106 369.647 498.895 369.137 498.472 368.715C497.123 367.365 495.156 366.325 494.018 365.252C470.169 342.639 490.474 303.688 522.727 312.32C543.633 317.929 552.721 342.525 539.163 360.05C536.431 363.594 532.53 366.422 528.856 369.186C528.553 369.413 528.307 369.708 528.138 370.046C527.969 370.385 527.88 370.758 527.88 371.137L527.653 523.348C527.653 523.518 527.686 523.686 527.751 523.843C527.816 524 527.911 524.142 528.03 524.262C528.15 524.381 528.291 524.475 528.447 524.539C528.603 524.602 528.769 524.634 528.937 524.632L660.453 524.323C660.903 524.319 661.333 524.137 661.65 523.817C661.966 523.498 662.144 523.066 662.144 522.616C662.014 454.869 661.851 387.058 661.656 319.181C661.624 307.005 676.84 300.014 686.496 301.705C695.649 303.298 704.46 310.906 704.46 320.806C704.395 385.15 704.487 449.499 704.736 513.854C704.747 517.094 704.742 520.308 704.72 523.494C704.72 523.615 704.744 523.735 704.792 523.846C704.841 523.957 704.911 524.056 705 524.139C705.088 524.221 705.193 524.285 705.307 524.325C705.421 524.365 705.542 524.381 705.663 524.372C730.774 522.855 750.033 532.462 763.439 553.195C771.014 564.916 772.266 576.799 772.348 592.227C772.543 631.405 772.526 670.578 772.299 709.746C772.212 725.082 767.167 738.482 757.164 749.949C743.411 765.718 726.683 770.058 706.329 768.433C706.058 768.411 705.918 768.541 705.907 768.823L705.565 783.616C705.565 783.844 705.685 783.958 705.923 783.958C732.638 784.066 759.293 784.115 785.889 784.104C790.279 784.104 793.508 784.754 795.578 786.055C804.308 791.468 803.967 804.571 795.546 809.708C793.107 811.204 789.222 811.952 783.89 811.952C603.105 811.854 422.321 811.87 241.536 812C236.735 812 233.18 811.372 230.872 810.114C218.371 803.254 221.215 784.006 236.172 784.039C264.989 784.126 293.677 784.05 322.234 783.811Z" fill="#010818"/>
<path d="M755.149 410.559C751.166 410.315 746.224 411.112 742.859 409.096C739.901 407.324 736.503 403.91 737.495 400.106C739.852 391.132 747.297 391.148 754.759 390.287C755.209 390.235 755.624 390.017 755.924 389.675C756.224 389.333 756.388 388.891 756.385 388.434C756.352 383.134 755.621 376.111 757.978 371.771C761.083 366.032 770.382 365.398 774.088 370.909C777.014 375.282 775.99 383.995 775.893 389.328C775.884 389.777 776.05 390.211 776.357 390.539C776.664 390.867 777.086 391.062 777.535 391.083C782.493 391.36 789.613 391.278 793.255 394.221C801.221 400.675 794.458 409.583 786.443 410.494C783.279 410.851 780.082 410.938 776.852 410.754C776.31 410.732 776.023 410.992 775.99 411.534C775.687 416.921 775.66 420.546 775.909 422.41C777.876 436.634 755.946 437.772 756.401 423.028C756.52 419.224 756.444 415.403 756.173 411.567C756.151 411.304 756.035 411.058 755.847 410.874C755.66 410.689 755.412 410.577 755.149 410.559Z" fill="#010818"/>
<path d="M267.499 412.428C267.483 417.37 268.865 423.678 267.158 427.791C264.378 434.472 253.649 435.626 249.91 429.367C247.325 425.043 248.398 416.98 248.414 411.534C248.414 410.97 248.132 410.672 247.569 410.64C240.074 410.233 230.353 411.225 228.386 401.699C227.909 399.401 228.998 397.066 231.653 394.692C235.132 391.582 239.11 390.4 243.586 391.148C244.15 391.243 244.728 391.211 245.278 391.055C245.828 390.899 246.336 390.622 246.765 390.245C247.193 389.867 247.532 389.399 247.755 388.875C247.979 388.351 248.082 387.783 248.056 387.214C247.78 380.825 246.658 370.665 255.014 367.966C261.192 365.967 267.45 370.811 267.645 377.297C267.786 381.351 267.776 385.339 267.613 389.262C267.599 389.638 267.733 390.004 267.985 390.284C268.236 390.563 268.587 390.733 268.962 390.758C272.978 391.002 277.855 390.693 281.252 392.27C291.575 397.066 288.324 409.144 278.017 410.542C274.831 410.976 271.612 411.295 268.361 411.501C267.786 411.545 267.499 411.854 267.499 412.428Z" fill="#010818"/>
<path d="M280.163 476.884C278.568 477.174 276.929 477.126 275.337 476.741C273.746 476.357 272.234 475.645 270.888 474.645C269.542 473.646 268.388 472.378 267.492 470.915C266.595 469.452 265.975 467.822 265.665 466.119C265.04 462.679 265.72 459.147 267.554 456.301C269.389 453.454 272.228 451.526 275.448 450.941C277.042 450.651 278.682 450.7 280.273 451.084C281.864 451.469 283.376 452.181 284.723 453.18C286.069 454.18 287.223 455.448 288.119 456.911C289.015 458.373 289.636 460.003 289.945 461.707C290.57 465.147 289.891 468.679 288.056 471.525C286.222 474.372 283.382 476.299 280.163 476.884Z" fill="#010818"/>
<path d="M745.75 476.917C744.14 476.836 742.563 476.414 741.11 475.675C739.656 474.936 738.354 473.896 737.278 472.612C736.202 471.329 735.372 469.828 734.838 468.195C734.303 466.563 734.072 464.83 734.16 463.097C734.338 459.596 735.799 456.304 738.223 453.945C740.648 451.586 743.836 450.353 747.087 450.518C748.697 450.6 750.273 451.022 751.727 451.76C753.181 452.499 754.483 453.54 755.559 454.823C756.635 456.107 757.464 457.607 757.999 459.24C758.534 460.873 758.764 462.605 758.676 464.339C758.499 467.839 757.037 471.131 754.613 473.49C752.189 475.849 749.001 477.082 745.75 476.917Z" fill="#010818"/>
<path d="M256.981 501.66C256.981 505.661 255.392 509.498 252.562 512.327C249.733 515.157 245.896 516.746 241.895 516.746C237.894 516.746 234.056 515.157 231.227 512.327C228.398 509.498 226.809 505.661 226.809 501.66C226.809 497.659 228.398 493.822 231.227 490.992C234.056 488.163 237.894 486.574 241.895 486.574C245.896 486.574 249.733 488.163 252.562 490.992C255.392 493.822 256.981 497.659 256.981 501.66Z" fill="#010818"/>
<path d="M785.238 516.107C783.398 516.756 781.444 517.025 779.489 516.9C777.534 516.775 775.615 516.259 773.843 515.38C772.071 514.501 770.479 513.278 769.16 511.779C767.84 510.28 766.819 508.535 766.153 506.645C765.487 504.754 765.19 502.754 765.279 500.759C765.368 498.764 765.842 496.813 766.672 495.018C767.503 493.222 768.674 491.618 770.12 490.295C771.565 488.973 773.257 487.959 775.097 487.311C776.938 486.663 778.891 486.393 780.846 486.518C782.802 486.643 784.72 487.159 786.492 488.038C788.265 488.917 789.856 490.14 791.175 491.639C792.495 493.138 793.517 494.883 794.183 496.774C794.849 498.664 795.145 500.664 795.056 502.659C794.967 504.654 794.494 506.605 793.663 508.4C792.833 510.196 791.661 511.8 790.215 513.123C788.77 514.445 787.079 515.459 785.238 516.107Z" fill="#010818"/>
<path d="M723.123 555.682C720.565 555.779 718.441 556.397 716.75 557.535C711.396 561.155 706.292 564.157 701.437 566.541" stroke="#D0DDEA" stroke-width="2"/>
<path d="M701.436 566.54C686.659 567.288 668.257 566.313 657.121 566.296C548.938 566.188 440.756 566.177 332.574 566.264C327.111 566.264 323.058 566.773 320.414 567.792C307.392 572.815 301.995 586.39 303.491 599.996" stroke="#9BA5B1" stroke-width="2"/>
<path d="M594.126 600.76C595.557 606.277 595.697 611.853 594.549 617.488" stroke="#D0DDEA" stroke-width="2"/>
<path d="M715.596 567.678L701.437 566.54" stroke="#6C839C" stroke-width="2"/>
<path d="M723.122 555.682C720.564 555.779 718.44 556.397 716.749 557.535C711.395 561.155 706.291 564.157 701.435 566.541C686.658 567.289 668.256 566.313 657.12 566.297C548.937 566.189 440.755 566.178 332.573 566.265C327.11 566.265 323.057 566.774 320.413 567.793C307.391 572.816 301.994 586.39 303.489 599.997L303.408 616.01C303.397 617.95 304.048 618.205 305.359 616.774C311.244 610.326 318.408 605.66 326.85 602.777C330.73 601.455 335.661 600.794 341.644 600.794C425.626 600.761 509.786 600.75 594.125 600.761C595.556 606.278 595.697 611.854 594.548 617.489C510.913 617.468 427.49 617.435 344.277 617.392C325.777 617.376 311.211 630.478 305.652 646.979C304.048 651.726 303.246 659.247 303.246 669.543C303.229 688.108 302.156 707.746 304.01 726.149C304.051 726.592 303.955 727.03 303.733 727.4C302.541 729.362 301.029 729.942 299.198 729.14C289.102 724.767 287.265 714.184 287.33 704.105C287.612 667.516 287.488 630.923 286.957 594.324C286.664 575.092 299.555 555.584 319.08 553.65C321.637 553.4 328.005 553.281 338.181 553.292C466.338 553.379 594.456 553.254 722.536 552.918C722.705 552.917 722.872 552.956 723.023 553.033C723.174 553.11 723.304 553.222 723.404 553.36C723.504 553.497 723.57 553.657 723.597 553.826C723.624 553.995 723.612 554.169 723.561 554.332L723.122 555.682Z" fill="white"/>
<path d="M723.121 555.682L715.595 567.679L701.435 566.541C706.29 564.157 711.395 561.155 716.749 557.535C718.439 556.397 720.564 555.779 723.121 555.682Z" fill="#A1BBD5"/>
<path d="M701.436 566.54L715.596 567.678C709.126 576.733 695.86 579.546 685.245 579.383C671.307 579.166 657.359 579.047 643.4 579.025C541.926 578.879 440.469 578.733 338.995 579.074C332.769 579.107 326.201 580.277 320.788 583.87C314.718 587.869 308.953 593.244 303.491 599.996C301.995 586.39 307.392 572.815 320.414 567.792C323.058 566.773 327.111 566.264 332.574 566.264C440.756 566.177 548.938 566.188 657.121 566.296C668.257 566.313 686.659 567.288 701.436 566.54Z" fill="#374A63"/>
<path d="M594.549 617.489C595.697 611.853 595.557 606.277 594.126 600.76L675.116 600.679C675.197 600.679 675.276 600.695 675.35 600.725C675.425 600.756 675.492 600.8 675.548 600.856C675.604 600.913 675.648 600.979 675.677 601.052C675.706 601.125 675.72 601.203 675.718 601.281L675.507 616.302C675.502 616.605 675.379 616.895 675.163 617.107C674.947 617.32 674.656 617.44 674.352 617.44L594.549 617.489Z" fill="#A1BBD5"/>
<path d="M470.494 649.368C470.494 652.373 469.301 655.255 467.176 657.38C465.051 659.505 462.169 660.699 459.163 660.699H350.667C347.662 660.699 344.78 659.505 342.655 657.38C340.53 655.255 339.336 652.373 339.336 649.368V648.88C339.336 645.875 340.53 642.993 342.655 640.868C344.78 638.743 347.662 637.549 350.667 637.549H459.163C462.169 637.549 465.051 638.743 467.176 640.868C469.301 642.993 470.494 645.875 470.494 648.88V649.368Z" fill="white"/>
<path d="M555.857 649.693C555.857 652.552 554.721 655.293 552.7 657.315C550.679 659.336 547.937 660.471 545.079 660.471H517.735C514.877 660.471 512.135 659.336 510.114 657.315C508.093 655.293 506.957 652.552 506.957 649.693V648.523C506.957 645.664 508.093 642.923 510.114 640.901C512.135 638.88 514.877 637.745 517.735 637.745H545.079C547.937 637.745 550.679 638.88 552.7 640.901C554.721 642.923 555.857 645.664 555.857 648.523V649.693Z" fill="#374A63"/>
<path d="M546.59 710.375C546.595 711.665 546.345 712.942 545.856 714.135C545.367 715.328 544.647 716.413 543.739 717.328C542.83 718.243 541.75 718.97 540.56 719.468C539.371 719.966 538.095 720.224 536.806 720.228L535.635 720.233C533.031 720.242 530.53 719.216 528.682 717.381C526.834 715.546 525.791 713.052 525.782 710.448L525.721 693.086C525.717 691.796 525.966 690.519 526.456 689.326C526.945 688.133 527.664 687.048 528.573 686.133C529.482 685.218 530.561 684.491 531.751 683.993C532.941 683.496 534.217 683.237 535.506 683.233L536.676 683.229C539.281 683.22 541.782 684.245 543.63 686.08C545.477 687.915 546.521 690.409 546.53 693.013L546.59 710.375Z" fill="#E0FA75"/>
<path d="M454.84 710.607C454.84 713.138 453.834 715.565 452.045 717.355C450.255 719.144 447.828 720.15 445.297 720.15H444.192C441.661 720.15 439.233 719.144 437.444 717.355C435.654 715.565 434.649 713.138 434.649 710.607V692.952C434.649 690.421 435.654 687.994 437.444 686.205C439.233 684.415 441.661 683.41 444.192 683.41H445.297C447.828 683.41 450.255 684.415 452.045 686.205C453.834 687.994 454.84 690.421 454.84 692.952V710.607Z" fill="#E0FA75"/>
<path d="M637.819 710.454C637.837 713.019 636.835 715.487 635.034 717.313C633.233 719.14 630.78 720.176 628.214 720.194L627.109 720.202C624.544 720.22 622.076 719.218 620.25 717.416C618.423 715.615 617.387 713.162 617.369 710.597L617.249 693.365C617.231 690.8 618.233 688.332 620.034 686.506C621.835 684.679 624.288 683.643 626.854 683.625L627.959 683.617C630.524 683.6 632.992 684.601 634.818 686.403C636.645 688.204 637.681 690.657 637.699 693.222L637.819 710.454Z" fill="#E0FA75"/>
<path d="M363.532 710.401C363.563 712.945 362.583 715.396 360.806 717.217C359.029 719.038 356.602 720.078 354.059 720.109L352.986 720.122C351.726 720.137 350.476 719.905 349.307 719.437C348.137 718.969 347.071 718.276 346.17 717.396C345.268 716.516 344.549 715.468 344.053 714.31C343.557 713.152 343.293 711.908 343.278 710.649L343.069 693.548C343.038 691.004 344.019 688.552 345.795 686.732C347.572 684.911 349.999 683.871 352.543 683.84L353.615 683.827C354.875 683.811 356.125 684.044 357.295 684.512C358.464 684.98 359.53 685.673 360.431 686.553C361.333 687.433 362.052 688.481 362.548 689.639C363.045 690.797 363.308 692.041 363.323 693.3L363.532 710.401Z" fill="#E0FA75"/>
<path d="M408.396 711.245C408.375 712.442 408.119 713.624 407.641 714.722C407.163 715.82 406.474 716.814 405.613 717.646C404.751 718.478 403.734 719.132 402.62 719.571C401.506 720.01 400.316 720.225 399.118 720.204L398.078 720.186C395.66 720.144 393.357 719.143 391.677 717.403C389.997 715.663 389.076 713.327 389.119 710.908L389.435 692.801C389.455 691.604 389.712 690.422 390.19 689.324C390.667 688.225 391.356 687.232 392.218 686.4C393.08 685.568 394.096 684.914 395.211 684.475C396.325 684.036 397.515 683.821 398.713 683.842L399.753 683.86C402.171 683.902 404.474 684.903 406.154 686.643C407.834 688.383 408.754 690.719 408.712 693.138L408.396 711.245Z" fill="#E0FA75"/>
<path d="M500.112 710.654C500.114 711.862 499.878 713.059 499.418 714.176C498.957 715.294 498.281 716.309 497.429 717.165C496.576 718.021 495.562 718.701 494.447 719.165C493.331 719.629 492.135 719.869 490.927 719.871L489.756 719.873C487.316 719.878 484.974 718.912 483.246 717.19C481.517 715.467 480.544 713.128 480.539 710.688L480.508 693.066C480.506 691.858 480.742 690.661 481.203 689.544C481.663 688.426 482.339 687.411 483.192 686.555C484.045 685.699 485.058 685.019 486.174 684.555C487.289 684.091 488.485 683.851 489.694 683.849L490.864 683.847C493.304 683.842 495.647 684.808 497.375 686.53C499.104 688.253 500.077 690.592 500.081 693.032L500.112 710.654Z" fill="#E0FA75"/>
<path d="M591.679 710.693C591.664 711.908 591.41 713.107 590.931 714.224C590.453 715.34 589.759 716.352 588.89 717.2C588.02 718.049 586.992 718.717 585.864 719.169C584.737 719.62 583.531 719.844 582.316 719.829L581.243 719.816C578.79 719.786 576.45 718.783 574.736 717.027C573.023 715.271 572.077 712.907 572.107 710.454L572.32 693.028C572.335 691.814 572.589 690.614 573.067 689.497C573.546 688.381 574.239 687.369 575.109 686.521C575.978 685.673 577.006 685.004 578.134 684.553C579.262 684.102 580.468 683.877 581.682 683.892L582.755 683.905C585.208 683.935 587.549 684.938 589.262 686.694C590.976 688.45 591.921 690.814 591.891 693.267L591.679 710.693Z" fill="#E0FA75"/>
<path d="M687.965 719.719C683.452 719.411 679.251 717.266 676.285 713.754C673.319 710.242 671.831 705.652 672.149 700.994C672.466 696.335 674.563 691.99 677.978 688.913C681.394 685.837 685.847 684.281 690.36 684.589C694.872 684.896 699.073 687.042 702.039 690.553C705.006 694.065 706.494 698.655 706.176 703.314C705.858 707.972 703.761 712.318 700.346 715.394C696.931 718.471 692.477 720.026 687.965 719.719Z" fill="white"/>
<path d="M614.516 782.88C614.516 783.015 614.49 783.148 614.438 783.272C614.386 783.396 614.31 783.509 614.215 783.604C614.12 783.699 614.007 783.774 613.883 783.825C613.758 783.876 613.625 783.903 613.49 783.902L415.16 783.556C415.026 783.556 414.892 783.529 414.768 783.477C414.644 783.426 414.531 783.35 414.436 783.255C414.341 783.16 414.266 783.047 414.215 782.922C414.164 782.798 414.137 782.665 414.138 782.53L414.161 769.297C414.161 769.163 414.188 769.03 414.239 768.905C414.291 768.781 414.367 768.669 414.462 768.574C414.557 768.479 414.67 768.403 414.795 768.352C414.919 768.301 415.052 768.275 415.187 768.275L613.517 768.621C613.652 768.621 613.785 768.648 613.909 768.7C614.033 768.751 614.146 768.827 614.241 768.922C614.336 769.018 614.411 769.131 614.462 769.255C614.514 769.379 614.54 769.513 614.54 769.647L614.516 782.88Z" fill="white"/>
</svg>
