<svg width="1024" height="1024" viewBox="0 0 1024 1024" fill="none" xmlns="http://www.w3.org/2000/svg">
<rect width="1024" height="1024" fill="white"/>
<path d="M559.834 348.311C575.395 353.503 577.401 364.337 577.383 380.274C577.371 387.269 577.43 394.486 577.562 401.923C577.586 403.153 578.147 404.048 579.245 404.609C584.259 407.176 589.517 409.933 595.021 412.882C610.695 421.286 624.943 431.499 637.764 443.52C701.672 503.417 713.312 607.705 661.311 679.135C628.649 723.955 577.812 753.984 521.46 756.169C499.74 757.028 478.27 754.933 457.534 748.147C398.263 728.718 349.629 680.818 334.569 619.166C312.884 530.277 358.331 441.496 442.474 405.701C443.318 405.342 444.034 404.738 444.529 403.969C445.024 403.199 445.275 402.299 445.25 401.386C444.963 390.988 444.969 380.787 445.268 370.783C445.518 362.117 449.434 355.402 457.015 350.638C458.25 349.868 460.363 349.242 461.957 348.454C462.578 348.143 462.745 347.666 462.458 347.021C454.329 329.115 453.111 312.462 462.566 294.841C465.359 289.625 469.066 285.13 473.686 281.358C507.601 253.71 560.3 269.217 566.137 315.846C567.534 326.984 564.705 336.976 559.19 346.609C559.103 346.762 559.051 346.932 559.037 347.107C559.023 347.281 559.048 347.457 559.11 347.619C559.172 347.782 559.269 347.929 559.394 348.048C559.519 348.168 559.67 348.258 559.834 348.311Z" fill="#010112"/>
<path d="M490.518 374.347L489.981 415.478" stroke="#FFE2AE" stroke-width="2"/>
<path d="M522.696 374.203C525.262 374.012 527.853 374.287 530.467 375.027C531.076 375.194 531.392 375.594 531.416 376.227C531.619 383.533 531.535 390.845 531.165 398.162C531.153 398.329 531.123 398.497 531.076 398.664C530.348 400.777 529.476 401.224 528.461 400.007C525.578 396.533 523.412 393.023 518.72 391.788" stroke="#FAAE58" stroke-width="2"/>
<path d="M544.184 445.937C557.864 457.093 568.447 474.14 575.878 489.235" stroke="#2C6778" stroke-width="2"/>
<path d="M437.729 489.79C448.312 482.126 447.649 473.066 436.01 468.643C435.887 468.597 435.778 468.521 435.692 468.422C435.606 468.323 435.546 468.204 435.517 468.076C435.489 467.948 435.493 467.815 435.529 467.688C435.565 467.562 435.632 467.447 435.724 467.353C447.315 455.273 461.163 447.722 477.267 444.702" stroke="#A3BAC2" stroke-width="2"/>
<path d="M406.016 518.226C404.118 528.648 402.769 535.458 401.969 538.658C401.516 540.448 400.435 542.752 398.728 545.57C398.597 545.793 398.407 545.978 398.178 546.106C397.949 546.235 397.688 546.303 397.421 546.304L386.265 546.375C385.415 546.381 384.588 546.666 383.913 547.186C383.237 547.707 382.749 548.434 382.523 549.258C381.234 553.95 379.139 557.692 378.959 562.778C378.566 573.88 377.545 581.992 379.443 595.046C379.538 595.738 378.977 596.114 377.76 596.174" stroke="#FFB6B2" stroke-width="2"/>
<path d="M528.623 517.761C545.503 519.348 557.28 519.641 563.953 518.638C569.766 517.755 575.532 517.629 581.25 518.262C581.936 518.337 582.57 518.661 583.032 519.172C583.495 519.684 583.753 520.348 583.757 521.037L584.026 547.951" stroke="#EA645F" stroke-width="2"/>
<path d="M584.026 547.951C583.262 548.249 582.426 548.232 581.519 547.897C581.26 547.802 581.024 547.652 580.826 547.457C580.629 547.263 580.474 547.028 580.373 546.769C578.833 542.83 575.968 535.864 570.238 540.215C568.322 541.666 568.071 544.495 567.373 546.644C567.241 547.066 566.956 547.424 566.572 547.649C566.188 547.874 565.734 547.949 565.296 547.862C561.595 547.098 558.163 547.611 555 549.401C554.499 549.686 554.072 550.083 553.751 550.561C553.43 551.039 553.224 551.585 553.149 552.156C553.074 552.726 553.133 553.307 553.321 553.851C553.508 554.395 553.819 554.889 554.23 555.293L560.318 561.291C560.753 561.715 561.04 562.268 561.137 562.868C561.234 563.468 561.135 564.083 560.855 564.622C560.055 566.198 559.417 567.971 558.939 569.94C557.095 577.676 568.215 578.41 571.062 572.519C571.296 572.034 571.658 571.621 572.109 571.327C572.56 571.033 573.084 570.868 573.622 570.849C574.16 570.831 574.694 570.96 575.164 571.223C575.634 571.485 576.024 571.872 576.29 572.34C577.998 575.348 580.839 576.697 584.814 576.387" stroke="#FFB6B2" stroke-width="2"/>
<path d="M584.814 576.387L584.993 592.306C585.005 592.795 585.118 593.261 585.333 593.702C585.679 594.395 585.584 595.01 585.047 595.547C584.617 595.965 583.913 596.197 582.934 596.245C578.29 596.496 573.628 596.663 568.949 596.747" stroke="#EA645F" stroke-width="2"/>
<path d="M584.814 576.387C590.812 576.262 587.625 566.52 586.497 563.53C586.157 562.637 586.182 561.645 586.567 560.771C586.953 559.896 587.667 559.208 588.556 558.856C590.944 557.913 593.021 556.451 594.788 554.469C595.187 554.024 595.455 553.477 595.565 552.889C595.674 552.302 595.62 551.694 595.408 551.134C595.195 550.573 594.834 550.08 594.361 549.709C593.889 549.337 593.325 549.101 592.728 549.026L584.026 547.951" stroke="#EAADAC" stroke-width="2"/>
<path d="M585.513 643.537L585.53 632.327C585.531 631.209 585.092 630.136 584.308 629.339C583.524 628.541 582.458 628.084 581.34 628.065L511.917 627.009" stroke="#EA645F" stroke-width="2"/>
<path d="M387 626.884C388.253 629.259 388.665 631.444 388.235 633.437C388.174 633.729 388.041 634.002 387.847 634.23C387.653 634.458 387.405 634.635 387.125 634.745L376.023 639.168" stroke="#FFB6B2" stroke-width="2"/>
<path d="M522.213 303.329C528.408 307.215 533.744 314.843 533.512 322.507C533.333 328.685 527.871 336.564 524.093 341.363C523.823 341.711 523.482 341.997 523.092 342.201C522.703 342.405 522.275 342.522 521.837 342.545C515.366 342.903 508.663 342.933 501.727 342.634C496.911 342.437 491.163 332.696 489.999 328.649C484.627 310.008 505.183 292.585 522.213 303.329Z" fill="white"/>
<path d="M490.518 374.347L489.981 415.478C476.497 421.172 474.133 413.043 473.99 402.03C473.919 395.488 474.044 388.947 474.366 382.405C474.796 373.487 483.588 373.326 490.518 374.347Z" fill="white"/>
<path d="M522.696 374.203C525.263 374.012 527.853 374.287 530.468 375.027C531.077 375.194 531.393 375.594 531.417 376.227C531.62 383.533 531.536 390.845 531.166 398.162C531.154 398.329 531.124 398.497 531.077 398.664C530.348 400.777 529.477 401.224 528.462 400.007C525.579 396.533 523.413 393.023 518.721 391.788C506.938 387.114 494.01 392.772 495.245 407.026C495.616 411.169 493.861 413.986 489.981 415.478L490.518 374.347L522.696 374.203Z" fill="#FFC45D"/>
<path d="M522.696 374.203L540.387 374.15C542.23 374.145 544.002 374.865 545.318 376.155C546.635 377.445 547.392 379.201 547.425 381.044L547.908 408.763C547.943 410.757 547.223 412.691 545.891 414.176C544.559 415.661 542.714 416.587 540.727 416.767L538.847 416.946C532.998 417.484 529.637 414.845 528.766 409.032C527.524 400.687 524.176 394.939 518.72 391.788C523.412 393.023 525.578 396.533 528.461 400.007C529.476 401.224 530.348 400.777 531.076 398.664C531.123 398.497 531.153 398.329 531.165 398.162C531.535 390.845 531.619 383.533 531.416 376.227C531.392 375.594 531.076 375.194 530.467 375.027C527.853 374.287 525.262 374.012 522.696 374.203Z" fill="#F59752"/>
<path d="M544.184 445.937C557.865 457.093 568.447 474.14 575.878 489.235L437.729 489.79C448.312 482.126 447.649 473.066 436.01 468.643C435.887 468.597 435.778 468.521 435.692 468.422C435.606 468.323 435.546 468.204 435.517 468.076C435.489 467.948 435.493 467.815 435.529 467.688C435.565 467.562 435.632 467.447 435.724 467.353C447.315 455.273 461.163 447.722 477.267 444.702C484.43 448.48 487.241 450.879 494.69 445.185C498.176 442.523 502.038 438.327 506.276 432.597C513.08 423.429 520.762 439.007 524.164 441.872C530.736 447.406 536.538 450.611 544.184 445.937Z" fill="#467585"/>
<path d="M477.267 444.702C461.163 447.722 447.315 455.273 435.723 467.354C435.632 467.447 435.565 467.563 435.529 467.689C435.493 467.815 435.489 467.948 435.517 468.076C435.546 468.204 435.605 468.323 435.692 468.422C435.778 468.521 435.887 468.597 436.01 468.643C447.649 473.066 448.312 482.127 437.729 489.791C434.136 490.065 430.244 489.904 426.054 489.307C422.67 488.824 416.993 492.62 414.468 495.485C408.476 502.266 405.658 509.846 406.016 518.226C404.118 528.648 402.769 535.459 401.969 538.658C401.516 540.448 400.435 542.752 398.728 545.57C398.597 545.793 398.407 545.978 398.178 546.106C397.949 546.235 397.688 546.303 397.421 546.304L386.265 546.376C385.415 546.381 384.588 546.666 383.913 547.186C383.237 547.707 382.749 548.434 382.523 549.258C381.234 553.95 379.139 557.692 378.96 562.778C378.566 573.88 377.545 581.992 379.443 595.046C379.539 595.738 378.977 596.114 377.76 596.174L364.76 596.335C364.476 596.34 364.201 596.234 363.994 596.04C363.787 595.847 363.663 595.58 363.649 595.296C363.041 585.269 363.047 575.378 363.667 565.625C364.67 549.993 368.735 534.718 373.641 519.713C373.875 518.991 374.331 518.361 374.943 517.909C375.556 517.456 376.296 517.204 377.061 517.188L382.899 517.08C383.316 517.076 383.723 516.952 384.072 516.724C384.421 516.495 384.698 516.172 384.869 515.791L390.975 502.039C391.261 501.406 391.19 500.821 390.76 500.284L386.301 494.625C386.117 494.397 386.022 494.109 386.032 493.814C386.042 493.519 386.156 493.235 386.355 493.014C389.339 489.731 395.284 483.171 404.19 473.335C421.022 454.724 440.463 441.509 462.512 433.689C467.49 431.917 473.829 441.425 477.267 444.702Z" fill="white"/>
<path d="M575.878 489.236C568.447 474.14 557.864 457.093 544.184 445.937C548.069 439.992 552.08 431.648 558.473 433.761C583.686 442.123 605.997 459.475 624.423 478.151C627.479 481.255 629.986 484.562 631.944 488.072C632.044 488.252 632.095 488.455 632.092 488.661C632.089 488.867 632.032 489.069 631.927 489.247C631.822 489.424 631.673 489.571 631.493 489.673C631.314 489.774 631.111 489.827 630.905 489.826L575.878 489.236Z" fill="#12586A"/>
<path d="M528.623 517.761C545.503 519.349 557.279 519.641 563.952 518.638C569.766 517.755 575.532 517.63 581.25 518.262C581.936 518.337 582.57 518.661 583.032 519.173C583.494 519.685 583.752 520.348 583.757 521.038L584.026 547.952C583.262 548.25 582.426 548.232 581.519 547.898C581.26 547.802 581.024 547.652 580.826 547.458C580.628 547.263 580.474 547.029 580.373 546.77C578.833 542.83 575.968 535.865 570.238 540.216C568.322 541.666 568.071 544.495 567.373 546.644C567.24 547.066 566.955 547.424 566.572 547.649C566.188 547.874 565.733 547.95 565.295 547.862C561.595 547.098 558.163 547.611 554.999 549.402C554.499 549.687 554.071 550.084 553.75 550.562C553.429 551.039 553.223 551.585 553.149 552.156C553.074 552.727 553.133 553.307 553.32 553.852C553.508 554.396 553.819 554.889 554.229 555.293L560.317 561.292C560.753 561.716 561.04 562.269 561.137 562.868C561.233 563.468 561.135 564.083 560.855 564.623C560.055 566.198 559.416 567.971 558.939 569.941C557.094 577.676 568.214 578.411 571.061 572.519C571.295 572.034 571.658 571.622 572.109 571.328C572.56 571.033 573.083 570.868 573.622 570.85C574.16 570.831 574.693 570.96 575.164 571.223C575.634 571.486 576.023 571.872 576.29 572.34C577.997 575.349 580.838 576.698 584.814 576.387L584.993 592.306C585.005 592.795 585.118 593.261 585.333 593.703C585.679 594.395 585.584 595.01 585.046 595.547C584.617 595.965 583.912 596.198 582.933 596.246C578.29 596.496 573.628 596.663 568.948 596.747L377.76 596.174C378.977 596.114 379.538 595.738 379.443 595.046C377.545 581.992 378.566 573.88 378.959 562.778C379.139 557.693 381.234 553.95 382.523 549.259C382.749 548.434 383.237 547.707 383.913 547.186C384.588 546.666 385.415 546.381 386.265 546.376L397.421 546.304C397.688 546.304 397.949 546.235 398.178 546.107C398.407 545.978 398.597 545.793 398.728 545.57C400.435 542.753 401.516 540.449 401.969 538.658C402.769 535.459 404.118 528.648 406.016 518.226L528.623 517.761Z" fill="#FF6D65"/>
<path d="M528.623 517.761L646.377 518.316C646.771 518.317 647.156 518.434 647.487 518.653C647.818 518.873 648.079 519.185 648.239 519.552C658.965 544.102 661.06 568.723 658.965 595.332C658.947 595.6 658.828 595.851 658.631 596.033C658.435 596.216 658.177 596.318 657.909 596.317L568.949 596.747C573.628 596.663 578.29 596.496 582.934 596.246C583.913 596.198 584.617 595.965 585.047 595.547C585.584 595.01 585.679 594.395 585.333 593.703C585.118 593.261 585.005 592.795 584.993 592.306L584.814 576.387C590.813 576.262 587.625 566.521 586.497 563.53C586.157 562.637 586.182 561.646 586.568 560.771C586.953 559.896 587.668 559.208 588.556 558.857C590.944 557.913 593.021 556.451 594.788 554.47C595.187 554.024 595.456 553.478 595.565 552.89C595.674 552.302 595.62 551.695 595.408 551.134C595.196 550.573 594.834 550.081 594.362 549.709C593.889 549.337 593.325 549.101 592.729 549.026L584.026 547.952L583.757 521.038C583.753 520.348 583.495 519.685 583.032 519.173C582.57 518.661 581.936 518.337 581.25 518.262C575.532 517.63 569.766 517.755 563.953 518.638C557.28 519.641 545.503 519.349 528.623 517.761Z" fill="#D45B59"/>
<path d="M584.026 547.951L592.729 549.025C593.325 549.101 593.889 549.337 594.362 549.708C594.834 550.08 595.196 550.573 595.408 551.134C595.62 551.694 595.674 552.301 595.565 552.889C595.456 553.477 595.187 554.024 594.788 554.469C593.021 556.451 590.944 557.913 588.556 558.856C587.668 559.208 586.953 559.896 586.568 560.77C586.182 561.645 586.157 562.637 586.497 563.53C587.625 566.52 590.813 576.261 584.814 576.387C580.839 576.697 577.998 575.348 576.29 572.34C576.024 571.872 575.634 571.485 575.164 571.223C574.694 570.96 574.16 570.831 573.622 570.849C573.084 570.868 572.56 571.033 572.109 571.327C571.658 571.621 571.296 572.034 571.062 572.519C568.215 578.41 557.095 577.676 558.939 569.94C559.417 567.971 560.055 566.198 560.855 564.622C561.135 564.083 561.234 563.468 561.137 562.868C561.04 562.268 560.753 561.715 560.318 561.291L554.23 555.293C553.819 554.889 553.508 554.395 553.321 553.851C553.133 553.307 553.074 552.726 553.149 552.156C553.224 551.585 553.43 551.039 553.751 550.561C554.072 550.083 554.499 549.686 555 549.401C558.163 547.611 561.595 547.098 565.296 547.862C565.734 547.949 566.188 547.874 566.572 547.649C566.956 547.424 567.241 547.066 567.373 546.644C568.071 544.495 568.322 541.666 570.238 540.215C575.968 535.864 578.833 542.83 580.373 546.769C580.474 547.028 580.629 547.263 580.826 547.457C581.024 547.652 581.26 547.802 581.519 547.897C582.426 548.232 583.262 548.249 584.026 547.951Z" fill="white"/>
<path d="M585.513 643.537L585.53 632.327C585.531 631.209 585.092 630.136 584.308 629.339C583.524 628.541 582.458 628.084 581.34 628.065L511.917 627.009C534.968 626.71 557.984 626.364 580.964 625.97C584.277 625.899 587.608 626.454 590.509 626.489C609.466 626.704 627.915 626.842 645.858 626.901C650.215 626.913 651.63 628.961 650.102 633.043L648.436 637.484C646.908 641.543 643.978 643.572 639.644 643.572L585.513 643.537Z" fill="#D45B59"/>
<path d="M387 626.884C388.254 629.259 388.665 631.444 388.236 633.437C388.175 633.729 388.042 634.002 387.848 634.23C387.654 634.458 387.406 634.635 387.125 634.745L376.023 639.168C367.733 628.28 378.888 624.198 387 626.884Z" fill="white"/>
<path d="M511.916 627.009L581.34 628.065C582.458 628.084 583.523 628.542 584.307 629.339C585.091 630.136 585.53 631.209 585.53 632.327L585.512 643.537C519.258 643.483 452.932 643.161 386.677 644.181C382.129 644.241 378.578 642.57 376.023 639.168L387.125 634.745C387.405 634.635 387.653 634.458 387.847 634.23C388.041 634.002 388.174 633.729 388.235 633.437C388.665 631.444 388.253 629.259 387 626.884L511.916 627.009Z" fill="#FF6D65"/>
<path d="M420.306 673.817C483.642 672.706 547.156 673.243 610.51 673.566C613.745 673.59 615.571 674.807 615.989 677.219C616.072 677.671 616.034 678.138 615.88 678.571C615.726 679.005 615.461 679.391 615.112 679.69C577.418 711.635 530.252 726.802 481.117 717.813C453.182 712.71 433.396 699.208 412.57 680.925C412.099 680.512 411.801 679.935 411.738 679.314C411.675 678.692 411.851 678.071 412.23 677.577C414.325 674.801 416.635 673.888 420.306 673.817Z" fill="#467585"/>
<path d="M474.768 476.668C478.879 474.5 480.533 469.559 478.462 465.631C476.392 461.703 471.38 460.276 467.268 462.444C463.156 464.612 461.502 469.553 463.573 473.481C465.644 477.409 470.656 478.836 474.768 476.668Z" fill="white"/>
<path d="M456.137 548.667C459.217 547.939 462.333 547.832 465.485 548.345C466.164 548.458 466.8 548.754 467.325 549.201C467.849 549.649 468.241 550.23 468.46 550.883C468.679 551.537 468.716 552.237 468.568 552.91C468.419 553.583 468.09 554.202 467.616 554.702L462.566 560.002C462.155 560.434 461.886 560.98 461.793 561.569C461.7 562.157 461.789 562.76 462.047 563.297C463.999 567.416 465.037 577.3 458 577.425C455.027 577.479 453.469 575.957 451.553 573.898C451.16 573.474 450.683 573.137 450.152 572.908C449.621 572.679 449.049 572.563 448.471 572.568C447.892 572.573 447.322 572.699 446.795 572.937C446.268 573.175 445.797 573.521 445.411 573.952C442.606 577.091 439.061 577.819 434.775 576.136C434.111 575.874 433.56 575.387 433.217 574.76C432.874 574.132 432.76 573.403 432.895 572.698L434.488 564.604C434.619 563.953 434.542 563.277 434.269 562.673C433.996 562.068 433.54 561.567 432.966 561.238C430.053 559.555 427.839 557.191 426.323 554.147C426.025 553.55 426.042 552.959 426.377 552.374C428.651 548.363 433.862 549.026 437.586 548.506C437.876 548.462 438.152 548.352 438.394 548.185C438.636 548.017 438.838 547.796 438.983 547.539C440.821 544.268 442.534 541.642 444.122 539.661C448.312 534.468 453.326 544.71 454.347 547.683C454.47 548.04 454.721 548.338 455.052 548.52C455.383 548.702 455.77 548.755 456.137 548.667Z" fill="white"/>
<path d="M509.374 570.764C506.974 571.874 505.846 575.062 503.106 575.796C493.437 578.446 495.711 568.257 496.857 563.458C496.993 562.908 496.956 562.329 496.751 561.8C496.546 561.271 496.182 560.819 495.711 560.504L490.464 556.958C489.826 556.525 489.334 555.91 489.053 555.194C488.771 554.478 488.714 553.695 488.888 552.947C489.802 548.954 495.693 548.381 498.916 549.115C499.623 549.282 500.363 549.223 501.035 548.946C501.706 548.67 502.274 548.191 502.659 547.575C503.924 545.546 505.291 543.475 506.759 541.362C511.487 534.539 516.733 544.066 519.903 547.02C520.332 547.414 520.84 547.629 521.425 547.665L527.746 547.951C528.661 547.997 529.528 548.375 530.184 549.014C530.84 549.654 531.24 550.511 531.309 551.425C531.572 554.899 530.097 557.334 526.886 558.731C526.246 559.011 525.711 559.487 525.357 560.092C525.003 560.696 524.849 561.398 524.916 562.097L526.045 573.414C526.14 574.346 525.752 574.972 524.881 575.295C519.688 577.24 515.557 576.017 512.489 571.624C511.689 570.466 510.651 570.179 509.374 570.764Z" fill="white"/>
<path d="M631.52 570.408C637.292 569.494 641.272 564.334 640.409 558.884C639.546 553.433 634.166 549.756 628.393 550.671C622.621 551.585 618.641 556.745 619.504 562.195C620.367 567.645 625.747 571.323 631.52 570.408Z" fill="white"/>
<path d="M387.036 552.213C392.712 552.141 399.821 552.285 400.841 559.125C401.271 561.966 400.519 564.401 398.585 566.431C393.858 571.391 388.414 569.887 382.398 565.947C381.956 565.649 381.723 565.231 381.699 564.694C381.556 560.874 382.392 557.286 384.206 553.932C384.484 553.421 384.892 552.993 385.389 552.691C385.886 552.389 386.454 552.224 387.036 552.213Z" fill="white"/>
</svg>
