<svg width="1024" height="1024" viewBox="0 0 1024 1024" fill="none" xmlns="http://www.w3.org/2000/svg">
<rect width="1024" height="1024" fill="white"/>
<path d="M496.979 562.708C498.501 557.874 499.967 553.03 501.376 548.175C513.831 505.285 526.631 462.447 539.776 419.66C546.225 398.678 553.09 373.623 532.525 357.763C517.776 346.377 498.105 347.843 485.902 362.16C475.164 374.764 478.095 386.058 478.82 400.976C479.838 421.804 468.9 439.5 451.266 450.084C422.971 467.085 389.4 451.796 375.314 423.949C368.063 409.585 366.998 394.96 367.646 377.896C371.395 280.638 468.73 213.048 561.545 245.015C631.264 269.036 668.615 343.692 651.49 413.921C650.019 419.958 646.317 433.427 640.382 454.326C625.139 508.047 610.637 561.998 595.44 615.719C584.435 654.607 573.538 693.527 562.748 732.478C560.743 739.76 559.344 744.511 558.552 746.733C551.656 766.219 536.644 780.968 516.464 785.643C480.054 794.066 447.563 761.961 450.263 726.029C450.582 721.801 452.238 714.627 455.231 704.507C464.009 674.808 473.359 645.263 481.643 615.425C488.072 592.325 493.184 574.752 496.979 562.708Z" fill="#010112"/>
<path d="M506.714 264.485C509.47 268.538 509.568 271.983 507.007 274.822C505.701 276.282 503.536 277.193 500.512 277.553C493.322 278.401 486.904 278.988 480.162 281.903C472.644 285.133 465.542 289.093 458.856 293.783C457.509 294.729 456.372 295.238 455.447 295.31C453.698 295.465 452.479 294.842 451.79 293.443C449.507 288.805 450.165 284.557 453.765 280.7" stroke="#FCA6A6" stroke-width="2"/>
<path d="M554.139 272.029C556.053 275.31 557.04 277.481 557.102 278.54C557.791 290.42 555.117 301.595 549.079 312.065" stroke="#FCA6A6" stroke-width="2"/>
<path d="M549.079 312.065C548.102 311.983 547.135 311.705 546.179 311.232C523.392 299.923 497.689 299.399 475.457 311.957C471.548 314.168 467.568 316.431 463.516 318.745" stroke="#CA4B57" stroke-width="2"/>
<path d="M463.516 318.745C463.793 318.756 464.066 318.766 464.333 318.776" stroke="#9993A6" stroke-width="2"/>
<path d="M464.333 318.776C460.219 314.467 456.424 310.008 452.948 305.4C450.726 302.453 447.748 300.417 445.11 297.84C442.899 295.681 441.875 292.626 442.04 288.676" stroke="#FCA6A6" stroke-width="2"/>
<path d="M464.333 318.776C448.427 329.884 436.439 351.113 430.932 368.609" stroke="#96EBFF" stroke-width="2"/>
<path d="M430.932 368.609C430.788 368.547 430.649 368.49 430.516 368.439" stroke="#C7A3B1" stroke-width="2"/>
<path d="M430.515 368.439L399.736 352.81" stroke="#FCA6A6" stroke-width="2"/>
<path d="M592.987 296.56C594.51 300.983 596.181 305.323 598.001 309.581C602.46 319.98 604.512 329.252 606.487 339.805C606.579 340.298 606.79 340.741 607.119 341.131C607.603 341.697 607.757 342.278 607.582 342.875" stroke="#96EBFF" stroke-width="2"/>
<path d="M607.582 342.875C607.233 343.461 606.651 343.867 605.839 344.094" stroke="#C7A3B1" stroke-width="2"/>
<path d="M605.839 344.094L586.909 354.616" stroke="#FCA6A6" stroke-width="2"/>
<path d="M586.909 354.615C580.121 335.598 567.392 321.903 548.725 313.531" stroke="#96EBFF" stroke-width="2"/>
<path d="M548.725 313.531L549.08 312.065" stroke="#C7A3B1" stroke-width="2"/>
<path d="M548.724 313.531C545.423 318.581 541.201 322.998 536.058 326.783" stroke="#6390B1" stroke-width="2"/>
<path d="M476.614 334.25L463.516 318.745" stroke="#6390B1" stroke-width="2"/>
<path d="M449.985 379.47L430.932 368.609" stroke="#6390B1" stroke-width="2"/>
<path d="M430.515 368.439C430.577 371.879 430.623 375.073 430.114 378.652C428.232 391.797 430.67 402.226 419.268 411.853C415.206 415.289 410.099 416.446 403.948 415.325" stroke="#CA4B57" stroke-width="2"/>
<path d="M395.802 395.5C399.34 395.047 402.236 393.808 404.488 391.781C404.793 391.505 405.035 391.166 405.198 390.785C405.36 390.404 405.439 389.991 405.429 389.575C405.234 381.871 405.326 374.039 405.707 366.078C405.985 360.355 404.164 357.701 398.456 357.176" stroke="#FCA6A6" stroke-width="2"/>
<path d="M619.431 335.84L607.582 342.875" stroke="#6390B1" stroke-width="2"/>
<path d="M586.908 354.615L570.323 363.487" stroke="#9993A6" stroke-width="2"/>
<path d="M627.901 388.079C621.606 390.938 615.265 392.831 608.878 393.756" stroke="#6390B1" stroke-width="2"/>
<path d="M608.878 393.756L610.575 391.072C610.737 390.809 610.827 390.506 610.838 390.192C611.29 375.299 610.616 360.452 608.816 345.652C608.799 345.515 608.75 345.385 608.673 345.27C608.597 345.155 608.495 345.06 608.375 344.991C608.256 344.923 608.122 344.882 607.984 344.874C607.847 344.865 607.709 344.889 607.582 344.942C606.914 345.23 606.333 344.947 605.839 344.094" stroke="#CA4B57" stroke-width="2"/>
<path d="M608.878 393.756C597.492 396.605 585.998 396.688 574.396 394.003" stroke="#FCA6A6" stroke-width="2"/>
<path d="M598.588 431.694C589.372 425.378 579.514 420.138 569.012 415.973" stroke="#FCA6A6" stroke-width="2"/>
<path d="M615.805 440.411L600.578 432.45" stroke="#6390B1" stroke-width="2"/>
<path d="M600.578 432.45C599.302 432.193 598.639 431.941 598.587 431.694" stroke="#9993A6" stroke-width="2"/>
<path d="M598.587 431.694C599.565 432.054 600.207 431.647 600.516 430.475C601.488 426.865 601.673 422.236 602.892 418.24C605.499 409.616 609.31 399.835 608.878 393.756" stroke="#96EBFF" stroke-width="2"/>
<path d="M600.578 432.45C595.086 453.103 589.398 473.529 583.515 493.73C582.527 497.134 580.995 499.829 578.917 501.814" stroke="#CA4B57" stroke-width="2"/>
<path d="M578.917 501.814C568.447 496.589 558.583 490.587 549.326 483.809" stroke="#FCA6A6" stroke-width="2"/>
<path d="M596.165 510.901L581.432 503.835" stroke="#6390B1" stroke-width="2"/>
<path d="M581.432 503.835C580.516 503.351 579.678 502.678 578.917 501.814" stroke="#C7A3B1" stroke-width="2"/>
<path d="M581.432 503.835C580.64 504.812 580.125 505.702 579.889 506.504C573.975 526.128 568.148 545.784 562.409 565.47C562.234 566.056 562.157 567.136 562.178 568.71" stroke="#96EBFF" stroke-width="2"/>
<path d="M562.178 568.71C560.728 569.697 560.455 570.103 561.36 569.928" stroke="#C7A3B1" stroke-width="2"/>
<path d="M561.36 569.928C550.684 562.266 539.987 555.724 529.27 550.304" stroke="#FCA6A6" stroke-width="2"/>
<path d="M577.621 579.54L562.826 570.746C562.353 570.468 562.126 570.052 562.147 569.496L562.178 568.71" stroke="#6390B1" stroke-width="2"/>
<path d="M561.36 569.928C558.099 583.269 554.458 596.706 550.437 610.242C548.215 617.724 546.379 627.876 543.201 636.5C542.923 637.251 541.977 638.125 540.362 639.123" stroke="#CA4B57" stroke-width="2"/>
<path d="M540.362 639.123C529.275 634.073 518.763 627.593 508.828 619.684" stroke="#FCA6A6" stroke-width="2"/>
<path d="M518.917 583.906C522.389 590.201 529.47 589.584 531.522 582.456C533.384 575.997 534.731 569.409 535.564 562.693C535.626 562.168 535.467 561.721 535.086 561.35C532.833 559.108 530.144 557.761 527.017 557.308" stroke="#FCA6A6" stroke-width="2"/>
<path d="M557.287 648.133L541.828 640.311" stroke="#6390B1" stroke-width="2"/>
<path d="M541.828 640.311L540.362 639.123" stroke="#C7A3B1" stroke-width="2"/>
<path d="M541.828 640.311C534.299 662.249 528.148 684.538 523.376 707.176" stroke="#96EBFF" stroke-width="2"/>
<path d="M523.376 707.176C522.122 706.888 521.355 706.569 521.078 706.219" stroke="#C7A3B1" stroke-width="2"/>
<path d="M521.078 706.219C510.88 699.986 500.667 691.748 489.62 687.227" stroke="#FCA6A6" stroke-width="2"/>
<path d="M538.557 716.448L523.376 707.176" stroke="#6390B1" stroke-width="2"/>
<path d="M521.077 706.219C522.111 711.202 518.995 719.071 516.897 723.606C513.595 730.714 508.046 734.787 500.25 735.825C490.407 737.121 481.782 735.023 478.697 724.81" stroke="#CA4B57" stroke-width="2"/>
<path d="M478.697 724.81C480.322 727.772 482.677 729.027 485.763 728.574C486.073 728.526 486.368 728.412 486.629 728.242C486.89 728.072 487.11 727.848 487.275 727.587C490.515 722.465 498.614 700.449 485.161 702.393" stroke="#FCA6A6" stroke-width="2"/>
<path d="M478.697 724.81C478.872 722.897 478.692 721.344 478.157 720.151" stroke="#C7A3B1" stroke-width="2"/>
<path d="M506.714 264.485C509.47 268.538 509.568 271.983 507.007 274.822C505.701 276.282 503.536 277.193 500.512 277.553C493.322 278.401 486.904 278.988 480.162 281.903C472.644 285.133 465.542 289.093 458.856 293.783C457.509 294.729 456.372 295.238 455.447 295.31C453.698 295.465 452.479 294.842 451.79 293.443C449.507 288.805 450.165 284.557 453.765 280.7C467.928 270.548 490.314 265.195 506.714 264.485Z" fill="#F9FEFF"/>
<path d="M554.14 272.029C556.053 275.31 557.04 277.481 557.102 278.54C557.791 290.42 555.117 301.595 549.079 312.065C548.102 311.983 547.135 311.705 546.179 311.232C523.392 299.923 497.689 299.399 475.457 311.957C471.549 314.168 467.568 316.431 463.516 318.745C463.793 318.756 464.066 318.766 464.333 318.776C460.219 314.467 456.424 310.008 452.948 305.4C450.726 302.453 447.748 300.417 445.11 297.841C442.899 295.681 441.875 292.626 442.04 288.676C444.776 284.819 448.684 282.16 453.765 280.7C450.165 284.557 449.507 288.805 451.79 293.443C452.48 294.842 453.698 295.465 455.447 295.31C456.373 295.238 457.509 294.729 458.857 293.783C465.542 289.093 472.644 285.133 480.163 281.903C486.905 278.987 493.323 278.401 500.512 277.553C503.536 277.193 505.701 276.282 507.007 274.822C509.568 271.983 509.471 268.538 506.714 264.485C523.767 263.107 539.576 265.622 554.14 272.029Z" fill="#FF4D4C"/>
<path d="M554.14 272.029C569.043 277.614 581.992 285.791 592.988 296.56C594.51 300.983 596.181 305.323 598.002 309.581C602.46 319.98 604.512 329.252 606.487 339.805C606.58 340.298 606.79 340.741 607.12 341.131C607.603 341.697 607.757 342.278 607.582 342.875C607.233 343.461 606.652 343.867 605.839 344.094L586.909 354.615C580.121 335.598 567.392 321.903 548.725 313.531L549.08 312.065C555.117 301.595 557.791 290.42 557.102 278.54C557.04 277.481 556.053 275.31 554.14 272.029Z" fill="#F9FEFF"/>
<path d="M442.04 288.676C441.875 292.626 442.899 295.681 445.11 297.84C447.748 300.417 450.726 302.453 452.947 305.4C456.424 310.008 460.219 314.467 464.333 318.776C448.427 329.884 436.44 351.113 430.932 368.609C430.788 368.547 430.649 368.49 430.515 368.439L399.736 352.81C404.041 328.249 422.554 304.012 442.04 288.676Z" fill="#F9FEFF"/>
<path d="M592.987 296.56C604.99 307.082 613.805 320.175 619.431 335.84L607.582 342.875C607.757 342.278 607.603 341.697 607.119 341.131C606.79 340.741 606.579 340.298 606.487 339.805C604.512 329.252 602.46 319.98 598.001 309.581C596.181 305.323 594.51 300.983 592.987 296.56Z" fill="#32D8FF"/>
<path d="M549.079 312.065L548.724 313.531C545.423 318.581 541.201 322.998 536.058 326.783C512.145 318.267 497.72 322.047 476.614 334.25L463.516 318.745C467.568 316.431 471.548 314.168 475.457 311.957C497.689 299.399 523.392 299.923 546.179 311.232C547.135 311.705 548.102 311.983 549.079 312.065Z" fill="#944862"/>
<path d="M548.724 313.531C567.392 321.903 580.12 335.598 586.909 354.615L570.324 363.486C562.826 346.547 553.168 334.976 536.058 326.783C541.201 322.998 545.423 318.581 548.724 313.531Z" fill="#32D8FF"/>
<path d="M464.333 318.776C464.066 318.766 463.793 318.756 463.516 318.745L476.614 334.25C461.793 345.472 452.917 360.545 449.985 379.47L430.932 368.609C436.439 351.113 448.427 329.884 464.333 318.776Z" fill="#32D8FF"/>
<path d="M619.431 335.84C624.214 348.876 626.975 362.484 627.361 376.508C627.474 380.478 627.654 384.335 627.901 388.079C621.606 390.938 615.265 392.831 608.878 393.756L610.575 391.072C610.737 390.809 610.827 390.506 610.838 390.192C611.29 375.299 610.616 360.452 608.816 345.652C608.799 345.515 608.75 345.384 608.673 345.27C608.597 345.155 608.495 345.06 608.375 344.991C608.256 344.923 608.122 344.882 607.984 344.874C607.847 344.865 607.709 344.889 607.582 344.942C606.914 345.23 606.333 344.947 605.839 344.094C606.651 343.867 607.233 343.461 607.582 342.875L619.431 335.84Z" fill="#944862"/>
<path d="M605.838 344.094C606.332 344.947 606.913 345.23 607.582 344.942C607.709 344.889 607.847 344.865 607.984 344.874C608.122 344.882 608.255 344.923 608.375 344.991C608.494 345.06 608.596 345.155 608.673 345.27C608.749 345.385 608.798 345.515 608.816 345.652C610.616 360.452 611.29 375.299 610.837 390.192C610.827 390.506 610.736 390.809 610.575 391.072L608.878 393.756C597.492 396.605 585.998 396.688 574.396 394.003C575.065 383.728 573.707 373.556 570.323 363.487L586.908 354.616L605.838 344.094Z" fill="#FF4D4C"/>
<path d="M399.736 352.81L430.515 368.439C430.577 371.879 430.623 375.073 430.114 378.652C428.232 391.797 430.669 402.226 419.268 411.853C415.205 415.289 410.099 416.446 403.948 415.325C399.279 410.017 396.563 403.409 395.802 395.5C399.34 395.047 402.236 393.808 404.488 391.781C404.793 391.506 405.035 391.166 405.198 390.785C405.36 390.404 405.439 389.992 405.429 389.575C405.234 381.872 405.326 374.039 405.707 366.078C405.985 360.355 404.164 357.701 398.456 357.176L399.736 352.81Z" fill="#FF4D4C"/>
<path d="M398.456 357.176C404.164 357.701 405.984 360.355 405.707 366.078C405.326 374.039 405.234 381.871 405.429 389.575C405.439 389.991 405.36 390.404 405.198 390.785C405.035 391.166 404.793 391.505 404.488 391.781C402.235 393.808 399.34 395.047 395.802 395.5C394.583 385.919 393.256 366.155 398.456 357.176Z" fill="#F9FEFF"/>
<path d="M430.515 368.439C430.649 368.49 430.788 368.547 430.932 368.609L449.985 379.47C449.245 384.345 449.044 388.5 449.384 391.936C450.047 398.786 451.05 404.679 448.998 410.835C446.355 418.724 440.934 424.329 432.737 427.651C422.832 431.663 415.473 427.975 408.206 421.095C406.314 419.305 404.894 417.382 403.948 415.325C410.099 416.446 415.206 415.289 419.268 411.853C430.67 402.226 428.232 391.797 430.114 378.652C430.623 375.073 430.577 371.879 430.515 368.439Z" fill="#944862"/>
<path d="M627.901 388.079C627.175 405.852 620.171 426.572 615.805 440.41L600.578 432.45C599.302 432.193 598.639 431.941 598.587 431.694C599.565 432.054 600.207 431.647 600.516 430.475C601.488 426.865 601.673 422.236 602.892 418.24C605.499 409.616 609.31 399.835 608.878 393.756C615.265 392.831 621.606 390.938 627.901 388.079Z" fill="#32D8FF"/>
<path d="M608.878 393.756C609.31 399.835 605.499 409.616 602.892 418.24C601.673 422.236 601.488 426.865 600.516 430.475C600.208 431.647 599.565 432.054 598.588 431.694C589.372 425.378 579.514 420.138 569.012 415.973L574.397 394.003C585.998 396.688 597.492 396.605 608.878 393.756Z" fill="#F9FEFF"/>
<path d="M569.012 415.973C579.514 420.138 589.372 425.378 598.588 431.694C598.639 431.941 599.303 432.192 600.578 432.45C595.086 453.103 589.398 473.529 583.515 493.73C582.527 497.134 580.995 499.829 578.917 501.814C568.447 496.589 558.583 490.587 549.326 483.809L569.012 415.973Z" fill="#FF4D4C"/>
<path d="M600.578 432.45L615.805 440.411C609.922 462.185 604.059 484.195 598.217 506.442C597.77 508.108 596.921 509.281 596.165 510.901L581.432 503.835C580.516 503.352 579.678 502.678 578.917 501.814C580.995 499.829 582.527 497.134 583.515 493.73C589.398 473.529 595.086 453.103 600.578 432.45Z" fill="#944862"/>
<path d="M549.326 483.809C558.583 490.587 568.446 496.589 578.917 501.814C579.678 502.678 580.516 503.352 581.432 503.835C580.64 504.812 580.125 505.702 579.889 506.504C573.975 526.128 568.148 545.784 562.409 565.47C562.234 566.056 562.157 567.136 562.177 568.71C560.727 569.697 560.455 570.103 561.36 569.928C550.684 562.266 539.987 555.724 529.27 550.304L549.326 483.809Z" fill="#F9FEFF"/>
<path d="M581.432 503.835L596.165 510.901C596.927 511.559 597.071 512.644 596.598 514.156C589.922 535.591 583.597 557.385 577.621 579.54L562.826 570.746C562.353 570.468 562.126 570.052 562.147 569.496L562.178 568.71C562.157 567.136 562.234 566.056 562.409 565.47C568.148 545.784 573.975 526.128 579.889 506.504C580.126 505.702 580.64 504.812 581.432 503.835Z" fill="#32D8FF"/>
<path d="M529.27 550.304C539.987 555.724 550.684 562.266 561.36 569.928C558.099 583.268 554.459 596.706 550.437 610.242C548.215 617.724 546.379 627.876 543.201 636.5C542.924 637.251 541.977 638.125 540.362 639.123C529.275 634.073 518.763 627.593 508.828 619.684L518.918 583.906C522.389 590.201 529.47 589.584 531.522 582.456C533.384 575.997 534.731 569.409 535.564 562.693C535.626 562.168 535.467 561.721 535.086 561.35C532.834 559.108 530.144 557.761 527.017 557.308L529.27 550.304Z" fill="#FF4D4C"/>
<path d="M527.017 557.308C530.144 557.761 532.833 559.108 535.086 561.35C535.467 561.721 535.626 562.168 535.564 562.693C534.731 569.409 533.384 575.997 531.522 582.456C529.47 589.584 522.389 590.201 518.917 583.906L527.017 557.308Z" fill="#F9FEFF"/>
<path d="M562.178 568.71L562.147 569.496C562.126 570.052 562.352 570.468 562.825 570.746L577.621 579.54L557.287 648.133L541.828 640.311L540.362 639.123C541.977 638.125 542.923 637.251 543.201 636.5C546.379 627.876 548.215 617.724 550.437 610.242C554.458 596.706 558.099 583.268 561.36 569.928C560.455 570.103 560.727 569.697 562.178 568.71Z" fill="#944862"/>
<path d="M508.828 619.684C518.764 627.593 529.275 634.073 540.363 639.123L541.828 640.311C534.3 662.249 528.149 684.538 523.377 707.176C522.122 706.888 521.355 706.569 521.078 706.219C510.88 699.986 500.667 691.748 489.62 687.227L508.828 619.684Z" fill="#F9FEFF"/>
<path d="M541.828 640.311L557.287 648.133L538.557 716.448L523.376 707.176C528.148 684.538 534.299 662.249 541.828 640.311Z" fill="#32D8FF"/>
<path d="M489.62 687.227C500.666 691.748 510.88 699.986 521.077 706.219C522.111 711.202 518.995 719.071 516.897 723.607C513.595 730.714 508.046 734.787 500.25 735.825C490.407 737.121 481.782 735.023 478.697 724.81C480.322 727.772 482.677 729.027 485.763 728.574C486.073 728.526 486.368 728.412 486.629 728.242C486.89 728.072 487.11 727.848 487.275 727.587C490.515 722.465 498.614 700.449 485.161 702.393L489.62 687.227Z" fill="#FF4D4C"/>
<path d="M485.161 702.393C498.614 700.449 490.515 722.465 487.275 727.587C487.11 727.848 486.89 728.072 486.629 728.242C486.368 728.412 486.073 728.526 485.763 728.574C482.677 729.027 480.322 727.772 478.697 724.81C478.872 722.897 478.692 721.344 478.157 720.151C479.885 713.691 482.219 707.772 485.161 702.393Z" fill="#F9FEFF"/>
<path d="M521.077 706.219C521.355 706.569 522.121 706.888 523.376 707.176L538.557 716.448C536.727 721.035 535.168 726.126 533.883 731.722C530.674 745.638 521.849 756.715 507.161 758.181C496.562 759.245 486.812 754.061 481.86 744.743C477.725 736.957 476.491 728.759 478.157 720.151C478.692 721.344 478.872 722.897 478.697 724.81C481.782 735.023 490.407 737.121 500.25 735.825C508.046 734.787 513.595 730.714 516.897 723.606C518.995 719.071 522.111 711.202 521.077 706.219Z" fill="#944862"/>
</svg>
