<svg width="512" height="512" viewBox="0 0 512 512" fill="none" xmlns="http://www.w3.org/2000/svg">
<rect width="512" height="512" fill="white"/>
<path d="M353.535 248.207C354.064 289.662 354.284 331.117 354.194 372.572C354.178 380.309 354.019 388.039 353.718 395.76C353.564 399.641 352.14 402.489 349.447 404.303C347.754 405.443 344.992 406.008 341.16 406C284.075 405.894 226.99 405.866 169.906 405.914C163.388 405.914 160.325 402.9 160.362 396.578C160.598 349.216 160.541 301.855 160.191 254.493C160.175 252.149 160.284 250.083 160.52 248.293C160.683 247.024 160.305 246.832 159.385 247.719C156.627 250.396 153.918 253.114 151.257 255.872C145.887 261.449 141.03 265.269 134.659 258.496C122.275 245.348 109.798 232.293 97.2276 219.331C91.0643 212.973 94.6646 207.798 100.206 202.636C104.99 198.185 109.741 193.71 114.46 189.211C127.702 176.555 141.396 164.436 154.699 151.853C162.107 144.847 169.698 137.854 179.962 137.634C187.757 137.472 195.275 137.362 202.516 137.305C202.995 137.301 203.462 137.159 203.86 136.894C204.259 136.63 204.572 136.255 204.762 135.816C208.277 127.614 211.743 119.677 215.16 112.005C217.381 107.025 219.066 105.988 224.753 106.025C248.039 106.147 270.98 106.138 293.574 106C294.542 105.992 295.49 106.268 296.301 106.793C297.113 107.318 297.752 108.069 298.139 108.954L310.16 136.206C310.285 136.488 310.487 136.728 310.742 136.899C310.997 137.069 311.295 137.164 311.6 137.171C319.867 137.35 328.251 137.508 336.754 137.647C343.247 137.756 350.447 144.371 354.695 148.24C375.003 166.775 394.99 185.655 414.655 204.881C420.99 211.081 419.549 214.95 413.398 221.394C402.87 232.427 392.472 243.586 382.204 254.871C376.821 260.79 372.196 265.343 364.385 257.91C360.927 254.623 357.485 251.311 354.06 247.976C353.702 247.626 353.527 247.703 353.535 248.207Z" fill="#020111"/>
<path d="M301.092 162.593L297.468 162.287C297.176 162.262 296.897 162.155 296.664 161.978C296.431 161.801 296.252 161.561 296.15 161.287L289.84 144.92C289.795 144.799 289.716 144.694 289.612 144.619C289.508 144.543 289.383 144.5 289.253 144.495C289.123 144.49 288.994 144.523 288.881 144.59C288.769 144.657 288.678 144.755 288.619 144.872C284.722 153.008 281.305 161.169 278.368 169.354C276.154 175.546 272.692 180.879 267.981 185.354" stroke="#FE91A9" stroke-width="2"/>
<path d="M229.854 140.185L225.778 145.933" stroke="#FFDC91" stroke-width="2"/>
<path d="M225.778 145.933L219.248 160.579C219.092 160.929 218.846 161.232 218.536 161.459C218.226 161.686 217.861 161.828 217.479 161.872L213.378 162.336" stroke="#FE91A9" stroke-width="2"/>
<path d="M247.661 185.574C243.706 181.351 240.204 176.913 237.152 172.259C233.04 165.985 231.245 159.261 229.012 151.804C228.41 149.786 227.332 147.829 225.778 145.933" stroke="#FF6F3B" stroke-width="2"/>
<path d="M196.499 160.383C194.498 160.489 192.712 160.587 191.141 160.676C182.826 161.124 176.252 164.858 171.419 171.88" stroke="#FE91A9" stroke-width="2"/>
<path d="M238.666 204.662C236.729 205.719 234.5 206.269 231.978 206.309C231.784 206.313 231.593 206.362 231.419 206.453C231.246 206.544 231.094 206.674 230.977 206.834C230.472 207.518 230.167 208.295 230.061 209.165C230.015 209.537 229.889 209.894 229.691 210.214C229.493 210.534 229.228 210.809 228.914 211.02L226.01 212.961C225.92 213.022 225.812 213.053 225.703 213.05C225.594 213.047 225.489 213.01 225.403 212.945C225.317 212.88 225.255 212.789 225.226 212.687C225.197 212.584 225.202 212.475 225.241 212.375C227.926 204.955 226.205 196.973 218.565 193.495C215.88 192.282 213.805 192.473 212.34 194.068C208.655 198.096 213.707 208.86 215.953 212.875C216.172 213.266 216.234 213.725 216.128 214.158C216.021 214.591 215.753 214.966 215.379 215.206C210.534 218.355 208.545 208.543 203.724 209.47C201.039 209.995 197.805 210.154 195.803 211.936C190.958 216.268 194.082 220.454 197.878 223.664C203.773 228.644 207.959 227.301 214.659 225.8C216.978 225.287 217.295 225.865 215.611 227.533C212.462 230.641 210.884 234.433 210.876 238.908" stroke="#FE91A9" stroke-width="2"/>
<path d="M210.876 238.907L210.766 236.174C210.75 235.62 210.534 235.527 210.119 235.893L208.679 237.174" stroke="#FF663E" stroke-width="2"/>
<path d="M133.853 206.041L138.235 207.725C138.446 207.806 138.638 207.929 138.799 208.088C138.959 208.246 139.086 208.437 139.169 208.646C139.253 208.856 139.292 209.081 139.285 209.307C139.277 209.533 139.223 209.755 139.126 209.958C137.966 212.424 141.188 218.428 142.372 220.833C142.59 221.286 142.942 221.662 143.381 221.909C143.82 222.156 144.324 222.261 144.825 222.212C145.948 222.098 146.916 221.54 147.73 220.54C150.647 216.915 150.598 211.52 146.265 209.153C145.191 208.567 143.979 208.115 142.628 207.798C142.277 207.717 141.969 207.504 141.768 207.203C141.566 206.902 141.486 206.534 141.542 206.175C142.055 202.831 139.296 201.769 137.734 200.085C136.099 198.303 134.305 196.704 132.352 195.288" stroke="#FE91A9" stroke-width="2"/>
<path d="M225.961 248.39L224.997 250.416" stroke="#81551D" stroke-width="2"/>
<path d="M224.997 250.416L222.373 250.294C222.006 250.278 221.811 250.449 221.787 250.807C221.722 251.596 221.836 252.3 222.129 252.918" stroke="#D95940" stroke-width="2"/>
<path d="M222.129 252.918L221.873 254.163C221.791 254.57 221.914 254.904 222.239 255.164C229.757 260.973 229.244 269.809 221.226 274.74C218.944 276.144 216.356 275.631 213.696 275.863" stroke="#81551D" stroke-width="2"/>
<path d="M213.695 275.863C212.581 276.148 211.958 277.063 211.828 278.609" stroke="#D95940" stroke-width="2"/>
<path d="M211.828 278.609C210.502 276.689 210.612 274.891 212.157 273.214C212.418 272.939 212.768 272.762 213.146 272.714C218.443 272.055 220.103 272.824 222.836 267.6C224 265.395 223.512 264.02 221.372 263.475C219.932 263.109 209.668 262.255 208.02 265.892C207.044 268.048 205.982 270.407 204.835 272.97C204.723 273.221 204.519 273.418 204.268 273.518C204.016 273.619 203.737 273.615 203.492 273.507L202.919 273.263C201.959 272.856 201.662 272.161 202.028 271.176C204.554 264.354 202.382 263.927 197.964 260.888C196.389 259.802 194.656 259.802 192.862 260.021C192.472 260.078 192.146 260.249 191.886 260.534C188.066 264.635 190.726 269.907 193.68 273.934" stroke="#FFD393" stroke-width="2"/>
<path d="M193.68 273.934C192.639 273.463 191.67 272.791 190.775 271.921" stroke="#FFB126" stroke-width="2"/>
<path d="M190.775 271.921C190.515 271.872 190.226 271.664 189.909 271.298" stroke="#D95940" stroke-width="2"/>
<path d="M247.6 214.657C246.68 217.79 244.561 219.527 241.241 219.868C238.104 220.186 235.737 218.087 232.393 218.062C229.276 218.03 228.918 219.006 231.319 220.991C233.638 222.92 235.761 225.727 238.849 226.849C241.839 227.936 244.487 227.96 247.124 230.584C250.663 234.087 244.707 239.847 242.669 242.703C242.557 242.861 242.414 242.994 242.248 243.092C242.082 243.191 241.897 243.254 241.705 243.277C239.516 243.521 237.344 243.443 235.188 243.045C230.403 242.178 230.83 236.161 226.803 236.442C226.555 236.461 226.314 236.531 226.094 236.647C225.875 236.763 225.681 236.923 225.527 237.117C225.372 237.311 225.259 237.534 225.195 237.773C225.131 238.011 225.118 238.261 225.155 238.505C225.705 242.154 226.596 246.218 223.3 249.22" stroke="#FE91A9" stroke-width="2"/>
<path d="M223.301 249.22C216.889 249.326 212.748 245.888 210.876 238.907" stroke="#FFD393" stroke-width="2"/>
<path d="M211.828 278.609C212.479 279.471 213.162 280.069 213.878 280.403C214.269 280.59 214.627 280.541 214.952 280.257C216.474 278.89 218.211 277.893 220.164 277.266" stroke="#D884AB" stroke-width="2"/>
<path d="M233.32 283.015C233.955 287.457 229.903 293.596 224.887 292.717C222.141 292.241 219.407 289.202 217.198 287.213C217.082 287.107 216.946 287.028 216.797 286.98C216.648 286.932 216.49 286.917 216.335 286.935C216.18 286.954 216.03 287.006 215.897 287.087C215.764 287.169 215.65 287.278 215.562 287.408C214.317 289.276 211.535 291.436 214.574 293.645" stroke="#FFDC91" stroke-width="2"/>
<path d="M215.465 303.909C212.39 304.69 207.85 301.285 206.812 299.052C205.453 296.131 204.697 293.031 204.542 289.752C204.518 289.312 204.294 289.145 203.871 289.251C202.748 289.544 201.686 290.036 200.686 290.728" stroke="#FFDC91" stroke-width="2"/>
<path d="M197.732 291.79C196.707 292.083 194.913 292.408 192.35 292.766C181.939 294.206 181.561 282.954 190.824 281.318C193.948 280.773 196.93 281.518 199.77 283.552C199.898 283.644 200.046 283.705 200.201 283.73C200.357 283.756 200.517 283.745 200.669 283.699C200.821 283.653 200.96 283.573 201.077 283.465C201.194 283.357 201.286 283.224 201.344 283.076C201.491 282.71 201.739 282.49 202.089 282.417C202.512 282.327 202.878 282.433 203.187 282.734C204.53 284.064 206.617 285.236 206.043 287.408C205.937 287.823 206.092 287.978 206.507 287.872C208.012 287.498 208.618 286.635 208.325 285.285C207.373 280.903 202.907 280.513 200.185 278.938C197.768 277.547 195.6 275.879 193.68 273.935" stroke="#FFDC91" stroke-width="2"/>
<path d="M190.776 271.921C190.963 272.401 190.987 272.767 190.849 273.019C190.751 273.223 190.483 273.336 190.043 273.361C185.894 273.617 180.975 272.482 177.57 275.533" stroke="#D9613D" stroke-width="2"/>
<path d="M225.204 360.306C222.194 358.467 218.707 357.621 214.745 357.768C214.2 357.784 213.911 357.519 213.878 356.974L213.854 356.511C213.838 356.112 214.013 355.835 214.379 355.681C218.065 354.192 222.202 353.492 226.791 353.581C234.626 353.74 235.127 347.015 236.811 341.352C236.851 341.217 236.861 341.074 236.839 340.935C236.818 340.795 236.765 340.662 236.686 340.545C236.606 340.428 236.502 340.331 236.38 340.259C236.258 340.188 236.122 340.144 235.981 340.132C232.259 339.851 220.274 339.449 217.735 342.109C216.718 343.175 215.681 345.185 214.623 348.138C214.485 348.521 214.257 348.781 213.939 348.919C213.839 348.962 213.729 348.979 213.62 348.97C213.511 348.96 213.406 348.924 213.315 348.865C213.224 348.806 213.15 348.725 213.099 348.63C213.049 348.535 213.023 348.429 213.024 348.321C212.988 342.707 211.621 332.016 207.361 328.245C203.7 324.986 196.853 326.329 192.276 326.805C192.041 326.828 191.82 326.932 191.651 327.099C191.482 327.265 191.376 327.484 191.349 327.72C190.971 331.027 189.909 334.884 193.338 337.13C201.259 342.317 203.749 346.661 208.74 352.764C209.611 353.821 209.42 354.074 208.167 353.52L205.555 352.373C205.164 352.194 204.9 351.897 204.762 351.482C203.224 346.796 193.18 347.772 189.53 349.249C187.757 349.965 186.703 351.755 186.369 354.619C186.329 354.985 186.451 355.294 186.736 355.546C189.25 357.719 194.095 356.706 197.085 356.95C199.111 357.113 199.241 357.703 197.476 358.72C185.771 365.469 190.507 381.017 204.359 379.04C204.806 378.975 205.075 378.723 205.164 378.283C206.043 373.898 207.613 369.769 209.875 365.896C210.111 365.489 210.388 365.456 210.705 365.798C212.56 367.763 216.051 368.678 215.892 371.961C215.746 374.752 215.868 377.116 216.258 379.052C216.301 379.253 216.384 379.444 216.504 379.614C216.623 379.784 216.776 379.929 216.954 380.041C219.358 381.603 221.677 383.068 224.618 381.981C229.777 380.069 232.047 376.009 231.429 369.801" stroke="#FE91A9" stroke-width="2"/>
<path d="M233.295 296.293C233.841 294.503 233.922 292.62 233.539 290.643C233.466 290.219 233.601 289.882 233.942 289.63C235.7 288.352 236.204 286.652 235.456 284.528C235.431 284.455 235.452 284.394 235.517 284.345C235.549 284.321 235.578 284.3 235.602 284.284C235.716 284.219 235.728 284.166 235.639 284.125L233.32 283.015" stroke="#FF6F3B" stroke-width="2"/>
<path d="M233.32 283.015C232.922 282.592 232.856 282.502 233.125 282.746" stroke="#FE91A9" stroke-width="2"/>
<path d="M233.125 282.746C239.886 279.5 245.5 267.796 242.742 260.583C240.46 254.627 234.943 246.34 227.828 246.767C227.647 246.779 227.47 246.827 227.309 246.909C227.147 246.991 227.004 247.105 226.888 247.243L225.961 248.39" stroke="#801332" stroke-width="2"/>
<path d="M225.961 248.39C225.66 247.813 224.773 248.089 223.3 249.22" stroke="#FF663E" stroke-width="2"/>
<path d="M233.125 282.746C229.049 280.293 225.034 277.071 220.164 277.266" stroke="#808088" stroke-width="2"/>
<path d="M220.164 277.266C218.895 275.818 216.739 275.35 213.696 275.863" stroke="#5A0534" stroke-width="2"/>
<path d="M222.129 252.918C221.966 252.333 222.32 251.922 223.191 251.686C224.419 251.36 225.021 250.937 224.997 250.416" stroke="#5A0534" stroke-width="2"/>
<path d="M342.929 173.04C340.253 166.628 335.835 162.784 329.675 161.506C324.476 160.432 320.489 159.338 317.715 158.223" stroke="#FE91A9" stroke-width="2"/>
<path d="M377.431 193.665L370.89 200.378C370.076 201.216 369.799 201.065 370.06 199.926C371.195 194.935 369.144 192.53 366.52 188.613C366.439 188.491 366.341 188.409 366.228 188.368C366.089 188.32 365.963 188.303 365.849 188.32C365.491 188.369 365.377 188.56 365.508 188.893C365.711 189.414 365.784 189.951 365.727 190.504C365.687 190.911 365.463 191.151 365.056 191.224L361.077 191.944C360.97 191.963 360.867 192.004 360.775 192.063C360.683 192.122 360.603 192.199 360.541 192.29C360.478 192.381 360.434 192.483 360.411 192.592C360.388 192.7 360.386 192.812 360.406 192.921C360.666 194.402 360.626 195.874 360.284 197.339C360.186 197.762 360.268 198.148 360.528 198.498C361.529 199.784 362.424 201.134 363.213 202.55C363.718 203.461 363.697 204.157 363.152 204.637C363.039 204.739 362.905 204.815 362.76 204.86C362.615 204.905 362.461 204.918 362.31 204.898C362.158 204.879 362.012 204.827 361.882 204.746C361.751 204.665 361.639 204.557 361.553 204.43C359.857 201.867 357.16 202.294 354.414 201.195C354.172 201.099 353.91 201.062 353.65 201.089C353.391 201.115 353.142 201.204 352.925 201.348C352.708 201.492 352.529 201.687 352.403 201.916C352.278 202.144 352.21 202.399 352.205 202.66L352.034 211.777" stroke="#FE91A9" stroke-width="2"/>
<path d="M352.034 211.777C352.953 212.387 353.82 212.883 354.633 213.266C356.427 214.12 358.148 213.546 359.967 213.864C360.685 213.992 361.328 214.389 361.765 214.974C362.203 215.558 362.402 216.287 362.322 217.013C362.273 217.427 362.692 218.026 363.579 218.807" stroke="#FD6668" stroke-width="2"/>
<path d="M363.579 218.807C363.124 220.109 363.412 220.784 364.446 220.833C367.765 220.995 369.503 219.486 369.657 216.305C369.664 216.175 369.704 216.048 369.771 215.937C369.839 215.825 369.933 215.732 370.045 215.666C370.158 215.6 370.284 215.562 370.415 215.556C370.545 215.551 370.675 215.577 370.792 215.633C373.168 216.764 374.547 218.644 374.929 221.272C375.076 222.313 375.483 222.423 376.15 221.602C378.664 218.489 381.41 215.963 379.421 211.313C379.266 210.947 379.002 210.695 378.627 210.556L373.416 208.579C373.279 208.526 373.131 208.504 372.983 208.514C372.836 208.525 372.692 208.568 372.562 208.64L368.339 211.093C368.194 211.179 368.025 211.218 367.857 211.205C367.689 211.193 367.528 211.129 367.397 211.023C367.266 210.917 367.17 210.774 367.122 210.612C367.075 210.45 367.078 210.277 367.131 210.117C367.334 209.482 367.708 208.97 368.254 208.579C368.425 208.457 368.568 208.299 368.672 208.115C368.775 207.932 368.836 207.728 368.852 207.517C368.884 207.103 368.852 206.692 368.754 206.285C368.347 204.69 368.709 204.479 369.84 205.65C372.855 208.762 383.631 204.979 384.669 200.89" stroke="#FE91A9" stroke-width="2"/>
<path d="M320.973 208.909C316.653 203.966 316.836 200.061 316.091 194.642C315.823 192.673 316.238 192.518 317.336 194.178C318.935 196.594 322.938 201.794 326.075 202.379C334.691 203.966 345.065 189.296 334.569 184.024C331.917 182.689 329.101 182.043 326.123 182.083" stroke="#FE91A9" stroke-width="2"/>
<path d="M363.579 218.807L364.311 210.837C364.343 210.514 364.284 210.188 364.141 209.897C363.998 209.605 363.777 209.359 363.501 209.187C363.226 209.014 362.908 208.922 362.584 208.92C362.259 208.919 361.94 209.008 361.663 209.177C358.856 210.878 355.646 211.744 352.034 211.777" stroke="#FDD3BD" stroke-width="2"/>
<path d="M319.179 219.698C306.499 220.869 304.204 207.64 306.01 198.327C306.393 196.383 305.856 196.082 304.399 197.424C300.946 200.634 294.77 205.907 289.363 204.405C286.638 203.649 283.684 202.449 280.503 200.805" stroke="#FE91A9" stroke-width="2"/>
<path d="M301.385 188.027L303.789 192.909C303.859 193.053 303.957 193.182 304.078 193.288C304.199 193.394 304.34 193.474 304.493 193.524C304.645 193.575 304.807 193.593 304.967 193.58C305.127 193.566 305.282 193.521 305.424 193.446C307.524 192.339 309.183 190.582 310.404 188.173" stroke="#FE91A9" stroke-width="2"/>
<path d="M319.35 263.06C319.309 260.782 319.191 258.541 318.996 256.336C318.581 251.49 313.358 248.439 309.025 249.44C303.203 250.795 301.202 257.019 302.007 262.499" stroke="#FE91A9" stroke-width="2"/>
<path d="M302.007 262.499C301.828 262.963 301.405 263.04 300.738 262.731C300.681 262.698 300.64 262.711 300.616 262.767C300.575 262.873 300.546 262.979 300.53 263.085C300.522 263.109 300.518 263.109 300.518 263.085C300.485 262.93 300.412 262.792 300.298 262.67C300.225 262.58 300.18 262.479 300.164 262.365L299.529 257.617C299.445 256.972 299.131 256.379 298.646 255.945C298.16 255.511 297.534 255.264 296.881 255.249L283.31 255.005" stroke="#FF663E" stroke-width="2"/>
<path d="M265.492 238.285C265.907 235.681 265.829 233.261 265.26 231.023" stroke="#D81755" stroke-width="2"/>
<path d="M265.113 220.308C265.748 218.892 265.886 217.269 265.528 215.438" stroke="#D81755" stroke-width="2"/>
<path d="M317.446 268.076C316.348 268.451 314.956 269.553 313.272 271.384C310.245 274.667 311.673 279.378 316.531 278.67C316.728 278.643 316.916 278.57 317.082 278.456C317.247 278.341 317.384 278.189 317.483 278.011L318.703 275.777C319.019 275.206 319.488 274.735 320.06 274.415C320.631 274.096 321.281 273.942 321.937 273.971L328.638 274.264C329.545 274.303 330.396 274.698 331.005 275.362L333.446 277.974" stroke="#FFD393" stroke-width="2"/>
<path d="M333.446 277.974C336.204 280.708 337.307 283.841 336.753 287.372C336.723 287.561 336.642 287.739 336.521 287.887C336.399 288.036 336.24 288.149 336.06 288.216C335.881 288.283 335.686 288.301 335.497 288.268C335.308 288.236 335.131 288.154 334.984 288.031C331.168 284.784 326.827 283.499 321.962 284.174C314.004 285.285 315.981 296.867 317.055 302.005C317.698 305.08 318.056 308.184 318.129 311.317C318.132 311.384 318.118 311.45 318.09 311.51C318.062 311.571 318.021 311.624 317.968 311.666C317.916 311.707 317.855 311.736 317.79 311.75C317.724 311.763 317.657 311.761 317.592 311.744C307.963 309.218 300.286 305.19 301.519 293.681C301.56 293.283 301.775 293.031 302.166 292.925C305.449 292.034 310.074 292.656 310.953 288.092C311.685 284.26 308.39 281.123 304.875 279.988C304.102 279.736 303.394 279.858 302.752 280.354C301.987 280.948 301.767 281.615 302.093 282.356C302.263 282.762 302.682 283.145 303.35 283.503C304.261 283.999 305.164 284.557 306.059 285.175C306.198 285.27 306.308 285.403 306.377 285.558C306.446 285.713 306.471 285.884 306.45 286.054L306.022 289.495C305.982 289.878 305.766 290.069 305.376 290.069C302.52 290.032 300.506 289.91 298.785 292.022" stroke="#FFDC91" stroke-width="2"/>
<path d="M298.785 292.022C292.085 299.906 285.092 297.538 278.733 291.521C278.448 291.253 278.294 290.923 278.269 290.533C278.001 286.513 279.482 283.007 282.712 280.012" stroke="#FE91A9" stroke-width="2"/>
<path d="M288.314 276.4C289.16 275.879 290.137 275.712 291.243 275.899C291.681 275.978 292.071 276.223 292.329 276.583L295.234 280.659C295.378 280.86 295.568 281.023 295.789 281.136C296.009 281.248 296.253 281.306 296.5 281.305C296.748 281.304 296.991 281.243 297.21 281.129C297.429 281.014 297.618 280.849 297.76 280.647L298.517 279.561C298.947 278.948 299.173 278.217 299.165 277.47C299.156 276.723 298.912 275.998 298.468 275.399L295.563 271.42C295.417 271.219 295.333 270.978 295.323 270.729C295.312 270.48 295.375 270.233 295.504 270.019C295.633 269.806 295.822 269.635 296.048 269.528C296.273 269.421 296.525 269.383 296.772 269.419C298.684 269.696 300.429 270.383 302.007 271.481C302.078 271.531 302.162 271.559 302.248 271.562C302.334 271.566 302.42 271.544 302.494 271.501C302.569 271.457 302.629 271.393 302.668 271.316C302.708 271.239 302.724 271.152 302.715 271.067L302.007 262.499" stroke="#FFD393" stroke-width="2"/>
<path d="M317.861 357.279C316.397 356.807 314.704 356.706 312.784 356.974C311.405 357.157 310.429 356.633 310.038 355.339C309.81 354.566 310.014 353.935 310.648 353.447C312.674 351.885 313.895 351.287 316.665 351.592C323.426 352.337 327.759 352.654 328.723 344.416C329.309 339.436 326.294 339.449 322.243 339.302C315.318 339.05 310.278 342.077 307.121 348.382C306.91 348.813 306.657 349.078 306.364 349.176C305.941 349.338 305.539 349.265 305.156 348.956C303.618 347.711 304.705 339.68 303.277 337.093C301.055 333.078 294.013 331.357 291.158 336.275C289.05 339.92 289.038 343.285 291.121 346.369C293.013 349.176 297.113 354.326 300.897 355.363C302.19 355.717 303.533 355.168 304.875 355.241C304.99 355.245 305.102 355.277 305.202 355.333C305.302 355.389 305.387 355.468 305.45 355.563C305.513 355.659 305.553 355.768 305.565 355.882C305.578 355.995 305.563 356.111 305.522 356.218C300.958 368.227 290.706 346.698 283.884 359.44C280.662 365.444 282.102 370.814 289.449 371.717C293.387 372.197 295.897 372.279 296.979 371.961C301.804 370.546 304.176 367.377 304.094 362.454C304.093 362.334 304.124 362.215 304.184 362.11C304.243 362.005 304.329 361.918 304.433 361.858C304.538 361.797 304.656 361.765 304.776 361.765C304.897 361.764 305.015 361.796 305.12 361.856C308.927 364.045 311.022 367.316 311.405 371.669C311.486 372.612 312.149 374.101 313.394 376.135C314.883 378.564 317.263 379.467 319.887 378.918C322.987 378.251 324.964 376.42 325.818 373.426" stroke="#FE91A9" stroke-width="2"/>
<path d="M300.018 297.025C300.408 295.024 300.774 293.12 298.785 292.022" stroke="#FF6F3B" stroke-width="2"/>
<path d="M337.242 278.023C336.664 279.219 335.399 279.203 333.446 277.974" stroke="#FFB126" stroke-width="2"/>
<path d="M301.092 162.593L297.468 162.287C297.176 162.262 296.897 162.155 296.664 161.978C296.431 161.801 296.252 161.561 296.15 161.287L289.84 144.92C289.795 144.799 289.716 144.694 289.612 144.619C289.508 144.543 289.383 144.5 289.253 144.495C289.123 144.49 288.994 144.523 288.881 144.59C288.769 144.657 288.678 144.755 288.619 144.872C284.722 153.008 281.305 161.169 278.368 169.354C276.154 175.546 272.692 180.879 267.981 185.354L287.692 130.91C287.928 130.267 288.172 130.263 288.424 130.897L301.092 162.593Z" fill="#FEFEFE"/>
<path d="M229.854 140.185L225.778 145.933L219.248 160.579C219.092 160.929 218.846 161.232 218.536 161.459C218.226 161.686 217.861 161.828 217.479 161.872L213.378 162.336L225.607 131.349C225.859 130.706 226.111 130.706 226.364 131.349L229.854 140.185Z" fill="#FEFEFE"/>
<path d="M229.854 140.185C231.18 143.277 233.015 148.224 235.358 155.026C237.392 160.916 241.493 171.099 247.661 185.574C243.706 181.351 240.204 176.913 237.152 172.259C233.04 165.985 231.245 159.261 229.012 151.804C228.41 149.786 227.332 147.829 225.778 145.933L229.854 140.185Z" fill="#FFB923"/>
<path d="M301.092 162.593L304.656 171.892C304.684 171.965 304.693 172.044 304.684 172.121C304.675 172.198 304.646 172.272 304.602 172.336C304.557 172.4 304.498 172.452 304.428 172.487C304.359 172.523 304.282 172.54 304.204 172.539C299.676 172.442 285.934 171.441 283.066 174.919C279.836 178.833 276.276 182.417 272.387 185.671C270.569 187.197 268.86 189.382 266.761 190.944C266.687 191.003 266.597 191.038 266.502 191.044C266.408 191.05 266.314 191.028 266.231 190.979C266.149 190.931 266.082 190.859 266.04 190.772C265.997 190.685 265.98 190.588 265.992 190.492C266.342 187.823 267.005 186.111 267.981 185.354C272.692 180.879 276.154 175.546 278.367 169.354C281.304 161.169 284.722 153.008 288.619 144.872C288.677 144.755 288.769 144.657 288.881 144.59C288.994 144.523 289.123 144.49 289.253 144.495C289.382 144.5 289.507 144.543 289.612 144.619C289.716 144.694 289.795 144.799 289.84 144.92L296.149 161.287C296.252 161.561 296.43 161.801 296.664 161.978C296.897 162.155 297.176 162.262 297.467 162.287L301.092 162.593Z" fill="#FE2453"/>
<path d="M225.778 145.933C227.332 147.829 228.41 149.786 229.012 151.804C231.246 159.261 233.04 165.985 237.153 172.259C240.204 176.913 243.706 181.351 247.661 185.574C248.45 186.908 248.979 188.605 249.247 190.663C249.312 191.159 249.133 191.273 248.71 191.005C241.534 186.44 235.712 179.41 230.416 172.857C230.324 172.745 230.21 172.655 230.081 172.592C229.953 172.529 229.813 172.494 229.671 172.49L211.023 172.137C210.904 172.136 210.788 172.107 210.684 172.051C210.579 171.996 210.489 171.916 210.421 171.819C210.353 171.721 210.309 171.608 210.293 171.489C210.276 171.37 210.288 171.249 210.327 171.136L213.378 162.336L217.479 161.872C217.862 161.828 218.226 161.686 218.536 161.459C218.846 161.232 219.092 160.929 219.248 160.579L225.778 145.933Z" fill="#FE2453"/>
<path d="M196.499 160.384C194.498 160.489 192.712 160.587 191.141 160.676C182.826 161.124 176.252 164.859 171.419 171.88L168.77 166.889C168.536 166.452 168.453 165.951 168.535 165.463C168.617 164.975 168.858 164.527 169.222 164.191L177.79 156.283C178.115 155.974 178.506 155.815 178.961 155.807L197.475 155.258C198.061 155.241 198.22 155.494 197.951 156.014C197.195 157.471 196.711 158.927 196.499 160.384Z" fill="#FEFEFE"/>
<path d="M342.929 173.04C340.253 166.628 335.835 162.784 329.675 161.506C324.476 160.432 320.489 159.338 317.715 158.223C317.202 157.654 316.922 157.076 316.873 156.49C316.832 156.043 317.035 155.819 317.483 155.819L334.154 155.709C334.666 155.702 335.162 155.884 335.546 156.222L346.054 165.278C346.396 165.579 346.53 165.949 346.457 166.388C346.05 168.78 344.874 170.997 342.929 173.04Z" fill="#FEFEFE"/>
<path d="M317.715 158.223C320.489 159.338 324.476 160.432 329.675 161.506C335.834 162.784 340.252 166.628 342.929 173.04C341.505 175.619 340.769 177.954 340.72 180.045C340.622 183.889 339.683 189.113 340.439 192.262C342.136 199.377 349.52 199.133 355.89 198.742C356.313 198.718 356.671 198.551 356.964 198.242C359.576 195.484 356.732 188.661 355.78 186.05C355.642 185.659 355.646 185.269 355.793 184.878L358.417 177.921C358.47 177.777 358.559 177.649 358.674 177.547C358.789 177.445 358.927 177.373 359.076 177.337C359.225 177.3 359.381 177.301 359.53 177.34C359.679 177.378 359.816 177.452 359.93 177.555L377.431 193.665L370.89 200.378C370.076 201.216 369.799 201.065 370.06 199.926C371.195 194.934 369.144 192.53 366.52 188.613C366.439 188.491 366.341 188.409 366.228 188.368C366.089 188.32 365.963 188.303 365.849 188.32C365.491 188.369 365.377 188.56 365.507 188.893C365.711 189.414 365.784 189.951 365.727 190.504C365.686 190.911 365.463 191.151 365.056 191.224L361.077 191.944C360.97 191.963 360.867 192.004 360.775 192.063C360.683 192.122 360.603 192.199 360.541 192.29C360.478 192.381 360.434 192.483 360.411 192.592C360.388 192.7 360.386 192.812 360.406 192.921C360.666 194.402 360.626 195.874 360.284 197.339C360.186 197.762 360.268 198.148 360.528 198.498C361.529 199.784 362.424 201.134 363.213 202.55C363.717 203.461 363.697 204.157 363.152 204.637C363.039 204.739 362.905 204.815 362.76 204.86C362.615 204.905 362.461 204.918 362.31 204.898C362.158 204.879 362.012 204.827 361.882 204.746C361.751 204.665 361.639 204.557 361.553 204.43C359.857 201.867 357.16 202.294 354.414 201.195C354.172 201.099 353.91 201.062 353.65 201.089C353.391 201.115 353.142 201.204 352.925 201.348C352.708 201.492 352.529 201.687 352.403 201.915C352.278 202.144 352.21 202.399 352.205 202.66L352.034 211.777C352.953 212.387 353.82 212.883 354.633 213.266C356.427 214.12 358.148 213.546 359.967 213.864C360.685 213.992 361.328 214.389 361.765 214.974C362.203 215.558 362.402 216.287 362.322 217.013C362.273 217.427 362.692 218.026 363.579 218.807C363.124 220.108 363.412 220.784 364.446 220.833C367.765 220.995 369.502 219.486 369.657 216.305C369.664 216.175 369.704 216.048 369.771 215.937C369.839 215.825 369.933 215.732 370.045 215.666C370.157 215.6 370.284 215.562 370.415 215.556C370.545 215.551 370.674 215.577 370.792 215.633C373.168 216.764 374.547 218.644 374.929 221.272C375.076 222.313 375.483 222.423 376.15 221.601C378.664 218.489 381.41 215.963 379.421 211.313C379.266 210.947 379.002 210.695 378.627 210.556L373.416 208.579C373.279 208.526 373.131 208.504 372.983 208.514C372.836 208.525 372.692 208.568 372.562 208.64L368.339 211.093C368.193 211.179 368.025 211.218 367.857 211.205C367.689 211.193 367.528 211.129 367.397 211.023C367.266 210.917 367.17 210.774 367.122 210.612C367.075 210.45 367.078 210.277 367.131 210.117C367.334 209.482 367.708 208.97 368.254 208.579C368.425 208.457 368.568 208.299 368.671 208.115C368.775 207.932 368.836 207.728 368.852 207.517C368.884 207.102 368.852 206.692 368.754 206.285C368.347 204.69 368.709 204.478 369.84 205.65C372.855 208.762 383.631 204.979 384.669 200.89L396.275 211.447C396.468 211.621 396.623 211.833 396.733 212.068C396.842 212.303 396.903 212.558 396.912 212.818C396.921 213.077 396.878 213.336 396.786 213.579C396.693 213.821 396.553 214.043 396.373 214.23L372.867 238.432C372.653 238.653 372.364 238.787 372.055 238.807C371.746 238.828 371.44 238.733 371.195 238.541C364.275 233.135 350.471 219.502 342.038 218.843C341.68 218.811 341.351 218.892 341.05 219.087C340.692 219.315 340.305 219.462 339.89 219.527C339.443 219.608 339.182 219.425 339.109 218.977C338.426 214.95 337.169 210.324 332.421 209.287C328.646 208.457 324.83 208.331 320.973 208.909C316.653 203.966 316.836 200.06 316.091 194.642C315.823 192.673 316.238 192.518 317.336 194.178C318.935 196.594 322.938 201.793 326.075 202.379C334.691 203.966 345.065 189.296 334.569 184.024C331.917 182.689 329.101 182.042 326.123 182.083C325.985 181.245 325.798 180.285 325.562 179.203C325.359 178.283 325.066 177.344 324.683 176.384C322.332 170.525 320.009 164.472 317.715 158.223Z" fill="#FE2453"/>
<path d="M196.499 160.383C192.382 168.919 189.782 175.664 188.7 180.619C186.686 189.857 199.16 188.393 205.787 187.905C210.432 187.563 214.94 187.6 219.309 188.015C220.417 188.125 221.459 188.597 222.275 189.357L238.666 204.662C236.729 205.719 234.5 206.269 231.978 206.309C231.784 206.313 231.593 206.362 231.419 206.453C231.246 206.544 231.094 206.674 230.977 206.834C230.472 207.517 230.167 208.294 230.061 209.165C230.015 209.536 229.889 209.894 229.691 210.214C229.493 210.534 229.228 210.809 228.914 211.02L226.009 212.961C225.919 213.021 225.812 213.053 225.703 213.05C225.594 213.047 225.489 213.01 225.403 212.945C225.317 212.88 225.255 212.789 225.226 212.686C225.197 212.584 225.202 212.475 225.241 212.375C227.926 204.954 226.205 196.973 218.565 193.494C215.88 192.282 213.805 192.473 212.34 194.068C208.655 198.095 213.707 208.86 215.953 212.875C216.172 213.266 216.234 213.724 216.128 214.158C216.021 214.591 215.753 214.966 215.379 215.206C210.534 218.355 208.545 208.543 203.724 209.47C201.039 209.995 197.805 210.154 195.803 211.935C190.958 216.268 194.082 220.454 197.878 223.664C203.773 228.643 207.959 227.301 214.659 225.8C216.978 225.287 217.295 225.865 215.611 227.533C212.462 230.641 210.884 234.432 210.876 238.907L210.766 236.174C210.75 235.62 210.534 235.527 210.119 235.893L208.679 237.174C209.118 234.693 210.009 232.671 211.352 231.109C212.605 229.661 212.288 229.119 210.4 229.486C199.282 231.658 189.042 232.402 180.535 240.909C180.317 241.127 180.039 241.275 179.736 241.337C179.434 241.398 179.12 241.369 178.834 241.253C178.548 241.137 178.302 240.94 178.127 240.686C177.952 240.431 177.856 240.131 177.85 239.823C177.716 234.477 178.217 221.528 171.04 220.137C167.005 219.356 163.518 220.316 160.581 223.017C154.886 228.265 149.133 233.297 143.324 238.114C142.924 238.445 142.415 238.614 141.895 238.587C141.375 238.56 140.884 238.339 140.517 237.968L116.693 213.913C115.701 212.904 115.713 211.911 116.73 210.935L121.173 206.651C121.404 206.431 121.679 206.261 121.978 206.151C122.278 206.041 122.597 205.994 122.915 206.012C123.233 206.03 123.544 206.114 123.828 206.257C124.112 206.401 124.363 206.601 124.565 206.846L126.884 209.678C127.287 210.168 127.832 210.521 128.444 210.689C129.056 210.857 129.705 210.832 130.302 210.617C132.474 209.853 133.658 208.327 133.853 206.041L138.234 207.725C138.445 207.806 138.637 207.929 138.798 208.088C138.959 208.246 139.085 208.437 139.169 208.646C139.253 208.856 139.292 209.081 139.285 209.307C139.277 209.533 139.223 209.755 139.125 209.958C137.966 212.424 141.188 218.428 142.372 220.833C142.59 221.286 142.942 221.662 143.381 221.909C143.82 222.156 144.324 222.261 144.825 222.212C145.948 222.098 146.916 221.54 147.73 220.54C150.646 216.915 150.598 211.52 146.265 209.153C145.191 208.567 143.979 208.115 142.628 207.798C142.277 207.717 141.969 207.504 141.768 207.203C141.566 206.902 141.486 206.534 141.542 206.175C142.054 202.831 139.296 201.769 137.734 200.085C136.099 198.303 134.305 196.704 132.352 195.288C135.761 191.424 139.626 187.864 143.946 184.609C147.424 181.998 150.366 179.044 153.624 176.347C153.747 176.243 153.889 176.164 154.043 176.115C154.196 176.067 154.358 176.049 154.518 176.064C154.678 176.079 154.834 176.126 154.976 176.201C155.118 176.277 155.244 176.381 155.345 176.506C157.2 178.788 161.057 185.549 159.861 188.564C159.641 189.093 159.092 189.695 158.213 190.37C155.488 192.437 153.087 194.975 151.013 197.986C150.927 198.111 150.873 198.254 150.852 198.403C150.832 198.553 150.846 198.706 150.895 198.849C150.943 198.992 151.024 199.122 151.132 199.228C151.239 199.335 151.369 199.415 151.513 199.462C152.359 199.731 153.205 199.82 154.052 199.731C154.393 199.698 154.694 199.576 154.955 199.365C155.565 198.877 156.395 198.755 157.164 199.072C164.657 202.147 171.272 201.195 173.628 192.567C175.654 185.098 174.917 178.202 171.419 171.88C176.252 164.858 182.826 161.124 191.141 160.676C192.711 160.587 194.497 160.489 196.499 160.383Z" fill="#FE2453"/>
<path d="M320.973 208.909C321.429 213.359 320.831 216.956 319.179 219.698C306.499 220.869 304.204 207.64 306.01 198.327C306.393 196.383 305.856 196.082 304.399 197.424C300.946 200.634 294.77 205.907 289.363 204.405C286.638 203.649 283.684 202.449 280.503 200.805L290.169 188.173C290.413 187.856 290.738 187.701 291.145 187.71L301.385 188.027L303.789 192.909C303.859 193.053 303.957 193.182 304.078 193.288C304.199 193.394 304.34 193.474 304.493 193.524C304.645 193.575 304.807 193.593 304.967 193.58C305.127 193.566 305.283 193.521 305.425 193.446C307.524 192.339 309.184 190.582 310.404 188.173C314.981 188.417 327.344 189.272 326.123 182.083C329.101 182.043 331.917 182.689 334.569 184.024C345.065 189.296 334.691 203.966 326.075 202.379C322.938 201.794 318.935 196.594 317.336 194.178C316.238 192.518 315.823 192.673 316.091 194.642C316.836 200.061 316.653 203.966 320.973 208.909Z" fill="#FEFEFE"/>
<path d="M310.404 188.173C309.183 190.582 307.524 192.339 305.424 193.446C305.282 193.521 305.127 193.566 304.967 193.58C304.807 193.593 304.645 193.575 304.493 193.524C304.34 193.474 304.199 193.394 304.078 193.288C303.957 193.182 303.859 193.053 303.789 192.909L301.385 188.027L310.404 188.173Z" fill="#FE2453"/>
<path d="M377.431 193.665L384.669 200.89C383.631 204.979 372.855 208.762 369.84 205.65C368.709 204.478 368.347 204.69 368.754 206.285C368.852 206.692 368.884 207.102 368.852 207.517C368.836 207.728 368.775 207.932 368.671 208.115C368.568 208.299 368.425 208.457 368.254 208.579C367.708 208.97 367.334 209.482 367.131 210.117C367.078 210.277 367.075 210.45 367.122 210.612C367.17 210.774 367.266 210.917 367.397 211.023C367.528 211.129 367.689 211.193 367.857 211.205C368.025 211.218 368.193 211.179 368.339 211.093L372.562 208.64C372.692 208.568 372.836 208.525 372.983 208.514C373.131 208.504 373.279 208.526 373.416 208.579L378.627 210.556C379.002 210.695 379.266 210.947 379.421 211.313C381.41 215.963 378.664 218.489 376.15 221.601C375.483 222.423 375.076 222.313 374.929 221.272C374.547 218.644 373.168 216.764 370.792 215.633C370.674 215.577 370.545 215.551 370.415 215.556C370.284 215.562 370.158 215.6 370.045 215.666C369.933 215.732 369.839 215.825 369.771 215.937C369.704 216.048 369.664 216.175 369.657 216.305C369.502 219.486 367.765 220.995 364.446 220.833C363.412 220.784 363.124 220.108 363.579 218.807L364.311 210.837C364.343 210.514 364.284 210.188 364.141 209.897C363.998 209.605 363.777 209.359 363.501 209.187C363.226 209.014 362.908 208.922 362.584 208.92C362.259 208.919 361.94 209.008 361.663 209.177C358.856 210.878 355.646 211.744 352.034 211.777L352.205 202.66C352.21 202.399 352.278 202.144 352.403 201.916C352.529 201.687 352.708 201.492 352.925 201.348C353.142 201.204 353.391 201.115 353.65 201.089C353.91 201.062 354.172 201.099 354.414 201.195C357.16 202.294 359.857 201.867 361.553 204.43C361.639 204.557 361.751 204.665 361.882 204.746C362.012 204.827 362.158 204.879 362.31 204.898C362.461 204.918 362.615 204.905 362.76 204.86C362.905 204.815 363.039 204.739 363.152 204.637C363.697 204.157 363.718 203.461 363.213 202.55C362.424 201.134 361.529 199.784 360.528 198.498C360.268 198.148 360.186 197.762 360.284 197.339C360.626 195.874 360.666 194.402 360.406 192.921C360.386 192.812 360.388 192.7 360.411 192.592C360.434 192.483 360.478 192.381 360.541 192.29C360.603 192.199 360.683 192.122 360.775 192.063C360.867 192.004 360.97 191.963 361.077 191.944L365.056 191.224C365.463 191.151 365.687 190.911 365.727 190.504C365.784 189.951 365.711 189.414 365.508 188.893C365.377 188.56 365.491 188.369 365.849 188.32C365.963 188.303 366.089 188.32 366.228 188.368C366.341 188.409 366.439 188.491 366.52 188.613C369.144 192.53 371.195 194.935 370.06 199.926C369.799 201.065 370.076 201.216 370.89 200.378L377.431 193.665Z" fill="#FEFEFE"/>
<path d="M238.666 204.662C242.384 206.956 245.362 210.288 247.599 214.657C246.68 217.79 244.56 219.527 241.241 219.869C238.104 220.186 235.737 218.087 232.392 218.062C229.276 218.03 228.918 219.006 231.318 220.991C233.637 222.92 235.761 225.727 238.849 226.849C241.839 227.936 244.487 227.96 247.123 230.584C250.663 234.087 244.707 239.847 242.669 242.703C242.557 242.861 242.414 242.994 242.248 243.092C242.081 243.191 241.896 243.254 241.705 243.277C239.516 243.521 237.343 243.444 235.187 243.045C230.403 242.178 230.83 236.162 226.803 236.442C226.555 236.462 226.314 236.531 226.094 236.647C225.874 236.764 225.681 236.923 225.526 237.117C225.372 237.311 225.259 237.534 225.195 237.773C225.131 238.011 225.118 238.261 225.155 238.505C225.704 242.154 226.595 246.218 223.3 249.22C216.889 249.326 212.747 245.889 210.876 238.908C210.884 234.433 212.462 230.641 215.611 227.533C217.295 225.865 216.978 225.287 214.659 225.8C207.959 227.301 203.773 228.644 197.878 223.664C194.082 220.454 190.958 216.268 195.803 211.936C197.805 210.154 201.039 209.995 203.724 209.47C208.545 208.543 210.534 218.355 215.379 215.206C215.753 214.966 216.021 214.591 216.128 214.158C216.234 213.725 216.172 213.266 215.953 212.875C213.707 208.86 208.655 198.096 212.34 194.068C213.805 192.473 215.88 192.282 218.565 193.495C226.205 196.973 227.926 204.955 225.241 212.375C225.202 212.475 225.197 212.584 225.226 212.687C225.255 212.789 225.317 212.88 225.403 212.945C225.489 213.01 225.594 213.047 225.703 213.05C225.812 213.053 225.92 213.022 226.01 212.961L228.914 211.02C229.228 210.809 229.493 210.534 229.691 210.214C229.889 209.894 230.015 209.537 230.061 209.165C230.167 208.295 230.472 207.518 230.977 206.834C231.094 206.674 231.246 206.544 231.419 206.453C231.593 206.362 231.784 206.313 231.978 206.309C234.5 206.269 236.729 205.719 238.666 204.662Z" fill="#FEFEFE"/>
<path d="M132.352 195.288C134.305 196.704 136.099 198.303 137.734 200.085C139.296 201.769 142.054 202.831 141.542 206.175C141.486 206.534 141.566 206.902 141.768 207.203C141.969 207.504 142.277 207.717 142.628 207.798C143.979 208.115 145.191 208.567 146.265 209.153C150.598 211.52 150.646 216.915 147.73 220.54C146.916 221.54 145.948 222.098 144.825 222.212C144.324 222.261 143.82 222.156 143.381 221.909C142.942 221.662 142.59 221.286 142.372 220.833C141.188 218.428 137.966 212.424 139.125 209.958C139.223 209.755 139.277 209.533 139.285 209.307C139.292 209.081 139.253 208.856 139.169 208.646C139.085 208.437 138.959 208.246 138.798 208.088C138.637 207.929 138.445 207.806 138.234 207.725L133.853 206.041L128.837 202.562C128.586 202.39 128.376 202.165 128.22 201.904C128.064 201.643 127.967 201.351 127.934 201.048C127.902 200.746 127.935 200.44 128.032 200.151C128.129 199.863 128.287 199.599 128.495 199.377L132.352 195.288Z" fill="#FEFEFE"/>
<path d="M319.18 219.698C316.763 223.017 313.102 223.615 309.44 221.785C302.508 218.331 300.861 211.252 302.423 203.746C302.821 201.826 302.272 201.501 300.775 202.77C294.514 208.091 291.671 208.555 283.591 205.589C281.093 204.67 280.064 203.075 280.503 200.805C283.685 202.449 286.638 203.649 289.364 204.405C294.77 205.907 300.946 200.634 304.4 197.424C305.856 196.082 306.393 196.383 306.011 198.327C304.205 207.64 306.499 220.869 319.18 219.698Z" fill="#FE2453"/>
<path d="M363.579 218.807C362.692 218.026 362.273 217.427 362.322 217.013C362.402 216.287 362.203 215.558 361.765 214.974C361.328 214.389 360.685 213.992 359.967 213.864C358.148 213.547 356.427 214.12 354.633 213.266C353.82 212.883 352.953 212.387 352.034 211.777C355.646 211.744 358.856 210.878 361.663 209.177C361.94 209.008 362.259 208.919 362.584 208.92C362.908 208.922 363.226 209.014 363.501 209.187C363.777 209.359 363.998 209.605 364.141 209.897C364.284 210.188 364.343 210.514 364.311 210.837L363.579 218.807Z" fill="#FCA87C"/>
<path d="M319.35 263.06C319.31 260.782 319.192 258.541 318.996 256.336C318.581 251.49 313.358 248.439 309.025 249.44C303.204 250.795 301.202 257.019 302.008 262.499C301.829 262.963 301.406 263.04 300.738 262.731C300.681 262.698 300.641 262.71 300.616 262.767C300.576 262.873 300.547 262.979 300.531 263.085C300.523 263.109 300.519 263.109 300.519 263.085C300.486 262.93 300.413 262.792 300.299 262.67C300.226 262.58 300.181 262.479 300.165 262.365L299.53 257.617C299.446 256.972 299.132 256.379 298.646 255.945C298.161 255.511 297.535 255.264 296.882 255.249L283.31 255.005C283.644 249.733 283.823 246.308 283.847 244.729C283.945 239.493 280.296 233.135 274.364 233.391C272.021 233.497 270.203 234.546 268.909 236.54C266.029 240.982 268.531 245.461 270.325 249.684C270.488 250.07 270.537 250.494 270.465 250.905C270.394 251.316 270.205 251.698 269.922 252.003L266.383 255.872C266.323 255.939 266.245 255.986 266.158 256.008C266.072 256.029 265.98 256.024 265.897 255.992C265.813 255.96 265.741 255.903 265.691 255.83C265.64 255.756 265.613 255.668 265.614 255.579L265.492 238.285C265.907 235.681 265.829 233.261 265.26 231.023L265.113 220.308C265.748 218.892 265.886 217.269 265.528 215.438L270.947 210.544C271.054 210.443 271.193 210.381 271.339 210.368C271.486 210.355 271.633 210.391 271.756 210.472C271.88 210.552 271.973 210.671 272.021 210.81C272.069 210.949 272.069 211.101 272.021 211.24C271.37 213.339 271.785 215.52 273.266 217.781C277.037 223.505 282.334 220.1 286.947 218.123C287.199 218.015 287.472 217.964 287.746 217.976C288.021 217.988 288.289 218.062 288.532 218.192C288.774 218.322 288.985 218.505 289.148 218.728C289.311 218.95 289.422 219.207 289.474 219.478C292.098 233.55 306.06 241.19 319.533 236.027C323.268 234.587 326.478 231.597 329.431 228.814C329.511 228.738 329.61 228.686 329.718 228.664C329.825 228.641 329.937 228.65 330.04 228.688C330.143 228.726 330.234 228.792 330.301 228.88C330.368 228.967 330.409 229.071 330.42 229.18C331.201 236.442 333.446 246.194 329.053 252.747C326.905 255.933 322.902 256.714 320.912 260.021C320.335 260.99 319.814 262.003 319.35 263.06Z" fill="#FE2453"/>
<path d="M247.6 214.657C248.95 215.186 249.626 216.158 249.626 217.574C249.65 255.514 249.605 293.45 249.492 331.381C249.479 336.104 250.346 344.513 247.893 348.529C245.757 352.007 240.936 356.059 236.567 356.754C232.605 357.389 228.817 358.573 225.205 360.306C222.194 358.467 218.708 357.621 214.745 357.767C214.2 357.784 213.911 357.519 213.879 356.974L213.854 356.51C213.838 356.112 214.013 355.835 214.379 355.68C218.065 354.192 222.202 353.492 226.791 353.581C234.626 353.74 235.127 347.015 236.811 341.352C236.851 341.217 236.861 341.074 236.84 340.935C236.818 340.795 236.765 340.662 236.686 340.545C236.606 340.428 236.502 340.33 236.38 340.259C236.258 340.188 236.122 340.144 235.981 340.132C232.259 339.851 220.274 339.448 217.735 342.109C216.718 343.175 215.681 345.185 214.623 348.138C214.485 348.52 214.257 348.781 213.94 348.919C213.839 348.962 213.729 348.979 213.62 348.97C213.511 348.96 213.406 348.924 213.316 348.865C213.225 348.806 213.15 348.725 213.1 348.63C213.049 348.535 213.023 348.429 213.024 348.321C212.988 342.707 211.621 332.016 207.361 328.245C203.7 324.986 196.853 326.329 192.277 326.805C192.041 326.828 191.82 326.932 191.651 327.098C191.482 327.265 191.376 327.484 191.349 327.72C190.971 331.027 189.909 334.884 193.338 337.13C201.259 342.317 203.749 346.661 208.741 352.764C209.611 353.821 209.42 354.074 208.167 353.52L205.555 352.373C205.165 352.194 204.9 351.897 204.762 351.482C203.224 346.796 193.18 347.772 189.531 349.249C187.757 349.965 186.703 351.755 186.37 354.619C186.329 354.985 186.451 355.294 186.736 355.546C189.25 357.719 194.095 356.706 197.085 356.95C199.111 357.113 199.241 357.702 197.476 358.719C185.772 365.469 190.507 381.017 204.359 379.04C204.807 378.975 205.075 378.723 205.165 378.283C206.043 373.898 207.614 369.769 209.876 365.896C210.112 365.489 210.388 365.456 210.706 365.798C212.561 367.763 216.051 368.678 215.892 371.961C215.746 374.752 215.868 377.116 216.259 379.052C216.301 379.253 216.384 379.444 216.504 379.614C216.623 379.784 216.777 379.929 216.954 380.041C219.359 381.603 221.677 383.068 224.619 381.981C229.777 380.069 232.047 376.009 231.429 369.801L233.04 372.535C233.259 372.917 233.589 373.129 234.028 373.17C239.089 373.642 243.963 372.921 248.649 371.009C248.759 370.963 248.877 370.945 248.996 370.955C249.114 370.966 249.227 371.006 249.326 371.071C249.425 371.136 249.507 371.225 249.563 371.329C249.62 371.433 249.65 371.55 249.65 371.668L249.699 387.839C249.699 388.022 249.626 388.197 249.496 388.327C249.366 388.457 249.189 388.532 249.003 388.535C232.609 388.787 216.267 388.861 199.978 388.755C196.56 388.73 196.243 383.592 193.9 381.688C192.789 380.785 191.679 380.199 190.776 379.125C185.332 372.669 187.285 365.2 192.924 359.684C193.075 359.535 193.184 359.348 193.24 359.142C193.295 358.937 193.295 358.721 193.239 358.516C193.183 358.311 193.074 358.124 192.922 357.975C192.77 357.827 192.581 357.721 192.374 357.67C189.445 356.925 186.858 357.694 184.49 356.913C180.121 355.497 172.066 350.164 178.51 345.294C182.017 342.65 185.943 340.994 190.287 340.327C190.8 340.254 190.926 339.994 190.666 339.546C189.933 338.277 188.798 337.191 188.42 335.848C186.614 329.494 186.638 323.269 188.493 317.175C188.574 316.913 188.711 316.672 188.895 316.469C189.078 316.265 189.303 316.104 189.555 315.996C189.807 315.888 190.079 315.836 190.353 315.844C190.627 315.851 190.896 315.918 191.142 316.04C198.037 319.47 206.519 321.447 209.888 328.965C211.214 331.943 212.369 334.969 213.354 338.045C213.541 338.639 213.887 338.753 214.391 338.387C221.58 333.2 220.713 326.182 220.445 318.274C220.298 313.978 225.266 312.306 228.634 312.379C232.698 312.476 235.883 316.48 240.07 314.234C240.403 314.055 240.643 313.795 240.79 313.453C243.487 306.948 242.718 295.854 233.296 296.293C233.841 294.503 233.923 292.62 233.54 290.643C233.467 290.219 233.601 289.882 233.943 289.63C235.7 288.352 236.205 286.652 235.456 284.528C235.432 284.455 235.452 284.394 235.517 284.345C235.55 284.321 235.578 284.3 235.603 284.284C235.717 284.219 235.729 284.166 235.639 284.125L233.321 283.015C232.922 282.592 232.857 282.502 233.125 282.746C239.887 279.5 245.501 267.796 242.742 260.583C240.46 254.627 234.944 246.34 227.828 246.767C227.647 246.779 227.47 246.827 227.309 246.909C227.147 246.991 227.004 247.105 226.889 247.243L225.961 248.39C225.66 247.813 224.773 248.089 223.301 249.22C226.596 246.218 225.705 242.154 225.156 238.505C225.118 238.261 225.132 238.011 225.196 237.773C225.259 237.534 225.372 237.311 225.527 237.117C225.682 236.923 225.875 236.763 226.094 236.647C226.314 236.531 226.555 236.461 226.803 236.442C230.831 236.161 230.404 242.178 235.188 243.045C237.344 243.443 239.516 243.521 241.705 243.277C241.897 243.254 242.082 243.191 242.248 243.092C242.414 242.994 242.558 242.861 242.669 242.703C244.707 239.847 250.663 234.087 247.124 230.584C244.488 227.96 241.839 227.936 238.849 226.849C235.761 225.727 233.638 222.92 231.319 220.991C228.919 219.006 229.277 218.03 232.393 218.062C235.737 218.087 238.105 220.186 241.241 219.868C244.561 219.527 246.68 217.79 247.6 214.657Z" fill="#FE2453"/>
<path d="M265.528 215.438C265.886 217.269 265.748 218.892 265.113 220.308C264.869 219.193 264.703 218.082 264.613 216.976C264.548 216.179 264.853 215.666 265.528 215.438Z" fill="#B20957"/>
<path d="M265.26 231.023C265.829 233.261 265.907 235.681 265.492 238.285L265.26 231.023Z" fill="#B20957"/>
<path d="M210.876 238.907C212.747 245.888 216.889 249.326 223.3 249.22C224.773 248.089 225.66 247.813 225.961 248.39L224.996 250.416L222.372 250.294C222.006 250.278 221.811 250.449 221.787 250.807C221.722 251.596 221.835 252.3 222.128 252.918L221.872 254.163C221.791 254.57 221.913 254.904 222.238 255.164C229.756 260.973 229.244 269.809 221.225 274.74C218.943 276.144 216.356 275.631 213.695 275.863C212.58 276.148 211.958 277.063 211.828 278.609C210.502 276.689 210.611 274.891 212.157 273.214C212.418 272.939 212.767 272.762 213.146 272.714C218.443 272.055 220.102 272.824 222.836 267.6C224 265.395 223.512 264.02 221.372 263.475C219.932 263.109 209.668 262.255 208.02 265.892C207.044 268.048 205.982 270.407 204.835 272.97C204.723 273.221 204.519 273.418 204.267 273.518C204.016 273.619 203.737 273.615 203.492 273.507L202.918 273.263C201.958 272.856 201.661 272.161 202.027 271.176C204.554 264.354 202.381 263.927 197.963 260.888C196.389 259.802 194.656 259.802 192.862 260.021C192.471 260.078 192.146 260.249 191.885 260.534C188.065 264.635 190.726 269.907 193.68 273.935C192.638 273.463 191.67 272.791 190.775 271.921C190.515 271.872 190.226 271.665 189.908 271.298C186.223 265.025 186.223 257.922 186.503 250.892C186.506 250.748 186.563 250.609 186.664 250.501C186.765 250.393 186.903 250.324 187.053 250.307C191.3 249.843 195.417 250.49 199.403 252.247C202.76 253.724 203.797 260.851 204.566 264.281C204.603 264.443 204.686 264.591 204.804 264.708C204.922 264.824 205.071 264.905 205.233 264.941C205.395 264.977 205.564 264.966 205.721 264.91C205.877 264.853 206.014 264.754 206.116 264.622C208.801 261.091 212.117 258.305 216.063 256.262C216.158 256.216 216.238 256.143 216.293 256.052C216.348 255.962 216.377 255.858 216.376 255.752C216.375 255.646 216.343 255.543 216.286 255.454C216.228 255.365 216.147 255.294 216.05 255.249C213.471 254.037 211.197 252.43 209.228 250.429C205.957 247.097 207.788 241.141 208.679 237.174L210.119 235.893C210.534 235.527 210.75 235.62 210.766 236.174L210.876 238.907Z" fill="#FFA828"/>
<path d="M233.125 282.746C229.049 280.293 225.034 277.071 220.164 277.266C218.895 275.818 216.739 275.35 213.696 275.863C216.356 275.631 218.944 276.144 221.226 274.74C229.244 269.809 229.757 260.973 222.239 255.164C221.914 254.904 221.791 254.57 221.873 254.163L222.129 252.918C221.966 252.333 222.32 251.922 223.191 251.686C224.42 251.36 225.022 250.937 224.997 250.416L225.961 248.39L226.889 247.243C227.005 247.105 227.147 246.991 227.309 246.909C227.471 246.827 227.647 246.779 227.829 246.767C234.944 246.34 240.46 254.627 242.743 260.583C245.501 267.796 239.887 279.5 233.125 282.746Z" fill="#020111"/>
<path d="M319.35 263.06L317.446 268.076C316.347 268.451 314.956 269.553 313.272 271.384C310.245 274.667 311.673 279.378 316.53 278.67C316.727 278.643 316.916 278.57 317.081 278.456C317.247 278.341 317.384 278.189 317.482 278.011L318.703 275.777C319.018 275.206 319.488 274.735 320.059 274.415C320.631 274.096 321.281 273.943 321.937 273.971L328.637 274.264C329.544 274.303 330.396 274.698 331.005 275.362L333.446 277.974C336.204 280.708 337.307 283.841 336.753 287.372C336.723 287.561 336.642 287.739 336.521 287.887C336.399 288.036 336.24 288.149 336.06 288.216C335.88 288.283 335.686 288.301 335.497 288.269C335.308 288.236 335.131 288.154 334.984 288.031C331.168 284.784 326.827 283.499 321.961 284.174C314.004 285.285 315.981 296.867 317.055 302.005C317.698 305.081 318.056 308.185 318.129 311.317C318.131 311.384 318.118 311.45 318.09 311.511C318.062 311.571 318.02 311.624 317.968 311.666C317.916 311.707 317.855 311.736 317.79 311.75C317.724 311.763 317.657 311.761 317.592 311.744C307.963 309.218 300.286 305.19 301.519 293.681C301.56 293.283 301.775 293.031 302.166 292.925C305.449 292.034 310.074 292.656 310.953 288.092C311.685 284.26 308.39 281.123 304.875 279.988C304.102 279.736 303.394 279.858 302.752 280.354C301.987 280.948 301.767 281.615 302.092 282.356C302.263 282.763 302.682 283.145 303.35 283.503C304.261 283.999 305.164 284.557 306.059 285.175C306.198 285.27 306.308 285.403 306.377 285.558C306.446 285.713 306.471 285.884 306.449 286.054L306.022 289.495C305.982 289.878 305.766 290.069 305.375 290.069C302.52 290.032 300.506 289.91 298.785 292.022C292.085 299.906 285.092 297.538 278.733 291.521C278.448 291.253 278.294 290.923 278.269 290.533C278.001 286.513 279.482 283.007 282.712 280.012L288.314 276.4C289.16 275.879 290.136 275.712 291.243 275.899C291.681 275.978 292.071 276.223 292.329 276.583L295.234 280.659C295.378 280.86 295.568 281.023 295.788 281.136C296.009 281.248 296.253 281.306 296.5 281.305C296.747 281.304 296.99 281.243 297.21 281.129C297.429 281.014 297.618 280.849 297.76 280.647L298.517 279.561C298.946 278.948 299.173 278.217 299.164 277.47C299.155 276.723 298.912 275.998 298.468 275.399L295.563 271.42C295.417 271.219 295.333 270.978 295.322 270.729C295.312 270.48 295.375 270.233 295.504 270.019C295.633 269.806 295.822 269.635 296.047 269.528C296.273 269.421 296.524 269.383 296.771 269.419C298.683 269.695 300.429 270.383 302.007 271.481C302.078 271.531 302.161 271.559 302.248 271.562C302.334 271.566 302.419 271.544 302.494 271.501C302.568 271.457 302.629 271.393 302.668 271.316C302.707 271.239 302.723 271.152 302.715 271.067L302.007 262.499C301.202 257.019 303.203 250.795 309.025 249.44C313.357 248.439 318.581 251.49 318.996 256.336C319.191 258.541 319.309 260.782 319.35 263.06Z" fill="#FEFEFE"/>
<path d="M224.997 250.416C225.021 250.937 224.419 251.36 223.19 251.686C222.32 251.922 221.966 252.333 222.129 252.918C221.836 252.3 221.722 251.596 221.787 250.807C221.811 250.449 222.006 250.278 222.373 250.294L224.997 250.416Z" fill="#B20957"/>
<path d="M283.31 255.005L296.882 255.249C297.535 255.264 298.161 255.511 298.646 255.945C299.132 256.379 299.446 256.972 299.53 257.617L300.165 262.365C300.181 262.479 300.226 262.58 300.299 262.67C300.413 262.792 300.486 262.93 300.519 263.085C300.519 263.109 300.523 263.109 300.531 263.085C300.547 262.979 300.576 262.873 300.616 262.767C300.641 262.711 300.681 262.698 300.738 262.731C301.406 263.04 301.829 262.963 302.008 262.499L302.716 271.067C302.724 271.152 302.708 271.239 302.669 271.316C302.629 271.393 302.569 271.457 302.495 271.501C302.42 271.544 302.335 271.566 302.248 271.562C302.162 271.559 302.079 271.531 302.008 271.481C300.429 270.383 298.684 269.696 296.772 269.419C296.525 269.383 296.273 269.421 296.048 269.528C295.822 269.635 295.633 269.806 295.505 270.019C295.376 270.233 295.312 270.48 295.323 270.729C295.334 270.978 295.417 271.219 295.564 271.42L298.468 275.399C298.912 275.998 299.156 276.723 299.165 277.47C299.174 278.217 298.947 278.948 298.517 279.561L297.761 280.647C297.618 280.849 297.43 281.015 297.21 281.129C296.991 281.243 296.748 281.304 296.5 281.305C296.253 281.306 296.009 281.248 295.789 281.136C295.569 281.023 295.378 280.86 295.234 280.659L292.329 276.583C292.071 276.223 291.682 275.978 291.243 275.899C290.137 275.712 289.16 275.879 288.314 276.4C284.043 273.837 280.32 270.904 277.147 267.6C276.895 267.332 276.879 267.055 277.098 266.771C279.824 263.28 281.895 259.358 283.31 255.005Z" fill="#FFA828"/>
<path d="M211.828 278.609C212.479 279.471 213.162 280.069 213.878 280.403C214.269 280.59 214.627 280.541 214.952 280.256C216.474 278.89 218.211 277.893 220.164 277.266C225.033 277.071 229.049 280.293 233.125 282.746C232.856 282.502 232.922 282.592 233.32 283.015C233.955 287.457 229.903 293.596 224.887 292.717C222.141 292.241 219.407 289.202 217.198 287.213C217.083 287.107 216.946 287.028 216.797 286.98C216.648 286.932 216.491 286.917 216.336 286.935C216.18 286.954 216.031 287.006 215.897 287.087C215.764 287.169 215.65 287.278 215.563 287.408C214.318 289.276 211.535 291.436 214.574 293.645C217.82 296.037 218.553 301.029 215.465 303.909C212.389 304.69 207.849 301.285 206.812 299.051C205.453 296.131 204.697 293.031 204.542 289.752C204.518 289.312 204.294 289.145 203.871 289.251C202.748 289.544 201.686 290.036 200.685 290.728L197.732 291.79C196.707 292.083 194.913 292.408 192.35 292.766C181.939 294.206 181.561 282.954 190.824 281.318C193.948 280.773 196.93 281.518 199.77 283.552C199.898 283.643 200.046 283.704 200.201 283.73C200.357 283.756 200.517 283.745 200.669 283.699C200.821 283.653 200.96 283.573 201.077 283.465C201.194 283.357 201.286 283.224 201.344 283.076C201.491 282.71 201.739 282.49 202.089 282.417C202.512 282.327 202.878 282.433 203.187 282.734C204.53 284.064 206.617 285.236 206.043 287.408C205.937 287.823 206.092 287.978 206.507 287.872C208.012 287.498 208.618 286.635 208.325 285.285C207.373 280.903 202.907 280.513 200.185 278.938C197.768 277.547 195.6 275.879 193.68 273.934C190.726 269.907 188.066 264.635 191.886 260.534C192.146 260.249 192.472 260.078 192.862 260.021C194.656 259.802 196.389 259.802 197.964 260.888C202.382 263.927 204.554 264.354 202.028 271.176C201.662 272.161 201.959 272.856 202.919 273.263L203.492 273.507C203.737 273.615 204.016 273.619 204.268 273.518C204.519 273.418 204.723 273.221 204.835 272.97C205.982 270.407 207.044 268.048 208.02 265.892C209.668 262.255 219.932 263.109 221.372 263.475C223.512 264.02 224 265.395 222.837 267.6C220.103 272.824 218.443 272.055 213.146 272.714C212.768 272.762 212.418 272.939 212.158 273.214C210.612 274.891 210.502 276.689 211.828 278.609Z" fill="#FEFEFE"/>
<path d="M317.446 268.076C323.906 267.198 329.919 267.775 335.484 269.809C335.959 269.982 336.37 270.294 336.664 270.706C336.958 271.118 337.121 271.609 337.132 272.116L337.242 278.023C336.664 279.219 335.399 279.203 333.446 277.974L331.005 275.362C330.396 274.698 329.545 274.303 328.638 274.264L321.937 273.971C321.281 273.942 320.631 274.096 320.06 274.415C319.488 274.735 319.019 275.206 318.703 275.777L317.483 278.011C317.384 278.189 317.247 278.341 317.082 278.456C316.916 278.57 316.728 278.643 316.531 278.67C311.673 279.378 310.245 274.667 313.272 271.384C314.956 269.553 316.348 268.451 317.446 268.076Z" fill="#FFA828"/>
<path d="M189.909 271.298C190.226 271.664 190.515 271.872 190.776 271.921C190.963 272.401 190.987 272.767 190.849 273.019C190.751 273.223 190.483 273.337 190.043 273.361C185.894 273.617 180.975 272.482 177.57 275.533C179.287 272.515 182.94 271.847 188.53 273.532C188.744 273.595 188.972 273.601 189.189 273.548C189.406 273.496 189.605 273.387 189.766 273.232C189.926 273.078 190.042 272.884 190.102 272.671C190.161 272.458 190.162 272.232 190.104 272.018L189.909 271.298Z" fill="#B20957"/>
<path d="M190.775 271.921C191.67 272.791 192.638 273.463 193.68 273.934C195.6 275.879 197.768 277.547 200.185 278.938C202.907 280.513 207.373 280.903 208.325 285.285C208.618 286.635 208.012 287.498 206.507 287.872C206.092 287.978 205.937 287.823 206.043 287.408C206.617 285.236 204.53 284.064 203.187 282.734C202.878 282.433 202.512 282.327 202.089 282.417C201.739 282.49 201.491 282.71 201.344 283.076C201.286 283.224 201.194 283.357 201.077 283.465C200.96 283.573 200.821 283.653 200.669 283.699C200.517 283.745 200.357 283.756 200.201 283.73C200.046 283.704 199.898 283.643 199.77 283.552C196.93 281.518 193.948 280.773 190.824 281.318C181.561 282.954 181.939 294.206 192.35 292.766C194.913 292.408 196.707 292.083 197.732 291.79C192.541 299.145 186.707 301.012 180.231 297.392C174.958 294.45 176.618 291.509 176.63 286.786C176.646 282.946 176.96 279.195 177.57 275.533C180.975 272.482 185.893 273.617 190.043 273.361C190.482 273.336 190.751 273.223 190.849 273.019C190.987 272.767 190.962 272.401 190.775 271.921Z" fill="#FFB923"/>
<path d="M213.695 275.863C216.738 275.35 218.895 275.818 220.164 277.266C218.211 277.893 216.474 278.89 214.952 280.256C214.627 280.541 214.269 280.59 213.878 280.403C213.162 280.069 212.479 279.471 211.828 278.609C211.958 277.063 212.581 276.148 213.695 275.863Z" fill="#B20957"/>
<path d="M333.446 277.974C335.399 279.203 336.664 279.219 337.242 278.023L337.229 311.378C337.231 311.865 337.048 312.335 336.717 312.692C336.387 313.05 335.933 313.269 335.448 313.306C330.379 313.705 325.342 313.506 320.338 312.708C320.138 312.676 319.933 312.702 319.749 312.782C319.565 312.862 319.409 312.993 319.301 313.16C317.922 315.332 317.458 318.896 313.821 318.115C307.572 316.76 299.456 313.843 299.212 306.374C299.172 305.064 299.44 301.948 300.018 297.025C300.408 295.024 300.774 293.12 298.785 292.022C300.506 289.91 302.52 290.032 305.376 290.069C305.766 290.069 305.982 289.878 306.022 289.495L306.45 286.054C306.471 285.884 306.446 285.713 306.377 285.558C306.308 285.403 306.198 285.27 306.059 285.175C305.164 284.557 304.261 283.999 303.35 283.503C302.682 283.145 302.263 282.762 302.093 282.356C301.767 281.615 301.987 280.948 302.752 280.354C303.394 279.858 304.102 279.736 304.875 279.988C308.39 281.123 311.685 284.26 310.953 288.092C310.074 292.656 305.449 292.034 302.166 292.925C301.775 293.031 301.56 293.283 301.519 293.681C300.286 305.19 307.963 309.218 317.592 311.744C317.657 311.761 317.724 311.763 317.79 311.75C317.855 311.736 317.916 311.707 317.968 311.666C318.021 311.624 318.062 311.571 318.09 311.51C318.118 311.45 318.132 311.384 318.129 311.317C318.056 308.184 317.698 305.08 317.055 302.005C315.981 296.867 314.004 285.285 321.962 284.174C326.827 283.499 331.168 284.784 334.984 288.031C335.131 288.154 335.308 288.236 335.497 288.268C335.686 288.301 335.881 288.283 336.06 288.216C336.24 288.149 336.399 288.036 336.521 287.887C336.642 287.739 336.723 287.561 336.753 287.372C337.307 283.841 336.204 280.708 333.446 277.974Z" fill="#FFB923"/>
<path d="M282.712 280.012C279.482 283.007 278.001 286.513 278.269 290.533C278.294 290.923 278.448 291.253 278.733 291.521C285.092 297.538 292.085 299.906 298.785 292.022C300.774 293.12 300.408 295.024 300.018 297.026L299.688 295.964C299.665 295.891 299.623 295.826 299.566 295.775C299.509 295.725 299.44 295.69 299.365 295.675C299.291 295.66 299.213 295.666 299.141 295.691C299.069 295.716 299.005 295.759 298.956 295.817C297.174 297.99 295.697 299.967 293.171 301.395C286.91 304.934 280.161 307.68 276.744 314.637C270.641 327.049 274.071 342.219 287.618 347.833C288.098 348.028 288.301 347.87 288.228 347.357C287.634 342.866 287.227 338.265 287.008 333.554C286.812 329.124 289.363 325.255 294.147 326.341C302.141 328.159 304.839 333.297 307.255 340.608C307.32 340.804 307.431 340.982 307.581 341.125C307.73 341.268 307.913 341.371 308.112 341.427C308.311 341.482 308.521 341.488 308.723 341.443C308.924 341.398 309.112 341.304 309.269 341.169C312.751 338.143 316.518 335.45 320.57 333.09C325.33 330.32 330.407 330.49 335.692 330.722C336.101 330.741 336.486 330.919 336.766 331.217C337.047 331.516 337.2 331.912 337.193 332.321L336.802 352.764C336.795 353.284 336.602 353.785 336.257 354.175C335.912 354.564 335.438 354.817 334.923 354.887L317.861 357.279C316.396 356.807 314.704 356.706 312.784 356.974C311.405 357.157 310.428 356.633 310.038 355.339C309.81 354.566 310.013 353.935 310.648 353.447C312.674 351.885 313.894 351.287 316.665 351.592C323.426 352.337 327.759 352.654 328.723 344.416C329.309 339.436 326.294 339.449 322.242 339.302C315.318 339.05 310.278 342.077 307.121 348.382C306.909 348.814 306.657 349.078 306.364 349.176C305.941 349.338 305.538 349.265 305.156 348.956C303.618 347.711 304.704 339.68 303.276 337.093C301.055 333.078 294.013 331.357 291.157 336.275C289.05 339.92 289.038 343.285 291.121 346.369C293.012 349.176 297.113 354.326 300.896 355.363C302.19 355.717 303.533 355.168 304.875 355.241C304.99 355.245 305.101 355.277 305.201 355.333C305.301 355.389 305.386 355.468 305.45 355.563C305.513 355.659 305.552 355.768 305.565 355.882C305.578 355.995 305.563 356.111 305.522 356.218C300.958 368.227 290.706 346.698 283.883 359.44C280.661 365.444 282.102 370.814 289.449 371.717C293.387 372.197 295.897 372.279 296.979 371.961C301.804 370.546 304.175 367.377 304.094 362.454C304.093 362.334 304.124 362.215 304.183 362.11C304.243 362.005 304.329 361.918 304.433 361.858C304.537 361.797 304.656 361.765 304.776 361.765C304.896 361.764 305.015 361.796 305.119 361.856C308.927 364.045 311.022 367.316 311.405 371.669C311.486 372.612 312.149 374.101 313.394 376.135C314.883 378.564 317.263 379.467 319.887 378.918C322.987 378.251 324.964 376.42 325.818 373.426L335.484 372.218C335.665 372.197 335.848 372.214 336.021 372.27C336.194 372.325 336.354 372.416 336.488 372.538C336.622 372.659 336.728 372.808 336.799 372.974C336.871 373.14 336.905 373.319 336.9 373.499L336.546 387.461C336.54 387.73 336.429 387.986 336.238 388.175C336.047 388.364 335.79 388.471 335.521 388.474L291.243 388.767C290.795 388.767 290.49 388.556 290.327 388.132C288.851 384.227 289.168 381.969 288.936 378.479C288.46 371.034 275.938 367.165 274.205 376.526C273.823 378.568 274.246 382.201 275.474 387.425C275.516 387.606 275.518 387.794 275.478 387.976C275.438 388.158 275.359 388.328 275.245 388.475C275.132 388.621 274.987 388.74 274.822 388.822C274.656 388.904 274.475 388.948 274.291 388.95L267.029 389.036C265.743 389.052 265.101 388.421 265.101 387.144L265.332 278.731C265.331 278.652 265.351 278.575 265.391 278.508C265.431 278.441 265.49 278.386 265.561 278.349C265.631 278.312 265.711 278.296 265.791 278.301C265.872 278.306 265.949 278.332 266.016 278.377L274.803 284.321C275.109 284.526 275.453 284.669 275.815 284.739C276.177 284.809 276.549 284.806 276.909 284.73C277.269 284.653 277.609 284.505 277.91 284.295C278.211 284.084 278.466 283.815 278.66 283.503C279.587 282.014 280.938 280.85 282.712 280.012Z" fill="#FE2453"/>
<path d="M233.32 283.015L235.639 284.125C235.728 284.166 235.716 284.219 235.602 284.284C235.578 284.3 235.549 284.321 235.517 284.345C235.452 284.394 235.431 284.455 235.456 284.528C236.204 286.652 235.7 288.352 233.942 289.63C233.601 289.882 233.466 290.219 233.54 290.643C233.922 292.62 233.841 294.503 233.296 296.293C229.829 297.282 223.959 300.211 220.554 299.564C220.139 299.483 219.862 299.243 219.724 298.844C218.837 296.33 217.385 294.21 215.367 292.485C215.074 292.233 214.883 292.294 214.793 292.669L214.574 293.645C211.535 291.436 214.317 289.276 215.562 287.408C215.65 287.278 215.764 287.169 215.897 287.087C216.03 287.006 216.18 286.954 216.335 286.935C216.49 286.917 216.648 286.932 216.797 286.98C216.946 287.028 217.082 287.107 217.198 287.213C219.407 289.202 222.141 292.241 224.887 292.717C229.903 293.596 233.955 287.457 233.32 283.015Z" fill="#FFB923"/>
<path d="M215.465 303.909C211.682 310.548 205.372 311.158 200.881 304.873C200.659 304.556 200.543 304.18 200.551 303.799L200.685 290.728C201.686 290.036 202.748 289.544 203.871 289.251C204.294 289.145 204.518 289.312 204.542 289.752C204.697 293.031 205.453 296.131 206.812 299.052C207.849 301.285 212.39 304.69 215.465 303.909Z" fill="#FFB923"/>
<path d="M225.204 360.306C228.679 363.317 230.753 366.482 231.429 369.801C232.047 376.009 229.777 380.069 224.618 381.981C221.677 383.068 219.358 381.603 216.954 380.041C216.776 379.929 216.623 379.784 216.504 379.614C216.384 379.444 216.301 379.253 216.258 379.052C215.868 377.116 215.746 374.752 215.892 371.961C216.051 368.678 212.56 367.763 210.705 365.798C210.388 365.456 210.111 365.489 209.875 365.896C207.613 369.769 206.043 373.898 205.164 378.283C205.075 378.723 204.806 378.975 204.359 379.04C190.507 381.017 185.771 365.469 197.476 358.72C199.241 357.703 199.111 357.113 197.085 356.95C194.095 356.706 189.25 357.719 186.736 355.546C186.451 355.294 186.329 354.985 186.369 354.619C186.703 351.755 187.757 349.965 189.53 349.249C193.18 347.772 203.224 346.796 204.762 351.482C204.9 351.897 205.164 352.194 205.555 352.373L208.167 353.52C209.42 354.074 209.611 353.821 208.74 352.764C203.749 346.661 201.259 342.317 193.338 337.13C189.909 334.884 190.971 331.027 191.349 327.72C191.376 327.484 191.482 327.265 191.651 327.099C191.82 326.932 192.041 326.828 192.276 326.805C196.853 326.329 203.7 324.986 207.361 328.245C211.621 332.016 212.988 342.707 213.024 348.321C213.023 348.429 213.049 348.535 213.099 348.63C213.15 348.725 213.224 348.806 213.315 348.865C213.406 348.924 213.511 348.96 213.62 348.97C213.729 348.979 213.839 348.962 213.939 348.919C214.257 348.781 214.485 348.521 214.623 348.138C215.681 345.185 216.718 343.175 217.735 342.109C220.274 339.449 232.259 339.851 235.981 340.132C236.122 340.144 236.258 340.188 236.38 340.259C236.502 340.331 236.606 340.428 236.686 340.545C236.765 340.662 236.818 340.795 236.839 340.935C236.861 341.074 236.851 341.217 236.811 341.352C235.127 347.015 234.626 353.74 226.791 353.581C222.202 353.492 218.065 354.192 214.379 355.681C214.013 355.835 213.838 356.112 213.854 356.511L213.878 356.974C213.911 357.519 214.2 357.784 214.745 357.768C218.707 357.621 222.194 358.467 225.204 360.306Z" fill="#FEFEFE"/>
<path d="M317.861 357.279C324.443 360.99 327.096 366.372 325.818 373.426C324.964 376.42 322.987 378.251 319.887 378.918C317.263 379.467 314.883 378.564 313.394 376.135C312.149 374.101 311.486 372.612 311.405 371.669C311.022 367.316 308.927 364.045 305.12 361.856C305.015 361.796 304.897 361.764 304.776 361.765C304.656 361.765 304.538 361.797 304.433 361.858C304.329 361.918 304.243 362.005 304.184 362.11C304.124 362.215 304.093 362.334 304.094 362.454C304.176 367.377 301.804 370.546 296.979 371.961C295.897 372.279 293.387 372.197 289.449 371.717C282.102 370.814 280.662 365.444 283.884 359.44C290.706 346.698 300.958 368.227 305.522 356.218C305.563 356.111 305.578 355.995 305.565 355.882C305.553 355.768 305.513 355.659 305.45 355.563C305.387 355.468 305.302 355.389 305.202 355.333C305.102 355.277 304.99 355.245 304.875 355.241C303.533 355.168 302.19 355.717 300.897 355.363C297.113 354.326 293.013 349.176 291.121 346.369C289.038 343.285 289.05 339.92 291.158 336.275C294.013 331.357 301.055 333.078 303.277 337.093C304.705 339.68 303.618 347.711 305.156 348.956C305.539 349.265 305.941 349.338 306.364 349.176C306.657 349.078 306.91 348.813 307.121 348.382C310.278 342.077 315.318 339.05 322.243 339.302C326.294 339.449 329.309 339.436 328.723 344.416C327.759 352.654 323.426 352.337 316.665 351.592C313.895 351.287 312.674 351.885 310.648 353.447C310.014 353.935 309.81 354.566 310.038 355.339C310.429 356.633 311.405 357.157 312.784 356.974C314.704 356.706 316.397 356.807 317.861 357.279Z" fill="#FEFEFE"/>
<path d="M148.792 201.061C152.599 201.549 155.748 200.854 158.043 205.138C158.23 205.487 158.275 205.854 158.177 206.236C157.794 207.741 157.152 209.132 156.249 210.41C155.98 210.784 155.622 211.008 155.175 211.081C152.335 211.52 149.8 210.914 147.571 209.263C147.221 208.994 147.046 208.64 147.046 208.201V205.943C147.046 205.439 146.802 205.109 146.314 204.954C141.615 203.441 140.322 200.256 138.662 195.984C138.515 195.618 138.511 195.252 138.65 194.886C139.504 192.656 140.948 190.903 142.982 189.626C143.133 189.528 143.305 189.469 143.484 189.454C143.663 189.439 143.843 189.469 144.007 189.54C150.757 192.481 148.364 194.642 148.206 200.39C148.198 200.789 148.393 201.012 148.792 201.061Z" fill="#FEFEFE"/>
<path d="M137.734 211.435C138.662 213.786 138.877 216.187 138.381 218.636C138.329 218.901 138.22 219.152 138.061 219.371C137.903 219.591 137.698 219.773 137.462 219.906C137.225 220.04 136.963 220.121 136.692 220.143C136.421 220.166 136.148 220.131 135.891 220.039C133.06 219.014 128.752 213.913 132.352 211.594C134.158 210.422 135.741 210.145 137.099 210.764C137.389 210.897 137.616 211.137 137.734 211.435Z" fill="#FEFEFE"/>
<path d="M222.918 218.965C222.949 219.245 222.911 219.531 222.806 219.804C222.701 220.078 222.531 220.335 222.307 220.561C222.082 220.786 221.806 220.976 221.496 221.119C221.185 221.261 220.846 221.355 220.497 221.393C220.148 221.432 219.797 221.415 219.462 221.343C219.128 221.271 218.818 221.146 218.549 220.975C218.281 220.804 218.059 220.591 217.897 220.346C217.735 220.102 217.636 219.832 217.605 219.552C217.574 219.271 217.612 218.986 217.717 218.712C217.822 218.438 217.991 218.181 218.216 217.956C218.441 217.73 218.716 217.541 219.027 217.398C219.337 217.255 219.677 217.162 220.026 217.123C220.375 217.085 220.726 217.102 221.06 217.173C221.394 217.245 221.705 217.37 221.973 217.541C222.242 217.712 222.464 217.926 222.626 218.17C222.788 218.415 222.887 218.685 222.918 218.965Z" fill="#FE2453"/>
<path d="M228.373 227.758C228.418 228.117 228.367 228.485 228.224 228.84C228.08 229.195 227.846 229.531 227.536 229.828C227.226 230.124 226.845 230.376 226.415 230.57C225.986 230.763 225.516 230.893 225.032 230.953C224.549 231.014 224.061 231.003 223.598 230.921C223.134 230.839 222.703 230.688 222.329 230.476C221.956 230.264 221.647 229.996 221.421 229.687C221.194 229.378 221.055 229.034 221.01 228.675C220.965 228.315 221.016 227.948 221.16 227.592C221.303 227.237 221.537 226.902 221.847 226.605C222.157 226.308 222.538 226.056 222.968 225.863C223.397 225.67 223.867 225.539 224.351 225.479C224.834 225.419 225.322 225.43 225.786 225.512C226.249 225.594 226.68 225.745 227.054 225.957C227.428 226.168 227.736 226.436 227.963 226.745C228.189 227.054 228.329 227.398 228.373 227.758Z" fill="#FE2453"/>
<path d="M206.946 360.916C206.867 361.177 206.701 361.404 206.474 361.559C206.248 361.714 205.976 361.789 205.701 361.771C204.782 361.714 204.118 361.238 203.712 360.343C203.575 360.04 203.55 359.699 203.642 359.381C203.734 359.063 203.936 358.789 204.212 358.61L207.19 356.645C207.289 356.579 207.405 356.545 207.524 356.548C207.642 356.551 207.757 356.591 207.852 356.662C207.947 356.733 208.017 356.832 208.054 356.944C208.091 357.057 208.092 357.178 208.056 357.292L206.946 360.916Z" fill="#FE2453"/>
<path d="M293.403 362.967C293.492 363.044 293.552 363.15 293.574 363.266C293.595 363.382 293.577 363.502 293.522 363.606C293.467 363.711 293.378 363.793 293.27 363.841C293.162 363.889 293.042 363.899 292.927 363.87C292.773 363.829 292.63 363.74 292.5 363.601C292.313 363.414 292.394 363.134 292.744 362.759C292.874 362.621 293.094 362.69 293.403 362.967Z" fill="#FE2453"/>
</svg>
