<svg width="1024" height="1024" viewBox="0 0 1024 1024" fill="none" xmlns="http://www.w3.org/2000/svg">
<rect width="1024" height="1024" fill="white"/>
<path d="M526.247 651.274C532.671 639.148 545.747 634.666 556.971 643.08C566.77 650.424 575.862 658.792 584.245 668.184C584.476 668.437 584.787 668.602 585.124 668.65C585.46 668.698 585.802 668.626 586.089 668.446C595.953 662.296 609.778 667.522 616.275 675.612C618.74 678.68 619.511 682.437 620.034 686.234C620.088 686.61 620.25 686.963 620.501 687.248C620.751 687.534 621.079 687.74 621.445 687.843C621.811 687.945 622.199 687.939 622.561 687.825C622.924 687.71 623.245 687.493 623.486 687.2C624.422 686.054 625.727 685.004 627.402 684.052C651.255 670.472 677.213 665.668 705.274 669.639C737.15 674.162 762.98 690.226 782.472 714.704C789.155 723.1 794.116 732.839 797.355 743.923C797.879 745.686 799.179 747.032 801.067 747.609C811.159 750.693 821.401 753.151 831.791 754.982C833.581 755.303 835.258 756.292 836.824 757.95C841.414 762.821 840.714 768.915 835.073 773.021C830.209 776.567 805.4 770.737 798.537 769.551C798.356 769.513 798.166 769.543 798.006 769.637C797.845 769.73 797.725 769.88 797.669 770.057L794.641 778.9C794.557 779.14 794.636 779.288 794.878 779.345C811.764 783.912 825.191 788.367 835.16 792.711C845.672 797.299 841.062 813.763 829.602 811.136C817.217 808.318 802.837 803.423 786.462 796.45C784.657 795.682 783.335 796.18 782.495 797.943L781.946 799.107C781.106 800.871 781.544 802.214 783.26 803.136C799.802 812.028 814.785 820.425 828.211 828.327C831.448 830.224 833.563 832.034 834.555 833.759C837.953 839.628 832.492 847.662 825.968 847.742C823.914 847.762 821.235 846.846 817.931 844.993C803.348 836.793 788.751 828.414 774.142 819.856C772.297 818.777 770.725 819.089 769.426 820.793L766.452 824.732C765.112 826.508 765.343 828.054 767.148 829.37C770.237 831.606 774.609 832.938 777.87 834.841C788.956 841.31 799.996 847.834 810.99 854.415C814.806 856.687 817.242 858.676 818.3 860.383C824.481 870.265 813.26 879.478 803.683 874.052C794.696 868.959 779.286 859.329 757.454 845.161C756.242 844.365 755.297 844.601 754.619 845.869L753.55 847.863C752.79 849.275 753.033 850.492 754.28 851.514C765.481 860.716 775.676 870.735 786.551 880.181C795.56 888.015 788.303 901.51 776.914 896.375C774.521 895.295 771.062 892.606 766.538 888.307C759.21 881.362 752.023 874.765 744.977 868.517C743.871 867.536 742.82 867.587 741.825 868.671L738.324 872.491C737.186 873.726 737.197 874.952 738.358 876.171C744.198 882.298 749.84 888.723 755.282 895.443C760.087 901.405 762.2 909 753.287 912.862C748.044 915.14 745.015 913.227 741.225 909.106C734.08 901.32 726.982 893.5 719.932 885.645C719.528 885.206 719.034 885.052 718.452 885.182C689.092 891.771 661.223 887.265 634.844 871.665C630.246 868.942 623.719 863.673 615.262 855.856C605.606 846.936 597.69 836.84 591.515 825.57C581.395 807.121 578.446 785.8 578.066 764.48C578.029 762.717 577.172 762.099 575.497 762.627C562.301 766.71 547.497 761.185 544.727 746.712C544.286 744.388 543.716 742.585 543.017 741.304C542.716 740.732 542.248 740.367 541.614 740.206C527.55 736.474 515.325 732.418 504.938 728.039C503.366 727.378 500.66 725.404 499.377 723.779C492.85 715.541 492.699 707.029 498.923 698.243C499.043 698.07 499.126 697.875 499.167 697.669C499.207 697.464 499.205 697.252 499.161 697.049C499.116 696.845 499.029 696.653 498.906 696.486C498.783 696.318 498.627 696.178 498.447 696.076C422.387 651.71 346.453 607.781 270.645 564.287C266.104 561.679 262.892 558.967 261.008 556.152C249.438 538.861 263.418 514.933 284.003 515.753C287.357 515.88 291.504 517.377 296.444 520.242C372.453 564.387 448.662 608.173 525.07 651.602C525.584 651.899 525.976 651.789 526.247 651.274Z" fill="#030108"/>
<path d="M714.392 730.286L720.049 721.13" stroke="#FEC398" stroke-width="2"/>
<path d="M741.793 781.992C741.784 781.699 741.439 781.287 740.758 780.757" stroke="#9B9096" stroke-width="2"/>
<path d="M702.452 756.132C702.467 752.877 703.526 749.047 705.631 744.641" stroke="#FEC398" stroke-width="2"/>
<path d="M734.264 711.754L740.531 703.856" stroke="#FEC398" stroke-width="2"/>
<path d="M599.235 706.658L590.276 695.213" stroke="#FEC398" stroke-width="2"/>
<path d="M477.375 661.905L485.123 666.152C485.558 666.392 486.057 666.492 486.551 666.439C487.045 666.386 487.511 666.182 487.886 665.855C490.041 663.974 491.683 661.165 492.812 657.43" stroke="#483441" stroke-width="2"/>
<path d="M735.525 809.056C705.426 793.749 676.45 776.567 648.598 757.511C643.31 753.883 637.977 748.48 632.258 744.993C625.305 740.745 625.694 739.976 633.426 742.685C641.229 745.436 650.576 749.324 661.466 754.35C670.711 758.618 691.692 770.341 724.409 789.518C728.459 791.884 731.973 794.145 734.95 796.303C738.345 798.757 750.351 804.784 746.37 810.361C745.743 811.241 744.818 811.863 743.766 812.111C742.715 812.359 741.61 812.217 740.656 811.71C739.078 810.881 737.367 809.997 735.525 809.056Z" fill="#FF8634"/>
<path d="M717.676 853.043C671.155 846.173 632.666 819.407 606.418 779.739C605.423 778.232 603.78 774.548 601.488 768.687C601.404 768.472 601.405 768.234 601.491 768.02C601.576 767.805 601.74 767.632 601.948 767.534L602.342 767.35C602.605 767.228 602.806 767.295 602.945 767.554C604.92 771.327 607.38 774.796 610.323 777.963C625.455 794.247 641.717 809.003 660.451 821.115C672.694 829.047 683.934 835.118 694.171 839.328C697.893 840.86 707.402 843.601 722.698 847.552C722.967 847.619 723.215 847.754 723.419 847.942C723.622 848.13 723.775 848.367 723.862 848.629C723.949 848.891 723.968 849.17 723.917 849.44C723.866 849.71 723.746 849.963 723.57 850.173L722.888 851.034C721.533 852.692 719.796 853.362 717.676 853.043Z" fill="#EA5516"/>
<path d="M714.393 730.286L720.049 721.13C735.743 728.45 749.105 738.66 760.133 751.759C763.429 755.691 766.29 758.988 768.715 761.649C769.584 762.602 770.15 763.793 770.342 765.071C770.534 766.349 770.342 767.658 769.792 768.831L769.418 769.623C768.175 772.25 766.572 772.497 764.61 770.363C749.738 754.127 733.998 741.317 714.393 730.286Z" fill="#FDFFFC"/>
<path d="M741.793 781.992C741.784 781.699 741.439 781.287 740.758 780.757C728.932 771.818 716.164 763.61 702.452 756.132C702.467 752.877 703.526 749.047 705.631 744.641C726.128 753.925 743.584 767.088 757.998 784.13C759.38 785.75 759.536 787.485 758.468 789.336L757.72 790.632C756.562 792.637 755.091 792.905 753.307 791.436L741.793 781.992Z" fill="#FDFFFC"/>
<path d="M734.238 825.568C734.604 825.696 734.936 825.904 735.211 826.178C735.486 826.451 735.696 826.782 735.826 827.147C735.957 827.512 736.004 827.902 735.964 828.287C735.925 828.673 735.799 829.045 735.597 829.376L735.155 830.107C733.8 832.286 731.867 833.131 729.353 832.639C681.984 823.285 635.247 788.898 608.338 748.416C606.683 745.939 607.253 745.213 610.049 746.237C610.262 746.319 610.925 746.928 612.037 748.064C617.469 753.64 623.231 758.846 629.325 763.68C655.654 784.543 683.872 802.466 713.98 817.45C718.773 819.833 725.526 822.539 734.238 825.568Z" fill="#FF8634"/>
<path d="M734.263 711.754L740.53 703.856C756.202 713.069 768.309 725.2 776.853 740.251C778.078 742.439 778.896 745.297 778.654 747.604C778.444 749.512 777.667 749.777 776.324 748.398C772.933 744.891 769.905 741.648 767.238 738.669C757.645 727.975 746.653 719.004 734.263 711.754Z" fill="#FDFFFC"/>
<path d="M608.112 809.611C605.288 803.484 605.892 803.126 609.924 808.539C615.949 816.624 623.974 824.774 633.997 832.988C650.728 846.705 669.548 856.33 690.456 861.862C694.541 862.945 705.018 864.531 708.069 866.478C710.082 867.764 709.891 868.414 707.497 868.43C689.559 868.439 672.332 866.575 655.924 858.377C633.944 847.387 618.007 831.131 608.112 809.611Z" fill="#EA5516"/>
<path d="M741.793 781.992C739.515 781.308 737.646 780.222 736.188 778.735C735.39 777.932 735.539 777.675 736.633 777.964C737.926 778.313 739.301 779.244 740.758 780.757C741.439 781.287 741.784 781.699 741.793 781.992Z" fill="#382030"/>
<path d="M740.53 703.856L734.263 711.754C720.599 705.038 709.7 701.048 697.953 696.816C689.941 693.918 682.189 692.918 674.044 691.958C673.585 691.899 673.366 691.636 673.389 691.169L673.418 690.692C673.427 690.533 673.506 690.455 673.655 690.459C678.524 690.432 683.394 690.344 688.265 690.195C706.612 689.62 725.21 693.633 740.53 703.856Z" fill="#FF8634"/>
<path d="M702.452 756.132C684.294 746.43 665.334 737.581 645.574 729.586C638.57 726.756 630.558 724.783 622.878 722.056C622.75 722.011 622.636 721.93 622.551 721.824C622.466 721.717 622.412 721.589 622.396 721.453C622.38 721.318 622.403 721.18 622.461 721.057C622.519 720.933 622.61 720.829 622.725 720.754C623.744 720.082 625.033 719.749 626.591 719.758C633.516 719.78 640.369 720.542 647.152 722.045C667.808 726.636 687.301 734.168 705.631 744.641C703.526 749.047 702.466 752.877 702.452 756.132Z" fill="#FF8634"/>
<path d="M720.048 721.13L714.392 730.286C698.75 722.543 682.569 716.149 665.849 711.103C657.479 708.573 648.013 707.16 639.114 705.333C637.874 705.083 637.748 704.564 638.737 703.778C639.497 703.175 640.66 702.846 642.227 702.791C668.522 701.808 696.29 710.703 720.048 721.13Z" fill="#FF8634"/>
<path d="M599.235 706.658L590.275 695.213C591.546 691.196 596.555 686.829 600.69 689.997C607.242 695.034 602.883 701.587 599.235 706.658Z" fill="#FDFFFC"/>
<path d="M590.275 695.213L599.235 706.658L579.843 739.677C577.657 743.391 574.697 744.184 570.963 742.056L569.597 741.288C569.038 740.971 568.547 740.546 568.153 740.039C567.759 739.532 567.469 738.952 567.299 738.333C567.129 737.713 567.084 737.066 567.165 736.429C567.246 735.792 567.452 735.177 567.771 734.619L590.275 695.213Z" fill="#FF8634"/>
<path d="M538.382 682.403L560.083 699.313C560.475 699.617 560.771 700.026 560.938 700.492C561.104 700.959 561.134 701.463 561.024 701.946C560.914 702.429 560.668 702.87 560.315 703.218C559.962 703.566 559.518 703.806 559.033 703.91C557.497 704.243 555.753 703.963 553.802 703.069C547.175 700.038 539.992 696.7 532.253 693.054C531.951 692.911 531.681 692.708 531.46 692.458C531.239 692.208 531.071 691.916 530.967 691.6C530.863 691.284 530.824 690.95 530.854 690.619C530.883 690.288 530.98 689.968 531.139 689.676L534.665 683.177C535.593 681.451 536.832 681.193 538.382 682.403Z" fill="#EA5516"/>
<path d="M546.758 720.184C537.251 718.603 528.361 715.574 520.086 711.099C519.571 710.828 519.453 710.438 519.734 709.929L521.977 705.794C522.127 705.527 522.368 705.323 522.654 705.219C522.941 705.116 523.254 705.121 523.534 705.234L549.705 715.757C549.954 715.858 550.168 716.027 550.323 716.244C550.479 716.461 550.568 716.718 550.581 716.983C550.645 718.295 550.266 719.248 549.444 719.843C548.844 720.264 547.949 720.378 546.758 720.184Z" fill="#EA5516"/>
<path d="M570.268 682.633L567.866 686.367C567.596 686.787 567.268 686.845 566.882 686.539L545.945 670.05C544.406 668.846 544.136 667.402 545.136 665.717L546.529 663.375C547.642 661.495 549.088 661.199 550.867 662.487C558.081 667.707 564.508 673.769 570.147 680.671C570.371 680.944 570.504 681.28 570.526 681.633C570.548 681.985 570.458 682.335 570.268 682.633Z" fill="#FDFFFC"/>
<path d="M477.374 661.905L485.123 666.152C485.558 666.392 486.056 666.493 486.551 666.44C487.045 666.386 487.511 666.183 487.885 665.856C490.041 663.974 491.683 661.166 492.812 657.43L511.267 669.134C511.673 669.392 512.006 669.749 512.234 670.172C512.462 670.595 512.578 671.069 512.57 671.548C512.562 672.027 512.431 672.496 512.189 672.908C511.947 673.32 511.602 673.662 511.188 673.901C510.119 674.518 509.174 675.288 508.353 676.212C508.005 676.601 507.577 676.724 507.07 676.582C499.928 674.597 493.381 670.406 486.897 667.424C483.599 665.917 480.425 664.078 477.374 661.905Z" fill="#382030"/>
<path d="M477.375 661.905L282.264 549.114C281.79 548.839 281.377 548.47 281.052 548.029C280.726 547.589 280.496 547.087 280.374 546.555C280.252 546.023 280.242 545.472 280.344 544.938C280.447 544.404 280.659 543.898 280.968 543.451L281.711 542.378C283.744 539.426 286.317 538.841 289.428 540.623L492.812 657.43C491.683 661.165 490.041 663.974 487.885 665.855C487.511 666.182 487.045 666.386 486.551 666.439C486.057 666.492 485.558 666.392 485.123 666.152L477.375 661.905Z" fill="#584751"/>
<path d="M490.014 268.342L527.575 279.598C527.689 279.634 527.808 279.646 527.926 279.635C528.045 279.623 528.159 279.588 528.264 279.532C528.368 279.475 528.461 279.399 528.535 279.306C528.61 279.213 528.665 279.107 528.697 278.993C531.387 269.91 535.323 258.956 543.764 254.344C550.14 250.853 557.27 250.538 565.154 253.4C579.176 258.493 610.308 269.078 658.549 285.155C673.628 290.189 679.529 300.786 676.252 316.946" stroke="#2E242D" stroke-width="2"/>
<path d="M676.252 316.946C673.842 319.76 672.578 322.924 672.459 326.438C672.43 327.348 672.707 328.241 673.247 328.974C673.786 329.707 674.556 330.238 675.433 330.481L720.599 343.108C720.736 343.147 720.88 343.151 721.019 343.121C721.157 343.091 721.287 343.028 721.396 342.937C721.504 342.845 721.589 342.729 721.643 342.598C721.696 342.466 721.717 342.323 721.703 342.182C719.495 320.798 718.379 299.29 718.355 277.657C718.337 267.933 717.66 257.995 717.554 248.182C717.542 247.562 717.301 246.969 716.876 246.518C716.451 246.067 715.874 245.79 715.256 245.742C705.9 245.029 697.897 241.912 691.248 236.391" stroke="#1E111C" stroke-width="2"/>
<path d="M691.248 236.391C685.347 232.746 681.263 228.484 678.995 223.604C673.385 211.529 685.015 199.115 696.448 207.557C698.087 208.768 700.284 211.404 703.038 215.465" stroke="#2E242D" stroke-width="2"/>
<path d="M703.038 215.465C703.204 215.94 703.792 216.439 704.801 216.961C708.808 219.08 717.874 223.569 721.578 218.742C732.798 204.138 742.63 194.841 761.063 189.391C797.644 178.599 826.621 191.867 854.547 215.305C856.34 216.813 856.791 216.486 855.9 214.325L846.906 192.383" stroke="#1E111C" stroke-width="2"/>
<path d="M846.907 192.383C842.371 184.001 836.262 174.229 828.58 163.068C824.793 157.559 820.762 153.255 816.487 150.156" stroke="#2E242D" stroke-width="2"/>
<path d="M846.906 192.383C843.701 191.315 839.889 189.522 835.473 187.005C812.444 173.861 783.521 169.319 757.643 176.711C739.317 181.947 722.718 191.137 710.714 206.168C708.233 209.267 705.674 212.366 703.038 215.465" stroke="#483441" stroke-width="2"/>
<path d="M691.248 236.391C691.806 263.011 693.486 289.417 696.288 315.61C696.32 315.897 696.288 316.187 696.195 316.46C696.102 316.734 695.951 316.984 695.751 317.194C695.551 317.404 695.308 317.569 695.038 317.676C694.768 317.784 694.477 317.833 694.187 317.818L676.252 316.946" stroke="#483441" stroke-width="2"/>
<path d="M490.014 268.343L527.575 279.598C527.689 279.634 527.808 279.646 527.926 279.635C528.044 279.623 528.159 279.588 528.264 279.532C528.368 279.476 528.461 279.399 528.535 279.306C528.609 279.214 528.665 279.107 528.697 278.993C531.386 269.91 535.322 258.957 543.764 254.344C550.14 250.853 557.27 250.539 565.154 253.4C579.176 258.494 610.308 269.079 658.549 285.155C673.628 290.189 679.529 300.786 676.252 316.946C673.842 319.76 672.577 322.924 672.459 326.438C672.429 327.348 672.707 328.241 673.246 328.974C673.786 329.707 674.556 330.238 675.433 330.481L720.599 343.108C720.735 343.147 720.879 343.151 721.018 343.121C721.157 343.091 721.286 343.028 721.395 342.937C721.504 342.846 721.589 342.729 721.643 342.598C721.696 342.466 721.717 342.324 721.703 342.182C719.495 320.799 718.378 299.29 718.355 277.657C718.337 267.933 717.66 257.995 717.553 248.182C717.542 247.562 717.3 246.969 716.876 246.518C716.451 246.067 715.873 245.79 715.256 245.742C705.9 245.029 697.897 241.913 691.248 236.392C685.347 232.746 681.263 228.484 678.995 223.604C673.385 211.529 685.014 199.115 696.448 207.557C698.087 208.768 700.284 211.404 703.038 215.465C703.204 215.94 703.792 216.439 704.801 216.961C708.808 219.08 717.874 223.568 721.578 218.742C732.798 204.138 742.63 194.841 761.063 189.391C797.644 178.598 826.621 191.867 854.547 215.305C856.34 216.813 856.791 216.486 855.9 214.325L846.906 192.383C842.371 184.001 836.262 174.229 828.58 163.068C824.792 157.559 820.762 153.255 816.487 150.156C815.579 148.713 815.294 147.538 814.029 146.167C800.114 131.052 783.741 119.387 764.91 111.17C745.853 102.871 725.835 97.0826 705.14 96.4236C665.869 95.1948 624.122 106.682 592.492 128.855C589.559 130.921 583.13 135.659 573.204 143.068C567.79 147.111 561.289 149.604 556.837 143.299C553.12 138.039 553.673 133.023 558.493 128.25C591.833 95.2126 637.284 77.3492 683.625 73.5379C780.369 65.5947 867.904 134.911 883.844 230.212C884.895 236.463 885.981 246.169 883.435 252.1C881.315 256.998 877.041 262.056 871.235 262.305C864.253 262.608 859.979 259.117 855.794 254.344C836.684 232.634 816.505 207.842 784.483 209.801C769.629 210.71 749.682 216.035 743.947 230.781C742.63 234.201 741.798 239.568 741.454 246.882C740.635 264.893 740.581 279.966 741.294 292.101C744.304 343.002 747.492 382.682 753.85 431.356C753.93 431.935 754.192 432.477 754.598 432.906C758.397 436.824 761.93 439.876 765.195 442.06C801.42 466.406 836.452 491.073 867.227 519.07C879.481 530.219 889.347 545.838 870.362 558.145C865.185 561.493 859.605 564.064 853.621 565.857C829.47 573.052 805.439 576.804 781.526 577.113C760.297 577.398 734.223 577.237 710.732 575.474C697.677 574.477 684.284 573.568 671.622 571.841C589.767 560.656 510.05 537.628 432.951 508.349C421.41 503.967 410.428 499.473 400.003 494.867C352.468 473.886 313.714 453.298 275.405 424.767C257.951 411.766 202.491 363.358 252.697 348.362C285.628 338.513 320.731 334.453 354.748 330.214C371.4 328.13 387.572 328.023 404.028 328.202C404.537 328.207 405.039 328.086 405.489 327.85C405.94 327.613 406.325 327.269 406.61 326.848C410.6 320.923 414.601 315.016 418.614 309.127C426.931 296.963 435.48 282.751 444.474 269.874C475.713 225.136 496.461 190.264 528.038 153.914C530.104 151.527 535.305 149.64 538.688 150.405C544.364 151.711 547.113 155.463 546.934 161.661C546.703 169.622 535.322 179.756 530.336 186.399C515.423 206.263 499.625 228.751 482.944 253.863C480.379 257.71 478.497 260.661 477.298 262.715C476.906 263.368 477.072 263.825 477.796 264.086L490.014 268.343Z" fill="#030108"/>
<path d="M816.487 150.156C820.762 153.255 824.793 157.559 828.58 163.068C836.262 174.229 842.371 184.001 846.907 192.383C843.701 191.315 839.89 189.522 835.473 187.005C812.444 173.861 783.521 169.32 757.643 176.711C739.317 181.947 722.718 191.137 710.714 206.168C708.233 209.267 705.674 212.366 703.038 215.465C700.284 211.404 698.087 208.768 696.449 207.557C685.015 199.116 673.385 211.529 678.995 223.604C681.263 228.484 685.347 232.747 691.248 236.392C691.806 263.011 693.486 289.418 696.288 315.61C696.32 315.897 696.288 316.187 696.195 316.461C696.102 316.734 695.951 316.984 695.751 317.194C695.551 317.404 695.308 317.569 695.038 317.677C694.768 317.784 694.477 317.833 694.187 317.818L676.252 316.946C679.529 300.786 673.628 290.189 658.549 285.155C610.308 269.079 579.176 258.494 565.154 253.4C557.27 250.539 550.14 250.853 543.764 254.344C535.323 258.957 531.387 269.91 528.697 278.993C528.665 279.107 528.61 279.214 528.535 279.306C528.461 279.399 528.368 279.476 528.264 279.532C528.159 279.589 528.045 279.624 527.926 279.635C527.808 279.646 527.689 279.634 527.575 279.598L490.014 268.343C504.262 247.101 513.784 233.263 518.581 226.828C536.498 202.82 562.055 171.386 590.426 149.479C629.964 118.971 682.432 102.96 732.051 115.267C751.232 120.04 769.736 129.425 786.62 140.2C791.714 143.454 797.912 148.482 805.214 155.285C808.087 157.957 811.5 158.562 815.454 157.102C816.024 156.888 816.315 156.479 816.327 155.873L816.487 150.156Z" fill="#584751"/>
<path d="M241.459 160.326C240.373 153.077 240.996 126.273 255.28 131.883C260.516 133.949 263.437 138.235 264.042 144.742C264.102 145.359 264.44 145.668 265.057 145.668H282.351C282.885 145.668 283.194 145.407 283.277 144.884C284.203 139.648 286.857 132.916 292.146 131.082C295.031 130.072 297.733 130.631 300.25 132.756C306.056 137.654 304.809 154.163 303.972 161.02C303.901 161.661 304.18 161.917 304.809 161.786C329.458 156.603 319.698 115.142 357.188 137.244C364.864 141.768 425.15 178.741 403.885 192.437C401.784 193.79 398.798 194.099 394.927 193.363C381.534 190.87 360.233 186.773 352.825 204.85C349.476 213.025 349.886 224.441 337.846 224.085C331.007 223.871 326.911 217.513 320.126 217.086C309.885 216.445 301.906 219.134 296.599 228.324C292.966 234.628 289.338 240.945 285.717 247.273C280.124 256.98 269.83 258.547 263.294 248.431C256.42 237.799 252.181 225.154 239.482 219.276C231.848 215.738 224.338 216.237 216.953 220.772C210.47 224.744 204.076 225.082 199.285 218.974C198.347 217.798 197.166 214.717 195.741 209.73C193.925 203.425 191.235 197.637 185.002 194.627C174.708 189.658 163.951 190.335 153.087 193.488C144.894 195.874 138.073 188.804 140.246 180.807C140.958 178.153 143.861 174.128 145.909 172.098C159.569 158.456 197.576 123.833 213.409 131.776C215.593 132.881 217.594 135.041 219.411 138.259C225.217 148.535 228.511 155.161 239.322 161.733C241.044 162.777 241.756 162.308 241.459 160.326Z" fill="#030108"/>
<path d="M846.906 192.383L855.9 214.325C856.791 216.486 856.34 216.813 854.547 215.305C826.621 191.867 797.644 178.598 761.063 189.391C742.63 194.841 732.798 204.138 721.578 218.742C717.874 223.568 708.808 219.08 704.801 216.961C703.792 216.439 703.204 215.94 703.038 215.465C705.674 212.366 708.233 209.267 710.714 206.168C722.718 191.137 739.317 181.947 757.643 176.711C783.521 169.319 812.444 173.861 835.473 187.005C839.889 189.522 843.701 191.315 846.906 192.383Z" fill="#382030"/>
<path d="M691.248 236.391C697.897 241.912 705.9 245.029 715.256 245.742C715.874 245.79 716.451 246.067 716.876 246.518C717.301 246.969 717.542 247.562 717.554 248.182C717.66 257.995 718.337 267.933 718.355 277.657C718.379 299.29 719.495 320.798 721.703 342.182C721.717 342.323 721.696 342.466 721.643 342.598C721.589 342.729 721.504 342.845 721.396 342.937C721.287 343.028 721.157 343.091 721.019 343.121C720.88 343.151 720.736 343.147 720.599 343.108L675.433 330.481C674.556 330.238 673.786 329.707 673.247 328.974C672.707 328.241 672.43 327.348 672.459 326.438C672.578 322.924 673.842 319.76 676.252 316.946L694.187 317.818C694.478 317.833 694.768 317.784 695.038 317.676C695.308 317.569 695.552 317.404 695.751 317.194C695.951 316.984 696.103 316.734 696.195 316.46C696.288 316.187 696.32 315.897 696.289 315.61C693.486 289.417 691.806 263.011 691.248 236.391Z" fill="#382030"/>
<path d="M577.603 283.338C574.112 285.38 570.633 287.227 567.166 288.877C560.968 291.833 558.742 295.431 556.623 301.486C553.512 310.391 550.817 319.255 548.537 328.077C548.446 328.43 548.283 328.761 548.058 329.05C547.834 329.338 547.553 329.577 547.232 329.752C546.912 329.927 546.559 330.035 546.195 330.069C545.831 330.102 545.465 330.06 545.118 329.947L535.18 326.652" stroke="#FEC398" stroke-width="2"/>
<path d="M639.011 304.282C640.959 309.281 641.677 312.944 641.166 315.271C640.05 320.294 640.585 324.995 642.769 329.377C642.885 329.617 643.059 329.825 643.277 329.98C643.495 330.136 643.749 330.234 644.016 330.267C645.013 330.386 645.453 331.009 645.334 332.137C644.248 342.681 639.279 352.173 636.625 362.361C635.948 364.985 634.654 367.205 632.742 369.021C630.926 370.755 629.335 372.423 627.969 374.026C626.438 375.831 624.556 377.244 622.324 378.265C621.777 378.514 621.392 378.918 621.166 379.476C619.082 384.73 615.948 397.535 612.475 401.275C608.438 405.621 605.636 409.503 604.068 412.923C603.748 413.611 603.38 414.033 602.964 414.187C602.477 414.354 601.872 414.389 601.148 414.294" stroke="#F56E25" stroke-width="2"/>
<path d="M517.566 371.034C521.253 378.835 530.567 387.882 533.595 373.617C535.352 365.341 537.65 357.439 540.487 349.912C540.705 349.334 540.751 348.706 540.618 348.105C540.485 347.504 540.18 346.956 539.739 346.528L530.941 337.943" stroke="#FEC398" stroke-width="2"/>
<path d="M516.551 315.04C506.933 310.302 497.316 308.147 487.61 304.265C482.552 302.234 476.977 301.718 471.741 299.812C471.093 299.577 470.386 299.559 469.728 299.762C469.069 299.964 468.494 300.376 468.09 300.934L446.13 331.14" stroke="#FEC398" stroke-width="2"/>
<path d="M482.552 364.8C483.139 369.93 484.208 377.552 475.659 375.344C459.998 371.307 444.112 368.523 428 366.991C417.795 366.011 404.366 364.996 392.968 365.299C358.559 366.19 324.15 370.286 290.846 379.28" stroke="#ABA3A7" stroke-width="2"/>
<path d="M290.846 379.28L275.512 382.664" stroke="#9B9096" stroke-width="2"/>
<path d="M500.753 404.891C507.094 415.007 519.846 416.485 530.442 421.08C533.173 422.267 535.625 423.187 537.798 423.84C545.599 426.18 556.659 429.955 570.978 435.168C581.141 438.86 594.968 442.933 612.457 447.385C620.198 449.368 625.826 450.074 629.341 449.505C640.543 447.67 644.515 439.513 649.199 429.86C650.606 426.957 652.44 425.889 655.521 426.975C680.455 435.613 703.501 447.278 722.896 466.335C727.277 470.627 732.977 474.225 737.482 479.069C747.456 489.814 757.72 500.269 768.276 510.432C771.392 513.442 773.512 516.488 775.845 519.978C775.976 520.168 775.946 520.334 775.756 520.477L775.328 520.798C774.865 521.142 774.444 521.1 774.064 520.673C771.161 517.485 768.044 517.894 764.838 516.541C762.713 515.639 761.3 515.122 760.6 514.991C749.059 512.831 737.488 510.824 725.888 508.972C722.682 508.455 718.871 507.137 715.256 506.71C711.599 506.271 708.939 505.843 707.277 505.428C694.792 502.275 682.806 501.064 671.693 498.286C670.25 497.93 669.395 496.79 667.757 496.629C664.426 496.327 662.485 495.133 659.546 494.759C654.791 494.154 646.242 493.531 642.182 491.233C641.683 490.96 641.149 490.859 640.579 490.93C639.7 491.049 638.893 490.847 638.157 490.325C637.694 489.98 637.183 489.856 636.625 489.951C632.938 490.539 629.928 488.722 627.435 488.188C625.654 487.796 623.879 487.362 622.11 486.887C618.316 485.89 614.452 485.855 610.533 485.16C609.061 484.899 607.156 484.163 604.817 482.952C599.83 480.387 593.899 480.458 589.375 479.158C583.201 477.353 576.98 475.709 570.711 474.225C565.19 472.925 558.707 470.075 552.242 469.095C552.004 469.06 551.767 468.905 551.529 468.632C551.197 468.288 550.799 468.057 550.336 467.938C545.349 466.709 540.737 466.46 535.857 464.536C529.588 462.078 522.749 460.493 516.195 458.926C513.072 458.178 509.32 456.902 504.939 455.097C499.809 452.995 494.496 451.434 488.999 450.413C486.968 450.021 484.671 448.347 482.356 447.795C477.422 446.637 473.184 444.571 468.108 443.681C464.76 443.093 461.643 441.544 458.401 440.546C456.193 439.881 454.109 439.121 452.15 438.267C447.128 436.058 441.013 433.856 433.806 431.659C428.653 430.092 416.786 425.93 398.204 419.174C394.393 417.797 391.134 416.675 388.426 415.808C380.448 413.244 373.911 410.519 366.645 407.74C366.016 407.503 365.03 407.265 363.688 407.028C361.248 406.601 358.559 404.926 356.6 404.356C348.247 401.934 339.307 397.25 332.735 394.614C328.947 393.107 325.189 391.527 321.461 389.877C316.011 387.473 310.259 385.977 304.613 383.929C302.351 383.127 300.552 381.542 298.665 380.135C298.213 379.791 297.703 379.607 297.133 379.583L290.846 379.28" stroke="#483441" stroke-width="2"/>
<path d="M701.756 410.519C701.791 406.767 700.764 401.732 698.675 395.416C694.756 383.519 689.277 373.581 682.236 365.602C680.681 363.833 676.169 361.049 668.701 357.249C668.143 356.964 667.709 356.555 667.4 356.02C666.557 354.56 665.406 354.34 663.945 355.361" stroke="#F56E25" stroke-width="2"/>
<path d="M205.857 160.806C206.985 167.954 204.967 172.537 199.802 174.556" stroke="#ABA3A7" stroke-width="2"/>
<path d="M324.186 194.823C329.885 184.481 336.944 174.935 345.362 166.185C345.559 165.98 345.704 165.73 345.784 165.457C345.864 165.184 345.876 164.897 345.82 164.619C345.764 164.342 345.641 164.083 345.461 163.866C345.282 163.648 345.053 163.478 344.792 163.371C343.379 162.777 342.5 160.83 342.156 157.529" stroke="#483441" stroke-width="2"/>
<path d="M205.857 160.806C206.985 167.954 204.967 172.537 199.802 174.556C194.411 174.187 189.063 172.78 183.755 170.335C183.185 170.073 183.126 169.735 183.577 169.319L192.785 160.824C193.343 160.302 193.996 159.969 194.744 159.827L197.914 159.186C198.556 159.059 199.133 158.698 199.535 158.17C200.496 156.912 201.708 156.591 203.168 157.209C203.726 157.434 204.13 157.826 204.379 158.384C204.842 159.465 205.335 160.272 205.857 160.806Z" fill="#FDFFFC"/>
<path d="M324.186 194.823C329.885 184.481 336.944 174.935 345.362 166.185C345.56 165.98 345.704 165.73 345.784 165.457C345.864 165.184 345.876 164.897 345.82 164.619C345.764 164.342 345.641 164.083 345.462 163.866C345.283 163.648 345.053 163.478 344.792 163.371C343.379 162.777 342.501 160.83 342.156 157.529C344.685 158.313 346.425 158.966 347.375 159.488C352.73 162.445 357.865 165.722 362.78 169.319C362.822 169.351 362.854 169.394 362.873 169.442C362.892 169.491 362.897 169.544 362.888 169.596C362.879 169.647 362.855 169.695 362.821 169.734C362.786 169.774 362.741 169.803 362.691 169.818C354.309 172.24 347.001 176.42 340.767 182.356C336.885 186.061 334.373 190.869 331.827 195.696C331.518 196.266 331.043 196.509 330.402 196.426C327.362 196.034 325.29 195.5 324.186 194.823Z" fill="#382030"/>
<path d="M342.156 157.529C342.501 160.83 343.379 162.777 344.792 163.371C345.053 163.478 345.282 163.648 345.462 163.866C345.641 164.083 345.764 164.342 345.82 164.619C345.876 164.897 345.864 165.184 345.784 165.457C345.704 165.73 345.559 165.98 345.362 166.185C336.944 174.935 329.885 184.481 324.186 194.823C316.373 193.03 309.879 193.719 304.702 196.889C304.546 196.986 304.367 197.04 304.183 197.046C303.999 197.052 303.817 197.009 303.655 196.923C303.492 196.836 303.356 196.708 303.258 196.553C303.161 196.397 303.106 196.218 303.099 196.034C302.98 193.006 303.343 190.026 304.186 187.094C304.375 186.476 304.785 186.102 305.414 185.972C314.438 184.096 322.203 180.136 328.71 174.092C333.216 169.907 337.543 163.032 342.156 157.529Z" fill="#584751"/>
<path d="M205.858 160.806C216.205 170.584 220.64 181.395 237.933 186.007C238.551 186.174 239.162 186.156 239.768 185.954L241.335 185.437C241.497 185.383 241.67 185.374 241.837 185.411C242.003 185.447 242.157 185.528 242.281 185.645C242.406 185.762 242.496 185.911 242.542 186.075C242.589 186.239 242.59 186.412 242.546 186.577C241.691 189.937 241.911 193.173 243.205 196.284C243.537 197.079 243.3 197.323 242.493 197.014C233.481 193.541 225.787 192.134 216.846 196.925C216.265 197.233 215.867 197.085 215.653 196.48C212.649 187.883 207.366 180.575 199.802 174.556C204.967 172.537 206.986 167.954 205.858 160.806Z" fill="#584751"/>
<path d="M263.465 179.655C265.819 179.841 267.857 178.329 268.019 176.28C268.18 174.23 266.403 172.419 264.05 172.234C261.696 172.049 259.658 173.56 259.496 175.609C259.335 177.659 261.112 179.47 263.465 179.655Z" fill="#FF8634"/>
<path d="M279.964 179.595C282.198 179 283.578 176.9 283.047 174.904C282.516 172.908 280.274 171.772 278.041 172.366C275.807 172.961 274.427 175.061 274.958 177.057C275.489 179.053 277.73 180.189 279.964 179.595Z" fill="#FF8634"/>
<path d="M267.765 210.389C267.183 208.11 266.744 205.723 266.447 203.23C266.427 203.07 266.441 202.908 266.488 202.754C266.535 202.6 266.614 202.458 266.72 202.337C266.826 202.215 266.956 202.118 267.103 202.051C267.249 201.984 267.408 201.949 267.569 201.947L278.896 201.858C279.312 201.846 279.484 202.048 279.412 202.464L277.4 215.358C277.305 215.999 277.008 216.522 276.509 216.925C275.263 217.97 274.586 219.318 274.479 220.968C274.36 222.726 273.666 222.999 272.395 221.788C272.027 221.443 271.885 221.111 271.968 220.79C272.075 220.41 271.962 220.107 271.63 219.882C267.943 217.388 268.566 213.524 267.765 210.389Z" fill="#382030"/>
<path d="M577.603 283.338C574.112 285.381 570.633 287.227 567.166 288.877C560.968 291.834 558.742 295.431 556.623 301.487C553.512 310.392 550.817 319.255 548.537 328.077C548.446 328.431 548.283 328.762 548.058 329.05C547.834 329.338 547.553 329.577 547.232 329.753C546.912 329.928 546.559 330.036 546.195 330.069C545.831 330.102 545.465 330.061 545.118 329.947L535.18 326.652C539.893 309.472 545.8 292.772 552.901 276.553C553.081 276.149 553.405 275.827 553.81 275.649C554.215 275.472 554.672 275.451 555.091 275.591L577.603 283.338Z" fill="#FDFFFC"/>
<path d="M577.603 283.339L639.011 304.283C640.958 309.282 641.677 312.945 641.166 315.272C640.05 320.294 640.585 324.996 642.769 329.377C642.884 329.617 643.059 329.825 643.277 329.981C643.495 330.136 643.749 330.235 644.016 330.268C645.013 330.386 645.453 331.01 645.334 332.138C644.247 342.681 639.278 352.174 636.625 362.361C635.948 364.985 634.654 367.205 632.742 369.022C630.926 370.755 629.335 372.424 627.969 374.026C626.438 375.831 624.556 377.244 622.323 378.265C621.777 378.515 621.391 378.918 621.166 379.476C619.082 384.73 615.947 397.536 612.475 401.276C608.438 405.621 605.636 409.504 604.068 412.923C603.748 413.612 603.38 414.033 602.964 414.188C602.477 414.354 601.872 414.39 601.148 414.295C575.846 406.221 550.662 397.767 525.598 388.933C521.062 387.342 518.076 385.46 516.64 383.288C514.265 379.69 514.574 375.606 517.566 371.034C521.252 378.835 530.567 387.883 533.595 373.617C535.352 365.341 537.649 357.44 540.487 349.912C540.705 349.334 540.75 348.707 540.617 348.105C540.484 347.504 540.179 346.956 539.739 346.528L530.941 337.944L535.18 326.652L545.118 329.947C545.465 330.061 545.831 330.102 546.195 330.069C546.559 330.036 546.912 329.928 547.232 329.753C547.553 329.577 547.834 329.338 548.058 329.05C548.283 328.762 548.446 328.431 548.537 328.077C550.817 319.255 553.512 310.392 556.623 301.487C558.742 295.431 560.968 291.834 567.166 288.877C570.633 287.227 574.112 285.381 577.603 283.339Z" fill="#FF8634"/>
<path d="M516.551 315.04C506.933 310.303 497.316 308.148 487.61 304.265C482.552 302.235 476.977 301.718 471.741 299.813C471.093 299.577 470.386 299.56 469.728 299.762C469.069 299.965 468.494 300.376 468.09 300.935L446.13 331.14L435.694 328.807C435.372 328.737 435.072 328.59 434.82 328.378C434.567 328.166 434.371 327.896 434.246 327.59C434.122 327.285 434.073 326.955 434.105 326.627C434.137 326.299 434.248 325.984 434.429 325.708L458.847 288.468C459.542 287.411 460.559 286.606 461.748 286.17C462.938 285.734 464.236 285.69 465.454 286.046L520.273 302.003C520.398 302.041 520.514 302.104 520.614 302.189C520.714 302.273 520.796 302.378 520.854 302.497C520.913 302.615 520.946 302.744 520.954 302.877C520.961 303.01 520.941 303.143 520.896 303.268L516.551 315.04Z" fill="#FDFFFC"/>
<path d="M516.551 315.04L505.277 344.765C504.861 345.893 504.084 346.267 502.944 345.887C483.329 339.44 464.391 334.524 446.13 331.14L468.09 300.935C468.494 300.376 469.069 299.965 469.728 299.762C470.386 299.56 471.093 299.577 471.741 299.813C476.977 301.718 482.552 302.235 487.61 304.265C497.316 308.148 506.933 310.303 516.551 315.04Z" fill="#FF8634"/>
<path d="M639.011 304.283L650.998 309.198C651.829 309.543 652.28 310.16 652.351 311.051C652.517 313.034 652.286 315.159 651.657 317.427C648.914 327.365 645.922 337.231 642.68 347.027C635.972 367.318 629.756 387.758 624.033 408.346C619.848 423.342 611.477 418.088 601.148 414.295C601.872 414.39 602.477 414.354 602.964 414.188C603.38 414.033 603.748 413.612 604.068 412.923C605.636 409.504 608.438 405.621 612.475 401.276C615.948 397.535 619.082 384.73 621.166 379.476C621.392 378.918 621.777 378.515 622.324 378.265C624.556 377.244 626.438 375.831 627.969 374.026C629.335 372.424 630.926 370.755 632.742 369.022C634.654 367.205 635.948 364.985 636.625 362.361C639.279 352.174 644.248 342.681 645.334 332.138C645.453 331.01 645.013 330.386 644.016 330.268C643.749 330.235 643.495 330.136 643.277 329.981C643.059 329.825 642.885 329.617 642.769 329.377C640.585 324.996 640.05 320.294 641.166 315.272C641.677 312.944 640.959 309.282 639.011 304.283Z" fill="#EA5516"/>
<path d="M530.941 337.943L539.739 346.528C540.18 346.956 540.485 347.504 540.618 348.105C540.751 348.706 540.705 349.334 540.487 349.912C537.65 357.439 535.352 365.341 533.595 373.617C530.567 387.882 521.253 378.835 517.566 371.034L530.941 337.943Z" fill="#FDFFFC"/>
<path d="M482.552 364.801C483.139 369.93 484.208 377.553 475.659 375.344C459.998 371.307 444.112 368.523 428 366.991C417.795 366.012 404.366 364.997 392.968 365.3C358.559 366.19 324.15 370.286 290.846 379.28L275.512 382.664L261.495 372.691C260.795 372.192 260.789 371.687 261.477 371.177C263.152 369.93 265.063 369.028 267.212 368.47C312.568 356.62 358.601 350.891 405.31 351.283C418.109 351.39 429.923 352.393 440.752 354.293C455 356.798 468.933 360.301 482.552 364.801Z" fill="#FDFFFC"/>
<path d="M701.756 410.519C701.791 406.767 700.764 401.733 698.675 395.416C694.756 383.519 689.277 373.581 682.236 365.602C680.681 363.833 676.169 361.049 668.701 357.249C668.143 356.964 667.709 356.555 667.4 356.021C666.557 354.56 665.406 354.34 663.945 355.362C663.957 354.661 664.076 354.168 664.302 353.883C664.566 353.546 664.924 353.293 665.333 353.157C665.741 353.021 666.181 353.007 666.599 353.118C672.993 354.827 679.333 356.306 685.567 358.443C697.19 362.408 708.725 366.249 720.171 369.966C721.123 370.278 721.962 370.861 722.586 371.642C723.209 372.424 723.59 373.371 723.68 374.365C724.285 381.026 724.161 387.758 725.176 394.062C726.434 401.816 727.746 409.326 729.112 416.592C729.171 416.922 729.144 417.263 729.033 417.579C728.922 417.896 728.73 418.179 728.477 418.399C728.224 418.62 727.919 418.772 727.59 418.839C727.261 418.906 726.92 418.887 726.601 418.783L701.756 410.519Z" fill="#EA5516"/>
<path d="M701.756 410.519L653.509 393.813C653.16 393.694 652.871 393.445 652.705 393.118C652.538 392.792 652.507 392.415 652.619 392.068L663.946 355.362C665.406 354.341 666.558 354.56 667.401 356.021C667.71 356.555 668.143 356.965 668.701 357.25C676.169 361.049 680.681 363.833 682.237 365.602C689.277 373.581 694.757 383.519 698.675 395.416C700.765 401.733 701.792 406.767 701.756 410.519Z" fill="#FF8634"/>
<path d="M482.552 364.801L492.436 367.74C493.071 367.93 493.606 368.36 493.928 368.939C494.251 369.517 494.335 370.199 494.164 370.838C491.189 381.738 490.085 397.446 500.753 404.891C507.094 415.007 519.846 416.485 530.442 421.08C533.173 422.267 535.625 423.188 537.798 423.841C545.599 426.18 556.659 429.955 570.978 435.168C581.141 438.86 594.968 442.933 612.457 447.385C620.198 449.368 625.826 450.075 629.341 449.505C640.543 447.67 644.515 439.513 649.199 429.86C650.606 426.957 652.44 425.889 655.521 426.975C680.455 435.613 703.501 447.278 722.896 466.335C727.277 470.627 732.977 474.225 737.482 479.069C747.456 489.814 757.72 500.269 768.276 510.432C771.392 513.442 773.512 516.488 775.845 519.978C775.976 520.168 775.946 520.335 775.756 520.477L775.328 520.798C774.865 521.142 774.444 521.1 774.064 520.673C771.161 517.485 768.044 517.895 764.838 516.541C762.713 515.639 761.3 515.122 760.6 514.992C749.059 512.831 737.488 510.824 725.888 508.972C722.682 508.455 718.871 507.138 715.256 506.71C711.599 506.271 708.939 505.843 707.277 505.428C694.792 502.275 682.806 501.064 671.693 498.286C670.25 497.93 669.395 496.79 667.757 496.63C664.426 496.327 662.485 495.134 659.546 494.76C654.791 494.154 646.242 493.531 642.182 491.233C641.683 490.96 641.149 490.859 640.579 490.931C639.7 491.049 638.893 490.847 638.157 490.325C637.694 489.981 637.183 489.856 636.625 489.951C632.938 490.539 629.928 488.722 627.435 488.188C625.654 487.796 623.879 487.363 622.11 486.888C618.316 485.89 614.452 485.855 610.533 485.16C609.061 484.899 607.156 484.163 604.817 482.952C599.83 480.387 593.899 480.458 589.375 479.158C583.201 477.353 576.98 475.709 570.711 474.225C565.19 472.925 558.707 470.075 552.242 469.096C552.004 469.06 551.767 468.906 551.529 468.633C551.197 468.288 550.799 468.057 550.336 467.938C545.349 466.709 540.737 466.46 535.857 464.536C529.588 462.079 522.749 460.493 516.195 458.926C513.072 458.178 509.32 456.902 504.939 455.097C499.809 452.995 494.496 451.434 488.999 450.413C486.968 450.021 484.671 448.347 482.356 447.795C477.422 446.637 473.184 444.571 468.108 443.681C464.76 443.093 461.643 441.544 458.401 440.546C456.193 439.881 454.109 439.122 452.15 438.267C447.128 436.058 441.013 433.856 433.806 431.659C428.653 430.092 416.786 425.93 398.204 419.174C394.393 417.797 391.134 416.675 388.426 415.808C380.448 413.244 373.911 410.519 366.645 407.741C366.016 407.503 365.03 407.266 363.688 407.028C361.248 406.601 358.559 404.927 356.6 404.357C348.247 401.935 339.307 397.251 332.735 394.615C328.947 393.107 325.189 391.528 321.461 389.877C316.011 387.473 310.259 385.977 304.613 383.929C302.351 383.127 300.552 381.542 298.665 380.135C298.213 379.791 297.703 379.607 297.133 379.583L290.846 379.28C324.15 370.286 358.559 366.19 392.968 365.3C404.366 364.997 417.795 366.012 428 366.991C444.112 368.523 459.998 371.307 475.659 375.344C484.208 377.553 483.139 369.93 482.552 364.801Z" fill="#584751"/>
<path d="M290.846 379.28L297.133 379.583C297.703 379.607 298.214 379.791 298.665 380.135C300.553 381.542 302.352 383.127 304.613 383.929C310.259 385.977 316.012 387.473 321.461 389.877C325.19 391.527 328.948 393.107 332.735 394.614C339.307 397.25 348.248 401.934 356.6 404.356C358.56 404.926 361.249 406.601 363.689 407.028C365.03 407.265 366.016 407.503 366.645 407.74C373.912 410.519 380.448 413.244 388.427 415.808C391.134 416.675 394.393 417.797 398.204 419.174C416.786 425.93 428.653 430.092 433.806 431.659C441.013 433.856 447.128 436.058 452.15 438.267C454.11 439.121 456.193 439.881 458.402 440.546C461.643 441.544 464.76 443.093 468.108 443.681C473.184 444.571 477.423 446.637 482.356 447.795C484.671 448.347 486.969 450.021 488.999 450.413C494.496 451.434 499.81 452.995 504.939 455.097C509.32 456.902 513.072 458.178 516.195 458.926C522.749 460.493 529.588 462.078 535.857 464.536C540.737 466.46 545.35 466.709 550.336 467.938C550.799 468.057 551.197 468.288 551.53 468.632C551.767 468.905 552.005 469.06 552.242 469.095C558.707 470.075 565.19 472.925 570.711 474.225C576.98 475.709 583.202 477.353 589.376 479.158C593.899 480.458 599.83 480.387 604.817 482.952C607.156 484.163 609.062 484.899 610.534 485.16C614.452 485.855 618.317 485.89 622.11 486.887C623.879 487.362 625.654 487.796 627.435 488.188C629.929 488.722 632.939 490.539 636.625 489.951C637.183 489.856 637.694 489.98 638.157 490.325C638.893 490.847 639.7 491.049 640.579 490.93C641.149 490.859 641.683 490.96 642.182 491.233C646.243 493.531 654.791 494.154 659.547 494.759C662.485 495.133 664.427 496.327 667.757 496.629C669.395 496.79 670.25 497.93 671.693 498.286C682.806 501.064 694.792 502.275 707.277 505.428C708.939 505.843 711.599 506.271 715.256 506.71C718.871 507.137 722.683 508.455 725.888 508.972C737.489 510.824 749.059 512.831 760.6 514.991C761.3 515.122 762.713 515.639 764.839 516.541C768.044 517.894 771.161 517.485 774.064 520.673C774.444 521.1 774.866 521.142 775.329 520.798L775.756 520.477C775.946 520.334 775.976 520.168 775.845 519.978C773.512 516.488 771.393 513.442 768.276 510.432C757.721 500.269 747.456 489.814 737.483 479.069C732.977 474.225 727.278 470.627 722.896 466.335C703.501 447.278 680.455 435.613 655.522 426.975C652.44 425.889 650.606 426.957 649.199 429.86C644.515 439.513 640.543 447.67 629.341 449.505C625.827 450.074 620.199 449.368 612.457 447.385C594.968 442.933 581.142 438.86 570.978 435.168C556.659 429.955 545.599 426.18 537.798 423.84C535.625 423.187 533.174 422.267 530.443 421.08C519.846 416.485 507.094 415.007 500.754 404.891C514.396 410.608 528.11 415.114 541.716 420.35C546.311 422.113 551.708 423.395 555.733 424.784C570.194 429.771 584.692 435.239 599.42 439.299C604.894 440.807 610.368 442.303 615.841 443.788C633.152 448.472 641.042 434.847 645.032 420.831C645.16 420.386 645.378 419.972 645.673 419.615C645.968 419.258 646.333 418.966 646.745 418.755C647.157 418.545 647.608 418.422 648.07 418.393C648.532 418.363 648.995 418.429 649.431 418.587C665.121 424.214 681.239 430.679 696.003 435.595C707.176 439.311 718.373 442.939 729.593 446.477C734.936 448.169 737.233 451.82 741.615 454.758C774.901 477.145 797.965 495.133 825.855 515.953C833.514 521.67 841.51 529.756 850.184 536.185C851.87 537.432 851.668 538.121 849.578 538.251C848.474 538.322 846.871 538.293 844.77 538.162C802.524 535.336 769.279 531.697 745.034 527.245C718.622 522.383 692.067 517.805 665.994 511.946C625.28 502.78 599.385 496.588 588.307 493.37C540.007 479.336 487.717 465.89 443.851 450.306C400.965 435.043 358.096 419.922 315.869 402.878C301.639 397.126 289.119 389.539 275.512 382.664L290.846 379.28Z" fill="#382030"/>
<path d="M692.976 542.829C712.299 546.497 734.01 549.222 754.58 552.428C754.759 552.458 754.919 552.559 755.025 552.709C755.132 552.858 755.177 553.045 755.15 553.23L755.079 553.657C754.96 554.369 754.544 554.672 753.832 554.565C744.624 553.212 734.669 553.265 725.194 552.713C704.356 551.502 683.62 549.371 662.984 546.319C642.698 543.327 619.724 537.592 598.049 533.176C586.199 530.765 575.329 528.242 565.439 525.606C511.048 511.127 466.452 496.06 414.197 475.187C402.3 470.425 379.973 459.68 347.214 442.951C347.154 442.92 347.101 442.876 347.057 442.824C347.014 442.771 346.981 442.71 346.962 442.644C346.942 442.578 346.935 442.508 346.942 442.438C346.948 442.369 346.969 442.301 347.001 442.238L347.268 441.757C347.403 441.509 347.629 441.321 347.899 441.232C348.17 441.143 348.466 441.159 348.728 441.277C355.923 444.571 364.152 446.887 370.652 449.647C386.948 456.557 400.965 460.832 419.273 467.724C459.488 482.845 505.313 495.561 548.502 507.903C567.932 513.46 590.284 519.052 613.686 525.25C635.948 531.163 662.378 537.023 692.976 542.829Z" fill="#382030"/>
<path d="M538.76 363.91C540.814 356.204 543.26 348.617 546.097 341.149C550.799 328.771 554.7 316.144 560.274 304.104C563.124 297.889 572.545 298.833 578.618 301.041C593.935 306.633 611.976 311.389 625.708 319.617C634.986 325.174 633.455 332.404 630.124 341.826C625.399 355.195 620.673 368.552 615.948 381.898C611.887 393.403 607.987 400.776 594.558 395.309C580.844 389.717 566.929 384.771 552.812 380.473C546.258 378.478 536.658 371.782 538.76 363.91Z" fill="#030108"/>
<path d="M600.898 334.542C597.669 343.186 594.481 351.752 591.334 360.242C590.408 362.735 588.924 364.273 586.882 364.854C586.288 365.032 585.701 364.997 585.119 364.748C583.765 364.166 582.418 364 581.076 364.249" stroke="#F56E25" stroke-width="2"/>
<path d="M600.899 334.542C597.669 343.186 594.481 351.752 591.335 360.242C590.409 362.735 588.924 364.273 586.882 364.854C586.289 365.032 585.701 364.997 585.119 364.748C583.766 364.166 582.418 364 581.076 364.249L565.439 359.458C565.207 359.387 564.992 359.27 564.806 359.115C564.62 358.96 564.467 358.77 564.356 358.556C564.244 358.342 564.177 358.108 564.159 357.868C564.14 357.629 564.169 357.388 564.246 357.16L573.988 327.667C574.105 327.311 574.359 327.014 574.695 326.842C575.031 326.669 575.422 326.633 575.787 326.741L600.899 334.542Z" fill="#FF8634"/>
<path d="M600.899 334.542C602.478 334.827 604.194 335.581 606.046 336.804C606.277 336.96 606.462 337.176 606.581 337.43C606.701 337.684 606.749 337.966 606.723 338.246C605.903 347.24 601.13 357.962 598.031 366.849C597.795 367.517 597.31 368.068 596.678 368.383C596.046 368.699 595.318 368.756 594.648 368.541L581.076 364.249C582.418 364 583.766 364.166 585.119 364.748C585.701 364.997 586.289 365.032 586.882 364.854C588.925 364.273 590.409 362.735 591.335 360.242C594.481 351.752 597.669 343.186 600.899 334.542Z" fill="#EA5516"/>
</svg>
