<svg width="1024" height="1024" viewBox="0 0 1024 1024" fill="none" xmlns="http://www.w3.org/2000/svg">
<rect width="1024" height="1024" fill="white"/>
<path d="M498.712 326.2C490.911 325.897 478.662 327.318 472.608 325.362C458.333 320.728 462.828 298.396 477.382 299.304C484.507 299.739 491.617 299.871 498.712 299.7C499.566 299.684 500.008 299.25 500.039 298.396C500.319 290.315 498.782 277.881 501.856 271.64C506.001 263.187 520.368 263.257 525.235 271.314C528.984 277.485 527.727 290.176 527.657 297.837C527.654 298.028 527.69 298.219 527.763 298.396C527.836 298.573 527.945 298.733 528.082 298.866C528.22 298.999 528.383 299.103 528.562 299.17C528.742 299.237 528.933 299.267 529.124 299.257C536.669 298.931 552.62 297.371 558.605 301.796C566.056 307.338 564.706 320.984 556.928 325.222C550.734 328.622 537.181 326.945 529.264 326.689C529.003 326.679 528.743 326.723 528.501 326.818C528.258 326.912 528.037 327.056 527.851 327.239C527.666 327.422 527.52 327.641 527.422 327.883C527.325 328.125 527.278 328.384 527.284 328.645C527.471 336.818 529.403 348.438 524.653 355.005C515.944 367.021 499.154 358.638 500.016 344.177C500.28 339.613 500.264 334.032 499.97 327.434C499.938 326.627 499.519 326.215 498.712 326.2Z" fill="#010808"/>
<path d="M636.335 286.48C637.341 295.595 645.079 302.219 653.618 301.276C662.157 300.334 668.264 292.181 667.257 283.066C666.251 273.952 658.513 267.328 649.974 268.27C641.435 269.213 635.329 277.366 636.335 286.48Z" fill="#010808"/>
<path d="M360.878 292.252C365.158 300.069 374.801 303.027 382.415 298.858C390.03 294.689 392.733 284.972 388.453 277.155C384.173 269.337 374.53 266.379 366.916 270.548C359.301 274.717 356.598 284.434 360.878 292.252Z" fill="#010808"/>
<path d="M434.628 517.008C434.954 506.933 438.439 498.139 445.083 490.625C445.311 490.368 445.483 490.067 445.587 489.742C445.691 489.417 445.726 489.076 445.689 488.739C444.897 481.287 442.242 415.107 462.059 423.607C463.705 424.305 465.723 426.192 468.114 429.265C477.405 441.165 484.763 450.852 490.632 464.754C491.128 465.903 491.99 466.337 493.216 466.058C505.698 463.124 518.117 463.349 530.475 466.733C531.297 466.951 531.895 466.679 532.268 465.918C538.027 454.166 545.976 441.576 556.113 428.148C564.333 417.296 571.948 423.677 574.556 433.806C579.244 451.908 580.315 469.729 577.769 487.272C577.711 487.658 577.74 488.051 577.853 488.422C577.965 488.792 578.16 489.132 578.421 489.414C585.469 497.192 588.83 506.405 588.504 517.055C588.494 517.348 588.568 517.639 588.717 517.891C588.867 518.144 589.086 518.349 589.348 518.481C589.61 518.613 589.904 518.668 590.196 518.638C590.489 518.608 590.766 518.495 590.996 518.313C609.462 503.782 611.255 464.265 609.346 443.703C608.228 431.617 602.732 420.207 596.352 407.19C592.16 398.667 590.763 391.239 597.074 384.09C661.693 310.877 764.456 277.019 859.907 296.952C864.891 298 872.039 300.724 875.602 305.126C887.478 319.819 868.546 328.761 858.44 335.817C835.154 352.024 821.322 377.011 823.837 405.583C824.877 417.475 828.207 428.233 833.826 437.858C840.3 448.919 849.032 466.943 838.204 476.094C836.217 477.771 833.392 478.64 829.728 478.702C801.971 479.098 780.803 486.41 764.433 508.09C758.596 515.821 754.148 524.988 751.09 535.591C745.944 553.452 748.552 570.148 750.81 587.473C752.906 603.774 741.17 613.763 725.382 608.617C721.873 607.484 718.357 606.374 714.833 605.287C686.191 596.563 659.109 598.301 633.587 610.503C611.837 620.912 590.041 643.593 592.09 669.604C592.23 671.39 591.128 674.044 588.784 677.568C588.38 678.189 587.837 678.663 587.154 678.989C580.517 682.249 573.205 685.532 567.57 689.724C548.731 703.696 536.739 723.279 528.332 744.936C525.864 751.316 523.621 755.446 521.602 757.324C513.149 765.172 499.643 759.583 496.639 748.778C489.7 723.792 473.4 696.966 448.879 685.881C444.33 683.832 439.774 681.806 435.21 679.804C428.876 677.033 430.483 667.066 430.366 661.431C430.289 657.612 429.73 654.181 428.69 651.138C416.488 615.487 373.99 598.767 339.433 599.652C324.638 600.04 309.945 602.741 295.352 607.756C285.735 611.086 279.797 610.829 274.417 601.934C268.829 592.689 272.857 582.117 274.278 572.384C280.309 531.423 258.862 487.644 215.643 480.286C208.494 479.075 199.226 479.448 191.564 478.656C179.199 477.352 176.917 463.636 181.528 454.135C186.465 443.936 190.998 433.566 195.127 423.025C212.499 378.641 184.532 347.647 150.068 325.175C147.553 323.545 146.086 320.937 145.667 317.351C143.711 300.864 161.665 297.534 173.611 295.275C256.766 279.534 343.764 309.876 405.892 365.041C412.785 371.158 419.096 377.833 424.824 385.068C429.745 391.293 430.219 397.945 426.245 405.024C412.902 428.637 409.967 454.298 414.229 480.495C417 497.471 419.561 508.206 432.602 517.963C432.785 518.105 433.004 518.193 433.234 518.218C433.465 518.244 433.697 518.205 433.907 518.106C434.117 518.007 434.295 517.852 434.422 517.659C434.549 517.465 434.62 517.24 434.628 517.008Z" fill="#010808"/>
<path d="M343.888 687.862C344.664 697.295 352.4 704.359 361.167 703.638C369.934 702.917 376.412 694.685 375.637 685.252C374.861 675.818 367.125 668.755 358.358 669.476C349.591 670.196 343.112 678.428 343.888 687.862Z" fill="#010808"/>
<path d="M648.654 689.641C650.515 699.039 659.05 705.267 667.717 703.551C676.384 701.835 681.902 692.825 680.041 683.426C678.18 674.027 669.645 667.799 660.978 669.515C652.311 671.232 646.793 680.242 648.654 689.641Z" fill="#010808"/>
<path d="M378.299 401.252C371.189 396.936 364.28 392.387 357.574 387.606C348.197 380.93 341.335 376.343 336.989 373.844C324.538 366.687 311.963 360.617 299.265 355.634" stroke="#94A1A9" stroke-width="2"/>
<path d="M750.834 343.432C713.855 359.36 681.836 372.61 652.495 402.276" stroke="#94A1A9" stroke-width="2"/>
<path d="M378.298 401.252C371.188 396.936 364.28 392.388 357.573 387.606C348.197 380.931 341.335 376.343 336.988 373.844C324.538 366.687 311.963 360.617 299.264 355.634L255.602 338.099C252.233 336.749 252.327 335.724 255.882 335.026C256.518 334.901 257.985 335.01 260.283 335.352C303.363 341.685 346.396 360.757 377.623 391.542C381.007 394.879 381.232 398.116 378.298 401.252Z" fill="white"/>
<path d="M750.834 343.432C713.855 359.36 681.836 372.61 652.495 402.277L640.689 401.718C638.159 401.609 637.646 400.53 639.152 398.481C663.556 365.438 714.53 342.943 753.046 335.654C756.228 335.064 756.539 335.763 753.977 337.75C752.782 338.681 751.734 340.575 750.834 343.432Z" fill="white"/>
<path d="M750.834 343.432C751.276 347.484 749.856 349.999 746.153 352.048C740.168 355.308 734.556 359.569 728.921 362.62C718.101 368.472 710.113 373.401 704.959 377.407C698.377 382.514 694.535 389.865 693.433 399.459C693.246 401.167 692.284 403.03 690.545 405.048C690.11 405.56 689.552 405.816 688.868 405.816C676.837 405.878 664.713 404.698 652.495 402.277C681.836 372.61 713.855 359.36 750.834 343.432Z" fill="#284253"/>
<path d="M299.264 355.634C311.963 360.617 324.537 366.687 336.988 373.844C341.334 376.343 348.196 380.931 357.573 387.606C364.279 392.388 371.188 396.936 378.298 401.252L332.843 407.306C332.5 407.351 332.151 407.317 331.824 407.207C331.496 407.097 331.197 406.914 330.95 406.672C330.704 406.429 330.515 406.134 330.399 405.809C330.283 405.483 330.243 405.135 330.281 404.791C331.934 390.237 318.522 382.623 309.812 373.355C307.577 370.98 300.172 368.162 296.353 365.484C290.159 361.153 283.367 357.598 275.977 354.819C275.655 354.696 275.378 354.476 275.182 354.189C274.987 353.902 274.882 353.562 274.883 353.212C274.898 350.946 276.101 350.425 278.492 351.652C285.121 355.005 292.045 356.332 299.264 355.634Z" fill="#284253"/>
<path d="M260.585 416.528C262.06 412.647 264.202 409.239 267.012 406.305C267.272 406.03 267.599 405.828 267.962 405.718C268.324 405.607 268.709 405.592 269.08 405.674C269.452 405.756 269.797 405.932 270.083 406.185C270.369 406.438 270.586 406.76 270.714 407.12C271.848 410.287 272.406 413.57 272.391 416.97C272.389 417.762 272.092 418.525 271.558 419.111C271.024 419.696 270.292 420.062 269.503 420.137L259.141 421.092C258.938 421.11 258.733 421.083 258.541 421.013C258.35 420.943 258.176 420.832 258.031 420.688C257.887 420.544 257.776 420.37 257.706 420.178C257.637 419.986 257.61 419.781 257.627 419.578C257.705 418.678 258.248 418.072 259.257 417.762C259.894 417.56 260.336 417.149 260.585 416.528Z" fill="#284253"/>
<path d="M347.001 443.773C349.772 443.307 356.525 442.492 359.25 443.54C359.948 443.819 360.104 444.277 359.715 444.914L311.163 523.785C311.04 523.99 310.864 524.158 310.653 524.273C310.443 524.387 310.206 524.444 309.967 524.437C309.728 524.43 309.495 524.359 309.291 524.232C309.088 524.106 308.923 523.927 308.811 523.715C307.476 521.231 306.351 518.483 305.435 515.472C298.247 492.216 284.694 473.905 264.777 460.539C264.608 460.43 264.475 460.274 264.392 460.091C264.309 459.908 264.281 459.705 264.31 459.506C264.34 459.307 264.426 459.121 264.558 458.97C264.69 458.819 264.863 458.709 265.056 458.653C269.108 457.442 273.16 456.045 277.351 455.369C300.607 451.69 323.823 447.825 347.001 443.773Z" fill="#284253"/>
<path d="M756.702 459.165C756.874 459.209 757.033 459.291 757.17 459.404C757.306 459.518 757.416 459.661 757.491 459.823C757.567 459.985 757.606 460.162 757.607 460.342C757.607 460.522 757.569 460.701 757.494 460.865C756.966 461.936 756.05 462.907 754.746 463.776C733.998 477.468 722.844 500.894 715.602 523.645C715.516 523.904 715.359 524.133 715.148 524.306C714.937 524.479 714.682 524.589 714.412 524.623C714.142 524.657 713.867 524.614 713.62 524.499C713.373 524.383 713.164 524.2 713.017 523.971L664.092 446.218C663.021 444.526 663.479 443.757 665.466 443.913C696.328 446.334 726.74 451.419 756.702 459.165Z" fill="#284253"/>
<path d="M392.852 554.29C397.253 558.645 396.927 562.557 399.186 567.563C399.386 568.014 399.471 568.507 399.435 568.998C399.398 569.489 399.239 569.964 398.974 570.379C398.709 570.795 398.345 571.138 397.914 571.378C397.484 571.618 397.001 571.747 396.508 571.755C395.08 571.77 393.38 571.444 391.408 570.777C373.835 564.94 355.702 561.617 337.011 560.81C336.781 560.802 336.557 560.734 336.361 560.613C336.165 560.492 336.004 560.322 335.894 560.12C335.784 559.918 335.728 559.691 335.732 559.461C335.736 559.231 335.799 559.006 335.917 558.808L379.066 486.154C380.479 483.794 381.077 483.981 380.859 486.713C380.425 492.488 380.114 498.69 379.928 505.319C379.742 511.513 381.767 516.799 382.885 522.9C383.724 527.441 386.448 531.493 387.007 536.499C387.085 537.182 387.341 537.796 387.775 538.339C391.152 542.53 390.989 547.211 391.827 552.287C391.948 553.045 392.307 553.746 392.852 554.29Z" fill="#284253"/>
<path d="M631.98 535.987C634.448 528.838 637.825 522.574 639.036 515.146C640.526 506.064 641.954 497.285 643.32 488.809C643.615 487.054 644.213 486.946 645.113 488.483L685.725 557.271C685.844 557.47 685.91 557.695 685.919 557.927C685.927 558.159 685.876 558.389 685.772 558.596C685.667 558.802 685.512 558.979 685.32 559.11C685.129 559.241 684.908 559.321 684.677 559.343C658.806 561.998 635.659 569.054 610.929 576.808C607.529 577.864 606.978 577.033 609.276 574.316C618.404 563.488 627.229 549.772 631.98 535.987Z" fill="#284253"/>
<path d="M493.892 530.119C494.753 530.968 495.241 532.125 495.25 533.334C495.259 534.544 494.787 535.707 493.939 536.569L493.613 536.895C490.928 539.612 487.359 541.237 483.692 541.411C480.024 541.586 476.557 540.297 474.052 537.827L473.563 537.338C472.321 536.115 471.352 534.638 470.712 532.993C470.072 531.347 469.774 529.563 469.835 527.745C469.895 525.926 470.313 524.108 471.065 522.394C471.817 520.679 472.887 519.103 474.215 517.754L474.541 517.451C475.391 516.59 476.547 516.102 477.757 516.093C478.966 516.084 480.13 516.556 480.992 517.404L493.892 530.119Z" fill="#FF9442"/>
<path d="M543.352 518.15C543.799 517.767 544.316 517.476 544.875 517.293C545.434 517.11 546.023 517.04 546.609 517.085C547.195 517.131 547.767 517.291 548.291 517.558C548.815 517.824 549.281 518.192 549.663 518.639L549.896 518.895C552.343 521.751 553.632 525.396 553.479 529.03C553.326 532.663 551.744 535.986 549.081 538.269L548.545 538.735C545.882 541.013 542.357 542.064 538.747 541.658C535.136 541.252 531.734 539.422 529.287 536.569L529.055 536.29C528.289 535.39 527.91 534.223 528.002 533.045C528.093 531.867 528.648 530.773 529.544 530.002L543.352 518.15Z" fill="#FF9442"/>
</svg>
