<svg width="1024" height="1024" viewBox="0 0 1024 1024" fill="none" xmlns="http://www.w3.org/2000/svg">
<rect width="1024" height="1024" fill="white"/>
<path d="M437.925 234.345C471.871 215.827 509.187 206.996 547.669 214.9C561.904 217.821 606.324 230.372 610.578 246.166C613.554 257.2 602.169 266.438 591.85 264.908C590.109 264.655 587.231 263.499 583.216 261.44C578.181 258.876 573.08 256.466 567.913 254.21C538.272 241.257 508.485 239.942 478.554 250.265C469.134 253.508 458.408 258.941 448.538 263.63C444.28 265.652 439.946 265.877 435.538 264.304C425.598 260.752 422.425 248.566 429.29 240.803C431.293 238.538 434.171 236.385 437.925 234.345Z" fill="#000F18"/>
<path d="M358.618 267.846C356.886 267.743 355.192 267.287 353.633 266.504C352.074 265.721 350.68 264.626 349.531 263.282C348.382 261.937 347.5 260.37 346.936 258.67C346.372 256.969 346.137 255.168 346.244 253.37C346.46 249.739 348.056 246.339 350.682 243.918C353.307 241.497 356.747 240.254 360.245 240.462C361.977 240.565 363.67 241.021 365.23 241.804C366.789 242.587 368.183 243.682 369.332 245.026C370.481 246.37 371.362 247.937 371.926 249.638C372.49 251.339 372.726 253.139 372.619 254.937C372.403 258.569 370.807 261.969 368.181 264.39C365.555 266.81 362.115 268.054 358.618 267.846Z" fill="#000F18"/>
<path d="M671.551 267.448C668.115 267.484 664.804 266.093 662.347 263.581C659.891 261.068 658.49 257.64 658.452 254.051C658.433 252.274 658.75 250.511 659.384 248.862C660.018 247.213 660.957 245.711 662.147 244.442C663.337 243.173 664.755 242.161 666.32 241.464C667.885 240.768 669.566 240.4 671.268 240.382C674.704 240.346 678.015 241.738 680.472 244.25C682.928 246.763 684.329 250.19 684.367 253.78C684.386 255.557 684.069 257.32 683.435 258.969C682.801 260.618 681.862 262.119 680.672 263.389C679.482 264.658 678.064 265.67 676.499 266.366C674.934 267.063 673.253 267.431 671.551 267.448Z" fill="#000F18"/>
<path d="M714.945 275.718C714.945 278.44 713.864 281.05 711.939 282.975C710.015 284.9 707.404 285.981 704.683 285.981C701.961 285.981 699.35 284.9 697.426 282.975C695.501 281.05 694.42 278.44 694.42 275.718C694.42 272.996 695.501 270.386 697.426 268.461C699.35 266.537 701.961 265.456 704.683 265.456C707.404 265.456 710.015 266.537 711.939 268.461C713.864 270.386 714.945 272.996 714.945 275.718Z" fill="#0594E0"/>
<path d="M333.318 276.027C333.318 278.73 332.245 281.323 330.333 283.234C328.422 285.146 325.829 286.219 323.126 286.219C320.423 286.219 317.83 285.146 315.919 283.234C314.007 281.323 312.934 278.73 312.934 276.027C312.934 273.324 314.007 270.731 315.919 268.82C317.83 266.908 320.423 265.835 323.126 265.835C325.829 265.835 328.422 266.908 330.333 268.82C332.245 270.731 333.318 273.324 333.318 276.027Z" fill="#0594E0"/>
<path d="M549.803 304.316C529.586 295.078 507.657 294.376 487.707 304.484C479.143 308.822 468.586 313.568 460.78 305.776C451.879 296.917 458.787 285.223 467.505 280.056C499.009 261.384 538.08 260.991 569.57 279.86C579.369 285.742 586.711 297.17 575.789 306.618C568.096 313.273 558.914 308.471 549.803 304.316Z" fill="#000F18"/>
<path d="M393.959 301.451C390.325 301.42 386.853 299.913 384.306 297.263C381.759 294.613 380.347 291.037 380.379 287.321C380.412 283.605 381.887 280.054 384.479 277.449C387.072 274.844 390.569 273.399 394.203 273.43C397.837 273.462 401.31 274.969 403.856 277.619C406.403 280.268 407.815 283.845 407.783 287.56C407.75 291.276 406.276 294.827 403.683 297.432C401.091 300.037 397.593 301.483 393.959 301.451Z" fill="#FFB301"/>
<path d="M639.277 301.662C637.5 301.659 635.741 301.3 634.1 300.605C632.459 299.91 630.969 298.893 629.715 297.612C628.46 296.331 627.466 294.811 626.789 293.139C626.111 291.467 625.764 289.675 625.768 287.866C625.771 286.058 626.124 284.268 626.807 282.598C627.49 280.928 628.49 279.412 629.749 278.135C631.007 276.858 632.501 275.846 634.144 275.157C635.788 274.468 637.548 274.114 639.325 274.118C641.103 274.121 642.862 274.48 644.503 275.175C646.143 275.87 647.634 276.887 648.888 278.168C650.143 279.449 651.137 280.969 651.814 282.641C652.491 284.313 652.838 286.105 652.835 287.914C652.832 289.722 652.479 291.513 651.796 293.182C651.113 294.852 650.113 296.369 648.854 297.645C647.595 298.922 646.101 299.934 644.458 300.623C642.815 301.312 641.055 301.666 639.277 301.662Z" fill="#0594E0"/>
<path d="M641.857 747.49L653.467 776.986C653.658 777.475 653.993 777.896 654.428 778.193C654.864 778.491 655.38 778.653 655.91 778.657C664.043 778.704 672.177 778.704 680.31 778.657C684.7 778.638 687.938 779.247 690.025 780.482C698.729 785.649 699.53 798.536 693.97 806.314C691.509 809.74 688.158 811.457 683.918 811.466C573.86 811.56 463.803 811.649 353.745 811.733C349.496 811.733 346.281 811.115 344.1 809.88C331.648 802.804 334.048 779.05 350.839 778.98C361.116 778.942 371.261 778.872 381.276 778.769C381.652 778.764 382.018 778.649 382.33 778.437C382.642 778.225 382.886 777.925 383.031 777.576L395.54 747.56C395.577 747.475 395.592 747.382 395.583 747.289C395.574 747.196 395.541 747.107 395.488 747.029C395.436 746.951 395.364 746.887 395.28 746.842C395.195 746.798 395.102 746.774 395.006 746.774C356.736 746.606 318.38 746.741 279.941 747.181C246.626 747.574 221.131 722.346 221.103 689.185C220.982 587.869 220.967 486.554 221.061 385.238C221.07 378.087 223.448 369.823 228.193 360.444C236.279 344.459 248.662 334.266 265.341 329.867C273.694 327.649 284.476 327.747 293.278 327.747C438.584 327.906 583.889 327.911 729.194 327.761C735.634 327.761 742.068 327.925 748.498 328.253C772.533 329.474 794.069 348.946 800.612 371.563C801.866 375.888 802.493 382.027 802.493 389.983C802.446 487.302 802.479 584.626 802.591 681.955C802.601 692.082 801.95 699.645 800.64 704.643C795.572 723.904 779.665 740.962 759.673 745.525C755.883 746.395 750.038 746.826 742.138 746.816C708.884 746.76 675.602 746.774 642.292 746.858C642.216 746.858 642.142 746.876 642.074 746.911C642.007 746.946 641.95 746.996 641.907 747.059C641.864 747.121 641.837 747.193 641.828 747.268C641.819 747.343 641.829 747.42 641.857 747.49Z" fill="#000F18"/>
<path d="M279.352 796.459C279.352 800.581 277.715 804.534 274.8 807.448C271.886 810.363 267.933 812 263.811 812C259.689 812 255.736 810.363 252.821 807.448C249.907 804.534 248.27 800.581 248.27 796.459C248.27 792.337 249.907 788.384 252.821 785.469C255.736 782.555 259.689 780.917 263.811 780.917C267.933 780.917 271.886 782.555 274.8 785.469C277.715 788.384 279.352 792.337 279.352 796.459Z" fill="#000F18"/>
<path d="M777.433 796.501C777.433 800.548 775.825 804.43 772.964 807.292C770.102 810.154 766.22 811.761 762.173 811.761C758.125 811.761 754.244 810.154 751.382 807.292C748.52 804.43 746.912 800.548 746.912 796.501C746.912 792.453 748.52 788.572 751.382 785.71C754.244 782.848 758.125 781.24 762.173 781.24C766.22 781.24 770.102 782.848 772.964 785.71C775.825 788.572 777.433 792.453 777.433 796.501Z" fill="#000F18"/>
<path d="M309.81 810.219C306.287 809.904 303.038 808.153 300.777 805.35C298.515 802.547 297.428 798.922 297.754 795.273C298.08 791.624 299.792 788.249 302.513 785.891C305.235 783.533 308.743 782.385 312.266 782.699C315.79 783.013 319.039 784.765 321.3 787.567C323.561 790.37 324.648 793.995 324.323 797.644C323.997 801.294 322.285 804.669 319.563 807.027C316.842 809.385 313.334 810.533 309.81 810.219Z" fill="#0594E0"/>
<path d="M716.005 809.498C712.682 808.399 709.947 805.979 708.402 802.77C706.856 799.56 706.627 795.825 707.765 792.385C708.902 788.946 711.313 786.083 714.467 784.428C717.621 782.773 721.26 782.461 724.583 783.56C727.906 784.659 730.641 787.079 732.186 790.288C733.732 793.498 733.961 797.233 732.823 800.673C731.686 804.112 729.275 806.974 726.121 808.63C722.967 810.285 719.328 810.597 716.005 809.498Z" fill="#0594E0"/>
<path d="M638.979 566.034V545.214" stroke="#FCAEAC" stroke-width="2"/>
<path d="M576.464 616.842C566.271 615.868 556.107 615.831 545.971 616.729" stroke="#FFD980" stroke-width="2"/>
<path d="M360.821 590.588C360.756 590.71 360.704 590.827 360.667 590.939C360.629 591.052 360.559 591.108 360.456 591.108L351.12 591.417" stroke="#FACB80" stroke-width="2"/>
<path d="M351.12 591.417L333.669 591.361C333.236 591.359 332.807 591.443 332.406 591.608C332.006 591.774 331.643 592.017 331.337 592.324C331.031 592.631 330.79 592.995 330.626 593.396C330.463 593.797 330.38 594.227 330.384 594.66L330.721 642.913" stroke="#FFD980" stroke-width="2"/>
<path d="M361.537 591.361L361.734 643.348" stroke="#FACB80" stroke-width="2"/>
<path d="M351.961 643.278C350.96 638.607 350.534 633.675 350.684 628.48C350.946 619.158 351.077 614.464 351.077 614.399C350.946 607.894 350.815 601.394 350.684 594.899C350.684 594.646 350.539 594.314 350.249 593.902C349.993 593.537 349.86 593.104 349.87 592.666C349.898 591.787 350.314 591.37 351.119 591.417" stroke="#FAA501" stroke-width="2"/>
<path d="M639.259 590.181L640.129 643.376" stroke="#FC882D" stroke-width="2"/>
<path d="M522.117 713.824C523.746 703.323 523.058 692.19 522.946 678.361C522.946 677.968 523.048 677.482 523.254 676.901C523.591 675.928 523.353 675.404 522.538 675.329" stroke="#E0EDF7" stroke-width="2"/>
<path d="M577.907 778.643C578.666 775.405 577.711 772.62 575.044 770.29C568.571 764.632 556.147 766.598 548.158 766.527C509.172 766.176 470.199 765.685 431.212 766.289C429.471 766.317 426.692 766.162 422.873 765.825" stroke="#E0EDF7" stroke-width="2"/>
<path d="M638.978 566.034V545.214C639.016 539.645 639.034 534.184 639.034 528.83C639.02 522.26 636.746 518.638 630.021 518.553C615.551 518.404 601.072 518.375 586.584 518.469C579.592 518.511 576.321 521.909 576.293 528.633C576.134 558.116 576.19 587.518 576.462 616.841C566.269 615.868 556.105 615.831 545.969 616.729C545.613 516.04 545.552 442.269 545.786 395.416C545.828 386.347 540.83 385.153 532.772 385.181C523.38 385.223 514.324 383.019 514.437 396.244C514.484 402.019 514.526 407.953 514.563 414.046C514.565 414.226 514.531 414.404 514.463 414.571C514.396 414.738 514.296 414.89 514.169 415.018C514.043 415.146 513.892 415.247 513.726 415.317C513.559 415.386 513.381 415.422 513.201 415.422C506.144 415.44 498.937 415.459 491.581 415.478C485.502 415.492 483.508 419.942 483.494 425.572C483.466 430.439 483.462 435.25 483.48 440.004C483.48 440.365 483.337 440.712 483.082 440.967C482.826 441.223 482.48 441.366 482.119 441.366L459.642 441.324C458.76 441.324 457.887 441.499 457.074 441.838C456.26 442.178 455.522 442.675 454.901 443.302C454.281 443.929 453.792 444.672 453.461 445.489C453.13 446.306 452.964 447.181 452.973 448.063L453.423 494.771C453.424 494.889 453.403 495.006 453.36 495.116C453.316 495.226 453.251 495.326 453.169 495.41C453.087 495.495 452.989 495.563 452.881 495.61C452.772 495.657 452.656 495.682 452.538 495.683C435.56 495.786 418.507 495.824 401.379 495.796C394.486 495.782 392.212 501.145 392.254 507.505C392.404 525.493 392.493 543.585 392.521 561.78C392.524 562.23 392.347 562.664 392.029 562.985C391.71 563.306 391.276 563.489 390.822 563.493C383.943 563.567 376.932 563.689 369.791 563.858C363.006 564.017 359.814 567.541 360.216 574.429C360.535 579.83 360.736 585.216 360.82 590.588C360.755 590.71 360.703 590.827 360.666 590.939C360.628 591.052 360.558 591.108 360.455 591.108L351.119 591.417L333.668 591.36C333.235 591.359 332.806 591.443 332.406 591.608C332.005 591.773 331.642 592.016 331.336 592.323C331.031 592.63 330.789 592.995 330.626 593.396C330.462 593.797 330.38 594.226 330.383 594.66L330.72 642.912L255.849 643.151C255.58 643.151 255.321 643.043 255.13 642.851C254.938 642.66 254.828 642.399 254.824 642.126C254.796 559.922 254.731 477.657 254.628 395.332C254.628 388.593 255.213 383.571 256.383 380.268C259.668 371.03 267.698 363.196 277.512 361.427C279.15 361.127 283.586 360.982 290.821 360.992C441.508 361.085 592.195 361.123 742.882 361.104C749.012 361.104 754.871 363.874 760.459 369.415C766.093 374.993 768.939 381.788 768.995 389.8C769.538 474.082 769.701 558.293 769.486 642.435C769.486 642.51 769.471 642.585 769.442 642.655C769.413 642.725 769.371 642.788 769.318 642.842C769.264 642.895 769.201 642.938 769.131 642.967C769.061 642.996 768.986 643.01 768.91 643.01L702.491 643.081C702.309 643.081 702.134 643.01 702.005 642.883C701.876 642.757 701.803 642.585 701.803 642.407C701.775 621.507 701.752 600.509 701.733 579.413C701.733 566.708 698.869 566.034 687.385 565.837C672.429 565.594 657.468 565.514 642.502 565.598C641.594 565.608 640.419 565.753 638.978 566.034Z" fill="white"/>
<path d="M514.394 642.491C514.394 642.733 514.298 642.965 514.127 643.136C513.956 643.308 513.724 643.404 513.482 643.404H485.909C485.789 643.404 485.67 643.38 485.559 643.334C485.449 643.288 485.348 643.221 485.263 643.136C485.179 643.052 485.111 642.951 485.066 642.84C485.02 642.73 484.996 642.611 484.996 642.491V443.219C484.996 443.099 485.02 442.981 485.066 442.87C485.111 442.759 485.179 442.659 485.263 442.574C485.348 442.489 485.449 442.422 485.559 442.376C485.67 442.33 485.789 442.307 485.909 442.307H513.482C513.724 442.307 513.956 442.403 514.127 442.574C514.298 442.745 514.394 442.977 514.394 443.219V642.491Z" fill="#F85D58"/>
<path d="M453.311 643.193C453.311 643.29 453.272 643.382 453.204 643.451C453.135 643.519 453.042 643.558 452.946 643.558H424.558C424.462 643.558 424.369 643.519 424.3 643.451C424.232 643.382 424.193 643.29 424.193 643.193V523.411C424.193 523.314 424.232 523.221 424.3 523.153C424.369 523.084 424.462 523.046 424.558 523.046H452.946C453.042 523.046 453.135 523.084 453.204 523.153C453.272 523.221 453.311 523.314 453.311 523.411V643.193Z" fill="#FFB301"/>
<path d="M638.978 545.214V566.034C638.229 574.027 638.322 582.076 639.258 590.181L640.129 643.375L609.72 643.137C609.084 643.127 608.761 642.8 608.751 642.154L608.33 545.579C608.33 545.204 608.513 545.017 608.878 545.017L638.978 545.214Z" fill="#F85D58"/>
<path d="M639.259 590.181L668.348 590.644C668.956 590.654 669.26 590.963 669.26 591.571L669.064 642.505C669.064 642.645 669.036 642.783 668.982 642.911C668.929 643.04 668.85 643.157 668.751 643.255C668.651 643.353 668.534 643.43 668.404 643.482C668.275 643.534 668.136 643.56 667.997 643.558L640.129 643.376L639.259 590.181Z" fill="#FFB301"/>
<path d="M360.82 590.588C360.886 591.038 361.124 591.295 361.536 591.36L361.733 643.347L351.961 643.277C350.96 638.607 350.534 633.674 350.684 628.48C350.946 619.158 351.077 614.464 351.077 614.399C350.946 607.894 350.815 601.394 350.684 594.898C350.684 594.646 350.539 594.313 350.249 593.901C349.993 593.537 349.86 593.104 349.87 592.666C349.898 591.786 350.314 591.37 351.119 591.417L360.455 591.108C360.558 591.108 360.628 591.052 360.666 590.939C360.703 590.827 360.755 590.71 360.82 590.588Z" fill="#F49700"/>
<path d="M351.12 591.417C350.315 591.37 349.898 591.786 349.87 592.666C349.861 593.104 349.994 593.537 350.249 593.901C350.539 594.313 350.685 594.646 350.685 594.898C350.816 601.394 350.947 607.894 351.078 614.399C351.078 614.464 350.947 619.158 350.685 628.48C350.535 633.674 350.961 638.607 351.962 643.277L330.721 642.912L330.384 594.66C330.38 594.226 330.463 593.797 330.626 593.396C330.79 592.995 331.031 592.63 331.337 592.323C331.643 592.016 332.006 591.773 332.406 591.608C332.807 591.443 333.236 591.359 333.669 591.36L351.12 591.417Z" fill="#FFB301"/>
<path d="M361.537 591.36H391.553C392.152 591.36 392.451 591.66 392.451 592.259L392.409 642.491C392.409 642.959 392.171 643.193 391.693 643.193L361.734 643.347L361.537 591.36Z" fill="white"/>
<path d="M576.464 616.841L576.745 642.266C576.746 642.432 576.715 642.597 576.653 642.751C576.59 642.905 576.498 643.045 576.38 643.164C576.263 643.283 576.123 643.377 575.969 643.442C575.815 643.508 575.649 643.542 575.481 643.544L547.052 643.656C546.816 643.656 546.589 643.564 546.421 643.398C546.253 643.233 546.157 643.008 546.153 642.772L545.971 616.729C556.107 615.831 566.271 615.868 576.464 616.841Z" fill="#FFB301"/>
<path d="M522.117 713.824C523.746 703.323 523.058 692.19 522.946 678.361C522.946 677.968 523.048 677.481 523.254 676.901C523.591 675.928 523.353 675.403 522.538 675.329L768.785 675.483C769.263 675.483 769.497 675.726 769.487 676.213C769.384 680.893 769.258 685.441 769.108 689.859C768.673 701.82 760.039 710.567 748.864 713.052C746.898 713.482 741.498 713.698 732.662 713.698C662.495 713.688 592.313 713.73 522.117 713.824Z" fill="#C0DBEF"/>
<path d="M522.537 675.329C523.352 675.403 523.59 675.928 523.253 676.901C523.048 677.481 522.945 677.968 522.945 678.361C523.057 692.19 523.745 703.323 522.116 713.824C441.634 713.815 361.143 713.861 280.643 713.964C269.257 713.978 260.146 706.145 256.158 695.924C253.898 690.112 254.488 683.134 254.586 676.62C254.595 676.087 254.867 675.82 255.4 675.82L522.537 675.329Z" fill="white"/>
<path d="M577.907 778.643C578.666 775.404 577.711 772.62 575.044 770.289C568.571 764.632 556.147 766.597 548.159 766.527C509.172 766.176 470.199 765.685 431.212 766.288C429.471 766.316 426.692 766.162 422.873 765.825L429.008 748.136C429.364 747.125 430.08 746.619 431.156 746.619L606.814 746.802C607.152 746.803 607.481 746.909 607.757 747.104C608.033 747.3 608.243 747.577 608.358 747.897L619.197 777.997C619.384 778.54 619.192 778.811 618.621 778.811L577.907 778.643Z" fill="#C0DBEF"/>
<path d="M577.908 778.643L418.409 778.755C418.344 778.755 418.279 778.739 418.222 778.708C418.164 778.677 418.114 778.633 418.077 778.578C418.04 778.523 418.016 778.459 418.008 778.392C418 778.325 418.007 778.257 418.03 778.193L422.874 765.825C426.692 766.162 429.472 766.316 431.213 766.288C470.2 765.684 509.172 766.176 548.159 766.527C556.147 766.597 568.572 764.632 575.044 770.289C577.712 772.62 578.666 775.404 577.908 778.643Z" fill="white"/>
<path d="M337.852 391.162C337.852 392.559 337.576 393.943 337.042 395.234C336.507 396.526 335.723 397.699 334.735 398.687C333.747 399.675 332.574 400.459 331.282 400.994C329.991 401.528 328.607 401.804 327.21 401.804C324.388 401.804 321.681 400.683 319.685 398.687C317.689 396.691 316.568 393.984 316.568 391.162C316.568 388.34 317.689 385.633 319.685 383.637C321.681 381.642 324.388 380.52 327.21 380.52C328.607 380.52 329.991 380.796 331.282 381.33C332.574 381.865 333.747 382.649 334.735 383.637C335.723 384.625 336.507 385.799 337.042 387.09C337.576 388.381 337.852 389.765 337.852 391.162Z" fill="#0594E0"/>
<path d="M422.294 416.245C419.441 415.808 416.888 414.198 415.196 411.768C413.503 409.339 412.81 406.288 413.269 403.289C413.728 400.289 415.302 397.586 417.643 395.773C419.985 393.961 422.903 393.188 425.755 393.624C428.608 394.061 431.161 395.671 432.853 398.101C434.546 400.53 435.239 403.581 434.779 406.58C434.32 409.58 432.747 412.283 430.406 414.096C428.064 415.908 425.146 416.681 422.294 416.245Z" fill="#F49700"/>
<path d="M717.069 406.883C717.086 408.51 716.782 410.126 716.175 411.636C715.567 413.147 714.669 414.523 713.53 415.686C712.391 416.849 711.034 417.776 709.536 418.415C708.039 419.054 706.43 419.391 704.802 419.408L667.292 419.801C665.664 419.818 664.049 419.514 662.538 418.907C661.028 418.3 659.652 417.401 658.489 416.262C657.325 415.123 656.398 413.766 655.759 412.269C655.121 410.771 654.783 409.163 654.766 407.535L654.755 406.44C654.738 404.812 655.041 403.197 655.648 401.686C656.256 400.176 657.154 398.8 658.293 397.637C659.432 396.474 660.789 395.546 662.287 394.908C663.784 394.269 665.393 393.931 667.021 393.914L704.531 393.521C706.159 393.504 707.774 393.808 709.285 394.415C710.795 395.023 712.171 395.921 713.335 397.06C714.498 398.199 715.425 399.556 716.064 401.054C716.702 402.551 717.04 404.16 717.057 405.788L717.069 406.883Z" fill="#000F18"/>
<path d="M616.924 416.657C616.924 420.868 615.251 424.907 612.273 427.885C609.295 430.863 605.256 432.536 601.045 432.536C596.834 432.536 592.795 430.863 589.818 427.885C586.84 424.907 585.167 420.868 585.167 416.657C585.167 412.446 586.84 408.407 589.818 405.43C592.795 402.452 596.834 400.779 601.045 400.779C605.256 400.779 609.295 402.452 612.273 405.43C615.251 408.407 616.924 412.446 616.924 416.657Z" fill="#000F18"/>
<path d="M395.259 422.006C395.259 425.026 394.059 427.922 391.924 430.057C389.789 432.192 386.893 433.392 383.873 433.392C380.853 433.392 377.957 432.192 375.822 430.057C373.687 427.922 372.487 425.026 372.487 422.006C372.487 418.986 373.687 416.09 375.822 413.955C377.957 411.82 380.853 410.62 383.873 410.62C386.893 410.62 389.789 411.82 391.924 413.955C394.059 416.09 395.259 418.986 395.259 422.006Z" fill="#F49700"/>
<path d="M352.82 433.059C352.825 434.595 352.528 436.116 351.945 437.537C351.363 438.958 350.506 440.25 349.424 441.34C348.341 442.43 347.055 443.296 345.638 443.888C344.222 444.481 342.702 444.789 341.166 444.794L294.5 444.957C292.965 444.963 291.443 444.665 290.022 444.083C288.601 443.5 287.309 442.643 286.219 441.561C285.129 440.479 284.264 439.192 283.671 437.776C283.078 436.359 282.77 434.839 282.765 433.304L282.762 432.405C282.756 430.869 283.054 429.347 283.636 427.927C284.219 426.506 285.076 425.213 286.158 424.124C287.24 423.034 288.527 422.168 289.943 421.575C291.36 420.983 292.88 420.675 294.416 420.67L341.081 420.507C342.617 420.501 344.139 420.798 345.56 421.381C346.981 421.964 348.273 422.821 349.363 423.903C350.452 424.985 351.318 426.271 351.911 427.688C352.504 429.105 352.811 430.625 352.817 432.16L352.82 433.059Z" fill="#0594E0"/>
<path d="M386.595 461.961C384.42 460.695 382.855 458.586 382.243 456.098C381.632 453.61 382.025 450.947 383.336 448.694C384.647 446.441 386.769 444.784 389.234 444.086C391.7 443.389 394.307 443.708 396.482 444.974C398.657 446.24 400.223 448.35 400.834 450.838C401.445 453.326 401.052 455.989 399.741 458.242C398.43 460.494 396.309 462.152 393.843 462.849C391.378 463.547 388.771 463.228 386.595 461.961Z" fill="#F49700"/>
<path d="M637.603 466.229C632.24 463.712 629.909 459.411 630.611 453.327C631.622 444.581 638.852 443.5 646.77 443.528C670.272 443.594 693.769 443.626 717.261 443.626C724.692 443.617 728.431 443.617 728.478 443.626C736.228 444.778 742.644 452.71 737.926 460.67C735.128 465.378 730.93 467.732 725.333 467.732C699.015 467.75 672.691 467.661 646.363 467.465C642.217 467.437 639.297 467.025 637.603 466.229Z" fill="#0594E0"/>
<path d="M319.363 487.187C316.572 485.759 314.48 483.248 313.547 480.206C312.613 477.164 312.915 473.84 314.385 470.967C315.113 469.544 316.106 468.274 317.308 467.23C318.51 466.186 319.896 465.388 321.388 464.882C322.88 464.376 324.449 464.171 326.004 464.28C327.56 464.389 329.071 464.809 330.453 465.516C333.244 466.944 335.336 469.456 336.27 472.497C337.204 475.539 336.902 478.863 335.431 481.737C334.703 483.16 333.71 484.429 332.509 485.473C331.307 486.517 329.921 487.315 328.429 487.821C326.936 488.327 325.368 488.532 323.813 488.423C322.257 488.314 320.745 487.894 319.363 487.187Z" fill="#0594E0"/>
<path d="M596.904 482.473C596.904 486.848 595.166 491.044 592.073 494.137C588.979 497.231 584.783 498.969 580.408 498.969C576.033 498.969 571.837 497.231 568.744 494.137C565.65 491.044 563.912 486.848 563.912 482.473C563.912 478.098 565.65 473.902 568.744 470.808C571.837 467.715 576.033 465.977 580.408 465.977C584.783 465.977 588.979 467.715 592.073 470.808C595.166 473.902 596.904 478.098 596.904 482.473Z" fill="#000F18"/>
<path d="M720.42 498.183C720.42 500.677 719.429 503.07 717.665 504.834C715.901 506.598 713.508 507.589 711.014 507.589C708.519 507.589 706.126 506.598 704.362 504.834C702.598 503.07 701.607 500.677 701.607 498.183C701.607 495.688 702.598 493.295 704.362 491.531C706.126 489.767 708.519 488.776 711.014 488.776C713.508 488.776 715.901 489.767 717.665 491.531C719.429 493.295 720.42 495.688 720.42 498.183Z" fill="#F49700"/>
<path d="M681.786 529.81C678.73 529.746 675.825 528.428 673.711 526.145C671.597 523.862 670.446 520.802 670.512 517.638C670.579 514.474 671.856 511.465 674.064 509.272C676.272 507.08 679.23 505.885 682.286 505.949C685.342 506.013 688.247 507.331 690.361 509.614C692.475 511.896 693.626 514.957 693.56 518.121C693.494 521.285 692.216 524.294 690.008 526.486C687.8 528.678 684.842 529.874 681.786 529.81Z" fill="#F49700"/>
<path d="M365.519 523.107C365.509 524.636 365.197 526.147 364.602 527.555C364.008 528.963 363.141 530.24 362.053 531.313C360.965 532.386 359.676 533.235 358.26 533.81C356.844 534.385 355.328 534.675 353.8 534.664L319.264 534.423C317.736 534.413 316.225 534.101 314.817 533.506C313.409 532.912 312.132 532.045 311.059 530.957C309.985 529.869 309.137 528.58 308.562 527.164C307.987 525.748 307.697 524.232 307.707 522.704L307.715 521.665C307.725 520.137 308.037 518.625 308.632 517.217C309.226 515.809 310.093 514.532 311.181 513.459C312.269 512.386 313.558 511.538 314.974 510.963C316.39 510.388 317.906 510.097 319.434 510.108L353.97 510.349C355.498 510.36 357.009 510.671 358.417 511.266C359.825 511.861 361.102 512.727 362.175 513.815C363.248 514.904 364.097 516.193 364.672 517.609C365.247 519.025 365.537 520.54 365.526 522.069L365.519 523.107Z" fill="#F49700"/>
<path d="M736.621 534.067C736.621 537.582 735.225 540.952 732.74 543.438C730.254 545.923 726.883 547.32 723.368 547.32C719.853 547.32 716.482 545.923 713.997 543.438C711.512 540.952 710.115 537.582 710.115 534.067C710.115 530.552 711.512 527.181 713.997 524.695C716.482 522.21 719.853 520.814 723.368 520.814C726.883 520.814 730.254 522.21 732.74 524.695C735.225 527.181 736.621 530.552 736.621 534.067Z" fill="#FFB301"/>
<path d="M310.056 577.476C310.056 581.62 308.41 585.594 305.479 588.525C302.549 591.455 298.574 593.101 294.43 593.101C290.286 593.101 286.312 591.455 283.381 588.525C280.451 585.594 278.805 581.62 278.805 577.476C278.805 573.332 280.451 569.357 283.381 566.427C286.312 563.496 290.286 561.85 294.43 561.85C298.574 561.85 302.549 563.496 305.479 566.427C308.41 569.357 310.056 573.332 310.056 577.476Z" fill="#000F18"/>
<path d="M734.39 616.235C730.399 616.423 726.495 614.969 723.536 612.194C720.577 609.418 718.806 605.548 718.612 601.434C718.515 599.397 718.81 597.362 719.477 595.445C720.144 593.527 721.172 591.765 722.502 590.259C723.831 588.753 725.436 587.532 727.225 586.667C729.014 585.801 730.951 585.308 732.927 585.215C736.918 585.026 740.823 586.48 743.782 589.256C746.741 592.031 748.512 595.901 748.706 600.015C748.802 602.052 748.508 604.087 747.841 606.004C747.173 607.922 746.145 609.684 744.816 611.19C743.487 612.696 741.882 613.917 740.093 614.782C738.304 615.648 736.366 616.142 734.39 616.235Z" fill="#000F18"/>
</svg>
