<svg width="1024" height="1024" viewBox="0 0 1024 1024" fill="none" xmlns="http://www.w3.org/2000/svg">
<rect width="1024" height="1024" fill="white"/>
<path d="M384.43 700.737C384.482 700.705 384.525 700.66 384.554 700.606C384.584 700.552 384.598 700.492 384.596 700.432C384.594 700.373 384.576 700.316 384.543 700.268C384.511 700.219 384.465 700.182 384.412 700.159C321.786 670.078 281.573 610.271 280.323 540.368C280.111 528.288 279.962 516.184 279.875 504.055C279.875 503.445 279.589 503.041 279.016 502.842C251.735 493.53 256.344 471.081 256.922 448.427C257.296 433.779 264.48 422.489 277.038 415.473C277.607 415.153 278.082 414.693 278.416 414.136C278.75 413.579 278.931 412.946 278.942 412.3C279.334 384.496 299.002 361.189 324.324 351.485C324.934 351.249 325.183 350.814 325.071 350.179C317.942 306.793 359.556 272.738 400.87 287.498C416.943 293.233 428.55 304.983 435.691 322.748C435.917 323.317 436.308 323.805 436.813 324.151C437.318 324.497 437.915 324.684 438.527 324.689C463.669 324.9 484.358 334.355 500.593 353.053C500.839 353.333 501.146 353.553 501.49 353.697C501.834 353.841 502.206 353.905 502.577 353.883C502.948 353.861 503.308 353.755 503.631 353.572C503.953 353.39 504.229 353.135 504.437 352.829C536.552 305.487 601.416 304.087 638.308 346.372C642.021 350.627 645.418 356.393 648.832 361.375C648.957 361.557 649.12 361.709 649.31 361.821C649.5 361.932 649.712 362 649.932 362.02C650.151 362.039 650.372 362.01 650.579 361.934C650.786 361.858 650.973 361.738 651.128 361.581C661.901 350.422 672.836 339.424 683.933 328.589C705.859 307.166 739.187 308.417 758.426 332.526C767.495 343.909 773.019 363.26 764.323 376.435C762.009 379.955 760.044 382.605 758.426 384.384C744.991 399.256 735.567 408.755 726.349 416.051C726.227 416.15 726.129 416.275 726.063 416.417C725.998 416.56 725.965 416.715 725.969 416.872C725.972 417.029 726.012 417.183 726.084 417.322C726.157 417.461 726.26 417.581 726.386 417.675C736.127 424.766 742.714 431.577 743.237 443.874C743.821 457.173 743.641 468.823 742.695 478.825C741.501 491.608 732.245 498.512 720.564 502.3C719.48 502.654 718.535 503.339 717.859 504.259C717.183 505.179 716.811 506.289 716.794 507.432C716.477 529.974 718.362 552.348 713.846 574.405C702.388 630.312 665.198 674.836 614.105 699.431C613.085 699.929 612.979 700.569 613.788 701.353C622.204 709.545 626.197 720.798 618.77 731.322C613.116 739.309 606.883 740.037 596.751 739.981C531.003 739.62 465.262 739.626 399.527 739.999C387.752 740.055 377.75 737.126 374.484 725.108C371.685 714.733 375 706.609 384.43 700.737Z" fill="#010112"/>
<path d="M727.972 352.567C725.944 358.103 722.107 363.142 716.459 367.683C710.873 372.161 707.327 375.147 705.822 376.64C694.265 388.097 682.322 399.151 669.994 409.8C669.533 410.198 668.289 410.565 666.262 410.901C663.624 411.336 660.738 411.616 657.603 411.74" stroke="#EA645F" stroke-width="2"/>
<path d="M610.317 367.496C609.894 375.906 609.179 381.212 608.171 383.413C606.019 388.153 601.808 393.583 595.538 399.704C591.507 403.642 586.917 405.825 581.916 408.157C581.356 408.419 580.771 408.555 580.162 408.568C578.557 408.593 577.593 409.314 577.269 410.733C577.12 411.355 576.728 411.684 576.094 411.722L572.082 411.983" stroke="#80ECFC" stroke-width="2"/>
<path d="M465.361 368.205C467.762 384.266 462.873 396.93 450.694 406.198C448.84 407.616 446.831 408.705 444.667 409.464C444.107 409.663 443.653 409.999 443.305 410.471C443.093 410.745 442.863 410.988 442.614 411.199C442.203 411.535 441.65 411.709 440.953 411.722C439.249 411.759 437.551 411.821 435.859 411.908" stroke="#80ECFC" stroke-width="2"/>
<path d="M314.77 447.009C312.655 448.838 311.169 450.648 310.31 452.439C307.007 459.362 319.865 465.128 324.492 466.453C326.582 467.05 330.227 467.511 335.427 467.834C339.383 468.095 343.383 468.531 347.426 469.14" stroke="#FFB6B2" stroke-width="2"/>
<path d="M347.426 469.14C332.311 473.283 327.925 487.67 338.226 499.762" stroke="#80A0A9" stroke-width="2"/>
<path d="M338.226 499.762C336.248 502.574 334.973 506.014 334.401 510.082C332.628 522.435 333.953 533.184 334.401 545.518C334.588 550.37 335.247 555.023 336.379 559.476C340.895 577.142 348.54 593.918 359.313 609.804" stroke="#FFB6B2" stroke-width="2"/>
<path d="M359.313 609.804C353.472 615.272 347.967 615.179 340.988 613.555" stroke="#EAADAC" stroke-width="2"/>
<path d="M359.313 609.804C362.025 613.038 365.023 615.663 368.307 617.679C376.431 622.68 385.494 627.538 395.496 632.253C434.907 650.764 485.067 659.087 527.352 646.136C563.852 634.94 596.321 611.875 613.993 577.092C618.372 568.496 621.159 562.792 622.353 559.98C628.225 546.159 630.912 530.235 630.414 512.209C630.389 510.928 630.564 509.205 630.937 507.04C631.26 505.112 631.26 503.351 630.937 501.759" stroke="#EA645F" stroke-width="2"/>
<path d="M630.937 501.759C637.232 502.107 643.558 502.499 649.915 502.935C663.985 503.886 674.024 485.524 663.388 474.944C656.203 467.797 642.189 469.402 629.407 469.682" stroke="#6A4E56" stroke-width="2"/>
<path d="M629.407 469.682C631.024 459.854 627.155 453.298 617.8 450.013C616.307 449.472 615.262 448.502 613.769 448.259C608.781 447.413 603.699 446.978 598.523 446.953" stroke="#EA645F" stroke-width="2"/>
<path d="M629.407 469.681L347.426 469.14" stroke="#80575C" stroke-width="2"/>
<path d="M630.937 501.759C519.197 501.485 425.378 501.579 349.479 502.039C344.453 502.064 340.702 501.305 338.227 499.762" stroke="#80575C" stroke-width="2"/>
<path d="M373.309 354.919C361.273 352.474 356.962 348.798 358.697 335.885C361.683 313.474 393.947 311.048 400.273 332.862C400.422 333.385 400.255 333.758 399.769 333.982C389.68 338.585 381.358 345.371 374.802 354.34C374.633 354.569 374.404 354.744 374.139 354.847C373.875 354.949 373.587 354.974 373.309 354.919Z" fill="white"/>
<path d="M727.972 352.568C725.945 358.104 722.107 363.142 716.459 367.683C710.873 372.161 707.328 375.147 705.822 376.64C694.265 388.098 682.322 399.151 669.994 409.8C669.534 410.198 668.29 410.565 666.262 410.901C663.624 411.336 660.738 411.616 657.603 411.741C653.933 412.101 654.163 410.018 658.294 405.489C673.931 388.359 689.905 371.539 706.214 355.031C713.492 347.66 718.81 345.626 727.972 352.568Z" fill="#FF6D65"/>
<path d="M610.317 367.496C609.894 375.906 609.179 381.212 608.171 383.414C606.019 388.154 601.808 393.584 595.538 399.704C591.507 403.642 586.917 405.825 581.916 408.158C581.356 408.419 580.771 408.556 580.161 408.568C578.557 408.593 577.593 409.315 577.269 410.733C577.12 411.355 576.728 411.685 576.093 411.722L572.081 411.983L521.399 412.375C521.312 412.377 521.225 412.362 521.144 412.331C521.062 412.299 520.988 412.251 520.925 412.19C520.863 412.13 520.813 412.057 520.779 411.976C520.745 411.896 520.727 411.809 520.727 411.722C520.634 403.716 520.653 395.73 523.34 388.266C536.552 351.355 580.777 337.845 610.317 367.496Z" fill="white"/>
<path d="M727.972 352.568C732.924 355.952 733.116 360.032 728.551 364.809C715.165 378.817 701.667 392.75 688.057 406.609C687.647 407.032 687.348 407.517 687.161 408.064C686.34 410.453 684.81 411.796 682.571 412.095C678.814 412.593 670.491 412.474 657.603 411.741C660.738 411.616 663.624 411.336 666.262 410.901C668.289 410.565 669.533 410.198 669.994 409.8C682.322 399.151 694.265 388.098 705.822 376.64C707.327 375.147 710.873 372.161 716.459 367.683C722.106 363.142 725.944 358.104 727.972 352.568Z" fill="#D45B59"/>
<path d="M465.362 368.205C467.763 384.266 462.874 396.93 450.694 406.198C448.841 407.616 446.832 408.705 444.667 409.464C444.107 409.663 443.653 409.999 443.305 410.471C443.093 410.745 442.863 410.988 442.614 411.199C442.204 411.535 441.65 411.709 440.954 411.722C439.249 411.759 437.551 411.821 435.859 411.908L391.223 412.076C390.589 412.089 390.265 411.778 390.253 411.143C388.722 369.605 429.645 345.868 465.362 368.205Z" fill="white"/>
<path d="M610.317 367.496C622.882 379.153 629.482 393.347 630.116 410.08C630.126 410.304 630.09 410.528 630.01 410.738C629.93 410.948 629.808 411.14 629.651 411.302C629.494 411.465 629.306 411.594 629.097 411.682C628.888 411.77 628.664 411.815 628.437 411.815L572.082 411.983L576.094 411.722C576.728 411.685 577.12 411.355 577.269 410.733C577.593 409.315 578.557 408.593 580.162 408.568C580.771 408.556 581.356 408.419 581.916 408.158C586.917 405.825 591.507 403.642 595.538 399.704C601.808 393.584 606.019 388.154 608.171 383.414C609.179 381.212 609.894 375.906 610.317 367.496Z" fill="#00D8F9"/>
<path d="M465.361 368.205C479.854 378.705 487.511 393.092 488.333 411.367C488.338 411.458 488.325 411.548 488.294 411.633C488.263 411.718 488.215 411.796 488.154 411.861C488.092 411.926 488.019 411.977 487.937 412.011C487.855 412.045 487.768 412.061 487.679 412.058L435.859 411.908C437.551 411.821 439.249 411.759 440.953 411.722C441.65 411.709 442.203 411.535 442.614 411.199C442.863 410.988 443.093 410.745 443.305 410.472C443.653 409.999 444.107 409.663 444.667 409.464C446.831 408.705 448.84 407.617 450.694 406.198C462.873 396.93 467.762 384.266 465.361 368.205Z" fill="#00D8F9"/>
<path d="M334.42 384.384C342.606 380.888 351.04 380.217 359.724 382.369C360.458 382.543 360.682 382.978 360.396 383.675C356.838 392.309 355.357 401.309 355.954 410.677C355.962 410.797 355.945 410.917 355.904 411.03C355.864 411.143 355.8 411.246 355.718 411.334C355.636 411.421 355.537 411.491 355.426 411.538C355.316 411.586 355.197 411.61 355.077 411.61L315.853 411.666C315.57 411.666 315.29 411.609 315.03 411.499C314.769 411.389 314.533 411.228 314.335 411.024C314.137 410.821 313.981 410.58 313.876 410.315C313.772 410.051 313.72 409.768 313.725 409.483C313.949 398.137 324.81 388.508 334.42 384.384Z" fill="white"/>
<path d="M314.77 447.009C312.656 448.838 311.169 450.648 310.311 452.439C307.008 459.362 319.865 465.128 324.493 466.453C326.583 467.05 330.228 467.511 335.428 467.834C339.384 468.095 343.383 468.531 347.426 469.14C332.311 473.283 327.926 487.67 338.227 499.762C336.249 502.574 334.974 506.014 334.401 510.082C332.629 522.435 333.953 533.184 334.401 545.518C334.588 550.37 335.247 555.023 336.379 559.476C340.895 577.142 348.54 593.918 359.313 609.804C353.473 615.272 347.968 615.178 340.989 613.555C340.404 613.356 339.875 612.858 339.402 612.062C328.747 594.129 320.611 574.498 319.193 553.449C318.248 539.528 318.279 516.513 319.286 484.405C319.411 480.138 316.985 477.146 312.009 475.429C302.622 472.201 285.212 468.282 291.967 453.354C295.904 444.639 305.384 445.628 314.77 447.009Z" fill="white"/>
<path d="M340.988 613.555C347.967 615.178 353.472 615.272 359.313 609.804C362.025 613.039 365.023 615.664 368.308 617.679C376.431 622.68 385.494 627.538 395.496 632.253C434.907 650.764 485.067 659.087 527.352 646.136C563.852 634.94 596.322 611.875 613.993 577.092C618.372 568.496 621.159 562.792 622.353 559.98C628.225 546.159 630.912 530.235 630.414 512.209C630.39 510.928 630.564 509.205 630.937 507.04C631.26 505.112 631.26 503.352 630.937 501.759C637.232 502.107 643.558 502.499 649.915 502.935C663.985 503.886 674.024 485.524 663.388 474.944C656.203 467.797 642.189 469.402 629.407 469.682C631.024 459.854 627.155 453.298 617.8 450.013C616.307 449.472 615.262 448.502 613.769 448.259C608.781 447.413 603.699 446.978 598.524 446.953C608.488 446.306 616.91 446.063 623.79 446.225C652.515 446.897 676.463 447.071 695.633 446.748C709.256 446.524 715.339 461.34 702.836 468.413C696.324 472.107 687.311 472.331 682.851 478.377C679.791 482.501 680.462 492 680.537 497.001C680.891 518.796 681.992 544.063 678.484 563.414C669.676 611.67 634.315 653.377 589.342 671.104C574.227 677.057 577.978 688.981 578.613 701.652C578.675 702.622 578.214 703.107 577.232 703.107L421.714 703.126C421.242 703.126 420.789 702.94 420.454 702.608C420.119 702.276 419.928 701.825 419.923 701.353C419.898 695.071 420.265 688.844 421.024 682.674C421.459 679.103 419.543 676.311 415.276 674.295C400.926 667.54 385.811 659.983 373.906 650.503C361.888 640.924 351.171 629.485 341.753 616.186C341.032 615.166 340.777 614.289 340.988 613.555Z" fill="#D45B59"/>
<path d="M314.77 447.009L598.524 446.953C603.699 446.978 608.781 447.413 613.769 448.259C615.262 448.502 616.307 449.472 617.8 450.013C627.155 453.298 631.024 459.854 629.407 469.682L347.426 469.14C343.383 468.531 339.383 468.095 335.427 467.834C330.227 467.511 326.582 467.051 324.492 466.453C319.865 465.128 307.007 459.362 310.31 452.439C311.169 450.648 312.655 448.838 314.77 447.009Z" fill="#FF6D65"/>
<path d="M347.426 469.141L629.406 469.682C642.189 469.402 656.203 467.797 663.387 474.944C674.024 485.524 663.984 503.887 649.914 502.935C643.557 502.499 637.231 502.108 630.937 501.759C519.197 501.486 425.377 501.579 349.479 502.039C344.453 502.064 340.702 501.305 338.226 499.763C327.925 487.67 332.311 473.283 347.426 469.141Z" fill="#010112"/>
<path d="M338.226 499.763C340.702 501.305 344.453 502.064 349.479 502.039C425.378 501.579 519.197 501.486 630.937 501.759C631.26 503.352 631.26 505.112 630.937 507.04C630.564 509.205 630.389 510.928 630.414 512.209C630.912 530.235 628.225 546.159 622.353 559.98C621.159 562.792 618.372 568.496 613.993 577.092C596.321 611.876 563.852 634.94 527.352 646.136C485.067 659.087 434.907 650.764 395.496 632.253C385.494 627.538 376.431 622.68 368.307 617.679C365.023 615.664 362.025 613.039 359.313 609.804C348.54 593.918 340.895 577.142 336.379 559.477C335.247 555.023 334.588 550.37 334.401 545.518C333.953 533.184 332.628 522.435 334.401 510.082C334.973 506.014 336.248 502.574 338.226 499.763Z" fill="#FF6D65"/>
<path d="M450.181 534.942C455.181 533.833 458.412 529.223 457.397 524.645C456.382 520.067 451.506 517.254 446.505 518.363C441.505 519.472 438.273 524.082 439.288 528.66C440.303 533.238 445.18 536.05 450.181 534.942Z" fill="white"/>
<path d="M486.821 535.628C491.726 535.628 495.703 531.651 495.703 526.746C495.703 521.84 491.726 517.863 486.821 517.863C481.915 517.863 477.938 521.84 477.938 526.746C477.938 531.651 481.915 535.628 486.821 535.628Z" fill="white"/>
<path d="M348.251 534.866C352.9 532.893 355.196 527.825 353.38 523.546C351.564 519.268 346.323 517.399 341.675 519.372C337.026 521.345 334.73 526.413 336.546 530.692C338.362 534.97 343.603 536.839 348.251 534.866Z" fill="white"/>
<path d="M412.405 533.914C416.397 531.099 417.451 525.723 414.76 521.908C412.069 518.093 406.651 517.283 402.659 520.099C398.668 522.915 397.613 528.291 400.304 532.106C402.996 535.92 408.413 536.73 412.405 533.914Z" fill="white"/>
<path d="M524.515 535.516C529.246 535.516 533.081 531.682 533.081 526.951C533.081 522.221 529.246 518.386 524.515 518.386C519.785 518.386 515.95 522.221 515.95 526.951C515.95 531.682 519.785 535.516 524.515 535.516Z" fill="white"/>
<path d="M578.158 533.457C582.029 530.444 582.847 525.021 579.986 521.345C577.124 517.669 571.667 517.132 567.796 520.146C563.925 523.159 563.106 528.582 565.968 532.258C568.829 535.934 574.287 536.471 578.158 533.457Z" fill="white"/>
<path d="M610 535.796C614.905 535.796 618.882 531.819 618.882 526.914C618.882 522.008 614.905 518.031 610 518.031C605.094 518.031 601.117 522.008 601.117 526.914C601.117 531.819 605.094 535.796 610 535.796Z" fill="white"/>
<path d="M649.187 527.166C649.17 531.989 652.707 535.911 657.087 535.927C661.467 535.942 665.031 532.044 665.048 527.221C665.065 522.398 661.528 518.476 657.148 518.46C652.768 518.445 649.204 522.343 649.187 527.166Z" fill="white"/>
</svg>
