<svg width="1024" height="1024" viewBox="0 0 1024 1024" fill="none" xmlns="http://www.w3.org/2000/svg">
<rect width="1024" height="1024" fill="white"/>
<path d="M722.482 296.753C714.75 290.931 708.161 295.427 702.483 301.119C684.931 318.749 669.571 334.577 656.402 348.603C654.99 350.11 653.661 351.293 652.413 352.15C652.33 352.205 652.233 352.236 652.134 352.239C652.035 352.243 651.936 352.219 651.85 352.171C651.763 352.123 651.691 352.052 651.641 351.966C651.591 351.88 651.566 351.782 651.568 351.683C652.053 339.953 652.335 328.222 652.413 316.492C652.456 311.112 650.282 306.954 645.89 304.017C639.028 299.456 629.997 302.874 627.307 310.229C626.692 311.927 626.401 315.05 626.436 319.598C626.575 338.423 626.622 357.067 626.579 375.528C626.579 376.481 626.216 377.396 625.565 378.088L607.476 397.503C606.775 398.248 606.424 398.109 606.424 397.087C606.268 378.357 606.151 359.562 606.073 340.702C606.056 335.539 605.692 332.008 604.981 330.111C601.252 320.183 587.139 319.91 581.928 328.864C580.707 330.969 580.087 334.321 580.07 338.922C579.983 365.657 579.962 392.418 580.005 419.205" stroke="#808989" stroke-width="2"/>
<path d="M580.004 419.204C579.415 419.248 578.042 419.235 575.885 419.165C565.203 418.802 560.499 424.233 555.353 433.369C552.52 438.398 549.31 442.972 547.14 448.391C547.098 448.487 547.027 448.567 546.937 448.62C546.847 448.673 546.743 448.697 546.639 448.686C546.535 448.676 546.437 448.633 546.359 448.564C546.281 448.495 546.226 448.402 546.204 448.3L545.658 445.506" stroke="#81DED3" stroke-width="2"/>
<path d="M545.659 445.506C545.494 440.109 545.49 434.682 545.646 429.224C545.672 428.253 545.113 426.88 543.969 425.104" stroke="#808989" stroke-width="2"/>
<path d="M543.97 425.104C548.986 413.114 546.196 403.892 535.601 397.438C533.712 396.294 531.048 396.29 527.609 397.425" stroke="#81DED3" stroke-width="2"/>
<path d="M527.608 397.425C541.513 384.248 555.01 370.919 568.101 357.439C580.81 344.34 564.566 324.445 550.882 338.934C542.046 348.299 533.105 357.552 524.061 366.692C523.801 366.952 523.675 366.9 523.684 366.536L523.97 342.222C523.97 341.946 524.076 341.673 524.269 341.455C536.445 327.72 549.96 314.92 563.176 302.159C567.386 298.096 570.089 294.829 571.284 292.36C576.197 282.198 564.631 271.335 555.561 275.259C553.169 276.29 549.54 279.314 544.671 284.33C538.026 291.174 531.455 298.013 524.957 304.849C524.004 305.854 523.632 305.672 523.84 304.303C524.446 300.162 524.736 295.67 524.71 290.827C524.607 269.602 524.516 248.385 524.438 227.178C524.403 220.394 521.12 215.902 514.587 213.702" stroke="#808989" stroke-width="2"/>
<path d="M543.97 425.104C542.384 425.087 540.509 426.074 538.343 428.067C531.811 434.079 525.166 440.351 518.408 446.884" stroke="#026862" stroke-width="2"/>
<path d="M518.408 446.884C517.905 437.536 517.749 428.513 517.94 419.815C518.083 413.383 508.428 414.475 505.972 417.515C504.715 419.066 504.083 421.773 504.074 425.637C504.048 432.732 504.014 439.914 503.97 447.183" stroke="#81DED3" stroke-width="2"/>
<path d="M503.971 447.183C497.955 444.09 492.094 437.826 487.208 433.122C484.245 430.276 481.048 428.08 477.799 425.676" stroke="#026862" stroke-width="2"/>
<path d="M720.974 320.689L680.066 360.844C679.156 361.736 679.338 362.161 680.612 362.117L700.676 361.403" stroke="#667E6D" stroke-width="2"/>
<path d="M700.676 361.403C709.617 361.351 726.783 359.869 728.264 373.111C728.966 379.44 725.12 384.807 719.285 387.016C716.686 387.99 713.567 387.795 710.708 387.782C691.328 387.679 671.944 387.735 652.556 387.951C651.464 387.96 650.204 388.653 648.774 390.031C643.957 394.639 638.95 399.53 633.752 404.702C632.669 405.785 632.89 406.253 634.415 406.105C638.85 405.672 643.706 405.486 648.982 405.547C659.95 405.668 670.922 405.759 681.898 405.819C685.97 405.845 688.868 406.279 690.592 407.119C697.076 410.264 700.091 418.698 695.608 424.857C692.446 429.197 688.058 431.394 682.444 431.446C660.058 431.653 637.672 431.718 615.286 431.64C614.013 431.64 612.648 431.264 611.284 431.134C610.917 431.092 610.549 431.194 610.257 431.42L603.305 436.774" stroke="#808989" stroke-width="2"/>
<path d="M603.304 436.774C594.987 440.646 582.122 437.865 580.264 427.248C579.788 424.511 579.701 421.829 580.004 419.204" stroke="#026862" stroke-width="2"/>
<path d="M558.524 458.605C557.813 460.191 557.588 461.468 557.848 462.439" stroke="#808989" stroke-width="2"/>
<path d="M585.956 488.507C581.416 490.153 576.955 492.552 572.571 495.706C572.346 495.867 572.159 496.075 572.022 496.316C571.886 496.557 571.804 496.826 571.782 497.103C571.759 497.379 571.797 497.658 571.893 497.92C571.989 498.181 572.141 498.419 572.337 498.617L578.627 504.893" stroke="#026862" stroke-width="2"/>
<path d="M578.627 504.893C582.274 506.574 581.698 510.736 576.898 517.381" stroke="#808989" stroke-width="2"/>
<path d="M576.899 517.381C574.768 518.196 572.962 520.305 571.48 523.71C571.229 524.29 571.346 524.78 571.831 525.178C575.036 527.821 578.424 529.857 581.993 531.286" stroke="#026862" stroke-width="2"/>
<path d="M581.992 531.286C587.814 534.976 592.549 539.291 596.196 544.229C596.39 544.507 596.668 544.717 596.989 544.827C597.612 545.043 598.158 545.381 598.626 545.84C599.336 546.525 599.219 546.724 598.275 546.438L596.053 545.762C595.715 545.658 595.481 545.771 595.351 546.1C594.875 547.261 594.667 548.768 594.727 550.622" stroke="#808989" stroke-width="2"/>
<path d="M594.728 550.622L555.561 545.905" stroke="#026862" stroke-width="2"/>
<path d="M555.561 545.905L553.923 546.074C553.412 546.126 553.222 546.399 553.352 546.893L557.991 563.669" stroke="#808989" stroke-width="2"/>
<path d="M557.991 563.67C554.889 562.977 550.926 560.902 546.1 557.445" stroke="#026862" stroke-width="2"/>
<path d="M546.101 557.445L545.516 598.015" stroke="#667E6D" stroke-width="2"/>
<path d="M545.516 598.015L544.502 601.875" stroke="#808989" stroke-width="2"/>
<path d="M544.502 601.875C541.539 600.653 538.771 598.903 536.198 596.625C529.943 591.08 523.909 585.696 518.096 580.472" stroke="#026862" stroke-width="2"/>
<path d="M518.096 580.472C515.973 578.228 513.877 576.587 511.806 575.547C511.406 575.348 510.944 575.315 510.52 575.456C507.722 576.4 505.395 578.111 503.542 580.589" stroke="#808989" stroke-width="2"/>
<path d="M503.542 580.589C496.724 586.419 490.265 592.241 484.166 598.054C482.771 599.388 481.013 600.48 478.89 601.329" stroke="#026862" stroke-width="2"/>
<path d="M478.89 601.329C477.998 600.081 477.513 598.79 477.435 597.456" stroke="#808989" stroke-width="2"/>
<path d="M477.435 597.456L477.526 576.846" stroke="#667E6D" stroke-width="2"/>
<path d="M477.527 576.846L477.852 546.36C477.854 546.202 477.823 546.045 477.761 545.9C477.699 545.754 477.607 545.623 477.491 545.514C477.375 545.405 477.237 545.322 477.087 545.268C476.937 545.215 476.777 545.193 476.617 545.204C462.981 546.217 449.54 547.56 436.294 549.232C434.223 549.501 432.131 550.12 430.017 551.09" stroke="#026862" stroke-width="2"/>
<path d="M430.017 551.09C429.068 543.177 432.551 540.149 437.749 535.458" stroke="#808989" stroke-width="2"/>
<path d="M437.748 535.457L451.38 525.425C451.678 525.205 451.924 524.923 452.103 524.599C452.281 524.274 452.387 523.915 452.413 523.546C452.439 523.176 452.384 522.806 452.253 522.459C452.122 522.113 451.917 521.799 451.653 521.54C449.686 519.617 447.754 518.317 445.857 517.641" stroke="#026862" stroke-width="2"/>
<path d="M445.857 517.641C441.413 513.154 441.045 508.995 444.753 505.166" stroke="#808989" stroke-width="2"/>
<path d="M444.753 505.166L448.353 500.306" stroke="#026862" stroke-width="2"/>
<path d="M594.663 472.146C581.539 472.952 568.466 474.719 555.445 477.448C553.738 477.803 553.097 476.872 553.521 474.654C553.539 474.567 553.56 474.485 553.586 474.407L557.849 462.439" stroke="#026862" stroke-width="2"/>
<path d="M557.848 462.438C561.915 476.538 574.819 460.333 578.835 455.785C581.191 453.108 581.1 450.513 578.562 448.001L577.977 447.416C575.369 444.835 572.753 444.822 570.128 447.377L558.523 458.605" stroke="#81DED3" stroke-width="2"/>
<path d="M558.524 458.605C555.284 458.614 552.737 459.653 550.883 461.724C548.683 464.176 547.045 465.943 545.971 467.026C545.9 467.099 545.809 467.149 545.709 467.17C545.609 467.19 545.505 467.18 545.411 467.141C545.317 467.101 545.238 467.035 545.182 466.949C545.126 466.864 545.098 466.764 545.1 466.662L545.659 445.506" stroke="#026862" stroke-width="2"/>
<path d="M527.609 397.425C523.879 400.973 519.981 406.417 515.199 407.678C505.725 410.173 499.722 401.531 493.068 396.619" stroke="#026862" stroke-width="2"/>
<path d="M493.068 396.619C481.216 384.655 469.43 372.968 457.708 361.559C454.295 358.232 451.913 355.209 450.561 352.488C445.727 342.742 457.968 328.785 467.857 335.868C470.387 337.678 472.012 338.965 472.731 339.727C481.021 348.538 489.39 357.166 497.837 365.613C498.521 366.298 498.837 366.159 498.786 365.197C498.482 358.449 498.461 351.531 498.721 344.444C498.85 340.988 497.486 340.234 495.264 338.012C482.286 325.078 469.309 312.135 456.331 299.183C452.199 295.05 448.95 290.866 450.223 285.395C451.176 281.315 453.918 278.105 458.449 275.766C465.103 272.322 469.586 275.714 474.004 280.327C481.818 288.462 489.828 296.48 498.032 304.381C498.43 304.771 498.63 304.684 498.63 304.121C498.56 279.985 498.43 255.845 498.24 231.7C498.175 223.539 498.799 219.212 505.543 214.43" stroke="#808989" stroke-width="2"/>
<path d="M518.408 446.884L512.599 451.796C512.243 452.098 511.803 452.286 511.337 452.335C510.872 452.383 510.401 452.291 509.987 452.069C507.657 450.804 505.651 449.175 503.97 447.183" stroke="#808989" stroke-width="2"/>
<path d="M493.068 396.619C477.28 399.608 475.252 412.018 477.799 425.676" stroke="#81DED3" stroke-width="2"/>
<path d="M477.799 425.676L477.227 452.017" stroke="#808989" stroke-width="2"/>
<path d="M477.228 452.017C476.24 451.254 475.525 450.111 475.083 448.586C473.511 443.206 470.431 437.956 467.91 432.927C465.58 428.284 463.267 425.061 460.971 423.259C456.016 419.369 450.051 418.243 443.077 419.88" stroke="#81DED3" stroke-width="2"/>
<path d="M443.076 419.88C442.912 417.177 442.821 414.552 442.804 412.005C442.682 387.375 442.643 362.741 442.687 338.103C442.695 334.395 442.366 331.722 441.699 330.085C439.503 324.692 433.2 321.261 427.483 322.353C420.595 323.678 416.931 330.228 416.853 336.959C416.645 357.102 416.684 377.287 416.97 397.516C416.969 397.608 416.943 397.697 416.893 397.774C416.843 397.851 416.773 397.913 416.689 397.951C416.606 397.989 416.514 398.003 416.423 397.99C416.332 397.977 416.247 397.939 416.177 397.88C410.069 392.413 404.252 386.548 398.725 380.285C396.944 378.27 395.814 377.971 395.827 375.035C395.965 357.231 396 339.433 395.931 321.638C395.913 316.691 395.788 313.711 395.554 312.698C392.838 301.158 377.569 298.234 371.799 309.124C370.768 311.065 370.248 313.902 370.24 317.636C370.196 328.829 370.227 339.983 370.331 351.098C370.331 351.188 370.306 351.277 370.259 351.355C370.212 351.432 370.144 351.495 370.064 351.537C369.983 351.578 369.893 351.597 369.802 351.591C369.712 351.584 369.625 351.553 369.551 351.501C368.511 350.764 367.541 349.933 366.64 349.006C354.511 336.548 342.413 324.068 330.345 311.567C323.475 304.455 318.797 299.824 316.311 297.676C311.312 293.361 306.014 292.88 300.418 296.233" stroke="#808989" stroke-width="2"/>
<path d="M802.738 495.914C778.94 495.299 754.869 495.203 730.525 495.628C726.973 495.697 723.551 495.827 720.259 496.018C719.635 496.061 719.553 495.871 720.012 495.446C729.195 486.947 738.222 478.193 747.094 469.183C750.576 465.636 755.293 461.022 755.852 456.175C756.398 451.393 754.254 447.105 750.277 444.324C744.048 439.958 737.876 440.867 731.759 447.053C712.202 466.792 700.611 478.683 685.173 494.64C684.672 495.158 684.073 495.569 683.412 495.848C682.751 496.127 682.041 496.269 681.326 496.265L661.626 496.135C660.993 496.126 660.911 495.91 661.379 495.485C672.901 484.725 683.864 473.519 694.269 461.867C699.995 455.465 700.026 449.063 694.36 442.66C691.778 439.741 688.543 438.411 684.653 438.671C681.101 438.896 678.523 439.867 676.921 441.582C661.197 458.319 644.979 474.745 629.476 491.652" stroke="#808989" stroke-width="2"/>
<path d="M629.477 491.652C627.095 485.223 622.438 482.04 615.507 482.1C609.148 482.161 604.639 482.759 601.98 483.894C596.964 486.051 591.623 487.588 585.957 488.507" stroke="#81DED3" stroke-width="2"/>
<path d="M585.957 488.507C589.067 486.124 591.679 483.807 593.793 481.554C596.331 478.869 596.621 475.733 594.663 472.146" stroke="#808989" stroke-width="2"/>
<path d="M594.662 472.146C602.442 469.599 607.215 464.284 608.983 456.201C610.321 450.094 607.047 443.427 603.304 436.774" stroke="#81DED3" stroke-width="2"/>
<path d="M738.686 333.957C731.626 341.087 724.799 347.953 718.206 354.554C715.555 357.218 714.269 359.025 710.149 358.934C706.762 358.864 703.375 358.934 699.987 359.142C699.502 359.176 699.19 359.362 699.052 359.7C698.87 360.159 699.013 360.471 699.48 360.636C699.965 360.809 700.364 361.065 700.676 361.403" stroke="#E6F4DE" stroke-width="2"/>
<path d="M437.749 535.458C433.209 536.948 428.882 538.576 424.767 540.344C417.58 543.436 412.59 544.606 405.625 542.501" stroke="#81DED3" stroke-width="2"/>
<path d="M405.625 542.5C401.622 540.144 398.378 537.393 395.891 534.249" stroke="#68D2B6" stroke-width="2"/>
<path d="M395.892 534.249C395.329 532.724 394.657 531.849 393.877 531.624" stroke="#81DED3" stroke-width="2"/>
<path d="M544.503 601.875C545.144 605.504 545.607 609.576 545.893 614.09C546.612 625.525 541.397 631.49 530.247 631.984" stroke="#81DED3" stroke-width="2"/>
<path d="M530.247 631.984C522.593 624.213 513.886 609.594 501.801 621.835C498.725 624.945 495.762 627.934 492.912 630.802" stroke="#026862" stroke-width="2"/>
<path d="M492.912 630.801C489.447 632.352 486.562 632.088 484.258 630.009C479.536 625.738 477.05 620.531 476.799 614.389C476.677 611.365 477.375 607.012 478.891 601.329" stroke="#81DED3" stroke-width="2"/>
<path d="M477.526 576.846C476.105 578.778 474.732 580.628 473.407 582.395C467.949 589.672 465.74 600.133 456.825 604.227C453.074 605.951 448.989 606.609 444.571 606.202" stroke="#68D2B6" stroke-width="2"/>
<path d="M444.571 606.202C443.973 605.908 443.336 605.921 442.661 606.241" stroke="#81DED3" stroke-width="2"/>
<path d="M442.661 606.241C441.959 597.456 444.649 586.683 434.552 582.304C429.415 580.078 424.442 580.13 419.634 582.46" stroke="#026862" stroke-width="2"/>
<path d="M395.891 534.249C392.928 535.825 390.113 537.636 387.445 539.68C385.487 541.171 385.786 542.5 388.341 543.67C388.537 543.755 388.752 543.791 388.965 543.774L405.625 542.5" stroke="#E6F4DE" stroke-width="2"/>
<path d="M430.017 551.09C427.999 551.48 425.976 552.372 423.949 553.767C413.981 560.616 411.032 572.532 419.634 582.46" stroke="#81DED3" stroke-width="2"/>
<path d="M419.634 582.46C392.751 582.59 366.107 582.725 339.702 582.863C336.332 582.881 333.364 584.08 330.8 586.463C324.627 592.22 325.212 600.835 331.372 606.54C333.338 608.359 335.14 609.26 336.778 609.243C351.012 609.104 365.245 609.156 379.479 609.399C383.079 609.464 386.912 609.087 390.616 608.996C391.396 608.979 391.508 609.243 390.954 609.789L375.243 625.37C374.127 626.478 372.615 627.103 371.032 627.111C353.004 627.172 334.828 627.111 316.506 626.929C309.241 626.851 304.615 627.449 300.249 632.816C295.116 639.132 297.767 648.306 304.823 651.698C306.573 652.538 309.328 652.98 313.088 653.023C323.536 653.144 333.992 653.006 344.458 652.607C344.538 652.605 344.617 652.624 344.687 652.663C344.757 652.701 344.816 652.759 344.856 652.828C344.896 652.897 344.916 652.977 344.915 653.057C344.913 653.137 344.89 653.215 344.848 653.283C343.739 654.99 342.413 656.605 340.871 658.13C326.221 672.615 311.602 687.139 297.013 701.702C296.398 702.326 295.51 703.963 294.349 706.614" stroke="#808989" stroke-width="2"/>
<path d="M230.895 543.475C232.324 544.047 233.398 544.328 234.118 544.32C247.511 544.129 260.909 544.181 274.311 544.476C276.07 544.519 277.525 544.103 278.677 543.228C285.98 537.679 292.556 528.622 296.779 521.475" stroke="#E6F4DE" stroke-width="2"/>
<path d="M492.912 630.802C480.697 643.069 468.62 655.262 456.682 667.382C449.665 674.517 445.961 684.016 455.733 690.916C463.348 696.309 468.91 691.111 474.693 685.224C482.447 677.332 490.257 669.483 498.123 661.678C498.366 661.435 498.482 661.487 498.474 661.834L498.24 685.017C498.24 685.362 498.125 685.7 497.915 685.978C497.257 686.827 496.408 687.78 495.368 688.837C482.087 702.421 468.763 715.953 455.395 729.433C448.313 736.568 447.91 745.703 457.202 751.07C462.244 753.994 467.143 752.499 471.041 748.614C480.121 739.561 489.126 730.36 498.058 721.013C498.552 720.501 498.786 720.597 498.76 721.298L498.396 730.967" stroke="#808989" stroke-width="2"/>
<path d="M498.396 730.967L498.11 733.033C498.05 733.466 497.855 733.83 497.526 734.125C495.602 735.814 493.523 736.983 491.717 738.66C485.938 744.014 481.741 748.293 479.125 751.499C472.367 759.764 480.489 768.431 489.781 766.105C493.445 765.187 496.295 763.541 498.331 761.167" stroke="#E6F4DE" stroke-width="2"/>
<path d="M498.331 761.167C498.296 771.199 498.326 781.019 498.422 790.626C498.465 795.963 498.591 799.112 498.799 800.074C500.345 807.286 508.818 812.016 515.64 809.196C521.349 806.823 524.251 802.318 524.347 795.681C524.711 771.901 524.563 748.124 523.905 724.352C523.888 723.962 523.883 723.62 523.892 723.326C523.892 723.214 523.927 723.105 523.991 723.014C524.055 722.923 524.146 722.854 524.251 722.815C524.355 722.777 524.469 722.772 524.577 722.8C524.685 722.829 524.781 722.89 524.853 722.975C531.546 730.486 538.901 737.204 545.58 744.637C549.479 748.978 553.676 753.552 559.979 753.24C569.088 752.798 576.95 739.829 570.206 732.513C561.629 723.209 547.833 709.274 528.817 690.708C527.171 689.114 525.702 687.342 524.412 685.393C524.234 685.122 524.139 684.806 524.139 684.484L524.061 663.107C524.061 662.353 524.329 662.245 524.866 662.782C533.599 671.532 542.436 680.355 551.376 689.253C563.54 701.364 580.511 683.327 568.413 670.28C560.902 662.184 552.611 654.582 545.165 646.759C540.244 641.596 535.271 636.671 530.246 631.984" stroke="#808989" stroke-width="2"/>
<path d="M652.231 702.092L653.128 701.546C653.5 701.312 653.842 701.351 654.154 701.663L690.592 737.711" stroke="#E6F4DE" stroke-width="2"/>
<path d="M338.272 739.011C338.956 738.837 339.403 738.642 339.61 738.426C347.563 730.239 355.542 722.078 363.547 713.943C366.016 711.431 368.269 708.407 370.305 704.873" stroke="#E6F4DE" stroke-width="2"/>
<path d="M477.436 597.456L477.137 596.962C477.063 596.836 476.948 596.738 476.811 596.685C476.674 596.632 476.523 596.627 476.383 596.671C476.243 596.714 476.121 596.804 476.039 596.926C475.956 597.047 475.917 597.193 475.928 597.339C476.058 599.561 475.408 601.134 473.745 602.758C465.181 611.179 457.397 620.912 448.34 628.709C448.146 628.877 447.909 628.987 447.656 629.025C447.402 629.064 447.143 629.03 446.907 628.927C446.671 628.824 446.468 628.656 446.321 628.443C446.175 628.23 446.091 627.98 446.079 627.721L445.234 607.293C445.225 607.025 445.096 606.839 444.844 606.735C444.628 606.631 444.537 606.453 444.571 606.202" stroke="#E6F4DE" stroke-width="2"/>
<path d="M518.096 580.472C518.477 588.936 518.685 597.539 518.72 606.28C518.733 611.946 503.412 613.83 503.879 603.343C504.2 596.014 504.087 588.429 503.542 580.589" stroke="#81DED3" stroke-width="2"/>
<path d="M729.993 521.15C732.713 525.767 736.941 531.247 742.676 537.589C746.717 542.072 748.719 544.177 755.242 544.216C768.965 544.294 783.173 544.22 797.866 543.995" stroke="#E6F4DE" stroke-width="2"/>
<path d="M729.317 710.695C729.04 706.433 727.931 703.357 725.99 701.469C713.809 689.591 701.65 677.32 689.513 664.654" stroke="#808989" stroke-width="2"/>
<path d="M689.513 664.653C697.033 669.877 703.821 675.994 709.876 683.002C715.737 689.786 722.52 682.054 718.089 676.869C715.473 673.819 712.506 671.155 709.188 668.877C706.407 666.98 700.784 661.656 692.32 652.906" stroke="#E6F4DE" stroke-width="2"/>
<path d="M692.32 652.906C699.346 652.776 705.908 652.711 712.007 652.711C733.124 652.698 731.773 626.383 713.307 626.721C692.42 627.111 671.246 627.158 649.787 626.864C648.979 626.856 648.205 626.529 647.63 625.954L632.309 610.88C631.027 609.615 631.283 608.983 633.076 608.983C648.826 608.948 664.896 608.918 681.287 608.892C685.506 608.883 688.408 608.58 689.994 607.982C703.379 602.953 700.234 582.863 685.692 582.785C658.992 582.646 632.184 582.586 605.267 582.603" stroke="#808989" stroke-width="2"/>
<path d="M605.267 582.603C609.595 572.259 611.141 564.306 602.032 556.054C600.195 554.391 597.761 552.58 594.729 550.623" stroke="#81DED3" stroke-width="2"/>
<path d="M620.017 542.553C626.298 542.89 632.535 543.064 638.729 543.072C640.484 543.085 641.575 542.371 642.94 541.435" stroke="#E6F4DE" stroke-width="2"/>
<path d="M631.374 529.519C627.658 535.575 625.565 540.578 620.017 542.553" stroke="#68D2B6" stroke-width="2"/>
<path d="M620.016 542.553C610.711 544.866 605.032 542.046 596.677 538.797C592.77 537.272 587.875 534.769 581.992 531.286" stroke="#81DED3" stroke-width="2"/>
<path d="M576.898 517.381C584.843 518.819 592.735 519.283 600.575 518.772C605.383 518.447 609.828 517.329 609.542 511.404C609.325 506.795 606.982 504.209 602.512 503.646C599.167 503.221 591.206 503.637 578.627 504.893" stroke="#81DED3" stroke-width="2"/>
<path d="M445.858 517.641C439.447 518.204 433.196 518.681 427.106 519.071C421.089 519.448 415.125 518.772 413.578 512.222" stroke="#81DED3" stroke-width="2"/>
<path d="M477.227 452.017L477.461 477.76C477.461 478.175 477.253 478.392 476.837 478.409C474.446 478.513 472.8 478.47 471.899 478.279C454.304 474.524 439.802 471.418 423.818 471.496" stroke="#026862" stroke-width="2"/>
<path d="M444.753 505.166C435.786 503.147 428.072 502.55 421.609 503.373C418.04 503.823 415.67 505.448 414.501 508.246" stroke="#81DED3" stroke-width="2"/>
<path d="M579.614 606.41L580.056 625.707" stroke="#667E6D" stroke-width="2"/>
<path d="M580.057 625.707C579.269 625.491 578.736 625.72 578.459 626.396C578.401 626.539 578.315 626.669 578.205 626.777C578.095 626.885 577.964 626.969 577.82 627.024C577.676 627.079 577.522 627.103 577.368 627.096C577.214 627.089 577.063 627.049 576.925 626.981C574.629 625.863 572.62 624.417 570.896 622.641C565.022 616.598 559.577 610.776 552.859 604.98C550.372 602.841 547.925 600.519 545.516 598.015" stroke="#E6F4DE" stroke-width="2"/>
<path d="M422.609 437.722C419.802 439.429 417.996 441.226 417.19 443.115C412.295 454.663 414.504 464.124 423.818 471.496" stroke="#81DED3" stroke-width="2"/>
<path d="M423.818 471.496C426.599 474.147 427.638 473.835 430.211 475.135C430.619 475.343 430.883 475.667 431.004 476.109C432.057 479.891 432.239 482.841 435.643 485.336C440.521 488.905 445.485 492.375 450.536 495.745C451.887 496.637 452.026 497.69 450.951 498.902C449.86 500.15 448.993 500.618 448.352 500.306" stroke="#808989" stroke-width="2"/>
<path d="M448.352 500.306C443.362 494.987 437.506 490.417 430.783 486.596C419.867 480.411 405.391 478.267 397.087 489.962" stroke="#81DED3" stroke-width="2"/>
<path d="M397.087 489.962C382.932 474.862 368.685 459.81 354.347 444.805C347.564 437.71 338.961 435.124 332.165 443.934C327.374 450.128 328.132 456.409 334.439 462.777C345.398 473.84 356.539 484.795 367.862 495.641C368.425 496.17 368.321 496.438 367.55 496.447C361.841 496.516 356.127 496.404 350.41 496.109C346.55 495.914 345.186 494.173 342.613 491.613C321.526 470.587 306.69 455.643 298.105 446.78C290.321 438.736 280.224 439.854 275.026 449.795C271.738 456.084 274.675 461.412 278.742 465.493C288.575 475.369 298.633 485.211 308.917 495.017C309.358 495.433 309.272 495.641 308.657 495.641C283.906 495.459 259.02 495.312 234.001 495.199C224.592 495.147 219.004 499.202 217.627 508.805" stroke="#808989" stroke-width="2"/>
<path d="M605.266 582.603C599.436 581.061 594.944 580.611 591.791 581.252C577.795 584.085 579.874 595.728 579.614 606.41" stroke="#026862" stroke-width="2"/>
<path d="M579.614 606.41C568.464 608.351 560.286 604.5 555.08 594.858C551.216 587.719 548.92 580.26 548.192 572.48C547.724 567.481 547.027 562.47 546.1 557.445" stroke="#68D2B6" stroke-width="2"/>
<path d="M555.561 545.905C556.852 549.388 558.996 551.346 561.993 551.779C562.418 551.84 562.808 552 563.163 552.26C569.27 556.717 580.056 563.202 580.368 568.945C580.589 573.117 576.535 575.625 573.247 577.327C572.831 577.544 572.437 577.522 572.064 577.262C566.459 573.398 561.768 568.867 557.991 563.669" stroke="#81DED3" stroke-width="2"/>
<path d="M443.077 419.88C442.583 423.025 442.947 426.599 441.894 429.34C438.945 436.969 430.004 439.282 422.61 437.722" stroke="#026862" stroke-width="2"/>
<path d="M422.61 437.722C420.089 436.856 418.014 435.522 416.385 433.72C415.281 432.511 413.955 431.667 412.474 431.693C388.589 431.97 364.7 431.84 340.806 431.303C334.976 431.164 330.727 429.068 328.058 425.013C323.393 417.931 326.408 409.042 334.426 406.404C336.228 405.807 339.342 405.516 343.769 405.534C355.733 405.56 367.697 405.599 379.661 405.651C382.226 405.668 384.344 405.789 386.016 406.014C387.489 406.214 387.675 405.811 386.575 404.806C380.866 399.643 375.421 394.458 370.24 389.251C369.261 388.272 367.962 387.778 366.342 387.77C344.025 387.614 325.611 387.605 311.1 387.744C305.166 387.804 300.964 385.153 298.495 379.791C293.908 369.837 303.576 361.26 313.075 361.546C317.026 361.667 321.223 361.624 325.667 361.416" stroke="#808989" stroke-width="2"/>
<path d="M797.424 521.514L729.993 521.15" stroke="#667E6D" stroke-width="2"/>
<path d="M729.992 521.15L721.065 520.539C720.415 520.496 720.316 520.708 720.766 521.176C730.772 531.546 740.969 541.6 751.356 551.337C758.114 557.666 758.503 567.672 750.81 572.909C739.44 580.667 731.253 569.998 724.197 562.903C712.761 551.381 701.313 539.871 689.851 528.375C687.122 525.633 683.38 521.176 678.545 521.189C672.299 521.198 666.352 521.154 660.703 521.059C659.785 521.05 659.664 521.354 660.339 521.969C671.706 532.382 682.57 542.804 692.931 553.235C695.998 556.327 699.922 561.512 698.61 566.009C697.085 571.198 693.516 574.451 687.902 575.768C679.078 577.834 672.737 571.557 667.487 566.009C657.74 555.708 649.558 547.517 642.939 541.435" stroke="#808989" stroke-width="2"/>
<path d="M642.939 541.435L631.374 529.519" stroke="#667E6D" stroke-width="2"/>
<path d="M631.374 529.519C623.404 522.016 618.661 516.953 617.145 514.328C611.986 505.348 624.266 496.784 629.477 491.651" stroke="#026862" stroke-width="2"/>
<path d="M397.087 489.962C397.997 491.565 399.118 492.977 400.453 494.198C405.555 498.876 410.238 503.559 414.5 508.246" stroke="#026862" stroke-width="2"/>
<path d="M414.501 508.246L413.578 512.222" stroke="#808989" stroke-width="2"/>
<path d="M413.578 512.222L393.877 531.624" stroke="#026862" stroke-width="2"/>
<path d="M393.877 531.624C390.273 535.002 386.73 538.455 383.247 541.981C374.168 551.19 364.99 560.308 355.711 569.335C349.253 575.612 343.262 580.017 335.179 574.728C323.756 567.243 330.722 558.367 337.635 551.584C348.005 541.396 358.392 531.433 368.797 521.696C369.222 521.306 369.144 521.111 368.563 521.111L350.279 521.228C348.855 521.236 347.489 521.8 346.472 522.8C331.45 537.549 316.635 552.481 301.587 567.191C298.897 569.829 294.83 573.948 291.204 575.118C279.054 579.055 267.293 562.747 277.416 553.39C288.332 543.306 299.213 532.945 310.06 522.306C310.822 521.561 310.675 521.202 309.618 521.228L296.779 521.475" stroke="#808989" stroke-width="2"/>
<path d="M296.78 521.475L229.687 521.254" stroke="#667E6D" stroke-width="2"/>
<path d="M498.331 761.167L498.396 730.967" stroke="#667E6D" stroke-width="2"/>
<path d="M442.661 606.241C442.678 631.997 442.665 657.757 442.622 683.522C442.622 691.488 441.245 698.57 433.266 700.792C423.779 703.443 417.1 695.711 417.1 686.848C417.1 664.965 416.333 643.133 416.632 621.25C416.641 620.401 416.351 620.28 415.762 620.886L396.23 640.677C396.02 640.883 395.855 641.13 395.743 641.402C395.631 641.675 395.576 641.968 395.58 642.263C395.78 661.851 395.853 681.447 395.801 701.052C395.788 708.264 390.161 714.229 382.936 714.476C377.262 714.684 373.051 711.483 370.305 704.873" stroke="#808989" stroke-width="2"/>
<path d="M370.305 704.873L370.448 666.304C370.448 666.185 370.412 666.069 370.346 665.97C370.279 665.871 370.185 665.795 370.075 665.75C369.964 665.706 369.843 665.695 369.727 665.719C369.611 665.744 369.504 665.803 369.421 665.888L325.251 711.487" stroke="#667E6D" stroke-width="2"/>
<path d="M692.32 652.906L678.468 652.763C678.374 652.763 678.282 652.789 678.202 652.839C678.122 652.888 678.058 652.959 678.017 653.042C677.976 653.125 677.96 653.218 677.971 653.309C677.981 653.4 678.019 653.485 678.078 653.556C681.647 657.87 685.459 661.569 689.513 664.653" stroke="#667E6D" stroke-width="2"/>
<path d="M693.542 707.069L653.14 666.096C653.043 665.996 652.918 665.927 652.782 665.9C652.645 665.872 652.503 665.886 652.373 665.941C652.244 665.995 652.133 666.087 652.054 666.205C651.975 666.323 651.933 666.461 651.932 666.603L652.231 702.092" stroke="#667E6D" stroke-width="2"/>
<path d="M652.231 702.092C651.776 712.254 640.952 717.855 632.401 712.215C628.407 709.581 626.415 706.432 626.423 702.768C626.432 683.171 626.441 663.571 626.449 643.965C626.449 642.605 625.721 641.098 624.266 639.443C618.6 632.998 612.683 626.86 606.515 621.029C606.472 620.991 606.418 620.965 606.361 620.956C606.304 620.946 606.245 620.952 606.193 620.974C606.14 620.997 606.096 621.033 606.066 621.08C606.035 621.127 606.02 621.181 606.021 621.237C606.125 642.566 606.164 663.895 606.138 685.224C606.129 688.283 605.649 690.977 604.696 693.307C600.459 703.638 586.88 704.483 581.617 694.555C579.94 691.397 580.109 687.239 580.109 683.6C580.152 664.307 580.135 645.009 580.057 625.708" stroke="#808989" stroke-width="2"/>
<path d="M722.482 296.753C714.75 290.931 708.161 295.427 702.482 301.119C684.93 318.749 669.57 334.577 656.402 348.603C654.99 350.11 653.66 351.293 652.413 352.15C652.33 352.205 652.233 352.235 652.134 352.239C652.035 352.243 651.936 352.219 651.849 352.171C651.762 352.123 651.69 352.052 651.641 351.966C651.591 351.88 651.566 351.782 651.568 351.682C652.053 339.952 652.335 328.222 652.413 316.492C652.456 311.112 650.282 306.954 645.889 304.017C639.028 299.456 629.996 302.873 627.306 310.229C626.691 311.927 626.401 315.05 626.436 319.598C626.574 338.423 626.622 357.067 626.579 375.528C626.579 376.481 626.216 377.396 625.565 378.088L607.476 397.503C606.774 398.248 606.424 398.109 606.424 397.087C606.268 378.357 606.151 359.562 606.073 340.702C606.055 335.538 605.691 332.008 604.981 330.111C601.252 320.183 587.139 319.91 581.928 328.863C580.706 330.969 580.087 334.321 580.07 338.921C579.983 365.656 579.961 392.417 580.005 419.204C579.416 419.248 578.042 419.235 575.885 419.165C565.203 418.801 560.499 424.233 555.353 433.369C552.52 438.398 549.311 442.972 547.14 448.391C547.099 448.487 547.028 448.567 546.938 448.62C546.848 448.673 546.744 448.696 546.64 448.686C546.536 448.676 546.437 448.633 546.359 448.564C546.281 448.495 546.227 448.402 546.205 448.3L545.659 445.506C545.494 440.109 545.49 434.681 545.646 429.223C545.672 428.253 545.113 426.88 543.97 425.104C548.986 413.114 546.196 403.892 535.601 397.438C533.712 396.294 531.048 396.29 527.609 397.425C541.514 384.248 555.011 370.919 568.101 357.439C580.81 344.34 564.567 324.445 550.883 338.934C542.046 348.299 533.106 357.552 524.061 366.692C523.801 366.952 523.676 366.9 523.685 366.536L523.97 342.222C523.971 341.946 524.077 341.673 524.269 341.455C536.446 327.72 549.96 314.92 563.176 302.159C567.387 298.096 570.09 294.83 571.285 292.36C576.197 282.198 564.632 271.335 555.561 275.259C553.17 276.29 549.54 279.314 544.671 284.33C538.027 291.174 531.456 298.013 524.958 304.849C524.005 305.854 523.633 305.672 523.84 304.303C524.447 300.162 524.737 295.67 524.711 290.827C524.607 269.602 524.516 248.385 524.438 227.178C524.404 220.394 521.12 215.902 514.588 213.702C514.458 213.485 514.376 213.26 514.341 213.026C514.316 212.874 514.332 212.719 514.385 212.575C514.439 212.431 514.529 212.303 514.648 212.205C514.766 212.106 514.907 212.04 515.059 212.014C515.21 211.987 515.366 212 515.511 212.052C521.151 213.988 523.412 217.146 526.79 221.668C528.194 223.539 533.899 223.162 535.952 223.331C541.137 223.734 546.114 225.112 551.247 225.891C560.915 227.334 570.791 229.309 580.174 232.116C599.458 237.873 616.845 243.071 636.702 252.531C643.936 255.979 651.512 260.159 659.43 265.071C675.778 275.246 688.993 283.758 701.391 295.817C701.666 296.084 702.028 296.243 702.412 296.264C702.796 296.285 703.176 296.168 703.483 295.934C709.552 291.282 715.568 288.553 722.365 294.05C722.685 294.31 722.867 294.648 722.91 295.063C722.971 295.661 722.828 296.224 722.482 296.753Z" fill="#FFFFFA"/>
<path d="M514.589 213.702C521.121 215.902 524.404 220.394 524.439 227.178C524.517 248.385 524.608 269.602 524.712 290.827C524.738 295.67 524.447 300.162 523.841 304.303C523.633 305.672 524.006 305.854 524.959 304.849C531.456 298.013 538.027 291.174 544.672 284.33C549.541 279.313 553.171 276.29 555.562 275.259C564.632 271.335 576.198 282.198 571.286 292.36C570.09 294.829 567.387 298.096 563.177 302.159C549.961 314.92 536.446 327.72 524.27 341.455C524.078 341.673 523.971 341.946 523.971 342.222L523.685 366.536C523.676 366.9 523.802 366.952 524.062 366.692C533.106 357.552 542.047 348.299 550.884 338.934C564.567 324.445 580.811 344.34 568.102 357.439C555.012 370.919 541.514 384.248 527.61 397.425C523.88 400.972 519.982 406.417 515.199 407.678C505.726 410.173 499.722 401.531 493.069 396.619C481.218 384.655 469.431 372.968 457.71 361.559C454.296 358.232 451.914 355.208 450.562 352.488C445.728 342.742 457.97 328.785 467.859 335.868C470.388 337.678 472.013 338.965 472.732 339.727C481.023 348.538 489.391 357.166 497.838 365.613C498.523 366.297 498.839 366.159 498.787 365.197C498.484 358.448 498.462 351.531 498.722 344.444C498.852 340.988 497.487 340.234 495.265 338.012C482.287 325.077 469.31 312.134 456.332 299.183C452.2 295.05 448.951 290.866 450.225 285.395C451.178 281.315 453.919 278.105 458.45 275.766C465.104 272.322 469.587 275.714 474.005 280.327C481.82 288.462 489.829 296.48 498.033 304.381C498.432 304.771 498.631 304.684 498.631 304.121C498.561 279.985 498.432 255.845 498.241 231.7C498.176 223.539 498.8 219.212 505.544 214.43C508.342 213.477 511.357 213.234 514.589 213.702Z" fill="#001318"/>
<path d="M505.545 214.43C498.8 219.212 498.176 223.539 498.241 231.7C498.432 255.845 498.562 279.985 498.631 304.121C498.631 304.684 498.432 304.771 498.033 304.381C489.829 296.48 481.82 288.462 474.006 280.327C469.587 275.714 465.104 272.322 458.451 275.766C453.92 278.105 451.178 281.315 450.225 285.395C448.951 290.866 452.2 295.05 456.333 299.183C469.31 312.134 482.288 325.077 495.265 338.012C497.488 340.234 498.852 340.988 498.722 344.444C498.462 351.531 498.484 358.448 498.787 365.197C498.839 366.159 498.523 366.297 497.839 365.613C489.392 357.166 481.023 348.538 472.732 339.727C472.013 338.965 470.389 337.678 467.859 335.868C457.97 328.785 445.729 342.742 450.563 352.488C451.914 355.208 454.297 358.232 457.71 361.559C469.431 372.968 481.218 384.655 493.069 396.619C477.28 399.608 475.253 412.018 477.8 425.676L477.228 452.017C476.241 451.254 475.526 450.111 475.084 448.586C473.512 443.206 470.432 437.956 467.911 432.927C465.581 428.283 463.268 425.061 460.972 423.259C456.016 419.369 450.052 418.243 443.078 419.88C442.913 417.177 442.822 414.552 442.805 412.005C442.684 387.375 442.645 362.741 442.688 338.103C442.697 334.395 442.367 331.722 441.7 330.085C439.504 324.692 433.202 321.261 427.484 322.353C420.596 323.678 416.932 330.228 416.854 336.959C416.646 357.101 416.685 377.287 416.971 397.516C416.97 397.607 416.944 397.697 416.894 397.774C416.845 397.851 416.774 397.912 416.691 397.951C416.607 397.989 416.515 398.002 416.424 397.99C416.333 397.977 416.248 397.939 416.178 397.88C410.07 392.413 404.253 386.548 398.726 380.284C396.946 378.27 395.815 377.971 395.828 375.034C395.967 357.231 396.001 339.433 395.932 321.638C395.915 316.691 395.789 313.711 395.555 312.698C392.839 301.158 377.57 298.234 371.8 309.124C370.769 311.065 370.25 313.902 370.241 317.636C370.198 328.829 370.228 339.983 370.332 351.098C370.332 351.188 370.307 351.277 370.26 351.355C370.213 351.432 370.145 351.495 370.065 351.537C369.984 351.578 369.894 351.597 369.803 351.59C369.713 351.584 369.626 351.553 369.552 351.501C368.513 350.764 367.542 349.932 366.641 349.005C354.513 336.548 342.414 324.068 330.346 311.567C323.476 304.454 318.798 299.824 316.312 297.675C311.313 293.361 306.015 292.88 300.419 296.233C301.077 293.495 303.035 292.408 306.293 292.971C307.038 293.101 307.9 292.889 308.879 292.334C309.225 292.127 309.602 292.062 310.009 292.14C314.83 293.01 318.313 298.52 323.03 294.946C334.466 286.305 345.758 276.364 358.247 269.294C368.5 263.499 376.738 257.976 388.954 252.037C409.2 242.213 428.263 235.845 447.899 230.361C462.726 226.229 477.943 224.293 493.095 222.136C495.759 221.759 496.474 220.459 497.916 218.445C500.334 215.101 502.876 213.763 505.545 214.43Z" fill="#FFFFFA"/>
<path d="M443.077 419.88C442.583 423.025 442.947 426.599 441.895 429.341C438.945 436.969 430.004 439.282 422.61 437.722C420.089 436.856 418.014 435.522 416.386 433.72C415.281 432.511 413.955 431.667 412.474 431.693C388.589 431.97 364.7 431.84 340.807 431.303C334.976 431.164 330.727 429.068 328.059 425.013C323.394 417.931 326.408 409.042 334.426 406.404C336.228 405.807 339.343 405.516 343.77 405.534C355.734 405.56 367.698 405.599 379.662 405.651C382.226 405.668 384.344 405.789 386.016 406.015C387.489 406.214 387.675 405.811 386.575 404.806C380.866 399.643 375.421 394.458 370.24 389.251C369.261 388.272 367.962 387.778 366.342 387.77C344.025 387.614 325.611 387.605 311.1 387.744C305.166 387.804 300.964 385.153 298.495 379.791C293.908 369.837 303.576 361.26 313.076 361.546C317.026 361.667 321.223 361.624 325.668 361.416L342.431 361.754C343.254 361.771 343.354 361.511 342.73 360.974C326.556 346.896 311.17 331.714 296.572 315.427C290.88 309.072 294.545 300.703 300.418 296.233C306.015 292.88 311.313 293.361 316.311 297.676C318.798 299.824 323.476 304.455 330.346 311.567C342.414 324.068 354.512 336.548 366.641 349.006C367.542 349.933 368.512 350.764 369.552 351.501C369.626 351.553 369.712 351.584 369.803 351.591C369.893 351.597 369.984 351.578 370.064 351.537C370.145 351.495 370.212 351.432 370.259 351.355C370.306 351.277 370.331 351.188 370.331 351.098C370.227 339.983 370.197 328.829 370.24 317.636C370.249 313.902 370.769 311.065 371.8 309.124C377.57 298.234 392.839 301.158 395.555 312.698C395.788 313.711 395.914 316.692 395.931 321.638C396.001 339.433 395.966 357.231 395.827 375.035C395.814 377.971 396.945 378.27 398.725 380.285C404.253 386.548 410.07 392.413 416.178 397.88C416.247 397.939 416.333 397.977 416.423 397.99C416.514 398.003 416.607 397.989 416.69 397.951C416.773 397.913 416.844 397.851 416.894 397.774C416.943 397.697 416.97 397.608 416.97 397.516C416.684 377.287 416.645 357.102 416.853 336.959C416.931 330.228 420.596 323.678 427.483 322.353C433.201 321.261 439.504 324.692 441.7 330.085C442.367 331.722 442.696 334.395 442.687 338.103C442.644 362.741 442.683 387.375 442.804 412.005C442.822 414.552 442.913 417.177 443.077 419.88Z" fill="#001318"/>
<path d="M722.482 296.753C731.943 304.173 728.98 313.503 720.975 320.69L680.067 360.844C679.157 361.736 679.339 362.161 680.613 362.118L700.677 361.403C709.617 361.351 726.784 359.87 728.265 373.111C728.967 379.44 725.12 384.807 719.286 387.016C716.687 387.991 713.568 387.796 710.709 387.783C691.329 387.679 671.945 387.735 652.556 387.952C651.465 387.96 650.204 388.653 648.775 390.031C643.958 394.64 638.951 399.53 633.753 404.702C632.67 405.785 632.891 406.253 634.415 406.106C638.851 405.672 643.707 405.486 648.983 405.547C659.951 405.668 670.923 405.759 681.899 405.82C685.971 405.846 688.869 406.279 690.593 407.119C697.077 410.264 700.092 418.698 695.609 424.857C692.447 429.198 688.059 431.394 682.445 431.446C660.059 431.654 637.673 431.719 615.287 431.641C614.013 431.641 612.649 431.264 611.284 431.134C610.918 431.092 610.55 431.195 610.258 431.42L603.305 436.774C594.989 440.646 582.124 437.865 580.265 427.248C579.789 424.511 579.702 421.83 580.005 419.205C579.962 392.418 579.984 365.657 580.07 338.922C580.088 334.321 580.707 330.969 581.929 328.864C587.14 319.91 601.252 320.183 604.982 330.111C605.692 332.008 606.056 335.539 606.073 340.702C606.151 359.562 606.268 378.357 606.424 397.087C606.424 398.109 606.775 398.248 607.477 397.503L625.566 378.088C626.217 377.396 626.579 376.481 626.579 375.528C626.623 357.067 626.575 338.423 626.436 319.598C626.402 315.05 626.692 311.927 627.307 310.229C629.997 302.874 639.029 299.456 645.89 304.017C650.282 306.954 652.457 311.112 652.413 316.492C652.335 328.222 652.054 339.953 651.569 351.683C651.567 351.782 651.592 351.88 651.641 351.966C651.691 352.052 651.763 352.123 651.85 352.171C651.937 352.219 652.035 352.243 652.135 352.239C652.234 352.236 652.33 352.205 652.413 352.15C653.661 351.293 654.991 350.11 656.403 348.603C669.571 334.577 684.931 318.749 702.483 301.119C708.162 295.427 714.75 290.931 722.482 296.753Z" fill="#001318"/>
<path d="M720.974 320.689C721.208 321.253 721.65 321.569 722.3 321.638C723.183 321.742 723.755 321.183 724.691 321.04C724.909 321.012 725.132 321.04 725.339 321.122C725.545 321.204 725.729 321.337 725.873 321.508C729.694 326.178 733.965 330.327 738.686 333.957C731.626 341.087 724.799 347.953 718.206 354.554C715.555 357.218 714.269 359.025 710.149 358.934C706.762 358.864 703.375 358.934 699.987 359.142C699.502 359.176 699.19 359.362 699.052 359.7C698.87 360.16 699.013 360.471 699.481 360.636C699.966 360.809 700.364 361.065 700.676 361.403L680.612 362.117C679.338 362.161 679.156 361.736 680.066 360.844L720.974 320.689Z" fill="#CCE8C1"/>
<path d="M325.668 361.416C321.224 361.624 317.026 361.667 313.076 361.546C303.576 361.26 293.908 369.836 298.495 379.791C300.964 385.153 305.166 387.804 311.101 387.744C325.612 387.605 344.025 387.614 366.342 387.77C367.962 387.778 369.262 388.272 370.241 389.251C375.421 394.458 380.866 399.643 386.575 404.806C387.676 405.811 387.489 406.214 386.017 406.014C384.344 405.789 382.226 405.668 379.662 405.651C367.698 405.599 355.734 405.56 343.77 405.534C339.343 405.516 336.228 405.807 334.426 406.404C326.409 409.042 323.394 417.931 328.059 425.013C330.727 429.068 334.977 431.164 340.807 431.303C364.7 431.84 388.59 431.97 412.474 431.693C413.956 431.667 415.281 432.511 416.386 433.72C418.014 435.522 420.089 436.856 422.61 437.722C419.803 439.429 417.997 441.226 417.191 443.115C412.297 454.663 414.506 464.124 423.819 471.496C426.6 474.147 427.639 473.835 430.212 475.135C430.62 475.343 430.884 475.667 431.005 476.109C432.058 479.891 432.24 482.841 435.644 485.336C440.522 488.905 445.486 492.375 450.537 495.745C451.888 496.637 452.027 497.69 450.952 498.902C449.861 500.15 448.994 500.618 448.353 500.306C443.363 494.987 437.507 490.417 430.784 486.596C419.868 480.411 405.392 478.266 397.088 489.962C382.932 474.862 368.686 459.809 354.348 444.804C347.564 437.709 338.962 435.123 332.165 443.934C327.375 450.128 328.133 456.409 334.439 462.776C345.399 473.84 356.54 484.794 367.863 495.641C368.426 496.169 368.322 496.438 367.551 496.446C361.842 496.516 356.128 496.403 350.41 496.109C346.551 495.914 345.186 494.172 342.613 491.612C321.527 470.586 306.691 455.642 298.106 446.78C290.322 438.736 280.224 439.853 275.026 449.795C271.739 456.084 274.676 461.412 278.743 465.492C288.576 475.369 298.634 485.21 308.917 495.017C309.359 495.433 309.273 495.641 308.657 495.641C283.906 495.459 259.021 495.312 234.001 495.199C224.593 495.147 219.005 499.201 217.628 508.805C215.219 505.513 215.484 502.052 218.42 498.422C222.475 493.406 228.751 494.64 229.284 486.219C230.35 469.075 232.628 453.333 236.12 438.996C237.809 432.048 240.793 421.838 245.073 408.367C248.426 397.849 253.438 386.206 260.108 373.436C267.983 358.362 278.743 343.119 288.788 328.499C288.87 328.385 288.975 328.289 289.096 328.218C289.218 328.147 289.352 328.103 289.491 328.088C289.63 328.073 289.771 328.088 289.903 328.132C290.035 328.176 290.155 328.248 290.257 328.344L325.668 361.416Z" fill="#FFFFFA"/>
<path d="M802.739 495.914C778.941 495.298 754.87 495.203 730.526 495.628C726.974 495.697 723.552 495.827 720.26 496.018C719.636 496.061 719.554 495.87 720.013 495.446C729.196 486.947 738.223 478.193 747.094 469.183C750.577 465.635 755.294 461.022 755.853 456.175C756.399 451.393 754.255 447.104 750.278 444.324C744.049 439.957 737.877 440.867 731.76 447.052C712.203 466.792 700.611 478.682 685.173 494.64C684.673 495.158 684.074 495.568 683.412 495.847C682.751 496.127 682.042 496.268 681.327 496.264L661.626 496.134C660.994 496.126 660.912 495.909 661.38 495.485C672.902 484.725 683.865 473.519 694.27 461.867C699.996 455.465 700.027 449.062 694.361 442.66C691.779 439.741 688.543 438.411 684.654 438.671C681.102 438.896 678.524 439.866 676.922 441.582C661.198 458.319 644.98 474.745 629.477 491.651C627.095 485.223 622.438 482.039 615.507 482.1C609.148 482.161 604.639 482.758 601.98 483.893C596.964 486.05 591.623 487.588 585.957 488.506C589.067 486.124 591.679 483.807 593.793 481.554C596.331 478.868 596.621 475.732 594.663 472.146C602.443 469.599 607.217 464.284 608.984 456.201C610.322 450.093 607.048 443.427 603.305 436.773L610.257 431.42C610.549 431.194 610.918 431.092 611.284 431.134C612.648 431.264 614.013 431.64 615.286 431.64C637.672 431.718 660.058 431.653 682.444 431.446C688.058 431.394 692.446 429.197 695.608 424.857C700.092 418.697 697.077 410.264 690.592 407.119C688.868 406.279 685.97 405.845 681.899 405.819C670.922 405.759 659.95 405.668 648.982 405.547C643.706 405.486 638.851 405.672 634.415 406.105C632.89 406.253 632.669 405.785 633.752 404.702C638.95 399.53 643.958 394.639 648.774 390.031C650.204 388.653 651.464 387.96 652.556 387.951C671.944 387.735 691.329 387.678 710.708 387.782C713.567 387.795 716.686 387.99 719.285 387.016C725.12 384.807 728.966 379.44 728.265 373.111C726.783 359.869 709.617 361.351 700.676 361.403C700.364 361.065 699.966 360.809 699.481 360.636C699.013 360.471 698.87 360.159 699.052 359.7C699.191 359.362 699.502 359.176 699.988 359.142C703.375 358.934 706.762 358.864 710.15 358.934C714.269 359.025 715.556 357.218 718.207 354.554C724.799 347.953 731.626 341.087 738.687 333.957C748.078 345.471 754.822 355.096 758.92 362.832C763.364 371.244 767.847 379.635 772.37 388.003C774.241 391.46 777.533 399.781 782.246 412.967C790.004 434.681 793.59 452.705 796.358 472.938C797.138 478.622 798.108 484.274 799.269 489.897C799.494 490.988 800.001 492.011 800.79 492.964C801.89 494.281 802.54 495.264 802.739 495.914Z" fill="#FFFFFA"/>
<path d="M493.069 396.619C499.723 401.531 505.726 410.173 515.2 407.678C519.982 406.417 523.88 400.972 527.61 397.425C531.049 396.29 533.713 396.294 535.602 397.438C546.197 403.892 548.987 413.114 543.971 425.104C542.385 425.087 540.51 426.074 538.344 428.067C531.812 434.079 525.167 440.351 518.41 446.884C517.907 437.536 517.751 428.513 517.942 419.815C518.085 413.383 508.429 414.474 505.973 417.515C504.717 419.066 504.085 421.773 504.076 425.637C504.05 432.732 504.015 439.914 503.972 447.182C497.955 444.09 492.095 437.826 487.209 433.122C484.246 430.276 481.049 428.08 477.8 425.676C475.253 412.018 477.281 399.608 493.069 396.619Z" fill="#03BCAB"/>
<path d="M518.409 446.883L512.6 451.795C512.244 452.098 511.805 452.286 511.339 452.334C510.873 452.383 510.402 452.29 509.988 452.068C507.658 450.804 505.652 449.175 503.972 447.182C504.015 439.914 504.05 432.732 504.076 425.637C504.084 421.773 504.717 419.065 505.973 417.515C508.429 414.474 518.084 413.382 517.941 419.815C517.751 428.513 517.907 437.536 518.409 446.883Z" fill="#FFFFFA"/>
<path d="M477.228 452.016L477.462 477.76C477.462 478.175 477.254 478.392 476.838 478.409C474.447 478.513 472.801 478.47 471.9 478.279C454.305 474.524 439.803 471.418 423.819 471.496C414.506 464.123 412.297 454.663 417.191 443.115C417.997 441.226 419.803 439.429 422.61 437.722C430.004 439.281 438.945 436.968 441.895 429.34C442.947 426.598 442.583 423.025 443.077 419.88C450.051 418.243 456.016 419.369 460.971 423.259C463.267 425.061 465.58 428.283 467.911 432.927C470.432 437.956 473.512 443.206 475.084 448.586C475.526 450.111 476.24 451.254 477.228 452.016Z" fill="#03BCAB"/>
<path d="M580.006 419.204C579.702 421.829 579.789 424.511 580.266 427.248C582.124 437.865 594.989 440.646 603.306 436.774C607.048 443.427 610.323 450.093 608.984 456.201C607.217 464.284 602.444 469.599 594.664 472.146C581.539 472.952 568.466 474.719 555.445 477.448C553.739 477.803 553.097 476.872 553.522 474.654C553.539 474.567 553.561 474.485 553.587 474.407L557.849 462.439C561.917 476.538 574.821 460.333 578.836 455.785C581.193 453.108 581.102 450.514 578.563 448.001L577.978 447.416C575.371 444.835 572.755 444.822 570.13 447.377L558.525 458.605C555.285 458.614 552.738 459.653 550.884 461.724C548.683 464.176 547.046 465.943 545.972 467.026C545.901 467.099 545.81 467.149 545.71 467.17C545.61 467.19 545.506 467.18 545.412 467.141C545.318 467.102 545.238 467.035 545.183 466.949C545.127 466.864 545.099 466.764 545.101 466.662L545.66 445.506L546.206 448.3C546.228 448.402 546.282 448.495 546.36 448.564C546.438 448.633 546.536 448.676 546.64 448.686C546.744 448.697 546.849 448.673 546.939 448.62C547.029 448.567 547.1 448.487 547.141 448.391C549.312 442.972 552.521 438.398 555.354 433.369C560.5 424.233 565.204 418.802 575.886 419.165C578.043 419.235 579.417 419.248 580.006 419.204Z" fill="#03BCAB"/>
<path d="M543.971 425.104C545.114 426.88 545.673 428.253 545.647 429.223C545.491 434.681 545.496 440.109 545.66 445.506L545.101 466.662C545.099 466.764 545.128 466.864 545.183 466.949C545.239 467.035 545.319 467.101 545.413 467.141C545.507 467.18 545.61 467.19 545.71 467.17C545.81 467.149 545.901 467.099 545.972 467.026C547.046 465.943 548.684 464.176 550.884 461.724C552.738 459.653 555.285 458.614 558.525 458.605C557.815 460.19 557.59 461.468 557.849 462.439L553.587 474.407C553.561 474.485 553.539 474.567 553.522 474.654C553.098 476.872 553.739 477.803 555.445 477.448C568.466 474.719 581.539 472.951 594.664 472.146C596.622 475.732 596.332 478.868 593.794 481.554C591.68 483.807 589.068 486.124 585.958 488.506C581.418 490.152 576.956 492.552 572.573 495.706C572.348 495.867 572.16 496.075 572.024 496.316C571.888 496.557 571.806 496.826 571.783 497.102C571.761 497.379 571.799 497.658 571.895 497.92C571.991 498.181 572.142 498.419 572.339 498.617L578.628 504.893C582.276 506.574 581.7 510.736 576.9 517.381C574.769 518.196 572.963 520.305 571.481 523.71C571.23 524.29 571.347 524.78 571.832 525.178C575.037 527.821 578.425 529.856 581.994 531.286C587.816 534.976 592.55 539.291 596.198 544.229C596.392 544.507 596.669 544.717 596.99 544.827C597.614 545.043 598.16 545.381 598.628 545.84C599.338 546.525 599.221 546.724 598.277 546.438L596.055 545.762C595.717 545.658 595.483 545.771 595.353 546.1C594.876 547.261 594.669 548.768 594.729 550.622L555.562 545.905L553.925 546.074C553.414 546.126 553.223 546.399 553.353 546.893L557.992 563.669C554.891 562.976 550.927 560.901 546.102 557.445L545.517 598.015L544.504 601.875C541.541 600.653 538.773 598.903 536.2 596.625C529.945 591.08 523.911 585.696 518.098 580.472C515.975 578.228 513.879 576.586 511.808 575.547C511.408 575.347 510.946 575.315 510.522 575.456C507.724 576.4 505.397 578.111 503.543 580.589C496.725 586.419 490.267 592.241 484.168 598.054C482.773 599.388 481.015 600.48 478.892 601.329C478 600.081 477.515 598.79 477.437 597.456L477.528 576.846L477.852 546.36C477.855 546.202 477.824 546.045 477.762 545.9C477.7 545.754 477.608 545.623 477.492 545.514C477.376 545.405 477.238 545.322 477.088 545.268C476.937 545.215 476.777 545.193 476.618 545.203C462.982 546.217 449.541 547.56 436.295 549.232C434.224 549.5 432.132 550.12 430.018 551.09C429.069 543.176 432.552 540.148 437.75 535.457L451.382 525.425C451.68 525.205 451.926 524.923 452.104 524.599C452.283 524.274 452.388 523.915 452.414 523.545C452.44 523.176 452.386 522.805 452.255 522.459C452.123 522.113 451.919 521.799 451.655 521.54C449.688 519.616 447.756 518.317 445.859 517.641C441.415 513.154 441.046 508.995 444.754 505.166L448.354 500.306C448.995 500.618 449.861 500.15 450.953 498.902C452.027 497.69 451.888 496.637 450.537 495.745C445.486 492.375 440.522 488.905 435.645 485.336C432.24 482.841 432.058 479.891 431.006 476.109C430.884 475.667 430.62 475.343 430.213 475.135C427.64 473.835 426.6 474.147 423.819 471.496C439.803 471.418 454.306 474.524 471.901 478.279C472.802 478.47 474.448 478.513 476.839 478.409C477.255 478.392 477.463 478.175 477.463 477.76L477.229 452.017L477.8 425.676C481.049 428.08 484.246 430.276 487.209 433.122C492.095 437.826 497.956 444.09 503.972 447.182C505.653 449.175 507.659 450.804 509.989 452.069C510.403 452.29 510.873 452.383 511.339 452.334C511.805 452.286 512.245 452.098 512.601 451.796L518.41 446.884C525.167 440.351 531.812 434.079 538.344 428.067C540.51 426.074 542.385 425.087 543.971 425.104Z" fill="#001318"/>
<path d="M397.089 489.962C397.999 491.565 399.12 492.977 400.455 494.199C405.557 498.877 410.24 503.559 414.502 508.246L413.58 512.223L393.879 531.624C390.275 535.003 386.732 538.455 383.249 541.981C374.17 551.19 364.991 560.308 355.713 569.336C349.254 575.612 343.264 580.017 335.181 574.729C323.758 567.243 330.724 558.368 337.637 551.584C348.007 541.396 358.394 531.434 368.799 521.696C369.223 521.306 369.145 521.111 368.565 521.111L350.281 521.228C348.857 521.236 347.491 521.801 346.474 522.801C331.451 537.55 316.637 552.481 301.589 567.191C298.899 569.829 294.832 573.949 291.206 575.118C279.056 579.056 267.295 562.747 277.418 553.391C288.334 543.307 299.215 532.945 310.062 522.307C310.824 521.562 310.677 521.202 309.62 521.228L296.781 521.475L229.688 521.254C223.242 519.574 219.222 515.424 217.628 508.805C219.006 499.202 224.594 495.147 234.002 495.199C259.022 495.312 283.907 495.459 308.658 495.641C309.273 495.641 309.36 495.433 308.918 495.017C298.635 485.211 288.577 475.369 278.744 465.493C274.676 461.412 271.739 456.084 275.027 449.795C280.225 439.854 290.322 438.736 298.106 446.78C306.692 455.643 321.528 470.587 342.614 491.613C345.187 494.173 346.551 495.914 350.411 496.109C356.129 496.404 361.842 496.516 367.551 496.447C368.322 496.438 368.426 496.17 367.863 495.641C356.54 484.795 345.399 473.84 334.44 462.777C328.133 456.409 327.375 450.128 332.166 443.934C338.962 435.124 347.565 437.71 354.348 444.805C368.686 459.81 382.933 474.862 397.089 489.962Z" fill="#001318"/>
<path d="M802.739 495.914C808.604 501.51 810.263 507.284 807.716 513.236C805.775 517.767 802.344 520.526 797.424 521.514L729.993 521.15L721.065 520.539C720.416 520.496 720.316 520.708 720.766 521.176C730.773 531.546 740.969 541.6 751.357 551.337C758.114 557.666 758.504 567.672 750.811 572.909C739.44 580.667 731.253 569.998 724.197 562.903C712.761 551.381 701.313 539.871 689.851 528.375C687.122 525.633 683.38 521.176 678.546 521.189C672.299 521.198 666.352 521.154 660.704 521.059C659.785 521.05 659.664 521.354 660.34 521.969C671.706 532.382 682.57 542.804 692.931 553.235C695.998 556.327 699.922 561.512 698.61 566.009C697.085 571.198 693.516 574.451 687.902 575.768C679.079 577.834 672.737 571.558 667.487 566.009C657.741 555.708 649.558 547.517 642.94 541.435L631.374 529.519C623.404 522.016 618.661 516.953 617.145 514.328C611.986 505.348 624.266 496.785 629.477 491.652C644.98 474.745 661.197 458.319 676.921 441.582C678.524 439.867 681.101 438.896 684.653 438.671C688.543 438.411 691.779 439.741 694.361 442.66C700.026 449.063 699.996 455.465 694.27 461.867C683.865 473.519 672.902 484.725 661.379 495.485C660.912 495.91 660.994 496.126 661.626 496.135L681.327 496.265C682.042 496.269 682.751 496.127 683.412 495.848C684.073 495.569 684.672 495.158 685.173 494.64C700.611 478.683 712.203 466.792 731.76 447.053C737.876 440.867 744.049 439.958 750.278 444.324C754.254 447.105 756.399 451.393 755.853 456.175C755.294 461.022 750.577 465.636 747.094 469.183C738.223 478.193 729.196 486.947 720.013 495.446C719.554 495.871 719.636 496.061 720.26 496.018C723.552 495.827 726.974 495.697 730.526 495.628C754.87 495.203 778.941 495.299 802.739 495.914Z" fill="#001318"/>
<path d="M557.849 462.438C557.589 461.468 557.815 460.19 558.525 458.605L570.13 447.377C572.755 444.822 575.371 444.835 577.978 447.416L578.563 448.001C581.102 450.513 581.193 453.108 578.836 455.785C574.821 460.333 561.917 476.538 557.849 462.438Z" fill="#FFFFFA"/>
<path d="M448.353 500.306L444.754 505.166C435.787 503.148 428.072 502.55 421.61 503.373C418.04 503.823 415.671 505.448 414.501 508.246C410.239 503.559 405.557 498.877 400.454 494.198C399.12 492.977 397.998 491.565 397.088 489.962C405.392 478.267 419.868 480.411 430.784 486.596C437.507 490.417 443.363 494.987 448.353 500.306Z" fill="#03BCAB"/>
<path d="M629.477 491.652C624.266 496.785 611.985 505.348 617.144 514.328C618.661 516.953 623.404 522.016 631.374 529.519C627.657 535.574 625.565 540.578 620.016 542.553C610.712 544.866 605.033 542.046 596.677 538.797C592.77 537.273 587.875 534.769 581.993 531.286C578.424 529.857 575.036 527.821 571.831 525.179C571.346 524.78 571.229 524.291 571.48 523.71C572.962 520.305 574.768 518.196 576.899 517.382C584.843 518.82 592.736 519.283 600.576 518.772C605.384 518.447 609.828 517.33 609.542 511.404C609.326 506.795 606.982 504.209 602.512 503.646C599.168 503.221 591.206 503.637 578.627 504.893L572.338 498.617C572.141 498.419 571.99 498.181 571.894 497.92C571.798 497.658 571.76 497.38 571.782 497.103C571.805 496.826 571.887 496.558 572.023 496.316C572.159 496.075 572.347 495.867 572.572 495.706C576.955 492.553 581.417 490.153 585.957 488.507C591.622 487.588 596.963 486.051 601.979 483.894C604.639 482.759 609.148 482.161 615.507 482.1C622.438 482.04 627.094 485.223 629.477 491.652Z" fill="#03BCAB"/>
<path d="M444.754 505.166C441.046 508.995 441.415 513.154 445.859 517.641C439.448 518.204 433.197 518.681 427.107 519.071C421.09 519.447 415.126 518.772 413.579 512.222L414.502 508.246C415.672 505.448 418.041 503.823 421.61 503.373C428.073 502.55 435.788 503.147 444.754 505.166Z" fill="#FFFFFA"/>
<path d="M576.9 517.381C581.699 510.737 582.275 506.574 578.628 504.893C591.207 503.637 599.169 503.221 602.513 503.646C606.983 504.209 609.326 506.795 609.543 511.404C609.829 517.329 605.385 518.447 600.576 518.772C592.736 519.283 584.844 518.819 576.9 517.381Z" fill="#FFFFFA"/>
<path d="M413.579 512.222C415.125 518.772 421.09 519.448 427.107 519.071C433.197 518.681 439.448 518.204 445.859 517.641C447.756 518.317 449.688 519.617 451.654 521.54C451.918 521.799 452.123 522.113 452.254 522.459C452.386 522.806 452.44 523.176 452.414 523.545C452.388 523.915 452.282 524.274 452.104 524.599C451.926 524.923 451.679 525.205 451.381 525.425L437.75 535.457C433.21 536.948 428.883 538.576 424.768 540.344C417.581 543.436 412.591 544.606 405.626 542.501C401.624 540.144 398.379 537.394 395.893 534.249C395.33 532.724 394.658 531.849 393.879 531.624L413.579 512.222Z" fill="#03BCAB"/>
<path d="M729.993 521.15C732.714 525.768 736.941 531.247 742.676 537.589C746.718 542.072 748.719 544.177 755.243 544.216C768.965 544.294 783.173 544.22 797.866 543.995C796.792 554.33 795.128 564.588 792.876 574.767C789.289 590.959 784.195 606.67 777.594 621.9C775.853 625.911 774.107 629.922 772.357 633.933C762.247 657.064 746.653 677.895 731.618 697.998C729.084 701.377 732.047 707.42 731.475 711.721C731.423 712.137 731.189 712.345 730.773 712.345H730.045C729.664 712.345 729.456 712.154 729.422 711.773L729.318 710.695C729.04 706.432 727.931 703.357 725.991 701.468C713.81 689.591 701.651 677.319 689.514 664.653C697.034 669.877 703.821 675.994 709.877 683.002C715.738 689.786 722.521 682.054 718.09 676.869C715.474 673.819 712.506 671.155 709.188 668.877C706.407 666.98 700.785 661.656 692.321 652.906C699.347 652.776 705.909 652.711 712.008 652.711C733.125 652.698 731.774 626.383 713.308 626.721C692.421 627.111 671.247 627.159 649.788 626.864C648.98 626.856 648.206 626.53 647.631 625.954L632.31 610.88C631.028 609.615 631.284 608.983 633.077 608.983C648.827 608.948 664.897 608.918 681.288 608.892C685.507 608.883 688.409 608.58 689.995 607.982C703.38 602.953 700.235 582.863 685.693 582.785C658.993 582.647 632.185 582.586 605.268 582.603C609.595 572.259 611.141 564.306 602.032 556.054C600.195 554.391 597.761 552.58 594.729 550.623C594.668 548.769 594.876 547.261 595.352 546.1C595.482 545.771 595.716 545.658 596.054 545.762L598.276 546.438C599.221 546.724 599.338 546.525 598.627 545.84C598.159 545.381 597.614 545.043 596.99 544.827C596.669 544.717 596.391 544.507 596.197 544.229C592.55 539.291 587.815 534.977 581.994 531.286C587.876 534.769 592.771 537.272 596.678 538.797C605.034 542.046 610.713 544.866 620.017 542.553C626.298 542.891 632.535 543.064 638.73 543.072C640.484 543.085 641.576 542.371 642.94 541.435C649.559 547.517 657.741 555.708 667.488 566.009C672.737 571.557 679.079 577.834 687.903 575.768C693.516 574.451 697.086 571.198 698.61 566.009C699.923 561.512 695.998 556.327 692.932 553.235C682.57 542.804 671.707 532.382 660.34 521.969C659.665 521.354 659.786 521.05 660.704 521.059C666.353 521.154 672.3 521.198 678.546 521.189C683.38 521.176 687.123 525.633 689.852 528.375C701.313 539.871 712.762 551.381 724.198 562.903C731.254 569.998 739.441 580.667 750.811 572.909C758.504 567.672 758.114 557.666 751.357 551.337C740.97 541.6 730.773 531.546 720.767 521.176C720.316 520.708 720.416 520.496 721.066 520.539L729.993 521.15Z" fill="#FFFFFA"/>
<path d="M393.878 531.624C394.658 531.849 395.329 532.724 395.892 534.249C392.929 535.825 390.114 537.636 387.446 539.681C385.488 541.171 385.787 542.501 388.342 543.67C388.538 543.756 388.753 543.791 388.966 543.774L405.626 542.501C412.591 544.606 417.581 543.436 424.767 540.343C428.882 538.576 433.21 536.947 437.749 535.457C432.551 540.148 429.068 543.176 430.017 551.09C427.999 551.48 425.976 552.372 423.948 553.767C413.981 560.616 411.031 572.532 419.634 582.46C392.752 582.59 366.108 582.724 339.702 582.863C336.332 582.88 333.365 584.08 330.801 586.463C324.628 592.219 325.213 600.835 331.372 606.54C333.339 608.359 335.141 609.26 336.778 609.243C351.012 609.104 365.246 609.156 379.48 609.399C383.079 609.464 386.913 609.087 390.616 608.996C391.396 608.978 391.509 609.243 390.954 609.789L375.243 625.369C374.127 626.477 372.615 627.103 371.033 627.111C353.005 627.171 334.829 627.111 316.506 626.929C309.242 626.851 304.616 627.449 300.249 632.816C295.116 639.131 297.767 648.306 304.824 651.697C306.574 652.538 309.328 652.979 313.088 653.023C323.536 653.144 333.993 653.005 344.458 652.607C344.538 652.604 344.618 652.623 344.688 652.662C344.758 652.701 344.816 652.758 344.856 652.828C344.896 652.897 344.917 652.976 344.915 653.056C344.914 653.136 344.891 653.215 344.848 653.283C343.739 654.989 342.414 656.605 340.872 658.13C326.222 672.615 311.603 687.139 297.014 701.702C296.399 702.326 295.511 703.963 294.35 706.614C292.539 706.025 292.604 704.097 294.545 700.831C295.402 699.363 295.493 697.946 294.324 696.491C284.413 684.111 275.529 671.034 267.671 657.259C263.448 649.839 259.003 642.354 255.547 634.817C242.474 606.28 233.377 576.197 230.206 544.879C230.129 544.116 230.358 543.648 230.895 543.475C232.325 544.047 233.399 544.329 234.118 544.32C247.511 544.129 260.909 544.181 274.311 544.476C276.07 544.519 277.525 544.103 278.678 543.228C285.981 537.679 292.556 528.622 296.78 521.475L309.619 521.228C310.676 521.202 310.823 521.561 310.061 522.306C299.214 532.945 288.333 543.306 277.417 553.39C267.294 562.747 279.055 579.055 291.205 575.118C294.83 573.948 298.898 569.829 301.588 567.191C316.636 552.481 331.45 537.549 346.472 522.8C347.49 521.8 348.856 521.236 350.28 521.228L368.564 521.111C369.144 521.111 369.222 521.306 368.798 521.696C358.393 531.433 348.006 541.396 337.636 551.584C330.723 558.367 323.757 567.243 335.18 574.728C343.263 580.017 349.253 575.612 355.712 569.335C364.99 560.308 374.169 551.19 383.248 541.981C386.731 538.455 390.274 535.002 393.878 531.624Z" fill="#FFFFFA"/>
<path d="M229.686 521.254L296.779 521.475C292.556 528.622 285.981 537.68 278.677 543.228C277.525 544.103 276.07 544.519 274.311 544.476C260.909 544.181 247.511 544.129 234.118 544.32C233.399 544.329 232.324 544.047 230.895 543.475C230.124 542.782 229.708 542.059 229.647 541.305C229.154 535.31 229.167 528.626 229.686 521.254Z" fill="#CCE8C1"/>
<path d="M729.993 521.15L797.424 521.514C798.411 523.112 799.334 524.139 799.36 526.127C799.455 532.105 798.957 538.061 797.866 543.995C783.173 544.22 768.965 544.294 755.242 544.216C748.719 544.177 746.717 542.072 742.676 537.589C736.941 531.247 732.713 525.767 729.993 521.15Z" fill="#CCE8C1"/>
<path d="M631.374 529.519L642.94 541.435C641.575 542.371 640.484 543.085 638.729 543.072C632.535 543.064 626.298 542.89 620.017 542.553C625.565 540.577 627.658 535.574 631.374 529.519Z" fill="#CCE8C1"/>
<path d="M395.893 534.249C398.379 537.393 401.623 540.144 405.626 542.5L388.966 543.774C388.753 543.791 388.539 543.755 388.342 543.67C385.787 542.5 385.488 541.171 387.446 539.68C390.114 537.636 392.93 535.825 395.893 534.249Z" fill="#CCE8C1"/>
<path d="M477.527 576.846C476.106 578.778 474.733 580.628 473.407 582.395C467.95 589.672 465.74 600.133 456.826 604.227C453.075 605.951 448.99 606.609 444.572 606.202C443.974 605.907 443.337 605.92 442.661 606.241C441.96 597.456 444.65 586.684 434.552 582.304C429.415 580.078 424.442 580.13 419.634 582.46C411.032 572.532 413.981 560.616 423.949 553.767C425.976 552.372 427.999 551.48 430.017 551.09C432.131 550.12 434.223 549.501 436.294 549.232C449.54 547.56 462.981 546.217 476.617 545.204C476.777 545.193 476.937 545.215 477.087 545.268C477.237 545.322 477.375 545.405 477.491 545.514C477.607 545.623 477.699 545.754 477.761 545.9C477.823 546.045 477.854 546.202 477.852 546.36L477.527 576.846Z" fill="#03BCAB"/>
<path d="M555.562 545.905C556.852 549.388 558.997 551.346 561.994 551.779C562.419 551.84 562.808 552 563.164 552.26C569.271 556.717 580.057 563.202 580.369 568.945C580.59 573.117 576.536 575.625 573.248 577.327C572.832 577.544 572.438 577.522 572.065 577.262C566.46 573.398 561.769 568.867 557.992 563.669L553.352 546.893C553.223 546.399 553.413 546.126 553.924 546.074L555.562 545.905Z" fill="#FFFFFA"/>
<path d="M555.562 545.905L594.728 550.622C597.761 552.58 600.195 554.391 602.032 556.054C611.141 564.306 609.595 572.259 605.267 582.603C599.437 581.061 594.945 580.61 591.792 581.252C577.796 584.084 579.875 595.728 579.615 606.41C568.466 608.35 560.287 604.5 555.081 594.857C551.217 587.719 548.921 580.26 548.194 572.48C547.726 567.481 547.028 562.47 546.101 557.445C550.927 560.901 554.89 562.976 557.992 563.669C561.769 568.867 566.46 573.398 572.065 577.262C572.438 577.522 572.832 577.544 573.248 577.327C576.536 575.625 580.59 573.117 580.369 568.945C580.057 563.202 569.271 556.717 563.164 552.26C562.809 552 562.419 551.84 561.994 551.779C558.997 551.346 556.852 549.388 555.562 545.905Z" fill="#03BCAB"/>
<path d="M546.101 557.445C547.028 562.47 547.725 567.481 548.193 572.48C548.921 580.26 551.217 587.719 555.081 594.857C560.287 604.5 568.465 608.35 579.615 606.41L580.057 625.707C579.269 625.491 578.736 625.72 578.459 626.396C578.401 626.539 578.315 626.669 578.205 626.777C578.095 626.885 577.964 626.969 577.82 627.024C577.676 627.079 577.522 627.103 577.368 627.096C577.214 627.088 577.063 627.049 576.925 626.981C574.629 625.863 572.62 624.417 570.896 622.641C565.022 616.598 559.577 610.776 552.859 604.98C550.372 602.841 547.925 600.519 545.516 598.015L546.101 557.445Z" fill="#CCE8C1"/>
<path d="M518.097 580.472C518.479 588.936 518.686 597.539 518.721 606.28C518.734 611.946 503.413 613.83 503.881 603.343C504.201 596.014 504.089 588.429 503.543 580.589C505.397 578.111 507.723 576.4 510.521 575.456C510.945 575.315 511.408 575.348 511.808 575.547C513.878 576.587 515.975 578.228 518.097 580.472Z" fill="#FFFFFA"/>
<path d="M477.527 576.846L477.436 597.456L477.137 596.962C477.063 596.836 476.948 596.738 476.811 596.685C476.674 596.632 476.523 596.627 476.383 596.671C476.243 596.714 476.121 596.804 476.039 596.926C475.956 597.047 475.917 597.193 475.928 597.339C476.058 599.561 475.408 601.134 473.745 602.758C465.181 611.179 457.397 620.912 448.34 628.709C448.146 628.877 447.909 628.987 447.656 629.025C447.402 629.064 447.143 629.03 446.907 628.927C446.671 628.824 446.468 628.656 446.321 628.443C446.175 628.23 446.091 627.98 446.079 627.721L445.234 607.293C445.225 607.025 445.096 606.839 444.844 606.735C444.628 606.631 444.537 606.453 444.571 606.202C448.99 606.609 453.074 605.951 456.826 604.227C465.74 600.133 467.949 589.672 473.407 582.395C474.733 580.628 476.106 578.778 477.527 576.846Z" fill="#CCE8C1"/>
<path d="M518.098 580.472C523.911 585.696 529.945 591.08 536.2 596.625C538.773 598.903 541.541 600.653 544.504 601.875C545.145 605.505 545.608 609.577 545.894 614.09C546.613 625.526 541.398 631.49 530.248 631.984C522.594 624.213 513.887 609.594 501.802 621.835C498.727 624.945 495.764 627.934 492.914 630.802C489.448 632.352 486.563 632.088 484.259 630.009C479.537 625.738 477.051 620.531 476.8 614.389C476.679 611.366 477.376 607.012 478.892 601.329C481.015 600.48 482.773 599.389 484.168 598.054C490.267 592.241 496.725 586.42 503.543 580.589C504.089 588.429 504.202 596.014 503.881 603.343C503.414 613.83 518.735 611.946 518.722 606.28C518.687 597.539 518.479 588.936 518.098 580.472Z" fill="#03BCAB"/>
<path d="M442.662 606.241C442.679 631.997 442.666 657.757 442.623 683.522C442.623 691.488 441.245 698.57 433.266 700.792C423.78 703.443 417.101 695.711 417.101 686.849C417.101 664.965 416.334 643.134 416.633 621.25C416.642 620.401 416.351 620.28 415.762 620.886L396.231 640.678C396.021 640.883 395.855 641.13 395.744 641.403C395.632 641.675 395.577 641.968 395.581 642.263C395.78 661.851 395.854 681.447 395.802 701.052C395.789 708.264 390.162 714.229 382.937 714.476C377.262 714.684 373.052 711.483 370.306 704.873L370.449 666.304C370.449 666.185 370.413 666.068 370.347 665.97C370.28 665.871 370.186 665.795 370.075 665.75C369.965 665.706 369.844 665.695 369.728 665.719C369.611 665.744 369.505 665.802 369.422 665.888L325.252 711.487C317.988 719.037 309.204 728.588 298.561 718.92C295.078 715.749 293.675 711.647 294.35 706.614C295.511 703.963 296.399 702.326 297.014 701.702C311.603 687.139 326.223 672.615 340.872 658.13C342.414 656.605 343.74 654.989 344.849 653.283C344.891 653.215 344.914 653.136 344.916 653.056C344.917 652.976 344.897 652.897 344.857 652.828C344.817 652.758 344.758 652.701 344.688 652.662C344.618 652.623 344.539 652.604 344.459 652.607C333.994 653.005 323.537 653.144 313.089 653.023C309.329 652.979 306.574 652.538 304.824 651.697C297.768 648.306 295.117 639.131 300.25 632.816C304.616 627.449 309.242 626.851 316.507 626.929C334.83 627.111 353.005 627.171 371.034 627.111C372.616 627.103 374.128 626.477 375.244 625.369L390.955 609.788C391.509 609.243 391.397 608.978 390.617 608.996C386.913 609.087 383.08 609.464 379.48 609.399C365.246 609.156 351.013 609.104 336.779 609.243C335.141 609.26 333.339 608.359 331.373 606.54C325.213 600.835 324.629 592.219 330.801 586.463C333.365 584.08 336.333 582.88 339.703 582.863C366.108 582.724 392.752 582.59 419.635 582.46C424.443 580.13 429.416 580.078 434.553 582.304C444.65 586.683 441.96 597.456 442.662 606.241Z" fill="#001318"/>
<path d="M605.268 582.603C632.184 582.586 658.993 582.646 685.693 582.785C700.235 582.863 703.38 602.953 689.995 607.982C688.409 608.58 685.507 608.883 681.288 608.892C664.897 608.918 648.827 608.948 633.077 608.983C631.283 608.983 631.028 609.615 632.31 610.88L647.631 625.954C648.206 626.529 648.98 626.856 649.788 626.864C671.247 627.159 692.42 627.111 713.308 626.721C731.774 626.383 733.125 652.698 712.008 652.711C705.909 652.711 699.347 652.776 692.321 652.906L678.468 652.763C678.374 652.763 678.282 652.789 678.202 652.839C678.123 652.888 678.058 652.959 678.017 653.042C677.976 653.125 677.96 653.218 677.971 653.309C677.982 653.4 678.019 653.485 678.078 653.556C681.648 657.87 685.46 661.569 689.514 664.653C701.651 677.319 713.81 689.591 725.991 701.468C727.931 703.357 729.04 706.432 729.318 710.695C727.225 722.806 713.568 727.237 704.796 718.426C701.175 714.797 697.424 711.011 693.542 707.069L653.141 666.096C653.044 665.996 652.919 665.927 652.782 665.9C652.646 665.872 652.504 665.886 652.374 665.941C652.245 665.995 652.133 666.087 652.055 666.205C651.976 666.323 651.934 666.461 651.932 666.603L652.231 702.092C651.777 712.254 640.952 717.855 632.401 712.215C628.407 709.581 626.415 706.432 626.423 702.768C626.432 683.171 626.441 663.57 626.449 643.965C626.449 642.605 625.722 641.098 624.266 639.443C618.6 632.998 612.683 626.86 606.515 621.029C606.472 620.991 606.418 620.965 606.361 620.955C606.304 620.946 606.245 620.952 606.193 620.974C606.14 620.996 606.096 621.033 606.066 621.08C606.035 621.126 606.02 621.181 606.021 621.237C606.125 642.566 606.164 663.895 606.138 685.224C606.13 688.283 605.649 690.977 604.696 693.307C600.459 703.638 586.88 704.483 581.617 694.555C579.94 691.397 580.109 687.239 580.109 683.6C580.153 664.307 580.135 645.009 580.057 625.707L579.615 606.41C579.875 595.728 577.796 584.085 591.792 581.252C594.945 580.611 599.437 581.061 605.268 582.603Z" fill="#001318"/>
<path d="M477.436 597.456C477.513 598.79 477.999 600.081 478.891 601.329C477.375 607.012 476.677 611.365 476.799 614.389C477.05 620.531 479.536 625.738 484.258 630.009C486.562 632.088 489.447 632.352 492.912 630.801C480.697 643.068 468.621 655.262 456.683 667.382C449.665 674.516 445.962 684.016 455.734 690.916C463.349 696.309 468.911 691.111 474.694 685.224C482.447 677.332 490.257 669.483 498.123 661.677C498.366 661.435 498.483 661.487 498.474 661.833L498.24 685.016C498.24 685.362 498.126 685.699 497.916 685.978C497.257 686.827 496.408 687.78 495.369 688.837C482.088 702.421 468.764 715.953 455.396 729.433C448.314 736.567 447.911 745.703 457.202 751.07C462.244 753.994 467.143 752.499 471.042 748.614C480.121 739.56 489.127 730.36 498.059 721.012C498.552 720.501 498.786 720.596 498.76 721.298L498.396 730.966L498.11 733.033C498.05 733.466 497.855 733.83 497.526 734.124C495.602 735.814 493.523 736.983 491.717 738.659C485.939 744.013 481.741 748.293 479.125 751.498C472.367 759.763 480.489 768.431 489.781 766.105C493.445 765.187 496.296 763.541 498.331 761.167C498.297 771.199 498.327 781.019 498.422 790.626C498.466 795.963 498.591 799.112 498.799 800.074C500.346 807.286 508.818 812.016 515.641 809.196C521.35 806.822 524.252 802.317 524.347 795.681C524.711 771.901 524.564 748.124 523.905 724.352C523.888 723.962 523.884 723.62 523.893 723.325C523.893 723.214 523.928 723.105 523.992 723.014C524.056 722.923 524.146 722.854 524.251 722.815C524.356 722.777 524.47 722.772 524.578 722.8C524.685 722.829 524.782 722.89 524.854 722.975C531.547 730.486 538.902 737.204 545.581 744.637C549.48 748.977 553.677 753.552 559.98 753.24C569.089 752.798 576.951 739.829 570.207 732.513C561.63 723.208 547.834 709.274 528.818 690.708C527.172 689.114 525.703 687.342 524.412 685.393C524.234 685.122 524.139 684.806 524.139 684.483L524.061 663.107C524.061 662.353 524.33 662.245 524.867 662.782C533.6 671.532 542.436 680.355 551.377 689.253C563.54 701.364 580.512 683.327 568.413 670.28C560.902 662.184 552.611 654.582 545.165 646.759C540.244 641.596 535.272 636.671 530.247 631.984C541.397 631.49 546.612 625.525 545.893 614.09C545.607 609.576 545.144 605.504 544.503 601.874L545.516 598.015C547.925 600.519 550.372 602.84 552.858 604.98C559.577 610.776 565.022 616.598 570.895 622.64C572.619 624.416 574.629 625.863 576.925 626.981C577.063 627.049 577.214 627.088 577.368 627.096C577.522 627.103 577.676 627.079 577.82 627.024C577.964 626.969 578.095 626.885 578.205 626.777C578.315 626.669 578.401 626.539 578.458 626.396C578.736 625.72 579.268 625.491 580.057 625.707C580.135 645.009 580.152 664.307 580.109 683.6C580.109 687.238 579.94 691.397 581.616 694.555C586.879 704.483 600.459 703.638 604.695 693.307C605.648 690.977 606.129 688.282 606.138 685.224C606.164 663.895 606.125 642.566 606.021 621.237C606.019 621.181 606.035 621.126 606.065 621.08C606.096 621.033 606.14 620.996 606.192 620.974C606.245 620.952 606.303 620.946 606.36 620.955C606.418 620.965 606.471 620.991 606.515 621.029C612.683 626.859 618.6 632.997 624.266 639.443C625.721 641.098 626.449 642.605 626.449 643.965C626.44 663.57 626.431 683.171 626.423 702.767C626.414 706.432 628.407 709.581 632.4 712.215C640.951 717.855 651.776 712.254 652.231 702.092L653.127 701.546C653.5 701.312 653.842 701.351 654.154 701.663L690.592 737.711C684.242 743.922 677.328 749.458 669.852 754.318C668.925 754.934 663.251 758.507 652.829 765.039C641.705 772.005 630.646 776.631 619.224 781.673C605.774 787.599 591.012 792.29 576.782 795.629C574.937 796.054 572.632 796.647 569.869 797.41C556.536 801.074 541.865 803.834 525.855 805.688C524.876 805.8 523.931 806.285 523.022 807.143C515.017 814.706 507.246 812.315 498.708 807.559C494.966 805.48 489.404 805.48 485.934 804.739C480.424 803.543 474.927 803.14 469.535 801.672C461.881 799.567 454.058 798.358 446.624 796.058C442.527 794.785 438.394 793.628 434.227 792.589C428.596 791.176 417.126 786.646 399.817 778.996C382.481 771.337 366.251 761.808 351.124 750.407C347.131 747.401 343.128 744.39 339.117 741.375C338.181 740.665 337.9 739.877 338.272 739.01C338.957 738.837 339.403 738.642 339.611 738.426C347.564 730.239 355.543 722.078 363.548 713.943C366.017 711.431 368.269 708.407 370.305 704.873C373.051 711.483 377.262 714.684 382.936 714.476C390.161 714.229 395.788 708.264 395.801 701.052C395.853 681.447 395.779 661.851 395.58 642.263C395.576 641.968 395.631 641.675 395.743 641.403C395.855 641.13 396.02 640.883 396.23 640.677L415.761 620.886C416.35 620.28 416.641 620.401 416.632 621.25C416.333 643.133 417.1 664.965 417.1 686.849C417.1 695.711 423.779 703.443 433.266 700.792C441.245 698.57 442.622 691.488 442.622 683.522C442.665 657.757 442.678 631.997 442.661 606.241C443.337 605.92 443.973 605.907 444.571 606.202C444.537 606.453 444.628 606.631 444.844 606.735C445.095 606.839 445.225 607.025 445.234 607.293L446.079 627.721C446.091 627.98 446.175 628.23 446.321 628.443C446.468 628.656 446.671 628.824 446.906 628.927C447.142 629.03 447.402 629.064 447.656 629.025C447.909 628.987 448.146 628.877 448.34 628.709C457.397 620.912 465.181 611.179 473.745 602.758C475.408 601.134 476.058 599.561 475.928 597.339C475.917 597.193 475.956 597.047 476.039 596.926C476.121 596.804 476.242 596.714 476.383 596.671C476.523 596.627 476.674 596.632 476.811 596.685C476.947 596.738 477.062 596.836 477.137 596.962L477.436 597.456Z" fill="#FFFFFA"/>
<path d="M530.248 631.984C535.272 636.671 540.245 641.596 545.166 646.759C552.612 654.582 560.903 662.184 568.414 670.28C580.512 683.327 563.541 701.364 551.378 689.253C542.437 680.356 533.6 671.532 524.868 662.782C524.331 662.245 524.062 662.353 524.062 663.107L524.14 684.484C524.14 684.806 524.235 685.123 524.413 685.393C525.704 687.343 527.172 689.114 528.818 690.708C547.834 709.274 561.631 723.209 570.207 732.513C576.952 739.829 569.09 752.798 559.98 753.24C553.678 753.552 549.48 748.978 545.582 744.637C538.902 737.204 531.547 730.486 524.855 722.975C524.783 722.89 524.686 722.829 524.578 722.801C524.471 722.772 524.357 722.777 524.252 722.816C524.147 722.854 524.057 722.923 523.993 723.014C523.928 723.106 523.894 723.214 523.893 723.326C523.885 723.62 523.889 723.962 523.906 724.352C524.565 748.124 524.712 771.901 524.348 795.682C524.253 802.318 521.351 806.823 515.641 809.196C508.819 812.016 500.346 807.286 498.8 800.074C498.592 799.112 498.466 795.963 498.423 790.627C498.328 781.019 498.297 771.199 498.332 761.167L498.397 730.967L498.761 721.298C498.787 720.597 498.553 720.501 498.059 721.013C489.127 730.36 480.122 739.561 471.043 748.614C467.144 752.499 462.245 753.994 457.203 751.07C447.912 745.703 448.314 736.568 455.397 729.433C468.764 715.953 482.088 702.421 495.369 688.837C496.409 687.78 497.258 686.827 497.916 685.978C498.127 685.7 498.241 685.362 498.241 685.017L498.475 661.834C498.484 661.487 498.367 661.435 498.124 661.678C490.258 669.483 482.448 677.332 474.694 685.224C468.911 691.111 463.35 696.309 455.735 690.916C445.962 684.016 449.666 674.517 456.683 667.382C468.621 655.262 480.698 643.069 492.913 630.802C495.763 627.934 498.726 624.945 501.802 621.835C513.887 609.594 522.594 624.213 530.248 631.984Z" fill="#001318"/>
<path d="M692.321 652.906C700.785 661.656 706.408 666.979 709.189 668.877C712.507 671.155 715.474 673.819 718.09 676.869C722.521 682.054 715.738 689.786 709.877 683.002C703.822 675.994 697.034 669.877 689.514 664.653C685.46 661.569 681.648 657.87 678.079 653.556C678.02 653.485 677.982 653.4 677.972 653.309C677.961 653.218 677.977 653.125 678.018 653.042C678.059 652.959 678.123 652.888 678.203 652.839C678.283 652.789 678.375 652.763 678.468 652.763L692.321 652.906Z" fill="#CCE8C1"/>
<path d="M370.306 704.873C368.27 708.407 366.017 711.431 363.548 713.943C355.543 722.078 347.565 730.239 339.612 738.426C339.404 738.642 338.958 738.837 338.273 739.011C332.079 733.925 326.582 728.103 321.783 721.545C321.479 721.121 321.427 720.67 321.627 720.194L325.252 711.487L369.422 665.888C369.505 665.803 369.611 665.744 369.728 665.719C369.844 665.695 369.965 665.706 370.075 665.75C370.186 665.795 370.28 665.871 370.346 665.97C370.413 666.069 370.449 666.185 370.449 666.304L370.306 704.873Z" fill="#CCE8C1"/>
<path d="M693.543 707.069C692.884 708.533 693.53 710.339 695.479 712.488C697.723 714.948 700.127 717.647 702.691 720.584C702.894 720.817 703.049 721.087 703.147 721.38C703.244 721.673 703.283 721.982 703.26 722.29C703.237 722.597 703.153 722.896 703.013 723.17C702.873 723.444 702.68 723.687 702.444 723.884C697.965 727.644 694.015 732.253 690.593 737.711L654.155 701.663C653.843 701.351 653.501 701.312 653.128 701.546L652.232 702.092L651.933 666.603C651.934 666.461 651.977 666.323 652.055 666.205C652.134 666.087 652.245 665.995 652.375 665.941C652.504 665.886 652.646 665.872 652.783 665.9C652.919 665.927 653.044 665.996 653.141 666.096L693.543 707.069Z" fill="#CCE8C1"/>
<path d="M498.397 730.967L498.332 761.167C496.296 763.541 493.446 765.187 489.782 766.105C480.49 768.431 472.368 759.763 479.126 751.499C481.742 748.293 485.939 744.013 491.718 738.66C493.524 736.983 495.603 735.814 497.527 734.124C497.856 733.83 498.051 733.466 498.111 733.033L498.397 730.967Z" fill="#CCE8C1"/>
<path d="M442.726 453.082C442.297 448.469 448.132 443.96 452.498 446.78C453.183 447.23 454.27 448.465 455.76 450.483C460.295 456.656 466.832 458.202 466.065 467.234C466.049 467.444 465.985 467.65 465.877 467.834C465.769 468.019 465.62 468.178 465.441 468.299C459.438 472.341 450.328 463.66 446.092 459.19C444.03 457.015 442.908 454.979 442.726 453.082Z" fill="#FFFFFA"/>
<path d="M509.065 476.031C509.465 476.379 509.975 476.574 510.504 476.581C511.032 476.588 511.545 476.407 511.95 476.07L524.555 465.635C526.331 464.171 527.228 464.592 527.245 466.896L527.336 476.902C527.362 479.276 526.535 481.303 524.854 482.984L513.938 493.899C513.314 494.524 512.473 494.881 511.592 494.896C510.711 494.91 509.861 494.581 509.221 493.977L495.031 480.645C494.78 480.41 494.581 480.126 494.444 479.808C494.308 479.491 494.238 479.147 494.238 478.799L494.199 466.35C494.199 465.804 494.459 465.605 494.979 465.752C499.371 466.935 505.635 473.043 509.065 476.031Z" fill="#FFFFFA"/>
<path d="M469.821 504.152C471.068 501.865 472.255 499.708 473.381 497.681C473.468 497.529 473.587 497.399 473.73 497.299C473.873 497.2 474.036 497.134 474.207 497.107C474.379 497.079 474.553 497.091 474.719 497.141C474.884 497.191 475.035 497.278 475.162 497.395L490.847 511.936C490.973 512.053 491.074 512.194 491.143 512.351C491.212 512.507 491.249 512.677 491.25 512.847C491.251 513.018 491.217 513.187 491.15 513.343C491.083 513.499 490.984 513.64 490.86 513.756C486.112 518.183 481.503 522.679 477.033 527.244C476.236 528.059 475.196 528.54 473.914 528.687C473.429 528.739 473.156 528.522 473.096 528.037C472.719 524.983 472.953 522.553 470.484 520.331C467.867 517.975 465.342 515.519 462.908 512.963C462.154 512.166 462.171 511.382 462.96 510.611C465.078 508.558 468.404 506.738 469.821 504.152Z" fill="#FFFFFA"/>
<path d="M549.467 497.668C551.001 503.256 555.12 507.544 559.577 510.819C560.374 511.399 560.457 512.066 559.824 512.82C557.988 514.994 555.973 516.952 553.782 518.694C550.715 521.137 550.039 523.567 549.584 527.153C549.551 527.399 549.455 527.632 549.304 527.829C549.154 528.026 548.955 528.18 548.727 528.277C548.499 528.374 548.25 528.41 548.004 528.382C547.758 528.353 547.523 528.262 547.323 528.115C541.458 523.775 536.199 518.789 531.547 513.158C531.045 512.569 531.071 512.001 531.625 511.456C535.056 508.077 544.685 497.863 548.766 497.213C549.138 497.161 549.372 497.313 549.467 497.668Z" fill="#FFFFFA"/>
<path d="M512.302 549.921C511.816 549.543 511.214 549.347 510.597 549.366C509.981 549.385 509.389 549.618 508.924 550.025L495.656 561.538C494.98 562.136 494.642 561.98 494.642 561.07L494.72 548.205C494.72 547.547 494.906 546.945 495.279 546.399C499.099 540.803 503.73 536.129 509.17 532.377C511.068 531.069 512.848 531.217 514.511 532.819C518.817 536.96 522.763 541.114 526.35 545.281C527.046 546.094 527.428 547.131 527.428 548.205L527.441 560.395C527.441 561.174 527.134 561.326 526.519 560.849L512.302 549.921Z" fill="#FFFFFA"/>
<path d="M447.444 561.045C455.371 555.314 460.582 550.363 470.133 549.986C470.268 549.981 470.402 550.011 470.522 550.072C470.643 550.132 470.746 550.222 470.821 550.333C470.897 550.444 470.942 550.571 470.954 550.704C470.965 550.837 470.942 550.97 470.887 551.09C466.559 560.863 459.685 567.841 452.369 575.664C452.226 575.815 452.054 575.935 451.864 576.015C451.674 576.096 451.469 576.136 451.264 576.132C441.986 575.833 440.608 565.996 447.444 561.045Z" fill="#FFFFFA"/>
</svg>
