<svg width="1024" height="1024" viewBox="0 0 1024 1024" fill="none" xmlns="http://www.w3.org/2000/svg">
<rect width="1024" height="1024" fill="white"/>
<path d="M630.184 243.681C623.033 243.823 615.716 245.485 615.188 253.124C614.582 261.988 625.739 266.549 632.245 261.705C635.242 259.472 636.891 256.573 637.192 253.009" stroke="#80391F" stroke-width="2"/>
<path d="M637.192 253.009L637.914 258.999" stroke="#E6A373" stroke-width="2"/>
<path d="M636.974 252.429C637.042 252.627 637.115 252.82 637.193 253.009" stroke="#667E6D" stroke-width="2"/>
<path d="M409.831 243.643C411.042 246.349 412.833 249.054 413.232 251.721C413.967 256.591 411.441 261.46 406.662 262.916C400.929 264.655 392.271 259.889 392.207 253.537" stroke="#80391F" stroke-width="2"/>
<path d="M403.159 419.987C399.358 420 395.274 420.412 391.448 420.09C381.605 419.239 371.84 417.831 362.152 415.864C353.198 414.048 341.681 410.466 335.729 403.522C329.656 396.436 329.609 389.183 335.587 381.763C341.719 374.149 350.75 371.392 359.021 367.063C384.929 353.484 407.977 333.644 428.848 313.353C444.454 298.177 457.68 282.614 468.528 266.665C475.888 255.834 485.117 241.152 496.214 222.617C503.931 209.747 519.816 208.266 529.426 219.886C532.063 223.081 535.735 228.514 540.441 236.183C559.972 267.987 581.852 295.179 606.081 317.759C630.7 340.704 655.745 361.742 686.562 374.999C688.314 375.755 690.933 378.001 694.42 381.737C696.877 384.373 698.212 387.461 698.427 391C699.342 406.356 681.383 412.875 669.775 415.529C655.389 418.819 641.166 420.356 627.106 420.141C625.732 420.124 625.457 420.665 626.282 421.765C640.324 440.488 656.87 456.188 675.92 468.865C686.931 476.191 701.278 483.728 718.963 491.475C723.523 493.472 727.903 499.707 727.968 504.989C728.11 520.423 709.442 523.515 697.989 526.285C691.126 527.943 684.221 529.313 677.273 530.395C677.121 530.417 676.978 530.478 676.857 530.573C676.737 530.667 676.643 530.792 676.586 530.934C676.528 531.076 676.509 531.231 676.53 531.383C676.551 531.535 676.612 531.678 676.706 531.799C693.725 554.113 710.228 576.053 730.429 595.648C740.555 605.465 753.296 615.797 764.93 625.588C765.526 626.085 766.288 626.343 767.068 626.31C777.825 625.82 787.784 625.704 797.691 630.767C817.918 641.1 831.175 664.031 826.794 686.538C823.947 701.173 815.805 711.596 802.265 717.548C802.147 717.602 802.047 717.689 801.976 717.797C801.905 717.905 801.866 718.031 801.863 718.159C801.86 718.287 801.894 718.413 801.961 718.522C802.027 718.63 802.124 718.717 802.239 718.772C843.504 739.037 832.257 797.758 791.907 810.165C788.162 811.315 782.889 811.891 776.086 811.891C600.747 811.994 425.412 812.024 250.082 811.981C226.854 811.968 207.4 799.472 199.271 777.441C193.615 762.123 195.702 743.804 206.576 731.217C211.007 726.089 216.676 720.485 223.504 719.519C226.536 719.09 226.562 718.497 223.581 717.741C219.802 716.779 215.993 714.662 212.154 711.39C197.587 698.979 192.872 683.438 198.008 664.766C204.862 639.901 227.433 623.759 253.316 625.82C255.119 625.958 256.519 626.086 257.515 626.207C257.718 626.227 257.924 626.206 258.119 626.144C258.313 626.082 258.494 625.98 258.649 625.846C263.39 621.775 266.821 619.014 268.943 617.562C300.841 595.635 329.493 564.638 352.528 531.967C353.31 530.85 353.026 530.185 351.678 529.97C350.506 529.777 348.934 529.97 347.607 529.712C335.669 527.428 324.851 524.529 315.154 521.016C305.982 517.692 298.084 506.806 305.672 497.453C311.174 490.689 320.591 487.726 328.321 484.338C332.091 482.689 339.516 478.416 350.596 471.519C360.104 465.601 367.189 460.787 371.853 457.077C384.161 447.277 394.974 435.631 404.293 422.138C405.289 420.695 404.911 419.978 403.159 419.987Z" fill="#001318"/>
<path d="M630.185 243.681C623.035 243.823 615.717 245.485 615.189 253.125C614.583 261.988 625.74 266.549 632.246 261.705C635.243 259.472 636.892 256.573 637.193 253.009L637.915 258.999C637.485 264.625 634.642 268.962 629.386 272.011C621.257 276.739 611.517 270.774 608.296 263.392C602.924 251.063 618.358 237.794 630.185 243.681Z" fill="#FF5E25"/>
<path d="M409.832 243.643C411.043 246.348 412.834 249.054 413.233 251.72C413.968 256.59 411.442 261.46 406.663 262.916C400.93 264.655 392.272 259.888 392.208 253.537C394.269 245.421 401.613 241.105 409.832 243.643Z" fill="#001318"/>
<path d="M409.832 243.643C414.762 245.128 418.15 248.023 419.997 252.326C426.026 266.368 408.801 281.364 396.421 269.757C391.353 265.016 389.949 259.609 392.208 253.537C392.272 259.888 400.93 264.655 406.663 262.916C411.442 261.46 413.967 256.59 413.233 251.72C412.834 249.053 411.043 246.348 409.832 243.643Z" fill="#FF5E25"/>
<path d="M630.185 243.681C633.654 245.502 635.918 248.418 636.974 252.429C637.043 252.626 637.116 252.82 637.193 253.009C636.892 256.573 635.243 259.472 632.246 261.705C625.74 266.549 614.583 261.988 615.189 253.124C615.717 245.485 623.034 243.823 630.185 243.681Z" fill="#001318"/>
<path d="M747.552 253.956C747.38 254.972 747.002 255.943 746.439 256.813C745.877 257.684 745.14 258.436 744.272 259.028C743.404 259.62 742.421 260.04 741.38 260.264C740.338 260.488 739.259 260.511 738.203 260.332C736.07 259.972 734.163 258.811 732.9 257.105C731.638 255.399 731.124 253.288 731.471 251.237C731.642 250.221 732.02 249.25 732.583 248.38C733.146 247.509 733.883 246.757 734.751 246.165C735.619 245.573 736.602 245.153 737.643 244.929C738.684 244.705 739.764 244.682 740.82 244.861C742.952 245.221 744.86 246.382 746.122 248.088C747.385 249.794 747.899 251.905 747.552 253.956Z" fill="#001318"/>
<path d="M298.25 252.783C298.242 253.783 298.025 254.771 297.614 255.691C297.203 256.611 296.604 257.445 295.853 258.146C295.101 258.846 294.212 259.399 293.234 259.774C292.257 260.148 291.212 260.335 290.158 260.326C289.104 260.317 288.062 260.111 287.092 259.72C286.121 259.329 285.241 258.76 284.502 258.047C283.763 257.333 283.179 256.489 282.784 255.561C282.389 254.634 282.19 253.642 282.199 252.643C282.207 251.643 282.423 250.654 282.835 249.734C283.246 248.814 283.845 247.98 284.596 247.279C285.348 246.579 286.237 246.026 287.214 245.652C288.192 245.278 289.237 245.09 290.291 245.099C291.345 245.108 292.387 245.314 293.357 245.705C294.328 246.096 295.208 246.665 295.947 247.378C296.686 248.092 297.27 248.936 297.665 249.864C298.06 250.791 298.259 251.783 298.25 252.783Z" fill="#001318"/>
<path d="M636.975 252.429C638.555 253.958 638.868 256.148 637.915 259L637.194 253.009C637.116 252.82 637.043 252.627 636.975 252.429Z" fill="#CCE8C1"/>
<path d="M683.547 313.533C683.629 313.427 683.677 313.297 683.685 313.163C683.693 313.028 683.66 312.894 683.59 312.779C683.52 312.663 683.417 312.571 683.295 312.515C683.172 312.459 683.035 312.441 682.902 312.464C678.316 313.147 670.316 314.951 666.464 312.258C661.736 308.96 661.684 302.557 665.729 298.718C669.723 294.917 677.427 296.27 682.297 296.992C682.559 297.031 682.827 296.98 683.057 296.847C683.286 296.715 683.464 296.508 683.561 296.262C683.658 296.015 683.669 295.743 683.592 295.489C683.514 295.236 683.353 295.016 683.134 294.866C681.082 293.44 679.085 291.344 677.144 288.579C674.103 284.237 676.384 278.208 681.073 276.417C686.742 274.253 692.771 282.112 695.103 286.543C695.149 286.635 695.217 286.714 695.301 286.773C695.385 286.832 695.482 286.869 695.585 286.882C695.688 286.894 695.793 286.882 695.89 286.845C695.988 286.809 696.076 286.749 696.146 286.672C700.269 282.034 708.063 270.182 715.072 278.659C720.856 285.68 714.466 290.395 710.202 295.02C708.286 297.107 708.724 297.906 711.516 297.417C716.192 296.605 722.943 295.072 727.104 298.86C732.064 303.382 728.869 311.472 723.304 313.611C721.938 314.135 720.135 314.178 717.893 313.74C714.93 313.164 711.98 312.954 709.042 313.108C708.966 313.11 708.891 313.134 708.828 313.177C708.764 313.221 708.715 313.281 708.685 313.352C708.655 313.423 708.646 313.5 708.659 313.576C708.672 313.652 708.707 313.722 708.759 313.778C713.642 318.996 722.84 324.999 713.616 332.472C707.445 337.47 700.527 329.109 697.164 324.497C697.023 324.301 696.833 324.144 696.614 324.043C696.394 323.941 696.152 323.898 695.911 323.918C695.67 323.937 695.438 324.018 695.238 324.154C695.038 324.289 694.876 324.474 694.768 324.69C692.32 329.521 687.927 333.863 682.323 333.953C677.054 334.043 674.567 327.512 675.842 323.337C676.899 319.911 681.202 316.754 683.547 313.533Z" fill="#001318"/>
<path d="M323.22 296.567C323.341 296.561 323.457 296.52 323.557 296.451C323.656 296.381 323.734 296.285 323.781 296.174C323.828 296.062 323.843 295.939 323.823 295.82C323.804 295.7 323.751 295.588 323.67 295.497C319.522 290.628 311.573 284.122 319.329 277.925C326.118 272.488 332.276 281.712 335.678 286.247C335.77 286.371 335.89 286.47 336.028 286.538C336.167 286.607 336.319 286.642 336.474 286.64C336.629 286.639 336.782 286.602 336.921 286.531C337.06 286.461 337.181 286.359 337.275 286.234C340.921 281.339 348.316 270.813 355.221 278.453C361.147 285.011 355.53 290.872 350.596 295.188C349.162 296.451 349.394 297.039 351.292 296.953C355.26 296.786 359.949 295.665 363.479 296.451C375.048 299.027 372.884 315.08 361.946 313.843C358.146 313.418 355.118 313.353 351.897 313.16C349.836 313.04 349.548 313.697 351.034 315.131C356.29 320.22 362.719 326.52 353.817 332.717C347.092 337.393 341.694 328.594 338.151 324.368C337.962 324.141 337.72 323.963 337.448 323.847C337.175 323.732 336.879 323.684 336.584 323.707C336.289 323.729 336.004 323.822 335.752 323.978C335.5 324.133 335.289 324.347 335.136 324.6C333.423 327.46 331.452 330.642 328.63 332.33C320.244 337.303 311.328 326.507 318.44 319.846C319.144 319.177 320.948 317.682 323.851 315.363C324.504 314.839 324.766 314.169 324.637 313.353C324.559 312.89 324.289 312.692 323.825 312.761C316.34 313.83 309.216 315.35 305.119 310.171C302.714 307.122 302.611 304 304.81 300.805C309.087 294.621 316.92 296.85 323.22 296.567Z" fill="#001318"/>
<path d="M266.894 306.757C266.894 309.569 265.776 312.266 263.788 314.254C261.8 316.243 259.103 317.36 256.291 317.36C253.479 317.36 250.782 316.243 248.793 314.254C246.805 312.266 245.688 309.569 245.688 306.757C245.688 303.945 246.805 301.248 248.793 299.26C250.782 297.271 253.479 296.154 256.291 296.154C259.103 296.154 261.8 297.271 263.788 299.26C265.776 301.248 266.894 303.945 266.894 306.757Z" fill="#001318"/>
<path d="M781.368 306.705C781.368 309.466 780.271 312.114 778.319 314.066C776.367 316.018 773.719 317.115 770.958 317.115C768.198 317.115 765.55 316.018 763.598 314.066C761.646 312.114 760.549 309.466 760.549 306.705C760.549 303.945 761.646 301.297 763.598 299.345C765.55 297.393 768.198 296.296 770.958 296.296C773.719 296.296 776.367 297.393 778.319 299.345C780.271 301.297 781.368 303.945 781.368 306.705Z" fill="#001318"/>
<path d="M308.725 361.008C308.725 363.218 307.847 365.339 306.284 366.902C304.721 368.465 302.601 369.343 300.39 369.343C298.179 369.343 296.059 368.465 294.496 366.902C292.933 365.339 292.055 363.218 292.055 361.008C292.055 358.797 292.933 356.677 294.496 355.114C296.059 353.551 298.179 352.672 300.39 352.672C302.601 352.672 304.721 353.551 306.284 355.114C307.847 356.677 308.725 358.797 308.725 361.008Z" fill="#001318"/>
<path d="M270.501 361.381C270.501 363.534 269.646 365.599 268.124 367.121C266.602 368.643 264.537 369.498 262.385 369.498C260.232 369.498 258.168 368.643 256.646 367.121C255.124 365.599 254.269 363.534 254.269 361.381C254.269 359.229 255.124 357.164 256.646 355.642C258.168 354.12 260.232 353.265 262.385 353.265C264.537 353.265 266.602 354.12 268.124 355.642C269.646 357.164 270.501 359.229 270.501 361.381Z" fill="#001318"/>
<path d="M751.891 361.163C751.891 363.329 751.031 365.406 749.499 366.938C747.967 368.47 745.89 369.33 743.724 369.33C741.557 369.33 739.48 368.47 737.948 366.938C736.416 365.406 735.556 363.329 735.556 361.163C735.556 358.996 736.416 356.919 737.948 355.387C739.48 353.855 741.557 352.995 743.724 352.995C745.89 352.995 747.967 353.855 749.499 355.387C751.031 356.919 751.891 358.996 751.891 361.163Z" fill="#001318"/>
<path d="M786.013 368.401C784.197 369.505 782.004 369.822 779.917 369.281C777.829 368.741 776.018 367.387 774.882 365.519C773.746 363.65 773.378 361.42 773.859 359.318C774.34 357.216 775.63 355.415 777.446 354.311C779.262 353.207 781.455 352.89 783.542 353.43C785.629 353.971 787.44 355.324 788.576 357.193C789.712 359.061 790.08 361.292 789.6 363.394C789.119 365.496 787.829 367.297 786.013 368.401Z" fill="#001318"/>
<path d="M766.23 410.44C766.23 413.334 765.081 416.11 763.034 418.156C760.988 420.202 758.212 421.352 755.318 421.352C752.424 421.352 749.649 420.202 747.602 418.156C745.556 416.11 744.406 413.334 744.406 410.44C744.406 407.546 745.556 404.771 747.602 402.724C749.649 400.678 752.424 399.528 755.318 399.528C758.212 399.528 760.988 400.678 763.034 402.724C765.081 404.771 766.23 407.546 766.23 410.44Z" fill="#001318"/>
<path d="M293.372 437.162C291.965 439.271 290.147 441.077 288.02 442.475C285.894 443.873 283.502 444.837 280.98 445.311C278.458 445.784 275.856 445.759 273.323 445.236C270.79 444.713 268.375 443.703 266.216 442.263C264.056 440.823 262.196 438.981 260.739 436.844C259.283 434.706 258.26 432.314 257.728 429.804C257.196 427.293 257.166 424.715 257.64 422.214C258.114 419.714 259.082 417.341 260.489 415.231C261.896 413.121 263.715 411.316 265.841 409.917C267.967 408.519 270.36 407.556 272.881 407.082C275.403 406.608 278.005 406.634 280.538 407.157C283.071 407.68 285.487 408.69 287.646 410.13C289.805 411.57 291.666 413.411 293.122 415.549C294.578 417.687 295.602 420.079 296.133 422.589C296.665 425.099 296.695 427.678 296.221 430.178C295.747 432.679 294.779 435.052 293.372 437.162Z" fill="#001318"/>
<path d="M340.198 445.676C340.198 447.972 339.286 450.174 337.662 451.797C336.038 453.421 333.836 454.333 331.54 454.333C329.244 454.333 327.042 453.421 325.419 451.797C323.795 450.174 322.883 447.972 322.883 445.676C322.883 443.379 323.795 441.177 325.419 439.554C327.042 437.93 329.244 437.018 331.54 437.018C333.836 437.018 336.038 437.93 337.662 439.554C339.286 441.177 340.198 443.379 340.198 445.676Z" fill="#001318"/>
<path d="M707.519 448.681C707.162 449.766 706.592 450.769 705.84 451.632C705.089 452.496 704.171 453.203 703.139 453.714C702.107 454.225 700.982 454.529 699.826 454.609C698.671 454.689 697.509 454.544 696.407 454.182C694.18 453.449 692.331 451.877 691.266 449.81C690.201 447.743 690.007 445.351 690.727 443.16C691.084 442.075 691.654 441.072 692.406 440.209C693.157 439.345 694.075 438.638 695.107 438.127C696.139 437.616 697.264 437.312 698.419 437.232C699.574 437.152 700.737 437.297 701.839 437.659C704.066 438.392 705.915 439.964 706.98 442.031C708.045 444.098 708.239 446.49 707.519 448.681Z" fill="#001318"/>
<path d="M759.117 475.466C757.794 474.228 756.733 472.736 755.993 471.076C755.254 469.416 754.851 467.62 754.809 465.791C754.766 463.962 755.083 462.135 755.743 460.415C756.403 458.695 757.393 457.115 758.655 455.766C761.204 453.042 764.711 451.422 768.403 451.264C772.095 451.105 775.67 452.421 778.342 454.921C779.665 456.16 780.726 457.651 781.466 459.311C782.205 460.971 782.607 462.767 782.65 464.597C782.693 466.426 782.376 468.253 781.716 469.973C781.056 471.693 780.066 473.272 778.804 474.621C776.255 477.346 772.748 478.965 769.056 479.124C765.364 479.282 761.789 477.966 759.117 475.466Z" fill="#001318"/>
<path d="M255.1 485.416C253.674 485.558 252.234 485.41 250.86 484.98C249.487 484.549 248.208 483.845 247.096 482.908C245.984 481.971 245.061 480.818 244.38 479.516C243.699 478.215 243.273 476.789 243.127 475.321C242.831 472.356 243.691 469.399 245.518 467.099C247.345 464.8 249.989 463.346 252.869 463.059C254.295 462.916 255.735 463.065 257.109 463.495C258.482 463.925 259.762 464.629 260.873 465.567C261.985 466.504 262.908 467.656 263.589 468.958C264.27 470.26 264.696 471.686 264.843 473.154C265.138 476.118 264.278 479.076 262.451 481.375C260.624 483.675 257.98 485.128 255.1 485.416Z" fill="#FF5E25"/>
<path d="M264.692 532.765C264.692 536.079 263.375 539.258 261.031 541.602C258.688 543.945 255.509 545.262 252.195 545.262C248.881 545.262 245.702 543.945 243.358 541.602C241.015 539.258 239.698 536.079 239.698 532.765C239.698 529.451 241.015 526.272 243.358 523.929C245.702 521.585 248.881 520.269 252.195 520.269C255.509 520.269 258.688 521.585 261.031 523.929C263.375 526.272 264.692 529.451 264.692 532.765Z" fill="#001318"/>
<path d="M786.339 524.571C788.467 526.968 789.529 530.135 789.292 533.376C789.055 536.617 787.538 539.667 785.075 541.853C782.612 544.04 779.405 545.185 776.158 545.037C772.912 544.889 769.893 543.459 767.765 541.062C765.637 538.666 764.575 535.498 764.812 532.257C765.049 529.016 766.566 525.967 769.029 523.78C771.492 521.593 774.7 520.448 777.946 520.597C781.192 520.745 784.211 522.175 786.339 524.571Z" fill="#FF5E25"/>
<path d="M246.744 590.379C246.744 592.726 245.812 594.977 244.152 596.637C242.492 598.297 240.241 599.229 237.894 599.229C235.546 599.229 233.295 598.297 231.635 596.637C229.975 594.977 229.043 592.726 229.043 590.379C229.043 588.031 229.975 585.78 231.635 584.12C233.295 582.46 235.546 581.528 237.894 581.528C240.241 581.528 242.492 582.46 244.152 584.12C245.812 585.78 246.744 588.031 246.744 590.379Z" fill="#001318"/>
<path d="M786.737 599.124C785.64 598.846 784.61 598.347 783.707 597.655C782.803 596.963 782.044 596.091 781.471 595.09C780.899 594.089 780.526 592.978 780.372 591.82C780.218 590.662 780.287 589.48 780.575 588.342C780.863 587.204 781.364 586.131 782.05 585.186C782.736 584.24 783.594 583.441 784.573 582.832C785.553 582.223 786.635 581.818 787.759 581.639C788.883 581.46 790.027 581.511 791.124 581.788C792.221 582.066 793.251 582.565 794.154 583.257C795.058 583.949 795.817 584.821 796.39 585.822C796.962 586.823 797.336 587.935 797.489 589.092C797.643 590.25 797.574 591.432 797.286 592.57C796.998 593.709 796.497 594.781 795.811 595.726C795.125 596.672 794.267 597.472 793.288 598.08C792.308 598.689 791.226 599.094 790.102 599.273C788.978 599.452 787.835 599.401 786.737 599.124Z" fill="#001318"/>
<path d="M524.992 263.831C524.103 269.306 526.847 274.214 529.398 278.53C531.498 282.086 532.967 286.247 534.796 289.468C537.231 293.771 542.384 300.535 541.225 305.598C540.71 307.856 540.542 309.501 540.722 310.532C541.023 312.207 541.551 314.122 542.307 316.278" stroke="#E6F4DE" stroke-width="2"/>
<path d="M542.306 316.278C539.394 313.615 536.938 310.862 534.937 308.02C530.879 302.248 528.727 299.439 525.442 295.175C517.506 284.843 511.451 285.01 504.558 296.077C499.998 303.407 494.845 314.307 487.901 319.279C482.296 323.273 478.406 315.917 474.296 318.571C471.127 320.619 469.619 326.752 473.935 328.748C478.431 330.81 480.957 329.418 481.343 335.899C481.614 340.446 480.454 341.825 475.984 342.778C472.986 343.422 470.474 345.325 468.447 348.485C466.016 352.29 463.603 356.078 461.207 359.848C454.881 369.807 446.765 369.433 436.123 368.042C429.063 367.127 423.691 370.966 418.37 375.347C411.259 381.213 404.062 387.178 396.778 393.241" stroke="#DCE37E" stroke-width="2"/>
<path d="M539.422 284.469C542.686 294.2 547.311 302.944 553.297 310.699C553.941 311.541 554.581 313.005 555.217 315.092C556.247 318.506 557.961 320.89 559.687 323.814" stroke="#66AD99" stroke-width="2"/>
<path d="M559.686 323.814C558.561 324.02 557.616 323.81 556.852 323.183C556.817 323.149 556.427 322.414 555.679 320.98C555.31 320.267 554.674 319.919 553.773 319.936C550.487 320.014 550.256 322.784 546.094 320.014C543.861 318.536 542.599 317.291 542.307 316.278" stroke="#C3D862" stroke-width="2"/>
<path d="M601.208 393.383L559.686 323.814" stroke="#5D9C3A" stroke-width="2"/>
<path d="M450.36 419.794C445.293 429.774 439.478 439.14 432.916 447.892C432.023 449.077 432.272 449.927 433.664 450.443C433.99 450.571 434.742 450.632 435.918 450.623C459.297 450.563 482.753 450.533 506.286 450.533" stroke="#81DED3" stroke-width="2"/>
<path d="M506.285 450.532L525.339 451.099" stroke="#80B8B6" stroke-width="2"/>
<path d="M525.339 451.099C526.516 453.04 527.881 454.793 529.436 456.356C532.566 459.499 534.022 462.243 536.148 465.76C536.328 466.052 536.573 466.276 536.882 466.43C537.466 466.731 537.711 467.281 537.617 468.079" stroke="#E6F4DE" stroke-width="2"/>
<path d="M537.617 468.08C537.763 467.831 537.66 467.908 537.308 468.311" stroke="#80B8B6" stroke-width="2"/>
<path d="M537.308 468.311C537.153 468.474 536.96 468.547 536.728 468.53C532.546 468.204 528.358 468.036 524.167 468.028C490.396 467.959 456.625 467.942 422.854 467.976C420.059 467.976 416.993 468.659 415.034 470.256C405.681 477.935 390.376 491.887 377.441 502.155C377.109 502.421 376.881 502.795 376.797 503.211C376.574 504.302 376.239 505.208 375.792 505.93" stroke="#DCE37E" stroke-width="2"/>
<path d="M462.458 419.755C470.497 425.784 479.76 430.19 488.739 437.083C491.23 438.998 495.902 442.03 502.756 446.178C504.285 447.097 505.461 448.549 506.286 450.533" stroke="#02978E" stroke-width="2"/>
<path d="M650.216 484.235C649.456 489.633 648.232 496.989 655.099 498.857C659.205 499.982 663.246 501.232 667.222 502.606C669.129 503.267 670.095 504.405 670.121 506.02" stroke="#006264" stroke-width="2"/>
<path d="M557.264 505.904L537.308 468.311" stroke="#5D9C3A" stroke-width="2"/>
<path d="M537.617 468.079C552.801 468.097 567.965 467.951 583.107 467.641C591.378 467.474 595.23 458.237 588.221 453.135C586.134 451.623 584.322 450.872 582.785 450.88C563.692 450.975 544.543 451.048 525.339 451.099" stroke="#66AD99" stroke-width="2"/>
<path d="M515.188 530.15C517.696 531.928 519.663 533.057 521.089 533.538C534.479 538.107 547.499 543.643 560.15 550.144" stroke="#02978E" stroke-width="2"/>
<path d="M560.15 550.145C549.156 559.575 538.948 569.396 529.527 579.608C528.238 581 526.765 582.365 525.108 583.705C524.934 583.844 524.724 583.932 524.503 583.959C524.282 583.985 524.058 583.95 523.856 583.856C523.654 583.762 523.482 583.614 523.36 583.428C523.237 583.242 523.169 583.026 523.162 582.803C522.991 575.572 523.064 568.207 523.381 560.709C523.536 556.96 524.013 553.43 520.186 551.498C516.27 549.526 508.733 551.111 508.72 556.522C508.712 564.57 508.686 572.622 508.643 580.678C508.635 581.554 508.532 582.357 508.334 583.087C508.287 583.269 508.192 583.435 508.059 583.568C507.926 583.702 507.759 583.797 507.576 583.845C507.393 583.894 507.2 583.893 507.017 583.844C506.833 583.794 506.665 583.698 506.53 583.564C497.529 574.545 488.563 565.574 479.63 556.651C475.546 552.567 471.063 548.844 466.065 553.597C463.385 556.148 461.826 560.838 464.944 563.595C474.898 572.398 484.496 581.7 493.737 591.5C493.858 591.63 493.941 591.791 493.978 591.965C494.015 592.139 494.005 592.32 493.949 592.488C493.892 592.657 493.791 592.807 493.656 592.923C493.522 593.039 493.358 593.117 493.183 593.149C491.534 593.432 489.731 593.557 487.773 593.522C478.969 593.333 470.166 593.23 461.362 593.213C449.226 593.187 447.783 608.608 461.684 608.583C472.635 608.557 483.727 608.6 494.961 608.711C495.187 608.714 495.408 608.78 495.598 608.902C495.788 609.024 495.94 609.198 496.035 609.402C496.131 609.607 496.167 609.835 496.139 610.059C496.11 610.283 496.019 610.495 495.876 610.67L483.972 625.344" stroke="#81DED3" stroke-width="2"/>
<path d="M326.347 625.898C333.51 616.029 341.047 607.513 349.086 598.534C351.302 596.06 353.183 595.081 356.365 594.965C363.618 594.695 380.276 596.962 380.018 585.561C379.851 578.423 374.968 577.135 369.145 576.542C368.664 576.499 368.522 576.255 368.72 575.808C369.312 574.477 370.094 573.274 371.064 572.201C376.707 565.957 381.955 559.395 386.808 552.515C391.849 545.352 396.912 537.927 401.997 530.24" stroke="#81DED3" stroke-width="2"/>
<path d="M423.744 530.717C431.749 534.908 439.994 538.331 448.48 540.985C448.806 541.087 449.152 541.108 449.488 541.048C449.824 540.988 450.141 540.848 450.411 540.639C450.682 540.43 450.898 540.16 451.042 539.85C451.185 539.54 451.252 539.2 451.237 538.859L450.863 530.794C450.846 530.391 451.035 530.141 451.43 530.047C452.315 529.815 453.358 529.785 454.561 529.957" stroke="#02978E" stroke-width="2"/>
<path d="M456.557 530.047C467.396 533.903 478.45 537.691 489.718 541.41C493.798 542.758 497.976 543.544 502.253 543.768C508.102 544.077 506.17 532.469 505.526 529.686" stroke="#02978E" stroke-width="2"/>
<path d="M582.438 530.743C584.559 533.534 586.891 535.935 589.434 537.944C597.138 544.012 604.314 550.505 611.837 556.779C613.246 557.948 614.792 559.571 616.475 561.649C616.569 561.768 616.625 561.914 616.635 562.065C616.644 562.217 616.607 562.368 616.529 562.498C616.451 562.628 616.334 562.731 616.196 562.794C616.057 562.856 615.903 562.875 615.754 562.847C615.573 562.813 615.419 562.796 615.29 562.796C615.23 562.794 615.17 562.805 615.114 562.828C615.058 562.851 615.008 562.887 614.966 562.932C614.925 562.977 614.893 563.031 614.873 563.09C614.854 563.148 614.846 563.211 614.852 563.273L614.942 563.955" stroke="#006264" stroke-width="2"/>
<path d="M614.942 563.956C609.145 564.024 604.928 566.97 602.291 572.793" stroke="#80B8B6" stroke-width="2"/>
<path d="M602.29 572.793C601.603 572.424 601.174 571.604 601.002 570.333C600.942 569.912 600.783 569.534 600.525 569.199C594.65 561.83 583.983 550.261 575.236 549.063C574.818 549.004 574.397 549.081 574.038 549.282L566.243 553.52" stroke="#02978E" stroke-width="2"/>
<path d="M566.244 553.52L560.15 550.145" stroke="#80B8B6" stroke-width="2"/>
<path d="M602.291 572.793C601.828 576.392 602.571 579.767 604.52 582.919" stroke="#81DED3" stroke-width="2"/>
<path d="M604.519 582.919C605.069 585.006 606.495 588.236 608.796 592.608C610.514 595.871 611.472 600.264 611.669 605.787C611.944 613.74 608.968 620.349 602.741 625.614" stroke="#02978E" stroke-width="2"/>
<path d="M547.048 625.305C543.999 619.748 540.108 614.977 535.376 610.992C534.86 610.562 534.457 610.154 534.165 609.768C534.079 609.651 534.028 609.512 534.016 609.368C534.004 609.224 534.032 609.079 534.098 608.95C534.163 608.82 534.263 608.711 534.386 608.635C534.509 608.559 534.651 608.519 534.796 608.518C546.958 608.527 559.089 608.548 571.191 608.582C576.241 608.595 579.861 605.581 579.41 600.363C578.921 594.604 574.025 593.239 568.73 593.252C558.69 593.294 548.572 593.32 538.377 593.329C536.479 593.329 536.226 592.685 537.617 591.396C546.326 583.357 555.25 574.932 564.388 566.12C568.073 562.573 568.691 558.373 566.244 553.52" stroke="#81DED3" stroke-width="2"/>
<path d="M619.992 584.955C614.744 587.626 609.586 586.948 604.519 582.919" stroke="#80B8B6" stroke-width="2"/>
<path d="M673.69 573.27C672.157 575.202 670.005 576.581 668.82 578.333C667.403 580.42 666.26 583.237 665.393 586.784C664.955 588.588 662.739 591.319 660.781 592.724C658.913 594.05 657.663 595.584 655.512 596.627C654.584 597.074 653.747 597.649 652.999 598.353C652.699 598.628 652.514 598.972 652.445 599.384C651.879 603.12 651.14 604.074 650.229 602.244" stroke="#006264" stroke-width="2"/>
<path d="M650.229 602.244C649.263 592.62 639.601 588.627 631.858 594.025" stroke="#80A9A9" stroke-width="2"/>
<path d="M631.858 594.025C631.634 593.63 631.428 592.943 631.239 591.963C631.145 591.457 631.278 591.07 631.638 590.804C631.896 590.615 631.986 590.366 631.909 590.057C631.634 589.026 630.827 588.545 629.487 588.614C627.872 588.7 626.266 588.708 624.669 588.64C620.769 588.459 619.211 587.231 619.992 584.955" stroke="#006264" stroke-width="2"/>
<path d="M619.993 584.955C629.565 578.745 625.61 566.043 614.942 563.956" stroke="#80A9A9" stroke-width="2"/>
<path d="M631.858 594.024C624.012 601.87 628.895 615.333 640.734 613.465C646.291 612.589 649.456 608.849 650.229 602.244" stroke="#80B8B6" stroke-width="2"/>
<path d="M632.965 651.921C635.894 660.381 638.689 668.734 641.352 676.979C642.297 679.916 643.804 682.497 645.874 684.722C645.959 684.812 646.024 684.919 646.066 685.036C646.107 685.153 646.123 685.278 646.114 685.402C646.104 685.526 646.068 685.646 646.009 685.755C645.95 685.864 645.869 685.96 645.771 686.036C645.599 686.173 645.431 686.173 645.268 686.036" stroke="#E6F4DE" stroke-width="2"/>
<path d="M645.269 686.036L224.442 686.332" stroke="#FFAF90" stroke-width="2"/>
<path d="M799.789 686.062L647.24 686.255" stroke="#BA8770" stroke-width="2"/>
<path d="M647.241 686.255C646.485 686.358 645.828 686.285 645.27 686.036" stroke="#E6A373" stroke-width="2"/>
<path d="M649.597 705.103C649.116 706.683 648.549 708.315 647.896 709.998C647.072 712.085 646.685 713.747 646.737 714.984C646.814 717.32 647.574 719.472 649.017 721.439" stroke="#80391F" stroke-width="2"/>
<path d="M648.321 743.172C626.407 743.546 603.463 743.031 582.785 743.031C540.915 743.048 499.045 743.005 457.175 742.902C431.782 742.85 406.299 743.404 380.842 743.172C346.56 742.863 312.266 743.044 277.984 743.005C262.55 742.992 243.998 743.572 226.915 743.507" stroke="#FFAF90" stroke-width="2"/>
<path d="M795.86 743.919C749.85 743.181 703.948 742.949 658.152 743.224C655.018 743.241 651.887 743.327 648.761 743.481" stroke="#BA8770" stroke-width="2"/>
<path d="M648.759 743.482C648.527 743.361 648.381 743.258 648.321 743.172" stroke="#D3938C" stroke-width="2"/>
<path d="M648.321 743.172L649.017 721.438" stroke="#D34222" stroke-width="2"/>
<path d="M649.018 721.439C652.264 723.861 653.965 726.321 658.409 726.36C676.995 726.566 695.581 726.622 714.167 726.527C720.429 726.489 723.778 725.677 726.097 719.815C729.679 710.746 723.585 702.707 714.193 702.835C695.727 703.102 677.262 703.08 658.796 702.771C655.541 702.719 652.475 703.497 649.597 705.103" stroke="#541D1B" stroke-width="2"/>
<path d="M649.597 705.103L647.24 686.255" stroke="#D34222" stroke-width="2"/>
<path d="M648.761 743.482C649.293 743.593 649.568 743.971 649.585 744.615C649.602 745.423 649.791 746.943 650.152 749.176C650.221 749.58 650.393 749.932 650.667 750.232L652.329 751.985" stroke="#E6F4DE" stroke-width="2"/>
<path d="M651.105 766.065L639.407 766.864" stroke="#80B8B6" stroke-width="2"/>
<path d="M639.407 766.865L597.46 766.878" stroke="#81DED3" stroke-width="2"/>
<path d="M574.425 766.71L531.421 766.568" stroke="#81DED3" stroke-width="2"/>
<path d="M508.463 766.658L455.694 766.8" stroke="#81DED3" stroke-width="2"/>
<path d="M432.621 766.684L381.604 766.658" stroke="#81DED3" stroke-width="2"/>
<path d="M358.362 766.646H308.775" stroke="#81DED3" stroke-width="2"/>
<path d="M308.774 766.645C308.529 759.959 309.882 754.059 303.17 749.472C297.051 745.285 289.011 747.218 285.791 753.981C285.164 755.287 284.923 757.241 285.069 759.843C285.207 762.334 285.215 764.571 285.095 766.555" stroke="#808989" stroke-width="2"/>
<path d="M285.096 766.555L223.837 766.426" stroke="#81DED3" stroke-width="2"/>
<path d="M800.459 766.233L737.641 766.568" stroke="#66AD99" stroke-width="2"/>
<path d="M714.889 766.311L674.488 766.671" stroke="#66AD99" stroke-width="2"/>
<path d="M650.706 786.022L639.407 766.865" stroke="#02978E" stroke-width="2"/>
<path d="M308.776 766.645C308.364 770.369 309.008 774.736 307.294 777.931C303.829 784.398 295.133 786.086 289.49 781.062C284.775 776.862 285.818 772.237 285.097 766.555" stroke="#026862" stroke-width="2"/>
<path d="M524.994 263.83C524.105 269.305 526.849 274.214 529.4 278.53C531.5 282.085 532.969 286.247 534.798 289.467C537.233 293.77 542.386 300.534 541.227 305.597C540.712 307.856 540.544 309.501 540.724 310.531C541.025 312.206 541.553 314.121 542.309 316.277C539.398 313.615 536.941 310.862 534.94 308.019C530.882 302.247 528.73 299.439 525.445 295.175C517.509 284.842 511.454 285.01 504.562 296.076C500.001 303.407 494.848 314.306 487.904 319.279C482.3 323.273 478.409 315.916 474.299 318.57C471.13 320.619 469.623 326.751 473.938 328.748C478.435 330.809 480.96 329.418 481.346 335.898C481.617 340.446 480.457 341.824 475.987 342.778C472.989 343.422 470.477 345.324 468.45 348.485C466.02 352.29 463.606 356.077 461.21 359.848C454.884 369.806 446.768 369.433 436.126 368.042C429.067 367.127 423.694 370.966 418.374 375.346C411.262 381.212 404.065 387.177 396.782 393.241L373.991 393.486C373.874 393.487 373.758 393.459 373.655 393.402C373.551 393.346 373.464 393.264 373.402 393.164C373.34 393.064 373.305 392.95 373.299 392.833C373.294 392.715 373.32 392.598 373.373 392.494C373.768 391.695 374.468 390.991 375.473 390.381C407.848 371.056 437.325 347.248 461.944 318.686C469.687 309.707 477.739 301.243 484.644 291.58C494.779 277.409 504.441 263.053 513.631 248.512C513.691 248.418 513.773 248.341 513.871 248.287C513.968 248.233 514.077 248.204 514.188 248.203C514.299 248.201 514.409 248.228 514.508 248.28C514.606 248.331 514.69 248.407 514.752 248.499L524.994 263.83Z" fill="#FFFFFA"/>
<path d="M524.994 263.831L539.423 284.469C542.687 294.2 547.312 302.944 553.298 310.699C553.942 311.541 554.582 313.005 555.218 315.092C556.249 318.506 557.962 320.89 559.688 323.814C558.563 324.02 557.618 323.81 556.854 323.183C556.82 323.149 556.429 322.414 555.682 320.98C555.312 320.267 554.677 319.919 553.775 319.937C550.49 320.014 550.258 322.784 546.097 320.014C543.864 318.537 542.601 317.291 542.309 316.278C541.553 314.122 541.025 312.207 540.724 310.532C540.544 309.501 540.712 307.856 541.227 305.598C542.386 300.535 537.233 293.771 534.798 289.468C532.969 286.247 531.5 282.086 529.4 278.53C526.849 274.214 524.105 269.306 524.994 263.831Z" fill="#CCE8C1"/>
<path d="M539.423 284.469C552.1 300.951 562.883 313.817 571.772 323.067C578.97 330.556 590.135 340.854 605.268 353.961C621.458 367.986 638.533 380.212 656.492 390.639C658.742 391.953 658.587 392.855 656.028 393.344C655.633 393.413 654.731 393.439 653.322 393.422C635.673 393.207 618.302 393.194 601.21 393.383L559.688 323.814C557.962 320.89 556.248 318.506 555.217 315.092C554.582 313.005 553.942 311.541 553.298 310.699C547.312 302.944 542.687 294.2 539.423 284.469Z" fill="#007171"/>
<path d="M542.309 316.278C542.601 317.291 543.863 318.536 546.097 320.014C550.258 322.784 550.49 320.014 553.775 319.936C554.677 319.919 555.312 320.267 555.682 320.98C556.429 322.414 556.82 323.149 556.854 323.183C557.618 323.81 558.563 324.02 559.688 323.814L601.21 393.383L527.455 393.306C527.18 393.302 526.918 393.192 526.725 392.999C526.532 392.806 526.424 392.546 526.424 392.275C526.407 387.749 526.372 383.128 526.321 378.413C526.115 361.162 502.474 360.119 502.075 377.769C501.963 382.793 501.912 387.646 501.92 392.327C501.92 392.665 501.786 392.989 501.547 393.228C501.308 393.468 500.983 393.602 500.645 393.602L396.781 393.241C404.065 387.178 411.262 381.213 418.373 375.347C423.694 370.966 429.066 367.127 436.126 368.042C446.768 369.433 454.884 369.807 461.21 359.848C463.606 356.078 466.019 352.29 468.45 348.485C470.477 345.325 472.989 343.422 475.987 342.778C480.457 341.825 481.617 340.446 481.346 335.899C480.96 329.418 478.434 330.81 473.938 328.748C469.622 326.752 471.13 320.619 474.299 318.571C478.409 315.917 482.299 323.273 487.903 319.279C494.847 314.307 500.001 303.407 504.561 296.077C511.454 285.01 517.509 284.843 525.445 295.175C528.73 299.439 530.882 302.248 534.94 308.02C536.941 310.862 539.397 313.615 542.309 316.278Z" fill="#B9C702"/>
<path d="M450.363 419.793C445.295 429.774 439.481 439.14 432.919 447.892C432.026 449.077 432.275 449.927 433.666 450.442C433.992 450.571 434.744 450.631 435.921 450.623C459.299 450.563 482.755 450.533 506.288 450.533L525.342 451.099C526.519 453.04 527.885 454.793 529.439 456.356C532.57 459.499 534.025 462.243 536.151 465.76C536.332 466.052 536.576 466.276 536.886 466.43C537.47 466.731 537.714 467.281 537.62 468.079C537.766 467.83 537.663 467.908 537.311 468.311C537.156 468.474 536.963 468.547 536.731 468.53C532.548 468.204 528.361 468.036 524.17 468.028C490.399 467.959 456.628 467.942 422.857 467.976C420.061 467.976 416.995 468.659 415.037 470.257C405.684 477.935 390.379 491.887 377.444 502.155C377.111 502.422 376.883 502.796 376.8 503.212C376.577 504.302 376.242 505.208 375.795 505.93C369.5 505.887 363.243 505.668 357.024 505.273C355.436 505.178 354.027 504.728 352.799 503.92C352.404 503.654 352.374 503.353 352.709 503.018C354.19 501.575 355.723 500.3 357.669 499.308C390.289 482.663 418.412 452.066 437.905 421.971C438.111 421.653 438.66 421.129 439.554 420.399C439.871 420.141 440.241 420.008 440.662 420L450.363 419.793Z" fill="#FFFFFA"/>
<path d="M450.363 419.793L462.46 419.755C470.499 425.784 479.762 430.19 488.742 437.082C491.233 438.998 495.905 442.03 502.759 446.178C504.288 447.097 505.464 448.548 506.289 450.532C482.756 450.532 459.3 450.562 435.921 450.623C434.744 450.631 433.993 450.571 433.667 450.442C432.275 449.927 432.026 449.077 432.919 447.891C439.481 439.139 445.296 429.773 450.363 419.793Z" fill="#03BCAB"/>
<path d="M650.217 484.235C649.457 489.633 648.233 496.989 655.1 498.857C659.206 499.982 663.247 501.232 667.223 502.606C669.13 503.267 670.096 504.405 670.122 506.02L557.266 505.904L537.31 468.311C537.662 467.907 537.765 467.83 537.619 468.079C552.804 468.096 567.967 467.95 583.109 467.641C591.38 467.474 595.232 458.236 588.224 453.135C586.137 451.623 584.325 450.872 582.787 450.88C563.694 450.975 544.546 451.048 525.341 451.099L506.287 450.532C505.463 448.548 504.286 447.097 502.757 446.178C495.904 442.03 491.231 438.998 488.741 437.082C479.761 430.19 470.498 425.784 462.459 419.755C504.784 420.029 546.985 420.06 589.061 419.845C589.997 419.836 590.788 420.334 591.432 421.339C607.781 446.655 627.273 465.49 650.217 484.235Z" fill="#007171"/>
<path d="M537.62 468.079C537.715 467.281 537.47 466.731 536.886 466.43C536.577 466.276 536.332 466.052 536.152 465.76C534.026 462.243 532.57 459.499 529.44 456.356C527.885 454.793 526.519 453.041 525.343 451.099C544.547 451.048 563.696 450.975 582.789 450.88C584.326 450.872 586.138 451.623 588.225 453.135C595.234 458.237 591.382 467.474 583.111 467.641C567.969 467.951 552.805 468.097 537.62 468.079Z" fill="#CCE8C1"/>
<path d="M537.31 468.311L557.266 505.904L527.558 505.865C527.094 505.865 526.849 505.629 526.824 505.157C526.514 498.123 528.279 489.22 521.348 484.608C517.655 482.143 513.906 481.465 510.101 482.573C499.975 485.536 501.92 497.221 502.075 504.976C502.084 505.655 501.744 505.994 501.057 505.994L375.795 505.93C376.242 505.208 376.576 504.302 376.8 503.211C376.883 502.795 377.111 502.421 377.444 502.155C390.379 491.887 405.684 477.935 415.037 470.256C416.995 468.659 420.061 467.976 422.857 467.976C456.628 467.942 490.399 467.959 524.17 468.028C528.361 468.036 532.548 468.204 536.731 468.53C536.963 468.547 537.156 468.474 537.31 468.311Z" fill="#B9C702"/>
<path d="M650.218 484.235L679.089 502.142C679.221 502.224 679.326 502.342 679.391 502.482C679.456 502.623 679.478 502.78 679.455 502.934C679.431 503.088 679.364 503.233 679.26 503.351C679.156 503.469 679.021 503.555 678.87 503.598L670.123 506.02C670.097 504.405 669.131 503.267 667.224 502.606C663.247 501.232 659.206 499.982 655.101 498.857C648.234 496.989 649.458 489.633 650.218 484.235Z" fill="#005357"/>
<path d="M515.19 530.15C517.698 531.928 519.665 533.058 521.091 533.539C534.48 538.108 547.501 543.643 560.152 550.145C549.159 559.575 538.951 569.397 529.529 579.609C528.241 581 526.768 582.366 525.11 583.705C524.936 583.844 524.727 583.932 524.506 583.959C524.285 583.985 524.061 583.95 523.859 583.856C523.657 583.763 523.485 583.614 523.362 583.428C523.24 583.243 523.171 583.026 523.165 582.804C522.993 575.572 523.066 568.207 523.384 560.709C523.538 556.96 524.015 553.43 520.189 551.498C516.272 549.526 508.736 551.111 508.723 556.522C508.714 564.57 508.689 572.622 508.646 580.678C508.637 581.554 508.534 582.357 508.336 583.087C508.289 583.269 508.194 583.435 508.061 583.568C507.928 583.702 507.762 583.797 507.579 583.846C507.396 583.894 507.203 583.893 507.019 583.844C506.835 583.794 506.668 583.698 506.533 583.564C497.532 574.545 488.565 565.575 479.633 556.651C475.549 552.567 471.066 548.844 466.067 553.598C463.387 556.148 461.828 560.838 464.946 563.595C474.9 572.398 484.498 581.7 493.74 591.5C493.86 591.63 493.944 591.791 493.981 591.965C494.018 592.139 494.008 592.32 493.951 592.488C493.894 592.657 493.794 592.807 493.659 592.923C493.524 593.039 493.361 593.117 493.186 593.149C491.537 593.432 489.733 593.557 487.775 593.522C478.971 593.333 470.168 593.23 461.365 593.213C449.229 593.187 447.786 608.608 461.687 608.583C472.637 608.557 483.73 608.6 494.964 608.711C495.19 608.714 495.41 608.78 495.601 608.902C495.791 609.024 495.942 609.198 496.038 609.402C496.134 609.607 496.169 609.835 496.141 610.059C496.113 610.283 496.022 610.495 495.878 610.67L483.974 625.344L326.35 625.898C333.513 616.029 341.049 607.513 349.088 598.534C351.304 596.06 353.185 595.081 356.367 594.965C363.62 594.695 380.278 596.962 380.021 585.561C379.853 578.423 374.97 577.135 369.147 576.542C368.666 576.499 368.525 576.255 368.722 575.808C369.315 574.477 370.096 573.274 371.067 572.201C376.71 565.957 381.957 559.395 386.81 552.515C391.852 545.352 396.915 537.927 401.999 530.24L423.746 530.717C431.751 534.908 439.996 538.331 448.481 540.985C448.807 541.087 449.153 541.108 449.489 541.048C449.826 540.988 450.142 540.848 450.413 540.639C450.683 540.431 450.9 540.16 451.043 539.85C451.187 539.54 451.254 539.2 451.238 538.859L450.865 530.794C450.848 530.391 451.037 530.142 451.432 530.047C452.316 529.815 453.36 529.785 454.562 529.957C455.043 530.137 455.709 530.167 456.559 530.047C467.398 533.904 478.452 537.691 489.72 541.41C493.8 542.759 497.978 543.544 502.256 543.768C508.104 544.077 506.172 532.469 505.528 529.686C508.628 529.188 511.849 529.343 515.19 530.15Z" fill="#03BCAB"/>
<path d="M454.562 529.957C453.36 529.785 452.316 529.815 451.431 530.047C451.036 530.141 450.847 530.391 450.865 530.794L451.238 538.859C451.254 539.2 451.187 539.54 451.043 539.85C450.899 540.16 450.683 540.43 450.413 540.639C450.142 540.848 449.825 540.988 449.489 541.048C449.153 541.108 448.807 541.087 448.481 540.985C439.996 538.331 431.75 534.908 423.746 530.717L454.562 529.957Z" fill="#007171"/>
<path d="M505.528 529.686C506.172 532.469 508.105 544.077 502.256 543.768C497.979 543.544 493.8 542.758 489.721 541.41C478.452 537.691 467.399 533.903 456.56 530.047C470.052 530.013 483.786 530.107 497.76 530.33C499.606 530.356 502.196 530.141 505.528 529.686Z" fill="#007171"/>
<path d="M582.44 530.743C584.562 533.534 586.893 535.934 589.436 537.944C597.14 544.012 604.316 550.505 611.839 556.779C613.248 557.947 614.794 559.571 616.477 561.649C616.572 561.768 616.627 561.913 616.637 562.065C616.646 562.217 616.61 562.368 616.531 562.498C616.453 562.628 616.337 562.731 616.198 562.794C616.06 562.856 615.905 562.875 615.756 562.847C615.576 562.813 615.421 562.796 615.292 562.796C615.232 562.793 615.172 562.804 615.116 562.828C615.06 562.851 615.01 562.887 614.968 562.932C614.927 562.977 614.895 563.031 614.876 563.089C614.856 563.148 614.849 563.21 614.854 563.272L614.944 563.955C609.147 564.024 604.93 566.97 602.293 572.793C601.606 572.424 601.177 571.603 601.005 570.332C600.945 569.911 600.786 569.534 600.528 569.199C594.653 561.829 583.986 550.26 575.239 549.062C574.821 549.003 574.4 549.08 574.04 549.281L566.246 553.52L560.152 550.144C547.501 543.643 534.481 538.107 521.091 533.538C519.665 533.057 517.698 531.928 515.19 530.15L582.44 530.743Z" fill="#007171"/>
<path d="M402 530.24C396.915 537.927 391.852 545.352 386.811 552.515C381.958 559.395 376.71 565.957 371.067 572.201C370.097 573.274 369.315 574.477 368.723 575.808C368.525 576.255 368.667 576.499 369.148 576.542C374.971 577.135 379.854 578.423 380.021 585.561C380.279 596.962 363.621 594.695 356.368 594.965C353.186 595.081 351.305 596.06 349.089 598.534C341.05 607.513 333.513 616.029 326.35 625.898L305.183 625.885C304.711 625.885 304.646 625.726 304.99 625.408C314.562 616.647 323.335 608.763 332.843 598.366C350.57 578.99 361.727 566.103 366.313 559.704C373.262 550.016 380.33 540.401 387.519 530.859C387.691 530.63 387.913 530.445 388.168 530.318C388.423 530.19 388.704 530.124 388.988 530.125L402 530.24Z" fill="#FFFFFA"/>
<path d="M673.692 573.27C672.158 575.202 670.007 576.581 668.822 578.333C667.405 580.42 666.262 583.237 665.395 586.784C664.957 588.588 662.741 591.319 660.783 592.723C658.915 594.05 657.665 595.583 655.513 596.627C654.586 597.074 653.748 597.649 653.001 598.353C652.701 598.628 652.516 598.972 652.447 599.384C651.88 603.12 651.142 604.073 650.231 602.244C649.265 592.62 639.603 588.627 631.86 594.025C631.637 593.629 631.431 592.942 631.242 591.963C631.147 591.457 631.28 591.07 631.641 590.804C631.899 590.615 631.989 590.366 631.912 590.057C631.637 589.026 630.829 588.545 629.49 588.614C627.875 588.7 626.269 588.708 624.671 588.639C620.772 588.459 619.213 587.231 619.995 584.955C629.567 578.745 625.612 566.042 614.945 563.955L614.854 563.273C614.849 563.211 614.856 563.148 614.876 563.09C614.896 563.031 614.927 562.977 614.969 562.932C615.01 562.887 615.06 562.852 615.116 562.828C615.172 562.805 615.232 562.794 615.292 562.796C615.421 562.796 615.576 562.813 615.756 562.847C615.906 562.875 616.06 562.856 616.198 562.794C616.337 562.731 616.453 562.628 616.531 562.498C616.61 562.368 616.647 562.217 616.637 562.065C616.627 561.914 616.572 561.769 616.478 561.649C614.794 559.571 613.248 557.948 611.84 556.78C604.316 550.505 597.14 544.012 589.436 537.944C586.894 535.935 584.562 533.534 582.44 530.743C602.28 531.146 621.893 531.142 641.278 530.73C642.772 530.691 644.357 531.49 645.091 532.637C654.015 546.602 663.548 560.146 673.692 573.27Z" fill="#005357"/>
<path d="M602.293 572.793C601.829 576.392 602.572 579.767 604.522 582.92C605.071 585.007 606.497 588.236 608.799 592.608C610.517 595.871 611.474 600.264 611.672 605.787C611.947 613.74 608.971 620.349 602.744 625.614L547.05 625.305C544.001 619.748 540.111 614.977 535.378 610.992C534.863 610.562 534.459 610.154 534.167 609.768C534.082 609.651 534.03 609.513 534.018 609.368C534.006 609.224 534.035 609.079 534.1 608.95C534.165 608.82 534.265 608.712 534.388 608.636C534.512 608.559 534.654 608.519 534.798 608.518C546.96 608.527 559.092 608.548 571.193 608.583C576.243 608.596 579.863 605.581 579.413 600.363C578.923 594.605 574.027 593.239 568.733 593.252C558.692 593.295 548.575 593.321 538.38 593.329C536.482 593.329 536.228 592.685 537.62 591.397C546.329 583.358 555.252 574.932 564.391 566.12C568.075 562.573 568.694 558.373 566.246 553.52L574.04 549.282C574.4 549.081 574.821 549.004 575.238 549.063C583.986 550.261 594.653 561.83 600.528 569.199C600.786 569.534 600.945 569.912 601.005 570.333C601.176 571.604 601.606 572.424 602.293 572.793Z" fill="#03BCAB"/>
<path d="M560.152 550.145L566.245 553.52C568.693 558.373 568.075 562.573 564.39 566.12C555.252 574.932 546.328 583.357 537.619 591.397C536.228 592.685 536.481 593.329 538.379 593.329C548.574 593.32 558.692 593.295 568.732 593.252C574.027 593.239 578.922 594.604 579.412 600.363C579.863 605.581 576.243 608.595 571.193 608.583C559.091 608.548 546.959 608.527 534.798 608.518C534.653 608.519 534.511 608.559 534.388 608.635C534.265 608.712 534.165 608.82 534.099 608.95C534.034 609.079 534.006 609.224 534.018 609.368C534.03 609.513 534.081 609.651 534.167 609.768C534.459 610.154 534.862 610.562 535.378 610.992C540.11 614.977 544.001 619.748 547.05 625.305C542.317 625.133 537.92 625.051 533.857 625.06C529.761 625.073 527.442 623.566 524.375 621.247C524.185 621.1 523.957 621.01 523.718 620.99C523.478 620.969 523.238 621.018 523.024 621.13C522.81 621.242 522.632 621.413 522.511 621.624C522.39 621.834 522.331 622.074 522.34 622.316C522.374 623.192 522.198 624.008 521.812 624.764C521.588 625.202 521.236 625.429 520.755 625.447C517.706 625.541 514.692 625.532 511.711 625.421C510.887 625.395 510.264 625.176 509.843 624.764C509.216 624.154 508.989 623.454 509.16 622.664C509.427 621.427 509.083 621.225 508.13 622.058C505.965 623.978 503.582 625.073 500.477 625.15C495.315 625.27 489.814 625.335 483.974 625.344L495.878 610.67C496.021 610.495 496.112 610.283 496.141 610.059C496.169 609.835 496.133 609.607 496.037 609.402C495.942 609.198 495.79 609.024 495.6 608.902C495.41 608.78 495.189 608.714 494.963 608.711C483.729 608.6 472.637 608.557 461.686 608.583C447.785 608.608 449.228 593.187 461.364 593.213C470.168 593.23 478.971 593.333 487.774 593.522C489.733 593.557 491.536 593.432 493.185 593.149C493.36 593.117 493.524 593.039 493.658 592.923C493.793 592.807 493.894 592.657 493.951 592.488C494.007 592.32 494.017 592.139 493.98 591.965C493.943 591.791 493.86 591.63 493.739 591.5C484.498 581.7 474.9 572.398 464.946 563.595C461.828 560.838 463.387 556.148 466.066 553.597C471.065 548.844 475.548 552.567 479.632 556.651C488.565 565.574 497.531 574.545 506.532 583.564C506.667 583.698 506.835 583.794 507.019 583.844C507.202 583.893 507.395 583.894 507.578 583.845C507.761 583.797 507.928 583.702 508.061 583.568C508.194 583.435 508.289 583.269 508.336 583.087C508.533 582.357 508.637 581.554 508.645 580.678C508.688 572.622 508.714 564.57 508.722 556.522C508.735 551.111 516.272 549.526 520.188 551.498C524.015 553.43 523.538 556.96 523.383 560.709C523.066 568.207 522.993 575.572 523.164 582.803C523.171 583.026 523.239 583.242 523.362 583.428C523.484 583.614 523.656 583.762 523.858 583.856C524.06 583.95 524.284 583.985 524.505 583.959C524.726 583.932 524.936 583.844 525.11 583.705C526.767 582.365 528.24 581 529.529 579.608C538.95 569.396 549.158 559.575 560.152 550.145Z" fill="#FFFFFA"/>
<path d="M614.944 563.956C625.611 566.043 629.566 578.745 619.994 584.955C614.747 587.626 609.589 586.948 604.522 582.92C602.572 579.767 601.829 576.392 602.293 572.793C604.93 566.97 609.147 564.024 614.944 563.956Z" fill="#FFFFFA"/>
<path d="M673.691 573.27C679.721 581.309 685.557 587.222 691.509 594.257C700.888 605.349 712.186 614.986 722.75 624.893C723.463 625.563 723.33 625.898 722.351 625.898L602.744 625.614C608.971 620.349 611.947 613.74 611.672 605.787C611.475 600.264 610.517 595.871 608.799 592.608C606.497 588.236 605.072 585.007 604.522 582.919C609.589 586.948 614.747 587.626 619.995 584.955C619.213 587.231 620.772 588.459 624.671 588.64C626.269 588.708 627.875 588.7 629.489 588.614C630.829 588.545 631.637 589.026 631.912 590.057C631.989 590.366 631.899 590.615 631.641 590.804C631.28 591.07 631.147 591.457 631.242 591.963C631.431 592.943 631.637 593.63 631.86 594.025C624.014 601.871 628.897 615.333 640.736 613.465C646.293 612.589 649.458 608.849 650.231 602.244C651.142 604.074 651.88 603.12 652.447 599.384C652.516 598.972 652.701 598.628 653.001 598.353C653.748 597.649 654.586 597.074 655.513 596.627C657.665 595.584 658.914 594.05 660.783 592.724C662.741 591.319 664.957 588.588 665.395 586.784C666.262 583.237 667.405 580.42 668.822 578.333C670.007 576.581 672.158 575.202 673.691 573.27Z" fill="#007171"/>
<path d="M650.231 602.244C649.458 608.849 646.294 612.589 640.737 613.465C628.897 615.333 624.014 601.87 631.86 594.025C639.603 588.627 649.265 592.62 650.231 602.244Z" fill="#FFFFFA"/>
<path d="M632.968 651.921C635.897 660.381 638.692 668.733 641.355 676.979C642.3 679.916 643.807 682.497 645.877 684.721C645.962 684.812 646.027 684.919 646.069 685.036C646.11 685.153 646.126 685.277 646.117 685.401C646.107 685.525 646.071 685.645 646.012 685.755C645.953 685.864 645.872 685.96 645.774 686.035C645.602 686.173 645.434 686.173 645.271 686.035L224.444 686.332C221.129 675.141 223.968 665.878 232.96 658.543C240.201 652.655 246.629 651.625 256.665 651.599C290.324 651.539 323.936 651.539 357.501 651.599C357.652 651.599 357.801 651.629 357.939 651.688C358.078 651.746 358.203 651.833 358.308 651.941C358.412 652.049 358.494 652.177 358.548 652.318C358.602 652.458 358.627 652.608 358.622 652.758C358.416 658.762 357.192 670.125 360.026 675.175C363.44 681.269 371.66 683.497 377.316 678.589C383.293 673.41 381.425 661.016 381.464 653.377C381.464 652.943 381.636 652.527 381.943 652.22C382.25 651.913 382.666 651.741 383.1 651.741L431.721 651.753C432.142 651.753 432.356 651.968 432.365 652.398C432.537 660.085 432.554 665.38 432.417 668.283C431.811 681.204 448.585 686.628 453.867 674.544C456.083 669.481 455.091 658.955 455.168 652.952C455.17 652.769 455.207 652.588 455.279 652.42C455.35 652.252 455.454 652.1 455.585 651.972C455.715 651.843 455.869 651.742 456.039 651.674C456.208 651.606 456.39 651.571 456.572 651.573L507.718 651.766C508.173 651.766 508.405 651.998 508.414 652.462C508.582 660.772 506.559 671.851 511.673 677.829C516.749 683.768 526.876 681.475 529.839 674.557C532.067 669.365 530.934 658.44 530.766 652.411C530.763 652.298 530.782 652.187 530.822 652.082C530.863 651.978 530.924 651.882 531.002 651.802C531.08 651.721 531.174 651.657 531.277 651.613C531.38 651.57 531.491 651.547 531.604 651.547L573.422 651.56C573.518 651.56 573.613 651.579 573.701 651.616C573.79 651.653 573.87 651.708 573.937 651.776C574.004 651.844 574.057 651.925 574.092 652.015C574.128 652.104 574.145 652.199 574.144 652.295C573.963 658.852 572.778 669.571 575.264 675.007C579.361 683.974 592.025 682.402 595.774 673.938C596.358 672.607 596.65 670.735 596.65 668.321C596.633 663.194 596.663 658.028 596.741 652.823C596.742 652.669 596.774 652.517 596.835 652.375C596.895 652.233 596.983 652.105 597.093 651.998C597.203 651.89 597.333 651.805 597.476 651.748C597.619 651.69 597.772 651.662 597.926 651.663L632.968 651.921Z" fill="#FFFFFA"/>
<path d="M799.791 686.061L647.242 686.255C646.486 686.358 645.829 686.285 645.271 686.036C645.434 686.173 645.602 686.173 645.774 686.036C645.872 685.96 645.953 685.864 646.012 685.755C646.071 685.646 646.107 685.525 646.117 685.402C646.126 685.278 646.11 685.153 646.069 685.036C646.027 684.919 645.962 684.812 645.877 684.722C643.807 682.497 642.299 679.916 641.355 676.979C638.692 668.734 635.897 660.381 632.968 651.921L650.373 651.612C650.802 651.603 651.021 651.818 651.03 652.256C651.184 658.517 651.146 663.645 650.914 667.639C649.909 685.082 673.485 686.551 674.155 669.571C674.378 663.963 674.387 658.316 674.181 652.63C674.176 652.529 674.191 652.427 674.226 652.332C674.261 652.237 674.316 652.15 674.386 652.076C674.455 652.003 674.54 651.944 674.633 651.904C674.726 651.864 674.827 651.844 674.928 651.844L714.196 651.857C714.297 651.857 714.397 651.877 714.489 651.917C714.582 651.957 714.665 652.016 714.734 652.09C714.803 652.164 714.856 652.251 714.89 652.346C714.923 652.441 714.937 652.542 714.93 652.643C714.531 658.736 713.371 668.747 715.381 674.145C717.739 680.483 725.172 683.253 731.124 680.47C734.594 678.847 736.552 675.545 736.999 670.563C737.523 664.637 737.54 658.762 737.05 652.939C737.04 652.823 737.054 652.706 737.092 652.595C737.129 652.484 737.19 652.383 737.27 652.297C737.35 652.211 737.448 652.142 737.556 652.095C737.665 652.048 737.782 652.024 737.901 652.024C749.496 651.981 761.138 652.02 772.827 652.14C784.151 652.256 790.09 655.541 796.197 664.791C801.101 672.221 802.299 679.311 799.791 686.061Z" fill="#CCE8C1"/>
<path d="M799.791 686.062C797.352 692.761 793.289 697.519 787.604 700.336C779.964 704.124 766.514 702.874 757.676 702.694C750.29 702.53 745.42 705.863 743.067 712.691C740.658 719.661 748.22 726.991 754.777 726.914C762.958 726.824 773.381 725.265 780.801 729.529C786.908 733.042 791.928 737.839 795.862 743.92C749.852 743.181 703.949 742.949 658.154 743.224C655.019 743.241 651.889 743.327 648.762 743.482C648.53 743.361 648.384 743.258 648.324 743.172L649.02 721.439C652.267 723.861 653.967 726.321 658.412 726.36C676.998 726.566 695.584 726.622 714.17 726.527C720.431 726.489 723.781 725.677 726.1 719.815C729.681 710.746 723.587 702.707 714.196 702.835C695.73 703.102 677.264 703.08 658.798 702.771C655.543 702.719 652.477 703.497 649.6 705.103L647.242 686.255L799.791 686.062Z" fill="#A7261E"/>
<path d="M645.27 686.036C645.828 686.285 646.485 686.358 647.241 686.255L649.599 705.103C649.118 706.683 648.551 708.315 647.898 709.998C647.074 712.085 646.687 713.747 646.739 714.984C646.816 717.32 647.576 719.472 649.019 721.438L648.323 743.172C626.409 743.546 603.464 743.031 582.787 743.031C540.917 743.048 499.047 743.005 457.177 742.902C431.784 742.85 406.301 743.404 380.844 743.172C346.562 742.863 312.268 743.043 277.986 743.005C262.552 742.992 244 743.572 226.917 743.507C230.026 739.874 232.916 736.817 235.587 734.334C242.338 728.073 248.728 726.36 258.519 726.205C266.829 726.076 278.411 728.692 283.358 719.905C286.888 713.644 283.281 706.069 276.568 703.892C274.868 703.342 272.214 703.067 268.607 703.067C261.676 703.059 254.744 703.063 247.813 703.08C236.476 703.114 228.686 697.532 224.443 686.332L645.27 686.036Z" fill="#FF5E25"/>
<path d="M649.02 721.439C647.577 719.472 646.817 717.32 646.74 714.984C646.688 713.747 647.075 712.085 647.899 709.998C648.552 708.315 649.119 706.683 649.6 705.103C652.477 703.497 655.543 702.719 658.798 702.771C677.264 703.08 695.73 703.102 714.196 702.835C723.588 702.707 729.681 710.746 726.1 719.815C723.781 725.677 720.431 726.489 714.17 726.527C695.584 726.622 676.998 726.566 658.412 726.36C653.967 726.321 652.267 723.861 649.02 721.439Z" fill="#001318"/>
<path d="M648.324 743.172C648.384 743.258 648.53 743.361 648.762 743.481C649.294 743.593 649.569 743.971 649.586 744.615C649.604 745.422 649.793 746.942 650.153 749.175C650.222 749.579 650.394 749.931 650.669 750.232L652.331 751.984C650.982 756.124 650.574 760.817 651.107 766.065L639.409 766.864L597.461 766.877C597.23 763.012 597.655 758.091 596.56 754.857C592.656 743.275 576.333 744.512 574.581 757.807C574.298 759.971 574.246 762.939 574.426 766.709L531.423 766.568C531.023 759.843 532.44 753.375 526.012 748.879C520.768 745.22 512.781 746.921 509.818 752.912C507.937 756.699 508.413 762.265 508.465 766.658L455.696 766.8C455.816 763.957 455.859 761.075 455.824 758.155C455.734 750.142 445.621 743.726 438.522 748.544C431.798 753.131 432.661 759.508 432.622 766.684L381.605 766.658C381.519 765.653 381.515 763.458 381.592 760.075C381.85 749.227 369.533 741.871 361.301 750.541C356.805 755.269 358.544 760.976 358.364 766.645H308.777C308.532 759.959 309.885 754.058 303.173 749.472C297.053 745.285 289.014 747.217 285.793 753.981C285.166 755.286 284.926 757.24 285.072 759.843C285.209 762.333 285.218 764.571 285.098 766.555L223.838 766.426C221.416 758.138 222.443 750.498 226.917 743.507C244 743.571 262.552 742.992 277.986 743.004C312.268 743.043 346.563 742.863 380.845 743.172C406.302 743.404 431.785 742.85 457.177 742.901C499.047 743.004 540.917 743.047 582.788 743.03C603.465 743.03 626.41 743.545 648.324 743.172Z" fill="#FFFFFA"/>
<path d="M795.862 743.919C801.247 749.588 802.887 756.579 800.783 764.893C800.611 765.554 800.504 766.001 800.461 766.233L737.643 766.568C737.398 759.431 738.609 749.201 729.075 747.089C723.003 745.74 718.692 747.655 716.141 752.834C714.208 756.738 714.827 761.75 714.891 766.31L674.49 766.671C674.679 763.527 674.567 760.259 674.155 756.867C672.647 744.667 658.991 742.412 652.331 751.984L650.669 750.232C650.394 749.931 650.222 749.579 650.154 749.176C649.793 746.943 649.604 745.422 649.587 744.615C649.569 743.971 649.295 743.593 648.762 743.481C651.889 743.327 655.019 743.241 658.154 743.224C703.949 742.949 749.852 743.181 795.862 743.919Z" fill="#CCE8C1"/>
<path d="M308.777 766.645C308.365 770.369 309.009 774.736 307.295 777.931C303.83 784.398 295.134 786.086 289.491 781.062C284.776 776.862 285.819 772.237 285.098 766.555C285.218 764.571 285.21 762.334 285.072 759.843C284.926 757.241 285.167 755.287 285.794 753.981C289.014 747.218 297.053 745.285 303.173 749.472C309.885 754.059 308.532 759.959 308.777 766.645Z" fill="#001318"/>
<path d="M651.107 766.065L650.708 786.021L639.409 766.864L651.107 766.065Z" fill="#007171"/>
<path d="M714.891 766.31L715.11 785.751C715.112 785.82 715.1 785.888 715.075 785.952C715.05 786.016 715.012 786.074 714.964 786.124C714.916 786.173 714.859 786.212 714.795 786.239C714.732 786.265 714.664 786.279 714.595 786.279L675.752 786.125C675.468 786.123 675.194 786.017 674.983 785.827C674.772 785.637 674.637 785.376 674.606 785.094C673.945 779.202 673.906 773.061 674.49 766.671L714.891 766.31Z" fill="#007171"/>
<path d="M285.098 766.555C285.819 772.237 284.776 776.862 289.491 781.062C295.134 786.086 303.83 784.398 307.295 777.931C309.009 774.736 308.364 770.369 308.777 766.645H358.364L358.518 785.184C358.518 785.931 358.145 786.296 357.398 786.279C340.366 785.931 322.781 785.313 305.685 786.318C290.302 787.232 274.662 786.021 259.228 786.073C250.055 786.107 243.824 785.549 240.535 784.398C232.504 781.598 226.939 775.608 223.838 766.426L285.098 766.555Z" fill="#03BCAB"/>
<path d="M508.465 766.658L508.632 785.583C508.632 785.648 508.619 785.711 508.594 785.771C508.569 785.83 508.532 785.884 508.485 785.93C508.438 785.975 508.383 786.011 508.322 786.036C508.261 786.06 508.196 786.073 508.13 786.073L456.172 786.176C456.066 786.178 455.96 786.158 455.861 786.118C455.763 786.077 455.674 786.018 455.599 785.942C455.524 785.866 455.466 785.775 455.427 785.676C455.388 785.577 455.37 785.471 455.373 785.365L455.696 766.8L508.465 766.658Z" fill="#03BCAB"/>
<path d="M574.427 766.71L574.62 784.952C574.622 785.109 574.593 785.265 574.535 785.41C574.477 785.555 574.391 785.687 574.282 785.799C574.173 785.91 574.043 785.999 573.9 786.059C573.757 786.119 573.603 786.15 573.448 786.15L531.655 785.97C531.585 785.97 531.515 785.956 531.45 785.93C531.385 785.903 531.326 785.864 531.277 785.815C531.228 785.765 531.189 785.707 531.164 785.643C531.138 785.579 531.125 785.511 531.127 785.442L531.423 766.568L574.427 766.71Z" fill="#03BCAB"/>
<path d="M800.461 766.233C798.477 777.738 788.157 785.661 776.665 785.944C763.757 786.245 751.088 786.352 738.66 786.266C737.724 786.258 737.265 785.785 737.282 784.849L737.642 766.568L800.461 766.233Z" fill="#007171"/>
<path d="M432.623 766.684L432.79 785.133C432.79 785.248 432.768 785.362 432.724 785.468C432.68 785.574 432.615 785.671 432.534 785.752C432.452 785.833 432.356 785.898 432.25 785.942C432.143 785.986 432.029 786.009 431.914 786.009L382.031 786.112C381.687 786.112 381.516 785.936 381.516 785.583L381.606 766.658L432.623 766.684Z" fill="#03BCAB"/>
<path d="M639.409 766.865L650.708 786.022L598.054 786.318C597.599 786.318 597.376 786.095 597.385 785.648L597.462 766.878L639.409 766.865Z" fill="#03BCAB"/>
<path d="M522.232 323.956C522.409 325.101 522.348 326.272 522.052 327.401C521.755 328.531 521.23 329.596 520.505 330.538C519.781 331.479 518.871 332.278 517.828 332.888C516.785 333.498 515.63 333.908 514.428 334.094C513.226 334.28 512 334.239 510.822 333.973C509.644 333.706 508.535 333.22 507.56 332.542C506.584 331.864 505.761 331.007 505.137 330.02C504.513 329.033 504.101 327.935 503.924 326.79C503.746 325.645 503.808 324.474 504.104 323.345C504.4 322.216 504.926 321.15 505.65 320.208C506.375 319.267 507.284 318.468 508.327 317.858C509.37 317.248 510.525 316.838 511.728 316.652C512.93 316.466 514.155 316.507 515.333 316.774C516.512 317.04 517.62 317.526 518.596 318.204C519.571 318.882 520.394 319.74 521.018 320.726C521.642 321.713 522.054 322.811 522.232 323.956Z" fill="#001318"/>
<path d="M485.985 360.735C485.073 361.571 484 362.212 482.826 362.622C481.652 363.032 480.4 363.203 479.143 363.126C477.886 363.048 476.647 362.723 475.497 362.169C474.348 361.615 473.311 360.843 472.444 359.898C471.578 358.952 470.899 357.852 470.448 356.658C469.996 355.465 469.781 354.203 469.813 352.943C469.845 351.684 470.124 350.452 470.635 349.319C471.146 348.185 471.878 347.171 472.79 346.336C473.702 345.5 474.775 344.859 475.949 344.449C477.123 344.039 478.375 343.868 479.632 343.946C480.89 344.023 482.128 344.348 483.278 344.902C484.427 345.456 485.465 346.228 486.331 347.173C487.197 348.119 487.876 349.219 488.327 350.413C488.779 351.606 488.994 352.868 488.962 354.128C488.93 355.387 488.651 356.619 488.14 357.753C487.629 358.886 486.897 359.9 485.985 360.735Z" fill="#001318"/>
<path d="M554.159 365.213C551.701 366.132 548.964 365.997 546.55 364.839C544.136 363.681 542.243 361.593 541.287 359.036C540.331 356.479 540.39 353.662 541.452 351.204C542.514 348.746 544.492 346.848 546.949 345.929C549.407 345.01 552.144 345.145 554.558 346.303C556.973 347.462 558.866 349.549 559.822 352.106C560.778 354.663 560.719 357.481 559.657 359.939C558.595 362.397 556.617 364.294 554.159 365.213Z" fill="#001318"/>
<path d="M432.559 576.401C432.559 579.527 431.317 582.525 429.106 584.736C426.896 586.947 423.897 588.189 420.771 588.189C417.645 588.189 414.646 586.947 412.435 584.736C410.225 582.525 408.983 579.527 408.983 576.401C408.983 573.274 410.225 570.276 412.435 568.065C414.646 565.854 417.645 564.613 420.771 564.613C423.897 564.613 426.896 565.854 429.106 568.065C431.317 570.276 432.559 573.274 432.559 576.401Z" fill="#FFFFFA"/>
<path d="M390.29 613.387C388.913 612.902 387.647 612.144 386.564 611.158C385.482 610.171 384.603 608.975 383.98 607.636C383.357 606.298 383 604.845 382.931 603.359C382.862 601.873 383.082 600.384 383.577 598.976C384.579 596.134 386.643 593.797 389.318 592.479C391.992 591.162 395.057 590.972 397.839 591.951C399.216 592.436 400.482 593.194 401.565 594.181C402.647 595.167 403.525 596.364 404.149 597.702C404.772 599.04 405.128 600.494 405.197 601.98C405.266 603.466 405.047 604.955 404.551 606.362C403.55 609.205 401.485 611.542 398.811 612.859C396.136 614.177 393.071 614.366 390.29 613.387Z" fill="#FFFFFA"/>
<path d="M382.211 715.006C382.208 716.485 381.915 717.949 381.346 719.314C380.778 720.679 379.947 721.919 378.899 722.963C377.852 724.006 376.609 724.833 375.242 725.397C373.875 725.96 372.41 726.249 370.932 726.247L308.964 726.138C305.977 726.133 303.116 724.942 301.008 722.827C298.9 720.711 297.718 717.845 297.724 714.859L297.725 714.189C297.727 712.71 298.021 711.247 298.589 709.882C299.158 708.516 299.989 707.277 301.037 706.233C302.084 705.189 303.327 704.362 304.694 703.798C306.061 703.235 307.526 702.946 309.004 702.949L370.972 703.057C373.958 703.062 376.82 704.253 378.928 706.369C381.036 708.484 382.217 711.35 382.212 714.336L382.211 715.006Z" fill="#001318"/>
<path d="M486.124 715.153C486.116 716.637 485.816 718.104 485.241 719.472C484.666 720.84 483.828 722.081 482.773 723.125C481.718 724.168 480.469 724.994 479.095 725.555C477.721 726.115 476.25 726.4 474.767 726.392L413.212 726.07C410.215 726.054 407.348 724.849 405.24 722.719C403.132 720.589 401.957 717.709 401.973 714.712L401.976 714.042C401.984 712.559 402.284 711.091 402.859 709.723C403.434 708.355 404.273 707.114 405.327 706.071C406.382 705.027 407.632 704.201 409.006 703.641C410.379 703.08 411.85 702.795 413.334 702.803L474.889 703.125C477.885 703.141 480.753 704.347 482.86 706.477C484.968 708.606 486.143 711.486 486.128 714.483L486.124 715.153Z" fill="#001318"/>
<path d="M626.436 714.868C626.433 716.365 626.136 717.848 625.56 719.23C624.985 720.612 624.143 721.868 623.082 722.924C622.022 723.981 620.763 724.819 619.379 725.39C617.995 725.96 616.511 726.252 615.014 726.25L519.499 726.083C518.002 726.081 516.52 725.783 515.137 725.208C513.755 724.632 512.5 723.79 511.443 722.73C510.386 721.669 509.548 720.411 508.978 719.026C508.407 717.642 508.115 716.159 508.117 714.662L508.118 714.172C508.121 712.675 508.418 711.193 508.994 709.811C509.569 708.428 510.411 707.173 511.472 706.116C512.532 705.059 513.791 704.221 515.175 703.651C516.559 703.08 518.042 702.788 519.54 702.791L615.055 702.957C616.552 702.96 618.034 703.257 619.416 703.833C620.799 704.408 622.054 705.25 623.111 706.311C624.168 707.371 625.006 708.63 625.576 710.014C626.147 711.398 626.439 712.881 626.436 714.379L626.436 714.868Z" fill="#001318"/>
</svg>
