<svg width="1024" height="1024" viewBox="0 0 1024 1024" fill="none" xmlns="http://www.w3.org/2000/svg">
<rect width="1024" height="1024" fill="white"/>
<path d="M247.167 711.303C256.381 719.591 266.991 725.427 278.997 728.811C293.226 732.832 305.935 729.83 322.054 725.458C326.525 724.247 333.849 724.402 344.027 725.921C344.657 726.008 345.108 725.767 345.379 725.199C360.109 695.036 366.667 670.747 374.097 641.771C378.284 625.448 402.388 630.766 397.163 649.941C389.567 677.843 382.211 705.708 368.853 731.924C367.427 734.74 367.723 737.389 369.724 740.039C379.025 752.378 389.048 760.771 405 762.438C429.975 765.088 442.147 749.062 460.674 736.648C490.67 716.528 533.115 718.473 562.648 738.149C567.483 741.354 572.448 745.949 577.303 749.914C585.689 756.719 595.262 760.666 606.02 761.753C627.104 763.883 639.498 753.675 651.485 738.983C653.597 736.37 653.894 734.129 652.226 730.979C638.751 705.683 628.697 679.103 622.064 651.238C621.175 647.483 620.916 644.568 621.286 642.493C623.861 628.005 641.499 631.081 644.723 643.179C652.93 673.971 661.323 698.093 676.275 725.124C676.584 725.68 677.047 725.903 677.664 725.791C686.249 724.272 691.85 723.723 694.468 724.142C707.586 726.255 721.444 730.405 734.728 729.219C748.957 727.941 762.76 721.104 773.913 712.341C774.045 712.234 774.148 712.096 774.212 711.938C774.277 711.781 774.299 711.61 774.279 711.441C774.259 711.272 774.196 711.112 774.096 710.974C773.996 710.837 773.863 710.727 773.709 710.655C767.929 707.962 762.154 705.053 756.386 701.928C711.773 677.75 684.853 618.26 674.718 571.238C671.396 555.811 669.216 544.065 668.178 535.999C667.233 528.792 667.641 519.121 666.919 509.95C665.418 490.385 690.541 487.106 690.726 506.522C691.004 537.129 698.47 569.552 708.16 598.473C718.535 629.45 737.007 657.482 764.131 676.12C773.413 682.493 785.381 687.829 796.257 693.109C801.074 695.444 806.187 700.724 807.077 706.227C808.744 716.546 800.222 722.92 792.477 729.886C765.539 754.119 735.451 757.528 700.842 751.081C693.888 749.784 688.688 749.414 685.242 749.969C668.79 752.637 661.064 768.515 647.743 776.926C624.028 791.896 593.31 790.877 570.077 775.759C563.944 771.757 556.923 765.088 550.086 760.011C528.15 743.689 498.933 743.652 475.644 756.584C460.489 765.013 451.058 778.538 433.587 784.096C413.578 790.47 390.771 789.71 373.189 777.093C362.98 769.793 350.734 753.749 337.394 750.081C329.335 747.857 314.828 752.508 305.602 753.767C284.536 756.639 265.453 753.434 246.889 742.688C237.848 737.464 214.411 721.79 213.818 710.544C213.318 701.447 219.58 695.629 227.398 692.35C241.461 686.458 255.671 679.9 267.121 669.561C303.138 637.065 319.571 595.62 328.001 548.838C329.335 541.415 329.996 533.115 329.983 523.938C329.934 495.443 330.002 466.961 330.187 438.491C330.274 425.657 330.916 415.041 332.114 406.642C335.69 381.501 342.341 357.36 353.55 334.572C380.414 279.991 435.57 242.677 496.024 236.748C539.192 232.506 580.712 246.086 615.302 271.857C656.636 302.649 682.389 350.857 688.966 401.603C691.467 420.834 690.17 444.642 690.318 466.078C690.392 477.564 677.701 490.311 668.345 474.822C667.036 472.661 666.4 469.629 666.437 465.726C666.622 445.698 667.011 426.244 664.769 406.346C661.546 377.703 652.301 350.301 634.866 327.198C599.795 280.75 538.229 250.292 479.553 264.057C402.276 282.195 355.755 351.987 355.069 429.968C354.847 454.591 355.014 477.398 354.587 503.873C354.365 516.601 355.329 529.681 353.735 541.705C349.363 574.82 339.605 606.328 324.462 636.231C316.403 652.127 310.048 659.501 301.97 669.765C286.815 689.034 269.085 698.705 247.315 710.117C246.698 710.439 246.648 710.834 247.167 711.303Z" fill="#030108"/>
<path d="M497.738 293.197C495.443 300.52 499.385 308.275 506.542 310.518C513.699 312.761 521.361 308.642 523.656 301.319C525.951 293.996 522.01 286.242 514.853 283.999C507.695 281.756 500.033 285.874 497.738 293.197Z" fill="#030108"/>
<path d="M263.063 317.119C271.259 317.119 277.904 310.475 277.904 302.279C277.904 294.083 271.259 287.439 263.063 287.439C254.867 287.439 248.223 294.083 248.223 302.279C248.223 310.475 254.867 317.119 263.063 317.119Z" fill="#030108"/>
<path d="M544.669 377.412C543.905 394.237 556.387 408.471 572.547 409.205C588.708 409.939 602.428 396.894 603.192 380.069C603.956 363.245 591.474 349.01 575.314 348.276C559.153 347.543 545.433 360.587 544.669 377.412Z" fill="#030108"/>
<path d="M418.868 377.936C418.129 394.854 430.533 409.137 446.572 409.837C462.611 410.537 476.212 397.39 476.951 380.472C477.689 363.554 465.286 349.271 449.247 348.571C433.207 347.87 419.606 361.018 418.868 377.936Z" fill="#030108"/>
<path d="M278.867 455.981L269.029 466.467C268.609 466.912 268.405 467.436 268.418 468.042C268.51 474.786 270.604 482.196 263.508 486.624C258.333 489.848 253.553 489.379 249.168 485.216C245.37 481.622 246.574 474.749 246.537 470.117C246.5 465.077 239.219 459.667 236.329 456.11C235.921 455.616 235.402 455.406 234.772 455.48C229.437 456.11 222.007 457.129 217.598 453.961C212.169 450.052 211.651 442.567 215.856 437.639C220.599 432.08 228.288 434.304 234.828 434.044C235.421 434.02 235.909 433.785 236.292 433.34C238.317 430.932 240.868 428.61 243.943 426.374C250.409 421.668 243.795 411.182 247.464 404.382C253.707 392.803 269.696 399.232 268.751 411.404C268.418 415.752 268.276 419.087 268.325 421.409C268.325 421.895 268.518 422.362 268.862 422.706L279.164 433.248C279.52 433.604 279.997 433.81 280.498 433.822C283.882 433.834 287.235 433.81 290.558 433.748C307.436 433.414 304.694 457.833 291.484 456.314C287.803 455.882 284.098 455.567 280.368 455.369C279.775 455.344 279.275 455.548 278.867 455.981Z" fill="#030108"/>
<path d="M745.27 433.915L755.868 422.872C756.106 422.623 756.239 422.291 756.238 421.946C756.183 416.795 755.386 410.57 757.943 406.235C761.908 399.528 774.191 399.009 777.933 406.958C779.657 410.644 778.1 418.315 778.378 422.872C778.415 423.391 778.631 423.83 779.027 424.188L788.883 433.136C789.315 433.519 789.822 433.705 790.402 433.692C795.108 433.618 801.463 432.803 805.298 435.137C811.875 439.176 811.06 449.718 805.891 454.257C801.593 458.037 795.182 456.833 789.68 456.684C789.062 456.672 788.537 456.882 788.105 457.314L779.453 465.948C779.232 466.169 779.061 466.436 778.952 466.73C778.843 467.024 778.799 467.339 778.823 467.652C779.49 476.156 780.62 485.642 770.43 488.329C765.848 489.539 762.136 488.526 759.295 485.29C755.534 481.011 756.905 472.47 756.942 466.93C756.942 466.399 756.738 465.96 756.331 465.615L746.419 457.296C746.095 457.032 745.684 456.882 745.252 456.87C736.97 456.74 725.613 458.111 725.353 446.476C725.076 434.693 734.098 432.655 743.881 434.359C744.424 434.458 744.887 434.31 745.27 433.915Z" fill="#030108"/>
<path d="M511.695 484.012C524.964 483.085 535.018 472.27 534.15 459.858C533.282 447.446 521.821 438.136 508.552 439.064C495.282 439.992 485.229 450.806 486.096 463.218C486.964 475.631 498.425 484.94 511.695 484.012Z" fill="#030108"/>
<path d="M249.54 444.986C249.637 449.6 253.115 453.269 257.31 453.181C261.504 453.093 264.826 449.281 264.729 444.668C264.633 440.054 261.154 436.385 256.96 436.473C252.765 436.561 249.444 440.372 249.54 444.986Z" fill="#FF8634"/>
<path d="M767.429 452.701C771.665 452.701 775.099 449.267 775.099 445.031C775.099 440.794 771.665 437.36 767.429 437.36C763.192 437.36 759.758 440.794 759.758 445.031C759.758 449.267 763.192 452.701 767.429 452.701Z" fill="#FF8634"/>
</svg>
