<svg width="512" height="512" viewBox="0 0 512 512" fill="none" xmlns="http://www.w3.org/2000/svg">
<rect width="512" height="512" fill="white"/>
<path d="M298.874 153.942C306.142 150.453 313.355 148.14 320.513 147.003C325.299 146.239 333.144 149.873 330.333 155.988C327.452 162.268 324.076 168.513 321.901 174.863C320.881 177.827 319.894 180.861 318.937 183.966C318.804 184.413 318.968 184.648 319.431 184.671C325.335 184.954 339.282 184.954 339.035 194.244C338.906 199.113 331.274 202.065 327.593 204.241C314.962 211.728 305.503 221.92 299.215 234.817C299.016 235.228 298.963 235.695 299.065 236.14C299.168 236.585 299.42 236.982 299.779 237.264C315.797 249.765 324.194 265.665 328.145 285.304C328.741 288.268 329.129 291.62 329.31 295.36C330 309.942 330.027 323.055 329.392 334.698C327.087 376.929 295.158 407.353 252.327 405.954C214.353 404.719 185.881 375.53 184.152 338.155C183.529 324.725 182.67 302.004 184.799 285.022C187.28 265.3 197.429 248.765 212.659 236.299C212.957 236.056 213.031 235.758 212.882 235.405C210.875 230.56 208.468 226.393 205.662 222.904C198.261 213.7 188.339 205.871 175.896 199.419C173.042 197.945 172.298 195.369 173.662 191.692C176.202 184.801 186.575 185.201 192.325 185.318C193.517 185.342 193.921 184.789 193.537 183.66C190.111 173.452 185.998 163.895 181.2 154.988C180.761 154.157 180.753 153.205 181.177 152.131C182.729 148.242 185.661 146.623 189.973 147.274C198.48 148.559 206.677 150.919 214.564 154.353C214.964 154.526 215.125 154.396 215.046 153.965C212.734 141.35 209.366 129.084 204.944 117.167C204.027 114.674 203.788 112.647 204.227 111.087C206.273 103.807 214.788 105.713 220.55 108.594C234.647 115.627 246.352 125.478 255.666 138.148C255.941 138.532 256.239 138.547 256.56 138.195C258.936 135.513 261.335 132.056 263.299 129.915C273.001 119.378 285.561 110.675 299.356 106.477C307.059 104.125 310.387 110.899 307.682 117.414C302.892 129.01 299.783 141.064 298.357 153.577C298.309 154.008 298.482 154.13 298.874 153.942Z" fill="#020111"/>
<path d="M279.716 153.001C277.999 154.185 276.388 155.631 274.883 157.34C268.297 164.789 263.04 172.766 259.112 181.273C258.489 182.625 258.301 184.083 257.807 185.4C257.438 186.412 257.074 186.408 256.713 185.389C252.291 172.793 242.424 160.175 233.228 150.637C232.687 150.08 232.295 149.802 232.052 149.802" stroke="#BBDFA7" stroke-width="2"/>
<path d="M303.625 179.038C297.502 179.297 291.618 180.841 285.973 183.672" stroke="#BBDFA7" stroke-width="2"/>
<path d="M226.29 182.237L210.413 180.003" stroke="#BBDFA7" stroke-width="2"/>
<path d="M300.979 204.182C288.631 208.274 279.152 213.155 270.097 222.069" stroke="#BBDFA7" stroke-width="2"/>
<path d="M242.872 221.74C237.533 216.55 232.985 213.1 229.23 211.391C224.549 209.262 219.88 207.287 215.294 204.97C213.875 204.248 212.369 203.7 210.778 203.323" stroke="#BBDFA7" stroke-width="2"/>
<path d="M269.662 246.401C260.395 245.084 251.359 244.947 242.554 245.99" stroke="#FFDC91" stroke-width="2"/>
<path d="M242.424 272.721C239.147 272.313 236.184 270.624 233.534 267.652C229.1 262.689 221.973 261.631 214.635 262.243" stroke="#FFDC91" stroke-width="2"/>
<path d="M296.781 263.442C291.359 261.36 284.421 261.384 280.164 265.853C277.235 268.934 273.343 270.839 269.273 271.604" stroke="#FFDC91" stroke-width="2"/>
<path d="M221.291 293.419C219.441 287.994 215.917 284.56 210.719 283.117C208.57 282.521 205.638 283.301 201.922 285.457" stroke="#FFDC91" stroke-width="2"/>
<path d="M309.682 281.153C307.447 281.753 305.942 282.529 303.284 283.14C298.792 284.175 292.982 289.914 290.818 292.396" stroke="#FFDC91" stroke-width="2"/>
<path d="M265.275 288.609C264.122 288.868 262.793 288.856 261.288 288.574C259.893 288.307 258.611 288.268 257.442 288.456C254.42 288.95 251.868 288.244 249.351 290.326C249.061 290.569 248.732 290.695 248.364 290.702C247.352 290.726 246.27 291.024 245.118 291.596" stroke="#FFDC91" stroke-width="2"/>
<path d="M287.761 316.41L286.314 312.953C286.275 312.859 286.291 312.777 286.361 312.706C286.44 312.628 286.502 312.533 286.549 312.424C286.581 312.361 286.581 312.302 286.549 312.247C284.691 309.025 281.728 307.437 279.658 304.391C279.516 304.182 279.305 304.029 279.062 303.96C278.819 303.891 278.559 303.911 278.329 304.015C277.192 304.525 276.322 305.289 275.718 306.308C275.623 306.477 275.47 306.633 275.287 306.748C275.104 306.862 274.903 306.927 274.72 306.931C274.536 306.935 274.383 306.878 274.288 306.771C274.193 306.663 274.162 306.512 274.201 306.344L274.342 305.638" stroke="#FEB150" stroke-width="2"/>
<path d="M306.93 330.84C303.363 335.341 299.27 339.437 294.652 343.13" stroke="#FF8627" stroke-width="2"/>
<path d="M308.435 332.734C311.281 339.52 307.506 341.284 305.554 346.917C305.429 347.27 305.186 347.473 304.825 347.528C303.249 347.771 301.897 348.493 300.768 349.692" stroke="#FE3C3F" stroke-width="2"/>
<path d="M221.573 335.451C220.225 335.552 218.931 334.894 217.692 333.475C217.585 333.353 217.44 333.27 217.281 333.24L207.625 331.37C207.163 331.283 206.771 331.413 206.449 331.758C205.501 332.793 204.881 332.832 204.591 331.875" stroke="#FFB126" stroke-width="2"/>
<path d="M214.317 345.788L202.345 333.757" stroke="#FF7E2A" stroke-width="2"/>
<path d="M266.274 334.58C259.453 335.113 252.84 335.505 246.435 335.756C245.886 335.78 245.67 335.533 245.788 335.015" stroke="#FFDC91" stroke-width="2"/>
<path d="M286.408 354.608C284.667 355.698 282.947 356.748 281.245 357.76C278.854 359.179 276.173 361.692 273.201 365.298" stroke="#FF6F3B" stroke-width="2"/>
<path d="M239.061 365.522L226.078 354.232" stroke="#FF8627" stroke-width="2"/>
<path d="M259.335 372.013L264.804 377.858" stroke="#D95244" stroke-width="2"/>
<path d="M271.814 385.455L267.509 387.302" stroke="#D95244" stroke-width="2"/>
<path d="M266.004 387.478C262.841 383.832 258.96 377.27 253.362 378.67C252.107 378.983 250.614 380.116 248.881 382.068C246.999 384.201 244.992 386.012 242.86 387.502" stroke="#D95244" stroke-width="2"/>
<path d="M279.717 153.001C278 154.185 276.388 155.631 274.883 157.34C268.297 164.789 263.04 172.766 259.113 181.273C258.489 182.625 258.301 184.083 257.807 185.401C257.439 186.412 257.074 186.408 256.713 185.389C252.291 172.793 242.425 160.175 233.228 150.637C232.687 150.08 232.295 149.802 232.052 149.802C231.558 149.132 230.982 148.367 230.77 147.521C229.633 142.864 228.402 138.43 227.077 134.22C226.772 133.255 227.03 133.067 227.854 133.655C240.566 142.781 247.293 154.636 253.832 169.171C255.455 172.786 256.604 175.973 257.278 178.732C257.372 179.124 257.548 179.164 257.807 178.85C257.972 178.646 258.003 178.395 257.901 178.097C257.776 177.76 257.764 177.419 257.866 177.074C262.899 160.233 270.097 144.898 284.28 134.102C285.024 133.538 285.252 133.702 284.962 134.596C283.245 139.943 281.939 145.521 281.045 151.331C280.951 151.935 280.508 152.491 279.717 153.001Z" fill="#FEFEFE"/>
<path d="M232.052 149.802C232.295 149.802 232.687 150.08 233.228 150.637C242.425 160.175 252.292 172.793 256.714 185.389C257.074 186.408 257.439 186.412 257.807 185.4C258.301 184.083 258.489 182.625 259.113 181.273C263.041 172.766 268.298 164.789 274.883 157.34C276.389 155.631 278 154.185 279.717 153.001C279.897 155.8 279.572 158.528 278.741 161.186C278.641 161.523 278.645 161.884 278.752 162.221L279.094 163.232C279.143 163.389 279.151 163.556 279.116 163.715C279.08 163.874 279.004 164.02 278.894 164.138C269.203 174.381 262.653 186.494 256.631 199.031C256.601 199.096 256.553 199.151 256.492 199.189C256.432 199.227 256.362 199.248 256.29 199.248C256.219 199.248 256.148 199.227 256.088 199.189C256.028 199.151 255.979 199.096 255.949 199.031C253.895 194.53 251.633 190.183 249.163 185.988C245.33 179.462 239.026 171.241 234.393 163.55C234.221 163.262 234.098 162.944 234.028 162.609L231.817 151.084C231.754 150.77 231.786 150.465 231.911 150.167L232.052 149.802Z" fill="#78BF4F"/>
<path d="M303.625 179.038C297.502 179.297 291.618 180.841 285.973 183.672L283.703 184.624C283.272 184.813 283.194 184.715 283.468 184.33C289.313 176.016 296.922 172.558 306.918 167.948C307.318 167.768 307.447 167.882 307.306 168.289L303.625 179.038Z" fill="#FEFEFE"/>
<path d="M226.289 182.237L210.413 180.003L205.226 168.677C205.054 168.301 205.156 168.199 205.532 168.372C214.011 172.299 220.35 174.228 226.289 182.237Z" fill="#FEFEFE"/>
<path d="M303.625 179.038C303.539 180.159 303.277 181.249 302.837 182.307C302.673 182.684 302.387 182.884 301.979 182.907L285.973 183.672C291.618 180.841 297.502 179.297 303.625 179.038Z" fill="#78BF4F"/>
<path d="M210.413 180.003L226.289 182.237L228.512 183.907C229.319 184.511 229.221 184.758 228.218 184.648L211.612 182.79C211.267 182.751 210.997 182.594 210.801 182.319C210.26 181.559 210.13 180.787 210.413 180.003Z" fill="#78BF4F"/>
<path d="M300.979 204.182C288.631 208.274 279.152 213.155 270.097 222.069L266.498 221.693C266.075 221.646 265.941 221.422 266.098 221.023C270.673 209.45 279.011 203.688 291.171 200.771C296.322 199.532 301.469 198.886 306.613 198.831C307.6 198.815 307.702 199.105 306.918 199.701L300.979 204.182Z" fill="#FEFEFE"/>
<path d="M242.872 221.74C237.532 216.55 232.985 213.1 229.23 211.391C224.549 209.262 219.88 207.286 215.294 204.97C213.875 204.248 212.369 203.7 210.778 203.323L205.098 200.101C204.549 199.787 204.588 199.607 205.215 199.56C213.267 199.019 219.868 199.533 225.02 201.101C234.773 204.072 241.927 210.705 246.482 220.999C246.608 221.289 246.513 221.446 246.2 221.469L242.872 221.74Z" fill="#FEFEFE"/>
<path d="M210.778 203.323C212.369 203.7 213.875 204.248 215.294 204.97C219.88 207.287 224.549 209.262 229.23 211.391C232.985 213.1 237.533 216.55 242.872 221.74C238.505 222.493 234.091 223.97 229.63 226.174C229.261 226.362 228.975 226.276 228.771 225.915C227.893 224.417 227.027 222.998 226.172 221.658C221.876 214.899 216.744 208.788 210.778 203.323Z" fill="#78BF4F"/>
<path d="M300.979 204.182C298.071 207.271 295.362 210.309 292.853 213.296C289.595 217.165 286.808 221.822 283.809 226.126C283.681 226.312 283.495 226.45 283.281 226.52C283.066 226.59 282.835 226.588 282.621 226.515L270.097 222.069C279.152 213.155 288.631 208.274 300.979 204.182Z" fill="#78BF4F"/>
<path d="M269.661 246.401C260.394 245.084 251.358 244.947 242.553 245.99L237.132 241.932C237.059 241.879 237.001 241.809 236.962 241.728C236.923 241.646 236.905 241.557 236.91 241.467C236.915 241.377 236.942 241.289 236.989 241.213C237.036 241.136 237.101 241.072 237.179 241.027C242.424 237.957 248.951 237.287 254.902 236.758C262.428 236.076 269.002 237.722 275.812 240.533C276.149 240.674 276.176 240.866 275.894 241.109L269.661 246.401Z" fill="#FEFEFE"/>
<path d="M269.662 246.401L256.831 259.02C256.733 259.114 256.602 259.166 256.467 259.166C256.331 259.166 256.2 259.114 256.102 259.02L242.554 245.99C251.359 244.947 260.395 245.084 269.662 246.401Z" fill="#FFB923"/>
<path d="M242.425 272.721C239.147 272.313 236.184 270.624 233.534 267.652C229.1 262.689 221.974 261.631 214.635 262.242C214.078 261.874 213.663 261.47 213.388 261.031C213.291 260.878 213.25 260.695 213.272 260.513C213.293 260.332 213.376 260.162 213.506 260.032C216.14 257.409 218.563 254.21 221.75 252.234C222.824 251.576 223.863 250.866 224.866 250.106C225.211 249.847 225.549 249.855 225.878 250.129C232.55 255.688 238.822 261.658 244.694 268.04C245.416 268.816 245.49 269.651 244.918 270.545C244.408 271.337 243.577 272.062 242.425 272.721Z" fill="#FEFEFE"/>
<path d="M296.781 263.442C291.359 261.36 284.42 261.384 280.163 265.853C277.235 268.934 273.342 270.839 269.273 271.604L267.392 269.769C267.07 269.463 267.066 269.15 267.38 268.828C271.551 264.563 275.777 260.384 280.057 256.292C281.963 254.469 283.715 251.458 287.02 250.165C287.427 250.008 287.811 250.047 288.172 250.282C292.139 252.869 295.538 256.068 298.368 259.879C298.58 260.161 298.647 260.474 298.568 260.819C298.38 261.698 297.784 262.572 296.781 263.442Z" fill="#FEFEFE"/>
<path d="M214.635 262.243C221.973 261.631 229.1 262.689 233.534 267.652C236.184 270.624 239.147 272.313 242.424 272.721C239.461 275.496 235.874 277.343 233.722 280.741C233.385 281.267 233 281.306 232.569 280.859L214.635 262.243Z" fill="#FFB923"/>
<path d="M296.781 263.442L279.093 281.341C279.043 281.392 278.983 281.432 278.917 281.459C278.851 281.486 278.78 281.5 278.709 281.499C278.637 281.497 278.567 281.482 278.501 281.453C278.436 281.424 278.378 281.382 278.329 281.329L269.273 271.604C273.343 270.839 277.235 268.934 280.164 265.853C284.421 261.384 291.359 261.36 296.781 263.442Z" fill="#FFB923"/>
<path d="M221.291 293.419C219.441 287.994 215.917 284.56 210.719 283.117C208.57 282.521 205.638 283.301 201.922 285.457L205.038 273.685C205.073 273.558 205.141 273.441 205.236 273.349C205.33 273.256 205.447 273.19 205.574 273.157C205.701 273.125 205.834 273.127 205.959 273.164C206.084 273.201 206.197 273.271 206.285 273.368L223.09 291.067C223.412 291.412 223.392 291.729 223.032 292.02L221.291 293.419Z" fill="#FEFEFE"/>
<path d="M309.682 281.153C307.448 281.753 305.942 282.529 303.285 283.14C298.792 284.175 292.983 289.914 290.819 292.396C290.286 292.137 289.995 291.82 289.948 291.443C289.909 291.177 290.062 290.855 290.407 290.479C295.535 284.897 300.736 279.314 306.013 273.732C306.069 273.669 306.141 273.622 306.221 273.596C306.301 273.569 306.387 273.564 306.471 273.58C306.555 273.597 306.633 273.635 306.699 273.69C306.765 273.745 306.816 273.817 306.848 273.897L309.682 281.153Z" fill="#FEFEFE"/>
<path d="M265.275 288.609C264.122 288.868 262.793 288.856 261.288 288.574C259.892 288.307 258.611 288.268 257.442 288.456C254.42 288.95 251.868 288.244 249.351 290.326C249.061 290.569 248.732 290.695 248.363 290.702C247.352 290.726 246.27 291.024 245.118 291.596L244.812 291.173C244.584 290.859 244.604 290.565 244.871 290.291L255.749 279.13C256.047 278.824 256.364 278.805 256.701 279.071C259.783 281.525 262.64 284.705 265.275 288.609Z" fill="#FEFEFE"/>
<path d="M309.682 281.153L312.046 291.102C312.132 291.469 312.123 291.851 312.02 292.211C311.917 292.571 311.723 292.898 311.458 293.16L301.12 303.333C301.085 303.367 301.043 303.394 300.998 303.412C300.952 303.43 300.904 303.438 300.856 303.437C300.807 303.436 300.76 303.425 300.717 303.405C300.673 303.385 300.634 303.357 300.603 303.321L290.818 292.396C292.982 289.914 298.792 284.175 303.284 283.14C305.942 282.529 307.447 281.753 309.682 281.153Z" fill="#FFB923"/>
<path d="M221.291 293.419L212.612 302.91C212.314 303.239 211.996 303.259 211.659 302.968L202.369 295.03C202.147 294.839 201.994 294.575 201.933 294.278C201.275 290.938 201.271 287.998 201.922 285.457C205.638 283.301 208.57 282.521 210.718 283.117C215.916 284.56 219.441 287.994 221.291 293.419Z" fill="#FFB923"/>
<path d="M265.275 288.609L267.803 291.255C268.093 291.569 268.078 291.859 267.756 292.125C263.766 295.45 260.183 299.154 257.007 303.239C256.924 303.346 256.818 303.433 256.697 303.494C256.576 303.556 256.442 303.59 256.307 303.594C256.171 303.599 256.036 303.574 255.911 303.52C255.787 303.467 255.675 303.387 255.584 303.286L245.118 291.596C246.27 291.024 247.352 290.726 248.364 290.702C248.732 290.695 249.061 290.569 249.351 290.326C251.868 288.244 254.42 288.95 257.442 288.456C258.611 288.268 259.893 288.307 261.288 288.574C262.793 288.856 264.122 288.868 265.275 288.609Z" fill="#FFB923"/>
<path d="M287.761 316.411L286.314 312.953C286.275 312.859 286.291 312.777 286.361 312.706C286.44 312.628 286.502 312.534 286.549 312.424C286.581 312.361 286.581 312.302 286.549 312.247C284.691 309.025 281.728 307.437 279.658 304.391C279.516 304.182 279.305 304.029 279.062 303.96C278.819 303.891 278.559 303.911 278.329 304.015C277.192 304.525 276.322 305.289 275.718 306.308C275.623 306.478 275.47 306.633 275.287 306.748C275.104 306.862 274.903 306.927 274.72 306.931C274.536 306.935 274.383 306.879 274.288 306.771C274.193 306.663 274.162 306.512 274.201 306.344L274.342 305.638L277.753 301.357C278.027 301.012 278.317 300.997 278.623 301.31L289.866 313.082C290.171 313.396 290.203 313.741 289.96 314.117C289.458 314.886 288.725 315.65 287.761 316.411Z" fill="#FCA87C"/>
<path d="M221.926 313.294L233.545 301.498C233.62 301.424 233.722 301.382 233.828 301.382C233.934 301.382 234.035 301.424 234.11 301.498L245.811 313.6C245.886 313.675 245.928 313.776 245.928 313.882C245.928 313.988 245.886 314.089 245.811 314.164L234.063 326.007C234.026 326.046 233.981 326.077 233.931 326.098C233.882 326.119 233.829 326.13 233.775 326.13C233.721 326.13 233.668 326.119 233.618 326.098C233.569 326.077 233.524 326.046 233.487 326.007L221.926 313.847C221.855 313.772 221.815 313.673 221.815 313.57C221.815 313.467 221.855 313.368 221.926 313.294Z" fill="#FFB923"/>
<path d="M287.76 316.41L278.787 325.901C278.458 326.238 278.133 326.238 277.811 325.901L266.933 314.576C266.462 314.09 266.466 313.604 266.945 313.118L274.342 305.638L274.201 306.344C274.162 306.512 274.193 306.663 274.288 306.771C274.383 306.878 274.536 306.935 274.719 306.931C274.903 306.927 275.104 306.862 275.287 306.748C275.47 306.633 275.623 306.477 275.718 306.308C276.322 305.289 277.192 304.525 278.329 304.015C278.559 303.911 278.819 303.891 279.062 303.96C279.305 304.029 279.516 304.182 279.658 304.391C281.727 307.437 284.691 309.025 286.549 312.247C286.58 312.302 286.58 312.361 286.549 312.424C286.502 312.533 286.439 312.628 286.361 312.706C286.29 312.777 286.275 312.859 286.314 312.953L287.76 316.41Z" fill="#FFB923"/>
<path d="M312.951 315.505L310.423 313.294C310.054 312.972 310.082 312.686 310.505 312.435C311.313 311.949 312.01 311.342 312.598 310.613C313.077 310.032 313.324 310.119 313.339 310.871L313.433 315.281C313.441 315.713 313.281 315.787 312.951 315.505Z" fill="#FF743D"/>
<path d="M200.276 311.695L201.487 313.494C201.683 313.784 201.64 314.039 201.358 314.258L200.182 315.176C199.915 315.395 199.746 315.336 199.676 314.999C199.433 313.855 199.543 312.761 200.005 311.718C200.016 311.692 200.033 311.67 200.056 311.653C200.079 311.637 200.105 311.627 200.133 311.624C200.161 311.622 200.189 311.627 200.214 311.639C200.239 311.652 200.261 311.671 200.276 311.695Z" fill="#FCA87C"/>
<path d="M306.93 330.84C303.363 335.341 299.27 339.437 294.652 343.13L288.772 336.297C288.498 335.976 288.517 335.674 288.831 335.392L300.427 325.101C300.787 324.78 301.132 324.792 301.462 325.137L306.93 330.84Z" fill="#FFB923"/>
<path d="M221.573 335.45C220.225 335.552 218.931 334.894 217.692 333.475C217.585 333.353 217.44 333.27 217.281 333.24L207.625 331.37C207.163 331.283 206.771 331.413 206.449 331.758C205.501 332.793 204.881 332.832 204.591 331.875L211.201 325.454C211.53 325.133 211.851 325.137 212.165 325.466L221.573 335.45Z" fill="#FFB923"/>
<path d="M266.274 334.58C259.453 335.113 252.84 335.505 246.435 335.756C245.886 335.78 245.67 335.533 245.788 335.015L255.29 325.384C255.442 325.229 255.624 325.108 255.825 325.026C256.026 324.944 256.241 324.903 256.458 324.906C256.676 324.91 256.891 324.957 257.09 325.045C257.289 325.133 257.469 325.26 257.619 325.419L266.274 334.58Z" fill="#FEFEFE"/>
<path d="M306.93 330.84C307.51 331.287 308.012 331.918 308.435 332.734C311.281 339.52 307.506 341.284 305.554 346.917C305.429 347.27 305.186 347.473 304.825 347.528C303.249 347.771 301.897 348.493 300.768 349.692L294.652 343.13C299.27 339.437 303.363 335.341 306.93 330.84Z" fill="#FE532B"/>
<path d="M221.573 335.451C222.099 335.599 222.495 335.933 222.761 336.45C222.949 336.811 222.902 337.132 222.62 337.414L214.317 345.788L202.345 333.757L204.591 331.875C204.881 332.832 205.501 332.793 206.45 331.758C206.771 331.413 207.163 331.283 207.626 331.37L217.281 333.24C217.44 333.27 217.585 333.353 217.692 333.475C218.931 334.894 220.225 335.552 221.573 335.451Z" fill="#FFA828"/>
<path d="M308.435 332.734C310.646 333.228 312.081 334.286 311.893 336.803C311.36 343.632 309.952 350.194 307.671 356.49C307.643 356.565 307.596 356.632 307.534 356.684C307.473 356.736 307.399 356.772 307.32 356.787C307.241 356.802 307.159 356.797 307.083 356.772C307.006 356.747 306.937 356.702 306.883 356.643L300.768 349.692C301.897 348.493 303.249 347.771 304.825 347.528C305.186 347.473 305.429 347.27 305.554 346.917C307.506 341.284 311.281 339.52 308.435 332.734Z" fill="#FE2453"/>
<path d="M202.346 333.757L214.318 345.788L205.015 355.819C204.71 356.149 204.474 356.106 204.31 355.69C202.793 352.033 198.959 337.814 201.217 334.674C201.601 334.141 201.977 333.835 202.346 333.757Z" fill="#FE532B"/>
<path d="M266.274 334.58L267.827 336.18C268.164 336.517 268.164 336.862 267.827 337.214L257.031 348.481C256.938 348.578 256.827 348.656 256.704 348.709C256.581 348.762 256.448 348.79 256.313 348.79C256.179 348.79 256.046 348.762 255.923 348.709C255.8 348.656 255.688 348.578 255.596 348.481L244.388 336.897C244.02 336.521 244.055 336.187 244.494 335.897L245.788 335.015C245.67 335.533 245.886 335.78 246.435 335.756C252.84 335.505 259.453 335.113 266.274 334.58Z" fill="#FFB923"/>
<path d="M286.408 354.608C284.668 355.698 282.947 356.748 281.246 357.76C278.854 359.179 276.173 361.692 273.202 365.298L267.815 359.959C267.039 359.191 267.023 358.403 267.768 357.595L277.694 346.858C277.961 346.568 278.231 346.56 278.505 346.834L286.408 354.608Z" fill="#FFB923"/>
<path d="M239.061 365.522L226.078 354.232L233.451 347.293C233.584 347.168 233.761 347.1 233.944 347.104C234.127 347.109 234.301 347.185 234.427 347.317L245.188 358.595C245.47 358.885 245.466 359.171 245.176 359.453L239.061 365.522Z" fill="#FFB923"/>
<path d="M226.078 354.232L239.061 365.522L226.501 378.27C225.325 379.461 224.114 379.501 222.867 378.387L214.2 370.708C213.917 370.458 213.688 370.153 213.527 369.811C213.366 369.47 213.275 369.099 213.261 368.721C213.247 368.343 213.309 367.966 213.444 367.612C213.579 367.259 213.784 366.935 214.047 366.662L226.078 354.232Z" fill="#FE532B"/>
<path d="M286.408 354.608L298.78 367.145C298.966 367.333 299.111 367.558 299.208 367.804C299.305 368.051 299.351 368.314 299.343 368.579C299.336 368.844 299.274 369.104 299.163 369.345C299.052 369.585 298.894 369.801 298.698 369.979L288.454 379.281C288.184 379.526 287.829 379.656 287.464 379.643C287.099 379.63 286.754 379.475 286.502 379.211L273.201 365.298C276.173 361.692 278.854 359.179 281.245 357.76C282.947 356.748 284.667 355.698 286.408 354.608Z" fill="#FE2453"/>
<path d="M259.336 372.013L264.805 377.858L271.814 385.455L267.509 387.302C267.266 387.451 266.765 387.509 266.004 387.478C262.841 383.832 258.96 377.27 253.362 378.67C252.107 378.983 250.614 380.116 248.881 382.068C246.999 384.201 244.992 386.012 242.86 387.502C241.26 387.314 240.053 386.925 239.238 386.337C238.893 386.102 238.869 385.836 239.167 385.538L255.831 369.109C256.145 368.795 256.455 368.803 256.761 369.132L259.336 372.013Z" fill="#FF9B30"/>
<path d="M259.335 372.013C261.68 373.62 263.503 375.569 264.804 377.858L259.335 372.013Z" fill="#B20957"/>
<path d="M266.004 387.478L266.722 387.596C266.894 387.627 266.965 387.733 266.933 387.913L266.874 388.313C266.851 388.423 266.78 388.482 266.663 388.489C263.487 388.666 260.159 389.56 257.301 389.583C252.284 389.622 247.47 388.929 242.86 387.502C244.992 386.012 246.999 384.201 248.881 382.068C250.614 380.116 252.107 378.983 253.362 378.67C258.96 377.27 262.841 383.832 266.004 387.478Z" fill="#B20957"/>
<path d="M271.814 385.455C271.876 386.537 270.442 387.153 267.509 387.302L271.814 385.455Z" fill="#B20957"/>
</svg>
