<svg width="1024" height="1024" viewBox="0 0 1024 1024" fill="none" xmlns="http://www.w3.org/2000/svg">
<rect width="1024" height="1024" fill="white"/>
<path d="M729.319 765.773C729.164 773.722 729.216 781.661 729.474 789.589C729.799 799.22 723.915 807.815 714.794 810.788C712.729 811.459 709.297 811.799 704.496 811.81C680.608 811.861 656.72 811.923 632.832 811.996C619.205 812.042 607.762 803.603 607.917 789.217C607.989 781.464 608.108 773.789 608.273 766.191C608.277 766.006 608.244 765.821 608.175 765.648C608.106 765.476 608.003 765.318 607.871 765.186C607.74 765.053 607.583 764.948 607.41 764.876C607.237 764.804 607.052 764.766 606.864 764.766H418.412C418.102 764.766 417.805 764.89 417.585 765.11C417.365 765.331 417.239 765.63 417.235 765.943C417.214 773.097 417.245 780.251 417.328 787.405C417.452 798.106 412.357 806.545 402.385 810.215C399.205 811.381 393.522 811.97 385.336 811.98C365.381 812.011 345.421 812.006 325.456 811.965C312.572 811.949 300.138 810.23 295.895 796.449C293.51 788.737 294.966 775.25 294.857 765.618C294.858 765.544 294.843 765.471 294.813 765.403C294.784 765.335 294.742 765.274 294.688 765.224C294.634 765.173 294.571 765.134 294.501 765.108C294.432 765.083 294.358 765.072 294.285 765.076C275.656 765.881 257.601 763.698 250.214 743.924C248.759 740.011 248.031 733.967 248.031 725.791C248.031 578.715 248.021 431.633 248 284.547C248 277.207 248.656 271.756 249.967 268.195C253.962 257.371 263.299 250.821 273.426 245.122C291.482 234.944 309.439 224.594 327.298 214.075C330.132 212.403 334.964 212 338.866 212C453.888 212.083 568.91 212.098 683.932 212.046C685.027 212.046 686.544 212.485 688.485 213.363C704.682 220.78 719.13 230.644 735.389 238.216C751.075 245.509 768.155 251.951 773.931 266.739C775.283 270.208 775.96 275.101 775.96 281.419C775.867 429.502 775.619 577.584 775.696 725.651C775.707 733.931 774.984 740.073 773.528 744.079C766.483 763.667 748.799 765.881 730.155 764.999C729.608 764.968 729.329 765.226 729.319 765.773Z" fill="#001215"/>
<path d="M729.971 285.926L729.46 290.664" stroke="#B1E4EE" stroke-width="2"/>
<path d="M729.46 290.663C728.485 291.019 728.113 291.515 727.045 291.561C700.612 292.723 673.993 292.041 647.545 291.639C624.023 291.298 600.052 291.469 576.298 291.05C565.118 290.844 554.8 290.798 545.344 290.911C508.443 291.345 471.512 291.097 434.627 291.561C407.528 291.912 380.429 292.036 353.331 291.933C340.303 291.881 327.269 292.078 314.231 292.522C304.027 292.862 293.28 300.992 293.295 311.491C293.306 327.11 293.295 342.724 293.264 358.333C293.264 362.498 290.4 365.254 290.539 370.333" stroke="#DDF3F7" stroke-width="2"/>
<path d="M738.147 286.157L732.696 286.761C732.425 286.792 732.176 286.923 731.998 287.127C731.821 287.33 731.727 287.592 731.736 287.861L731.798 290.447C731.819 290.994 732.087 291.35 732.603 291.515C735.628 292.486 738.245 292.238 740.454 290.772" stroke="#8FD8E6" stroke-width="2"/>
<path d="M705.163 370.302C711.502 362.064 714.604 353.3 714.47 344.009C714.387 338.372 714.439 328.034 714.624 312.993C714.748 302.602 723.575 299.227 729.444 292.212C729.691 291.912 729.753 291.577 729.629 291.205L729.459 290.663" stroke="#8FD8E6" stroke-width="2"/>
<path d="M721.873 405.732L726.565 406.011C727.7 406.083 728.268 406.687 728.268 407.822V409.433C728.268 410.713 727.628 411.399 726.348 411.492C707.1 412.994 687 412.483 667.675 412.298C667.015 412.298 666.483 412.256 666.08 412.174C665.709 412.1 665.361 412.034 665.09 411.987C664.819 411.939 664.639 411.912 664.578 411.91C591.938 412.003 519.283 412.437 446.643 411.91C437.063 411.848 426.734 411.936 415.658 412.174C383.65 412.855 351.674 412.561 319.682 412.87C314.83 412.912 311.021 413.469 308.254 414.543C301.379 417.206 293.776 422.285 293.295 430.322C292.614 441.936 293.249 455.826 292.738 468.818C292.552 473.628 292.568 478.501 292.784 483.435C292.807 483.933 292.69 484.426 292.446 484.859C292.203 485.292 291.842 485.647 291.406 485.882C290.322 486.46 289.424 487.663 288.712 489.49" stroke="#DDF3F7" stroke-width="2"/>
<path d="M740.485 415.596C737.636 415.286 735.313 413.025 731.658 413.443C726.378 414.063 714.424 425.336 714.408 430.338C714.387 443.624 714.274 456.915 714.067 470.211C714.026 472.297 713.479 474.841 712.426 477.845C710.878 482.228 707.161 485.123 704.9 489.598" stroke="#8FD8E6" stroke-width="2"/>
<path d="M740.996 528.342C740.408 529.468 740.042 530.691 739.897 532.012C739.845 532.549 739.556 532.88 739.03 533.003C737.574 533.365 736.108 533.458 734.632 533.282C734.147 533.231 733.868 532.957 733.796 532.461C733.373 529.158 733.62 526.505 734.539 524.502" stroke="#8FD8E6" stroke-width="2"/>
<path d="M729.444 524.424L728.546 533.932C728.494 534.459 728.256 534.887 727.833 535.217C720.571 540.9 714.222 543.208 714.315 553.644C714.47 570.998 714.444 583.319 714.237 590.607C714.103 594.953 712.421 598.608 709.189 601.57C706.278 604.244 703.501 607.047 700.858 609.979" stroke="#8FD8E6" stroke-width="2"/>
<path d="M702.189 524.424L725.649 524.595C726.041 524.597 726.425 524.708 726.758 524.917C727.09 525.126 727.357 525.423 727.53 525.776C727.702 526.129 727.772 526.522 727.733 526.913C727.693 527.303 727.545 527.675 727.306 527.986C725.974 529.736 721.22 530.417 719.099 530.417C705.441 530.417 691.783 530.417 678.125 530.417C677.088 530.417 676.174 529.983 675.028 529.999C653.866 530.35 632.703 530.458 611.54 530.324C578.635 530.123 545.714 530.386 512.823 530.262C481.343 530.138 449.846 529.829 418.365 530.324C395.097 530.685 371.833 530.845 348.575 530.804C342.391 530.794 337.043 530.882 332.532 531.067C317.837 531.64 293.495 532.074 293.448 553.056C293.417 570.229 294.083 587.835 292.256 604.931C291.884 608.451 289.902 609.901 286.31 609.282" stroke="#DDF3F7" stroke-width="2"/>
<path d="M740.624 650.394C740.552 653.398 737.8 654.508 732.37 653.724C731.864 653.651 731.519 653.378 731.333 652.903C731.188 652.511 730.93 652.227 730.559 652.051C730.307 651.93 730.018 651.911 729.753 651.998C729.488 652.084 729.266 652.27 729.134 652.516L728.298 654.064C728.081 654.467 727.792 654.813 727.431 655.102C721.391 659.871 714.083 663.03 714.206 672.306C714.351 684.043 714.325 695.786 714.129 707.534C714.046 712.695 713.283 716.691 711.837 719.519C709.762 723.607 706.645 727.22 702.484 730.359" stroke="#8FD8E6" stroke-width="2"/>
<path d="M314.726 729.615C309.73 727.51 304.279 727.055 298.374 728.253C296.444 728.645 294.622 728.258 292.908 727.091C292.71 726.959 292.55 726.778 292.444 726.566C292.338 726.354 292.29 726.119 292.304 725.884C293.027 710.223 293.378 694.527 293.357 678.794C293.357 673.818 293.992 669.942 295.262 667.165C300.991 654.606 311.475 654.111 325.535 654.08C356.092 654.018 386.649 654.033 417.206 654.126C424.747 654.157 433.728 653.662 441.982 653.708C493.98 653.987 545.984 653.93 597.993 653.538C640.205 653.228 682.386 654.901 724.582 653.104C727.927 652.965 728.546 649.682 728.376 647.158C728.304 646.033 727.659 645.13 726.44 644.448" stroke="#DDF3F7" stroke-width="2"/>
<path d="M350.294 764.674L350.402 779.694" stroke="#397881" stroke-width="2"/>
<path d="M326.928 249.567C330.691 247.399 336.854 245.495 341.329 245.557C358.703 245.789 377.595 245.077 393.452 245.216C447.05 245.711 500.649 245.608 554.247 244.906C583.158 244.535 612.316 244.984 641.35 244.643C642.362 244.633 645.712 244.793 651.4 245.123C655.999 245.386 660.939 244.705 664.856 244.689C671.592 244.643 680.016 243.59 686.241 245.65C689.121 246.61 691.805 247.843 694.293 249.35C695.264 249.949 695.181 250.249 694.046 250.249C630.186 250.341 565.799 251.286 501.784 249.8C467.191 248.979 432.458 249.815 397.849 250.156C375.985 250.372 350.682 249.428 327.098 250.156C326.252 250.176 326.195 249.98 326.928 249.567Z" fill="#49858D"/>
<path d="M729.97 285.925L729.459 290.663C728.483 291.02 728.112 291.515 727.043 291.562C700.61 292.723 673.992 292.042 647.543 291.639C624.022 291.298 600.051 291.469 576.297 291.05C565.117 290.844 554.799 290.798 545.343 290.911C508.442 291.345 471.51 291.097 434.625 291.562C407.527 291.912 380.428 292.036 353.329 291.933C340.301 291.882 327.268 292.078 314.23 292.522C304.025 292.862 293.279 300.992 293.294 311.491C293.304 327.11 293.294 342.724 293.263 358.333C293.263 362.498 290.398 365.254 290.538 370.333C287.812 370.943 285.65 370.628 284.05 369.389C283.637 369.069 283.394 368.646 283.322 368.119C283.084 366.447 282.971 364.862 282.981 363.365C283.198 339.487 283.317 315.615 283.337 291.747C283.337 285.6 289.485 285.956 293.712 285.94C439.116 285.306 584.535 285.94 729.97 285.925Z" fill="white"/>
<path d="M729.97 285.926L738.146 286.158L732.695 286.762C732.425 286.793 732.176 286.924 731.998 287.127C731.82 287.331 731.726 287.593 731.735 287.862L731.797 290.448C731.818 290.995 732.086 291.351 732.602 291.516C735.627 292.486 738.244 292.239 740.453 290.773L740.422 368.26C740.422 368.539 740.367 368.817 740.259 369.075C740.152 369.333 739.994 369.568 739.796 369.765C739.597 369.962 739.361 370.118 739.102 370.224C738.843 370.33 738.565 370.383 738.285 370.381L705.163 370.304C711.502 362.066 714.604 353.301 714.47 344.01C714.387 338.374 714.439 328.035 714.624 312.994C714.748 302.603 723.575 299.228 729.444 292.213C729.691 291.914 729.753 291.578 729.629 291.206L729.459 290.664L729.97 285.926Z" fill="#63C9DD"/>
<path d="M738.147 286.157C740.046 285.817 740.815 287.355 740.454 290.772C738.245 292.238 735.628 292.486 732.603 291.515C732.087 291.35 731.819 290.994 731.798 290.447L731.736 287.861C731.727 287.592 731.821 287.33 731.998 287.126C732.176 286.923 732.425 286.792 732.696 286.761L738.147 286.157Z" fill="#BBE7EE"/>
<path d="M729.46 290.664L729.631 291.206C729.754 291.577 729.692 291.913 729.445 292.212C723.576 299.227 714.749 302.603 714.626 312.993C714.44 328.034 714.388 338.373 714.471 344.009C714.605 353.3 711.503 362.065 705.164 370.303L290.539 370.334C290.4 365.255 293.264 362.499 293.264 358.333C293.295 342.724 293.306 327.11 293.295 311.491C293.28 300.992 304.027 292.863 314.231 292.522C327.269 292.078 340.303 291.882 353.331 291.934C380.429 292.037 407.528 291.913 434.627 291.562C471.512 291.097 508.443 291.345 545.344 290.912C554.8 290.798 565.118 290.844 576.298 291.051C600.052 291.469 624.023 291.299 647.545 291.639C673.993 292.042 700.612 292.723 727.045 291.562C728.113 291.515 728.485 291.02 729.46 290.664Z" fill="#BBE7EE"/>
<path d="M721.872 405.733L726.564 406.012C727.699 406.084 728.267 406.688 728.267 407.824V409.434C728.267 410.714 727.627 411.401 726.347 411.494C707.099 412.996 687 412.485 667.674 412.299C667.014 412.299 666.482 412.257 666.079 412.175C665.708 412.101 665.36 412.036 665.089 411.988C664.818 411.941 664.638 411.914 664.577 411.912C591.937 412.005 519.282 412.438 446.642 411.912C437.062 411.85 426.734 411.937 415.657 412.175C383.649 412.856 351.673 412.562 319.681 412.872C314.829 412.913 311.02 413.47 308.253 414.544C301.378 417.208 293.775 422.287 293.295 430.323C292.613 441.937 293.248 455.827 292.737 468.819C292.551 473.63 292.567 478.502 292.784 483.437C292.807 483.934 292.689 484.428 292.446 484.86C292.202 485.293 291.841 485.648 291.405 485.883C290.321 486.461 289.423 487.664 288.711 489.491L286.636 489.662C286.172 489.7 285.705 489.642 285.264 489.49C284.824 489.339 284.42 489.098 284.078 488.782C283.736 488.466 283.463 488.082 283.277 487.655C283.091 487.228 282.995 486.767 282.997 486.301L283.26 409.403C283.26 408.479 283.627 407.593 284.281 406.939C284.934 406.286 285.82 405.919 286.744 405.919L721.872 405.733Z" fill="white"/>
<path d="M721.873 405.733L738.395 405.903C738.792 405.907 739.172 406.06 739.46 406.334C739.747 406.607 739.92 406.979 739.944 407.375L740.486 415.597C737.636 415.287 735.314 413.027 731.659 413.445C726.379 414.064 714.424 425.337 714.409 430.339C714.388 443.625 714.275 456.916 714.068 470.213C714.027 472.298 713.48 474.842 712.427 477.847C710.878 482.229 707.162 485.125 704.901 489.6L288.712 489.491C289.424 487.664 290.322 486.461 291.406 485.883C291.842 485.648 292.203 485.293 292.446 484.86C292.69 484.428 292.807 483.934 292.784 483.437C292.568 478.502 292.552 473.63 292.738 468.819C293.249 455.827 292.614 441.937 293.295 430.323C293.776 422.287 301.379 417.208 308.254 414.544C311.021 413.47 314.83 412.913 319.682 412.872C351.674 412.562 383.65 412.856 415.658 412.175C426.734 411.937 437.063 411.85 446.643 411.912C519.283 412.438 591.938 412.005 664.578 411.912C664.639 411.914 664.819 411.941 665.09 411.988C665.361 412.036 665.709 412.101 666.08 412.175C666.483 412.257 667.015 412.299 667.675 412.299C687 412.485 707.1 412.996 726.348 411.494C727.628 411.401 728.268 410.714 728.268 409.434V407.824C728.268 406.688 727.7 406.084 726.565 406.012L721.873 405.733Z" fill="#BBE7EE"/>
<path d="M740.485 415.597L740.578 486.069C740.582 486.957 740.232 487.811 739.605 488.444C738.979 489.077 738.126 489.436 737.233 489.445L704.9 489.599C707.161 485.124 710.878 482.229 712.426 477.846C713.479 474.842 714.026 472.298 714.067 470.212C714.274 456.916 714.387 443.625 714.408 430.339C714.424 425.337 726.378 414.064 731.658 413.444C735.313 413.026 737.636 415.287 740.485 415.597Z" fill="#63C9DD"/>
<path d="M740.996 528.342C740.408 529.468 740.042 530.691 739.897 532.012C739.845 532.549 739.556 532.879 739.03 533.003C737.574 533.365 736.108 533.458 734.632 533.282C734.147 533.23 733.868 532.957 733.796 532.461C733.373 529.158 733.62 526.505 734.539 524.502C738.823 523.552 740.976 524.832 740.996 528.342Z" fill="#BBE7EE"/>
<path d="M702.191 524.425L725.65 524.596C726.043 524.598 726.427 524.709 726.759 524.918C727.092 525.127 727.359 525.424 727.531 525.777C727.703 526.13 727.774 526.523 727.734 526.914C727.695 527.304 727.547 527.676 727.307 527.987C725.976 529.737 721.222 530.418 719.1 530.418C705.442 530.418 691.785 530.418 678.127 530.418C677.09 530.418 676.176 529.984 675.03 530C653.867 530.351 632.705 530.459 611.542 530.325C578.636 530.124 545.715 530.387 512.825 530.263C481.344 530.139 449.848 529.83 418.367 530.325C395.098 530.686 371.835 530.846 348.576 530.805C342.393 530.795 337.045 530.882 332.534 531.068C317.839 531.641 293.496 532.075 293.45 553.057C293.419 570.23 294.085 587.836 292.257 604.932C291.886 608.452 289.904 609.902 286.311 609.283C284.112 609.551 283.018 608.235 283.028 605.334C283.132 579.402 283.188 553.625 283.199 528.002C283.199 525.545 284.432 524.317 286.9 524.317L702.191 524.425Z" fill="white"/>
<path d="M702.189 524.425H729.443L728.544 533.933C728.493 534.459 728.255 534.887 727.832 535.218C720.57 540.901 714.221 543.208 714.314 553.645C714.469 570.998 714.443 583.319 714.236 590.607C714.102 594.954 712.419 598.608 709.188 601.571C706.277 604.245 703.5 607.047 700.857 609.979C565.534 610.49 430.196 610.211 294.873 610.134C293.665 610.134 290.811 609.85 286.31 609.282C289.902 609.902 291.884 608.451 292.256 604.931C294.083 587.836 293.417 570.229 293.448 553.056C293.495 532.074 317.837 531.641 332.532 531.068C337.043 530.882 342.391 530.794 348.575 530.805C371.833 530.846 395.097 530.686 418.365 530.325C449.846 529.829 481.343 530.139 512.823 530.263C545.714 530.386 578.635 530.123 611.54 530.325C632.703 530.459 653.866 530.35 675.028 529.999C676.174 529.984 677.088 530.417 678.125 530.417C691.783 530.417 705.441 530.417 719.099 530.417C721.22 530.417 725.974 529.736 727.306 527.986C727.545 527.675 727.693 527.304 727.733 526.913C727.772 526.523 727.702 526.129 727.53 525.777C727.357 525.424 727.09 525.126 726.758 524.918C726.425 524.709 726.041 524.597 725.649 524.595L702.189 524.425Z" fill="#BBE7EE"/>
<path d="M729.444 524.425L734.538 524.502C733.619 526.505 733.372 529.158 733.795 532.461C733.867 532.957 734.146 533.231 734.631 533.282C736.107 533.458 737.573 533.365 739.029 533.003C739.555 532.88 739.844 532.549 739.896 532.012C740.041 530.691 740.407 529.468 740.995 528.342L740.5 608.276C740.496 608.656 740.345 609.02 740.078 609.29C739.812 609.559 739.452 609.712 739.075 609.716L700.858 609.979C703.501 607.047 706.278 604.245 709.189 601.571C712.421 598.608 714.103 594.954 714.237 590.607C714.444 583.319 714.47 570.998 714.315 553.645C714.222 543.208 720.571 540.901 727.833 535.218C728.256 534.887 728.494 534.459 728.546 533.933L729.444 524.425Z" fill="#63C9DD"/>
<path d="M740.625 650.395C740.552 653.399 737.801 654.509 732.371 653.724C731.865 653.652 731.52 653.379 731.334 652.904C731.189 652.511 730.931 652.228 730.559 652.052C730.308 651.931 730.019 651.912 729.754 651.999C729.489 652.085 729.267 652.271 729.135 652.517L728.299 654.065C728.082 654.468 727.793 654.814 727.431 655.103C721.392 659.872 714.083 663.031 714.207 672.306C714.352 684.044 714.326 695.787 714.13 707.535C714.047 712.696 713.283 716.691 711.838 719.52C709.763 723.608 706.646 727.221 702.485 730.36C583.824 730.22 465.07 729.895 346.362 730.267C335.017 730.308 324.472 730.091 314.726 729.616C309.73 727.51 304.279 727.056 298.374 728.254C296.444 728.646 294.622 728.259 292.908 727.092C292.71 726.96 292.55 726.779 292.444 726.567C292.338 726.355 292.29 726.12 292.304 725.884C293.027 710.224 293.378 694.527 293.357 678.795C293.357 673.819 293.992 669.942 295.262 667.165C300.991 654.607 311.475 654.112 325.535 654.081C356.092 654.019 386.649 654.034 417.206 654.127C424.747 654.158 433.728 653.663 441.982 653.709C493.98 653.988 545.984 653.931 597.993 653.539C640.205 653.229 682.386 654.901 724.582 653.105C727.927 652.966 728.546 649.683 728.376 647.159C728.304 646.034 727.659 645.13 726.44 644.449L737.621 644.279C738.087 644.27 738.585 644.444 739.061 644.783C739.536 645.122 739.97 645.612 740.315 646.199C740.79 647.004 740.893 648.403 740.625 650.395Z" fill="#BBE7EE"/>
<path d="M726.439 644.448C727.657 645.13 728.302 646.033 728.374 647.158C728.545 649.682 727.925 652.965 724.581 653.104C682.384 654.901 640.203 653.228 597.991 653.538C545.982 653.93 493.979 653.987 441.98 653.708C433.727 653.662 424.745 654.157 417.204 654.126C386.647 654.033 356.09 654.018 325.533 654.08C311.473 654.111 300.99 654.606 295.26 667.165C293.99 669.942 293.356 673.818 293.356 678.794C293.376 694.527 293.025 710.223 292.303 725.884C292.288 726.119 292.336 726.354 292.442 726.566C292.548 726.778 292.708 726.959 292.907 727.091C294.62 728.258 296.442 728.645 298.373 728.253C304.278 727.055 309.728 727.51 314.725 729.615L286.155 729.848C285.726 729.852 285.301 729.771 284.903 729.609C284.506 729.447 284.145 729.208 283.841 728.905C283.537 728.603 283.296 728.243 283.133 727.846C282.969 727.45 282.886 727.025 282.888 726.596L283.228 648.196C283.232 647.297 283.591 646.437 284.226 645.802C284.861 645.167 285.721 644.808 286.62 644.804L726.439 644.448Z" fill="white"/>
<path d="M740.624 650.395L740.469 727.324C740.465 728.17 740.126 728.98 739.528 729.575C738.93 730.171 738.121 730.503 737.279 730.499L702.484 730.359C706.645 727.221 709.762 723.608 711.837 719.52C713.283 716.691 714.046 712.696 714.129 707.535C714.325 695.787 714.351 684.044 714.206 672.306C714.083 663.031 721.391 659.872 727.431 655.102C727.792 654.813 728.081 654.468 728.298 654.065L729.134 652.516C729.266 652.271 729.488 652.085 729.753 651.998C730.018 651.912 730.307 651.931 730.559 652.052C730.93 652.227 731.188 652.511 731.333 652.904C731.519 653.378 731.864 653.652 732.37 653.724C737.8 654.509 740.552 653.399 740.624 650.395Z" fill="#63C9DD"/>
<path d="M350.294 764.674L350.402 779.694L332.687 779.431C332.411 779.427 332.147 779.314 331.953 779.117C331.759 778.92 331.65 778.655 331.65 778.378L331.604 765.185C331.604 764.545 331.918 764.235 332.548 764.256L350.294 764.674Z" fill="#49858D"/>
<path d="M350.402 779.694L350.294 764.673L377.362 764.627C378.126 764.627 378.858 764.93 379.398 765.471C379.938 766.011 380.242 766.743 380.242 767.507V776.891C380.242 778.636 379.375 779.549 377.64 779.632L367.173 780.127C366.594 780.158 366.042 780.076 365.516 779.88C364.354 779.446 363.224 780.05 362.186 780.096C357.84 780.272 353.912 780.138 350.402 779.694Z" fill="#296A74"/>
<path d="M691.197 779.555L648.211 779.524C647.896 779.524 647.585 779.462 647.295 779.341C647.004 779.22 646.741 779.043 646.519 778.82C646.297 778.597 646.122 778.332 646.003 778.041C645.884 777.75 645.824 777.438 645.826 777.124L645.919 767.058C645.921 766.744 645.985 766.433 646.108 766.143C646.231 765.854 646.409 765.591 646.634 765.371C646.858 765.151 647.124 764.977 647.416 764.86C647.708 764.743 648.02 764.685 648.335 764.689L691.584 765.355C691.9 765.361 692.212 765.43 692.501 765.557C692.79 765.684 693.051 765.868 693.268 766.097C693.486 766.326 693.656 766.596 693.768 766.891C693.88 767.187 693.933 767.501 693.922 767.817L693.582 777.263C693.558 777.879 693.296 778.462 692.851 778.889C692.407 779.317 691.814 779.555 691.197 779.555Z" fill="#296A74"/>
<path d="M706.061 342.29C706.061 344.808 705.061 347.222 703.28 349.002C701.5 350.783 699.086 351.783 696.568 351.783H654.016C652.769 351.783 651.535 351.537 650.383 351.06C649.232 350.583 648.185 349.884 647.304 349.002C646.422 348.121 645.723 347.075 645.246 345.923C644.769 344.771 644.523 343.537 644.523 342.29V316.647C644.523 315.401 644.769 314.166 645.246 313.015C645.723 311.863 646.422 310.817 647.304 309.935C648.185 309.054 649.232 308.355 650.383 307.878C651.535 307.401 652.769 307.155 654.016 307.155H696.568C699.086 307.155 701.5 308.155 703.28 309.935C705.061 311.715 706.061 314.13 706.061 316.647V342.29Z" fill="#001215"/>
<path d="M412.714 332.597C412.714 337.562 410.741 342.324 407.231 345.835C403.72 349.346 398.958 351.319 393.993 351.319H331.557C326.592 351.319 321.83 349.346 318.319 345.835C314.808 342.324 312.836 337.562 312.836 332.597V327.921C312.836 322.956 314.808 318.194 318.319 314.683C321.83 311.172 326.592 309.199 331.557 309.199H393.993C398.958 309.199 403.72 311.172 407.231 314.683C410.741 318.194 412.714 322.956 412.714 327.921V332.597Z" fill="#FF5915"/>
<path d="M458.648 349.549C456.46 349.652 454.273 349.318 452.212 348.566C450.151 347.814 448.256 346.659 446.635 345.166C445.014 343.674 443.7 341.873 442.766 339.867C441.832 337.861 441.298 335.689 441.194 333.475C440.983 329.003 442.536 324.632 445.511 321.323C448.486 318.014 452.639 316.038 457.057 315.829C459.245 315.726 461.432 316.06 463.493 316.812C465.554 317.564 467.449 318.719 469.07 320.212C470.691 321.705 472.005 323.505 472.939 325.511C473.873 327.518 474.407 329.69 474.511 331.904C474.722 336.375 473.169 340.746 470.194 344.055C467.219 347.365 463.066 349.341 458.648 349.549Z" fill="#001215"/>
<path d="M518.817 346.687C515.187 349.2 510.693 350.147 506.323 349.32C501.953 348.492 498.065 345.958 495.514 342.274C494.251 340.45 493.354 338.399 492.875 336.237C492.396 334.076 492.344 331.847 492.722 329.677C493.1 327.507 493.9 325.44 495.077 323.592C496.254 321.744 497.785 320.153 499.582 318.908C503.212 316.395 507.706 315.448 512.076 316.276C516.446 317.103 520.335 319.637 522.885 323.321C524.148 325.145 525.045 327.196 525.524 329.358C526.003 331.519 526.055 333.748 525.677 335.918C525.3 338.088 524.499 340.156 523.322 342.003C522.145 343.851 520.614 345.443 518.817 346.687Z" fill="#001215"/>
<path d="M565.093 348.727C560.952 350.21 556.376 349.943 552.372 347.987C548.368 346.031 545.264 342.545 543.742 338.295C542.989 336.191 542.647 333.963 542.735 331.739C542.824 329.514 543.342 327.336 544.259 325.329C545.176 323.322 546.475 321.525 548.081 320.042C549.687 318.558 551.569 317.417 553.619 316.683C557.76 315.2 562.336 315.466 566.34 317.423C570.344 319.379 573.448 322.865 574.969 327.114C575.723 329.218 576.065 331.446 575.976 333.671C575.888 335.896 575.37 338.074 574.453 340.081C573.536 342.088 572.237 343.884 570.631 345.368C569.025 346.851 567.143 347.993 565.093 348.727Z" fill="#001215"/>
<path d="M613.772 348.958C609.569 349.974 605.122 349.229 601.409 346.886C597.696 344.542 595.021 340.793 593.973 336.462C592.926 332.131 593.59 327.573 595.822 323.792C598.053 320.01 601.668 317.314 605.871 316.297C610.074 315.281 614.522 316.026 618.235 318.369C621.948 320.713 624.622 324.462 625.67 328.793C626.718 333.124 626.053 337.682 623.822 341.463C621.59 345.245 617.976 347.941 613.772 348.958Z" fill="#001215"/>
<path d="M706.16 462.585C706.164 465.148 705.151 467.607 703.342 469.423C701.533 471.238 699.077 472.26 696.514 472.265L653.869 472.339C652.6 472.341 651.343 472.094 650.17 471.61C648.997 471.126 647.93 470.417 647.031 469.521C646.133 468.625 645.419 467.561 644.931 466.39C644.444 465.218 644.192 463.962 644.189 462.693L644.146 437.546C644.141 434.983 645.155 432.524 646.964 430.708C648.773 428.893 651.229 427.871 653.791 427.866L696.437 427.792C697.706 427.79 698.963 428.038 700.136 428.521C701.309 429.005 702.375 429.714 703.274 430.61C704.173 431.506 704.887 432.57 705.374 433.741C705.862 434.913 706.114 436.169 706.116 437.438L706.16 462.585Z" fill="#001215"/>
<path d="M314.168 458.737C311.829 450.437 311.69 440.914 318.55 434.689C322.276 431.313 326.901 429.677 332.424 429.78C362.651 430.358 382.652 430.585 392.428 430.461C410.407 430.229 415.083 445.28 411.645 460.146C410.706 464.213 408.424 467.31 404.801 469.437C403.113 470.428 400.821 470.552 398.839 471.682C398.416 471.93 397.957 472.054 397.461 472.054C383.318 471.961 369.18 471.915 355.048 471.915C341.498 471.915 319.34 477.087 314.168 458.737Z" fill="#FF5915"/>
<path d="M463.844 468.517C459.656 470.025 455.027 469.772 450.976 467.814C446.925 465.855 443.785 462.352 442.245 458.075C441.482 455.957 441.135 453.712 441.225 451.47C441.314 449.227 441.837 447.03 442.764 445.005C443.692 442.979 445.005 441.164 446.629 439.664C448.254 438.163 450.157 437.007 452.231 436.26C456.42 434.752 461.049 435.005 465.1 436.964C469.15 438.922 472.291 442.425 473.831 446.703C474.594 448.821 474.94 451.065 474.851 453.308C474.762 455.55 474.239 457.747 473.311 459.773C472.384 461.798 471.071 463.613 469.446 465.114C467.822 466.614 465.918 467.771 463.844 468.517Z" fill="#001215"/>
<path d="M509.555 469.525C505.134 469.633 500.849 467.939 497.644 464.817C494.439 461.694 492.577 457.398 492.466 452.873C492.411 450.633 492.788 448.404 493.576 446.314C494.363 444.224 495.545 442.313 497.055 440.691C498.564 439.069 500.371 437.768 502.373 436.861C504.375 435.954 506.532 435.46 508.722 435.406C513.143 435.298 517.428 436.992 520.633 440.115C523.838 443.238 525.7 447.534 525.811 452.058C525.866 454.299 525.489 456.528 524.701 458.618C523.914 460.708 522.732 462.619 521.222 464.24C519.713 465.862 517.906 467.164 515.904 468.071C513.902 468.977 511.745 469.472 509.555 469.525Z" fill="#001215"/>
<path d="M552.273 467.802C550.279 466.872 548.492 465.55 547.013 463.91C545.535 462.271 544.394 460.347 543.656 458.249C542.918 456.15 542.597 453.917 542.712 451.678C542.827 449.439 543.376 447.237 544.326 445.199C545.277 443.161 546.611 441.325 548.252 439.798C549.893 438.271 551.81 437.081 553.892 436.297C555.974 435.514 558.181 435.151 560.387 435.23C562.593 435.309 564.755 435.828 566.749 436.758C568.743 437.688 570.531 439.01 572.009 440.649C573.488 442.288 574.629 444.212 575.367 446.311C576.105 448.41 576.425 450.643 576.31 452.882C576.195 455.121 575.647 457.322 574.696 459.361C573.746 461.399 572.412 463.234 570.771 464.762C569.129 466.289 567.213 467.479 565.131 468.262C563.049 469.046 560.841 469.409 558.635 469.33C556.429 469.251 554.267 468.732 552.273 467.802Z" fill="#001215"/>
<path d="M614.236 469.007C612.136 469.554 609.945 469.667 607.788 469.338C605.631 469.01 603.55 468.247 601.665 467.094C599.779 465.94 598.125 464.418 596.797 462.615C595.469 460.812 594.494 458.762 593.926 456.584C593.359 454.405 593.21 452.141 593.49 449.919C593.769 447.697 594.47 445.561 595.554 443.634C596.637 441.707 598.082 440.026 599.804 438.687C601.527 437.348 603.494 436.378 605.594 435.831C607.694 435.284 609.885 435.171 612.042 435.5C614.199 435.828 616.28 436.591 618.166 437.744C620.052 438.898 621.706 440.42 623.033 442.223C624.361 444.026 625.337 446.076 625.904 448.254C626.472 450.433 626.62 452.697 626.341 454.919C626.061 457.141 625.36 459.277 624.276 461.204C623.193 463.131 621.749 464.812 620.026 466.151C618.303 467.49 616.336 468.46 614.236 469.007Z" fill="#001215"/>
<path d="M706.138 581.966C706.138 584.479 705.14 586.89 703.363 588.667C701.585 590.444 699.175 591.443 696.662 591.443H653.923C651.41 591.443 648.999 590.444 647.222 588.667C645.445 586.89 644.446 584.479 644.446 581.966V557.159C644.446 554.646 645.445 552.235 647.222 550.458C648.999 548.681 651.41 547.682 653.923 547.682H696.662C699.175 547.682 701.585 548.681 703.363 550.458C705.14 552.235 706.138 554.646 706.138 557.159V581.966Z" fill="#001215"/>
<path d="M413.182 572.82C413.186 575.187 412.724 577.532 411.822 579.72C410.92 581.909 409.596 583.898 407.925 585.575C406.254 587.252 404.269 588.583 402.084 589.492C399.899 590.402 397.556 590.872 395.189 590.876L330.926 590.988C328.559 590.993 326.215 590.53 324.026 589.628C321.838 588.726 319.849 587.402 318.172 585.731C316.495 584.061 315.164 582.076 314.255 579.891C313.345 577.705 312.875 575.362 312.871 572.995L312.862 568.288C312.858 565.921 313.32 563.576 314.222 561.388C315.124 559.199 316.449 557.21 318.119 555.533C319.79 553.857 321.775 552.526 323.96 551.616C326.145 550.706 328.488 550.236 330.855 550.232L395.118 550.12C397.485 550.116 399.829 550.578 402.018 551.48C404.206 552.382 406.196 553.706 407.872 555.377C409.549 557.048 410.88 559.032 411.79 561.218C412.699 563.403 413.17 565.746 413.174 568.113L413.182 572.82Z" fill="#FF5915"/>
<path d="M611.797 589.392C607.42 589.829 603.042 588.441 599.626 585.533C596.211 582.626 594.037 578.438 593.583 573.889C593.358 571.637 593.562 569.365 594.184 567.201C594.805 565.038 595.832 563.026 597.206 561.28C598.579 559.535 600.272 558.09 602.188 557.028C604.105 555.967 606.206 555.309 608.373 555.093C612.75 554.656 617.128 556.044 620.544 558.951C623.959 561.858 626.133 566.047 626.587 570.595C626.812 572.847 626.608 575.12 625.986 577.283C625.365 579.447 624.338 581.459 622.964 583.204C621.591 584.95 619.898 586.394 617.982 587.456C616.065 588.518 613.964 589.175 611.797 589.392Z" fill="#001215"/>
<path d="M459.327 589.381C454.924 589.712 450.566 588.226 447.212 585.248C443.857 582.271 441.781 578.047 441.44 573.505C441.098 568.963 442.519 564.476 445.391 561.031C448.262 557.585 452.349 555.463 456.751 555.132C461.154 554.801 465.512 556.288 468.866 559.266C472.221 562.243 474.297 566.467 474.638 571.009C474.98 575.55 473.558 580.038 470.687 583.483C467.815 586.929 463.729 589.05 459.327 589.381Z" fill="#001215"/>
<path d="M506.974 589.687C504.803 589.436 502.704 588.741 500.798 587.642C498.892 586.544 497.216 585.063 495.866 583.284C494.516 581.505 493.518 579.463 492.929 577.275C492.34 575.086 492.171 572.795 492.433 570.53C492.963 565.957 495.212 561.772 498.688 558.897C502.163 556.023 506.579 554.692 510.965 555.2C513.136 555.451 515.235 556.146 517.141 557.245C519.047 558.343 520.723 559.824 522.073 561.603C523.423 563.382 524.421 565.424 525.01 567.612C525.599 569.801 525.768 572.092 525.506 574.357C524.976 578.93 522.727 583.114 519.251 585.989C515.776 588.864 511.36 590.194 506.974 589.687Z" fill="#001215"/>
<path d="M559.059 589.582C556.863 589.536 554.698 589.045 552.688 588.137C550.677 587.23 548.86 585.923 547.341 584.292C545.822 582.661 544.63 580.737 543.834 578.631C543.037 576.525 542.652 574.277 542.699 572.016C542.747 569.755 543.226 567.526 544.11 565.455C544.994 563.384 546.265 561.512 547.851 559.945C549.438 558.379 551.307 557.15 553.354 556.327C555.401 555.505 557.584 555.105 559.78 555.151C561.976 555.197 564.141 555.688 566.151 556.595C568.161 557.503 569.978 558.81 571.497 560.441C573.016 562.072 574.208 563.996 575.005 566.102C575.801 568.208 576.187 570.456 576.139 572.717C576.092 574.977 575.613 577.207 574.729 579.278C573.845 581.349 572.573 583.221 570.987 584.787C569.401 586.353 567.531 587.583 565.485 588.405C563.438 589.228 561.254 589.628 559.059 589.582Z" fill="#001215"/>
<path d="M706.041 702.383C706.027 704.962 704.99 707.43 703.156 709.245C701.323 711.059 698.844 712.07 696.265 712.057L654.209 711.837C651.63 711.823 649.162 710.786 647.348 708.952C645.533 707.119 644.522 704.64 644.535 702.061L644.665 677.224C644.679 674.645 645.716 672.177 647.55 670.362C649.383 668.548 651.862 667.537 654.441 667.55L696.497 667.77C699.076 667.784 701.544 668.821 703.359 670.655C705.173 672.488 706.184 674.967 706.171 677.546L706.041 702.383Z" fill="#001215"/>
<path d="M322.514 709.965C314.864 706.527 312.929 696.261 312.588 688.549C312.309 682.324 316.63 674.566 322.266 671.996C324.413 671.015 327.897 670.53 332.718 670.54C351.486 670.592 370.259 670.55 389.037 670.416C401.642 670.323 407.975 671.361 411.475 683.966C415.098 696.973 410.468 710.584 395.138 710.693C375.008 710.847 354.877 711.069 334.747 711.359C328.863 711.441 324.785 710.977 322.514 709.965Z" fill="#FF5915"/>
<path d="M562.48 710.319C560.324 710.706 558.113 710.662 555.971 710.187C553.83 709.712 551.801 708.816 550 707.55C548.198 706.285 546.66 704.674 545.474 702.811C544.287 700.948 543.474 698.868 543.082 696.691C542.291 692.293 543.262 687.764 545.78 684.101C548.299 680.437 552.16 677.939 556.513 677.156C558.668 676.768 560.88 676.813 563.021 677.288C565.162 677.763 567.192 678.659 568.993 679.924C570.794 681.19 572.332 682.8 573.519 684.663C574.706 686.527 575.518 688.607 575.91 690.784C576.701 695.182 575.731 699.71 573.212 703.374C570.693 707.037 566.833 709.535 562.48 710.319Z" fill="#001215"/>
<path d="M474.824 693.783C474.824 698.239 473.054 702.512 469.903 705.663C466.752 708.814 462.479 710.584 458.023 710.584C453.567 710.584 449.293 708.814 446.143 705.663C442.992 702.512 441.222 698.239 441.222 693.783C441.222 689.327 442.992 685.054 446.143 681.903C449.293 678.752 453.567 676.982 458.023 676.982C462.479 676.982 466.752 678.752 469.903 681.903C473.054 685.054 474.824 689.327 474.824 693.783Z" fill="#001215"/>
<path d="M525.955 693.939C525.955 696.143 525.521 698.326 524.677 700.362C523.834 702.399 522.597 704.249 521.039 705.808C519.48 707.366 517.63 708.603 515.593 709.446C513.557 710.29 511.374 710.724 509.17 710.724C504.718 710.724 500.448 708.956 497.3 705.808C494.152 702.66 492.384 698.39 492.384 693.939C492.384 689.487 494.152 685.217 497.3 682.069C500.448 678.921 504.718 677.153 509.17 677.153C511.374 677.153 513.557 677.587 515.593 678.431C517.63 679.274 519.48 680.511 521.039 682.069C522.597 683.628 523.834 685.478 524.677 687.515C525.521 689.551 525.955 691.734 525.955 693.939Z" fill="#001215"/>
<path d="M612.327 710.556C610.179 710.847 607.993 710.702 605.895 710.132C603.797 709.561 601.828 708.575 600.099 707.23C598.37 705.885 596.917 704.207 595.821 702.293C594.725 700.378 594.008 698.265 593.712 696.072C593.415 693.88 593.545 691.651 594.093 689.515C594.641 687.378 595.597 685.374 596.907 683.619C598.216 681.863 599.853 680.389 601.724 679.282C603.595 678.175 605.664 677.455 607.812 677.165C609.961 676.874 612.146 677.018 614.244 677.589C616.342 678.16 618.312 679.146 620.041 680.491C621.769 681.836 623.223 683.513 624.319 685.428C625.415 687.342 626.131 689.456 626.428 691.649C626.724 693.841 626.595 696.069 626.047 698.206C625.498 700.343 624.542 702.346 623.233 704.102C621.924 705.858 620.287 707.331 618.415 708.439C616.544 709.546 614.475 710.266 612.327 710.556Z" fill="#001215"/>
</svg>
