<svg width="512" height="512" viewBox="0 0 512 512" fill="none" xmlns="http://www.w3.org/2000/svg">
<rect width="512" height="512" fill="white"/>
<path d="M403.871 222.373C406.254 227.472 406.236 233.05 403.819 239.107C390.667 272.161 377.296 305.123 363.705 337.992C362.369 341.21 360.892 343.478 359.275 344.796C348.686 353.394 339.324 360.633 325.478 365.802C308.687 372.088 292.2 375.846 276.016 377.077C233.252 380.36 184.383 373.899 151.536 343.385C150.866 342.76 150.34 342 149.993 341.157C135.607 306.846 120.996 272.442 107.374 237.657C105.344 232.488 105.563 227.481 108.034 222.637C108.236 222.233 108.267 221.82 108.126 221.398C100.715 198.836 114.64 176.748 136.543 170.089C139.299 169.259 140.011 169.456 141.896 167.07C152.999 153 167.425 148.595 185.161 148.82C185.583 148.828 185.961 148.705 186.295 148.45C187.948 147.184 189.57 145.949 191.161 144.745C205.191 134.156 217.837 134.341 234.215 139.589C234.637 139.73 235.054 139.708 235.467 139.523C248.944 133.528 262.456 133.493 276.002 139.418C276.694 139.722 277.481 139.741 278.191 139.47C295.703 132.666 311.232 135.444 324.779 147.804C325.597 148.551 326.7 148.899 328.089 148.846C339.552 148.415 349.934 151.224 359.235 157.272C363.639 160.147 367.174 164.432 370.681 168.573C370.98 168.916 371.345 169.14 371.776 169.245C395.076 174.889 412.258 196.765 403.819 221.134C403.669 221.556 403.687 221.969 403.871 222.373Z" fill="#01010A"/>
<path d="M384.712 240.518C383.419 235.982 382.246 237.116 378.83 236.43C373.648 235.402 371.169 240.452 368.241 242.008C360.523 246.114 352.624 249.832 344.546 253.164C339.864 255.102 340.761 259.757 338.045 262.513C335.487 265.084 332.572 263.555 329.948 264.966C329.614 265.15 329.306 265.111 329.025 264.847L327.957 263.858" stroke="#E0EBFE" stroke-width="2"/>
<path d="M309.997 265.559C301.021 267.335 291.228 268.654 280.617 269.515C270.358 270.35 261.115 270.781 252.886 270.807C247.203 270.834 240.781 270.056 234.702 269.726C230.07 269.489 225.56 268.979 221.173 268.196C215.072 267.106 208.747 266.144 202.198 265.309" stroke="#E8EDFE" stroke-width="2"/>
<path d="M185.635 268.552C185.855 268.834 185.561 269.058 184.752 269.225" stroke="#80B2E4" stroke-width="2"/>
<path d="M168.797 264.333C169.105 263.849 169.377 263.559 169.615 263.463C170.45 263.111 170.837 262.478 170.775 261.564C170.34 254.984 167.122 252.702 160.964 250.118C152.644 246.623 146.868 244.039 139.602 237.353C137.774 235.674 135.967 235.762 134.183 237.617C133.866 237.942 133.488 238.07 133.049 238L124.688 236.549" stroke="#E8EDFE" stroke-width="2"/>
<path d="M145.008 270.86L158.406 301.149" stroke="#929CB0" stroke-width="2"/>
<path d="M384.712 240.518C383.419 235.982 382.246 237.116 378.83 236.43C373.648 235.402 371.169 240.452 368.242 242.008C360.523 246.113 352.624 249.832 344.546 253.164C339.864 255.102 340.761 259.757 338.045 262.513C335.487 265.084 332.572 263.555 329.948 264.966C329.614 265.15 329.306 265.111 329.025 264.847L327.957 263.858C326.256 256.592 319.874 257.225 315.021 260.825C313.008 262.328 311.333 263.906 309.997 265.559C301.022 267.335 291.228 268.653 280.618 269.515C270.359 270.35 261.115 270.781 252.887 270.807C247.203 270.834 240.782 270.056 234.703 269.726C230.07 269.489 225.56 268.979 221.173 268.196C215.072 267.106 208.747 266.144 202.198 265.309C199.464 262.267 197.016 260.157 194.853 258.979C187.732 255.115 181.429 261.537 185.636 268.552C185.856 268.834 185.561 269.058 184.752 269.225L168.797 264.333C169.104 263.849 169.377 263.559 169.614 263.462C170.45 263.111 170.836 262.478 170.775 261.564C170.34 254.984 167.122 252.702 160.964 250.118C152.643 246.623 146.868 244.039 139.602 237.353C137.774 235.674 135.967 235.762 134.182 237.617C133.866 237.942 133.488 238.07 133.048 237.999L124.688 236.549L122.816 233.134C122.698 232.919 122.628 232.681 122.61 232.436C122.592 232.192 122.627 231.946 122.711 231.716C122.796 231.486 122.93 231.277 123.102 231.103C123.275 230.929 123.483 230.794 123.712 230.707C126.719 229.564 129.651 228.061 132.508 226.198C138.389 222.374 137.321 214.158 129.95 213.209C127.972 212.958 125.677 213.961 123.66 214.475C123.52 214.509 123.375 214.515 123.234 214.492C123.092 214.469 122.956 214.417 122.834 214.339C122.712 214.261 122.607 214.16 122.524 214.041C122.442 213.921 122.384 213.786 122.354 213.644C119.071 197.517 133.418 181.074 150.059 184.238C150.498 184.326 150.841 184.181 151.087 183.803C152.683 181.311 153.923 178.199 155.36 176.115C160.854 168.16 168.471 163.962 178.212 163.522C182.366 163.338 191.069 167.623 193.877 163.892C201.315 153.989 211.534 147.976 224.154 152.195C227.055 153.171 230.351 155.228 233.292 156.665C234.008 157.018 234.801 157.184 235.598 157.149C236.395 157.115 237.171 156.88 237.854 156.468C241.823 154.081 246.03 151.576 250.46 150.692C258.698 149.057 266.275 150.899 273.194 156.217C277.532 159.553 286.037 152.459 289.519 151.668C303.681 148.398 310.446 155.202 319.412 164.419C319.944 164.966 320.617 165.354 321.358 165.54C322.098 165.727 322.876 165.704 323.606 165.474C336.212 161.492 347.961 164.024 355.517 175.285C357.086 177.606 358.286 180.836 359.525 183.539C359.698 183.926 359.989 184.248 360.357 184.458C360.724 184.669 361.148 184.758 361.569 184.713C373.279 183.465 382.175 187.834 388.259 197.82C391.045 202.409 391.481 207.904 389.564 214.303C389.45 214.699 389.186 214.857 388.773 214.778C386.228 214.33 383.498 212.919 381.178 213.301C377.103 213.987 373.477 219.05 375.679 222.927C377.498 226.105 385.885 229.323 389.366 230.958C389.648 231.09 389.869 231.324 389.987 231.612C390.104 231.901 390.108 232.222 389.999 232.514C389.032 235.125 387.27 237.793 384.712 240.518Z" fill="#FFFFFE"/>
<path d="M168.797 264.333C156.34 259.665 144.679 253.507 133.814 245.859C130.139 243.283 127.097 240.18 124.688 236.549L133.049 238C133.488 238.07 133.866 237.942 134.183 237.617C135.967 235.762 137.774 235.674 139.602 237.353C146.868 244.039 152.644 246.623 160.964 250.118C167.122 252.702 170.34 254.984 170.775 261.564C170.837 262.478 170.45 263.111 169.615 263.463C169.377 263.559 169.105 263.849 168.797 264.333Z" fill="#D0DAFE"/>
<path d="M384.712 240.518C374.725 249.801 363.24 256.944 350.256 261.946C342.221 265.04 334.326 267.647 326.573 269.766C326.415 269.813 326.246 269.803 326.096 269.737C325.945 269.67 325.824 269.552 325.753 269.403C325.683 269.254 325.668 269.085 325.712 268.927C325.756 268.768 325.856 268.631 325.993 268.539C327.478 267.476 328.133 265.915 327.957 263.858L329.025 264.847C329.307 265.111 329.614 265.15 329.949 264.966C332.573 263.555 335.487 265.084 338.045 262.513C340.761 259.757 339.865 255.102 344.546 253.164C352.625 249.832 360.523 246.114 368.242 242.008C371.169 240.452 373.648 235.402 378.831 236.43C382.246 237.116 383.42 235.982 384.712 240.518Z" fill="#C1D7FE"/>
<path d="M145.009 270.86L158.406 301.149L176.234 340.603C176.327 340.808 176.357 341.035 176.322 341.257C176.287 341.479 176.187 341.685 176.035 341.851C175.884 342.017 175.687 342.134 175.469 342.189C175.251 342.244 175.022 342.233 174.81 342.159C167.953 339.825 164.432 335.342 161.505 328.142C154.332 310.512 146.551 293.092 138.982 275.62C137.646 272.552 136.314 269.805 134.987 267.379C133.493 264.662 134.103 264.051 136.82 265.546C139.281 266.9 142.011 268.671 145.009 270.86Z" fill="#FFFFFE"/>
<path d="M309.997 265.559L305.302 272.957C305.065 273.335 304.731 273.581 304.3 273.695C288.978 277.783 275.923 277.73 260.231 278.825C253.229 279.313 245.436 278.192 239.515 277.994C228.729 277.616 218.008 276.28 207.354 273.985C206.988 273.908 206.645 273.746 206.35 273.513C206.055 273.28 205.817 272.981 205.653 272.64L202.198 265.309C208.747 266.144 215.072 267.106 221.173 268.196C225.56 268.979 230.07 269.489 234.702 269.726C240.781 270.056 247.203 270.834 252.886 270.807C261.115 270.781 270.358 270.35 280.617 269.515C291.228 268.654 301.021 267.335 309.997 265.559Z" fill="#D0DAFE"/>
<path d="M376.536 267.867C367.807 287.95 359.512 309.206 350.374 329.579C347.935 335.025 345.508 337.676 340.643 340.498C340.503 340.576 340.351 340.625 340.194 340.643C339.025 340.731 338.634 340.186 339.021 339.008C340.375 334.858 341.869 330.757 343.504 326.705C350.818 308.639 358.115 290.754 365.394 273.049C365.788 272.089 366.47 271.277 367.345 270.728L374.558 266.166C377.046 264.601 377.705 265.168 376.536 267.867Z" fill="#FFFFFE"/>
<path d="M185.635 268.552C186.427 268.966 187.064 269.462 187.547 270.043C188.172 270.79 188.053 270.939 187.191 270.491L184.752 269.225C185.561 269.058 185.855 268.834 185.635 268.552Z" fill="#0165CA"/>
<path d="M145.008 270.86C150.164 272.1 159.289 274.895 161.808 279.84C164.006 284.156 166.186 288.481 168.348 292.815C169.733 295.585 169.561 299.158 166.212 300.398C164.278 301.11 161.676 301.36 158.406 301.149L145.008 270.86Z" fill="#243961"/>
<path d="M177.038 211.877C177.553 208.778 178.647 205.587 177.579 202.581C176.814 200.392 175.628 197.974 174.019 195.328C170.617 189.711 183.579 186.638 186.335 185.689C194.286 182.972 205.468 174.006 214.58 171.645C226.026 168.692 237.353 172.885 251.753 176.313C259.48 178.146 268.157 175.76 278.244 172.793C295.993 167.558 304.38 173.346 319.241 182.063C323.355 184.471 328.177 186.638 333.707 188.564C336.414 189.504 337.724 191.205 337.636 193.667C337.531 196.818 334.524 198.796 334.379 201.948C334.194 205.956 334.194 208.581 334.379 209.82C335.052 214.172 339.337 213.525 341.368 215.991C344.137 219.38 341.816 224.76 338.651 226.962C338.287 227.216 337.843 227.32 337.412 227.253C328.788 225.921 322.089 228.136 316.116 234.452C312.819 237.934 309.602 246.795 305.158 247.995C303.98 248.32 302.288 248.065 300.081 247.23C289.532 243.208 280.446 244.5 270.728 250.184C269.398 250.963 267.823 251.208 266.324 250.869C262.381 249.986 258.214 248.061 254.693 247.204C242.285 244.171 230.312 244.448 218.892 249.656C218.498 249.836 218.058 249.882 217.639 249.788C209.464 247.903 207.341 239.265 201.895 233.951C195.161 227.376 187.007 225.002 177.434 226.831C173.386 227.609 171.553 225.578 170.524 221.833C168.942 216.123 172.806 215.372 176.405 212.892C176.757 212.646 176.968 212.308 177.038 211.877Z" fill="#01010A"/>
<path d="M365.884 227.028C365.746 227.609 365.489 228.156 365.127 228.638C364.764 229.12 364.304 229.526 363.772 229.834C363.24 230.143 362.646 230.347 362.025 230.435C361.405 230.523 360.768 230.493 360.153 230.348C359.538 230.203 358.956 229.944 358.44 229.587C357.925 229.23 357.486 228.782 357.148 228.268C356.81 227.754 356.58 227.185 356.472 226.592C356.364 225.999 356.378 225.395 356.516 224.813C356.653 224.232 356.911 223.685 357.273 223.204C357.635 222.722 358.096 222.315 358.628 222.007C359.16 221.699 359.754 221.495 360.374 221.407C360.995 221.318 361.631 221.348 362.246 221.493C362.862 221.639 363.444 221.897 363.959 222.254C364.475 222.611 364.914 223.059 365.252 223.573C365.59 224.087 365.819 224.657 365.928 225.249C366.036 225.842 366.021 226.447 365.884 227.028Z" fill="#C1D7FE"/>
<path d="M157.311 223.885C157.622 224.409 157.822 224.992 157.898 225.602C157.974 226.212 157.925 226.836 157.755 227.438C157.584 228.041 157.295 228.61 156.904 229.114C156.512 229.617 156.027 230.045 155.474 230.373C154.922 230.701 154.313 230.923 153.684 231.025C153.055 231.128 152.416 231.109 151.806 230.971C151.195 230.832 150.624 230.576 150.125 230.217C149.626 229.859 149.209 229.404 148.898 228.88C148.587 228.356 148.387 227.772 148.311 227.162C148.235 226.553 148.284 225.929 148.454 225.326C148.625 224.724 148.914 224.154 149.305 223.651C149.697 223.147 150.182 222.719 150.735 222.391C151.287 222.063 151.895 221.842 152.525 221.739C153.154 221.637 153.793 221.655 154.403 221.794C155.014 221.933 155.585 222.189 156.084 222.547C156.583 222.906 157 223.361 157.311 223.885Z" fill="#E12555"/>
<path d="M317.79 209.279C316.164 210.088 314.428 209.934 312.582 208.818" stroke="#F092AA" stroke-width="2"/>
<path d="M312.581 208.818C306.911 199.785 294.582 189.711 282.951 193.087C273.642 195.79 264.49 198.322 254.271 197.451C240.979 196.304 230.047 188.59 217.336 193.983C210.452 196.897 203.384 202.409 198.413 208.607" stroke="#FFA3AD" stroke-width="2"/>
<path d="M198.414 208.607C197.183 209.697 195.688 210.475 193.93 210.941" stroke="#F092AA" stroke-width="2"/>
<path d="M312.581 208.818C307.096 212.51 301.817 216.488 296.744 220.752C295.32 221.947 293.742 222.703 292.01 223.02C277.286 225.727 263.053 226.545 249.313 225.472C240.733 224.804 233.049 224.782 226.263 225.406C224.588 225.551 222.135 225.222 221.094 224.167C215.283 218.224 211.081 214.607 208.488 213.315C205.217 211.688 201.859 210.119 198.413 208.607" stroke="#F03659" stroke-width="2"/>
<path d="M317.791 209.279C316.164 210.088 314.428 209.934 312.582 208.818C306.912 199.785 294.582 189.711 282.952 193.086C273.642 195.79 264.491 198.321 254.271 197.451C240.98 196.304 230.048 188.59 217.336 193.983C210.453 196.897 203.385 202.409 198.414 208.607C197.183 209.697 195.689 210.475 193.93 210.941L192.994 199.126C192.979 198.917 193.024 198.709 193.124 198.524C193.225 198.339 193.376 198.187 193.561 198.084C199.108 195.016 204.668 191.922 210.242 188.801C224.984 180.546 237.894 188.854 252.702 190.172C260.095 190.823 267.396 190.194 274.605 188.287C283.559 185.913 293.185 182.841 301.624 188.181C307.083 191.636 312.648 194.906 318.318 197.992C318.705 198.203 318.876 198.528 318.832 198.968L317.791 209.279Z" fill="#FFFFFE"/>
<path d="M312.581 208.818C307.096 212.51 301.817 216.488 296.744 220.752C295.32 221.947 293.742 222.703 292.01 223.02C277.286 225.727 263.053 226.545 249.313 225.472C240.733 224.804 233.049 224.782 226.263 225.406C224.588 225.551 222.135 225.222 221.094 224.167C215.283 218.224 211.081 214.607 208.488 213.314C205.217 211.688 201.859 210.119 198.413 208.607C203.384 202.409 210.452 196.897 217.336 193.983C230.047 188.59 240.979 196.304 254.271 197.451C264.49 198.322 273.642 195.79 282.951 193.087C294.582 189.711 306.911 199.785 312.581 208.818Z" fill="#FF465C"/>
<path d="M198.414 208.607C201.86 210.119 205.218 211.688 208.488 213.315C211.081 214.607 215.283 218.224 221.094 224.167C222.136 225.222 224.589 225.551 226.263 225.406C233.05 224.782 240.733 224.804 249.313 225.472C263.053 226.545 277.286 225.727 292.011 223.02C293.743 222.703 295.321 221.947 296.745 220.752C301.817 216.488 307.096 212.51 312.582 208.818C314.428 209.934 316.164 210.088 317.79 209.279C318.265 211.055 318.441 212.941 318.318 214.936C318.291 215.385 318.063 215.688 317.632 215.846C309.993 218.598 303.923 223.499 299.422 230.549C298.34 232.237 296.74 232.804 294.622 232.25C287.826 230.457 281.844 230.233 276.675 231.578C272.535 232.659 263.489 235.797 259.546 234.518C246.03 230.167 235.573 231.077 221.397 233.094C220.889 233.166 220.37 233.095 219.898 232.891C219.426 232.686 219.019 232.355 218.721 231.934C212.154 222.716 205.666 216.558 193.904 214.87C193.757 214.85 193.616 214.798 193.491 214.718C193.366 214.638 193.26 214.532 193.181 214.408C193.102 214.283 193.051 214.143 193.032 213.998C193.014 213.852 193.028 213.704 193.073 213.565L193.93 210.941C195.688 210.475 197.183 209.697 198.414 208.607Z" fill="#E12555"/>
</svg>
