<svg width="1024" height="1024" viewBox="0 0 1024 1024" fill="none" xmlns="http://www.w3.org/2000/svg">
<rect width="1024" height="1024" fill="white"/>
<path d="M701.333 592.187C703.633 583.251 706.081 574.563 708.674 566.122C709.472 563.537 709.733 560.705 710.406 558.313C713.568 546.971 716.868 535.835 718.765 524.177C721.831 505.274 725.034 485.848 726.78 467.275C728.237 451.776 728.971 439.096 728.98 429.234C728.998 402.719 729.145 376.168 729.42 349.579C729.423 349.169 729.282 348.77 729.02 348.453C728.759 348.136 728.394 347.922 727.99 347.847C710.709 344.85 693.758 340.272 676.766 336.024C659.397 331.689 638.679 324.462 614.612 314.344C599.141 307.836 582.781 299.29 565.532 288.704C557.879 283.993 551.711 280.185 547.027 277.28C534.434 269.457 522.047 259.311 509.317 250.444" stroke="#132837" stroke-width="2"/>
<path d="M509.318 250.444C508.044 250.416 507.159 250.59 506.665 250.966C482.038 269.874 459.285 285.047 438.407 296.485C413.44 310.151 386.646 322.785 359.288 330.841C336.714 337.481 312.751 343.723 288.693 346.995C288.514 347.021 288.351 347.11 288.232 347.246C288.114 347.383 288.048 347.557 288.046 347.737C287.955 372.19 288.111 396.67 288.514 421.178C289.091 456.895 293.477 492.337 300.612 527.339C305.369 550.683 311.541 573.683 319.996 595.968C322.416 602.356 324.799 608.722 327.145 615.064" stroke="#2B3E4D" stroke-width="2"/>
<path d="M509.317 250.444C509.427 252.928 509.738 257.134 510.252 263.064C510.554 266.565 510.362 269.388 509.674 271.533" stroke="#3D576C" stroke-width="2"/>
<path d="M509.675 271.533C487.844 287.004 474.009 296.751 468.171 300.775C441.582 319.087 412.318 333.476 380.377 343.943C361.446 350.157 339.972 355.436 320.918 358.653C313.274 359.945 307.788 361.829 307.857 370.297C308.04 389.893 308.173 409.488 308.256 429.083C308.462 481.284 316.518 534.996 335.023 583.98C337.69 591.037 341.374 599.423 346.076 609.139C352.721 622.886 357.414 632.23 360.154 637.17C372.334 659.139 392.214 682.538 411.31 700.795C437.137 725.486 466.576 744.633 499.626 758.234C501.853 759.15 504.997 759.632 509.057 759.677" stroke="#2B3E4D" stroke-width="2"/>
<path d="M509.056 759.677L509.028 777.852" stroke="#3D576C" stroke-width="2"/>
<path d="M509.029 777.852C503.493 777.201 498.709 776.111 494.676 774.58C457.516 760.543 422.294 735.784 393.561 708.233C386.99 701.936 378.69 692.574 368.664 680.146C364.943 675.545 360.685 669.78 355.892 662.851C351.832 656.986 347.689 651.134 343.464 645.295" stroke="#2B3E4D" stroke-width="2"/>
<path d="M687.475 621.69C674.351 648.792 658.032 672.855 638.519 693.88C622.31 711.367 604.108 728.91 583.734 742.905C568.043 753.692 550.675 763.572 531.63 772.545C523.739 776.266 516.205 778.035 509.028 777.852" stroke="#132837" stroke-width="2"/>
<path d="M509.056 759.677C512.731 759.219 515.238 758.738 516.576 758.234C532.295 752.331 547.115 744.683 561.037 735.289C569.945 729.295 579.088 723.521 587.281 716.537C590.498 713.796 593.706 711.042 596.905 708.274C626.27 682.896 651.058 651.894 667.899 616.879C671.074 610.266 674.401 604.657 677.096 597.027C678.278 593.654 679.502 590.474 680.767 587.486C686.678 573.417 691.43 558.959 695.023 544.111C695.481 542.205 696.347 538.855 697.621 534.062C699.766 525.969 702.465 509.985 705.719 486.109C710.806 448.811 709.335 416.421 709.321 373.363C709.321 366.42 708.207 361.677 701.003 360.165C685.762 356.967 671.175 353.52 657.244 349.827C621.816 340.437 590.251 326.483 559.291 306.769C544.397 297.283 527.859 285.537 509.675 271.533" stroke="#132837" stroke-width="2"/>
<path d="M698.501 630.104C699.72 631.222 701.114 631.722 702.681 631.603" stroke="#607584" stroke-width="2"/>
<path d="M701.333 592.188C703.634 583.251 706.081 574.563 708.675 566.122C709.472 563.537 709.733 560.705 710.407 558.313C713.569 546.971 716.868 535.835 718.765 524.177C721.831 505.274 725.035 485.848 726.78 467.275C728.238 451.776 728.971 439.096 728.98 429.234C728.998 402.719 729.145 376.168 729.42 349.579C729.424 349.169 729.282 348.77 729.021 348.453C728.759 348.136 728.394 347.922 727.99 347.847C710.709 344.85 693.758 340.272 676.766 336.024C659.398 331.689 638.68 324.462 614.612 314.344C599.141 307.836 582.781 299.29 565.532 288.704C557.879 283.993 551.711 280.185 547.028 277.28C534.434 269.457 522.048 259.311 509.317 250.444C508.043 250.416 507.159 250.59 506.664 250.966C482.037 269.874 459.284 285.047 438.406 296.485C413.44 310.151 386.645 322.785 359.287 330.841C336.713 337.481 312.751 343.723 288.692 346.995C288.513 347.021 288.35 347.11 288.232 347.247C288.113 347.383 288.047 347.557 288.046 347.737C287.954 372.19 288.11 396.67 288.513 421.178C289.091 456.895 293.476 492.337 300.611 527.339C305.368 550.683 311.541 573.683 319.996 595.968C322.415 602.356 324.798 608.722 327.145 615.064C323.094 615.568 320.014 616.998 317.906 619.353C313.163 624.66 311.816 627.093 304.626 627.547C297.408 628.001 295.415 624.467 292.418 617.813C288.981 610.151 284.865 597.998 280.072 581.354C268.978 542.778 262.2 502.813 258.309 463.783C257.044 451.034 256.352 437.057 256.233 421.852C256.004 392.321 255.867 362.796 255.821 333.275C255.807 322.056 260.729 319.568 270.71 317.904C289.902 314.697 310.029 310.508 331.09 305.339C365.102 296.994 397.506 282.944 427.449 265.099C453.084 249.821 477.665 233.002 501.192 214.644C508.492 208.939 516.081 213.517 522.405 218.48C540.259 232.512 559.533 246.127 580.228 259.325C616.014 282.133 656.515 298.094 697.456 307.841C712.9 311.507 730.323 315.013 749.726 318.358C756.558 319.54 761.755 322.895 761.755 330.429C761.801 355.743 761.787 381.062 761.714 406.386C761.549 466.161 754.854 525.95 737.531 583.361C735.854 588.902 733.737 597.975 727.592 600.148C713.528 605.124 710.668 590.139 701.333 592.188Z" fill="#000F18"/>
<path d="M509.318 250.444C509.428 252.928 509.739 257.134 510.253 263.064C510.555 266.565 510.363 269.388 509.675 271.533C487.844 287.004 474.009 296.751 468.171 300.775C441.582 319.087 412.318 333.476 380.377 343.943C361.446 350.157 339.972 355.436 320.917 358.653C313.274 359.945 307.788 361.829 307.857 370.297C308.04 389.893 308.173 409.488 308.256 429.083C308.462 481.284 316.518 534.996 335.023 583.98C337.69 591.037 341.374 599.423 346.076 609.139C352.721 622.886 357.413 632.23 360.154 637.17C372.334 659.139 392.214 682.538 411.31 700.795C437.137 725.486 466.576 744.633 499.626 758.234C501.853 759.15 504.996 759.632 509.057 759.677L509.029 777.852C503.493 777.201 498.709 776.111 494.676 774.58C457.516 760.543 422.294 735.784 393.561 708.233C386.99 701.936 378.691 692.574 368.664 680.146C364.943 675.545 360.685 669.78 355.892 662.851C351.832 656.986 347.689 651.134 343.464 645.295C343.537 644.855 343.689 644.232 343.918 643.426C344.092 642.784 344.161 642.161 344.124 641.556C343.317 629.32 337.658 620.49 327.145 615.064C324.799 608.722 322.416 602.356 319.996 595.968C311.541 573.683 305.369 550.683 300.612 527.339C293.477 492.337 289.091 456.895 288.514 421.178C288.111 396.67 287.955 372.19 288.046 347.737C288.048 347.557 288.114 347.383 288.232 347.246C288.351 347.11 288.514 347.021 288.693 346.995C312.751 343.723 336.714 337.481 359.288 330.841C386.646 322.785 413.44 310.151 438.407 296.485C459.285 285.047 482.038 269.874 506.665 250.966C507.159 250.59 508.044 250.416 509.318 250.444Z" fill="#556D82"/>
<path d="M509.318 250.444C522.049 259.311 534.435 269.457 547.028 277.28C551.712 280.185 557.88 283.993 565.533 288.704C582.782 299.29 599.142 307.836 614.613 314.344C638.681 324.462 659.399 331.689 676.767 336.024C693.759 340.272 710.71 344.85 727.991 347.847C728.395 347.922 728.76 348.136 729.022 348.453C729.283 348.77 729.424 349.169 729.421 349.579C729.146 376.168 728.999 402.719 728.981 429.234C728.972 439.096 728.239 451.776 726.781 467.275C725.035 485.848 721.832 505.274 718.766 524.177C716.869 535.835 713.57 546.971 710.408 558.313C709.734 560.705 709.473 563.537 708.675 566.122C706.082 574.563 703.635 583.251 701.334 592.187C697.87 593.92 695.445 595.794 694.061 597.81C691.559 601.467 689.662 605.376 688.37 609.537C686.949 614.111 686.651 618.162 687.476 621.69C674.352 648.792 658.033 672.855 638.52 693.88C622.311 711.367 604.109 728.91 583.735 742.905C568.044 753.693 550.676 763.573 531.631 772.545C523.739 776.266 516.206 778.035 509.029 777.852L509.057 759.677C512.732 759.219 515.239 758.738 516.577 758.234C532.295 752.331 547.115 744.683 561.037 735.289C569.946 729.295 579.088 723.521 587.282 716.537C590.499 713.796 593.707 711.042 596.905 708.274C626.271 682.896 651.058 651.894 667.899 616.879C671.075 610.266 674.402 604.657 677.097 597.027C678.279 593.654 679.502 590.474 680.767 587.486C686.679 573.417 691.431 558.959 695.024 544.111C695.482 542.205 696.348 538.855 697.622 534.062C699.767 525.969 702.466 509.985 705.72 486.109C710.806 448.811 709.335 416.421 709.322 373.363C709.322 366.421 708.208 361.678 701.004 360.165C685.762 356.967 671.176 353.52 657.245 349.827C621.817 340.437 590.252 326.483 559.291 306.769C544.398 297.283 527.859 285.537 509.675 271.533C510.363 269.388 510.555 266.565 510.253 263.064C509.74 257.134 509.428 252.928 509.318 250.444Z" fill="#254156"/>
<path d="M509.675 271.533C527.859 285.538 544.398 297.283 559.291 306.769C590.251 326.483 621.816 340.437 657.245 349.827C671.176 353.521 685.762 356.967 701.004 360.165C708.208 361.678 709.321 366.421 709.321 373.363C709.335 416.422 710.806 448.811 705.719 486.109C702.466 509.985 699.767 525.969 697.622 534.062C696.348 538.855 695.482 542.205 695.024 544.111C691.431 558.959 686.679 573.417 680.767 587.486C679.502 590.474 678.279 593.654 677.096 597.027C674.402 604.657 671.075 610.266 667.899 616.879C651.058 651.894 626.271 682.896 596.905 708.274C593.707 711.042 590.499 713.796 587.282 716.537C579.088 723.521 569.946 729.295 561.037 735.289C547.115 744.683 532.295 752.332 516.577 758.234C515.239 758.738 512.732 759.219 509.057 759.678C504.996 759.632 501.853 759.151 499.626 758.234C466.576 744.633 437.137 725.487 411.31 700.796C392.214 682.538 372.334 659.14 360.154 637.171C357.414 632.23 352.721 622.887 346.076 609.139C341.374 599.424 337.69 591.037 335.023 583.98C316.518 534.997 308.462 481.284 308.256 429.083C308.173 409.488 308.04 389.893 307.857 370.298C307.788 361.829 313.274 359.945 320.918 358.653C339.972 355.436 361.446 350.157 380.377 343.943C412.318 333.476 441.582 319.087 468.171 300.775C474.009 296.751 487.844 287.004 509.675 271.533Z" fill="#000F18"/>
<path d="M687.477 621.69C690.978 626.301 694.653 629.105 698.502 630.104C699.721 631.222 701.115 631.722 702.682 631.603C707.04 633.294 711.357 633.953 712.58 639.398C713.075 641.652 712.402 644.452 710.559 647.798C678.059 706.79 628.237 758.481 568.187 790.074C550.589 799.326 532.36 807.974 514.295 811.548C502.706 813.858 485.342 806.805 474.179 801.952C413.235 775.515 361.172 729.817 323.393 675.596C320.918 672.035 317.632 666.921 318.471 662.7C319.75 656.156 327.655 655.208 332.975 653.613C337.301 652.302 340.797 649.53 343.465 645.295C347.69 651.134 351.832 656.986 355.893 662.851C360.686 669.78 364.943 675.545 368.664 680.146C378.691 692.574 386.99 701.937 393.562 708.233C422.295 735.784 457.517 760.544 494.677 774.58C498.71 776.111 503.494 777.201 509.03 777.852C516.206 778.035 523.74 776.266 531.631 772.545C550.677 763.573 568.045 753.693 583.736 742.905C604.11 728.91 622.312 711.368 638.521 693.88C658.033 672.855 674.352 648.792 687.477 621.69Z" fill="#000F18"/>
<path d="M698.501 630.104C700.298 629.829 701.691 630.329 702.681 631.603C701.114 631.722 699.72 631.222 698.501 630.104Z" fill="#C0DBEF"/>
<path d="M281.283 651.771C281.283 655.654 279.74 659.378 276.995 662.124C274.249 664.87 270.525 666.412 266.641 666.412C262.758 666.412 259.034 664.87 256.288 662.124C253.543 659.378 252 655.654 252 651.771C252 647.887 253.543 644.163 256.288 641.418C259.034 638.672 262.758 637.129 266.641 637.129C270.525 637.129 274.249 638.672 276.995 641.418C279.74 644.163 281.283 647.887 281.283 651.771Z" fill="#000F18"/>
<path d="M771.607 655.735C772.84 659.159 772.608 662.952 770.961 666.279C769.315 669.607 766.389 672.196 762.828 673.478C759.268 674.76 755.363 674.63 751.973 673.115C748.584 671.601 745.987 668.827 744.754 665.403C743.522 661.979 743.754 658.187 745.4 654.859C747.047 651.532 749.972 648.942 753.533 647.66C757.094 646.378 760.999 646.509 764.389 648.023C767.778 649.537 770.375 652.312 771.607 655.735Z" fill="#000F18"/>
<path d="M755.954 730.779C755.954 737.642 753.228 744.223 748.376 749.075C743.524 753.927 736.942 756.653 730.08 756.653C726.683 756.653 723.318 755.984 720.179 754.683C717.04 753.383 714.188 751.477 711.785 749.075C709.383 746.672 707.477 743.82 706.176 740.681C704.876 737.542 704.207 734.177 704.207 730.779C704.207 727.382 704.876 724.017 706.176 720.878C707.477 717.739 709.383 714.887 711.785 712.484C714.188 710.082 717.04 708.176 720.179 706.876C723.318 705.575 726.683 704.906 730.08 704.906C736.942 704.906 743.524 707.632 748.376 712.484C753.228 717.336 755.954 723.917 755.954 730.779Z" fill="#000F18"/>
<path d="M316.463 730.862C316.463 737.738 313.732 744.334 308.869 749.196C304.007 754.059 297.411 756.79 290.535 756.79C283.658 756.79 277.063 754.059 272.201 749.196C267.338 744.334 264.606 737.738 264.606 730.862C264.606 723.985 267.338 717.39 272.201 712.528C277.063 707.665 283.658 704.933 290.535 704.933C297.411 704.933 304.007 707.665 308.869 712.528C313.732 717.39 316.463 723.985 316.463 730.862Z" fill="#000F18"/>
<path d="M509.785 312.13C509.85 312.992 509.698 313.634 509.332 314.055C509.039 314.385 508.892 314.77 508.892 315.21L508.961 390.259C508.961 390.553 508.809 390.713 508.507 390.741C508.397 390.75 508.273 390.745 508.136 390.727" stroke="#E0EDF7" stroke-width="2"/>
<path d="M508.134 390.727C463.289 391.414 417.838 410.001 382.713 437.346C374.217 443.959 371.921 456.579 380.926 464.14C386.865 469.131 392.488 468.553 399.086 464.539C401.781 462.908 404.398 461.162 406.936 459.301C411.052 456.277 415.203 453.298 419.392 450.365C435.353 439.147 454.257 431.97 473.38 426.966C485.441 423.813 497.209 422.338 508.684 422.539" stroke="#80878C" stroke-width="2"/>
<path d="M508.685 422.539L509.098 440.26C509.102 440.491 509.014 440.714 508.855 440.882C508.695 441.049 508.476 441.147 508.246 441.154C500.693 441.337 493.169 442.08 485.672 443.381C484.214 443.628 481.786 444.229 478.385 445.182C474.316 446.309 470.082 446.57 466.122 448.11C463.18 449.251 460.568 449.554 457.681 451.148C456.508 451.799 455.266 452.253 453.955 452.51C452.452 452.812 451.178 453.22 450.133 453.733C447.961 454.792 445.459 455.617 443.218 457.046C442.531 457.486 441.454 457.986 439.988 458.545C439.025 458.911 437.802 459.48 436.317 460.25C427.482 464.86 419.673 470.382 412.891 476.816C412.417 477.263 411.789 477.51 411.136 477.505C410.483 477.5 409.856 477.243 409.385 476.788L401.961 469.612C401.915 469.575 401.888 469.561 401.879 469.571L401.631 469.818C401.494 469.956 401.489 470.098 401.617 470.244C404.766 473.722 407.034 477.558 410.306 480.995C412.368 483.181 414.197 486.398 416.575 488.158C417.327 488.708 418.073 489.248 418.816 489.78" stroke="#FFD980" stroke-width="2"/>
<path d="M418.816 489.78C414.582 495.362 413.5 500.829 415.571 506.181C419.325 515.86 429.058 519.53 438.214 513.481C442.265 510.814 446.275 508.115 450.243 505.384C464.514 495.568 480.241 489.624 497.426 487.553C501.23 487.095 505.611 487.017 510.569 487.319" stroke="#80878C" stroke-width="2"/>
<path d="M510.568 487.319C508.341 491.187 507.75 496.388 508.795 502.923C508.838 503.194 508.817 503.47 508.735 503.732C508.653 503.993 508.511 504.231 508.322 504.427C508.132 504.623 507.9 504.772 507.643 504.862C507.386 504.952 507.112 504.98 506.843 504.944C502.622 504.408 498.168 505.879 495.184 506.305C478.385 508.711 462.3 516.547 449.459 527.298C449.248 527.472 449.005 527.602 448.743 527.682C448.482 527.762 448.207 527.789 447.935 527.762C447.663 527.735 447.399 527.655 447.158 527.526C446.917 527.396 446.704 527.221 446.531 527.009L439.904 518.884C439.419 518.279 439.176 518.366 439.176 519.145V519.764C439.185 519.966 439.258 520.14 439.396 520.287C446.059 527.16 450.884 534.14 453.872 541.224" stroke="#FFD980" stroke-width="2"/>
<path d="M453.872 541.224C450.426 548.987 451.095 555.256 455.879 560.031C467.51 571.662 479.374 558.67 491.17 554.629C496.99 552.631 502.947 551.668 509.042 551.742" stroke="#80878C" stroke-width="2"/>
<path d="M509.042 551.742L509.028 586.262" stroke="#E0EDF7" stroke-width="2"/>
<path d="M509.029 586.262C452.402 590.277 453.034 671.389 509.098 673.327" stroke="#80878C" stroke-width="2"/>
<path d="M509.097 673.327C509.161 691.768 509.088 704.292 508.877 710.9C508.712 715.767 508.923 720.693 509.51 725.679" stroke="#E0EDF7" stroke-width="2"/>
<path d="M581.19 516.245C561.229 498.088 537.688 488.447 510.568 487.319" stroke="#80610D" stroke-width="2"/>
<path d="M610.459 477.819C599.15 468.709 589.879 462.229 582.648 458.38C560.248 446.456 536.203 440.664 510.513 441.003C510.207 441.007 509.911 441.11 509.67 441.296C509.43 441.482 509.257 441.741 509.179 442.034C508.602 444.087 508.249 446.167 508.121 448.275C507.983 450.392 508.643 452.853 508.478 455.355" stroke="#FAA501" stroke-width="2"/>
<path d="M508.478 455.355C476.308 455.328 443.107 469.378 418.814 489.78" stroke="#80610D" stroke-width="2"/>
<path d="M619.698 466.409C611.752 460.085 603.531 453.114 595.461 448.014C569.23 431.434 540.305 422.943 508.685 422.539" stroke="#80610D" stroke-width="2"/>
<path d="M571.251 530.267C566.852 525.868 562.961 521.194 557.545 517.894C544.457 509.921 527.395 504.105 511.833 505.535C511.154 505.597 510.517 505.891 510.031 506.368C509.545 506.844 509.239 507.472 509.166 508.147C508.955 510.09 508.653 512.368 508.259 514.98C508.084 516.125 509.061 517.816 511.187 520.053" stroke="#FAA501" stroke-width="2"/>
<path d="M511.187 520.053C491.537 519.851 473.696 525.249 457.666 536.248C456.805 536.843 456.09 537.595 455.522 538.502C454.651 539.886 454.101 540.794 453.872 541.224" stroke="#80610D" stroke-width="2"/>
<path d="M509.097 673.327C530.25 672.402 543.975 661.843 550.272 641.652C553.269 632.029 553.04 622.932 549.584 614.363C542.371 596.482 528.853 587.115 509.028 586.262" stroke="#607584" stroke-width="2"/>
<path d="M509.042 551.741C523.697 551.576 532.303 556.347 543.851 562.602C551.22 566.589 559.579 565.118 564.72 558.684C569.546 552.635 567.855 544.854 563.758 538.379" stroke="#607584" stroke-width="2"/>
<path d="M563.759 538.379C566.673 536.582 569.171 533.879 571.251 530.267" stroke="#DAB978" stroke-width="2"/>
<path d="M571.25 530.267C573.047 528.599 574.49 526.455 575.581 523.833C575.746 523.43 576.012 523.096 576.378 522.83C577.607 521.941 578.427 521.043 578.839 520.135C579.756 518.064 580.539 516.767 581.19 516.245" stroke="#E0C778" stroke-width="2"/>
<path d="M581.191 516.245C589.302 517.684 595.278 516.446 599.118 512.533C605.873 505.631 606.093 497.965 599.778 489.533" stroke="#607584" stroke-width="2"/>
<path d="M599.777 489.533L610.459 477.819" stroke="#DAB978" stroke-width="2"/>
<path d="M610.46 477.819L619.698 466.409" stroke="#E0C778" stroke-width="2"/>
<path d="M619.699 466.409C625.244 468.838 630.093 469.044 634.245 467.027C642.081 463.219 646.013 453.733 642.15 445.567C638.754 438.404 630.34 432.575 622.586 427.296C588.199 403.842 550.048 391.653 508.136 390.727" stroke="#607584" stroke-width="2"/>
<path d="M599.778 489.533C597.359 486.774 594.288 484.139 590.567 481.628C566.096 465.103 538.903 455.41 508.479 455.355" stroke="#7A530C" stroke-width="2"/>
<path d="M563.759 538.379C550.657 525.896 528.509 520.245 511.187 520.053" stroke="#7A530C" stroke-width="2"/>
<path d="M509.785 312.13C509.849 312.992 509.698 313.633 509.331 314.055C509.038 314.385 508.892 314.77 508.892 315.21L508.96 390.259C508.96 390.552 508.809 390.713 508.507 390.74C508.397 390.75 508.273 390.745 508.135 390.727C463.29 391.414 417.84 410.001 382.714 437.346C374.218 443.958 371.922 456.579 380.927 464.14C386.866 469.131 392.489 468.553 399.088 464.539C401.782 462.907 404.399 461.161 406.938 459.301C411.053 456.276 415.205 453.298 419.393 450.365C435.354 439.146 454.258 431.97 473.381 426.966C485.442 423.813 497.21 422.337 508.685 422.539L509.098 440.26C509.101 440.491 509.014 440.714 508.855 440.882C508.695 441.049 508.476 441.146 508.245 441.154C500.693 441.337 493.169 442.079 485.671 443.381C484.214 443.628 481.785 444.229 478.385 445.182C474.316 446.309 470.081 446.57 466.122 448.11C463.18 449.251 460.568 449.554 457.681 451.148C456.508 451.799 455.266 452.253 453.955 452.509C452.452 452.812 451.178 453.22 450.133 453.733C447.961 454.792 445.459 455.616 443.218 457.046C442.531 457.486 441.454 457.986 439.987 458.545C439.025 458.911 437.801 459.48 436.317 460.249C427.481 464.86 419.673 470.382 412.89 476.816C412.417 477.263 411.789 477.51 411.136 477.505C410.483 477.5 409.856 477.243 409.385 476.788L401.961 469.612C401.915 469.575 401.888 469.561 401.878 469.57L401.631 469.818C401.493 469.955 401.489 470.097 401.617 470.244C404.765 473.722 407.034 477.558 410.306 480.995C412.368 483.181 414.196 486.398 416.575 488.158C417.326 488.707 418.073 489.248 418.816 489.78C414.581 495.361 413.5 500.828 415.571 506.181C419.324 515.859 429.058 519.53 438.214 513.481C442.265 510.814 446.275 508.115 450.243 505.384C464.513 495.568 480.241 489.624 497.426 487.553C501.229 487.094 505.61 487.016 510.569 487.319C508.342 491.187 507.75 496.388 508.795 502.923C508.838 503.193 508.818 503.47 508.735 503.731C508.653 503.992 508.512 504.231 508.322 504.427C508.133 504.623 507.9 504.772 507.643 504.862C507.387 504.951 507.113 504.979 506.843 504.944C502.623 504.407 498.168 505.878 495.185 506.305C478.385 508.711 462.3 516.547 449.46 527.298C449.249 527.472 449.005 527.602 448.744 527.682C448.482 527.761 448.208 527.789 447.936 527.762C447.663 527.735 447.399 527.655 447.158 527.525C446.917 527.396 446.704 527.221 446.531 527.009L439.905 518.884C439.419 518.279 439.176 518.366 439.176 519.145V519.764C439.185 519.965 439.259 520.14 439.396 520.286C446.059 527.16 450.885 534.139 453.873 541.224C450.427 548.987 451.096 555.256 455.88 560.031C467.511 571.662 479.375 558.67 491.171 554.628C496.99 552.63 502.948 551.668 509.043 551.741L509.029 586.262C452.402 590.276 453.034 671.389 509.098 673.327C509.162 691.768 509.089 704.292 508.878 710.9C508.713 715.767 508.924 720.693 509.51 725.679C483.298 715.203 459.848 700.598 439.162 681.865C372.678 621.677 342.378 528.934 341.278 441.085C341.049 423.231 340.879 405.4 340.769 387.592C340.765 387.388 340.834 387.19 340.962 387.031C341.09 386.873 341.27 386.765 341.47 386.726C365.877 381.969 389.643 375.095 412.767 366.104C446.628 352.948 478.523 334.113 508.108 312.24C508.649 311.846 509.208 311.809 509.785 312.13Z" fill="white"/>
<path d="M509.785 312.13C515.101 315.714 520.371 319.284 525.595 322.84C562.687 348.108 603.12 368.331 646.301 380.086C654.413 382.294 664.641 384.856 676.987 387.771C677.445 387.881 677.674 388.165 677.674 388.623C677.537 419.762 678.801 450.172 674.416 481.985C672.143 498.519 668.981 514.883 664.93 531.078C658.303 557.593 648.707 583.462 636.142 608.685C629.79 621.443 622.738 632.097 613.884 643.948C591.558 673.836 563.718 697.826 530.366 715.918C523.373 719.712 516.421 722.966 509.511 725.679C508.924 720.693 508.713 715.767 508.878 710.9C509.089 704.292 509.162 691.767 509.098 673.327C530.251 672.401 543.976 661.843 550.273 641.652C553.27 632.029 553.041 622.932 549.585 614.363C542.372 596.481 528.854 587.114 509.029 586.262L509.043 551.741C523.698 551.576 532.304 556.347 543.853 562.602C551.221 566.589 559.58 565.118 564.722 558.684C569.547 552.635 567.856 544.854 563.759 538.378C566.674 536.582 569.172 533.878 571.252 530.267C573.048 528.599 574.492 526.454 575.583 523.833C575.748 523.43 576.013 523.095 576.38 522.829C577.608 521.94 578.428 521.042 578.841 520.135C579.757 518.064 580.541 516.767 581.192 516.244C589.303 517.683 595.279 516.446 599.119 512.532C605.874 505.631 606.094 497.964 599.779 489.532L610.461 477.819L619.699 466.408C625.244 468.837 630.093 469.043 634.245 467.027C642.081 463.219 646.013 453.733 642.15 445.567C638.754 438.404 630.34 432.575 622.586 427.296C588.199 403.842 550.048 391.652 508.136 390.727C508.273 390.745 508.397 390.749 508.507 390.74C508.809 390.713 508.961 390.552 508.961 390.259L508.892 315.21C508.892 314.77 509.039 314.385 509.332 314.055C509.698 313.633 509.85 312.992 509.785 312.13Z" fill="#C0DBEF"/>
<path d="M508.134 390.727C550.047 391.652 588.197 403.842 622.585 427.296C630.339 432.575 638.753 438.404 642.148 445.567C646.011 453.733 642.079 463.219 634.243 467.027C630.091 469.043 625.243 468.837 619.698 466.408C611.752 460.084 603.531 453.114 595.461 448.014C569.23 431.434 540.304 422.942 508.684 422.539C497.209 422.337 485.441 423.813 473.38 426.966C454.257 431.97 435.353 439.146 419.392 450.365C415.203 453.298 411.052 456.276 406.936 459.301C404.398 461.161 401.781 462.907 399.086 464.539C392.488 468.553 386.865 469.13 380.926 464.14C371.921 456.579 374.217 443.958 382.713 437.345C417.838 410.001 463.289 391.414 508.134 390.727Z" fill="#000F18"/>
<path d="M508.685 422.539C540.306 422.942 569.231 431.434 595.462 448.014C603.532 453.114 611.753 460.084 619.699 466.408L610.461 477.819C599.151 468.709 589.88 462.229 582.649 458.38C560.249 446.456 536.204 440.663 510.514 441.002C510.208 441.006 509.912 441.109 509.672 441.296C509.431 441.482 509.258 441.741 509.18 442.033C508.603 444.087 508.25 446.167 508.122 448.275C507.984 450.392 508.644 452.853 508.479 455.355C476.309 455.328 443.108 469.378 418.816 489.78C418.073 489.248 417.327 488.707 416.575 488.157C414.197 486.398 412.368 483.181 410.306 480.995C407.034 477.558 404.766 473.722 401.617 470.244C401.489 470.097 401.494 469.955 401.631 469.818L401.879 469.57C401.888 469.561 401.915 469.575 401.961 469.612L409.385 476.788C409.856 477.243 410.483 477.5 411.136 477.505C411.789 477.51 412.417 477.263 412.891 476.816C419.673 470.382 427.482 464.859 436.317 460.249C437.802 459.48 439.025 458.911 439.988 458.545C441.454 457.986 442.531 457.486 443.218 457.046C445.459 455.616 447.961 454.792 450.133 453.733C451.178 453.22 452.452 452.812 453.955 452.509C455.266 452.253 456.508 451.799 457.681 451.148C460.568 449.554 463.18 449.251 466.122 448.11C470.082 446.57 474.316 446.309 478.385 445.182C481.786 444.229 484.214 443.628 485.672 443.381C493.169 442.079 500.693 441.337 508.246 441.154C508.476 441.146 508.695 441.049 508.855 440.881C509.014 440.714 509.102 440.491 509.098 440.26L508.685 422.539Z" fill="#FFB301"/>
<path d="M610.459 477.819L599.777 489.532C597.358 486.773 594.287 484.138 590.566 481.627C566.095 465.102 538.902 455.41 508.478 455.355C508.643 452.853 507.983 450.392 508.121 448.275C508.249 446.167 508.602 444.086 509.179 442.033C509.257 441.741 509.43 441.482 509.67 441.295C509.911 441.109 510.207 441.006 510.513 441.002C536.203 440.663 560.248 446.456 582.648 458.38C589.879 462.229 599.15 468.709 610.459 477.819Z" fill="#F49700"/>
<path d="M508.478 455.355C538.902 455.41 566.095 465.102 590.567 481.627C594.288 484.139 597.358 486.774 599.778 489.532C606.093 497.964 605.873 505.631 599.118 512.532C595.278 516.446 589.302 517.683 581.191 516.244C561.229 498.088 537.688 488.446 510.568 487.319C505.61 487.016 501.229 487.094 497.425 487.553C480.24 489.624 464.513 495.568 450.242 505.384C446.274 508.115 442.264 510.814 438.213 513.481C429.057 519.53 419.324 515.859 415.57 506.181C413.499 500.828 414.581 495.361 418.815 489.78C443.107 469.378 476.308 455.328 508.478 455.355Z" fill="#000F18"/>
<path d="M510.568 487.319C537.688 488.446 561.229 498.088 581.191 516.244C580.54 516.767 579.757 518.064 578.84 520.135C578.428 521.042 577.607 521.941 576.379 522.83C576.013 523.095 575.747 523.43 575.582 523.833C574.491 526.454 573.048 528.599 571.251 530.267C566.852 525.868 562.961 521.194 557.545 517.894C544.457 509.92 527.396 504.105 511.833 505.535C511.154 505.597 510.518 505.891 510.031 506.367C509.545 506.843 509.24 507.472 509.166 508.147C508.955 510.09 508.653 512.367 508.259 514.98C508.085 516.125 509.061 517.816 511.187 520.052C491.537 519.851 473.697 525.249 457.667 536.247C456.805 536.843 456.09 537.595 455.522 538.502C454.651 539.886 454.101 540.793 453.872 541.224C450.884 534.139 446.059 527.16 439.396 520.286C439.258 520.14 439.185 519.965 439.176 519.764V519.145C439.176 518.366 439.419 518.279 439.904 518.884L446.531 527.009C446.704 527.221 446.917 527.396 447.158 527.525C447.399 527.655 447.663 527.735 447.935 527.762C448.207 527.788 448.482 527.761 448.743 527.682C449.005 527.602 449.248 527.472 449.459 527.298C462.3 516.547 478.385 508.711 495.184 506.305C498.168 505.878 502.622 504.407 506.843 504.944C507.112 504.979 507.386 504.951 507.643 504.862C507.9 504.772 508.132 504.623 508.322 504.427C508.511 504.23 508.653 503.992 508.735 503.731C508.817 503.47 508.838 503.193 508.795 502.923C507.75 496.388 508.341 491.187 510.568 487.319Z" fill="#FFB301"/>
<path d="M571.251 530.267C569.171 533.878 566.673 536.582 563.759 538.378C550.657 525.895 528.509 520.245 511.187 520.052C509.061 517.816 508.084 516.125 508.259 514.979C508.653 512.367 508.955 510.09 509.166 508.147C509.239 507.472 509.545 506.843 510.031 506.367C510.517 505.891 511.154 505.597 511.833 505.535C527.395 504.105 544.457 509.92 557.545 517.894C562.961 521.193 566.852 525.868 571.251 530.267Z" fill="#F49700"/>
<path d="M511.187 520.053C528.509 520.245 550.657 525.895 563.758 538.378C567.855 544.854 569.546 552.635 564.721 558.684C559.579 565.118 551.22 566.589 543.851 562.602C532.303 556.347 523.697 551.576 509.042 551.741C502.947 551.668 496.99 552.63 491.17 554.628C479.374 558.67 467.51 571.662 455.879 560.031C451.095 555.256 450.426 548.987 453.872 541.224C454.101 540.793 454.651 539.886 455.522 538.502C456.09 537.595 456.805 536.843 457.666 536.247C473.696 525.249 491.536 519.851 511.187 520.053Z" fill="#000F18"/>
<path d="M509.029 586.262C528.853 587.114 542.372 596.481 549.585 614.363C553.04 622.932 553.269 632.029 550.272 641.652C543.976 661.843 530.251 672.401 509.098 673.327C453.034 671.389 452.402 590.276 509.029 586.262Z" fill="#000F18"/>
<path d="M511.173 617.662C509.432 617.827 508.561 618.166 508.561 618.68" stroke="#156B9B" stroke-width="2"/>
<path d="M508.562 618.68C508.002 618.368 507.42 618.327 506.816 618.556C503.479 619.848 500.675 622.153 498.402 625.471" stroke="#738EA3" stroke-width="2"/>
<path d="M506.485 641.364C508.263 640.795 509.079 639.356 508.932 637.047C508.547 630.956 508.795 624.825 508.561 618.68" stroke="#63B8E8" stroke-width="2"/>
<path d="M511.174 617.662C509.432 617.827 508.562 618.166 508.562 618.68C508.002 618.368 507.42 618.327 506.816 618.556C503.479 619.848 500.675 622.153 498.402 625.471C498.704 623.097 500.34 620.989 503.31 619.147C503.97 619.184 504.382 618.913 504.547 618.336C504.618 618.079 504.781 617.863 505.001 617.731C506.898 616.558 508.956 616.535 511.174 617.662Z" fill="#254156"/>
<path d="M511.173 617.662C528.798 622.254 521.388 646.354 506.485 641.363C508.263 640.795 509.079 639.356 508.932 637.047C508.547 630.956 508.795 624.825 508.561 618.68C508.561 618.166 509.432 617.827 511.173 617.662Z" fill="#0594E0"/>
<path d="M508.561 618.68C508.795 624.825 508.548 630.956 508.933 637.047C509.079 639.356 508.264 640.795 506.485 641.364C498.365 638.376 495.671 633.078 498.402 625.471C500.675 622.153 503.479 619.848 506.815 618.556C507.42 618.327 508.002 618.368 508.561 618.68Z" fill="#C0DBEF"/>
</svg>
