<svg width="1024" height="1024" viewBox="0 0 1024 1024" fill="none" xmlns="http://www.w3.org/2000/svg">
<rect width="1024" height="1024" fill="white"/>
<path d="M305.433 345.594L283.646 345.982C282.569 345.999 281.956 346.545 281.806 347.621C281.764 347.964 281.727 348.627 281.693 349.611C280.279 392.284 286.524 436.271 295.171 477.955C296.89 486.265 298.892 494.361 301.178 502.245C310.551 534.644 321.951 566.63 338.395 596.326C338.585 596.67 338.878 596.945 339.232 597.113C339.587 597.282 339.985 597.335 340.372 597.265L354.563 594.649C354.657 594.63 354.746 594.589 354.822 594.529C354.898 594.469 354.958 594.391 354.998 594.304C355.039 594.216 355.058 594.12 355.054 594.023C355.05 593.927 355.023 593.832 354.976 593.748C335.504 560.085 323.403 521.88 317.934 483.499C313.867 454.955 310.488 426.848 310.676 397.941C310.739 388.155 315.118 384.263 324.567 383.374C345.69 381.389 365.175 376.671 383.02 369.221C425.893 351.313 467.74 326.736 507.084 299.117C510.188 296.927 513.617 295.663 516.758 297.853C552.911 323.131 590.791 346.358 630.26 364.878C651.192 374.706 673.041 380.563 695.809 382.448" stroke="#405969" stroke-width="2"/>
<path d="M695.809 382.448C703.142 383.136 708.561 382.223 713.842 388.217C716.32 391.033 716.507 394.111 716.47 397.778C716.053 437.039 711.297 475.311 702.204 512.594C698.341 528.454 693.473 543.98 687.6 559.172C683.107 570.785 677.363 582.223 671.482 593.41C671.411 593.544 671.373 593.692 671.37 593.843C671.367 593.994 671.4 594.144 671.466 594.281C671.531 594.418 671.628 594.538 671.748 594.633C671.868 594.727 672.008 594.793 672.157 594.824L686.186 597.69C686.67 597.791 687.174 597.727 687.618 597.509C688.062 597.292 688.421 596.933 688.638 596.489C694.145 585.335 699.238 574.143 703.918 562.914C713.404 540.15 720.537 515.998 726.906 492.184C731.437 475.202 733.777 457.345 736.918 439.963C742.261 410.38 744.376 378.494 744.076 347.534C744.074 347.37 744.04 347.208 743.976 347.058C743.912 346.907 743.82 346.771 743.703 346.657C743.587 346.543 743.449 346.453 743.298 346.393C743.148 346.333 742.986 346.304 742.824 346.308L725.23 346.558" stroke="#1A394B" stroke-width="2"/>
<path d="M695.296 643.466C694.662 643.283 694.278 643.108 694.144 642.941C676.249 621.292 647.154 612.244 621.1 623.406C620.86 623.508 620.655 623.676 620.506 623.891C620.358 624.105 620.273 624.358 620.261 624.62L619.485 640.063" stroke="#805B0F" stroke-width="2"/>
<path d="M619.486 640.063C617.133 649.565 611.139 654.508 601.503 654.892C599.484 654.975 597.524 654.212 595.621 652.602C595.38 652.393 595.213 652.443 595.121 652.752L588 675.703C587.951 675.859 587.938 676.025 587.96 676.188C587.983 676.35 588.041 676.506 588.131 676.643C588.22 676.781 588.339 676.897 588.479 676.983C588.619 677.069 588.776 677.123 588.939 677.142C597.561 678.105 603.193 686.302 603.218 694.599C603.23 698.403 601.165 702.057 599.576 705.574" stroke="#80888D" stroke-width="2"/>
<path d="M599.576 705.574C591.041 715.472 579.078 714.859 569.142 706.612" stroke="#805B0F" stroke-width="2"/>
<path d="M569.142 706.612L565.05 700.155C564.174 698.762 563.098 698.583 561.821 699.617C550.709 708.636 539.5 717.183 528.196 725.258C524.629 727.799 520.762 730.965 516.67 732.592C515.352 733.117 514.126 733.568 512.991 733.943" stroke="#1A394B" stroke-width="2"/>
<path d="M512.991 733.943C501.19 728.837 488.914 718.263 480.004 711.543C474.936 707.714 469.242 702.395 463.585 698.115C463.487 698.04 463.373 697.986 463.253 697.957C463.132 697.929 463.006 697.926 462.884 697.95C462.762 697.974 462.647 698.023 462.546 698.095C462.444 698.166 462.359 698.259 462.296 698.366L457.065 707.201" stroke="#405969" stroke-width="2"/>
<path d="M457.066 707.201C448.606 714.375 440.239 715.164 431.963 709.566C431.153 709.015 429.526 707.426 427.082 704.798" stroke="#805B0F" stroke-width="2"/>
<path d="M427.082 704.798C420.512 694.236 424.241 679.344 437.369 676.979C437.811 676.896 438.032 676.633 438.032 676.191C438.015 674.731 437.848 673.279 437.531 671.836C436.221 665.854 434.937 659.843 433.677 653.803C433.585 653.378 433.322 653.165 432.888 653.165C432.213 653.165 431.612 653.382 431.086 653.816C430.769 654.074 430.407 654.245 429.998 654.329C418.285 656.706 411.64 650.399 407.422 640.476" stroke="#80888D" stroke-width="2"/>
<path d="M407.423 640.476L407.285 624.808C407.284 624.503 407.191 624.204 407.017 623.952C406.843 623.699 406.596 623.505 406.309 623.394C393.97 618.551 380.73 617.149 367.803 620.228C353.453 623.648 341.49 631.516 331.913 643.829" stroke="#805B0F" stroke-width="2"/>
<path d="M712.841 366.443C711.014 370.097 708.815 372.821 706.246 374.614C702.809 377.017 699.33 379.628 695.809 382.448" stroke="#5A8299" stroke-width="2"/>
<path d="M512.991 733.943L512.903 772.011" stroke="#5A8299" stroke-width="2"/>
<path d="M512.904 772.011C496.453 758.312 481.844 745.577 469.08 733.805C464.091 729.2 458.339 723.444 451.823 716.536" stroke="#405969" stroke-width="2"/>
<path d="M451.823 716.536C454.309 713.741 456.057 710.629 457.067 707.201" stroke="#BFA45D" stroke-width="2"/>
<path d="M569.142 706.612L575.073 717.074" stroke="#9A843F" stroke-width="2"/>
<path d="M575.073 717.074C554.759 737.672 534.999 755.763 515.794 771.348C514.451 772.441 513.487 772.662 512.903 772.011" stroke="#1A394B" stroke-width="2"/>
<path d="M694.783 677.367C695.659 680.537 697.352 683.078 699.863 684.988C700.155 685.213 700.301 685.514 700.301 685.889L700.026 698.891C700.018 699.308 699.851 699.646 699.526 699.905L691.154 706.375C690.837 706.617 690.443 706.736 690.045 706.711C689.647 706.686 689.272 706.517 688.989 706.237C685.109 702.383 676.249 691.808 670.906 697.803C666.568 702.666 662.334 707.564 658.204 712.494C657.957 712.785 657.827 713.158 657.838 713.541C657.85 713.925 658.002 714.291 658.267 714.571C661.687 718.184 665.245 721.767 668.941 725.321C670.23 726.56 671.231 728.237 672.533 729.663C672.858 730.022 672.941 730.431 672.783 730.89L669.78 739.399C669.638 739.808 669.35 740.013 668.916 740.013L657.854 739.987C657.42 739.987 657.153 739.775 657.053 739.349C655.393 732.508 651.146 727.916 644.313 725.571" stroke="#80888D" stroke-width="2"/>
<path d="M644.313 725.571C641.422 720.641 636.054 721.817 630.673 722.405C617.708 723.832 608.61 713.558 599.575 705.574" stroke="#FFD381" stroke-width="2"/>
<path d="M451.822 716.536C444.764 725.809 440.347 731.077 432.087 737.76" stroke="#805B0F" stroke-width="2"/>
<path d="M594.244 738.11C586.627 732.788 580.237 725.776 575.073 717.074" stroke="#805B0F" stroke-width="2"/>
<path d="M407.423 640.476C404.607 640.125 401.441 638.836 399.339 638.361C372.784 632.304 349.02 651.012 346.53 677.642C346.498 677.979 346.336 678.29 346.079 678.509C345.823 678.729 345.49 678.84 345.153 678.819L330.036 677.905" stroke="#FFD381" stroke-width="2"/>
<path d="M330.035 677.905C332.2 670.222 330.173 663.864 324.041 658.621" stroke="#805B0F" stroke-width="2"/>
<path d="M702.066 657.933C695.822 663.276 693.281 669.321 694.783 677.367" stroke="#805B0F" stroke-width="2"/>
<path d="M694.783 677.367C689.819 678.31 684.742 678.418 679.553 677.692C679.28 677.654 679.029 677.521 678.846 677.317C678.663 677.113 678.558 676.851 678.552 676.579C678.402 669.22 676.187 663.752 672.282 656.331C671.423 654.712 668.557 651.521 663.685 646.758C658.592 641.777 649.669 638.411 642.236 637.823C634.803 637.239 627.219 637.985 619.485 640.063" stroke="#FFD381" stroke-width="2"/>
<path d="M427.082 704.798C421.589 710.78 415.644 716.611 408.136 719.827C401.716 722.568 395.634 722.293 388.389 722.105C384.559 721.996 381.481 723.315 379.153 726.059" stroke="#FFD381" stroke-width="2"/>
<path d="M379.153 726.059C373.505 728.979 370.034 733.443 368.741 739.449C368.657 739.841 368.416 740.038 368.015 740.038H356.352C355.952 740.038 355.68 739.854 355.539 739.487L351.859 730.176C351.778 729.964 351.761 729.734 351.81 729.513C351.859 729.293 351.972 729.093 352.135 728.938L366.589 715.072C366.965 714.711 367.19 714.221 367.218 713.7C367.246 713.179 367.074 712.668 366.739 712.269C363.418 708.323 360.023 704.206 356.552 699.917C353.324 695.925 349.044 693.836 344.601 697.853C341.548 700.622 338.574 703.509 335.679 706.512C335.452 706.746 335.142 706.881 334.817 706.888C334.491 706.895 334.176 706.773 333.939 706.55C331.144 703.872 327.999 701.711 324.504 700.068C324.162 699.901 323.982 699.63 323.966 699.254L323.49 686.978C323.473 686.569 323.615 686.227 323.916 685.952C326.427 683.632 328.466 680.95 330.035 677.905" stroke="#80888D" stroke-width="2"/>
<path d="M666.063 794.686C666.255 789.489 668.324 784.905 672.27 780.933C673.271 779.932 674.335 779.482 675.624 778.981C675.724 778.942 675.814 778.882 675.89 778.807C675.966 778.731 676.026 778.641 676.066 778.541C676.106 778.441 676.125 778.335 676.122 778.228C676.119 778.12 676.094 778.015 676.049 777.918L672.02 769.07C671.913 768.845 671.742 768.657 671.528 768.53C671.314 768.403 671.067 768.343 670.819 768.357C664.545 768.724 658.167 768.878 651.685 768.82C643.125 768.732 643.238 765.829 638.382 760.473C638.099 760.165 637.718 759.966 637.306 759.91C630.386 758.971 623.54 754.804 622.439 747.433C620.324 733.405 630.974 724.608 644.314 725.571" stroke="#805B0F" stroke-width="2"/>
<path d="M379.154 726.059C388.231 724.049 395.068 726.172 399.665 732.429C407.786 743.479 401.617 760.636 386.437 759.359C386.234 759.342 386.032 759.394 385.863 759.508C385.695 759.622 385.571 759.79 385.511 759.985C383.571 766.304 379.467 768.482 372.759 768.507C366.961 768.54 361.155 768.549 355.34 768.532C354.955 768.532 354.576 768.632 354.24 768.823C353.905 769.014 353.624 769.289 353.425 769.621L348.332 778.305C348.315 778.335 348.304 778.367 348.301 778.401C348.298 778.434 348.301 778.468 348.312 778.5C348.323 778.532 348.34 778.561 348.363 778.586C348.386 778.611 348.413 778.63 348.444 778.643C355.886 781.638 359.561 787.095 359.469 795.012" stroke="#805B0F" stroke-width="2"/>
<path d="M305.433 345.594L283.646 345.982C282.57 345.999 281.957 346.545 281.807 347.621C281.765 347.963 281.728 348.627 281.694 349.611C280.28 392.284 286.525 436.271 295.172 477.955C296.89 486.265 298.893 494.361 301.179 502.245C310.552 534.644 321.952 566.63 338.395 596.326C338.585 596.67 338.878 596.945 339.233 597.113C339.588 597.282 339.986 597.334 340.373 597.264L354.564 594.649C354.658 594.63 354.747 594.589 354.823 594.529C354.899 594.468 354.959 594.391 354.999 594.304C355.04 594.216 355.058 594.12 355.054 594.023C355.051 593.927 355.024 593.832 354.977 593.748C335.505 560.085 323.404 521.88 317.935 483.499C313.868 454.955 310.489 426.848 310.677 397.94C310.739 388.154 315.119 384.263 324.567 383.374C345.691 381.389 365.176 376.671 383.021 369.221C425.894 351.313 467.741 326.735 507.085 299.117C510.188 296.927 513.617 295.663 516.758 297.853C552.912 323.131 590.792 346.357 630.261 364.878C651.193 374.706 673.042 380.563 695.81 382.448C703.143 383.136 708.562 382.223 713.842 388.217C716.32 391.033 716.508 394.111 716.47 397.778C716.053 437.039 711.298 475.311 702.204 512.594C698.342 528.454 693.474 543.98 687.6 559.172C683.108 570.785 677.364 582.223 671.482 593.41C671.412 593.544 671.374 593.692 671.371 593.843C671.368 593.994 671.401 594.144 671.466 594.281C671.532 594.418 671.628 594.538 671.748 594.633C671.868 594.727 672.009 594.792 672.158 594.824L686.186 597.69C686.67 597.79 687.174 597.727 687.618 597.509C688.063 597.292 688.422 596.933 688.639 596.489C694.145 585.334 699.239 574.143 703.919 562.913C713.404 540.15 720.537 515.998 726.907 492.184C731.437 475.202 733.777 457.345 736.918 439.963C742.262 410.379 744.377 378.494 744.076 347.534C744.075 347.37 744.041 347.208 743.977 347.058C743.913 346.907 743.82 346.771 743.704 346.657C743.588 346.543 743.45 346.453 743.299 346.393C743.148 346.333 742.987 346.304 742.825 346.307L725.23 346.558C718.965 346.04 712.737 345.536 706.547 345.044C686.437 343.442 666.739 338.198 647.806 331.391C641.073 328.988 636.143 324.495 636.568 316.749C636.835 311.869 638.608 308.14 641.887 305.562C646.667 301.832 651.823 302.946 657.817 304.986C675.987 311.18 691.517 314.472 710.939 316.011C725.03 317.137 741.753 317.104 761.108 315.911C763.844 315.744 765.963 316.128 767.465 317.062C770.585 319.006 772.112 322.134 772.045 326.448C771.929 333.939 771.908 352.606 771.983 382.448C771.983 384.275 771.82 387.295 771.495 391.508C765.726 466.48 749.32 538.173 716.283 607.501C711.678 617.187 705.658 627.048 700.215 636.784C699.038 638.886 697.399 641.114 695.297 643.466C694.663 643.283 694.279 643.108 694.145 642.941C676.25 621.292 647.155 612.244 621.101 623.406C620.861 623.508 620.656 623.676 620.507 623.891C620.359 624.105 620.274 624.358 620.262 624.62L619.486 640.063C617.134 649.565 611.139 654.508 601.504 654.892C599.485 654.975 597.524 654.212 595.622 652.602C595.38 652.393 595.213 652.443 595.122 652.752L588.001 675.703C587.952 675.859 587.938 676.025 587.961 676.188C587.983 676.35 588.041 676.506 588.131 676.643C588.221 676.781 588.34 676.897 588.48 676.983C588.619 677.069 588.776 677.123 588.94 677.142C597.562 678.105 603.193 686.302 603.218 694.599C603.231 698.403 601.166 702.057 599.577 705.574C591.042 715.472 579.078 714.859 569.142 706.612L565.05 700.155C564.174 698.762 563.098 698.583 561.822 699.617C550.709 708.636 539.501 717.183 528.196 725.258C524.63 727.799 520.763 730.965 516.671 732.592C515.353 733.117 514.126 733.568 512.992 733.943C501.191 728.837 488.915 718.263 480.005 711.543C474.936 707.714 469.243 702.395 463.586 698.115C463.488 698.04 463.374 697.986 463.253 697.957C463.133 697.929 463.007 697.926 462.885 697.95C462.763 697.974 462.648 698.023 462.546 698.095C462.445 698.166 462.36 698.259 462.297 698.366L457.066 707.201C448.607 714.375 440.239 715.164 431.963 709.566C431.154 709.015 429.527 707.426 427.083 704.798C420.513 694.236 424.242 679.344 437.369 676.979C437.811 676.896 438.032 676.633 438.032 676.191C438.016 674.731 437.849 673.279 437.532 671.836C436.222 665.854 434.937 659.843 433.678 653.803C433.586 653.378 433.323 653.165 432.889 653.165C432.213 653.165 431.613 653.382 431.087 653.816C430.77 654.074 430.407 654.245 429.998 654.329C418.285 656.706 411.64 650.399 407.423 640.476L407.285 624.808C407.285 624.502 407.192 624.204 407.017 623.952C406.843 623.699 406.596 623.505 406.309 623.394C393.97 618.551 380.731 617.149 367.803 620.228C353.454 623.648 341.491 631.515 331.913 643.829C323.287 631.415 315.87 618.83 309.663 606.074C298.263 582.686 288.064 558.458 280.243 533.618C266.561 490.169 257.955 445.715 254.426 400.256C252.612 376.967 253.475 352.827 253.6 329.313C253.638 323.181 254.338 318.376 260.245 316.236C262.581 315.394 265.463 315.097 268.892 315.348C281.732 316.274 294.584 316.557 307.448 316.199C346.943 315.085 383.984 298.416 417.322 278.331C447.28 260.286 475.475 239.809 501.904 216.899C506.947 212.532 511.978 210.004 518.335 213.996C521.072 215.715 525.205 218.802 530.737 223.257C544.239 234.131 558.268 244.355 572.183 254.692C586.599 265.404 600.603 274.614 615.332 283.8C628.421 291.971 620.25 311.518 605.859 309.979C603.94 309.771 601.504 308.778 598.55 307.001C582.466 297.307 566.773 287.028 551.472 276.166C539.972 268.007 526.081 256.707 513.204 247.184C512.846 246.925 512.491 246.933 512.141 247.209C497.75 258.571 488.376 265.859 484.022 269.071C453.174 291.859 425.005 308.978 391.367 324.383C363.799 337.009 335.88 344.268 305.433 345.594Z" fill="#00101B"/>
<path d="M658.467 253.203C658.467 256.721 657.07 260.095 654.582 262.583C652.094 265.07 648.72 266.468 645.202 266.468C641.684 266.468 638.31 265.07 635.823 262.583C633.335 260.095 631.937 256.721 631.938 253.203C631.937 249.685 633.335 246.311 635.823 243.823C638.31 241.335 641.684 239.938 645.202 239.938C648.72 239.938 652.094 241.335 654.582 243.823C657.07 246.311 658.467 249.685 658.467 253.203Z" fill="#FF653B"/>
<path d="M399.576 253.391C399.576 256.955 398.16 260.374 395.639 262.894C393.119 265.415 389.7 266.831 386.136 266.831C382.571 266.831 379.153 265.415 376.632 262.894C374.112 260.374 372.696 256.955 372.696 253.391C372.696 249.826 374.112 246.407 376.632 243.887C379.153 241.366 382.571 239.95 386.136 239.95C389.7 239.95 393.119 241.366 395.639 243.887C398.16 246.407 399.576 249.826 399.576 253.391Z" fill="#FF653B"/>
<path d="M278.455 268.588C278.751 270.697 278.624 272.844 278.081 274.908C277.538 276.971 276.589 278.91 275.289 280.613C273.989 282.317 272.363 283.752 270.504 284.836C268.644 285.921 266.589 286.633 264.453 286.933C260.141 287.539 255.768 286.428 252.296 283.845C248.823 281.262 246.536 277.417 245.938 273.158C245.641 271.049 245.768 268.901 246.311 266.838C246.855 264.774 247.803 262.836 249.104 261.132C250.404 259.429 252.03 257.994 253.889 256.909C255.748 255.825 257.804 255.112 259.939 254.812C264.251 254.206 268.624 255.317 272.097 257.901C275.569 260.484 277.856 264.328 278.455 268.588Z" fill="#00101B"/>
<path d="M347.155 270.973C347.155 275.221 345.467 279.295 342.463 282.299C339.459 285.303 335.385 286.991 331.137 286.991C326.888 286.991 322.814 285.303 319.81 282.299C316.806 279.295 315.119 275.221 315.119 270.973C315.119 266.725 316.806 262.65 319.81 259.646C322.814 256.642 326.888 254.955 331.137 254.955C335.385 254.955 339.459 256.642 342.463 259.646C345.467 262.65 347.155 266.725 347.155 270.973Z" fill="#00101B"/>
<path d="M698.849 287.177C694.735 287.718 690.567 286.537 687.26 283.893C683.953 281.249 681.778 277.358 681.215 273.077C680.936 270.957 681.06 268.806 681.582 266.745C682.104 264.684 683.012 262.754 684.255 261.065C685.497 259.377 687.05 257.963 688.825 256.904C690.6 255.845 692.562 255.162 694.599 254.894C698.712 254.352 702.88 255.534 706.187 258.178C709.494 260.822 711.669 264.713 712.232 268.994C712.511 271.113 712.387 273.265 711.865 275.326C711.343 277.387 710.435 279.317 709.193 281.005C707.95 282.694 706.397 284.108 704.622 285.167C702.847 286.226 700.885 286.909 698.849 287.177Z" fill="#00101B"/>
<path d="M777.914 270.923C777.914 275.237 776.201 279.375 773.15 282.426C770.099 285.477 765.961 287.191 761.646 287.191C757.332 287.191 753.194 285.477 750.143 282.426C747.092 279.375 745.378 275.237 745.378 270.923C745.378 266.608 747.092 262.47 750.143 259.419C753.194 256.368 757.332 254.654 761.646 254.654C765.961 254.654 770.099 256.368 773.15 259.419C776.201 262.47 777.914 266.608 777.914 270.923Z" fill="#00101B"/>
<path d="M712.84 366.443C711.013 370.097 708.815 372.821 706.246 374.614C702.808 377.017 699.329 379.628 695.809 382.448C673.041 380.563 651.192 374.706 630.26 364.878C590.791 346.358 552.911 323.131 516.758 297.853C513.617 295.663 510.188 296.927 507.084 299.117C467.74 326.735 425.893 351.313 383.02 369.221C365.175 376.671 345.69 381.389 324.567 383.374C315.118 384.263 310.739 388.155 310.676 397.941C310.488 426.848 313.867 454.955 317.934 483.499C323.403 521.88 335.504 560.085 354.976 593.748C355.023 593.832 355.05 593.927 355.054 594.023C355.058 594.12 355.039 594.216 354.998 594.304C354.958 594.391 354.898 594.469 354.822 594.529C354.746 594.589 354.657 594.63 354.563 594.649L340.372 597.265C339.985 597.335 339.587 597.282 339.232 597.113C338.878 596.945 338.585 596.67 338.395 596.326C321.951 566.63 310.551 534.644 301.178 502.245C298.892 494.361 296.89 486.265 295.171 477.955C286.524 436.271 280.279 392.284 281.693 349.611C281.727 348.627 281.764 347.964 281.806 347.621C281.956 346.545 282.569 345.999 283.646 345.982L305.433 345.594C299.476 347.183 295.797 352.727 298.375 358.371C301.053 364.215 307.96 365.592 313.917 364.828C337.018 361.837 358.267 358.033 378.364 349.774C397.624 341.865 412.49 334.332 430.548 324.458C438.04 320.37 444.514 316.616 449.97 313.195C470.656 300.243 490.24 285.714 509.7 271.161C510.691 270.422 511.894 270.022 513.129 270.02C514.364 270.018 515.566 270.413 516.557 271.148C530.498 281.51 545.302 292.86 558.655 301.87C582.398 317.905 607.213 332.125 633.101 344.53C658.755 356.819 684.972 362.013 712.84 366.443Z" fill="#7FA2B7"/>
<path d="M695.809 382.448C699.33 379.628 702.809 377.017 706.246 374.614C708.815 372.821 711.014 370.097 712.841 366.443C726.197 363.765 730.327 357.136 725.23 346.558L742.824 346.307C742.986 346.304 743.148 346.333 743.298 346.393C743.449 346.453 743.587 346.543 743.703 346.657C743.82 346.771 743.912 346.907 743.976 347.058C744.04 347.208 744.074 347.37 744.076 347.534C744.376 378.494 742.261 410.379 736.918 439.963C733.777 457.345 731.437 475.202 726.906 492.184C720.537 515.998 713.404 540.15 703.918 562.913C699.238 574.143 694.145 585.334 688.638 596.489C688.421 596.933 688.062 597.292 687.618 597.509C687.174 597.727 686.67 597.79 686.186 597.69L672.157 594.824C672.008 594.792 671.868 594.727 671.748 594.633C671.628 594.538 671.531 594.418 671.466 594.281C671.4 594.144 671.367 593.994 671.37 593.843C671.373 593.692 671.411 593.544 671.482 593.41C677.363 582.223 683.107 570.785 687.6 559.172C693.473 543.98 698.341 528.454 702.204 512.594C711.297 475.311 716.053 437.039 716.47 397.778C716.507 394.111 716.32 391.033 713.842 388.217C708.561 382.223 703.142 383.136 695.809 382.448Z" fill="#34627B"/>
<path d="M275.337 593.623C275.337 598.007 273.595 602.212 270.495 605.312C267.395 608.412 263.19 610.154 258.806 610.154C254.421 610.154 250.216 608.412 247.116 605.312C244.016 602.212 242.274 598.007 242.274 593.623C242.274 589.239 244.016 585.034 247.116 581.934C250.216 578.833 254.421 577.092 258.806 577.092C263.19 577.092 267.395 578.833 270.495 581.934C273.595 585.034 275.337 589.239 275.337 593.623Z" fill="#00101B"/>
<path d="M779.728 600.168C779.728 602.056 779.357 603.926 778.634 605.67C777.911 607.415 776.852 609 775.517 610.335C774.182 611.67 772.597 612.729 770.852 613.452C769.108 614.175 767.238 614.546 765.35 614.546C763.462 614.546 761.592 614.175 759.847 613.452C758.103 612.729 756.518 611.67 755.183 610.335C753.847 609 752.788 607.415 752.066 605.67C751.343 603.926 750.971 602.056 750.971 600.168C750.971 596.354 752.486 592.697 755.183 590.001C757.879 587.304 761.536 585.789 765.35 585.789C769.163 585.789 772.821 587.304 775.517 590.001C778.214 592.697 779.728 596.354 779.728 600.168Z" fill="#FF653B"/>
<path d="M407.422 640.476C404.607 640.125 401.44 638.836 399.338 638.361C372.783 632.304 349.019 651.012 346.529 677.642C346.497 677.979 346.335 678.29 346.079 678.509C345.822 678.729 345.49 678.84 345.152 678.819L330.035 677.905C332.2 670.221 330.173 663.864 324.041 658.621C324.65 658.563 325.042 657.837 325.217 656.443C325.334 655.459 325.501 654.687 325.718 654.128C327.211 650.341 329.276 646.908 331.912 643.829C341.49 631.515 353.453 623.648 367.803 620.228C380.73 617.149 393.97 618.551 406.308 623.394C406.596 623.505 406.842 623.699 407.017 623.952C407.191 624.204 407.284 624.502 407.285 624.808L407.422 640.476Z" fill="#FFA602"/>
<path d="M695.296 643.466C695.271 643.767 695.283 644.05 695.333 644.317C695.375 644.559 695.517 644.793 695.759 645.018C699.421 648.489 701.523 652.794 702.066 657.933C695.821 663.276 693.281 669.32 694.783 677.367C689.819 678.31 684.742 678.418 679.553 677.692C679.28 677.654 679.029 677.521 678.846 677.317C678.663 677.113 678.558 676.851 678.552 676.579C678.402 669.22 676.187 663.752 672.282 656.331C671.423 654.712 668.557 651.521 663.685 646.758C658.592 641.777 649.669 638.411 642.236 637.823C634.803 637.239 627.219 637.985 619.485 640.063L620.261 624.62C620.273 624.358 620.358 624.105 620.506 623.891C620.655 623.676 620.86 623.508 621.1 623.406C647.154 612.244 676.249 621.291 694.144 642.941C694.278 643.108 694.662 643.283 695.296 643.466Z" fill="#FFA602"/>
<path d="M407.423 640.476C411.641 650.399 418.286 656.706 429.999 654.329C430.408 654.245 430.77 654.074 431.087 653.816C431.613 653.382 432.214 653.165 432.889 653.165C433.323 653.165 433.586 653.378 433.678 653.803C434.938 659.843 436.222 665.854 437.532 671.836C437.849 673.279 438.016 674.731 438.033 676.191C438.033 676.633 437.812 676.896 437.37 676.979C424.242 679.344 420.513 694.236 427.083 704.798C421.589 710.78 415.645 716.611 408.137 719.827C401.717 722.568 395.635 722.293 388.389 722.105C384.56 721.996 381.482 723.314 379.154 726.059C373.506 728.979 370.035 733.443 368.742 739.449C368.659 739.841 368.417 740.037 368.017 740.037H356.354C355.953 740.037 355.682 739.854 355.54 739.487L351.861 730.176C351.78 729.964 351.763 729.734 351.812 729.513C351.861 729.293 351.974 729.093 352.136 728.938L366.59 715.072C366.966 714.711 367.191 714.221 367.219 713.7C367.247 713.179 367.076 712.668 366.74 712.269C363.42 708.323 360.024 704.206 356.554 699.917C353.325 695.925 349.045 693.836 344.603 697.853C341.549 700.622 338.575 703.509 335.68 706.512C335.453 706.746 335.144 706.881 334.818 706.888C334.493 706.895 334.177 706.773 333.941 706.55C331.146 703.872 328.001 701.711 324.505 700.068C324.163 699.901 323.984 699.63 323.967 699.254L323.492 686.978C323.475 686.569 323.617 686.227 323.917 685.952C326.428 683.632 328.468 680.95 330.036 677.905L345.153 678.819C345.491 678.84 345.823 678.729 346.08 678.509C346.337 678.29 346.498 677.979 346.53 677.642C349.02 651.012 372.784 632.304 399.339 638.361C401.442 638.836 404.608 640.125 407.423 640.476Z" fill="white"/>
<path d="M694.783 677.367C695.659 680.537 697.353 683.078 699.864 684.988C700.156 685.213 700.302 685.514 700.302 685.889L700.026 698.891C700.018 699.308 699.851 699.646 699.526 699.905L691.154 706.375C690.837 706.617 690.444 706.736 690.046 706.711C689.648 706.686 689.272 706.517 688.989 706.237C685.11 702.383 676.25 691.808 670.906 697.803C666.568 702.666 662.334 707.563 658.204 712.494C657.957 712.785 657.827 713.158 657.839 713.541C657.85 713.925 658.003 714.291 658.267 714.571C661.687 718.184 665.246 721.767 668.941 725.321C670.23 726.56 671.231 728.237 672.533 729.663C672.858 730.022 672.942 730.431 672.783 730.89L669.78 739.399C669.638 739.808 669.35 740.012 668.916 740.012L657.854 739.987C657.42 739.987 657.153 739.775 657.053 739.349C655.393 732.508 651.146 727.916 644.314 725.571C641.423 720.641 636.054 721.817 630.673 722.405C617.709 723.832 608.611 713.558 599.576 705.574C601.165 702.057 603.23 698.403 603.218 694.599C603.192 686.302 597.561 678.105 588.939 677.142C588.776 677.123 588.619 677.069 588.479 676.983C588.339 676.897 588.22 676.781 588.131 676.643C588.041 676.506 587.983 676.35 587.96 676.188C587.938 676.025 587.951 675.859 588 675.703L595.121 652.752C595.213 652.443 595.38 652.393 595.621 652.602C597.524 654.212 599.484 654.975 601.503 654.892C611.139 654.508 617.133 649.565 619.486 640.063C627.22 637.985 634.803 637.239 642.236 637.823C649.67 638.411 658.592 641.777 663.685 646.758C668.558 651.521 671.423 654.712 672.283 656.331C676.187 663.752 678.402 669.22 678.552 676.579C678.559 676.851 678.663 677.113 678.846 677.317C679.03 677.521 679.28 677.654 679.553 677.692C684.742 678.418 689.819 678.31 694.783 677.367Z" fill="white"/>
<path d="M324.042 658.621C330.174 663.864 332.201 670.222 330.036 677.905C328.468 680.95 326.428 683.632 323.917 685.952C323.616 686.227 323.475 686.569 323.491 686.978L323.967 699.254C323.984 699.63 324.163 699.901 324.505 700.068C328.001 701.711 331.146 703.872 333.941 706.55C334.177 706.773 334.493 706.895 334.818 706.888C335.144 706.881 335.453 706.746 335.68 706.512C338.575 703.509 341.549 700.622 344.603 697.853C349.045 693.836 353.325 695.925 356.554 699.917C360.024 704.206 363.42 708.323 366.74 712.269C367.076 712.668 367.247 713.179 367.219 713.7C367.191 714.221 366.966 714.711 366.59 715.072L352.136 728.937C351.973 729.093 351.86 729.293 351.811 729.513C351.762 729.734 351.78 729.964 351.861 730.176L355.54 739.487C355.682 739.854 355.953 740.037 356.353 740.037H368.016C368.417 740.037 368.659 739.841 368.742 739.449C370.035 733.443 373.506 728.979 379.154 726.059C388.231 724.049 395.068 726.172 399.664 732.429C407.786 743.479 401.617 760.636 386.437 759.359C386.234 759.342 386.032 759.394 385.863 759.508C385.695 759.622 385.57 759.79 385.511 759.985C383.571 766.304 379.467 768.482 372.759 768.507C366.961 768.54 361.155 768.549 355.34 768.532C354.955 768.532 354.576 768.632 354.24 768.823C353.905 769.014 353.624 769.289 353.425 769.621L348.332 778.305C348.315 778.335 348.304 778.367 348.301 778.401C348.298 778.434 348.301 778.468 348.312 778.5C348.323 778.532 348.34 778.561 348.363 778.586C348.386 778.611 348.413 778.63 348.444 778.643C355.886 781.638 359.561 787.095 359.469 795.012C359.327 799.417 357.701 803.088 354.589 806.024C344.177 815.873 329.911 812.982 323.466 800.568C323.266 800.184 322.962 800.063 322.553 800.205C278.641 815.022 238.909 774.952 255.302 730.765C255.486 730.281 255.336 729.947 254.852 729.763C254.743 729.722 254.635 729.68 254.526 729.638C254.268 729.538 254.038 729.384 253.838 729.175C243.301 718.113 230.887 707.851 230.124 691.57C229.761 683.624 229.924 677.204 234.454 670.359C239.585 662.575 250.547 646.532 261.071 646.119C269.881 645.769 278.128 654.041 277.277 662.826C276.476 671.06 268.705 677.68 261.021 680.233C260.596 680.375 260.226 680.647 259.966 681.009C259.705 681.37 259.566 681.804 259.57 682.248L259.62 692.384C259.62 692.818 259.766 693.193 260.058 693.51L272.034 706.525C272.211 706.721 272.456 706.845 272.72 706.87C272.984 706.895 273.248 706.821 273.46 706.662C280.243 701.565 287.776 698.111 296.06 696.301C296.394 696.226 296.569 696.013 296.586 695.663L297.062 683.799C297.078 683.39 296.995 683.003 296.811 682.635C287.939 665.153 306.96 645.631 324.042 658.621Z" fill="#00101B"/>
<path d="M666.063 794.686C666.255 789.489 668.324 784.905 672.27 780.933C673.271 779.932 674.335 779.482 675.624 778.981C675.724 778.942 675.814 778.882 675.89 778.807C675.966 778.731 676.026 778.641 676.066 778.541C676.106 778.441 676.125 778.335 676.122 778.228C676.119 778.12 676.094 778.015 676.049 777.918L672.02 769.07C671.913 768.845 671.742 768.657 671.528 768.53C671.314 768.403 671.067 768.343 670.819 768.357C664.545 768.724 658.167 768.878 651.685 768.82C643.125 768.732 643.238 765.829 638.382 760.473C638.099 760.165 637.718 759.966 637.306 759.91C630.386 758.971 623.54 754.804 622.439 747.433C620.324 733.405 630.974 724.608 644.314 725.571C651.146 727.915 655.393 732.508 657.053 739.349C657.153 739.775 657.42 739.987 657.854 739.987L668.916 740.012C669.35 740.012 669.638 739.808 669.78 739.399L672.783 730.89C672.942 730.431 672.858 730.022 672.533 729.663C671.232 728.237 670.23 726.56 668.941 725.321C665.246 721.767 661.687 718.184 658.267 714.571C658.003 714.291 657.85 713.925 657.839 713.541C657.827 713.158 657.957 712.785 658.204 712.494C662.334 707.563 666.568 702.666 670.906 697.802C676.25 691.808 685.11 702.383 688.989 706.237C689.273 706.517 689.648 706.686 690.046 706.711C690.444 706.736 690.837 706.617 691.154 706.375L699.526 699.905C699.851 699.646 700.018 699.308 700.026 698.891L700.302 685.889C700.302 685.514 700.156 685.213 699.864 684.988C697.353 683.078 695.659 680.537 694.783 677.367C693.281 669.32 695.822 663.276 702.066 657.933C709.541 653.444 716.316 653.44 722.389 657.92C729.409 663.113 732.075 670.522 729.034 678.931C728.709 679.849 728.383 680.771 728.058 681.697C726.919 684.9 727.808 691.358 727.783 694.837C727.778 695.189 727.896 695.532 728.118 695.808C728.339 696.084 728.649 696.276 728.996 696.351C736.997 698.003 744.13 701.423 750.396 706.612C750.6 706.779 750.862 706.861 751.125 706.84C751.389 706.819 751.634 706.697 751.81 706.5L763.986 692.697C764.26 692.39 764.411 691.989 764.411 691.57L764.574 681.797C764.582 681.296 764.345 680.971 763.861 680.821C751.935 677.142 741.485 664.59 750.558 652.664C754.171 647.909 758.68 645.752 764.086 646.194C769.98 646.683 773.96 651.388 777.676 655.78C783.032 662.1 793.219 672.637 794.02 679.494C794.846 686.569 794.9 692.054 794.182 695.95C791.842 708.665 779.704 718.989 768.604 729.613C768.287 729.914 768.203 730.272 768.353 730.689C774.222 746.995 774.01 762.563 765.125 777.655C759.994 786.373 753.516 792.818 745.69 796.989C731.599 804.51 716.683 804.76 701.716 800.08C701.307 799.955 701.015 800.084 700.84 800.468C692.606 818.588 668.566 814.371 666.063 794.686Z" fill="#00101B"/>
<path d="M512.992 733.943L512.904 772.011C496.453 758.312 481.844 745.577 469.08 733.805C464.091 729.2 458.339 723.444 451.823 716.536C454.309 713.741 456.057 710.629 457.067 707.201L462.298 698.366C462.36 698.259 462.445 698.166 462.547 698.094C462.648 698.023 462.764 697.973 462.886 697.95C463.007 697.926 463.133 697.929 463.254 697.957C463.375 697.986 463.488 698.04 463.586 698.115C469.243 702.395 474.937 707.714 480.005 711.543C488.915 718.263 501.191 728.837 512.992 733.943Z" fill="#7FA2B7"/>
<path d="M569.142 706.612L575.073 717.074C554.759 737.672 534.999 755.763 515.794 771.348C514.451 772.441 513.487 772.662 512.903 772.011L512.991 733.943C514.126 733.568 515.352 733.117 516.67 732.592C520.762 730.965 524.629 727.799 528.195 725.258C539.5 717.183 550.708 708.636 561.821 699.617C563.097 698.583 564.173 698.762 565.049 700.155L569.142 706.612Z" fill="#34627B"/>
<path d="M427.083 704.798C429.527 707.426 431.154 709.015 431.963 709.566C440.239 715.164 448.607 714.375 457.067 707.201C456.057 710.629 454.309 713.741 451.823 716.536C444.765 725.809 440.348 731.077 432.088 737.76C431.988 737.843 431.805 737.885 431.538 737.885C431.304 737.885 431.074 737.969 430.887 738.123C424.188 743.554 416.638 747.383 408.237 749.611C407.769 749.736 407.536 750.036 407.536 750.512C407.511 756.518 406.71 761.962 405.133 766.843C400.528 781.096 386.5 791.283 372.146 793.973C368.417 794.674 363.712 794.336 359.469 795.012C359.561 787.094 355.886 781.638 348.444 778.643C348.413 778.63 348.386 778.611 348.363 778.586C348.34 778.561 348.323 778.532 348.312 778.5C348.301 778.468 348.298 778.434 348.301 778.4C348.304 778.367 348.315 778.335 348.332 778.305L353.425 769.621C353.624 769.289 353.905 769.014 354.24 768.823C354.576 768.632 354.955 768.532 355.34 768.532C361.155 768.549 366.961 768.54 372.759 768.507C379.467 768.482 383.571 766.304 385.511 759.985C385.571 759.79 385.695 759.622 385.863 759.508C386.032 759.394 386.234 759.342 386.437 759.359C401.617 760.636 407.786 743.479 399.665 732.429C395.068 726.172 388.231 724.049 379.154 726.059C381.482 723.314 384.56 721.996 388.389 722.105C395.635 722.293 401.717 722.568 408.137 719.827C415.645 716.611 421.589 710.78 427.083 704.798Z" fill="#FFA602"/>
<path d="M599.576 705.574C608.611 713.558 617.709 723.832 630.673 722.405C636.054 721.817 641.423 720.641 644.314 725.571C630.974 724.608 620.324 733.405 622.439 747.433C623.54 754.804 630.385 758.971 637.306 759.91C637.718 759.966 638.099 760.165 638.382 760.473C643.237 765.829 643.125 768.732 651.684 768.82C658.167 768.878 664.545 768.724 670.818 768.357C671.067 768.343 671.314 768.403 671.528 768.53C671.742 768.657 671.913 768.845 672.02 769.07L676.049 777.917C676.094 778.015 676.119 778.12 676.122 778.228C676.124 778.335 676.105 778.441 676.066 778.541C676.026 778.641 675.966 778.731 675.89 778.807C675.814 778.882 675.724 778.942 675.624 778.981C674.335 779.482 673.271 779.932 672.27 780.933C668.324 784.904 666.255 789.489 666.063 794.686C663.919 794.87 661.779 794.878 659.643 794.711C646.136 793.669 635.366 788.267 627.332 778.506C620.512 770.221 617.433 760.548 618.097 749.911C618.107 749.737 618.058 749.564 617.958 749.421C617.858 749.278 617.713 749.173 617.546 749.123C609.011 746.653 601.244 742.982 594.245 738.11C586.628 732.788 580.237 725.776 575.073 717.074L569.142 706.612C579.078 714.859 591.041 715.472 599.576 705.574Z" fill="#FFA602"/>
<path d="M451.822 716.536C458.338 723.444 464.09 729.2 469.079 733.805C481.843 745.577 496.451 758.312 512.903 772.011C513.487 772.662 514.451 772.441 515.794 771.348C534.999 755.763 554.759 737.672 575.073 717.074C580.237 725.776 586.628 732.788 594.245 738.11C571.436 762.771 547.121 784.988 521.3 804.76C515.502 809.199 509.72 809.069 503.956 804.372C477.213 782.598 454.976 762.675 432.438 738.611C432.329 738.494 432.254 738.365 432.213 738.223C432.171 738.089 432.129 737.935 432.087 737.76C440.347 731.077 444.764 725.809 451.822 716.536Z" fill="#00101B"/>
<path d="M573.07 445.457C572.344 448.677 570.671 451.818 568.052 454.88" stroke="#9AB1BD" stroke-width="2"/>
<path d="M568.052 454.88C565.507 450.842 563.801 448.397 562.934 447.546C537.342 422.418 499.75 419.277 470.88 440.876C459.718 449.223 451.146 462.663 447.754 475.878C443.337 493.073 446.665 511.418 455.25 526.911C455.34 527.073 455.394 527.253 455.406 527.438C455.418 527.623 455.389 527.808 455.321 527.981C455.253 528.153 455.147 528.308 455.011 528.435C454.876 528.561 454.714 528.656 454.537 528.713C453.602 529.013 452.56 528.754 451.408 527.937" stroke="#BFD1DB" stroke-width="2"/>
<path d="M568.052 454.88C572.231 463.798 575.001 471.361 576.361 477.568C578.839 488.889 577.992 500.756 573.821 513.17C572.377 517.475 570.767 521.709 568.99 525.872C568.654 526.669 568.551 527.544 568.693 528.395C568.835 529.246 569.216 530.038 569.791 530.677L576.624 538.261C576.899 538.57 577.241 538.766 577.65 538.849C578.86 539.099 579.932 539.587 580.866 540.313C581.025 540.672 582.017 541.193 583.845 541.877" stroke="#5A8299" stroke-width="2"/>
<path d="M565.224 558.208L551.083 547.021C550.64 546.677 550.113 546.46 549.558 546.391C549.002 546.323 548.44 546.406 547.929 546.633C544.976 547.947 541.96 549.786 539.157 550.862C519.735 558.296 500.401 557.795 481.154 549.361C479.702 548.727 478.447 548.818 477.387 549.636C476.762 550.128 475.752 551.146 474.359 552.69" stroke="#5A8299" stroke-width="2"/>
<path d="M472.069 554.379C468.64 553.119 465.382 551.355 462.296 549.085C456.723 544.989 451.458 540.501 446.503 535.62" stroke="#5A8299" stroke-width="2"/>
<path d="M636.166 423.82C641.406 434.24 645.289 444.126 647.817 453.478C652.71 471.573 652.134 489.506 650.282 508.415C649.882 512.419 648.53 516.649 647.98 520.929C647.93 521.338 647.788 521.705 647.554 522.03C646.853 523.044 646.891 524.608 646.541 525.534C643.687 533.276 640.133 540.684 635.879 547.759C635.804 547.892 635.703 547.98 635.578 548.022C635.47 548.055 635.328 548.089 635.153 548.122" stroke="#FFD381" stroke-width="2"/>
<path d="M634.427 547.434C634.602 547.275 634.79 547.179 634.99 547.146C635.29 547.104 635.419 546.933 635.378 546.633C635.311 546.107 635.478 545.711 635.878 545.444C636.187 545.235 636.433 544.964 636.617 544.63C636.867 544.172 636.817 543.738 636.466 543.329C636.402 543.253 636.363 543.159 636.357 543.06C636.35 542.961 636.375 542.862 636.429 542.778C637.755 540.751 638.527 539.062 638.744 537.71C638.811 537.301 638.973 536.938 639.232 536.621C641.747 533.518 642.223 529.526 644.425 526.235C645.51 524.633 645.085 523.765 643.149 523.632C641.635 523.532 640.233 522.969 638.406 523.156C633.375 523.682 628.07 522.894 623.252 523.632C621.842 523.849 620.423 523.982 618.997 524.032C618.154 524.066 617.825 523.669 618.008 522.843C618.075 522.518 618.363 522.214 618.872 521.93" stroke="#ECF5FC" stroke-width="2"/>
<path d="M387.988 551.513C387.663 550.153 387.317 548.831 386.95 547.546C386.616 546.362 386.128 545.089 385.486 543.73C374.636 520.954 372.071 496.164 374.373 470.36C375.675 455.693 381.344 440.789 388.026 427.486C388.201 427.144 388.272 426.777 388.239 426.385C388.18 425.651 388.306 424.775 388.614 423.757" stroke="#FFD381" stroke-width="2"/>
<path d="M465.549 582.273C467.652 580.971 469.337 580.458 470.605 580.734C471.064 580.825 471.314 581.109 471.356 581.584C471.606 584.379 471.502 587.137 471.043 589.856C470.476 593.227 470.205 595.78 470.23 597.515C470.372 606.258 470.576 615.414 470.843 624.983C470.876 626.034 470.409 626.351 469.441 625.934C459.322 621.613 449.824 615.744 440.947 608.327C439.111 606.792 437.439 606.821 435.929 608.415" stroke="#ECF5FC" stroke-width="2"/>
<path d="M635.203 590.67C634.152 590.761 633.614 590.495 633.589 589.869C633.451 586.452 631.536 586.152 629.346 584.5C628.395 583.791 627.536 582.882 626.768 581.772C624.991 579.211 622.735 576.867 619.998 574.739C615.18 570.998 612.565 572.987 607.497 573.676C601.465 574.502 595.087 575.227 588.363 575.853" stroke="#ECF5FC" stroke-width="2"/>
<path d="M311.689 725.934C314.642 731.983 314.175 736.041 310.287 738.11C307.922 739.362 303.767 739.537 300.701 740.188C300.501 740.231 300.312 740.316 300.148 740.436C299.984 740.557 299.848 740.711 299.75 740.889C295.445 748.422 288.813 756.131 279.815 750.074" stroke="#5A8299" stroke-width="2"/>
<path d="M730.56 726.585C730.986 730.406 730.727 734.214 729.784 738.01C729.668 738.478 729.376 738.757 728.908 738.849C724.253 739.737 720.524 738.661 716.382 741.99C712.052 745.469 711.163 750.737 704.806 751.751C699.892 752.527 697.39 750.274 697.298 744.993" stroke="#5A8299" stroke-width="2"/>
<path d="M580.004 393.548C575.687 389.306 568.704 389.106 563.911 392.109C561.996 393.298 560.432 395.413 558.805 397.202C558.463 397.569 558.058 397.669 557.591 397.503L553.724 396.189C553.542 396.127 553.386 396.006 553.282 395.845C553.177 395.683 553.13 395.491 553.149 395.3C553.307 393.765 553.441 391.362 553.549 388.092C553.799 379.833 547.455 374.739 539.646 374.539C518.798 373.972 500.606 374.097 485.072 374.915C479.458 375.207 475.453 377.684 473.059 382.348C471.294 385.802 471.807 390.545 472.183 394.399C472.225 394.825 472.108 395.196 471.832 395.513C468.128 399.83 463.698 392.985 460.382 391.521C454.801 389.051 449.582 390.103 444.727 394.674C438.178 400.831 431.641 406.972 425.117 413.095C424.853 413.341 424.506 413.476 424.145 413.474C423.784 413.471 423.438 413.332 423.178 413.083L406.622 397.327C406.584 397.293 406.553 397.251 406.533 397.204C406.513 397.157 406.503 397.105 406.504 397.053C406.506 397.001 406.518 396.95 406.54 396.902C406.562 396.855 406.595 396.812 406.634 396.777C446.554 361.287 499.101 340.526 552.398 358.071C571.987 364.52 589.848 374.089 605.983 386.778C609.412 389.469 613.742 393.573 617.834 396.714C617.917 396.779 617.986 396.86 618.036 396.953C618.086 397.046 618.115 397.148 618.122 397.252C618.129 397.356 618.114 397.461 618.077 397.558C618.04 397.655 617.983 397.743 617.909 397.815L602.467 413.07C601.924 413.604 601.374 413.616 600.815 413.108C593.607 406.6 586.67 400.08 580.004 393.548Z" fill="white"/>
<path d="M573.071 445.456C572.345 448.677 570.672 451.818 568.052 454.88C565.508 450.842 563.802 448.397 562.934 447.546C537.343 422.418 499.751 419.277 470.881 440.876C459.718 449.223 451.146 462.663 447.755 475.878C443.337 493.072 446.666 511.418 455.251 526.911C455.341 527.073 455.394 527.253 455.406 527.438C455.419 527.623 455.39 527.808 455.321 527.981C455.253 528.153 455.147 528.308 455.012 528.435C454.876 528.561 454.714 528.656 454.537 528.713C453.603 529.013 452.56 528.754 451.409 527.937C446.161 520.286 442.678 512.01 440.96 503.109C440.917 502.889 440.801 502.69 440.632 502.546C440.464 502.403 440.252 502.323 440.034 502.32L424.979 501.87C424.674 501.86 424.384 501.732 424.171 501.512C423.959 501.293 423.84 500.999 423.84 500.694L423.603 474.664C423.603 474.522 423.658 474.385 423.756 474.284C423.855 474.183 423.989 474.126 424.128 474.126L439.37 474.101C439.771 474.101 440.088 473.934 440.321 473.601C441.798 471.482 442.595 470.047 442.711 469.296C443.938 461.62 446.774 454.487 451.221 447.897C451.434 447.579 451.538 447.2 451.517 446.817C451.497 446.434 451.354 446.066 451.108 445.769L442.486 435.383C442.309 435.166 442.221 434.891 442.24 434.612C442.258 434.333 442.382 434.072 442.586 433.881L461.795 415.836C462.363 415.302 462.909 415.327 463.435 415.911L470.918 424.308C471.621 425.092 472.543 425.648 473.564 425.904C474.585 426.16 475.66 426.106 476.65 425.747L493.869 419.527C495.487 418.943 496.293 417.792 496.284 416.073L496.247 400.656C496.247 400.533 496.297 400.416 496.386 400.329C496.475 400.242 496.596 400.193 496.722 400.193L527.206 400.569C527.624 400.577 527.845 400.79 527.87 401.207C528.195 407.314 528.324 412.323 528.258 416.236C528.233 417.805 528.913 418.76 530.297 419.102C536.755 420.729 542.912 423.073 548.768 426.135C549.357 426.441 550.029 426.547 550.683 426.439C551.337 426.331 551.939 426.013 552.397 425.534L561.946 415.56C562.086 415.412 562.278 415.325 562.482 415.318C562.686 415.311 562.884 415.385 563.034 415.523L582.794 433.468C582.932 433.593 583.042 433.745 583.12 433.914C583.197 434.083 583.24 434.266 583.244 434.452C583.249 434.638 583.216 434.823 583.147 434.996C583.078 435.169 582.975 435.326 582.844 435.458L573.071 445.456Z" fill="white"/>
<path d="M636.167 423.82C641.406 434.24 645.29 444.126 647.818 453.478C652.711 471.573 652.135 489.506 650.283 508.415C649.882 512.419 648.531 516.649 647.98 520.929C647.93 521.338 647.788 521.705 647.555 522.03C646.854 523.044 646.892 524.608 646.541 525.534C643.688 533.276 640.134 540.684 635.879 547.759C635.804 547.892 635.704 547.98 635.579 548.022C635.47 548.055 635.329 548.088 635.153 548.122C634.778 547.479 634.536 547.25 634.428 547.434C634.603 547.275 634.79 547.179 634.991 547.146C635.291 547.104 635.42 546.933 635.379 546.633C635.312 546.107 635.479 545.711 635.879 545.444C636.188 545.235 636.434 544.964 636.618 544.63C636.868 544.172 636.818 543.738 636.467 543.329C636.403 543.253 636.364 543.159 636.358 543.06C636.351 542.961 636.376 542.862 636.43 542.778C637.756 540.751 638.528 539.062 638.745 537.71C638.812 537.301 638.974 536.938 639.233 536.621C641.748 533.518 642.224 529.526 644.426 526.235C645.511 524.633 645.085 523.765 643.15 523.632C641.636 523.532 640.234 522.969 638.407 523.156C633.376 523.682 628.07 522.893 623.253 523.632C621.843 523.849 620.424 523.982 618.998 524.032C618.155 524.066 617.826 523.669 618.009 522.843C618.076 522.518 618.364 522.214 618.873 521.93C625.78 519.865 627.62 515.523 627.695 508.34C627.837 494.975 627.845 481.63 627.72 468.307C627.582 454.366 619.874 453.24 607.86 454.229C604.932 454.467 603.18 453.052 604.093 450.087C604.219 449.678 604.461 449.357 604.819 449.123C606.404 448.097 608.127 447.363 609.988 446.921C614.33 445.919 613.679 443.004 613.967 439.8C614 439.416 614.159 439.091 614.443 438.824L632.263 421.742C632.646 421.375 633.043 421.359 633.452 421.692L636.167 423.82Z" fill="white"/>
<path d="M387.988 551.513C387.663 550.153 387.317 548.831 386.95 547.546C386.616 546.361 386.128 545.089 385.486 543.729C374.636 520.954 372.071 496.163 374.373 470.359C375.675 455.693 381.344 440.789 388.026 427.486C388.201 427.144 388.272 426.777 388.239 426.385C388.18 425.651 388.306 424.775 388.614 423.757L390.541 422.393C391.209 421.926 391.847 421.959 392.456 422.493L410.827 438.749C410.99 438.893 411.118 439.071 411.2 439.271C411.283 439.471 411.318 439.686 411.302 439.9C410.814 446.87 413.642 446.345 419.048 448.034C419.474 448.168 419.795 448.426 420.012 448.81C420.613 449.87 420.78 451.029 420.513 452.289C420.237 453.582 419.445 454.179 418.135 454.079C406.334 453.203 397.699 454.329 397.712 468.32C397.729 481.459 397.708 494.599 397.649 507.739C397.616 515.715 401.087 520.495 408.061 522.08C411.452 522.856 415.457 521.742 418.973 521.792C421.343 521.826 421.555 522.518 419.612 523.87C408.236 531.741 398.1 541.84 387.988 551.513Z" fill="white"/>
<path d="M388.613 423.757C388.305 424.775 388.18 425.651 388.238 426.385C388.271 426.777 388.2 427.144 388.025 427.486C381.343 440.789 375.674 455.693 374.372 470.359C372.07 496.163 374.635 520.954 385.485 543.729C386.127 545.089 386.615 546.361 386.949 547.546C387.316 548.831 387.662 550.153 387.988 551.513L373.634 565.016C373.566 565.079 373.485 565.125 373.396 565.152C373.307 565.179 373.214 565.186 373.122 565.171C373.031 565.157 372.943 565.122 372.867 565.069C372.791 565.016 372.728 564.946 372.683 564.866C359.193 540.588 349.782 512.094 348.694 484.388C348.105 469.458 350.946 455.48 354.713 441.352C354.905 440.618 355.343 440.08 356.027 439.737L388.613 423.757Z" fill="#FFA602"/>
<path d="M636.166 423.82L670.155 440.563C670.513 440.741 670.829 440.992 671.081 441.301C671.334 441.609 671.517 441.968 671.619 442.353C674.439 453.032 676.149 463.927 676.75 475.04C678.339 504.448 669.579 532.342 657.578 558.446C656.71 560.331 655.638 562.254 654.362 564.215C654.298 564.314 654.213 564.397 654.114 564.46C654.015 564.523 653.903 564.564 653.786 564.579C653.67 564.594 653.551 564.584 653.439 564.55C653.326 564.515 653.223 564.456 653.136 564.378L635.153 548.122C635.328 548.089 635.47 548.055 635.578 548.022C635.703 547.98 635.804 547.892 635.879 547.759C640.133 540.684 643.687 533.276 646.541 525.534C646.891 524.608 646.853 523.044 647.554 522.03C647.788 521.705 647.93 521.338 647.98 520.929C648.53 516.649 649.882 512.419 650.282 508.415C652.134 489.506 652.71 471.573 647.817 453.478C645.289 444.126 641.406 434.24 636.166 423.82Z" fill="#FFA602"/>
<path d="M568.053 454.879C572.233 463.798 575.003 471.36 576.363 477.567C578.841 488.889 577.994 500.756 573.822 513.17C572.379 517.475 570.769 521.709 568.992 525.872C568.656 526.669 568.553 527.544 568.694 528.395C568.836 529.246 569.217 530.037 569.793 530.677L576.626 538.261C576.901 538.569 577.243 538.765 577.652 538.849C578.861 539.099 579.933 539.587 580.868 540.313C581.026 540.672 582.019 541.193 583.846 541.877L565.225 558.208L551.084 547.021C550.642 546.677 550.115 546.459 549.559 546.391C549.004 546.323 548.441 546.406 547.931 546.633C544.977 547.947 541.962 549.786 539.158 550.862C519.737 558.296 500.402 557.795 481.156 549.361C479.704 548.727 478.449 548.818 477.389 549.636C476.763 550.128 475.754 551.146 474.361 552.689L472.071 554.379C468.642 553.119 465.384 551.355 462.297 549.085C456.724 544.989 451.46 540.501 446.504 535.62L451.41 527.937C452.561 528.754 453.604 529.013 454.538 528.712C454.715 528.656 454.877 528.561 455.013 528.435C455.148 528.308 455.254 528.153 455.322 527.981C455.391 527.808 455.42 527.623 455.407 527.438C455.395 527.252 455.342 527.072 455.252 526.91C446.667 511.418 443.338 493.072 447.756 475.878C451.147 462.663 459.719 449.223 470.882 440.876C499.752 419.277 537.344 422.418 562.935 447.546C563.803 448.397 565.509 450.842 568.053 454.879Z" fill="#7FA2B7"/>
<path d="M573.071 445.456C577.593 454.108 581.272 463.185 584.109 472.687C584.222 473.073 584.454 473.412 584.771 473.657C585.088 473.902 585.474 474.04 585.873 474.051L601.991 474.476C602.202 474.483 602.401 474.572 602.546 474.724C602.691 474.876 602.771 475.08 602.767 475.29L602.592 501.907C602.592 501.99 602.559 502.07 602.5 502.129C602.442 502.187 602.362 502.22 602.279 502.22L585.46 502.083C585.108 502.079 584.766 502.202 584.499 502.43C584.231 502.658 584.057 502.975 584.009 503.321C582.682 512.415 579.429 520.837 574.248 528.587C573.614 529.538 573.785 530.544 574.761 531.603C577.626 534.719 580.405 538.198 583.846 541.877C582.019 541.193 581.026 540.672 580.868 540.313C579.933 539.587 578.861 539.099 577.651 538.849C577.243 538.765 576.901 538.569 576.625 538.261L569.793 530.677C569.217 530.037 568.836 529.246 568.694 528.395C568.552 527.544 568.656 526.669 568.992 525.872C570.769 521.709 572.379 517.475 573.822 513.17C577.994 500.756 578.84 488.888 576.363 477.567C575.003 471.36 572.233 463.798 568.053 454.879C570.673 451.818 572.346 448.677 573.071 445.456Z" fill="#34627B"/>
<path d="M618.873 521.93C618.364 522.214 618.076 522.518 618.009 522.843C617.826 523.669 618.155 524.066 618.998 524.032C620.425 523.982 621.843 523.849 623.253 523.632C628.071 522.893 633.377 523.682 638.407 523.156C640.234 522.969 641.636 523.532 643.15 523.632C645.086 523.765 645.511 524.633 644.426 526.235C642.224 529.526 641.748 533.518 639.233 536.621C638.975 536.938 638.812 537.301 638.745 537.71C638.528 539.062 637.757 540.751 636.43 542.778C636.376 542.862 636.351 542.961 636.358 543.06C636.365 543.159 636.403 543.253 636.468 543.329C636.818 543.738 636.868 544.172 636.618 544.63C636.434 544.964 636.188 545.235 635.879 545.444C635.479 545.711 635.312 546.107 635.379 546.633C635.421 546.933 635.291 547.104 634.991 547.146C634.791 547.179 634.603 547.275 634.428 547.434C625.643 539.475 616.332 529.839 606.246 523.619C606.06 523.498 605.923 523.317 605.858 523.106C605.483 521.905 605.887 521.421 607.072 521.655C611.01 522.43 614.943 522.522 618.873 521.93Z" fill="#D8EAF9"/>
<path d="M446.504 535.62C451.459 540.501 456.723 544.989 462.296 549.085C465.383 551.355 468.641 553.119 472.07 554.379C470.034 557.332 467.577 559.797 464.699 561.775C464.398 561.978 464.039 562.077 463.676 562.054C463.314 562.031 462.97 561.889 462.697 561.65C456.849 556.485 451.088 551.054 445.415 545.356C443.98 543.913 442.895 542.591 442.161 541.389C442.054 541.213 442.007 541.006 442.027 540.801C442.047 540.596 442.134 540.402 442.274 540.25L446.504 535.62Z" fill="#34627B"/>
<path d="M565.225 558.208C564.608 559.818 563.544 561.066 562.034 561.95C561.667 562.167 561.283 562.209 560.883 562.075C556.465 560.661 552.511 550.938 547.618 553.978C543.204 556.715 538.749 558.876 534.253 560.461C531.938 561.262 528.909 560.198 528.746 564.202C528.588 568.382 528.517 572.474 528.534 576.479C528.535 576.657 528.502 576.834 528.435 577C528.367 577.165 528.268 577.316 528.142 577.443C528.017 577.569 527.867 577.67 527.702 577.739C527.538 577.807 527.361 577.843 527.182 577.843H497.762C497.4 577.843 497.052 577.702 496.792 577.449C496.533 577.197 496.382 576.853 496.373 576.491L496.01 562.976C495.998 562.628 495.888 562.291 495.693 562.005C495.498 561.719 495.225 561.496 494.908 561.362L474.36 552.69C475.754 551.146 476.763 550.128 477.389 549.636C478.448 548.818 479.704 548.727 481.155 549.361C500.402 557.795 519.736 558.296 539.158 550.862C541.961 549.786 544.977 547.947 547.931 546.633C548.441 546.406 549.004 546.323 549.559 546.391C550.114 546.46 550.641 546.677 551.084 547.021L565.225 558.208Z" fill="#34627B"/>
<path d="M465.55 582.273C467.652 580.971 469.338 580.458 470.606 580.733C471.064 580.825 471.315 581.109 471.356 581.584C471.607 584.379 471.502 587.136 471.044 589.856C470.476 593.227 470.205 595.779 470.23 597.515C470.372 606.258 470.576 615.414 470.843 624.983C470.877 626.034 470.41 626.351 469.442 625.934C459.322 621.613 449.824 615.744 440.947 608.327C439.112 606.792 437.439 606.821 435.929 608.415C431.758 604.185 426.227 600.823 419.335 598.328C409.958 594.933 400.043 592.551 389.59 591.183C387.604 590.924 387.37 590.144 388.889 588.843C399.851 579.449 410.434 569.671 420.637 559.51C420.779 559.369 420.948 559.258 421.133 559.184C421.318 559.11 421.516 559.075 421.715 559.079C421.914 559.084 422.11 559.129 422.29 559.212C422.47 559.294 422.632 559.413 422.764 559.56C428.521 565.942 434.553 572.124 440.86 578.105C447.63 584.525 452.072 589.18 460.845 586.077C462.68 585.426 464.248 584.158 465.55 582.273Z" fill="white"/>
<path d="M635.203 590.67C634.152 590.761 633.614 590.494 633.589 589.869C633.451 586.452 631.536 586.152 629.346 584.5C628.395 583.791 627.536 582.882 626.768 581.772C624.991 579.211 622.735 576.867 619.998 574.739C615.18 570.997 612.565 572.987 607.497 573.675C601.465 574.501 595.087 575.227 588.363 575.853L603.68 560.398C604.84 559.23 606.029 559.197 607.247 560.298C616.265 568.465 625.175 576.862 633.977 585.489C635.295 586.782 636.692 587.846 638.169 588.68C638.267 588.735 638.346 588.818 638.398 588.918C638.449 589.018 638.47 589.131 638.458 589.242C638.446 589.354 638.402 589.46 638.33 589.547C638.259 589.634 638.164 589.698 638.056 589.731L635.203 590.67Z" fill="white"/>
<path d="M635.204 590.67C622.702 592.797 608.686 595.688 598.124 601.444C590.391 605.674 589.965 612.744 589.89 620.879C589.886 621.075 589.835 621.268 589.741 621.438C589.647 621.608 589.514 621.751 589.352 621.855C582.119 626.635 577.213 629.163 574.435 638.123C574.102 639.182 573.13 640.008 571.52 640.601C563.148 643.667 554.25 647.208 546.179 649.21C516.545 656.569 485.385 654.729 457.241 641.489C456.123 640.964 455.485 640.559 455.326 640.275C451.389 633.042 445.999 627.528 439.158 623.732C438.625 623.435 438.187 622.994 437.892 622.461C437.598 621.928 437.46 621.323 437.494 620.716C437.744 616.278 437.223 612.177 435.93 608.415C437.44 606.821 439.112 606.792 440.948 608.327C449.824 615.744 459.323 621.613 469.442 625.934C470.41 626.351 470.877 626.034 470.844 624.983C470.577 615.414 470.373 606.258 470.231 597.515C470.206 595.78 470.477 593.227 471.044 589.856C471.503 587.136 471.607 584.379 471.357 581.584C471.315 581.109 471.065 580.825 470.606 580.733C469.338 580.458 467.653 580.971 465.55 582.273C467.052 580.108 472.859 578.831 472.471 583.324C471.77 591.433 472.145 598.904 481.218 601.644C485.723 602.996 493.106 602.233 498.725 602.32C499.217 602.329 499.434 602.575 499.376 603.059C498.492 610.726 498.417 615.815 499.151 618.326C503.355 632.679 527.433 630.126 526.869 615.535C526.711 611.397 526.686 607.267 526.794 603.146C526.803 602.687 527.04 602.454 527.508 602.445C535.104 602.408 547.893 604.31 552.235 596.464C554.288 592.722 553.612 587.278 553.524 582.898C553.516 582.515 553.637 582.181 553.887 581.897C556.09 579.411 558.309 579.324 560.545 581.634C568.103 589.443 574.811 587.741 582.044 581.434C584.413 579.374 586.52 577.513 588.364 575.853C595.088 575.227 601.466 574.501 607.498 573.676C612.566 572.987 615.181 570.998 619.999 574.739C622.736 576.867 624.992 579.211 626.769 581.772C627.537 582.882 628.396 583.791 629.347 584.5C631.537 586.152 633.452 586.452 633.589 589.869C633.614 590.494 634.152 590.761 635.204 590.67Z" fill="#D8EAF9"/>
<path d="M389.821 696.636C384.793 696.908 379.862 695.136 376.111 691.711C372.36 688.285 370.097 683.486 369.82 678.369C369.543 673.252 371.274 668.236 374.633 664.426C377.992 660.615 382.703 658.321 387.731 658.049C392.758 657.776 397.69 659.548 401.441 662.974C405.192 666.399 407.455 671.198 407.732 676.315C408.009 681.432 406.278 686.448 402.919 690.259C399.56 694.069 394.848 696.363 389.821 696.636Z" fill="#00101B"/>
<path d="M635.818 696.65C633.322 696.466 630.887 695.787 628.651 694.65C626.416 693.514 624.425 691.942 622.791 690.026C621.158 688.109 619.913 685.885 619.129 683.48C618.346 681.075 618.038 678.536 618.223 676.009C618.598 670.905 620.96 666.157 624.79 662.809C628.62 659.462 633.603 657.79 638.644 658.16C641.14 658.343 643.576 659.022 645.811 660.159C648.046 661.295 650.037 662.867 651.671 664.783C653.305 666.7 654.549 668.924 655.333 671.33C656.117 673.735 656.424 676.273 656.239 678.8C655.864 683.904 653.502 688.652 649.672 692C645.843 695.347 640.859 697.02 635.818 696.65Z" fill="#00101B"/>
<path d="M311.69 725.934C314.643 731.983 314.176 736.041 310.288 738.11C307.923 739.362 303.769 739.537 300.703 740.188C300.502 740.231 300.313 740.316 300.149 740.436C299.985 740.557 299.85 740.711 299.752 740.888C295.447 748.422 288.814 756.131 279.817 750.074C279.625 745.318 280.701 741.034 283.045 737.222C288.289 728.7 296.16 723.119 306.734 724.42C308.753 724.662 310.405 725.167 311.69 725.934Z" fill="#7FA2B7"/>
<path d="M730.56 726.585C730.986 730.406 730.727 734.214 729.784 738.01C729.668 738.477 729.376 738.757 728.908 738.849C724.253 739.737 720.524 738.661 716.382 741.99C712.052 745.469 711.163 750.737 704.806 751.751C699.892 752.527 697.39 750.274 697.298 744.993C698.483 739.62 700.844 735.174 704.381 731.653C710.876 725.196 721.888 721.667 730.56 726.585Z" fill="#7FA2B7"/>
<path d="M311.69 725.934C318.757 729.68 323.541 735.128 326.044 742.278C333.239 762.826 309.663 781.847 291.042 770.359C284.001 766.013 280.259 759.251 279.817 750.074C288.815 756.131 295.447 748.422 299.752 740.888C299.85 740.711 299.986 740.557 300.15 740.436C300.314 740.316 300.502 740.231 300.703 740.188C303.769 739.537 307.924 739.362 310.289 738.11C314.176 736.041 314.644 731.983 311.69 725.934Z" fill="#34627B"/>
<path d="M730.56 726.585C731.019 726.51 731.503 726.673 732.012 727.073C736.675 730.71 740.108 735.307 742.311 740.863C747.216 753.215 740.183 767.206 729.046 772.512C715.017 779.207 700.464 767.956 697.122 754.191C696.359 751.075 697.022 748.159 697.297 744.993C697.389 750.274 699.892 752.527 704.806 751.751C711.163 750.737 712.052 745.469 716.381 741.99C720.524 738.661 724.253 739.737 728.908 738.849C729.375 738.757 729.667 738.477 729.784 738.01C730.727 734.214 730.985 730.406 730.56 726.585Z" fill="#34627B"/>
<path d="M556.457 487.663C557.097 493.282 556.6 498.974 554.993 504.415C553.386 509.857 550.701 514.94 547.092 519.376C543.483 523.811 539.02 527.512 533.958 530.267C528.896 533.022 523.334 534.777 517.59 535.431C511.846 536.085 506.032 535.627 500.48 534.081C494.928 532.536 489.747 529.934 485.232 526.424C480.718 522.914 476.959 518.564 474.169 513.624C471.379 508.684 469.614 503.249 468.974 497.631C468.334 492.012 468.831 486.32 470.438 480.878C472.045 475.437 474.729 470.354 478.339 465.918C481.948 461.482 486.411 457.781 491.473 455.027C496.535 452.272 502.097 450.517 507.841 449.863C513.585 449.208 519.399 449.667 524.951 451.212C530.503 452.758 535.684 455.36 540.198 458.87C544.713 462.38 548.472 466.729 551.262 471.67C554.052 476.61 555.817 482.045 556.457 487.663Z" fill="white"/>
<path d="M539.596 483.424C540.848 486.54 541.561 489.806 541.11 493.198C537.469 521.004 502.692 530.252 487.925 505.036C479.478 490.595 487.538 473.025 501.879 466.505C517.309 459.485 533.552 468.432 539.596 483.424Z" fill="#00101B"/>
</svg>
