<svg width="1024" height="1024" viewBox="0 0 1024 1024" fill="none" xmlns="http://www.w3.org/2000/svg">
<rect width="1024" height="1024" fill="white"/>
<path d="M296.062 640.969C296.066 640.846 296.021 640.726 295.938 640.635C295.855 640.543 295.739 640.488 295.616 640.481C265.009 638.988 239.689 618.816 231.891 589.144C230.412 583.517 229.635 575.245 229.561 564.326C229.487 553.296 229.51 542.257 229.631 531.208C229.761 519.499 230.603 510.701 232.156 504.814C239.577 476.565 265.413 454.831 295.183 453.24C295.394 453.229 295.593 453.138 295.738 452.985C295.884 452.832 295.965 452.628 295.964 452.417C295.853 433.501 295.1 412.338 296.927 395.207C301.642 351.217 319.499 313.04 350.496 280.675C376.686 253.333 407.883 234.03 444.089 222.767C493.408 207.431 542.48 208.478 591.306 225.906C639.937 243.26 683.783 279.531 707.61 324.451C718.035 344.112 724.964 365.963 728.396 390.004C731.186 409.492 730.418 431.854 730.237 452.473C730.233 452.675 730.305 452.871 730.44 453.021C730.575 453.171 730.762 453.264 730.963 453.282C769.507 457.272 796.543 486.288 796.459 525.224C796.431 539.239 796.389 553.25 796.334 567.256C796.287 576.352 795.618 583.378 794.325 588.335C788.8 609.553 772.507 628.833 751.679 636.101C745.541 638.24 738.579 639.653 730.795 640.342C730.302 640.388 730.056 640.662 730.056 641.165C730.042 651.376 730.725 665.494 729.749 672.832C727.238 691.539 714.529 700.788 696.198 700.69C675.05 700.57 653.98 700.532 632.99 700.579C632.745 700.579 632.511 700.676 632.339 700.849C632.166 701.021 632.069 701.255 632.069 701.5C632.097 721.765 631.995 742.174 631.762 762.727C631.557 781.272 623.936 795.083 608.898 804.16C597.988 810.744 586.521 812 572.404 811.986C529.269 811.912 486.135 811.916 443.001 812C438.797 812.009 433.784 811.07 427.962 809.182C409.576 803.211 394.188 787.991 393.882 767.624C393.565 745.415 393.403 723.295 393.393 701.262C393.393 701.129 393.367 700.998 393.316 700.875C393.264 700.752 393.189 700.641 393.094 700.547C392.999 700.454 392.887 700.38 392.764 700.33C392.64 700.281 392.508 700.256 392.375 700.258C369.385 700.528 346.385 700.56 323.377 700.356C306.288 700.216 295.532 683.392 295.574 667.531C295.592 658.64 295.755 649.786 296.062 640.969Z" fill="#000F18"/>
<path d="M278.809 300.01C276.424 300.219 274.02 299.95 271.736 299.219C269.451 298.489 267.33 297.311 265.494 295.752C263.658 294.194 262.143 292.286 261.035 290.137C259.928 287.987 259.249 285.639 259.038 283.227C258.827 280.814 259.088 278.384 259.805 276.075C260.523 273.766 261.684 271.624 263.221 269.77C264.759 267.917 266.643 266.388 268.766 265.272C270.888 264.156 273.209 263.474 275.594 263.266C277.979 263.057 280.383 263.325 282.667 264.056C284.952 264.786 287.073 265.965 288.909 267.523C290.745 269.081 292.26 270.99 293.367 273.139C294.475 275.288 295.154 277.636 295.365 280.049C295.576 282.461 295.315 284.891 294.598 287.2C293.88 289.509 292.719 291.652 291.182 293.505C289.644 295.359 287.76 296.887 285.637 298.003C283.514 299.119 281.194 299.801 278.809 300.01Z" fill="#000F18"/>
<path d="M765.114 281.47C765.114 286.313 763.19 290.958 759.765 294.383C756.341 297.807 751.696 299.731 746.853 299.731C742.01 299.731 737.365 297.807 733.94 294.383C730.516 290.958 728.592 286.313 728.592 281.47C728.592 276.627 730.516 271.982 733.94 268.558C737.365 265.133 742.01 263.209 746.853 263.209C751.696 263.209 756.341 265.133 759.765 268.558C763.19 271.982 765.114 276.627 765.114 281.47Z" fill="#000F18"/>
<path d="M272.153 332.082C272.153 334.293 271.717 336.483 270.871 338.526C270.025 340.568 268.784 342.425 267.221 343.988C265.657 345.552 263.801 346.792 261.758 347.638C259.715 348.484 257.526 348.92 255.315 348.92C250.849 348.92 246.566 347.146 243.408 343.988C240.251 340.83 238.477 336.548 238.477 332.082C238.477 327.616 240.251 323.333 243.408 320.176C246.566 317.018 250.849 315.244 255.315 315.244C257.526 315.244 259.715 315.679 261.758 316.526C263.801 317.372 265.657 318.612 267.221 320.176C268.784 321.739 270.025 323.595 270.871 325.638C271.717 327.681 272.153 329.871 272.153 332.082Z" fill="#000F18"/>
<path d="M761.623 346.69C757.813 344.499 755.049 340.848 753.941 336.541C752.832 332.234 753.469 327.623 755.712 323.723C757.955 319.823 761.619 316.953 765.899 315.744C770.18 314.536 774.725 315.088 778.535 317.279C782.346 319.47 785.109 323.12 786.217 327.427C787.326 331.735 786.689 336.345 784.446 340.246C782.203 344.146 778.539 347.016 774.259 348.224C769.979 349.433 765.433 348.881 761.623 346.69Z" fill="#000F18"/>
<path d="M254.63 389.473C254.63 391.419 254.247 393.345 253.503 395.143C252.758 396.94 251.667 398.574 250.291 399.949C248.915 401.325 247.282 402.416 245.485 403.161C243.687 403.905 241.761 404.289 239.815 404.289C235.886 404.289 232.118 402.728 229.339 399.949C226.561 397.171 225 393.403 225 389.473C225 385.544 226.561 381.776 229.339 378.997C232.118 376.219 235.886 374.658 239.815 374.658C241.761 374.658 243.687 375.041 245.485 375.786C247.282 376.53 248.915 377.622 250.291 378.997C251.667 380.373 252.758 382.006 253.503 383.804C254.247 385.601 254.63 387.528 254.63 389.473Z" fill="#000F18"/>
<path d="M774.496 400.031C771.724 397.325 770.156 393.612 770.138 389.709C770.12 385.806 771.653 382.031 774.4 379.217C775.76 377.823 777.377 376.707 779.159 375.932C780.941 375.157 782.852 374.738 784.785 374.7C786.717 374.661 788.633 375.004 790.421 375.709C792.21 376.413 793.837 377.465 795.21 378.804C797.982 381.51 799.55 385.223 799.568 389.126C799.586 393.03 798.053 396.804 795.306 399.619C793.946 401.012 792.329 402.129 790.547 402.904C788.765 403.679 786.854 404.097 784.921 404.135C782.989 404.174 781.073 403.831 779.285 403.127C777.496 402.422 775.869 401.37 774.496 400.031Z" fill="#000F18"/>
<path d="M257.474 746.678C252.006 744.901 247.48 740.985 244.894 735.79C242.307 730.594 241.87 724.547 243.68 718.976C245.49 713.406 249.398 708.77 254.544 706.088C259.691 703.405 265.654 702.896 271.122 704.673C276.59 706.45 281.115 710.366 283.702 715.561C286.289 720.757 286.725 726.804 284.915 732.375C283.106 737.945 279.198 742.581 274.051 745.263C268.905 747.946 262.942 748.455 257.474 746.678Z" fill="#000F18"/>
<path d="M759.437 747.326C756.638 747.185 753.895 746.482 751.364 745.259C748.833 744.035 746.564 742.315 744.687 740.197C742.81 738.078 741.361 735.603 740.423 732.912C739.485 730.22 739.077 727.366 739.222 724.512C739.514 718.748 742.04 713.333 746.244 709.46C750.448 705.586 755.986 703.571 761.639 703.857C764.439 703.999 767.182 704.702 769.713 705.925C772.244 707.148 774.513 708.868 776.39 710.987C778.267 713.105 779.716 715.581 780.654 718.272C781.591 720.963 782 723.817 781.855 726.672C781.563 732.436 779.037 737.851 774.833 741.724C770.629 745.598 765.091 747.613 759.437 747.326Z" fill="#000F18"/>
<path d="M703.744 725.273C703.78 728.21 702.507 731.043 700.204 733.149C697.901 735.254 694.758 736.46 691.465 736.5C688.172 736.54 685 735.412 682.647 733.363C680.293 731.315 678.951 728.513 678.915 725.576C678.879 722.639 680.153 719.805 682.455 717.7C684.758 715.594 687.902 714.389 691.194 714.349C694.487 714.308 697.659 715.437 700.012 717.485C702.366 719.534 703.709 722.335 703.744 725.273Z" fill="#000F18"/>
<path d="M345.404 725.722C345.389 727.202 345.051 728.665 344.412 730.025C343.772 731.386 342.843 732.619 341.676 733.654C340.51 734.688 339.129 735.504 337.614 736.055C336.098 736.606 334.477 736.88 332.843 736.863C331.209 736.846 329.594 736.537 328.09 735.955C326.587 735.373 325.224 734.528 324.079 733.47C322.935 732.411 322.031 731.159 321.42 729.785C320.809 728.411 320.503 726.942 320.518 725.462C320.534 723.981 320.871 722.519 321.51 721.158C322.15 719.797 323.08 718.564 324.246 717.53C325.412 716.495 326.793 715.679 328.308 715.129C329.824 714.578 331.445 714.303 333.079 714.321C334.713 714.338 336.328 714.646 337.832 715.228C339.336 715.811 340.699 716.655 341.843 717.714C342.988 718.773 343.891 720.025 344.502 721.399C345.113 722.773 345.42 724.242 345.404 725.722Z" fill="#000F18"/>
<path d="M347.26 772.144C347.26 775.37 345.979 778.464 343.697 780.746C341.416 783.027 338.322 784.309 335.095 784.309H296.676C293.45 784.309 290.356 783.027 288.075 780.746C285.793 778.464 284.512 775.37 284.512 772.144V771.112C284.512 767.885 285.793 764.791 288.075 762.51C290.356 760.229 293.45 758.947 296.676 758.947H335.095C338.322 758.947 341.416 760.229 343.697 762.51C345.979 764.791 347.26 767.885 347.26 771.112V772.144Z" fill="#000F18"/>
<path d="M740.448 772.143C740.445 773.752 740.125 775.344 739.507 776.829C738.889 778.314 737.985 779.662 736.845 780.798C735.706 781.933 734.354 782.833 732.867 783.446C731.38 784.059 729.787 784.373 728.178 784.37L689.619 784.303C686.371 784.297 683.258 783.001 680.965 780.7C678.672 778.399 677.387 775.282 677.393 772.033L677.394 770.973C677.397 769.364 677.717 767.772 678.335 766.287C678.953 764.802 679.858 763.454 680.997 762.318C682.136 761.183 683.488 760.283 684.975 759.67C686.462 759.057 688.056 758.743 689.664 758.746L728.223 758.813C731.471 758.819 734.584 760.115 736.877 762.416C739.17 764.717 740.455 767.834 740.45 771.083L740.448 772.143Z" fill="#000F18"/>
<path d="M552.413 385.302C552.106 386.716 551.58 387.223 550.836 386.823C549.432 386.07 547.897 385.702 546.233 385.721C528.079 385.935 509.943 385.54 491.827 384.535C490.85 384.479 490.19 384.205 489.846 383.712C489.808 383.647 489.757 383.633 489.692 383.67C489.515 383.754 489.339 383.847 489.162 383.949C488.93 384.07 488.804 384.261 488.785 384.521L488.409 389.208C488.39 389.394 488.325 389.487 488.213 389.487H488.199C488.079 389.478 488.013 389.408 488.004 389.278L487.697 384.061" stroke="#FAA501" stroke-width="2"/>
<path d="M487.697 384.061C487.028 380.834 487.009 377.709 487.642 374.686C487.777 374.058 488.145 373.501 488.674 373.124C492.371 370.515 507.897 358.574 508.093 354.165C508.697 340.392 508.693 326.618 508.079 312.845C507.869 308.269 494.17 297.081 489.441 293.203C487.432 291.57 486.526 289.799 486.358 287.371C485.837 280.024 488.646 275.495 494.784 273.784C498.969 272.612 504.354 273.84 508.218 273.588C515.64 273.1 516.323 265.79 512.389 261.215C506 253.751 483.429 258.09 474.333 258.857" stroke="#FFD980" stroke-width="2"/>
<path d="M487.697 384.061L487.739 396.937" stroke="#FACB80" stroke-width="2"/>
<path d="M440.112 278.639C434.03 279.978 428.087 282.382 422.284 285.851C414.49 290.501 407.334 295.518 400.814 300.903" stroke="#FFD980" stroke-width="2"/>
<path d="M391.566 333.198C391.334 336.388 390.05 339.639 387.716 342.949" stroke="#FACB80" stroke-width="2"/>
<path d="M387.716 342.949C382.289 353.858 370.571 362.577 358.267 363.791C355.569 364.052 353.705 365.2 352.672 367.237C348.134 376.239 346.134 386.121 346.674 396.881" stroke="#FFD980" stroke-width="2"/>
<path d="M409.855 333.268L408.251 333.533C407.749 333.617 407.419 333.905 407.26 334.398C406.73 336.044 405.907 337.648 405.726 339.35C404.768 347.869 404.559 353.338 405.098 355.756C406.112 360.341 409.209 362.731 414.389 362.926C420.127 363.14 424.777 362.712 428.339 361.643C429.651 361.243 430.948 361.619 432.231 362.773C432.566 363.08 432.957 363.252 433.403 363.289C434.436 363.391 435.026 363.112 435.175 362.452" stroke="#FAA501" stroke-width="2"/>
<path d="M387.716 396.909C388.032 395.337 388.451 393.831 388.971 392.389C391.245 386.111 399.936 383.642 401.666 377.141C401.802 376.63 401.799 376.091 401.657 375.58C401.514 375.07 401.238 374.607 400.857 374.24C389.948 363.665 386.181 357.206 389.599 341.359C389.608 341.322 389.594 341.298 389.557 341.289C389.548 341.28 389.534 341.275 389.515 341.275C389.46 341.257 389.427 341.275 389.418 341.331C389.25 342.773 388.683 343.312 387.716 342.949" stroke="#FAA501" stroke-width="2"/>
<path d="M622.193 333.24L620.519 333.296C620.009 333.314 619.527 333.529 619.173 333.896C618.819 334.263 618.621 334.753 618.621 335.263C618.686 348.134 618.659 360.736 618.538 373.068C618.468 380.88 616.822 385.637 613.334 392.166C612.395 393.933 610.712 395.509 608.284 396.895" stroke="#FAA501" stroke-width="2"/>
<path d="M601.322 396.839C600.364 396.067 599.634 395.356 599.131 394.705C598.62 394.045 598.439 393.105 598.587 391.887C599.173 387.158 599.787 382.415 599.871 377.602C599.992 369.306 599.992 360.587 599.871 351.445" stroke="#FAA501" stroke-width="2"/>
<path d="M627.187 333.268C629.381 333.184 631.474 333.635 633.464 334.621C633.864 334.821 634.195 335.142 634.413 335.542C637.203 340.62 639.505 345.963 643.118 350.385C648.447 356.904 654.134 363.094 660.179 368.953C666.415 374.993 671.827 380.88 677.812 386.684C680.044 388.86 682.174 392.231 684.201 396.798" stroke="#FAA501" stroke-width="2"/>
<path d="M513.562 668.298L513.938 619.333" stroke="#E0EDF7" stroke-width="2"/>
<path d="M513.937 619.333C522.224 619.379 530.083 619.416 537.513 619.444C558.76 619.514 558.802 589.074 538.908 589.116C529.711 589.135 520.508 589.065 511.301 588.907" stroke="#607584" stroke-width="2"/>
<path d="M511.301 588.907C512.938 589.084 513.737 588.674 513.7 587.679C513.324 577.245 513.896 564.871 513.7 554.171C513.403 537.942 513.277 521.708 513.324 505.47C513.351 497.086 514.021 487.544 514.175 478.56C514.356 467.693 525.167 461.401 535.072 461.429C545.684 461.466 556.667 461.945 568.023 462.866" stroke="#E0EDF7" stroke-width="2"/>
<path d="M568.022 462.866C536.746 485.41 531.04 526.968 555.272 556.654C582.601 590.107 635.123 585.977 657.862 549.679C671.771 527.47 671.073 497.812 654.166 476.97" stroke="#607584" stroke-width="2"/>
<path d="M654.166 476.97C654.799 476.375 654.873 475.431 654.389 474.138C653.989 473.096 653.771 472.241 653.734 471.571C653.287 463.061 653.078 454.691 652.45 446.182C652.292 444.015 651.836 442.285 651.083 440.992C647.498 434.798 639.532 432.357 632.334 431.269C632.278 431.259 632.092 431.143 631.776 430.92C631.627 430.808 631.576 430.678 631.622 430.529C631.743 430.092 631.581 429.878 631.134 429.888C629.73 429.897 628.419 429.571 627.2 428.911" stroke="#E0EDF7" stroke-width="2"/>
<path d="M654.167 476.97C640.253 459.179 622.295 450.799 600.29 451.831C588.358 452.399 577.603 456.077 568.023 462.866" stroke="#80878C" stroke-width="2"/>
<path d="M511.302 588.907C503.536 588.833 495.766 588.763 487.991 588.698C475.91 588.586 467.428 599.579 473.231 610.823C476.551 617.268 480.778 618.9 488.214 619.026C497.114 619.175 505.689 619.277 513.938 619.333" stroke="#80878C" stroke-width="2"/>
<path d="M296.215 492.162L295.797 499.039C295.785 499.273 295.706 499.498 295.57 499.688C295.434 499.878 295.247 500.026 295.03 500.113C284.748 504.34 278.75 511.859 278.582 523.48C278.331 541.857 278.406 560.23 278.806 578.598C278.889 582.773 278.801 586.977 278.54 591.209C278.523 591.433 278.459 591.651 278.353 591.848C278.248 592.045 278.102 592.217 277.927 592.353L272.402 596.635" stroke="#FFD980" stroke-width="2"/>
<path d="M746.127 602.648C745.959 602.36 745.638 602.243 745.164 602.299C744.727 602.346 744.378 602.546 744.118 602.899C743.839 603.29 743.448 603.373 742.946 603.15C742.574 602.992 742.569 602.82 742.932 602.634L744.146 602.02C744.573 601.806 744.88 601.476 745.066 601.03C746.113 598.505 747.717 596.049 747.745 593.245C747.987 570.776 748.066 548.298 747.982 525.81C747.973 521.606 747.508 518.253 746.587 515.752C744.243 509.362 737.784 501.341 731.828 497.309C731.037 496.779 730.698 495.989 730.809 494.938C730.856 494.51 730.753 494.124 730.502 493.78C730.019 493.129 729.791 491.99 729.819 490.362" stroke="#FAA501" stroke-width="2"/>
<path d="M507.228 700.384L514.091 700.523C514.64 700.542 514.923 700.826 514.942 701.374L515.151 710.665" stroke="#3D576C" stroke-width="2"/>
<path d="M468.446 735.65C469.674 737.519 472.032 738.008 473.496 738.831C480.262 742.639 487.628 745.22 494.757 748.261C497.854 749.572 502.262 751.093 507.981 752.823C515.612 755.111 525.377 758.375 530.107 764.374C533.566 768.773 534.464 773.851 532.799 779.607" stroke="#3D576C" stroke-width="2"/>
<path d="M552.413 385.302C552.106 386.716 551.58 387.223 550.836 386.823C549.432 386.069 547.898 385.702 546.233 385.721C528.079 385.935 509.943 385.539 491.827 384.535C490.85 384.479 490.19 384.205 489.846 383.712C489.809 383.647 489.757 383.633 489.692 383.67C489.516 383.754 489.339 383.847 489.162 383.949C488.93 384.07 488.804 384.261 488.786 384.521L488.409 389.208C488.39 389.394 488.325 389.487 488.214 389.487H488.2C488.079 389.478 488.014 389.408 488.004 389.278L487.697 384.061C487.028 380.833 487.009 377.709 487.642 374.686C487.777 374.058 488.145 373.5 488.674 373.124C492.371 370.515 507.897 358.573 508.093 354.165C508.697 340.391 508.693 326.618 508.079 312.844C507.869 308.269 494.17 297.08 489.441 293.202C487.432 291.57 486.526 289.798 486.358 287.371C485.837 280.024 488.646 275.495 494.784 273.783C498.969 272.612 504.354 273.839 508.218 273.588C515.64 273.1 516.323 265.79 512.389 261.214C506 253.751 483.429 258.089 474.333 258.857C479.532 253.974 484.312 251.003 488.674 249.942C504.382 246.157 519.388 246.171 533.692 249.984C540.29 251.742 552.692 259.484 552.65 267.994C552.613 276.987 552.529 285.841 552.399 294.555C552.394 294.966 552.276 295.367 552.057 295.715C551.837 296.062 551.526 296.342 551.157 296.522C539.923 302.075 532.729 310.212 529.576 320.935C523.703 340.926 531.822 360.122 551.994 367.669C552.134 367.718 552.254 367.811 552.339 367.933C552.424 368.056 552.469 368.202 552.469 368.353L552.413 385.302Z" fill="#FFB301"/>
<path d="M487.696 384.061L487.738 396.937L472.923 396.867C472.43 396.867 472.188 396.62 472.198 396.128L472.714 367.836C472.717 367.557 472.806 367.286 472.968 367.06C473.13 366.833 473.358 366.661 473.62 366.567C491.658 360.108 501.158 339.252 495.69 321.535C491.951 309.468 483.902 302.116 473.439 295.657C473.199 295.508 473.001 295.301 472.862 295.054C472.723 294.808 472.648 294.531 472.644 294.249C472.56 283.525 472.523 272.751 472.532 261.926C472.532 260.986 473.132 259.963 474.332 258.857C483.428 258.089 505.999 253.751 512.388 261.214C516.322 265.79 515.639 273.1 508.217 273.588C504.353 273.839 498.968 272.612 494.783 273.783C488.645 275.495 485.836 280.024 486.357 287.371C486.524 289.798 487.431 291.57 489.44 293.202C494.169 297.08 507.868 308.269 508.078 312.844C508.691 326.618 508.696 340.391 508.092 354.165C507.896 358.573 492.37 370.515 488.673 373.123C488.144 373.5 487.775 374.058 487.641 374.686C487.008 377.708 487.027 380.833 487.696 384.061Z" fill="white"/>
<path d="M440.113 278.638C434.03 279.977 428.087 282.382 422.284 285.85C414.491 290.501 407.334 295.518 400.815 300.903L378.927 300.917C378.797 300.917 378.67 300.88 378.561 300.81C378.452 300.74 378.366 300.64 378.313 300.522C378.26 300.404 378.242 300.273 378.262 300.145C378.282 300.017 378.338 299.897 378.424 299.801C395.36 280.508 415.867 268.301 439.513 259.15C439.978 258.973 440.21 259.131 440.21 259.624L440.113 278.638Z" fill="white"/>
<path d="M585.336 259.205C607.796 265.971 630.842 283.284 647.052 299.773C648.168 300.908 647.926 301.452 646.326 301.405C631.902 300.959 617.133 300.922 602.02 301.294C600.067 301.34 597.919 302.521 595.575 304.837C595.454 304.958 595.29 305.028 595.117 305.033C594.944 305.038 594.774 304.978 594.641 304.865L584.708 296.439C584.617 296.365 584.543 296.271 584.492 296.162C584.441 296.053 584.415 295.933 584.415 295.811C584.429 293.886 585.001 291.793 584.945 290.077C584.648 280.098 584.517 270.003 584.555 259.791C584.555 259.697 584.578 259.604 584.62 259.519C584.663 259.435 584.724 259.362 584.8 259.305C584.876 259.248 584.963 259.21 585.056 259.193C585.149 259.175 585.245 259.18 585.336 259.205Z" fill="#FFB301"/>
<path d="M440.112 278.638L440.377 295.113C440.387 295.532 440.238 295.881 439.931 296.16L430.515 304.725C430.152 305.051 429.771 305.074 429.371 304.795C421.21 299.089 408.78 301.182 400.814 300.903C407.334 295.518 414.49 290.501 422.284 285.85C428.087 282.382 434.03 279.977 440.112 278.638Z" fill="#FFB301"/>
<path d="M468.178 331.881C467.973 334.552 466.694 337.03 464.624 338.771C462.553 340.511 459.861 341.371 457.138 341.162C455.79 341.058 454.476 340.695 453.269 340.093C452.063 339.491 450.988 338.662 450.107 337.654C449.226 336.645 448.555 335.477 448.133 334.215C447.711 332.954 447.547 331.624 447.648 330.301C447.854 327.631 449.132 325.152 451.203 323.412C453.273 321.672 455.966 320.812 458.688 321.021C460.036 321.125 461.351 321.488 462.557 322.09C463.764 322.692 464.838 323.521 465.72 324.529C466.601 325.538 467.271 326.706 467.693 327.967C468.115 329.229 468.28 330.559 468.178 331.881Z" fill="#FFB301"/>
<path d="M576.91 333.448C576.629 334.746 576.086 335.974 575.311 337.062C574.536 338.15 573.546 339.076 572.395 339.789C571.244 340.501 569.957 340.984 568.605 341.212C567.254 341.44 565.865 341.407 564.518 341.116C563.172 340.825 561.894 340.281 560.757 339.515C559.621 338.75 558.648 337.777 557.894 336.653C557.14 335.529 556.621 334.276 556.365 332.966C556.109 331.655 556.121 330.312 556.402 329.014C556.683 327.716 557.226 326.487 558 325.399C558.775 324.311 559.766 323.385 560.917 322.673C562.067 321.961 563.355 321.477 564.706 321.249C566.058 321.021 567.447 321.054 568.793 321.345C570.14 321.636 571.418 322.18 572.554 322.946C573.691 323.712 574.664 324.684 575.418 325.808C576.171 326.932 576.691 328.185 576.947 329.496C577.203 330.807 577.19 332.149 576.91 333.448Z" fill="#FFB301"/>
<path d="M391.565 333.198C391.333 336.388 390.049 339.638 387.715 342.949C382.288 353.858 370.57 362.577 358.266 363.791C355.569 364.051 353.704 365.2 352.672 367.236C348.133 376.239 346.134 386.121 346.673 396.881L330.895 396.895C330.791 396.895 330.687 396.874 330.592 396.832C330.496 396.789 330.411 396.727 330.341 396.65C330.271 396.572 330.218 396.48 330.186 396.38C330.155 396.281 330.144 396.176 330.156 396.072C331.928 379.708 334.104 365.256 342.112 350.957C342.353 350.519 342.725 350.31 343.228 350.329C360.61 350.859 369.663 350.161 378.215 334.049C378.429 333.63 378.773 333.416 379.247 333.407L391.565 333.198Z" fill="white"/>
<path d="M391.566 333.198L409.855 333.268L408.251 333.533C407.748 333.616 407.418 333.905 407.26 334.397C406.73 336.044 405.907 337.648 405.726 339.35C404.768 347.869 404.558 353.337 405.098 355.755C406.112 360.34 409.209 362.731 414.389 362.926C420.127 363.14 424.777 362.712 428.339 361.642C429.65 361.243 430.948 361.619 432.231 362.772C432.566 363.079 432.957 363.251 433.403 363.289C434.435 363.391 435.026 363.112 435.175 362.452L439.946 365.102C440.165 365.225 440.348 365.402 440.475 365.616C440.603 365.829 440.67 366.071 440.671 366.316L440.657 395.793C440.657 396.035 440.561 396.267 440.388 396.439C440.216 396.611 439.982 396.71 439.736 396.713L387.716 396.909C388.032 395.337 388.451 393.83 388.971 392.389C391.245 386.111 399.936 383.642 401.666 377.141C401.802 376.629 401.799 376.09 401.657 375.58C401.514 375.07 401.238 374.607 400.857 374.24C389.948 363.665 386.181 357.206 389.599 341.359C389.608 341.321 389.594 341.298 389.557 341.289C389.548 341.28 389.534 341.275 389.515 341.275C389.46 341.256 389.427 341.275 389.418 341.331C389.25 342.772 388.683 343.312 387.716 342.949C390.05 339.638 391.334 336.388 391.566 333.198Z" fill="#F49700"/>
<path d="M622.191 333.24L620.517 333.295C620.008 333.314 619.525 333.529 619.171 333.896C618.817 334.263 618.62 334.753 618.62 335.262C618.685 348.134 618.657 360.736 618.536 373.068C618.467 380.88 616.82 385.637 613.333 392.166C612.394 393.933 610.71 395.509 608.283 396.895L601.322 396.839C600.364 396.067 599.634 395.356 599.131 394.705C598.62 394.044 598.439 393.105 598.587 391.887C599.173 387.158 599.787 382.414 599.871 377.602C599.992 369.306 599.992 360.587 599.871 351.445C602.373 346.655 604.061 340.987 604.935 334.439C604.991 334.012 605.232 333.788 605.66 333.77L622.191 333.24Z" fill="#F49700"/>
<path d="M622.192 333.24L627.186 333.268C629.381 333.184 631.473 333.635 633.463 334.621C633.863 334.821 634.194 335.142 634.412 335.541C637.202 340.619 639.504 345.962 643.117 350.385C648.446 356.904 654.133 363.093 660.178 368.952C666.414 374.993 671.827 380.88 677.811 386.683C680.044 388.859 682.173 392.231 684.201 396.797L608.283 396.895C610.711 395.509 612.394 393.933 613.333 392.166C616.821 385.637 618.467 380.88 618.537 373.068C618.658 360.736 618.685 348.134 618.62 335.262C618.62 334.753 618.818 334.263 619.172 333.896C619.526 333.529 620.008 333.314 620.518 333.295L622.192 333.24Z" fill="#FFB301"/>
<path d="M627.187 333.268L644.555 333.421C644.767 333.421 644.975 333.482 645.155 333.599C645.336 333.715 645.481 333.88 645.573 334.077C653.427 351.012 664.336 352.17 681.802 351.138C682.449 351.101 683.093 351.257 683.649 351.585C684.206 351.913 684.651 352.398 684.927 352.979C691.437 366.632 695.129 381.029 696.003 396.169C696.022 396.514 695.864 396.686 695.529 396.686L684.201 396.797C682.174 392.231 680.044 388.859 677.812 386.683C671.827 380.88 666.415 374.993 660.179 368.952C654.134 363.093 648.447 356.904 643.118 350.385C639.505 345.962 637.203 340.619 634.413 335.541C634.195 335.142 633.864 334.821 633.464 334.621C631.474 333.635 629.381 333.184 627.187 333.268Z" fill="#F49700"/>
<path d="M409.855 333.268L419.313 333.323C419.453 333.325 419.59 333.354 419.718 333.409C419.846 333.464 419.962 333.544 420.059 333.644C420.156 333.744 420.233 333.861 420.284 333.991C420.336 334.12 420.362 334.258 420.36 334.398C420.202 346.293 425.14 355.644 435.175 362.452C435.026 363.112 434.436 363.391 433.403 363.289C432.957 363.251 432.566 363.079 432.231 362.772C430.948 361.619 429.651 361.243 428.339 361.642C424.777 362.712 420.127 363.14 414.389 362.926C409.209 362.731 406.112 360.34 405.098 355.755C404.559 353.337 404.768 347.869 405.726 339.35C405.907 337.648 406.73 336.044 407.26 334.398C407.419 333.905 407.749 333.616 408.251 333.533L409.855 333.268Z" fill="#FFB301"/>
<path d="M387.716 396.909L346.674 396.881C346.134 386.121 348.134 376.239 352.672 367.237C353.705 365.2 355.569 364.051 358.267 363.791C370.571 362.577 382.289 353.858 387.716 342.949C388.683 343.312 389.25 342.772 389.418 341.331C389.427 341.275 389.459 341.256 389.515 341.275C389.534 341.275 389.548 341.28 389.557 341.289C389.594 341.298 389.608 341.322 389.599 341.359C386.181 357.206 389.948 363.665 400.857 374.24C401.238 374.607 401.514 375.07 401.656 375.58C401.799 376.09 401.802 376.629 401.666 377.141C399.936 383.642 391.245 386.111 388.971 392.389C388.45 393.83 388.032 395.337 387.716 396.909Z" fill="#FFB301"/>
<path d="M599.871 351.445C599.992 360.587 599.992 369.306 599.871 377.601C599.787 382.414 599.173 387.157 598.587 391.887C598.439 393.105 598.62 394.044 599.132 394.705C599.634 395.356 600.364 396.067 601.322 396.839L585.656 396.895C585.566 396.897 585.478 396.881 585.395 396.848C585.312 396.815 585.237 396.766 585.173 396.704C585.109 396.641 585.059 396.567 585.024 396.485C584.99 396.402 584.972 396.314 584.972 396.225L584.958 366.497C584.958 366.042 585.068 365.594 585.28 365.192C585.492 364.791 585.798 364.449 586.172 364.195C590.422 361.312 594.988 357.062 599.871 351.445Z" fill="#FFB301"/>
<path d="M552.413 385.302L552.496 396.197C552.496 396.69 552.245 396.937 551.743 396.937H487.739L487.697 384.061L488.004 389.278C488.013 389.408 488.079 389.478 488.199 389.487H488.213C488.325 389.487 488.39 389.394 488.409 389.208L488.785 384.521C488.804 384.261 488.93 384.07 489.162 383.949C489.339 383.847 489.515 383.754 489.692 383.67C489.757 383.633 489.808 383.647 489.846 383.712C490.19 384.205 490.85 384.479 491.827 384.535C509.943 385.539 528.079 385.935 546.233 385.721C547.897 385.702 549.432 386.069 550.836 386.823C551.58 387.223 552.106 386.716 552.413 385.302Z" fill="#F49700"/>
<path d="M513.561 668.298L513.937 619.332C522.224 619.379 530.083 619.416 537.513 619.444C558.76 619.514 558.802 589.074 538.908 589.116C529.711 589.135 520.508 589.065 511.301 588.907C512.938 589.083 513.737 588.674 513.7 587.679C513.324 577.244 513.896 564.87 513.7 554.17C513.403 537.942 513.277 521.708 513.324 505.47C513.351 497.086 514.021 487.544 514.175 478.56C514.356 467.693 525.167 461.401 535.072 461.429C545.684 461.466 556.667 461.945 568.023 462.866C536.746 485.41 531.04 526.967 555.272 556.654C582.601 590.106 635.124 585.977 657.863 549.678C671.771 527.47 671.074 497.811 654.166 476.97C654.798 476.374 654.873 475.43 654.389 474.138C653.989 473.096 653.77 472.24 653.733 471.571C653.287 463.061 653.078 454.691 652.45 446.181C652.292 444.014 651.836 442.285 651.083 440.992C647.498 434.798 639.532 432.357 632.334 431.268C632.278 431.259 632.092 431.143 631.776 430.92C631.627 430.808 631.576 430.678 631.622 430.529C631.743 430.092 631.58 429.878 631.134 429.887C629.729 429.897 628.418 429.571 627.2 428.911L696.017 428.841C696.351 428.841 696.519 429.008 696.519 429.343L696.589 667.586C696.589 668.126 696.319 668.395 695.78 668.395L513.561 668.298Z" fill="#C0DBEF"/>
<path d="M627.201 428.911C628.419 429.571 629.73 429.897 631.135 429.887C631.581 429.878 631.744 430.092 631.623 430.529C631.576 430.678 631.628 430.808 631.776 430.92C632.093 431.143 632.279 431.259 632.334 431.268C639.533 432.356 647.498 434.798 651.084 440.992C651.837 442.284 652.293 444.014 652.451 446.181C653.078 454.691 653.288 463.061 653.734 471.571C653.771 472.24 653.99 473.096 654.39 474.138C654.873 475.43 654.799 476.374 654.167 476.969C640.253 459.178 622.295 450.799 600.291 451.831C588.358 452.398 577.603 456.077 568.024 462.866C556.668 461.945 545.684 461.466 535.073 461.429C525.168 461.401 514.357 467.693 514.175 478.56C514.022 487.544 513.352 497.086 513.324 505.47C513.278 521.708 513.403 537.942 513.701 554.17C513.896 564.87 513.324 577.244 513.701 587.679C513.738 588.674 512.938 589.083 511.302 588.907C503.536 588.832 495.766 588.762 487.991 588.697C475.91 588.586 467.428 599.579 473.231 610.823C476.551 617.268 480.778 618.9 488.214 619.025C497.114 619.174 505.689 619.276 513.938 619.332L513.562 668.298L330.91 668.27C329.99 668.27 329.529 667.81 329.529 666.889L329.557 429.65C329.557 429.454 329.634 429.266 329.77 429.127C329.906 428.989 330.09 428.911 330.283 428.911H627.201Z" fill="white"/>
<path d="M654.166 476.969C671.073 497.811 671.771 527.47 657.862 549.678C635.123 585.977 582.601 590.106 555.272 556.654C531.04 526.967 536.746 485.409 568.022 462.866C577.602 456.077 588.357 452.398 600.29 451.831C622.294 450.799 640.252 459.178 654.166 476.969Z" fill="#000F18"/>
<path d="M296.217 492.161L295.798 499.039C295.786 499.272 295.707 499.498 295.571 499.688C295.435 499.878 295.248 500.026 295.031 500.113C284.749 504.34 278.751 511.859 278.583 523.48C278.332 541.857 278.407 560.229 278.807 578.597C278.89 582.773 278.802 586.977 278.542 591.208C278.524 591.433 278.46 591.65 278.354 591.847C278.249 592.044 278.103 592.216 277.928 592.352L272.403 596.635C266.614 590.957 263.405 581.764 263.364 573.771C263.289 560.406 263.275 547.042 263.322 533.677C263.368 521.364 264.159 513.026 265.693 508.665C269.599 497.546 282.183 486.511 295.017 485.647C295.142 485.637 295.268 485.653 295.386 485.693C295.505 485.733 295.615 485.797 295.708 485.88C295.802 485.963 295.878 486.065 295.932 486.178C295.986 486.291 296.016 486.414 296.021 486.539L296.217 492.161Z" fill="white"/>
<path d="M746.128 602.648C745.961 602.359 745.64 602.243 745.165 602.299C744.728 602.345 744.38 602.545 744.119 602.899C743.84 603.289 743.45 603.373 742.947 603.15C742.575 602.992 742.571 602.82 742.933 602.634L744.147 602.02C744.575 601.806 744.882 601.476 745.068 601.029C746.114 598.504 747.718 596.049 747.746 593.245C747.988 570.776 748.067 548.297 747.983 525.809C747.974 521.606 747.509 518.253 746.588 515.751C744.245 509.362 737.786 501.341 731.829 497.309C731.038 496.779 730.699 495.988 730.811 494.937C730.857 494.51 730.755 494.124 730.504 493.78C730.02 493.129 729.792 491.989 729.82 490.362L729.736 487.042C729.734 486.891 729.765 486.743 729.826 486.606C729.888 486.469 729.979 486.348 730.093 486.252C730.207 486.156 730.34 486.086 730.484 486.049C730.627 486.012 730.777 486.008 730.922 486.037C746.044 488.957 755.782 497.03 760.134 510.255C761.418 514.161 762.078 519.815 762.115 527.218C762.18 542.722 762.227 558.221 762.255 573.715C762.283 585.963 755.865 595.979 746.128 602.648Z" fill="#FFB301"/>
<path d="M729.819 490.362C729.791 491.989 730.019 493.129 730.502 493.78C730.753 494.124 730.856 494.51 730.809 494.938C730.698 495.988 731.037 496.779 731.828 497.309C737.784 501.341 744.243 509.362 746.587 515.751C747.508 518.253 747.973 521.606 747.982 525.81C748.066 548.297 747.987 570.776 747.745 593.245C747.717 596.049 746.113 598.504 745.066 601.029C744.88 601.476 744.574 601.806 744.146 602.02L742.932 602.634C742.569 602.82 742.574 602.992 742.946 603.15C743.448 603.373 743.839 603.289 744.118 602.899C744.378 602.545 744.727 602.345 745.164 602.299C745.638 602.243 745.959 602.359 746.127 602.648C741.793 605.587 736.785 607.591 731.102 608.66C730.936 608.691 730.766 608.685 730.603 608.644C730.44 608.602 730.288 608.525 730.159 608.418C730.029 608.311 729.926 608.178 729.855 608.027C729.784 607.876 729.748 607.711 729.749 607.544L729.819 490.362Z" fill="#F49700"/>
<path d="M296.215 492.161L296.467 607.865C296.476 608.032 296.397 608.107 296.229 608.088C286.567 607.428 278.624 603.61 272.402 596.635L277.927 592.352C278.102 592.216 278.248 592.044 278.353 591.847C278.459 591.65 278.523 591.433 278.54 591.208C278.801 586.977 278.889 582.773 278.806 578.597C278.406 560.229 278.331 541.857 278.582 523.48C278.75 511.859 284.748 504.34 295.03 500.113C295.247 500.026 295.434 499.878 295.57 499.688C295.706 499.497 295.785 499.272 295.797 499.039L296.215 492.161Z" fill="#FFB301"/>
<path d="M511.302 588.907C520.509 589.065 529.711 589.135 538.909 589.116C558.802 589.074 558.76 619.514 537.514 619.444C530.083 619.416 522.225 619.379 513.938 619.332C505.689 619.277 497.114 619.174 488.214 619.025C480.778 618.9 476.551 617.268 473.231 610.823C467.428 599.579 475.91 588.586 487.991 588.697C495.766 588.763 503.536 588.832 511.302 588.907Z" fill="#000F18"/>
<path d="M507.229 700.383L514.092 700.523C514.641 700.542 514.925 700.825 514.943 701.374L515.152 710.665C501.872 710.581 488.749 708.033 475.785 703.02C473.999 702.323 472.483 701.592 471.237 700.83C470.484 700.365 470.549 700.137 471.432 700.146L507.229 700.383Z" fill="#556D82"/>
<path d="M507.228 700.383L554.087 700.216C557.537 700.207 557.667 700.862 554.477 702.183C541.922 707.373 528.813 710.2 515.151 710.665L514.942 701.374C514.923 700.825 514.64 700.542 514.091 700.523L507.228 700.383Z" fill="#254156"/>
<path d="M468.446 735.65C469.673 737.519 472.031 738.007 473.496 738.83C480.262 742.639 487.627 745.22 494.756 748.261C497.853 749.572 502.261 751.093 507.981 752.823C515.612 755.11 525.377 758.375 530.106 764.373C533.566 768.772 534.463 773.85 532.798 779.607C505.409 779.598 478.499 779.686 452.068 779.872C439.471 779.97 425.981 778.519 425.925 762.406C425.869 745.22 425.86 728.144 425.897 711.181C425.9 711.075 425.932 710.972 425.99 710.883C426.048 710.794 426.129 710.723 426.225 710.679C426.32 710.635 426.425 710.62 426.528 710.635C426.63 710.649 426.726 710.694 426.804 710.762C439.313 721.402 453.193 729.698 468.446 735.65Z" fill="#556D82"/>
<path d="M532.799 779.607C534.464 773.85 533.566 768.772 530.107 764.373C525.377 758.375 515.612 755.11 507.981 752.823C502.262 751.093 497.854 749.572 494.757 748.261C487.628 745.22 480.262 742.639 473.496 738.83C472.032 738.007 469.674 737.519 468.446 735.65C492.497 742.597 520.104 746.336 544.81 739.779C563.922 734.701 583.132 725.02 598.268 712.311C598.63 712.004 598.877 711.86 599.007 711.878C599.246 711.909 599.465 712.026 599.622 712.206C599.779 712.387 599.863 712.618 599.858 712.855C599.7 728.145 599.556 743.336 599.426 758.431C599.3 772.772 595.045 779.635 580.397 779.775C564.141 779.942 548.275 779.886 532.799 779.607Z" fill="#254156"/>
<path d="M585.684 508.372C581.099 506.605 578.625 502.838 578.263 497.072" stroke="#92A0AB" stroke-width="2"/>
<path d="M584.178 513.296L571.218 512.278" stroke="#156B9B" stroke-width="2"/>
<path d="M485.549 515.612C485.549 532.513 478.836 548.722 466.885 560.672C454.934 572.623 438.725 579.337 421.825 579.337C404.924 579.337 388.715 572.623 376.764 560.672C364.813 548.722 358.1 532.513 358.1 515.612C358.1 507.243 359.748 498.957 362.95 491.225C366.153 483.494 370.847 476.469 376.764 470.552C382.682 464.634 389.707 459.94 397.438 456.738C405.17 453.535 413.456 451.887 421.825 451.887C430.193 451.887 438.48 453.535 446.211 456.738C453.943 459.94 460.967 464.634 466.885 470.552C472.802 476.469 477.496 483.494 480.699 491.225C483.901 498.957 485.549 507.243 485.549 515.612Z" fill="#000F18"/>
<path d="M585.684 508.372C581.099 506.605 578.625 502.838 578.263 497.072C582.392 482.34 602.759 485.368 598.63 501.536C597.249 506.963 590.665 509.111 585.684 508.372Z" fill="white"/>
<path d="M578.263 497.072C578.625 502.838 581.099 506.605 585.684 508.372C583.229 509.599 584.777 511.497 584.178 513.296L571.218 512.278C571.525 505.916 573.873 500.848 578.263 497.072Z" fill="#254156"/>
<path d="M571.217 512.278L584.177 513.296C585.507 516.97 587.562 520.206 590.343 523.006C599.355 532.087 618.383 527.93 620.601 514.44C620.964 512.208 621.941 510.869 624.382 510.66C628.288 510.325 631.882 510.278 635.165 510.52C635.873 510.574 636.533 510.896 637.008 511.421C637.484 511.946 637.738 512.632 637.718 513.338C637.309 527.967 630.999 538.318 618.788 544.391C610.222 548.66 599.146 548.772 590.287 544.88C579.257 540.025 572.784 531.036 570.869 517.914C570.571 515.914 570.687 514.036 571.217 512.278Z" fill="#0594E0"/>
<path d="M364.634 638.752C361.106 638.205 357.951 636.204 355.863 633.189C353.775 630.173 352.925 626.39 353.501 622.672C353.786 620.83 354.413 619.06 355.344 617.463C356.276 615.865 357.496 614.471 358.932 613.361C360.369 612.25 361.996 611.444 363.719 610.99C365.442 610.535 367.228 610.44 368.975 610.711C372.504 611.257 375.659 613.258 377.747 616.273C379.834 619.289 380.684 623.072 380.108 626.791C379.823 628.632 379.197 630.402 378.265 631.999C377.333 633.597 376.114 634.991 374.677 636.101C373.24 637.212 371.614 638.018 369.89 638.472C368.167 638.927 366.381 639.022 364.634 638.752Z" fill="#000F18"/>
<path d="M415.898 638.806C414.125 639.115 412.308 639.061 410.548 638.648C408.789 638.234 407.122 637.468 405.643 636.394C404.165 635.32 402.903 633.959 401.93 632.388C400.957 630.817 400.292 629.068 399.973 627.24C399.654 625.412 399.687 623.541 400.07 621.733C400.454 619.926 401.18 618.218 402.207 616.706C403.235 615.195 404.544 613.91 406.059 612.924C407.574 611.939 409.266 611.273 411.038 610.963C412.811 610.654 414.628 610.708 416.388 611.122C418.147 611.536 419.814 612.301 421.293 613.375C422.771 614.449 424.033 615.811 425.006 617.381C425.979 618.952 426.644 620.701 426.963 622.529C427.282 624.358 427.249 626.229 426.866 628.036C426.482 629.844 425.756 631.552 424.729 633.063C423.701 634.574 422.392 635.86 420.877 636.845C419.362 637.83 417.67 638.497 415.898 638.806Z" fill="#000F18"/>
<path d="M657.056 638.77C655.252 638.666 653.487 638.2 651.862 637.4C650.236 636.6 648.782 635.481 647.582 634.106C646.382 632.732 645.459 631.129 644.867 629.389C644.275 627.65 644.025 625.807 644.131 623.967C644.237 622.127 644.697 620.326 645.486 618.666C646.274 617.006 647.374 615.52 648.725 614.292C650.075 613.065 651.648 612.12 653.355 611.512C655.061 610.904 656.868 610.644 658.671 610.748C660.475 610.852 662.239 611.318 663.865 612.118C665.49 612.918 666.945 614.037 668.145 615.412C669.345 616.786 670.267 618.389 670.86 620.129C671.452 621.869 671.702 623.711 671.596 625.551C671.49 627.391 671.029 629.192 670.241 630.852C669.453 632.512 668.352 633.999 667.002 635.226C665.652 636.454 664.079 637.398 662.372 638.006C660.665 638.614 658.859 638.874 657.056 638.77Z" fill="#000F18"/>
<path d="M610.872 638.714C609.071 638.648 607.3 638.223 605.661 637.463C604.022 636.704 602.548 635.625 601.321 634.287C600.095 632.95 599.14 631.381 598.513 629.669C597.885 627.957 597.597 626.137 597.664 624.312C597.799 620.625 599.374 617.143 602.042 614.631C604.71 612.119 608.253 610.782 611.891 610.916C613.693 610.982 615.463 611.407 617.102 612.166C618.741 612.926 620.216 614.005 621.442 615.342C622.669 616.68 623.623 618.249 624.25 619.961C624.878 621.672 625.166 623.493 625.099 625.318C624.964 629.004 623.389 632.486 620.721 634.999C618.053 637.511 614.51 638.847 610.872 638.714Z" fill="#000F18"/>
<path d="M397.313 504.34L395.723 499.988" stroke="#92A0AB" stroke-width="2"/>
<path d="M401.178 511.511C396.807 509.865 392.85 509.948 389.307 511.762" stroke="#156B9B" stroke-width="2"/>
<path d="M397.314 504.34L395.724 499.988C395.71 492.315 401.904 486.33 409.451 487.725C415.798 488.911 418.714 497.867 415.198 503.043C410.943 509.32 402.796 510.213 397.314 504.34Z" fill="white"/>
<path d="M395.724 499.988L397.314 504.34C396.003 504.461 395.491 505.531 395.78 507.549C395.835 507.986 396.049 508.321 396.421 508.553L401.178 511.511C396.807 509.865 392.85 509.948 389.307 511.762C389.948 506.6 391.567 501.16 395.04 497.351C395.449 496.895 395.663 496.974 395.682 497.588L395.724 499.988Z" fill="#254156"/>
<path d="M389.307 511.762C392.85 509.948 396.807 509.865 401.178 511.511C401.885 513.25 403.043 515.477 404.652 518.193C414.347 534.557 435.119 530.734 438.44 512.027C438.588 511.218 439.067 510.799 439.877 510.771L453.757 510.325C454.241 510.306 454.52 510.539 454.594 511.022C455.533 517.681 454.627 523.624 451.874 528.851C440.156 551.074 409.618 554.366 394.608 533.552C390.051 527.237 388.284 519.974 389.307 511.762Z" fill="#0594E0"/>
</svg>
