<svg width="1024" height="1024" viewBox="0 0 1024 1024" fill="none" xmlns="http://www.w3.org/2000/svg">
<rect width="1024" height="1024" fill="white"/>
<path d="M494.922 216.049C498.627 225.836 497.505 238.251 484.146 237.542C473.045 236.952 471.333 224.419 474.861 216.33" stroke="#808C85" stroke-width="2"/>
<path d="M662.51 301.136C679.24 315.209 694.376 330.63 707.917 347.4" stroke="#808C85" stroke-width="2"/>
<path d="M716.021 357.94L573.57 357.822C573.137 357.822 572.712 357.697 572.348 357.461C571.984 357.226 571.695 356.889 571.519 356.493C566.992 346.357 562.041 336.27 556.668 326.232C554.941 322.999 552.535 320.224 548.948 320.224C508.56 320.243 468.177 320.258 427.798 320.268C422.528 320.268 418.07 320.106 415.989 324.608C410.901 335.571 405.385 346.362 399.441 356.98C399.329 357.178 399.168 357.343 398.973 357.46C398.779 357.576 398.559 357.64 398.334 357.645L352.277 357.674C352.138 357.675 352 357.646 351.873 357.59C351.746 357.534 351.632 357.452 351.539 357.349C351.445 357.246 351.375 357.124 351.332 356.992C351.288 356.86 351.274 356.72 351.288 356.582C351.805 351.637 350.772 347.651 344.911 347.592C324.422 347.366 307.185 347.356 293.201 347.562C287.207 347.651 287.266 352.257 286.986 356.759C286.956 357.29 286.676 357.561 286.145 357.571L250.51 357.94" stroke="#808C85" stroke-width="2"/>
<path d="M257.538 346.869C271.355 330.444 286.624 314.949 303.344 300.384" stroke="#808C85" stroke-width="2"/>
<path d="M648.871 289.474C648.32 289.258 647.735 288.923 647.115 288.471C608.646 260.541 562.501 243.418 515.366 237.572C515.179 237.548 514.998 237.488 514.834 237.393C514.671 237.299 514.528 237.172 514.415 237.022C514.302 236.872 514.221 236.7 514.176 236.518C514.132 236.336 514.125 236.148 514.156 235.963L517.02 219.149" stroke="#808C85" stroke-width="2"/>
<path d="M453.043 216.861L456.542 236.037C456.586 236.283 456.579 236.535 456.521 236.778C456.463 237.021 456.356 237.248 456.206 237.447C456.056 237.646 455.867 237.81 455.65 237.931C455.434 238.052 455.194 238.125 454.947 238.148C435.206 240.037 415.848 244.215 396.875 250.68C376.622 257.589 358.829 265.295 343.496 273.797C339.481 276.021 331.165 281.223 318.549 289.401" stroke="#808C85" stroke-width="2"/>
<path d="M661.433 753.865C597.141 753.58 491.865 753.491 345.606 753.599C329.949 753.609 317.628 753.855 308.643 754.337" stroke="#808C85" stroke-width="2"/>
<path d="M494.922 216.05C498.627 225.837 497.505 238.251 484.146 237.543C473.045 236.952 471.333 224.419 474.861 216.33C481.563 210.652 488.25 210.558 494.922 216.05Z" fill="#010818"/>
<path d="M453.044 216.862L456.543 236.037C456.587 236.283 456.58 236.535 456.522 236.778C456.465 237.021 456.357 237.249 456.207 237.447C456.057 237.646 455.868 237.811 455.651 237.931C455.435 238.052 455.195 238.126 454.949 238.148C435.207 240.038 415.85 244.215 396.876 250.681C376.623 257.589 358.83 265.295 343.497 273.798C339.482 276.022 331.166 281.223 318.55 289.401L306.785 273.104C306.398 272.564 306.241 271.892 306.349 271.236C306.457 270.58 306.821 269.993 307.361 269.605C316.346 263.12 325.832 257.196 335.821 251.832C361.467 238.055 388.491 227.879 416.893 221.305C428.299 218.668 439.783 216.394 451.347 214.485C452.98 214.219 453.546 215.012 453.044 216.862Z" fill="#010818"/>
<path d="M648.871 289.474C648.32 289.257 647.735 288.923 647.115 288.47C608.646 260.541 562.501 243.417 515.366 237.572C515.179 237.548 514.998 237.487 514.834 237.393C514.671 237.298 514.528 237.172 514.415 237.022C514.302 236.871 514.221 236.7 514.176 236.518C514.132 236.336 514.125 236.147 514.156 235.963L517.02 219.149C517.226 217.24 517.841 215.833 518.865 214.927C519.249 214.583 519.691 214.445 520.193 214.514C570.767 221.201 618.329 239.166 659.795 268.926C660.351 269.324 660.729 269.924 660.848 270.597C660.966 271.27 660.816 271.963 660.43 272.527L648.871 289.474Z" fill="#010818"/>
<path d="M474.861 216.33C471.333 224.419 473.045 236.952 484.146 237.542C497.506 238.251 498.628 225.836 494.922 216.049C501.693 216.925 508.356 217.25 514.91 217.024C515.638 216.994 516.155 217.127 516.46 217.422C516.873 217.816 517.06 218.392 517.021 219.149L514.157 235.963C514.126 236.147 514.133 236.336 514.177 236.518C514.222 236.7 514.303 236.872 514.416 237.022C514.529 237.172 514.672 237.298 514.835 237.393C514.999 237.487 515.18 237.548 515.367 237.572C562.502 243.418 608.647 260.541 647.116 288.47C647.736 288.923 648.321 289.258 648.873 289.474C648.981 289.533 649.064 289.632 649.123 289.769C649.183 289.897 649.271 290.011 649.389 290.109L662.512 301.136C679.242 315.209 694.378 330.63 707.919 347.399C711.354 350.027 714.055 353.54 716.024 357.939L573.573 357.821C573.139 357.822 572.714 357.697 572.35 357.461C571.986 357.225 571.698 356.889 571.521 356.493C566.994 346.356 562.044 336.269 556.671 326.231C554.944 322.998 552.537 320.223 548.95 320.223C508.562 320.243 468.179 320.257 427.801 320.267C422.531 320.267 418.073 320.105 415.991 324.607C410.903 335.57 405.387 346.361 399.443 356.98C399.331 357.177 399.17 357.343 398.976 357.459C398.782 357.576 398.561 357.639 398.336 357.644L352.28 357.673C352.141 357.674 352.003 357.646 351.876 357.59C351.748 357.534 351.634 357.451 351.541 357.348C351.448 357.245 351.377 357.124 351.334 356.991C351.291 356.859 351.276 356.719 351.291 356.581C351.807 351.636 350.774 347.65 344.914 347.591C324.424 347.365 307.187 347.355 293.203 347.562C287.21 347.65 287.269 352.256 286.988 356.758C286.959 357.29 286.678 357.56 286.147 357.57L250.512 357.939C252.126 353.54 254.468 349.85 257.539 346.868C271.356 330.443 286.624 314.948 303.344 300.383C307.793 296.014 312.861 292.353 318.549 289.4C331.165 281.222 339.481 276.021 343.496 273.797C358.829 265.294 376.622 257.589 396.875 250.68C415.849 244.215 435.206 240.037 454.948 238.148C455.194 238.125 455.434 238.052 455.65 237.931C455.867 237.81 456.056 237.645 456.206 237.447C456.356 237.248 456.464 237.02 456.521 236.778C456.579 236.535 456.586 236.283 456.542 236.037L453.043 216.861C459.007 217.23 465.517 217.703 471.053 216.522C472.499 216.207 473.769 216.143 474.861 216.33Z" fill="#FFFFFA"/>
<path d="M303.343 300.383C286.623 314.948 271.354 330.443 257.537 346.868L242.229 332.623C241.841 332.266 241.602 331.774 241.561 331.246C241.52 330.717 241.68 330.192 242.008 329.774C255.53 312.837 270.774 297.618 287.74 284.116C287.994 283.911 288.319 283.813 288.644 283.843C288.969 283.874 289.27 284.03 289.482 284.278L303.343 300.383Z" fill="#010818"/>
<path d="M707.919 347.399C694.377 330.63 679.242 315.209 662.512 301.136L676.27 284.81C677.352 283.53 678.513 283.451 679.753 284.573C695.017 298.42 709.572 312.384 722.297 329.08C722.579 329.451 722.708 329.916 722.659 330.38C722.609 330.844 722.385 331.271 722.031 331.575C717.091 335.816 712.387 341.091 707.919 347.399Z" fill="#010818"/>
<path d="M716.022 357.94C721.524 359.78 725.042 361.079 726.577 361.837C743.248 370.035 753.803 382.641 758.241 399.657C759.491 404.459 760.081 411.328 760.012 420.264C759.791 452.74 760.352 485.186 760.352 517.647C760.352 578.751 760.327 639.85 760.278 700.944C760.278 704.536 759.501 708.915 757.946 714.082C752.469 732.239 739.833 745.923 721.883 751.783C716.923 753.417 710.285 754.307 701.969 754.455C688.438 754.701 674.926 754.504 661.434 753.865C597.141 753.579 491.865 753.491 345.606 753.599C329.949 753.609 317.628 753.855 308.643 754.337C292.71 754.366 276.295 754.342 259.398 754.263C253.296 754.234 248.302 753.801 244.414 752.964C224.619 748.713 208.558 733.11 203.362 714.037C201.846 708.438 201.074 698.867 201.044 685.326C200.867 595.117 201.295 504.908 201.03 414.714C200.941 384.895 221.548 362.147 250.511 357.94L286.146 357.571C286.677 357.561 286.958 357.29 286.987 356.759C287.268 352.257 287.209 347.651 293.202 347.562C307.186 347.356 324.423 347.366 344.912 347.592C350.773 347.651 351.806 351.637 351.289 356.582C351.275 356.72 351.29 356.86 351.333 356.992C351.376 357.124 351.447 357.246 351.54 357.349C351.633 357.452 351.747 357.534 351.874 357.59C352.002 357.646 352.139 357.675 352.278 357.674L398.335 357.645C398.56 357.64 398.781 357.576 398.975 357.46C399.169 357.343 399.33 357.178 399.442 356.98C405.386 346.362 410.902 335.571 415.99 324.608C418.072 320.106 422.53 320.268 427.8 320.268C468.178 320.258 508.561 320.243 548.949 320.224C552.536 320.224 554.942 322.999 556.669 326.232C562.043 336.27 566.993 346.357 571.52 356.493C571.697 356.889 571.985 357.226 572.349 357.461C572.713 357.697 573.138 357.822 573.572 357.822L716.022 357.94Z" fill="#010818"/>
<path d="M823.902 439.306C823.902 442.603 822.593 445.764 820.262 448.095C817.931 450.426 814.769 451.736 811.473 451.736C808.176 451.736 805.015 450.426 802.684 448.095C800.353 445.764 799.043 442.603 799.043 439.306C799.043 436.01 800.353 432.848 802.684 430.517C805.015 428.186 808.176 426.877 811.473 426.877C814.769 426.877 817.931 428.186 820.262 430.517C822.593 432.848 823.902 436.01 823.902 439.306Z" fill="#010818"/>
<path d="M810.099 522.976C810.099 526.37 808.751 529.625 806.351 532.026C803.951 534.426 800.695 535.774 797.301 535.774C793.906 535.774 790.651 534.426 788.251 532.026C785.851 529.625 784.502 526.37 784.502 522.976C784.502 519.581 785.851 516.326 788.251 513.926C790.651 511.526 793.906 510.177 797.301 510.177C800.695 510.177 803.951 511.526 806.351 513.926C808.751 516.326 810.099 519.581 810.099 522.976Z" fill="#010818"/>
<path d="M661.433 753.865C661.857 754.505 661.871 754.962 661.478 755.238C631.187 776.465 598.115 791.685 562.264 800.896C556.192 802.451 550.115 803.981 544.033 805.487C507.646 814.492 468.748 813.488 430.87 806.579C403.275 801.55 377.969 793.417 354.95 782.178C341.133 775.427 325.697 766.147 308.643 754.337C317.628 753.855 329.949 753.609 345.606 753.599C491.865 753.491 597.141 753.58 661.433 753.865Z" fill="#FFFFFA"/>
<path d="M630.128 554.507C626.87 561.996 623.382 569.249 619.662 576.266C607.705 598.866 590.094 617.953 571.214 633.719C557.854 644.893 541.69 651.566 525.127 656.865C515.955 659.798 507.098 661.628 498.556 662.357C461.962 665.501 420.791 653.411 393.851 628.109C381.638 616.654 370.424 603.802 360.209 589.552C354.054 580.96 349.286 571.129 344.444 561.504C344.39 561.4 344.312 561.311 344.217 561.244C344.121 561.177 344.012 561.135 343.898 561.121C342.874 561.003 342.564 561.519 342.968 562.671" stroke="#AEEBF1" stroke-width="2"/>
<path d="M354.923 679.14C367.294 692.514 377.538 702.183 390.898 710.73C392.777 711.93 392.605 712.536 390.381 712.545C346.627 712.683 302.549 712.649 258.145 712.442C247.704 712.393 239.757 708.57 234.305 700.972C231.058 696.445 228.366 689.999 226.23 681.634" stroke="#AEEBF1" stroke-width="2"/>
<path d="M630.185 679.199C620.531 692.209 608.889 702.936 595.259 711.38C595.169 711.436 595.091 711.509 595.03 711.595C594.968 711.681 594.925 711.778 594.902 711.881C594.878 711.984 594.876 712.091 594.894 712.195C594.912 712.299 594.951 712.398 595.008 712.487C595.116 712.654 595.387 712.733 595.82 712.723C633.344 712.408 670.863 712.315 708.378 712.443C714.474 712.472 719.818 711.764 722.283 706.213C725.87 698.198 725.073 687.761 724.173 679.258" stroke="#AEEBF1" stroke-width="2"/>
<path d="M495.38 293.209C495.38 295.86 494.327 298.401 492.452 300.276C490.578 302.15 488.036 303.203 485.386 303.203C482.735 303.203 480.193 302.15 478.319 300.276C476.445 298.401 475.392 295.86 475.392 293.209C475.392 290.559 476.445 288.017 478.319 286.142C480.193 284.268 482.735 283.215 485.386 283.215C488.036 283.215 490.578 284.268 492.452 286.142C494.327 288.017 495.38 290.559 495.38 293.209Z" fill="#010818"/>
<path d="M344.738 321.316C342.139 319.052 339.177 317.532 335.851 316.754C333.617 316.223 332.141 315.628 331.422 314.968C322.949 307.1 342.213 302.184 345.741 299.365C346.123 299.06 346.384 298.631 346.479 298.155C347.262 294.361 346.775 290.109 349.889 287.319C353.536 284.057 358.466 285.533 360.547 289.873C361.714 292.309 361.182 296.368 363.057 299.099C366.703 304.443 374.527 302.819 377.878 307.381C383.605 315.16 371.501 318.26 366.703 319.308C366.043 319.45 365.426 319.751 364.907 320.185C364.387 320.62 363.98 321.175 363.721 321.803C361.536 327.191 360.311 336.181 352.399 334.631C345.549 333.287 348.9 324.918 344.738 321.316Z" fill="#010818"/>
<path d="M635.707 331.457C635.707 334.244 634.599 336.918 632.628 338.889C630.657 340.86 627.984 341.967 625.196 341.967C622.409 341.967 619.736 340.86 617.764 338.889C615.793 336.918 614.686 334.244 614.686 331.457C614.686 328.669 615.793 325.996 617.764 324.025C619.736 322.054 622.409 320.946 625.196 320.946C627.984 320.946 630.657 322.054 632.628 324.025C634.599 325.996 635.707 328.669 635.707 331.457Z" fill="#010818"/>
<path d="M541.866 371.239C511.821 361.123 481.264 359.096 450.195 365.158C438.932 367.357 429.042 372.229 418.354 376.037C417.912 376.195 417.798 376.067 418.015 375.653L434.607 343.797C434.853 343.325 435.242 343.089 435.773 343.089L535.504 343.118C535.806 343.118 536.103 343.201 536.364 343.36C536.624 343.519 536.837 343.747 536.98 344.019L552.745 374.31C553.395 375.57 553.085 375.889 551.815 375.269C548.912 373.833 545.596 372.489 541.866 371.239Z" fill="#FFFFFA"/>
<path d="M637.198 453.787C636.921 453.787 636.65 453.711 636.413 453.568C636.176 453.425 635.983 453.22 635.854 452.975C629.546 440.477 622.032 428.707 613.313 417.665C601.105 402.225 594.447 393.471 585.723 380.584C585.666 380.501 585.634 380.404 585.63 380.303C585.626 380.203 585.651 380.102 585.701 380.014C585.752 379.925 585.826 379.852 585.916 379.801C586.006 379.751 586.107 379.725 586.21 379.728C592.322 379.993 598.527 380.121 604.825 380.112C634.919 380.112 665.009 380.136 695.093 380.185C699.846 380.185 704.777 379.92 709.25 381.292C722.368 385.337 730.757 393.402 734.418 405.487C738.005 417.385 736.382 436.856 736.293 451.75C736.283 453.128 735.584 453.817 734.197 453.817L637.198 453.787Z" fill="#FFFFFA"/>
<path d="M238.321 454.333L238.424 582.037C238.424 582.361 238.262 582.524 237.937 582.524L226.378 582.376C226.132 582.376 226.009 582.253 226.009 582.007C226.098 527.595 226.049 473.198 225.862 418.816C225.842 411.642 226.506 406.273 227.855 402.711C231.693 392.643 240.683 384.48 251.075 381.484C254.155 380.598 259.159 380.145 266.087 380.125C304.173 380.066 343.208 380.061 383.192 380.111C384.354 380.111 384.624 380.603 384.004 381.587C370.276 403.434 350.097 427.348 337.151 453.122C337.014 453.397 336.803 453.628 336.542 453.789C336.282 453.951 335.981 454.037 335.674 454.037L238.985 453.668C238.542 453.659 238.321 453.88 238.321 454.333Z" fill="#FFFFFA"/>
<path d="M630.126 554.507C626.869 561.997 623.38 569.25 619.66 576.266C607.703 598.866 590.093 617.953 571.212 633.719C557.853 644.894 541.689 651.566 525.126 656.865C515.954 659.798 507.097 661.628 498.555 662.357C461.961 665.501 420.79 653.411 393.85 628.109C381.637 616.654 370.423 603.802 360.208 589.552C354.052 580.96 349.284 571.129 344.442 561.505C344.388 561.4 344.311 561.311 344.215 561.244C344.12 561.177 344.011 561.135 343.896 561.121C342.873 561.003 342.563 561.519 342.966 562.671C338.198 534.948 338.051 510.458 347.808 483.622C372.844 414.669 442.682 373.617 516.564 388.674C591.657 403.982 644.135 478.765 630.126 554.507Z" fill="#FFFFFA"/>
<path d="M278.772 492.951C278.772 493.038 278.755 493.125 278.721 493.205C278.687 493.286 278.638 493.359 278.577 493.42C278.515 493.482 278.441 493.531 278.361 493.564C278.28 493.597 278.194 493.614 278.107 493.614L262.134 493.586C262.047 493.586 261.961 493.569 261.88 493.535C261.8 493.502 261.727 493.453 261.665 493.391C261.603 493.329 261.555 493.256 261.521 493.175C261.488 493.094 261.471 493.008 261.471 492.921L261.489 482.499C261.49 482.412 261.507 482.325 261.541 482.245C261.574 482.164 261.623 482.091 261.685 482.03C261.747 481.968 261.82 481.919 261.901 481.886C261.981 481.853 262.068 481.836 262.155 481.836L278.127 481.864C278.214 481.864 278.301 481.881 278.381 481.915C278.462 481.948 278.535 481.997 278.596 482.059C278.658 482.121 278.707 482.194 278.74 482.275C278.773 482.355 278.79 482.442 278.79 482.529L278.772 492.951Z" fill="#FFFFFA"/>
<path d="M319.05 493.216L303.949 493.246C303.795 493.247 303.643 493.215 303.502 493.153C303.361 493.091 303.235 492.999 303.132 492.885C303.028 492.771 302.951 492.636 302.903 492.49C302.856 492.343 302.84 492.188 302.856 492.035L303.742 483.149C303.771 482.88 303.899 482.631 304.101 482.452C304.303 482.272 304.564 482.173 304.835 482.174L320.408 482.101C320.565 482.101 320.72 482.135 320.863 482.201C321.005 482.267 321.132 482.362 321.234 482.481C321.337 482.6 321.412 482.74 321.455 482.891C321.499 483.042 321.509 483.2 321.486 483.355L320.143 492.286C320.103 492.547 319.971 492.785 319.77 492.956C319.57 493.127 319.314 493.219 319.05 493.216Z" fill="#FFFFFA"/>
<path d="M665.634 492.646C665.636 492.755 665.615 492.863 665.575 492.963C665.534 493.064 665.474 493.156 665.398 493.233C665.322 493.311 665.232 493.373 665.132 493.415C665.032 493.458 664.925 493.48 664.816 493.482L653.51 493.6C653.401 493.601 653.293 493.581 653.193 493.54C653.092 493.5 653 493.44 652.923 493.364C652.845 493.288 652.783 493.198 652.741 493.098C652.698 492.998 652.676 492.891 652.674 492.782L652.571 482.892C652.57 482.784 652.59 482.676 652.63 482.575C652.671 482.475 652.731 482.383 652.807 482.305C652.883 482.228 652.973 482.166 653.073 482.123C653.173 482.081 653.28 482.058 653.389 482.057L664.696 481.939C664.804 481.937 664.912 481.958 665.013 481.998C665.113 482.039 665.205 482.099 665.283 482.174C665.36 482.25 665.422 482.341 665.465 482.441C665.507 482.541 665.53 482.648 665.531 482.756L665.634 492.646Z" fill="#FFFFFA"/>
<path d="M689.923 492.755C689.923 492.871 689.901 492.987 689.857 493.094C689.813 493.202 689.748 493.3 689.666 493.383C689.585 493.465 689.487 493.531 689.38 493.576C689.273 493.621 689.158 493.645 689.041 493.645L678.265 493.702C678.149 493.703 678.034 493.68 677.926 493.636C677.818 493.592 677.721 493.528 677.638 493.446C677.555 493.364 677.489 493.267 677.444 493.159C677.399 493.052 677.376 492.937 677.375 492.821L677.323 482.813C677.322 482.696 677.344 482.581 677.388 482.473C677.432 482.366 677.497 482.268 677.579 482.185C677.661 482.102 677.758 482.037 677.865 481.991C677.973 481.946 678.088 481.923 678.204 481.922L688.98 481.866C689.096 481.865 689.211 481.887 689.319 481.931C689.427 481.975 689.525 482.04 689.608 482.122C689.69 482.204 689.756 482.301 689.801 482.408C689.846 482.515 689.87 482.631 689.87 482.747L689.923 492.755Z" fill="#FFFFFA"/>
<path d="M727.054 492.955C727.054 493.048 727.035 493.14 726.999 493.226C726.963 493.312 726.91 493.389 726.844 493.455C726.778 493.52 726.699 493.572 726.613 493.607C726.527 493.642 726.435 493.66 726.342 493.66L714.828 493.599C714.64 493.598 714.46 493.523 714.328 493.389C714.196 493.256 714.122 493.075 714.123 492.887L714.176 482.79C714.176 482.697 714.195 482.605 714.231 482.519C714.267 482.434 714.32 482.356 714.386 482.29C714.452 482.225 714.531 482.173 714.617 482.138C714.703 482.103 714.795 482.085 714.888 482.085L726.402 482.146C726.59 482.147 726.77 482.222 726.902 482.356C727.034 482.49 727.108 482.67 727.107 482.858L727.054 492.955Z" fill="#FFFFFA"/>
<path d="M218.346 493.223C218.345 493.36 218.289 493.491 218.192 493.587C218.094 493.683 217.962 493.736 217.825 493.735L207.108 493.641C207.04 493.641 206.973 493.627 206.911 493.6C206.848 493.574 206.792 493.535 206.744 493.487C206.697 493.439 206.659 493.381 206.634 493.318C206.608 493.255 206.596 493.188 206.596 493.12L206.686 482.787C206.688 482.65 206.743 482.52 206.841 482.424C206.939 482.328 207.071 482.274 207.208 482.275L217.924 482.369C217.992 482.369 218.059 482.383 218.122 482.41C218.184 482.436 218.241 482.475 218.288 482.523C218.336 482.572 218.373 482.629 218.399 482.692C218.424 482.755 218.437 482.822 218.436 482.89L218.346 493.223Z" fill="#5CD7FB"/>
<path d="M750.139 492.424C750.138 492.585 750.106 492.744 750.044 492.893C749.982 493.041 749.891 493.176 749.777 493.289C749.663 493.403 749.527 493.492 749.378 493.553C749.23 493.614 749.07 493.646 748.909 493.645L739.845 493.613C739.685 493.613 739.525 493.581 739.377 493.518C739.228 493.456 739.094 493.366 738.98 493.252C738.867 493.137 738.777 493.002 738.716 492.853C738.655 492.704 738.624 492.545 738.625 492.384L738.656 483.497C738.656 483.336 738.688 483.177 738.75 483.029C738.812 482.88 738.903 482.746 739.017 482.632C739.132 482.519 739.267 482.429 739.416 482.368C739.565 482.307 739.724 482.276 739.885 482.276L748.949 482.308C749.11 482.309 749.269 482.341 749.417 482.403C749.566 482.465 749.7 482.556 749.814 482.67C749.927 482.784 750.017 482.919 750.078 483.068C750.139 483.217 750.17 483.377 750.17 483.537L750.139 492.424Z" fill="#5CD7FB"/>
<path d="M250.559 519.58C250.559 518.768 250.88 517.99 251.453 517.414C252.025 516.839 252.803 516.514 253.614 516.51L286.326 516.451C287.037 516.449 287.741 516.584 288.399 516.85C289.056 517.115 289.653 517.505 290.156 517.998C290.66 518.49 291.059 519.075 291.331 519.719C291.604 520.363 291.744 521.053 291.744 521.75V524.23C291.744 525.633 291.177 526.979 290.167 527.972C289.157 528.966 287.786 529.526 286.356 529.53L253.644 529.589C253.239 529.591 252.838 529.513 252.464 529.359C252.09 529.206 251.75 528.98 251.463 528.695C251.177 528.409 250.949 528.07 250.794 527.697C250.639 527.323 250.559 526.923 250.559 526.518V519.58Z" fill="#5CD7FB"/>
<path d="M630.125 554.507C629.406 562.626 628.575 568.428 627.63 571.911C622.271 591.574 612.794 610.587 598.977 625.615C591.818 633.409 585.736 640.17 576.318 646.872C501.092 700.501 394.542 678.048 352.796 594.6C348.072 585.143 344.795 574.5 342.965 562.671C342.561 561.519 342.871 561.003 343.895 561.121C344.009 561.135 344.119 561.177 344.214 561.244C344.309 561.311 344.387 561.4 344.441 561.504C349.283 571.129 354.051 580.96 360.206 589.552C370.421 603.802 381.635 616.654 393.848 628.109C420.788 653.411 461.959 665.501 498.553 662.357C507.095 661.628 515.952 659.798 525.124 656.865C541.687 651.566 557.851 644.893 571.211 633.719C590.091 617.953 607.702 598.866 619.659 576.266C623.379 569.249 626.867 561.996 630.125 554.507Z" fill="#5CD7FB"/>
<path d="M225.301 595.249C229.139 594.349 234.217 593.374 237.007 596.017C238.562 597.473 239.108 599.279 238.645 601.434C237.45 606.955 231.368 608.948 226.452 606.557C223.116 604.933 222.791 598.91 224.282 596.031C224.499 595.618 224.838 595.357 225.301 595.249Z" fill="#FFFFFA"/>
<path d="M354.924 679.14C367.294 692.515 377.539 702.183 390.898 710.731C392.778 711.931 392.606 712.536 390.382 712.546C346.628 712.684 302.549 712.65 258.146 712.443C247.704 712.394 239.758 708.57 234.306 700.973C231.058 696.446 228.367 690 226.231 681.635L226.083 637.261C226.083 636.612 226.408 636.287 227.058 636.287L237.125 636.198C237.834 636.189 238.188 636.538 238.188 637.247L238.395 677.797C238.395 677.99 238.433 678.181 238.507 678.36C238.582 678.538 238.691 678.7 238.828 678.836C238.965 678.972 239.128 679.079 239.307 679.151C239.486 679.224 239.678 679.26 239.871 679.258L354.924 679.14Z" fill="#FFFFFA"/>
<path d="M727.368 647.709C727.368 647.85 727.34 647.99 727.285 648.121C727.231 648.252 727.151 648.37 727.051 648.47C726.951 648.57 726.832 648.649 726.701 648.703C726.57 648.757 726.43 648.785 726.289 648.785L715.778 648.766C715.637 648.766 715.497 648.738 715.366 648.683C715.235 648.629 715.117 648.549 715.017 648.449C714.917 648.349 714.838 648.23 714.784 648.099C714.73 647.968 714.702 647.828 714.703 647.687L714.719 638.505C714.719 638.363 714.747 638.223 714.801 638.093C714.856 637.962 714.935 637.843 715.036 637.743C715.136 637.644 715.255 637.564 715.386 637.511C715.516 637.457 715.657 637.429 715.798 637.429L726.308 637.448C726.45 637.448 726.59 637.476 726.721 637.53C726.851 637.585 726.97 637.664 727.07 637.765C727.17 637.865 727.249 637.984 727.303 638.115C727.357 638.245 727.384 638.386 727.384 638.527L727.368 647.709Z" fill="#FFFFFA"/>
<path d="M278.916 647.789C278.917 647.894 278.896 647.998 278.857 648.095C278.817 648.191 278.759 648.28 278.685 648.354C278.611 648.428 278.523 648.487 278.427 648.527C278.33 648.568 278.227 648.589 278.122 648.589L264.896 648.635C264.791 648.636 264.687 648.615 264.59 648.576C264.494 648.536 264.405 648.478 264.331 648.404C264.257 648.33 264.198 648.242 264.157 648.146C264.117 648.049 264.096 647.946 264.096 647.841L264.063 638.63C264.063 638.525 264.083 638.421 264.123 638.324C264.163 638.228 264.221 638.14 264.295 638.065C264.369 637.991 264.456 637.932 264.553 637.892C264.65 637.851 264.753 637.83 264.858 637.83L278.084 637.784C278.189 637.783 278.293 637.804 278.39 637.843C278.486 637.883 278.575 637.941 278.649 638.015C278.723 638.089 278.782 638.177 278.823 638.273C278.863 638.37 278.884 638.473 278.884 638.578L278.916 647.789Z" fill="#FFFFFA"/>
<path d="M301.066 647.614C301.066 647.784 301.033 647.953 300.968 648.111C300.903 648.269 300.807 648.412 300.687 648.533C300.566 648.654 300.423 648.75 300.266 648.815C300.108 648.881 299.939 648.915 299.769 648.915L290.853 648.931C290.682 648.931 290.513 648.898 290.355 648.833C290.198 648.768 290.054 648.672 289.934 648.552C289.813 648.431 289.717 648.288 289.651 648.131C289.586 647.973 289.552 647.805 289.552 647.634L289.536 638.895C289.536 638.724 289.569 638.555 289.634 638.398C289.699 638.24 289.795 638.097 289.915 637.976C290.036 637.855 290.179 637.759 290.336 637.693C290.494 637.628 290.662 637.594 290.833 637.594L299.749 637.578C299.92 637.578 300.089 637.611 300.246 637.676C300.404 637.741 300.547 637.837 300.668 637.957C300.789 638.077 300.885 638.22 300.951 638.378C301.016 638.535 301.05 638.704 301.05 638.875L301.066 647.614Z" fill="#FFFFFA"/>
<path d="M350.981 647.496C350.98 647.651 350.949 647.805 350.889 647.948C350.829 648.091 350.742 648.221 350.632 648.33C350.522 648.439 350.391 648.526 350.248 648.585C350.104 648.644 349.951 648.674 349.796 648.673L332.377 648.612C332.222 648.612 332.068 648.581 331.925 648.521C331.782 648.461 331.652 648.373 331.543 648.263C331.434 648.153 331.347 648.023 331.288 647.879C331.23 647.736 331.2 647.582 331.2 647.427L331.23 638.983C331.23 638.828 331.261 638.675 331.321 638.532C331.381 638.389 331.468 638.259 331.578 638.15C331.688 638.04 331.819 637.954 331.962 637.895C332.106 637.836 332.26 637.806 332.415 637.807L349.833 637.867C349.988 637.868 350.142 637.899 350.285 637.959C350.428 638.019 350.558 638.106 350.667 638.216C350.776 638.326 350.863 638.457 350.922 638.6C350.981 638.744 351.011 638.897 351.01 639.053L350.981 647.496Z" fill="#FFDC87"/>
<path d="M687.254 647.048C687.254 647.245 687.215 647.441 687.139 647.624C687.064 647.807 686.953 647.973 686.813 648.112C686.673 648.252 686.507 648.363 686.324 648.439C686.142 648.514 685.946 648.553 685.748 648.553H670.514C670.316 648.553 670.12 648.514 669.938 648.439C669.755 648.363 669.589 648.252 669.449 648.112C669.309 647.973 669.199 647.807 669.123 647.624C669.047 647.441 669.008 647.245 669.008 647.048V639.342C669.008 638.943 669.167 638.56 669.449 638.277C669.732 637.995 670.115 637.836 670.514 637.836H685.748C686.147 637.836 686.53 637.995 686.813 638.277C687.095 638.56 687.254 638.943 687.254 639.342V647.048Z" fill="#FFDC87"/>
<path d="M749.77 647.535C749.77 647.88 749.634 648.21 749.39 648.454C749.146 648.698 748.816 648.834 748.471 648.834H739.88C739.536 648.834 739.205 648.698 738.962 648.454C738.718 648.21 738.581 647.88 738.581 647.535V638.944C738.581 638.6 738.718 638.269 738.962 638.026C739.205 637.782 739.536 637.645 739.88 637.645H748.471C748.816 637.645 749.146 637.782 749.39 638.026C749.634 638.269 749.77 638.6 749.77 638.944V647.535Z" fill="#5CD7FB"/>
<path d="M638.37 647.607C638.37 647.737 638.345 647.866 638.295 647.986C638.246 648.106 638.173 648.215 638.081 648.307C637.99 648.399 637.881 648.472 637.761 648.522C637.641 648.572 637.512 648.598 637.383 648.598L620.259 648.628C620.129 648.628 620 648.603 619.88 648.553C619.76 648.504 619.651 648.431 619.559 648.339C619.467 648.248 619.394 648.139 619.344 648.019C619.294 647.899 619.268 647.77 619.268 647.641L619.253 639.138C619.253 639.008 619.279 638.879 619.328 638.759C619.378 638.639 619.45 638.53 619.542 638.438C619.634 638.346 619.742 638.273 619.862 638.223C619.982 638.173 620.111 638.147 620.241 638.147L637.364 638.117C637.494 638.117 637.623 638.142 637.743 638.192C637.863 638.241 637.972 638.314 638.064 638.406C638.156 638.497 638.229 638.606 638.279 638.726C638.329 638.846 638.355 638.975 638.355 639.104L638.37 647.607Z" fill="#FFDC87"/>
<path d="M630.185 679.2C620.531 692.21 608.889 702.936 595.259 711.38C595.169 711.436 595.091 711.509 595.03 711.595C594.969 711.681 594.925 711.778 594.902 711.881C594.878 711.984 594.876 712.091 594.894 712.195C594.912 712.299 594.951 712.398 595.008 712.487C595.116 712.655 595.387 712.733 595.82 712.723C633.344 712.409 670.863 712.315 708.378 712.443C714.474 712.473 719.818 711.764 722.283 706.214C725.871 698.198 725.073 687.761 724.173 679.259L735.569 679.008C736.051 678.998 736.302 679.239 736.322 679.731C737.089 700.619 736.912 720.532 714.873 728.504C711.419 729.754 706.759 730.364 700.894 730.334C554.998 729.695 409.108 729.739 263.223 730.467C256.245 730.506 251.202 730.024 248.092 729.02C236.15 725.212 226.747 713.727 225.861 701.268C225.497 696.2 225.62 689.656 226.23 681.635C228.365 690 231.057 696.446 234.305 700.973C239.757 708.57 247.703 712.394 258.145 712.443C302.548 712.65 346.627 712.684 390.38 712.546C392.605 712.536 392.777 711.931 390.897 710.731C377.538 702.184 367.293 692.515 354.923 679.141C371.102 679.259 387.064 679.288 402.81 679.229C403.696 679.219 404.512 679.426 405.26 679.849C423.545 690.074 443.149 696.235 464.071 698.331C480.407 699.964 496.153 699.802 511.309 697.844C530.366 695.393 547.903 689.075 565.661 680.75C567.817 679.736 570.075 679.234 572.437 679.244C591.608 679.263 610.857 679.249 630.185 679.2Z" fill="#5CD7FB"/>
<path d="M630.185 679.199L724.173 679.258C725.073 687.761 725.87 698.198 722.283 706.213C719.818 711.764 714.474 712.472 708.378 712.443C670.863 712.315 633.344 712.408 595.82 712.723C595.387 712.733 595.116 712.654 595.008 712.487C594.951 712.398 594.912 712.299 594.894 712.195C594.876 712.091 594.878 711.984 594.902 711.881C594.925 711.778 594.968 711.681 595.03 711.595C595.091 711.509 595.169 711.436 595.259 711.38C608.889 702.936 620.531 692.209 630.185 679.199Z" fill="#FFFFFA"/>
<path d="M274.751 406.757C275.179 397.324 274.677 387.596 288.391 389.426C297.676 390.681 296.982 400.439 295.979 407.126C295.966 407.221 295.974 407.319 296.002 407.411C296.031 407.503 296.079 407.588 296.144 407.659C296.208 407.731 296.288 407.788 296.376 407.826C296.465 407.863 296.561 407.882 296.658 407.879C301.75 407.716 314.15 406.358 318.269 409.104C321.767 411.436 323.598 415.599 321.428 419.644C320.217 421.932 318.328 425.268 315.346 425.253C309.382 425.204 303.419 425.096 297.455 424.928C296.953 424.909 296.687 425.15 296.658 425.652C296.082 433.623 299.433 444.281 287.313 445.255C282.905 445.61 279.46 444.31 276.98 441.358C273.969 437.771 275.179 430.124 275.209 425.578C275.211 425.453 275.187 425.328 275.139 425.213C275.09 425.097 275.018 424.992 274.927 424.905C274.835 424.818 274.727 424.75 274.608 424.706C274.489 424.661 274.362 424.642 274.235 424.648C269.412 424.914 264.561 425.066 259.679 425.105C246.069 425.194 247.235 407.377 259.606 407.318C264.388 407.298 269.166 407.362 273.939 407.509C274.461 407.529 274.732 407.278 274.751 406.757Z" fill="#010818"/>
<path d="M703.329 415.362C703.324 418.455 702.09 421.419 699.899 423.602C697.708 425.785 694.74 427.009 691.647 427.004L648.661 426.929C647.13 426.926 645.614 426.622 644.2 426.033C642.786 425.444 641.502 424.583 640.421 423.498C639.34 422.414 638.483 421.127 637.899 419.711C637.316 418.295 637.017 416.778 637.02 415.246L637.021 414.361C637.027 411.268 638.26 408.304 640.451 406.121C642.642 403.937 645.61 402.714 648.703 402.719L691.689 402.794C693.221 402.797 694.737 403.101 696.151 403.69C697.564 404.278 698.849 405.14 699.93 406.224C701.011 407.309 701.867 408.596 702.451 410.012C703.034 411.428 703.333 412.945 703.331 414.476L703.329 415.362Z" fill="#010818"/>
<path d="M441.307 434.715C441.37 434.691 441.427 434.654 441.475 434.607C441.523 434.56 441.561 434.503 441.585 434.441C441.61 434.378 441.622 434.311 441.62 434.244C441.618 434.177 441.602 434.111 441.573 434.05L434.975 420.219C434.929 420.128 434.903 420.029 434.896 419.927C434.889 419.826 434.903 419.724 434.936 419.628C434.969 419.532 435.02 419.443 435.088 419.367C435.155 419.291 435.237 419.229 435.329 419.185C459.14 407.597 486.7 405.339 512.415 410.55C567.033 421.621 606.27 468.475 611.141 523.019C612.775 541.413 609.695 560.012 601.9 578.819C589.013 609.907 565.394 634.456 534.247 646.9C513.61 655.137 493.136 656.849 470.373 654.871C447.197 652.834 426.693 644.464 408.477 629.821C381.079 607.767 362.598 574.405 361.254 538.814C359.542 493.599 381.758 452.325 420.301 428.736C420.442 428.645 420.614 428.613 420.782 428.649C420.95 428.685 421.1 428.785 421.202 428.928L428.051 438.892C428.239 439.164 428.514 439.364 428.831 439.458C429.148 439.552 429.488 439.535 429.793 439.409L441.307 434.715Z" fill="#010818"/>
<path d="M484.451 623.486C460.437 623.025 437.592 612.91 420.941 595.365C404.291 577.82 395.2 554.283 395.668 529.932C396.135 505.581 406.123 482.41 423.435 465.518C440.746 448.625 463.963 439.394 487.977 439.855C511.992 440.316 534.837 450.432 551.487 467.976C568.137 485.521 577.228 509.058 576.761 533.409C576.293 557.76 566.305 580.931 548.994 597.824C531.682 614.716 508.466 623.948 484.451 623.486Z" fill="#FFFFFA"/>
<path d="M485.842 593.904C477.709 593.833 469.669 592.138 462.181 588.916C454.694 585.694 447.907 581.008 442.206 575.125C436.506 569.243 432.004 562.279 428.958 554.631C425.911 546.984 424.381 538.802 424.453 530.554C424.598 513.896 431.263 497.978 442.981 486.3C454.7 474.623 470.512 468.143 486.939 468.286C495.072 468.357 503.112 470.052 510.6 473.274C518.087 476.496 524.874 481.182 530.575 487.065C536.275 492.947 540.777 499.911 543.823 507.558C546.87 515.206 548.4 523.387 548.328 531.635C548.183 548.293 541.518 564.212 529.8 575.89C518.081 587.567 502.269 594.047 485.842 593.904Z" fill="#010818"/>
<path d="M461.62 526.725C451.774 535.789 441.707 523.536 450.047 514.355C457.772 505.852 466.379 498.348 475.865 491.843C481.957 487.66 488.359 486.534 495.07 488.463C499.1 489.614 499.469 495.253 496.178 497.334C483.482 505.379 472.647 516.569 461.62 526.725Z" fill="#FFFFFA"/>
</svg>
