<svg width="1024" height="1024" viewBox="0 0 1024 1024" fill="none" xmlns="http://www.w3.org/2000/svg">
<rect width="1024" height="1024" fill="white"/>
<path d="M337.736 339.892C337.914 328.732 338.866 320.619 348.575 313.765C359.155 306.281 371.88 308.442 383.896 307.958C384.455 307.937 384.944 307.743 385.363 307.378C412.394 284.013 438.979 260.165 465.118 235.833C473.569 227.962 484.294 217.785 498.632 214.172C518.04 209.28 534.937 212.651 549.324 224.285C552.399 226.769 558.963 232.575 569.016 241.703C593.467 263.917 618.17 285.863 643.126 307.539C643.577 307.937 644.099 308.136 644.69 308.136C653.512 308.168 665.076 307.136 672.463 309.136C688.317 313.426 693.414 327.974 692.591 343.231C692.561 343.759 692.74 344.28 693.091 344.683C695.36 347.295 697.801 349.666 700.413 351.795C719.558 367.375 737.799 383.794 756.266 400.132C764.604 407.518 778.152 417.792 785.942 426.356C797.748 439.323 806.715 456.516 806.699 474.386C806.645 565.414 806.64 656.442 806.683 747.471C806.699 778.372 786.668 802.339 757.717 810.016C752.707 811.349 746.32 812.011 738.557 812C589.488 811.882 440.431 811.849 291.384 811.903C283.481 811.903 275.143 812.242 267.82 810.774C244.563 806.129 225.629 789.049 219.355 766.341C217.86 760.932 217.108 752.911 217.097 742.277C217.075 656.238 217.043 570.204 217 484.176C216.989 472.854 217.737 464.381 219.242 458.758C226.532 431.437 248.579 417.776 269.014 400.454C291.97 381.025 314.668 361.295 337.107 341.263C337.516 340.898 337.726 340.441 337.736 339.892Z" fill="#001215"/>
<path d="M665.941 252.956C664.237 251.546 662.834 249.807 661.812 247.837C660.791 245.867 660.17 243.706 659.986 241.475C659.801 239.245 660.057 236.99 660.739 234.839C661.42 232.688 662.514 230.683 663.957 228.938C665.4 227.194 667.165 225.744 669.15 224.671C671.135 223.599 673.303 222.925 675.528 222.688C677.753 222.451 679.993 222.656 682.119 223.291C684.246 223.925 686.217 224.977 687.921 226.387C689.624 227.796 691.027 229.535 692.049 231.505C693.071 233.475 693.692 235.637 693.876 237.867C694.06 240.097 693.804 242.352 693.123 244.503C692.441 246.654 691.348 248.66 689.905 250.404C688.461 252.149 686.697 253.599 684.711 254.671C682.726 255.743 680.559 256.417 678.334 256.654C676.108 256.891 673.869 256.686 671.742 256.052C669.616 255.417 667.645 254.365 665.941 252.956Z" fill="#001215"/>
<path d="M353.544 256.655C349.129 256.183 345.085 253.951 342.302 250.451C339.519 246.95 338.224 242.468 338.703 237.989C338.94 235.771 339.605 233.622 340.66 231.662C341.716 229.703 343.141 227.972 344.854 226.569C346.568 225.166 348.536 224.119 350.646 223.486C352.756 222.853 354.968 222.647 357.154 222.881C361.569 223.353 365.612 225.585 368.396 229.085C371.179 232.586 372.474 237.068 371.995 241.547C371.758 243.765 371.093 245.915 370.037 247.874C368.982 249.833 367.557 251.564 365.844 252.967C364.13 254.37 362.162 255.418 360.052 256.05C357.941 256.683 355.73 256.889 353.544 256.655Z" fill="#001215"/>
<path d="M261.9 296.427C253.9 296.685 239.917 298.185 233.159 294.782C218.918 287.604 226.466 267.815 241.594 267.734C248.325 267.702 254.965 267.686 261.513 267.686C261.643 267.686 261.771 267.66 261.891 267.609C262.01 267.559 262.119 267.485 262.209 267.391C262.299 267.298 262.37 267.187 262.416 267.066C262.463 266.945 262.485 266.816 262.481 266.686C262.287 260.482 262.099 254.203 261.916 247.848C261.561 235.962 271.851 227.365 283.335 232.252C294.544 237.026 291.431 256.622 290.721 266.46C290.712 266.584 290.729 266.709 290.771 266.826C290.812 266.943 290.877 267.05 290.962 267.141C291.047 267.232 291.149 267.304 291.263 267.354C291.377 267.403 291.5 267.428 291.624 267.428C298.415 267.347 310.527 265.847 315.978 269.557C325.155 275.799 324.252 289.379 314.849 294.943C309.575 298.072 298.285 296.765 291.915 296.733C291.769 296.733 291.63 296.793 291.527 296.898C291.424 297.004 291.366 297.148 291.366 297.298C291.399 303.803 291.452 310.345 291.528 316.926C291.581 320.958 289.324 324.393 284.754 327.232C273.706 334.07 261.368 325.329 261.932 312.91C262.169 307.706 262.448 302.512 262.771 297.33C262.803 296.717 262.513 296.416 261.9 296.427Z" fill="#001215"/>
<path d="M764.426 305.313C764.211 314.657 764.195 321.485 764.377 325.796C764.797 335.86 756.539 342.215 746.975 340.731C739.346 339.538 737.33 332.232 737.282 324.974C737.239 318.791 737.33 312.603 737.556 306.41C737.561 306.257 737.531 306.105 737.47 305.964C737.408 305.824 737.316 305.699 737.2 305.599C737.084 305.498 736.948 305.425 736.8 305.384C736.652 305.343 736.497 305.335 736.346 305.362C729.589 306.539 719.847 307.926 713.96 304.555C706.525 300.298 705.025 290.717 710.267 284.105C716.138 276.702 728.363 277.799 736.83 278.153C736.956 278.158 737.082 278.137 737.2 278.091C737.317 278.046 737.424 277.977 737.513 277.889C737.603 277.801 737.673 277.697 737.719 277.581C737.765 277.466 737.786 277.342 737.782 277.218C737.54 269.412 736.04 254.735 739.491 248.429C742.411 243.074 748.459 240.639 754.426 242.171C768.087 245.655 764.942 263.815 764.539 276.315C764.517 276.895 764.797 277.18 765.377 277.17C772.097 277.062 778.748 276.971 785.328 276.895C796.021 276.766 802.198 289.443 796.279 298.007C790.134 306.926 774.99 304.314 765.297 304.459C764.727 304.469 764.436 304.754 764.426 305.313Z" fill="#63C9DD"/>
<path d="M485.794 308.378L506.745 307.878C507.573 307.857 508.374 307.575 509.035 307.071C514.809 302.566 520.47 297.792 526.018 292.75C534.211 285.282 531.179 278.395 523.905 272.299C517.217 266.675 512.513 262.509 509.793 259.799C508.406 258.423 506.288 255.762 503.438 251.816" stroke="#FF9D24" stroke-width="2"/>
<path d="M452.635 308.313C456.581 308.109 460.307 305.835 463.812 301.491C464.138 301.091 464.576 300.799 465.07 300.652C465.49 300.534 465.796 300.389 465.99 300.217C471.667 295.282 476.989 289.508 482.376 284.895C484.72 282.895 487.053 280.874 489.376 278.831C491.73 276.783 494.633 275.299 497.246 273.315C497.723 272.962 498.051 272.444 498.164 271.862C498.278 271.279 498.169 270.676 497.859 270.17C495.773 266.751 492.564 264.928 488.23 264.702" stroke="#FFDE98" stroke-width="2"/>
<path d="M623.611 344.941C624.051 411.54 624.277 459.726 624.288 489.499C624.299 497.444 624.008 507.724 623.417 520.336" stroke="#B1E4EE" stroke-width="2"/>
<path d="M338.366 413.986C332.388 413.438 327.662 414.593 324.189 417.454C317.222 423.195 309.239 429.001 303.723 436.162" stroke="#FFAC8A" stroke-width="2"/>
<path d="M424.105 607.493C422.513 603.891 419.933 600.596 416.363 597.607C397.149 581.478 378.069 565.189 359.124 548.738C333.335 526.352 306.11 505.756 281.176 482.386C279.144 480.483 276.692 478.994 273.821 477.918C273.202 477.683 272.521 477.665 271.889 477.867C271.256 478.069 270.71 478.479 270.338 479.031L267.176 483.741C266.892 484.161 266.736 484.654 266.725 485.16C266.112 551.109 266.386 617.073 266.322 683.038C266.305 689.538 267.773 700.166 260.531 703.424C257.768 704.672 255.585 704.817 253.983 703.86" stroke="#FFDE98" stroke-width="2"/>
<path d="M768.459 466.209C763.427 468.317 759.158 470.757 755.653 473.531C750.438 477.682 745.578 482.708 741.073 488.611C738.67 491.773 737.315 496.434 737.315 499.982C737.272 565.301 737.31 630.621 737.428 695.941C737.444 702.489 738.089 710.182 735.525 713.859C733.095 717.354 729.487 720.687 724.703 723.859" stroke="#FF9D24" stroke-width="2"/>
<path d="M599.241 606.38C612.219 594.843 620.595 587.446 624.369 584.188C645.97 565.501 669.765 545.458 695.753 524.062C706.962 514.852 719.107 503.385 731.187 493.45C736.928 488.725 735.687 482.499 736.025 475.79C736.079 474.747 735.461 474.456 734.17 474.919" stroke="#FFDE98" stroke-width="2"/>
<path d="M518.276 591.962C516.492 593.306 514.782 594.026 513.148 594.123C505.793 594.558 499.761 595.574 497.035 603.219C496.132 605.784 494.536 607.929 492.794 609.461C477.848 622.579 463.306 636.126 449.167 650.104C447.328 651.921 444.989 652.921 442.151 653.104C440.038 653.233 437.474 652.007 434.877 652.652C434.318 652.792 433.958 652.33 433.796 651.265" stroke="#FFDE98" stroke-width="2"/>
<path d="M704.64 755.97C700.661 755.873 696.936 753.895 693.463 750.035C693.151 749.691 692.791 749.438 692.382 749.277C691.382 748.89 690.221 748.438 689.14 748.406C678.657 748.035 664.738 748.035 648.481 748.051C567.259 748.083 488.504 748.454 404.686 748.325C379.472 748.293 354.07 748.583 328.479 749.196" stroke="#FF9D24" stroke-width="2"/>
<path d="M485.794 308.378L506.745 307.878C507.573 307.857 508.374 307.575 509.035 307.072C514.809 302.567 520.47 297.793 526.018 292.75C534.211 285.282 531.179 278.396 523.905 272.299C517.217 266.676 512.513 262.509 509.793 259.8C508.406 258.424 506.288 255.762 503.438 251.816C509.761 248.494 516.491 248.456 523.631 251.703C526.211 252.875 529.873 255.633 534.614 259.977C552.237 276.095 569.957 291.863 587.773 307.282C588.623 308.013 588.488 308.378 587.37 308.378H485.794Z" fill="#FF7D17"/>
<path d="M503.439 251.816C506.289 255.762 508.407 258.423 509.794 259.8C512.514 262.509 517.218 266.676 523.906 272.299C531.18 278.396 534.212 285.282 526.019 292.75C520.471 297.793 514.81 302.567 509.036 307.072C508.375 307.575 507.574 307.857 506.746 307.878L485.795 308.378L452.635 308.314C456.581 308.109 460.307 305.835 463.812 301.491C464.138 301.092 464.576 300.799 465.07 300.653C465.49 300.534 465.796 300.389 465.99 300.217C471.667 295.282 476.989 289.508 482.376 284.895C484.72 282.895 487.053 280.874 489.376 278.831C491.73 276.783 494.633 275.299 497.246 273.315C497.723 272.963 498.051 272.444 498.164 271.862C498.278 271.28 498.169 270.676 497.859 270.17C495.773 266.751 492.564 264.928 488.23 264.703L503.439 251.816Z" fill="#FFBC31"/>
<path d="M488.229 264.703C492.563 264.928 495.772 266.751 497.858 270.17C498.168 270.676 498.277 271.28 498.163 271.862C498.05 272.444 497.722 272.963 497.245 273.315C494.632 275.299 491.729 276.783 489.375 278.831C487.052 280.874 484.719 282.895 482.375 284.895C476.988 289.508 471.666 295.282 465.989 300.217C465.795 300.389 465.489 300.534 465.069 300.653C464.575 300.799 464.137 301.092 463.811 301.491C460.306 305.835 456.58 308.109 452.634 308.314L443.732 308.297C441.355 308.297 441.049 307.496 442.812 305.894L488.229 264.703Z" fill="white"/>
<path d="M623.611 344.941C624.052 411.54 624.278 459.726 624.288 489.499C624.299 497.445 624.009 507.724 623.418 520.336C620.063 522.594 616.923 524.986 613.999 527.513C596.655 542.48 579.688 557.576 563.098 572.801C562.876 573.005 562.615 573.163 562.332 573.266C562.049 573.369 561.748 573.415 561.447 573.402C561.145 573.389 560.85 573.316 560.577 573.188C560.304 573.06 560.059 572.879 559.856 572.656C535.373 545.883 492.972 549.867 466.828 572.398C466.402 572.76 465.86 572.958 465.301 572.955C464.742 572.952 464.202 572.749 463.78 572.382C452.49 562.544 441.302 552.818 430.217 543.206C416.314 531.158 395.299 513.869 378.397 498.45C377.343 497.493 376.327 496.488 375.348 495.434C374.983 495.036 374.8 494.568 374.8 494.031C374.811 446.947 374.778 399.874 374.703 352.811C374.703 349.15 382.235 345.134 384.929 345.134C464.441 345.263 544.115 346.263 623.611 344.941Z" fill="white"/>
<path d="M623.611 344.941C632.911 344.457 640.443 344.409 646.206 344.796C653.625 345.29 657.329 349.441 657.319 357.247C657.222 424.706 657.141 468.252 657.077 487.886C657.077 490.692 655.528 491.853 653.641 493.611C643.868 502.772 634.207 512.385 623.417 520.336C624.008 507.724 624.299 497.445 624.288 489.499C624.277 459.726 624.051 411.54 623.611 344.941Z" fill="#63C9DD"/>
<path d="M338.366 413.986C332.388 413.438 327.662 414.594 324.189 417.454C317.222 423.195 309.239 429.002 303.723 436.163L294.513 427.857C294.392 427.748 294.296 427.615 294.232 427.466C294.167 427.318 294.135 427.157 294.138 426.994C294.141 426.832 294.179 426.672 294.249 426.526C294.32 426.38 294.421 426.251 294.546 426.147L336.689 390.89C336.786 390.808 336.905 390.756 337.031 390.738C337.157 390.721 337.286 390.739 337.402 390.791C337.518 390.843 337.617 390.927 337.688 391.033C337.759 391.139 337.798 391.263 337.802 391.39L338.366 413.986Z" fill="white"/>
<path d="M693.977 393.681L730.395 427.728C730.447 427.778 730.487 427.839 730.515 427.906C730.542 427.974 730.555 428.046 730.554 428.118C730.552 428.191 730.536 428.262 730.506 428.328C730.476 428.394 730.433 428.453 730.379 428.502L693.623 462.161C693.546 462.23 693.45 462.275 693.348 462.291C693.246 462.306 693.141 462.292 693.047 462.249C692.953 462.207 692.874 462.137 692.818 462.05C692.763 461.963 692.734 461.861 692.735 461.758L693.09 394.068C693.092 393.966 693.123 393.867 693.18 393.782C693.236 393.697 693.316 393.63 693.41 393.589C693.503 393.549 693.606 393.536 693.707 393.552C693.807 393.568 693.901 393.613 693.977 393.681Z" fill="#FF7D17"/>
<path d="M338.366 413.986L337.979 464.645C337.979 464.789 337.937 464.93 337.859 465.05C337.78 465.171 337.668 465.266 337.537 465.324C337.405 465.382 337.26 465.401 337.118 465.378C336.976 465.354 336.844 465.29 336.737 465.194L303.723 436.163C309.239 429.002 317.222 423.196 324.189 417.454C327.662 414.594 332.388 413.438 338.366 413.986Z" fill="#FF5915"/>
<path d="M424.103 607.493C422.512 603.891 419.932 600.596 416.362 597.607C397.148 581.479 378.068 565.189 359.123 548.738C333.333 526.352 306.109 505.756 281.175 482.386C279.142 480.483 276.691 478.994 273.82 477.919C273.201 477.683 272.52 477.665 271.888 477.867C271.255 478.069 270.709 478.48 270.336 479.032L267.175 483.741C266.891 484.162 266.734 484.655 266.724 485.16C266.111 551.109 266.385 617.074 266.32 683.038C266.304 689.538 267.772 700.167 260.53 703.425C257.767 704.672 255.584 704.817 253.982 703.86C253.681 630.767 253.767 557.818 254.24 485.015C254.337 470.822 254.047 463.677 263.982 455C265.143 453.99 266.347 453.936 267.595 454.839C278.223 462.532 289.69 472.838 297.932 479.79C342.381 517.175 387.594 555.883 433.571 595.913C434.861 597.042 434.861 598.166 433.571 599.284L424.103 607.493Z" fill="white"/>
<path d="M768.459 466.21C763.427 468.317 759.159 470.758 755.653 473.532C750.439 477.682 745.579 482.709 741.073 488.612C738.67 491.773 737.315 496.434 737.315 499.982C737.272 565.302 737.31 630.621 737.428 695.941C737.445 702.489 738.09 710.182 735.525 713.86C733.095 717.354 729.488 720.687 724.703 723.859L599.241 606.381C612.219 594.843 620.595 587.446 624.369 584.188C645.97 565.501 669.765 545.459 695.753 524.062C706.962 514.853 719.107 503.385 731.187 493.45C736.928 488.725 735.687 482.499 736.025 475.79C736.079 474.747 735.461 474.457 734.17 474.919L758.363 454.581C758.857 454.173 759.347 454.173 759.831 454.581C763.927 458.033 766.803 461.909 768.459 466.21Z" fill="#FFBC31"/>
<path d="M768.459 466.21C769.362 469.285 769.814 472.209 769.814 474.983C770.029 569.366 770.104 663.749 770.039 758.132C770.039 759.755 769.722 761.083 769.088 762.115C768.981 762.287 768.837 762.432 768.668 762.542C768.499 762.652 768.309 762.723 768.11 762.751C767.911 762.779 767.709 762.762 767.519 762.703C767.328 762.643 767.153 762.542 767.007 762.406L724.703 723.859C729.487 720.687 733.095 717.354 735.525 713.86C738.089 710.182 737.444 702.489 737.428 695.941C737.31 630.621 737.272 565.302 737.315 499.982C737.315 496.434 738.67 491.773 741.073 488.612C745.578 482.709 750.438 477.682 755.653 473.532C759.158 470.758 763.427 468.317 768.459 466.21Z" fill="#FF7D17"/>
<path d="M734.171 474.919C735.461 474.457 736.08 474.747 736.026 475.79C735.687 482.499 736.929 488.725 731.187 493.45C719.107 503.385 706.963 514.853 695.753 524.062C669.765 545.459 645.971 565.501 624.37 584.188C620.596 587.446 612.22 594.843 599.242 606.381L590.774 598.204C590.676 598.108 590.599 597.992 590.549 597.864C590.498 597.736 590.475 597.599 590.481 597.461C590.487 597.322 590.522 597.187 590.584 597.062C590.646 596.937 590.732 596.826 590.839 596.736C615.709 575.785 639.788 553.754 664.787 532.932C687.958 513.632 711.086 494.294 734.171 474.919Z" fill="white"/>
<path d="M424.105 607.493L256.225 762.728C256.093 762.854 255.926 762.939 255.746 762.972C255.566 763.004 255.38 762.983 255.212 762.911C255.043 762.839 254.9 762.719 254.799 762.566C254.698 762.413 254.645 762.234 254.645 762.051L253.983 703.86C255.585 704.817 257.768 704.672 260.531 703.425C267.773 700.167 266.305 689.538 266.322 683.038C266.386 617.074 266.112 551.109 266.725 485.16C266.736 484.655 266.892 484.162 267.176 483.741L270.338 479.032C270.71 478.48 271.256 478.069 271.889 477.867C272.521 477.665 273.202 477.683 273.821 477.919C276.692 478.994 279.144 480.483 281.176 482.386C306.11 505.756 333.335 526.352 359.124 548.738C378.069 565.189 397.149 581.479 416.363 597.607C419.933 600.596 422.513 603.891 424.105 607.493Z" fill="#FFBC31"/>
<path d="M518.276 591.962C516.492 593.306 514.782 594.026 513.148 594.123C505.793 594.559 499.761 595.575 497.035 603.219C496.132 605.784 494.536 607.929 492.794 609.461C477.848 622.579 463.306 636.127 449.167 650.104C447.328 651.922 444.989 652.921 442.151 653.104C440.038 653.233 437.474 652.008 434.877 652.653C434.318 652.792 433.958 652.33 433.796 651.266C436.361 647.992 438.216 644.992 441.441 642.218C458.698 627.428 475.375 611.219 492.987 597.591C498.084 593.655 510.712 591.785 518.276 591.962Z" fill="white"/>
<path d="M518.277 591.962C529.132 593.559 537.792 601.51 546.244 609.622C565.388 627.992 586.581 646.475 604.806 663.346C638.019 694.065 671.297 724.94 704.64 755.97C700.661 755.874 696.936 753.895 693.463 750.035C693.151 749.691 692.791 749.439 692.382 749.277C691.382 748.89 690.221 748.439 689.14 748.406C678.657 748.035 664.738 748.035 648.481 748.051C567.259 748.084 488.504 748.455 404.686 748.326C379.472 748.293 354.07 748.584 328.479 749.197L433.797 651.266C433.959 652.33 434.319 652.792 434.878 652.653C437.474 652.007 440.039 653.233 442.152 653.104C444.99 652.921 447.329 651.922 449.168 650.104C463.307 636.127 477.849 622.579 492.795 609.461C494.536 607.929 496.133 605.784 497.036 603.219C499.762 595.575 505.794 594.559 513.148 594.123C514.783 594.026 516.492 593.306 518.277 591.962Z" fill="#FFBC31"/>
<path d="M704.639 755.97L724.235 773.905C725.589 775.152 725.347 775.776 723.509 775.776L301.899 775.76C300.018 775.76 299.77 775.131 301.157 773.873L328.479 749.197C354.069 748.584 379.471 748.293 404.685 748.326C488.504 748.455 567.258 748.084 648.48 748.051C664.737 748.035 678.656 748.035 689.139 748.406C690.22 748.439 691.381 748.89 692.381 749.277C692.79 749.439 693.15 749.691 693.462 750.035C696.935 753.895 700.66 755.874 704.639 755.97Z" fill="#FF7D17"/>
<path d="M551.146 496.192C555.662 494.579 558.726 490.853 563.968 493.789C565.645 494.724 567.478 496.896 569.468 500.305C573.145 506.595 572.01 511.922 566.065 516.288C553.248 525.685 540.195 525.029 526.905 514.32C526.281 513.815 525.62 513.75 524.921 514.126C508.712 522.739 487.552 526.045 471.65 514.078C459.537 504.949 455.715 486.224 462.392 473.338C473.278 452.355 501.245 454.758 520.631 455.468C520.915 455.477 521.192 455.378 521.407 455.19C521.622 455.001 521.76 454.738 521.792 454.452C523.325 440.517 520.438 432.437 505.067 431.388C493.278 430.598 477.02 443.533 469.65 429.001C465.214 420.244 470.569 413.615 478.504 409.68C503.084 397.438 540.985 402.744 549.307 433.549C550.157 436.711 550.565 441.511 550.533 447.952C550.468 463.898 550.415 479.795 550.372 495.643C550.372 495.736 550.394 495.828 550.436 495.911C550.479 495.993 550.541 496.064 550.617 496.118C550.693 496.172 550.78 496.207 550.872 496.219C550.964 496.232 551.058 496.223 551.146 496.192Z" fill="#FF5915"/>
<path d="M520.664 474.499C521.073 474.521 521.283 474.731 521.293 475.128C521.358 479.015 522.664 487.692 518.342 489.724C511.159 493.101 504.595 495.052 498.649 495.579C492.73 496.111 484.779 491.95 486.392 484.95C488.65 475.177 512.923 474.177 520.664 474.499Z" fill="white"/>
</svg>
