<svg width="1024" height="1024" viewBox="0 0 1024 1024" fill="none" xmlns="http://www.w3.org/2000/svg">
<rect width="1024" height="1024" fill="white"/>
<path d="M766.395 420.106C765.815 420.073 765.213 420.145 764.589 420.324C764.243 420.424 764.114 420.106 764.204 419.37" stroke="#E4FEF9" stroke-width="2"/>
<path d="M764.203 419.371C778.168 405.005 792.373 390.867 806.817 376.958C813.075 370.918 817.542 365.146 810.398 357.784C788.96 335.699 767.51 313.636 746.05 291.596C744.857 290.38 743.222 288.423 741.148 285.723C740.824 285.304 740.669 284.779 740.713 284.251C740.964 281.591 741.148 279.366 740.679 276.755C735.56 248.246 717.691 227.048 690.503 217.762C678.038 213.512 666.276 214.449 653.896 214.432" stroke="#80808B" stroke-width="2"/>
<path d="M764.203 419.37C757.945 425.694 751.671 431.98 745.38 438.226C743.824 439.765 740.763 442.141 740.763 444.517C740.796 465.029 740.813 485.553 740.813 506.087" stroke="#657F85" stroke-width="2"/>
<path d="M729.537 771.743C718.539 789.812 702.734 801.385 682.121 806.46C679.545 807.095 676.717 807.179 673.957 807.714C671.592 808.172 669.545 808.4 667.816 808.4C542.01 808.066 416.198 808.038 290.381 808.317C279.996 808.339 271.915 807.614 266.138 806.142C240.037 799.483 222.001 781.263 212.648 755.581" stroke="#738089" stroke-width="2"/>
<path d="M303.197 214.466C291 214.315 278.017 213.83 266.673 216.758C231.973 225.692 210.072 252.964 209.603 289.304C209.447 301.584 209.363 313.865 209.352 326.146C209.241 460.552 209.202 594.958 209.235 729.364C209.235 738.309 210.373 747.049 212.648 755.581" stroke="#657F85" stroke-width="2"/>
<path d="M212.649 755.581C211.254 755.336 210.736 756.49 211.093 759.044" stroke="#D8FEF8" stroke-width="2"/>
<path d="M766.393 420.107C765.813 420.074 765.211 420.146 764.586 420.325C764.24 420.425 764.112 420.107 764.201 419.371C778.166 405.005 792.371 390.867 806.815 376.958C813.073 370.918 817.54 365.146 810.396 357.784C788.958 335.699 767.509 313.636 746.048 291.596C744.855 290.38 743.221 288.423 741.146 285.723C740.822 285.304 740.667 284.779 740.711 284.251C740.962 281.591 741.146 279.366 740.677 276.756C735.558 248.246 717.689 227.048 690.501 217.762C678.036 213.512 666.275 214.449 653.894 214.432C655.02 213.886 656.102 213.384 657.139 212.927C658.199 212.458 659.337 212.196 660.552 212.14C676.179 211.421 687.841 213.429 699.971 219.067C710.829 224.12 717.405 228.537 725.084 237.003C735.859 248.865 743.137 267.236 744.71 282.98C744.944 285.288 746.149 287.865 747.47 289.337C760.922 304.183 774.859 318.555 789.281 332.453C797.73 340.585 806.012 350.222 814.779 358.788C820.685 364.577 816.486 370.249 811.55 375.201C803.843 382.942 796.063 390.61 788.21 398.206C781.317 404.865 773.855 412.98 766.393 420.107Z" fill="white"/>
<path d="M303.195 214.466C290.998 214.315 278.014 213.83 266.671 216.758C231.97 225.693 210.07 252.964 209.601 289.304C209.445 301.585 209.361 313.865 209.35 326.146C209.239 460.552 209.2 594.958 209.233 729.364C209.233 738.309 210.371 747.049 212.646 755.581C211.252 755.336 210.733 756.49 211.09 759.045C206.523 747.684 206.205 740.908 206.339 727.691C206.461 716.526 206.45 705.366 206.305 694.212C205.736 647.934 206.104 601.656 206.405 555.378C206.439 552.316 205.987 548.652 206.004 545.322C206.305 438.779 206.333 371.018 206.088 342.04C205.92 321.818 205.993 304.083 206.305 288.835C206.589 275.083 209.434 265.345 215.624 253.918C217.141 251.107 218.697 248.324 220.292 245.569C226.533 234.861 239.148 225.107 249.555 219.736C259.711 214.516 271.422 212.023 285.092 212.759C285.214 212.771 287.863 212.754 293.039 212.709C296.418 212.676 299.804 213.261 303.195 214.466Z" fill="#C9FDF3"/>
<path d="M303.195 214.466L653.895 214.432C666.276 214.449 678.038 213.512 690.502 217.762C717.69 227.048 735.559 248.246 740.679 276.756C741.147 279.366 740.963 281.591 740.712 284.251C740.669 284.779 740.824 285.304 741.147 285.723C743.222 288.423 744.856 290.38 746.049 291.596C767.51 313.636 788.959 335.699 810.397 357.784C817.541 365.146 813.074 370.918 806.816 376.958C792.372 390.867 778.167 405.005 764.202 419.371C757.945 425.695 751.671 431.981 745.38 438.227C743.824 439.766 740.762 442.142 740.762 444.518C740.796 465.03 740.812 485.553 740.812 506.088C740.277 604.656 740.21 678.245 740.612 726.854C740.746 743.641 737.054 758.604 729.536 771.743C718.538 789.813 702.733 801.385 682.12 806.46C679.543 807.096 676.716 807.18 673.955 807.715C671.591 808.173 669.544 808.401 667.815 808.401C542.009 808.067 416.197 808.039 290.379 808.318C279.995 808.34 271.914 807.615 266.136 806.143C240.036 799.484 222 781.263 212.647 755.581C210.372 747.048 209.234 738.309 209.234 729.364C209.2 594.958 209.239 460.552 209.351 326.146C209.362 313.865 209.446 301.584 209.602 289.304C210.07 252.964 231.971 225.692 266.671 216.758C278.015 213.83 290.998 214.315 303.195 214.466Z" fill="#000116"/>
<path d="M764.201 419.371C764.112 420.107 764.24 420.425 764.586 420.325C765.211 420.146 765.813 420.074 766.393 420.107C761.798 425.026 757.108 429.828 752.322 434.513C750.566 436.219 749.746 438.11 747.303 439.833C745.351 441.216 744.375 442.917 744.375 444.936C744.364 462.928 744.147 481.544 743.723 500.784C743.717 500.918 743.678 501.048 743.61 501.162C743.542 501.276 743.446 501.372 743.333 501.439C743.219 501.506 743.09 501.542 742.96 501.545C742.829 501.547 742.7 501.516 742.585 501.454L742.033 501.152C742.005 501.138 741.975 501.13 741.944 501.128C741.913 501.126 741.883 501.131 741.855 501.143C741.828 501.154 741.804 501.171 741.785 501.193C741.767 501.215 741.754 501.241 741.748 501.27L740.811 506.088C740.811 485.553 740.795 465.03 740.761 444.518C740.761 442.142 743.823 439.766 745.379 438.227C751.67 431.981 757.944 425.695 764.201 419.371Z" fill="#C9FDF3"/>
<path d="M212.647 755.581C221.999 781.263 240.035 799.483 266.136 806.142C271.914 807.615 279.995 808.34 290.379 808.317C416.196 808.038 542.008 808.066 667.815 808.401C669.544 808.401 671.59 808.172 673.955 807.715C676.716 807.18 679.543 807.096 682.12 806.46C702.732 801.385 718.538 789.813 729.535 771.743C730.617 773.082 730.389 774.911 728.849 777.231C718.008 793.672 703.195 804.319 684.412 809.171C678.4 810.721 669.772 811.524 658.529 811.58C611.565 811.831 582.001 811.413 546.832 811.864C514.943 812.283 484.007 811.597 452.586 811.63C408.952 811.68 365.284 811.078 321.683 811.63C300.089 811.898 285.304 811.809 277.329 811.362C263.526 810.576 245.607 802.712 234.196 792.557C223.789 783.288 216.088 772.117 211.091 759.044C210.734 756.49 211.252 755.336 212.647 755.581Z" fill="#E6FFFC"/>
<path d="M589.264 262.501L536.193 262.283" stroke="#80BECD" stroke-width="2"/>
<path d="M536.193 262.283L429.667 262.015" stroke="#82E4E0" stroke-width="2"/>
<path d="M429.666 262.015L401.341 261.312C401.24 261.312 401.168 261.363 401.123 261.463L400.939 261.865C400.883 261.987 400.794 262.043 400.671 262.032C395.803 261.865 392.457 261.848 386.919 262.701C376.428 264.307 363.662 262.885 354.929 262.668C333.814 262.116 313.52 262.835 292.823 262.969C280.241 263.036 268.814 271.736 264.765 283.163C263.393 287.056 262.702 294.585 262.691 305.75C262.646 375.998 262.534 446.235 262.356 516.461C262.356 519.149 262.997 521.374 264.28 523.137" stroke="#E4FEF9" stroke-width="2"/>
<path d="M264.28 523.137C263.198 523.862 262.646 525.959 262.624 529.428C262.256 592.426 262.138 655.423 262.272 718.421C262.306 733.563 261.72 740.389 269.935 751.03C279.003 762.775 290.659 768.854 304.903 769.267" stroke="#82E4E0" stroke-width="2"/>
<path d="M304.903 769.267C305.55 770.115 305.728 770.795 305.438 771.308" stroke="#9FF2F1" stroke-width="2"/>
<path d="M429.667 262.015C421.112 262.015 412.585 262.249 404.085 262.718C394.816 263.236 389.78 271.435 387.22 279.65C387.053 280.174 387.176 280.62 387.588 280.988C388.146 281.479 388.877 281.892 389.78 282.226" stroke="#67E3DA" stroke-width="2"/>
<path d="M389.78 282.226C385.514 282.477 381.131 282.494 377.132 283.882C364.935 288.165 353.223 296.43 346.715 307.741C339.704 319.938 340.24 337.02 341.026 352.279C341.612 363.606 339.955 374.715 340.24 386.092C340.552 399.02 340.424 411.914 339.855 424.774" stroke="#E4FEF9" stroke-width="2"/>
<path d="M339.854 424.775C338.025 423.704 335.454 423.169 332.141 423.169" stroke="#67E3DA" stroke-width="2"/>
<path d="M332.142 423.169C332.097 402.4 332.187 381.904 332.41 361.682C332.627 342.224 307.163 336.418 299.952 354.421C298.925 356.997 298.384 361.141 298.329 366.852C298.15 387.431 298.145 408.01 298.312 428.589C298.496 451.411 325.048 459.073 332.326 435.65" stroke="#657F85" stroke-width="2"/>
<path d="M332.325 435.65C334.049 445.204 322.923 447.596 322.554 456.296C322.22 464.461 331.271 472.777 333.212 477.478C334.116 479.698 334.255 483.596 333.63 489.173" stroke="#67E3DA" stroke-width="2"/>
<path d="M333.63 489.173C333.474 489.083 333.268 489.106 333.011 489.24C332.81 489.351 332.721 489.295 332.743 489.072C332.81 488.392 332.61 488.013 332.141 487.935" stroke="#84F1EB" stroke-width="2"/>
<path d="M298.211 490.93C287.202 502.552 275.892 513.288 264.281 523.137" stroke="#67E3DA" stroke-width="2"/>
<path d="M536.193 262.283C534.687 264.843 533.767 267.269 531.558 269.227C504.805 293.018 482.536 320.006 457.724 343.128C451.668 348.783 446.431 354.806 440.843 360.813C440.643 361.026 440.488 361.277 440.387 361.552C440.286 361.826 440.241 362.119 440.255 362.412C440.269 362.705 440.342 362.993 440.468 363.258C440.595 363.524 440.774 363.762 440.993 363.958C451.266 373.11 459.933 383.801 469.386 393.639" stroke="#02A2AE" stroke-width="2"/>
<path d="M476.096 401.485L475.009 401.703C474.845 401.739 474.695 401.823 474.577 401.942C474.46 402.062 474.379 402.213 474.346 402.378C474.312 402.542 474.327 402.713 474.388 402.869C474.449 403.026 474.554 403.161 474.691 403.259C476.62 404.62 477.568 406.505 477.535 408.914C477.524 409.516 477.284 410.001 476.816 410.37C474.752 412.02 472.867 413.838 471.16 415.824C468.919 418.412 467.167 420.291 465.907 421.462C458.529 428.288 446.984 438.126 436.745 449.186C434.458 451.662 432.64 453.519 431.29 454.757C424.146 461.316 417.872 468.895 411.13 475.905C408.77 478.365 405.106 480.757 402.63 483.936C401.571 485.308 400.433 486.501 399.217 487.516C395.369 490.729 392.29 494.711 388.559 498.107C380.378 505.569 373.384 514.303 365.303 521.966C362.944 524.191 362.911 525.546 362.894 528.591C362.76 556.398 362.794 575.778 362.994 586.731C363.039 589.308 363.63 592.392 364.768 595.984C364.935 596.508 364.829 596.976 364.45 597.389C358.862 603.323 353.329 609.318 347.853 615.375C346.102 617.305 345.181 619.335 345.092 621.465C344.423 636.188 359.263 648.402 373.334 639.2C379.006 635.502 382.519 631.052 387.003 624.979C391.956 618.269 393.964 622.787 399.786 622.636C405.675 622.486 409.54 618.487 412.468 614.388C412.618 614.18 412.816 614.01 413.045 613.891C413.275 613.772 413.529 613.707 413.79 613.702L437.13 613.618C437.698 613.618 438.262 613.691 438.819 613.836C439.466 614.003 439.991 614.293 440.392 614.706C441.028 615.375 441.39 615.247 441.48 614.321L441.63 612.732" stroke="#21D7D2" stroke-width="2"/>
<path d="M442.249 613.032C442.338 613.913 442.695 614.772 443.32 615.609C450.916 625.692 458.69 635.402 466.643 644.737C466.837 644.965 467.078 645.148 467.348 645.276C467.619 645.403 467.914 645.472 468.213 645.476C468.512 645.481 468.808 645.422 469.083 645.303C469.357 645.185 469.604 645.009 469.805 644.788C480.022 633.622 490.474 622.792 501.159 612.296C513.752 599.937 526.217 587.445 538.553 574.818C540.438 572.878 542.451 571.087 544.593 569.448" stroke="#02A2AE" stroke-width="2"/>
<path d="M544.594 569.448C544.471 570.128 544.75 570.669 545.43 571.071C545.91 571.35 546.3 571.723 546.601 572.192L583.175 629.077" stroke="#21D7D2" stroke-width="2"/>
<path d="M583.174 629.078C583.453 629.658 583.341 630.171 582.839 630.617C580.798 632.474 577.803 634.231 575.561 636.473C569.616 642.384 563.626 648.251 557.592 654.074C556.131 655.49 554.592 656.126 552.974 655.981C548.111 655.569 543.789 655.44 540.008 655.596C514.342 656.6 488.309 656.115 462.627 655.714C456.905 655.613 446.347 656.098 437.53 655.58C432.756 655.301 425.645 655.306 416.198 655.596C393.176 656.299 370.154 656.55 347.132 656.349C344.054 656.333 340.005 657.169 336.291 656.634C335.875 656.574 335.495 656.367 335.216 656.048C334.937 655.73 334.779 655.321 334.768 654.894L334.015 609.318" stroke="#03BFBF" stroke-width="2"/>
<path d="M334.016 609.318C333.971 586.085 333.944 562.801 333.932 539.466C333.932 539.188 333.888 538.92 333.799 538.663C333.654 538.262 333.581 537.843 333.581 537.408L333.631 489.173" stroke="#21D7D2" stroke-width="2"/>
<path d="M332.325 435.65L332.141 423.169" stroke="#02656C" stroke-width="2"/>
<path d="M339.855 424.774C340.87 430.006 344.417 432.677 350.496 432.788C365.587 433.039 367.662 422.951 367.695 410.637C367.785 383.767 367.673 356.891 367.361 330.01C367.26 321.176 371.242 316.023 379.892 314.45C381.833 314.093 383.763 313.742 385.681 313.396C391.258 312.392 395.491 309.67 398.38 305.231C401.024 301.149 400.154 291.562 397.226 287.881C395.296 285.461 392.814 283.575 389.78 282.226" stroke="#82E4E0" stroke-width="2"/>
<path d="M297.91 658.424C297.397 657.967 297.052 657.376 296.873 656.651C296.773 656.216 296.527 656.115 296.137 656.35C295.747 656.595 295.546 656.885 295.535 657.22C295.468 665.418 294.313 675.239 297.291 682.366C303.047 696.169 314.391 697.374 329.147 697.508C351.835 697.731 374.527 697.932 397.226 698.11C400.957 698.144 406.528 697.608 411.18 698.077" stroke="#21D7D2" stroke-width="2"/>
<path d="M411.179 698.076L350.964 756.233" stroke="#02A2AE" stroke-width="2"/>
<path d="M350.963 756.234C350.673 755.776 350.712 755.258 351.081 754.678C351.203 754.477 351.159 754.332 350.947 754.243C350.813 754.187 350.657 754.159 350.478 754.159C350.255 754.17 350.038 754.282 349.826 754.494C347.216 757.07 343.736 759.028 341.494 761.504C338.633 764.65 337.947 768.481 332.543 768.28C325.75 768.029 310.725 766.557 304.903 769.267" stroke="#21D7D2" stroke-width="2"/>
<path d="M512.117 341.589C504.912 346.419 498.375 352.085 492.508 358.588C488.984 362.492 488.164 366.775 490.049 371.437" stroke="#80BECD" stroke-width="2"/>
<path d="M334.015 609.318C334.64 615.04 334.015 618.481 332.141 619.641" stroke="#20CECF" stroke-width="2"/>
<path d="M455.817 698.11C461.121 699.282 465.872 697.776 471.025 700.67C471.429 700.898 471.783 701.202 472.067 701.563C472.351 701.925 472.56 702.338 472.682 702.778C473.139 704.429 472.855 705.857 471.829 707.061C471.766 707.138 471.685 707.199 471.595 707.24C471.504 707.28 471.405 707.298 471.306 707.293C471.206 707.289 471.11 707.26 471.023 707.211C470.937 707.162 470.863 707.094 470.808 707.011C470.462 706.521 470.033 706.498 469.52 706.944C469.241 707.19 469.085 707.513 469.051 707.915C469.018 708.439 468.761 708.807 468.282 709.019C466.04 709.989 464.79 711.244 464.534 712.783" stroke="#0185A1" stroke-width="2"/>
<path d="M455.901 723.257C454.686 725.476 453.297 727.122 451.735 728.192" stroke="#1FB1BE" stroke-width="2"/>
<path d="M408.954 768.381L406.946 769.167" stroke="#1FB1BE" stroke-width="2"/>
<path d="M406.945 769.167L357.271 769.569C356.925 769.569 356.758 769.825 356.769 770.338C356.78 770.472 357.204 770.768 358.041 771.225" stroke="#0185A1" stroke-width="2"/>
<path d="M336.876 771.276C341.014 765.509 345.71 760.495 350.963 756.234" stroke="#1FB1BE" stroke-width="2"/>
<path d="M586.638 631.939C585.98 632.162 585.054 631.855 583.86 631.019" stroke="#1F9EB1" stroke-width="2"/>
<path d="M583.86 631.019C583.559 630.629 583.33 629.982 583.174 629.079" stroke="#20CECF" stroke-width="2"/>
<path d="M546.601 568.411C545.708 568.333 545.039 568.679 544.593 569.449" stroke="#1FB1BE" stroke-width="2"/>
<path d="M583.86 631.019C583.882 631.152 583.904 631.292 583.926 631.437C583.938 631.459 583.932 631.476 583.91 631.487C574.741 639.719 565.885 648.279 557.341 657.169C556.944 657.577 556.47 657.903 555.948 658.127C555.425 658.351 554.863 658.469 554.296 658.474L537.531 658.658" stroke="#01879E" stroke-width="2"/>
<path d="M583.576 694.981L602.398 695.416C602.585 695.42 602.766 695.476 602.922 695.579C603.078 695.681 603.201 695.826 603.278 695.996C603.355 696.165 603.383 696.354 603.357 696.538C603.332 696.723 603.254 696.897 603.134 697.039C602.9 697.318 602.549 697.558 602.08 697.759" stroke="#1FB1BE" stroke-width="2"/>
<path d="M602.08 697.759L481.935 697.909" stroke="#21D7D2" stroke-width="2"/>
<path d="M481.934 697.909L455.817 698.11" stroke="#20B9C5" stroke-width="2"/>
<path d="M455.817 698.11L411.179 698.076" stroke="#1FB1BE" stroke-width="2"/>
<path d="M532.145 360.428C531.999 363.573 532.418 365.642 533.399 366.635C552.149 385.731 571.256 405.088 590.72 424.708C592.181 426.181 592.181 427.664 590.72 429.159L587.39 432.555C585.907 434.061 584.407 434.072 582.89 432.589L526.858 377.544C526.661 377.35 526.427 377.197 526.17 377.095C525.912 376.993 525.637 376.944 525.359 376.95C525.082 376.956 524.808 377.018 524.554 377.131C524.3 377.245 524.07 377.408 523.879 377.61L511.013 391.464" stroke="#FFD980" stroke-width="2"/>
<path d="M406.093 771.208C406.003 770.416 406.288 769.736 406.946 769.167" stroke="#20B9C5" stroke-width="2"/>
<path d="M531.843 767.896C495.849 768.152 459.732 768.325 423.493 768.414C419.896 768.414 414.006 769.418 408.954 768.381" stroke="#21D7D2" stroke-width="2"/>
<path d="M408.954 768.38C414.14 762.725 420.297 757.555 425.183 752.486C433.437 743.908 442.287 735.811 451.735 728.192" stroke="#02A2AE" stroke-width="2"/>
<path d="M451.735 728.193C451.311 740.842 456.939 749.597 468.617 754.461C481.818 759.965 494.901 750.127 497.93 737.83C499.156 732.844 498.811 728.104 496.892 723.609C494.594 718.199 490.791 714.763 485.482 713.302" stroke="#21D7D2" stroke-width="2"/>
<path d="M485.481 713.302C477.785 709.934 470.713 710.547 464.266 715.143C460.864 717.563 458.305 720.803 456.587 724.863" stroke="#02656C" stroke-width="2"/>
<path d="M456.586 724.863C456.687 723.96 456.458 723.424 455.9 723.257" stroke="#21D7D2" stroke-width="2"/>
<path d="M455.9 723.256C457.73 718.46 460.607 714.969 464.534 712.783" stroke="#02A2AE" stroke-width="2"/>
<path d="M464.534 712.783L474.94 709.035C475.442 708.857 475.894 708.6 476.296 708.266C478.002 706.871 479.408 705.243 480.512 703.38C480.824 702.867 481.281 702.555 481.884 702.443C483.044 702.243 483.997 701.729 484.745 700.904C484.948 700.684 485.087 700.412 485.146 700.118C485.205 699.824 485.181 699.519 485.077 699.236C484.974 698.953 484.795 698.704 484.559 698.514C484.323 698.324 484.04 698.202 483.741 698.16L481.934 697.909" stroke="#03ABB5" stroke-width="2"/>
<path d="M412.501 771.074C450.536 770.963 488.577 770.929 526.623 770.974C529.2 770.974 530.94 769.948 531.844 767.896" stroke="#1FB1BE" stroke-width="2"/>
<path d="M531.844 767.895L602.081 697.759" stroke="#02A2AE" stroke-width="2"/>
<path d="M649.262 494.46L589.198 436.353C588.529 435.711 587.636 435.358 586.711 435.37C585.787 435.383 584.907 435.76 584.262 436.42L570.459 450.491" stroke="#FF922C" stroke-width="2"/>
<path d="M485.482 713.302C495.074 720.541 498.443 728.968 495.587 738.583C492.643 748.538 481.65 755.498 471.394 753.44C458.495 750.847 453.141 736.86 456.587 724.863" stroke="#1F737C" stroke-width="2"/>
<path d="M600.508 771.342L680.298 692.89" stroke="#006A8D" stroke-width="2"/>
<path d="M679.345 689.56C677.95 691.166 676.177 692.103 674.024 692.371C673.49 692.448 673 692.681 672.619 693.04C671.804 693.81 670.806 694.139 669.624 694.027C669.055 693.971 668.508 694.077 667.984 694.345L665.508 695.617C665.051 695.851 664.577 695.896 664.086 695.751C663.751 695.65 663.417 695.583 663.082 695.55C662.725 695.505 662.156 695.633 661.375 695.935C660.249 696.347 659.172 696.135 658.146 695.299C658.025 695.2 657.888 695.131 657.745 695.098L648.241 693.107C647.933 693.042 647.65 692.889 647.427 692.666C647.205 692.444 647.051 692.161 646.987 691.852C646.674 690.369 645.743 689.9 644.193 690.447C643.479 690.703 642.648 690.793 641.7 690.715" stroke="#006A8D" stroke-width="2"/>
<path d="M704.759 665.868C700.654 671.847 694.698 678.952 686.89 687.184C684.269 689.95 682.071 691.852 680.298 692.889" stroke="#017294" stroke-width="2"/>
<path d="M680.298 692.89C679.316 692.231 678.998 691.122 679.344 689.56" stroke="#0185A1" stroke-width="2"/>
<path d="M679.344 689.561C679.79 676.354 679.974 663.131 679.896 649.892C679.695 612.436 679.545 574.981 679.444 537.526C679.411 528.207 678.742 518.737 680.298 508.631" stroke="#017294" stroke-width="2"/>
<path d="M681.569 267.571C680.554 267.738 680.147 268.178 680.348 268.892C679.444 269.751 678.597 269.807 677.805 269.06C674.804 266.226 672.2 263.973 669.991 262.3C666.143 259.406 664.805 255.123 659.283 254.821C655.223 254.587 651.576 255.028 648.341 256.143C647.483 256.433 646.897 257.242 646.585 258.569C646.535 258.797 646.415 259.002 646.24 259.156C646.065 259.309 645.846 259.403 645.614 259.423C635.709 260.242 632.514 266.5 626.892 272.858C626.413 273.396 626.12 274.076 626.057 274.796C625.994 275.516 626.163 276.238 626.541 276.856C628.214 279.567 630.227 282.021 632.581 284.218C633.574 285.144 634.365 286.203 634.957 287.397C638.805 295.193 646.2 294.541 647.756 303.643C647.845 304.212 648.18 304.529 648.76 304.596C649.027 304.619 649.223 304.752 649.345 304.998C649.669 305.623 649.49 305.857 648.81 305.701C648.397 305.611 648.024 305.595 647.689 305.65" stroke="#F3FFFE" stroke-width="2"/>
<path d="M687.007 272.941C674.415 284.43 662.591 296.526 651.538 309.231" stroke="#74DBDC" stroke-width="2"/>
<path d="M694.135 280.336C693.065 286.159 686.071 290.492 682.273 294.708C675.915 301.735 669.44 308.651 662.848 315.455C662.654 315.657 662.42 315.817 662.161 315.925C661.902 316.033 661.624 316.087 661.344 316.084C661.063 316.081 660.786 316.021 660.53 315.907C660.274 315.793 660.044 315.627 659.854 315.421C658.058 313.469 656.836 312.973 656.189 313.932" stroke="#55D9D5" stroke-width="2"/>
<path d="M606.23 308.611C605.795 309.76 605.137 310.591 604.255 311.104C603.698 311.428 603.229 311.322 602.85 310.786L599.086 305.482C598.812 305.099 598.461 304.777 598.055 304.537C597.65 304.297 597.199 304.145 596.731 304.09C596.263 304.035 595.788 304.078 595.338 304.217C594.888 304.356 594.472 304.588 594.116 304.897C585.968 312.008 579.811 320.959 572.048 328.772C569.014 331.828 566.097 335.063 563.298 338.476C563.209 338.585 563.153 338.717 563.138 338.857C563.123 338.996 563.15 339.137 563.214 339.262C563.66 340.144 563.978 340.896 564.168 341.521C564.324 342.001 564.592 342.408 564.971 342.742C570.308 347.36 574.859 353.149 579.845 357.817C581.362 359.234 583.213 361.269 585.4 363.924C587.363 366.289 589.515 368.486 591.858 370.516C592.282 370.895 592.348 371.754 592.058 373.093" stroke="#E4FEF9" stroke-width="2"/>
<path d="M592.058 373.093L590.82 375.402" stroke="#9FF2F1" stroke-width="2"/>
<path d="M632.13 334.946C632.108 335.582 631.455 335.928 630.172 335.983C629.617 336.005 629.074 336.204 628.616 336.552C618.645 344.282 608.087 356.379 592.059 373.093" stroke="#84F1EB" stroke-width="2"/>
<path d="M724.017 313.463C723.459 314.6 722.555 315.342 721.306 315.688" stroke="#9FF2F1" stroke-width="2"/>
<path d="M721.306 315.689L686.556 347.812" stroke="#82E4E0" stroke-width="2"/>
<path d="M753.58 349.719L740.078 362.585" stroke="#0290A0" stroke-width="2"/>
<path d="M740.078 362.585C740.178 362.228 740.195 361.916 740.128 361.648C740.089 361.518 740.019 361.398 739.925 361.299C739.831 361.2 739.714 361.125 739.586 361.08C739.457 361.034 739.319 361.019 739.184 361.037C739.049 361.054 738.919 361.103 738.806 361.18C733.865 364.604 729.638 368.72 726.124 373.527C724.585 375.652 724.401 378.296 720.787 378.346C720.24 378.357 719.766 378.173 719.365 377.794C718.74 377.214 718.132 376.667 717.541 376.154C713.481 372.63 709.672 368.859 706.114 364.844C702.517 360.778 698.25 357.549 694.503 353.584C691.045 349.948 689.667 349.39 690.37 351.911" stroke="#21D7D2" stroke-width="2"/>
<path d="M754.936 346.423L755.321 347.963C755.466 348.543 755.293 349.005 754.802 349.351C754.479 349.574 754.072 349.697 753.581 349.719" stroke="#1F9EB1" stroke-width="2"/>
<path d="M753.58 349.72C752.627 348.415 752.192 346.608 751.104 345.437C742.192 335.889 733.291 326.335 724.401 316.776C724.033 316.386 723.582 316.135 723.046 316.023L721.306 315.689" stroke="#21D7D2" stroke-width="2"/>
<path d="M720.854 383.132L740.077 362.586" stroke="#1F9EB1" stroke-width="2"/>
<path d="M666.412 371.938L625.17 410.939" stroke="#82E4E0" stroke-width="2"/>
<path d="M700.927 407.058C687.141 418.49 674.509 430.911 663.032 444.318" stroke="#0290A0" stroke-width="2"/>
<path d="M663.031 444.317C662.786 444.061 662.217 444.055 661.325 444.301C660.756 444.468 660.271 444.334 659.869 443.899L632.045 414.302C631.899 414.146 631.71 414.035 631.502 413.984C631.294 413.933 631.076 413.943 630.873 414.014C630.671 414.085 630.494 414.214 630.364 414.383C630.233 414.553 630.155 414.758 630.138 414.971L630.088 415.674" stroke="#21D7D2" stroke-width="2"/>
<path d="M660.656 447.01C661.638 446.542 662.43 445.644 663.032 444.316" stroke="#1F9EB1" stroke-width="2"/>
<path d="M517.455 441.439L412.802 545.975" stroke="#FFD980" stroke-width="2"/>
<path d="M537.8 462.001L529.016 471.003C528.648 471.393 528.219 471.694 527.728 471.906C527.137 472.163 526.641 472.542 526.239 473.044C523.378 476.541 519.597 478.883 516.552 482.263C512.012 487.293 507.115 491.944 501.862 496.216C500.758 497.12 499.888 498.642 498.616 499.931C495.103 503.5 491.617 507.097 488.159 510.722C487.797 511.117 487.342 511.411 486.837 511.576C483.96 512.563 483.341 515.223 480.697 516.428C480.206 516.651 479.805 516.974 479.493 517.398C476.615 521.213 473.168 525.167 469.153 529.26C459.828 538.775 452.015 546.41 445.713 552.165C441.006 556.47 436.204 560.843 431.307 565.282" stroke="#FF922C" stroke-width="2"/>
<path d="M589.382 517.515L578.188 530.782" stroke="#1F9EB1" stroke-width="2"/>
<path d="M578.189 530.784C575.489 531.955 572.706 534.309 569.84 537.845" stroke="#0290A0" stroke-width="2"/>
<path d="M569.89 538.212C569.89 537.576 570.236 537.214 570.927 537.124C571.062 537.11 571.198 537.135 571.32 537.198C571.441 537.26 571.543 537.357 571.613 537.476C575.551 543.99 579.611 550.498 583.794 557.001C590.419 567.29 596.275 578.734 602.482 588.823C603.988 591.277 606.001 593.569 608.522 595.7C608.968 596.079 609.437 596.107 609.928 595.783C619.615 589.509 617.457 583.168 617.858 573.464C618.07 568.333 618.12 563.208 618.009 558.088C617.958 556.047 619.33 552.534 617.59 550.559C611.79 543.956 605.968 537.37 600.123 530.8C597.234 527.554 594.139 524.665 590.837 522.133C590.487 521.863 590.055 521.721 589.616 521.73C589.177 521.739 588.758 521.899 588.428 522.184L578.189 530.783" stroke="#21D7D2" stroke-width="2"/>
<path d="M589.262 262.501L536.191 262.283L429.665 262.015L401.339 261.313C401.239 261.313 401.166 261.363 401.122 261.463L400.938 261.865C400.882 261.987 400.793 262.043 400.67 262.032C395.801 261.865 392.455 261.848 386.917 262.701C376.427 264.307 363.661 262.885 354.927 262.668C333.813 262.116 313.518 262.835 292.822 262.969C280.24 263.036 268.813 271.736 264.764 283.163C263.392 287.056 262.7 294.585 262.689 305.75C262.644 375.998 262.533 446.235 262.354 516.461C262.354 519.149 262.996 521.374 264.278 523.137C263.197 523.862 262.644 525.959 262.622 529.428C262.254 592.426 262.137 655.423 262.271 718.421C262.304 733.563 261.719 740.389 269.934 751.03C279.002 762.775 290.658 768.854 304.901 769.267C305.548 770.115 305.727 770.795 305.437 771.308C296.859 772.067 288.338 771.81 279.872 770.539C279.593 770.494 279.314 770.388 279.035 770.221C278.868 770.12 278.695 770.026 278.517 769.936C278.349 769.847 278.165 769.791 277.964 769.769C263.459 768.514 251.646 754.862 247.397 742.062C245.779 737.199 244.965 729.475 244.954 718.89C244.854 528.959 244.893 388.424 245.071 297.284C245.105 276.638 257.469 258.117 276.961 251.692C281.824 250.086 289.42 249.283 299.748 249.283C399.867 249.261 499.991 249.144 600.121 248.932C600.734 248.932 600.84 249.166 600.439 249.634L589.262 262.501Z" fill="white"/>
<path d="M681.567 267.57C680.552 267.738 680.145 268.178 680.345 268.892C679.442 269.751 678.594 269.807 677.802 269.059C674.802 266.226 672.197 263.973 669.989 262.3C666.141 259.405 664.802 255.122 659.281 254.821C655.221 254.587 651.574 255.027 648.339 256.143C647.48 256.433 646.894 257.242 646.582 258.569C646.533 258.796 646.412 259.002 646.237 259.155C646.063 259.309 645.843 259.402 645.612 259.422C635.707 260.242 632.511 266.499 626.89 272.857C626.41 273.396 626.118 274.075 626.054 274.795C625.991 275.515 626.161 276.238 626.538 276.856C628.211 279.566 630.225 282.02 632.578 284.218C633.571 285.143 634.363 286.203 634.954 287.396C638.802 295.193 646.197 294.541 647.753 303.642C647.843 304.211 648.177 304.529 648.757 304.596C649.025 304.618 649.22 304.752 649.343 304.998C649.666 305.622 649.488 305.856 648.807 305.7C648.395 305.611 648.021 305.594 647.686 305.65L619.126 276.421C617.978 275.239 618 274.073 619.193 272.924L642.801 250.304C643.303 249.824 643.9 249.584 644.591 249.584L661.188 249.551C661.724 249.54 662.214 249.696 662.661 250.019C669.654 255.072 675.956 260.922 681.567 267.57Z" fill="white"/>
<path d="M681.567 267.571L687.005 272.941C674.412 284.43 662.589 296.526 651.535 309.231C650.163 308.417 648.88 307.223 647.687 305.65C648.022 305.595 648.395 305.611 648.808 305.701C649.488 305.857 649.667 305.623 649.343 304.998C649.221 304.752 649.025 304.619 648.758 304.596C648.178 304.529 647.843 304.212 647.754 303.643C646.198 294.541 638.803 295.193 634.955 287.397C634.363 286.203 633.572 285.144 632.579 284.218C630.225 282.021 628.212 279.567 626.539 276.856C626.161 276.238 625.992 275.516 626.055 274.796C626.118 274.076 626.411 273.396 626.89 272.858C632.512 266.5 635.708 260.242 645.612 259.423C645.844 259.403 646.063 259.309 646.238 259.156C646.413 259.002 646.533 258.797 646.583 258.569C646.895 257.242 647.481 256.433 648.339 256.143C651.574 255.028 655.221 254.587 659.282 254.821C664.803 255.123 666.141 259.406 669.989 262.3C672.198 263.973 674.802 266.226 677.803 269.06C678.595 269.807 679.442 269.751 680.346 268.892C680.145 268.178 680.552 267.738 681.567 267.571Z" fill="#E6FFFC"/>
<path d="M429.665 262.015C421.11 262.015 412.583 262.249 404.083 262.718C394.814 263.237 389.778 271.435 387.218 279.65C387.051 280.174 387.174 280.62 387.586 280.988C388.144 281.479 388.875 281.892 389.778 282.226C385.512 282.477 381.128 282.494 377.13 283.883C364.933 288.166 353.221 296.431 346.712 307.741C339.702 319.938 340.238 337.02 341.024 352.279C341.609 363.606 339.953 374.716 340.237 386.093C340.55 399.02 340.422 411.914 339.853 424.775C338.023 423.704 335.452 423.169 332.14 423.169C332.095 402.4 332.184 381.904 332.407 361.682C332.625 342.224 307.16 336.418 299.949 354.421C298.923 356.997 298.382 361.141 298.326 366.852C298.148 387.431 298.142 408.01 298.309 428.589C298.494 451.411 325.046 459.073 332.324 435.65C334.047 445.203 322.921 447.596 322.553 456.296C322.218 464.461 331.27 472.776 333.211 477.478C334.114 479.697 334.253 483.596 333.629 489.173C333.473 489.083 333.266 489.106 333.01 489.24C332.809 489.351 332.72 489.295 332.742 489.072C332.809 488.392 332.608 488.013 332.14 487.934C332.653 482.357 331.019 477.176 327.238 472.391C323.908 468.192 320.428 467.69 315.007 467.539C306.352 467.283 300.802 471.605 298.36 480.506C297.635 483.105 297.584 486.579 298.209 490.929C287.2 502.552 275.89 513.288 264.279 523.137C262.996 521.374 262.354 519.149 262.354 516.461C262.533 446.235 262.645 375.998 262.689 305.75C262.7 294.585 263.392 287.056 264.764 283.163C268.813 271.736 280.24 263.036 292.822 262.969C313.518 262.835 333.813 262.116 354.927 262.668C363.661 262.885 376.427 264.307 386.917 262.701C392.455 261.848 395.801 261.865 400.67 262.032C400.793 262.043 400.882 261.987 400.938 261.865L401.122 261.463C401.166 261.363 401.239 261.312 401.339 261.312L429.665 262.015Z" fill="#C9FDF3"/>
<path d="M429.665 262.015L536.192 262.283C534.686 264.843 533.766 267.269 531.557 269.226C504.804 293.018 482.535 320.005 457.723 343.127C451.666 348.782 446.43 354.805 440.841 360.812C440.641 361.025 440.486 361.276 440.385 361.551C440.284 361.826 440.24 362.118 440.254 362.411C440.268 362.704 440.34 362.992 440.467 363.258C440.594 363.523 440.772 363.761 440.992 363.957C451.265 373.109 459.931 383.8 469.385 393.638L476.094 401.485L475.006 401.703C474.842 401.739 474.693 401.822 474.575 401.942C474.457 402.062 474.377 402.213 474.343 402.378C474.31 402.542 474.324 402.713 474.385 402.869C474.447 403.025 474.552 403.161 474.688 403.259C476.618 404.619 477.566 406.504 477.533 408.914C477.521 409.516 477.282 410.001 476.813 410.369C474.75 412.02 472.865 413.838 471.158 415.824C468.916 418.411 467.165 420.291 465.905 421.462C458.526 428.288 446.982 438.126 436.742 449.185C434.456 451.662 432.638 453.519 431.288 454.757C424.144 461.315 417.87 468.894 411.127 475.905C408.768 478.364 405.104 480.757 402.628 483.936C401.568 485.308 400.43 486.501 399.215 487.516C395.366 490.728 392.288 494.71 388.557 498.107C380.375 505.569 373.382 514.303 365.301 521.965C362.942 524.191 362.908 525.546 362.892 528.591C362.758 556.398 362.791 575.778 362.992 586.731C363.037 589.308 363.628 592.392 364.765 595.983C364.933 596.508 364.827 596.976 364.447 597.389C358.859 603.323 353.327 609.318 347.85 615.375C346.099 617.304 345.179 619.334 345.09 621.465C344.42 636.188 359.261 648.402 373.332 639.2C379.003 635.502 382.517 631.052 387.001 624.978C391.953 618.269 393.961 622.787 399.783 622.636C405.673 622.485 409.538 618.487 412.466 614.388C412.616 614.18 412.814 614.01 413.043 613.891C413.272 613.772 413.527 613.707 413.787 613.702L437.127 613.618C437.696 613.618 438.259 613.691 438.817 613.836C439.464 614.003 439.988 614.293 440.39 614.706C441.025 615.375 441.388 615.246 441.477 614.321L441.628 612.731C441.918 612.709 442.124 612.809 442.247 613.032C442.336 613.914 442.693 614.772 443.318 615.609C450.914 625.692 458.688 635.402 466.641 644.738C466.835 644.965 467.075 645.149 467.346 645.276C467.617 645.404 467.911 645.472 468.21 645.477C468.51 645.481 468.806 645.422 469.081 645.304C469.355 645.185 469.601 645.009 469.803 644.788C480.02 633.623 490.471 622.792 501.157 612.296C513.75 599.938 526.214 587.445 538.551 574.819C540.436 572.878 542.449 571.088 544.591 569.448C544.468 570.128 544.747 570.669 545.427 571.071C545.907 571.35 546.297 571.723 546.598 572.192L583.172 629.077C583.451 629.657 583.34 630.171 582.838 630.617C580.797 632.474 577.802 634.231 575.56 636.473C569.615 642.384 563.625 648.251 557.591 654.074C556.129 655.49 554.59 656.126 552.973 655.981C548.11 655.568 543.787 655.44 540.006 655.596C514.341 656.6 488.307 656.115 462.625 655.713C456.903 655.613 446.346 656.098 437.529 655.579C432.755 655.301 425.644 655.306 416.197 655.596C393.175 656.299 370.153 656.55 347.131 656.349C344.052 656.332 340.003 657.169 336.289 656.633C335.874 656.574 335.493 656.367 335.215 656.048C334.936 655.73 334.777 655.321 334.767 654.893L334.014 609.318C333.969 586.084 333.941 562.8 333.93 539.466C333.93 539.187 333.885 538.919 333.796 538.663C333.651 538.261 333.579 537.843 333.579 537.408L333.629 489.172C334.254 483.595 334.114 479.697 333.211 477.478C331.27 472.776 322.218 464.461 322.553 456.296C322.921 447.596 334.047 445.203 332.324 435.65L332.14 423.169C335.453 423.169 338.024 423.704 339.853 424.775C340.868 430.006 344.415 432.677 350.494 432.789C365.585 433.04 367.66 422.951 367.693 410.637C367.783 383.767 367.671 356.891 367.359 330.01C367.258 321.176 371.24 316.023 379.89 314.45C381.831 314.093 383.761 313.742 385.679 313.396C391.256 312.392 395.489 309.671 398.378 305.231C401.021 301.149 400.151 291.562 397.224 287.881C395.294 285.461 392.812 283.576 389.778 282.226C388.875 281.892 388.144 281.479 387.587 280.988C387.174 280.62 387.051 280.174 387.218 279.65C389.778 271.435 394.814 263.236 404.083 262.718C412.583 262.249 421.11 262.015 429.665 262.015Z" fill="#04C8C1"/>
<path d="M589.262 262.501C556.291 293.888 531.395 318.187 514.575 335.398C513.259 336.748 512.439 338.811 512.115 341.589C504.91 346.418 498.374 352.085 492.507 358.587C488.982 362.491 488.162 366.774 490.047 371.437L469.384 393.639C459.931 383.801 451.265 373.11 440.992 363.958C440.772 363.762 440.594 363.524 440.467 363.258C440.34 362.993 440.268 362.705 440.253 362.412C440.239 362.119 440.284 361.826 440.385 361.552C440.486 361.277 440.641 361.026 440.841 360.813C446.429 354.806 451.666 348.783 457.723 343.128C482.535 320.006 504.804 293.018 531.557 269.227C533.765 267.269 534.685 264.843 536.191 262.283L589.262 262.501Z" fill="#007C9A"/>
<path d="M687.006 272.941C690.096 275.205 692.471 277.67 694.133 280.336C693.063 286.158 686.069 290.492 682.271 294.708C675.913 301.735 669.438 308.651 662.846 315.454C662.652 315.656 662.418 315.816 662.159 315.925C661.9 316.033 661.622 316.087 661.342 316.084C661.061 316.081 660.784 316.021 660.528 315.906C660.272 315.792 660.042 315.627 659.852 315.421C658.056 313.469 656.834 312.973 656.187 313.932L651.536 309.231C662.59 296.526 674.413 284.43 687.006 272.941Z" fill="#01B6BC"/>
<path d="M694.133 280.336L695.772 281.742C695.909 281.858 696.019 282.002 696.097 282.164C696.175 282.326 696.219 282.503 696.225 282.684C696.231 282.864 696.2 283.045 696.134 283.214C696.068 283.383 695.967 283.537 695.839 283.666L662.109 317.546C661.674 317.981 661.223 318.009 660.754 317.63L656.187 313.932C656.833 312.973 658.055 313.469 659.851 315.421C660.041 315.627 660.271 315.793 660.527 315.907C660.784 316.021 661.06 316.081 661.341 316.084C661.621 316.087 661.899 316.033 662.158 315.925C662.417 315.817 662.651 315.657 662.845 315.455C669.437 308.651 675.912 301.735 682.27 294.708C686.068 290.492 693.062 286.159 694.133 280.336Z" fill="#A8FBED"/>
<path d="M389.778 282.226C392.812 283.575 395.294 285.461 397.223 287.881C400.151 291.562 401.021 301.149 398.378 305.231C395.489 309.67 391.256 312.392 385.679 313.396C383.76 313.742 381.831 314.093 379.89 314.45C371.24 316.023 367.258 321.176 367.358 330.01C367.671 356.891 367.782 383.767 367.693 410.637C367.66 422.951 365.585 433.039 350.493 432.788C344.415 432.677 340.868 430.006 339.853 424.774C340.421 411.914 340.55 399.02 340.237 386.092C339.953 374.715 341.609 363.606 341.024 352.279C340.237 337.02 339.702 319.938 346.712 307.741C353.221 296.43 364.932 288.165 377.129 283.882C381.128 282.494 385.512 282.477 389.778 282.226Z" fill="white"/>
<path d="M606.227 308.612C605.792 309.76 605.134 310.591 604.253 311.104C603.695 311.428 603.227 311.322 602.847 310.787L599.083 305.483C598.809 305.099 598.458 304.777 598.053 304.538C597.647 304.298 597.196 304.145 596.728 304.09C596.26 304.035 595.786 304.078 595.336 304.217C594.885 304.356 594.469 304.588 594.114 304.897C585.966 312.008 579.809 320.959 572.046 328.772C569.012 331.829 566.095 335.063 563.295 338.476C563.206 338.585 563.151 338.717 563.136 338.857C563.121 338.997 563.147 339.138 563.212 339.263C563.658 340.144 563.976 340.897 564.165 341.521C564.321 342.001 564.589 342.408 564.968 342.743C570.306 347.361 574.856 353.15 579.842 357.818C581.359 359.234 583.211 361.27 585.397 363.924C587.36 366.289 589.513 368.486 591.855 370.516C592.279 370.896 592.346 371.754 592.056 373.093L590.818 375.402L556.787 337.908C556.553 337.65 556.426 337.313 556.432 336.968C556.439 336.622 556.577 336.294 556.82 336.05L594.633 297.787C594.757 297.659 594.906 297.559 595.07 297.493C595.235 297.426 595.411 297.394 595.589 297.398C595.766 297.403 595.941 297.444 596.102 297.52C596.262 297.595 596.406 297.703 596.523 297.837L606.227 308.612Z" fill="white"/>
<path d="M606.228 308.611L632.128 334.946C632.106 335.582 631.453 335.927 630.17 335.983C629.615 336.005 629.072 336.203 628.614 336.552C618.643 344.282 608.085 356.378 592.057 373.093C592.347 371.754 592.28 370.895 591.856 370.516C589.514 368.486 587.361 366.289 585.398 363.924C583.212 361.269 581.36 359.234 579.843 357.817C574.858 353.149 570.307 347.36 564.969 342.742C564.59 342.408 564.323 342.001 564.166 341.521C563.977 340.896 563.659 340.144 563.213 339.262C563.148 339.137 563.122 338.996 563.137 338.857C563.152 338.717 563.207 338.585 563.296 338.476C566.096 335.063 569.013 331.828 572.047 328.772C579.81 320.959 585.967 312.008 594.115 304.897C594.47 304.588 594.887 304.356 595.337 304.217C595.787 304.078 596.261 304.035 596.729 304.09C597.197 304.145 597.648 304.297 598.054 304.537C598.459 304.777 598.81 305.099 599.084 305.482L602.849 310.786C603.228 311.322 603.696 311.428 604.254 311.104C605.135 310.591 605.793 309.76 606.228 308.611Z" fill="#C9FDF3"/>
<path d="M724.014 313.463C723.456 314.601 722.553 315.343 721.303 315.689L686.553 347.812L680.747 341.388C680.644 341.269 680.588 341.115 680.591 340.958C680.595 340.8 680.656 340.649 680.764 340.534L714.929 306.169C715.038 306.056 715.169 305.966 715.313 305.904C715.458 305.842 715.613 305.809 715.77 305.807C715.928 305.806 716.084 305.836 716.229 305.895C716.375 305.954 716.507 306.041 716.619 306.152L724.014 313.463Z" fill="white"/>
<path d="M724.014 313.463L754.933 346.423L755.317 347.962C755.462 348.542 755.29 349.005 754.799 349.351C754.475 349.574 754.068 349.697 753.577 349.719C752.624 348.414 752.189 346.607 751.101 345.436C742.189 335.888 733.288 326.334 724.399 316.775C724.03 316.385 723.579 316.134 723.043 316.022L721.303 315.688C722.552 315.342 723.456 314.6 724.014 313.463Z" fill="#3EE5E2"/>
<path d="M721.304 315.689L723.044 316.023C723.579 316.135 724.031 316.386 724.399 316.776C733.289 326.335 742.189 335.889 751.102 345.437C752.189 346.608 752.624 348.415 753.578 349.72L740.076 362.586C740.176 362.229 740.193 361.917 740.126 361.649C740.087 361.518 740.017 361.399 739.923 361.3C739.829 361.201 739.712 361.126 739.584 361.08C739.455 361.035 739.317 361.02 739.182 361.037C739.047 361.055 738.917 361.104 738.804 361.18C733.863 364.605 729.636 368.721 726.122 373.528C724.583 375.653 724.399 378.296 720.785 378.346C720.238 378.358 719.764 378.174 719.363 377.794C718.738 377.214 718.13 376.668 717.539 376.155C713.479 372.63 709.67 368.86 706.112 364.845C702.515 360.779 698.248 357.55 694.5 353.585C691.043 349.948 689.665 349.391 690.368 351.911C688.081 350.473 686.81 349.106 686.553 347.812L721.304 315.689Z" fill="#04C8C1"/>
<path d="M632.128 334.946L639.373 341.789C639.427 341.841 639.47 341.903 639.499 341.973C639.528 342.042 639.544 342.117 639.544 342.194C639.544 342.27 639.528 342.346 639.499 342.417C639.47 342.488 639.427 342.553 639.373 342.608L599.603 382.328C599.19 382.752 598.767 382.763 598.332 382.361L590.819 375.401L592.057 373.092C608.086 356.378 618.643 344.281 628.615 336.552C629.072 336.203 629.616 336.004 630.171 335.983C631.453 335.927 632.106 335.581 632.128 334.946Z" fill="#3EE5E2"/>
<path d="M512.115 341.589L532.142 360.428C531.997 363.573 532.415 365.643 533.397 366.635C552.147 385.731 571.254 405.089 590.717 424.709C592.179 426.181 592.179 427.665 590.717 429.159L587.388 432.556C585.905 434.061 584.404 434.072 582.887 432.589L526.855 377.544C526.658 377.35 526.424 377.197 526.167 377.095C525.91 376.994 525.634 376.944 525.357 376.951C525.079 376.957 524.806 377.018 524.552 377.132C524.297 377.245 524.068 377.408 523.877 377.611L511.011 391.464L490.047 371.437C488.162 366.775 488.982 362.492 492.506 358.588C498.373 352.085 504.91 346.419 512.115 341.589Z" fill="white"/>
<path d="M332.139 423.169L332.323 435.65C325.045 459.073 298.493 451.411 298.309 428.589C298.142 408.01 298.147 387.431 298.326 366.852C298.381 361.141 298.922 356.997 299.949 354.421C307.16 336.418 332.624 342.224 332.407 361.682C332.184 381.904 332.095 402.4 332.139 423.169Z" fill="#000116"/>
<path d="M754.933 346.423L768.569 360.862C768.776 361.083 768.89 361.375 768.887 361.677C768.884 361.98 768.764 362.269 768.552 362.485L735.609 396.399C735.433 396.58 735.221 396.723 734.987 396.819C734.753 396.915 734.502 396.962 734.248 396.958C733.994 396.953 733.744 396.897 733.512 396.792C733.28 396.687 733.071 396.536 732.898 396.349L720.852 383.131L740.076 362.586L753.578 349.719C754.069 349.697 754.476 349.574 754.799 349.351C755.29 349.005 755.463 348.543 755.318 347.963L754.933 346.423Z" fill="#00577F"/>
<path d="M740.076 362.585L720.852 383.131L690.368 351.911C689.666 349.39 691.043 349.948 694.501 353.584C698.249 357.549 702.515 360.778 706.112 364.844C709.671 368.859 713.48 372.63 717.54 376.154C718.131 376.667 718.739 377.214 719.363 377.794C719.765 378.173 720.239 378.357 720.785 378.346C724.399 378.296 724.583 375.652 726.123 373.527C729.636 368.72 733.864 364.604 738.805 361.18C738.918 361.103 739.047 361.054 739.183 361.037C739.318 361.019 739.456 361.034 739.584 361.08C739.713 361.125 739.829 361.2 739.923 361.299C740.018 361.398 740.087 361.518 740.127 361.648C740.193 361.916 740.177 362.228 740.076 362.585Z" fill="#3EE5E2"/>
<path d="M532.143 360.428L655.585 485.091C656.031 485.537 656.059 486.005 655.668 486.496L649.26 494.46L589.196 436.353C588.528 435.711 587.634 435.358 586.709 435.371C585.785 435.383 584.905 435.76 584.26 436.42L570.457 450.491L511.012 391.464L523.878 377.61C524.069 377.408 524.298 377.245 524.552 377.131C524.807 377.018 525.08 376.956 525.358 376.95C525.635 376.944 525.911 376.993 526.168 377.095C526.425 377.197 526.659 377.35 526.856 377.544L582.888 432.589C584.405 434.072 585.905 434.061 587.389 432.555L590.718 429.159C592.18 427.664 592.18 426.181 590.718 424.708C571.255 405.088 552.148 385.731 533.398 366.635C532.416 365.642 531.998 363.573 532.143 360.428Z" fill="#FFB200"/>
<path d="M666.41 371.938L625.168 410.938L619.864 404.999C619.429 404.497 619.44 404.006 619.897 403.526L658.463 364.142C658.52 364.081 658.59 364.034 658.667 364.001C658.743 363.969 658.826 363.954 658.91 363.955C658.993 363.957 659.075 363.976 659.151 364.011C659.226 364.046 659.294 364.096 659.349 364.158L666.41 371.938Z" fill="white"/>
<path d="M666.409 371.938L700.925 407.057C687.139 418.49 674.507 430.91 663.029 444.317C662.784 444.06 662.215 444.055 661.323 444.3C660.754 444.468 660.269 444.334 659.867 443.899L632.043 414.301C631.897 414.145 631.708 414.035 631.5 413.983C631.292 413.932 631.074 413.943 630.871 414.014C630.669 414.085 630.492 414.213 630.362 414.383C630.231 414.553 630.153 414.757 630.136 414.971L630.086 415.673L625.167 410.939L666.409 371.938Z" fill="#04C8C1"/>
<path d="M476.093 401.485L480.962 406.588C481.374 407.012 481.397 407.453 481.028 407.91C477.314 412.606 474.163 416.214 471.575 418.735C435.754 453.653 400.602 489.24 365.199 524.643C365.03 524.807 364.895 525.004 364.803 525.223C364.711 525.441 364.664 525.676 364.664 525.914C364.586 547.731 364.664 569.61 364.898 591.55C364.921 593.591 365.679 595.114 367.174 596.118C367.297 596.199 367.401 596.307 367.479 596.433C367.556 596.559 367.604 596.701 367.62 596.848C367.636 596.995 367.619 597.144 367.571 597.284C367.523 597.423 367.444 597.551 367.341 597.657C361.675 603.502 356.07 609.413 350.526 615.392C348.53 617.544 347.42 619.619 347.197 621.616C346.561 627.103 349.288 632.022 352.802 636.004C359.812 643.952 369.499 639.936 376.142 634.315C381.629 629.647 384.942 622.536 390.932 618.922C391.4 618.632 391.891 618.593 392.404 618.805C396.068 620.344 402.142 621.164 405.672 618.922C407.88 617.517 409.386 614.304 411.996 612.43C412.452 612.104 412.992 611.934 413.535 611.945L441.627 612.732L441.476 614.321C441.387 615.247 441.025 615.375 440.389 614.706C439.987 614.293 439.463 614.003 438.816 613.836C438.258 613.691 437.695 613.618 437.126 613.618L413.786 613.702C413.526 613.707 413.271 613.772 413.042 613.891C412.813 614.01 412.615 614.18 412.465 614.388C409.537 618.487 405.672 622.486 399.783 622.636C393.96 622.787 391.952 618.269 387 624.979C382.516 631.052 379.003 635.502 373.331 639.2C359.26 648.402 344.419 636.188 345.089 621.465C345.178 619.335 346.098 617.305 347.849 615.375C353.326 609.318 358.858 603.323 364.447 597.389C364.826 596.976 364.932 596.508 364.764 595.984C363.627 592.392 363.036 589.308 362.991 586.731C362.79 575.778 362.757 556.398 362.891 528.591C362.907 525.546 362.941 524.191 365.3 521.966C373.381 514.303 380.374 505.569 388.556 498.107C392.287 494.711 395.365 490.729 399.214 487.516C400.429 486.501 401.567 485.308 402.627 483.936C405.103 480.757 408.767 478.365 411.126 475.905C417.869 468.895 424.143 461.316 431.287 454.757C432.637 453.519 434.455 451.662 436.741 449.186C446.981 438.126 458.525 428.288 465.904 421.462C467.164 420.291 468.915 418.412 471.157 415.824C472.864 413.838 474.749 412.02 476.812 410.37C477.281 410.001 477.52 409.516 477.532 408.914C477.565 406.505 476.617 404.62 474.687 403.259C474.551 403.161 474.446 403.026 474.385 402.869C474.323 402.713 474.309 402.542 474.342 402.378C474.376 402.213 474.456 402.062 474.574 401.942C474.692 401.823 474.841 401.739 475.005 401.703L476.093 401.485Z" fill="#3EE5E2"/>
<path d="M700.924 407.058L713.155 420.058C713.285 420.191 713.355 420.372 713.352 420.562C713.349 420.752 713.272 420.937 713.138 421.078L674.991 460.614C674.91 460.701 674.812 460.77 674.702 460.818C674.593 460.865 674.475 460.89 674.356 460.89C674.236 460.89 674.118 460.865 674.009 460.818C673.9 460.77 673.801 460.701 673.72 460.614L660.653 447.011C661.634 446.543 662.426 445.645 663.029 444.318C674.506 430.911 687.138 418.49 700.924 407.058Z" fill="#00577F"/>
<path d="M663.029 444.317C662.427 445.644 661.635 446.542 660.653 447.01L630.086 415.673L630.136 414.97C630.153 414.757 630.231 414.552 630.362 414.383C630.492 414.213 630.669 414.084 630.871 414.013C631.074 413.943 631.292 413.932 631.5 413.983C631.708 414.034 631.897 414.145 632.043 414.301L659.867 443.898C660.269 444.333 660.754 444.467 661.323 444.3C662.215 444.054 662.784 444.06 663.029 444.317Z" fill="#3EE5E2"/>
<path d="M517.453 441.438L412.801 545.973L401.022 533.86C400.576 533.392 400.581 532.934 401.039 532.488L505.206 429.76C505.541 429.425 505.875 429.431 506.21 429.776L517.453 441.438Z" fill="white"/>
<path d="M649.261 494.46L632.212 511.693C632.127 511.779 632.025 511.847 631.913 511.894C631.801 511.94 631.681 511.964 631.56 511.964C631.438 511.964 631.318 511.94 631.206 511.894C631.094 511.847 630.993 511.779 630.907 511.693L570.458 450.491L584.261 436.42C584.906 435.76 585.786 435.383 586.71 435.37C587.635 435.358 588.528 435.711 589.197 436.353L649.261 494.46Z" fill="#FF7258"/>
<path d="M517.453 441.439L537.797 462.001L529.014 471.003C528.646 471.393 528.216 471.694 527.725 471.906C527.134 472.163 526.638 472.542 526.236 473.044C523.375 476.541 519.594 478.883 516.549 482.263C512.009 487.293 507.113 491.944 501.859 496.216C500.755 497.12 499.885 498.642 498.613 499.931C495.1 503.5 491.614 507.097 488.156 510.722C487.794 511.117 487.339 511.411 486.835 511.575C483.957 512.563 483.338 515.223 480.694 516.428C480.204 516.651 479.802 516.974 479.49 517.398C476.612 521.213 473.165 525.167 469.15 529.26C459.825 538.775 452.012 546.41 445.71 552.165C441.003 556.47 436.201 560.843 431.304 565.282L412.8 545.975L517.453 441.439Z" fill="#FFB200"/>
<path d="M537.798 462.001L544.44 468.192C544.898 468.616 544.92 469.062 544.507 469.53C540.358 474.316 536.393 479.151 531.859 483.601C501.921 512.959 471.828 542.617 441.578 572.577C440.942 573.202 440.245 573.28 439.487 572.811C436.665 571.082 433.938 568.573 431.305 565.282C436.202 560.843 441.004 556.47 445.711 552.165C452.013 546.41 459.826 538.775 469.151 529.26C473.166 525.167 476.613 521.213 479.491 517.398C479.803 516.974 480.204 516.651 480.695 516.428C483.339 515.223 483.958 512.563 486.835 511.575C487.34 511.411 487.795 511.117 488.157 510.722C491.615 507.097 495.101 503.5 498.614 499.931C499.886 498.642 500.756 497.12 501.86 496.216C507.113 491.944 512.01 487.293 516.55 482.263C519.595 478.883 523.376 476.541 526.237 473.044C526.639 472.542 527.135 472.163 527.726 471.906C528.217 471.694 528.646 471.393 529.014 471.003L537.798 462.001Z" fill="#FF7258"/>
<path d="M704.757 665.869C700.653 671.848 694.697 678.953 686.889 687.185C684.268 689.951 682.07 691.853 680.297 692.89C679.315 692.232 678.997 691.122 679.343 689.56C679.789 676.354 679.973 663.131 679.895 649.891C679.694 612.436 679.544 574.981 679.444 537.526C679.41 528.206 678.741 518.737 680.297 508.631L704.005 485.776C704.083 485.706 704.181 485.66 704.285 485.643C704.39 485.626 704.497 485.64 704.594 485.682C704.691 485.724 704.773 485.793 704.832 485.881C704.891 485.969 704.923 486.072 704.925 486.178L704.757 665.869Z" fill="#018DA8"/>
<path d="M332.14 487.935C332.608 488.013 332.809 488.392 332.742 489.072C332.72 489.295 332.809 489.351 333.01 489.24C333.266 489.106 333.473 489.083 333.629 489.173L333.578 537.408C333.578 537.843 333.651 538.262 333.796 538.663C333.885 538.92 333.93 539.187 333.93 539.466C333.941 562.8 333.969 586.084 334.014 609.318C334.638 615.04 334.014 618.481 332.14 619.641V487.935Z" fill="#3EE5E2"/>
<path d="M298.209 490.93L297.908 658.424C297.395 657.967 297.049 657.376 296.871 656.651C296.77 656.216 296.525 656.115 296.134 656.35C295.744 656.595 295.543 656.885 295.532 657.22C295.465 665.418 294.311 675.239 297.289 682.366C303.044 696.169 314.388 697.374 329.145 697.508C351.832 697.731 374.525 697.932 397.223 698.11C400.954 698.144 406.526 697.608 411.177 698.077L350.962 756.234C350.672 755.777 350.711 755.258 351.079 754.678C351.202 754.477 351.157 754.332 350.945 754.243C350.811 754.187 350.655 754.159 350.477 754.159C350.254 754.17 350.036 754.282 349.824 754.494C347.214 757.07 343.734 759.028 341.492 761.504C338.631 764.65 337.945 768.481 332.541 768.28C325.748 768.029 310.724 766.557 304.901 769.267C290.658 768.855 279.002 762.776 269.934 751.031C261.719 740.39 262.304 733.563 262.271 718.422C262.137 655.424 262.254 592.426 262.622 529.428C262.645 525.959 263.197 523.862 264.279 523.137C275.89 513.288 287.2 502.552 298.209 490.93Z" fill="#04C8C1"/>
<path d="M589.38 517.515L578.187 530.782C575.488 531.954 572.705 534.307 569.838 537.843L553.258 511.977C552.705 511.117 552.458 510.096 552.555 509.077C552.652 508.058 553.088 507.099 553.793 506.355L564.585 495.045C564.891 494.723 565.26 494.469 565.67 494.297C566.079 494.126 566.52 494.041 566.965 494.049C567.41 494.057 567.849 494.157 568.254 494.343C568.66 494.529 569.022 494.796 569.32 495.129L589.38 517.515Z" fill="#00577F"/>
<path d="M680.297 508.631C678.741 518.737 679.41 528.207 679.443 537.526C679.544 574.981 679.694 612.436 679.895 649.892C679.973 663.131 679.789 676.354 679.343 689.561C677.949 691.167 676.175 692.104 674.023 692.372C673.489 692.448 672.998 692.682 672.617 693.041C671.803 693.811 670.805 694.14 669.622 694.028C669.053 693.972 668.507 694.078 667.983 694.346L665.506 695.617C665.049 695.852 664.575 695.896 664.084 695.751C663.75 695.651 663.415 695.584 663.08 695.551C662.724 695.506 662.155 695.634 661.374 695.935C660.247 696.348 659.171 696.136 658.145 695.3C658.024 695.2 657.886 695.132 657.743 695.099L648.24 693.108C647.932 693.043 647.649 692.89 647.426 692.667C647.203 692.444 647.05 692.161 646.985 691.853C646.673 690.369 645.742 689.901 644.191 690.448C643.477 690.704 642.646 690.793 641.698 690.715C649.093 685.227 652.54 678.886 652.54 669.199C652.557 625.615 652.406 582.081 653.176 538.513C653.198 537.426 653.622 536.393 654.364 535.619L680.297 508.631Z" fill="#00577F"/>
<path d="M589.379 517.515L619.177 549.488C619.556 549.889 619.74 550.369 619.729 550.927C619.606 562.348 619.539 573.725 619.528 585.058C619.528 589.625 612.585 595.933 609.439 599.497C609.31 599.644 609.148 599.758 608.966 599.831C608.785 599.905 608.589 599.934 608.394 599.918C608.198 599.902 608.01 599.84 607.843 599.738C607.676 599.636 607.535 599.496 607.432 599.329L569.887 538.211C569.887 537.575 570.233 537.213 570.925 537.123C571.059 537.109 571.195 537.135 571.317 537.197C571.439 537.259 571.541 537.356 571.611 537.475C575.548 543.989 579.608 550.497 583.791 557C590.416 567.29 596.272 578.734 602.479 588.822C603.985 591.276 605.998 593.568 608.519 595.699C608.965 596.078 609.434 596.106 609.925 595.782C619.612 589.508 617.454 583.167 617.855 573.463C618.067 568.332 618.117 563.207 618.006 558.087C617.956 556.046 619.327 552.533 617.587 550.558C611.787 543.955 605.965 537.369 600.12 530.799C597.231 527.553 594.136 524.664 590.835 522.132C590.484 521.862 590.052 521.72 589.613 521.729C589.174 521.738 588.755 521.898 588.425 522.183L578.186 530.782L589.379 517.515Z" fill="#3EE5E2"/>
<path d="M569.888 538.211C569.598 537.174 569.581 537.051 569.837 537.843C572.704 534.307 575.487 531.953 578.186 530.782L588.426 522.183C588.755 521.898 589.175 521.738 589.614 521.729C590.053 521.72 590.484 521.862 590.835 522.132C594.136 524.664 597.232 527.553 600.121 530.799C605.965 537.369 611.788 543.955 617.588 550.558C619.328 552.533 617.956 556.046 618.006 558.087C618.118 563.207 618.067 568.332 617.856 573.463C617.454 583.167 619.612 589.508 609.925 595.782C609.434 596.106 608.966 596.078 608.52 595.699C605.999 593.568 603.985 591.276 602.48 588.822C596.272 578.733 590.417 567.289 583.791 557C579.608 550.497 575.548 543.989 571.611 537.475C571.541 537.356 571.439 537.259 571.317 537.197C571.196 537.135 571.059 537.109 570.925 537.123C570.233 537.213 569.888 537.575 569.888 538.211Z" fill="#04C8C1"/>
<path d="M546.599 568.411C545.707 568.333 545.037 568.679 544.591 569.448C542.45 571.088 540.436 572.878 538.551 574.819C526.215 587.445 513.75 599.938 501.158 612.297C490.472 622.793 480.021 633.623 469.804 644.788C469.602 645.01 469.356 645.185 469.081 645.304C468.807 645.423 468.51 645.482 468.211 645.477C467.912 645.472 467.617 645.404 467.347 645.277C467.076 645.149 466.836 644.966 466.641 644.738C458.689 635.402 450.914 625.693 443.318 615.609C442.694 614.773 442.337 613.914 442.248 613.033C446.665 614.237 454.679 604.851 459.347 600.183C479.323 580.14 499.2 560.001 518.976 539.768C520.705 538.005 522.261 536.622 523.644 535.618C523.892 535.435 524.174 535.303 524.473 535.23C524.772 535.156 525.083 535.142 525.388 535.189C525.693 535.235 525.985 535.342 526.248 535.501C526.512 535.661 526.741 535.872 526.923 536.12C534.441 546.326 541 557.09 546.599 568.411Z" fill="#007C9A"/>
<path d="M546.597 568.411L586.635 631.939C585.977 632.162 585.051 631.855 583.857 631.019C583.556 630.628 583.328 629.981 583.171 629.078L546.597 572.192C546.296 571.724 545.906 571.35 545.426 571.071C544.746 570.67 544.467 570.129 544.59 569.449C545.036 568.679 545.705 568.333 546.597 568.411Z" fill="#3EE5E2"/>
<path d="M411.171 589.012C411.29 589.135 411.385 589.28 411.448 589.439C411.512 589.598 411.544 589.768 411.542 589.94C411.54 590.111 411.504 590.28 411.436 590.438C411.369 590.595 411.271 590.738 411.148 590.858L411.076 590.928C410.829 591.17 410.495 591.303 410.149 591.299C409.803 591.294 409.472 591.153 409.231 590.905L391.306 572.537C391.186 572.414 391.092 572.269 391.028 572.11C390.964 571.951 390.933 571.781 390.935 571.609C390.937 571.438 390.973 571.269 391.04 571.111C391.108 570.953 391.206 570.811 391.328 570.691L391.4 570.621C391.648 570.379 391.981 570.246 392.328 570.25C392.674 570.254 393.004 570.396 393.246 570.644L411.171 589.012Z" fill="white"/>
<path d="M334.014 609.318L334.766 654.894C334.777 655.321 334.936 655.73 335.214 656.048C335.493 656.367 335.874 656.574 336.289 656.634C340.003 657.169 344.052 656.333 347.131 656.349C370.153 656.55 393.174 656.299 416.196 655.596C425.644 655.306 432.755 655.301 437.528 655.58C446.346 656.098 456.903 655.613 462.625 655.714C488.307 656.115 514.341 656.6 540.006 655.596C543.787 655.44 548.109 655.569 552.973 655.981C554.59 656.126 556.129 655.49 557.59 654.074C563.625 648.251 569.614 642.384 575.56 636.473C577.802 634.231 580.796 632.474 582.838 630.617C583.339 630.171 583.451 629.658 583.172 629.078C583.328 629.981 583.557 630.628 583.858 631.019C583.88 631.152 583.903 631.292 583.925 631.437C583.936 631.459 583.931 631.476 583.908 631.487C574.74 639.719 565.883 648.279 557.339 657.169C556.942 657.577 556.469 657.903 555.946 658.127C555.424 658.351 554.862 658.469 554.294 658.474L537.53 658.658L333.261 658.641C332.981 658.641 332.713 658.53 332.515 658.333C332.318 658.135 332.207 657.867 332.207 657.587L332.14 619.641C334.014 618.481 334.638 615.04 334.014 609.318Z" fill="#01B6BC"/>
<path d="M583.858 631.018C585.051 631.855 585.977 632.161 586.635 631.938L602.429 657.553C602.513 657.689 602.56 657.845 602.563 658.004C602.566 658.164 602.526 658.321 602.447 658.46C602.368 658.599 602.254 658.714 602.115 658.793C601.976 658.872 601.819 658.912 601.659 658.909L537.529 658.658L554.294 658.474C554.862 658.468 555.423 658.35 555.946 658.126C556.468 657.902 556.942 657.577 557.339 657.169C565.883 648.279 574.739 639.718 583.908 631.487C583.93 631.475 583.936 631.459 583.924 631.436C583.902 631.291 583.88 631.152 583.858 631.018Z" fill="#00577F"/>
<path d="M297.908 658.424C297.908 663.856 297.868 669.377 297.79 674.988C297.64 686.85 309.803 694.898 320.829 694.998C349.975 695.232 379.12 695.076 408.266 694.53C410.658 694.48 413.82 695.45 416.631 695.45C472.279 695.439 527.926 695.283 583.573 694.982L602.396 695.417C602.582 695.42 602.764 695.476 602.92 695.579C603.075 695.681 603.199 695.826 603.276 695.996C603.353 696.165 603.38 696.354 603.355 696.538C603.329 696.723 603.252 696.897 603.132 697.039C602.898 697.318 602.546 697.558 602.078 697.759L481.932 697.909L455.815 698.11L411.177 698.077C406.525 697.608 400.954 698.144 397.223 698.11C374.525 697.932 351.832 697.731 329.144 697.508C314.388 697.374 303.044 696.169 297.289 682.366C294.31 675.239 295.465 665.418 295.532 657.22C295.543 656.885 295.744 656.595 296.134 656.35C296.524 656.115 296.77 656.216 296.87 656.651C297.049 657.376 297.394 657.967 297.908 658.424Z" fill="#3EE5E2"/>
<path d="M704.757 665.868C705.237 692.203 705.198 714.344 704.64 732.29C703.971 754.208 681.903 771.491 660.905 771.424C640.248 771.357 620.115 771.33 600.506 771.341L680.297 692.889C682.07 691.852 684.268 689.95 686.889 687.184C694.697 678.952 700.653 671.847 704.757 665.868Z" fill="#00577F"/>
<path d="M679.343 689.56C678.997 691.122 679.315 692.231 680.297 692.89L600.506 771.341L412.5 771.074C450.535 770.962 488.576 770.929 526.622 770.973C529.199 770.973 530.939 769.947 531.842 767.895L602.079 697.758C602.547 697.557 602.899 697.318 603.133 697.039C603.253 696.896 603.33 696.723 603.356 696.538C603.381 696.353 603.354 696.165 603.277 695.995C603.2 695.825 603.076 695.681 602.921 695.578C602.765 695.476 602.583 695.419 602.397 695.416L583.574 694.981C599.714 694.512 615.865 694.334 632.028 694.446C634.894 694.468 638.118 693.224 641.698 690.715C642.646 690.793 643.477 690.703 644.191 690.447C645.741 689.9 646.673 690.369 646.985 691.852C647.05 692.161 647.203 692.444 647.426 692.666C647.649 692.889 647.932 693.042 648.24 693.107L657.743 695.098C657.886 695.131 658.024 695.2 658.145 695.299C659.171 696.135 660.247 696.347 661.374 695.935C662.155 695.633 662.723 695.505 663.08 695.55C663.415 695.583 663.75 695.65 664.084 695.751C664.575 695.896 665.049 695.851 665.506 695.617L667.983 694.345C668.507 694.077 669.053 693.971 669.622 694.027C670.804 694.139 671.803 693.81 672.617 693.04C672.998 692.681 673.489 692.448 674.022 692.371C676.175 692.103 677.949 691.166 679.343 689.56Z" fill="#007C9A"/>
<path d="M602.079 697.759L531.842 767.895C495.848 768.152 459.731 768.325 423.491 768.414C419.894 768.414 414.005 769.418 408.952 768.381C414.139 762.725 420.296 757.556 425.181 752.486C433.435 743.909 442.286 735.811 451.733 728.193C451.31 740.841 456.937 749.597 468.615 754.46C481.816 759.965 494.899 750.127 497.928 737.83C499.155 732.844 498.809 728.103 496.89 723.608C494.593 718.199 490.789 714.763 485.48 713.302C477.784 709.933 470.712 710.547 464.265 715.142C460.863 717.563 458.303 720.803 456.585 724.863C456.686 723.96 456.457 723.424 455.899 723.257C457.729 718.461 460.607 714.969 464.533 712.783L474.939 709.036C475.441 708.857 475.893 708.601 476.295 708.266C478.001 706.872 479.407 705.243 480.511 703.38C480.823 702.867 481.28 702.555 481.883 702.444C483.043 702.243 483.996 701.73 484.744 700.904C484.948 700.684 485.086 700.412 485.145 700.118C485.204 699.824 485.18 699.519 485.076 699.237C484.973 698.954 484.794 698.704 484.558 698.514C484.322 698.324 484.039 698.202 483.74 698.16L481.933 697.909L602.079 697.759Z" fill="#04C8C1"/>
<path d="M411.177 698.076L455.815 698.11C461.119 699.281 465.871 697.775 471.024 700.67C471.427 700.897 471.781 701.201 472.065 701.563C472.35 701.924 472.559 702.337 472.68 702.778C473.138 704.428 472.853 705.856 471.827 707.061C471.764 707.138 471.684 707.199 471.593 707.239C471.502 707.279 471.403 707.298 471.304 707.293C471.205 707.288 471.108 707.26 471.022 707.211C470.935 707.162 470.862 707.093 470.806 707.011C470.461 706.52 470.031 706.497 469.518 706.944C469.239 707.189 469.083 707.512 469.05 707.914C469.016 708.438 468.76 708.806 468.28 709.018C466.038 709.989 464.789 711.244 464.532 712.783C460.606 714.969 457.728 718.46 455.899 723.256C454.683 725.476 453.295 727.121 451.733 728.192C442.286 735.81 433.435 743.908 425.181 752.486C420.295 757.555 414.138 762.725 408.952 768.38L406.944 769.166L357.27 769.568C356.924 769.568 356.756 769.824 356.768 770.338C356.779 770.471 357.203 770.767 358.039 771.224L336.875 771.274C341.013 765.508 345.708 760.494 350.962 756.233L411.177 698.076Z" fill="#007C9A"/>
<path d="M455.815 698.11L481.933 697.909L483.74 698.16C484.039 698.202 484.322 698.324 484.558 698.514C484.793 698.704 484.972 698.953 485.076 699.236C485.179 699.519 485.203 699.824 485.145 700.118C485.086 700.412 484.947 700.684 484.743 700.904C483.996 701.729 483.042 702.243 481.882 702.443C481.28 702.555 480.823 702.867 480.51 703.38C479.406 705.243 478.001 706.871 476.294 708.266C475.893 708.6 475.441 708.857 474.939 709.035L464.532 712.783C464.789 711.244 466.038 709.989 468.28 709.019C468.76 708.807 469.016 708.439 469.05 707.914C469.083 707.513 469.239 707.189 469.518 706.944C470.031 706.498 470.461 706.52 470.806 707.011C470.862 707.094 470.935 707.162 471.022 707.211C471.108 707.26 471.205 707.288 471.304 707.293C471.403 707.298 471.502 707.279 471.593 707.239C471.684 707.199 471.764 707.138 471.827 707.061C472.853 705.856 473.138 704.429 472.68 702.778C472.559 702.337 472.35 701.925 472.065 701.563C471.781 701.201 471.427 700.898 471.024 700.67C465.871 697.775 461.119 699.281 455.815 698.11Z" fill="#018DA8"/>
<path d="M485.48 713.302C495.072 720.541 498.441 728.968 495.586 738.583C492.641 748.538 481.649 755.498 471.392 753.44C458.493 750.847 453.139 736.86 456.585 724.863C458.303 720.803 460.863 717.563 464.265 715.143C470.712 710.547 477.784 709.934 485.48 713.302Z" fill="#000116"/>
<path d="M451.733 728.193C453.295 727.122 454.683 725.477 455.899 723.257C456.457 723.425 456.686 723.96 456.585 724.863C453.139 736.86 458.493 750.847 471.392 753.44C481.648 755.498 492.641 748.538 495.585 738.583C498.441 728.968 495.072 720.541 485.48 713.302C490.789 714.763 494.593 718.199 496.89 723.609C498.809 728.104 499.155 732.844 497.928 737.83C494.899 750.127 481.816 759.965 468.615 754.461C456.937 749.597 451.309 740.842 451.733 728.193Z" fill="#3EE5E2"/>
<path d="M350.961 756.234C345.708 760.495 341.012 765.508 336.874 771.275L305.436 771.308C305.726 770.795 305.548 770.115 304.901 769.267C310.723 766.557 325.748 768.029 332.541 768.28C337.945 768.481 338.631 764.65 341.492 761.504C343.734 759.028 347.214 757.07 349.824 754.494C350.036 754.282 350.253 754.17 350.476 754.159C350.655 754.159 350.811 754.187 350.945 754.243C351.157 754.332 351.201 754.477 351.079 754.678C350.711 755.258 350.671 755.776 350.961 756.234Z" fill="#3EE5E2"/>
<path d="M531.841 767.896C530.938 769.948 529.198 770.974 526.621 770.974C488.575 770.929 450.534 770.963 412.499 771.074L406.091 771.208C406.001 770.416 406.286 769.736 406.944 769.167L408.952 768.381C414.004 769.418 419.894 768.414 423.491 768.414C459.73 768.325 495.847 768.152 531.841 767.896Z" fill="#3EE5E2"/>
<path d="M406.944 769.167C406.286 769.736 406.002 770.416 406.091 771.208L358.039 771.225C357.203 770.768 356.779 770.472 356.768 770.338C356.756 769.825 356.924 769.569 357.27 769.569L406.944 769.167Z" fill="#018DA8"/>
<path d="M471.525 312.576C466.639 324.64 450.193 326.045 441.275 317.78C435.564 312.482 433.06 306.453 433.763 299.694C435.905 279.332 461.453 274.915 472.044 291.88C474.085 295.143 473.784 299.242 474.035 303.04C474.286 307.005 472.93 309.08 471.525 312.576Z" fill="#3EE5E2"/>
<path d="M315.51 322.942C311.025 323.248 306.595 321.65 303.195 318.501C299.794 315.352 297.702 310.909 297.377 306.15C297.053 301.391 298.523 296.706 301.465 293.124C304.406 289.543 308.579 287.359 313.063 287.053C317.548 286.748 321.978 288.345 325.378 291.494C328.779 294.643 330.871 299.086 331.196 303.845C331.52 308.604 330.05 313.29 327.108 316.871C324.166 320.452 319.994 322.636 315.51 322.942Z" fill="#000116"/>
<path d="M363.889 460.822C365.008 463.634 364.919 466.793 363.64 469.605C362.361 472.417 359.998 474.651 357.071 475.816C354.144 476.981 350.892 476.981 348.031 475.817C345.17 474.652 342.934 472.418 341.815 469.606C340.696 466.794 340.786 463.635 342.064 460.823C343.343 458.011 345.706 455.777 348.633 454.612C351.56 453.447 354.812 453.447 357.673 454.612C360.534 455.776 362.77 458.01 363.889 460.822Z" fill="white"/>
<path d="M462.9 318.6C460.803 319.743 458.492 320.446 456.1 320.667C453.707 320.888 451.28 320.624 448.956 319.89C446.632 319.156 444.457 317.965 442.556 316.387C440.654 314.809 439.063 312.874 437.874 310.692C436.684 308.51 435.919 306.125 435.623 303.671C435.326 301.218 435.504 298.745 436.145 296.394C436.787 294.043 437.88 291.86 439.362 289.968C440.844 288.077 442.686 286.516 444.783 285.372C446.88 284.229 449.191 283.527 451.583 283.305C453.976 283.084 456.403 283.348 458.727 284.082C461.051 284.817 463.226 286.007 465.127 287.585C467.029 289.163 468.619 291.099 469.809 293.28C470.999 295.462 471.763 297.848 472.06 300.301C472.357 302.754 472.179 305.227 471.537 307.578C470.896 309.929 469.803 312.113 468.321 314.004C466.839 315.895 464.997 317.457 462.9 318.6Z" fill="#000116"/>
</svg>
