<svg width="1024" height="1024" viewBox="0 0 1024 1024" fill="none" xmlns="http://www.w3.org/2000/svg">
<rect width="1024" height="1024" fill="white"/>
<path d="M601.824 544.842C600.908 544.804 600.814 545.067 601.541 545.632C606.372 549.346 611.629 552.689 617.312 555.663C620.863 557.532 624.263 557.639 627.512 555.983C641.69 548.756 659.418 539.189 680.697 527.283C689.26 522.502 700.646 522.502 707.816 529.673C715.495 537.37 717.753 550.864 707.779 558.185C701.531 562.777 687.315 570.355 665.133 580.919C662.398 582.224 662.404 583.516 665.152 584.796L669.838 586.998C672.209 588.102 674.518 587.976 676.764 586.621C682.46 583.171 688.84 579.752 695.903 576.365C703.017 572.939 710.507 567.952 718.299 564.527C731.115 558.9 746.039 565.618 747.112 580.373C748.279 596.502 732.282 603.183 720.012 608.076C718.845 608.54 717.866 609.117 717.076 609.807C716.849 610.003 716.673 610.25 716.561 610.528C716.449 610.806 716.405 611.106 716.433 611.404C716.46 611.702 716.559 611.99 716.72 612.242C716.88 612.495 717.099 612.705 717.358 612.856C730.042 620.321 742.62 627.592 755.092 634.668C771.841 644.172 773.535 666.304 757.726 677.671C753.021 681.059 747.714 682.407 741.805 681.717C738.166 681.291 733.361 679.315 727.389 675.789C716.774 669.516 705.934 663.224 694.868 656.913C694.714 656.826 694.539 656.782 694.362 656.784C694.185 656.787 694.012 656.837 693.861 656.929C693.709 657.021 693.585 657.152 693.501 657.308C693.417 657.464 693.375 657.639 693.382 657.816C693.777 666.605 695.828 681.755 692.648 689.208C688.281 699.408 675.503 703.435 665.829 697.695C657.831 692.953 655.704 685.331 655.554 675.77C655.366 663.4 655.441 650.91 655.78 638.3C655.792 637.843 655.69 637.391 655.483 636.983C655.276 636.576 654.97 636.226 654.594 635.967L636.602 623.659C636.428 623.539 636.227 623.462 636.017 623.436C635.807 623.41 635.595 623.436 635.398 623.51C635.201 623.584 635.026 623.705 634.889 623.862C634.751 624.019 634.654 624.208 634.608 624.411C634.306 625.704 634.194 627.172 634.269 628.815C634.733 639.015 635.304 649.209 635.981 659.397C636.904 673.286 623.786 680.852 611.76 677.502C598.737 673.87 597.683 658.795 596.611 645.941C595.199 629.135 592.922 613.176 591.228 596.746C591.193 596.392 591.072 596.051 590.875 595.753C590.679 595.455 590.412 595.208 590.099 595.034L540.434 566.974C540.245 566.867 540.032 566.81 539.815 566.81C539.598 566.809 539.385 566.864 539.196 566.97C539.007 567.076 538.848 567.229 538.735 567.414C538.622 567.6 538.559 567.811 538.552 568.027C538.539 568.692 538.784 569.376 539.286 570.079C549.467 584.099 561.455 598.195 576.662 605.648C579.899 607.229 583.531 612.423 584.735 616.131C589.177 629.831 580.143 646.525 564.579 644.831C553.551 643.626 544.612 632.692 538.759 624.016C538.182 623.163 537.661 623.194 537.197 624.11L535.86 626.688C535.421 627.567 535.453 628.432 535.955 629.286C551.029 654.071 568.908 677.351 585.676 701.064C591.529 709.345 597.363 715.932 591.755 726.828C587.063 735.962 579.604 739.927 569.378 738.722C556.449 737.217 544.762 716.233 538.759 706.089C538.332 705.374 537.868 704.803 537.366 704.376C537.214 704.251 537.029 704.171 536.833 704.147C536.638 704.123 536.439 704.156 536.261 704.241C536.083 704.326 535.933 704.46 535.829 704.627C535.724 704.795 535.67 704.988 535.672 705.186C535.722 724.193 535.729 743.245 535.691 762.341C535.679 768.639 534.995 773.307 533.64 776.343C526.338 792.66 498.183 793.619 491.126 776.776C489.997 774.078 489.413 769.775 489.376 763.865C489.25 744.23 489.269 724.476 489.432 704.602C489.437 704.226 489.347 703.853 489.17 703.517C488.992 703.182 488.733 702.895 488.416 702.683C487.337 701.967 486.477 702.306 485.838 703.699C479.044 718.435 460.581 749.732 440.143 734.657C430.978 727.92 429.322 715.668 436.116 706.127C449.716 686.968 463.367 667.835 477.068 648.726C481.158 643.018 484.639 637.51 487.513 632.203C487.992 631.318 488.227 630.322 488.194 629.317C488.161 628.311 487.861 627.333 487.324 626.481L486.91 625.842C485.718 623.972 484.552 623.985 483.41 625.879C475.675 638.639 461.428 651.267 447.69 641.01C439.183 634.668 436.85 621.438 442.195 612.404C443.525 610.158 446.743 607.166 451.849 603.427C463.693 594.733 473.962 584.401 482.657 572.431C483.686 571.013 484.376 569.589 484.727 568.159C484.768 567.997 484.761 567.826 484.708 567.668C484.654 567.51 484.555 567.37 484.424 567.267C484.292 567.163 484.134 567.1 483.967 567.085C483.801 567.069 483.633 567.103 483.485 567.181C466.347 575.9 449.71 585.498 433.575 595.975C433.228 596.199 432.935 596.495 432.717 596.843C432.499 597.192 432.362 597.583 432.314 597.988C430.219 616.52 428.538 635.233 427.271 654.128C426.819 660.84 426.029 665.495 424.899 668.092C417.673 684.71 392.228 680.231 389.876 662.578C389.775 661.85 389.763 657.534 389.838 649.63C389.926 640.822 390.183 632.083 390.61 623.414C390.616 623.237 390.575 623.061 390.49 622.906C390.404 622.751 390.279 622.623 390.127 622.535C389.975 622.447 389.802 622.404 389.628 622.409C389.455 622.415 389.286 622.47 389.142 622.567L371.113 634.555C370.463 634.985 369.93 635.568 369.559 636.254C369.188 636.94 368.991 637.707 368.986 638.488C368.911 651.938 368.779 665.652 368.591 679.628C368.252 704.696 331.252 708.272 331.083 681.021C331.033 672.916 331.058 664.918 331.158 657.026C331.171 655.847 330.675 655.564 329.671 656.179C317.646 663.538 304.698 669.823 292.71 677.483C288.632 680.08 285.326 681.466 282.792 681.642C273.833 682.282 264.668 677.521 259.681 670.294C251.174 657.986 257.837 642.328 270.051 635.195C283.049 627.592 295.921 620.177 308.669 612.95C308.937 612.803 309.159 612.584 309.309 612.317C309.458 612.05 309.531 611.747 309.517 611.441C309.503 611.135 309.404 610.84 309.231 610.588C309.058 610.335 308.817 610.137 308.537 610.014C298.769 605.648 283.958 600.454 278.802 590.517C272.064 577.531 285.031 560.311 298.751 562.457C302.402 563.021 308.888 565.951 318.21 571.246C326.466 575.938 335.481 580.925 345.254 586.207C346.392 586.821 347.64 587.2 348.923 587.323C350.207 587.446 351.5 587.309 352.726 586.922L360.668 584.419C363.44 583.554 363.503 582.525 360.856 581.333C348.962 575.976 336.817 569.928 324.421 563.191C318.173 559.784 312 556.566 310.889 549.358C308.123 531.216 324.176 518.117 341.057 526.793C359.927 536.479 378.885 545.983 397.931 555.305C400.848 556.736 403.238 557.526 406.475 556.096C412.673 553.335 418.187 550.512 423.017 547.627C425.552 546.096 425.338 545.4 422.377 545.538C409.731 546.102 395.955 544.766 389.01 532.74C384.707 525.313 384.368 517.666 387.994 509.799C393.489 497.83 404.16 495.816 415.885 495.007C418.57 494.819 418.752 494.041 416.43 492.673L403.614 485.07C403.203 484.823 402.741 484.671 402.263 484.626C401.784 484.58 401.301 484.642 400.848 484.807C382.047 491.544 364.94 502.234 347.306 511.493C339.382 515.652 326.585 521.43 318.662 515.934C305.375 506.713 305.526 487.968 320.337 479.782C333.41 472.567 347.092 465.579 361.383 458.817C361.563 458.734 361.714 458.601 361.819 458.433C361.924 458.265 361.978 458.07 361.974 457.873C361.97 457.675 361.909 457.482 361.797 457.319C361.685 457.156 361.528 457.029 361.345 456.953L347.908 451.307C347.306 451.057 346.722 451.088 346.158 451.402C332.582 458.929 318.925 466.25 305.187 473.364C298.274 476.94 292.013 476.959 286.405 473.421C280.383 469.644 277.252 464.356 277.014 457.556C276.468 442.443 292.126 433.542 304.622 430.173C309.189 428.943 309.365 427.25 305.149 425.092C292.578 418.68 279.442 411.579 265.741 403.788C245.547 392.289 259.192 359.674 281.173 361.65C284.448 361.951 288.337 363.313 292.841 365.734C302.213 370.753 311.341 376.16 320.224 381.957C323.329 383.989 327.168 385.382 330.424 387.64C330.526 387.712 330.646 387.753 330.77 387.759C330.894 387.765 331.017 387.736 331.126 387.675C331.234 387.614 331.323 387.523 331.382 387.414C331.441 387.305 331.468 387.181 331.459 387.057C331.083 378.864 330.945 370.684 331.045 362.516C331.196 349.794 347.306 344.505 357.374 349.342C366.295 353.614 368.628 361.217 368.647 371.267C368.685 382.722 368.81 393.926 369.024 404.879C369.041 405.879 369.306 406.859 369.796 407.73C370.285 408.6 370.984 409.335 371.828 409.866L389.97 421.328C390.034 421.37 390.11 421.393 390.187 421.395C390.264 421.397 390.34 421.377 390.407 421.338C390.473 421.299 390.528 421.242 390.563 421.174C390.599 421.105 390.615 421.028 390.61 420.951C390.196 409.747 389.744 398.581 389.255 387.452C388.916 379.523 391.438 373.595 396.82 369.667C405.778 363.156 418.463 364.586 424.41 374.561C426.631 378.262 427.879 383.186 428.155 389.334C428.983 407.326 430.219 424.822 431.863 441.822C431.956 442.799 432.275 443.741 432.794 444.574C433.313 445.407 434.019 446.107 434.855 446.621L483.052 476.262C484.658 477.254 485.035 476.909 484.181 475.227C477.055 461.2 467.143 449.181 454.446 439.169C442.797 430.004 435.118 424.414 440.746 409.659C446.768 393.813 465.719 394.114 476.202 405.99C481.384 411.849 484.727 415.945 486.233 418.279C486.998 419.471 487.607 419.402 488.058 418.072L489.489 413.913C490.016 412.395 489.834 410.964 488.943 409.622C469.973 381.342 452.589 356.406 436.793 334.813C431.768 327.925 429.661 320.228 432.691 312.098C436.417 302.18 448.593 297.212 458.455 300.994C469.86 305.379 480.135 323.202 486.666 333.082C486.783 333.263 486.943 333.412 487.132 333.516C487.32 333.62 487.532 333.677 487.747 333.681C487.963 333.684 488.176 333.635 488.368 333.537C488.56 333.44 488.725 333.296 488.849 333.12C489.438 332.279 489.727 331.1 489.714 329.581C489.263 293.535 489.075 269.854 489.15 258.537C489.338 232.679 523.025 226.186 533.32 248.864C534.838 252.201 535.616 257.527 535.653 264.842C535.729 287.777 535.672 310.072 535.484 331.727C535.459 335.127 536.394 335.416 538.288 332.593C542.981 325.604 547.686 318.616 552.403 311.627C561.662 297.889 581.009 295.217 590.268 310.686C596.253 320.699 592.922 327.21 586.241 336.432C569.88 359.028 553.871 381.863 538.213 404.936C535.202 409.396 534.317 413.254 535.729 418.204C535.79 418.425 535.913 418.624 536.085 418.777C536.257 418.929 536.47 419.029 536.697 419.062C536.925 419.096 537.157 419.063 537.366 418.968C537.575 418.872 537.751 418.718 537.874 418.523C545.985 405.707 561.079 388.769 577.828 400.852C589.29 409.132 587.257 424.809 577.226 433.09C562.02 445.624 548.808 456.37 539.719 474.098C538.489 476.482 539.035 477.009 541.356 475.679C557.089 466.633 573.186 456.941 589.647 446.603C591.366 445.524 592.276 443.999 592.376 442.029C593.342 422.532 595.224 403.129 598.022 383.82C601.579 359.26 636.584 359.938 635.85 385.1C635.523 396.429 634.796 407.721 633.667 418.975C633.649 419.155 633.681 419.336 633.76 419.498C633.838 419.66 633.96 419.798 634.112 419.895C634.264 419.993 634.44 420.046 634.62 420.05C634.801 420.054 634.979 420.007 635.134 419.916L652.505 409.754C654.287 408.725 655.196 407.181 655.234 405.124C655.372 397.345 655.359 389.729 655.196 382.277C655.027 374.128 654.425 362.704 658.414 356.136C667.109 341.814 690.389 344.863 693.25 362.215C694.285 368.538 693.965 379.887 693.269 387.998C693.259 388.103 693.279 388.209 693.327 388.303C693.374 388.397 693.447 388.476 693.537 388.531C693.628 388.586 693.731 388.614 693.837 388.613C693.942 388.612 694.045 388.582 694.134 388.525C705.401 381.461 716.85 374.611 728.48 367.974C734.967 364.26 739.986 362.234 743.536 361.895C767.023 359.618 777.525 391.837 756.616 404.22C743.844 411.786 730.921 419.019 717.847 425.92C717.465 426.124 717.15 426.434 716.939 426.813C716.728 427.192 716.631 427.623 716.659 428.056C716.686 428.488 716.838 428.904 717.096 429.253C717.353 429.601 717.705 429.868 718.111 430.022C726.994 433.448 744.421 440.712 746.867 451.063C748.536 458.076 746.692 464.337 741.334 469.845C732.433 479.01 722.27 476.3 712.051 470.786C700.157 464.35 688.457 458.108 676.952 452.06C676.019 451.565 674.97 451.334 673.915 451.39C672.861 451.446 671.842 451.789 670.967 452.38L664.625 456.633C662.869 457.813 662.95 458.848 664.87 459.739C676.701 465.234 688.639 471.244 700.684 477.768C710.846 483.282 718.28 489.568 715.815 501.443C712.22 518.833 694.774 521.637 681.092 514.015C664.606 504.818 647.267 495.597 629.075 486.35C625.649 484.606 622.274 484.706 618.95 486.651L610.612 491.506C607.451 493.351 607.695 494.398 611.346 494.649C628.121 495.791 637.97 503.099 640.893 516.574C643.566 528.901 632.349 540.682 621.415 543.938C615.637 545.651 608.166 545.124 601.824 544.842Z" fill="#010112"/>
<path d="M504.77 335.698C505.071 331.482 509.249 326.156 513.389 324.858C513.761 324.742 514.157 324.727 514.537 324.813C514.917 324.899 515.267 325.083 515.554 325.347C517.273 326.953 518.245 329.462 518.471 332.875C519.387 346.388 519.907 359.612 520.033 372.547C520.083 376.963 517.912 378.933 513.521 378.456L511.489 378.231C506.42 377.666 503.911 374.837 503.961 369.743C504.099 352.529 504.368 341.181 504.77 335.698Z" fill="#32D8FF"/>
<path d="M340.606 416.416C340.789 417.077 340.762 417.78 340.53 418.43C340.298 419.079 339.871 419.644 339.307 420.048L335.506 422.777C335.107 423.063 334.635 423.229 334.144 423.255C333.654 423.282 333.167 423.168 332.739 422.927L289.153 398.104C285 395.745 284.736 393.01 288.362 389.899L290.338 388.205C293.851 385.181 297.603 384.843 301.593 387.189C313.637 394.252 325.418 401.968 336.936 410.337C338.63 411.554 339.853 413.58 340.606 416.416Z" fill="#32D8FF"/>
<path d="M519.431 395.225C522.612 410.149 520.203 431.359 520.485 443.422C520.598 448.334 519.826 452.418 514.933 454.45C512.022 455.667 509.3 455.423 506.766 453.716C501.233 450.009 503.905 444.081 503.943 438.755C504.043 426.522 503.93 414.283 503.604 402.037C503.516 398.876 504.357 395.921 506.126 393.173C510.021 387.132 517.756 387.283 519.431 395.225Z" fill="#32D8FF"/>
<path d="M385.378 454.036C385.002 454.036 384.619 454.024 384.23 453.999C383.854 453.974 383.502 453.854 383.176 453.641C376.288 449.024 369.293 444.507 362.192 440.091C356.923 436.835 354.363 431.584 358.409 426.353C358.902 425.717 359.584 425.255 360.359 425.031C361.133 424.808 361.959 424.836 362.719 425.11C372.336 428.536 381.162 435.066 387.712 438.774C402.253 446.954 416.688 455.304 431.016 463.823C442.289 470.522 453.882 478.954 465.418 486.406C468.204 488.213 471.14 491.732 469.333 495.139C466.867 499.806 456.46 495.666 453.091 493.897C436.21 484.976 420.195 474.851 403.596 465.516C399.625 463.296 396.03 459.626 391.231 457.744C390.202 457.342 388.784 456.32 386.978 454.676C386.542 454.265 385.97 454.036 385.378 454.036Z" fill="#32D8FF"/>
<path d="M637.073 438.51C646.972 431.936 653.848 427.858 657.699 426.277C660.51 425.111 663.157 425.838 665.641 428.46C666.196 429.047 666.512 429.821 666.526 430.629C666.54 431.437 666.251 432.221 665.716 432.827C664.361 434.382 662.806 435.762 661.049 436.967C636.119 454.068 610.311 469.726 583.625 483.941C579.484 486.143 560.985 497.04 559.874 487.122C559.813 486.578 559.969 486.031 560.307 485.597C562.541 482.636 564.993 480.309 567.666 478.615C581.856 469.582 596.102 461.338 613.04 452.267C624.445 446.157 632.456 441.571 637.073 438.51Z" fill="#32D8FF"/>
<path d="M494.702 522.928C494.719 533.062 502.595 541.264 512.292 541.247C521.99 541.23 529.837 533.001 529.819 522.867C529.801 512.733 521.926 504.532 512.228 504.549C502.531 504.566 494.684 512.794 494.702 522.928Z" fill="#32D8FF"/>
<path d="M454.86 522.785C446.58 526.06 437.866 525.74 429.172 525.1C428.446 525.05 427.749 524.803 427.158 524.385C423.921 522.126 423.595 519.642 426.179 516.932C434.516 508.256 441.386 514.598 450.588 516.857C452.935 517.434 454.553 518.99 455.444 521.524C455.645 522.126 455.45 522.547 454.86 522.785Z" fill="#32D8FF"/>
<path d="M574.102 517.628C582.145 513.199 590.733 512.359 599.866 515.106C600.889 515.415 601.773 516.068 602.367 516.954C602.961 517.84 603.228 518.903 603.122 519.962C602.2 529.183 577.377 524.78 571.712 523.029C571.343 522.912 571.033 522.657 570.847 522.317C570.662 521.977 570.614 521.578 570.715 521.204C571.091 519.849 572.22 518.657 574.102 517.628Z" fill="#32D8FF"/>
<path d="M451.755 561.008C447.953 563.266 444.434 566.898 441.122 569.081C429.359 576.854 417.785 584.777 405.628 591.778C394.486 598.195 383.213 604.444 372.336 611.238C367.606 614.198 362.568 616.35 357.223 617.693C356.645 617.836 356.036 617.779 355.495 617.529C354.954 617.279 354.515 616.852 354.25 616.319C349.074 606.043 360.761 602.769 366.934 598.722C388.627 584.482 410.991 571.384 434.027 559.427C435.984 558.411 439.302 556.428 443.982 553.48C448.461 550.676 455.293 546.008 460.995 545.764C461.299 545.752 461.6 545.825 461.863 545.975C462.126 546.124 462.341 546.345 462.482 546.611C464.213 549.885 463.781 552.614 461.183 554.797C459.578 556.152 456.435 558.222 451.755 561.008Z" fill="#32D8FF"/>
<path d="M657.925 616.658C650.492 612.931 643.472 607.812 636.565 604.18C629.639 600.554 622.852 596.683 616.202 592.568C599.509 582.236 582.534 573.654 566.198 562.908C562.773 560.65 562.779 558.398 566.217 556.152L568.4 554.741C571.75 552.558 575.181 552.413 578.694 554.308C603.311 567.607 629.733 582.757 657.963 599.757C662.254 602.336 668.446 608.038 667.448 613.552C666.978 616.168 663.27 620.177 660.24 618.182C658.822 617.241 658.051 616.733 657.925 616.658Z" fill="#32D8FF"/>
<path d="M504.394 596.784C506.577 584.288 519.412 588.108 519.694 598.722C520.033 611.407 520.108 623.772 519.92 635.816C519.845 640.822 517.379 643.934 512.524 645.151L510.454 645.678C509.64 645.882 508.79 645.898 507.97 645.722C507.149 645.546 506.38 645.184 505.722 644.664C505.064 644.144 504.534 643.479 504.173 642.722C503.812 641.964 503.63 641.134 503.641 640.295L504.206 598.835C504.218 598.145 504.281 597.462 504.394 596.784Z" fill="#32D8FF"/>
<path d="M330.969 617.034C331.576 616.693 332.245 616.478 332.937 616.401C333.629 616.323 334.329 616.386 334.997 616.584C335.666 616.782 336.288 617.112 336.828 617.555C337.367 617.997 337.813 618.543 338.14 619.161L338.892 620.591C340.963 624.543 340.028 627.573 336.088 629.681C326.766 634.674 317.921 639.825 309.552 645.132C301.893 649.987 294.779 653.375 286.931 657.026C282.716 659.002 279.516 659.153 276.129 655.972C275.607 655.482 275.256 654.837 275.127 654.132C274.998 653.428 275.099 652.701 275.413 652.058C279.667 643.25 287.138 642.045 293.612 637.849C304.923 630.528 317.4 624.618 330.969 617.034Z" fill="#32D8FF"/>
<path d="M732.398 643.485L691.671 619.111C688.674 617.317 684.791 618.293 682.998 621.289L682.147 622.711C680.354 625.707 681.329 629.59 684.326 631.384L725.052 655.758C728.049 657.552 731.932 656.576 733.726 653.58L734.576 652.159C736.37 649.162 735.394 645.279 732.398 643.485Z" fill="#32D8FF"/>
<path d="M520.597 681.36C522.084 694.835 503.264 697.789 503.49 683.392C503.603 677.056 503.528 670.425 503.264 663.5C503.076 658.582 505.422 655.834 510.303 655.257L512.919 654.937C517.448 654.397 519.719 656.411 519.732 660.978C519.75 667.32 519.826 674.415 520.597 681.36Z" fill="#32D8FF"/>
</svg>
