<svg width="1024" height="1024" viewBox="0 0 1024 1024" fill="none" xmlns="http://www.w3.org/2000/svg">
<rect width="1024" height="1024" fill="white"/>
<path d="M844.776 660.283L841.601 662.594" stroke="#F3FFFE" stroke-width="2"/>
<path d="M841.598 662.594C841.692 657.659 843.107 652.692 843.28 648.511C843.741 637.351 843.735 629.696 843.264 625.547C839.722 594.09 826.823 567.301 804.566 545.181C804.189 544.804 804.032 544.353 804.095 543.829C807.081 521.431 809.219 501.532 808.401 479.511C806.28 422.644 783.929 366.247 747.919 323.275C703.196 269.917 645.783 235.956 575.681 221.391C549.338 215.91 522.712 213.851 495.802 215.213C474.85 216.267 453.332 220.243 434.502 224.644C346.607 245.125 274.588 304.664 236.251 386.256C221.131 418.431 214.529 454.74 214.686 490.514" stroke="#80808B" stroke-width="2"/>
<path d="M841.599 662.594C840.991 663.757 840.441 665.334 839.948 667.325C830.895 703.697 809.319 729.458 775.222 744.611C774.111 745.103 773.393 745.81 773.068 746.733C766.765 764.698 750.938 779.127 733.113 785.147C703.815 795.065 672.756 785.053 655.011 759.228C645.486 745.349 646.02 734.331 646.004 719.163" stroke="#738089" stroke-width="2"/>
<path d="M646.147 565.929C646.147 555.838 644.984 544.301 648.002 535.028C654.792 514.186 671.217 495.733 692.531 489.43C693.044 489.283 693.416 488.969 693.647 488.487C695.229 485.196 696.57 483.232 697.671 482.592C705.844 477.798 720.949 476.305 726.026 486.616C726.288 487.13 726.702 487.386 727.268 487.386L730.097 487.355C730.746 487.355 731.055 487.025 731.024 486.365C730.479 476.892 729.358 468.86 727.66 462.269C713.294 406.669 681.387 364.54 631.938 335.881C590.521 311.895 545.505 300.107 498.398 303.046C498.22 303.056 498.042 303.104 497.864 303.187C497.602 303.303 497.324 303.366 497.031 303.376C454.435 304.335 411.666 321.122 376.788 345.249C340.71 370.219 315.095 404.448 299.943 447.934C295.573 460.456 293.205 473.308 292.838 486.49C292.835 486.667 292.869 486.842 292.939 487.004C293.009 487.166 293.114 487.311 293.245 487.429C293.376 487.547 293.532 487.635 293.7 487.687C293.869 487.739 294.046 487.755 294.221 487.732L297.365 487.339C297.91 487.276 298.345 487.02 298.67 486.569C305.224 477.327 321.162 476.541 328.691 485.406C328.922 485.668 329.068 485.972 329.131 486.318L329.351 487.544C329.398 487.799 329.516 488.037 329.69 488.231C329.865 488.425 330.09 488.568 330.341 488.644C352.394 495.387 369.919 511.231 376.914 533.314C378.15 537.233 378.779 540.141 378.8 542.038C379.104 569.429 378.931 632.269 378.281 730.559C378.093 758.946 357.471 779.112 331.646 786.657C325.013 788.595 319.601 789.533 315.409 789.47C283.397 788.988 261.418 774.313 249.472 745.444C249.273 744.952 248.922 744.611 248.419 744.422C213.525 731.141 186.003 693.685 181.634 656.795C181.319 654.138 180.235 651.859 180.172 649.376C179.962 641.496 180.046 633.616 180.423 625.736C180.507 624.101 180.921 620.643 181.665 615.362C185.642 587.133 199.128 565.033 219.593 545.354C219.97 544.988 220.122 544.542 220.048 544.018L215.993 516.197" stroke="#738089" stroke-width="2"/>
<path d="M602.498 527.577C602.708 530.354 602.32 531.553 601.335 531.176" stroke="#E4FEF9" stroke-width="2"/>
<path d="M601.335 531.176C596.793 518.696 589.484 507.74 576.501 503.261C569.365 500.809 560.311 501.327 552.326 501.516C552.219 501.52 552.111 501.503 552.01 501.464C551.909 501.426 551.817 501.367 551.739 501.293C551.661 501.218 551.6 501.128 551.557 501.029C551.515 500.929 551.493 500.822 551.493 500.714L551.478 488.219C551.477 487.953 551.537 487.691 551.651 487.452C551.765 487.213 551.931 487.002 552.138 486.835C599.025 449.93 575.07 375.756 515.641 373.917C498.131 373.383 479.678 378.24 467.198 390.453C444.8 412.395 439.11 449.914 460.219 475.801C463.908 480.328 467.9 484.598 472.196 488.612C472.563 488.957 472.741 489.382 472.731 489.885L472.589 500.321C472.579 501.013 472.228 501.354 471.536 501.343C464.714 501.233 457.311 500.573 451.071 502.459C430.779 508.573 420.798 529.604 422.087 549.959" stroke="#80808B" stroke-width="2"/>
<path d="M601.335 531.176C602.446 535 603.001 538.092 603.001 540.449C603.064 613.066 603.059 663.364 602.986 691.342C602.938 706.368 604.526 716.428 597.5 730.605" stroke="#657F85" stroke-width="2"/>
<path d="M597.5 730.605C590.081 743.232 578.795 750.85 563.643 753.459C563.109 753.554 562.863 753.873 562.905 754.418C565.529 784.314 544.074 808.519 514.242 809.792C510.579 809.95 507.059 808.928 503.271 808.472C498.901 807.954 492.504 805.344 488.857 803.332C475.906 796.217 467.685 785.461 464.196 771.063C462.907 765.766 463.033 760.045 463.19 754.481C463.195 754.27 463.122 754.066 462.985 753.908C462.847 753.751 462.657 753.652 462.451 753.632C445.13 751.935 429.05 738.936 424.052 722.432C422.721 718.042 422.129 710.072 422.276 698.525C422.381 690.488 422.402 682.451 422.339 674.414" stroke="#738089" stroke-width="2"/>
<path d="M595.188 738.59L597.405 733.969C597.562 733.644 597.588 733.304 597.483 732.947C597.305 732.371 597.541 731.931 598.191 731.627C598.281 731.581 598.36 731.513 598.419 731.43C598.477 731.347 598.515 731.251 598.527 731.151C598.54 731.051 598.527 730.951 598.49 730.858C598.453 730.765 598.394 730.684 598.316 730.621C598.065 730.401 597.792 730.396 597.499 730.605" stroke="#D8FEF8" stroke-width="2"/>
<path d="M844.774 660.284L841.599 662.594C841.693 657.659 843.108 652.692 843.281 648.511C843.742 637.351 843.736 629.697 843.265 625.547C839.723 594.09 826.824 567.302 804.567 545.181C804.19 544.804 804.033 544.353 804.096 543.829C807.082 521.431 809.22 501.532 808.402 479.511C806.281 422.644 783.929 366.248 747.92 323.275C703.197 269.918 645.784 235.956 575.682 221.391C549.339 215.911 522.713 213.852 495.803 215.214C474.851 216.267 453.333 220.243 434.503 224.645C346.608 245.125 274.589 304.665 236.252 386.257C221.132 418.431 214.53 454.74 214.687 490.514C214.562 490.923 214.383 491.269 214.153 491.551C214.106 491.613 214.042 491.658 213.969 491.682C213.895 491.706 213.816 491.707 213.741 491.685C213.666 491.663 213.598 491.62 213.545 491.56C213.493 491.5 213.458 491.426 213.446 491.347C213.372 490.687 213.032 490.158 212.424 489.76C212.13 489.56 211.989 489.278 212 488.911C212.22 481.681 213.43 474.56 213.446 467.361C213.467 463.442 213.618 460.299 213.901 457.931C215.903 441.06 218.282 428.737 221.037 420.962C223.615 413.637 225.454 405.684 228.221 398.91C231.783 390.202 234.419 384.334 236.127 381.306C241.046 372.629 245.589 362.837 250.383 355.151C261.26 337.641 273.871 321.452 288.216 306.582C288.866 305.912 289.505 305.231 290.134 304.539C296.924 296.963 303.111 290.697 308.696 285.74C313.428 281.544 318.992 277.96 323.864 273.873C342.144 258.517 364.26 246.461 386.233 237.329C392.725 234.625 398.965 231.608 405.739 229.69C408.233 228.988 410.607 228.26 412.86 227.505C415.228 226.719 417.617 226.012 420.027 225.383C425.916 223.832 431.815 222.318 437.725 220.841C441.697 219.845 446.381 218.907 451.777 218.027C465.908 215.748 482.506 212.652 493.43 212.322C516.441 211.609 534.773 212.081 548.427 213.736C580.471 217.634 611.178 226.227 640.55 239.514C648.865 243.286 657.054 246.713 664.897 251.318C686.447 263.955 702.149 275.728 719.25 290.66C720.995 292.2 722.912 293.364 724.468 294.982C729.603 300.285 734.722 305.608 739.825 310.952C744.813 316.191 749.471 321.698 753.798 327.471C756.69 331.328 759.572 335.194 762.443 339.071C771.56 351.347 779.183 364.597 786.13 378.193C787.183 380.252 787.718 382.422 788.708 384.371C795.309 397.181 799.019 411.044 803.168 424.781C805.495 432.452 806.595 440.531 808.088 448.5C809.073 453.687 809.697 458.968 809.959 464.344C810.32 471.495 810.98 478.961 811.027 485.657C811.174 504.603 809.775 523.061 806.831 541.032C806.621 542.352 806.852 543.436 807.522 544.285C814.721 553.292 822.611 562.345 828.443 571.902C832.865 579.153 835.443 584.12 836.176 586.802C839.508 598.889 845.277 610.552 845.591 622.891C845.921 634.837 846.864 648.527 844.774 660.284Z" fill="white"/>
<path d="M841.598 662.595C840.99 663.758 840.44 665.335 839.948 667.326C830.894 703.698 809.319 729.459 775.221 744.612C774.11 745.104 773.392 745.811 773.068 746.733C766.765 764.699 750.937 779.128 733.113 785.148C703.814 795.066 672.756 785.054 655.01 759.229C645.485 745.35 646.019 734.332 646.004 719.164L646.145 565.93C646.145 555.839 644.982 544.302 648 535.028C654.79 514.186 671.215 495.733 692.529 489.43C693.042 489.283 693.414 488.969 693.645 488.487C695.227 485.197 696.568 483.232 697.669 482.593C705.842 477.799 720.947 476.306 726.024 486.617C726.286 487.13 726.7 487.387 727.266 487.387L730.095 487.355C730.744 487.355 731.053 487.025 731.022 486.365C730.477 476.893 729.356 468.861 727.658 462.27C713.292 406.67 681.385 364.54 631.936 335.881C590.519 311.896 545.503 300.107 498.396 303.046C498.218 303.057 498.04 303.104 497.862 303.188C497.6 303.303 497.322 303.366 497.029 303.376C454.433 304.335 411.664 321.122 376.786 345.249C340.708 370.22 315.093 404.448 299.941 447.935C295.571 460.457 293.203 473.309 292.836 486.491C292.833 486.667 292.867 486.843 292.937 487.004C293.007 487.166 293.112 487.311 293.243 487.429C293.374 487.547 293.53 487.635 293.698 487.687C293.867 487.74 294.045 487.755 294.22 487.733L297.363 487.34C297.908 487.277 298.343 487.02 298.668 486.569C305.222 477.327 321.16 476.541 328.689 485.406C328.92 485.668 329.066 485.972 329.129 486.318L329.349 487.544C329.396 487.8 329.514 488.037 329.688 488.231C329.863 488.425 330.088 488.568 330.339 488.644C352.392 495.387 369.917 511.231 376.912 533.315C378.148 537.234 378.777 540.142 378.798 542.038C379.102 569.429 378.929 632.27 378.279 730.56C378.091 758.946 357.469 779.113 331.644 786.657C325.011 788.596 319.599 789.534 315.407 789.471C283.395 788.989 261.416 774.313 249.47 745.445C249.271 744.952 248.92 744.612 248.417 744.423C213.523 731.141 186.001 693.685 181.632 656.795C181.317 654.139 180.233 651.86 180.17 649.376C179.96 641.496 180.044 633.616 180.421 625.737C180.505 624.102 180.919 620.644 181.663 615.363C185.64 587.133 199.126 565.034 219.591 545.355C219.968 544.988 220.12 544.543 220.046 544.019L215.991 516.198L214.687 490.515C214.529 454.741 221.131 418.432 236.252 386.257C274.588 304.665 346.608 245.126 434.502 224.645C453.333 220.244 474.851 216.268 495.803 215.214C522.712 213.852 549.338 215.911 575.681 221.392C645.784 235.957 703.196 269.918 747.919 323.275C783.929 366.248 806.28 422.644 808.402 479.512C809.219 501.533 807.081 521.432 804.095 543.83C804.032 544.354 804.189 544.805 804.567 545.182C826.823 567.302 839.722 594.091 843.264 625.548C843.736 629.697 843.741 637.352 843.28 648.512C843.107 652.693 841.692 657.66 841.598 662.595Z" fill="#000116"/>
<path d="M646.146 565.929C645.412 566.348 644.831 566.06 644.401 565.065C643.175 562.157 644.087 552.113 644.102 548.466C644.123 542.515 644.763 537.647 646.02 533.864C651.128 518.524 662.335 502.57 675.491 493.846C678.551 491.814 683.314 489.592 689.779 487.182C690.282 486.993 690.706 486.69 691.052 486.27C694.845 481.618 699.519 478.317 705.073 476.368C709.159 474.938 712.13 476.069 716.374 476.51C720.728 476.95 723.871 480.125 726.622 483.174C726.926 483.509 727.172 483.473 727.361 483.064C727.518 482.687 727.78 482.304 728.147 481.917C728.503 481.529 728.639 481.073 728.555 480.549C727.927 476.321 727.895 472.439 726.48 468.32C723.651 460.069 722.519 451.298 719.266 443.14C708.2 415.304 694.573 391.57 674.092 371.042C656.944 353.846 635.803 340.093 613.955 329.279C610.482 327.55 605.342 325.696 600.674 323.495C595.691 321.153 588.602 319.691 582.519 316.941C580.083 315.84 577.27 315.699 575.085 314.882C564.585 310.984 552.949 308.338 540.175 306.944C522.341 304.995 509.378 304.366 501.289 305.058C495.002 305.603 488.715 306.09 482.427 306.52C481.249 306.598 479.724 307.651 478.168 307.84C450.378 311.204 424.947 321.074 400.301 333.916C356.762 356.566 321.805 395.043 304.374 442.983C299.832 455.495 297.615 468.635 295.855 481.618C295.394 485.086 296.306 485.495 298.59 482.844C303.672 476.965 310.855 475.1 320.139 477.248C321.952 477.667 324.462 478.988 327.668 481.209C330.45 483.143 331.425 486.773 334.883 487.811C345.209 490.907 358.208 499.348 365.187 507.647C369.913 513.295 373.769 519.121 376.755 525.125C379.978 531.617 381.817 538.061 381.911 545.842C382.341 580.872 382.309 615.902 381.817 650.932C381.581 666.776 382.367 686.848 381.597 704.106C381.052 716.355 380.826 726.902 380.921 735.746C380.968 740.619 378.689 744.988 377.117 749.657C367.623 777.87 335.449 794.736 306.748 791.718C295.368 790.523 285.041 787.217 275.767 781.8C262.423 773.988 254.8 761.382 247.711 747.535C247.47 747.063 247.114 746.696 246.642 746.434C243.425 744.653 240.15 743.034 236.818 741.578C233.14 739.964 227.754 736.197 220.66 730.276C199.326 712.463 185.625 689.939 179.558 662.705C176.728 649.973 176.246 636.864 178.112 623.378C179.128 616.075 180.48 609.117 182.167 602.505C187.684 580.955 199.944 560.444 216.338 545.339C216.757 544.951 216.93 544.474 216.856 543.908C216.532 541.498 216.149 539.125 215.709 536.788C214.672 531.255 215.096 525.66 214.137 520.017C213.812 518.099 214.431 516.826 215.992 516.197L220.047 544.018C220.121 544.542 219.969 544.988 219.591 545.354C199.127 565.033 185.641 587.133 181.664 615.362C180.92 620.643 180.506 624.101 180.422 625.736C180.045 633.616 179.961 641.496 180.171 649.376C180.234 651.859 181.318 654.138 181.632 656.795C186.002 693.685 213.524 731.141 248.418 744.422C248.921 744.611 249.272 744.952 249.471 745.444C261.417 774.313 283.396 788.988 315.408 789.47C319.6 789.533 325.012 788.595 331.645 786.657C357.469 779.112 378.091 758.946 378.28 730.559C378.93 632.269 379.103 569.429 378.799 542.038C378.778 540.141 378.149 537.233 376.913 533.314C369.918 511.231 352.393 495.387 330.34 488.644C330.089 488.568 329.864 488.425 329.689 488.231C329.515 488.037 329.397 487.799 329.35 487.544L329.13 486.318C329.067 485.972 328.92 485.668 328.69 485.406C321.161 476.541 305.223 477.327 298.669 486.569C298.344 487.02 297.909 487.276 297.364 487.339L294.22 487.732C294.045 487.755 293.867 487.739 293.699 487.687C293.53 487.635 293.375 487.547 293.244 487.429C293.112 487.311 293.008 487.166 292.938 487.004C292.868 486.842 292.833 486.667 292.837 486.49C293.204 473.308 295.572 460.456 299.942 447.934C315.094 404.448 340.709 370.219 376.787 345.249C411.665 321.122 454.434 304.335 497.029 303.376C497.323 303.366 497.6 303.303 497.862 303.187C498.041 303.104 498.219 303.056 498.397 303.046C545.504 300.107 590.52 311.895 631.937 335.881C681.386 364.54 713.293 406.669 727.659 462.269C729.357 468.86 730.478 476.892 731.023 486.365C731.054 487.025 730.745 487.355 730.096 487.355L727.266 487.386C726.7 487.386 726.287 487.13 726.025 486.616C720.948 476.305 705.843 477.798 697.669 482.592C696.569 483.232 695.228 485.196 693.646 488.487C693.415 488.969 693.043 489.283 692.53 489.43C671.216 495.733 654.791 514.186 648.001 535.028C644.983 544.301 646.146 555.838 646.146 565.929Z" fill="#E6FFFC"/>
<path d="M602.496 527.577C602.706 530.353 602.318 531.553 601.333 531.176C596.791 518.696 589.482 507.741 576.499 503.261C569.363 500.809 560.309 501.328 552.324 501.516C552.217 501.52 552.109 501.503 552.008 501.464C551.907 501.426 551.815 501.368 551.737 501.293C551.659 501.218 551.598 501.128 551.555 501.029C551.513 500.929 551.491 500.822 551.491 500.715L551.476 488.219C551.475 487.954 551.535 487.692 551.649 487.452C551.763 487.213 551.93 487.002 552.136 486.836C599.023 449.93 575.068 375.757 515.639 373.918C498.129 373.383 479.676 378.24 467.196 390.453C444.798 412.395 439.108 449.914 460.217 475.802C463.906 480.328 467.898 484.598 472.194 488.612C472.561 488.958 472.739 489.382 472.729 489.885L472.587 500.322C472.577 501.013 472.226 501.354 471.534 501.343C464.713 501.233 457.309 500.573 451.069 502.459C430.777 508.574 420.796 529.604 422.085 549.959C421.918 550.095 421.823 550.31 421.802 550.603C421.771 551.044 421.551 551.201 421.142 551.075C420.87 551.002 420.624 550.881 420.403 550.714C419.963 550.378 419.743 549.938 419.743 549.393C419.743 548.083 419.743 546.779 419.743 545.479C419.728 543.106 420.671 540.905 420.624 538.265C420.592 536.84 420.697 535.698 420.938 534.838C425.15 519.435 432.821 507.159 447.879 500.683C454.386 497.885 461.962 498.483 469.082 498.561C469.44 498.566 469.789 498.441 470.063 498.21C470.337 497.979 470.519 497.658 470.575 497.304C471.188 493.343 470.78 490.262 467.746 487.229C463.691 483.194 460.233 479.301 457.372 475.55C441.104 454.205 440.963 425.488 454.213 402.21C455.868 399.307 460.065 394.477 466.803 387.718C480.635 373.823 496.903 371.183 516.205 370.978C526.673 370.853 540.143 374.986 549.448 381.557C553.142 384.166 556.678 386.241 559.743 389.478C569.08 399.318 575.603 410.792 577.898 424.058C577.929 424.247 578.437 426.583 579.422 431.068C580.774 437.245 579.611 442.432 579.076 448.547C578.809 451.769 577.017 453.985 576.845 457.427C576.813 457.983 576.598 458.449 576.2 458.826C575.687 459.308 575.404 459.916 575.351 460.649C575.32 461.152 575.168 461.608 574.896 462.017C572.836 465.129 571.689 468.713 569.614 471.479C565.307 477.18 560.671 482.597 555.704 487.732C555.348 488.109 555.164 488.554 555.154 489.068L554.965 496.581C554.958 496.878 555.016 497.174 555.133 497.447C555.251 497.721 555.426 497.966 555.647 498.166C555.868 498.365 556.129 498.515 556.412 498.605C556.696 498.695 556.996 498.723 557.291 498.687C579.611 496.031 594.339 507.819 602.496 527.577Z" fill="white"/>
<path d="M601.333 531.176C602.444 535 602.999 538.092 602.999 540.449C603.062 613.066 603.057 663.364 602.984 691.342C602.936 706.368 604.524 716.428 597.498 730.605C590.079 743.232 578.794 750.85 563.641 753.459C563.107 753.554 562.861 753.873 562.903 754.418C565.528 784.314 544.073 808.519 514.24 809.793C510.578 809.95 507.057 808.928 503.269 808.472C498.899 807.954 492.502 805.344 488.855 803.333C475.904 796.218 467.683 785.461 464.194 771.064C462.905 765.767 463.031 760.045 463.188 754.481C463.193 754.27 463.12 754.066 462.983 753.908C462.846 753.751 462.655 753.652 462.449 753.632C445.128 751.935 429.048 738.936 424.05 722.432C422.719 718.042 422.127 710.073 422.274 698.525C422.379 690.488 422.4 682.451 422.337 674.414L422.085 549.959C420.796 529.604 430.777 508.573 451.069 502.459C457.309 500.573 464.713 501.233 471.534 501.343C472.226 501.354 472.577 501.013 472.587 500.321L472.729 489.885C472.739 489.382 472.561 488.957 472.194 488.612C467.898 484.598 463.906 480.328 460.217 475.801C439.108 449.914 444.798 412.395 467.196 390.453C479.676 378.24 498.129 373.383 515.639 373.917C575.068 375.756 599.023 449.93 552.136 486.835C551.93 487.002 551.763 487.213 551.649 487.452C551.535 487.691 551.476 487.953 551.476 488.219L551.491 500.714C551.491 500.822 551.513 500.929 551.555 501.029C551.598 501.128 551.659 501.218 551.737 501.293C551.815 501.367 551.907 501.426 552.008 501.464C552.109 501.503 552.217 501.52 552.324 501.516C560.309 501.327 569.363 500.809 576.499 503.261C589.482 507.74 596.791 518.696 601.333 531.176Z" fill="#000116"/>
<path d="M602.496 527.577C605.21 532.166 606.562 537.112 606.552 542.414C606.473 595.824 606.614 649.202 606.394 702.612C606.363 711.079 605.729 717.382 604.493 721.521C602.606 727.839 599.505 733.529 595.188 738.59L597.404 733.969C597.561 733.645 597.587 733.304 597.482 732.948C597.304 732.371 597.54 731.931 598.19 731.627C598.281 731.581 598.359 731.513 598.418 731.43C598.476 731.347 598.514 731.251 598.526 731.152C598.539 731.052 598.526 730.951 598.489 730.858C598.452 730.766 598.393 730.684 598.315 730.621C598.064 730.401 597.791 730.396 597.498 730.606C604.524 716.428 602.936 706.369 602.984 691.342C603.057 663.364 603.062 613.067 602.999 540.45C602.999 538.092 602.444 535.001 601.333 531.176C602.318 531.553 602.706 530.354 602.496 527.577Z" fill="#C9FDF3"/>
<path d="M422.337 674.415C422.4 682.452 422.379 690.489 422.274 698.526C422.127 710.074 422.719 718.043 424.05 722.433C429.048 738.937 445.128 751.936 462.449 753.633C462.655 753.653 462.846 753.752 462.983 753.909C463.12 754.067 463.193 754.271 463.188 754.482C463.031 760.046 462.905 765.768 464.194 771.064C467.683 785.462 475.904 796.219 488.855 803.334C492.502 805.345 498.899 807.955 503.269 808.473C507.057 808.929 510.578 809.951 514.24 809.794C544.073 808.52 565.528 784.315 562.903 754.419C562.861 753.874 563.107 753.555 563.641 753.46C578.794 750.851 590.079 743.233 597.498 730.606C597.791 730.397 598.064 730.402 598.315 730.622C598.392 730.685 598.452 730.766 598.489 730.859C598.526 730.951 598.539 731.052 598.526 731.152C598.514 731.252 598.476 731.348 598.417 731.431C598.359 731.514 598.28 731.582 598.19 731.628C597.54 731.932 597.304 732.372 597.482 732.948C597.587 733.305 597.561 733.645 597.404 733.97L595.187 738.591C587.784 747 577.96 752.91 567.257 755.975C566.817 756.102 566.433 756.371 566.165 756.742C565.897 757.112 565.761 757.562 565.779 758.019C565.999 764.526 565.512 770.687 563.138 776.802C557.559 791.121 547.42 802.689 533.023 808.473C522.57 812.654 511.662 812.686 500.864 810.8C477.334 806.681 460.17 782.35 459.793 759.402C459.784 758.784 459.606 758.18 459.28 757.654C458.953 757.128 458.489 756.7 457.938 756.415C454.103 754.466 449.545 753.633 446.039 751.669C434.932 745.455 426.974 736.417 422.164 724.555C417.967 714.165 419.225 700.428 419.319 689.237C419.319 688.199 418.58 687.319 418.596 686.392C418.701 680.513 419.068 674.635 419.696 668.756C419.749 668.285 419.937 667.881 420.262 667.546C420.671 667.127 420.823 666.535 420.718 665.77C420.477 664.041 420.493 662.521 420.765 661.212C420.769 661.182 420.785 661.156 420.808 661.138C420.832 661.121 420.862 661.113 420.891 661.117C420.92 661.121 420.946 661.137 420.964 661.161C420.982 661.184 420.989 661.214 420.985 661.243C420.618 663.538 420.859 665.738 421.708 667.845C421.903 668.348 421.947 668.899 421.834 669.432C421.383 671.413 421.551 673.073 422.337 674.415Z" fill="#E6FFFC"/>
<path d="M844.773 660.284C837.229 696.294 815.459 727.856 781.461 744.045C778.098 745.649 776.966 746.246 775.425 749.892C772.832 755.991 768.918 760.392 765.272 765.453C762.285 769.587 759.079 772.322 755.401 775.607C747.023 783.057 738.3 786.091 728.68 788.842C721.937 790.759 714.487 790.995 707.98 791.089C679.954 791.482 656.44 773.045 646.177 747.692C642.939 739.691 643.599 729.679 644.023 720.814C644.076 719.672 644.736 719.122 646.004 719.164C646.019 734.332 645.485 745.35 655.01 759.229C672.756 785.053 703.814 795.066 733.113 785.148C750.937 779.128 766.765 764.699 773.068 746.733C773.393 745.811 774.11 745.104 775.221 744.611C809.319 729.459 830.894 703.697 839.948 667.326C840.44 665.335 840.99 663.758 841.598 662.595L844.773 660.284Z" fill="#E6FFFC"/>
<path d="M627.884 274.769C628.198 275.796 628.015 276.409 627.334 276.608" stroke="#9FF2F1" stroke-width="2"/>
<path d="M627.332 276.609C624.513 275.529 621.527 274.759 618.373 274.298C603.975 272.223 589.562 270.693 575.133 269.708" stroke="#82E4E0" stroke-width="2"/>
<path d="M575.134 269.708C557.929 266.941 540.775 266.009 523.674 266.91" stroke="#9FF2F1" stroke-width="2"/>
<path d="M285.042 398.203C278.891 404.919 274.045 412.595 270.503 421.23C266.008 432.169 260.711 442.517 254.612 452.273" stroke="#80DBDE" stroke-width="2"/>
<path d="M254.613 452.272C253.471 454.567 252.366 454.886 251.297 453.231" stroke="#D4FDF6" stroke-width="2"/>
<path d="M258.087 491.001C257.469 490.163 256.725 490.063 255.855 490.702C255.466 490.978 254.999 491.126 254.519 491.127H251.328C251.017 491.127 250.708 491.064 250.422 490.942C250.135 490.82 249.876 490.642 249.66 490.417C249.444 490.192 249.276 489.926 249.166 489.635C249.055 489.344 249.005 489.033 249.018 488.722C249.51 476.305 251.375 464.155 254.613 452.272" stroke="#55D9D5" stroke-width="2"/>
<path d="M575.134 269.708C571.487 268.828 569.79 271.201 567.181 272.867" stroke="#21D7D2" stroke-width="2"/>
<path d="M775.68 483.095L775.177 488.879C775.167 489.026 775.093 489.089 774.957 489.068L774.533 489.021C774.364 489 774.209 488.917 774.1 488.788C773.992 488.659 773.938 488.495 773.951 488.329C774.58 478.128 773.511 470.41 772.474 461.86C771.829 456.484 770.289 451.47 769.582 446.189C768.309 436.837 765.023 427.972 761.55 419.264" stroke="#20CECF" stroke-width="2"/>
<path d="M627.334 276.608C663.407 295.187 696.525 317.616 722.051 349.649C728.369 357.587 734.829 365.132 739.922 373.839C748.755 388.944 755.75 402.682 761.55 419.264" stroke="#21D7D2" stroke-width="2"/>
<path d="M761.549 419.264C762.629 423.047 763.399 426.777 763.86 430.455C764.08 432.184 763.483 433.347 762.634 434.762C762.267 435.359 761.775 435.496 761.157 435.171L760.716 434.935C759.993 434.547 759.553 434.757 759.396 435.564L758.972 437.858" stroke="#03BFBF" stroke-width="2"/>
<path d="M758.972 437.859C753.24 421.9 746.644 407.382 739.183 394.305C726.043 371.294 711.173 350.939 691.007 333.303C669.317 314.347 647.296 300.437 623.86 289.387C614.597 285.018 604.538 281.994 593.682 280.318" stroke="#21D7D2" stroke-width="2"/>
<path d="M758.972 437.858C760.051 441.568 761.193 445.262 762.398 448.94C763.577 452.508 764.049 457.317 766.013 461.388C766.075 461.513 766.113 461.646 766.123 461.781L769.204 488.486C769.236 488.696 769.157 488.853 768.968 488.958L768.544 489.209C767.894 489.576 767.947 489.785 768.701 489.838L776.796 490.372" stroke="#20CECF" stroke-width="2"/>
<path d="M300.479 517.219L299.63 515.176" stroke="#FF922C" stroke-width="2"/>
<path d="M299.629 515.175C299.724 514.546 299.635 514.122 299.362 513.902" stroke="#FFB9AC" stroke-width="2"/>
<path d="M300.588 660.755C299.77 685.778 299.807 710.791 300.698 735.793" stroke="#FF922C" stroke-width="2"/>
<path d="M299.629 515.176C291.225 518.801 287.028 525.791 287.038 536.144C287.07 602.673 287.107 669.207 287.149 735.746C287.149 738.177 286.562 739.78 285.388 740.556C285.158 740.703 285.016 740.912 284.964 741.185C284.932 741.352 284.859 741.494 284.744 741.609C284.534 741.819 284.178 741.845 283.675 741.688" stroke="#FFD980" stroke-width="2"/>
<path d="M735.536 518.822L735.222 560.223" stroke="#82E4E0" stroke-width="2"/>
<path d="M735.221 560.224L734.545 655.223" stroke="#80DBDE" stroke-width="2"/>
<path d="M734.544 655.223C734.45 655.715 734.308 656.124 734.12 656.449C733.931 656.773 733.585 656.999 733.082 657.124C730.442 657.795 727.628 658.644 724.642 659.671" stroke="#82E4E0" stroke-width="2"/>
<path d="M734.403 669.825C733.418 668.337 731.82 668.044 729.609 668.945C729.138 669.134 728.682 669.086 728.242 668.803C727.676 668.416 727.037 668.259 726.324 668.332C725.915 668.384 725.669 668.206 725.585 667.798L725.035 664.937C724.993 664.759 724.962 664.816 724.941 665.11C724.93 665.204 724.936 665.304 724.957 665.408C725.04 665.943 724.904 666.346 724.548 666.619" stroke="#21D7D2" stroke-width="2"/>
<path d="M746.351 640.558L745.141 652.519C745.109 652.844 744.931 653.011 744.606 653.022C744.418 653.032 744.234 653.032 744.056 653.022C743.721 653.011 743.412 653.106 743.129 653.305C740.698 654.992 737.795 656.213 734.421 656.967" stroke="#0199AB" stroke-width="2"/>
<path d="M734.421 656.967C735.05 656.318 735.092 655.736 734.547 655.223" stroke="#03BFBF" stroke-width="2"/>
<path d="M746.444 562.927C745.931 559.333 745.276 555.775 744.479 552.254C743.741 548.954 743.945 545.92 743.945 542.619C743.945 542.609 743.94 542.604 743.929 542.604C743.929 542.604 743.929 542.609 743.929 542.619C743.94 545.448 743.945 548.257 743.945 551.044C743.956 555.791 741.818 558.07 737.532 557.881C737.029 557.86 736.642 558.059 736.369 558.479L735.222 560.223" stroke="#03BFBF" stroke-width="2"/>
<path d="M734.781 747.566L734.403 669.825" stroke="#1FB1BE" stroke-width="2"/>
<path d="M734.403 669.825L734.419 656.967" stroke="#02A2AE" stroke-width="2"/>
<path d="M690.394 541.786C688.665 542.876 687.015 543.96 685.443 545.04C682.54 547.041 677.5 552.338 670.322 560.931" stroke="#FFD980" stroke-width="2"/>
<path d="M690.503 700.051L690.063 714.386C690.055 714.669 689.937 714.939 689.735 715.138C689.533 715.337 689.262 715.451 688.978 715.454L669.881 715.942" stroke="#FF922C" stroke-width="2"/>
<path d="M336.33 719.855C339.055 717.77 341.512 716.512 343.702 716.083C344.272 715.973 344.787 715.667 345.157 715.216C345.527 714.766 345.73 714.199 345.729 713.615C345.656 696.189 345.551 678.81 345.415 661.478C345.384 656.716 344.676 651.042 344.724 645.76C344.765 639.913 344.755 635.989 344.692 633.988C344.331 622.215 345.431 608.949 345.446 598.874C345.462 584.319 346.138 569.858 344.503 555.335C344.42 554.633 343.628 553.339 342.13 551.452C339.95 548.718 338.363 547.785 337.368 548.655" stroke="#017294" stroke-width="2"/>
<path d="M256.924 605.224C249.631 613.795 240.457 620.449 229.402 625.185C225.462 626.883 220.055 628.575 213.181 630.262" stroke="#9FF2F1" stroke-width="2"/>
<path d="M256.955 638.247C247.671 642.113 239.529 643.512 232.53 642.444C225.404 641.364 219.641 638.011 215.24 632.384C214.695 631.682 214.003 631.169 213.165 630.844" stroke="#20CECF" stroke-width="2"/>
<path d="M256.922 678.454C252.008 677.92 246.884 676.075 241.55 672.921C231.334 666.896 222.673 660.242 215.568 652.959" stroke="#01879E" stroke-width="2"/>
<path d="M797.4 591.234C797.473 592.01 797.169 592.408 796.488 592.429" stroke="#9FF2F1" stroke-width="2"/>
<path d="M796.491 592.429C795.925 592.136 795.238 592.136 794.432 592.429C788.155 594.734 779.903 597.522 769.676 600.791" stroke="#82E4E0" stroke-width="2"/>
<path d="M809.773 627.716C806.928 629.115 804.853 631.316 802.26 632.636C791.907 637.896 781.019 642.24 769.598 645.666" stroke="#20B9C5" stroke-width="2"/>
<path d="M769.643 642.883C771.576 642.868 773.006 643.198 774.861 642.569C785.497 638.964 796.122 634.249 806.737 628.423C807.012 628.271 807.254 628.065 807.449 627.819C807.644 627.572 807.788 627.289 807.873 626.987C807.958 626.684 807.982 626.367 807.943 626.055C807.905 625.743 807.805 625.442 807.649 625.169C806.47 623.095 806.8 620.218 806.218 618.033C803.85 609.137 800.607 600.602 796.489 592.429" stroke="#21D7D2" stroke-width="2"/>
<path d="M806.77 657.454C796.501 665.847 786.562 672.37 776.953 677.023C775.245 677.851 773.05 678.411 770.367 678.705C769.801 678.768 769.519 678.516 769.519 677.95L769.534 673.675" stroke="#017294" stroke-width="2"/>
<path d="M532.679 412.726L532.051 416.561" stroke="#80ABBF" stroke-width="2"/>
<path d="M532.05 416.561C523.479 432.404 511.507 444.764 496.135 453.639C491.503 456.301 488.428 458.135 486.908 459.141" stroke="#80DBDE" stroke-width="2"/>
<path d="M519.603 466.528C531.36 459.539 536.756 449.725 535.792 437.088C535.163 428.779 534.765 422.649 534.597 418.698C534.576 418.216 534.367 417.823 533.969 417.519C533.319 417.037 532.68 416.718 532.051 416.561" stroke="#01879E" stroke-width="2"/>
<path d="M504.543 493.013C503.836 501.799 504.606 508.322 504.952 516.118" stroke="#9FF2F1" stroke-width="2"/>
<path d="M504.953 516.118L505.142 524.197" stroke="#D4FDF6" stroke-width="2"/>
<path d="M514.572 493.075L516.113 493.169C516.637 493.201 516.904 493.479 516.914 494.003L517.653 524.621" stroke="#1FB1BE" stroke-width="2"/>
<path d="M507.531 524.401C506.525 521.488 506.315 518.549 506.902 515.584C506.975 515.238 506.965 514.897 506.871 514.562L506.556 513.32C506.315 512.377 506.195 512.393 506.195 513.367V518.114C506.195 518.418 506.053 518.612 505.77 518.696L505.362 518.821C505.226 518.863 505.152 518.816 505.142 518.68L504.953 516.118" stroke="#73F0E8" stroke-width="2"/>
<path d="M548.177 557.96L546.84 565.174C546.755 565.625 546.523 566.035 546.182 566.339C545.841 566.644 545.409 566.826 544.954 566.856L540.616 567.139" stroke="#FFB9AC" stroke-width="2"/>
<path d="M540.617 567.139L537.3 568.616C536.818 568.836 536.316 568.946 535.792 568.946C508.851 569.418 491.724 569.544 484.41 569.323C475.566 569.041 471.175 573.028 471.238 581.285C471.322 592.99 471.39 604.694 471.442 616.399C471.442 617.342 471.945 618.018 471.977 619.055C471.977 619.296 471.646 619.521 470.986 619.731" stroke="#FFD980" stroke-width="2"/>
<path d="M532.806 619.746C532.46 619.484 531.931 619.332 531.218 619.29C530.391 619.248 530.349 619.044 531.093 618.677C536.353 616.068 539.853 613.653 541.592 611.431C544.788 607.345 546.365 603.986 546.323 601.356C546.166 590.961 546.24 580.242 546.543 569.197C546.585 567.709 545.857 566.986 544.359 567.028L540.618 567.138" stroke="#FF922C" stroke-width="2"/>
<path d="M537.977 652.646C538.888 654.731 538.778 657.455 537.646 660.819" stroke="#D4FDF6" stroke-width="2"/>
<path d="M537.646 660.819C537.804 661.186 537.526 661.516 536.813 661.809C536.499 661.945 536.111 662.013 535.65 662.013C518.308 662.213 500.961 662.438 483.608 662.689C477.399 662.784 471.505 664.277 471.489 671.318C471.458 684.532 471.484 697.756 471.568 710.991C471.579 711.483 471.689 712.269 471.898 713.348" stroke="#82E4E0" stroke-width="2"/>
<path d="M471.898 713.348L471.411 715.219" stroke="#D4FDF6" stroke-width="2"/>
<path d="M570.01 659.953L569.995 661.524C569.995 662.059 569.733 662.321 569.209 662.31L548.713 661.87C548.473 661.866 548.236 661.909 548.013 661.998C547.791 662.086 547.589 662.218 547.419 662.385C547.249 662.552 547.115 662.751 547.024 662.97C546.933 663.19 546.887 663.425 546.889 663.662C546.91 671.993 546.633 680.465 546.056 689.078C545.522 697.016 543.95 702.155 538.433 707.264C535.572 709.915 532.853 712.063 530.275 713.708" stroke="#0290A0" stroke-width="2"/>
<path d="M530.274 713.71L471.897 713.348" stroke="#56E2D7" stroke-width="2"/>
<path d="M545.332 653.023C546.715 654.144 546.778 656.434 545.521 659.892" stroke="#73F0E8" stroke-width="2"/>
<path d="M545.521 659.891C543.949 661.195 540.193 659.718 537.646 660.818" stroke="#56E2D7" stroke-width="2"/>
<path d="M570.418 659.167C570.219 659.387 570.083 659.649 570.01 659.953" stroke="#1F9EB1" stroke-width="2"/>
<path d="M570.009 659.954L569.412 660.269C568.993 660.489 568.731 660.368 568.626 659.907C568.532 659.509 568.348 659.179 568.076 658.917C567.877 658.718 567.578 658.597 567.18 658.555C562.643 658.115 558.111 658.121 553.584 658.571C553.112 658.613 552.683 658.498 552.295 658.225C551.279 657.513 549.759 657.167 547.737 657.188C547.552 657.193 547.371 657.236 547.205 657.316C547.039 657.395 546.891 657.508 546.772 657.648C546.654 657.788 546.566 657.95 546.515 658.126C546.465 658.301 546.453 658.485 546.479 658.665C546.626 659.619 546.306 660.028 545.521 659.891" stroke="#21D7D2" stroke-width="2"/>
<path d="M528.311 715.454C528.51 714.993 529.165 714.411 530.275 713.709" stroke="#54A9B6" stroke-width="2"/>
<path d="M527.35 753.303C527.014 754.739 526.239 755.247 525.023 754.828C523.892 754.44 522.655 754.063 521.314 753.696C520.706 753.539 520.413 753.775 520.434 754.404C520.795 766.176 509.855 773.517 498.963 773.218" stroke="#80ABBF" stroke-width="2"/>
<path d="M627.882 274.769C628.196 275.796 628.013 276.409 627.332 276.608C624.513 275.529 621.527 274.758 618.373 274.297C603.975 272.223 589.561 270.693 575.132 269.708C557.926 266.941 540.773 266.009 523.672 266.91C485.802 265.946 448.456 272.642 411.634 286.998C372.984 302.055 340.683 325.632 313.585 357.037C301.535 371.005 292.02 384.727 285.041 398.202C278.89 404.919 274.044 412.595 270.502 421.229C266.007 432.169 260.71 442.516 254.611 452.272C253.469 454.567 252.364 454.887 251.295 453.231C253.894 439.734 256.393 429.381 258.792 422.172C282.448 350.765 342.931 290.738 413.583 265.684C476.816 243.254 542.329 242.72 606.16 265.071C612.363 267.24 619.604 270.473 627.882 274.769Z" fill="white"/>
<path d="M575.132 269.708C571.485 268.827 569.787 271.201 567.178 272.867C553.566 270.373 544.833 269.053 540.976 268.906C537.676 268.78 535.129 268.104 532.064 268.199C529.319 268.293 526.521 267.863 523.671 266.91C540.772 266.009 557.926 266.941 575.132 269.708Z" fill="#3EE5E2"/>
<path d="M575.131 269.708C589.56 270.693 603.974 272.223 618.371 274.298C621.525 274.759 624.512 275.529 627.33 276.608C663.403 295.187 696.521 317.616 722.047 349.65C728.366 357.587 734.826 365.132 739.918 373.84C748.752 388.944 755.746 402.682 761.546 419.265C762.626 423.047 763.396 426.778 763.857 430.456C764.077 432.185 763.48 433.348 762.631 434.762C762.264 435.36 761.772 435.496 761.153 435.171L760.713 434.935C759.99 434.548 759.55 434.757 759.393 435.564L758.968 437.859C753.237 421.9 746.64 407.382 739.18 394.304C726.039 371.293 711.17 350.938 691.004 333.303C669.313 314.347 647.292 300.437 623.857 289.387C614.594 285.017 604.534 281.994 593.678 280.318L567.178 272.867C569.787 271.201 571.484 268.828 575.131 269.708Z" fill="#04C8C1"/>
<path d="M627.88 274.769C711.201 315.966 771.118 387.467 775.676 483.095L775.173 488.879C775.163 489.026 775.09 489.089 774.953 489.068L774.529 489.021C774.36 489.001 774.205 488.918 774.096 488.789C773.988 488.66 773.934 488.495 773.947 488.329C774.576 478.128 773.507 470.411 772.47 461.86C771.825 456.485 770.285 451.471 769.578 446.189C768.305 436.837 765.02 427.972 761.546 419.264C755.746 402.682 748.751 388.944 739.918 373.839C734.825 365.132 728.365 357.587 722.047 349.65C696.521 317.616 663.403 295.187 627.33 276.608C628.011 276.409 628.195 275.796 627.88 274.769Z" fill="#3EE5E2"/>
<path d="M758.969 437.859C760.048 441.569 761.19 445.262 762.395 448.94C763.574 452.508 764.046 457.318 766.011 461.389C766.073 461.514 766.11 461.647 766.121 461.782L769.201 488.487C769.233 488.696 769.154 488.853 768.966 488.958L768.541 489.21C767.892 489.577 767.944 489.786 768.698 489.838L776.793 490.373C774.299 493.475 771.019 494.046 766.954 492.086C766.472 491.856 766.231 491.473 766.231 490.939C766.346 478.469 764.868 466.55 761.798 455.18C761.279 453.263 761.311 451.314 760.839 449.711C753.567 425.557 742.397 401.671 727.329 378.052C714.105 357.305 696.799 338.852 675.412 322.694C653.36 306.033 630.946 292.987 605.876 284.829C601.862 283.519 597.797 282.015 593.679 280.318C604.535 281.994 614.594 285.018 623.857 289.387C647.293 300.437 669.314 314.347 691.004 333.303C711.171 350.939 726.04 371.294 739.18 394.305C746.641 407.382 753.237 421.9 758.969 437.859Z" fill="#3EE5E2"/>
<path d="M285.041 398.203C279.681 409.441 274.149 420.145 270.188 431.823C267.201 440.594 263.791 449.93 261.999 458.402C259.861 468.451 258.839 478.642 258.934 488.974C258.944 490.095 258.661 490.771 258.085 491.002C257.467 490.163 256.723 490.064 255.853 490.703C255.464 490.979 254.997 491.127 254.517 491.127H251.326C251.015 491.128 250.706 491.065 250.42 490.943C250.133 490.821 249.874 490.642 249.658 490.418C249.442 490.193 249.274 489.927 249.164 489.636C249.053 489.344 249.003 489.034 249.016 488.722C249.508 476.305 251.373 464.155 254.611 452.273C260.71 442.517 266.007 432.169 270.502 421.23C274.044 412.595 278.89 404.919 285.041 398.203Z" fill="#01B6BC"/>
<path d="M532.678 412.725L532.05 416.561C523.478 432.404 511.506 444.764 496.134 453.639C491.502 456.301 488.427 458.135 486.907 459.141C472.085 438.833 480.322 408.937 506.869 405.102C515.933 403.792 524.536 406.333 532.678 412.725Z" fill="white"/>
<path d="M532.677 412.725C537.581 416.036 541.207 421.082 543.554 427.862C549.464 444.947 537.581 464.673 519.6 466.528C531.357 459.538 536.753 449.725 535.789 437.088C535.16 428.778 534.762 422.648 534.595 418.698C534.574 418.216 534.364 417.823 533.966 417.519C533.316 417.037 532.677 416.717 532.048 416.56L532.677 412.725Z" fill="#00577F"/>
<path d="M532.049 416.561C532.678 416.718 533.317 417.037 533.967 417.519C534.365 417.823 534.575 418.216 534.596 418.698C534.763 422.649 535.161 428.779 535.79 437.088C536.754 449.725 531.358 459.539 519.601 466.528C515.032 468.372 510.5 468.896 506.005 468.1C499.33 466.905 492.964 463.919 486.907 459.141C488.427 458.135 491.502 456.301 496.134 453.639C511.506 444.764 523.478 432.404 532.049 416.561Z" fill="#01B6BC"/>
<path d="M761.547 419.264C765.02 427.972 768.305 436.837 769.578 446.189C770.286 451.47 771.826 456.484 772.471 461.86C773.508 470.41 774.577 478.128 773.948 488.329C773.935 488.495 773.989 488.659 774.097 488.788C774.205 488.917 774.36 489 774.53 489.021L774.954 489.068C775.09 489.089 775.164 489.026 775.174 488.879L775.677 483.095C775.625 485.568 775.997 487.994 776.793 490.372L768.698 489.838C767.944 489.785 767.891 489.576 768.541 489.209L768.965 488.958C769.154 488.853 769.233 488.696 769.201 488.486L766.12 461.781C766.11 461.646 766.073 461.513 766.01 461.388C764.046 457.317 763.574 452.508 762.395 448.94C761.19 445.262 760.048 441.568 758.969 437.858L759.393 435.564C759.55 434.757 759.99 434.547 760.713 434.935L761.154 435.171C761.772 435.496 762.264 435.359 762.631 434.762C763.48 433.347 764.077 432.184 763.857 430.455C763.396 426.777 762.626 423.047 761.547 419.264Z" fill="#01B6BC"/>
<path d="M254.611 452.272C251.373 464.155 249.508 476.305 249.016 488.722C249.003 489.033 249.053 489.344 249.164 489.635C249.274 489.926 249.442 490.192 249.658 490.417C249.874 490.642 250.133 490.82 250.42 490.942C250.706 491.064 251.015 491.127 251.326 491.127H254.517C254.997 491.126 255.464 490.978 255.853 490.702C256.723 490.063 257.467 490.163 258.085 491.001C258.211 491.127 258.247 491.294 258.195 491.504C258.101 491.881 257.86 492.075 257.472 492.086L248.859 492.227C248.611 492.231 248.366 492.182 248.139 492.084C247.912 491.985 247.709 491.84 247.543 491.657C247.376 491.474 247.25 491.258 247.174 491.023C247.097 490.788 247.071 490.54 247.098 490.294L251.295 453.231C252.364 454.886 253.469 454.567 254.611 452.272Z" fill="#A8FBED"/>
<path d="M504.541 493.012C503.834 501.798 504.604 508.321 504.95 516.117L505.138 524.196C503.975 524.647 502.854 524.778 501.775 524.589C501.535 524.552 501.318 524.428 501.162 524.24C501.006 524.052 500.922 523.814 500.926 523.568L501.114 492.965C501.125 492.472 501.361 492.142 501.822 491.975C502.692 491.66 503.598 492.006 504.541 493.012Z" fill="white"/>
<path d="M504.542 493.013L514.57 493.076L516.11 493.17C516.634 493.201 516.902 493.479 516.912 494.003L517.651 524.622L507.528 524.401C506.522 521.488 506.313 518.549 506.9 515.584C506.973 515.238 506.963 514.897 506.868 514.562L506.554 513.32C506.313 512.377 506.192 512.393 506.192 513.367V518.114C506.192 518.418 506.051 518.612 505.768 518.696L505.359 518.822C505.223 518.863 505.15 518.816 505.139 518.68L504.951 516.118C504.605 508.322 503.835 501.799 504.542 493.013Z" fill="#3EE5E2"/>
<path d="M514.571 493.075L520.214 493.342C520.916 493.374 521.262 493.741 521.251 494.443L520.921 522.751C520.911 523.264 520.717 523.689 520.34 524.024C519.659 524.653 518.763 524.852 517.652 524.621L516.913 494.003C516.903 493.479 516.636 493.201 516.112 493.169L514.571 493.075Z" fill="#007C9A"/>
<path d="M507.529 524.401C506.764 524.6 505.968 524.532 505.14 524.197L504.951 516.118L505.14 518.68C505.15 518.816 505.224 518.863 505.36 518.821L505.768 518.696C506.051 518.612 506.193 518.418 506.193 518.114V513.367C506.193 512.393 506.313 512.377 506.554 513.32L506.869 514.562C506.963 514.897 506.974 515.238 506.9 515.584C506.313 518.549 506.523 521.488 507.529 524.401Z" fill="#A8FBED"/>
<path d="M300.476 517.218L299.628 515.175C299.722 514.546 299.633 514.122 299.36 513.902C299.717 513.692 300.057 513.912 300.382 514.562C300.822 515.442 300.853 516.328 300.476 517.218Z" fill="#FF7258"/>
<path d="M299.361 513.902C299.633 514.122 299.722 514.546 299.628 515.175C291.224 518.801 287.027 525.79 287.038 536.143C287.069 602.672 287.106 669.206 287.148 735.745C287.148 738.176 286.561 739.78 285.387 740.555C285.157 740.702 285.015 740.911 284.963 741.184C284.931 741.351 284.858 741.493 284.743 741.608C284.533 741.818 284.177 741.844 283.674 741.687C279.147 737.307 276.894 731.921 276.915 725.529C277.083 662.395 277.214 599.261 277.308 536.127C277.324 526.649 290.81 517.203 299.361 513.902Z" fill="white"/>
<path d="M735.534 518.822L735.22 560.223L734.544 655.223C734.45 655.715 734.308 656.124 734.12 656.449C733.931 656.774 733.585 656.999 733.082 657.125C730.442 657.795 727.628 658.644 724.642 659.671L724.705 514.861C724.704 514.769 724.723 514.679 724.76 514.595C724.798 514.511 724.854 514.436 724.924 514.375C724.994 514.314 725.076 514.269 725.166 514.241C725.255 514.214 725.35 514.206 725.443 514.217C729.394 514.678 732.757 516.213 735.534 518.822Z" fill="white"/>
<path d="M299.628 515.176L300.476 517.219L300.586 660.756C299.769 685.779 299.806 710.791 300.696 735.793L300.822 752.313C300.833 753.937 300.11 754.393 298.653 753.68C292.209 750.505 287.216 746.508 283.674 741.688C284.177 741.845 284.533 741.818 284.743 741.609C284.858 741.494 284.931 741.352 284.963 741.185C285.015 740.912 285.157 740.703 285.387 740.556C286.561 739.78 287.148 738.177 287.148 735.746C287.106 669.207 287.069 602.673 287.037 536.144C287.027 525.791 291.224 518.801 299.628 515.176Z" fill="#FFB200"/>
<path d="M735.535 518.821C739.821 522.111 742.875 526.051 744.699 530.641C747.921 538.767 746.475 553.227 746.443 562.925C745.93 559.331 745.275 555.774 744.479 552.253C743.74 548.952 743.944 545.919 743.944 542.618C743.944 542.607 743.939 542.602 743.928 542.602C743.928 542.602 743.928 542.607 743.928 542.618C743.939 545.447 743.944 548.255 743.944 551.043C743.955 555.789 741.817 558.069 737.531 557.88C737.028 557.859 736.641 558.058 736.368 558.477L735.221 560.222L735.535 518.821Z" fill="#04C8C1"/>
<path d="M690.391 541.786C688.662 542.876 687.012 543.96 685.44 545.039C682.537 547.041 677.497 552.338 670.319 560.93C672.897 547.769 679.08 537.291 688.867 529.494C688.989 529.402 689.134 529.345 689.287 529.329C689.44 529.314 689.593 529.341 689.732 529.408C689.87 529.475 689.987 529.578 690.07 529.707C690.153 529.836 690.199 529.985 690.203 530.139L690.391 541.786Z" fill="white"/>
<path d="M336.329 719.855C339.054 717.77 341.511 716.512 343.701 716.083C344.272 715.973 344.786 715.667 345.156 715.216C345.526 714.766 345.729 714.2 345.729 713.615C345.655 696.189 345.55 678.81 345.414 661.478C345.383 656.716 344.675 651.042 344.723 645.76C344.764 639.913 344.754 635.989 344.691 633.988C344.33 622.215 345.43 608.949 345.446 598.874C345.461 584.319 346.137 569.858 344.502 555.335C344.419 554.633 343.627 553.339 342.129 551.452C339.949 548.718 338.362 547.785 337.367 548.655L337.524 532.497C337.545 530.443 338.105 530.286 339.206 532.025C341.217 535.232 344.125 537.746 345.996 540.827C349.014 545.804 351.56 551.012 353.635 556.451C356.338 563.571 355.442 571.021 355.521 578.566C355.783 601.671 355.835 624.777 355.678 647.882C355.678 647.956 355.447 650.182 354.986 654.562C354.609 658.115 355.804 661.211 355.819 664.323C355.914 680.272 356.034 696.22 356.181 712.169C356.191 712.735 355.945 713.887 355.442 715.627C352.204 726.881 346.514 737.05 338.372 746.135C338.239 746.279 338.065 746.379 337.874 746.423C337.684 746.468 337.484 746.455 337.3 746.386C337.117 746.317 336.958 746.195 336.844 746.036C336.73 745.876 336.665 745.687 336.659 745.491L336.329 719.855Z" fill="#00577F"/>
<path d="M690.392 541.786L690.502 700.05L690.062 714.385C690.054 714.669 689.936 714.938 689.734 715.138C689.532 715.337 689.261 715.45 688.977 715.454L669.88 715.941L670.32 560.931C677.498 552.338 682.538 547.041 685.441 545.04C687.012 543.96 688.663 542.876 690.392 541.786Z" fill="#FFB200"/>
<path d="M746.443 562.927L746.349 640.558L745.139 652.519C745.107 652.844 744.929 653.012 744.604 653.022C744.416 653.033 744.232 653.033 744.054 653.022C743.719 653.012 743.41 653.106 743.127 653.305C740.696 654.992 737.793 656.213 734.419 656.968C735.048 656.318 735.09 655.736 734.545 655.223L735.221 560.223L736.368 558.479C736.64 558.059 737.028 557.86 737.531 557.881C741.817 558.07 743.955 555.791 743.944 551.044C743.944 548.257 743.939 545.448 743.928 542.619C743.928 542.609 743.928 542.604 743.928 542.604C743.939 542.604 743.944 542.609 743.944 542.619C743.944 545.92 743.74 548.954 744.478 552.254C745.275 555.775 745.93 559.333 746.443 562.927Z" fill="#01B6BC"/>
<path d="M336.329 719.855L337.367 548.655C338.362 547.785 339.949 548.718 342.129 551.452C343.627 553.339 344.419 554.633 344.502 555.335C346.137 569.858 345.461 584.319 345.446 598.874C345.43 608.949 344.33 622.215 344.691 633.988C344.754 635.989 344.764 639.913 344.723 645.76C344.675 651.042 345.383 656.716 345.414 661.478C345.55 678.81 345.655 696.189 345.729 713.615C345.729 714.199 345.526 714.766 345.156 715.216C344.786 715.667 344.272 715.973 343.701 716.083C341.511 716.512 339.054 717.77 336.329 719.855Z" fill="#018DA8"/>
<path d="M548.175 557.96L546.839 565.174C546.753 565.625 546.522 566.035 546.18 566.339C545.839 566.644 545.407 566.826 544.953 566.856L540.615 567.139L537.298 568.617C536.816 568.837 536.313 568.947 535.789 568.947C508.849 569.418 491.721 569.544 484.407 569.324C475.563 569.041 471.173 573.028 471.235 581.285C471.319 592.99 471.387 604.695 471.44 616.399C471.44 617.342 471.943 618.018 471.974 619.056C471.974 619.297 471.644 619.522 470.984 619.732L455.958 619.779C455.773 619.781 455.589 619.746 455.417 619.676C455.246 619.605 455.09 619.502 454.958 619.37C454.827 619.238 454.722 619.082 454.651 618.909C454.58 618.736 454.543 618.551 454.543 618.364L454.637 560.129C454.637 559.619 454.839 559.13 455.198 558.767C455.557 558.405 456.045 558.2 456.555 558.196L548.175 557.96Z" fill="white"/>
<path d="M548.175 557.96L568.797 557.85C569.085 557.85 569.371 557.907 569.637 558.017C569.903 558.128 570.145 558.291 570.348 558.495C570.551 558.7 570.711 558.942 570.82 559.209C570.929 559.476 570.984 559.762 570.982 560.05L570.573 618.898C570.573 619.102 570.492 619.298 570.348 619.443C570.203 619.587 570.007 619.668 569.803 619.668L532.803 619.747C532.457 619.485 531.928 619.333 531.215 619.291C530.388 619.249 530.346 619.045 531.09 618.678C536.35 616.069 539.85 613.654 541.589 611.432C544.785 607.345 546.362 603.987 546.321 601.357C546.163 590.962 546.237 580.242 546.54 569.198C546.582 567.71 545.854 566.987 544.356 567.029L540.615 567.139L544.953 566.856C545.408 566.825 545.839 566.643 546.181 566.339C546.522 566.035 546.753 565.625 546.839 565.174L548.175 557.96Z" fill="#FF7258"/>
<path d="M256.921 605.222C249.628 613.794 240.454 620.448 229.399 625.184C225.459 626.882 220.052 628.574 213.178 630.261C215.677 602.503 230.263 572.608 255.585 559.043C255.685 558.992 255.798 558.966 255.91 558.969C256.023 558.973 256.133 559.004 256.229 559.061C256.326 559.118 256.405 559.198 256.46 559.294C256.515 559.39 256.544 559.498 256.544 559.609L256.921 605.222Z" fill="white"/>
<path d="M797.401 591.234C797.474 592.009 797.17 592.407 796.489 592.428C795.923 592.135 795.237 592.135 794.43 592.428C788.153 594.734 779.901 597.521 769.674 600.79L769.47 561.574C769.471 561.418 769.516 561.265 769.598 561.132C769.681 561 769.799 560.892 769.939 560.823C770.079 560.753 770.235 560.723 770.391 560.736C770.547 560.749 770.696 560.805 770.821 560.898C781.939 569.239 790.799 579.351 797.401 591.234Z" fill="white"/>
<path d="M540.615 567.138L544.356 567.028C545.854 566.986 546.583 567.709 546.541 569.197C546.237 580.242 546.164 590.961 546.321 601.356C546.363 603.986 544.786 607.345 541.59 611.431C539.85 613.653 536.35 616.068 531.09 618.677C530.346 619.044 530.388 619.248 531.216 619.29C531.928 619.332 532.457 619.484 532.803 619.746L470.984 619.731C471.645 619.521 471.975 619.296 471.975 619.055C471.943 618.017 471.44 617.341 471.44 616.398C471.388 604.694 471.32 592.989 471.236 581.284C471.173 573.027 475.564 569.04 484.408 569.323C491.722 569.543 508.849 569.417 535.79 568.946C536.314 568.946 536.817 568.836 537.299 568.616L540.615 567.138Z" fill="#FFB200"/>
<path d="M797.4 591.234C803.624 602.363 807.747 614.523 809.77 627.716C806.925 629.115 804.85 631.315 802.257 632.636C791.904 637.896 781.016 642.239 769.595 645.666L769.642 642.884C771.575 642.868 773.005 643.198 774.86 642.569C785.496 638.965 796.121 634.249 806.736 628.423C807.011 628.271 807.253 628.066 807.448 627.819C807.643 627.572 807.788 627.29 807.872 626.987C807.957 626.684 807.981 626.368 807.943 626.056C807.904 625.744 807.804 625.443 807.648 625.17C806.469 623.095 806.799 620.218 806.218 618.034C803.849 609.137 800.606 600.602 796.488 592.429C797.169 592.408 797.473 592.01 797.4 591.234Z" fill="#3EE5E2"/>
<path d="M796.488 592.429C800.606 600.602 803.849 609.137 806.217 618.034C806.799 620.218 806.469 623.095 807.648 625.17C807.804 625.443 807.904 625.744 807.942 626.056C807.981 626.368 807.957 626.684 807.872 626.987C807.787 627.29 807.643 627.572 807.448 627.819C807.253 628.066 807.011 628.271 806.736 628.423C796.121 634.249 785.496 638.965 774.86 642.569C773.005 643.198 771.575 642.868 769.642 642.884L769.673 600.791C779.9 597.522 788.152 594.734 794.429 592.429C795.236 592.136 795.922 592.136 796.488 592.429Z" fill="#04C8C1"/>
<path d="M256.921 605.224L256.952 638.247C247.668 642.114 239.526 643.513 232.527 642.444C225.401 641.364 219.638 638.011 215.237 632.384C214.692 631.682 214 631.169 213.162 630.844C213.529 630.959 213.534 630.765 213.178 630.262C220.052 628.575 225.459 626.883 229.399 625.185C240.454 620.449 249.628 613.795 256.921 605.224Z" fill="#3EE5E2"/>
<path d="M809.769 627.716C810.995 638.845 809.995 648.757 806.767 657.455C796.498 665.848 786.559 672.371 776.95 677.024C775.242 677.851 773.047 678.412 770.364 678.705C769.799 678.768 769.516 678.517 769.516 677.951L769.531 673.676L769.594 645.666C781.016 642.24 791.903 637.896 802.256 632.636C804.85 631.316 806.924 629.115 809.769 627.716Z" fill="#018DA8"/>
<path d="M213.162 630.844C214 631.169 214.692 631.682 215.237 632.384C219.638 638.011 225.401 641.364 232.527 642.444C239.526 643.512 247.668 642.113 256.952 638.247L256.921 678.453C252.007 677.919 246.882 676.075 241.549 672.921C231.332 666.896 222.671 660.242 215.567 652.959C214.938 649.973 213.885 647.348 213.744 644.314C213.545 639.861 213.351 635.371 213.162 630.844Z" fill="#01B6BC"/>
<path d="M746.348 640.558C746.453 667.561 746.474 694.538 746.411 721.489C746.379 732.476 743.189 740.461 734.78 747.566L734.402 669.824L734.418 656.967C737.792 656.213 740.695 654.992 743.126 653.305C743.409 653.106 743.718 653.011 744.053 653.022C744.231 653.032 744.415 653.032 744.603 653.022C744.928 653.011 745.106 652.844 745.138 652.519L746.348 640.558Z" fill="#007C9A"/>
<path d="M537.975 652.646C538.886 654.731 538.776 657.455 537.645 660.819C537.802 661.186 537.524 661.516 536.811 661.809C536.497 661.945 536.109 662.013 535.648 662.013C518.306 662.213 500.959 662.438 483.606 662.689C477.398 662.784 471.503 664.277 471.488 671.318C471.456 684.532 471.482 697.756 471.566 710.991C471.577 711.483 471.687 712.269 471.896 713.348L471.409 715.219L456.398 715.077C455.319 715.067 454.785 714.522 454.795 713.443L455.062 653.636C455.062 653.402 455.155 653.178 455.32 653.013C455.485 652.848 455.709 652.756 455.943 652.756L537.975 652.646Z" fill="white"/>
<path d="M537.975 652.644C540.259 652.288 542.711 652.414 545.331 653.021C546.714 654.143 546.777 656.432 545.519 659.89C543.947 661.195 540.191 659.717 537.645 660.818C538.776 657.454 538.886 654.73 537.975 652.644Z" fill="#A8FBED"/>
<path d="M215.567 652.959C222.672 660.242 231.333 666.896 241.549 672.921C246.883 676.075 252.007 677.92 256.921 678.454L257.204 708.035C257.208 708.385 257.119 708.729 256.947 709.034C256.775 709.338 256.527 709.593 256.226 709.771C255.925 709.949 255.583 710.045 255.233 710.05C254.883 710.054 254.539 709.966 254.234 709.796C234.178 698.51 220.471 674.713 215.567 652.959Z" fill="#00577F"/>
<path d="M545.33 653.023L569.426 652.708C569.551 652.706 569.675 652.729 569.791 652.775C569.908 652.822 570.014 652.891 570.103 652.979C570.192 653.067 570.263 653.171 570.311 653.287C570.36 653.402 570.385 653.526 570.385 653.651L570.416 659.168C570.217 659.388 570.081 659.65 570.007 659.954L569.41 660.268C568.991 660.489 568.729 660.368 568.624 659.907C568.53 659.509 568.346 659.179 568.074 658.917C567.875 658.718 567.576 658.597 567.178 658.555C562.641 658.115 558.109 658.12 553.582 658.571C553.11 658.613 552.681 658.498 552.293 658.225C551.277 657.513 549.757 657.167 547.735 657.188C547.551 657.193 547.369 657.236 547.203 657.316C547.037 657.395 546.889 657.508 546.771 657.648C546.652 657.787 546.564 657.95 546.514 658.126C546.463 658.301 546.451 658.485 546.477 658.665C546.624 659.619 546.305 660.027 545.519 659.891C546.776 656.433 546.713 654.144 545.33 653.023Z" fill="#3EE5E2"/>
<path d="M734.545 655.223C735.089 655.736 735.048 656.318 734.419 656.967L734.403 669.825C733.418 668.337 731.82 668.043 729.609 668.944C729.138 669.133 728.682 669.086 728.242 668.803C727.676 668.415 727.037 668.258 726.324 668.331C725.915 668.384 725.669 668.206 725.585 667.797L725.035 664.936C724.993 664.758 724.962 664.816 724.941 665.109C724.93 665.204 724.936 665.303 724.957 665.408C725.04 665.942 724.904 666.346 724.548 666.618L724.642 659.671C727.629 658.644 730.442 657.795 733.083 657.124C733.586 656.999 733.932 656.773 734.12 656.449C734.309 656.124 734.45 655.715 734.545 655.223Z" fill="#04C8C1"/>
<path d="M570.008 659.954L569.992 661.526C569.992 662.06 569.73 662.322 569.206 662.312L548.71 661.872C548.471 661.868 548.233 661.911 548.011 661.999C547.789 662.088 547.587 662.219 547.417 662.386C547.247 662.553 547.112 662.752 547.021 662.972C546.93 663.191 546.884 663.426 546.887 663.664C546.908 671.994 546.63 680.466 546.054 689.08C545.519 697.017 543.947 702.157 538.43 707.265C535.57 709.916 532.85 712.065 530.273 713.71L471.896 713.348C471.687 712.269 471.577 711.483 471.566 710.991C471.482 697.756 471.456 684.532 471.487 671.318C471.503 664.277 477.397 662.784 483.606 662.689C500.959 662.438 518.306 662.212 535.648 662.013C536.109 662.013 536.497 661.945 536.811 661.809C537.524 661.516 537.802 661.186 537.644 660.819C540.191 659.719 543.947 661.196 545.519 659.891C546.305 660.028 546.625 659.619 546.478 658.665C546.451 658.485 546.464 658.301 546.514 658.126C546.565 657.95 546.652 657.788 546.771 657.648C546.89 657.508 547.037 657.395 547.204 657.316C547.37 657.236 547.551 657.193 547.735 657.188C549.758 657.167 551.277 657.513 552.294 658.225C552.681 658.498 553.111 658.613 553.583 658.571C558.109 658.121 562.641 658.115 567.179 658.555C567.577 658.597 567.875 658.718 568.074 658.917C568.347 659.179 568.53 659.509 568.625 659.907C568.729 660.368 568.991 660.489 569.411 660.269L570.008 659.954Z" fill="#04C8C1"/>
<path d="M806.768 657.454C801.565 677.825 789.383 698.902 771.135 709.103C770.945 709.208 770.731 709.26 770.514 709.256C770.298 709.252 770.086 709.192 769.9 709.08C769.714 708.969 769.561 708.811 769.455 708.622C769.349 708.433 769.294 708.22 769.296 708.003L769.532 673.675L769.516 677.95C769.516 678.516 769.799 678.768 770.365 678.705C773.047 678.411 775.243 677.851 776.951 677.023C786.56 672.37 796.498 665.848 806.768 657.454Z" fill="#00577F"/>
<path d="M570.415 659.167L569.912 710.785C569.9 712.042 569.39 713.244 568.495 714.128C567.6 715.011 566.392 715.504 565.134 715.5L528.307 715.453C528.506 714.992 529.161 714.41 530.271 713.708C532.849 712.063 535.568 709.915 538.429 707.264C543.946 702.156 545.518 697.016 546.052 689.078C546.629 680.465 546.906 671.993 546.885 663.662C546.883 663.425 546.929 663.19 547.02 662.97C547.111 662.751 547.245 662.552 547.415 662.385C547.585 662.218 547.787 662.086 548.009 661.998C548.232 661.91 548.469 661.866 548.709 661.87L569.205 662.311C569.729 662.321 569.991 662.059 569.991 661.525L570.006 659.953C570.08 659.649 570.216 659.387 570.415 659.167Z" fill="#00577F"/>
<path d="M300.586 660.755L300.696 735.793C299.805 710.791 299.768 685.778 300.586 660.755Z" fill="#FF7258"/>
<path d="M734.403 669.825L734.78 747.566L726.198 753.618C726.045 753.728 725.865 753.794 725.677 753.808C725.489 753.822 725.301 753.784 725.134 753.697C724.966 753.611 724.826 753.48 724.728 753.319C724.63 753.158 724.579 752.973 724.579 752.785L724.548 666.619C724.904 666.346 725.04 665.943 724.957 665.408C724.936 665.304 724.93 665.204 724.941 665.11C724.962 664.816 724.993 664.759 725.035 664.937L725.585 667.798C725.669 668.206 725.915 668.384 726.324 668.332C727.037 668.259 727.676 668.416 728.242 668.803C728.682 669.086 729.138 669.134 729.609 668.945C731.82 668.044 733.418 668.337 734.403 669.825Z" fill="#3EE5E2"/>
<path d="M690.502 700.051L690.219 747.079C690.221 747.177 690.196 747.273 690.146 747.357C690.096 747.441 690.023 747.509 689.936 747.553C689.849 747.597 689.751 747.616 689.654 747.608C689.556 747.599 689.464 747.563 689.386 747.503C678.96 739.749 672.458 729.229 669.88 715.942L688.977 715.454C689.261 715.451 689.532 715.337 689.734 715.138C689.936 714.939 690.054 714.669 690.062 714.386L690.502 700.051Z" fill="#FF7258"/>
<path d="M471.897 713.348L530.274 713.71C529.163 714.412 528.508 714.993 528.309 715.454L471.41 715.219L471.897 713.348Z" fill="#A8FBED"/>
<path d="M527.349 753.303C527.013 754.738 526.238 755.246 525.022 754.827C523.891 754.44 522.654 754.062 521.313 753.696C520.705 753.538 520.412 753.774 520.433 754.403C520.794 766.176 509.854 773.516 498.962 773.217C493.765 766.794 492.869 760.617 496.274 754.686C499.145 749.677 503.504 746.518 509.351 745.208C516.466 743.605 522.466 746.303 527.349 753.303Z" fill="white"/>
<path d="M527.349 753.303C533.762 758.569 531.608 768.392 526.657 773.642C519.301 781.438 506.255 781.784 498.962 773.218C509.854 773.517 520.794 766.176 520.433 754.404C520.412 753.775 520.705 753.539 521.313 753.696C522.654 754.063 523.891 754.44 525.022 754.828C526.238 755.247 527.013 754.739 527.349 753.303Z" fill="#00577F"/>
</svg>
