<svg width="512" height="512" viewBox="0 0 512 512" fill="none" xmlns="http://www.w3.org/2000/svg">
<rect width="512" height="512" fill="white"/>
<path d="M350.661 256.847C341.419 257.231 332.203 257.423 323.011 257.423C269.144 257.423 215.241 257.624 161.375 257.094" stroke="#80390F" stroke-width="2"/>
<path d="M315.267 269.476C311.036 267.37 307.563 267.206 304.848 268.983" stroke="#FF860A" stroke-width="2"/>
<path d="M304.847 268.983C290.103 268.849 275.459 268.849 260.916 268.983C260.325 268.989 259.948 269.227 259.784 269.695" stroke="#FFB889" stroke-width="2"/>
<path d="M259.784 269.695C257.032 270.219 254.299 270.283 251.584 269.887C251.298 269.844 251.027 269.896 250.771 270.042C250.321 270.298 249.849 270.411 249.356 270.38C249.057 270.356 248.86 270.204 248.762 269.924L248.424 268.947" stroke="#FF860A" stroke-width="2"/>
<path d="M248.424 268.947L203.79 268.618" stroke="#FFB889" stroke-width="2"/>
<path d="M203.79 268.618C201.848 268.009 199.647 267.683 197.188 267.641C195.59 267.622 194.494 268.435 193.115 269.093" stroke="#FF860A" stroke-width="2"/>
<path d="M333.548 290.04C333.633 290.022 333.706 289.988 333.767 289.94C333.786 289.925 333.802 289.907 333.812 289.885C333.823 289.864 333.828 289.84 333.828 289.816C333.828 289.793 333.823 289.769 333.812 289.748C333.802 289.726 333.786 289.708 333.767 289.693C333.262 289.31 332.796 289.121 332.37 289.127C324.417 289.237 315.815 288.333 308.619 288.424C296.739 288.57 284.467 289.008 273.016 289.008C252.695 289.014 232.378 289.072 212.064 289.182C207.565 289.206 203.075 288.978 198.595 288.497C195.691 288.187 191.582 288.798 188.24 288.817C184.337 288.841 180.384 289.112 176.378 289.629" stroke="#E76315" stroke-width="2"/>
<path d="M176.378 289.629C175.982 289.739 175.541 289.982 175.054 290.36" stroke="#804F02" stroke-width="2"/>
<path d="M203.79 268.618L203.726 278.708C203.72 279.055 203.891 279.229 204.238 279.229L247.694 279.219C247.871 279.219 248.04 279.149 248.165 279.024C248.29 278.899 248.361 278.73 248.361 278.553L248.425 268.947" stroke="#FFCE7F" stroke-width="2"/>
<path d="M259.784 269.695L260.03 278.818C260.036 279.067 260.164 279.192 260.414 279.192L303.889 279.32C304.026 279.32 304.162 279.293 304.289 279.24C304.416 279.187 304.531 279.109 304.628 279.012C304.725 278.914 304.801 278.798 304.853 278.671C304.905 278.544 304.931 278.407 304.929 278.27L304.847 268.983" stroke="#FFCE7F" stroke-width="2"/>
<path d="M182.651 290.214L182.533 299.674" stroke="#808081" stroke-width="2"/>
<path d="M182.532 299.674L182.487 309.052" stroke="#802726" stroke-width="2"/>
<path d="M182.486 309.052L182.432 346.062C182.432 346.119 182.443 346.175 182.465 346.228C182.487 346.281 182.52 346.328 182.561 346.368C182.601 346.408 182.65 346.44 182.703 346.461C182.756 346.482 182.813 346.492 182.87 346.491L193.545 346.281" stroke="#808081" stroke-width="2"/>
<path d="M193.544 346.281L202.603 346.208" stroke="#804F02" stroke-width="2"/>
<path d="M202.603 346.208L228.116 346.217C228.737 346.217 229.048 345.906 229.048 345.285V308.979" stroke="#808081" stroke-width="2"/>
<path d="M229.048 308.979C229.066 308.583 229.148 308.239 229.294 307.947C229.356 307.825 229.448 307.723 229.56 307.65C229.673 307.578 229.802 307.538 229.934 307.536C250.157 307.195 266.191 307.201 278.038 307.554C279.03 307.585 279.228 308.09 278.632 309.07" stroke="#802726" stroke-width="2"/>
<path d="M278.631 309.07L278.914 345.989C278.917 346.064 278.949 346.136 279.003 346.189C279.058 346.242 279.131 346.272 279.207 346.272L305.87 346.244" stroke="#808081" stroke-width="2"/>
<path d="M305.871 346.244L315.194 346.089" stroke="#804F02" stroke-width="2"/>
<path d="M315.194 346.089L325.175 346.217C325.251 346.218 325.328 346.204 325.399 346.176C325.47 346.148 325.535 346.106 325.59 346.052C325.646 345.999 325.69 345.935 325.72 345.864C325.751 345.794 325.767 345.718 325.768 345.642L326.006 308.833" stroke="#806563" stroke-width="2"/>
<path d="M326.005 308.833L325.95 299.363" stroke="#71132C" stroke-width="2"/>
<path d="M325.95 299.363L325.786 290.442" stroke="#806563" stroke-width="2"/>
<path d="M333.411 289.839L325.786 290.442" stroke="#681616" stroke-width="2"/>
<path d="M325.786 290.442L316.052 290.579" stroke="#E77A76" stroke-width="2"/>
<path d="M316.052 290.579L307.651 290.652C307.335 290.652 307.076 290.768 306.875 290.999C306.248 291.723 305.959 291.696 306.008 290.917" stroke="#E75C19" stroke-width="2"/>
<path d="M306.008 290.917L203.562 290.323" stroke="#E79594" stroke-width="2"/>
<path d="M203.562 290.323L193.444 290.816" stroke="#E73C39" stroke-width="2"/>
<path d="M193.445 290.816L182.651 290.214" stroke="#E79594" stroke-width="2"/>
<path d="M182.651 290.214C181.708 289.361 179.617 289.167 176.378 289.629" stroke="#681616" stroke-width="2"/>
<path d="M326.005 308.833L315.741 308.988" stroke="#F0778C" stroke-width="2"/>
<path d="M315.23 309.518C315.377 310.504 315.456 311.502 315.468 312.513C315.614 323.653 315.523 334.845 315.194 346.089" stroke="#FFB361" stroke-width="2"/>
<path d="M305.871 346.244L305.807 309.079" stroke="#FFCE7F" stroke-width="2"/>
<path d="M203.562 290.323C202.649 292.503 202.393 295.507 202.795 299.336C202.804 299.443 202.854 299.542 202.934 299.613C203.013 299.684 203.117 299.722 203.224 299.72L305.688 299.665" stroke="#FFA6A4" stroke-width="2"/>
<path d="M305.688 299.665C305.7 299.993 305.788 300.277 305.953 300.514C306.111 300.745 306.187 301.001 306.181 301.281L305.998 309.079" stroke="#FF5F2F" stroke-width="2"/>
<path d="M305.998 309.079L278.631 309.07" stroke="#FFA6A4" stroke-width="2"/>
<path d="M229.048 308.979L202.576 309.225" stroke="#FFA6A4" stroke-width="2"/>
<path d="M202.576 309.225L193.59 309.134" stroke="#FF7525" stroke-width="2"/>
<path d="M193.591 309.134L182.487 309.052" stroke="#FFA6A4" stroke-width="2"/>
<path d="M182.533 299.674L192.879 299.546C192.975 299.545 193.071 299.525 193.16 299.486C193.248 299.448 193.329 299.392 193.396 299.323C193.463 299.253 193.516 299.171 193.551 299.08C193.586 298.99 193.602 298.894 193.6 298.797L193.445 290.816" stroke="#FFA6A4" stroke-width="2"/>
<path d="M325.95 299.363L315.668 299.528" stroke="#F0778C" stroke-width="2"/>
<path d="M315.669 299.528C315.121 299.577 315.014 299.382 315.349 298.943" stroke="#FF9D6B" stroke-width="2"/>
<path d="M193.59 309.134L193.544 346.281" stroke="#FFCE7F" stroke-width="2"/>
<path d="M202.576 309.225L202.603 346.208" stroke="#FFCE7F" stroke-width="2"/>
<path d="M316.052 290.579C315.187 292.965 314.953 295.753 315.348 298.943" stroke="#FFAC65" stroke-width="2"/>
<path d="M315.349 298.943C314.107 299.576 312.926 299.847 311.806 299.756C310.354 299.628 309.35 299.875 308.007 299.847C307.685 299.841 307.417 299.713 307.204 299.464C306.485 298.642 306.09 298.481 306.017 298.98" stroke="#FF7F0E" stroke-width="2"/>
<path d="M306.007 290.917L306.016 298.98" stroke="#FFC783" stroke-width="2"/>
<path d="M306.017 298.98C305.956 299.229 305.846 299.458 305.688 299.665" stroke="#FFB889" stroke-width="2"/>
<path d="M315.668 299.528C315.157 300.459 315.659 301.555 315.568 302.532C315.373 304.559 315.322 306.592 315.413 308.632C315.425 308.833 315.535 308.951 315.742 308.988" stroke="#F04B35" stroke-width="2"/>
<path d="M315.741 308.988L315.23 309.518" stroke="#FF9D6B" stroke-width="2"/>
<path d="M315.23 309.518C315.108 309.548 315.017 309.472 314.956 309.289C314.908 309.125 314.798 309.043 314.628 309.043L305.807 309.079" stroke="#FF860A" stroke-width="2"/>
<path d="M305.807 309.079C305.868 309.079 305.931 309.079 305.998 309.079" stroke="#FFB889" stroke-width="2"/>
<path d="M350.66 256.848C341.419 257.231 332.202 257.423 323.01 257.423C269.144 257.423 215.241 257.624 161.375 257.094C159.25 256.65 156.818 256.543 154.079 256.774C152.374 256.921 150.94 256.096 149.778 254.3C149.485 253.855 149.072 253.627 148.536 253.615C142.071 253.46 134.199 252.72 127.981 250.401C119.123 247.095 112.101 239.169 107.581 231.124C106.139 228.558 104.76 223.837 107.901 222.376C108.601 222.054 109.879 221.868 111.736 221.819C118.627 221.649 124.143 221.128 128.282 220.258C143.468 217.089 156.078 214.076 170.059 208.844C190.54 201.191 208.073 186.609 217.642 166.757C220.738 160.328 226.345 162.483 232.098 162.365C232.432 162.352 232.6 162.179 232.6 161.844C232.612 159.208 232.655 156.624 232.728 154.091C232.828 150.311 236.563 149.453 239.512 149.462C239.847 149.462 240.036 149.297 240.078 148.969C240.544 144.796 243.494 143.189 246.836 141.307C246.901 141.269 246.956 141.216 246.995 141.151C247.035 141.087 247.057 141.014 247.061 140.939C247.065 140.864 247.049 140.79 247.016 140.724C246.983 140.657 246.934 140.6 246.872 140.559C238.353 134.669 234.965 124.57 241.357 115.548C250.57 102.517 271.025 110.48 270.24 125.894C269.929 131.856 266.596 136.97 261.674 140.266C261.619 140.305 261.573 140.356 261.54 140.415C261.508 140.475 261.49 140.541 261.488 140.609C261.487 140.677 261.501 140.744 261.53 140.805C261.559 140.866 261.602 140.919 261.656 140.96C264.359 143.061 267.838 145.298 269.034 148.686C269.081 148.821 269.163 148.94 269.272 149.032C269.382 149.124 269.514 149.184 269.655 149.206C272.924 149.727 276.604 150.055 276.376 154.064C276.218 156.779 276.254 159.415 276.485 161.972C276.497 162.112 276.562 162.243 276.668 162.336C276.773 162.43 276.911 162.479 277.052 162.474C280.522 162.407 283.97 162.313 287.398 162.191C289.196 162.127 290.228 163.442 290.95 165.095C296.721 178.299 305.475 188.858 317.212 196.772C317.668 197.076 318.131 197.085 318.6 196.799C323.503 193.758 330.827 187.85 332.416 182.335C332.513 181.988 332.394 181.754 332.059 181.632C320.234 177.349 311.614 167.697 309.733 155.269C308.372 146.357 310.902 134.925 314.481 126.332C315.349 124.25 317.467 123.382 319.714 124.131C335.675 129.482 351.318 142.33 350.779 160.84C350.767 161.168 350.897 161.244 351.171 161.068C351.756 160.678 352.307 160.252 352.824 159.79C357.883 155.196 364.613 153.388 371.297 152.229C376.036 151.407 381.652 152.137 386.592 152.484C388.966 152.658 391.962 154.402 391.249 157.224C390.294 160.986 389.347 164.751 388.409 168.519C386.711 175.337 383.022 181.087 377.342 185.768C368.265 193.256 356.422 193.357 347.026 186.682C344.542 184.919 344.834 182.472 340.652 183.129C340.508 183.151 340.373 183.212 340.26 183.305C340.148 183.398 340.062 183.521 340.013 183.659C337.429 190.772 331.74 196.772 325.713 201.182C325.644 201.233 325.588 201.299 325.549 201.376C325.511 201.453 325.491 201.537 325.492 201.623C325.493 201.709 325.514 201.793 325.554 201.869C325.594 201.945 325.652 202.01 325.722 202.059C327.774 203.514 330.002 204.783 332.406 205.867C351.71 214.569 373.653 219.135 394.61 221.381C396.966 221.637 399.34 221.628 401.75 221.655C405.275 221.701 406.764 224.824 405.622 228.02C400.588 242.039 390.592 250.148 375.635 252.346C370.749 253.067 365.663 252.83 362.778 255.46C362.665 255.563 362.532 255.642 362.388 255.691C362.243 255.739 362.089 255.757 361.937 255.743C357.816 255.426 354.057 255.794 350.66 256.848Z" fill="#01010A"/>
<path d="M164.788 165.902C161.314 165.087 158.038 163.587 155.145 161.488C152.252 159.389 149.799 156.731 147.927 153.667C146.054 150.603 144.799 147.192 144.232 143.63C143.666 140.067 143.799 136.422 144.624 132.903C145.449 129.385 146.951 126.061 149.042 123.122C151.134 120.182 153.775 117.685 156.815 115.773C159.854 113.861 163.233 112.571 166.757 111.977C170.282 111.383 173.884 111.497 177.357 112.312C180.83 113.126 184.107 114.626 187 116.725C189.893 118.825 192.346 121.482 194.218 124.546C196.09 127.61 197.346 131.021 197.912 134.584C198.479 138.147 198.346 141.791 197.521 145.31C196.695 148.829 195.194 152.153 193.102 155.092C191.011 158.031 188.37 160.528 185.33 162.44C182.291 164.352 178.912 165.642 175.387 166.236C171.863 166.83 168.261 166.716 164.788 165.902Z" fill="#FF4D49"/>
<path d="M161.375 257.094C215.241 257.624 269.144 257.423 323.011 257.423C332.203 257.423 341.419 257.231 350.661 256.847C347.693 262.856 341.493 263.732 334.9 264.399C334.743 264.415 334.595 264.483 334.48 264.591C334.364 264.7 334.287 264.844 334.26 265.002L333.868 267.358C333.794 267.809 333.557 268.218 333.202 268.506C332.847 268.794 332.398 268.941 331.941 268.919C326.444 268.645 320.886 268.831 315.267 269.476C311.036 267.37 307.563 267.205 304.848 268.983C290.104 268.849 275.46 268.849 260.917 268.983C260.326 268.989 259.949 269.227 259.784 269.695C257.033 270.219 254.3 270.283 251.584 269.887C251.298 269.844 251.027 269.896 250.772 270.042C250.321 270.298 249.849 270.411 249.356 270.38C249.058 270.356 248.86 270.204 248.763 269.924L248.425 268.947L203.791 268.618C201.849 268.009 199.648 267.683 197.189 267.641C195.591 267.622 194.495 268.435 193.116 269.093L176.259 269.12C176 269.123 175.749 269.027 175.558 268.85C175.366 268.674 175.248 268.431 175.227 268.17L174.944 264.545C174.93 264.33 174.834 264.129 174.676 263.983C174.518 263.837 174.31 263.757 174.095 263.76C168.227 263.815 163.987 261.593 161.375 257.094Z" fill="#FE7014"/>
<path d="M315.267 269.476L315.678 279.128C315.69 279.457 315.86 279.615 316.189 279.603C323.951 279.353 331.706 279.274 339.456 279.366C341.167 279.384 342.439 279.743 343.273 280.443C346.843 283.411 345.236 289.164 340.981 290.104C339.636 290.402 337.158 290.381 333.548 290.04C333.633 290.022 333.706 289.988 333.767 289.94C333.786 289.925 333.801 289.907 333.812 289.885C333.822 289.864 333.828 289.84 333.828 289.816C333.828 289.793 333.822 289.769 333.812 289.748C333.801 289.726 333.786 289.708 333.767 289.693C333.262 289.31 332.796 289.121 332.37 289.127C324.416 289.237 315.815 288.333 308.619 288.424C296.739 288.57 284.466 289.008 273.016 289.008C252.695 289.014 232.378 289.072 212.063 289.182C207.565 289.206 203.075 288.978 198.594 288.497C195.691 288.187 191.582 288.798 188.239 288.817C184.337 288.841 180.383 289.112 176.378 289.629C175.982 289.739 175.541 289.982 175.054 290.36C173.422 290.195 171.605 290.18 169.602 290.314C162.589 290.78 161.064 279.183 168.689 279.201C175.763 279.226 182.84 279.277 189.92 279.356C190.766 279.362 191.551 279.314 192.276 279.21C192.464 279.182 192.637 279.088 192.762 278.944C192.888 278.8 192.958 278.616 192.96 278.425L193.116 269.093C194.494 268.435 195.59 267.622 197.188 267.641C199.648 267.683 201.848 268.009 203.79 268.618L203.726 278.708C203.72 279.055 203.891 279.229 204.238 279.229L247.694 279.219C247.871 279.219 248.041 279.149 248.166 279.024C248.291 278.899 248.361 278.73 248.361 278.553L248.425 268.947L248.763 269.924C248.86 270.204 249.058 270.356 249.356 270.38C249.849 270.411 250.321 270.298 250.771 270.042C251.027 269.896 251.298 269.844 251.584 269.887C254.299 270.283 257.033 270.219 259.784 269.695L260.031 278.818C260.037 279.067 260.165 279.192 260.414 279.192L303.889 279.32C304.027 279.32 304.163 279.293 304.289 279.24C304.416 279.187 304.532 279.109 304.628 279.012C304.725 278.914 304.802 278.798 304.853 278.671C304.905 278.544 304.931 278.407 304.93 278.27L304.848 268.983C307.563 267.205 311.036 267.37 315.267 269.476Z" fill="#FF9C00"/>
<path d="M203.79 268.618L248.425 268.947L248.361 278.553C248.361 278.73 248.29 278.899 248.165 279.024C248.04 279.149 247.871 279.219 247.694 279.219L204.238 279.229C203.891 279.229 203.72 279.055 203.726 278.708L203.79 268.618Z" fill="#FFFFFE"/>
<path d="M304.847 268.983L304.929 278.27C304.931 278.407 304.905 278.544 304.853 278.671C304.801 278.798 304.725 278.914 304.628 279.012C304.531 279.109 304.416 279.187 304.289 279.24C304.162 279.293 304.026 279.32 303.889 279.32L260.414 279.192C260.164 279.192 260.036 279.067 260.03 278.818L259.784 269.695C259.948 269.227 260.325 268.989 260.916 268.983C275.459 268.849 290.103 268.849 304.847 268.983Z" fill="#FFFFFE"/>
<path d="M333.548 290.04C333.5 289.973 333.454 289.906 333.411 289.839L325.786 290.442L316.052 290.579L307.651 290.652C307.335 290.652 307.076 290.768 306.875 290.999C306.248 291.723 305.959 291.696 306.008 290.917L203.562 290.323L193.445 290.816L182.651 290.214C181.708 289.361 179.617 289.167 176.378 289.629C180.384 289.112 184.337 288.841 188.24 288.817C191.582 288.798 195.691 288.187 198.595 288.497C203.075 288.978 207.565 289.206 212.064 289.182C232.378 289.072 252.695 289.014 273.016 289.008C284.467 289.008 296.739 288.57 308.619 288.424C315.815 288.333 324.417 289.237 332.37 289.127C332.796 289.121 333.262 289.31 333.767 289.693C333.786 289.708 333.802 289.726 333.812 289.748C333.823 289.769 333.828 289.793 333.828 289.816C333.828 289.84 333.823 289.864 333.812 289.885C333.802 289.907 333.786 289.925 333.767 289.94C333.706 289.988 333.633 290.022 333.548 290.04Z" fill="#CE2A29"/>
<path d="M182.651 290.214L182.532 299.674L182.487 309.052L182.432 346.061C182.432 346.119 182.443 346.175 182.465 346.228C182.488 346.281 182.52 346.328 182.561 346.368C182.602 346.408 182.65 346.44 182.703 346.461C182.756 346.482 182.813 346.492 182.87 346.491L193.545 346.281L202.603 346.208L228.116 346.217C228.737 346.217 229.048 345.906 229.048 345.285V308.979C229.066 308.583 229.148 308.239 229.294 307.947C229.356 307.825 229.447 307.723 229.56 307.65C229.673 307.578 229.802 307.538 229.934 307.536C250.157 307.195 266.191 307.201 278.038 307.554C279.03 307.585 279.228 308.09 278.632 309.07L278.915 345.988C278.917 346.064 278.949 346.136 279.003 346.189C279.058 346.242 279.131 346.272 279.207 346.271L305.871 346.244L315.194 346.089L325.174 346.217C325.251 346.218 325.327 346.204 325.399 346.176C325.47 346.147 325.535 346.105 325.59 346.052C325.645 345.999 325.69 345.935 325.72 345.864C325.751 345.794 325.767 345.718 325.768 345.641L326.005 308.833L325.951 299.363L325.786 290.442L333.411 289.839L333.502 346.692C333.502 346.746 333.513 346.8 333.534 346.851C333.556 346.901 333.587 346.947 333.626 346.985C333.665 347.024 333.711 347.054 333.762 347.074C333.813 347.094 333.868 347.104 333.922 347.102L344.095 346.92C344.576 346.914 344.908 346.692 345.09 346.253C346.314 343.349 348.228 342.034 350.834 342.308C352.575 342.491 355.43 342.525 359.399 342.409C361.043 342.36 362.26 342.68 363.052 343.368C365.773 345.724 363.499 348.363 363.481 351.294C363.456 356.487 363.447 361.6 363.453 366.635C363.453 366.742 363.476 366.847 363.521 366.944C363.567 367.041 363.633 367.127 363.716 367.196C363.799 367.265 363.896 367.315 364 367.342C364.105 367.37 364.214 367.375 364.321 367.356C371.142 366.141 372.439 375.602 365.554 375.529C362.339 375.492 359.125 375.495 355.911 375.538C355.643 375.544 355.509 375.681 355.509 375.949L355.527 393.143C355.527 393.6 355.756 393.819 356.212 393.801C358.982 393.685 361.682 393.785 364.312 394.102C370.092 394.805 369.462 402.256 363.417 402.247C315.081 402.174 240.41 402.183 139.405 402.275C137.371 402.281 136.272 401.267 136.108 399.234L136.008 397.983C135.965 397.456 136.031 396.925 136.203 396.425C136.375 395.924 136.648 395.465 137.005 395.075C137.363 394.685 137.797 394.373 138.28 394.158C138.764 393.944 139.286 393.831 139.815 393.828L151.294 393.746C151.539 393.743 151.774 393.645 151.946 393.472C152.119 393.3 152.216 393.067 152.216 392.824L152.262 375.994C152.262 375.824 152.176 375.736 152.006 375.729C148.865 375.699 145.711 375.65 142.546 375.583C140.062 375.529 137.66 373.921 137.916 371.273C138.172 368.583 140.135 367.195 143.806 367.109C144.281 367.103 144.524 366.863 144.536 366.388C144.701 361.585 144.737 356.605 144.646 351.449C144.619 349.678 143.295 347.185 143.742 345.696C144.527 343.094 146.408 342.391 149.111 342.418C152.752 342.467 156.383 342.388 160.005 342.181C162.662 342.034 162.918 344.518 163.438 346.509C163.53 346.856 163.755 347.029 164.114 347.029L174.159 347.175C174.245 347.177 174.33 347.161 174.41 347.129C174.489 347.097 174.562 347.049 174.623 346.989C174.684 346.929 174.733 346.857 174.766 346.777C174.799 346.698 174.816 346.613 174.816 346.527L175.054 290.36C175.541 289.982 175.982 289.739 176.378 289.629C179.616 289.167 181.707 289.361 182.651 290.214Z" fill="#010103"/>
<path d="M203.562 290.323C202.649 292.503 202.393 295.507 202.795 299.336C202.804 299.443 202.854 299.542 202.934 299.613C203.013 299.684 203.117 299.722 203.224 299.72L305.688 299.665C305.7 299.993 305.789 300.277 305.953 300.514C306.111 300.745 306.187 301.001 306.181 301.281L305.999 309.079L278.632 309.07C279.228 308.09 279.03 307.585 278.038 307.554C266.192 307.201 250.157 307.195 229.934 307.536C229.802 307.538 229.673 307.578 229.56 307.65C229.448 307.723 229.356 307.825 229.295 307.947C229.148 308.239 229.066 308.583 229.048 308.979L202.576 309.225L193.591 309.134L182.487 309.052L182.532 299.674L192.878 299.546C192.975 299.545 193.071 299.524 193.159 299.486C193.248 299.448 193.328 299.392 193.396 299.322C193.463 299.253 193.515 299.17 193.55 299.08C193.585 298.99 193.602 298.894 193.6 298.797L193.445 290.816L203.562 290.323Z" fill="#FF4D49"/>
<path d="M203.562 290.323L306.008 290.917L306.017 298.98C305.956 299.229 305.846 299.458 305.688 299.665L203.224 299.72C203.117 299.722 203.013 299.684 202.934 299.613C202.854 299.542 202.804 299.443 202.795 299.336C202.393 295.507 202.649 292.503 203.562 290.323Z" fill="#FFFFFE"/>
<path d="M182.651 290.214L193.445 290.816L193.6 298.797C193.602 298.894 193.586 298.99 193.551 299.08C193.516 299.17 193.463 299.253 193.396 299.322C193.329 299.392 193.248 299.448 193.16 299.486C193.071 299.524 192.975 299.545 192.879 299.546L182.533 299.674L182.651 290.214Z" fill="#FFFFFE"/>
<path d="M316.052 290.579C315.188 292.965 314.953 295.753 315.349 298.943C314.107 299.577 312.926 299.847 311.806 299.756C310.354 299.628 309.35 299.875 308.007 299.847C307.685 299.841 307.417 299.713 307.204 299.464C306.486 298.642 306.09 298.481 306.017 298.98L306.008 290.917C305.959 291.696 306.248 291.723 306.875 290.999C307.076 290.768 307.335 290.652 307.651 290.652L316.052 290.579Z" fill="#FF8E08"/>
<path d="M316.052 290.579L325.786 290.442L325.951 299.363L315.669 299.528C315.121 299.577 315.014 299.382 315.349 298.943C314.954 295.753 315.188 292.965 316.052 290.579Z" fill="white"/>
<path d="M315.349 298.943C315.014 299.382 315.121 299.576 315.669 299.528C315.157 300.459 315.659 301.555 315.568 302.532C315.373 304.559 315.322 306.592 315.413 308.632C315.425 308.833 315.535 308.951 315.742 308.988L315.23 309.518C315.109 309.548 315.017 309.472 314.956 309.289C314.908 309.125 314.798 309.043 314.628 309.043L305.807 309.079C305.868 309.079 305.931 309.079 305.998 309.079L306.181 301.281C306.187 301.001 306.111 300.745 305.953 300.514C305.788 300.277 305.7 299.993 305.688 299.665C305.846 299.458 305.956 299.229 306.017 298.98C306.09 298.481 306.485 298.642 307.204 299.464C307.417 299.713 307.685 299.841 308.007 299.847C309.35 299.875 310.354 299.628 311.806 299.756C312.926 299.847 314.107 299.576 315.349 298.943Z" fill="#FE7014"/>
<path d="M325.95 299.363L326.005 308.833L315.742 308.988C315.535 308.951 315.425 308.833 315.413 308.632C315.322 306.592 315.373 304.559 315.568 302.532C315.659 301.555 315.157 300.459 315.668 299.528L325.95 299.363Z" fill="#E12555"/>
<path d="M193.59 309.134L193.545 346.281L182.87 346.491C182.813 346.492 182.756 346.482 182.703 346.461C182.65 346.44 182.601 346.408 182.561 346.368C182.52 346.328 182.487 346.281 182.465 346.228C182.443 346.175 182.432 346.119 182.432 346.062L182.486 309.052L193.59 309.134Z" fill="#FFFFFE"/>
<path d="M202.575 309.225L202.603 346.208L193.544 346.281L193.59 309.134L202.575 309.225Z" fill="#FF9C00"/>
<path d="M229.048 308.979V345.285C229.048 345.906 228.737 346.217 228.116 346.217L202.603 346.208L202.576 309.225L229.048 308.979Z" fill="#FFFFFE"/>
<path d="M315.23 309.518C315.376 310.504 315.455 311.502 315.468 312.513C315.614 323.653 315.522 334.845 315.194 346.089L305.871 346.244L305.807 309.079L314.628 309.043C314.798 309.043 314.908 309.125 314.956 309.289C315.017 309.472 315.108 309.548 315.23 309.518Z" fill="#FF9C00"/>
<path d="M326.006 308.833L325.768 345.642C325.767 345.718 325.751 345.794 325.72 345.864C325.69 345.935 325.646 345.999 325.59 346.052C325.535 346.106 325.47 346.148 325.399 346.176C325.328 346.204 325.251 346.218 325.175 346.217L315.194 346.089C315.523 334.845 315.614 323.653 315.468 312.513C315.456 311.502 315.377 310.504 315.23 309.518L315.742 308.988L326.006 308.833Z" fill="white"/>
<path d="M278.631 309.07L305.998 309.079C305.931 309.079 305.867 309.079 305.807 309.079L305.87 346.244L279.207 346.272C279.131 346.272 279.058 346.242 279.003 346.189C278.949 346.136 278.917 346.064 278.914 345.989L278.631 309.07Z" fill="#FFFFFE"/>
<path d="M384.252 399.511C384.139 400.054 383.914 400.567 383.587 401.022C383.261 401.478 382.841 401.866 382.35 402.164C381.86 402.462 381.309 402.666 380.729 402.762C380.149 402.859 379.551 402.846 378.97 402.726C378.389 402.605 377.835 402.379 377.341 402.061C376.847 401.742 376.422 401.336 376.091 400.868C375.759 400.399 375.528 399.876 375.409 399.329C375.29 398.782 375.287 398.221 375.399 397.678C375.512 397.136 375.737 396.622 376.064 396.167C376.39 395.712 376.81 395.324 377.301 395.025C377.791 394.727 378.342 394.524 378.922 394.427C379.502 394.331 380.1 394.343 380.681 394.464C381.262 394.584 381.816 394.81 382.31 395.129C382.804 395.448 383.229 395.853 383.56 396.322C383.892 396.79 384.123 397.313 384.242 397.861C384.361 398.408 384.364 398.969 384.252 399.511Z" fill="#010115"/>
<path d="M258.296 117.684C258.101 118.689 257.139 119.669 255.41 120.625" stroke="#FEE696" stroke-width="2"/>
<path d="M255.41 120.625C254.503 120.874 253.73 121.453 253.091 122.36" stroke="#FFEDAF" stroke-width="2"/>
<path d="M253.091 122.36L248.799 126.852" stroke="#FEE696" stroke-width="2"/>
<path d="M248.799 126.852C248.05 127.285 247.289 128.179 246.516 129.537" stroke="#FFB889" stroke-width="2"/>
<path d="M260.268 118.972C259.866 120.707 260.259 122.396 259.839 123.921C258.889 127.391 256.509 129.208 252.698 129.373C250.616 129.458 249.316 128.618 248.799 126.852" stroke="#FD9E21" stroke-width="2"/>
<path d="M253.091 122.36C253.888 122.993 254.661 122.415 255.41 120.625" stroke="#FED347" stroke-width="2"/>
<path d="M322.928 133.591C322.794 135.29 322.623 136.492 322.416 137.198C319.714 146.412 320.745 154.566 323.868 163.67C324.221 164.705 324.514 166.221 324.745 168.218" stroke="#FFA6A4" stroke-width="2"/>
<path d="M255.766 144.001C254.914 144.452 254.378 145.076 254.159 145.873" stroke="#FFCE7F" stroke-width="2"/>
<path d="M254.159 145.873L253.812 146.54" stroke="#E79594" stroke-width="2"/>
<path d="M253.812 146.54L251.565 150.064" stroke="#FFCE7F" stroke-width="2"/>
<path d="M253.812 146.54C254.129 146.753 254.253 147.139 254.186 147.699C254.176 147.793 254.188 147.888 254.22 147.976C254.253 148.064 254.306 148.143 254.375 148.206C254.443 148.27 254.526 148.316 254.615 148.34C254.705 148.365 254.799 148.367 254.89 148.348L255.264 148.275C255.488 148.229 255.688 148.104 255.827 147.923C255.966 147.742 256.035 147.517 256.022 147.289C255.943 145.694 255.322 145.222 254.159 145.873" stroke="#E76315" stroke-width="2"/>
<path d="M349.555 176.482C350.614 174.01 352.447 171.907 355.052 170.172C361.523 165.862 368.177 162.392 375.014 159.762" stroke="#D4D085" stroke-width="2"/>
<path d="M274.86 172.939C260.426 173.06 246.038 173.06 231.696 172.939C230.612 172.933 229.83 173.404 229.349 174.354C223.067 186.882 213.835 197.612 202.977 206.405C189.006 217.728 171.1 224.376 153.403 228.129" stroke="#94A2B3" stroke-width="2"/>
<path d="M258.296 117.684C258.101 118.689 257.139 119.669 255.41 120.625C254.503 120.874 253.73 121.453 253.091 122.36L248.799 126.852C248.05 127.285 247.289 128.179 246.516 129.537C242.635 121.465 250.096 113.593 258.296 117.684Z" fill="#FFFFFE"/>
<path d="M258.296 117.684C259.002 117.843 259.659 118.272 260.268 118.972C259.866 120.707 260.259 122.396 259.839 123.921C258.889 127.391 256.509 129.208 252.698 129.373C250.616 129.458 249.316 128.618 248.799 126.852L253.091 122.36C253.888 122.993 254.661 122.415 255.41 120.625C257.139 119.669 258.101 118.689 258.296 117.684Z" fill="#FCCC2E"/>
<path d="M260.268 118.972C269.564 127.756 254.196 142.093 246.516 129.537C247.289 128.179 248.05 127.285 248.799 126.852C249.316 128.618 250.616 129.458 252.698 129.373C256.509 129.208 258.889 127.391 259.839 123.921C260.259 122.396 259.866 120.707 260.268 118.972Z" fill="#FE7014"/>
<path d="M255.41 120.625C254.661 122.415 253.888 122.993 253.091 122.36C253.73 121.453 254.503 120.874 255.41 120.625Z" fill="#FFDA5F"/>
<path d="M322.928 133.591C322.794 135.29 322.623 136.492 322.417 137.198C319.714 146.412 320.745 154.566 323.868 163.67C324.221 164.705 324.514 166.221 324.745 168.218C314.189 159.762 315.997 143.901 319.842 132.824C319.889 132.689 319.986 132.576 320.113 132.509C320.24 132.441 320.387 132.423 320.526 132.459C321.275 132.642 322.076 133.019 322.928 133.591Z" fill="#FFFFFE"/>
<path d="M322.928 133.591C332.352 137.71 342.241 146.868 343.236 157.753C343.866 164.647 343.948 169.715 339.017 175.148C338.936 175.238 338.831 175.303 338.715 175.338C338.599 175.373 338.476 175.376 338.358 175.348C338.241 175.319 338.133 175.259 338.047 175.174C337.96 175.089 337.898 174.982 337.867 174.865L331.74 151.379C331.673 151.128 331.547 150.895 331.372 150.702C331.198 150.508 330.98 150.359 330.737 150.267C330.494 150.175 330.232 150.143 329.975 150.173C329.717 150.203 329.471 150.294 329.256 150.439L328.498 150.959C327.821 151.418 327.299 152.071 327.001 152.832C326.702 153.593 326.642 154.427 326.827 155.224L330.836 172.546C330.847 172.588 330.845 172.632 330.831 172.672C330.817 172.713 330.792 172.749 330.758 172.775C330.724 172.801 330.682 172.817 330.639 172.82C330.596 172.823 330.554 172.814 330.516 172.793C328.282 171.605 326.358 170.081 324.745 168.218C324.514 166.221 324.221 164.705 323.868 163.67C320.745 154.566 319.714 146.412 322.416 137.198C322.623 136.492 322.794 135.29 322.928 133.591Z" fill="#FF4D49"/>
<path d="M255.766 144.001C254.914 144.452 254.378 145.076 254.159 145.873L253.812 146.54L251.566 150.064C250.446 150.454 249.313 150.548 248.169 150.348C246.836 150.116 246.723 149.608 247.831 148.823C249.992 147.295 251.742 145.386 253.082 143.097C253.151 142.976 253.245 142.871 253.358 142.788C253.471 142.705 253.601 142.645 253.739 142.613C254.622 142.418 255.297 142.881 255.766 144.001Z" fill="#FFFFFE"/>
<path d="M255.766 144.001L259.948 149.507C259.984 149.553 260.007 149.609 260.013 149.667C260.019 149.725 260.008 149.784 259.983 149.836C259.957 149.888 259.917 149.933 259.867 149.963C259.817 149.994 259.76 150.01 259.702 150.01L251.565 150.064L253.812 146.54C254.128 146.753 254.253 147.139 254.186 147.699C254.176 147.793 254.187 147.888 254.22 147.976C254.253 148.064 254.306 148.143 254.374 148.206C254.443 148.27 254.526 148.316 254.615 148.34C254.705 148.365 254.799 148.367 254.889 148.348L255.264 148.275C255.487 148.229 255.687 148.104 255.827 147.923C255.966 147.742 256.035 147.517 256.022 147.288C255.942 145.694 255.321 145.222 254.159 145.873C254.378 145.076 254.914 144.452 255.766 144.001Z" fill="#FF9C00"/>
<path d="M253.812 146.54L254.159 145.873C255.322 145.222 255.943 145.694 256.022 147.289C256.035 147.517 255.966 147.742 255.827 147.923C255.688 148.104 255.488 148.229 255.264 148.275L254.89 148.348C254.799 148.367 254.705 148.365 254.615 148.34C254.526 148.316 254.443 148.27 254.375 148.206C254.306 148.143 254.253 148.064 254.22 147.976C254.188 147.888 254.176 147.793 254.186 147.699C254.253 147.139 254.129 146.753 253.812 146.54Z" fill="#CE2A29"/>
<path d="M259.885 159.26C259.885 159.633 259.737 159.99 259.473 160.254C259.209 160.518 258.852 160.666 258.479 160.666H244.015C243.642 160.666 243.284 160.518 243.02 160.254C242.757 159.99 242.608 159.633 242.608 159.26V159.022C242.608 158.649 242.757 158.292 243.02 158.028C243.284 157.764 243.642 157.616 244.015 157.616H258.479C258.852 157.616 259.209 157.764 259.473 158.028C259.737 158.292 259.885 158.649 259.885 159.022V159.26Z" fill="#FCCC2E"/>
<path d="M349.555 176.482C350.614 174.01 352.447 171.907 355.052 170.172C361.523 165.862 368.177 162.392 375.014 159.762C376.487 159.251 378.627 159.269 381.433 159.817C381.75 159.879 382.032 160.06 382.22 160.321C382.408 160.582 382.489 160.905 382.447 161.223C381.022 171.925 374.393 184.444 361.737 183.915C360.464 183.86 357.938 183.318 354.157 182.289C353.871 182.216 353.862 182.119 354.13 181.997C359.438 179.672 364.701 177.279 369.918 174.82C372.463 173.621 373.802 171.968 373.936 169.861C374.101 167.387 371.662 166.912 369.736 167.825C364.281 170.388 358.824 172.933 353.363 175.459C351.89 176.135 350.621 176.476 349.555 176.482Z" fill="#A9A00C"/>
<path d="M375.013 159.762C368.177 162.392 361.523 165.862 355.052 170.172C352.447 171.907 350.614 174.01 349.555 176.482C349.232 176.969 348.733 177.252 348.058 177.331C347.989 177.34 347.919 177.329 347.856 177.302C347.793 177.274 347.738 177.23 347.698 177.174C347.658 177.118 347.634 177.052 347.628 176.983C347.622 176.914 347.635 176.845 347.665 176.783C348.639 174.799 349.613 172.86 350.587 170.966C351.737 168.747 354.961 166.638 357.527 164.885C362.647 161.391 368.475 159.683 375.013 159.762Z" fill="#FFFFFE"/>
<path d="M274.86 172.939C260.426 173.061 246.038 173.061 231.696 172.939C230.612 172.933 229.83 173.404 229.349 174.354C223.066 186.882 213.834 197.612 202.977 206.405C189.006 217.728 171.099 224.376 153.403 228.129C151.278 228.099 146.712 227.761 139.706 227.116C137.94 226.951 136.525 226.705 135.459 226.376C134.796 226.169 134.808 226.011 135.496 225.901C171.446 220.258 206.895 205.848 224.053 171.149C224.184 170.888 224.385 170.67 224.634 170.518C224.883 170.366 225.168 170.287 225.459 170.291L274.157 170.546C274.318 170.546 274.519 170.623 274.74 170.769C274.961 170.914 275.194 171.124 275.417 171.377C275.685 171.682 275.499 172.202 274.86 172.939Z" fill="#FFFFFE"/>
<path d="M274.86 172.939C275.524 174.168 276.842 176.914 278.814 181.175C285.662 195.941 300.665 208.643 314.226 217.007C323.302 222.605 332.461 225.773 342.414 229.38C342.501 229.411 342.578 229.463 342.639 229.531C342.7 229.6 342.742 229.683 342.761 229.773C342.859 230.229 342.591 230.461 341.958 230.467C333.858 230.604 325.348 231.17 317.705 231.179C273.965 231.258 230.229 231.252 186.495 231.161C181.546 231.149 176.606 230.945 171.675 230.549C167.718 230.232 163.749 230.053 159.767 230.01C157.028 229.986 154.906 229.359 153.403 228.129C171.1 224.376 189.006 217.728 202.977 206.405C213.835 197.612 223.067 186.882 229.349 174.354C229.83 173.404 230.612 172.933 231.696 172.939C246.038 173.06 260.426 173.06 274.86 172.939Z" fill="#284567"/>
<path d="M134.217 244.474C129.46 243.936 123.461 239.342 120.356 235.909C119.817 235.306 118.849 234.631 118.667 233.599C118.648 233.494 118.656 233.385 118.689 233.284C118.721 233.182 118.778 233.09 118.855 233.015C118.931 232.941 119.025 232.886 119.127 232.855C119.23 232.825 119.338 232.82 119.443 232.841C138.354 236.42 156.407 238.302 176.021 239.781C181.999 240.231 188.081 240.469 194.266 240.493C238.991 240.694 276.351 240.706 306.345 240.53C335.62 240.356 363.909 237.863 392.719 233.142C392.855 233.121 392.994 233.136 393.122 233.186C393.25 233.236 393.363 233.319 393.448 233.427C393.534 233.534 393.589 233.663 393.609 233.799C393.628 233.935 393.611 234.074 393.559 234.201C392.883 235.909 389.706 238.009 388.217 239.224C381.971 244.356 373.351 245.15 366.147 245.616C358.604 246.097 351.065 246.62 343.528 247.186C329.968 248.191 316.782 248.008 303.377 247.99C262.925 247.926 222.464 248.026 182.011 247.743C174.697 247.698 167.008 246.995 159.475 246.83C158.105 246.8 156.035 246.629 153.266 246.319C150.471 245.999 147.558 246.136 144.929 245.789C141.361 245.314 137.791 244.876 134.217 244.474Z" fill="#FE7014"/>
<path d="M270.971 345.63C270.971 345.688 270.96 345.745 270.938 345.798C270.916 345.851 270.883 345.899 270.843 345.94C270.802 345.981 270.754 346.013 270.701 346.036C270.648 346.058 270.591 346.069 270.533 346.069L237.477 346.127C237.42 346.127 237.363 346.116 237.31 346.094C237.256 346.072 237.208 346.04 237.167 345.999C237.126 345.958 237.094 345.91 237.072 345.857C237.05 345.804 237.038 345.747 237.038 345.689L236.983 313.967C236.983 313.909 236.994 313.852 237.016 313.799C237.038 313.746 237.07 313.697 237.111 313.657C237.151 313.616 237.2 313.583 237.253 313.561C237.306 313.539 237.363 313.528 237.421 313.528L270.476 313.47C270.534 313.47 270.591 313.481 270.644 313.503C270.697 313.525 270.746 313.557 270.786 313.598C270.827 313.638 270.86 313.687 270.882 313.74C270.904 313.793 270.915 313.85 270.915 313.908L270.971 345.63Z" fill="#FFFFFE"/>
<path d="M155.467 354.115C155.947 353.628 156.626 353.391 157.503 353.403C174.743 353.604 195.426 353.266 214.574 353.275C258.862 353.312 303.149 353.37 347.437 353.449C349.086 353.449 350.672 353.409 352.194 353.33C352.35 353.322 352.498 353.259 352.612 353.152C352.726 353.045 352.798 352.901 352.815 352.746L353.089 350.262C353.107 350.106 353.183 349.963 353.301 349.86C353.419 349.757 353.571 349.702 353.728 349.705L356.038 349.741C356.434 349.748 356.632 349.945 356.632 350.335L356.55 366.817C356.55 366.926 356.506 367.031 356.429 367.108C356.352 367.185 356.248 367.228 356.139 367.228L151.814 367.319C151.753 367.319 151.695 367.295 151.652 367.253C151.61 367.21 151.586 367.152 151.586 367.091L151.567 350.609C151.567 350.487 151.592 350.366 151.64 350.255C151.689 350.143 151.76 350.042 151.849 349.959C151.938 349.876 152.043 349.812 152.158 349.771C152.273 349.731 152.395 349.714 152.517 349.723L154.763 349.888C154.882 349.895 154.997 349.927 155.103 349.981C155.208 350.035 155.302 350.109 155.379 350.2C155.456 350.292 155.513 350.397 155.549 350.511C155.584 350.625 155.597 350.746 155.585 350.865L155.293 354.042C155.281 354.225 155.339 354.249 155.467 354.115Z" fill="#FCCC2E"/>
<path d="M174.907 393.233C174.907 393.298 174.894 393.362 174.87 393.422C174.846 393.482 174.81 393.536 174.764 393.582C174.718 393.628 174.664 393.665 174.605 393.69C174.545 393.715 174.481 393.728 174.416 393.728L160.829 393.8C160.698 393.8 160.572 393.749 160.479 393.657C160.386 393.565 160.334 393.44 160.333 393.309L160.243 376.161C160.243 376.096 160.255 376.032 160.28 375.972C160.304 375.912 160.34 375.857 160.386 375.811C160.431 375.765 160.485 375.728 160.545 375.703C160.605 375.678 160.669 375.665 160.734 375.665L174.321 375.594C174.452 375.593 174.578 375.644 174.67 375.736C174.763 375.828 174.816 375.953 174.817 376.084L174.907 393.233Z" fill="#FFFFFE"/>
<path d="M192.262 390.531C192.262 390.594 192.25 390.657 192.225 390.716C192.201 390.775 192.165 390.828 192.12 390.873C192.075 390.918 192.022 390.953 191.963 390.977C191.904 391.002 191.841 391.014 191.778 391.014L183.103 390.999C183.039 390.999 182.976 390.986 182.918 390.962C182.859 390.937 182.806 390.902 182.761 390.857C182.716 390.812 182.68 390.758 182.656 390.699C182.632 390.641 182.62 390.578 182.62 390.514L182.645 375.977C182.645 375.913 182.658 375.85 182.682 375.792C182.707 375.733 182.742 375.68 182.787 375.635C182.832 375.59 182.886 375.554 182.945 375.53C183.003 375.506 183.066 375.494 183.13 375.494L191.805 375.509C191.868 375.509 191.931 375.522 191.99 375.546C192.049 375.57 192.102 375.606 192.147 375.651C192.192 375.696 192.227 375.75 192.251 375.808C192.275 375.867 192.288 375.93 192.288 375.994L192.262 390.531Z" fill="#FFC9C2"/>
<path d="M270.919 393.173C270.919 393.244 270.905 393.314 270.878 393.379C270.85 393.444 270.811 393.504 270.76 393.553C270.71 393.603 270.651 393.643 270.586 393.67C270.52 393.697 270.45 393.711 270.379 393.711L237.634 393.653C237.491 393.653 237.354 393.596 237.253 393.495C237.152 393.394 237.096 393.257 237.096 393.114L237.126 376.202C237.126 376.132 237.14 376.062 237.167 375.996C237.194 375.931 237.234 375.872 237.284 375.822C237.334 375.772 237.394 375.732 237.459 375.705C237.525 375.678 237.595 375.664 237.665 375.665L270.411 375.722C270.554 375.722 270.69 375.779 270.791 375.88C270.892 375.981 270.949 376.118 270.948 376.261L270.919 393.173Z" fill="#FFFFFE"/>
<path d="M307.003 393.554L279.216 393.782C279.18 393.782 279.144 393.775 279.111 393.762C279.078 393.748 279.048 393.728 279.022 393.702C278.997 393.677 278.977 393.647 278.963 393.613C278.949 393.58 278.942 393.545 278.942 393.509L278.887 375.894C278.887 375.858 278.894 375.822 278.908 375.789C278.922 375.756 278.942 375.726 278.967 375.7C278.993 375.675 279.023 375.655 279.056 375.641C279.09 375.627 279.125 375.62 279.161 375.62L307.35 375.839C307.421 375.842 307.488 375.871 307.538 375.923C307.587 375.974 307.615 376.042 307.615 376.113L307.277 393.289C307.274 393.36 307.245 393.428 307.193 393.477C307.142 393.527 307.074 393.554 307.003 393.554Z" fill="#FFFFFE"/>
<path d="M325.89 390.588C325.891 390.649 325.879 390.71 325.855 390.766C325.832 390.823 325.798 390.874 325.755 390.917C325.711 390.961 325.66 390.995 325.604 391.019C325.547 391.042 325.487 391.054 325.425 391.054L317.554 391.068C317.493 391.068 317.432 391.056 317.376 391.033C317.319 391.01 317.268 390.975 317.225 390.932C317.181 390.889 317.147 390.838 317.123 390.781C317.1 390.725 317.088 390.664 317.088 390.603L317.063 376.139C317.062 376.078 317.074 376.017 317.098 375.961C317.121 375.904 317.155 375.853 317.198 375.809C317.241 375.766 317.293 375.732 317.349 375.708C317.406 375.685 317.466 375.673 317.527 375.672L325.399 375.659C325.46 375.659 325.52 375.671 325.577 375.694C325.634 375.717 325.685 375.751 325.728 375.795C325.772 375.838 325.806 375.889 325.829 375.946C325.853 376.002 325.865 376.063 325.865 376.124L325.89 390.588Z" fill="#FFC9C2"/>
<path d="M228.962 393.11C228.962 393.17 228.95 393.229 228.927 393.285C228.905 393.34 228.871 393.391 228.829 393.433C228.786 393.476 228.736 393.509 228.681 393.532C228.625 393.555 228.566 393.567 228.506 393.567L201.806 393.614C201.746 393.614 201.686 393.602 201.631 393.579C201.576 393.557 201.525 393.523 201.483 393.481C201.44 393.438 201.407 393.388 201.383 393.333C201.36 393.277 201.348 393.218 201.348 393.158L201.319 376.21C201.319 376.15 201.33 376.091 201.353 376.035C201.376 375.98 201.41 375.93 201.452 375.887C201.494 375.845 201.545 375.811 201.6 375.788C201.655 375.765 201.715 375.753 201.775 375.753L228.475 375.706C228.535 375.706 228.594 375.718 228.65 375.741C228.705 375.764 228.755 375.797 228.798 375.839C228.84 375.882 228.874 375.932 228.897 375.987C228.92 376.043 228.932 376.102 228.932 376.162L228.962 393.11Z" fill="#FFFFFE"/>
<path d="M347.227 376.277L347.245 392.961C347.245 393.109 347.187 393.252 347.082 393.358C346.978 393.464 346.837 393.524 346.688 393.527L334.096 393.819C334.021 393.82 333.946 393.806 333.876 393.778C333.806 393.751 333.743 393.709 333.689 393.656C333.636 393.604 333.593 393.541 333.564 393.472C333.535 393.402 333.52 393.328 333.52 393.253L333.511 376.277C333.511 376.127 333.571 375.983 333.677 375.877C333.783 375.771 333.927 375.711 334.077 375.711H346.661C346.811 375.711 346.955 375.771 347.061 375.877C347.167 375.983 347.227 376.127 347.227 376.277Z" fill="#FFFFFE"/>
<path d="M267.902 186.837L263.282 186.316C262.852 186.268 262.459 186.052 262.189 185.715C261.919 185.377 261.793 184.947 261.839 184.517L262.022 182.901C262.062 182.517 262.237 182.159 262.516 181.891C262.796 181.624 263.161 181.464 263.547 181.44L268.331 181.166C268.574 181.151 268.818 181.191 269.043 181.282C269.269 181.373 269.471 181.513 269.636 181.693C269.801 181.872 269.923 182.086 269.994 182.319C270.065 182.552 270.084 182.797 270.048 183.038L269.701 185.44C269.642 185.861 269.421 186.242 269.085 186.503C268.749 186.764 268.325 186.884 267.902 186.837Z" fill="#010103"/>
<path d="M246.795 196.885C246.798 197.235 246.732 197.583 246.601 197.907C246.47 198.232 246.276 198.528 246.03 198.778C245.785 199.027 245.493 199.226 245.17 199.363C244.848 199.5 244.502 199.572 244.152 199.575L239.951 199.612C239.244 199.618 238.564 199.343 238.059 198.847C237.555 198.351 237.268 197.676 237.262 196.969L237.253 195.909C237.249 195.559 237.315 195.212 237.447 194.887C237.578 194.563 237.772 194.267 238.017 194.017C238.262 193.767 238.555 193.568 238.877 193.432C239.199 193.295 239.545 193.223 239.896 193.22L244.096 193.183C244.803 193.177 245.484 193.452 245.988 193.948C246.492 194.443 246.779 195.119 246.785 195.826L246.795 196.885Z" fill="#01010A"/>
<path d="M237.915 201.611C238.099 201.63 238.277 201.684 238.44 201.772C238.602 201.859 238.746 201.978 238.862 202.122C238.979 202.265 239.065 202.431 239.118 202.608C239.17 202.785 239.186 202.971 239.166 203.155L239.047 204.241C238.943 205.226 238.52 206.135 237.873 206.771C237.226 207.406 236.407 207.715 235.595 207.629L231.386 207.191C230.983 207.149 230.595 207.012 230.243 206.787C229.89 206.561 229.581 206.252 229.332 205.877C229.084 205.503 228.901 205.069 228.794 204.602C228.688 204.135 228.659 203.643 228.71 203.155L228.829 202.068C228.847 201.885 228.901 201.707 228.989 201.545C229.076 201.383 229.194 201.24 229.336 201.124C229.479 201.008 229.643 200.921 229.819 200.868C229.995 200.815 230.18 200.798 230.363 200.817L237.915 201.611Z" fill="#01010A"/>
<path d="M227.653 211.145C227.645 211.794 227.38 212.413 226.915 212.866C226.451 213.319 225.825 213.57 225.176 213.562L221.104 213.512C220.455 213.504 219.836 213.239 219.382 212.774C218.929 212.31 218.679 211.684 218.687 211.035L218.7 209.939C218.708 209.29 218.973 208.671 219.438 208.218C219.903 207.765 220.528 207.514 221.177 207.522L225.249 207.572C225.898 207.58 226.518 207.845 226.971 208.31C227.424 208.774 227.674 209.4 227.667 210.049L227.653 211.145Z" fill="#010103"/>
<path d="M170.086 361.64L170.022 362.991C170.013 363.165 169.938 363.329 169.813 363.449C169.687 363.569 169.521 363.638 169.347 363.64L156.234 363.685C155.814 363.685 155.601 363.478 155.595 363.064L155.485 355.869C155.479 355.644 155.567 355.595 155.75 355.723C156.176 356.021 156.532 356.17 156.818 356.17C165.585 356.152 174.488 356.137 183.528 356.124C183.584 356.124 183.64 356.136 183.692 356.157C183.744 356.179 183.791 356.21 183.831 356.25C183.871 356.29 183.903 356.337 183.924 356.389C183.946 356.441 183.957 356.497 183.957 356.554L184.003 363.393C184.009 363.6 183.908 363.704 183.701 363.704L171.639 363.64C170.987 363.64 170.689 363.317 170.744 362.672C170.78 362.252 170.686 361.874 170.461 361.539C170.439 361.501 170.404 361.472 170.364 361.455C170.323 361.438 170.278 361.435 170.235 361.447C170.193 361.458 170.155 361.483 170.128 361.518C170.101 361.553 170.087 361.596 170.086 361.64Z" fill="#010103"/>
<path d="M278.951 363.576C278.951 363.651 278.921 363.723 278.868 363.776C278.815 363.829 278.743 363.859 278.668 363.859H255.967C255.93 363.859 255.893 363.851 255.859 363.837C255.824 363.823 255.793 363.802 255.767 363.776C255.741 363.75 255.72 363.718 255.706 363.684C255.691 363.65 255.684 363.613 255.684 363.576V356.307C255.684 356.27 255.691 356.233 255.706 356.199C255.72 356.164 255.741 356.133 255.767 356.107C255.793 356.081 255.824 356.06 255.859 356.046C255.893 356.031 255.93 356.024 255.967 356.024H278.668C278.743 356.024 278.815 356.054 278.868 356.107C278.921 356.16 278.951 356.232 278.951 356.307V363.576Z" fill="#010103"/>
<path d="M299.57 363.621C299.57 363.684 299.545 363.745 299.5 363.789C299.456 363.834 299.396 363.859 299.333 363.859H282.275C282.212 363.859 282.152 363.834 282.107 363.789C282.063 363.745 282.038 363.684 282.038 363.621V356.316C282.038 356.285 282.044 356.254 282.056 356.225C282.068 356.197 282.085 356.17 282.107 356.148C282.129 356.126 282.155 356.109 282.184 356.097C282.213 356.085 282.244 356.079 282.275 356.079H299.333C299.364 356.079 299.395 356.085 299.423 356.097C299.452 356.109 299.478 356.126 299.5 356.148C299.522 356.17 299.54 356.197 299.552 356.225C299.564 356.254 299.57 356.285 299.57 356.316V363.621Z" fill="#010103"/>
<path d="M321.218 363.279C321.217 363.391 321.173 363.498 321.094 363.576C321.015 363.654 320.908 363.698 320.796 363.698L302.972 363.636C302.86 363.635 302.754 363.591 302.675 363.512C302.597 363.433 302.553 363.326 302.553 363.214L302.577 356.512C302.577 356.4 302.622 356.294 302.701 356.215C302.78 356.137 302.887 356.093 302.998 356.093L320.823 356.155C320.934 356.156 321.041 356.201 321.119 356.28C321.198 356.359 321.242 356.466 321.241 356.577L321.218 363.279Z" fill="#010103"/>
<path d="M207.391 363.447C207.391 363.513 207.365 363.575 207.319 363.621C207.272 363.667 207.209 363.693 207.144 363.693L187.53 363.659C187.464 363.659 187.402 363.633 187.356 363.586C187.309 363.54 187.284 363.477 187.284 363.412L187.296 356.363C187.296 356.297 187.322 356.235 187.369 356.188C187.415 356.142 187.478 356.116 187.543 356.117L207.157 356.151C207.223 356.151 207.285 356.177 207.331 356.223C207.378 356.27 207.403 356.332 207.403 356.398L207.391 363.447Z" fill="#010103"/>
<path d="M252.364 363.32C252.364 363.441 252.315 363.557 252.23 363.643C252.144 363.728 252.028 363.776 251.907 363.776L210.852 363.704C210.792 363.704 210.732 363.692 210.677 363.669C210.622 363.646 210.571 363.612 210.529 363.57C210.487 363.527 210.453 363.477 210.43 363.422C210.408 363.366 210.396 363.307 210.396 363.247L210.408 356.526C210.408 356.405 210.456 356.289 210.542 356.204C210.628 356.118 210.744 356.07 210.865 356.07L251.92 356.142C251.98 356.142 252.039 356.154 252.095 356.177C252.15 356.2 252.2 356.234 252.243 356.276C252.285 356.319 252.318 356.369 252.341 356.425C252.364 356.48 252.376 356.539 252.376 356.599L252.364 363.32Z" fill="#010103"/>
<path d="M337.291 363.639L324.927 363.658C324.85 363.659 324.772 363.644 324.7 363.615C324.628 363.585 324.563 363.542 324.508 363.486C324.454 363.431 324.411 363.365 324.382 363.292C324.354 363.22 324.341 363.142 324.343 363.064L324.59 356.764C324.594 356.614 324.657 356.472 324.764 356.369C324.872 356.265 325.015 356.206 325.165 356.207L337.237 356.188C337.312 356.188 337.387 356.203 337.457 356.232C337.527 356.261 337.59 356.303 337.644 356.357C337.697 356.41 337.739 356.474 337.768 356.543C337.797 356.613 337.812 356.688 337.812 356.764L337.867 363.064C337.867 363.217 337.806 363.363 337.698 363.471C337.59 363.579 337.444 363.639 337.291 363.639Z" fill="#010103"/>
<path d="M352.83 363.172C352.83 363.214 352.822 363.255 352.806 363.294C352.79 363.333 352.766 363.368 352.737 363.398C352.707 363.428 352.672 363.451 352.633 363.467C352.594 363.483 352.553 363.492 352.511 363.492L340.22 363.513C340.135 363.514 340.054 363.48 339.994 363.42C339.934 363.36 339.9 363.279 339.9 363.194L339.888 356.62C339.888 356.578 339.896 356.536 339.912 356.497C339.928 356.459 339.952 356.423 339.981 356.394C340.011 356.364 340.046 356.34 340.085 356.324C340.124 356.308 340.165 356.3 340.207 356.3L352.498 356.278C352.583 356.278 352.664 356.312 352.724 356.371C352.784 356.431 352.818 356.512 352.818 356.597L352.83 363.172Z" fill="#010103"/>
<path d="M170.378 359.556C170.325 359.553 170.274 359.526 170.228 359.477C170.182 359.429 170.142 359.359 170.11 359.272C170.078 359.185 170.055 359.083 170.041 358.971C170.028 358.859 170.025 358.74 170.032 358.62C170.047 358.378 170.103 358.149 170.189 357.983C170.275 357.817 170.383 357.727 170.489 357.733C170.542 357.736 170.592 357.763 170.638 357.812C170.684 357.861 170.724 357.931 170.756 358.018C170.788 358.104 170.812 358.207 170.825 358.319C170.838 358.43 170.842 358.55 170.834 358.669C170.819 358.911 170.763 359.14 170.677 359.306C170.592 359.473 170.484 359.563 170.378 359.556Z" fill="#FF8E08"/>
</svg>
