<svg width="1024" height="1024" viewBox="0 0 1024 1024" fill="none" xmlns="http://www.w3.org/2000/svg">
<rect width="1024" height="1024" fill="white"/>
<path d="M453.716 254.194C455.476 257.056 458.23 259.863 459.775 261.932C471.766 278.052 480.09 296.048 484.747 315.92C484.854 316.363 485.125 316.748 485.505 316.996C485.885 317.243 486.345 317.334 486.789 317.25C495.718 315.522 504.834 314.841 514.139 315.208C518.908 315.396 525.087 316.982 530.81 317.062C531.267 317.062 531.571 316.847 531.723 316.417C533.121 312.432 534.464 308.434 535.753 304.421C538.709 295.197 542.542 286.381 547.252 277.971C551.685 270.046 557.972 262.133 563.816 254.302" stroke="#0D5C6D" stroke-width="2"/>
<path d="M600.327 264.766C593.288 270.238 586.576 277.183 580.191 285.601C571.754 296.71 567.147 311.46 563.265 324.759C563.13 325.216 563.274 325.552 563.694 325.767C572.09 330.052 580.849 334.337 588.183 339.576C598.948 347.251 608.79 356.027 617.71 365.905C617.815 366.024 617.959 366.102 618.116 366.127C618.272 366.151 618.433 366.12 618.569 366.04L660.387 341.537C661.086 341.125 661.619 340.561 661.986 339.845L677.663 309.109" stroke="#0D5C6D" stroke-width="2"/>
<path d="M703.67 330.858C697.491 341.48 691.728 351.931 686.381 362.212C685.208 364.46 684.048 365.883 682.902 366.484C667.418 374.543 651.938 382.792 636.463 391.228C636.38 391.273 636.306 391.334 636.247 391.408C636.188 391.482 636.145 391.567 636.12 391.657C636.095 391.748 636.088 391.842 636.101 391.935C636.114 392.027 636.146 392.116 636.194 392.195C641.044 400.309 647.008 408.745 651.213 416.24C663.988 439.037 674.627 462.437 682.754 487.329C682.862 487.643 683.081 487.8 683.412 487.8H735.816C736.264 487.8 736.706 487.687 737.101 487.471C737.495 487.255 737.829 486.943 738.073 486.564C743.088 478.674 748.089 471.008 753.077 463.566C758.102 456.07 765.136 453.522 774.181 455.922" stroke="#0D5C6D" stroke-width="2"/>
<path d="M776.075 489.048C768.929 495.456 764.079 505.41 758.585 513.309C756.024 516.999 752.459 518.861 747.892 518.897C729.211 519.058 710.646 519.103 692.198 519.031C692.067 519.031 691.939 519.059 691.821 519.115C691.703 519.171 691.598 519.252 691.515 519.353C691.432 519.455 691.371 519.573 691.338 519.701C691.305 519.829 691.301 519.963 691.324 520.093C694.092 534.986 695.336 550.009 695.059 565.161C695.055 565.339 695.087 565.515 695.152 565.681C695.217 565.846 695.314 565.996 695.438 566.124C695.562 566.251 695.709 566.353 695.873 566.423C696.036 566.493 696.211 566.53 696.389 566.532C713.162 566.621 729.994 566.76 746.884 566.948C752.943 567.015 756.046 570.777 758.773 575.962C762.498 583.072 766.511 590.026 770.809 596.824" stroke="#0D5C6D" stroke-width="2"/>
<path d="M756.502 639.219L751.29 630.837" stroke="#547683" stroke-width="2"/>
<path d="M751.29 630.837C747.278 623.198 741.551 613.391 734.109 601.418C733.303 600.128 732.51 599.107 731.731 598.355C731.382 598.015 730.961 597.84 730.468 597.831L694.642 597.536C694.343 597.535 694.052 597.638 693.82 597.826C693.588 598.015 693.427 598.277 693.366 598.57C689.882 615.935 684.549 632.753 677.366 649.025C673.954 656.79 669.347 664.769 665.062 672.507C664.524 673.492 664.676 674.347 665.518 675.073L706.382 710.268" stroke="#0D5C6D" stroke-width="2"/>
<path d="M679.785 733.252L679.691 730.673C679.673 730.198 679.49 729.8 679.14 729.478L646.632 699.911C645.45 698.836 644.353 698.917 643.341 700.153C641.361 702.553 638.881 705.06 635.899 707.675C608.938 731.305 576.779 748.284 540.885 752.892C533.138 753.886 525.347 754.441 517.511 754.558C502.546 754.781 492.471 754.634 487.286 754.114C457.639 751.132 428.462 741.205 404.026 724.131C395.769 718.355 387.978 711.974 380.653 704.989C378.879 703.296 377.258 701.711 375.79 700.233C375.62 700.066 375.42 699.933 375.199 699.843C374.978 699.753 374.742 699.707 374.504 699.708C374.266 699.71 374.03 699.758 373.81 699.85C373.591 699.942 373.391 700.077 373.224 700.247C364.089 709.534 354.547 718.22 344.598 726.307C342.296 728.179 341.159 730.507 341.186 733.293" stroke="#0D5C6D" stroke-width="2"/>
<path d="M316.535 709.462L353.691 674.697C354.112 674.303 354.148 673.873 353.799 673.407C351.256 670.049 348.936 666.431 346.84 662.553C335.771 642.054 329.135 621.327 323.641 598.772C323.588 598.556 323.465 598.363 323.293 598.225C323.12 598.086 322.907 598.009 322.687 598.006L292.543 597.147C292.185 597.138 291.831 597.22 291.514 597.384C291.197 597.549 290.927 597.79 290.73 598.087C288.061 602.081 285.495 606.245 283.032 610.58C277.892 619.616 272.89 628.684 268.027 637.782" stroke="#0D5C6D" stroke-width="2"/>
<path d="M251.653 598.8C257.617 590.498 260.761 580.329 267.115 572.269C270.93 567.446 273.764 566.56 280.212 566.573C293.099 566.618 306.264 566.627 319.706 566.6C320.077 566.6 320.432 566.453 320.694 566.191C320.956 565.929 321.103 565.573 321.103 565.203C320.996 549.956 323.279 535.018 325.348 519.772C325.411 519.279 325.191 519.033 324.69 519.033C307.809 519.042 290.923 519.154 274.033 519.369C269.546 519.422 266.031 517.582 263.488 513.847C257.04 504.364 252.795 496.841 246.575 489.036" stroke="#0D5C6D" stroke-width="2"/>
<path d="M249.005 456.029C258.471 453.315 265.595 455.617 270.378 462.934C275.115 470.179 279.978 477.813 284.966 485.837C285.279 486.339 285.715 486.753 286.232 487.04C286.749 487.326 287.33 487.477 287.922 487.476L333.192 487.745C333.377 487.746 333.559 487.685 333.709 487.571C333.859 487.457 333.97 487.297 334.025 487.114C338.941 470.806 345.376 456.701 353.557 440.218C361.491 424.232 370.42 408.636 380.343 393.43C380.719 392.848 380.634 392.337 380.087 391.898C379.129 391.137 377.996 390.367 376.689 389.588C364.769 382.54 352.643 375.868 340.311 369.572C336.64 367.701 334.325 365.842 333.366 363.997C327.975 353.618 322.396 343.252 316.629 332.899" stroke="#0D5C6D" stroke-width="2"/>
<path d="M342.475 310.506C347.078 319.641 351.712 328.887 356.378 338.246C357.229 339.956 358.429 341.34 359.978 342.397C368.267 348.039 377.509 353.52 385.233 358.611C389.737 361.575 394.264 364.477 398.814 367.316C398.965 367.409 399.145 367.447 399.322 367.422C399.498 367.398 399.661 367.313 399.781 367.181C408.298 358.181 418.292 349.355 427.413 342.061C435.836 335.317 445.011 331.059 453.716 325.619C454.128 325.359 454.266 324.996 454.132 324.53C450.411 311.379 445.212 295.756 437.22 285.346C433.458 280.447 428.166 274.899 421.341 268.702" stroke="#0D5C6D" stroke-width="2"/>
<path d="M421.342 268.702L417.903 266.217" stroke="#547683" stroke-width="2"/>
<path d="M421.342 268.702C420.957 269.813 419.533 269.137 417.07 266.674" stroke="#61C0D9" stroke-width="2"/>
<path d="M751.29 630.837C751.228 633.774 752.795 637.213 755.992 641.154" stroke="#61C0D9" stroke-width="2"/>
<path d="M453.716 254.194C455.475 257.056 458.229 259.863 459.774 261.932C471.766 278.052 480.09 296.048 484.747 315.92C484.853 316.363 485.124 316.748 485.505 316.996C485.885 317.243 486.344 317.335 486.788 317.25C495.717 315.522 504.834 314.841 514.139 315.208C518.907 315.397 525.087 316.982 530.809 317.062C531.266 317.062 531.571 316.847 531.723 316.417C533.12 312.432 534.463 308.434 535.753 304.422C538.708 295.197 542.541 286.381 547.252 277.971C551.685 270.046 557.971 262.134 563.815 254.302C567.943 249.332 571.942 245.199 575.811 241.903C590.364 229.527 603.873 219.971 616.339 213.236C619.151 211.714 622.693 211.598 626.965 212.887C638.786 216.474 643.031 233.615 632.338 240.99C622.084 248.055 611.414 255.981 600.327 264.766C593.288 270.238 586.575 277.183 580.19 285.602C571.754 296.711 567.146 311.461 563.264 324.76C563.13 325.216 563.273 325.552 563.694 325.767C572.09 330.052 580.848 334.337 588.183 339.576C598.947 347.251 608.79 356.028 617.709 365.906C617.815 366.024 617.958 366.102 618.115 366.127C618.272 366.151 618.432 366.121 618.569 366.04L660.387 341.538C661.085 341.126 661.618 340.562 661.985 339.845L677.662 309.11C682.041 299.921 686.25 290.867 690.289 281.948C692.197 277.757 695.125 275.674 699.881 274.841C714.971 272.2 730.11 269.965 745.299 268.138C749.66 267.61 752.933 267.74 755.118 268.528C767.907 273.095 769.68 291.754 758.047 298.605C756.175 299.706 752.88 300.526 748.16 301.063C738.3 302.183 728.471 303.517 718.674 305.066C718.083 305.162 717.522 305.395 717.037 305.748C716.552 306.1 716.155 306.561 715.88 307.095L703.669 330.858C697.49 341.48 691.727 351.931 686.38 362.212C685.207 364.459 684.047 365.883 682.901 366.483C667.417 374.543 651.937 382.791 636.462 391.228C636.379 391.273 636.305 391.334 636.246 391.408C636.187 391.482 636.144 391.567 636.119 391.657C636.094 391.748 636.087 391.842 636.1 391.935C636.113 392.027 636.145 392.116 636.194 392.195C641.043 400.308 647.007 408.745 651.212 416.24C663.987 439.037 674.626 462.437 682.753 487.329C682.861 487.643 683.08 487.799 683.412 487.799H735.815C736.264 487.8 736.705 487.687 737.1 487.471C737.494 487.255 737.828 486.943 738.072 486.564C743.087 478.674 748.088 471.008 753.077 463.566C758.101 456.07 765.135 453.522 774.18 455.922C789.279 463.566 785.908 478.799 776.074 489.049C768.928 495.456 764.078 505.41 758.584 513.309C756.023 516.999 752.459 518.862 747.891 518.897C729.21 519.059 710.645 519.104 692.197 519.032C692.067 519.031 691.938 519.06 691.82 519.116C691.702 519.171 691.598 519.253 691.514 519.354C691.431 519.455 691.371 519.574 691.338 519.702C691.305 519.829 691.3 519.963 691.324 520.093C694.091 534.986 695.336 550.009 695.058 565.162C695.055 565.339 695.086 565.516 695.151 565.681C695.216 565.846 695.314 565.997 695.437 566.124C695.561 566.252 695.709 566.353 695.872 566.423C696.035 566.493 696.211 566.53 696.388 566.532C713.162 566.622 729.994 566.76 746.884 566.948C752.942 567.016 756.045 570.777 758.772 575.962C762.498 583.073 766.51 590.027 770.809 596.824C773.531 601.517 776.204 606.277 778.828 611.104C782.616 618.062 788.111 623.382 784.228 631.831C778.765 643.715 769.523 646.178 756.502 639.219L751.29 630.837C747.278 623.198 741.551 613.392 734.109 601.418C733.303 600.129 732.51 599.108 731.731 598.355C731.382 598.015 730.961 597.84 730.468 597.832L694.642 597.536C694.343 597.536 694.053 597.638 693.82 597.827C693.588 598.015 693.427 598.278 693.366 598.57C689.882 615.935 684.549 632.754 677.367 649.026C673.954 656.79 669.347 664.77 665.062 672.507C664.524 673.492 664.677 674.348 665.518 675.073L706.382 710.268C708.389 712.023 709.942 714.28 711.044 717.039C712.562 720.88 712.145 725.716 712.857 730.364C714.281 739.607 714.563 749.211 715.665 758.547C716.175 762.846 716.44 766.921 716.457 770.772C716.461 771.658 716.787 772.513 717.376 773.176C717.964 773.839 718.775 774.264 719.655 774.372C730.437 775.706 741.551 777.524 752.996 779.826C756.856 780.605 759.681 781.809 761.472 783.439C771.615 792.668 765.153 813.893 749.678 811.864C736.392 810.118 723.483 807.431 710.359 804.865C708.505 804.507 706.427 804.216 704.126 803.992C689.577 802.568 685.547 797.168 684.379 783.077C683.367 770.978 682.243 758.892 681.007 746.82C680.644 743.341 680.577 737.833 679.785 733.253L679.691 730.673C679.673 730.199 679.489 729.8 679.14 729.478L646.631 699.911C645.449 698.836 644.352 698.917 643.34 700.153C641.361 702.553 638.88 705.061 635.898 707.676C608.937 731.305 576.778 748.284 540.884 752.892C533.138 753.886 525.346 754.441 517.51 754.558C502.546 754.782 492.471 754.634 487.285 754.114C457.638 751.132 428.461 741.205 404.026 724.131C395.769 718.355 387.978 711.974 380.652 704.989C378.879 703.296 377.258 701.711 375.789 700.234C375.62 700.066 375.419 699.933 375.199 699.843C374.978 699.753 374.742 699.707 374.503 699.708C374.265 699.71 374.03 699.758 373.81 699.85C373.59 699.943 373.391 700.077 373.223 700.247C364.089 709.534 354.547 718.221 344.597 726.308C342.295 728.179 341.158 730.508 341.185 733.293C341.436 733.776 341.534 734.247 341.481 734.703C339.882 747.908 338.552 761.127 336.698 774.291C335.462 782.996 336.631 792.816 329.888 799.291C325.79 803.24 320.229 803.146 314.977 804.046C302.251 806.24 289.538 808.492 276.84 810.803C270.83 811.896 266.482 812.048 263.796 811.26C254.849 808.64 251.397 800.258 253.667 790.841C255.601 782.794 262.412 780.524 270.512 779.154C281.187 777.363 292.091 775.496 303.223 773.552C303.713 773.466 304.161 773.223 304.499 772.859C304.836 772.494 305.044 772.03 305.09 771.537C306.576 755.391 308.094 739.306 309.644 723.285C310.329 716.233 312.062 714.473 316.535 709.462L353.691 674.697C354.112 674.303 354.148 673.873 353.799 673.407C351.255 670.049 348.936 666.431 346.84 662.553C335.771 642.054 329.135 621.326 323.641 598.772C323.588 598.556 323.465 598.363 323.293 598.225C323.12 598.086 322.907 598.009 322.687 598.006L292.543 597.146C292.185 597.138 291.831 597.22 291.514 597.384C291.197 597.548 290.927 597.79 290.73 598.087C288.061 602.081 285.495 606.245 283.032 610.58C277.892 619.616 272.89 628.683 268.027 637.782C257.375 647.763 243.216 643.061 239.401 629.239C237.856 623.664 241.094 618.331 243.7 613.629C246.413 608.739 249.064 603.796 251.652 598.799C257.616 590.497 260.76 580.328 267.114 572.268C270.929 567.445 273.763 566.559 280.211 566.572C293.098 566.617 306.263 566.626 319.705 566.599C320.076 566.599 320.431 566.452 320.693 566.19C320.955 565.928 321.102 565.573 321.102 565.202C320.995 549.955 323.278 535.017 325.347 519.771C325.41 519.278 325.19 519.032 324.689 519.032C307.808 519.041 290.922 519.153 274.032 519.368C269.545 519.421 266.03 517.581 263.487 513.847C257.039 504.363 252.794 496.84 246.574 489.035C241.47 480.787 236.553 476.059 240.422 465.393C242.106 460.754 244.967 457.633 249.006 456.03C258.472 453.316 265.596 455.618 270.378 462.934C275.116 470.179 279.978 477.814 284.967 485.838C285.279 486.34 285.715 486.754 286.232 487.04C286.749 487.327 287.331 487.478 287.922 487.477L333.192 487.746C333.378 487.746 333.559 487.685 333.709 487.572C333.859 487.458 333.97 487.297 334.025 487.114C338.942 470.806 345.376 456.701 353.557 440.219C361.492 424.233 370.42 408.637 380.343 393.431C380.719 392.848 380.634 392.338 380.088 391.899C379.13 391.138 377.997 390.368 376.689 389.589C364.769 382.541 352.644 375.869 340.312 369.573C336.64 367.701 334.325 365.843 333.367 363.998C327.976 353.619 322.396 343.253 316.629 332.9C312.339 324.258 307.799 315.652 303.008 307.081C302.193 305.631 301.27 304.816 300.24 304.636C290.103 302.944 279.911 301.668 269.666 300.808C245.124 298.739 250.389 266.352 268.981 268.098C291.137 270.158 308.251 272.159 320.323 274.103C325.173 274.895 328.585 280.618 331.083 286.045C334.791 294.096 338.588 302.25 342.475 310.507C347.078 319.641 351.712 328.888 356.378 338.247C357.229 339.957 358.429 341.341 359.978 342.398C368.267 348.039 377.509 353.52 385.233 358.612C389.737 361.576 394.264 364.477 398.814 367.316C398.965 367.41 399.145 367.448 399.322 367.423C399.498 367.399 399.661 367.313 399.781 367.182C408.298 358.182 418.292 349.356 427.413 342.062C435.836 335.318 445.011 331.06 453.716 325.619C454.128 325.36 454.266 324.997 454.132 324.531C450.411 311.38 445.212 295.757 437.22 285.346C433.458 280.448 428.166 274.9 421.341 268.702L417.903 266.217C409.914 259.151 398.8 250.742 384.561 240.99C377.294 236.006 376.246 226.28 381.31 219.322C387.261 211.141 396.181 210.523 405.248 215.896C422.362 226.011 440.806 238.961 453.716 254.194Z" fill="#001117"/>
<path d="M563.816 254.302C557.972 262.134 551.685 270.046 547.252 277.971C542.542 286.381 538.709 295.197 535.753 304.422C534.464 308.434 533.121 312.432 531.723 316.418C531.571 316.847 531.267 317.062 530.81 317.062C525.087 316.982 518.908 315.397 514.139 315.208C504.834 314.841 495.718 315.522 486.789 317.25C486.345 317.335 485.885 317.243 485.505 316.996C485.125 316.748 484.854 316.363 484.747 315.92C480.09 296.048 471.766 278.052 459.775 261.932C458.23 259.863 455.476 257.056 453.716 254.194C464.423 253.241 475.774 250.715 485.432 249.721C492.391 249.023 499.618 248.15 506.294 248.002C525.567 247.608 544.74 249.708 563.816 254.302Z" fill="#1AA6C3"/>
<path d="M600.327 264.766C607.321 267.292 616.653 271.366 628.322 276.99C642.57 283.859 656.089 291.951 668.877 301.264C671.877 303.45 674.806 306.065 677.663 309.109L661.986 339.845C661.619 340.561 661.086 341.125 660.387 341.537L618.569 366.04C618.433 366.12 618.272 366.151 618.116 366.127C617.959 366.102 617.815 366.024 617.71 365.905C608.79 356.027 598.948 347.251 588.183 339.576C580.849 334.337 572.09 330.052 563.694 325.767C563.274 325.552 563.13 325.216 563.265 324.759C567.147 311.46 571.754 296.71 580.191 285.601C586.576 277.183 593.288 270.238 600.327 264.766Z" fill="#1AA6C3"/>
<path d="M417.903 266.217L421.342 268.702C420.957 269.813 419.533 269.137 417.07 266.674C417.168 267.319 417.446 267.167 417.903 266.217Z" fill="#A8DAEF"/>
<path d="M417.071 266.674C419.533 269.137 420.957 269.813 421.342 268.702C428.167 274.899 433.459 280.447 437.221 285.346C445.213 295.757 450.412 311.38 454.133 324.531C454.267 324.997 454.129 325.359 453.717 325.619C445.012 331.06 435.837 335.318 427.414 342.061C418.293 349.356 408.299 358.181 399.782 367.182C399.662 367.313 399.499 367.399 399.323 367.423C399.146 367.448 398.966 367.41 398.815 367.316C394.265 364.477 389.738 361.576 385.234 358.611C377.51 353.52 368.268 348.039 359.979 342.397C358.43 341.341 357.23 339.957 356.379 338.246C351.713 328.888 347.079 319.641 342.476 310.507C361.699 292.278 384.777 279.65 408.715 269.038C411.5 267.802 414.285 267.014 417.071 266.674Z" fill="#1AA6C3"/>
<path d="M703.67 330.858C712.366 340.396 719.355 348.546 724.639 355.307C747.028 383.911 763.296 415.9 773.442 451.274C773.953 453.057 774.199 454.606 774.181 455.922C765.136 453.522 758.102 456.07 753.077 463.566C748.089 471.008 743.088 478.674 738.073 486.564C737.829 486.943 737.495 487.255 737.101 487.471C736.706 487.687 736.264 487.8 735.816 487.8H683.412C683.081 487.8 682.862 487.643 682.754 487.329C674.627 462.437 663.988 439.037 651.213 416.24C647.008 408.745 641.044 400.309 636.194 392.195C636.146 392.116 636.114 392.027 636.101 391.935C636.088 391.842 636.095 391.748 636.12 391.657C636.145 391.567 636.188 391.482 636.247 391.408C636.306 391.334 636.38 391.273 636.463 391.228C651.938 382.792 667.418 374.543 682.902 366.484C684.048 365.883 685.208 364.46 686.381 362.212C691.728 351.931 697.491 341.48 703.67 330.858Z" fill="#1AA6C3"/>
<path d="M316.63 332.899C322.397 343.252 327.977 353.618 333.368 363.997C334.326 365.842 336.641 367.701 340.313 369.572C352.645 375.868 364.77 382.54 376.69 389.588C377.998 390.367 379.131 391.137 380.089 391.898C380.635 392.337 380.72 392.848 380.344 393.43C370.421 408.636 361.493 424.232 353.558 440.218C345.377 456.701 338.943 470.806 334.026 487.114C333.971 487.297 333.86 487.457 333.71 487.571C333.56 487.685 333.379 487.746 333.193 487.745L287.923 487.476C287.332 487.477 286.75 487.326 286.233 487.04C285.716 486.753 285.281 486.339 284.968 485.837C279.98 477.813 275.117 470.179 270.379 462.934C265.597 455.617 258.473 453.315 249.007 456.029C252.365 440.858 257.541 425.706 264.536 410.571C277.942 381.573 295.307 355.682 316.63 332.899Z" fill="#1AA6C3"/>
<path d="M246.575 489.036C252.795 496.841 257.04 504.364 263.488 513.847C266.031 517.582 269.546 519.422 274.033 519.369C290.923 519.154 307.809 519.042 324.69 519.033C325.191 519.033 325.411 519.279 325.348 519.772C323.279 535.018 320.996 549.956 321.103 565.203C321.103 565.573 320.956 565.929 320.694 566.191C320.432 566.453 320.077 566.6 319.706 566.6C306.264 566.627 293.099 566.618 280.212 566.573C273.764 566.56 270.93 567.446 267.115 572.269C260.761 580.329 257.617 590.498 251.653 598.8C249.41 590.458 246.925 582.089 245.662 573.572C245.25 570.76 244.798 567.957 244.305 565.163C243.32 559.485 242.774 553.753 242.666 547.968C242.523 540.365 242.46 532.762 242.478 525.158C242.487 522.212 242.805 517.971 243.432 512.437C244.345 504.323 243.472 497.701 246.575 489.036Z" fill="#1AA6C3"/>
<path d="M776.075 489.048C777.848 496.383 778.766 501.026 778.829 502.979C779.03 509.467 780.186 516.116 780.199 522.255C780.199 535.393 780.844 548.88 779.03 561.427C777.4 572.729 775.094 583.896 772.112 594.93C771.924 595.655 771.333 596.3 770.809 596.824C766.51 590.026 762.498 583.072 758.773 575.962C756.046 570.777 752.943 567.015 746.884 566.948C729.994 566.76 713.162 566.621 696.389 566.532C696.211 566.53 696.036 566.493 695.873 566.423C695.709 566.353 695.562 566.251 695.438 566.124C695.314 565.996 695.217 565.846 695.152 565.681C695.087 565.515 695.055 565.339 695.059 565.161C695.336 550.009 694.092 534.986 691.324 520.093C691.301 519.963 691.305 519.829 691.338 519.701C691.371 519.573 691.432 519.455 691.515 519.353C691.598 519.252 691.703 519.171 691.821 519.115C691.939 519.059 692.067 519.031 692.198 519.031C710.646 519.103 729.211 519.058 747.892 518.897C752.459 518.861 756.024 516.999 758.585 513.309C764.079 505.41 768.929 495.456 776.075 489.048Z" fill="#1AA6C3"/>
<path d="M316.535 709.462C306.415 698.868 297.581 687.732 290.031 676.054C283.78 666.373 277.453 655.774 271.05 644.257C270.629 643.496 270.154 642.412 269.626 641.006C269.16 639.762 268.627 638.687 268.027 637.782C272.89 628.684 277.892 619.616 283.032 610.58C285.495 606.245 288.061 602.081 290.73 598.087C290.927 597.79 291.197 597.549 291.514 597.384C291.831 597.22 292.185 597.138 292.543 597.147L322.687 598.006C322.907 598.009 323.12 598.086 323.293 598.225C323.465 598.363 323.588 598.556 323.641 598.772C329.135 621.327 335.771 642.054 346.84 662.553C348.936 666.431 351.256 670.049 353.799 673.407C354.148 673.873 354.112 674.303 353.691 674.697L316.535 709.462Z" fill="#1AA6C3"/>
<path d="M751.291 630.837C751.229 633.774 752.796 637.213 755.993 641.154C749.76 652.205 743.478 662.678 737.146 672.574C728.361 686.312 718.107 698.876 706.384 710.268L665.52 675.073C664.678 674.347 664.526 673.492 665.063 672.507C669.348 664.769 673.956 656.79 677.368 649.025C684.55 632.753 689.883 615.935 693.367 598.57C693.429 598.277 693.589 598.015 693.822 597.826C694.054 597.638 694.344 597.535 694.643 597.536L730.47 597.831C730.962 597.84 731.383 598.015 731.732 598.355C732.512 599.107 733.304 600.128 734.11 601.418C741.552 613.391 747.279 623.198 751.291 630.837Z" fill="#1AA6C3"/>
<path d="M751.29 630.837L756.503 639.219C756.153 639.551 755.983 640.195 755.992 641.154C752.795 637.213 751.228 633.774 751.29 630.837Z" fill="#A8DAEF"/>
<path d="M679.785 733.252C639.163 764.915 586.813 784.07 536.653 788.342C515.169 790.169 492.762 789.502 469.433 786.341C431.592 781.209 395.805 768.34 363.283 748.19C355.993 743.677 349.066 738.644 342.502 733.091C342.198 732.831 341.875 732.818 341.535 733.051L341.186 733.293C341.159 730.507 342.296 728.179 344.598 726.307C354.547 718.22 364.089 709.534 373.224 700.247C373.391 700.077 373.591 699.942 373.81 699.85C374.03 699.758 374.266 699.71 374.504 699.708C374.742 699.707 374.978 699.753 375.199 699.843C375.42 699.933 375.62 700.066 375.79 700.233C377.258 701.711 378.879 703.296 380.653 704.989C387.978 711.974 395.769 718.355 404.026 724.131C428.462 741.205 457.639 751.132 487.286 754.114C492.471 754.634 502.546 754.781 517.511 754.558C525.347 754.441 533.138 753.886 540.885 752.892C576.779 748.284 608.938 731.305 635.899 707.675C638.881 705.06 641.361 702.553 643.341 700.153C644.353 698.917 645.45 698.836 646.632 699.911L679.14 729.478C679.49 729.8 679.673 730.198 679.691 730.673L679.785 733.252Z" fill="#1AA6C3"/>
<path d="M624.953 439.09C590.724 431.957 555.879 427.94 523.894 426.543C512.037 426.024 497.372 426.324 479.9 427.443C454.35 429.073 425.056 433.161 392.019 439.708C391.554 439.806 391.294 439.618 391.24 439.144C391.142 438.356 391.428 437.751 392.1 437.33C392.389 437.146 392.618 436.885 392.758 436.578C399.322 422.437 407.293 409.196 416.669 396.856C433.703 374.422 459.427 354.178 487.637 348.979C512.932 344.318 539.893 347.435 562.044 361.11C571.913 367.199 579.19 372.667 583.873 377.512C587.554 381.318 591.15 385.209 594.66 389.185C607.655 403.917 617.936 420.333 625.503 438.432C625.736 438.996 625.553 439.215 624.953 439.09Z" fill="white"/>
<path d="M356.354 592.297C355.709 588.038 354.446 581.711 354.245 576.862C352.7 541.868 356.636 509.118 372.554 475.978C372.734 475.602 373.02 475.351 373.414 475.225C382.146 472.31 392.503 471.182 401.611 469.973C401.683 469.961 401.758 469.969 401.826 469.998C401.894 470.026 401.953 470.074 401.995 470.134C402.037 470.195 402.061 470.266 402.065 470.34C402.068 470.413 402.05 470.487 402.014 470.551C399.372 475.449 396.793 480.433 394.276 485.502C383.812 506.619 379.352 528.797 379.164 553.636C379.083 565.135 378.707 577.506 379.768 588.159C380.744 597.956 382.45 607.069 384.886 615.496C389.104 630.071 408.354 629.708 414.171 616.665C416.293 611.936 414.56 605.851 413.472 600.907C412.765 597.665 412.286 594.827 412.035 592.391C411.377 586.05 410.409 579.79 410.396 573.463C410.387 565.161 410.392 556.86 410.41 548.558C410.477 519.381 427 469.946 459.911 462.424C470.255 460.059 480.612 458.604 490.982 458.058C491.11 458.05 491.238 458.069 491.359 458.113C491.479 458.157 491.589 458.225 491.682 458.313C491.775 458.401 491.85 458.508 491.9 458.625C491.951 458.743 491.977 458.87 491.976 458.998L492.003 720.289C492.003 721.346 491.479 721.807 490.432 721.673C478.019 720.047 465.996 718.126 454.739 714.231C444.279 710.622 434.84 706.068 426.422 700.569C388.204 675.623 363.205 637.15 356.354 592.297Z" fill="white"/>
<path d="M570.95 711.518C556.979 717.061 542.261 720.469 526.794 721.74C525.988 721.803 525.585 721.432 525.585 720.626L525.612 459.294C525.612 459.168 525.637 459.044 525.686 458.928C525.735 458.812 525.807 458.707 525.897 458.62C525.987 458.532 526.094 458.463 526.211 458.418C526.329 458.372 526.454 458.35 526.58 458.354C538.387 458.717 551.109 459.952 562.46 463.66C579.319 469.168 592.658 491.359 598.233 507.412C602.961 521.016 605.594 533.867 606.131 545.966C606.311 550.023 606.423 559.126 606.467 573.276C606.508 584.291 604.681 594.205 602.625 604.763C601.622 609.913 601.466 613.71 602.155 616.155C605.567 628.11 621.244 629.803 628.323 620.722C630.07 618.483 631.583 614.57 632.864 608.981C635.855 595.924 637.341 585.106 637.324 576.527C637.297 561.213 637.794 546.664 635.779 530.585C633.065 509.038 626.08 488.834 615.253 469.987C615.218 469.924 615.202 469.853 615.206 469.781C615.211 469.71 615.236 469.641 615.278 469.583C615.321 469.525 615.379 469.481 615.446 469.455C615.512 469.429 615.585 469.422 615.656 469.436L643.113 474.85C643.377 474.904 643.625 475.018 643.839 475.183C644.053 475.348 644.227 475.561 644.349 475.804C655.633 498.466 662.081 526.931 662.148 553.018C662.215 575.224 661.88 598.571 655.109 619.083C648.325 639.636 636.101 660.458 621.795 676.121C613.332 685.377 605.769 690.71 597.091 697.668C591.368 702.253 582.655 706.87 570.95 711.518Z" fill="white"/>
<path d="M460.34 688.278C446.114 707.367 414.183 674.643 406.593 664.219C397.888 652.25 407.936 638.615 421.8 640.093C426.824 640.63 433.755 649.523 437.194 653.177C440.033 656.195 445.554 660.435 453.757 665.898C457.975 668.71 460.635 671.16 461.737 673.246C464.276 678.042 463.631 683.872 460.34 688.278Z" fill="#001117"/>
<path d="M600.798 640.241C600.905 640.259 601.133 640.232 601.483 640.16C601.698 640.115 601.904 640.115 602.101 640.16C608.638 641.853 612.605 646.053 614.002 652.761C616.729 665.939 590.655 684.987 580.809 690.226C572.319 694.74 563.52 697.104 556.938 688.923C554.511 685.905 553.526 682.56 553.983 678.888C554.502 674.76 556.553 671.513 560.135 669.149C569.932 662.674 580.025 653.979 590.414 643.062C592.957 640.393 596.418 639.453 600.798 640.241Z" fill="#001117"/>
</svg>
