<svg width="1024" height="1024" viewBox="0 0 1024 1024" fill="none" xmlns="http://www.w3.org/2000/svg">
<rect width="1024" height="1024" fill="white"/>
<path d="M243.211 597.597C243.237 594.138 244.566 585.491 242.23 582.949C228.769 568.249 245.379 547.444 262.893 553.484C265.629 554.427 268.197 556.35 270.675 558.195C271.062 558.488 271.445 558.475 271.824 558.156L296.268 537.145C296.543 536.908 296.741 536.594 296.838 536.245C296.934 535.896 296.925 535.526 296.81 535.184C293.411 524.79 291.944 514.125 292.409 503.19C292.426 502.682 292.185 502.424 291.686 502.415L267.874 502.157C267.491 502.157 267.121 502.289 266.829 502.531C265.659 503.512 264.467 504.454 263.254 505.358C250.167 515.153 231.712 511.011 225.065 496.065C212.972 468.847 250.077 447.048 267.397 471.363C267.621 471.682 267.926 471.841 268.313 471.841L291.338 471.673C291.862 471.664 292.168 471.398 292.254 470.873C292.839 467.035 294.013 463.396 295.777 459.954C295.923 459.664 295.989 459.342 295.971 459.018C295.953 458.694 295.851 458.381 295.674 458.109C290.937 450.881 286.162 442.428 285.427 433.962C283.775 415.093 293.17 395.424 308.167 384.506C308.511 384.247 308.688 383.903 308.696 383.473C308.929 362.578 318.26 346.381 333.269 332.468C333.317 332.423 333.355 332.368 333.382 332.308C333.408 332.248 333.423 332.184 333.424 332.119C333.425 332.054 333.413 331.989 333.389 331.93C333.365 331.87 333.328 331.816 333.282 331.771L317.653 316.413C317.326 316.095 316.956 316.03 316.543 316.22C302.204 322.905 287.208 323.383 273.837 315.91C260.118 308.244 249.303 291.724 249.574 275.759C249.78 263.731 253.768 253.182 261.538 244.114C279.748 222.857 315.252 224.819 331.992 246.927C342.549 260.9 344.932 276.233 339.142 292.924C339.004 293.311 339.081 293.651 339.374 293.944L360.282 314.477C360.468 314.661 360.689 314.805 360.933 314.9C361.177 314.994 361.438 315.038 361.7 315.029C361.962 315.019 362.22 314.956 362.458 314.843C362.695 314.731 362.908 314.571 363.082 314.374C367.797 309.005 373.175 304.17 379.215 299.868C383.822 296.59 388.378 295.144 394.367 293.286C405.595 289.81 416.922 289.823 428.348 293.324C428.761 293.445 429.122 293.355 429.432 293.053C447.488 275.166 475.094 271.862 496.802 285.413C496.896 285.474 497.005 285.508 497.117 285.511C497.229 285.515 497.34 285.488 497.438 285.434C497.536 285.38 497.617 285.3 497.673 285.203C497.729 285.106 497.758 284.996 497.757 284.884L497.692 253.677C497.692 253.425 497.615 253.182 497.473 252.98C496.776 251.991 496.04 251.049 495.266 250.154C487.17 240.818 486.559 231.143 493.433 221.128C497.537 215.165 504.726 212.107 512.005 212.003C522.313 211.849 529.531 216.908 533.661 227.181C537.249 236.099 534.152 244.669 528.073 251.418C527.442 252.116 527.092 253.022 527.092 253.961L527.131 284.471C527.131 284.884 527.312 284.991 527.673 284.794C549.936 272.3 576.78 274.972 594.939 293.144C595.249 293.453 595.615 293.544 596.036 293.415C621.487 285.929 646.434 295.622 662.425 316.052C662.473 316.11 662.533 316.157 662.6 316.191C662.667 316.225 662.741 316.244 662.817 316.248C662.892 316.252 662.967 316.239 663.037 316.212C663.108 316.185 663.172 316.144 663.225 316.091L685.256 294.202C685.548 293.909 685.626 293.565 685.488 293.17C683.853 288.394 682.915 285.125 682.675 283.361C677.357 243.843 716.63 216.353 751.593 235.131C769.752 244.875 779.96 267.77 773.469 287.994C764.331 316.491 736.364 328.287 709.016 316.942C708.603 316.77 708.263 316.504 707.996 316.142L707.712 315.781C707.671 315.726 707.619 315.68 707.558 315.647C707.498 315.614 707.431 315.594 707.363 315.589C707.294 315.584 707.225 315.594 707.161 315.618C707.096 315.643 707.038 315.68 706.99 315.729L691.167 331.087C690.659 331.578 690.659 332.068 691.167 332.559C705.854 346.833 715.107 361.636 716.333 382.273C716.392 383.177 716.793 384.026 717.456 384.648C729.098 395.54 736.841 406.201 739.229 422.424C741.294 436.427 736.66 446.997 728.465 457.864C728.369 457.991 728.31 458.142 728.297 458.299C728.283 458.457 728.315 458.615 728.388 458.754C730.358 462.669 731.563 466.803 732.001 471.157C732.011 471.266 732.062 471.368 732.143 471.442C732.224 471.516 732.33 471.557 732.44 471.557L755.632 471.544C756.063 471.535 756.437 471.385 756.755 471.092C760.821 467.337 763.608 464.446 768.9 462.355C780.283 457.876 791.898 462.6 798.132 472.925C813.761 498.789 779.096 523.065 759.156 504.132C757.865 502.906 757.813 502.26 755.839 502.299C748.775 502.445 741.548 502.497 734.157 502.454C733.813 502.45 733.482 502.583 733.236 502.822C732.989 503.061 732.847 503.388 732.84 503.732C732.565 514.762 730.707 525.504 727.265 535.958C727.11 536.431 727.226 536.823 727.613 537.132L753.438 557.911C753.903 558.281 754.32 558.238 754.69 557.782C756.85 555.192 759.543 553.527 762.769 552.787C781.625 548.425 795.99 568.843 781.715 584.046C781.414 584.364 781.272 584.738 781.29 585.169L781.819 597.597C781.836 598.113 782.081 598.475 782.554 598.681C811.993 611.652 790.737 652.125 764.925 636.483C764.811 636.416 764.682 636.38 764.55 636.377C764.419 636.375 764.29 636.407 764.176 636.47L750.263 643.956C749.85 644.179 749.631 644.528 749.605 645.001C749.102 654.474 740.223 660.475 731.163 659.533C724.993 658.901 719.715 652.603 718.282 647.053C716.037 638.329 720.864 630.353 729.291 627.423C731.098 626.791 732.595 627.01 734.557 627.088C734.996 627.105 735.361 626.95 735.654 626.623L752.767 607.87C753.367 607.212 753.715 606.357 753.748 605.457L754.071 595.532C754.078 595.322 754.028 595.114 753.926 594.932C753.823 594.75 753.672 594.6 753.49 594.5C751.128 593.158 748.895 591.828 746.792 590.112C735.804 581.112 724.839 572.091 713.894 563.048C713.541 562.755 713.219 562.785 712.926 563.138C698.059 580.871 681.035 586.046 658.695 587.414C658.222 587.449 657.947 587.703 657.869 588.176C656.123 599.593 654.384 610.985 652.655 622.351C649.842 640.794 645.544 657.778 634.548 673.291C620.807 692.71 602.274 704.649 578.949 709.105C578.753 709.142 578.576 709.245 578.448 709.399C578.321 709.552 578.251 709.745 578.252 709.944L578.329 781.96C578.329 782.1 578.385 782.235 578.484 782.334C578.583 782.433 578.718 782.489 578.858 782.489C590.379 782.481 601.969 782.489 613.627 782.515C618.815 782.524 622.649 783.134 625.126 784.348C634.509 788.955 634.922 805.643 624.752 809.863C622.739 810.689 619 811.136 613.537 811.205C544.709 812.057 475.804 811.541 406.976 811.308C403.25 811.3 400.488 810.87 398.69 810.018C385.874 803.952 389.411 783.238 404.33 782.812C418.105 782.407 431.824 782.218 445.487 782.244C445.584 782.244 445.68 782.225 445.769 782.188C445.858 782.151 445.939 782.097 446.008 782.028C446.076 781.96 446.13 781.879 446.167 781.79C446.204 781.701 446.223 781.605 446.223 781.508L446.197 709.906C446.197 709.807 446.164 709.712 446.103 709.635C446.042 709.557 445.957 709.503 445.862 709.48C404.098 700.833 379.06 670.181 373.252 628.869C372.091 620.548 370.181 608.305 367.522 592.138C367.221 590.34 366.877 588.856 366.489 587.685C366.335 587.212 366.008 586.98 365.509 586.988C343.723 587.599 325.939 579.654 312.155 563.151C312.044 563.019 311.887 562.936 311.715 562.919C311.544 562.902 311.373 562.953 311.239 563.061L270.894 595.081C270.585 595.33 270.43 595.653 270.43 596.049V606.58C270.43 606.941 270.559 607.247 270.817 607.496C276.341 612.891 281.671 618.436 286.808 624.132C287.453 624.855 287.823 625.578 287.917 626.3C287.941 626.483 288.003 626.658 288.099 626.815C288.195 626.972 288.323 627.108 288.474 627.213C288.626 627.319 288.798 627.392 288.98 627.428C289.162 627.464 289.349 627.462 289.531 627.423C297.842 625.616 305.199 631.656 306.373 639.748C308.038 651.157 297.945 662.631 285.982 658.682C279.408 656.513 275.979 651.983 275.695 645.091C275.678 644.592 275.446 644.235 274.999 644.02C270.43 641.783 266.218 639.013 262.364 635.709C262.011 635.416 261.649 635.395 261.279 635.644C250.012 643.078 234.345 639.026 229.582 626.352C225.233 614.775 231.324 603.056 242.656 598.423C243.026 598.268 243.211 597.993 243.211 597.597Z" fill="#00101B"/>
<path d="M447.902 255.125C444.143 255.434 440.411 254.192 437.528 251.673C434.644 249.154 432.846 245.563 432.527 241.691C432.209 237.819 433.397 233.983 435.83 231.027C438.263 228.07 441.742 226.236 445.502 225.927C449.261 225.618 452.993 226.859 455.876 229.379C458.759 231.898 460.558 235.488 460.876 239.36C461.195 243.232 460.007 247.068 457.574 250.025C455.14 252.981 451.661 254.816 447.902 255.125Z" fill="#00101B"/>
<path d="M574.543 254.913C572.688 254.576 570.92 253.87 569.338 252.837C567.756 251.803 566.392 250.461 565.323 248.888C564.254 247.315 563.502 245.542 563.11 243.669C562.717 241.796 562.691 239.86 563.035 237.973C563.727 234.16 565.879 230.775 569.017 228.56C572.155 226.346 576.022 225.484 579.767 226.164C581.621 226.501 583.39 227.207 584.972 228.241C586.554 229.274 587.918 230.616 588.986 232.189C590.055 233.762 590.807 235.536 591.2 237.409C591.592 239.282 591.618 241.217 591.275 243.105C590.582 246.917 588.43 250.303 585.292 252.517C582.154 254.732 578.287 255.593 574.543 254.913Z" fill="#00101B"/>
<path d="M389.088 269.05C385.378 270.093 381.397 269.589 378.021 267.649C374.644 265.709 372.15 262.493 371.086 258.706C370.559 256.832 370.399 254.874 370.615 252.944C370.831 251.014 371.419 249.151 372.346 247.46C373.272 245.769 374.519 244.284 376.015 243.09C377.51 241.895 379.226 241.015 381.063 240.498C384.773 239.455 388.754 239.959 392.131 241.899C395.507 243.839 398.001 247.055 399.066 250.842C399.593 252.716 399.753 254.674 399.536 256.604C399.32 258.534 398.732 260.397 397.806 262.088C396.879 263.779 395.632 265.264 394.137 266.458C392.641 267.653 390.926 268.533 389.088 269.05Z" fill="#00101B"/>
<path d="M645.742 268.21C642.29 269.954 638.271 270.226 634.571 268.966C630.87 267.706 627.791 265.017 626.01 261.492C624.229 257.966 623.892 253.892 625.074 250.166C626.256 246.439 628.86 243.366 632.312 241.622C635.764 239.878 639.783 239.606 643.483 240.866C647.184 242.126 650.263 244.815 652.044 248.341C653.825 251.866 654.162 255.94 652.98 259.667C651.798 263.393 649.195 266.466 645.742 268.21Z" fill="#00101B"/>
<path d="M248.319 347.082C250.665 350.508 251.521 354.748 250.7 358.868C249.878 362.989 247.446 366.653 243.938 369.055C240.43 371.457 236.134 372.4 231.995 371.675C227.856 370.951 224.213 368.62 221.867 365.194C219.522 361.768 218.666 357.529 219.487 353.408C220.309 349.287 222.741 345.623 226.249 343.221C229.757 340.819 234.053 339.877 238.192 340.601C242.331 341.325 245.974 343.656 248.319 347.082Z" fill="#00101B"/>
<path d="M804.211 356.022C804.211 360.225 802.541 364.257 799.569 367.229C796.597 370.201 792.566 371.871 788.362 371.871C784.159 371.871 780.128 370.201 777.156 367.229C774.183 364.257 772.514 360.225 772.514 356.022C772.514 351.819 774.183 347.788 777.156 344.815C780.128 341.843 784.159 340.173 788.362 340.173C792.566 340.173 796.597 341.843 799.569 344.815C802.541 347.788 804.211 351.819 804.211 356.022Z" fill="#00101B"/>
<path d="M263.242 415.041C263.242 416.972 262.862 418.883 262.123 420.667C261.384 422.45 260.301 424.071 258.936 425.436C257.571 426.801 255.951 427.884 254.167 428.622C252.384 429.361 250.472 429.741 248.542 429.741C244.643 429.741 240.904 428.193 238.147 425.436C235.391 422.679 233.842 418.94 233.842 415.041C233.842 411.143 235.391 407.404 238.147 404.647C240.904 401.89 244.643 400.341 248.542 400.341C250.472 400.341 252.384 400.722 254.167 401.46C255.951 402.199 257.571 403.282 258.936 404.647C260.301 406.012 261.384 407.632 262.123 409.416C262.862 411.199 263.242 413.111 263.242 415.041Z" fill="#00101B"/>
<path d="M789.989 414.977C789.989 418.882 788.437 422.628 785.676 425.389C782.914 428.151 779.168 429.703 775.263 429.703C771.357 429.703 767.612 428.151 764.85 425.389C762.089 422.628 760.537 418.882 760.537 414.977C760.537 411.071 762.089 407.326 764.85 404.564C767.612 401.802 771.357 400.251 775.263 400.251C779.168 400.251 782.914 401.802 785.676 404.564C788.437 407.326 789.989 411.071 789.989 414.977Z" fill="#00101B"/>
<path d="M665.045 677.073C654.578 664.425 659.573 646.072 675.164 640.936C684.095 637.993 693.864 643.091 698.278 651.093C704.077 661.633 702.529 670.589 693.632 677.963C693.275 678.263 692.985 678.635 692.783 679.053C692.581 679.472 692.47 679.927 692.458 680.389C692.303 687.539 693.568 699.206 690.509 704.833C687.282 710.77 679.926 712.784 673.744 710.448C668.298 708.391 665.592 703.904 665.626 696.987C665.66 690.714 665.604 684.442 665.458 678.17C665.45 677.757 665.312 677.391 665.045 677.073Z" fill="#00101B"/>
<path d="M331.166 678.066C316.466 668.619 322.028 645.569 337.864 641.271C356.268 636.277 373.614 656.578 361.676 673.072C360.729 674.379 359.8 675.704 358.888 677.047C358.639 677.408 358.514 677.808 358.514 678.247C358.454 685.474 358.479 692.689 358.591 699.89C358.626 701.809 357.735 703.831 355.92 705.956C349.815 713.119 338.316 713.687 333.399 705.182C332.272 703.229 331.708 700.45 331.708 696.845C331.708 690.942 331.76 685.122 331.863 679.383C331.88 678.815 331.648 678.376 331.166 678.066Z" fill="#00101B"/>
<path d="M251.962 699.71C251.962 704.081 250.226 708.273 247.135 711.364C244.044 714.454 239.852 716.191 235.481 716.191C233.317 716.191 231.174 715.765 229.174 714.936C227.174 714.108 225.358 712.894 223.827 711.364C220.736 708.273 219 704.081 219 699.71C219 695.339 220.736 691.147 223.827 688.056C226.918 684.965 231.11 683.229 235.481 683.229C239.852 683.229 244.044 684.965 247.135 688.056C250.226 691.147 251.962 695.339 251.962 699.71Z" fill="#00101B"/>
<path d="M804.753 699.71C804.753 704.084 803.016 708.28 799.922 711.373C796.829 714.466 792.634 716.204 788.26 716.204C783.885 716.204 779.69 714.466 776.597 711.373C773.503 708.28 771.766 704.084 771.766 699.71C771.766 695.335 773.503 691.14 776.597 688.047C779.69 684.954 783.885 683.216 788.26 683.216C792.634 683.216 796.829 684.954 799.922 688.047C803.016 691.14 804.753 695.335 804.753 699.71Z" fill="#00101B"/>
<path d="M347.466 750.547C347.463 752.139 347.147 753.714 346.535 755.183C345.924 756.653 345.029 757.987 343.901 759.111C342.774 760.234 341.436 761.124 339.965 761.731C338.494 762.337 336.917 762.648 335.326 762.645L314.289 762.608C312.698 762.606 311.122 762.289 309.653 761.678C308.184 761.066 306.849 760.171 305.726 759.044C304.603 757.917 303.712 756.579 303.106 755.108C302.499 753.636 302.189 752.06 302.191 750.468L302.194 749.049C302.197 747.457 302.513 745.882 303.124 744.413C303.736 742.944 304.631 741.609 305.758 740.486C306.886 739.362 308.223 738.472 309.695 737.866C311.166 737.259 312.742 736.948 314.334 736.951L335.371 736.988C336.962 736.991 338.537 737.307 340.007 737.918C341.476 738.53 342.81 739.425 343.934 740.552C345.057 741.68 345.947 743.017 346.554 744.489C347.16 745.96 347.471 747.536 347.468 749.128L347.466 750.547Z" fill="#00101B"/>
<path d="M712.554 750.323C712.56 753.506 711.3 756.561 709.053 758.816C706.806 761.071 703.756 762.341 700.572 762.346L674.864 762.391C673.287 762.394 671.726 762.086 670.269 761.485C668.812 760.885 667.487 760.003 666.37 758.89C665.254 757.778 664.367 756.456 663.762 755.001C663.156 753.546 662.843 751.986 662.84 750.409L662.838 749.145C662.832 745.961 664.092 742.906 666.339 740.651C668.586 738.397 671.636 737.127 674.819 737.121L700.528 737.076C702.105 737.073 703.666 737.381 705.123 737.982C706.58 738.582 707.905 739.464 709.022 740.577C710.138 741.689 711.024 743.011 711.63 744.466C712.236 745.921 712.549 747.482 712.552 749.058L712.554 750.323Z" fill="#00101B"/>
<path d="M282.427 747.87C282.945 751.136 282.09 754.482 280.051 757.172C278.012 759.862 274.955 761.676 271.554 762.215C269.87 762.482 268.152 762.427 266.498 762.055C264.845 761.683 263.287 761 261.915 760.045C260.543 759.09 259.384 757.882 258.503 756.49C257.622 755.098 257.036 753.549 256.78 751.932C256.263 748.667 257.118 745.321 259.157 742.63C261.196 739.94 264.253 738.126 267.654 737.588C269.338 737.321 271.056 737.375 272.709 737.748C274.363 738.12 275.921 738.803 277.292 739.758C278.664 740.713 279.824 741.921 280.705 743.313C281.586 744.705 282.171 746.253 282.427 747.87Z" fill="#FFA602"/>
<path d="M762.963 750.069C762.963 753.482 761.608 756.755 759.194 759.168C756.781 761.581 753.508 762.936 750.096 762.936C746.683 762.936 743.41 761.581 740.997 759.168C738.584 756.755 737.229 753.482 737.229 750.069C737.229 746.657 738.584 743.384 740.997 740.971C743.41 738.557 746.683 737.202 750.096 737.202C753.508 737.202 756.781 738.557 759.194 740.971C761.608 743.384 762.963 746.657 762.963 750.069Z" fill="#FFA602"/>
<path d="M371.783 797.799C371.789 799.57 371.447 801.325 370.774 802.964C370.102 804.602 369.114 806.093 367.866 807.349C366.618 808.606 365.135 809.605 363.501 810.288C361.867 810.972 360.114 811.327 358.343 811.333L313.302 811.49C309.725 811.502 306.289 810.094 303.751 807.573C301.213 805.053 299.78 801.627 299.768 798.05L299.764 796.915C299.758 795.144 300.1 793.389 300.772 791.75C301.444 790.111 302.433 788.621 303.681 787.364C304.929 786.108 306.412 785.109 308.046 784.426C309.68 783.742 311.432 783.387 313.203 783.381L358.245 783.224C361.822 783.211 365.258 784.62 367.796 787.141C370.334 789.661 371.767 793.086 371.779 796.663L371.783 797.799Z" fill="#00101B"/>
<path d="M721.859 797.85C721.862 799.611 721.519 801.355 720.848 802.983C720.176 804.611 719.191 806.091 717.948 807.339C716.705 808.586 715.229 809.576 713.603 810.253C711.977 810.93 710.234 811.28 708.473 811.283L664.49 811.36C662.729 811.363 660.984 811.019 659.356 810.348C657.728 809.677 656.248 808.692 655.001 807.449C653.754 806.206 652.763 804.729 652.087 803.103C651.41 801.478 651.06 799.735 651.057 797.974L651.055 796.786C651.052 795.025 651.395 793.281 652.066 791.653C652.738 790.025 653.723 788.545 654.966 787.298C656.209 786.05 657.685 785.06 659.311 784.383C660.937 783.707 662.68 783.357 664.441 783.354L708.424 783.277C710.185 783.274 711.93 783.617 713.558 784.289C715.186 784.96 716.666 785.945 717.913 787.188C719.16 788.431 720.151 789.907 720.828 791.533C721.504 793.159 721.854 794.902 721.857 796.663L721.859 797.85Z" fill="#00101B"/>
<path d="M277.956 797.576C277.956 801.345 276.459 804.959 273.794 807.624C271.13 810.289 267.515 811.786 263.747 811.786C259.978 811.786 256.364 810.289 253.699 807.624C251.034 804.959 249.537 801.345 249.537 797.576C249.537 793.808 251.034 790.193 253.699 787.529C256.364 784.864 259.978 783.367 263.747 783.367C267.515 783.367 271.13 784.864 273.794 787.529C276.459 790.193 277.956 793.808 277.956 797.576Z" fill="#00101B"/>
<path d="M762.264 811.371C758.692 812.483 754.818 812.11 751.494 810.334C748.17 808.558 745.668 805.524 744.539 801.9C743.411 798.276 743.747 794.358 745.474 791.009C747.202 787.659 750.179 785.153 753.751 784.04C757.323 782.927 761.197 783.3 764.521 785.076C767.845 786.852 770.347 789.886 771.476 793.51C772.604 797.135 772.268 801.052 770.541 804.402C768.813 807.751 765.836 810.258 762.264 811.371Z" fill="#00101B"/>
<path d="M298.526 258.775C298.552 263.223 297.468 266.923 295.274 269.874C291.841 274.495 284.368 276.018 278.729 277.592" stroke="#FFD381" stroke-width="2"/>
<path d="M732.273 258.865C731.455 263.339 730.483 266.544 729.356 268.48C726.013 274.198 718.141 276.379 711.984 276.301" stroke="#FFD381" stroke-width="2"/>
<path d="M515.335 365.456C516.006 370.128 515.567 373.187 512.302 376.917C509.85 379.705 507.101 384.415 503.074 384.996C500.114 385.418 496.927 385.405 493.511 384.957" stroke="#FFD381" stroke-width="2"/>
<path d="M592.72 599.649C593.184 599.847 593.378 600.032 593.301 600.204C592.681 601.676 592.217 603.082 592.217 604.76C592.234 612.736 591.735 620.024 590.719 626.623C588.332 642.175 578.213 654.732 565.32 663.379C553.619 671.226 540.36 676.871 525.544 680.312" stroke="#5A8299" stroke-width="2"/>
<path d="M522.471 782.115C522.36 781.943 522.484 781.805 522.846 781.702C522.889 781.693 522.893 781.676 522.859 781.65C522.773 781.573 522.699 781.483 522.639 781.379C522.579 781.276 522.545 781.147 522.536 780.992C522.329 766.976 522.334 752.956 522.549 738.931C522.558 738.467 522.506 738.075 522.394 737.757C522.338 737.594 522.233 737.453 522.094 737.354C521.955 737.254 521.789 737.201 521.62 737.202L475.055 737.047" stroke="#5A8299" stroke-width="2"/>
<path d="M298.526 258.775C298.552 263.223 297.468 266.923 295.274 269.874C291.841 274.495 284.368 276.017 278.728 277.592C277.498 271.896 278.784 266.992 282.587 262.879C286.967 258.147 292.28 256.779 298.526 258.775Z" fill="white"/>
<path d="M732.272 258.865C731.455 263.339 730.482 266.544 729.355 268.48C726.013 274.198 718.14 276.379 711.984 276.301C710.319 271.681 713.236 265.783 716.41 262.427C720.79 257.816 726.077 256.628 732.272 258.865Z" fill="white"/>
<path d="M732.273 258.865C741.784 261.24 748.947 271.281 745.295 280.612C738.803 297.222 714.178 294.034 711.984 276.301C718.141 276.379 726.013 274.198 729.356 268.48C730.483 266.544 731.455 263.339 732.273 258.865Z" fill="#FFA602"/>
<path d="M298.526 258.775C301.185 259.343 303.814 260.814 306.412 263.189C312.478 268.739 314.427 275.734 310.49 283.245C302.772 297.997 282.523 292.718 278.729 277.592C284.368 276.018 291.841 274.495 295.274 269.874C297.468 266.923 298.552 263.223 298.526 258.775Z" fill="#FFA602"/>
<path d="M324.609 443.59C313.161 434.697 309.522 423.469 320.053 411.26C320.578 410.658 321.142 410.623 321.744 411.157C326.183 415.145 334.624 415.88 337.915 409.531C339.606 406.252 340.47 399.735 339.761 396.121C336.224 378.208 340.316 362.527 352.731 349.363C352.794 349.293 352.871 349.238 352.956 349.2C353.042 349.162 353.135 349.142 353.23 349.14C353.326 349.139 353.421 349.157 353.51 349.193C353.599 349.229 353.681 349.282 353.751 349.35C360.23 355.596 366.687 361.963 373.123 368.451C374.246 369.586 374.994 370.348 376.607 370.787C386.02 373.299 392.628 370.305 396.431 361.804C400.922 351.737 389.681 343.064 383.086 337.347C382.807 337.104 382.629 336.764 382.586 336.395C382.543 336.025 382.639 335.652 382.854 335.347C391.553 323.047 409.285 314.168 423.572 323.512C423.891 323.727 424.119 324.015 424.256 324.376C426.696 330.817 434.775 334.921 440.544 330.352C444.635 327.138 444.945 319.859 447.668 316.362C457.477 303.753 474.087 303.069 486.309 312.671C493.601 318.388 497.498 328.222 498.75 337.799C498.81 338.272 498.612 338.577 498.156 338.715C484.123 343.103 474.25 352.305 468.537 366.321C457.786 392.649 471.531 418.926 497.266 429.29C497.404 429.341 497.472 429.44 497.472 429.587L497.589 456.276C497.589 456.732 497.373 457.033 496.943 457.18C483.469 461.839 475.442 474.022 473.777 487.922C471.764 504.751 480.54 519.813 496.091 527.027C496.461 527.208 496.642 527.5 496.634 527.905C496.117 545.534 487.896 565.577 471.596 573.218C458.728 579.245 444.764 577.399 433.82 568.094C431.458 566.081 427.715 567.087 425.263 569.204C408.459 583.646 379.214 576.057 371.639 555.02C370.193 550.994 372.284 545.147 369.728 540.682C367.526 536.836 363.904 535.493 358.862 536.655C350.305 538.63 351.686 549.871 352.447 556.066C352.459 556.161 352.446 556.258 352.41 556.348C352.374 556.437 352.316 556.516 352.241 556.577C352.166 556.637 352.077 556.678 351.982 556.695C351.887 556.711 351.79 556.704 351.699 556.672C333.437 550.413 317.653 528.989 325.887 509.514C327.848 504.867 331.514 501.899 334.96 498.272C338.212 494.852 337.05 487.483 333.153 484.915C328.287 481.688 323.112 482.772 318.091 485.224C317.903 485.317 317.697 485.365 317.489 485.365C317.28 485.365 317.076 485.317 316.891 485.224C315.403 484.476 314.31 483.332 313.613 481.791C307.973 469.376 315.665 456.534 324.738 448.765C325.114 448.442 325.413 448.039 325.614 447.587C325.815 447.134 325.913 446.642 325.901 446.147C325.888 445.651 325.766 445.165 325.543 444.723C325.319 444.28 325 443.893 324.609 443.59Z" fill="white"/>
<path d="M602.567 321.899C617.293 315.097 632.148 323.796 641.375 335.979C641.616 336.289 641.586 336.577 641.285 336.844C636.226 341.348 627.94 347.117 627.05 354.422C626.095 362.204 630.818 369.199 638.226 371.277C645.479 373.303 652.165 368.657 657.121 363.198C660.743 359.214 664.834 354.994 669.394 350.537C670.272 349.677 671.162 349.664 672.066 350.498C681.444 359.137 686.219 370.06 686.392 383.267C686.456 387.9 685.075 393.282 684.559 397.721C683.63 405.517 687.553 415.738 697.517 413.699C699.272 413.338 700.773 412.671 702.021 411.699C702.305 411.476 702.632 411.315 702.981 411.225C703.331 411.136 703.695 411.121 704.051 411.18C704.407 411.24 704.747 411.373 705.048 411.571C705.35 411.769 705.606 412.028 705.802 412.331C714.553 425.87 711.365 434.362 699.672 444.157C698.097 445.482 698.226 446.881 700.059 448.352C701.737 449.703 703.901 452.073 706.551 455.463C713.946 464.949 716.566 474.125 708.396 484.786C708.16 485.091 707.825 485.305 707.449 485.392C707.073 485.479 706.678 485.433 706.331 485.263C699.491 481.817 689.45 482.759 687.566 491.781C686.185 498.389 695.116 503.306 698.162 508.675C701.608 514.779 702.369 520.884 700.356 527.866C696.278 542.045 687.08 551.613 672.763 556.569C672.644 556.608 672.516 556.613 672.395 556.584C672.273 556.555 672.161 556.493 672.072 556.406C671.983 556.318 671.919 556.207 671.889 556.086C671.858 555.964 671.861 555.837 671.898 555.717C673.666 550.271 673.873 542.489 669.743 538.72C664.89 534.28 658.553 535.442 655.172 540.72C653.675 543.044 653.946 546.102 653.739 548.877C652.655 563.371 639.736 574.018 626.017 576.096C615.494 577.688 606.03 575.046 597.624 568.172C594.733 565.81 592.203 567.087 589.467 569.294C584.047 573.648 578.587 576.001 573.089 576.354C545.225 578.122 529.106 556.04 527.97 530.525C527.927 529.587 528.022 528.683 528.254 527.814C528.366 527.41 528.607 527.109 528.977 526.911C543.01 519.314 550.431 507.642 551.24 491.897C551.407 488.606 550.517 483.379 549.394 480.152C545.38 468.55 538.798 462.845 527.97 456.87C527.755 456.749 527.576 456.572 527.451 456.359C527.326 456.146 527.26 455.904 527.26 455.657L527.273 429.548C527.273 429.186 527.441 428.941 527.776 428.812C570.676 412.28 568.624 354.525 526.783 339.128C525.974 338.827 525.651 338.255 525.815 337.412C526.46 334.133 527.196 331.075 528.022 328.235C532.732 312.025 549.342 301.029 566.043 307.96C572.444 310.619 576.905 315.342 579.426 322.131C580.837 325.942 581.797 328.171 582.304 328.816C586.008 333.566 593.571 333.23 597.495 328.829C599.224 326.906 599.598 323.267 602.567 321.899Z" fill="white"/>
<path d="M515.334 365.456C516.005 370.128 515.566 373.187 512.301 376.917C509.849 379.705 507.1 384.415 503.073 384.996C500.113 385.418 496.926 385.405 493.51 384.957C493.295 375.545 497.455 368.988 505.99 365.289C509.079 363.946 512.194 364.002 515.334 365.456Z" fill="white"/>
<path d="M515.335 365.456C521.848 367.229 526.477 371.264 529.222 377.562C536.126 393.359 516.948 408.679 502.635 399.335C497.335 395.884 494.294 391.092 493.511 384.957C496.927 385.405 500.114 385.418 503.074 384.996C507.101 384.415 509.85 379.705 512.302 376.917C515.567 373.187 516.006 370.128 515.335 365.456Z" fill="#FFA602"/>
<path d="M521.952 493.552C521.434 496.032 519.907 498.194 517.707 499.565C515.507 500.935 512.814 501.4 510.22 500.858C507.627 500.316 505.346 498.812 503.878 496.676C502.411 494.539 501.877 491.946 502.395 489.467C502.913 486.987 504.44 484.825 506.64 483.455C508.84 482.085 511.533 481.619 514.127 482.161C516.72 482.703 519.001 484.207 520.469 486.344C521.936 488.48 522.47 491.073 521.952 493.552Z" fill="white"/>
<path d="M592.72 599.649C593.185 599.847 593.378 600.032 593.301 600.204C592.681 601.676 592.217 603.082 592.217 604.76C592.234 612.736 591.735 620.024 590.72 626.623C588.332 642.175 578.214 654.732 565.321 663.379C553.619 671.226 540.36 676.87 525.544 680.312C508.087 680.613 490.375 680.708 472.41 680.596C460.416 680.527 451.877 679.792 446.792 678.389C425.135 672.414 409.609 654.229 404.705 632.444C402.743 623.736 401.56 614.724 401.156 605.405C401.13 604.777 401.427 604.489 402.046 604.541C411.846 605.298 421.16 603.543 429.988 599.275C430.392 599.077 430.805 599.069 431.227 599.249C441.939 603.857 450.805 606.709 462.743 605.47C484.348 603.237 498.687 592.164 510.973 574.986C511.894 573.687 512.802 573.695 513.696 575.012C530.358 599.482 554.983 611.084 584.693 603.353C586.56 602.872 589.236 601.637 592.72 599.649Z" fill="#7FA2B7"/>
<path d="M525.544 680.312C540.36 676.87 553.619 671.226 565.32 663.379C578.213 654.732 588.332 642.175 590.719 626.623C591.735 620.024 592.234 612.736 592.217 604.76C592.217 603.082 592.681 601.676 593.301 600.204C593.378 600.032 593.184 599.847 592.72 599.649C593.064 599.649 593.339 599.688 593.546 599.766C604.477 603.973 612.195 605.212 622.365 604.696C622.476 604.688 622.587 604.704 622.691 604.744C622.796 604.783 622.89 604.844 622.97 604.924C623.049 605.003 623.111 605.098 623.151 605.204C623.192 605.309 623.21 605.422 623.204 605.535C622.43 622.932 619.074 642.781 608.452 657.159C597.727 671.678 579.272 679.512 561.474 680.557C549.859 681.228 537.882 681.147 525.544 680.312Z" fill="#34627B"/>
<path d="M522.471 782.115C522.36 781.943 522.484 781.805 522.846 781.702C522.889 781.693 522.893 781.676 522.859 781.65C522.773 781.573 522.699 781.483 522.639 781.379C522.579 781.276 522.545 781.147 522.536 780.992C522.329 766.976 522.334 752.956 522.549 738.931C522.558 738.467 522.506 738.075 522.394 737.757C522.338 737.594 522.233 737.453 522.094 737.354C521.955 737.254 521.789 737.201 521.62 737.202L475.055 737.047L475.106 711.893C475.115 710.904 475.614 710.413 476.603 710.422L548.116 710.886C548.873 710.895 549.252 711.278 549.252 712.035L549.303 781.56C549.303 781.686 549.278 781.812 549.23 781.928C549.182 782.045 549.111 782.151 549.023 782.24C548.934 782.329 548.828 782.399 548.713 782.446C548.597 782.493 548.473 782.517 548.348 782.515L522.471 782.115Z" fill="#34627B"/>
<path d="M522.471 782.115L476.526 782.037C475.666 782.037 475.235 781.607 475.235 780.747L475.055 737.047L521.62 737.202C521.789 737.201 521.955 737.254 522.094 737.354C522.233 737.453 522.338 737.594 522.394 737.757C522.506 738.075 522.558 738.467 522.549 738.931C522.334 752.956 522.329 766.976 522.536 780.992C522.545 781.147 522.579 781.276 522.639 781.379C522.699 781.483 522.773 781.573 522.859 781.65C522.893 781.676 522.889 781.693 522.846 781.702C522.484 781.805 522.36 781.943 522.471 782.115Z" fill="#7FA2B7"/>
<path d="M597.303 389.705C593.67 390.97 589.67 390.703 586.183 388.962C582.696 387.222 580.008 384.15 578.71 380.423C578.068 378.577 577.785 376.627 577.88 374.682C577.975 372.737 578.445 370.836 579.262 369.089C580.08 367.341 581.23 365.78 582.646 364.495C584.062 363.209 585.717 362.226 587.516 361.599C591.149 360.334 595.149 360.601 598.636 362.342C602.123 364.083 604.811 367.154 606.109 370.881C606.752 372.727 607.034 374.678 606.939 376.622C606.844 378.567 606.375 380.468 605.557 382.216C604.739 383.964 603.59 385.525 602.174 386.81C600.757 388.095 599.102 389.079 597.303 389.705Z" fill="#FF653B"/>
<path d="M447.127 375.884C447.127 379.831 445.559 383.616 442.768 386.407C439.977 389.197 436.192 390.765 432.246 390.765C428.299 390.765 424.514 389.197 421.724 386.407C418.933 383.616 417.365 379.831 417.365 375.884C417.365 371.938 418.933 368.153 421.724 365.362C424.514 362.572 428.299 361.004 432.246 361.004C436.192 361.004 439.977 362.572 442.768 365.362C445.559 368.153 447.127 371.938 447.127 375.884Z" fill="#FF653B"/>
<path d="M401.363 423.633C399.974 430.281 395.943 436.092 390.156 439.789C384.37 443.485 377.301 444.765 370.507 443.345C363.712 441.926 357.747 437.924 353.924 432.219C350.101 426.515 348.734 419.576 350.122 412.928C351.511 406.281 355.542 400.47 361.329 396.773C367.116 393.076 374.184 391.797 380.979 393.216C387.774 394.636 393.739 398.638 397.562 404.342C401.384 410.047 402.752 416.986 401.363 423.633Z" fill="#FFA602"/>
<path d="M674.537 424.133C673.767 427.389 672.345 430.457 670.351 433.162C668.358 435.867 665.832 438.155 662.917 439.898C660.003 441.64 656.758 442.801 653.367 443.315C649.976 443.829 646.506 443.686 643.154 442.893C639.803 442.101 636.636 440.675 633.834 438.697C631.032 436.719 628.65 434.228 626.824 431.365C624.999 428.503 623.765 425.325 623.193 422.014C622.622 418.703 622.724 415.323 623.493 412.067C624.263 408.811 625.685 405.743 627.679 403.038C629.673 400.333 632.199 398.045 635.113 396.302C638.027 394.56 641.272 393.399 644.663 392.885C648.054 392.371 651.524 392.514 654.876 393.307C658.228 394.099 661.395 395.525 664.197 397.503C666.999 399.481 669.38 401.972 671.206 404.835C673.032 407.697 674.265 410.875 674.837 414.186C675.408 417.497 675.306 420.877 674.537 424.133Z" fill="#FFA602"/>
<path d="M618.996 448.391C618.996 455.846 616.035 462.995 610.763 468.267C605.491 473.538 598.342 476.5 590.887 476.5C587.195 476.5 583.54 475.773 580.13 474.36C576.719 472.948 573.621 470.877 571.01 468.267C568.4 465.657 566.33 462.558 564.917 459.147C563.504 455.737 562.777 452.082 562.777 448.391C562.777 444.699 563.504 441.044 564.917 437.634C566.33 434.223 568.4 431.124 571.01 428.514C573.621 425.904 576.719 423.833 580.13 422.421C583.54 421.008 587.195 420.281 590.887 420.281C598.342 420.281 605.491 423.243 610.763 428.514C616.035 433.786 618.996 440.935 618.996 448.391Z" fill="#00C7FF"/>
<path d="M461.955 448.494C461.955 455.932 459 463.065 453.741 468.324C448.481 473.584 441.348 476.539 433.91 476.539C426.472 476.539 419.339 473.584 414.079 468.324C408.82 463.065 405.865 455.932 405.865 448.494C405.865 441.056 408.82 433.923 414.079 428.663C419.339 423.404 426.472 420.449 433.91 420.449C441.348 420.449 448.481 423.404 453.741 428.663C459 433.923 461.955 441.056 461.955 448.494Z" fill="#00C7FF"/>
<path d="M404.613 498.956C404.613 506.22 401.728 513.186 396.592 518.322C391.456 523.458 384.49 526.343 377.226 526.343C369.963 526.343 362.997 523.458 357.861 518.322C352.725 513.186 349.84 506.22 349.84 498.956C349.84 491.693 352.725 484.727 357.861 479.591C362.997 474.455 369.963 471.57 377.226 471.57C384.49 471.57 391.456 474.455 396.592 479.591C401.728 484.727 404.613 491.693 404.613 498.956Z" fill="#FF653B"/>
<path d="M672.262 510.022C669.35 516.624 663.899 521.782 657.108 524.363C650.317 526.944 642.741 526.736 636.049 523.784C632.735 522.323 629.737 520.231 627.227 517.63C624.718 515.029 622.744 511.968 621.421 508.623C620.097 505.278 619.448 501.714 619.512 498.135C619.576 494.556 620.351 491.031 621.793 487.762C624.704 481.16 630.156 476.001 636.947 473.42C643.738 470.839 651.314 471.048 658.006 474C661.32 475.461 664.318 477.552 666.827 480.154C669.337 482.755 671.31 485.815 672.634 489.16C673.958 492.505 674.607 496.069 674.543 499.649C674.479 503.228 673.704 506.753 672.262 510.022Z" fill="#FF653B"/>
<path d="M607.728 530.112C607.728 532.31 607.295 534.487 606.454 536.517C605.613 538.548 604.38 540.394 602.825 541.948C601.271 543.502 599.426 544.735 597.395 545.577C595.364 546.418 593.187 546.851 590.989 546.851C586.55 546.851 582.292 545.087 579.153 541.948C576.014 538.809 574.25 534.551 574.25 530.112C574.25 525.672 576.014 521.415 579.153 518.275C582.292 515.136 586.55 513.373 590.989 513.373C593.187 513.373 595.364 513.806 597.395 514.647C599.426 515.488 601.271 516.721 602.825 518.275C604.38 519.83 605.613 521.675 606.454 523.706C607.295 525.737 607.728 527.913 607.728 530.112Z" fill="#00101B"/>
<path d="M449.914 530.331C449.914 534.726 448.168 538.941 445.061 542.049C441.953 545.156 437.738 546.902 433.343 546.902C428.948 546.902 424.733 545.156 421.625 542.049C418.517 538.941 416.771 534.726 416.771 530.331C416.771 528.155 417.2 526 418.033 523.989C418.866 521.979 420.086 520.152 421.625 518.613C423.164 517.074 424.991 515.854 427.001 515.021C429.012 514.188 431.167 513.76 433.343 513.76C435.519 513.76 437.674 514.188 439.684 515.021C441.695 515.854 443.522 517.074 445.061 518.613C446.599 520.152 447.82 521.979 448.653 523.989C449.486 526 449.914 528.155 449.914 530.331Z" fill="#00101B"/>
<path d="M543.135 653.855C542.042 654.362 540.515 654.633 538.553 654.668C521.027 654.943 503.496 655.046 485.961 654.978C483.371 654.969 480.979 654.285 478.785 652.925C466.963 645.595 470.887 629.966 483.38 626.21C484.972 625.728 487.983 625.47 492.414 625.436C505.053 625.332 517.697 625.307 530.345 625.358C536.247 625.375 540.364 625.9 542.696 626.933C554.815 632.276 555.421 648.034 543.135 653.855Z" fill="#00101B"/>
</svg>
