<svg width="1024" height="1024" viewBox="0 0 1024 1024" fill="none" xmlns="http://www.w3.org/2000/svg">
<rect width="1024" height="1024" fill="white"/>
<path d="M678.161 566.161C677.785 585.952 679.259 609.759 675.746 626.54C668.642 660.587 643.565 687.233 608.906 694.447C607.792 694.682 606.632 694.494 605.785 694.619C605.233 694.712 604.731 694.996 604.369 695.421C604.008 695.846 603.809 696.384 603.809 696.94C603.903 722.984 603.83 748.746 603.589 774.225C603.558 778.021 602.491 783.259 600.39 789.94C594.007 810.218 580.551 811.88 560.116 811.927C512.357 812.053 464.587 812.016 416.806 811.817C407.616 811.786 399.978 811.519 393.047 805.199C383.198 796.229 380.391 783.18 380.359 770.085C380.276 745.683 380.244 721.102 380.265 696.344C380.265 695.962 380.127 695.593 379.876 695.305C379.625 695.017 379.279 694.829 378.901 694.776C348.366 690.62 329.782 672.945 314.679 647.367C306.226 633.064 304.282 617.946 304.187 599.597C303.905 541.225 303.942 482.853 304.297 424.482C304.381 409.531 304.966 399.122 306.054 393.257C310.994 366.549 327.288 342.805 351.707 329.882C354.582 328.356 360.797 326.04 370.353 322.935C373.412 321.931 376.156 321.712 379.261 321.774C379.41 321.779 379.558 321.753 379.697 321.699C379.836 321.645 379.962 321.563 380.069 321.46C380.176 321.356 380.261 321.232 380.319 321.094C380.376 320.957 380.406 320.81 380.406 320.661C380.364 297.827 380.244 275.212 380.046 252.817C379.993 246.418 380.385 241.457 381.222 237.934C382.529 232.497 384.594 227.892 387.416 224.117C397.265 210.959 410.172 212.01 427 212.026C473.17 212.088 519.341 212.125 565.511 212.135C574.911 212.135 581.534 212.93 585.381 214.519C599.919 220.479 603.213 236.02 603.385 250.809C603.636 273.09 603.913 295.788 604.217 318.904C604.225 319.774 604.575 320.605 605.191 321.219C605.807 321.832 606.64 322.178 607.51 322.182C608.639 322.193 610.134 322.47 611.995 323.013C643.032 332.125 667.779 356.104 675.464 387.595C677.043 394.088 677.858 404.11 677.91 417.66C677.984 433.782 678.005 449.872 677.973 465.931C677.973 466.069 678.028 466.2 678.125 466.297C678.222 466.394 678.353 466.449 678.491 466.449C687.137 466.397 695.705 466.371 704.195 466.371C714.106 466.371 719.752 476.862 719.799 486.398C719.862 505.343 719.846 524.287 719.752 543.232C719.721 549.422 718.947 553.892 717.431 556.641C713.087 564.451 706.563 565.141 697.545 565.094C691.377 565.063 685.229 565.11 679.102 565.235C678.496 565.246 678.182 565.554 678.161 566.161Z" fill="#000506"/>
<path d="M692.92 506.769L677.378 506.597" stroke="#A1A095" stroke-width="2"/>
<path d="M454.948 317.446C454.948 317.561 454.925 317.674 454.881 317.78C454.837 317.885 454.772 317.981 454.69 318.062C454.608 318.142 454.511 318.205 454.405 318.247C454.298 318.29 454.184 318.311 454.07 318.309L411.459 318.105C411.337 318.105 411.22 318.057 411.132 317.972C411.044 317.888 410.993 317.772 410.989 317.65C410.769 294.826 410.827 271.966 411.161 249.069C411.224 245.305 412.369 242.356 414.565 239.596C414.829 239.268 415.163 239.004 415.543 238.822C415.923 238.64 416.339 238.546 416.76 238.545L454.054 238.734C454.525 238.744 454.76 238.979 454.76 239.439L454.948 317.446Z" fill="#616669"/>
<path d="M505.574 317.837C505.574 317.909 505.56 317.98 505.532 318.047C505.504 318.113 505.463 318.174 505.412 318.224C505.361 318.275 505.301 318.315 505.234 318.343C505.167 318.37 505.096 318.384 505.024 318.384L479.555 318.295C479.483 318.295 479.411 318.28 479.345 318.252C479.278 318.225 479.218 318.184 479.167 318.133C479.116 318.082 479.076 318.021 479.049 317.954C479.022 317.888 479.008 317.816 479.008 317.744L479.281 239.33C479.282 239.258 479.296 239.187 479.324 239.12C479.352 239.054 479.392 238.993 479.444 238.943C479.495 238.892 479.555 238.852 479.622 238.824C479.689 238.797 479.76 238.783 479.832 238.783L505.301 238.872C505.373 238.872 505.445 238.887 505.511 238.915C505.578 238.942 505.638 238.983 505.689 239.034C505.739 239.085 505.78 239.146 505.807 239.213C505.834 239.279 505.848 239.351 505.848 239.423L505.574 317.837Z" fill="#616669"/>
<path d="M572.254 318.45L530.287 318.199C530.032 318.195 529.789 318.092 529.61 317.913C529.431 317.734 529.33 317.493 529.33 317.242L529.236 239.879C529.236 239.314 529.513 239.032 530.068 239.032L564.884 238.922C565.967 238.918 567.04 239.128 568.042 239.54C569.043 239.952 569.954 240.558 570.72 241.323C571.487 242.088 572.095 242.998 572.509 243.999C572.923 244.999 573.135 246.072 573.133 247.155L573.023 317.666C573.023 317.874 572.942 318.073 572.798 318.22C572.654 318.367 572.458 318.45 572.254 318.45Z" fill="#616669"/>
<path d="M334.11 405.678C336.353 377.731 356.694 355.728 382.414 348.388C386.836 347.123 392.336 346.491 398.912 346.491C455.611 346.522 512.32 346.533 569.04 346.522C583.134 346.522 593.186 347.311 599.198 348.89C621.029 354.63 641.448 373.622 645.917 397.037C647.256 404.031 647.919 411.094 647.909 418.224C647.888 475.603 647.799 532.981 647.642 590.36C647.59 605.541 646.832 615.933 645.368 621.537C639.707 643.179 622.44 661.591 599.872 666.296C589.192 668.523 582.245 668.288 567.989 668.272C510.015 668.241 452.04 668.277 394.066 668.382C389.246 668.392 383.961 667.373 378.211 665.324C356.992 657.796 341.199 640.435 335.585 618.934C334.1 613.257 333.342 604.85 333.31 593.716C333.133 535.867 333.143 478.023 333.342 420.185C333.363 416.619 333.619 411.784 334.11 405.678Z" fill="white"/>
<path d="M692.92 506.77L677.378 506.597V494.757C677.378 494.161 677.676 493.858 678.272 493.847L692.088 493.737C692.302 493.737 692.507 493.823 692.66 493.975C692.812 494.128 692.9 494.335 692.904 494.553L692.92 506.77Z" fill="white"/>
<path d="M677.378 506.598L692.92 506.77L692.716 535.235C692.716 536.144 692.261 536.599 691.351 536.599L678.382 536.63C678.12 536.63 677.868 536.528 677.683 536.346C677.498 536.163 677.394 535.916 677.394 535.658L677.378 506.598Z" fill="#435C68"/>
<path d="M454.963 699.058L455.12 781.534C455.12 782.193 454.79 782.522 454.132 782.522C441.282 782.533 428.48 782.491 415.724 782.397C411.772 782.381 410.549 775.042 410.596 771.482C410.816 747.675 410.946 723.597 410.988 699.246C410.988 698.743 411.188 698.26 411.544 697.904C411.9 697.549 412.382 697.349 412.886 697.349L453.379 697.474C453.796 697.474 454.197 697.641 454.493 697.937C454.79 698.234 454.959 698.637 454.963 699.058Z" fill="#435C68"/>
<path d="M505.758 781.362C505.758 781.578 505.716 781.792 505.633 781.992C505.55 782.192 505.429 782.373 505.276 782.526C505.123 782.679 504.941 782.8 504.742 782.883C504.542 782.966 504.328 783.008 504.112 783.008H480.838C480.622 783.008 480.408 782.966 480.208 782.883C480.008 782.8 479.827 782.679 479.674 782.526C479.521 782.373 479.4 782.192 479.317 781.992C479.234 781.792 479.191 781.578 479.191 781.362V699.152C479.191 698.936 479.234 698.722 479.317 698.522C479.4 698.322 479.521 698.141 479.674 697.988C479.827 697.835 480.008 697.713 480.208 697.631C480.408 697.548 480.622 697.505 480.838 697.505H504.112C504.328 697.505 504.542 697.548 504.742 697.631C504.941 697.713 505.123 697.835 505.276 697.988C505.429 698.141 505.55 698.322 505.633 698.522C505.716 698.722 505.758 698.936 505.758 699.152V781.362Z" fill="#435C68"/>
<path d="M573.227 774.79C573.233 775.843 573.031 776.888 572.631 777.863C572.232 778.838 571.644 779.724 570.9 780.47C570.157 781.217 569.273 781.809 568.299 782.212C567.326 782.615 566.282 782.822 565.229 782.82L530.899 782.757C530.506 782.757 530.13 782.602 529.851 782.326C529.572 782.05 529.413 781.675 529.409 781.283L528.954 698.775C528.952 698.585 528.988 698.396 529.059 698.22C529.13 698.044 529.235 697.884 529.368 697.75C529.5 697.616 529.659 697.509 529.833 697.438C530.007 697.366 530.193 697.33 530.381 697.332L572.176 697.63C572.605 697.63 572.824 697.844 572.835 698.273L573.227 774.79Z" fill="#435C68"/>
<path d="M443.207 262.153C443.085 263.26 442.717 264.329 442.124 265.299C441.53 266.27 440.724 267.122 439.75 267.807C438.776 268.492 437.654 268.997 436.448 269.292C435.242 269.588 433.975 269.669 432.721 269.531C430.186 269.251 427.854 268.094 426.236 266.315C424.619 264.535 423.849 262.279 424.096 260.043C424.218 258.935 424.587 257.866 425.18 256.896C425.773 255.925 426.579 255.073 427.553 254.388C428.527 253.703 429.649 253.198 430.855 252.903C432.061 252.607 433.328 252.526 434.583 252.664C437.117 252.944 439.449 254.101 441.067 255.88C442.684 257.66 443.454 259.916 443.207 262.153Z" fill="#000506"/>
<path d="M560.21 262.582C560.172 264.366 559.428 266.062 558.14 267.297C556.852 268.532 555.126 269.205 553.342 269.167L547.855 269.052C546.071 269.015 544.375 268.27 543.14 266.982C541.905 265.695 541.232 263.969 541.269 262.185L541.329 259.331C541.366 257.547 542.111 255.851 543.399 254.616C544.686 253.381 546.412 252.708 548.196 252.746L553.684 252.861C555.468 252.898 557.164 253.642 558.399 254.93C559.634 256.218 560.307 257.944 560.269 259.728L560.21 262.582Z" fill="#000506"/>
<path d="M500.57 264.36C500.587 264.898 500.496 265.433 500.303 265.935C500.109 266.437 499.817 266.894 499.444 267.28C499.071 267.667 498.625 267.974 498.131 268.183C497.638 268.393 497.107 268.5 496.571 268.5L486.628 268.531C484.736 268.542 483.868 267.606 484.025 265.724L484.793 256.675C484.961 254.605 486.085 253.565 488.165 253.554L496.352 253.523C497.398 253.523 498.403 253.93 499.152 254.66C499.902 255.389 500.338 256.382 500.366 257.428L500.57 264.36Z" fill="#000506"/>
<path d="M443.548 294.804C443.376 297.031 442.197 299.088 440.27 300.524C438.342 301.96 435.824 302.656 433.269 302.459C430.715 302.263 428.333 301.19 426.648 299.476C424.962 297.762 424.112 295.548 424.283 293.321C424.455 291.094 425.634 289.037 427.561 287.601C429.489 286.165 432.007 285.469 434.562 285.665C437.116 285.862 439.498 286.935 441.183 288.649C442.869 290.363 443.719 292.577 443.548 294.804Z" fill="#000506"/>
<path d="M560.126 295.64C560.068 296.565 559.828 297.47 559.421 298.302C559.013 299.134 558.445 299.878 557.75 300.491C557.055 301.104 556.246 301.574 555.369 301.874C554.492 302.174 553.565 302.299 552.64 302.241L547.913 301.943C546.045 301.826 544.3 300.971 543.062 299.567C541.825 298.163 541.195 296.325 541.313 294.457L541.449 292.297C541.507 291.372 541.747 290.467 542.154 289.635C542.562 288.803 543.13 288.059 543.825 287.446C544.52 286.833 545.329 286.363 546.206 286.063C547.083 285.763 548.01 285.638 548.935 285.697L553.662 285.994C555.53 286.112 557.275 286.966 558.513 288.37C559.751 289.774 560.38 291.612 560.262 293.48L560.126 295.64Z" fill="#000506"/>
<path d="M500.557 296.657C500.562 297.281 500.443 297.9 500.208 298.478C499.974 299.056 499.627 299.582 499.189 300.026C498.751 300.471 498.23 300.825 497.655 301.067C497.08 301.31 496.463 301.437 495.839 301.442L489.252 301.488C487.992 301.496 486.78 301.004 485.883 300.119C484.985 299.234 484.476 298.029 484.467 296.769L484.43 291.406C484.425 290.782 484.544 290.163 484.779 289.585C485.014 289.007 485.36 288.48 485.798 288.036C486.236 287.592 486.758 287.238 487.333 286.995C487.907 286.752 488.524 286.625 489.148 286.621L495.735 286.575C496.995 286.566 498.207 287.058 499.105 287.943C500.002 288.828 500.511 290.033 500.52 291.293L500.557 296.657Z" fill="#000506"/>
<path d="M627.358 600.745C627.336 612.919 622.48 624.586 613.856 633.18C605.232 641.774 593.548 646.589 581.374 646.568L399.39 646.251C387.216 646.229 375.548 641.373 366.955 632.749C358.361 624.126 353.545 612.441 353.566 600.267L353.892 413.672C353.913 401.498 358.77 389.83 367.394 381.237C376.017 372.643 387.702 367.827 399.876 367.849L581.86 368.166C594.034 368.188 605.702 373.044 614.295 381.668C622.889 390.291 627.705 401.976 627.683 414.15L627.358 600.745Z" fill="#000506"/>
<path d="M560.515 722.376C560.462 723.544 560.16 724.69 559.627 725.748C559.094 726.806 558.339 727.754 557.407 728.54C556.475 729.326 555.383 729.933 554.194 730.327C553.004 730.721 551.741 730.895 550.476 730.837C549.21 730.78 547.968 730.493 546.819 729.992C545.671 729.492 544.638 728.788 543.781 727.921C542.924 727.054 542.259 726.041 541.824 724.94C541.388 723.838 541.192 722.669 541.245 721.501C541.298 720.332 541.6 719.186 542.133 718.129C542.666 717.071 543.42 716.122 544.353 715.337C545.285 714.551 546.377 713.944 547.566 713.549C548.755 713.155 550.019 712.982 551.284 713.04C552.549 713.097 553.792 713.384 554.94 713.884C556.089 714.385 557.122 715.088 557.979 715.955C558.836 716.822 559.501 717.836 559.936 718.937C560.371 720.039 560.568 721.207 560.515 722.376Z" fill="#000506"/>
<path d="M487.819 728.995C487.384 728.998 486.954 728.914 486.552 728.75C486.149 728.585 485.783 728.343 485.475 728.037C485.166 727.732 484.92 727.368 484.752 726.967C484.584 726.566 484.496 726.137 484.494 725.702L484.463 718.19C484.459 716.976 484.979 715.809 485.908 714.948C486.838 714.086 488.1 713.599 489.419 713.595L495.378 713.564C496.031 713.561 496.678 713.678 497.282 713.906C497.886 714.134 498.436 714.469 498.899 714.893C499.362 715.317 499.73 715.821 499.981 716.376C500.233 716.931 500.363 717.526 500.365 718.127L500.397 725.639C500.399 726.074 500.315 726.505 500.151 726.907C499.986 727.309 499.744 727.675 499.439 727.984C499.133 728.293 498.769 728.538 498.368 728.706C497.968 728.874 497.538 728.962 497.103 728.964L487.819 728.995Z" fill="#000506"/>
<path d="M443.439 722.893C443.445 723.896 443.252 724.89 442.873 725.819C442.494 726.748 441.936 727.593 441.231 728.305C440.525 729.018 439.686 729.585 438.761 729.974C437.837 730.363 436.845 730.565 435.842 730.571L432.235 730.589C431.232 730.595 430.238 730.402 429.309 730.023C428.38 729.644 427.536 729.086 426.823 728.381C426.11 727.675 425.543 726.836 425.154 725.912C424.765 724.987 424.563 723.995 424.557 722.992L424.55 721.581C424.545 720.578 424.737 719.583 425.116 718.655C425.495 717.726 426.053 716.881 426.759 716.168C427.464 715.455 428.303 714.888 429.228 714.5C430.152 714.111 431.145 713.908 432.147 713.903L435.754 713.884C436.757 713.879 437.752 714.071 438.68 714.45C439.609 714.829 440.454 715.388 441.167 716.093C441.88 716.798 442.447 717.637 442.835 718.562C443.224 719.487 443.427 720.479 443.432 721.482L443.439 722.893Z" fill="#000506"/>
<path d="M443.226 757.204C443.205 758.184 442.992 759.15 442.598 760.048C442.204 760.946 441.637 761.757 440.929 762.435C440.222 763.114 439.387 763.647 438.474 764.003C437.561 764.359 436.586 764.531 435.606 764.511L431.592 764.427C429.613 764.385 427.731 763.559 426.36 762.13C424.99 760.701 424.243 758.787 424.285 756.807L424.328 754.737C424.349 753.757 424.562 752.791 424.956 751.893C425.35 750.996 425.917 750.184 426.625 749.506C427.332 748.827 428.167 748.295 429.08 747.939C429.993 747.583 430.968 747.41 431.948 747.43L435.962 747.514C437.941 747.556 439.823 748.382 441.193 749.811C442.564 751.24 443.31 753.155 443.269 755.134L443.226 757.204Z" fill="#000506"/>
<path d="M560.147 756.326C560.132 757.405 559.865 758.47 559.363 759.46C558.86 760.45 558.131 761.346 557.218 762.097C556.304 762.847 555.224 763.437 554.039 763.834C552.854 764.23 551.586 764.425 550.309 764.407C549.033 764.39 547.771 764.159 546.598 763.73C545.424 763.3 544.36 762.68 543.468 761.905C542.576 761.129 541.873 760.213 541.398 759.209C540.923 758.206 540.687 757.134 540.702 756.055C540.717 754.975 540.983 753.91 541.486 752.92C541.988 751.93 542.717 751.034 543.631 750.284C544.544 749.534 545.624 748.943 546.81 748.547C547.995 748.15 549.262 747.955 550.539 747.973C551.816 747.991 553.077 748.221 554.251 748.651C555.425 749.08 556.488 749.7 557.38 750.476C558.272 751.252 558.976 752.168 559.451 753.171C559.925 754.175 560.162 755.247 560.147 756.326Z" fill="#000506"/>
<path d="M500.259 759.958C500.249 760.465 500.14 760.965 499.937 761.429C499.734 761.893 499.442 762.313 499.077 762.664C498.712 763.016 498.281 763.292 497.809 763.476C497.338 763.661 496.834 763.751 496.328 763.742L488.833 763.598C488.326 763.588 487.827 763.479 487.362 763.276C486.898 763.073 486.478 762.781 486.127 762.416C485.776 762.05 485.5 761.62 485.315 761.148C485.13 760.676 485.04 760.173 485.05 759.666L485.197 751.983C485.207 751.477 485.316 750.977 485.519 750.513C485.722 750.048 486.014 749.629 486.379 749.277C486.744 748.926 487.175 748.65 487.647 748.465C488.118 748.28 488.622 748.19 489.128 748.2L496.623 748.344C497.13 748.354 497.63 748.463 498.094 748.666C498.558 748.869 498.978 749.161 499.329 749.526C499.68 749.891 499.956 750.322 500.141 750.794C500.326 751.265 500.416 751.769 500.407 752.275L500.259 759.958Z" fill="#000506"/>
<path d="M377.6 441.357C376.204 423.133 377.443 405.333 394.662 397.021C398.207 395.317 403.361 394.397 410.126 394.261C418.072 394.104 426.049 394.157 434.058 394.418C444.707 394.779 445.161 407.137 438.606 412.626C438.198 412.971 437.728 413.143 437.194 413.143C428.098 413.112 419.013 413.117 409.938 413.159C391.526 413.269 394.553 426.536 394.474 439.396C394.427 448.492 378.29 450.265 377.6 441.357Z" fill="white"/>
<path d="M500.28 413.961C500.102 415.065 499.696 416.121 499.088 417.069C498.479 418.017 497.679 418.839 496.733 419.486C495.787 420.134 494.714 420.596 493.575 420.845C492.436 421.094 491.253 421.126 490.095 420.938C487.754 420.559 485.653 419.31 484.254 417.465C482.854 415.621 482.271 413.332 482.632 411.103C482.811 409.999 483.216 408.942 483.825 407.994C484.433 407.046 485.233 406.225 486.179 405.577C487.125 404.929 488.198 404.467 489.337 404.218C490.476 403.969 491.659 403.938 492.818 404.126C495.158 404.505 497.259 405.754 498.658 407.598C500.058 409.443 500.641 411.731 500.28 413.961Z" fill="white"/>
<path d="M484.071 478.023C483.788 478.023 483.647 477.877 483.647 477.584L483.193 436.589C483.188 436.18 483.265 435.775 483.417 435.397C483.57 435.018 483.796 434.674 484.082 434.384C484.368 434.094 484.708 433.863 485.083 433.706C485.458 433.549 485.86 433.468 486.266 433.468L497.056 433.437C497.463 433.437 497.865 433.517 498.24 433.672C498.615 433.828 498.955 434.056 499.241 434.343C499.527 434.631 499.752 434.972 499.905 435.346C500.058 435.721 500.134 436.122 500.13 436.526L499.895 478.337C499.895 478.42 499.848 478.462 499.754 478.462L484.071 478.023Z" fill="#64B7B8"/>
<path d="M437.335 467.092C431.172 461.524 427.909 452.256 438.48 448.727C440.644 448.006 442.745 448.643 444.784 450.64C454.487 460.102 464.221 470.338 473.986 481.348C474.125 481.501 474.2 481.701 474.198 481.907C474.195 482.114 474.113 482.312 473.97 482.461L464.827 492.043C464.534 492.346 464.231 492.352 463.917 492.059C455.375 483.705 446.515 475.383 437.335 467.092Z" fill="white"/>
<path d="M540.264 448.979C544.906 447.682 548.466 449.083 550.944 453.182C554.049 458.294 550.317 461.431 546.302 465.446C537.634 474.103 528.904 482.754 520.111 491.401C519.202 492.3 518.271 492.316 517.32 491.448L509.698 484.532C509.493 484.347 509.326 484.124 509.207 483.874C509.089 483.625 509.021 483.355 509.008 483.079C508.995 482.803 509.037 482.528 509.131 482.268C509.225 482.009 509.37 481.771 509.557 481.568L538.413 450.123C538.916 449.58 539.556 449.184 540.264 448.979Z" fill="white"/>
<path d="M393.244 520.381C392.075 520.399 390.913 520.168 389.824 519.699C388.736 519.231 387.743 518.535 386.902 517.651C386.061 516.767 385.388 515.712 384.922 514.547C384.456 513.382 384.206 512.13 384.186 510.861C384.146 508.3 385.045 505.828 386.687 503.99C388.329 502.152 390.579 501.099 392.941 501.062C394.11 501.044 395.273 501.275 396.361 501.744C397.449 502.212 398.442 502.908 399.283 503.792C400.125 504.676 400.797 505.731 401.263 506.896C401.729 508.061 401.979 509.313 401.999 510.582C402.04 513.143 401.14 515.615 399.498 517.453C397.856 519.29 395.607 520.344 393.244 520.381Z" fill="white"/>
<path d="M588.366 519.898C586.031 519.57 583.93 518.272 582.524 516.29C581.119 514.307 580.525 511.803 580.873 509.327C581.22 506.852 582.482 504.608 584.379 503.09C586.277 501.572 588.655 500.903 590.99 501.231C593.325 501.559 595.427 502.858 596.832 504.84C598.238 506.822 598.832 509.327 598.484 511.802C598.136 514.278 596.875 516.521 594.977 518.04C593.08 519.558 590.702 520.227 588.366 519.898Z" fill="white"/>
<path d="M460.561 517.026C460.559 517.193 460.524 517.358 460.459 517.511C460.393 517.665 460.298 517.804 460.178 517.92C460.059 518.037 459.918 518.128 459.763 518.19C459.608 518.252 459.442 518.283 459.275 518.281L420.429 518.077C418.942 518.065 417.52 517.364 416.476 516.126C415.433 514.888 414.852 513.215 414.861 511.475V508.652C414.866 507.788 415.016 506.933 415.304 506.136C415.591 505.34 416.009 504.617 416.535 504.01C417.061 503.402 417.684 502.922 418.368 502.596C419.053 502.271 419.785 502.106 420.523 502.112L459.369 502.316C459.536 502.318 459.701 502.353 459.854 502.418C460.008 502.484 460.147 502.58 460.263 502.699C460.38 502.818 460.471 502.96 460.533 503.114C460.595 503.269 460.626 503.435 460.624 503.602L460.561 517.026Z" fill="#64B7B8"/>
<path d="M524.342 518.312C524.072 518.314 523.805 518.263 523.555 518.162C523.305 518.061 523.077 517.911 522.885 517.722C522.692 517.532 522.539 517.307 522.434 517.059C522.329 516.81 522.274 516.543 522.272 516.274L522.194 506.425C522.189 505.91 522.273 505.4 522.44 504.923C522.607 504.446 522.855 504.013 523.168 503.647C523.481 503.281 523.855 502.99 524.266 502.791C524.677 502.593 525.119 502.49 525.565 502.488L563.439 502.237C564.337 502.23 565.202 502.634 565.843 503.36C566.484 504.086 566.849 505.076 566.858 506.111L566.937 515.96C566.939 516.231 566.887 516.5 566.785 516.751C566.683 517.002 566.532 517.23 566.341 517.423C566.15 517.615 565.922 517.768 565.672 517.872C565.422 517.976 565.153 518.03 564.882 518.03L524.342 518.312Z" fill="#64B7B8"/>
<path d="M465.423 525.715L465.94 525.119C466.066 524.973 466.102 524.994 466.05 525.182L465.595 526.734C465.524 526.973 465.516 527.226 465.571 527.468C465.626 527.71 465.742 527.932 465.909 528.114L472.559 535.297C472.965 535.734 473.191 536.307 473.194 536.905C473.197 537.503 472.976 538.082 472.574 538.528C463.593 548.471 454.398 558.409 444.988 568.341C440.613 572.952 431.595 568.608 431.422 562.476C431.328 559.449 433.963 556.218 436.441 553.866C445.631 545.156 454.67 536.301 463.557 527.299C463.943 526.912 464.362 526.567 464.811 526.264C465.031 526.107 465.235 525.924 465.423 525.715Z" fill="white"/>
<path d="M517.35 526.969C517.573 526.75 517.838 526.576 518.128 526.459C518.418 526.342 518.729 526.283 519.042 526.286C519.355 526.289 519.665 526.354 519.953 526.476C520.241 526.599 520.502 526.777 520.722 527L549.186 555.857C549.929 556.609 550.536 557.48 550.973 558.422C551.41 559.363 551.668 560.356 551.732 561.343C551.796 562.331 551.665 563.293 551.347 564.176C551.028 565.06 550.529 565.846 549.876 566.49L548.527 567.807C547.209 569.106 545.35 569.748 543.359 569.592C541.368 569.437 539.408 568.495 537.91 566.976L509.446 538.12C509.226 537.896 509.053 537.632 508.936 537.341C508.819 537.051 508.76 536.74 508.763 536.427C508.766 536.114 508.83 535.805 508.953 535.516C509.075 535.228 509.253 534.967 509.477 534.748L517.35 526.969Z" fill="white"/>
<path d="M499.769 582.895C499.769 583.165 499.661 583.424 499.47 583.615C499.279 583.807 499.02 583.914 498.749 583.914H484.603C484.333 583.914 484.074 583.807 483.883 583.615C483.691 583.424 483.584 583.165 483.584 582.895V541.837C483.584 541.566 483.691 541.307 483.883 541.116C484.074 540.925 484.333 540.817 484.603 540.817H498.749C499.02 540.817 499.279 540.925 499.47 541.116C499.661 541.307 499.769 541.566 499.769 541.837V582.895Z" fill="#64B7B8"/>
<path d="M500.913 606.215C500.913 608.685 499.932 611.055 498.185 612.802C496.438 614.549 494.069 615.53 491.598 615.53C489.127 615.53 486.758 614.549 485.011 612.802C483.264 611.055 482.282 608.685 482.282 606.215C482.282 603.744 483.264 601.374 485.011 599.627C486.758 597.88 489.127 596.899 491.598 596.899C494.069 596.899 496.438 597.88 498.185 599.627C499.932 601.374 500.913 603.744 500.913 606.215Z" fill="white"/>
</svg>
