<svg width="1024" height="1024" viewBox="0 0 1024 1024" fill="none" xmlns="http://www.w3.org/2000/svg">
<rect width="1024" height="1024" fill="white"/>
<path d="M252.54 675.636C253.527 675.636 253.625 675.34 252.836 674.748C225.816 654.564 201.799 619.962 200.079 585.148C199.863 580.957 200.558 577.818 202.165 575.732C207.507 568.84 220.122 572.124 226.718 574.816C240.559 580.454 253.273 588.004 264.859 597.466C279.982 609.813 295.896 629.814 299.631 649.688C299.725 650.176 300.016 650.496 300.504 650.646C306.415 652.441 311.978 654.997 317.193 658.314C317.569 658.558 317.949 658.558 318.334 658.314L430.332 584.964C430.497 584.857 430.632 584.71 430.726 584.537C430.819 584.365 430.868 584.173 430.867 583.978L430.656 533.927C430.656 533.449 430.532 532.978 430.298 532.561C430.063 532.144 429.726 531.794 429.317 531.545L322.986 465.708C322.591 465.473 322.234 465.516 321.915 465.835C308.877 479.056 289.99 485.723 271.793 481.551C263.703 479.704 253.978 475.377 248.607 468.654C248.297 468.269 247.912 468.165 247.452 468.344C245.013 469.274 242.462 470.768 240.348 471.558C231.031 474.997 212.793 479.704 206.859 470.204C205.355 467.808 204.688 464.374 204.857 459.901C205.787 435.108 217.994 415.855 232.032 398.377C232.238 398.119 232.348 397.798 232.343 397.471C232.337 397.143 232.218 396.831 232.004 396.587C230.735 395.107 229.34 393.754 227.564 392.754C213.197 384.663 200.723 376.925 190.142 369.539C185.477 366.283 184.758 360.631 187.958 355.994C190.504 352.311 194.469 350.084 199.854 349.313C200.539 349.21 200.882 348.815 200.882 348.129C200.854 343.351 200.079 338.39 203.983 334.316C214.244 323.562 225.478 334.655 234.597 340.462C247.207 348.496 259.691 356.798 272.047 365.367C272.307 365.548 272.601 365.673 272.911 365.734C273.222 365.796 273.541 365.792 273.85 365.723C274.159 365.654 274.45 365.521 274.705 365.334C274.96 365.147 275.173 364.908 275.331 364.634C280.208 356.107 290.666 348.425 298.926 343.323C326.072 326.55 359.9 315.063 392.064 315.288C405.553 315.373 414.588 321.518 407.836 336.318C400.423 352.583 384.975 367.496 370.006 376.939C356.888 385.217 342.883 391.067 327.989 394.487C327.022 394.703 326.843 395.206 327.454 395.995C338.349 410.146 342.422 425.341 337.193 442.818C336.418 445.44 338.25 446.286 340.534 447.709C369.344 465.657 398.994 483.9 429.486 502.439C430.379 502.984 430.82 502.731 430.811 501.678C430.642 490.28 430.67 478.642 430.896 466.765C431.022 460.38 433.038 454.827 434.715 448.738C438.507 434.883 449.966 420.224 461.171 409.399C462.412 408.201 462.581 407.003 462.581 405.397C462.224 358.207 462.177 311.018 462.44 263.828C462.477 257.392 463.107 252.247 464.328 248.394C479.96 199.485 548.235 199.979 562.541 249.226C563.744 253.342 564.312 259.088 564.247 266.464C563.842 313.494 563.777 360.542 564.049 407.609C564.054 407.966 564.128 408.317 564.269 408.642C564.409 408.966 564.613 409.257 564.867 409.498C578.849 422.775 589.039 437.18 594.24 455.842C595.434 460.098 596.054 465.168 596.101 471.05C596.195 481.49 596.19 491.943 596.087 502.411C596.085 502.505 596.109 502.598 596.158 502.678C596.207 502.759 596.278 502.823 596.362 502.865C596.447 502.906 596.541 502.923 596.635 502.912C596.728 502.902 596.817 502.865 596.89 502.806C599.075 501.1 601.288 499.183 603.599 497.703C631.422 479.747 659.542 462.325 687.266 444.228C687.548 444.041 687.766 443.774 687.892 443.462C688.018 443.149 688.045 442.807 687.971 442.48C684.081 425.707 687.078 410.419 696.963 396.615C697.063 396.475 697.125 396.311 697.146 396.14C697.167 395.969 697.145 395.795 697.082 395.634C697.019 395.474 696.918 395.331 696.786 395.22C696.655 395.108 696.498 395.031 696.329 394.995C665.983 388.694 638.836 367.369 621.866 342.322C613.677 330.229 612.535 315.472 631.676 315.472C664.865 315.472 695.427 324.262 723.363 341.843C734.235 348.684 743.584 357.178 751.411 367.326C751.684 367.693 752.003 367.74 752.37 367.467C766.38 357.347 782.429 346.429 800.518 334.711C807.777 330.017 815.726 326.86 821.97 334.669C824.986 338.432 824.845 344.084 825.296 348.89C825.327 349.225 825.471 349.54 825.703 349.785C825.935 350.031 826.244 350.192 826.579 350.244C837.362 351.921 844.705 362.393 832.936 370.244C819.574 379.152 806.029 387.872 792.301 396.404C792.15 396.499 792.021 396.626 791.923 396.774C791.825 396.923 791.76 397.091 791.732 397.267C791.704 397.443 791.714 397.623 791.761 397.795C791.808 397.967 791.891 398.127 792.005 398.265C806.945 415.982 818.432 437.716 819.447 461.325C820.476 485.074 789.157 474.517 778.361 468.936C777.892 468.696 777.361 468.603 776.84 468.671C776.319 468.739 775.832 468.964 775.443 469.316C753.723 488.908 722.01 486.597 702.192 464.975C702.055 464.823 701.868 464.723 701.664 464.695C701.46 464.667 701.253 464.711 701.079 464.82L597.172 531.179C596.449 531.639 596.087 532.301 596.087 533.166L595.889 584.274C595.889 584.734 596.077 585.101 596.453 585.373C604.252 590.936 612.192 596.292 620.273 601.441C649.91 620.291 679.528 639.135 709.127 657.975C709.273 658.067 709.445 658.113 709.62 658.108C709.795 658.103 709.967 658.047 710.114 657.947C715.038 654.517 720.361 651.882 726.083 650.04C726.507 649.903 726.888 649.658 727.187 649.329C727.486 649 727.694 648.599 727.789 648.165C735.005 615.184 763.618 590.334 793.724 576.62C801.504 573.082 814.345 568.586 821.716 573.717C829.483 579.129 825.24 596.973 822.971 604.669C814.364 633.873 797.671 657.266 772.892 674.847C771.952 675.514 772.06 675.848 773.216 675.848C789.294 675.829 805.503 675.711 821.843 675.495C825.235 675.448 827.834 675.805 829.638 676.566C840.462 681.147 837.784 698.949 826.184 699.019C803.98 699.16 781.781 699.292 759.586 699.414C758.506 699.424 757.406 699.48 756.288 699.583C755.837 699.63 755.461 699.828 755.161 700.175C746.854 709.929 737.415 718.428 726.844 725.673C725.754 726.424 725.209 727.491 725.209 728.872C725.209 751.123 725.35 773.374 725.632 795.625C725.679 799.506 725.397 802.292 724.786 803.983C721.361 813.483 709.282 815.161 704.462 805.647C703.644 804.04 703.221 801.644 703.193 798.458C703.024 779.148 702.897 759.918 702.813 740.768C702.813 740.12 702.507 739.918 701.896 740.162C692.58 743.869 656.145 755.187 652.254 740.219C651.569 737.559 651.719 733.524 652.706 728.111C656.849 705.32 668.858 689.703 685.518 674.213C685.688 674.054 685.819 673.858 685.901 673.641C685.983 673.424 686.015 673.191 685.993 672.959C685.971 672.728 685.897 672.505 685.775 672.307C685.654 672.109 685.489 671.941 685.293 671.817L584.825 607.967C584.293 607.631 583.659 607.499 583.039 607.595C582.419 607.691 581.857 608.008 581.456 608.489L571.632 620.272C571.582 620.33 571.548 620.4 571.536 620.475C571.523 620.55 571.532 620.626 571.562 620.695L598.807 692.071C599.198 693.096 599.399 694.18 599.399 695.27C599.465 714.082 599.394 732.997 599.188 752.016C599.117 759.275 597.623 765.744 590.167 767.393C584.717 768.606 580.686 766.656 578.074 761.544C577.867 761.131 577.533 760.924 577.073 760.924L563.993 760.938C563.504 760.938 563.236 761.182 563.189 761.671C558.129 815.443 487.557 826.521 466.725 775.695C464.779 770.931 463.699 766.308 463.483 761.826C463.464 761.243 463.163 760.957 462.581 760.966L450.657 761.079C450.196 761.079 449.834 761.272 449.571 761.657C442.383 772.27 427.597 767.619 427.64 754.948C427.705 736.108 427.677 717.268 427.555 698.428C427.527 695.402 427.987 692.508 428.936 689.745C430.891 684.013 432.982 678.328 435.209 672.69C441.899 655.748 448.641 638.68 455.435 621.484C455.589 621.103 455.614 620.682 455.507 620.285C455.4 619.889 455.167 619.537 454.843 619.285C450.685 616.086 447.739 610.772 444.892 606.473C444.762 606.274 444.559 606.134 444.327 606.084C444.094 606.034 443.852 606.077 443.651 606.205L339.899 673.339C338.988 673.931 338.936 674.588 339.744 675.312C356.235 690.168 368.836 708.604 373.53 730.282C375.122 737.625 373.558 746.251 364.34 747.351C351.302 748.901 337.32 745.448 325.001 741.318C324.522 741.158 324.282 741.332 324.282 741.84C324.17 760.783 324.348 779.712 324.818 798.627C325.241 815.767 302.14 816.5 302.14 799.699C302.13 776.555 302.06 753.115 301.928 729.38C301.919 728.863 301.698 728.464 301.266 728.182C289.13 720.218 280.236 710.662 270.736 699.738C270.426 699.381 270.032 699.203 269.552 699.203C245.892 699.259 222.25 699.344 198.627 699.456C190.636 699.485 186.999 688.011 189.832 682.007C192.989 675.312 198.782 675.566 206.295 675.608C221.884 675.693 237.299 675.702 252.54 675.636Z" fill="#010818"/>
<path d="M676.332 246.852C675.993 249.205 674.714 251.324 672.777 252.744C670.839 254.163 668.401 254.766 666 254.42C664.811 254.249 663.667 253.849 662.633 253.245C661.598 252.641 660.694 251.844 659.972 250.899C659.25 249.953 658.724 248.879 658.424 247.737C658.125 246.595 658.057 245.408 658.225 244.242C658.564 241.889 659.843 239.77 661.78 238.351C663.718 236.932 666.156 236.329 668.557 236.675C669.746 236.846 670.89 237.245 671.925 237.849C672.959 238.453 673.863 239.251 674.585 240.196C675.307 241.141 675.833 242.215 676.133 243.357C676.432 244.499 676.5 245.687 676.332 246.852Z" fill="#010818"/>
<path d="M367.978 247.31C367.978 249.848 366.969 252.282 365.175 254.077C363.38 255.872 360.945 256.88 358.407 256.88C355.869 256.88 353.435 255.872 351.64 254.077C349.845 252.282 348.837 249.848 348.837 247.31C348.837 244.771 349.845 242.337 351.64 240.542C353.435 238.748 355.869 237.739 358.407 237.739C360.945 237.739 363.38 238.748 365.175 240.542C366.969 242.337 367.978 244.771 367.978 247.31Z" fill="#010818"/>
<path d="M328.931 286.687C328.923 288.053 328.647 289.404 328.118 290.664C327.589 291.923 326.816 293.066 325.845 294.027C324.875 294.987 323.724 295.748 322.459 296.264C321.194 296.78 319.84 297.042 318.474 297.035L275.796 296.811C274.43 296.804 273.079 296.528 271.819 295.999C270.56 295.469 269.417 294.697 268.457 293.726C267.496 292.755 266.736 291.604 266.219 290.34C265.703 289.075 265.441 287.721 265.448 286.355L265.452 285.622C265.459 284.256 265.736 282.905 266.265 281.646C266.794 280.386 267.567 279.244 268.537 278.283C269.508 277.322 270.659 276.562 271.924 276.046C273.189 275.529 274.543 275.267 275.909 275.275L318.587 275.498C319.953 275.505 321.304 275.781 322.564 276.311C323.823 276.84 324.965 277.612 325.926 278.583C326.887 279.554 327.647 280.705 328.164 281.97C328.68 283.234 328.942 284.588 328.935 285.954L328.931 286.687Z" fill="#010818"/>
<path d="M757.585 286.62C757.585 289.364 756.495 291.995 754.554 293.936C752.614 295.876 749.983 296.966 747.239 296.966H707.83C705.086 296.966 702.455 295.876 700.515 293.936C698.574 291.995 697.484 289.364 697.484 286.62V285.803C697.484 283.059 698.574 280.427 700.515 278.487C702.455 276.547 705.086 275.457 707.83 275.457H747.239C749.983 275.457 752.614 276.547 754.554 278.487C756.495 280.427 757.585 283.059 757.585 285.803V286.62Z" fill="#010818"/>
<path d="M292.583 558.424C282.633 558.321 276.21 558.311 273.316 558.396C261.843 558.734 257.741 543.836 267.777 538.212C269.402 537.301 271.751 536.901 274.824 537.014C280.81 537.249 286.805 537.315 292.809 537.211C292.93 537.208 293.045 537.159 293.129 537.074C293.213 536.99 293.26 536.878 293.26 536.76C293.246 530.587 292.118 520.41 294.444 515.294C299.321 504.61 314.586 509.572 314.557 521.298C314.548 526.354 314.59 531.404 314.684 536.45C314.694 536.958 314.952 537.216 315.459 537.226C321.483 537.348 327.449 537.301 333.36 537.085C336.799 536.953 339.407 537.428 341.182 538.508C348.906 543.174 347.68 554.083 339.562 557.691C338.152 558.311 336.174 558.621 333.628 558.621C327.379 558.603 321.149 558.513 314.938 558.354C314.845 558.35 314.752 558.365 314.665 558.398C314.578 558.431 314.498 558.481 314.431 558.546C314.364 558.61 314.311 558.688 314.274 558.773C314.238 558.859 314.219 558.951 314.219 559.044C314.257 572.923 314.261 586.896 314.233 600.962C314.224 603.753 312.678 606.21 309.596 608.334C303.606 612.464 296.53 608.63 293.838 602.766C293.058 601.066 292.715 598.392 292.809 594.746C293.091 582.879 293.251 571.006 293.288 559.129C293.288 558.659 293.053 558.424 292.583 558.424Z" fill="#010818"/>
<path d="M708.07 580.214C701.869 580.158 695.671 580.153 689.479 580.2C686.2 580.228 683.719 579.707 682.037 578.636C674.355 573.759 676.145 562.582 683.968 559.34C685.565 558.682 688.314 558.471 692.214 558.706C697.579 559.035 702.888 559.119 708.141 558.959C708.325 558.956 708.501 558.88 708.63 558.748C708.759 558.616 708.831 558.439 708.831 558.255C708.831 546.471 708.827 534.674 708.817 522.863C708.817 519.865 709.301 517.549 710.269 515.914C714.906 508.105 725.026 508.754 728.916 516.9C729.602 518.357 729.95 520.419 729.959 523.088C729.978 534.937 729.997 546.697 730.016 558.367C730.016 558.463 730.035 558.558 730.071 558.646C730.107 558.734 730.16 558.814 730.227 558.881C730.294 558.948 730.374 559 730.461 559.036C730.548 559.071 730.641 559.088 730.735 559.086C738.571 559.03 746.427 559.03 754.301 559.086C760.7 559.128 763.928 566.176 762.744 571.701C761.363 578.213 755.936 580.567 749.382 580.539C743.124 580.52 736.875 580.52 730.636 580.539C730.138 580.539 729.894 580.788 729.903 581.286C729.988 588.812 730.002 596.315 729.945 603.795C729.818 620.258 708.803 621.85 708.874 603.95C708.911 596.282 708.897 588.624 708.831 580.975C708.822 580.468 708.568 580.214 708.07 580.214Z" fill="#010818"/>
<path d="M261.096 746.11C261.096 749.067 259.921 751.903 257.83 753.994C255.74 756.085 252.904 757.259 249.947 757.259C246.99 757.259 244.154 756.085 242.063 753.994C239.972 751.903 238.798 749.067 238.798 746.11C238.798 743.153 239.972 740.318 242.063 738.227C244.154 736.136 246.99 734.961 249.947 734.961C252.904 734.961 255.74 736.136 257.83 738.227C259.921 740.318 261.096 743.153 261.096 746.11Z" fill="#010818"/>
<path d="M776.178 757.256C773.338 757.335 770.582 756.232 768.515 754.191C766.448 752.149 765.241 749.335 765.158 746.368C765.075 743.401 766.124 740.524 768.073 738.37C770.023 736.216 772.713 734.961 775.553 734.882C778.393 734.803 781.15 735.905 783.216 737.947C785.283 739.989 786.491 742.803 786.573 745.77C786.656 748.737 785.608 751.614 783.658 753.768C781.709 755.922 779.018 757.176 776.178 757.256Z" fill="#010818"/>
<path d="M804.893 779.332C803.497 779.335 802.115 779.052 800.824 778.499C799.534 777.947 798.361 777.136 797.372 776.113C796.384 775.09 795.599 773.875 795.062 772.537C794.526 771.199 794.249 769.764 794.246 768.315C794.244 766.865 794.516 765.43 795.048 764.09C795.579 762.75 796.36 761.532 797.345 760.505C798.33 759.479 799.5 758.664 800.789 758.107C802.077 757.55 803.459 757.262 804.854 757.26C806.25 757.257 807.632 757.54 808.923 758.093C810.213 758.645 811.386 759.456 812.375 760.479C813.363 761.502 814.148 762.717 814.685 764.055C815.221 765.393 815.498 766.828 815.501 768.277C815.504 769.727 815.231 771.162 814.699 772.502C814.168 773.842 813.387 775.06 812.402 776.087C811.417 777.113 810.247 777.928 808.958 778.485C807.67 779.042 806.288 779.33 804.893 779.332Z" fill="#010818"/>
<path d="M231.213 768.296C231.213 771.159 230.075 773.905 228.051 775.93C226.026 777.955 223.28 779.092 220.416 779.092C217.553 779.092 214.807 777.955 212.782 775.93C210.757 773.905 209.62 771.159 209.62 768.296C209.62 766.878 209.899 765.474 210.441 764.164C210.984 762.854 211.779 761.664 212.782 760.661C213.784 759.659 214.975 758.863 216.285 758.321C217.594 757.778 218.998 757.499 220.416 757.499C221.834 757.499 223.238 757.778 224.548 758.321C225.858 758.863 227.048 759.659 228.051 760.661C229.053 761.664 229.848 762.854 230.391 764.164C230.934 765.474 231.213 766.878 231.213 768.296Z" fill="#010818"/>
<path d="M541.684 385.847L527.519 375.262" stroke="#8EA3A2" stroke-width="2"/>
<path d="M527.518 375.262L527.166 302.053" stroke="#A0BCBA" stroke-width="2"/>
<path d="M527.164 302.054L527.009 292.427" stroke="#AEEBF1" stroke-width="2"/>
<path d="M527.009 292.427L527.023 277.98" stroke="#808C85" stroke-width="2"/>
<path d="M527.022 277.98L527.079 267.648" stroke="#AEEBF1" stroke-width="2"/>
<path d="M527.081 267.647L527.222 256.132C527.224 255.973 527.194 255.816 527.135 255.669C527.075 255.522 526.987 255.388 526.876 255.276C526.764 255.163 526.632 255.073 526.485 255.012C526.339 254.951 526.182 254.92 526.024 254.92L501.203 254.765C500.978 254.765 500.763 254.852 500.605 255.008C500.446 255.164 500.357 255.376 500.357 255.596L500.174 267.971" stroke="#808C85" stroke-width="2"/>
<path d="M500.174 267.972L500.244 277.725" stroke="#AEEBF1" stroke-width="2"/>
<path d="M500.245 277.725L500.16 292.13" stroke="#808C85" stroke-width="2"/>
<path d="M500.158 292.132L499.876 302.125" stroke="#AEEBF1" stroke-width="2"/>
<path d="M499.877 302.124L499.511 375.065" stroke="#A0BCBA" stroke-width="2"/>
<path d="M499.511 375.065L489.969 381.591" stroke="#8EA3A2" stroke-width="2"/>
<path d="M527.011 292.428L500.16 292.132" stroke="#2E788F" stroke-width="2"/>
<path d="M527.023 277.979L500.243 277.725" stroke="#2E788F" stroke-width="2"/>
<path d="M527.163 302.053L499.876 302.124" stroke="#4FA9C4" stroke-width="2"/>
<path d="M527.518 375.262C526.832 376.013 526.212 376.324 525.657 376.192" stroke="#2F6175" stroke-width="2"/>
<path d="M525.657 376.192L500.639 375.966" stroke="#214A58" stroke-width="2"/>
<path d="M500.638 375.968C500.62 375.404 500.244 375.103 499.511 375.065" stroke="#2F6175" stroke-width="2"/>
<path d="M527.081 267.648L500.174 267.973" stroke="#2E788F" stroke-width="2"/>
<path d="M500.638 375.966L500.046 376.051C499.501 376.126 499.289 376.436 499.411 376.981C499.637 377.911 499.961 378.56 499.961 379.589C500.252 405.927 500.337 432.266 500.215 458.604C500.144 473.77 520.145 475.786 525.924 463.551C526.685 461.945 527.047 459.53 527.009 456.307C526.755 434.526 526.633 412.74 526.643 390.949C526.643 386.608 527.061 382.29 527.897 377.996C527.991 377.545 527.864 377.169 527.517 376.868C527.075 376.493 526.455 376.267 525.656 376.192" stroke="#0F3140" stroke-width="2"/>
<path d="M543.262 423.536L540.359 428.991C540.124 429.432 540.171 429.846 540.5 430.231C545.447 435.883 550.169 441.775 550.239 449.795C550.521 480.568 550.61 511.267 550.507 541.89C550.503 542.008 550.534 542.124 550.595 542.224C550.656 542.325 550.745 542.406 550.851 542.456C550.957 542.507 551.076 542.526 551.192 542.511C551.309 542.495 551.418 542.446 551.508 542.369L560.951 534.476" stroke="#8EA3A2" stroke-width="2"/>
<path d="M466.528 532.489L476.296 541.073C476.822 541.543 477.085 541.425 477.085 540.72C476.991 510.614 477.066 480.423 477.311 450.147C477.381 441.084 481.821 436.391 487.84 430.288C491.448 426.609 492.28 423.875 491.913 419.012C491.875 418.551 491.636 418.396 491.194 418.547L485.993 420.337" stroke="#8EA3A2" stroke-width="2"/>
<path d="M315.643 420.943C310.588 439.708 299.298 449.259 281.773 449.598C279.396 449.645 277.869 448.634 277.192 446.567" stroke="#AEEBF1" stroke-width="2"/>
<path d="M746.071 447.85C741.861 447.906 737.792 447.704 733.865 447.244C729.373 446.727 725.591 445.444 722.518 443.396C715.443 438.674 709.819 431.74 709.749 422.761" stroke="#AEEBF1" stroke-width="2"/>
<path d="M541.768 733.749L529.026 733.326C528.765 733.317 528.504 733.364 528.262 733.463C528.02 733.562 527.802 733.711 527.623 733.901C527.445 734.091 527.309 734.316 527.225 734.562C527.141 734.808 527.111 735.069 527.138 735.328C527.786 741.661 528.049 747.844 527.927 753.877C527.871 756.752 526.48 757.945 523.755 757.457" stroke="#AEEBF1" stroke-width="2"/>
<path d="M502.219 760.12C499.447 758.053 498.061 755.986 498.061 753.919C498.089 747.707 498.065 741.351 497.99 734.848C497.988 734.567 497.919 734.29 497.789 734.041C497.658 733.791 497.47 733.577 497.239 733.416C497.009 733.254 496.743 733.15 496.464 733.113C496.185 733.075 495.901 733.105 495.636 733.199C492.432 734.336 488.89 734.439 485.009 733.509" stroke="#AEEBF1" stroke-width="2"/>
<path d="M541.682 385.847L527.517 375.261L527.164 302.053L527.009 292.426L527.023 277.979L527.08 267.647L527.221 256.132C527.222 255.973 527.193 255.816 527.133 255.669C527.074 255.522 526.986 255.388 526.875 255.276C526.763 255.163 526.631 255.073 526.484 255.012C526.338 254.951 526.181 254.92 526.023 254.92L501.202 254.765C500.977 254.765 500.762 254.852 500.604 255.008C500.445 255.164 500.356 255.376 500.356 255.596L500.173 267.972L500.243 277.725L500.159 292.13L499.877 302.123L499.51 375.064L489.968 381.59L486.148 384.648C486.059 384.717 485.953 384.76 485.841 384.773C485.729 384.785 485.617 384.767 485.516 384.72C485.415 384.674 485.329 384.6 485.269 384.507C485.209 384.415 485.177 384.308 485.176 384.197C485.213 344.008 485.312 303.913 485.472 263.912C485.491 259.562 486.083 256.029 487.248 253.313C490.255 246.341 495.296 241.149 502.371 237.738C516.283 231.043 534.353 239.162 539.272 253.665C540.033 255.921 541.09 257.711 541.118 260.149C541.555 301.954 541.654 343.83 541.682 385.847Z" fill="#FFFFFA"/>
<path d="M527.081 267.647L500.174 267.971L500.357 255.596C500.357 255.376 500.446 255.164 500.605 255.008C500.763 254.852 500.978 254.765 501.203 254.765L526.024 254.92C526.182 254.92 526.339 254.951 526.485 255.012C526.632 255.073 526.764 255.163 526.876 255.276C526.987 255.388 527.075 255.522 527.135 255.669C527.194 255.816 527.224 255.973 527.222 256.132L527.081 267.647Z" fill="#010818"/>
<path d="M527.081 267.648L527.024 277.98L500.244 277.726L500.174 267.973L527.081 267.648Z" fill="#5CD7FB"/>
<path d="M500.245 277.725L527.025 277.979L527.011 292.426L500.16 292.13L500.245 277.725Z" fill="#010818"/>
<path d="M527.008 292.428L527.163 302.055L499.876 302.125L500.158 292.132L527.008 292.428Z" fill="#5CD7FB"/>
<path d="M499.877 302.124L527.165 302.053L527.517 375.262C526.831 376.013 526.211 376.324 525.657 376.192L500.638 375.966C500.62 375.403 500.244 375.102 499.511 375.064L499.877 302.124Z" fill="#417A8D"/>
<path d="M659.881 341.603C678.853 347.002 698.402 354.965 714.865 365.945C719.234 368.867 722.819 371.846 725.619 374.881C728.373 377.869 727.766 378.931 723.801 378.067C720.127 377.258 715.645 375.872 710.355 373.909C686.807 365.179 664.993 353.18 644.913 337.911C644.18 337.347 644.274 337.084 645.194 337.121C649.507 337.276 655.526 340.363 659.881 341.603Z" fill="#FFFFFA"/>
<path d="M373.797 343.844C351.231 358.559 324.987 371.442 298.742 378.743C298.273 378.875 297.986 378.705 297.883 378.236C296.248 371.005 328.327 355.416 334.275 352.78C346.275 347.471 361.539 342.571 380.069 338.08C380.605 337.948 380.676 338.075 380.281 338.46C377.979 340.734 375.817 342.529 373.797 343.844Z" fill="#FFFFFA"/>
<path d="M812.273 360.152C799.659 367.763 788.214 377.037 776.092 383.521C775.992 383.574 775.879 383.596 775.768 383.584C775.657 383.571 775.554 383.524 775.472 383.451L769.82 378.334C769.786 378.304 769.76 378.267 769.743 378.226C769.726 378.184 769.718 378.139 769.721 378.095C769.723 378.05 769.736 378.006 769.758 377.967C769.78 377.928 769.811 377.894 769.848 377.869L807.058 352.837C807.237 352.714 807.387 352.743 807.509 352.921L812.33 359.828C812.424 359.959 812.405 360.067 812.273 360.152Z" fill="#FFFFFA"/>
<path d="M219.899 353.528L255.15 376.348C255.242 376.409 255.318 376.492 255.371 376.588C255.424 376.685 255.453 376.794 255.456 376.904C255.459 377.015 255.435 377.124 255.387 377.223C255.339 377.323 255.267 377.409 255.178 377.475L249.047 382.014C248.936 382.095 248.802 382.142 248.664 382.147C248.526 382.152 248.389 382.115 248.272 382.042L212.936 359.969C212.846 359.912 212.771 359.834 212.716 359.742C212.661 359.651 212.628 359.547 212.62 359.441C212.612 359.334 212.629 359.227 212.669 359.128C212.709 359.029 212.772 358.941 212.852 358.87L219.068 353.584C219.181 353.486 219.324 353.427 219.474 353.417C219.624 353.406 219.773 353.446 219.899 353.528Z" fill="#FFFFFA"/>
<path d="M499.512 375.065C500.245 375.103 500.62 375.404 500.639 375.968L500.047 376.052C499.502 376.127 499.291 376.437 499.413 376.982C499.638 377.913 499.963 378.561 499.963 379.59C500.254 405.928 500.338 432.267 500.216 458.605C500.146 473.771 520.146 475.787 525.925 463.553C526.686 461.946 527.048 459.531 527.011 456.308C526.757 434.527 526.635 412.741 526.644 390.95C526.644 386.609 527.062 382.291 527.899 377.997C527.993 377.546 527.866 377.17 527.518 376.87C527.076 376.494 526.456 376.268 525.658 376.193C526.212 376.325 526.832 376.015 527.518 375.263L541.683 385.848C541.213 398.909 541.74 411.472 543.262 423.537L540.358 428.992C540.123 429.434 540.17 429.847 540.499 430.233C545.447 435.885 550.168 441.776 550.239 449.796C550.521 480.57 550.61 511.268 550.507 541.892C550.503 542.009 550.533 542.125 550.594 542.226C550.655 542.326 550.745 542.407 550.851 542.458C550.957 542.509 551.075 542.527 551.192 542.512C551.308 542.497 551.418 542.447 551.507 542.371L560.951 534.478C561.646 540.501 561.181 546.097 559.556 551.265C557.855 556.696 554.787 561.178 550.352 564.711C545.277 568.756 539.78 568.207 533.367 568.178C517.628 568.113 501.889 568.019 486.15 567.896C478.228 567.826 471.04 557.847 468.066 551.081C465.397 545.011 464.885 538.814 466.53 532.49L476.297 541.074C476.824 541.544 477.087 541.426 477.087 540.722C476.993 510.615 477.068 480.424 477.312 450.148C477.383 441.086 481.823 436.392 487.841 430.289C491.449 426.61 492.281 423.876 491.915 419.013C491.877 418.553 491.637 418.398 491.196 418.548L485.995 420.338C485.074 409.72 484.839 398.829 485.29 387.666C485.307 387.256 485.452 386.862 485.706 386.54C485.959 386.219 486.307 385.986 486.699 385.876C488.377 385.411 490.886 383.691 489.969 381.591L499.512 375.065Z" fill="#1D485D"/>
<path d="M500.638 375.966L525.656 376.192C526.455 376.267 527.075 376.493 527.517 376.868C527.864 377.169 527.991 377.545 527.897 377.996C527.061 382.29 526.643 386.608 526.643 390.949C526.633 412.74 526.755 434.526 527.009 456.307C527.047 459.53 526.685 461.945 525.924 463.551C520.145 475.786 500.144 473.77 500.215 458.604C500.337 432.266 500.252 405.927 499.961 379.589C499.961 378.56 499.637 377.911 499.411 376.981C499.289 376.436 499.501 376.126 500.046 376.051L500.638 375.966Z" fill="#010818"/>
<path d="M229.074 450.978C240.435 427.863 254.318 409.666 276.292 395.769C280.596 393.044 285.092 391.113 289.781 389.976C289.925 389.943 290.076 389.951 290.216 389.999C290.356 390.046 290.481 390.131 290.575 390.245C290.67 390.359 290.732 390.497 290.753 390.643C290.775 390.79 290.755 390.939 290.697 391.075C289.579 393.622 288.24 395.816 286.68 397.658C273.356 413.434 261.027 425.889 249.695 435.023C242.714 440.642 236.183 446.219 230.103 451.753C228.393 453.304 228.05 453.045 229.074 450.978Z" fill="#FFFFFA"/>
<path d="M794.768 449.612C795.144 450.317 795.243 450.904 795.064 451.374C794.895 451.834 794.623 451.909 794.247 451.599C782.322 441.973 734.809 405.848 735.063 391.076C735.065 390.89 735.113 390.708 735.204 390.546C735.294 390.384 735.424 390.246 735.582 390.146C735.74 390.045 735.92 389.985 736.107 389.97C736.294 389.956 736.483 389.987 736.655 390.061C743.266 392.993 749.143 396.362 754.908 400.999C771.521 414.37 784.808 430.575 794.768 449.612Z" fill="#FFFFFA"/>
<path d="M315.643 420.943C310.588 439.708 299.298 449.259 281.773 449.598C279.396 449.645 277.869 448.634 277.192 446.567C288.595 438.11 304.367 425.397 307.031 409.286C307.52 406.374 308.577 406.148 310.202 408.61C312.815 412.538 314.628 416.649 315.643 420.943Z" fill="#FFFFFA"/>
<path d="M746.071 447.851C741.861 447.907 737.792 447.705 733.865 447.244C729.373 446.728 725.591 445.445 722.518 443.397C715.443 438.675 709.819 431.74 709.749 422.762C710.839 417.321 712.878 412.449 715.866 408.145C715.929 408.053 716.017 407.98 716.12 407.936C716.224 407.892 716.337 407.877 716.448 407.895C716.559 407.913 716.662 407.962 716.746 408.036C716.83 408.11 716.891 408.207 716.923 408.315C720.324 419.957 726.329 429.851 734.936 437.998C737.473 440.408 742.491 444.031 746.071 447.851Z" fill="#FFFFFA"/>
<path d="M466.528 532.489C465.851 492.817 465.701 466.422 466.077 453.304C466.5 438.759 473.138 427.769 485.993 420.337L491.194 418.547C491.635 418.396 491.875 418.551 491.913 419.012C492.279 423.875 491.447 426.609 487.839 430.288C481.821 436.391 477.381 441.084 477.31 450.147C477.066 480.423 476.991 510.614 477.085 540.72C477.085 541.425 476.822 541.543 476.296 541.073L466.528 532.489Z" fill="#FFFFFA"/>
<path d="M315.644 420.943C317.195 428.78 317.035 434.845 315.165 439.139C307.54 456.532 289.329 463.988 271.217 459.844C268.68 459.262 266.406 458.369 264.395 457.166C264.255 457.083 264.139 456.966 264.056 456.826C263.973 456.686 263.927 456.527 263.921 456.364C263.915 456.202 263.951 456.04 264.024 455.895C264.097 455.749 264.205 455.624 264.339 455.531L277.193 446.567C277.87 448.634 279.397 449.645 281.774 449.598C299.299 449.259 310.589 439.708 315.644 420.943Z" fill="#5CD7FB"/>
<path d="M709.749 422.761C709.819 431.74 715.443 438.674 722.519 443.396C725.591 445.444 729.373 446.727 733.865 447.244C737.793 447.704 741.861 447.906 746.071 447.85L758.968 456.518C759.096 456.606 759.197 456.727 759.26 456.869C759.323 457.011 759.344 457.167 759.322 457.319C759.3 457.472 759.235 457.614 759.135 457.729C759.034 457.844 758.903 457.928 758.756 457.97C741.786 463.058 725.76 462.692 714.555 447.272C709.265 439.98 707.663 431.81 709.749 422.761Z" fill="#5CD7FB"/>
<path d="M543.259 423.536C555.202 430.32 561.211 439.656 561.287 451.543C561.503 485.718 561.587 511.915 561.54 530.135C561.531 531.535 561.334 532.982 560.948 534.476L551.505 542.369C551.416 542.446 551.306 542.495 551.189 542.511C551.073 542.526 550.954 542.507 550.848 542.456C550.742 542.406 550.653 542.325 550.592 542.224C550.531 542.124 550.5 542.008 550.504 541.89C550.607 511.267 550.518 480.568 550.236 449.795C550.166 441.775 545.444 435.883 540.497 430.231C540.168 429.846 540.121 429.432 540.356 428.991L543.259 423.536Z" fill="#FFFFFA"/>
<path d="M523.414 593.069C523.414 594.382 523.156 595.681 522.654 596.894C522.151 598.106 521.415 599.208 520.487 600.136C519.559 601.064 518.458 601.8 517.245 602.302C516.033 602.804 514.733 603.063 513.421 603.063C512.109 603.063 510.809 602.804 509.597 602.302C508.384 601.8 507.283 601.064 506.355 600.136C505.427 599.208 504.691 598.106 504.188 596.894C503.686 595.681 503.428 594.382 503.428 593.069C503.428 590.419 504.481 587.877 506.355 586.003C508.229 584.129 510.771 583.076 513.421 583.076C516.071 583.076 518.613 584.129 520.487 586.003C522.361 587.877 523.414 590.419 523.414 593.069Z" fill="#FFFFFA"/>
<path d="M750.06 659.681C749.962 655.199 751.879 651.041 754.162 647.278C766.312 627.193 782.845 611.844 800.971 597.255C801.403 596.908 801.671 596.72 801.774 596.692C802.629 596.447 802.822 596.706 802.352 597.467C789.667 618.299 776.192 638.159 758.63 655.312C756.422 657.464 753.955 659.164 751.23 660.414C751.106 660.474 750.969 660.501 750.831 660.493C750.694 660.485 750.56 660.442 750.444 660.369C750.327 660.296 750.231 660.195 750.164 660.075C750.097 659.954 750.061 659.819 750.06 659.681Z" fill="#FFFFFA"/>
<path d="M225.873 600.074C225.356 599.162 225.083 598.486 225.055 598.044C224.98 597.029 225.295 596.827 226 597.438C242.505 611.716 258.587 626.995 271.103 645.121C273.584 648.71 275.745 652.934 277.587 657.792C277.709 658.116 277.745 658.465 277.693 658.807C277.641 659.149 277.502 659.472 277.289 659.743C277.076 660.014 276.796 660.225 276.478 660.355C276.16 660.485 275.813 660.529 275.472 660.484C274.542 660.362 273.391 659.718 272.019 658.553C252.963 642.288 238.22 621.709 225.873 600.074Z" fill="#FFFFFA"/>
<path d="M456.365 684.628C462.417 668.824 468.895 652.995 475.802 637.143C475.872 636.98 475.975 636.834 476.105 636.712C476.234 636.59 476.388 636.495 476.556 636.433C476.724 636.371 476.904 636.344 477.084 636.352C477.265 636.36 477.442 636.404 477.606 636.481L485.457 640.216C485.663 640.312 485.837 640.467 485.959 640.662C486.082 640.856 486.147 641.083 486.147 641.315L486.162 686.912C486.162 687.023 486.139 687.133 486.096 687.235C486.052 687.337 485.988 687.429 485.907 687.505C485.827 687.582 485.732 687.641 485.628 687.68C485.523 687.718 485.413 687.735 485.302 687.729C473.716 687.194 463.272 687.532 463.215 702.036C463.159 713.358 463.211 724.531 463.37 735.553C463.38 736.154 463.084 736.45 462.482 736.441L451.347 736.314C450.746 736.305 450.445 735.999 450.445 735.398C450.455 724.611 450.483 713.692 450.53 702.642C450.572 695.679 453.997 690.83 456.365 684.628Z" fill="#FFDC87"/>
<path d="M562.528 695.144C558.623 686.151 549.574 687.842 541.794 687.603C541.381 687.584 541.174 687.368 541.174 686.955L540.878 640.766C540.878 640.39 541.061 640.174 541.428 640.117C544.575 639.629 547.446 638.464 550.04 636.622C550.19 636.513 550.363 636.441 550.547 636.411C550.73 636.381 550.918 636.394 551.096 636.448C551.274 636.503 551.438 636.598 551.575 636.725C551.712 636.853 551.819 637.011 551.886 637.186C559.253 656.514 566.883 675.824 574.776 695.115C575.753 697.493 576.256 699.95 576.284 702.487C576.425 713.866 576.486 725.072 576.467 736.103C576.467 736.23 576.415 736.352 576.323 736.442C576.23 736.532 576.105 736.582 575.974 736.582L564.289 736.413C563.81 736.404 563.571 736.159 563.571 735.68C563.571 725.156 563.585 714.444 563.613 703.544C563.622 699.635 563.26 696.835 562.528 695.144Z" fill="#FFDC87"/>
<path d="M286.114 670.901C309.681 680.443 326.707 697.935 342.55 717.78C344.138 719.772 345.378 721.694 346.271 723.545C346.637 724.315 346.445 724.494 345.693 724.08C323.198 711.719 302.76 698.245 286.142 678.357C284.536 676.44 283.375 674.199 282.661 671.634C282.617 671.482 282.609 671.321 282.638 671.166C282.667 671.01 282.732 670.863 282.828 670.737C282.924 670.611 283.048 670.509 283.19 670.44C283.333 670.37 283.489 670.335 283.648 670.337C284.371 670.337 285.193 670.525 286.114 670.901Z" fill="#FFFFFA"/>
<path d="M729.524 675.608C734.978 672.987 737.966 671.338 742.702 670.774C742.889 670.749 743.079 670.776 743.252 670.851C743.425 670.926 743.575 671.047 743.685 671.2C743.795 671.354 743.861 671.534 743.877 671.722C743.892 671.91 743.857 672.099 743.773 672.268C742.007 675.848 739.756 678.972 737.022 681.641C726.122 692.25 714.245 701.627 701.39 709.774C693.497 714.773 685.562 719.89 677.584 725.123C677.517 725.17 677.439 725.197 677.357 725.2C677.276 725.203 677.195 725.182 677.125 725.14C677.055 725.099 676.999 725.038 676.963 724.965C676.927 724.892 676.912 724.81 676.922 724.729C676.969 724.334 677.185 723.836 677.57 723.235C690.368 703.488 708.184 685.912 729.524 675.608Z" fill="#FFFFFA"/>
<path d="M541.769 733.749L529.027 733.327C528.765 733.317 528.505 733.364 528.263 733.463C528.021 733.562 527.803 733.712 527.624 733.901C527.445 734.091 527.309 734.316 527.225 734.562C527.141 734.809 527.112 735.07 527.138 735.328C527.787 741.661 528.05 747.844 527.927 753.877C527.871 756.752 526.48 757.946 523.755 757.457C522.806 747.177 522.562 736.733 523.022 726.124C523.04 725.651 522.885 725.186 522.586 724.813C518.428 719.612 512.48 716.878 506.334 721.275C503.656 723.206 502.641 725.011 502.726 728.52C502.998 738.885 502.829 749.418 502.219 760.121C499.447 758.054 498.061 755.986 498.061 753.919C498.089 747.708 498.065 741.351 497.99 734.849C497.988 734.567 497.919 734.291 497.789 734.041C497.658 733.792 497.47 733.578 497.239 733.416C497.009 733.255 496.743 733.151 496.464 733.113C496.185 733.075 495.901 733.105 495.636 733.2C492.432 734.337 488.89 734.44 485.009 733.51L485.559 710.437C485.568 710.023 485.784 709.816 486.207 709.816L541.092 709.859C541.191 709.859 541.285 709.897 541.356 709.965C541.427 710.033 541.469 710.127 541.473 710.225L541.769 733.749Z" fill="#FFFFFA"/>
<path d="M502.217 760.12L502.048 780.825C502.044 780.997 501.996 781.165 501.908 781.312C501.82 781.46 501.695 781.581 501.546 781.664C501.397 781.747 501.23 781.789 501.06 781.785C500.891 781.782 500.726 781.732 500.582 781.643C482.71 770.832 482.921 752.002 485.007 733.509C488.888 734.439 492.43 734.336 495.634 733.199C495.9 733.105 496.183 733.075 496.462 733.113C496.741 733.15 497.007 733.254 497.237 733.416C497.468 733.577 497.656 733.791 497.787 734.041C497.918 734.29 497.987 734.567 497.988 734.848C498.064 741.351 498.087 747.707 498.059 753.919C498.059 755.986 499.445 758.053 502.217 760.12Z" fill="#5CD7FB"/>
<path d="M541.766 733.749C542.188 753.087 545.247 772.834 525.853 780.91C525.708 780.968 525.551 780.989 525.396 780.971C525.242 780.952 525.095 780.895 524.969 780.805C524.843 780.714 524.743 780.594 524.678 780.454C524.614 780.315 524.586 780.162 524.598 780.008C525.171 772.425 524.889 764.908 523.752 757.457C526.477 757.945 527.868 756.752 527.925 753.877C528.047 747.844 527.784 741.661 527.135 735.328C527.109 735.069 527.138 734.808 527.222 734.562C527.306 734.316 527.442 734.091 527.621 733.901C527.8 733.711 528.018 733.562 528.26 733.463C528.502 733.364 528.762 733.317 529.024 733.326L541.766 733.749Z" fill="#5CD7FB"/>
</svg>
