<svg width="1024" height="1024" viewBox="0 0 1024 1024" fill="none" xmlns="http://www.w3.org/2000/svg">
<rect width="1024" height="1024" fill="white"/>
<path d="M365.845 293.768C365.809 279.702 375.156 268.981 388.897 268.203C399.708 267.607 411.28 277.497 404.825 288.706C403.089 291.725 399.039 294.112 396.309 297.167C395.914 297.622 395.695 298.2 395.695 298.795C395.839 308.504 398.172 326.837 394.031 334.774C387.324 347.647 365.664 343.127 365.772 328.12C365.845 316.67 365.869 305.219 365.845 293.768Z" fill="#010112"/>
<path d="M454.291 301.218C454.472 310.42 456.371 327.162 452.52 334.81C448.271 343.199 437.206 344.646 430.173 338.896C425.725 335.28 424.604 331.285 424.622 325.264C424.634 307.401 424.773 295.842 425.038 290.587C425.797 274.966 441.455 264.045 456.316 269.361C458.486 270.132 460.487 271.988 462.319 274.929C466.272 281.221 465.676 286.941 460.529 292.087C457.492 295.125 454.183 296.282 454.291 301.218Z" fill="#010112"/>
<path d="M495.532 271.964C503.415 266.667 516.197 266.414 522.471 274.694C526.485 279.986 526.388 285.247 522.182 290.478C519.56 293.769 512.437 294.962 512.581 301.453C512.78 310.294 514.841 326.312 511.677 333.327C508.821 339.637 502.258 343.163 495.297 341.843C487.342 340.324 483.334 334.84 483.274 325.39C483.225 315.868 483.262 306.334 483.382 296.788C483.527 285.416 486.474 278.057 495.532 271.964Z" fill="#010112"/>
<path d="M626.087 666.107C625.237 684.15 623.7 702.158 623.176 720.22C622.971 726.921 622.079 732.056 620.5 735.624C615.745 746.327 604.409 756.054 591.898 756C514.251 755.674 436.597 755.59 358.938 755.747C344.113 755.765 332.722 749.925 326.43 736.474C324.719 732.797 323.724 727.687 323.447 721.142C320.289 645.592 317.782 595.944 315.926 572.199C313.395 539.993 311.442 507.413 310.068 474.459C310.052 474.003 309.917 473.558 309.676 473.168C309.435 472.778 309.097 472.457 308.694 472.236C306.018 470.801 302.945 469.596 299.473 468.62C294.76 467.318 289.722 463.943 284.358 458.495C276.241 450.268 273.619 442.476 273.601 430.236C273.589 419.075 273.709 407.919 273.963 396.77C274.095 390.659 274.975 385.717 276.602 381.945C281.176 371.368 289.62 362.093 300.793 358.459C303.963 357.434 308.857 356.922 315.474 356.922C408.67 356.874 501.866 356.868 595.062 356.904C609.827 356.916 624.592 356.753 639.358 356.416C655.901 356.054 674.939 375.273 674.993 392.051C675.041 407.033 675.023 421.883 674.939 436.6C674.933 436.924 675.024 437.242 675.201 437.513C675.379 437.784 675.634 437.995 675.933 438.119C690.524 444.32 704.735 452.727 716.016 463.593C752.321 498.614 759.878 553.216 740.84 599.211C724.948 637.649 688.336 661.966 647.222 664.913C640.424 665.395 633.638 665.552 626.864 665.383C626.666 665.378 626.474 665.451 626.328 665.586C626.183 665.722 626.096 665.908 626.087 666.107Z" fill="#010112"/>
<path d="M387.776 393.226C397.231 401.778 391.844 411.161 380.363 411.216C362.295 411.312 344.426 411.33 326.756 411.27C326.276 411.27 325.8 411.365 325.357 411.55C324.913 411.735 324.511 412.006 324.173 412.347C323.835 412.688 323.568 413.093 323.388 413.538C323.207 413.983 323.117 414.46 323.122 414.94L323.248 438.227" stroke="#A3BAC2" stroke-width="2"/>
<path d="M476.331 719.822L476.674 702.375" stroke="#E57956" stroke-width="2"/>
<path d="M476.674 702.374C486.462 702.109 496.243 701.838 506.018 701.561C517.155 701.253 522.67 693.859 527.732 685.235C542.943 659.38 554.165 631.941 561.397 602.917C562.506 598.433 563.446 593.25 564.217 587.368C567.146 565.148 569.388 540.686 572.932 517.507C573.8 511.83 574.228 506.207 574.216 500.639C574.204 497.143 572.45 495.396 568.954 495.396L476.476 495.468" stroke="#EA645F" stroke-width="2"/>
<path d="M476.476 495.468L365.393 495.63" stroke="#EA905B" stroke-width="2"/>
<path d="M365.393 495.631L348.831 495.179" stroke="#EAADAC" stroke-width="2"/>
<path d="M365.393 495.631C366.532 513.042 366.532 530.869 367.598 547.683C370.383 591.093 371.775 634.286 375.734 691.888" stroke="#FFE2AE" stroke-width="2"/>
<path d="M375.734 691.888C375.614 696.469 375.481 701.019 375.337 705.539C375.24 708.371 375.728 713.03 376.801 719.514" stroke="#FACBA9" stroke-width="2"/>
<path d="M476.476 495.468L475.59 700.096" stroke="#FF9961" stroke-width="2"/>
<path d="M475.59 700.097L380.652 701.127C380.098 701.127 379.586 700.977 379.115 700.675C378.537 700.302 377.904 700.193 377.217 700.35C377.023 700.394 376.822 700.394 376.629 700.35C376.435 700.305 376.255 700.218 376.101 700.094C375.948 699.97 375.825 699.813 375.743 699.635C375.66 699.457 375.62 699.262 375.626 699.066L375.734 691.888" stroke="#FAAE58" stroke-width="2"/>
<path d="M476.675 702.375L475.59 700.096" stroke="#FA825C" stroke-width="2"/>
<path d="M387.776 393.226C397.232 401.778 391.844 411.161 380.363 411.216C362.295 411.312 344.426 411.33 326.756 411.27C326.276 411.27 325.8 411.365 325.357 411.55C324.914 411.735 324.511 412.006 324.173 412.347C323.836 412.688 323.569 413.093 323.388 413.538C323.208 413.983 323.117 414.46 323.122 414.94L323.249 438.227C315.98 437.449 307.881 433.743 307.682 425.535C307.429 415.591 305.422 399.735 313.54 394.202C315.866 392.623 319.602 391.798 324.749 391.725C343.456 391.46 362.156 391.472 380.851 391.762C383.183 391.798 385.57 392.666 387.776 393.226Z" fill="white"/>
<path d="M323.248 438.227L323.122 414.94C323.117 414.46 323.207 413.984 323.388 413.539C323.568 413.093 323.835 412.689 324.173 412.347C324.511 412.006 324.913 411.735 325.357 411.55C325.8 411.365 326.276 411.27 326.756 411.27C344.426 411.33 362.295 411.312 380.363 411.216C391.844 411.162 397.231 401.778 387.776 393.226C389.306 392.25 391.054 391.768 393.019 391.78C433.048 392.142 491.898 392.196 566.134 391.997C586.637 391.949 607.139 391.889 627.642 391.816C639.9 391.78 639.936 401.814 640.262 412.102C640.424 417.652 641.798 429.929 638.182 434.286C636.254 436.612 633.934 437.799 631.222 437.848C580.381 438.655 499.292 438.77 387.956 438.191C382.508 438.167 371.721 438.245 355.593 438.426C344.673 438.547 333.891 438.48 323.248 438.227Z" fill="#467585"/>
<path d="M673.42 614.759C711.279 588.67 718.258 524.053 682.894 492.973C671.455 482.909 657.196 478.515 640.117 479.793C639.502 479.841 639.068 479.576 638.815 478.997C633.644 466.938 658.486 471.205 662.88 472.796C682.876 480.082 701.408 494.673 709.236 514.904C718.457 538.643 717.155 574.224 703.867 595.631C695.224 609.553 683.364 617.924 670.166 624.794C658.251 630.995 647.15 631.357 630.788 631.049C628.944 631.013 628.033 630.073 628.058 628.229L628.076 626.023C628.1 623.95 629.136 623.034 631.185 623.275C646.3 625.029 660.656 623.546 673.42 614.759Z" fill="#467585"/>
<path d="M476.331 719.822L476.675 702.375C486.462 702.11 496.243 701.838 506.018 701.561C517.155 701.254 522.67 693.859 527.732 685.235C542.943 659.381 554.165 631.941 561.397 602.917C562.506 598.433 563.446 593.25 564.217 587.368C567.146 565.148 569.388 540.686 572.932 517.508C573.8 511.83 574.228 506.208 574.216 500.639C574.204 497.144 572.45 495.396 568.954 495.396L476.476 495.468L365.393 495.631L348.831 495.179C346.807 485.687 345.776 473.067 358.667 472.959C435.651 472.38 512.642 472.151 589.638 472.272C597.4 472.284 601.101 475.906 600.739 483.138C598.135 536.021 593.597 595.342 591.862 641.807C590.596 675.604 589.517 698.5 588.625 710.493C588.173 716.441 583.744 719.713 577.669 719.659C543.811 719.322 510.032 719.376 476.331 719.822Z" fill="#D45B59"/>
<path d="M348.831 495.179L365.393 495.631C366.532 513.042 366.532 530.868 367.598 547.683C370.383 591.093 371.775 634.286 375.734 691.888C375.614 696.468 375.481 701.019 375.336 705.539C375.24 708.371 375.728 713.03 376.801 719.514L364.109 718.936C363.526 718.912 362.972 718.674 362.554 718.267C359.782 715.543 358.402 712.174 358.414 708.16C358.438 697.915 357.944 687.7 356.931 677.515C353.876 646.869 353.586 599.12 351.055 557.79C349.79 536.913 349.048 516.043 348.831 495.179Z" fill="white"/>
<path d="M476.476 495.468L475.59 700.097L380.652 701.127C380.098 701.127 379.585 700.977 379.115 700.675C378.537 700.302 377.904 700.193 377.217 700.35C377.023 700.394 376.822 700.394 376.628 700.35C376.435 700.305 376.255 700.218 376.101 700.094C375.947 699.97 375.825 699.813 375.742 699.635C375.66 699.457 375.62 699.262 375.626 699.066L375.734 691.888C371.775 634.286 370.383 591.093 367.598 547.683C366.532 530.869 366.532 513.042 365.393 495.631L476.476 495.468Z" fill="#FFC45D"/>
<path d="M476.675 702.375L475.59 700.097L476.476 495.468L568.955 495.396C572.45 495.396 574.204 497.144 574.216 500.639C574.228 506.208 573.8 511.831 572.932 517.508C569.388 540.686 567.147 565.148 564.218 587.369C563.446 593.251 562.506 598.433 561.397 602.917C554.165 631.942 542.944 659.381 527.732 685.235C522.67 693.859 517.156 701.254 506.018 701.561C496.243 701.838 486.462 702.11 476.675 702.375Z" fill="#FF6D65"/>
<path d="M636.646 513.675C650.007 509.77 668.737 518.141 668.737 534.105C668.737 542.47 668.749 550.835 668.774 559.2C668.798 565.926 668.129 570.886 666.767 574.08C660.131 589.574 646.409 588.381 632.18 588.399C632.068 588.399 631.956 588.376 631.853 588.331C631.75 588.287 631.656 588.221 631.579 588.138C631.501 588.055 631.44 587.957 631.401 587.85C631.361 587.742 631.343 587.628 631.348 587.513L634.982 515.772C635.042 514.687 635.597 513.988 636.646 513.675Z" fill="white"/>
<path d="M375.734 691.888L375.626 699.066C375.62 699.262 375.66 699.457 375.743 699.635C375.825 699.813 375.948 699.97 376.101 700.094C376.255 700.218 376.435 700.305 376.629 700.35C376.822 700.394 377.023 700.394 377.217 700.35C377.904 700.193 378.537 700.302 379.115 700.675C379.585 700.977 380.098 701.127 380.652 701.127L475.59 700.097L476.675 702.375L476.331 719.822L376.801 719.514C375.728 713.03 375.24 708.371 375.337 705.539C375.481 701.019 375.614 696.469 375.734 691.888Z" fill="#F59752"/>
</svg>
