<svg width="1024" height="1024" viewBox="0 0 1024 1024" fill="none" xmlns="http://www.w3.org/2000/svg">
<rect width="1024" height="1024" fill="white"/>
<path d="M309.152 676.821L309.307 664.638" stroke="#806761" stroke-width="2"/>
<path d="M309.308 664.638C309.839 657.528 310.637 650.373 310.637 643.329C310.57 610.768 310.969 578.272 309.861 545.733" stroke="#420B05" stroke-width="2"/>
<path d="M309.307 664.638L309.064 559.023" stroke="#C27266" stroke-width="2"/>
<path d="M309.153 676.821L309.308 664.638C309.84 657.528 310.637 650.373 310.637 643.329C310.571 610.768 310.969 578.272 309.862 545.733L309.53 539.309C309.485 538.512 309.064 538.098 308.267 538.069C269.924 536.319 245.935 504.134 245.957 467.563C245.957 442.134 246.223 416.705 246.754 391.276C246.991 380.053 248.187 371.259 250.343 364.894C257.874 342.588 279.892 319.507 305.941 319.463C323.042 319.433 337.624 319.205 349.689 318.776C352.273 318.688 353.934 317.366 354.673 314.811C359.812 297.157 348.072 287.366 335.867 277.066C333.895 275.405 332.035 272.525 332.278 269.668C333.142 259.324 342.866 257.64 351.638 254.694C362.448 251.084 370.333 245.103 376.248 235.467C381.121 227.515 381.63 210.991 395.652 214.535C405.597 217.06 409.142 229.907 418.932 233.961C425.43 236.649 432.001 237.261 438.646 235.799C443.32 234.781 445.602 228.468 447.839 224.636C470.056 186.514 524.193 189.792 540.385 231.392C543.087 238.347 561.096 235.733 565.504 234.271C572.326 232.012 575.538 224.06 580.699 219.142C587.743 212.43 597.955 211.279 601.1 222.708C607.258 245.147 619.308 251.637 639.908 258.039C646.797 260.165 652.534 263.754 650.452 271.529C648.503 278.816 638.623 283.756 633.462 289.471C628.013 295.54 620.305 315.852 633.64 318.555C658.736 323.649 677.321 342.012 684.852 366.223C686.609 371.879 687.466 379.72 687.422 389.747C687.289 413.729 687.318 437.704 687.51 461.671C687.628 476.172 686.669 486.642 684.631 493.081C678.096 513.725 660.597 529.607 639.664 535.433C628.501 538.534 614.723 537.515 602.318 537.604C600.015 537.618 598.878 538.785 598.907 541.104L599.084 552.4C599.114 554.778 600.317 555.989 602.695 556.033C615.66 556.24 628.597 556.432 641.503 556.609C692.804 557.296 731.945 596.17 740.606 645.234C740.738 646.002 741.093 646.645 741.669 647.161C780.92 683.001 786.325 752.821 747.007 791.075C745.767 792.271 746.018 792.854 747.76 792.825C755.557 792.648 765.37 791.075 771.683 795.616C778.949 800.888 781.075 811.011 775.715 818.542C769.313 827.513 761.494 825.874 751.725 825.896C604.068 826.073 456.411 825.881 308.754 825.32C302.493 825.29 297.871 824.338 294.888 822.462C286.05 816.858 285.252 801.574 294.223 795.549C297.044 793.659 301.378 792.625 307.226 792.448C318.774 792.079 330.322 791.946 341.87 792.05C342.412 792.055 342.935 791.847 343.325 791.47C343.715 791.092 343.94 790.576 343.952 790.034L344.882 748.169C344.896 747.524 344.759 746.885 344.482 746.304C344.205 745.723 343.796 745.216 343.287 744.824C321.491 728.1 308.865 704.51 309.153 676.821Z" fill="black"/>
<path d="M309.862 545.733C310.97 578.272 310.571 610.768 310.637 643.329C310.637 650.373 309.84 657.528 309.308 664.638L309.064 559.023L309.862 545.733Z" fill="#84160A"/>
<path d="M309.064 559.023L309.308 664.638L309.153 676.821L308.577 653.762C308.562 653.349 308.451 652.965 308.245 652.61C308.097 652.345 308.016 652.131 308.001 651.968C307.396 638.973 307.418 626.029 308.068 613.138C308.407 606.36 308.614 599.574 308.688 592.781L309.064 559.023Z" fill="#FFCDC2"/>
<path d="M507.734 237.173C505.874 237.778 503.636 237.439 501.023 236.154C500.336 235.81 499.553 235.716 498.807 235.888C488.84 238.059 485.539 239.499 481.929 249.489C481.82 249.806 481.615 250.082 481.342 250.28C481.068 250.478 480.74 250.589 480.4 250.596C478.348 250.655 475.97 249.43 473.268 246.919" stroke="#FF9F97" stroke-width="2"/>
<path d="M449.877 275.914C447.263 276.283 444.693 276.557 442.168 276.734C427.261 277.753 416.761 273.411 403.493 267.896C401.514 267.069 400.769 267.696 401.256 269.779C401.536 271.034 400.746 272.075 398.886 272.902" stroke="#83F1BE" stroke-width="2"/>
<path d="M460.376 289.294C457.231 293.842 453.362 297.076 448.769 298.996" stroke="#04AA78" stroke-width="2"/>
<path d="M579.99 274.918C573.729 275.804 566.006 275.671 556.82 274.519C553.409 274.098 550.042 277.199 547.141 277.753C542.474 278.624 538.59 278.034 535.489 275.981" stroke="#6FEEB7" stroke-width="2"/>
<path d="M535.6 298.929C530.225 298.324 526.481 295.252 524.37 289.714" stroke="#04AA78" stroke-width="2"/>
<path d="M654.771 465.348C653.796 467.519 652.364 468.811 650.474 469.224C649.862 469.355 649.286 469.628 648.79 470.022C639.31 477.464 634.414 481.163 623.804 481.296C517.392 482.67 410.714 481.474 304.279 481.274C298.232 481.252 288.242 482.249 284.676 476.113C282.387 472.17 281.59 467.843 282.284 463.133" stroke="#A8EFFE" stroke-width="2"/>
<path d="M565.105 560.375C559.124 560.242 552.9 558.979 547.362 559.023C506.93 559.274 466.49 559.444 426.042 559.533C410.182 559.555 387.744 558.182 368.672 559.068C367.729 559.11 366.836 559.503 366.165 560.17C365.494 560.837 365.093 561.731 365.039 562.678C364.463 572.956 364.596 578.959 365.327 592.338C365.622 597.743 365.261 603.066 364.242 608.309" stroke="#EE233B" stroke-width="2"/>
<path d="M707.8 656.509C707.844 659.049 707.52 661.36 706.825 663.442C706.589 664.151 706.095 664.557 705.341 664.66C691.46 666.329 684.018 674.289 683.013 688.539C682.585 694.549 679.27 697.481 673.068 697.333C648.658 696.713 619.862 697.931 599.992 697.931C549.784 697.931 499.576 697.562 449.367 696.823C447.211 696.779 445.794 695.672 445.114 693.501" stroke="#EE233B" stroke-width="2"/>
<path d="M354.318 642.687L356.245 651.791C356.269 651.898 356.268 652.009 356.242 652.116C356.216 652.222 356.166 652.321 356.095 652.405C356.024 652.489 355.935 652.555 355.834 652.598C355.733 652.641 355.624 652.661 355.514 652.655C350.7 652.359 346.381 650.875 342.556 648.202" stroke="#01384A" stroke-width="2"/>
<path d="M357.973 642.775L357.995 654.338C357.995 655.047 358.32 655.534 358.97 655.8L367.343 659.211" stroke="#808991" stroke-width="2"/>
<path d="M367.343 659.211L368.008 660.762C368.274 661.382 368.178 661.943 367.72 662.445C367.144 663.08 366.819 663.693 366.745 664.284" stroke="#01273C" stroke-width="2"/>
<path d="M366.745 664.284C358.593 667.252 357.22 671.291 362.625 676.4" stroke="#808991" stroke-width="2"/>
<path d="M362.625 676.4C363.053 682.47 366.065 685.645 371.662 685.925C372.209 685.955 372.629 686.095 372.925 686.346C373.338 686.7 373.634 687.121 373.811 687.609C374.047 688.258 374.475 688.76 375.096 689.115C378.042 690.82 379.659 692.836 382.959 693.744C390.86 695.886 398.088 696.941 404.645 696.912" stroke="#01273C" stroke-width="2"/>
<path d="M404.645 696.912C408.13 695.923 410.588 693.922 412.021 690.909" stroke="#808991" stroke-width="2"/>
<path d="M362.625 676.4C370.643 678.128 373.966 668.692 366.745 664.284" stroke="#809EAA" stroke-width="2"/>
<path d="M404.644 696.912C397.054 684.389 387.965 673.676 377.377 664.771C374.822 662.63 371.477 660.777 367.343 659.211" stroke="#809EAA" stroke-width="2"/>
<path d="M507.734 237.173C505.874 237.778 503.636 237.439 501.023 236.154C500.336 235.81 499.553 235.716 498.807 235.888C488.84 238.059 485.539 239.499 481.929 249.489C481.82 249.806 481.615 250.082 481.342 250.28C481.068 250.478 480.74 250.589 480.4 250.596C478.348 250.655 475.97 249.43 473.268 246.919C480.164 226.6 491.653 223.351 507.734 237.173Z" fill="#FFF9F6"/>
<path d="M507.734 237.173C511.884 243.272 512.039 249.43 508.199 255.647C501.067 267.232 487.289 270.266 478.141 258.836C476.251 256.459 474.626 252.487 473.268 246.919C475.97 249.43 478.348 250.655 480.4 250.596C480.74 250.589 481.068 250.478 481.342 250.28C481.615 250.082 481.82 249.806 481.929 249.489C485.539 239.499 488.84 238.059 498.807 235.888C499.553 235.716 500.336 235.81 501.023 236.154C503.636 237.439 505.874 237.778 507.734 237.173Z" fill="#FF4437"/>
<path d="M449.876 275.914C447.263 276.284 444.693 276.557 442.168 276.734C427.261 277.753 416.761 273.411 403.493 267.896C401.514 267.069 400.768 267.697 401.256 269.779C401.536 271.034 400.746 272.075 398.886 272.902L389.471 270.687C386.828 270.067 386.658 269.026 388.962 267.564C392.772 265.171 395.799 262.004 398.044 258.061C398.266 257.674 398.565 257.337 398.923 257.071C399.282 256.805 399.691 256.617 400.126 256.517C400.561 256.417 401.012 256.408 401.45 256.491C401.888 256.574 402.305 256.746 402.673 256.998C413.542 264.411 425.407 267.519 438.27 266.323C439.923 266.161 441.607 265.895 443.32 265.526C443.955 265.393 444.427 265.614 444.737 266.19L449.876 275.914Z" fill="white"/>
<path d="M579.99 274.918C573.729 275.804 566.006 275.671 556.82 274.519C553.409 274.098 550.042 277.199 547.141 277.753C542.474 278.624 538.59 278.034 535.489 275.981C536.951 272.821 537.771 269.793 537.948 266.899C537.971 266.49 538.085 266.091 538.281 265.731C538.477 265.37 538.751 265.057 539.083 264.814C539.415 264.571 539.797 264.403 540.202 264.324C540.607 264.244 541.024 264.253 541.426 264.352C550.965 266.685 560.475 266.722 569.956 264.462C574.94 263.266 578.639 259.988 582.958 257.286C583.198 257.135 583.465 257.035 583.744 256.992C584.023 256.948 584.308 256.962 584.58 257.033C584.852 257.103 585.106 257.229 585.326 257.402C585.547 257.575 585.728 257.792 585.86 258.039C587.957 261.982 590.859 265.164 594.565 267.586C596.588 268.9 596.448 269.912 594.144 270.62L579.99 274.918Z" fill="#D6F9F1"/>
<path d="M449.877 275.914C452.033 280.359 455.533 284.819 460.376 289.294C457.231 293.842 453.362 297.076 448.769 298.996C433.013 288.511 416.385 279.813 398.886 272.902C400.746 272.075 401.536 271.034 401.256 269.779C400.769 267.697 401.514 267.069 403.493 267.896C416.761 273.411 427.261 277.753 442.168 276.734C444.693 276.557 447.263 276.284 449.877 275.914Z" fill="#07E37C"/>
<path d="M579.99 274.918C564.736 281.858 549.939 289.862 535.6 298.929C530.225 298.324 526.481 295.252 524.37 289.715L535.489 275.981C538.59 278.034 542.474 278.624 547.141 277.753C550.042 277.199 553.409 274.098 556.821 274.519C566.006 275.671 573.729 275.804 579.99 274.918Z" fill="#07E37C"/>
<path d="M460.376 289.294C464.777 293.458 469.975 296.197 475.97 297.511C476.515 297.637 476.997 297.95 477.33 298.392C477.663 298.835 477.825 299.379 477.787 299.926L476.834 315.631C476.806 316.133 476.64 316.619 476.354 317.033C476.068 317.448 475.674 317.776 475.215 317.982C474.755 318.188 474.248 318.263 473.748 318.2C473.249 318.137 472.776 317.938 472.382 317.624L448.769 298.996C453.362 297.076 457.231 293.842 460.376 289.294Z" fill="#007073"/>
<path d="M524.369 289.714C526.481 295.252 530.225 298.324 535.6 298.929L525.455 303.758C525.181 303.891 524.936 304.077 524.735 304.305C524.533 304.533 524.379 304.799 524.281 305.087C522.752 309.628 513.981 315.963 510.082 318.798C509.89 318.939 509.664 319.027 509.427 319.053C509.191 319.08 508.951 319.045 508.732 318.951C508.513 318.857 508.322 318.708 508.178 318.518C508.035 318.328 507.942 318.104 507.911 317.868C507.365 313.379 507.254 308.823 507.579 304.201C507.801 301.085 508.923 299.165 510.946 298.442C516.262 296.522 520.737 293.613 524.369 289.714Z" fill="#007073"/>
<path d="M557.728 317.647C567.851 311.156 581.718 302.916 594.366 299.129C595.075 298.922 595.481 299.18 595.584 299.904C596.492 306.062 595.983 310.935 598.021 316.916C598.096 317.136 598.118 317.37 598.084 317.6C598.05 317.83 597.962 318.048 597.827 318.235C597.692 318.423 597.514 318.574 597.309 318.676C597.103 318.777 596.876 318.827 596.647 318.82L557.839 318.09C557.322 318.075 557.285 317.927 557.728 317.647Z" fill="#015E71"/>
<path d="M388.63 298.154L426.375 317.071C426.559 317.159 426.706 317.308 426.793 317.493C426.879 317.677 426.899 317.886 426.85 318.084C426.801 318.281 426.684 318.456 426.521 318.578C426.358 318.7 426.158 318.762 425.954 318.754L387.456 317.779C387.338 317.777 387.221 317.75 387.113 317.702C387.005 317.653 386.908 317.583 386.828 317.497C386.747 317.41 386.685 317.308 386.645 317.197C386.604 317.085 386.586 316.967 386.592 316.849L387.345 298.907C387.352 298.759 387.395 298.615 387.471 298.488C387.548 298.361 387.655 298.255 387.782 298.18C387.91 298.105 388.055 298.064 388.203 298.059C388.351 298.055 388.498 298.087 388.63 298.154Z" fill="#007073"/>
<path d="M654.771 465.348C653.796 467.519 652.364 468.811 650.474 469.224C649.862 469.355 649.286 469.628 648.79 470.022C639.31 477.464 634.414 481.164 623.804 481.297C517.392 482.67 410.714 481.474 304.279 481.274C298.232 481.252 288.242 482.249 284.676 476.113C282.387 472.17 281.59 467.844 282.284 463.133C289.047 460.608 292.761 456.288 293.425 450.175C294.267 442.356 287.733 437.128 281.309 434.27C280.674 433.99 280.261 433.517 280.069 432.853C279.316 430.032 279.382 427.241 280.268 424.48C280.475 423.83 280.918 423.483 281.597 423.439C298.742 422.176 299.229 400.335 282.793 395.706C282.058 395.5 281.416 395.047 280.972 394.423C280.529 393.798 280.312 393.04 280.357 392.273C281.575 370.188 289.018 352.578 314.247 352.49C366.42 352.313 418.577 352.165 470.72 352.047C471.503 352.047 472.123 352.357 472.581 352.977C482.815 366.932 501.222 368.128 511.101 353.332C511.285 353.051 511.536 352.818 511.832 352.653C512.129 352.487 512.463 352.393 512.807 352.379C519.009 352.039 525.182 351.884 531.325 351.914C575.05 352.18 605.692 352.268 623.25 352.18C645.756 352.047 656.698 373.843 655.391 393.934C655.357 394.404 655.189 394.854 654.906 395.231C654.623 395.608 654.238 395.896 653.796 396.06C649.853 397.5 645.379 398.541 642.743 401.842C634.37 412.319 644.249 422.442 654.638 423.948C655.099 424.017 655.521 424.247 655.826 424.597C656.13 424.946 656.298 425.392 656.299 425.853V433.717C656.302 434.191 656.211 434.66 656.03 435.099C655.85 435.537 655.583 435.934 655.247 436.269C654.911 436.603 654.512 436.866 654.072 437.044C653.633 437.222 653.163 437.311 652.689 437.305C635.345 437.15 635.101 459.877 652.024 462.535C653.59 462.786 654.505 463.724 654.771 465.348Z" fill="white"/>
<path d="M282.284 463.133C281.59 467.844 282.387 472.17 284.676 476.113C288.243 482.249 298.233 481.252 304.28 481.274C410.714 481.474 517.392 482.67 623.805 481.297C634.415 481.164 639.31 477.464 648.791 470.022C649.287 469.628 649.863 469.355 650.474 469.224C652.364 468.811 653.797 467.519 654.771 465.348C655.303 465.857 655.835 466.876 655.812 467.652C655.606 484.663 648.909 495.916 635.722 501.41C630.42 503.61 621.597 504.717 609.252 504.732C522.864 504.776 436.232 503.58 349.866 505.197C331.422 505.537 318.242 505.374 310.327 504.71C297.42 503.632 287.984 497.142 282.018 485.239C279.449 480.123 278.829 473.743 276.658 467.763C276.528 467.403 276.486 467.018 276.536 466.638C276.586 466.259 276.726 465.897 276.944 465.581C277.163 465.265 277.454 465.005 277.793 464.822C278.132 464.639 278.51 464.539 278.895 464.528C280.076 464.514 281.206 464.048 282.284 463.133Z" fill="#50DFFC"/>
<path d="M565.105 560.375C559.124 560.242 552.9 558.979 547.362 559.024C506.93 559.275 466.49 559.445 426.042 559.533C410.182 559.555 387.744 558.182 368.672 559.068C367.73 559.111 366.836 559.503 366.165 560.17C365.494 560.837 365.093 561.731 365.039 562.678C364.463 572.956 364.596 578.959 365.327 592.338C365.623 597.743 365.261 603.067 364.242 608.309L344.993 603.635C342.955 603.148 341.943 601.856 341.958 599.759L342.135 538.601C342.135 538.254 342.273 537.922 342.518 537.677C342.763 537.431 343.096 537.294 343.442 537.294L563.156 538.025C563.369 538.026 563.579 538.072 563.773 538.161C563.966 538.249 564.138 538.378 564.277 538.538C564.416 538.697 564.518 538.885 564.577 539.087C564.636 539.289 564.65 539.501 564.618 539.708C563.643 546.634 563.805 553.523 565.105 560.375Z" fill="#DD023E"/>
<path d="M565.105 560.375C572.075 581.078 586.451 590.994 608.232 590.123C637.006 588.993 657.939 586.955 679.27 603.768C696.223 617.103 705.733 634.683 707.8 656.509C707.844 659.049 707.519 661.36 706.825 663.442C706.589 664.151 706.094 664.557 705.341 664.66C691.46 666.329 684.017 674.289 683.013 688.539C682.585 694.549 679.27 697.48 673.068 697.333C648.658 696.712 619.862 697.931 599.992 697.931C549.784 697.931 499.575 697.562 449.367 696.823C447.211 696.779 445.793 695.671 445.114 693.501C439.466 654.471 401.411 618.454 364.242 608.309C365.261 603.066 365.622 597.743 365.327 592.338C364.596 578.959 364.463 572.956 365.039 562.678C365.093 561.731 365.494 560.837 366.165 560.17C366.836 559.503 367.729 559.11 368.672 559.068C387.744 558.182 410.182 559.555 426.042 559.533C466.49 559.444 506.93 559.274 547.362 559.023C552.9 558.979 559.124 560.242 565.105 560.375Z" fill="#FF4437"/>
<path d="M354.319 642.687L356.246 651.791C356.27 651.898 356.269 652.009 356.243 652.116C356.217 652.222 356.166 652.321 356.095 652.405C356.024 652.489 355.935 652.555 355.834 652.598C355.734 652.642 355.624 652.661 355.515 652.655C350.701 652.36 346.381 650.875 342.557 648.203C341.744 645.618 341.678 643.566 342.357 642.045C342.697 641.292 343.273 640.908 344.085 640.893C347.481 640.775 350.893 641.373 354.319 642.687Z" fill="#015E71"/>
<path d="M354.319 642.687C355.382 643.086 356.6 643.115 357.974 642.775L357.996 654.338C357.996 655.047 358.321 655.534 358.97 655.8L367.343 659.211L368.008 660.762C368.274 661.382 368.178 661.943 367.72 662.445C367.144 663.08 366.819 663.693 366.745 664.284C358.594 667.252 357.22 671.291 362.625 676.4C363.053 682.47 366.066 685.645 371.663 685.925C372.209 685.955 372.63 686.095 372.925 686.346C373.339 686.701 373.634 687.121 373.811 687.609C374.048 688.258 374.476 688.761 375.096 689.115C378.042 690.821 379.659 692.836 382.96 693.744C390.86 695.886 398.089 696.941 404.645 696.912C408.13 695.923 410.589 693.922 412.021 690.909C415.654 694.719 416.828 698.167 415.543 701.254C412.619 708.297 415.898 711.819 415.543 718.265C415.521 718.708 415.411 719.141 415.222 719.541C415.032 719.941 414.766 720.299 414.439 720.595C414.112 720.891 413.73 721.12 413.315 721.268C412.9 721.415 412.461 721.479 412.021 721.455C394.389 720.503 367.498 724.379 354.23 710.535C351.69 707.891 349.925 703.749 348.936 698.108C348.463 695.48 347.489 692.807 346.012 690.09C342.704 684.006 341.671 677.567 342.911 670.774C343.465 667.673 342.8 664.616 344.107 662.445C344.565 661.677 345.074 661.641 345.636 662.335C346.344 663.25 347.326 663.605 348.582 663.398C349.364 663.265 350.132 663.361 350.885 663.686C352.391 664.321 353.979 664.653 355.648 664.683C355.792 664.685 355.934 664.651 356.062 664.586C356.191 664.52 356.301 664.424 356.384 664.307C356.467 664.189 356.52 664.052 356.538 663.91C356.557 663.767 356.54 663.621 356.489 663.487L354.983 659.632C354.791 659.145 354.459 658.79 353.986 658.569C351.86 657.565 350.154 656.118 348.87 654.228C348.486 653.666 347.961 653.356 347.297 653.297C344.27 653.031 342.69 651.333 342.557 648.202C346.381 650.875 350.701 652.359 355.515 652.655C355.624 652.661 355.734 652.641 355.835 652.598C355.935 652.555 356.025 652.489 356.095 652.405C356.166 652.321 356.217 652.222 356.243 652.116C356.269 652.009 356.27 651.898 356.246 651.791L354.319 642.687Z" fill="#011223"/>
<path d="M412.021 690.909C410.588 693.922 408.13 695.923 404.645 696.912C397.054 684.389 387.965 673.676 377.377 664.771C374.822 662.63 371.477 660.777 367.343 659.212L358.97 655.8C358.32 655.534 357.995 655.047 357.995 654.338L357.973 642.776C361.104 642.318 364.33 642.864 367.653 644.415C389.272 654.53 404.061 670.028 412.021 690.909Z" fill="white"/>
<path d="M707.8 656.509C708.76 670.479 705.954 683.821 699.383 696.535C690.567 713.562 676.353 722.083 656.743 722.097C587.824 722.156 518.699 722.289 449.367 722.496C449.011 722.498 448.666 722.365 448.4 722.123C448.134 721.882 447.966 721.549 447.927 721.189L445.114 693.501C445.794 695.672 447.211 696.779 449.367 696.823C499.576 697.562 549.784 697.931 599.992 697.931C619.862 697.931 648.658 696.713 673.068 697.333C679.27 697.481 682.585 694.549 683.013 688.539C684.018 674.289 691.46 666.329 705.341 664.66C706.095 664.557 706.589 664.151 706.825 663.442C707.52 661.36 707.844 659.049 707.8 656.509Z" fill="#DD023E"/>
<path d="M367.343 659.212C371.478 660.777 374.822 662.63 377.377 664.771C387.965 673.676 397.054 684.39 404.645 696.912C398.088 696.942 390.86 695.886 382.959 693.745C379.659 692.836 378.042 690.821 375.096 689.115C374.475 688.761 374.047 688.259 373.811 687.609C373.634 687.122 373.338 686.701 372.925 686.346C372.629 686.095 372.209 685.955 371.662 685.925C366.065 685.645 363.053 682.47 362.625 676.401C370.643 678.128 373.966 668.692 366.745 664.284C366.819 663.693 367.143 663.081 367.719 662.446C368.177 661.943 368.273 661.382 368.007 660.762L367.343 659.212Z" fill="#003C55"/>
<path d="M366.745 664.284C373.966 668.692 370.643 678.128 362.625 676.4C357.22 671.291 358.593 667.252 366.745 664.284Z" fill="white"/>
<path d="M736.242 701.032C749.245 736.185 728.755 777.164 693.624 788.262C686.241 790.595 673.172 791.769 654.417 791.784C594.743 791.843 535.047 791.828 475.328 791.739C474.472 791.739 474.036 791.304 474.021 790.433L473.733 756.099C473.733 755.346 474.11 754.969 474.863 754.969C528.054 754.94 581.231 754.954 634.393 755.014C657.548 755.043 670.757 754.777 674.021 754.216C701.421 749.498 725.3 727.392 733.407 701.099C734.278 698.293 735.223 698.271 736.242 701.032Z" fill="#FFF9F6"/>
<path d="M438.89 755.146H377.975C376.483 755.146 375.273 756.356 375.273 757.849V788.505C375.273 789.998 376.483 791.208 377.975 791.208H438.89C440.382 791.208 441.592 789.998 441.592 788.505V757.849C441.592 756.356 440.382 755.146 438.89 755.146Z" fill="#003C55"/>
<path d="M498.342 660.784L497.102 637.703" stroke="#FFE6E1" stroke-width="2"/>
<path d="M477.41 655.977C483.952 650.75 488.626 647.442 491.432 646.054C495.478 644.06 495.581 641.838 491.742 639.386" stroke="#FFE3DC" stroke-width="2"/>
<path d="M329.743 395.396C333.034 402.93 341.628 406.448 348.937 403.255C356.246 400.061 359.503 391.366 356.212 383.832C352.921 376.299 344.327 372.781 337.018 375.974C329.709 379.167 326.452 387.863 329.743 395.396Z" fill="black"/>
<path d="M579.625 381.533C573.999 387.46 574.036 396.628 579.707 402.009C585.377 407.39 594.534 406.947 600.159 401.019C605.784 395.091 605.748 385.924 600.077 380.543C594.407 375.162 585.25 375.605 579.625 381.533Z" fill="#02BFFA"/>
<path d="M419.121 439.311C429.49 434.781 434.411 423.129 430.11 413.286C425.81 403.444 413.918 399.137 403.548 403.667C393.179 408.198 388.259 419.849 392.559 429.692C396.859 439.535 408.751 443.841 419.121 439.311Z" fill="#02BFFA"/>
<path d="M494.4 429.286C500.603 429.286 505.631 424.258 505.631 418.056C505.631 411.854 500.603 406.826 494.4 406.826C488.198 406.826 483.17 411.854 483.17 418.056C483.17 424.258 488.198 429.286 494.4 429.286Z" fill="#02BFFA"/>
<path d="M560.825 469.679C567.139 474.867 576.287 474.167 581.257 468.117C586.226 462.067 585.136 452.957 578.821 447.77C572.506 442.583 563.359 443.283 558.389 449.333C553.419 455.383 554.51 464.492 560.825 469.679Z" fill="black"/>
<path d="M320.782 472.923C328.404 472.923 334.582 466.745 334.582 459.124C334.582 451.502 328.404 445.324 320.782 445.324C313.161 445.324 306.982 451.502 306.982 459.124C306.982 466.745 313.161 472.923 320.782 472.923Z" fill="black"/>
<path d="M505.548 467.278C511.683 465.07 515.017 458.726 512.995 453.108C510.973 447.491 504.36 444.729 498.225 446.937C492.09 449.146 488.756 455.49 490.778 461.107C492.801 466.724 499.413 469.487 505.548 467.278Z" fill="#02BFFA"/>
<path d="M501.096 579.439L499.9 579.412C498.689 579.385 497.685 580.344 497.658 581.555L497.479 589.439C497.451 590.649 498.411 591.653 499.621 591.681L500.817 591.708C502.028 591.735 503.032 590.776 503.059 589.565L503.238 581.682C503.266 580.471 502.307 579.467 501.096 579.439Z" fill="#FFF9F6"/>
<path d="M498.343 660.784L497.102 637.703L462.038 636.728C461.855 636.722 461.672 636.754 461.502 636.822C461.333 636.89 461.179 636.994 461.051 637.125C460.924 637.257 460.826 637.414 460.763 637.586C460.7 637.758 460.674 637.941 460.687 638.124C460.849 641.048 459.446 642.421 456.478 642.244C456.129 642.227 455.801 642.073 455.565 641.816C455.329 641.559 455.203 641.219 455.215 640.87L455.592 630.039C455.621 629.404 455.954 629.086 456.589 629.086L486.935 629.485C487.234 629.486 487.527 629.399 487.777 629.235C488.027 629.07 488.223 628.837 488.34 628.563C488.456 628.29 488.488 627.99 488.431 627.7C488.374 627.41 488.231 627.145 488.021 626.938C483.834 622.663 470.854 608.685 465.515 608.021C462.813 607.696 462.459 606.611 464.452 604.765L471.895 597.854C472.1 597.667 472.356 597.545 472.631 597.502C472.905 597.46 473.186 597.499 473.438 597.614C473.691 597.73 473.903 597.917 474.05 598.153C474.197 598.388 474.272 598.662 474.265 598.939C474.088 606.315 489.881 617.701 495.618 622.685C495.793 622.839 496.008 622.941 496.238 622.979C496.468 623.017 496.704 622.989 496.919 622.899C497.134 622.809 497.32 622.66 497.454 622.469C497.588 622.278 497.666 622.054 497.678 621.821C498.254 611.321 497.39 606.315 491.963 597.233C491.747 596.87 491.642 596.451 491.663 596.029C491.683 595.607 491.828 595.2 492.078 594.859C492.329 594.518 492.675 594.259 493.072 594.114C493.469 593.969 493.9 593.945 494.311 594.044L500.314 595.484C501.038 595.661 501.725 595.557 502.374 595.173C504.132 594.154 506.014 593.505 508.023 593.224C508.362 593.182 508.708 593.239 509.016 593.389C509.324 593.539 509.582 593.775 509.757 594.068C509.931 594.36 510.015 594.697 509.998 595.035C509.982 595.373 509.865 595.699 509.662 595.971C504.582 602.882 502.825 610.679 504.39 619.362C504.504 619.967 504.818 620.515 505.281 620.917C505.743 621.319 506.327 621.552 506.937 621.577C507.978 621.622 509.152 621.201 509.95 620.381C516.949 613.248 526.674 611.277 526.607 599.493C526.606 599.146 526.695 598.805 526.864 598.502C527.034 598.199 527.278 597.946 527.574 597.765C527.871 597.585 528.209 597.484 528.555 597.472C528.902 597.461 529.246 597.539 529.553 597.699L540.872 603.724C540.991 603.783 541.092 603.874 541.164 603.985C541.237 604.096 541.279 604.225 541.285 604.358C541.292 604.491 541.264 604.623 541.203 604.741C541.142 604.859 541.051 604.959 540.939 605.031C534.715 609.151 516.972 620.78 514.491 627.314C514.395 627.565 514.364 627.836 514.4 628.102C514.437 628.369 514.54 628.622 514.701 628.84C514.861 629.057 515.074 629.232 515.319 629.349C515.565 629.465 515.836 629.52 516.108 629.507L533.208 628.444C533.838 628.401 534.433 628.142 534.892 627.713C537.505 625.276 540.525 624.804 543.951 626.295C544.335 626.458 544.579 626.738 544.682 627.137L546.299 633.649C546.305 633.682 546.3 633.716 546.285 633.746C546.27 633.776 546.246 633.8 546.216 633.815C546.186 633.83 546.152 633.835 546.119 633.829C546.086 633.823 546.056 633.807 546.034 633.782C542.991 630.282 540.666 629.766 539.056 632.232C538.868 632.522 538.751 632.851 538.713 633.194C538.676 633.538 538.719 633.884 538.84 634.206C538.961 634.527 539.156 634.815 539.409 635.046C539.662 635.276 539.966 635.443 540.296 635.532L544.018 636.551C544.756 636.758 545.17 637.245 545.258 638.013C545.362 639.091 545.059 639.933 544.35 640.538C543.804 641.011 542.999 641.24 541.936 641.225C539.691 641.195 537.956 640.767 536.73 639.94C530.69 635.894 523.506 634.698 515.178 636.352C514.699 636.445 514.256 636.667 513.895 636.994C513.534 637.32 513.267 637.739 513.124 638.207C512.981 638.674 512.967 639.172 513.083 639.649C513.199 640.126 513.44 640.563 513.782 640.915C518.301 645.5 527.67 656.553 533.496 658.79C536.007 659.765 536.221 661.102 534.139 662.8L528.8 667.141C526.245 669.223 524.739 668.633 524.281 665.369C523.285 658.436 511.833 648.069 506.494 643.506C506.355 643.392 506.187 643.317 506.008 643.289C505.83 643.26 505.648 643.28 505.482 643.346C505.316 643.412 505.172 643.522 505.065 643.663C504.959 643.805 504.894 643.972 504.877 644.149C504.065 650.883 503.917 657.742 504.434 664.727C504.612 667.223 503.748 668.522 501.843 668.625C501.454 668.644 501.07 668.528 500.756 668.299C500.442 668.069 500.216 667.739 500.115 667.363L498.343 660.784Z" fill="white"/>
<path d="M625.582 627.404C625.742 628.974 626.364 630.197 626.973 630.135C627.582 630.073 627.946 628.75 627.786 627.18C627.627 625.61 627.004 624.387 626.395 624.449C625.787 624.511 625.423 625.834 625.582 627.404Z" fill="#FFF9F6"/>
<path d="M629.01 647.449L631.292 630.283C631.336 629.971 631.455 629.675 631.638 629.42C631.821 629.165 632.063 628.958 632.343 628.818C632.622 628.679 632.931 628.61 633.242 628.618C633.553 628.626 633.857 628.711 634.127 628.865C636.062 629.958 638.107 630.703 640.263 631.102C640.824 631.205 641.23 630.999 641.481 630.482C641.584 630.26 641.688 630.046 641.791 629.839C641.806 629.795 641.821 629.795 641.836 629.839C641.909 631.183 641.54 632.416 640.728 633.539C637.671 637.747 635.98 642.473 635.655 647.715C635.596 648.483 635.943 648.756 636.697 648.535C640.728 647.316 646.288 643.285 650.474 645.101C651.245 645.434 651.924 645.947 652.453 646.599C652.983 647.25 653.347 648.02 653.514 648.842C653.682 649.665 653.648 650.516 653.415 651.322C653.183 652.129 652.759 652.867 652.18 653.474C648.702 657.107 644.294 655.224 640.174 654.183C639.887 654.106 639.582 654.127 639.305 654.243C639.029 654.359 638.797 654.564 638.646 654.825C637.76 656.317 637.73 657.602 638.557 658.68C641.082 661.988 643.364 665.177 645.402 668.249C645.604 668.552 645.721 668.903 645.741 669.267C645.761 669.63 645.684 669.993 645.516 670.316C645.349 670.639 645.098 670.912 644.79 671.105C644.481 671.299 644.127 671.406 643.763 671.417C639.141 671.564 635.286 673.225 632.2 676.4C630.28 678.394 629.04 678.032 628.479 675.315L625.754 661.825C625.713 661.608 625.608 661.409 625.451 661.254C625.295 661.099 625.094 660.994 624.875 660.954C624.657 660.913 624.429 660.939 624.223 661.027C624.017 661.115 623.84 661.262 623.716 661.449C622.978 662.556 622.468 663.708 622.188 664.904C622.04 665.569 622.203 666.152 622.675 666.654C624.846 668.899 624.905 671.254 622.852 673.72C622.717 673.886 622.548 674.023 622.356 674.121C622.164 674.219 621.953 674.277 621.736 674.292C621.519 674.306 621.3 674.277 621.092 674.205C620.884 674.134 620.692 674.021 620.527 673.875C618.976 672.472 617.241 672.236 615.321 673.166C614.627 673.506 613.933 673.499 613.239 673.144C610.78 671.904 610.381 669.467 612.065 667.186C614.634 663.671 617.492 660.334 620.637 657.173C620.869 656.936 621.033 656.641 621.112 656.319C621.191 655.997 621.183 655.661 621.087 655.345C620.992 655.03 620.813 654.747 620.57 654.527C620.327 654.306 620.029 654.157 619.707 654.095C617.034 653.548 615.011 654.338 613.638 656.465C613.313 656.952 612.862 657.181 612.286 657.151L602.651 656.642C602.466 656.633 602.284 656.588 602.116 656.509C601.949 656.429 601.798 656.317 601.675 656.179C601.551 656.041 601.456 655.879 601.396 655.704C601.335 655.529 601.31 655.343 601.322 655.158L601.831 647.626C601.859 647.207 602.024 646.809 602.301 646.496C602.578 646.183 602.951 645.972 603.36 645.899C607.642 645.072 611.733 645.618 615.631 647.538C615.879 647.656 616.158 647.695 616.429 647.649C616.7 647.602 616.949 647.473 617.144 647.278C617.338 647.084 617.467 646.834 617.514 646.563C617.56 646.293 617.522 646.014 617.403 645.766L613.128 637.061C612.848 636.485 612.774 635.879 612.907 635.244L613.904 630.681C614.184 629.382 614.989 628.798 616.318 628.931C620.659 629.345 622.897 630.748 623.03 633.14C623.325 638.5 624.942 643.359 627.881 647.715C628.486 648.616 628.863 648.527 629.01 647.449Z" fill="white"/>
<path d="M497.102 637.703L498.343 660.784C497.087 658.303 495.109 657.292 492.406 657.749C491.683 657.868 491.114 657.838 490.701 657.661C490.405 657.543 490.125 657.388 489.859 657.196C489.386 656.856 488.973 656.923 488.618 657.395C488.043 658.178 487.54 659.005 487.112 659.876C486.743 660.614 486.662 661.294 486.869 661.914C487.164 662.844 487.769 663.383 488.685 663.531C489.226 663.619 489.719 663.895 490.076 664.308C490.432 664.722 490.63 665.247 490.634 665.79V667.141C490.649 668.101 490.184 668.448 489.239 668.182C485.768 667.178 483.952 664.941 483.79 661.471C483.76 660.659 483.435 659.987 482.815 659.455C482.283 658.983 482.114 658.333 482.306 657.506C482.398 657.14 482.386 656.756 482.273 656.396C482.159 656.036 481.948 655.715 481.663 655.468C480.718 654.641 479.3 654.811 477.41 655.977C483.952 650.75 488.626 647.442 491.432 646.054C495.478 644.06 495.581 641.838 491.742 639.386C493.307 638.766 494.54 639.652 495.441 642.045C496.002 643.521 496.386 643.477 496.593 641.912L497.102 637.703Z" fill="#FFCDC2"/>
<path d="M491.742 639.386C495.581 641.838 495.478 644.06 491.432 646.054C488.626 647.442 483.952 650.75 477.41 655.977L473.246 665.923C471.71 669.571 470.138 669.585 468.528 665.967L465.604 659.411C465.45 659.072 465.433 658.687 465.557 658.335C465.681 657.984 465.936 657.695 466.269 657.528C469.119 656.125 471.976 654.663 474.841 653.142C481.242 649.731 486.116 644.215 491.742 639.386Z" fill="#FFF9F6"/>
<path d="M637.649 665.945C637.811 666.17 637.902 666.438 637.909 666.716C637.915 666.993 637.838 667.265 637.687 667.498C637.536 667.73 637.319 667.912 637.063 668.018C636.807 668.124 636.524 668.151 636.253 668.094C634.23 667.651 633.292 666.248 633.44 663.885C633.484 663.103 633.853 662.896 634.547 663.265C635.773 663.9 636.807 664.793 637.649 665.945Z" fill="#FF4437"/>
</svg>
