<svg width="1024" height="1024" viewBox="0 0 1024 1024" fill="none" xmlns="http://www.w3.org/2000/svg">
<rect width="1024" height="1024" fill="white"/>
<path d="M732.613 618.18C697.738 693.923 631.201 748.552 549.189 764.047C487.068 775.797 420.749 766.867 366.258 734.83C305.892 699.344 261.12 640.496 246.236 571.338C213.293 418.432 316.439 277.513 469.818 256.773C507.434 251.687 547.75 257.877 583.137 271.086C640.27 292.397 684.529 330.032 716.979 381.526C717.301 382.038 717.755 382.452 718.29 382.723C718.825 382.994 719.422 383.112 720.015 383.064C731.804 382.197 778.055 382.394 782.747 395.504C784.344 399.96 781.308 404.612 777.72 407.017C765.773 415.061 757.907 420.226 751.342 433.218C749.114 437.614 749.291 444.081 750.021 448.852C759.168 507.897 757.907 563.275 732.613 618.18Z" fill="#010808"/>
<path d="M606.598 478.009C606.874 467.324 606.782 459.642 606.322 454.963C606.006 451.717 604.955 445.382 603.167 435.958C602.536 432.567 600.959 429.097 600.249 425.47C599.527 421.869 598.856 419.267 598.239 417.663C581.856 375.06 551.338 343.379 511.593 321.693C505.62 318.44 498.089 315.305 491.366 311.974C482.672 307.636 472.894 304.995 462.997 304.167C451.707 303.22 442.967 302.169 436.777 301.012C434.766 300.631 433.208 300.421 432.104 300.381C431.592 300.368 431.099 300.283 430.626 300.125C428.023 299.198 424.297 300.697 421.518 300.973" stroke="#E5E9F0" stroke-width="2"/>
<path d="M393.464 672.986C387.155 668.767 380.025 664.496 372.074 660.172C346.484 646.293 321.821 623.148 312.181 594.818C310.683 590.481 310.604 586.203 315.237 584.271C315.521 584.15 315.776 583.97 315.985 583.744C316.195 583.518 316.354 583.25 316.453 582.957C316.551 582.665 316.587 582.355 316.558 582.048C316.528 581.741 316.434 581.444 316.282 581.176C306.109 563.314 299.215 544.277 295.601 524.063C295.461 523.276 295.02 522.576 294.373 522.108C293.725 521.641 292.921 521.444 292.131 521.559C288.484 522.111 285.487 523.037 283.279 526.31C280.973 529.74 278.647 532.303 278.587 536.719C278.522 543.238 278.397 549.744 278.213 556.237C278.075 561.362 281.742 568.401 279.79 572.817" stroke="#E5E9F0" stroke-width="2"/>
<path d="M414.519 681.503C426.387 683.514 437.802 686.51 449.69 687.851C460.237 689.053 471.06 691.261 481.194 691.202C497.846 691.097 514.353 689.342 530.716 685.938C534.462 685.163 540.863 682.179 549.918 676.988C550.536 676.633 551.239 676.541 552.028 676.712" stroke="#E5E9F0" stroke-width="2"/>
<path d="M552.028 676.712C542.703 681.897 537.814 691.518 545.877 700.212C562.969 718.605 587.573 683.809 566.4 675.45C562.555 673.932 558.415 674.957 554.334 675.628" stroke="#9BA7B9" stroke-width="2"/>
<path d="M554.334 675.628C556.681 674.287 558.593 672.966 561.432 672.789C571.801 672.118 578.662 664.568 586.371 659.067C594.631 653.192 602.3 645.898 607.761 639.274C608.655 638.196 608.135 637.257 606.203 636.455" stroke="#E5E9F0" stroke-width="2"/>
<path d="M554.334 675.628L552.028 676.712" stroke="#B5BDC9" stroke-width="2"/>
<path d="M606.597 478.009C606.873 467.324 606.781 459.642 606.321 454.963C606.006 451.717 604.954 445.382 603.167 435.958C602.536 432.567 600.959 429.098 600.249 425.47C599.526 421.869 598.856 419.267 598.238 417.663C581.855 375.06 551.337 343.379 511.593 321.693C505.619 318.44 498.088 315.305 491.366 311.974C482.672 307.636 472.893 304.995 462.996 304.167C451.707 303.22 442.966 302.169 436.776 301.012C434.765 300.631 433.208 300.421 432.104 300.382C431.591 300.368 431.098 300.283 430.625 300.125C428.023 299.199 424.297 300.697 421.517 300.973C463.884 285.477 511.652 281.85 555.004 294.566C606.104 309.549 652.926 342.235 683.089 387.638C683.232 387.855 683.326 388.101 683.364 388.358C683.402 388.615 683.384 388.877 683.311 389.127C683.238 389.376 683.111 389.607 682.94 389.802C682.769 389.998 682.558 390.154 682.321 390.26C676.84 392.685 669.802 394.006 663.966 395.839C656.724 398.113 642.445 405.342 621.127 417.525C617.322 419.694 612.768 423.775 615.055 429.177C618.472 437.233 621.291 445.507 623.512 453.997C626.233 464.406 627.573 478.305 622.921 488.36C622.824 488.576 622.678 488.767 622.496 488.918C622.313 489.069 622.097 489.176 621.865 489.231C621.633 489.286 621.391 489.288 621.157 489.236C620.923 489.184 620.704 489.08 620.516 488.931L606.597 478.009Z" fill="#CBD2E0"/>
<path d="M606.598 478.009L600.684 475.939C600.098 475.732 599.569 475.387 599.141 474.935C598.713 474.483 598.397 473.935 598.219 473.337C595.242 463.066 583.492 437.792 571.388 436.333C560.052 434.973 562.023 462.553 562.792 472.43C562.832 473.048 562.556 473.429 561.964 473.574C551.069 476.202 542.144 481.854 535.192 490.528C534.745 491.08 534.193 491.225 533.536 490.962C525.315 487.551 492.628 469.237 500.494 496.817C503.754 508.252 509.754 517.938 518.494 525.876C518.993 526.336 519.164 526.895 519.006 527.552C516.325 538.645 518.375 548.568 525.157 557.321C525.709 558.044 525.532 558.458 524.625 558.563C511.824 560.219 500.402 556.815 490.361 548.351C482.81 542.003 476.778 531.357 465.56 540.879C426.92 573.684 395.791 620.684 393.464 672.986C387.156 668.767 380.025 664.496 372.074 660.172C346.484 646.293 321.822 623.148 312.181 594.818C310.683 590.481 310.604 586.203 315.237 584.271C315.521 584.15 315.776 583.97 315.985 583.744C316.195 583.518 316.354 583.25 316.453 582.957C316.552 582.665 316.587 582.355 316.558 582.048C316.528 581.741 316.434 581.444 316.282 581.176C306.109 563.314 299.216 544.277 295.601 524.063C295.461 523.276 295.021 522.576 294.373 522.108C293.726 521.641 292.922 521.444 292.131 521.559C288.484 522.111 285.488 523.037 283.28 526.31C280.973 529.74 278.647 532.303 278.588 536.719C278.522 543.238 278.397 549.744 278.213 556.237C278.075 561.363 281.742 568.401 279.79 572.817C268.908 539.716 270.091 497.882 278.213 464.82C285.429 435.446 297.297 406.544 314.705 381.96C339.979 346.257 378.935 314.458 421.518 300.973C424.298 300.697 428.024 299.199 430.626 300.125C431.099 300.283 431.592 300.368 432.105 300.382C433.209 300.421 434.766 300.631 436.777 301.012C442.967 302.169 451.707 303.22 462.997 304.167C472.894 304.995 482.672 307.637 491.366 311.974C498.089 315.306 505.62 318.44 511.594 321.693C551.338 343.379 581.856 375.06 598.239 417.663C598.857 419.267 599.527 421.869 600.25 425.47C600.959 429.098 602.537 432.567 603.168 435.958C604.955 445.382 606.006 451.717 606.322 454.963C606.782 459.642 606.874 467.324 606.598 478.009Z" fill="white"/>
<path d="M279.79 572.817C281.742 568.401 278.075 561.363 278.213 556.237C278.397 549.744 278.522 543.238 278.587 536.719C278.647 532.303 280.973 529.74 283.279 526.31C285.487 523.037 288.484 522.111 292.131 521.559C292.921 521.444 293.725 521.641 294.373 522.108C295.02 522.576 295.461 523.277 295.601 524.063C299.215 544.277 306.109 563.314 316.282 581.176C316.434 581.444 316.528 581.741 316.558 582.048C316.587 582.355 316.551 582.665 316.453 582.957C316.354 583.25 316.195 583.518 315.985 583.744C315.776 583.97 315.521 584.15 315.237 584.271C310.604 586.203 310.683 590.481 312.181 594.818C321.821 623.148 346.484 646.293 372.074 660.172C380.025 664.496 387.155 668.767 393.464 672.986C393.609 674.274 393.799 676.068 394.036 678.368C394.18 679.853 394.693 681.194 395.573 682.39C395.942 682.897 396.496 683.255 397.131 683.395C404.524 684.953 408.053 687.279 414.519 681.503C426.387 683.514 437.802 686.51 449.69 687.851C460.237 689.054 471.06 691.262 481.194 691.202C497.846 691.097 514.353 689.343 530.716 685.939C534.462 685.163 540.863 682.18 549.918 676.988C550.536 676.633 551.239 676.541 552.028 676.712C542.703 681.897 537.814 691.518 545.877 700.212C562.969 718.606 587.573 683.809 566.4 675.451C562.555 673.932 558.415 674.958 554.334 675.628C556.68 674.287 558.593 672.966 561.432 672.789C571.801 672.119 578.662 664.568 586.371 659.068C594.631 653.193 602.3 645.898 607.761 639.274C608.654 638.197 608.135 637.257 606.203 636.455C613.235 636.823 620.207 637.369 627.12 638.091C639.817 639.412 650.048 646.49 659.295 654.947C659.918 655.517 660.673 655.924 661.492 656.13C662.31 656.336 663.168 656.336 663.987 656.13C672.898 653.883 677.59 648.619 673.391 639.353C667.693 626.736 665.327 614.927 669.802 601.541C671.892 595.311 675.204 588.864 673.942 582.26C672.444 574.4 670.591 566.633 668.383 558.957C666.195 551.308 669.428 545.966 674.672 540.189C681.362 532.816 690.01 529.55 700.616 530.391C701.133 530.436 701.649 530.279 702.055 529.953C702.462 529.626 702.73 529.155 702.805 528.636C703.449 524.155 704.323 519.555 705.427 514.836C707.464 506.096 713.687 499.781 724.096 495.891C724.48 495.749 724.892 495.705 725.297 495.761C725.702 495.818 726.086 495.973 726.414 496.214C726.743 496.455 727.006 496.773 727.179 497.139C727.353 497.506 727.431 497.91 727.408 498.315C725.417 538.021 718.458 576.681 700.064 612.305C678.299 654.415 643.365 691.183 600.88 712.967C527.838 750.445 428.595 743.998 362.689 694.337C323.122 664.529 291.698 621.472 279.79 572.817Z" fill="#CBD2E0"/>
<path d="M590.31 517.177C587.353 521.696 587.482 527.012 590.597 529.051C593.713 531.09 598.636 529.08 601.593 524.561C604.551 520.042 604.422 514.726 601.306 512.687C598.19 510.648 593.267 512.658 590.31 517.177Z" fill="#FF9442"/>
<path d="M558.072 549.233C563.664 549.448 568.316 546.544 568.462 542.747C568.608 538.949 564.193 535.697 558.6 535.482C553.008 535.267 548.356 538.171 548.21 541.969C548.065 545.766 552.48 549.018 558.072 549.233Z" fill="#FF9442"/>
<path d="M606.203 636.455C608.135 637.257 608.654 638.196 607.761 639.274C602.3 645.898 594.631 653.193 586.371 659.068C578.662 664.568 571.801 672.119 561.432 672.789C558.593 672.966 556.68 674.287 554.334 675.628L552.028 676.712C551.239 676.541 550.536 676.633 549.918 676.988C540.863 682.18 534.462 685.163 530.716 685.939C514.353 689.343 497.846 691.097 481.194 691.202C471.06 691.261 460.237 689.053 449.69 687.851C437.802 686.51 426.387 683.514 414.519 681.503C427.097 660.27 452.726 662.202 470.686 674.78C488.389 687.181 485.728 672.947 493.003 663.286C503.274 649.605 517.429 651.596 532.215 655.933C532.888 656.135 533.612 656.081 534.248 655.783C534.885 655.485 535.389 654.963 535.665 654.316C542.861 637.5 551.259 624.528 571.328 622.753C576.592 622.28 586.982 631.349 591.22 634.76C591.734 635.158 592.351 635.398 592.995 635.45L606.203 636.455Z" fill="white"/>
<path d="M552.028 676.712L554.334 675.628C558.415 674.957 562.555 673.932 566.4 675.45C587.573 683.809 562.969 718.605 545.877 700.212C537.814 691.518 542.703 681.897 552.028 676.712Z" fill="#6B7B92"/>
<path d="M376.411 365.065C393.267 345.607 416.786 334.586 442.671 336.104C464.673 337.405 481.187 347.348 492.214 365.932C503.017 384.135 507.052 402.956 504.318 422.395C500.691 448.181 484.348 473.948 460.611 485.737C430.074 500.898 394.311 495.674 370.122 472.213C349.875 452.617 342.64 425.983 347.825 398.284C349.303 390.398 351.866 387.894 359.101 383.478C367.362 378.451 371.009 371.295 376.411 365.065Z" fill="#CBD2E0"/>
<path d="M357.148 557.521C370.983 560.461 384.538 551.837 387.424 538.258C390.31 524.68 381.435 511.288 367.6 508.347C353.766 505.407 340.211 514.031 337.325 527.61C334.438 541.188 343.314 554.58 357.148 557.521Z" fill="#CBD2E0"/>
<path d="M339.951 610.227C341.849 618.069 349.392 622.973 356.8 621.181C364.208 619.389 368.675 611.579 366.778 603.737C364.881 595.895 357.337 590.991 349.93 592.783C342.522 594.575 338.054 602.385 339.951 610.227Z" fill="#CBD2E0"/>
</svg>
