<svg width="1024" height="1024" viewBox="0 0 1024 1024" fill="none" xmlns="http://www.w3.org/2000/svg">
<rect width="1024" height="1024" fill="white"/>
<path d="M475.523 250.413C464.647 254.969 454.351 260.591 444.636 267.277C440.127 270.378 435.642 270.389 431.18 267.313C420.369 259.839 422.819 248.816 432.227 241.644C455.872 223.626 484.079 212.709 513.813 212.035C545.747 211.325 578.996 221.496 603.422 242.816C608.303 247.076 611.889 250.875 611.072 256.91C609.83 265.963 598.558 273.668 590.197 267.65C587.688 265.839 585.173 264.046 582.652 262.271C551.712 240.597 510.493 235.751 475.523 250.413Z" fill="#000506"/>
<path d="M465.671 291.863C454.737 266.656 507.689 260.71 521.393 261.562C537.849 262.591 553.239 266.195 565.718 276.455C576.547 285.348 567.28 304.165 553.612 299.496C543.156 295.928 533.286 290.78 524.606 289.627C516.216 288.502 506.512 289.615 495.494 292.964C491.163 294.277 482.553 301.555 475.648 299.763C470.725 298.496 467.399 295.863 465.671 291.863Z" fill="#000506"/>
<path d="M377.679 377.069C378.271 376.655 378.821 376.016 379.33 375.152C386.336 363.069 393.466 351.063 400.721 339.134C405.336 331.537 411.513 324.205 419.431 322.466C423.638 321.543 427.667 320.158 431.981 320.123C488.915 319.661 545.85 319.673 602.785 320.158C607.684 320.194 611.784 321.809 616.258 323.371C627.974 327.401 631.95 334.093 638.411 344.868C647.749 360.466 657.346 375.862 667.204 391.057C667.303 391.21 667.439 391.336 667.6 391.423C667.762 391.509 667.943 391.555 668.127 391.554C699.973 391.377 731.872 391.501 763.825 391.927C805.008 392.459 836.659 423.649 836.765 464.938C837.12 602.393 837.221 692.629 837.067 735.647C836.907 779.031 805.807 811.96 762.707 811.96C597.311 812.019 431.916 812.013 266.52 811.942C250.775 811.942 232.935 809.35 219.603 800.226C186.87 777.806 186.142 747.274 186.089 710.44C185.97 628.902 185.97 547.364 186.089 465.826C186.142 435.24 204.834 400.625 237.532 394.554C237.774 394.509 237.992 394.382 238.151 394.194C238.309 394.007 238.398 393.77 238.402 393.525C238.402 384.815 238.402 376.105 238.402 367.395C238.402 359.809 239.242 354.264 240.923 350.762C247.668 336.614 264.94 334.501 278.911 334.466C299.869 334.407 320.828 334.3 341.786 334.146C349.609 334.075 356.958 335.886 363.833 339.578C368.857 342.294 375.567 349.892 375.975 356.229C376.413 362.974 376.602 369.72 376.543 376.466C376.543 376.598 376.579 376.728 376.647 376.841C376.715 376.954 376.813 377.047 376.93 377.109C377.046 377.171 377.178 377.2 377.31 377.193C377.442 377.186 377.57 377.143 377.679 377.069Z" fill="#000506"/>
<path d="M616.576 377.921C611.606 377.199 606.872 376.382 602.375 375.471C601.251 375.234 598.606 374.282 594.44 372.613C590.914 371.205 586.724 370.53 581.872 370.589C563.801 370.838 518.683 370.826 446.518 370.554C443.938 370.554 441.796 371.317 440.092 372.844C429.743 382.216 420.672 394.199 411.583 405.133C410.329 406.648 408.305 408.417 405.513 410.441C405.027 410.784 404.56 410.755 404.11 410.352C402.347 408.778 400.518 407.66 398.625 406.997" stroke="#B2CDBD" stroke-width="2"/>
<path d="M716.039 621.595C708.797 619.903 701.323 619.163 693.619 619.376" stroke="#548A90" stroke-width="2"/>
<path d="M594.831 447.88C596.89 443.715 598.115 438.809 598.506 433.165" stroke="#B2CDBD" stroke-width="2"/>
<path d="M598.508 433.164C615.408 430.981 620.413 413.94 604.916 405.153C585.378 394.064 564.757 386.898 543.053 383.656C518.45 379.964 498.018 382.857 473.184 389.549C457.971 393.65 427.811 401.993 430.172 421.431C430.977 428.07 434.503 431.792 440.752 432.596" stroke="#325E5F" stroke-width="2"/>
<path d="M440.75 432.596C417.081 443.744 396.194 459.69 378.088 480.436C370.253 489.43 362.993 498.998 356.307 509.14" stroke="#B2CDBD" stroke-width="2"/>
<path d="M266.023 509.139L266.36 471.879C266.365 471.486 266.282 471.095 266.116 470.736C265.951 470.377 265.706 470.058 265.401 469.802C260.023 465.24 253.242 460.714 258.975 452.566C262.348 447.773 265.561 445.803 271.667 445.803C304.945 445.779 338.229 445.767 371.519 445.767C375.318 445.767 378.418 444.749 380.821 442.714C386.418 437.933 388.631 432.016 387.46 424.962" stroke="#B2CDBD" stroke-width="2"/>
<path d="M266.023 509.14L224.467 509.317" stroke="#A1A095" stroke-width="2"/>
<path d="M598.505 433.163C566.659 415.873 533.595 409.483 499.311 413.992C481.252 416.37 461.731 422.572 440.749 432.595" stroke="#807464" stroke-width="2"/>
<path d="M265.935 534.63C258.568 534.204 249.319 533.902 249.248 543.932C248.929 600.292 249.444 656.671 248.627 713.014C248.58 716.268 250.248 718.872 253.633 720.824" stroke="#548A90" stroke-width="2"/>
<path d="M354.462 595.517L331.35 595.198" stroke="#A1A095" stroke-width="2"/>
<path d="M317.52 366.773L317.662 377.584C317.673 378.388 317.283 378.785 316.49 378.773L289.348 378.347C289.109 378.343 288.872 378.396 288.658 378.503C288.444 378.609 288.259 378.766 288.118 378.959C287.977 379.152 287.884 379.376 287.848 379.613C287.812 379.849 287.833 380.091 287.91 380.317C289.035 383.584 289.141 387.157 288.23 391.039" stroke="#A1A095" stroke-width="2"/>
<path d="M616.576 377.921C611.606 377.199 606.872 376.383 602.375 375.471C601.251 375.235 598.606 374.282 594.44 372.613C590.914 371.205 586.724 370.531 581.872 370.59C563.801 370.838 518.683 370.826 446.518 370.554C443.938 370.554 441.796 371.317 440.092 372.844C429.743 382.217 420.672 394.199 411.583 405.134C410.329 406.649 408.305 408.418 405.513 410.442C405.027 410.785 404.56 410.755 404.11 410.353C402.347 408.779 400.518 407.66 398.625 406.998L433.169 354.187C433.475 353.723 433.891 353.342 434.381 353.079C434.871 352.816 435.418 352.678 435.974 352.679C489.382 352.655 542.896 352.643 596.517 352.643C601.062 352.643 601.097 354.063 603.724 357.951C607.819 364.01 612.103 370.667 616.576 377.921Z" fill="white"/>
<path d="M317.518 366.773L317.66 377.584C317.672 378.388 317.282 378.785 316.489 378.773L289.347 378.347C289.108 378.343 288.871 378.396 288.657 378.503C288.443 378.609 288.257 378.766 288.116 378.959C287.975 379.152 287.883 379.376 287.847 379.613C287.811 379.849 287.832 380.091 287.909 380.317C289.033 383.584 289.14 387.157 288.229 391.039L269.838 390.773C269.021 390.761 268.613 390.347 268.613 389.53L268.666 367.98C268.666 367.294 269.01 366.95 269.696 366.95L317.518 366.773Z" fill="white"/>
<path d="M317.52 366.773L345.815 367.359C346.371 367.371 346.65 367.661 346.65 368.229L346.703 391.625C346.703 392.122 346.454 392.365 345.957 392.353L288.23 391.039C289.141 387.157 289.035 383.584 287.91 380.317C287.833 380.091 287.812 379.849 287.848 379.613C287.884 379.376 287.977 379.152 288.118 378.959C288.259 378.766 288.444 378.609 288.658 378.503C288.872 378.396 289.109 378.343 289.348 378.347L316.49 378.773C317.283 378.785 317.673 378.388 317.662 377.584L317.52 366.773Z" fill="#435C68"/>
<path d="M616.577 377.921L646.647 424.128C646.823 424.391 647.058 424.606 647.334 424.755C647.61 424.903 647.917 424.981 648.227 424.98C686.996 424.963 726.032 424.395 764.907 425.371C780.315 425.761 793.327 435.045 798.652 448.82C800.522 453.637 801.558 461.56 801.759 472.59C801.984 484.483 802.185 496.353 802.363 508.199C802.365 508.366 802.334 508.532 802.272 508.687C802.209 508.842 802.117 508.983 802 509.102C801.882 509.22 801.743 509.315 801.589 509.379C801.435 509.444 801.269 509.477 801.102 509.477L714.032 508.962C713.93 508.962 713.829 508.982 713.735 509.021C713.642 509.059 713.557 509.116 713.485 509.187C713.414 509.258 713.359 509.342 713.321 509.435C713.284 509.527 713.266 509.626 713.268 509.725C713.659 525.222 712.665 540.897 715.008 556.323C717.813 574.589 717.369 591.701 717.138 609.648C717.085 613.447 715.896 617.565 716.038 621.595C708.795 619.902 701.322 619.163 693.618 619.376C693.937 604.908 694.505 589.873 692.144 576.293C688.913 557.737 682.878 540.932 674.038 525.879C671.529 521.607 665.701 513.075 656.553 500.282C639.742 476.797 620.003 462.294 594.831 447.88C596.89 443.714 598.115 438.809 598.506 433.164C615.405 430.98 620.411 413.939 604.914 405.152C585.376 394.063 564.754 386.898 543.05 383.655C518.447 379.963 498.015 382.856 473.181 389.549C457.968 393.649 427.808 401.992 430.169 421.43C430.974 428.069 434.501 431.791 440.749 432.596C417.081 443.744 396.193 459.69 378.087 480.436C370.253 489.43 362.992 498.998 356.306 509.14H266.023L266.36 471.88C266.365 471.486 266.282 471.095 266.116 470.736C265.951 470.377 265.706 470.058 265.401 469.803C260.023 465.24 253.242 460.714 258.975 452.566C262.348 447.773 265.561 445.803 271.667 445.803C304.945 445.779 338.229 445.767 371.519 445.767C375.318 445.767 378.418 444.749 380.821 442.714C386.418 437.933 388.631 432.016 387.46 424.963C390.158 418.537 393.88 412.549 398.625 406.998C400.519 407.661 402.347 408.779 404.11 410.353C404.56 410.756 405.028 410.785 405.513 410.442C408.306 408.418 410.329 406.649 411.584 405.134C420.672 394.2 429.743 382.217 440.092 372.845C441.797 371.318 443.939 370.555 446.518 370.555C518.684 370.827 563.802 370.839 581.873 370.59C586.725 370.531 590.914 371.206 594.441 372.614C598.606 374.282 601.251 375.235 602.376 375.472C606.873 376.383 611.606 377.2 616.577 377.921Z" fill="#64B7B8"/>
<path d="M598.505 433.164C566.659 415.875 533.594 409.484 499.311 413.993C481.252 416.372 461.731 422.573 440.749 432.596C434.5 431.792 430.974 428.07 430.169 421.431C427.808 401.993 457.968 393.65 473.181 389.549C498.015 382.857 518.447 379.964 543.05 383.656C564.754 386.898 585.375 394.064 604.913 405.153C620.41 413.94 615.405 430.981 598.505 433.164Z" fill="#000506"/>
<path d="M598.504 433.163C598.113 438.808 596.888 443.713 594.829 447.879C594.107 450.021 593.036 450.814 591.616 450.258C581.818 446.459 571.362 442.163 561.847 439.731C545.8 435.648 529.102 434.033 511.753 434.885C478.292 436.536 443.055 452.991 417.529 473.228C400.558 486.666 386.641 506.104 375.387 525.098C362.594 546.683 355.618 570.156 354.458 595.517L331.346 595.198C332.198 569.671 338.109 544.695 349.701 522.115C351.949 517.713 354.15 513.388 356.304 509.139C362.99 498.997 370.251 489.429 378.085 480.435C396.191 459.69 417.079 443.743 440.747 432.595C461.73 422.572 481.25 416.37 499.309 413.992C533.593 409.483 566.658 415.873 598.504 433.163Z" fill="white"/>
<path d="M387.46 424.963C388.632 432.017 386.419 437.934 380.821 442.715C378.419 444.75 375.318 445.768 371.519 445.768C338.23 445.768 304.946 445.78 271.668 445.803C265.561 445.803 262.348 447.774 258.976 452.567C253.242 460.715 260.023 465.241 265.402 469.803C265.707 470.059 265.951 470.377 266.117 470.737C266.283 471.096 266.366 471.487 266.36 471.88L266.023 509.14L224.467 509.318C224.431 509.85 224.165 509.85 223.668 509.318C223.372 508.998 223.224 508.626 223.224 508.2C223.106 492.282 223.047 476.383 223.047 460.502C223.047 439.342 241.437 424.129 261.905 424.342C303.845 424.804 345.697 425.011 387.46 424.963Z" fill="white"/>
<path d="M577.7 466.625C602.801 477.702 622.878 494.696 637.931 517.607C650.037 536.051 659.143 557.015 660.706 578.885C661.522 590.388 660.883 602.459 658.789 615.098C657.345 623.737 655.842 630.062 654.28 634.074C642.493 664.198 621.759 690.648 593.943 707.103C552.387 731.689 495.724 734.103 453.618 708.133C413.891 683.618 384.352 638.334 386.163 590.494C386.837 572.619 389.571 553.731 397.577 537.524C406.879 518.726 421.701 496.927 439.151 485.087C452.074 476.318 463.949 467.921 479.784 462.329C510.884 451.377 547.647 453.365 577.7 466.625Z" fill="#64B7B8"/>
<path d="M266.021 509.14L265.933 534.631C258.566 534.205 249.317 533.903 249.246 543.932C248.927 600.293 249.442 656.671 248.625 713.014C248.578 716.269 250.246 718.872 253.631 720.825L225.601 721.304C225.367 721.306 225.134 721.263 224.917 721.175C224.699 721.088 224.501 720.959 224.335 720.796C224.168 720.632 224.036 720.438 223.945 720.223C223.855 720.009 223.809 719.779 223.809 719.547L224.465 509.317L266.021 509.14Z" fill="#435C68"/>
<path d="M265.935 534.631C266.384 623.92 266.52 684.121 266.343 715.234C266.331 716.855 265.426 718.31 263.627 719.6C262.1 720.713 258.769 721.121 253.633 720.825C250.248 718.873 248.58 716.269 248.627 713.015C249.444 656.672 248.929 600.293 249.248 543.933C249.319 533.903 258.568 534.205 265.935 534.631Z" fill="#64B7B8"/>
<path d="M331.345 595.198L354.458 595.517C354.055 606.215 354.712 616.979 356.428 627.807C358.085 638.304 361.044 648.363 365.304 657.984C367.671 663.357 368.866 667.327 368.89 669.895C368.961 676.819 364.31 689.937 355.097 687.15C345.298 684.185 337.115 649.517 335.393 640.073C332.144 622.34 330.564 612.115 331.345 595.198Z" fill="#435C68"/>
<path d="M693.616 619.376C701.32 619.163 708.794 619.903 716.036 621.595C713.551 637.891 710.746 654.79 703.308 669.719C700.953 674.453 696.723 676.849 690.616 676.908C678.013 677.015 682.273 667.411 684.528 660.541C689.013 646.826 692.042 633.104 693.616 619.376Z" fill="#435C68"/>
<path d="M638.925 698.139C643.185 693.221 654.244 697.251 651.244 702.985C648.203 708.748 644.452 714.008 639.99 718.766C619.635 740.47 595.233 755.452 566.783 763.712C561.813 765.15 555.245 766.233 549.369 767.635C546.778 768.251 544.44 768.659 542.358 768.86C501.707 772.765 455.181 763.694 423.619 736.411C420.163 733.416 419.305 729.807 421.045 725.582L421.737 723.878C423.938 718.529 427.346 717.594 431.962 721.073C463.204 744.576 500.784 753.115 539.695 748.783C576.813 744.647 614.428 726.505 638.925 698.139Z" fill="#435C68"/>
<path d="M799.308 754.551C794.622 768.433 781.326 778.267 766.22 778.232C719.415 778.09 672.611 777.859 625.807 777.54C625.345 777.54 624.972 777.504 624.688 777.433C624.487 777.389 624.302 777.288 624.156 777.142C624.01 776.996 623.908 776.812 623.864 776.61C623.819 776.409 623.833 776.199 623.903 776.005C623.974 775.811 624.098 775.641 624.262 775.516C632.286 769.303 640.185 763.534 646.593 755.546C648.203 753.546 650.298 752.546 652.877 752.546C684.392 752.486 715.901 752.611 747.403 752.918C763.214 753.072 780.042 752.966 797.888 752.599C799.285 752.575 799.758 753.226 799.308 754.551Z" fill="#435C68"/>
<path d="M224.625 752.777L393.6 752.422C394.085 752.422 394.5 752.599 394.843 752.954C403.813 762.114 413.837 769.919 424.914 776.368C427.411 777.824 427.209 778.546 424.31 778.534C370.239 778.12 315.512 777.871 260.128 777.789C244.305 777.765 232.572 770.984 224.927 757.445C224.217 756.179 223.779 755.014 223.613 753.948C223.59 753.805 223.599 753.657 223.639 753.517C223.679 753.377 223.75 753.246 223.846 753.135C223.942 753.024 224.061 752.934 224.196 752.872C224.33 752.811 224.477 752.778 224.625 752.777Z" fill="#435C68"/>
<path d="M772.552 466.335C772.527 470.002 771.045 473.509 768.434 476.084C765.823 478.659 762.295 480.092 758.628 480.066L721.954 479.81C718.287 479.784 714.78 478.303 712.205 475.692C709.63 473.08 708.197 469.553 708.223 465.886L708.233 464.43C708.259 460.763 709.74 457.256 712.352 454.68C714.963 452.105 718.49 450.673 722.158 450.699L758.831 450.955C762.498 450.98 766.005 452.462 768.581 455.073C771.156 457.684 772.588 461.212 772.563 464.879L772.552 466.335Z" fill="#000506"/>
<path d="M311.557 465.223C311.557 468.659 310.191 471.956 307.761 474.386C305.331 476.816 302.035 478.181 298.598 478.181C295.161 478.181 291.865 476.816 289.435 474.386C287.005 471.956 285.64 468.659 285.64 465.223C285.64 461.786 287.005 458.49 289.435 456.06C291.865 453.629 295.161 452.264 298.598 452.264C302.035 452.264 305.331 453.629 307.761 456.06C310.191 458.49 311.557 461.786 311.557 465.223Z" fill="#000506"/>
<path d="M353.99 461.604C354.452 463.196 354.582 464.867 354.371 466.523C354.16 468.179 353.612 469.787 352.76 471.255C351.908 472.723 350.767 474.023 349.403 475.079C348.039 476.136 346.479 476.929 344.811 477.414C341.443 478.392 337.842 478.054 334.8 476.473C331.758 474.892 329.524 472.198 328.59 468.983C328.128 467.392 327.999 465.72 328.21 464.064C328.421 462.408 328.968 460.801 329.82 459.333C330.673 457.864 331.813 456.565 333.177 455.508C334.541 454.451 336.101 453.658 337.769 453.174C341.137 452.195 344.738 452.534 347.78 454.115C350.822 455.696 353.056 458.39 353.99 461.604Z" fill="#000506"/>
<path d="M632.252 639.062C618.743 670.464 592.329 692.671 559.808 702.363C553.382 704.28 546.992 706.641 540.548 707.511C482.359 715.357 431.839 684.7 411.176 629.902C404.271 611.583 404.306 594.257 406.774 572.334C412.579 520.465 460.294 476.441 512.199 473.388C531.264 472.27 553.489 473.832 572.163 482.956C631.808 512.068 659.269 576.222 632.252 639.062Z" fill="#000506"/>
<path d="M621.638 592.14C621.416 604.852 618.653 617.395 613.505 629.054C608.358 640.712 600.928 651.257 591.639 660.086C582.349 668.916 571.383 675.857 559.367 680.513C547.35 685.17 534.518 687.45 521.603 687.225C495.52 686.769 470.684 676.134 452.557 657.658C434.431 639.183 424.499 614.38 424.947 588.707C425.169 575.995 427.933 563.451 433.08 551.793C438.227 540.135 445.658 529.59 454.947 520.761C464.236 511.931 475.202 504.99 487.219 500.334C499.235 495.677 512.067 493.397 524.982 493.622C551.065 494.077 575.902 504.713 594.028 523.188C612.155 541.664 622.086 566.467 621.638 592.14Z" fill="white"/>
<path d="M477.209 607.394L517.771 607.802C518.683 607.812 519.564 607.467 520.231 606.84C520.899 606.212 521.302 605.348 521.357 604.429C521.854 595.837 523.434 579.258 509.996 579.364C496.528 579.471 486.842 579.376 480.937 579.08" stroke="#223137" stroke-width="2"/>
<path d="M477.21 607.393L517.772 607.801C518.684 607.811 519.565 607.467 520.233 606.839C520.9 606.211 521.303 605.348 521.358 604.428C521.855 595.837 523.435 579.257 509.997 579.363C496.53 579.47 486.843 579.375 480.938 579.079C486.228 565.287 500.056 556.287 514.648 557.955C518.82 558.417 521.908 557.405 521.926 552.807C521.962 547.636 521.831 536.837 521.536 520.411C521.524 519.748 521.849 519.441 522.512 519.488C530.003 520.021 537.458 519.417 544.453 521.459C572.375 529.606 592.559 552.683 596.287 581.281C602.127 626.014 568.399 661.339 523.577 663.505C491.198 665.085 459.477 641.05 451.435 609.363C451.388 609.172 451.384 608.973 451.424 608.781C451.465 608.588 451.549 608.407 451.67 608.25C451.791 608.093 451.946 607.965 452.123 607.875C452.301 607.785 452.496 607.736 452.696 607.73L477.21 607.393Z" fill="#000506"/>
<path d="M480.939 579.08C486.844 579.376 496.531 579.471 509.998 579.364C523.436 579.258 521.856 595.837 521.359 604.429C521.304 605.348 520.901 606.212 520.234 606.84C519.566 607.467 518.685 607.812 517.773 607.802L477.211 607.394C476.489 599.784 476.472 593.719 477.158 589.198C477.773 585.08 479.034 581.707 480.939 579.08Z" fill="#435C68"/>
<path d="M555.314 569.849L539.817 569.796" stroke="#A1A095" stroke-width="2"/>
<path d="M555.316 569.849L539.82 569.796C536.518 556.784 542.251 556.162 552.885 556.677C553.607 556.71 554.287 557.023 554.782 557.55C555.276 558.078 555.544 558.777 555.529 559.5L555.316 569.849Z" fill="white"/>
<path d="M539.821 569.796L555.318 569.849C556.619 574.346 555.211 577.056 551.093 577.979C545.537 579.222 536.679 577.66 539.821 569.796Z" fill="#435C68"/>
</svg>
