<svg width="512" height="512" viewBox="0 0 512 512" fill="none" xmlns="http://www.w3.org/2000/svg">
<rect width="512" height="512" fill="white"/>
<path d="M200.851 220.715C201.542 220.532 201.581 220.257 200.967 219.89C189.357 213.011 181.377 200.702 181.885 187.028C182.161 179.853 185.759 170.762 194.659 171.227C198.498 171.425 201.115 173.545 202.512 177.588C202.668 178.04 202.957 178.152 203.38 177.927L213.424 172.444C213.581 172.359 213.713 172.235 213.807 172.083C213.901 171.931 213.954 171.757 213.96 171.579C213.967 171.4 213.927 171.223 213.844 171.065C213.761 170.907 213.638 170.773 213.487 170.677C208.333 167.333 207.529 161.226 211.519 156.643C214.066 153.73 217.551 152.541 221.975 153.077C222.349 153.119 222.533 152.95 222.526 152.569C222.409 146.6 225.88 141.657 232.04 141.192C237.332 140.79 240.782 143.647 244.782 147.298C244.904 147.411 245.054 147.489 245.215 147.524C245.377 147.559 245.546 147.551 245.703 147.499C255.112 144.441 266.743 148.664 274.109 156.675C282.967 166.296 284.841 177.345 283.528 190.235C283.415 191.279 283.726 191.428 284.46 190.68L299.774 174.953C300.035 174.685 300.074 174.388 299.89 174.064C296.13 167.361 292.411 160.662 288.735 153.966C287.56 151.817 284.174 150.368 282.713 149.108C274.67 142.134 273.209 129.772 271.855 119.284C270.405 108.013 281.464 102.414 290.524 108.489C299.276 114.363 312.453 123.179 318.009 133.752C324.183 145.478 331.612 158.294 340.298 172.201C343.847 177.881 343.331 183.176 338.752 188.087C330.617 196.793 322.221 205.239 313.564 213.423C311.038 215.801 308.106 219.191 304.769 223.594C304.565 223.869 304.557 224.151 304.748 224.441C309.955 232.138 310.297 239.91 305.775 247.756C304.79 249.46 303.224 251.016 301.869 252.667C301.683 252.893 301.572 253.175 301.552 253.471L300.938 264.901C300.917 265.303 301.086 265.596 301.446 265.779C302.829 266.485 303.905 267.388 304.674 268.489C310.368 276.617 315.67 286.417 321.163 295.371C330.614 310.759 339.313 326.56 348.606 342.033C351.643 347.06 348.267 351.547 343.653 354.087C336.823 357.834 329.869 361.316 322.793 364.533C322.461 364.688 322.271 364.946 322.221 365.306C321.777 368.756 321.255 372.143 320.655 375.466C319.184 383.636 311.902 385.478 305.51 388.642C301.778 390.498 301.996 391.436 306.166 391.457C322.944 391.535 340.421 391.609 358.596 391.68C361.856 391.69 365.031 393.479 367.592 393.415C372.376 393.302 377.16 393.203 381.943 393.119C383.922 393.087 385.891 392.039 387.732 392.23C398.602 393.341 395.691 407.322 385.605 405.406C380.684 404.475 375.032 405.194 369.973 405.004C366.047 404.856 362.057 405.84 358.692 405.925C356.187 405.981 353.686 406.006 351.188 405.999C275.802 405.808 200.406 406.168 125.021 405.829C113.548 405.777 114.712 391.775 126.407 391.574C130.224 391.51 133.981 391.496 137.678 391.531C137.934 391.534 138.185 391.463 138.402 391.325C138.618 391.188 138.789 390.991 138.896 390.759C142.339 383.16 147.288 376.693 153.744 371.359C158.231 367.634 165.523 365.538 171.164 363.083C171.991 362.722 172.718 362.158 173.281 361.443L184.298 347.303C184.503 347.042 184.492 346.785 184.267 346.531C180.541 342.417 177.095 338.099 173.927 333.577C171.048 329.47 170.688 324.93 175.228 321.967C180.584 318.481 185.716 314.692 190.627 310.6C209.769 294.654 228.897 278.801 248.01 263.038C248.275 262.82 248.449 262.511 248.5 262.17C248.55 261.828 248.474 261.478 248.286 261.186C244.719 255.725 242.697 252.804 242.242 246.031C242.238 245.957 242.217 245.884 242.18 245.82C242.143 245.755 242.092 245.7 242.029 245.658C241.967 245.616 241.896 245.589 241.821 245.578C241.746 245.568 241.669 245.574 241.597 245.597C220.631 252.264 197.517 258.953 178.668 264.753C175.789 265.631 172.752 268.87 170.212 270.627C166.222 273.389 162.793 273.516 157.808 272.458C147.669 270.299 138.476 266.806 130.228 261.98C122.989 257.757 119.75 247.121 129.72 243.269C137.178 240.39 151.017 235.941 171.238 229.923C179.97 227.319 190.902 223.382 200.851 220.715Z" fill="#020111"/>
<path d="M147.997 254.233C150.876 253.577 153.631 252.956 156.263 252.37C159.106 251.742 161.84 251.023 164.465 250.211C191.865 241.723 218.493 232.897 246.666 224.578C250.656 223.403 258.392 222.239 260.816 217.826C260.912 217.648 260.967 217.451 260.976 217.249C260.985 217.047 260.948 216.847 260.869 216.662C260.022 214.63 259.782 212.517 260.149 210.322C260.181 210.154 260.157 209.98 260.083 209.826C260.009 209.672 259.888 209.546 259.737 209.465C259.25 209.211 258.791 209.306 258.361 209.751" stroke="#FDD3BD" stroke-width="2"/>
<path d="M270.257 200.734C270.864 206.287 271.347 209.832 271.707 211.37C273.718 219.922 282.449 215.223 286.714 211.709C296.508 203.658 304.618 196.335 311.046 189.738C313.684 187.021 315.731 183.779 317.184 180.012C317.216 179.936 317.227 179.853 317.217 179.771C317.207 179.689 317.176 179.612 317.127 179.546C317.077 179.48 317.012 179.427 316.937 179.394C316.862 179.361 316.779 179.347 316.697 179.355C316.203 179.405 316.175 179.299 316.613 179.038" stroke="#FDD3BD" stroke-width="2"/>
<path d="M252.191 160.58C251.81 162.775 253.02 164.581 255.821 165.999" stroke="#FE91A9" stroke-width="2"/>
<path d="M267.696 243.279C266.313 244.528 264.955 245.336 263.621 245.703C261.018 246.422 258.58 246.574 256.308 246.158" stroke="#FFDC91" stroke-width="2"/>
<path d="M297.075 283.401C294.796 283.627 292.489 284.159 290.154 284.999C286.894 286.177 284.654 286.869 283.433 287.073C277.612 288.079 272.257 287.719 266.425 287.698C261.769 287.677 257.281 285.951 252.836 284.787C252.595 284.723 252.34 284.724 252.099 284.789C251.858 284.854 251.637 284.981 251.461 285.158C242.613 293.907 233.476 302.419 224.05 310.695C222.452 312.092 219.499 313.902 217.689 316.315" stroke="#FFDC91" stroke-width="2"/>
<path d="M212.725 317.003C212.189 317.088 211.995 316.502 212.143 315.246C212.193 314.795 211.992 314.586 211.54 314.622C211.328 314.643 211.117 314.664 210.905 314.685C210.432 314.735 210.122 314.685 209.974 314.537C209.748 314.311 209.681 313.934 209.773 313.405" stroke="#FFDC91" stroke-width="2"/>
<path d="M322.338 327.428C322.112 327.823 321.427 327.608 320.284 326.782C319.96 326.549 319.614 326.51 319.247 326.666L307.605 331.619" stroke="#FF8627" stroke-width="2"/>
<path d="M293.795 336.074L278.904 340.033" stroke="#FF8627" stroke-width="2"/>
<path d="M255.885 343.768L241.354 339.175C241.192 339.119 241.082 339.009 241.026 338.847C240.99 338.755 240.955 338.653 240.92 338.54" stroke="#FF8627" stroke-width="2"/>
<path d="M228.4 334.032C226.198 330.412 223.545 327.34 220.441 324.814" stroke="#FF9730" stroke-width="2"/>
<path d="M171.355 377.995C173.274 378.214 175.006 377.907 176.551 377.074" stroke="#D7596A" stroke-width="2"/>
<path d="M147.997 254.233C150.876 253.577 153.631 252.956 156.263 252.37C159.106 251.742 161.84 251.023 164.465 250.211C191.865 241.723 218.493 232.897 246.666 224.578C250.656 223.403 258.392 222.239 260.816 217.826C260.912 217.648 260.967 217.451 260.976 217.249C260.985 217.047 260.948 216.847 260.869 216.662C260.022 214.63 259.782 212.517 260.149 210.322C260.181 210.154 260.157 209.98 260.083 209.826C260.009 209.672 259.888 209.546 259.737 209.465C259.25 209.211 258.791 209.306 258.361 209.751C258.459 207.373 257.743 205.355 256.212 203.697C250.656 197.675 245.089 193.389 247.407 183.98C248.656 178.869 252.413 181.197 255.62 179.133C258.985 176.967 260.745 174.028 260.901 170.317C261.021 167.304 262.037 166.966 263.949 169.301C268.859 175.291 273.177 188.394 267.325 195.664C267.05 196.003 267.067 196.328 267.378 196.638C269.269 198.543 270.228 199.908 270.256 200.734C270.863 206.287 271.347 209.832 271.706 211.37C273.717 219.922 282.449 215.223 286.714 211.709C296.507 203.658 304.617 196.335 311.045 189.738C313.684 187.021 315.73 183.779 317.183 180.012C317.215 179.936 317.226 179.853 317.216 179.771C317.206 179.689 317.175 179.612 317.126 179.546C317.077 179.479 317.011 179.427 316.936 179.394C316.861 179.361 316.778 179.347 316.696 179.355C316.202 179.405 316.174 179.299 316.612 179.038C317.035 177.345 316.329 174.787 314.495 171.365C307.552 158.446 303.104 150.276 301.149 146.854C300.677 146.035 299.95 145.115 298.969 144.092C295.985 140.991 291.275 140.62 289.963 136.027C288.721 131.681 287.451 127.433 286.153 123.285C286.124 123.205 286.122 123.117 286.148 123.036C286.175 122.955 286.227 122.885 286.298 122.838C286.369 122.79 286.453 122.768 286.538 122.774C286.623 122.78 286.703 122.815 286.767 122.872C290.735 126.206 294.588 129.772 298.853 132.704C301.118 134.26 303.922 138.419 305.594 141.403C312.594 153.941 319.829 166.338 327.301 178.593C327.384 178.727 327.42 178.885 327.405 179.042C327.39 179.198 327.323 179.346 327.216 179.461C315.786 191.484 304.152 203.306 292.312 214.926C291.243 215.963 289.391 217.868 290.259 219.498C290.4 219.759 290.319 219.914 290.016 219.964C283.898 220.842 274.257 222.991 272.595 230.135C272.558 230.295 272.483 230.444 272.376 230.569C272.27 230.695 272.135 230.793 271.983 230.856C271.831 230.919 271.666 230.945 271.502 230.932C271.338 230.919 271.18 230.867 271.04 230.78C264.235 226.557 257.218 228.981 250.772 232.315C250.661 232.372 250.539 232.403 250.414 232.407C250.289 232.411 250.166 232.387 250.052 232.337C249.938 232.288 249.838 232.213 249.757 232.12C249.677 232.026 249.619 231.915 249.587 231.796L249.195 230.388C249.151 230.23 249.051 230.092 248.915 230.001C248.779 229.909 248.616 229.87 248.455 229.891C245.915 230.219 243.428 230.505 240.94 231.309C221.15 237.755 200.999 242.898 181.377 249.809C174.974 252.053 169.587 252.455 164.01 257.831C163.142 258.664 161.759 258.812 159.861 258.276C156.192 257.246 152.237 255.898 147.997 254.233Z" fill="#FCA87C"/>
<path d="M252.191 160.581C251.81 162.775 253.02 164.581 255.821 165.999L238.517 167.11C237.791 167.153 237.759 167.326 238.422 167.629C242.154 169.315 244.518 171.446 245.513 174.021C246.391 176.318 247.196 178.869 244.328 180.065C244.167 180.131 243.995 180.164 243.822 180.16C243.649 180.156 243.478 180.117 243.322 180.043C240.189 178.53 237.353 174.932 236.284 172.138C235.113 169.097 234.33 169.199 233.935 172.444C233.603 175.119 232.686 177.563 231.183 179.779C231.013 180.031 230.753 180.212 230.453 180.287L226.918 181.133C226.551 181.218 226.202 181.172 225.87 180.996C220.272 178.001 230.051 170.254 232.009 168.529C232.46 168.126 232.386 167.932 231.786 167.947C227.87 168.052 222.854 168.74 220.377 165.131C219.488 163.851 219.774 161.565 221.478 160.962C224.388 159.946 230.474 163.205 232.622 164.75C233.885 165.661 234.249 165.385 233.712 163.925C232.749 161.311 231.014 157.405 231.479 154.41C231.527 154.131 231.675 153.885 231.892 153.722L235.131 151.257C235.385 151.059 235.639 151.059 235.893 151.257C237.872 152.717 240.264 154.146 239.3 157.077C238.433 159.737 237.526 162.401 236.581 165.068C236.555 165.142 236.544 165.22 236.548 165.298C236.553 165.375 236.572 165.451 236.606 165.521C236.639 165.591 236.686 165.653 236.743 165.704C236.801 165.756 236.868 165.795 236.94 165.819C237.046 165.855 237.198 165.858 237.395 165.83C237.522 165.816 237.653 165.766 237.787 165.682C242.112 162.958 246.913 161.258 252.191 160.581Z" fill="#FE2453"/>
<path d="M255.821 165.999C253.02 164.581 251.81 162.775 252.191 160.58C252.911 152.971 261.06 156.665 259.536 163.427C259.077 165.452 257.839 166.31 255.821 165.999Z" fill="#FEFEFE"/>
<path d="M316.613 179.038C316.175 179.299 316.203 179.405 316.697 179.355C316.779 179.347 316.862 179.361 316.937 179.394C317.012 179.427 317.077 179.48 317.127 179.546C317.176 179.612 317.207 179.689 317.217 179.771C317.227 179.853 317.216 179.936 317.184 180.012C315.731 183.779 313.684 187.021 311.046 189.738C304.618 196.335 296.508 203.658 286.714 211.709C282.449 215.223 273.718 219.922 271.707 211.37C271.347 209.832 270.864 206.287 270.257 200.734C272.49 203.539 273.707 208.058 276.819 209.508C277.166 209.678 277.566 209.712 277.941 209.603C282.943 208.192 287.822 205.376 292.578 201.157C300.459 194.158 308.47 186.785 316.613 179.038Z" fill="#FEFEFE"/>
<path d="M147.998 254.233C147.214 254.247 146.191 253.986 144.928 253.45C144.576 253.302 144.583 253.171 144.95 253.058C173.983 244.02 202.964 234.816 231.892 225.446C241.883 222.208 248.667 219.717 252.244 217.974C255.454 216.408 257.493 213.667 258.361 209.751C258.792 209.306 259.25 209.211 259.737 209.465C259.888 209.546 260.009 209.672 260.084 209.826C260.158 209.98 260.181 210.154 260.15 210.322C259.783 212.517 260.023 214.63 260.869 216.662C260.949 216.847 260.985 217.047 260.976 217.249C260.967 217.451 260.913 217.648 260.817 217.826C258.393 222.239 250.656 223.403 246.667 224.578C218.494 232.897 191.866 241.723 164.465 250.211C161.841 251.023 159.107 251.742 156.263 252.37C153.631 252.956 150.876 253.577 147.998 254.233Z" fill="#FEFEFE"/>
<path d="M295.943 236.286C296.17 236.937 296.227 237.64 296.111 238.354C295.996 239.069 295.71 239.781 295.27 240.451C294.829 241.12 294.244 241.734 293.546 242.256C292.848 242.778 292.052 243.199 291.203 243.495C289.488 244.092 287.661 244.143 286.124 243.635C284.588 243.128 283.468 242.104 283.01 240.79C282.783 240.139 282.726 239.436 282.841 238.721C282.957 238.007 283.243 237.294 283.683 236.625C284.123 235.955 284.709 235.342 285.407 234.819C286.104 234.297 286.901 233.876 287.75 233.58C289.465 232.983 291.292 232.933 292.828 233.44C294.365 233.947 295.485 234.971 295.943 236.286Z" fill="#FFB923"/>
<path d="M267.696 243.279C266.313 244.528 264.955 245.336 263.621 245.703C261.018 246.422 258.58 246.574 256.308 246.158C257.144 241.078 264.32 241.893 267.696 243.279Z" fill="#FEFEFE"/>
<path d="M267.696 243.279C269.29 246.412 268.927 248.934 266.606 250.846C263.642 253.291 259.515 253.566 257.091 250.169C256.153 248.864 255.892 247.527 256.308 246.158C258.58 246.574 261.018 246.422 263.621 245.703C264.955 245.336 266.313 244.528 267.696 243.279Z" fill="#FFB923"/>
<path d="M281.147 267.907C275.651 268.295 270.162 268.196 264.68 267.61C263.939 267.526 263.399 267.317 263.06 266.986C262.999 266.924 262.954 266.846 262.932 266.761C262.91 266.676 262.911 266.587 262.935 266.504C262.959 266.42 263.005 266.345 263.068 266.286C263.131 266.228 263.209 266.188 263.293 266.171C270.712 264.7 275.782 263.091 278.099 255.069C278.126 254.975 278.173 254.888 278.236 254.813C278.298 254.738 278.376 254.677 278.464 254.635C278.552 254.592 278.647 254.568 278.745 254.564C278.843 254.561 278.94 254.577 279.031 254.614L286.174 257.376C286.403 257.462 286.595 257.623 286.72 257.833C286.845 258.042 286.895 258.288 286.862 258.53C286.559 260.936 286.167 263.299 285.688 265.621C285.127 268.341 283.306 267.758 281.147 267.907Z" fill="#FCA87C"/>
<path d="M297.075 283.401C294.796 283.626 292.489 284.159 290.154 284.999C286.894 286.177 284.654 286.868 283.433 287.073C277.612 288.079 272.257 287.719 266.426 287.698C261.769 287.676 257.282 285.951 252.836 284.787C252.595 284.723 252.34 284.724 252.099 284.789C251.858 284.854 251.638 284.981 251.461 285.158C242.613 293.906 233.476 302.419 224.05 310.695C222.452 312.092 219.499 313.902 217.689 316.315C215.756 315.532 214.101 315.761 212.725 317.003C212.189 317.088 211.995 316.502 212.143 315.246C212.193 314.795 211.992 314.586 211.54 314.622C211.328 314.643 211.117 314.664 210.905 314.685C210.432 314.735 210.122 314.685 209.974 314.537C209.748 314.311 209.681 313.934 209.773 313.405L249.863 279.178C250.138 278.938 250.448 278.882 250.794 279.009C264.912 284.417 280.12 284.713 294.387 279.157C294.545 279.098 294.719 279.1 294.874 279.163C295.029 279.225 295.154 279.344 295.223 279.495L297.075 283.401Z" fill="#FEFEFE"/>
<path d="M297.075 283.401L322.338 327.428C322.112 327.823 321.427 327.608 320.284 326.782C319.96 326.549 319.614 326.511 319.247 326.666L307.606 331.619C306.537 328.423 302.123 313.722 297.752 311.69C291.667 308.843 287.762 314.569 289.254 320.104C290.714 325.53 292.228 330.853 293.794 336.074L278.903 340.033C277.767 332.892 276.723 325.805 275.771 318.771C275.527 317.024 274.829 314.093 273.389 312.749C270.13 309.679 265.198 311.584 263.97 315.945C261.388 325.124 258.693 334.399 255.884 343.768L241.353 339.175C241.191 339.119 241.082 339.009 241.025 338.847C240.99 338.755 240.955 338.653 240.92 338.54C243.639 333.492 254.826 312.643 244.857 311.225C241.618 310.766 239.103 312.124 237.311 315.299C233.204 322.57 231.394 327.629 228.399 334.032C226.198 330.412 223.545 327.34 220.441 324.814C222.335 320.908 219.964 318.961 217.689 316.315C219.499 313.902 222.452 312.092 224.05 310.695C233.476 302.419 242.613 293.907 251.461 285.158C251.637 284.981 251.858 284.854 252.099 284.789C252.34 284.724 252.595 284.723 252.836 284.787C257.281 285.951 261.769 287.677 266.425 287.698C272.257 287.719 277.612 288.079 283.433 287.073C284.654 286.869 286.894 286.177 290.154 284.999C292.489 284.159 294.796 283.627 297.075 283.401Z" fill="#FFB923"/>
<path d="M209.772 313.405C209.681 313.934 209.748 314.311 209.973 314.537C210.122 314.685 210.432 314.735 210.905 314.685C211.116 314.664 211.328 314.643 211.54 314.622C211.991 314.586 212.192 314.795 212.143 315.246C211.995 316.502 212.189 317.088 212.725 317.003L195.093 333.778C194.969 333.898 194.822 333.992 194.661 334.054C194.5 334.117 194.327 334.146 194.154 334.142C193.981 334.137 193.81 334.097 193.651 334.026C193.493 333.954 193.35 333.852 193.231 333.725L190.701 330.994C190.123 330.359 190.161 329.767 190.817 329.216L209.772 313.405Z" fill="#FFB923"/>
<path d="M220.441 324.814C223.545 327.34 226.198 330.412 228.4 334.032L219.181 353.452C219.069 353.685 218.906 353.731 218.695 353.59L205.783 345.208C205.684 345.144 205.601 345.06 205.537 344.962C205.473 344.864 205.43 344.753 205.411 344.636C205.392 344.52 205.397 344.4 205.427 344.286C205.456 344.171 205.509 344.063 205.582 343.97L220.441 324.814Z" fill="#FF743D"/>
<path d="M322.338 327.428L331.482 343.25C331.542 343.356 331.58 343.474 331.593 343.595C331.607 343.716 331.595 343.839 331.56 343.956C331.524 344.073 331.465 344.181 331.386 344.275C331.307 344.368 331.21 344.444 331.101 344.499L314.781 352.701C314.485 352.849 314.287 352.764 314.188 352.447L307.605 331.619L319.247 326.666C319.614 326.51 319.96 326.549 320.284 326.782C321.427 327.608 322.112 327.823 322.338 327.428Z" fill="#FE532B"/>
<path d="M293.795 336.074L299.965 356.892C300.078 357.266 299.947 357.509 299.573 357.622L284.069 362.226C283.922 362.27 283.769 362.283 283.617 362.263C283.466 362.244 283.32 362.192 283.19 362.112C283.06 362.032 282.949 361.925 282.863 361.799C282.777 361.673 282.719 361.53 282.693 361.379L278.904 340.033L293.795 336.074Z" fill="#FE532B"/>
<path d="M240.92 338.54C240.955 338.653 240.99 338.755 241.025 338.847C241.082 339.009 241.191 339.119 241.353 339.175L255.884 343.768L251.323 361.739C251.283 361.891 251.189 362.024 251.059 362.111C250.928 362.199 250.77 362.236 250.614 362.215C244.962 361.531 239.445 360.25 234.062 358.374C233.972 358.342 233.889 358.292 233.82 358.228C233.75 358.163 233.694 358.085 233.655 357.999C233.616 357.913 233.596 357.82 233.595 357.726C233.594 357.632 233.612 357.539 233.649 357.453C236.139 351.653 238.503 345.882 240.74 340.138C240.923 339.666 240.983 339.133 240.92 338.54Z" fill="#FE532B"/>
<path d="M171.355 377.995C173.274 378.214 175.006 377.907 176.551 377.074C179.254 375.706 181.582 373.758 183.537 371.232C187.699 365.849 191.936 360.723 196.247 355.855C196.388 355.692 196.54 355.678 196.702 355.812L203.677 361.347C203.726 361.387 203.766 361.437 203.794 361.494C203.823 361.55 203.838 361.612 203.84 361.674C203.842 361.737 203.831 361.799 203.806 361.856C203.781 361.913 203.745 361.963 203.698 362.004C196.448 368.65 183.156 379.466 177.504 390.865C177.356 391.168 177.116 391.32 176.784 391.32L154.115 391.531C154.045 391.531 153.977 391.511 153.918 391.473C153.859 391.436 153.812 391.382 153.782 391.319C153.752 391.256 153.741 391.186 153.749 391.117C153.757 391.048 153.785 390.982 153.829 390.928C158.306 385.478 163.862 378.926 171.355 377.995Z" fill="#FCA87C"/>
<path d="M267.717 358.035C267.978 360.561 268.123 363.09 268.151 365.623C268.153 365.765 268.123 365.905 268.063 366.033C268.003 366.161 267.914 366.274 267.804 366.362C267.694 366.451 267.565 366.514 267.427 366.545C267.289 366.576 267.146 366.576 267.008 366.544L266.267 366.375C265.562 366.219 265.297 365.793 265.473 365.094L267.241 358.003C267.467 357.114 267.625 357.125 267.717 358.035Z" fill="#FEFEFE"/>
<path d="M247.09 375.561C238.687 379.318 230.061 380.768 226.632 390.738C226.57 390.922 226.451 391.083 226.291 391.197C226.132 391.311 225.94 391.372 225.743 391.373L193.739 391.362C193.083 391.362 192.995 391.14 193.474 390.695L217.636 368.11C217.807 367.949 218.026 367.847 218.26 367.82C218.495 367.794 218.733 367.843 218.938 367.962C224.664 371.306 230.569 372.195 236.909 373.635C240.373 374.425 243.728 374.87 246.973 374.968C247.884 374.997 247.922 375.194 247.09 375.561Z" fill="#FEFEFE"/>
<path d="M263.674 383.403C276.565 378.366 290.535 375.36 303.849 371.582C304.342 371.441 304.611 371.373 304.653 371.381C304.809 371.417 304.951 371.5 305.058 371.619C305.166 371.739 305.234 371.888 305.254 372.048C305.273 372.207 305.244 372.369 305.168 372.511C305.093 372.653 304.976 372.768 304.833 372.841C295.181 377.815 285.201 381.922 275.231 386.356C272.373 387.626 270.003 389.542 267.346 391.288C267.174 391.405 266.971 391.468 266.764 391.468L244.825 391.404C244.705 391.404 244.645 391.387 244.645 391.351C244.652 391.26 244.656 391.171 244.656 391.087C244.656 391.002 244.694 390.946 244.772 390.917C250.685 388.723 256.502 386.303 262.224 383.657C262.429 383.566 262.63 383.513 262.827 383.499C263.124 383.477 263.399 383.509 263.674 383.403Z" fill="#FCA87C"/>
<path d="M176.551 377.074C175.006 377.907 173.274 378.214 171.355 377.995L176.551 377.074Z" fill="#B20957"/>
</svg>
