<svg width="512" height="512" viewBox="0 0 512 512" fill="none" xmlns="http://www.w3.org/2000/svg">
<rect width="512" height="512" fill="white"/>
<path d="M381.78 266.096C381.685 264.52 381.354 263.569 380.788 263.241C368.582 256.131 356.971 248.867 345.308 239.455C337.676 233.307 329.471 225.623 321.614 218.585C318.248 215.577 314.882 211.444 311.117 208.201C309.241 206.584 307.608 204.876 306.217 203.075C304.368 200.674 302.401 198.359 300.313 196.128" stroke="#061D35" stroke-width="2"/>
<path d="M300.314 196.128C288.876 181.103 278.625 165.32 269.56 148.781C269.47 148.617 269.34 148.479 269.181 148.384C269.023 148.289 268.843 148.238 268.66 148.239L241.457 148.249C241.272 148.249 241.09 148.296 240.927 148.386C240.765 148.475 240.627 148.604 240.526 148.76C238.534 151.918 236.079 156.028 233.16 161.088C226.408 172.792 218.639 184.445 209.854 196.046" stroke="#818A91" stroke-width="2"/>
<path d="M209.855 196.046C207.699 196.408 206.362 197.223 205.844 198.492C204.603 201.513 203.491 203.549 202.509 204.599C193.295 214.4 183.848 223.969 174.17 233.306C172.929 234.5 171.21 235.966 169.014 237.706C163.786 241.849 159.111 245.982 153.146 249.88C148.011 253.236 139.304 259.732 131.416 263.333C131.082 263.483 130.902 263.739 130.874 264.101C130.806 264.933 130.615 265.68 130.301 266.341" stroke="#061D35" stroke-width="2"/>
<path d="M377.002 269.727C375.065 268.602 373.2 267.31 371.406 265.85C368.998 263.899 367.198 262.529 366.004 261.737C358.28 256.653 351.067 251.466 342.504 247.803C338.484 246.085 328.202 242.176 321.051 239.629C315.588 237.695 310.002 237.01 304.273 236.058C295.515 234.585 284.118 234.237 277.069 234.769C258.02 236.202 235.339 244.744 220.965 258.607C218.213 261.257 212.084 269.431 208.268 269.339C200.67 269.168 194.01 269.625 188.288 270.71C181.324 272.026 174.443 273.659 167.643 275.61C162.855 276.981 158.281 279.099 153.678 281.124C152.747 281.534 151.846 281.329 150.864 281.769" stroke="#061D35" stroke-width="2"/>
<path d="M300.314 196.128C298.37 199.187 295.536 208.538 290.298 201.724C285.844 195.948 281.401 190.164 276.967 184.373C276.217 183.398 275.303 182.586 274.226 181.938C273.919 181.761 273.605 181.747 273.284 181.897C271.791 182.614 270.638 183.551 269.826 184.711C266.88 188.899 263.456 194.246 259.555 200.753C255.401 207.679 252.383 203.351 249.887 198.983C246.695 193.397 242.94 187.77 240.649 184.373C239.38 182.481 236.996 180.844 234.991 183.125C229.917 188.885 225.599 195.381 220.863 201.428C220.201 202.267 219.43 203.034 218.551 203.73C218.278 203.941 217.964 204.04 217.609 204.026C213.64 203.842 212.167 198.86 209.854 196.046" stroke="#8493A2" stroke-width="2"/>
<path d="M381.78 266.096C381.685 264.52 381.354 263.569 380.788 263.241C368.583 256.131 356.971 248.867 345.308 239.455C337.676 233.306 329.471 225.623 321.614 218.585C318.248 215.577 314.882 211.444 311.117 208.2C309.242 206.584 307.608 204.876 306.217 203.075C304.369 200.674 302.401 198.359 300.314 196.128C288.876 181.103 278.625 165.321 269.56 148.781C269.471 148.617 269.34 148.479 269.181 148.384C269.023 148.289 268.843 148.238 268.66 148.239L241.457 148.249C241.272 148.249 241.09 148.296 240.927 148.386C240.765 148.475 240.627 148.604 240.526 148.761C238.535 151.918 236.079 156.028 233.16 161.088C226.408 172.792 218.639 184.445 209.855 196.047C207.699 196.408 206.362 197.223 205.844 198.492C204.603 201.513 203.491 203.549 202.509 204.599C193.295 214.4 183.848 223.969 174.17 233.306C172.929 234.5 171.21 235.966 169.014 237.706C163.786 241.849 159.111 245.982 153.146 249.88C148.011 253.236 139.304 259.732 131.416 263.333C131.082 263.483 130.902 263.739 130.874 264.101C130.806 264.933 130.615 265.68 130.301 266.341C129.64 265.536 128.934 264.926 128.183 264.51C128.043 264.43 127.882 264.392 127.719 264.401C127.556 264.41 127.398 264.466 127.263 264.561C122.26 268.244 111.947 275.293 108.111 271.671C104.643 268.408 105.973 263.425 109.993 261.144C118.328 256.431 126.577 251.295 134.741 245.737C135.71 245.075 135.608 244.703 134.434 244.622C134.244 244.608 133.78 244.639 133.043 244.714C126.843 245.379 124.582 238.299 130.107 235.342C133.452 233.552 138.189 230.155 137.135 226.145C137.053 225.811 136.849 225.702 136.522 225.818L132.286 227.322C131.904 227.451 131.536 227.427 131.181 227.25C129.974 226.626 127.58 224.989 127.928 223.147C128.961 217.746 138.67 215.812 137.688 210.165C137.678 210.105 137.655 210.049 137.621 209.999C137.586 209.949 137.542 209.906 137.49 209.874C137.438 209.843 137.379 209.822 137.318 209.814C137.257 209.806 137.195 209.81 137.135 209.827C135.048 210.431 131.253 211.955 130.025 209.142C128.654 205.984 129.312 203.641 131.999 202.113C134.414 200.742 135.601 200.19 137.156 197.755C140.348 192.783 142.66 189.693 146.824 196.793C148.706 199.985 150.681 201.162 153.678 202.809C157.146 204.722 155.223 209.715 152.164 210.871C151.873 210.983 151.555 210.991 151.264 210.891L147.745 209.725C147.633 209.687 147.514 209.678 147.399 209.699C147.283 209.72 147.175 209.771 147.085 209.846C146.995 209.921 146.925 210.018 146.883 210.127C146.841 210.237 146.827 210.355 146.844 210.472C147.55 215.239 152.185 217.408 155.837 220.058C157.863 221.531 156.297 225.511 155.08 226.974C154.758 227.358 154.315 227.62 153.823 227.717C153.332 227.814 152.822 227.739 152.379 227.506L148.716 225.582C148.409 225.419 148.147 225.47 147.929 225.736C145.842 228.304 151.284 232.089 152.983 233.306C153.205 233.463 153.472 233.542 153.743 233.533C154.014 233.524 154.275 233.426 154.486 233.255C167.432 222.69 179.463 211.246 190.58 198.921C194.069 195.054 197.527 190.307 201.24 185.693C212.699 171.473 222.377 154.786 230.94 138.448C232.229 135.982 233.999 135.266 236.863 135.256C249.249 135.222 261.632 135.137 274.011 135C279.126 134.939 281.929 143.083 283.955 146.97C302.073 181.734 327.384 209.51 358.403 233.255C358.478 233.312 358.568 233.344 358.66 233.348C358.751 233.351 358.841 233.326 358.915 233.276C360.913 231.973 362.451 230.258 363.529 228.13C364.572 226.07 364.01 225.432 361.841 226.217L358.24 227.526C358.064 227.59 357.873 227.6 357.691 227.554C357.509 227.509 357.344 227.41 357.217 227.27L354.976 224.774C354.575 224.327 354.357 223.747 354.362 223.147C354.368 222.546 354.598 221.97 355.007 221.531C358.639 217.643 364.705 216.027 364.562 209.94C364.561 209.87 364.542 209.801 364.508 209.74C364.475 209.679 364.427 209.627 364.368 209.589C364.31 209.55 364.243 209.527 364.173 209.52C364.103 209.514 364.033 209.524 363.969 209.551L360.889 210.789C360.578 210.921 360.228 210.943 359.897 210.85C357.721 210.264 356.62 208.651 356.592 206.011C356.552 201.551 361.759 201.387 363.365 198.942C365.156 196.22 368.266 189.929 372.225 194.491C373.159 195.569 374.049 196.684 374.895 197.837C377.586 201.53 384.266 202.799 381.739 208.579C380.491 211.433 377.054 210.584 374.844 209.837C374.754 209.806 374.658 209.799 374.565 209.816C374.471 209.833 374.384 209.874 374.311 209.935C374.238 209.995 374.182 210.074 374.148 210.163C374.114 210.251 374.104 210.347 374.118 210.441C374.783 215.474 380.082 218.175 382.629 220.661C385.3 223.25 383.325 225.797 380.798 227.219C380.471 227.403 380.13 227.431 379.775 227.301L376.154 225.961C375.9 225.866 375.622 225.862 375.367 225.95C375.111 226.038 374.894 226.212 374.752 226.442C374.302 227.171 374.319 227.932 374.803 228.723C377.586 233.327 379.796 234.156 383.755 236.202C384.062 236.359 384.294 236.594 384.45 236.908C386.323 240.58 383.1 246.729 378.578 244.038C378.52 244.005 378.457 243.983 378.391 243.974C378.324 243.966 378.258 243.97 378.194 243.987C378.13 244.004 378.07 244.034 378.019 244.074C377.967 244.115 377.924 244.165 377.893 244.223L377.698 244.55C377.599 244.723 377.57 244.929 377.617 245.125C377.665 245.32 377.785 245.492 377.954 245.604C381.381 247.895 384.706 250.473 388.256 252.499C393.146 255.295 398.013 258.136 402.855 261.021C406.968 263.487 407.05 269.615 403.08 271.825C398.691 274.27 388.553 266.914 384.86 264.448C384.553 264.237 384.249 264.244 383.949 264.469L381.78 266.096Z" fill="#021424"/>
<path d="M185.904 160.72C185.904 164.711 184.319 168.539 181.496 171.362C178.674 174.184 174.846 175.769 170.855 175.769C166.864 175.769 163.036 174.184 160.214 171.362C157.391 168.539 155.806 164.711 155.806 160.72C155.806 156.729 157.391 152.901 160.214 150.079C163.036 147.256 166.864 145.671 170.855 145.671C174.846 145.671 178.674 147.256 181.496 150.079C184.319 152.901 185.904 156.729 185.904 160.72Z" fill="#021424"/>
<path d="M328.782 174.901C326.952 174.263 325.268 173.264 323.827 171.961C322.386 170.657 321.215 169.074 320.382 167.302C319.548 165.53 319.068 163.603 318.969 161.633C318.871 159.662 319.155 157.686 319.806 155.817C321.12 152.043 323.848 148.934 327.39 147.175C330.933 145.416 334.998 145.151 338.693 146.438C340.523 147.075 342.207 148.074 343.648 149.377C345.089 150.681 346.26 152.264 347.093 154.036C347.927 155.808 348.407 157.735 348.506 159.705C348.604 161.676 348.32 163.652 347.669 165.521C346.355 169.295 343.627 172.404 340.085 174.163C336.542 175.922 332.477 176.187 328.782 174.901Z" fill="#021424"/>
<path d="M300.314 196.128C298.37 199.187 295.536 208.538 290.298 201.724C285.844 195.948 281.401 190.164 276.967 184.373C276.217 183.398 275.303 182.586 274.226 181.938C273.919 181.761 273.605 181.747 273.284 181.898C271.791 182.614 270.638 183.551 269.826 184.711C266.88 188.899 263.456 194.246 259.555 200.753C255.401 207.679 252.383 203.351 249.887 198.983C246.695 193.397 242.94 187.77 240.649 184.373C239.38 182.481 236.996 180.844 234.991 183.125C229.917 188.885 225.599 195.381 220.863 201.428C220.201 202.267 219.43 203.034 218.551 203.73C218.278 203.941 217.964 204.04 217.609 204.026C213.64 203.842 212.167 198.86 209.854 196.046C218.639 184.445 226.408 172.792 233.16 161.088C236.079 156.028 238.534 151.918 240.526 148.76C240.627 148.604 240.765 148.475 240.927 148.386C241.09 148.296 241.272 148.249 241.457 148.249L268.66 148.239C268.843 148.238 269.023 148.289 269.181 148.384C269.34 148.479 269.47 148.617 269.56 148.781C278.625 165.32 288.876 181.103 300.314 196.128Z" fill="#FFFFFE"/>
<path d="M300.314 196.128C302.401 198.359 304.369 200.674 306.217 203.075C307.608 204.876 309.242 206.584 311.117 208.2C314.882 211.444 318.248 215.577 321.614 218.585C329.471 225.623 337.676 233.306 345.308 239.455C356.971 248.867 368.583 256.131 380.788 263.241C381.354 263.569 381.685 264.52 381.78 266.096C380.744 267.364 379.151 268.575 377.003 269.727C375.066 268.602 373.2 267.31 371.406 265.85C368.999 263.899 367.198 262.528 366.005 261.737C358.28 256.653 351.068 251.466 342.505 247.803C338.484 246.084 328.202 242.176 321.051 239.629C315.588 237.695 310.002 237.01 304.273 236.058C295.516 234.585 284.119 234.237 277.07 234.769C258.02 236.202 235.339 244.744 220.965 258.607C218.213 261.256 212.085 269.431 208.269 269.339C200.671 269.168 194.011 269.625 188.288 270.71C181.325 272.026 174.443 273.659 167.643 275.61C162.855 276.981 158.282 279.099 153.678 281.124C152.747 281.534 151.847 281.329 150.865 281.769L130.301 266.341C130.615 265.68 130.806 264.933 130.874 264.101C130.902 263.739 131.082 263.483 131.416 263.333C139.304 259.732 148.011 253.236 153.146 249.88C159.111 245.982 163.786 241.849 169.014 237.706C171.21 235.966 172.929 234.5 174.17 233.306C183.848 223.969 193.295 214.4 202.509 204.599C203.491 203.549 204.603 201.513 205.844 198.492C206.362 197.223 207.699 196.408 209.855 196.046C212.167 198.86 213.64 203.842 217.609 204.026C217.964 204.04 218.278 203.941 218.551 203.73C219.431 203.034 220.201 202.267 220.863 201.428C225.6 195.381 229.917 188.885 234.991 183.125C236.997 180.844 239.38 182.481 240.649 184.373C242.94 187.77 246.695 193.397 249.887 198.983C252.383 203.351 255.401 207.679 259.555 200.753C263.456 194.246 266.88 188.899 269.826 184.711C270.638 183.551 271.791 182.614 273.285 181.897C273.605 181.747 273.919 181.761 274.226 181.938C275.303 182.586 276.217 183.398 276.967 184.373C281.401 190.164 285.844 195.948 290.298 201.724C295.536 208.538 298.37 199.187 300.314 196.128Z" fill="#092645"/>
<path d="M377.003 269.727C385.003 276.487 390.807 283.566 394.415 290.966C400.472 303.376 399.551 324.308 380.88 324.451C375.84 324.485 370.803 324.478 365.769 324.431C365.408 324.431 365.234 324.615 365.248 324.983C365.459 330.658 363.43 335.337 359.16 339.02C358.547 339.552 358.645 339.811 359.457 339.797C373.207 339.606 387.093 339.579 401.116 339.715C407.5 339.787 407.695 351.726 400.605 351.706C305.93 351.474 211.256 351.498 116.582 351.777C111.886 351.787 108.5 352.381 106.617 348.309C104.592 343.91 107.825 340.073 112.336 340.022C128.098 339.858 143.952 339.838 159.898 339.961C159.923 339.96 159.947 339.951 159.968 339.937C159.988 339.923 160.004 339.903 160.013 339.881C160.022 339.858 160.024 339.835 160.018 339.812C160.012 339.79 159.999 339.77 159.98 339.756L154.292 334.866C154.217 334.805 154.128 334.77 154.026 334.764C152.157 334.723 150.452 335.193 148.911 336.175C148.645 336.346 148.358 336.435 148.051 336.441C142.496 336.544 136.204 336.912 131.191 335.909C111.18 331.899 105.881 312.502 122.239 299.54C130.84 292.726 140.337 286.956 150.732 282.229C150.902 282.147 150.947 281.994 150.865 281.769C151.847 281.329 152.747 281.534 153.678 281.124C158.282 279.099 162.855 276.981 167.643 275.61C174.443 273.659 181.325 272.026 188.288 270.71C194.011 269.625 200.671 269.168 208.269 269.339C212.085 269.431 218.213 261.257 220.965 258.607C235.339 244.744 258.02 236.202 277.07 234.769C284.119 234.237 295.516 234.585 304.273 236.058C310.002 237.01 315.588 237.695 321.051 239.629C328.203 242.176 338.484 246.085 342.505 247.803C351.068 251.466 358.28 256.653 366.005 261.737C367.198 262.529 368.999 263.899 371.406 265.85C373.2 267.31 375.066 268.602 377.003 269.727Z" fill="#021424"/>
<path d="M312.315 371.706C312.315 372.367 312.184 373.022 311.931 373.633C311.678 374.243 311.308 374.798 310.84 375.266C310.373 375.733 309.818 376.104 309.207 376.357C308.597 376.61 307.942 376.74 307.281 376.74H215.922C215.261 376.74 214.606 376.61 213.995 376.357C213.385 376.104 212.83 375.733 212.362 375.266C211.895 374.798 211.524 374.243 211.271 373.633C211.018 373.022 210.888 372.367 210.888 371.706V371.563C210.888 370.228 211.418 368.948 212.362 368.004C213.306 367.06 214.587 366.53 215.922 366.53H307.281C308.616 366.53 309.896 367.06 310.84 368.004C311.784 368.948 312.315 370.228 312.315 371.563V371.706Z" fill="#021424"/>
<path d="M182.406 371.794C182.409 372.424 182.286 373.049 182.047 373.632C181.808 374.215 181.457 374.745 181.013 375.192C180.569 375.639 180.041 375.994 179.46 376.238C178.878 376.481 178.255 376.607 177.625 376.609L161.338 376.666C160.065 376.671 158.843 376.169 157.94 375.273C157.037 374.376 156.527 373.157 156.523 371.885L156.522 371.475C156.519 370.845 156.641 370.221 156.88 369.638C157.119 369.055 157.471 368.525 157.915 368.078C158.359 367.631 158.887 367.275 159.468 367.032C160.049 366.789 160.673 366.663 161.303 366.661L177.59 366.604C178.863 366.599 180.085 367.1 180.988 367.997C181.891 368.894 182.4 370.113 182.405 371.385L182.406 371.794Z" fill="#021424"/>
<path d="M362.19 371.913C362.191 372.547 362.067 373.175 361.825 373.761C361.584 374.348 361.229 374.881 360.781 375.33C360.334 375.779 359.802 376.136 359.216 376.379C358.631 376.623 358.003 376.749 357.369 376.75L345.727 376.771C345.093 376.772 344.464 376.648 343.878 376.406C343.292 376.165 342.759 375.81 342.31 375.362C341.861 374.915 341.504 374.383 341.26 373.797C341.017 373.212 340.891 372.584 340.889 371.95L340.889 371.459C340.888 370.825 341.011 370.197 341.253 369.61C341.495 369.024 341.849 368.491 342.297 368.042C342.745 367.593 343.276 367.236 343.862 366.992C344.447 366.749 345.075 366.623 345.709 366.622L357.351 366.601C357.985 366.6 358.614 366.724 359.2 366.966C359.786 367.207 360.319 367.562 360.768 368.01C361.218 368.457 361.574 368.989 361.818 369.575C362.062 370.16 362.188 370.788 362.189 371.422L362.19 371.913Z" fill="#021424"/>
<path d="M138.936 375.716C138.521 375.809 138.092 375.816 137.672 375.735C137.252 375.655 136.849 375.489 136.487 375.248C136.125 375.006 135.81 374.693 135.561 374.327C135.312 373.96 135.133 373.548 135.035 373.113C134.937 372.678 134.921 372.228 134.989 371.791C135.057 371.353 135.207 370.935 135.431 370.562C135.654 370.188 135.947 369.866 136.292 369.613C136.637 369.36 137.028 369.182 137.442 369.089C137.856 368.995 138.286 368.989 138.706 369.069C139.126 369.149 139.529 369.315 139.891 369.557C140.253 369.798 140.568 370.111 140.817 370.477C141.066 370.844 141.245 371.256 141.343 371.691C141.441 372.127 141.456 372.576 141.388 373.014C141.32 373.451 141.17 373.869 140.947 374.243C140.723 374.616 140.431 374.939 140.086 375.191C139.74 375.444 139.35 375.622 138.936 375.716Z" fill="#021424"/>
<path d="M381.351 372.515C381.351 373.399 381 374.248 380.374 374.873C379.749 375.499 378.9 375.85 378.016 375.85C377.131 375.85 376.283 375.499 375.658 374.873C375.032 374.248 374.681 373.399 374.681 372.515C374.681 371.63 375.032 370.782 375.658 370.156C376.283 369.531 377.131 369.18 378.016 369.18C378.9 369.18 379.749 369.531 380.374 370.156C381 370.782 381.351 371.63 381.351 372.515Z" fill="#092645"/>
<path d="M384.246 309.218C382.323 305.016 379.482 302.626 375.724 302.046C372.791 301.596 369.664 301.732 366.342 302.455C365.913 302.547 365.708 302.455 365.309 302.332" stroke="#FFA4A8" stroke-width="2"/>
<path d="M365.309 302.333C359.856 294.199 347.477 291.028 338.198 291.017C305.071 290.977 271.791 290.301 238.695 291.406C227.36 291.781 217.398 295.464 208.812 302.455" stroke="#818A91" stroke-width="2"/>
<path d="M208.811 302.455C201.629 302.189 195.562 302.169 190.61 302.394C178.467 302.946 164.778 307.202 154.527 313.208C150.08 315.813 146.073 319.097 142.506 323.06" stroke="#FFA4A8" stroke-width="2"/>
<path d="M365.309 302.332C365.18 302.319 365.081 302.367 365.013 302.476C364.924 302.605 364.805 302.67 364.655 302.67C312.983 303.113 261.035 303.042 208.812 302.455" stroke="#812E3B" stroke-width="2"/>
<path d="M337.639 157.92C338.358 158.818 338.67 159.981 338.507 161.155C338.343 162.328 337.717 163.415 336.766 164.177C335.815 164.939 334.618 165.313 333.437 165.216C332.256 165.12 331.188 164.562 330.469 163.664C329.75 162.766 329.438 161.602 329.601 160.429C329.765 159.255 330.391 158.168 331.342 157.406C332.293 156.645 333.49 156.271 334.671 156.367C335.852 156.463 336.92 157.022 337.639 157.92Z" fill="#FC786C"/>
<path d="M175.04 160.843C175.04 161.977 174.59 163.065 173.788 163.867C172.986 164.669 171.898 165.119 170.764 165.119C169.63 165.119 168.542 164.669 167.74 163.867C166.938 163.065 166.487 161.977 166.487 160.843C166.487 159.709 166.938 158.621 167.74 157.819C168.542 157.017 169.63 156.567 170.764 156.567C171.898 156.567 172.986 157.017 173.788 157.819C174.59 158.621 175.04 159.709 175.04 160.843Z" fill="#FC786C"/>
<path d="M384.246 309.218C382.322 305.016 379.481 302.626 375.723 302.046C372.791 301.596 369.664 301.732 366.342 302.455C365.912 302.547 365.708 302.455 365.309 302.333C359.856 294.199 347.477 291.028 338.198 291.017C305.071 290.977 271.791 290.301 238.694 291.406C227.359 291.781 217.398 295.464 208.811 302.455C201.629 302.189 195.562 302.169 190.611 302.394C178.467 302.946 164.778 307.202 154.527 313.208C150.08 315.813 146.073 319.097 142.506 323.06C140.705 323.135 138.769 323.165 136.695 323.152C134.288 323.131 132.415 322.862 131.079 322.344C127.263 320.87 123.58 316.86 126.731 312.706C128.115 310.879 131.051 308.529 135.539 305.657C152.471 294.813 169.648 286.444 189.659 283.283C194.563 282.512 201.363 282.134 210.059 282.148C230.861 282.175 251.664 282.127 272.466 282.004C280.374 281.963 293.285 274.812 291.311 265.093C290.85 262.853 289.755 259.077 286.983 258.883C281.806 258.515 276.626 258.412 271.443 258.576C260.568 258.904 254.368 267.814 243.575 269.298C238.555 269.98 233.671 270.212 228.924 269.994C228.072 269.953 227.963 269.646 228.597 269.073C245.58 253.737 266.143 246.811 288.835 247.783C301.303 248.322 313.508 250.589 325.45 254.586C336.227 258.194 344.718 262.228 350.924 266.689C360.807 273.799 371.529 280.766 379.007 290.915C383.059 296.412 384.805 302.513 384.246 309.218Z" fill="#FFFFFE"/>
<path d="M365.309 302.333C365.18 302.319 365.081 302.367 365.013 302.476C364.924 302.605 364.805 302.67 364.655 302.67C312.983 303.113 261.035 303.042 208.812 302.455C217.398 295.464 227.36 291.781 238.695 291.406C271.791 290.301 305.071 290.977 338.198 291.017C347.477 291.028 359.856 294.199 365.309 302.333Z" fill="#021424"/>
<path d="M384.245 309.218C383.338 311.591 381.804 312.788 379.642 312.809C362.754 312.952 345.87 312.993 328.99 312.931C281.588 312.754 234.186 312.672 186.784 312.686C178.845 312.693 171.326 314.435 164.225 317.914C160.021 319.97 155.734 322.702 151.304 323.275C148.487 323.636 145.555 323.564 142.506 323.06C146.073 319.097 150.08 315.813 154.527 313.208C164.778 307.202 178.467 302.946 190.61 302.394C195.562 302.169 201.629 302.189 208.811 302.455C261.035 303.042 312.982 303.113 364.654 302.67C364.804 302.67 364.923 302.605 365.012 302.476C365.08 302.367 365.179 302.319 365.309 302.332C365.708 302.455 365.912 302.547 366.342 302.455C369.663 301.732 372.79 301.596 375.723 302.046C379.481 302.626 382.322 305.016 384.245 309.218Z" fill="#FF4852"/>
<path d="M352.838 323.929C353.136 323.928 353.431 323.985 353.708 324.098C353.984 324.211 354.235 324.377 354.447 324.587C354.658 324.797 354.827 325.047 354.942 325.322C355.058 325.597 355.118 325.892 355.119 326.19V326.978C355.123 327.855 354.963 328.725 354.648 329.537C354.332 330.35 353.868 331.088 353.28 331.712C352.693 332.335 351.995 332.83 351.226 333.17C350.456 333.509 349.631 333.686 348.797 333.689H347.835C346.152 333.697 344.534 333.002 343.337 331.757C342.14 330.512 341.462 328.819 341.451 327.05V326.262C341.448 325.963 341.505 325.666 341.617 325.389C341.729 325.112 341.895 324.859 342.105 324.646C342.315 324.433 342.565 324.264 342.841 324.148C343.117 324.032 343.413 323.972 343.712 323.97L352.838 323.929Z" fill="#092645"/>
<path d="M206.755 324.124C207.044 324.117 207.332 324.167 207.603 324.272C207.873 324.377 208.12 324.535 208.329 324.735C208.538 324.936 208.705 325.176 208.821 325.441C208.938 325.707 209 325.993 209.005 326.282L209.026 327.387C209.06 329.012 208.416 330.584 207.236 331.758C206.056 332.932 204.437 333.612 202.734 333.648H202.489C201.644 333.667 200.805 333.526 200.018 333.235C199.231 332.943 198.513 332.507 197.904 331.95C197.295 331.393 196.807 330.727 196.468 329.99C196.13 329.253 195.947 328.459 195.931 327.653L195.91 326.548C195.899 325.967 196.119 325.404 196.522 324.984C196.924 324.565 197.477 324.321 198.059 324.308L206.755 324.124Z" fill="#092645"/>
<path d="M297.511 325.116C296.825 331.142 299.127 334.938 303.363 339.286C303.656 339.579 303.595 339.729 303.179 339.736L212.852 339.797C212.824 339.798 212.796 339.789 212.772 339.774C212.748 339.758 212.729 339.735 212.718 339.709C212.707 339.683 212.704 339.653 212.71 339.625C212.716 339.597 212.729 339.572 212.75 339.552C213.773 338.413 214.813 337.274 215.87 336.135C219.431 332.298 218.612 329.321 218.796 324.983C218.81 324.683 218.963 324.533 219.257 324.533L297.05 324.605C297.398 324.605 297.552 324.775 297.511 325.116Z" fill="#FFFFFE"/>
<path d="M319.271 324.195C319.76 324.182 320.235 324.362 320.592 324.698C320.949 325.033 321.158 325.496 321.174 325.986V326.078C321.229 328.024 320.542 329.912 319.264 331.325C317.986 332.739 316.223 333.564 314.36 333.618L313.972 333.628C312.109 333.681 310.3 332.958 308.944 331.619C307.588 330.28 306.794 328.434 306.739 326.487V326.395C306.732 326.152 306.773 325.91 306.86 325.682C306.946 325.455 307.077 325.247 307.245 325.07C307.412 324.894 307.612 324.752 307.834 324.652C308.056 324.553 308.296 324.499 308.539 324.492L319.271 324.195Z" fill="#092645"/>
<path d="M175.347 326.098C175.387 326.085 175.432 326.089 175.47 326.108C175.508 326.127 175.537 326.16 175.551 326.201L175.592 326.344C175.979 327.552 175.813 328.883 175.132 330.044C174.451 331.204 173.31 332.1 171.96 332.533L171.653 332.636C170.984 332.85 170.284 332.945 169.592 332.914C168.9 332.883 168.231 332.727 167.622 332.456C167.013 332.184 166.476 331.802 166.043 331.331C165.609 330.859 165.288 330.309 165.096 329.71L165.055 329.577C165.042 329.536 165.045 329.492 165.064 329.453C165.083 329.415 165.117 329.386 165.157 329.372L175.347 326.098Z" fill="#092645"/>
<path d="M333.492 334.927L337.676 339.613C337.723 339.666 337.752 339.733 337.759 339.804C337.766 339.875 337.75 339.947 337.713 340.008C337.677 340.069 337.622 340.118 337.557 340.146C337.491 340.174 337.418 340.181 337.349 340.165L331.2 338.907C331.156 338.898 331.111 338.898 331.067 338.907L324.919 340.186C324.85 340.199 324.779 340.19 324.715 340.16C324.652 340.131 324.599 340.083 324.565 340.022C324.53 339.961 324.514 339.891 324.521 339.822C324.528 339.752 324.556 339.686 324.601 339.633L328.755 334.927C328.786 334.895 328.811 334.857 328.827 334.815L330.791 328.85C330.813 328.782 330.855 328.722 330.913 328.679C330.971 328.636 331.041 328.613 331.113 328.613C331.185 328.613 331.255 328.636 331.313 328.679C331.371 328.722 331.414 328.782 331.435 328.85L333.431 334.805C333.442 334.849 333.463 334.891 333.492 334.927Z" fill="#FFFFFE"/>
<path d="M188.953 335.337L192.718 339.521C192.764 339.574 192.792 339.64 192.799 339.709C192.805 339.779 192.79 339.849 192.755 339.909C192.72 339.97 192.668 340.018 192.604 340.048C192.541 340.077 192.47 340.086 192.401 340.073L186.887 338.917C186.843 338.908 186.798 338.908 186.754 338.917L181.24 340.094C181.171 340.106 181.1 340.098 181.036 340.068C180.973 340.039 180.92 339.991 180.885 339.93C180.85 339.869 180.835 339.799 180.842 339.73C180.849 339.66 180.877 339.594 180.922 339.541L184.677 335.347C184.709 335.311 184.734 335.27 184.749 335.224L186.477 329.863C186.499 329.794 186.542 329.734 186.6 329.692C186.658 329.649 186.728 329.626 186.8 329.626C186.872 329.626 186.942 329.649 187 329.692C187.058 329.734 187.101 329.794 187.122 329.863L188.882 335.214C188.897 335.259 188.921 335.301 188.953 335.337Z" fill="#FFFFFE"/>
</svg>
