<svg width="1024" height="1024" viewBox="0 0 1024 1024" fill="none" xmlns="http://www.w3.org/2000/svg">
<rect width="1024" height="1024" fill="white"/>
<path d="M249.193 491.545C244.91 497.894 241.931 504.507 240.254 511.385C232.824 541.819 237.983 575.318 260.5 598.841C266.632 605.249 271.92 605.768 281.07 605.914C297.563 606.184 314.056 606.238 330.549 606.076C367.676 605.708 404.685 605.573 441.575 605.67C441.918 605.675 442.254 605.579 442.542 605.394C442.83 605.21 443.058 604.945 443.198 604.632C447.534 594.974 452.893 585.874 459.274 577.33C459.869 576.529 459.907 575.875 459.388 575.367C459.264 575.244 459.1 575.17 458.925 575.158C458.749 575.146 458.574 575.197 458.43 575.302C452.671 579.487 446.62 584.419 440.229 586.804C423.141 593.174 407.627 589.978 393.686 577.216C380.206 564.871 378.437 549.93 382.85 532.54C382.91 532.295 382.906 532.039 382.84 531.796C382.773 531.553 382.645 531.332 382.469 531.154C382.292 530.976 382.073 530.847 381.833 530.78C381.593 530.713 381.34 530.71 381.098 530.771C368.682 533.875 357.224 532.031 346.722 525.239C330.111 514.5 325.52 495.487 330.386 477.61C330.456 477.352 330.455 477.079 330.385 476.821C330.315 476.563 330.177 476.329 329.986 476.143C329.795 475.957 329.558 475.827 329.301 475.765C329.043 475.704 328.773 475.713 328.521 475.793C322.47 477.675 316.338 480.222 309.849 479.378C295.303 477.464 284.185 470.18 276.495 457.527C276.265 457.155 275.899 456.888 275.477 456.785C275.054 456.682 274.61 456.75 274.24 456.975C269.233 459.949 265.48 463.778 262.982 468.461" stroke="#1C293E" stroke-width="2"/>
<path d="M637.147 240.182C635.359 240.107 633.604 239.668 631.982 238.891C630.36 238.114 628.902 237.014 627.693 235.653C626.483 234.292 625.546 232.697 624.933 230.959C624.321 229.222 624.045 227.376 624.123 225.526C624.279 221.79 625.864 218.268 628.528 215.734C631.192 213.199 634.717 211.86 638.328 212.012C640.116 212.087 641.871 212.525 643.493 213.302C645.115 214.079 646.573 215.18 647.782 216.541C648.992 217.901 649.929 219.496 650.542 221.234C651.155 222.971 651.43 224.818 651.352 226.667C651.196 230.403 649.611 233.925 646.947 236.46C644.283 238.994 640.758 240.333 637.147 240.182Z" fill="#010818"/>
<path d="M249.192 491.546C244.91 497.894 241.93 504.507 240.254 511.386C232.824 541.819 237.983 575.319 260.499 598.841C266.631 605.249 271.92 605.768 281.069 605.914C297.562 606.185 314.055 606.239 330.548 606.076C367.676 605.709 404.685 605.573 441.575 605.671C441.917 605.675 442.253 605.579 442.541 605.395C442.83 605.21 443.058 604.945 443.197 604.632C447.534 594.975 452.893 585.874 459.274 577.33C459.868 576.53 459.906 575.875 459.387 575.367C459.264 575.244 459.1 575.17 458.924 575.158C458.749 575.147 458.574 575.198 458.43 575.302C452.671 579.488 446.62 584.419 440.228 586.804C423.141 593.174 407.627 589.978 393.686 577.217C380.205 564.871 378.437 549.93 382.849 532.54C382.909 532.295 382.906 532.039 382.839 531.796C382.772 531.554 382.645 531.332 382.468 531.154C382.292 530.976 382.073 530.848 381.833 530.78C381.592 530.713 381.339 530.71 381.097 530.772C368.682 533.875 357.223 532.032 346.722 525.24C330.11 514.5 325.519 495.488 330.386 477.61C330.455 477.352 330.455 477.08 330.385 476.821C330.314 476.563 330.176 476.329 329.985 476.143C329.795 475.957 329.558 475.827 329.3 475.765C329.042 475.704 328.773 475.714 328.52 475.793C322.469 477.675 316.337 480.222 309.848 479.379C295.302 477.464 284.184 470.18 276.495 457.527C276.265 457.155 275.899 456.888 275.476 456.785C275.054 456.682 274.609 456.75 274.24 456.975C269.232 459.95 265.48 463.778 262.981 468.461C261.619 467.726 260.197 466.855 258.715 465.849C254.822 463.189 249.793 461.647 246.662 458.63C231.818 444.387 255.097 428.748 266.826 422.422C267.324 422.151 267.621 421.735 267.718 421.172C270.882 402.809 276.251 387.705 287.721 372.829C300.774 355.904 316.786 342.515 335.756 332.662C336.253 332.403 336.567 331.997 336.696 331.446C342.439 307.875 352.01 287.775 368.444 269.849C401.375 233.9 444.479 216.899 493.179 216.347C554.548 215.633 612.836 254.973 635.628 311.865C635.878 312.486 636.274 313.036 636.783 313.468C637.292 313.901 637.898 314.203 638.548 314.347C686.778 325.184 730.984 357.126 749.51 404.155C751.441 409.022 752.511 414.521 753.679 419.68C753.828 420.318 754.108 420.918 754.502 421.44C754.896 421.963 755.395 422.397 755.967 422.714C803.304 449.026 830.574 500.468 824.312 554.343C819.105 599.247 792.11 639.414 750.305 658.264C737.013 664.266 723.495 667.397 709.749 667.657C689.179 668.057 668.895 668.198 648.898 668.079C647.838 668.068 647.314 668.592 647.325 669.652L647.503 752.452C647.503 752.87 647.665 753.271 647.956 753.571C648.247 753.871 648.643 754.045 649.06 754.058L659.784 754.35C660.346 754.361 660.838 754.182 661.26 753.815C663.742 751.576 666.094 748.753 668.69 747.082C687.962 734.721 713.22 742.897 721.526 764.521C731.098 789.439 708.938 817.309 681.392 810.658C667.592 807.338 658.486 798.356 654.073 783.713C653.911 783.172 653.549 782.907 652.986 782.918C635.693 783.372 619.925 786.73 619.876 763.597C619.801 732.168 619.736 700.74 619.682 669.312C619.671 668.609 619.314 668.257 618.611 668.257L570.43 668.192C569.857 668.192 569.424 668.441 569.132 668.938C559.41 685.442 545.199 695.949 526.5 700.459C525.905 700.61 525.607 700.994 525.607 701.611L525.575 740.593C525.575 741.21 525.84 741.68 526.37 742.005C531.918 745.346 536.19 748.856 539.185 752.533C553.121 769.68 549.535 794.176 530.717 806.181C515.533 815.882 496.358 813.14 484.143 800.292C467.06 782.301 473.452 753.052 495.823 742.881C496.089 742.759 496.315 742.565 496.473 742.32C496.631 742.076 496.715 741.792 496.715 741.502L497.137 702.276C497.143 701.966 497.039 701.663 496.844 701.421C496.648 701.178 496.373 701.01 496.066 700.946C483.629 698.458 472.771 693.007 463.491 684.593C458.722 680.246 454.423 674.146 450.319 668.598C449.973 668.144 449.518 667.916 448.956 667.916L402.722 668.046C401.424 668.057 400.759 668.706 400.727 669.993C399.802 699.956 400.564 730.259 400.564 760.271C400.564 767.571 399.753 772.649 398.131 775.504C393.443 783.696 386.11 782.723 376.182 782.723C366.535 782.723 356.893 782.745 347.257 782.788C346.684 782.788 346.338 783.064 346.219 783.615C338.903 817.098 294.275 822.241 280.047 790.948C273.277 776.023 276.262 762.542 289.002 750.505C299.141 740.934 317.051 738.76 329.559 745.46C333.079 747.342 336.632 750.603 340.071 753.441C340.503 753.798 341.001 753.977 341.563 753.977L371.834 754.009C373.121 754.009 373.765 753.366 373.765 752.079L373.457 669.149C373.452 668.855 373.332 668.575 373.123 668.368C372.914 668.162 372.631 668.046 372.337 668.046C360.008 668.003 347.56 668.014 334.993 668.079C319.895 668.165 309.118 667.652 302.662 666.538C238.972 655.571 195.09 593.553 199.276 530.82C200.784 508.303 206.446 483.077 222.036 466.011C222.264 465.762 222.541 465.561 222.849 465.422C223.157 465.282 223.49 465.207 223.828 465.201C224.165 465.195 224.499 465.258 224.811 465.386C225.122 465.514 225.403 465.705 225.637 465.946C229.368 469.807 233.067 473.636 236.733 477.432C240.984 481.828 243.174 487.782 249.192 491.546Z" fill="#010818"/>
<path d="M726.49 265.793C726.458 270.487 726.431 275.18 726.409 279.874C726.377 293.712 705.936 295.334 705.66 279.696C705.574 274.948 705.579 270.27 705.677 265.663C705.679 265.552 705.659 265.441 705.617 265.338C705.575 265.234 705.513 265.141 705.434 265.062C705.356 264.983 705.262 264.921 705.158 264.879C705.055 264.838 704.944 264.817 704.833 264.82C698.377 264.901 688.448 266.523 683.419 263.262C677.628 259.499 678.163 249.36 683.971 245.401C688.448 242.352 698.863 243.682 704.346 243.779C704.527 243.784 704.706 243.751 704.873 243.683C705.04 243.616 705.192 243.514 705.32 243.385C705.447 243.256 705.547 243.102 705.614 242.933C705.681 242.764 705.713 242.582 705.709 242.4C705.612 237.063 704.59 226.94 707.072 222.252C711.273 214.287 721.753 215.081 725.663 222.787C727.95 227.281 726.733 237.647 726.766 242.871C726.766 243.455 727.063 243.752 727.658 243.763C733.433 243.876 742.291 242.757 747.044 244.866C753.501 247.737 754.912 255.735 750.532 260.991C745.86 266.62 735.396 264.56 727.35 264.917C726.788 264.939 726.501 265.231 726.49 265.793Z" fill="#010818"/>
<path d="M242.006 247.721C242.006 251.697 240.427 255.509 237.616 258.321C234.805 261.132 230.992 262.711 227.017 262.711C223.041 262.711 219.229 261.132 216.417 258.321C213.606 255.509 212.027 251.697 212.027 247.721C212.027 243.746 213.606 239.933 216.417 237.122C219.229 234.311 223.041 232.732 227.017 232.732C230.992 232.732 234.805 234.311 237.616 237.122C240.427 239.933 242.006 243.746 242.006 247.721Z" fill="#010818"/>
<path d="M809.711 247.576C809.711 251.543 808.135 255.347 805.33 258.152C802.525 260.957 798.721 262.533 794.754 262.533C790.787 262.533 786.983 260.957 784.178 258.152C781.373 255.347 779.797 251.543 779.797 247.576C779.797 245.612 780.184 243.667 780.935 241.852C781.687 240.037 782.789 238.388 784.178 236.999C785.567 235.611 787.216 234.509 789.03 233.757C790.845 233.005 792.79 232.619 794.754 232.619C796.718 232.619 798.663 233.005 800.478 233.757C802.293 234.509 803.941 235.611 805.33 236.999C806.719 238.388 807.821 240.037 808.573 241.852C809.324 243.667 809.711 245.612 809.711 247.576Z" fill="#010818"/>
<path d="M329.899 257.568C329.899 260.959 328.552 264.21 326.155 266.607C323.757 269.005 320.506 270.351 317.115 270.351C313.725 270.351 310.474 269.005 308.076 266.607C305.679 264.21 304.332 260.959 304.332 257.568C304.332 254.178 305.679 250.926 308.076 248.529C310.474 246.132 313.725 244.785 317.115 244.785C320.506 244.785 323.757 246.132 326.155 248.529C328.552 250.926 329.899 254.178 329.899 257.568Z" fill="#010818"/>
<path d="M274.532 318.11C274.045 325.037 275.976 335.679 272.747 340.789C267.702 348.819 254.4 345.835 254.205 336.198C254.075 330.12 253.946 324.042 253.816 317.964C253.805 317.391 253.518 317.104 252.956 317.104C247.246 317.088 237.577 318.272 232.743 316.001C224.323 312.027 226.805 296.94 236.247 296.68C242 296.507 247.662 296.469 253.232 296.567C253.37 296.569 253.508 296.544 253.637 296.493C253.765 296.442 253.883 296.366 253.982 296.269C254.082 296.173 254.161 296.058 254.216 295.931C254.271 295.804 254.3 295.667 254.302 295.529C254.384 287.531 252.21 276.743 258.78 271.13C263.16 267.366 269.811 268.567 272.715 273.19C275.878 278.203 274.678 289.429 274.662 295.691C274.662 295.803 274.684 295.914 274.727 296.017C274.771 296.121 274.834 296.215 274.914 296.293C274.995 296.372 275.089 296.433 275.194 296.475C275.298 296.516 275.409 296.536 275.521 296.534C281.345 296.437 292.458 295.058 297.065 298.432C305.176 304.402 302.289 316.812 291.987 317.218C286.482 317.423 280.967 317.445 275.44 317.283C274.878 317.261 274.575 317.537 274.532 318.11Z" fill="#010818"/>
<path d="M781.582 334.577C780.404 334.556 779.841 335.134 779.895 336.313C780.187 342.267 781.177 351.205 778.776 356.137C775.677 362.545 765.36 363.632 761.321 358.002C757.817 353.152 759.406 342.591 759.439 336.248C759.439 335.913 759.305 335.591 759.068 335.353C758.831 335.116 758.509 334.983 758.173 334.983C752.836 334.966 744.319 335.972 739.712 333.799C728.584 328.526 732.217 313.115 744.579 313.017C749.24 312.974 753.82 312.99 758.319 313.066C758.45 313.068 758.58 313.044 758.701 312.995C758.822 312.946 758.932 312.873 759.024 312.781C759.116 312.689 759.189 312.579 759.238 312.458C759.287 312.337 759.311 312.207 759.309 312.077C759.179 306.301 758.027 297.233 760.996 292.496C764.403 287.094 771.46 286.007 776.489 289.965C782.085 294.362 780.122 305.863 779.83 312.109C779.822 312.278 779.847 312.448 779.906 312.607C779.965 312.766 780.056 312.912 780.173 313.035C780.289 313.157 780.43 313.255 780.586 313.322C780.742 313.389 780.91 313.423 781.08 313.423C787.147 313.391 798.032 311.947 802.866 315.37C808.479 319.36 808.285 328.688 802.753 332.517C797.756 335.956 787.65 334.642 781.582 334.577Z" fill="#010818"/>
<path d="M240.042 391.193C240.042 395.074 238.501 398.795 235.757 401.54C233.012 404.284 229.291 405.825 225.41 405.825C221.529 405.825 217.807 404.284 215.063 401.54C212.319 398.795 210.777 395.074 210.777 391.193C210.777 387.312 212.319 383.59 215.063 380.846C217.807 378.102 221.529 376.56 225.41 376.56C229.291 376.56 233.012 378.102 235.757 380.846C238.501 383.59 240.042 387.312 240.042 391.193Z" fill="#010818"/>
<path d="M812.162 390.982C812.162 394.768 810.658 398.399 807.98 401.076C805.303 403.754 801.672 405.258 797.886 405.258C794.1 405.258 790.469 403.754 787.791 401.076C785.114 398.399 783.61 394.768 783.61 390.982C783.61 387.196 785.114 383.565 787.791 380.887C790.469 378.21 794.1 376.706 797.886 376.706C801.672 376.706 805.303 378.21 807.98 380.887C810.658 383.565 812.162 387.196 812.162 390.982Z" fill="#010818"/>
<path d="M249.193 491.545C262.203 492.535 271.255 479.395 262.982 468.461C265.48 463.778 269.233 459.949 274.24 456.975C274.61 456.75 275.054 456.682 275.477 456.785C275.899 456.888 276.265 457.155 276.495 457.527C284.185 470.18 295.303 477.464 309.849 479.378C316.338 480.222 322.47 477.675 328.521 475.793C328.773 475.713 329.043 475.704 329.301 475.765C329.558 475.827 329.795 475.957 329.986 476.143C330.177 476.329 330.315 476.563 330.385 476.821C330.455 477.079 330.456 477.352 330.386 477.61C325.52 495.487 330.111 514.5 346.722 525.239C357.224 532.031 368.682 533.875 381.098 530.771C381.34 530.71 381.593 530.713 381.833 530.78C382.073 530.847 382.292 530.976 382.469 531.154C382.645 531.332 382.773 531.553 382.84 531.796C382.906 532.039 382.91 532.295 382.85 532.54C378.437 549.93 380.206 564.871 393.686 577.216C407.627 589.978 423.141 593.174 440.229 586.804C446.62 584.419 452.671 579.487 458.43 575.302C458.574 575.197 458.749 575.146 458.925 575.158C459.1 575.17 459.264 575.244 459.388 575.367C459.907 575.875 459.869 576.529 459.274 577.33C452.893 585.874 447.534 594.974 443.198 604.632C443.058 604.945 442.83 605.21 442.542 605.394C442.254 605.579 441.918 605.675 441.575 605.67C404.685 605.573 367.676 605.708 330.549 606.076C314.056 606.238 297.563 606.184 281.07 605.914C271.92 605.768 266.632 605.249 260.5 598.841C237.983 575.318 232.824 541.819 240.254 511.385C241.931 504.507 244.91 497.894 249.193 491.545Z" fill="#374A63"/>
<path d="M282.01 708.976C282.01 713.859 280.07 718.543 276.617 721.996C273.164 725.449 268.481 727.389 263.598 727.389C258.714 727.389 254.031 725.449 250.578 721.996C247.125 718.543 245.185 713.859 245.185 708.976C245.185 704.093 247.125 699.409 250.578 695.956C254.031 692.503 258.714 690.563 263.598 690.563C268.481 690.563 273.164 692.503 276.617 695.956C280.07 699.409 282.01 704.093 282.01 708.976Z" fill="#010818"/>
<path d="M765.302 726.904C760.572 727.73 755.703 726.617 751.767 723.811C747.831 721.005 745.15 716.736 744.313 711.942C743.476 707.149 744.553 702.224 747.306 698.25C750.059 694.277 754.263 691.581 758.993 690.755C763.723 689.93 768.592 691.042 772.528 693.848C776.464 696.654 779.146 700.924 779.982 705.717C780.819 710.511 779.742 715.436 776.989 719.409C774.236 723.383 770.032 726.079 765.302 726.904Z" fill="#010818"/>
<path d="M345.326 706.201C345.326 708.035 344.964 709.851 344.263 711.546C343.561 713.241 342.532 714.781 341.235 716.078C339.938 717.375 338.398 718.403 336.703 719.105C335.009 719.807 333.192 720.169 331.358 720.169C329.524 720.169 327.708 719.807 326.013 719.105C324.318 718.403 322.779 717.375 321.482 716.078C320.185 714.781 319.156 713.241 318.454 711.546C317.752 709.851 317.391 708.035 317.391 706.201C317.391 702.497 318.862 698.944 321.482 696.324C324.101 693.705 327.654 692.233 331.358 692.233C335.063 692.233 338.615 693.705 341.235 696.324C343.854 698.944 345.326 702.497 345.326 706.201Z" fill="#010818"/>
<path d="M707.803 705.926C707.803 709.536 706.369 712.998 703.816 715.55C701.264 718.103 697.802 719.537 694.192 719.537C690.582 719.537 687.121 718.103 684.568 715.55C682.016 712.998 680.582 709.536 680.582 705.926C680.582 702.316 682.016 698.854 684.568 696.302C687.121 693.749 690.582 692.315 694.192 692.315C697.802 692.315 701.264 693.749 703.816 696.302C706.369 698.854 707.803 702.316 707.803 705.926Z" fill="#010818"/>
<path d="M759.607 789.584C756.652 789.559 753.828 788.254 751.758 785.957C749.688 783.66 748.541 780.559 748.569 777.337C748.597 774.114 749.798 771.034 751.908 768.774C754.018 766.514 756.864 765.258 759.82 765.284C762.775 765.31 765.599 766.615 767.669 768.912C769.739 771.209 770.886 774.309 770.858 777.532C770.83 780.754 769.629 783.834 767.519 786.094C765.409 788.355 762.563 789.61 759.607 789.584Z" fill="#010818"/>
<path d="M242.087 789.241C240.605 789.462 239.093 789.373 237.635 788.977C236.176 788.582 234.802 787.889 233.589 786.937C232.376 785.985 231.348 784.793 230.565 783.429C229.782 782.066 229.258 780.557 229.024 778.99C228.789 777.422 228.849 775.826 229.199 774.293C229.55 772.76 230.184 771.32 231.066 770.055C231.947 768.79 233.059 767.725 234.338 766.921C235.617 766.116 237.037 765.588 238.519 765.367C240 765.146 241.513 765.235 242.971 765.631C244.429 766.026 245.804 766.719 247.017 767.671C248.23 768.623 249.257 769.815 250.041 771.179C250.824 772.542 251.348 774.051 251.582 775.618C251.816 777.186 251.756 778.782 251.406 780.315C251.056 781.848 250.421 783.288 249.54 784.553C248.658 785.818 247.546 786.883 246.267 787.687C244.988 788.492 243.568 789.02 242.087 789.241Z" fill="#010818"/>
<path d="M394.724 328.963C391.631 324.658 391.42 320.019 394.092 315.044C396.33 310.88 399.396 307.035 403.29 303.51C422.156 286.379 451.519 271.486 477.637 272.833C484.759 273.206 489.009 271.957 491.946 265.581C494.736 259.563 487.955 255.231 483.088 254.031" stroke="#9BA5B1" stroke-width="2"/>
<path d="M697.273 397.033C693.369 404.074 688.951 409.963 684.02 414.7C682.094 416.549 677.72 420.269 670.896 425.861" stroke="#D0DDEA" stroke-width="2"/>
<path d="M643.528 458.824C638.207 470.569 627.776 478.908 618.464 487.295" stroke="#D0DDEA" stroke-width="2"/>
<path d="M584.007 514.256C582.244 519.934 579.924 524.633 577.048 528.354C572.116 534.735 566.298 540.055 559.592 544.317" stroke="#D0DDEA" stroke-width="2"/>
<path d="M394.724 328.963C391.631 324.659 391.42 320.019 394.092 315.044C396.33 310.88 399.396 307.035 403.29 303.51C422.156 286.379 451.519 271.487 477.637 272.833C484.759 273.206 489.009 271.957 491.946 265.582C494.736 259.563 487.955 255.232 483.088 254.031C486.608 252.896 489.561 251.955 493.373 252.149C507.833 252.885 521.676 256.194 534.903 262.078C542.738 265.565 556.024 273.417 554.889 283.086C554.175 289.185 548.205 290.337 542.56 290.386C513.083 290.613 483.039 288.585 453.45 295.269C438.963 298.546 402.041 310.567 398.196 326.108C397.958 327.092 397.569 327.746 397.028 328.071C396.455 328.417 395.687 328.714 394.724 328.963Z" fill="#374A63"/>
<path d="M483.088 254.032C487.955 255.232 494.736 259.564 491.946 265.582C489.009 271.958 484.759 273.207 477.638 272.834C451.519 271.487 422.157 286.379 403.29 303.51C399.396 307.036 396.33 310.881 394.092 315.045C391.42 320.019 391.631 324.659 394.724 328.963C398.342 335.095 404.555 341.228 412.131 341.438C414.024 341.503 417.463 340.671 422.449 338.94C457.089 326.925 492.833 322.388 529.679 325.33C553.234 327.211 576.178 332.008 598.511 339.719C624.024 348.522 645.816 358.705 663.888 370.266C672.389 375.695 683.517 384.617 697.274 397.033C693.37 404.074 688.952 409.962 684.02 414.699C682.095 416.549 677.72 420.269 670.896 425.86C662.039 418.804 652.922 411.163 644.291 405.339C599.533 375.149 543.014 359.835 488.718 365.269C430.073 371.142 375.452 395.93 336.859 440.558C331.327 446.982 326.639 450.502 318.414 449.286C309.686 448.004 303.408 441.109 301.559 432.576C297.535 414.164 339.909 381.67 353.454 372.521C359.284 368.595 368.087 363.209 379.865 356.363C391.447 349.647 377.707 337.123 370.472 334.625C369.942 334.441 369.644 334.068 369.58 333.506C368.168 320.982 375.485 307.047 383.709 297.719C403.679 275.105 432.409 261.267 462.356 255.832C470.402 254.383 477.313 253.783 483.088 254.032Z" fill="white"/>
<path d="M697.273 397.033C703.741 402.992 709.413 409.844 714.291 417.587C717.048 421.978 718.514 425.796 718.687 429.04C719.174 438.287 712.831 446.82 703.357 448.134C697.079 448.994 692.196 448.653 687.816 443.705C682.051 437.216 676.411 431.268 670.896 425.861C677.72 420.269 682.094 416.549 684.02 414.7C688.951 409.963 693.369 404.074 697.273 397.033Z" fill="#A1BBD5"/>
<path d="M643.528 458.824C638.207 470.569 627.776 478.907 618.465 487.294C563.714 443.639 488.149 435.463 426.553 469.514C411.011 478.112 399.558 489.646 386.97 500.986C382.687 504.847 372.288 502.787 367.73 499.721C357.834 493.102 356.699 481.081 364.21 471.672C368.568 466.21 373.408 461.176 378.729 456.569C453.725 391.549 569.521 392.571 643.528 458.824Z" fill="white"/>
<path d="M761.353 473.798C767.42 482.817 771.438 493.735 773.406 506.551C779.197 544.333 766.317 585.814 728.843 601.566C720.375 605.135 711.809 605.995 701.589 605.962C661.39 605.8 620.736 605.881 579.628 606.205C578.944 606.21 578.278 605.99 577.732 605.579C577.187 605.168 576.793 604.59 576.611 603.934C573.788 593.974 567.299 586.576 561.589 577.946C561.463 577.755 561.403 577.528 561.418 577.3C561.433 577.071 561.521 576.854 561.67 576.681C562.384 575.869 563.314 575.918 564.46 576.827C584.901 592.936 612.154 595.466 629.334 573.014C638.613 560.901 641.079 547.264 636.731 532.101C636.655 531.835 636.652 531.553 636.723 531.285C636.794 531.017 636.935 530.773 637.133 530.579C637.33 530.384 637.577 530.247 637.846 530.181C638.115 530.115 638.397 530.122 638.662 530.203C650.526 533.848 661.146 532.891 670.523 527.332C688.222 516.82 694.808 497.466 689.406 477.399C689.336 477.129 689.342 476.845 689.423 476.579C689.503 476.312 689.655 476.073 689.862 475.888C690.069 475.703 690.322 475.58 690.594 475.531C690.865 475.483 691.145 475.512 691.401 475.614C707.51 481.974 723.343 479.719 735.153 467.763C738.252 464.632 740.928 459.911 743.67 456.034C743.792 455.857 743.949 455.707 744.13 455.592C744.312 455.476 744.515 455.398 744.728 455.362C744.94 455.326 745.159 455.332 745.37 455.381C745.581 455.429 745.781 455.519 745.957 455.645C752.43 460.268 756.405 466.449 761.353 473.798Z" fill="#374A63"/>
<path d="M643.528 458.824C653.066 465.67 665.752 479.508 659.085 492.291C653.002 503.988 636.455 505.772 627.646 496.185C624.542 492.799 621.481 489.836 618.464 487.295C627.776 478.908 638.207 470.569 643.528 458.824Z" fill="#A1BBD5"/>
<path d="M584.008 514.257C582.245 519.935 579.925 524.634 577.048 528.354C572.117 534.735 566.298 540.056 559.593 544.317C520.253 524.023 473.76 527.543 441.509 558.739C440.082 560.123 437.394 560.858 433.447 560.945C413.574 561.432 406.42 540.294 419.998 526.602C462.874 483.385 534.902 480.903 584.008 514.257Z" fill="white"/>
<path d="M584.007 514.256C590.356 518.052 596.655 523.649 602.906 531.047C613.727 543.862 603.653 558.479 589.263 560.653C585.824 561.172 582.785 560.49 580.146 558.609C572.846 553.407 565.995 548.643 559.592 544.317C566.298 540.055 572.116 534.735 577.048 528.354C579.924 524.633 582.244 519.934 584.007 514.256Z" fill="#A1BBD5"/>
<path d="M503.926 663.236C499.471 662.394 495.228 660.672 491.439 658.166C487.65 655.66 484.389 652.421 481.843 648.633C479.296 644.845 477.514 640.583 476.597 636.089C475.681 631.595 475.648 626.958 476.502 622.443C478.225 613.324 483.451 605.254 491.031 600.007C498.611 594.761 507.923 592.769 516.92 594.469C521.374 595.311 525.617 597.033 529.406 599.539C533.195 602.044 536.456 605.284 539.003 609.072C541.549 612.86 543.332 617.122 544.248 621.616C545.165 626.11 545.197 630.747 544.344 635.262C542.621 644.381 537.395 652.451 529.815 657.698C522.235 662.944 512.923 664.936 503.926 663.236Z" fill="white"/>
<path d="M699.82 775.778C699.82 777.805 699.015 779.748 697.582 781.181C696.15 782.614 694.206 783.419 692.18 783.419C690.153 783.419 688.21 782.614 686.777 781.181C685.344 779.748 684.539 777.805 684.539 775.778C684.539 773.752 685.344 771.809 686.777 770.376C688.21 768.943 690.153 768.138 692.18 768.138C694.206 768.138 696.15 768.943 697.582 770.376C699.015 771.809 699.82 773.752 699.82 775.778Z" fill="#374A63"/>
<path d="M314.491 771.093C315.088 771.865 315.514 772.757 315.744 773.718C315.975 774.679 316.006 775.69 315.835 776.694C315.665 777.697 315.296 778.674 314.751 779.568C314.205 780.461 313.493 781.254 312.655 781.902C311.818 782.549 310.871 783.039 309.868 783.341C308.866 783.644 307.828 783.755 306.814 783.667C305.799 783.578 304.829 783.294 303.957 782.828C303.085 782.363 302.329 781.726 301.732 780.954C301.136 780.182 300.71 779.29 300.479 778.329C300.249 777.368 300.218 776.356 300.388 775.353C300.559 774.349 300.927 773.372 301.473 772.479C302.018 771.585 302.73 770.792 303.568 770.145C304.406 769.497 305.353 769.008 306.355 768.705C307.358 768.402 308.396 768.292 309.41 768.38C310.424 768.468 311.395 768.753 312.267 769.218C313.139 769.684 313.894 770.321 314.491 771.093Z" fill="#374A63"/>
</svg>
