<svg width="1024" height="1024" viewBox="0 0 1024 1024" fill="none" xmlns="http://www.w3.org/2000/svg">
<rect width="1024" height="1024" fill="white"/>
<path d="M673.41 555.136C672.472 565.719 668.546 574.579 661.631 581.718C622.605 621.976 583.635 662.283 544.721 702.639C509.53 739.132 467.557 757.336 415.905 750.659C369.019 744.591 330.952 714.481 312.685 671.837C300.905 644.331 300.107 614.452 306.91 585.393C307.806 581.557 308.702 577.701 309.598 573.824C309.67 573.512 309.632 573.184 309.491 572.897C309.349 572.61 309.113 572.381 308.821 572.249C283.142 560.701 260.654 531.179 255.741 503.925C248.798 465.389 257.806 431.892 282.764 403.434C288.293 397.135 295.145 392.061 303.32 388.211C306.945 386.504 309.794 384.726 311.866 382.878C317.976 377.377 320.495 374.123 329.587 369.587C345.671 361.566 362.713 357.549 380.714 357.535C415.709 357.521 451.376 357.563 487.714 357.661C488.294 357.66 488.86 357.478 489.331 357.139C489.802 356.8 490.154 356.321 490.339 355.771C492.523 349.01 496.309 343.033 501.698 337.84C517.138 322.946 532.367 307.843 547.387 292.529C555.59 284.158 561.917 278.853 566.368 276.613C579.596 269.936 596.835 270.461 609.685 278.293C612.932 280.267 617.524 284.382 623.459 290.639C644.141 312.434 667.258 335.194 686.428 354.994C709.973 379.281 733.678 403.427 757.544 427.434C781.082 451.118 770.499 474.571 750.594 494.896C735.918 509.909 722.207 526.161 707.194 540.711C698.193 549.446 687.366 553.855 674.712 553.939C673.914 553.953 673.48 554.352 673.41 555.136Z" fill="#010112"/>
<path d="M597.57 316.486C591.075 322.002 584.88 327.587 578.987 333.242C563.758 347.87 548.689 362.77 533.781 377.944" stroke="#FFB6B2" stroke-width="2"/>
<path d="M520.28 417.019C519.37 419.077 516.809 418.314 512.595 414.731C512.022 414.255 511.357 413.982 510.601 413.912C471.568 410.573 432.241 412.001 371.266 412.148C365.387 412.162 361.145 414.633 358.542 419.56C358.206 420.19 358.129 420.855 358.311 421.555C360.62 431.045 361.418 439.276 350.248 442.488C346.329 443.622 341.905 442.768 336.978 439.927" stroke="#FFB6B2" stroke-width="2"/>
<path d="M610.336 509.972C593.426 525.482 577.042 541.474 561.182 557.95C538.422 581.592 514.968 604.521 492.187 628.163C472.869 648.236 451.768 666.168 425.879 673.055C406.855 678.136 380.462 677.044 362.888 665.454C360.102 663.62 357.086 662.717 353.838 662.745" stroke="#EA645F" stroke-width="2"/>
<path d="M342.29 609.749C347.581 610.946 358.982 611.009 360.41 604.248C363.07 591.622 367.185 579.563 372.756 568.07C386.383 539.977 413.238 518.329 435.915 497.71C448.492 486.288 450.781 464.346 431.338 458.278C424.815 456.234 418.355 457.2 411.958 461.175" stroke="#FFB6B2" stroke-width="2"/>
<path d="M597.57 316.487C591.075 322.002 584.881 327.587 578.988 333.242C563.758 347.87 548.689 362.771 533.782 377.944C527.965 372.212 526.517 365.115 532.123 358.354C545.435 342.376 562.358 327.72 577.665 313.589C584.069 307.689 592.132 311.93 597.57 316.487Z" fill="white"/>
<path d="M597.57 316.486C604.821 321.484 604.925 327.251 597.885 333.788C579.715 350.683 564.668 365.899 552.741 379.435C550.922 381.507 548.143 383.165 544.406 384.411C543.748 384.621 543.097 384.593 542.453 384.327C538.73 382.703 535.839 380.576 533.781 377.944C548.689 362.77 563.758 347.87 578.987 333.242C584.88 327.587 591.075 322.002 597.57 316.486Z" fill="#FF6D65"/>
<path d="M633.205 355.587L631.601 353.983C627.985 350.367 622.122 350.367 618.506 353.983L569.452 403.038C565.836 406.654 565.836 412.517 569.452 416.133L571.055 417.736C574.671 421.352 580.534 421.352 584.15 417.736L633.205 368.682C636.821 365.066 636.821 359.203 633.205 355.587Z" fill="#FF6D65"/>
<path d="M652.923 390.297L605.344 437.38C601.239 441.442 601.204 448.063 605.266 452.168L605.621 452.526C609.683 456.631 616.303 456.665 620.408 452.603L667.987 405.52C672.092 401.458 672.127 394.837 668.065 390.732L667.71 390.374C663.648 386.269 657.028 386.235 652.923 390.297Z" fill="#FF6D65"/>
<path d="M520.28 417.019C519.37 419.077 516.809 418.314 512.596 414.731C512.022 414.255 511.357 413.982 510.601 413.912C471.568 410.573 432.241 412.001 371.266 412.148C365.387 412.162 361.145 414.633 358.542 419.56C358.206 420.19 358.129 420.855 358.311 421.555C360.62 431.045 361.418 439.276 350.248 442.489C346.329 443.622 341.905 442.768 336.978 439.927C327.928 426.51 338.406 410.006 349.912 402.322C357.569 397.212 366.787 394.665 377.565 394.679C416.241 394.749 454.91 394.819 493.572 394.889C496.484 394.889 498.85 395.47 500.669 396.631C504.295 398.927 510.832 405.723 520.28 417.019Z" fill="white"/>
<path d="M520.28 417.019L610.336 509.972C593.426 525.482 577.042 541.475 561.182 557.95C538.422 581.592 514.968 604.521 492.187 628.163C472.87 648.236 451.768 666.168 425.879 673.055C406.855 678.136 380.462 677.044 362.888 665.454C360.103 663.62 357.086 662.717 353.838 662.745C344.95 646.074 341.1 628.408 342.29 609.749C347.581 610.946 358.983 611.009 360.41 604.248C363.07 591.622 367.185 579.563 372.757 568.071C386.384 539.977 413.239 518.329 435.915 497.71C448.492 486.288 450.781 464.346 431.338 458.278C424.815 456.234 418.355 457.2 411.958 461.176C398.464 461.554 384.55 461.728 370.216 461.7C355.77 461.679 340.38 455.359 336.978 439.927C341.905 442.768 346.329 443.622 350.248 442.488C361.418 439.276 360.62 431.045 358.311 421.555C358.129 420.855 358.206 420.19 358.542 419.56C361.145 414.633 365.387 412.162 371.266 412.148C432.241 412.001 471.568 410.573 510.601 413.912C511.357 413.982 512.022 414.255 512.596 414.731C516.809 418.314 519.37 419.077 520.28 417.019Z" fill="#FF6D65"/>
<path d="M639.941 488.996L638.052 487.296C637.279 486.61 636.655 485.774 636.217 484.839C635.779 483.903 635.537 482.889 635.505 481.856C635.474 480.824 635.654 479.796 636.034 478.836C636.414 477.876 636.986 477.003 637.716 476.272L687.184 426.783C691.062 422.905 695.212 422.597 699.635 425.859L702.092 427.665C706.431 430.87 706.725 434.412 702.974 438.289L654.45 488.429C652.565 490.373 650.006 491.516 647.304 491.622C644.601 491.727 641.964 490.787 639.941 488.996Z" fill="#FF6D65"/>
<path d="M298.595 458.341C298.987 458.649 299.344 459.195 299.666 459.979C309.619 483.509 327.445 496.898 353.145 500.146C353.359 500.172 353.554 500.282 353.688 500.451C353.821 500.62 353.883 500.835 353.859 501.049C353.817 501.539 353.6 501.959 353.208 502.309C342.304 511.827 333.716 522.962 327.445 535.715C327.308 535.994 327.11 536.24 326.866 536.434C326.622 536.628 326.338 536.765 326.034 536.835C325.731 536.905 325.415 536.907 325.111 536.841C324.807 536.774 324.521 536.64 324.275 536.45C299.645 517.321 287.761 487.947 295.992 457.27C296.03 457.131 296.096 457.001 296.187 456.888C296.277 456.775 296.39 456.682 296.518 456.615C296.646 456.548 296.787 456.509 296.931 456.498C297.076 456.488 297.22 456.508 297.357 456.556C297.763 456.682 298.001 456.976 298.071 457.438C298.127 457.802 298.302 458.103 298.595 458.341Z" fill="#D45B59"/>
<path d="M342.29 609.749C344.789 579.85 358.919 548.543 379.37 527.84C395.902 511.085 406.61 500.796 411.496 496.975C417.669 492.125 423.317 488.051 425.06 480.388C427.103 471.415 422.736 465.011 411.958 461.175C418.355 457.2 424.815 456.234 431.338 458.278C450.781 464.346 448.492 486.288 435.915 497.71C413.238 518.329 386.383 539.977 372.756 568.07C367.185 579.563 363.07 591.622 360.41 604.248C358.982 611.009 347.581 610.946 342.29 609.749Z" fill="white"/>
<path d="M727.204 471.422L682.9 515.327C682.434 515.791 681.843 516.111 681.2 516.25L674.859 517.594C674.125 517.754 673.359 517.669 672.677 517.353C671.996 517.037 671.436 516.507 671.084 515.843C670.732 515.179 670.607 514.419 670.727 513.677C670.848 512.936 671.207 512.254 671.751 511.736L725.797 459.601C726.38 459.033 727.146 458.691 727.958 458.634C728.77 458.577 729.575 458.809 730.232 459.29C730.889 459.77 731.354 460.468 731.546 461.259C731.737 462.05 731.642 462.884 731.277 463.611L727.855 470.519C727.688 470.854 727.468 471.158 727.204 471.422Z" fill="#D45B59"/>
<path d="M610.336 509.972L641.033 541.404C641.313 541.688 641.474 542.068 641.482 542.467C641.49 542.865 641.344 543.252 641.075 543.546C623.858 561.967 606.423 580.235 588.772 598.348C566.2 621.486 544.973 644.646 523.031 667.784C488.533 704.172 445.93 727.289 396.294 704.193C377.663 695.528 363.511 681.712 353.838 662.745C357.086 662.717 360.102 663.62 362.888 665.454C380.462 677.044 406.855 678.136 425.878 673.055C451.768 666.168 472.869 648.236 492.187 628.163C514.968 604.521 538.422 581.592 561.182 557.95C577.042 541.474 593.426 525.482 610.336 509.972Z" fill="#D45B59"/>
</svg>
