<svg width="1024" height="1024" viewBox="0 0 1024 1024" fill="none" xmlns="http://www.w3.org/2000/svg">
<rect width="1024" height="1024" fill="white"/>
<path d="M399.997 526.14C400.02 526.087 400.027 526.029 400.018 525.972C400.008 525.915 399.983 525.861 399.944 525.817C399.906 525.772 399.856 525.738 399.799 525.719C399.742 525.7 399.681 525.696 399.622 525.707L347.445 537.81C346.993 537.916 346.671 538.185 346.479 538.618C341.863 549.105 330.726 557.789 318.767 557.602C310.978 557.486 300.995 558.02 294.389 555.842C284.276 552.495 278.694 544.143 275.015 534.463C273.928 531.607 273.371 528.414 273.342 524.885C273.188 509.844 273.097 494.519 273.068 478.911C273.066 478.681 273.11 478.452 273.198 478.239C273.285 478.025 273.415 477.831 273.578 477.668C273.742 477.504 273.936 477.374 274.151 477.285C274.365 477.197 274.595 477.151 274.828 477.151L296.019 477.209C296.156 477.209 296.288 477.154 296.386 477.057C296.483 476.959 296.538 476.827 296.538 476.69L296.697 458.744C296.706 458.273 296.471 458.038 295.99 458.038C273.15 458.182 250.324 458.264 227.512 458.283C223.723 458.292 220.944 457.792 219.175 456.783C212.106 452.772 209.625 443.064 214.63 436.414C217.804 432.182 222.098 430.071 227.512 430.081C277.549 430.139 327.591 430.211 377.638 430.298C381.965 430.298 385.182 430.836 387.288 431.913C397.357 437.063 398.208 450.94 388.384 456.422C386.115 457.682 382.874 458.316 378.662 458.326C361.284 458.355 343.911 458.36 326.543 458.341C326.417 458.341 326.295 458.391 326.206 458.48C326.117 458.569 326.067 458.69 326.067 458.816L326.052 476.776C326.052 476.944 326.119 477.106 326.238 477.225C326.357 477.344 326.519 477.411 326.687 477.411L347.979 477.57C348.248 477.573 348.505 477.683 348.694 477.875C348.883 478.066 348.989 478.325 348.989 478.594L349.104 509.608C349.103 509.73 349.13 509.849 349.182 509.959C349.234 510.068 349.31 510.165 349.404 510.241C349.498 510.317 349.608 510.371 349.726 510.399C349.844 510.427 349.967 510.428 350.085 510.402L410.874 497.116C411.049 497.075 411.213 496.995 411.353 496.883C411.493 496.771 411.605 496.628 411.681 496.467C414.682 490.192 422.616 475.247 421.823 468.669C420.712 459.264 420.769 446.829 422.731 437.885C424.828 428.384 428.309 419.44 433.175 411.054C433.259 410.912 433.308 410.752 433.318 410.588C433.329 410.424 433.301 410.259 433.236 410.108C433.172 409.956 433.073 409.822 432.947 409.716C432.821 409.609 432.672 409.534 432.512 409.496L361.034 392.489C360.543 392.373 360.115 392.493 359.75 392.849C350.474 402.154 339.28 401.879 326.168 401.331C318.215 401.004 312.454 399.937 308.886 398.129C300.433 393.816 293.898 383.155 293.927 373.404C293.946 363.681 293.864 354.203 293.682 344.971C293.662 343.865 294.206 343.312 295.312 343.312L316.892 343.341C317.057 343.341 317.214 343.274 317.331 343.155C317.447 343.036 317.512 342.875 317.512 342.706L317.801 323.535C317.803 323.46 317.79 323.385 317.762 323.315C317.735 323.245 317.694 323.182 317.641 323.128C317.589 323.074 317.526 323.031 317.457 323.002C317.388 322.973 317.313 322.958 317.238 322.958C292.292 323.102 267.317 323.122 242.313 323.016C240.971 323.001 239.183 322.482 237.971 321.66C230.845 316.871 227.844 307.292 233.542 300.31C237.264 295.723 241.851 295.059 248.069 295.045C305.357 294.958 362.645 294.997 419.933 295.16C424.636 295.18 428.175 295.838 430.55 297.137C438.729 301.594 439.724 315.688 431.387 321.011C429.444 322.251 426.597 322.867 422.847 322.857C397.91 322.809 372.959 322.785 347.993 322.785C347.802 322.785 347.619 322.861 347.483 322.996C347.348 323.132 347.272 323.315 347.272 323.506L347.258 341.827C347.258 342.74 347.71 343.202 348.614 343.211L369.127 343.558C369.327 343.561 369.518 343.642 369.658 343.782C369.798 343.923 369.877 344.111 369.877 344.308L369.992 368.34C369.992 368.917 370.276 369.278 370.843 369.422L450.053 388.565C450.255 388.61 450.463 388.609 450.663 388.561C450.863 388.514 451.049 388.421 451.207 388.291C471.912 370.932 495.921 362.777 523.233 363.825C524.397 363.873 525.854 364.08 527.604 364.446C531.254 365.225 534.831 365.282 538.25 366.278C540.318 366.883 542.395 367.451 544.482 367.98C557.479 371.269 571.4 377.472 580.819 387.281C581.646 388.127 582.632 388.411 583.777 388.132C608.627 382.083 633.857 376.183 659.467 370.432C659.697 370.374 660.231 370.36 661.068 370.389C661.366 370.398 661.65 370.365 661.919 370.288C662.458 370.144 662.727 369.793 662.727 369.235L662.813 344.077C662.813 343.888 662.889 343.707 663.024 343.572C663.159 343.437 663.342 343.359 663.535 343.356L683.846 343.327C684.351 343.327 684.835 343.128 685.192 342.773C685.549 342.419 685.75 341.938 685.75 341.437L685.822 323.982C685.822 323.473 685.567 323.218 685.057 323.218C661.121 323.025 637.218 322.987 613.349 323.102C609.117 323.122 605.915 322.501 603.741 321.241C594.927 316.135 595.692 300.83 604.65 296.747C607.064 295.651 611.536 295.098 618.066 295.088C675.181 294.954 732.291 294.978 789.396 295.16C794.474 295.18 798.427 296.593 801.254 299.401C805.456 303.575 806.673 308.36 804.904 313.755C802.581 320.823 797.244 322.785 789.843 322.785C765.368 322.804 740.898 322.876 716.433 323.001C715.856 323.001 715.567 323.29 715.567 323.867L715.481 342.548C715.481 343.192 715.807 343.514 716.461 343.514L737.782 343.442C737.981 343.442 738.172 343.521 738.313 343.662C738.453 343.802 738.532 343.993 738.532 344.192C738.532 362.123 742.268 390.411 721.121 399.153C712.74 402.615 698.43 401.1 688.678 401.028C682.778 400.985 674.628 397.321 671.137 392.489C670.868 392.104 670.507 391.979 670.055 392.113C657.755 395.652 645.349 398.744 632.837 401.389C621.888 403.711 610.002 406.914 598.462 409.107C598.398 409.119 598.338 409.147 598.286 409.187C598.235 409.227 598.193 409.278 598.165 409.337C598.137 409.396 598.123 409.461 598.125 409.526C598.126 409.591 598.143 409.655 598.173 409.712C603.318 419.31 606.987 429.398 609.18 439.977C610.882 448.228 610.579 457.071 610.536 465.972C610.507 475.752 616.364 487.898 620.114 496.871C620.287 497.284 620.59 497.539 621.023 497.635L674.137 509.926C674.209 509.943 674.284 509.944 674.357 509.928C674.429 509.913 674.497 509.881 674.556 509.835C674.614 509.789 674.661 509.73 674.694 509.664C674.726 509.597 674.743 509.524 674.743 509.45L674.642 477.901C674.633 477.382 674.887 477.127 675.407 477.137L696.468 477.223C696.589 477.225 696.709 477.203 696.822 477.159C696.935 477.114 697.038 477.048 697.125 476.963C697.212 476.879 697.282 476.778 697.33 476.667C697.378 476.555 697.404 476.436 697.405 476.315L697.42 459.495C697.42 458.696 697.016 458.302 696.208 458.312C678.763 458.504 661.674 458.446 644.94 458.139C637.857 458.009 633.054 454.734 631.193 448.113C629.188 440.958 633.212 433.861 640.036 431.336C642.055 430.586 645.503 430.206 650.379 430.197C698.675 430.043 746.966 430.081 795.253 430.312C799.177 430.331 802.148 430.85 804.168 431.87C813.992 436.818 814.785 450.363 805.351 456.278C803.485 457.451 800.893 458.042 797.575 458.052C774.447 458.081 751.39 458.095 728.406 458.095C728.184 458.095 727.971 458.182 727.814 458.336C727.657 458.49 727.569 458.699 727.569 458.917L727.656 476.805C727.656 477.103 727.805 477.252 728.103 477.252L749.395 477.18C749.532 477.178 749.669 477.204 749.796 477.255C749.924 477.306 750.04 477.382 750.138 477.479C750.236 477.576 750.314 477.691 750.367 477.818C750.42 477.945 750.448 478.081 750.448 478.219C750.448 488.172 750.477 498.174 750.534 508.223C750.602 520.649 750.404 528.039 749.943 530.395C748.433 538.147 744.649 544.83 738.59 550.447C730.166 558.265 719.563 557.717 708.023 557.602C692.645 557.457 684.48 553.245 677.816 539.051C677.614 538.599 677.296 538.257 676.864 538.026C673.257 536.093 668.699 535.891 665.944 535.185C657.096 532.925 648.234 530.737 639.358 528.621C637.252 528.116 635.391 526.919 633.313 526.241C633.135 526.183 632.944 526.176 632.761 526.219C632.578 526.263 632.412 526.356 632.28 526.488C632.148 526.62 632.056 526.786 632.014 526.966C631.973 527.147 631.983 527.335 632.044 527.51C634.14 533.684 636.17 539.834 638.131 545.96C638.983 548.615 639.372 551.456 640.281 554.053C643.108 562.218 644.681 570.83 647.378 581.735C653.014 604.47 657.712 630.195 661.472 658.911C662.328 665.48 663.612 680.622 665.323 704.337C665.362 704.847 665.636 705.101 666.146 705.101C682.062 705.073 697.963 705.111 713.85 705.217C717.851 705.246 720.731 705.856 722.491 707.049C728.824 711.362 728.204 723.451 721.395 726.768C719.548 727.663 716.009 728.096 710.778 728.067C684.37 727.932 657.962 727.85 631.554 727.821C620.951 727.807 617.171 711.521 625.653 706.356C628.726 704.481 633.472 705.058 637.151 705.101C637.766 705.101 638.059 704.794 638.031 704.178C637.713 697.11 637.482 690.82 636.343 683.333C635.881 680.314 635.4 676.688 634.9 672.457C632.448 651.367 626.49 625.084 621.687 601.57C620.379 595.146 616.633 582.033 610.449 562.232C606.381 549.201 601.645 536.161 596.24 523.111C596.141 522.872 595.976 522.667 595.765 522.518C595.554 522.37 595.305 522.284 595.048 522.27C594.79 522.257 594.533 522.316 594.308 522.442C594.083 522.567 593.897 522.754 593.773 522.981C583.69 541.589 570.981 539.325 552.661 538.387C552.553 538.383 552.446 538.401 552.345 538.439C552.244 538.477 552.153 538.536 552.076 538.61C551.999 538.684 551.938 538.773 551.897 538.871C551.857 538.969 551.837 539.074 551.839 539.18L552.214 563.141C552.219 563.358 552.27 563.571 552.365 563.765C552.46 563.959 552.595 564.13 552.762 564.266C565.485 574.451 576.059 585.399 581.411 601.21C584.104 609.172 585.099 617.717 584.397 626.844C581.988 658.406 558.72 682.886 527.503 687.214C488.497 692.623 455.145 669.73 450.01 630.06C447.5 610.644 452.688 593.122 465.575 577.494C468.537 573.898 473.518 569.541 480.52 564.425C480.923 564.136 481.13 563.742 481.14 563.242L481.573 539.599C481.582 539.031 481.303 538.753 480.736 538.762C474.668 538.849 468.643 538.902 462.661 538.921C450.919 538.95 442.667 532.574 438.08 522C438.023 521.87 437.93 521.759 437.812 521.681C437.694 521.603 437.556 521.56 437.414 521.559C437.272 521.557 437.133 521.597 437.013 521.673C436.893 521.748 436.798 521.857 436.738 521.985C426.294 544.643 418.091 568.19 412.129 592.627C410.119 600.868 408.032 609.096 405.868 617.308C399.781 640.375 396.116 669.976 393.044 696.432C392.736 699.028 392.544 701.649 392.467 704.294C392.448 704.794 392.688 705.044 393.188 705.044C399.795 705.073 406.806 703.688 409.446 711.492C412.749 721.287 407.686 727.793 397.53 727.865C367.91 728.057 338.29 728.043 308.67 727.821C295.384 727.72 294.215 704.957 310.487 705.087C328.125 705.222 345.767 705.121 363.414 704.784C363.933 704.774 364.208 704.515 364.236 704.005C365.4 686.358 366.612 673.015 367.872 663.975C370.055 648.309 374.358 624.867 380.782 593.651C386.48 565.925 392.178 546.811 399.997 526.14Z" fill="#000506"/>
<path d="M520.363 406.741C501.537 406.034 482.28 414.228 473.451 431.985C471.475 435.967 468.907 444.983 464.118 445.704C445.437 448.503 459.617 425.047 463.296 419.637C474.846 402.644 490.622 392.859 510.625 390.282C515.444 389.661 534.629 390.657 538.51 396.297C540.746 399.572 539.923 404.217 537.24 406.683C532.365 411.17 525.989 406.943 520.363 406.741Z" fill="white"/>
<path d="M461.28 472.256C459.303 472.709 457.214 472.299 455.472 471.116C453.73 469.933 452.478 468.074 451.992 465.948C451.505 463.823 451.823 461.604 452.876 459.781C453.93 457.958 455.632 456.679 457.608 456.227C459.585 455.774 461.674 456.184 463.416 457.367C465.158 458.55 466.41 460.409 466.896 462.535C467.383 464.66 467.065 466.879 466.012 468.702C464.958 470.525 463.256 471.804 461.28 472.256Z" fill="white"/>
<path d="M531.296 556.181C531.295 556.265 531.277 556.347 531.244 556.424C531.212 556.5 531.164 556.57 531.104 556.628C531.045 556.686 530.974 556.732 530.897 556.763C530.819 556.794 530.737 556.809 530.653 556.808L502.209 556.461C502.125 556.46 502.043 556.442 501.966 556.41C501.89 556.377 501.82 556.329 501.762 556.269C501.704 556.21 501.658 556.139 501.627 556.062C501.596 555.984 501.581 555.902 501.582 555.818L501.783 539.317C501.784 539.234 501.802 539.151 501.834 539.075C501.867 538.998 501.915 538.929 501.975 538.87C502.034 538.812 502.105 538.766 502.182 538.735C502.26 538.704 502.342 538.689 502.426 538.69L530.87 539.038C530.954 539.039 531.036 539.056 531.113 539.089C531.189 539.122 531.259 539.169 531.317 539.229C531.375 539.289 531.421 539.359 531.452 539.437C531.483 539.514 531.498 539.597 531.497 539.68L531.296 556.181Z" fill="#64B7B8"/>
<path d="M556.05 621.391C556.05 631.808 551.912 641.8 544.545 649.166C537.179 656.533 527.187 660.671 516.77 660.671C506.352 660.671 496.361 656.533 488.994 649.166C481.628 641.8 477.489 631.808 477.489 621.391C477.489 610.973 481.628 600.982 488.994 593.615C496.361 586.249 506.352 582.11 516.77 582.11C527.187 582.11 537.179 586.249 544.545 593.615C551.912 600.982 556.05 610.973 556.05 621.391Z" fill="white"/>
<path d="M538.366 620.987C538.366 623.863 537.799 626.71 536.699 629.367C535.598 632.024 533.985 634.438 531.952 636.471C529.918 638.505 527.505 640.118 524.848 641.218C522.191 642.318 519.343 642.885 516.468 642.885C510.66 642.885 505.09 640.578 500.984 636.471C496.877 632.365 494.57 626.795 494.57 620.987C494.57 615.179 496.877 609.61 500.984 605.503C505.09 601.396 510.66 599.089 516.468 599.089C519.343 599.089 522.191 599.656 524.848 600.756C527.505 601.857 529.918 603.47 531.952 605.503C533.985 607.536 535.598 609.95 536.699 612.607C537.799 615.264 538.366 618.111 538.366 620.987Z" fill="#000506"/>
</svg>
