<svg width="1024" height="1024" viewBox="0 0 1024 1024" fill="none" xmlns="http://www.w3.org/2000/svg">
<rect width="1024" height="1024" fill="white"/>
<path d="M506.587 743.377C507.831 770.502 496.15 801.586 467.508 810.112C453.966 814.147 440.97 811.715 428.52 802.815C414.062 792.499 406.508 775.781 404.475 758.259C403.999 754.113 404.035 747.205 404.581 737.536C408.571 667.919 406.796 613.927 407.099 544.265C407.423 469.667 405.936 391.665 402.639 310.261C402.477 306.306 401.941 297.836 401.031 284.85C399.089 257.194 415.458 218.707 445.936 213.079C490.84 204.796 510.41 249.7 507.952 286.382C507.346 295.485 506.557 304.617 506.359 313.674C503.735 437.434 503.462 515.987 503.856 648.562C503.947 680.177 505.131 711.792 506.587 743.377Z" fill="#01020B"/>
<path d="M627.542 741.86C629.514 774.006 611.4 813.176 574.111 811.447C548.716 810.264 530.375 787.796 526.097 764.525C525.136 759.276 525.01 749.192 525.718 734.275C528.646 673.168 527.75 615.429 527.766 556.022C527.786 485.854 527.053 415.69 525.566 345.532C525.101 323.889 524.155 302.271 522.729 280.678C522.405 275.803 523.255 268.962 525.278 260.153C530.527 237.321 547.411 215.339 572.154 212.335C599.567 209.028 619.168 230.676 625.949 255.283C629.074 266.6 630.278 276.077 629.559 283.712C628.831 291.419 628.341 299.131 628.088 306.847C625.661 382.7 623.84 463.573 624.174 548.816C624.417 613.154 623.613 677.613 627.542 741.86Z" fill="#01020B"/>
<path d="M264.953 312.627C260.887 317.496 261.357 329.481 261.115 335.671C260.614 348.702 247.37 359.868 236.023 363.645C229.424 365.845 222.916 362.644 220.139 356.636C215.846 347.306 224.569 341.799 231.623 338.781C238.526 335.822 237.752 322.139 238.48 316.708C240.559 301.234 251.557 288.597 265.15 281.512C265.242 281.462 265.32 281.39 265.377 281.303C265.434 281.215 265.468 281.114 265.475 281.01C265.483 280.905 265.464 280.801 265.42 280.706C265.377 280.61 265.31 280.528 265.226 280.465C254.071 272.496 243.128 264.713 232.397 257.118C218.091 247.014 232.427 227.612 245.292 237.472C252.129 242.711 258.981 248.021 265.848 253.401C265.94 253.474 266.051 253.518 266.167 253.528C266.284 253.537 266.401 253.512 266.503 253.455C266.605 253.398 266.689 253.312 266.742 253.208C266.796 253.104 266.817 252.987 266.804 252.87C266.055 244.688 265.888 236.38 266.303 227.945C266.414 225.69 267.476 223.662 269.489 221.862C275.881 216.117 281.949 216.39 287.693 222.681C291.713 227.065 289.59 246.059 289.635 252.385C289.645 252.911 289.853 253.007 290.257 252.673C296.841 247.227 303.668 241.31 310.95 236.957C324.861 228.658 335.829 248.092 322.722 256.845C312.224 263.854 301.994 271.146 292.032 278.721C291.7 278.974 291.437 279.306 291.266 279.687C291.096 280.067 291.023 280.485 291.054 280.901C291.086 281.317 291.221 281.718 291.448 282.069C291.674 282.419 291.984 282.708 292.351 282.908C305.579 290.083 317.215 302.098 321.478 317.239C322.732 321.709 323.374 327.499 323.405 334.609C323.496 361.324 326.879 386.067 297.493 397.217C295.208 398.087 292.927 398.936 290.652 399.766C290.095 399.968 289.817 400.363 289.817 400.949L289.772 723.64C289.772 724.166 289.994 724.575 290.439 724.869L295.339 728.039C295.855 728.373 296.335 728.327 296.78 727.903C302.94 722.077 316.123 707.423 325.164 714.31C330.342 718.264 331.693 723.296 329.215 729.405C327.349 734.016 314.348 741.359 309.251 744.135C308.519 744.533 307.937 745.159 307.592 745.917C307.248 746.675 307.159 747.524 307.339 748.337C308.452 753.384 308.168 758.299 306.489 763.083C306.413 763.304 306.411 763.545 306.485 763.767C306.559 763.989 306.705 764.181 306.899 764.312C313.969 769.075 328.35 777.783 329.382 785.535C330.398 793.196 322.995 799.674 315.379 797.975C309.342 796.625 299.723 785.611 294.748 780.514C294.353 780.109 293.903 780.028 293.397 780.271L288.786 782.456C288.229 782.719 287.961 783.159 287.982 783.775C288.194 790.496 289.483 801.009 285.676 806.698C280.836 813.919 267.031 811.583 266.849 802.405C266.728 796.205 266.667 790.006 266.667 783.806C266.667 783.391 266.48 783.103 266.106 782.941L259.279 780.044C259.093 779.963 258.888 779.942 258.69 779.983C258.491 780.024 258.311 780.124 258.172 780.271C253.843 784.802 249.454 789.217 245.004 793.515C239.239 799.077 233.631 799.644 228.18 795.214C224.675 792.377 223.022 788.22 224.205 783.897C226.314 776.099 240.635 768.863 247.158 764.888C247.294 764.806 247.396 764.68 247.449 764.53C247.502 764.381 247.501 764.218 247.446 764.069C245.707 759.164 245.509 754.183 246.854 749.126C246.981 748.646 246.969 748.14 246.818 747.667C246.668 747.194 246.386 746.774 246.005 746.456C238.86 740.434 221.368 734.881 222.521 723.352C223.401 714.644 233.125 709.395 240.635 715.372C245.833 719.508 250.854 723.862 255.699 728.434C256.275 728.98 256.705 728.884 256.988 728.145C257.049 727.984 257.14 727.842 257.261 727.721C257.736 727.226 258.184 726.862 258.551 726.674L264.968 723.352C265.443 723.109 265.681 722.714 265.681 722.168L265.742 312.915C265.742 312.086 265.479 311.99 264.953 312.627Z" fill="#01020B"/>
<path d="M734.114 275.095C723.707 269.527 711.722 262.761 703.409 254.888C698.494 250.231 699.844 240.294 706.094 236.85C711.121 234.069 715.844 234.464 720.263 238.034C726.706 243.222 733.148 248.304 739.59 253.28C739.666 253.338 739.757 253.373 739.853 253.381C739.948 253.389 740.044 253.37 740.128 253.325C740.213 253.28 740.283 253.212 740.33 253.129C740.377 253.046 740.4 252.951 740.394 252.855C739.788 245.128 739.479 237.336 739.469 229.477C739.439 214.262 763.332 213.7 763.363 231.101C763.383 238.433 763.297 245.533 763.105 252.4C763.074 253.543 763.479 253.725 764.318 252.946C770.761 246.939 777.587 241.447 784.798 236.471C796.419 228.476 810.33 247.106 794.598 257.755C784.374 264.673 774.503 271.53 764.986 278.326C764.614 278.592 764.314 278.946 764.114 279.357C763.914 279.767 763.819 280.222 763.839 280.678C763.858 281.135 763.992 281.579 764.226 281.971C764.461 282.363 764.79 282.69 765.183 282.923C776.212 289.492 784.389 298.806 787.711 311.337C789.274 317.254 789.183 324.839 789.486 331.499C789.744 337.355 799.104 340.798 802.214 345.607C807.114 353.238 801.425 364.783 791.974 364.737C781.431 364.677 769.582 352.571 765.835 343.074C765.137 341.324 764.758 338.872 764.697 335.716C764.576 329.749 764.419 323.782 764.227 317.815C764.166 316.075 763.838 315.008 763.241 314.614C762.746 314.29 762.498 314.422 762.498 315.008C762.801 379.503 762.953 443.28 762.953 506.338C762.938 515.167 755.641 522.54 746.629 518.475C740.425 515.668 739.105 510.859 739.105 504.017C739.075 438.359 739.049 372.707 739.029 307.059C739.029 305.163 739.515 303.069 739.788 301.021C739.848 300.556 739.641 300.298 739.166 300.248C722.175 298.276 706.231 303.752 700.132 320.424C698.706 324.338 698.003 330.533 698.023 339.008C698.054 349.789 698.059 360.56 698.038 371.321C698.018 383.154 697.224 391.665 695.657 396.853C692.213 408.307 680.941 424.554 668.016 427.012C665.124 427.558 662.509 427.245 660.173 426.071C653.953 422.961 650.525 413.859 656.259 407.852C656.927 407.154 658.15 406.173 659.93 404.909C668.638 398.638 673.078 389.844 673.25 378.527C673.381 369.506 673.478 360.489 673.538 351.478C673.67 334.862 673.821 325.86 673.993 324.475C677.938 293.982 703.561 274.094 733.947 275.702C734.908 275.752 734.963 275.55 734.114 275.095Z" fill="#01020B"/>
<path d="M346.732 476.235C342.735 475.157 339.34 472.497 337.294 468.842C335.248 465.187 334.719 460.836 335.822 456.746C336.926 452.655 339.572 449.161 343.179 447.031C346.786 444.902 351.058 444.311 355.055 445.389C359.052 446.468 362.447 449.127 364.493 452.782C366.539 456.437 367.069 460.788 365.965 464.879C364.861 468.969 362.215 472.464 358.608 474.593C355.001 476.723 350.729 477.314 346.732 476.235Z" fill="#01020B"/>
<path d="M679.676 476.973C675.583 477.266 671.536 475.862 668.427 473.07C665.317 470.278 663.399 466.327 663.095 462.085C662.945 459.985 663.195 457.876 663.831 455.88C664.468 453.884 665.478 452.039 666.805 450.451C668.132 448.863 669.749 447.563 671.564 446.625C673.379 445.687 675.356 445.13 677.383 444.985C681.477 444.691 685.523 446.095 688.633 448.887C691.742 451.679 693.66 455.63 693.964 459.872C694.114 461.973 693.864 464.081 693.228 466.077C692.591 468.073 691.581 469.918 690.254 471.506C688.927 473.094 687.31 474.394 685.495 475.332C683.68 476.27 681.703 476.827 679.676 476.973Z" fill="#01020B"/>
<path d="M743.718 639.353C744.173 639.04 744.183 638.706 743.748 638.352C738.636 634.195 739.091 632.071 739.076 625.427C739.066 600.759 739.055 576.097 739.045 551.44C739.045 547.213 739.622 544.057 740.775 541.974C744.446 535.314 753.457 533.903 759.101 538.727C761.902 541.124 763.267 544.614 763.197 549.195C762.964 562.929 762.853 589.913 762.863 630.145C762.878 634.317 761.664 635.743 758.782 638.352C758.347 638.746 758.362 639.126 758.828 639.49C768.961 647.348 762.954 665.522 749.316 663.231C737.999 661.335 734.236 645.983 743.718 639.353Z" fill="#01020B"/>
<path d="M675.706 612.275C673.77 611.441 672.023 610.223 670.563 608.69C669.103 607.156 667.96 605.337 667.198 603.338C666.437 601.338 666.072 599.196 666.125 597.034C666.177 594.873 666.647 592.733 667.505 590.739C669.24 586.711 672.457 583.517 676.448 581.86C680.439 580.202 684.878 580.217 688.788 581.9C690.723 582.734 692.471 583.953 693.931 585.486C695.391 587.02 696.534 588.838 697.296 590.838C698.057 592.838 698.422 594.98 698.369 597.141C698.317 599.303 697.847 601.442 696.988 603.436C695.254 607.464 692.037 610.658 688.046 612.316C684.055 613.974 679.616 613.959 675.706 612.275Z" fill="#01020B"/>
<path d="M338.97 613.308C337.396 612.1 336.082 610.585 335.104 608.849C334.125 607.113 333.501 605.19 333.267 603.19C333.032 601.191 333.193 599.153 333.739 597.194C334.285 595.235 335.206 593.393 336.449 591.773C338.96 588.501 342.63 586.332 346.654 585.744C350.677 585.155 354.723 586.195 357.903 588.635C359.477 589.843 360.791 591.358 361.769 593.094C362.748 594.83 363.372 596.753 363.606 598.752C363.841 600.752 363.68 602.789 363.134 604.748C362.588 606.707 361.667 608.55 360.424 610.17C357.913 613.441 354.243 615.61 350.219 616.199C346.196 616.787 342.15 615.747 338.97 613.308Z" fill="#01020B"/>
<path d="M779.915 764.449C787.272 769.167 794.767 774.34 800.622 780.393C805.962 785.915 801.806 794.137 796.284 797.262C792.188 799.583 788.759 798.552 785.027 795.654C778.969 790.951 773.381 785.723 768.264 779.968C768.104 779.79 767.885 779.677 767.649 779.651C767.413 779.626 767.178 779.69 766.989 779.831L763.227 782.683C762.843 782.967 762.656 783.346 762.666 783.821C762.706 790.233 762.6 795.477 762.347 799.553C761.376 815.133 740.669 815.27 740.593 799.508C740.563 794.046 740.557 788.6 740.578 783.169C740.588 782.613 740.335 782.233 739.819 782.031L735.92 780.438C735.473 780.258 734.983 780.213 734.509 780.307C734.035 780.401 733.598 780.631 733.25 780.969C728.376 785.753 723.551 790.36 718.778 794.79C712.148 800.949 702.788 797.854 699.572 789.996C695.066 779.027 714.242 769.622 721.721 764.737C722.166 764.444 722.287 764.049 722.085 763.554C720.163 758.75 719.769 753.774 720.902 748.626C721.102 747.71 720.992 746.753 720.588 745.907C720.184 745.061 719.51 744.373 718.672 743.953C713.483 741.329 700.816 734.411 698.95 728.404C697.119 722.487 698.606 717.855 703.41 714.507C710.495 709.592 715.198 713.461 721.22 718.543C724.699 721.476 727.966 724.641 731.02 728.04C731.334 728.373 731.688 728.429 732.082 728.206L739.516 723.974C739.89 723.761 740.072 723.443 740.062 723.018C739.9 716.818 739.834 707.17 739.865 694.073C739.88 687.261 740.623 680.526 747.844 678.493C756.598 676.02 763.182 682.27 762.985 691.433C762.823 698.604 762.919 709.344 763.273 723.655C763.283 724.232 763.566 724.601 764.122 724.763C766.459 725.43 768.567 726.517 770.448 728.024C770.883 728.378 771.298 728.358 771.692 727.964C778.064 721.744 793.052 704.616 801.745 717.117C810.498 729.708 791.217 739.539 782.812 744.014C782.252 744.313 781.808 744.79 781.55 745.37C781.291 745.949 781.234 746.599 781.386 747.215C782.772 752.838 782.17 758.173 779.581 763.22C779.328 763.736 779.439 764.145 779.915 764.449Z" fill="#01020B"/>
<path d="M482.575 323.808L433.862 303.343" stroke="#FF832B" stroke-width="2"/>
<path d="M433.861 303.343C433.305 301.29 433.016 298.286 432.996 294.332C432.966 283.985 433.112 277.174 433.436 273.897C434.538 262.651 439.201 253.382 447.423 246.09C448.576 245.068 449.335 244.183 449.699 243.435C450.599 241.564 450.159 240.289 448.379 239.612" stroke="#FFA19B" stroke-width="2"/>
<path d="M433.862 303.343L437.685 464.483" stroke="#FFE28F" stroke-width="2"/>
<path d="M460.82 476.65C458.23 478.623 455.464 479.851 452.521 480.337C451.965 480.428 451.687 480.757 451.687 481.323L451.763 499.224" stroke="#7CE9E2" stroke-width="2"/>
<path d="M458.787 517.337L461.851 524.134C462.027 524.528 462.093 524.962 462.044 525.39C461.994 525.819 461.831 526.226 461.571 526.57C461.311 526.914 460.963 527.182 460.564 527.345C460.165 527.509 459.73 527.563 459.303 527.502C442.115 524.907 432.132 536.437 432.057 552.988C432.036 558.925 432.158 564.866 432.421 570.813C432.552 573.827 431.354 576.558 428.825 579.005C428.392 579.427 427.814 579.67 427.209 579.684C426.604 579.698 426.016 579.483 425.564 579.081C424.552 578.191 423.718 576.831 423.061 575" stroke="#FFE28F" stroke-width="2"/>
<path d="M436.804 676.854L435.863 750.871" stroke="#FFE28F" stroke-width="2"/>
<path d="M435.864 750.871L432.997 767.119" stroke="#FFA19B" stroke-width="2"/>
<path d="M479.478 764.964C477.051 761.202 474.983 757.495 473.274 753.844C471.676 750.446 469.395 747.953 466.432 746.365C455.125 740.307 444.935 741.809 435.863 750.871" stroke="#FF832B" stroke-width="2"/>
<path d="M603.709 325.598C592.17 331.757 580.069 333.137 567.406 329.739C563.401 328.662 559.29 326.402 555.012 324.748" stroke="#FF832B" stroke-width="2"/>
<path d="M555.013 324.748C553.617 305.097 553.339 287.752 554.178 272.713C554.452 267.697 555.964 262.812 558.714 258.059C558.795 257.917 560.692 255.505 564.403 250.822C567.124 247.384 568.535 243.778 568.636 240.006" stroke="#FFA19B" stroke-width="2"/>
<path d="M555.012 324.748L558.107 464.984" stroke="#FFE28F" stroke-width="2"/>
<path d="M582.411 478.455C580.924 478.849 579.549 478.96 578.284 478.788C578.102 478.762 577.917 478.775 577.741 478.828C577.564 478.88 577.401 478.969 577.263 479.091C577.125 479.212 577.014 479.361 576.939 479.529C576.864 479.697 576.826 479.879 576.828 480.063L576.949 497.524C576.949 497.655 576.884 497.721 576.752 497.721H576.297C576.19 497.717 576.088 497.673 576.012 497.597C575.936 497.521 575.891 497.419 575.887 497.311L575.402 482.156C575.392 481.926 575.335 481.701 575.233 481.495C575.131 481.288 574.987 481.105 574.81 480.958C572.616 479.127 571.362 479.633 571.048 482.475C570.502 487.38 570.32 492.331 570.502 497.327C570.512 497.883 570.244 498.186 569.698 498.237L568.757 498.328" stroke="#7CE9E2" stroke-width="2"/>
<path d="M585.218 517.397L585.035 524.664C585.028 524.975 584.958 525.281 584.831 525.565C584.705 525.848 584.523 526.103 584.297 526.315C584.071 526.527 583.805 526.691 583.515 526.799C583.225 526.906 582.917 526.954 582.608 526.94C567.65 526.257 560.338 530.125 555.15 544.325C552.692 551.061 553.435 559.814 553.557 567.399C553.617 571.753 550.295 580.522 544.47 578.747" stroke="#FFE28F" stroke-width="2"/>
<path d="M581.318 649.897L568.924 649.502C568.418 649.482 568.135 649.224 568.075 648.728L567.953 647.849" stroke="#C32D36" stroke-width="2"/>
<path d="M558.411 676.93C557.046 682.057 557.865 687.185 557.182 692.146C556.737 695.402 556.51 699.079 556.5 703.175C556.5 723.523 556.58 737.02 556.742 743.664" stroke="#FFE28F" stroke-width="2"/>
<path d="M556.742 743.665C555.67 750.815 555.184 757.925 555.285 764.995C555.305 766.249 554.795 766.891 553.753 766.921" stroke="#FFA19B" stroke-width="2"/>
<path d="M601.45 759.654C598.507 752.271 595.807 747.498 593.349 745.333C580.879 734.34 568.677 733.784 556.743 743.665" stroke="#FF832B" stroke-width="2"/>
<path d="M277.273 738.947C277.151 742.725 276.272 744.742 273.389 747.746C270.325 750.932 269.238 755.281 270.128 760.793" stroke="#FFE28F" stroke-width="2"/>
<path d="M752.684 739.948C751.541 741.425 750.611 742.957 749.893 744.545C748.451 747.761 746.054 749.05 744.75 751.311C743.84 752.899 743.516 755.554 743.779 759.275" stroke="#FFE28F" stroke-width="2"/>
<path d="M603.711 325.598C592.172 331.757 580.071 333.137 567.409 329.739C563.404 328.662 559.292 326.402 555.014 324.748C553.619 305.097 553.34 287.752 554.18 272.713C554.453 267.697 555.965 262.812 558.716 258.059C558.797 257.917 560.693 255.505 564.405 250.823C567.125 247.384 568.536 243.778 568.637 240.006C571.004 236.213 576.951 234.029 581.274 236.426C593.198 243.025 600.435 255.571 603.196 268.542C603.722 270.989 604 275.92 604.03 283.333C604.091 297.441 603.984 311.53 603.711 325.598Z" fill="#FF4237"/>
<path d="M482.576 323.807L433.864 303.342C433.307 301.289 433.019 298.286 432.999 294.331C432.969 283.985 433.115 277.173 433.439 273.897C434.541 262.65 439.204 253.381 447.426 246.089C448.579 245.068 449.338 244.183 449.702 243.434C450.602 241.563 450.162 240.289 448.382 239.611C453.732 234.433 459.299 234.388 465.084 239.475C472.72 246.17 477.969 254.018 480.831 263.019C482.561 268.43 483.37 277.522 483.259 290.296C483.158 301.482 482.93 312.652 482.576 323.807Z" fill="#FF4237"/>
<path d="M448.381 239.612C450.161 240.289 450.601 241.564 449.701 243.435C449.337 244.183 448.579 245.068 447.426 246.09C439.203 253.382 434.541 262.651 433.438 273.897C433.115 277.174 432.968 283.985 432.998 294.332C433.019 298.286 433.307 301.29 433.863 303.343L437.686 464.483C432.285 473.055 432.103 479.32 430.602 488.028C430.581 488.129 430.526 488.185 430.435 488.195L429.98 488.256C429.656 488.296 429.494 488.154 429.494 487.831C429.686 425.349 428.584 362.872 426.187 300.4C425.914 293.169 425.884 284.789 426.096 275.262C426.202 270.377 427.507 266.646 428.842 262.034C430.95 254.737 440.113 241.22 448.381 239.612Z" fill="white"/>
<path d="M568.638 240.006C568.537 243.778 567.126 247.384 564.405 250.822C560.694 255.505 558.797 257.917 558.716 258.059C555.966 262.812 554.454 267.697 554.181 272.713C553.341 287.752 553.619 305.097 555.015 324.748L558.11 464.984C552.269 472.918 551.905 480.2 551.268 489.044C551.267 489.094 551.253 489.144 551.226 489.187C551.199 489.23 551.161 489.264 551.116 489.287L550.737 489.469C550.626 489.519 550.57 489.54 550.57 489.529C550.064 485.787 549.811 483.426 549.811 482.445C549.811 417.455 548.729 352.48 546.565 287.52C546.211 276.799 547.763 267.186 551.222 258.681C554.479 250.64 560.284 244.415 568.638 240.006Z" fill="white"/>
<path d="M433.863 303.343L482.576 323.808L481.256 476.256C481.256 476.539 481.114 476.665 480.831 476.635L480.391 476.589C480.155 476.563 479.934 476.457 479.766 476.289C479.598 476.121 479.492 475.9 479.466 475.664C478.889 470.142 476.77 465.859 473.109 462.815C460.831 452.6 449.024 453.156 437.686 464.483L433.863 303.343Z" fill="#FEC41F"/>
<path d="M290.715 311.489C295.645 316.253 298.634 323.535 298.801 330.361C299.023 340.101 299.084 349.83 298.983 359.549C298.922 365.577 296.303 370.194 291.125 373.4C291.013 373.47 290.884 373.509 290.752 373.513C290.62 373.517 290.489 373.485 290.374 373.422C290.258 373.359 290.161 373.266 290.093 373.152C290.025 373.039 289.988 372.91 289.987 372.778V311.793C289.987 311.125 290.23 311.024 290.715 311.489Z" fill="#F5FEFB"/>
<path d="M555.015 324.748C559.293 326.402 563.404 328.662 567.409 329.739C580.072 333.137 592.173 331.757 603.712 325.598C602.499 375.013 601.917 424.418 601.968 473.813C601.983 475.588 601.467 477.621 601.33 479.517C601.32 479.669 601.305 479.669 601.285 479.517C599.283 467.36 592.956 459.871 582.307 457.05C572.446 454.44 564.603 457.429 558.11 464.984L555.015 324.748Z" fill="#FEC41F"/>
<path d="M460.821 476.65C458.232 478.622 455.466 479.851 452.523 480.337C451.966 480.428 451.688 480.756 451.688 481.323L451.764 499.224C450.682 499.335 449.777 499.3 449.049 499.118C448.523 498.986 448.26 498.652 448.26 498.116C448.275 490.061 447.183 480.655 451.157 476.347C453.797 473.485 457.018 473.586 460.821 476.65Z" fill="#F5FEFB"/>
<path d="M582.411 478.455C580.925 478.85 579.549 478.961 578.285 478.789C578.103 478.763 577.918 478.776 577.741 478.829C577.565 478.881 577.402 478.97 577.264 479.091C577.125 479.212 577.015 479.362 576.94 479.53C576.865 479.698 576.827 479.88 576.829 480.064L576.95 497.525C576.95 497.656 576.884 497.722 576.753 497.722H576.298C576.19 497.718 576.088 497.674 576.012 497.598C575.936 497.522 575.892 497.42 575.888 497.312L575.403 482.157C575.393 481.927 575.335 481.702 575.233 481.495C575.131 481.289 574.988 481.106 574.811 480.959C572.616 479.128 571.362 479.634 571.049 482.476C570.503 487.381 570.321 492.331 570.503 497.328C570.513 497.884 570.245 498.187 569.699 498.238L568.758 498.329C568.394 489.682 568.323 483.866 568.546 480.883C569.076 473.586 578.71 471.917 582.411 478.455Z" fill="#F5FEFB"/>
<path d="M460.821 476.65L462.429 498.041C462.47 498.536 462.247 498.83 461.762 498.921C458.262 499.649 454.93 499.75 451.764 499.224L451.688 481.323C451.688 480.757 451.967 480.428 452.523 480.337C455.466 479.851 458.232 478.623 460.821 476.65Z" fill="#02D4C9"/>
<path d="M582.412 478.455C583.322 484.917 583.525 491.617 583.019 498.555C583.007 498.737 582.932 498.91 582.806 499.047C582.68 499.184 582.509 499.278 582.321 499.314C577.922 500.062 573.538 499.997 569.168 499.117C569.017 499.086 568.941 498.99 568.941 498.828C568.951 498.586 568.89 498.419 568.759 498.328L569.699 498.237C570.245 498.186 570.514 497.883 570.503 497.327C570.321 492.33 570.503 487.38 571.05 482.475C571.363 479.633 572.617 479.127 574.812 480.958C574.988 481.105 575.132 481.288 575.234 481.495C575.336 481.701 575.394 481.926 575.403 482.156L575.889 497.311C575.893 497.419 575.937 497.521 576.013 497.597C576.089 497.673 576.191 497.717 576.298 497.721H576.754C576.885 497.721 576.951 497.655 576.951 497.524L576.829 480.063C576.828 479.879 576.865 479.697 576.941 479.529C577.016 479.361 577.126 479.212 577.265 479.091C577.403 478.969 577.566 478.88 577.742 478.828C577.918 478.775 578.104 478.762 578.286 478.788C579.55 478.96 580.925 478.849 582.412 478.455Z" fill="#02D4C9"/>
<path d="M458.789 517.337L461.853 524.133C462.029 524.527 462.095 524.961 462.046 525.39C461.996 525.818 461.833 526.226 461.573 526.569C461.313 526.913 460.965 527.181 460.566 527.345C460.167 527.509 459.731 527.563 459.305 527.501C442.116 524.907 432.134 536.437 432.058 552.988C432.038 558.924 432.16 564.866 432.423 570.813C432.554 573.827 431.356 576.557 428.827 579.005C428.393 579.427 427.816 579.669 427.211 579.683C426.606 579.697 426.018 579.482 425.565 579.081C424.554 578.191 423.72 576.83 423.062 575C422.683 558.085 419.467 536.604 434.304 524.3C440.878 518.849 449.039 516.528 458.789 517.337Z" fill="white"/>
<path d="M423.062 575C423.719 576.831 424.554 578.191 425.565 579.081C426.018 579.482 426.606 579.698 427.211 579.683C427.816 579.669 428.393 579.427 428.827 579.005C431.355 576.558 432.554 573.827 432.422 570.813C432.159 564.866 432.038 558.924 432.058 552.988C432.134 536.437 442.116 524.907 459.304 527.501C459.731 527.563 460.167 527.509 460.566 527.345C460.964 527.181 461.312 526.914 461.572 526.57C461.833 526.226 461.996 525.818 462.045 525.39C462.095 524.961 462.028 524.528 461.853 524.133L458.788 517.337C466.626 517.307 473.271 520.285 478.722 526.273C486.004 534.252 486.899 542.141 486.945 553.822C487.046 579.966 487.177 606.11 487.339 632.253C487.385 638.003 485.564 640.127 482.758 644.223C481.261 646.417 480.487 646.19 480.437 643.54C480.022 623.212 479.916 602.383 480.118 581.053C480.164 576.836 477.706 573.832 474.657 570.57C462.323 557.433 443.891 562.409 433.272 575.046C431.648 576.957 431.087 579.627 431.087 581.812C431.077 602.666 431.082 623.566 431.102 644.511C431.112 646.685 430.415 646.938 429.009 645.27C426.187 641.917 423.108 637.184 423.153 632.253C423.335 613.209 423.305 594.125 423.062 575Z" fill="#FEC41F"/>
<path d="M585.219 517.397L585.037 524.664C585.029 524.975 584.96 525.281 584.833 525.565C584.706 525.848 584.525 526.103 584.298 526.315C584.072 526.527 583.807 526.691 583.517 526.799C583.227 526.906 582.918 526.954 582.61 526.94C567.652 526.257 560.34 530.125 555.151 544.325C552.694 551.061 553.437 559.814 553.559 567.399C553.619 571.753 550.297 580.522 544.471 578.747C544.148 577.745 543.981 576.618 543.971 575.364C543.88 563.44 542.363 546.51 546.368 536.664C552.557 521.433 569.078 514.545 585.219 517.397Z" fill="white"/>
<path d="M585.219 517.397C594.736 520.088 601.573 526.56 605.729 536.816C607.408 540.962 608.248 544.457 608.248 547.298C608.248 575.222 608.238 603.146 608.217 631.07C608.217 637.274 606.503 640.839 602.134 644.738C602.058 644.81 601.963 644.857 601.86 644.875C601.757 644.893 601.651 644.88 601.556 644.838C601.46 644.796 601.379 644.726 601.323 644.639C601.267 644.551 601.237 644.448 601.239 644.344C601.138 624.025 601.229 603.631 601.512 583.161C601.553 579.804 601.102 577.255 600.162 575.515C596.612 568.977 588.966 564.805 582.033 563.516C571.899 561.635 561.326 566.732 554.453 574.302C553.007 575.9 552.279 577.771 552.269 579.915C552.107 601.659 552.066 623.459 552.147 645.315C552.147 645.459 552.104 645.599 552.026 645.719C551.947 645.839 551.835 645.934 551.703 645.992C551.571 646.05 551.426 646.068 551.284 646.045C551.142 646.022 551.01 645.958 550.903 645.861C545.867 641.325 544.289 636.364 544.319 629.189C544.421 612.562 544.36 595.945 544.137 579.338C544.127 579.227 544.163 579.131 544.244 579.05C544.355 578.949 544.431 578.848 544.471 578.747C550.297 580.522 553.619 571.753 553.558 567.399C553.437 559.814 552.694 551.061 555.151 544.325C560.339 530.125 567.652 526.257 582.61 526.94C582.918 526.954 583.226 526.906 583.516 526.799C583.806 526.691 584.072 526.527 584.298 526.315C584.524 526.103 584.706 525.848 584.833 525.565C584.96 525.281 585.029 524.975 585.037 524.664L585.219 517.397Z" fill="#FEC41F"/>
<path d="M463.459 649.545C463.459 649.598 463.448 649.652 463.427 649.701C463.406 649.751 463.376 649.796 463.337 649.834C463.299 649.871 463.254 649.901 463.204 649.922C463.154 649.942 463.101 649.952 463.047 649.952L447.361 649.87C447.307 649.87 447.254 649.859 447.205 649.838C447.155 649.817 447.11 649.787 447.072 649.749C447.034 649.71 447.004 649.665 446.984 649.615C446.964 649.565 446.953 649.512 446.954 649.458L447.139 614.112C447.139 614.058 447.15 614.005 447.171 613.955C447.191 613.905 447.222 613.86 447.26 613.823C447.298 613.785 447.344 613.755 447.394 613.734C447.443 613.714 447.497 613.704 447.55 613.704L463.236 613.786C463.29 613.787 463.343 613.797 463.393 613.818C463.443 613.839 463.488 613.869 463.525 613.908C463.563 613.946 463.593 613.991 463.613 614.041C463.634 614.091 463.644 614.144 463.644 614.198L463.459 649.545Z" fill="#FF4237"/>
<path d="M581.32 649.896L568.926 649.502C568.42 649.481 568.137 649.223 568.076 648.728L567.955 647.848L568.41 614.867C568.42 614.25 568.733 613.932 569.35 613.912L583.307 613.532C583.4 613.53 583.492 613.547 583.579 613.581C583.665 613.615 583.744 613.666 583.81 613.731C583.877 613.796 583.93 613.874 583.966 613.96C584.002 614.045 584.02 614.137 584.02 614.23L584.142 648.925C584.142 649.279 583.964 649.486 583.611 649.547L581.32 649.896Z" fill="#FF4237"/>
<path d="M567.956 647.849L568.078 648.728C568.138 649.224 568.421 649.482 568.927 649.502L581.321 649.897L571.248 651.823C570.741 651.922 570.218 651.886 569.731 651.717C567.951 651.09 567.359 649.801 567.956 647.849Z" fill="#861735"/>
<path d="M558.412 676.93C557.047 682.058 557.866 687.185 557.183 692.146C556.738 695.403 556.511 699.079 556.501 703.175C556.501 723.524 556.581 737.02 556.743 743.665C555.671 750.815 555.186 757.925 555.287 764.995C555.307 766.249 554.796 766.891 553.755 766.921C550.64 760.62 549.092 755.169 549.113 750.567C549.214 723.605 549.335 696.677 549.477 669.785C549.477 669.642 549.51 669.501 549.573 669.373C549.636 669.244 549.727 669.131 549.841 669.041C550.518 668.505 551.15 668.733 551.737 669.724C553.456 672.647 555.681 675.049 558.412 676.93Z" fill="white"/>
<path d="M436.807 676.854L435.867 750.871L432.999 767.119C428.448 757.197 428.16 750.021 428.463 738.628C429.04 716.459 429.283 694.204 429.191 671.863C429.181 669.75 429.899 669.466 431.346 671.014L436.807 676.854Z" fill="white"/>
<path d="M479.481 764.964C477.054 761.202 474.986 757.495 473.277 753.844C471.679 750.446 469.398 747.953 466.435 746.365C455.128 740.307 444.938 741.809 435.866 750.871L436.807 676.854L444.119 679.084C444.655 679.246 444.877 679.605 444.786 680.162C441.312 701.855 470.273 702.235 468.103 680.359C468.053 679.853 468.27 679.535 468.756 679.403C473.014 678.25 476.462 675.964 479.102 672.546C480.933 670.169 481.838 670.483 481.817 673.487C481.605 698.528 481.57 724.227 481.711 750.583C481.742 754.871 480.998 759.665 479.481 764.964Z" fill="#FEC41F"/>
<path d="M601.451 759.655C598.508 752.272 595.808 747.498 593.35 745.334C580.88 734.34 568.678 733.784 556.744 743.665C556.582 737.02 556.501 723.524 556.501 703.175C556.511 699.079 556.739 695.403 557.184 692.146C557.866 687.186 557.047 682.058 558.412 676.93L564.617 679.145C565.103 679.317 565.3 679.656 565.209 680.162C561.371 701.37 592.607 702.933 588.647 680.723C588.556 680.197 588.764 679.863 589.269 679.722C589.502 679.651 589.734 679.605 589.967 679.585C590.26 679.565 590.498 679.504 590.68 679.403C594.776 677.138 598.407 674.402 601.572 671.196C602.24 670.528 602.569 670.665 602.559 671.606C602.356 697.466 602.336 723.539 602.498 749.824C602.508 751.331 602.159 754.608 601.451 759.655Z" fill="#FEC41F"/>
<path d="M601.452 759.654C599.176 770.264 593.346 778.759 583.96 785.141C571.263 793.773 558.292 777.025 553.756 766.921C554.798 766.891 555.308 766.248 555.288 764.994C555.187 757.925 555.672 750.815 556.744 743.665C568.679 733.784 580.881 734.34 593.351 745.333C595.808 747.498 598.509 752.271 601.452 759.654Z" fill="#FF4237"/>
<path d="M277.273 738.947C277.152 742.725 276.272 744.742 273.39 747.746C270.325 750.932 269.238 755.281 270.128 760.793C264.834 757.288 261.587 750.993 264.909 745.091C267.701 740.115 271.069 737.673 277.273 738.947Z" fill="white"/>
<path d="M277.275 738.947C285.755 740.404 293.295 749.43 287.029 757.455C282.357 763.432 276.724 764.545 270.13 760.793C269.24 755.281 270.327 750.932 273.391 747.746C276.274 744.742 277.153 742.725 277.275 738.947Z" fill="#FEC41F"/>
<path d="M752.685 739.948C751.543 741.425 750.612 742.957 749.894 744.545C748.453 747.761 746.056 749.051 744.751 751.311C743.841 752.899 743.517 755.554 743.78 759.276C736.408 753.116 736.109 747.084 742.885 741.177C745.464 738.922 748.731 738.512 752.685 739.948Z" fill="white"/>
<path d="M752.685 739.948C761.302 741.405 766.08 751.463 759.997 758.593C755.78 763.538 750.374 763.766 743.78 759.275C743.517 755.554 743.841 752.899 744.751 751.311C746.055 749.05 748.452 747.761 749.894 744.545C750.612 742.957 751.542 741.425 752.685 739.948Z" fill="#FEC41F"/>
<path d="M479.48 764.964C476.547 773.702 470.646 780.686 461.776 785.914C455.723 789.495 450.292 787.522 444.74 782.88C438.995 778.086 435.081 772.832 432.998 767.118L435.865 750.871C444.937 741.809 455.127 740.307 466.434 746.365C469.397 747.953 471.678 750.446 473.276 753.844C474.985 757.495 477.053 761.202 479.48 764.964Z" fill="#FF4237"/>
<path d="M455.388 405.622C452.318 405.466 449.438 404.051 447.381 401.688C445.325 399.325 444.26 396.207 444.421 393.021C444.583 389.834 445.957 386.84 448.242 384.697C450.527 382.554 453.535 381.437 456.605 381.592C459.675 381.748 462.555 383.163 464.612 385.526C466.669 387.889 467.733 391.007 467.572 394.193C467.411 397.38 466.036 400.374 463.751 402.517C461.466 404.661 458.458 405.777 455.388 405.622Z" fill="#01020B"/>
<path d="M577.003 405.788C575.503 405.804 574.014 405.505 572.622 404.909C571.23 404.313 569.961 403.431 568.889 402.314C567.816 401.196 566.961 399.866 566.371 398.397C565.782 396.929 565.47 395.352 565.453 393.757C565.436 392.161 565.715 390.578 566.274 389.098C566.832 387.617 567.66 386.269 568.709 385.129C569.757 383.99 571.007 383.082 572.387 382.457C573.766 381.832 575.248 381.502 576.748 381.486C578.248 381.47 579.737 381.769 581.129 382.365C582.522 382.961 583.79 383.843 584.863 384.96C585.935 386.078 586.791 387.408 587.38 388.876C587.97 390.345 588.282 391.922 588.298 393.517C588.315 395.113 588.036 396.696 587.478 398.176C586.919 399.657 586.092 401.005 585.043 402.144C583.994 403.284 582.744 404.192 581.365 404.817C579.985 405.442 578.503 405.772 577.003 405.788Z" fill="#01020B"/>
</svg>
