<svg width="512" height="512" viewBox="0 0 512 512" fill="none" xmlns="http://www.w3.org/2000/svg">
<rect width="512" height="512" fill="white"/>
<path d="M377.009 275.06C373.247 273.03 370.676 270.092 369.295 266.248C360.382 241.457 342.534 229.32 317.418 224.382C312.701 223.456 306.654 222.997 299.279 223.005C246.167 223.072 193.048 223.087 139.922 223.049" stroke="#80252E" stroke-width="2"/>
<path d="M109.566 317.687C111.276 317.075 114.385 316.792 118.894 316.836C180.097 317.441 284.252 316.803 366.909 317.228C370.642 317.251 373.911 316.59 376.718 315.246C380.831 313.276 383.515 310.088 384.769 305.684" stroke="#616C84" stroke-width="2"/>
<path d="M320.083 245.332C325.607 252.55 331.504 258.899 337.775 264.378C338.059 264.632 338.387 264.755 338.76 264.748L349.073 264.714" stroke="#256D7C" stroke-width="2"/>
<path d="M292.628 276.056C285.768 275.668 278.751 275.541 271.577 275.676C271.204 275.683 270.961 275.601 270.849 275.429C270.7 275.22 270.704 274.907 270.861 274.489" stroke="#80272A" stroke-width="2"/>
<path d="M262.284 288.474C260.41 287.817 258.801 287.489 257.458 287.489C208.414 287.429 159.487 287.425 110.675 287.478" stroke="#802726" stroke-width="2"/>
<path d="M400.378 361.289C391.719 361.252 382.769 361.352 373.528 361.591C368.041 361.726 365.622 363.876 366.115 369.463" stroke="#256D7C" stroke-width="2"/>
<path d="M353.653 369.53C353.974 364.029 351.581 361.285 346.475 361.3C276.21 361.539 205.948 361.61 135.69 361.513C126.836 361.498 118.125 361.722 109.556 362.185" stroke="#256D79" stroke-width="2"/>
<path d="M107.528 351.816C113.903 352.831 120.539 353.179 127.437 352.858C135.6 352.477 137.369 341.806 128.411 341.683C122.812 341.601 117.214 341.634 111.615 341.784C110.204 341.821 108.921 342.556 107.764 343.989" stroke="#256D82" stroke-width="2"/>
<path d="M377.009 275.06C373.247 273.03 370.676 270.092 369.295 266.248C360.382 241.457 342.534 229.32 317.418 224.382C312.701 223.456 306.654 222.997 299.279 223.005C246.167 223.072 193.048 223.087 139.922 223.049C140.601 219.093 142.184 214.443 144.669 209.098C156.964 182.661 177.824 160.514 204.585 148.477C251.624 127.314 304.071 135.634 341.47 171.655C368.175 197.374 381.914 238.412 377.009 275.06Z" fill="#FF4852"/>
<path d="M139.922 223.049C193.048 223.087 246.167 223.072 299.279 223.005C306.654 222.997 312.701 223.456 317.418 224.382C342.533 229.32 360.381 241.457 369.294 266.248C370.675 270.092 373.247 273.03 377.009 275.06C380.831 277.859 383.433 279.83 384.814 280.972C395.395 289.751 402.057 303.153 395.148 316.388C394.977 316.724 395.074 316.937 395.44 317.027C396.432 317.266 397.47 317.374 398.552 317.351C405.987 317.183 409.313 326.6 401.598 329.836C400.59 330.254 398.847 330.43 396.369 330.362C391.704 330.236 384.963 330.168 376.147 330.161C321.841 330.124 267.535 330.09 213.229 330.06C175.271 330.049 137.537 330.698 111.615 330.228C109.958 330.198 108.6 329.489 107.54 328.101C104.886 324.63 105.838 320.061 109.566 317.687C111.276 317.075 114.385 316.792 118.893 316.836C180.097 317.441 284.252 316.803 366.909 317.228C370.642 317.251 373.911 316.59 376.718 315.246C380.831 313.276 383.515 310.088 384.769 305.684C384.194 298.988 380.674 293.546 374.21 289.359C368.977 285.97 364.48 282.39 360.717 278.621C360.467 278.37 360.13 278.225 359.777 278.218C354.104 278.083 348.434 277.994 342.768 277.949C334.315 277.87 329.948 276.661 324.64 270.637C316.996 261.963 311.51 255.525 308.181 251.322C304.665 246.866 305.616 241.312 312.301 242.443C315.638 243.01 318.232 243.973 320.083 245.332C325.607 252.55 331.504 258.899 337.774 264.378C338.058 264.632 338.387 264.755 338.76 264.747L349.072 264.714L354.816 265.632C354.894 265.643 354.974 265.633 355.047 265.603C355.12 265.573 355.183 265.524 355.23 265.462C355.277 265.4 355.306 265.327 355.314 265.25C355.322 265.174 355.309 265.097 355.276 265.027C351.177 255.823 345.142 248.78 336.285 243.585C326.992 238.128 317.228 235.4 306.994 235.4C235.213 235.37 190.335 235.306 172.36 235.209C169.501 235.195 167.063 235.904 165.048 237.337C156.997 243.059 145.879 256.484 136.036 256.674C128.176 256.839 120.315 256.82 112.455 256.618C108.715 256.529 104.83 252.811 106.33 248.859C108.267 243.753 111.38 244.223 116.62 244.246C124.078 244.302 135.499 245.063 138.41 243.182C141.598 241.122 144.46 238.688 146.998 235.881C147.289 235.553 147.218 235.389 146.785 235.389C136.626 235.321 126.493 235.333 116.385 235.422C114.012 235.445 111.078 235.411 109.074 234.302C103.329 231.1 106.845 223.005 113.575 223.184C117.382 223.296 126.164 223.251 139.922 223.049Z" fill="#01010A"/>
<path d="M292.628 276.057C285.768 275.668 278.751 275.541 271.577 275.676C271.204 275.683 270.961 275.601 270.849 275.43C270.7 275.22 270.704 274.907 270.861 274.489L270.883 244.358C270.883 244.169 270.957 243.989 271.089 243.855C271.221 243.721 271.4 243.644 271.589 243.641C275.328 243.589 279.109 243.57 282.931 243.585C285.898 243.585 288.765 246.06 291.721 249.251C297.207 255.178 302.657 261.135 308.069 267.121C311.842 271.309 309.58 276.448 304.027 276.605C300.272 276.71 296.472 276.527 292.628 276.057Z" fill="#01010A"/>
<path d="M217.809 257.01C217.809 260.036 216.607 262.939 214.467 265.078C212.327 267.218 209.425 268.42 206.399 268.42C203.373 268.42 200.471 267.218 198.331 265.078C196.191 262.939 194.989 260.036 194.989 257.01C194.989 253.984 196.191 251.082 198.331 248.942C200.471 246.803 203.373 245.6 206.399 245.6C209.425 245.6 212.327 246.803 214.467 248.942C216.607 251.082 217.809 253.984 217.809 257.01Z" fill="#01010A"/>
<path d="M349.073 264.714L338.76 264.748C338.387 264.755 338.059 264.632 337.775 264.378C331.504 258.899 325.607 252.55 320.083 245.332C328.399 246.787 335.491 250.494 341.358 256.451C344.053 259.183 346.624 261.937 349.073 264.714Z" fill="#49D8EE"/>
<path d="M181.754 257.033C181.754 260.053 180.554 262.949 178.419 265.085C176.283 267.22 173.387 268.42 170.366 268.42C167.346 268.42 164.45 267.22 162.314 265.085C160.179 262.949 158.979 260.053 158.979 257.033C158.979 254.013 160.179 251.116 162.314 248.981C164.45 246.845 167.346 245.645 170.366 245.645C173.387 245.645 176.283 246.845 178.419 248.981C180.554 251.116 181.754 254.013 181.754 257.033Z" fill="#01010A"/>
<path d="M254.099 256.999C254.099 260.028 252.896 262.933 250.754 265.075C248.612 267.217 245.707 268.42 242.678 268.42C239.649 268.42 236.744 267.217 234.602 265.075C232.46 262.933 231.257 260.028 231.257 256.999C231.257 253.97 232.46 251.065 234.602 248.923C236.744 246.781 239.649 245.578 242.678 245.578C245.707 245.578 248.612 246.781 250.754 248.923C252.896 251.065 254.099 253.97 254.099 256.999Z" fill="#01010A"/>
<path d="M270.861 274.489C270.704 274.907 270.7 275.22 270.849 275.429C270.961 275.601 271.204 275.683 271.577 275.676C278.751 275.541 285.768 275.668 292.628 276.056C296.86 281.453 296.021 288.172 288.16 288.317C279.718 288.474 271.092 288.526 262.284 288.474C260.41 287.817 258.801 287.489 257.458 287.489C208.414 287.429 159.487 287.425 110.675 287.478C108.156 284.992 105.827 281.812 107.114 278.173C107.95 275.806 109.731 274.627 112.455 274.634C165.209 274.634 218.01 274.586 270.861 274.489Z" fill="#FF4D49"/>
<path d="M262.283 288.474C266.381 292.382 265.396 297.096 261.029 299.47C259.939 300.059 258.26 300.354 255.99 300.354C208.231 300.295 160.479 300.283 112.735 300.321C110.436 300.328 108.67 299.395 107.438 297.521C104.841 293.546 106.666 289.56 110.674 287.478C159.486 287.425 208.414 287.429 257.457 287.489C258.801 287.489 260.41 287.817 262.283 288.474Z" fill="#010103"/>
<path d="M384.769 305.684C383.515 310.088 380.831 313.276 376.718 315.246C373.912 316.59 370.642 317.251 366.91 317.228C284.253 316.803 180.097 317.441 118.894 316.836C114.385 316.792 111.276 317.075 109.566 317.687C107.297 312.85 107.17 309.581 109.186 307.879C110.231 307.005 112.702 306.584 116.598 306.613C164.119 307.005 211.628 306.58 259.149 306.905C281.711 307.061 304.307 306.658 326.88 306.333C340.171 306.143 353.003 306.557 366.07 306.961C373.385 307.192 379.618 306.766 384.769 305.684Z" fill="#C1D7FE"/>
<path d="M400.378 361.289C391.719 361.252 382.768 361.352 373.527 361.591C368.04 361.726 365.622 363.876 366.115 369.463L353.652 369.53C353.973 364.029 351.581 361.285 346.475 361.3C276.209 361.539 205.947 361.61 135.689 361.513C126.836 361.498 118.125 361.722 109.555 362.185C110.608 361.431 111.615 360.367 112.578 358.994C112.742 358.762 112.854 358.499 112.908 358.221C112.961 357.943 112.955 357.657 112.889 357.381C112.824 357.106 112.7 356.847 112.527 356.623C112.353 356.399 112.134 356.215 111.884 356.082C109.839 354.985 108.387 353.563 107.528 351.816C113.903 352.831 120.54 353.179 127.437 352.858C135.6 352.477 137.369 341.806 128.411 341.683C122.813 341.601 117.214 341.634 111.615 341.784C110.205 341.821 108.921 342.556 107.764 343.989C106.297 339.667 107.708 335.524 112.466 335.256C118.849 334.909 125.142 335.155 131.501 334.987C138.033 334.808 143.255 334.722 147.166 334.729C215.838 334.897 284.532 334.483 353.204 334.931C368.298 335.032 383.414 334.304 398.508 334.741C402.259 334.841 404.689 337.361 404.856 341.056C405.177 348.491 405.2 353.298 404.924 355.478C404.744 356.918 403.229 358.856 400.378 361.289Z" fill="#49D8EE"/>
<path d="M107.528 351.816C105.789 348.987 105.868 346.378 107.764 343.989C108.921 342.556 110.205 341.821 111.615 341.784C117.214 341.634 122.813 341.601 128.411 341.683C137.369 341.806 135.6 352.477 127.437 352.858C120.54 353.179 113.903 352.831 107.528 351.816Z" fill="#010115"/>
<path d="M353.652 369.53C352.57 372.688 350.737 374.266 348.154 374.266C269.774 374.207 191.395 374.196 113.015 374.233C106.465 374.233 103.285 366.619 109.555 362.185C118.125 361.722 126.836 361.498 135.689 361.513C205.947 361.61 276.209 361.539 346.475 361.3C351.581 361.285 353.973 364.029 353.652 369.53Z" fill="#010103"/>
<path d="M400.378 361.289C406.581 362.913 407.208 369.978 402.394 373.136C401.229 373.889 399.512 374.263 397.243 374.255C389.084 374.225 380.933 374.222 372.789 374.244C369.75 374.252 367.526 372.658 366.115 369.463C365.622 363.876 368.041 361.726 373.528 361.591C382.769 361.352 391.719 361.252 400.378 361.289Z" fill="#01010A"/>
<path d="M259.759 172.012C259.419 172.377 258.948 172.593 258.45 172.611C257.951 172.63 257.466 172.449 257.1 172.109L254.853 170.021C254.672 169.853 254.526 169.651 254.423 169.426C254.32 169.202 254.262 168.959 254.253 168.712C254.244 168.465 254.284 168.219 254.37 167.987C254.456 167.756 254.587 167.544 254.755 167.363L256.905 165.049C257.244 164.684 257.715 164.468 258.214 164.45C258.712 164.432 259.198 164.612 259.563 164.952L261.81 167.04C261.991 167.209 262.137 167.411 262.24 167.635C262.343 167.86 262.401 168.103 262.41 168.349C262.419 168.596 262.379 168.843 262.293 169.074C262.207 169.306 262.076 169.518 261.908 169.699L259.759 172.012Z" fill="#FFFFFE"/>
<path d="M215.155 169.886L217.305 167.758C217.625 167.441 218.053 167.258 218.503 167.248C218.953 167.238 219.39 167.4 219.724 167.702L222.243 169.986C222.58 170.288 222.787 170.707 222.822 171.158C222.858 171.608 222.719 172.055 222.433 172.405L220.261 175.081C220.1 175.28 219.898 175.442 219.668 175.554C219.438 175.667 219.187 175.728 218.931 175.734C218.675 175.739 218.421 175.688 218.186 175.585C217.952 175.482 217.743 175.329 217.574 175.137L215.077 172.304C214.778 171.968 214.619 171.529 214.634 171.079C214.648 170.629 214.835 170.202 215.155 169.886Z" fill="#FFFFFE"/>
<path d="M320.083 185.226L317.037 188.204C316.771 188.465 316.413 188.612 316.041 188.612C315.668 188.612 315.31 188.465 315.044 188.204L312.189 185.382C312.055 185.251 311.949 185.095 311.876 184.922C311.804 184.749 311.766 184.564 311.765 184.377C311.764 184.19 311.8 184.004 311.87 183.831C311.941 183.657 312.046 183.5 312.178 183.367L314.82 180.702C315.065 180.455 315.391 180.307 315.738 180.284C316.084 180.261 316.427 180.366 316.701 180.579L319.949 183.087C320.11 183.211 320.242 183.367 320.338 183.546C320.433 183.726 320.489 183.923 320.502 184.126C320.514 184.328 320.484 184.531 320.411 184.721C320.339 184.911 320.227 185.083 320.083 185.226Z" fill="#FFFFFE"/>
<path d="M280.591 195.15C280.254 195.493 279.794 195.688 279.313 195.692C278.832 195.696 278.369 195.509 278.026 195.172L275.854 193.037C275.684 192.87 275.548 192.671 275.455 192.452C275.362 192.233 275.313 191.997 275.311 191.759C275.309 191.521 275.354 191.285 275.443 191.064C275.532 190.843 275.664 190.642 275.831 190.472L278.217 188.044C278.554 187.701 279.014 187.506 279.495 187.502C279.976 187.497 280.439 187.685 280.782 188.022L282.955 190.156C283.124 190.323 283.26 190.522 283.353 190.741C283.446 190.961 283.495 191.196 283.497 191.434C283.499 191.673 283.454 191.909 283.365 192.13C283.276 192.351 283.144 192.552 282.977 192.722L280.591 195.15Z" fill="#FFFFFE"/>
<path d="M181.071 198.606L177.858 202.111C177.786 202.189 177.699 202.252 177.602 202.295C177.505 202.339 177.401 202.362 177.295 202.363C177.189 202.364 177.083 202.343 176.986 202.301C176.888 202.26 176.8 202.199 176.727 202.122L173.569 198.741C173.441 198.6 173.369 198.418 173.367 198.228C173.365 198.038 173.433 197.853 173.558 197.71L176.626 194.183C176.696 194.103 176.782 194.039 176.878 193.994C176.974 193.948 177.078 193.923 177.184 193.92C177.29 193.917 177.396 193.936 177.494 193.975C177.593 194.015 177.682 194.074 177.757 194.15L181.06 197.542C181.198 197.685 181.276 197.874 181.278 198.072C181.28 198.27 181.206 198.461 181.071 198.606Z" fill="#FFFFFE"/>
<path d="M214.047 202.324L217.003 198.741C217.092 198.632 217.202 198.544 217.327 198.48C217.452 198.417 217.588 198.38 217.728 198.371C217.868 198.363 218.008 198.384 218.139 198.432C218.271 198.48 218.391 198.554 218.492 198.651L221.874 201.898C222.06 202.08 222.17 202.326 222.18 202.587C222.191 202.847 222.101 203.102 221.93 203.298L218.593 207.082C218.497 207.192 218.379 207.279 218.247 207.339C218.115 207.399 217.971 207.431 217.826 207.431C217.681 207.431 217.537 207.399 217.405 207.339C217.272 207.279 217.155 207.192 217.059 207.082L214.069 203.634C213.912 203.453 213.824 203.222 213.819 202.983C213.815 202.743 213.896 202.51 214.047 202.324Z" fill="#FFFFFE"/>
<path d="M342.332 207.609L339.253 211.169C339.121 211.322 338.958 211.445 338.775 211.529C338.592 211.614 338.393 211.658 338.191 211.659C337.99 211.66 337.79 211.618 337.606 211.535C337.423 211.453 337.258 211.332 337.125 211.181L334.382 208.068C334.145 207.799 334.019 207.451 334.03 207.094C334.04 206.736 334.186 206.396 334.438 206.142L337.047 203.488C337.28 203.253 337.588 203.108 337.918 203.077C338.247 203.046 338.577 203.132 338.849 203.32L342.063 205.515C342.228 205.627 342.367 205.773 342.472 205.943C342.576 206.113 342.643 206.303 342.668 206.501C342.694 206.699 342.677 206.9 342.619 207.091C342.561 207.282 342.463 207.458 342.332 207.609Z" fill="#FFFFFE"/>
<path d="M260.451 209.982C260.589 210.134 260.697 210.311 260.767 210.505C260.837 210.699 260.868 210.904 260.859 211.11C260.85 211.315 260.8 211.517 260.713 211.704C260.625 211.89 260.502 212.057 260.35 212.196L257.241 215.035C257.089 215.174 256.911 215.281 256.718 215.351C256.524 215.422 256.319 215.453 256.113 215.443C255.907 215.434 255.705 215.384 255.519 215.297C255.333 215.21 255.165 215.087 255.026 214.934L252.203 211.842C252.064 211.69 251.956 211.512 251.886 211.319C251.816 211.125 251.785 210.92 251.794 210.714C251.803 210.508 251.853 210.306 251.94 210.12C252.028 209.934 252.151 209.766 252.303 209.627L255.412 206.789C255.564 206.65 255.742 206.542 255.935 206.472C256.129 206.402 256.335 206.371 256.54 206.38C256.746 206.389 256.948 206.439 257.134 206.527C257.32 206.614 257.488 206.737 257.627 206.889L260.451 209.982Z" fill="#FFFFFE"/>
<path d="M180.681 347.372C180.684 348.052 180.554 348.727 180.296 349.358C180.039 349.988 179.66 350.561 179.181 351.045C178.702 351.529 178.133 351.914 177.505 352.178C176.878 352.442 176.204 352.579 175.523 352.583L160.497 352.662C159.816 352.665 159.142 352.535 158.511 352.277C157.881 352.02 157.307 351.641 156.823 351.162C156.34 350.684 155.955 350.114 155.691 349.486C155.427 348.859 155.289 348.185 155.286 347.505L155.283 347.012C155.28 346.331 155.41 345.656 155.667 345.026C155.925 344.396 156.304 343.822 156.782 343.338C157.261 342.854 157.831 342.469 158.458 342.206C159.086 341.942 159.76 341.804 160.44 341.801L175.467 341.722C176.147 341.718 176.822 341.849 177.453 342.106C178.083 342.363 178.656 342.742 179.14 343.221C179.624 343.7 180.009 344.269 180.273 344.897C180.537 345.525 180.674 346.198 180.678 346.879L180.681 347.372Z" fill="#01010A"/>
<path d="M230.495 347.461C230.495 348.824 229.954 350.131 228.99 351.095C228.026 352.059 226.719 352.6 225.356 352.6H208.135C206.771 352.6 205.464 352.059 204.5 351.095C203.537 350.131 202.995 348.824 202.995 347.461V347.035C202.995 345.672 203.537 344.365 204.5 343.401C205.464 342.437 206.771 341.896 208.135 341.896H225.356C226.719 341.896 228.026 342.437 228.99 343.401C229.954 344.365 230.495 345.672 230.495 347.035V347.461Z" fill="#010103"/>
<path d="M308.415 347.488C308.452 348.791 307.969 350.056 307.073 351.003C306.177 351.95 304.942 352.503 303.639 352.539L293.811 352.813C292.508 352.85 291.244 352.367 290.297 351.471C289.35 350.576 288.797 349.34 288.761 348.037L288.732 347.007C288.696 345.704 289.178 344.44 290.074 343.493C290.97 342.546 292.205 341.993 293.508 341.957L303.336 341.682C304.639 341.646 305.903 342.128 306.85 343.024C307.797 343.92 308.35 345.155 308.386 346.458L308.415 347.488Z" fill="#01010A"/>
<path d="M356.878 347.565C356.882 348.224 356.755 348.877 356.506 349.487C356.258 350.097 355.891 350.652 355.428 351.12C354.964 351.588 354.413 351.96 353.806 352.216C353.199 352.471 352.547 352.604 351.888 352.608L341.945 352.66C341.287 352.663 340.634 352.537 340.024 352.288C339.414 352.039 338.859 351.672 338.391 351.209C337.922 350.746 337.55 350.195 337.295 349.587C337.039 348.98 336.906 348.328 336.903 347.67L336.899 347.02C336.896 346.361 337.022 345.708 337.271 345.099C337.52 344.489 337.887 343.934 338.35 343.465C338.813 342.997 339.365 342.625 339.972 342.37C340.579 342.114 341.231 341.981 341.89 341.978L351.832 341.926C352.491 341.922 353.144 342.048 353.754 342.297C354.364 342.546 354.919 342.913 355.387 343.376C355.855 343.84 356.228 344.391 356.483 344.998C356.738 345.605 356.872 346.257 356.875 346.916L356.878 347.565Z" fill="#01010A"/>
<path d="M378.294 347.95C378.29 348.6 378.159 349.243 377.907 349.842C377.655 350.441 377.288 350.985 376.826 351.442C376.364 351.899 375.816 352.261 375.215 352.507C374.613 352.752 373.969 352.877 373.319 352.873L367.272 352.842C366.622 352.838 365.98 352.707 365.38 352.455C364.781 352.203 364.238 351.836 363.78 351.374C363.323 350.912 362.962 350.364 362.716 349.763C362.47 349.161 362.346 348.517 362.349 347.867L362.355 346.657C362.359 346.007 362.49 345.365 362.742 344.765C362.994 344.166 363.361 343.623 363.823 343.165C364.285 342.708 364.833 342.347 365.435 342.101C366.036 341.855 366.681 341.731 367.33 341.734L373.377 341.766C374.027 341.769 374.67 341.901 375.269 342.153C375.868 342.404 376.412 342.772 376.869 343.234C377.326 343.696 377.688 344.243 377.933 344.845C378.179 345.447 378.303 346.091 378.3 346.741L378.294 347.95Z" fill="#010115"/>
<path d="M265.569 346.859C265.653 347.551 265.593 348.254 265.392 348.926C265.192 349.599 264.855 350.229 264.402 350.781C263.948 351.332 263.386 351.794 262.748 352.14C262.109 352.486 261.407 352.709 260.682 352.797C259.217 352.974 257.744 352.589 256.589 351.726C255.433 350.863 254.689 349.594 254.52 348.196C254.436 347.504 254.496 346.802 254.696 346.129C254.896 345.456 255.233 344.826 255.687 344.275C256.141 343.723 256.703 343.261 257.341 342.916C257.979 342.57 258.681 342.346 259.407 342.259C260.872 342.081 262.344 342.467 263.5 343.329C264.656 344.192 265.4 345.462 265.569 346.859Z" fill="#01041C"/>
<path d="M328.112 349.33C328.112 349.913 327.881 350.471 327.469 350.882C327.057 351.294 326.499 351.525 325.917 351.525C325.335 351.525 324.777 351.294 324.365 350.882C323.954 350.471 323.723 349.913 323.723 349.33C323.723 348.748 323.954 348.19 324.365 347.779C324.777 347.367 325.335 347.136 325.917 347.136C326.499 347.136 327.057 347.367 327.469 347.779C327.881 348.19 328.112 348.748 328.112 349.33Z" fill="#01010A"/>
</svg>
