<svg width="512" height="512" viewBox="0 0 512 512" fill="none" xmlns="http://www.w3.org/2000/svg">
<rect width="512" height="512" fill="white"/>
<path d="M327.617 158.553C323.4 158.855 319.211 159.13 315.049 159.376C311.047 159.623 306.842 159.738 302.434 159.722C269.23 159.619 236.027 159.603 202.823 159.675C198.868 159.69 192.24 159.313 182.939 158.541" stroke="#80272A" stroke-width="2"/>
<path d="M368.519 202.367L339.122 206.15C338.629 206.214 338.331 206.488 338.227 206.973C337.646 209.607 336.075 211.302 333.513 212.058C333.357 212.102 333.215 212.187 333.102 212.304C332.989 212.422 332.908 212.567 332.868 212.726C332.836 212.838 332.801 212.953 332.761 213.072C332.745 213.13 332.742 213.19 332.752 213.249C332.762 213.308 332.785 213.364 332.819 213.413C332.853 213.462 332.898 213.503 332.95 213.533C333.002 213.563 333.059 213.581 333.119 213.586C336.461 213.896 342.381 215.221 341.796 219.828C341.74 220.289 341.943 220.52 342.404 220.52L373.627 220.58" stroke="#80272A" stroke-width="2"/>
<path d="M379.798 238.148C377.602 243.495 375.37 249.152 369.617 249.14C357.586 249.109 345.604 249.105 333.668 249.128C333.498 249.128 333.334 249.198 333.213 249.321C333.092 249.444 333.024 249.611 333.024 249.785L332.94 286.092C332.94 286.274 332.977 286.455 333.047 286.624C333.117 286.793 333.22 286.946 333.35 287.075C333.48 287.203 333.634 287.305 333.803 287.374C333.973 287.443 334.154 287.478 334.337 287.476L346.654 287.381C347.115 287.373 347.477 287.186 347.74 286.82C348.225 286.151 348.265 285.435 347.859 284.671C347.652 284.273 347.33 284.035 346.893 283.955C341.291 282.873 339.003 279.67 340.03 274.347C340.543 271.65 342.405 269.764 345.15 269.681C349.319 269.561 355.561 269.565 363.876 269.693C367.707 269.764 371.204 270.695 371.67 274.813C372.275 280.239 369.856 283.072 364.413 283.311C364.024 283.327 363.833 283.526 363.841 283.907C363.864 286.975 363.363 290.352 363.363 293.062C363.379 302.634 363.646 312.556 364.163 322.828" stroke="#80272A" stroke-width="2"/>
<path d="M147.564 316.311C147.89 315.635 148.053 315.134 148.053 314.808C147.926 304.456 147.886 294.076 147.934 283.669C147.935 283.483 147.866 283.303 147.74 283.165C147.614 283.026 147.441 282.938 147.253 282.917C145.618 282.75 144.21 283.072 142.837 282.32C138.672 280.041 139.698 273.226 142.682 271.089C146.74 268.165 161.981 269.394 165.824 269.538C173.797 269.848 173.928 279.432 167.818 282.714C166.704 283.319 165.641 283.844 164.631 284.289C164.432 284.378 164.259 284.515 164.128 284.689C163.997 284.863 163.913 285.068 163.884 285.283C163.855 285.497 163.883 285.716 163.963 285.916C164.044 286.116 164.175 286.292 164.345 286.426C166.397 288.073 175.086 287.655 177.843 287.643C177.99 287.64 178.129 287.58 178.232 287.475C178.335 287.37 178.392 287.229 178.392 287.082L178.332 249.773C178.332 249.391 178.142 249.2 177.76 249.2C166.779 249.025 155.835 248.957 144.926 248.997C140.192 249.013 136.488 246.678 133.814 241.991" stroke="#80272A" stroke-width="2"/>
<path d="M139.615 220.114L169.166 220.627C169.572 220.635 169.838 220.444 169.966 220.054C171.271 216.02 174.028 213.936 178.237 213.8C178.333 213.798 178.427 213.772 178.51 213.724C178.593 213.676 178.663 213.608 178.712 213.526C178.762 213.444 178.791 213.35 178.795 213.255C178.8 213.159 178.78 213.063 178.738 212.977C178.046 211.581 176.005 210.375 174.883 209.217C174.071 208.358 173.582 207.117 172.794 206.126C172.673 205.971 172.522 205.842 172.35 205.745C172.178 205.649 171.988 205.588 171.792 205.565L145.702 202.76" stroke="#80272A" stroke-width="2"/>
<path d="M327.617 158.553C323.4 158.855 319.211 159.129 315.049 159.376C311.047 159.623 306.842 159.738 302.434 159.722C269.23 159.619 236.027 159.603 202.823 159.674C198.868 159.69 192.24 159.312 182.939 158.541C185.087 156.798 187.045 154.924 189.42 153.588C232.327 129.371 282.574 130.278 324.741 155.593C325.807 156.237 326.766 157.224 327.617 158.553Z" fill="#FF4D49"/>
<path d="M182.939 158.541C192.241 159.313 198.869 159.69 202.823 159.675C236.027 159.603 269.231 159.619 302.434 159.722C306.842 159.738 311.047 159.623 315.05 159.376C319.211 159.13 323.4 158.855 327.617 158.553C347.215 157.144 366.745 154.769 386.207 151.427C390.408 150.699 400.016 147.525 403.811 149.888C405.864 151.161 406.473 153.202 405.638 156.01C402.94 165.021 401.042 175.596 396.388 183.127C394.144 186.755 389.262 186.469 385.598 187.173C385.118 187.264 384.67 187.477 384.298 187.793C383.925 188.109 383.641 188.517 383.474 188.975C382.384 191.959 381.393 195.034 380.502 198.201C379.631 201.304 371.491 202.092 368.519 202.367L339.123 206.15C338.629 206.214 338.331 206.488 338.228 206.974C337.647 209.607 336.075 211.302 333.513 212.058C333.357 212.102 333.216 212.187 333.102 212.304C332.989 212.422 332.909 212.567 332.869 212.726C332.837 212.838 332.801 212.953 332.761 213.072C332.745 213.13 332.742 213.19 332.752 213.249C332.762 213.308 332.785 213.364 332.82 213.413C332.854 213.462 332.898 213.503 332.95 213.533C333.002 213.563 333.06 213.581 333.12 213.586C336.461 213.896 342.381 215.221 341.796 219.828C341.741 220.289 341.943 220.52 342.405 220.52L373.627 220.58C382.507 222.215 379.869 231.751 379.798 238.148C377.602 243.495 375.37 249.152 369.617 249.14C357.587 249.109 345.604 249.105 333.668 249.129C333.498 249.129 333.334 249.198 333.213 249.321C333.092 249.444 333.024 249.611 333.024 249.785L332.94 286.092C332.94 286.274 332.977 286.455 333.047 286.624C333.117 286.793 333.22 286.946 333.35 287.075C333.48 287.204 333.634 287.305 333.803 287.374C333.973 287.443 334.154 287.478 334.337 287.476L346.654 287.381C347.115 287.373 347.478 287.186 347.74 286.82C348.225 286.151 348.265 285.435 347.859 284.671C347.653 284.274 347.33 284.035 346.893 283.955C341.291 282.873 339.003 279.671 340.03 274.347C340.543 271.65 342.405 269.764 345.15 269.681C349.319 269.561 355.561 269.565 363.876 269.693C367.707 269.764 371.204 270.695 371.67 274.813C372.275 280.239 369.856 283.072 364.413 283.311C364.024 283.327 363.833 283.526 363.841 283.908C363.864 286.975 363.363 290.353 363.363 293.062C363.379 302.634 363.646 312.556 364.163 322.828C363.805 324.197 363.626 326.098 363.626 328.533C363.634 339.68 363.685 350.732 363.781 361.689C363.784 361.915 363.875 362.13 364.033 362.289C364.192 362.447 364.406 362.536 364.628 362.536C370.612 362.552 376.611 362.548 382.626 362.524C385.252 362.516 387.17 363.034 388.379 364.076C390.981 366.32 391.614 369.912 389.644 372.848C387.436 376.142 384.906 375.796 381.194 375.796C296.972 375.693 212.75 375.669 128.527 375.725C120.674 375.737 119.612 362.548 129.064 362.536C135.215 362.528 141.33 362.52 147.408 362.512C147.603 362.509 147.788 362.43 147.924 362.292C148.06 362.153 148.137 361.967 148.137 361.772C148.129 347.88 148.172 333.924 148.268 319.904C148.28 318.687 147.886 317.457 147.564 316.311C147.89 315.635 148.053 315.134 148.053 314.808C147.926 304.456 147.886 294.076 147.934 283.669C147.935 283.483 147.866 283.303 147.74 283.165C147.614 283.026 147.441 282.938 147.253 282.917C145.618 282.75 144.21 283.072 142.837 282.32C138.672 280.041 139.698 273.226 142.682 271.089C146.74 268.165 161.981 269.394 165.824 269.538C173.797 269.848 173.929 279.432 167.818 282.714C166.704 283.319 165.641 283.844 164.631 284.289C164.432 284.378 164.259 284.515 164.128 284.689C163.997 284.863 163.913 285.068 163.884 285.283C163.855 285.497 163.883 285.716 163.963 285.916C164.044 286.116 164.175 286.292 164.345 286.426C166.397 288.073 175.086 287.655 177.843 287.643C177.99 287.64 178.129 287.58 178.232 287.475C178.335 287.37 178.392 287.229 178.392 287.082L178.333 249.773C178.333 249.391 178.142 249.2 177.76 249.2C166.779 249.025 155.835 248.957 144.926 248.997C140.192 249.013 136.488 246.678 133.814 241.991C132.152 236.31 131.674 231.142 132.382 226.488C132.971 222.66 135.382 220.536 139.615 220.114L169.166 220.627C169.572 220.635 169.839 220.444 169.966 220.054C171.271 216.02 174.028 213.936 178.237 213.8C178.333 213.798 178.427 213.772 178.51 213.724C178.593 213.676 178.663 213.608 178.713 213.526C178.763 213.444 178.791 213.35 178.796 213.255C178.8 213.159 178.78 213.063 178.738 212.977C178.046 211.581 176.005 210.375 174.883 209.217C174.072 208.358 173.582 207.117 172.795 206.126C172.674 205.971 172.523 205.842 172.351 205.745C172.178 205.649 171.989 205.588 171.792 205.565L145.702 202.76C140.116 202.203 136.376 201.563 134.483 200.839C130.664 199.383 129.279 192.055 128.432 188.57C128.292 187.988 127.948 187.475 127.463 187.123C126.977 186.771 126.381 186.602 125.782 186.648C115.231 187.472 113.477 180.859 110.278 171.729C108.786 167.468 104.681 156.476 106.423 152.382C107.939 148.802 111.448 148.646 115.052 149.386C137.403 153.946 160.032 156.997 182.939 158.541Z" fill="#01010A"/>
<path d="M368.519 202.367C371.749 208.016 373.452 214.087 373.627 220.58L342.404 220.52C341.943 220.52 341.74 220.289 341.796 219.828C342.381 215.221 336.461 213.896 333.119 213.586C333.059 213.581 333.002 213.563 332.95 213.533C332.898 213.503 332.853 213.462 332.819 213.413C332.785 213.364 332.762 213.308 332.752 213.249C332.742 213.19 332.745 213.13 332.761 213.072C332.801 212.953 332.836 212.838 332.868 212.726C332.908 212.567 332.989 212.422 333.102 212.304C333.215 212.187 333.357 212.102 333.513 212.058C336.075 211.302 337.646 209.607 338.227 206.973C338.331 206.488 338.629 206.214 339.122 206.15L368.519 202.367Z" fill="#FF4D49"/>
<path d="M145.702 202.76L171.792 205.565C171.988 205.588 172.178 205.649 172.35 205.745C172.522 205.842 172.673 205.971 172.794 206.126C173.582 207.117 174.071 208.358 174.883 209.217C176.005 210.375 178.046 211.581 178.738 212.977C178.78 213.063 178.8 213.159 178.795 213.255C178.791 213.35 178.762 213.444 178.712 213.526C178.663 213.608 178.593 213.676 178.51 213.724C178.427 213.772 178.333 213.798 178.237 213.8C174.028 213.936 171.271 216.02 169.966 220.054C169.838 220.444 169.572 220.635 169.166 220.627L139.615 220.114L145.702 202.76Z" fill="#FF4D49"/>
<path d="M379.798 238.148C386.398 267.091 379.965 297.764 364.163 322.828C363.646 312.556 363.379 302.634 363.363 293.062C363.363 290.352 363.864 286.975 363.841 283.907C363.833 283.526 364.024 283.327 364.413 283.311C369.856 283.072 372.275 280.239 371.67 274.813C371.204 270.695 367.707 269.764 363.876 269.693C355.561 269.565 349.319 269.561 345.15 269.681C342.405 269.764 340.543 271.65 340.03 274.347C339.003 279.67 341.291 282.873 346.893 283.955C347.33 284.035 347.652 284.273 347.859 284.671C348.265 285.435 348.225 286.151 347.74 286.82C347.477 287.186 347.115 287.373 346.654 287.381L334.337 287.476C334.154 287.478 333.973 287.443 333.803 287.374C333.634 287.305 333.48 287.203 333.35 287.075C333.22 286.946 333.117 286.793 333.047 286.624C332.977 286.455 332.94 286.274 332.94 286.092L333.024 249.785C333.024 249.611 333.092 249.444 333.213 249.321C333.334 249.198 333.498 249.128 333.668 249.128C345.604 249.105 357.586 249.109 369.617 249.14C375.37 249.152 377.602 243.495 379.798 238.148Z" fill="#FF4D49"/>
<path d="M133.814 241.991C136.487 246.678 140.191 249.013 144.926 248.997C155.834 248.957 166.779 249.025 177.759 249.2C178.141 249.2 178.332 249.391 178.332 249.773L178.392 287.082C178.392 287.229 178.334 287.37 178.232 287.475C178.129 287.58 177.989 287.64 177.843 287.643C175.086 287.655 166.397 288.073 164.344 286.426C164.175 286.292 164.043 286.116 163.963 285.916C163.882 285.716 163.855 285.497 163.884 285.283C163.913 285.068 163.996 284.863 164.127 284.689C164.258 284.515 164.431 284.378 164.63 284.289C165.641 283.844 166.703 283.319 167.817 282.714C173.928 279.432 173.797 269.848 165.824 269.538C161.981 269.394 146.74 268.165 142.682 271.089C139.698 273.226 138.672 280.041 142.837 282.32C144.209 283.072 145.618 282.75 147.253 282.917C147.44 282.938 147.614 283.026 147.739 283.165C147.865 283.303 147.934 283.483 147.933 283.669C147.885 294.076 147.925 304.456 148.053 314.808C148.053 315.134 147.889 315.635 147.563 316.311C147.412 316.272 147.237 316.188 147.038 316.061C146.879 315.965 146.748 315.822 146.644 315.631C133.85 293.42 127.834 267.449 133.814 241.991Z" fill="#FF4D49"/>
<path d="M208.457 352.714L195.782 352.988" stroke="#758EB3" stroke-width="2"/>
<path d="M316.708 352.785L303.09 352.845" stroke="#758EB3" stroke-width="2"/>
<path d="M178.69 352.833L164.905 353.084" stroke="#758EB3" stroke-width="2"/>
<path d="M347.788 352.917L333.8 353.036" stroke="#758EB3" stroke-width="2"/>
<path d="M220.726 176.849C216.776 176.885 213.339 174.844 209.686 174.808C196.104 174.689 185.526 174.16 177.951 173.221C159.81 170.977 141.716 169.509 123.837 165.523C122.154 165.141 120.817 164.091 121.414 162.253C121.488 162.033 121.636 161.846 121.833 161.726C122.03 161.606 122.262 161.56 122.488 161.596C152.827 166.108 183.047 170.19 214.27 170.416C217.695 170.44 220.965 171.753 224.438 171.765C235.259 171.829 256.699 171.817 288.757 171.729C290.559 171.729 292.54 170.643 294.76 170.595C326.484 169.927 357.706 165.881 389.084 161.656C389.999 161.537 390.365 161.926 390.182 162.826L390.074 163.315C389.836 164.445 389.151 165.137 388.022 165.392C379.699 167.23 371.479 168.642 363.363 169.629C344.327 171.944 324.813 174.259 305.633 174.558C301.456 174.629 297.935 176.36 293.925 176.372C269.521 176.444 245.122 176.603 220.726 176.849Z" fill="#FFFFFE"/>
<path d="M204.602 219.875C203.325 215.543 201.081 214.266 196.653 213.836C196.418 213.814 196.197 213.716 196.023 213.556C195.849 213.397 195.732 213.186 195.689 212.954C195.646 212.722 195.679 212.482 195.784 212.271C195.889 212.06 196.06 211.889 196.271 211.783C198.499 210.661 200.003 208.879 200.783 206.436C200.841 206.246 200.959 206.078 201.12 205.958C201.28 205.838 201.476 205.771 201.678 205.768L232.53 205.637C233.024 205.637 233.318 205.875 233.413 206.353L235.896 219.446C235.924 219.595 235.919 219.748 235.881 219.894C235.843 220.041 235.773 220.177 235.676 220.294C235.579 220.41 235.457 220.504 235.32 220.567C235.183 220.631 235.033 220.664 234.881 220.663L205.497 220.544C205.036 220.544 204.737 220.321 204.602 219.875Z" fill="#FF4D49"/>
<path d="M314.691 213.872C310.705 214.111 308.604 216.438 307.124 220.007C307.064 220.158 306.959 220.288 306.823 220.38C306.687 220.471 306.526 220.52 306.361 220.52L276.773 220.568C276.645 220.569 276.518 220.542 276.401 220.49C276.284 220.438 276.179 220.361 276.094 220.265C276.009 220.169 275.946 220.055 275.909 219.933C275.871 219.81 275.861 219.68 275.878 219.553L277.633 206.305C277.672 205.971 277.863 205.804 278.206 205.804L309.249 205.816C309.403 205.816 309.556 205.855 309.693 205.93C309.83 206.005 309.948 206.113 310.036 206.246C311.453 208.45 313.203 210.343 315.288 211.927C315.464 212.062 315.594 212.247 315.661 212.458C315.728 212.669 315.73 212.895 315.665 213.107C315.6 213.318 315.472 213.505 315.298 213.642C315.124 213.779 314.912 213.859 314.691 213.872Z" fill="#FF4D49"/>
<path d="M179.311 234.245C179.313 234.349 179.294 234.452 179.256 234.548C179.218 234.644 179.161 234.732 179.089 234.806C179.017 234.88 178.931 234.94 178.836 234.981C178.741 235.022 178.639 235.044 178.535 235.045L148.757 235.296C148.464 235.299 148.173 235.257 147.901 235.17C147.628 235.084 147.381 234.956 147.171 234.793C146.962 234.63 146.794 234.435 146.68 234.221C146.565 234.006 146.504 233.775 146.502 233.541V232.777C146.496 232.306 146.725 231.852 147.139 231.514C147.553 231.176 148.118 230.982 148.71 230.975L178.488 230.725C178.591 230.723 178.694 230.742 178.79 230.78C178.886 230.818 178.974 230.875 179.048 230.947C179.122 231.019 179.182 231.105 179.223 231.2C179.264 231.295 179.286 231.397 179.287 231.5L179.311 234.245Z" fill="#FFFFFE"/>
<path d="M196.199 230.904L237.256 230.629C237.512 230.627 237.762 230.713 237.963 230.871C238.165 231.029 238.307 231.251 238.366 231.5L238.915 233.696C238.957 233.863 238.96 234.038 238.924 234.206C238.889 234.374 238.815 234.532 238.709 234.668C238.603 234.804 238.468 234.914 238.314 234.989C238.159 235.065 237.989 235.104 237.817 235.105L196.163 235.152C196.013 235.153 195.863 235.122 195.724 235.064C195.585 235.005 195.459 234.92 195.353 234.812C195.248 234.704 195.165 234.576 195.109 234.436C195.053 234.296 195.026 234.146 195.03 233.995L195.077 232.014C195.084 231.719 195.204 231.438 195.413 231.231C195.623 231.024 195.905 230.907 196.199 230.904Z" fill="#FFFFFE"/>
<path d="M274.553 230.82L315.825 230.689C315.921 230.687 316.015 230.705 316.104 230.741C316.192 230.777 316.272 230.831 316.339 230.899C316.406 230.967 316.459 231.048 316.494 231.137C316.528 231.226 316.544 231.321 316.541 231.417L316.458 234.424C316.451 234.607 316.374 234.78 316.243 234.907C316.112 235.034 315.936 235.105 315.753 235.105L273.479 235.164C273.366 235.165 273.254 235.139 273.153 235.087C273.051 235.035 272.964 234.96 272.899 234.867C272.833 234.775 272.791 234.668 272.775 234.555C272.76 234.443 272.772 234.328 272.811 234.222L273.897 231.274C273.948 231.14 274.037 231.026 274.155 230.945C274.272 230.864 274.411 230.82 274.553 230.82Z" fill="#FFFFFE"/>
<path d="M365.642 234.019C365.642 234.322 365.521 234.614 365.307 234.829C365.092 235.044 364.8 235.164 364.496 235.164H333.847C333.543 235.164 333.252 235.044 333.037 234.829C332.822 234.614 332.701 234.322 332.701 234.019V231.87C332.701 231.566 332.822 231.275 333.037 231.06C333.252 230.845 333.543 230.724 333.847 230.724H364.496C364.8 230.724 365.092 230.845 365.307 231.06C365.521 231.275 365.642 231.566 365.642 231.87V234.019Z" fill="#FFFFFE"/>
<path d="M200.603 275.111C199.911 280.446 203.742 282.368 207.729 284.349C208.019 284.494 208.242 284.751 208.349 285.065C208.827 286.489 208.445 287.225 207.203 287.273C203.313 287.416 199.481 287.456 195.71 287.393C195.525 287.389 195.349 287.314 195.22 287.182C195.09 287.05 195.018 286.873 195.018 286.688L195.185 249.725C195.193 249.184 195.463 248.914 195.996 248.914L315.777 249.069C315.888 249.069 315.994 249.113 316.073 249.191C316.151 249.269 316.195 249.376 316.195 249.487L316.398 286.879C316.398 287.044 316.333 287.202 316.216 287.318C316.1 287.435 315.942 287.5 315.777 287.5L304.546 287.512C304.021 287.512 303.608 287.305 303.305 286.891C302.386 285.638 302.923 284.445 304.308 283.86C308.437 282.117 311.314 279.635 310.586 274.777C310.053 271.244 307.845 269.454 303.962 269.406C298.105 269.343 292.237 269.39 286.357 269.55C281.046 269.705 278.218 272.557 278.958 277.868C279.451 281.409 281.862 283.16 286.19 283.12C286.588 283.12 286.791 283.319 286.799 283.717L287.061 361.904C287.061 362.084 286.991 362.257 286.866 362.385C286.74 362.512 286.57 362.584 286.393 362.584L224.963 362.656C224.128 362.656 223.71 362.242 223.71 361.414L223.638 284.349C223.638 283.792 223.917 283.498 224.474 283.466C225.094 283.426 225.942 283.347 227.016 283.227C232.613 282.618 234.475 274.097 229.904 270.707C226.562 268.225 212.276 269.394 207.681 269.454C203.718 269.514 201.117 271.185 200.603 275.111Z" fill="#FF4D49"/>
<path d="M178.327 312.098C178.327 312.179 178.311 312.26 178.279 312.335C178.247 312.41 178.201 312.478 178.143 312.536C178.085 312.593 178.017 312.638 177.941 312.669C177.866 312.7 177.785 312.716 177.704 312.715L165.506 312.651C165.425 312.651 165.344 312.634 165.269 312.603C165.194 312.571 165.126 312.525 165.068 312.467C165.011 312.409 164.966 312.341 164.935 312.265C164.904 312.19 164.888 312.109 164.889 312.027L164.946 301.143C164.946 301.061 164.963 300.981 164.994 300.905C165.026 300.83 165.072 300.762 165.13 300.705C165.188 300.647 165.256 300.602 165.332 300.571C165.407 300.541 165.488 300.525 165.57 300.525L177.767 300.589C177.849 300.59 177.929 300.606 178.004 300.638C178.08 300.669 178.148 300.715 178.205 300.773C178.262 300.831 178.308 300.9 178.338 300.975C178.369 301.051 178.385 301.132 178.384 301.213L178.327 312.098Z" fill="#FF4D49"/>
<path d="M207.287 312.48L195.948 312.779C195.863 312.78 195.778 312.765 195.698 312.733C195.619 312.701 195.546 312.654 195.485 312.594C195.424 312.534 195.375 312.463 195.342 312.384C195.309 312.305 195.292 312.22 195.292 312.134V301.321C195.292 301.15 195.36 300.986 195.481 300.865C195.602 300.744 195.766 300.676 195.937 300.676L207.394 300.688C207.48 300.688 207.565 300.705 207.644 300.739C207.723 300.772 207.794 300.82 207.854 300.881C207.914 300.942 207.962 301.015 207.993 301.095C208.025 301.174 208.04 301.259 208.039 301.345L207.919 311.848C207.916 312.015 207.849 312.174 207.731 312.292C207.613 312.41 207.454 312.477 207.287 312.48Z" fill="#FF4D49"/>
<path d="M316.537 312.027C316.537 312.12 316.519 312.211 316.484 312.297C316.449 312.382 316.397 312.46 316.332 312.526C316.267 312.591 316.19 312.644 316.104 312.679C316.019 312.715 315.927 312.733 315.835 312.734L303.804 312.776C303.712 312.776 303.62 312.758 303.535 312.723C303.449 312.688 303.371 312.636 303.306 312.571C303.24 312.506 303.188 312.429 303.152 312.343C303.117 312.258 303.098 312.166 303.098 312.074L303.06 301.285C303.06 301.192 303.078 301.101 303.113 301.015C303.148 300.93 303.199 300.852 303.265 300.786C303.33 300.72 303.407 300.668 303.492 300.633C303.578 300.597 303.669 300.578 303.762 300.578L315.792 300.536C315.885 300.536 315.976 300.554 316.062 300.589C316.148 300.624 316.225 300.675 316.291 300.741C316.357 300.806 316.409 300.883 316.444 300.969C316.48 301.054 316.499 301.145 316.499 301.238L316.537 312.027Z" fill="#FF4D49"/>
<path d="M347.52 312.121C347.52 312.214 347.502 312.306 347.467 312.391C347.432 312.477 347.381 312.554 347.315 312.62C347.25 312.686 347.173 312.738 347.087 312.774C347.002 312.809 346.911 312.828 346.818 312.828L334.024 312.873C333.931 312.873 333.84 312.855 333.754 312.82C333.669 312.785 333.591 312.733 333.525 312.668C333.46 312.603 333.407 312.526 333.372 312.44C333.336 312.355 333.317 312.263 333.317 312.171L333.279 301.215C333.278 301.122 333.296 301.03 333.332 300.945C333.367 300.859 333.418 300.781 333.483 300.716C333.549 300.65 333.626 300.598 333.711 300.562C333.797 300.527 333.888 300.508 333.981 300.508L346.775 300.463C346.868 300.463 346.959 300.481 347.045 300.516C347.13 300.551 347.208 300.603 347.274 300.668C347.339 300.733 347.391 300.81 347.427 300.896C347.463 300.981 347.481 301.073 347.482 301.165L347.52 312.121Z" fill="#FF4D49"/>
<path d="M316.735 336.196C316.736 336.304 316.715 336.411 316.674 336.512C316.634 336.612 316.573 336.703 316.497 336.78C316.421 336.856 316.331 336.918 316.231 336.96C316.131 337.001 316.024 337.023 315.916 337.024L304.148 337.085C303.93 337.087 303.72 337.001 303.565 336.847C303.41 336.694 303.322 336.485 303.32 336.266L303.268 326.145C303.267 326.037 303.288 325.93 303.328 325.83C303.369 325.73 303.43 325.639 303.506 325.562C303.582 325.485 303.672 325.424 303.772 325.382C303.872 325.34 303.979 325.318 304.087 325.318L315.855 325.256C316.073 325.255 316.283 325.341 316.438 325.494C316.593 325.648 316.681 325.857 316.682 326.075L316.735 336.196Z" fill="#FF4D49"/>
<path d="M347.682 336.157C347.683 336.261 347.663 336.363 347.624 336.459C347.585 336.555 347.527 336.642 347.454 336.716C347.382 336.789 347.295 336.848 347.2 336.888C347.104 336.928 347.002 336.949 346.899 336.949L334.009 337.017C333.8 337.018 333.599 336.936 333.451 336.789C333.302 336.642 333.218 336.442 333.217 336.233L333.165 326.208C333.164 326.104 333.184 326.002 333.223 325.906C333.262 325.81 333.32 325.723 333.392 325.65C333.465 325.576 333.552 325.518 333.647 325.478C333.742 325.437 333.845 325.417 333.948 325.416L346.838 325.349C347.047 325.347 347.248 325.429 347.396 325.576C347.545 325.723 347.629 325.923 347.63 326.132L347.682 336.157Z" fill="#FF4D49"/>
<path d="M178.675 336.339C178.676 336.494 178.614 336.643 178.505 336.752C178.395 336.862 178.247 336.924 178.092 336.924L165.536 336.946C165.459 336.947 165.383 336.932 165.312 336.902C165.241 336.873 165.176 336.83 165.122 336.776C165.067 336.722 165.024 336.657 164.995 336.586C164.965 336.515 164.95 336.439 164.95 336.363L164.932 326.194C164.932 326.039 164.993 325.89 165.103 325.78C165.212 325.67 165.361 325.608 165.516 325.608L178.072 325.586C178.149 325.586 178.225 325.601 178.296 325.63C178.367 325.659 178.431 325.702 178.486 325.757C178.54 325.811 178.583 325.875 178.613 325.946C178.642 326.017 178.657 326.093 178.658 326.17L178.675 336.339Z" fill="#FF4D49"/>
<path d="M208.035 336.053C208.035 336.153 208.016 336.253 207.978 336.345C207.939 336.438 207.883 336.522 207.812 336.594C207.742 336.665 207.658 336.721 207.565 336.76C207.472 336.798 207.373 336.818 207.273 336.818L196.101 336.838C196.001 336.838 195.902 336.818 195.809 336.78C195.716 336.742 195.632 336.686 195.561 336.615C195.49 336.544 195.433 336.46 195.395 336.367C195.356 336.275 195.336 336.176 195.336 336.075L195.319 326.384C195.319 326.284 195.339 326.184 195.377 326.091C195.415 325.999 195.471 325.914 195.542 325.843C195.613 325.772 195.697 325.716 195.79 325.677C195.882 325.639 195.982 325.619 196.082 325.619L207.253 325.599C207.353 325.599 207.453 325.619 207.546 325.657C207.638 325.695 207.723 325.751 207.794 325.822C207.865 325.893 207.921 325.977 207.96 326.069C207.998 326.162 208.018 326.261 208.018 326.362L208.035 336.053Z" fill="#FF4D49"/>
<path d="M208.456 352.714L195.781 352.988C195.224 351.349 195.578 350.462 196.844 350.327C199.867 350 203.531 350.008 207.836 350.35C208.281 350.382 208.5 350.625 208.492 351.079L208.456 352.714Z" fill="#C1D7FE"/>
<path d="M316.709 352.785L303.09 352.845C302.764 352.073 302.709 351.453 302.923 350.983C303.098 350.601 303.552 350.382 304.284 350.327C308.143 350.04 312.002 350.028 315.861 350.291C316.283 350.315 316.514 350.538 316.553 350.959L316.709 352.785Z" fill="#C1D7FE"/>
<path d="M178.691 352.833L164.906 353.084C164.563 352.232 164.504 351.556 164.727 351.055C164.91 350.617 165.411 350.382 166.23 350.351C170.129 350.176 174.016 350.247 177.891 350.565C178.345 350.605 178.583 350.848 178.607 351.293L178.691 352.833Z" fill="#C1D7FE"/>
<path d="M347.788 352.917L333.8 353.036C333.521 352.24 333.517 351.524 333.788 350.888C333.963 350.474 334.273 350.267 334.719 350.267L346.881 350.243C347.286 350.243 347.509 350.442 347.549 350.84L347.788 352.917Z" fill="#C1D7FE"/>
<path d="M178.69 352.833L178.905 362.68C178.913 363.165 178.678 363.408 178.201 363.408L165.872 363.396C165.625 363.396 165.388 363.299 165.214 363.126C165.039 362.954 164.941 362.72 164.941 362.477L164.905 353.084L178.69 352.833Z" fill="#284567"/>
<path d="M208.457 352.714L208.588 362.859C208.59 362.957 208.572 363.055 208.535 363.147C208.499 363.239 208.445 363.323 208.376 363.394C208.308 363.465 208.225 363.521 208.135 363.561C208.044 363.6 207.947 363.621 207.848 363.622L196.283 363.79C195.829 363.797 195.607 363.575 195.614 363.121L195.782 352.988L208.457 352.714Z" fill="#284567"/>
<path d="M303.09 352.845L316.708 352.785L316.732 362.644C316.732 363.177 316.466 363.443 315.933 363.443H304.594C304.205 363.443 303.831 363.29 303.556 363.017C303.281 362.744 303.126 362.373 303.126 361.987L303.09 352.845Z" fill="#284567"/>
<path d="M347.788 352.917L347.811 362.393C347.815 362.627 347.723 362.853 347.558 363.021C347.392 363.189 347.166 363.285 346.928 363.288L334.695 363.455C334.576 363.457 334.458 363.435 334.349 363.391C334.239 363.346 334.138 363.281 334.054 363.197C333.97 363.114 333.903 363.015 333.857 362.906C333.811 362.796 333.788 362.679 333.788 362.56L333.8 353.036L347.788 352.917Z" fill="#284567"/>
</svg>
