<svg width="1024" height="1024" viewBox="0 0 1024 1024" fill="none" xmlns="http://www.w3.org/2000/svg">
<rect width="1024" height="1024" fill="white"/>
<path d="M414.105 424.151C385.428 415.933 375.592 380.657 392.89 358.163C393.301 357.628 393.322 357.079 392.952 356.513C386.117 345.926 383.306 335.221 384.518 324.398C385.834 312.588 391.148 302.674 400.46 294.657C403.159 292.329 407.491 289.708 410.898 287.056C411.289 286.748 411.489 286.347 411.5 285.854C412.471 255.758 439.514 231.321 469.609 240.664C469.848 240.742 470.108 240.734 470.344 240.641C470.58 240.549 470.778 240.377 470.904 240.156C489.344 208.179 533.855 202.027 559.402 229.009C562.069 231.815 564.783 236.008 567.527 239.462C567.846 239.873 568.262 240.022 568.776 239.909C599.581 233.125 624.712 255.527 624.588 286.255C624.588 286.789 624.809 287.205 625.251 287.503C626.721 288.511 628.217 289.446 629.738 290.31C652.695 303.276 658.245 333.726 643.521 354.941C643.213 355.372 643.208 355.809 643.506 356.251C660.373 381.721 650.166 413.143 622.615 425.508C622.519 425.553 622.438 425.623 622.38 425.711C622.322 425.799 622.29 425.902 622.287 426.007C622.283 426.113 622.309 426.217 622.362 426.308C622.414 426.4 622.491 426.475 622.584 426.525C635.967 433.494 648.738 441.224 660.897 449.714C734.285 500.947 770.81 584.974 777.64 672.176C777.664 672.464 777.754 672.742 777.904 672.988C778.054 673.234 778.259 673.442 778.504 673.595C781.094 675.198 784.378 676.509 786.629 677.881C803.609 688.231 814.504 703.515 819.314 723.733C827.964 760.165 805.438 800.544 769.083 810.103C764.366 811.347 757.721 811.964 749.148 811.954C590.911 811.779 432.673 811.794 274.436 812C266.86 812.01 260.678 811.373 255.888 810.088C221.491 800.899 199.983 768.707 203.344 733.138C205.965 705.314 220.504 685.24 246.961 672.916C247.444 672.69 247.712 672.315 247.763 671.791C249.253 655.088 250.477 643.725 251.432 637.702C261.793 572.994 291.642 518.77 338.311 473.75C354.151 458.466 371.732 445.381 391.056 434.496C398.415 430.354 406.098 427.08 414.105 424.675C414.16 424.656 414.207 424.621 414.24 424.574C414.273 424.527 414.291 424.471 414.291 424.413C414.291 424.355 414.273 424.299 414.24 424.252C414.207 424.205 414.16 424.17 414.105 424.151Z" fill="#01020B"/>
<path d="M288.605 282.015C288.893 274.697 288.949 269.681 288.774 266.967C287.726 250.81 308.216 250.501 307.646 265.41C307.43 270.971 307.204 276.521 306.967 282.061C306.937 282.678 307.235 282.956 307.862 282.894C311.891 282.493 315.858 282.139 319.764 281.83C327.781 281.183 335.567 287.072 331.744 295.521C327.72 304.402 315.046 301.827 307.291 301.164C307.17 301.152 307.048 301.167 306.933 301.208C306.819 301.249 306.715 301.314 306.628 301.399C306.541 301.484 306.474 301.587 306.432 301.701C306.389 301.815 306.372 301.937 306.382 302.058C306.921 309.32 309.943 323.967 303.36 329.055C296.206 334.543 288.99 327.945 288.852 320.498C288.738 314.403 288.759 308.41 288.913 302.521C288.918 302.375 288.888 302.23 288.827 302.098C288.766 301.966 288.676 301.85 288.562 301.758C288.448 301.667 288.315 301.604 288.173 301.573C288.03 301.542 287.883 301.544 287.742 301.58C282.268 302.968 274.297 303.785 269.487 300.717C264.368 297.479 263.258 290.433 267.174 285.823C271.121 281.167 281.867 282.755 287.695 282.863C288.281 282.873 288.584 282.591 288.605 282.015Z" fill="#008B94"/>
<path d="M738.881 285.576C741.676 285.545 746.26 285.504 752.633 285.453C760.866 285.376 766.663 292.792 762.038 300.146C757.305 307.655 746.867 304.941 739.096 304.895C738.961 304.893 738.826 304.918 738.7 304.969C738.574 305.019 738.459 305.095 738.361 305.191C738.264 305.287 738.186 305.401 738.133 305.528C738.079 305.654 738.05 305.79 738.048 305.928C738.017 312.264 739.22 324.198 736.753 329.332C734.086 334.867 724.372 335.854 720.873 330.272C717.974 325.647 719.778 311.879 720.256 306.313C720.267 306.196 720.253 306.078 720.215 305.967C720.177 305.856 720.116 305.754 720.036 305.668C719.956 305.582 719.858 305.514 719.75 305.469C719.642 305.423 719.525 305.401 719.408 305.403C713.58 305.542 703.651 306.051 698.949 303.522C693.074 300.362 693.136 290.309 699.056 287.164C703.651 284.744 713.333 285.7 718.853 285.807C718.996 285.81 719.138 285.783 719.27 285.729C719.402 285.675 719.522 285.595 719.621 285.494C719.721 285.393 719.799 285.273 719.849 285.141C719.9 285.01 719.923 284.869 719.917 284.728C719.624 276.403 716.463 262.928 725.236 258.395C732.76 254.494 738.958 261.833 738.634 268.91C738.408 274.131 738.187 279.373 737.971 284.636C737.95 285.263 738.254 285.576 738.881 285.576Z" fill="#008B94"/>
<path d="M766.555 385.591C766.533 385.766 766.568 385.943 766.654 386.097C766.741 386.25 766.875 386.372 767.036 386.443C767.197 386.514 767.377 386.531 767.549 386.491C767.721 386.452 767.875 386.358 767.989 386.223C770.934 382.6 774.295 377.528 777.98 375.431C786.83 370.389 798.778 379.332 791.964 389.492C789.63 392.976 786.434 395.597 782.374 397.355C781.675 397.653 781.212 398.033 780.986 398.496C780.923 398.62 780.885 398.756 780.875 398.895C780.865 399.034 780.883 399.173 780.927 399.305C780.972 399.438 781.042 399.559 781.134 399.664C781.227 399.768 781.339 399.854 781.464 399.914C788.834 403.352 797.175 408.872 792.488 418.493C790.175 423.241 786.531 425.009 781.557 423.796C775.852 422.424 771.52 416.365 768.097 411.678C767.778 411.236 767.439 411.226 767.079 411.647C762.932 416.535 761.113 421.638 753.388 422.455C744.508 423.396 737.184 414.006 742.843 406.59C745.664 402.89 750.706 402.659 753.789 399.19C753.977 398.979 754.116 398.729 754.194 398.457C754.272 398.186 754.288 397.9 754.24 397.622C754.193 397.343 754.083 397.079 753.92 396.849C753.756 396.618 753.543 396.428 753.296 396.291C747.268 392.93 740.623 390.124 742.318 381.829C743.907 374.136 751.168 371.299 758.014 375.338C759.545 376.253 761.92 378.391 765.137 381.752C766.17 382.832 766.756 384.204 766.555 385.591Z" fill="#008B94"/>
<path d="M283.224 443.562C283.173 448.485 283.219 453.414 283.363 458.348C283.502 463.405 282.885 466.55 278.568 468.847C270.982 472.902 264.461 467.567 264.384 459.273C264.332 454.051 264.306 448.814 264.306 443.562C264.306 443.027 264.039 442.765 263.505 442.776C255.904 442.945 240.918 444.533 239.237 434.327C238.42 429.347 241.812 424.259 246.838 423.18C250.199 422.44 258.494 422.825 263.505 423.103C263.62 423.109 263.735 423.092 263.843 423.052C263.952 423.012 264.051 422.95 264.134 422.871C264.218 422.792 264.285 422.696 264.33 422.59C264.376 422.484 264.399 422.37 264.399 422.254C264.353 416.288 263.027 403.244 266.696 398.496C272.74 390.679 284.319 395.921 283.856 404.925C283.548 410.845 283.286 416.725 283.07 422.563C283.06 422.964 283.255 423.154 283.656 423.133C291.395 422.856 312.518 419.911 307.584 435.637C304.562 445.335 292.552 442.868 284.057 442.745C283.502 442.734 283.224 443.007 283.224 443.562Z" fill="#008B94"/>
<path d="M552.094 266.043C549.638 266.834 547.675 265.986 546.205 263.499C544.673 260.898 543.615 259.279 543.029 258.642C541.096 256.504 539.18 254.356 537.278 252.198C528.952 242.731 518.576 243.132 505.533 244.412C504.998 244.463 504.52 244.653 504.099 244.982C500.543 247.696 496.544 249.803 492.104 251.303" stroke="#C1F6F1" stroke-width="2"/>
<path d="M563.118 266.736C577.672 273.042 585.458 288.814 581.018 304.139C579.661 308.78 575.437 311.339 571.922 314.423C567.898 317.954 567.435 324.136 568.468 328.977C570.025 336.239 576.886 338.305 574.512 347.571C573.083 353.142 569.748 357.068 564.506 359.35C558.585 361.925 555.579 359.828 550.63 356.991C544.339 353.384 535.042 361.971 539.806 366.458C551.786 377.682 548.595 396.43 532.884 402.057C517.852 407.438 516.896 375.755 500.707 393.131C490.948 403.615 484.441 416.997 469.64 400.901C462.841 393.485 450.414 376.079 439.468 389.369C436.148 393.398 432.987 397.705 429.986 402.289" stroke="#C1F6F1" stroke-width="2"/>
<path d="M469.471 428.637C461.371 424.341 455.333 418.487 451.355 411.076C449.412 407.453 447.686 402.951 445.311 401.517C443.811 400.613 442.958 400.854 442.752 402.242" stroke="#C1F6F1" stroke-width="2"/>
<path d="M467.852 431.875C463.977 430.385 459.989 429.609 455.888 429.547C455.426 429.537 455.066 429.727 454.809 430.117C454.295 430.909 453.642 430.965 452.851 430.287C449.171 427.142 445.394 424.161 441.519 421.345" stroke="#C1F6F1" stroke-width="2"/>
<path d="M440.347 456.667C428.486 461.755 418.963 466.426 411.778 470.682C403.622 475.508 359.281 505.217 359.034 515.131C359.024 515.717 359.27 516.154 359.774 516.442L362.179 517.86C362.661 518.141 363.044 518.566 363.274 519.078C367.668 528.745 350.971 535.991 349.213 523.673C349.194 523.542 349.14 523.42 349.055 523.319C348.971 523.218 348.86 523.143 348.735 523.101C348.611 523.06 348.477 523.054 348.349 523.084C348.221 523.114 348.104 523.179 348.01 523.272C341.576 529.583 336.257 536.942 332.053 545.35" stroke="#FFA19B" stroke-width="2"/>
<path d="M323.65 569.972C323.578 570.301 323.938 570.475 324.729 570.496" stroke="#D8AD99" stroke-width="2"/>
<path d="M324.729 570.495C325.603 571.348 326.785 571.811 328.276 571.883C345.728 572.808 363.135 572.021 380.573 571.528C386.586 571.358 395.219 572.253 402.651 571.312" stroke="#FFE28F" stroke-width="2"/>
<path d="M402.649 571.313L484.055 571.267" stroke="#D8AD99" stroke-width="2"/>
<path d="M484.055 571.267L639.728 571.822C639.965 571.826 640.192 571.909 640.374 572.058C640.556 572.206 640.682 572.411 640.73 572.639L641.917 578.081C642.041 578.647 641.81 578.934 641.224 578.945C625.405 579.176 609.586 577.68 593.752 579.376C589.805 579.808 584.209 578.96 581.757 578.96C566.381 578.97 550.999 579.027 535.612 579.13C535.312 579.13 535.02 579.227 534.78 579.407C534.296 579.746 533.767 579.885 533.191 579.823C529.06 579.392 524.712 579.823 520.503 579.53C516.247 579.243 512.46 579.13 509.14 579.191C500.86 579.361 492.751 578.513 484.41 578.775C476.408 579.037 469.424 578.266 460.481 579.099C454.181 579.695 442.921 579.613 426.701 578.852C426.208 578.832 425.612 578.878 424.913 578.991C420.75 579.731 416.495 579.238 412.301 579.392C408.231 579.546 404.633 579.597 401.508 579.546C371.321 579.022 340.547 577.973 310.405 579.376C309.881 579.407 309.603 579.68 309.572 580.193L309.495 581.812" stroke="#FFE28F" stroke-width="2"/>
<path d="M309.496 581.813C303.391 588.489 296.407 592.991 295.065 602.782" stroke="#808185" stroke-width="2"/>
<path d="M295.065 602.781C294.957 610.228 292.551 615.547 290.378 622.439C289.36 625.677 288.322 628.966 287.263 632.306" stroke="#FFE28F" stroke-width="2"/>
<path d="M459.203 466.164C460.313 466.914 461.664 467.29 463.257 467.29C463.782 467.29 464.249 467.449 464.66 467.767C480.572 480.256 491.873 491.665 513.411 493.376C532.324 494.867 548.795 488.72 562.825 474.937C565.344 472.46 567.317 470.579 568.746 469.294C569.126 468.965 569.563 468.852 570.056 468.955C587.201 472.532 600.352 482.63 614.814 493.762C626.912 503.064 634.23 514.124 636.769 526.941" stroke="#C32D36" stroke-width="2"/>
<path d="M636.769 526.94C633.479 528.904 631.773 530.507 631.65 531.751C631.259 535.79 633.032 538.555 636.969 540.046" stroke="#802221" stroke-width="2"/>
<path d="M636.969 540.046C637.627 541.855 637.005 543.803 635.104 545.889" stroke="#C32D36" stroke-width="2"/>
<path d="M642.119 570.928L484.056 571.267" stroke="#D78F29" stroke-width="2"/>
<path d="M402.651 571.312L324.729 570.495" stroke="#D78F29" stroke-width="2"/>
<path d="M718.976 599.251C712.886 599.42 704.823 600.962 699.103 598.233" stroke="#D78F29" stroke-width="2"/>
<path d="M699.103 598.233L683.099 582.091" stroke="#806315" stroke-width="2"/>
<path d="M683.099 582.09C683.675 579.983 683.67 578.266 683.084 576.94C682.796 576.303 682.303 576.005 681.604 576.046L644.555 578.066C643.95 578.101 643.38 578.36 642.959 578.791C642.539 579.223 642.3 579.796 642.289 580.394L641.194 630.44" stroke="#D78F29" stroke-width="2"/>
<path d="M641.193 630.44L627.965 642.405C627.744 642.606 627.566 642.85 627.442 643.122C627.318 643.395 627.252 643.69 627.246 643.99C627.24 644.29 627.296 644.588 627.409 644.867C627.522 645.146 627.69 645.399 627.903 645.611L643.706 661.23" stroke="#806315" stroke-width="2"/>
<path d="M643.707 661.23C644.375 665.526 644.205 669.093 643.198 671.93" stroke="#D78F29" stroke-width="2"/>
<path d="M500.152 672.13C495.896 671.246 491.554 671.179 487.124 671.929" stroke="#D78F29" stroke-width="2"/>
<path d="M278.954 672.007C280.722 668.862 281.534 664.822 281.39 659.889" stroke="#FFE28F" stroke-width="2"/>
<path d="M295.065 602.781C297.162 608.609 300.965 612.998 306.475 615.948C306.814 616.134 307.204 616.212 307.592 616.171C307.98 616.129 308.349 615.971 308.648 615.716C314.497 610.701 320.371 605.823 326.271 601.085C327.247 600.304 327.725 599.497 327.705 598.664C327.695 598.158 327.605 597.675 327.441 597.246C327.277 596.817 327.041 596.45 326.749 596.167C321.558 591.161 316.409 586.392 311.3 581.859C310.992 581.592 310.709 581.448 310.452 581.427C310.072 581.396 309.753 581.525 309.496 581.813" stroke="#806315" stroke-width="2"/>
<path d="M636.969 540.046C642.134 539.552 646.528 534.911 642.813 530.086C641.477 528.328 639.462 527.28 636.769 526.94" stroke="#440D20" stroke-width="2"/>
<path d="M683.098 582.09L682.559 578.482C682.476 577.917 682.153 577.629 681.587 577.619C681.3 577.609 681.053 577.686 680.847 577.85C680.601 578.035 680.436 578.431 680.354 579.037C680.272 579.582 680.154 580.127 679.999 580.672C679.845 581.196 679.496 581.494 678.951 581.566C676.967 581.833 675.713 582.203 675.189 582.676C669.68 587.569 664.057 592.543 658.322 597.601C658.074 597.82 657.913 598.121 657.868 598.449C657.823 598.777 657.896 599.11 658.075 599.389C659.298 601.229 660.969 602.765 663.086 603.999C665.717 605.551 670.24 609.801 676.654 616.749C677.034 617.171 677.44 617.196 677.872 616.826L699.102 598.233" stroke="#592E1F" stroke-width="2"/>
<path d="M747.252 637.841C743.644 639.198 739.25 640.616 736.382 643.098C735.488 643.879 734.542 644.481 733.545 644.902" stroke="#9B3934" stroke-width="2"/>
<path d="M733.546 644.902C728.196 636.361 717.82 632.476 712.208 624.381C711.838 623.857 711.411 623.811 710.928 624.243L690.731 642.328C690.48 642.554 690.279 642.831 690.141 643.139C690.003 643.447 689.931 643.781 689.93 644.118C689.929 644.455 689.998 644.788 690.133 645.096C690.268 645.403 690.467 645.679 690.715 645.905L706.272 660.043" stroke="#592E1F" stroke-width="2"/>
<path d="M706.272 660.042C704.658 663.084 704.036 666.929 704.406 671.574" stroke="#9B3934" stroke-width="2"/>
<path d="M643.707 661.229C646.189 663.835 649.196 663.234 651.848 660.998C657.706 656.044 663.642 651.27 669.655 646.675C669.936 646.458 670.165 646.182 670.328 645.867C670.49 645.551 670.581 645.204 670.594 644.85C670.608 644.495 670.543 644.142 670.404 643.815C670.266 643.489 670.058 643.197 669.794 642.959L648.887 624.165C648.778 624.064 648.634 624.008 648.483 624.008C648.332 624.008 648.185 624.064 648.07 624.165L641.194 630.44" stroke="#592E1F" stroke-width="2"/>
<path d="M691.517 545.72C684.815 533.57 676.998 522.547 668.066 512.648C650.089 492.729 626.454 473.41 602.34 462.602C599.704 461.431 596.728 461.184 593.876 459.981" stroke="#C32D36" stroke-width="2"/>
<path d="M733.546 644.902L733.716 645.704C733.829 646.238 733.654 646.65 733.191 646.937C727.189 650.648 721.011 655.248 714.659 660.736C712.079 662.967 709.284 662.736 706.272 660.043" stroke="#440D20" stroke-width="2"/>
<path d="M274.945 703.998C251.078 700.005 237.187 725.306 244.294 745.549C246.052 750.545 249.29 754.785 253.437 757.853C253.689 758.038 253.896 758.279 254.042 758.556C254.188 758.834 254.269 759.141 254.279 759.455C254.29 759.769 254.229 760.082 254.102 760.371C253.975 760.659 253.784 760.916 253.545 761.121C248.961 765.037 246.175 770.351 245.188 777.063" stroke="#81EAE4" stroke-width="2"/>
<path d="M727.148 760.597L692.72 760.351" stroke="#019999" stroke-width="2"/>
<path d="M693.274 705.401C699.056 706.727 699.611 696.166 694.939 694.994" stroke="#7CD2CD" stroke-width="2"/>
<path d="M331.343 704.615C320.551 703.886 309.851 704.071 299.243 705.17" stroke="#81EAE4" stroke-width="2"/>
<path d="M331.327 761.028L299.274 761.491" stroke="#02BDB4" stroke-width="2"/>
<path d="M387.617 704.399L356.134 704.785" stroke="#81EAE4" stroke-width="2"/>
<path d="M387.664 761.815C379.348 761.054 371.043 760.674 362.748 760.674C361.936 760.674 360.821 760.828 359.403 761.137C357.563 761.548 356.407 761.317 355.934 760.443" stroke="#02BDB4" stroke-width="2"/>
<path d="M444.263 704.199H412.426" stroke="#81EAE4" stroke-width="2"/>
<path d="M443.877 760.689L412.055 761.029" stroke="#02BDB4" stroke-width="2"/>
<path d="M499.798 703.69L468.438 704.924" stroke="#81EAE4" stroke-width="2"/>
<path d="M499.874 759.795C491.98 760.936 483.804 761.234 475.345 760.69C473.047 760.551 470.442 761.538 468.283 760.844" stroke="#02BDB4" stroke-width="2"/>
<path d="M555.933 704.184L524.188 703.999" stroke="#81EAE4" stroke-width="2"/>
<path d="M555.779 760.504L524.034 761.429" stroke="#02BDB4" stroke-width="2"/>
<path d="M611.962 705.016L580.155 705.062" stroke="#81EAE4" stroke-width="2"/>
<path d="M612.024 761.306C601.169 760.576 590.506 760.582 580.032 761.322" stroke="#02BDB4" stroke-width="2"/>
<path d="M668.467 704.693L636.336 704.292" stroke="#81EAE4" stroke-width="2"/>
<path d="M668.59 761.322L636.29 761.075" stroke="#02BDB4" stroke-width="2"/>
<path d="M753.82 695.241C754.591 696.084 755.321 696.526 756.01 696.567C756.462 696.598 756.729 696.834 756.811 697.276C757.079 698.592 757.222 699.892 757.243 701.177C757.253 701.64 757.145 701.969 756.919 702.164C756.683 702.349 756.349 702.529 755.917 702.703" stroke="#7CD2CD" stroke-width="2"/>
<path d="M755.917 702.704L750.952 702.133" stroke="#7BC5C8" stroke-width="2"/>
<path d="M768.298 782.983L768.76 760.689C768.765 760.429 768.827 760.173 768.942 759.941C769.057 759.709 769.221 759.506 769.423 759.348C774.172 755.601 780.247 753.181 782.236 746.829C785.566 736.144 782.991 728.358 780.385 717.72C780.262 717.216 780.252 716.713 780.355 716.209C780.848 714.02 779.738 712.632 777.657 711.676C773.401 709.703 770.148 706.481 766.124 704.091C765.682 703.834 765.214 703.736 764.721 703.798C761.555 704.137 758.621 703.772 755.917 702.703" stroke="#019999" stroke-width="2"/>
<path d="M552.096 266.043C549.639 266.834 547.676 265.986 546.206 263.499C544.675 260.898 543.616 259.279 543.03 258.642C541.098 256.504 539.181 254.356 537.279 252.197C528.954 242.731 518.578 243.132 505.534 244.411C505 244.463 504.522 244.653 504.1 244.982C500.544 247.695 496.546 249.802 492.105 251.303C498.293 243.543 505 239.154 512.226 238.136C530.018 235.639 547.841 245.198 550.184 263.961C550.323 265.025 551.109 265.842 552.096 266.043Z" fill="#83EDE3"/>
<path d="M552.096 266.043C556.074 267.328 559.748 267.559 563.119 266.737C577.674 273.042 585.46 288.815 581.019 304.14C579.663 308.781 575.438 311.34 571.923 314.424C567.899 317.954 567.436 324.137 568.469 328.978C570.027 336.24 576.888 338.306 574.513 347.572C573.084 353.143 569.749 357.069 564.507 359.351C558.587 361.926 555.58 359.829 550.631 356.992C544.341 353.384 535.044 361.972 539.808 366.459C551.787 377.683 548.596 396.431 532.885 402.058C517.853 407.439 516.897 375.756 500.708 393.131C490.949 403.615 484.443 416.998 469.642 400.902C462.842 393.486 450.416 376.079 439.469 389.369C436.149 393.399 432.989 397.705 429.987 402.289L426.426 404.756C425.984 405.054 425.516 405.101 425.023 404.895C417.375 401.596 412.483 395.973 410.345 388.028C408.387 380.735 409.358 369.789 416.682 365.857C417.144 365.611 417.622 365.569 418.116 365.734C423.173 367.353 426.888 367.415 430.773 363.637C439.346 355.312 431.961 340.14 419.596 343.964C417.396 344.632 415.577 344.17 414.138 342.576C405.273 332.74 409.281 308.611 425.023 308.904C427.86 308.966 429.525 311.109 433.071 310.292C442.553 308.118 441.951 300.733 437.711 293.779C435.322 289.848 435.152 285.839 436.509 281.584C440.363 269.512 452.081 260.153 465.232 263.329C465.715 263.453 466.106 263.71 466.404 264.1C468.501 266.824 471.219 268.345 474.56 268.664C477.474 268.941 480.496 267.384 483.24 266.289C483.687 266.117 484.088 265.847 484.414 265.5C484.739 265.153 484.981 264.737 485.121 264.285C486.92 258.591 489.248 254.264 492.105 251.303C496.546 249.803 500.544 247.696 504.1 244.982C504.522 244.653 505 244.463 505.534 244.412C518.578 243.132 528.954 242.731 537.279 252.198C539.181 254.356 541.098 256.504 543.03 258.642C543.616 259.279 544.675 260.898 546.206 263.499C547.676 265.986 549.639 266.834 552.096 266.043Z" fill="white"/>
<path d="M469.472 428.637C461.373 424.34 455.334 418.487 451.356 411.076C449.414 407.453 447.687 402.951 445.313 401.517C443.812 400.613 442.959 400.854 442.753 402.242C437.635 398.387 435.183 399.574 429.987 402.288C432.989 397.704 436.149 393.397 439.469 389.368C450.416 376.078 462.843 393.484 469.642 400.9C484.443 416.996 490.949 403.614 500.709 393.13C516.897 375.754 517.853 407.437 532.885 402.057C548.596 396.429 551.788 377.681 539.808 366.457C535.044 361.97 544.341 353.383 550.631 356.991C555.58 359.827 558.587 361.924 564.507 359.349C569.749 357.068 573.085 353.141 574.513 347.57C576.888 338.304 570.027 336.238 568.47 328.976C567.437 324.135 567.899 317.953 571.923 314.422C575.438 311.339 579.663 308.779 581.02 304.138C585.46 288.813 577.674 273.041 563.12 266.735C567.19 262.85 571.81 261.431 576.98 262.48C590.825 265.306 598.704 273.904 600.616 288.274C600.677 288.746 600.595 289.194 600.369 289.615C597.779 294.333 594.834 295.998 595.25 302.103C595.62 307.561 600.492 310.429 605.472 310.891C605.991 310.931 606.503 310.795 606.921 310.506C609.275 308.882 611.218 308.342 612.749 308.887C626.409 313.775 631.944 329.855 623.203 341.588C621.106 344.41 618.87 344.548 615.602 344.656C600.261 345.196 600.369 369.664 618.5 366.072C622.786 365.224 626.055 372.84 626.702 376.062C628.974 387.492 625.335 396.193 615.787 402.165C614.224 403.151 612.323 403.686 610.082 403.768C609.61 403.788 609.148 403.664 608.756 403.413C604.532 400.823 595.728 397.478 592.614 403.598C589.546 409.673 591.658 414.298 596.036 419.371C596.376 419.761 596.55 420.219 596.561 420.743C596.592 421.781 596.417 422.778 596.036 423.734C591.843 434.3 584.026 440.18 572.586 441.372C572.411 441.391 572.234 441.367 572.07 441.304C571.906 441.241 571.759 441.14 571.641 441.009C571.524 440.878 571.439 440.721 571.394 440.551C571.35 440.381 571.346 440.202 571.383 440.031C573.079 432.044 567.406 424.983 559.296 426.34C548.257 428.19 554.779 440.185 552.343 446.198C547.594 457.869 536.586 456.558 528.245 449.852C527.931 449.598 527.694 449.261 527.563 448.879C527.433 448.497 527.412 448.086 527.505 447.693C531.791 429.377 507.292 430.764 510.16 447.77C510.242 448.264 510.098 448.685 509.728 449.034C503.268 455.001 494.572 456.99 487.881 451.162C480.157 444.425 491.597 431.828 481.853 426.74C477.011 424.202 472.885 424.834 469.472 428.637Z" fill="#83EDE3"/>
<path d="M469.472 428.637L467.853 431.875C463.978 430.384 459.99 429.608 455.889 429.547C455.427 429.537 455.067 429.727 454.81 430.117C454.296 430.909 453.643 430.965 452.852 430.287C449.172 427.142 445.395 424.161 441.52 421.345C441.448 418.374 442.085 415.373 443.432 412.341C445.22 408.286 445.266 405.618 442.753 402.242C442.959 400.854 443.812 400.613 445.313 401.517C447.687 402.951 449.414 407.453 451.356 411.076C455.334 418.487 461.373 424.341 469.472 428.637Z" fill="white"/>
<path d="M441.521 421.345C445.396 424.161 449.173 427.142 452.853 430.287C453.644 430.965 454.297 430.909 454.811 430.117C455.068 429.727 455.427 429.537 455.89 429.547C459.991 429.609 463.979 430.385 467.854 431.875L466.636 439.738C466.552 440.256 466.268 440.72 465.847 441.029C465.425 441.338 464.9 441.467 464.385 441.388C452.287 439.61 444.666 432.929 441.521 421.345Z" fill="#83EDE3"/>
<path d="M440.348 456.667C428.487 461.755 418.964 466.427 411.779 470.682C403.623 475.508 359.282 505.218 359.035 515.131C359.025 515.717 359.272 516.154 359.775 516.442L362.18 517.86C362.662 518.141 363.045 518.567 363.275 519.078C367.669 528.745 350.972 535.992 349.214 523.673C349.195 523.543 349.141 523.42 349.056 523.319C348.972 523.218 348.861 523.143 348.736 523.101C348.612 523.06 348.478 523.054 348.35 523.084C348.222 523.114 348.105 523.179 348.011 523.272C341.577 529.583 336.258 536.942 332.054 545.35C323.595 545.175 318.291 548.598 316.143 555.618C314.015 562.556 317.376 567.29 323.651 569.972C323.58 570.301 323.939 570.476 324.731 570.496C325.604 571.35 326.786 571.812 328.277 571.884C345.73 572.809 363.136 572.023 380.574 571.529C386.587 571.36 395.221 572.254 402.652 571.314L484.058 571.267L639.731 571.822C639.967 571.827 640.195 571.91 640.377 572.059C640.559 572.207 640.684 572.412 640.733 572.64L641.92 578.082C642.043 578.647 641.812 578.935 641.226 578.945C625.408 579.177 609.589 577.681 593.755 579.377C589.808 579.809 584.211 578.961 581.76 578.961C566.383 578.971 551.002 579.028 535.615 579.13C535.314 579.13 535.022 579.228 534.782 579.408C534.299 579.747 533.77 579.886 533.194 579.824C529.062 579.392 524.714 579.824 520.505 579.531C516.25 579.243 512.462 579.13 509.142 579.192C500.863 579.362 492.753 578.514 484.412 578.776C476.411 579.038 469.426 578.267 460.484 579.1C454.183 579.696 442.923 579.613 426.704 578.853C426.21 578.832 425.614 578.879 424.915 578.992C420.752 579.732 416.497 579.238 412.304 579.393C408.233 579.547 404.636 579.598 401.511 579.547C371.323 579.022 340.549 577.974 310.408 579.377C309.883 579.408 309.606 579.68 309.575 580.194L309.498 581.813C303.393 588.489 296.408 592.991 295.067 602.781C294.959 610.228 292.554 615.547 290.38 622.439C289.362 625.677 288.324 628.966 287.266 632.306L279.865 629.253C279.413 629.058 279.217 628.719 279.279 628.236C280.759 615.193 284.907 599.621 290.056 587.641C306.862 548.495 330.235 512.171 363.614 484.589C383.267 468.359 404.862 455.264 428.4 445.304C428.914 445.088 429.33 445.207 429.648 445.659C432.455 449.616 436.021 453.286 440.348 456.667Z" fill="white"/>
<path d="M691.52 545.719C684.818 533.57 677.001 522.546 668.069 512.648C650.092 492.728 626.457 473.41 602.344 462.602C599.707 461.43 596.731 461.184 593.879 459.981L605.165 449.852C605.566 449.502 606.028 449.363 606.553 449.435C608.701 449.713 611.024 450.515 613.521 451.841C655.591 474.124 688.822 505.196 713.213 545.056C713.48 545.488 713.362 545.704 712.858 545.704L691.52 545.719Z" fill="#FF4237"/>
<path d="M440.349 456.667C442.415 457.808 444.856 459.494 447.672 461.724C450.355 463.841 454.199 465.322 459.205 466.164C460.315 466.915 461.666 467.29 463.259 467.29C463.784 467.29 464.251 467.449 464.663 467.768C480.574 480.256 491.875 491.665 513.413 493.377C532.326 494.867 548.797 488.721 562.827 474.937C565.346 472.46 567.319 470.579 568.748 469.294C569.128 468.965 569.565 468.852 570.058 468.955C587.203 472.532 600.354 482.63 614.816 493.762C626.914 503.064 634.232 514.124 636.771 526.941C633.482 528.904 631.775 530.508 631.652 531.751C631.262 535.791 633.035 538.556 636.971 540.046C637.629 541.855 637.007 543.803 635.106 545.889C560.751 545.735 486.355 545.72 411.918 545.843C391.336 545.874 364.617 545.504 340.92 545.936C338.006 545.982 335.03 545.566 332.054 545.35C336.258 536.942 341.577 529.583 348.012 523.272C348.105 523.179 348.222 523.114 348.35 523.084C348.478 523.054 348.612 523.06 348.737 523.101C348.862 523.143 348.972 523.218 349.057 523.319C349.141 523.42 349.196 523.542 349.214 523.673C350.972 535.991 367.669 528.745 363.275 519.078C363.045 518.566 362.662 518.141 362.181 517.86L359.776 516.442C359.272 516.154 359.025 515.717 359.036 515.131C359.282 505.217 403.624 475.508 411.78 470.682C418.964 466.426 428.487 461.755 440.349 456.667Z" fill="#FF4237"/>
<path d="M593.878 459.981C596.73 461.184 599.706 461.431 602.342 462.602C626.456 473.41 650.091 492.729 668.068 512.648C677 522.547 684.817 533.57 691.519 545.72L635.105 545.889C637.007 543.803 637.629 541.855 636.971 540.046C642.136 539.552 646.53 534.912 642.814 530.086C641.478 528.328 639.463 527.28 636.77 526.941C634.232 514.123 626.913 503.064 614.815 493.762C600.354 482.63 587.202 472.532 570.058 468.955C569.564 468.852 569.128 468.965 568.747 469.294C567.318 470.579 565.345 472.46 562.827 474.937C548.797 488.72 532.325 494.867 513.413 493.376C491.874 491.665 480.573 480.256 464.662 467.767C464.251 467.449 463.783 467.289 463.259 467.289C461.666 467.289 460.314 466.914 459.204 466.164C469.334 466.981 476.642 467.274 485.923 462.68C486.289 462.495 486.712 462.457 487.105 462.575C487.498 462.692 487.831 462.956 488.035 463.312C489.258 465.378 491.016 467.11 493.308 468.507C511.624 479.67 535.044 478.868 550.2 461.97C550.58 461.539 551.006 461.492 551.479 461.832C561.007 468.662 579.293 469.032 589.176 462.834C590.861 461.785 592.429 460.835 593.878 459.981Z" fill="#861735"/>
<path d="M636.77 526.94C639.463 527.28 641.478 528.328 642.814 530.086C646.529 534.911 642.135 539.552 636.97 540.046C633.034 538.555 631.261 535.79 631.651 531.751C631.775 530.507 633.481 528.904 636.77 526.94Z" fill="#01020B"/>
<path d="M642.121 570.928L484.058 571.267L402.652 571.314L324.731 570.496C323.939 570.476 323.58 570.301 323.652 569.972C377.182 569.828 430.759 569.88 484.382 570.126C524.92 570.322 565.458 570.219 605.997 569.818C618.064 569.695 630.105 570.065 642.121 570.928Z" fill="#B05A33"/>
<path d="M324.731 570.495L402.652 571.312C395.221 572.253 386.587 571.358 380.574 571.528C363.137 572.021 345.73 572.808 328.277 571.883C326.787 571.811 325.605 571.348 324.731 570.495Z" fill="#FEC41F"/>
<path d="M642.12 570.928L724.004 571.252C724.377 571.257 724.739 571.373 725.044 571.584C725.349 571.796 725.583 572.094 725.715 572.439L730.248 584.249C730.433 584.722 730.382 585.158 730.094 585.559C726.671 590.447 721.737 593.746 718.978 599.25C712.888 599.42 704.824 600.962 699.104 598.233L683.101 582.09C683.676 579.983 683.671 578.267 683.085 576.941C682.797 576.303 682.304 576.005 681.605 576.046L644.556 578.066C643.951 578.101 643.381 578.36 642.961 578.792C642.541 579.223 642.301 579.796 642.29 580.394L641.195 630.44L627.967 642.404C627.745 642.605 627.567 642.85 627.444 643.122C627.32 643.395 627.254 643.69 627.248 643.99C627.242 644.29 627.297 644.588 627.41 644.867C627.523 645.146 627.692 645.399 627.905 645.611L643.708 661.229C644.376 665.526 644.207 669.093 643.199 671.929L500.154 672.13C495.898 671.246 491.556 671.179 487.126 671.929L278.955 672.006C280.723 668.861 281.535 664.822 281.391 659.888C287.234 655.633 294.219 650.53 297.179 645.18C297.436 644.727 297.451 644.27 297.225 643.807C294.83 638.802 291.51 634.968 287.265 632.306C288.324 628.965 289.362 625.676 290.38 622.438C292.554 615.547 294.959 610.228 295.067 602.781C297.163 608.609 300.966 612.998 306.476 615.948C306.815 616.134 307.205 616.212 307.593 616.171C307.981 616.129 308.35 615.971 308.65 615.716C314.498 610.7 320.372 605.823 326.272 601.085C327.249 600.304 327.727 599.497 327.706 598.664C327.696 598.158 327.606 597.675 327.442 597.246C327.278 596.817 327.042 596.45 326.75 596.167C321.559 591.161 316.41 586.392 311.302 581.859C310.993 581.592 310.711 581.448 310.454 581.427C310.073 581.396 309.755 581.525 309.498 581.813L309.575 580.194C309.606 579.68 309.883 579.408 310.407 579.377C340.549 577.974 371.323 579.022 401.511 579.546C404.635 579.598 408.233 579.546 412.303 579.392C416.497 579.238 420.752 579.731 424.915 578.991C425.614 578.878 426.21 578.832 426.703 578.852C442.923 579.613 454.183 579.695 460.484 579.099C469.426 578.267 476.41 579.038 484.412 578.775C492.753 578.513 500.863 579.361 509.142 579.192C512.462 579.13 516.25 579.243 520.505 579.531C524.714 579.824 529.062 579.392 533.194 579.824C533.769 579.885 534.299 579.747 534.782 579.407C535.022 579.227 535.314 579.13 535.614 579.13C551.001 579.027 566.383 578.971 581.76 578.96C584.211 578.96 589.808 579.808 593.755 579.377C609.589 577.681 625.407 579.176 641.226 578.945C641.812 578.935 642.043 578.647 641.92 578.082L640.733 572.639C640.684 572.411 640.558 572.207 640.376 572.058C640.194 571.91 639.967 571.827 639.73 571.822L484.057 571.267L642.12 570.928Z" fill="#FEC41F"/>
<path d="M683.101 582.09L682.561 578.482C682.479 577.917 682.155 577.629 681.59 577.619C681.302 577.609 681.055 577.686 680.85 577.85C680.603 578.035 680.439 578.431 680.356 579.037C680.274 579.582 680.156 580.127 680.002 580.672C679.848 581.196 679.498 581.494 678.953 581.566C676.97 581.833 675.716 582.203 675.191 582.676C669.682 587.568 664.06 592.543 658.324 597.6C658.077 597.82 657.916 598.121 657.87 598.449C657.825 598.777 657.899 599.11 658.078 599.389C659.301 601.229 660.971 602.765 663.089 603.999C665.72 605.551 670.242 609.801 676.656 616.749C677.036 617.171 677.442 617.196 677.874 616.826L699.104 598.232C704.824 600.961 712.888 599.42 718.978 599.25C723.531 603.598 727.679 608.192 731.42 613.033C733.871 616.209 738.235 614.575 741.688 614.606C742.202 614.606 742.51 614.853 742.613 615.346L747.254 637.841C743.646 639.197 739.252 640.616 736.385 643.098C735.49 643.879 734.545 644.481 733.548 644.902C728.198 636.361 717.822 632.475 712.209 624.381C711.839 623.857 711.413 623.81 710.93 624.242L690.733 642.327C690.482 642.554 690.281 642.83 690.143 643.139C690.005 643.447 689.933 643.78 689.932 644.117C689.93 644.454 689.999 644.787 690.135 645.095C690.27 645.403 690.468 645.678 690.717 645.904L706.274 660.042C704.66 663.085 704.038 666.929 704.408 671.575L643.2 671.929C644.207 669.092 644.377 665.526 643.708 661.229C646.191 663.835 649.197 663.234 651.849 660.998C657.708 656.044 663.644 651.269 669.657 646.675C669.937 646.458 670.167 646.182 670.329 645.867C670.492 645.551 670.583 645.204 670.596 644.85C670.609 644.495 670.544 644.142 670.406 643.815C670.267 643.489 670.059 643.196 669.795 642.959L648.889 624.165C648.779 624.064 648.635 624.008 648.484 624.008C648.333 624.008 648.186 624.064 648.072 624.165L641.195 630.44L642.29 580.394C642.301 579.796 642.541 579.223 642.961 578.791C643.381 578.36 643.951 578.101 644.556 578.066L681.605 576.046C682.304 576.005 682.798 576.303 683.085 576.94C683.671 578.266 683.676 579.983 683.101 582.09Z" fill="#B05A33"/>
<path d="M683.101 582.09L699.105 598.233L677.875 616.826C677.443 617.196 677.037 617.171 676.657 616.749C670.243 609.801 665.72 605.551 663.089 603.999C660.972 602.765 659.301 601.229 658.078 599.389C657.899 599.11 657.826 598.777 657.871 598.449C657.916 598.121 658.077 597.82 658.325 597.601C664.06 592.543 669.683 587.569 675.192 582.676C675.716 582.203 676.97 581.833 678.954 581.566C679.499 581.494 679.848 581.196 680.002 580.672C680.156 580.127 680.275 579.582 680.357 579.037C680.439 578.431 680.604 578.035 680.85 577.85C681.056 577.686 681.303 577.609 681.59 577.619C682.156 577.629 682.479 577.917 682.562 578.482L683.101 582.09Z" fill="#01020B"/>
<path d="M295.067 602.781C296.408 592.991 303.392 588.489 309.498 581.813C309.755 581.525 310.073 581.396 310.454 581.427C310.711 581.448 310.993 581.592 311.302 581.859C316.41 586.392 321.56 591.161 326.75 596.167C327.043 596.45 327.278 596.817 327.442 597.246C327.607 597.675 327.696 598.158 327.706 598.664C327.727 599.497 327.249 600.304 326.272 601.085C320.373 605.823 314.498 610.701 308.65 615.716C308.35 615.971 307.982 616.129 307.594 616.171C307.205 616.212 306.816 616.134 306.476 615.948C300.967 612.998 297.164 608.609 295.067 602.781Z" fill="#01020B"/>
<path d="M733.547 644.902L733.717 645.704C733.83 646.239 733.655 646.65 733.193 646.938C727.19 650.648 721.013 655.248 714.661 660.736C712.081 662.967 709.285 662.736 706.273 660.043L690.717 645.905C690.468 645.679 690.27 645.403 690.134 645.096C689.999 644.788 689.93 644.455 689.931 644.118C689.933 643.781 690.005 643.447 690.143 643.139C690.281 642.831 690.482 642.554 690.732 642.328L710.93 624.243C711.413 623.811 711.839 623.857 712.209 624.381C717.821 632.476 728.197 636.361 733.547 644.902Z" fill="#01020B"/>
<path d="M643.708 661.229L627.905 645.611C627.691 645.399 627.523 645.146 627.41 644.867C627.297 644.588 627.242 644.29 627.247 643.99C627.253 643.69 627.32 643.395 627.444 643.122C627.567 642.849 627.745 642.605 627.966 642.404L641.195 630.44L648.071 624.165C648.186 624.064 648.333 624.008 648.484 624.008C648.635 624.008 648.779 624.064 648.888 624.165L669.795 642.959C670.059 643.197 670.267 643.489 670.405 643.815C670.544 644.142 670.609 644.495 670.595 644.85C670.582 645.204 670.491 645.551 670.329 645.867C670.166 646.182 669.937 646.458 669.656 646.675C663.643 651.27 657.707 656.044 651.849 660.998C649.197 663.234 646.19 663.835 643.708 661.229Z" fill="#01020B"/>
<path d="M747.254 637.841L751.416 671.066C751.425 671.132 751.42 671.198 751.399 671.262C751.379 671.325 751.346 671.383 751.3 671.433C751.255 671.483 751.199 671.523 751.137 671.55C751.074 671.577 751.007 671.591 750.939 671.59L704.408 671.575C704.038 666.929 704.66 663.085 706.273 660.042C709.285 662.735 712.081 662.967 714.661 660.736C721.013 655.247 727.19 650.648 733.193 646.937C733.655 646.65 733.83 646.238 733.717 645.704L733.547 644.902C734.544 644.481 735.49 643.879 736.384 643.098C739.252 640.616 743.646 639.198 747.254 637.841Z" fill="#861735"/>
<path d="M281.391 659.888C281.535 664.822 280.723 668.861 278.955 672.006L274.993 671.667C274.335 671.606 274.053 671.251 274.145 670.603L275.964 657.791C276.057 657.164 276.406 656.923 277.013 657.067C278.647 657.457 280.107 658.398 281.391 659.888Z" fill="white"/>
<path d="M500.154 672.13L487.126 671.929C491.556 671.179 495.899 671.246 500.154 672.13Z" fill="#B05A33"/>
<path d="M274.947 703.999C251.08 700.006 237.189 725.306 244.296 745.55C246.054 750.545 249.292 754.785 253.439 757.853C253.691 758.039 253.898 758.279 254.044 758.557C254.19 758.834 254.271 759.142 254.281 759.456C254.292 759.77 254.231 760.083 254.104 760.371C253.977 760.66 253.787 760.916 253.547 761.122C248.963 765.038 246.177 770.352 245.191 777.064C232.959 765.398 227.352 751.804 228.37 736.284C229.758 715.177 244.836 697.015 266.344 694.486C268.996 694.178 271.642 694.265 274.284 694.748C274.798 694.851 275.055 695.165 275.055 695.689L274.947 703.999Z" fill="white"/>
<path d="M727.15 760.597L692.722 760.351C692.475 738.385 692.434 720.645 692.599 707.129C692.599 706.532 692.825 705.957 693.277 705.402C699.059 706.728 699.614 696.167 694.942 694.995C706.074 694.769 716.589 695.303 726.487 696.598C727.011 696.66 727.273 696.958 727.273 697.492L727.15 760.597Z" fill="#02A69E"/>
<path d="M331.345 704.616C320.552 703.886 309.853 704.071 299.245 705.171L299.538 696.09C299.546 695.838 299.652 695.598 299.833 695.423C300.015 695.247 300.257 695.149 300.509 695.149L330.605 695.134C331.139 695.134 331.407 695.401 331.407 695.936L331.345 704.616Z" fill="white"/>
<path d="M387.62 704.399L356.137 704.784L356.291 696.305C356.302 695.554 356.682 695.179 357.432 695.179L386.603 695.21C387.332 695.21 387.692 695.575 387.682 696.305L387.62 704.399Z" fill="white"/>
<path d="M444.265 704.199H412.427L413.09 695.858C413.131 695.396 413.383 695.165 413.845 695.165L442.846 695.134C443.098 695.133 443.34 695.227 443.523 695.396C443.706 695.565 443.817 695.797 443.833 696.043L444.265 704.199Z" fill="white"/>
<path d="M499.799 703.69L468.44 704.923L469.01 696.027C469.022 695.806 469.117 695.599 469.274 695.447C469.432 695.295 469.641 695.21 469.858 695.21L498.998 695.179C499.491 695.179 499.743 695.426 499.753 695.919L499.799 703.69Z" fill="white"/>
<path d="M555.936 704.183L524.191 703.998L524.576 695.858C524.584 695.675 524.662 695.502 524.794 695.376C524.927 695.249 525.102 695.179 525.285 695.179H554.533C554.834 695.179 555.124 695.297 555.34 695.507C555.556 695.717 555.681 696.003 555.689 696.305L555.936 704.183Z" fill="white"/>
<path d="M611.964 705.017L580.157 705.063L580.373 697.508C580.389 696.881 580.649 696.285 581.098 695.847C581.548 695.41 582.15 695.165 582.778 695.165L611.193 695.149C611.727 695.149 611.994 695.417 611.994 695.951L611.964 705.017Z" fill="white"/>
<path d="M668.469 704.693L636.338 704.292L636.601 696.213C636.621 695.534 636.971 695.195 637.649 695.195L667.467 695.257C667.981 695.257 668.243 695.514 668.253 696.028L668.469 704.693Z" fill="white"/>
<path d="M694.942 694.995C699.613 696.166 699.058 706.727 693.277 705.401C692.095 698.422 692.65 694.953 694.942 694.995Z" fill="#F5FEFB"/>
<path d="M753.823 695.242C754.593 696.084 755.323 696.526 756.012 696.568C756.464 696.598 756.731 696.835 756.814 697.277C757.081 698.592 757.225 699.893 757.245 701.177C757.256 701.64 757.148 701.969 756.922 702.164C756.685 702.349 756.351 702.529 755.919 702.704L750.955 702.133C750.77 696.316 751.726 694.018 753.823 695.242Z" fill="#F5FEFB"/>
<path d="M768.299 782.984L768.762 760.69C768.766 760.429 768.828 760.173 768.943 759.941C769.058 759.709 769.222 759.507 769.425 759.348C774.173 755.602 780.248 753.181 782.237 746.829C785.567 736.145 782.992 728.359 780.387 717.72C780.263 717.217 780.253 716.713 780.356 716.209C780.849 714.02 779.739 712.632 777.658 711.677C773.402 709.703 770.149 706.481 766.125 704.091C765.683 703.834 765.215 703.736 764.722 703.798C761.556 704.137 758.622 703.772 755.919 702.703C756.35 702.529 756.684 702.349 756.921 702.164C757.147 701.969 757.255 701.64 757.245 701.177C757.224 699.892 757.08 698.592 756.813 697.276C756.731 696.834 756.463 696.598 756.011 696.567C755.322 696.526 754.593 696.084 753.822 695.241C782.545 696.12 800.383 725.198 794.062 752.071C790.732 766.194 780.988 776.477 768.299 782.984Z" fill="#02A69E"/>
<path d="M750.955 702.133L755.92 702.704C758.623 703.773 761.557 704.138 764.723 703.798C765.216 703.737 765.684 703.834 766.126 704.091C770.15 706.481 773.403 709.703 777.659 711.677C779.74 712.633 780.85 714.02 780.357 716.21C780.254 716.713 780.264 717.217 780.388 717.721C782.993 728.359 785.568 736.145 782.238 746.829C780.249 753.181 774.174 755.602 769.426 759.349C769.223 759.507 769.059 759.71 768.944 759.942C768.829 760.174 768.767 760.429 768.763 760.69L768.3 782.984C763.449 785.379 758.124 786.7 752.327 786.946C751.762 786.967 751.479 786.7 751.479 786.145L750.955 702.133Z" fill="#008B94"/>
<path d="M274.946 703.998L275.27 785.096C275.271 785.373 275.166 785.641 274.977 785.844C274.788 786.047 274.529 786.171 274.252 786.191C265.803 786.792 257.601 784.51 250.309 780.856C248.263 779.828 246.557 778.564 245.19 777.063C246.177 770.351 248.962 765.037 253.546 761.121C253.786 760.916 253.976 760.659 254.103 760.371C254.23 760.082 254.291 759.769 254.281 759.455C254.27 759.141 254.189 758.834 254.043 758.556C253.898 758.279 253.691 758.038 253.438 757.853C249.291 754.785 246.053 750.545 244.296 745.549C237.188 725.306 251.08 700.005 274.946 703.998Z" fill="#02D4C9"/>
<path d="M444.264 704.199L443.879 760.689L412.057 761.029L412.427 704.199H444.264Z" fill="#02D4C9"/>
<path d="M499.799 703.69L499.876 759.796C491.982 760.936 483.805 761.235 475.346 760.69C473.049 760.551 470.443 761.538 468.285 760.844L468.439 704.924L499.799 703.69Z" fill="#02D4C9"/>
<path d="M555.935 704.184L555.781 760.505L524.035 761.43L524.19 703.999L555.935 704.184Z" fill="#02D4C9"/>
<path d="M331.345 704.615L331.329 761.029L299.276 761.491L299.245 705.17C309.853 704.071 320.552 703.886 331.345 704.615Z" fill="#02D4C9"/>
<path d="M387.62 704.399L387.666 761.815C379.351 761.054 371.046 760.674 362.751 760.674C361.939 760.674 360.824 760.828 359.406 761.137C357.566 761.548 356.41 761.317 355.937 760.443L356.137 704.785L387.62 704.399Z" fill="#02D4C9"/>
<path d="M636.339 704.292L668.47 704.693L668.593 761.322L636.293 761.076L636.339 704.292Z" fill="#02D4C9"/>
<path d="M611.963 705.016L612.025 761.306C601.171 760.576 590.507 760.581 580.033 761.321L580.157 705.062L611.963 705.016Z" fill="#02D4C9"/>
<path d="M499.876 759.795L500.03 785.127C500.032 785.209 500.017 785.291 499.987 785.368C499.957 785.444 499.912 785.514 499.855 785.573C499.797 785.632 499.729 785.679 499.653 785.711C499.577 785.743 499.495 785.759 499.413 785.759L469.672 785.851C469.417 785.851 469.173 785.75 468.991 785.568C468.809 785.386 468.705 785.139 468.701 784.88L468.285 760.844C470.443 761.538 473.049 760.551 475.346 760.69C483.805 761.234 491.982 760.936 499.876 759.795Z" fill="#02A69E"/>
<path d="M555.781 760.504L555.657 784.772C555.647 785.276 555.39 785.533 554.886 785.543L525.223 785.851C524.939 785.851 524.667 785.74 524.465 785.541C524.263 785.341 524.147 785.071 524.143 784.787L524.035 761.429L555.781 760.504Z" fill="#02A69E"/>
<path d="M727.149 760.597L727.072 784.973C727.072 785.517 726.805 785.79 726.27 785.79C717.729 785.8 709.316 785.785 701.031 785.744C698.534 785.733 696.226 785.975 694.109 786.468C693.937 786.508 693.758 786.508 693.586 786.47C693.414 786.432 693.253 786.356 693.115 786.248C692.978 786.14 692.866 786.002 692.79 785.845C692.714 785.689 692.674 785.517 692.675 785.343L692.721 760.351L727.149 760.597Z" fill="#008B94"/>
<path d="M355.937 760.443C356.41 761.317 357.566 761.548 359.406 761.137C360.824 760.828 361.939 760.674 362.751 760.674C371.046 760.674 379.351 761.054 387.666 761.815L387.389 784.726C387.379 785.332 387.07 785.641 386.464 785.651L357.139 785.882C356.482 785.892 356.147 785.569 356.137 784.911L355.937 760.443Z" fill="#02A69E"/>
<path d="M443.878 760.689L444.002 785.281C444.002 785.454 443.932 785.62 443.808 785.744C443.684 785.868 443.516 785.94 443.339 785.944L412.704 786.16C412.241 786.17 412.01 785.944 412.01 785.481L412.056 761.029L443.878 760.689Z" fill="#02A69E"/>
<path d="M331.329 761.028V785.049C331.329 785.259 331.247 785.461 331.1 785.611C330.953 785.761 330.753 785.847 330.543 785.851L300.139 785.974C299.995 785.974 299.853 785.946 299.72 785.891C299.587 785.836 299.467 785.755 299.365 785.654C299.263 785.552 299.183 785.431 299.128 785.298C299.073 785.166 299.044 785.023 299.044 784.88L299.276 761.491L331.329 761.028Z" fill="#02A69E"/>
<path d="M612.025 761.306L612.148 785.096C612.148 785.251 612.088 785.4 611.981 785.51C611.874 785.62 611.729 785.682 611.578 785.682L581.452 785.728C581.119 785.728 580.8 785.597 580.563 785.363C580.326 785.129 580.191 784.812 580.187 784.479L580.033 761.322C590.507 760.582 601.171 760.576 612.025 761.306Z" fill="#02A69E"/>
<path d="M636.293 761.075L668.593 761.322L668.362 784.957C668.362 785.178 668.274 785.39 668.118 785.546C667.962 785.702 667.75 785.79 667.529 785.79L637.711 785.836C637.367 785.836 637.035 785.7 636.79 785.458C636.545 785.215 636.405 784.886 636.401 784.541L636.293 761.075Z" fill="#02A69E"/>
<path d="M476.236 301.128C474.837 300.944 473.49 300.47 472.272 299.733C471.054 298.996 469.989 298.01 469.138 296.832C468.286 295.655 467.665 294.308 467.31 292.869C466.955 291.429 466.872 289.926 467.067 288.445C467.262 286.963 467.731 285.533 468.447 284.234C469.162 282.936 470.111 281.796 471.238 280.879C472.365 279.961 473.649 279.285 475.017 278.888C476.384 278.492 477.808 278.382 479.207 278.566C480.606 278.751 481.953 279.225 483.171 279.962C484.389 280.699 485.454 281.685 486.306 282.862C487.157 284.04 487.778 285.387 488.133 286.826C488.489 288.265 488.571 289.769 488.376 291.25C488.181 292.732 487.712 294.162 486.997 295.46C486.281 296.759 485.332 297.899 484.205 298.816C483.078 299.733 481.794 300.41 480.427 300.807C479.059 301.203 477.636 301.313 476.236 301.128Z" fill="#01020B"/>
<path d="M553.55 299.817C552.343 299.142 551.289 298.221 550.449 297.106C549.608 295.991 548.998 294.704 548.652 293.318C548.306 291.933 548.232 290.476 548.433 289.03C548.635 287.585 549.108 286.18 549.826 284.895C551.277 282.3 553.636 280.353 556.385 279.481C559.135 278.61 562.049 278.886 564.487 280.248C565.694 280.923 566.748 281.844 567.588 282.959C568.429 284.074 569.039 285.361 569.385 286.747C569.731 288.132 569.805 289.589 569.604 291.034C569.402 292.48 568.929 293.885 568.211 295.17C566.76 297.765 564.401 299.712 561.652 300.584C558.902 301.455 555.988 301.179 553.55 299.817Z" fill="#01020B"/>
<path d="M404.241 494.072C403.502 493.703 402.847 493.182 402.315 492.539C401.783 491.895 401.384 491.142 401.141 490.321C400.897 489.5 400.814 488.629 400.896 487.756C400.978 486.884 401.223 486.027 401.618 485.235C402.415 483.636 403.773 482.398 405.392 481.794C407.012 481.189 408.76 481.268 410.253 482.012C410.993 482.381 411.647 482.902 412.179 483.545C412.711 484.189 413.11 484.943 413.354 485.763C413.597 486.584 413.68 487.455 413.599 488.328C413.517 489.2 413.271 490.057 412.877 490.849C412.079 492.448 410.722 493.686 409.102 494.29C407.483 494.895 405.734 494.816 404.241 494.072Z" fill="white"/>
<path d="M404.289 529.479C404.765 530.033 405.121 530.682 405.336 531.388C405.551 532.094 405.62 532.843 405.54 533.594C405.461 534.344 405.233 535.08 404.871 535.761C404.509 536.441 404.019 537.053 403.43 537.56C402.239 538.584 400.715 539.121 399.193 539.054C397.67 538.986 396.274 538.32 395.312 537.201C394.835 536.647 394.479 535.998 394.264 535.292C394.05 534.586 393.98 533.837 394.06 533.086C394.14 532.336 394.367 531.599 394.729 530.919C395.091 530.238 395.581 529.627 396.171 529.12C397.361 528.096 398.885 527.559 400.408 527.626C401.93 527.694 403.326 528.36 404.289 529.479Z" fill="#01020B"/>
<path d="M417.875 538.43C416.595 539.071 415.101 539.152 413.721 538.656C412.341 538.161 411.188 537.128 410.516 535.787C409.844 534.445 409.708 532.903 410.138 531.501C410.568 530.1 411.528 528.952 412.808 528.311C414.087 527.67 415.581 527.589 416.961 528.084C418.341 528.58 419.494 529.612 420.166 530.954C420.838 532.296 420.974 533.837 420.544 535.239C420.115 536.641 419.154 537.789 417.875 538.43Z" fill="#01020B"/>
<path d="M457.636 539.607C456.267 539.112 455.172 538.036 454.591 536.617C454.01 535.199 453.99 533.553 454.537 532.042C455.084 530.531 456.153 529.278 457.507 528.56C458.862 527.842 460.392 527.717 461.761 528.213C463.13 528.708 464.225 529.784 464.806 531.202C465.387 532.621 465.406 534.267 464.859 535.778C464.312 537.289 463.244 538.541 461.889 539.26C460.535 539.978 459.005 540.103 457.636 539.607Z" fill="#01020B"/>
<path d="M475.942 539.427C474.553 539.47 473.201 538.911 472.185 537.873C471.169 536.834 470.571 535.402 470.524 533.889C470.5 533.141 470.612 532.395 470.854 531.695C471.095 530.995 471.462 530.354 471.931 529.809C472.401 529.265 472.966 528.826 473.592 528.52C474.219 528.213 474.896 528.045 475.584 528.023C476.973 527.979 478.325 528.538 479.341 529.577C480.357 530.615 480.955 532.048 481.002 533.56C481.026 534.309 480.914 535.054 480.672 535.755C480.431 536.455 480.064 537.095 479.595 537.64C479.125 538.185 478.56 538.623 477.934 538.929C477.307 539.236 476.63 539.405 475.942 539.427Z" fill="#01020B"/>
<path d="M526.626 533.771C526.626 535.231 526.046 536.631 525.014 537.663C523.982 538.695 522.582 539.275 521.122 539.275C519.662 539.275 518.262 538.695 517.23 537.663C516.198 536.631 515.618 535.231 515.618 533.771C515.618 532.311 516.198 530.911 517.23 529.879C518.262 528.847 519.662 528.267 521.122 528.267C522.582 528.267 523.982 528.847 525.014 529.879C526.046 530.911 526.626 532.311 526.626 533.771Z" fill="#01020B"/>
<path d="M542.676 533.679C542.676 534.408 542.533 535.129 542.254 535.803C541.975 536.476 541.566 537.088 541.051 537.604C540.535 538.119 539.924 538.528 539.25 538.807C538.577 539.086 537.855 539.229 537.126 539.229C535.654 539.229 534.242 538.644 533.201 537.604C532.16 536.563 531.576 535.151 531.576 533.679C531.576 532.207 532.16 530.795 533.201 529.754C534.242 528.713 535.654 528.128 537.126 528.128C537.855 528.128 538.577 528.272 539.25 528.551C539.924 528.83 540.535 529.239 541.051 529.754C541.566 530.269 541.975 530.881 542.254 531.555C542.533 532.228 542.676 532.95 542.676 533.679Z" fill="#01020B"/>
<path d="M583.996 533.478C583.996 534.909 583.428 536.282 582.416 537.294C581.404 538.306 580.031 538.874 578.6 538.874C577.169 538.874 575.796 538.306 574.784 537.294C573.772 536.282 573.204 534.909 573.204 533.478C573.204 532.047 573.772 530.675 574.784 529.663C575.796 528.651 577.169 528.082 578.6 528.082C580.031 528.082 581.404 528.651 582.416 529.663C583.428 530.675 583.996 532.047 583.996 533.478Z" fill="#01020B"/>
<path d="M573.481 598.804L554.471 617.274C554.388 617.356 554.276 617.404 554.158 617.407C554.041 617.41 553.927 617.368 553.839 617.289L533.981 599.189C533.933 599.147 533.895 599.095 533.868 599.037C533.841 598.98 533.827 598.917 533.825 598.853C533.824 598.789 533.836 598.726 533.86 598.667C533.884 598.608 533.92 598.555 533.966 598.511L552.945 580.564C553.029 580.482 553.141 580.435 553.258 580.432C553.375 580.429 553.489 580.471 553.577 580.549L573.466 598.125C573.514 598.167 573.552 598.219 573.579 598.277C573.606 598.335 573.62 598.397 573.622 598.461C573.623 598.525 573.612 598.588 573.587 598.647C573.563 598.706 573.527 598.759 573.481 598.804Z" fill="#01020B"/>
<path d="M389.995 599.328L370.754 616.611C370.478 616.861 370.118 616.998 369.745 616.992C369.373 616.986 369.017 616.839 368.749 616.58L351.528 599.682C351.384 599.542 351.27 599.374 351.194 599.188C351.117 599.001 351.08 598.802 351.085 598.601C351.089 598.4 351.135 598.202 351.219 598.019C351.303 597.836 351.424 597.673 351.574 597.539L369.489 581.397C369.753 581.159 370.093 581.025 370.447 581.02C370.802 581.014 371.146 581.137 371.417 581.366L389.964 597.123C390.123 597.258 390.252 597.426 390.341 597.615C390.429 597.804 390.477 598.009 390.48 598.218C390.483 598.427 390.441 598.634 390.357 598.825C390.274 599.017 390.15 599.188 389.995 599.328Z" fill="#01020B"/>
<path d="M449.939 599.173L431.499 616.534C431.242 616.776 430.901 616.909 430.548 616.906C430.195 616.904 429.856 616.764 429.603 616.518L412.273 599.667C412.139 599.535 412.033 599.378 411.962 599.203C411.891 599.029 411.857 598.842 411.861 598.655C411.866 598.467 411.908 598.282 411.987 598.111C412.066 597.94 412.179 597.788 412.319 597.662L430.728 581.088C430.983 580.86 431.314 580.734 431.656 580.737C431.999 580.74 432.327 580.871 432.578 581.104L449.939 597.169C450.076 597.297 450.185 597.453 450.26 597.625C450.335 597.797 450.374 597.983 450.374 598.171C450.374 598.359 450.335 598.545 450.26 598.717C450.185 598.89 450.076 599.045 449.939 599.173Z" fill="#01020B"/>
<path d="M615.294 581.458L634.042 598.171C634.093 598.216 634.134 598.271 634.162 598.333C634.191 598.395 634.207 598.462 634.208 598.53C634.209 598.598 634.197 598.666 634.171 598.728C634.145 598.791 634.106 598.848 634.057 598.895L615.325 616.78C615.235 616.869 615.115 616.92 614.988 616.923C614.862 616.926 614.74 616.88 614.646 616.795L595.312 599.235C595.261 599.187 595.22 599.129 595.192 599.065C595.165 599.001 595.151 598.931 595.153 598.861C595.154 598.791 595.171 598.722 595.201 598.659C595.231 598.596 595.274 598.54 595.328 598.495L614.646 581.458C614.736 581.38 614.851 581.337 614.97 581.337C615.089 581.337 615.204 581.38 615.294 581.458Z" fill="#01020B"/>
<path d="M473.466 598.155L492.661 581.119C492.768 581.026 492.905 580.974 493.046 580.974C493.188 580.974 493.325 581.026 493.432 581.119L512.797 598.14C512.859 598.195 512.909 598.263 512.943 598.338C512.977 598.414 512.995 598.496 512.995 598.579C512.995 598.662 512.977 598.745 512.943 598.82C512.909 598.896 512.859 598.964 512.797 599.019L493.278 617.243C493.169 617.344 493.026 617.401 492.877 617.401C492.728 617.401 492.585 617.344 492.476 617.243L473.451 599.019C473.392 598.963 473.345 598.895 473.314 598.82C473.282 598.745 473.267 598.665 473.268 598.584C473.27 598.502 473.288 598.422 473.322 598.349C473.356 598.275 473.405 598.209 473.466 598.155Z" fill="#01020B"/>
<path d="M522.417 662.926L503.083 645.982C502.843 645.771 502.649 645.512 502.515 645.222C502.381 644.932 502.309 644.616 502.305 644.296C502.301 643.977 502.363 643.659 502.49 643.365C502.616 643.071 502.802 642.807 503.037 642.59L522.371 624.644C522.789 624.249 523.34 624.027 523.914 624.022C524.489 624.016 525.044 624.227 525.47 624.613L544.835 642.22C545.071 642.435 545.26 642.698 545.389 642.99C545.518 643.283 545.584 643.6 545.582 643.919C545.581 644.239 545.512 644.555 545.381 644.847C545.249 645.138 545.058 645.399 544.819 645.612L525.439 662.911C525.024 663.281 524.488 663.487 523.931 663.49C523.375 663.493 522.836 663.292 522.417 662.926Z" fill="#01020B"/>
<path d="M441.027 642.898L459.96 624.844C460.361 624.462 460.892 624.245 461.446 624.236C462.001 624.228 462.538 624.428 462.951 624.798L482.069 641.942C482.299 642.15 482.482 642.404 482.607 642.688C482.732 642.971 482.796 643.278 482.795 643.588C482.793 643.898 482.726 644.204 482.599 644.486C482.471 644.768 482.285 645.021 482.053 645.226L462.01 662.88C461.599 663.241 461.068 663.436 460.521 663.427C459.974 663.419 459.45 663.207 459.05 662.833L441.042 646.105C440.823 645.9 440.648 645.652 440.527 645.377C440.407 645.102 440.344 644.805 440.343 644.505C440.342 644.205 440.401 643.907 440.519 643.631C440.637 643.355 440.809 643.105 441.027 642.898Z" fill="#01020B"/>
<path d="M565.634 641.958L584.104 625.245C584.592 624.804 585.225 624.559 585.882 624.556C586.54 624.553 587.175 624.793 587.666 625.229L606.337 641.773C606.621 642.024 606.848 642.333 607.003 642.68C607.159 643.026 607.238 643.401 607.237 643.781C607.235 644.16 607.153 644.535 606.995 644.88C606.837 645.225 606.608 645.532 606.321 645.781L587.45 662.186C586.961 662.614 586.332 662.849 585.682 662.846C585.032 662.843 584.405 662.603 583.919 662.17L565.649 645.92C565.371 645.671 565.148 645.366 564.995 645.026C564.842 644.685 564.762 644.316 564.76 643.942C564.759 643.569 564.836 643.199 564.986 642.857C565.137 642.515 565.358 642.209 565.634 641.958Z" fill="#01020B"/>
<path d="M339.193 625.183C346.902 630.487 353.67 636.5 359.791 643.638C359.96 643.839 360.045 644.096 360.027 644.355C360.01 644.615 359.892 644.855 359.698 645.026L340.658 661.615C339.882 662.299 338.879 662.666 337.846 662.646C336.813 662.626 335.825 662.22 335.076 661.507L317.562 644.872C317.415 644.734 317.298 644.567 317.219 644.381C317.14 644.195 317.101 643.995 317.104 643.793C317.107 643.592 317.152 643.393 317.236 643.209C317.32 643.026 317.442 642.862 317.593 642.729L337.235 625.307C337.497 625.069 337.834 624.927 338.189 624.904C338.544 624.882 338.898 624.98 339.193 625.183Z" fill="#01020B"/>
<path d="M397.548 662.448L380.126 646.691C379.817 646.412 379.57 646.071 379.4 645.691C379.23 645.311 379.142 644.899 379.14 644.482C379.139 644.066 379.224 643.654 379.391 643.272C379.559 642.89 379.804 642.548 380.111 642.266L398.288 625.6C398.834 625.099 399.546 624.819 400.287 624.814C401.027 624.808 401.743 625.077 402.297 625.569L420.582 641.866C420.902 642.151 421.157 642.501 421.329 642.893C421.502 643.285 421.588 643.71 421.582 644.138C421.576 644.567 421.478 644.989 421.295 645.376C421.112 645.763 420.848 646.107 420.521 646.383L401.495 662.51C400.942 662.981 400.236 663.234 399.51 663.223C398.784 663.211 398.086 662.936 397.548 662.448Z" fill="#01020B"/>
</svg>
