<svg width="1024" height="1024" viewBox="0 0 1024 1024" fill="none" xmlns="http://www.w3.org/2000/svg">
<rect width="1024" height="1024" fill="white"/>
<path d="M763.253 795.085C759.858 794.947 756.445 794.878 753.016 794.878C589.277 794.729 425.538 794.615 261.799 794.534C260.331 794.534 258.003 794.741 254.814 795.154" stroke="#66797E" stroke-width="2"/>
<path d="M763.253 795.085C759.857 794.947 756.445 794.878 753.015 794.878C589.276 794.729 425.538 794.615 261.799 794.534C260.331 794.534 258.002 794.741 254.814 795.154L188.297 795.945C187.477 795.954 186.664 795.801 185.903 795.494C185.143 795.187 184.451 794.732 183.867 794.156C183.283 793.581 182.819 792.895 182.502 792.139C182.184 791.383 182.019 790.571 182.017 789.751L182 787.48C181.991 785.345 182.826 783.293 184.324 781.77C185.822 780.246 187.862 779.374 190.001 779.342L225.685 778.86C225.823 778.857 225.959 778.815 226.075 778.74C226.192 778.665 226.286 778.559 226.345 778.436C226.404 778.312 226.427 778.174 226.41 778.04C226.394 777.905 226.339 777.778 226.253 777.673C215.534 764.373 216.48 753.878 216.428 734.091C216.348 702.422 216.434 670.758 216.686 639.1C216.79 627.83 222.915 616.389 228.231 606.754C245.093 576.231 262.08 545.777 279.194 515.393C283.036 508.556 287.114 501.863 291.427 495.314C301.354 480.19 312.779 478.711 331.412 478.711C383.786 478.722 436.165 478.699 488.55 478.642C489.181 478.642 489.525 478.332 489.582 477.713C490.202 471.393 490.58 465.113 490.718 458.873C492.048 400.661 493.333 342.088 494.572 283.153C494.583 282.385 494.268 281.794 493.626 281.381C484.507 275.531 477.917 266.275 475.869 255.521C471.31 231.537 491.957 208.447 516.853 212.456C543.556 216.74 557.922 249.499 540.132 271.35C536.989 275.204 533.565 278.559 529.86 281.415C529.126 281.989 528.771 282.746 528.794 283.687L534.54 477.351C534.575 478.464 535.148 479.02 536.261 479.02C588.749 478.722 641.254 478.584 693.777 478.607C702.873 478.619 709.583 479.439 713.907 481.068C722.579 484.36 729.518 490.416 734.726 499.237C754.271 532.443 773.782 565.678 793.259 598.942C800.279 610.917 810.12 625.25 810.275 639.53C810.631 675.008 810.751 710.485 810.636 745.963C810.585 759.297 808.899 768.158 800.571 777.466C800.463 777.582 800.392 777.727 800.366 777.883C800.34 778.039 800.36 778.2 800.424 778.345C800.488 778.489 800.593 778.612 800.726 778.698C800.86 778.783 801.015 778.828 801.173 778.826C811.279 778.872 821.384 778.883 831.489 778.86C837.236 778.843 842.019 782.335 841.09 788.203C840.264 793.422 836.932 795.997 831.094 795.928C808.486 795.653 785.872 795.372 763.253 795.085Z" fill="black"/>
<path d="M763.252 795.085C762.484 795.475 762.134 796.175 762.203 797.184C762.237 797.7 762.53 798.348 763.08 799.128C767.674 805.666 760.379 811.533 753.875 811.516C709.038 811.298 664.2 811.298 619.363 811.516C607.044 811.568 592.625 810.948 579.24 811.017C479.448 811.533 379.656 810.243 279.864 811.791C270.591 811.946 255.312 813.942 254.83 801.52C254.75 799.49 254.744 797.368 254.813 795.154C258.002 794.741 260.33 794.534 261.799 794.534C425.537 794.615 589.276 794.729 753.015 794.878C756.444 794.878 759.857 794.947 763.252 795.085Z" fill="#CBF1FC"/>
<path d="M522.235 238.832C518.955 240.392 515.777 241.837 512.703 243.168C510.868 243.959 509.836 244.883 509.606 245.938C508.62 250.595 506.498 254.942 503.24 258.98" stroke="#818A8E" stroke-width="2"/>
<path d="M489.114 508.717C436.431 508.877 383.874 508.832 331.443 508.579C323.133 508.528 318.246 508.029 314.358 515.289C296.808 548.117 278.571 580.378 259.713 612.483C259.06 613.607 257.626 614.112 255.412 613.997" stroke="#8D9AA0" stroke-width="2"/>
<path d="M528.979 583.613C541.66 584.284 568.105 586.916 570.032 567.715C571.649 551.559 557.747 547.722 546.151 542.216" stroke="#122530" stroke-width="2"/>
<path d="M673.901 500.028C674.773 502.689 674.881 505.092 674.228 507.237C674.01 507.971 673.517 508.338 672.748 508.338L535.861 508.717" stroke="#8D9AA0" stroke-width="2"/>
<path d="M427.382 635.418L303.984 635.522" stroke="#8D9AA0" stroke-width="2"/>
<path d="M762.596 636.726L762.837 641.922C762.858 642.332 762.795 642.743 762.653 643.128C762.51 643.514 762.29 643.866 762.007 644.164C761.724 644.462 761.383 644.699 761.005 644.86C760.627 645.022 760.22 645.105 759.809 645.105L506.906 645.26" stroke="#8D9AA0" stroke-width="2"/>
<path d="M506.905 645.26C494.087 644.83 482.491 645.604 468.692 644.623C461.901 644.142 454.176 644.314 445.516 645.14" stroke="#D1F5FF" stroke-width="2"/>
<path d="M445.516 645.139L353.347 645.225" stroke="#8D9AA0" stroke-width="2"/>
<path d="M353.346 645.225C341.154 644.285 329.006 644.273 316.905 645.191" stroke="#D1F5FF" stroke-width="2"/>
<path d="M316.904 645.191L255.653 644.95C255.003 644.948 254.359 645.075 253.759 645.324C253.159 645.572 252.614 645.938 252.156 646.399C251.698 646.86 251.337 647.407 251.092 648.009C250.848 648.611 250.725 649.256 250.732 649.906C251.053 687.161 251.174 724.273 251.094 761.242C251.094 763.158 250.354 764.557 248.874 765.44" stroke="#8D9AA0" stroke-width="2"/>
<path d="M578.307 635.59H435.64" stroke="#8D9AA0" stroke-width="2"/>
<path d="M787.853 643.9L765.504 643.935C765.099 643.934 764.698 644.016 764.325 644.173C763.951 644.331 763.614 644.561 763.331 644.852C763.049 645.142 762.828 645.486 762.681 645.863C762.534 646.241 762.464 646.644 762.475 647.049C762.94 662.396 761.994 679.017 762.166 693.435C762.303 704.257 765.022 732.302 755.473 739.236C750.77 742.631 744.777 744.621 737.493 745.206C727.674 745.974 718.452 745.487 709.827 743.744" stroke="#122530" stroke-width="2"/>
<path d="M709.826 743.744C710.182 721.124 710.245 699.468 710.016 678.776C709.844 663.411 698.281 664.358 686.117 664.22C669.164 664.036 656.306 664.002 647.543 664.117C631.851 664.323 626.414 666.181 626.483 683.748C626.517 696.985 626.701 710.204 627.034 723.407C627.137 727.341 626.999 731.654 626.621 736.345" stroke="#0F1B21" stroke-width="2"/>
<path d="M626.622 736.345C619.005 737.171 611.028 737.027 602.689 735.915" stroke="#122530" stroke-width="2"/>
<path d="M602.688 735.915C602 730.845 601.782 725.615 602.035 720.224C602.74 704.859 602.723 691.663 602.929 677.331C603.067 667.764 596.133 664.375 587.41 664.289C570.205 664.128 552.999 664.169 535.794 664.409C525.986 664.547 520.876 669.451 520.464 679.12C519.741 696.24 521.84 716.852 520.928 736.38" stroke="#0F1B21" stroke-width="2"/>
<path d="M520.927 736.38C513.012 738.123 505.299 738.209 497.786 736.638" stroke="#122530" stroke-width="2"/>
<path d="M497.786 736.638C497.533 717.746 497.275 699.067 497.011 680.6C496.891 672.479 495.05 665.476 486.327 664.392C478.103 663.383 461.276 663.216 435.846 663.893C425.884 664.151 418.262 665.734 417.866 676.969C417.339 691.961 417.505 711.139 418.365 734.504" stroke="#0F1B21" stroke-width="2"/>
<path d="M418.366 734.504C412.137 736.798 404.005 736.93 393.968 734.9" stroke="#122530" stroke-width="2"/>
<path d="M393.969 734.9C394.358 715.022 394.29 694.989 393.762 674.801C393.573 667.455 387.602 664.53 380.927 664.392C362.299 664.002 343.665 663.687 325.026 663.446C314.6 663.308 310.677 670.93 310.556 680.393C310.27 701.774 310.264 723.401 310.539 745.275" stroke="#0F1B21" stroke-width="2"/>
<path d="M310.539 745.275C309.519 753.499 311.956 760.794 317.852 767.16C318.265 767.608 318.488 768.038 318.523 768.451" stroke="#122530" stroke-width="2"/>
<path d="M316.905 645.191L353.346 645.225" stroke="#6290A1" stroke-width="2"/>
<path d="M445.516 645.139L506.905 645.26" stroke="#6290A1" stroke-width="2"/>
<path d="M310.538 745.275C312.477 748.98 315.281 752.175 318.952 754.859C321.074 756.407 323.752 757.325 326.987 757.612C345.31 759.298 360.382 758.334 377.244 758.042C381.35 757.973 384.533 757.21 386.793 755.753C394.879 750.506 395.103 743.847 393.967 734.9" stroke="#030A0F" stroke-width="2"/>
<path d="M418.366 734.504C418.137 737.188 417.913 740.704 417.695 745.051C417.592 746.841 418.641 748.492 419.192 750.127C419.72 751.653 420.362 752.817 421.119 753.62C423.62 756.281 426.063 757.628 428.448 757.663C456.975 758.087 474.834 758.259 482.026 758.179C487.475 758.122 491.719 756.143 494.758 752.243C496.1 750.5 496.863 747.999 497.047 744.742C497.196 741.897 497.442 739.196 497.787 736.638" stroke="#030A0F" stroke-width="2"/>
<path d="M520.927 736.379L521.34 745.601C521.363 746.129 521.512 746.617 521.788 747.064C525.831 753.791 530.425 757.972 537.943 758.093C555.436 758.379 572.928 758.311 590.42 757.886C595.547 757.748 603.875 748.802 603.049 742.986C602.739 740.784 602.619 738.427 602.688 735.915" stroke="#030A0F" stroke-width="2"/>
<path d="M626.621 736.345C627.011 741.621 627.32 745.045 627.55 746.617C628.433 752.627 631.668 756.028 637.254 756.819C655.337 759.383 677.015 758.196 696.595 757.766C701.671 757.662 704.665 755.994 706.764 751.572C708.45 748.016 709.471 745.406 709.826 743.743" stroke="#030A0F" stroke-width="2"/>
<path d="M522.237 238.832C518.956 240.392 515.779 241.837 512.705 243.167C510.869 243.959 509.837 244.882 509.608 245.938C508.621 250.594 506.499 254.942 503.242 258.979C497.237 258.584 494.759 252.407 495.912 246.953C497.621 238.82 502.594 234.077 510.829 232.724C516.025 231.881 520.327 234.031 522.237 238.832Z" fill="#FBFFFE"/>
<path d="M522.236 238.832C526.423 242.433 527.616 247.188 525.815 253.095C524.937 255.951 522.787 258.05 521.135 260.751C520.825 261.256 520.395 261.623 519.845 261.853C516.862 263.114 513.719 263.745 510.416 263.745C510.129 263.745 509.846 263.683 509.584 263.565C509.323 263.446 509.091 263.273 508.902 263.057C507.33 261.233 505.444 259.874 503.241 258.979C506.499 254.942 508.621 250.594 509.607 245.938C509.837 244.882 510.869 243.959 512.704 243.167C515.778 241.837 518.956 240.392 522.236 238.832Z" fill="#06141E"/>
<path d="M489.114 508.717C436.431 508.877 383.874 508.832 331.443 508.579C323.133 508.528 318.247 508.029 314.358 515.289C296.809 548.117 278.571 580.378 259.714 612.483C259.06 613.607 257.626 614.112 255.412 613.997L250.113 614.083C249.904 614.086 249.698 614.034 249.516 613.931C249.333 613.829 249.181 613.681 249.075 613.501C248.968 613.321 248.911 613.116 248.909 612.907C248.907 612.699 248.96 612.493 249.063 612.311C261.434 590.46 271.241 573.168 285.694 546.81C292.002 535.293 299.217 522.756 307.338 509.199C312.483 500.63 318.178 499.822 328.381 499.856C381.557 500.062 434.733 500.097 487.91 499.959C488.506 499.959 488.816 500.257 488.839 500.854L489.114 508.717Z" fill="#FBFFFE"/>
<path d="M673.902 500.028C674.773 502.689 674.882 505.092 674.228 507.237C674.011 507.971 673.517 508.338 672.749 508.338L535.862 508.717L535.828 500.63C535.828 500.011 536.132 499.701 536.74 499.701L673.902 500.028Z" fill="#FBFFFE"/>
<path d="M255.414 613.997C257.628 614.112 259.062 613.607 259.715 612.483C278.573 580.378 296.81 548.117 314.36 515.289C318.248 508.029 323.135 508.528 331.445 508.579C383.876 508.832 436.433 508.877 489.116 508.717C489.988 513.764 489.942 519.012 488.978 524.46C488.881 525.008 488.664 525.529 488.343 525.984C488.022 526.439 487.604 526.817 487.12 527.092C480.548 530.774 476.866 536.142 476.745 544.109C476.522 558.148 474.508 573.909 486.157 580.429C489.449 582.265 494.908 583.297 502.536 583.526C511.334 583.79 520.149 583.819 528.981 583.612C541.661 584.283 568.106 586.916 570.033 567.715C571.651 551.559 557.749 547.722 546.152 542.216C546.554 540.002 546.445 537.823 545.825 535.678C544.105 529.639 536.603 529.931 535.812 523.41C535.181 518.214 535.198 513.316 535.863 508.717L672.75 508.338C673.518 508.338 674.012 507.971 674.23 507.237C674.883 505.092 674.774 502.689 673.903 500.028C687.506 499.237 697.468 499.317 703.789 500.269C711.703 501.456 717.26 512.709 722.044 521.105C727.744 531.084 733.548 540.994 739.456 550.836C751.19 570.381 763.922 592.422 776.843 612.81C776.915 612.92 776.956 613.048 776.961 613.179C776.965 613.311 776.934 613.441 776.871 613.556C776.807 613.671 776.713 613.767 776.599 613.832C776.485 613.898 776.355 613.931 776.224 613.928C738.578 613.963 700.875 614.083 663.115 614.29C636.515 614.427 607.214 613.98 579.221 614.359C565.571 614.554 554.107 614.628 544.827 614.582C474.812 614.295 404.798 614.146 334.783 614.135C314.652 614.135 289.274 614.84 266.529 614.72C262.767 614.697 259.062 614.456 255.414 613.997Z" fill="#1E3542"/>
<path d="M546.152 542.216C557.748 547.721 571.651 551.558 570.033 567.714C568.106 586.915 541.661 584.283 528.981 583.612C530.988 583.119 532.978 582.631 534.951 582.15C535.307 582.058 535.588 581.805 535.794 581.392C536.035 580.888 536.425 580.584 536.964 580.481C543.365 579.156 546.376 570.381 546.014 564.703C545.521 557.133 545.567 549.637 546.152 542.216Z" fill="#06141E"/>
<path d="M526.092 554.888C526.093 555.682 525.779 556.444 525.218 557.006C524.658 557.569 523.897 557.885 523.103 557.887L499.428 557.928C499.035 557.929 498.646 557.852 498.282 557.702C497.919 557.552 497.588 557.332 497.31 557.055C497.031 556.777 496.81 556.448 496.659 556.085C496.508 555.722 496.43 555.333 496.429 554.939L496.426 553.116C496.425 552.322 496.739 551.56 497.299 550.997C497.86 550.435 498.621 550.118 499.415 550.117L523.089 550.075C523.483 550.075 523.872 550.152 524.236 550.301C524.599 550.451 524.929 550.671 525.208 550.949C525.486 551.226 525.708 551.556 525.859 551.919C526.01 552.282 526.088 552.671 526.088 553.064L526.092 554.888Z" fill="#1E3542"/>
<path d="M427.382 635.418L303.984 635.521C316.154 634.684 328.342 634.409 340.546 634.695C360.458 635.166 370.489 635.401 370.638 635.401C389.553 635.47 408.467 635.475 427.382 635.418Z" fill="#1E3542"/>
<path d="M578.309 635.59H435.641C457.389 634.443 479.159 634.225 500.953 634.936C523.056 635.67 537.538 635.785 544.397 635.28C555.821 634.455 566.919 635.418 578.309 635.59Z" fill="#1E3542"/>
<path d="M435.641 635.59H578.308C638.688 635.509 699.074 635.452 759.465 635.417C760.899 635.417 761.942 635.853 762.596 636.725L762.837 641.921C762.858 642.332 762.795 642.742 762.653 643.128C762.51 643.513 762.29 643.865 762.007 644.163C761.723 644.461 761.383 644.698 761.005 644.86C760.627 645.022 760.22 645.105 759.809 645.104L506.906 645.259C494.088 644.829 482.491 645.603 468.692 644.622C461.902 644.141 454.177 644.313 445.517 645.139L353.347 645.225C341.154 644.284 329.007 644.273 316.906 645.19L255.654 644.949C255.004 644.947 254.361 645.074 253.76 645.322C253.16 645.571 252.615 645.937 252.157 646.398C251.699 646.859 251.338 647.406 251.093 648.008C250.849 648.61 250.727 649.255 250.733 649.905C251.055 687.16 251.175 724.272 251.095 761.241C251.095 763.157 250.355 764.556 248.875 765.439C242.704 763.18 239.63 758.987 239.653 752.862C239.768 721.112 239.705 689.339 239.464 657.544C239.418 650.971 240.198 646.274 241.804 643.453C244.694 638.394 249.638 635.802 256.635 635.676C266.236 635.504 282.019 635.452 303.984 635.521L427.382 635.417L435.641 635.59Z" fill="#FBFFFE"/>
<path d="M787.855 643.9L765.505 643.935C765.1 643.934 764.699 644.015 764.326 644.173C763.953 644.331 763.615 644.561 763.332 644.852C763.05 645.142 762.829 645.486 762.682 645.863C762.535 646.241 762.465 646.644 762.477 647.049C762.941 662.396 761.995 679.017 762.167 693.435C762.304 704.257 765.023 732.302 755.474 739.236C750.771 742.631 744.778 744.621 737.494 745.206C727.676 745.974 718.453 745.487 709.828 743.743C710.183 721.124 710.246 699.468 710.017 678.776C709.845 663.411 698.283 664.357 686.119 664.22C669.166 664.036 656.307 664.002 647.544 664.117C631.853 664.323 626.416 666.181 626.484 683.748C626.519 696.985 626.702 710.204 627.035 723.407C627.138 727.341 627.001 731.654 626.622 736.345C619.006 737.171 611.028 737.028 602.689 735.915C602.001 730.845 601.783 725.615 602.036 720.224C602.741 704.859 602.724 691.662 602.93 677.33C603.068 667.764 596.134 664.375 587.411 664.289C570.205 664.128 553 664.168 535.794 664.409C525.987 664.547 520.877 669.45 520.464 679.12C519.742 696.239 521.841 716.851 520.929 736.38C513.014 738.123 505.301 738.209 497.788 736.638C497.535 717.746 497.277 699.067 497.013 680.599C496.893 672.478 495.052 665.476 486.329 664.392C478.104 663.382 461.278 663.216 435.848 663.893C425.886 664.151 418.264 665.734 417.868 676.969C417.341 691.961 417.507 711.139 418.367 734.504C412.139 736.798 404.006 736.93 393.97 734.9C394.36 715.022 394.291 694.989 393.763 674.801C393.574 667.454 387.604 664.53 380.928 664.392C362.3 664.002 343.667 663.686 325.027 663.446C314.601 663.308 310.678 670.93 310.558 680.393C310.271 701.774 310.265 723.401 310.54 745.275C309.52 753.499 311.957 760.794 317.853 767.16C318.266 767.607 318.489 768.038 318.524 768.451C290.467 769.368 269.264 769.494 254.915 768.829C253.378 768.749 251.365 767.619 248.876 765.44C250.356 764.556 251.095 763.157 251.095 761.241C251.176 724.273 251.055 687.16 250.734 649.905C250.727 649.255 250.85 648.61 251.094 648.008C251.339 647.406 251.7 646.859 252.158 646.398C252.616 645.937 253.161 645.571 253.761 645.323C254.361 645.074 255.005 644.947 255.655 644.95L316.906 645.191L353.348 645.225L445.517 645.139L506.906 645.259L759.81 645.104C760.221 645.105 760.628 645.022 761.005 644.86C761.383 644.698 761.724 644.461 762.008 644.164C762.291 643.866 762.511 643.513 762.653 643.128C762.796 642.742 762.859 642.332 762.838 641.922L762.597 636.725C772.806 636.083 779.493 636.009 782.659 636.502C786.363 637.087 788.095 639.553 787.855 643.9Z" fill="#1E3542"/>
<path d="M787.854 643.9C788.267 660.532 788.41 677.181 788.284 693.848C788.238 699.48 788.284 707.721 788.421 718.572C788.559 728.448 788.215 738.324 788.232 748.217C788.232 755.667 780.817 765.835 774.003 768.605C771.778 769.512 768.905 769.907 765.383 769.793C753.15 769.38 740.195 770.257 728.822 769.896C699.182 768.967 669.543 768.841 639.904 769.517C625.692 769.85 611.492 769.821 597.303 769.431C575.435 768.829 553.343 768.967 531.492 769.535C506.097 770.171 478.155 769.139 457.956 769.156C387.918 769.202 341.441 768.967 318.523 768.451C318.488 768.038 318.265 767.607 317.852 767.16C311.956 760.794 309.519 753.499 310.539 745.275C312.478 748.98 315.282 752.174 318.953 754.858C321.075 756.407 323.753 757.324 326.988 757.611C345.312 759.297 360.384 758.334 377.245 758.041C381.351 757.972 384.534 757.21 386.794 755.753C394.881 750.505 395.104 743.847 393.969 734.9C404.005 736.93 412.138 736.798 418.366 734.504C418.137 737.188 417.913 740.704 417.695 745.051C417.592 746.841 418.641 748.492 419.192 750.127C419.72 751.652 420.362 752.817 421.119 753.619C423.62 756.281 426.063 757.628 428.449 757.663C456.975 758.087 474.835 758.259 482.026 758.179C487.475 758.122 491.719 756.143 494.758 752.243C496.1 750.5 496.863 747.999 497.047 744.741C497.196 741.897 497.443 739.196 497.787 736.638C505.3 738.209 513.013 738.123 520.928 736.38L521.341 745.602C521.364 746.129 521.513 746.617 521.788 747.064C525.832 753.792 530.425 757.972 537.944 758.093C555.436 758.38 572.929 758.311 590.421 757.886C595.548 757.749 603.876 748.802 603.05 742.986C602.74 740.784 602.62 738.427 602.688 735.915C611.027 737.028 619.005 737.171 626.621 736.345C627.011 741.622 627.321 745.045 627.55 746.617C628.433 752.627 631.668 756.028 637.254 756.82C655.337 759.383 677.016 758.196 696.596 757.766C701.671 757.663 704.665 755.994 706.764 751.572C708.45 748.016 709.471 745.407 709.827 743.744C718.453 745.487 727.675 745.974 737.493 745.206C744.777 744.621 750.77 742.631 755.473 739.236C765.022 732.302 762.304 704.257 762.166 693.435C761.994 679.017 762.94 662.396 762.476 647.049C762.464 646.644 762.534 646.241 762.681 645.863C762.828 645.486 763.049 645.142 763.332 644.852C763.614 644.561 763.952 644.331 764.325 644.173C764.698 644.016 765.099 643.934 765.504 643.935L787.854 643.9Z" fill="#06141E"/>
<path d="M353.348 645.225L316.907 645.191C329.008 644.273 341.155 644.285 353.348 645.225Z" fill="#A6EAFF"/>
<path d="M506.906 645.259L445.517 645.139C454.177 644.313 461.902 644.141 468.693 644.622C482.492 645.603 494.088 644.829 506.906 645.259Z" fill="#A6EAFF"/>
<path d="M393.969 734.9C395.104 743.847 394.88 750.505 386.794 755.753C384.534 757.21 381.351 757.972 377.245 758.041C360.383 758.334 345.311 759.297 326.988 757.611C323.753 757.324 321.075 756.407 318.953 754.858C315.282 752.174 312.478 748.98 310.539 745.275C310.264 723.401 310.27 701.774 310.556 680.393C310.677 670.93 314.6 663.308 325.026 663.446C343.665 663.687 362.299 664.002 380.927 664.392C387.602 664.53 393.573 667.455 393.762 674.801C394.29 694.989 394.358 715.022 393.969 734.9Z" fill="black"/>
<path d="M497.788 736.638C497.444 739.196 497.197 741.897 497.048 744.742C496.864 747.999 496.102 750.5 494.759 752.243C491.72 756.143 487.476 758.122 482.027 758.179C474.836 758.259 456.976 758.087 428.45 757.663C426.064 757.628 423.621 756.281 421.12 753.62C420.363 752.817 419.721 751.652 419.193 750.127C418.642 748.492 417.593 746.841 417.696 745.051C417.914 740.704 418.138 737.188 418.367 734.504C417.507 711.139 417.341 691.961 417.868 676.969C418.264 665.734 425.886 664.151 435.848 663.893C461.278 663.216 478.105 663.383 486.329 664.392C495.052 665.476 496.893 672.479 497.013 680.6C497.277 699.067 497.535 717.746 497.788 736.638Z" fill="black"/>
<path d="M602.688 735.915C602.62 738.427 602.74 740.784 603.05 742.987C603.876 748.802 595.548 757.749 590.421 757.886C572.929 758.311 555.436 758.38 537.944 758.093C530.425 757.972 525.832 753.792 521.788 747.064C521.513 746.617 521.364 746.129 521.341 745.602L520.928 736.38C521.84 716.851 519.741 696.239 520.464 679.12C520.876 669.45 525.986 664.547 535.794 664.409C552.999 664.168 570.205 664.128 587.41 664.289C596.133 664.375 603.067 667.764 602.929 677.33C602.723 691.663 602.74 704.859 602.035 720.224C601.782 725.615 602 730.845 602.688 735.915Z" fill="black"/>
<path d="M709.828 743.743C709.472 745.407 708.451 748.016 706.765 751.572C704.666 755.994 701.672 757.663 696.597 757.766C677.017 758.196 655.338 759.383 637.255 756.82C631.669 756.028 628.434 752.627 627.551 746.617C627.322 745.045 627.012 741.621 626.622 736.345C627.001 731.654 627.138 727.341 627.035 723.407C626.702 710.204 626.519 696.985 626.485 683.748C626.416 666.181 631.853 664.323 647.544 664.116C656.307 664.002 669.166 664.036 686.119 664.22C698.283 664.357 709.845 663.411 710.017 678.776C710.247 699.468 710.183 721.124 709.828 743.743Z" fill="black"/>
<path d="M371.414 684.041L335.196 684.35C334.554 684.354 333.93 684.568 333.421 684.959C332.911 685.351 332.544 685.898 332.375 686.518L332.203 687.086C332.141 687.303 332.131 687.531 332.173 687.752C332.215 687.974 332.308 688.182 332.446 688.361C332.583 688.54 332.76 688.684 332.962 688.782C333.165 688.881 333.388 688.93 333.614 688.927L375.492 688.6" stroke="#FDECB6" stroke-width="2"/>
<path d="M375.698 703.173C375.32 704.928 374.201 705.84 372.343 705.909C365.209 706.15 352.098 706.161 333.011 705.943C330.775 705.92 329.892 704.601 330.362 701.986" stroke="#FEAC71" stroke-width="2"/>
<path d="M375.87 728.104C362.003 729.285 348.353 729.022 334.921 727.313C333.178 727.095 331.687 727.668 330.448 729.033" stroke="#FCBFB9" stroke-width="2"/>
<path d="M478.776 688.376C464.427 689.283 450.1 689.386 435.797 688.686" stroke="#FDECB6" stroke-width="2"/>
<path d="M478.741 706.029L435.47 705.479" stroke="#FEAC71" stroke-width="2"/>
<path d="M479.052 728.121L435.315 728.551" stroke="#FCBFB9" stroke-width="2"/>
<path d="M584.366 689.116C570.567 689.919 556.791 689.971 543.038 689.271C542.465 689.237 541.994 689.07 541.627 688.772C541.283 688.485 540.905 688.118 540.492 687.671" stroke="#FDECB6" stroke-width="2"/>
<path d="M540.492 687.671C540.779 686.478 540.745 685.354 540.389 684.299" stroke="#FCBFB9" stroke-width="2"/>
<path d="M540.493 687.671C539.679 693.406 539.69 699.113 540.527 704.79C540.608 705.375 540.94 705.725 541.525 705.84C544.473 706.436 548.442 706.683 553.431 706.58C567.494 706.293 577.829 705.765 584.436 704.997" stroke="#FEAC71" stroke-width="2"/>
<path d="M584.521 728.621L540.269 729.034" stroke="#FCBFB9" stroke-width="2"/>
<path d="M691.143 689.133L645.067 689.288" stroke="#FDECB6" stroke-width="2"/>
<path d="M691.281 706.339L645.101 706.769" stroke="#FEAC71" stroke-width="2"/>
<path d="M691.522 728.465L645.962 728.655C645.354 728.655 645.039 728.959 645.016 729.567L644.861 734.504" stroke="#FCBFB9" stroke-width="2"/>
<path d="M440.809 531.509C441.285 532.127 441.593 532.863 441.717 533.677C441.84 534.491 441.777 535.366 441.529 536.252C441.282 537.138 440.856 538.018 440.276 538.842C439.695 539.665 438.972 540.416 438.146 541.052C437.321 541.687 436.41 542.195 435.466 542.546C434.521 542.896 433.562 543.084 432.642 543.096C431.722 543.109 430.86 542.947 430.105 542.62C429.35 542.292 428.716 541.806 428.24 541.188C427.765 540.571 427.456 539.834 427.333 539.02C427.209 538.206 427.273 537.331 427.52 536.445C427.767 535.559 428.193 534.679 428.774 533.856C429.354 533.032 430.078 532.281 430.903 531.646C431.728 531.01 432.639 530.502 433.584 530.152C434.528 529.801 435.488 529.614 436.407 529.601C437.327 529.588 438.189 529.75 438.945 530.078C439.7 530.405 440.333 530.892 440.809 531.509Z" fill="black"/>
<path d="M584.268 542.653C583.096 543.704 581.416 544.092 579.596 543.73C577.776 543.369 575.966 542.288 574.564 540.726C573.163 539.164 572.284 537.248 572.121 535.399C571.958 533.551 572.525 531.922 573.697 530.871C574.869 529.82 576.55 529.432 578.369 529.793C580.189 530.155 581.999 531.235 583.401 532.798C584.803 534.36 585.682 536.276 585.844 538.124C586.007 539.972 585.44 541.601 584.268 542.653Z" fill="black"/>
<path d="M359.556 532.09C360.417 533.381 360.539 535.087 359.897 536.834C359.255 538.581 357.9 540.225 356.131 541.405C354.362 542.585 352.324 543.204 350.464 543.125C348.604 543.047 347.076 542.278 346.215 540.987C345.354 539.696 345.231 537.99 345.874 536.243C346.516 534.496 347.871 532.852 349.64 531.672C351.409 530.492 353.447 529.873 355.307 529.951C357.167 530.03 358.695 530.799 359.556 532.09Z" fill="black"/>
<path d="M400.468 532.438C401.165 533.747 401.088 535.399 400.256 537.029C399.423 538.659 397.903 540.135 396.029 541.131C395.102 541.624 394.115 541.985 393.126 542.193C392.137 542.4 391.165 542.451 390.265 542.341C389.366 542.231 388.556 541.964 387.882 541.553C387.209 541.143 386.685 540.598 386.34 539.95C385.644 538.64 385.72 536.989 386.553 535.359C387.385 533.728 388.906 532.253 390.779 531.256C391.707 530.763 392.693 530.403 393.682 530.195C394.671 529.987 395.643 529.937 396.543 530.047C397.443 530.156 398.252 530.424 398.926 530.834C399.599 531.245 400.124 531.79 400.468 532.438Z" fill="black"/>
<path d="M420.469 531.745C421.387 532.968 421.609 534.634 421.086 536.378C420.564 538.122 419.34 539.8 417.683 541.044C416.863 541.66 415.961 542.151 415.029 542.488C414.097 542.826 413.154 543.003 412.252 543.011C411.351 543.018 410.509 542.856 409.775 542.532C409.042 542.209 408.43 541.73 407.976 541.125C407.058 539.903 406.836 538.236 407.358 536.492C407.881 534.748 409.105 533.07 410.762 531.826C411.582 531.21 412.484 530.719 413.415 530.382C414.347 530.045 415.291 529.867 416.192 529.86C417.094 529.852 417.935 530.015 418.669 530.338C419.403 530.662 420.014 531.14 420.469 531.745Z" fill="black"/>
<path d="M663.187 541.081C662.381 542.321 660.875 543.034 658.998 543.062C657.122 543.09 655.029 542.431 653.181 541.231C652.266 540.636 651.438 539.927 650.745 539.143C650.052 538.358 649.507 537.515 649.142 536.661C648.777 535.806 648.598 534.958 648.616 534.163C648.634 533.368 648.849 532.643 649.247 532.029C650.053 530.789 651.559 530.077 653.436 530.049C655.312 530.021 657.405 530.68 659.253 531.88C660.168 532.474 660.996 533.184 661.689 533.968C662.382 534.752 662.927 535.595 663.292 536.45C663.657 537.304 663.836 538.153 663.818 538.948C663.8 539.742 663.585 540.467 663.187 541.081Z" fill="black"/>
<path d="M682.479 541.526C682.006 542.094 681.382 542.526 680.642 542.798C679.902 543.07 679.061 543.177 678.167 543.112C677.272 543.047 676.343 542.812 675.43 542.42C674.518 542.027 673.641 541.486 672.849 540.827C672.058 540.167 671.367 539.402 670.817 538.576C670.267 537.749 669.867 536.877 669.642 536.009C669.417 535.142 669.37 534.295 669.504 533.518C669.638 532.742 669.95 532.05 670.423 531.482C670.896 530.914 671.52 530.482 672.26 530.21C673 529.938 673.841 529.831 674.735 529.896C675.629 529.961 676.559 530.197 677.471 530.589C678.384 530.981 679.261 531.522 680.052 532.182C680.844 532.841 681.535 533.606 682.085 534.432C682.635 535.259 683.034 536.131 683.26 536.999C683.485 537.867 683.532 538.713 683.398 539.49C683.264 540.267 682.952 540.959 682.479 541.526Z" fill="black"/>
<path d="M701.413 541.777C700.884 542.383 700.209 542.851 699.427 543.155C698.645 543.458 697.77 543.591 696.853 543.546C695.936 543.501 694.995 543.279 694.083 542.892C693.171 542.505 692.307 541.961 691.539 541.291C690.771 540.621 690.115 539.839 689.608 538.988C689.101 538.137 688.753 537.235 688.584 536.332C688.414 535.43 688.428 534.546 688.622 533.729C688.817 532.913 689.189 532.181 689.718 531.575C690.247 530.968 690.922 530.5 691.704 530.196C692.487 529.893 693.361 529.76 694.278 529.805C695.195 529.85 696.136 530.072 697.048 530.459C697.96 530.846 698.824 531.39 699.592 532.06C700.36 532.73 701.016 533.513 701.523 534.363C702.031 535.214 702.379 536.117 702.548 537.019C702.717 537.921 702.704 538.806 702.509 539.622C702.314 540.438 701.942 541.171 701.413 541.777Z" fill="black"/>
<path d="M338.805 531.429C339.872 532.518 340.308 534.137 340.017 535.929C339.727 537.722 338.734 539.542 337.257 540.988C336.526 541.704 335.698 542.307 334.82 542.762C333.943 543.218 333.033 543.516 332.142 543.642C331.252 543.767 330.398 543.716 329.631 543.492C328.863 543.268 328.196 542.875 327.668 542.336C326.602 541.247 326.166 539.628 326.456 537.835C326.746 536.042 327.739 534.223 329.216 532.776C329.947 532.06 330.775 531.457 331.653 531.002C332.531 530.547 333.441 530.248 334.331 530.123C335.222 529.998 336.075 530.049 336.843 530.273C337.611 530.497 338.277 530.89 338.805 531.429Z" fill="black"/>
<path d="M379.601 532.374C380.013 532.994 380.247 533.722 380.29 534.518C380.333 535.314 380.184 536.162 379.852 537.013C379.52 537.865 379.012 538.703 378.355 539.481C377.699 540.259 376.908 540.96 376.027 541.545C375.146 542.13 374.193 542.588 373.222 542.892C372.251 543.195 371.281 543.339 370.367 543.315C369.453 543.291 368.614 543.1 367.897 542.752C367.18 542.404 366.599 541.906 366.188 541.286C365.776 540.667 365.542 539.939 365.499 539.143C365.456 538.347 365.605 537.499 365.937 536.647C366.269 535.796 366.778 534.957 367.434 534.18C368.09 533.402 368.881 532.701 369.762 532.116C370.643 531.53 371.596 531.073 372.567 530.769C373.538 530.466 374.508 530.322 375.422 530.346C376.336 530.37 377.175 530.561 377.892 530.909C378.609 531.257 379.19 531.755 379.601 532.374Z" fill="black"/>
<path d="M451.361 542.317C450.709 541.925 450.152 541.387 449.724 540.733C449.296 540.08 449.005 539.324 448.867 538.508C448.729 537.693 448.746 536.834 448.919 535.98C449.092 535.127 449.416 534.296 449.874 533.535C450.331 532.774 450.912 532.097 451.585 531.544C452.257 530.991 453.007 530.572 453.792 530.311C454.577 530.05 455.381 529.953 456.159 530.024C456.937 530.095 457.674 530.333 458.326 530.725C458.979 531.117 459.535 531.656 459.963 532.309C460.391 532.963 460.683 533.719 460.821 534.535C460.959 535.35 460.941 536.209 460.768 537.062C460.596 537.916 460.271 538.747 459.814 539.508C459.357 540.269 458.775 540.945 458.103 541.498C457.431 542.051 456.681 542.471 455.896 542.731C455.111 542.992 454.306 543.09 453.528 543.019C452.75 542.948 452.014 542.71 451.361 542.317Z" fill="black"/>
<path d="M564.235 541.994C563.677 542.529 562.998 542.926 562.235 543.163C561.473 543.399 560.642 543.47 559.791 543.372C558.94 543.274 558.085 543.009 557.275 542.591C556.465 542.173 555.715 541.612 555.07 540.938C553.765 539.578 552.962 537.844 552.836 536.119C552.71 534.393 553.272 532.817 554.398 531.737C554.956 531.202 555.635 530.805 556.398 530.569C557.16 530.332 557.991 530.261 558.842 530.359C559.693 530.457 560.548 530.723 561.358 531.14C562.168 531.558 562.918 532.119 563.564 532.793C564.868 534.153 565.672 535.887 565.797 537.612C565.923 539.338 565.361 540.914 564.235 541.994Z" fill="black"/>
<path d="M605.486 539.602C605.177 540.359 604.679 541.031 604.021 541.578C603.362 542.126 602.556 542.538 601.648 542.793C600.74 543.047 599.749 543.138 598.73 543.06C597.711 542.982 596.684 542.737 595.71 542.34C594.735 541.942 593.83 541.399 593.048 540.741C592.266 540.084 591.621 539.325 591.15 538.508C590.679 537.691 590.392 536.833 590.304 535.981C590.216 535.129 590.33 534.301 590.639 533.543C590.949 532.786 591.447 532.115 592.105 531.567C592.764 531.02 593.57 530.607 594.478 530.353C595.386 530.099 596.377 530.008 597.396 530.086C598.415 530.163 599.441 530.408 600.416 530.806C601.391 531.204 602.296 531.747 603.078 532.404C603.86 533.062 604.505 533.82 604.976 534.637C605.447 535.454 605.734 536.313 605.822 537.165C605.91 538.017 605.796 538.845 605.486 539.602Z" fill="black"/>
<path d="M623.507 540.843C623.094 541.458 622.517 541.955 621.809 542.304C621.101 542.653 620.277 542.849 619.382 542.879C618.488 542.91 617.542 542.774 616.597 542.481C615.652 542.188 614.727 541.743 613.876 541.17C612.157 540.015 610.839 538.413 610.213 536.718C609.588 535.022 609.705 533.372 610.54 532.13C610.953 531.515 611.53 531.018 612.238 530.669C612.946 530.319 613.77 530.124 614.665 530.094C615.559 530.063 616.506 530.198 617.45 530.492C618.395 530.785 619.32 531.23 620.171 531.802C621.891 532.958 623.208 534.559 623.834 536.255C624.459 537.95 624.342 539.601 623.507 540.843Z" fill="black"/>
<path d="M643.8 540.63C643.018 541.901 641.573 542.692 639.784 542.83C637.994 542.968 636.006 542.441 634.257 541.365C632.508 540.289 631.142 538.752 630.458 537.093C629.774 535.433 629.829 533.787 630.611 532.516C631.393 531.245 632.837 530.454 634.627 530.316C636.416 530.178 638.404 530.705 640.153 531.781C641.902 532.857 643.269 534.394 643.953 536.053C644.637 537.713 644.582 539.359 643.8 540.63Z" fill="black"/>
<path d="M589.196 585.753C588.671 586.468 587.989 587.058 587.19 587.489C586.39 587.92 585.489 588.183 584.538 588.264C583.587 588.344 582.604 588.24 581.646 587.958C580.688 587.675 579.773 587.22 578.954 586.618C578.134 586.017 577.426 585.28 576.87 584.45C576.314 583.62 575.921 582.713 575.714 581.781C575.506 580.85 575.488 579.911 575.66 579.02C575.832 578.128 576.191 577.301 576.717 576.585C577.242 575.87 577.924 575.28 578.724 574.849C579.523 574.418 580.424 574.155 581.375 574.074C582.326 573.994 583.309 574.098 584.267 574.38C585.225 574.662 586.14 575.118 586.96 575.72C587.779 576.321 588.487 577.058 589.043 577.888C589.599 578.718 589.992 579.625 590.199 580.557C590.407 581.488 590.425 582.427 590.253 583.318C590.081 584.21 589.722 585.037 589.196 585.753Z" fill="black"/>
<path d="M306.276 587.561C305.203 586.499 304.775 584.872 305.087 583.038C305.399 581.204 306.426 579.314 307.941 577.783C309.455 576.252 311.335 575.206 313.165 574.874C314.996 574.543 316.627 574.954 317.701 576.016C318.774 577.079 319.202 578.706 318.89 580.539C318.578 582.373 317.551 584.263 316.036 585.794C314.521 587.325 312.642 588.371 310.812 588.703C308.981 589.034 307.35 588.623 306.276 587.561Z" fill="black"/>
<path d="M339.491 576.828C340.455 578.085 340.708 579.805 340.194 581.61C339.68 583.416 338.441 585.159 336.751 586.456C335.914 587.099 334.991 587.612 334.035 587.968C333.079 588.323 332.108 588.513 331.179 588.528C330.249 588.542 329.379 588.38 328.618 588.051C327.856 587.723 327.219 587.233 326.742 586.611C325.778 585.355 325.525 583.635 326.039 581.829C326.553 580.024 327.791 578.281 329.482 576.983C330.319 576.341 331.242 575.827 332.198 575.472C333.154 575.116 334.124 574.926 335.054 574.912C335.983 574.897 336.853 575.059 337.615 575.388C338.376 575.717 339.014 576.206 339.491 576.828Z" fill="black"/>
<path d="M384.351 576.511C384.845 577.108 385.166 577.839 385.297 578.66C385.428 579.481 385.365 580.377 385.112 581.297C384.859 582.218 384.422 583.144 383.824 584.023C383.227 584.902 382.481 585.717 381.63 586.421C380.779 587.126 379.838 587.706 378.863 588.128C377.887 588.55 376.895 588.806 375.944 588.882C374.993 588.958 374.101 588.851 373.319 588.569C372.536 588.287 371.879 587.834 371.385 587.237C370.891 586.64 370.57 585.91 370.439 585.089C370.309 584.268 370.372 583.371 370.624 582.451C370.877 581.531 371.314 580.605 371.912 579.725C372.509 578.846 373.255 578.031 374.106 577.327C374.958 576.623 375.898 576.043 376.874 575.621C377.849 575.199 378.841 574.942 379.792 574.867C380.743 574.791 381.636 574.897 382.418 575.179C383.2 575.462 383.857 575.914 384.351 576.511Z" fill="black"/>
<path d="M450.694 576.929C451.267 577.574 451.687 578.345 451.928 579.197C452.17 580.049 452.229 580.965 452.103 581.893C451.976 582.822 451.667 583.744 451.191 584.608C450.716 585.471 450.084 586.26 449.332 586.927C447.814 588.275 445.898 589.051 444.006 589.082C442.114 589.114 440.401 588.399 439.243 587.096C438.67 586.45 438.251 585.68 438.009 584.828C437.768 583.976 437.708 583.06 437.835 582.131C437.961 581.203 438.271 580.28 438.746 579.417C439.222 578.553 439.853 577.765 440.605 577.097C442.124 575.749 444.04 574.974 445.932 574.942C447.824 574.911 449.537 575.625 450.694 576.929Z" fill="black"/>
<path d="M361.059 576.378C361.585 576.96 361.946 577.68 362.121 578.498C362.296 579.316 362.282 580.216 362.08 581.146C361.878 582.075 361.492 583.017 360.943 583.917C360.395 584.817 359.695 585.658 358.883 586.391C358.072 587.124 357.165 587.735 356.214 588.19C355.263 588.645 354.287 588.934 353.342 589.041C352.396 589.148 351.5 589.071 350.704 588.814C349.908 588.557 349.227 588.126 348.702 587.544C348.176 586.962 347.815 586.242 347.64 585.424C347.465 584.606 347.479 583.706 347.681 582.776C347.883 581.847 348.27 580.905 348.818 580.005C349.367 579.105 350.067 578.264 350.878 577.531C351.689 576.798 352.596 576.186 353.547 575.732C354.498 575.277 355.474 574.988 356.419 574.881C357.365 574.774 358.261 574.851 359.057 575.108C359.854 575.365 360.534 575.796 361.059 576.378Z" fill="black"/>
<path d="M393.112 585.866C392.166 576.214 406.171 569.865 407.926 579.844C409.044 586.176 401.044 588.206 396.072 588.43C395.343 588.464 394.63 588.217 394.079 587.74C393.528 587.262 393.182 586.592 393.112 585.866Z" fill="black"/>
<path d="M429 577.641C429.844 578.921 429.946 580.615 429.285 582.349C428.624 584.084 427.253 585.717 425.474 586.89C423.695 588.063 421.653 588.68 419.799 588.604C417.944 588.529 416.428 587.767 415.584 586.487C414.74 585.207 414.637 583.513 415.298 581.779C415.959 580.044 417.33 578.411 419.109 577.238C420.888 576.065 422.93 575.448 424.785 575.524C426.639 575.599 428.156 576.361 429 577.641Z" fill="black"/>
<path d="M632.519 585.19C632.148 585.913 631.61 586.542 630.937 587.042C630.265 587.541 629.47 587.9 628.599 588.099C627.728 588.298 626.797 588.333 625.86 588.201C624.924 588.07 623.999 587.775 623.139 587.333C622.278 586.891 621.5 586.31 620.848 585.625C620.195 584.94 619.682 584.163 619.336 583.339C618.991 582.515 618.821 581.659 618.835 580.822C618.85 579.984 619.048 579.181 619.42 578.457C619.792 577.734 620.33 577.105 621.002 576.605C621.675 576.106 622.47 575.747 623.341 575.548C624.212 575.349 625.142 575.314 626.079 575.446C627.016 575.577 627.941 575.872 628.801 576.314C629.661 576.757 630.44 577.337 631.092 578.022C631.744 578.707 632.258 579.484 632.603 580.308C632.948 581.132 633.119 581.988 633.104 582.825C633.09 583.663 632.891 584.466 632.519 585.19Z" fill="black"/>
<path d="M656.168 585.074C655.837 585.844 655.318 586.525 654.643 587.077C653.967 587.629 653.147 588.042 652.231 588.293C651.314 588.543 650.318 588.626 649.299 588.537C648.281 588.448 647.26 588.188 646.295 587.772C644.346 586.933 642.743 585.51 641.839 583.817C640.934 582.124 640.802 580.3 641.472 578.745C641.804 577.975 642.322 577.294 642.998 576.742C643.673 576.19 644.493 575.777 645.41 575.526C646.326 575.276 647.322 575.193 648.341 575.282C649.359 575.371 650.38 575.631 651.345 576.047C653.294 576.886 654.897 578.309 655.801 580.002C656.706 581.695 656.838 583.519 656.168 585.074Z" fill="black"/>
<path d="M676.86 585.656C676.021 587.026 674.542 587.926 672.749 588.16C670.956 588.393 668.996 587.94 667.299 586.901C666.459 586.386 665.709 585.743 665.092 585.007C664.475 584.272 664.003 583.46 663.703 582.617C663.403 581.773 663.281 580.915 663.344 580.092C663.406 579.268 663.652 578.495 664.068 577.817C664.907 576.448 666.386 575.547 668.179 575.314C669.972 575.08 671.932 575.533 673.628 576.573C674.468 577.088 675.218 577.731 675.835 578.466C676.452 579.201 676.924 580.013 677.224 580.857C677.524 581.7 677.646 582.558 677.584 583.382C677.521 584.205 677.275 584.978 676.86 585.656Z" fill="black"/>
<path d="M699.596 586.535C699.143 587.203 698.52 587.745 697.762 588.132C697.003 588.518 696.124 588.741 695.174 588.787C694.225 588.833 693.224 588.701 692.228 588.399C691.232 588.098 690.261 587.633 689.37 587.03C687.572 585.812 686.21 584.108 685.584 582.293C684.958 580.478 685.119 578.701 686.032 577.352C686.484 576.684 687.108 576.141 687.866 575.755C688.625 575.369 689.504 575.146 690.454 575.1C691.403 575.054 692.404 575.186 693.4 575.487C694.396 575.789 695.367 576.254 696.258 576.857C698.056 578.075 699.418 579.779 700.044 581.593C700.67 583.408 700.509 585.186 699.596 586.535Z" fill="black"/>
<path d="M721.549 585.308C720.838 586.779 719.389 587.818 717.521 588.198C715.652 588.578 713.518 588.267 711.587 587.334C709.656 586.4 708.087 584.921 707.224 583.221C706.362 581.521 706.277 579.74 706.988 578.269C707.699 576.798 709.148 575.758 711.016 575.378C712.884 574.998 715.018 575.309 716.949 576.243C718.88 577.176 720.449 578.656 721.312 580.356C722.174 582.056 722.26 583.837 721.549 585.308Z" fill="black"/>
<path d="M611.682 584.101C611.153 585.7 609.882 586.98 608.148 587.661C606.414 588.341 604.359 588.366 602.436 587.73C600.512 587.094 598.877 585.849 597.891 584.269C596.905 582.688 596.648 580.903 597.176 579.304C597.705 577.705 598.976 576.425 600.71 575.744C602.444 575.064 604.499 575.039 606.422 575.675C608.346 576.311 609.981 577.556 610.967 579.136C611.953 580.717 612.211 582.503 611.682 584.101Z" fill="black"/>
<path d="M371.416 684.041L335.198 684.35C334.556 684.354 333.932 684.568 333.423 684.959C332.913 685.351 332.546 685.898 332.377 686.518L332.205 687.086C332.143 687.303 332.133 687.531 332.175 687.752C332.217 687.974 332.311 688.182 332.448 688.361C332.585 688.54 332.762 688.684 332.964 688.782C333.167 688.881 333.39 688.93 333.616 688.927L375.494 688.6L375.7 703.173C375.322 704.928 374.203 705.84 372.345 705.909C365.211 706.15 352.1 706.161 333.013 705.943C330.777 705.92 329.893 704.601 330.364 701.986L331.018 685.21C331.027 684.911 331.152 684.626 331.367 684.418C331.582 684.209 331.87 684.092 332.17 684.092L371.416 684.041Z" fill="#FED96E"/>
<path d="M691.145 689.133L645.069 689.288C644.851 687.43 644.919 686.042 645.275 685.124C645.504 684.528 645.935 684.224 646.565 684.212C656.808 684.04 670.068 684.08 686.344 684.333C687.962 684.367 690.147 684.144 690.835 685.864C691.145 686.656 691.248 687.745 691.145 689.133Z" fill="#FBFFFE"/>
<path d="M371.414 684.041C374.385 684.155 375.744 685.675 375.492 688.6L333.614 688.927C333.388 688.93 333.165 688.881 332.962 688.782C332.76 688.684 332.583 688.54 332.446 688.361C332.308 688.182 332.215 687.974 332.173 687.752C332.131 687.531 332.141 687.303 332.203 687.086L332.375 686.518C332.544 685.898 332.911 685.351 333.421 684.959C333.93 684.568 334.554 684.354 335.196 684.35L371.414 684.041Z" fill="#FBFFFE"/>
<path d="M478.778 688.376C464.429 689.283 450.102 689.386 435.799 688.686C435.753 687.252 435.959 686.157 436.418 685.4C436.831 684.723 437.731 684.367 439.119 684.333C451.897 684 464.681 683.972 477.47 684.247C478.124 684.259 478.474 684.591 478.52 685.245L478.778 688.376Z" fill="#FBFFFE"/>
<path d="M584.366 689.116C570.568 689.919 556.792 689.971 543.039 689.271C542.465 689.237 541.995 689.07 541.628 688.772C541.284 688.485 540.905 688.118 540.492 687.671C540.779 686.478 540.745 685.354 540.389 684.299L582.801 684.35C583.409 684.35 583.839 684.631 584.091 685.193C584.493 686.077 584.584 687.384 584.366 689.116Z" fill="#FBFFFE"/>
<path d="M540.39 684.299C540.745 685.354 540.78 686.478 540.493 687.671C539.678 693.406 539.69 699.113 540.527 704.79C540.607 705.375 540.94 705.725 541.525 705.84C544.473 706.436 548.442 706.683 553.431 706.58C567.494 706.293 577.829 705.765 584.436 704.997L584.522 728.62L540.269 729.033C540.131 721.933 539.931 714.185 539.667 705.788C539.438 698.734 539.678 691.571 540.39 684.299Z" fill="#FD7E73"/>
<path d="M478.778 688.376L478.743 706.029L435.472 705.479L435.799 688.686C450.102 689.386 464.428 689.283 478.778 688.376Z" fill="#FED96E"/>
<path d="M540.493 687.671C540.906 688.118 541.284 688.485 541.629 688.772C541.996 689.07 542.466 689.237 543.039 689.271C556.792 689.971 570.568 689.919 584.367 689.116L584.436 704.997C577.829 705.765 567.494 706.293 553.431 706.58C548.442 706.683 544.473 706.436 541.525 705.84C540.94 705.725 540.608 705.375 540.527 704.79C539.69 699.113 539.679 693.406 540.493 687.671Z" fill="#FED96E"/>
<path d="M645.069 689.288L691.146 689.133L691.283 706.339L645.104 706.769L645.069 689.288Z" fill="#FED96E"/>
<path d="M330.364 701.986C329.893 704.601 330.777 705.92 333.013 705.943C352.1 706.161 365.211 706.15 372.345 705.909C374.203 705.84 375.322 704.928 375.7 703.173L375.872 728.104C362.005 729.285 348.355 729.022 334.923 727.313C333.18 727.095 331.689 727.668 330.45 729.033L330.364 701.986Z" fill="#FD7E73"/>
<path d="M435.471 705.479L478.743 706.029L479.053 728.121L435.316 728.551L435.471 705.479Z" fill="#FD7E73"/>
<path d="M691.283 706.339L691.524 728.465L645.963 728.655C645.356 728.655 645.04 728.959 645.017 729.566L644.862 734.504L645.103 706.769L691.283 706.339Z" fill="#FD7E73"/>
<path d="M375.872 728.104L375.751 736.363C375.747 736.658 375.628 736.94 375.419 737.148C375.21 737.357 374.928 737.477 374.633 737.481L332.652 738.032C332.163 738.036 331.692 737.85 331.338 737.513C330.985 737.175 330.777 736.713 330.759 736.225L330.449 729.033C331.688 727.668 333.179 727.095 334.923 727.313C348.354 729.022 362.004 729.285 375.872 728.104Z" fill="#FBFFFE"/>
<path d="M479.053 728.121L479.087 736.759C479.087 737.344 478.789 737.642 478.192 737.653L436.435 737.67C435.815 737.67 435.5 737.366 435.488 736.759L435.316 728.551L479.053 728.121Z" fill="#FBFFFE"/>
<path d="M691.524 728.465L691.455 736.105C691.455 737.102 690.95 737.607 689.941 737.619C675.557 737.71 661.018 737.716 646.325 737.636C645.189 737.636 644.702 736.592 644.862 734.504L645.017 729.567C645.04 728.959 645.356 728.655 645.963 728.655L691.524 728.465Z" fill="#FBFFFE"/>
<path d="M584.523 728.621L584.609 736.707C584.62 737.384 584.288 737.722 583.611 737.722L541.888 737.911C541.533 737.912 541.193 737.773 540.939 737.526C540.685 737.278 540.538 736.941 540.529 736.587L540.271 729.034L584.523 728.621Z" fill="#FBFFFE"/>
</svg>
