<svg width="1024" height="1024" viewBox="0 0 1024 1024" fill="none" xmlns="http://www.w3.org/2000/svg">
<rect width="1024" height="1024" fill="white"/>
<path d="M722.612 369.033L705.842 370.316" stroke="#1C9BD8" stroke-width="2"/>
<path d="M705.842 370.316C704.441 369.716 702.896 369.094 701.207 368.449C699.662 367.86 698.04 367.56 696.339 367.549C676.324 367.327 656.503 367.493 636.876 368.049" stroke="#80B6DC" stroke-width="2"/>
<path d="M636.875 368.049C625.895 369.427 614.298 369.738 602.084 368.983" stroke="#1C9BD8" stroke-width="2"/>
<path d="M602.085 368.983C582.514 347.611 557.752 334.73 527.801 330.341C527.312 330.274 527.068 329.996 527.068 329.507L526.851 300.5C526.849 300.371 526.873 300.242 526.921 300.121C526.97 300.001 527.042 299.892 527.134 299.8C527.226 299.708 527.335 299.636 527.456 299.587C527.576 299.539 527.705 299.515 527.835 299.517C537.226 299.706 546.744 299.684 556.391 299.45C563.926 299.284 568.927 294.282 568.994 286.797C569.077 277.562 561.376 276.295 553.524 276.245C545.366 276.201 537.22 276.162 529.085 276.128C528.618 276.124 528.171 275.938 527.84 275.611C527.51 275.284 527.322 274.841 527.318 274.378C527.218 266.293 528.868 257.491 518.899 254.54C511.648 252.39 504.779 258.591 504.779 265.843C504.801 286.692 504.863 307.635 504.963 328.674C504.974 329.54 504.551 330.018 503.696 330.107C462.836 334.725 430.146 359.397 410.975 395.222" stroke="#08375D" stroke-width="2"/>
<path d="M410.975 395.222L410.758 394.789C410.614 394.489 410.375 394.339 410.041 394.339L302.2 394.455" stroke="#1C9BD8" stroke-width="2"/>
<path d="M324.005 326.006C335.941 341.087 351.439 349.589 370.499 351.512C383.635 352.845 397.755 347.344 408.574 340.209C428.029 327.373 438.531 299.35 433.63 276.911C429.679 258.857 419.527 248.872 405.207 237.736" stroke="#807684" stroke-width="2"/>
<path d="M705.841 370.316C710.359 378.568 708.559 390.671 697.673 390.621C679.602 390.532 661.548 390.421 643.511 390.287C630.108 390.204 628.807 375.417 636.876 368.049" stroke="#9BE4FB" stroke-width="2"/>
<path d="M602.084 368.982C622.039 391.121 632.508 421.111 632.974 451.318C633.097 458.63 633.191 466.26 633.258 474.206C633.269 475.262 633.802 475.762 634.858 475.706C641.904 475.362 649.228 475.317 656.83 475.573C662.831 475.79 664.398 481.058 664.365 486.492C664.209 517.01 664.437 548.273 665.048 580.28" stroke="#24657C" stroke-width="2"/>
<path d="M364.164 579.814L364.814 485.909" stroke="#3B4B68" stroke-width="2"/>
<path d="M364.814 485.909C364.331 478.958 372.633 473.04 378.867 474.257C384.224 475.301 389.875 475.668 395.821 475.357C396.81 475.312 397.322 474.796 397.355 473.806C397.888 459.587 397.388 443.95 399.672 431.147C401.85 418.844 405.618 406.869 410.975 395.222" stroke="#24657C" stroke-width="2"/>
<path d="M364.814 485.909L363.714 486.292C363.247 486.448 362.769 486.526 362.28 486.526L309.701 487.259" stroke="#4EAFE3" stroke-width="2"/>
<path d="M324.738 439.549C329.239 438.626 334.079 438.259 339.258 438.448C348.527 438.804 358.612 438.782 369.515 438.382C377.016 438.115 382.818 434.881 381.417 426.646C380.473 421.111 376.772 418.294 370.315 418.194C346.887 417.838 323.299 417.666 299.549 417.677" stroke="#1C94CF" stroke-width="2"/>
<path d="M731.864 416.776C717.783 417.221 703.791 417.477 689.888 417.543C686.01 417.565 683.231 418.066 681.553 419.044C674.935 422.928 676.902 434.547 683.47 437.298C685.204 438.02 688.61 438.398 693.689 438.431C706.059 438.509 718.55 438.581 731.164 438.648" stroke="#1C94CF" stroke-width="2"/>
<path d="M722.613 369.033L705.842 370.316C704.442 369.716 702.897 369.094 701.208 368.449C699.663 367.86 698.04 367.56 696.34 367.549C676.324 367.327 656.503 367.493 636.876 368.049C625.896 369.427 614.299 369.738 602.085 368.983C582.514 347.611 557.753 334.73 527.802 330.34C527.313 330.274 527.068 329.996 527.068 329.507L526.851 300.5C526.849 300.371 526.873 300.242 526.922 300.121C526.97 300.001 527.043 299.892 527.134 299.8C527.226 299.708 527.336 299.636 527.456 299.587C527.576 299.538 527.705 299.514 527.835 299.517C537.226 299.706 546.745 299.683 556.391 299.45C563.926 299.283 568.928 294.282 568.994 286.797C569.078 277.562 561.376 276.295 553.524 276.245C545.367 276.2 537.22 276.161 529.085 276.128C528.618 276.124 528.171 275.938 527.84 275.611C527.51 275.283 527.322 274.841 527.318 274.378C527.218 266.293 528.868 257.491 518.9 254.54C511.648 252.389 504.78 258.591 504.78 265.842C504.802 286.692 504.863 307.635 504.963 328.673C504.974 329.54 504.552 330.018 503.696 330.107C462.837 334.725 430.146 359.397 410.975 395.222L410.758 394.788C410.614 394.488 410.375 394.338 410.041 394.338L302.2 394.455C306.023 370.116 313.292 347.3 324.005 326.006C335.941 341.087 351.439 349.589 370.499 351.512C383.635 352.846 397.755 347.344 408.574 340.209C428.029 327.373 438.531 299.35 433.63 276.912C429.679 258.858 419.527 248.872 405.207 237.736C432.858 224.489 459.636 216.365 485.542 213.364C554.874 205.329 627.191 233.252 674.518 285.163C692.539 304.951 705.942 328.773 716.978 353.612C719.479 359.225 721.357 364.365 722.613 369.033Z" fill="#006DB9"/>
<path d="M405.207 237.736C419.527 248.872 429.679 258.858 433.63 276.912C438.531 299.35 428.029 327.373 408.574 340.21C397.755 347.345 383.635 352.846 370.499 351.512C351.439 349.59 335.941 341.088 324.005 326.006C321.338 322.861 319.343 319.472 318.02 315.837C315.37 308.569 313.369 300.184 313.269 292.382C312.669 248.605 354.312 220.349 395.354 233.702C396.599 234.102 398.205 234.841 400.172 235.919C402.295 237.086 403.973 237.692 405.207 237.736Z" fill="#FF7F4F"/>
<path d="M602.085 368.983C622.039 391.121 632.508 421.111 632.975 451.318C633.097 458.631 633.192 466.26 633.259 474.207C633.27 475.262 633.803 475.763 634.859 475.707C641.905 475.362 649.229 475.318 656.831 475.574C662.832 475.79 664.399 481.058 664.366 486.493C664.21 517.011 664.438 548.273 665.049 580.281L664.916 605.87C664.905 606.426 665.155 606.826 665.666 607.07C670.756 609.471 677.791 612.988 686.771 617.623C712.777 631.042 723.512 653.764 723.729 682.287C723.731 682.438 723.763 682.588 723.823 682.726C723.883 682.865 723.969 682.991 724.078 683.096C724.186 683.201 724.314 683.284 724.455 683.34C724.595 683.396 724.745 683.423 724.896 683.421C742.756 683.388 760.738 683.371 778.842 683.371C789.694 683.371 794.645 687.055 794.679 697.924C794.779 730.632 794.812 763.334 794.779 796.03C794.779 805.715 791.511 811.85 781.309 811.85C601.59 811.806 421.872 811.856 242.153 812C237.741 812 234.39 810.05 232.101 806.149C229.717 802.081 230.284 796.963 230.267 792.212C230.167 761.628 230.078 731.043 230 700.458C229.983 690.206 232.117 683.821 243.403 683.738C283.49 683.482 323.466 683.36 363.33 683.371C363.474 683.371 363.616 683.343 363.749 683.288C363.882 683.233 364.002 683.153 364.103 683.052C364.203 682.952 364.283 682.832 364.336 682.701C364.39 682.569 364.416 682.429 364.414 682.287L364.164 579.814L364.814 485.909C364.331 478.958 372.633 473.04 378.867 474.257C384.224 475.301 389.875 475.668 395.821 475.357C396.81 475.312 397.322 474.796 397.355 473.807C397.888 459.587 397.388 443.95 399.672 431.147C401.85 418.844 405.618 406.869 410.975 395.222C430.146 359.397 462.836 334.725 503.696 330.107C504.551 330.018 504.974 329.54 504.963 328.674C504.863 307.635 504.801 286.692 504.779 265.843C504.779 258.591 511.648 252.39 518.899 254.54C528.868 257.491 527.218 266.293 527.318 274.378C527.322 274.841 527.51 275.284 527.84 275.611C528.171 275.938 528.618 276.124 529.085 276.128C537.22 276.162 545.366 276.201 553.524 276.245C561.376 276.295 569.077 277.562 568.994 286.797C568.927 294.282 563.926 299.284 556.391 299.45C546.744 299.684 537.226 299.706 527.835 299.517C527.705 299.515 527.576 299.539 527.456 299.587C527.335 299.636 527.226 299.708 527.134 299.8C527.042 299.892 526.97 300.001 526.921 300.121C526.873 300.242 526.849 300.371 526.851 300.5L527.068 329.507C527.068 329.996 527.312 330.274 527.801 330.341C557.752 334.73 582.514 347.611 602.085 368.983Z" fill="#100000"/>
<path d="M705.841 370.316C710.359 378.568 708.559 390.671 697.673 390.621C679.602 390.532 661.548 390.421 643.511 390.287C630.108 390.204 628.807 375.417 636.876 368.049C656.502 367.493 676.324 367.327 696.339 367.549C698.04 367.56 699.662 367.86 701.207 368.449C702.896 369.094 704.441 369.716 705.841 370.316Z" fill="white"/>
<path d="M636.876 368.049C628.808 375.417 630.108 390.204 643.511 390.287C661.549 390.421 679.603 390.532 697.673 390.621C708.559 390.671 710.36 378.568 705.842 370.316L722.612 369.033C725.513 378.012 727.502 386.403 728.58 394.205C730.181 405.897 731.276 413.42 731.865 416.777C717.784 417.221 703.792 417.477 689.888 417.544C686.01 417.566 683.231 418.066 681.553 419.044C674.935 422.928 676.902 434.548 683.47 437.298C685.204 438.021 688.61 438.398 693.689 438.432C706.059 438.51 718.55 438.582 731.164 438.648C730.42 444.572 729.797 450.034 729.297 455.036C727.53 472.517 723.218 489.327 716.361 505.464C714.244 510.431 710.976 516.149 705.175 515.916C699.24 515.683 686.454 514.199 681.42 516.833C675.885 519.734 675.535 526.785 678.419 531.803C682.187 538.388 688.071 537.571 694.323 537.054C694.56 537.034 694.798 537.075 695.014 537.175C695.229 537.275 695.415 537.429 695.553 537.622C695.692 537.816 695.777 538.042 695.801 538.279C695.824 538.515 695.786 538.754 695.69 538.971C695.312 539.827 694.756 540.811 694.023 541.922C685.376 554.814 675.718 567.6 665.049 580.281C664.438 548.273 664.21 517.011 664.366 486.493C664.399 481.058 662.832 475.79 656.831 475.574C649.229 475.318 641.905 475.362 634.859 475.707C633.803 475.762 633.27 475.262 633.259 474.207C633.192 466.26 633.098 458.631 632.975 451.318C632.509 421.111 622.04 391.121 602.085 368.983C614.299 369.738 625.896 369.427 636.876 368.049Z" fill="#37C9F7"/>
<path d="M302.199 394.455L410.041 394.339C410.374 394.339 410.613 394.489 410.758 394.789L410.974 395.222C405.617 406.869 401.85 418.844 399.672 431.147C397.388 443.95 397.888 459.587 397.354 473.807C397.321 474.796 396.81 475.313 395.821 475.357C389.875 475.668 384.224 475.301 378.867 474.257C372.632 473.04 364.33 478.958 364.814 485.909L363.713 486.293C363.247 486.448 362.769 486.526 362.28 486.526L309.701 487.26L303.433 464.738C303.404 464.626 303.401 464.508 303.425 464.395C303.449 464.282 303.499 464.177 303.57 464.087C303.642 463.998 303.733 463.927 303.837 463.881C303.941 463.834 304.053 463.814 304.167 463.821C312.002 464.221 336.174 466.522 341.392 460.704C346.86 454.602 343.492 445.45 336.391 442.316C333.101 440.86 329.217 439.938 324.738 439.549C329.239 438.626 334.079 438.26 339.258 438.449C348.527 438.804 358.612 438.782 369.515 438.382C377.016 438.115 382.818 434.881 381.417 426.646C380.473 421.111 376.772 418.294 370.315 418.194C346.887 417.838 323.299 417.666 299.549 417.677L302.199 394.455Z" fill="#37C9F7"/>
<path d="M731.864 416.777L731.164 438.649C718.55 438.582 706.059 438.51 693.689 438.432C688.61 438.399 685.204 438.021 683.47 437.298C676.902 434.548 674.935 422.928 681.553 419.044C683.231 418.066 686.01 417.566 689.888 417.544C703.791 417.477 717.783 417.222 731.864 416.777Z" fill="#015EA6"/>
<path d="M299.549 417.677C323.299 417.666 346.887 417.838 370.315 418.194C376.772 418.294 380.473 421.111 381.417 426.646C382.818 434.881 377.016 438.115 369.515 438.382C358.612 438.782 348.527 438.804 339.258 438.448C334.079 438.259 329.239 438.626 324.738 439.549L301.633 440.549C301.365 440.56 301.098 440.517 300.848 440.422C300.597 440.328 300.369 440.183 300.176 439.998C299.983 439.813 299.829 439.59 299.724 439.344C299.619 439.098 299.565 438.833 299.566 438.565L299.549 417.677Z" fill="#015EA6"/>
<path d="M364.814 485.909L364.164 579.814C362.919 579.602 361.98 579.136 361.346 578.413C351.222 566.933 341.542 554.508 332.306 541.138C332.085 540.814 331.96 540.433 331.946 540.041C331.932 539.648 332.029 539.26 332.226 538.92C332.422 538.58 332.711 538.303 333.059 538.12C333.406 537.938 333.799 537.857 334.19 537.887C338.124 538.187 342.825 538.154 346.293 536.22C352.928 532.536 355.695 521.634 348.927 517.149C343.492 513.565 329.939 515.032 323.104 515.132C322.667 515.137 322.236 515.036 321.85 514.838C321.463 514.641 321.133 514.352 320.887 513.999C315.753 506.664 312.024 497.751 309.701 487.259L362.28 486.526C362.769 486.526 363.247 486.448 363.714 486.292L364.814 485.909Z" fill="#6595CF"/>
<path d="M519.75 354.096C515.549 357.28 510.065 358.58 505.53 360.747C502.152 362.359 497.59 364.087 491.844 365.932C483.764 368.532 474.807 374.167 464.971 382.836C446.9 398.75 436.748 418.772 434.514 442.899C434.414 443.933 433.764 445.35 433.731 446.383C433.708 447.017 434.014 447.334 434.647 447.334L517.133 446.8" stroke="#80AFD3" stroke-width="2"/>
<path d="M517.132 446.801C517.432 446.989 517.865 447.112 518.432 447.167C518.966 447.212 519.193 447.501 519.116 448.034C518.165 454.119 525.534 455.803 523.567 460.404" stroke="#ECFBFB" stroke-width="2"/>
<path d="M523.768 354.679C525.913 356.724 528.141 358.653 530.452 360.464C551.324 376.868 564.56 401.924 567.894 428.113C568.361 431.814 568.261 438.048 567.594 446.817" stroke="#014584" stroke-width="2"/>
<path d="M567.593 446.817L517.132 446.801" stroke="#6DAACF" stroke-width="2"/>
<path d="M555.857 364.265C556.135 366.387 557.686 368.399 560.508 370.299C562.776 371.844 564.459 373.383 565.56 374.917C574.078 386.803 582.18 396.339 585.698 411.059C588.043 420.85 589.465 430.785 589.965 440.865C590.021 441.943 590.315 442.994 590.849 444.016C591.382 445.039 591.843 446.055 592.232 447.067" stroke="#003875" stroke-width="2"/>
<path d="M592.233 447.067L567.594 446.817" stroke="#6D91AD" stroke-width="2"/>
<path d="M609.286 447.201L592.232 447.067" stroke="#6D9DC0" stroke-width="2"/>
<path d="M559.425 499.246C559.302 500.857 558.925 502.68 558.291 504.714C557.691 506.658 557.43 508.47 557.508 510.148C559.558 554.058 562.059 597.968 563.876 641.895C564.42 655.287 565.47 671.568 567.026 690.739C568.877 713.594 568.26 741.367 569.56 768.173C569.894 774.897 570.005 781.66 569.894 788.461" stroke="#ECFBFB" stroke-width="2"/>
<path d="M476.623 697.59C471.844 696.046 467.987 696.985 465.053 700.408C462.33 703.597 460.947 707.804 460.902 713.027C460.713 738.133 460.563 763.244 460.452 788.361" stroke="#ECFBFB" stroke-width="2"/>
<path d="M327.99 788.228C327.512 787.672 326.762 786.283 325.739 784.06C323.905 780.048 320.221 776.258 314.687 772.691" stroke="#F9AE98" stroke-width="2"/>
<path d="M314.686 772.691C321.304 769.607 328.139 767.957 329.273 759.989C331.457 744.752 305.934 737.217 302.75 755.554" stroke="#8096B1" stroke-width="2"/>
<path d="M302.75 755.554C299.382 755.865 295.759 755.56 291.881 754.637C291.336 754.515 290.981 754.187 290.814 753.654C288.63 746.419 288.197 739.484 279.678 736.866C270.226 733.982 259.723 740.484 261.474 751.07C262.291 755.954 267.875 762.406 266.942 767.173C266.845 767.7 266.561 768.174 266.142 768.507C262.541 771.33 258.212 773.147 253.155 773.958" stroke="#FFE2BC" stroke-width="2"/>
<path d="M314.686 772.691C312.674 772.202 311.391 771.407 310.835 770.307" stroke="#79444A" stroke-width="2"/>
<path d="M732.081 706.81L732.898 788.278" stroke="#9FC6E3" stroke-width="2"/>
<path d="M302.75 755.554C308.44 759.066 311.135 763.983 310.835 770.307" stroke="#80786E" stroke-width="2"/>
<path d="M310.835 770.307C297.465 768.596 290.258 774.014 289.214 786.561C289.176 787.012 288.971 787.432 288.641 787.738C288.31 788.044 287.878 788.213 287.43 788.212L266.375 788.195" stroke="#F99055" stroke-width="2"/>
<path d="M751.319 788.045L751.252 706.743" stroke="#91BAE1" stroke-width="2"/>
<path d="M670.251 323.548C670.253 324.971 669.975 326.381 669.433 327.696C668.891 329.012 668.095 330.208 667.09 331.216C666.086 332.224 664.893 333.024 663.579 333.571C662.265 334.118 660.857 334.4 659.434 334.403L615.357 334.48C613.934 334.482 612.525 334.204 611.209 333.662C609.893 333.12 608.697 332.324 607.689 331.319C606.681 330.315 605.881 329.122 605.334 327.808C604.787 326.494 604.505 325.086 604.502 323.663L604.501 322.863C604.499 321.44 604.776 320.03 605.319 318.714C605.861 317.399 606.657 316.203 607.661 315.195C608.666 314.187 609.859 313.387 611.173 312.84C612.486 312.293 613.895 312.01 615.318 312.008L659.394 311.931C660.817 311.928 662.227 312.206 663.543 312.748C664.858 313.291 666.054 314.087 667.062 315.091C668.07 316.096 668.87 317.289 669.417 318.603C669.964 319.916 670.247 321.325 670.249 322.748L670.251 323.548Z" fill="white"/>
<path d="M401.906 290.514C401.906 297.973 398.943 305.126 393.669 310.4C388.395 315.675 381.242 318.637 373.783 318.637C366.325 318.637 359.171 315.675 353.897 310.4C348.623 305.126 345.66 297.973 345.66 290.514C345.66 283.056 348.623 275.903 353.897 270.628C359.171 265.354 366.325 262.391 373.783 262.391C381.242 262.391 388.395 265.354 393.669 270.628C398.943 275.903 401.906 283.056 401.906 290.514Z" fill="white"/>
<path d="M519.75 354.096C515.549 357.28 510.064 358.58 505.53 360.747C502.151 362.359 497.589 364.087 491.843 365.932C483.764 368.532 474.806 374.167 464.971 382.836C446.9 398.75 436.748 418.772 434.514 442.899C434.414 443.933 433.763 445.35 433.73 446.383C433.708 447.017 434.014 447.334 434.647 447.334L517.132 446.8C517.433 446.989 517.866 447.111 518.433 447.167C518.966 447.211 519.194 447.5 519.116 448.034C518.166 454.118 525.534 455.802 523.567 460.403C511.565 452.985 499.945 461.887 501.045 475.373C501.101 476.107 500.768 476.468 500.045 476.457L466.921 475.957C466.199 475.946 465.86 475.584 465.904 474.873C467.104 452.335 440.515 453.952 440.115 475.007C440.104 475.618 439.798 475.918 439.198 475.907L422.744 475.773C421.855 475.773 421.4 475.329 421.377 474.44C421.266 467.683 421.166 460.664 421.077 453.385C420.855 434.725 425.328 417.321 434.497 401.173C452.19 369.999 479.196 353.59 515.515 351.945C517.06 351.878 518.472 352.595 519.75 354.096Z" fill="white"/>
<path d="M519.75 354.096C520.15 353.384 521.489 353.579 523.768 354.679C525.913 356.724 528.141 358.652 530.453 360.464C551.324 376.868 564.56 401.923 567.895 428.112C568.361 431.813 568.261 438.048 567.594 446.817L517.133 446.8L434.647 447.334C434.014 447.334 433.708 447.017 433.731 446.383C433.764 445.35 434.414 443.933 434.514 442.899C436.748 418.772 446.9 398.75 464.971 382.836C474.807 374.167 483.764 368.532 491.844 365.932C497.59 364.087 502.152 362.359 505.53 360.747C510.065 358.58 515.549 357.28 519.75 354.096Z" fill="#015EA6"/>
<path d="M523.768 354.68C526.968 354.591 529.569 354.78 531.569 355.246C539.738 357.125 547.834 360.131 555.858 364.265C556.136 366.388 557.686 368.399 560.509 370.3C562.776 371.845 564.46 373.384 565.56 374.917C574.079 386.804 582.181 396.339 585.698 411.059C588.043 420.85 589.466 430.786 589.966 440.866C590.022 441.944 590.316 442.994 590.849 444.017C591.383 445.039 591.844 446.056 592.233 447.067L567.594 446.817C568.261 438.049 568.361 431.814 567.894 428.113C564.56 401.924 551.324 376.868 530.452 360.464C528.141 358.653 525.913 356.724 523.768 354.68Z" fill="#002C62"/>
<path d="M555.857 364.265C575.006 373.322 589.076 387.231 598.067 405.991C602.318 414.91 606.652 425.362 607.269 434.631C607.614 439.799 608.286 443.988 609.286 447.2L592.232 447.067C591.843 446.055 591.382 445.039 590.849 444.016C590.315 442.994 590.021 441.943 589.965 440.865C589.465 430.785 588.043 420.85 585.698 411.059C582.18 396.339 574.078 386.803 565.56 374.917C564.459 373.383 562.776 371.844 560.508 370.299C557.686 368.399 556.135 366.387 555.857 364.265Z" fill="#004388"/>
<path d="M517.132 446.801L567.593 446.817L592.232 447.067L609.286 447.201L609.436 475.34C609.436 475.486 609.38 475.626 609.28 475.729C609.18 475.833 609.044 475.891 608.903 475.891L591.799 475.874C591.132 475.874 590.749 475.546 590.649 474.89C589.632 468.205 589.615 462.671 583.08 459.253C579.479 457.353 575.79 457.125 572.011 458.57C565.026 461.237 564.076 468.439 563.459 475.207C563.403 475.796 563.081 476.085 562.492 476.074L530.351 475.941C529.729 475.929 529.396 475.613 529.351 474.99C528.901 468.455 529.035 464.588 523.567 460.404C525.534 455.803 518.165 454.119 519.116 448.034C519.193 447.501 518.966 447.212 518.432 447.167C517.865 447.112 517.432 446.989 517.132 446.801Z" fill="#D9F6F7"/>
<path d="M559.425 499.246C559.303 500.857 558.925 502.68 558.291 504.714C557.691 506.658 557.43 508.47 557.508 510.148C559.558 554.058 562.059 597.968 563.876 641.895C564.421 655.287 565.471 671.568 567.027 690.739C568.877 713.594 568.26 741.367 569.561 768.173C569.894 774.897 570.005 781.66 569.894 788.461L554.857 788.478C554.643 788.478 554.438 788.394 554.285 788.245C554.133 788.095 554.045 787.892 554.04 787.678C553.685 760.472 553.507 733.393 553.507 706.443C553.518 701.164 552.862 696.757 551.54 693.223C546.717 680.253 537.87 671.868 525 668.067C518.054 666.022 511.208 666.006 504.462 668.017C490.748 672.107 481.468 681.965 476.623 697.591C471.844 696.046 467.988 696.985 465.054 700.408C462.331 703.598 460.947 707.804 460.902 713.028C460.714 738.133 460.564 763.245 460.452 788.361L327.989 788.228C327.511 787.672 326.761 786.283 325.738 784.06C323.905 780.048 320.221 776.259 314.686 772.691C321.304 769.607 328.139 767.957 329.273 759.988C331.456 744.751 305.934 737.216 302.75 755.554C299.382 755.865 295.759 755.559 291.881 754.637C291.336 754.515 290.981 754.187 290.814 753.653C288.63 746.418 288.197 739.484 279.678 736.866C270.226 733.982 259.723 740.484 261.474 751.07C262.291 755.954 267.875 762.405 266.942 767.173C266.845 767.7 266.561 768.173 266.142 768.507C262.541 771.33 258.212 773.147 253.155 773.958L253.672 708.276C253.676 707.912 253.822 707.565 254.078 707.309C254.334 707.053 254.679 706.91 255.039 706.909L383.485 706.959C384.767 706.959 385.997 706.452 386.903 705.548C387.81 704.645 388.319 703.419 388.319 702.142L388.419 500.946C388.419 500.495 388.599 500.062 388.917 499.744C389.236 499.425 389.669 499.246 390.12 499.246H559.425Z" fill="white"/>
<path d="M559.425 499.245L640.21 499.212C640.424 499.212 640.629 499.296 640.781 499.445C640.934 499.595 641.022 499.798 641.027 500.012L641.677 701.991C641.688 704.881 643.133 706.331 646.011 706.342L732.081 706.809L732.897 788.278L569.894 788.461C570.005 781.66 569.894 774.897 569.56 768.173C568.26 741.367 568.877 713.594 567.026 690.739C565.47 671.568 564.42 655.286 563.876 641.894C562.059 597.968 559.558 554.058 557.508 510.148C557.43 508.47 557.691 506.658 558.291 504.713C558.925 502.679 559.302 500.857 559.425 499.245Z" fill="#D9F6F7"/>
<path d="M665.966 634.776C688.738 639.644 700.207 659.799 699.99 681.954C699.979 682.398 699.751 682.62 699.307 682.62L666.366 682.57C666.135 682.571 665.912 682.482 665.747 682.323C665.582 682.164 665.487 681.947 665.483 681.72L665.049 635.526C665.038 634.893 665.344 634.643 665.966 634.776Z" fill="#BDDFF3"/>
<path d="M476.623 697.59L476.106 787.044C476.106 787.213 476.072 787.38 476.008 787.535C475.943 787.691 475.849 787.833 475.73 787.952C475.611 788.071 475.469 788.166 475.313 788.23C475.158 788.295 474.991 788.328 474.822 788.328L460.452 788.361C460.563 763.244 460.713 738.133 460.902 713.027C460.947 707.804 462.33 703.597 465.053 700.408C467.987 696.985 471.844 696.046 476.623 697.59Z" fill="#D9F6F7"/>
<path d="M751.319 788.044L751.252 706.743L771.19 706.643C771.264 706.643 771.338 706.657 771.407 706.686C771.475 706.714 771.538 706.756 771.591 706.809C771.643 706.861 771.685 706.924 771.713 706.992C771.742 707.061 771.757 707.135 771.757 707.209L771.923 787.628C771.925 787.703 771.912 787.779 771.884 787.85C771.855 787.92 771.813 787.985 771.758 788.039C771.704 788.093 771.639 788.137 771.567 788.166C771.495 788.196 771.418 788.211 771.34 788.211L751.319 788.044Z" fill="#BDDFF3"/>
<path d="M732.081 706.81L751.252 706.743L751.319 788.045L732.898 788.278L732.081 706.81Z" fill="#6595CF"/>
<path d="M302.75 755.554C308.44 759.066 311.135 763.984 310.835 770.307C297.465 768.596 290.258 774.014 289.213 786.561C289.176 787.012 288.971 787.432 288.641 787.738C288.31 788.044 287.878 788.213 287.43 788.211L266.375 788.195L254.589 788.261C253.867 788.261 253.494 787.9 253.472 787.178L253.155 773.958C258.212 773.147 262.541 771.33 266.142 768.507C266.561 768.174 266.845 767.7 266.942 767.173C267.875 762.406 262.291 755.954 261.474 751.07C259.723 740.484 270.226 733.982 279.678 736.866C288.197 739.484 288.63 746.419 290.814 753.654C290.981 754.187 291.336 754.515 291.881 754.637C295.759 755.56 299.382 755.865 302.75 755.554Z" fill="#FFC479"/>
<path d="M314.686 772.691C312.674 772.202 311.391 771.408 310.835 770.308C311.135 763.984 308.44 759.066 302.75 755.554C305.934 737.217 331.457 744.752 329.273 759.989C328.139 767.957 321.304 769.607 314.686 772.691Z" fill="#002C62"/>
<path d="M310.835 770.307C311.391 771.408 312.674 772.202 314.686 772.691C320.221 776.259 323.905 780.049 325.739 784.061C326.761 786.283 327.511 787.672 327.989 788.228L266.375 788.195L287.43 788.212C287.878 788.213 288.31 788.044 288.641 787.738C288.971 787.432 289.176 787.012 289.214 786.561C290.258 774.014 297.465 768.596 310.835 770.307Z" fill="#F25C31"/>
<path d="M631.559 704.609L623.374 704.659" stroke="#336199" stroke-width="2"/>
<path d="M504.829 391.421C502.573 392.588 497.966 395.5 491.009 400.157C480.257 407.342 469.704 395.372 474.255 384.753C479.223 373.117 508.513 356.897 512.297 379.635C513.314 385.687 509.48 388.987 504.829 391.421Z" fill="white"/>
<path d="M494.577 542.072C504.229 521.084 529.918 523.801 537.437 545.189C538.437 548.045 538.932 552.474 538.921 558.476C538.865 578.747 538.837 599.018 538.837 619.289C538.82 630.008 536.103 636.777 524.684 637.327C517.849 637.677 503.046 639.177 497.561 634.843C493.56 631.676 492.677 627.891 492.66 622.557C492.593 603.108 492.565 583.665 492.577 564.227C492.577 556.959 491.176 549.474 494.577 542.072Z" fill="#100000"/>
<path d="M407.908 585.982C407.389 585.982 406.891 585.777 406.523 585.412C406.154 585.046 405.945 584.55 405.941 584.031L405.874 545.173C405.869 542.959 406.232 540.766 406.943 538.719C407.653 536.673 408.697 534.812 410.014 533.244C411.332 531.676 412.897 530.431 414.621 529.58C416.344 528.729 418.193 528.289 420.061 528.285H420.827C424.598 528.278 428.218 530.045 430.891 533.2C433.564 536.354 435.071 540.637 435.081 545.106L435.147 583.965C435.15 584.224 435.1 584.482 435.003 584.723C434.905 584.963 434.76 585.182 434.577 585.367C434.394 585.551 434.177 585.697 433.937 585.797C433.697 585.897 433.44 585.949 433.18 585.949L407.908 585.982Z" fill="#100000"/>
<path d="M599.785 585.549C599.332 585.549 598.885 585.459 598.467 585.286C598.049 585.112 597.67 584.858 597.351 584.537C597.032 584.216 596.779 583.836 596.607 583.417C596.436 582.999 596.348 582.55 596.351 582.098L596.417 545.756C596.428 540.956 597.944 536.355 600.632 532.967C603.32 529.578 606.961 527.678 610.754 527.686H611.087C612.966 527.689 614.826 528.161 616.56 529.075C618.294 529.988 619.868 531.325 621.193 533.01C622.518 534.694 623.568 536.692 624.283 538.891C624.997 541.089 625.362 543.445 625.357 545.823L625.291 582.165C625.286 583.073 624.922 583.942 624.279 584.582C623.635 585.223 622.764 585.582 621.857 585.582L599.785 585.549Z" fill="#100000"/>
<path d="M629.424 646.279C629.424 649.051 628.323 651.709 626.363 653.669C624.403 655.63 621.744 656.731 618.972 656.731C616.2 656.731 613.541 655.63 611.581 653.669C609.621 651.709 608.52 649.051 608.52 646.279C608.52 643.506 609.621 640.848 611.581 638.888C613.541 636.927 616.2 635.826 618.972 635.826C621.744 635.826 624.403 636.927 626.363 638.888C628.323 640.848 629.424 643.506 629.424 646.279Z" fill="#004388"/>
<path d="M631.558 704.609L623.373 704.659C613.504 701.759 615.088 687.989 625.29 686.488C636.126 684.888 642.044 699.358 631.558 704.609Z" fill="#002C62"/>
<path d="M623.373 704.659L631.558 704.609C628.458 706.309 625.729 706.326 623.373 704.659Z" fill="#6595CF"/>
<path d="M689.438 738.883C689.388 733.782 686.671 732.015 681.853 732.365C673.496 732.965 668.228 733.049 666.05 732.615C654.314 730.298 659.165 716.212 668.9 716.712C676.98 717.123 685.048 717.14 693.106 716.762C704.425 716.228 706.675 723.463 706.842 733.449C706.953 739.95 706.998 746.463 706.975 752.987C706.942 760.072 704.141 763.489 696.84 762.505C692.15 761.883 689.76 759.283 689.672 754.704C689.56 749.425 689.483 744.151 689.438 738.883Z" fill="#6595CF"/>
</svg>
