<svg width="1024" height="1024" viewBox="0 0 1024 1024" fill="none" xmlns="http://www.w3.org/2000/svg">
<rect width="1024" height="1024" fill="white"/>
<path d="M768.943 359.372L765.697 357.125C765.249 356.817 764.756 356.708 764.218 356.798C763.181 356.977 761.561 357.272 759.359 357.682C756.004 358.322 753.597 360.306 752.137 363.636C751.868 364.238 751.413 364.596 750.773 364.712C748.891 365.057 748.564 366.709 747.201 367.285C745.491 368.015 743.782 367.381 742.322 368.803" stroke="#3A0402" stroke-width="2"/>
<path d="M742.322 368.802C702.159 304.035 639.062 258.417 563.481 243.416C510.065 232.814 453.557 239.652 403.329 260.146C394.168 263.891 384.813 268.981 375.632 273.726C365.952 278.72 357.942 284.904 349.203 291.243C331.89 303.779 316.397 318.133 302.721 334.306C264.997 378.963 244.983 438.257 243.12 496.532" stroke="#AE837F" stroke-width="2"/>
<path d="M243.12 496.532C242.441 495.866 241.654 495.539 240.757 495.552C240.194 495.565 239.739 495.802 239.394 496.263C239.022 496.749 238.51 496.807 237.857 496.436C235.283 494.963 232.818 494.694 230.462 495.629C227.37 496.839 227.216 500.354 223.663 501.218C222.981 501.383 222.352 501.718 221.835 502.191C221.318 502.665 220.929 503.262 220.705 503.927L218.611 510.342C218.419 510.918 218.336 511.514 218.361 512.128L219.226 544.301" stroke="#3A0402" stroke-width="2"/>
<path d="M742.322 368.803C756.83 393.99 767.215 420.58 773.476 448.571" stroke="#8C7F7D" stroke-width="2"/>
<path d="M773.476 448.572C773.105 449.737 772.958 451.037 773.035 452.471C773.06 453.124 772.81 453.252 772.285 452.855C771.581 452.317 771.171 451.645 771.056 450.838C769.481 439.736 765.998 429.768 760.607 420.932" stroke="#DBC2AC" stroke-width="2"/>
<path d="M760.607 420.931C757.483 413.415 752.95 406.801 747.008 401.09C746.714 400.808 746.592 400.469 746.643 400.072C746.682 399.777 746.592 399.496 746.375 399.227C736.924 387.568 730.509 372.74 722.231 361.426C713.985 350.145 703.305 338.589 690.193 326.757C687.376 324.222 684.635 321.609 681.972 318.92C669.967 306.743 654.755 297.254 640.023 288.649" stroke="#ECE4CA" stroke-width="2"/>
<path d="M640.023 288.649C637.667 287.804 635.164 286.473 632.513 284.654C626.175 280.313 619.663 277.893 612.883 274.839C604.297 270.979 595.001 268.366 585.993 265.14C578.681 262.502 564.832 259.595 544.447 256.419C531.411 254.383 516.148 254.147 498.656 255.709C494.296 256.093 489.706 257.437 485.019 257.956C482.305 258.251 478.943 258.904 474.935 259.915C470.287 261.106 465.716 260.607 461.221 262.22C457.649 263.507 454.94 264.621 450.907 264.698C447.469 264.775 443.934 266.964 441.13 267.445C437.109 268.11 433.133 269.039 429.202 270.23C428.562 270.422 427.922 270.441 427.281 270.287C422.813 269.186 419.048 270.21 415.987 273.36C415.475 273.873 414.861 274.122 414.144 274.109C411.147 274.09 409.822 274.359 407.037 276.126C405.846 276.882 404.501 277.42 403.003 277.74C402.286 277.893 401.755 278.297 401.409 278.95C400.487 280.704 399.091 281.562 397.222 281.523C396.845 281.518 396.472 281.609 396.14 281.787C395.807 281.965 395.525 282.225 395.32 282.542C394.872 283.259 394.232 283.675 393.4 283.79C392.81 283.867 392.292 284.091 391.844 284.462C389.789 286.172 387.272 285.711 385.889 288.496C385.646 288.995 385.268 289.36 384.756 289.591L377.688 292.894C377.06 293.176 376.535 293.586 376.113 294.124C375.088 295.417 373.782 296.307 372.195 296.793C371.593 296.985 371.061 297.306 370.6 297.754C365.971 302.402 359.729 306.512 355.619 310.085C346.649 317.883 336.546 325.432 328.613 334.248C321.967 341.643 317.953 348.327 312.459 355.357C304.911 365.076 299.033 375.294 291.927 385.09C288.559 389.725 284.084 398.343 278.501 410.943C276.196 416.11 275.831 420.893 274.909 426.405C274.179 430.804 271.375 433.57 270.145 438.083C268.634 443.628 267.86 446.464 267.821 446.592C263.865 457.54 261.803 465.928 261.637 471.754C260.919 495.879 260.708 511.558 261.003 518.793C261.143 522.494 262.59 527.315 265.344 533.256" stroke="#FFFFF3" stroke-width="2"/>
<path d="M265.344 533.256L246.367 538.385C246.204 538.43 246.033 538.439 245.866 538.41C245.699 538.382 245.539 538.317 245.399 538.22C245.258 538.123 245.14 537.997 245.052 537.85C244.963 537.702 244.908 537.538 244.888 537.367C243.403 523.973 242.814 510.361 243.121 496.532" stroke="#8C7F7D" stroke-width="2"/>
<path d="M598.209 787.409C585.045 791.148 571.043 793.767 556.202 795.265C533.768 797.557 511.295 797.948 488.784 796.437C474.967 795.515 456.503 792.333 433.39 786.891" stroke="#803B0B" stroke-width="2"/>
<path d="M695.974 664.943L713.664 679.464C714.099 679.822 714.601 680.09 715.141 680.251C715.681 680.412 716.247 680.464 716.808 680.403C717.368 680.342 717.91 680.17 718.403 679.897C718.895 679.623 719.328 679.254 719.676 678.81C728.255 667.888 736.188 656.479 743.474 644.583C755.741 624.594 764.897 603.268 770.941 580.603C775.576 563.252 778.355 550.453 779.277 542.207C782.824 510.745 780.89 479.533 773.476 448.571" stroke="#68432F" stroke-width="2"/>
<path d="M640.023 288.649C641.073 294.911 642.264 300.936 643.596 306.724C645.158 313.574 646.073 319.625 646.342 324.875C647.456 347.04 647.021 366.222 645.036 382.42C639.056 431.463 619.285 475.57 585.723 514.74C580.384 520.976 572.189 528.768 561.138 538.116C548.115 549.128 536.149 557.022 525.239 561.798" stroke="#EBE5C3" stroke-width="2"/>
<path d="M525.239 561.799C504.585 553.399 487.855 547.073 475.05 542.822C458.365 537.29 439.868 532.61 419.56 528.782C378.008 520.932 336.353 520.567 294.596 527.687C288.783 528.673 279.032 530.529 265.343 533.257" stroke="#8B8076" stroke-width="2"/>
<path d="M760.607 420.931C759.276 421.316 758.379 421.104 757.918 420.298C757.624 419.798 757.207 419.446 756.67 419.241C754.531 418.409 752.713 417.045 751.215 415.15C751.061 414.958 750.965 414.74 750.927 414.497C750.875 414.087 750.619 413.882 750.158 413.882C749.492 413.882 749.128 414.215 749.064 414.881C748.743 418.274 749.019 421.623 749.889 424.927C761.356 468.892 760.53 512.032 748.967 555.691C740.478 587.825 729.337 614.178 710.418 642.47C708.882 644.775 706.289 646.177 706.135 649.923C706.134 650.055 706.09 650.184 706.01 650.29C705.93 650.396 705.818 650.473 705.69 650.51C705.563 650.547 705.427 650.541 705.303 650.494C705.178 650.447 705.073 650.361 705.002 650.249C704.758 649.916 704.598 649.532 704.521 649.097C704.368 648.354 703.932 648.111 703.215 648.367C702.537 648.61 701.986 649.013 701.564 649.577C701.481 649.687 701.431 649.818 701.421 649.955C701.411 650.092 701.441 650.23 701.507 650.352C701.573 650.475 701.673 650.577 701.795 650.647C701.918 650.717 702.057 650.752 702.197 650.749L703.638 650.672C704.368 650.646 704.707 650.992 704.656 651.709C704.541 653.502 703.676 654.776 702.063 655.531C701.5 655.8 701.141 656.242 700.987 656.856L700.565 658.739C700.36 659.558 699.886 659.77 699.143 659.373C698.285 658.912 697.351 658.726 696.339 658.816C696.198 658.828 696.121 658.905 696.108 659.046C696.096 659.213 696.077 659.373 696.051 659.526C696.025 659.77 696.121 659.955 696.339 660.083L698.068 661.14C698.785 661.575 699.022 662.19 698.778 662.984C698.305 664.584 697.37 665.237 695.974 664.943" stroke="#C8A87C" stroke-width="2"/>
<path d="M695.974 664.942C686.038 656.273 675.666 648.174 664.858 640.645C630.157 616.469 593.938 594.835 556.202 575.743C551.566 573.4 546.438 571.011 540.816 568.579C535.157 566.12 529.964 563.86 525.239 561.798" stroke="#78654D" stroke-width="2"/>
<path d="M305.544 788.85C305.263 791.232 306.319 792.846 308.714 793.691C309.008 793.793 309.213 793.703 309.328 793.422L309.578 792.826C309.637 792.682 309.642 792.522 309.592 792.377C309.543 792.231 309.442 792.111 309.309 792.039C307.619 791.078 306.78 789.766 306.793 788.101" stroke="#F39621" stroke-width="2"/>
<path d="M314.783 788.446L324.483 789.157C325.623 789.234 326.128 789.836 326 790.962C325.821 792.435 326.218 793.587 327.191 794.42C327.28 794.498 327.392 794.544 327.51 794.552C327.629 794.56 327.746 794.529 327.844 794.463C327.943 794.397 328.017 794.301 328.055 794.189C328.093 794.077 328.093 793.956 328.056 793.844C327.774 792.947 327.825 792.153 328.209 791.462C328.805 790.348 331.244 789.637 332.377 788.638" stroke="#F39621" stroke-width="2"/>
<path d="M768.943 359.372L765.697 357.125C765.249 356.817 764.756 356.708 764.218 356.798C763.181 356.977 761.561 357.272 759.359 357.682C756.004 358.322 753.596 360.307 752.137 363.636C751.868 364.238 751.413 364.596 750.773 364.712C748.891 365.057 748.564 366.709 747.2 367.285C745.491 368.015 743.781 367.381 742.322 368.803C702.159 304.035 639.063 258.417 563.481 243.416C510.065 232.814 453.557 239.652 403.33 260.146C394.168 263.892 384.814 268.982 375.632 273.726C365.952 278.72 357.942 284.905 349.203 291.243C331.891 303.779 316.397 318.133 302.721 334.306C264.998 378.963 244.983 438.257 243.12 496.532C242.442 495.866 241.654 495.54 240.758 495.553C240.194 495.565 239.74 495.802 239.394 496.263C239.023 496.75 238.51 496.807 237.857 496.436C235.284 494.964 232.819 494.695 230.463 495.629C227.37 496.839 227.216 500.354 223.663 501.219C222.981 501.383 222.352 501.718 221.835 502.192C221.318 502.665 220.929 503.262 220.705 503.927L218.612 510.342C218.419 510.918 218.336 511.514 218.362 512.129L219.226 544.301C208.777 449.973 234.899 363.559 302.068 296.294C311.761 286.588 325.629 275.179 343.671 262.067C350.221 257.303 360.516 251.349 368.795 247.123C396.85 232.872 426.346 222.602 457.283 216.315C464.761 214.791 478.533 213.498 498.598 212.435C530.272 210.745 560.619 213.952 591.082 222.576C614.016 229.069 634.28 236.098 655.389 247.757C703.042 274.072 742.187 310.489 768.943 359.372Z" fill="#5C0703"/>
<path d="M742.322 368.802C756.831 393.99 767.215 420.579 773.477 448.571C773.106 449.736 772.958 451.036 773.035 452.47C773.061 453.123 772.811 453.251 772.286 452.854C771.582 452.316 771.172 451.644 771.057 450.837C769.482 439.736 765.999 429.767 760.608 420.931C757.484 413.415 752.951 406.801 747.009 401.09C746.714 400.808 746.593 400.469 746.644 400.072C746.683 399.778 746.593 399.496 746.375 399.227C736.925 387.568 730.51 372.74 722.232 361.427C713.985 350.146 703.306 338.589 690.193 326.757C687.376 324.222 684.636 321.61 681.973 318.921C669.968 306.743 654.756 297.255 640.024 288.65C637.668 287.805 635.164 286.473 632.513 284.655C626.175 280.314 619.664 277.894 612.884 274.84C604.298 270.979 595.001 268.367 585.993 265.14C578.681 262.502 564.833 259.595 544.447 256.42C531.412 254.384 516.148 254.147 498.657 255.709C494.297 256.093 489.706 257.438 485.02 257.956C482.305 258.251 478.944 258.904 474.936 259.915C470.288 261.106 465.716 260.607 461.222 262.22C457.649 263.507 454.941 264.621 450.907 264.698C447.469 264.775 443.935 266.965 441.13 267.445C437.11 268.111 433.134 269.039 429.203 270.23C428.562 270.422 427.922 270.441 427.282 270.287C422.813 269.186 419.048 270.211 415.988 273.361C415.476 273.873 414.861 274.123 414.144 274.11C411.148 274.091 409.822 274.359 407.037 276.127C405.847 276.882 404.502 277.42 403.004 277.74C402.287 277.894 401.755 278.297 401.41 278.95C400.488 280.704 399.092 281.562 397.222 281.524C396.845 281.519 396.473 281.609 396.14 281.787C395.808 281.966 395.526 282.225 395.321 282.542C394.873 283.259 394.232 283.675 393.4 283.79C392.811 283.867 392.292 284.091 391.844 284.463C389.789 286.172 387.273 285.711 385.89 288.496C385.647 288.995 385.269 289.36 384.757 289.591L377.688 292.895C377.061 293.176 376.536 293.586 376.113 294.124C375.089 295.417 373.783 296.307 372.195 296.794C371.593 296.986 371.062 297.306 370.601 297.754C365.972 302.402 359.729 306.513 355.619 310.085C346.649 317.884 336.546 325.432 328.613 334.248C321.968 341.643 317.953 348.327 312.46 355.357C304.911 365.076 299.034 375.295 291.927 385.09C288.559 389.726 284.084 398.343 278.501 410.944C276.196 416.11 275.831 420.893 274.909 426.406C274.179 430.804 271.375 433.57 270.146 438.084C268.635 443.628 267.86 446.465 267.822 446.593C263.865 457.541 261.803 465.928 261.637 471.754C260.92 495.879 260.709 511.559 261.003 518.793C261.144 522.494 262.591 527.315 265.344 533.257L246.367 538.385C246.204 538.43 246.033 538.439 245.866 538.41C245.699 538.382 245.539 538.317 245.399 538.22C245.258 538.124 245.14 537.997 245.052 537.85C244.963 537.703 244.908 537.538 244.888 537.367C243.403 523.973 242.814 510.361 243.121 496.532C244.984 438.257 264.998 378.963 302.722 334.306C316.397 318.133 331.891 303.779 349.204 291.243C357.943 284.904 365.953 278.72 375.633 273.726C384.814 268.981 394.168 263.891 403.33 260.146C453.558 239.652 510.066 232.814 563.482 243.416C639.063 258.417 702.16 304.035 742.322 368.802Z" fill="#FFFEFA"/>
<path d="M640.023 288.649C641.073 294.911 642.264 300.936 643.596 306.724C645.158 313.574 646.074 319.625 646.342 324.875C647.457 347.04 647.021 366.222 645.036 382.42C639.056 431.463 619.285 475.57 585.724 514.74C580.384 520.976 572.189 528.768 561.138 538.116C548.116 549.128 536.149 557.022 525.239 561.799C504.585 553.399 487.855 547.073 475.05 542.822C458.366 537.29 439.869 532.61 419.56 528.781C378.008 520.932 336.353 520.567 294.596 527.686C288.783 528.672 279.032 530.529 265.344 533.256C262.59 527.315 261.143 522.494 261.003 518.793C260.708 511.558 260.919 495.879 261.637 471.754C261.803 465.928 263.865 457.54 267.821 446.592C267.86 446.464 268.634 443.628 270.145 438.083C271.375 433.57 274.179 430.804 274.909 426.405C275.831 420.893 276.196 416.11 278.501 410.943C284.084 398.343 288.559 389.725 291.927 385.09C299.033 375.294 304.911 365.076 312.459 355.357C317.953 348.327 321.967 341.643 328.613 334.248C336.546 325.432 346.649 317.883 355.619 310.085C359.729 306.512 365.971 302.402 370.6 297.754C371.061 297.306 371.593 296.985 372.195 296.793C373.782 296.307 375.088 295.417 376.113 294.124C376.535 293.586 377.06 293.176 377.688 292.894L384.756 289.591C385.268 289.36 385.646 288.995 385.889 288.496C387.272 285.711 389.789 286.172 391.844 284.462C392.292 284.091 392.81 283.867 393.4 283.79C394.232 283.675 394.872 283.259 395.32 282.542C395.525 282.225 395.807 281.965 396.14 281.787C396.472 281.609 396.845 281.518 397.222 281.523C399.091 281.562 400.487 280.704 401.409 278.95C401.755 278.297 402.286 277.893 403.003 277.74C404.501 277.42 405.846 276.882 407.037 276.126C409.822 274.359 411.147 274.09 414.144 274.109C414.861 274.122 415.475 273.873 415.987 273.36C419.048 270.21 422.813 269.186 427.281 270.287C427.922 270.441 428.562 270.422 429.202 270.23C433.133 269.039 437.109 268.11 441.13 267.445C443.934 266.964 447.469 264.775 450.907 264.698C454.94 264.621 457.649 263.507 461.221 262.22C465.716 260.607 470.287 261.106 474.935 259.915C478.943 258.904 482.305 258.251 485.019 257.956C489.706 257.437 494.296 256.093 498.656 255.709C516.148 254.147 531.411 254.383 544.447 256.419C564.832 259.595 578.681 262.502 585.993 265.14C595.001 268.366 604.297 270.979 612.883 274.839C619.663 277.893 626.175 280.313 632.513 284.654C635.164 286.473 637.667 287.804 640.023 288.649Z" fill="#FEFFEB"/>
<path d="M640.023 288.649C654.755 297.254 669.967 306.743 681.972 318.92C684.635 321.609 687.376 324.222 690.193 326.757C703.305 338.589 713.984 350.145 722.231 361.426C730.509 372.74 736.924 387.568 746.375 399.227C746.592 399.496 746.682 399.777 746.643 400.072C746.592 400.469 746.714 400.808 747.008 401.09C752.95 406.801 757.483 413.415 760.607 420.931C759.276 421.315 758.379 421.104 757.918 420.297C757.624 419.798 757.208 419.446 756.67 419.241C754.531 418.408 752.713 417.045 751.215 415.15C751.061 414.958 750.965 414.74 750.927 414.497C750.875 414.087 750.619 413.882 750.158 413.882C749.492 413.882 749.128 414.215 749.064 414.881C748.744 418.274 749.019 421.623 749.889 424.926C761.356 468.892 760.53 512.032 748.968 555.691C740.478 587.825 729.338 614.177 710.418 642.47C708.882 644.775 706.289 646.177 706.135 649.922C706.134 650.055 706.09 650.184 706.01 650.29C705.93 650.396 705.818 650.473 705.691 650.509C705.563 650.546 705.427 650.541 705.303 650.494C705.179 650.447 705.073 650.361 705.002 650.249C704.758 649.916 704.598 649.532 704.521 649.096C704.368 648.354 703.933 648.11 703.215 648.366C702.537 648.61 701.986 649.013 701.564 649.577C701.481 649.686 701.431 649.817 701.421 649.955C701.411 650.092 701.441 650.229 701.507 650.352C701.574 650.474 701.673 650.576 701.796 650.646C701.918 650.717 702.057 650.752 702.197 650.748L703.638 650.671C704.368 650.646 704.707 650.991 704.656 651.709C704.541 653.501 703.677 654.775 702.063 655.531C701.5 655.8 701.141 656.241 700.987 656.856L700.565 658.738C700.36 659.558 699.886 659.769 699.144 659.372C698.286 658.911 697.351 658.726 696.339 658.815C696.198 658.828 696.121 658.905 696.109 659.046C696.096 659.212 696.077 659.372 696.051 659.526C696.026 659.769 696.121 659.955 696.339 660.083L698.068 661.139C698.785 661.575 699.022 662.189 698.778 662.983C698.305 664.584 697.37 665.237 695.974 664.942C686.038 656.274 675.666 648.174 664.858 640.645C630.157 616.469 593.938 594.835 556.202 575.743C551.566 573.4 546.438 571.012 540.816 568.579C535.157 566.12 529.964 563.86 525.239 561.799C536.149 557.022 548.115 549.128 561.138 538.116C572.189 528.768 580.384 520.976 585.723 514.74C619.285 475.57 639.056 431.463 645.036 382.42C647.021 366.222 647.456 347.04 646.342 324.875C646.073 319.625 645.158 313.574 643.596 306.724C642.264 300.936 641.073 294.911 640.023 288.649Z" fill="#D8CA9A"/>
<path d="M768.943 359.372C783.617 385.782 791.473 409.561 798.311 435.318C811.583 485.257 810.297 539.672 795.622 589.112C769.673 676.621 712.089 741.197 628.421 776.865C619.47 780.668 608.407 783.587 598.208 787.41C585.044 791.149 571.042 793.767 556.201 795.266C533.767 797.558 511.294 797.948 488.783 796.437C474.967 795.515 456.502 792.333 433.389 786.891C408.816 778.862 388.943 771.09 373.769 763.573C344.689 749.168 318.272 729.218 294.519 703.723C253.953 660.199 228.58 602.5 219.226 544.301L218.361 512.129C218.336 511.514 218.419 510.918 218.611 510.342L220.705 503.927C220.929 503.262 221.318 502.665 221.835 502.192C222.352 501.718 222.981 501.383 223.663 501.219C227.216 500.354 227.37 496.839 230.462 495.629C232.818 494.695 235.283 494.963 237.857 496.436C238.51 496.807 239.022 496.75 239.394 496.263C239.739 495.802 240.194 495.565 240.757 495.553C241.654 495.54 242.441 495.866 243.12 496.532C242.813 510.361 243.402 523.973 244.887 537.367C244.906 537.538 244.962 537.703 245.05 537.85C245.139 537.997 245.257 538.124 245.398 538.221C245.538 538.317 245.697 538.382 245.865 538.411C246.032 538.439 246.203 538.43 246.366 538.385L265.343 533.257C279.031 530.529 288.782 528.673 294.596 527.687C336.353 520.567 378.007 520.932 419.559 528.781C439.868 532.61 458.365 537.29 475.05 542.822C487.855 547.073 504.584 553.399 525.239 561.799C529.964 563.861 535.156 566.121 540.816 568.579C546.437 571.012 551.566 573.4 556.201 575.744C593.937 594.836 630.156 616.47 664.858 640.646C675.665 648.175 686.037 656.274 695.974 664.943L713.664 679.464C714.099 679.822 714.601 680.09 715.141 680.251C715.681 680.413 716.247 680.464 716.807 680.404C717.367 680.343 717.91 680.17 718.403 679.897C718.895 679.623 719.328 679.254 719.676 678.811C728.255 667.888 736.188 656.479 743.474 644.583C755.741 624.595 764.897 603.268 770.941 580.603C775.576 563.252 778.355 550.454 779.276 542.207C782.823 510.746 780.89 479.534 773.476 448.571C767.214 420.58 756.829 393.99 742.321 368.803C743.781 367.381 745.491 368.015 747.2 367.285C748.564 366.709 748.89 365.057 750.773 364.712C751.413 364.596 751.867 364.238 752.136 363.636C753.596 360.306 756.003 358.322 759.358 357.682C761.561 357.272 763.181 356.977 764.218 356.798C764.756 356.708 765.249 356.817 765.697 357.125L768.943 359.372Z" fill="#180000"/>
<path d="M760.607 420.931C765.998 429.767 769.481 439.736 771.056 450.837C771.171 451.644 771.581 452.316 772.285 452.854C772.81 453.251 773.06 453.123 773.034 452.47C772.958 451.036 773.105 449.736 773.476 448.571C780.89 479.533 782.824 510.745 779.277 542.207C778.355 550.454 775.576 563.252 770.941 580.603C764.897 603.268 755.741 624.594 743.474 644.583C736.188 656.479 728.255 667.888 719.676 678.811C719.328 679.254 718.895 679.623 718.403 679.897C717.91 680.17 717.368 680.343 716.808 680.403C716.247 680.464 715.681 680.413 715.141 680.251C714.601 680.09 714.099 679.822 713.664 679.464L695.974 664.943C697.37 665.237 698.305 664.584 698.778 662.984C699.022 662.19 698.785 661.575 698.068 661.14L696.339 660.083C696.121 659.955 696.025 659.77 696.051 659.526C696.077 659.373 696.096 659.213 696.108 659.046C696.121 658.905 696.198 658.828 696.339 658.816C697.351 658.726 698.285 658.912 699.143 659.373C699.886 659.77 700.36 659.558 700.565 658.739L700.987 656.856C701.141 656.242 701.5 655.8 702.063 655.531C703.676 654.776 704.541 653.502 704.656 651.709C704.707 650.992 704.368 650.646 703.638 650.672L702.197 650.749C702.057 650.752 701.918 650.717 701.795 650.647C701.673 650.577 701.573 650.475 701.507 650.352C701.441 650.23 701.411 650.092 701.421 649.955C701.431 649.818 701.481 649.687 701.564 649.577C701.986 649.013 702.537 648.61 703.215 648.367C703.932 648.111 704.368 648.354 704.521 649.097C704.598 649.532 704.758 649.916 705.002 650.249C705.073 650.361 705.178 650.447 705.303 650.494C705.427 650.541 705.563 650.547 705.69 650.51C705.818 650.473 705.93 650.396 706.01 650.29C706.09 650.184 706.134 650.055 706.135 649.923C706.289 646.177 708.882 644.775 710.418 642.47C729.337 614.178 740.478 587.825 748.967 555.691C760.53 512.032 761.356 468.892 749.889 424.927C749.019 421.623 748.743 418.274 749.064 414.881C749.128 414.215 749.492 413.882 750.158 413.882C750.619 413.882 750.875 414.087 750.927 414.497C750.965 414.74 751.061 414.958 751.215 415.15C752.713 417.045 754.531 418.409 756.67 419.241C757.207 419.446 757.624 419.798 757.918 420.298C758.379 421.104 759.275 421.316 760.607 420.931Z" fill="#B7855D"/>
<path d="M433.389 786.891C456.502 792.333 474.967 795.515 488.783 796.437C511.294 797.948 533.767 797.558 556.201 795.266C571.042 793.768 585.045 791.149 598.208 787.41C606.621 787.948 614.707 787.98 622.467 787.506C623.389 787.448 623.773 787.621 624.637 787.89C625.137 788.044 625.636 788.076 626.136 787.986C632.513 786.776 637.449 791.386 638.755 797.302C639.907 802.565 636.2 807.443 631.879 809.844C629.984 810.907 627.23 811.464 623.619 811.515C602.888 811.81 588.105 811.944 579.27 811.919C517.332 811.752 455.388 811.727 393.438 811.842C364.639 811.88 335.841 811.842 307.043 811.727C306.889 811.727 305.263 811.81 302.164 811.976C283.571 812.956 284.397 782.992 305.544 788.85C305.263 791.232 306.319 792.846 308.714 793.691C309.008 793.793 309.213 793.704 309.328 793.422L309.578 792.826C309.637 792.682 309.642 792.522 309.592 792.377C309.543 792.231 309.442 792.111 309.309 792.039C307.619 791.079 306.78 789.766 306.793 788.101L314.783 788.447L324.483 789.158C325.622 789.235 326.128 789.836 326 790.963C325.821 792.436 326.218 793.588 327.191 794.421C327.28 794.499 327.392 794.545 327.51 794.553C327.628 794.561 327.746 794.53 327.844 794.464C327.943 794.398 328.017 794.302 328.055 794.19C328.093 794.078 328.093 793.957 328.055 793.844C327.774 792.948 327.825 792.154 328.209 791.463C328.804 790.349 331.244 789.638 332.377 788.639C360.51 788.908 388.648 788.754 416.794 788.178C422.095 788.063 427.704 788.851 433.178 789.043C434.023 789.068 434.26 788.703 433.889 787.948L433.389 786.891Z" fill="#E77615"/>
<path d="M306.793 788.101C306.78 789.766 307.619 791.078 309.309 792.039C309.442 792.111 309.543 792.231 309.592 792.377C309.642 792.522 309.637 792.682 309.578 792.826L309.328 793.422C309.213 793.703 309.008 793.793 308.714 793.691C306.319 792.846 305.263 791.232 305.544 788.85C306.505 788.607 306.921 788.357 306.793 788.101Z" fill="#FFB52C"/>
<path d="M332.377 788.638C331.244 789.637 328.805 790.348 328.209 791.462C327.825 792.153 327.774 792.947 328.056 793.844C328.093 793.956 328.093 794.077 328.055 794.189C328.017 794.301 327.943 794.397 327.844 794.463C327.746 794.529 327.629 794.56 327.51 794.552C327.392 794.544 327.28 794.498 327.191 794.42C326.218 793.587 325.821 792.435 326 790.962C326.128 789.836 325.623 789.234 324.483 789.157L314.783 788.446L332.377 788.638Z" fill="#FFB52C"/>
<path d="M739.805 800.759C739.805 803.632 738.664 806.388 736.632 808.419C734.601 810.451 731.845 811.592 728.972 811.592H687.331C684.457 811.592 681.702 810.451 679.671 808.419C677.639 806.388 676.498 803.632 676.498 800.759V799.261C676.498 796.388 677.639 793.632 679.671 791.601C681.702 789.569 684.457 788.428 687.331 788.428H728.972C731.845 788.428 734.601 789.569 736.632 791.601C738.664 793.632 739.805 796.388 739.805 799.261V800.759Z" fill="#E77615"/>
<path d="M252.958 811.495C250.255 811.072 247.847 809.492 246.263 807.104C244.679 804.716 244.049 801.714 244.512 798.76C244.975 795.806 246.492 793.141 248.73 791.351C250.968 789.562 253.744 788.794 256.446 789.217C259.149 789.64 261.557 791.22 263.141 793.608C264.725 795.996 265.355 798.997 264.892 801.952C264.43 804.906 262.912 807.571 260.674 809.361C258.436 811.15 255.66 811.918 252.958 811.495Z" fill="#E77615"/>
<path d="M655.657 665.634C652.853 669.072 648.685 668.668 645.151 666.056C636.834 659.948 626.692 654.858 619.105 649.864C567.591 615.97 512.165 590.392 452.827 573.131C421.352 563.988 391.632 559.237 363.666 558.879C339.759 558.584 318.47 559.826 299.801 562.605C285.895 564.679 270.266 568.956 252.916 575.436" stroke="#ECE4CA" stroke-width="2"/>
<path d="M689.635 692.89L668.065 681.788C667.743 681.627 667.484 681.348 667.335 681.001C667.041 680.271 666.516 679.899 665.761 679.886C665.506 679.886 665.255 679.833 665.024 679.73C664.792 679.628 664.585 679.478 664.416 679.291C660.6 675.142 656.618 674.995 652.469 678.849C652.073 679.22 651.551 679.426 651.009 679.426H645.516C645.106 679.426 644.901 679.63 644.901 680.04V680.578C644.901 680.811 644.976 681.036 645.115 681.221C645.254 681.405 645.449 681.537 645.669 681.596L652.584 683.478C653.199 683.658 653.666 684.022 653.986 684.573C654.332 685.213 654.863 685.655 655.581 685.898C655.837 685.988 656.099 685.988 656.368 685.898C656.893 685.706 657.188 685.386 657.252 684.938C657.354 684.093 657.546 684.138 657.828 685.072C658.135 686.123 658.218 687.205 658.078 688.319C657.962 689.343 657.61 689.426 657.021 688.568C656.586 687.928 656.009 687.467 655.292 687.185C654.281 686.801 653.942 687.121 654.275 688.146L655.043 690.623C655.222 691.161 655.03 691.43 654.467 691.43H653.66C653.501 691.43 653.347 691.374 653.221 691.273C653.096 691.172 653.007 691.032 652.968 690.873C652.674 689.657 651.931 688.882 650.74 688.549C650.413 688.46 650.065 688.48 649.747 688.604C649.429 688.728 649.158 688.951 648.973 689.24C648.717 689.65 648.423 690.009 648.09 690.316C647.398 690.944 646.803 691.123 646.303 690.854C645.727 690.547 645.657 690.15 646.092 689.663C647.129 688.498 648.423 687.781 649.972 687.512C650.116 687.488 650.251 687.426 650.362 687.332C650.473 687.238 650.557 687.115 650.604 686.977C650.652 686.839 650.661 686.691 650.631 686.549C650.6 686.406 650.532 686.274 650.433 686.167C649.614 685.309 648.57 684.996 647.302 685.226C647.097 685.252 646.976 685.367 646.937 685.572C646.899 685.764 646.848 685.95 646.784 686.129C646.63 686.551 646.342 686.712 645.919 686.609C644.498 686.289 643.128 686.532 641.809 687.339C641.56 687.488 641.352 687.697 641.207 687.948C641.061 688.199 640.981 688.483 640.975 688.773C640.97 689.063 641.038 689.35 641.174 689.607C641.309 689.863 641.508 690.081 641.751 690.239L652.2 697.173C652.699 697.493 653.244 697.653 653.833 697.653H656.042C656.567 697.653 656.925 697.897 657.117 698.383C657.962 700.547 659.697 702.148 662.322 703.185C663.27 703.556 663.833 704.299 664.013 705.413C664.102 706.015 663.846 706.284 663.244 706.22L661.285 705.989" stroke="#D6BD8D" stroke-width="2"/>
<path d="M652.988 733.168C650.632 734.192 648.852 734.045 647.648 732.726" stroke="#DBC2AC" stroke-width="2"/>
<path d="M647.648 732.726C639.952 726.387 631.155 721.547 621.257 718.205" stroke="#E9D7BD" stroke-width="2"/>
<path d="M621.257 718.205C617.172 714.735 612.85 711.674 608.292 709.024C586.779 696.501 566.343 681.211 549.767 673.125C537.512 667.145 523.024 660.499 506.3 653.188C459.837 632.866 408.976 619.133 358.422 617.769C342.057 617.334 329.72 617.404 321.409 617.981C305.141 619.114 289.103 623.858 273.026 626.547" stroke="#ECE4CA" stroke-width="2"/>
<path d="M647.648 732.726C644.402 734.397 642.885 731.151 639.696 731.478C639.553 731.498 639.422 731.569 639.326 731.676C639.229 731.784 639.174 731.922 639.169 732.067C639.165 732.211 639.211 732.353 639.301 732.466C639.39 732.58 639.516 732.658 639.658 732.688C641.912 733.033 643.634 734.186 644.825 736.145C644.993 736.417 645.052 736.742 644.992 737.058C644.932 737.374 644.756 737.658 644.498 737.854L641.214 740.351" stroke="#C59B6F" stroke-width="2"/>
<path d="M633.973 744.769C633.346 744.219 632.545 743.943 631.572 743.943C630.906 743.943 630.285 743.77 629.709 743.425C627.955 742.375 626.533 740.985 625.445 739.257C625.344 739.085 625.192 738.95 625.01 738.871C624.828 738.792 624.626 738.772 624.432 738.814C624.238 738.857 624.062 738.96 623.93 739.108C623.798 739.257 623.717 739.443 623.697 739.641C623.556 740.832 623.985 741.561 624.984 741.83C625.092 741.856 625.193 741.908 625.278 741.98C625.363 742.053 625.431 742.144 625.475 742.248C625.52 742.352 625.541 742.465 625.535 742.579C625.53 742.693 625.499 742.805 625.445 742.906C625.368 743.072 625.278 743.239 625.176 743.405C625.094 743.559 625.054 743.732 625.06 743.906C625.067 744.08 625.12 744.249 625.214 744.396C625.308 744.543 625.44 744.662 625.595 744.741C625.75 744.82 625.924 744.856 626.098 744.846C628.518 744.705 629.837 745.32 630.055 746.69" stroke="#C59B6F" stroke-width="2"/>
<path d="M600.071 725.869L603.989 729.73C604.038 729.782 604.1 729.82 604.168 729.842C604.236 729.864 604.309 729.869 604.381 729.855C604.453 729.842 604.521 729.812 604.58 729.766C604.639 729.721 604.687 729.662 604.719 729.595C604.796 729.429 604.873 729.256 604.95 729.076C605.052 728.846 605.026 728.628 604.873 728.423L603.24 726.176C603.022 725.879 602.928 725.508 602.978 725.142C603.028 724.776 603.219 724.445 603.509 724.217C605.443 722.719 606.441 721.246 606.505 719.799" stroke="#C59B6F" stroke-width="2"/>
<path d="M621.257 718.205C618.338 717.885 615.591 718.295 613.017 719.434C612.971 719.455 612.921 719.464 612.871 719.462C612.821 719.459 612.771 719.444 612.727 719.418C612.682 719.392 612.643 719.355 612.614 719.312C612.584 719.268 612.564 719.218 612.556 719.165C612.326 717.258 611.813 716.496 611.02 716.88C609.188 717.751 607.684 718.724 606.506 719.799" stroke="#D6BD8D" stroke-width="2"/>
<path d="M606.506 719.799C605.11 720.043 604.111 720.689 603.509 721.739C602.498 723.506 601.531 723.589 600.609 721.989C599.918 720.824 598.88 720.318 597.497 720.472C597.266 720.496 597.054 720.61 596.907 720.79C596.759 720.97 596.688 721.2 596.71 721.432L596.787 722.296C596.864 723.193 597.357 723.647 598.266 723.66C600.02 723.66 600.622 724.396 600.071 725.869" stroke="#C8A87C" stroke-width="2"/>
<path d="M600.071 725.868L596.019 730.324" stroke="#D6BD8D" stroke-width="2"/>
<path d="M576.619 717.149C572.688 712.591 567.873 708.896 562.175 706.066C561.265 705.605 560.235 704.997 559.082 704.242C556.528 702.532 553.416 701.457 551.13 699.843C537.839 690.547 524.835 684.554 506.185 675.392C500.269 672.492 493.316 669.899 486.958 666.883C480.94 664.028 476.113 661.953 472.476 660.66C455.087 654.514 437.384 649.411 419.367 645.352C416.237 644.66 412.837 645.294 409.418 643.661C408.803 643.367 408.176 643.296 407.536 643.45C405.64 643.911 403.72 644.052 401.773 643.873C401.603 643.855 401.429 643.88 401.268 643.947C401.107 644.014 400.964 644.121 400.851 644.257C400.121 645.115 400.089 645.614 400.755 645.755" stroke="#EBE1BF" stroke-width="2"/>
<path d="M369.312 667.114L358.959 666.653" stroke="#AAAB9A" stroke-width="2"/>
<path d="M588.547 762.055L578.386 756.869C578.143 756.741 577.886 756.697 577.618 756.735L577.099 756.812C576.958 756.837 576.856 756.78 576.792 756.639C576.023 755.192 575.146 754.885 574.16 755.717" stroke="#EBE5C3" stroke-width="2"/>
<path d="M574.16 755.717L571.203 752.836" stroke="#E9D8B6" stroke-width="2"/>
<path d="M571.202 752.836C568.501 750.492 565.383 748.642 561.848 747.285C559.563 746.401 557.853 744.634 556.163 743.578C507.146 712.98 461.874 692.851 406.556 681.288C393.38 678.535 380.703 676.87 368.526 676.294C348.178 675.308 327.684 676.019 307.042 678.426" stroke="#EBE5C3" stroke-width="2"/>
<path d="M562.713 765.302C562.726 765.072 562.719 764.873 562.694 764.707C562.63 764.412 562.45 764.246 562.156 764.207L560.946 764.054" stroke="#958465" stroke-width="2"/>
<path d="M571.203 752.836C566.849 752.439 562.816 751.376 559.102 749.648C558.257 749.251 557.617 749.315 557.181 749.84C556.695 750.416 556.752 750.935 557.354 751.396C557.969 751.869 558.411 752.452 558.68 753.143C559.025 754.04 558.731 754.584 557.796 754.776L557.162 754.891C556.716 754.98 556.252 754.902 555.857 754.673C555.461 754.443 555.161 754.077 555.011 753.643C554.652 752.619 553.935 752.273 552.86 752.606C552.348 752.772 551.938 753.079 551.63 753.528C550.504 755.154 549.031 755.378 547.213 754.2C546.893 753.995 546.701 753.745 546.637 753.451C546.573 753.131 546.611 752.843 546.752 752.586C547.097 751.985 547.61 751.761 548.288 751.914C550.145 752.311 551.266 751.652 551.65 749.936C551.722 749.638 551.7 749.325 551.586 749.04C551.473 748.755 551.273 748.513 551.016 748.346C550.759 748.179 550.456 748.097 550.15 748.11C549.843 748.123 549.549 748.231 549.306 748.418C548.18 749.276 546.918 749.648 545.523 749.532C545.062 749.494 544.933 749.27 545.138 748.86C545.228 748.668 545.311 748.47 545.388 748.265C545.496 747.969 545.507 747.648 545.421 747.347C545.334 747.047 545.155 746.783 544.908 746.594C543.883 745.813 543.262 744.801 543.045 743.559C543.014 743.405 542.937 743.264 542.825 743.154C542.713 743.043 542.571 742.97 542.419 742.942C542.266 742.915 542.109 742.936 541.97 743.001C541.832 743.067 541.717 743.174 541.643 743.309C541.143 744.218 540.573 745.012 539.933 745.691C539.767 745.87 539.677 746.043 539.664 746.21C539.639 746.491 539.715 746.715 539.895 746.882C540.317 747.304 540.74 747.304 541.162 746.882L541.547 746.517C542.212 745.851 542.392 745.966 542.084 746.863C541.751 747.849 541.169 748.662 540.336 749.302C540.227 749.386 540.141 749.496 540.085 749.623C540.029 749.749 540.006 749.887 540.018 750.025C540.029 750.162 540.075 750.295 540.151 750.41C540.226 750.526 540.33 750.62 540.452 750.685C540.695 750.813 540.951 750.89 541.22 750.915C541.822 750.954 541.969 751.229 541.662 751.741C541.393 752.177 541.06 752.554 540.663 752.875C540.407 753.079 540.247 753.271 540.183 753.451C540.08 753.732 540.074 753.976 540.164 754.181C540.356 754.654 540.695 754.84 541.182 754.738C545.196 753.893 551.15 759.444 553.474 761.191C554.089 761.652 554.576 761.544 554.934 760.865L555.28 760.212C555.348 760.09 555.388 759.954 555.396 759.815C555.404 759.675 555.381 759.535 555.328 759.404C555.274 759.274 555.192 759.156 555.088 759.06C554.983 758.964 554.859 758.891 554.723 758.848C553.788 758.566 552.904 758.189 552.072 757.715C550.638 756.895 550.741 756.556 552.38 756.697C553.161 756.761 553.974 756.665 554.819 756.409C555.279 756.272 555.769 756.277 556.226 756.421C556.684 756.566 557.087 756.845 557.385 757.221C557.682 757.597 557.86 758.054 557.896 758.532C557.932 759.01 557.823 759.488 557.585 759.905L555.338 763.804C554.928 764.508 554.396 764.617 553.743 764.13L544.063 756.889C543.627 756.556 543.173 756.524 542.699 756.793L539.837 758.426C539.043 758.874 539.069 759.277 539.914 759.636L549.191 763.515C549.718 763.741 550.165 764.108 550.478 764.572C552.002 766.813 553.98 767.242 556.413 765.859C556.938 765.559 557.36 765.096 557.623 764.533C558.302 763.048 559.442 762.075 561.042 761.614C561.388 761.511 561.689 761.531 561.945 761.672C562.239 761.825 562.438 762.024 562.54 762.267C562.784 762.856 562.598 763.221 561.983 763.362C561.305 763.516 560.959 763.746 560.946 764.053" stroke="#D6BD8D" stroke-width="2"/>
<path d="M560.945 764.054L559.639 764.38C558.922 764.547 558.576 764.995 558.602 765.725L558.64 766.512C558.679 767.306 559.037 767.498 559.716 767.089L562.712 765.302" stroke="#979172" stroke-width="2"/>
<path d="M562.712 765.302C563.468 764.726 563.986 763.759 564.268 762.402C564.38 761.846 564.695 761.353 565.152 761.019L569.32 757.926C569.729 757.619 570.178 757.523 570.664 757.638C574.16 758.47 577.118 760.218 579.538 762.882C579.802 763.177 580.171 763.357 580.568 763.386C580.965 763.414 581.36 763.289 581.67 763.035L582.88 762.056C583.572 761.48 583.527 760.974 582.746 760.538L574.16 755.717" stroke="#D6BD8D" stroke-width="2"/>
<path d="M555.548 769.604C554.242 768.388 552.533 768.337 550.42 769.451" stroke="#C8A87C" stroke-width="2"/>
<path d="M477.947 346.123C475.879 345.695 473.918 344.856 472.176 343.653C470.433 342.45 468.942 340.908 467.79 339.113C466.637 337.319 465.844 335.308 465.456 333.196C465.069 331.083 465.094 328.91 465.531 326.801C465.967 324.691 466.807 322.687 468.002 320.902C469.197 319.117 470.723 317.587 472.494 316.398C474.264 315.209 476.245 314.385 478.322 313.974C480.399 313.562 482.532 313.57 484.6 313.998C486.667 314.427 488.628 315.266 490.371 316.469C492.114 317.671 493.604 319.214 494.757 321.008C495.91 322.802 496.703 324.813 497.09 326.926C497.478 329.039 497.453 331.212 497.016 333.321C496.579 335.43 495.739 337.435 494.545 339.22C493.35 341.005 491.824 342.535 490.053 343.724C488.282 344.913 486.302 345.737 484.225 346.148C482.147 346.56 480.014 346.551 477.947 346.123Z" fill="#D3B080"/>
<path d="M416.458 468.1C400.327 471.265 383.581 467.797 369.903 458.458C356.225 449.12 346.737 434.677 343.525 418.306C340.313 401.934 343.641 384.977 352.776 371.163C361.911 357.349 376.106 347.81 392.237 344.645C408.368 341.48 425.115 344.948 438.792 354.287C452.47 363.625 461.959 378.068 465.171 394.44C468.382 410.811 465.055 427.769 455.919 441.583C446.784 455.397 432.589 464.935 416.458 468.1Z" fill="#2D0100"/>
<path d="M572.319 426.067C562.571 427.751 552.545 425.451 544.449 419.674C536.352 413.897 530.847 405.116 529.145 395.262C528.302 390.383 528.418 385.387 529.487 380.561C530.555 375.734 532.555 371.17 535.373 367.131C538.19 363.091 541.769 359.654 545.906 357.017C550.043 354.379 554.657 352.593 559.484 351.759C569.232 350.075 579.257 352.375 587.354 358.152C595.451 363.929 600.956 372.71 602.658 382.564C603.501 387.443 603.384 392.439 602.316 397.266C601.247 402.092 599.247 406.656 596.43 410.696C593.613 414.735 590.034 418.172 585.897 420.809C581.76 423.447 577.146 425.233 572.319 426.067Z" fill="#180000"/>
<path d="M306.37 464.417C306.37 468.655 304.687 472.72 301.69 475.717C298.693 478.714 294.628 480.398 290.39 480.398C286.151 480.398 282.087 478.714 279.09 475.717C276.093 472.72 274.409 468.655 274.409 464.417C274.409 462.319 274.822 460.241 275.626 458.302C276.429 456.363 277.606 454.601 279.09 453.117C280.574 451.633 282.335 450.456 284.274 449.653C286.213 448.85 288.291 448.437 290.39 448.437C294.628 448.437 298.693 450.12 301.69 453.117C304.687 456.114 306.37 460.179 306.37 464.417Z" fill="#5C0703"/>
<path d="M556.171 508.877C553.681 509.311 551.128 509.239 548.658 508.665C546.187 508.091 543.847 507.026 541.772 505.53C539.697 504.035 537.927 502.139 536.563 499.95C535.199 497.76 534.268 495.322 533.823 492.772C532.925 487.623 534.061 482.337 536.981 478.076C539.901 473.815 544.366 470.928 549.394 470.05C551.884 469.615 554.437 469.687 556.908 470.261C559.378 470.836 561.718 471.901 563.793 473.396C565.868 474.892 567.638 476.788 569.002 478.977C570.366 481.166 571.297 483.605 571.742 486.155C572.64 491.303 571.505 496.59 568.585 500.851C565.664 505.112 561.199 507.999 556.171 508.877Z" fill="#D3B080"/>
<path d="M490.998 512.348C489.98 514.269 488.589 515.969 486.902 517.349C485.216 518.729 483.268 519.763 481.169 520.391C479.07 521.019 476.862 521.23 474.671 521.012C472.48 520.793 470.348 520.149 468.397 519.116C466.447 518.083 464.716 516.682 463.303 514.993C461.89 513.303 460.824 511.358 460.164 509.269C459.504 507.18 459.264 504.988 459.458 502.817C459.651 500.647 460.275 498.541 461.292 496.619C462.309 494.698 463.701 492.998 465.387 491.618C467.074 490.238 469.022 489.204 471.121 488.576C473.219 487.947 475.427 487.737 477.619 487.955C479.81 488.174 481.942 488.818 483.892 489.851C485.843 490.884 487.574 492.285 488.987 493.974C490.399 495.664 491.466 497.609 492.126 499.698C492.786 501.787 493.026 503.979 492.832 506.15C492.639 508.32 492.015 510.426 490.998 512.348Z" fill="#D3B080"/>
<path d="M691.822 371.277C691.861 373.143 691.517 374.999 690.809 376.738C690.101 378.478 689.043 380.067 687.696 381.416C686.349 382.764 684.739 383.845 682.957 384.597C681.176 385.349 679.258 385.757 677.314 385.797C675.37 385.838 673.437 385.511 671.625 384.834C669.814 384.158 668.16 383.145 666.758 381.854C665.355 380.564 664.232 379.02 663.452 377.312C662.671 375.603 662.25 373.763 662.211 371.897C662.171 370.031 662.516 368.175 663.224 366.435C663.932 364.696 664.989 363.106 666.337 361.758C667.684 360.41 669.294 359.329 671.075 358.577C672.857 357.825 674.774 357.417 676.719 357.376C678.663 357.336 680.596 357.663 682.407 358.339C684.218 359.016 685.872 360.028 687.275 361.319C688.677 362.61 689.801 364.154 690.581 365.862C691.361 367.571 691.783 369.41 691.822 371.277Z" fill="#B7855D"/>
<path d="M677.789 404.332C678.083 405.132 678.21 405.985 678.161 406.842C678.112 407.7 677.889 408.544 677.505 409.328C677.121 410.112 676.582 410.819 675.921 411.411C675.259 412.002 674.487 412.464 673.649 412.773C672.811 413.081 671.923 413.229 671.037 413.207C670.15 413.186 669.281 412.996 668.48 412.648C667.68 412.301 666.963 411.802 666.37 411.181C665.777 410.56 665.321 409.828 665.026 409.028C664.732 408.228 664.606 407.375 664.654 406.517C664.703 405.66 664.926 404.816 665.31 404.032C665.695 403.248 666.233 402.54 666.895 401.949C667.556 401.358 668.328 400.895 669.166 400.587C670.004 400.279 670.892 400.131 671.778 400.152C672.665 400.174 673.534 400.364 674.335 400.711C675.135 401.059 675.853 401.558 676.445 402.179C677.038 402.8 677.495 403.532 677.789 404.332Z" fill="#B7855D"/>
<path d="M692.307 457.124C694.774 459.643 696.138 463.038 696.102 466.563C696.065 470.088 694.629 473.454 692.11 475.92L689.64 478.339C687.121 480.806 683.726 482.171 680.201 482.134C676.676 482.097 673.311 480.661 670.844 478.143L668.909 476.166C666.442 473.648 665.078 470.253 665.114 466.728C665.151 463.203 666.587 459.837 669.106 457.37L671.576 454.951C674.095 452.485 677.49 451.12 681.015 451.157C684.54 451.194 687.905 452.63 690.372 455.148L692.307 457.124Z" fill="#2D0100"/>
<path d="M645.785 486.717C648.359 480.942 652.277 477.171 657.54 475.403C664.57 473.041 672.599 481.857 675.384 487.293C677.689 491.749 677.964 496.173 676.21 500.565C673.194 508.075 662.284 515.662 653.756 511.283C643.499 506.007 640.842 497.819 645.785 486.717Z" fill="#B7855D"/>
<path d="M701.825 569.961C702.484 572.547 702.619 575.24 702.22 577.886C701.822 580.532 700.898 583.079 699.503 585.382C698.108 587.685 696.268 589.699 694.088 591.309C691.908 592.918 689.431 594.092 686.799 594.763C681.482 596.118 675.855 595.343 671.155 592.608C666.454 589.874 663.065 585.403 661.734 580.181C661.075 577.595 660.941 574.902 661.339 572.256C661.738 569.61 662.661 567.063 664.056 564.76C665.451 562.457 667.292 560.443 669.471 558.833C671.651 557.224 674.128 556.05 676.76 555.379C682.077 554.024 687.704 554.799 692.405 557.534C697.105 560.269 700.494 564.739 701.825 569.961Z" fill="#180000"/>
<path d="M600.877 586.729C600.358 586.903 599.804 586.956 599.248 586.886C598.691 586.816 598.142 586.624 597.632 586.32C597.123 586.017 596.662 585.608 596.277 585.118C595.892 584.627 595.59 584.065 595.389 583.462C595.187 582.859 595.089 582.228 595.102 581.604C595.114 580.981 595.236 580.378 595.46 579.829C595.685 579.28 596.007 578.796 596.41 578.405C596.812 578.013 597.286 577.723 597.805 577.549C598.325 577.375 598.878 577.322 599.435 577.392C599.992 577.463 600.541 577.655 601.05 577.958C601.56 578.262 602.02 578.67 602.405 579.161C602.79 579.651 603.092 580.214 603.294 580.817C603.496 581.419 603.593 582.051 603.581 582.674C603.569 583.297 603.447 583.901 603.222 584.45C602.998 584.999 602.675 585.483 602.273 585.874C601.871 586.265 601.396 586.556 600.877 586.729Z" fill="#B7855D"/>
<path d="M659.418 619.174C658.345 619.394 657.179 618.937 656.176 617.904C655.173 616.87 654.416 615.345 654.071 613.663C653.9 612.831 653.835 611.985 653.881 611.174C653.926 610.363 654.081 609.603 654.336 608.937C654.59 608.271 654.94 607.712 655.366 607.293C655.791 606.873 656.284 606.601 656.815 606.492C657.888 606.272 659.054 606.729 660.056 607.762C661.059 608.796 661.816 610.321 662.162 612.003C662.333 612.835 662.397 613.681 662.352 614.492C662.306 615.304 662.152 616.064 661.897 616.73C661.642 617.396 661.292 617.954 660.867 618.373C660.442 618.793 659.949 619.065 659.418 619.174Z" fill="#B7855D"/>
<path d="M655.657 665.635C652.853 669.073 648.685 668.669 645.151 666.057C636.834 659.949 626.692 654.859 619.105 649.865C567.591 615.97 512.165 590.392 452.826 573.131C421.352 563.989 391.631 559.238 363.665 558.88C339.759 558.585 318.47 559.827 299.801 562.606C285.895 564.68 270.266 568.957 252.915 575.436L249.842 565.429C249.624 564.725 249.785 564.11 250.322 563.585C251.488 562.459 253.268 561.505 255.662 560.723C279.198 553.066 303.354 548.84 328.132 548.046C361.668 546.971 385.716 547.029 416.467 552.868C503.688 569.444 584.82 612.987 655.657 665.635Z" fill="#FFFEFA"/>
<path d="M655.658 665.634L689.636 692.889L668.066 681.787C667.744 681.626 667.485 681.347 667.336 681C667.042 680.27 666.517 679.898 665.761 679.886C665.507 679.885 665.256 679.832 665.024 679.729C664.793 679.627 664.586 679.477 664.417 679.29C660.601 675.141 656.618 674.994 652.47 678.848C652.074 679.219 651.552 679.425 651.01 679.425H645.517C645.107 679.425 644.902 679.63 644.902 680.039V680.577C644.902 680.81 644.977 681.036 645.116 681.22C645.255 681.404 645.449 681.536 645.67 681.595L652.585 683.477C653.2 683.657 653.667 684.022 653.987 684.572C654.333 685.213 654.864 685.654 655.581 685.898C655.837 685.987 656.1 685.987 656.369 685.898C656.894 685.706 657.188 685.385 657.252 684.937C657.355 684.092 657.547 684.137 657.829 685.072C658.136 686.122 658.219 687.204 658.078 688.318C657.963 689.342 657.611 689.425 657.022 688.567C656.586 687.927 656.01 687.466 655.293 687.184C654.281 686.8 653.942 687.12 654.275 688.145L655.043 690.623C655.223 691.16 655.031 691.429 654.467 691.429H653.66C653.502 691.429 653.347 691.373 653.222 691.272C653.097 691.172 653.008 691.031 652.969 690.872C652.675 689.656 651.932 688.881 650.741 688.548C650.413 688.46 650.066 688.479 649.748 688.603C649.43 688.728 649.159 688.951 648.974 689.24C648.718 689.649 648.423 690.008 648.09 690.315C647.399 690.943 646.804 691.122 646.304 690.853C645.728 690.546 645.657 690.149 646.093 689.662C647.13 688.497 648.423 687.78 649.973 687.511C650.117 687.487 650.251 687.425 650.363 687.331C650.474 687.237 650.558 687.115 650.605 686.977C650.652 686.839 650.661 686.691 650.631 686.548C650.601 686.405 650.533 686.273 650.434 686.167C649.614 685.309 648.571 684.995 647.303 685.225C647.098 685.251 646.976 685.366 646.938 685.571C646.899 685.763 646.848 685.949 646.784 686.128C646.631 686.551 646.342 686.711 645.92 686.608C644.498 686.288 643.129 686.531 641.81 687.338C641.56 687.487 641.353 687.697 641.207 687.947C641.061 688.198 640.982 688.482 640.976 688.772C640.97 689.063 641.039 689.349 641.174 689.606C641.31 689.862 641.509 690.08 641.752 690.238L652.201 697.172C652.7 697.492 653.244 697.653 653.833 697.653H656.042C656.567 697.653 656.926 697.896 657.118 698.382C657.963 700.546 659.698 702.147 662.323 703.184C663.271 703.556 663.834 704.298 664.013 705.412C664.103 706.014 663.847 706.283 663.245 706.219L661.286 705.989C651.259 699.138 641.259 692.223 631.284 685.244C599.515 663.021 566.593 643.91 531.405 627.584C517.153 620.976 505.322 616.674 487.651 609.951C428.434 587.421 365.395 577.376 302.472 586.019C289.142 587.863 275.139 591.762 261.598 595.181C260.814 595.376 259.985 595.259 259.286 594.854C258.587 594.449 258.073 593.788 257.853 593.01L252.917 575.436C270.267 568.956 285.896 564.679 299.802 562.605C318.471 559.826 339.76 558.584 363.667 558.879C391.633 559.237 421.353 563.988 452.828 573.131C512.166 590.392 567.592 615.97 619.106 649.864C626.693 654.858 636.835 659.948 645.152 666.056C648.686 668.668 652.854 669.072 655.658 665.634Z" fill="#D8CA9A"/>
<path d="M652.988 733.168C650.632 734.193 648.852 734.045 647.648 732.727C639.952 726.388 631.155 721.548 621.257 718.206C617.172 714.736 612.851 711.675 608.292 709.024C586.78 696.501 566.343 681.212 549.767 673.126C537.513 667.146 523.024 660.5 506.301 653.188C459.838 632.867 408.977 619.134 358.423 617.77C342.058 617.335 329.72 617.405 321.41 617.981C305.141 619.114 289.103 623.859 273.026 626.548C271.298 624.409 270.075 622.136 269.358 619.729C269.178 619.102 269.377 618.634 269.953 618.327C284.147 611.086 304.238 608.397 319.969 607.302C365.017 604.165 409.06 609.28 452.097 622.649C481.216 631.702 503.733 640.339 519.65 648.559C534.721 656.332 549.671 664.316 564.499 672.511C584.667 683.652 606.909 698.012 631.226 715.593C640.599 722.355 647.853 728.213 652.988 733.168Z" fill="#FFFEFA"/>
<path d="M621.257 718.205C618.337 717.885 615.591 718.295 613.017 719.434C612.971 719.455 612.921 719.464 612.871 719.462C612.82 719.459 612.771 719.444 612.726 719.418C612.682 719.392 612.643 719.355 612.614 719.312C612.584 719.268 612.564 719.218 612.556 719.165C612.325 717.257 611.813 716.496 611.019 716.88C609.188 717.75 607.684 718.724 606.506 719.799C605.11 720.043 604.111 720.689 603.509 721.739C602.498 723.506 601.531 723.589 600.609 721.989C599.917 720.824 598.88 720.318 597.497 720.472C597.266 720.496 597.054 720.61 596.906 720.79C596.759 720.97 596.688 721.2 596.71 721.432L596.787 722.296C596.863 723.193 597.356 723.647 598.266 723.66C600.02 723.66 600.622 724.396 600.071 725.869L596.018 730.325L576.619 717.149C572.688 712.59 567.873 708.896 562.175 706.066C561.266 705.605 560.235 704.997 559.082 704.241C556.528 702.532 553.416 701.456 551.13 699.843C537.839 690.546 524.835 684.554 506.185 675.392C500.269 672.491 493.316 669.898 486.958 666.883C480.94 664.027 476.113 661.953 472.476 660.659C455.087 654.513 437.384 649.41 419.367 645.351C416.237 644.66 412.837 645.294 409.418 643.661C408.803 643.366 408.176 643.296 407.536 643.45C405.641 643.911 403.72 644.051 401.773 643.872C401.603 643.854 401.429 643.88 401.268 643.947C401.108 644.014 400.964 644.12 400.851 644.256C400.122 645.114 400.09 645.614 400.755 645.754C379.013 643.155 357.206 642.227 335.335 642.97C317.433 643.584 304.757 647.253 289.525 649.865C288.648 650.012 287.748 649.886 286.947 649.505C286.146 649.123 285.484 648.505 285.05 647.733L273.026 626.547C289.103 623.858 305.141 619.114 321.409 617.981C329.72 617.404 342.057 617.334 358.422 617.769C408.976 619.133 459.837 632.866 506.3 653.188C523.024 660.499 537.512 667.145 549.767 673.125C566.343 681.211 586.779 696.501 608.292 709.024C612.85 711.674 617.172 714.735 621.257 718.205Z" fill="#D8CA9A"/>
<path d="M576.619 717.149C568.641 712.718 560.926 708.236 553.474 703.703C525.911 686.916 497.273 673.471 466.906 662.523C463.986 661.473 459.799 660.179 454.344 658.643C437.883 654.014 422.114 649.73 400.755 645.754C400.089 645.614 400.121 645.114 400.851 644.256C400.964 644.12 401.107 644.014 401.268 643.947C401.429 643.88 401.603 643.854 401.773 643.872C403.72 644.051 405.64 643.911 407.536 643.45C408.176 643.296 408.803 643.366 409.418 643.661C412.837 645.294 416.237 644.66 419.367 645.351C437.384 649.41 455.087 654.513 472.476 660.659C476.113 661.953 480.94 664.027 486.958 666.883C493.316 669.898 500.269 672.491 506.185 675.392C524.835 684.554 537.839 690.546 551.13 699.843C553.416 701.456 556.528 702.532 559.082 704.241C560.235 704.997 561.265 705.605 562.175 706.066C567.873 708.896 572.688 712.59 576.619 717.149Z" fill="#FDF8E3"/>
<path d="M369.314 667.113L358.961 666.652C362.444 666.101 365.895 666.255 369.314 667.113Z" fill="#565749"/>
<path d="M358.96 666.652L369.313 667.113C401.927 668.938 433.812 677.043 464.543 687.665C511.256 703.78 550.804 728.116 592.465 760.423C592.952 760.794 592.984 761.198 592.561 761.633C591.229 763.016 589.891 763.157 588.547 762.056L578.386 756.87C578.143 756.742 577.887 756.697 577.618 756.735L577.099 756.812C576.958 756.838 576.856 756.78 576.792 756.639C576.023 755.192 575.146 754.885 574.16 755.717L571.202 752.836C568.501 750.493 565.383 748.642 561.848 747.285C559.563 746.402 557.853 744.634 556.163 743.578C507.145 712.981 461.874 692.851 406.556 681.288C393.38 678.535 380.703 676.871 368.525 676.294C348.178 675.308 327.684 676.019 307.042 678.426L301.895 672.011C301.761 671.846 301.672 671.649 301.638 671.439C301.605 671.229 301.627 671.014 301.703 670.815C301.779 670.616 301.906 670.441 302.071 670.307C302.236 670.173 302.434 670.085 302.644 670.052C321.083 667.043 339.855 665.909 358.96 666.652Z" fill="#FEFFEB"/>
<path d="M571.202 752.836C566.849 752.439 562.815 751.376 559.102 749.647C558.257 749.25 557.616 749.314 557.181 749.839C556.694 750.415 556.752 750.934 557.354 751.395C557.968 751.869 558.41 752.452 558.679 753.143C559.025 754.039 558.73 754.584 557.795 754.776L557.162 754.891C556.715 754.979 556.252 754.902 555.856 754.672C555.461 754.443 555.16 754.077 555.011 753.642C554.652 752.618 553.935 752.272 552.859 752.605C552.347 752.772 551.937 753.079 551.63 753.527C550.503 755.153 549.031 755.377 547.212 754.199C546.892 753.995 546.7 753.745 546.636 753.45C546.572 753.13 546.61 752.842 546.751 752.586C547.097 751.984 547.609 751.76 548.288 751.914C550.145 752.311 551.265 751.651 551.649 749.935C551.721 749.637 551.699 749.324 551.586 749.039C551.472 748.755 551.273 748.512 551.016 748.346C550.758 748.179 550.456 748.096 550.149 748.109C549.843 748.122 549.548 748.23 549.306 748.418C548.179 749.276 546.918 749.647 545.522 749.532C545.061 749.494 544.933 749.27 545.138 748.86C545.227 748.668 545.311 748.469 545.388 748.264C545.495 747.969 545.507 747.647 545.42 747.347C545.334 747.046 545.154 746.782 544.907 746.593C543.883 745.812 543.262 744.801 543.044 743.559C543.014 743.405 542.937 743.263 542.825 743.153C542.713 743.043 542.571 742.969 542.418 742.942C542.265 742.915 542.109 742.935 541.97 743.001C541.831 743.066 541.717 743.174 541.642 743.309C541.143 744.218 540.573 745.012 539.933 745.691C539.766 745.87 539.677 746.043 539.664 746.209C539.638 746.491 539.715 746.715 539.894 746.881C540.317 747.304 540.739 747.304 541.162 746.881L541.546 746.516C542.212 745.851 542.391 745.966 542.084 746.862C541.751 747.848 541.168 748.661 540.336 749.302C540.227 749.386 540.14 749.496 540.084 749.622C540.029 749.749 540.006 749.887 540.017 750.024C540.029 750.162 540.074 750.294 540.15 750.41C540.226 750.525 540.33 750.619 540.451 750.684C540.695 750.812 540.951 750.889 541.219 750.915C541.821 750.953 541.969 751.229 541.661 751.741C541.393 752.176 541.06 752.554 540.663 752.874C540.407 753.079 540.246 753.271 540.182 753.45C540.08 753.732 540.074 753.975 540.163 754.18C540.355 754.654 540.695 754.84 541.181 754.737C545.196 753.892 551.15 759.443 553.474 761.191C554.088 761.652 554.575 761.543 554.934 760.864L555.279 760.211C555.348 760.09 555.387 759.954 555.396 759.814C555.404 759.674 555.381 759.534 555.327 759.404C555.274 759.273 555.192 759.156 555.087 759.059C554.983 758.963 554.858 758.891 554.722 758.848C553.788 758.566 552.904 758.188 552.072 757.714C550.638 756.895 550.74 756.555 552.379 756.696C553.16 756.76 553.973 756.664 554.818 756.408C555.278 756.272 555.768 756.276 556.226 756.421C556.683 756.566 557.087 756.844 557.384 757.22C557.682 757.596 557.86 758.053 557.896 758.531C557.931 759.01 557.823 759.488 557.584 759.904L555.337 763.803C554.927 764.507 554.396 764.616 553.743 764.13L544.062 756.888C543.627 756.556 543.172 756.523 542.698 756.792L539.837 758.425C539.043 758.873 539.068 759.277 539.913 759.635L549.191 763.515C549.718 763.741 550.165 764.108 550.478 764.571C552.001 766.812 553.98 767.241 556.413 765.858C556.937 765.558 557.36 765.095 557.623 764.533C558.301 763.048 559.441 762.074 561.042 761.613C561.387 761.511 561.688 761.53 561.944 761.671C562.239 761.825 562.437 762.023 562.54 762.267C562.783 762.856 562.597 763.221 561.983 763.361C561.304 763.515 560.958 763.745 560.946 764.053L559.64 764.379C558.922 764.546 558.577 764.994 558.602 765.724L558.641 766.511C558.679 767.305 559.038 767.497 559.716 767.088L562.713 765.301C563.468 764.725 563.987 763.758 564.268 762.401C564.38 761.846 564.695 761.352 565.152 761.018L569.32 757.926C569.73 757.618 570.178 757.522 570.665 757.637C574.16 758.47 577.118 760.218 579.538 762.881C579.802 763.176 580.171 763.357 580.568 763.385C580.965 763.414 581.36 763.288 581.67 763.035L582.881 762.055C583.572 761.479 583.527 760.973 582.746 760.538L574.16 755.717C575.146 754.884 576.023 755.192 576.792 756.639C576.856 756.78 576.958 756.837 577.099 756.812L577.618 756.735C577.887 756.696 578.143 756.741 578.386 756.869L588.547 762.055C582.17 764.399 577.963 765.647 575.927 765.801C568.91 766.326 562.117 767.593 555.548 769.604C554.242 768.387 552.533 768.336 550.42 769.45C524.976 751.369 497.318 736.157 467.444 723.813C436.097 710.867 403.752 704.126 370.408 703.588C365.183 703.511 352.308 703.69 331.782 704.126C331.141 704.138 330.604 703.908 330.168 703.434L307.042 678.426C327.684 676.019 348.178 675.308 368.526 676.294C380.703 676.87 393.38 678.535 406.556 681.288C461.874 692.851 507.146 712.98 556.163 743.578C557.853 744.634 559.563 746.401 561.848 747.285C565.383 748.642 568.501 750.492 571.202 752.836Z" fill="#D8CA9A"/>
<path d="M689.635 692.889L697.511 699.093C697.631 699.192 697.728 699.316 697.795 699.456C697.862 699.596 697.898 699.748 697.9 699.902C697.902 700.056 697.869 700.209 697.806 700.348C697.742 700.487 697.647 700.609 697.53 700.707L677.4 717.571C677.177 717.759 676.895 717.864 676.601 717.867C676.307 717.871 676.02 717.773 675.787 717.59L661.285 705.989L663.244 706.219C663.846 706.283 664.102 706.014 664.013 705.412C663.833 704.298 663.27 703.556 662.322 703.184C659.697 702.147 657.962 700.547 657.117 698.383C656.925 697.896 656.567 697.653 656.042 697.653H653.833C653.244 697.653 652.699 697.493 652.2 697.172L641.751 690.239C641.508 690.08 641.309 689.862 641.174 689.606C641.038 689.349 640.97 689.063 640.975 688.772C640.981 688.482 641.061 688.198 641.207 687.947C641.352 687.697 641.56 687.487 641.809 687.338C643.128 686.532 644.498 686.288 645.919 686.608C646.342 686.711 646.63 686.551 646.784 686.128C646.848 685.949 646.899 685.763 646.937 685.571C646.976 685.366 647.097 685.251 647.302 685.225C648.57 684.995 649.614 685.309 650.433 686.167C650.532 686.274 650.6 686.405 650.631 686.548C650.661 686.691 650.652 686.839 650.604 686.977C650.557 687.115 650.473 687.237 650.362 687.331C650.251 687.425 650.116 687.488 649.972 687.511C648.423 687.78 647.129 688.497 646.092 689.662C645.657 690.149 645.727 690.546 646.303 690.853C646.803 691.122 647.398 690.943 648.09 690.315C648.423 690.008 648.717 689.65 648.973 689.24C649.158 688.951 649.429 688.728 649.747 688.603C650.065 688.479 650.413 688.46 650.74 688.548C651.931 688.881 652.674 689.656 652.968 690.872C653.007 691.031 653.096 691.172 653.221 691.273C653.347 691.374 653.501 691.429 653.66 691.429H654.467C655.03 691.429 655.222 691.161 655.043 690.623L654.275 688.145C653.942 687.121 654.281 686.8 655.292 687.185C656.009 687.466 656.586 687.927 657.021 688.568C657.61 689.425 657.962 689.342 658.078 688.318C658.218 687.204 658.135 686.122 657.828 685.072C657.546 684.137 657.354 684.092 657.252 684.937C657.188 685.385 656.893 685.706 656.368 685.898C656.099 685.987 655.837 685.987 655.581 685.898C654.863 685.654 654.332 685.213 653.986 684.572C653.666 684.022 653.199 683.657 652.584 683.478L645.669 681.595C645.449 681.536 645.254 681.404 645.115 681.22C644.976 681.036 644.901 680.81 644.901 680.577V680.039C644.901 679.63 645.106 679.425 645.516 679.425H651.009C651.551 679.425 652.073 679.219 652.469 678.849C656.618 674.994 660.6 675.141 664.416 679.29C664.585 679.477 664.792 679.627 665.024 679.73C665.255 679.832 665.506 679.885 665.761 679.886C666.516 679.899 667.041 680.27 667.335 681C667.484 681.347 667.743 681.626 668.065 681.787L689.635 692.889Z" fill="#D3B080"/>
<path d="M621.257 718.205C631.155 721.547 639.952 726.387 647.648 732.726C644.402 734.397 642.885 731.151 639.696 731.477C639.553 731.498 639.422 731.568 639.326 731.676C639.229 731.784 639.174 731.922 639.169 732.066C639.165 732.211 639.211 732.352 639.3 732.466C639.39 732.579 639.516 732.658 639.658 732.687C641.911 733.033 643.634 734.186 644.825 736.145C644.993 736.416 645.052 736.742 644.992 737.058C644.932 737.374 644.756 737.657 644.498 737.854L641.214 740.351L633.972 744.769C633.345 744.218 632.545 743.943 631.572 743.943C630.906 743.943 630.285 743.77 629.708 743.424C627.954 742.374 626.533 740.985 625.444 739.256C625.344 739.085 625.192 738.95 625.01 738.871C624.828 738.791 624.625 738.772 624.431 738.814C624.237 738.857 624.062 738.96 623.93 739.108C623.798 739.257 623.716 739.443 623.697 739.641C623.556 740.831 623.985 741.561 624.984 741.83C625.092 741.856 625.193 741.908 625.278 741.98C625.363 742.052 625.43 742.144 625.475 742.248C625.519 742.352 625.54 742.465 625.535 742.579C625.529 742.693 625.499 742.805 625.444 742.906C625.368 743.072 625.278 743.239 625.176 743.405C625.093 743.559 625.053 743.732 625.06 743.906C625.067 744.08 625.12 744.249 625.214 744.396C625.308 744.543 625.439 744.662 625.595 744.741C625.75 744.82 625.923 744.856 626.097 744.846C628.518 744.705 629.836 745.32 630.054 746.69C622.698 753.758 620.489 747.573 615.418 744.02C608.952 739.474 602.485 734.909 596.019 730.325L600.071 725.869L603.99 729.73C604.039 729.782 604.1 729.82 604.169 729.842C604.237 729.864 604.31 729.869 604.382 729.855C604.453 729.842 604.522 729.812 604.581 729.766C604.639 729.721 604.687 729.662 604.72 729.595C604.796 729.429 604.873 729.256 604.95 729.076C605.053 728.846 605.027 728.628 604.873 728.423L603.241 726.176C603.022 725.879 602.928 725.508 602.978 725.142C603.029 724.776 603.219 724.445 603.51 724.217C605.443 722.719 606.442 721.246 606.506 719.799C607.684 718.724 609.189 717.751 611.02 716.88C611.814 716.496 612.326 717.258 612.556 719.165C612.565 719.218 612.584 719.268 612.614 719.312C612.644 719.355 612.682 719.392 612.727 719.418C612.771 719.444 612.821 719.459 612.871 719.462C612.921 719.464 612.971 719.455 613.017 719.434C615.591 718.295 618.338 717.885 621.257 718.205Z" fill="#D3B080"/>
<path d="M606.506 719.799C606.442 721.246 605.443 722.719 603.509 724.217C603.219 724.445 603.028 724.776 602.978 725.142C602.928 725.508 603.022 725.879 603.24 726.176L604.873 728.423C605.027 728.628 605.052 728.846 604.95 729.076C604.873 729.256 604.796 729.429 604.719 729.595C604.687 729.662 604.639 729.721 604.58 729.766C604.522 729.812 604.453 729.842 604.382 729.855C604.31 729.869 604.237 729.864 604.168 729.842C604.1 729.82 604.039 729.782 603.99 729.73L600.071 725.869C600.622 724.396 600.02 723.66 598.266 723.66C597.357 723.647 596.864 723.193 596.787 722.296L596.71 721.432C596.688 721.2 596.759 720.97 596.907 720.79C597.054 720.61 597.266 720.496 597.497 720.472C598.88 720.318 599.918 720.824 600.609 721.989C601.531 723.589 602.498 723.506 603.509 721.739C604.111 720.689 605.11 720.043 606.506 719.799Z" fill="#B7855D"/>
<path d="M362.841 727.655C413.971 726.618 462.643 744.442 505.802 770.526C505.917 770.602 506.006 770.711 506.057 770.839C506.108 770.967 506.119 771.107 506.087 771.241C506.056 771.376 505.984 771.497 505.881 771.589C505.779 771.681 505.65 771.739 505.514 771.755C503.273 771.935 500.834 771.877 498.196 771.582C449.806 766.076 404.604 751.767 362.591 728.654C361.426 728.014 361.509 727.681 362.841 727.655Z" fill="#667D51"/>
<path d="M647.648 732.726C648.852 734.045 650.632 734.192 652.988 733.168C650.862 737.342 646.938 739.737 641.214 740.351L644.498 737.854C644.756 737.658 644.932 737.374 644.992 737.058C645.052 736.742 644.993 736.417 644.825 736.145C643.634 734.186 641.912 733.033 639.658 732.688C639.516 732.658 639.39 732.58 639.301 732.466C639.211 732.353 639.165 732.211 639.169 732.067C639.174 731.922 639.229 731.784 639.326 731.676C639.422 731.569 639.553 731.498 639.696 731.478C642.885 731.151 644.402 734.397 647.648 732.726Z" fill="#B7855D"/>
<path d="M633.973 744.769C632.987 745.64 631.681 746.28 630.055 746.69C629.837 745.32 628.518 744.705 626.098 744.846C625.924 744.856 625.75 744.82 625.595 744.741C625.44 744.662 625.308 744.543 625.214 744.396C625.12 744.249 625.067 744.08 625.06 743.906C625.054 743.732 625.094 743.559 625.176 743.405C625.278 743.239 625.368 743.072 625.445 742.906C625.499 742.805 625.53 742.693 625.535 742.579C625.541 742.465 625.52 742.352 625.475 742.248C625.431 742.144 625.363 742.053 625.278 741.98C625.193 741.908 625.092 741.856 624.984 741.83C623.985 741.561 623.556 740.832 623.697 739.641C623.717 739.443 623.798 739.257 623.93 739.108C624.062 738.96 624.238 738.857 624.432 738.814C624.626 738.772 624.828 738.792 625.01 738.871C625.192 738.95 625.344 739.085 625.445 739.257C626.533 740.985 627.955 742.375 629.709 743.425C630.285 743.77 630.906 743.943 631.572 743.943C632.545 743.943 633.346 744.219 633.973 744.769Z" fill="#B7855D"/>
<path d="M571.203 752.835L574.161 755.716L582.747 760.538C583.528 760.973 583.572 761.479 582.881 762.055L581.671 763.035C581.361 763.288 580.966 763.414 580.569 763.385C580.172 763.356 579.803 763.176 579.539 762.881C577.119 760.218 574.161 758.47 570.665 757.637C570.178 757.522 569.73 757.618 569.32 757.925L565.153 761.018C564.696 761.352 564.38 761.846 564.269 762.401C563.987 763.758 563.469 764.725 562.713 765.301C562.726 765.071 562.72 764.872 562.694 764.706C562.63 764.411 562.451 764.245 562.156 764.206L560.946 764.053C560.959 763.745 561.305 763.515 561.983 763.361C562.598 763.22 562.784 762.855 562.54 762.266C562.438 762.023 562.239 761.825 561.945 761.671C561.689 761.53 561.388 761.511 561.042 761.613C559.442 762.074 558.302 763.047 557.623 764.533C557.36 765.095 556.938 765.558 556.413 765.858C553.98 767.241 552.002 766.812 550.478 764.571C550.165 764.108 549.718 763.741 549.191 763.515L539.914 759.635C539.069 759.276 539.043 758.873 539.837 758.425L542.699 756.792C543.173 756.523 543.627 756.555 544.063 756.888L553.743 764.129C554.396 764.616 554.928 764.507 555.338 763.803L557.585 759.904C557.823 759.488 557.932 759.01 557.896 758.531C557.86 758.053 557.682 757.596 557.385 757.22C557.087 756.844 556.684 756.565 556.226 756.421C555.769 756.276 555.279 756.272 554.819 756.408C553.974 756.664 553.161 756.76 552.38 756.696C550.741 756.555 550.638 756.895 552.072 757.714C552.904 758.188 553.788 758.566 554.723 758.847C554.859 758.891 554.983 758.963 555.088 759.059C555.192 759.155 555.274 759.273 555.328 759.404C555.381 759.534 555.404 759.674 555.396 759.814C555.388 759.954 555.348 760.089 555.28 760.211L554.934 760.864C554.576 761.543 554.089 761.652 553.474 761.191C551.15 759.443 545.196 753.892 541.182 754.737C540.695 754.839 540.356 754.654 540.164 754.18C540.074 753.975 540.08 753.732 540.183 753.45C540.247 753.271 540.407 753.079 540.663 752.874C541.06 752.554 541.393 752.176 541.662 751.741C541.969 751.228 541.822 750.953 541.22 750.915C540.951 750.889 540.695 750.812 540.452 750.684C540.33 750.619 540.226 750.525 540.151 750.409C540.075 750.294 540.029 750.162 540.018 750.024C540.006 749.887 540.029 749.748 540.085 749.622C540.141 749.496 540.227 749.386 540.336 749.301C541.169 748.661 541.751 747.848 542.084 746.862C542.392 745.966 542.212 745.85 541.547 746.516L541.162 746.881C540.74 747.304 540.317 747.304 539.895 746.881C539.715 746.715 539.639 746.491 539.664 746.209C539.677 746.042 539.767 745.87 539.933 745.69C540.573 745.012 541.143 744.218 541.643 743.309C541.717 743.174 541.832 743.066 541.97 743.001C542.109 742.935 542.266 742.914 542.419 742.942C542.571 742.969 542.713 743.043 542.825 743.153C542.937 743.263 543.014 743.405 543.045 743.558C543.262 744.8 543.883 745.812 544.908 746.593C545.155 746.782 545.334 747.046 545.421 747.346C545.507 747.647 545.496 747.968 545.388 748.264C545.311 748.469 545.228 748.667 545.138 748.86C544.933 749.269 545.062 749.493 545.523 749.532C546.918 749.647 548.18 749.276 549.306 748.418C549.549 748.23 549.843 748.122 550.15 748.109C550.456 748.096 550.759 748.179 551.016 748.345C551.273 748.512 551.473 748.754 551.586 749.039C551.7 749.324 551.722 749.637 551.65 749.935C551.266 751.651 550.145 752.31 548.288 751.913C547.61 751.76 547.097 751.984 546.752 752.586C546.611 752.842 546.573 753.13 546.637 753.45C546.701 753.745 546.893 753.994 547.213 754.199C549.031 755.377 550.504 755.153 551.63 753.527C551.938 753.079 552.348 752.771 552.86 752.605C553.935 752.272 554.652 752.618 555.011 753.642C555.161 754.077 555.461 754.442 555.857 754.672C556.252 754.901 556.716 754.979 557.162 754.891L557.796 754.775C558.731 754.583 559.025 754.039 558.68 753.143C558.411 752.451 557.969 751.869 557.354 751.395C556.752 750.934 556.695 750.415 557.181 749.839C557.617 749.314 558.257 749.25 559.102 749.647C562.816 751.376 566.849 752.438 571.203 752.835Z" fill="#D3B080"/>
<path d="M560.945 764.054L562.155 764.207C562.45 764.246 562.629 764.412 562.693 764.707C562.719 764.873 562.725 765.072 562.712 765.302L559.716 767.089C559.037 767.498 558.679 767.306 558.64 766.512L558.602 765.725C558.576 764.995 558.922 764.547 559.639 764.38L560.945 764.054Z" fill="#565749"/>
<path d="M555.548 769.604C553.397 770.565 551.688 770.513 550.42 769.451C552.533 768.337 554.242 768.388 555.548 769.604Z" fill="#B7855D"/>
<path d="M304.277 794.739C304.113 794.844 303.92 794.898 303.708 794.9C303.496 794.901 303.269 794.85 303.041 794.748C302.813 794.646 302.588 794.496 302.378 794.307C302.169 794.117 301.979 793.891 301.82 793.643C301.661 793.394 301.536 793.127 301.452 792.857C301.367 792.588 301.326 792.32 301.329 792.07C301.332 791.821 301.38 791.593 301.471 791.402C301.561 791.21 301.692 791.057 301.855 790.952C302.019 790.848 302.212 790.793 302.424 790.792C302.636 790.79 302.863 790.842 303.091 790.943C303.319 791.045 303.544 791.195 303.754 791.385C303.963 791.575 304.153 791.8 304.312 792.049C304.471 792.297 304.596 792.564 304.681 792.834C304.765 793.104 304.807 793.371 304.803 793.621C304.8 793.871 304.752 794.098 304.662 794.29C304.571 794.482 304.44 794.634 304.277 794.739Z" fill="#FFB52C"/>
<path d="M614.074 793.153C614.599 791.706 615.662 791.124 617.262 791.405C617.429 791.444 617.557 791.533 617.646 791.674L620.009 795.842C620.051 795.919 620.069 796.007 620.061 796.095C620.053 796.183 620.019 796.266 619.963 796.334C619.907 796.402 619.833 796.452 619.749 796.477C619.664 796.503 619.574 796.502 619.49 796.476L615.073 795.151C614.023 794.843 613.69 794.178 614.074 793.153Z" fill="#FFB52C"/>
<path d="M634.184 796.11C635.977 796.367 637.129 797.385 637.642 799.164C637.722 799.455 637.693 799.765 637.562 800.034C637.431 800.303 637.207 800.513 636.931 800.624L636.355 800.855C635.74 801.098 635.349 800.899 635.183 800.259C634.607 798.185 633.269 797.346 631.169 797.743C630.85 797.807 630.52 797.775 630.219 797.652C629.919 797.529 629.661 797.32 629.478 797.052C628.621 795.81 628.153 794.42 628.076 792.884C628.069 792.721 628.097 792.558 628.16 792.408C628.222 792.258 628.316 792.123 628.436 792.015C628.555 791.906 628.697 791.826 628.851 791.78C629.005 791.735 629.167 791.724 629.325 791.75C630.977 792.019 632.027 792.973 632.475 794.612C632.718 795.483 633.288 795.982 634.184 796.11Z" fill="#FFB52C"/>
<path d="M625.559 794.094C625.559 794.598 625.359 795.082 625.003 795.439C624.646 795.795 624.162 795.996 623.658 795.996C623.154 795.996 622.67 795.795 622.313 795.439C621.957 795.082 621.756 794.598 621.756 794.094C621.756 793.59 621.957 793.106 622.313 792.749C622.67 792.393 623.154 792.193 623.658 792.193C624.162 792.193 624.646 792.393 625.003 792.749C625.359 793.106 625.559 793.59 625.559 794.094Z" fill="#FFB52C"/>
<path d="M687.071 799.66C687.01 799.869 686.896 800.059 686.734 800.221C686.573 800.383 686.367 800.513 686.129 800.603C685.891 800.694 685.625 800.743 685.347 800.749C685.069 800.754 684.783 800.716 684.507 800.636C683.949 800.474 683.463 800.151 683.155 799.739C682.847 799.327 682.743 798.859 682.865 798.439C682.926 798.23 683.04 798.04 683.202 797.878C683.363 797.716 683.569 797.586 683.807 797.496C684.045 797.405 684.311 797.356 684.589 797.35C684.867 797.345 685.153 797.383 685.429 797.463C685.986 797.625 686.473 797.948 686.781 798.36C687.089 798.772 687.193 799.24 687.071 799.66Z" fill="#FFB52C"/>
<path d="M390.467 442.524C385.733 440.753 381.398 438.053 377.712 434.578C374.026 431.103 371.059 426.92 368.983 422.268C366.906 417.617 365.759 412.588 365.608 407.468C365.457 402.349 366.304 397.239 368.102 392.431C371.732 382.721 379.013 374.829 388.341 370.491C397.67 366.153 408.283 365.725 417.845 369.3C422.579 371.07 426.914 373.77 430.6 377.245C434.286 380.721 437.253 384.904 439.33 389.555C441.406 394.206 442.553 399.235 442.704 404.355C442.855 409.474 442.008 414.584 440.21 419.392C436.58 429.102 429.299 436.994 419.971 441.332C410.642 445.67 400.03 446.099 390.467 442.524Z" fill="#D8CA9A"/>
<path d="M581.165 396.759C580.303 398.733 579.045 400.511 577.463 401.992C575.88 403.472 574.005 404.626 571.944 405.388C569.883 406.15 567.676 406.504 565.45 406.431C563.224 406.358 561.021 405.859 558.969 404.962C554.824 403.151 551.54 399.831 549.84 395.731C548.141 391.632 548.164 387.089 549.906 383.102C550.768 381.129 552.027 379.351 553.609 377.87C555.191 376.39 557.066 375.235 559.128 374.474C561.189 373.712 563.395 373.358 565.622 373.431C567.848 373.504 570.05 374.003 572.103 374.9C576.248 376.711 579.532 380.031 581.231 384.131C582.931 388.23 582.907 392.773 581.165 396.759Z" fill="#D8CA9A"/>
<path d="M599.437 717.129C599.143 716.835 598.925 716.489 598.784 716.092C598.729 715.941 598.721 715.777 598.76 715.621C598.799 715.465 598.884 715.324 599.004 715.217C599.124 715.109 599.273 715.04 599.432 715.018C599.591 714.996 599.754 715.022 599.898 715.093L603.336 716.668C603.938 716.95 604.232 717.424 604.22 718.09C604.207 718.551 604.073 718.986 603.816 719.396C603.381 720.087 602.792 720.266 602.049 719.934C601.473 719.677 601.044 719.229 600.762 718.589C600.685 718.423 600.244 717.936 599.437 717.129Z" fill="#B7855D"/>
<path d="M691.964 700.356C691.914 700.755 691.66 701.113 691.256 701.349C690.853 701.586 690.334 701.682 689.813 701.617C689.293 701.552 688.813 701.332 688.48 701.003C688.147 700.675 687.988 700.266 688.038 699.867C688.088 699.468 688.342 699.111 688.745 698.874C689.149 698.638 689.668 698.541 690.188 698.606C690.709 698.671 691.189 698.892 691.522 699.22C691.855 699.548 692.014 699.957 691.964 700.356Z" fill="#B7855D"/>
<path d="M609.483 729.019C609.483 730.453 608.817 731.42 607.485 731.919C607.361 731.967 607.254 732.048 607.175 732.155C607.096 732.261 607.049 732.389 607.039 732.522C607.029 732.656 607.057 732.791 607.119 732.912C607.181 733.033 607.274 733.135 607.39 733.206L608.119 733.648C608.824 734.058 608.894 734.557 608.331 735.146C608.177 735.3 608.011 735.415 607.831 735.492C607.409 735.71 607.108 735.594 606.929 735.146L605.507 731.554C605.399 731.283 605.376 730.985 605.442 730.701C605.507 730.416 605.657 730.158 605.872 729.96C607.05 728.872 607.236 727.681 606.429 726.388C606.083 725.824 606.083 725.254 606.429 724.678C607.21 723.385 608.414 722.789 610.04 722.892C610.629 722.93 610.93 723.25 610.943 723.852C610.943 724.838 611.282 725.709 611.961 726.464C612.071 726.587 612.143 726.738 612.17 726.9C612.197 727.063 612.177 727.229 612.112 727.38C612.048 727.532 611.941 727.661 611.805 727.754C611.67 727.847 611.511 727.899 611.346 727.905L610.54 727.943C609.848 727.956 609.496 728.315 609.483 729.019Z" fill="#B7855D"/>
<path d="M613.133 731.535V732.476C613.133 732.873 612.934 733.116 612.537 733.206C612.242 733.27 611.954 733.289 611.673 733.263C610.904 733.199 610.597 732.79 610.751 732.034C611.263 729.563 612.575 727.789 614.688 726.714C615.341 726.381 615.834 726.534 616.167 727.175C616.372 727.559 616.487 727.962 616.513 728.385C616.551 728.935 616.308 729.294 615.783 729.46L614.304 729.94C613.965 730.047 613.668 730.259 613.457 730.545C613.246 730.832 613.133 731.179 613.133 731.535Z" fill="#565749"/>
<path d="M630.783 732.055C630.604 731.811 630.406 731.709 630.188 731.747C629.983 731.786 629.855 731.696 629.804 731.478C629.727 731.132 629.721 730.761 629.785 730.364C629.82 730.185 629.911 730.023 630.046 729.9C630.181 729.778 630.353 729.702 630.534 729.685C630.715 729.668 630.898 729.709 631.053 729.804C631.209 729.899 631.33 730.041 631.398 730.211L631.686 730.96C631.815 731.271 632.057 731.522 632.364 731.661C632.671 731.8 633.019 731.817 633.338 731.709C634.362 731.35 635.156 730.704 635.72 729.769C636.078 729.18 636.565 729.045 637.18 729.365C637.41 729.493 637.608 729.654 637.775 729.846C637.858 729.937 637.917 730.048 637.947 730.168C637.977 730.288 637.976 730.413 637.946 730.533C637.916 730.653 637.856 730.763 637.772 730.855C637.689 730.946 637.584 731.015 637.468 731.056C636.29 731.491 635.214 732.131 634.241 732.976C633.69 733.45 633.466 734.052 633.568 734.782C633.748 736.037 634.458 736.85 635.7 737.221C636.225 737.388 636.514 737.74 636.565 738.278C636.642 739.238 636.386 740.083 635.797 740.813C635.619 741.029 635.378 741.183 635.109 741.256C634.839 741.329 634.553 741.316 634.291 741.218C634.029 741.121 633.804 740.945 633.647 740.714C633.49 740.483 633.409 740.209 633.415 739.93C633.492 737.548 632.365 735.838 630.034 734.801C629.739 734.668 629.415 734.617 629.096 734.654C628.778 734.692 628.478 734.815 628.229 735.012L621.737 740.16C621.122 740.647 620.539 740.608 619.989 740.045L619.182 739.257C619.064 739.137 618.978 738.989 618.932 738.827C618.885 738.665 618.88 738.495 618.916 738.332C618.953 738.169 619.03 738.018 619.14 737.895C619.25 737.771 619.39 737.678 619.547 737.625L621.353 736.952C623.12 736.312 623.068 735.89 621.199 735.685C619.214 735.467 617.613 734.475 616.397 732.708C616.141 732.323 616.115 731.926 616.32 731.517L616.627 730.94C617.204 729.826 617.62 729.884 617.876 731.113L617.991 731.651C618.094 732.112 618.362 732.432 618.798 732.611L623.946 734.859C624.15 734.948 624.317 734.904 624.445 734.724L624.714 734.302C624.855 734.084 624.816 733.898 624.599 733.745L620.258 730.844C619.899 730.601 619.758 730.268 619.835 729.846L620.143 728.04C620.245 727.502 620.565 727.246 621.103 727.272C623.984 727.413 625.885 728.783 626.807 731.382C627.012 731.946 627.403 732.195 627.979 732.131C628.799 732.042 629.612 732.163 630.418 732.496C631.071 732.778 631.193 732.631 630.783 732.055Z" fill="#B7855D"/>
<path d="M623.697 745.191C624.631 745.768 625.067 746.517 625.003 747.439C624.913 748.63 624.427 748.822 623.543 748.015L611.596 737.124C610.354 735.985 610.591 735.498 612.306 735.664C612.947 735.728 613.568 735.165 614.17 733.974C614.311 733.693 614.528 733.507 614.823 733.417C615.399 733.264 615.662 733.488 615.61 734.09C615.598 734.384 615.585 734.679 615.572 734.973C615.559 735.229 615.61 735.466 615.725 735.684C617.608 739.141 620.297 743.098 623.697 745.191Z" fill="#B7855D"/>
<path d="M638.717 736.951C637.807 736.708 637.065 736.093 636.489 735.107C636.297 734.762 636.392 734.55 636.777 734.474C638.492 734.089 639.6 734.173 640.1 734.723C642.097 736.977 641.636 737.72 638.717 736.951Z" fill="#B7855D"/>
<path d="M630.611 737.643C630.687 737.676 630.755 737.724 630.81 737.784C630.866 737.844 630.909 737.915 630.936 737.993C630.963 738.07 630.974 738.153 630.968 738.235C630.961 738.316 630.938 738.396 630.9 738.469C630.336 739.531 629.811 740.005 629.325 739.89C628.974 739.796 628.62 739.583 628.33 739.293C628.041 739.002 627.836 738.654 627.756 738.314C627.675 737.975 627.724 737.668 627.893 737.452C628.062 737.236 628.339 737.126 628.671 737.143C629.401 737.207 630.048 737.374 630.611 737.643Z" fill="#565749"/>
</svg>
