<svg width="1024" height="1024" viewBox="0 0 1024 1024" fill="none" xmlns="http://www.w3.org/2000/svg">
<rect width="1024" height="1024" fill="white"/>
<path d="M588.012 379.085C579.625 360.602 568.692 342.653 554.696 328.017" stroke="#756043" stroke-width="2"/>
<path d="M554.696 328.017C553.746 325.69 552.334 324.052 550.458 323.102" stroke="#271D0F" stroke-width="2"/>
<path d="M550.458 323.102C536.569 306.661 521.873 294.606 506.369 286.937C484.254 275.987 468.21 268.294 444.172 266.068" stroke="#756043" stroke-width="2"/>
<path d="M550.458 323.102C551.301 325.049 552.713 326.687 554.696 328.017" stroke="#9B7C51" stroke-width="2"/>
<path d="M700.031 239.181C689.65 234.427 682.474 233.216 672.805 231.382C662.922 229.494 652.559 230.456 642.587 230.759C631.441 231.091 619.867 233.026 607.865 236.563C598.499 239.323 587.673 244.843 582.723 253.301C581.245 255.812 579.535 258.038 579.446 261.029C579.233 268.704 580.016 271.215 585.607 276.396C586.048 276.801 586.602 277.057 587.192 277.126C589.994 277.447 592.682 277.079 595.258 276.022C595.769 275.809 596.285 275.797 596.808 275.987C605.728 279.388 605.176 290.588 597.609 294.772C595.211 296.102 592.243 296.672 588.706 296.482C572.626 295.609 561.106 282.486 559.895 266.816C558.809 252.803 567.463 238.576 578.716 230.652C604.179 212.703 635.038 211.065 665.023 212.329C677.274 212.863 713.866 217.796 718.442 229.779C719.166 231.679 719.534 234.783 719.546 239.092C719.582 249.871 719.618 260.572 719.653 271.197C719.653 272.557 720.169 273.858 721.095 274.829C724.906 278.853 728.467 283.679 732.028 287.543C747.449 304.174 759.065 316.995 766.876 326.005C768.241 327.571 769.784 329.922 771.505 333.056C771.575 333.184 771.612 333.325 771.612 333.465L771.113 494.933C771.102 496.71 770.494 498.439 769.386 499.847C765.184 505.177 760.435 510.602 755.141 516.122C743.531 528.242 732.07 540.499 720.757 552.892C720.354 553.332 720.14 553.854 720.116 554.459C719.831 561.819 719.695 569.179 719.706 576.539C719.724 584.303 718.015 590.179 709.361 590.268C708.625 590.268 707.978 590.036 707.42 589.573L701.883 584.855C701.671 584.677 701.5 584.452 701.383 584.197C701.266 583.941 701.206 583.662 701.206 583.377L701.366 555.813C701.366 555.192 701.151 554.599 700.761 554.139C684.735 535.175 666.857 517.511 649.817 499.42C648.549 498.084 647.847 496.304 647.858 494.452C648.179 442.766 648.357 390.707 648.392 338.273C648.404 335.673 649.039 333.358 650.297 331.329C651.876 328.812 653.354 326.812 654.731 325.328C670.389 308.531 685.406 291.359 699.781 273.814C700.482 272.96 700.832 271.974 700.832 270.858L700.885 240.516C700.885 239.887 700.6 239.442 700.031 239.181Z" fill="#010101"/>
<path d="M588.011 379.085C579.625 360.602 568.692 342.653 554.696 328.016C553.746 325.69 552.334 324.052 550.458 323.102C536.569 306.661 521.873 294.606 506.37 286.937C484.254 275.986 468.211 268.294 444.172 266.068C432.016 265.344 419.6 266.775 406.921 270.36C406.74 270.413 406.577 270.516 406.45 270.656C406.324 270.797 406.24 270.97 406.209 271.155C406.177 271.34 406.198 271.529 406.271 271.7C406.344 271.872 406.464 272.018 406.619 272.122C426.241 285.673 446.416 297.585 466.804 309.925C468.834 311.148 470.371 313.285 471.416 316.336C477.553 334.261 483.316 352.31 488.706 370.484C493.763 387.531 500.416 416.787 508.667 458.252C510.821 469.167 512.442 472.746 501.224 478.551C484.141 487.395 467.219 496.523 450.458 505.937C439.038 512.347 428.574 517.933 419.065 522.693C387.216 538.635 355.414 554.649 323.659 570.734C320.988 572.087 316.002 574.242 308.702 577.198C302.594 579.673 297.876 578.338 295.489 572.194C280.924 534.777 267.011 497.123 253.752 459.231C252.576 455.884 251.597 451.913 252.167 447.871C253.378 439.359 254.309 430.83 254.962 422.283C255.603 413.843 256.256 405.403 256.921 396.962C257.366 391.247 258.88 380.955 258.773 372.692C258.702 365.908 262.494 363.166 266.554 357.86C287.542 330.45 303.318 311.35 313.884 300.559C323.06 291.169 340.237 276.176 365.415 255.58C367.706 253.717 369.991 252.773 372.27 252.749C377.315 252.69 381.69 254.666 385.393 258.679C385.495 258.789 385.619 258.877 385.756 258.938C385.893 258.998 386.041 259.031 386.191 259.032C386.341 259.034 386.49 259.005 386.628 258.947C386.767 258.89 386.892 258.804 386.996 258.697L388.652 256.934C389.103 256.459 389.637 256.097 390.255 255.847C405.117 250.09 420.561 247.502 436.587 248.084C474.134 249.437 507.551 261.735 536.836 284.979C567.427 309.266 591.163 338.095 606.441 374.224C612.477 388.522 618.336 402.963 621.719 417.903C629.892 453.978 627.577 490.784 627.862 526.45C627.862 527.578 627.547 528.599 626.918 529.513C622.763 535.59 617.932 536.297 612.424 531.632C610.483 529.993 609.112 527.198 609.13 524.367C609.45 494.001 609.462 474.218 609.165 465.018C608.216 435.804 601.164 407.16 588.011 379.085Z" fill="#010101"/>
<path d="M444.172 266.068C468.21 268.294 484.254 275.987 506.369 286.937C521.873 294.606 536.569 306.661 550.458 323.102C551.301 325.049 552.713 326.687 554.696 328.017C568.691 342.653 579.624 360.602 588.011 379.085C585.364 374.705 582.669 370.615 579.927 366.816C575.654 360.905 572.342 355.919 567.089 349.206C564.454 345.841 562.726 341.781 559.877 338.896C554.203 333.127 548.594 327.31 543.05 321.446C535.696 313.647 526.74 308.038 518.531 301.271C515.415 298.707 511.587 296.588 508.221 294.042C506.476 292.724 504.304 291.389 501.704 290.036C498.588 288.415 495.721 286.047 492.943 284.587C484.29 280.076 473.398 275.589 460.269 271.125C455.615 269.547 451.989 268.567 449.389 268.187C448.879 268.104 448.386 267.956 447.911 267.742L444.172 266.068Z" fill="#E8BF85"/>
<path d="M550.458 323.102C552.334 324.052 553.746 325.69 554.696 328.017C552.713 326.687 551.301 325.049 550.458 323.102Z" fill="#4D391D"/>
<path d="M548.703 393.226C548.724 394.926 548.069 396.564 546.881 397.781C545.694 398.998 544.072 399.693 542.372 399.714L538.134 399.766C537.293 399.776 536.457 399.62 535.676 399.308C534.894 398.995 534.182 398.532 533.579 397.944C532.977 397.356 532.496 396.655 532.164 395.881C531.832 395.107 531.657 394.276 531.646 393.434L531.593 389.09C531.572 387.39 532.228 385.751 533.415 384.534C534.603 383.318 536.225 382.622 537.925 382.602L542.162 382.55C543.004 382.54 543.839 382.695 544.621 383.008C545.403 383.32 546.115 383.784 546.718 384.372C547.32 384.96 547.801 385.661 548.132 386.434C548.464 387.208 548.64 388.04 548.65 388.881L548.703 393.226Z" fill="#8A3500"/>
<path d="M402.702 793.936C404.067 793.912 404.102 793.687 402.808 793.26C372.087 782.956 347.176 764.562 328.075 738.078C309.616 712.496 297.009 682.629 290.255 648.477C288.207 638.095 288.225 631.009 295.935 624.046C304.909 615.98 318.905 610.816 328.752 608.252C344.564 604.157 358.204 600.417 376.17 599.171C376.799 599.135 377.197 598.809 377.363 598.192C380.123 587.864 384.557 580.047 394.831 576.201C399.372 574.509 407.954 575.506 409.806 569.969C416.751 549.331 436.142 544.256 451.758 560.353C451.866 560.465 451.995 560.553 452.138 560.613C452.281 560.673 452.435 560.702 452.59 560.701C452.745 560.699 452.898 560.666 453.039 560.603C453.181 560.54 453.309 560.449 453.414 560.335C467.457 544.915 481.512 529.4 495.579 513.79C502.452 506.186 508.364 502.358 518.122 505.528C520.923 506.43 523.838 508.59 526.865 512.009C541.81 528.83 556.981 545.425 572.378 561.795C572.426 561.847 572.486 561.887 572.552 561.912C572.619 561.937 572.69 561.946 572.76 561.939C572.831 561.933 572.899 561.91 572.959 561.872C573.019 561.835 573.07 561.784 573.108 561.724C583.346 545.966 603.165 548.583 612.78 563.38C614.039 565.315 615.374 568.467 616.787 572.835C616.977 573.393 617.357 573.726 617.926 573.833C622.218 574.652 626.847 574.26 630.64 575.684C641.015 579.578 647.01 587.27 648.624 598.761C648.674 599.087 648.835 599.385 649.079 599.603C649.323 599.821 649.635 599.945 649.96 599.954C650.803 599.99 651.616 599.871 652.399 599.598C652.969 599.408 653.545 599.367 654.127 599.474C658.317 600.198 662.525 600.714 666.751 601.023C668.603 601.147 669.707 602.091 671.363 602.376C684.362 604.56 697.046 607.955 709.415 612.561C724.266 618.081 737.798 626.61 734.344 645.289C726.171 689.378 707.688 732.7 674.034 763.701C659.255 777.287 641.769 786.422 622.876 792.28C621.025 792.862 621.072 793.153 623.019 793.153C646.06 793.176 669.113 793.099 692.179 792.921C697.485 792.886 699.907 796.073 702.079 801.86C702.281 802.394 702.281 802.928 702.079 803.463C697.805 814.627 694.191 811.636 684.094 811.636C569.208 811.79 454.316 811.742 339.418 811.493C335.038 811.493 326.74 812.366 323.392 809.267C316.181 802.59 324.532 793.046 331.957 793.046C349.384 793.046 366.798 793.058 384.201 793.082C389.739 793.082 396.594 794.061 402.702 793.936Z" fill="#010101"/>
<path d="M748.404 748.337C747.125 748.268 745.872 747.932 744.718 747.35C743.564 746.768 742.531 745.95 741.678 744.943C740.825 743.937 740.169 742.761 739.747 741.483C739.325 740.206 739.146 738.851 739.219 737.497C739.292 736.143 739.617 734.815 740.175 733.591C740.732 732.366 741.511 731.268 742.468 730.359C743.425 729.451 744.54 728.749 745.75 728.295C746.96 727.841 748.242 727.643 749.521 727.712C750.801 727.781 752.054 728.117 753.208 728.699C754.362 729.281 755.395 730.099 756.247 731.106C757.1 732.112 757.757 733.288 758.179 734.566C758.6 735.843 758.78 737.198 758.707 738.552C758.633 739.907 758.308 741.234 757.751 742.459C757.194 743.683 756.414 744.781 755.458 745.69C754.501 746.598 753.386 747.3 752.175 747.754C750.965 748.208 749.684 748.406 748.404 748.337Z" fill="#010101"/>
<path d="M284.913 738.363C284.913 741.026 283.855 743.581 281.971 745.464C280.088 747.347 277.533 748.406 274.87 748.406C272.206 748.406 269.652 747.347 267.769 745.464C265.885 743.581 264.827 741.026 264.827 738.363C264.827 735.699 265.885 733.145 267.769 731.262C269.652 729.378 272.206 728.32 274.87 728.32C277.533 728.32 280.088 729.378 281.971 731.262C283.855 733.145 284.913 735.699 284.913 738.363Z" fill="#010101"/>
<path d="M729.809 798.827C730.975 800.104 731.585 801.791 731.507 803.517C731.429 805.244 730.668 806.869 729.391 808.034L727.656 809.619C727.024 810.196 726.284 810.643 725.48 810.935C724.675 811.226 723.821 811.356 722.966 811.317C722.111 811.278 721.272 811.071 720.497 810.708C719.722 810.345 719.026 809.833 718.449 809.201L716.335 806.887C715.17 805.61 714.559 803.923 714.638 802.197C714.716 800.47 715.477 798.845 716.753 797.68L718.489 796.095C719.121 795.518 719.861 795.071 720.665 794.78C721.47 794.488 722.324 794.358 723.179 794.397C724.034 794.436 724.873 794.643 725.648 795.006C726.423 795.369 727.119 795.881 727.696 796.513L729.809 798.827Z" fill="#C06701"/>
<path d="M307.883 802.715C307.883 804.821 307.046 806.841 305.557 808.331C304.068 809.82 302.048 810.657 299.942 810.657C297.835 810.657 295.815 809.82 294.326 808.331C292.837 806.841 292 804.821 292 802.715C292 800.609 292.837 798.589 294.326 797.099C295.815 795.61 297.835 794.773 299.942 794.773C302.048 794.773 304.068 795.61 305.557 797.099C307.046 798.589 307.883 800.609 307.883 802.715Z" fill="#C06701"/>
<path d="M276.361 809.123C275.336 810.371 273.857 811.161 272.249 811.318C270.642 811.476 269.038 810.989 267.79 809.963L265.505 808.087C264.257 807.062 263.468 805.583 263.31 803.976C263.153 802.369 263.64 800.764 264.665 799.516L266.541 797.232C267.567 795.984 269.045 795.194 270.653 795.037C272.26 794.879 273.864 795.367 275.112 796.392L277.396 798.268C278.644 799.293 279.434 800.772 279.592 802.379C279.749 803.987 279.262 805.591 278.237 806.839L276.361 809.123Z" fill="#AF4F02"/>
<path d="M758.823 807.118C758.336 807.966 757.67 808.699 756.863 809.277C756.056 809.854 755.124 810.265 754.12 810.485C753.116 810.705 752.06 810.73 751.012 810.559C749.964 810.388 748.945 810.024 748.012 809.488C746.129 808.405 744.714 806.686 744.078 804.711C743.442 802.735 743.638 800.664 744.622 798.952C745.109 798.105 745.775 797.372 746.582 796.794C747.389 796.216 748.321 795.806 749.325 795.586C750.329 795.366 751.385 795.341 752.433 795.512C753.481 795.683 754.5 796.047 755.433 796.583C757.316 797.666 758.731 799.384 759.367 801.36C760.003 803.336 759.807 805.407 758.823 807.118Z" fill="#C06701"/>
<path d="M702.08 360.513L670.509 360.299C670.226 360.298 669.949 360.213 669.714 360.055C669.48 359.896 669.297 359.671 669.191 359.409C668.894 358.649 668.776 357.753 668.835 356.72" stroke="#98D1DF" stroke-width="2"/>
<path d="M702.862 392.938L702.345 401.539C702.328 401.83 702.245 402.115 702.103 402.37C701.961 402.625 701.762 402.844 701.524 403.01C701.285 403.177 701.012 403.286 700.726 403.331C700.439 403.375 700.147 403.353 699.871 403.266C696.238 402.162 694.885 399.366 692.445 397.657C691.294 396.861 690.154 396.042 689.026 395.2C684.806 392.012 683.97 386.492 680.07 383.056C677.268 380.61 673.921 379.12 670.027 378.586C669.386 378.503 669 378.147 668.87 377.518L668.211 374.598" stroke="#1A7892" stroke-width="2"/>
<path d="M752.417 360.05L719.387 360.727" stroke="#98D1DF" stroke-width="2"/>
<path d="M752.078 380.456C748.659 381.845 745.294 382.433 742.463 384.747C737.394 388.902 732.93 393.609 729.072 398.868C726.384 402.518 723.357 403.337 719.154 402.749" stroke="#1A7892" stroke-width="2"/>
<path d="M701.829 436.955C701.272 438.012 700.512 438.522 699.55 438.487C693.508 438.261 683.133 438.267 668.425 438.504" stroke="#F79E6E" stroke-width="2"/>
<path d="M701.972 473.725L670.562 483.608C669.351 483.988 668.68 483.542 668.55 482.272L668.247 479.263" stroke="#D44716" stroke-width="2"/>
<path d="M751.972 438.362L720.562 438.344" stroke="#FCDF99" stroke-width="2"/>
<path d="M720.561 438.344L719.671 436.03" stroke="#DEB380" stroke-width="2"/>
<path d="M720.561 438.344L719.617 444.024" stroke="#DE931A" stroke-width="2"/>
<path d="M751.527 480.474L750.103 484.409C749.901 484.955 749.527 485.115 748.981 484.89L719.458 472.639" stroke="#E59B1A" stroke-width="2"/>
<path d="M740.576 501.325C734.469 498.69 729.519 492.814 722.556 492.422C721.951 492.386 721.47 492.125 721.114 491.639C720.069 490.238 719.47 488.273 719.315 485.745" stroke="#BC5001" stroke-width="2"/>
<path d="M375.173 283.162C372.336 281.073 370.467 278.396 369.564 275.132" stroke="#A3E0F2" stroke-width="2"/>
<path d="M364.257 298.511C362.631 298.262 361.254 297.615 360.126 296.57C359.723 296.19 359.26 295.912 358.738 295.734C356.067 294.819 353.645 293.395 351.473 291.46" stroke="#37A1C1" stroke-width="2"/>
<path d="M362.691 300.969C357.563 299.841 353.147 297.408 349.443 293.668" stroke="#37A1C1" stroke-width="2"/>
<path d="M441.056 345.645C420.026 334.765 400.315 320.716 380.853 307.166" stroke="#3FB2D3" stroke-width="2"/>
<path d="M349.763 329.53L328.217 314.359" stroke="#FDB294" stroke-width="2"/>
<path d="M330.052 394.238C326.93 392.849 324.562 391.638 322.947 390.606C310.091 382.32 298.179 373.037 287.21 362.757" stroke="#D44716" stroke-width="2"/>
<path d="M432.154 382.13C429.091 380.563 426.277 378.194 423.482 376.61C411.457 369.736 399.503 362.745 387.62 355.634C380.497 351.378 373.108 345.449 365.451 340.659" stroke="#FEE7A9" stroke-width="2"/>
<path d="M427.808 402.376C422.265 400.619 418.596 399.313 416.804 398.458C406.429 393.496 392.32 384.095 374.478 370.253C367.059 364.496 362.287 358.94 360.162 353.586" stroke="#FEC743" stroke-width="2"/>
<path d="M419.973 439.27C416.744 439.258 413.474 438.457 410.162 436.867C405.627 434.67 403.318 433.555 403.235 433.519C383.09 425.209 363.889 415.451 345.632 404.245" stroke="#E59B1A" stroke-width="2"/>
<path d="M474.443 391.567C466.383 391.781 458.34 390.297 450.315 387.115" stroke="#FDB294" stroke-width="2"/>
<path d="M480.729 418.241C473.191 419.238 465.784 417.368 458.507 412.632C455.503 410.661 452.577 409.124 449.728 408.02C447.449 407.112 447.235 406.079 446.861 403.835" stroke="#D44716" stroke-width="2"/>
<path d="M318.869 436.083L279.855 410.246C279.381 409.937 279.036 409.516 278.822 408.982L275.457 400.542" stroke="#3FB2D3" stroke-width="2"/>
<path d="M308.524 490.944C297.27 474.004 289.572 459.273 285.429 446.749C281.915 436.124 278.099 425.162 273.979 413.861" stroke="#1A7892" stroke-width="2"/>
<path d="M410.429 484.195C393.193 477.856 376.639 470.259 360.768 461.403C351.734 456.37 343.252 451.004 335.322 445.306" stroke="#3FB2D3" stroke-width="2"/>
<path d="M406.031 502.287C400.749 500.245 392.938 498.067 382.598 495.752C363.178 491.419 344.261 492.921 325.85 500.257" stroke="#1A7892" stroke-width="2"/>
<path d="M540.023 556.276C539.81 558.044 538.806 559.172 537.014 559.659C536.566 559.78 536.153 560.007 535.81 560.32C535.467 560.633 535.202 561.023 535.039 561.46C534.876 561.896 534.818 562.365 534.87 562.829C534.923 563.293 535.084 563.738 535.34 564.128C539.703 570.77 545.597 575.684 549.995 582.344C553.271 587.276 565.201 604.157 571.772 595.77C572.14 595.307 572.3 594.785 572.253 594.203L571.861 589.716" stroke="#F6EBD8" stroke-width="2"/>
<path d="M625.226 609.089C624.977 610.502 623.623 611.113 621.166 610.923C620.573 610.876 620.044 610.656 619.581 610.264C616.127 607.291 612.94 603.712 608.737 606.935C608.274 607.291 607.93 607.742 607.705 608.288C604.482 616.265 596.131 615.749 588.705 614.805C579.891 613.683 581.12 603.053 568.584 607.54C567.456 607.944 567.005 608.733 567.231 609.908C568.192 615.143 574.674 613.469 576.579 618.42C578.2 622.675 575.404 625.418 572.341 628.391C568.139 632.487 557.188 631.81 551.419 632.184C550.837 632.22 550.291 632.101 549.781 631.828C543.566 628.409 540.041 621.126 547.324 617.013C547.665 616.818 547.947 616.535 548.143 616.193C548.338 615.852 548.438 615.465 548.432 615.074C548.427 614.682 548.316 614.3 548.111 613.968C547.907 613.635 547.616 613.365 547.27 613.185C544.706 611.843 542.023 611.078 539.222 610.888C538.563 610.841 537.902 611.01 537.334 611.368C528.306 617.138 510.536 615.215 500.101 614.894C496.872 614.787 493.543 613.268 490.112 610.336C489.613 609.908 489.032 609.718 488.367 609.766C484.723 609.991 481.642 611.362 479.125 613.879C478.859 614.148 478.661 614.475 478.547 614.835C478.432 615.195 478.405 615.577 478.468 615.948C478.531 616.319 478.681 616.67 478.907 616.97C479.133 617.269 479.428 617.51 479.766 617.672C480.847 618.194 482.063 618.8 483.417 619.488C484.794 620.177 485.548 620.996 485.678 621.945C485.809 622.966 485.595 624.201 485.037 625.649C482.96 631.121 479.232 633.537 473.855 632.896C468.762 632.267 463.895 631.923 459.254 631.863C458.546 631.857 457.85 631.679 457.226 631.344C456.603 631.009 456.07 630.527 455.675 629.94L449.976 621.518C449.758 621.201 449.655 620.817 449.684 620.429C449.714 620.042 449.873 619.672 450.137 619.381C452.416 616.853 455.122 614.912 458.256 613.559C458.528 613.441 458.77 613.265 458.965 613.042C459.16 612.819 459.303 612.555 459.385 612.27C459.466 611.984 459.484 611.683 459.437 611.389C459.389 611.095 459.278 610.814 459.111 610.567C457.319 607.991 455.033 606.596 452.256 606.383C450.309 606.24 448.196 607.142 445.917 609.089C438.135 615.731 429.072 622.034 419.919 612.9C417.32 610.3 416.038 607.481 416.073 604.442C416.08 604.057 415.972 603.68 415.764 603.356C415.555 603.033 415.256 602.779 414.903 602.627C414.55 602.474 414.16 602.43 413.782 602.499C413.404 602.569 413.055 602.749 412.779 603.017C409.811 605.866 406.369 607.938 402.451 609.232C401.756 609.463 401.148 609.898 400.706 610.478C397.335 614.882 393.637 618.989 389.613 622.8C388.568 623.797 388.106 623.572 388.224 622.123L388.402 620.165" stroke="#F6EBD8" stroke-width="2"/>
<path d="M453.484 590.214C455.93 595.793 459.871 597.2 465.308 594.434C465.83 594.173 466.228 593.781 466.501 593.259C469.563 587.579 473.908 582.789 476.312 577.233C479.481 569.897 482.491 562.395 485.34 554.726" stroke="#F6EBD8" stroke-width="2"/>
<path d="M654.786 643.633C653.978 645.117 652.453 644.185 650.209 640.838C649.189 639.294 648.114 637.781 646.986 636.297C644.707 633.27 642.143 632.611 638.974 630.795C633.169 627.483 629.501 633.359 626.954 637.793C625.298 640.713 624.087 641.372 620.9 641.799C620.434 641.862 619.961 641.752 619.57 641.489C619.18 641.227 618.899 640.83 618.781 640.375C618.306 638.487 617.559 636.677 616.538 634.944C613.243 629.335 606.833 631.952 604.714 637.009C603.129 640.784 601.527 642.903 597.61 643.081C597.296 643.092 596.986 643.037 596.7 642.92C596.414 642.804 596.16 642.628 595.953 642.405L589.704 635.692C589.278 635.237 588.75 634.89 588.163 634.681C587.576 634.472 586.948 634.407 586.331 634.49C585.714 634.574 585.126 634.804 584.616 635.162C584.106 635.52 583.689 635.994 583.4 636.546C581.37 640.41 577.025 646.162 571.951 645.699C566.11 645.164 562.923 636.867 556.317 642.725C550.013 648.316 543.55 648.322 536.926 642.743C536.475 642.363 535.958 642.221 535.377 642.316C529.963 643.224 526.883 647.444 520.829 647.853C514.371 648.292 507.907 648.085 501.438 647.23C500.82 647.159 500.268 646.927 499.782 646.536C498.001 645.075 496.03 643.954 493.87 643.17C493.288 642.968 492.719 642.992 492.161 643.241C487.905 645.182 479.767 650.667 475.245 647.426C472.627 645.556 467.374 638.345 462.691 639.271C462.098 639.389 461.64 639.704 461.32 640.214C453.752 652.251 446.007 643.135 440.861 635.763C440.616 635.413 440.301 635.119 439.935 634.899C439.569 634.68 439.16 634.541 438.737 634.49C438.313 634.44 437.884 634.479 437.476 634.607C437.069 634.734 436.693 634.946 436.373 635.229L428.895 641.87C426.699 643.817 424.728 643.609 422.983 641.247C421.191 638.802 419.309 636.267 417.338 633.644C412.727 627.554 405.8 635.318 403.361 639.057C403.208 639.293 403.001 639.489 402.759 639.631C402.516 639.772 402.244 639.855 401.963 639.872C401.683 639.89 401.402 639.841 401.144 639.73C400.885 639.62 400.657 639.45 400.476 639.235L393.158 630.474C392.766 630.011 392.261 629.792 391.644 629.815L385.162 630.1C384.593 630.124 384.112 630.35 383.72 630.777C379.892 634.872 376.918 639.466 373.375 643.793C371.796 645.705 371.214 648.019 371.63 650.738C371.725 651.331 371.517 651.788 371.006 652.109C370.496 652.429 369.92 652.566 369.279 652.518" stroke="#E4BA8C" stroke-width="2"/>
<path d="M409.218 657.575C409.194 657.433 409.171 657.279 409.147 657.113C409.099 656.792 408.921 656.608 408.613 656.561C404.767 655.979 402.173 655.67 400.831 655.635C398.018 655.563 394.658 655.937 390.753 656.756" stroke="#EACFB3" stroke-width="2"/>
<path d="M692.82 665.855C693.069 666.105 693.152 666.431 693.069 666.835C693.011 667.104 692.876 667.35 692.68 667.544C692.484 667.737 692.235 667.868 691.965 667.921C685.911 669.072 679.892 670.355 673.909 671.767C667.95 673.168 661.967 674.201 655.961 674.865C648.648 675.673 641.419 676.634 634.272 677.75" stroke="#FCDF99" stroke-width="2"/>
<path d="M634.272 677.75C618.353 679.412 602.441 680.35 586.534 680.563C568.318 680.795 550.422 684.677 532.171 684.695C510.803 684.718 489.436 684.73 468.068 684.73C464.198 684.73 460.774 684.35 457.794 683.591C453.105 682.392 450.102 681.733 448.784 681.614C437.578 680.629 426.378 680.029 415.184 679.816" stroke="#F1D8B1" stroke-width="2"/>
<path d="M415.184 679.815C408.299 679.317 401.526 678.296 394.867 676.753C391.288 675.934 389.917 673.886 388.029 671.019" stroke="#EACFB3" stroke-width="2"/>
<path d="M646.095 683.181C640.848 683.015 635.904 683.751 631.263 685.389" stroke="#D6871B" stroke-width="2"/>
<path d="M608.346 687.027L614.809 684.801C615.329 684.616 615.767 684.272 616.056 683.822C617.54 681.46 619.694 680.575 622.519 681.169C623.077 681.287 623.576 681.163 624.015 680.795C625.297 679.703 626.567 679.234 627.826 679.388C631.221 679.78 633.369 679.234 634.272 677.75" stroke="#F1B74B" stroke-width="2"/>
<path d="M415.184 679.816C413.712 679.566 412.454 679.602 411.409 679.923C411.323 679.95 411.25 680.007 411.203 680.084C411.156 680.161 411.139 680.253 411.154 680.342C411.169 680.431 411.216 680.511 411.285 680.568C411.355 680.625 411.443 680.655 411.534 680.653H415.504C415.932 680.653 416.312 680.789 416.644 681.062C418.211 682.332 419.914 683.306 421.754 683.982C425.779 685.442 430.479 683.502 434.895 684.392C435.168 684.451 435.174 684.528 434.913 684.623C434.462 684.778 434.029 684.932 433.613 685.086C433.15 685.264 432.806 685.543 432.58 685.923C432.094 686.707 432.011 687.46 432.331 688.185" stroke="#DFA765" stroke-width="2"/>
<path d="M690.487 675.916C691.627 674.041 692.446 671.969 692.945 669.702C693.075 669.073 693.431 668.627 694.013 668.366L697.734 666.657C697.86 666.597 697.967 666.503 698.044 666.387C698.12 666.271 698.164 666.136 698.169 665.996C698.175 665.857 698.142 665.719 698.075 665.597C698.008 665.475 697.908 665.373 697.788 665.304C697.277 665.031 696.702 664.983 696.061 665.161" stroke="#EBA31B" stroke-width="2"/>
<path d="M345.276 667.725L340.825 667.885C340.693 667.892 340.565 667.93 340.451 667.997C340.337 668.064 340.241 668.157 340.171 668.269C340.101 668.381 340.06 668.508 340.049 668.64C340.039 668.771 340.061 668.904 340.113 669.025C340.599 670.141 341.555 670.829 342.979 671.09C348.238 672.088 353.966 673.281 360.163 674.669" stroke="#E5BC80" stroke-width="2"/>
<path d="M360.162 674.669C357.42 676.759 354.001 677.406 349.905 676.61C349.763 676.581 349.615 676.598 349.482 676.658C349.35 676.718 349.239 676.817 349.167 676.943C349.094 677.069 349.062 677.215 349.077 677.36C349.091 677.504 349.151 677.641 349.247 677.75C349.947 678.533 350.736 678.878 351.615 678.783C354.09 678.498 355.194 678.409 356.903 679.887" stroke="#D38B34" stroke-width="2"/>
<path d="M381.654 671.945C382.426 672.729 382.556 673.221 382.046 673.423C374.472 676.391 367.178 676.806 360.162 674.67" stroke="#EACFB3" stroke-width="2"/>
<path d="M314.667 641.034C318.074 641.354 320.561 640.814 322.128 639.413C322.472 639.105 322.858 638.855 323.285 638.665C324.923 637.941 326.419 636.98 327.772 635.781C328.2 635.401 328.698 635.223 329.268 635.247C333.293 635.46 342.035 629.727 345.953 627.75C346.499 627.477 346.73 627.038 346.647 626.432C346.529 625.637 346.077 625.222 345.294 625.186" stroke="#A54E01" stroke-width="2"/>
<path d="M358.772 698.494C357.514 699.183 357.805 700.702 359.645 703.053C359.681 703.088 359.918 703.51 360.357 704.317C360.606 704.78 361.016 705.083 361.586 705.225C362.156 705.368 362.66 705.629 363.099 706.009L367.622 709.712" stroke="#DE931A" stroke-width="2"/>
<path d="M367.624 709.712C362.478 708.715 358.008 708.484 352.809 706.667C349.806 705.623 346.719 704.911 343.549 704.531C340.202 704.139 337.228 702.341 333.151 703.142C332.872 703.195 332.583 703.165 332.32 703.054C332.058 702.943 331.832 702.757 331.673 702.519C330.711 701.047 329.625 699.907 328.414 699.1" stroke="#A54E01" stroke-width="2"/>
<path d="M369.76 700.4C367.492 699.842 366.269 700.441 366.091 702.198C366.056 702.558 366.151 702.918 366.361 703.213C366.57 703.508 366.879 703.716 367.231 703.801L374.069 705.474" stroke="#FCDF99" stroke-width="2"/>
<path d="M374.068 705.475C379.185 707.469 384.55 708.87 390.165 709.677C390.355 709.701 390.486 709.808 390.557 709.997C390.64 710.211 390.794 710.342 391.02 710.389C394.047 710.947 397.062 711.618 400.066 712.401C400.125 712.425 400.172 712.467 400.208 712.526C400.279 712.68 400.351 712.829 400.422 712.971C400.529 713.173 400.689 713.268 400.903 713.256C407.01 712.74 413.581 713.025 419.279 715.411C420.881 716.075 422.312 716.437 423.57 716.497C441.531 717.316 465.563 717.844 495.668 718.082C495.893 718.082 496.178 718.141 496.522 718.26C496.819 718.366 497.128 718.42 497.448 718.42C507.384 718.456 517.314 718.485 527.238 718.509C529.98 718.509 534.29 717.85 538.065 718.473C541.946 719.126 544.588 719.447 545.988 719.435C560.328 719.364 574.71 719.203 589.133 718.954" stroke="#FEC743" stroke-width="2"/>
<path d="M589.133 718.954C583.424 719.452 577.755 719.743 572.128 719.826C569.208 719.862 566.074 720.663 562.887 720.645C545.377 720.55 527.868 720.61 510.358 720.823C480.444 721.18 450.393 720.254 420.205 718.046" stroke="#E59B1A" stroke-width="2"/>
<path d="M367.623 709.712C377.345 711.956 386.979 714.965 396.665 716.033C404.595 716.9 412.442 717.571 420.205 718.045" stroke="#C37A1A" stroke-width="2"/>
<path d="M420.205 718.046C425.488 723.328 430.693 728.504 435.821 733.573C451.811 749.403 467.979 760.211 489.721 766.23C499.764 769.007 509.148 768.954 520.152 769.132C541.282 769.476 561.065 765.761 579.5 757.985C591.804 752.786 603.984 747.515 615.647 740.695C625.031 735.229 633.97 730.118 642.962 723.94C649.218 719.642 654.851 714.734 659.86 709.214" stroke="#AC5701" stroke-width="2"/>
<path d="M665.807 701.895C653.325 703.409 641.288 706.561 628.877 707.843C619.119 708.858 608.114 711.386 599.389 711.368C589.916 711.345 583.387 711.653 579.802 712.294C571.451 713.79 563.563 713.327 555.194 713.897C550.974 714.182 546.558 713.576 542.427 714.52C540.326 715.007 538.836 715.238 537.958 715.215C509.61 714.728 481.268 714.229 452.933 713.719C452.125 713.695 448.873 713.523 443.175 713.202C438.492 712.935 433.452 713.665 428.858 712.704C427.291 712.383 425.808 712.241 424.407 712.276C405.586 712.882 390.201 707.665 374.068 705.474" stroke="#FEE7A9" stroke-width="2"/>
<path d="M660.02 709.249C652.731 710.389 645.502 711.837 638.332 713.594C631.506 715.28 615.106 717.066 589.133 718.954" stroke="#E7A42A" stroke-width="2"/>
<path d="M697.076 698.655C688.873 702.928 679.453 706.086 668.817 708.128C666.271 708.626 662.976 708.591 659.86 709.214" stroke="#A54E01" stroke-width="2"/>
<path d="M659.86 709.214C659.92 709.226 659.973 709.238 660.021 709.249" stroke="#C77001" stroke-width="2"/>
<path d="M660.021 709.249C661.92 708.442 663.101 707.166 663.564 705.421C663.706 704.875 663.991 704.418 664.419 704.05C665.06 703.504 665.523 702.786 665.808 701.895" stroke="#E09B2A" stroke-width="2"/>
<path d="M665.808 701.895C666.864 701.563 667.564 701.112 667.909 700.542C668.3 699.901 668.122 699.569 667.375 699.545L663.457 699.42" stroke="#DEB380" stroke-width="2"/>
<path d="M702.008 305.1L702.061 335.086C702.061 335.286 701.983 335.478 701.843 335.621C701.703 335.764 701.513 335.847 701.313 335.851L673.037 336.831C672.89 336.832 672.745 336.791 672.621 336.712C672.497 336.634 672.398 336.521 672.336 336.388C672.274 336.254 672.252 336.106 672.272 335.96C672.292 335.815 672.353 335.678 672.449 335.566L700.672 304.583C700.776 304.468 700.913 304.386 701.064 304.35C701.215 304.314 701.373 304.325 701.518 304.381C701.663 304.437 701.787 304.536 701.875 304.664C701.962 304.792 702.009 304.944 702.008 305.1Z" fill="#FCFFFE"/>
<path d="M719.404 334.551L718.959 305.776C718.959 305.408 719.09 305.355 719.351 305.616L748.998 334.533C749.183 334.715 749.312 334.946 749.37 335.199C749.428 335.452 749.411 335.716 749.323 335.96C749.235 336.203 749.079 336.417 748.873 336.574C748.667 336.732 748.42 336.827 748.161 336.848C739.383 337.614 730.088 336.456 721.666 336.724C721.374 336.731 721.084 336.68 720.812 336.574C720.541 336.469 720.292 336.311 720.082 336.109C719.872 335.907 719.704 335.665 719.587 335.398C719.471 335.13 719.409 334.843 719.404 334.551Z" fill="#FE652A"/>
<path d="M702.08 360.513L670.509 360.299C670.226 360.299 669.949 360.214 669.714 360.055C669.48 359.897 669.297 359.672 669.191 359.409C668.894 358.649 668.776 357.753 668.835 356.72C668.8 356.388 668.841 356.056 668.96 355.723C669.209 355.07 669.684 354.744 670.384 354.744L701.278 354.797C701.872 354.797 702.222 355.088 702.329 355.67C702.649 357.272 702.566 358.887 702.08 360.513Z" fill="#FCFFFE"/>
<path d="M752.417 360.05L719.387 360.727L719.333 355.901C719.321 355.177 719.678 354.815 720.402 354.815L751.367 354.69C752.103 354.69 752.465 355.052 752.453 355.777L752.417 360.05Z" fill="#FCFFFE"/>
<path d="M668.834 356.72C668.775 357.753 668.893 358.649 669.19 359.409C669.296 359.671 669.479 359.896 669.713 360.055C669.948 360.213 670.225 360.298 670.508 360.299L702.079 360.513L702.862 392.938L702.345 401.538C702.328 401.83 702.245 402.114 702.103 402.369C701.961 402.624 701.762 402.843 701.524 403.01C701.285 403.176 701.012 403.286 700.726 403.33C700.439 403.375 700.147 403.353 699.871 403.266C696.238 402.162 694.885 399.366 692.445 397.657C691.294 396.861 690.154 396.042 689.026 395.199C684.806 392.012 683.97 386.492 680.07 383.055C677.268 380.61 673.921 379.12 670.027 378.586C669.386 378.503 669 378.147 668.87 377.518L668.211 374.597L668.834 356.72Z" fill="#33A2C0"/>
<path d="M752.416 360.05L752.078 380.456C748.659 381.845 745.294 382.433 742.463 384.748C737.394 388.902 732.93 393.609 729.072 398.868C726.384 402.518 723.357 403.337 719.154 402.75L719.386 360.727L752.416 360.05Z" fill="#33A2C0"/>
<path d="M668.211 374.598L668.87 377.518C669 378.147 669.386 378.503 670.027 378.586C673.921 379.12 677.268 380.61 680.07 383.056C683.97 386.492 684.806 392.012 689.026 395.2C690.154 396.042 691.294 396.861 692.445 397.657C694.885 399.366 696.238 402.162 699.871 403.266C700.147 403.353 700.439 403.375 700.726 403.331C701.012 403.286 701.285 403.177 701.524 403.01C701.762 402.844 701.961 402.625 702.103 402.37C702.245 402.115 702.328 401.83 702.345 401.539L702.862 392.938L702.577 414.786C702.572 415.345 702.347 415.88 701.95 416.273C701.553 416.667 701.017 416.888 700.458 416.888L670.686 416.71C670.069 416.705 669.478 416.456 669.042 416.016C668.605 415.576 668.358 414.981 668.353 414.359L668.211 374.598Z" fill="#014D64"/>
<path d="M752.078 380.456L752.042 414.858C752.042 416.069 751.437 416.674 750.226 416.674L720.098 416.603C719.879 416.603 719.669 416.517 719.513 416.364C719.356 416.211 719.266 416.003 719.261 415.784L719.154 402.749C723.357 403.337 726.384 402.518 729.072 398.868C732.93 393.609 737.394 388.902 742.463 384.747C745.294 382.433 748.659 381.845 752.078 380.456Z" fill="#014D64"/>
<path d="M701.829 436.955C701.272 438.012 700.512 438.522 699.55 438.487C693.508 438.261 683.133 438.267 668.425 438.505L668.621 435.566C668.668 434.854 669.048 434.504 669.76 434.516C680.147 434.67 690.522 434.789 700.886 434.872C701.384 434.872 701.699 435.566 701.829 436.955Z" fill="#F0D6B1"/>
<path d="M751.972 438.362L720.562 438.344L719.671 436.029C719.636 435.851 719.636 435.679 719.671 435.513C719.778 434.884 720.152 434.569 720.793 434.569L750.405 434.676C750.686 434.682 750.959 434.761 751.197 434.905C751.434 435.049 751.628 435.252 751.758 435.495C752.173 436.314 752.245 437.27 751.972 438.362Z" fill="#FCFFFE"/>
<path d="M719.672 436.03L720.562 438.344L719.619 444.025C718.823 441.152 718.841 438.487 719.672 436.03Z" fill="#C06701"/>
<path d="M701.83 436.955L701.972 473.725L670.562 483.608C669.351 483.988 668.68 483.543 668.55 482.272L668.247 479.263L668.425 438.504C683.133 438.267 693.508 438.261 699.55 438.487C700.512 438.522 701.272 438.012 701.83 436.955Z" fill="#FE652A"/>
<path d="M751.972 438.362L751.527 480.474L750.103 484.409C749.901 484.955 749.527 485.115 748.981 484.89L719.458 472.639L719.618 444.024L720.562 438.344L751.972 438.362Z" fill="#FCBE33"/>
<path d="M719.458 472.639L748.981 484.89C749.527 485.115 749.901 484.955 750.103 484.409L751.527 480.474C753.486 489.448 745.794 495.324 740.576 501.325C734.469 498.69 729.519 492.814 722.556 492.422C721.951 492.386 721.47 492.125 721.114 491.638C720.069 490.238 719.47 488.273 719.315 485.745L719.458 472.639Z" fill="#CE7801"/>
<path d="M701.972 473.725L701.99 521.375C701.993 521.597 701.93 521.815 701.809 522.001C701.689 522.188 701.515 522.334 701.311 522.422C701.107 522.509 700.882 522.535 700.663 522.494C700.445 522.454 700.244 522.349 700.085 522.194C690.422 512.935 681.062 503.367 672.004 493.49C667.82 488.932 667.09 485.068 668.247 479.263L668.55 482.272C668.68 483.542 669.351 483.988 670.562 483.608L701.972 473.725Z" fill="#AA2801"/>
<path d="M719.315 485.745C719.47 488.273 720.069 490.238 721.114 491.639C721.47 492.125 721.951 492.386 722.556 492.422C729.518 492.814 734.469 498.69 740.576 501.325L720.491 522.408C720.355 522.552 720.178 522.651 719.985 522.693C719.791 522.735 719.589 522.717 719.406 522.642C719.223 522.567 719.067 522.438 718.958 522.272C718.85 522.106 718.795 521.911 718.799 521.713L719.315 485.745Z" fill="#AA2801"/>
<path d="M375.173 283.162C372.336 281.073 370.467 278.396 369.564 275.132C370.585 274.526 372.324 274.508 374.782 275.078C376.651 275.523 377.488 276.752 378.824 277.998C379.31 278.461 379.316 278.936 378.841 279.423L375.173 283.162Z" fill="#FCFFFE"/>
<path d="M369.564 275.131C370.466 278.396 372.336 281.073 375.173 283.162L364.257 298.511C362.631 298.262 361.254 297.615 360.126 296.57C359.723 296.19 359.26 295.911 358.738 295.733C356.067 294.819 353.645 293.395 351.473 291.46L369.564 275.131Z" fill="#4AC1E5"/>
<path d="M441.056 345.644C420.026 334.765 400.315 320.716 380.853 307.165L393.904 288.825C394.223 288.383 394.697 288.079 395.228 287.976C395.759 287.873 396.305 287.979 396.753 288.273L449.175 322.211C450.03 322.769 450.262 323.517 449.87 324.455L441.056 345.644Z" fill="#4AC1E5"/>
<path d="M351.473 291.46C353.646 293.395 356.067 294.819 358.738 295.734C359.261 295.912 359.724 296.19 360.127 296.57C361.255 297.615 362.632 298.262 364.258 298.511C364.092 299.698 363.57 300.517 362.691 300.969C357.563 299.841 353.147 297.407 349.443 293.668C350.274 293.015 350.951 292.279 351.473 291.46Z" fill="#23809D"/>
<path d="M349.443 293.668C353.146 297.407 357.562 299.841 362.69 300.969L360.554 304.957C360.257 305.515 359.847 305.616 359.325 305.26L347.68 297.336C347.074 296.932 346.92 296.398 347.217 295.734C347.585 294.926 348.327 294.238 349.443 293.668Z" fill="#4AC1E5"/>
<path d="M380.853 307.165C400.315 320.716 420.026 334.765 441.056 345.644L438.029 354.672C437.971 354.839 437.877 354.99 437.754 355.116C437.631 355.242 437.481 355.339 437.316 355.401C437.151 355.462 436.974 355.486 436.799 355.471C436.623 355.456 436.454 355.402 436.301 355.313C424.11 348.238 412.002 340.938 399.976 333.412C393.78 329.53 385.607 323.262 377.736 318.846C375.386 317.516 374.976 315.742 376.508 313.522L380.853 307.165Z" fill="#33A2C0"/>
<path d="M349.763 329.53L328.217 314.359C329.107 312.661 330.259 311.219 331.671 310.032C332.194 309.593 332.734 309.575 333.292 309.978L351.401 323.458C351.935 323.85 352.143 324.372 352.024 325.025C351.763 326.378 351.009 327.88 349.763 329.53Z" fill="#FCFFFE"/>
<path d="M328.218 314.359L349.764 329.53C345.045 340.748 341.822 351.788 338.189 363.415C335.269 372.781 333.061 383.982 330.052 394.238C326.93 392.849 324.562 391.638 322.947 390.605C310.091 382.32 298.179 373.037 287.21 362.757L328.218 314.359Z" fill="#FE652A"/>
<path d="M432.154 382.13C429.091 380.563 426.277 378.194 423.482 376.61C411.457 369.736 399.503 362.745 387.62 355.634C380.497 351.378 373.108 345.449 365.451 340.659C365.772 338.368 366.733 336.7 368.336 335.655C368.894 335.299 369.457 335.287 370.027 335.62C373.826 337.923 377.518 340.309 381.103 342.778C397.687 354.162 414.893 364.531 432.723 373.885C433.27 374.182 433.572 374.639 433.632 375.256C433.798 377.239 433.305 379.53 432.154 382.13Z" fill="#FCFFFE"/>
<path d="M365.451 340.659C373.107 345.449 380.497 351.378 387.619 355.634C399.502 362.745 411.456 369.736 423.481 376.61C426.277 378.194 429.09 380.563 432.153 382.13L427.808 402.375C422.265 400.619 418.596 399.313 416.804 398.458C406.429 393.496 392.32 384.094 374.478 370.253C367.059 364.495 362.287 358.94 360.162 353.586L365.451 340.659Z" fill="#FFCF53"/>
<path d="M454.624 363.184C454.037 357.806 458.489 350.63 459.593 345.431C460.281 342.166 461.148 342.119 462.192 345.288L468.549 364.573C468.654 364.886 468.677 365.221 468.616 365.546C468.555 365.871 468.413 366.176 468.201 366.432C467.99 366.688 467.716 366.887 467.407 367.01C467.097 367.133 466.761 367.177 466.43 367.137L457.438 366.033C455.74 365.831 454.803 364.881 454.624 363.184Z" fill="#33A2C0"/>
<path d="M360.162 353.586C362.287 358.94 367.059 364.496 374.478 370.253C392.32 384.095 406.428 393.496 416.804 398.458C418.596 399.313 422.264 400.619 427.808 402.376L419.973 439.27C416.744 439.258 413.474 438.457 410.162 436.867C405.627 434.67 403.318 433.555 403.235 433.519C383.09 425.209 363.889 415.451 345.632 404.245L360.162 353.586Z" fill="#FCBE33"/>
<path d="M287.21 362.757C298.178 373.037 310.091 382.32 322.947 390.606C324.561 391.638 326.93 392.849 330.052 394.238L326.099 408.875C326.048 409.07 325.953 409.252 325.821 409.405C325.69 409.559 325.525 409.682 325.339 409.764C325.152 409.846 324.95 409.885 324.745 409.879C324.541 409.873 324.34 409.822 324.158 409.73C319.813 407.486 315.623 404.91 311.587 402.002C301.9 394.986 292.391 387.733 283.061 380.242C281.363 378.877 280.182 377.654 279.517 376.574C278.817 375.399 278.864 374.259 279.66 373.155L287.21 362.757Z" fill="#AA2801"/>
<path d="M474.443 391.567C466.383 391.781 458.34 390.297 450.315 387.115C450.458 385.347 450.956 383.976 451.811 383.002C452.262 382.492 452.802 382.379 453.432 382.664L455.212 383.518C455.734 383.768 456.286 383.887 456.868 383.875C460.536 383.839 463.367 385.637 466.573 386.011C470.882 386.528 473.303 385.691 474.443 391.567Z" fill="#FCFFFE"/>
<path d="M450.316 387.115C458.341 390.297 466.383 391.781 474.443 391.567L480.729 418.241C473.191 419.238 465.784 417.368 458.507 412.632C455.503 410.661 452.577 409.124 449.728 408.02C447.449 407.112 447.235 406.079 446.861 403.836L450.316 387.115Z" fill="#FE652A"/>
<path d="M318.87 436.083L279.856 410.246C279.381 409.937 279.037 409.516 278.823 408.981L275.458 400.541C275.125 396.28 278.218 396.927 284.735 402.482C295.834 411.931 307.539 420.544 319.849 428.319C320.324 428.616 320.597 429.049 320.668 429.619C320.917 431.78 320.318 433.934 318.87 436.083Z" fill="#4AC1E5"/>
<path d="M275.457 400.542L278.823 408.982C279.036 409.516 279.381 409.937 279.856 410.246L318.869 436.083L308.524 490.944C297.27 474.004 289.572 459.273 285.429 446.749C281.915 436.124 278.099 425.162 273.979 413.861L275.457 400.542Z" fill="#33A2C0"/>
<path d="M345.632 404.245C363.889 415.451 383.09 425.209 403.235 433.519C403.318 433.554 405.627 434.67 410.162 436.866C413.474 438.457 416.744 439.258 419.973 439.27L415.931 456.845C415.87 457.111 415.752 457.36 415.584 457.574C415.415 457.789 415.202 457.965 414.957 458.089C414.713 458.213 414.444 458.282 414.169 458.291C413.895 458.301 413.621 458.251 413.367 458.145C398.73 452.031 384.171 445.479 369.688 438.487C360.767 434.177 351.775 428.212 342.658 423.209C342.112 422.912 341.898 422.455 342.017 421.838L345.632 404.245Z" fill="#CE7801"/>
<path d="M446.861 403.835C447.235 406.079 447.448 407.112 449.728 408.02C452.577 409.124 455.503 410.661 458.506 412.632C465.783 417.368 473.19 419.238 480.728 418.241L489.739 458.394C489.962 459.401 489.83 460.454 489.366 461.37C488.901 462.287 488.132 463.01 487.192 463.415C482.028 465.647 477.066 467.778 472.306 469.808C463.563 473.529 445.312 468.383 435.75 466.336C435.399 466.261 435.067 466.119 434.772 465.916C434.478 465.713 434.226 465.455 434.032 465.155C433.838 464.855 433.706 464.52 433.643 464.17C433.581 463.819 433.589 463.46 433.666 463.113L446.861 403.835Z" fill="#AA2801"/>
<path d="M273.979 413.861C278.099 425.162 281.915 436.124 285.429 446.749C289.572 459.273 297.27 474.004 308.524 490.944C307.289 498.423 306.245 506.281 305.39 514.52C304.82 519.951 302.95 524.865 301.757 530.171C301.46 531.477 301.057 531.507 300.547 530.26C296.932 521.482 293.121 513.416 289.72 503.836C287.779 498.387 285.269 493.259 283.737 487.792C281.007 478.094 277.95 468.502 274.567 459.017C269.332 444.327 271.309 428.569 273.979 413.861Z" fill="#014D64"/>
<path d="M410.429 484.196C393.193 477.857 376.639 470.259 360.768 461.404C351.734 456.37 343.252 451.005 335.322 445.307L336.658 441.443C336.895 440.73 337.34 440.57 337.993 440.962C361.533 455.207 384.165 468.206 410.234 477.483C410.482 477.57 410.703 477.723 410.872 477.927C411.041 478.131 411.153 478.377 411.195 478.64C411.421 480.183 411.165 482.035 410.429 484.196Z" fill="#4AC1E5"/>
<path d="M335.322 445.306C343.252 451.004 351.734 456.37 360.768 461.403C376.639 470.259 393.193 477.856 410.43 484.195L406.031 502.287C400.749 500.245 392.938 498.067 382.598 495.752C363.178 491.419 344.261 492.92 325.85 500.257L335.322 445.306Z" fill="#33A2C0"/>
<path d="M430.586 495.467C430.149 495.719 429.654 495.852 429.149 495.853C428.645 495.854 428.149 495.723 427.711 495.473C427.273 495.222 426.909 494.861 426.654 494.426C426.399 493.991 426.263 493.496 426.259 492.992C426.235 490.451 426.597 488.018 427.345 485.691C427.574 484.969 428.051 484.349 428.693 483.937C429.336 483.524 430.106 483.345 430.871 483.43C434.289 483.809 437.572 484.623 440.718 485.869C443.282 486.89 443.371 488.089 440.985 489.466L430.586 495.467Z" fill="#AA2801"/>
<path d="M406.031 502.287L404.802 507.789C404.671 508.394 404.327 508.839 403.769 509.124C379.849 521.684 355.686 533.715 331.28 545.218C327.196 547.153 322.946 549.028 318.53 550.845C318.146 550.999 317.718 551.002 317.331 550.854C316.945 550.705 316.629 550.415 316.447 550.043C316.127 549.39 315.972 548.577 315.984 547.604C316.037 544.043 318.637 539.057 319.261 535.157C319.961 530.765 320.626 527.37 321.255 524.972C322.84 518.936 323.463 513.006 324.834 506.916C325.416 504.317 325.754 502.097 325.849 500.257C344.261 492.921 363.177 491.419 382.597 495.752C392.937 498.067 400.748 500.245 406.031 502.287Z" fill="#014D64"/>
<path d="M540.023 556.276C539.809 558.044 538.806 559.172 537.014 559.659C536.565 559.78 536.153 560.007 535.81 560.32C535.466 560.633 535.202 561.023 535.039 561.46C534.876 561.896 534.818 562.365 534.87 562.829C534.922 563.293 535.083 563.738 535.34 564.128C539.702 570.77 545.596 575.684 549.994 582.344C553.271 587.276 565.201 604.157 571.772 595.77C572.14 595.307 572.3 594.785 572.252 594.203L571.861 589.716L589.952 572.212C590.302 571.871 590.731 571.62 591.201 571.481C591.671 571.343 592.168 571.321 592.649 571.417C593.131 571.513 593.582 571.725 593.966 572.034C594.349 572.343 594.651 572.74 594.848 573.192C596.825 577.75 599.336 583.786 602.755 587.437C607.473 592.476 612.566 589.947 617.605 593.117C620.573 594.993 623.487 596.898 626.348 598.833C627.114 599.349 627.671 600.121 627.919 601.009C628.167 601.897 628.09 602.842 627.701 603.676L625.226 609.089C624.977 610.502 623.623 611.113 621.166 610.923C620.573 610.876 620.044 610.656 619.581 610.264C616.127 607.291 612.94 603.712 608.737 606.935C608.274 607.291 607.93 607.742 607.705 608.288C604.482 616.265 596.131 615.749 588.705 614.805C579.891 613.683 581.12 603.053 568.584 607.54C567.456 607.944 567.005 608.733 567.231 609.908C568.192 615.143 574.674 613.469 576.579 618.42C578.2 622.675 575.404 625.418 572.341 628.391C568.139 632.487 557.188 631.81 551.419 632.184C550.837 632.22 550.291 632.101 549.781 631.828C543.566 628.409 540.041 621.126 547.324 617.013C547.665 616.818 547.947 616.534 548.143 616.193C548.338 615.852 548.438 615.465 548.432 615.074C548.427 614.682 548.316 614.3 548.111 613.968C547.907 613.635 547.616 613.365 547.27 613.185C544.706 611.843 542.023 611.077 539.222 610.888C538.563 610.841 537.902 611.01 537.334 611.368C528.306 617.138 510.536 615.214 500.101 614.894C496.872 614.787 493.543 613.268 490.112 610.336C489.613 609.908 489.032 609.718 488.367 609.766C484.723 609.991 481.642 611.362 479.125 613.879C478.859 614.147 478.661 614.475 478.547 614.835C478.432 615.195 478.405 615.577 478.468 615.948C478.531 616.319 478.681 616.67 478.907 616.97C479.133 617.269 479.428 617.51 479.766 617.672C480.847 618.194 482.063 618.8 483.417 619.488C484.794 620.177 485.548 620.996 485.678 621.945C485.809 622.966 485.595 624.201 485.037 625.649C482.96 631.121 479.232 633.537 473.855 632.896C468.762 632.267 463.895 631.923 459.254 631.863C458.546 631.857 457.85 631.679 457.226 631.344C456.603 631.009 456.07 630.527 455.675 629.94L449.976 621.518C449.758 621.201 449.655 620.817 449.684 620.429C449.714 620.042 449.873 619.672 450.137 619.381C452.416 616.853 455.122 614.912 458.256 613.559C458.528 613.441 458.77 613.264 458.965 613.042C459.16 612.819 459.303 612.555 459.385 612.27C459.466 611.984 459.484 611.683 459.437 611.389C459.389 611.095 459.278 610.814 459.111 610.567C457.319 607.991 455.033 606.596 452.256 606.383C450.309 606.24 448.196 607.142 445.917 609.089C438.135 615.731 429.072 622.034 419.919 612.9C417.32 610.3 416.038 607.481 416.073 604.442C416.08 604.057 415.972 603.68 415.764 603.356C415.555 603.033 415.256 602.779 414.903 602.627C414.55 602.474 414.16 602.43 413.782 602.499C413.404 602.569 413.055 602.749 412.779 603.017C409.811 605.866 406.369 607.938 402.451 609.232C401.756 609.463 401.148 609.898 400.706 610.478C397.335 614.882 393.637 618.989 389.613 622.8C388.568 623.797 388.106 623.572 388.224 622.123L388.402 620.165L399.193 609.445C399.413 609.224 399.554 608.935 399.596 608.624C399.638 608.312 399.578 607.994 399.424 607.718L396.718 602.893C396.403 602.342 396.301 601.694 396.432 601.07C396.563 600.447 396.918 599.892 397.43 599.509C400.481 597.218 403.567 595.206 406.689 593.473C411.942 590.535 416.59 592.227 421.077 586.992C424.994 582.433 427.238 577.287 430.532 572.515C430.748 572.198 431.031 571.933 431.361 571.737C431.69 571.541 432.059 571.419 432.44 571.38C432.822 571.341 433.207 571.386 433.569 571.511C433.932 571.636 434.263 571.839 434.538 572.105L453.484 590.214C455.93 595.794 459.871 597.2 465.308 594.435C465.83 594.173 466.228 593.782 466.501 593.259C469.563 587.579 473.908 582.789 476.312 577.234C479.481 569.897 482.491 562.395 485.34 554.727L510.5 526.949C510.661 526.771 510.856 526.629 511.075 526.531C511.293 526.433 511.53 526.381 511.769 526.38C512.009 526.378 512.246 526.426 512.466 526.521C512.686 526.616 512.883 526.755 513.046 526.931L540.023 556.276Z" fill="#FCFFFE"/>
<path d="M485.34 554.726C482.491 562.395 479.481 569.897 476.312 577.233C473.908 582.789 469.563 587.579 466.501 593.259C466.228 593.781 465.83 594.173 465.308 594.434C459.871 597.2 455.93 595.793 453.484 590.214L485.34 554.726Z" fill="#F0D6B1"/>
<path d="M540.023 556.276C548.915 567.209 558.352 577.691 568.335 587.722C568.407 587.793 568.769 588.297 569.421 589.235C570.003 590.042 570.816 590.203 571.861 589.716L572.253 594.203C572.3 594.785 572.14 595.307 571.772 595.77C565.201 604.157 553.271 587.276 549.995 582.344C545.597 575.684 539.703 570.77 535.34 564.128C535.084 563.738 534.923 563.293 534.87 562.829C534.818 562.365 534.876 561.896 535.039 561.46C535.202 561.023 535.467 560.633 535.81 560.32C536.153 560.007 536.566 559.78 537.014 559.659C538.806 559.172 539.81 558.044 540.023 556.276Z" fill="#F0D6B1"/>
<path d="M625.226 609.089C630.853 614.93 636.551 620.841 642.32 626.824C645.49 630.101 649.645 635.704 654.785 643.633C653.978 645.117 652.452 644.185 650.209 640.838C649.188 639.295 648.113 637.781 646.986 636.297C644.707 633.27 642.142 632.611 638.973 630.795C633.168 627.483 629.5 633.359 626.954 637.793C625.298 640.713 624.087 641.372 620.899 641.799C620.433 641.862 619.96 641.752 619.57 641.489C619.179 641.227 618.898 640.83 618.781 640.375C618.306 638.487 617.558 636.677 616.537 634.944C613.243 629.335 606.833 631.952 604.714 637.009C603.129 640.784 601.526 642.903 597.609 643.081C597.296 643.092 596.985 643.037 596.7 642.921C596.414 642.804 596.159 642.628 595.953 642.405L589.703 635.692C589.278 635.237 588.749 634.89 588.163 634.681C587.576 634.472 586.948 634.407 586.33 634.491C585.713 634.574 585.125 634.805 584.615 635.162C584.105 635.52 583.688 635.995 583.399 636.546C581.37 640.41 577.025 646.162 571.95 645.699C566.109 645.165 562.922 636.867 556.316 642.725C550.013 648.316 543.549 648.322 536.925 642.743C536.474 642.363 535.958 642.221 535.376 642.316C529.963 643.224 526.882 647.444 520.828 647.854C514.37 648.293 507.907 648.085 501.437 647.23C500.82 647.159 500.268 646.928 499.781 646.536C498 645.076 496.03 643.954 493.869 643.17C493.288 642.969 492.718 642.992 492.16 643.242C487.904 645.183 479.767 650.667 475.244 647.426C472.626 645.557 467.374 638.345 462.69 639.271C462.097 639.39 461.64 639.704 461.319 640.215C453.752 652.252 446.006 643.135 440.86 635.763C440.616 635.413 440.3 635.119 439.934 634.9C439.568 634.68 439.16 634.541 438.736 634.49C438.312 634.44 437.883 634.48 437.476 634.607C437.068 634.734 436.692 634.946 436.373 635.229L428.894 641.871C426.698 643.817 424.728 643.61 422.983 641.247C421.19 638.802 419.308 636.267 417.338 633.644C412.726 627.554 405.799 635.318 403.36 639.057C403.207 639.293 403.001 639.489 402.758 639.631C402.515 639.773 402.243 639.855 401.963 639.873C401.682 639.89 401.401 639.841 401.143 639.731C400.885 639.62 400.656 639.45 400.475 639.235L393.157 630.475C392.765 630.012 392.261 629.792 391.643 629.816L385.162 630.101C384.592 630.124 384.111 630.35 383.72 630.777C379.891 634.873 376.917 639.467 373.374 643.794C371.795 645.705 371.214 648.02 371.629 650.738C371.724 651.332 371.516 651.789 371.006 652.109C370.495 652.43 369.92 652.566 369.279 652.519C368.139 652.542 367.439 652.222 367.177 651.557C367.011 651.13 367.118 650.518 367.498 649.723C372.781 638.826 379.749 628.973 388.403 620.165L388.225 622.123C388.106 623.572 388.569 623.797 389.613 622.8C393.638 618.989 397.335 614.882 400.707 610.478C401.148 609.898 401.756 609.463 402.452 609.232C406.369 607.938 409.812 605.866 412.779 603.017C413.055 602.749 413.404 602.569 413.782 602.499C414.16 602.43 414.551 602.474 414.903 602.627C415.256 602.779 415.556 603.033 415.764 603.356C415.972 603.68 416.08 604.057 416.074 604.442C416.038 607.481 417.32 610.3 419.92 612.9C429.072 622.034 438.136 615.731 445.917 609.089C448.196 607.142 450.309 606.24 452.256 606.383C455.034 606.596 457.319 607.991 459.111 610.567C459.279 610.814 459.39 611.095 459.437 611.389C459.484 611.683 459.467 611.984 459.385 612.27C459.303 612.555 459.16 612.819 458.965 613.042C458.77 613.265 458.528 613.441 458.257 613.559C455.123 614.912 452.416 616.853 450.137 619.381C449.873 619.672 449.714 620.042 449.685 620.429C449.656 620.817 449.759 621.201 449.977 621.518L455.675 629.94C456.071 630.527 456.603 631.009 457.227 631.344C457.85 631.679 458.546 631.857 459.254 631.863C463.895 631.923 468.762 632.267 473.855 632.896C479.233 633.537 482.96 631.121 485.037 625.649C485.595 624.201 485.809 622.966 485.678 621.945C485.548 620.996 484.794 620.177 483.417 619.488C482.064 618.8 480.847 618.194 479.767 617.672C479.428 617.51 479.133 617.269 478.908 616.97C478.682 616.67 478.531 616.319 478.469 615.948C478.406 615.577 478.433 615.195 478.547 614.835C478.661 614.475 478.86 614.148 479.126 613.879C481.642 611.362 484.723 609.991 488.367 609.766C489.032 609.718 489.614 609.908 490.112 610.336C493.543 613.268 496.873 614.787 500.102 614.894C510.536 615.215 528.307 617.138 537.335 611.368C537.902 611.01 538.563 610.841 539.222 610.888C542.023 611.078 544.706 611.843 547.27 613.185C547.617 613.365 547.907 613.635 548.112 613.968C548.316 614.3 548.427 614.682 548.433 615.074C548.438 615.465 548.338 615.852 548.143 616.193C547.948 616.535 547.665 616.818 547.324 617.013C540.041 621.126 543.567 628.409 549.781 631.828C550.292 632.101 550.838 632.22 551.419 632.184C557.189 631.81 568.14 632.487 572.342 628.391C575.405 625.418 578.2 622.675 576.58 618.42C574.674 613.469 568.193 615.143 567.231 609.908C567.006 608.733 567.457 607.944 568.584 607.54C581.12 603.053 579.892 613.683 588.706 614.805C596.131 615.749 604.482 616.265 607.705 608.288C607.931 607.742 608.275 607.291 608.738 606.935C612.94 603.712 616.127 607.291 619.582 610.264C620.045 610.656 620.573 610.876 621.167 610.923C623.624 611.113 624.977 610.502 625.226 609.089Z" fill="#F0D6B1"/>
<path d="M693.034 628.142C698.892 629.833 706.389 632.344 710.431 637.134C710.689 637.441 710.872 637.804 710.965 638.195C711.058 638.585 711.057 638.991 710.963 639.38C710.869 639.769 710.685 640.13 710.426 640.432C710.166 640.735 709.838 640.972 709.469 641.122C700.78 644.684 691.752 646.921 682.386 647.835C682.067 647.868 681.744 647.814 681.45 647.68C681.156 647.545 680.902 647.335 680.712 647.07L663.778 623.619C662.377 621.672 662.858 620.924 665.22 621.375C674.041 623.073 683.312 625.328 693.034 628.142Z" fill="#8A3500"/>
<path d="M314.667 641.033C318.074 641.354 320.561 640.814 322.128 639.413C322.472 639.105 322.858 638.855 323.285 638.665C324.923 637.941 326.419 636.98 327.772 635.781C328.2 635.401 328.698 635.223 329.268 635.246C333.293 635.46 342.035 629.726 345.953 627.75C346.499 627.477 346.73 627.038 346.647 626.432C346.529 625.637 346.077 625.221 345.294 625.186C349.841 623.726 354.09 622.942 358.043 622.835C361.106 622.752 361.409 623.625 358.951 625.453C357.574 626.486 356.257 628.047 354.998 630.136C352.019 635.11 349.247 639.817 346.683 644.256C344.688 647.735 341.768 648.91 337.922 647.782L314.667 641.033Z" fill="#8A3500"/>
<path d="M345.294 625.186C346.077 625.222 346.528 625.637 346.647 626.432C346.73 627.038 346.499 627.477 345.953 627.75C342.035 629.727 333.292 635.46 329.268 635.247C328.698 635.223 328.2 635.401 327.772 635.781C326.419 636.98 324.923 637.941 323.285 638.665C322.858 638.855 322.472 639.105 322.128 639.413C320.561 640.814 318.074 641.354 314.667 641.034C313.385 639.989 312.958 638.95 313.385 637.917C316.323 630.777 338.314 625.916 345.294 625.186Z" fill="#C06701"/>
<path d="M654.786 643.633L660.234 651.041C660.295 651.124 660.334 651.222 660.346 651.325C660.358 651.428 660.344 651.532 660.304 651.626C660.264 651.72 660.2 651.801 660.119 651.861C660.038 651.92 659.943 651.957 659.842 651.967C653.42 652.714 646.998 653.539 640.576 654.442C624.016 656.792 607.332 656.667 590.701 657.7C583.204 658.145 574.639 657.967 566.591 658.466C553.183 659.32 539.686 659.552 526.42 659.516C496.933 659.445 461.457 658.78 419.992 657.522C416.407 657.415 413.73 657.231 411.961 656.97C411.585 656.923 411.209 656.954 410.857 657.059L409.219 657.575C409.195 657.433 409.171 657.279 409.148 657.113C409.1 656.792 408.922 656.608 408.613 656.561C404.767 655.979 402.173 655.67 400.832 655.635C398.019 655.563 394.659 655.937 390.754 656.756L369.279 652.518C369.92 652.566 370.496 652.429 371.006 652.109C371.517 651.788 371.725 651.331 371.63 650.738C371.214 648.019 371.796 645.705 373.375 643.793C376.918 639.466 379.892 634.872 383.72 630.777C384.112 630.35 384.593 630.124 385.162 630.1L391.644 629.815C392.261 629.792 392.766 630.011 393.158 630.474L400.476 639.235C400.657 639.45 400.885 639.62 401.144 639.73C401.402 639.841 401.683 639.89 401.963 639.872C402.244 639.855 402.516 639.772 402.759 639.631C403.001 639.489 403.208 639.293 403.361 639.057C405.8 635.318 412.727 627.554 417.338 633.644C419.309 636.267 421.191 638.802 422.983 641.247C424.728 643.609 426.699 643.817 428.895 641.87L436.373 635.229C436.693 634.946 437.069 634.734 437.476 634.607C437.884 634.479 438.313 634.44 438.737 634.49C439.16 634.541 439.569 634.68 439.935 634.899C440.301 635.119 440.616 635.413 440.861 635.763C446.007 643.135 453.752 652.251 461.32 640.214C461.64 639.704 462.098 639.389 462.691 639.271C467.374 638.345 472.627 645.556 475.245 647.426C479.767 650.667 487.905 645.182 492.161 643.241C492.719 642.992 493.288 642.968 493.87 643.17C496.03 643.954 498.001 645.075 499.782 646.536C500.268 646.927 500.82 647.159 501.438 647.23C507.907 648.085 514.371 648.292 520.829 647.853C526.883 647.444 529.963 643.224 535.377 642.316C535.958 642.221 536.475 642.363 536.926 642.743C543.55 648.322 550.013 648.316 556.317 642.725C562.923 636.867 566.11 645.164 571.951 645.699C577.025 646.162 581.37 640.41 583.4 636.546C583.689 635.994 584.106 635.52 584.616 635.162C585.126 634.804 585.714 634.574 586.331 634.49C586.948 634.407 587.576 634.472 588.163 634.681C588.75 634.89 589.278 635.237 589.704 635.692L595.953 642.405C596.16 642.628 596.414 642.804 596.7 642.92C596.986 643.037 597.296 643.092 597.61 643.081C601.527 642.903 603.129 640.784 604.714 637.009C606.833 631.952 613.243 629.335 616.538 634.944C617.559 636.677 618.306 638.487 618.781 640.375C618.899 640.83 619.18 641.227 619.57 641.489C619.961 641.752 620.434 641.862 620.9 641.799C624.087 641.372 625.298 640.713 626.954 637.793C629.501 633.359 633.169 627.483 638.974 630.795C642.143 632.611 644.707 633.27 646.986 636.297C648.114 637.781 649.189 639.294 650.209 640.838C652.453 644.185 653.978 645.117 654.786 643.633Z" fill="#D89E67"/>
<path d="M409.218 657.575C404.464 663.345 405.711 674.171 414.667 675.168C430.04 676.878 445.454 677.596 460.91 677.323C461.504 677.311 462.038 677.489 462.513 677.857C463.059 678.284 463.575 678.498 464.062 678.498C492.255 678.533 520.448 678.599 548.642 678.694C550.66 678.694 553.912 678.48 558.4 678.053C562.762 677.625 567.641 677.893 571.505 677.643C586.427 676.682 601.348 675.726 616.27 674.776C628.645 673.975 641.199 672.212 653.681 670.788C665.042 669.506 679.661 666.924 692.819 665.855C693.069 666.105 693.152 666.431 693.069 666.835C693.011 667.104 692.876 667.35 692.68 667.543C692.483 667.737 692.235 667.868 691.965 667.921C685.911 669.072 679.892 670.355 673.909 671.767C667.95 673.168 661.967 674.201 655.96 674.865C648.648 675.673 641.418 676.634 634.272 677.75C618.353 679.412 602.441 680.35 586.534 680.563C568.318 680.795 550.422 684.677 532.171 684.695C510.803 684.718 489.436 684.73 468.068 684.73C464.198 684.73 460.774 684.35 457.794 683.591C453.105 682.392 450.102 681.733 448.784 681.614C437.578 680.629 426.378 680.029 415.184 679.816C408.298 679.317 401.526 678.296 394.867 676.753C391.287 675.934 389.916 673.886 388.029 671.019C387.085 664.93 390.059 661.778 390.753 656.756C394.659 655.937 398.018 655.563 400.832 655.635C402.173 655.67 404.767 655.979 408.613 656.561C408.922 656.608 409.1 656.792 409.147 657.113C409.171 657.279 409.195 657.433 409.218 657.575Z" fill="#FCFFFE"/>
<path d="M690.487 675.916C691.627 674.041 692.446 671.969 692.945 669.702C693.075 669.072 693.431 668.627 694.013 668.366L697.734 666.657C697.86 666.597 697.967 666.503 698.044 666.387C698.12 666.271 698.164 666.135 698.169 665.996C698.175 665.857 698.142 665.719 698.075 665.597C698.008 665.475 697.908 665.373 697.788 665.304C697.277 665.03 696.702 664.983 696.061 665.161L706.032 663.078C709.107 662.437 710.128 663.594 709.095 666.55L708.489 668.348C708.024 669.701 707.208 670.906 706.126 671.841C705.044 672.776 703.734 673.408 702.329 673.673L690.487 675.916Z" fill="#DA8803"/>
<path d="M345.276 667.725L340.824 667.885C340.692 667.892 340.564 667.93 340.45 667.997C340.336 668.064 340.24 668.158 340.171 668.269C340.101 668.381 340.059 668.508 340.049 668.64C340.038 668.772 340.06 668.904 340.112 669.025C340.599 670.141 341.554 670.829 342.979 671.091C348.237 672.088 353.965 673.281 360.162 674.67C357.42 676.759 354.001 677.406 349.905 676.61C349.763 676.582 349.615 676.598 349.482 676.658C349.35 676.718 349.239 676.818 349.166 676.944C349.094 677.069 349.062 677.215 349.077 677.36C349.091 677.504 349.15 677.641 349.246 677.75C349.947 678.534 350.736 678.878 351.615 678.783C354.09 678.498 355.194 678.409 356.903 679.887C345.293 679.673 332.063 675.863 321.237 673.174C320.157 672.901 319.451 672.23 319.118 671.162L317.195 664.894C316.744 663.41 317.296 662.739 318.851 662.882C328.3 663.737 337.109 665.351 345.276 667.725Z" fill="#CE7801"/>
<path d="M696.06 665.161C696.701 664.983 697.276 665.031 697.787 665.304C697.907 665.373 698.006 665.475 698.074 665.597C698.141 665.719 698.173 665.857 698.168 665.996C698.162 666.136 698.119 666.271 698.043 666.387C697.966 666.503 697.859 666.597 697.733 666.657L694.012 668.366C693.43 668.627 693.074 669.073 692.943 669.702C692.445 671.969 691.626 674.041 690.486 675.916C675.897 679.454 661.1 681.875 646.095 683.181C640.848 683.015 635.904 683.751 631.262 685.389L608.346 687.027L614.809 684.801C615.329 684.617 615.767 684.272 616.056 683.822C617.54 681.46 619.694 680.575 622.519 681.169C623.077 681.288 623.576 681.163 624.015 680.795C625.297 679.703 626.567 679.234 627.826 679.388C631.221 679.78 633.369 679.234 634.272 677.75C641.418 676.634 648.647 675.673 655.96 674.866C661.966 674.201 667.949 673.168 673.908 671.767C679.891 670.355 685.91 669.073 691.964 667.921C692.234 667.868 692.483 667.737 692.679 667.544C692.875 667.351 693.01 667.104 693.068 666.835C693.151 666.431 693.068 666.105 692.819 665.856L696.06 665.161Z" fill="#FCBE33"/>
<path d="M345.276 667.725C354.073 669.019 362.869 670.313 371.665 671.607C374.959 672.105 378.236 671.607 381.655 671.945C382.426 672.729 382.557 673.221 382.046 673.423C374.473 676.391 367.178 676.806 360.163 674.669C353.966 673.281 348.238 672.088 342.979 671.09C341.555 670.829 340.599 670.141 340.113 669.025C340.061 668.904 340.039 668.771 340.049 668.64C340.06 668.508 340.101 668.381 340.171 668.269C340.241 668.157 340.337 668.064 340.451 667.997C340.565 667.93 340.693 667.892 340.825 667.885L345.276 667.725Z" fill="#FCFFFE"/>
<path d="M388.029 671.019C389.916 673.886 391.287 675.934 394.866 676.753C401.526 678.296 408.298 679.317 415.183 679.815C413.711 679.566 412.453 679.602 411.408 679.922C411.323 679.95 411.249 680.007 411.202 680.084C411.156 680.161 411.138 680.252 411.153 680.341C411.168 680.43 411.215 680.511 411.285 680.568C411.355 680.625 411.443 680.655 411.533 680.652H415.504C415.931 680.652 416.311 680.789 416.643 681.062C418.21 682.332 419.914 683.305 421.754 683.982C425.778 685.442 430.479 683.501 434.895 684.391C435.168 684.451 435.174 684.528 434.913 684.623C434.462 684.777 434.028 684.932 433.613 685.086C433.15 685.264 432.806 685.543 432.58 685.923C432.093 686.706 432.01 687.46 432.331 688.184C425.042 687.614 417.73 687.217 410.393 686.991C408.53 686.932 405.509 686.445 401.33 685.531C396.789 684.534 392.053 685.228 387.975 684.641C377.565 683.133 367.207 681.548 356.903 679.887C355.194 678.409 354.09 678.498 351.615 678.783C350.736 678.878 349.947 678.533 349.247 677.75C349.151 677.641 349.091 677.504 349.077 677.359C349.062 677.215 349.094 677.069 349.167 676.943C349.239 676.817 349.35 676.718 349.482 676.658C349.615 676.598 349.763 676.581 349.905 676.61C354.001 677.405 357.42 676.759 360.162 674.669C367.178 676.806 374.472 676.391 382.046 673.423C382.556 673.221 382.426 672.728 381.654 671.945C383.352 672.254 385.002 672.521 386.604 672.746C387.696 672.901 388.171 672.325 388.029 671.019Z" fill="#D89E67"/>
<path d="M634.272 677.75C633.37 679.234 631.222 679.78 627.827 679.388C626.568 679.234 625.298 679.703 624.016 680.795C623.577 681.163 623.078 681.287 622.52 681.169C619.695 680.575 617.541 681.46 616.057 683.822C615.768 684.272 615.33 684.616 614.81 684.801L608.347 687.027C549.693 690.553 491.039 689.36 432.331 688.184C432.011 687.46 432.094 686.707 432.58 685.923C432.806 685.543 433.15 685.264 433.613 685.086C434.029 684.932 434.462 684.778 434.913 684.623C435.174 684.528 435.168 684.451 434.895 684.392C430.479 683.501 425.779 685.442 421.754 683.982C419.914 683.306 418.211 682.332 416.644 681.062C416.312 680.789 415.932 680.652 415.504 680.652H411.534C411.443 680.655 411.355 680.625 411.285 680.568C411.216 680.511 411.169 680.431 411.154 680.342C411.139 680.253 411.156 680.161 411.203 680.084C411.25 680.007 411.323 679.95 411.409 679.922C412.454 679.602 413.712 679.566 415.184 679.816C426.378 680.029 437.578 680.629 448.784 681.614C450.102 681.733 453.105 682.392 457.794 683.591C460.774 684.35 464.199 684.73 468.069 684.73C489.436 684.73 510.804 684.718 532.171 684.695C550.423 684.677 568.318 680.795 586.534 680.563C602.441 680.35 618.354 679.412 634.272 677.75Z" fill="#E6B063"/>
<path d="M646.095 683.181C641.026 684.772 636.082 685.508 631.263 685.389C635.904 683.751 640.848 683.015 646.095 683.181Z" fill="#AF4F02"/>
<path d="M358.773 698.494C357.515 699.183 357.806 700.702 359.646 703.053C359.681 703.088 359.919 703.51 360.358 704.317C360.607 704.78 361.017 705.083 361.587 705.225C362.156 705.368 362.661 705.629 363.1 706.009L367.623 709.712C362.477 708.715 358.008 708.484 352.808 706.667C349.805 705.623 346.718 704.911 343.549 704.531C340.201 704.139 337.228 702.341 333.15 703.142C332.871 703.196 332.583 703.165 332.32 703.054C332.057 702.943 331.832 702.757 331.672 702.519C330.711 701.047 329.624 699.907 328.413 699.1L326.953 696.821C324.947 693.663 325.725 692.66 329.286 693.811C331.114 694.393 332.99 694.619 334.913 694.488C335.483 694.452 336.053 694.488 336.622 694.595L358.773 698.494Z" fill="#C06701"/>
<path d="M697.076 698.655C688.873 702.928 679.453 706.086 668.817 708.128C666.271 708.626 662.976 708.59 659.86 709.214C659.92 709.226 659.973 709.237 660.021 709.249C661.92 708.442 663.101 707.166 663.564 705.421C663.707 704.875 663.992 704.418 664.419 704.05C665.06 703.504 665.523 702.786 665.808 701.895C666.864 701.563 667.565 701.112 667.909 700.542C668.301 699.901 668.123 699.569 667.375 699.545L663.457 699.42L697.147 693.295C697.517 693.23 697.902 693.307 698.237 693.512C698.571 693.716 698.834 694.036 698.981 694.417C699.254 695.129 698.619 696.542 697.076 698.655Z" fill="#C06701"/>
<path d="M697.076 698.655C692.969 707.973 688.855 715.541 684.736 721.358C661.784 753.747 626.955 773.886 587.977 781.65C544.689 790.25 497.449 789.681 453.824 783.716C433.614 780.956 411.89 776.451 394.315 767.601C365.344 753.017 342.267 728.374 328.414 699.1C329.625 699.907 330.711 701.047 331.673 702.519C331.832 702.757 332.058 702.943 332.32 703.054C332.583 703.165 332.872 703.196 333.151 703.142C337.228 702.341 340.202 704.139 343.549 704.531C346.719 704.911 349.806 705.623 352.809 706.668C358.008 708.484 362.478 708.715 367.624 709.713C377.346 711.956 386.979 714.965 396.666 716.034C404.596 716.9 412.442 717.571 420.206 718.046C425.488 723.328 430.694 728.504 435.822 733.573C451.812 749.403 467.98 760.211 489.722 766.23C499.764 769.008 509.148 768.954 520.152 769.132C541.283 769.476 561.065 765.761 579.501 757.985C591.805 752.786 603.985 747.515 615.648 740.696C625.032 735.229 633.97 730.119 642.962 723.94C649.218 719.643 654.851 714.734 659.861 709.214C662.977 708.591 666.271 708.626 668.817 708.128C679.454 706.086 688.873 702.928 697.076 698.655Z" fill="#8A3500"/>
<path d="M369.759 700.4C367.492 699.842 366.269 700.441 366.091 702.198C366.055 702.558 366.151 702.918 366.36 703.213C366.57 703.508 366.879 703.716 367.23 703.801L374.068 705.474C379.184 707.469 384.55 708.869 390.165 709.677C390.355 709.7 390.485 709.807 390.557 709.997C390.64 710.211 390.794 710.341 391.02 710.389C394.047 710.947 397.062 711.618 400.065 712.401C400.125 712.425 400.172 712.466 400.208 712.526C400.279 712.68 400.35 712.828 400.421 712.971C400.528 713.173 400.689 713.268 400.902 713.256C407.01 712.739 413.58 713.024 419.278 715.41C420.881 716.075 422.311 716.437 423.57 716.497C441.53 717.316 465.563 717.844 495.667 718.081C495.893 718.081 496.178 718.141 496.522 718.259C496.819 718.366 497.127 718.42 497.448 718.42C507.384 718.455 517.314 718.485 527.238 718.509C529.98 718.509 534.289 717.85 538.064 718.473C541.946 719.126 544.587 719.446 545.988 719.435C560.328 719.363 574.709 719.203 589.133 718.954C583.423 719.452 577.754 719.743 572.127 719.826C569.207 719.862 566.073 720.663 562.886 720.645C545.377 720.55 527.867 720.61 510.358 720.823C480.443 721.18 450.392 720.254 420.204 718.046C412.441 717.571 404.594 716.9 396.664 716.034C386.978 714.965 377.344 711.956 367.622 709.712L363.099 706.009C362.66 705.629 362.156 705.368 361.586 705.225C361.016 705.083 360.606 704.78 360.357 704.317C359.918 703.51 359.681 703.088 359.645 703.053C357.805 700.702 357.514 699.183 358.772 698.494L369.759 700.4Z" fill="#FCBE33"/>
<path d="M663.457 699.42L667.374 699.545C668.122 699.569 668.3 699.901 667.908 700.542C667.564 701.112 666.864 701.563 665.807 701.895C653.325 703.409 641.288 706.561 628.877 707.843C619.119 708.858 608.115 711.386 599.39 711.368C589.917 711.344 583.388 711.653 579.803 712.294C571.451 713.79 563.563 713.327 555.194 713.897C550.974 714.182 546.558 713.576 542.427 714.52C540.326 715.007 538.836 715.238 537.958 715.214C509.61 714.728 481.268 714.229 452.933 713.719C452.125 713.695 448.873 713.523 443.175 713.202C438.492 712.935 433.453 713.665 428.859 712.704C427.292 712.383 425.808 712.241 424.407 712.276C405.586 712.882 390.201 707.665 374.069 705.474L367.231 703.801C366.879 703.716 366.57 703.508 366.361 703.213C366.151 702.918 366.056 702.558 366.091 702.198C366.269 700.441 367.492 699.842 369.76 700.4C390.005 702.554 409.895 704.887 430.247 706.062C473.214 708.555 508.987 708.412 562.869 707.486C566.015 707.439 570.769 707.225 577.132 706.845C593.798 705.848 609.539 705.118 629.108 702.803C639.828 701.557 652.025 700.862 663.457 699.42Z" fill="#FCFFFE"/>
<path d="M665.807 701.895C665.522 702.786 665.059 703.504 664.418 704.05C663.991 704.418 663.706 704.875 663.563 705.421C663.1 707.166 661.919 708.442 660.02 709.249C652.731 710.389 645.502 711.837 638.332 713.594C631.506 715.28 615.106 717.066 589.133 718.954C574.71 719.203 560.328 719.363 545.988 719.435C544.588 719.447 541.946 719.126 538.065 718.473C534.29 717.85 529.98 718.509 527.238 718.509C517.314 718.485 507.384 718.455 497.448 718.42C497.128 718.42 496.819 718.366 496.522 718.259C496.178 718.141 495.893 718.081 495.668 718.081C465.563 717.844 441.531 717.316 423.57 716.497C422.312 716.437 420.881 716.075 419.279 715.41C413.581 713.024 407.01 712.739 400.903 713.256C400.689 713.268 400.529 713.173 400.422 712.971C400.351 712.829 400.279 712.68 400.208 712.526C400.172 712.466 400.125 712.425 400.066 712.401C397.062 711.618 394.047 710.947 391.02 710.389C390.794 710.342 390.64 710.211 390.557 709.997C390.486 709.807 390.355 709.7 390.165 709.677C384.55 708.87 379.185 707.469 374.068 705.474C390.201 707.665 405.586 712.882 424.407 712.276C425.808 712.241 427.291 712.383 428.858 712.704C433.452 713.665 438.492 712.935 443.175 713.202C448.873 713.523 452.125 713.695 452.933 713.719C481.268 714.229 509.61 714.728 537.958 715.215C538.836 715.238 540.326 715.007 542.427 714.52C546.558 713.576 550.974 714.182 555.194 713.897C563.563 713.327 571.451 713.79 579.802 712.294C583.387 711.653 589.916 711.345 599.389 711.368C608.114 711.386 619.119 708.858 628.877 707.843C641.288 706.561 653.325 703.409 665.807 701.895Z" fill="#FFCF53"/>
<path d="M660.02 709.249C659.973 709.238 659.919 709.226 659.86 709.214C654.851 714.734 649.218 719.642 642.962 723.94C633.97 730.118 625.031 735.229 615.647 740.695C603.984 747.515 591.804 752.786 579.5 757.985C561.065 765.761 541.282 769.476 520.152 769.132C509.148 768.954 499.764 769.007 489.721 766.23C467.979 760.211 451.811 749.403 435.821 733.573C430.693 728.504 425.488 723.328 420.205 718.046C450.393 720.254 480.444 721.18 510.358 720.823C527.868 720.61 545.377 720.551 562.887 720.645C566.074 720.663 569.208 719.862 572.128 719.826C577.755 719.743 583.424 719.452 589.133 718.954C615.107 717.066 631.507 715.28 638.332 713.594C645.502 711.837 652.732 710.389 660.02 709.249Z" fill="#CE7801"/>
</svg>
