<svg width="1024" height="1024" viewBox="0 0 1024 1024" fill="none" xmlns="http://www.w3.org/2000/svg">
<rect width="1024" height="1024" fill="white"/>
<path d="M573.45 266.954L556.498 268.615" stroke="#132E44" stroke-width="2"/>
<path d="M556.498 268.615C553.375 267.841 550.213 267.634 547.01 267.994" stroke="#3D4E63" stroke-width="2"/>
<path d="M739.073 500.648C735.564 496.418 732.928 494.57 731.167 495.104" stroke="#616C78" stroke-width="2"/>
<path d="M731.167 495.104C720.98 501.929 714.335 506.172 702.866 505.091" stroke="#3D4E63" stroke-width="2"/>
<path d="M702.866 505.091L694.86 503.25C694.581 503.186 694.291 503.186 694.012 503.249C693.733 503.313 693.472 503.437 693.248 503.614C693.025 503.791 692.845 504.016 692.722 504.272C692.6 504.528 692.537 504.808 692.538 505.091L692.839 588.093C692.839 588.344 692.888 588.593 692.985 588.825C693.082 589.057 693.224 589.268 693.403 589.445C693.581 589.621 693.793 589.761 694.026 589.855C694.259 589.95 694.509 589.997 694.76 589.994L713.254 589.834" stroke="#616C78" stroke-width="2"/>
<path d="M334.152 617.915L334.752 502.469" stroke="#616C78" stroke-width="2"/>
<path d="M702.866 505.091C715.382 507.213 724.816 503.884 731.167 495.104" stroke="#9DB8D1" stroke-width="2"/>
<path d="M567.606 268.875L556.498 268.615" stroke="#4F7A9D" stroke-width="2"/>
<path d="M573.45 266.954L556.497 268.615C553.375 267.841 550.213 267.635 547.01 267.995C541.433 266.634 535.882 265.059 530.358 263.271C528.303 262.604 527.189 262.284 527.015 262.311C521.932 262.991 521.745 264.345 526.455 266.374C546.41 274.96 562.061 287.029 578.714 303.541C592.444 317.138 609.864 335.152 630.973 357.582C638.752 365.854 648.112 374.247 659.054 382.76C694.86 410.621 738.513 425.972 780.264 442.285C782.171 443.032 783.825 444.309 785.03 445.965C786.236 447.621 786.943 449.587 787.069 451.632C787.99 466.943 790.852 485.317 777.062 496.305C765.64 505.418 752.977 506.866 739.073 500.648C735.564 496.418 732.929 494.57 731.167 495.104C720.98 501.929 714.335 506.172 702.866 505.091L694.86 503.25C694.581 503.187 694.291 503.186 694.012 503.25C693.733 503.313 693.472 503.437 693.249 503.614C693.025 503.792 692.846 504.016 692.723 504.272C692.6 504.528 692.537 504.808 692.539 505.091L692.839 588.093C692.839 588.345 692.889 588.593 692.985 588.825C693.082 589.057 693.224 589.268 693.403 589.445C693.581 589.622 693.793 589.761 694.026 589.856C694.259 589.95 694.509 589.997 694.76 589.995L713.254 589.834C717.177 581.201 719.906 575.557 721.44 572.902C728.465 560.753 738.173 561.153 750.962 562.014C751.669 562.067 752.176 561.767 752.483 561.113C755.953 553.841 760.843 548.297 767.154 544.481C783.827 534.413 804.102 556.33 774.96 564.115C774.319 564.289 773.779 564.609 773.339 565.076C770.43 568.132 768.936 571.281 768.855 574.523C768.509 588.333 768.355 601.95 768.395 615.373C768.395 616.454 768.936 617.028 770.016 617.095C788.61 618.256 783.726 638.671 767.955 640.832C767.459 640.902 766.999 641.131 766.645 641.484C766.291 641.838 766.063 642.298 765.993 642.794C763.311 662.769 747.78 679.201 726.684 679.761C716.37 680.055 706.369 680.048 696.682 679.741C696.354 679.731 696.028 679.785 695.722 679.902C695.417 680.019 695.138 680.196 694.903 680.422C694.667 680.648 694.48 680.918 694.353 681.218C694.225 681.517 694.16 681.838 694.16 682.163L694.06 757.719C694.059 758.341 694.264 758.947 694.643 759.446C695.022 759.944 695.555 760.308 696.161 760.481C711.293 764.865 723.942 774.892 728.886 790.244C728.974 790.516 729.143 790.754 729.37 790.923C729.596 791.092 729.868 791.183 730.147 791.184C748.52 791.264 766.881 791.198 785.228 790.984C801.36 790.784 798.277 811.78 786.749 811.78C727.318 811.753 667.887 811.753 608.456 811.78C604.653 811.78 601.898 811.153 600.19 809.898C594.345 805.595 596.707 795.087 602.692 792.185C604.413 791.358 607.515 790.944 611.999 790.944C632.054 790.931 651.982 791.004 671.783 791.164C672.757 791.178 673.244 790.697 673.244 789.723L672.824 680.622C672.819 680.231 672.661 679.857 672.384 679.58C672.108 679.304 671.734 679.146 671.343 679.141C662.836 679.041 653.75 679.982 645.263 679.581C624.928 678.641 604.413 679.161 584.058 679.261C572.889 679.321 571.088 686.546 571.088 696.454C571.061 711.372 571.048 726.289 571.048 741.207C571.048 751.535 560.1 762.923 553.535 770.589C553.108 771.096 552.895 771.683 552.895 772.35L553.075 788.282C553.081 788.637 553.204 788.98 553.425 789.259C553.645 789.537 553.951 789.736 554.296 789.823C568.566 793.466 568.446 811.78 552.094 811.8C534.107 811.813 516.121 811.82 498.134 811.82C490.768 811.82 486.325 813.081 483.063 807.516C481.915 805.555 481.755 803.393 482.582 801.032C485.965 791.224 492.67 790.644 501.897 790.764C502.167 790.767 502.436 790.716 502.687 790.615C502.938 790.514 503.167 790.364 503.36 790.174C503.554 789.985 503.708 789.759 503.814 789.51C503.92 789.261 503.976 788.993 503.978 788.722L504.018 746.691C504.018 746.024 503.678 745.69 502.997 745.69L479.54 745.71C479.365 745.709 479.193 745.756 479.042 745.846C478.892 745.935 478.768 746.064 478.686 746.219C478.604 746.374 478.565 746.548 478.574 746.723C478.584 746.898 478.641 747.067 478.739 747.212C482.762 753.196 489.207 758.94 491.729 764.284C496.593 774.612 493.731 791.364 478.379 786.521C472.555 784.68 474.156 777.534 473.455 772.891C473.162 770.969 472.281 769.121 470.814 767.347C464.235 759.447 459.478 752.882 456.543 747.652C455.082 745.03 455.522 739.566 455.442 736.944C455.068 722.6 454.935 708.256 455.042 693.912C455.122 684.445 451.199 679.141 441.652 679.121C412.67 679.041 383.695 679.261 354.727 679.781C354.087 679.795 353.766 680.122 353.766 680.762L354.467 789.703C354.469 789.885 354.508 790.064 354.58 790.23C354.651 790.397 354.755 790.547 354.885 790.674C355.016 790.8 355.169 790.9 355.338 790.967C355.506 791.034 355.687 791.067 355.868 791.064C384.743 790.811 413.611 790.711 442.472 790.764C456.623 790.784 455.742 811.86 442.973 811.84C374.335 811.706 305.697 811.76 237.059 812C222.909 812.06 223.429 791.424 240.262 791.204C258.836 790.964 277.316 790.891 295.703 790.984C296.271 790.991 296.826 790.819 297.293 790.493C297.759 790.166 298.113 789.701 298.305 789.163C304.056 773.151 315.291 763.243 332.01 759.441C332.396 759.354 332.741 759.141 332.988 758.835C333.236 758.53 333.371 758.15 333.371 757.759L333.131 682.183C333.131 681.769 332.966 681.372 332.674 681.079C332.381 680.786 331.984 680.622 331.57 680.622C304.61 680.762 277.51 684.965 263.439 655.904C261.458 651.841 261.057 647.137 260.337 642.694C260.19 641.84 259.69 641.399 258.836 641.373C239.741 640.672 238.34 618.075 256.974 618.115C282.647 618.169 308.373 618.102 334.152 617.915L334.752 502.469C318.98 508.514 306.057 505.999 295.983 494.924C295.749 494.666 295.424 494.509 295.077 494.487C294.73 494.465 294.387 494.578 294.122 494.804C275.628 510.275 248.648 505.972 238.4 483.475C234.618 475.209 236.279 463.64 236.059 454.354C235.879 446.988 238.541 443.626 244.385 440.063C276.622 420.355 309.2 398.692 342.118 375.075C374.702 351.677 405.305 325.598 438.67 303.261C459.472 289.317 480.667 276.274 502.257 264.132C502.808 263.824 503.265 263.37 503.579 262.82C503.892 262.27 504.051 261.644 504.038 261.01C503.718 248.04 503.565 235.377 503.578 223.021C503.578 216.877 508.221 211.293 514.546 212.073C529.237 213.835 538.944 226.064 553.175 228.666C561.421 230.147 569.847 228.065 577.793 225.683C578.574 225.45 579.399 225.402 580.202 225.543C581.005 225.684 581.764 226.01 582.419 226.496C583.073 226.982 583.606 227.614 583.974 228.341C584.342 229.069 584.535 229.872 584.538 230.687C584.551 237.599 584.545 244.871 584.518 252.503C584.478 260.569 580.635 264.612 573.45 266.954Z" fill="#01020A"/>
<path d="M357.209 233.949C357.209 236.932 356.024 239.793 353.914 241.903C351.805 244.012 348.944 245.197 345.961 245.197C342.977 245.197 340.116 244.012 338.007 241.903C335.897 239.793 334.712 236.932 334.712 233.949C334.712 230.966 335.897 228.105 338.007 225.995C340.116 223.886 342.977 222.701 345.961 222.701C348.944 222.701 351.805 223.886 353.914 225.995C356.024 228.105 357.209 230.966 357.209 233.949Z" fill="#01020A"/>
<path d="M442.212 247.339C442.212 250.259 441.053 253.059 438.988 255.123C436.924 257.188 434.124 258.347 431.204 258.347C428.285 258.347 425.485 257.188 423.42 255.123C421.356 253.059 420.196 250.259 420.196 247.339C420.196 244.42 421.356 241.62 423.42 239.555C425.485 237.491 428.285 236.331 431.204 236.331C434.124 236.331 436.924 237.491 438.988 239.555C441.053 241.62 442.212 244.42 442.212 247.339Z" fill="#01020A"/>
<path d="M289.118 277.942C289.025 274.606 288.838 268.995 288.558 261.11C288.258 252.223 300.066 246.839 304.93 255.525C307.732 260.529 306.952 272.138 306.691 277.742C306.683 277.956 306.719 278.17 306.799 278.369C306.878 278.569 306.999 278.75 307.154 278.9C307.308 279.051 307.493 279.168 307.696 279.245C307.899 279.321 308.116 279.354 308.333 279.343C315.278 278.943 332.591 277.041 329.729 290.111C327.687 299.498 315.238 297.537 308.333 297.517C307.092 297.503 306.505 298.117 306.571 299.358C306.851 304.782 308.313 317.211 303.669 321.154C299.706 324.497 293.962 324.016 291 319.773C288.017 315.47 289.258 305.202 289.418 299.798C289.426 299.475 289.37 299.154 289.252 298.853C289.134 298.552 288.956 298.278 288.731 298.047C288.505 297.816 288.235 297.632 287.938 297.506C287.64 297.381 287.32 297.316 286.997 297.316C281.312 297.276 269.484 298.898 265.541 293.594C262.378 289.311 264.08 284.247 267.842 281.184C271.685 278.062 282.954 279.183 287.897 279.203C288.738 279.203 289.145 278.783 289.118 277.942Z" fill="#01020A"/>
<path d="M701.025 275.26C701.378 275.081 701.673 274.806 701.875 274.465C702.077 274.125 702.178 273.734 702.166 273.339C702.086 268.842 702.239 264.185 702.626 259.368C703.286 251.202 713.654 249.581 718.638 254.665C722.981 259.088 721.22 271.677 721.16 277.622C721.08 285.908 719.338 290.592 711.993 293.754C710.071 294.594 707.43 294.921 704.067 294.735C695.621 294.254 687.154 294.007 678.668 293.994C670.582 293.974 662.456 292.193 664.057 282.345C665.138 275.76 671.603 274.76 677.707 275.06C684.686 275.38 691.671 275.6 698.663 275.72C699.597 275.734 700.384 275.58 701.025 275.26Z" fill="#01020A"/>
<path d="M647.748 268.751C647.594 271.422 646.32 273.919 644.206 275.692C642.092 277.465 639.312 278.369 636.477 278.205C633.642 278.042 630.984 276.824 629.088 274.82C627.192 272.816 626.213 270.189 626.367 267.518C626.521 264.847 627.795 262.351 629.909 260.578C632.023 258.805 634.803 257.901 637.638 258.064C640.473 258.228 643.131 259.445 645.027 261.45C646.923 263.454 647.902 266.08 647.748 268.751Z" fill="#25597D"/>
<path d="M573.45 266.954C571.649 268.048 569.701 268.689 567.606 268.875L556.498 268.615L573.45 266.954Z" fill="#25597D"/>
<path d="M547.01 267.995C550.213 267.634 553.375 267.841 556.498 268.615L567.606 268.875C560.12 270.25 553.255 269.956 547.01 267.995Z" fill="#799ABC"/>
<path d="M390.153 280.184C390.153 281.651 389.865 283.103 389.303 284.458C388.742 285.813 387.919 287.044 386.882 288.081C385.845 289.118 384.614 289.941 383.259 290.502C381.904 291.063 380.452 291.352 378.985 291.352C376.023 291.352 373.182 290.176 371.088 288.081C368.994 285.987 367.817 283.146 367.817 280.184C367.817 277.222 368.994 274.381 371.088 272.287C373.182 270.192 376.023 269.016 378.985 269.016C380.452 269.016 381.904 269.305 383.259 269.866C384.614 270.427 385.845 271.25 386.882 272.287C387.919 273.324 388.742 274.555 389.303 275.91C389.865 277.265 390.153 278.717 390.153 280.184Z" fill="#01020A"/>
<path d="M760.229 326.218C760.229 333.798 757.218 341.068 751.857 346.428C746.497 351.788 739.228 354.799 731.647 354.799C724.067 354.799 716.797 351.788 711.437 346.428C706.077 341.068 703.066 333.798 703.066 326.218C703.066 318.638 706.077 311.368 711.437 306.008C716.797 300.648 724.067 297.637 731.647 297.637C739.228 297.637 746.497 300.648 751.857 306.008C757.218 311.368 760.229 318.638 760.229 326.218Z" fill="#01020A"/>
<path d="M278.51 369.09C278.51 372.063 277.329 374.913 275.227 377.015C273.125 379.117 270.274 380.298 267.302 380.298C264.329 380.298 261.478 379.117 259.376 377.015C257.274 374.913 256.093 372.063 256.093 369.09C256.093 366.117 257.274 363.266 259.376 361.164C261.478 359.062 264.329 357.882 267.302 357.882C270.274 357.882 273.125 359.062 275.227 361.164C277.329 363.266 278.51 366.117 278.51 369.09Z" fill="#01020A"/>
<path d="M761.205 401.107C758.836 399.41 757.262 396.808 756.83 393.871C756.397 390.935 757.142 387.906 758.901 385.45C760.659 382.994 763.286 381.313 766.205 380.776C769.124 380.239 772.095 380.89 774.464 382.587C776.834 384.283 778.408 386.886 778.84 389.822C779.273 392.758 778.528 395.787 776.769 398.243C775.011 400.699 772.383 402.38 769.465 402.917C766.546 403.454 763.575 402.803 761.205 401.107Z" fill="#01020A"/>
<path d="M739.073 500.648C734.99 500.675 734.736 502.036 738.312 504.731C741.295 506.973 747.199 508.194 751.002 509.315C751.331 509.412 751.632 509.589 751.878 509.829C752.124 510.069 752.309 510.365 752.415 510.692C752.521 511.019 752.547 511.366 752.489 511.705C752.431 512.044 752.292 512.364 752.083 512.637C750.161 515.172 747.853 517.254 745.157 518.882C744.597 519.215 744.25 519.709 744.117 520.363C743.837 521.804 743.036 522.871 741.715 523.565C741.088 523.899 740.701 524.412 740.554 525.106C740.394 525.827 740.114 526.314 739.714 526.567C737.645 527.862 735.61 529.209 733.609 530.61C721.84 538.817 708.25 544.08 696.161 552.306C694.813 553.227 694.14 554.502 694.14 556.129L694.099 587.092C694.099 587.795 694.377 588.469 694.872 588.968C695.367 589.466 696.039 589.749 696.741 589.754L713.254 589.834L694.76 589.995C694.509 589.997 694.259 589.95 694.026 589.856C693.793 589.761 693.581 589.622 693.403 589.445C693.224 589.268 693.082 589.057 692.985 588.825C692.888 588.593 692.839 588.345 692.839 588.093L692.538 505.091C692.537 504.808 692.6 504.528 692.722 504.272C692.845 504.016 693.025 503.792 693.248 503.614C693.472 503.437 693.733 503.313 694.012 503.25C694.291 503.186 694.581 503.187 694.86 503.25L702.866 505.091C715.382 507.213 724.816 503.884 731.167 495.104C732.928 494.57 735.564 496.418 739.073 500.648Z" fill="#C0D5E6"/>
<path d="M731.167 495.104C724.816 503.884 715.382 507.213 702.866 505.091C714.335 506.172 720.98 501.929 731.167 495.104Z" fill="#799ABC"/>
<path d="M334.752 502.469L334.152 617.915C331.99 609.122 331.129 600.162 331.57 591.035C331.583 590.515 331.73 590.034 332.01 589.594C332.29 589.18 332.43 588.68 332.43 588.093C332.39 575.944 334.092 563.114 332.57 551.085C332.54 550.852 332.459 550.627 332.333 550.428C332.207 550.229 332.039 550.06 331.841 549.932C331.643 549.804 331.419 549.721 331.186 549.689C330.952 549.657 330.714 549.676 330.489 549.744C327.687 550.585 324.965 550.265 322.183 548.904C311.882 543.793 302.028 537.916 292.621 531.271C287.757 527.808 285.075 522.984 280.552 519.422C277.95 517.367 275.715 515.179 273.847 512.857C273.618 512.574 273.456 512.243 273.374 511.889C273.292 511.534 273.291 511.166 273.372 510.811C273.453 510.457 273.613 510.125 273.841 509.841C274.069 509.558 274.359 509.33 274.687 509.174L293.561 500.328C294.109 500.074 294.716 499.975 295.316 500.042C295.916 500.109 296.486 500.34 296.964 500.708C303.329 505.592 310.434 510.095 318.22 510.355C322.763 510.495 325.946 507.853 331.049 509.174C331.32 509.241 331.606 509.207 331.853 509.078C332.1 508.949 332.291 508.734 332.39 508.474L334.752 502.469Z" fill="#C0D5E6"/>
<path d="M256.574 543.32C265.861 545.041 269.003 550.865 274.147 558.751C280.292 568.178 312.556 551.286 310.174 573.562C309.133 583.249 287.117 580.467 280.632 579.927C280.264 579.898 279.893 579.948 279.545 580.073C279.198 580.199 278.881 580.397 278.616 580.655C278.351 580.912 278.143 581.223 278.008 581.567C277.872 581.911 277.812 582.28 277.83 582.649C278.11 588.36 276.456 593.43 272.866 597.86C272.439 598.381 271.892 598.701 271.225 598.821C265.981 599.728 262.352 598.234 260.337 594.338C255.593 585.111 263.459 573.142 253.972 565.176C249.909 561.733 244.425 562.894 240.722 559.752C236.299 555.969 236.799 549.544 240.902 545.701C244.765 542.099 251.65 542.399 256.574 543.32Z" fill="#01020A"/>
<path d="M388.657 767.728C388.66 769.045 388.403 770.35 387.901 771.567C387.399 772.785 386.662 773.891 385.733 774.824C384.803 775.757 383.699 776.497 382.483 777.003C381.268 777.51 379.964 777.771 378.647 777.773L378.127 777.774C376.81 777.777 375.506 777.52 374.288 777.018C373.071 776.516 371.964 775.779 371.031 774.85C370.099 773.92 369.358 772.816 368.852 771.6C368.346 770.385 368.084 769.081 368.082 767.764L367.952 693.549C367.95 692.233 368.207 690.928 368.709 689.711C369.211 688.493 369.948 687.387 370.877 686.454C371.807 685.521 372.911 684.78 374.126 684.274C375.342 683.768 376.646 683.507 377.962 683.504L378.483 683.503C379.8 683.501 381.104 683.758 382.322 684.26C383.539 684.762 384.646 685.499 385.578 686.428C386.511 687.358 387.252 688.462 387.758 689.677C388.264 690.893 388.525 692.197 388.528 693.513L388.657 767.728Z" fill="#01020A"/>
<path d="M648.365 683.924C655.611 684.845 657.812 691.97 657.873 698.835C658.059 720.985 658.179 743.155 658.233 765.345C658.273 782.517 637.677 780.376 637.858 764.904C638.111 742.341 638.151 719.777 637.978 697.214C637.918 690.289 640.319 682.883 648.365 683.924Z" fill="#01020A"/>
<path d="M414.208 722.114C411.553 721.137 409.42 719.076 408.279 716.384C407.137 713.693 407.081 710.591 408.122 707.761C408.638 706.36 409.407 705.068 410.386 703.959C411.366 702.849 412.536 701.945 413.83 701.296C415.125 700.647 416.517 700.267 417.929 700.178C419.341 700.089 420.745 700.292 422.06 700.776C424.715 701.753 426.848 703.814 427.989 706.505C429.131 709.197 429.187 712.299 428.146 715.128C427.63 716.53 426.861 717.822 425.882 718.931C424.902 720.04 423.732 720.945 422.438 721.594C421.143 722.242 419.751 722.622 418.339 722.712C416.927 722.801 415.523 722.598 414.208 722.114Z" fill="#01020A"/>
<path d="M607.663 722.73C604.919 722.793 602.262 721.703 600.275 719.702C598.289 717.701 597.136 714.952 597.07 712.06C597.038 710.628 597.273 709.204 597.763 707.869C598.253 706.534 598.988 705.314 599.925 704.28C600.863 703.245 601.985 702.416 603.228 701.84C604.47 701.263 605.809 700.951 607.168 700.92C609.911 700.858 612.569 701.947 614.555 703.948C616.542 705.949 617.695 708.698 617.76 711.59C617.793 713.022 617.557 714.447 617.068 715.782C616.578 717.116 615.843 718.336 614.905 719.37C613.968 720.405 612.845 721.234 611.603 721.81C610.36 722.387 609.021 722.7 607.663 722.73Z" fill="#01020A"/>
<path d="M309.039 730.954C307.813 730.13 306.767 729.063 305.962 727.815C305.157 726.566 304.608 725.16 304.346 723.676C304.085 722.193 304.116 720.661 304.438 719.169C304.759 717.677 305.366 716.253 306.222 714.979C307.078 713.705 308.167 712.605 309.427 711.743C310.687 710.882 312.094 710.274 313.566 709.956C315.038 709.638 316.548 709.615 318.008 709.888C319.469 710.162 320.851 710.727 322.077 711.55C323.303 712.374 324.349 713.441 325.154 714.69C325.959 715.939 326.508 717.345 326.77 718.828C327.031 720.312 327 721.843 326.679 723.336C326.357 724.828 325.751 726.252 324.894 727.526C324.038 728.8 322.949 729.899 321.689 730.761C320.429 731.623 319.022 732.23 317.55 732.549C316.078 732.867 314.568 732.89 313.108 732.616C311.648 732.343 310.265 731.778 309.039 730.954Z" fill="#25597D"/>
<path d="M724.45 721.987C724.232 725.031 722.708 727.856 720.214 729.842C717.72 731.827 714.459 732.808 711.15 732.571C709.511 732.454 707.91 732.04 706.438 731.355C704.965 730.67 703.65 729.726 702.568 728.577C701.486 727.428 700.658 726.096 700.13 724.659C699.603 723.221 699.388 721.705 699.496 720.198C699.714 717.153 701.238 714.328 703.732 712.343C706.226 710.358 709.487 709.376 712.796 709.613C714.434 709.73 716.035 710.144 717.508 710.829C718.98 711.514 720.295 712.458 721.378 713.607C722.46 714.756 723.288 716.088 723.815 717.526C724.343 718.963 724.558 720.479 724.45 721.987Z" fill="#25597D"/>
<path d="M427.942 754.248C427.984 756.647 427.071 758.964 425.405 760.69C423.738 762.416 421.454 763.409 419.055 763.451L417.934 763.471C415.535 763.513 413.218 762.6 411.492 760.933C409.766 759.266 408.773 756.982 408.731 754.583L408.405 735.932C408.364 733.533 409.276 731.216 410.943 729.49C412.61 727.764 414.894 726.771 417.293 726.729L418.413 726.709C420.812 726.668 423.13 727.58 424.856 729.247C426.582 730.914 427.575 733.198 427.617 735.597L427.942 754.248Z" fill="#01020A"/>
<path d="M617.674 754.412C617.699 755.615 617.487 756.812 617.05 757.934C616.612 759.055 615.958 760.08 615.125 760.948C614.292 761.817 613.296 762.513 612.194 762.997C611.091 763.481 609.905 763.743 608.701 763.768L607.62 763.791C605.19 763.842 602.838 762.925 601.084 761.243C599.329 759.56 598.314 757.249 598.264 754.818L597.877 736.369C597.852 735.165 598.064 733.968 598.501 732.847C598.939 731.725 599.592 730.701 600.426 729.832C601.259 728.963 602.255 728.267 603.357 727.783C604.46 727.299 605.646 727.037 606.85 727.012L607.931 726.989C610.361 726.938 612.713 727.855 614.467 729.538C616.222 731.221 617.236 733.531 617.287 735.962L617.674 754.412Z" fill="#01020A"/>
<path d="M506.92 292.573C505.813 297.537 504.745 302.387 503.718 307.124C501.496 317.231 500.175 329.04 497.353 340.869C489.907 372.052 480.574 401.067 469.352 427.914C468.685 429.515 468.278 431.023 468.131 432.437C468.103 432.717 468.134 433 468.222 433.268C468.31 433.535 468.453 433.781 468.641 433.99C468.829 434.2 469.059 434.367 469.316 434.482C469.573 434.597 469.851 434.657 470.133 434.659L547.871 435.139" stroke="#BCCDDE" stroke-width="2"/>
<path d="M531.959 295.315C533.614 305.162 535.795 314.749 538.504 324.076C541.226 333.47 543.635 342.944 545.729 352.497C546.97 358.182 548.305 363.853 549.732 369.51C552.374 380.058 556.818 390.466 560.701 400.974C565.204 413.163 570.188 423.21 576.793 433.498C577.154 434.049 577.65 434.499 578.235 434.807C578.819 435.115 579.473 435.271 580.135 435.259C589.262 435.086 598.642 435.232 608.276 435.699C613.46 435.96 618.364 435.219 623.487 434.759" stroke="#F8F2ED" stroke-width="2"/>
<path d="M623.487 434.759L627.17 434.839" stroke="#FFB3B3" stroke-width="2"/>
<path d="M627.17 434.839L661.215 435.459" stroke="#BCCDDE" stroke-width="2"/>
<path d="M661.215 435.459C668.927 436.474 676.64 436.907 684.352 436.76C684.939 436.747 685.453 436.841 685.893 437.041C686.694 437.401 687.128 437.735 687.194 438.041C687.238 438.244 687.232 438.454 687.177 438.657C687.122 438.86 687.02 439.053 686.876 439.221C686.732 439.389 686.551 439.53 686.343 439.634C686.136 439.738 685.908 439.802 685.673 439.823L654.71 442.305" stroke="#D0DEEA" stroke-width="2"/>
<path d="M624.268 383.861C624.588 386.116 625.969 388.351 628.411 390.566" stroke="#BC8092" stroke-width="2"/>
<path d="M628.411 390.566C628.411 397.971 619.905 403.215 623.628 408.399C625.976 411.668 629.432 414.017 633.995 415.444" stroke="#FF7D77" stroke-width="2"/>
<path d="M633.995 415.444L653.209 430.375C653.61 430.683 653.904 431.108 654.051 431.591C654.199 432.074 654.191 432.591 654.03 433.069C653.869 433.548 653.563 433.964 653.154 434.26C652.744 434.556 652.253 434.716 651.748 434.719L627.17 434.839" stroke="#BC8092" stroke-width="2"/>
<path d="M714.816 438.762C710.759 438.949 706.796 438.208 702.927 436.54C702.688 436.447 702.438 436.393 702.186 436.38L661.216 435.459" stroke="#8DABC9" stroke-width="2"/>
<path d="M633.995 415.445L630.293 410.601" stroke="#BC97A1" stroke-width="2"/>
<path d="M630.292 410.601C630.079 405.263 631.52 401.507 634.615 399.332C635.109 398.985 635.169 398.572 634.795 398.091L631.733 394.188" stroke="#4F7A9D" stroke-width="2"/>
<path d="M631.733 394.189L628.41 390.566" stroke="#BC97A1" stroke-width="2"/>
<path d="M535.962 297.637C546.069 313.909 555.496 330.581 565.504 346.913C581.135 372.392 597.288 402.475 615.941 428.994C618.103 432.057 618.163 435.759 623.487 434.759" stroke="#F7A5A1" stroke-width="2"/>
<path d="M631.733 394.188C629.291 394.375 627.15 396.897 625.308 401.754C625.095 402.315 625.095 402.875 625.308 403.435C626.176 405.784 627.837 408.172 630.292 410.601" stroke="#927782" stroke-width="2"/>
<path d="M392.235 462.279C391.755 465.282 390.828 466.756 389.453 466.703C379.392 466.316 369.338 466.609 359.291 467.583C358.61 467.65 358.23 467.35 358.15 466.683L357.89 464.361" stroke="#F8BCB0" stroke-width="2"/>
<path d="M381.427 481.994L369.778 482.474" stroke="#FF7D77" stroke-width="2"/>
<path d="M526.956 476.47C527.356 474.895 528.784 474.168 531.239 474.288C531.893 474.315 532.487 474.508 533.021 474.869C540.586 479.912 552.015 478.031 556.418 469.745C556.578 469.448 556.658 469.115 556.65 468.778C556.642 468.441 556.546 468.112 556.372 467.824C556.199 467.535 555.953 467.296 555.659 467.131C555.365 466.966 555.034 466.881 554.697 466.883L523.353 466.723" stroke="#F8D1A9" stroke-width="2"/>
<path d="M631.213 495.584L632.434 498.146C632.728 498.773 632.708 499.38 632.374 499.967C631.894 500.821 631.567 501.769 631.394 502.81" stroke="#4F7A9D" stroke-width="2"/>
<path d="M503.478 572.522C502.864 571.401 502.063 570.941 501.076 571.141" stroke="#E0EAF3" stroke-width="2"/>
<path d="M501.076 571.14C500.276 565.496 499.275 560.072 499.275 554.328C499.262 538.876 499.268 523.412 499.295 507.933C499.297 507.573 499.22 507.216 499.069 506.888C498.918 506.559 498.697 506.268 498.421 506.034C498.144 505.799 497.82 505.628 497.47 505.531C497.119 505.434 496.752 505.413 496.393 505.471C488.567 506.812 478.66 507.053 471.875 501.629C471.525 501.35 471.119 501.151 470.685 501.045C470.25 500.94 469.797 500.93 469.357 501.018C468.917 501.106 468.501 501.288 468.137 501.552C467.774 501.817 467.471 502.157 467.251 502.549C462.868 510.415 456.904 517.481 452.821 523.585C447.737 531.204 441.959 538.276 435.488 544.801C434.507 545.802 433.546 548.083 432.645 548.984C432.299 549.33 432.049 549.761 431.919 550.233C431.79 550.705 431.785 551.203 431.907 551.678C432.028 552.152 432.27 552.587 432.61 552.939C432.95 553.292 433.376 553.55 433.846 553.687C436.782 554.568 439.717 555.242 442.653 555.709C444.014 555.936 445.895 555.942 448.297 555.729C451.486 555.462 453.381 555.889 453.981 557.01" stroke="#B0C9DE" stroke-width="2"/>
<path d="M453.981 557.01C452.273 559.879 451.325 562.374 451.139 564.495" stroke="#9DB8D1" stroke-width="2"/>
<path d="M451.138 564.496C450.351 567.364 450.505 570.146 451.599 572.842" stroke="#7397B2" stroke-width="2"/>
<path d="M451.599 572.842L423.138 569.699" stroke="#D8DDE0" stroke-width="2"/>
<path d="M423.138 569.699C411.089 570.073 399.848 568.218 389.413 564.135" stroke="#E0EAF3" stroke-width="2"/>
<path d="M423.138 569.699C423.565 570.407 424.066 571.007 424.64 571.501C424.763 571.604 424.858 571.736 424.916 571.886C424.975 572.035 424.995 572.197 424.975 572.356C424.955 572.515 424.896 572.667 424.802 572.797C424.709 572.927 424.584 573.032 424.439 573.102C423.906 573.356 423.245 573.442 422.458 573.362C413.104 572.482 403.757 571.648 394.417 570.86C382.742 569.873 371.073 569.666 359.411 570.24C359.297 570.245 359.185 570.277 359.086 570.334C358.986 570.39 358.902 570.47 358.839 570.566C358.776 570.662 358.737 570.771 358.726 570.885C358.714 570.999 358.729 571.114 358.771 571.221C359.131 572.195 359.865 572.782 360.972 572.982C366.576 573.943 372.181 575.264 377.865 576.144C382.161 576.811 384.156 579.3 383.849 583.61C383.049 595.152 383.082 603.992 383.949 610.13C384.403 613.332 386.398 614.8 389.934 614.533C399.074 613.826 409.575 613.646 421.437 613.992C428.402 614.213 433.426 615.834 437.93 620.657C438.074 620.808 438.258 620.916 438.46 620.968C438.662 621.02 438.875 621.014 439.072 620.951C439.269 620.888 439.444 620.771 439.574 620.612C439.705 620.454 439.787 620.261 439.811 620.057C440.151 617.155 440.591 614.453 442.453 612.091C446.683 606.74 451.686 604.245 457.464 604.605C470.514 605.433 483.357 605.139 495.993 603.725C498.154 603.485 499.228 602.277 499.215 600.102C499.155 592.236 500.216 584.811 498.515 577.085C498.394 576.525 498.069 576.029 497.602 575.696C497.136 575.363 496.562 575.216 495.993 575.284L485.585 576.524C484.891 576.605 484.351 576.932 483.964 577.505C477.826 586.712 469.706 588.787 459.606 583.73C458.765 583.303 458.085 582.803 457.564 582.229C456.27 580.788 456.236 579.847 457.464 579.407" stroke="#F8F2ED" stroke-width="2"/>
<path d="M476.478 554.889C475.85 554.768 475.343 554.762 474.956 554.869C474.102 555.109 473.976 555.549 474.576 556.19C477.298 559.085 478.512 562.474 478.219 566.357C477.919 570.06 477.418 574.983 474.016 576.525C470.44 578.166 466.65 578.199 462.647 576.625C461.153 576.038 459.712 574.81 458.324 572.942C457.083 571.287 455.715 569.7 454.221 568.178C453.887 567.845 453.721 567.438 453.721 566.958V565.657C453.721 564.949 453.4 564.449 452.76 564.155C451.933 563.768 451.392 563.882 451.139 564.496" stroke="#4F7A9D" stroke-width="2"/>
<path d="M501.077 571.141C500.703 572.208 500.129 572.795 499.355 572.902C494.699 573.476 489.048 573.235 482.403 572.181" stroke="#D0DEEA" stroke-width="2"/>
<path d="M482.402 572.181C483.002 565.109 481.028 559.345 476.478 554.888" stroke="#638BA9" stroke-width="2"/>
<path d="M476.478 554.888C467.818 548.283 460.319 548.99 453.981 557.01" stroke="#8DABC9" stroke-width="2"/>
<path d="M482.402 572.181C477.479 582.269 469.166 584.677 457.464 579.407" stroke="#92ACBE" stroke-width="2"/>
<path d="M457.464 579.406L451.599 572.842" stroke="#8B9FAC" stroke-width="2"/>
<path d="M673.204 590.675C672.937 589.354 672.53 588.246 671.983 587.352C671.609 586.752 671.069 586.438 670.362 586.411L640.4 585.511C639.746 585.498 639.112 585.598 638.498 585.811C638.018 585.998 637.551 586.051 637.097 585.971C632.494 585.184 627.837 585.191 623.127 585.991" stroke="#E0EAF3" stroke-width="2"/>
<path d="M623.127 585.992C620.618 582.042 622.119 579 627.63 576.865C630.232 575.851 632.6 575.691 634.735 576.384C635.736 576.705 636.603 576.498 637.337 575.764L638.338 574.763C638.443 574.653 638.516 574.515 638.547 574.366C638.578 574.216 638.567 574.061 638.515 573.918C638.463 573.774 638.372 573.648 638.253 573.554C638.133 573.459 637.989 573.4 637.838 573.382C633.394 572.982 630.212 571.06 628.291 567.618" stroke="#D8DDE0" stroke-width="2"/>
<path d="M628.291 567.618C610.972 571.02 593.405 572.602 575.592 572.361" stroke="#E0EAF3" stroke-width="2"/>
<path d="M575.592 572.361C577.793 564.275 575.512 558.037 568.747 553.647" stroke="#9DB8D1" stroke-width="2"/>
<path d="M568.746 553.647C571.028 553.247 573.636 554.695 576.572 557.991C576.776 558.226 577.033 558.409 577.322 558.523C577.611 558.638 577.924 558.682 578.233 558.651L598.008 556.75C601.197 556.443 601.664 555.155 599.409 552.887C596.954 550.432 594.672 548.317 592.564 546.542C584.918 540.157 580.655 532.952 574.911 525.146C569.547 517.901 566.204 509.775 561.361 502.049C561.105 501.648 560.706 501.36 560.246 501.241C559.785 501.122 559.297 501.182 558.879 501.409C549.725 506.306 540.118 507.14 530.057 503.91C529.03 503.577 527.983 503.637 526.915 504.091" stroke="#B0C9DE" stroke-width="2"/>
<path d="M526.915 504.091C526.061 503.01 524.947 503.016 523.573 504.111" stroke="#E0EAF3" stroke-width="2"/>
<path d="M544.108 572.882C550.019 583.65 558.338 586.425 569.066 581.208C572.923 579.34 575.098 576.391 575.591 572.361" stroke="#BCCDDE" stroke-width="2"/>
<path d="M628.291 567.618C628.891 569.379 628.671 570.707 627.63 571.601C627.043 572.108 625.942 572.341 624.328 572.301C622.286 572.235 619.464 572.441 615.861 572.922C604.226 574.456 592.49 575.611 580.655 576.384C579.895 576.434 579.159 576.665 578.508 577.058C577.856 577.452 577.309 577.997 576.912 578.646C569.667 590.475 549.292 589.574 542.747 577.705C542.292 576.873 541.624 576.177 540.812 575.688C539.999 575.199 539.072 574.935 538.123 574.923L528.596 574.763C528.363 574.761 528.131 574.804 527.914 574.892C527.698 574.98 527.502 575.11 527.337 575.274C527.173 575.439 527.044 575.634 526.958 575.849C526.871 576.064 526.83 576.293 526.835 576.524L527.275 602.684C527.278 602.883 527.32 603.079 527.399 603.262C527.478 603.444 527.593 603.609 527.736 603.747C527.879 603.885 528.049 603.993 528.234 604.064C528.42 604.136 528.618 604.17 528.816 604.165C543.307 603.818 557.891 603.731 572.569 603.905C585.859 604.065 591.383 624.941 580.135 632.426C574.511 636.189 570.007 635.068 564.503 636.209C556.997 637.77 548.931 645.156 543.147 651.32C540.365 654.282 536.422 658.986 534.881 662.609C531.959 669.514 528.957 674.918 527.656 683.484C525.994 694.492 525.634 710.004 528.216 720.892C528.342 721.418 528.642 721.885 529.067 722.22C529.492 722.554 530.017 722.735 530.558 722.733L541.946 722.633C543.127 722.623 544.256 722.147 545.091 721.309C545.926 720.47 546.399 719.336 546.41 718.15C546.503 707.008 546.77 695.68 547.21 684.165C547.53 675.338 553.355 670.374 558.459 664.41C566.424 655.063 580.495 655.543 592.424 655.163C595.486 655.063 597.748 656.824 601.17 656.184C601.479 656.13 601.757 655.964 601.949 655.72C602.141 655.476 602.235 655.17 602.211 654.863C601.864 649.325 599.989 644.936 596.587 641.693C593.385 638.637 591.583 636.703 591.183 635.889C587.52 628.343 589.402 617.875 597.988 614.613C598.628 614.373 599.102 613.946 599.409 613.332C601.01 610.089 600.029 605.886 600.47 603.365C601.811 595.379 603.472 588.473 612.619 586.812C616.488 586.105 619.991 585.831 623.127 585.992" stroke="#F8F2ED" stroke-width="2"/>
<path d="M568.746 553.647C553.041 550.058 544.828 556.47 544.108 572.882" stroke="#8DABC9" stroke-width="2"/>
<path d="M544.108 572.882L528.076 573.122C527.906 573.125 527.738 573.093 527.58 573.03C527.422 572.967 527.278 572.873 527.157 572.754C527.036 572.635 526.94 572.493 526.875 572.336C526.809 572.179 526.775 572.011 526.775 571.841L526.915 504.091" stroke="#D0DEEA" stroke-width="2"/>
<path d="M723.662 619.036C726.143 615.413 724.002 612.051 720.259 611.49" stroke="#92ACBE" stroke-width="2"/>
<path d="M346.942 660.287L336.754 649.419" stroke="#4F7A9D" stroke-width="2"/>
<path d="M336.753 649.419C335.713 645.936 334.445 643.181 332.951 641.152C332.524 640.579 331.957 640.285 331.249 640.272L309.453 639.812" stroke="#8DABBE" stroke-width="2"/>
<path d="M336.754 649.419C323.704 649.672 310.741 649.906 297.865 650.119C295.357 650.159 290.96 649.779 284.675 648.978" stroke="#B7CBDE" stroke-width="2"/>
<path d="M685.693 640.172C686.24 643.521 684.646 646.677 680.91 649.639" stroke="#92ACBE" stroke-width="2"/>
<path d="M680.911 649.639L631.013 650.74" stroke="#BCCDDE" stroke-width="2"/>
<path d="M641.961 658.686L674.065 656.904C675.893 656.811 676.914 655.85 677.127 654.022C677.394 651.674 678.655 650.213 680.91 649.639" stroke="#4F7A9D" stroke-width="2"/>
<path d="M736.471 318.352L727.965 321.174C727.658 321.28 727.39 321.476 727.197 321.737C727.004 321.997 726.895 322.311 726.884 322.635C726.831 324.13 727.018 326.545 727.445 329.881C727.618 331.268 726.771 331.849 724.903 331.622" stroke="#F7B284" stroke-width="2"/>
<path d="M529.637 243.156C527.436 243.009 526.088 241.895 525.594 239.814C525.542 239.587 525.56 239.349 525.645 239.132C525.73 238.915 525.878 238.729 526.07 238.597C526.262 238.466 526.489 238.395 526.722 238.394C526.955 238.393 527.183 238.462 527.376 238.593C533.714 243.023 540.572 246.098 547.951 247.82C548.391 247.926 548.745 248.086 549.012 248.3C549.532 248.727 549.712 249.101 549.552 249.421C549.259 250.004 548.683 250.425 547.941 250.599C547.198 250.774 546.344 250.689 545.549 250.362L531.799 244.677C531.319 244.477 530.898 244.197 530.538 243.837L530.058 243.356C529.938 243.236 529.797 243.169 529.637 243.156Z" fill="#072D47"/>
<path d="M506.921 292.573C505.813 297.537 504.746 302.387 503.718 307.124C501.497 317.231 500.176 329.04 497.354 340.869C489.908 372.052 480.575 401.067 469.353 427.914C468.686 429.515 468.279 431.023 468.132 432.437C468.104 432.717 468.135 433 468.223 433.268C468.311 433.535 468.453 433.781 468.642 433.99C468.83 434.2 469.06 434.367 469.317 434.482C469.574 434.597 469.852 434.658 470.134 434.659L547.871 435.139C550.367 436.18 551.488 438.061 551.234 440.784C551.174 441.391 550.892 441.955 550.443 442.362C549.995 442.77 549.413 442.992 548.812 442.985C489.314 442.745 430.017 442.531 370.92 442.345C349.41 442.278 327.894 442.371 306.372 442.625C299.433 442.718 293.509 442.605 288.598 442.285C284.529 442.018 284.208 440.79 287.638 438.602C314.638 421.329 340.557 404.236 366.416 384.502C384.216 370.905 402.009 357.308 419.796 343.711C446.669 323.163 475.111 304.655 505.12 288.19C505.258 288.113 505.412 288.067 505.57 288.054C505.728 288.041 505.887 288.061 506.036 288.114C506.186 288.167 506.322 288.251 506.437 288.361C506.551 288.471 506.641 288.603 506.701 288.75C507.221 290.031 507.295 291.305 506.921 292.573Z" fill="white"/>
<path d="M531.959 295.315C533.614 305.162 535.795 314.75 538.504 324.076C541.226 333.47 543.635 342.944 545.729 352.498C546.97 358.182 548.305 363.853 549.732 369.51C552.374 380.058 556.818 390.466 560.701 400.974C565.204 413.163 570.188 423.21 576.792 433.498C577.154 434.049 577.65 434.499 578.235 434.807C578.819 435.115 579.473 435.271 580.135 435.259C589.262 435.086 598.642 435.232 608.276 435.699C613.46 435.96 618.363 435.219 623.487 434.759L627.17 434.839L661.215 435.459C668.928 436.473 676.64 436.907 684.353 436.76C684.94 436.747 685.453 436.84 685.894 437.041C686.694 437.401 687.128 437.734 687.195 438.041C687.238 438.244 687.233 438.453 687.178 438.657C687.123 438.86 687.02 439.052 686.876 439.221C686.732 439.389 686.551 439.53 686.344 439.634C686.136 439.737 685.908 439.802 685.674 439.823L654.71 442.304L580.535 442.785C579.99 442.79 579.451 442.664 578.963 442.417C578.475 442.17 578.054 441.808 577.733 441.364C566.125 425.138 557.118 407.318 550.713 387.904C540.305 356.374 532.246 324.543 526.535 292.413C526.295 291.065 526.695 290.838 527.736 291.732L531.959 295.315Z" fill="white"/>
<path d="M506.92 292.573C508.021 298.758 508.581 305.403 509.622 310.967C512.905 328.233 516.461 345.439 520.29 362.585C524.433 381.119 530.198 398.132 537.343 414.584C539.958 420.602 543.467 427.454 547.871 435.139L470.133 434.659C469.851 434.657 469.573 434.597 469.316 434.482C469.059 434.367 468.829 434.2 468.641 433.99C468.453 433.781 468.31 433.535 468.222 433.268C468.134 433 468.103 432.717 468.131 432.437C468.278 431.023 468.685 429.515 469.352 427.914C480.574 401.067 489.907 372.052 497.353 340.869C500.175 329.04 501.496 317.231 503.718 307.124C504.745 302.387 505.813 297.537 506.92 292.573Z" fill="#799ABC"/>
<path d="M531.959 295.315L535.962 297.637C546.07 313.909 555.497 330.581 565.504 346.913C581.136 372.392 597.288 402.475 615.942 428.994C618.103 432.057 618.163 435.759 623.487 434.759C618.364 435.219 613.46 435.96 608.276 435.699C598.642 435.232 589.262 435.086 580.135 435.259C579.473 435.271 578.819 435.115 578.235 434.807C577.65 434.499 577.154 434.049 576.793 433.498C570.188 423.21 565.204 413.163 560.701 400.974C556.818 390.466 552.374 380.058 549.732 369.51C548.305 363.853 546.97 358.182 545.729 352.497C543.635 342.944 541.226 333.47 538.504 324.076C535.795 314.749 533.614 305.162 531.959 295.315Z" fill="#F0E4DA"/>
<path d="M535.962 297.637C564.984 318.112 589.622 346.393 611.438 370.591C616.442 376.142 620.718 380.565 624.268 383.861C624.588 386.116 625.969 388.351 628.411 390.566C628.411 397.971 619.904 403.215 623.627 408.399C625.976 411.668 629.431 414.017 633.995 415.444L653.209 430.375C653.61 430.683 653.904 431.108 654.052 431.591C654.199 432.074 654.191 432.591 654.03 433.069C653.869 433.548 653.563 433.964 653.154 434.26C652.744 434.555 652.253 434.716 651.748 434.719L627.17 434.839L623.487 434.759C618.163 435.759 618.103 432.057 615.941 428.994C597.288 402.475 581.135 372.392 565.504 346.913C555.496 330.581 546.069 313.909 535.962 297.637Z" fill="#FE6667"/>
<path d="M624.268 383.861C638.585 395.389 648.372 403.109 653.63 407.018C672.097 420.788 692.492 431.37 714.815 438.762C710.759 438.949 706.796 438.208 702.926 436.54C702.688 436.447 702.438 436.393 702.186 436.38L661.215 435.459L627.17 434.839L651.748 434.719C652.253 434.716 652.745 434.555 653.154 434.26C653.563 433.964 653.87 433.548 654.031 433.069C654.192 432.591 654.199 432.074 654.052 431.591C653.904 431.108 653.61 430.683 653.209 430.375L633.995 415.444L630.292 410.601C630.079 405.263 631.52 401.507 634.615 399.332C635.109 398.985 635.169 398.572 634.796 398.091L631.733 394.188L628.411 390.566C625.969 388.351 624.588 386.116 624.268 383.861Z" fill="#799ABC"/>
<path d="M628.411 390.566L631.734 394.189C629.292 394.375 627.15 396.897 625.309 401.754C625.095 402.315 625.095 402.875 625.309 403.435C626.176 405.784 627.837 408.172 630.293 410.601L633.995 415.444C629.432 414.017 625.976 411.668 623.628 408.399C619.905 403.215 628.411 397.971 628.411 390.566Z" fill="#FF9486"/>
<path d="M631.733 394.188L634.795 398.091C635.169 398.572 635.109 398.985 634.615 399.332C631.52 401.507 630.079 405.263 630.292 410.601C627.837 408.172 626.176 405.784 625.308 403.435C625.095 402.875 625.095 402.315 625.308 401.754C627.15 396.897 629.291 394.375 631.733 394.188Z" fill="#25597D"/>
<path d="M661.215 435.459L702.186 436.38C702.437 436.393 702.687 436.447 702.926 436.54C706.796 438.208 710.759 438.949 714.815 438.762C716.496 439.242 717.764 439.929 718.618 440.823C719.312 441.544 719.158 441.911 718.157 441.924L654.71 442.305L685.673 439.823C685.908 439.802 686.136 439.738 686.343 439.634C686.551 439.53 686.732 439.389 686.876 439.221C687.02 439.053 687.122 438.86 687.177 438.657C687.232 438.454 687.238 438.244 687.194 438.041C687.128 437.735 686.694 437.401 685.893 437.041C685.453 436.841 684.939 436.747 684.352 436.76C676.64 436.907 668.927 436.474 661.215 435.459Z" fill="#A0BCD5"/>
<path d="M612.519 461.959C612.864 461.959 613.195 462.096 613.439 462.34C613.683 462.584 613.82 462.915 613.82 463.26V465.061C613.82 469.292 612.089 473.349 609.007 476.341C605.926 479.333 601.746 481.013 597.388 481.013H595.947C591.589 481.013 587.409 479.333 584.328 476.341C581.246 473.349 579.515 469.292 579.515 465.061V463.26C579.515 462.915 579.652 462.584 579.896 462.34C580.14 462.096 580.471 461.959 580.816 461.959H612.519Z" fill="#799ABC"/>
<path d="M711.872 481.594C711.792 481.807 711.572 481.974 711.212 482.094C697.682 486.417 690.136 476.31 692.538 463.7C692.649 463.099 692.968 462.554 693.438 462.16C693.909 461.766 694.504 461.546 695.12 461.539L719.678 461.339C719.847 461.335 720.015 461.367 720.171 461.433C720.327 461.498 720.468 461.594 720.584 461.717C720.701 461.839 720.791 461.984 720.849 462.143C720.906 462.302 720.93 462.471 720.919 462.64C720.459 469.765 721.159 478.411 712.393 481.113C712.153 481.193 711.979 481.353 711.872 481.594Z" fill="#799ABC"/>
<path d="M763.391 461.419C763.862 461.426 764.326 461.527 764.758 461.714C765.189 461.901 765.58 462.172 765.907 462.51C766.234 462.849 766.491 463.248 766.664 463.686C766.837 464.123 766.922 464.591 766.914 465.061L766.814 471.126C766.785 472.724 766.443 474.301 765.808 475.766C765.173 477.231 764.256 478.557 763.112 479.666C761.967 480.776 760.615 481.648 759.135 482.233C757.655 482.818 756.075 483.104 754.485 483.075H753.804C752.214 483.046 750.645 482.703 749.186 482.065C747.728 481.427 746.409 480.506 745.305 479.356C744.201 478.205 743.333 476.847 742.752 475.36C742.17 473.872 741.886 472.284 741.915 470.686L742.015 464.621C742.023 464.149 742.124 463.683 742.313 463.25C742.501 462.817 742.774 462.425 743.114 462.098C743.454 461.77 743.856 461.514 744.296 461.342C744.736 461.171 745.206 461.088 745.678 461.098L763.391 461.419Z" fill="#799ABC"/>
<path d="M280.772 461.799C281.531 461.799 282.259 462.1 282.796 462.637C283.333 463.174 283.634 463.902 283.634 464.661L283.614 466.923C283.608 471.232 282.195 475.362 279.688 478.406C277.181 481.45 273.784 483.158 270.244 483.155H269.684C267.93 483.153 266.194 482.731 264.575 481.912C262.956 481.093 261.486 479.894 260.248 478.383C259.01 476.872 258.029 475.078 257.361 473.105C256.693 471.132 256.351 469.017 256.354 466.883L256.374 464.621C256.374 463.862 256.676 463.134 257.212 462.597C257.749 462.06 258.477 461.759 259.236 461.759L280.772 461.799Z" fill="white"/>
<path d="M333.151 461.979C333.509 461.977 333.863 462.044 334.194 462.179C334.526 462.313 334.827 462.511 335.082 462.762C335.336 463.013 335.539 463.312 335.678 463.641C335.817 463.97 335.89 464.324 335.893 464.681L335.913 468.764C335.933 472.543 334.357 476.176 331.53 478.863C328.704 481.551 324.859 483.073 320.842 483.095H319.241C317.251 483.106 315.278 482.748 313.435 482.042C311.593 481.336 309.916 480.295 308.502 478.979C307.088 477.663 305.963 476.098 305.192 474.373C304.421 472.648 304.019 470.796 304.009 468.925L303.989 464.841C303.987 464.484 304.055 464.13 304.189 463.798C304.323 463.467 304.522 463.165 304.772 462.911C305.023 462.656 305.322 462.454 305.651 462.314C305.98 462.175 306.334 462.102 306.691 462.099L333.151 461.979Z" fill="#F0E4DA"/>
<path d="M392.235 462.279C391.755 465.281 390.827 466.756 389.453 466.702C379.392 466.316 369.338 466.609 359.291 467.583C358.61 467.65 358.23 467.35 358.15 466.683L357.89 464.361C357.463 462.813 357.97 462.019 359.411 461.979C367.003 461.779 377.944 461.879 392.235 462.279Z" fill="#F0E4DA"/>
<path d="M641.861 481.273C632.594 477.991 637.138 472.607 635.396 466.262C635.261 465.772 635.24 465.257 635.336 464.757C635.433 464.258 635.643 463.787 635.951 463.382C636.259 462.977 636.657 462.649 637.112 462.423C637.568 462.197 638.07 462.079 638.579 462.079L668.641 461.999C669.158 461.997 669.657 462.192 670.039 462.544C670.421 462.896 670.658 463.38 670.703 463.9C670.97 467.103 670.749 470.292 670.042 473.468C667.6 484.496 655.331 486.838 645.964 483.035C645.511 482.861 645.044 482.781 644.563 482.795C643.789 482.808 643.149 482.488 642.642 481.834C642.433 481.572 642.162 481.378 641.861 481.273Z" fill="#FE6667"/>
<path d="M446.555 462.079C446.899 462.071 447.24 462.131 447.56 462.256C447.88 462.38 448.173 462.567 448.42 462.805C448.667 463.043 448.865 463.328 449.002 463.643C449.139 463.958 449.212 464.297 449.217 464.641L449.237 465.702C449.321 469.783 447.646 473.733 444.579 476.683C441.512 479.633 437.306 481.342 432.885 481.433L430.804 481.473C426.384 481.566 422.111 480.035 418.925 477.216C415.738 474.398 413.899 470.522 413.811 466.442L413.791 465.381C413.783 465.04 413.842 464.7 413.966 464.381C414.089 464.062 414.274 463.771 414.51 463.524C414.746 463.277 415.029 463.078 415.342 462.94C415.654 462.802 415.991 462.727 416.333 462.719L446.555 462.079Z" fill="#799ABC"/>
<path d="M500.576 463C500.912 463.008 501.244 463.082 501.551 463.218C501.859 463.354 502.137 463.549 502.37 463.793C502.602 464.036 502.784 464.323 502.906 464.637C503.027 464.951 503.085 465.286 503.077 465.622L503.057 466.343C502.981 470.333 501.168 474.126 498.019 476.888C494.87 479.651 490.642 481.156 486.265 481.074L484.463 481.034C480.085 480.948 475.918 479.28 472.877 476.397C469.837 473.514 468.173 469.653 468.251 465.662V464.942C468.259 464.605 468.333 464.274 468.469 463.966C468.605 463.658 468.801 463.38 469.044 463.147C469.288 462.915 469.574 462.733 469.888 462.612C470.202 462.49 470.537 462.432 470.873 462.44L500.576 463Z" fill="#799ABC"/>
<path d="M526.955 476.47C527.356 474.895 528.783 474.168 531.238 474.288C531.892 474.315 532.486 474.508 533.02 474.869C540.585 479.912 552.014 478.031 556.417 469.745C556.577 469.448 556.657 469.115 556.649 468.778C556.641 468.441 556.545 468.112 556.372 467.824C556.198 467.535 555.952 467.296 555.658 467.131C555.365 466.966 555.033 466.881 554.696 466.883L523.352 466.723C522.952 465.629 522.899 464.568 523.192 463.54C523.271 463.254 523.443 463.001 523.681 462.82C523.92 462.64 524.212 462.541 524.513 462.54L558.038 462.459C558.612 462.459 558.932 462.746 558.999 463.32C559.479 467.543 559.8 471.566 556.697 474.889C552.548 479.345 547.477 481.667 541.486 481.854C536.322 482.014 531.439 479.032 526.955 476.47Z" fill="#F0E4DA"/>
<path d="M392.235 462.279C392.569 472.1 388.966 478.671 381.427 481.994L369.779 482.474C361.412 479.712 355.888 473.628 357.89 464.361L358.15 466.683C358.23 467.35 358.61 467.65 359.291 467.583C369.338 466.609 379.392 466.316 389.453 466.703C390.828 466.756 391.755 465.282 392.235 462.279Z" fill="#FF9486"/>
<path d="M523.353 466.723L554.696 466.883C555.033 466.881 555.365 466.966 555.659 467.131C555.952 467.296 556.198 467.535 556.372 467.824C556.546 468.112 556.641 468.441 556.649 468.778C556.657 469.115 556.577 469.448 556.417 469.745C552.014 478.031 540.585 479.912 533.02 474.869C532.486 474.508 531.892 474.315 531.239 474.288C528.783 474.168 527.356 474.895 526.955 476.47C523.459 475.096 522.258 471.846 523.353 466.723Z" fill="#FFBE77"/>
<path d="M381.427 481.994C377.277 485.023 373.394 485.183 369.778 482.474L381.427 481.994Z" fill="#FE6667"/>
<path d="M405.204 490.681C415.312 499.387 423.338 500.908 436.488 499.467C440.611 499.027 440.891 499.861 437.328 501.969C427.621 507.734 401.161 505.892 391.314 500.548C390.54 500.121 390.56 499.748 391.374 499.427C396.164 497.546 400.267 494.671 403.683 490.801C403.869 490.584 404.134 490.449 404.419 490.427C404.704 490.404 404.987 490.496 405.204 490.681Z" fill="#799ABC"/>
<path d="M631.213 495.584L632.434 498.146C632.727 498.773 632.707 499.38 632.374 499.967C631.894 500.821 631.567 501.769 631.393 502.81C621.526 505.792 594.025 509.935 585.199 500.188C584.398 499.307 584.585 498.967 585.759 499.167C600.991 501.649 611.859 501.909 624.248 491.241C625.529 490.133 626.71 490.227 627.791 491.521L631.213 495.584Z" fill="#799ABC"/>
<path d="M503.478 572.521C502.864 571.401 502.064 570.94 501.076 571.141C500.276 565.496 499.275 560.072 499.275 554.328C499.262 538.877 499.268 523.412 499.295 507.933C499.297 507.573 499.22 507.216 499.069 506.888C498.918 506.56 498.697 506.268 498.42 506.034C498.144 505.8 497.82 505.628 497.469 505.531C497.119 505.434 496.752 505.413 496.393 505.472C488.567 506.813 478.66 507.053 471.875 501.629C471.525 501.35 471.119 501.151 470.684 501.045C470.25 500.94 469.797 500.93 469.357 501.018C468.917 501.106 468.501 501.288 468.137 501.552C467.774 501.817 467.471 502.157 467.251 502.549C462.868 510.415 456.903 517.481 452.82 523.585C447.737 531.204 441.959 538.276 435.487 544.801C434.507 545.802 433.546 548.083 432.645 548.984C432.299 549.33 432.049 549.761 431.919 550.233C431.79 550.705 431.785 551.203 431.906 551.678C432.028 552.152 432.27 552.587 432.61 552.939C432.95 553.292 433.376 553.55 433.846 553.688C436.782 554.568 439.717 555.242 442.653 555.709C444.014 555.936 445.895 555.943 448.297 555.729C451.486 555.462 453.381 555.889 453.981 557.01C452.273 559.879 451.326 562.374 451.139 564.496C450.352 567.364 450.505 570.146 451.599 572.842L423.138 569.699C411.089 570.073 399.848 568.218 389.413 564.135C412.25 561.373 433.466 548.183 445.395 529.009C450.105 521.43 455.022 513.991 460.146 506.693C462.728 503.01 463.708 498.967 465.149 494.764C465.213 494.579 465.323 494.413 465.469 494.283C465.615 494.153 465.791 494.062 465.982 494.02C466.173 493.978 466.372 493.985 466.559 494.042C466.746 494.099 466.915 494.202 467.051 494.343C476.338 503.81 490.528 503.17 502.037 498.606C502.177 498.551 502.329 498.53 502.478 498.547C502.628 498.563 502.772 498.617 502.896 498.702C503.021 498.787 503.122 498.901 503.193 499.034C503.263 499.168 503.299 499.316 503.298 499.467L503.478 572.521Z" fill="#C0D5E6"/>
<path d="M673.204 590.675C672.937 589.354 672.53 588.246 671.983 587.352C671.61 586.752 671.069 586.438 670.362 586.412L640.4 585.511C639.746 585.498 639.112 585.598 638.498 585.811C638.018 585.998 637.551 586.052 637.097 585.971C632.494 585.184 627.837 585.191 623.127 585.991C620.618 582.042 622.119 579 627.63 576.865C630.232 575.851 632.601 575.691 634.735 576.384C635.736 576.705 636.604 576.498 637.337 575.764L638.338 574.763C638.443 574.653 638.516 574.515 638.547 574.366C638.578 574.216 638.567 574.061 638.515 573.918C638.463 573.774 638.372 573.648 638.253 573.554C638.133 573.459 637.989 573.4 637.838 573.382C633.394 572.982 630.212 571.06 628.291 567.618C610.971 571.02 593.405 572.602 575.591 572.361C577.793 564.275 575.511 558.037 568.746 553.647C571.028 553.247 573.637 554.695 576.572 557.991C576.776 558.226 577.033 558.408 577.322 558.523C577.611 558.638 577.924 558.682 578.233 558.651L598.008 556.75C601.197 556.443 601.664 555.155 599.409 552.887C596.954 550.432 594.672 548.317 592.564 546.542C584.918 540.157 580.655 532.952 574.911 525.146C569.547 517.901 566.205 509.775 561.361 502.049C561.105 501.648 560.706 501.36 560.246 501.241C559.785 501.122 559.297 501.182 558.879 501.408C549.725 506.305 540.118 507.139 530.058 503.91C529.03 503.577 527.983 503.637 526.915 504.091C526.061 503.01 524.947 503.016 523.573 504.11L522.992 498.506C522.974 498.322 523.006 498.136 523.085 497.968C523.164 497.8 523.287 497.657 523.442 497.554C523.596 497.451 523.775 497.392 523.961 497.384C524.146 497.375 524.33 497.417 524.493 497.506C535.241 503.25 550.833 504.05 560.18 494.784C560.727 494.263 561.161 494.343 561.481 495.024C572.369 518.341 593.185 553.667 619.104 560.853C635.156 565.316 656.412 564.916 671.583 557.75C671.772 557.663 671.981 557.623 672.189 557.636C672.397 557.648 672.598 557.712 672.774 557.822C672.949 557.932 673.094 558.084 673.193 558.264C673.293 558.444 673.345 558.646 673.344 558.851L673.204 590.675Z" fill="#C0D5E6"/>
<path d="M631.213 495.584L638.039 498.646C638.706 498.953 638.766 499.347 638.219 499.827C636.564 501.308 634.289 502.303 631.394 502.81C631.567 501.769 631.894 500.821 632.374 499.967C632.708 499.38 632.728 498.773 632.434 498.146L631.213 495.584Z" fill="#25597D"/>
<path d="M358.05 502.229C372.761 520.943 395.858 528.028 420.396 527.208C421.397 527.181 421.51 527.481 420.736 528.108C402.029 543.507 381.26 546.582 358.43 537.335C357.816 537.082 357.416 536.635 357.229 535.994C354.127 525.566 355.107 513.457 355.087 503.25C355.087 500.047 356.075 499.707 358.05 502.229Z" fill="#C0D5E6"/>
<path d="M501.076 571.14C500.703 572.208 500.129 572.795 499.355 572.902C494.698 573.475 489.047 573.235 482.403 572.181C483.003 565.109 481.028 559.345 476.478 554.888C467.818 548.283 460.319 548.991 453.981 557.01C453.381 555.889 451.486 555.462 448.297 555.729C445.895 555.942 444.014 555.936 442.653 555.709C439.717 555.242 436.782 554.568 433.846 553.687C433.376 553.55 432.95 553.292 432.61 552.939C432.27 552.587 432.028 552.152 431.907 551.678C431.785 551.203 431.79 550.705 431.919 550.233C432.049 549.761 432.299 549.33 432.645 548.984C433.546 548.083 434.507 545.802 435.488 544.801C441.959 538.276 447.737 531.204 452.821 523.585C456.904 517.481 462.868 510.415 467.251 502.549C467.471 502.157 467.774 501.817 468.137 501.552C468.501 501.288 468.917 501.106 469.357 501.018C469.797 500.93 470.25 500.94 470.685 501.045C471.119 501.151 471.525 501.35 471.875 501.629C478.66 507.053 488.567 506.812 496.393 505.471C496.752 505.413 497.119 505.434 497.47 505.531C497.82 505.628 498.144 505.799 498.421 506.034C498.697 506.268 498.918 506.559 499.069 506.888C499.22 507.216 499.297 507.573 499.295 507.933C499.268 523.412 499.262 538.876 499.275 554.328C499.275 560.072 500.276 565.496 501.076 571.14Z" fill="#A0BCD5"/>
<path d="M568.746 553.647C553.041 550.058 544.829 556.47 544.108 572.882L528.076 573.122C527.906 573.125 527.738 573.093 527.58 573.03C527.422 572.967 527.278 572.873 527.157 572.754C527.036 572.635 526.94 572.493 526.875 572.336C526.809 572.179 526.775 572.011 526.775 571.841L526.915 504.091C527.983 503.637 529.03 503.577 530.058 503.91C540.118 507.14 549.726 506.306 558.879 501.409C559.297 501.182 559.785 501.122 560.246 501.241C560.706 501.36 561.105 501.648 561.361 502.049C566.205 509.775 569.547 517.901 574.911 525.146C580.655 532.952 584.918 540.157 592.564 546.542C594.672 548.317 596.954 550.432 599.409 552.887C601.664 555.155 601.197 556.443 598.008 556.75L578.234 558.651C577.924 558.682 577.611 558.638 577.322 558.523C577.033 558.409 576.776 558.226 576.572 557.991C573.637 554.695 571.028 553.247 568.746 553.647Z" fill="#A0BCD5"/>
<path d="M670.883 501.429C670.927 501.379 670.985 501.34 671.051 501.316C671.117 501.292 671.189 501.282 671.263 501.288C671.944 501.342 672.27 501.755 672.244 502.529C671.95 512.337 671.83 521.984 671.884 531.471C671.89 532.085 671.743 532.691 671.456 533.233C671.17 533.775 670.752 534.236 670.242 534.573C659.214 541.819 646.264 543.98 633.155 541.378C624.368 539.617 610.798 534.893 604.834 527.608C604.353 527.021 604.493 526.707 605.254 526.667C609.244 526.467 613.186 526.254 617.083 526.027C637.952 524.866 655.885 516.667 670.883 501.429Z" fill="#A0BCD5"/>
<path d="M526.915 504.091L526.775 571.841C526.775 572.011 526.809 572.179 526.875 572.336C526.94 572.493 527.036 572.635 527.157 572.754C527.278 572.873 527.422 572.967 527.58 573.03C527.738 573.093 527.906 573.125 528.076 573.122L544.108 572.882C550.019 583.65 558.339 586.425 569.067 581.208C572.923 579.34 575.098 576.391 575.592 572.361C593.405 572.602 610.971 571.02 628.291 567.618C628.891 569.379 628.671 570.707 627.63 571.601C627.043 572.108 625.942 572.341 624.328 572.301C622.286 572.235 619.464 572.441 615.862 572.922C604.226 574.456 592.491 575.611 580.655 576.384C579.896 576.433 579.159 576.664 578.508 577.058C577.856 577.452 577.309 577.997 576.912 578.646C569.667 590.475 549.292 589.574 542.747 577.705C542.293 576.873 541.625 576.177 540.812 575.688C540 575.199 539.072 574.935 538.124 574.923L528.597 574.763C528.363 574.761 528.131 574.804 527.915 574.892C527.698 574.98 527.502 575.11 527.338 575.274C527.173 575.439 527.044 575.634 526.958 575.849C526.871 576.064 526.83 576.293 526.835 576.524L527.276 602.684C527.278 602.883 527.32 603.079 527.399 603.262C527.478 603.444 527.593 603.609 527.736 603.747C527.88 603.885 528.049 603.993 528.235 604.064C528.42 604.136 528.618 604.17 528.817 604.165C543.308 603.818 557.892 603.731 572.569 603.905C585.859 604.065 591.383 624.941 580.135 632.426C574.511 636.189 570.007 635.068 564.503 636.209C556.998 637.77 548.932 645.156 543.147 651.32C540.365 654.282 536.422 658.986 534.881 662.609C531.959 669.514 528.957 674.918 527.656 683.484C525.995 694.492 525.634 710.004 528.216 720.892C528.342 721.418 528.642 721.885 529.067 722.22C529.492 722.554 530.017 722.735 530.558 722.733L541.947 722.633C543.127 722.623 544.256 722.147 545.091 721.308C545.926 720.47 546.399 719.336 546.41 718.15C546.503 707.008 546.77 695.68 547.21 684.165C547.531 675.338 553.355 670.374 558.459 664.41C566.425 655.063 580.495 655.543 592.424 655.163C595.486 655.063 597.748 656.824 601.171 656.184C601.479 656.13 601.757 655.964 601.949 655.72C602.142 655.476 602.235 655.17 602.211 654.863C601.864 649.325 599.99 644.935 596.587 641.693C593.385 638.637 591.583 636.703 591.183 635.889C587.52 628.343 589.402 617.875 597.988 614.613C598.629 614.373 599.102 613.946 599.409 613.332C601.01 610.089 600.03 605.886 600.47 603.364C601.811 595.379 603.472 588.473 612.619 586.812C616.489 586.105 619.991 585.831 623.127 585.992C627.837 585.191 632.494 585.184 637.097 585.972C637.551 586.052 638.018 585.998 638.498 585.811C639.112 585.598 639.746 585.498 640.4 585.511L670.362 586.412C671.069 586.438 671.61 586.752 671.983 587.353C672.53 588.247 672.937 589.354 673.204 590.675C656.352 590.662 639.806 590.642 623.567 590.615C613.66 590.595 606.354 589.594 605.354 601.083C604.887 606.527 604.787 611.991 605.053 617.475C605.08 618.089 604.793 618.422 604.193 618.476L598.709 619.076C598.387 619.108 598.076 619.206 597.797 619.365C597.517 619.524 597.276 619.739 597.088 619.997C592.858 625.588 592.618 631.265 596.367 637.03C596.834 637.737 597.455 638.257 598.228 638.591L602.572 640.432C602.908 640.576 603.199 640.811 603.41 641.111C603.622 641.411 603.748 641.765 603.773 642.133C604.24 648.245 605.774 654.069 608.376 659.606C608.447 659.748 608.479 659.905 608.469 660.063C608.459 660.221 608.408 660.373 608.321 660.505C608.234 660.637 608.114 660.744 607.972 660.814C607.831 660.885 607.673 660.917 607.515 660.907C598.629 660.52 589.655 660.414 580.595 660.587C574.618 660.707 569.934 661.741 566.545 663.689C560.28 667.272 551.233 676.539 551.153 684.685C551.007 698.669 550.967 712.519 551.033 726.236C551.036 726.376 551.01 726.515 550.958 726.645C550.906 726.775 550.828 726.893 550.729 726.992C550.63 727.091 550.512 727.169 550.382 727.222C550.252 727.274 550.113 727.299 549.973 727.297L525.094 726.616C524.604 726.606 524.136 726.407 523.789 726.06C523.442 725.713 523.243 725.245 523.233 724.755C522.892 707.682 521.571 687.547 526.635 672.396C532.079 656.144 549.572 631.285 569.107 630.425C573.35 630.225 576.192 629.724 577.633 628.924C584.899 624.901 583.177 612.912 575.451 610.109C573.744 609.482 570.788 609.175 566.585 609.189C552.441 609.229 538.344 609.302 524.293 609.409C524.197 609.412 524.101 609.395 524.011 609.36C523.922 609.325 523.84 609.272 523.771 609.205C523.702 609.138 523.647 609.058 523.609 608.969C523.572 608.88 523.553 608.785 523.553 608.688L523.573 504.111C524.947 503.016 526.061 503.01 526.915 504.091Z" fill="white"/>
<path d="M476.478 554.888C475.85 554.768 475.343 554.762 474.956 554.868C474.102 555.108 473.976 555.549 474.576 556.189C477.298 559.085 478.512 562.474 478.219 566.357C477.919 570.06 477.418 574.983 474.016 576.524C470.44 578.165 466.65 578.199 462.647 576.624C461.153 576.037 459.712 574.81 458.324 572.942C457.083 571.287 455.715 569.699 454.221 568.178C453.887 567.845 453.721 567.438 453.721 566.957V565.656C453.721 564.949 453.4 564.449 452.76 564.155C451.933 563.768 451.392 563.882 451.139 564.495C451.325 562.374 452.273 559.879 453.981 557.01C460.319 548.99 467.818 548.283 476.478 554.888Z" fill="#799ABC"/>
<path d="M568.746 553.647C575.511 558.037 577.793 564.275 575.591 572.361C575.098 576.391 572.923 579.34 569.066 581.208C558.338 586.425 550.019 583.65 544.108 572.882C544.828 556.47 553.041 550.058 568.746 553.647Z" fill="#799ABC"/>
<path d="M476.477 554.888C481.027 559.345 483.002 565.109 482.402 572.181C477.478 582.269 469.165 584.677 457.463 579.407L451.599 572.842C450.505 570.146 450.351 567.364 451.138 564.496C451.392 563.882 451.932 563.768 452.76 564.155C453.4 564.449 453.72 564.949 453.72 565.656V566.957C453.72 567.438 453.887 567.845 454.221 568.178C455.715 569.699 457.083 571.287 458.324 572.942C459.712 574.81 461.153 576.037 462.647 576.625C466.65 578.199 470.439 578.166 474.015 576.524C477.418 574.983 477.918 570.06 478.219 566.357C478.512 562.474 477.298 559.085 474.576 556.189C473.975 555.549 474.102 555.109 474.956 554.868C475.343 554.762 475.85 554.768 476.477 554.888Z" fill="#25597D"/>
<path d="M389.413 564.135C399.848 568.218 411.089 570.073 423.138 569.7C423.565 570.407 424.066 571.007 424.639 571.501C424.762 571.604 424.857 571.736 424.916 571.886C424.975 572.035 424.995 572.197 424.975 572.356C424.955 572.515 424.896 572.667 424.802 572.797C424.709 572.928 424.584 573.032 424.439 573.102C423.906 573.356 423.245 573.442 422.458 573.362C413.104 572.482 403.757 571.648 394.417 570.86C382.742 569.873 371.073 569.666 359.411 570.24C359.296 570.245 359.185 570.277 359.085 570.334C358.986 570.39 358.901 570.47 358.839 570.566C358.776 570.662 358.737 570.771 358.725 570.885C358.714 570.999 358.729 571.114 358.77 571.221C359.131 572.195 359.865 572.782 360.972 572.982C366.576 573.943 372.18 575.264 377.865 576.144C382.161 576.812 384.156 579.3 383.849 583.61C383.048 595.152 383.082 603.992 383.949 610.13C384.403 613.332 386.398 614.8 389.934 614.533C399.074 613.826 409.575 613.646 421.437 613.993C428.402 614.213 433.426 615.834 437.929 620.658C438.073 620.808 438.257 620.916 438.46 620.968C438.662 621.02 438.874 621.014 439.072 620.951C439.269 620.888 439.443 620.771 439.574 620.613C439.705 620.454 439.787 620.261 439.811 620.057C440.151 617.155 440.591 614.453 442.453 612.091C446.682 606.74 451.686 604.245 457.464 604.606C470.514 605.433 483.356 605.139 495.993 603.725C498.154 603.485 499.228 602.277 499.215 600.102C499.155 592.236 500.216 584.811 498.514 577.085C498.394 576.525 498.069 576.029 497.602 575.696C497.136 575.363 496.562 575.216 495.993 575.284L485.585 576.525C484.891 576.605 484.351 576.932 483.964 577.505C477.826 586.712 469.706 588.787 459.605 583.73C458.765 583.303 458.084 582.803 457.564 582.229C456.27 580.788 456.236 579.847 457.464 579.407C469.166 584.677 477.479 582.269 482.402 572.181C489.047 573.235 494.698 573.476 499.355 572.902C500.129 572.795 500.703 572.208 501.076 571.141C502.064 570.941 502.864 571.401 503.478 572.522L503.498 608.428C503.498 609.095 503.165 609.436 502.497 609.449C488.327 609.703 474.15 609.669 459.966 609.349C451.94 609.169 446.956 611.411 443.714 618.496C443.447 619.083 443.42 619.677 443.634 620.277C447.296 630.585 455.342 630.805 465.51 631.546C468.445 631.772 472.202 634.027 476.778 638.311C488 648.839 495.973 661.254 500.696 675.558C505.54 690.189 503.618 710.024 503.438 725.756C503.438 726.41 503.111 726.737 502.457 726.737H477.038C476.522 726.737 476.026 726.533 475.658 726.169C475.291 725.806 475.082 725.312 475.077 724.795C475.037 714.801 475.024 704.814 475.037 694.833C475.05 686.8 474.19 680.842 472.455 676.959C469.693 670.715 465.25 666.185 459.125 663.369C448.777 658.606 430.144 660.607 417.474 660.547C417.369 660.546 417.265 660.52 417.171 660.472C417.078 660.424 416.997 660.355 416.937 660.27C416.876 660.186 416.837 660.089 416.822 659.988C416.808 659.886 416.819 659.783 416.854 659.687L423.499 640.552C423.739 639.858 424.226 639.472 424.96 639.391C435.447 638.191 438.47 629.844 433.466 621.098C433.119 620.511 432.632 620.09 432.005 619.837C429.983 619.016 427.862 618.216 425.62 618.196C402.256 618.049 379.072 618.049 356.068 618.196C355.001 618.196 354.467 617.662 354.467 616.594L354.027 560.112C354.027 559.419 354.36 559.172 355.028 559.372C366.61 562.908 378.071 564.496 389.413 564.135Z" fill="white"/>
<path d="M628.291 567.618C630.212 571.06 633.394 572.982 637.838 573.382C637.989 573.4 638.133 573.459 638.253 573.554C638.372 573.648 638.463 573.774 638.515 573.918C638.567 574.061 638.578 574.216 638.547 574.366C638.516 574.515 638.443 574.653 638.338 574.763L637.337 575.764C636.603 576.498 635.736 576.705 634.735 576.384C632.6 575.691 630.232 575.851 627.63 576.865C622.119 579 620.618 582.042 623.127 585.992C619.991 585.831 616.488 586.105 612.619 586.812C603.472 588.473 601.811 595.379 600.47 603.365C600.029 605.886 601.01 610.089 599.409 613.332C599.102 613.946 598.628 614.373 597.988 614.613C589.402 617.875 587.52 628.343 591.183 635.889C591.583 636.703 593.385 638.637 596.587 641.693C599.989 644.936 601.864 649.325 602.211 654.863C602.235 655.17 602.141 655.476 601.949 655.72C601.757 655.964 601.479 656.13 601.17 656.184C597.748 656.824 595.486 655.063 592.424 655.163C580.495 655.543 566.424 655.063 558.459 664.41C553.355 670.374 547.53 675.338 547.21 684.165C546.77 695.68 546.503 707.008 546.41 718.15C546.399 719.336 545.926 720.47 545.091 721.309C544.256 722.147 543.127 722.623 541.946 722.633L530.558 722.733C530.017 722.735 529.492 722.554 529.067 722.22C528.642 721.885 528.342 721.418 528.216 720.892C525.634 710.004 525.994 694.492 527.656 683.484C528.957 674.918 531.959 669.514 534.881 662.609C536.422 658.986 540.365 654.282 543.147 651.32C548.931 645.156 556.997 637.77 564.503 636.209C570.007 635.068 574.511 636.189 580.135 632.426C591.383 624.941 585.859 604.065 572.569 603.905C557.891 603.731 543.307 603.818 528.816 604.165C528.618 604.17 528.42 604.136 528.234 604.064C528.049 603.993 527.879 603.885 527.736 603.747C527.593 603.609 527.478 603.444 527.399 603.262C527.32 603.079 527.278 602.883 527.275 602.684L526.835 576.524C526.83 576.293 526.871 576.064 526.958 575.849C527.044 575.634 527.173 575.439 527.337 575.274C527.502 575.11 527.698 574.98 527.914 574.892C528.131 574.804 528.363 574.761 528.596 574.763L538.123 574.923C539.072 574.935 539.999 575.199 540.812 575.688C541.624 576.177 542.292 576.873 542.747 577.705C549.292 589.574 569.667 590.475 576.912 578.646C577.309 577.997 577.856 577.452 578.508 577.058C579.159 576.665 579.895 576.434 580.655 576.384C592.49 575.611 604.226 574.456 615.861 572.922C619.464 572.441 622.286 572.235 624.328 572.301C625.942 572.341 627.043 572.108 627.63 571.601C628.671 570.707 628.891 569.379 628.291 567.618Z" fill="#F0E4DA"/>
<path d="M423.138 569.699L451.599 572.842L457.463 579.407C456.236 579.847 456.269 580.788 457.563 582.229C458.084 582.803 458.764 583.303 459.605 583.73C469.706 588.787 477.825 586.712 483.963 577.505C484.35 576.932 484.89 576.605 485.584 576.524L495.992 575.284C496.561 575.216 497.135 575.363 497.602 575.696C498.068 576.029 498.393 576.525 498.514 577.085C500.215 584.811 499.154 592.236 499.214 600.102C499.228 602.277 498.154 603.485 495.992 603.725C483.356 605.139 470.513 605.433 457.463 604.605C451.686 604.245 446.682 606.74 442.452 612.091C440.591 614.453 440.15 617.155 439.81 620.057C439.787 620.261 439.705 620.454 439.574 620.612C439.443 620.771 439.269 620.888 439.071 620.951C438.874 621.014 438.662 621.02 438.459 620.968C438.257 620.916 438.073 620.808 437.929 620.657C433.425 615.834 428.402 614.213 421.436 613.992C409.574 613.646 399.073 613.826 389.933 614.533C386.397 614.8 384.402 613.332 383.949 610.13C383.081 603.992 383.048 595.152 383.848 583.61C384.155 579.3 382.161 576.811 377.864 576.144C372.18 575.264 366.576 573.943 360.971 572.982C359.864 572.782 359.13 572.195 358.77 571.221C358.728 571.114 358.713 570.999 358.725 570.885C358.737 570.771 358.776 570.662 358.838 570.566C358.901 570.47 358.985 570.39 359.085 570.334C359.184 570.277 359.296 570.245 359.41 570.24C371.072 569.666 382.741 569.873 394.416 570.86C403.757 571.648 413.104 572.482 422.457 573.362C423.244 573.442 423.905 573.356 424.439 573.102C424.583 573.032 424.708 572.927 424.802 572.797C424.895 572.667 424.955 572.515 424.975 572.356C424.994 572.197 424.974 572.035 424.916 571.886C424.857 571.736 424.762 571.604 424.639 571.501C424.065 571.007 423.565 570.407 423.138 569.699Z" fill="#F0E4DA"/>
<path d="M736.371 589.274C738.473 585.051 741.535 578.686 747.219 581.608C747.819 581.915 748.153 582.402 748.22 583.069C748.433 585.044 748.273 586.992 747.739 588.914C747.665 589.173 747.51 589.402 747.297 589.565C747.084 589.727 746.824 589.815 746.558 589.814L736.751 589.894C736.284 589.894 736.157 589.688 736.371 589.274Z" fill="white"/>
<path d="M723.662 619.036C726.143 615.413 724.002 612.051 720.259 611.49L745.318 612.271C745.602 612.279 745.881 612.348 746.137 612.471C746.392 612.595 746.619 612.771 746.803 612.988C746.986 613.205 747.121 613.459 747.2 613.732C747.278 614.005 747.299 614.291 747.259 614.572L747.059 615.933C746.859 617.375 746.032 618.122 744.577 618.175L723.662 619.036Z" fill="#25597D"/>
<path d="M720.26 611.49C724.002 612.051 726.144 615.413 723.662 619.036L627.671 620.017C625.869 620.03 625.049 619.136 625.209 617.335L625.489 614.432C625.663 612.524 626.703 611.57 628.611 611.57L720.26 611.49Z" fill="white"/>
<path d="M497.633 628.563L502.497 628.323C502.671 628.314 502.845 628.342 503.007 628.406C503.17 628.469 503.316 628.567 503.438 628.692C503.559 628.817 503.652 628.967 503.711 629.131C503.77 629.295 503.792 629.47 503.778 629.644L503.258 635.428C503.236 635.673 503.141 635.905 502.986 636.095C502.83 636.285 502.621 636.423 502.385 636.493C502.15 636.562 501.899 636.558 501.665 636.483C501.432 636.407 501.226 636.263 501.076 636.068L496.753 630.544C496.613 630.37 496.524 630.16 496.495 629.938C496.467 629.716 496.499 629.49 496.59 629.286C496.681 629.081 496.827 628.906 497.011 628.778C497.194 628.651 497.41 628.576 497.633 628.563Z" fill="white"/>
<path d="M524.594 628.904C525.862 628.09 527.396 628.156 529.197 629.104C529.351 629.185 529.485 629.3 529.589 629.44C529.692 629.58 529.763 629.741 529.796 629.913C529.828 630.084 529.822 630.26 529.778 630.428C529.733 630.596 529.651 630.753 529.538 630.885L525.335 635.749C524.601 636.603 524.034 636.502 523.633 635.448C523.153 634.234 522.953 633.02 523.033 631.806C523.113 630.498 523.633 629.531 524.594 628.904Z" fill="white"/>
<path d="M346.941 660.287L336.753 649.419C335.713 645.936 334.445 643.181 332.951 641.152C332.524 640.579 331.957 640.285 331.249 640.272L309.453 639.811C320.261 638.951 328.627 638.33 334.732 640.232C336.213 640.699 337.681 640.919 339.135 640.892C359.564 640.505 379.719 640.685 399.6 641.433C399.879 641.444 400.15 641.523 400.391 641.664C400.631 641.805 400.833 642.002 400.98 642.239C401.126 642.477 401.212 642.746 401.229 643.024C401.247 643.302 401.196 643.58 401.081 643.834C398.519 649.452 394.743 653.702 389.753 656.584C382.127 660.967 365.795 659.406 356.908 659.186C353.292 659.106 349.97 659.473 346.941 660.287Z" fill="#25597D"/>
<path d="M309.453 639.812L331.249 640.272C331.957 640.285 332.524 640.579 332.951 641.153C334.445 643.181 335.713 645.936 336.753 649.419C323.704 649.672 310.741 649.906 297.865 650.119C295.356 650.159 290.959 649.779 284.675 648.978C282.9 647.697 281.899 645.423 281.672 642.153C281.653 641.848 281.696 641.542 281.798 641.255C281.9 640.967 282.06 640.704 282.267 640.483C282.473 640.261 282.723 640.085 282.999 639.966C283.276 639.847 283.574 639.788 283.874 639.792L309.453 639.812Z" fill="#F5FCFF"/>
<path d="M685.694 640.172C686.241 643.521 684.646 646.677 680.91 649.639L631.013 650.74C627.998 649.152 626.076 646.016 625.249 641.333C625.216 641.147 625.225 640.956 625.273 640.774C625.322 640.592 625.41 640.423 625.53 640.28C625.651 640.136 625.801 640.022 625.97 639.944C626.14 639.867 626.324 639.828 626.51 639.832L685.694 640.172Z" fill="white"/>
<path d="M685.694 640.172C703.08 641.186 721.213 641.213 740.094 640.252C740.461 640.236 740.826 640.309 741.159 640.466C741.491 640.623 741.78 640.859 742.001 641.152C742.221 641.446 742.367 641.789 742.426 642.152C742.484 642.515 742.453 642.886 742.336 643.234C736.531 660.167 724.442 659.546 707.17 659.827C685.207 660.187 663.47 659.806 641.961 658.686L674.065 656.904C675.893 656.811 676.914 655.85 677.127 654.022C677.394 651.674 678.655 650.213 680.91 649.639C684.646 646.677 686.241 643.521 685.694 640.172Z" fill="#25597D"/>
<path d="M336.754 649.419L346.942 660.287C331.263 659.806 315.732 659.479 300.347 659.306C294.729 659.253 289.506 655.81 284.675 648.978C290.96 649.779 295.357 650.159 297.865 650.119C310.741 649.906 323.704 649.672 336.754 649.419Z" fill="#799ABC"/>
<path d="M680.91 649.639C678.655 650.213 677.394 651.674 677.127 654.022C676.913 655.85 675.893 656.811 674.065 656.904L641.961 658.686C636.557 656.311 632.907 653.662 631.013 650.74L680.91 649.639Z" fill="#799ABC"/>
<path d="M672.864 719.531L673.004 701.177C673.004 699.696 673.211 699.563 673.625 700.777C674.866 704.399 673.925 714.887 673.845 719.13C673.845 719.424 673.698 719.571 673.404 719.571H672.904C672.877 719.571 672.864 719.557 672.864 719.531Z" fill="#072D47"/>
<path d="M532.78 782.218L539.405 789.083C539.539 789.222 539.629 789.398 539.664 789.589C539.698 789.779 539.675 789.976 539.598 790.154C539.521 790.331 539.393 790.482 539.231 790.587C539.068 790.692 538.878 790.747 538.684 790.744L526.495 790.684C525.704 790.684 524.946 790.37 524.386 789.81C523.827 789.251 523.513 788.493 523.513 787.702V746.711C523.513 746.017 523.853 745.67 524.534 745.67L547.01 745.69C547.958 745.69 548.165 746.084 547.631 746.871C544.015 752.115 540.352 757.232 536.643 762.223C531.779 768.748 530.838 773.912 532.42 781.537C532.472 781.786 532.596 782.021 532.78 782.218Z" fill="#F5FCFF"/>
<path d="M324.405 784.82L331.45 780.696C331.691 780.555 331.966 780.48 332.246 780.479C332.526 780.478 332.801 780.552 333.044 780.692C333.286 780.833 333.487 781.035 333.625 781.278C333.763 781.522 333.835 781.797 333.832 782.077V789.623C333.832 790.043 333.665 790.445 333.368 790.741C333.072 791.038 332.67 791.204 332.25 791.204L322.363 791.244C322.064 791.244 321.771 791.158 321.519 790.998C321.267 790.838 321.065 790.609 320.937 790.339C320.809 790.069 320.761 789.768 320.797 789.471C320.833 789.174 320.953 788.894 321.142 788.662L323.984 785.18C324.102 785.036 324.244 784.914 324.405 784.82Z" fill="white"/>
<path d="M702.246 791.805C700.018 792.045 697.796 791.965 695.581 791.564C694.58 791.378 694.08 790.771 694.08 789.743L694.12 781.197C694.122 781.032 694.169 780.871 694.254 780.731C694.34 780.59 694.461 780.475 694.606 780.397C694.751 780.32 694.915 780.282 695.079 780.289C695.243 780.296 695.403 780.347 695.541 780.436C698.623 782.518 701.386 784.946 703.827 787.722C705.922 790.097 705.395 791.458 702.246 791.805Z" fill="white"/>
<path d="M736.471 318.352L727.965 321.174C727.658 321.28 727.39 321.476 727.197 321.737C727.004 321.998 726.895 322.311 726.884 322.635C726.831 324.13 727.017 326.545 727.444 329.881C727.618 331.269 726.77 331.849 724.902 331.622C719.999 322.695 726.924 312.708 736.471 318.352Z" fill="#F0E4DA"/>
<path d="M736.471 318.352C742.796 323.276 743.09 328.193 737.352 333.103C733.429 336.439 729.279 335.945 724.903 331.622C726.771 331.849 727.618 331.268 727.445 329.881C727.018 326.545 726.831 324.13 726.884 322.635C726.895 322.311 727.004 321.997 727.197 321.737C727.39 321.476 727.658 321.28 727.965 321.174L736.471 318.352Z" fill="#FE7F2D"/>
<path d="M718.024 721.17C717.971 722.004 717.739 722.819 717.34 723.568C716.941 724.316 716.384 724.984 715.699 725.533C715.015 726.083 714.217 726.502 713.351 726.768C712.485 727.034 711.568 727.142 710.653 727.084C708.804 726.968 707.073 726.187 705.84 724.913C704.608 723.64 703.975 721.978 704.081 720.293C704.134 719.459 704.366 718.644 704.765 717.896C705.163 717.147 705.721 716.479 706.406 715.93C707.09 715.381 707.888 714.961 708.754 714.695C709.62 714.429 710.537 714.322 711.452 714.38C713.301 714.496 715.032 715.277 716.265 716.55C717.497 717.824 718.13 719.486 718.024 721.17Z" fill="#799ABC"/>
<path d="M464.589 349.015C464.469 348.001 463.768 347.928 462.487 348.795C462.007 349.129 461.6 349.616 461.266 350.256C458.044 356.461 453.38 362.665 450.278 367.889C441.672 382.353 432.298 396.317 422.157 409.78C420.943 411.395 419.455 413.757 417.694 416.866C415.312 421.089 411.95 423.991 409.248 427.494C406.986 430.456 404.904 432.457 401.422 432.237C389.733 431.503 379.279 431.937 370.058 433.538C369.845 433.578 369.745 433.712 369.758 433.938C369.772 434.152 369.892 434.265 370.119 434.279L381.427 434.879" stroke="#FF7D77" stroke-width="2"/>
<path d="M464.589 349.015C464.469 348.001 463.769 347.927 462.488 348.795C462.007 349.128 461.601 349.615 461.267 350.256C458.045 356.46 453.381 362.665 450.279 367.889C441.672 382.353 432.299 396.317 422.158 409.78C420.944 411.395 419.456 413.756 417.694 416.865C415.313 421.089 411.95 423.991 409.248 427.493C406.986 430.455 404.905 432.457 401.422 432.237C389.734 431.503 379.279 431.937 370.059 433.538C369.846 433.578 369.745 433.711 369.759 433.938C369.772 434.152 369.892 434.265 370.119 434.278L381.427 434.879C366.229 434.865 351.045 435.339 335.874 436.3C332.231 436.54 329.189 436.04 326.046 434.679C325.864 434.6 325.706 434.473 325.59 434.312C325.474 434.15 325.403 433.96 325.384 433.761C325.366 433.561 325.401 433.359 325.486 433.176C325.57 432.993 325.702 432.834 325.866 432.717C379.106 395.93 428.903 356.2 478.64 315.67C481.322 313.468 482.089 314.009 480.942 317.291C477.165 328.019 471.715 338.594 464.589 349.015Z" fill="#FF9486"/>
<path d="M464.589 349.015C447.696 378.677 428.122 405.637 408.127 433.358C407.664 434 407.051 434.52 406.34 434.872C405.628 435.224 404.84 435.398 404.044 435.38L381.427 434.879L370.119 434.279C369.892 434.265 369.772 434.152 369.758 433.938C369.745 433.712 369.845 433.578 370.058 433.538C379.279 431.937 389.733 431.503 401.422 432.237C404.904 432.457 406.986 430.456 409.248 427.494C411.95 423.991 415.312 421.089 417.694 416.866C419.455 413.757 420.943 411.395 422.157 409.78C432.298 396.317 441.672 382.353 450.278 367.889C453.38 362.665 458.044 356.461 461.266 350.256C461.6 349.616 462.007 349.129 462.487 348.795C463.768 347.928 464.469 348.001 464.589 349.015Z" fill="#FE6667"/>
<path d="M263.039 466.803C266.962 467.657 270.838 467.477 274.668 466.262C275.307 466.062 275.987 466.034 276.641 466.181C277.294 466.328 277.897 466.645 278.389 467.1C278.88 467.555 279.243 468.132 279.44 468.772C279.637 469.412 279.662 470.093 279.511 470.746C278.55 474.789 275.068 479.252 270.765 480.013C264.2 481.154 257.395 473.148 261.858 467.243C261.994 467.064 262.178 466.928 262.387 466.85C262.596 466.772 262.823 466.755 263.039 466.803Z" fill="#F0E4DA"/>
<path d="M405.264 534.493C398.6 537.715 385.85 542.159 378.585 539.396C373.581 537.475 368.53 536.094 363.433 535.253C362.031 535.022 360.753 534.308 359.818 533.234C358.884 532.161 358.35 530.794 358.31 529.369L357.769 509.935C357.764 509.687 357.833 509.443 357.968 509.234C358.102 509.026 358.296 508.863 358.525 508.766C358.753 508.669 359.005 508.642 359.249 508.69C359.492 508.738 359.716 508.858 359.891 509.034C360.144 509.274 360.271 509.568 360.271 509.915C369.458 518.701 379.005 524.405 391.694 527.788C396.658 529.109 401.548 530.343 406.365 531.491C406.605 531.547 406.825 531.666 407.003 531.836C407.181 532.006 407.311 532.22 407.378 532.457C407.446 532.694 407.448 532.944 407.386 533.183C407.325 533.421 407.2 533.638 407.026 533.812C406.799 534.039 406.505 534.186 406.145 534.253C405.745 534.319 405.451 534.399 405.264 534.493Z" fill="#799ABC"/>
<path d="M482.182 723.834C481.823 723.869 481.463 723.773 481.166 723.564C480.869 723.355 480.654 723.046 480.561 722.693C477.859 712.706 479.12 700.076 479.1 689.729C479.1 684.511 478.346 680.235 476.838 676.899C472.101 666.438 464.128 659.773 452.92 656.904C444.694 654.783 434.066 655.803 424.759 656.024C423.398 656.064 422.751 655.396 422.818 654.022C423.191 647.11 426.527 642.78 432.825 641.032C437.709 639.671 439.25 631.946 441.131 627.722C441.371 627.162 441.758 627.022 442.292 627.302C444.994 628.703 446.736 631.365 449.057 632.606C452.927 634.674 457.077 635.748 461.507 635.828C475.137 636.049 491.529 664.67 495.712 675.558C497.54 680.282 498.567 685.812 498.794 692.15C499.101 700.837 499.255 709.537 499.255 718.25C499.254 719.381 498.829 720.47 498.065 721.301C497.301 722.131 496.254 722.643 495.132 722.733L482.182 723.834Z" fill="#F0E4DA"/>
</svg>
