<svg width="1024" height="1024" viewBox="0 0 1024 1024" fill="none" xmlns="http://www.w3.org/2000/svg">
<rect width="1024" height="1024" fill="white"/>
<path d="M782.771 702.748C788.353 702.904 793.939 702.884 799.53 702.689C807.476 702.41 814.206 710.02 811.318 717.82C809.119 723.787 804.955 724.374 798.753 724.374C606.205 724.129 413.658 724.041 221.11 724.11C219.83 724.11 218.686 723.743 217.679 723.01C210.837 718.025 210.177 712.268 215.7 705.739C219.028 701.795 234.965 703.07 239.892 703.056C240.265 703.056 240.623 702.906 240.887 702.639C241.151 702.372 241.299 702.011 241.299 701.633C241.299 690.275 241.236 678.913 241.109 667.545C241.031 659.891 244.246 654.227 250.756 650.552C256.826 647.136 267.544 648.441 274.552 648.543C275.705 648.563 276.282 647.996 276.282 646.842C276.243 570.983 276.155 495.055 276.018 419.058C276.004 413.325 262.09 399.089 258.058 394.221C250.316 384.881 240.302 369.237 259.304 363.593C302.038 350.935 344.743 338.194 387.418 325.37C413.487 317.54 443.734 309.095 466.679 301.383C476.444 298.099 481.869 298.333 492.381 301.324C500.113 303.524 505.855 305.092 509.609 306.031C559.605 318.537 609.631 331.44 659.891 342.817C674.24 346.062 688.555 349.464 702.836 353.022C710.499 354.928 718.152 356.853 725.796 358.798C742.882 363.148 760.007 367.322 777.171 371.319C786.877 373.577 786.745 384.06 781.349 390.585C774.341 399.069 767.597 407.475 761.116 415.803C760.375 416.754 759.973 417.92 759.972 419.117L759.914 647.385C759.914 648.138 760.29 648.514 761.043 648.514C765.617 648.529 769.986 647.576 773.989 651.344C779.453 656.485 782.146 662.873 782.068 670.507C781.97 680.975 781.936 691.448 781.965 701.927C781.965 702.464 782.234 702.738 782.771 702.748Z" fill="#0C1E3E"/>
<path d="M262.353 332.876C262.353 334.099 262.113 335.31 261.645 336.439C261.177 337.569 260.491 338.595 259.627 339.46C258.762 340.324 257.736 341.01 256.606 341.478C255.477 341.946 254.266 342.187 253.043 342.187C251.821 342.187 250.61 341.946 249.48 341.478C248.351 341.01 247.324 340.324 246.46 339.46C245.595 338.595 244.91 337.569 244.442 336.439C243.974 335.31 243.733 334.099 243.733 332.876C243.733 330.407 244.714 328.039 246.46 326.293C248.206 324.547 250.574 323.566 253.043 323.566C255.512 323.566 257.881 324.547 259.627 326.293C261.373 328.039 262.353 330.407 262.353 332.876Z" fill="#0C1E3E"/>
<path d="M490.079 322.393C487.167 322.931 484.259 323.073 481.356 322.819C477.148 322.452 472.94 325.56 469.055 326.689C463.131 328.429 457.252 330.33 451.417 332.393C448.997 333.258 446.138 333.639 443.499 334.607C431.843 338.917 419.645 342.084 407.681 345.471C404.66 346.321 401.464 348.286 397.784 348.961C393.61 349.713 389.525 350.774 385.527 352.142C376.759 355.148 367.698 358.329 358.842 360.602C347.494 363.505 335.589 367.669 325.252 370.601C313.083 374.061 301.149 378.093 288.965 381.51C285.065 382.604 281.155 383.919 277.235 385.454" stroke="#FDECBA" stroke-width="2"/>
<path d="M694.347 389.441C691.522 387.74 687.485 386.24 682.236 384.94C640.04 374.486 597.682 364.516 555.632 353.564C532.452 347.538 508.275 341.878 484.728 335.398C481.767 334.577 479.714 334.577 476.943 335.413C450.493 343.359 423.853 350.807 397.564 359.311C392.755 360.865 387.15 362.522 380.747 364.282C367.444 367.918 339.142 376.641 295.841 390.453C292.132 391.64 288.056 392.373 284.229 393.238" stroke="#FCC361" stroke-width="2"/>
<path d="M677.691 406.845C677.603 406.991 677.295 407.05 676.767 407.021" stroke="#DBB88F" stroke-width="2"/>
<path d="M676.767 407.021C671.216 405.388 665.605 403.932 659.936 402.652C653.807 401.264 647.718 399.729 641.667 398.048C640.739 397.784 639.409 397.535 637.679 397.3C634.38 396.831 629.953 395.057 628.017 394.573C582.058 383.049 536.118 371.471 490.197 359.839C485.271 358.588 481.468 358.31 478.79 359.004C448.866 366.73 417.401 375.308 387.081 384.647C362.948 392.076 338.781 399.377 314.579 406.552C308.597 408.331 302.302 409.738 295.695 410.774" stroke="#FAD29D" stroke-width="2"/>
<path d="M676.767 407.021L677.178 407.197C677.569 407.363 677.769 407.661 677.779 408.091L678.013 471.444" stroke="#DCE1E9" stroke-width="2"/>
<path d="M678.014 471.445C669.608 470.389 661.373 470.467 653.309 471.679C650.474 472.109 649.042 473.81 649.013 476.782C648.534 523.758 648.421 570.739 648.675 617.725C648.749 631.771 630.128 635.011 630.319 619.176C630.642 593.958 629.923 566.482 630.334 540.018C630.676 518.25 630.7 496.482 630.407 474.714C630.407 474.255 630.226 473.879 629.865 473.585C629.298 473.136 629.014 472.598 629.014 471.973" stroke="#FDF3DB" stroke-width="2"/>
<path d="M629.014 471.972C629.132 471.933 629.249 471.869 629.366 471.781C629.62 471.596 629.752 471.341 629.762 471.019C629.948 464.49 629.987 457.946 629.879 451.387C629.747 442.78 624.601 434.614 618.604 429.16C606.303 418.002 589.046 419.879 573.505 420.172C563.975 420.358 557.382 421.145 553.726 422.533C543.375 426.462 539.71 432.972 534.945 442.737C534.085 444.506 533.65 446.397 533.64 448.411C533.61 455.517 533.571 462.544 533.522 469.494C533.52 469.769 533.573 470.041 533.676 470.295C533.779 470.55 533.931 470.781 534.123 470.976C534.315 471.171 534.543 471.325 534.795 471.431C535.047 471.536 535.317 471.591 535.59 471.591L626.199 471.928" stroke="#838D9A" stroke-width="2"/>
<path d="M626.199 471.929C626.59 473.062 626.326 473.663 625.408 473.732C616.513 474.397 606.455 474.514 595.234 474.084C591.143 473.923 589.164 474.216 589.193 478.79C589.32 499.649 589.472 520.62 589.648 541.704" stroke="#FDF3DB" stroke-width="2"/>
<path d="M589.647 541.703C578.329 542.818 570.431 548.36 565.954 558.33C564.762 560.978 564.165 564.253 564.165 568.153C564.156 576.539 564.239 585.048 564.415 593.679C564.422 593.986 564.549 594.279 564.767 594.495C564.986 594.711 565.28 594.834 565.587 594.837L590.454 595.013" stroke="#838D9A" stroke-width="2"/>
<path d="M590.454 595.013C589.046 612.793 588.787 630.632 589.676 648.529" stroke="#FDF3DB" stroke-width="2"/>
<path d="M508.289 648.66C508.661 630.538 508.886 612.343 508.964 594.075C509.013 581.905 508.983 571.823 508.876 563.827C508.48 534.225 508.846 504.726 508.275 475.051C508.226 472.695 507.024 471.507 504.668 471.488C499.869 471.468 495.03 471.41 490.153 471.312C486.385 471.239 483.995 473.482 480.784 473.834C476.933 474.264 473.101 474.474 469.289 474.464C468.979 474.464 468.673 474.526 468.387 474.645C468.101 474.764 467.842 474.939 467.625 475.158C467.408 475.378 467.237 475.639 467.123 475.925C467.008 476.211 466.952 476.517 466.958 476.825L468.146 541.938" stroke="#FDF3DB" stroke-width="2"/>
<path d="M468.145 541.938C463.239 542.622 458.386 544.87 453.586 548.682" stroke="#838D9A" stroke-width="2"/>
<path d="M453.587 548.682C454.985 542.534 455.346 536.601 454.672 530.883C453.807 523.464 446.872 520.429 440.67 523.669C436.652 525.751 435.289 529.857 435.23 534.153C434.864 562.963 435.758 592.33 435.45 620.525C435.421 623.848 435.69 626.106 436.257 627.299C439.717 634.512 455.903 630.29 455.258 622.489C454.613 614.621 454.349 606.733 454.466 598.825C454.476 598.351 454.32 597.89 454.027 597.521L451.871 594.823" stroke="#FDF3DB" stroke-width="2"/>
<path d="M451.871 594.823L472.442 594.999" stroke="#838D9A" stroke-width="2"/>
<path d="M472.441 594.999C469.636 597.267 468.204 598.977 468.145 600.13C467.568 613.052 467.774 629.21 468.761 648.602" stroke="#FDF3DB" stroke-width="2"/>
<path d="M331.616 648.499C330.521 648.47 330.204 647.316 330.663 645.039C330.937 643.69 331.069 642.566 331.059 641.667C330.795 621.952 330.639 602.246 330.59 582.551C330.56 570.894 312.922 568.461 312.776 584.354C312.59 605.701 312.756 627.078 313.274 648.484" stroke="#FDECBA" stroke-width="2"/>
<path d="M695.945 549.284C696.522 545.745 700.016 545.144 706.428 547.48C706.512 547.51 706.603 547.517 706.691 547.5C706.779 547.484 706.861 547.445 706.929 547.387C706.997 547.329 707.049 547.255 707.079 547.171C707.11 547.087 707.118 546.997 707.102 546.909C706.565 544.093 706.931 541.792 708.202 540.003" stroke="#DED9CD" stroke-width="2"/>
<path d="M708.202 540.003C708.759 546.322 708.29 553.154 716.691 553.917C721.324 554.342 725.561 551.175 726.441 546.366C728.127 537.115 725.297 524.799 712.483 529.71" stroke="#65738D" stroke-width="2"/>
<path d="M712.483 529.71C713.197 527.951 711.843 527.31 708.422 527.789C707.841 527.875 707.246 527.778 706.721 527.511L698.349 523.362C697.89 523.137 697.553 522.795 697.338 522.335C696.302 520.175 695.285 519.334 694.288 519.813" stroke="#DED9CD" stroke-width="2"/>
<path d="M694.288 519.813C694.855 508.807 689.508 504.751 678.248 507.644" stroke="#65738D" stroke-width="2"/>
<path d="M678.248 507.644L678.014 471.444" stroke="#DED9CD" stroke-width="2"/>
<path d="M678.248 507.644C666.768 521.47 686.517 534.915 694.288 519.813" stroke="#86857F" stroke-width="2"/>
<path d="M712.483 529.71C709.697 531.938 708.27 535.369 708.202 540.002" stroke="#86857F" stroke-width="2"/>
<path d="M590.454 595.013L620.1 594.954C620.327 594.954 620.545 594.865 620.707 594.706C620.869 594.547 620.962 594.331 620.965 594.104C621.053 585.884 621.088 577.624 621.068 569.326C621.049 564.536 620.403 560.734 619.133 557.919C613.913 546.424 602.477 540.75 589.648 541.703" stroke="#86857F" stroke-width="2"/>
<path d="M629.014 471.972C628.066 471.806 627.128 471.791 626.199 471.928" stroke="#86857F" stroke-width="2"/>
<path d="M453.587 548.682C449.877 553.623 445.449 559.781 445.42 566.349C445.4 575.508 445.268 584.667 445.024 593.825C445.014 594.363 445.278 594.642 445.816 594.661L451.871 594.822" stroke="#86857F" stroke-width="2"/>
<path d="M472.441 594.999L501.251 594.97C501.384 594.97 501.516 594.943 501.639 594.893C501.762 594.842 501.873 594.767 501.967 594.673C502.061 594.579 502.135 594.468 502.186 594.345C502.237 594.222 502.263 594.091 502.263 593.958C502.351 585.904 502.371 577.766 502.322 569.546C502.293 564.913 501.643 561.204 500.372 558.418C494.654 545.897 481.986 539.973 468.145 541.938" stroke="#86857F" stroke-width="2"/>
<path d="M639.761 670.155C639.82 670.341 639.864 670.512 639.893 670.668C639.92 670.888 639.886 671.112 639.795 671.313C639.705 671.515 639.561 671.687 639.38 671.812C638.725 672.251 638.373 672.916 638.324 673.806C638.109 677.666 638.016 681.625 638.046 685.681" stroke="#FAD29D" stroke-width="2"/>
<path d="M638.046 685.681L509.198 685.579" stroke="#FDECBA" stroke-width="2"/>
<path d="M509.199 685.579L486.209 685.608" stroke="#FAD29D" stroke-width="2"/>
<path d="M486.209 685.608H280.021C279.653 685.61 279.299 685.746 279.026 685.993C278.753 686.239 278.58 686.577 278.54 686.942C278.012 692.221 278.232 697.699 279.2 703.378" stroke="#FDECBA" stroke-width="2"/>
<path d="M638.706 703.202L638.046 685.682" stroke="#FCC361" stroke-width="2"/>
<path d="M486.209 685.608L487.133 703.466" stroke="#FCC361" stroke-width="2"/>
<path d="M509.199 685.579L508.378 703.583" stroke="#FCC361" stroke-width="2"/>
<path d="M490.08 322.393C487.167 322.931 484.259 323.072 481.356 322.818C477.148 322.452 472.94 325.56 469.055 326.689C463.132 328.429 457.252 330.33 451.417 332.392C448.998 333.257 446.139 333.639 443.5 334.606C431.844 338.917 419.645 342.084 407.681 345.471C404.661 346.321 401.465 348.286 397.784 348.96C393.611 349.713 389.525 350.773 385.527 352.142C376.76 355.147 367.699 358.329 358.843 360.601C347.495 363.505 335.59 367.668 325.253 370.601C313.084 374.061 301.149 378.093 288.965 381.509C285.065 382.604 281.155 383.919 277.236 385.453L273.395 382.096C273.274 381.993 273.182 381.862 273.126 381.714C273.069 381.567 273.051 381.407 273.073 381.251C273.095 381.094 273.156 380.946 273.251 380.819C273.346 380.693 273.471 380.592 273.614 380.527C276.532 379.222 280.022 378.855 282.734 377.976C294.361 374.237 307.63 370.689 317.834 367.58C343.248 359.8 368.715 352.2 394.236 344.782C394.813 344.615 397.633 343.662 402.696 341.922C406.523 340.603 410.482 339.943 414.176 338.638C419.293 336.85 425.378 335.471 429.703 334.137C443.974 329.768 458.259 325.438 472.559 321.147C477.515 319.661 483.355 320.076 490.08 322.393Z" fill="#FAFBF6"/>
<path d="M490.079 322.393C527.907 331.396 565.529 341.938 603.517 350.749C634.786 358.002 666.04 365.318 697.279 372.698C702.293 373.881 706.887 374.697 711.061 375.146C712.791 375.332 712.904 375.865 711.398 376.744C704.771 380.605 699.087 384.838 694.347 389.441C691.522 387.741 687.485 386.24 682.236 384.94C640.04 374.487 597.682 364.517 555.632 353.564C532.452 347.538 508.275 341.879 484.728 335.398C481.766 334.577 479.714 334.577 476.943 335.413C450.493 343.36 423.852 350.808 397.564 359.312C392.755 360.866 387.149 362.523 380.747 364.282C367.444 367.918 339.142 376.642 295.841 390.453C292.132 391.641 288.056 392.374 284.229 393.239L277.235 385.454C281.155 383.919 285.065 382.604 288.965 381.51C301.149 378.093 313.083 374.061 325.252 370.601C335.589 367.669 347.494 363.505 358.842 360.602C367.698 358.329 376.759 355.148 385.527 352.142C389.525 350.774 393.61 349.713 397.784 348.961C401.464 348.286 404.66 346.321 407.681 345.471C419.645 342.084 431.843 338.917 443.499 334.607C446.138 333.639 448.997 333.258 451.417 332.393C457.252 330.33 463.131 328.429 469.055 326.689C472.94 325.56 477.148 322.452 481.356 322.819C484.259 323.073 487.167 322.931 490.079 322.393Z" fill="#FFDD7E"/>
<path d="M694.347 389.441C690.388 392.989 678.19 402.49 677.691 406.844C677.603 406.991 677.295 407.05 676.768 407.02C671.216 405.388 665.605 403.932 659.936 402.651C653.807 401.263 647.718 399.729 641.667 398.047C640.739 397.784 639.41 397.534 637.679 397.3C634.381 396.83 629.953 395.056 628.017 394.573C582.058 383.048 536.118 371.471 490.197 359.839C485.271 358.588 481.469 358.309 478.79 359.003C448.866 366.73 417.402 375.307 387.081 384.647C362.948 392.075 338.781 399.377 314.579 406.551C308.597 408.33 302.302 409.738 295.695 410.774C296.091 405.891 288.305 398.414 284.229 393.238C288.056 392.373 292.132 391.64 295.841 390.453C339.142 376.641 367.444 367.918 380.747 364.282C387.15 362.522 392.755 360.865 397.564 359.311C423.853 350.807 450.493 343.359 476.943 335.413C479.714 334.577 481.767 334.577 484.728 335.398C508.275 341.878 532.452 347.538 555.632 353.564C597.682 364.516 640.04 374.486 682.236 384.94C687.485 386.24 691.522 387.74 694.347 389.441Z" fill="#F9A943"/>
<path d="M676.767 407.021L677.178 407.197C677.569 407.363 677.769 407.661 677.779 408.091L678.014 471.444C669.608 470.389 661.373 470.467 653.309 471.679C650.474 472.109 649.042 473.81 649.013 476.781C648.534 523.757 648.421 570.739 648.676 617.724C648.749 631.77 630.128 635.011 630.319 619.176C630.642 593.958 629.923 566.482 630.334 540.017C630.676 518.25 630.7 496.482 630.407 474.714C630.407 474.255 630.226 473.878 629.865 473.585C629.298 473.135 629.014 472.598 629.014 471.972C629.131 471.933 629.249 471.87 629.366 471.782C629.62 471.596 629.752 471.342 629.762 471.019C629.948 464.49 629.987 457.946 629.879 451.387C629.747 442.781 624.601 434.614 618.604 429.16C606.303 418.003 589.046 419.879 573.505 420.172C563.975 420.358 557.382 421.145 553.726 422.533C543.375 426.462 539.71 432.972 534.945 442.737C534.084 444.506 533.649 446.397 533.64 448.411C533.61 455.517 533.571 462.545 533.522 469.494C533.52 469.769 533.572 470.041 533.676 470.296C533.779 470.55 533.93 470.781 534.123 470.976C534.315 471.171 534.543 471.326 534.795 471.431C535.047 471.537 535.317 471.591 535.59 471.591L626.199 471.928C626.59 473.062 626.326 473.663 625.407 473.732C616.513 474.396 606.455 474.514 595.234 474.084C591.143 473.922 589.164 474.215 589.193 478.79C589.32 499.649 589.471 520.62 589.647 541.703C578.329 542.818 570.431 548.36 565.954 558.33C564.762 560.979 564.165 564.253 564.165 568.153C564.156 576.54 564.239 585.048 564.415 593.679C564.422 593.987 564.549 594.279 564.767 594.495C564.986 594.711 565.28 594.834 565.587 594.838L590.454 595.013C589.046 612.793 588.787 630.632 589.677 648.529L508.29 648.661C508.661 630.539 508.886 612.344 508.964 594.075C509.013 581.906 508.984 571.823 508.876 563.828C508.48 534.226 508.847 504.727 508.275 475.051C508.226 472.696 507.024 471.508 504.668 471.488C499.869 471.469 495.03 471.41 490.153 471.313C486.385 471.239 483.995 473.482 480.784 473.834C476.933 474.264 473.101 474.475 469.289 474.465C468.98 474.465 468.673 474.526 468.387 474.645C468.101 474.764 467.842 474.939 467.625 475.159C467.408 475.379 467.237 475.639 467.123 475.925C467.008 476.211 466.952 476.517 466.958 476.825L468.146 541.938C463.239 542.622 458.386 544.87 453.587 548.682C454.984 542.534 455.346 536.601 454.672 530.883C453.807 523.464 446.872 520.429 440.67 523.669C436.652 525.751 435.289 529.857 435.23 534.153C434.864 562.963 435.758 592.33 435.45 620.525C435.421 623.848 435.69 626.106 436.256 627.299C439.717 634.512 455.903 630.29 455.258 622.489C454.613 614.621 454.349 606.733 454.466 598.825C454.476 598.351 454.32 597.89 454.026 597.521L451.871 594.823L472.442 594.999C469.636 597.266 468.204 598.977 468.146 600.13C467.569 613.052 467.774 629.209 468.762 648.602L331.616 648.499C330.521 648.47 330.203 647.317 330.663 645.039C330.936 643.69 331.068 642.566 331.059 641.667C330.795 621.952 330.638 602.247 330.59 582.551C330.56 570.895 312.922 568.461 312.776 584.354C312.59 605.702 312.756 627.079 313.274 648.485L296.794 648.455C296.58 648.455 296.375 648.372 296.224 648.223C296.073 648.075 295.988 647.874 295.988 647.664L295.695 410.774C302.302 409.738 308.597 408.331 314.579 406.552C338.78 399.377 362.948 392.076 387.081 384.647C417.401 375.308 448.866 366.73 478.79 359.004C481.468 358.31 485.271 358.588 490.197 359.839C536.118 371.471 582.058 383.049 628.017 394.573C629.953 395.057 634.38 396.831 637.679 397.3C639.409 397.535 640.739 397.784 641.667 398.048C647.718 399.729 653.807 401.264 659.936 402.652C665.605 403.932 671.216 405.388 676.767 407.021Z" fill="#FAFBF6"/>
<path d="M676.767 407.021C677.295 407.05 677.603 406.991 677.691 406.845C678.766 407.451 679.812 407.866 680.828 408.091C700.27 412.475 719.873 417.606 739.651 420.231C740.101 420.288 740.514 420.507 740.814 420.847C741.113 421.187 741.279 421.625 741.279 422.078L741.161 647.546C741.161 648.025 740.922 648.265 740.443 648.265L726.617 648.25C726.563 648.25 726.51 648.239 726.46 648.219C726.41 648.198 726.365 648.168 726.327 648.13C726.289 648.092 726.258 648.046 726.238 647.997C726.217 647.947 726.206 647.893 726.206 647.839C726.255 637.205 726.368 626.556 726.544 615.892C726.641 609.528 723.787 606.288 717.981 606.171C710.768 606.01 708.627 612.124 708.583 618.589C708.524 628.207 708.534 637.747 708.612 647.209C708.614 647.362 708.586 647.515 708.528 647.657C708.471 647.799 708.386 647.928 708.278 648.038C708.171 648.147 708.042 648.233 707.901 648.292C707.759 648.352 707.607 648.382 707.454 648.382L697.264 648.455C697.101 648.457 696.939 648.427 696.788 648.366C696.637 648.305 696.5 648.214 696.384 648.1C696.268 647.985 696.176 647.849 696.113 647.698C696.05 647.548 696.018 647.387 696.018 647.224L695.945 549.283C696.521 545.745 700.016 545.144 706.428 547.48C706.512 547.509 706.603 547.516 706.69 547.5C706.778 547.484 706.86 547.445 706.928 547.387C706.996 547.329 707.048 547.255 707.079 547.171C707.109 547.087 707.117 546.996 707.102 546.908C706.565 544.093 706.931 541.791 708.202 540.003C708.759 546.322 708.29 553.154 716.691 553.916C721.324 554.342 725.561 551.175 726.441 546.366C728.127 537.114 725.297 524.798 712.483 529.71C713.197 527.951 711.843 527.31 708.422 527.789C707.841 527.875 707.246 527.778 706.721 527.511L698.349 523.362C697.89 523.137 697.553 522.795 697.338 522.335C696.301 520.175 695.285 519.334 694.288 519.813C694.855 508.807 689.508 504.751 678.248 507.644L678.013 471.444L677.779 408.091C677.769 407.661 677.569 407.363 677.178 407.197L676.767 407.021Z" fill="#BDC7DB"/>
<path d="M629.014 471.972C628.066 471.806 627.128 471.791 626.199 471.928L535.59 471.591C535.317 471.591 535.047 471.536 534.795 471.431C534.543 471.325 534.315 471.171 534.123 470.976C533.931 470.781 533.779 470.55 533.676 470.295C533.573 470.041 533.52 469.769 533.522 469.494C533.571 462.544 533.61 455.517 533.64 448.411C533.65 446.397 534.085 444.506 534.945 442.737C539.71 432.972 543.375 426.462 553.726 422.533C557.382 421.145 563.975 420.358 573.505 420.172C589.046 419.879 606.303 418.002 618.604 429.16C624.601 434.614 629.747 442.78 629.879 451.387C629.987 457.946 629.948 464.49 629.762 471.019C629.752 471.341 629.62 471.596 629.366 471.781C629.249 471.869 629.132 471.933 629.014 471.972Z" fill="#0C1E3E"/>
<path d="M678.013 471.445L678.248 507.644C666.768 521.47 686.517 534.915 694.288 519.814C695.285 519.335 696.301 520.175 697.338 522.336C697.553 522.795 697.89 523.137 698.349 523.362L706.721 527.511C707.246 527.778 707.841 527.876 708.422 527.79C711.843 527.311 713.197 527.951 712.483 529.71C709.697 531.939 708.27 535.37 708.202 540.003C706.931 541.792 706.565 544.094 707.102 546.909C707.117 546.997 707.109 547.087 707.079 547.171C707.048 547.255 706.996 547.329 706.928 547.387C706.86 547.445 706.778 547.484 706.69 547.5C706.603 547.517 706.512 547.51 706.428 547.48C700.016 545.144 696.521 545.745 695.945 549.284C691.888 546.215 688.653 544.612 686.239 544.475C681.899 544.221 678.746 546.044 676.782 549.944C675.697 552.114 676.357 553.932 676.357 555.911C676.444 586.534 676.518 617.207 676.576 647.928C676.576 648.087 676.513 648.24 676.4 648.353C676.288 648.466 676.135 648.529 675.975 648.529H589.676C588.787 630.632 589.046 612.794 590.454 595.014L620.1 594.955C620.326 594.955 620.544 594.866 620.706 594.707C620.868 594.548 620.961 594.332 620.964 594.105C621.052 585.884 621.087 577.625 621.067 569.326C621.048 564.537 620.402 560.735 619.132 557.92C613.912 546.425 602.476 540.751 589.647 541.704C589.471 520.62 589.32 499.649 589.193 478.79C589.163 474.216 591.143 473.923 595.233 474.084C606.454 474.514 616.512 474.397 625.407 473.732C626.326 473.663 626.59 473.062 626.199 471.929C627.127 471.792 628.066 471.806 629.014 471.973C629.014 472.598 629.297 473.136 629.864 473.585C630.226 473.879 630.407 474.255 630.407 474.714C630.7 496.482 630.675 518.25 630.333 540.018C629.923 566.482 630.641 593.958 630.319 619.176C630.128 635.011 648.748 631.771 648.675 617.725C648.421 570.739 648.533 523.758 649.012 476.782C649.042 473.81 650.474 472.109 653.308 471.679C661.372 470.467 669.607 470.389 678.013 471.445Z" fill="#FFEBBF"/>
<path d="M508.289 648.66L468.761 648.602C467.774 629.209 467.569 613.052 468.146 600.13C468.204 598.976 469.636 597.266 472.442 594.998L501.252 594.969C501.385 594.969 501.516 594.943 501.639 594.892C501.762 594.841 501.873 594.767 501.967 594.673C502.061 594.579 502.136 594.467 502.186 594.344C502.237 594.222 502.263 594.09 502.263 593.957C502.351 585.903 502.371 577.766 502.322 569.546C502.293 564.912 501.643 561.203 500.372 558.417C494.654 545.896 481.986 539.973 468.146 541.938L466.958 476.825C466.952 476.517 467.008 476.211 467.123 475.925C467.237 475.639 467.408 475.378 467.625 475.158C467.842 474.939 468.101 474.764 468.387 474.645C468.673 474.526 468.979 474.464 469.289 474.464C473.101 474.474 476.933 474.264 480.784 473.834C483.995 473.482 486.385 471.239 490.153 471.312C495.03 471.41 499.869 471.468 504.668 471.488C507.024 471.507 508.226 472.695 508.275 475.051C508.846 504.726 508.48 534.225 508.876 563.827C508.983 571.823 509.013 581.905 508.964 594.075C508.886 612.343 508.661 630.538 508.289 648.66Z" fill="#FFEBBF"/>
<path d="M694.287 519.813C686.517 534.915 666.767 521.47 678.248 507.644C689.508 504.751 694.854 508.807 694.287 519.813Z" fill="#0C1E3E"/>
<path d="M453.587 548.682C449.877 553.623 445.449 559.781 445.42 566.35C445.401 575.508 445.269 584.667 445.024 593.826C445.014 594.363 445.278 594.642 445.816 594.662L451.871 594.823L454.027 597.521C454.32 597.89 454.476 598.351 454.466 598.825C454.349 606.733 454.613 614.621 455.258 622.489C455.903 630.29 439.717 634.512 436.257 627.299C435.69 626.106 435.421 623.848 435.45 620.525C435.758 592.33 434.864 562.963 435.23 534.153C435.289 529.857 436.652 525.751 440.67 523.669C446.872 520.429 453.807 523.464 454.672 530.883C455.346 536.601 454.985 542.534 453.587 548.682Z" fill="#FFEBBF"/>
<path d="M708.202 540.003C708.27 535.37 709.697 531.939 712.483 529.71C725.297 524.799 728.127 537.115 726.441 546.366C725.561 551.175 721.324 554.342 716.691 553.917C708.29 553.154 708.759 546.322 708.202 540.003Z" fill="#0C1E3E"/>
<path d="M472.441 594.999L451.871 594.823L445.816 594.662C445.278 594.642 445.014 594.364 445.024 593.826C445.268 584.667 445.4 575.509 445.42 566.35C445.449 559.781 449.877 553.623 453.587 548.682C458.386 544.87 463.239 542.622 468.146 541.938C481.986 539.973 494.654 545.897 500.372 558.418C501.643 561.204 502.293 564.913 502.322 569.546C502.371 577.766 502.351 585.904 502.263 593.958C502.263 594.091 502.237 594.222 502.186 594.345C502.136 594.468 502.061 594.579 501.967 594.673C501.873 594.767 501.762 594.842 501.639 594.893C501.516 594.943 501.384 594.97 501.252 594.97L472.441 594.999Z" fill="#0C1E3E"/>
<path d="M589.647 541.703C602.476 540.75 613.913 546.424 619.132 557.919C620.403 560.734 621.048 564.536 621.068 569.326C621.087 577.624 621.053 585.884 620.965 594.104C620.961 594.331 620.868 594.547 620.706 594.706C620.545 594.865 620.327 594.954 620.1 594.954L590.454 595.013L565.587 594.837C565.28 594.834 564.986 594.711 564.767 594.495C564.549 594.279 564.422 593.986 564.415 593.679C564.239 585.048 564.156 576.539 564.165 568.153C564.165 564.253 564.762 560.978 565.954 558.329C570.431 548.36 578.329 542.817 589.647 541.703Z" fill="#0C1E3E"/>
<path d="M331.615 648.499L313.274 648.484C312.755 627.078 312.589 605.701 312.775 584.354C312.922 568.461 330.56 570.894 330.589 582.551C330.638 602.246 330.794 621.952 331.058 641.667C331.068 642.566 330.936 643.69 330.662 645.039C330.203 647.316 330.521 648.47 331.615 648.499Z" fill="#FFDD7E"/>
<path d="M639.761 670.155C639.82 670.341 639.864 670.512 639.893 670.668C639.919 670.888 639.886 671.112 639.795 671.313C639.705 671.515 639.561 671.687 639.38 671.812C638.725 672.251 638.373 672.916 638.324 673.806C638.109 677.666 638.016 681.625 638.046 685.681L509.198 685.579L486.209 685.608H280.021C279.653 685.61 279.299 685.747 279.026 685.993C278.753 686.239 278.58 686.577 278.54 686.942C278.012 692.221 278.232 697.699 279.2 703.378L262.266 703.305C261.689 703.305 261.401 703.017 261.401 702.44L261.415 671.298C261.415 670.859 261.635 670.639 262.075 670.639L639.761 670.155Z" fill="#FAFBF6"/>
<path d="M639.761 670.155L656.314 670.184C656.394 670.184 656.474 670.2 656.548 670.231C656.622 670.262 656.689 670.308 656.745 670.365C656.801 670.423 656.844 670.491 656.874 670.565C656.903 670.64 656.917 670.72 656.915 670.8L656.49 702.088C656.486 702.362 656.373 702.623 656.176 702.815C655.978 703.007 655.712 703.114 655.434 703.114L638.705 703.202L638.046 685.681C638.016 681.625 638.109 677.666 638.324 673.806C638.373 672.916 638.725 672.251 639.38 671.812C639.561 671.687 639.705 671.515 639.795 671.313C639.886 671.112 639.92 670.888 639.893 670.668C639.864 670.512 639.82 670.341 639.761 670.155Z" fill="#F9A943"/>
<path d="M706.415 702.773C706.414 702.874 706.374 702.971 706.303 703.042C706.231 703.114 706.134 703.154 706.033 703.153L677.56 703.104C677.459 703.103 677.362 703.063 677.291 702.992C677.219 702.92 677.179 702.823 677.179 702.722L677.235 670.701C677.235 670.6 677.276 670.503 677.347 670.431C677.419 670.36 677.516 670.32 677.617 670.32L706.09 670.37C706.191 670.37 706.288 670.41 706.359 670.482C706.431 670.554 706.471 670.651 706.47 670.752L706.415 702.773Z" fill="#F9A943"/>
<path d="M761.397 702.764C761.397 702.827 761.384 702.89 761.36 702.949C761.335 703.007 761.3 703.061 761.255 703.106C761.21 703.15 761.156 703.186 761.097 703.21C761.039 703.234 760.976 703.247 760.912 703.247L726.369 703.186C726.306 703.186 726.243 703.174 726.184 703.149C726.126 703.125 726.072 703.089 726.027 703.044C725.982 702.999 725.947 702.946 725.923 702.887C725.899 702.828 725.886 702.765 725.886 702.702L725.942 670.974C725.942 670.91 725.954 670.847 725.979 670.789C726.003 670.73 726.039 670.677 726.084 670.632C726.129 670.587 726.182 670.552 726.241 670.527C726.3 670.503 726.363 670.491 726.426 670.491L760.969 670.551C761.033 670.551 761.096 670.564 761.154 670.588C761.213 670.613 761.266 670.648 761.311 670.693C761.356 670.738 761.392 670.792 761.416 670.851C761.44 670.909 761.452 670.972 761.452 671.036L761.397 702.764Z" fill="#F9A943"/>
<path d="M486.209 685.608L487.132 703.466L279.2 703.378C278.232 697.699 278.012 692.221 278.54 686.942C278.58 686.577 278.753 686.239 279.026 685.993C279.299 685.746 279.653 685.61 280.021 685.608H486.209Z" fill="#FFDD7E"/>
<path d="M486.209 685.608L509.199 685.579L508.378 703.583L487.133 703.466L486.209 685.608Z" fill="#F9A943"/>
<path d="M509.199 685.579L638.046 685.681L638.705 703.202L508.378 703.583L509.199 685.579Z" fill="#FFDD7E"/>
<path d="M383.724 594.925L411.83 594.954C411.96 594.956 412.09 594.932 412.21 594.883C412.331 594.834 412.441 594.761 412.534 594.668C412.627 594.575 412.7 594.464 412.751 594.342C412.801 594.221 412.827 594.09 412.827 593.957C412.807 584.877 412.817 575.611 412.856 566.159C412.915 552.245 399.807 543.008 386.993 541.219" stroke="#86857F" stroke-width="2"/>
<path d="M507.142 433.572C504.416 433.72 501.743 432.756 499.709 430.891C497.675 429.027 496.447 426.416 496.296 423.632C496.146 420.848 497.084 418.119 498.905 416.046C500.725 413.973 503.28 412.726 506.005 412.578C508.731 412.431 511.405 413.395 513.439 415.259C515.473 417.123 516.7 419.735 516.851 422.519C517.002 425.303 516.064 428.031 514.243 430.104C512.422 432.177 509.868 433.425 507.142 433.572Z" fill="#0C1E3E"/>
<path d="M355.133 472.192C354.414 472.192 353.724 471.906 353.215 471.397C352.706 470.889 352.421 470.199 352.421 469.48L352.391 453.777C352.376 444.841 355.956 436.265 362.343 429.936C368.73 423.606 377.402 420.041 386.451 420.025L450.346 419.908C454.827 419.9 459.265 420.764 463.407 422.45C467.55 424.136 471.315 426.612 474.489 429.735C477.662 432.858 480.182 436.568 481.904 440.653C483.625 444.738 484.515 449.118 484.523 453.542L484.552 469.245C484.552 469.601 484.482 469.954 484.346 470.283C484.209 470.612 484.01 470.911 483.758 471.163C483.506 471.415 483.207 471.614 482.878 471.751C482.549 471.887 482.196 471.957 481.84 471.957L355.133 472.192Z" fill="#0C1E3E"/>
<path d="M330.956 486.536C331.108 488.653 330.412 490.745 329.022 492.349C327.632 493.954 325.661 494.941 323.543 495.093L322.373 495.177C321.325 495.252 320.272 495.12 319.274 494.788C318.276 494.456 317.354 493.931 316.559 493.243C315.765 492.554 315.114 491.716 314.643 490.776C314.172 489.836 313.891 488.813 313.816 487.764L313.158 478.58C313.006 476.462 313.702 474.371 315.092 472.766C316.482 471.162 318.452 470.175 320.57 470.023L321.74 469.939C322.789 469.864 323.842 469.996 324.839 470.328C325.837 470.66 326.759 471.185 327.554 471.873C328.349 472.561 329 473.4 329.471 474.34C329.941 475.28 330.222 476.303 330.297 477.352L330.956 486.536Z" fill="#FFDD7E"/>
<path d="M383.724 594.925L411.83 594.954C411.96 594.956 412.09 594.932 412.211 594.883C412.332 594.833 412.442 594.76 412.534 594.668C412.627 594.575 412.701 594.464 412.751 594.342C412.801 594.22 412.827 594.089 412.827 593.957C412.808 584.877 412.818 575.611 412.857 566.159C412.915 552.245 399.808 543.008 386.993 541.219C386.299 540.085 385.312 539.035 384.032 538.067C383.562 537.705 383.328 537.231 383.328 536.645L383.005 477.91C382.986 475.515 384.178 474.323 386.583 474.332L411.478 474.45C412.847 474.459 413.541 475.149 413.56 476.517C413.981 500.318 414.254 523.928 414.381 547.348C414.425 554.4 416.258 561.834 416.507 567.889C417.108 582.272 415.818 599.514 415.672 610.877C415.525 622.235 415.31 633.588 415.027 644.936C415.017 645.464 414.802 645.894 414.381 646.226C414.069 646.471 413.966 646.828 414.073 647.297C414.249 648.049 413.951 648.367 413.179 648.25C412.143 648.084 411.205 647.698 410.364 647.091C409.963 646.808 409.514 646.642 409.015 646.593C401.582 645.904 394.559 646.842 387.169 646.094C384.252 645.801 383.342 644.848 383.284 641.813C382.981 626.262 383.128 610.633 383.724 594.925Z" fill="#FFEBBF"/>
<path d="M570.466 493.86C570.455 496.006 569.591 498.06 568.066 499.57C566.54 501.08 564.477 501.922 562.331 501.91L534.62 501.765C532.474 501.754 530.42 500.891 528.91 499.365C527.4 497.839 526.558 495.776 526.57 493.63L526.576 492.398C526.587 490.252 527.451 488.198 528.976 486.688C530.502 485.178 532.565 484.336 534.712 484.347L562.422 484.493C564.568 484.504 566.622 485.367 568.132 486.893C569.642 488.419 570.484 490.482 570.473 492.628L570.466 493.86Z" fill="#F9A943"/>
<path d="M548.769 546.73C548.813 549.008 547.95 551.21 546.37 552.852C544.79 554.494 542.623 555.441 540.344 555.485L538.996 555.511C537.868 555.533 536.746 555.332 535.696 554.92C534.645 554.508 533.686 553.894 532.873 553.111C532.06 552.329 531.409 551.394 530.957 550.36C530.506 549.326 530.262 548.214 530.24 547.085L530.063 537.85C530.019 535.572 530.883 533.37 532.463 531.728C534.043 530.086 536.21 529.139 538.488 529.095L539.837 529.069C540.965 529.048 542.086 529.248 543.137 529.66C544.187 530.072 545.147 530.686 545.96 531.469C546.773 532.251 547.424 533.186 547.875 534.22C548.327 535.254 548.571 536.367 548.592 537.495L548.769 546.73Z" fill="#F9A943"/>
<path d="M345.198 542.665C345.206 543.763 344.997 544.851 344.585 545.868C344.172 546.885 343.563 547.81 342.792 548.592C342.021 549.373 341.104 549.995 340.093 550.422C339.082 550.849 337.997 551.073 336.9 551.081L318.426 551.21C316.21 551.225 314.078 550.359 312.5 548.803C310.922 547.247 310.027 545.128 310.011 542.911L309.999 541.152C309.991 540.054 310.2 538.966 310.613 537.949C311.025 536.932 311.635 536.007 312.405 535.225C313.176 534.444 314.093 533.822 315.104 533.395C316.115 532.968 317.2 532.744 318.298 532.736L336.771 532.607C338.987 532.592 341.119 533.458 342.697 535.014C344.275 536.57 345.171 538.69 345.186 540.906L345.198 542.665Z" fill="#F9A943"/>
<path d="M386.993 541.219C399.808 543.008 412.915 552.245 412.857 566.159C412.817 575.611 412.808 584.877 412.827 593.957C412.827 594.09 412.801 594.22 412.751 594.342C412.701 594.464 412.627 594.575 412.534 594.668C412.441 594.76 412.331 594.834 412.211 594.883C412.09 594.932 411.96 594.956 411.83 594.954L383.724 594.925L357.64 594.676C356.979 594.668 356.347 594.401 355.881 593.932C355.415 593.463 355.152 592.83 355.148 592.169C355.119 584.124 355.158 575.948 355.265 567.64C355.514 550.251 370.176 540.706 386.993 541.219Z" fill="#0C1E3E"/>
<path d="M359.869 627.636C341.967 629.336 344.064 603.063 360.265 601.948C370.132 601.274 374.707 603.356 374.751 614.074C374.78 623.281 367.86 626.873 359.869 627.636Z" fill="#FFEBBF"/>
<path d="M544.346 617.149C545.232 619.706 545.027 622.524 543.777 624.981C542.528 627.439 540.335 629.336 537.682 630.255C535.029 631.174 532.133 631.039 529.631 629.88C527.129 628.721 525.226 626.634 524.34 624.076C523.455 621.519 523.659 618.701 524.909 616.243C526.159 613.785 528.351 611.888 531.004 610.97C533.657 610.051 536.553 610.186 539.055 611.345C541.557 612.503 543.461 614.591 544.346 617.149Z" fill="#F9A943"/>
<path d="M725.752 488.071C725.752 489.167 725.536 490.251 725.117 491.264C724.698 492.276 724.083 493.195 723.308 493.97C722.534 494.745 721.614 495.359 720.602 495.779C719.59 496.198 718.505 496.414 717.409 496.414H716.618C714.405 496.414 712.283 495.535 710.719 493.97C709.154 492.406 708.275 490.284 708.275 488.071V465.668C708.275 463.455 709.154 461.333 710.719 459.769C712.283 458.204 714.405 457.325 716.618 457.325H717.409C718.505 457.325 719.59 457.541 720.602 457.96C721.614 458.38 722.534 458.994 723.308 459.769C724.083 460.543 724.698 461.463 725.117 462.475C725.536 463.488 725.752 464.572 725.752 465.668V488.071Z" fill="#0C1E3E"/>
<path d="M718.716 593.331C716.323 593.498 713.95 592.551 712.12 590.697C710.29 588.843 709.152 586.235 708.957 583.446C708.86 582.065 708.998 580.681 709.362 579.373C709.727 578.066 710.31 576.86 711.08 575.825C711.85 574.79 712.791 573.946 713.849 573.341C714.906 572.736 716.061 572.382 717.246 572.299C719.639 572.131 722.012 573.079 723.842 574.933C725.673 576.786 726.811 579.395 727.006 582.184C727.102 583.565 726.964 584.949 726.6 586.256C726.236 587.564 725.652 588.769 724.882 589.805C724.113 590.84 723.172 591.684 722.114 592.289C721.056 592.894 719.902 593.248 718.716 593.331Z" fill="#0C1E3E"/>
</svg>
