<svg width="1024" height="1024" viewBox="0 0 1024 1024" fill="none" xmlns="http://www.w3.org/2000/svg">
<rect width="1024" height="1024" fill="white"/>
<path d="M575.915 297.052C575.815 297.085 575.727 297.148 575.666 297.232C575.604 297.317 575.572 297.417 575.573 297.52L575.308 370.791C575.308 372.505 576.092 373.71 577.66 374.406C629.182 397.246 660.965 447.303 660.95 503.702C660.929 600.4 660.872 697.098 660.778 793.796C660.763 801.991 661.183 807.397 654.344 811.292C652.147 812.539 649.296 811.76 647.395 811.76C557.77 811.78 468.14 811.832 378.505 811.915C374.683 811.915 371.78 811.245 369.796 809.906C365.922 807.278 363.99 803.232 364 797.769C364.249 704.55 364.317 611.326 364.203 518.097C364.171 489.228 367.583 466.793 379.782 441.819C396.297 408.011 422.066 387.041 456.777 373.346C457.425 373.09 457.981 372.644 458.373 372.066C458.764 371.488 458.974 370.805 458.974 370.106L458.803 297.208C458.803 296.616 458.517 296.242 457.946 296.086C450.39 294.045 447.944 284.931 454.97 280.491C455.978 279.847 457.016 279.224 458.086 278.622C458.533 278.362 458.761 277.972 458.772 277.453C459.125 264.47 459.322 251.492 459.364 238.519C459.41 227.193 463.414 218.671 473.822 214.293C477.197 212.88 482.655 212.174 490.196 212.174C509.224 212.184 528.252 212.127 547.28 212.003C553.927 211.951 558.767 212.652 561.8 214.106C568.593 217.362 576.243 225.557 575.806 233.892C575.074 247.945 575.713 262.512 575.728 276.612C575.729 276.85 575.807 277.083 575.95 277.274C576.093 277.464 576.294 277.604 576.523 277.671C587.927 281.177 586.369 293.859 575.915 297.052Z" fill="#100000"/>
<path d="M552.375 236.837L550.131 235.108C549.736 234.796 549.285 234.635 548.776 234.625L495.104 233.846" stroke="#F99055" stroke-width="2"/>
<path d="M495.103 233.845L486.566 233.596" stroke="#F9AE98" stroke-width="2"/>
<path d="M495.103 233.846C498.235 234.204 503.719 236.167 503.984 239.781C504.077 240.966 503.75 241.88 503.002 242.523C502.41 243.043 501.273 243.225 499.59 243.069C497.835 242.903 495.851 243.043 493.639 243.489" stroke="#FFE2BC" stroke-width="2"/>
<path d="M493.639 243.489L493.156 274.4C493.149 274.91 492.946 275.398 492.589 275.763C492.233 276.128 491.75 276.343 491.24 276.363L480.755 276.83" stroke="#FFBFA7" stroke-width="2"/>
<path d="M553.668 276.254L545.192 276.347" stroke="#F99055" stroke-width="2"/>
<path d="M541.999 243.832C539.911 243.084 537.605 243.006 535.081 243.598" stroke="#B3623D" stroke-width="2"/>
<path d="M535.081 243.598L517.787 243.193" stroke="#FFA264" stroke-width="2"/>
<path d="M517.788 243.193L513.581 244.253" stroke="#B3623D" stroke-width="2"/>
<path d="M513.363 271.86C513.093 273.003 513.015 274.088 513.129 275.116C513.149 275.305 513.124 275.496 513.058 275.674C512.991 275.852 512.884 276.013 512.745 276.142C512.606 276.272 512.439 276.368 512.257 276.422C512.075 276.477 511.883 276.488 511.696 276.456C509.92 276.155 508.091 276.067 506.212 276.191C505.059 276.274 504.202 276.108 503.641 275.693C501.787 274.322 502.722 272.53 502.706 270.941C502.613 263.037 502.753 255.127 503.127 247.213C503.241 244.928 502.156 243.749 499.871 243.676L493.639 243.489" stroke="#FFA264" stroke-width="2"/>
<path d="M535.081 243.599C534.863 243.671 534.645 243.749 534.427 243.832" stroke="#B34028" stroke-width="2"/>
<path d="M522.337 244.221L517.787 243.193" stroke="#B34028" stroke-width="2"/>
<path d="M510.558 299.047L510.714 322.665" stroke="#003875" stroke-width="2"/>
<path d="M510.714 322.665C510.33 322.697 510.029 322.655 509.811 322.541" stroke="#015197" stroke-width="2"/>
<path d="M509.811 322.541L496.194 322.494" stroke="#0058A1" stroke-width="2"/>
<path d="M496.194 322.494L495.898 299.374" stroke="#80A1C4" stroke-width="2"/>
<path d="M496.194 322.494L496.88 402.449" stroke="#80B6DC" stroke-width="2"/>
<path d="M496.879 402.449C476.594 406.469 458.6 415.017 442.895 428.093C421.073 446.27 408.173 469.785 404.195 498.638C403.24 505.545 403.141 521.364 403.899 546.094C403.91 546.541 404.138 546.764 404.585 546.764L534.13 546.577" stroke="#80AFD3" stroke-width="2"/>
<path d="M534.131 546.577C542.024 547.678 550.048 548.042 558.201 547.668C558.354 547.659 558.506 547.682 558.65 547.735C558.793 547.787 558.924 547.868 559.035 547.973C559.146 548.079 559.234 548.205 559.294 548.345C559.355 548.486 559.386 548.637 559.385 548.79L559.401 565.46C559.401 566.321 559.739 567.148 560.342 567.763C560.945 568.377 561.765 568.731 562.626 568.747C567.019 568.825 571.008 568.856 575.884 569.495C578.543 569.848 581.218 570.004 583.908 569.962C585.829 569.942 586.863 570.269 587.008 570.944C587.187 571.805 587.101 572.701 586.762 573.513C586.423 574.325 585.846 575.015 585.108 575.493C582.802 576.973 581.618 579.56 580.075 581.211C578.642 582.738 577.271 584.311 575.962 585.932C575.682 586.295 575.308 586.472 574.84 586.461C573.916 586.451 573.231 586.809 572.784 587.536C572.545 587.91 572.218 588.175 571.802 588.331C570.463 588.84 569.429 589.645 568.702 590.746C568.432 591.151 568.094 591.494 567.689 591.774C561.707 595.747 559.603 603.537 559.136 610.61C558.97 613.248 558.456 615.341 557.594 616.889C556.555 618.758 555.293 620.581 553.808 622.357" stroke="#ECFBFB" stroke-width="2"/>
<path d="M553.808 622.357L549.882 626.081C549.383 626.548 549.425 626.963 550.006 627.327L557.095 631.767" stroke="#B2CAE7" stroke-width="2"/>
<path d="M557.095 631.767C557.78 632.712 558.118 633.766 558.108 634.93C558.092 638.092 558.544 640.772 558.279 643.717" stroke="#ECFBFB" stroke-width="2"/>
<path d="M558.279 643.717C553.823 644.589 550.583 646.661 548.557 649.933C548.326 650.305 548.233 650.748 548.296 651.183C548.358 651.619 548.572 652.02 548.9 652.317L561.379 663.534" stroke="#80AFD3" stroke-width="2"/>
<path d="M561.38 663.534C559.718 666.681 559.432 670.784 560.523 675.842C560.803 677.14 560.435 678.615 559.417 680.267" stroke="#ECFBFB" stroke-width="2"/>
<path d="M559.417 680.267C558.918 680.412 558.575 680.376 558.388 680.158" stroke="#8096B1" stroke-width="2"/>
<path d="M558.388 680.158L404.398 680.407C403.837 680.407 403.562 680.688 403.572 681.248L403.9 734.251" stroke="#80AFD3" stroke-width="2"/>
<path d="M403.9 734.25L403.853 790.166" stroke="#FFE2BC" stroke-width="2"/>
<path d="M637.891 546.811L622.296 546.998" stroke="#5F9FCD" stroke-width="2"/>
<path d="M622.296 546.998L622.405 518.222C622.426 513.621 620.136 511.196 615.535 510.946L613.587 510.837C612.925 510.801 612.262 510.899 611.639 511.123C611.015 511.347 610.442 511.694 609.956 512.143C609.469 512.592 609.078 513.134 608.805 513.737C608.532 514.339 608.384 514.99 608.368 515.651L607.636 546.515" stroke="#092F53" stroke-width="2"/>
<path d="M607.636 546.515L587.538 546.655" stroke="#6DAACF" stroke-width="2"/>
<path d="M587.537 546.655C589.033 544.38 589.397 541.228 588.628 537.198C587.46 530.997 588.659 524.968 588.784 520.247C589.054 510.058 588.945 503.426 588.457 500.352C585.32 480.555 576.673 463.605 562.516 449.5C559.785 446.768 557.832 445.236 556.658 444.904C553.231 443.891 548.806 446.104 549.102 449.967C549.165 450.912 549.788 452.315 550.972 454.174C555.189 460.852 557.5 465.407 557.905 467.837C560.242 481.734 559.79 492.001 559.821 508.937C559.837 517.77 561.083 533.334 559.961 545.705C559.92 546.172 560.128 546.437 560.585 546.499L562.937 546.811" stroke="#014584" stroke-width="2"/>
<path d="M562.937 546.811L534.131 546.577" stroke="#6DAACF" stroke-width="2"/>
<path d="M552.998 387.929C548.272 385.883 543.852 383.883 539.739 381.931C536.613 380.445 535.05 377.932 535.05 374.39C535.081 358.166 534.759 341.429 534.084 324.177C534.053 323.273 533.585 322.821 532.682 322.821L510.714 322.665" stroke="#014584" stroke-width="2"/>
<path d="M509.811 322.541C511.898 325.532 509.281 331.25 509.312 334.818C509.437 353.856 509.437 372.889 509.312 391.917C509.281 397.604 505.822 398.632 502.068 401.733C501.071 402.563 499.341 402.802 496.88 402.449" stroke="#0166B0" stroke-width="2"/>
<path d="M607.636 546.515L608.726 547.636C608.986 547.906 609.012 548.197 608.804 548.509C608.69 548.665 608.581 548.826 608.477 548.992C608.301 549.293 608.212 549.636 608.212 550.02C608.43 591.961 608.461 633.907 608.306 675.858C608.306 677.135 608.628 678.262 609.272 679.238" stroke="#9FC6E3" stroke-width="2"/>
<path d="M609.272 679.239L607.636 680.205" stroke="#757B7C" stroke-width="2"/>
<path d="M607.635 680.204L588.784 680.142" stroke="#6DAACF" stroke-width="2"/>
<path d="M588.784 680.142L559.417 680.267" stroke="#6D91AD" stroke-width="2"/>
<path d="M561.38 663.534C563.935 665.549 566.911 665.533 570.307 663.487C576.352 659.831 582.485 655.853 588.707 651.553C588.874 651.435 589.013 651.282 589.117 651.105C589.22 650.928 589.284 650.731 589.305 650.528C589.325 650.324 589.302 650.118 589.236 649.924C589.171 649.73 589.065 649.553 588.925 649.403C586.588 646.942 584.188 643.654 580.403 643.592C573.007 643.478 565.633 643.519 558.279 643.717" stroke="#6DAACF" stroke-width="2"/>
<path d="M557.095 631.767L558.139 632.048" stroke="#9FC6E3" stroke-width="2"/>
<path d="M558.139 632.048C558.84 632.609 559.447 633.045 560.413 633.029C564.859 633.019 569.32 633.008 573.796 632.998C578.953 632.967 582.521 630.91 585.73 627.358C586.333 626.683 586.276 626.081 585.559 625.551C580.314 621.656 575.095 617.901 569.901 614.287C565.819 611.451 562.579 615.346 559.073 618.618" stroke="#6DAACF" stroke-width="2"/>
<path d="M559.074 618.618L553.808 622.357" stroke="#9FC6E3" stroke-width="2"/>
<path d="M558.388 680.158C559.552 682.63 560.144 685.87 560.165 689.88C560.237 704.462 560.092 719.185 559.728 734.048" stroke="#014584" stroke-width="2"/>
<path d="M559.728 734.048L551.144 734.453" stroke="#7A5D6C" stroke-width="2"/>
<path d="M551.143 734.453L403.899 734.25" stroke="#809190" stroke-width="2"/>
<path d="M588.784 680.142C588.857 690.144 588.733 700.063 588.411 709.899C588.13 718.188 588.691 726.087 589.096 734.235" stroke="#014584" stroke-width="2"/>
<path d="M589.096 734.235L559.728 734.048" stroke="#79444A" stroke-width="2"/>
<path d="M551.144 734.453C550.043 735.949 548.765 737.304 547.311 738.519C530.657 752.463 516.495 766.532 497.191 777.219C489.256 781.602 481.632 785.913 474.32 790.15" stroke="#F99055" stroke-width="2"/>
<path d="M622.296 546.998L610.923 547.403" stroke="#67707A" stroke-width="2"/>
<path d="M610.923 547.403L607.636 546.515" stroke="#3B4B68" stroke-width="2"/>
<path d="M587.538 546.655L562.938 546.811" stroke="#6D91AD" stroke-width="2"/>
<path d="M610.923 547.403C614.319 550.207 617.918 547.481 621.455 548.93C622.483 549.345 622.997 550.108 622.997 551.22L623.449 676.2C623.45 676.543 623.373 676.882 623.223 677.191C623.073 677.499 622.854 677.769 622.583 677.98C622.312 678.191 621.996 678.336 621.66 678.406C621.324 678.476 620.977 678.467 620.645 678.381C618.276 677.769 615.841 677.81 613.338 678.506C612.964 678.61 612.735 678.885 612.652 679.332" stroke="#91BAE1" stroke-width="2"/>
<path d="M612.653 679.332C611.562 679.498 610.435 679.467 609.272 679.239" stroke="#3B4B68" stroke-width="2"/>
<path d="M637.969 679.659L622.327 679.472" stroke="#5F9FCD" stroke-width="2"/>
<path d="M622.327 679.472L612.652 679.332" stroke="#67707A" stroke-width="2"/>
<path d="M558.139 632.047C559.281 627.903 559.593 623.426 559.073 618.618" stroke="#337ABB" stroke-width="2"/>
<path d="M622.327 679.472L622.078 734.547" stroke="#092F53" stroke-width="2"/>
<path d="M622.078 734.546L608.197 734.858" stroke="#3B0000" stroke-width="2"/>
<path d="M608.197 734.858C607.885 734.224 607.714 734.053 607.683 734.344" stroke="#812E19" stroke-width="2"/>
<path d="M607.683 734.344L607.636 680.204" stroke="#092F53" stroke-width="2"/>
<path d="M607.683 734.344L589.096 734.235" stroke="#7A5D6C" stroke-width="2"/>
<path d="M608.196 734.858L608.134 789.995" stroke="#AC2E19" stroke-width="2"/>
<path d="M638.016 734.282L622.078 734.546" stroke="#7A5D6C" stroke-width="2"/>
<path d="M622.078 734.546L622.156 790.073" stroke="#AC2E19" stroke-width="2"/>
<path d="M552.374 236.837L550.131 235.107C549.736 234.796 549.284 234.635 548.775 234.624L495.103 233.845L486.566 233.596C507.318 233.264 528.039 233.316 548.729 233.752C550.957 233.799 551.985 234.702 552.374 236.837Z" fill="#F25C31"/>
<path d="M486.566 233.596L495.104 233.845C498.235 234.204 503.719 236.167 503.984 239.781C504.078 240.965 503.75 241.879 503.003 242.523C502.411 243.043 501.273 243.224 499.591 243.069C497.835 242.903 495.851 243.043 493.639 243.489L493.156 274.399C493.149 274.91 492.946 275.398 492.589 275.763C492.233 276.128 491.75 276.343 491.24 276.363L480.755 276.83C480.713 264.854 480.76 252.977 480.895 241.199C480.936 237.231 482.827 234.697 486.566 233.596Z" fill="white"/>
<path d="M495.103 233.846L548.775 234.625C549.284 234.635 549.736 234.796 550.131 235.108L552.374 236.837C553.153 237.616 553.553 238.416 553.574 239.236C553.782 247.608 553.813 259.947 553.667 276.254L545.192 276.347L545.426 245.001C545.436 244.481 545.202 244.123 544.725 243.926C543.946 243.614 543.037 243.583 541.998 243.832C539.91 243.084 537.605 243.006 535.081 243.598L517.787 243.193L513.581 244.253L513.363 271.86C513.093 273.003 513.015 274.088 513.129 275.116C513.149 275.305 513.124 275.496 513.058 275.674C512.991 275.852 512.884 276.013 512.745 276.142C512.606 276.272 512.439 276.368 512.257 276.423C512.075 276.477 511.883 276.488 511.696 276.456C509.92 276.155 508.091 276.067 506.212 276.191C505.059 276.274 504.202 276.108 503.641 275.693C501.787 274.322 502.722 272.53 502.706 270.941C502.613 263.037 502.753 255.128 503.127 247.213C503.241 244.928 502.156 243.749 499.871 243.676L493.639 243.489C495.851 243.043 497.835 242.903 499.59 243.069C501.273 243.225 502.41 243.043 503.002 242.523C503.75 241.88 504.077 240.966 503.984 239.781C503.719 236.167 498.235 234.204 495.103 233.846Z" fill="#FFC479"/>
<path d="M535.081 243.598C534.863 243.671 534.645 243.749 534.426 243.832L534.38 276.02C534.38 276.226 534.298 276.424 534.152 276.57C534.005 276.717 533.807 276.799 533.601 276.799L525.904 276.876C525.737 276.879 525.572 276.847 525.417 276.784C525.262 276.72 525.121 276.627 525.002 276.508C524.883 276.389 524.789 276.248 524.724 276.091C524.66 275.935 524.627 275.768 524.627 275.599C524.606 265.742 524.575 255.896 524.533 246.06C524.533 244.772 523.801 244.159 522.337 244.221L517.787 243.193L535.081 243.598Z" fill="#FF7F4F"/>
<path d="M541.998 243.832C540.046 244.258 537.522 244.258 534.427 243.832C534.645 243.749 534.863 243.671 535.081 243.598C537.605 243.006 539.911 243.084 541.998 243.832Z" fill="#660000"/>
<path d="M493.639 243.489L499.871 243.676C502.156 243.749 503.241 244.928 503.127 247.213C502.753 255.127 502.613 263.037 502.707 270.941C502.722 272.53 501.787 274.322 503.641 275.693C504.202 276.108 505.059 276.274 506.212 276.191C508.092 276.067 509.92 276.155 511.696 276.456C511.883 276.488 512.076 276.477 512.258 276.422C512.44 276.368 512.607 276.272 512.746 276.142C512.884 276.013 512.991 275.852 513.058 275.674C513.125 275.496 513.149 275.305 513.129 275.116C513.015 274.088 513.093 273.003 513.363 271.86L513.27 275.49C513.257 275.996 513.047 276.476 512.685 276.826C512.324 277.176 511.839 277.368 511.338 277.36L480.755 276.83L491.24 276.363C491.75 276.343 492.233 276.128 492.589 275.763C492.946 275.398 493.149 274.91 493.156 274.4L493.639 243.489Z" fill="#FF7F4F"/>
<path d="M517.788 243.193L522.337 244.221L513.581 244.253L517.788 243.193Z" fill="#660000"/>
<path d="M545.192 276.347L553.668 276.254C550.604 277.064 547.779 277.095 545.192 276.347Z" fill="#F25C31"/>
<path d="M510.559 299.047L510.715 322.665C510.33 322.696 510.029 322.655 509.811 322.541L496.194 322.494L495.898 299.374L510.559 299.047Z" fill="#004388"/>
<path d="M552.997 387.929C548.272 385.883 543.852 383.883 539.739 381.931C536.613 380.445 535.05 377.932 535.05 374.39C535.081 358.166 534.759 341.429 534.084 324.177C534.053 323.273 533.585 322.821 532.682 322.821L510.714 322.665L510.558 299.047L552 299.374C552.341 299.378 552.666 299.516 552.905 299.758C553.144 300 553.278 300.326 553.278 300.667L552.997 387.929Z" fill="#002C62"/>
<path d="M495.898 299.374L496.194 322.494L496.879 402.449C476.595 406.469 458.6 415.017 442.896 428.093C421.074 446.27 408.174 469.785 404.196 498.638C403.24 505.545 403.142 521.364 403.9 546.094C403.91 546.541 404.139 546.764 404.585 546.764L534.131 546.577C542.024 547.678 550.048 548.042 558.201 547.668C558.354 547.659 558.506 547.682 558.65 547.734C558.793 547.787 558.924 547.868 559.035 547.973C559.146 548.078 559.234 548.205 559.294 548.345C559.355 548.486 559.386 548.637 559.385 548.789L559.401 565.46C559.401 566.321 559.738 567.148 560.342 567.762C560.945 568.377 561.765 568.731 562.626 568.747C567.019 568.825 571.008 568.856 575.884 569.495C578.543 569.848 581.218 570.004 583.908 569.962C585.829 569.941 586.863 570.269 587.008 570.944C587.187 571.805 587.101 572.701 586.762 573.513C586.423 574.325 585.846 575.015 585.107 575.493C582.802 576.973 581.618 579.559 580.075 581.211C578.642 582.738 577.271 584.311 575.962 585.931C575.682 586.295 575.308 586.472 574.84 586.461C573.916 586.451 573.23 586.809 572.784 587.536C572.545 587.91 572.218 588.175 571.802 588.331C570.462 588.84 569.429 589.645 568.702 590.746C568.432 591.151 568.094 591.493 567.689 591.774C561.707 595.747 559.603 603.536 559.136 610.61C558.97 613.248 558.456 615.341 557.594 616.888C556.555 618.758 555.293 620.581 553.808 622.357L549.882 626.08C549.383 626.548 549.425 626.963 550.006 627.327L557.095 631.767C557.781 632.712 558.118 633.766 558.108 634.93C558.092 638.092 558.544 640.772 558.279 643.717C553.823 644.589 550.583 646.661 548.557 649.933C548.326 650.305 548.233 650.748 548.296 651.183C548.358 651.619 548.572 652.02 548.9 652.317L561.379 663.534C559.718 666.681 559.432 670.784 560.523 675.842C560.803 677.14 560.434 678.615 559.416 680.267C558.918 680.412 558.575 680.376 558.388 680.158L404.398 680.407C403.837 680.407 403.562 680.687 403.573 681.248L403.9 734.25L403.853 790.166L386.98 789.87C386.388 789.86 386.092 789.558 386.092 788.966C385.874 698.012 386.045 607.084 386.606 516.181C386.689 502.139 387.338 491.788 388.554 485.131C397.341 436.911 431.507 400.019 479.352 389.066C479.93 388.935 480.446 388.61 480.815 388.145C481.183 387.68 481.382 387.104 481.378 386.511L480.941 300.044C480.941 299.535 481.191 299.28 481.689 299.28L495.898 299.374Z" fill="white"/>
<path d="M496.194 322.494L509.811 322.541C511.898 325.532 509.281 331.25 509.312 334.817C509.437 353.856 509.437 372.889 509.312 391.917C509.281 397.604 505.822 398.632 502.068 401.732C501.07 402.563 499.341 402.802 496.88 402.449L496.194 322.494Z" fill="#006DB9"/>
<path d="M509.81 322.541C510.028 322.655 510.33 322.697 510.714 322.665L532.681 322.821C533.585 322.821 534.052 323.273 534.084 324.177C534.759 341.429 535.081 358.166 535.049 374.39C535.049 377.932 536.613 380.445 539.739 381.931C543.852 383.883 548.271 385.883 552.997 387.929C557.11 390.65 559.868 392.239 561.27 392.696C575.697 397.464 588.924 405.669 600.952 417.312C618.9 434.699 630.423 454.922 635.523 477.98C637.091 485.094 637.912 494.936 637.985 507.503C638.057 520.621 638.026 533.724 637.891 546.811L622.296 546.998L622.405 518.222C622.426 513.621 620.135 511.196 615.534 510.946L613.587 510.837C612.925 510.802 612.262 510.899 611.638 511.123C611.014 511.348 610.442 511.695 609.955 512.144C609.469 512.592 609.077 513.134 608.804 513.737C608.532 514.339 608.383 514.99 608.368 515.651L607.635 546.515L587.538 546.655C589.033 544.38 589.397 541.228 588.628 537.198C587.46 530.997 588.659 524.968 588.784 520.247C589.054 510.058 588.945 503.427 588.457 500.352C585.32 480.555 576.673 463.605 562.517 449.5C559.785 446.768 557.832 445.236 556.659 444.904C553.231 443.891 548.806 446.104 549.102 449.967C549.165 450.913 549.788 452.315 550.972 454.174C555.189 460.852 557.5 465.407 557.905 467.837C560.242 481.734 559.79 492.001 559.821 508.937C559.837 517.77 561.083 533.334 559.961 545.705C559.92 546.172 560.128 546.437 560.585 546.499L562.937 546.811L534.13 546.577L404.585 546.764C404.138 546.764 403.91 546.541 403.899 546.094C403.141 521.364 403.24 505.545 404.195 498.638C408.173 469.785 421.073 446.27 442.895 428.093C458.6 415.017 476.594 406.469 496.879 402.449C499.341 402.802 501.07 402.563 502.067 401.733C505.822 398.632 509.281 397.604 509.312 391.917C509.436 372.889 509.436 353.856 509.312 334.818C509.281 331.25 511.898 325.532 509.81 322.541Z" fill="#015EA6"/>
<path d="M587.537 546.655L562.937 546.811L560.585 546.499C560.128 546.437 559.92 546.172 559.961 545.705C561.083 533.334 559.837 517.77 559.821 508.937C559.79 492.001 560.242 481.734 557.905 467.837C557.5 465.407 555.189 460.852 550.972 454.174C549.788 452.315 549.165 450.912 549.102 449.967C548.806 446.104 553.231 443.891 556.658 444.904C557.832 445.236 559.785 446.768 562.516 449.5C576.673 463.605 585.32 480.555 588.457 500.352C588.945 503.426 589.054 510.058 588.784 520.247C588.659 524.968 587.46 530.997 588.628 537.198C589.397 541.228 589.033 544.38 587.537 546.655Z" fill="#002C62"/>
<path d="M622.296 546.998L610.923 547.403L607.636 546.515L608.368 515.651C608.384 514.99 608.532 514.339 608.805 513.737C609.078 513.134 609.469 512.592 609.956 512.143C610.442 511.694 611.015 511.347 611.639 511.123C612.262 510.899 612.925 510.801 613.587 510.837L615.535 510.946C620.136 511.196 622.426 513.621 622.405 518.222L622.296 546.998Z" fill="#100000"/>
<path d="M534.131 546.577L562.938 546.811L587.538 546.655L607.636 546.515L608.726 547.636C608.986 547.906 609.012 548.197 608.804 548.509C608.69 548.665 608.581 548.826 608.477 548.992C608.301 549.293 608.212 549.636 608.212 550.02C608.43 591.961 608.461 633.907 608.306 675.858C608.306 677.135 608.628 678.262 609.272 679.238L607.636 680.204L588.784 680.142L559.417 680.267C560.434 678.615 560.803 677.14 560.523 675.842C559.432 670.784 559.718 666.681 561.38 663.534C563.935 665.549 566.91 665.533 570.307 663.487C576.352 659.831 582.485 655.853 588.706 651.553C588.874 651.435 589.013 651.282 589.117 651.105C589.22 650.928 589.284 650.731 589.305 650.528C589.325 650.324 589.302 650.118 589.236 649.924C589.171 649.73 589.064 649.553 588.924 649.403C586.588 646.942 584.188 643.654 580.402 643.592C573.007 643.478 565.633 643.519 558.279 643.717C558.544 640.772 558.092 638.092 558.108 634.93C558.118 633.766 557.781 632.712 557.095 631.767L558.139 632.047C558.84 632.608 559.448 633.044 560.414 633.029C564.859 633.018 569.32 633.008 573.797 632.998C578.954 632.967 582.521 630.91 585.731 627.358C586.333 626.683 586.276 626.08 585.559 625.551C580.314 621.656 575.095 617.901 569.902 614.286C565.82 611.451 562.579 615.346 559.074 618.618L553.808 622.357C555.293 620.581 556.555 618.758 557.594 616.888C558.456 615.341 558.97 613.248 559.136 610.61C559.603 603.536 561.707 595.747 567.689 591.774C568.094 591.493 568.432 591.151 568.702 590.745C569.429 589.645 570.463 588.84 571.802 588.331C572.218 588.175 572.545 587.91 572.784 587.536C573.231 586.809 573.916 586.451 574.84 586.461C575.308 586.471 575.682 586.295 575.962 585.931C577.271 584.311 578.642 582.738 580.075 581.211C581.618 579.559 582.802 576.973 585.108 575.493C585.846 575.015 586.423 574.325 586.762 573.513C587.101 572.701 587.187 571.805 587.008 570.944C586.863 570.269 585.829 569.941 583.908 569.962C581.218 570.004 578.543 569.848 575.884 569.495C571.008 568.856 567.019 568.825 562.626 568.747C561.765 568.731 560.945 568.377 560.342 567.762C559.739 567.148 559.401 566.321 559.401 565.46L559.385 548.789C559.386 548.637 559.355 548.485 559.294 548.345C559.234 548.205 559.146 548.078 559.035 547.973C558.924 547.868 558.793 547.787 558.65 547.734C558.506 547.682 558.354 547.659 558.201 547.668C550.048 548.041 542.024 547.678 534.131 546.577Z" fill="#D9F6F7"/>
<path d="M607.636 546.515L610.923 547.403C614.32 550.207 617.918 547.481 621.455 548.93C622.483 549.345 622.997 550.108 622.997 551.22L623.449 676.2C623.451 676.543 623.373 676.882 623.223 677.191C623.073 677.499 622.854 677.769 622.583 677.98C622.312 678.191 621.997 678.336 621.661 678.406C621.325 678.476 620.977 678.467 620.645 678.381C618.277 677.769 615.841 677.81 613.338 678.506C612.964 678.61 612.736 678.885 612.652 679.332C611.562 679.498 610.435 679.467 609.272 679.238C608.628 678.262 608.306 677.135 608.306 675.858C608.461 633.907 608.43 591.961 608.212 550.02C608.212 549.636 608.301 549.293 608.477 548.992C608.581 548.826 608.69 548.665 608.804 548.509C609.012 548.197 608.986 547.906 608.726 547.636L607.636 546.515Z" fill="#6595CF"/>
<path d="M637.891 546.811L637.969 679.659L622.327 679.472L612.652 679.332C612.735 678.885 612.964 678.61 613.338 678.506C615.841 677.81 618.276 677.769 620.645 678.382C620.977 678.467 621.324 678.476 621.66 678.406C621.996 678.337 622.312 678.191 622.583 677.98C622.854 677.77 623.073 677.5 623.223 677.191C623.373 676.883 623.45 676.544 623.449 676.2L622.997 551.22C622.997 550.109 622.483 549.345 621.455 548.93C617.918 547.481 614.319 550.207 610.923 547.403L622.296 546.998L637.891 546.811Z" fill="#BDDFF3"/>
<path d="M558.139 632.048C559.281 627.903 559.593 623.427 559.073 618.618C562.579 615.346 565.819 611.451 569.901 614.287C575.095 617.901 580.314 621.656 585.559 625.551C586.276 626.081 586.333 626.683 585.73 627.358C582.521 630.91 578.953 632.967 573.796 632.998C569.32 633.008 564.859 633.019 560.413 633.029C559.447 633.045 558.84 632.609 558.139 632.048Z" fill="#015EA6"/>
<path d="M559.074 618.618C559.593 623.427 559.281 627.903 558.139 632.048L557.095 631.767L550.006 627.327C549.425 626.963 549.383 626.548 549.882 626.081L553.808 622.357L559.074 618.618Z" fill="#6595CF"/>
<path d="M561.379 663.534L548.9 652.317C548.572 652.02 548.358 651.619 548.296 651.183C548.233 650.748 548.326 650.305 548.557 649.933C550.583 646.661 553.823 644.589 558.279 643.717C565.633 643.519 573.007 643.478 580.402 643.592C584.188 643.654 586.587 646.942 588.924 649.403C589.064 649.553 589.171 649.73 589.236 649.924C589.302 650.118 589.325 650.324 589.304 650.528C589.284 650.731 589.22 650.928 589.116 651.105C589.013 651.282 588.874 651.435 588.706 651.553C582.485 655.853 576.352 659.831 570.307 663.487C566.91 665.533 563.935 665.549 561.379 663.534Z" fill="#015EA6"/>
<path d="M609.272 679.238C610.435 679.467 611.562 679.498 612.652 679.332L622.327 679.472L622.078 734.546L608.197 734.858C607.885 734.224 607.714 734.053 607.683 734.344L607.636 680.204L609.272 679.238Z" fill="#100000"/>
<path d="M622.327 679.472L637.969 679.659L638.016 734.282L622.078 734.547L622.327 679.472Z" fill="#015EA6"/>
<path d="M558.388 680.158C559.551 682.63 560.143 685.87 560.164 689.88C560.237 704.462 560.091 719.185 559.728 734.048L551.143 734.453L403.9 734.251L403.572 681.248C403.562 680.688 403.837 680.407 404.398 680.407L558.388 680.158Z" fill="#015EA6"/>
<path d="M558.388 680.158C558.575 680.376 558.918 680.412 559.417 680.267L588.784 680.142C588.857 690.144 588.733 700.063 588.411 709.899C588.13 718.188 588.691 726.087 589.096 734.235L559.728 734.048C560.092 719.185 560.237 704.462 560.165 689.879C560.144 685.87 559.552 682.63 558.388 680.158Z" fill="#002C62"/>
<path d="M588.784 680.142L607.636 680.204L607.683 734.344L589.096 734.235C588.691 726.087 588.13 718.188 588.411 709.899C588.733 700.063 588.857 690.144 588.784 680.142Z" fill="#015EA6"/>
<path d="M551.144 734.453C550.043 735.949 548.765 737.304 547.311 738.519C530.657 752.463 516.495 766.532 497.191 777.219C489.256 781.602 481.632 785.913 474.32 790.151L403.853 790.166L403.9 734.25L551.144 734.453Z" fill="#FFC479"/>
<path d="M559.728 734.048L589.096 734.235L607.683 734.344C607.714 734.053 607.885 734.225 608.197 734.858L608.135 789.995L474.32 790.151C481.632 785.913 489.256 781.603 497.191 777.219C516.495 766.532 530.657 752.463 547.311 738.519C548.765 737.304 550.043 735.949 551.144 734.453L559.728 734.048Z" fill="#F25C31"/>
<path d="M622.078 734.546L622.156 790.073L608.134 789.995L608.196 734.858L622.078 734.546Z" fill="#660000"/>
<path d="M638.016 734.282L637.782 789.044C637.782 789.616 637.496 789.901 636.925 789.901L622.156 790.073L622.078 734.546L638.016 734.282Z" fill="#F25C31"/>
<path d="M404.04 659.733C434.748 633.528 464.708 606.528 495.213 580.089C500.058 575.898 504.436 572.268 510.684 572.221C534.957 572.035 559.157 571.811 583.285 571.552C584.739 571.541 584.9 571.993 583.768 572.907C575.028 579.933 565.711 588.845 558.342 595.217C534.676 615.627 511.478 636.597 487.33 656.43C483.84 659.297 480.833 661.041 476.003 661.026C452.769 661.015 429.534 661.228 406.299 661.665C405.344 661.685 404.591 661.462 404.04 660.995C403.95 660.915 403.877 660.817 403.827 660.707C403.777 660.597 403.751 660.478 403.751 660.358C403.751 660.239 403.777 660.121 403.827 660.013C403.877 659.905 403.95 659.809 404.04 659.733Z" fill="#FF7F4F"/>
<path d="M607.636 491.877C605.455 473.228 594.985 455.28 582.506 441.632C571.34 429.407 556.81 420.366 538.914 414.508C538.24 414.286 537.621 413.922 537.099 413.441C536.577 412.96 536.164 412.373 535.888 411.719C535.612 411.065 535.479 410.36 535.498 409.65C535.518 408.941 535.689 408.244 536.001 407.606L536.686 406.204C538.784 401.935 542.082 400.569 546.579 402.106C575.911 412.16 597.483 430.799 611.297 458.022C616.298 467.9 618.931 478.946 621.409 489.68C623.153 497.236 622.297 503.016 613.292 503.421C611.453 503.515 610.259 502.679 609.708 500.913C608.758 497.906 608.026 495.242 607.636 491.877Z" fill="#100000"/>
<path d="M430.245 477.481C437.734 461.59 448.707 448.747 463.165 438.952C469.599 434.59 475.972 428.919 484.244 431.864C493.421 435.12 492.502 445.527 485.273 449.874C471.609 458.084 462.074 465.157 453.63 478.354C450.577 483.121 448.255 489.96 445.591 494.292C442.179 499.807 434.233 501.614 429.746 496.208C425.446 491.051 427.534 483.214 430.245 477.481Z" fill="white"/>
<path d="M441.421 767.459C441.781 768.716 441.882 770.034 441.717 771.338C441.551 772.641 441.123 773.906 440.458 775.058C439.792 776.211 438.901 777.229 437.836 778.055C436.771 778.881 435.553 779.498 434.251 779.872C432.949 780.245 431.589 780.367 430.248 780.231C428.907 780.095 427.612 779.703 426.437 779.079C425.261 778.454 424.228 777.609 423.397 776.59C422.566 775.572 421.953 774.401 421.592 773.145C421.232 771.888 421.132 770.57 421.297 769.266C421.462 767.962 421.89 766.698 422.556 765.545C423.222 764.392 424.113 763.374 425.178 762.548C426.242 761.722 427.461 761.105 428.763 760.732C430.065 760.358 431.425 760.236 432.766 760.372C434.106 760.508 435.401 760.9 436.577 761.525C437.752 762.149 438.785 762.995 439.616 764.013C440.447 765.031 441.061 766.202 441.421 767.459Z" fill="white"/>
</svg>
