<svg width="1024" height="1024" viewBox="0 0 1024 1024" fill="none" xmlns="http://www.w3.org/2000/svg">
<rect width="1024" height="1024" fill="white"/>
<path d="M763.479 346.136L763.027 349.377" stroke="#616C78" stroke-width="2"/>
<path d="M763.027 349.377C761.901 351.394 761.495 353.547 761.809 355.839" stroke="#3D4E63" stroke-width="2"/>
<path d="M761.809 355.839C754.11 395.042 727.988 434.146 703.221 464.314C695.228 474.056 683.541 485.801 673.996 496.898C671.659 499.608 667.966 501.003 665.884 504.499C665.478 505.193 665.59 505.802 666.218 506.325C671.77 510.856 675.842 516.447 678.435 523.098C678.637 523.621 678.992 524.072 679.454 524.394C679.915 524.716 680.463 524.894 681.027 524.905C688.36 525.023 693.957 527.275 697.82 531.662" stroke="#616C78" stroke-width="2"/>
<path d="M511.627 664.845L509.152 638.585C509.105 638.064 508.917 637.565 508.609 637.142C508.3 636.719 507.882 636.388 507.4 636.184C506.918 635.98 506.389 635.912 505.871 635.985C505.353 636.059 504.864 636.272 504.458 636.601C499.292 640.785 494.402 645.42 489.295 649.073C463.906 667.169 437.81 684.158 411.008 700.04C381.507 717.521 356.073 731.74 326.219 743.466C303.573 752.363 280.869 759.768 257.418 752.559" stroke="#616C78" stroke-width="2"/>
<path d="M761.81 355.839C763.315 353.77 763.721 351.616 763.027 349.377" stroke="#9DB8D1" stroke-width="2"/>
<path d="M373.357 760.651C369.049 762.393 366.463 765.588 365.599 770.236" stroke="#616C78" stroke-width="2"/>
<path d="M763.479 346.136L763.027 349.377C761.901 351.394 761.495 353.547 761.81 355.839C754.11 395.041 727.988 434.146 703.221 464.314C695.228 474.056 683.542 485.801 673.996 496.898C671.659 499.608 667.966 501.003 665.885 504.499C665.479 505.193 665.59 505.801 666.219 506.325C671.77 510.856 675.842 516.447 678.435 523.098C678.638 523.621 678.992 524.072 679.454 524.394C679.916 524.716 680.463 524.894 681.028 524.905C688.36 525.023 693.958 527.275 697.82 531.662L701.964 537.711C702.124 537.947 702.347 538.133 702.608 538.247C702.868 538.362 703.156 538.401 703.437 538.359C713.395 536.984 720.27 534.451 729.029 541.619C738.339 549.253 742.522 559.172 741.58 571.375C741.566 571.531 741.585 571.688 741.635 571.836C741.685 571.985 741.765 572.121 741.87 572.238C741.975 572.354 742.103 572.447 742.245 572.511C742.388 572.576 742.542 572.61 742.699 572.612C751.498 572.652 763.97 570.511 764.225 583.67C764.54 598.806 764.422 616.64 763.872 637.171C762.837 675.837 752.997 712.035 734.352 745.764C734.304 745.854 734.279 745.954 734.28 746.056C734.281 746.157 734.308 746.257 734.357 746.344C734.406 746.431 734.477 746.503 734.562 746.553C734.648 746.602 734.744 746.628 734.843 746.628C743.275 746.72 751.721 746.687 760.179 746.53C765.613 746.412 769.574 747.185 772.062 748.848C779.938 754.052 778.111 764.933 776.972 774.263C776.147 781.039 774.34 785.438 769.764 789.995C769.639 790.118 769.554 790.276 769.519 790.449C769.484 790.621 769.502 790.8 769.569 790.962C769.637 791.125 769.751 791.263 769.898 791.36C770.044 791.457 770.217 791.508 770.392 791.507C777.168 791.487 796.357 789.582 801.464 793.432C806.767 797.438 805.804 806.336 800.442 809.989C798.531 811.298 795.788 811.953 792.213 811.953C609.215 812.031 426.21 812.012 243.199 811.894C237.425 811.894 231.179 806.768 232.848 800.679C234.734 793.687 239.33 791.291 246.616 791.291C323.385 791.396 400.154 791.481 476.922 791.546C481.832 791.546 486.873 791.638 492.045 791.821C492.222 791.83 492.397 791.786 492.549 791.696C492.701 791.606 492.823 791.473 492.901 791.314C492.978 791.155 493.007 790.977 492.984 790.802C492.961 790.627 492.888 790.462 492.772 790.329C484.916 780.98 476.922 761.712 485.446 750.34C487.489 747.617 490.54 746.268 494.599 746.294C509.735 746.425 524.728 746.733 539.576 747.217C539.755 747.221 539.931 747.178 540.087 747.09C540.243 747.003 540.373 746.876 540.463 746.721C540.553 746.567 540.6 746.392 540.6 746.213C540.599 746.034 540.551 745.859 540.46 745.705C524.963 720.447 517.382 693.638 511.627 664.845L509.153 638.585C509.106 638.064 508.918 637.565 508.609 637.142C508.301 636.719 507.883 636.388 507.401 636.184C506.919 635.981 506.39 635.912 505.872 635.985C505.353 636.059 504.865 636.272 504.458 636.601C499.293 640.785 494.402 645.42 489.296 649.073C463.907 667.169 437.811 684.158 411.008 700.041C381.508 717.521 356.074 731.741 326.22 743.466C303.574 752.363 280.87 759.768 257.419 752.56C222.183 737.849 214.465 707.759 221.221 672.563C223.833 658.933 226.877 645.95 231.631 632.575C246.675 590.151 263.704 548.14 293.106 513.317C293.813 512.479 294.003 510.908 293.675 508.604C290.847 488.884 298.487 471.797 309.997 456.084C329.618 429.295 351.536 405.058 379.642 386.95C379.844 386.821 380.013 386.646 380.135 386.438C380.258 386.23 380.331 385.995 380.349 385.751C382.058 358.883 392.251 336.866 415.918 323.275C424.796 318.181 429.837 315.248 431.042 314.476C448.915 302.809 467.495 295.13 485.721 286.095C486.958 285.489 487.914 284.442 488.392 283.169C494.363 267.26 497.447 255.672 512.079 245.714C517.552 241.982 526.881 238.427 540.067 235.049C565.993 228.424 592.376 224.561 619.218 223.461C625.877 223.186 629.648 220.26 635.304 217.431C645.694 212.227 657.695 210.989 669.145 212.757C711.471 219.278 746.666 250.428 759.944 290.494C765.404 306.94 766.582 325.488 763.479 346.136Z" fill="#01020A"/>
<path d="M388.775 265.472C385.868 263.567 383.079 262.074 381.921 258.578C379.839 252.352 379.544 239.802 386.497 236.954C390.955 235.127 396.219 236.345 399.106 240.077C402.425 244.319 401.404 251.901 401.129 257.302C401.118 257.501 401.154 257.7 401.233 257.883C401.312 258.067 401.432 258.229 401.584 258.359C401.736 258.488 401.916 258.58 402.109 258.629C402.303 258.677 402.505 258.68 402.7 258.637C409.869 257.046 419.061 259.069 421.869 266.435C424.855 274.232 411.696 279.123 406.334 278.612C405.441 278.524 404.548 278.768 403.823 279.297C403.099 279.826 402.594 280.603 402.406 281.479C401.476 285.8 399.931 290.108 397.77 294.403C392.389 305.068 381.881 303.85 371.943 303.634C371.463 303.623 370.995 303.78 370.619 304.078C370.242 304.375 369.981 304.795 369.881 305.264C369.265 308.184 368.283 310.986 366.935 313.67C361.416 324.708 345.86 315.831 349.199 305.736C350.784 300.943 351.995 296.053 352.833 291.064C352.934 290.466 353.232 289.92 353.677 289.512C360.846 282.933 370.058 284.465 378.778 284.759C379.449 284.782 380.108 284.571 380.641 284.163C381.175 283.755 381.551 283.174 381.705 282.52C383.079 276.864 385.528 271.718 389.05 267.083C389.521 266.441 389.43 265.904 388.775 265.472Z" fill="#01020A"/>
<path d="M353.135 286.43C351.376 288.73 348.701 290.182 345.699 290.464C342.696 290.746 339.613 289.837 337.126 287.935C334.639 286.034 332.952 283.296 332.438 280.325C331.923 277.354 332.622 274.392 334.381 272.091C336.14 269.79 338.815 268.339 341.818 268.057C344.82 267.774 347.904 268.684 350.391 270.585C352.878 272.487 354.564 275.224 355.079 278.196C355.593 281.167 354.894 284.129 353.135 286.43Z" fill="#01020A"/>
<path d="M281.052 297.366C280.791 298.763 280.247 300.093 279.453 301.28C278.658 302.467 277.628 303.488 276.421 304.284C275.215 305.081 273.855 305.638 272.42 305.922C270.985 306.207 269.502 306.214 268.057 305.944C265.139 305.398 262.55 303.753 260.859 301.372C259.169 298.991 258.516 296.068 259.044 293.247C259.305 291.85 259.849 290.52 260.643 289.333C261.438 288.146 262.468 287.125 263.675 286.329C264.881 285.532 266.241 284.976 267.676 284.691C269.111 284.406 270.594 284.399 272.039 284.669C274.957 285.215 277.546 286.86 279.237 289.241C280.927 291.622 281.58 294.545 281.052 297.366Z" fill="#01020A"/>
<path d="M327.724 341.284C327.778 342.696 327.54 344.106 327.023 345.433C326.506 346.759 325.721 347.977 324.711 349.016C323.702 350.055 322.488 350.895 321.14 351.488C319.791 352.081 318.334 352.416 316.852 352.473C315.37 352.53 313.892 352.308 312.502 351.82C311.112 351.332 309.838 350.587 308.752 349.629C307.665 348.671 306.788 347.517 306.171 346.234C305.554 344.951 305.208 343.563 305.154 342.151C305.1 340.738 305.338 339.329 305.855 338.002C306.372 336.675 307.158 335.458 308.167 334.419C309.177 333.38 310.39 332.54 311.739 331.947C313.087 331.354 314.544 331.019 316.026 330.962C317.508 330.905 318.986 331.127 320.376 331.615C321.766 332.103 323.04 332.847 324.127 333.806C325.213 334.764 326.09 335.918 326.707 337.201C327.324 338.484 327.67 339.871 327.724 341.284Z" fill="#01020A"/>
<path d="M763.479 346.136L764.186 353.855C764.225 354.183 764.402 354.392 764.716 354.484C764.926 354.536 765.096 354.608 765.227 354.7C765.345 354.765 765.436 354.883 765.502 355.053C768.317 362.386 769.809 368.213 769.98 372.533C770.824 394.963 770.392 412.404 764.107 431.573C751.576 469.774 724.924 498.489 700.157 527.734C699.843 528.1 699.509 528.336 699.156 528.441C698.933 528.519 698.697 528.572 698.449 528.598C698.017 528.663 697.774 528.912 697.722 529.344C697.617 530.038 697.65 530.811 697.82 531.662C693.957 527.275 688.36 525.023 681.027 524.905C680.463 524.894 679.915 524.716 679.454 524.394C678.992 524.073 678.637 523.621 678.435 523.098C675.842 516.447 671.77 510.856 666.218 506.325C665.59 505.802 665.478 505.193 665.884 504.499C667.966 501.003 671.659 499.608 673.996 496.898C683.541 485.801 695.227 474.056 703.221 464.314C727.988 434.146 754.11 395.042 761.809 355.839C763.315 353.77 763.721 351.616 763.027 349.377L763.479 346.136Z" fill="#C0D5E6"/>
<path d="M763.027 349.377C763.721 351.616 763.315 353.77 761.809 355.839C761.495 353.547 761.901 351.394 763.027 349.377Z" fill="#799ABC"/>
<path d="M271.973 417.687C271.973 419.142 271.687 420.582 271.13 421.926C270.573 423.27 269.757 424.491 268.728 425.52C267.7 426.548 266.479 427.364 265.135 427.921C263.791 428.478 262.35 428.764 260.896 428.764C259.441 428.764 258.001 428.478 256.657 427.921C255.313 427.364 254.092 426.548 253.063 425.52C252.034 424.491 251.218 423.27 250.662 421.926C250.105 420.582 249.818 419.142 249.818 417.687C249.818 416.232 250.105 414.792 250.662 413.448C251.218 412.104 252.034 410.883 253.063 409.854C254.092 408.825 255.313 408.01 256.657 407.453C258.001 406.896 259.441 406.61 260.896 406.61C262.35 406.61 263.791 406.896 265.135 407.453C266.479 408.01 267.7 408.825 268.728 409.854C269.757 410.883 270.573 412.104 271.13 413.448C271.687 414.792 271.973 416.232 271.973 417.687Z" fill="#01020A"/>
<path d="M268.599 496.992C267.233 499.528 264.89 501.405 262.086 502.208C259.281 503.011 256.245 502.676 253.645 501.276C251.044 499.875 249.093 497.525 248.219 494.742C247.346 491.958 247.623 488.969 248.989 486.433C250.354 483.897 252.697 482.021 255.501 481.217C258.306 480.414 261.342 480.749 263.943 482.15C266.543 483.55 268.495 485.9 269.368 488.684C270.241 491.467 269.964 494.456 268.599 496.992Z" fill="#01020A"/>
<path d="M771.12 509.016C771.12 511.954 769.952 514.771 767.875 516.849C765.798 518.926 762.98 520.093 760.042 520.093C757.104 520.093 754.287 518.926 752.209 516.849C750.132 514.771 748.965 511.954 748.965 509.016C748.965 506.078 750.132 503.26 752.209 501.183C754.287 499.106 757.104 497.939 760.042 497.939C762.98 497.939 765.798 499.106 767.875 501.183C769.952 503.26 771.12 506.078 771.12 509.016Z" fill="#01020A"/>
<path d="M511.627 664.845C511.248 664.4 510.861 664.125 510.469 664.02C509.722 663.823 509.336 664.112 509.31 664.884C509.192 668.472 509.775 671.968 511.058 675.372C511.446 676.394 511.465 677.52 511.11 678.556C510.755 679.592 510.049 680.474 509.113 681.048C493.813 690.476 478.788 701.475 464.431 710.627C449.386 720.251 435.5 729.129 418.865 738.281C411.676 742.222 402.556 747.303 391.505 753.522C384.945 757.215 379.23 757.922 372.002 758.884C371.839 758.906 371.687 758.977 371.565 759.088C371.444 759.198 371.359 759.344 371.322 759.504C371.286 759.665 371.3 759.833 371.361 759.985C371.423 760.138 371.531 760.267 371.668 760.357C372.061 760.606 372.624 760.704 373.357 760.652C369.05 762.393 366.463 765.588 365.599 770.236C365.691 769.569 365.593 769.032 365.305 768.626C364.899 768.05 364.447 768.01 363.95 768.508C362.928 769.51 362.28 770.276 360.905 770.786C343.229 777.438 326.573 782.165 310.939 784.967C300.674 786.813 290.062 786.728 279.102 784.712C266.473 782.414 260.934 777.445 256.613 765.837C254.676 760.626 254.944 756.2 257.419 752.56C280.87 759.768 303.574 752.363 326.22 743.466C356.074 731.741 381.508 717.521 411.008 700.041C437.811 684.158 463.907 667.169 489.296 649.073C494.403 645.42 499.293 640.785 504.459 636.602C504.865 636.272 505.354 636.059 505.872 635.985C506.39 635.912 506.919 635.981 507.401 636.185C507.883 636.388 508.301 636.719 508.609 637.142C508.918 637.565 509.106 638.064 509.153 638.585L511.627 664.845Z" fill="#C0D5E6"/>
<path d="M473.46 752.383C472.765 755.087 470.931 757.381 468.36 758.759C465.789 760.137 462.692 760.487 459.751 759.732C456.809 758.976 454.264 757.178 452.676 754.731C451.087 752.285 450.584 749.392 451.279 746.687C451.973 743.983 453.807 741.69 456.378 740.311C458.949 738.933 462.046 738.583 464.987 739.338C467.929 740.094 470.474 741.892 472.063 744.338C473.652 746.785 474.154 749.678 473.46 752.383Z" fill="#01020A"/>
<path d="M365.599 770.236C366.463 765.588 369.049 762.393 373.357 760.652C391.78 755.82 391.78 781.844 376.185 781.628C370.627 781.549 365.068 776.109 365.599 770.236Z" fill="#01020A"/>
<path d="M628.744 328.853C623.638 324.99 618.616 322.483 613.68 321.33" stroke="#FFDFBB" stroke-width="2"/>
<path d="M714.004 258.461L707.994 266.887" stroke="#FFBF96" stroke-width="2"/>
<path d="M707.995 266.887C707.314 267.855 706.626 267.967 705.932 267.22C698.626 259.423 690.436 256.202 680.144 254.002C679.332 253.832 678.789 254.14 678.514 254.925C673.172 270.18 668.373 285.597 664.118 301.179C660.936 312.865 656.85 324.964 653.57 337.003C652.667 340.369 650.212 343.563 646.205 346.588" stroke="#FFDFBB" stroke-width="2"/>
<path d="M732.917 374.046C733.127 371.257 733.035 369.266 732.642 368.075C732.456 367.524 732.122 367.031 731.679 366.652C731.235 366.274 730.701 366.025 730.137 365.934C729.572 365.844 729.001 365.916 728.489 366.142C727.977 366.368 727.544 366.738 727.241 367.211C722.194 375.106 717.578 383.827 712.55 391.074C699.077 410.44 684.746 429.138 669.557 447.168C649.838 470.599 627.447 491.182 605.568 512.826C601.62 516.715 595.472 520.231 591.053 524.08C584.402 529.881 577.541 535.42 570.47 540.696C567.288 543.053 564.794 546.156 561.769 548.337C550.711 556.35 539.713 566.308 529.775 573.732C523.516 578.406 517.283 583.114 511.077 587.853C482.696 609.517 454.06 630.179 423.48 648.916C404.782 660.386 386.477 672.858 367.347 683.189C347.765 693.756 332.779 701.867 307.894 711.53C302.866 713.494 299.331 718.621 295.187 721.606C290.591 724.945 283.049 730.209 279.533 729.816C273.34 729.122 270.643 729.953 271.442 732.31" stroke="#FF9F52" stroke-width="2"/>
<path d="M241.059 700.63L247.599 705.933" stroke="#FFBF96" stroke-width="2"/>
<path d="M707.993 266.887C707.941 267.384 707.935 267.842 707.974 268.261C708 268.667 708.164 269.06 708.465 269.44C731.68 298.685 717.087 335.845 699.843 363.263C693.793 372.867 688.058 382.432 681.282 391.29C636.305 449.898 579.387 499.255 522.861 544.232C504.085 559.178 483.442 573.889 463.585 588.561C452.639 596.639 441.922 604.149 431.434 611.088C397.377 633.636 371.098 651.018 337.375 667.83C327.849 672.583 316.045 679.831 306.539 683.405C296.11 687.333 284.954 693.127 278.08 702.162C274.06 707.465 271.513 710.444 270.44 711.098C266.302 713.652 261.536 713.534 256.141 710.745C252.724 708.977 249.876 707.373 247.598 705.933" stroke="#FF9F52" stroke-width="2"/>
<path d="M247.598 705.933C248.121 700.132 249.189 694.882 250.799 690.181C253.706 681.67 256.744 673.205 259.912 664.786C263.88 654.193 267.86 643.607 271.854 633.027C277.039 619.239 283.913 606.689 289.452 593.196C291.311 588.639 294.238 584.325 298.231 580.253C300.902 577.516 302.094 573.941 301.806 569.529" stroke="#FFDFBB" stroke-width="2"/>
<path d="M304.163 587.363C303.116 595.638 304.117 603.749 307.168 611.697C308.635 615.534 311.915 623.58 317.008 635.836C317.362 636.713 317.794 637.453 318.304 638.055C319.928 639.967 320.818 640.176 320.976 638.683" stroke="#F8D1A9" stroke-width="2"/>
<path d="M355.72 552.913C356.728 553.986 358.293 554.556 360.414 554.622C361.095 554.648 361.546 554.333 361.769 553.679C362.384 551.819 362.6 549.868 362.417 547.826C359.838 519.425 358.515 490.973 358.45 462.468C358.45 459.698 358.116 457.184 359.942 455.063C364.695 449.511 370.797 444.857 378.247 441.099" stroke="#FFDFBB" stroke-width="2"/>
<path d="M430.865 553.07C433.379 551.21 434.774 548.474 435.049 544.86C435.468 539.361 435.703 536.46 435.756 536.159C437.707 525.619 438.335 514.941 437.641 504.125" stroke="#F8D1A9" stroke-width="2"/>
<path d="M437.641 504.126C439.31 491.339 439.212 478.495 439.448 465.63C439.526 461.329 441.49 457.754 441.529 453.315C441.824 420.83 442.06 388.599 445.654 356.271C445.797 354.939 446.281 353.665 447.058 352.571C447.835 351.478 448.88 350.601 450.093 350.025C458.028 346.254 469.007 337.102 477.767 338.418" stroke="#FFDFBB" stroke-width="2"/>
<path d="M521.408 482.874L521.389 484.898C521.389 485.539 521.683 485.735 522.272 485.487C523.202 485.107 523.746 484.623 523.903 484.033C526.122 475.804 528.518 468.124 529.402 459.6C531.353 441.099 533.18 422.578 534.882 404.037" stroke="#F8D1A9" stroke-width="2"/>
<path d="M604.41 265.629C603.035 262.919 602.249 261.583 598.91 261.799C586.982 262.585 575.479 265.197 564.402 269.636C563.734 269.898 563.06 269.95 562.379 269.793L561.318 269.558C560.441 269.361 560.055 269.708 560.159 270.598C560.493 273.78 556.899 278.71 556.349 280.694C549.213 306.384 544.755 326.843 542.974 342.071C540.538 362.792 538.614 383.512 534.882 404.037" stroke="#FFDFBB" stroke-width="2"/>
<path d="M534.882 404.037C533.821 404.652 532.845 404.593 531.955 403.86" stroke="#F8F2ED" stroke-width="2"/>
<path d="M437.641 504.126C436.777 504.335 436.142 504.296 435.736 504.008" stroke="#F8F2ED" stroke-width="2"/>
<path d="M511.646 391.231C505.663 393.51 499.829 397.562 494.146 403.389" stroke="#FFDFBB" stroke-width="2"/>
<path d="M414.917 457.479L399.322 467.555" stroke="#FFDFBB" stroke-width="2"/>
<path d="M335.764 548.729L320.916 558.982" stroke="#FFDFBB" stroke-width="2"/>
<path d="M619.69 573.496C611.1 571.794 603.447 571.611 596.73 572.946C596.036 572.684 595.414 573.038 594.864 574.007" stroke="#BCCDDE" stroke-width="2"/>
<path d="M610.989 573.261C608.187 572.58 605.464 572.632 602.819 573.418C602.243 573.588 601.686 573.529 601.149 573.241C599.5 572.337 598.145 572.593 597.084 574.007" stroke="#4F7A9D" stroke-width="2"/>
<path d="M600.894 606.787L579.505 605.569C579.329 605.559 579.153 605.583 578.987 605.642C578.821 605.701 578.668 605.793 578.538 605.912C578.408 606.031 578.303 606.175 578.23 606.336C578.156 606.496 578.116 606.67 578.111 606.846L577.482 631.77" stroke="#F8F2ED" stroke-width="2"/>
<path d="M700.236 605.059L678.239 605.137C677.709 605.142 677.202 605.353 676.828 605.724C676.453 606.095 676.24 606.596 676.235 607.121L676.059 631.691" stroke="#BCCDDE" stroke-width="2"/>
<path d="M651.036 606.041L628.292 606.119C627.973 606.119 627.66 606.199 627.382 606.354C627.103 606.509 626.869 606.732 626.701 607.003C624.443 610.617 625.385 613.917 625.346 617.57C625.294 622.27 625.313 626.971 625.405 631.672" stroke="#F8F2ED" stroke-width="2"/>
<path d="M742.817 594.865C743.38 599.906 742.169 602.414 739.183 602.388C733.828 602.348 728.414 602.329 722.94 602.329" stroke="#7397B2" stroke-width="2"/>
<path d="M550.358 620.496L536.197 629.531C535.958 629.687 535.779 629.92 535.69 630.191C535.601 630.462 535.606 630.756 535.706 631.024C535.942 631.678 536.453 632.045 537.238 632.123" stroke="#BCCDDE" stroke-width="2"/>
<path d="M676.824 746.883L676.785 655.653C676.787 655.281 676.896 654.917 677.101 654.605C677.305 654.294 677.595 654.049 677.936 653.899C678.277 653.749 678.654 653.702 679.022 653.762C679.389 653.822 679.731 653.988 680.006 654.239C680.268 654.474 680.733 654.697 681.401 654.907C681.951 655.077 682.455 655.064 682.913 654.867C684.275 654.278 684.668 653.113 684.091 651.371" stroke="#BCCDDE" stroke-width="2"/>
<path d="M712.885 791.114L728.597 771.748C729.697 770.4 729.429 769.431 727.792 768.842C725.618 768.069 722.869 767.827 719.543 768.115" stroke="#164362" stroke-width="2"/>
<path d="M665.924 791.271L670.932 789.523C671.535 789.314 672.039 788.967 672.445 788.482L682.815 776.423" stroke="#4F7A9D" stroke-width="2"/>
<path d="M687.882 768.449L682.814 776.423" stroke="#92ACBE" stroke-width="2"/>
<path d="M682.815 776.423L574.674 778.544" stroke="#BCCDDE" stroke-width="2"/>
<path d="M574.674 778.544L510.469 778.269" stroke="#D0DEEA" stroke-width="2"/>
<path d="M555.387 790.721C560.1 789.818 563.616 790.996 568.35 789.405C568.952 789.196 569.417 788.816 569.744 788.266C572.121 784.279 571.885 779.408 577.738 778.78C577.764 778.78 577.784 778.786 577.797 778.799C577.81 778.812 577.816 778.826 577.816 778.839C577.829 778.852 577.816 778.858 577.777 778.858L574.674 778.544" stroke="#8DABC9" stroke-width="2"/>
<path d="M628.744 328.852C623.638 324.99 618.616 322.482 613.68 321.33C617.038 293.185 622.577 269.832 633.045 248.738C637.55 239.69 644.738 234.61 654.611 233.497C655.331 233.405 655.554 233.7 655.279 234.381C643.259 264.457 634.414 295.948 628.744 328.852Z" fill="white"/>
<path d="M714.005 258.46L707.995 266.886C707.314 267.855 706.626 267.966 705.932 267.22C698.626 259.423 690.436 256.202 680.144 254.002C679.332 253.832 678.789 254.139 678.514 254.925C673.172 270.179 668.373 285.597 664.118 301.179C660.936 312.865 656.85 324.963 653.57 337.003C652.667 340.368 650.212 343.563 646.205 346.588C646.729 341.481 647.39 336.859 648.189 332.721C653.793 303.693 661.59 275.273 671.581 247.462C672.746 244.214 673.885 241.537 674.998 239.429C675.458 238.552 676.221 237.872 677.143 237.518C678.066 237.164 679.084 237.158 680.007 237.504C692.852 242.335 704.184 249.321 714.005 258.46Z" fill="white"/>
<path d="M604.409 265.629C603.035 262.919 602.249 261.583 598.91 261.799C586.981 262.585 575.479 265.197 564.401 269.636C563.734 269.898 563.059 269.95 562.378 269.793L561.318 269.557C560.44 269.361 560.054 269.708 560.159 270.598C560.493 273.78 556.899 278.71 556.349 280.694C549.212 306.383 544.754 326.842 542.973 342.07C540.538 362.791 538.613 383.512 534.882 404.037C533.821 404.652 532.845 404.593 531.955 403.86C532.924 370.078 535.595 340.257 539.968 314.397C542.456 299.758 547.072 279.999 553.815 255.121C553.998 254.467 554.424 254.061 555.092 253.904C573.449 249.701 592.036 247.01 610.851 245.831C611.11 245.816 611.369 245.867 611.602 245.981C611.835 246.094 612.035 246.265 612.183 246.479C612.331 246.692 612.422 246.939 612.447 247.197C612.472 247.455 612.429 247.715 612.324 247.953L604.409 265.629Z" fill="white"/>
<path d="M707.993 266.887C707.941 267.384 707.935 267.842 707.974 268.261C708 268.667 708.164 269.06 708.465 269.44C731.68 298.685 717.087 335.845 699.843 363.263C693.793 372.867 688.058 382.432 681.282 391.29C636.305 449.898 579.387 499.255 522.861 544.232C504.085 559.178 483.442 573.889 463.585 588.561C452.639 596.639 441.922 604.149 431.434 611.088C397.377 633.636 371.098 651.018 337.375 667.83C327.849 672.583 316.045 679.831 306.539 683.405C296.11 687.333 284.954 693.127 278.08 702.162C274.06 707.465 271.513 710.444 270.44 711.098C266.302 713.652 261.536 713.534 256.141 710.745C252.724 708.977 249.876 707.373 247.598 705.933C248.121 700.132 249.189 694.882 250.799 690.181C253.706 681.67 256.744 673.205 259.912 664.786C263.88 654.193 267.86 643.607 271.854 633.027C277.039 619.239 283.913 606.689 289.452 593.196C291.311 588.639 294.238 584.325 298.231 580.253C300.902 577.516 302.094 573.941 301.806 569.529L304.163 587.362C303.115 595.638 304.117 603.749 307.168 611.697C308.634 615.534 311.914 623.58 317.008 635.835C317.361 636.713 317.793 637.453 318.304 638.055C319.928 639.967 320.818 640.176 320.975 638.683C325.826 647.6 334.94 657.087 344.937 651.921C357.094 645.617 356.799 635.364 357.781 622.46C358.803 609.039 358.116 585.857 355.719 552.913C356.728 553.987 358.292 554.556 360.414 554.622C361.094 554.648 361.546 554.333 361.769 553.679C362.384 551.819 362.6 549.868 362.417 547.826C359.837 519.426 358.515 490.973 358.449 462.468C358.449 459.698 358.115 457.184 359.942 455.063C364.695 449.512 370.797 444.857 378.247 441.099C377.776 468.556 380.067 495.556 385.121 522.097C387.694 535.727 393.213 555.623 402.582 565.718C415.171 579.251 427.251 565.64 430.864 553.07C433.378 551.211 434.773 548.474 435.048 544.86C435.467 539.361 435.703 536.46 435.755 536.159C437.706 525.619 438.334 514.941 437.64 504.126C439.31 491.339 439.212 478.495 439.447 465.63C439.526 461.329 441.49 457.754 441.529 453.315C441.824 420.83 442.059 388.599 445.654 356.271C445.797 354.939 446.28 353.665 447.057 352.571C447.834 351.478 448.879 350.601 450.092 350.025C458.027 346.254 469.006 337.102 477.766 338.418C472.895 372.474 472.142 406.479 475.507 440.431C477.039 455.81 483.403 490.711 495.875 499.373C509.859 509.075 517.813 493.755 521.408 482.874L521.388 484.897C521.388 485.539 521.682 485.735 522.272 485.487C523.201 485.107 523.745 484.622 523.902 484.033C526.121 475.804 528.517 468.124 529.401 459.6C531.352 441.099 533.179 422.578 534.881 404.037C538.613 383.512 540.538 362.792 542.973 342.071C544.754 326.843 549.212 306.384 556.348 280.694C556.898 278.71 560.492 273.78 560.159 270.598C560.054 269.708 560.44 269.361 561.317 269.558L562.378 269.793C563.059 269.95 563.733 269.898 564.401 269.636C575.478 265.197 586.981 262.585 598.909 261.8C602.248 261.583 603.034 262.919 604.409 265.629C596.317 295.915 591.033 320.643 589.521 349.456C588.598 367.093 588.578 399.461 605.548 410.872C618.943 419.887 630.767 396.574 634.597 386.321C639.572 373.018 643.441 359.773 646.204 346.588C650.211 343.563 652.666 340.369 653.569 337.003C656.849 324.964 660.935 312.865 664.116 301.179C668.372 285.597 673.171 270.18 678.513 254.925C678.788 254.14 679.331 253.832 680.143 254.002C690.435 256.202 698.625 259.423 705.931 267.22C706.625 267.967 707.313 267.855 707.993 266.887Z" fill="#FFBE77"/>
<path d="M714.005 258.46C746.097 288.864 750.379 334.332 732.918 374.046C733.128 371.257 733.036 369.266 732.643 368.075C732.457 367.524 732.123 367.031 731.68 366.652C731.236 366.273 730.702 366.025 730.138 365.934C729.573 365.844 729.002 365.916 728.49 366.142C727.978 366.367 727.545 366.738 727.242 367.211C722.195 375.106 717.579 383.827 712.551 391.074C699.078 410.44 684.747 429.137 669.558 447.168C649.839 470.599 627.448 491.182 605.569 512.826C601.621 516.715 595.473 520.231 591.054 524.08C584.403 529.881 577.542 535.419 570.471 540.696C567.289 543.053 564.795 546.156 561.77 548.336C550.712 556.35 539.714 566.308 529.776 573.732C523.517 578.406 517.284 583.113 511.078 587.853C482.697 609.517 454.061 630.179 423.481 648.916C404.783 660.386 386.478 672.858 367.348 683.189C347.766 693.755 332.78 701.867 307.895 711.53C302.867 713.494 299.332 718.62 295.188 721.606C290.592 724.945 283.05 730.208 279.534 729.816C273.341 729.122 270.644 729.953 271.443 732.31C262.578 732.376 255.409 729.024 249.936 722.254C245.209 716.414 242.25 709.206 241.059 700.63L247.599 705.933C249.877 707.373 252.725 708.977 256.142 710.745C261.537 713.534 266.303 713.651 270.441 711.098C271.515 710.444 274.061 707.465 278.081 702.162C284.955 693.127 296.111 687.333 306.54 683.405C316.046 679.83 327.85 672.583 337.376 667.83C371.099 651.017 397.378 633.636 431.435 611.088C441.923 604.149 452.64 596.639 463.587 588.56C483.443 573.889 504.086 559.178 522.862 544.231C579.388 499.254 636.306 449.898 681.283 391.29C688.059 382.432 693.794 372.867 699.844 363.263C717.088 335.845 731.681 298.684 708.466 269.44C708.165 269.06 708.001 268.667 707.975 268.261C707.936 267.842 707.942 267.384 707.995 266.886L714.005 258.46Z" fill="#FE7F2D"/>
<path d="M511.646 391.231C505.663 393.51 499.829 397.562 494.147 403.389C493.557 372.095 496.385 341.501 502.631 311.608C504.923 300.635 508.687 288.576 513.925 275.43C517.211 267.168 522.907 262.16 531.012 260.405C531.876 260.222 532.282 260.569 532.23 261.446C532.053 264.922 529.892 268.202 529.244 270.756C519.286 310.174 515.948 346.195 513.021 388.383C512.956 389.326 512.497 390.275 511.646 391.231Z" fill="white"/>
<path d="M477.767 338.417C469.007 337.101 458.028 346.254 450.093 350.025C448.88 350.601 447.835 351.478 447.058 352.571C446.281 353.665 445.797 354.938 445.654 356.271C442.06 388.599 441.824 420.829 441.529 453.315C441.49 457.754 439.526 461.328 439.448 465.63C439.212 478.494 439.31 491.339 437.641 504.125C436.776 504.335 436.141 504.296 435.736 504.007C434.42 449.78 433.261 394.059 439.683 340.126C439.919 338.162 440.351 336.218 440.979 334.293C441.171 333.705 441.541 333.184 442.04 332.8C453 324.551 467.966 318.423 480.673 312.826C480.855 312.744 481.056 312.714 481.254 312.739C481.451 312.765 481.639 312.844 481.796 312.969C481.953 313.094 482.074 313.26 482.146 313.449C482.218 313.638 482.239 313.844 482.205 314.043L477.767 338.417Z" fill="white"/>
<path d="M613.68 321.33C618.616 322.482 623.638 324.99 628.744 328.852L613.837 383.748C613.274 385.83 612.803 385.81 612.423 383.689C608.809 363.381 609.228 342.594 613.68 321.33Z" fill="#FFBE77"/>
<path d="M414.916 457.479L399.321 467.554C398.077 440.66 398.784 414.053 401.443 387.735C402.935 372.906 406.667 360.317 416.586 350.005C418.183 348.342 418.851 348.657 418.589 350.948C414.641 385.928 414.916 422.322 414.916 457.479Z" fill="white"/>
<path d="M732.917 374.046C729.579 383.643 724.806 393.477 718.6 403.546C704.092 427.075 687.855 448.156 669.891 466.789C649.818 487.608 629.038 507.687 607.551 527.026C592.605 540.48 573.259 555.211 556.034 569.352C538.004 584.141 519.051 597.576 500.667 611.795C482.067 626.212 463.566 638.507 444.633 651.489C428.161 662.789 408.016 675.398 384.198 689.317C356.898 705.245 331.483 716.146 303.652 727.538C293.387 731.741 282.65 733.332 271.442 732.31C270.643 729.953 273.34 729.122 279.533 729.816C283.049 730.209 290.591 724.945 295.187 721.606C299.331 718.621 302.866 713.494 307.894 711.53C332.779 701.867 347.765 693.756 367.347 683.189C386.477 672.858 404.782 660.386 423.48 648.916C454.06 630.179 482.696 609.517 511.077 587.853C517.283 583.114 523.516 578.406 529.775 573.732C539.713 566.308 550.711 556.35 561.769 548.337C564.794 546.156 567.288 543.053 570.47 540.696C577.541 535.42 584.402 529.881 591.053 524.08C595.472 520.231 601.62 516.715 605.568 512.826C627.447 491.182 649.838 470.599 669.557 447.168C684.746 429.138 699.077 410.44 712.55 391.074C717.578 383.827 722.194 375.106 727.241 367.211C727.544 366.738 727.977 366.368 728.489 366.142C729.001 365.916 729.572 365.844 730.137 365.934C730.701 366.025 731.235 366.274 731.679 366.652C732.122 367.031 732.456 367.524 732.642 368.075C733.035 369.266 733.127 371.257 732.917 374.046Z" fill="#FFBE77"/>
<path d="M511.646 391.231C510.566 417.962 506.599 445.007 502.965 471.483C502.961 471.521 502.948 471.558 502.928 471.591C502.908 471.624 502.882 471.653 502.851 471.675C502.819 471.697 502.783 471.713 502.745 471.72C502.708 471.728 502.669 471.727 502.631 471.719C502.265 471.64 502.049 471.483 501.983 471.247C496.994 451.58 494.448 431.606 494.343 411.324C494.317 408.207 494.251 405.562 494.146 403.389C499.829 397.562 505.663 393.51 511.646 391.231Z" fill="#FFBE77"/>
<path d="M531.955 403.86C532.846 404.593 533.821 404.652 534.882 404.037C533.18 422.578 531.353 441.099 529.402 459.6C528.518 468.124 526.122 475.804 523.903 484.033C523.746 484.622 523.202 485.107 522.272 485.487C521.683 485.735 521.389 485.539 521.389 484.897L521.408 482.874C523.569 475.921 525.042 469.748 525.827 464.353C528.499 446.101 530.541 425.936 531.955 403.86Z" fill="#F0E4DA"/>
<path d="M378.248 441.098C370.798 444.856 364.696 449.511 359.943 455.063C358.116 457.184 358.451 459.698 358.451 462.467C358.516 490.972 359.838 519.425 362.418 547.826C362.601 549.868 362.385 551.819 361.77 553.678C361.547 554.333 361.096 554.647 360.415 554.621C358.293 554.556 356.729 553.986 355.721 552.913C352.441 515.674 349.003 478.907 349.141 441.413C349.153 441.011 349.322 440.63 349.612 440.352L376.815 414.996C377.001 414.822 377.235 414.707 377.488 414.665C377.74 414.623 377.998 414.657 378.231 414.762C378.464 414.867 378.661 415.038 378.797 415.255C378.932 415.471 379.001 415.723 378.995 415.978L378.248 441.098Z" fill="white"/>
<path d="M414.917 457.479C414.387 485.172 414.701 512.846 412.58 540.461C412.527 541.141 412.436 541.554 412.305 541.698C411.65 542.405 411.185 542.294 410.91 541.364C403.604 517.219 399.741 492.616 399.322 467.555L414.917 457.479Z" fill="#FFBE77"/>
<path d="M335.765 548.729L320.917 558.981C318.298 540.794 316.36 522.98 315.103 505.539C314.619 498.809 315.084 493.166 316.498 488.609C318.645 481.682 322.017 475.456 326.613 469.931C328.695 467.417 329.86 467.79 330.109 471.05L335.765 548.729Z" fill="white"/>
<path d="M435.736 504.007C436.142 504.296 436.777 504.335 437.641 504.125C438.335 514.941 437.707 525.619 435.756 536.159C435.703 536.46 435.468 539.361 435.049 544.86C434.774 548.474 433.379 551.21 430.865 553.07C433.589 536.558 435.212 520.204 435.736 504.007Z" fill="#F0E4DA"/>
<path d="M660.012 567.251C675.194 571.296 677.649 561.398 678.376 548.926C678.455 547.695 678.763 546.896 679.299 546.53C679.902 546.124 680.72 546.117 681.755 546.51C682.304 546.72 682.71 547.093 682.972 547.63C686.429 554.857 682.815 562.831 680.812 569.548C680.47 570.696 679.768 571.704 678.81 572.422C677.851 573.14 676.687 573.53 675.489 573.536L648.228 573.771C648.074 573.771 647.924 573.729 647.792 573.651C647.659 573.572 647.551 573.46 647.478 573.327C647.406 573.194 647.371 573.044 647.379 572.894C647.386 572.744 647.435 572.599 647.521 572.475C657.223 558.353 657.675 540.637 644.869 529.639C642.761 527.832 642.689 525.94 644.653 523.963L645.026 523.589C646.938 521.691 648.837 521.704 650.722 523.629C663.764 536.965 658.5 549.535 658.873 565.777C658.884 566.114 659.001 566.438 659.205 566.702C659.41 566.967 659.692 567.159 660.012 567.251Z" fill="white"/>
<path d="M619.689 573.496C611.099 571.794 603.446 571.61 596.729 572.946C596.035 572.684 595.413 573.038 594.863 574.007C594.392 573.771 593.802 573.64 593.095 573.614C592.493 573.575 592.074 573.273 591.838 572.71C591.616 572.174 591.583 571.591 591.74 570.962C591.858 570.452 592.179 569.974 592.702 569.529C594.221 568.272 595.865 567.204 597.632 566.327C597.919 566.184 598.231 566.1 598.552 566.08C598.872 566.06 599.194 566.104 599.498 566.209C607.001 568.822 618.687 568.586 620.533 558.707C621.672 552.618 620.553 545.98 626.465 541.089C626.739 540.86 627.086 540.736 627.446 540.74C627.805 540.743 628.154 540.874 628.429 541.109C633.706 545.626 635.179 551.263 632.848 558.019C629.561 567.578 625.175 572.737 619.689 573.496Z" fill="white"/>
<path d="M301.806 569.529C302.095 573.941 300.903 577.516 298.232 580.252C294.238 584.325 291.312 588.639 289.453 593.195C283.914 606.689 277.04 619.239 271.855 633.027C267.861 643.606 263.88 654.193 259.913 664.786C256.744 673.205 253.707 681.67 250.8 690.181C249.189 694.882 248.122 700.132 247.598 705.933L241.058 700.63C239.683 687.68 241.516 672.727 246.557 655.771C257.929 617.432 273.76 580.095 294.991 546.117C295.554 545.227 296.13 544.631 296.72 544.33C297.531 543.924 298.003 544.172 298.134 545.076L301.806 569.529Z" fill="white"/>
<path d="M335.764 548.729L337.159 622.067C337.198 623.481 336.858 623.58 336.137 622.362C335.129 620.66 334.245 618.571 333.486 616.096C329.087 601.864 326.324 591.048 325.198 583.65C323.849 574.786 322.422 566.563 320.916 558.981L335.764 548.729Z" fill="#FFBE77"/>
<path d="M699.784 572.376C700.923 566.799 706.442 553.482 714.455 557.096C720.243 559.702 722.678 564.586 721.762 571.748C721.709 572.182 721.501 572.583 721.176 572.875C720.851 573.168 720.431 573.332 719.994 573.339L700.844 573.653C699.967 573.666 699.613 573.241 699.784 572.376Z" fill="white"/>
<path d="M619.69 573.496L610.989 573.261C608.187 572.58 605.464 572.632 602.819 573.418C602.242 573.588 601.686 573.529 601.149 573.241C599.499 572.337 598.144 572.593 597.084 574.007H594.864C595.414 573.038 596.036 572.684 596.73 572.946C603.447 571.611 611.1 571.794 619.69 573.496Z" fill="#799ABC"/>
<path d="M610.989 573.26L597.084 574.007C598.145 572.592 599.5 572.337 601.149 573.241C601.686 573.529 602.243 573.588 602.819 573.417C605.464 572.632 608.187 572.579 610.989 573.26Z" fill="#25597D"/>
<path d="M304.163 587.362C308.406 605.955 314.01 623.062 320.976 638.683C320.818 640.176 319.928 639.966 318.304 638.055C317.794 637.452 317.362 636.712 317.008 635.835C311.915 623.579 308.635 615.533 307.168 611.697C304.117 603.749 303.116 595.637 304.163 587.362Z" fill="#F0E4DA"/>
<path d="M600.894 606.787L579.505 605.569C579.329 605.558 579.153 605.583 578.986 605.642C578.82 605.701 578.667 605.793 578.537 605.912C578.407 606.031 578.303 606.175 578.229 606.335C578.156 606.496 578.115 606.669 578.111 606.846L577.482 631.769L570.333 631.848C570.135 631.851 569.939 631.814 569.756 631.74C569.572 631.666 569.405 631.557 569.265 631.418C569.124 631.279 569.012 631.114 568.936 630.931C568.86 630.749 568.821 630.553 568.821 630.355L568.781 596.102C568.781 594.583 569.541 593.817 571.06 593.804L599.539 593.686C600.468 593.686 600.933 594.151 600.933 595.081L600.894 606.787Z" fill="white"/>
<path d="M700.236 605.059L678.239 605.137C677.709 605.142 677.202 605.353 676.828 605.724C676.453 606.095 676.24 606.596 676.235 607.121L676.059 631.691C674.487 631.992 673.158 631.947 672.071 631.554C671.75 631.44 671.472 631.23 671.275 630.952C671.079 630.674 670.972 630.343 670.972 630.002L671.011 597.241C671.013 596.79 671.105 596.344 671.281 595.928C671.458 595.512 671.714 595.134 672.037 594.817C672.36 594.5 672.742 594.249 673.163 594.078C673.583 593.908 674.033 593.821 674.487 593.824L698.842 594.119C699.758 594.119 700.216 594.584 700.216 595.513L700.236 605.059Z" fill="white"/>
<path d="M651.037 606.041L628.293 606.119C627.974 606.118 627.661 606.199 627.382 606.354C627.104 606.509 626.869 606.732 626.702 607.003C624.443 610.617 625.386 613.916 625.346 617.57C625.294 622.27 625.314 626.971 625.405 631.672C624.057 631.868 623.022 631.868 622.302 631.672C621.569 631.462 621.202 630.709 621.202 629.413C621.189 618.113 621.17 606.99 621.144 596.043C621.144 595.486 621.363 594.952 621.753 594.557C622.144 594.163 622.673 593.942 623.225 593.942L649.681 593.981C650.098 593.981 650.5 594.129 650.817 594.399C651.134 594.669 651.344 595.043 651.41 595.454C651.933 598.819 651.809 602.348 651.037 606.041Z" fill="white"/>
<path d="M742.817 594.865C743.38 599.906 742.169 602.413 739.183 602.387C733.828 602.348 728.414 602.328 722.94 602.328L723.078 595.316C723.08 595.157 723.115 595.001 723.179 594.855C723.242 594.709 723.334 594.578 723.45 594.468C723.565 594.358 723.701 594.273 723.849 594.216C723.998 594.159 724.156 594.133 724.315 594.138L742.817 594.865Z" fill="#C0D5E6"/>
<path d="M742.818 594.865L742.425 629.983C742.42 630.479 742.218 630.954 741.865 631.303C741.512 631.652 741.036 631.848 740.539 631.848L725.259 631.888C723.543 631.888 722.699 631.03 722.725 629.315L722.941 602.329C728.414 602.329 733.829 602.348 739.184 602.388C742.169 602.414 743.381 599.906 742.818 594.865Z" fill="#25597D"/>
<path d="M550.358 620.496L536.197 629.53C535.958 629.686 535.779 629.919 535.69 630.191C535.601 630.462 535.606 630.756 535.706 631.023C535.942 631.678 536.452 632.044 537.238 632.123L532.25 632.064C531.435 632.054 530.658 631.72 530.087 631.134C529.517 630.549 529.2 629.761 529.205 628.941L529.284 619.337C529.284 618.512 529.611 617.851 530.266 617.353L548.649 603.055C548.828 602.919 549.04 602.836 549.264 602.815C549.487 602.794 549.711 602.836 549.912 602.936C550.112 603.036 550.281 603.191 550.398 603.382C550.515 603.573 550.576 603.793 550.574 604.017L550.358 620.496Z" fill="#799ABC"/>
<path d="M700.236 605.058L700.216 630.512C700.216 630.783 700.109 631.043 699.917 631.235C699.726 631.426 699.466 631.534 699.195 631.534L676.059 631.691L676.235 607.12C676.24 606.596 676.453 606.094 676.828 605.723C677.202 605.353 677.709 605.142 678.239 605.137L700.236 605.058Z" fill="#799ABC"/>
<path d="M600.894 606.787L600.776 630.316C600.771 630.703 600.614 631.073 600.338 631.345C600.062 631.617 599.691 631.769 599.303 631.769H577.482L578.111 606.845C578.116 606.669 578.156 606.496 578.23 606.335C578.303 606.175 578.408 606.031 578.538 605.912C578.668 605.793 578.821 605.701 578.987 605.642C579.153 605.583 579.329 605.558 579.505 605.569L600.894 606.787Z" fill="#F0E4DA"/>
<path d="M651.036 606.04L651.232 629.904C651.235 630.155 651.187 630.404 651.093 630.636C650.998 630.868 650.858 631.079 650.68 631.257C650.503 631.434 650.292 631.574 650.059 631.669C649.827 631.764 649.578 631.812 649.327 631.809L625.405 631.671C625.313 626.971 625.294 622.27 625.346 617.569C625.385 613.916 624.443 610.617 626.701 607.003C626.869 606.732 627.103 606.508 627.382 606.354C627.66 606.199 627.973 606.118 628.292 606.119L651.036 606.04Z" fill="#F0E4DA"/>
<path d="M550.358 620.496L550.456 630.847C550.459 631.019 550.427 631.189 550.364 631.349C550.3 631.508 550.204 631.654 550.084 631.776C549.963 631.899 549.819 631.996 549.661 632.062C549.502 632.129 549.332 632.163 549.16 632.163L537.238 632.123C536.453 632.045 535.942 631.678 535.706 631.024C535.606 630.756 535.601 630.462 535.69 630.191C535.779 629.92 535.958 629.687 536.197 629.531L550.358 620.496Z" fill="white"/>
<path d="M676.824 746.883L676.785 655.653C676.787 655.281 676.896 654.917 677.101 654.605C677.305 654.294 677.595 654.049 677.936 653.899C678.277 653.749 678.654 653.702 679.022 653.762C679.389 653.822 679.731 653.988 680.006 654.239C680.268 654.474 680.733 654.697 681.401 654.907C681.951 655.077 682.455 655.064 682.913 654.867C684.275 654.278 684.668 653.113 684.091 651.371L699.352 651.725C700.072 651.751 700.433 652.124 700.433 652.844C700.563 668.635 700.112 684.354 699.077 700.001C698.036 715.635 697.84 730.287 697.133 745.371C697.067 746.759 696.341 747.433 694.953 747.394L676.824 746.883Z" fill="#799ABC"/>
<path d="M601.974 746.157C601.974 746.355 601.896 746.544 601.756 746.684C601.616 746.824 601.426 746.903 601.228 746.903L581.98 747.06C581.255 747.066 580.551 746.815 579.993 746.351C579.436 745.887 579.061 745.241 578.936 744.526C573.908 716.912 570.68 689.48 569.253 662.232C569.083 659.037 569.037 656.117 569.115 653.472C569.141 652.163 569.809 651.508 571.119 651.508H598.242C600.351 651.508 601.411 652.563 601.424 654.671L601.974 746.157Z" fill="white"/>
<path d="M684.091 651.371C684.667 653.113 684.274 654.278 682.913 654.867C682.454 655.064 681.95 655.077 681.4 654.907C680.732 654.697 680.268 654.474 680.006 654.239C679.731 653.988 679.389 653.823 679.021 653.762C678.654 653.702 678.277 653.749 677.936 653.899C677.595 654.049 677.304 654.294 677.1 654.605C676.896 654.917 676.786 655.281 676.785 655.653L676.824 746.884C674.938 747.25 673.531 747.322 672.601 747.1C671.907 746.929 671.56 746.491 671.56 745.784C671.207 716.441 670.991 687.117 670.912 657.813C670.893 650.978 679.358 651.312 684.091 651.371Z" fill="white"/>
<path d="M554.915 728.735C545.978 712.748 539.89 696.721 536.256 679.398C534.214 669.696 530.718 661.368 531.876 652.864C531.968 652.222 532.335 651.901 532.976 651.901L549.003 651.882C549.183 651.879 549.361 651.913 549.528 651.981C549.694 652.049 549.846 652.15 549.974 652.277C550.102 652.405 550.203 652.558 550.273 652.726C550.342 652.894 550.378 653.074 550.378 653.257C550.26 677.827 554.227 702.947 556.604 728.205C556.879 731.047 556.316 731.223 554.915 728.735Z" fill="white"/>
<path d="M651.435 745.686C651.436 745.861 651.403 746.035 651.337 746.198C651.27 746.36 651.173 746.508 651.049 746.632C650.926 746.757 650.779 746.856 650.618 746.924C650.456 746.992 650.282 747.028 650.107 747.029L623.318 747.169C623.142 747.17 622.968 747.136 622.806 747.07C622.644 747.004 622.496 746.906 622.371 746.783C622.246 746.659 622.147 746.512 622.079 746.351C622.011 746.189 621.976 746.016 621.975 745.84L621.49 653.256C621.489 653.08 621.523 652.906 621.589 652.744C621.656 652.582 621.753 652.434 621.876 652.309C622 652.184 622.147 652.085 622.308 652.017C622.47 651.949 622.643 651.914 622.819 651.913L649.608 651.773C649.783 651.772 649.958 651.805 650.12 651.872C650.282 651.938 650.43 652.036 650.555 652.159C650.679 652.282 650.778 652.429 650.846 652.591C650.914 652.753 650.95 652.926 650.951 653.101L651.435 745.686Z" fill="white"/>
<path d="M717.323 719.661C720.151 698.567 722.999 680.144 722.469 655.044C722.416 653.119 723.352 652.15 725.277 652.137L738.161 652.019C740.217 652.006 741.062 653.008 740.695 655.024C738.986 664.589 737.926 674.134 734.98 683.444C730.777 696.643 726.567 709.828 722.351 723C721.644 725.226 720.884 726.961 720.072 728.205C718.567 730.51 717.604 730.3 717.185 727.577C716.871 725.429 716.917 722.791 717.323 719.661Z" fill="#25597D"/>
<path d="M712.885 791.114L728.597 771.749C729.697 770.4 729.429 769.431 727.792 768.842C725.618 768.069 722.869 767.827 719.543 768.115C723.419 767.238 727.144 767.284 730.718 768.253C733.651 769.051 736.008 769.32 737.789 769.058C742.954 768.272 746.843 766.681 752.637 767.644C753.279 767.748 753.691 768.122 753.875 768.763C755.819 775.755 750.555 780.233 746.745 785.163C743.851 788.895 740.008 790.676 735.216 790.505C726.98 790.204 719.536 790.407 712.885 791.114Z" fill="#072D47"/>
<path d="M687.882 768.449L682.815 776.423L574.674 778.544L510.468 778.269C508.36 775.847 506.985 773.359 506.344 770.806C506.257 770.46 506.25 770.099 506.324 769.75C506.399 769.402 506.551 769.075 506.771 768.794C506.991 768.514 507.272 768.287 507.593 768.132C507.914 767.977 508.266 767.897 508.622 767.899L687.882 768.449Z" fill="white"/>
<path d="M687.882 768.449L719.543 768.115C722.869 767.827 725.618 768.069 727.792 768.842C729.428 769.431 729.697 770.4 728.597 771.748L712.885 791.114L665.924 791.271L670.932 789.523C671.535 789.314 672.039 788.967 672.445 788.482L682.815 776.423L687.882 768.449Z" fill="#25597D"/>
<path d="M682.815 776.423L672.445 788.482C672.039 788.966 671.535 789.313 670.933 789.523L665.924 791.271L555.387 790.721C560.1 789.817 563.616 790.996 568.35 789.405C568.952 789.196 569.417 788.816 569.744 788.266C572.121 784.279 571.885 779.408 577.738 778.78C577.764 778.78 577.784 778.786 577.797 778.799C577.81 778.812 577.816 778.825 577.816 778.838C577.829 778.851 577.816 778.858 577.777 778.858L574.674 778.544L682.815 776.423Z" fill="#799ABC"/>
<path d="M574.674 778.544L577.777 778.858C577.816 778.858 577.83 778.852 577.817 778.839C577.817 778.825 577.81 778.812 577.797 778.799C577.784 778.786 577.764 778.78 577.738 778.78C571.885 779.408 572.121 784.279 569.744 788.266C569.417 788.816 568.952 789.196 568.35 789.405C563.616 790.996 560.101 789.818 555.387 790.721C548.015 790.485 540.624 790.368 533.213 790.368C521.743 790.348 515.477 788.384 510.469 778.269L574.674 778.544Z" fill="#A0BCD5"/>
<path d="M593.747 269.473C594.254 271.094 593.28 273.106 591.038 275.067C588.796 277.027 585.471 278.777 581.792 279.929C579.971 280.5 578.118 280.907 576.339 281.128C574.56 281.348 572.89 281.377 571.425 281.213C569.959 281.049 568.726 280.696 567.797 280.173C566.868 279.65 566.26 278.968 566.009 278.166C565.501 276.545 566.475 274.533 568.717 272.573C570.959 270.612 574.284 268.862 577.963 267.71C579.784 267.139 581.637 266.732 583.416 266.512C585.195 266.291 586.865 266.262 588.33 266.426C589.796 266.59 591.029 266.943 591.958 267.466C592.887 267.989 593.495 268.671 593.747 269.473Z" fill="white"/>
<path d="M593.704 744.271L591.23 744.507C588.257 744.782 586.634 743.433 586.359 740.461L578.915 662.036C578.885 661.712 578.924 661.384 579.028 661.075C579.133 660.767 579.302 660.483 579.524 660.242C579.746 660.002 580.016 659.81 580.317 659.679C580.618 659.549 580.943 659.482 581.272 659.483L595.079 659.659C595.723 659.665 596.347 659.888 596.852 660.294C597.358 660.7 597.715 661.265 597.868 661.899C598.536 664.609 597.476 667.26 597.456 669.735C597.181 692.99 597.338 716.257 597.927 739.538C597.993 742.432 596.585 744.009 593.704 744.271Z" fill="#F0E4DA"/>
<path d="M647.895 662.724L647.659 739.774C647.656 740.328 647.544 740.877 647.33 741.388C647.115 741.899 646.802 742.364 646.408 742.754C646.014 743.144 645.547 743.453 645.034 743.663C644.52 743.873 643.971 743.979 643.416 743.977L628.274 743.918C627.94 743.918 627.61 743.851 627.302 743.721C626.995 743.592 626.716 743.402 626.482 743.162C626.248 742.923 626.063 742.639 625.939 742.327C625.815 742.015 625.754 741.681 625.759 741.345C625.917 733.744 625.288 725.907 625.642 718.346C626.493 699.884 626.237 681.441 624.876 663.018C624.851 662.676 624.896 662.332 625.007 662.007C625.118 661.683 625.292 661.385 625.52 661.131C625.748 660.878 626.024 660.674 626.332 660.533C626.64 660.391 626.973 660.314 627.311 660.308L644.987 659.876C645.365 659.865 645.742 659.931 646.094 660.069C646.446 660.208 646.767 660.416 647.038 660.681C647.309 660.947 647.525 661.265 647.672 661.615C647.819 661.966 647.895 662.343 647.895 662.724Z" fill="#F0E4DA"/>
</svg>
