<svg width="1024" height="1024" viewBox="0 0 1024 1024" fill="none" xmlns="http://www.w3.org/2000/svg">
<rect width="1024" height="1024" fill="white"/>
<path d="M732.842 509.722C728.241 506.839 725.514 502.756 724.662 497.473C724.577 496.891 724.563 492.247 724.62 483.541C724.719 469.652 724.797 455.806 724.854 442.002C724.853 441.867 724.817 441.736 724.75 441.62C724.682 441.504 724.585 441.407 724.469 441.34C724.353 441.273 724.221 441.238 724.086 441.239C723.952 441.239 723.82 441.274 723.704 441.341L612.91 505.589C612.443 505.861 612.055 506.251 611.786 506.718C611.517 507.185 611.376 507.714 611.376 508.252L611.44 728.859C611.44 729.413 611.717 729.69 612.271 729.69L722.873 729.924C723.995 729.924 724.556 729.363 724.556 728.241C724.542 667.43 724.442 606.867 724.258 546.553C724.229 540.745 724.982 536.57 726.516 534.028C729.029 529.81 733.119 527.516 738.786 527.147" stroke="#65738D" stroke-width="2"/>
<path d="M675.326 226.699C675.326 230.405 673.853 233.959 671.233 236.58C668.612 239.201 665.058 240.673 661.351 240.673H559.1C555.394 240.673 551.84 239.201 549.219 236.58C546.598 233.959 545.126 230.405 545.126 226.699V225.974C545.126 222.268 546.598 218.714 549.219 216.093C551.84 213.472 555.394 212 559.1 212H661.351C665.058 212 668.612 213.472 671.233 216.093C673.853 218.714 675.326 222.268 675.326 225.974V226.699Z" fill="#0C1E3E"/>
<path d="M732.842 509.721C728.241 506.838 725.514 502.755 724.662 497.472C724.577 496.89 724.562 492.246 724.619 483.541C724.719 469.652 724.797 455.805 724.853 442.001C724.853 441.867 724.817 441.735 724.749 441.619C724.682 441.503 724.585 441.407 724.469 441.34C724.352 441.273 724.22 441.238 724.086 441.238C723.951 441.238 723.82 441.274 723.703 441.341L612.91 505.589C612.442 505.861 612.055 506.25 611.785 506.717C611.516 507.185 611.375 507.714 611.376 508.251L611.44 728.858C611.44 729.412 611.717 729.689 612.271 729.689L722.872 729.923C723.994 729.923 724.555 729.363 724.555 728.241C724.541 667.43 724.442 606.867 724.257 546.553C724.229 540.745 724.981 536.569 726.515 534.027C729.029 529.809 733.119 527.516 738.785 527.147C750.587 529.341 753.42 534.666 753.335 546.51C752.781 625.982 752.525 705.433 752.568 784.862C752.568 798.496 752.738 811.767 735.292 811.767C567.444 811.81 399.588 811.881 231.726 811.98C227.231 811.98 221.65 812.342 217.88 809.978C213.946 807.507 211.986 804.162 212 799.944C212.043 707.464 212.1 614.976 212.171 522.481C212.185 509.87 212.291 497.764 212.49 486.161C212.532 483.773 213.069 481.423 214.066 479.259C220.5 465.178 227.253 450.969 233.175 436.74C259.746 372.733 286.693 308.89 314.017 245.21C318.299 235.262 322.453 216.26 337.748 221.927C371.491 234.431 405.084 247.319 439.04 259.249C484.215 275.112 529.327 291.138 574.374 307.328C585.515 311.354 599.66 315.018 609.864 319.151C622.219 324.157 619.322 338.983 619.428 349.251C619.428 349.989 619.783 350.479 620.493 350.721C659.065 363.303 697.721 375.552 736.463 387.467C745.495 390.237 753.356 395.072 753.228 404.786C752.802 433.629 752.894 462.473 753.505 491.316C753.619 496.982 752.774 501.215 750.97 504.012C747.221 509.807 741.178 511.71 732.842 509.721Z" fill="#0C1E3E"/>
<path d="M687.254 276.22C687.251 277.988 686.9 279.738 686.22 281.37C685.541 283.003 684.547 284.485 683.294 285.733C682.042 286.981 680.556 287.97 678.921 288.644C677.287 289.317 675.535 289.663 673.767 289.66L611.011 289.55C607.44 289.544 604.018 288.119 601.498 285.59C598.978 283.061 597.565 279.634 597.571 276.064L597.574 274.402C597.577 272.634 597.929 270.884 598.608 269.252C599.287 267.619 600.282 266.137 601.534 264.889C602.786 263.641 604.272 262.652 605.907 261.978C607.541 261.305 609.293 260.959 611.061 260.962L673.817 261.072C677.388 261.078 680.81 262.503 683.33 265.032C685.85 267.561 687.263 270.988 687.257 274.558L687.254 276.22Z" fill="#0C1E3E"/>
<path d="M248.683 276.014C248.683 279.799 247.179 283.429 244.502 286.106C241.826 288.782 238.196 290.286 234.41 290.286C232.536 290.286 230.68 289.917 228.948 289.2C227.217 288.482 225.643 287.431 224.318 286.106C222.993 284.78 221.941 283.207 221.224 281.475C220.507 279.744 220.138 277.888 220.138 276.014C220.138 274.139 220.507 272.283 221.224 270.552C221.941 268.82 222.993 267.247 224.318 265.921C225.643 264.596 227.217 263.545 228.948 262.827C230.68 262.11 232.536 261.741 234.41 261.741C238.196 261.741 241.826 263.245 244.502 265.921C247.179 268.598 248.683 272.228 248.683 276.014Z" fill="#0C1E3E"/>
<path d="M738.04 276.013C738.04 279.759 736.552 283.351 733.903 286C731.255 288.649 727.662 290.137 723.916 290.137C720.171 290.137 716.578 288.649 713.93 286C711.281 283.351 709.793 279.759 709.793 276.013C709.793 272.267 711.281 268.675 713.93 266.026C716.578 263.378 720.171 261.89 723.916 261.89C727.662 261.89 731.255 263.378 733.903 266.026C736.552 268.675 738.04 272.267 738.04 276.013Z" fill="#0C1E3E"/>
<path d="M732.842 509.722L738.786 527.147C733.119 527.516 729.029 529.81 726.516 534.028C724.982 536.57 724.229 540.745 724.258 546.553C724.442 606.867 724.542 667.43 724.556 728.241C724.556 729.363 723.995 729.924 722.873 729.924L612.271 729.69C611.717 729.69 611.44 729.413 611.44 728.859L611.376 508.252C611.376 507.714 611.517 507.185 611.786 506.718C612.055 506.251 612.443 505.861 612.91 505.589L723.704 441.341C723.82 441.274 723.952 441.239 724.086 441.239C724.221 441.238 724.353 441.273 724.469 441.34C724.585 441.407 724.682 441.504 724.75 441.62C724.817 441.736 724.853 441.867 724.854 442.002C724.797 455.806 724.719 469.652 724.62 483.541C724.563 492.247 724.577 496.891 724.662 497.473C725.514 502.756 728.241 506.839 732.842 509.722Z" fill="#BDC7DB"/>
<path d="M811.107 796.003C811.107 799.761 809.615 803.364 806.958 806.02C804.301 808.677 800.698 810.169 796.941 810.169C795.081 810.169 793.239 809.803 791.52 809.091C789.801 808.379 788.24 807.336 786.924 806.02C785.609 804.705 784.565 803.143 783.853 801.425C783.141 799.706 782.775 797.864 782.775 796.003C782.775 794.143 783.141 792.301 783.853 790.582C784.565 788.864 785.609 787.302 786.924 785.987C788.24 784.671 789.801 783.628 791.52 782.916C793.239 782.204 795.081 781.837 796.941 781.837C800.698 781.837 804.301 783.33 806.958 785.987C809.615 788.643 811.107 792.246 811.107 796.003Z" fill="#0C1E3E"/>
<path d="M253.22 467.798C263.445 445.878 270.837 425.492 280.019 404.402C300.881 356.571 321.224 307.633 341.05 257.587C341.873 255.527 343.294 254.945 345.31 255.84C347.014 256.585 349.081 258.183 350.998 258.907C402.677 278.378 465.434 298.807 522.482 321.174C531.301 324.625 544.53 328.119 554.584 333.21C558.802 335.34 558.554 336.327 553.839 336.171C548.833 336.022 542.57 333.636 537.628 334.999C525.443 338.386 526.423 349.485 530.172 359.795C541.902 392.16 553.533 424.568 565.065 457.019C571.853 476.092 576.575 490.094 579.231 499.027C580.978 504.843 580.893 510.637 580.914 516.623C581.212 586.423 581.262 657.105 581.063 728.666C581.063 729.731 580.53 730.264 579.465 730.264L242.356 729.944C242.237 729.944 242.124 729.897 242.04 729.813C241.956 729.729 241.909 729.616 241.909 729.497C241.667 653.078 241.682 576.617 241.951 500.114C241.973 492.956 247.788 479.45 253.22 467.798Z" fill="#FAFBF6"/>
<path d="M709.005 413.285L606.009 474.508C605.851 474.6 605.675 474.656 605.494 474.672C605.312 474.688 605.129 474.663 604.958 474.6C604.787 474.537 604.632 474.437 604.504 474.307C604.376 474.177 604.279 474.02 604.219 473.848L566.429 365.696C566.348 365.477 566.331 365.24 566.38 365.012C566.428 364.784 566.54 364.574 566.703 364.407C566.865 364.24 567.072 364.122 567.299 364.068C567.525 364.013 567.763 364.024 567.984 364.098L708.771 411.049C708.996 411.124 709.194 411.262 709.343 411.447C709.491 411.632 709.583 411.856 709.608 412.092C709.632 412.327 709.589 412.565 709.482 412.777C709.375 412.989 709.21 413.165 709.005 413.285Z" fill="#FAFBF6"/>
<path d="M581.085 781.028C581.085 781.242 580.999 781.448 580.848 781.6C580.696 781.752 580.49 781.837 580.275 781.837H243.059C242.845 781.837 242.639 781.752 242.487 781.6C242.335 781.448 242.25 781.242 242.25 781.028V758.575C242.25 758.36 242.335 758.154 242.487 758.003C242.639 757.851 242.845 757.766 243.059 757.766H580.275C580.49 757.766 580.696 757.851 580.848 758.003C580.999 758.154 581.085 758.36 581.085 758.575V781.028Z" fill="#FAFBF6"/>
<path d="M724.382 779.97C724.383 780.16 724.346 780.349 724.273 780.525C724.201 780.701 724.094 780.86 723.96 780.995C723.826 781.13 723.666 781.237 723.49 781.31C723.315 781.383 723.127 781.421 722.936 781.421L612.804 781.613C612.613 781.614 612.425 781.577 612.249 781.504C612.073 781.432 611.913 781.325 611.778 781.191C611.644 781.057 611.537 780.897 611.464 780.722C611.391 780.546 611.353 780.358 611.352 780.167L611.316 759.462C611.316 759.271 611.353 759.083 611.426 758.907C611.498 758.731 611.605 758.571 611.739 758.437C611.873 758.302 612.033 758.195 612.208 758.122C612.384 758.049 612.572 758.011 612.762 758.011L722.895 757.818C723.085 757.818 723.274 757.855 723.45 757.928C723.626 758 723.786 758.107 723.92 758.241C724.055 758.375 724.162 758.535 724.235 758.71C724.308 758.886 724.346 759.074 724.346 759.264L724.382 779.97Z" fill="#BDC7DB"/>
<path d="M701.38 511.362C701.38 513.194 701.019 515.008 700.318 516.701C699.616 518.394 698.589 519.932 697.293 521.228C695.997 522.524 694.459 523.551 692.766 524.253C691.073 524.954 689.259 525.315 687.427 525.315C685.594 525.315 683.78 524.954 682.087 524.253C680.394 523.551 678.856 522.524 677.56 521.228C676.265 519.932 675.237 518.394 674.536 516.701C673.835 515.008 673.474 513.194 673.474 511.362C673.474 507.661 674.944 504.112 677.56 501.495C680.177 498.879 683.726 497.409 687.427 497.409C689.259 497.409 691.073 497.77 692.766 498.471C694.459 499.172 695.997 500.2 697.293 501.495C698.589 502.791 699.616 504.329 700.318 506.022C701.019 507.715 701.38 509.529 701.38 511.362Z" fill="#0C1E3E"/>
<path d="M689.105 569.959C688.543 571.761 687.613 573.43 686.366 574.869C685.12 576.308 683.581 577.489 681.84 578.345C680.098 579.201 678.187 579.715 676.215 579.858C674.243 580.001 672.249 579.769 670.348 579.177C666.507 577.981 663.274 575.387 661.36 571.966C659.447 568.546 659.008 564.579 660.143 560.938C660.704 559.135 661.635 557.467 662.881 556.028C664.128 554.589 665.666 553.407 667.407 552.551C669.149 551.695 671.061 551.181 673.032 551.039C675.004 550.896 676.998 551.127 678.9 551.72C682.74 552.916 685.973 555.51 687.887 558.93C689.801 562.351 690.239 566.318 689.105 569.959Z" fill="#0C1E3E"/>
<path d="M689.215 620.749C689.215 624.614 687.68 628.32 684.948 631.052C682.215 633.785 678.509 635.32 674.644 635.32C670.78 635.32 667.074 633.785 664.341 631.052C661.609 628.32 660.074 624.614 660.074 620.749C660.074 616.885 661.609 613.179 664.341 610.446C667.074 607.714 670.78 606.178 674.644 606.178C678.509 606.178 682.215 607.714 684.948 610.446C687.68 613.179 689.215 616.885 689.215 620.749Z" fill="#0C1E3E"/>
<path d="M688.823 681.697C688.753 685.007 687.372 688.154 684.982 690.446C682.593 692.737 679.391 693.986 676.081 693.916L662.109 693.624C658.799 693.554 655.653 692.173 653.361 689.784C651.07 687.394 649.821 684.192 649.89 680.882L649.943 678.369C650.013 675.059 651.394 671.912 653.783 669.62C656.173 667.329 659.375 666.08 662.685 666.15L676.656 666.442C679.966 666.512 683.113 667.893 685.405 670.283C687.696 672.672 688.945 675.874 688.875 679.184L688.823 681.697Z" fill="#0C1E3E"/>
<path d="M411.773 321.739C409.25 324.201 405.78 325.487 402.126 325.312C398.473 325.137 394.935 323.517 392.291 320.808C389.647 318.099 388.114 314.523 388.029 310.866C387.944 307.21 389.313 303.772 391.836 301.31C394.359 298.848 397.829 297.562 401.483 297.737C405.137 297.911 408.674 299.532 411.318 302.241C413.962 304.95 415.495 308.526 415.58 312.183C415.665 315.839 414.296 319.277 411.773 321.739Z" fill="#0C1E3E"/>
<path d="M494.308 352.092C493.654 353.735 492.683 355.233 491.451 356.5C490.218 357.768 488.748 358.78 487.124 359.48C485.5 360.179 483.755 360.552 481.987 360.576C480.219 360.601 478.464 360.277 476.821 359.624L441.867 345.714C438.549 344.393 435.892 341.809 434.48 338.53C433.067 335.25 433.016 331.544 434.336 328.227L434.73 327.237C435.383 325.595 436.354 324.097 437.587 322.829C438.82 321.562 440.29 320.549 441.913 319.85C443.537 319.151 445.283 318.778 447.051 318.753C448.819 318.729 450.574 319.052 452.217 319.706L487.171 333.616C490.488 334.936 493.145 337.52 494.558 340.8C495.97 344.079 496.022 347.785 494.702 351.103L494.308 352.092Z" fill="#0C1E3E"/>
<path d="M389.151 352.127C389.151 356.087 387.578 359.885 384.777 362.686C381.977 365.486 378.179 367.059 374.218 367.059C370.258 367.059 366.459 365.486 363.659 362.686C360.858 359.885 359.285 356.087 359.285 352.127C359.285 348.166 360.858 344.368 363.659 341.567C366.459 338.767 370.258 337.194 374.218 337.194C378.179 337.194 381.977 338.767 384.777 341.567C387.578 344.368 389.151 348.166 389.151 352.127Z" fill="#0C1E3E"/>
<path d="M439.673 399.444C439.665 401.042 439.342 402.622 438.723 404.094C438.104 405.567 437.201 406.903 436.065 408.027C434.93 409.15 433.584 410.039 432.105 410.643C430.626 411.246 429.043 411.553 427.446 411.544L392.766 411.363C391.169 411.354 389.589 411.031 388.116 410.412C386.644 409.793 385.307 408.891 384.184 407.755C383.06 406.62 382.171 405.274 381.568 403.795C380.964 402.316 380.658 400.733 380.666 399.136L380.68 396.579C380.688 394.982 381.011 393.402 381.63 391.929C382.249 390.457 383.152 389.121 384.287 387.997C385.423 386.874 386.768 385.985 388.247 385.381C389.726 384.778 391.31 384.471 392.907 384.48L427.586 384.661C429.184 384.669 430.764 384.992 432.236 385.611C433.709 386.23 435.045 387.133 436.169 388.269C437.292 389.404 438.181 390.75 438.785 392.229C439.388 393.707 439.695 395.291 439.686 396.888L439.673 399.444Z" fill="#0C1E3E"/>
<path d="M410.325 450.501C410.325 454.597 408.698 458.525 405.801 461.422C402.905 464.318 398.977 465.945 394.881 465.945C390.785 465.945 386.856 464.318 383.96 461.422C381.064 458.525 379.437 454.597 379.437 450.501C379.437 446.405 381.064 442.477 383.96 439.58C386.856 436.684 390.785 435.057 394.881 435.057C398.977 435.057 402.905 436.684 405.801 439.58C408.698 442.477 410.325 446.405 410.325 450.501Z" fill="#0C1E3E"/>
<path d="M512.726 450.693C512.726 454.772 511.106 458.684 508.222 461.568C505.337 464.453 501.425 466.073 497.346 466.073C493.267 466.073 489.355 464.453 486.471 461.568C483.586 458.684 481.966 454.772 481.966 450.693C481.966 446.614 483.586 442.702 486.471 439.817C489.355 436.933 493.267 435.313 497.346 435.312C501.425 435.313 505.337 436.933 508.222 439.817C511.106 442.702 512.726 446.614 512.726 450.693Z" fill="#0C1E3E"/>
<path d="M321.942 502.564C321.942 506.643 320.322 510.555 317.437 513.439C314.553 516.324 310.641 517.944 306.562 517.944C304.542 517.944 302.542 517.546 300.676 516.773C298.81 516 297.115 514.867 295.687 513.439C294.258 512.011 293.125 510.315 292.352 508.449C291.58 506.583 291.182 504.583 291.182 502.564C291.182 500.544 291.58 498.544 292.352 496.678C293.125 494.812 294.258 493.116 295.687 491.688C297.115 490.26 298.81 489.127 300.676 488.354C302.542 487.581 304.542 487.183 306.562 487.183C308.582 487.183 310.582 487.581 312.448 488.354C314.314 489.127 316.009 490.26 317.437 491.688C318.866 493.116 319.999 494.812 320.772 496.678C321.544 498.544 321.942 500.544 321.942 502.564Z" fill="#0C1E3E"/>
<path d="M497.736 501.484C497.906 503.468 497.671 505.468 497.046 507.368C496.42 509.269 495.415 511.033 494.089 512.56C492.763 514.088 491.141 515.348 489.316 516.27C487.491 517.191 485.498 517.756 483.453 517.931C481.407 518.106 479.347 517.889 477.392 517.292C475.437 516.695 473.624 515.729 472.057 514.449C470.49 513.17 469.2 511.603 468.26 509.836C467.32 508.07 466.748 506.139 466.578 504.155C466.408 502.17 466.643 500.171 467.268 498.27C467.894 496.37 468.899 494.605 470.225 493.078C471.551 491.551 473.173 490.29 474.998 489.369C476.823 488.447 478.815 487.883 480.861 487.707C482.907 487.532 484.967 487.749 486.922 488.347C488.877 488.944 490.69 489.91 492.257 491.189C493.824 492.468 495.114 494.036 496.054 495.802C496.994 497.568 497.566 499.499 497.736 501.484Z" fill="#0C1E3E"/>
<path d="M390.216 693.454C387.6 693.454 385.091 692.415 383.242 690.565C381.392 688.715 380.353 686.207 380.353 683.591L380.14 566.3C380.133 562.314 380.852 558.365 382.253 554.679C383.654 550.994 385.711 547.644 388.306 544.821C390.902 541.998 393.985 539.758 397.379 538.227C400.773 536.697 404.412 535.907 408.088 535.902H408.6C416.023 535.892 423.146 539.08 428.403 544.764C433.661 550.449 436.621 558.165 436.633 566.215L436.846 683.506C436.846 686.122 435.807 688.63 433.958 690.48C432.108 692.33 429.599 693.369 426.983 693.369L390.216 693.454Z" fill="#0C1E3E"/>
<path d="M289.456 552.028C297.465 531.45 329.93 530.534 338.984 550.856C340.475 554.194 341.284 559.569 341.412 566.982C342.115 606.349 342.413 645.907 342.051 685.295C341.994 690.408 339.488 692.971 334.532 692.985C320.5 693.028 307.066 693.177 294.228 693.433C293.314 693.453 292.405 693.289 291.555 692.95C290.705 692.612 289.932 692.106 289.281 691.462C288.629 690.819 288.113 690.051 287.762 689.204C287.412 688.357 287.235 687.448 287.24 686.531C287.524 648.229 287.553 609.842 287.326 571.37C287.269 562.253 287.979 555.806 289.456 552.028Z" fill="#0C1E3E"/>
<path d="M484.628 693.688C482.345 693.688 480.156 692.781 478.542 691.167C476.928 689.553 476.022 687.364 476.022 685.082L475.809 565.427C475.802 561.602 476.473 557.814 477.782 554.278C479.091 550.743 481.013 547.529 483.438 544.821C485.864 542.113 488.745 539.963 491.917 538.495C495.089 537.027 498.49 536.268 501.925 536.264H505.888C512.824 536.254 519.482 539.312 524.395 544.765C529.309 550.218 532.077 557.619 532.089 565.341L532.302 684.997C532.302 686.127 532.08 687.246 531.647 688.29C531.215 689.334 530.581 690.283 529.782 691.082C528.982 691.881 528.034 692.515 526.99 692.948C525.945 693.38 524.826 693.603 523.696 693.603L484.628 693.688Z" fill="#0C1E3E"/>
<path d="M631.501 413.957C631.556 415.705 631.251 417.447 630.604 419.083C629.957 420.719 628.981 422.219 627.731 423.495C626.48 424.771 624.981 425.799 623.318 426.521C621.654 427.243 619.86 427.644 618.037 427.701C614.355 427.817 610.78 426.526 608.098 424.112C605.416 421.698 603.847 418.359 603.736 414.83C603.681 413.082 603.986 411.341 604.633 409.704C605.28 408.068 606.256 406.568 607.507 405.292C608.757 404.016 610.257 402.988 611.92 402.266C613.583 401.544 615.377 401.144 617.2 401.086C620.882 400.971 624.457 402.262 627.139 404.675C629.821 407.089 631.39 410.428 631.501 413.957Z" fill="#0C1E3E"/>
</svg>
