<svg width="1024" height="1024" viewBox="0 0 1024 1024" fill="none" xmlns="http://www.w3.org/2000/svg">
<rect width="1024" height="1024" fill="white"/>
<path d="M712.294 571.494L712.033 654.771C712.033 655.165 712.19 655.543 712.468 655.821C712.747 656.1 713.125 656.256 713.518 656.256L725.822 656.236C726.518 656.236 727.114 655.989 727.609 655.494C730.084 653.005 730.231 650.763 728.05 648.77C717.633 639.256 715.465 632.552 715.506 617.659C715.546 602.27 715.345 586.869 714.903 571.454" stroke="#515F70" stroke-width="2"/>
<path d="M712.294 571.494L712.033 654.771C712.033 655.165 712.189 655.543 712.468 655.821C712.746 656.1 713.124 656.256 713.518 656.256L725.822 656.236C726.518 656.236 727.113 655.989 727.608 655.494C730.084 653.005 730.231 650.763 728.05 648.77C717.633 639.256 715.465 632.552 715.505 617.659C715.545 602.27 715.344 586.869 714.903 571.454C715.144 569.567 715.231 567.6 715.164 565.552C714.662 549.636 736.54 549.013 736.901 567.58C737.263 586.742 737.577 606.184 737.845 625.908C737.852 626.485 738.022 627.048 738.334 627.531C738.647 628.015 739.09 628.398 739.611 628.638C747.238 632.17 749.547 638.172 749.647 646.722C750.209 693.61 750.323 740.45 749.988 787.244C749.985 787.459 750.026 787.673 750.108 787.872C750.189 788.072 750.31 788.254 750.463 788.407C750.616 788.56 750.799 788.681 751 788.764C751.201 788.847 751.416 788.89 751.634 788.89C762.54 788.877 773.613 788.87 784.853 788.87C791.878 788.87 798.622 796.638 795.752 803.462C792.018 812.354 785.696 811.912 776.162 811.932C598.808 812.053 421.455 812.013 244.102 811.812C239.913 811.812 236.762 811.21 234.648 810.005C226.097 805.108 225.616 795.734 234.247 790.897C240.609 787.324 257.71 788.97 265.318 789.01C265.978 789.01 266.611 788.75 267.077 788.287C267.544 787.824 267.806 787.196 267.806 786.542C267.86 739.306 267.82 691.984 267.686 644.575C267.666 636.345 270.496 630.926 277.12 626.811C277.851 626.35 278.452 625.712 278.867 624.957C279.281 624.201 279.495 623.354 279.488 622.496C279.328 603.816 279.261 585.002 279.287 566.054C279.287 561.759 281.669 558.273 286.433 555.597C293.197 551.763 300.262 556.099 300.282 563.545C300.336 582.092 300.376 600.638 300.403 619.184C300.423 630.404 298.074 637.509 291.069 645.398C288.681 648.067 288.239 650.456 289.002 653.727C289.484 655.775 290.775 656.798 292.876 656.798L305.521 656.738C305.645 656.735 305.767 656.709 305.88 656.66C305.994 656.611 306.096 656.541 306.182 656.453C306.268 656.366 306.335 656.263 306.38 656.15C306.425 656.037 306.447 655.916 306.444 655.795L305.922 563.204C305.923 562.767 305.832 562.335 305.656 561.934C305.48 561.533 305.222 561.173 304.899 560.876L297.412 553.851C296.971 553.436 296.743 552.921 296.73 552.305L296.308 502.728C296.308 502.271 296.151 501.827 295.862 501.472C295.573 501.118 295.171 500.874 294.722 500.781C286.854 499.196 284.968 493.134 284.687 485.467C284.205 472.781 282.94 457.607 289.082 452.509C292.294 449.819 296.669 450.281 300.603 450.441C300.883 450.455 301.163 450.411 301.425 450.312C301.688 450.214 301.928 450.062 302.13 449.867C302.333 449.671 302.494 449.437 302.605 449.177C302.715 448.917 302.771 448.637 302.771 448.354C302.878 398.014 302.718 348.009 302.289 298.338C302.223 289.721 303.039 283.305 304.738 279.09C307.307 272.667 311.543 267.475 317.444 263.514C318.086 263.085 318.607 262.496 318.955 261.803C319.303 261.11 319.467 260.337 319.431 259.56C318.969 249.283 317.143 237.742 327.439 231.138C335.267 226.14 350.02 232.804 354.757 226.522C360.056 219.477 368.546 203.66 378.642 217.49C379.03 218.025 379.224 218.62 379.224 219.276L379.164 228.348C379.164 229.044 379.519 229.392 380.228 229.392C410.643 229.579 430.374 229.64 439.419 229.573C459.21 229.412 458.387 245.57 457.403 259.881C457.378 260.189 457.421 260.5 457.528 260.791C457.636 261.082 457.805 261.347 458.026 261.567C464.368 267.93 471.935 275.758 475.006 285.051C476.037 288.182 476.558 292.932 476.572 299.302C476.732 349.08 476.9 398.857 477.074 448.635C477.074 449.029 477.23 449.407 477.509 449.685C477.787 449.964 478.165 450.12 478.559 450.12H536.767C537.828 450.12 538.846 449.7 539.598 448.952C540.351 448.203 540.776 447.187 540.781 446.126C540.968 397.566 541.009 348.859 540.902 300.004C540.888 292.163 541.423 286.59 542.507 283.285C545.96 272.807 552.162 269.174 559.689 262.089C559.92 261.875 560.102 261.611 560.22 261.316C560.338 261.021 560.39 260.702 560.371 260.383C560.05 253.92 558.946 246.373 561.074 240.672C563.843 233.232 569.45 229.539 577.894 229.593C597.524 229.727 616.645 229.727 635.258 229.593C636.503 229.579 637.179 228.951 637.286 227.706C637.727 222.421 639.012 218.373 641.139 215.563C649.409 204.604 660.248 221.986 664.202 227.505C664.524 227.952 664.95 228.313 665.443 228.558C665.936 228.802 666.482 228.923 667.032 228.91C674.318 228.75 685.658 227.164 691.56 231.6C701.053 238.745 698.364 251.21 697.982 261.567C697.969 261.886 698.029 262.206 698.158 262.501C698.286 262.796 698.48 263.06 698.725 263.273C703.582 267.555 707.577 272.446 710.708 277.945C714.782 285.091 714.923 294.364 714.823 302.112C714.14 351.341 714.08 400.517 714.642 449.639C714.642 449.923 714.753 450.195 714.952 450.398C715.151 450.601 715.422 450.717 715.706 450.722C719.078 450.783 722.992 449.96 725.962 451.064C735.396 454.576 732.827 474.688 732.586 484.965C732.365 493.475 729.395 498.654 721.065 500.239C720.382 500.373 720.041 500.788 720.041 501.484C719.948 516.042 719.941 530.554 720.021 545.019C720.041 546.404 720.503 547.608 721.145 548.753C721.466 549.328 721.486 549.923 721.205 550.539C719.452 554.352 716.763 557.263 713.137 559.27C712.508 559.605 712.2 560.126 712.213 560.836L712.294 571.494Z" fill="#01020A"/>
<path d="M759.014 326.583C757.687 326.72 756.345 326.581 755.064 326.174C753.784 325.767 752.589 325.099 751.549 324.21C750.509 323.321 749.644 322.227 749.003 320.99C748.362 319.754 747.958 318.4 747.814 317.005C747.523 314.188 748.308 311.377 749.997 309.189C751.685 307.001 754.139 305.617 756.819 305.34C758.145 305.203 759.487 305.342 760.768 305.749C762.049 306.156 763.244 306.823 764.284 307.712C765.324 308.602 766.189 309.696 766.83 310.932C767.471 312.168 767.875 313.523 768.019 314.917C768.31 317.734 767.525 320.546 765.836 322.734C764.147 324.921 761.693 326.306 759.014 326.583Z" fill="#25597D"/>
<path d="M276.026 337.338C275.324 338.444 274.402 339.396 273.314 340.138C272.225 340.881 270.99 341.4 269.68 341.665C268.37 341.931 267.011 341.939 265.679 341.687C264.347 341.436 263.07 340.931 261.919 340.201C259.595 338.726 257.93 336.424 257.289 333.802C256.649 331.18 257.085 328.451 258.503 326.218C259.205 325.111 260.126 324.16 261.215 323.418C262.304 322.675 263.539 322.156 264.849 321.89C266.159 321.625 267.518 321.617 268.85 321.868C270.182 322.12 271.459 322.625 272.61 323.355C274.933 324.83 276.599 327.132 277.24 329.754C277.88 332.376 277.444 335.104 276.026 337.338Z" fill="#25597D"/>
<path d="M740.447 375.45C738.157 374.031 736.557 371.71 735.997 368.998C735.438 366.286 735.965 363.405 737.463 360.989C738.961 358.573 741.307 356.82 743.985 356.115C746.663 355.411 749.453 355.812 751.743 357.232C754.032 358.651 755.633 360.972 756.192 363.684C756.752 366.396 756.225 369.277 754.727 371.693C753.229 374.109 750.883 375.862 748.205 376.567C745.527 377.271 742.736 376.87 740.447 375.45Z" fill="#25597D"/>
<path d="M712.294 571.494C713.097 571.975 713.966 571.962 714.903 571.454C715.345 586.869 715.545 602.27 715.505 617.659C715.465 632.552 717.633 639.256 728.05 648.77C730.231 650.763 730.084 653.005 727.608 655.494C727.113 655.989 726.518 656.236 725.822 656.236L713.518 656.256C713.124 656.256 712.746 656.1 712.468 655.821C712.189 655.543 712.033 655.165 712.033 654.771L712.294 571.494Z" fill="#A0BCD5"/>
<path d="M455.477 320.397C452.359 316.53 450.773 312.596 450.72 308.595C450.579 296.432 451.261 284.288 436.87 282.622C432.053 282.074 427.216 281.813 422.358 281.839C402.139 281.933 381.921 281.993 361.702 282.02C350.622 282.04 342.834 284.589 334.344 290.671C334.076 290.866 333.865 291.129 333.731 291.432C333.597 291.735 333.546 292.068 333.581 292.397L334.906 303.999C334.934 304.193 335.021 304.375 335.155 304.519C335.289 304.663 335.464 304.762 335.656 304.804C335.849 304.845 336.049 304.827 336.231 304.751C336.413 304.675 336.567 304.546 336.672 304.38C339.282 300.004 341.71 294.665 345.444 291.514C350.602 287.178 358.771 283.867 365.696 285.392C369.329 286.175 372.44 286.135 375.772 287.58C380.509 289.614 384.891 292.069 388.919 294.946C389.534 295.374 390.123 295.341 390.685 294.846C395.409 290.751 400.828 287.934 406.943 286.396C407.599 286.222 408.067 286.449 408.348 287.078C408.629 287.694 408.756 288.369 408.73 289.105" stroke="#F8F2ED" stroke-width="2"/>
<path d="M689.453 286.175C689.68 286.817 689.7 287.319 689.513 287.68C689.419 287.869 689.283 288.032 689.113 288.157C688.944 288.282 688.747 288.366 688.538 288.401C688.329 288.436 688.114 288.422 687.911 288.359C687.707 288.297 687.52 288.188 687.365 288.042C683.578 284.442 679.196 282.535 674.218 282.321C667.354 282.02 661.573 281.338 655.21 280.976C653.685 280.883 652.802 281.364 652.561 282.421C652.46 282.883 652.531 283.366 652.76 283.78C652.989 284.194 653.36 284.51 653.805 284.669C661.091 287.279 673.175 291.213 676.888 298.659C680.4 305.664 683.391 313.151 681.906 321.12C681.839 321.494 681.625 321.641 681.263 321.561C680.902 321.494 680.601 321.541 680.36 321.702C679.892 322.023 679.644 321.896 679.618 321.32L679.517 319.775" stroke="#F8F2ED" stroke-width="2"/>
<path d="M378.943 328.647C377.726 330.025 375.932 328.941 373.564 325.395C372.761 324.218 372.259 324.331 372.059 325.736L371.697 328.326C371.642 328.717 371.44 329.073 371.134 329.319C370.828 329.566 370.44 329.684 370.051 329.65L364.873 329.269C364.204 329.215 363.568 329.343 362.966 329.65C361.735 330.293 360.564 330.553 359.454 330.433" stroke="#BCCDDE" stroke-width="2"/>
<path d="M363.528 450.241C363.247 423.251 362.832 406.157 362.284 398.958C361.762 391.946 361.534 384.921 361.601 377.882C361.722 364.836 361.682 351.789 361.481 338.743C361.467 337.231 361.113 335.732 360.417 334.247C360.042 333.417 359.842 333.457 359.815 334.367L359.454 344.704" stroke="#8DABC9" stroke-width="2"/>
<path d="M657.438 330.995L638.812 330.854" stroke="#BCCDDE" stroke-width="2"/>
<path d="M420.19 328.446L402.868 329.409C402.266 329.436 401.938 329.155 401.885 328.566L401.624 325.776" stroke="#BCCDDE" stroke-width="2"/>
<path d="M615.749 328.968C614.036 330.279 611.313 330.594 607.58 329.911" stroke="#BCCDDE" stroke-width="2"/>
<path d="M607.58 329.911C606.549 329.657 606.141 329.389 606.355 329.108C609.326 325.228 609.593 321.354 607.158 317.487C606.959 317.169 606.679 316.911 606.347 316.737C606.015 316.564 605.643 316.482 605.268 316.501C604.894 316.519 604.532 316.637 604.218 316.842C603.905 317.047 603.652 317.332 603.485 317.668C601.692 321.187 601.203 324.893 602.02 328.787C602.1 329.202 601.939 329.47 601.538 329.59C601.27 329.684 601.103 329.804 601.036 329.951" stroke="#F8F2ED" stroke-width="2"/>
<path d="M601.037 329.951L598.829 330.955" stroke="#BCCDDE" stroke-width="2"/>
<path d="M598.829 330.955C598.428 330.554 597.859 330.286 597.123 330.152" stroke="#E0EAF3" stroke-width="2"/>
<path d="M599.271 450.241C599.525 448.796 599.605 445.25 599.512 439.603C599.217 420.722 599.338 386.935 599.873 338.241C599.886 336.702 599.538 334.273 598.829 330.955" stroke="#9DB8D1" stroke-width="2"/>
<path d="M607.58 329.911L601.036 329.951" stroke="#B5BFCB" stroke-width="2"/>
<path d="M456.4 536.248L444.377 536.208" stroke="#8B9FAC" stroke-width="2"/>
<path d="M658.02 506.682C657.391 510.094 657.425 513.881 658.121 518.043" stroke="#92ACBE" stroke-width="2"/>
<path d="M565.429 559.672L476.552 560.414" stroke="#92ACBE" stroke-width="2"/>
<path d="M658.963 559.531C643.936 560.387 628.996 560.635 614.143 560.274C610.43 560.193 607.459 559.511 603.003 560.253C598.909 560.936 593.657 560.628 587.247 559.33" stroke="#BCCDDE" stroke-width="2"/>
<path d="M430.889 566.898C428.975 576.746 428.928 586.16 430.748 595.138" stroke="#D0DEEA" stroke-width="2"/>
<path d="M351.505 585.082C351.251 583.557 351.351 582.379 351.806 581.55C351.868 581.437 351.952 581.338 352.053 581.259C352.154 581.18 352.271 581.121 352.396 581.088C352.522 581.054 352.653 581.046 352.783 581.063C352.912 581.08 353.037 581.123 353.151 581.189C354.114 581.764 354.924 582.5 355.579 583.396C355.74 583.629 355.986 583.791 356.267 583.847C356.547 583.903 356.84 583.849 357.085 583.698C370.312 575.348 376.916 581.289 387.875 588.475C388.45 588.849 388.939 588.762 389.34 588.214C392.03 584.661 398.513 582.353 402.507 580.446C409.111 577.295 419.006 583.035 424.485 586.628C425.114 587.043 425.663 586.949 426.131 586.347C426.573 585.798 426.814 585.096 426.854 584.239C426.881 583.53 426.76 582.841 426.493 582.172C425.489 579.683 425.529 577.114 426.613 574.465C427.603 572.056 426.8 570.845 424.204 570.832L351.786 570.45" stroke="#F8F2ED" stroke-width="2"/>
<path d="M460.354 718.78L455.155 728.856C454.916 729.316 454.564 729.709 454.133 729.997C453.701 730.285 453.203 730.458 452.686 730.502C450.184 730.702 449.441 729.605 450.458 727.21" stroke="#BCCDDE" stroke-width="2"/>
<path d="M565.75 720.566C564.921 721.623 564.479 722.6 564.426 723.497C564.252 726.44 563.576 726.561 562.398 723.858C561.254 721.228 563.141 718.318 562.659 715.709C562.352 713.929 562.218 712.651 562.258 711.875C562.78 703.726 562.586 695.784 561.676 688.05C561.596 687.324 561.244 686.655 560.69 686.175C560.136 685.696 559.42 685.441 558.685 685.461C552.624 685.641 547.666 681.908 541.785 685.2C541.464 685.38 541.19 685.634 540.985 685.939C540.78 686.245 540.65 686.595 540.605 686.96C540.561 687.325 540.602 687.696 540.727 688.042C540.851 688.388 541.056 688.7 541.323 688.953C544.735 692.165 545.879 696.099 547.686 698.808C553.293 707.252 556.558 712.818 557.481 715.508C557.989 716.98 557.675 717.87 556.537 718.178" stroke="#F8F2ED" stroke-width="2"/>
<path d="M565.931 722.533L564.566 726.728C564.496 726.938 564.368 727.124 564.197 727.265C564.027 727.406 563.82 727.496 563.6 727.525C563.381 727.555 563.158 727.522 562.956 727.431C562.754 727.339 562.582 727.193 562.459 727.009C561.964 726.233 561.094 725.571 559.85 725.022" stroke="#B5BFCB" stroke-width="2"/>
<path d="M569.584 731.485C570.052 733.987 570.929 736.329 572.213 738.51C572.525 739.056 572.638 739.694 572.535 740.317C570.086 754.367 570.788 769.882 572.053 785.9C572.12 786.729 571.758 787.258 570.969 787.485C570.059 787.753 569.156 787.679 568.259 787.264C567.577 786.943 567.216 786.401 567.175 785.639L565.449 744.913" stroke="#4F7A9D" stroke-width="2"/>
<path d="M425.449 788.89C423.174 788.836 422.057 788.328 422.097 787.365C422.592 776.78 422.766 766.189 422.619 755.591C422.559 752.319 420.431 750.071 419.929 746.659C419.147 741.4 414.51 739.072 410.817 736.483" stroke="#F8F2ED" stroke-width="2"/>
<path d="M410.817 736.483L402.949 726.989" stroke="#FFDFBB" stroke-width="2"/>
<path d="M402.949 726.989L386.35 712.076C385.675 711.464 384.803 711.116 383.893 711.094C382.983 711.071 382.095 711.377 381.392 711.956C372.139 719.523 363.287 726.247 357.065 737.848C355.339 741.086 354.355 744.706 354.115 748.707C353.325 762.195 353.265 775.656 353.934 789.091" stroke="#FFBF96" stroke-width="2"/>
<path d="M402.949 726.989L401.865 733.171" stroke="#FF9F52" stroke-width="2"/>
<path d="M410.817 736.483C411.138 737.888 410.556 739.929 409.071 742.605" stroke="#F8D1A9" stroke-width="2"/>
<path d="M665.808 788.77C666.076 774.559 666.096 764.215 665.868 757.739C665.728 753.504 665.085 746.82 662.737 742.464C661.841 740.778 660.924 739.112 659.987 737.466C659.666 736.904 659.245 736.423 658.723 736.021L653.604 732.067" stroke="#F8F2ED" stroke-width="2"/>
<path d="M653.604 732.067C650.794 728.374 648.225 725.042 644.451 722.051C640.999 719.322 637.594 716.538 634.235 713.701C629.438 709.667 627.832 712.457 623.978 715.066C614.491 721.529 607.325 729.832 602.481 739.975" stroke="#FFBF96" stroke-width="2"/>
<path d="M602.482 739.975C597.203 749.53 595.537 756.896 595.999 768.698C596.253 775.282 596.193 781.899 595.818 788.549" stroke="#FFDFBB" stroke-width="2"/>
<path d="M653.604 732.067C654.554 733.927 655.029 735.747 655.029 737.527C655.042 738.131 654.82 738.721 654.407 739.173C653.484 740.163 653.223 741.16 653.624 742.163" stroke="#F7B284" stroke-width="2"/>
<path d="M605.332 750.172C605.773 748.941 605.927 747.897 605.793 747.041C605.726 746.599 605.492 746.271 605.091 746.057L603.927 745.415C603.485 745.161 603.224 744.786 603.144 744.291L602.481 739.975" stroke="#FF9F52" stroke-width="2"/>
<path d="M511.156 697.062C510.687 700.461 509.991 703.806 509.068 707.098C508.52 709.065 508.821 710.744 509.971 712.136C510.346 712.591 510.5 713.106 510.433 713.681C510.232 715.394 510.4 717.054 510.935 718.659C511.043 718.993 511.023 719.355 510.878 719.674C510.733 719.994 510.474 720.247 510.152 720.385C508.68 721.001 507.844 722.078 507.643 723.617C507.576 724.125 507.797 724.373 508.305 724.36C510.085 724.319 510.774 724.701 510.373 725.504" stroke="#FF9F52" stroke-width="2"/>
<path d="M515.049 700.575C513.979 701.391 513.591 702.696 513.885 704.489C514.541 708.436 516.307 711.28 519.184 713.019C522.744 715.16 527.039 719.864 532.07 727.13C533.676 729.445 534.961 731.833 535.924 734.295C537.369 738.015 538.058 740.651 537.991 742.204C537.697 749.081 538.232 756.167 539.597 763.459C539.64 763.714 539.778 763.944 539.985 764.106C540.192 764.269 540.453 764.353 540.721 764.343L541.283 764.322C541.768 764.307 542.227 764.103 542.564 763.755C542.901 763.407 543.09 762.941 543.09 762.456V740.337" stroke="#F8D1A9" stroke-width="2"/>
<path d="M514.427 788.509V755.17C514.427 754.514 514.227 753.932 513.825 753.423L511.035 749.77C510.812 749.484 510.533 749.246 510.215 749.072C509.897 748.899 509.547 748.792 509.187 748.76C508.827 748.728 508.464 748.771 508.123 748.886C507.781 749.001 507.467 749.186 507.202 749.429C504.405 751.972 502.94 755.417 502.806 759.766C502.538 768.825 502.398 778.339 502.384 788.308" stroke="#FE734A" stroke-width="2"/>
<path d="M435.308 254.921C435.308 255.246 435.18 255.558 434.951 255.787C434.722 256.017 434.41 256.147 434.086 256.148L341.917 256.309C341.756 256.309 341.597 256.277 341.448 256.216C341.299 256.155 341.164 256.065 341.05 255.951C340.936 255.838 340.846 255.703 340.784 255.555C340.722 255.406 340.69 255.247 340.69 255.086L340.684 251.273C340.683 250.948 340.812 250.636 341.041 250.406C341.27 250.176 341.581 250.047 341.906 250.046L434.075 249.885C434.235 249.885 434.395 249.916 434.543 249.978C434.692 250.039 434.827 250.129 434.941 250.242C435.055 250.356 435.145 250.491 435.207 250.639C435.269 250.788 435.301 250.947 435.301 251.108L435.308 254.921Z" fill="white"/>
<path d="M676.365 255.425C676.365 255.675 676.266 255.915 676.089 256.092C675.912 256.269 675.672 256.368 675.422 256.368H582.691C582.44 256.368 582.2 256.269 582.023 256.092C581.847 255.915 581.747 255.675 581.747 255.425V251.33C581.747 251.08 581.847 250.84 582.023 250.663C582.2 250.486 582.44 250.387 582.691 250.387H675.422C675.672 250.387 675.912 250.486 676.089 250.663C676.266 250.84 676.365 251.08 676.365 251.33V255.425Z" fill="white"/>
<path d="M455.477 320.397C452.359 316.53 450.774 312.596 450.72 308.595C450.58 296.431 451.262 284.288 436.871 282.622C432.053 282.073 427.216 281.813 422.359 281.839C402.14 281.933 381.921 281.993 361.702 282.02C350.623 282.04 342.835 284.589 334.344 290.671C334.077 290.866 333.866 291.129 333.732 291.432C333.598 291.735 333.546 292.068 333.582 292.397L334.906 303.998C334.934 304.193 335.021 304.375 335.155 304.519C335.29 304.663 335.465 304.762 335.657 304.804C335.849 304.845 336.05 304.827 336.231 304.751C336.413 304.675 336.567 304.546 336.673 304.38C339.282 300.004 341.711 294.665 345.444 291.514C350.603 287.178 358.772 283.867 365.696 285.392C369.329 286.175 372.441 286.135 375.772 287.58C380.509 289.614 384.892 292.069 388.919 294.946C389.535 295.374 390.124 295.341 390.686 294.846C395.409 290.751 400.829 287.934 406.944 286.396C407.599 286.222 408.068 286.449 408.349 287.078C408.63 287.694 408.757 288.369 408.73 289.105C401.29 291.634 395.249 295.642 390.605 301.128C390.497 301.254 390.363 301.355 390.212 301.424C390.061 301.493 389.896 301.528 389.729 301.528C389.562 301.528 389.396 301.493 389.242 301.424C389.089 301.355 388.951 301.254 388.839 301.128C379.506 290.57 364.914 283.545 351.426 293.943C339.844 302.874 338.118 312.127 338.098 327.382C338.018 367.592 338.078 407.923 338.279 448.374C338.279 450.542 337.195 451.612 335.027 451.585L326.978 451.505C326.034 451.495 325.131 451.115 324.463 450.447C323.796 449.779 323.416 448.877 323.405 447.932C322.924 401.634 322.85 355.034 323.185 308.133C323.285 296.431 323.265 286.817 333.943 279.471C336.245 277.892 339.255 277.082 342.975 277.042C373.043 276.788 403.11 276.755 433.177 276.942C437.7 276.969 441.333 277.798 444.076 279.431C459.271 288.523 455.316 305.444 455.477 320.397Z" fill="white"/>
<path d="M689.453 286.175C689.68 286.817 689.7 287.319 689.513 287.68C689.419 287.869 689.282 288.032 689.113 288.157C688.944 288.282 688.747 288.366 688.538 288.401C688.329 288.436 688.114 288.422 687.911 288.359C687.707 288.297 687.52 288.188 687.365 288.041C683.578 284.442 679.196 282.535 674.218 282.321C667.354 282.02 661.573 281.338 655.21 280.976C653.685 280.883 652.802 281.364 652.561 282.421C652.46 282.883 652.531 283.366 652.76 283.78C652.989 284.194 653.36 284.51 653.805 284.669C661.091 287.279 673.174 291.213 676.888 298.659C680.4 305.664 683.391 313.151 681.906 321.12C681.839 321.494 681.625 321.641 681.263 321.561C680.902 321.494 680.601 321.541 680.36 321.702C679.892 322.023 679.644 321.896 679.617 321.32L679.517 319.775C677.41 295.95 651.878 278.909 631.445 296.452C630.081 297.616 628.702 298.76 627.311 299.884C626.802 300.285 626.3 300.279 625.805 299.864C624.052 298.419 622.286 297.054 620.506 295.769C607.379 286.349 595.263 287.185 584.157 298.278C578.764 303.671 576.068 310.468 576.068 318.671C576.108 361.597 575.994 405.207 575.726 449.498C575.726 450.983 574.977 451.719 573.478 451.706L563.382 451.606C562.841 451.6 562.323 451.381 561.94 450.994C561.558 450.608 561.34 450.085 561.335 449.538C561.201 399.573 561.308 350.083 561.656 301.068C561.737 290.45 564.245 283.726 573.639 279.29C578.148 277.163 582.919 276.119 587.95 276.159C616.719 276.4 645.489 276.681 674.258 277.002C679.811 277.069 684.876 280.127 689.453 286.175Z" fill="white"/>
<path d="M455.477 320.397L456.32 448.113C456.333 450 455.396 451.003 453.509 451.124L445.501 451.666C445.129 451.69 444.756 451.639 444.404 451.516C444.052 451.393 443.729 451.2 443.453 450.949C443.178 450.698 442.956 450.394 442.801 450.055C442.646 449.716 442.56 449.349 442.55 448.976C441.527 411.623 442.189 374.189 442.269 336.836C442.31 322.05 441.259 312.087 439.118 306.949C434.247 295.254 424.118 289.306 408.73 289.105C408.756 288.369 408.629 287.694 408.348 287.078C408.067 286.449 407.599 286.222 406.943 286.396C400.828 287.934 395.409 290.751 390.685 294.846C390.123 295.341 389.534 295.374 388.919 294.946C384.891 292.069 380.509 289.614 375.772 287.58C372.44 286.135 369.329 286.175 365.696 285.392C358.771 283.867 350.602 287.178 345.444 291.514C341.71 294.665 339.282 300.004 336.672 304.38C336.567 304.546 336.413 304.675 336.231 304.751C336.049 304.827 335.849 304.845 335.656 304.804C335.464 304.762 335.289 304.663 335.155 304.519C335.021 304.375 334.934 304.193 334.906 303.999L333.581 292.397C333.546 292.068 333.597 291.735 333.731 291.432C333.865 291.129 334.076 290.866 334.344 290.671C342.834 284.589 350.622 282.04 361.702 282.02C381.921 281.993 402.139 281.933 422.358 281.839C427.216 281.813 432.053 282.074 436.87 282.622C451.261 284.288 450.579 296.432 450.72 308.595C450.773 312.596 452.359 316.53 455.477 320.397Z" fill="#F0E4DA"/>
<path d="M689.453 286.175C692.423 289.667 693.909 292.303 693.909 294.083C693.969 345.627 693.447 397.171 693.367 448.735C693.353 450.368 692.53 451.184 690.898 451.184L682.287 451.244C681.956 451.247 681.627 451.184 681.321 451.059C681.014 450.934 680.735 450.75 680.5 450.517C680.265 450.283 680.078 450.006 679.951 449.7C679.824 449.394 679.758 449.066 679.758 448.735L679.517 319.775L679.618 321.32C679.644 321.896 679.892 322.023 680.36 321.702C680.601 321.541 680.902 321.494 681.263 321.561C681.625 321.641 681.839 321.494 681.906 321.12C683.391 313.151 680.4 305.664 676.888 298.659C673.175 291.213 661.091 287.279 653.805 284.669C653.36 284.51 652.989 284.194 652.76 283.78C652.531 283.366 652.46 282.883 652.561 282.421C652.802 281.364 653.685 280.883 655.21 280.976C661.573 281.338 667.354 282.02 674.218 282.321C679.196 282.535 683.578 284.442 687.365 288.042C687.52 288.188 687.707 288.297 687.911 288.359C688.114 288.422 688.329 288.436 688.538 288.401C688.747 288.366 688.944 288.282 689.113 288.157C689.283 288.032 689.419 287.869 689.513 287.68C689.7 287.319 689.68 286.817 689.453 286.175Z" fill="#F0E4DA"/>
<path d="M378.943 328.647C377.726 330.025 375.933 328.941 373.564 325.395C372.761 324.217 372.259 324.331 372.059 325.736L371.697 328.325C371.642 328.717 371.441 329.073 371.134 329.319C370.828 329.566 370.441 329.684 370.052 329.65L364.873 329.269C364.204 329.215 363.568 329.342 362.966 329.65C361.735 330.292 360.564 330.553 359.454 330.433C358.892 325.321 359.735 320.738 361.983 316.684C365.355 310.582 371.497 310.763 375.33 316.222C377.712 319.634 378.917 323.776 378.943 328.647Z" fill="white"/>
<path d="M657.438 330.995L638.812 330.854C638.865 324.458 639.253 320.257 639.976 318.249C642.705 310.662 651.416 310.321 655.812 317.045C658.221 320.738 657.739 326.84 657.438 330.995Z" fill="white"/>
<path d="M420.19 328.446L402.868 329.409C402.266 329.436 401.938 329.155 401.885 328.566L401.624 325.776C402.929 318.831 405.699 309.719 414.289 313.211C419.254 315.232 421.221 320.31 420.19 328.446Z" fill="white"/>
<path d="M615.749 328.968C614.036 330.279 611.313 330.593 607.58 329.911C606.549 329.657 606.141 329.389 606.355 329.108C609.326 325.228 609.594 321.354 607.158 317.487C606.959 317.169 606.679 316.91 606.347 316.737C606.015 316.564 605.643 316.482 605.269 316.501C604.895 316.519 604.532 316.637 604.219 316.842C603.905 317.047 603.652 317.332 603.485 317.667C601.692 321.186 601.204 324.893 602.02 328.787C602.1 329.202 601.94 329.469 601.538 329.59C601.271 329.684 601.103 329.804 601.036 329.951L598.828 330.955C598.427 330.553 597.858 330.286 597.122 330.152C596.574 326.592 596.801 323.18 597.805 319.915C600.334 311.586 608.021 310.02 613.24 317.627C614.913 320.076 615.749 323.856 615.749 328.968Z" fill="white"/>
<path d="M607.58 329.911L601.036 329.951C601.103 329.804 601.27 329.684 601.538 329.59C601.939 329.47 602.1 329.202 602.02 328.787C601.203 324.893 601.692 321.187 603.485 317.668C603.652 317.332 603.905 317.047 604.218 316.842C604.532 316.637 604.894 316.519 605.268 316.501C605.643 316.482 606.015 316.564 606.347 316.737C606.679 316.911 606.959 317.169 607.158 317.487C609.593 321.354 609.326 325.228 606.355 329.108C606.141 329.389 606.549 329.657 607.58 329.911Z" fill="#F0E4DA"/>
<path d="M378.943 328.647L379.646 448.856C379.659 450.274 378.95 450.984 377.518 450.984L362.625 450.923C362.564 450.912 362.508 450.881 362.467 450.835C362.426 450.788 362.401 450.73 362.396 450.668C362.392 450.606 362.408 450.544 362.442 450.492C362.476 450.441 362.526 450.402 362.585 450.381L363.528 450.241C363.247 423.251 362.832 406.157 362.284 398.958C361.762 391.946 361.534 384.921 361.601 377.883C361.722 364.836 361.682 351.789 361.481 338.743C361.467 337.231 361.113 335.732 360.417 334.247C360.042 333.417 359.842 333.457 359.815 334.367L359.454 344.704V330.433C360.564 330.553 361.735 330.293 362.966 329.65C363.568 329.343 364.204 329.215 364.873 329.269L370.051 329.65C370.44 329.684 370.828 329.566 371.134 329.319C371.44 329.073 371.642 328.717 371.697 328.326L372.059 325.736C372.259 324.331 372.761 324.218 373.564 325.395C375.932 328.941 377.726 330.025 378.943 328.647Z" fill="#799ABC"/>
<path d="M401.625 325.776L401.886 328.566C401.939 329.155 402.267 329.436 402.869 329.409L420.191 328.446L420.291 449.598C420.291 450.361 419.903 450.749 419.127 450.763L402.99 451.044C402.679 451.049 402.37 450.992 402.082 450.876C401.793 450.76 401.531 450.588 401.31 450.369C401.089 450.15 400.915 449.889 400.796 449.602C400.678 449.314 400.618 449.006 400.621 448.695C400.956 409.435 400.996 370.891 400.742 333.062C400.742 330.634 401.444 328.285 401.625 325.776Z" fill="#799ABC"/>
<path d="M615.75 328.968L616.914 449.438C616.927 450.174 616.559 450.535 615.81 450.522L599.271 450.241C599.525 448.796 599.605 445.25 599.512 439.603C599.217 420.722 599.338 386.935 599.873 338.241C599.886 336.702 599.538 334.273 598.829 330.955L601.037 329.951L607.58 329.911C611.314 330.594 614.037 330.279 615.75 328.968Z" fill="#799ABC"/>
<path d="M597.123 330.152C597.859 330.286 598.428 330.554 598.829 330.955C599.538 334.273 599.886 336.702 599.873 338.241C599.338 386.935 599.217 420.722 599.512 439.603C599.605 445.25 599.525 448.796 599.271 450.241C599.043 450.428 598.635 450.375 598.046 450.08C597.872 449.997 597.725 449.866 597.622 449.703C597.519 449.539 597.464 449.35 597.464 449.157L597.123 330.152Z" fill="#C0D5E6"/>
<path d="M638.812 330.854L657.438 330.995L658.301 449.859C658.301 450.062 658.219 450.256 658.072 450.399C657.925 450.542 657.726 450.622 657.518 450.622L640.076 450.482C639.567 450.482 639.313 450.221 639.313 449.699L638.812 330.854Z" fill="#799ABC"/>
<path d="M363.528 450.241C361.294 450.334 360.163 449.297 360.136 447.13C359.882 412.968 359.654 378.826 359.454 344.704L359.815 334.367C359.842 333.457 360.042 333.417 360.417 334.247C361.113 335.732 361.467 337.231 361.481 338.743C361.682 351.789 361.722 364.836 361.601 377.882C361.534 384.921 361.762 391.946 362.284 398.958C362.832 406.157 363.247 423.251 363.528 450.241Z" fill="#A0BCD5"/>
<path d="M711.712 477.478C711.712 478.053 711.484 478.604 711.077 479.011C710.671 479.417 710.119 479.646 709.544 479.646H307.469C306.894 479.646 306.342 479.417 305.936 479.011C305.529 478.604 305.301 478.053 305.301 477.478V474.507C305.301 473.933 305.529 473.381 305.936 472.975C306.342 472.568 306.894 472.34 307.469 472.34H709.544C710.119 472.34 710.671 472.568 711.077 472.975C711.484 473.381 711.712 473.933 711.712 474.507V477.478Z" fill="white"/>
<path d="M538.604 534.993C538.599 535.637 538.338 536.253 537.878 536.704C537.419 537.156 536.799 537.406 536.155 537.401L534.027 537.382C533.383 537.376 532.768 537.115 532.316 536.656C531.865 536.196 531.614 535.576 531.62 534.932L531.918 500.731C531.924 500.087 532.185 499.472 532.644 499.02C533.104 498.569 533.724 498.318 534.368 498.324L536.496 498.343C537.14 498.348 537.755 498.609 538.206 499.069C538.658 499.528 538.908 500.148 538.903 500.792L538.604 534.993Z" fill="white"/>
<path d="M336.952 535.152C336.951 535.326 336.917 535.499 336.849 535.659C336.782 535.819 336.684 535.965 336.561 536.088C336.437 536.21 336.291 536.307 336.13 536.373C335.969 536.439 335.797 536.473 335.623 536.473L321.773 536.424C321.599 536.424 321.427 536.389 321.267 536.322C321.106 536.254 320.96 536.156 320.838 536.033C320.715 535.909 320.618 535.763 320.552 535.602C320.486 535.441 320.453 535.269 320.453 535.095L320.576 499.769C320.577 499.595 320.612 499.423 320.679 499.262C320.746 499.102 320.844 498.956 320.968 498.833C321.091 498.711 321.237 498.614 321.398 498.548C321.559 498.482 321.732 498.448 321.906 498.449L335.755 498.497C335.929 498.498 336.101 498.533 336.262 498.6C336.422 498.667 336.568 498.765 336.691 498.888C336.813 499.012 336.91 499.158 336.976 499.319C337.042 499.48 337.076 499.652 337.075 499.826L336.952 535.152Z" fill="white"/>
<path d="M360.116 537.814C359.834 537.814 359.563 537.702 359.364 537.502C359.164 537.303 359.052 537.032 359.052 536.75L359.112 502.207C359.113 501.672 359.208 501.143 359.393 500.65C359.578 500.157 359.849 499.709 360.19 499.332C360.531 498.956 360.936 498.657 361.382 498.455C361.827 498.252 362.304 498.149 362.786 498.152H363.107C364.072 498.158 364.997 498.587 365.677 499.347C366.358 500.107 366.74 501.135 366.74 502.207L366.68 536.75C366.68 537.032 366.567 537.303 366.368 537.502C366.168 537.702 365.898 537.814 365.616 537.814H360.116Z" fill="white"/>
<path d="M387.514 537.512C387.205 537.512 386.909 537.39 386.691 537.171C386.472 536.953 386.35 536.657 386.35 536.348V502.066C386.35 501.033 386.762 500.043 387.496 499.312C388.23 498.582 389.226 498.172 390.264 498.172H390.906C391.944 498.172 392.939 498.582 393.673 499.312C394.408 500.043 394.82 501.033 394.82 502.066V536.348C394.82 536.657 394.697 536.953 394.479 537.171C394.261 537.39 393.964 537.512 393.656 537.512H387.514Z" fill="white"/>
<path d="M422.199 535.038C422.197 535.37 422.131 535.699 422.003 536.005C421.874 536.312 421.687 536.59 421.452 536.824C421.216 537.058 420.936 537.243 420.629 537.369C420.322 537.495 419.993 537.559 419.661 537.558L416.329 537.547C415.658 537.544 415.016 537.276 414.543 536.8C414.071 536.324 413.806 535.68 413.809 535.009L413.927 501.088C413.928 500.756 413.995 500.427 414.123 500.121C414.251 499.814 414.438 499.536 414.674 499.302C414.91 499.068 415.189 498.883 415.496 498.757C415.804 498.631 416.133 498.567 416.465 498.568L419.797 498.579C420.467 498.582 421.11 498.85 421.582 499.326C422.055 499.802 422.319 500.446 422.317 501.117L422.199 535.038Z" fill="white"/>
<path d="M456.4 536.248L444.377 536.208C443.628 535.846 443.253 535.418 443.253 534.923C443.494 522.84 443.527 511.339 443.353 500.42C443.327 499.162 443.942 498.533 445.2 498.533L457.544 498.453C458.829 498.44 459.471 499.082 459.471 500.38L459.411 535.024C459.411 535.246 459.356 535.465 459.251 535.661C459.146 535.858 458.994 536.025 458.808 536.148C458.206 536.536 457.403 536.569 456.4 536.248Z" fill="#F0E4DA"/>
<path d="M486.958 535.732C486.957 536.195 486.773 536.639 486.445 536.966C486.116 537.293 485.672 537.476 485.209 537.475L481.877 537.469C481.648 537.469 481.421 537.423 481.209 537.335C480.997 537.247 480.805 537.118 480.643 536.956C480.481 536.793 480.353 536.6 480.266 536.388C480.178 536.176 480.133 535.949 480.134 535.72L480.196 500.153C480.197 499.69 480.382 499.246 480.71 498.919C481.038 498.592 481.482 498.409 481.945 498.41L485.277 498.416C485.506 498.416 485.733 498.462 485.945 498.55C486.157 498.638 486.349 498.767 486.511 498.929C486.673 499.092 486.801 499.284 486.889 499.496C486.976 499.709 487.021 499.936 487.02 500.165L486.958 535.732Z" fill="white"/>
<path d="M573.729 534.976C573.728 535.221 573.68 535.463 573.585 535.69C573.491 535.916 573.353 536.122 573.18 536.295C573.006 536.468 572.8 536.605 572.573 536.698C572.347 536.792 572.104 536.839 571.859 536.839L561.261 536.821C561.016 536.82 560.773 536.771 560.547 536.677C560.321 536.583 560.115 536.445 559.942 536.272C559.769 536.098 559.632 535.892 559.538 535.665C559.445 535.439 559.397 535.196 559.397 534.951L559.458 500.187C559.459 499.941 559.507 499.699 559.601 499.472C559.696 499.246 559.833 499.041 560.007 498.868C560.181 498.695 560.387 498.557 560.613 498.464C560.84 498.371 561.083 498.323 561.328 498.323L571.926 498.342C572.171 498.342 572.414 498.391 572.64 498.485C572.866 498.579 573.072 498.717 573.245 498.891C573.418 499.064 573.555 499.27 573.648 499.497C573.742 499.724 573.79 499.966 573.789 500.211L573.729 534.976Z" fill="white"/>
<path d="M597.062 537.212C596.615 537.212 596.186 537.034 595.87 536.718C595.554 536.402 595.376 535.973 595.376 535.526V502.166C595.376 501.102 595.735 500.081 596.375 499.328C597.015 498.575 597.883 498.152 598.788 498.152H600.193C601.098 498.152 601.966 498.575 602.606 499.328C603.246 500.081 603.605 501.102 603.605 502.166V535.526C603.605 535.973 603.428 536.402 603.111 536.718C602.795 537.034 602.367 537.212 601.919 537.212H597.062Z" fill="white"/>
<path d="M630.742 534.923C630.742 535.53 630.501 536.112 630.072 536.541C629.643 536.97 629.061 537.211 628.454 537.211H625.805C625.198 537.211 624.616 536.97 624.187 536.541C623.758 536.112 623.517 535.53 623.517 534.923V500.841C623.517 500.234 623.758 499.652 624.187 499.223C624.616 498.794 625.198 498.553 625.805 498.553H628.454C629.061 498.553 629.643 498.794 630.072 499.223C630.501 499.652 630.742 500.234 630.742 500.841V534.923Z" fill="white"/>
<path d="M512.602 534.996C512.6 535.603 512.357 536.184 511.927 536.612C511.496 537.04 510.913 537.279 510.306 537.277L507.336 537.266C507.035 537.265 506.738 537.205 506.461 537.089C506.184 536.973 505.932 536.804 505.72 536.591C505.508 536.377 505.341 536.124 505.227 535.846C505.113 535.568 505.055 535.271 505.056 534.97L505.173 501.451C505.175 500.844 505.418 500.263 505.848 499.835C506.279 499.408 506.862 499.168 507.469 499.171L510.439 499.181C510.74 499.182 511.037 499.242 511.314 499.358C511.591 499.474 511.843 499.643 512.055 499.857C512.267 500.07 512.434 500.323 512.548 500.601C512.662 500.879 512.72 501.177 512.719 501.477L512.602 534.996Z" fill="white"/>
<path d="M658.02 506.683C657.391 510.095 657.425 513.882 658.12 518.043L657.9 534.803C657.873 536.328 657.097 537.111 655.571 537.151L652.581 537.212C650.961 537.252 650.165 536.462 650.192 534.843L650.774 501.303C650.801 499.698 651.61 498.921 653.203 498.975L655.732 499.055C657.123 499.095 657.833 499.811 657.859 501.203L658.02 506.683Z" fill="white"/>
<path d="M695.855 535.284C695.855 535.476 695.779 535.66 695.643 535.795C695.508 535.931 695.324 536.007 695.133 536.007H680.52C680.329 536.007 680.145 535.931 680.009 535.795C679.874 535.66 679.798 535.476 679.798 535.284V499.998C679.798 499.807 679.874 499.623 680.009 499.487C680.145 499.352 680.329 499.276 680.52 499.276H695.133C695.324 499.276 695.508 499.352 695.643 499.487C695.779 499.623 695.855 499.807 695.855 499.998V535.284Z" fill="#F0E4DA"/>
<path d="M658.02 506.682C658.823 509.961 658.856 513.747 658.121 518.043C657.425 513.881 657.391 510.094 658.02 506.682Z" fill="#25597D"/>
<path d="M657.98 535.385C657.886 532.08 657.926 528.768 658.1 525.449C658.127 524.914 658.354 524.814 658.783 525.148C659.037 525.349 659.117 525.65 659.023 526.051C658.441 528.5 658.983 532.735 658.883 535.405C658.87 535.686 658.722 535.826 658.441 535.826H658.421C658.127 535.826 657.98 535.679 657.98 535.385Z" fill="#25597D"/>
<path d="M444.377 536.208L456.4 536.248C452.225 537.358 448.217 537.345 444.377 536.208Z" fill="#25597D"/>
<path d="M565.429 559.671L476.552 560.414L509.991 559.31C510.125 559.31 510.125 559.29 509.991 559.25C508.947 558.915 507.917 559.036 506.9 559.611C505.843 560.213 505.923 560.461 507.141 560.354C512.781 559.852 518.522 558.788 523.901 558.828C537.563 558.895 551.218 558.855 564.867 558.708C565.322 558.708 565.509 559.029 565.429 559.671Z" fill="#25597D"/>
<path d="M658.963 559.531C643.936 560.387 628.996 560.635 614.143 560.273C610.43 560.193 607.459 559.511 603.003 560.253C598.909 560.936 593.657 560.628 587.247 559.33C611.159 558.286 635.064 558.353 658.963 559.531Z" fill="#799ABC"/>
<path d="M331.691 605.536C331.694 606.122 331.465 606.684 331.053 607.101C330.641 607.517 330.081 607.752 329.495 607.755L326.565 607.771C326.275 607.772 325.987 607.717 325.719 607.607C325.45 607.498 325.206 607.336 325 607.132C324.794 606.928 324.63 606.686 324.518 606.418C324.405 606.151 324.347 605.864 324.345 605.574L324.112 561.056C324.109 560.47 324.339 559.908 324.751 559.491C325.163 559.075 325.723 558.84 326.309 558.837L329.239 558.821C329.529 558.82 329.816 558.875 330.085 558.985C330.353 559.094 330.598 559.256 330.804 559.46C331.01 559.664 331.174 559.906 331.286 560.174C331.398 560.441 331.457 560.728 331.458 561.018L331.691 605.536Z" fill="white"/>
<path d="M692.184 605.165C692.184 605.345 692.148 605.522 692.078 605.687C692.009 605.853 691.908 606.003 691.781 606.129C691.654 606.255 691.503 606.355 691.337 606.423C691.171 606.491 690.994 606.526 690.815 606.525L686.921 606.512C686.559 606.51 686.212 606.365 685.957 606.109C685.702 605.852 685.559 605.504 685.561 605.142L685.717 560.383C685.717 560.203 685.753 560.026 685.822 559.861C685.892 559.695 685.993 559.545 686.12 559.419C686.247 559.293 686.398 559.193 686.564 559.125C686.73 559.057 686.907 559.022 687.086 559.023L690.98 559.036C691.342 559.038 691.689 559.182 691.944 559.439C692.199 559.696 692.342 560.044 692.34 560.406L692.184 605.165Z" fill="white"/>
<path d="M430.888 566.897C428.975 576.746 428.928 586.159 430.748 595.138C431.203 595.392 431.183 595.807 430.688 596.383C430.246 596.891 429.811 596.884 429.383 596.363C422.438 587.812 410.034 580.506 398.774 586.066C395.335 587.765 392.177 589.672 389.3 591.786C388.776 592.172 388.132 592.356 387.486 592.304C386.84 592.252 386.237 591.968 385.787 591.505C374.681 580.158 363.601 580.225 352.549 591.706C351.799 592.469 351.431 592.321 351.445 591.264L351.505 585.082C351.251 583.557 351.351 582.379 351.806 581.55C351.868 581.437 351.952 581.338 352.053 581.259C352.154 581.179 352.271 581.121 352.396 581.087C352.522 581.054 352.653 581.045 352.783 581.063C352.912 581.08 353.037 581.123 353.151 581.188C354.114 581.764 354.924 582.5 355.579 583.396C355.74 583.629 355.986 583.79 356.267 583.846C356.547 583.902 356.84 583.849 357.085 583.697C370.312 575.347 376.916 581.289 387.875 588.474C388.45 588.849 388.939 588.762 389.34 588.213C392.03 584.661 398.513 582.353 402.507 580.446C409.111 577.294 419.006 583.035 424.485 586.628C425.114 587.043 425.663 586.949 426.131 586.347C426.573 585.798 426.814 585.096 426.854 584.239C426.881 583.53 426.76 582.841 426.493 582.172C425.489 579.683 425.529 577.114 426.613 574.464C427.603 572.056 426.8 570.845 424.204 570.831L351.786 570.45L351.585 560.836C351.582 560.697 351.607 560.559 351.659 560.43C351.71 560.301 351.786 560.184 351.884 560.085C351.981 559.986 352.097 559.907 352.225 559.853C352.353 559.799 352.49 559.772 352.629 559.772L429.885 560.013C430.581 560.026 430.928 560.381 430.928 561.076L430.888 566.897Z" fill="white"/>
<path d="M658.963 559.531L665.667 560.354C666.349 560.434 666.684 560.816 666.671 561.498L666.43 589.618C666.416 591.612 665.721 591.88 664.342 590.421C655.129 580.707 640.718 582.212 631.726 591.927C631.514 592.155 631.258 592.337 630.973 592.463C630.689 592.59 630.382 592.657 630.072 592.66C629.762 592.664 629.455 592.605 629.17 592.485C628.885 592.366 628.628 592.19 628.414 591.967C615.408 578.398 598.507 583.476 588.712 598.089C588.043 599.065 587.702 598.965 587.689 597.788L587.247 559.33C593.657 560.628 598.909 560.936 603.003 560.253C607.459 559.511 610.43 560.193 614.143 560.274C628.996 560.635 643.936 560.387 658.963 559.531Z" fill="white"/>
<path d="M476.552 560.414L565.429 559.672C565.483 559.979 565.55 560.213 565.63 560.374C565.75 560.588 565.81 560.822 565.81 561.076L565.75 655.654C565.75 655.963 565.628 656.259 565.409 656.477C565.191 656.696 564.895 656.818 564.586 656.818L454.413 657.059C454.052 657.06 453.706 656.921 453.447 656.674C453.189 656.427 453.038 656.09 453.028 655.735C452.011 624.53 451.997 593.318 452.988 562.1C453.003 561.621 453.205 561.167 453.549 560.833C453.894 560.5 454.355 560.314 454.834 560.314L476.552 560.414Z" fill="white"/>
<path d="M430.889 566.898C431.972 576.586 431.926 585.999 430.748 595.138C428.928 586.16 428.975 576.746 430.889 566.898Z" fill="#A0BCD5"/>
<path d="M351.786 570.45L424.204 570.832C426.8 570.845 427.603 572.056 426.613 574.465C425.529 577.114 425.489 579.683 426.493 582.172C426.76 582.841 426.881 583.53 426.854 584.239C426.814 585.096 426.573 585.798 426.131 586.347C425.663 586.949 425.114 587.043 424.485 586.628C419.006 583.035 409.111 577.295 402.507 580.446C398.513 582.353 392.03 584.661 389.34 588.214C388.939 588.762 388.45 588.849 387.875 588.475C376.916 581.289 370.312 575.348 357.085 583.698C356.84 583.849 356.547 583.903 356.267 583.847C355.986 583.791 355.74 583.629 355.579 583.396C354.924 582.5 354.114 581.764 353.151 581.189C353.037 581.123 352.912 581.08 352.783 581.063C352.653 581.046 352.522 581.054 352.396 581.088C352.271 581.121 352.154 581.18 352.053 581.259C351.952 581.338 351.868 581.437 351.806 581.55C351.351 582.379 351.251 583.557 351.505 585.082L351.786 570.45Z" fill="#F0E4DA"/>
<path d="M401.925 626.731C401.691 626.726 401.459 626.675 401.245 626.58C401.03 626.485 400.836 626.349 400.674 626.18C400.512 626.01 400.385 625.81 400.3 625.591C400.215 625.373 400.174 625.139 400.179 624.905L400.34 615.23C400.384 612.788 401.215 610.461 402.649 608.76C404.083 607.059 406.003 606.123 407.987 606.158H408.348C409.332 606.175 410.302 606.43 411.203 606.91C412.104 607.389 412.918 608.083 413.598 608.952C414.279 609.82 414.813 610.847 415.169 611.972C415.525 613.098 415.697 614.3 415.675 615.511L415.514 625.186C415.509 625.42 415.457 625.652 415.363 625.866C415.268 626.081 415.132 626.275 414.962 626.437C414.793 626.599 414.593 626.727 414.374 626.811C414.155 626.896 413.922 626.937 413.687 626.932L401.925 626.731Z" fill="#FE7F2D"/>
<path d="M642.726 626.771C642.544 626.774 642.363 626.741 642.194 626.673C642.025 626.606 641.871 626.506 641.741 626.38C641.61 626.253 641.506 626.102 641.434 625.935C641.362 625.768 641.324 625.588 641.321 625.406L641.261 621.412C641.197 617.484 642.016 613.702 643.537 610.898C645.058 608.093 647.156 606.497 649.37 606.459H650.173C651.269 606.439 652.362 606.803 653.387 607.53C654.412 608.257 655.351 609.333 656.149 610.695C656.946 612.058 657.588 613.681 658.037 615.472C658.485 617.262 658.732 619.185 658.763 621.131L658.823 625.125C658.826 625.307 658.793 625.488 658.726 625.657C658.659 625.826 658.559 625.98 658.432 626.111C658.305 626.241 658.154 626.345 657.987 626.417C657.82 626.489 657.64 626.528 657.459 626.53L642.726 626.771Z" fill="#FE7F2D"/>
<path d="M604.489 626.731C603.924 626.731 603.383 626.507 602.984 626.108C602.585 625.709 602.361 625.168 602.361 624.603L602.341 620.047C602.337 618.32 602.531 616.609 602.91 615.012C603.29 613.415 603.848 611.964 604.552 610.741C605.257 609.518 606.094 608.548 607.017 607.885C607.939 607.223 608.928 606.881 609.928 606.88H610.972C612.988 606.878 614.924 608.259 616.354 610.721C617.784 613.182 618.592 616.522 618.599 620.007L618.619 624.563C618.619 625.128 618.395 625.669 617.996 626.068C617.597 626.467 617.056 626.691 616.491 626.691L604.489 626.731Z" fill="#FE7F2D"/>
<path d="M359.413 626.691C359.594 620.749 359.915 608.706 367.904 607.301C376.655 605.736 377.097 619.545 376.916 625.105C376.906 625.498 376.747 625.872 376.471 626.152C376.195 626.431 375.823 626.595 375.431 626.61L359.955 627.233C359.883 627.236 359.812 627.223 359.745 627.197C359.678 627.171 359.617 627.131 359.566 627.08C359.515 627.029 359.475 626.968 359.449 626.901C359.423 626.834 359.411 626.763 359.413 626.691Z" fill="#FE7F2D"/>
<path d="M430.869 657.22L326.657 656.899C326.268 656.899 325.895 656.744 325.621 656.469C325.346 656.195 325.191 655.822 325.191 655.433L325.252 649.512C325.257 649.13 325.411 648.766 325.681 648.496C325.951 648.226 326.315 648.072 326.697 648.067L431.391 648.027C431.594 648.026 431.795 648.068 431.981 648.149C432.167 648.23 432.334 648.349 432.472 648.498C432.609 648.647 432.715 648.823 432.781 649.015C432.847 649.207 432.873 649.41 432.856 649.613L432.334 655.875C432.304 656.242 432.136 656.585 431.864 656.834C431.593 657.083 431.237 657.221 430.869 657.22Z" fill="white"/>
<path d="M692.242 655.273C692.242 655.688 692.077 656.086 691.784 656.38C691.49 656.673 691.092 656.838 690.677 656.838H586.987C586.571 656.838 586.173 656.673 585.879 656.38C585.586 656.086 585.421 655.688 585.421 655.273V649.613C585.421 649.197 585.586 648.799 585.879 648.506C586.173 648.212 586.571 648.047 586.987 648.047H690.677C691.092 648.047 691.49 648.212 691.784 648.506C692.077 648.799 692.242 649.197 692.242 649.613V655.273Z" fill="white"/>
<path d="M306.358 787.27C306.358 787.472 306.319 787.674 306.241 787.861C306.164 788.049 306.051 788.219 305.907 788.363C305.764 788.507 305.594 788.621 305.406 788.699C305.219 788.777 305.018 788.818 304.815 788.818L291.046 788.842C290.636 788.842 290.243 788.68 289.952 788.391C289.662 788.102 289.499 787.709 289.498 787.299L289.31 679.474C289.309 679.271 289.349 679.07 289.426 678.883C289.503 678.695 289.617 678.524 289.76 678.38C289.904 678.237 290.074 678.123 290.261 678.045C290.449 677.967 290.65 677.926 290.852 677.926L304.622 677.902C305.031 677.901 305.425 678.063 305.715 678.353C306.006 678.642 306.169 679.035 306.17 679.445L306.358 787.27Z" fill="white"/>
<path d="M327.299 678.134C341.657 677.92 354.108 677.9 364.653 678.074C365.429 678.088 365.991 678.262 366.339 678.596C366.447 678.701 366.532 678.826 366.59 678.965C366.648 679.104 366.677 679.253 366.675 679.403C366.673 679.554 366.64 679.702 366.579 679.839C366.518 679.977 366.429 680.1 366.318 680.202C355.399 690.499 346.247 701.418 337.897 714.243C335.007 718.713 332.043 723.135 329.005 727.511C328.59 728.113 328.028 728.307 327.319 728.093L325.894 727.671C325.346 727.497 325.078 727.123 325.091 726.547L326.135 679.299C326.14 678.992 326.264 678.698 326.482 678.481C326.699 678.264 326.992 678.14 327.299 678.134Z" fill="white"/>
<path d="M460.354 718.78L455.155 728.856C454.916 729.316 454.564 729.709 454.133 729.996C453.701 730.284 453.203 730.458 452.686 730.501C450.184 730.702 449.441 729.605 450.458 727.21C454.834 712.698 452.987 694.212 452.967 678.998C452.967 678.315 453.302 677.974 453.971 677.974L491.104 677.914C493.807 677.914 494.128 678.783 492.067 680.523C479.368 691.295 468.797 704.047 460.354 718.78Z" fill="white"/>
<path d="M586.785 712.457C585.915 713.835 585.48 713.708 585.48 712.076L585.501 679.359C585.501 679.087 585.61 678.827 585.806 678.635C586.002 678.443 586.267 678.335 586.544 678.335L615.608 678.175C617.147 678.161 617.361 678.69 616.25 679.76C605.733 689.776 594.733 699.872 586.785 712.457Z" fill="white"/>
<path d="M430.528 711.955C422.218 701.398 412.925 689.596 402.628 680.483C401.384 679.372 401.591 678.81 403.25 678.797L431.852 678.416C431.953 678.413 432.052 678.43 432.146 678.466C432.239 678.502 432.325 678.556 432.398 678.625C432.47 678.694 432.529 678.776 432.57 678.868C432.61 678.959 432.633 679.058 432.635 679.158L432.876 711.132C432.889 713.688 432.107 713.963 430.528 711.955Z" fill="white"/>
<path d="M565.751 720.566C564.921 721.623 564.479 722.6 564.426 723.497C564.252 726.44 563.576 726.561 562.399 723.858C561.254 721.228 563.141 718.318 562.66 715.709C562.352 713.929 562.218 712.651 562.258 711.875C562.78 703.726 562.586 695.784 561.676 688.05C561.596 687.324 561.244 686.655 560.69 686.175C560.136 685.696 559.42 685.441 558.685 685.461C552.624 685.641 547.666 681.908 541.785 685.2C541.464 685.38 541.19 685.634 540.985 685.939C540.781 686.245 540.65 686.595 540.606 686.96C540.561 687.325 540.602 687.696 540.727 688.042C540.851 688.388 541.056 688.7 541.323 688.953C544.736 692.165 545.88 696.099 547.686 698.808C553.293 707.252 556.558 712.818 557.481 715.508C557.989 716.98 557.675 717.87 556.538 718.178C548.208 703.304 537.249 691.382 525.386 679.319C524.891 678.81 524.992 678.556 525.687 678.556L564.887 678.576C565.449 678.59 565.73 678.871 565.73 679.419L565.751 720.566Z" fill="white"/>
<path d="M680.299 716.452C671.842 702.388 661.465 690.151 649.168 679.74C648.191 678.911 648.345 678.496 649.63 678.496L690.957 678.516C691.25 678.516 691.531 678.632 691.738 678.839C691.945 679.046 692.061 679.327 692.061 679.62L692.141 725.102C692.139 725.481 692.03 725.85 691.825 726.168C691.62 726.486 691.329 726.739 690.985 726.897C690.642 727.055 690.26 727.112 689.885 727.061C689.511 727.009 689.158 726.852 688.87 726.608C685.471 723.704 682.614 720.319 680.299 716.452Z" fill="white"/>
<path d="M729.094 786.622C729.094 787.133 728.891 787.623 728.529 787.984C728.168 788.346 727.678 788.549 727.167 788.549H714.361C713.85 788.549 713.36 788.346 712.998 787.984C712.637 787.623 712.434 787.133 712.434 786.622V680.403C712.434 680.15 712.484 679.899 712.581 679.665C712.678 679.432 712.819 679.219 712.998 679.04C713.177 678.861 713.39 678.719 713.624 678.622C713.857 678.526 714.108 678.476 714.361 678.476H727.167C727.42 678.476 727.67 678.526 727.904 678.622C728.138 678.719 728.35 678.861 728.529 679.04C728.708 679.219 728.85 679.432 728.947 679.665C729.044 679.899 729.094 680.15 729.094 680.403V786.622Z" fill="#A0BCD5"/>
<path d="M565.75 720.566L565.931 722.533L564.566 726.728C564.496 726.938 564.368 727.124 564.197 727.265C564.026 727.406 563.819 727.496 563.6 727.525C563.38 727.555 563.157 727.522 562.956 727.43C562.754 727.339 562.582 727.193 562.459 727.009C561.964 726.233 561.094 725.571 559.849 725.022L556.537 718.178C557.675 717.87 557.989 716.98 557.481 715.508C556.558 712.818 553.293 707.252 547.686 698.808C545.879 696.099 544.735 692.165 541.323 688.953C541.056 688.7 540.851 688.388 540.727 688.042C540.602 687.696 540.561 687.325 540.605 686.96C540.65 686.595 540.78 686.245 540.985 685.939C541.19 685.634 541.464 685.38 541.785 685.2C547.666 681.908 552.624 685.641 558.685 685.461C559.42 685.441 560.136 685.696 560.69 686.175C561.244 686.655 561.596 687.324 561.676 688.05C562.586 695.784 562.78 703.726 562.258 711.875C562.218 712.651 562.352 713.929 562.659 715.709C563.141 718.318 561.254 721.228 562.398 723.858C563.576 726.561 564.252 726.44 564.426 723.497C564.479 722.6 564.921 721.623 565.75 720.566Z" fill="#F0E4DA"/>
<path d="M425.449 788.89C423.175 788.837 422.057 788.328 422.097 787.365C422.593 776.78 422.766 766.189 422.619 755.591C422.559 752.319 420.431 750.071 419.93 746.659C419.147 741.4 414.51 739.072 410.817 736.483L402.949 726.989L386.35 712.076C385.675 711.464 384.803 711.115 383.893 711.093C382.983 711.071 382.095 711.377 381.392 711.955C372.139 719.522 363.287 726.246 357.065 737.848C355.339 741.086 354.356 744.706 354.115 748.707C353.325 762.195 353.265 775.656 353.934 789.091C352.275 789.492 351.037 789.419 350.221 788.87C349.592 788.455 349.264 787.472 349.237 785.919C349.037 773.997 349.077 762.094 349.358 750.212C349.96 724.179 365.515 712.778 381.533 695.717C381.837 695.39 382.206 695.129 382.615 694.949C383.024 694.769 383.465 694.674 383.912 694.671C384.359 694.667 384.803 694.754 385.215 694.927C385.627 695.1 385.999 695.355 386.31 695.677C404.575 714.625 425.55 729.177 425.71 758.241C425.764 768.531 425.677 778.747 425.449 788.89Z" fill="white"/>
<path d="M665.808 788.77C666.075 774.559 666.096 764.215 665.868 757.739C665.728 753.504 665.085 746.82 662.737 742.465C661.84 740.778 660.924 739.113 659.987 737.467C659.666 736.905 659.244 736.423 658.723 736.021L653.604 732.067C650.794 728.374 648.225 725.042 644.452 722.052C640.999 719.322 637.594 716.539 634.235 713.702C629.438 709.667 627.832 712.457 623.979 715.067C614.491 721.53 607.326 729.833 602.482 739.976C597.203 749.53 595.537 756.896 595.999 768.698C596.253 775.282 596.193 781.899 595.818 788.549C593.904 788.71 592.934 788.308 592.908 787.345C592.325 773.435 590.7 758.08 594.333 745.415C600.455 724.039 615.508 710.189 630.682 694.915C630.966 694.63 631.345 694.461 631.747 694.443C632.148 694.424 632.542 694.557 632.85 694.814C643.742 704.074 653.317 714.699 661.573 726.688C667.715 735.6 669.14 742.846 669.22 754.467C669.287 765.4 669.287 776.325 669.22 787.244C669.22 787.546 669.128 787.842 668.956 788.092C668.785 788.343 668.541 788.537 668.257 788.649C667.614 788.93 666.798 788.971 665.808 788.77Z" fill="white"/>
<path d="M511.155 697.062C510.687 700.461 509.991 703.806 509.068 707.098C508.519 709.065 508.82 710.745 509.971 712.136C510.346 712.591 510.5 713.106 510.433 713.682C510.232 715.394 510.399 717.054 510.934 718.659C511.043 718.993 511.023 719.355 510.878 719.674C510.733 719.994 510.474 720.248 510.152 720.386C508.68 721.001 507.843 722.078 507.643 723.617C507.576 724.126 507.797 724.373 508.305 724.36C510.085 724.32 510.774 724.701 510.372 725.504C498.744 726.896 490.696 733.64 486.226 745.736C484.42 750.634 482.654 754.507 482.613 759.927C482.56 768.798 482.486 777.637 482.392 786.441C482.379 788.368 481.409 789.338 479.482 789.352L474.565 789.412C472.584 789.425 471.587 788.435 471.574 786.441C471.433 768.096 469.185 750.674 477.917 732.85C483.323 721.784 488.615 713.909 493.793 709.226C498.276 705.171 502.511 700.876 506.499 696.34C506.954 695.831 507.522 695.597 508.205 695.637C509.262 695.691 510.245 696.166 511.155 697.062Z" fill="#FE7F2D"/>
<path d="M511.156 697.062C513.002 698.012 514.3 699.183 515.049 700.575C513.979 701.391 513.591 702.696 513.885 704.489C514.541 708.436 516.307 711.28 519.184 713.019C522.744 715.16 527.039 719.864 532.07 727.13C533.676 729.444 534.961 731.833 535.924 734.295C537.369 738.015 538.058 740.651 537.991 742.203C537.697 749.081 538.232 756.167 539.597 763.459C539.64 763.714 539.778 763.944 539.985 764.106C540.192 764.269 540.453 764.353 540.721 764.342L541.283 764.322C541.768 764.307 542.227 764.103 542.564 763.755C542.901 763.406 543.09 762.94 543.09 762.456V740.337C546.1 755.39 545.9 769.34 545.96 784.836C545.973 787.003 544.896 788.087 542.728 788.087H537.289C535.268 788.087 534.285 787.084 534.338 785.076C534.84 763.78 538.393 732.75 510.373 725.504C510.774 724.701 510.085 724.319 508.305 724.36C507.797 724.373 507.576 724.125 507.643 723.617C507.844 722.078 508.68 721.001 510.152 720.385C510.474 720.247 510.733 719.994 510.878 719.674C511.023 719.355 511.043 718.993 510.935 718.659C510.4 717.054 510.232 715.394 510.433 713.681C510.5 713.106 510.346 712.591 509.971 712.136C508.821 710.744 508.52 709.065 509.068 707.098C509.991 703.806 510.687 700.461 511.156 697.062Z" fill="#FFBE77"/>
<path d="M515.049 700.575C528.792 712.123 538.139 725.377 543.09 740.337V762.456C543.09 762.941 542.901 763.407 542.564 763.755C542.227 764.103 541.768 764.307 541.283 764.322L540.721 764.343C540.453 764.353 540.192 764.269 539.985 764.106C539.778 763.944 539.64 763.714 539.597 763.459C538.232 756.167 537.697 749.081 537.991 742.204C538.058 740.651 537.369 738.015 535.924 734.295C534.961 731.833 533.676 729.445 532.07 727.13C527.039 719.864 522.744 715.16 519.184 713.019C516.307 711.28 514.541 708.436 513.885 704.489C513.591 702.696 513.979 701.391 515.049 700.575Z" fill="#F0E4DA"/>
<path d="M402.949 726.989L401.865 733.171C393.576 724.962 383.138 720.205 373.383 729.759C364.331 738.651 359.996 747.081 360.337 760.268C360.551 768.538 360.437 776.794 359.996 785.037C359.775 789.051 357.607 790.054 353.934 789.091C353.265 775.656 353.325 762.195 354.115 748.707C354.355 744.706 355.339 741.086 357.065 737.848C363.287 726.247 372.139 719.523 381.392 711.956C382.095 711.377 382.983 711.071 383.893 711.094C384.803 711.116 385.675 711.464 386.35 712.076L402.949 726.989Z" fill="#FE7F2D"/>
<path d="M653.604 732.067C654.554 733.927 655.029 735.747 655.029 737.527C655.042 738.131 654.819 738.72 654.407 739.172C653.484 740.163 653.223 741.16 653.624 742.163C648.446 734.094 635.238 718.318 625.805 724.339C616.665 730.187 609.841 738.798 605.332 750.172C605.773 748.941 605.927 747.897 605.793 747.041C605.726 746.599 605.492 746.271 605.091 746.057L603.927 745.415C603.485 745.16 603.224 744.786 603.144 744.291L602.481 739.975C607.325 729.832 614.491 721.529 623.978 715.066C627.832 712.457 629.438 709.667 634.235 713.701C637.594 716.538 640.999 719.322 644.451 722.051C648.225 725.042 650.794 728.374 653.604 732.067Z" fill="#FE7F2D"/>
<path d="M460.354 718.78C452.908 742.304 451.884 760.408 452.727 785.678C452.781 787.204 452.051 788.027 450.539 788.147L446.846 788.448C445.347 788.582 444.631 787.893 444.698 786.381C445.314 773.08 445.133 760.174 444.156 747.663C443.534 739.574 446.766 733.934 450.459 727.21C449.442 729.605 450.185 730.702 452.687 730.501C453.204 730.458 453.701 730.284 454.133 729.996C454.565 729.709 454.917 729.316 455.156 728.855L460.354 718.78Z" fill="#799ABC"/>
<path d="M565.931 722.533C566.507 725.999 567.724 728.983 569.584 731.485C570.053 733.987 570.929 736.329 572.214 738.51C572.525 739.056 572.638 739.694 572.535 740.317C570.086 754.367 570.789 769.882 572.053 785.899C572.12 786.729 571.759 787.258 570.969 787.485C570.059 787.753 569.156 787.679 568.26 787.264C567.577 786.943 567.216 786.401 567.176 785.639L565.45 744.913L559.85 725.022C561.094 725.571 561.964 726.233 562.459 727.009C562.582 727.193 562.754 727.339 562.956 727.431C563.158 727.522 563.381 727.555 563.6 727.525C563.82 727.496 564.027 727.406 564.197 727.265C564.368 727.124 564.496 726.938 564.566 726.728L565.931 722.533Z" fill="#799ABC"/>
<path d="M402.949 726.989L410.817 736.483C411.138 737.888 410.556 739.929 409.071 742.605L401.865 733.171L402.949 726.989Z" fill="#FFBE77"/>
<path d="M569.585 731.485C572.515 735.245 573.947 738.142 573.88 740.176C573.505 751.871 573.425 766.129 573.639 782.949C573.679 786 572.181 787.679 569.143 787.987L567.557 788.127C565.323 788.355 564.239 787.345 564.306 785.097L565.45 744.913L567.176 785.639C567.216 786.401 567.577 786.943 568.26 787.264C569.156 787.679 570.06 787.753 570.969 787.485C571.759 787.258 572.12 786.729 572.053 785.9C570.789 769.882 570.086 754.367 572.535 740.317C572.639 739.694 572.525 739.056 572.214 738.51C570.929 736.329 570.053 733.987 569.585 731.485Z" fill="#25597D"/>
<path d="M653.604 732.067L658.723 736.021C659.245 736.423 659.666 736.904 659.987 737.466C660.924 739.112 661.84 740.778 662.737 742.464C665.085 746.82 665.728 753.504 665.868 757.739C666.096 764.215 666.076 774.559 665.808 788.77L658.422 788.83C658.312 788.833 658.203 788.813 658.1 788.773C657.998 788.733 657.905 788.673 657.827 788.596C657.748 788.519 657.686 788.428 657.643 788.327C657.6 788.225 657.579 788.117 657.579 788.007C657.565 777.396 657.565 766.805 657.579 756.233C657.592 751.844 656.274 747.154 653.624 742.163C653.223 741.16 653.484 740.163 654.407 739.173C654.82 738.721 655.042 738.131 655.029 737.527C655.029 735.747 654.554 733.927 653.604 732.067Z" fill="#F0E4DA"/>
<path d="M410.817 736.483C414.51 739.072 419.147 741.4 419.93 746.659C420.431 750.071 422.559 752.319 422.619 755.591C422.766 766.189 422.592 776.78 422.097 787.365C422.057 788.328 423.175 788.836 425.449 788.89L414.55 789.01C413.788 789.01 413.413 788.636 413.426 787.886C413.466 773.716 415.674 754.848 409.071 742.605C410.556 739.929 411.138 737.888 410.817 736.483Z" fill="#F0E4DA"/>
<path d="M602.482 739.975L603.144 744.291C603.224 744.786 603.485 745.161 603.927 745.415L605.091 746.057C605.492 746.271 605.727 746.599 605.794 747.041C605.927 747.897 605.773 748.941 605.332 750.172C603.98 762.161 603.659 774.633 604.368 787.585C604.377 787.742 604.353 787.898 604.297 788.044C604.242 788.19 604.157 788.323 604.048 788.434C603.938 788.546 603.807 788.633 603.661 788.691C603.516 788.749 603.36 788.776 603.204 788.77L595.818 788.549C596.193 781.899 596.253 775.282 595.999 768.698C595.537 756.896 597.203 749.53 602.482 739.975Z" fill="#FFBE77"/>
<path d="M380.208 788.207L380.709 753.604C380.725 752.381 381.185 751.205 382.004 750.293C382.824 749.382 383.947 748.796 385.165 748.646L386.35 748.486C387.19 748.38 388.043 748.455 388.853 748.704C389.662 748.954 390.41 749.372 391.045 749.932C391.681 750.491 392.19 751.18 392.54 751.951C392.89 752.723 393.072 753.56 393.074 754.407L393.114 787.946C393.127 788.937 392.639 789.438 391.649 789.452L381.573 789.572C381.393 789.575 381.214 789.542 381.047 789.474C380.88 789.406 380.729 789.306 380.601 789.179C380.474 789.051 380.374 788.9 380.306 788.733C380.238 788.566 380.205 788.387 380.208 788.207Z" fill="#FE7F2D"/>
<path d="M514.427 788.509V755.17C514.427 754.514 514.227 753.932 513.825 753.423L511.035 749.77C510.812 749.484 510.533 749.246 510.215 749.072C509.897 748.898 509.547 748.792 509.187 748.76C508.827 748.728 508.464 748.771 508.123 748.886C507.781 749.001 507.467 749.186 507.202 749.429C504.405 751.971 502.94 755.417 502.806 759.766C502.538 768.825 502.398 778.339 502.384 788.308L502.324 753.845C502.324 750.245 504.124 748.446 507.724 748.446H508.807C512.233 748.446 514.093 750.158 514.387 753.584C515.578 767.433 515.592 779.075 514.427 788.509Z" fill="#FE6667"/>
<path d="M637.366 758.984C637.232 768.819 637.098 778.145 636.964 786.963C636.938 788.542 636.128 789.339 634.536 789.352L626.627 789.432C624.982 789.446 624.165 788.629 624.179 786.984C624.232 776.667 624.205 766.082 624.098 755.23C624.072 751.979 625.958 749.724 629.759 748.466C630.414 748.252 631.063 748.279 631.706 748.546C635.559 750.179 637.446 753.658 637.366 758.984Z" fill="#FE7F2D"/>
<path d="M514.427 788.509C509.985 790.034 505.97 789.967 502.384 788.308C502.398 778.339 502.538 768.825 502.806 759.766C502.94 755.417 504.405 751.972 507.202 749.429C507.467 749.186 507.781 749.001 508.123 748.886C508.464 748.771 508.827 748.728 509.187 748.76C509.547 748.792 509.897 748.899 510.215 749.072C510.533 749.246 510.812 749.484 511.035 749.77L513.825 753.423C514.227 753.932 514.427 754.514 514.427 755.17V788.509Z" fill="#FE7F2D"/>
<path d="M330.823 786.736C330.82 787.002 330.764 787.265 330.659 787.51C330.554 787.754 330.402 787.976 330.212 788.162C330.021 788.348 329.796 788.495 329.549 788.593C329.302 788.692 329.037 788.741 328.771 788.738L327.166 788.719C326.628 788.712 326.115 788.492 325.74 788.107C325.364 787.723 325.157 787.204 325.163 786.667L325.5 759.09C325.503 758.824 325.559 758.561 325.664 758.316C325.769 758.072 325.921 757.85 326.111 757.664C326.302 757.478 326.527 757.332 326.774 757.233C327.022 757.134 327.286 757.085 327.552 757.088L329.157 757.108C329.695 757.114 330.208 757.334 330.584 757.719C330.959 758.104 331.166 758.622 331.16 759.159L330.823 786.736Z" fill="#C0D5E6"/>
<path d="M692.127 786.371C692.128 786.671 692.07 786.969 691.956 787.247C691.842 787.525 691.675 787.778 691.463 787.991C691.251 788.204 690.999 788.374 690.722 788.49C690.445 788.606 690.148 788.666 689.847 788.667L688.643 788.671C688.342 788.672 688.045 788.614 687.767 788.5C687.489 788.386 687.236 788.218 687.023 788.007C686.809 787.795 686.64 787.543 686.524 787.266C686.408 786.989 686.348 786.692 686.347 786.391L686.254 759.937C686.253 759.636 686.312 759.339 686.426 759.061C686.54 758.783 686.707 758.53 686.919 758.316C687.131 758.103 687.382 757.934 687.66 757.818C687.937 757.702 688.234 757.642 688.535 757.641L689.739 757.636C690.039 757.635 690.337 757.693 690.615 757.807C690.893 757.921 691.146 758.089 691.359 758.301C691.572 758.513 691.742 758.764 691.858 759.041C691.974 759.319 692.034 759.616 692.035 759.916L692.127 786.371Z" fill="#799ABC"/>
<path d="M638.772 284.188C638.924 284.531 638.948 284.918 638.842 285.278C638.735 285.638 638.504 285.949 638.19 286.155L630.201 291.293C627.953 292.738 625.665 292.812 623.337 291.514L611.575 284.97C609.22 283.646 609.353 282.676 611.976 282.06C616.291 281.056 636.122 278.327 638.772 284.188Z" fill="#F0E4DA"/>
<path d="M569.504 502.146L570.828 529.845C570.855 530.374 570.775 530.903 570.593 531.401C570.41 531.899 570.129 532.355 569.766 532.743C569.402 533.13 568.965 533.441 568.478 533.657C567.992 533.873 567.467 533.99 566.935 534L565.329 534.02C564.986 534.029 564.644 533.967 564.327 533.836C564.009 533.706 563.722 533.511 563.484 533.264C563.246 533.016 563.062 532.722 562.944 532.399C562.827 532.077 562.777 531.733 562.8 531.391L564.506 502.989C564.573 501.905 565.141 501.31 566.212 501.203L568.179 501.002C568.341 500.983 568.505 500.998 568.661 501.046C568.817 501.094 568.962 501.174 569.086 501.281C569.21 501.389 569.312 501.521 569.383 501.67C569.455 501.818 569.496 501.981 569.504 502.146Z" fill="#F0E4DA"/>
<path d="M596.741 570.63L660.91 570.349C661.609 570.349 662.28 570.615 662.785 571.094C663.29 571.573 663.589 572.226 663.62 572.919L663.961 580.365C663.986 580.833 663.882 581.299 663.661 581.712C663.44 582.125 663.11 582.47 662.706 582.711C662.303 582.952 661.84 583.08 661.368 583.08C660.897 583.081 660.433 582.954 660.027 582.714C649.189 576.19 639.855 580.987 630.281 586.728C629.666 587.089 629.063 587.076 628.475 586.688C626.227 585.223 624.661 583.336 622.353 582.312C615.107 579.101 602.301 578.619 596.38 585.162C594.507 587.236 593.543 586.875 593.49 584.078L593.249 570.49C593.236 569.7 593.583 569.486 594.293 569.848L595.015 570.209C595.564 570.49 596.139 570.63 596.741 570.63Z" fill="#F0E4DA"/>
<path d="M554.003 601.489C555.394 612.978 552.016 624.567 544.614 633.706C537.211 642.844 526.39 648.785 514.531 650.22C502.672 651.655 490.746 648.467 481.378 641.358C472.009 634.249 465.964 623.8 464.574 612.311C463.184 600.822 466.561 589.233 473.964 580.095C481.366 570.956 492.187 565.015 504.046 563.58C515.905 562.145 527.831 565.333 537.2 572.442C546.569 579.551 552.613 590 554.003 601.489Z" fill="#01020A"/>
<path d="M539.336 569.326C539.162 569.205 538.955 569.092 538.714 568.985C538.532 568.891 538.387 568.738 538.303 568.551C538.219 568.364 538.201 568.154 538.252 567.955C538.304 567.756 538.421 567.581 538.585 567.458C538.75 567.335 538.951 567.272 539.156 567.279L559.207 568.322C559.877 568.353 560.509 568.64 560.976 569.125C561.442 569.61 561.707 570.256 561.716 570.932L562.459 650.977C562.461 651.272 562.406 651.564 562.295 651.836C562.184 652.109 562.021 652.357 561.813 652.566C561.606 652.775 561.36 652.941 561.088 653.054C560.817 653.167 560.525 653.225 560.231 653.225L531.769 653.185C528.076 653.172 527.882 652.349 531.187 650.716C539.497 646.622 548.308 642.226 551.901 632.411C553.406 628.276 555.534 624.342 556.016 620.027C557.983 602.926 556.297 580.285 540.52 570.871C540.159 570.657 539.851 570.242 539.597 569.627C539.544 569.493 539.457 569.393 539.336 569.326Z" fill="#F0E4DA"/>
<path d="M472.296 576.331C471.708 577.414 470.998 578.411 470.169 579.321C464.83 585.202 461.919 595.017 460.675 602.584C457.624 621.05 466.235 637.79 481.329 648.308C482.332 648.99 484.52 649.592 485.785 650.736C486.4 651.312 486.293 651.579 485.463 651.539L458.467 650.455C458.172 650.445 457.892 650.324 457.683 650.115C457.475 649.906 457.353 649.626 457.343 649.331C456.982 639.235 457.102 630.163 456.44 619.264C455.978 611.998 456.641 604.812 455.757 597.566C455.436 595.037 456.299 592.589 456.239 590.341C456.132 584.118 456.199 577.836 456.44 571.493C456.455 571.014 456.655 570.558 456.998 570.218C457.341 569.879 457.802 569.682 458.286 569.667L478.86 569.085C479.12 569.073 479.377 569.148 479.589 569.299C479.801 569.45 479.957 569.667 480.031 569.917C480.105 570.167 480.093 570.434 479.997 570.676C479.901 570.918 479.727 571.121 479.502 571.252L473.581 574.966C473.032 575.314 472.604 575.769 472.296 576.331Z" fill="#F0E4DA"/>
<path d="M334.063 712.999C333.795 713.708 333.601 714.13 333.481 714.264C331.835 716.231 331.106 715.936 331.293 713.38C331.494 710.744 331.507 707.76 331.333 704.428C331.32 703.973 331.199 703.579 330.972 703.244C330.825 703.043 330.664 702.849 330.49 702.662C330.209 702.354 330.069 701.986 330.069 701.558L329.988 684.116C329.988 683.996 330.012 683.878 330.059 683.768C330.106 683.659 330.175 683.559 330.261 683.477C330.347 683.394 330.449 683.33 330.561 683.288C330.673 683.246 330.792 683.227 330.912 683.233L354.496 684.256C354.75 684.271 354.994 684.36 355.198 684.512C355.402 684.663 355.558 684.871 355.645 685.11C355.732 685.349 355.748 685.608 355.69 685.856C355.632 686.104 355.503 686.329 355.319 686.504C348.468 692.914 342.68 699.926 337.957 707.539C337.02 709.052 335.956 710.47 334.765 711.795C334.458 712.156 334.223 712.557 334.063 712.999Z" fill="#F0E4DA"/>
<path d="M461.237 710.45C460.956 711.279 460.347 711.835 459.411 712.116C459.244 712.167 459.067 712.177 458.895 712.146C458.722 712.116 458.56 712.044 458.421 711.938C458.282 711.833 458.17 711.695 458.094 711.538C458.018 711.38 457.981 711.207 457.986 711.032L458.046 684.517C458.046 684.336 458.082 684.157 458.154 683.991C458.225 683.825 458.33 683.675 458.462 683.551C458.594 683.427 458.749 683.331 458.919 683.269C459.089 683.208 459.27 683.182 459.451 683.192L480.807 684.477C481.383 684.517 481.51 684.778 481.189 685.26C480.961 685.621 480.867 685.962 480.908 686.284C481.001 687.033 480.754 687.648 480.165 688.13C472.832 694.045 466.958 701.177 462.542 709.527C462.408 709.794 462.234 709.982 462.02 710.089C461.819 710.182 461.619 710.249 461.418 710.289C461.324 710.303 461.264 710.356 461.237 710.45Z" fill="#F0E4DA"/>
<path d="M595.357 696.078C593.571 697.443 592.366 699.591 590.439 701.056C589.824 701.525 589.436 701.384 589.275 700.635C588.098 695.148 587.971 689.642 588.894 684.116C589.001 683.433 589.389 682.972 590.058 682.731C595.196 680.938 600.335 680.971 605.473 682.831C606.182 683.085 606.343 683.54 605.955 684.196C603.171 688.853 599.639 692.813 595.357 696.078Z" fill="#F0E4DA"/>
<path d="M424.064 699.25L413.848 689.074C413.387 688.615 413.071 688.031 412.939 687.394C412.808 686.758 412.866 686.096 413.108 685.493C413.35 684.889 413.764 684.37 414.299 684C414.834 683.631 415.466 683.426 416.116 683.413L428.279 683.193C429.136 683.179 429.631 683.594 429.765 684.437C430.447 688.947 430.166 693.456 428.922 697.965C428.786 698.455 428.524 698.9 428.163 699.257C427.801 699.615 427.353 699.871 426.861 700.001C426.37 700.131 425.854 700.13 425.363 699.998C424.872 699.866 424.424 699.608 424.064 699.25Z" fill="#F0E4DA"/>
<path d="M670.144 681.968C675.302 682.751 679.156 682.57 683.772 682.771C684.466 682.804 685.125 683.083 685.633 683.557C686.14 684.032 686.462 684.671 686.542 685.36C687.332 692.238 687.412 699.116 686.783 705.994C686.154 712.805 684.027 713.313 680.4 707.519C676.921 701.966 671.957 696.42 665.507 690.88C663.018 688.752 661.453 686.244 659.205 683.875C658.669 683.313 658.776 682.925 659.526 682.711C663.112 681.681 666.651 681.433 670.144 681.968Z" fill="#F0E4DA"/>
<path d="M724.678 698.628C724.825 699.069 724.878 699.544 724.838 700.053C723.594 715.97 725.24 734.677 725.179 747.362C725.139 759.284 726.022 771.749 724.015 783.511C723.927 784.036 723.706 784.529 723.373 784.944C723.04 785.359 722.606 785.681 722.113 785.881C721.619 786.08 721.083 786.15 720.555 786.083C720.027 786.016 719.526 785.814 719.098 785.498C717.653 784.434 716.709 782.327 716.689 780.36C716.515 757.986 716.649 735.613 717.091 713.24C717.231 705.191 716.228 695.396 716.569 686.484C716.703 682.778 718.348 681.219 721.506 681.808C722.276 681.947 722.981 682.33 723.519 682.901C724.056 683.471 724.399 684.199 724.497 684.979C724.965 688.619 724.959 692.546 724.477 696.761C724.41 697.39 724.477 698.012 724.678 698.628Z" fill="#799ABC"/>
<path d="M518.441 627.815C525.506 619.646 528.898 605.857 519.565 597.687C516.976 595.439 515.531 593.292 512.038 592.609C504.759 591.178 498.503 593.579 493.271 599.815C487.156 607.108 486.661 615.083 491.786 623.74" stroke="#164362" stroke-width="2"/>
<path d="M518.442 627.815C525.507 619.646 528.899 605.857 519.566 597.688C516.976 595.439 515.531 593.292 512.039 592.609C504.759 591.178 498.504 593.579 493.272 599.815C487.157 607.108 486.662 615.083 491.787 623.74C482.848 610.266 484.293 599.079 496.122 590.181C506.118 582.674 516.033 583.878 524.985 591.947C531.508 597.808 534.298 604.833 532.01 613.524C530.705 618.542 524.804 629.2 518.442 627.815Z" fill="#072D47"/>
<path d="M518.441 627.815C510.754 631.428 504.009 630.685 496.984 626.37C495.459 625.447 493.726 624.57 491.786 623.74C486.661 615.083 487.156 607.108 493.271 599.815C498.503 593.579 504.759 591.178 512.038 592.609C515.531 593.292 516.976 595.439 519.565 597.687C528.898 605.857 525.506 619.646 518.441 627.815Z" fill="#25597D"/>
</svg>
