<svg width="1024" height="1024" viewBox="0 0 1024 1024" fill="none" xmlns="http://www.w3.org/2000/svg">
<rect width="1024" height="1024" fill="white"/>
<path d="M580.618 786.195C540.321 795.156 495.086 797.293 454.412 788.566C449.898 787.596 445.517 786.758 441.267 786.052" stroke="#47503D" stroke-width="2"/>
<path d="M722.09 247.141C721.012 251.235 720.725 257.431 716.433 259.639C706.323 264.847 704.958 252.241 704.078 246.315C703.982 245.692 703.617 245.345 702.983 245.273C696.679 244.483 690.825 243.855 688.634 237.767C688.443 237.24 688.461 236.725 688.688 236.222C691.184 230.692 696.536 228.95 701.564 228.249C702.332 228.141 703.043 227.784 703.588 227.233C704.133 226.681 704.482 225.966 704.581 225.197C705.012 221.653 705.82 218.343 707.005 215.266C709.034 210.022 717.007 211.513 718.767 216.756C719.916 220.168 720.994 223.61 722 227.082C722.078 227.354 722.221 227.604 722.418 227.81C722.615 228.016 722.859 228.173 723.131 228.267C726.902 229.56 732.343 230.853 734.265 234.265C737.892 240.694 729.003 244.86 723.275 246.027C722.652 246.159 722.257 246.53 722.09 247.141Z" fill="black"/>
<path d="M303.011 224.981C303.748 219.306 305.023 209.34 314.145 213.434C317.701 215.032 319.101 221.407 318.994 224.676C318.959 225.648 319.247 226.605 319.812 227.397C320.377 228.189 321.187 228.773 322.118 229.057L330.63 231.625C331.388 231.857 332.077 232.272 332.637 232.832C333.198 233.393 333.612 234.082 333.845 234.84C336.323 242.903 327.147 244.627 321.633 246.297C320.999 246.488 320.58 246.901 320.376 247.536L316.803 258.652C316.675 259.034 316.414 259.358 316.066 259.567C311.769 262.177 308.213 261.908 305.4 258.759C303.047 256.137 303.263 252.187 302.921 248.739C302.849 248.015 302.548 247.333 302.06 246.791C301.573 246.248 300.925 245.874 300.21 245.722C294.876 244.609 286.347 243.836 286.76 236.276C287.047 230.889 296.259 229.542 299.563 228.788C300.456 228.578 301.264 228.101 301.88 227.421C302.496 226.741 302.89 225.89 303.011 224.981Z" fill="black"/>
<path d="M580.619 786.194C540.322 795.155 495.086 797.292 454.412 788.565C449.899 787.595 445.517 786.757 441.267 786.051C433.132 783.249 424.046 781.364 416.88 778.706C375.308 763.262 336.466 738.014 307.249 704.559C277.451 670.415 256.794 631.046 245.277 586.451C243.134 578.154 241.093 569.81 239.153 561.418C238.327 557.802 237.627 550.763 237.052 540.3C236.154 524.078 235.831 511.663 236.083 503.055C236.819 478.184 242.511 455.396 251.472 427.651C258.883 404.677 268.957 382.936 281.695 362.429C296.294 338.904 317.09 316.87 338.316 299.2C369.849 272.963 409.105 254.808 448.773 244.68C453.239 243.543 462.535 241.771 476.662 239.365C491.333 236.868 505.591 236.761 520.389 236.581C530.499 236.455 540.016 238.072 549.893 239.508C646.865 253.587 725.232 313.117 763.643 403.39C794.872 476.783 795.482 561.202 761.614 633.877C732.882 695.544 685.043 744.928 622.55 771.882C610.033 777.269 594.644 781.471 580.619 786.194Z" fill="black"/>
<path d="M250.395 288.283C253.304 285.894 254.471 284.009 254.974 279.986C255.638 274.653 257.237 270.361 263.827 271.977C268.927 273.234 269.178 277.454 269.25 282.285C269.262 282.848 269.43 283.395 269.735 283.865C271.675 286.756 273.273 288.911 276.864 289.971C280.653 291.084 287.729 292.323 286.184 297.89C284.119 305.324 275.015 302.128 271.746 307.192C270.789 308.677 270.106 310.664 269.699 313.154C268.604 319.888 261.78 324.629 256.321 318.847C253.501 315.848 254.722 310.083 251.885 306.977C248.455 303.241 240.428 305.307 238.632 300.189C235.041 289.953 246.013 291.892 250.395 288.283Z" fill="black"/>
<path d="M769.57 306.814C768.134 311.914 767.254 322.258 759.478 321.594C753.767 321.091 751.289 312.291 750.822 307.443C750.786 307.036 750.625 306.65 750.362 306.336C750.099 306.022 749.746 305.794 749.35 305.683C746.68 304.917 743.873 304.193 740.928 303.51C737.013 302.594 735.217 297.063 737.516 294.046C741.951 288.21 751.792 292.682 752.277 282.392C752.492 278.046 755.886 271.222 761.292 272.084C768.241 273.198 767.182 280.56 768.313 285.75C768.394 286.111 768.589 286.438 768.87 286.684C771.623 289.054 774.79 290.461 778.369 290.904C779.713 291.066 780.949 291.704 781.853 292.7C789.144 300.691 777.166 304.48 770.773 305.683C770.486 305.743 770.222 305.88 770.009 306.08C769.797 306.28 769.645 306.534 769.57 306.814Z" fill="black"/>
<path d="M270.616 741.337C269.52 745.269 267.67 753.961 263.163 755.164C254.49 757.481 253.466 749.399 252.119 743.635C251.877 742.601 251.345 741.657 250.584 740.916C249.824 740.175 248.867 739.666 247.827 739.451C243.769 738.607 234.305 735.518 237.681 729.071C239.07 726.426 240.914 724.959 243.212 724.672C251.257 723.648 251.921 719.105 254.094 712.64C255.675 707.935 258.961 703.877 264.438 706.57C270.364 709.48 267.419 716.699 271.693 721.098C275.213 724.708 287.406 724.69 285.251 731.873C284.03 735.985 276.506 738.499 272.878 739.218C272.343 739.325 271.848 739.58 271.449 739.955C271.049 740.329 270.761 740.807 270.616 741.337Z" fill="black"/>
<path d="M749.385 739.559C746.225 738.356 736.097 735.967 736.923 730.364C737.803 724.295 747.105 724.438 750.571 719.985C753.642 716.034 752.69 710.916 755.294 707.971C759.46 703.194 766.355 705.762 767.469 711.922C768.295 716.537 770.037 722.014 775.101 723.684C779.375 725.085 785.804 726.611 783.918 732.196C782.535 736.362 775.352 737.027 772.605 738.427C765.978 741.821 768.816 757.498 758.688 755.254C753.624 754.14 752.025 745.269 750.571 740.816C750.379 740.205 749.984 739.786 749.385 739.559Z" fill="black"/>
<path d="M441.267 786.052C445.517 786.758 449.899 787.596 454.412 788.566C495.086 797.293 540.322 795.156 580.619 786.195C583.612 786.04 586.545 785.854 589.418 785.639C592.662 785.387 595.601 785.25 598.235 785.226C633.265 785.058 668.294 784.98 703.323 784.992C709.836 785.004 714.487 785.812 717.277 787.416C725.268 792.049 724.226 806.631 715.409 810.618C713.458 811.492 710.453 811.929 706.394 811.929C567.222 811.749 428.068 811.911 288.896 812C281.988 812 277.876 811.827 276.559 811.48C263.27 807.924 263.629 788.853 277.241 785.459C278.427 785.16 282.383 785.022 289.111 785.046C330.989 785.19 373.028 784.471 414.869 785.531C423.549 785.746 432.348 785.92 441.267 786.052Z" fill="#8D9F79"/>
<path d="M496.379 319.152C497.589 320.313 498.229 319.954 498.301 318.074C498.409 315.076 495.895 311.017 495.535 307.497C494.35 296.064 492.656 284.715 490.453 273.45C490.381 273.091 490.244 272.815 490.04 272.624C489.801 272.408 489.52 272.246 489.196 272.139" stroke="#FF6053" stroke-width="2"/>
<path d="M486.196 329.351C464.324 331.829 444.75 339.622 426.308 350.954" stroke="#FFA4A8" stroke-width="2"/>
<path d="M599.349 350.003C580.421 339.875 560.476 332.877 539.514 329.01" stroke="#FFA4A8" stroke-width="2"/>
<path d="M640.525 309.311C642.932 313.968 645.566 318.254 648.427 322.168C654.766 330.824 657.944 336.822 661.805 345.603" stroke="#DD293E" stroke-width="2"/>
<path d="M381.862 382.829C368.298 397.865 356.638 414.374 346.881 432.356" stroke="#FFA4A8" stroke-width="2"/>
<path d="M698.619 421.635C696.931 414.847 695.889 407.538 694.04 401.415C688.964 384.678 681.607 368.78 671.97 353.719" stroke="#DFC79C" stroke-width="2"/>
<path d="M677.122 433.721C669.706 415.943 657.513 396.1 642.5 383.494" stroke="#FF9379" stroke-width="2"/>
<path d="M555.406 422.983C557.358 425.102 559.369 427.131 561.44 429.071C564.241 431.674 564.69 434.494 566.324 437.672" stroke="#FFEDCF" stroke-width="2"/>
<path d="M566.323 437.672C571.603 454.468 572.68 471.51 569.556 488.797" stroke="#EEDCC6" stroke-width="2"/>
<path d="M569.558 488.798C566.565 504.924 560.28 519.709 550.702 533.153C527.393 565.854 495.303 584.494 453.731 578.73C445.686 577.617 440.873 574.887 434.283 571.206C432.11 570.003 430.099 567.632 427.423 567.327" stroke="#FFEDCF" stroke-width="2"/>
<path d="M432.97 575.587C434.55 574.378 435.717 574.288 436.471 575.318C439.321 579.173 443.134 581.053 447.91 580.957C448.497 580.945 449.012 581.124 449.455 581.495C451.053 582.824 453.208 582.232 454.663 582.465C461.738 583.579 468.855 583.95 476.014 583.579C476.182 583.567 476.589 583.62 477.235 583.74C477.834 583.836 478.241 583.602 478.456 583.04C488.501 582.154 495.223 580.993 498.623 579.556C504.298 577.15 510.852 575.498 515.844 573.073C541.847 560.503 559.386 540.456 568.46 512.933C569.406 510.084 570.083 507.366 570.49 504.78C571.495 498.441 569.771 494.293 569.556 488.798" stroke="#EECB97" stroke-width="2"/>
<path d="M458.308 599.076C458.356 598.621 458.182 598.136 457.787 597.621C457.296 596.987 457.452 596.669 458.254 596.669H459.152C459.619 596.669 459.96 596.873 460.176 597.28C460.571 598.01 461.205 598.411 462.079 598.483C462.678 598.531 463.139 598.806 463.462 599.309C463.953 600.087 464.719 600.488 465.76 600.512C466.323 600.536 466.772 600.77 467.107 601.213C467.442 601.656 467.921 601.889 468.544 601.913C469.645 601.949 470.633 602.266 471.507 602.865C471.974 603.2 472.495 603.38 473.069 603.404C475.464 603.535 477.427 604.505 478.96 606.313C479.379 606.815 479.911 607.115 480.558 607.211C486.041 608.084 491.53 608.881 497.025 609.599C502.646 610.353 508.141 609.725 513.887 609.707C514.438 609.695 514.965 609.808 515.467 610.048C516.449 610.491 517.58 610.712 518.861 610.712C531.665 610.676 540.824 608.863 553.735 603.475C556.716 602.23 559.625 600.584 562.463 598.537C565.192 596.574 567.922 594.61 570.651 592.647C579.463 586.326 587.095 578.855 593.547 570.236C608.955 549.638 612.565 517.62 607.806 493.646C605.795 483.47 601.168 473.462 593.925 463.621C593.35 462.831 592.907 461.388 592.596 459.293C592.5 458.706 592.249 458.198 591.842 457.767C589.22 454.965 588.16 451.589 584.479 449.362C579.128 446.094 577.421 439.791 571.998 436.433C568.107 434.015 566.216 434.428 566.323 437.672" stroke="#EECB97" stroke-width="2"/>
<path d="M737.641 436.145L737.354 437.869C737.222 438.611 736.887 438.719 736.348 438.192L735.666 437.51C735.199 437.055 735.085 436.528 735.324 435.929C735.911 434.529 735.588 433.493 734.355 432.823C733.708 432.464 733.624 432.009 734.103 431.458C734.498 431.015 734.414 430.638 733.852 430.327C733.611 430.195 733.418 429.993 733.299 429.748C733.18 429.503 733.141 429.228 733.187 428.962C733.355 428.1 733.187 427.364 732.684 426.753C732.086 426.011 731.781 426.119 731.769 427.076L731.751 428.908C731.739 430.081 731.272 430.297 730.35 429.555L729.775 429.106C729.332 428.746 729.267 428.333 729.578 427.866C730.979 425.7 730.715 423.856 728.788 422.335C728.129 421.809 727.722 421.958 727.567 422.784C727.327 424.065 727.441 425.358 727.908 426.663C728.064 427.094 727.926 427.376 727.495 427.507L726.866 427.705" stroke="#880E28" stroke-width="2"/>
<path d="M728.339 436.271C729.703 436.486 729.398 435.571 727.423 433.523" stroke="#880E28" stroke-width="2"/>
<path d="M726.579 431.351C727.501 431.459 727.495 430.848 726.562 429.519" stroke="#880E28" stroke-width="2"/>
<path d="M331.581 485.655C330.563 490.97 329.869 496.34 329.498 501.763C328.54 516.153 329.163 530.286 331.365 544.161" stroke="#FFA4A8" stroke-width="2"/>
<path d="M749.189 478.633C748.782 478.562 748.38 478.544 747.985 478.579C747.494 478.639 747.261 478.915 747.285 479.406L749.835 520.457C749.871 521.067 749.709 521.618 749.35 522.109C748.728 522.983 748.434 523.965 748.47 525.054C748.686 532.034 748.506 539.037 747.931 546.065C747.91 546.336 747.829 546.598 747.693 546.834C747.558 547.07 747.372 547.272 747.148 547.427C746.925 547.582 746.669 547.685 746.401 547.729C746.133 547.773 745.858 547.756 745.597 547.681C738.971 545.741 732.596 547.016 726.275 545.346C721.857 544.197 715.643 543.981 712.914 543.55C709.873 543.06 706.826 542.593 703.773 542.15C700.685 541.707 699.081 542.611 698.961 544.861" stroke="#B6B29C" stroke-width="2"/>
<path d="M690.664 543.047C694.878 524.958 695.303 506.042 691.939 486.301" stroke="#D25B67" stroke-width="2"/>
<path d="M739.023 589.271C737.478 593.15 737.353 594.856 738.646 594.389" stroke="#880E28" stroke-width="2"/>
<path d="M731.481 586.667C731.529 587.026 731.744 587.223 732.127 587.259C732.917 587.355 733.091 587.074 732.648 586.415L731.193 584.278" stroke="#880E28" stroke-width="2"/>
<path d="M381.953 647.094C379.954 644.915 378.092 642.677 376.368 640.378C371.645 634.129 366.078 628.49 361.858 622.438C360.158 619.996 356.603 614.603 351.191 606.258C349.216 603.242 347.851 599.83 346.02 596.705" stroke="#FFA4A8" stroke-width="2"/>
<path d="M677.016 596.489C669.725 615.399 656.041 629.998 644.153 646.016" stroke="#CA5C6C" stroke-width="2"/>
<path d="M599.886 680.513C596.474 683.195 592.661 685.434 588.447 687.23C572.555 694.018 556.914 698.399 539.979 701.632" stroke="#D25B67" stroke-width="2"/>
<path d="M485.677 701.398C476.83 701.003 468.695 699.231 461.272 696.083" stroke="#FF9379" stroke-width="2"/>
<path d="M461.272 696.083C447.815 692.468 435.766 687.158 425.123 680.155" stroke="#FFA4A8" stroke-width="2"/>
<path d="M461.272 696.083C456.962 698.225 454.185 700.416 452.94 702.655C452.652 703.17 452.251 703.583 451.736 703.894C449.27 705.427 447.57 706.893 446.636 708.294C439.687 718.745 435.969 724.689 428.176 731.567" stroke="#FFEDCF" stroke-width="2"/>
<path d="M428.175 731.568C422.117 733.663 415.263 734.806 407.613 734.997" stroke="#EEDCC6" stroke-width="2"/>
<path d="M485.425 704.074C484.431 703.942 483.845 704.307 483.665 705.169C483.557 705.66 483.288 706.031 482.857 706.283C482.103 706.731 481.654 706.767 481.061 707.432C477.901 710.94 474.914 714.591 472.1 718.386C471.765 718.841 471.322 719.134 470.771 719.266C468.126 719.913 464.839 721.445 460.913 723.863C456.806 726.389 449.468 729.221 438.896 732.357C436.945 732.932 435.149 733.099 433.509 732.86C431.797 732.597 430.019 732.166 428.176 731.567" stroke="#EECB97" stroke-width="2"/>
<path d="M496.378 319.151C497.588 320.312 498.228 319.953 498.3 318.073C498.408 315.074 495.894 311.016 495.534 307.496C494.349 296.063 492.655 284.714 490.452 273.449C490.38 273.089 490.243 272.814 490.039 272.622C489.8 272.407 489.519 272.245 489.195 272.138C489.83 271.79 490.44 271.605 491.027 271.581C505.633 270.958 520.136 270.905 534.538 271.419C534.755 271.429 534.967 271.485 535.16 271.582C535.354 271.68 535.525 271.816 535.662 271.984C535.799 272.152 535.9 272.346 535.957 272.555C536.014 272.764 536.026 272.983 535.993 273.197L528.038 324.089C527.978 324.48 527.778 324.836 527.475 325.093C527.172 325.35 526.785 325.491 526.386 325.49L498.282 325.274C498.056 325.269 497.836 325.208 497.642 325.099C497.448 324.989 497.285 324.833 497.169 324.646C496.343 323.281 496.079 321.45 496.378 319.151Z" fill="#FF4951"/>
<path d="M489.195 272.139C489.518 272.246 489.799 272.408 490.039 272.624C490.242 272.815 490.38 273.091 490.452 273.45C492.655 284.715 494.349 296.064 495.534 307.497C495.893 311.017 498.407 315.076 498.299 318.074C498.228 319.954 497.587 320.313 496.378 319.152C495.396 313.154 494.396 307.198 493.379 301.284C492.14 294.083 491.188 284.386 488.441 275.91C488.105 274.88 488.357 273.623 489.195 272.139Z" fill="#FF7754"/>
<path d="M486.197 329.352C464.325 331.83 444.751 339.624 426.308 350.955L399.569 302.864C399.379 302.521 399.26 302.144 399.219 301.754C399.177 301.364 399.214 300.97 399.328 300.594C399.442 300.219 399.63 299.871 399.881 299.57C400.133 299.268 400.442 299.021 400.79 298.842C424.638 286.618 449.767 278.304 476.177 273.898C476.728 273.815 477.051 274.048 477.147 274.599L486.197 329.352Z" fill="#FFFEFE"/>
<path d="M599.349 350.002C580.421 339.874 560.476 332.876 539.514 329.009L548.51 274.849C548.63 274.178 549.019 273.909 549.678 274.041C574.567 278.961 602.653 286.432 626.034 300.672C626.668 301.055 626.806 301.57 626.447 302.216L599.349 350.002Z" fill="#FFFEFE"/>
<path d="M413.074 355.659C405.316 360.508 397.935 364.386 391.596 371.067C391.331 371.346 391.013 371.571 390.661 371.727C390.308 371.883 389.929 371.968 389.545 371.976C389.16 371.984 388.779 371.916 388.422 371.776C388.065 371.635 387.74 371.424 387.466 371.156L351.299 335.69C350.868 335.271 350.856 334.846 351.263 334.415C361.032 323.73 374.698 315.129 386.981 307.371C387.58 306.988 388.059 307.107 388.418 307.73L413.828 352.714C414.103 353.208 414.179 353.789 414.038 354.337C413.898 354.885 413.553 355.358 413.074 355.659Z" fill="#FF4951"/>
<path d="M640.525 309.311C642.931 313.968 645.565 318.254 648.426 322.168C654.765 330.824 657.944 336.822 661.805 345.603C654.286 355.073 645.978 363.98 636.879 372.324C636.101 373.043 635.287 373.078 634.437 372.432L611.451 354.959C610.673 354.361 610.475 353.606 610.859 352.697C611.996 350.051 613.373 347.345 614.989 344.58C623.752 329.639 631.043 317.954 636.861 309.526C637.34 308.832 638.561 308.76 640.525 309.311Z" fill="#FF4951"/>
<path d="M640.525 309.311C652.258 316.422 662.895 324.622 672.436 333.913C672.528 334.003 672.601 334.11 672.651 334.229C672.7 334.348 672.726 334.475 672.726 334.604C672.726 334.733 672.7 334.86 672.651 334.979C672.601 335.098 672.528 335.205 672.436 335.295L661.805 345.603C657.944 336.822 654.766 330.824 648.427 322.168C645.566 318.254 642.932 313.968 640.525 309.311Z" fill="#BB082A"/>
<path d="M539.513 329.01C560.476 332.877 580.421 339.875 599.348 350.003L574.154 395.256C573.966 395.587 573.664 395.838 573.307 395.961C572.949 396.084 572.56 396.069 572.214 395.921C559.787 390.515 547.127 385.182 533.515 383.871C533.305 383.851 533.1 383.789 532.914 383.688C532.728 383.587 532.565 383.449 532.434 383.282C532.303 383.116 532.207 382.925 532.152 382.721C532.097 382.516 532.084 382.303 532.115 382.093L539.513 329.01Z" fill="#FF4951"/>
<path d="M486.196 329.351L493.254 382.344C493.284 382.568 493.268 382.796 493.208 383.014C493.148 383.232 493.045 383.437 492.905 383.616C492.765 383.795 492.59 383.944 492.391 384.056C492.192 384.167 491.972 384.238 491.746 384.265C477.978 385.714 464.887 389.515 452.472 395.668C452.084 395.862 451.637 395.9 451.222 395.773C450.808 395.646 450.458 395.364 450.245 394.986C443.421 382.894 436.532 370.719 429.576 358.46C428.762 357.023 427.672 354.521 426.308 350.954C444.75 339.622 464.324 331.829 486.196 329.351Z" fill="#FF4951"/>
<path d="M381.863 382.83C368.299 397.866 356.639 414.375 346.882 432.357L299.833 405.492C298.636 404.81 298.348 403.852 298.971 402.619C309.745 381.261 323.453 362.017 340.094 344.885C340.325 344.643 340.623 344.477 340.948 344.41C341.272 344.342 341.607 344.377 341.908 344.508C343.26 345.095 344.625 346.016 346.002 347.273C358.465 358.587 369.706 370.726 381.863 382.83Z" fill="#FFFEFE"/>
<path d="M698.619 421.635C696.931 414.847 695.889 407.539 694.04 401.415C688.964 384.679 681.607 368.78 671.97 353.719L681.811 345.279C682.239 344.909 682.792 344.714 683.358 344.734C683.924 344.754 684.462 344.987 684.863 345.387C689.772 350.307 694.297 355.707 698.439 361.585C708.184 375.4 717.361 389.437 725.968 403.696C726.111 403.93 726.205 404.191 726.244 404.462C726.284 404.734 726.268 405.011 726.197 405.278C726.127 405.544 726.004 405.794 725.835 406.013C725.666 406.231 725.455 406.414 725.214 406.551L698.619 421.635Z" fill="#BEB197"/>
<path d="M671.969 353.719C681.606 368.78 688.963 384.678 694.039 401.415C695.888 407.538 696.93 414.847 698.618 421.635L677.122 433.721C669.706 415.943 657.513 396.099 642.5 383.493L671.969 353.719Z" fill="#FFDCA0"/>
<path d="M381.862 382.829L417.347 418.062C417.568 418.281 417.743 418.544 417.861 418.833C417.978 419.122 418.036 419.431 418.031 419.743C418.026 420.055 417.958 420.363 417.831 420.648C417.704 420.933 417.521 421.189 417.293 421.402C406.446 431.512 400.233 443.58 393.14 456.473C392.529 457.598 391.661 457.844 390.536 457.209L346.881 432.356C356.638 414.374 368.298 397.865 381.862 382.829Z" fill="#FF4951"/>
<path d="M642.501 383.494C657.513 396.1 669.707 415.943 677.123 433.721L632.498 457.839C632.372 457.908 632.233 457.95 632.09 457.963C631.946 457.976 631.801 457.96 631.663 457.914C631.525 457.869 631.398 457.796 631.288 457.699C631.179 457.603 631.089 457.485 631.026 457.354C624.525 443.778 616.013 431.608 605.49 420.846C605.323 420.667 605.232 420.432 605.235 420.19C605.239 419.949 605.337 419.72 605.508 419.553L642.501 383.494Z" fill="#FF4951"/>
<path d="M555.406 422.982C557.357 425.101 559.369 427.13 561.44 429.07C564.241 431.674 564.69 434.493 566.324 437.672C571.604 454.468 572.681 471.51 569.557 488.797C566.564 504.923 560.279 519.708 550.701 533.153C527.392 565.854 495.302 584.494 453.73 578.729C445.685 577.616 440.872 574.886 434.281 571.205C432.109 570.002 430.097 567.631 427.422 567.326C412.14 542.508 407.219 511.891 416.018 483.733C427.715 446.369 452.724 423.347 491.046 414.668C513.613 409.556 535.066 412.327 555.406 422.982Z" fill="#FFFEFE"/>
<path d="M340.363 441.713C335.359 451.087 332.276 461.083 331.114 471.702C331.081 472.015 330.982 472.317 330.825 472.589C330.668 472.861 330.456 473.098 330.203 473.284C329.95 473.469 329.66 473.6 329.354 473.668C329.047 473.736 328.729 473.739 328.421 473.678L279.989 464.016C277.427 463.502 276.571 462.011 277.421 459.545C278.475 456.42 279.498 452.829 280.492 448.77C283.03 438.451 286.442 428.502 290.728 418.925C290.899 418.54 291.147 418.196 291.459 417.913C291.77 417.629 292.137 417.414 292.537 417.279C292.936 417.144 293.36 417.093 293.781 417.129C294.202 417.165 294.611 417.287 294.984 417.488C308.009 424.551 321.16 431.567 334.437 438.534C336.316 439.528 338.22 440.39 340.147 441.12C340.447 441.228 340.518 441.426 340.363 441.713Z" fill="#FF4951"/>
<path d="M737.64 436.146L737.353 437.87C737.221 438.612 736.886 438.72 736.347 438.193L735.665 437.511C735.198 437.056 735.084 436.529 735.323 435.931C735.91 434.53 735.587 433.494 734.354 432.824C733.707 432.465 733.623 432.01 734.102 431.459C734.497 431.016 734.413 430.639 733.851 430.328C733.61 430.196 733.417 429.994 733.298 429.749C733.179 429.504 733.14 429.229 733.186 428.963C733.354 428.101 733.186 427.365 732.683 426.754C732.085 426.012 731.78 426.12 731.768 427.077L731.75 428.909C731.738 430.082 731.271 430.298 730.349 429.556L729.774 429.107C729.331 428.747 729.266 428.334 729.577 427.868C730.978 425.701 730.714 423.857 728.787 422.337C728.128 421.81 727.721 421.959 727.566 422.785C727.326 424.066 727.44 425.359 727.907 426.664C728.063 427.095 727.925 427.377 727.494 427.508L726.865 427.706C726.41 426.94 726.195 426.006 726.219 424.904C726.219 424.677 726.105 424.557 725.878 424.545C725.71 424.533 725.542 424.527 725.375 424.527C725.195 424.527 725.052 424.605 724.944 424.761C724.716 425.096 724.537 425.545 724.405 426.108C724.371 426.234 724.297 426.346 724.194 426.427C724.091 426.508 723.965 426.554 723.835 426.558C723.704 426.562 723.576 426.524 723.468 426.449C723.361 426.375 723.28 426.267 723.238 426.144C722.567 423.845 723.298 422.492 725.429 422.085C726.949 421.786 728.182 421.283 729.128 420.577C730.804 419.296 731.774 419.703 732.037 421.798L732.324 424.025C732.396 424.539 732.606 424.988 732.953 425.371C734.785 427.454 735.252 430.22 736.419 432.483C737.029 433.692 737.436 434.913 737.64 436.146Z" fill="#BB082A"/>
<path d="M737.639 436.145L740.566 444.208C740.734 444.687 740.716 445.16 740.513 445.627C740.357 445.95 740.309 446.249 740.369 446.525C740.944 449.099 742.135 451.714 743.942 454.372C744.254 454.834 744.376 455.4 744.284 455.952C744.116 457.042 744.355 457.946 745.002 458.664C745.828 459.586 745.876 460.071 745.146 460.119C744.918 460.131 744.757 460.22 744.661 460.388C744.493 460.675 744.547 460.915 744.822 461.106C745.445 461.549 745.726 462.046 745.667 462.597C745.595 463.159 745.271 463.525 744.697 463.692C744.314 463.812 743.966 463.722 743.655 463.423C743.38 463.159 743.182 463.213 743.063 463.584C742.919 464.087 742.65 464.476 742.255 464.752C741.752 465.099 741.219 465.171 740.656 464.967C739.734 464.656 738.094 464.752 735.736 465.254C735.627 465.278 735.515 465.278 735.406 465.253C735.298 465.228 735.196 465.18 735.109 465.111C735.021 465.043 734.95 464.955 734.9 464.856C734.85 464.757 734.823 464.647 734.82 464.536C734.772 462.489 734.419 460.508 733.761 458.592C733.545 457.97 733.473 457.329 733.545 456.671C733.88 454.037 733.318 451.678 731.857 449.595C731.589 449.211 731.457 448.75 731.48 448.284C731.54 446.381 731.037 444.597 729.971 442.933C729.89 442.811 729.856 442.664 729.874 442.519C729.893 442.373 729.963 442.24 730.072 442.142C730.181 442.044 730.321 441.988 730.467 441.985C730.614 441.982 730.756 442.032 730.869 442.125L732.503 443.382C732.611 443.466 732.755 443.436 732.934 443.292C733.126 443.148 733.162 442.999 733.042 442.843C732.396 442.065 731.618 441.389 730.708 440.814C730.361 440.611 729.989 440.473 729.594 440.401C729.235 440.341 728.924 440.174 728.66 439.898C728.546 439.785 728.456 439.65 728.394 439.502C728.332 439.354 728.301 439.196 728.301 439.036L728.337 436.271C729.702 436.486 729.397 435.57 727.422 433.523C728.463 433.26 728.182 432.536 726.578 431.35C727.499 431.458 727.493 430.847 726.56 429.519C726.787 429.495 726.978 429.453 727.134 429.393C727.589 429.213 727.709 428.902 727.493 428.459C727.361 428.208 727.152 427.956 726.865 427.705L727.493 427.507C727.924 427.376 728.062 427.094 727.906 426.663C727.439 425.358 727.326 424.065 727.565 422.784C727.721 421.958 728.128 421.809 728.786 422.335C730.714 423.856 730.977 425.7 729.576 427.866C729.265 428.333 729.331 428.746 729.774 429.106L730.349 429.555C731.27 430.297 731.737 430.081 731.749 428.908L731.767 427.076C731.779 426.119 732.084 426.011 732.683 426.753C733.186 427.364 733.353 428.1 733.186 428.962C733.139 429.228 733.178 429.503 733.297 429.748C733.416 429.993 733.61 430.195 733.85 430.327C734.413 430.638 734.497 431.015 734.102 431.458C733.623 432.009 733.707 432.464 734.353 432.823C735.586 433.493 735.91 434.529 735.323 435.929C735.083 436.528 735.197 437.055 735.664 437.51L736.346 438.192C736.885 438.719 737.22 438.611 737.352 437.869L737.639 436.145Z" fill="#551325"/>
<path d="M555.405 422.983C574.117 430.579 590.189 448.698 599.905 465.938C622.064 505.247 614.109 556.642 581.336 587.098C560.703 606.277 537.466 614.232 510.17 613.909C491.35 613.694 474.416 608.935 458.308 599.076C458.356 598.621 458.182 598.136 457.787 597.621C457.296 596.987 457.452 596.67 458.254 596.67H459.152C459.619 596.67 459.96 596.873 460.176 597.28C460.571 598.011 461.205 598.412 462.079 598.484C462.678 598.531 463.139 598.807 463.462 599.309C463.953 600.088 464.719 600.489 465.76 600.513C466.323 600.537 466.772 600.77 467.107 601.213C467.442 601.656 467.921 601.889 468.544 601.913C469.645 601.949 470.633 602.267 471.507 602.865C471.974 603.2 472.495 603.38 473.069 603.404C475.464 603.536 477.427 604.505 478.96 606.313C479.379 606.816 479.911 607.115 480.558 607.211C486.041 608.085 491.53 608.881 497.025 609.599C502.646 610.354 508.141 609.725 513.887 609.707C514.438 609.695 514.965 609.809 515.467 610.048C516.449 610.491 517.58 610.713 518.861 610.713C531.665 610.677 540.824 608.863 553.735 603.476C556.716 602.231 559.625 600.585 562.463 598.537C565.192 596.574 567.922 594.611 570.651 592.647C579.463 586.326 587.095 578.856 593.547 570.236C608.955 549.639 612.565 517.62 607.806 493.646C605.795 483.47 601.168 473.462 593.925 463.621C593.35 462.831 592.907 461.388 592.596 459.293C592.5 458.707 592.249 458.198 591.842 457.767C589.22 454.966 588.16 451.59 584.479 449.363C579.128 446.094 577.421 439.791 571.998 436.433C568.107 434.015 566.216 434.428 566.323 437.672C564.689 434.494 564.24 431.674 561.439 429.071C559.368 427.131 557.357 425.102 555.405 422.983Z" fill="#FFDCA0"/>
<path d="M726.56 429.519C727.494 430.847 727.5 431.458 726.578 431.35C725.262 431.219 724.597 430.333 724.585 428.693C724.585 428.034 724.86 427.879 725.411 428.226C725.854 428.489 726.237 428.92 726.56 429.519Z" fill="#BB082A"/>
<path d="M727.423 433.524C729.398 435.572 729.703 436.487 728.339 436.272C725.848 433.65 725.543 432.734 727.423 433.524Z" fill="#BB082A"/>
<path d="M458.308 599.076C448.228 592.922 439.782 585.093 432.97 575.587C434.55 574.378 435.717 574.288 436.471 575.318C439.321 579.173 443.134 581.052 447.91 580.956C448.497 580.944 449.012 581.124 449.455 581.495C451.053 582.824 453.208 582.231 454.663 582.465C461.738 583.578 468.855 583.949 476.014 583.578C476.182 583.566 476.589 583.62 477.235 583.74C477.834 583.836 478.241 583.602 478.456 583.039C488.501 582.154 495.223 580.992 498.623 579.556C504.298 577.149 510.852 575.497 515.844 573.073C541.847 560.503 559.386 540.456 568.46 512.933C569.406 510.083 570.083 507.366 570.49 504.78C571.495 498.441 569.771 494.293 569.556 488.798C572.68 471.51 571.603 454.468 566.323 437.672C566.216 434.428 568.107 434.015 571.998 436.433C577.421 439.791 579.127 446.094 584.479 449.362C588.16 451.589 589.22 454.965 591.841 457.767C592.248 458.198 592.5 458.706 592.595 459.293C592.907 461.388 593.35 462.831 593.925 463.621C601.167 473.462 605.795 483.47 607.806 493.646C612.565 517.62 608.955 549.638 593.547 570.236C587.094 578.855 579.462 586.326 570.651 592.647C567.922 594.61 565.192 596.574 562.463 598.537C559.625 600.584 556.716 602.23 553.735 603.475C540.824 608.863 531.665 610.676 518.861 610.712C517.58 610.712 516.449 610.491 515.467 610.048C514.964 609.808 514.438 609.695 513.887 609.707C508.141 609.725 502.645 610.353 497.025 609.599C491.53 608.881 486.041 608.084 480.558 607.211C479.911 607.115 479.378 606.815 478.959 606.313C477.427 604.505 475.464 603.535 473.069 603.404C472.495 603.38 471.974 603.2 471.507 602.865C470.633 602.266 469.645 601.949 468.544 601.913C467.921 601.889 467.442 601.656 467.107 601.213C466.772 600.77 466.323 600.536 465.76 600.512C464.719 600.488 463.953 600.087 463.462 599.309C463.139 598.806 462.678 598.531 462.079 598.483C461.205 598.411 460.571 598.01 460.175 597.28C459.96 596.873 459.619 596.669 459.152 596.669H458.254C457.452 596.669 457.296 596.987 457.787 597.621C458.182 598.136 458.356 598.621 458.308 599.076Z" fill="#DCBA8D"/>
<path d="M331.581 485.655C330.563 490.97 329.869 496.34 329.498 501.763C328.54 516.153 329.162 530.286 331.365 544.161L274.152 550.482C273.182 550.59 272.649 550.159 272.554 549.189C270.387 525.293 270.507 501.398 272.913 477.502C272.941 477.238 273.023 476.982 273.154 476.751C273.285 476.52 273.462 476.318 273.674 476.158C273.886 475.998 274.129 475.883 274.387 475.821C274.645 475.759 274.914 475.75 275.176 475.796L331.581 485.655Z" fill="#FFFEFE"/>
<path d="M749.188 478.634C748.781 478.562 748.38 478.544 747.985 478.58C747.494 478.64 747.261 478.915 747.284 479.406L749.835 520.457C749.87 521.068 749.709 521.618 749.35 522.109C748.727 522.983 748.434 523.965 748.47 525.054C748.685 532.034 748.506 539.037 747.931 546.065C747.91 546.336 747.828 546.599 747.693 546.834C747.557 547.07 747.371 547.273 747.148 547.427C746.924 547.582 746.669 547.685 746.401 547.729C746.132 547.773 745.858 547.757 745.597 547.681C738.97 545.742 732.595 547.017 726.274 545.347C721.856 544.197 715.643 543.982 712.913 543.551C709.873 543.06 706.826 542.593 703.773 542.15C700.684 541.707 699.08 542.611 698.961 544.862L690.664 543.048C694.878 524.959 695.303 506.043 691.939 486.302L747.949 476.928C748.5 476.832 748.895 477.041 749.134 477.556C749.302 477.903 749.32 478.263 749.188 478.634Z" fill="#BEB197"/>
<path d="M749.189 478.633C749.655 478.981 749.907 479.34 749.943 479.711C752.098 506.378 751.164 524.856 750.428 547.95C750.421 548.187 750.366 548.42 750.266 548.635C750.165 548.85 750.022 549.042 749.844 549.2C749.665 549.358 749.456 549.478 749.23 549.554C749.003 549.629 748.763 549.658 748.524 549.638L698.961 544.861C699.081 542.611 700.685 541.707 703.773 542.15C706.826 542.593 709.873 543.06 712.914 543.55C715.643 543.981 721.857 544.197 726.275 545.346C732.596 547.016 738.971 545.741 745.597 547.681C745.858 547.756 746.133 547.773 746.401 547.729C746.669 547.685 746.925 547.582 747.148 547.427C747.372 547.272 747.558 547.07 747.693 546.834C747.829 546.598 747.91 546.336 747.931 546.065C748.506 539.037 748.686 532.034 748.47 525.054C748.434 523.965 748.728 522.983 749.35 522.109C749.709 521.618 749.871 521.067 749.835 520.457L747.285 479.406C747.261 478.915 747.494 478.639 747.985 478.579C748.38 478.544 748.782 478.562 749.189 478.633Z" fill="#ADB3A1"/>
<path d="M331.581 485.655L381.97 494.472C382.172 494.507 382.365 494.584 382.537 494.698C382.708 494.812 382.855 494.96 382.967 495.133C383.08 495.306 383.156 495.501 383.192 495.705C383.227 495.91 383.221 496.119 383.173 496.322C380.174 508.928 381.144 523.402 383.209 535.883C383.245 536.087 383.238 536.296 383.19 536.498C383.142 536.7 383.053 536.89 382.929 537.058C382.805 537.225 382.648 537.367 382.468 537.473C382.288 537.58 382.088 537.65 381.88 537.678L331.365 544.161C329.163 530.286 328.54 516.153 329.498 501.763C329.869 496.34 330.563 490.97 331.581 485.655Z" fill="#FF4951"/>
<path d="M691.938 486.301C695.302 506.042 694.877 524.958 690.663 543.047L643.56 538.809C643.409 538.796 643.262 538.752 643.127 538.681C642.993 538.609 642.873 538.512 642.777 538.393C642.68 538.274 642.607 538.137 642.563 537.99C642.518 537.843 642.503 537.688 642.518 537.534C643.68 523.826 643.745 510.107 642.716 496.375C642.681 495.891 642.838 495.412 643.153 495.04C643.468 494.668 643.917 494.432 644.404 494.382C660.446 492.742 676.291 490.048 691.938 486.301Z" fill="#E60436"/>
<path d="M569.556 488.798C569.772 494.293 571.496 498.441 570.49 504.78C570.083 507.366 569.406 510.084 568.461 512.933C559.386 540.456 541.847 560.503 515.845 573.073C510.852 575.498 504.298 577.15 498.623 579.556C495.223 580.993 488.501 582.154 478.457 583.04C478.241 583.602 477.834 583.836 477.236 583.74C476.589 583.62 476.182 583.567 476.015 583.579C468.855 583.95 461.738 583.579 454.663 582.465C453.208 582.232 451.053 582.824 449.455 581.495C449.012 581.124 448.497 580.945 447.911 580.957C443.134 581.053 439.321 579.173 436.472 575.318C435.717 574.288 434.55 574.378 432.97 575.587L427.421 567.327C430.097 567.632 432.108 570.003 434.281 571.206C440.871 574.887 445.684 577.617 453.729 578.73C495.301 584.494 527.391 565.854 550.7 533.153C560.278 519.709 566.563 504.924 569.556 488.798Z" fill="#FFDCA0"/>
<path d="M337.292 587.727L292.632 610.12C292.232 610.319 291.794 610.43 291.348 610.443C290.902 610.456 290.458 610.371 290.047 610.195C289.637 610.019 289.27 609.755 288.972 609.423C288.674 609.091 288.452 608.697 288.322 608.27L275.266 566.07C275.135 565.644 275.097 565.195 275.156 564.753C275.215 564.312 275.37 563.888 275.609 563.512C275.848 563.136 276.166 562.817 276.541 562.576C276.916 562.336 277.339 562.18 277.78 562.119L327.416 555.079C328.14 554.98 328.877 555.142 329.492 555.537C330.108 555.932 330.562 556.534 330.774 557.234L338.873 584.099C339.079 584.793 339.034 585.537 338.745 586.201C338.455 586.865 337.941 587.405 337.292 587.727Z" fill="#FF4951"/>
<path d="M739.023 589.271C737.479 593.15 737.353 594.856 738.646 594.389L735.737 602.596C735.632 602.901 735.613 603.23 735.683 603.547C735.899 604.565 735.612 605.325 734.821 605.828C734.414 606.091 734.289 606.451 734.444 606.906C734.887 608.258 734.33 609.366 732.774 610.228C732.247 610.515 731.751 610.473 731.284 610.102L728.392 607.857C728.001 607.545 727.505 607.397 727.01 607.444C725.453 607.564 724.556 606.816 724.316 605.2C724.288 604.976 724.308 604.749 724.376 604.534C724.445 604.32 724.559 604.124 724.711 603.96L726.722 601.841C727.106 601.434 727.321 600.979 727.369 600.477C727.381 600.261 727.291 600.076 727.099 599.92C726.597 599.513 726.549 599.058 726.956 598.555C728.404 596.723 728.991 594.622 728.716 592.252C728.644 591.629 728.818 591.091 729.237 590.636C730.374 589.403 731.122 588.08 731.481 586.667C731.529 587.026 731.745 587.224 732.128 587.26C732.918 587.356 733.092 587.074 732.649 586.416L731.194 584.279L735.216 563.43C735.318 562.911 735.562 562.429 735.92 562.04C736.278 561.65 736.737 561.367 737.246 561.221C738.898 560.766 740.364 561.077 741.645 562.155C741.726 562.225 741.82 562.268 741.915 562.281L746.53 563.071C747.476 563.226 747.763 563.747 747.392 564.633L747.158 565.226C747.116 565.319 747.05 565.399 746.966 565.457C746.881 565.514 746.783 565.548 746.681 565.553C746.579 565.559 746.477 565.536 746.387 565.488C746.297 565.44 746.222 565.368 746.171 565.28C745.704 564.442 744.973 564.112 743.98 564.292C743.321 564.412 743.19 564.735 743.585 565.262C743.992 565.836 744.548 566.219 745.255 566.411C745.396 566.446 745.526 566.515 745.635 566.611C745.743 566.708 745.827 566.83 745.88 566.966C745.933 567.103 745.952 567.251 745.937 567.398C745.922 567.545 745.873 567.687 745.793 567.812C744.764 569.404 744.429 570.553 744.788 571.259C745.063 571.774 745.081 572.295 744.842 572.822L742.687 577.581C742.519 577.928 742.579 578.239 742.866 578.514C743.022 578.67 743.148 578.844 743.243 579.035C743.313 579.172 743.339 579.329 743.316 579.483C743.294 579.637 743.224 579.781 743.118 579.897C741.813 581.298 741.28 582.902 741.52 584.71C741.553 584.965 741.525 585.224 741.437 585.465C741.35 585.706 741.205 585.921 741.017 586.093C739.855 587.206 739.191 588.265 739.023 589.271Z" fill="#551325"/>
<path d="M381.953 647.095C379.954 644.916 378.092 642.677 376.368 640.378C371.645 634.129 366.078 628.49 361.858 622.439C360.158 619.996 356.603 614.603 351.191 606.259C349.216 603.242 347.851 599.83 346.02 596.705C346.786 595.724 347.534 595.047 348.264 594.676C362.104 587.505 376.128 580.388 390.339 573.324C390.978 573.008 391.715 572.949 392.399 573.159C393.083 573.369 393.663 573.833 394.02 574.456C401.263 587.086 409.626 598.926 419.107 609.976C419.526 610.467 419.502 610.934 419.036 611.377L381.953 647.095Z" fill="#FF4951"/>
<path d="M677.016 596.49C669.725 615.4 656.041 629.999 644.153 646.018C641.711 644.749 638.664 642.324 635.013 638.745C625.339 629.227 615.744 619.656 606.227 610.03C606.058 609.86 605.96 609.633 605.953 609.395C605.947 609.158 606.032 608.929 606.191 608.755C615.337 598.496 623.502 587.524 630.685 575.839C631.043 575.261 631.605 574.837 632.259 574.651C632.913 574.465 633.614 574.53 634.223 574.833L677.016 596.49Z" fill="#E60436"/>
<path d="M731.194 584.278L732.648 586.415C733.091 587.074 732.918 587.355 732.128 587.259C731.744 587.223 731.529 587.026 731.481 586.667C730.643 585.278 730.547 584.482 731.194 584.278Z" fill="#BB082A"/>
<path d="M739.023 589.271L739.489 589.361C739.909 589.457 740.016 589.691 739.813 590.062C739.106 591.331 738.717 592.773 738.646 594.389C737.353 594.856 737.478 593.15 739.023 589.271Z" fill="#BB082A"/>
<path d="M346.02 596.705C347.852 599.83 349.217 603.242 351.192 606.258C356.603 614.603 360.159 619.996 361.859 622.438C366.079 628.49 371.646 634.129 376.369 640.378C378.093 642.677 379.954 644.915 381.953 647.094L342.267 686.242C342.097 686.411 341.894 686.544 341.671 686.634C341.448 686.723 341.209 686.766 340.968 686.761C340.727 686.756 340.489 686.703 340.268 686.604C340.047 686.506 339.847 686.364 339.681 686.188C322.011 667.596 307.22 646.939 295.308 624.216C295.227 624.064 295.177 623.898 295.162 623.727C295.146 623.556 295.165 623.383 295.217 623.219C295.268 623.056 295.352 622.904 295.463 622.773C295.575 622.642 295.711 622.534 295.864 622.456L346.02 596.705Z" fill="#FFFEFE"/>
<path d="M677.015 596.489C693.943 604.63 710.159 613.848 725.662 624.144C725.882 624.294 726.043 624.516 726.115 624.772C726.187 625.029 726.167 625.302 726.057 625.545C715.534 648.243 701.366 667.027 683.641 685.11C683.234 685.529 682.815 685.541 682.384 685.146C669.239 672.935 656.495 659.892 644.152 646.016C656.04 629.998 669.724 615.399 677.015 596.489Z" fill="#ADB3A1"/>
<path d="M599.887 680.513C596.475 683.195 592.662 685.433 588.448 687.229C572.555 694.017 556.914 698.399 539.98 701.631L532.528 648.279C532.48 647.933 532.502 647.581 532.592 647.243C532.682 646.906 532.839 646.59 533.053 646.314C533.267 646.038 533.534 645.807 533.839 645.636C534.143 645.465 534.479 645.356 534.826 645.316C548.869 643.7 561.026 639.246 574.082 633.428C574.692 633.153 575.153 633.314 575.464 633.913L599.887 680.513Z" fill="#E60436"/>
<path d="M485.676 701.398C476.829 701.003 468.694 699.231 461.272 696.083C447.815 692.467 435.766 687.158 425.123 680.154C432.51 665.501 441.022 650.632 450.659 635.548C451.07 634.904 451.711 634.44 452.45 634.25C453.19 634.06 453.975 634.158 454.645 634.524C466.438 641.037 479.044 644.844 492.464 645.945C492.616 645.956 492.763 645.998 492.898 646.068C493.033 646.138 493.152 646.235 493.248 646.353C493.344 646.47 493.414 646.606 493.455 646.752C493.497 646.898 493.508 647.052 493.488 647.202L485.676 701.398Z" fill="#FF4951"/>
<path d="M412.354 679.113L387.339 722.409C387.177 722.689 386.956 722.931 386.692 723.119C386.429 723.308 386.128 723.437 385.81 723.5C385.493 723.563 385.165 723.558 384.85 723.484C384.534 723.41 384.238 723.271 383.981 723.074L351.119 697.879C350.864 697.683 350.653 697.436 350.5 697.153C350.348 696.871 350.257 696.559 350.233 696.238C350.209 695.918 350.253 695.596 350.363 695.294C350.472 694.992 350.644 694.716 350.867 694.485L386.675 657.78C387.075 657.369 387.615 657.125 388.188 657.095C388.76 657.065 389.323 657.252 389.764 657.618L411.852 676.222C412.262 676.568 412.538 677.047 412.63 677.576C412.722 678.105 412.624 678.649 412.354 679.113Z" fill="#FF4951"/>
<path d="M652.844 712.927C648.164 715.8 643.806 719.182 639.771 723.073C639.622 723.217 639.442 723.325 639.245 723.389C639.048 723.454 638.839 723.473 638.635 723.446C638.431 723.418 638.236 723.344 638.066 723.23C637.895 723.115 637.754 722.963 637.652 722.785C635.258 718.619 632.929 714.896 630.667 711.616C623.376 700.985 617.522 690.031 612.099 678.592C611.846 678.066 611.797 677.466 611.959 676.906C612.121 676.346 612.484 675.866 612.978 675.557C619.695 671.307 625.878 666.332 631.529 660.634C634.258 657.904 635.749 656.953 639.448 659.323C641.95 660.927 643.716 662.346 644.746 663.579C649.438 669.23 654.401 674.635 659.633 679.795C664.319 684.428 667.318 690.3 671.844 695.31C672.038 695.53 672.147 695.812 672.151 696.106C672.154 696.399 672.051 696.684 671.862 696.908C669.838 699.363 667.48 701.428 664.786 703.104C664.271 703.42 663.865 703.883 663.619 704.433C663.14 705.498 662.332 706.157 661.195 706.408C660.648 706.524 660.16 706.822 659.812 707.252C658.22 709.18 655.897 711.071 652.844 712.927Z" fill="#551325"/>
<path d="M599.886 680.513L625.279 729.197C625.442 729.509 625.476 729.873 625.372 730.212C625.268 730.551 625.034 730.838 624.722 731.01C601.676 743.641 577.17 752.129 551.203 756.474C550.078 756.666 549.413 756.199 549.21 755.074L539.979 701.632C556.914 698.399 572.555 694.018 588.447 687.23C592.661 685.434 596.474 683.195 599.886 680.513Z" fill="#BEB197"/>
<path d="M425.122 680.155C435.765 687.158 447.814 692.468 461.271 696.083C456.961 698.226 454.184 700.417 452.939 702.656C452.651 703.17 452.25 703.583 451.735 703.895C449.269 705.427 447.569 706.894 446.635 708.294C439.686 718.746 435.968 724.69 428.175 731.567C422.117 733.662 415.263 734.806 407.613 734.997L400.071 731.442C399.757 731.294 399.476 731.085 399.247 730.826C399.017 730.566 398.843 730.263 398.735 729.935C398.627 729.607 398.588 729.26 398.62 728.917C398.652 728.574 398.755 728.241 398.922 727.94L425.122 680.155Z" fill="#FFFEFE"/>
<path d="M461.272 696.083C468.694 699.231 476.829 701.003 485.676 701.398L485.425 704.074C484.431 703.942 483.845 704.307 483.665 705.169C483.557 705.66 483.288 706.031 482.857 706.282C482.103 706.731 481.654 706.767 481.061 707.432C477.901 710.94 474.914 714.591 472.1 718.386C471.765 718.841 471.322 719.134 470.771 719.266C468.126 719.912 464.839 721.445 460.913 723.863C456.806 726.389 449.468 729.22 438.896 732.357C436.945 732.932 435.149 733.099 433.509 732.86C431.797 732.596 430.019 732.166 428.176 731.567C435.969 724.689 439.687 718.745 446.636 708.294C447.57 706.893 449.27 705.427 451.736 703.894C452.251 703.583 452.652 703.17 452.94 702.655C454.185 700.416 456.962 698.225 461.272 696.083Z" fill="#FFDCA0"/>
<path d="M485.424 704.074L475.511 755.163C475.391 755.774 475.026 756.025 474.416 755.918C449.383 751.59 430.078 746.598 407.613 734.997C415.263 734.805 422.117 733.662 428.175 731.567C430.018 732.166 431.796 732.597 433.508 732.86C435.148 733.099 436.944 732.932 438.895 732.357C449.467 729.221 456.805 726.389 460.912 723.863C464.838 721.445 468.125 719.913 470.77 719.266C471.321 719.134 471.764 718.841 472.099 718.386C474.913 714.591 477.9 710.94 481.06 707.432C481.653 706.767 482.102 706.731 482.856 706.283C483.287 706.031 483.556 705.66 483.664 705.169C483.844 704.307 484.43 703.942 485.424 704.074Z" fill="#DCBA8D"/>
<path d="M527.625 706.983L535.042 757.444C535.06 757.568 535.051 757.693 535.016 757.813C534.981 757.933 534.92 758.043 534.839 758.137C534.757 758.231 534.655 758.306 534.542 758.357C534.428 758.408 534.305 758.434 534.18 758.432L489.753 757.858C489.628 757.857 489.505 757.829 489.392 757.776C489.279 757.722 489.179 757.645 489.098 757.55C489.018 757.454 488.959 757.342 488.927 757.222C488.894 757.101 488.888 756.975 488.909 756.852L497.025 707.199C497.059 706.999 497.162 706.817 497.317 706.686C497.471 706.555 497.667 706.482 497.869 706.481L526.763 706.247C526.972 706.245 527.174 706.318 527.333 706.454C527.491 706.589 527.595 706.777 527.625 706.983Z" fill="#551325"/>
<path d="M733.439 435.248C733.87 435.619 733.774 436.002 733.151 436.397C733.065 436.453 732.969 436.492 732.868 436.511C732.767 436.53 732.664 436.528 732.563 436.506C732.463 436.485 732.368 436.443 732.284 436.384C732.2 436.325 732.128 436.25 732.074 436.163L731.302 434.888C731.014 434.433 731.098 434.056 731.553 433.757L732.253 433.308C732.9 432.889 733.223 433.063 733.223 433.829V434.781C733.223 434.972 733.295 435.128 733.439 435.248Z" fill="#BB082A"/>
</svg>
