<svg width="1024" height="1024" viewBox="0 0 1024 1024" fill="none" xmlns="http://www.w3.org/2000/svg">
<rect width="1024" height="1024" fill="white"/>
<path d="M543.326 779.566L526.432 805.063" stroke="#47503D" stroke-width="2"/>
<path d="M498.142 804.75L480.237 780.248" stroke="#47503D" stroke-width="2"/>
<path d="M281.805 239.355C278.463 238.891 275.457 237.011 273.448 234.129C271.439 231.246 270.592 227.597 271.094 223.985C271.595 220.372 273.403 217.092 276.121 214.865C278.839 212.638 282.243 211.648 285.586 212.112C288.928 212.576 291.934 214.456 293.943 217.338C295.951 220.22 296.798 223.869 296.297 227.482C295.796 231.095 293.987 234.375 291.269 236.602C288.552 238.828 285.147 239.819 281.805 239.355Z" fill="black"/>
<path d="M543.325 779.567L526.432 805.064C523.866 807.159 521.441 809.881 518.509 810.963C510.9 813.808 503.57 810.492 498.142 804.75L480.237 780.248C467.078 759.847 454.757 740.51 444.338 719.114C444.301 719.039 444.248 718.973 444.182 718.921C444.117 718.868 444.041 718.831 443.96 718.811C443.878 718.791 443.793 718.789 443.711 718.805C443.629 718.821 443.551 718.855 443.483 718.905C430.674 728.026 417.451 736.374 403.815 743.948C393.554 749.672 385.648 746.077 385.369 733.966C385.066 720.586 384.38 707.265 383.309 694.001C383.299 693.878 383.261 693.759 383.199 693.652C383.137 693.545 383.052 693.454 382.95 693.384C382.848 693.314 382.732 693.267 382.61 693.247C382.489 693.227 382.364 693.234 382.245 693.268C358.179 700.406 330.71 707.701 307.638 708.347C299.994 708.556 292.356 708.829 284.724 709.167C280.478 709.365 277.29 708.76 275.161 707.352C269.279 703.46 269.14 697.736 271.478 691.226C279.332 669.19 287.627 647.335 296.365 625.66C296.586 625.101 296.394 624.851 295.789 624.909C287.22 625.712 268.145 625.311 266.347 613.304C265.37 606.87 266.999 601.873 271.234 598.313C276.173 594.194 284.462 594.473 290.937 594.124C291.727 594.088 292.49 593.823 293.134 593.362C293.778 592.9 294.275 592.262 294.567 591.524L303.956 567.737C304.047 567.513 304.045 567.262 303.951 567.036C303.856 566.811 303.676 566.631 303.45 566.533C277.569 555.381 259.663 542.45 231.653 521.717C224.76 516.621 213.294 507.406 215.214 497.633C216.435 491.403 217.569 487.459 222.892 483.724C249.105 465.313 274.794 449.484 304.899 437.791C305.063 437.728 305.213 437.63 305.338 437.505C305.463 437.38 305.56 437.23 305.624 437.064C305.688 436.899 305.717 436.721 305.709 436.543C305.702 436.364 305.657 436.189 305.579 436.028L293.502 411.02C293.078 410.147 292.43 409.403 291.626 408.866C290.822 408.329 289.891 408.018 288.93 407.966C280.449 407.477 270.606 408.507 266.278 398.699C262.683 390.584 266.295 380.217 276.208 380.078C287.737 379.903 299.721 379.647 312.158 379.31C312.604 379.3 313.036 379.145 313.391 378.869C313.745 378.593 314.004 378.209 314.13 377.774C314.351 377.018 314.293 376 313.956 374.72C311.46 365.226 307.726 350.846 323.101 350.654C339.174 350.462 356.73 349.851 372.489 352.87C372.804 352.934 373.131 352.909 373.436 352.798C373.74 352.688 374.01 352.495 374.217 352.242C376.87 348.973 380.087 346.402 383.868 344.528C384.415 344.261 384.688 343.819 384.688 343.202C384.723 325.564 384.95 307.949 385.369 290.358C385.7 275.943 397.585 277.339 406.59 283.133C419.446 291.394 431.994 299.991 444.234 308.927C444.329 308.997 444.438 309.046 444.553 309.071C444.669 309.096 444.788 309.096 444.902 309.071C445.016 309.047 445.124 308.997 445.216 308.927C445.309 308.857 445.384 308.768 445.438 308.665C460.156 281.242 476.892 255.088 495.647 230.202C499.416 225.199 502.156 222.18 503.867 221.144C515.786 213.884 521.842 220.062 528.928 230.01C547.136 255.559 564.134 281.894 579.922 309.014C580.224 309.538 580.62 309.625 581.108 309.276C595.442 299.119 608.019 290.567 618.839 283.622C623.377 280.707 630.514 277.112 635.698 280.288C638.734 282.162 640.369 284.977 640.602 288.735C641.207 298.822 641.608 317.001 641.806 343.272C641.806 343.524 641.86 343.773 641.966 344.002C642.071 344.231 642.225 344.434 642.417 344.598L651.527 352.155C651.992 352.539 652.521 352.702 653.114 352.644C673.3 350.759 690.851 350.026 705.767 350.445C707 350.48 708.268 351.265 709.571 352.801C715.889 360.27 713.986 367.914 711.142 376.308C711.03 376.639 710.998 376.992 711.046 377.338C711.095 377.684 711.223 378.014 711.421 378.302C711.619 378.59 711.882 378.828 712.188 378.997C712.493 379.165 712.835 379.261 713.184 379.275C723.05 379.647 732.974 379.804 742.956 379.746C748.576 379.723 752.38 380.124 754.37 380.95C763.497 384.772 763.061 398.961 755.819 404.528C750.723 408.437 742.625 407.739 735.976 408.053C735.152 408.09 734.352 408.339 733.655 408.777C732.957 409.214 732.386 409.825 731.997 410.549C728.123 417.739 724.411 425.307 720.863 433.254C720.339 434.417 719.699 435.4 718.943 436.203C718.838 436.316 718.762 436.453 718.722 436.601C718.681 436.75 718.677 436.906 718.709 437.057C718.742 437.208 718.81 437.348 718.909 437.467C719.007 437.585 719.132 437.679 719.274 437.739C734.859 444.161 750.653 450.81 764.893 458.96C775.586 465.091 785.987 471.688 796.097 478.75C804.282 484.457 810.512 490.897 809.273 501.752C808.226 510.809 793.898 520.914 785.958 526.621C763.456 542.758 742.171 555.707 722.102 565.468C721.625 565.701 721.491 566.062 721.7 566.55C725.662 575.835 727.843 584.596 732.957 593.269C733.218 593.701 733.584 594.059 734.021 594.31C734.457 594.56 734.95 594.695 735.452 594.7C740.845 594.735 747.825 594.281 752.345 596.376C760.757 600.285 762.084 612.536 756.133 619.168C751.106 624.77 737.442 624.892 730.444 624.77C729.629 624.746 729.362 625.119 729.641 625.887C737.337 647.37 745.749 668.679 752.223 690.127C755.33 700.406 752.45 708.818 740.443 709.219C730.862 709.533 721.159 708.486 711.63 707.648C688.943 705.642 665.558 699.411 643.76 693.024C643.679 692.998 643.593 692.991 643.508 693.003C643.424 693.015 643.342 693.047 643.271 693.095C643.199 693.144 643.138 693.208 643.093 693.283C643.048 693.358 643.02 693.443 643.01 693.53C641.905 706.328 641.125 719.068 640.671 731.749C640.485 737.032 639.572 740.807 637.932 743.076C632.748 750.266 624.947 746.723 618.263 742.849C605.698 735.577 593.837 727.584 582.679 718.87C582.479 718.717 582.248 718.609 582.002 718.556C581.756 718.502 581.502 718.504 581.257 718.561C581.013 718.618 580.785 718.728 580.591 718.884C580.396 719.041 580.239 719.238 580.131 719.463C569.608 741.313 557.199 760.109 543.325 779.567Z" fill="black"/>
<path d="M734.584 299.491C727.866 299.69 721.342 297.141 716.447 292.404C711.553 287.668 708.688 281.131 708.483 274.233C708.382 270.818 708.936 267.416 710.116 264.223C711.295 261.029 713.075 258.107 715.356 255.622C717.636 253.137 720.372 251.138 723.406 249.74C726.44 248.342 729.714 247.571 733.04 247.472C739.758 247.273 746.281 249.822 751.176 254.559C756.071 259.295 758.936 265.832 759.141 272.73C759.242 276.145 758.687 279.547 757.508 282.74C756.329 285.934 754.548 288.856 752.268 291.341C749.987 293.826 747.252 295.825 744.218 297.223C741.184 298.621 737.91 299.392 734.584 299.491Z" fill="black"/>
<path d="M288.424 350.164C261.216 338.21 247.342 309.1 257.115 280.497C260.292 271.23 269.401 266.832 277.656 274.197C282.473 278.49 277.22 287.233 276.923 292.695C275.992 310.636 283.491 323.335 299.419 330.793C312.752 337.023 300.308 355.4 288.424 350.164Z" fill="black"/>
<path d="M336.183 309.484C331.385 310.574 326.341 309.672 322.161 306.977C317.981 304.282 315.007 300.014 313.894 295.113C313.342 292.686 313.264 290.176 313.664 287.727C314.063 285.278 314.933 282.938 316.223 280.84C317.513 278.742 319.198 276.928 321.181 275.501C323.165 274.073 325.409 273.061 327.785 272.521C332.583 271.431 337.626 272.333 341.806 275.028C345.986 277.723 348.96 281.991 350.074 286.892C350.625 289.319 350.703 291.829 350.304 294.278C349.904 296.727 349.034 299.067 347.745 301.165C346.455 303.263 344.77 305.077 342.786 306.504C340.802 307.932 338.558 308.944 336.183 309.484Z" fill="black"/>
<path d="M681.985 296.086C680.997 295.775 680.086 295.255 679.302 294.556C678.519 293.858 677.88 292.994 677.42 292.015C676.961 291.036 676.691 289.961 676.625 288.85C676.56 287.739 676.701 286.615 677.039 285.542C677.377 284.469 677.907 283.467 678.598 282.595C679.288 281.723 680.127 280.997 681.064 280.458C682.002 279.919 683.022 279.579 684.064 279.456C685.106 279.333 686.151 279.43 687.139 279.742C688.127 280.053 689.038 280.573 689.822 281.271C690.605 281.97 691.245 282.833 691.704 283.813C692.163 284.792 692.433 285.867 692.499 286.978C692.564 288.089 692.424 289.213 692.085 290.286C691.747 291.359 691.217 292.361 690.527 293.233C689.836 294.105 688.998 294.831 688.06 295.37C687.122 295.909 686.103 296.249 685.061 296.372C684.018 296.495 682.973 296.398 681.985 296.086Z" fill="#FE9C1C"/>
<path d="M758.611 315.716C770.845 316.798 774.196 329.834 764.685 337.844C751.037 349.293 737.093 350.741 719.938 351.247C716.134 351.37 714.039 351.579 711.195 348.822C705.924 343.761 705.837 333.935 712.451 330.043C714.162 329.031 716.931 328.537 720.758 328.56C726.157 328.595 731.544 328.339 736.919 327.792C745.714 326.902 750.426 321.44 757.006 316.204C757.465 315.836 758.041 315.66 758.611 315.716Z" fill="black"/>
<path d="M727.006 749.323C727.006 754.627 724.898 759.714 721.148 763.465C717.397 767.216 712.31 769.323 707.006 769.323C701.701 769.323 696.614 767.216 692.864 763.465C689.113 759.714 687.006 754.627 687.006 749.323C687.006 744.019 689.113 738.932 692.864 735.181C696.614 731.43 701.701 729.323 707.006 729.323C712.31 729.323 717.397 731.43 721.148 735.181C724.898 738.932 727.006 744.019 727.006 749.323Z" fill="black"/>
<path d="M305.373 746.296C306.284 750.243 305.562 754.396 303.364 757.842C301.167 761.288 297.675 763.746 293.657 764.673C289.639 765.601 285.423 764.923 281.938 762.789C278.452 760.654 275.982 757.238 275.071 753.292C274.16 749.346 274.883 745.193 277.08 741.747C279.277 738.3 282.769 735.843 286.787 734.915C290.805 733.988 295.021 734.666 298.506 736.8C301.992 738.934 304.462 742.35 305.373 746.296Z" fill="black"/>
<path d="M480.237 780.248L498.143 804.75C443.204 806.007 388.161 805.099 333.223 805.291C328.825 805.303 325.556 804.698 323.415 803.476C312.385 797.176 318.197 780.143 330.326 780.213C379.866 780.457 429.836 780.469 480.237 780.248Z" fill="#8D9F79"/>
<path d="M543.326 779.566C589.945 780.416 640.09 780.538 693.76 779.933C711.858 779.741 711.247 805.709 693.76 805.639C637.868 805.407 582.092 805.215 526.432 805.063L543.326 779.566Z" fill="#8D9F79"/>
<path d="M526.135 331.124C524.959 327.89 523.761 324.766 522.54 321.753C518.334 311.247 515.576 300.025 512.417 289.17C511.51 286.064 510.794 281.614 509.451 277.739" stroke="#FE8217" stroke-width="2"/>
<path d="M509.451 277.74C510.591 273.935 510.614 269.677 509.521 264.965" stroke="#FFA259" stroke-width="2"/>
<path d="M509.451 277.739C505.39 287.826 501.737 297.943 498.491 308.088C497.566 310.968 497.758 314.423 495.856 318.175C493.901 322.061 492.709 326.575 492.278 331.718" stroke="#FFBC5E" stroke-width="2"/>
<path d="M476.904 334.51C474.519 334.08 473.041 334.458 472.471 335.645" stroke="#FFBC5E" stroke-width="2"/>
<path d="M522.836 360.741C522.766 361.229 522.33 361.642 521.527 361.98" stroke="#D6D9D0" stroke-width="2"/>
<path d="M521.528 361.98C472.977 371.055 430.465 389.013 396.573 425.627" stroke="#8A9EA3" stroke-width="2"/>
<path d="M523.691 362.591C522.702 361.904 521.981 361.701 521.527 361.98" stroke="#617975" stroke-width="2"/>
<path d="M663.097 539.866L662.329 539.813C661.898 539.79 661.683 539.563 661.683 539.133V538.365C661.683 537.934 661.474 537.76 661.055 537.841C656.971 538.539 653.614 538.458 650.985 537.597C646.11 536.003 641.491 536.178 637.128 538.121" stroke="#CDB692" stroke-width="2"/>
<path d="M637.129 538.121C633.988 533.269 626.605 525.311 619.852 527.109" stroke="#CC615C" stroke-width="2"/>
<path d="M619.851 527.109C618.885 526.515 617.96 526.259 617.076 526.341" stroke="#EE826F" stroke-width="2"/>
<path d="M617.077 526.34C618.054 526.41 618.618 526.195 618.77 525.695C622.487 513.601 624.18 499.552 621.998 486.707C620.794 479.639 620.724 472.571 619.852 465.451C619.817 465.125 619.712 464.84 619.537 464.596C619.328 464.305 619.107 464.032 618.874 463.776C618.484 463.363 618.197 462.867 618.037 462.327C616.699 457.662 615.256 453.025 613.709 448.418C613.453 447.639 613.144 446.999 612.784 446.498C612.547 446.163 612.342 445.851 612.183 445.583C612.023 445.315 611.913 445.098 611.859 444.945C606.32 429.064 598.153 414.684 587.356 401.804C586.926 401.292 586.728 400.699 586.763 400.024C586.856 398.163 586.554 397.028 585.855 396.621" stroke="#EEDCC6" stroke-width="2"/>
<path d="M637.129 538.12C640.532 546.445 639.328 554.403 633.255 560.773C631.87 562.215 630.736 563.478 629.852 564.56" stroke="#BD5D61" stroke-width="2"/>
<path d="M629.852 564.56C621.527 570.057 610.568 569.063 602.714 563.967" stroke="#DD7265" stroke-width="2"/>
<path d="M617.076 526.341C597.146 527.475 587.443 548.4 601.736 563.443" stroke="#FFA4A8" stroke-width="2"/>
<path d="M601.737 563.443C592.476 575.183 581.039 584.304 567.427 590.808C552.313 598.033 536.706 602.774 520.604 605.031" stroke="#FFEDCF" stroke-width="2"/>
<path d="M520.603 605.031C530.981 601.959 539.48 596.968 546.1 590.057C559.154 576.392 546.013 559.534 529.66 571.227C521.65 576.951 511.127 577.544 501.877 574.926C494.024 572.71 484.443 560.389 476.38 571.035C471.424 577.597 475.734 587.806 481.022 592.71C487.654 598.853 496.275 602.983 506.886 605.101" stroke="#807F7F" stroke-width="2"/>
<path d="M506.886 605.101C498.986 605.043 489.143 605.619 477.357 606.829C451.651 609.481 422.977 607.841 399.662 593.094C394.496 589.83 388.649 584.403 383.047 580.494C381.093 579.133 380.418 579.604 381.023 581.907C382.437 587.335 384.199 592.134 385.857 598.295C387.032 602.623 388.731 607.09 390.953 611.698" stroke="#FFEDCF" stroke-width="2"/>
<path d="M619.852 527.108C616.728 541.279 612.714 553.827 602.714 563.967" stroke="#DD293E" stroke-width="2"/>
<path d="M602.713 563.968C602.329 563.502 602.003 563.328 601.736 563.444" stroke="#FF9379" stroke-width="2"/>
<path d="M417.096 637.491L421.598 638.067" stroke="#DFC79C" stroke-width="2"/>
<path d="M421.599 638.067C421.657 638.346 421.68 638.602 421.668 638.835C421.645 639.242 421.808 639.562 422.157 639.795C428.789 644.216 435.496 648.521 442.279 652.709C442.407 652.79 442.535 652.831 442.663 652.831C442.837 652.831 442.989 652.802 443.117 652.744C443.477 652.581 443.85 652.546 444.234 652.639C446.863 653.232 449.283 654.303 451.494 655.85C451.622 655.937 451.766 655.998 451.918 656.029C452.069 656.06 452.225 656.061 452.376 656.032C452.527 656.003 452.67 655.944 452.797 655.859C452.925 655.774 453.033 655.664 453.117 655.536L453.361 655.152C453.47 654.981 453.542 654.788 453.573 654.587C453.603 654.386 453.59 654.181 453.536 653.985C453.482 653.79 453.387 653.607 453.257 653.451C453.128 653.294 452.967 653.166 452.785 653.075L448.457 650.964C447.84 650.673 447.421 650.847 447.2 651.487C447.131 651.697 447.032 651.871 446.904 652.011C446.818 652.102 446.71 652.17 446.591 652.209C446.472 652.248 446.346 652.257 446.222 652.234C446.099 652.212 445.984 652.159 445.886 652.08C445.789 652.001 445.713 651.9 445.665 651.784C445.222 650.783 445.257 649.742 445.769 648.66C446.107 647.95 446.601 647.811 447.253 648.241L449.888 649.952C450.171 650.144 450.509 650.236 450.848 650.213C454.501 650.062 457.997 650.615 461.336 651.871C461.871 652.069 462.418 652.127 462.977 652.046C467.392 651.383 471.127 653.302 475.437 653.582C476.077 653.616 476.531 653.925 476.799 654.506C477.346 655.682 478.09 656.705 479.032 657.578C479.405 657.915 479.736 657.875 480.027 657.456L480.551 656.705C480.876 656.217 480.754 655.914 480.184 655.798C479.475 655.647 478.968 655.286 478.666 654.716C478.236 653.89 478.486 653.477 479.417 653.477H480.481C480.749 653.477 480.917 653.605 480.987 653.861L481.162 654.506C481.29 654.949 481.476 654.972 481.72 654.576L482.278 653.686C482.569 653.221 482.924 653.174 483.343 653.547C484.576 654.652 485.437 656.001 485.926 657.595C485.95 657.698 486.009 657.789 486.093 657.853C486.177 657.916 486.28 657.949 486.385 657.945C486.491 657.941 486.591 657.9 486.669 657.83C486.748 657.76 486.8 657.665 486.816 657.561C486.851 657.386 486.892 657.217 486.938 657.054C486.973 656.926 486.932 656.828 486.816 656.758C485.688 656.036 485.309 655.053 485.682 653.808C485.728 653.653 485.819 653.515 485.943 653.411C486.067 653.306 486.218 653.24 486.378 653.22C486.539 653.199 486.702 653.226 486.848 653.296C486.994 653.367 487.116 653.478 487.2 653.616L489.486 657.334C489.754 657.764 490.016 657.764 490.271 657.334L492.174 654C492.441 653.535 492.843 653.36 493.378 653.477C494.332 653.686 495.222 653.337 496.048 652.43" stroke="#CDB692" stroke-width="2"/>
<path d="M496.048 652.43C504.233 651.784 513.256 651.941 520.568 651.016C538.101 648.817 554.838 643.82 570.777 636.025C593.115 625.1 609.223 606.794 622.103 585.764C624.244 582.262 626.827 575.194 629.851 564.56" stroke="#DFC79C" stroke-width="2"/>
<path d="M496.048 652.43C490.719 652.348 485.391 652.18 480.062 651.924C471.022 651.487 461.476 649.219 452.052 648.014C444.769 647.072 434.618 643.756 421.599 638.067" stroke="#EECB97" stroke-width="2"/>
<path d="M506.886 605.1C511.494 604.088 516.066 604.065 520.603 605.03" stroke="#806E50" stroke-width="2"/>
<path d="M343.275 423.008C343.089 420.17 342.432 417.313 341.303 414.44C339.977 411.089 336.678 408.576 335.142 404.701C334.921 404.155 334.567 403.724 334.078 403.41C330.611 401.211 328.953 398.035 329.104 393.881" stroke="#FFC25B" stroke-width="2"/>
<path d="M700.304 396.987C695.173 394.73 690.63 394.823 686.674 397.266C686.139 397.615 685.929 398.104 686.046 398.732C686.552 401.402 686.988 402.886 685.697 405.469C682.672 411.542 679.211 417.359 675.313 422.921" stroke="#FE8217" stroke-width="2"/>
<path d="M332.926 481.665C316.242 486.214 299.657 490.821 283.171 495.487C274.957 497.802 266.894 498.779 258.983 498.419C258.331 498.396 257.854 498.023 257.552 497.302" stroke="#FFC25B" stroke-width="2"/>
<path d="M763.515 495.591L750.269 498.907C749.229 499.169 748.137 499.145 747.11 498.837L693.446 482.851" stroke="#FF8813" stroke-width="2"/>
<path d="M341.74 585.17C336.993 591.965 333.2 599.76 330.361 608.556C330.152 609.184 329.431 609.364 328.197 609.097" stroke="#FFC25B" stroke-width="2"/>
<path d="M341.565 609.638C339.215 608.521 335.998 608.486 331.915 609.533" stroke="#FFA219" stroke-width="2"/>
<path d="M373.869 639.376C370.716 640.365 368.557 641.698 367.394 643.373" stroke="#FFBC5E" stroke-width="2"/>
<path d="M367.393 643.373C363.745 643.373 360.342 640.738 356.45 642.431C355.88 642.675 355.281 642.763 354.653 642.693C350.976 642.309 347.3 642.454 343.623 643.129C343.17 643.222 342.728 643.193 342.297 643.042C337.847 641.558 335.421 648.138 334.444 651.279C334.264 651.84 333.878 652.314 333.362 652.605C332.361 653.176 331.809 654.048 331.704 655.223C331.669 655.596 331.465 655.834 331.093 655.939C330.779 656.02 330.535 656.23 330.36 656.567C328.976 659.289 327.161 661.669 324.915 663.705C324.529 664.045 324.255 664.502 324.13 665.014C322.716 670.808 316.887 670.249 314.392 675.624C314.124 676.194 313.67 676.445 313.03 676.375L311.163 676.148" stroke="#FFC25B" stroke-width="2"/>
<path d="M314.723 668.451L328.37 641.82C328.496 641.573 328.688 641.367 328.925 641.222C329.162 641.077 329.435 641 329.714 641L340.726 641.104" stroke="#EECB97" stroke-width="2"/>
<path d="M328.93 673.512L367.394 643.373" stroke="#FFA219" stroke-width="2"/>
<path d="M591.091 688.416C592.976 688.16 594.197 687.351 594.756 685.99C594.977 685.431 594.808 685.263 594.249 685.484C592.76 686.065 591.707 687.043 591.091 688.416Z" stroke="#9E0C2E" stroke-width="2"/>
<path d="M602.592 681.034C600.754 681.151 599.66 681.628 599.311 682.465C599.009 683.198 599.247 683.501 600.027 683.373C601.388 683.152 602.243 682.372 602.592 681.034Z" stroke="#9E0C2E" stroke-width="2"/>
<path d="M492.819 700.387L509.521 758.449" stroke="#FFBC5E" stroke-width="2"/>
<path d="M509.521 758.45C511.022 762.173 511.039 764.756 509.573 766.198" stroke="#FFA259" stroke-width="2"/>
<path d="M509.521 758.45C512.627 741.952 517.118 725.652 522.994 709.55C524.227 706.165 524.413 703.238 523.552 700.772" stroke="#FE8217" stroke-width="2"/>
<path d="M526.135 331.125C524.959 327.891 523.761 324.767 522.54 321.754C518.334 311.248 515.576 300.026 512.417 289.171C511.51 286.065 510.794 281.614 509.451 277.74C510.591 273.936 510.614 269.677 509.521 264.965C509.753 263.848 510.312 263.086 511.196 262.679C511.754 262.412 512.243 262.505 512.662 262.958C516.955 267.496 520.067 271.248 521.998 274.215C534.762 293.819 545.942 312.62 555.541 330.619C555.96 331.399 556.763 333.237 557.949 336.134C558.159 336.646 558.002 336.814 557.478 336.64C546.833 333.091 536.385 331.253 526.135 331.125Z" fill="#FE6811"/>
<path d="M509.521 264.965C510.615 269.677 510.592 273.935 509.451 277.74C505.391 287.827 501.738 297.943 498.492 308.088C497.567 310.968 497.759 314.423 495.856 318.175C493.902 322.061 492.709 326.576 492.279 331.718L476.904 334.51C474.519 334.08 473.041 334.458 472.471 335.645C470.679 336.622 469.405 337.14 468.649 337.198C467.369 337.291 466.52 336.89 466.101 335.994C465.868 335.493 465.892 334.999 466.171 334.51C467.759 331.77 468.3 329.048 470.185 326.483C472.401 323.446 474.199 319.519 475.874 316.867C486.764 299.624 497.061 281.09 509.521 264.965Z" fill="#FFDCA0"/>
<path d="M509.451 277.739C510.795 281.614 511.51 286.064 512.418 289.17C515.576 300.025 518.334 311.247 522.54 321.753C523.761 324.766 524.96 327.89 526.135 331.124L492.278 331.718C492.709 326.575 493.901 322.061 495.856 318.175C497.758 314.423 497.566 310.968 498.491 308.088C501.737 297.943 505.39 287.826 509.451 277.739Z" fill="#FE9C1C"/>
<path d="M419.784 329.432L439.085 343.725C439.376 343.942 439.609 344.228 439.762 344.557C439.914 344.886 439.982 345.248 439.96 345.61C439.937 345.972 439.825 346.323 439.633 346.631C439.44 346.939 439.174 347.194 438.859 347.373L422.506 356.657C422.254 356.801 421.975 356.894 421.686 356.929C421.398 356.964 421.105 356.941 420.825 356.861C420.546 356.782 420.285 356.647 420.058 356.465C419.831 356.283 419.643 356.057 419.504 355.802L414.269 346.151C414.034 345.726 413.948 345.234 414.025 344.755L416.346 330.828C416.408 330.462 416.563 330.117 416.796 329.827C417.028 329.537 417.331 329.312 417.676 329.172C418.02 329.032 418.395 328.983 418.764 329.028C419.133 329.074 419.484 329.213 419.784 329.432Z" fill="#FEBF25"/>
<path d="M611.735 346.762L607.215 356.064C606.715 357.087 605.964 357.32 604.964 356.762L585.872 346.256C585.775 346.2 585.693 346.122 585.633 346.028C585.573 345.934 585.536 345.827 585.526 345.716C585.516 345.604 585.532 345.493 585.574 345.389C585.616 345.286 585.682 345.194 585.767 345.121L604.911 329.258C605.165 329.047 605.467 328.904 605.79 328.842C606.113 328.779 606.447 328.799 606.76 328.9C607.074 329.001 607.357 329.18 607.582 329.419C607.808 329.659 607.97 329.951 608.053 330.27L611.892 345.086C612.043 345.668 611.991 346.227 611.735 346.762Z" fill="#FFA815"/>
<path d="M476.903 334.51C475.448 335.301 473.971 335.68 472.47 335.645C473.04 334.458 474.517 334.08 476.903 334.51Z" fill="#FE9C1C"/>
<path d="M391.232 353.673L401.93 366.605C402.385 367.155 402.605 367.863 402.543 368.575C402.481 369.287 402.142 369.945 401.599 370.409L394.897 376.133C394.603 376.385 394.259 376.571 393.888 376.68C393.516 376.788 393.126 376.816 392.742 376.761C392.359 376.707 391.992 376.571 391.666 376.364C391.339 376.156 391.06 375.881 390.848 375.557L382.332 362.591C382.019 362.113 381.865 361.55 381.89 360.98C381.915 360.41 382.118 359.863 382.471 359.414L387.009 353.708C387.262 353.392 387.582 353.136 387.945 352.96C388.309 352.783 388.708 352.689 389.112 352.686C389.517 352.683 389.917 352.77 390.284 352.94C390.65 353.111 390.974 353.361 391.232 353.673Z" fill="#FEBF25"/>
<path d="M626.012 366.639C630.968 360.723 634.336 345.54 644.004 359.71C644.318 360.176 644.429 360.682 644.336 361.229C643.027 368.646 638.385 371.735 636.046 376.97C635.278 378.681 634.22 378.884 632.87 377.581L626.238 371.106C624.784 369.675 624.709 368.186 626.012 366.639Z" fill="#FEBF25"/>
<path d="M522.836 360.74C522.766 361.229 522.33 361.642 521.527 361.979C472.976 371.054 430.463 389.012 396.572 425.626L375.682 448.086C374.588 449.261 374.338 449.099 374.932 447.598C379.714 435.509 386.014 424.806 393.832 415.486C423.709 379.867 472.435 357.913 519.031 360.059C520.404 360.129 521.672 360.356 522.836 360.74Z" fill="#FFFEFE"/>
<path d="M522.836 360.74L524.058 360.915C524.93 361.043 525.041 361.398 524.389 361.979L523.691 362.59C522.702 361.904 521.981 361.7 521.527 361.979C522.33 361.642 522.766 361.229 522.836 360.74Z" fill="#ADB3A1"/>
<path d="M521.528 361.979C521.982 361.7 522.704 361.903 523.692 362.59C522.366 364.876 520.97 367.092 518.945 368.942C511.179 376.045 503.78 384.16 495.647 390.094C467.044 410.949 436.451 419.622 402.524 427.598C399.558 428.296 397.574 427.639 396.573 425.626C430.465 389.012 472.977 371.054 521.528 361.979Z" fill="#153E48"/>
<path d="M352.507 373.044C355.928 371.77 361.547 369.85 365.212 370.967C365.481 371.047 365.726 371.194 365.927 371.395C366.128 371.596 366.278 371.844 366.364 372.119C368.86 379.989 372.21 384.806 376.538 391.577C376.876 392.113 376.829 392.607 376.399 393.061L371.582 398.122C371.433 398.279 371.23 398.375 371.014 398.391C370.798 398.407 370.584 398.342 370.413 398.209C366.748 395.382 363.298 392.287 360.064 388.925C358.598 387.407 358.615 385.679 357.149 384.265C354.799 381.973 352.81 379.786 351.181 377.703C350.891 377.331 350.693 376.895 350.603 376.432C350.512 375.969 350.533 375.491 350.662 375.037C350.791 374.583 351.026 374.166 351.346 373.82C351.667 373.473 352.065 373.207 352.507 373.044Z" fill="#FEBF25"/>
<path d="M659.17 374.946C660.38 372.235 662.462 371.031 665.417 371.333L671.455 371.927C674.643 372.252 675.545 373.858 674.161 376.743C669.949 385.492 663.957 392.758 656.185 398.541C655.832 398.803 655.393 398.925 654.955 398.883C654.516 398.841 654.109 398.638 653.812 398.314L649.536 393.671C649.21 393.318 649.022 392.859 649.006 392.379C648.99 391.898 649.147 391.428 649.449 391.054C653.37 386.074 656.61 380.705 659.17 374.946Z" fill="#FEBF25"/>
<path d="M663.097 539.866L662.329 539.814C661.899 539.79 661.684 539.563 661.684 539.133V538.365C661.684 537.935 661.474 537.76 661.055 537.841C656.972 538.54 653.615 538.458 650.986 537.597C646.111 536.003 641.492 536.178 637.129 538.121C633.988 533.269 626.605 525.311 619.852 527.109C618.886 526.515 617.961 526.259 617.077 526.341C618.054 526.411 618.618 526.195 618.77 525.695C622.487 513.601 624.18 499.552 621.998 486.708C620.794 479.64 620.724 472.572 619.852 465.451C619.817 465.126 619.712 464.84 619.537 464.596C619.328 464.305 619.107 464.032 618.874 463.776C618.484 463.363 618.197 462.867 618.037 462.327C616.699 457.662 615.256 453.026 613.709 448.418C613.453 447.639 613.144 446.999 612.784 446.499C612.547 446.163 612.342 445.851 612.183 445.583C612.023 445.316 611.913 445.098 611.859 444.945C606.32 429.064 598.153 414.684 587.356 401.805C586.926 401.293 586.728 400.699 586.763 400.024C586.856 398.163 586.554 397.029 585.855 396.621L594.913 386.953C595.353 386.478 595.953 386.184 596.598 386.126C597.242 386.068 597.886 386.251 598.403 386.639C616.239 400.059 631.823 418.105 643.359 436.761C662.294 467.406 668.385 504.351 663.097 539.866Z" fill="#DCBA8D"/>
<path d="M343.274 423.008C343.088 420.17 342.431 417.313 341.302 414.44C339.976 411.089 336.677 408.576 335.141 404.702C334.92 404.155 334.566 403.724 334.077 403.41C330.61 401.211 328.952 398.035 329.103 393.881L340.22 393.777C340.489 393.77 340.752 393.854 340.97 394.015C341.188 394.176 341.347 394.405 341.424 394.667C343.937 403.218 350.918 408.942 358.248 415.103C358.632 415.44 358.69 415.824 358.422 416.255L354.321 422.712C353.984 423.259 353.495 423.573 352.855 423.654C349.423 424.143 346.229 423.928 343.274 423.008Z" fill="#FFA815"/>
<path d="M700.304 396.988C695.173 394.731 690.629 394.824 686.674 397.267C686.138 397.616 685.929 398.105 686.045 398.733C686.552 401.403 686.988 402.886 685.696 405.469C682.671 411.543 679.21 417.36 675.313 422.921C671.037 425.242 668.629 418.89 665.924 416.464C665.706 416.265 665.539 416.016 665.44 415.738C665.34 415.46 665.309 415.162 665.35 414.87C665.392 414.578 665.503 414.3 665.676 414.061C665.849 413.821 666.078 413.628 666.342 413.497C673.637 409.832 679.321 404.347 683.393 397.04C685.33 393.585 696.325 393.462 699.902 393.724C700.624 393.782 700.757 394.87 700.304 396.988Z" fill="#FE9C1C"/>
<path d="M329.104 393.881C328.953 398.035 330.611 401.211 334.078 403.41C334.567 403.724 334.921 404.154 335.142 404.701C336.678 408.576 339.977 411.089 341.303 414.439C342.432 417.313 343.089 420.169 343.275 423.008C340.576 423.939 338.4 423.299 336.748 421.088C330.686 412.933 326.8 404.41 325.09 395.522C324.962 394.858 325.201 394.387 325.806 394.108C326.678 393.701 327.778 393.625 329.104 393.881Z" fill="#FFDCA0"/>
<path d="M700.304 396.987C697.826 405.713 694.289 413.374 689.693 419.971C687.093 423.688 679.519 423.217 675.313 422.921C679.211 417.359 682.672 411.542 685.697 405.469C686.988 402.886 686.552 401.402 686.046 398.732C685.929 398.104 686.139 397.615 686.674 397.266C690.63 394.823 695.173 394.73 700.304 396.987Z" fill="#FE6811"/>
<path d="M585.854 396.621C586.553 397.028 586.855 398.163 586.762 400.024C586.727 400.699 586.925 401.292 587.355 401.804C598.152 414.684 606.319 429.064 611.857 444.945C611.912 445.098 612.022 445.315 612.182 445.583C612.341 445.851 612.546 446.163 612.782 446.498C613.143 446.999 613.451 447.639 613.707 448.418C615.255 453.025 616.698 457.662 618.035 462.327C618.196 462.867 618.483 463.363 618.873 463.776C619.106 464.032 619.327 464.305 619.536 464.596C619.711 464.84 619.816 465.125 619.851 465.451C620.723 472.571 620.793 479.639 621.997 486.707C624.179 499.552 622.486 513.601 618.769 525.695C618.617 526.195 618.053 526.41 617.076 526.34C597.146 527.475 587.443 548.4 601.736 563.443C592.474 575.182 581.038 584.304 567.425 590.807C552.312 598.032 536.704 602.774 520.602 605.031C530.98 601.959 539.479 596.968 546.099 590.057C559.153 576.392 546.012 559.534 529.659 571.226C521.649 576.951 511.126 577.544 501.876 574.926C494.023 572.71 484.442 560.389 476.379 571.035C471.423 577.596 475.733 587.806 481.021 592.71C487.653 598.853 496.274 602.983 506.885 605.1C498.985 605.042 489.142 605.618 477.356 606.828C451.65 609.481 422.977 607.84 399.661 593.094C394.495 589.83 388.649 584.403 383.047 580.493C381.092 579.132 380.417 579.603 381.022 581.907C382.436 587.335 384.199 592.134 385.856 598.294C387.032 602.622 388.73 607.09 390.952 611.697C376.118 592.931 366.247 571.36 361.337 546.986C356.154 521.227 358.527 495.084 365.665 470.285C365.828 469.715 366.2 469.511 366.782 469.674C371.284 470.977 375.857 471.879 380.499 472.379C408.91 475.416 437.88 473.968 465.594 466.777C503.761 456.847 543.115 437.441 571.98 409.972C576.413 405.76 581.038 401.31 585.854 396.621Z" fill="#FFFEFE"/>
<path d="M344.461 443.566C342.483 448.162 341.058 453.008 340.185 458.104C340.119 458.494 339.953 458.861 339.704 459.169C339.454 459.477 339.13 459.715 338.761 459.86C338.393 460.006 337.993 460.054 337.6 460C337.208 459.946 336.836 459.792 336.521 459.552L321.128 447.912C320.879 447.722 320.675 447.479 320.532 447.2C320.389 446.921 320.311 446.614 320.303 446.301C320.294 445.988 320.356 445.677 320.484 445.391C320.612 445.105 320.802 444.851 321.041 444.648L325.578 440.791C326.055 440.384 326.614 440.181 327.254 440.181L344.548 440.425C345.2 440.437 345.433 440.751 345.247 441.367C345.014 442.159 344.752 442.892 344.461 443.566Z" fill="#FEE85B"/>
<path d="M686.081 459.413L680.566 441.961C680.391 441.414 680.589 441.077 681.159 440.949C688.454 439.401 695.295 440.373 701.683 443.863C702.133 444.109 702.476 444.512 702.647 444.995C702.818 445.478 702.803 446.007 702.607 446.481C701.235 449.762 699.123 452.461 696.272 454.579C694.108 456.184 689.798 457.022 688 459.692C687.163 460.925 686.523 460.832 686.081 459.413Z" fill="#FE9C1C"/>
<path d="M332.926 481.664C316.242 486.213 299.657 490.82 283.171 495.486C274.957 497.801 266.894 498.778 258.983 498.418C258.331 498.394 257.854 498.022 257.552 497.301C258.669 495.916 259.611 494.985 260.379 494.508C278.127 483.444 296.365 475.573 315.492 467.423C315.969 467.215 316.496 467.151 317.007 467.238C317.519 467.325 317.993 467.559 318.371 467.912C321.71 471.03 325.521 473.409 329.802 475.05C332.856 476.236 335.474 478.365 332.926 481.664Z" fill="#FFDCA0"/>
<path d="M763.514 495.59L750.268 498.906C749.228 499.169 748.137 499.145 747.109 498.836L693.445 482.85L692.503 479.465C692.421 479.173 692.429 478.864 692.526 478.58C692.622 478.296 692.803 478.05 693.044 477.877L706.185 468.243C706.596 467.939 707.078 467.745 707.586 467.681C708.093 467.617 708.608 467.684 709.082 467.877C726.953 474.997 743.945 483.327 760.059 492.868C761.408 493.659 762.56 494.566 763.514 495.59Z" fill="#FFA815"/>
<path d="M332.925 481.664C329.522 498.889 327.794 517.754 331.808 534.857C331.936 535.404 331.733 535.776 331.198 535.974L324.775 538.312C324.298 538.487 323.81 538.504 323.309 538.365C320.878 537.713 319.01 537.096 317.707 536.515C296.265 526.986 275.939 515.427 256.731 501.838C256.262 501.507 255.903 501.044 255.7 500.509C255.498 499.974 255.462 499.391 255.596 498.836C255.678 498.464 256.329 497.952 257.551 497.3C257.853 498.022 258.33 498.394 258.982 498.417C266.893 498.778 274.956 497.801 283.17 495.485C299.656 490.82 316.241 486.213 332.925 481.664Z" fill="#FFA815"/>
<path d="M693.445 482.851L747.109 498.837C748.136 499.145 749.228 499.169 750.268 498.907L763.514 495.591L768.697 498.54C768.865 498.635 769.005 498.77 769.105 498.935C769.205 499.1 769.262 499.288 769.269 499.481C769.276 499.675 769.233 499.868 769.145 500.042C769.058 500.217 768.927 500.366 768.767 500.477C756.12 509.04 743.555 517.051 731.071 524.509C723.846 528.802 715.975 532.17 708.262 535.782C703.323 538.086 699.675 537.824 694.806 536.219C694.575 536.143 694.363 536.016 694.188 535.848C694.012 535.68 693.876 535.474 693.791 535.246C693.705 535.018 693.672 534.774 693.694 534.531C693.716 534.289 693.791 534.054 693.916 533.845C694.451 532.926 694.771 531.792 694.876 530.442C695.911 516.353 696.016 506.463 695.19 500.774C694.341 494.91 693.759 488.936 693.445 482.851Z" fill="#FE6811"/>
<path d="M617.076 526.341C617.961 526.259 618.885 526.515 619.851 527.109C616.727 541.28 612.713 553.828 602.713 563.967C602.329 563.502 602.004 563.327 601.736 563.443C587.443 548.4 597.146 527.475 617.076 526.341Z" fill="#FF4951"/>
<path d="M619.851 527.109C626.605 525.311 633.987 533.269 637.129 538.121C640.532 546.445 639.327 554.403 633.254 560.773C631.87 562.216 630.735 563.478 629.851 564.56C621.527 570.058 610.567 569.063 602.713 563.967C612.713 553.827 616.727 541.28 619.851 527.109Z" fill="#BB082A"/>
<path d="M663.097 539.866C660.549 558.562 655.883 574.275 649.1 587.003C629.083 624.577 594.581 654.943 552.4 664.821C544.069 666.775 536.926 668.096 530.969 668.782C490.62 673.39 448.3 664.524 417.096 637.491L421.598 638.067C421.657 638.346 421.68 638.602 421.668 638.835C421.645 639.242 421.808 639.562 422.157 639.795C428.788 644.216 435.496 648.521 442.279 652.709C442.407 652.791 442.535 652.831 442.663 652.831C442.837 652.831 442.988 652.802 443.116 652.744C443.477 652.581 443.849 652.546 444.233 652.639C446.863 653.233 449.283 654.303 451.493 655.851C451.622 655.937 451.766 655.998 451.917 656.029C452.069 656.06 452.225 656.061 452.376 656.032C452.527 656.003 452.67 655.944 452.797 655.859C452.924 655.774 453.033 655.664 453.116 655.536L453.361 655.152C453.47 654.981 453.542 654.789 453.572 654.588C453.603 654.387 453.59 654.182 453.536 653.986C453.481 653.79 453.386 653.608 453.257 653.451C453.128 653.294 452.967 653.166 452.785 653.076L448.457 650.964C447.84 650.673 447.421 650.848 447.2 651.488C447.13 651.697 447.032 651.872 446.904 652.011C446.818 652.102 446.71 652.17 446.591 652.209C446.472 652.248 446.345 652.257 446.222 652.235C446.099 652.212 445.984 652.159 445.886 652.08C445.789 652.002 445.712 651.9 445.664 651.784C445.222 650.784 445.257 649.742 445.769 648.66C446.107 647.951 446.601 647.811 447.252 648.242L449.888 649.952C450.171 650.144 450.509 650.236 450.848 650.214C454.501 650.062 457.997 650.615 461.336 651.871C461.871 652.069 462.418 652.127 462.977 652.046C467.392 651.383 471.127 653.303 475.437 653.582C476.077 653.617 476.531 653.925 476.799 654.507C477.345 655.682 478.09 656.706 479.032 657.578C479.404 657.916 479.736 657.875 480.027 657.456L480.55 656.706C480.876 656.217 480.754 655.914 480.184 655.798C479.474 655.647 478.968 655.286 478.666 654.716C478.235 653.89 478.486 653.477 479.416 653.477H480.481C480.748 653.477 480.917 653.605 480.987 653.861L481.161 654.507C481.289 654.949 481.476 654.972 481.72 654.577L482.278 653.686C482.569 653.221 482.924 653.175 483.343 653.547C484.576 654.652 485.437 656.002 485.926 657.596C485.95 657.698 486.009 657.789 486.093 657.853C486.177 657.916 486.28 657.949 486.385 657.945C486.49 657.941 486.591 657.9 486.669 657.83C486.748 657.76 486.8 657.665 486.816 657.561C486.851 657.386 486.891 657.218 486.938 657.055C486.973 656.927 486.932 656.828 486.816 656.758C485.687 656.037 485.309 655.054 485.681 653.809C485.728 653.654 485.819 653.516 485.943 653.411C486.066 653.307 486.218 653.24 486.378 653.22C486.539 653.199 486.702 653.226 486.848 653.297C486.994 653.367 487.116 653.478 487.2 653.617L489.486 657.334C489.753 657.764 490.015 657.764 490.271 657.334L492.173 654.001C492.441 653.535 492.843 653.361 493.378 653.477C494.332 653.687 495.222 653.337 496.048 652.43C504.233 651.784 513.255 651.941 520.568 651.016C538.101 648.817 554.837 643.82 570.776 636.025C593.115 625.1 609.223 606.793 622.102 585.764C624.243 582.262 626.826 575.194 629.851 564.56C630.735 563.478 631.869 562.216 633.254 560.773C639.327 554.403 640.531 546.445 637.128 538.121C641.491 536.178 646.11 536.003 650.985 537.597C653.614 538.458 656.971 538.539 661.055 537.841C661.474 537.76 661.683 537.934 661.683 538.365V539.133C661.683 539.563 661.898 539.79 662.329 539.813L663.097 539.866Z" fill="#BEB197"/>
<path d="M690.461 552.065C693.463 548.069 699.745 552.606 703.497 554.386C704.115 554.684 704.605 555.194 704.88 555.824C705.155 556.455 705.197 557.164 704.998 557.824C703.113 563.932 694.684 563.67 689.518 565.014C688.809 565.2 688.57 564.944 688.803 564.246C689.838 561.024 690.182 557.714 689.833 554.316C689.754 553.509 689.978 552.706 690.461 552.065Z" fill="#FE6811"/>
<path d="M336.713 565.415C336.806 565.764 336.672 565.933 336.312 565.921C329.529 565.723 323.793 563.239 319.104 558.469C318.65 558.015 318.615 557.533 318.999 557.021C322.083 552.797 326.236 550.546 331.46 550.267C331.787 550.251 332.109 550.346 332.372 550.537C332.636 550.727 332.825 551.002 332.908 551.314L336.713 565.415Z" fill="#FEBF25"/>
<path d="M601.736 563.444C602.004 563.328 602.329 563.502 602.713 563.968C610.567 569.064 621.527 570.058 629.851 564.561C626.826 575.195 624.243 582.263 622.102 585.765C609.223 606.794 593.115 625.101 570.777 636.026C554.837 643.821 538.101 648.818 520.568 651.017C513.255 651.942 504.233 651.785 496.048 652.431C490.719 652.349 485.391 652.181 480.062 651.925C471.022 651.488 461.476 649.22 452.052 648.016C444.769 647.073 434.618 643.757 421.599 638.068L417.096 637.492C407.323 629.569 398.609 620.971 390.953 611.698C388.731 607.091 387.032 602.623 385.857 598.295C384.199 592.135 382.437 587.336 381.023 581.908C380.418 579.604 381.093 579.133 383.047 580.494C388.649 584.404 394.496 589.831 399.662 593.095C422.977 607.841 451.651 609.482 477.357 606.829C489.143 605.619 498.986 605.043 506.886 605.102C511.493 604.089 516.065 604.066 520.603 605.032C536.705 602.775 552.313 598.034 567.426 590.809C581.038 584.305 592.475 575.183 601.736 563.444Z" fill="#FFDCA0"/>
<path d="M520.602 605.031C516.065 604.065 511.492 604.088 506.885 605.101C496.274 602.983 487.653 598.853 481.021 592.71C475.733 587.806 471.423 577.597 476.379 571.035C484.442 560.389 494.023 572.71 501.876 574.926C511.126 577.544 521.649 576.951 529.659 571.227C546.012 559.534 559.153 576.392 546.099 590.057C539.479 596.968 530.98 601.959 520.602 605.031Z" fill="black"/>
<path d="M341.738 585.171C336.991 591.966 333.199 599.761 330.36 608.557C330.15 609.185 329.429 609.365 328.196 609.098C327.207 608.993 326.491 608.807 326.049 608.539C325.441 608.159 324.988 607.576 324.771 606.895C324.553 606.214 324.586 605.479 324.862 604.822C328.091 597.004 331.616 584.91 338.527 579.971C338.615 579.907 338.717 579.865 338.824 579.846C338.931 579.828 339.04 579.834 339.145 579.864C339.249 579.895 339.345 579.948 339.425 580.021C339.506 580.094 339.569 580.184 339.609 580.285L341.738 585.171Z" fill="#FFDCA0"/>
<path d="M671.247 608.905C675.941 602.273 678.839 595.328 681.98 587.16C683.865 582.239 688.873 577.841 692.521 584.944C696.116 591.971 699.472 599.336 702.591 607.038C702.666 607.227 702.699 607.431 702.688 607.634C702.676 607.838 702.62 608.037 702.524 608.216C702.427 608.396 702.293 608.552 702.129 608.674C701.966 608.796 701.778 608.881 701.578 608.923C691.642 610.97 681.666 611.273 671.648 609.83C671.008 609.737 670.875 609.429 671.247 608.905Z" fill="#FE6811"/>
<path d="M341.738 585.17L354.077 608.329C354.798 609.667 354.397 610.295 352.873 610.214L341.564 609.638C339.214 608.521 335.997 608.486 331.913 609.533L328.196 609.097C329.429 609.364 330.15 609.184 330.36 608.556C333.199 599.76 336.992 591.965 341.738 585.17Z" fill="#FFA815"/>
<path d="M341.564 609.638L331.914 609.533C335.997 608.486 339.214 608.521 341.564 609.638Z" fill="#FE9C1C"/>
<path d="M697.668 644.035L713.689 673.564C713.9 673.952 713.994 674.391 713.962 674.831C713.93 675.271 713.772 675.693 713.508 676.046C713.243 676.399 712.883 676.668 712.469 676.822C712.056 676.976 711.607 677.008 711.176 676.915C685.208 671.26 660.06 663.442 634.475 656.182C634.371 656.153 634.277 656.097 634.203 656.019C634.129 655.941 634.076 655.844 634.051 655.738C634.027 655.631 634.03 655.52 634.062 655.414C634.093 655.308 634.152 655.212 634.231 655.135L654.981 635.362C655.388 634.966 655.848 634.885 656.36 635.118C668.855 640.551 681.933 643.122 695.591 642.831C696.522 642.808 697.214 643.209 697.668 644.035Z" fill="#FE6811"/>
<path d="M373.867 639.376C370.714 640.365 368.556 641.697 367.393 643.373C363.745 643.373 360.342 640.738 356.45 642.43C355.88 642.675 355.281 642.762 354.653 642.692C350.976 642.308 347.3 642.454 343.623 643.128C343.17 643.222 342.727 643.192 342.297 643.041C337.847 641.558 335.421 648.137 334.444 651.278C334.264 651.84 333.877 652.313 333.362 652.605C332.361 653.175 331.808 654.047 331.704 655.223C331.669 655.595 331.465 655.833 331.093 655.938C330.779 656.02 330.534 656.229 330.36 656.566C328.975 659.289 327.16 661.668 324.915 663.704C324.529 664.044 324.255 664.501 324.13 665.013C322.716 670.807 316.887 670.249 314.391 675.624C314.124 676.194 313.67 676.444 313.03 676.374L311.163 676.147C311.116 673.227 312.303 670.662 314.723 668.451L328.37 641.82C328.496 641.573 328.688 641.366 328.925 641.222C329.162 641.077 329.435 641 329.714 640.999L340.726 641.104C347.707 640.639 354.635 639.807 361.511 638.608C366.136 637.806 369.644 633.059 373.867 639.376Z" fill="#FFDCA0"/>
<path d="M421.599 638.067C434.618 643.756 444.769 647.072 452.052 648.014C461.476 649.219 471.022 651.487 480.062 651.924C485.391 652.18 490.719 652.348 496.048 652.43C495.222 653.337 494.332 653.686 493.378 653.477C492.843 653.36 492.441 653.535 492.174 654L490.271 657.334C490.016 657.764 489.754 657.764 489.486 657.334L487.2 653.616C487.116 653.478 486.994 653.367 486.848 653.296C486.702 653.226 486.539 653.199 486.378 653.22C486.218 653.24 486.067 653.306 485.943 653.411C485.819 653.515 485.728 653.653 485.682 653.808C485.309 655.053 485.688 656.036 486.816 656.758C486.932 656.828 486.973 656.926 486.938 657.054C486.892 657.217 486.851 657.386 486.816 657.561C486.8 657.665 486.748 657.76 486.669 657.83C486.591 657.9 486.491 657.941 486.385 657.945C486.28 657.949 486.177 657.916 486.093 657.853C486.009 657.789 485.95 657.698 485.926 657.595C485.437 656.001 484.576 654.652 483.343 653.547C482.924 653.174 482.569 653.221 482.278 653.686L481.72 654.576C481.476 654.972 481.29 654.949 481.162 654.506L480.987 653.861C480.917 653.605 480.749 653.477 480.481 653.477H479.417C478.486 653.477 478.236 653.89 478.666 654.716C478.968 655.286 479.475 655.647 480.184 655.798C480.754 655.914 480.876 656.217 480.551 656.705L480.027 657.456C479.736 657.875 479.405 657.915 479.032 657.578C478.09 656.705 477.346 655.682 476.799 654.506C476.531 653.925 476.077 653.616 475.437 653.582C471.127 653.302 467.392 651.383 462.977 652.046C462.418 652.127 461.871 652.069 461.336 651.871C457.997 650.615 454.501 650.062 450.848 650.213C450.509 650.236 450.171 650.144 449.888 649.952L447.253 648.241C446.601 647.811 446.107 647.95 445.769 648.66C445.257 649.742 445.222 650.783 445.665 651.784C445.713 651.9 445.789 652.001 445.886 652.08C445.984 652.159 446.099 652.212 446.222 652.234C446.346 652.257 446.472 652.248 446.591 652.209C446.71 652.17 446.818 652.102 446.904 652.011C447.032 651.871 447.131 651.697 447.2 651.487C447.421 650.847 447.84 650.673 448.457 650.964L452.785 653.075C452.967 653.166 453.128 653.294 453.257 653.451C453.387 653.607 453.482 653.79 453.536 653.985C453.59 654.181 453.603 654.386 453.573 654.587C453.542 654.788 453.47 654.981 453.361 655.152L453.117 655.536C453.033 655.664 452.925 655.774 452.797 655.859C452.67 655.944 452.527 656.003 452.376 656.032C452.225 656.061 452.069 656.06 451.918 656.029C451.766 655.998 451.622 655.937 451.494 655.85C449.283 654.303 446.863 653.232 444.234 652.639C443.85 652.546 443.477 652.581 443.117 652.744C442.989 652.802 442.837 652.831 442.663 652.831C442.535 652.831 442.407 652.79 442.279 652.709C435.496 648.521 428.789 644.216 422.157 639.795C421.808 639.562 421.645 639.242 421.668 638.835C421.68 638.602 421.657 638.346 421.599 638.067Z" fill="#DCBA8D"/>
<path d="M373.867 639.376L388.597 654.176C388.992 654.56 388.94 654.874 388.44 655.118C383.92 657.369 379.748 659.865 375.036 661.436C362.89 665.484 350.645 669.213 338.3 672.622C335.95 673.274 332.826 673.57 328.929 673.512L367.393 643.373C368.556 641.698 370.714 640.365 373.867 639.376Z" fill="#FE9C1C"/>
<path d="M340.726 641.104L329.714 641C329.435 641 329.161 641.077 328.924 641.222C328.687 641.367 328.495 641.573 328.37 641.82L314.723 668.451C314.129 667.183 314.304 665.845 315.246 664.437C317.306 661.348 318.283 657.422 319.819 654.577C322.076 650.377 324.269 646.13 326.398 641.837C326.666 641.279 327.114 641.005 327.742 641.017L340.726 641.104Z" fill="#DCBA8D"/>
<path d="M367.393 643.372L328.929 673.511L313.868 676.914C313.286 677.042 312.74 676.967 312.228 676.687L311.163 676.146L313.03 676.373C313.67 676.443 314.124 676.193 314.392 675.623C316.887 670.248 322.716 670.806 324.13 665.012C324.255 664.5 324.529 664.044 324.915 663.703C327.161 661.667 328.976 659.288 330.36 656.566C330.535 656.228 330.779 656.019 331.093 655.937C331.465 655.833 331.669 655.594 331.704 655.222C331.809 654.047 332.361 653.174 333.362 652.604C333.878 652.313 334.264 651.839 334.444 651.278C335.421 648.136 337.847 641.557 342.297 643.04C342.728 643.192 343.17 643.221 343.623 643.128C347.3 642.453 350.976 642.307 354.653 642.691C355.281 642.761 355.88 642.674 356.45 642.43C360.342 640.737 363.745 643.372 367.393 643.372Z" fill="#FFA815"/>
<path d="M415.456 698.747L411.494 674.943C411.459 674.753 411.479 674.557 411.553 674.379C411.626 674.201 411.75 674.048 411.909 673.939C412.068 673.83 412.255 673.769 412.448 673.764C412.641 673.76 412.831 673.811 412.995 673.913L434.827 687.176C434.971 687.267 435.088 687.393 435.17 687.542C435.251 687.691 435.293 687.858 435.291 688.028C435.289 688.197 435.244 688.364 435.16 688.511C435.075 688.658 434.955 688.781 434.81 688.869L416.957 699.445C416.817 699.53 416.658 699.579 416.494 699.589C416.331 699.598 416.168 699.566 416.019 699.497C415.871 699.428 415.742 699.324 415.643 699.193C415.545 699.062 415.481 698.909 415.456 698.747Z" fill="#FF4951"/>
<path d="M591.091 688.416C592.975 688.16 594.197 687.351 594.756 685.99C594.977 685.431 594.808 685.263 594.249 685.484C592.76 686.065 591.707 687.043 591.091 688.416C590.288 688.16 589.805 687.88 589.642 687.578C589.569 687.44 589.523 687.29 589.508 687.135C589.493 686.98 589.508 686.823 589.554 686.674C589.599 686.525 589.674 686.386 589.773 686.266C589.872 686.145 589.993 686.046 590.131 685.972L601.631 679.672C602.213 679.358 602.585 679.515 602.748 680.143C602.818 680.411 602.766 680.708 602.591 681.034C600.753 681.15 599.659 681.627 599.31 682.465C599.008 683.198 599.246 683.5 600.026 683.372C601.387 683.151 602.242 682.371 602.591 681.034L603.272 680.772C603.702 680.609 603.947 680.301 604.005 679.847C604.179 678.613 604.872 677.863 606.082 677.596C606.629 677.468 607.1 677.2 607.495 676.793C608.67 675.583 610.142 674.85 611.911 674.594C612.969 674.431 613.406 674.885 613.219 675.955L609.345 696.758C609.282 697.105 609.133 697.432 608.913 697.708C608.693 697.985 608.408 698.203 608.083 698.342C607.758 698.482 607.404 698.54 607.052 698.51C606.7 698.48 606.361 698.364 606.064 698.171L591.091 688.416Z" fill="#E60436"/>
<path d="M602.59 681.034C602.241 682.372 601.386 683.152 600.025 683.373C599.246 683.501 599.007 683.198 599.309 682.465C599.658 681.628 600.752 681.151 602.59 681.034Z" fill="#551325"/>
<path d="M591.091 688.416C591.707 687.043 592.76 686.065 594.249 685.484C594.808 685.263 594.977 685.431 594.756 685.99C594.197 687.351 592.976 688.16 591.091 688.416Z" fill="#551325"/>
<path d="M492.82 700.387L509.521 758.449C511.022 762.172 511.04 764.755 509.574 766.198C507.119 763.382 503.995 759.066 500.202 753.249C488.405 735.099 477.614 716.309 467.829 696.879C467.771 696.768 467.745 696.643 467.754 696.518C467.764 696.394 467.809 696.274 467.884 696.174C467.959 696.073 468.06 695.996 468.177 695.951C468.294 695.906 468.421 695.895 468.544 695.919L492.82 700.387Z" fill="#FFDCA0"/>
<path d="M509.573 766.199C511.039 764.756 511.022 762.174 509.521 758.45C512.627 741.953 517.118 725.653 522.994 709.55C524.227 706.165 524.413 703.239 523.552 700.772C534.582 700.272 545.53 698.643 556.397 695.886C556.493 695.865 556.594 695.872 556.687 695.906C556.78 695.94 556.861 696 556.922 696.079C556.982 696.157 557.019 696.251 557.028 696.35C557.037 696.449 557.018 696.548 556.972 696.636C545.954 717.357 534.471 737.217 522.523 756.217C519.323 761.313 516.205 765.443 513.168 768.607C512.726 769.061 512.226 769.131 511.668 768.817C510.795 768.328 510.097 767.456 509.573 766.199Z" fill="#FE6811"/>
<path d="M492.818 700.387L523.551 700.771C524.412 703.238 524.226 706.164 522.993 709.549C517.117 725.652 512.626 741.952 509.52 758.449L492.818 700.387Z" fill="#FE9C1C"/>
<path d="M605.61 504.421C590.253 499.936 578.141 505.433 567.495 516.253C564.901 518.883 562.557 520.471 560.462 521.018C548.804 524.072 539.939 515.101 546.867 503.862C558.804 484.491 584.092 473.81 606.518 477.981C614.127 479.395 624.161 487.545 620.147 496.707C619.919 497.222 619.565 497.672 619.118 498.016C617.53 499.22 617.285 500.773 615.854 501.873C612.364 504.537 608.949 505.387 605.61 504.421Z" fill="black"/>
<path d="M447.828 509.483C444.757 506.9 438.125 504.055 434.251 503.043C424.286 500.425 414.932 509.448 405.333 501.245C396.956 494.09 403.693 482.607 411.756 479.343C417.864 476.865 429.766 478.209 436.781 478.174C439.492 478.162 444.809 479.64 452.732 482.607C461.371 485.853 480.725 500.861 478.753 512.257C478.218 515.399 476.525 517.778 473.675 519.395C462.331 525.835 455.385 515.818 447.828 509.483Z" fill="black"/>
<path d="M428.111 546.431C428.402 551.792 426.446 557.055 422.674 561.061C418.902 565.068 413.623 567.489 407.998 567.794C405.213 567.945 402.427 567.571 399.799 566.695C397.171 565.818 394.753 564.456 392.682 562.685C390.611 560.915 388.928 558.771 387.729 556.376C386.531 553.982 385.84 551.383 385.696 548.728C385.405 543.367 387.361 538.104 391.133 534.098C394.905 530.092 400.184 527.67 405.809 527.365C408.594 527.214 411.38 527.588 414.008 528.464C416.636 529.341 419.055 530.703 421.126 532.474C423.197 534.244 424.879 536.388 426.078 538.783C427.277 541.178 427.968 543.776 428.111 546.431Z" fill="#FF4951"/>
<path d="M341.687 442.694C341.245 445.324 340.186 447.563 338.511 449.413C338.115 449.855 337.958 450.367 338.04 450.949L338.406 453.602C338.86 456.836 337.883 457.348 335.474 455.137L328.214 448.471C327.819 448.104 327.528 447.637 327.374 447.12C327.22 446.602 327.207 446.053 327.337 445.529C327.467 445.005 327.735 444.526 328.114 444.141C328.492 443.756 328.967 443.479 329.488 443.34C333.782 442.223 335.788 444.422 340.134 441.647C340.302 441.544 340.497 441.492 340.694 441.496C340.891 441.5 341.083 441.561 341.247 441.672C341.411 441.782 341.539 441.937 341.617 442.118C341.695 442.299 341.72 442.499 341.687 442.694Z" fill="#FEBF25"/>
<path d="M461.494 655.257C462.238 655.408 462.704 655.839 462.89 656.548C462.994 656.921 463.117 657.171 463.256 657.299C463.489 657.497 463.768 657.607 464.094 657.63C464.769 657.7 464.937 657.846 464.6 658.067C464.437 658.171 464.292 658.27 464.164 658.363C464.024 658.456 463.884 658.468 463.745 658.398C462.128 657.549 460.924 656.258 460.132 654.524C460.1 654.456 460.089 654.379 460.102 654.304C460.115 654.229 460.15 654.16 460.204 654.107C460.258 654.053 460.326 654.018 460.401 654.005C460.476 653.992 460.553 654.003 460.621 654.035C461.005 654.198 461.174 654.425 461.127 654.716C461.107 654.833 461.133 654.954 461.201 655.055C461.269 655.155 461.374 655.227 461.494 655.257Z" fill="#DCBA8D"/>
<path d="M606.518 681.279L608.7 681.383C608.862 681.39 609.017 681.447 609.146 681.546C609.274 681.645 609.368 681.781 609.416 681.936C609.464 682.091 609.463 682.257 609.413 682.411C609.362 682.565 609.266 682.7 609.136 682.797C608.287 683.425 607.263 683.547 606.064 683.163C605.332 682.919 605.285 682.378 605.925 681.54C605.996 681.454 606.086 681.386 606.189 681.34C606.292 681.295 606.405 681.274 606.518 681.279Z" fill="#FF4951"/>
<path d="M606.012 687.84C605.21 688.992 604.07 689.103 602.592 688.172C602.506 688.117 602.436 688.042 602.388 687.952C602.34 687.863 602.315 687.762 602.317 687.661C602.319 687.559 602.347 687.46 602.398 687.372C602.449 687.284 602.522 687.211 602.609 687.16L605.681 685.432C605.848 685.343 606.038 685.313 606.224 685.346C606.409 685.379 606.578 685.473 606.705 685.614C606.832 685.755 606.91 685.935 606.927 686.126C606.944 686.317 606.898 686.509 606.798 686.671C606.74 686.776 606.478 687.166 606.012 687.84Z" fill="#FF4951"/>
</svg>
