<svg width="1024" height="1024" viewBox="0 0 1024 1024" fill="none" xmlns="http://www.w3.org/2000/svg">
<rect width="1024" height="1024" fill="white"/>
<path d="M635.649 223.681C635.649 226.779 634.418 229.75 632.227 231.941C630.037 234.131 627.066 235.362 623.968 235.362C620.87 235.362 617.899 234.131 615.708 231.941C613.517 229.75 612.287 226.779 612.287 223.681C612.287 220.583 613.517 217.612 615.708 215.421C617.899 213.231 620.87 212 623.968 212C627.066 212 630.037 213.231 632.227 215.421C634.418 217.612 635.649 220.583 635.649 223.681Z" fill="#01020A"/>
<path d="M367.138 235.857C365.651 235.568 364.237 234.979 362.977 234.125C361.717 233.27 360.635 232.167 359.795 230.877C358.954 229.587 358.37 228.137 358.076 226.608C357.783 225.08 357.785 223.503 358.083 221.969C358.686 218.869 360.457 216.128 363.007 214.35C365.557 212.571 368.678 211.9 371.681 212.484C373.169 212.773 374.583 213.361 375.843 214.216C377.103 215.07 378.184 216.174 379.025 217.463C379.866 218.753 380.45 220.203 380.743 221.732C381.037 223.261 381.034 224.837 380.736 226.372C380.134 229.471 378.363 232.212 375.813 233.991C373.262 235.769 370.142 236.441 367.138 235.857Z" fill="#01020A"/>
<path d="M742.521 285.529C733.929 289.481 724.1 289.812 715.194 286.452C706.289 283.091 699.036 276.313 695.033 267.609C693.051 263.3 691.926 258.647 691.722 253.916C691.519 249.186 692.241 244.47 693.847 240.039C695.453 235.608 697.912 231.548 701.084 228.091C704.255 224.635 708.077 221.848 712.331 219.892C720.922 215.94 730.751 215.608 739.657 218.969C748.563 222.329 755.815 229.107 759.818 237.811C761.801 242.121 762.926 246.774 763.129 251.505C763.333 256.235 762.611 260.951 761.004 265.382C759.398 269.813 756.939 273.872 753.768 277.329C750.596 280.786 746.774 283.573 742.521 285.529Z" fill="#01020A"/>
<path d="M255.575 790.101C255.983 787.723 256.193 785.365 256.207 783.028C256.37 767.235 256.316 751.43 256.044 735.61C255.758 718.676 251.729 702.714 243.955 687.724C242.596 685.087 239.98 681.907 236.106 678.183C228.176 670.539 232.967 657.451 244.383 657.777C253.434 658.035 262.526 657.927 271.659 657.451C271.975 657.435 272.273 657.3 272.492 657.073C272.712 656.846 272.837 656.544 272.842 656.228C273.494 619.207 303.808 589.566 341.46 593.297C342.181 593.365 342.69 593.072 342.989 592.42C359.033 557.52 395.646 541.415 432.075 553.789C434.073 554.482 435.521 555.501 436.968 556.888C437.129 557.04 437.332 557.14 437.551 557.175C437.77 557.21 437.995 557.178 438.195 557.084C438.396 556.989 438.563 556.836 438.675 556.644C438.787 556.453 438.839 556.232 438.823 556.011C438.436 550.609 440.515 542.495 436.744 538.724C421.713 523.733 410.161 506.664 402.088 487.515C401.97 487.232 401.778 486.988 401.532 486.806C401.287 486.624 400.996 486.512 400.69 486.481C400.384 486.45 400.075 486.501 399.794 486.629C399.513 486.757 399.27 486.957 399.091 487.209C385.99 505.814 369.056 516.062 348.29 517.951C318.914 520.621 293.248 506.759 279.059 480.828C272.577 468.977 270.015 456.236 271.374 442.605C274.418 411.944 290.543 389.058 319.75 373.945C320.728 373.442 321.156 372.634 321.034 371.519C317.996 345.955 320.871 323.511 335.793 302.595C358.625 270.569 399.54 256.564 438.13 263.821C438.897 263.966 439.69 263.878 440.409 263.57C441.127 263.261 441.739 262.745 442.166 262.088C458.903 236.219 480.899 219.359 512.477 221.806C541.751 224.089 559.956 239.603 574.654 263.76C575.015 264.343 575.552 264.797 576.187 265.053C576.821 265.31 577.52 265.357 578.181 265.187C605.96 258.12 631.972 262.217 656.218 277.479C686.266 296.397 699.728 324.204 696.602 360.898C696.337 363.997 695.155 369.338 694.747 373.558C694.717 373.885 694.789 374.214 694.953 374.499C695.117 374.783 695.366 375.01 695.664 375.148C731.869 391.742 752.928 427.009 742.511 466.986C729.525 516.748 669.937 533.546 631.734 501.499C627.412 497.891 622.52 491.836 617.831 487.168C617.26 486.611 616.819 486.699 616.506 487.433C608.379 506.188 596.895 522.585 582.054 536.624C577.121 541.272 578.69 549.977 578.283 556.276C578.272 556.447 578.309 556.618 578.389 556.77C578.469 556.922 578.589 557.049 578.736 557.137C578.883 557.226 579.052 557.272 579.224 557.271C579.395 557.27 579.563 557.222 579.71 557.132C586.301 553.164 593.456 550.826 601.176 550.119C632.713 547.184 656.686 563.595 671.711 590.178C672.182 591.002 672.875 591.678 673.711 592.129C674.547 592.579 675.493 592.786 676.44 592.726C711.096 590.524 742.552 619.227 740.9 654.597C740.884 654.959 740.941 655.32 741.069 655.658C741.198 655.997 741.394 656.306 741.646 656.565C741.898 656.825 742.201 657.03 742.535 657.169C742.87 657.307 743.229 657.375 743.591 657.369C752.235 657.261 760.478 657.125 768.319 656.962C778.206 656.778 787.686 666.706 779.613 675.635C765.207 691.563 757.807 709.87 757.413 730.554C757.06 749.024 756.985 767.962 757.189 787.37C757.199 788.266 757.561 789.121 758.194 789.751C758.828 790.38 759.682 790.734 760.573 790.734C767.728 790.734 783.548 789.103 789.5 792.059C796.044 795.3 795.901 806.492 789.643 810.324C787.822 811.439 785.036 811.996 781.285 811.996C635.743 812.01 490.202 811.989 344.661 811.935C340.135 811.935 337.071 811.568 335.467 810.834C328.128 807.531 330.126 796.238 335.589 791.977C338.933 789.327 344.09 790.163 347.984 790.203C350.022 790.217 350.987 789.205 350.879 787.166L350.573 781.458C350.464 779.392 349.377 778.359 347.311 778.359L325.396 778.482C325.131 778.481 324.867 778.535 324.623 778.641C324.379 778.746 324.158 778.901 323.975 779.096C323.792 779.29 323.65 779.521 323.558 779.773C323.466 780.025 323.426 780.293 323.439 780.561C323.704 786.065 324.866 793.485 318.812 797.236C312.845 800.947 307.776 799.669 303.604 793.404C303.251 792.874 303.074 792.29 303.074 791.651V780.867C303.074 780.639 303.03 780.414 302.944 780.204C302.857 779.993 302.731 779.802 302.572 779.641C302.413 779.481 302.225 779.353 302.017 779.266C301.809 779.179 301.586 779.134 301.361 779.134L278.754 779.093C278.435 779.093 278.129 779.22 277.903 779.445C277.678 779.671 277.551 779.977 277.551 780.296L277.49 805.309C277.484 806.98 276.822 808.581 275.646 809.765C274.47 810.948 272.876 811.618 271.211 811.629L237.676 811.894C236.392 811.894 235.148 811.487 234.129 810.732C229.78 807.47 228.197 803.726 229.379 799.499C232.641 787.778 245.484 790.57 254.25 791.141C255.011 791.195 255.453 790.849 255.575 790.101Z" fill="#01020A"/>
<path d="M318.669 260.844C318.669 268.105 315.785 275.069 310.651 280.204C305.516 285.338 298.552 288.223 291.291 288.223C284.03 288.223 277.066 285.338 271.932 280.204C266.798 275.069 263.913 268.105 263.913 260.844C263.913 253.583 266.798 246.62 271.932 241.485C277.066 236.351 284.03 233.466 291.291 233.466C298.552 233.466 305.516 236.351 310.651 241.485C315.785 246.62 318.669 253.583 318.669 260.844Z" fill="#01020A"/>
<path d="M272.74 353.294C272.74 356.414 271.501 359.406 269.295 361.611C267.089 363.817 264.097 365.057 260.978 365.057C257.858 365.057 254.866 363.817 252.66 361.611C250.454 359.406 249.215 356.414 249.215 353.294C249.215 350.174 250.454 347.183 252.66 344.977C254.866 342.771 257.858 341.531 260.978 341.531C264.097 341.531 267.089 342.771 269.295 344.977C271.501 347.183 272.74 350.174 272.74 353.294Z" fill="#01020A"/>
<path d="M768.054 353.743C768.054 355.301 767.748 356.844 767.151 358.283C766.555 359.723 765.681 361.031 764.579 362.132C763.478 363.234 762.17 364.108 760.73 364.704C759.291 365.3 757.748 365.607 756.19 365.607C753.043 365.607 750.025 364.357 747.8 362.132C745.575 359.907 744.325 356.889 744.325 353.743C744.325 350.596 745.575 347.578 747.8 345.353C750.025 343.128 753.043 341.878 756.19 341.878C757.748 341.878 759.291 342.185 760.73 342.781C762.17 343.378 763.478 344.252 764.579 345.353C765.681 346.455 766.555 347.763 767.151 349.202C767.748 350.642 768.054 352.185 768.054 353.743Z" fill="#01020A"/>
<path d="M241.25 544.676C240.008 544.096 238.897 543.268 237.981 542.237C237.064 541.206 236.36 539.993 235.909 538.667C235.458 537.341 235.268 535.929 235.351 534.51C235.434 533.091 235.787 531.694 236.392 530.398C236.996 529.103 237.839 527.934 238.872 526.959C239.906 525.983 241.11 525.221 242.415 524.714C243.721 524.208 245.103 523.967 246.482 524.006C247.86 524.046 249.21 524.364 250.452 524.944C251.694 525.523 252.805 526.352 253.722 527.383C254.638 528.414 255.342 529.627 255.793 530.952C256.244 532.278 256.434 533.691 256.351 535.109C256.269 536.528 255.915 537.925 255.311 539.221C254.707 540.516 253.864 541.685 252.83 542.661C251.797 543.636 250.593 544.399 249.287 544.905C247.981 545.412 246.6 545.652 245.221 545.613C243.842 545.573 242.493 545.255 241.25 544.676Z" fill="#25597D"/>
<path d="M771.316 535.87C771.316 538.649 770.213 541.314 768.247 543.279C766.282 545.244 763.617 546.348 760.838 546.348C758.059 546.348 755.394 545.244 753.429 543.279C751.464 541.314 750.36 538.649 750.36 535.87C750.36 533.091 751.464 530.425 753.429 528.46C755.394 526.495 758.059 525.391 760.838 525.391C763.617 525.391 766.282 526.495 768.247 528.46C770.213 530.425 771.316 533.091 771.316 535.87Z" fill="#799ABC"/>
<path d="M719.201 554.48C719.72 555.906 719.943 557.424 719.856 558.948C719.77 560.472 719.376 561.971 718.697 563.361C718.018 564.75 717.068 566.002 715.9 567.045C714.732 568.089 713.369 568.903 711.89 569.441C710.411 569.979 708.844 570.232 707.279 570.183C705.713 570.135 704.18 569.787 702.767 569.159C701.354 568.531 700.089 567.635 699.043 566.524C697.997 565.412 697.192 564.105 696.673 562.679C696.154 561.253 695.931 559.734 696.017 558.21C696.104 556.687 696.497 555.187 697.176 553.798C697.855 552.409 698.806 551.156 699.974 550.113C701.142 549.07 702.504 548.256 703.983 547.718C705.462 547.179 707.03 546.927 708.595 546.975C710.16 547.024 711.693 547.372 713.106 548C714.519 548.628 715.785 549.523 716.83 550.635C717.876 551.747 718.682 553.053 719.201 554.48Z" fill="#01020A"/>
<path d="M313.972 551.55C315.751 553.927 316.451 556.957 315.921 559.975C315.39 562.993 313.672 565.752 311.144 567.643C308.615 569.534 305.484 570.404 302.439 570.061C299.394 569.718 296.684 568.19 294.906 565.813C293.128 563.436 292.428 560.405 292.958 557.387C293.489 554.369 295.207 551.611 297.735 549.72C300.264 547.828 303.395 546.959 306.44 547.302C309.485 547.645 312.194 549.173 313.972 551.55Z" fill="#01020A"/>
<path d="M294.981 784.76C295.837 786.16 295.851 787.349 295.022 788.328C293.772 789.823 292.27 790.278 290.517 789.693C289.674 789.408 289.355 788.837 289.559 787.981C289.993 786.051 291.149 784.753 293.024 784.087C293.867 783.788 294.519 784.013 294.981 784.76Z" fill="#F0E4DA"/>
<path d="M286.745 793.649C290.224 794.654 293.758 794.783 297.345 794.036C297.447 794.015 297.552 794.015 297.654 794.036C297.756 794.057 297.853 794.098 297.938 794.157C298.024 794.216 298.097 794.292 298.152 794.38C298.208 794.467 298.246 794.565 298.263 794.668L298.406 795.463C298.446 795.721 298.338 795.884 298.079 795.952C293.989 797.135 290.061 796.774 286.296 794.872C286.12 794.79 286.059 794.661 286.113 794.484L286.276 793.893C286.344 793.649 286.5 793.567 286.745 793.649Z" fill="#F0E4DA"/>
<path d="M741.022 248.939C741.539 251.929 740.18 254.396 736.945 256.339" stroke="#FFDFBB" stroke-width="2"/>
<path d="M736.946 256.339L722.513 258.663" stroke="#FFBF96" stroke-width="2"/>
<path d="M722.513 258.663C720.053 257.753 717.321 257.454 714.317 257.766" stroke="#FFDFBB" stroke-width="2"/>
<path d="M722.512 258.663C721.615 258.568 720.895 258.609 720.351 258.786C719.631 259.017 719.38 259.492 719.597 260.213C719.869 261.096 720.311 261.911 720.922 262.659C721.303 263.121 721.792 263.413 722.39 263.535C730.721 265.207 735.573 262.808 736.945 256.339" stroke="#FF9F52" stroke-width="2"/>
<path d="M562.932 287.795C563.313 288.868 563.388 289.555 563.157 289.854C562.898 290.166 562.464 290.051 561.852 289.507C559.8 287.727 557.802 285.389 555.859 282.494C543.729 264.412 527.176 252.547 504.772 256.258C490.95 258.541 478.025 267.307 473.357 280.578C469.586 291.281 470.462 302.595 454.888 301.942C438.844 301.27 418.458 298.497 403.943 306.203C403.478 306.454 403.083 306.818 402.794 307.262C402.506 307.705 402.333 308.214 402.293 308.742C402.252 309.269 402.345 309.799 402.562 310.281C402.779 310.764 403.114 311.184 403.536 311.503C412.118 318.006 410.875 330.136 398.928 331.176C392.052 331.774 386.758 329.062 383.048 323.042C382.821 322.683 382.474 322.418 382.071 322.298C381.669 322.177 381.241 322.21 380.867 322.389C363.906 330.421 354.385 348.279 359.298 366.627C361.976 376.616 367.133 386.143 374.771 395.208C377.924 398.945 378.454 403.62 376.361 409.233" stroke="#BCCDDE" stroke-width="2"/>
<path d="M649.572 305C650.537 306.984 651.495 308.805 652.446 310.463C662.17 327.628 660.274 352.336 652.303 369.297C646.935 380.74 638.101 389.737 625.802 396.288" stroke="#406482" stroke-width="2"/>
<path d="M627.168 369.684C630.24 366.545 631.089 361.367 629.716 354.15C628.595 348.218 619.707 347.688 615.181 348.544C580.22 355.088 546.481 338.147 525.749 310.79C524.308 308.887 523.567 309.125 523.526 311.503C523.418 318.258 525.823 324.353 530.743 329.789C532.007 331.176 533.407 332.983 534.943 335.212C539.061 341.165 542.71 346.404 549.6 348.463C549.894 348.55 550.16 348.712 550.374 348.934C550.588 349.155 550.743 349.428 550.823 349.727L551.333 351.643C551.509 352.282 551.292 352.472 550.68 352.214C549.308 351.602 547.962 351.358 546.644 351.48" stroke="#4F7A9D" stroke-width="2"/>
<path d="M520.346 315.805C521.386 310.566 520.693 302.574 515.739 299.455" stroke="#4F7A9D" stroke-width="2"/>
<path d="M495.149 313.583C493.804 313.936 493.049 314.982 492.886 316.722C492.75 318.068 491.976 318.666 490.562 318.516C490.087 318.462 490.019 318.265 490.359 317.925L490.888 317.395C491.056 317.222 491.186 317.016 491.27 316.792C491.354 316.567 491.391 316.328 491.378 316.09C491.16 313.223 491.242 310.362 491.622 307.508C492.166 303.322 490.943 302.724 487.953 305.714C485.792 307.895 483.162 310.341 481.246 313.155C460.982 342.999 426.897 354.884 391.304 349.931" stroke="#4F7A9D" stroke-width="2"/>
<path d="M391.304 349.93C375.872 343.631 370.021 364.445 381.356 371.397" stroke="#406482" stroke-width="2"/>
<path d="M381.58 362.896C379.725 354.538 386.493 355.883 391.508 354.701C391.842 354.621 392.15 354.452 392.4 354.213C392.651 353.973 392.835 353.67 392.935 353.335C393.342 351.881 392.799 350.746 391.304 349.93" stroke="#164362" stroke-width="2"/>
<path d="M523.363 361.184C514.149 370.622 481.307 399.529 467.608 395.493C452.957 391.185 438.035 389.139 422.841 389.357" stroke="#FFBF96" stroke-width="2"/>
<path d="M578.018 388.175C582.177 391.966 586.295 397.613 590.372 405.115C590.584 405.487 590.683 405.906 590.657 406.318C590.603 408.126 589.638 408.649 587.762 407.888" stroke="#E0EAF3" stroke-width="2"/>
<path d="M587.763 407.887C575.164 398.693 548.724 404.891 536.186 411.373C527.726 415.756 521.57 427.6 535.024 430.944C536.492 431.311 538.225 430.957 540.223 429.884C549.383 424.923 559.175 422.178 569.599 421.648C575.633 421.342 581.993 424.441 589.149 420.486" stroke="#808185" stroke-width="2"/>
<path d="M589.149 420.486C590.725 420.894 590.936 422.131 589.781 424.196C588.863 425.848 587.294 426.398 585.948 427.845C585.595 428.226 585.16 428.409 584.644 428.396L572.331 428.192C571.719 428.178 571.121 428.28 570.537 428.498C568.376 429.286 566.813 430.625 565.848 432.514C565.696 432.808 565.464 433.054 565.179 433.223C564.895 433.392 564.569 433.479 564.237 433.472C561.098 433.445 558.271 434.213 555.757 435.775" stroke="#E0EAF3" stroke-width="2"/>
<path d="M555.757 435.775C550.144 436.047 544.714 437.243 539.468 439.363C530.988 442.768 533.149 454.408 541.874 454.306C545.584 454.265 549.192 454.265 552.699 454.306C553.146 454.312 553.573 454.494 553.889 454.814C554.206 455.134 554.385 455.566 554.391 456.019C554.431 464.581 554.418 472.871 554.35 480.889C554.268 489.146 558.855 492.285 566.622 490.348" stroke="#808185" stroke-width="2"/>
<path d="M566.622 490.348L569.863 489.675C570.597 489.526 570.937 489.825 570.882 490.572C570.475 497.096 563.401 497.422 558.447 495.098C554.709 493.331 550.761 492.774 546.603 493.426C545.937 493.535 545.284 493.508 544.646 493.345L536.063 491.306C535.492 491.184 534.996 490.912 534.575 490.491L531.272 487.29" stroke="#E0EAF3" stroke-width="2"/>
<path d="M531.273 487.29C513.965 468.576 482.938 475.487 478.922 501.723C477.074 513.846 481.294 523.835 491.582 531.691" stroke="#808185" stroke-width="2"/>
<path d="M491.582 531.691C493.892 534.232 497.188 535.781 501.469 536.339" stroke="#BCCDDE" stroke-width="2"/>
<path d="M501.469 536.339C512.3 538.608 521.787 535.319 529.927 526.472" stroke="#808185" stroke-width="2"/>
<path d="M529.928 526.472C530.417 526.431 530.981 526.2 531.62 525.779C532.095 525.452 532.449 525.024 532.68 524.494C532.938 523.923 533.359 523.543 533.944 523.353C534.515 523.176 534.882 523.366 535.045 523.924C535.194 524.44 535.649 524.589 536.41 524.372C536.533 524.331 536.621 524.25 536.675 524.127C536.852 523.72 537.09 523.55 537.389 523.618C550.898 526.485 561.689 522.768 569.762 512.467C570.618 511.379 571.42 510.605 572.167 510.143C574.124 508.947 575.334 509.008 575.796 510.326" stroke="#E0EAF3" stroke-width="2"/>
<path d="M501.469 536.339L491.582 531.691" stroke="#3D4E63" stroke-width="2"/>
<path d="M529.928 526.472C539.523 514.254 539.971 501.193 531.273 487.29" stroke="#616C78" stroke-width="2"/>
<path d="M566.623 490.348C570.496 488.282 572.46 485.272 572.514 481.317C572.636 472.497 572.691 463.717 572.677 454.979C572.67 454.516 572.804 454.062 573.063 453.676C573.321 453.29 573.692 452.991 574.124 452.818C576.462 451.867 578.521 450.507 580.301 448.741C580.859 448.197 581.049 447.551 580.872 446.804C577.733 432.942 566.092 436.183 555.757 435.775" stroke="#616C78" stroke-width="2"/>
<path d="M589.148 420.486C592.369 416.952 591.907 412.753 587.762 407.887" stroke="#616C78" stroke-width="2"/>
<path d="M351.001 419.181C351.477 420.649 350.913 421.689 349.309 422.3C348.167 422.749 346.985 423.129 345.762 423.442C340.482 424.848 333.999 431.331 330.472 435.429C326.749 439.751 324.887 444.779 324.887 450.514C324.886 451.207 324.607 451.874 324.112 452.369C321.666 454.754 315.897 456.915 313.145 453.694" stroke="#FFDFBB" stroke-width="2"/>
<path d="M313.144 453.695C311.493 437.671 327.006 425.195 337.648 415.654C337.992 415.348 338.233 414.942 338.338 414.494C338.443 414.045 338.407 413.575 338.236 413.147C338.064 412.719 337.765 412.355 337.379 412.103C336.993 411.851 336.539 411.725 336.078 411.74C333.632 411.822 331.559 412.603 329.86 414.085C329.385 414.506 328.834 414.737 328.209 414.778C327.666 414.805 327.176 415.002 326.741 415.369C321.665 419.446 318.791 424.013 314.408 428.436C312.261 430.597 310.637 432.921 309.536 435.408C306.376 442.543 302.564 448.272 301.973 456.752" stroke="#F8F2ED" stroke-width="2"/>
<path d="M301.974 456.752C300.873 461.862 298.923 464.356 296.123 464.234" stroke="#FFDFBB" stroke-width="2"/>
<path d="M313.144 453.695C311.622 451.534 310.854 449.182 310.841 446.641C310.827 443.678 310.052 443.461 308.517 445.989L301.973 456.752" stroke="#F8D1A9" stroke-width="2"/>
<path d="M364.803 429.292C364.137 429.632 364.014 430.128 364.436 430.781C364.83 431.392 364.905 432.044 364.66 432.738C364.307 433.757 363.6 434.375 362.54 434.593C362.261 434.65 361.999 434.774 361.772 434.954C361.546 435.135 361.362 435.367 361.235 435.632C353.747 451.683 341.862 463.276 325.58 470.411C318.486 473.509 310.841 469.269 303.604 468.555C302.911 468.488 302.381 468.753 302.014 469.351C301.158 470.71 300.655 472.368 300.506 474.325" stroke="#FF9F52" stroke-width="2"/>
<path d="M719.76 429.863C719.896 433.451 718.224 437.27 714.745 441.32" stroke="#FFBF96" stroke-width="2"/>
<path d="M714.746 441.32C713.346 440.994 712.375 440.308 711.831 439.261" stroke="#FFDFBB" stroke-width="2"/>
<path d="M711.83 439.261C712.089 438.459 712.082 437.855 711.81 437.447C703.764 424.726 692.634 415.967 678.418 411.17C677.113 410.721 676.461 409.824 676.461 408.479" stroke="#F8F2ED" stroke-width="2"/>
<path d="M714.745 441.32C713.454 442.122 711.762 443.889 709.669 446.62C704.274 453.633 700.502 459.076 698.355 462.95C692.178 474.101 678.173 461.095 670.936 454.856C663.244 448.211 657.291 440.009 653.078 430.251" stroke="#FF9F52" stroke-width="2"/>
<path d="M711.83 439.261C711.45 439.438 711.076 439.275 710.709 438.772C709.867 437.603 709.364 437.338 709.201 437.977C709.106 438.303 708.976 438.595 708.813 438.853C708.514 439.329 708.46 439.832 708.65 440.362C709.207 441.83 709.486 443.338 709.486 444.888C709.486 445.554 709.241 446.104 708.752 446.539C707.679 447.531 706.442 448.258 705.042 448.72" stroke="#F8D1A9" stroke-width="2"/>
<path d="M705.042 448.72L708.181 446.009C709.391 444.976 709.595 443.773 708.793 442.401C700.353 428.144 688.264 418.121 672.526 412.332" stroke="#F8F2ED" stroke-width="2"/>
<path d="M705.042 448.72C701.658 451.187 699.252 450.453 696.969 447.049C691.832 439.397 685.478 432.874 677.908 427.478C676.182 426.241 671.555 423.979 664.025 420.69" stroke="#FFDFBB" stroke-width="2"/>
<path d="M475.477 567.937C476.333 585.047 478.045 597.537 480.614 605.406C485.248 619.567 488.585 628.333 490.623 631.703C495.924 640.429 500.639 649.466 504.771 658.817C505.913 661.406 507.747 662.425 510.051 663.689" stroke="#FFDFBB" stroke-width="2"/>
<path d="M510.052 663.689C511.37 665.184 511.404 666.509 510.154 667.664C509.637 668.126 509.352 668.704 509.297 669.397C509.148 671.218 508.781 672.998 508.197 674.738C505.118 683.891 500.756 694.064 500.735 703.829C500.715 709.741 502.02 716.937 497.983 721.911C497.713 722.244 497.542 722.647 497.492 723.073C497.442 723.5 497.514 723.931 497.7 724.318C497.886 724.705 498.178 725.031 498.542 725.258C498.906 725.485 499.328 725.604 499.757 725.601L516.045 725.499C516.418 725.493 516.784 725.392 517.107 725.205C517.43 725.018 517.699 724.751 517.889 724.429C518.08 724.108 518.184 723.744 518.193 723.371C518.202 722.997 518.115 722.628 517.941 722.298C512.845 712.615 517.819 707.926 522.915 699.996C525.219 696.388 526.238 691.475 530.743 687.153C532.388 685.59 532.972 683.545 532.497 681.017C532.374 680.419 532.034 680.004 531.477 679.773C529.969 679.175 528.419 678.842 526.829 678.774C526.524 678.762 526.225 678.672 525.962 678.512C525.698 678.351 525.477 678.126 525.321 677.857C523.608 674.84 523.873 671.68 522.365 668.887C520.652 665.748 519.069 662.54 517.615 659.265" stroke="#F8F2ED" stroke-width="2"/>
<path d="M517.614 659.265C517.287 652.674 518.687 647.373 521.813 643.364C528.676 634.557 534.065 624.677 537.979 613.723C538.05 613.533 538.173 613.366 538.334 613.243C538.495 613.119 538.688 613.043 538.89 613.024C539.092 613.005 539.295 613.043 539.477 613.134C539.658 613.226 539.81 613.366 539.916 613.54C540.228 614.083 540.398 614.817 540.425 615.741" stroke="#FFDFBB" stroke-width="2"/>
<path d="M606.965 626.342C608.215 626.383 608.875 627.497 608.943 629.685C608.956 630.338 608.773 630.922 608.392 631.438C605.497 635.291 602.643 637.126 597.506 636.983C589.162 636.725 580.552 637.67 571.677 639.817C570.644 640.062 569.944 640.687 569.578 641.693C567.09 648.583 559.12 648.073 558.997 655.575C558.997 655.779 559.099 655.881 559.303 655.881C559.493 655.881 559.684 655.881 559.874 655.881C560.716 655.881 561.138 656.302 561.138 657.145V658.613C561.138 659.306 560.805 659.72 560.139 659.856C558.793 660.169 557.829 660.944 557.244 662.18" stroke="#F8F2ED" stroke-width="2"/>
<path d="M587.803 790.693C589.23 786.602 590.039 782.423 590.229 778.155C591.615 745.844 586.661 717.528 566.275 691.577C565.433 690.49 564.543 690.449 563.605 691.455C555.641 699.989 549.478 709.863 545.115 721.075C543.81 724.439 541.853 726.722 539.611 729.352C539.094 729.95 538.442 730.255 537.654 730.269L530.58 730.493C529.126 730.534 528.466 731.282 528.602 732.736C528.698 733.742 529.207 734.706 530.131 735.631C532.557 738.056 533.943 741.318 535.758 744.233C537.694 747.352 537.409 750.186 538.265 753.672C538.308 753.847 538.398 754.006 538.525 754.133C538.652 754.261 538.812 754.35 538.987 754.392C539.162 754.434 539.345 754.427 539.516 754.372C539.687 754.317 539.84 754.216 539.957 754.08C547.113 745.64 559.1 742.419 568.701 748.474C588.72 761.113 574.573 787.207 553.412 782.763C548.051 781.641 543.79 778.033 539.55 774.506C539.02 774.058 538.612 774.146 538.326 774.771C536.696 778.42 539.55 786.84 539.692 791.121" stroke="#F8F2ED" stroke-width="2"/>
<path d="M479.167 790.876C480.499 784.556 480.798 778.087 480.064 771.469C480.038 771.254 479.951 771.052 479.815 770.884C479.678 770.717 479.497 770.592 479.292 770.524C479.087 770.455 478.867 770.446 478.657 770.498C478.447 770.55 478.257 770.66 478.107 770.816C474.825 774.282 474.111 780.377 469.056 781.865C460.657 784.312 450.076 783.884 443.41 777.177C425.552 759.176 458.74 731.125 473.011 753.203C473.826 754.48 474.682 755.649 475.579 756.709C475.745 756.912 475.964 757.064 476.213 757.147C476.461 757.23 476.728 757.241 476.985 757.18C477.241 757.118 477.476 756.987 477.663 756.799C477.851 756.611 477.983 756.376 478.046 756.118C480.512 746.17 481.206 740.258 488.422 732.328C491.453 728.985 490.746 727.714 486.302 728.516C477.19 730.147 472.419 722.808 468.526 714.735C464.462 706.309 459.726 698.392 454.317 690.985C453.913 690.427 453.307 690.049 452.626 689.931C451.945 689.813 451.242 689.965 450.668 690.353C447.637 692.433 445.096 695.076 443.043 698.283C424.716 726.926 423.249 756.057 426.388 791.039" stroke="#F8F2ED" stroke-width="2"/>
<path d="M570.027 658.307C566.765 658.443 563.734 659.218 560.935 660.631" stroke="#8B9FAC" stroke-width="2"/>
<path d="M517.615 659.265C518.254 661.412 517.397 662.724 515.046 663.2C513.47 663.499 511.805 663.662 510.052 663.689" stroke="#F8D1A9" stroke-width="2"/>
<path d="M653.71 621.042C651.081 633.355 643.558 644.914 634.772 653.741C631.001 657.533 626.944 657.757 621.97 657.329" stroke="#638BA9" stroke-width="2"/>
<path d="M612.409 656.778C615.25 657.186 617.771 656.88 619.972 655.861C620.597 655.575 620.998 655.099 621.175 654.434C623.254 646.741 624.919 638.974 626.17 631.133C627.189 624.711 626.965 618.167 621.664 613.58C611.818 605.059 597.793 598.332 585.051 593.195C583.176 592.44 581.26 592.644 579.221 592.705C578.872 592.705 578.524 592.629 578.202 592.481L572.27 589.668" stroke="#C8D0D8" stroke-width="2"/>
<path d="M542.179 610.074C529.356 614.212 490.419 579.21 481.409 570.893" stroke="#FF9F52" stroke-width="2"/>
<path d="M348.8 657.818C342.371 656.391 335.637 655.922 328.597 656.411C328.429 656.422 328.261 656.385 328.112 656.305C327.964 656.225 327.841 656.104 327.758 655.957C327.675 655.81 327.635 655.643 327.643 655.474C327.651 655.306 327.706 655.143 327.802 655.004C328.699 653.673 330.14 653.129 332.124 653.374C335.1 653.754 338.6 653.747 342.623 653.353C345.694 653.054 346.754 651.437 345.803 648.501L343.785 642.365C342.833 639.443 340.822 637.907 337.75 637.758C330.806 637.445 323.664 639.002 316.325 642.426C313.206 643.894 310.107 646.32 306.784 648.195C306.146 648.562 305.602 649.045 305.153 649.643L301.137 655.127C300.73 655.684 300.179 655.99 299.486 656.044L294.247 656.391" stroke="#F8F2ED" stroke-width="2"/>
<path d="M664.963 657.369C670.481 657.641 675.931 657.267 681.312 656.248C682.835 655.963 685.831 655.725 690.302 655.535C694.352 655.371 698.063 654.019 701.433 651.478C712.645 643.079 698.538 625.853 690.18 621.857C685.981 619.832 681.781 617.692 677.582 615.436" stroke="#B5BFCB" stroke-width="2"/>
<path d="M629.757 678.611C629.105 678.802 629.444 679.141 630.776 679.631C631.823 680.011 631.863 680.494 630.899 681.078C629.716 681.785 628.119 682.206 626.108 682.342C617.566 682.933 608.27 682.24 599.932 684.013C599.672 684.067 599.429 684.183 599.224 684.352C599.018 684.521 598.858 684.737 598.755 684.982C598.653 685.227 598.612 685.494 598.636 685.758C598.66 686.023 598.748 686.278 598.893 686.501C604.968 695.919 611.838 706.132 614.997 716.345C617.702 725.125 618.986 734.19 618.85 743.54C618.769 749.629 620.57 754.582 624.253 758.401" stroke="#F8F2ED" stroke-width="2"/>
<path d="M662.905 735.692C665.005 728.047 663.496 714.429 652.692 715.795C644.048 716.896 643.763 727.639 647.004 733.673" stroke="#B5BFCB" stroke-width="2"/>
<path d="M659.214 732.287C659.853 732.083 660.125 731.696 660.03 731.125C659.907 730.405 659.506 729.916 658.827 729.657C654.981 728.19 651.393 728.638 648.063 731.003C647.764 731.22 647.703 731.492 647.88 731.818C648.043 732.104 648.233 732.233 648.451 732.206" stroke="#9DB8D1" stroke-width="2"/>
<path d="M302.605 679.59L301.545 711.698C301.542 711.811 301.51 711.922 301.452 712.019C301.393 712.116 301.311 712.196 301.212 712.252C301.113 712.307 301.002 712.336 300.889 712.335C300.775 712.335 300.664 712.305 300.566 712.248L300.118 711.983C299.302 711.521 298.854 710.821 298.772 709.883C298.16 702.728 300.158 696.938 299.18 688.886C298.758 685.407 296.815 683.891 293.349 684.34L288.885 684.911C285.487 685.345 284.264 687.207 285.215 690.496C285.949 693.065 286.527 695.939 286.948 699.12C287.662 704.522 289.863 710.617 289.741 716.774C289.456 730.867 288.864 744.75 287.968 758.422" stroke="#F8F2ED" stroke-width="2"/>
<path d="M402.108 679.264C395.095 689.62 389.693 700.016 385.901 710.454" stroke="#FFB3B3" stroke-width="2"/>
<path d="M385.902 710.454C385.725 711.976 385.256 713.07 384.495 713.736C384.203 713.992 383.842 714.159 383.455 714.217C383.069 714.275 382.673 714.221 382.314 714.062L369.002 708.273C367.657 707.688 366.345 707.756 365.068 708.476L352.918 715.346C352.244 715.73 351.685 716.286 351.298 716.956C350.911 717.626 350.71 718.386 350.716 719.159L350.859 732.511" stroke="#FFCAC3" stroke-width="2"/>
<path d="M350.858 732.511L351.225 758.381" stroke="#F8F2ED" stroke-width="2"/>
<path d="M371.061 742.46C370.952 743.615 371.122 744.634 371.57 745.517C371.951 746.279 372.495 746.421 373.201 745.946C373.813 745.538 374.092 744.818 374.037 743.785C373.915 741.787 374.071 739.803 374.506 737.832C374.639 737.21 374.567 736.566 374.302 735.997C373.324 733.904 372.08 732.063 370.572 730.473C365.455 725.05 355.527 728.353 350.858 732.511" stroke="#F8BCB0" stroke-width="2"/>
<path d="M370.938 746.945C371.21 748.222 372.522 748.324 374.873 747.251C375.488 746.962 376.188 746.918 376.83 747.128C382.273 748.82 385.596 746.272 386.207 740.707C387.281 730.799 387.179 720.715 385.902 710.454" stroke="#FF7D77" stroke-width="2"/>
<path d="M741.022 248.939C741.539 251.929 740.18 254.396 736.945 256.339L722.512 258.663C720.052 257.753 717.321 257.454 714.317 257.766C707.162 238.685 735.131 228.472 741.022 248.939Z" fill="white"/>
<path d="M741.023 248.939C743.469 267.49 722.574 276.929 714.317 257.766C717.321 257.453 720.053 257.752 722.513 258.663C721.616 258.568 720.895 258.609 720.352 258.785C719.631 259.016 719.38 259.492 719.597 260.212C719.869 261.096 720.311 261.911 720.922 262.659C721.303 263.121 721.792 263.413 722.39 263.535C730.721 265.207 735.573 262.808 736.946 256.339C740.18 254.396 741.539 251.929 741.023 248.939Z" fill="#FFBE77"/>
<path d="M736.945 256.339C735.573 262.808 730.721 265.207 722.39 263.535C721.792 263.413 721.303 263.121 720.922 262.659C720.311 261.911 719.869 261.096 719.597 260.213C719.38 259.492 719.631 259.017 720.351 258.786C720.895 258.609 721.615 258.568 722.512 258.663L736.945 256.339Z" fill="#FE7F2D"/>
<path d="M562.932 287.795C563.313 288.868 563.387 289.555 563.156 289.854C562.898 290.166 562.463 290.051 561.851 289.507C559.799 287.727 557.802 285.389 555.858 282.494C543.729 264.412 527.175 252.548 504.771 256.258C490.95 258.541 478.025 267.307 473.357 280.578C469.585 291.281 470.462 302.595 454.887 301.943C438.843 301.27 418.458 298.497 403.943 306.203C403.477 306.454 403.082 306.818 402.794 307.262C402.505 307.706 402.333 308.215 402.292 308.742C402.252 309.27 402.344 309.799 402.561 310.281C402.778 310.764 403.113 311.184 403.535 311.504C412.118 318.007 410.874 330.136 398.928 331.176C392.051 331.774 386.758 329.063 383.047 323.042C382.821 322.683 382.473 322.418 382.071 322.298C381.669 322.178 381.24 322.21 380.866 322.39C363.905 330.422 354.385 348.28 359.298 366.627C361.975 376.616 367.133 386.143 374.771 395.208C377.924 398.945 378.454 403.62 376.361 409.233C349.37 393.557 335.793 363.691 344.783 333.5C357.606 290.425 405.635 279.987 444.633 286.021C457.313 287.978 457.965 281.067 462.96 272.179C472.555 255.096 487.178 245.576 506.83 243.619C534.983 240.826 549.6 269.366 562.932 287.795Z" fill="white"/>
<path d="M562.932 287.795C568.844 290.995 576.571 290.506 582.747 288.712C608.773 281.115 631.048 286.544 649.572 305C650.537 306.984 651.495 308.806 652.447 310.464C662.171 327.628 660.275 352.336 652.304 369.297C646.936 380.74 638.102 389.737 625.802 396.288C625.136 386.938 625.592 378.07 627.168 369.684C630.24 366.545 631.089 361.367 629.716 354.15C628.595 348.218 619.707 347.688 615.181 348.544C580.22 355.088 546.481 338.147 525.749 310.79C524.308 308.887 523.567 309.125 523.527 311.503C523.418 318.258 525.824 324.353 530.743 329.789C532.007 331.176 533.407 332.983 534.943 335.212C539.061 341.165 542.71 346.404 549.6 348.463C549.894 348.55 550.16 348.713 550.374 348.934C550.588 349.155 550.743 349.428 550.823 349.727L551.333 351.643C551.51 352.282 551.292 352.472 550.681 352.214C549.308 351.602 547.963 351.358 546.644 351.48C535.595 342.734 524.505 329.524 520.346 315.805C521.386 310.566 520.693 302.574 515.739 299.455C503.182 287.285 495.578 302.676 495.15 313.583C493.804 313.936 493.05 314.982 492.887 316.722C492.751 318.068 491.976 318.666 490.563 318.516C490.087 318.462 490.019 318.265 490.359 317.925L490.889 317.395C491.056 317.222 491.186 317.016 491.27 316.792C491.354 316.567 491.391 316.328 491.378 316.09C491.161 313.222 491.242 310.362 491.623 307.508C492.167 303.322 490.943 302.724 487.953 305.714C485.792 307.895 483.163 310.341 481.246 313.155C460.983 342.999 426.898 354.884 391.304 349.931C375.872 343.631 370.021 364.445 381.356 371.397C385.413 372.233 389.918 371.254 390.061 376.84C390.332 388.908 390.441 401.017 390.387 413.167C390.384 413.389 390.334 413.608 390.238 413.808C390.143 414.008 390.005 414.185 389.834 414.327C389.663 414.468 389.464 414.571 389.25 414.628C389.035 414.684 388.811 414.694 388.593 414.656C383.85 413.799 379.773 411.992 376.361 409.233C378.454 403.62 377.924 398.945 374.771 395.208C367.133 386.143 361.976 376.616 359.298 366.627C354.385 348.279 363.906 330.421 380.867 322.389C381.241 322.21 381.669 322.177 382.071 322.298C382.474 322.418 382.821 322.683 383.048 323.042C386.758 329.062 392.052 331.774 398.928 331.176C410.875 330.136 412.118 318.006 403.536 311.503C403.114 311.184 402.779 310.764 402.562 310.281C402.345 309.799 402.252 309.269 402.293 308.742C402.333 308.214 402.506 307.705 402.794 307.262C403.083 306.818 403.478 306.454 403.943 306.203C418.458 298.497 438.844 301.27 454.888 301.942C470.462 302.595 469.586 291.281 473.357 280.578C478.025 267.307 490.95 258.541 504.772 256.258C527.176 252.547 543.729 264.412 555.859 282.494C557.802 285.389 559.8 287.727 561.852 289.507C562.464 290.051 562.898 290.166 563.157 289.854C563.388 289.555 563.313 288.868 562.932 287.795Z" fill="#799ABC"/>
<path d="M515.739 299.455C520.693 302.574 521.386 310.566 520.346 315.805L515.739 299.455Z" fill="#25597D"/>
<path d="M495.15 313.583C483.571 349.502 456.886 365.546 420.803 367.32C413.24 367.707 386.432 368.95 381.58 362.896C379.725 354.538 386.493 355.883 391.508 354.701C391.842 354.621 392.15 354.452 392.401 354.213C392.651 353.973 392.835 353.67 392.935 353.335C393.343 351.881 392.799 350.746 391.304 349.931C426.898 354.884 460.983 342.999 481.247 313.155C483.163 310.341 485.793 307.895 487.954 305.714C490.943 302.724 492.167 303.322 491.623 307.508C491.243 310.362 491.161 313.223 491.378 316.09C491.391 316.328 491.355 316.567 491.27 316.792C491.186 317.016 491.056 317.222 490.889 317.395L490.359 317.925C490.019 318.265 490.087 318.462 490.563 318.516C491.976 318.666 492.751 318.068 492.887 316.722C493.05 314.982 493.804 313.936 495.15 313.583Z" fill="#25597D"/>
<path d="M649.572 305C650.999 306.237 652.318 307.412 653.527 308.527C657.36 312.094 662.538 312.482 665.106 317.497C676.176 339.106 676.543 367.483 662.252 388.235C659.602 392.109 657.278 396.329 654.139 399.57C646.8 407.085 638.333 412.841 628.738 416.837C628.301 417.021 627.825 417.091 627.353 417.04C626.882 416.989 626.431 416.819 626.044 416.545C625.656 416.272 625.345 415.905 625.138 415.478C624.932 415.051 624.838 414.578 624.865 414.105L625.803 396.288C638.102 389.737 646.936 380.74 652.304 369.297C660.275 352.336 662.171 327.628 652.447 310.463C651.495 308.805 650.537 306.984 649.572 305Z" fill="#072D47"/>
<path d="M627.168 369.684C619.326 368.352 607.937 367.578 593.001 367.36C577.073 367.116 561.621 361.822 546.644 351.48C547.962 351.358 549.308 351.602 550.68 352.214C551.292 352.472 551.509 352.282 551.333 351.643L550.823 349.727C550.743 349.428 550.588 349.155 550.374 348.934C550.16 348.712 549.894 348.55 549.6 348.463C542.71 346.404 539.061 341.165 534.943 335.212C533.407 332.983 532.007 331.176 530.743 329.789C525.823 324.353 523.418 318.258 523.526 311.503C523.567 309.125 524.308 308.887 525.749 310.79C546.481 338.147 580.22 355.088 615.181 348.544C619.707 347.688 628.595 348.218 629.716 354.15C631.089 361.367 630.24 366.545 627.168 369.684Z" fill="#25597D"/>
<path d="M523.363 361.183C514.149 370.622 481.307 399.529 467.608 395.493C452.957 391.185 438.035 389.139 422.841 389.357C458.944 389.173 488.259 373.823 506.708 342.592C506.871 342.32 507.055 342.299 507.258 342.53L523.363 361.183Z" fill="#FE7F2D"/>
<path d="M391.304 349.931C392.799 350.746 393.343 351.881 392.935 353.335C392.835 353.67 392.651 353.973 392.4 354.213C392.15 354.453 391.842 354.621 391.508 354.701C386.493 355.883 379.725 354.538 381.58 362.896C377.122 362.624 377.048 365.458 381.356 371.397C370.021 364.446 375.872 343.632 391.304 349.931Z" fill="#072D47"/>
<path d="M523.364 361.184C537.267 376.167 557.143 384.24 578.018 388.175C582.177 391.966 586.295 397.613 590.372 405.115C590.584 405.487 590.683 405.906 590.657 406.318C590.603 408.126 589.638 408.649 587.763 407.888C575.164 398.694 548.724 404.891 536.186 411.374C527.726 415.757 521.57 427.601 535.024 430.944C536.492 431.311 538.225 430.958 540.223 429.884C549.383 424.923 559.175 422.178 569.599 421.648C575.633 421.342 581.993 424.441 589.149 420.486C590.725 420.894 590.936 422.13 589.781 424.196C588.863 425.848 587.294 426.398 585.948 427.845C585.595 428.226 585.16 428.409 584.644 428.396L572.33 428.192C571.719 428.178 571.121 428.28 570.536 428.498C568.376 429.286 566.813 430.625 565.848 432.514C565.696 432.808 565.464 433.053 565.179 433.223C564.895 433.392 564.568 433.479 564.237 433.472C561.098 433.445 558.271 434.212 555.757 435.775C550.144 436.047 544.714 437.243 539.468 439.363C530.988 442.768 533.149 454.408 541.874 454.306C545.584 454.265 549.193 454.265 552.699 454.306C553.146 454.312 553.573 454.494 553.89 454.814C554.206 455.134 554.386 455.566 554.391 456.019C554.432 464.581 554.418 472.871 554.35 480.889C554.269 489.146 558.855 492.285 566.622 490.348L569.864 489.676C570.598 489.526 570.937 489.825 570.883 490.573C570.475 497.096 563.401 497.422 558.448 495.098C554.71 493.331 550.762 492.774 546.604 493.427C545.938 493.535 545.285 493.508 544.647 493.345L536.064 491.307C535.493 491.184 534.997 490.912 534.576 490.491L531.273 487.29C513.966 468.576 482.939 475.487 478.923 501.724C477.074 513.846 481.294 523.835 491.582 531.691C493.893 534.232 497.188 535.782 501.469 536.339C512.301 538.608 521.787 535.32 529.928 526.472C530.417 526.431 530.981 526.2 531.62 525.779C532.096 525.453 532.449 525.025 532.68 524.495C532.938 523.924 533.36 523.543 533.944 523.353C534.515 523.176 534.882 523.367 535.045 523.924C535.194 524.44 535.65 524.59 536.411 524.372C536.533 524.331 536.621 524.25 536.676 524.128C536.852 523.72 537.09 523.55 537.389 523.618C550.898 526.486 561.689 522.769 569.762 512.467C570.618 511.38 571.42 510.605 572.167 510.143C574.124 508.947 575.334 509.008 575.796 510.326C569.096 518.984 563.503 525.507 559.019 529.897C534.107 554.278 497.025 558.682 468.485 537.603C442.921 518.725 424.024 490.532 415.829 459.688C410.528 439.669 412.118 414.37 412.098 392.272C412.096 391.702 412.309 391.153 412.694 390.734C413.08 390.314 413.609 390.055 414.177 390.009L422.841 389.357C438.035 389.139 452.958 391.185 467.608 395.493C481.308 399.529 514.149 370.622 523.364 361.184Z" fill="white"/>
<path d="M578.018 388.175L603.459 389.765C603.652 389.775 603.834 389.859 603.967 390C604.099 390.14 604.173 390.326 604.173 390.519C604.186 401.935 604.18 413.344 604.152 424.747C604.125 439.9 603.296 451.242 601.665 458.771C597.52 477.811 588.897 494.996 575.796 510.326C575.334 509.008 574.124 508.947 572.167 510.143C571.42 510.605 570.618 511.38 569.762 512.467C561.689 522.769 550.898 526.486 537.389 523.618C537.09 523.55 536.852 523.72 536.675 524.128C536.621 524.25 536.533 524.332 536.41 524.372C535.649 524.59 535.194 524.44 535.045 523.924C534.882 523.367 534.515 523.176 533.944 523.353C533.359 523.543 532.938 523.924 532.68 524.495C532.449 525.025 532.095 525.453 531.62 525.779C530.981 526.2 530.417 526.431 529.928 526.472C539.523 514.254 539.971 501.194 531.273 487.29L534.576 490.491C534.997 490.912 535.493 491.184 536.064 491.307L544.646 493.345C545.285 493.508 545.937 493.535 546.603 493.427C550.762 492.774 554.71 493.331 558.447 495.098C563.401 497.422 570.475 497.096 570.883 490.573C570.937 489.825 570.598 489.526 569.864 489.676L566.622 490.348C570.496 488.283 572.459 485.272 572.514 481.317C572.636 472.497 572.69 463.718 572.677 454.979C572.67 454.517 572.804 454.062 573.063 453.676C573.321 453.291 573.691 452.991 574.124 452.818C576.462 451.867 578.521 450.508 580.301 448.741C580.858 448.197 581.049 447.552 580.872 446.804C577.732 432.942 566.092 436.183 555.757 435.775C558.271 434.213 561.098 433.445 564.237 433.472C564.568 433.479 564.895 433.392 565.179 433.223C565.464 433.053 565.695 432.808 565.848 432.514C566.812 430.625 568.375 429.286 570.536 428.498C571.121 428.28 571.719 428.178 572.33 428.192L584.643 428.396C585.16 428.409 585.595 428.226 585.948 427.845C587.293 426.398 588.863 425.848 589.781 424.196C590.936 422.131 590.725 420.894 589.149 420.486C592.37 416.953 591.907 412.753 587.762 407.888C589.638 408.649 590.603 408.126 590.657 406.318C590.683 405.906 590.584 405.487 590.372 405.115C586.295 397.613 582.177 391.966 578.018 388.175Z" fill="#C0D5E6"/>
<path d="M351.001 419.181C351.476 420.649 350.913 421.689 349.309 422.3C348.167 422.749 346.985 423.129 345.762 423.442C340.482 424.848 333.999 431.331 330.472 435.429C326.748 439.75 324.887 444.779 324.887 450.514C324.886 451.207 324.607 451.874 324.112 452.369C321.666 454.754 315.896 456.915 313.144 453.694C311.493 437.671 327.007 425.195 337.648 415.654C337.992 415.347 338.233 414.942 338.338 414.493C338.443 414.045 338.408 413.575 338.236 413.147C338.065 412.719 337.765 412.355 337.379 412.103C336.993 411.851 336.539 411.725 336.078 411.74C333.632 411.822 331.559 412.603 329.861 414.085C329.385 414.506 328.835 414.737 328.209 414.778C327.666 414.805 327.177 415.002 326.742 415.369C321.666 419.446 318.791 424.013 314.408 428.436C312.261 430.597 310.637 432.921 309.536 435.408C306.376 442.543 302.564 448.272 301.973 456.752C300.872 461.862 298.922 464.356 296.122 464.234C294.464 460.999 293.479 457.004 293.166 452.247C291.515 427.539 305.846 405.543 328.291 395.778C328.961 395.483 329.716 395.445 330.417 395.67C331.119 395.895 331.718 396.368 332.103 397.001C337.009 405.047 343.309 412.44 351.001 419.181Z" fill="white"/>
<path d="M719.76 429.864C719.896 433.452 718.225 437.27 714.745 441.32C713.346 440.994 712.374 440.308 711.83 439.261C712.089 438.46 712.082 437.855 711.81 437.447C703.764 424.726 692.634 415.967 678.418 411.17C677.113 410.721 676.461 409.824 676.461 408.479L683.616 398.999C684.134 398.316 684.868 397.828 685.7 397.613C686.532 397.399 687.414 397.47 688.203 397.817C703.03 404.368 713.55 415.05 719.76 429.864Z" fill="white"/>
<path d="M587.763 407.887C591.908 412.753 592.37 416.952 589.149 420.486C581.993 424.441 575.633 421.342 569.599 421.648C559.175 422.178 549.383 424.923 540.223 429.884C538.225 430.957 536.492 431.311 535.024 430.944C521.57 427.6 527.726 415.756 536.186 411.373C548.724 404.891 575.164 398.693 587.763 407.887Z" fill="#01020A"/>
<path d="M676.461 408.479C676.461 409.824 677.114 410.721 678.418 411.17C692.634 415.967 703.765 424.726 711.81 437.447C712.082 437.855 712.089 438.459 711.831 439.261C711.45 439.438 711.076 439.275 710.709 438.772C709.867 437.603 709.364 437.338 709.201 437.977C709.106 438.303 708.977 438.595 708.814 438.854C708.515 439.329 708.46 439.832 708.65 440.362C709.208 441.83 709.486 443.338 709.486 444.888C709.486 445.554 709.242 446.104 708.753 446.539C707.679 447.531 706.442 448.258 705.042 448.72L708.182 446.009C709.391 444.976 709.595 443.773 708.793 442.401C700.353 428.144 688.265 418.121 672.527 412.332L676.461 408.479Z" fill="#F0E4DA"/>
<path d="M313.144 453.695C311.622 451.534 310.854 449.182 310.841 446.641C310.827 443.678 310.052 443.461 308.517 445.989L301.973 456.752C302.564 448.272 306.376 442.543 309.536 435.408C310.637 432.921 312.261 430.597 314.408 428.436C318.791 424.013 321.665 419.446 326.741 415.369C327.176 415.002 327.666 414.805 328.209 414.778C328.834 414.737 329.385 414.506 329.86 414.085C331.559 412.603 333.632 411.822 336.078 411.74C336.539 411.725 336.993 411.851 337.379 412.103C337.765 412.355 338.064 412.719 338.236 413.147C338.407 413.575 338.443 414.045 338.338 414.494C338.233 414.942 337.992 415.348 337.648 415.654C327.006 425.195 311.493 437.671 313.144 453.695Z" fill="#F0E4DA"/>
<path d="M672.526 412.332C688.264 418.121 700.353 428.144 708.793 442.401C709.594 443.773 709.391 444.976 708.181 446.009L705.042 448.72C701.658 451.187 699.252 450.453 696.969 447.049C691.832 439.397 685.478 432.874 677.908 427.478C676.182 426.242 671.555 423.979 664.025 420.69L672.526 412.332Z" fill="white"/>
<path d="M351.002 419.181L364.803 429.293C364.137 429.632 364.015 430.128 364.436 430.781C364.83 431.392 364.905 432.045 364.66 432.738C364.307 433.757 363.6 434.376 362.54 434.593C362.262 434.65 361.999 434.774 361.773 434.955C361.546 435.135 361.362 435.367 361.235 435.633C353.747 451.683 341.862 463.276 325.581 470.411C318.486 473.51 310.842 469.269 303.605 468.556C302.911 468.488 302.382 468.753 302.015 469.351C301.158 470.71 300.656 472.368 300.506 474.325L296.123 464.234C298.923 464.356 300.873 461.862 301.974 456.752L308.518 445.989C310.053 443.461 310.828 443.678 310.842 446.641C310.855 449.182 311.623 451.534 313.145 453.694C315.897 456.915 321.666 454.754 324.113 452.369C324.608 451.874 324.887 451.207 324.887 450.514C324.887 444.779 326.749 439.751 330.473 435.429C334 431.331 340.483 424.848 345.762 423.442C346.986 423.129 348.168 422.749 349.31 422.3C350.913 421.689 351.477 420.649 351.002 419.181Z" fill="#FFBE77"/>
<path d="M664.026 420.69C671.556 423.979 676.183 426.241 677.909 427.478C685.479 432.874 691.833 439.397 696.97 447.049C699.253 450.453 701.659 451.187 705.043 448.72C706.443 448.258 707.679 447.531 708.753 446.539C709.242 446.104 709.487 445.554 709.487 444.888C709.487 443.338 709.208 441.83 708.651 440.362C708.461 439.832 708.515 439.329 708.814 438.853C708.977 438.595 709.106 438.303 709.201 437.977C709.364 437.338 709.867 437.603 710.71 438.772C711.077 439.275 711.451 439.438 711.831 439.261C712.375 440.308 713.346 440.994 714.746 441.32C713.455 442.122 711.763 443.889 709.67 446.62C704.275 453.633 700.503 459.076 698.356 462.949C692.179 474.101 678.174 461.094 670.937 454.856C663.245 448.211 657.292 440.009 653.079 430.251L664.026 420.69Z" fill="#FFBE77"/>
<path d="M364.803 429.292C372.332 434.674 380.595 437.895 389.592 438.955C389.925 438.997 390.236 439.147 390.476 439.383C390.715 439.619 390.87 439.927 390.917 440.26C393.547 459.239 381.499 475.507 368.513 486.189C347.006 503.905 315.918 495.669 300.506 474.325C300.655 472.368 301.158 470.71 302.014 469.351C302.381 468.753 302.911 468.488 303.604 468.555C310.841 469.269 318.486 473.509 325.58 470.411C341.862 463.276 353.747 451.683 361.235 435.632C361.362 435.367 361.546 435.135 361.772 434.954C361.999 434.774 362.261 434.65 362.54 434.593C363.6 434.375 364.307 433.757 364.66 432.738C364.905 432.044 364.83 431.392 364.436 430.781C364.014 430.128 364.137 429.632 364.803 429.292Z" fill="#FE7F2D"/>
<path d="M719.761 429.863C726.271 448.346 723.655 464.506 711.912 478.341C689.162 505.128 654.159 497.728 634.263 473.122C627.263 464.465 624.722 454.163 626.638 442.217C626.673 441.967 626.787 441.734 626.966 441.547C627.145 441.361 627.379 441.232 627.637 441.177C636.308 439.37 644.788 435.728 653.079 430.251C657.292 440.009 663.244 448.211 670.937 454.856C678.174 461.094 692.179 474.1 698.356 462.949C700.503 459.076 704.274 453.633 709.67 446.62C711.763 443.889 713.455 442.122 714.746 441.32C718.225 437.27 719.897 433.451 719.761 429.863Z" fill="#FE7F2D"/>
<path d="M555.757 435.775C566.092 436.183 577.732 432.942 580.872 446.804C581.049 447.551 580.858 448.197 580.301 448.741C578.521 450.507 576.462 451.867 574.124 452.818C573.691 452.991 573.321 453.29 573.063 453.676C572.804 454.062 572.67 454.516 572.677 454.979C572.69 463.717 572.636 472.497 572.514 481.317C572.459 485.272 570.496 488.282 566.622 490.348C558.855 492.285 554.268 489.145 554.35 480.889C554.418 472.871 554.431 464.58 554.391 456.018C554.385 455.566 554.206 455.133 553.889 454.813C553.573 454.494 553.146 454.311 552.699 454.306C549.192 454.265 545.584 454.265 541.874 454.306C533.149 454.408 530.988 442.768 539.468 439.363C544.714 437.243 550.144 436.047 555.757 435.775Z" fill="#01020A"/>
<path d="M531.273 487.29C539.971 501.193 539.523 514.254 529.928 526.472C521.787 535.319 512.301 538.608 501.469 536.339L491.582 531.691C481.294 523.835 477.074 513.846 478.922 501.723C482.938 475.487 513.965 468.576 531.273 487.29Z" fill="#01020A"/>
<path d="M491.582 531.691L501.469 536.339C497.188 535.781 493.892 534.232 491.582 531.691Z" fill="#799ABC"/>
<path d="M475.477 567.937C476.333 585.047 478.046 597.537 480.614 605.406C485.249 619.567 488.585 628.333 490.624 631.704C495.924 640.429 500.64 649.467 504.772 658.817C505.913 661.406 507.748 662.425 510.052 663.689C511.37 665.184 511.404 666.509 510.154 667.664C509.637 668.126 509.352 668.704 509.297 669.397C509.148 671.218 508.781 672.999 508.197 674.738C505.118 683.891 500.756 694.064 500.735 703.829C500.715 709.741 502.02 716.937 497.983 721.911C497.713 722.244 497.542 722.647 497.492 723.074C497.442 723.5 497.514 723.932 497.7 724.318C497.886 724.705 498.178 725.031 498.542 725.258C498.906 725.485 499.328 725.604 499.757 725.601L516.045 725.499C516.418 725.493 516.784 725.392 517.107 725.205C517.43 725.018 517.699 724.751 517.889 724.43C518.08 724.108 518.184 723.744 518.193 723.371C518.202 722.997 518.115 722.628 517.941 722.298C512.844 712.615 517.819 707.926 522.915 699.996C525.219 696.388 526.238 691.475 530.743 687.153C532.388 685.59 532.972 683.545 532.496 681.017C532.374 680.419 532.034 680.004 531.477 679.773C529.969 679.175 528.419 678.842 526.829 678.775C526.524 678.763 526.225 678.672 525.962 678.512C525.698 678.352 525.477 678.126 525.321 677.857C523.608 674.84 523.873 671.68 522.365 668.887C520.652 665.748 519.069 662.541 517.615 659.265C517.289 652.674 518.688 647.374 521.814 643.364C528.678 634.558 534.066 624.677 537.98 613.723C538.051 613.533 538.174 613.367 538.335 613.243C538.496 613.119 538.689 613.044 538.891 613.024C539.093 613.005 539.297 613.043 539.478 613.135C539.66 613.226 539.812 613.366 539.917 613.54C540.23 614.083 540.399 614.817 540.427 615.742C536.254 626.043 531.015 635.693 524.709 644.689C521.814 648.821 520.272 652.287 520.081 655.086C519.511 663.383 530.988 670.946 536.553 662.344C544.32 650.377 551.557 641.652 565.175 637.616C575.714 634.497 582.544 632.213 595.733 632.662C601.238 632.845 604.255 630.684 606.966 626.342C608.216 626.383 608.875 627.497 608.943 629.686C608.957 630.338 608.773 630.922 608.393 631.439C605.498 635.292 602.644 637.126 597.507 636.984C589.162 636.725 580.553 637.67 571.678 639.817C570.645 640.062 569.945 640.687 569.578 641.693C567.091 648.583 559.12 648.073 558.998 655.575C558.998 655.779 559.1 655.881 559.304 655.881C559.494 655.881 559.684 655.881 559.875 655.881C560.717 655.881 561.139 656.303 561.139 657.145V658.613C561.139 659.306 560.806 659.721 560.14 659.857C558.794 660.169 557.829 660.944 557.245 662.18C545.475 670.335 536.574 680.752 530.539 693.432C528.365 697.958 526.156 701.946 523.914 705.398C519.083 712.798 516.738 719.404 526.054 724.031C541.385 731.615 542.241 715.163 547.297 707.233C552.148 699.636 557.394 692.44 563.034 685.645C563.261 685.373 563.543 685.154 563.863 685.004C564.183 684.853 564.531 684.774 564.885 684.772C565.238 684.77 565.588 684.845 565.909 684.992C566.23 685.14 566.515 685.355 566.745 685.624C593.96 717.324 595.02 749.35 593.939 789.225C593.899 790.693 591.853 791.182 587.803 790.693C589.23 786.602 590.039 782.423 590.229 778.155C591.615 745.844 586.662 717.528 566.276 691.577C565.433 690.49 564.543 690.449 563.605 691.455C555.641 699.989 549.478 709.863 545.115 721.075C543.811 724.439 541.854 726.722 539.611 729.352C539.095 729.95 538.442 730.256 537.654 730.269L530.58 730.493C529.126 730.534 528.467 731.282 528.603 732.736C528.698 733.742 529.207 734.706 530.132 735.631C532.558 738.057 533.944 741.318 535.758 744.233C537.695 747.352 537.409 750.186 538.266 753.672C538.308 753.847 538.398 754.006 538.525 754.134C538.653 754.261 538.812 754.35 538.987 754.392C539.162 754.434 539.345 754.428 539.516 754.372C539.688 754.317 539.84 754.216 539.958 754.08C547.113 745.64 559.1 742.419 568.702 748.474C588.721 761.113 574.573 787.207 553.412 782.763C548.051 781.641 543.79 778.033 539.55 774.506C539.02 774.058 538.612 774.146 538.327 774.771C536.696 778.421 539.55 786.84 539.693 791.121C535.276 792.86 533.23 789.306 533.557 780.459C533.842 772.318 533.91 764.178 533.76 756.037C533.557 745.491 528.793 737.574 519.47 732.287C506.423 724.887 491.134 731.329 485.67 744.458C484.175 748.032 483.441 753.788 483.469 761.724C483.496 771.007 483.496 780.296 483.469 789.592C483.469 790.312 483.102 790.693 482.368 790.734L479.167 790.876C480.499 784.557 480.798 778.088 480.064 771.469C480.038 771.255 479.952 771.052 479.815 770.885C479.678 770.717 479.497 770.592 479.292 770.524C479.087 770.456 478.867 770.447 478.657 770.499C478.447 770.55 478.257 770.661 478.107 770.817C474.825 774.282 474.111 780.378 469.056 781.866C460.657 784.312 450.077 783.884 443.41 777.177C425.552 759.176 458.741 731.125 473.011 753.203C473.826 754.481 474.682 755.65 475.579 756.71C475.745 756.912 475.965 757.064 476.213 757.147C476.461 757.23 476.728 757.242 476.985 757.18C477.241 757.119 477.476 756.987 477.663 756.799C477.851 756.612 477.983 756.376 478.046 756.118C480.513 746.17 481.206 740.258 488.422 732.328C491.453 728.985 490.746 727.714 486.302 728.516C477.19 730.147 472.419 722.808 468.526 714.735C464.462 706.309 459.726 698.392 454.317 690.986C453.913 690.427 453.307 690.049 452.626 689.931C451.945 689.814 451.242 689.965 450.668 690.354C447.637 692.433 445.096 695.076 443.043 698.284C424.717 726.926 423.249 756.057 426.388 791.039C424.771 791.243 423.534 791.243 422.678 791.039C422.003 790.876 421.402 790.49 420.97 789.944C420.538 789.397 420.3 788.721 420.293 788.022C420.239 778.006 420.327 768.18 420.558 758.544C421.19 731.941 429.303 703.197 450.015 685.155C450.47 684.761 451.057 684.553 451.661 684.572C452.265 684.591 452.841 684.835 453.277 685.257C462.512 694.37 469.382 705.827 475.987 716.896C480.941 725.234 492.092 724.622 495.72 716.162C498.636 709.414 494.09 701.974 497.168 694.37C499.098 689.586 500.885 684.768 502.529 679.916C507.32 665.83 500.368 656.35 491.949 645.505C474.376 622.877 464.102 591.625 460.697 563.126C460.661 562.813 460.711 562.495 460.842 562.208C460.973 561.921 461.179 561.676 461.439 561.497C461.699 561.319 462.003 561.215 462.318 561.197C462.633 561.178 462.946 561.246 463.225 561.393L475.477 567.937Z" fill="white"/>
<path d="M542.179 610.074C529.356 614.212 490.419 579.21 481.409 570.893C483.828 571.355 486.22 571.987 488.585 572.788C502.345 577.477 521.365 575.622 534.82 570.607C540.874 568.365 547.683 567.08 552.453 563.187C555.932 560.36 557.108 561.114 555.98 565.45C553.452 575.235 551.699 584.898 548.07 594.357C546.018 599.698 544.054 604.937 542.179 610.074Z" fill="#FE7F2D"/>
<path d="M475.478 567.937L481.41 570.892C490.42 579.21 529.357 614.212 542.18 610.074C541.949 612.344 541.365 614.233 540.427 615.741C540.4 614.817 540.23 614.083 539.917 613.54C539.812 613.366 539.66 613.226 539.478 613.134C539.297 613.043 539.094 613.005 538.891 613.024C538.689 613.043 538.497 613.119 538.335 613.243C538.174 613.366 538.051 613.533 537.981 613.723C534.066 624.677 528.678 634.557 521.815 643.364C518.689 647.373 517.289 652.674 517.615 659.265C518.254 661.412 517.398 662.724 515.047 663.199C513.47 663.498 511.805 663.662 510.052 663.689C507.748 662.425 505.914 661.406 504.772 658.817C500.64 649.466 495.925 640.429 490.624 631.703C488.586 628.333 485.249 619.567 480.615 605.406C478.046 597.537 476.334 585.047 475.478 567.937Z" fill="#FFBE77"/>
<path d="M408.449 628.442C412.771 632.574 417.208 634.517 421.761 634.272C437.234 633.457 449.18 634.537 461.534 644.058C466.365 647.788 488.382 669.295 478.719 676.063C478.241 676.397 477.655 676.534 477.084 676.447C476.513 676.359 476.003 676.053 475.661 675.594C470.633 668.908 464.334 663.927 456.764 660.652C449.771 657.614 441.76 657.696 433.993 657.594C418.2 657.403 402.422 657.206 386.657 657.003C385.446 656.989 384.281 656.541 383.375 655.739C370.674 644.567 362.133 631.561 361.847 613.805C361.562 595.784 372.55 582.533 388.675 576.152C404.393 569.935 425.614 570.872 438.131 583.654C445.164 590.81 448.772 604.978 453.278 614.987C454.229 617.108 453.719 617.563 451.749 616.353C450.077 615.334 448.385 614.519 446.285 614.233C435.155 612.643 406.105 605.488 407.634 626.668C407.675 627.362 407.946 627.953 408.449 628.442Z" fill="white"/>
<path d="M653.711 621.042C651.081 633.355 643.559 644.914 634.772 653.741C631.001 657.533 626.944 657.757 621.97 657.329L612.409 656.778C615.25 657.186 617.771 656.88 619.972 655.861C620.597 655.576 620.998 655.1 621.175 654.434C623.254 646.742 624.919 638.975 626.17 631.133C627.189 624.711 626.965 618.168 621.664 613.581C611.818 605.059 597.793 598.332 585.051 593.195C583.176 592.441 581.26 592.645 579.221 592.706C578.872 592.706 578.524 592.629 578.202 592.481L572.27 589.668C585.337 573.808 605.437 570.077 624.641 575.337C624.676 575.351 624.706 575.377 624.726 575.409C624.747 575.441 624.757 575.479 624.754 575.517C624.752 575.556 624.738 575.592 624.714 575.622C624.69 575.652 624.657 575.673 624.62 575.683C624.444 575.724 624.267 575.765 624.09 575.806C624.063 575.806 624.117 575.833 624.253 575.887C643.559 583.41 655.118 599.698 653.711 621.042Z" fill="#A0BCD5"/>
<path d="M572.268 589.668L578.201 592.481C578.523 592.629 578.871 592.706 579.22 592.706C581.259 592.645 583.175 592.441 585.05 593.195C597.791 598.332 611.817 605.059 621.663 613.581C626.964 618.168 627.188 624.711 626.169 631.133C624.918 638.975 623.253 646.742 621.174 654.434C620.997 655.1 620.596 655.576 619.971 655.861C617.77 656.88 615.249 657.186 612.408 656.778C595.257 656.67 583.012 656.704 575.673 656.88C574.096 656.921 572.214 657.397 570.026 658.307C566.764 658.443 563.734 659.218 560.934 660.631L557.244 662.181C557.829 660.944 558.793 660.169 560.139 659.857C560.805 659.721 561.138 659.306 561.138 658.613V657.145C561.138 656.303 560.716 655.881 559.874 655.881C559.684 655.881 559.493 655.881 559.303 655.881C559.099 655.881 558.997 655.779 558.997 655.576C559.12 648.074 567.09 648.583 569.578 641.693C569.944 640.687 570.644 640.062 571.677 639.817C580.552 637.67 589.162 636.725 597.506 636.984C602.643 637.126 605.497 635.292 608.392 631.439C608.773 630.922 608.956 630.338 608.943 629.686C608.875 627.498 608.215 626.383 606.965 626.342C610.798 615.782 603.214 612.317 594.346 611.705C583.814 610.971 573.811 612.888 564.338 617.454C564.208 617.519 564.061 617.543 563.917 617.524C563.773 617.505 563.637 617.443 563.528 617.347C563.419 617.251 563.341 617.125 563.303 616.984C563.266 616.843 563.272 616.695 563.319 616.557L572.268 589.668Z" fill="#F0E4DA"/>
<path d="M348.8 657.818C342.371 656.391 335.637 655.922 328.597 656.411C328.429 656.422 328.261 656.385 328.112 656.305C327.964 656.225 327.841 656.104 327.758 655.958C327.675 655.811 327.635 655.643 327.643 655.475C327.651 655.306 327.706 655.143 327.802 655.005C328.699 653.673 330.14 653.129 332.124 653.374C335.1 653.754 338.6 653.748 342.623 653.353C345.694 653.054 346.754 651.437 345.803 648.502L343.785 642.365C342.833 639.443 340.822 637.908 337.75 637.758C330.806 637.446 323.664 639.002 316.325 642.427C313.206 643.894 310.107 646.32 306.784 648.196C306.146 648.563 305.602 649.045 305.153 649.643L301.137 655.127C300.73 655.684 300.179 655.99 299.486 656.044L294.247 656.391C297.359 630.052 311.765 616.183 337.465 614.783C338.634 614.729 339.293 615.28 339.442 616.435C340.523 625.18 341.889 633.783 346.088 641.611C348.929 646.911 352.17 651.933 355.812 656.676C355.91 656.806 355.969 656.961 355.984 657.123C355.998 657.285 355.967 657.447 355.894 657.59C355.822 657.733 355.71 657.852 355.573 657.932C355.436 658.012 355.278 658.05 355.119 658.042L348.8 657.818Z" fill="white"/>
<path d="M664.963 657.369C670.481 657.641 675.931 657.267 681.312 656.248C682.835 655.963 685.831 655.725 690.302 655.535C694.352 655.371 698.063 654.019 701.433 651.478C712.645 643.079 698.538 625.853 690.18 621.857C685.981 619.832 681.781 617.692 677.582 615.436C704.301 617.61 718.109 631.384 719.006 656.758C719.011 656.897 718.989 657.035 718.94 657.165C718.891 657.295 718.816 657.413 718.721 657.513C718.625 657.612 718.511 657.69 718.385 657.743C718.258 657.795 718.123 657.821 717.986 657.818L664.963 657.369Z" fill="#799ABC"/>
<path d="M677.582 615.436C681.782 617.692 685.981 619.832 690.181 621.857C698.539 625.853 712.646 643.079 701.434 651.478C698.063 654.019 694.353 655.371 690.303 655.535C685.832 655.725 682.835 655.963 681.313 656.248C675.931 657.267 670.481 657.641 664.963 657.369C664.229 657.75 663.584 657.879 663.027 657.757C662.279 657.58 662.116 657.172 662.537 656.533C667.131 649.412 671.025 641.366 674.219 632.397C676.148 626.96 677.27 621.307 677.582 615.436Z" fill="#F0E4DA"/>
<path d="M653.71 621.042C654.648 631.051 650.204 638.696 644.414 646.973C641.622 650.968 637.259 653.19 633.875 657.084C633.66 657.332 633.39 657.527 633.086 657.654C632.782 657.782 632.452 657.838 632.122 657.818L621.97 657.329C626.944 657.757 631.001 657.533 634.772 653.741C643.558 644.914 651.081 633.355 653.71 621.042Z" fill="#25597D"/>
<path d="M348.8 657.818C332.695 657.519 316.583 657.573 300.465 657.981C298.508 658.035 296.435 657.505 294.247 656.391L299.486 656.044C300.179 655.99 300.73 655.684 301.137 655.127L305.153 649.643C305.602 649.045 306.146 648.562 306.784 648.195C310.107 646.32 313.206 643.894 316.325 642.426C323.664 639.002 330.806 637.445 337.75 637.758C340.822 637.907 342.833 639.443 343.785 642.365L345.803 648.501C346.754 651.437 345.694 653.054 342.623 653.353C338.6 653.747 335.1 653.754 332.124 653.374C330.14 653.129 328.699 653.673 327.802 655.004C327.706 655.143 327.651 655.306 327.643 655.475C327.635 655.643 327.675 655.81 327.758 655.957C327.841 656.104 327.964 656.225 328.112 656.305C328.261 656.385 328.429 656.422 328.597 656.411C335.637 655.922 342.371 656.391 348.8 657.818Z" fill="#F0E4DA"/>
<path d="M570.027 658.307C567.336 659.748 564.305 660.522 560.935 660.631C563.734 659.218 566.765 658.443 570.027 658.307Z" fill="#25597D"/>
<path d="M517.615 659.265C519.069 662.54 520.652 665.748 522.365 668.887C523.873 671.68 523.608 674.84 525.321 677.857C525.477 678.126 525.698 678.351 525.962 678.512C526.225 678.672 526.524 678.762 526.829 678.774C528.419 678.842 529.969 679.175 531.477 679.773C532.034 680.004 532.374 680.419 532.497 681.017C532.972 683.545 532.388 685.59 530.743 687.153C526.238 691.475 525.219 696.388 522.915 699.996C517.819 707.926 512.845 712.615 517.941 722.298C518.115 722.628 518.202 722.997 518.193 723.371C518.184 723.744 518.08 724.108 517.889 724.429C517.699 724.751 517.43 725.018 517.107 725.205C516.784 725.392 516.418 725.493 516.045 725.499L499.757 725.601C499.328 725.604 498.906 725.485 498.542 725.258C498.178 725.031 497.886 724.705 497.7 724.318C497.514 723.931 497.442 723.5 497.492 723.073C497.542 722.647 497.713 722.244 497.983 721.911C502.02 716.937 500.715 709.741 500.735 703.829C500.756 694.064 505.118 683.891 508.197 674.738C508.781 672.998 509.148 671.218 509.297 669.397C509.352 668.704 509.637 668.126 510.154 667.664C511.404 666.509 511.37 665.184 510.052 663.689C511.805 663.662 513.47 663.499 515.046 663.2C517.397 662.724 518.254 661.412 517.615 659.265Z" fill="#F0E4DA"/>
<path d="M629.758 678.611C629.105 678.802 629.445 679.141 630.777 679.631C631.824 680.011 631.864 680.494 630.899 681.078C629.717 681.785 628.12 682.206 626.109 682.342C617.567 682.933 608.271 682.24 599.933 684.013C599.673 684.067 599.43 684.183 599.224 684.352C599.019 684.521 598.858 684.737 598.756 684.982C598.653 685.227 598.612 685.494 598.636 685.758C598.66 686.023 598.749 686.278 598.894 686.501C604.969 695.919 611.839 706.132 614.998 716.345C617.703 725.125 618.987 734.19 618.851 743.54C618.77 749.629 620.571 754.582 624.254 758.401L617.18 758.218C616.459 758.204 616.065 757.837 615.997 757.117C613.062 727.863 609.78 704.42 590.597 681.058C590.421 680.837 590.311 680.571 590.279 680.291C590.247 680.011 590.295 679.727 590.416 679.472C590.537 679.218 590.726 679.002 590.964 678.85C591.201 678.698 591.477 678.615 591.759 678.611H629.758Z" fill="white"/>
<path d="M629.757 678.611L688.59 678.632C689.369 678.632 690.116 678.943 690.666 679.497C691.217 680.052 691.526 680.804 691.526 681.588L691.322 757.668C691.322 757.814 691.293 757.959 691.236 758.094C691.18 758.228 691.097 758.351 690.992 758.453C690.888 758.556 690.764 758.636 690.628 758.691C690.492 758.745 690.347 758.771 690.201 758.768L664.841 758.524C664.682 758.52 664.526 758.482 664.383 758.413C664.241 758.344 664.114 758.246 664.012 758.125C663.91 758.003 663.834 757.862 663.791 757.709C663.748 757.556 663.737 757.396 663.76 757.239C664.916 749.887 664.63 742.704 662.904 735.692C665.004 728.047 663.495 714.429 652.691 715.795C644.047 716.896 643.762 727.639 647.003 733.673C646.066 735.793 644.761 737.322 644.761 739.83C644.734 745.606 644.849 751.491 645.107 757.484C645.113 757.613 645.092 757.742 645.045 757.863C644.998 757.984 644.927 758.094 644.836 758.188C644.744 758.281 644.634 758.355 644.513 758.406C644.392 758.457 644.261 758.483 644.129 758.483L624.253 758.401C620.57 754.582 618.769 749.629 618.85 743.54C618.986 734.19 617.702 725.125 614.997 716.345C611.838 706.132 604.968 695.919 598.893 686.501C598.748 686.278 598.66 686.023 598.636 685.758C598.612 685.494 598.653 685.227 598.755 684.982C598.858 684.737 599.018 684.521 599.224 684.352C599.429 684.183 599.672 684.067 599.932 684.013C608.27 682.24 617.566 682.933 626.108 682.342C628.119 682.206 629.716 681.785 630.899 681.078C631.863 680.494 631.823 680.011 630.776 679.631C629.444 679.141 629.105 678.802 629.757 678.611Z" fill="#F0E4DA"/>
<path d="M302.604 679.59L301.544 711.698C301.542 711.811 301.51 711.922 301.452 712.019C301.393 712.116 301.311 712.196 301.212 712.252C301.113 712.307 301.002 712.336 300.889 712.336C300.775 712.335 300.664 712.305 300.566 712.248L300.117 711.983C299.302 711.521 298.853 710.821 298.772 709.883C298.16 702.728 300.158 696.938 299.18 688.886C298.758 685.407 296.815 683.891 293.349 684.34L288.885 684.911C285.487 685.346 284.264 687.207 285.215 690.496C285.949 693.065 286.527 695.94 286.948 699.12C287.662 704.522 289.863 710.617 289.741 716.774C289.456 730.867 288.864 744.75 287.967 758.422L280.527 758.402C279.816 758.397 279.136 758.117 278.629 757.622C278.123 757.128 277.831 756.456 277.815 755.751C277.408 740.931 277.795 725.152 274.941 711.494C272.712 700.784 269.471 690.381 265.217 680.283C265.157 680.134 265.134 679.972 265.151 679.812C265.168 679.651 265.225 679.498 265.315 679.365C265.406 679.232 265.528 679.123 265.671 679.049C265.814 678.974 265.973 678.936 266.134 678.938L302.604 679.59Z" fill="white"/>
<path d="M402.108 679.264C395.096 689.62 389.693 700.017 385.902 710.454C385.725 711.976 385.256 713.07 384.495 713.736C384.203 713.993 383.842 714.16 383.455 714.217C383.069 714.275 382.673 714.221 382.314 714.062L369.002 708.273C367.656 707.688 366.345 707.756 365.067 708.477L352.917 715.347C352.244 715.731 351.685 716.286 351.298 716.956C350.911 717.626 350.71 718.387 350.716 719.159L350.858 732.511L351.225 758.381L326.681 758.402C325.836 758.402 325.025 758.065 324.425 757.465C323.825 756.866 323.486 756.052 323.48 755.201L323.113 682.199C323.111 681.8 323.187 681.403 323.338 681.034C323.488 680.664 323.71 680.328 323.991 680.045C324.272 679.763 324.605 679.539 324.973 679.388C325.34 679.236 325.734 679.159 326.131 679.162L402.108 679.264Z" fill="white"/>
<path d="M750.808 680.079C733.908 702.973 735.417 731.187 735.274 757.933C735.269 758.124 735.189 758.305 735.052 758.439C734.915 758.572 734.731 758.646 734.54 758.646L713.808 758.381C713.567 758.379 713.329 758.328 713.107 758.232C712.885 758.137 712.685 757.998 712.516 757.824C712.348 757.649 712.215 757.443 712.125 757.217C712.035 756.991 711.991 756.749 711.993 756.506C712.034 735.087 712.048 713.689 712.034 692.311C712.034 683.096 717.049 679.631 726.039 679.508C734.193 679.413 742.293 679.305 750.339 679.182C750.443 679.182 750.546 679.211 750.635 679.265C750.724 679.319 750.797 679.396 750.845 679.489C750.894 679.581 750.916 679.685 750.909 679.789C750.903 679.893 750.867 679.994 750.808 680.079Z" fill="#799ABC"/>
<path d="M402.109 679.264L428.121 679.488C428.38 679.488 428.42 679.583 428.244 679.774C407.674 701.423 399.214 726.172 399.133 755.772C399.133 756.401 398.884 757.005 398.441 757.451C397.998 757.898 397.397 758.152 396.768 758.157L373.018 758.381C372.682 758.385 372.349 758.319 372.039 758.189C371.729 758.058 371.449 757.866 371.216 757.624C370.983 757.381 370.802 757.094 370.685 756.779C370.567 756.464 370.515 756.128 370.531 755.792L370.939 746.945C371.211 748.222 372.522 748.324 374.874 747.251C375.488 746.962 376.188 746.918 376.831 747.128C382.274 748.82 385.596 746.272 386.208 740.707C387.282 730.799 387.18 720.715 385.902 710.454C389.694 700.017 395.096 689.62 402.109 679.264Z" fill="#FE6667"/>
<path d="M302.605 679.59L303.685 757.158C303.699 757.987 303.291 758.401 302.462 758.401L287.968 758.422C288.864 744.75 289.456 730.867 289.741 716.774C289.863 710.617 287.662 704.522 286.948 699.12C286.527 695.939 285.949 693.065 285.215 690.496C284.264 687.207 285.487 685.345 288.885 684.911L293.349 684.34C296.815 683.891 298.758 685.407 299.18 688.886C300.158 696.938 298.16 702.728 298.772 709.883C298.854 710.821 299.302 711.521 300.118 711.983L300.566 712.248C300.664 712.305 300.775 712.335 300.889 712.335C301.002 712.336 301.113 712.307 301.212 712.252C301.311 712.196 301.393 712.116 301.452 712.019C301.51 711.922 301.542 711.811 301.545 711.698L302.605 679.59Z" fill="#F0E4DA"/>
<path d="M479.167 790.876L426.388 791.039C423.249 756.057 424.716 726.926 443.043 698.283C445.096 695.076 447.637 692.433 450.668 690.353C451.242 689.965 451.945 689.813 452.626 689.931C453.307 690.049 453.913 690.427 454.317 690.985C459.726 698.392 464.462 706.309 468.526 714.735C472.419 722.808 477.19 730.147 486.302 728.516C490.746 727.714 491.453 728.985 488.422 732.328C481.206 740.258 480.512 746.17 478.046 756.118C477.983 756.376 477.851 756.611 477.663 756.799C477.476 756.987 477.241 757.118 476.985 757.18C476.728 757.241 476.461 757.23 476.213 757.147C475.964 757.064 475.745 756.912 475.579 756.709C474.682 755.649 473.826 754.48 473.011 753.203C458.74 731.125 425.552 759.176 443.41 777.177C450.076 783.884 460.657 784.312 469.056 781.865C474.111 780.377 474.825 774.282 478.107 770.816C478.257 770.66 478.447 770.55 478.657 770.498C478.867 770.446 479.087 770.455 479.292 770.524C479.497 770.592 479.678 770.717 479.815 770.884C479.951 771.052 480.038 771.254 480.064 771.469C480.798 778.087 480.499 784.556 479.167 790.876Z" fill="#F0E4DA"/>
<path d="M587.803 790.693L539.692 791.121C539.55 786.84 536.696 778.42 538.326 774.771C538.612 774.146 539.02 774.058 539.55 774.506C543.79 778.033 548.051 781.641 553.412 782.763C574.573 787.207 588.72 761.113 568.701 748.474C559.1 742.419 547.113 745.64 539.957 754.08C539.84 754.216 539.687 754.317 539.516 754.372C539.345 754.427 539.162 754.434 538.987 754.392C538.812 754.35 538.652 754.261 538.525 754.133C538.398 754.006 538.308 753.847 538.265 753.672C537.409 750.186 537.694 747.352 535.758 744.233C533.943 741.318 532.557 738.056 530.131 735.631C529.207 734.706 528.698 733.742 528.602 732.736C528.466 731.282 529.126 730.534 530.58 730.493L537.654 730.269C538.442 730.255 539.094 729.95 539.611 729.352C541.853 726.722 543.81 724.439 545.115 721.075C549.478 709.863 555.641 699.989 563.605 691.455C564.543 690.449 565.433 690.49 566.275 691.577C586.661 717.528 591.615 745.844 590.229 778.155C590.039 782.423 589.23 786.602 587.803 790.693Z" fill="#F0E4DA"/>
<path d="M385.902 710.454C387.179 720.715 387.281 730.799 386.208 740.706C385.596 746.272 382.273 748.82 376.83 747.128C376.188 746.918 375.488 746.962 374.873 747.25C372.522 748.324 371.21 748.222 370.939 746.945L371.061 742.46C370.952 743.615 371.122 744.634 371.571 745.517C371.951 746.279 372.495 746.421 373.201 745.946C373.813 745.538 374.092 744.818 374.037 743.785C373.915 741.787 374.071 739.803 374.506 737.832C374.639 737.21 374.567 736.566 374.302 735.997C373.324 733.904 372.08 732.063 370.572 730.473C365.455 725.05 355.527 728.353 350.859 732.511L350.716 719.159C350.71 718.386 350.911 717.626 351.298 716.956C351.685 716.286 352.244 715.73 352.918 715.346L365.068 708.476C366.345 707.756 367.657 707.688 369.002 708.273L382.314 714.062C382.673 714.221 383.069 714.275 383.455 714.217C383.842 714.159 384.203 713.992 384.495 713.736C385.256 713.07 385.725 711.976 385.902 710.454Z" fill="#FF9486"/>
<path d="M662.905 735.692L659.215 732.287C659.854 732.083 660.126 731.696 660.031 731.125C659.908 730.405 659.507 729.916 658.828 729.658C654.982 728.19 651.394 728.638 648.064 731.003C647.765 731.22 647.704 731.492 647.881 731.818C648.044 732.104 648.234 732.233 648.451 732.206L647.004 733.673C643.763 727.639 644.048 716.896 652.692 715.795C663.496 714.429 665.005 728.047 662.905 735.692Z" fill="#799ABC"/>
<path d="M371.061 742.46C368.981 731.981 363.457 728.726 354.487 732.695C351.905 733.836 350.729 736.344 350.96 740.217C351.287 745.966 351.375 752.021 351.225 758.381L350.858 732.511C355.527 728.353 365.455 725.05 370.572 730.473C372.08 732.063 373.324 733.904 374.302 735.997C374.567 736.566 374.639 737.21 374.506 737.832C374.071 739.803 373.915 741.787 374.037 743.785C374.092 744.818 373.813 745.538 373.201 745.946C372.495 746.421 371.951 746.279 371.57 745.517C371.122 744.634 370.952 743.615 371.061 742.46Z" fill="#F0E4DA"/>
<path d="M659.214 732.287C655.708 731.105 652.12 731.078 648.451 732.206C648.233 732.233 648.043 732.104 647.88 731.819C647.703 731.492 647.764 731.221 648.063 731.003C651.393 728.638 654.981 728.19 658.827 729.658C659.506 729.916 659.907 730.405 660.03 731.125C660.125 731.696 659.853 732.084 659.214 732.287Z" fill="#C0D5E6"/>
<path d="M512.09 761.663L512.926 788.552C512.937 788.903 512.877 789.253 512.749 789.581C512.622 789.908 512.429 790.206 512.184 790.458C511.938 790.709 511.644 790.908 511.32 791.043C510.996 791.178 510.647 791.246 510.296 791.243H506.361C506.017 791.243 505.676 791.175 505.358 791.043C505.04 790.91 504.752 790.716 504.509 790.472C504.267 790.227 504.075 789.937 503.945 789.618C503.815 789.299 503.749 788.958 503.752 788.613L503.854 762.968C503.855 762.453 504.009 761.949 504.295 761.521C504.582 761.093 504.989 760.76 505.464 760.562L508.482 759.319C508.873 759.157 509.298 759.092 509.72 759.131C510.142 759.17 510.548 759.31 510.903 759.541C511.258 759.772 511.552 760.086 511.759 760.456C511.966 760.825 512.079 761.24 512.09 761.663Z" fill="#799ABC"/>
<path d="M644.745 789.122C644.749 789.49 644.606 789.844 644.349 790.107C644.092 790.369 643.741 790.519 643.373 790.523L618.83 790.78C618.648 790.782 618.467 790.748 618.298 790.68C618.129 790.612 617.976 790.512 617.845 790.384C617.715 790.257 617.612 790.105 617.54 789.938C617.469 789.77 617.431 789.59 617.429 789.408L617.338 780.684C617.334 780.316 617.476 779.962 617.734 779.699C617.991 779.437 618.342 779.287 618.71 779.283L643.253 779.026C643.435 779.024 643.615 779.058 643.784 779.126C643.953 779.194 644.107 779.294 644.237 779.422C644.367 779.549 644.471 779.701 644.542 779.868C644.614 780.036 644.652 780.216 644.653 780.398L644.745 789.122Z" fill="#F0E4DA"/>
<path d="M665.473 778.97L689.977 778.93C690.083 778.93 690.188 778.951 690.286 778.992C690.384 779.033 690.472 779.094 690.546 779.17C690.62 779.246 690.679 779.336 690.717 779.435C690.756 779.533 690.775 779.639 690.772 779.745L690.548 789.856C690.542 790.064 690.456 790.261 690.308 790.406C690.159 790.55 689.96 790.631 689.753 790.631L665.881 790.692C665.776 790.695 665.672 790.677 665.575 790.64C665.477 790.602 665.388 790.546 665.313 790.474C665.237 790.402 665.176 790.316 665.134 790.22C665.091 790.125 665.068 790.022 665.065 789.918L664.678 779.786C664.675 779.68 664.694 779.574 664.733 779.475C664.771 779.377 664.829 779.287 664.904 779.211C664.978 779.135 665.066 779.074 665.164 779.033C665.262 778.992 665.367 778.97 665.473 778.97Z" fill="white"/>
<path d="M398.439 788.145C398.439 788.723 398.209 789.278 397.8 789.687C397.391 790.096 396.836 790.326 396.258 790.326H373.996C373.418 790.326 372.863 790.096 372.454 789.687C372.045 789.278 371.815 788.723 371.815 788.145V781.866C371.815 781.287 372.045 780.732 372.454 780.323C372.863 779.914 373.418 779.684 373.996 779.684H396.258C396.836 779.684 397.391 779.914 397.8 780.323C398.209 780.732 398.439 781.287 398.439 781.866V788.145Z" fill="#25597D"/>
<path d="M735.141 788.368C735.14 788.585 735.097 788.799 735.013 788.999C734.929 789.199 734.807 789.381 734.653 789.534C734.499 789.687 734.317 789.808 734.116 789.89C733.916 789.972 733.701 790.014 733.484 790.013L713.995 789.945C713.557 789.944 713.138 789.768 712.829 789.458C712.521 789.147 712.348 788.726 712.35 788.288L712.373 781.683C712.374 781.467 712.417 781.252 712.501 781.052C712.584 780.852 712.707 780.67 712.86 780.517C713.014 780.365 713.197 780.244 713.397 780.161C713.598 780.079 713.813 780.037 714.03 780.038L733.519 780.106C733.956 780.107 734.376 780.283 734.684 780.594C734.993 780.904 735.165 781.325 735.164 781.763L735.141 788.368Z" fill="#25597D"/>
<path d="M290.811 268.224C289.075 268.042 287.49 267.1 286.405 265.606C285.32 264.112 284.825 262.188 285.028 260.258C285.128 259.302 285.397 258.373 285.819 257.525C286.241 256.676 286.808 255.925 287.487 255.313C288.166 254.701 288.944 254.241 289.777 253.958C290.61 253.676 291.482 253.577 292.342 253.668C294.078 253.85 295.663 254.792 296.748 256.286C297.833 257.78 298.328 259.704 298.125 261.634C298.025 262.59 297.756 263.519 297.334 264.367C296.912 265.216 296.345 265.967 295.666 266.579C294.987 267.191 294.209 267.652 293.376 267.934C292.543 268.216 291.671 268.315 290.811 268.224Z" fill="#F5FCFF"/>
<path d="M562.361 749.717L554.9 749.839" stroke="#804B48" stroke-width="2"/>
<path d="M432.483 422.096C424.471 421.79 421.393 415.369 427.06 409.498C434.521 401.71 454.235 401.792 462.022 403.402C469.993 405.074 497.84 413.942 486.913 426.744C483.135 431.161 478.609 431.942 473.336 429.088C465.997 425.134 459.27 422.891 450.422 422.667C444.443 422.517 438.463 422.327 432.483 422.096Z" fill="#01020A"/>
<path d="M463.796 454.53C462.925 455.823 462.464 457.135 462.491 458.24C462.682 466.163 462.593 474.195 462.226 482.336C461.676 494.751 444.307 494.119 443.859 480.807C443.709 476.581 443.736 469.378 443.94 459.198C444.022 454.836 442.289 451.268 438.13 450.127C437.704 450.01 437.307 449.804 436.966 449.522C436.626 449.24 436.35 448.888 436.157 448.49C435.964 448.092 435.858 447.658 435.847 447.216C435.835 446.774 435.919 446.334 436.092 445.927C438.62 439.913 442.574 436.55 449.383 435.816C457.354 434.96 484.753 433.369 480.553 449.739C479.147 455.325 470.931 453.918 466.589 453.613C465.203 453.517 464.272 453.823 463.796 454.53Z" fill="#01020A"/>
<path d="M518.307 507.105C518.307 509.819 517.229 512.422 515.31 514.341C513.391 516.261 510.788 517.339 508.074 517.339C505.359 517.339 502.756 516.261 500.837 514.341C498.918 512.422 497.84 509.819 497.84 507.105C497.84 504.391 498.918 501.788 500.837 499.869C502.756 497.95 505.359 496.871 508.074 496.871C510.788 496.871 513.391 497.95 515.31 499.869C517.229 501.788 518.307 504.391 518.307 507.105Z" fill="#FE6667"/>
<path d="M562.361 749.717L554.9 749.839C557.387 748.902 559.874 748.861 562.361 749.717Z" fill="#FF9486"/>
<path d="M472.521 760.717C472.951 762.55 473.007 764.451 472.686 766.312C472.365 768.173 471.673 769.958 470.65 771.565C469.627 773.172 468.293 774.569 466.723 775.677C465.154 776.785 463.38 777.581 461.504 778.022C459.627 778.462 457.684 778.537 455.786 778.242C453.888 777.947 452.072 777.289 450.441 776.305C448.81 775.32 447.396 774.029 446.281 772.505C445.166 770.98 444.371 769.253 443.941 767.421C443.511 765.588 443.456 763.687 443.777 761.826C444.098 759.965 444.79 758.18 445.813 756.573C446.836 754.966 448.17 753.569 449.739 752.461C451.309 751.353 453.082 750.556 454.959 750.116C456.835 749.676 458.778 749.601 460.676 749.896C462.575 750.19 464.391 750.848 466.022 751.833C467.653 752.817 469.066 754.108 470.181 755.633C471.296 757.157 472.092 758.885 472.521 760.717Z" fill="#01020A"/>
<path d="M554.9 749.839L562.361 749.717C576.325 752.979 578.405 771.815 564.767 777.177C542.648 785.861 534.555 754.691 554.9 749.839Z" fill="#01020A"/>
<path d="M461.472 651.253C467.52 654.012 471.726 658.504 474.091 664.728C474.176 664.964 474.185 665.221 474.117 665.463C474.048 665.704 473.906 665.918 473.711 666.072C473.516 666.227 473.277 666.314 473.03 666.322C472.783 666.329 472.541 666.257 472.338 666.114C466.752 662.343 461.003 657.471 454.867 655.595C448.67 653.693 441.208 652.816 432.483 652.966C418.05 653.197 403.814 653.163 389.775 652.864C388.412 652.824 387.096 652.345 386.024 651.498C367.554 636.759 369.96 610.441 390.631 598.311C401.823 591.747 417.174 591.625 429.833 594.234C437.757 595.878 443.05 600.703 445.714 608.708C445.785 608.929 445.797 609.166 445.748 609.394C445.699 609.622 445.591 609.832 445.435 610.002C445.279 610.173 445.081 610.298 444.861 610.364C444.641 610.431 444.408 610.436 444.185 610.38C433.788 607.811 417.418 603.102 408.367 611.562C403.617 616.006 403.78 621.266 402.822 626.709C402.713 627.334 402.788 627.932 403.046 628.503C406.858 636.718 422.82 639.144 431.056 639.572C439.088 639.98 445.225 641.978 452.645 643.608C455.39 644.22 457.877 646.367 460.106 650.05C460.432 650.594 460.888 650.995 461.472 651.253Z" fill="#F0E4DA"/>
<path d="M329.27 750.655C328.835 750.274 328.658 749.819 328.74 749.289C328.821 748.827 328.855 748.542 328.842 748.433C328.515 728.414 328.509 708.225 328.821 687.867C328.848 686.073 329.766 685.169 331.573 685.155L384.006 684.809C384.271 684.812 384.53 684.892 384.751 685.039C384.972 685.187 385.145 685.396 385.248 685.64C385.352 685.885 385.383 686.154 385.336 686.416C385.289 686.677 385.167 686.919 384.984 687.112L369.002 703.462C367.697 704.794 366.127 705.561 364.293 705.765C362.675 705.928 360.725 706.887 358.442 708.64C355.139 711.168 348.127 711.31 347.78 716.244C347.617 718.459 347.338 720.661 346.944 722.849C346.781 723.773 346.978 724.547 347.536 725.173C348.025 725.716 348.263 726.362 348.249 727.109L347.719 751.389C347.715 751.875 347.526 752.342 347.19 752.697C346.854 753.052 346.395 753.269 345.905 753.305L331.757 754.222C330.982 754.277 330.391 753.971 329.983 753.305C329.453 752.462 329.215 751.579 329.27 750.655Z" fill="#F0E4DA"/>
</svg>
