<svg width="1024" height="1024" viewBox="0 0 1024 1024" fill="none" xmlns="http://www.w3.org/2000/svg">
<rect width="1024" height="1024" fill="white"/>
<path d="M751.861 802.261L730.094 802.569" stroke="#516273" stroke-width="2"/>
<path d="M751.861 802.261L730.094 802.569C718.271 801.92 703.851 802.706 694.761 802.689C574.697 802.313 454.626 801.96 334.55 801.629C315.529 801.584 296.507 801.76 277.485 802.159C272.861 802.261 269.449 801.663 267.251 800.365C260.998 796.692 259.87 785.791 266.38 781.639C268.259 780.443 271.124 779.84 274.974 779.828C288.403 779.817 301.701 779.806 314.868 779.794C315.061 779.796 315.251 779.75 315.422 779.661C315.593 779.572 315.741 779.442 315.851 779.283C315.962 779.124 316.033 778.939 316.058 778.746C316.083 778.552 316.062 778.355 315.996 778.171C307.385 754.798 301.399 730.902 298.039 706.481C294.502 680.733 290.453 653.943 288.334 628.947C283.22 568.738 283.26 508.513 288.454 448.269C289.462 436.634 291.786 424.982 293.938 413.449C302.703 366.806 320.899 322.76 350.303 285.292C355.622 278.526 361.483 272.085 367.884 265.968C369.239 264.67 370.68 264.573 372.207 265.678C374.803 267.569 377.44 270.029 380.117 273.059C393.74 288.413 405.591 304.963 415.672 322.709C415.722 322.802 415.799 322.878 415.892 322.927C415.986 322.976 416.092 322.996 416.199 322.985C416.305 322.975 416.407 322.933 416.493 322.866C416.578 322.799 416.643 322.709 416.68 322.607C430.45 282.405 460.059 245.295 492.949 219.018C497.374 215.481 503.764 209.484 509.624 213.14C516.128 217.207 522.307 221.712 528.162 226.655C558.221 252.089 580.819 282.951 595.957 319.241C595.987 319.311 596.037 319.371 596.1 319.414C596.163 319.458 596.237 319.483 596.313 319.486C596.39 319.49 596.466 319.472 596.532 319.434C596.599 319.397 596.654 319.342 596.691 319.275C604.909 304.274 619.278 294.194 635.919 290.008C665.443 282.575 689.208 294.347 708.224 316.849C708.391 317.051 708.614 317.199 708.867 317.275C709.119 317.351 709.389 317.351 709.643 317.276C729.735 311.228 742.071 332.977 734.639 349.567C734.388 350.114 734.49 350.581 734.946 350.968C744.924 359.579 749.161 372.94 740.003 383.67C736.7 387.554 732.389 389.405 727.07 389.222C726.398 389.2 726.21 389.49 726.506 390.094C731.438 400.527 734.132 410.591 734.587 420.284C735.111 431.264 735.088 454.967 734.519 491.393C734.28 507.504 731.785 525.598 717.16 534.021C711.607 537.199 704.585 537.763 698.298 537.028C698.162 537.014 698.025 537.036 697.901 537.092C697.777 537.149 697.67 537.237 697.593 537.347C697.516 537.458 697.471 537.587 697.462 537.72C697.454 537.854 697.483 537.986 697.546 538.104C707.148 556.608 718.424 578.768 720.833 602.26C721.198 605.78 721.397 617.158 721.431 636.397C721.477 664.223 721.477 692.049 721.431 719.876C721.431 720.479 721.733 720.764 722.337 720.73C726.882 720.548 730.555 721.823 733.357 724.557C747.641 738.448 734.861 758.847 719.091 763.819C718.601 763.967 718.481 764.269 718.732 764.725L725.891 777.949C726.563 779.19 727.599 779.823 729 779.845C735.675 779.937 742.595 779.885 749.759 779.692C754.441 779.566 757.784 781.258 759.788 784.766C763.957 792.061 758.934 799.408 751.861 802.261Z" fill="#010107"/>
<path d="M751.861 802.261C744.969 803.662 737.714 803.765 730.094 802.569L751.861 802.261Z" fill="#A0C2DF"/>
<path d="M519.38 808.446L732.024 809.078C732.102 809.08 732.178 809.1 732.246 809.136C732.314 809.172 732.373 809.224 732.418 809.287C732.463 809.35 732.493 809.423 732.504 809.499C732.516 809.576 732.51 809.654 732.485 809.728L732.263 810.377C732.103 810.85 731.798 811.26 731.39 811.551C730.983 811.842 730.493 811.999 729.991 812L290.914 811.829C290.682 811.828 290.454 811.775 290.245 811.672C290.037 811.57 289.855 811.421 289.712 811.237C289.569 811.053 289.469 810.838 289.42 810.61C289.371 810.381 289.373 810.144 289.427 809.916L289.547 809.437C289.923 807.922 290.891 807.154 292.451 807.131C298.727 807.04 306.496 807.233 315.756 807.712C333.809 808.646 378.231 808.993 449.022 808.754C471.899 808.668 494.845 808.788 517.791 808.891C518.03 808.891 518.24 808.834 518.423 808.72C518.719 808.537 519.038 808.446 519.38 808.446Z" fill="#B7CEE2"/>
<path d="M499.407 412.219C499.829 413.221 500.444 414.036 501.252 414.662C501.742 415.038 501.987 414.919 501.987 414.303V413.518C501.987 413.324 502.072 413.267 502.243 413.347C502.403 413.426 502.557 413.5 502.705 413.569C503.012 413.717 503.166 413.62 503.166 413.278C503.485 396.911 503.587 380.548 503.473 364.192C503.439 359.699 501.85 353.838 503.456 347.67C503.821 346.281 503.57 344.925 502.705 343.604C502.42 343.16 502.391 342.699 502.619 342.22C503.132 341.161 503.109 340.016 502.551 338.786C502.438 338.539 502.38 338.272 502.38 338.004C502.38 337.736 502.438 337.472 502.551 337.231C503.348 335.523 503.656 333.729 503.473 331.849C503.416 331.234 503.115 330.773 502.568 330.465C500.21 329.167 501.03 327.134 500.74 325.135C499.92 319.736 499.339 314.257 498.997 308.699" stroke="#0DB6D9" stroke-width="2"/>
<path d="M494.657 727.239C488.643 722.74 482.76 718.378 477.008 714.152C473.238 711.373 469.872 708.565 466.91 705.729C459.734 698.86 456.3 695.068 453.464 686.388C452.701 684.076 451.328 680.796 449.346 676.547C447.103 671.752 445.799 666.649 445.434 661.238C445.286 659.086 443.35 655.879 439.625 651.619" stroke="#F6FCFA" stroke-width="2"/>
<path d="M494.982 742.856L494.674 743.676C494.652 743.734 494.616 743.787 494.569 743.828C494.522 743.869 494.465 743.897 494.404 743.911C494.343 743.925 494.279 743.923 494.219 743.905C494.159 743.888 494.104 743.856 494.059 743.812C493.957 743.71 493.849 743.602 493.735 743.488C493.575 743.328 493.404 743.317 493.222 743.454C490.545 745.356 487.954 748.272 485.448 752.201C478.705 762.749 473.579 771.901 470.071 779.658" stroke="#C7DEEE" stroke-width="2"/>
<path d="M495.05 747.947C494.765 747.411 494.293 747.235 493.632 747.417C492.926 747.622 492.573 748.089 492.573 748.818L492.521 772.14C492.518 772.556 492.429 772.967 492.26 773.346C492.091 773.726 491.845 774.067 491.538 774.346C491.231 774.625 490.871 774.838 490.478 774.97C490.086 775.102 489.67 775.15 489.258 775.112C487.293 774.942 481.16 775.112 479.366 776.821C478.261 777.892 478.42 778.541 479.844 778.769" stroke="#ACC8E1" stroke-width="2"/>
<path d="M575.488 405.778C575.124 412.396 575.255 418.98 575.881 425.529C576.274 429.527 575.779 433.61 574.019 436.754C569.907 444.101 566.325 451.698 563.272 459.546C562.839 460.674 562.441 461.807 562.076 462.946C561.689 464.142 561.114 465.173 560.351 466.038C558.38 468.271 556.376 470.469 554.337 472.633C554.2 472.793 554.035 472.895 553.841 472.941C553.636 473.009 553.431 473.066 553.226 473.112C552.674 473.245 552.191 473.559 551.859 474C547.332 480.083 543.539 486.78 538.943 492.743C536.363 496.092 534.501 499.953 531.562 502.499C527.803 505.768 523.765 508.103 519.448 509.504" stroke="#F6FCFA" stroke-width="2"/>
<path d="M576.001 409.007L577.146 417.84" stroke="#7799B1" stroke-width="2"/>
<path d="M421.755 610.803L421.123 624.112C421.1 624.59 420.906 624.983 420.542 625.291C419.608 626.088 418.822 626.071 418.184 625.24C417.91 624.909 417.728 624.949 417.637 625.359C417.569 625.644 417.569 626.031 417.637 626.521" stroke="#0491BA" stroke-width="2"/>
<path d="M402.123 367.422C401.838 367.536 401.65 367.837 401.559 368.327C401.491 368.737 401.252 368.908 400.842 368.84C400.637 368.806 400.432 368.732 400.227 368.618C400.09 368.527 399.976 368.384 399.885 368.191C394.19 356.607 387.623 345.541 380.185 334.994C379.274 333.695 378.198 332.602 376.956 331.713C376.856 331.645 376.74 331.605 376.619 331.598C376.498 331.591 376.378 331.617 376.271 331.673C376.164 331.73 376.074 331.814 376.011 331.917C375.948 332.021 375.915 332.139 375.914 332.26L376.444 463.117" stroke="#80B0C3" stroke-width="2"/>
<path d="M376.443 463.117C375.623 467.718 372.867 469.7 368.174 469.062" stroke="#80A8BE" stroke-width="2"/>
<path d="M368.174 469.062C365.737 467.525 364.518 465.361 364.518 462.57C364.501 419.959 363.373 376.989 365.099 334.43C365.167 332.972 364.632 332.357 363.493 332.585C363.325 332.617 363.166 332.682 363.025 332.776C362.884 332.87 362.764 332.991 362.673 333.131C350.155 351.082 340.9 370.451 334.909 391.239C320.779 440.257 318.968 488.677 319.327 540.736C319.635 587.755 319.669 625.889 323.376 664.212" stroke="#83D0E1" stroke-width="2"/>
<path d="M323.376 664.212L324.879 678.973" stroke="#89E4F5" stroke-width="2"/>
<path d="M324.88 678.973L325.563 680.972" stroke="#CFE0EE" stroke-width="2"/>
<path d="M368.174 469.062L369.148 628.367" stroke="#047AA2" stroke-width="2"/>
<path d="M368.448 629.306C368.403 629.033 368.351 628.805 368.294 628.623C368.135 628.076 367.873 628.019 367.509 628.452L336.516 664.553" stroke="#54B2D2" stroke-width="2"/>
<path d="M336.515 664.553L331.731 667.031C331.241 667.293 330.717 667.401 330.159 667.355C328.712 667.253 327.357 667.566 326.093 668.295C325.98 668.359 325.852 668.393 325.723 668.394C325.593 668.395 325.465 668.364 325.351 668.303C325.237 668.241 325.14 668.152 325.069 668.043C324.999 667.934 324.957 667.809 324.948 667.68C324.937 667.509 324.919 667.355 324.897 667.219C324.851 666.66 324.64 666.171 324.264 665.749C323.923 665.339 323.627 664.827 323.376 664.212" stroke="#0DB6D9" stroke-width="2"/>
<path d="M388.181 482.132C386.831 486.848 388.489 492.486 385.601 496.296C385.509 496.416 385.39 496.512 385.253 496.575C385.116 496.639 384.965 496.669 384.814 496.662C384.664 496.655 384.517 496.613 384.386 496.537C384.255 496.461 384.144 496.355 384.063 496.228C383.38 495.134 383.249 494.024 383.67 492.896C383.853 492.406 383.87 491.905 383.722 491.393C383.073 489.24 382.645 487.047 382.44 484.815C381.928 479.177 380.954 474.256 380.92 468.891C380.92 468.402 380.749 467.98 380.407 467.627C379.86 467.046 379.467 466.516 379.365 465.662C379.126 463.703 378.733 461.772 378.186 459.87C378.163 459.813 378.129 459.779 378.083 459.768C378.061 459.768 378.032 459.768 377.998 459.768C377.884 459.745 377.839 459.785 377.861 459.887C378.408 462.188 377.935 463.265 376.443 463.116" stroke="#015A84" stroke-width="2"/>
<path d="M324.88 678.973L336.515 664.553" stroke="#5AC6E6" stroke-width="2"/>
<path d="M665.426 319.429C650.647 314.867 634.689 320.539 623.737 331.047C620.89 333.769 618.087 338.183 615.331 344.288" stroke="#80B0C3" stroke-width="2"/>
<path d="M719.979 342.237C714.649 342.323 712.582 337.026 706.653 340.187C706.129 340.472 705.798 340.91 705.662 341.503C705.275 343.291 704.278 344.379 702.672 344.766" stroke="#FEF4BF" stroke-width="2"/>
<path d="M714.136 349.636C716.95 348.394 717.861 346.247 716.87 343.194C716.799 342.975 716.666 342.781 716.487 342.635C716.308 342.49 716.091 342.399 715.862 342.374L714.563 342.255C714.062 342.209 713.612 342.033 713.214 341.725C711.801 340.632 710.269 340.324 708.618 340.802C708.071 340.95 707.61 341.241 707.234 341.674L703.253 346.338" stroke="#FFDD6F" stroke-width="2"/>
<path d="M695.188 353.753C693.548 354.983 691.862 354.772 690.131 353.121" stroke="#FFE8A7" stroke-width="2"/>
<path d="M690.131 353.121C688.559 350.364 686.497 349.544 683.946 350.661C682.818 351.162 682.528 351.845 683.074 352.711" stroke="#FEF4BF" stroke-width="2"/>
<path d="M683.075 352.711L681.708 354.436" stroke="#FFE8A7" stroke-width="2"/>
<path d="M681.709 354.436C681.242 355.12 680.672 355.598 680 355.871" stroke="#FEF4BF" stroke-width="2"/>
<path d="M690.131 353.121C687.859 353.309 686.39 352.044 684.784 352.096C684.1 352.118 683.531 352.323 683.075 352.711" stroke="#FFDD6F" stroke-width="2"/>
<path d="M695.598 358.332C694.402 360.303 694.83 362.569 696.88 365.132" stroke="#E7A64F" stroke-width="2"/>
<path d="M693.446 364.841C694.232 364.807 694.648 364.767 694.693 364.722C695.992 363.366 695.701 362.751 693.822 362.876C692.216 362.979 690.473 361.885 688.576 361.612C684.92 361.122 682.631 358.73 681.708 354.436" stroke="#FFDD6F" stroke-width="2"/>
<path d="M728.095 365.935L709.984 366.277" stroke="#FED25C" stroke-width="2"/>
<path d="M708.993 375.434C708.31 378.601 707.37 381.016 706.174 382.679C704.728 384.706 702.563 385.389 699.682 384.729C694.898 383.624 692.842 379.615 693.514 372.701" stroke="#FFDD6F" stroke-width="2"/>
<path d="M668.98 428.587C664.139 433.417 658.324 435.324 651.535 434.311C649.667 434.037 647.566 433.069 645.231 431.406C643.067 429.869 641.005 428.667 639.046 427.801" stroke="#FEC983" stroke-width="2"/>
<path d="M709.898 447.466C709.762 448.036 709.562 448.514 709.3 448.901C708.959 449.403 708.486 449.613 707.882 449.534L705.849 449.243C705.177 449.152 704.818 449.448 704.773 450.132C704.363 457.33 704.813 464.466 706.123 471.54C706.168 471.767 706.316 471.859 706.567 471.813C706.635 471.802 706.669 471.836 706.669 471.915L706.259 506.684C706.253 507.098 706.123 507.501 705.886 507.841C705.648 508.182 705.315 508.445 704.927 508.598C703.56 509.133 701.942 509.219 700.074 508.854" stroke="#FEF4BF" stroke-width="2"/>
<path d="M700.075 508.854C684.356 506.633 666.661 504.697 646.99 503.045C641.09 502.555 635.623 502.39 630.588 502.55C619.346 502.909 611.931 522.078 609.539 531.185C609.38 531.823 608.964 532.113 608.292 532.056C605.353 531.8 602.842 530.519 600.023 530.501C595.319 530.467 590.614 530.194 585.91 529.681" stroke="#FEDD95" stroke-width="2"/>
<path d="M694.249 499.901C696.288 501.04 697.957 501.308 699.255 500.704C699.507 500.586 699.721 500.398 699.872 500.163C700.023 499.927 700.105 499.653 700.109 499.372C700.263 490.419 700.537 482.509 700.144 472.633C699.882 466.186 700.041 459.745 700.622 453.31C701.613 442.563 695.103 442.99 687.312 440.359C675.25 436.293 663.854 440.137 651.655 439.265C650.266 439.163 647.253 438.531 642.617 437.369C636.176 435.763 630.111 437.54 624.797 437.984C616.459 438.685 610.633 439.06 602.842 444.579C602.644 444.719 602.417 444.814 602.178 444.858C601.94 444.902 601.694 444.894 601.458 444.835C600.752 444.676 600.206 444.881 599.818 445.45C599.737 445.573 599.623 445.671 599.49 445.734C599.357 445.796 599.209 445.821 599.062 445.805C598.916 445.789 598.777 445.733 598.66 445.644C598.543 445.554 598.453 445.434 598.4 445.297C598.275 444.978 598.264 444.511 598.366 443.896" stroke="#FEF4BF" stroke-width="2"/>
<path d="M708.497 513.86L707.387 511.075C707.148 510.472 706.703 510.187 706.054 510.221C703.742 510.335 701.749 509.879 700.074 508.854" stroke="#FED25C" stroke-width="2"/>
<path d="M696.487 499.543C696.976 499.611 697.455 499.6 697.922 499.508C698.131 499.462 698.322 499.357 698.473 499.205C698.624 499.054 698.729 498.863 698.776 498.654C700.126 491.803 699.05 483.841 698.776 476.836C698.725 475.418 699.579 473.897 699.579 472.821C699.545 465.133 699.431 457.456 699.237 449.79C699.066 443.434 690.387 442.05 685.227 441.965C656.319 441.504 636.021 440.632 617.125 442.102C614.938 442.272 612.751 443.588 610.718 444.442C606.122 446.407 604.789 450.354 606.02 454.95" stroke="#FEBF4A" stroke-width="2"/>
<path d="M606.071 457.307C604.636 459.58 603.764 460.895 601.509 462.997C600.268 464.147 599.191 465.708 598.28 467.678C597.175 470.082 595.153 472.16 592.215 473.914C591.755 474.195 591.373 474.589 591.104 475.059C586.662 482.918 582.032 487.873 576.906 494.144C575.163 496.262 574.514 499.32 572.225 501.542C571.837 501.917 571.553 502.362 571.37 502.874C570.619 504.867 569.428 506.451 567.8 507.624C565.613 509.184 564.291 510.358 563.836 511.143C562.56 513.33 561.877 515.745 561.786 518.388C561.763 518.957 561.563 519.458 561.188 519.891C558.238 523.229 555.527 526.748 553.055 530.45C552.457 531.356 551.466 531.612 551.193 532.944C551.079 533.491 550.845 533.981 550.492 534.414C549.364 535.792 548.55 536.105 548.049 535.353" stroke="#FFDD6F" stroke-width="2"/>
<path d="M605.541 462.57C603.092 464.654 601.475 466.363 600.689 467.696C591.953 482.469 582.835 496.997 573.335 511.28C571.832 513.536 568.978 515.586 569.85 518.576" stroke="#D99547" stroke-width="2"/>
<path d="M566.211 522.147C563.853 524.129 561.906 526.389 560.368 528.93C559.223 530.826 559.292 533.355 557.036 535.337C554.758 537.33 552.486 539.317 550.219 541.299C549.809 541.652 549.61 542.108 549.621 542.666C549.644 543.965 549.018 544.734 547.742 544.973C547.207 545.064 546.728 545.28 546.307 545.622C545.293 546.431 544.211 547.12 543.061 547.689C542.559 547.94 542.109 548.116 541.711 548.219C541.198 548.367 540.839 548.743 540.634 549.347C540.498 549.768 540.219 550.03 539.797 550.132C537.998 550.52 536.579 551.397 535.543 552.764" stroke="#FEC645" stroke-width="2"/>
<path d="M680.29 467.883C678.969 469.375 677.055 470.15 674.549 470.207C665.289 470.423 651.063 470.349 631.87 469.985" stroke="#FFAAA6" stroke-width="2"/>
<path d="M631.87 469.985C631.585 466.932 631.956 464.352 632.981 462.245" stroke="#D8AC9A" stroke-width="2"/>
<path d="M680.324 477.178C680.461 478.408 680.352 479.467 679.999 480.356C679.771 480.914 679.361 481.204 678.769 481.227L649.297 482.508" stroke="#D95743" stroke-width="2"/>
<path d="M631.87 469.985L634.484 478.835C634.621 479.302 634.917 479.587 635.372 479.689C637.423 480.168 639.416 480.584 641.352 480.937C643.215 481.296 645.675 480.492 647.606 482.252" stroke="#D95743" stroke-width="2"/>
<path d="M515.024 634.193C515.035 636.972 514.636 642.553 513.828 650.936C513.19 657.531 513.503 666.188 514.767 676.906" stroke="#0AA6CE" stroke-width="2"/>
<path d="M511.692 696.862C510.211 696.44 509.385 694.669 509.214 691.548C509.112 689.583 510.188 688.285 511.384 686.901C511.459 686.815 511.513 686.713 511.543 686.603C511.573 686.493 511.577 686.378 511.555 686.266C511.534 686.154 511.488 686.049 511.419 685.957C511.351 685.866 511.263 685.791 511.162 685.739C510.205 685.261 509.419 685.232 508.804 685.654C508.383 685.927 508.092 686.502 507.933 687.379C507.5 689.737 507.073 692.118 506.651 694.521C506.563 694.975 506.629 695.444 506.839 695.854L509.3 700.894" stroke="#0AA6CE" stroke-width="2"/>
<path d="M499.664 696.332C500.005 688.074 500.148 679.828 500.091 671.593C500.091 670.226 500.757 668.842 500.672 667.595C500.25 660.772 499.84 653.898 499.441 646.973" stroke="#0AA6CE" stroke-width="2"/>
<path d="M523.413 777.607L521.431 749.297C521.42 749.165 521.368 749.04 521.282 748.939C521.197 748.838 521.082 748.767 520.954 748.735C520.826 748.703 520.691 748.712 520.568 748.76C520.445 748.809 520.34 748.895 520.269 749.006C520.189 749.131 519.887 749.217 519.363 749.262" stroke="#C7DEEE" stroke-width="2"/>
<path d="M518.662 726.163C518.73 726.858 519.539 727.313 521.088 727.53" stroke="#CFE0EB" stroke-width="2"/>
<path d="M521.088 727.53L537.319 761.427C539.608 766.211 541.163 765.983 541.983 760.744C542.684 756.37 545.059 751.091 546.203 746.973C550.628 731.084 553.977 714.801 558.795 699.049C559.285 697.477 559.661 695.825 559.923 694.094C560.846 688.131 563.186 681.929 564.194 676.872C566.518 665.22 567.953 653.584 569.884 641.864" stroke="#C7DEEE" stroke-width="2"/>
<path d="M569.884 641.864C573.005 625.963 573.837 609.646 572.379 592.914C572.347 592.524 572.212 592.15 571.987 591.829C571.762 591.507 571.455 591.251 571.097 591.086C558.09 585.095 544.347 581.114 529.87 579.143C526.026 578.614 523.122 577.366 519.551 575.983" stroke="#CFE0EB" stroke-width="2"/>
<path d="M569.884 641.864L566.262 648.305C566.063 648.647 565.996 649.054 566.074 649.45C566.996 654.723 566.028 659.519 563.169 663.836C562.827 664.348 562.634 664.912 562.588 665.527L561.649 678.478C561.614 679.025 561.404 679.492 561.016 679.879C558.642 682.305 558.607 685.175 555.959 687.601C555.116 688.376 554.427 690.307 553.892 693.393C553.573 695.193 551.921 698.16 548.937 702.295C543.777 709.437 536.755 716.049 530.639 722.644C527.7 725.81 524.516 727.439 521.088 727.53" stroke="#F6FCFA" stroke-width="2"/>
<path d="M666.383 565.082L634.348 563.613C633.767 563.579 633.198 563.471 632.639 563.288C631.751 562.992 630.914 562.685 630.128 562.366C627.246 561.204 627.36 560.606 630.47 560.572L649.725 560.333" stroke="#D93C4C" stroke-width="2"/>
<path d="M614.204 571.233C610.94 578.169 608.514 584.371 607.745 592.384C606.806 602.174 605.798 610.153 606.173 623.685" stroke="#E7BD9F" stroke-width="2"/>
<path d="M619.518 573.3L618.749 580.22" stroke="#E7BD9F" stroke-width="2"/>
<path d="M618.748 580.22L618.577 605.13" stroke="#E7A64F" stroke-width="2"/>
<path d="M618.578 605.13L618.134 619.55C618.123 619.918 618.039 620.279 617.886 620.613C617.733 620.947 617.515 621.248 617.244 621.496C616.973 621.745 616.656 621.936 616.31 622.06C615.964 622.183 615.596 622.236 615.229 622.216L608.276 621.857C607.934 621.834 607.746 621.994 607.712 622.335L607.575 623.651" stroke="#E69B3C" stroke-width="2"/>
<path d="M691.413 602.174C691.219 602.174 691.026 602.174 690.832 602.174" stroke="#E59940" stroke-width="2"/>
<path d="M690.832 602.174C689.955 598.233 689.191 594.264 688.542 590.266C688.383 589.321 687.54 587.903 686.014 586.012C685.683 585.59 685.495 585.647 685.45 586.183C685.177 589.315 685.313 592.965 685.86 597.134C686.316 600.608 685.837 603.399 684.425 605.506" stroke="#FFB333" stroke-width="2"/>
<path d="M684.424 605.506C664.879 613.041 649.724 612.477 629.512 608.547C625.924 607.847 622.302 606.19 618.577 605.13" stroke="#FEC645" stroke-width="2"/>
<path d="M691.891 623.907L691.412 602.174" stroke="#E4AF90" stroke-width="2"/>
<path d="M691.413 602.175C691.185 595.329 689.38 588.632 685.997 582.082C685.655 581.422 685.12 581.188 684.391 581.382C678.77 582.851 673.593 584.816 668.006 585.414C662.493 585.995 656.958 586.394 651.399 586.61C645.898 586.815 640.379 585.534 634.741 584.936C628.864 584.32 623.909 582.39 618.749 580.22" stroke="#FFE8A7" stroke-width="2"/>
<path d="M690.832 602.174L690.456 602.926C690.206 603.427 689.795 603.695 689.226 603.729C688.52 603.775 687.979 604.059 687.603 604.583C687.386 604.891 687.284 605.341 687.295 605.933C687.329 607.824 687.221 609.72 686.971 611.623" stroke="#E47A1C" stroke-width="2"/>
<path d="M686.971 611.623C687.54 604.675 686.691 602.636 684.425 605.506" stroke="#FEA820" stroke-width="2"/>
<path d="M686.082 623.941L686.971 611.623" stroke="#E48E2E" stroke-width="2"/>
<path d="M611.555 637.695C609.744 640.326 609.351 643.316 610.376 646.665" stroke="#D93C4C" stroke-width="2"/>
<path d="M390.847 677.282L386.285 675.402C385.522 675.095 385.106 675.351 385.038 676.171C384.878 678.313 385.824 680.283 387.874 682.083" stroke="#DBE6F0" stroke-width="2"/>
<path d="M387.874 682.083C387.589 682.493 387.39 682.966 387.276 683.501C387.196 683.911 386.951 684.088 386.541 684.031C386.199 683.985 385.886 684.019 385.601 684.133C385.043 684.361 384.935 684.72 385.277 685.21C385.823 686.041 385.795 686.753 385.191 687.345" stroke="#F6FCFD" stroke-width="2"/>
<path d="M376.751 697.818L376.956 777.026" stroke="#80A8BE" stroke-width="2"/>
<path d="M365.014 776.872L364.177 683.04" stroke="#83D0E1" stroke-width="2"/>
<path d="M405.455 703.781L389.326 683.194C389.064 682.852 388.745 682.578 388.37 682.373L387.874 682.083" stroke="#D3E4EF" stroke-width="2"/>
<path d="M349.876 776.873L334.533 737.559" stroke="#0482A7" stroke-width="2"/>
<path d="M611.591 667.543C610.759 665.06 610.839 662.19 611.83 658.932" stroke="#D93C4C" stroke-width="2"/>
<path d="M621.704 682.339C621.784 692.921 621.921 703.382 622.114 713.725C622.137 715.092 622.923 715.724 624.472 715.621" stroke="#D93C4C" stroke-width="2"/>
<path d="M685.621 682.288C685.672 689.224 684.528 695.922 685.16 702.859C685.376 705.273 684.807 707.175 683.451 708.565" stroke="#D93C4C" stroke-width="2"/>
<path d="M663.272 709.163C662.088 708.719 661.661 708.707 661.991 709.129" stroke="#E47A1C" stroke-width="2"/>
<path d="M661.992 709.129C657.812 718.173 651.587 725.736 643.317 731.819" stroke="#E59940" stroke-width="2"/>
<path d="M643.317 731.818C641.654 732.194 640.424 733.049 639.627 734.381C639.569 734.479 639.49 734.563 639.395 734.627C639.3 734.691 639.192 734.733 639.078 734.751C638.965 734.769 638.848 734.762 638.736 734.73C638.624 734.699 638.52 734.644 638.431 734.569L636.039 732.434C635.675 732.103 635.675 731.773 636.039 731.443L637.372 730.212C637.77 729.848 638.237 729.626 638.773 729.546C641.552 729.147 643.488 727.576 644.582 724.831C644.582 724.808 644.576 724.785 644.565 724.762C644.565 724.739 644.559 724.722 644.547 724.711C644.513 724.643 644.491 724.637 644.479 724.694C644.16 725.491 643.488 725.662 642.463 725.206" stroke="#E47A1C" stroke-width="2"/>
<path d="M710.959 749.604C707.735 748.579 704.557 748.568 701.425 749.57" stroke="#D87723" stroke-width="2"/>
<path d="M643.317 731.819C641.233 734.154 640.533 736.483 641.216 738.806C641.407 739.465 641.806 740.042 642.353 740.449C642.899 740.857 643.562 741.072 644.24 741.062C651.621 740.948 658.962 740.475 666.263 739.644C670.945 739.114 677.283 739.609 682.358 738.123C685.137 737.303 685.256 736.204 682.716 734.826C678.958 732.775 675.182 731.186 672.089 727.889C667.938 723.481 662.624 717.979 662.949 711.624C663.006 710.576 662.687 709.744 661.992 709.129" stroke="#FFB333" stroke-width="2"/>
<path d="M644.804 773.131C638.961 773.814 634.069 774.173 630.128 774.207C625.105 774.253 618.396 774.036 610.001 773.558" stroke="#FEBF4A" stroke-width="2"/>
<path d="M697.58 773.148L663.99 773.233" stroke="#FEBF4A" stroke-width="2"/>
<path d="M499.407 412.219C499.829 413.221 500.444 414.036 501.252 414.662C501.742 415.038 501.987 414.919 501.987 414.303V413.518C501.987 413.324 502.072 413.267 502.243 413.347C502.403 413.426 502.557 413.5 502.705 413.569C503.012 413.717 503.166 413.62 503.166 413.278C503.485 396.911 503.587 380.548 503.473 364.192C503.439 359.699 501.85 353.838 503.456 347.671C503.821 346.281 503.57 344.925 502.705 343.604C502.42 343.16 502.391 342.699 502.619 342.22C503.132 341.161 503.109 340.016 502.551 338.786C502.438 338.539 502.38 338.272 502.38 338.004C502.38 337.736 502.438 337.472 502.551 337.231C503.348 335.523 503.656 333.729 503.473 331.849C503.416 331.234 503.115 330.773 502.568 330.466C500.21 329.167 501.03 327.134 500.74 325.135C499.92 319.736 499.339 314.257 498.997 308.699L499.065 250.694C499.065 246.571 501.11 244.777 505.199 245.312L507.881 245.671C512.062 246.218 514.163 248.598 514.186 252.812L515.365 510.255C515.365 510.403 515.291 510.449 515.143 510.392L498.809 504.224C498.547 504.133 498.422 503.95 498.433 503.677L499.407 412.219Z" fill="#13CAED"/>
<path d="M494.657 727.239C488.643 722.74 482.76 718.378 477.008 714.152C473.238 711.373 469.872 708.565 466.911 705.729C459.735 698.861 456.301 695.068 453.464 686.388C452.701 684.076 451.329 680.796 449.347 676.547C447.103 671.752 445.799 666.649 445.434 661.239C445.286 659.086 443.35 655.879 439.625 651.619C430.114 583.403 427.814 514.407 432.723 444.63C436.806 386.642 450.304 331.645 476.154 279.466C480.904 269.887 486.741 260.86 493.666 252.385C493.711 252.323 493.775 252.277 493.848 252.254C493.922 252.231 494 252.232 494.073 252.256C494.146 252.281 494.209 252.329 494.252 252.392C494.296 252.455 494.318 252.531 494.316 252.608L494.521 503.199C494.521 503.78 494.236 504.025 493.666 503.933C488.387 503.199 480.921 502.601 477.709 507.334C471.558 516.423 481.245 523.753 490.591 520.933C493.108 520.182 494.373 521.121 494.384 523.753L494.657 727.239Z" fill="#FEFEF7"/>
<path d="M575.488 405.778C575.124 412.396 575.255 418.979 575.881 425.529C576.274 429.527 575.779 433.61 574.019 436.754C569.907 444.1 566.325 451.698 563.272 459.546C562.839 460.673 562.441 461.806 562.076 462.946C561.689 464.141 561.114 465.172 560.351 466.038C558.38 468.27 556.376 470.469 554.337 472.633C554.2 472.792 554.035 472.895 553.841 472.94C553.636 473.009 553.431 473.066 553.226 473.111C552.674 473.244 552.191 473.558 551.859 474C547.332 480.082 543.539 486.78 538.943 492.742C536.363 496.091 534.501 499.952 531.562 502.498C527.803 505.767 523.765 508.102 519.448 509.503L519.414 256.195C519.414 254.658 519.898 254.487 520.866 255.683C533.27 271.025 543.009 288.099 550.082 306.905C562.179 339.094 571.849 371.47 575.488 405.778Z" fill="#FEFEF7"/>
<path d="M421.754 610.803L421.121 624.112C421.099 624.591 420.905 624.984 420.54 625.291C419.606 626.088 418.82 626.071 418.183 625.24C417.909 624.91 417.727 624.949 417.636 625.359C417.568 625.644 417.568 626.031 417.636 626.521C409.52 561.597 408.734 501.063 413.911 435.233C414.447 428.445 415.808 417.795 417.995 403.284C419.578 392.816 421.782 382.343 424.607 371.864C428.935 355.735 431.988 345.267 433.764 340.461C437.785 329.572 444.021 316.04 452.473 299.866C453.885 297.178 455.093 295.167 456.095 293.835C456.156 293.758 456.243 293.705 456.34 293.685C456.436 293.665 456.537 293.679 456.622 293.725C456.707 293.77 456.772 293.845 456.804 293.934C456.836 294.024 456.833 294.122 456.796 294.211C452.695 305.521 446.92 318.267 443.503 327.664C435.097 350.786 429.607 372.405 427.033 392.52C425.894 401.336 425.022 407.76 424.419 411.792C414.424 477.349 414.304 545.007 421.754 610.803Z" fill="#07A1C5"/>
<path d="M590.694 421.326C590.375 420.836 590.164 420.283 590.062 419.668C586.047 395.595 582.032 370.377 575.488 347.841C570.476 330.54 564.593 314.286 557.839 299.08C555.595 294.022 556.147 293.698 559.496 298.106C563.654 303.562 567.224 309.564 570.209 316.114C585.21 349.174 593.718 385.498 593.171 421.975C593.168 422.211 593.099 422.442 592.972 422.641C592.844 422.84 592.663 422.999 592.449 423.1C592.236 423.202 591.998 423.241 591.764 423.215C591.529 423.188 591.306 423.096 591.121 422.949C591.019 422.869 590.973 422.675 590.984 422.368C590.995 421.99 590.894 421.626 590.694 421.326Z" fill="#0081AF"/>
<path d="M402.123 367.422C401.838 367.535 401.65 367.837 401.559 368.327C401.491 368.737 401.252 368.908 400.842 368.84C400.637 368.806 400.431 368.731 400.226 368.618C400.09 368.526 399.976 368.384 399.885 368.19C394.19 356.607 387.623 345.541 380.185 334.994C379.274 333.695 378.198 332.602 376.956 331.713C376.856 331.645 376.74 331.605 376.619 331.598C376.498 331.591 376.378 331.617 376.271 331.673C376.164 331.729 376.074 331.814 376.011 331.917C375.948 332.02 375.915 332.139 375.914 332.26L376.444 463.117C375.624 467.718 372.867 469.7 368.174 469.062C365.737 467.525 364.518 465.361 364.518 462.57C364.501 419.959 363.373 376.989 365.099 334.43C365.167 332.972 364.632 332.357 363.493 332.585C363.325 332.617 363.166 332.682 363.025 332.776C362.884 332.87 362.764 332.991 362.673 333.131C350.155 351.082 340.9 370.451 334.909 391.239C320.779 440.257 318.968 488.677 319.327 540.736C319.635 587.755 319.669 625.889 323.376 664.212L324.88 678.973L325.563 680.972C324.755 682.396 323.809 683.49 322.727 684.253C322.169 684.652 321.822 684.515 321.685 683.843C314.999 650.367 311.041 616.618 309.811 582.595C308.171 536.823 308.905 491.086 313.484 445.485C317.323 407.316 328.2 371.317 346.117 337.488C352.154 326.098 356.927 318.512 360.435 314.73C363.784 311.131 366.785 307.372 369.439 303.454C369.518 303.339 369.621 303.243 369.742 303.173C369.863 303.103 369.997 303.061 370.136 303.049C370.275 303.038 370.415 303.057 370.546 303.107C370.676 303.156 370.794 303.234 370.891 303.334C384.218 317.259 395.255 335.985 404.293 352.916C404.578 353.44 404.663 353.992 404.549 354.573L402.123 367.422Z" fill="#FEFEFD"/>
<path d="M498.997 308.699C499.339 314.257 499.92 319.736 500.74 325.135C501.03 327.134 500.21 329.167 502.568 330.465C503.115 330.773 503.416 331.234 503.473 331.849C503.656 333.729 503.348 335.523 502.551 337.231C502.438 337.472 502.38 337.736 502.38 338.004C502.38 338.272 502.438 338.539 502.551 338.786C503.109 340.016 503.132 341.161 502.619 342.22C502.391 342.699 502.42 343.16 502.705 343.604C503.57 344.925 503.821 346.281 503.456 347.67C501.85 353.838 503.439 359.699 503.473 364.192C503.587 380.548 503.485 396.911 503.166 413.278C503.166 413.62 503.012 413.717 502.705 413.569C502.557 413.5 502.403 413.426 502.243 413.347C502.072 413.267 501.987 413.324 501.987 413.518V414.303C501.987 414.919 501.742 415.038 501.252 414.662C500.444 414.036 499.829 413.221 499.407 412.219L498.997 308.699Z" fill="#07A1C5"/>
<path d="M665.426 319.429C650.647 314.867 634.689 320.539 623.737 331.047C620.89 333.769 618.088 338.183 615.331 344.288C611.197 351.452 608.685 359.141 607.797 367.353C607.774 367.49 607.694 367.552 607.557 367.541L607.113 367.524C606.703 367.513 606.492 367.296 606.481 366.875C606.265 360.724 606.544 355.166 607.318 350.199C611.436 323.99 634.621 304.991 661.359 310.339C671.007 312.276 678.883 317.321 684.988 325.477C685.101 325.627 685.171 325.804 685.189 325.988C685.207 326.173 685.173 326.356 685.091 326.519C684.852 327.009 684.413 327.265 683.775 327.288C683.388 327.299 682.944 327.163 682.443 326.878C677.101 323.894 671.428 321.411 665.426 319.429Z" fill="#FEFEFD"/>
<path d="M665.426 319.429C646.888 320.813 630.964 323.444 619.739 339.846C618.464 341.714 616.994 343.194 615.331 344.288C618.087 338.183 620.89 333.769 623.737 331.047C634.689 320.539 650.647 314.867 665.426 319.429Z" fill="#016288"/>
<path d="M402.123 367.422C401.833 373.231 399.424 378.681 398.74 383.875C397.749 391.541 396.587 399.178 395.255 406.786C393.637 415.956 392.538 423.581 391.957 429.664C390.294 447.136 389.036 464.626 388.181 482.133C386.832 486.849 388.489 492.487 385.602 496.297C385.509 496.416 385.39 496.512 385.253 496.576C385.116 496.64 384.966 496.669 384.815 496.663C384.664 496.656 384.517 496.613 384.386 496.537C384.256 496.462 384.145 496.356 384.064 496.228C383.38 495.135 383.249 494.024 383.671 492.897C383.853 492.407 383.87 491.906 383.722 491.393C383.073 489.24 382.646 487.048 382.441 484.815C381.928 479.177 380.954 474.257 380.92 468.892C380.92 468.402 380.749 467.981 380.408 467.627C379.861 467.047 379.468 466.517 379.365 465.663C379.126 463.704 378.733 461.773 378.187 459.871C378.164 459.814 378.13 459.78 378.084 459.768C378.061 459.768 378.033 459.768 377.999 459.768C377.885 459.745 377.839 459.785 377.862 459.888C378.409 462.189 377.936 463.265 376.444 463.117L375.914 332.26C375.915 332.139 375.948 332.021 376.011 331.917C376.074 331.814 376.164 331.73 376.271 331.673C376.378 331.617 376.498 331.591 376.619 331.598C376.74 331.605 376.856 331.645 376.956 331.713C378.198 332.602 379.274 333.695 380.185 334.994C387.623 345.541 394.19 356.607 399.885 368.191C399.976 368.384 400.09 368.527 400.227 368.618C400.432 368.732 400.637 368.806 400.842 368.84C401.252 368.908 401.491 368.737 401.559 368.327C401.65 367.837 401.838 367.536 402.123 367.422Z" fill="#016288"/>
<path d="M719.98 342.238C714.649 342.323 712.582 337.027 706.653 340.188C706.129 340.472 705.799 340.911 705.662 341.503C705.275 343.292 704.278 344.379 702.672 344.767C694.386 330.979 723.653 324.623 719.98 342.238Z" fill="#FEFEF7"/>
<path d="M368.174 469.062L369.148 628.367C368.806 628.686 368.573 628.999 368.448 629.306C368.402 629.033 368.351 628.805 368.294 628.623C368.134 628.076 367.872 628.019 367.508 628.452L336.515 664.553L331.731 667.031C331.241 667.293 330.717 667.401 330.159 667.355C328.713 667.253 327.357 667.566 326.093 668.295C325.98 668.359 325.853 668.393 325.723 668.394C325.593 668.396 325.465 668.364 325.351 668.303C325.237 668.241 325.14 668.152 325.07 668.043C324.999 667.934 324.957 667.809 324.948 667.68C324.937 667.509 324.92 667.355 324.897 667.219C324.851 666.661 324.641 666.171 324.265 665.749C323.923 665.339 323.627 664.827 323.376 664.212C319.669 625.889 319.635 587.755 319.327 540.736C318.968 488.677 320.779 440.257 334.909 391.239C340.9 370.451 350.155 351.082 362.673 333.131C362.764 332.991 362.884 332.87 363.025 332.776C363.166 332.682 363.325 332.617 363.493 332.585C364.632 332.357 365.167 332.972 365.099 334.43C363.373 376.989 364.501 419.959 364.518 462.57C364.518 465.361 365.737 467.525 368.174 469.062Z" fill="#07A1C5"/>
<path d="M719.979 342.237C719.717 347.147 717.365 350.552 712.923 352.454C712.171 352.773 712.029 352.602 712.496 351.942L714.136 349.635C716.95 348.394 717.861 346.247 716.87 343.194C716.799 342.975 716.666 342.781 716.487 342.635C716.308 342.49 716.091 342.399 715.862 342.374L714.563 342.254C714.062 342.209 713.612 342.032 713.214 341.725C711.801 340.631 710.269 340.324 708.618 340.802C708.071 340.95 707.61 341.241 707.234 341.674L703.253 346.338C702.866 345.962 702.672 345.438 702.672 344.766C704.278 344.379 705.275 343.291 705.662 341.503C705.798 340.91 706.129 340.472 706.653 340.187C712.582 337.026 714.649 342.323 719.979 342.237Z" fill="#FEE986"/>
<path d="M714.136 349.636C713.658 348.029 712.889 346.714 711.83 345.689C711.249 345.131 710.907 345.256 710.805 346.065C710.736 346.6 710.85 347.107 711.146 347.585C711.443 348.064 711.465 348.553 711.215 349.055C710.053 351.412 708.413 355.205 704.91 354.026C704.329 353.821 704.158 353.434 704.398 352.865C705.474 350.285 703.595 348.73 703.253 346.338L707.234 341.674C707.61 341.241 708.071 340.95 708.618 340.802C710.269 340.324 711.801 340.632 713.214 341.725C713.612 342.033 714.062 342.209 714.563 342.255L715.862 342.374C716.091 342.399 716.308 342.49 716.487 342.635C716.666 342.781 716.799 342.975 716.87 343.194C717.861 346.247 716.95 348.394 714.136 349.636Z" fill="#FFD157"/>
<path d="M695.188 353.753C693.548 354.983 691.863 354.773 690.131 353.121C688.559 350.365 686.498 349.545 683.946 350.661C682.819 351.162 682.528 351.845 683.075 352.711L681.708 354.437C681.241 355.12 680.672 355.599 679.999 355.872C675.164 342.084 694.061 338.428 697.512 351.293C697.706 351.976 697.455 352.25 696.76 352.113C695.861 351.931 695.075 351.538 694.403 350.934C693.651 350.262 693.372 350.416 693.565 351.395C693.668 351.954 694.209 352.74 695.188 353.753Z" fill="#FEFEF7"/>
<path d="M690.131 353.121C687.858 353.309 686.389 352.044 684.783 352.096C684.1 352.119 683.53 352.324 683.074 352.711C682.528 351.845 682.818 351.162 683.946 350.661C686.497 349.544 688.559 350.364 690.131 353.121Z" fill="#FEE986"/>
<path d="M666.058 357.529C668.655 362.689 672.3 367.268 676.993 371.266C679.715 373.59 680.461 376.551 679.231 380.15C668.57 411.451 636.261 406.735 626.608 378.254C626.553 378.089 626.532 377.915 626.546 377.742C626.561 377.569 626.61 377.4 626.692 377.247C626.773 377.093 626.885 376.958 627.02 376.849C627.156 376.741 627.312 376.66 627.479 376.614C641.785 372.787 653.836 365.201 663.632 353.856C663.962 353.491 664.355 352.649 664.811 351.327C664.868 351.156 664.982 351.094 665.153 351.139C665.301 351.185 665.443 351.231 665.58 351.276C665.66 351.299 665.694 351.35 665.682 351.43C665.375 353.651 664.999 355.428 666.058 357.529Z" fill="#FE940E"/>
<path d="M690.131 353.121C691.863 354.772 693.548 354.983 695.188 353.753L695.633 354.624C695.929 355.194 695.775 355.376 695.171 355.171L694.59 354.983C694.237 354.869 694.095 354.994 694.163 355.359C694.346 356.35 694.824 357.341 695.598 358.332C694.402 360.302 694.83 362.569 696.88 365.132C695.536 365.325 694.391 365.228 693.446 364.841C694.232 364.807 694.648 364.767 694.693 364.722C695.992 363.366 695.701 362.751 693.822 362.876C692.216 362.979 690.473 361.885 688.576 361.612C684.92 361.122 682.631 358.73 681.708 354.436L683.075 352.711C683.531 352.323 684.1 352.118 684.783 352.096C686.389 352.044 687.859 353.309 690.131 353.121Z" fill="#FFD157"/>
<path d="M681.709 354.436C682.631 358.73 684.921 361.122 688.577 361.612C690.473 361.885 692.216 362.979 693.822 362.876C695.702 362.751 695.992 363.366 694.694 364.722C694.648 364.767 694.232 364.807 693.446 364.841C686.943 364.238 682.46 361.248 680 355.871C680.672 355.598 681.242 355.12 681.709 354.436Z" fill="#FEE986"/>
<path d="M695.598 358.332C697.102 358.981 698.281 359.756 699.135 360.656C700.707 362.307 700.525 363.737 698.588 364.944C697.882 365.377 697.313 365.44 696.88 365.132C694.83 362.569 694.402 360.303 695.598 358.332Z" fill="#CF7B46"/>
<path d="M728.094 365.935L709.984 366.277C708.982 365.343 709.42 363.463 711.299 360.639C711.607 360.172 712.034 359.904 712.581 359.836C719.358 358.867 724.529 360.901 728.094 365.935Z" fill="#FEE986"/>
<path d="M728.095 365.935C729.513 372.427 724.507 376.699 718.561 373.658C715.361 372.029 712.502 369.568 709.984 366.277L728.095 365.935Z" fill="#FDBB32"/>
<path d="M708.993 375.435C708.31 378.601 707.37 381.016 706.174 382.679C704.728 384.706 702.563 385.39 699.682 384.729C694.898 383.624 692.842 379.615 693.514 372.701C695.587 371.254 698.127 370.599 701.134 370.736C701.84 370.759 701.994 371.066 701.595 371.659C700.775 372.866 700.223 374.176 699.938 375.588C699.892 375.834 699.914 376.086 700.002 376.316C700.089 376.546 700.239 376.744 700.433 376.887C701.755 377.878 702.746 377.775 703.406 376.579C703.737 375.976 704.3 374.483 705.098 372.103C705.28 371.545 705.61 371.437 706.089 371.778C708.139 373.248 709.107 374.466 708.993 375.435Z" fill="#FFD157"/>
<path d="M693.514 372.701C692.842 379.615 694.898 383.624 699.682 384.729C702.564 385.389 704.728 384.706 706.174 382.679C707.37 381.016 708.31 378.601 708.993 375.434C710.85 379.569 710.155 383.248 706.909 386.472C698.947 394.365 685.809 379.484 693.514 372.701Z" fill="#FEE986"/>
<path d="M575.488 405.778L576.001 409.007L577.146 417.841C578.41 426.247 580.033 433.645 577.009 439.436C566.974 458.629 557.218 477.964 547.742 497.441C542.855 507.505 537.627 516.628 532.177 526.025C532.128 526.109 532.06 526.181 531.979 526.234C531.897 526.287 531.804 526.319 531.708 526.329C531.611 526.339 531.513 526.326 531.423 526.291C531.332 526.256 531.251 526.2 531.186 526.128L519.824 513.724C519.425 513.28 519.243 512.756 519.277 512.152L519.448 509.504C523.765 508.103 527.803 505.768 531.562 502.499C534.501 499.953 536.363 496.092 538.943 492.743C543.539 486.78 547.332 480.083 551.859 474C552.191 473.559 552.674 473.245 553.226 473.112C553.431 473.066 553.636 473.009 553.841 472.941C554.035 472.895 554.2 472.793 554.337 472.633C556.376 470.469 558.38 468.271 560.351 466.038C561.114 465.173 561.689 464.142 562.076 462.946C562.441 461.807 562.84 460.674 563.272 459.546C566.325 451.698 569.907 444.101 574.019 436.754C575.779 433.61 576.274 429.527 575.881 425.529C575.255 418.98 575.124 412.396 575.488 405.778Z" fill="#EEF9FC"/>
<path d="M576.001 409.007C577.47 411.035 577.852 413.979 577.146 417.84L576.001 409.007Z" fill="#003965"/>
<path d="M668.98 428.587C664.139 433.416 658.324 435.324 651.535 434.31C649.667 434.037 647.566 433.069 645.231 431.406C643.067 429.868 641.005 428.667 639.046 427.801L640.772 414.064C640.84 413.483 641.125 413.347 641.626 413.654C648.443 417.96 660.095 419.429 666.536 413.415C666.645 413.315 666.779 413.248 666.923 413.221C667.068 413.194 667.217 413.208 667.354 413.261C667.491 413.314 667.611 413.405 667.699 413.523C667.787 413.641 667.84 413.781 667.852 413.928L668.98 428.587Z" fill="#FE940E"/>
<path d="M639.046 427.801C641.005 428.667 643.066 429.869 645.231 431.406C647.566 433.069 649.667 434.037 651.535 434.311C658.324 435.324 664.138 433.417 668.979 428.587C672.339 430.398 674.902 431.332 676.668 431.389C689.037 431.714 704.773 434.482 709.899 447.466C709.762 448.036 709.563 448.514 709.301 448.902C708.959 449.403 708.486 449.613 707.883 449.534L705.849 449.243C705.177 449.152 704.819 449.448 704.773 450.132C704.363 457.33 704.813 464.466 706.123 471.54C706.168 471.768 706.317 471.859 706.567 471.813C706.635 471.802 706.67 471.836 706.67 471.916L706.26 506.684C706.253 507.098 706.123 507.501 705.886 507.842C705.649 508.182 705.315 508.446 704.927 508.598C703.56 509.133 701.943 509.219 700.075 508.854C684.356 506.633 666.661 504.697 646.99 503.045C641.09 502.555 635.623 502.39 630.588 502.55C619.346 502.908 611.931 522.078 609.539 531.185C609.38 531.823 608.964 532.113 608.292 532.056C605.353 531.8 602.842 530.518 600.023 530.501C595.319 530.467 590.614 530.194 585.91 529.681C591.321 528.474 596.737 528.195 602.158 528.844C603.332 528.981 604.169 528.519 604.67 527.46C609.522 517.311 612.939 504.378 621.414 496.57C624.199 494.007 635.765 495.254 639.524 495.647C657.748 497.504 675.99 498.922 694.249 499.901C696.287 501.04 697.956 501.308 699.254 500.704C699.506 500.586 699.72 500.398 699.871 500.163C700.022 499.927 700.104 499.653 700.109 499.372C700.263 490.419 700.536 482.509 700.143 472.633C699.881 466.186 700.041 459.745 700.621 453.31C701.612 442.563 695.103 442.99 687.312 440.359C675.25 436.293 663.854 440.137 651.655 439.265C650.265 439.163 647.252 438.531 642.617 437.369C636.175 435.763 630.11 437.54 624.796 437.984C616.459 438.685 610.633 439.06 602.842 444.579C602.643 444.719 602.417 444.814 602.178 444.858C601.939 444.902 601.693 444.894 601.458 444.835C600.752 444.676 600.205 444.881 599.818 445.45C599.736 445.573 599.623 445.671 599.489 445.734C599.356 445.796 599.208 445.821 599.062 445.805C598.915 445.789 598.776 445.733 598.66 445.644C598.543 445.554 598.453 445.434 598.4 445.297C598.274 444.978 598.263 444.511 598.365 443.896C603.024 437.984 609.437 434.538 617.604 433.559C625.224 432.636 632.371 430.717 639.046 427.801Z" fill="#FEFEF7"/>
<path d="M694.249 499.901C695.012 500.061 695.758 499.941 696.487 499.543C696.976 499.611 697.455 499.6 697.922 499.508C698.131 499.462 698.322 499.357 698.473 499.205C698.624 499.054 698.73 498.863 698.776 498.654C700.126 491.803 699.05 483.841 698.776 476.836C698.725 475.418 699.579 473.897 699.579 472.821C699.545 465.133 699.431 457.456 699.237 449.79C699.066 443.434 690.387 442.05 685.227 441.965C656.319 441.504 636.022 440.632 617.125 442.102C614.938 442.272 612.751 443.588 610.718 444.442C606.122 446.407 604.789 450.354 606.02 454.95C606.225 455.61 606.242 456.396 606.071 457.308C604.636 459.58 603.764 460.896 601.509 462.997C600.268 464.147 599.191 465.708 598.28 467.678C597.175 470.082 595.153 472.161 592.215 473.915C591.755 474.195 591.373 474.589 591.104 475.059C586.662 482.919 582.032 487.873 576.906 494.144C575.163 496.262 574.514 499.321 572.225 501.542C571.837 501.918 571.553 502.362 571.37 502.874C570.619 504.868 569.428 506.451 567.8 507.624C565.613 509.184 564.291 510.358 563.836 511.144C562.56 513.331 561.877 515.745 561.786 518.388C561.763 518.957 561.563 519.458 561.188 519.891C558.238 523.229 555.527 526.748 553.055 530.45C552.457 531.356 551.466 531.612 551.193 532.945C551.079 533.491 550.845 533.981 550.492 534.414C549.364 535.792 548.55 536.105 548.049 535.354C554.029 522.112 563.562 506.992 568.671 497.475C576.462 482.976 584.327 468.51 592.266 454.078C594.886 449.329 596.919 445.934 598.365 443.896C598.263 444.511 598.274 444.978 598.4 445.297C598.453 445.434 598.543 445.554 598.659 445.644C598.776 445.733 598.915 445.789 599.062 445.805C599.208 445.821 599.356 445.796 599.489 445.734C599.623 445.671 599.736 445.573 599.818 445.45C600.205 444.881 600.752 444.676 601.458 444.835C601.693 444.894 601.939 444.902 602.178 444.858C602.416 444.814 602.643 444.719 602.842 444.579C610.633 439.06 616.459 438.685 624.796 437.984C630.11 437.54 636.175 435.763 642.617 437.369C647.252 438.531 650.265 439.163 651.655 439.265C663.854 440.137 675.249 436.293 687.312 440.359C695.103 442.99 701.612 442.563 700.621 453.31C700.04 459.745 699.881 466.186 700.143 472.633C700.536 482.509 700.262 490.419 700.109 499.372C700.104 499.653 700.022 499.927 699.871 500.163C699.72 500.398 699.506 500.586 699.254 500.704C697.956 501.308 696.287 501.04 694.249 499.901Z" fill="#FEE986"/>
<path d="M696.487 499.543C696.976 491.011 697.096 482.469 696.845 473.915C696.606 466.158 697.136 459.785 697.905 452.404C698.235 449.181 696.783 447.489 693.548 447.33C669.902 446.168 646.392 446.544 622.729 446.561C615.741 446.578 609.232 447.808 606.02 454.95C604.789 450.354 606.122 446.407 610.718 444.442C612.751 443.588 614.938 442.272 617.125 442.102C636.021 440.632 656.319 441.504 685.227 441.965C690.387 442.05 699.066 443.434 699.237 449.79C699.431 457.456 699.545 465.133 699.579 472.821C699.579 473.897 698.725 475.418 698.776 476.836C699.05 483.841 700.126 491.803 698.776 498.654C698.729 498.863 698.624 499.054 698.473 499.205C698.322 499.357 698.131 499.462 697.922 499.508C697.455 499.6 696.976 499.611 696.487 499.543Z" fill="#FE940E"/>
<path d="M709.898 447.466C710.559 448.981 710.895 450.029 710.906 450.61C710.952 459.517 710.77 477.742 710.36 505.283C710.337 506.901 709.716 509.76 708.497 513.86L707.387 511.075C707.148 510.472 706.703 510.187 706.054 510.221C703.742 510.335 701.749 509.879 700.074 508.854C701.942 509.219 703.56 509.133 704.927 508.598C705.315 508.445 705.648 508.182 705.886 507.841C706.123 507.501 706.253 507.098 706.259 506.684L706.669 471.915C706.669 471.836 706.635 471.802 706.567 471.813C706.316 471.859 706.168 471.767 706.123 471.54C704.813 464.466 704.363 457.33 704.773 450.132C704.818 449.448 705.177 449.152 705.849 449.243L707.882 449.534C708.486 449.613 708.959 449.403 709.3 448.901C709.562 448.514 709.762 448.036 709.898 447.466Z" fill="#FEE986"/>
<path d="M606.071 457.307C606.139 459.506 605.963 461.26 605.541 462.57C603.092 464.654 601.475 466.363 600.689 467.695C591.953 482.469 582.835 496.997 573.335 511.28C571.832 513.535 568.979 515.586 569.85 518.576L566.211 522.146C563.853 524.128 561.905 526.389 560.368 528.929C559.223 530.826 559.291 533.354 557.036 535.336C554.758 537.33 552.486 539.317 550.219 541.299C549.809 541.652 549.61 542.108 549.621 542.666C549.644 543.965 549.017 544.733 547.742 544.973C547.206 545.064 546.728 545.28 546.306 545.622C545.293 546.43 544.211 547.12 543.06 547.689C542.559 547.94 542.109 548.116 541.71 548.219C541.198 548.367 540.839 548.743 540.634 549.346C540.497 549.768 540.218 550.03 539.797 550.132C537.997 550.52 536.579 551.397 535.543 552.763C531.493 554.147 526.607 556.215 522.558 553.823C514.34 548.953 507.13 533.474 504.567 525.256C503.906 523.16 504.533 522.648 506.446 523.718C513.605 527.682 518.765 536.122 523.122 542.871C523.52 543.486 524.078 543.714 524.796 543.554C531.083 542.068 543.846 540.411 548.049 535.353C548.55 536.105 549.365 535.792 550.492 534.414C550.845 533.981 551.079 533.491 551.193 532.944C551.466 531.612 552.457 531.356 553.055 530.45C555.527 526.748 558.238 523.229 561.188 519.891C561.564 519.458 561.763 518.957 561.786 518.388C561.877 515.745 562.56 513.33 563.836 511.143C564.292 510.358 565.613 509.184 567.8 507.624C569.429 506.451 570.619 504.867 571.371 502.874C571.553 502.362 571.838 501.917 572.225 501.542C574.514 499.32 575.164 496.262 576.906 494.144C582.032 487.873 586.662 482.918 591.104 475.059C591.374 474.589 591.756 474.195 592.215 473.914C595.154 472.16 597.175 470.082 598.28 467.678C599.191 465.708 600.268 464.147 601.509 462.997C603.765 460.895 604.636 459.58 606.071 457.307Z" fill="#FFD157"/>
<path d="M388.181 482.132C387.463 521.178 387.412 547.404 388.027 560.811C389.542 593.216 393.386 624.539 399.56 654.78C399.936 656.66 399.924 658.368 399.525 659.906C399.309 660.703 398.939 660.783 398.415 660.145C390.054 649.962 381.666 639.836 373.248 629.767C371.893 628.15 370.526 627.683 369.148 628.366L368.174 469.062C372.867 469.7 375.623 467.718 376.443 463.116C377.935 463.265 378.408 462.188 377.861 459.887C377.838 459.785 377.884 459.745 377.998 459.768C378.032 459.768 378.06 459.768 378.083 459.768C378.129 459.779 378.163 459.813 378.186 459.87C378.733 461.772 379.125 463.703 379.365 465.662C379.467 466.516 379.86 467.046 380.407 467.627C380.749 467.98 380.919 468.402 380.919 468.891C380.954 474.256 381.928 479.177 382.44 484.815C382.645 487.047 383.072 489.24 383.721 491.393C383.87 491.905 383.852 492.406 383.67 492.896C383.249 494.024 383.38 495.134 384.063 496.228C384.144 496.355 384.255 496.461 384.386 496.537C384.516 496.613 384.663 496.655 384.814 496.662C384.965 496.669 385.115 496.639 385.252 496.575C385.389 496.512 385.509 496.416 385.601 496.296C388.488 492.486 386.831 486.848 388.181 482.132Z" fill="#01527F"/>
<path d="M680.29 467.883C678.969 469.375 677.055 470.15 674.549 470.207C665.289 470.423 651.063 470.349 631.87 469.985C631.585 466.932 631.956 464.352 632.981 462.245C648.312 460.753 663.609 460.651 678.872 461.938C679.499 461.995 679.891 462.325 680.051 462.929C680.404 464.307 680.484 465.958 680.29 467.883Z" fill="#FEFEFD"/>
<path d="M605.541 462.57C604.055 470.873 606.652 480.031 602.842 486.968C598.331 495.157 594.214 503.535 590.489 512.1C590.261 512.636 589.868 512.966 589.31 513.091C583.023 514.595 575.095 514.715 569.85 518.576C568.978 515.586 571.832 513.536 573.335 511.28C582.835 496.997 591.953 482.469 600.689 467.696C601.475 466.363 603.092 464.654 605.541 462.57Z" fill="#B25937"/>
<path d="M632.981 462.245C631.956 464.353 631.586 466.932 631.87 469.985L634.484 478.835C634.621 479.302 634.917 479.587 635.373 479.689C637.423 480.168 639.416 480.584 641.353 480.937C643.215 481.296 645.675 480.493 647.606 482.252L624.353 481.603C623.626 481.585 622.936 481.28 622.434 480.755C621.931 480.23 621.657 479.528 621.67 478.801L621.858 465.645C621.863 465.263 621.979 464.89 622.191 464.571C622.403 464.253 622.703 464.003 623.054 463.851C626.016 462.564 629.325 462.029 632.981 462.245Z" fill="#B25937"/>
<path d="M680.29 467.883L680.324 477.178C680.461 478.408 680.353 479.467 679.999 480.356C679.772 480.914 679.362 481.204 678.769 481.227L649.297 482.508L647.606 482.252C645.675 480.492 643.215 481.295 641.352 480.937C639.416 480.583 637.423 480.168 635.372 479.689C634.917 479.587 634.621 479.302 634.484 478.835L631.87 469.985C651.063 470.349 665.289 470.423 674.549 470.207C677.055 470.15 678.969 469.375 680.29 467.883Z" fill="#FF554E"/>
<path d="M680.324 477.178C683.023 485.925 668.979 483.465 664.161 482.953C658.967 482.389 654.32 482.577 649.297 482.508L678.769 481.227C679.361 481.204 679.771 480.914 679.999 480.356C680.352 479.467 680.461 478.408 680.324 477.178Z" fill="#B25937"/>
<path d="M700.075 508.854C701.75 509.879 703.743 510.335 706.055 510.221C706.704 510.187 707.149 510.472 707.388 511.075L708.499 513.86C707.189 517.049 705.127 518.445 702.314 518.046C681.253 515.107 660.181 512.311 639.098 509.657C634.912 509.128 630.811 508.735 627.821 512.903C623.026 519.578 618.191 526.236 613.316 532.876C607.627 540.633 585.484 538.412 577.266 537.216C577.056 537.186 576.855 537.108 576.68 536.988C576.505 536.868 576.36 536.709 576.256 536.525C576.152 536.34 576.092 536.133 576.08 535.921C576.069 535.709 576.106 535.498 576.189 535.302C577.898 531.304 581.138 529.431 585.911 529.681C590.615 530.194 595.319 530.467 600.023 530.501C602.843 530.519 605.354 531.8 608.293 532.056C608.965 532.113 609.38 531.823 609.54 531.185C611.932 522.078 619.347 502.909 630.589 502.55C635.624 502.39 641.091 502.555 646.991 503.045C666.662 504.697 684.357 506.633 700.075 508.854Z" fill="#FDBB32"/>
<path d="M566.211 522.147C562.293 528.673 559.901 535.274 559.035 541.949C558.978 542.38 558.808 542.787 558.544 543.129C558.28 543.471 557.93 543.736 557.532 543.896L535.543 552.764C536.579 551.397 537.998 550.52 539.797 550.132C540.219 550.03 540.498 549.768 540.634 549.347C540.839 548.743 541.198 548.367 541.711 548.219C542.109 548.116 542.559 547.94 543.061 547.689C544.211 547.12 545.293 546.431 546.307 545.622C546.728 545.28 547.207 545.064 547.742 544.973C549.018 544.734 549.644 543.965 549.621 542.666C549.61 542.108 549.809 541.652 550.219 541.299C552.486 539.317 554.758 537.33 557.036 535.337C559.292 533.355 559.223 530.826 560.368 528.93C561.906 526.389 563.853 524.129 566.211 522.147Z" fill="#FDBB32"/>
<path d="M643.283 546.493C639.661 546.152 633.749 546.271 629.102 544.853C628.762 544.748 628.458 544.548 628.227 544.277C627.996 544.006 627.846 543.675 627.796 543.322C627.746 542.969 627.797 542.609 627.944 542.285C628.09 541.96 628.326 541.683 628.624 541.487C631.904 539.369 633.356 535.097 637.833 535.234C647.97 535.553 658.073 536.413 668.142 537.814C671.092 538.213 673.985 539.044 676.822 540.309C677.494 540.605 677.881 541.112 677.984 541.829C678.325 544.016 677.465 545.189 675.404 545.349C665.067 546.135 653.568 547.484 643.283 546.493Z" fill="#FE940E"/>
<path d="M515.024 634.193C515.035 636.972 514.637 642.553 513.828 650.936C513.19 657.531 513.503 666.188 514.768 676.906C515.326 683.9 514.301 690.551 511.692 696.862C510.212 696.44 509.386 694.669 509.215 691.548C509.112 689.583 510.189 688.285 511.385 686.901C511.459 686.815 511.514 686.713 511.544 686.603C511.573 686.493 511.577 686.378 511.556 686.266C511.535 686.154 511.488 686.048 511.42 685.957C511.352 685.866 511.264 685.791 511.163 685.739C510.206 685.261 509.42 685.232 508.805 685.654C508.383 685.927 508.093 686.502 507.933 687.379C507.501 689.737 507.073 692.118 506.652 694.521C506.564 694.975 506.63 695.444 506.84 695.854L509.3 700.894C506.874 705.131 504.414 711.299 500.843 714.408C500.433 714.773 500.171 714.682 500.057 714.135C499.955 713.657 500.12 713.298 500.553 713.059C500.997 712.808 501.139 712.444 500.98 711.965C499.385 706.908 498.947 701.697 499.664 696.332C500.006 688.074 500.148 679.828 500.091 671.592C500.091 670.226 500.758 668.842 500.672 667.594C500.251 660.772 499.841 653.898 499.442 646.972L499.63 547.809C499.63 546.112 500.028 546.015 500.826 547.518C504.516 554.523 508.309 561.847 512.205 569.49C513.754 572.52 514.614 578.602 514.785 587.737C515.081 603.228 515.161 618.713 515.024 634.193Z" fill="#13CAED"/>
<path d="M523.412 777.607L521.43 749.297C521.419 749.165 521.367 749.04 521.282 748.939C521.196 748.838 521.081 748.767 520.953 748.735C520.825 748.703 520.69 748.712 520.567 748.76C520.444 748.809 520.34 748.895 520.268 749.006C520.188 749.131 519.887 749.217 519.363 749.262L518.662 726.163C518.73 726.858 519.539 727.313 521.088 727.53L537.319 761.427C539.609 766.211 541.164 765.983 541.984 760.744C542.684 756.37 545.059 751.09 546.204 746.973C550.629 731.083 553.978 714.801 558.796 699.048C559.285 697.477 559.661 695.825 559.923 694.094C560.846 688.131 563.187 681.929 564.195 676.872C566.518 665.219 567.953 653.584 569.884 641.864C573.005 625.963 573.836 609.646 572.378 592.914C572.347 592.524 572.212 592.15 571.987 591.828C571.761 591.507 571.454 591.251 571.097 591.086C558.089 585.095 544.347 581.114 529.87 579.143C526.026 578.614 523.121 577.366 519.551 575.982L520.883 570.259C521.031 569.575 521.39 569.439 521.959 569.849C526.094 572.867 529.978 573.693 533.612 572.326C549.103 566.472 564.531 560.076 579.896 553.139C580.251 552.979 580.642 552.914 581.03 552.952C581.417 552.99 581.788 553.13 582.105 553.357C582.422 553.583 582.673 553.89 582.834 554.244C582.995 554.599 583.06 554.99 583.023 555.377C582.214 563.886 581.206 572.548 579.999 581.364C578.108 595.124 576.61 608.929 575.505 622.779C574.651 633.418 573.728 644.051 572.737 654.678C568.825 696.879 557.292 739.131 542.223 778.666C542.006 779.236 541.596 779.486 540.993 779.418L523.412 777.607Z" fill="#A0C2DF"/>
<path d="M666.383 565.082L634.348 563.613C633.767 563.579 633.198 563.47 632.639 563.288C631.751 562.992 630.914 562.685 630.128 562.366C627.246 561.204 627.36 560.606 630.47 560.572L649.725 560.332C660.882 560.948 672.192 559.273 683.229 558.333C683.602 558.307 683.972 558.421 684.263 558.652C684.554 558.883 684.747 559.215 684.801 559.581C684.995 560.879 684.34 561.745 682.836 562.178C677.472 563.715 671.987 564.684 666.383 565.082Z" fill="#FF554E"/>
<path d="M649.724 560.333L630.469 560.572C627.36 560.606 627.246 561.204 630.127 562.366C630.913 562.685 631.75 562.992 632.639 563.288C633.197 563.471 633.767 563.579 634.347 563.613L666.383 565.082C652.202 567.702 638.317 566.734 624.728 562.178C623.139 561.631 621.926 561.597 621.277 559.683C621.226 559.534 621.213 559.374 621.238 559.218C621.264 559.062 621.328 558.915 621.424 558.789C621.521 558.664 621.647 558.565 621.791 558.5C621.935 558.436 622.093 558.408 622.251 558.419L649.724 560.333Z" fill="#B32349"/>
<path d="M614.204 571.233C610.94 578.169 608.514 584.371 607.745 592.385C606.806 602.174 605.797 610.153 606.173 623.685C604.453 624.141 602.637 624.203 600.723 623.873C600.142 623.77 599.863 623.423 599.886 622.831C600.307 614.368 600.786 605.939 601.321 597.544C601.686 592.054 604.248 583.42 609.01 571.643C609.568 570.253 610.223 569.541 610.974 569.507C611.863 569.473 612.939 570.048 614.204 571.233Z" fill="#FEFEF7"/>
<path d="M614.204 571.233L619.517 573.3L618.748 580.22L618.577 605.13L618.133 619.55C618.122 619.918 618.038 620.279 617.885 620.613C617.732 620.947 617.514 621.247 617.243 621.496C616.973 621.744 616.655 621.936 616.309 622.06C615.963 622.183 615.596 622.236 615.229 622.216L608.275 621.857C607.933 621.834 607.745 621.993 607.711 622.335L607.575 623.651L606.173 623.685C605.798 610.153 606.806 602.174 607.745 592.384C608.514 584.371 610.94 578.169 614.204 571.233Z" fill="#CF7B46"/>
<path d="M691.892 623.907L691.413 602.174C691.185 595.329 689.38 588.631 685.997 582.082C685.655 581.421 685.12 581.188 684.391 581.382C678.77 582.851 673.593 584.816 668.006 585.414C662.493 585.995 656.958 586.393 651.399 586.61C645.898 586.815 640.379 585.533 634.741 584.935C628.864 584.32 623.909 582.39 618.749 580.22L619.518 573.3C631.432 576.626 639.667 578.449 644.223 578.768C659.475 579.838 674.1 577.879 688.099 572.89C688.85 572.628 689.391 572.862 689.722 573.591C697.154 590.044 698.692 605.592 698.777 623.155C698.779 623.266 698.759 623.376 698.717 623.478C698.675 623.581 698.612 623.674 698.532 623.752C698.452 623.831 698.357 623.892 698.253 623.933C698.148 623.975 698.036 623.995 697.923 623.993L691.892 623.907Z" fill="#FEFEF7"/>
<path d="M519.551 575.983C523.121 577.366 526.026 578.614 529.87 579.143C544.347 581.114 558.089 585.095 571.097 591.086C571.454 591.251 571.761 591.507 571.987 591.829C572.212 592.15 572.347 592.524 572.378 592.914C573.836 609.646 573.005 625.963 569.884 641.864L566.262 648.305C566.064 648.647 565.997 649.054 566.074 649.45C566.997 654.723 566.029 659.519 563.17 663.836C562.828 664.348 562.634 664.912 562.589 665.527L561.649 678.478C561.615 679.024 561.404 679.491 561.017 679.879C558.642 682.305 558.608 685.175 555.959 687.601C555.117 688.376 554.427 690.307 553.892 693.393C553.573 695.193 551.922 698.16 548.937 702.295C543.778 709.436 536.756 716.048 530.639 722.643C527.7 725.81 524.517 727.439 521.088 727.53C519.539 727.313 518.73 726.858 518.662 726.163L519.551 575.983Z" fill="#FEFEF7"/>
<path d="M618.748 580.22C623.908 582.39 628.862 584.32 634.74 584.936C640.378 585.534 645.897 586.815 651.398 586.61C656.957 586.394 662.492 585.995 668.005 585.414C673.592 584.816 678.769 582.851 684.39 581.382C685.119 581.188 685.654 581.422 685.996 582.082C689.379 588.632 691.184 595.329 691.412 602.175C691.218 602.175 691.025 602.175 690.831 602.175C689.954 598.234 689.191 594.264 688.542 590.266C688.382 589.321 687.539 587.903 686.013 586.012C685.683 585.59 685.495 585.647 685.449 586.183C685.176 589.315 685.313 592.966 685.859 597.135C686.315 600.609 685.837 603.399 684.424 605.506C664.879 613.041 649.724 612.477 629.512 608.548C625.924 607.847 622.302 606.19 618.577 605.13L618.748 580.22Z" fill="#FFD157"/>
<path d="M690.832 602.174L690.456 602.926C690.205 603.427 689.795 603.695 689.226 603.729C688.519 603.775 687.979 604.06 687.603 604.584C687.386 604.891 687.284 605.341 687.295 605.933C687.329 607.824 687.221 609.721 686.971 611.623C687.54 604.675 686.691 602.636 684.425 605.506C685.837 603.399 686.316 600.608 685.86 597.134C685.313 592.965 685.177 589.315 685.45 586.183C685.495 585.647 685.683 585.59 686.014 586.012C687.54 587.903 688.383 589.321 688.542 590.266C689.191 594.264 689.955 598.233 690.832 602.174Z" fill="#FE940E"/>
<path d="M690.832 602.174C691.025 602.174 691.219 602.174 691.413 602.174L691.891 623.907L686.082 623.941L686.971 611.623C687.221 609.72 687.329 607.824 687.295 605.933C687.284 605.341 687.386 604.891 687.603 604.583C687.979 604.059 688.519 603.775 689.226 603.729C689.795 603.695 690.205 603.427 690.456 602.926L690.832 602.174Z" fill="#CA6029"/>
<path d="M686.971 611.623L686.082 623.941L608.805 623.958C608.532 623.958 608.27 623.901 608.019 623.787C607.837 623.708 607.689 623.662 607.575 623.651L607.712 622.335C607.746 621.994 607.934 621.834 608.276 621.857L615.229 622.216C615.596 622.236 615.964 622.183 616.31 622.06C616.656 621.936 616.973 621.744 617.244 621.496C617.515 621.248 617.733 620.947 617.886 620.613C618.039 620.279 618.123 619.918 618.134 619.55L618.578 605.13C622.303 606.19 625.925 607.847 629.513 608.547C649.725 612.477 664.88 613.041 684.425 605.506C686.692 602.636 687.54 604.675 686.971 611.623Z" fill="#FDBB32"/>
<path d="M421.755 610.803C423.344 620.182 423.685 629.648 425.36 638.908C426.846 647.075 427.034 654.046 427.273 661.888C427.296 662.48 427.04 662.902 426.504 663.152C425.98 663.403 425.428 663.352 424.847 662.998C424.449 662.748 424.158 662.309 423.976 661.683C420.405 649.296 419.568 638.361 417.637 626.521C417.569 626.031 417.569 625.644 417.637 625.359C417.728 624.949 417.91 624.909 418.184 625.24C418.822 626.071 419.608 626.088 420.542 625.291C420.906 624.983 421.1 624.59 421.123 624.112L421.755 610.803Z" fill="#0081AF"/>
<path d="M368.448 629.306L325.563 680.972L324.88 678.973L336.515 664.553L367.508 628.452C367.873 628.019 368.134 628.076 368.294 628.623C368.351 628.805 368.402 629.033 368.448 629.306Z" fill="#A0C2DF"/>
<path d="M515.024 634.193C515.143 647.81 517.04 663.614 514.767 676.906C513.503 666.188 513.19 657.531 513.828 650.936C514.636 642.553 515.035 636.972 515.024 634.193Z" fill="#0081AF"/>
<path d="M611.556 637.695C609.745 640.326 609.352 643.316 610.377 646.665L602.484 646.716C601.859 646.721 601.251 646.518 600.759 646.14C600.266 645.762 599.917 645.231 599.767 644.632C597.939 637.387 606.191 637.832 611.556 637.695Z" fill="#B32349"/>
<path d="M611.555 637.695L695.598 637.797C697.284 637.797 698.127 638.64 698.127 640.326V644.204C698.127 645.81 697.318 646.614 695.701 646.614L610.376 646.665C609.351 643.316 609.744 640.326 611.555 637.695Z" fill="#FF554E"/>
<path d="M569.884 641.864C567.953 653.584 566.518 665.22 564.194 676.872C563.186 681.929 560.846 688.131 559.923 694.094C559.661 695.825 559.285 697.477 558.795 699.049C553.977 714.801 550.628 731.084 546.203 746.973C545.059 751.091 542.684 756.37 541.983 760.744C541.163 765.983 539.608 766.211 537.319 761.427L521.088 727.53C524.516 727.439 527.7 725.81 530.639 722.644C536.755 716.049 543.777 709.437 548.937 702.295C551.921 698.16 553.573 695.193 553.892 693.393C554.427 690.307 555.116 688.376 555.959 687.601C558.607 685.175 558.642 682.305 561.016 679.879C561.404 679.492 561.614 679.025 561.649 678.478L562.588 665.527C562.634 664.912 562.827 664.348 563.169 663.836C566.028 659.519 566.996 654.723 566.074 649.45C565.996 649.054 566.063 648.647 566.262 648.305L569.884 641.864Z" fill="#EEF9FC"/>
<path d="M499.441 646.973C499.84 653.898 500.25 660.772 500.672 667.595C500.757 668.842 500.091 670.226 500.091 671.593C500.148 679.828 500.005 688.074 499.664 696.332L499.441 646.973Z" fill="#0081AF"/>
<path d="M390.847 677.282L386.285 675.403C385.522 675.095 385.106 675.351 385.038 676.171C384.878 678.313 385.824 680.283 387.874 682.083C387.589 682.493 387.39 682.966 387.276 683.501C387.196 683.911 386.951 684.088 386.541 684.031C386.2 683.985 385.886 684.019 385.602 684.133C385.043 684.361 384.935 684.72 385.277 685.21C385.824 686.041 385.795 686.753 385.192 687.345L377.298 676.872C376.66 676.04 376.353 676.149 376.375 677.196L376.751 697.819L376.956 777.026L365.014 776.873L364.176 683.04L364.228 677.641C364.227 677.495 364.184 677.352 364.103 677.23C364.023 677.108 363.908 677.012 363.774 676.954C363.64 676.896 363.492 676.878 363.348 676.903C363.204 676.928 363.07 676.994 362.963 677.094C350.816 689.071 342.119 705.114 329.647 716.442C329.504 716.569 329.33 716.656 329.142 716.694C328.954 716.732 328.759 716.719 328.578 716.656C328.397 716.593 328.236 716.483 328.111 716.337C327.987 716.192 327.903 716.015 327.87 715.827C327.016 710.701 323.992 708.241 327.716 703.457C341.601 685.597 355.48 667.8 369.353 650.065C370.037 649.211 370.692 649.228 371.318 650.116L390.847 677.282Z" fill="#FEFEFD"/>
<path d="M439.625 651.619C443.35 655.879 445.286 659.086 445.434 661.238C445.799 666.649 447.103 671.752 449.346 676.547C451.328 680.796 452.701 684.076 453.464 686.388C456.3 695.068 459.734 698.86 466.91 705.729C469.872 708.565 473.238 711.373 477.008 714.152C482.76 718.378 488.643 722.74 494.657 727.239L494.982 742.855L494.674 743.675C494.652 743.734 494.616 743.786 494.569 743.827C494.521 743.868 494.465 743.897 494.404 743.911C494.342 743.924 494.279 743.922 494.219 743.905C494.159 743.888 494.104 743.856 494.059 743.812C493.956 743.71 493.848 743.601 493.734 743.487C493.575 743.328 493.404 743.317 493.222 743.453C490.545 745.355 487.954 748.271 485.448 752.201C478.705 762.748 473.579 771.9 470.071 779.657C461.921 761.683 456.762 742.309 452.456 723.105C447.194 699.561 442.917 675.733 439.625 651.619Z" fill="#EEF9FC"/>
<path d="M611.591 667.543C610.759 665.06 610.839 662.19 611.83 658.932L696.607 658.727C696.869 658.725 697.128 658.776 697.37 658.876C697.612 658.977 697.831 659.126 698.014 659.314C698.198 659.503 698.341 659.726 698.437 659.972C698.533 660.217 698.579 660.48 698.572 660.743L698.453 665.903C698.418 667.042 697.832 667.612 696.693 667.612L611.591 667.543Z" fill="#FF554E"/>
<path d="M611.829 658.932C610.838 662.19 610.758 665.06 611.59 667.543L602.585 667.372C600.706 667.35 599.818 666.399 599.92 664.519L600.023 662.349C600.125 660.481 601.105 659.638 602.961 659.821C606.059 660.128 609.015 659.832 611.829 658.932Z" fill="#B32349"/>
<path d="M323.376 664.212C323.627 664.827 323.923 665.339 324.264 665.749C324.64 666.171 324.851 666.66 324.897 667.219C324.919 667.355 324.937 667.509 324.948 667.68C324.957 667.809 324.999 667.934 325.069 668.043C325.14 668.152 325.237 668.241 325.351 668.303C325.465 668.364 325.593 668.395 325.723 668.394C325.852 668.393 325.98 668.359 326.093 668.295C327.357 667.566 328.712 667.253 330.159 667.355C330.717 667.401 331.241 667.293 331.731 667.031L336.515 664.553L324.879 678.973L323.376 664.212Z" fill="#13CAED"/>
<path d="M390.847 677.282C397.032 685.004 401.901 693.838 405.455 703.781L389.326 683.193C389.064 682.852 388.745 682.578 388.369 682.373L387.874 682.083C385.824 680.283 384.878 678.313 385.038 676.171C385.106 675.351 385.522 675.095 386.285 675.402L390.847 677.282Z" fill="#B7CEE2"/>
<path d="M387.874 682.083L388.369 682.373C388.745 682.578 389.064 682.852 389.326 683.194L405.455 703.781L410.768 713.042C410.847 713.173 410.891 713.323 410.897 713.478C410.903 713.633 410.87 713.788 410.802 713.93L409.145 717.433C409.125 717.475 409.095 717.511 409.057 717.538C409.019 717.564 408.975 717.581 408.929 717.586C408.882 717.591 408.836 717.585 408.793 717.567C408.75 717.549 408.712 717.52 408.684 717.484L385.191 687.345C385.795 686.753 385.823 686.041 385.277 685.21C384.935 684.72 385.043 684.361 385.601 684.133C385.886 684.019 386.199 683.985 386.541 684.031C386.951 684.088 387.196 683.911 387.276 683.501C387.39 682.966 387.589 682.493 387.874 682.083Z" fill="#EEF9FC"/>
<path d="M621.704 682.339C621.784 692.921 621.921 703.383 622.115 713.725C622.137 715.092 622.923 715.724 624.472 715.622C620.702 717.524 616.63 718.634 612.256 718.953C612.015 718.972 611.772 718.941 611.542 718.864C611.312 718.787 611.1 718.665 610.917 718.505C610.734 718.344 610.585 718.148 610.477 717.929C610.37 717.71 610.307 717.472 610.292 717.228L608.105 684.116C608.09 683.869 608.127 683.622 608.212 683.39C608.297 683.158 608.429 682.946 608.599 682.768C608.769 682.59 608.974 682.449 609.201 682.355C609.427 682.26 609.671 682.214 609.916 682.22L621.704 682.339Z" fill="#B32349"/>
<path d="M624.472 715.621C622.923 715.724 622.137 715.092 622.114 713.725C621.921 703.382 621.784 692.921 621.704 682.339C629.757 682.077 637.975 682.043 646.358 682.236C648.568 682.282 650.459 682.521 652.031 682.954C652.31 683.03 652.569 683.169 652.787 683.358C653.006 683.548 653.179 683.785 653.294 684.051C653.409 684.316 653.462 684.605 653.451 684.894C653.439 685.183 653.363 685.466 653.227 685.722C650.778 690.301 648.335 694.492 645.897 698.297C640.618 706.549 632.878 711.077 624.472 715.621Z" fill="#FF554E"/>
<path d="M685.62 682.288C685.671 689.225 684.526 695.922 685.158 702.859C685.375 705.273 684.805 707.176 683.45 708.565C676.496 704.191 670.294 696.913 674.121 688.08C676.297 683.091 680.13 681.16 685.62 682.288Z" fill="#FF554E"/>
<path d="M685.621 682.288C688.867 682.88 692.313 682.903 695.958 682.356C696.097 682.334 696.238 682.342 696.374 682.38C696.509 682.418 696.634 682.484 696.742 682.575C696.849 682.666 696.935 682.779 696.994 682.906C697.054 683.034 697.085 683.172 697.085 683.313L697.119 715.502C697.12 715.632 697.085 715.759 697.02 715.871C696.955 715.984 696.861 716.077 696.748 716.141C696.635 716.205 696.507 716.239 696.378 716.237C696.248 716.236 696.121 716.2 696.009 716.134L683.451 708.565C684.807 707.175 685.376 705.273 685.16 702.859C684.528 695.922 685.672 689.224 685.621 682.288Z" fill="#B32349"/>
<path d="M364.176 683.04L365.013 776.872H349.876L334.533 737.559C342.768 724.392 352.256 711.555 362.998 699.049C363.487 698.479 363.789 697.386 363.903 695.768C364.199 691.531 364.29 687.288 364.176 683.04Z" fill="#07A1C5"/>
<path d="M511.692 696.862L509.3 700.894L506.839 695.854C506.629 695.444 506.563 694.975 506.651 694.521C507.073 692.118 507.5 689.737 507.933 687.379C508.092 686.502 508.383 685.927 508.804 685.654C509.419 685.232 510.205 685.261 511.162 685.739C511.263 685.791 511.351 685.866 511.419 685.957C511.488 686.049 511.534 686.154 511.555 686.266C511.577 686.378 511.573 686.493 511.543 686.603C511.513 686.713 511.459 686.815 511.384 686.901C510.188 688.285 509.112 689.583 509.214 691.548C509.385 694.669 510.211 696.44 511.692 696.862Z" fill="#0081AF"/>
<path d="M376.751 697.818L408.632 742.223C409.065 742.827 409.196 743.493 409.025 744.222L401.2 776.821C401.064 777.425 400.682 777.715 400.055 777.692L376.956 777.026L376.751 697.818Z" fill="#01527F"/>
<path d="M663.273 709.163C662.089 708.719 661.661 708.708 661.992 709.129C657.812 718.173 651.587 725.736 643.317 731.818C641.654 732.194 640.424 733.049 639.627 734.381C639.569 734.479 639.49 734.563 639.395 734.627C639.3 734.691 639.192 734.733 639.078 734.751C638.965 734.769 638.848 734.762 638.736 734.73C638.624 734.699 638.52 734.644 638.431 734.569L636.039 732.434C635.675 732.103 635.675 731.773 636.039 731.443L637.372 730.212C637.77 729.848 638.237 729.626 638.773 729.546C641.552 729.148 643.488 727.576 644.582 724.831C644.582 724.808 644.576 724.785 644.565 724.762C644.565 724.739 644.559 724.722 644.547 724.711C644.513 724.643 644.491 724.637 644.479 724.694C644.16 725.491 643.488 725.662 642.463 725.206C649.468 719.887 655.477 713.742 660.488 706.771C660.807 706.327 661.189 706.27 661.633 706.6C662.442 707.193 662.988 708.047 663.273 709.163Z" fill="#CA6029"/>
<path d="M663.272 709.163C676.445 726.436 691.754 734.518 713.401 737.132C715.474 737.382 717.222 738.032 718.646 739.08C719.159 739.455 719.347 739.951 719.21 740.566C718.162 745.339 715.411 748.351 710.958 749.604C707.734 748.579 704.556 748.568 701.424 749.57C667.766 749.308 634.034 749.405 600.227 749.86C594.128 749.929 585.807 746.785 584.475 739.934C584.445 739.79 584.445 739.642 584.474 739.498C584.503 739.354 584.56 739.217 584.643 739.096C584.726 738.975 584.833 738.872 584.956 738.792C585.08 738.713 585.218 738.66 585.363 738.635C590.882 737.696 595.802 736.79 601.782 736.636C616.35 736.238 629.91 732.428 642.462 725.206C643.487 725.662 644.16 725.491 644.478 724.694C644.49 724.637 644.513 724.642 644.547 724.711C644.558 724.722 644.564 724.739 644.564 724.762C644.575 724.785 644.581 724.808 644.581 724.83C643.487 727.575 641.551 729.147 638.772 729.546C638.237 729.626 637.77 729.848 637.371 730.212L636.038 731.442C635.674 731.773 635.674 732.103 636.038 732.433L638.43 734.569C638.519 734.644 638.624 734.699 638.735 734.73C638.847 734.762 638.964 734.769 639.078 734.751C639.191 734.733 639.299 734.691 639.394 734.627C639.489 734.563 639.568 734.479 639.626 734.381C640.424 733.048 641.654 732.194 643.317 731.818C641.232 734.153 640.532 736.483 641.215 738.806C641.406 739.464 641.805 740.042 642.352 740.449C642.898 740.857 643.561 741.072 644.239 741.062C651.62 740.948 658.961 740.475 666.262 739.643C670.944 739.114 677.282 739.609 682.357 738.123C685.136 737.303 685.256 736.204 682.716 734.825C678.957 732.775 675.181 731.186 672.089 727.889C667.937 723.481 662.623 717.979 662.948 711.623C663.005 710.575 662.686 709.744 661.991 709.129C661.661 708.707 662.088 708.719 663.272 709.163Z" fill="#FE940E"/>
<path d="M589.737 721.43C589.722 721.495 589.693 721.555 589.653 721.608C589.613 721.66 589.563 721.704 589.505 721.736C589.447 721.768 589.383 721.788 589.317 721.794C589.252 721.8 589.185 721.793 589.122 721.772L588.029 721.43C587.254 721.191 586.918 720.673 587.021 719.876L588.388 709.898C588.399 709.76 588.459 709.63 588.557 709.532C588.655 709.435 588.785 709.375 588.923 709.365C589.062 709.355 589.199 709.394 589.31 709.476C589.422 709.558 589.501 709.677 589.532 709.812C590.603 713.696 590.671 717.569 589.737 721.43Z" fill="#FEFEFD"/>
<path d="M661.992 709.129C662.687 709.744 663.006 710.576 662.949 711.624C662.624 717.979 667.938 723.481 672.089 727.889C675.182 731.186 678.958 732.775 682.716 734.826C685.256 736.204 685.137 737.303 682.358 738.123C677.283 739.609 670.945 739.114 666.263 739.644C658.962 740.475 651.621 740.948 644.24 741.062C643.562 741.072 642.899 740.857 642.353 740.449C641.806 740.042 641.407 739.465 641.216 738.806C640.533 736.483 641.233 734.154 643.317 731.819C651.587 725.736 657.812 718.173 661.992 709.129Z" fill="#FFD157"/>
<path d="M334.532 737.559L349.875 776.873C348.03 776.747 345.94 777.157 343.605 778.103C343.346 778.206 343.07 778.255 342.791 778.247C342.513 778.24 342.24 778.176 341.987 778.059C341.735 777.942 341.509 777.775 341.323 777.568C341.137 777.362 340.995 777.119 340.905 776.856C336.862 765.032 333.724 753.528 331.491 742.343C331.184 740.817 332.197 739.222 334.532 737.559Z" fill="#016288"/>
<path d="M494.982 742.856L495.05 747.947C494.765 747.412 494.293 747.235 493.632 747.418C492.926 747.623 492.573 748.09 492.573 748.819L492.522 772.14C492.518 772.556 492.429 772.967 492.26 773.347C492.091 773.727 491.845 774.067 491.538 774.347C491.232 774.626 490.871 774.838 490.478 774.97C490.086 775.102 489.67 775.151 489.258 775.113C487.294 774.942 481.16 775.113 479.366 776.821C478.261 777.892 478.421 778.541 479.844 778.769C476.347 779.68 473.09 779.977 470.071 779.658C473.579 771.901 478.705 762.749 485.448 752.201C487.954 748.272 490.545 745.356 493.222 743.454C493.404 743.317 493.575 743.328 493.735 743.488C493.849 743.602 493.957 743.71 494.059 743.812C494.104 743.856 494.159 743.888 494.219 743.905C494.279 743.923 494.343 743.925 494.404 743.911C494.465 743.897 494.522 743.869 494.569 743.828C494.616 743.787 494.652 743.734 494.674 743.676L494.982 742.856Z" fill="#A0C2DF"/>
<path d="M495.05 747.947L494.965 773.148C494.96 774.154 494.591 775.125 493.925 775.879C493.258 776.633 492.341 777.12 491.343 777.248L479.844 778.769C478.42 778.541 478.261 777.892 479.366 776.821C481.16 775.112 487.293 774.942 489.258 775.112C489.67 775.15 490.086 775.102 490.478 774.97C490.871 774.838 491.231 774.625 491.538 774.346C491.845 774.067 492.091 773.726 492.26 773.346C492.429 772.967 492.518 772.556 492.521 772.14L492.573 748.818C492.573 748.089 492.926 747.622 493.632 747.417C494.293 747.235 494.765 747.411 495.05 747.947Z" fill="#B7CEE2"/>
<path d="M523.413 777.607C522.365 777.823 521.499 777.863 520.815 777.727C520.212 777.601 519.904 777.225 519.893 776.599L519.363 749.262C519.887 749.217 520.189 749.131 520.269 749.006C520.34 748.895 520.445 748.809 520.568 748.76C520.691 748.712 520.826 748.703 520.954 748.735C521.082 748.767 521.197 748.838 521.282 748.939C521.368 749.04 521.42 749.165 521.431 749.297L523.413 777.607Z" fill="#EEF9FC"/>
<path d="M710.959 749.604C707.712 750.584 704.534 750.572 701.425 749.57C704.557 748.568 707.735 748.579 710.959 749.604Z" fill="#B25937"/>
<path d="M426.521 779.726C425.951 779.726 425.746 779.452 425.906 778.906L433.013 753.124C433.127 752.702 433.253 752.697 433.389 753.107L442.684 778.957C442.877 779.504 442.684 779.777 442.103 779.777L426.521 779.726Z" fill="#FEFEFD"/>
<path d="M567.834 779.179L574.617 759.531C574.799 758.984 575.141 758.853 575.642 759.138C579.743 761.462 584.133 763.102 588.815 764.059C590.227 764.355 590.535 765.101 589.738 766.297L582.51 777.266C581.451 778.86 579.965 779.675 578.051 779.709L568.295 779.845C568.216 779.845 568.138 779.825 568.068 779.788C567.997 779.751 567.937 779.697 567.892 779.632C567.846 779.567 567.818 779.491 567.808 779.413C567.798 779.334 567.807 779.254 567.834 779.179Z" fill="#FEFEFD"/>
<path d="M644.804 773.131C638.961 773.814 634.069 774.173 630.128 774.207C625.105 774.253 618.396 774.036 610.001 773.558C612.427 768.318 615.719 765.345 619.876 764.639C630.139 762.919 638.448 765.75 644.804 773.131Z" fill="#FEE986"/>
<path d="M697.58 773.148L663.99 773.233C670.961 762.692 691.498 760.231 697.58 773.148Z" fill="#FEE986"/>
<path d="M697.58 773.148C698.765 773.979 699.949 775.711 701.134 778.342C701.208 778.505 701.24 778.685 701.227 778.864C701.214 779.043 701.157 779.216 701.06 779.367C700.963 779.518 700.83 779.642 700.673 779.729C700.516 779.815 700.34 779.861 700.16 779.862L663.922 780.033C663.318 780.033 662.942 779.743 662.794 779.162C662.282 777.248 662.68 775.272 663.99 773.233L697.58 773.148Z" fill="#FE940E"/>
<path d="M644.803 773.131C645.68 775.602 645.76 777.584 645.042 779.076C644.758 779.68 644.279 779.988 643.607 779.999L607.489 780.324C606.953 780.335 606.805 780.102 607.044 779.623L610 773.558C618.395 774.036 625.104 774.253 630.127 774.207C634.068 774.173 638.96 773.814 644.803 773.131Z" fill="#FE940E"/>
<path d="M638.567 376.323C648.101 372.444 655.67 367.831 662.606 358.297C663.005 357.739 663.273 357.802 663.409 358.485C664.104 362.176 665.573 365.815 667.817 369.403C677.556 384.985 659.719 401.199 645.094 390.162C641.574 387.496 639 383.755 637.371 378.937C637.201 378.431 637.23 377.879 637.452 377.393C637.674 376.908 638.073 376.525 638.567 376.323Z" fill="#FFD157"/>
<path d="M643.078 476.836C643.682 476.825 644.058 476.876 644.206 476.99C645.459 478.061 645.322 478.596 643.796 478.596H638.243C637.81 478.596 637.594 478.38 637.594 477.947V477.315C637.598 477.127 637.664 476.947 637.782 476.804C637.9 476.661 638.063 476.564 638.243 476.529C640.191 476.17 641.575 476.887 643.078 476.836Z" fill="#B25937"/>
</svg>
