<svg width="1024" height="1024" viewBox="0 0 1024 1024" fill="none" xmlns="http://www.w3.org/2000/svg">
<rect width="1024" height="1024" fill="white"/>
<path d="M703.106 309.325C704.569 310.214 706.606 311.683 709.217 313.734C737.167 335.635 769.075 364.118 773.033 400.701C776.498 432.712 761.467 459.227 732.287 472.822C731.603 473.137 731.261 473.67 731.261 474.422C731.261 504.73 731.295 535.005 731.364 565.245C731.384 575.58 717.543 582.839 708.786 576.031C705.444 573.427 703.414 569.449 703.393 564.876C703.229 536.823 703.017 508.777 702.758 480.738C702.758 480.068 702.422 479.747 701.753 479.774L683.625 480.389C683.21 480.405 682.818 480.584 682.534 480.888C682.25 481.191 682.096 481.594 682.108 482.009C682.579 500.486 682.005 520.5 683.953 537.623C688.218 575.395 697.508 614.993 717.522 647.804C729.703 667.756 743.114 685.658 750.455 708.236C760.38 738.708 752.568 771.703 730.134 794.178C714.528 809.825 698.861 811.896 675.238 811.875C567.155 811.725 459.08 811.656 351.011 811.67C339.733 811.67 326.793 812.737 316.888 811.034C272.779 803.447 253.073 757.759 260.845 717.484C263.483 703.854 269.211 690.409 278.029 677.148C294.598 652.212 309.506 630.25 317.176 603.182C328.598 562.784 334.811 523.576 332.412 481.804C332.385 481.148 332.036 480.806 331.366 480.779C281.187 478.831 236.996 437.736 255.164 384.358C267.55 347.98 303.354 319.312 334.627 299.318C382.16 268.914 434.5 252.577 491.644 250.308C493.107 250.239 493.77 249.48 493.633 248.031C492.731 238.229 490.598 224.941 497.632 217.087C504.194 209.766 516.477 210.3 521.522 218.994C525.705 226.212 523.983 238.803 523.716 247.867C523.705 248.325 523.872 248.769 524.181 249.106C524.491 249.442 524.92 249.645 525.377 249.672C589.084 253.267 647.602 272.4 700.932 307.069C701.261 307.288 701.541 307.589 701.773 307.972C702.101 308.532 702.546 308.983 703.106 309.325Z" fill="#010111"/>
<path d="M525.5 278.545C525.685 286.481 521.358 288.408 514.078 288.86C503.592 289.489 493.134 290.206 482.703 291.013" stroke="#9AA8BC" stroke-width="2"/>
<path d="M482.703 291.013C463.646 293.733 448.813 296.454 438.204 299.174C396.987 309.769 360.43 328.758 328.536 356.141C303.969 377.242 286.662 403.511 293.183 437.736" stroke="#8B97AE" stroke-width="2"/>
<path d="M381.75 329.36C379.522 330.576 377.683 332.333 376.234 334.63" stroke="#8B97AE" stroke-width="2"/>
<path d="M659.591 316.563L657.704 354.459" stroke="#26406F" stroke-width="2"/>
<path d="M645.934 374.658C644.375 376.135 643.678 377.714 641.894 378.821C634.252 383.647 627.348 386.183 621.183 386.429C607.088 387.017 588.29 385.615 564.79 382.225C539.512 378.589 508.76 378.008 472.532 380.482C423.911 383.804 375.7 398.118 330.607 414.687C328.515 415.445 326.608 416.881 325.275 419.034C319.082 428.918 307.947 425.965 300.093 419.383C287.523 408.842 309.588 379.99 317.032 371.521C319.752 368.417 324.311 364.268 330.709 359.073C335.371 355.273 339.93 351.349 344.387 347.303C344.852 346.893 345.372 346.578 345.946 346.359C347.408 345.799 348.714 344.999 349.862 343.96C350.409 343.468 350.997 343.024 351.626 342.627L366.596 333.153C367.156 332.812 367.758 332.702 368.4 332.825C369.48 333.03 370.116 332.552 370.307 331.39C370.362 331.034 370.567 330.843 370.922 330.816L373.076 330.652C373.317 330.634 373.556 330.71 373.74 330.864C373.925 331.017 374.039 331.236 374.06 331.472C374.142 332.128 374.108 332.771 373.957 333.399C373.821 333.974 374.046 334.267 374.634 334.281C375.277 334.295 375.81 334.411 376.234 334.63" stroke="#26406F" stroke-width="2"/>
<path d="M376.234 334.63L374.634 338.054" stroke="#9AA8BC" stroke-width="2"/>
<path d="M374.634 338.054C374.429 337.549 373.889 337.234 373.014 337.111C372.453 337.029 372.105 337.261 371.968 337.808C368.995 349.702 376.992 358.909 388.886 358.274C400.123 357.679 407.383 342.771 401.702 333.317C399.966 330.433 398.1 328.512 396.104 327.555C392.03 325.6 390.834 325.908 392.515 328.478" stroke="#26406F" stroke-width="2"/>
<path d="M392.516 328.478C388.825 328.123 385.236 328.416 381.75 329.36" stroke="#9AA8BC" stroke-width="2"/>
<path d="M381.751 329.36C382.133 328.239 382.017 327.049 381.402 325.791C381.156 325.286 381.286 324.923 381.792 324.705C382.544 324.377 383.186 323.98 383.719 323.515C384.786 322.545 385.524 321.95 385.934 321.731C394.697 317.206 403.679 313.173 412.879 309.632C413.522 309.386 414.185 309.256 414.869 309.243C415.757 309.215 416.851 308.942 418.149 308.423C421.786 307.001 427.76 305.162 436.072 302.906C440.85 301.594 445.239 302.271 449.36 299.359C449.921 298.962 450.536 298.805 451.206 298.887C454.323 299.229 457.276 298.826 460.065 297.677C463.92 296.078 468.144 296.754 472.533 295.421C476.046 294.341 479.655 293.781 483.36 293.74C483.483 293.74 483.585 293.706 483.667 293.637C483.722 293.596 483.763 293.562 483.79 293.535C484.064 293.302 484.064 293.214 483.79 293.268C483.367 293.35 482.991 293.234 482.663 292.92C482.636 292.892 482.616 292.859 482.604 292.822C482.593 292.786 482.59 292.747 482.596 292.709C482.602 292.672 482.616 292.636 482.639 292.605C482.661 292.573 482.69 292.548 482.724 292.53C482.902 292.448 483.086 292.366 483.278 292.284C483.633 292.147 483.647 291.983 483.319 291.792C482.813 291.491 482.608 291.231 482.704 291.013" stroke="#26406F" stroke-width="2"/>
<path d="M699.373 374.679C695.272 372.956 690.118 374.207 683.912 378.431C682.845 379.17 681.738 378.965 680.569 378.657C679.981 378.493 679.503 378.664 679.134 379.17L677.083 382" stroke="#26406F" stroke-width="2"/>
<path d="M374.634 338.054C372.953 347.815 375.68 353.509 382.816 355.136C399.406 358.93 408.757 336.475 392.516 328.478" stroke="#8B97AE" stroke-width="2"/>
<path d="M698.246 382.287C698.984 388.958 696.195 394.577 689.879 399.143C686.981 401.248 679.489 404.256 667.404 408.166" stroke="#26406F" stroke-width="2"/>
<path d="M498.083 427.319L500.338 430.682C500.68 431.201 501.152 431.536 501.753 431.687C502.177 431.796 502.567 431.96 502.922 432.179C503.455 432.521 503.845 433.143 504.091 434.045C505.226 438.092 506.723 442.384 508.582 446.923" stroke="#818BA9" stroke-width="2"/>
<path d="M508.582 446.923C509.853 448.522 510.68 450.183 511.063 451.906" stroke="#96ABC0" stroke-width="2"/>
<path d="M377.628 469.706L372.46 447.559" stroke="#E6E3E8" stroke-width="2"/>
<path d="M558.392 430.415C564.598 435.979 568.57 444.387 570.306 455.638" stroke="#26406F" stroke-width="2"/>
<path d="M539.055 453.218L541.618 452.87C542.165 452.801 542.315 452.514 542.069 452.008L540.387 448.461C540.237 448.146 540.005 448.064 539.69 448.215C533.723 450.799 526.279 449.322 520.537 449.425C515.944 449.493 511.959 448.659 508.582 446.923" stroke="#497094" stroke-width="2"/>
<path d="M547.503 481.948L519.614 481.907" stroke="#BE4F2E" stroke-width="2"/>
<path d="M519.615 481.907L514.488 481.332" stroke="#D27D50" stroke-width="2"/>
<path d="M514.488 481.332L512.355 480.82" stroke="#C6613A" stroke-width="2"/>
<path d="M514.488 481.332C513.585 485.577 512.396 492.652 516.087 496.015C521.515 500.991 526.279 505.769 530.38 510.349" stroke="#F3A967" stroke-width="2"/>
<path d="M530.381 510.349C529.724 512.755 530.893 515.462 533.887 518.47C543.894 528.497 558.126 538.791 571.455 541.006C576.349 541.826 585.768 542.161 599.713 542.011C601.189 541.984 603.534 541.731 606.747 541.252C611.996 540.459 614.272 541.608 613.575 544.697" stroke="#DF7B45" stroke-width="2"/>
<path d="M507.249 534.588C501.398 528.244 497.918 523.692 496.811 520.93C495.348 517.28 493.469 513.801 491.172 510.493" stroke="#F3C6A6" stroke-width="2"/>
<path d="M519.614 481.907C528.37 482.03 543.053 480.041 550.066 486.726C560.484 496.61 580.539 520.397 580.416 535.346C580.412 535.818 580.303 536.283 580.096 536.707C579.889 537.131 579.589 537.504 579.219 537.797C578.85 538.09 578.419 538.296 577.959 538.401C577.499 538.506 577.021 538.506 576.561 538.402C569.342 536.775 562.473 534.314 555.952 531.02C546.683 526.324 538.747 517.69 530.38 510.349" stroke="#EB965B" stroke-width="2"/>
<path d="M655.551 544.861C654.636 544.52 654.048 543.74 653.788 542.524C653.665 541.963 653.33 541.765 652.783 541.929C651.211 542.407 649.605 542.572 647.964 542.421C647.226 542.353 646.522 542.496 645.852 542.852C644.157 543.781 642.509 543.85 640.91 543.057C639.351 542.278 637.991 542.196 636.829 542.811" stroke="#DF7B45" stroke-width="2"/>
<path d="M431.437 552.141C435.278 551.881 439.092 550.61 442.879 548.327" stroke="#AFC7D3" stroke-width="2"/>
<path d="M621.9 759.769C639.645 762.749 657.178 763.678 674.499 762.557C682.005 762.065 687.596 758.62 691.274 752.222C701.219 734.874 693.16 711.127 684.65 694.066C675.586 675.897 664.615 656.908 657.91 639.396C652.099 624.262 647.41 608.766 643.842 592.908C642.106 585.143 640.37 577.788 638.634 570.843" stroke="#F3A967" stroke-width="2"/>
<path d="M395.489 760.302C374.716 762.434 355.666 764.834 334.647 763.275C325.132 762.557 319.431 758.046 313.71 752.099C311.167 749.447 309.813 749.953 309.649 753.617L309.26 763.173" stroke="#F3A967" stroke-width="2"/>
<path d="M309.259 763.173C308.658 754.136 307.974 745.059 307.208 735.94C305.992 721.681 309.225 708.619 316.908 696.752C327.428 680.491 340.265 663.635 349.513 644.851C353.177 637.414 356.458 628.637 359.356 618.52C361.954 609.47 364.408 600.386 366.718 591.267C372.077 570.091 375.133 548.847 375.884 527.534C375.909 526.95 376.113 526.389 376.469 525.926C376.826 525.464 377.316 525.123 377.873 524.95C403.055 517.014 434.594 511.908 447.575 485.29" stroke="#FFE2BC" stroke-width="2"/>
<path d="M309.26 763.173C309.984 769.201 308.672 773.098 305.322 774.861" stroke="#F3C6A6" stroke-width="2"/>
<path d="M485.901 752.448C497.057 762.345 508.903 771.108 521.439 778.737C523.79 780.172 526.374 780.904 529.19 780.931C541.713 781.054 554.215 781.075 566.697 780.993C566.807 780.993 566.916 780.971 567.018 780.929C567.12 780.886 567.213 780.824 567.291 780.746C567.369 780.668 567.431 780.576 567.473 780.474C567.516 780.372 567.537 780.262 567.537 780.152L567.824 737.376C567.832 736.918 567.706 736.469 567.461 736.083C567.216 735.697 566.864 735.392 566.447 735.204C566.03 735.016 565.567 734.955 565.116 735.027C564.665 735.1 564.245 735.303 563.908 735.612C551.713 746.603 537.126 753.951 520.147 757.656C518.862 757.943 517.03 757.95 514.651 757.677C514.063 757.622 514.036 757.472 514.569 757.226C515.513 756.788 516.23 756.221 516.722 755.524" stroke="#E6E3E8" stroke-width="2"/>
<path d="M525.499 278.545C525.684 286.481 521.357 288.409 514.077 288.86C503.592 289.489 493.133 290.206 482.702 291.013C463.645 293.733 448.812 296.454 438.204 299.174C396.986 309.769 360.43 328.758 328.535 356.141C303.969 377.242 286.661 403.511 293.182 437.736C266.914 410.975 286.354 378.083 307.598 357.269C340.162 325.361 382.59 301.553 427.458 288.983C457.664 280.534 491.664 276.023 523.51 277.335C524.426 277.362 525.089 277.766 525.499 278.545Z" fill="#FFFFFB"/>
<path d="M659.591 316.564L657.704 354.46C650.801 358.848 646.877 365.581 645.934 374.659C644.375 376.135 643.678 377.714 641.894 378.821C634.252 383.647 627.348 386.183 621.183 386.429C607.088 387.017 588.29 385.616 564.79 382.225C539.512 378.589 508.76 378.008 472.532 380.482C423.911 383.804 375.7 398.118 330.607 414.687C328.515 415.446 326.608 416.881 325.275 419.034C319.082 428.918 307.947 425.966 300.093 419.383C287.523 408.843 309.588 379.99 317.032 371.521C319.752 368.418 324.311 364.269 330.709 359.074C335.371 355.273 339.93 351.35 344.387 347.303C344.852 346.893 345.372 346.578 345.946 346.36C347.408 345.799 348.714 344.999 349.862 343.96C350.409 343.468 350.997 343.024 351.626 342.628L366.596 333.154C367.156 332.812 367.758 332.702 368.4 332.825C369.48 333.031 370.116 332.552 370.307 331.39C370.362 331.035 370.567 330.843 370.922 330.816L373.076 330.652C373.317 330.634 373.556 330.71 373.74 330.864C373.925 331.017 374.039 331.236 374.06 331.472C374.142 332.128 374.108 332.771 373.957 333.4C373.821 333.974 374.046 334.268 374.634 334.281C375.277 334.295 375.81 334.411 376.234 334.63L374.634 338.055C374.429 337.549 373.889 337.234 373.014 337.111C372.454 337.029 372.105 337.262 371.968 337.809C368.995 349.702 376.992 358.91 388.886 358.274C400.123 357.679 407.383 342.771 401.702 333.318C399.966 330.433 398.1 328.512 396.104 327.555C392.03 325.6 390.834 325.908 392.516 328.478C388.825 328.123 385.236 328.417 381.75 329.36C382.133 328.239 382.016 327.05 381.401 325.792C381.155 325.286 381.285 324.924 381.791 324.705C382.543 324.377 383.185 323.98 383.718 323.516C384.785 322.545 385.523 321.95 385.933 321.731C394.696 317.206 403.678 313.174 412.878 309.633C413.521 309.387 414.184 309.257 414.868 309.243C415.756 309.216 416.85 308.942 418.149 308.423C421.785 307.001 427.759 305.162 436.071 302.907C440.849 301.594 445.238 302.271 449.359 299.359C449.92 298.963 450.535 298.805 451.205 298.887C454.322 299.229 457.275 298.826 460.064 297.677C463.919 296.078 468.143 296.755 472.532 295.422C476.045 294.342 479.654 293.781 483.359 293.74C483.482 293.74 483.585 293.706 483.667 293.638C483.721 293.597 483.762 293.563 483.79 293.535C484.063 293.303 484.063 293.214 483.79 293.269C483.366 293.351 482.99 293.234 482.662 292.92C482.635 292.893 482.615 292.859 482.604 292.823C482.592 292.786 482.589 292.748 482.595 292.71C482.601 292.672 482.616 292.636 482.638 292.605C482.66 292.574 482.689 292.548 482.723 292.53C482.901 292.448 483.086 292.366 483.277 292.284C483.632 292.148 483.646 291.984 483.318 291.792C482.812 291.491 482.607 291.232 482.703 291.013C493.134 290.206 503.592 289.489 514.078 288.86C521.357 288.409 525.684 286.481 525.5 278.545C525.787 278.873 526.197 278.907 526.73 278.648C527.291 278.374 527.878 278.265 528.494 278.319C570.614 281.867 612.57 294.438 650.732 312.401C653.671 313.782 656.624 315.169 659.591 316.564Z" fill="#34507D"/>
<path d="M482.703 291.013C482.608 291.231 482.813 291.491 483.318 291.792C483.647 291.983 483.633 292.147 483.277 292.284C483.086 292.366 482.901 292.448 482.724 292.53C482.69 292.548 482.661 292.573 482.638 292.605C482.616 292.636 482.601 292.672 482.595 292.709C482.589 292.747 482.592 292.786 482.604 292.822C482.616 292.859 482.636 292.892 482.662 292.92C482.99 293.234 483.366 293.35 483.79 293.268C484.064 293.214 484.064 293.302 483.79 293.535C483.763 293.562 483.722 293.596 483.667 293.637C483.585 293.706 483.482 293.74 483.359 293.74C479.655 293.781 476.046 294.341 472.532 295.421C468.144 296.754 463.919 296.078 460.064 297.677C457.275 298.826 454.322 299.229 451.205 298.887C450.536 298.805 449.92 298.962 449.36 299.359C445.238 302.271 440.85 301.594 436.072 302.906C427.76 305.162 421.786 307.001 418.149 308.423C416.85 308.942 415.757 309.215 414.868 309.243C414.185 309.256 413.521 309.386 412.879 309.632C403.678 313.173 394.697 317.206 385.934 321.731C385.523 321.95 384.785 322.545 383.719 323.515C383.186 323.98 382.543 324.377 381.791 324.705C381.285 324.923 381.156 325.286 381.402 325.791C382.017 327.049 382.133 328.239 381.75 329.36C379.522 330.576 377.683 332.333 376.234 334.63C375.81 334.411 375.277 334.295 374.635 334.281C374.047 334.267 373.821 333.974 373.958 333.399C374.108 332.77 374.142 332.128 374.06 331.472C374.04 331.236 373.925 331.017 373.741 330.864C373.557 330.71 373.318 330.634 373.076 330.651L370.923 330.816C370.567 330.843 370.362 331.034 370.308 331.39C370.116 332.552 369.481 333.03 368.401 332.825C367.758 332.702 367.156 332.811 366.596 333.153L351.626 342.627C350.997 343.024 350.41 343.468 349.863 343.96C348.714 344.999 347.409 345.799 345.946 346.359C345.372 346.578 344.852 346.893 344.388 347.303C339.931 351.349 335.372 355.273 330.71 359.073C324.312 364.268 319.753 368.417 317.032 371.521C309.588 379.99 287.523 408.842 300.094 419.383C307.948 425.965 319.083 428.918 325.276 419.034C326.609 416.881 328.516 415.445 330.607 414.687C375.701 398.118 423.911 383.804 472.532 380.482C508.76 378.008 539.513 378.589 564.79 382.225C588.291 385.615 607.088 387.017 621.183 386.429C627.349 386.183 634.252 383.647 641.894 378.821C643.678 377.714 644.376 376.135 645.934 374.658C645.415 375.369 645.326 375.984 645.668 376.504C645.873 376.818 646.337 377.064 647.062 377.242C659.202 380.236 646.939 393.278 642.653 396.498C626.576 408.617 608.038 406.976 589.952 404.7C570.922 402.321 554.496 400.612 540.675 399.573C498.951 396.443 457.31 399.068 415.75 407.448C392.967 412.041 364.853 421.474 339.199 427.831C332.993 429.362 326.998 429.937 321.215 429.554C320.86 429.529 320.503 429.591 320.177 429.734C319.85 429.878 319.563 430.099 319.34 430.379C319.116 430.659 318.963 430.989 318.894 431.342C318.824 431.694 318.839 432.059 318.939 432.404C320.416 437.476 320.477 442.562 319.124 447.661C318.919 448.427 318.426 448.741 317.647 448.604C310.333 447.251 303.334 444.927 296.649 441.632C296.385 441.499 296.168 441.288 296.029 441.027C295.889 440.767 295.834 440.47 295.869 440.176C296.006 439.069 295.111 438.255 293.183 437.736C286.662 403.511 303.969 377.242 328.536 356.141C360.43 328.758 396.987 309.769 438.204 299.174C448.813 296.454 463.646 293.733 482.703 291.013Z" fill="#172F60"/>
<path d="M659.591 316.563C680.876 327.719 700.043 341.684 717.091 358.458C734.87 375.97 758.616 411.918 735.403 435.172C726.565 444.052 711.595 450.327 699.271 450.655C699.076 450.657 698.884 450.609 698.712 450.517C698.541 450.424 698.397 450.29 698.294 450.127C698.19 449.964 698.132 449.777 698.123 449.586C698.115 449.395 698.157 449.205 698.245 449.035C698.409 448.707 698.758 448.392 699.291 448.091C709.339 442.35 719.121 436.136 726.421 427.011C737.495 413.19 739.771 391.801 726.134 378.472C720.577 373.038 717.398 364.569 709.38 366.989C704.609 368.424 701.273 370.987 699.373 374.679C695.272 372.956 690.118 374.207 683.911 378.431C682.845 379.169 681.738 378.964 680.569 378.657C679.981 378.493 679.502 378.664 679.133 379.17L677.083 381.999C679.441 369.142 673.884 351.342 657.704 354.459L659.591 316.563Z" fill="#172F60"/>
<path d="M374.634 338.054C372.952 347.815 375.68 353.509 382.816 355.136C399.406 358.93 408.757 336.475 392.515 328.478C390.834 325.908 392.03 325.6 396.104 327.555C398.1 328.512 399.966 330.433 401.702 333.317C407.383 342.771 400.123 357.679 388.886 358.274C376.992 358.909 368.995 349.702 371.968 337.808C372.105 337.261 372.453 337.029 373.014 337.111C373.889 337.234 374.429 337.549 374.634 338.054Z" fill="#172F60"/>
<path d="M392.516 328.478C408.757 336.475 399.406 358.93 382.816 355.136C375.68 353.509 372.953 347.815 374.634 338.054L376.234 334.63C377.683 332.333 379.522 330.576 381.75 329.36C385.236 328.416 388.825 328.123 392.516 328.478Z" fill="#FFFFFB"/>
<path d="M699.373 374.679L698.246 382.287C698.984 388.958 696.195 394.577 689.879 399.143C686.981 401.248 679.489 404.256 667.404 408.166C673.05 399.881 676.276 391.159 677.083 382L679.134 379.17C679.503 378.664 679.981 378.493 680.569 378.657C681.738 378.965 682.845 379.17 683.912 378.431C690.118 374.207 695.272 372.956 699.373 374.679Z" fill="#34507D"/>
<path d="M698.246 382.287C702.58 384.693 705.574 387.625 707.228 391.084C708.773 394.283 708.595 398.07 706.695 402.444C696.811 425.165 674.684 426.355 652.968 423.935C651.642 423.785 650.555 423.484 649.707 423.033C649.457 422.897 649.251 422.692 649.113 422.443C648.975 422.194 648.911 421.911 648.929 421.627C648.946 421.343 649.044 421.07 649.211 420.839C649.378 420.609 649.607 420.431 649.871 420.326C657.254 417.359 663.098 413.306 667.404 408.166C679.49 404.256 686.981 401.248 689.879 399.143C696.195 394.577 698.984 388.958 698.246 382.287Z" fill="#172F60"/>
<path d="M498.083 427.319L500.338 430.682C500.68 431.201 501.152 431.536 501.753 431.687C502.177 431.796 502.567 431.96 502.922 432.179C503.455 432.521 503.845 433.143 504.091 434.045C505.226 438.092 506.723 442.384 508.582 446.923C509.853 448.522 510.68 450.184 511.063 451.906C476.585 451.974 444.595 454.914 415.093 460.724C409.597 461.817 397.109 464.811 377.628 469.706L372.46 447.559C389.508 442.733 404.232 438.953 416.631 436.219C442.743 430.463 469.893 427.497 498.083 427.319Z" fill="#CDC6D4"/>
<path d="M558.392 430.415C564.599 435.979 568.57 444.387 570.306 455.638L539.054 453.218L541.618 452.87C542.165 452.802 542.315 452.514 542.069 452.009L540.387 448.461C540.237 448.147 540.005 448.064 539.69 448.215C533.723 450.799 526.279 449.322 520.537 449.425C515.944 449.493 511.959 448.659 508.582 446.923C506.723 442.384 505.226 438.092 504.091 434.045C503.845 433.143 503.455 432.521 502.922 432.179C502.567 431.96 502.177 431.796 501.753 431.687C501.152 431.536 500.68 431.201 500.338 430.682L498.083 427.319C518.179 427.387 538.282 428.419 558.392 430.415Z" fill="#34507D"/>
<path d="M570.306 455.638C568.57 444.387 564.598 435.979 558.392 430.415C577.367 431.564 593 433.676 605.29 436.752C621.175 440.73 636.931 445.166 652.557 450.06C656.193 451.195 659.604 452.043 662.79 452.603C663.115 452.663 663.422 452.798 663.686 452.998C663.951 453.197 664.165 453.455 664.312 453.752C664.459 454.048 664.535 454.375 664.535 454.706C664.534 455.037 664.456 455.363 664.307 455.659L657.191 469.787C656.63 470.9 655.702 471.785 654.567 472.293C653.431 472.802 652.156 472.901 650.958 472.576C624.135 465.358 601.394 458.324 570.306 455.638Z" fill="#172F60"/>
<path d="M508.582 446.923C511.959 448.659 515.944 449.493 520.537 449.425C526.279 449.322 533.723 450.799 539.69 448.215C540.005 448.064 540.237 448.146 540.387 448.461L542.069 452.008C542.315 452.514 542.165 452.801 541.618 452.87L539.055 453.218L511.063 451.906C510.68 450.183 509.853 448.522 508.582 446.923Z" fill="#5E8FAB"/>
<path d="M372.46 447.559L377.628 469.706L360.361 473.786C359.336 474.019 358.673 473.636 358.372 472.638L353.143 455.125C352.91 454.36 353.17 453.854 353.922 453.608L372.46 447.559Z" fill="#FFFFFB"/>
<path d="M547.503 481.948L519.615 481.907L514.488 481.332L512.355 480.82C524.236 480.191 535.952 480.567 547.503 481.948Z" fill="#A43523"/>
<path d="M512.355 480.82L514.487 481.332C513.585 485.577 512.396 492.652 516.087 496.015C521.514 500.991 526.278 505.769 530.38 510.349C529.723 512.755 530.892 515.462 533.886 518.469C543.893 528.497 558.125 538.791 571.454 541.006C576.348 541.826 585.768 542.161 599.712 542.011C601.188 541.984 603.533 541.731 606.746 541.252C611.995 540.459 614.271 541.608 613.574 544.697C588.761 547.281 565.589 546.83 545.411 532.434C537.967 527.144 532.84 523.924 528.186 518.285C527.814 517.836 527.288 517.541 526.709 517.458C526.129 517.375 525.538 517.509 525.048 517.834C517.816 522.646 511.883 528.23 507.248 534.587C501.397 528.244 497.918 523.692 496.811 520.93C495.348 517.28 493.468 513.801 491.171 510.492C498.909 501.47 505.97 491.579 512.355 480.82Z" fill="#E78D51"/>
<path d="M514.488 481.332L519.614 481.907C528.371 482.03 543.053 480.041 550.066 486.726C560.484 496.61 580.539 520.397 580.416 535.346C580.412 535.818 580.303 536.283 580.096 536.707C579.889 537.131 579.589 537.504 579.219 537.797C578.85 538.09 578.419 538.296 577.959 538.401C577.499 538.506 577.021 538.506 576.561 538.402C569.342 536.775 562.473 534.314 555.952 531.019C546.683 526.323 538.747 517.69 530.38 510.349C526.279 505.769 521.515 500.991 516.087 496.015C512.396 492.652 513.585 485.577 514.488 481.332Z" fill="#FFC47C"/>
<path d="M519.614 481.907L547.503 481.948C581.79 485.803 617.922 491.709 650.773 502.721C651.558 502.98 652.247 503.469 652.748 504.124C653.25 504.779 653.54 505.57 653.583 506.391L655.551 544.861C654.635 544.52 654.047 543.74 653.788 542.524C653.665 541.963 653.33 541.765 652.783 541.929C651.211 542.408 649.604 542.572 647.964 542.421C647.226 542.353 646.522 542.496 645.852 542.852C644.157 543.781 642.509 543.85 640.91 543.057C639.351 542.278 637.991 542.196 636.829 542.811C635.763 542.25 634.307 542.086 632.461 542.319C625.626 543.166 619.33 543.959 613.575 544.697C614.272 541.608 611.996 540.459 606.746 541.252C603.533 541.731 601.189 541.984 599.712 542.011C585.768 542.161 576.349 541.826 571.454 541.006C558.125 538.792 543.894 528.497 533.887 518.47C530.893 515.462 529.724 512.755 530.38 510.349C538.747 517.69 546.683 526.324 555.952 531.02C562.473 534.314 569.342 536.775 576.561 538.402C577.021 538.506 577.499 538.506 577.959 538.401C578.419 538.296 578.85 538.09 579.219 537.797C579.589 537.504 579.889 537.131 580.096 536.707C580.303 536.283 580.412 535.818 580.416 535.346C580.539 520.397 560.484 496.61 550.066 486.726C543.053 480.041 528.37 482.03 519.614 481.907Z" fill="#D76839"/>
<path d="M395.489 760.302C374.716 762.435 355.665 764.834 334.646 763.275C325.131 762.558 319.43 758.046 313.709 752.099C311.166 749.447 309.813 749.953 309.649 753.617L309.259 763.173C308.658 754.136 307.974 745.059 307.208 735.94C305.992 721.681 309.225 708.619 316.908 696.753C327.428 680.491 340.265 663.635 349.513 644.851C353.177 637.414 356.458 628.637 359.356 618.521C361.954 609.47 364.408 600.386 366.718 591.268C372.077 570.091 375.133 548.847 375.884 527.534C375.909 526.95 376.113 526.389 376.469 525.926C376.826 525.464 377.316 525.123 377.873 524.95C403.055 517.014 434.594 511.908 447.575 485.291L475.258 481.722C475.378 481.709 475.5 481.729 475.609 481.778C475.719 481.827 475.813 481.905 475.881 482.003C475.949 482.1 475.988 482.214 475.994 482.331C476 482.448 475.972 482.564 475.915 482.666C470.706 492.509 461.642 500.834 449.83 509.775C430.554 524.355 408.797 530.015 384.866 530.815C379.863 530.979 379.186 533.399 379.227 537.951C379.692 585.977 378.974 620.195 377.074 640.606C375.16 661.112 373.198 681.612 371.188 702.105C368.892 725.332 376.992 744.731 395.489 760.302Z" fill="#FFC47C"/>
<path d="M447.575 485.29C434.595 511.908 403.056 517.014 377.874 524.95C377.316 525.123 376.826 525.464 376.47 525.926C376.114 526.389 375.909 526.95 375.885 527.534C375.133 548.847 372.077 570.091 366.718 591.267C364.408 600.386 361.954 609.47 359.357 618.52C356.458 628.637 353.177 637.414 349.514 644.851C340.265 663.635 327.428 680.491 316.908 696.752C309.225 708.619 305.992 721.681 307.209 735.94C307.974 745.059 308.658 754.136 309.26 763.173C309.984 769.201 308.672 773.098 305.322 774.861C281.801 753.535 283.565 720.745 299.97 695.686C313.853 674.503 329.52 653.668 338.276 629.512C350.375 596.21 355.973 565.983 361.12 525.893C362.022 518.88 361.735 511.846 361.756 504.792C361.757 504.337 361.912 503.895 362.194 503.538C362.477 503.181 362.871 502.929 363.314 502.823C391.347 496.179 418.825 489.043 447.575 485.29Z" fill="#FFFFFB"/>
<path d="M491.172 510.493C493.468 513.801 495.348 517.28 496.811 520.93C497.918 523.692 501.398 528.244 507.249 534.588C529.621 564.671 569.137 577.446 605.618 575.149C606.356 575.095 606.725 575.443 606.725 576.195C606.821 594.186 607.99 612.034 610.232 629.737C611.237 637.714 605.126 646.676 600.778 652.93C578.693 684.613 545.534 716.438 509.156 728.496C507.495 729.05 505.772 728.496 504.255 727.902C488.451 721.763 474.035 713.253 461.007 702.371C438.921 683.915 418.107 661.174 405.763 635.479C405.467 634.849 405.347 634.155 405.414 633.47C407.642 608.753 408.654 583.974 408.449 559.134C408.442 558.669 408.595 558.215 408.882 557.849C409.17 557.484 409.574 557.228 410.028 557.124L431.436 552.141C435.278 551.881 439.092 550.61 442.879 548.327C456.796 541.751 469.346 532.954 480.529 521.935C483.646 518.88 487.132 514.04 491.172 510.493Z" fill="#FFFFFB"/>
<path d="M655.551 544.861C659.106 569.633 664.588 594.015 671.997 618.008C677.78 636.73 685.101 652.028 696.277 669.663C708.088 688.324 724.248 708.174 725.806 731.572C727.2 752.407 716.783 773.221 696.912 781.136C692.715 782.804 687.22 783.645 680.425 783.658C653.275 783.686 626.131 783.816 598.994 784.048C598.229 784.062 597.839 783.686 597.825 782.92L597.641 775.025C597.627 774.232 597.983 773.672 598.707 773.344C607.621 769.42 615.352 764.895 621.9 759.768C639.645 762.749 657.178 763.678 674.499 762.557C682.004 762.065 687.596 758.62 691.273 752.222C701.219 734.874 693.16 711.127 684.65 694.066C675.586 675.897 664.615 656.908 657.909 639.396C652.099 624.262 647.41 608.766 643.842 592.908C642.106 585.143 640.369 577.788 638.633 570.843C643.145 563.023 642.543 553.679 636.829 542.811C637.991 542.196 639.351 542.278 640.909 543.057C642.509 543.85 644.156 543.781 645.852 542.852C646.521 542.496 647.225 542.353 647.964 542.421C649.604 542.572 651.21 542.407 652.783 541.929C653.329 541.765 653.665 541.963 653.788 542.524C654.047 543.74 654.635 544.52 655.551 544.861Z" fill="#E78D51"/>
<path d="M442.879 548.327C439.092 550.61 435.278 551.881 431.437 552.141C435.1 549.94 438.915 548.669 442.879 548.327Z" fill="#5E8FAB"/>
<path d="M638.633 570.843C640.369 577.788 642.106 585.143 643.842 592.908C647.41 608.766 652.099 624.262 657.909 639.396C664.615 656.909 675.586 675.898 684.65 694.066C693.16 711.128 701.219 734.874 691.273 752.222C687.596 758.62 682.004 762.065 674.499 762.558C657.178 763.679 639.645 762.749 621.9 759.769C657.273 729.358 642.652 694.928 639.905 657.729C637.977 631.809 637.157 605.991 634.388 580.112C633.513 571.814 634.928 568.724 638.633 570.843Z" fill="#FFC47C"/>
<path d="M401.128 684.325C401.137 683.962 401.261 683.613 401.482 683.326C401.703 683.039 402.011 682.829 402.36 682.727C402.71 682.625 403.084 682.635 403.43 682.757C403.776 682.878 404.075 683.104 404.286 683.403L418.108 703.171C418.545 703.813 418.771 704.517 418.784 705.283L419.133 736.002C419.188 741.128 417.445 741.839 413.904 738.134L406.296 730.198C402.003 725.714 399.959 720.369 400.164 714.162L401.128 684.325Z" fill="#A43523"/>
<path d="M614.908 685.617C616.692 706.226 621.532 728.476 598.647 740.534C598.484 740.618 598.303 740.659 598.12 740.653C597.937 740.647 597.759 740.595 597.602 740.5C597.446 740.405 597.316 740.272 597.226 740.112C597.136 739.953 597.088 739.773 597.088 739.59L596.965 708.01C596.952 705.461 597.805 702.981 599.385 700.977L612.16 684.797C613.76 682.76 614.676 683.034 614.908 685.617Z" fill="#A43523"/>
<path d="M485.902 752.448C497.057 762.345 508.903 771.108 521.439 778.737C523.791 780.172 526.374 780.904 529.191 780.931C541.713 781.054 554.215 781.075 566.697 780.993C566.807 780.993 566.917 780.971 567.019 780.929C567.121 780.886 567.213 780.824 567.291 780.746C567.369 780.668 567.431 780.576 567.473 780.474C567.516 780.372 567.538 780.262 567.538 780.152L567.825 737.375C567.832 736.918 567.706 736.469 567.461 736.083C567.216 735.697 566.864 735.391 566.447 735.204C566.03 735.016 565.568 734.955 565.116 735.027C564.665 735.1 564.245 735.303 563.908 735.612C551.713 746.603 537.126 753.951 520.147 757.656C518.862 757.943 517.03 757.95 514.651 757.677C514.064 757.622 514.036 757.472 514.57 757.226C515.513 756.788 516.231 756.221 516.723 755.524C537.66 752.058 554.024 741.928 569.035 728.558C569.17 728.434 569.338 728.353 569.518 728.324C569.699 728.294 569.884 728.318 570.051 728.392C570.219 728.466 570.361 728.587 570.461 728.74C570.56 728.893 570.614 729.072 570.614 729.255L570.572 783.105C570.572 783.317 570.488 783.52 570.338 783.67C570.188 783.82 569.985 783.904 569.773 783.904L447.432 783.658C446.762 783.658 446.427 783.323 446.427 782.654L446.406 727.717C446.407 727.534 446.459 727.356 446.558 727.202C446.656 727.048 446.796 726.925 446.962 726.848C447.127 726.77 447.311 726.741 447.493 726.765C447.674 726.788 447.845 726.862 447.985 726.979C459.797 736.617 471.568 745.947 485.902 752.448Z" fill="#FFFFFB"/>
<path d="M485.901 752.448C496.223 755.797 506.497 756.822 516.722 755.524C516.23 756.221 515.513 756.788 514.569 757.226C514.036 757.472 514.063 757.622 514.651 757.677C517.03 757.95 518.862 757.943 520.147 757.656C537.126 753.951 551.713 746.603 563.908 735.612C564.245 735.303 564.665 735.1 565.116 735.027C565.567 734.955 566.03 735.016 566.447 735.204C566.864 735.392 567.216 735.697 567.461 736.083C567.706 736.469 567.832 736.918 567.824 737.376L567.537 780.152C567.537 780.262 567.516 780.372 567.473 780.474C567.431 780.576 567.369 780.668 567.291 780.746C567.213 780.824 567.12 780.886 567.018 780.929C566.916 780.971 566.807 780.993 566.697 780.993C554.215 781.075 541.713 781.054 529.19 780.931C526.374 780.904 523.79 780.172 521.439 778.737C508.903 771.108 497.057 762.345 485.901 752.448Z" fill="#CDC6D4"/>
<path d="M395.489 760.302L418.354 772.421C418.633 772.57 418.866 772.789 419.029 773.057C419.191 773.324 419.277 773.629 419.276 773.938L419.297 782.633C419.311 783.399 418.928 783.782 418.149 783.782C388.988 783.987 359.835 783.966 330.689 783.72C320.354 783.638 313.053 780.726 305.322 774.861C308.672 773.098 309.984 769.201 309.26 763.173L309.649 753.617C309.813 749.953 311.167 749.447 313.709 752.099C319.431 758.046 325.132 762.557 334.647 763.275C355.666 764.834 374.716 762.434 395.489 760.302Z" fill="#E78D51"/>
<path d="M321.722 411.721C322.134 413.946 321.646 416.243 320.364 418.108C319.083 419.972 317.113 421.251 314.889 421.664L313.195 421.978C312.094 422.182 310.963 422.167 309.867 421.934C308.771 421.701 307.732 421.255 306.809 420.62C305.885 419.986 305.096 419.176 304.486 418.236C303.876 417.297 303.457 416.246 303.252 415.145L302.744 412.402C302.332 410.178 302.82 407.88 304.102 406.016C305.383 404.151 307.353 402.872 309.577 402.46L311.271 402.146C312.373 401.942 313.504 401.957 314.599 402.189C315.695 402.422 316.734 402.869 317.658 403.503C318.581 404.138 319.37 404.948 319.98 405.888C320.59 406.827 321.01 407.878 321.214 408.979L321.722 411.721Z" fill="#172F60"/>
</svg>
