<svg width="1024" height="1024" viewBox="0 0 1024 1024" fill="none" xmlns="http://www.w3.org/2000/svg">
<rect width="1024" height="1024" fill="white"/>
<path d="M414.207 231.649L414.239 238.69" stroke="#2C3044" stroke-width="2"/>
<path d="M414.207 231.649L414.239 238.69C413.698 240.042 413.59 241.296 413.915 242.454C414.055 242.973 414.39 243.249 414.92 243.281C456.127 246.347 496.36 264.744 524.621 294.984C529.26 299.948 536.106 307.605 537.859 314.257C537.954 314.626 538.134 314.968 538.385 315.255C538.635 315.543 538.948 315.768 539.299 315.913C539.65 316.058 540.03 316.118 540.408 316.09C540.786 316.061 541.152 315.945 541.476 315.749C566.86 300.608 594.417 293.086 624.149 293.183C624.69 293.183 624.955 292.913 624.944 292.372C624.733 276.782 635.002 265.977 650.057 264.274C673.921 261.581 687.873 292.096 670.206 309.52C669.827 309.898 669.827 310.277 670.206 310.655C673.97 314.43 677.723 318.156 681.465 321.833C706.091 346.038 721.06 375.282 726.37 409.567C729.144 427.461 726.597 439.596 724.975 455.494C724.391 461.108 716.393 464.222 711.558 463.119C705.361 461.708 703.398 452.899 698.174 449.2C693.697 446.02 688.652 444.43 683.184 446.15C680.719 446.912 678.496 448.08 675.917 447.221C672.364 446.036 670.238 444.593 668.227 441.088C663.409 432.734 652.036 421.313 641.929 429.035C641.529 429.338 641.08 429.494 640.583 429.505C639.036 429.548 637.814 430.273 636.916 431.679C636.635 432.122 636.494 432.604 636.494 433.123C636.311 536.701 636.289 640.275 636.43 743.843C636.451 757.556 636.192 765.841 635.651 768.696C634.148 776.635 630.795 784.46 625.593 792.171C625.171 792.82 625.344 793.144 626.112 793.144C635.727 793.134 645.558 793.144 655.605 793.177C658.817 793.177 661.262 793.691 662.938 794.718C668.6 798.157 668.162 807.307 662.841 810.389C661.045 811.439 658.174 811.952 654.226 811.931C560.663 811.563 467.104 811.585 373.552 811.996C369.885 812.012 365.57 812.077 362.504 810.162C354.83 805.344 358.805 793.534 368.279 793.355C379.538 793.15 391.029 793.036 402.753 793.015C402.904 793.015 403.051 792.972 403.178 792.892C403.306 792.811 403.407 792.697 403.472 792.561C403.537 792.425 403.561 792.273 403.543 792.124C403.525 791.975 403.465 791.833 403.37 791.717C393.798 780.182 392.192 769.621 392.176 753.512C392.1 640.794 392.073 528.076 392.095 415.359C392.095 410.978 392.425 407.945 393.084 406.257C395.631 399.866 402.932 396.767 409.502 397.221C409.672 397.231 409.842 397.201 409.999 397.134C410.155 397.066 410.293 396.962 410.402 396.831C410.511 396.7 410.588 396.545 410.626 396.379C410.664 396.213 410.662 396.04 410.621 395.875L404.732 372.887C404.429 371.729 403.856 371.578 403.013 372.433L395.42 380.138C395.141 380.417 394.783 380.601 394.396 380.665C394.009 380.729 393.612 380.67 393.263 380.495C389.353 378.549 384.616 374.898 380.414 375.223C369.253 376.131 361.206 386.401 354.555 394.155C352.413 396.621 348.325 395.485 345.307 393.977C333.108 387.861 323.844 397.789 316.82 406.744C313.38 411.108 304.928 411.936 300.937 408.042C299.585 406.723 298.709 404.522 298.309 401.439C290.766 342.323 316.171 290.295 365.505 258.596C366.716 257.817 366.96 256.8 366.235 255.546C359.724 244.352 359.584 233.985 365.813 224.446C370.826 216.756 380.382 211.646 389.402 212.019C401.677 212.517 409.945 219.06 414.207 231.649Z" fill="#01010A"/>
<path d="M414.207 231.649C415.429 233.714 415.439 236.061 414.239 238.69L414.207 231.649Z" fill="#575F7E"/>
<path d="M390.116 231.697C384.632 236.418 384.373 241.026 383.821 247.531" stroke="#FED498" stroke-width="2"/>
<path d="M420.599 269.173L420.745 271.606C420.777 272.147 420.993 272.596 421.394 272.953C425.644 276.781 429.803 280.707 433.869 284.731C439.061 289.873 443.781 297.06 447.123 302.284C452.661 310.904 456.662 320.464 459.128 330.966" stroke="#FB9533" stroke-width="2"/>
<path d="M393.879 319.772C395.728 323.136 396.853 326.667 397.253 330.366C397.399 331.696 397.967 332.459 398.47 333.675C399.378 335.833 398.519 338.364 399.021 340.23C399.508 342.122 400.676 342.75 402.526 342.111L415.553 337.618C415.936 337.488 416.26 337.225 416.465 336.877C416.671 336.528 416.744 336.118 416.672 335.72C414.79 324.883 412.854 314.202 410.864 303.679C409.323 295.519 405.284 286.353 403.256 280.448C401.385 274.997 399.195 269.578 396.685 264.192" stroke="#FEBD42" stroke-width="2"/>
<path d="M354.084 363.704C354.485 345.999 356.734 328.63 360.833 311.596" stroke="#FB9E39" stroke-width="2"/>
<path d="M362.066 307.832C362.456 310.384 362.001 313.591 360.703 317.452C360 319.583 359.373 323.714 358.822 329.847C358.724 330.934 358.108 331.761 357.897 332.897C356.394 340.705 355.901 348.584 356.421 356.534C356.453 357.118 356.767 357.415 357.362 357.426H358.092C358.535 357.437 358.843 357.231 359.016 356.809C360.877 352.159 362.104 347.362 362.699 342.42C363.045 339.532 363.472 337.001 363.981 334.827C365.392 328.744 365.976 322.692 367.923 316.706C370.811 307.865 374.363 298.958 376.553 290.311C377.365 287.088 378.333 284.374 379.457 282.167C381.296 278.544 382.913 274.813 384.308 270.973C384.492 270.487 384.762 270.065 385.119 269.708C385.606 269.243 385.871 268.67 385.914 267.988C385.936 267.631 385.59 267.415 384.876 267.339" stroke="#FFE3A4" stroke-width="2"/>
<path d="M363.38 303.841C364.505 302.338 365.219 300.527 365.521 298.407" stroke="#C3A5A5" stroke-width="2"/>
<path d="M447.221 270.941C447.588 271.504 448.28 271.942 449.297 272.255" stroke="#DE7727" stroke-width="2"/>
<path d="M449.297 272.255C457.084 276.516 463.665 281.253 469.04 286.466C478.471 295.616 487.356 306.437 495.695 318.929" stroke="#FB8F2D" stroke-width="2"/>
<path d="M452.817 272.401C451.887 272.758 450.714 272.709 449.297 272.255" stroke="#DB5D23" stroke-width="2"/>
<path d="M645.174 297.45C645.921 292.291 647.321 288.251 649.376 285.331C649.722 284.844 649.619 284.493 649.068 284.277L648.143 283.887" stroke="#FDC671" stroke-width="2"/>
<path d="M356.161 296.736C354.036 299.64 351.31 301.797 349.72 304.864C347.936 308.281 346.665 310.428 345.908 311.304C338.786 319.399 338.462 326.619 334.633 335.217C332.086 340.96 330.528 345.389 328.647 350.645C327.154 354.863 326.83 359.73 325.305 364.289C325.175 364.667 324.591 367.036 323.553 371.394C322.86 374.314 321.352 376.867 319.026 379.052" stroke="#FFE3A4" stroke-width="2"/>
<path d="M645.028 316.447C644.195 317.831 642.697 318.301 640.534 317.858C639.929 317.739 639.62 317.988 639.61 318.604L639.285 340.96" stroke="#FEB83C" stroke-width="2"/>
<path d="M639.285 340.96C637.036 356.09 634.342 368.55 631.206 378.338C630.471 380.62 628.524 385.854 625.366 394.042" stroke="#FDAD37" stroke-width="2"/>
<path d="M604.243 379.1C604.73 380.635 605.46 381.003 606.433 380.203C606.823 379.889 607.19 379.37 607.536 378.645C614.296 364.423 620.737 350.033 626.858 335.476C627.066 334.978 627.114 334.428 626.995 333.901C626.876 333.375 626.595 332.899 626.193 332.539C625.955 332.323 625.458 332.61 624.701 333.399" stroke="#FED246" stroke-width="2"/>
<path d="M563.053 368.815C567.222 363.721 571.472 358.546 576.485 356.534C576.966 356.345 577.364 355.988 577.605 355.528C578.329 354.155 579.259 352.965 580.395 351.959C584.894 347.99 589.237 343.864 593.422 339.581C595.477 337.461 598.273 335.049 601.809 332.345C604.751 330.096 607.515 327.608 610.1 324.883C610.381 324.58 610.316 324.407 609.905 324.364C605.351 323.909 602.242 324.396 600.576 325.824C598.435 327.641 595.991 329.025 593.244 329.977" stroke="#FFE3A4" stroke-width="2"/>
<path d="M529.277 354.165C538.264 353.337 541.704 347.416 548.615 343.409C555.526 339.402 562.323 334.648 569.088 331.42C579.547 326.445 590.351 322.373 601.502 319.204C605.255 318.144 608.18 316.408 610.279 313.997" stroke="#FFE3A4" stroke-width="2"/>
<path d="M659.678 330.983C659.504 331.956 659.65 332.832 660.116 333.611C660.386 334.054 660.499 334.536 660.456 335.055C660.37 336.331 660.067 337.548 659.548 338.705C659.331 339.213 659.294 339.738 659.434 340.278C660.126 342.95 660.462 344.675 660.44 345.454C660.397 347.141 660.954 350.996 662.111 357.021C663.917 366.473 664.323 377.829 663.328 391.089C662.982 395.75 662.078 401.618 660.618 408.691" stroke="#FB8F2D" stroke-width="2"/>
<path d="M645.547 337.52C644.109 337.715 642.611 337.531 641.053 336.969C640.459 336.763 640.096 336.969 639.966 337.585L639.285 340.959" stroke="#FC9F2B" stroke-width="2"/>
<path d="M565.227 792.739L565.389 785.909" stroke="#67CDCF" stroke-width="2"/>
<path d="M565.389 785.909C569.25 783.8 573.868 782.826 579.243 782.989C583.115 783.107 585.997 782.853 587.89 782.226C592.162 780.788 595.883 778.581 599.051 775.607" stroke="#81ACC5" stroke-width="2"/>
<path d="M599.052 775.607C603.172 771.389 604.286 767.241 602.394 763.164C601.518 761.282 599.711 760.747 596.975 761.558" stroke="#76889F" stroke-width="2"/>
<path d="M596.975 761.558C595.114 762.553 593.649 764.099 592.578 766.198C590.242 770.821 586.641 770.253 582.39 771.016C579.373 771.551 576.68 773.628 573.24 774.179C570.482 774.617 569.039 775.607 566.767 776.824C564.886 777.813 564.837 778.9 565.453 780.766" stroke="#81ACC5" stroke-width="2"/>
<path d="M565.454 780.766C561.155 772.8 556.093 773.417 548.225 773.336" stroke="#67CDCF" stroke-width="2"/>
<path d="M548.225 773.336C547.598 773.119 547.766 772.595 548.728 771.762" stroke="#6DE1E3" stroke-width="2"/>
<path d="M548.728 771.762C552.816 769.589 562.696 770.708 567.417 771.097C569.331 771.249 573.014 770.908 578.464 770.075C578.984 769.999 579.373 769.74 579.632 769.296C581.979 765.446 582.266 762.629 580.492 760.844" stroke="#D2E4EB" stroke-width="2"/>
<path d="M580.493 760.844C581.336 760.184 582.553 759.536 584.143 758.897C586.349 758.021 587.679 756.61 589.367 755.118" stroke="#536571" stroke-width="2"/>
<path d="M589.367 755.117C592.698 752.533 595.51 749.434 597.803 745.822C600.593 741.425 603.708 739.495 603.546 733.541" stroke="#76889F" stroke-width="2"/>
<path d="M603.546 733.541C605.947 728.436 607.147 723.18 607.147 717.772C607.104 652.361 607.115 586.874 607.18 521.311" stroke="#536571" stroke-width="2"/>
<path d="M607.179 521.311L607.033 512.583" stroke="#C09288" stroke-width="2"/>
<path d="M606.579 493.034L606.92 453.125" stroke="#81ACC5" stroke-width="2"/>
<path d="M548.225 773.336C544.965 775.834 543.018 777.619 540.406 781.253C537.502 785.244 534.549 787.125 532.959 792.511" stroke="#30E5DB" stroke-width="2"/>
<path d="M565.389 785.909C566.059 784.038 566.081 782.324 565.454 780.766" stroke="#44B0BD" stroke-width="2"/>
<path d="M603.545 733.541C600.009 741.923 595.158 748.812 588.993 754.209C588.755 754.414 588.761 754.62 589.01 754.825L589.366 755.117" stroke="#242438" stroke-width="2"/>
<path d="M607.18 521.311C599.344 522.09 594.85 522.966 588.556 521.571" stroke="#6F2E22" stroke-width="2"/>
<path d="M587.354 492.45L592.432 492.418C592.646 492.418 592.856 492.372 593.05 492.282C593.244 492.193 593.416 492.062 593.555 491.898C593.693 491.735 593.795 491.543 593.854 491.336C593.912 491.129 593.925 490.911 593.892 490.698C592.594 482.435 593.319 474.248 596.066 466.136C596.52 464.817 596.099 463.73 594.801 462.875" stroke="#AFC7D9" stroke-width="2"/>
<path d="M423.162 511.545L424.395 518.001C424.503 518.542 424.454 519.067 424.249 519.575L422.562 523.874" stroke="#FFE3A4" stroke-width="2"/>
<path d="M422.561 523.874C422.334 537.037 422.28 549.885 422.399 562.42C422.902 612.063 422.48 661.705 422.545 711.332C422.561 724.862 423.519 735.812 431.046 745.416C440.472 757.421 451.893 764.657 466.429 764.511C501.276 764.197 536.123 763.986 570.97 763.878C574.717 763.862 577.281 762.548 580.493 760.844" stroke="#808085" stroke-width="2"/>
<path d="M548.728 771.762C545.981 771.362 543.288 771.4 540.649 771.876C540.13 771.973 539.638 771.935 539.173 771.762C538.686 771.568 538.178 771.476 537.648 771.486C518.91 771.632 501.811 772.022 481.435 771.778C473.594 771.681 465.747 771.795 457.895 772.119C449.427 772.476 438.038 774.098 436.432 764.332C436.346 763.835 436.092 763.434 435.67 763.132L432.02 760.568C431.598 760.265 431.133 760.119 430.624 760.13L426.65 760.146C426.425 760.152 426.204 760.205 426 760.303C425.795 760.4 425.613 760.541 425.465 760.714C419.593 767.577 429.829 777.229 435.572 780.036C438.233 781.345 441.878 781.999 446.507 781.999C454.434 781.999 465.542 782.102 479.829 782.307C486.945 782.415 491.077 785.736 492.223 792.268" stroke="#9BFCF7" stroke-width="2"/>
<path d="M599.052 775.607C598.727 775.164 598.381 774.969 598.014 775.023C596.846 775.185 596.7 774.823 597.576 773.936C600.128 771.33 600.82 768.328 599.652 764.932C599.587 764.745 599.485 764.573 599.352 764.427C599.219 764.281 599.058 764.163 598.878 764.081C598.699 763.999 598.506 763.955 598.31 763.951C598.114 763.946 597.919 763.982 597.738 764.056C597.11 764.305 596.673 764.218 596.424 763.797C596.164 763.375 596.186 762.964 596.489 762.564C596.748 762.218 596.91 761.882 596.975 761.558" stroke="#536B8D" stroke-width="2"/>
<path d="M554.017 509.906C557.878 509.322 561.712 509.176 565.519 509.468C569.591 509.793 572.073 512.551 575.528 513.54C580.633 515.022 585.684 516.693 590.681 518.553C591.2 518.748 591.492 519.121 591.557 519.673C591.632 520.441 591.275 520.992 590.486 521.327C589.956 521.554 589.313 521.636 588.556 521.571" stroke="#ED9041" stroke-width="2"/>
<path d="M588.556 521.571C579.292 520.484 570.532 518.164 561.09 518.699C550.788 519.3 538.751 525.302 529.293 527.557C510.88 531.954 495.062 523.939 478.482 516.736C468.862 512.551 454.634 511.01 444.09 515.341C436.854 518.315 429.678 521.16 422.562 523.875" stroke="#806429" stroke-width="2"/>
<path d="M532.116 417.192L545.435 417.613C547.079 417.657 548.058 418.49 548.371 420.112C549.182 424.168 549.096 428.775 548.112 433.934" stroke="#D2E4EB" stroke-width="2"/>
<path d="M547.187 453.158C549.317 453.028 550.983 453.374 552.183 454.196C552.821 454.629 552.794 455.024 552.102 455.38C550.642 456.138 549.788 457.073 549.539 458.187C549.236 459.561 548.852 462.443 548.387 466.834C548.138 469.181 548.155 472.074 548.436 475.513C548.89 481.245 548.625 486.745 547.641 492.012" stroke="#D2E4EB" stroke-width="2"/>
<path d="M390.115 231.698C384.632 236.418 384.372 241.026 383.821 247.531C373.487 242.389 378.905 229.28 390.115 231.698Z" fill="white"/>
<path d="M390.116 231.697C396.41 233.417 398.292 237.402 395.761 243.654C393.512 249.245 389.532 250.538 383.821 247.531C384.373 241.026 384.632 236.418 390.116 231.697Z" fill="#FDA930"/>
<path d="M420.598 269.173L420.744 271.606C420.777 272.147 420.993 272.596 421.393 272.953C425.644 276.782 429.802 280.708 433.869 284.731C439.06 289.874 443.781 297.06 447.123 302.284C452.66 310.904 456.662 320.465 459.128 330.966L446.766 337.164C446.624 337.234 446.468 337.272 446.31 337.275C446.152 337.277 445.995 337.245 445.85 337.18C445.706 337.115 445.578 337.018 445.476 336.898C445.373 336.777 445.298 336.635 445.257 336.482C440.801 319.827 433.733 304.198 424.054 289.598C420.906 284.85 417.332 281.194 413.33 278.631C411.589 277.506 411.135 277.896 411.968 279.799C420.712 299.689 428.823 319.367 432.944 340.846C432.958 340.926 432.955 341.008 432.936 341.087C432.917 341.165 432.881 341.238 432.832 341.301C432.783 341.364 432.721 341.416 432.651 341.452C432.581 341.488 432.504 341.508 432.425 341.511C421.669 342.209 411.027 343.783 402.347 350.661C402.083 350.872 401.769 351.01 401.436 351.062C401.102 351.115 400.761 351.08 400.445 350.96C400.129 350.841 399.85 350.641 399.634 350.381C399.419 350.121 399.275 349.809 399.216 349.477L393.879 319.773C395.728 323.136 396.853 326.667 397.253 330.366C397.399 331.697 397.967 332.459 398.47 333.676C399.378 335.833 398.519 338.364 399.021 340.23C399.508 342.123 400.676 342.75 402.526 342.112L415.553 337.618C415.936 337.488 416.26 337.225 416.465 336.877C416.671 336.528 416.744 336.118 416.672 335.72C414.79 324.883 412.854 314.203 410.864 303.679C409.323 295.519 405.284 286.353 403.256 280.448C401.385 274.997 399.195 269.578 396.685 264.192C404.521 258.547 414.028 265.653 420.598 269.173Z" fill="#FEB43C"/>
<path d="M396.686 264.192C399.195 269.578 401.385 274.997 403.256 280.448C405.284 286.353 409.323 295.519 410.865 303.679C412.855 314.202 414.791 324.883 416.672 335.72C416.744 336.118 416.671 336.528 416.465 336.877C416.26 337.225 415.936 337.488 415.553 337.618L402.526 342.111C400.677 342.75 399.508 342.122 399.022 340.23C398.519 338.364 399.379 335.833 398.47 333.675C397.967 332.459 397.399 331.696 397.253 330.366C396.853 326.667 395.729 323.136 393.879 319.772C391.624 307.702 391.478 297.563 389.564 287.602C388.774 283.525 387.752 283.465 386.498 287.424C385.481 290.657 384.773 294.659 384.372 299.429C382.815 317.674 384.102 335.871 388.234 354.019C388.287 354.258 388.286 354.506 388.231 354.744C388.176 354.983 388.068 355.206 387.916 355.397C387.763 355.588 387.57 355.743 387.35 355.85C387.13 355.957 386.888 356.013 386.644 356.015C379.949 356.058 373.465 357.312 367.192 359.778C363.347 361.287 359.6 364.305 355.56 366.365C355.03 366.635 354.63 366.5 354.36 365.959C354.057 365.354 353.965 364.602 354.084 363.704C354.484 346 356.734 328.63 360.833 311.596L362.066 307.832C362.455 310.385 362.001 313.591 360.703 317.452C360 319.583 359.373 323.714 358.821 329.847C358.724 330.934 358.107 331.761 357.896 332.897C356.393 340.705 355.901 348.584 356.42 356.534C356.452 357.118 356.766 357.415 357.361 357.426H358.091C358.534 357.437 358.843 357.231 359.016 356.809C360.876 352.159 362.104 347.362 362.699 342.42C363.045 339.532 363.472 337.001 363.98 334.827C365.391 328.744 365.976 322.692 367.922 316.706C370.81 307.865 374.363 298.958 376.553 290.311C377.364 287.088 378.332 284.374 379.457 282.167C381.295 278.544 382.912 274.813 384.308 270.973C384.491 270.487 384.762 270.065 385.119 269.708C385.605 269.243 385.87 268.67 385.914 267.988C385.935 267.631 385.589 267.415 384.875 267.339C388.817 266.398 392.451 267.923 396.686 264.192Z" fill="#FEC648"/>
<path d="M447.221 270.941C447.588 271.503 448.28 271.941 449.297 272.255C457.084 276.516 463.665 281.253 469.041 286.466C478.472 295.616 487.356 306.437 495.695 318.929L490.65 321.914C490.141 322.216 489.666 322.173 489.222 321.784C486.983 319.756 485.864 316.576 484.517 314.711C472.956 298.552 458.923 284.92 442.418 273.812C439.141 271.606 435.864 269.459 432.587 267.372C432.546 267.343 432.512 267.305 432.488 267.26C432.464 267.216 432.451 267.167 432.449 267.116C432.448 267.066 432.458 267.016 432.479 266.97C432.5 266.924 432.532 266.884 432.571 266.853L433.236 266.35C433.356 266.26 433.496 266.201 433.646 266.178C433.796 266.156 433.951 266.17 434.096 266.22L447.221 270.941Z" fill="#FDA930"/>
<path d="M384.876 267.339C385.59 267.415 385.936 267.631 385.914 267.988C385.871 268.67 385.606 269.243 385.119 269.708C384.762 270.065 384.492 270.487 384.308 270.973C382.913 274.813 381.296 278.544 379.457 282.167C378.333 284.374 377.365 287.088 376.553 290.311C374.363 298.958 370.811 307.865 367.923 316.706C365.976 322.692 365.392 328.744 363.981 334.827C363.472 337.001 363.045 339.532 362.699 342.42C362.104 347.362 360.877 352.159 359.016 356.809C358.843 357.231 358.535 357.437 358.092 357.426H357.362C356.767 357.415 356.453 357.118 356.421 356.534C355.901 348.584 356.394 340.705 357.897 332.897C358.108 331.761 358.724 330.934 358.822 329.847C359.373 323.714 360 319.583 360.703 317.452C362.001 313.591 362.456 310.384 362.066 307.832L363.38 303.841C364.505 302.338 365.219 300.526 365.522 298.406C368.766 288.916 375.093 270.908 384.876 267.339Z" fill="white"/>
<path d="M420.599 269.173C443.457 282.346 462.113 304.49 475.4 327.04C475.472 327.157 475.509 327.292 475.508 327.429C475.507 327.566 475.468 327.701 475.394 327.818C475.32 327.936 475.215 328.031 475.09 328.094C474.965 328.157 474.826 328.185 474.686 328.176C469.138 327.808 463.952 328.738 459.128 330.966C456.662 320.464 452.661 310.904 447.123 302.284C443.781 297.06 439.061 289.873 433.869 284.731C429.803 280.707 425.644 276.781 421.394 272.953C420.993 272.596 420.777 272.147 420.745 271.606L420.599 269.173Z" fill="#F87529"/>
<path d="M447.221 270.941C449.276 271.006 451.141 271.493 452.818 272.401C451.887 272.758 450.714 272.709 449.297 272.255C448.28 271.942 447.588 271.504 447.221 270.941Z" fill="#BE441D"/>
<path d="M449.297 272.255C450.714 272.709 451.887 272.758 452.817 272.401C460.069 274.883 467.077 278.582 473.891 282.054C489.087 289.841 502.206 300.24 513.248 313.251C513.312 313.329 513.353 313.424 513.368 313.524C513.382 313.625 513.369 313.727 513.331 313.819C513.292 313.911 513.229 313.99 513.149 314.047C513.068 314.104 512.974 314.137 512.875 314.143C507.035 314.5 501.308 316.095 495.695 318.929C487.356 306.437 478.471 295.616 469.04 286.466C463.665 281.253 457.084 276.516 449.297 272.255Z" fill="#F87529"/>
<path d="M645.174 297.449C645.921 292.29 647.321 288.251 649.376 285.331C649.722 284.844 649.619 284.492 649.068 284.276L648.143 283.887C654.356 282.589 660.229 285.736 660.57 292.453C660.765 296.162 659.077 298.796 655.508 300.353C650.988 302.322 647.543 301.354 645.174 297.449Z" fill="#FB9426"/>
<path d="M648.143 283.887L649.068 284.277C649.619 284.493 649.722 284.844 649.376 285.331C647.321 288.251 645.92 292.291 645.174 297.45C641.313 291.285 642.303 286.764 648.143 283.887Z" fill="#FEF8BB"/>
<path d="M356.161 296.736C354.035 299.64 351.31 301.797 349.72 304.863C347.936 308.281 346.665 310.428 345.908 311.304C338.786 319.399 338.461 326.618 334.633 335.217C332.086 340.96 330.528 345.389 328.646 350.645C327.154 354.863 326.829 359.73 325.304 364.288C325.175 364.667 324.591 367.035 323.552 371.394C322.86 374.314 321.351 376.867 319.026 379.051C318.648 379.722 318.074 380.111 317.306 380.219C316.744 380.295 316.463 380.057 316.463 379.506C316.447 351.505 326.975 324.98 344.691 303.355C348.26 299.007 352.981 294.984 356.858 290.62C358.545 288.727 359.081 289.013 358.464 291.479C358.118 292.853 357.35 294.605 356.161 296.736Z" fill="white"/>
<path d="M356.161 296.736C354.56 301.657 352.949 306.502 351.326 311.272C344.816 330.361 341.782 349.78 342.225 369.529C342.238 370.072 342.06 370.603 341.723 371.032C341.386 371.461 340.91 371.761 340.376 371.881C334.747 373.114 329.798 373.844 324.704 376.667C322.942 377.64 321.049 378.435 319.026 379.052C321.352 376.867 322.86 374.314 323.553 371.394C324.591 367.036 325.175 364.667 325.305 364.289C326.83 359.73 327.154 354.863 328.647 350.645C330.528 345.389 332.086 340.96 334.633 335.217C338.462 326.619 338.786 319.399 345.908 311.304C346.665 310.428 347.936 308.281 349.72 304.864C351.31 301.797 354.036 299.64 356.161 296.736Z" fill="#FEC648"/>
<path d="M365.521 298.407C365.219 300.527 364.505 302.338 363.38 303.841C363.283 301.905 363.996 300.094 365.521 298.407Z" fill="#874A4A"/>
<path d="M360.833 311.596C356.734 328.63 354.484 345.999 354.084 363.704C353.478 353.224 353.413 346.464 353.889 343.425C354.928 336.676 355.928 329.911 356.89 323.13C357.334 319.972 358.648 316.127 360.833 311.596Z" fill="#F87529"/>
<path d="M645.028 316.447C644.195 317.831 642.697 318.301 640.534 317.858C639.929 317.739 639.621 317.988 639.61 318.604L639.285 340.96C637.036 356.09 634.343 368.55 631.206 378.338C630.471 380.62 628.524 385.854 625.366 394.041C618.487 388.98 610.906 386.541 602.621 386.725C602.457 386.73 602.294 386.693 602.148 386.618C602.001 386.543 601.875 386.433 601.782 386.296C601.689 386.159 601.631 386 601.613 385.835C601.595 385.669 601.618 385.501 601.68 385.346L604.243 379.1C604.73 380.636 605.46 381.003 606.434 380.203C606.823 379.889 607.191 379.37 607.537 378.646C614.296 364.424 620.737 350.034 626.858 335.476C627.067 334.978 627.114 334.428 626.995 333.902C626.876 333.375 626.596 332.899 626.193 332.54C625.955 332.324 625.458 332.61 624.701 333.4C624.463 332.145 623.619 331.988 622.17 332.929C619.672 334.535 616.46 337.407 614.351 340.181C608.316 348.13 603.157 355.171 598.209 364.613C595.342 370.085 592.222 375.493 588.848 380.836C588.775 380.957 588.673 381.058 588.55 381.13C588.428 381.202 588.289 381.242 588.146 381.247C588.003 381.251 587.861 381.221 587.731 381.158C587.602 381.095 587.489 381.001 587.404 380.885C581.52 372.697 573.404 368.674 563.053 368.815C567.223 363.721 571.473 358.545 576.486 356.534C576.967 356.345 577.365 355.988 577.605 355.528C578.33 354.154 579.26 352.965 580.396 351.959C584.895 347.99 589.237 343.864 593.423 339.581C595.478 337.461 598.273 335.049 601.81 332.345C604.752 330.096 607.515 327.608 610.1 324.883C610.381 324.58 610.316 324.407 609.905 324.363C605.352 323.909 602.243 324.396 600.577 325.824C598.436 327.641 595.991 329.025 593.244 329.977L596.57 327.203C597.846 326.132 597.679 325.38 596.067 324.947C594.704 324.591 592.725 325.104 590.129 326.489C574.069 335.054 558.559 347.27 548.177 362.423C548.083 362.559 547.962 362.676 547.823 362.765C547.683 362.854 547.526 362.914 547.363 362.941C547.199 362.969 547.032 362.963 546.871 362.924C546.709 362.885 546.558 362.814 546.425 362.715C541.017 358.702 535.301 355.852 529.277 354.165C538.264 353.338 541.704 347.416 548.615 343.409C555.526 339.402 562.323 334.649 569.088 331.42C579.547 326.445 590.351 322.373 601.502 319.205C605.255 318.145 608.18 316.409 610.279 313.997L632.488 313.835C633.061 313.824 633.58 313.981 634.045 314.305C637.474 316.609 641.135 317.323 645.028 316.447Z" fill="#FEC648"/>
<path d="M610.279 313.997C608.18 316.408 605.255 318.144 601.502 319.204C590.351 322.373 579.547 326.445 569.088 331.42C562.323 334.648 555.526 339.402 548.615 343.409C541.704 347.416 538.264 353.337 529.277 354.165L524.345 354.019C521.836 353.932 521.544 353.089 523.469 351.488C546.003 332.734 575.659 316.17 610.279 313.997Z" fill="white"/>
<path d="M659.677 330.982C659.504 331.956 659.65 332.832 660.115 333.611C660.386 334.054 660.499 334.535 660.456 335.054C660.37 336.331 660.067 337.547 659.548 338.705C659.331 339.213 659.293 339.737 659.434 340.278C660.126 342.95 660.461 344.675 660.44 345.453C660.397 347.141 660.954 350.996 662.111 357.02C663.917 366.473 664.323 377.829 663.328 391.089C662.982 395.75 662.078 401.617 660.618 408.691C655.589 406.56 650.679 405.689 645.888 406.079C644.914 406.154 644.547 405.716 644.785 404.765C649.706 385.308 651.782 365.408 651.014 345.064C650.863 341.138 650.03 337.353 648.516 333.708C648.235 333.005 647.797 332.891 647.202 333.367C646.099 334.254 645.547 335.638 645.547 337.52C644.109 337.715 642.611 337.531 641.053 336.969C640.459 336.763 640.096 336.969 639.966 337.585L639.285 340.96L639.61 318.604C639.62 317.988 639.929 317.739 640.534 317.858C642.697 318.301 644.195 317.831 645.028 316.447C651.82 318.134 656.703 322.979 659.677 330.982Z" fill="#FDA930"/>
<path d="M563.053 368.815C561.874 369.031 560.673 369.053 559.451 368.88C558.9 368.793 558.656 368.474 558.721 367.922C559.435 361.06 565.746 357.848 569.542 352.576C575.609 344.188 585.57 336.872 593.244 329.977C595.991 329.025 598.435 327.641 600.576 325.824C602.242 324.396 605.351 323.909 609.905 324.364C610.316 324.407 610.381 324.58 610.1 324.883C607.515 327.608 604.751 330.096 601.809 332.345C598.273 335.049 595.477 337.461 593.422 339.581C589.237 343.864 584.894 347.99 580.395 351.959C579.26 352.965 578.329 354.155 577.605 355.528C577.364 355.988 576.966 356.345 576.485 356.534C571.472 358.546 567.222 363.721 563.053 368.815Z" fill="white"/>
<path d="M659.678 330.983C663.095 337.818 665.772 345.07 667.708 352.738C673.84 377.121 676.322 395.226 674.408 417.354C674.4 417.416 674.376 417.475 674.337 417.524C674.299 417.573 674.247 417.611 674.188 417.633C674.13 417.654 674.066 417.66 674.005 417.648C673.943 417.636 673.886 417.607 673.84 417.565C669.709 413.596 665.301 410.638 660.618 408.691C662.078 401.618 662.982 395.75 663.328 391.089C664.323 377.829 663.917 366.473 662.111 357.021C660.954 350.996 660.397 347.141 660.44 345.454C660.462 344.675 660.126 342.95 659.434 340.278C659.294 339.738 659.331 339.213 659.548 338.705C660.067 337.548 660.37 336.331 660.456 335.055C660.499 334.536 660.386 334.054 660.116 333.611C659.65 332.832 659.504 331.956 659.678 330.983Z" fill="#F87529"/>
<path d="M604.243 379.1L624.701 333.399C625.458 332.61 625.955 332.323 626.193 332.539C626.595 332.899 626.876 333.375 626.995 333.901C627.114 334.428 627.066 334.978 626.858 335.476C620.737 350.033 614.296 364.423 607.536 378.645C607.19 379.37 606.823 379.889 606.433 380.203C605.46 381.003 604.73 380.635 604.243 379.1Z" fill="#FEDD43"/>
<path d="M565.372 387.974C568.244 390.375 574.927 392.549 576.242 395.972C576.62 396.978 576.274 397.481 575.203 397.481L437.973 397.4C437.704 397.4 437.444 397.311 437.232 397.147C437.02 396.982 436.87 396.751 436.805 396.491L428.125 363.429C428.036 363.08 428.042 362.713 428.144 362.368C428.246 362.022 428.439 361.711 428.703 361.466C428.968 361.222 429.293 361.053 429.646 360.979C429.998 360.905 430.364 360.927 430.705 361.044L442.272 365.116C445.441 366.219 447.988 365.397 449.913 362.65C459.614 348.73 468.066 341.138 484.614 352.51C485.351 353.02 486.257 353.22 487.14 353.068C488.022 352.917 488.81 352.425 489.335 351.699C494.25 344.918 502.703 333.935 511.852 333.708C513.756 333.654 514.021 334.292 512.647 335.622C509.338 338.834 506.288 343.182 503.222 346.297C500.118 349.466 496.992 352.602 493.845 355.706C488.556 360.914 493.585 363.072 497.917 365.181C498.404 365.429 498.782 365.792 499.052 366.268L501.794 371.28C501.901 371.481 502.071 371.641 502.278 371.738C502.486 371.834 502.72 371.862 502.946 371.816C504.579 371.502 506.196 371.567 507.797 372.011C508.319 372.157 508.879 372.105 509.37 371.865C519.899 366.787 529.86 372.627 536.09 381.177C538.896 385.038 541.768 389.467 546.651 390.716C547.156 390.842 547.686 390.802 548.16 390.602C552.751 388.737 560.57 383.983 565.372 387.974Z" fill="white"/>
<path d="M645.547 337.52C643.363 358.491 639.296 379.035 633.348 399.151C633.185 399.714 632.845 399.849 632.325 399.557C629.438 397.913 627.118 396.075 625.366 394.041C628.524 385.854 630.471 380.619 631.206 378.337C634.342 368.549 637.036 356.09 639.285 340.959L639.966 337.585C640.096 336.969 640.459 336.763 641.053 336.969C642.611 337.531 644.109 337.715 645.547 337.52Z" fill="#FB9426"/>
<path d="M687.305 422.675C689.544 398.243 686.056 372.789 677.523 351.18C675.879 347.016 676.425 346.703 679.161 350.239C697.477 373.974 707.259 401.877 707.941 432.133C707.973 433.658 707.422 433.912 706.286 432.896C701.073 428.191 695.006 425.136 688.084 423.73C687.511 423.611 687.251 423.259 687.305 422.675Z" fill="#F87529"/>
<path d="M565.227 792.739L565.389 785.909C569.25 783.8 573.868 782.827 579.244 782.989C583.116 783.108 585.998 782.854 587.891 782.226C592.163 780.788 595.883 778.582 599.052 775.607C603.173 771.389 604.287 767.242 602.394 763.164C601.518 761.282 599.712 760.747 596.975 761.558C595.115 762.553 593.65 764.1 592.579 766.198C590.243 770.821 586.641 770.254 582.391 771.016C579.373 771.552 576.68 773.628 573.241 774.18C570.483 774.618 569.039 775.607 566.768 776.824C564.886 777.814 564.838 778.901 565.454 780.766C561.155 772.801 556.093 773.417 548.225 773.336C547.598 773.12 547.766 772.595 548.728 771.762C552.816 769.589 562.696 770.708 567.417 771.097C569.331 771.249 573.014 770.908 578.465 770.075C578.984 769.999 579.373 769.74 579.633 769.297C581.98 765.446 582.267 762.629 580.493 760.844C581.337 760.185 582.553 759.536 584.143 758.897C586.349 758.021 587.68 756.61 589.367 755.118C592.698 752.533 595.51 749.434 597.803 745.822C600.593 741.425 603.708 739.495 603.546 733.541C605.947 728.436 607.147 723.18 607.147 717.772C607.104 652.361 607.115 586.874 607.18 521.311L607.034 512.583L606.579 493.034L606.92 453.126C606.547 438.33 606.92 426.78 611.219 413.769C611.284 413.573 611.393 413.396 611.538 413.25C611.683 413.103 611.86 412.993 612.055 412.927C612.25 412.861 612.458 412.841 612.662 412.869C612.866 412.897 613.061 412.972 613.231 413.087C617.222 415.78 617.66 421.669 617.757 426.974C618.26 458.82 617.465 490.747 617.741 522.496C618.228 577.448 618.293 632.396 617.936 687.338C617.79 709.969 618.601 737.937 617.66 759.546C617.508 763.083 616.292 767.458 614.01 772.671C610.127 781.572 603.962 787.553 595.515 790.614C587.323 793.582 574.815 792.771 565.227 792.739Z" fill="#A4C9D7"/>
<path d="M423.162 511.545L424.395 518.001C424.503 518.542 424.454 519.067 424.249 519.575L422.561 523.874C422.334 537.036 422.28 549.885 422.399 562.42C422.902 612.063 422.48 661.705 422.545 711.331C422.561 724.861 423.519 735.812 431.046 745.416C440.472 757.421 451.893 764.656 466.429 764.51C501.276 764.197 536.123 763.986 570.97 763.878C574.717 763.862 577.281 762.547 580.493 760.844C582.267 762.629 581.98 765.446 579.633 769.296C579.373 769.74 578.984 769.999 578.465 770.075C573.014 770.908 569.331 771.248 567.417 771.097C562.696 770.708 552.816 769.588 548.728 771.762C545.981 771.362 543.288 771.4 540.649 771.876C540.13 771.973 539.638 771.935 539.173 771.762C538.686 771.568 538.178 771.476 537.648 771.486C518.91 771.632 501.811 772.022 481.435 771.778C473.594 771.681 465.747 771.795 457.895 772.119C449.427 772.476 438.038 774.098 436.432 764.332C436.346 763.835 436.092 763.434 435.67 763.132L432.02 760.568C431.598 760.265 431.133 760.119 430.624 760.13L426.65 760.146C426.425 760.152 426.204 760.205 426 760.303C425.795 760.4 425.613 760.541 425.465 760.714C419.593 767.577 429.829 777.229 435.572 780.036C438.233 781.345 441.878 781.999 446.507 781.999C454.434 781.999 465.542 782.102 479.829 782.307C486.945 782.415 491.077 785.736 492.223 792.268C477.46 792.441 462.611 792.436 447.675 792.252C440.991 792.176 435.735 791.381 431.906 789.867C418.884 784.741 412.374 774.363 412.374 758.735C412.449 645.304 412.633 531.899 412.925 418.522C412.926 418.102 413.05 417.692 413.28 417.343C413.511 416.994 413.839 416.721 414.223 416.559C415.131 416.17 415.715 416.553 415.975 417.711C421.02 440.78 426.958 463.784 432.587 486.74C432.739 487.324 432.533 487.74 431.971 487.989C429.516 489.081 426.931 489.714 424.216 489.887C423.909 489.904 423.62 490.037 423.409 490.261C423.198 490.484 423.08 490.78 423.081 491.088L423.162 511.545Z" fill="white"/>
<path d="M532.115 417.192L545.434 417.613C547.078 417.657 548.057 418.49 548.371 420.112C549.182 424.168 549.095 428.775 548.111 433.934L447.837 433.918C447.386 433.918 446.948 433.765 446.597 433.485C446.246 433.205 446.002 432.813 445.906 432.376L442.856 418.36C442.83 418.232 442.832 418.1 442.863 417.973C442.894 417.847 442.953 417.729 443.035 417.628C443.117 417.527 443.221 417.445 443.339 417.389C443.457 417.334 443.586 417.305 443.716 417.305L532.115 417.192Z" fill="white"/>
<path d="M532.116 417.192L575.399 417.565C575.544 417.568 575.687 417.606 575.814 417.676C575.942 417.746 576.051 417.846 576.132 417.967C576.213 418.088 576.264 418.226 576.28 418.371C576.297 418.515 576.278 418.662 576.226 418.798L570.564 433.35C570.468 433.593 570.3 433.801 570.083 433.946C569.866 434.091 569.609 434.166 569.348 434.161L548.112 433.934C549.096 428.775 549.182 424.168 548.371 420.112C548.058 418.49 547.079 417.657 545.435 417.613L532.116 417.192Z" fill="#A4C9D7"/>
<path d="M547.187 453.158C549.318 453.029 550.983 453.375 552.184 454.197C552.822 454.629 552.795 455.024 552.103 455.381C550.643 456.138 549.788 457.073 549.539 458.187C549.236 459.561 548.853 462.443 548.388 466.834C548.139 469.181 548.155 472.074 548.436 475.514C548.891 481.246 548.626 486.745 547.641 492.013C530.25 500.919 514.319 503.79 497.253 495.565C482.392 488.395 472.918 484.242 459.096 482.863C458.825 482.839 458.568 482.733 458.359 482.559C458.15 482.385 458 482.151 457.928 481.889L450.303 454.732C450.248 454.532 450.24 454.322 450.279 454.119C450.319 453.915 450.405 453.724 450.53 453.559C450.656 453.394 450.818 453.261 451.004 453.169C451.189 453.077 451.394 453.029 451.601 453.029L547.187 453.158Z" fill="white"/>
<path d="M547.641 492.012C548.625 486.745 548.89 481.245 548.436 475.513C548.155 472.074 548.138 469.181 548.387 466.834C548.852 462.443 549.236 459.561 549.539 458.187C549.788 457.073 550.642 456.138 552.102 455.38C552.794 455.024 552.821 454.629 552.183 454.196C550.983 453.374 549.317 453.028 547.187 453.158L562.371 453.466C562.512 453.469 562.65 453.505 562.775 453.571C562.899 453.637 563.006 453.731 563.087 453.845C563.167 453.959 563.22 454.09 563.239 454.227C563.259 454.364 563.245 454.504 563.199 454.634C559.013 467.104 554.233 479.223 548.858 490.99C548.739 491.26 548.582 491.477 548.387 491.639C547.944 491.996 547.695 492.12 547.641 492.012Z" fill="#A4C9D7"/>
<path d="M606.919 453.125L606.579 493.034L587.354 492.45L592.432 492.418C592.646 492.418 592.856 492.372 593.05 492.282C593.244 492.193 593.416 492.062 593.555 491.898C593.693 491.735 593.795 491.543 593.854 491.336C593.912 491.129 593.925 490.911 593.892 490.698C592.594 482.435 593.319 474.248 596.066 466.136C596.52 464.817 596.099 463.73 594.801 462.876L597.283 455.348C597.48 454.754 597.879 454.248 598.411 453.921C598.943 453.595 599.572 453.468 600.187 453.564C602.317 453.91 604.562 453.764 606.919 453.125Z" fill="#5E8EB3"/>
<path d="M575.058 470.533C573.144 475.962 571.019 481.267 568.683 486.448C568.088 487.767 567.563 487.74 567.109 486.366C566.687 485.101 566.936 483.695 567.855 482.149C568.137 481.694 568.364 481.208 568.537 480.688L577.67 454.407C577.908 453.747 578.379 453.45 579.082 453.515L579.601 453.58C579.761 453.596 579.916 453.646 580.055 453.728C580.194 453.809 580.313 453.919 580.404 454.051C580.496 454.182 580.557 454.332 580.583 454.488C580.61 454.645 580.601 454.806 580.558 454.959C578.373 462.584 576.719 467.375 575.594 469.332C575.377 469.722 575.199 470.122 575.058 470.533Z" fill="#575F7E"/>
<path d="M594.801 462.875C596.099 463.73 596.521 464.817 596.067 466.136C593.32 474.248 592.595 482.435 593.893 490.698C593.926 490.911 593.913 491.129 593.854 491.336C593.796 491.543 593.694 491.735 593.555 491.898C593.416 492.062 593.244 492.193 593.051 492.282C592.857 492.372 592.646 492.418 592.433 492.418L587.355 492.45C586.263 492.428 585.841 491.963 586.09 491.055C588.091 483.722 590.994 474.329 594.801 462.875Z" fill="white"/>
<path d="M554.017 509.906C557.878 509.322 561.712 509.176 565.519 509.468C569.591 509.793 572.073 512.551 575.529 513.54C580.633 515.022 585.684 516.693 590.681 518.553C591.2 518.748 591.492 519.121 591.557 519.673C591.633 520.441 591.276 520.992 590.486 521.327C589.956 521.555 589.313 521.636 588.556 521.571C579.292 520.484 570.532 518.164 561.09 518.699C550.788 519.3 538.751 525.302 529.293 527.557C510.88 531.954 495.062 523.939 478.482 516.736C468.862 512.551 454.634 511.01 444.09 515.341C436.854 518.315 429.678 521.16 422.562 523.874L424.249 519.575C424.454 519.067 424.503 518.543 424.395 518.002L423.162 511.545C428.31 510.42 435.291 508.436 444.106 505.591C451.449 503.223 459.026 502.73 466.834 504.115C478.612 506.208 490.487 514.206 503.093 517.11C522.885 521.652 535.815 515.503 554.017 509.906Z" fill="#FEC648"/>
<path d="M607.034 512.583L607.18 521.311C599.344 522.09 594.85 522.966 588.555 521.571C589.313 521.636 589.956 521.555 590.486 521.327C591.275 520.992 591.632 520.441 591.557 519.673C591.492 519.121 591.2 518.748 590.681 518.553C585.684 516.693 580.633 515.022 575.528 513.54C572.073 512.551 569.591 509.793 565.519 509.468C561.712 509.176 557.878 509.322 554.017 509.906C566.087 505.607 576.453 510.88 588.296 511.869C594.504 512.399 600.75 512.637 607.034 512.583Z" fill="#DC5A39"/>
<path d="M588.556 521.571C594.85 522.966 599.344 522.09 607.18 521.311C607.115 586.874 607.104 652.361 607.147 717.772C607.147 723.18 605.947 728.436 603.546 733.541C600.009 741.923 595.158 748.812 588.994 754.209C588.756 754.415 588.761 754.62 589.01 754.826L589.367 755.118C587.68 756.61 586.349 758.022 584.143 758.898C582.553 759.536 581.336 760.185 580.493 760.844C577.281 762.548 574.717 763.862 570.97 763.878C536.123 763.986 501.276 764.197 466.429 764.511C451.893 764.657 440.472 757.421 431.046 745.416C423.519 735.812 422.561 724.862 422.545 711.332C422.48 661.705 422.902 612.063 422.399 562.42C422.28 549.885 422.334 537.037 422.561 523.875C429.678 521.16 436.854 518.315 444.089 515.341C454.634 511.01 468.862 512.551 478.482 516.736C495.062 523.939 510.88 531.954 529.293 527.557C538.751 525.302 550.788 519.3 561.09 518.699C570.532 518.164 579.292 520.484 588.556 521.571Z" fill="#01010A"/>
<path d="M603.545 733.541C603.708 739.495 600.593 741.425 597.802 745.822C595.509 749.434 592.698 752.533 589.366 755.117L589.01 754.825C588.761 754.62 588.755 754.414 588.993 754.209C595.158 748.812 600.009 741.923 603.545 733.541Z" fill="#474766"/>
<path d="M548.728 771.762C547.765 772.595 547.598 773.119 548.225 773.336C544.964 775.834 543.017 777.619 540.406 781.253C537.502 785.243 534.549 787.125 532.959 792.511L492.223 792.268C491.077 785.736 486.945 782.415 479.829 782.307C465.542 782.102 454.434 781.999 446.507 781.999C441.878 781.999 438.233 781.345 435.572 780.036C429.829 777.229 419.593 767.577 425.465 760.714C425.613 760.541 425.795 760.4 426 760.303C426.204 760.205 426.425 760.152 426.65 760.146L430.624 760.13C431.133 760.119 431.598 760.265 432.02 760.568L435.67 763.132C436.092 763.434 436.346 763.835 436.432 764.332C438.038 774.098 449.427 772.476 457.895 772.119C465.747 771.795 473.594 771.681 481.435 771.778C501.811 772.022 518.91 771.632 537.648 771.486C538.178 771.476 538.686 771.568 539.173 771.762C539.638 771.935 540.13 771.973 540.649 771.876C543.288 771.4 545.981 771.362 548.728 771.762Z" fill="#36F9EF"/>
<path d="M599.052 775.607C598.727 775.164 598.381 774.969 598.014 775.023C596.846 775.185 596.7 774.823 597.576 773.936C600.128 771.33 600.82 768.328 599.652 764.932C599.587 764.746 599.485 764.574 599.352 764.427C599.219 764.281 599.058 764.163 598.878 764.081C598.699 764 598.506 763.955 598.31 763.951C598.114 763.946 597.919 763.982 597.738 764.056C597.11 764.305 596.673 764.219 596.424 763.797C596.164 763.375 596.186 762.964 596.489 762.564C596.748 762.218 596.91 761.882 596.975 761.558C599.712 760.747 601.518 761.282 602.394 763.164C604.287 767.241 603.173 771.389 599.052 775.607Z" fill="#474766"/>
<path d="M596.975 761.558C596.91 761.882 596.748 762.218 596.488 762.564C596.185 762.964 596.164 763.375 596.423 763.797C596.672 764.218 597.11 764.305 597.737 764.056C597.918 763.982 598.113 763.946 598.309 763.951C598.505 763.955 598.699 763.999 598.878 764.081C599.057 764.163 599.218 764.281 599.351 764.427C599.484 764.573 599.586 764.745 599.652 764.932C600.82 768.328 600.127 771.33 597.575 773.936C596.699 774.823 596.845 775.185 598.013 775.023C598.381 774.969 598.727 775.164 599.051 775.607C595.882 778.581 592.162 780.788 587.89 782.226C585.997 782.853 583.115 783.107 579.243 782.989C573.868 782.826 569.25 783.8 565.388 785.909C566.059 784.038 566.081 782.323 565.453 780.766C564.837 778.9 564.886 777.813 566.767 776.824C569.039 775.607 570.482 774.617 573.24 774.179C576.68 773.628 579.373 771.551 582.39 771.016C586.641 770.253 590.242 770.821 592.578 766.198C593.649 764.099 595.114 762.553 596.975 761.558Z" fill="#5E8EB3"/>
<path d="M548.225 773.336C556.094 773.417 561.155 772.8 565.454 780.766C566.082 782.323 566.06 784.038 565.389 785.909L565.227 792.739L532.959 792.511C534.549 787.125 537.502 785.244 540.406 781.253C543.018 777.619 544.965 775.834 548.225 773.336Z" fill="#2AD1C6"/>
<path d="M452.59 571.392C451.13 577.313 449.978 582.715 449.897 588.994C449.605 610.559 449.529 632.125 449.67 653.691C449.719 662.354 456.321 663.798 462.989 665.469C464.254 665.783 464.644 665.339 464.157 664.139C462.416 659.802 463.292 656.157 466.785 653.204C467.149 652.892 467.625 652.729 468.115 652.75C475.075 653.14 477.2 660.781 472.934 665.729C470.76 668.259 469.494 674.311 465.617 674.359C460.62 674.435 455.726 674.403 450.935 674.262C450.748 674.255 450.562 674.286 450.388 674.352C450.213 674.418 450.053 674.518 449.917 674.646C449.781 674.775 449.672 674.929 449.596 675.099C449.521 675.27 449.479 675.454 449.475 675.641C449.183 691.291 449.005 706.957 448.94 722.639C448.918 726.716 450.086 731.156 452.444 735.958C452.538 736.149 452.577 736.363 452.557 736.578C452.537 736.792 452.458 736.999 452.331 737.175C451.898 737.781 451.065 737.991 449.832 737.807" stroke="#FFE3A4" stroke-width="2"/>
<path d="M508.187 547.106C512.383 547.755 516.65 547.89 520.987 547.512C520.987 547.468 520.987 547.495 520.987 547.593C520.987 547.647 520.959 547.674 520.905 547.674C518.764 547.566 516.628 547.641 514.497 547.901C514.486 547.901 514.481 547.917 514.481 547.95C514.481 547.971 514.481 547.998 514.481 548.031C514.481 548.065 514.493 548.098 514.514 548.122C514.536 548.147 514.564 548.16 514.595 548.16C519.342 548.085 524.085 547.966 528.822 547.804C532.013 547.695 536.052 547.128 540.941 546.1C551.859 543.796 561.398 545.143 573.062 548.323C574.728 548.777 575.561 550.599 575.561 553.79" stroke="#ED9041" stroke-width="2"/>
<path d="M575.561 553.789L573.663 561.398C573.652 561.398 573.652 561.403 573.663 561.414C573.663 561.425 573.663 561.431 573.663 561.431C573.89 560.587 573.841 559.738 573.517 558.883C573.311 558.343 573.041 558.305 572.706 558.77C572.262 559.386 571.803 559.468 571.327 559.013C570.818 558.527 570.224 558.364 569.542 558.527L562.582 560.133C562.02 560.262 561.501 560.495 561.025 560.83C557.424 563.426 553.887 559.419 552.329 565.73C551.821 567.763 550.691 569.434 548.939 570.743C548.863 570.797 548.787 570.802 548.712 570.759C548.463 570.618 548.441 570.44 548.647 570.223C548.686 570.186 548.717 570.14 548.739 570.09C548.76 570.04 548.771 569.986 548.771 569.931C548.771 569.877 548.76 569.823 548.739 569.773C548.717 569.723 548.686 569.677 548.647 569.639C546.971 567.941 544.991 566.979 542.709 566.752C541 566.589 540.281 566.838 540.551 567.498" stroke="#FEBD42" stroke-width="2"/>
<path d="M540.552 567.498C538.443 568.817 537.15 570.158 536.675 571.521C533.149 581.839 529.531 592.124 525.821 602.377C524.28 606.66 523.939 609.337 529.325 610.732" stroke="#806325" stroke-width="2"/>
<path d="M529.325 610.733C531.715 611.371 533.511 610.851 534.711 609.175C536.744 606.363 537.999 602.935 538.475 598.89" stroke="#DE8533" stroke-width="2"/>
<path d="M538.475 598.89L541.768 591.362" stroke="#806325" stroke-width="2"/>
<path d="M541.768 591.362C542.839 590.454 543.661 589.323 544.234 587.971C544.439 587.485 544.807 587.241 545.337 587.241C549.393 587.209 550.999 590.762 553.53 593.098C557.326 596.602 558.851 601.469 559.776 606.401C561.349 614.804 565.097 619.931 563.961 629.162C563.81 630.384 563.215 630.66 562.177 629.989L561.268 629.405C560.425 628.854 560.089 628.086 560.262 627.101C560.619 625.057 560.154 622.786 558.867 620.288" stroke="#FEBD42" stroke-width="2"/>
<path d="M558.868 620.288C556.791 614.156 549.134 610.213 544.072 615.47C542.396 617.211 541.401 619.412 541.087 622.072C541.055 622.355 541.117 622.64 541.264 622.881C541.411 623.123 541.635 623.306 541.899 623.403C542.991 623.792 544.483 624.073 546.376 624.246C548.983 624.484 549.75 626.052 548.68 628.951C548.29 630 547.101 631.255 545.111 632.715C540.049 636.43 539.919 639.869 539.303 646.131C539.227 646.877 538.773 648.895 537.94 652.182C537.226 655.016 537.243 658.217 537.989 661.786C539.481 668.925 534.858 670.612 532.619 676.095C530.802 680.556 530.153 682.698 525.043 685.456C522.263 686.959 520.636 689.063 520.16 691.767C519.76 694.081 520.381 696.374 522.025 698.645C523.669 700.906 525.757 702.56 528.287 703.609C528.643 703.756 528.95 703.999 529.176 704.311C529.401 704.622 529.536 704.99 529.565 705.374C529.593 705.757 529.515 706.141 529.338 706.483C529.161 706.824 528.893 707.11 528.563 707.308L520.727 712.062C520.466 712.218 520.254 712.445 520.117 712.717C519.979 712.988 519.922 713.294 519.951 713.599C519.979 713.903 520.093 714.195 520.28 714.439C520.466 714.684 520.716 714.872 521.003 714.982C526.146 716.929 530.186 710.877 534.939 714.089C537.243 715.631 540.114 717.172 540.779 719.978C542.45 726.97 534.696 734.271 529.358 736.818" stroke="#FDAD37" stroke-width="2"/>
<path d="M529.358 736.818C525.908 737.186 523.025 738.24 520.711 739.981C520.499 740.143 520.328 740.35 520.21 740.586C520.092 740.823 520.03 741.082 520.03 741.344C520.03 743.258 519.51 744.589 518.472 745.335" stroke="#ED9041" stroke-width="2"/>
<path d="M574.96 681.335L574.879 699.099C574.879 700.203 574.431 701.089 573.533 701.76L569.883 704.486C569.45 704.81 568.974 705.059 568.455 705.232C567.903 705.416 567.319 705.459 566.703 705.362C566.327 705.307 565.943 705.327 565.575 705.422C565.206 705.516 564.86 705.683 564.557 705.913C564.254 706.142 563.999 706.43 563.807 706.758C563.616 707.087 563.492 707.45 563.442 707.827C562.793 712.684 562.355 717.199 562.128 721.374C562.02 723.45 561.555 724.721 560.733 725.186C559.586 725.835 557.883 725.597 555.623 724.472" stroke="#FDA431" stroke-width="2"/>
<path d="M555.623 724.472L557.927 724.423C558.035 724.421 558.142 724.395 558.239 724.347C558.336 724.298 558.421 724.228 558.487 724.143C558.554 724.058 558.601 723.958 558.625 723.852C558.648 723.747 558.648 723.637 558.624 723.531L555.801 710.731C555.699 710.26 555.495 709.818 555.201 709.435C554.908 709.053 554.534 708.74 554.104 708.518C553.675 708.297 553.202 708.172 552.719 708.154C552.235 708.135 551.753 708.223 551.307 708.411C548.896 709.439 545.483 709.617 541.071 708.947" stroke="#FEBD42" stroke-width="2"/>
<path d="M541.071 708.947C549.82 709.303 554.011 707.497 553.643 703.528C553.622 703.196 553.539 702.871 553.4 702.571C551.626 698.699 548.571 697.125 544.234 697.85C535.49 699.326 530.509 700.494 530.72 689.252C530.725 688.931 530.811 688.617 530.97 688.339C531.13 688.06 531.357 687.827 531.63 687.66C531.904 687.493 532.216 687.399 532.536 687.385C532.856 687.371 533.175 687.438 533.462 687.581C537.453 689.571 540.449 689.062 542.45 686.056C544.445 683.087 543.764 679.015 543.163 675.624C543.036 674.893 543.167 674.14 543.534 673.495C543.901 672.849 544.481 672.352 545.175 672.088C546.992 671.406 548.501 670.341 549.701 668.892C550.026 668.502 550.188 668.054 550.188 667.545V662.63C550.188 661.881 550.434 661.153 550.889 660.56C551.344 659.967 551.982 659.543 552.703 659.353C557.521 658.071 564.432 662.224 568.585 658.947C572.349 655.978 571.846 648.321 566.719 646.861C563.426 645.936 558.673 649.019 555.753 650.69C553.903 651.76 551.972 652.004 549.961 652.539C547.365 653.22 545.883 652.382 545.516 650.024C543.829 639.366 554.503 638.685 557.553 631.011C558.072 629.729 557.699 628.415 558.721 627.134C559.024 626.755 559.165 626.323 559.143 625.836L558.867 620.288" stroke="#FDA431" stroke-width="2"/>
<path d="M541.768 591.362C544.056 585.392 554.682 567.482 540.552 567.498" stroke="#805A1F" stroke-width="2"/>
<path d="M538.475 598.89C536.031 605.584 532.981 609.532 529.325 610.733" stroke="#60220F" stroke-width="2"/>
<path d="M541.071 708.947C545.581 715.317 550.431 720.492 555.623 724.472" stroke="#FDAD37" stroke-width="2"/>
<path d="M529.358 736.818C532.267 736.407 535.036 735.65 537.664 734.547C545.321 731.335 553.319 734.871 561.074 732.34C567.287 730.296 574.782 724.635 575.204 717.367C575.918 704.842 574.896 693.356 574.961 681.335" stroke="#EC7730" stroke-width="2"/>
<path d="M574.961 681.335L575.561 553.789" stroke="#ED873B" stroke-width="2"/>
<path d="M452.59 571.391C451.13 577.313 449.978 582.715 449.897 588.993C449.605 610.559 449.529 632.125 449.67 653.691C449.719 662.354 456.321 663.798 462.989 665.469C464.254 665.782 464.644 665.339 464.157 664.138C462.416 659.801 463.292 656.157 466.785 653.204C467.149 652.892 467.625 652.729 468.116 652.75C475.075 653.139 477.2 660.78 472.934 665.728C470.76 668.259 469.495 674.31 465.617 674.359C460.621 674.435 455.726 674.402 450.935 674.262C450.749 674.255 450.562 674.286 450.388 674.352C450.213 674.418 450.053 674.518 449.917 674.646C449.781 674.774 449.672 674.928 449.597 675.099C449.521 675.27 449.48 675.454 449.475 675.641C449.183 691.29 449.005 706.956 448.94 722.639C448.918 726.716 450.086 731.156 452.444 735.958C452.538 736.149 452.577 736.363 452.557 736.577C452.537 736.792 452.459 736.998 452.331 737.175C451.898 737.78 451.065 737.991 449.832 737.807C443.581 731.686 440.444 724.466 440.423 716.149C440.25 656.265 440.38 596.375 440.812 536.479C440.823 534.922 441.396 533.922 442.532 533.478C442.698 533.413 442.877 533.384 443.056 533.394C443.234 533.404 443.409 533.452 443.567 533.535C443.726 533.618 443.864 533.734 443.974 533.876C444.084 534.017 444.162 534.18 444.203 534.354L452.59 571.391Z" fill="white"/>
<path d="M508.187 547.106C512.384 547.755 516.65 547.89 520.987 547.511C520.987 547.468 520.987 547.495 520.987 547.592C520.987 547.646 520.96 547.673 520.906 547.673C518.765 547.565 516.629 547.641 514.498 547.901C514.487 547.901 514.482 547.917 514.482 547.949C514.482 547.971 514.482 547.998 514.482 548.03C514.482 548.065 514.494 548.098 514.515 548.122C514.536 548.146 514.565 548.16 514.595 548.16C519.343 548.084 524.086 547.965 528.823 547.803C532.013 547.695 536.053 547.127 540.942 546.1C551.86 543.796 561.399 545.143 573.063 548.322C574.729 548.777 575.562 550.599 575.562 553.79L573.663 561.398C573.653 561.398 573.653 561.404 573.663 561.414C573.663 561.425 573.663 561.431 573.663 561.431C573.891 560.587 573.842 559.738 573.517 558.884C573.312 558.343 573.042 558.305 572.706 558.77C572.263 559.386 571.803 559.468 571.327 559.013C570.819 558.527 570.224 558.364 569.543 558.527L562.583 560.133C562.021 560.263 561.502 560.495 561.026 560.83C557.424 563.426 553.887 559.419 552.33 565.73C551.822 567.763 550.692 569.434 548.94 570.743C548.864 570.797 548.788 570.802 548.712 570.759C548.464 570.618 548.442 570.44 548.648 570.223C548.687 570.186 548.718 570.14 548.739 570.09C548.761 570.04 548.772 569.986 548.772 569.931C548.772 569.877 548.761 569.823 548.739 569.773C548.718 569.723 548.687 569.677 548.648 569.639C546.971 567.941 544.992 566.979 542.71 566.752C541.001 566.589 540.282 566.838 540.552 567.498C538.443 568.817 537.151 570.159 536.675 571.521C533.149 581.839 529.531 592.125 525.822 602.378C524.281 606.66 523.94 609.337 529.326 610.732C531.716 611.371 533.511 610.851 534.712 609.175C536.745 606.363 538 602.934 538.476 598.89L541.769 591.362C542.84 590.454 543.662 589.323 544.235 587.971C544.44 587.485 544.808 587.241 545.338 587.241C549.394 587.209 551 590.762 553.531 593.098C557.327 596.602 558.852 601.469 559.777 606.401C561.35 614.804 565.098 619.931 563.962 629.162C563.811 630.384 563.216 630.66 562.178 629.989L561.269 629.405C560.425 628.854 560.09 628.086 560.263 627.101C560.62 625.057 560.155 622.786 558.868 620.288C556.791 614.155 549.134 610.213 544.073 615.47C542.396 617.211 541.401 619.412 541.088 622.072C541.055 622.355 541.117 622.64 541.264 622.881C541.411 623.123 541.635 623.306 541.899 623.403C542.991 623.792 544.484 624.073 546.376 624.246C548.983 624.484 549.751 626.052 548.68 628.951C548.291 630 547.101 631.255 545.111 632.715C540.049 636.43 539.92 639.869 539.303 646.131C539.227 646.877 538.773 648.894 537.94 652.182C537.226 655.016 537.243 658.217 537.989 661.786C539.481 668.924 534.858 670.612 532.619 676.095C530.802 680.556 530.153 682.698 525.043 685.456C522.263 686.959 520.636 689.063 520.16 691.766C519.76 694.081 520.382 696.374 522.026 698.645C523.67 700.905 525.757 702.56 528.288 703.609C528.643 703.756 528.951 703.999 529.176 704.311C529.402 704.622 529.536 704.99 529.565 705.374C529.593 705.757 529.515 706.141 529.338 706.483C529.161 706.824 528.893 707.11 528.563 707.308L520.728 712.061C520.466 712.218 520.254 712.445 520.117 712.716C519.979 712.988 519.922 713.294 519.951 713.599C519.98 713.903 520.094 714.195 520.28 714.439C520.466 714.684 520.717 714.872 521.004 714.982C526.146 716.928 530.186 710.877 534.939 714.089C537.243 715.63 540.114 717.172 540.779 719.978C542.45 726.97 534.696 734.271 529.358 736.818C525.908 737.185 523.026 738.24 520.711 739.981C520.5 740.143 520.328 740.35 520.21 740.586C520.092 740.822 520.03 741.082 520.03 741.344C520.03 743.258 519.511 744.589 518.473 745.335C502.963 745.346 487.508 745.319 472.107 745.254C462.687 745.221 455.262 742.739 449.833 737.807C451.066 737.991 451.899 737.78 452.331 737.175C452.459 736.998 452.538 736.792 452.558 736.577C452.578 736.363 452.539 736.149 452.445 735.958C450.087 731.156 448.919 726.716 448.941 722.639C449.006 706.957 449.184 691.291 449.476 675.641C449.48 675.454 449.522 675.27 449.597 675.099C449.673 674.928 449.782 674.775 449.918 674.646C450.054 674.518 450.214 674.418 450.389 674.352C450.563 674.286 450.749 674.255 450.936 674.262C455.727 674.402 460.621 674.435 465.618 674.359C469.495 674.31 470.761 668.259 472.935 665.728C477.201 660.78 475.076 653.139 468.116 652.75C467.626 652.729 467.15 652.892 466.786 653.204C463.293 656.157 462.417 659.802 464.158 664.139C464.645 665.339 464.255 665.783 462.99 665.469C456.322 663.798 449.72 662.354 449.671 653.691C449.53 632.125 449.606 610.559 449.898 588.994C449.979 582.715 451.131 577.313 452.591 571.392C457.804 592.341 461.178 605.719 462.714 611.527C466.299 625.074 481.062 627.507 488.671 615.567C489.72 613.912 489.931 611.868 489.304 609.434C482.966 584.84 476.52 560.095 469.966 535.198C469.782 534.517 470.171 533.938 471.134 533.462C471.577 533.235 472.264 533.311 473.194 533.689C484.907 538.443 496.052 543.407 508.187 547.106Z" fill="#FEC648"/>
<path d="M518.473 745.335C519.511 744.588 520.03 743.258 520.03 741.344C520.031 741.082 520.092 740.822 520.21 740.586C520.329 740.35 520.5 740.143 520.712 739.981C523.026 738.24 525.909 737.185 529.359 736.818C532.268 736.407 535.037 735.65 537.665 734.546C545.322 731.334 553.32 734.871 561.075 732.34C567.288 730.296 574.783 724.634 575.205 717.366C575.919 704.842 574.897 693.356 574.962 681.335L575.562 553.789C575.562 550.599 574.729 548.776 573.063 548.322C561.399 545.142 551.86 543.796 540.942 546.1C536.053 547.127 532.014 547.695 528.823 547.803C524.086 547.965 519.343 548.084 514.596 548.16C514.565 548.16 514.537 548.146 514.515 548.122C514.494 548.098 514.482 548.065 514.482 548.03C514.482 547.998 514.482 547.971 514.482 547.949C514.482 547.917 514.487 547.9 514.498 547.9C516.629 547.641 518.765 547.565 520.906 547.673C520.96 547.673 520.987 547.646 520.987 547.592C520.987 547.495 520.987 547.468 520.987 547.511C516.651 547.89 512.384 547.754 508.188 547.105C516.234 547.122 524.151 547.689 531.922 545.499C540.504 543.098 550.611 538.799 557.506 537.81C567.272 536.398 578.125 538.913 587.794 541.314C588.418 541.467 588.972 541.828 589.366 542.337C589.761 542.846 589.973 543.475 589.968 544.12C589.633 594.596 589.443 645.044 589.4 695.465C589.4 709.449 591.201 718.583 584.533 730.815C579.58 739.889 571.852 744.572 561.35 744.864C546.998 745.264 532.706 745.421 518.473 745.335Z" fill="#DC5A39"/>
<path d="M575.561 553.789L574.961 681.335L574.879 699.099C574.879 700.202 574.431 701.089 573.533 701.76L569.883 704.485C569.45 704.81 568.974 705.058 568.455 705.231C567.904 705.415 567.32 705.459 566.703 705.361C566.327 705.306 565.943 705.327 565.575 705.421C565.206 705.516 564.86 705.683 564.557 705.912C564.254 706.142 563.999 706.429 563.807 706.758C563.616 707.087 563.492 707.45 563.442 707.827C562.793 712.683 562.355 717.199 562.128 721.373C562.02 723.45 561.555 724.721 560.733 725.186C559.586 725.835 557.883 725.597 555.623 724.472L557.926 724.423C558.035 724.421 558.141 724.395 558.238 724.347C558.336 724.298 558.42 724.228 558.487 724.143C558.554 724.058 558.601 723.958 558.625 723.852C558.648 723.747 558.648 723.637 558.624 723.531L555.801 710.731C555.699 710.26 555.494 709.818 555.201 709.435C554.908 709.053 554.533 708.74 554.104 708.518C553.675 708.297 553.202 708.172 552.719 708.154C552.235 708.135 551.753 708.223 551.307 708.411C548.895 709.439 545.483 709.617 541.071 708.947C549.82 709.303 554.011 707.497 553.643 703.528C553.622 703.196 553.539 702.871 553.4 702.571C551.626 698.699 548.571 697.125 544.234 697.85C535.49 699.326 530.509 700.494 530.72 689.252C530.725 688.931 530.811 688.617 530.97 688.339C531.13 688.06 531.357 687.827 531.63 687.66C531.904 687.493 532.216 687.399 532.536 687.385C532.856 687.371 533.175 687.438 533.462 687.581C537.453 689.571 540.449 689.063 542.45 686.056C544.445 683.087 543.764 679.015 543.163 675.624C543.036 674.893 543.167 674.14 543.534 673.495C543.901 672.849 544.481 672.352 545.175 672.088C546.992 671.406 548.501 670.341 549.701 668.892C550.026 668.503 550.188 668.054 550.188 667.545V662.63C550.188 661.881 550.434 661.153 550.889 660.56C551.344 659.967 551.982 659.543 552.703 659.353C557.521 658.071 564.432 662.224 568.585 658.947C572.349 655.978 571.846 648.321 566.719 646.861C563.426 645.936 558.673 649.019 555.753 650.69C553.903 651.76 551.972 652.004 549.961 652.539C547.365 653.22 545.883 652.382 545.516 650.024C543.829 639.366 554.503 638.685 557.553 631.011C558.072 629.729 557.699 628.415 558.721 627.134C559.024 626.755 559.165 626.323 559.143 625.836L558.867 620.288C560.154 622.786 560.619 625.057 560.262 627.101C560.089 628.086 560.425 628.853 561.268 629.405L562.177 629.989C563.215 630.66 563.81 630.384 563.961 629.162C565.097 619.931 561.349 614.804 559.776 606.401C558.851 601.469 557.326 596.602 553.53 593.098C550.999 590.762 549.393 587.209 545.337 587.241C544.807 587.241 544.44 587.485 544.234 587.971C543.661 589.323 542.839 590.454 541.768 591.362C544.056 585.392 554.682 567.482 540.551 567.498C540.281 566.838 541 566.589 542.709 566.752C544.991 566.979 546.97 567.941 548.647 569.639C548.686 569.677 548.717 569.723 548.739 569.773C548.76 569.823 548.771 569.877 548.771 569.931C548.771 569.986 548.76 570.04 548.739 570.09C548.717 570.14 548.686 570.186 548.647 570.223C548.441 570.44 548.463 570.618 548.712 570.759C548.787 570.802 548.863 570.797 548.939 570.743C550.691 569.434 551.821 567.763 552.329 565.73C553.887 559.419 557.424 563.426 561.025 560.83C561.501 560.495 562.02 560.262 562.582 560.133L569.542 558.527C570.223 558.364 570.818 558.527 571.327 559.013C571.802 559.468 572.262 559.386 572.706 558.77C573.041 558.305 573.311 558.343 573.517 558.883C573.841 559.738 573.89 560.587 573.663 561.431C573.663 561.431 573.663 561.425 573.663 561.414C573.652 561.403 573.652 561.398 573.663 561.398L575.561 553.789Z" fill="#FEB43C"/>
<path d="M540.552 567.498C554.682 567.482 544.056 585.392 541.768 591.362L538.475 598.889C536.031 605.584 532.981 609.532 529.325 610.732C523.939 609.337 524.28 606.66 525.821 602.377C529.531 592.124 533.149 581.839 536.675 571.521C537.15 570.158 538.443 568.817 540.552 567.498Z" fill="#010001"/>
<path d="M538.475 598.89C537.999 602.935 536.744 606.363 534.711 609.175C533.511 610.851 531.715 611.371 529.325 610.733C532.981 609.532 536.031 605.584 538.475 598.89Z" fill="#BE441D"/>
<path d="M558.868 620.288L559.144 625.836C559.165 626.323 559.025 626.755 558.722 627.134C557.7 628.416 558.073 629.73 557.554 631.011C554.504 638.685 543.829 639.366 545.516 650.025C545.884 652.382 547.366 653.221 549.961 652.539C551.973 652.004 553.904 651.761 555.753 650.69C558.673 649.019 563.426 645.936 566.72 646.861C571.846 648.321 572.349 655.979 568.585 658.947C564.432 662.224 557.521 658.071 552.703 659.353C551.982 659.543 551.345 659.967 550.89 660.56C550.435 661.153 550.188 661.881 550.189 662.63V667.546C550.189 668.054 550.026 668.503 549.702 668.892C548.501 670.341 546.993 671.407 545.176 672.088C544.482 672.352 543.901 672.85 543.534 673.495C543.167 674.14 543.036 674.893 543.164 675.625C543.764 679.015 544.446 683.087 542.45 686.056C540.449 689.063 537.453 689.571 533.463 687.581C533.175 687.439 532.857 687.371 532.537 687.385C532.216 687.399 531.905 687.494 531.631 687.66C531.357 687.827 531.13 688.061 530.971 688.339C530.812 688.617 530.726 688.931 530.721 689.252C530.51 700.495 535.49 699.326 544.235 697.85C548.572 697.126 551.627 698.699 553.401 702.571C553.54 702.871 553.623 703.196 553.644 703.528C554.012 707.497 549.821 709.304 541.071 708.947C545.581 715.317 550.432 720.492 555.623 724.472C557.884 725.597 559.587 725.835 560.734 725.186C561.555 724.721 562.021 723.45 562.129 721.374C562.356 717.199 562.794 712.683 563.443 707.827C563.493 707.45 563.617 707.087 563.808 706.758C563.999 706.429 564.254 706.142 564.558 705.913C564.861 705.683 565.207 705.516 565.575 705.422C565.944 705.327 566.327 705.307 566.704 705.361C567.32 705.459 567.904 705.416 568.456 705.232C568.975 705.059 569.451 704.81 569.883 704.485L573.534 701.76C574.431 701.089 574.88 700.203 574.88 699.099L574.961 681.335C574.896 693.356 575.918 704.842 575.205 717.366C574.783 724.634 567.288 730.296 561.074 732.34C553.32 734.871 545.322 731.335 537.664 734.547C535.036 735.65 532.268 736.407 529.358 736.818C534.696 734.271 542.45 726.97 540.779 719.978C540.114 717.172 537.243 715.631 534.939 714.089C530.186 710.877 526.146 716.929 521.003 714.982C520.716 714.872 520.466 714.684 520.28 714.439C520.093 714.195 519.979 713.903 519.951 713.599C519.922 713.294 519.979 712.988 520.117 712.717C520.254 712.445 520.466 712.218 520.727 712.062L528.563 707.308C528.893 707.11 529.161 706.824 529.338 706.483C529.515 706.141 529.593 705.757 529.565 705.374C529.536 704.99 529.401 704.622 529.176 704.311C528.95 703.999 528.643 703.756 528.287 703.609C525.757 702.56 523.669 700.906 522.025 698.645C520.381 696.374 519.76 694.081 520.16 691.767C520.636 689.063 522.263 686.959 525.043 685.456C530.153 682.698 530.802 680.556 532.619 676.095C534.858 670.612 539.481 668.925 537.989 661.786C537.243 658.217 537.226 655.016 537.94 652.182C538.773 648.895 539.227 646.877 539.303 646.131C539.919 639.869 540.049 636.43 545.111 632.715C547.101 631.255 548.29 630 548.68 628.951C549.75 626.052 548.983 624.484 546.376 624.246C544.483 624.073 542.991 623.792 541.899 623.403C541.635 623.306 541.411 623.123 541.264 622.881C541.117 622.64 541.055 622.355 541.087 622.072C541.401 619.412 542.396 617.211 544.072 615.47C549.134 610.213 556.791 614.156 558.868 620.288Z" fill="#FB9426"/>
<path d="M555.623 724.472C550.431 720.492 545.581 715.317 541.071 708.947C545.483 709.617 548.896 709.439 551.307 708.411C551.753 708.223 552.235 708.135 552.719 708.154C553.202 708.172 553.675 708.297 554.104 708.518C554.534 708.74 554.908 709.053 555.201 709.435C555.495 709.818 555.699 710.26 555.801 710.731L558.624 723.531C558.648 723.637 558.648 723.747 558.625 723.852C558.601 723.958 558.554 724.058 558.487 724.143C558.421 724.228 558.336 724.298 558.239 724.347C558.142 724.395 558.035 724.421 557.927 724.423L555.623 724.472Z" fill="#FEC648"/>
<path d="M482.57 694.508C478.655 689.976 477.595 685.266 479.391 680.378" stroke="#FCBA94" stroke-width="2"/>
<path d="M507.107 573.205C506.596 574.209 505.868 575.09 504.965 575.799C504.062 576.508 503.002 577.029 501.846 577.335C500.69 577.64 499.459 577.722 498.225 577.578C496.991 577.433 495.778 577.064 494.654 576.491C492.384 575.335 490.618 573.42 489.744 571.168C488.87 568.917 488.959 566.512 489.993 564.484C490.504 563.48 491.232 562.599 492.135 561.89C493.038 561.181 494.098 560.66 495.254 560.354C496.41 560.049 497.641 559.967 498.875 560.112C500.109 560.256 501.323 560.625 502.446 561.198C504.716 562.354 506.482 564.269 507.356 566.521C508.23 568.772 508.141 571.177 507.107 573.205Z" fill="#DC5A39"/>
<path d="M508.749 624.498C507.686 624.785 506.543 624.606 505.573 624.001C504.603 623.396 503.885 622.415 503.577 621.272C503.269 620.13 503.396 618.92 503.93 617.91C504.464 616.899 505.361 616.17 506.425 615.883C507.488 615.596 508.63 615.775 509.6 616.38C510.57 616.985 511.288 617.966 511.596 619.109C511.905 620.251 511.778 621.46 511.244 622.471C510.71 623.482 509.812 624.211 508.749 624.498Z" fill="#FEFBEC"/>
<path d="M516.242 639.685C515.249 639.985 514.154 639.799 513.198 639.169C512.242 638.54 511.503 637.517 511.144 636.327C510.966 635.737 510.887 635.124 510.91 634.523C510.934 633.922 511.06 633.344 511.282 632.822C511.504 632.3 511.817 631.845 512.203 631.482C512.589 631.12 513.04 630.857 513.532 630.708C514.524 630.408 515.619 630.594 516.575 631.224C517.531 631.854 518.27 632.876 518.63 634.066C518.808 634.656 518.887 635.269 518.863 635.87C518.84 636.472 518.713 637.05 518.492 637.571C518.27 638.093 517.957 638.548 517.571 638.911C517.185 639.274 516.734 639.537 516.242 639.685Z" fill="#FEFBEC"/>
<path d="M479.908 638.454C480.735 639.81 480.959 641.456 480.531 643.033C480.103 644.609 479.058 645.986 477.626 646.86C476.194 647.735 474.492 648.035 472.894 647.695C471.296 647.355 469.934 646.402 469.107 645.047C468.28 643.692 468.055 642.045 468.483 640.469C468.911 638.892 469.956 637.515 471.388 636.641C472.821 635.767 474.523 635.467 476.12 635.807C477.718 636.147 479.081 637.099 479.908 638.454Z" fill="white"/>
<path d="M492.113 656.431C491.572 656.415 491.04 656.274 490.547 656.017C490.055 655.76 489.611 655.392 489.242 654.933C488.873 654.475 488.585 653.935 488.396 653.345C488.206 652.754 488.118 652.125 488.137 651.492C488.175 650.215 488.645 649.003 489.444 648.122C490.243 647.242 491.306 646.766 492.398 646.798C492.939 646.814 493.471 646.955 493.964 647.212C494.456 647.469 494.9 647.837 495.269 648.295C495.638 648.754 495.926 649.294 496.116 649.884C496.305 650.475 496.393 651.104 496.374 651.737C496.336 653.014 495.866 654.226 495.067 655.106C494.268 655.987 493.205 656.463 492.113 656.431Z" fill="#FEFBEC"/>
<path d="M482.57 694.508C478.655 689.977 477.595 685.267 479.391 680.378C480.137 680.162 480.759 680.416 481.256 681.14C481.527 681.53 481.684 682.108 481.727 682.876C481.857 685.418 482.132 687.311 482.554 688.554C483.668 691.831 484.539 691.767 485.166 688.36C485.62 685.894 486.464 680.686 484.371 678.447C482.771 676.749 483.133 676.025 485.458 676.274C485.804 676.317 486.296 676.587 486.934 677.085C492.174 681.254 490.731 693.356 484.128 695.141C483.014 695.444 482.495 695.233 482.57 694.508Z" fill="#F87529"/>
<path d="M479.391 680.378C477.596 685.266 478.655 689.976 482.571 694.508C475.497 703.852 464.482 693.21 470.111 684.142C471.95 681.178 474.767 679.188 478.564 678.172C479.094 678.02 479.429 678.215 479.569 678.756C479.721 679.329 479.661 679.869 479.391 680.378Z" fill="white"/>
<path d="M506.305 717.091C506.305 718.42 505.776 719.695 504.836 720.635C503.896 721.575 502.621 722.103 501.292 722.103C499.962 722.103 498.687 721.575 497.747 720.635C496.807 719.695 496.279 718.42 496.279 717.091C496.279 716.432 496.408 715.78 496.66 715.172C496.912 714.564 497.282 714.011 497.747 713.546C498.213 713.08 498.765 712.711 499.373 712.459C499.981 712.207 500.633 712.078 501.292 712.078C501.95 712.078 502.602 712.207 503.21 712.459C503.818 712.711 504.371 713.08 504.836 713.546C505.302 714.011 505.671 714.564 505.923 715.172C506.175 715.78 506.305 716.432 506.305 717.091Z" fill="#FEFBEC"/>
<path d="M482.619 724.505C482.783 724.502 482.946 724.533 483.098 724.593C483.25 724.654 483.389 724.744 483.507 724.859C483.624 724.973 483.718 725.11 483.783 725.261C483.848 725.411 483.882 725.573 483.884 725.737L483.9 725.948C483.933 728.365 482.937 730.697 481.134 732.431C479.33 734.165 476.864 735.159 474.28 735.196L469.673 735.261C468.392 735.279 467.12 735.061 465.93 734.619C464.739 734.177 463.655 733.52 462.737 732.685C461.819 731.85 461.087 730.855 460.582 729.754C460.077 728.654 459.809 727.471 459.793 726.273V726.062C459.791 725.898 459.821 725.735 459.882 725.583C459.943 725.43 460.033 725.291 460.147 725.174C460.262 725.056 460.398 724.963 460.549 724.898C460.7 724.833 460.862 724.799 461.026 724.797L482.619 724.505Z" fill="#FEFBEC"/>
<path d="M564.545 575.204C564.945 575.171 565.362 575.22 565.794 575.35C566.248 575.479 566.642 575.762 566.912 576.149C567.181 576.536 567.307 577.005 567.271 577.475C567.033 580.666 565.81 582.472 563.604 582.893C559.143 583.753 556.79 577.037 559.889 574.863C560.873 574.171 562.009 574.187 563.296 574.912C563.685 575.139 564.102 575.236 564.545 575.204Z" fill="#FEAD7F"/>
<path d="M495.983 574.482C494.933 574.385 493.982 573.698 493.337 572.571C492.693 571.445 492.409 569.973 492.548 568.478C492.617 567.737 492.787 567.014 493.05 566.348C493.312 565.683 493.661 565.088 494.077 564.599C494.493 564.109 494.968 563.734 495.474 563.496C495.981 563.257 496.509 563.159 497.029 563.207C498.078 563.304 499.03 563.992 499.674 565.118C500.318 566.244 500.602 567.717 500.463 569.212C500.395 569.952 500.224 570.676 499.962 571.341C499.7 572.007 499.35 572.601 498.934 573.091C498.518 573.58 498.043 573.955 497.537 574.194C497.031 574.432 496.503 574.531 495.983 574.482Z" fill="#FEAD7F"/>
</svg>
