<svg width="1024" height="1024" viewBox="0 0 1024 1024" fill="none" xmlns="http://www.w3.org/2000/svg">
<rect width="1024" height="1024" fill="white"/>
<path d="M735.244 737.453C733.031 738.297 730.607 738.719 727.973 738.719C583.263 738.699 438.578 738.678 293.919 738.657" stroke="#7F8785" stroke-width="2"/>
<path d="M733.7 752.01C731.57 749.216 729.625 747.703 725.843 747.703C655.716 747.765 578.673 748.29 515.338 747.904C434.277 747.4 375.701 747.24 339.611 747.425C328.991 747.472 312.227 748.12 298.504 747.857" stroke="#CAE3DC" stroke-width="2"/>
<path d="M733.068 755.946L290.4 756.131" stroke="#4C6C63" stroke-width="2"/>
<path d="M737.807 793.857C735.131 792.098 732.882 791.218 731.061 791.218C659.498 791.002 542.059 792.345 436.181 791.11C427.336 791.002 416.731 791.418 407.022 791.264C395.805 791.089 388.513 791.017 385.148 791.048C353.915 791.285 322.765 791.316 291.697 791.141" stroke="#4C6C63" stroke-width="2"/>
<path d="M735.243 737.453C733.031 738.297 730.607 738.719 727.973 738.719C583.262 738.698 438.578 738.678 293.919 738.657C282.048 734.181 285.027 718.127 296.898 716.182C297.412 716.089 297.68 715.786 297.701 715.271C297.845 711.515 298.004 706.066 298.179 698.924C298.719 675.584 305.017 651.133 312.782 628.689C325.378 592.336 352.716 557.852 382.585 532.366C383.11 531.917 383.486 531.32 383.66 530.654C383.834 529.989 383.798 529.287 383.557 528.646C379.863 518.798 375.767 508.949 371.27 499.101C353.271 459.785 334.13 423.108 311.67 387.913C298.519 367.336 281.57 344.429 268.619 325.489C262.907 317.153 263.432 304.85 273.99 300.991C276.645 300.024 280.643 299.828 285.984 300.405C326.057 304.742 366.531 320.75 397.651 346.621C403.115 351.169 408.523 355.79 413.874 360.483C414.595 361.11 414.883 360.951 414.739 360.004C411.178 335.46 406.264 310.922 399.997 286.388C397.332 275.933 394.111 265.647 390.334 255.531C389.85 254.224 389.717 252.315 389.933 249.804C390.674 241.222 397.404 237.625 405.77 240.512C410.448 242.132 419.061 250.885 422.627 253.957C443.991 272.254 461.953 293.237 476.515 316.906C477.379 318.316 477.889 318.192 478.043 316.535C480.081 294.369 484.089 272.197 490.068 250.02C493.248 238.186 497.066 227.705 501.522 218.577C505.227 210.951 515.106 209.5 520.277 216.647C522.243 219.364 523.807 222.317 524.97 225.507C531.407 243.028 536.547 260.455 540.221 279.241C542.454 290.716 544.466 302.643 546.256 315.023C546.359 315.723 546.611 315.784 547.013 315.208C557.556 300.003 568.732 285.153 581.729 271.878C591.778 261.598 602.692 250.823 614.794 242.287C619.671 238.844 625.723 237.64 629.968 242.734C633.472 246.933 633.163 251.549 631.527 256.982C621.153 291.56 614.037 326.322 608.542 361.98C608.418 362.793 608.665 362.927 609.283 362.381C612.339 359.68 615.643 355.898 617.989 353.783C649.16 325.566 685.718 308.2 727.664 301.686C736.648 300.296 752.378 297.626 757.055 308.215C759.597 313.968 759.067 319.453 755.465 324.67C727.818 364.666 706.208 394.211 685.847 432.308C674.579 453.394 664.077 474.871 654.341 496.739C649.381 507.874 644.38 518.998 639.337 530.112C639.111 530.606 639.198 531.039 639.6 531.409C646.505 537.625 653.302 543.969 659.991 550.442C704.71 593.695 728.328 652.769 726.923 714.901C726.922 715.04 726.971 715.174 727.062 715.28C727.153 715.385 727.279 715.453 727.417 715.472C734.24 716.419 738.403 719.66 739.905 725.197C741.119 729.673 739.565 733.759 735.243 737.453Z" fill="#010F0C"/>
<path d="M735.244 737.453C736.015 737.33 736.365 737.747 736.293 738.704C736.262 739.115 736.319 739.527 736.463 739.939C736.638 740.422 736.679 740.921 736.586 741.436C736.195 743.679 736.71 746.221 738.13 749.061C739.015 750.842 738.542 752.108 736.71 752.859C736.278 753.034 735.876 752.982 735.506 752.704C734.888 752.252 734.286 752.02 733.7 752.01C731.57 749.216 729.625 747.703 725.843 747.703C655.716 747.765 578.673 748.29 515.338 747.904C434.276 747.399 375.701 747.24 339.61 747.425C328.99 747.472 312.226 748.12 298.504 747.857L307.441 747.487C308.367 747.446 308.434 747.178 307.642 746.684C307.096 746.345 306.407 746.18 305.573 746.19C305.402 746.194 305.232 746.155 305.079 746.078C304.926 746 304.794 745.887 304.695 745.747C304.596 745.606 304.533 745.444 304.511 745.274C304.489 745.104 304.509 744.931 304.57 744.77C304.879 743.947 304.565 743.365 303.628 743.026C303.176 742.851 303.14 742.609 303.52 742.3C303.747 742.125 303.865 741.909 303.875 741.652C303.927 740.746 303.505 740.222 302.61 740.077L293.919 738.657C438.578 738.678 583.263 738.699 727.973 738.719C730.607 738.719 733.031 738.297 735.244 737.453Z" fill="#FDFEFE"/>
<path d="M733.699 752.01C734.399 753.111 734.188 754.423 733.066 755.946L290.399 756.131C289.514 751.572 292.215 748.815 298.503 747.857C312.226 748.12 328.989 747.472 339.61 747.425C375.7 747.24 434.275 747.4 515.337 747.904C578.672 748.29 655.715 747.765 725.842 747.703C729.624 747.703 731.569 749.216 733.699 752.01Z" fill="#97C8BA"/>
<path d="M733.067 755.946C738.191 757.191 740.404 760.721 739.704 766.535C738.809 773.929 733.314 775.318 726.444 775.318C584.348 775.298 442.251 775.303 300.155 775.334C291.387 775.349 285.984 771.567 287.204 762.213C287.42 760.546 288.485 758.519 290.399 756.131L733.067 755.946Z" fill="#010F0C"/>
<path d="M737.806 793.858C735.13 792.098 732.882 791.218 731.06 791.218C659.497 791.002 542.058 792.345 436.18 791.11C427.335 791.002 416.73 791.419 407.021 791.265C395.804 791.09 388.513 791.018 385.147 791.048C353.915 791.285 322.764 791.316 291.696 791.141C292.128 790.915 292.638 790.462 293.224 789.783C293.553 789.392 293.564 788.99 293.255 788.579C292.771 787.941 292.154 787.436 291.403 787.066C291.125 786.922 290.981 786.695 290.971 786.387C290.919 783.999 292 782.8 294.212 782.79C368.955 782.481 443.682 783.392 518.425 783.238C587.374 783.094 656.323 783.058 725.271 783.13C731.631 783.13 735.336 788.177 737.806 793.858Z" fill="#97C8BA"/>
<path d="M737.806 793.857C741.244 801.051 740.091 806.35 734.349 809.757C732.136 811.074 729.033 811.733 725.041 811.733C583.716 812.041 442.391 812.083 301.066 811.856C293.796 811.856 288.316 810.374 286.649 802.949C285.62 798.36 287.302 794.423 291.697 791.141C322.765 791.316 353.915 791.285 385.148 791.048C388.513 791.017 395.804 791.089 407.021 791.264C416.731 791.418 427.336 791.002 436.181 791.11C542.058 792.345 659.498 791.002 731.061 791.218C732.882 791.218 735.131 792.098 737.806 793.857Z" fill="#010F0C"/>
<path d="M522.809 323.112C522.583 324.491 522.47 325.88 522.47 327.279C522.47 327.444 522.428 327.573 522.346 327.665C522.253 327.768 522.135 327.84 521.991 327.882C521.662 327.974 521.451 327.856 521.358 327.526C517.767 314.313 514.726 300.976 512.235 287.516C512.215 287.402 512.158 287.346 512.066 287.346H511.664C511.602 287.346 511.566 287.377 511.556 287.438C510.095 299.829 508.603 312.214 507.08 324.594C505.927 333.938 503.797 345.458 500.689 359.155" stroke="#8DAE85" stroke-width="2"/>
<path d="M482.674 381.707L482.041 383.205C481.856 383.647 481.666 383.652 481.47 383.22C479.402 378.898 477.487 374.499 475.079 370.408C460.137 345.17 447.232 327.418 429.156 305.004" stroke="#CAE3DC" stroke-width="2"/>
<path d="M483.277 382.464C482.67 384.234 482.454 385.783 482.629 387.11C485.932 412.313 485.232 437.397 480.529 462.362C479.13 469.741 476.562 477.294 472.827 485.023C471.159 488.481 468.041 490.472 465.618 493.513" stroke="#69A29D" stroke-width="2"/>
<path d="M592.52 310.809C568.82 337.792 551.871 366.441 541.672 396.758C532.308 424.585 526.185 455.463 523.303 489.392" stroke="#CAE3DC" stroke-width="2"/>
<path d="M423.368 422.537C419.704 418.688 416.272 414.263 413.072 409.261C412.742 408.747 412.259 408.34 411.621 408.042C411.168 407.815 410.777 407.507 410.447 407.116C408.225 404.43 403.671 397.236 400.769 396.032C400.295 395.837 399.915 395.528 399.626 395.106C398.299 393.13 396.941 391.201 394.872 389.95C393.298 388.993 392.125 386.74 391.306 385.937C384.653 379.284 377.846 372.214 370.699 366.703C350.961 351.442 328.661 340.323 303.798 333.345" stroke="#CAE3DC" stroke-width="2"/>
<path d="M403.656 447.976L388.513 442.357C386.269 441.523 385.935 442.012 387.509 443.823C401.824 460.33 409.928 479.538 411.821 501.447C411.976 503.145 411.579 503.279 410.633 501.849C405.621 494.223 398.69 488.126 389.84 483.557" stroke="#69A29D" stroke-width="2"/>
<path d="M720.425 333.33C708.621 336.839 699.04 340.333 691.682 343.811C676.617 350.933 662.106 360.503 648.152 372.523C642.965 376.989 637.763 381.43 632.546 385.844C623.871 393.192 617.248 401.605 609.808 410.079C608.913 411.098 607.899 412.457 606.767 414.155C604.884 416.985 602.568 419.444 599.821 421.533" stroke="#CAE3DC" stroke-width="2"/>
<path d="M707.875 352.054C700.178 354.843 694.389 357.215 690.509 359.171C688.518 360.174 687.036 362.798 685.57 364.172C682.452 367.095 679.277 369.966 676.045 372.785C673.869 374.7 671.075 374.329 668.574 376.598C666.722 378.286 664.926 379.922 663.187 381.507" stroke="#69A29D" stroke-width="2"/>
<path d="M610.564 557.744C599.048 546.506 586.916 540.347 572.297 533.956C568.377 532.243 564.147 531.548 559.948 530.128C553.033 527.782 545.299 526.115 538.075 525.497C537.972 525.487 537.915 525.43 537.905 525.327C537.895 525.183 537.849 525.044 537.766 524.911C537.735 524.869 537.694 524.844 537.643 524.833C535.502 524.473 533.346 524.283 531.175 524.262C526.961 524.231 523.163 523.151 518.81 522.996C504.043 522.441 489.749 523.902 475.928 527.38C475.609 527.463 474.637 527.807 473.011 528.415C472.198 528.723 471.195 529.017 470.001 529.294C461.531 531.27 453.005 534.63 444.423 539.374C434.616 544.787 425.241 550.998 416.298 558.006" stroke="#FEDB9E" stroke-width="2"/>
<path d="M640.604 566.774C640.521 566.928 640.434 567.088 640.341 567.252" stroke="#FCAF8D" stroke-width="2"/>
<path d="M640.341 567.252C639.692 567.777 639.327 568.431 639.245 569.213C639.241 569.258 639.226 569.303 639.202 569.342C639.178 569.381 639.145 569.413 639.106 569.437C639.067 569.461 639.023 569.476 638.977 569.48C638.932 569.484 638.886 569.477 638.843 569.46L637.871 569.058C637.603 568.956 637.243 569.141 636.79 569.614C636.687 569.727 636.641 569.866 636.651 570.031C636.661 570.156 636.676 570.27 636.695 570.359C636.715 570.447 636.737 570.505 636.759 570.525C636.842 570.628 636.924 570.731 637.006 570.834C637.264 571.142 637.212 571.395 636.852 571.59C633.147 573.612 630.755 578.475 627.251 581.546C624.276 584.16 622.244 586.018 621.153 587.119C618.663 589.62 616.095 592.038 613.45 594.374C607.538 599.576 602.197 605.272 596.115 610.351C591.685 614.071 587.919 618.053 583.875 621.804C583.205 622.428 582.332 622.786 581.419 622.812C580.507 622.837 579.618 622.528 578.919 621.943C561.147 607.114 543.303 592.568 525.386 578.305C522.175 575.742 518.455 573.504 515.028 571.127C514.233 570.576 513.272 570.316 512.306 570.389C511.34 570.462 510.426 570.864 509.718 571.528C505.458 575.521 500.987 579.216 496.304 582.612C494.359 584.021 492.471 585.503 490.639 587.057C488.457 588.92 486.595 590.417 485.051 591.549C472.455 600.718 460.384 610.531 448.837 620.986C446.892 622.746 445.102 622.715 443.141 621.156C426.084 607.649 409.938 592.306 394.224 577.394C393.771 576.964 393.237 576.63 392.652 576.413C392.067 576.196 391.444 576.099 390.82 576.13C390.197 576.16 389.586 576.316 389.025 576.589C388.464 576.863 387.964 577.247 387.555 577.718C382.08 584.057 376.678 590.345 371.347 596.581C362.126 607.356 354.429 619.494 348.254 632.996" stroke="#FEDB9E" stroke-width="2"/>
<path d="M660.331 618.393C659.024 614.637 656.359 612.105 652.335 610.798C651.811 610.634 651.553 610.279 651.564 609.733C651.656 605.535 653.092 601.444 653.184 597.662C653.287 593.474 653.359 589.28 653.4 585.081C653.447 581.778 649.078 577.842 647.257 574.924C646.13 573.118 644.432 572.022 643.058 570.34C642.76 569.959 642.374 569.707 641.9 569.583C640.985 569.316 640.465 568.539 640.341 567.252" stroke="#FD8C2D" stroke-width="2"/>
<path d="M679.456 659.917C674.795 665.412 671.862 662.062 666.891 658.512C661.684 654.797 656.677 651.061 651.872 647.305C651.602 647.094 651.269 646.981 650.927 646.984C650.585 646.987 650.254 647.105 649.988 647.32L605.655 683.349" stroke="#FEDB9E" stroke-width="2"/>
<path d="M605.655 683.349L584.832 699.434C583.556 700.422 582.295 700.411 581.05 699.403L562.434 684.522" stroke="#FCAF8D" stroke-width="2"/>
<path d="M562.434 684.522C547.934 673.449 533.244 661.933 518.363 649.975C515.569 647.722 514.242 645.931 511.17 648.077C502.464 654.169 494 660.565 485.777 667.264C479.495 672.404 472.24 677.745 465.679 683.303" stroke="#FEDB9E" stroke-width="2"/>
<path d="M465.68 683.302L446.045 699.974C445.316 700.592 444.395 700.935 443.441 700.944C442.487 700.952 441.562 700.625 440.827 700.02L422.242 684.63" stroke="#FCAF8D" stroke-width="2"/>
<path d="M422.241 684.63L380.563 648.74C379.949 648.215 379.175 647.913 378.367 647.885C377.56 647.857 376.766 648.104 376.117 648.586L325.039 686.436C324.906 686.534 324.757 686.607 324.6 686.65C324.443 686.692 324.281 686.704 324.126 686.684C323.971 686.663 323.825 686.612 323.697 686.532C323.57 686.452 323.465 686.346 323.387 686.22C323.346 686.148 323.356 685.901 323.418 685.479" stroke="#FEDB9E" stroke-width="2"/>
<path d="M562.434 684.522C536.799 682.804 510.82 682.001 484.496 682.114C480.93 682.129 476.67 683.38 472.379 682.778C471.936 682.718 471.479 682.793 471.066 682.994C469.41 683.797 467.614 683.9 465.679 683.303" stroke="#FD8C2D" stroke-width="2"/>
<path d="M422.241 684.63C418.362 684.126 414.611 683.689 410.988 683.318C407.458 682.948 403.697 682.762 399.704 682.762C385.503 682.752 371.306 682.845 357.115 683.04C354.779 683.081 353.277 683.39 352.608 683.967C343.202 692.127 333.148 699.701 322.445 706.689" stroke="#FD8C2D" stroke-width="2"/>
<path d="M701.052 682.917C692.469 678.059 684.91 672.801 678.376 667.141C677.986 666.804 677.529 666.554 677.035 666.407C676.541 666.26 676.022 666.22 675.511 666.289C675.001 666.357 674.51 666.533 674.073 666.805C673.635 667.077 673.261 667.439 672.973 667.866C668.358 674.735 660.732 682.454 651.949 682.685C644.714 682.891 629.283 683.112 605.655 683.349" stroke="#FD8C2D" stroke-width="2"/>
<path d="M522.809 323.111C522.583 324.49 522.47 325.88 522.47 327.279C522.47 327.444 522.428 327.573 522.346 327.665C522.253 327.768 522.135 327.84 521.991 327.881C521.662 327.974 521.451 327.856 521.358 327.526C517.767 314.313 514.726 300.976 512.235 287.515C512.215 287.402 512.158 287.345 512.065 287.345H511.664C511.602 287.345 511.566 287.376 511.556 287.438C510.095 299.828 508.603 312.213 507.08 324.593C505.927 333.937 503.797 345.458 500.689 359.155C498.327 352.919 495.965 347.516 497.031 340.801C501.476 312.615 505.397 284.196 510.723 256.272C510.98 254.934 511.258 254.929 511.556 256.257C516.681 278.3 520.432 300.585 522.809 323.111Z" fill="#DFDF8A"/>
<path d="M522.809 323.112C524.404 331.499 525.691 339.963 526.668 348.504C526.895 350.542 526.591 352.544 525.758 354.509C521.034 365.562 517.057 376.681 513.825 387.867C513.28 389.73 512.652 389.755 511.942 387.944L500.689 359.155C503.797 345.458 505.927 333.938 507.08 324.594C508.603 312.214 510.095 299.829 511.556 287.438C511.566 287.377 511.602 287.346 511.664 287.346H512.066C512.158 287.346 512.215 287.402 512.235 287.516C514.726 300.976 517.767 314.313 521.358 327.526C521.451 327.856 521.662 327.974 521.991 327.882C522.135 327.84 522.253 327.768 522.346 327.665C522.428 327.573 522.47 327.444 522.47 327.279C522.47 325.88 522.583 324.491 522.809 323.112Z" fill="#3A7C7F"/>
<path d="M482.675 381.708L482.042 383.205C481.857 383.648 481.667 383.653 481.471 383.221C479.403 378.898 477.489 374.499 475.081 370.408C460.138 345.17 447.233 327.418 429.157 305.005L425.993 290.896C425.969 290.786 425.976 290.671 426.014 290.564C426.052 290.458 426.119 290.365 426.207 290.296C426.295 290.228 426.401 290.187 426.51 290.178C426.62 290.17 426.73 290.194 426.827 290.248C428.422 291.092 429.862 292.275 431.149 293.798C453.315 320.009 471.654 349.029 482.675 381.708Z" fill="#FDFEFE"/>
<path d="M592.52 310.808C568.82 337.791 551.871 366.441 541.673 396.758C532.308 424.584 526.185 455.462 523.303 489.391C520.762 489.69 518.395 489.597 516.203 489.113C515.606 488.98 515.328 488.609 515.369 488.002C516.758 470.363 519.676 451.783 524.122 432.261C531.022 401.898 541.426 376.32 555.272 348.272C564.241 330.104 577.284 313.247 590.004 297.749C591.753 295.609 593.559 293.844 595.422 292.455C595.573 292.338 595.756 292.272 595.947 292.266C596.137 292.259 596.325 292.313 596.483 292.418C596.641 292.524 596.763 292.677 596.83 292.855C596.897 293.033 596.907 293.228 596.858 293.412L592.52 310.808Z" fill="#FDFEFE"/>
<path d="M429.156 305.004C447.232 327.418 460.137 345.17 475.079 370.408C477.487 374.499 479.402 378.898 481.47 383.22C481.666 383.652 481.856 383.647 482.041 383.205L482.674 381.708C482.87 383.045 483.07 383.297 483.276 382.464C482.669 384.234 482.453 385.783 482.628 387.11C485.931 412.313 485.231 437.397 480.528 462.362C479.129 469.741 476.561 477.294 472.826 485.023C471.159 488.481 468.04 490.472 465.617 493.513L463.054 494.331C462.499 494.506 462.164 494.31 462.051 493.744C454.672 456.62 446.846 419.542 441.413 382.078C437.677 356.207 434.42 330.536 429.156 305.004Z" fill="#97C8BA"/>
<path d="M592.52 310.809C589.237 333.284 586.083 355.425 583.057 377.231C577.608 416.548 569.844 455.571 560.736 494.27C560.718 494.352 560.684 494.431 560.635 494.5C560.586 494.569 560.524 494.627 560.452 494.672C560.38 494.717 560.299 494.746 560.216 494.759C560.132 494.772 560.047 494.769 559.964 494.748C552.308 492.875 544.497 491.589 536.532 490.889C531.942 490.488 527.533 489.989 523.303 489.392C526.185 455.463 532.308 424.585 541.672 396.758C551.871 366.441 568.82 337.792 592.52 310.809Z" fill="#97C8BA"/>
<path d="M423.368 422.537C419.704 418.688 416.272 414.263 413.072 409.262C412.743 408.747 412.259 408.341 411.621 408.042C411.168 407.816 410.777 407.507 410.448 407.116C408.225 404.43 403.671 397.237 400.769 396.033C400.296 395.837 399.915 395.528 399.627 395.106C398.299 393.131 396.941 391.201 394.873 389.951C393.298 388.994 392.125 386.74 391.307 385.937C384.654 379.284 377.846 372.214 370.699 366.704C350.961 351.442 328.661 340.323 303.798 333.346L297.022 325.674C296.435 325.015 296.579 324.773 297.454 324.948C346.063 334.905 392.094 362.073 419.478 404.307C422.457 408.876 422.334 416.918 423.368 422.537Z" fill="#FDFEFE"/>
<path d="M720.425 333.331C708.621 336.84 699.04 340.333 691.682 343.812C676.617 350.933 662.106 360.504 648.152 372.523C642.965 376.99 637.763 381.43 632.546 385.845C623.871 393.193 617.248 401.605 609.808 410.08C608.913 411.099 607.899 412.457 606.767 414.155C604.884 416.985 602.568 419.445 599.821 421.534C600.057 414.093 601.663 408.336 604.637 404.26C617.14 387.106 632.078 371.911 649.449 358.677C670.797 342.423 694.029 332.667 720.255 326.508C722.838 325.911 724.901 325.525 726.445 325.35C726.562 325.339 726.68 325.364 726.783 325.42C726.886 325.477 726.969 325.564 727.022 325.668C727.076 325.773 727.096 325.892 727.081 326.008C727.066 326.125 727.017 326.234 726.939 326.322L720.425 333.331Z" fill="#FDFEFE"/>
<path d="M423.368 422.537L427.798 446.555C428.189 448.706 427.782 448.871 426.578 447.049C415.382 430.234 402.333 415.456 387.432 402.716C380.239 396.562 373.287 390.511 366.577 384.563C365.95 384.005 365.131 383.713 364.294 383.751C363.457 383.788 362.67 384.152 362.101 384.764L359.106 387.975C357.789 389.395 357.784 390.82 359.091 392.25C374.599 409.272 389.454 427.847 403.655 447.976L388.512 442.357C386.269 441.523 385.935 442.012 387.509 443.823C401.824 460.33 409.928 479.538 411.821 501.447C411.976 503.145 411.579 503.279 410.633 501.848C405.621 494.223 398.69 488.126 389.84 483.556C380.979 464.065 375.309 451.768 372.829 446.664C361.9 424.25 348.702 403.226 335.967 381.707C329.268 370.398 318.545 354.277 303.798 333.345C328.661 340.323 350.961 351.442 370.699 366.703C377.846 372.214 384.653 379.284 391.306 385.937C392.125 386.74 393.298 388.993 394.872 389.95C396.941 391.201 398.299 393.13 399.626 395.106C399.915 395.528 400.295 395.837 400.769 396.032C403.671 397.236 408.225 404.43 410.447 407.116C410.777 407.507 411.168 407.815 411.621 408.042C412.259 408.34 412.742 408.747 413.072 409.261C416.272 414.263 419.704 418.688 423.368 422.537Z" fill="#97C8BA"/>
<path d="M720.425 333.33L707.875 352.054C700.178 354.843 694.389 357.215 690.509 359.17C688.518 360.174 687.036 362.798 685.57 364.172C682.452 367.094 679.277 369.966 676.046 372.785C673.869 374.699 671.075 374.329 668.574 376.598C666.722 378.286 664.926 379.922 663.187 381.507C657.368 386.416 651.07 390.846 645.682 395.739C638.319 402.438 630.601 408.875 624.01 415.961C614.769 425.902 605.867 436.146 597.305 446.694C597.048 447.013 596.744 447.214 596.394 447.296C595.571 447.482 595.36 447.204 595.761 446.463L596.394 445.29C596.641 444.847 596.796 444.374 596.857 443.87L599.821 421.533C602.569 419.444 604.884 416.985 606.767 414.155C607.899 412.457 608.913 411.098 609.808 410.079C617.249 401.605 623.871 393.192 632.546 385.844C637.764 381.43 642.966 376.989 648.152 372.523C662.107 360.503 676.617 350.933 691.683 343.811C699.041 340.333 708.621 336.839 720.425 333.33Z" fill="#97C8BA"/>
<path d="M707.875 352.054C697.687 367.686 687.818 383.267 678.269 398.796C665.919 418.847 655.639 440.273 645.158 461.436C640.99 469.88 636.652 481.843 631.141 491.63C626.109 500.583 622.821 507.622 619.194 515.957C619.129 516.101 619.034 516.229 618.917 516.333C618.799 516.438 618.661 516.516 618.512 516.564C618.362 516.612 618.204 516.628 618.047 516.612C617.891 516.595 617.74 516.545 617.604 516.467C608.481 511.079 599.142 505.121 589.124 501.54C588.893 501.458 588.683 501.329 588.506 501.16C588.328 500.992 588.188 500.788 588.093 500.561C587.999 500.335 587.953 500.091 587.957 499.845C587.962 499.599 588.018 499.356 588.12 499.132C595.17 484.097 603.336 469.906 612.618 456.558C629.119 432.833 646.146 414.541 668.127 390.213C669.29 388.937 669.429 387.738 668.544 386.616C668.373 386.4 668.146 386.237 667.888 386.147C667.631 386.056 667.355 386.043 667.093 386.107C665.786 386.436 664.474 386.488 663.156 386.261C662.508 386.148 662.374 385.824 662.755 385.289C664.463 382.901 664.607 381.641 663.187 381.507C664.926 379.922 666.722 378.286 668.575 376.598C671.075 374.329 673.869 374.7 676.046 372.785C679.277 369.966 682.452 367.095 685.57 364.172C687.036 362.798 688.518 360.174 690.51 359.171C694.389 357.215 700.178 354.843 707.875 352.054Z" fill="#3A7C7F"/>
<path d="M483.277 382.464C484.604 385.057 486.158 388.927 487.939 394.072C492.755 407.887 498.142 424.343 497.756 439.084C497.308 455.956 495.333 472.55 494.484 489.36C494.463 489.896 494.185 490.194 493.65 490.256L465.618 493.513C468.041 490.472 471.159 488.481 472.827 485.023C476.562 477.294 479.13 469.741 480.529 462.362C485.232 437.397 485.932 412.313 482.629 387.11C482.454 385.783 482.67 384.234 483.277 382.464Z" fill="#3A7C7F"/>
<path d="M403.656 447.976C416.344 464.174 427.201 481.756 436.226 500.722C436.463 501.216 436.339 501.596 435.856 501.864C431.575 504.251 427.191 506.361 422.704 508.193C416.005 510.925 411.374 513.765 405.956 517.624C405.902 517.664 405.841 517.691 405.776 517.703C405.71 517.715 405.643 517.712 405.578 517.694C405.513 517.676 405.452 517.644 405.4 517.6C405.348 517.556 405.306 517.501 405.276 517.439L389.84 483.557C398.69 488.126 405.621 494.223 410.633 501.849C411.579 503.279 411.976 503.145 411.821 501.447C409.928 479.538 401.824 460.33 387.509 443.823C385.935 442.012 386.269 441.523 388.513 442.357L403.656 447.976Z" fill="#3A7C7F"/>
<path d="M610.564 557.743C599.049 546.506 586.916 540.347 572.298 533.956C568.377 532.243 564.147 531.548 559.949 530.128C553.033 527.781 545.3 526.114 538.075 525.497C537.972 525.487 537.916 525.43 537.906 525.327C537.895 525.183 537.849 525.044 537.767 524.91C537.736 524.869 537.695 524.843 537.643 524.833C535.503 524.473 533.347 524.283 531.175 524.262C526.961 524.231 523.164 523.151 518.811 522.996C504.043 522.44 489.749 523.902 475.929 527.38C475.61 527.462 474.637 527.807 473.011 528.414C472.198 528.723 471.195 529.016 470.001 529.294C461.532 531.27 453.006 534.63 444.423 539.374C434.616 544.787 425.241 550.998 416.298 558.006L405.462 547.108C404.906 546.542 404.952 546.027 405.601 545.564C439.977 521.113 484.342 509.366 526.251 513.055C560.18 516.034 591.794 525.574 619.703 546.892C620.125 547.2 620.155 547.55 619.795 547.941L610.564 557.743Z" fill="#FDFEFE"/>
<path d="M610.564 557.744L581.127 587.397C580.664 587.86 580.19 587.875 579.707 587.443C559.125 569.527 538.137 552.336 516.742 535.87C513.686 533.524 511.571 534.327 508.684 536.658C488 553.36 466.836 569.305 446.923 586.995C446.807 587.102 446.654 587.16 446.496 587.157C446.338 587.154 446.187 587.091 446.074 586.98L416.298 558.006C425.241 550.998 434.616 544.787 444.423 539.374C453.005 534.63 461.531 531.27 470.001 529.294C471.195 529.017 472.198 528.723 473.011 528.415C474.637 527.807 475.609 527.463 475.928 527.38C489.749 523.902 504.043 522.441 518.81 522.996C523.163 523.151 526.961 524.231 531.175 524.262C533.346 524.283 535.502 524.473 537.643 524.833C537.694 524.844 537.735 524.869 537.766 524.911C537.849 525.044 537.895 525.183 537.905 525.327C537.915 525.43 537.972 525.487 538.075 525.497C545.299 526.115 553.033 527.782 559.948 530.128C564.147 531.548 568.377 532.243 572.297 533.956C586.916 540.347 599.048 546.506 610.564 557.744Z" fill="#FEB83D"/>
<path d="M640.603 566.774C640.521 566.928 640.433 567.088 640.341 567.252C639.692 567.777 639.327 568.431 639.245 569.213C639.241 569.258 639.226 569.302 639.202 569.341C639.178 569.38 639.145 569.413 639.106 569.437C639.067 569.461 639.023 569.476 638.978 569.48C638.932 569.484 638.886 569.477 638.843 569.46L637.871 569.058C637.603 568.955 637.243 569.141 636.79 569.614C636.688 569.727 636.641 569.866 636.652 570.031C636.661 570.156 636.676 570.27 636.696 570.359C636.715 570.447 636.737 570.505 636.76 570.525C636.842 570.628 636.924 570.731 637.007 570.834C637.264 571.142 637.212 571.394 636.852 571.59C633.147 573.612 630.755 578.475 627.251 581.546C624.277 584.16 622.244 586.018 621.153 587.119C618.663 589.62 616.095 592.038 613.451 594.374C607.539 599.576 602.198 605.272 596.116 610.351C591.686 614.071 587.919 618.053 583.875 621.804C583.205 622.428 582.332 622.786 581.42 622.812C580.507 622.837 579.618 622.528 578.92 621.943C561.147 607.114 543.303 592.568 525.386 578.305C522.176 575.742 518.456 573.504 515.029 571.127C514.233 570.576 513.272 570.316 512.306 570.389C511.34 570.462 510.427 570.864 509.719 571.528C505.458 575.521 500.987 579.215 496.304 582.611C494.359 584.021 492.471 585.503 490.639 587.057C488.458 588.92 486.595 590.417 485.051 591.549C472.455 600.718 460.384 610.531 448.838 620.986C446.893 622.746 445.102 622.715 443.142 621.156C426.085 607.649 409.938 592.305 394.224 577.394C393.772 576.964 393.237 576.63 392.652 576.413C392.067 576.196 391.444 576.099 390.82 576.13C390.197 576.16 389.586 576.316 389.025 576.589C388.464 576.862 387.964 577.246 387.555 577.718C382.081 584.057 376.678 590.345 371.347 596.581C362.127 607.356 354.429 619.494 348.255 632.996C344.159 636.896 339.229 640.503 333.467 643.816C332.448 644.403 332.134 644.141 332.525 643.029C343.66 611.776 361.453 584.978 385.904 562.637C386.327 562.251 386.88 562.039 387.45 562.045C388.021 562.051 388.566 562.273 388.976 562.668L444.855 615.707C445.009 615.854 445.213 615.937 445.427 615.94C445.641 615.943 445.85 615.865 446.013 615.722C465.231 598.758 485.391 583.075 505.319 566.974C507.841 564.927 510.408 562.935 513.022 561.001C513.485 560.661 513.938 560.671 514.38 561.032L580.587 615.182C581.009 615.532 581.42 615.517 581.822 615.136L635.802 563.455C636.513 562.786 637.187 562.817 637.825 563.548L640.603 566.774Z" fill="#FDFEFE"/>
<path d="M640.604 566.774C656.009 579.926 667.648 596.566 678.515 614.642C683.038 622.19 686.604 631.452 690.864 639.541C692.161 642 691.708 642.386 689.506 640.698L660.331 618.393C659.024 614.637 656.359 612.105 652.335 610.798C651.811 610.634 651.553 610.279 651.564 609.733C651.656 605.535 653.092 601.444 653.184 597.662C653.287 593.474 653.359 589.28 653.4 585.081C653.447 581.778 649.078 577.842 647.257 574.924C646.13 573.118 644.432 572.022 643.058 570.34C642.76 569.959 642.374 569.707 641.9 569.583C640.985 569.316 640.465 568.539 640.341 567.252C640.434 567.088 640.521 566.928 640.604 566.774Z" fill="#FB5F1C"/>
<path d="M640.342 567.252C640.465 568.539 640.985 569.316 641.901 569.583C642.374 569.707 642.76 569.959 643.059 570.34C644.433 572.022 646.131 573.118 647.258 574.924C649.079 577.842 653.447 581.778 653.401 585.081C653.36 589.28 653.288 593.474 653.185 597.662C653.092 601.444 651.657 605.535 651.564 609.733C651.554 610.279 651.811 610.634 652.336 610.798C656.36 612.105 659.025 614.637 660.332 618.393L651.178 611.539C650.702 611.187 650.121 611.004 649.529 611.018C648.936 611.032 648.365 611.242 647.906 611.616L584.493 663.482C583.3 664.47 582.101 664.476 580.897 663.498L515.508 610.999C514.973 610.571 514.308 610.337 513.621 610.337C512.934 610.337 512.266 610.571 511.726 610.999C499.768 620.467 487.744 629.903 475.652 639.309C466.174 646.688 456.65 655.008 447.11 662.896C445.031 664.604 442.999 664.558 441.013 662.757C430.856 653.572 418.784 644.172 409.847 636.469C402.046 629.759 394.199 623.106 386.306 616.51C383.219 613.932 380.024 610.243 376.659 612.342C366.749 618.532 358.181 625.849 348.256 632.996C354.43 619.494 362.128 607.356 371.349 596.581C376.679 590.345 382.082 584.057 387.557 577.718C387.965 577.247 388.465 576.863 389.026 576.589C389.588 576.316 390.198 576.16 390.822 576.13C391.445 576.099 392.068 576.196 392.653 576.413C393.238 576.63 393.773 576.964 394.225 577.394C409.939 592.306 426.086 607.649 443.143 621.156C445.103 622.715 446.894 622.746 448.839 620.986C460.385 610.531 472.457 600.718 485.053 591.549C486.596 590.417 488.459 588.92 490.641 587.057C492.472 585.503 494.361 584.021 496.306 582.612C500.988 579.216 505.459 575.521 509.72 571.528C510.428 570.864 511.341 570.462 512.307 570.389C513.274 570.316 514.235 570.576 515.03 571.127C518.457 573.504 522.177 575.742 525.388 578.305C543.304 592.568 561.149 607.114 578.921 621.943C579.619 622.528 580.508 622.837 581.421 622.812C582.333 622.786 583.207 622.428 583.876 621.804C587.92 618.053 591.687 614.071 596.117 610.351C602.199 605.272 607.54 599.576 613.452 594.374C616.097 592.038 618.664 589.62 621.155 587.119C622.245 586.018 624.278 584.16 627.252 581.546C630.756 578.475 633.149 573.612 636.853 571.59C637.214 571.395 637.265 571.142 637.008 570.834C636.925 570.731 636.843 570.628 636.761 570.525C636.738 570.505 636.716 570.447 636.697 570.359C636.677 570.27 636.662 570.156 636.653 570.031C636.642 569.866 636.689 569.727 636.792 569.614C637.244 569.141 637.605 568.956 637.872 569.058L638.845 569.46C638.887 569.477 638.933 569.484 638.979 569.48C639.024 569.476 639.069 569.461 639.108 569.437C639.147 569.413 639.179 569.381 639.203 569.342C639.228 569.303 639.242 569.258 639.246 569.213C639.328 568.431 639.694 567.777 640.342 567.252Z" fill="#FEB83D"/>
<path d="M679.457 659.916C674.795 665.412 671.862 662.062 666.892 658.512C661.684 654.797 656.678 651.061 651.872 647.305C651.603 647.094 651.27 646.981 650.928 646.984C650.586 646.987 650.255 647.105 649.989 647.32L605.656 683.349L584.832 699.433C583.556 700.421 582.295 700.411 581.05 699.403L562.434 684.522C547.934 673.449 533.244 661.933 518.363 649.975C515.569 647.722 514.242 645.931 511.17 648.077C502.464 654.169 494 660.565 485.777 667.264C479.495 672.404 472.24 677.745 465.679 683.303L446.044 699.974C445.315 700.592 444.394 700.935 443.44 700.944C442.486 700.952 441.561 700.625 440.827 700.02L422.241 684.63L380.563 648.741C379.949 648.215 379.175 647.913 378.367 647.885C377.56 647.857 376.766 648.104 376.117 648.586L325.039 686.436C324.906 686.534 324.757 686.607 324.6 686.65C324.443 686.693 324.281 686.704 324.126 686.684C323.971 686.663 323.825 686.612 323.697 686.532C323.57 686.452 323.465 686.346 323.387 686.22C323.346 686.148 323.356 685.901 323.418 685.479C323.248 681.805 323.619 679.104 326.675 676.634C342.852 663.559 360.388 651.766 378.047 638.599C378.161 638.515 378.299 638.471 378.439 638.473C378.579 638.476 378.713 638.526 378.819 638.614C400.718 656.016 422.051 674.082 442.818 692.811C443.065 693.032 443.384 693.156 443.714 693.158C444.044 693.161 444.362 693.043 444.608 692.827C453.623 684.908 462.453 676.557 471.73 669.302C485.52 658.517 499.346 647.856 513.207 637.318C513.331 637.223 513.481 637.171 513.635 637.171C513.789 637.171 513.938 637.223 514.056 637.318L582.362 692.533C582.815 692.894 583.252 692.878 583.674 692.487C604.529 673.253 627.267 656.057 649.649 638.676C649.927 638.459 650.269 638.339 650.624 638.336C650.978 638.334 651.324 638.448 651.61 638.661L679.457 659.916Z" fill="#FDFEFE"/>
<path d="M679.456 659.917L699.879 676.186C700.27 676.495 700.491 676.902 700.542 677.406L701.052 682.917C692.469 678.059 684.91 672.801 678.376 667.141C677.986 666.804 677.529 666.554 677.035 666.407C676.541 666.26 676.022 666.22 675.511 666.288C675.001 666.357 674.51 666.533 674.073 666.805C673.635 667.077 673.261 667.439 672.973 667.866C668.358 674.735 660.732 682.454 651.949 682.685C644.714 682.891 629.283 683.112 605.655 683.349L649.988 647.32C650.254 647.105 650.585 646.987 650.927 646.984C651.269 646.981 651.602 647.094 651.872 647.305C656.677 651.061 661.684 654.797 666.891 658.512C671.862 662.062 674.795 665.412 679.456 659.917Z" fill="#FEB83D"/>
<path d="M562.434 684.522C536.799 682.803 510.82 682.001 484.496 682.114C480.93 682.129 476.67 683.38 472.379 682.778C471.936 682.718 471.479 682.793 471.066 682.994C469.41 683.796 467.614 683.899 465.679 683.303C472.24 677.745 479.495 672.404 485.777 667.264C494 660.565 502.464 654.169 511.17 648.077C514.242 645.931 515.569 647.722 518.363 649.975C533.244 661.933 547.934 673.449 562.434 684.522Z" fill="#FEB83D"/>
<path d="M422.241 684.63C418.362 684.126 414.611 683.688 410.988 683.318C407.458 682.947 403.697 682.762 399.704 682.762C385.503 682.752 371.306 682.844 357.115 683.04C354.779 683.081 353.277 683.39 352.608 683.966C343.202 692.127 333.148 699.701 322.445 706.688L323.418 685.479C323.356 685.901 323.346 686.148 323.387 686.22C323.465 686.346 323.57 686.452 323.697 686.532C323.825 686.612 323.971 686.663 324.126 686.684C324.281 686.704 324.443 686.692 324.6 686.65C324.757 686.607 324.906 686.534 325.039 686.436L376.117 648.586C376.766 648.104 377.56 647.857 378.367 647.885C379.175 647.913 379.949 648.215 380.563 648.74L422.241 684.63Z" fill="#FEB83D"/>
<path d="M701.052 682.917L702.04 715.117C702.051 715.631 701.799 715.884 701.284 715.873L688.672 715.719C687.201 715.699 685.773 715.189 684.613 714.268L654.157 689.878C653.684 689.498 653.094 689.29 652.485 689.29C651.876 689.29 651.285 689.498 650.807 689.878L619.394 714.978C618.695 715.538 617.829 715.843 616.94 715.842C595.298 715.863 573.523 715.894 551.613 715.935C549.586 715.935 547.77 715.312 546.164 714.067C536.254 706.349 526.344 698.626 516.434 690.897C515.415 690.105 514.309 689.503 513.115 689.091C512.879 689.011 512.627 688.993 512.384 689.039C512.14 689.085 511.913 689.193 511.726 689.354L481.996 714.283C480.509 715.53 478.633 716.208 476.701 716.197L411.575 715.842C410.814 715.843 410.081 715.593 409.491 715.132L376.751 689.863C375.495 688.885 374.24 688.891 372.984 689.878L339.811 715.842C339.4 716.161 338.932 716.326 338.407 716.336L323.866 716.475C323.671 716.477 323.477 716.441 323.296 716.368C323.115 716.295 322.951 716.187 322.813 716.05C322.675 715.914 322.566 715.751 322.492 715.572C322.419 715.394 322.382 715.202 322.384 715.009L322.446 706.689C333.148 699.701 343.202 692.127 352.608 683.966C353.277 683.39 354.78 683.081 357.116 683.04C371.307 682.845 385.503 682.752 399.704 682.762C403.697 682.762 407.459 682.948 410.988 683.318C414.611 683.688 418.362 684.126 422.241 684.63L440.827 700.02C441.562 700.625 442.487 700.952 443.44 700.944C444.394 700.935 445.316 700.592 446.044 699.974L465.679 683.303C467.614 683.899 469.41 683.797 471.067 682.994C471.479 682.793 471.936 682.718 472.379 682.778C476.67 683.38 480.93 682.129 484.496 682.114C510.82 682.001 536.8 682.803 562.434 684.522L581.05 699.403C582.296 700.411 583.556 700.421 584.832 699.434L605.656 683.349C629.284 683.112 644.715 682.891 651.949 682.685C660.733 682.454 668.358 674.735 672.974 667.866C673.261 667.439 673.636 667.077 674.074 666.805C674.511 666.533 675.001 666.357 675.512 666.289C676.022 666.22 676.542 666.26 677.036 666.407C677.529 666.554 677.986 666.804 678.376 667.141C684.911 672.801 692.47 678.059 701.052 682.917Z" fill="#FB5F1C"/>
<path d="M381.041 716.074L370.544 716.12C369.927 716.12 369.782 715.858 370.112 715.333C371.47 713.203 373.384 711.813 375.854 711.165C376.38 711.037 376.937 711.114 377.413 711.381C379.132 712.39 380.439 713.789 381.334 715.58C381.499 715.909 381.401 716.074 381.041 716.074Z" fill="#FB5F1C"/>
<path d="M509.518 715.966C509.199 716.131 508.854 716.213 508.484 716.213C507.557 716.244 507.434 715.945 508.113 715.318L512.42 711.366C512.862 710.954 513.32 710.939 513.794 711.32L518.733 715.24C518.811 715.304 518.867 715.391 518.893 715.488C518.919 715.585 518.914 715.688 518.878 715.782C518.842 715.876 518.778 715.956 518.693 716.012C518.609 716.067 518.51 716.094 518.409 716.089L510.413 715.781C510.094 715.76 509.796 715.822 509.518 715.966Z" fill="#FB5F1C"/>
<path d="M647.272 714.7L651.826 711.52C651.903 711.463 651.995 711.43 652.091 711.424C652.187 711.419 652.283 711.441 652.366 711.489L658.232 714.962C658.33 715.016 658.407 715.102 658.45 715.205C658.493 715.308 658.5 715.422 658.469 715.53C658.439 715.637 658.373 715.731 658.282 715.797C658.191 715.862 658.081 715.894 657.969 715.889L647.55 715.611C647.442 715.614 647.336 715.581 647.248 715.518C647.161 715.455 647.096 715.364 647.064 715.261C647.033 715.158 647.036 715.047 647.074 714.946C647.111 714.844 647.181 714.758 647.272 714.7Z" fill="#FB5F1C"/>
</svg>
