<svg width="1024" height="1024" viewBox="0 0 1024 1024" fill="none" xmlns="http://www.w3.org/2000/svg">
<rect width="1024" height="1024" fill="white"/>
<path d="M564.683 630.631C561.804 630.122 559.99 630.382 559.241 631.411" stroke="#242438" stroke-width="2"/>
<path d="M553.799 704.071L553.55 734.164C553.55 734.332 553.583 734.498 553.647 734.653C553.711 734.808 553.806 734.949 553.924 735.068C554.043 735.186 554.184 735.281 554.339 735.345C554.494 735.409 554.661 735.442 554.828 735.442L591.143 735.427" stroke="#545769" stroke-width="2"/>
<path d="M494.065 630.756L483.275 628.448" stroke="#45475B" stroke-width="2"/>
<path d="M564.682 630.631C561.803 630.121 559.989 630.381 559.241 631.41C557.349 631.431 555.727 631.701 554.376 632.221C553.856 632.429 553.596 632.808 553.596 633.359L553.799 704.07L553.549 734.163C553.549 734.331 553.582 734.498 553.647 734.653C553.711 734.808 553.805 734.949 553.924 735.067C554.043 735.186 554.184 735.28 554.339 735.345C554.494 735.409 554.66 735.442 554.828 735.442L591.142 735.426C614.967 735.161 634.286 750.13 639.338 773.581C639.387 773.828 639.493 774.062 639.647 774.262C639.801 774.462 640 774.624 640.227 774.734C648.865 779.038 655.59 785.389 660.403 793.788C660.527 794.002 660.705 794.179 660.922 794.302C661.138 794.425 661.384 794.49 661.635 794.49C668.392 794.459 675.044 794.448 681.593 794.459C684.826 794.459 687.149 794.885 688.563 795.737C694.722 799.386 693.646 807.104 688.345 810.643C686.993 811.548 684.997 812 682.357 812C575.301 811.927 468.249 811.917 361.203 811.969C351.629 811.969 349.088 798.778 357.289 795.519C358.526 795.02 361.39 794.755 365.881 794.724C375.444 794.651 385.007 794.453 394.571 794.131C394.852 794.121 395.126 794.04 395.366 793.895C395.606 793.751 395.804 793.547 395.943 793.305C401.119 784.22 408.749 778.185 418.832 775.202C419.3 775.057 419.575 774.745 419.658 774.267C423.214 755.088 437.418 741.398 455.989 736.876C460.022 735.889 466.529 735.385 475.51 735.364C485.458 735.343 495.276 735.286 504.964 735.192C505.446 735.184 505.906 734.987 506.245 734.643C506.583 734.299 506.773 733.835 506.773 733.353L506.679 634.279C506.68 633.845 506.525 633.425 506.241 633.095C505.958 632.766 505.565 632.55 505.135 632.486L494.065 630.755L483.275 628.448C442.766 618.11 408.37 595.018 384.311 561.089C378.053 552.254 373.49 544.53 370.621 537.919C361.063 515.809 358.677 496.849 357.866 473.242C357.445 460.909 367.534 453.799 379.119 455.592C383.859 456.33 388.302 457.572 392.45 459.318C392.583 459.375 392.728 459.4 392.872 459.392C393.017 459.384 393.158 459.343 393.284 459.272C393.41 459.201 393.519 459.103 393.601 458.984C393.684 458.865 393.738 458.729 393.76 458.586C396.514 441.226 402.647 425.54 412.159 411.528C418.396 402.36 424.898 397.838 434.502 393.831C434.686 393.754 434.851 393.639 434.987 393.492C435.122 393.346 435.224 393.172 435.287 392.983C435.349 392.793 435.369 392.593 435.347 392.395C435.325 392.197 435.26 392.006 435.157 391.835L402.055 337.091C401.936 336.897 401.768 336.739 401.568 336.633C401.367 336.527 401.142 336.477 400.915 336.488C400.689 336.5 400.47 336.572 400.281 336.697C400.091 336.822 399.94 336.996 399.841 337.2L391.842 353.572C391.624 354.029 391.265 354.278 390.766 354.32C389.082 354.486 387.419 354.512 385.777 354.398C367.315 353.151 347.763 369.148 338.376 383.821C338.045 384.338 337.545 384.725 336.961 384.918C336.376 385.111 335.742 385.098 335.164 384.881L329.13 382.62C328.84 382.51 328.521 382.515 328.241 382.636C324.873 384.039 321.334 384.85 321.006 379.673C320.933 378.634 321.505 377.225 322.721 375.448C323.015 375.023 323.157 374.518 323.127 374.013C322.462 361.778 322.28 352.88 322.581 347.319C323.693 327.06 328.075 307.533 335.725 288.739C338.106 282.876 342.082 273.822 347.653 261.577C347.755 261.36 347.772 261.113 347.7 260.882C347.628 260.652 347.472 260.455 347.264 260.33C327.352 248.417 328.927 218.449 352.705 212.649C366.847 209.187 386.696 219.915 384.404 236.832C384.387 236.962 384.399 237.094 384.44 237.218C384.482 237.342 384.551 237.456 384.643 237.549C384.735 237.642 384.847 237.713 384.97 237.757C385.094 237.8 385.226 237.814 385.356 237.799C415.126 234.4 444.606 236.079 473.795 242.835C483.431 245.07 493.01 247.544 502.531 250.257C503.108 250.423 503.612 250.776 503.965 251.259C504.318 251.742 504.5 252.327 504.48 252.924L504.247 259.457C504.215 260.101 503.878 260.434 503.233 260.455C502.994 260.455 502.771 260.423 502.563 260.361C501.825 260.122 501.523 260.387 501.658 261.156C502.168 263.994 501.544 266.587 499.787 268.937C499.496 269.332 499.106 269.508 498.618 269.467C483.337 268.251 467.464 287.133 463.691 301.618C463.469 302.471 462.928 303.206 462.179 303.671C461.43 304.135 460.531 304.294 459.668 304.113C452.039 302.491 445.459 304.544 439.928 310.272C438.556 311.686 438.26 313.073 439.04 314.435C444.944 324.695 450.838 334.819 456.721 344.809C456.813 344.968 456.944 345.101 457.101 345.196C457.258 345.291 457.437 345.345 457.62 345.353C457.803 345.36 457.986 345.322 458.15 345.24C458.315 345.159 458.456 345.037 458.561 344.887C473.499 323.182 492.646 305.314 515.941 292.668C527.365 286.462 539.397 280.782 552.037 275.626C553.638 274.971 554.09 273.848 553.393 272.258C550.441 265.491 550.857 258.454 554.641 251.146C565.041 231.063 593.824 232.919 601.963 254.264C605.269 262.965 602.946 272.601 597.878 280.257C597.58 280.704 597.466 281.251 597.562 281.782C597.658 282.314 597.956 282.79 598.393 283.11C627.722 304.253 654.993 330.479 668.199 364.907C670.117 369.912 671.879 376.009 675.06 380.359C675.285 380.67 675.445 381.024 675.53 381.398C675.614 381.773 675.622 382.16 675.552 382.537C675.482 382.913 675.335 383.271 675.122 383.588C674.909 383.906 674.633 384.176 674.312 384.382L670.351 386.908C669.922 387.187 669.619 387.624 669.509 388.124C669.28 389.122 668.87 390.021 668.277 390.822C667.965 391.258 667.56 391.372 667.061 391.165C653.324 385.239 640.928 380.889 625.601 380.967C621.267 380.983 617.79 382.589 614.032 384.413C613.476 384.684 613.046 385.16 612.834 385.739C612.622 386.317 612.643 386.955 612.894 387.516C613.112 388.015 613.803 388.322 614.967 388.436C638.527 390.837 648.615 405.276 657.862 424.953C662.976 435.836 666.396 447.214 668.121 459.084C668.141 459.223 668.192 459.356 668.271 459.472C668.351 459.588 668.456 459.684 668.58 459.753C668.703 459.823 668.841 459.863 668.983 459.871C669.126 459.88 669.268 459.856 669.4 459.802C677.726 456.294 687.83 452.536 696.25 457.79C703.313 462.219 703.313 469.781 702.986 478.372C701.598 514.546 688.033 551.266 663.241 578.038C636.968 606.416 602.774 624.893 564.682 630.631Z" fill="#01010A"/>
<path d="M483.275 628.448L494.065 630.756C490.437 630.922 486.841 630.153 483.275 628.448Z" fill="#898CAB"/>
<path d="M564.683 630.631C562.905 631.192 561.091 631.452 559.241 631.411C559.99 630.382 561.804 630.122 564.683 630.631Z" fill="#474766"/>
<path d="M553.799 704.071C554.745 714.143 554.792 724.096 553.94 733.93C553.924 734.113 553.947 734.297 554.006 734.471C554.065 734.645 554.159 734.804 554.282 734.939C554.406 735.074 554.555 735.181 554.722 735.254C554.888 735.328 555.068 735.365 555.249 735.364L591.143 735.427L554.828 735.442C554.661 735.442 554.494 735.409 554.339 735.345C554.184 735.281 554.043 735.186 553.924 735.068C553.806 734.949 553.711 734.808 553.647 734.653C553.583 734.498 553.55 734.332 553.55 734.164L553.799 704.071Z" fill="#A6ADC7"/>
<path d="M353.797 243.818L357.399 243.412" stroke="#FBB88B" stroke-width="2"/>
<path d="M357.399 243.412C360.726 239.941 360.799 235.622 357.618 230.455" stroke="#FBA936" stroke-width="2"/>
<path d="M357.617 230.455C357.274 230.518 356.931 230.58 356.588 230.642" stroke="#FBB88B" stroke-width="2"/>
<path d="M357.618 230.455L357.399 243.412" stroke="#FEEC98" stroke-width="2"/>
<path d="M449.284 280.771C446.851 278.183 443.899 275.912 440.427 273.957C428.312 267.128 415.277 260.969 402.008 258.35" stroke="#1ECDD0" stroke-width="2"/>
<path d="M402.009 258.35C400.397 257.362 397.648 256.728 393.76 256.447C388.459 256.058 383.906 257.243 379.696 257.476C377.212 257.612 374.842 257.991 372.586 258.615" stroke="#04ADB3" stroke-width="2"/>
<path d="M402.008 258.35C398.63 258.246 395.392 258.079 392.294 257.851C392.076 257.83 391.879 257.856 391.702 257.929C391.39 258.053 391.224 258.183 391.203 258.318C391.153 258.656 391.225 259.01 391.409 259.334C391.593 259.657 391.88 259.934 392.232 260.127L401.026 264.976" stroke="#1CD9D2" stroke-width="2"/>
<path d="M422.356 300.574C411.067 294.82 403.287 284.248 395.07 275.111C389.971 269.451 384.623 265.008 378.714 260.985C378.222 260.653 377.656 260.448 377.066 260.389C376.476 260.331 375.881 260.42 375.336 260.65C374.79 260.879 374.311 261.241 373.943 261.703C373.574 262.164 373.327 262.711 373.225 263.292C372.695 266.271 368.968 265.787 367.721 263.558C367.461 263.111 367.077 262.897 366.567 262.918L364.618 262.981" stroke="#1CD9D2" stroke-width="2"/>
<path d="M390.392 321.67L371.572 280.865C371.351 280.404 370.961 280.042 370.481 279.851C368.859 279.207 368.23 279.597 368.594 281.021C369.54 284.669 369.93 287.409 369.764 289.238" stroke="#94FBF7" stroke-width="2"/>
<path d="M369.764 289.238C366.427 294.113 365.918 300.485 368.236 308.354C369.837 313.832 370.954 318.448 371.588 322.2" stroke="#1C8087" stroke-width="2"/>
<path d="M347.841 350.515C347.643 340.755 348.558 331.249 350.585 321.997C352.222 314.451 354.234 307.481 355.45 299.56C356.125 295.173 356.999 290.74 358.069 286.26C358.178 285.792 358.19 285.305 358.104 284.831C358.018 284.357 357.837 283.904 357.57 283.5C357.477 283.344 357.149 283.453 356.588 283.827" stroke="#9BFCF7" stroke-width="2"/>
<path d="M383.875 323.946L369.764 289.238" stroke="#7A818F" stroke-width="2"/>
<path d="M580.649 256.853C575.42 260.169 571.777 264.66 569.719 270.325" stroke="#FED498" stroke-width="2"/>
<path d="M580.509 291.998C580.239 293.058 580.956 294.69 582.661 296.894C584.688 299.534 586.798 302.013 588.991 304.331C589.108 304.456 589.188 304.612 589.222 304.78C589.255 304.947 589.241 305.121 589.181 305.282C589.122 305.442 589.018 305.583 588.882 305.688C588.747 305.792 588.585 305.857 588.414 305.875C587.261 306 586.382 305.625 585.779 304.752C585.499 304.347 585.156 304.014 584.75 303.754C581.798 301.863 579.75 299.233 578.607 295.865C577.438 292.45 574.319 288.911 570.639 290.454C567.864 291.624 563.685 298.157 560.988 300.62C560.749 300.839 560.535 300.818 560.348 300.558C560.265 300.444 560.208 300.314 560.177 300.168C560.135 299.939 560.213 299.69 560.411 299.42C561.242 298.297 562.23 297.315 563.373 296.473C563.748 296.203 563.966 295.839 564.028 295.381C564.174 294.321 564.626 293.391 565.385 292.59C565.562 292.403 565.678 292.166 565.717 291.912C565.756 291.659 565.716 291.4 565.603 291.171L565.042 290.033" stroke="#B73253" stroke-width="2"/>
<path d="M591.735 301.54C594.968 305.21 598.373 308.692 601.948 311.987C605.971 315.698 609.027 319.534 612.286 323.603C615.872 328.11 618.008 333.52 620.971 338.619C621.231 339.066 621.366 339.549 621.376 340.069C621.387 340.578 621.449 340.937 621.563 341.145C625.264 348.057 627.655 355.406 628.736 363.192" stroke="#B73253" stroke-width="2"/>
<path d="M567.411 317.679C567.047 316.151 565.919 315.428 564.027 315.511C563.787 315.52 563.556 315.608 563.369 315.763C563.183 315.918 563.053 316.131 562.998 316.369C559.901 329.321 557.609 342.59 556.122 356.176" stroke="#FFA1AA" stroke-width="2"/>
<path d="M520.557 355.926C531.014 336.249 538.062 323.51 541.7 317.71C546.565 309.955 553.529 301.379 562.594 291.982C562.957 291.608 562.905 291.302 562.438 291.062C562.282 290.979 562.084 290.907 561.845 290.844" stroke="#FFA1AA" stroke-width="2"/>
<path d="M519.231 347.46L529.117 329.793" stroke="#B791A8" stroke-width="2"/>
<path d="M529.116 329.794L542.105 309.882" stroke="#808085" stroke-width="2"/>
<path d="M542.105 309.882L546.954 303.567C547.983 302.226 547.734 301.92 546.205 302.647C525.561 312.471 506.274 324.476 491.071 341.94C490.375 342.74 488.639 344.076 485.863 345.947" stroke="#FFA1AA" stroke-width="2"/>
<path d="M537.38 303.037C539.303 302.757 540.982 302.055 542.416 300.932" stroke="#C4C6D5" stroke-width="2"/>
<path d="M542.417 300.932C544.652 300.184 546.7 299.061 548.56 297.564" stroke="#B791A8" stroke-width="2"/>
<path d="M529.117 329.794C526.571 329.014 526.29 326.608 528.275 322.574C529.564 319.965 531.046 317.647 532.719 315.62" stroke="#38122E" stroke-width="2"/>
<path d="M542.417 300.932C541.44 301.213 540.645 301.182 540.031 300.839" stroke="#7C577E" stroke-width="2"/>
<path d="M542.105 309.882C539.257 309.539 536.128 311.452 532.719 315.62" stroke="#80222F" stroke-width="2"/>
<path d="M532.718 315.62L528.805 317.819C528.389 318.058 528.093 318.406 527.916 318.863C527.594 319.716 527.017 320.381 526.185 320.859C525.749 321.098 525.53 321.467 525.53 321.966C525.541 322.652 525.395 323.312 525.094 323.946C524.927 324.279 524.662 324.461 524.298 324.492C523.269 324.586 522.578 325.168 522.225 326.238" stroke="#B73253" stroke-width="2"/>
<path d="M452.153 386.908C453.338 388.893 454.632 389.995 456.035 390.214C456.274 390.245 456.472 390.214 456.628 390.12C456.784 390.026 456.893 389.912 456.955 389.777C457.174 389.278 457.049 388.899 456.581 388.639C453.806 387.048 451.623 380.297 449.627 377.256" stroke="#FDA153" stroke-width="2"/>
<path d="M449.628 377.256C443.422 367.979 438.994 357.439 433.162 347.678C429.592 341.722 427.315 334.705 420.454 329.482C420.007 329.149 419.571 329.159 419.145 329.513L418.303 330.215" stroke="#FDC889" stroke-width="2"/>
<path d="M449.626 377.256C451.258 381.321 451.175 383.077 449.377 382.527" stroke="#FED4B6" stroke-width="2"/>
<path d="M591.268 398.322C594.344 405.057 595.784 411.57 595.586 417.859" stroke="#D2E4EB" stroke-width="2"/>
<path d="M594.666 434.09C599.676 433.55 602.649 435.28 603.585 439.282C605.705 448.279 606.968 460.457 609.447 471.106" stroke="#D2E4EB" stroke-width="2"/>
<path d="M609.447 471.106C610.726 486.813 609.016 501.896 604.317 516.355" stroke="#B6BCCC" stroke-width="2"/>
<path d="M604.318 516.355C599.719 530.123 591.829 540.367 582.723 551.172C578.731 555.913 573.446 558.859 568.612 562.82C567.999 563.319 567.671 563.173 567.63 562.383L567.567 561.058" stroke="#D3D6E3" stroke-width="2"/>
<path d="M567.567 561.058L578.326 540.679" stroke="#80838F" stroke-width="2"/>
<path d="M578.325 540.679L580.991 534.598" stroke="#ABAFBF" stroke-width="2"/>
<path d="M580.992 534.598C582.052 533.101 582.593 531.589 582.614 530.061" stroke="#D2E4EB" stroke-width="2"/>
<path d="M582.613 530.061L583.985 525.399" stroke="#ABAFBF" stroke-width="2"/>
<path d="M583.985 525.398L584.515 522.904" stroke="#80838F" stroke-width="2"/>
<path d="M584.516 522.904C585.877 521.5 586.252 519.713 585.638 517.54" stroke="#D2E4EB" stroke-width="2"/>
<path d="M585.639 517.54C590.639 497.561 591.284 477.317 587.573 456.808C587.292 455.27 586.377 454.578 584.829 454.734L584.111 454.797C582.697 454.942 582.027 455.722 582.1 457.136C583.051 475.238 582.193 493.621 577.578 510.726" stroke="#80838F" stroke-width="2"/>
<path d="M577.578 510.726L575.785 514.827" stroke="#B6BCCC" stroke-width="2"/>
<path d="M575.785 514.827C572.994 521.719 570.249 528.954 565.993 534.723C554.527 550.253 538.769 558.023 518.717 558.033C509.85 558.044 501.326 554.774 493.146 548.226" stroke="#D2E4EB" stroke-width="2"/>
<path d="M493.146 548.226C489.227 541.5 486.368 535.398 484.57 529.92C477.444 508.278 473.375 480.555 476.462 456.683C476.49 456.457 476.468 456.228 476.397 456.012C476.326 455.795 476.208 455.597 476.051 455.432C475.895 455.266 475.704 455.138 475.492 455.055C475.28 454.972 475.052 454.937 474.825 454.953L474.248 454.984C472.689 455.088 471.743 455.904 471.41 457.432C463.365 494.479 470.927 533.631 492.818 564.769C496.758 570.372 500.682 575.954 504.59 581.515" stroke="#80838F" stroke-width="2"/>
<path d="M504.59 581.515C504.517 581.764 504.444 581.978 504.371 582.154C504.184 582.58 503.867 582.726 503.42 582.591C502.371 582.258 501.404 581.759 500.52 581.094C500.073 580.761 499.886 580.314 499.959 579.753C500.489 575.683 491.991 568.106 489.013 562.929C488.14 561.411 487.392 559.972 486.768 558.61C486.273 557.528 485.428 556.639 484.367 556.084C470.084 548.569 457.065 537.872 451.14 522.374" stroke="#D2E4EB" stroke-width="2"/>
<path d="M451.14 522.374C448.209 514.141 445.927 505.207 444.295 495.571" stroke="#DEE4E3" stroke-width="2"/>
<path d="M444.294 495.571C440.5 493.107 438.458 494.635 438.167 500.155C437.434 514.172 441.768 526.474 445.978 539.853C446.664 542.035 446.586 543.704 445.744 544.858" stroke="#D2E4EB" stroke-width="2"/>
<path d="M445.745 544.858C441.026 538.922 437.278 532.566 434.503 525.788" stroke="#D3D6E3" stroke-width="2"/>
<path d="M434.503 525.788C432.652 519.24 431.031 512.639 429.638 505.986C428.12 498.731 427.439 493.663 427.595 490.784C428.297 477.764 427.969 465.727 431.119 452.676C431.17 452.471 431.179 452.258 431.145 452.05C431.112 451.842 431.037 451.642 430.925 451.463C430.813 451.284 430.666 451.13 430.493 451.009C430.32 450.888 430.125 450.802 429.919 450.758L429.435 450.649C428.105 450.369 427.185 450.857 426.675 452.115C424.867 456.574 422.73 460.706 421.888 465.181C418.224 484.968 417.928 504.271 425.381 524.229" stroke="#D2E4EB" stroke-width="2"/>
<path d="M425.381 524.229C427.221 531.152 430.085 537.586 433.972 543.532" stroke="#D3D6E3" stroke-width="2"/>
<path d="M433.973 543.533L441.847 553.917" stroke="#8D92A5" stroke-width="2"/>
<path d="M441.847 553.917C441.951 554.52 441.847 554.66 441.535 554.338" stroke="#D3D6E3" stroke-width="2"/>
<path d="M650.424 494.557L649.364 505.456" stroke="#7E94AB" stroke-width="2"/>
<path d="M614.998 556.069C616.817 554.333 618.21 552.28 619.177 549.91C619.299 549.614 619.493 549.361 619.738 549.177C620.154 548.865 620.59 548.314 621.048 547.524C630.601 531.048 636.261 513.814 638.028 495.82" stroke="#76889F" stroke-width="2"/>
<path d="M638.028 495.82C640.258 479.558 639.915 450.868 629.109 437.287C628.132 436.06 627.384 435.411 626.864 435.338C624.837 435.068 624.068 435.925 624.556 437.911C629.546 458.196 632.773 474.771 630.185 497.161" stroke="#7E94AB" stroke-width="2"/>
<path d="M630.186 497.161C628.117 515.56 622.093 532.659 612.114 548.46C608.518 554.156 604.781 559.93 600.903 565.783" stroke="#76889F" stroke-width="2"/>
<path d="M598.924 568.683L587.635 575.122" stroke="#53687B" stroke-width="2"/>
<path d="M587.634 575.122C586.699 575.351 586.122 575.164 585.904 574.561C585.874 574.467 585.865 574.369 585.875 574.272C585.886 574.176 585.917 574.083 585.966 574L596.288 557.862" stroke="#607791" stroke-width="2"/>
<path d="M596.288 557.861C598.824 553.257 601.366 548.698 603.913 544.187C606.751 539.145 608.85 534.395 610.212 529.936C615.69 512.046 618.382 493.668 618.289 474.801C618.278 473.544 618.07 472.301 617.665 471.075C617.488 470.545 617.125 470.233 616.574 470.139C615.825 470.015 614.832 470.082 613.595 470.342" stroke="#76889F" stroke-width="2"/>
<path d="M613.596 470.342L609.448 471.106" stroke="#88A1B8" stroke-width="2"/>
<path d="M613.595 470.342C614.198 477.089 614.001 483.726 613.003 490.254C612.363 494.339 612.317 497.831 612.161 501.745C612.088 503.325 611.615 505.134 610.742 507.171C610.097 508.71 609.489 510.524 608.918 512.613C606.807 520.399 603.647 529.645 599.438 540.352" stroke="#5A6080" stroke-width="2"/>
<path d="M599.437 540.352C597.743 544.707 596.527 547.399 595.789 548.428C592.182 553.439 588.538 558.678 584.858 564.146" stroke="#444F72" stroke-width="2"/>
<path d="M584.858 564.145C588.091 556.806 591.688 549.832 595.648 543.22C597.239 540.559 598.455 537.68 599.297 534.582C600.212 531.225 601.256 527.914 602.431 524.65C602.504 524.452 602.618 524.26 602.774 524.073C603.164 523.605 603.444 523.278 603.585 522.639C604.042 520.57 604.287 518.476 604.318 516.355" stroke="#8993B0" stroke-width="2"/>
<path d="M450.376 558.361L452.294 562.274" stroke="#CCD5E3" stroke-width="2"/>
<path d="M441.847 553.917C442.356 554.54 442.897 554.977 443.468 555.227C443.582 555.274 443.707 555.29 443.83 555.274C443.953 555.257 444.07 555.209 444.17 555.133C444.638 554.79 444.705 554.385 444.373 553.917C441.909 550.486 439.451 546.994 436.998 543.439C436.706 543.007 436.32 542.648 435.869 542.389C435.418 542.129 434.913 541.976 434.394 541.942C434.248 541.932 434.108 542.462 433.973 543.532" stroke="#616989" stroke-width="2"/>
<path d="M434.502 525.788L432.397 521.158C432.179 520.679 432.013 520.191 431.899 519.692C431.618 518.517 431.004 517.493 430.059 516.62C429.97 516.542 429.862 516.49 429.745 516.469C429.629 516.449 429.509 516.461 429.399 516.505C429.289 516.548 429.194 516.622 429.123 516.716C429.052 516.811 429.009 516.924 428.998 517.041C428.957 517.592 428.728 518.029 428.312 518.351C428.021 518.58 427.756 518.548 427.517 518.257C427.32 518.008 427.044 517.831 426.691 517.727C426.088 517.54 425.771 517.764 425.74 518.398L425.381 524.229" stroke="#A5BBCF" stroke-width="2"/>
<path d="M585.639 517.54C584.651 519.328 584.277 521.116 584.516 522.904" stroke="#53687B" stroke-width="2"/>
<path d="M583.985 525.399C582.582 524.65 581.948 526.189 582.083 530.014" stroke="#2C334E" stroke-width="2"/>
<path d="M582.083 530.014C581.74 531.053 581.257 531.864 580.633 532.446" stroke="#53687B" stroke-width="2"/>
<path d="M580.634 532.446C579.022 534.879 578.253 537.623 578.326 540.679" stroke="#2C334E" stroke-width="2"/>
<path d="M567.566 561.058L565.306 564.754" stroke="#545A73" stroke-width="2"/>
<path d="M565.306 564.753C564.215 564.566 563.331 565.689 562.655 568.121" stroke="#2C334E" stroke-width="2"/>
<path d="M562.655 568.121L557.089 576.183" stroke="#545A73" stroke-width="2"/>
<path d="M557.089 576.183L550.619 583.184C549.964 583.89 550.109 584.145 551.055 583.948L561.455 581.765" stroke="#717587" stroke-width="2"/>
<path d="M561.456 581.765L568.363 580.096" stroke="#545A73" stroke-width="2"/>
<path d="M568.362 580.096C569.89 579.857 571.247 578.818 572.432 576.978" stroke="#717587" stroke-width="2"/>
<path d="M572.432 576.978C572.931 576.999 573.32 576.578 573.601 575.715" stroke="#545A73" stroke-width="2"/>
<path d="M573.602 575.715C573.955 575.943 574.293 575.881 574.615 575.528C576.689 573.329 579.355 571.973 581.211 569.571C582.084 568.438 582.973 567.82 583.877 567.716C585.114 567.57 585.478 568.064 584.968 569.197L582.006 575.73C581.94 575.874 581.91 576.031 581.918 576.188C581.926 576.346 581.971 576.499 582.051 576.635C582.13 576.771 582.241 576.886 582.375 576.97C582.508 577.054 582.66 577.105 582.817 577.118C584.594 577.274 586.2 576.609 587.635 575.122" stroke="#0E1635" stroke-width="2"/>
<path d="M539.735 585.616C541.69 583.111 542.085 582.487 540.92 583.745" stroke="#304A69" stroke-width="2"/>
<path d="M540.92 583.745L551.055 569.634" stroke="#717587" stroke-width="2"/>
<path d="M551.056 569.634C562.823 554.063 571.107 536.771 575.91 517.759" stroke="#53687B" stroke-width="2"/>
<path d="M575.909 517.758C577.073 515.981 577.63 513.637 577.578 510.726" stroke="#373F5C" stroke-width="2"/>
<path d="M551.055 569.634L551.086 567.997C551.107 567.3 550.894 567.222 550.447 567.763L539.454 581.001C538.841 581.739 538.082 581.952 537.178 581.64C535.92 581.224 534.314 581.136 532.36 581.375C526.788 582.05 521.299 581.629 515.894 580.112C515.374 579.966 514.943 579.691 514.6 579.285C508.519 572.217 502.989 564.546 498.01 556.271" stroke="#C3D6E3" stroke-width="2"/>
<path d="M580.991 534.598L580.633 532.446" stroke="#7E94AB" stroke-width="2"/>
<path d="M582.614 530.06C582.437 530.05 582.261 530.034 582.084 530.014" stroke="#7E94AB" stroke-width="2"/>
<path d="M575.91 517.758L575.785 514.827" stroke="#88A1B8" stroke-width="2"/>
<path d="M584.859 564.146L573.602 575.715" stroke="#616989" stroke-width="2"/>
<path d="M572.432 576.978C572.317 576.645 572.39 576.255 572.65 575.808C572.67 575.775 572.684 575.738 572.688 575.7C572.693 575.661 572.69 575.621 572.678 575.583C572.666 575.545 572.647 575.509 572.62 575.478C572.594 575.447 572.562 575.422 572.525 575.403C572.359 575.32 572.198 575.237 572.042 575.153C571.973 575.122 571.899 575.105 571.824 575.103C571.749 575.102 571.675 575.115 571.606 575.143C571.537 575.171 571.475 575.212 571.424 575.265C571.373 575.318 571.334 575.381 571.309 575.45C570.976 576.344 570.316 576.874 569.329 577.04C568.83 577.123 568.43 577.373 568.128 577.788C567.785 578.256 567.286 578.454 566.631 578.381C563.996 578.085 560.036 580.252 558.321 579.176C557.874 578.896 557.837 578.563 558.211 578.178C559.947 576.422 561.221 574.363 562.032 572.004C562.084 571.837 562.047 571.723 561.922 571.661H561.907C561.741 571.578 561.605 571.619 561.501 571.785C560.431 573.646 558.96 575.112 557.089 576.183" stroke="#C4C8DB" stroke-width="2"/>
<path d="M562.655 568.121C563.871 567.55 564.755 566.427 565.306 564.753" stroke="#7F86A3" stroke-width="2"/>
<path d="M493.146 548.226C494.351 552.228 495.973 554.91 498.01 556.272" stroke="#53687B" stroke-width="2"/>
<path d="M498.01 556.271C502.199 565.814 507.848 574.577 514.959 582.56" stroke="#717587" stroke-width="2"/>
<path d="M498.275 583.152L504.544 583.464C505.219 583.495 505.411 583.204 505.12 582.591L504.59 581.515" stroke="#53687B" stroke-width="2"/>
<path d="M444.295 495.571C444.222 498.294 444.513 500.607 445.168 502.509C445.334 502.998 445.355 503.487 445.231 503.975C445.002 504.921 445.121 505.701 445.589 506.314C445.859 506.667 446.031 507.062 446.104 507.499C446.743 511.397 447.273 515.622 449.409 519.037C450.023 520.035 450.6 521.147 451.14 522.374" stroke="#B1C9CF" stroke-width="2"/>
<path d="M491.118 580.252L493.94 579.847C495.396 579.649 495.416 579.358 494.003 578.973C481.3 575.522 469.341 570.377 458.125 563.537C455.053 561.666 453.666 559.047 451.872 556.084C451.813 555.986 451.73 555.904 451.63 555.846C451.531 555.788 451.419 555.757 451.304 555.753C451.189 555.75 451.075 555.776 450.973 555.828C450.871 555.881 450.783 555.958 450.719 556.053C450.438 556.458 450.323 557.228 450.375 558.361" stroke="#CBE3EB" stroke-width="2"/>
<path d="M450.376 558.361C447.361 554.348 445.818 549.847 445.745 544.858" stroke="#A5BBCF" stroke-width="2"/>
<path d="M638.029 495.82L637.779 492.031C637.737 491.335 637.472 491.236 636.984 491.735C635.601 493.169 634.494 494.77 633.663 496.537C633.496 496.912 633.231 497 632.867 496.802C632.088 496.387 631.194 496.506 630.186 497.161" stroke="#4F5372" stroke-width="2"/>
<path d="M596.288 557.862C596.371 555.741 597.156 553.537 598.643 551.251C599.245 551.084 599.422 550.684 599.173 550.05C599.144 549.981 599.13 549.907 599.133 549.831C599.135 549.756 599.154 549.682 599.188 549.613C599.355 549.302 599.547 549.063 599.765 548.896C600.056 548.667 600.295 548.397 600.482 548.085C602.676 544.239 603.819 540.092 603.913 535.643C603.923 534.853 603.689 534.775 603.211 535.409L599.438 540.352" stroke="#313659" stroke-width="2"/>
<path d="M568.363 580.096C565.785 579.566 563.483 580.122 561.456 581.765" stroke="#C4C8DB" stroke-width="2"/>
<path d="M540.921 583.745C533.436 584.712 524.845 584.348 515.146 582.653" stroke="#A0B9D1" stroke-width="2"/>
<path d="M670.351 530.373C669.312 531.859 668.641 531.812 668.34 530.232C668.309 530.089 668.315 529.939 668.355 529.796L674.296 510.243" stroke="#727994" stroke-width="2"/>
<path d="M658.127 553.028L659.795 547.119C659.951 546.568 660.3 546.199 660.84 546.012C661.599 545.762 661.957 545.216 661.916 544.374C661.895 543.917 661.718 543.527 661.386 543.205C659.265 541.095 657.618 541.318 656.443 543.875C654.884 547.327 652.966 549.681 650.689 550.939" stroke="#0F1A42" stroke-width="2"/>
<path d="M582.957 606.214C584.173 604.561 585.395 602.981 586.621 601.474C587.65 600.226 587.806 598.948 588.258 597.451C588.383 597.025 588.232 596.744 587.806 596.609C587.65 596.567 587.468 596.572 587.261 596.624" stroke="#313659" stroke-width="2"/>
<path d="M558.509 602.44L565.073 601.489" stroke="#A3A3B3" stroke-width="2"/>
<path d="M586.792 595.969C586.75 596.302 586.906 596.52 587.259 596.624" stroke="#8D92A5" stroke-width="2"/>
<path d="M587.26 596.624C587.26 597.362 586.886 597.851 586.137 598.09C578.419 600.491 570.451 603.531 562.827 604.888C541.559 608.661 520.244 608.651 498.883 604.857" stroke="#A3A3B3" stroke-width="2"/>
<path d="M498.884 604.857C473.936 600.179 451.561 590.605 431.759 576.136" stroke="#C4C6D5" stroke-width="2"/>
<path d="M405.594 543.47L403.895 542.846C402.855 542.472 402.596 542.774 403.115 543.751C409.706 556.193 419.253 566.988 431.758 576.136" stroke="#F0F1F7" stroke-width="2"/>
<path d="M431.759 576.136C430.46 575.71 429.462 575.517 428.766 575.559C428.604 575.566 428.448 575.622 428.319 575.718C428.189 575.814 428.091 575.947 428.037 576.1C427.983 576.252 427.977 576.418 428.018 576.574C428.058 576.73 428.145 576.871 428.267 576.978C430.169 578.714 432.206 580.294 434.379 581.718C435.2 582.248 435.818 582.804 436.234 583.386C437.347 584.945 437.398 585.85 436.39 586.099" stroke="#B5B8CD" stroke-width="2"/>
<path d="M390.751 523.387C391.011 523.429 391.291 523.632 391.593 523.995C391.925 524.401 392.216 524.38 392.466 523.933C392.767 523.413 392.814 522.878 392.606 522.327C389.301 513.58 386.089 504.895 385.933 496.132C385.891 494.074 385.434 492.083 384.56 490.16C384.353 489.703 384.275 489.219 384.327 488.71C384.805 484.635 383.947 481.777 381.754 480.134" stroke="#C4C8DB" stroke-width="2"/>
<path d="M498.883 604.857L492.381 604.935C492.038 604.945 491.918 605.112 492.022 605.434C492.074 605.611 492.158 605.761 492.272 605.886C492.343 605.966 492.39 606.065 492.408 606.171C492.425 606.276 492.411 606.385 492.369 606.484C492.326 606.582 492.256 606.666 492.167 606.726C492.078 606.786 491.974 606.819 491.866 606.821L484.897 607.087C484.398 607.097 483.93 606.983 483.493 606.744C482.87 606.38 482.21 606.255 481.513 606.369C481.014 606.452 480.531 606.39 480.063 606.182C478.265 605.382 476.347 605.112 474.31 605.371" stroke="#686A89" stroke-width="2"/>
<path d="M380.601 477.702C381.567 478.076 381.952 478.887 381.754 480.134" stroke="#F0F1F7" stroke-width="2"/>
<path d="M381.754 480.134C381.567 495.425 384.566 509.843 390.751 523.387" stroke="#D3D6E3" stroke-width="2"/>
<path d="M390.751 523.387C393.729 529.889 396.084 536.781 399.451 542.8C401.291 546.084 403.162 549.348 405.065 552.592C405.922 554.042 407.466 554.665 408.136 555.71C409.955 558.548 412.014 561.256 414.311 563.834C414.644 564.197 414.072 564.395 412.596 564.426" stroke="#F0F1F7" stroke-width="2"/>
<path d="M527.635 635.044C527.542 642.122 527.635 655.236 527.916 674.383C528.072 685.017 527.963 704.637 527.588 733.244C527.588 733.576 527.365 734.195 526.918 735.099" stroke="#A3A3B3" stroke-width="2"/>
<path d="M534.745 635.589C533.529 666.119 533.072 687.106 533.373 698.551C533.675 710.11 533.924 721.523 534.122 732.791C534.13 733.289 533.967 733.774 533.659 734.163C533.352 734.553 532.921 734.823 532.438 734.928C530.66 735.323 528.82 735.38 526.918 735.099" stroke="#252B50" stroke-width="2"/>
<path d="M601.355 774.298C600.732 770.182 597.13 766.585 590.55 763.508" stroke="#EA6831" stroke-width="2"/>
<path d="M590.55 763.508C587.234 761.118 583.523 759.091 579.417 757.427C574.802 755.556 570.124 755.619 565.104 755.167" stroke="#ED873B" stroke-width="2"/>
<path d="M590.55 763.508C591.028 764.038 591.127 764.47 590.846 764.802C590.68 765 590.352 765.109 589.864 765.13C582.92 765.4 575.945 765.639 568.939 765.847C565.841 765.941 563.57 766.876 562.125 768.654" stroke="#FB9533" stroke-width="2"/>
<path d="M562.125 768.654C562.042 761.918 558.098 757.63 550.291 755.79" stroke="#FEBD42" stroke-width="2"/>
<path d="M550.291 755.79C548.555 755.728 546.861 756.793 545.208 758.986C545.011 759.257 544.548 759.251 543.82 758.971" stroke="#FEC940" stroke-width="2"/>
<path d="M576.672 774.984L554.22 775.249" stroke="#7D3B15" stroke-width="2"/>
<path d="M554.22 775.249C556.891 774.896 558.819 773.181 560.004 770.104" stroke="#FB8F2D" stroke-width="2"/>
<path d="M541.777 755.119C543.586 755.026 544.267 756.31 543.82 758.971" stroke="#FFDA9E" stroke-width="2"/>
<path d="M543.82 758.971C543.955 758.908 544.07 759.179 544.163 759.782" stroke="#FFEEA1" stroke-width="2"/>
<path d="M544.163 759.782C519.746 759.865 495.401 759.974 471.129 760.109C462.631 760.171 454.757 761.045 449.394 767.968" stroke="#FFE3A4" stroke-width="2"/>
<path d="M449.394 767.968C447.502 769.277 446.301 771.585 445.792 774.891" stroke="#FED498" stroke-width="2"/>
<path d="M445.792 774.891L442.798 775.343" stroke="#808080" stroke-width="2"/>
<path d="M562.125 768.654L560.005 770.104" stroke="#FB9E39" stroke-width="2"/>
<path d="M560.005 770.104C552.573 769.449 545.166 769.106 537.786 769.075C510.978 768.94 483.66 769.158 455.833 769.73C455.751 769.731 455.671 769.713 455.597 769.677C455.524 769.641 455.46 769.588 455.412 769.522C455.363 769.457 455.33 769.381 455.317 769.3C455.303 769.22 455.309 769.137 455.334 769.059L455.818 767.562C455.994 766.991 455.792 766.757 455.209 766.861L449.394 767.968" stroke="#FEB83C" stroke-width="2"/>
<path d="M550.291 755.79C551.31 756.382 551.965 756.975 552.256 757.567C552.484 758.025 552.344 758.3 551.835 758.394L544.163 759.782" stroke="#FED246" stroke-width="2"/>
<path d="M582.644 789.688L459.543 789.454" stroke="#717278" stroke-width="2"/>
<path d="M554.221 775.249L445.792 774.891" stroke="#7F5519" stroke-width="2"/>
<path d="M589.724 790.655L588.944 790.717C588.435 790.769 588.128 791.044 588.024 791.543C587.889 792.177 587.483 792.557 586.808 792.682" stroke="#C4C8DB" stroke-width="2"/>
<path d="M465.297 794.038L464.19 793.975" stroke="#727994" stroke-width="2"/>
<path d="M464.19 793.975C453.494 793.632 442.813 793.456 432.148 793.445C429.362 793.445 426.67 793.731 424.071 794.303" stroke="#9CA1B7" stroke-width="2"/>
<path d="M424.072 794.303C423.739 794.521 423.334 794.677 422.855 794.771" stroke="#727994" stroke-width="2"/>
<path d="M464.19 793.976C457.247 793.726 449.554 794.074 441.114 795.02C435.802 795.623 430.121 795.384 424.071 794.303" stroke="#2D375C" stroke-width="2"/>
<path d="M590.799 791.013C592.556 791.294 593.356 791.772 593.2 792.447" stroke="#7F86A3" stroke-width="2"/>
<path d="M592.281 792.822L593.201 792.448" stroke="#555E80" stroke-width="2"/>
<path d="M593.201 792.447C593.555 792.666 593.897 792.733 594.23 792.65C594.604 792.567 594.812 792.349 594.854 791.995C594.895 791.683 594.817 791.32 594.62 790.904" stroke="#2D375C" stroke-width="2"/>
<path d="M353.797 243.818L357.399 243.412C360.725 239.94 360.798 235.621 357.617 230.455C357.274 230.517 356.931 230.58 356.588 230.642C360.351 229.104 363.734 229.759 366.738 232.607C373.864 239.389 361.468 253.703 353.797 243.818Z" fill="#F87529"/>
<path d="M356.589 230.642C356.932 230.58 357.275 230.517 357.618 230.455L357.399 243.412L353.798 243.817C349.229 239.608 350.508 232.622 356.589 230.642Z" fill="#FEFBEC"/>
<path d="M357.618 230.455C360.799 235.621 360.726 239.94 357.399 243.412L357.618 230.455Z" fill="#FEDD43"/>
<path d="M449.284 280.772C446.852 278.183 443.9 275.912 440.428 273.958C428.313 267.128 415.278 260.969 402.009 258.35C400.397 257.362 397.648 256.728 393.76 256.448C388.459 256.058 383.906 257.243 379.696 257.477C377.212 257.612 374.842 257.991 372.586 258.615C376.811 254.795 392.014 254.187 398.235 254.062C418.141 253.677 437.876 255.356 457.439 259.098C462.117 259.992 466.566 260.777 470.786 261.453C470.933 261.477 471.069 261.548 471.173 261.655C471.277 261.762 471.345 261.899 471.366 262.047C471.387 262.195 471.36 262.345 471.289 262.477C471.219 262.608 471.108 262.714 470.973 262.778C463.759 266.115 457.751 271.177 452.948 277.965C452.075 279.181 450.516 280.008 449.284 280.772Z" fill="#05A1B1"/>
<path d="M580.649 256.853C575.421 260.169 571.777 264.659 569.719 270.325C563.513 262.404 571.497 252.44 580.649 256.853Z" fill="white"/>
<path d="M402.009 258.35C398.631 258.246 395.393 258.079 392.295 257.851C392.077 257.83 391.88 257.856 391.703 257.929C391.391 258.053 391.225 258.183 391.204 258.318C391.154 258.656 391.226 259.01 391.41 259.334C391.594 259.657 391.881 259.934 392.233 260.127L401.027 264.976C399.229 265.974 398.844 266.873 399.873 267.674C410.424 275.844 421.115 284.119 431.947 292.497C432.924 293.256 432.887 293.968 431.837 294.633L422.357 300.574C411.068 294.82 403.288 284.248 395.071 275.111C389.972 269.451 384.624 265.008 378.715 260.985C378.223 260.652 377.657 260.448 377.067 260.389C376.477 260.331 375.882 260.42 375.337 260.65C374.791 260.879 374.312 261.241 373.943 261.703C373.575 262.164 373.328 262.711 373.226 263.292C372.696 266.27 368.969 265.787 367.722 263.558C367.462 263.111 367.078 262.897 366.568 262.918L364.619 262.981C365.991 261.577 367.343 260.902 368.673 260.954C369.182 260.964 369.645 260.818 370.061 260.517L372.587 258.615C374.842 257.991 377.212 257.612 379.697 257.476C383.907 257.243 388.46 256.058 393.761 256.447C397.649 256.728 400.398 257.362 402.009 258.35Z" fill="#02B8B5"/>
<path d="M580.649 256.853C583.165 257.913 584.864 259.753 585.748 262.373C587.712 268.22 584.064 274.769 577.546 274.925C574.282 275.008 571.673 273.474 569.719 270.325C571.777 264.66 575.42 260.169 580.649 256.853Z" fill="#FDA930"/>
<path d="M402.008 258.35C415.277 260.969 428.313 267.128 440.428 273.958C443.9 275.912 446.852 278.183 449.284 280.771C449.315 285.449 444.092 286.135 440.88 284.389C426.857 276.821 416.244 271.198 409.041 267.518C406.681 266.312 404.009 265.465 401.026 264.976L392.232 260.127C391.88 259.934 391.593 259.657 391.409 259.334C391.225 259.01 391.153 258.656 391.203 258.318C391.224 258.183 391.39 258.053 391.702 257.929C391.879 257.856 392.076 257.83 392.294 257.851C395.392 258.079 398.63 258.246 402.008 258.35Z" fill="#36F9EF"/>
<path d="M422.356 300.574C410.584 306.998 400.886 311.301 390.392 321.67L371.572 280.865C371.351 280.404 370.961 280.042 370.481 279.851C368.859 279.207 368.23 279.597 368.594 281.021C369.54 284.669 369.93 287.409 369.763 289.238C366.427 294.113 365.917 300.485 368.235 308.354C369.836 313.832 370.954 318.448 371.588 322.2L375.33 335.048C375.379 335.212 375.394 335.384 375.374 335.554C375.353 335.724 375.298 335.888 375.212 336.035C375.126 336.183 375.01 336.311 374.872 336.413C374.734 336.514 374.577 336.585 374.41 336.623C364.68 338.795 355.824 343.426 347.841 350.516C347.643 340.755 348.558 331.249 350.585 321.997C352.222 314.451 354.234 307.481 355.45 299.56C356.125 295.173 356.999 290.74 358.069 286.26C358.178 285.792 358.19 285.306 358.104 284.831C358.018 284.357 357.837 283.904 357.57 283.5C357.477 283.344 357.149 283.453 356.588 283.828L364.618 262.981L366.567 262.918C367.076 262.897 367.461 263.111 367.721 263.558C368.968 265.787 372.695 266.271 373.225 263.292C373.327 262.711 373.574 262.164 373.942 261.703C374.311 261.241 374.79 260.879 375.335 260.65C375.881 260.42 376.476 260.331 377.066 260.389C377.656 260.448 378.222 260.653 378.713 260.985C384.623 265.008 389.971 269.451 395.07 275.111C403.287 284.248 411.067 294.82 422.356 300.574Z" fill="#36F9EF"/>
<path d="M390.392 321.67L387.305 325.989C387.189 326.152 387.035 326.285 386.856 326.376C386.678 326.467 386.48 326.514 386.28 326.512C386.079 326.511 385.882 326.461 385.705 326.367C385.528 326.273 385.376 326.138 385.262 325.973L383.875 323.946L369.764 289.238C369.93 287.408 369.54 284.669 368.594 281.021C368.23 279.597 368.859 279.207 370.481 279.851C370.961 280.042 371.351 280.404 371.572 280.865L390.392 321.67Z" fill="#F2FCFF"/>
<path d="M347.841 350.515L344.489 353.852C344.354 353.986 344.184 354.078 343.998 354.119C343.813 354.159 343.62 354.145 343.443 354.079C343.267 354.013 343.114 353.898 343.003 353.747C342.893 353.596 342.829 353.416 342.82 353.229C341.495 329.918 348.091 305.392 356.588 283.827C357.15 283.453 357.477 283.344 357.571 283.5C357.837 283.904 358.018 284.357 358.104 284.831C358.19 285.305 358.178 285.792 358.07 286.26C356.999 290.74 356.126 295.173 355.45 299.56C354.234 307.481 352.223 314.451 350.585 321.997C348.558 331.249 347.644 340.755 347.841 350.515Z" fill="white"/>
<path d="M580.509 291.998C580.239 293.058 580.956 294.69 582.661 296.894C584.688 299.534 586.798 302.013 588.991 304.331C589.108 304.456 589.188 304.612 589.222 304.78C589.255 304.948 589.241 305.122 589.181 305.282C589.122 305.442 589.018 305.583 588.882 305.688C588.747 305.793 588.585 305.857 588.414 305.875C587.261 306 586.382 305.626 585.779 304.752C585.499 304.347 585.156 304.014 584.75 303.754C581.798 301.863 579.75 299.233 578.607 295.865C577.438 292.45 574.319 288.911 570.639 290.454C567.864 291.624 563.685 298.157 560.988 300.62C560.749 300.839 560.535 300.818 560.348 300.558C560.265 300.444 560.208 300.314 560.177 300.168C560.135 299.94 560.213 299.69 560.411 299.42C561.242 298.297 562.23 297.315 563.373 296.473C563.748 296.203 563.966 295.839 564.028 295.381C564.174 294.321 564.626 293.391 565.385 292.59C565.562 292.403 565.678 292.166 565.717 291.912C565.756 291.659 565.716 291.4 565.603 291.171L565.042 290.033C570.925 288.661 576.081 289.316 580.509 291.998Z" fill="#6E2251"/>
<path d="M369.764 289.238L383.875 323.946C378.813 318.552 374.717 317.969 371.588 322.2C370.954 318.448 369.837 313.832 368.236 308.354C365.918 300.485 366.427 294.113 369.764 289.238Z" fill="#01061E"/>
<path d="M565.041 290.033L565.603 291.171C565.716 291.4 565.756 291.659 565.717 291.912C565.678 292.166 565.562 292.403 565.384 292.59C564.626 293.391 564.173 294.321 564.028 295.381C563.966 295.839 563.747 296.203 563.373 296.473C562.23 297.315 561.242 298.297 560.411 299.42C560.213 299.69 560.135 299.939 560.177 300.168C560.208 300.314 560.265 300.444 560.348 300.558C560.535 300.818 560.748 300.839 560.987 300.62C563.685 298.157 567.864 291.624 570.639 290.454C574.319 288.911 577.437 292.45 578.607 295.865C579.75 299.233 581.798 301.863 584.75 303.754C585.155 304.014 585.499 304.347 585.779 304.752C586.382 305.625 587.26 306 588.414 305.875C588.585 305.857 588.747 305.792 588.882 305.688C589.018 305.583 589.121 305.442 589.181 305.282C589.241 305.121 589.255 304.947 589.222 304.78C589.188 304.612 589.108 304.456 588.991 304.331C586.798 302.013 584.688 299.534 582.661 296.894C580.956 294.69 580.239 293.058 580.509 291.998C584.885 294.493 588.627 297.673 591.735 301.54C594.968 305.21 598.373 308.692 601.948 311.987C605.971 315.698 609.027 319.534 612.286 323.603C615.872 328.11 618.008 333.52 620.971 338.619C621.231 339.066 621.366 339.549 621.376 340.069C621.387 340.578 621.449 340.937 621.563 341.145C625.264 348.057 627.655 355.406 628.736 363.192C625.976 363.613 618.679 364.829 617.65 360.074C614.854 347.059 610.259 334.736 603.866 323.104C601.169 318.208 599.126 314.123 595.29 312.252C593.305 311.296 592.697 311.852 593.466 313.921C599.298 329.575 604.038 345.963 606.751 362.475C606.948 363.691 606.761 364.653 606.189 365.359C605.957 365.649 605.627 365.843 605.26 365.906C604.893 365.969 604.514 365.897 604.194 365.703C592.827 358.795 582.77 357.641 569.844 358.031C569.687 358.035 569.531 358.008 569.385 357.95C569.24 357.892 569.107 357.805 568.996 357.694C568.886 357.583 568.798 357.45 568.74 357.305C568.682 357.159 568.655 357.003 568.659 356.846L569.454 318.505C569.457 318.336 569.42 318.168 569.346 318.016C569.271 317.865 569.161 317.733 569.026 317.632C568.89 317.532 568.732 317.465 568.565 317.438C568.398 317.41 568.227 317.423 568.066 317.476L567.411 317.678C567.048 316.15 565.92 315.428 564.028 315.511C563.787 315.519 563.556 315.608 563.37 315.763C563.184 315.918 563.054 316.131 562.999 316.369C559.901 329.321 557.609 342.59 556.123 356.176C547.516 353.868 538.857 352.948 530.146 353.416C526.653 353.603 523.987 354.835 520.557 355.926C531.014 336.249 538.062 323.51 541.7 317.709C546.565 309.955 553.529 301.379 562.594 291.982C562.957 291.608 562.905 291.301 562.438 291.062C562.282 290.979 562.084 290.906 561.845 290.844L565.041 290.033Z" fill="#FF4254"/>
<path d="M561.845 290.844C562.084 290.907 562.281 290.979 562.437 291.062C562.905 291.302 562.957 291.608 562.593 291.982C553.529 301.379 546.564 309.955 541.7 317.71C538.061 323.51 531.014 336.249 520.556 355.926C520.037 356.29 518.769 356.384 516.752 356.207C516.597 356.194 516.447 356.143 516.315 356.06C516.183 355.976 516.073 355.862 515.994 355.727C515.915 355.591 515.869 355.438 515.86 355.28C515.85 355.123 515.878 354.964 515.941 354.819L519.231 347.46L529.116 329.794L542.105 309.882L546.954 303.567C547.983 302.227 547.734 301.92 546.206 302.648C525.562 312.471 506.274 324.477 491.071 341.94C490.375 342.74 488.639 344.076 485.864 345.947L482.761 346.134C482.608 346.14 482.456 346.101 482.324 346.024C482.192 345.947 482.085 345.834 482.016 345.699C481.946 345.564 481.918 345.412 481.934 345.263C481.95 345.113 482.01 344.972 482.106 344.856C497.199 326.53 515.624 312.59 537.38 303.037C539.304 302.757 540.982 302.055 542.417 300.932C544.652 300.184 546.7 299.061 548.56 297.565L561.845 290.844Z" fill="white"/>
<path d="M548.56 297.564C546.7 299.061 544.652 300.183 542.417 300.932C541.44 301.213 540.645 301.181 540.031 300.838C541.923 298.78 544.766 297.689 548.56 297.564Z" fill="#6E2251"/>
<path d="M540.031 300.839C540.645 301.182 541.44 301.213 542.417 300.932C540.983 302.055 539.304 302.757 537.381 303.037C537.391 302.445 538.275 301.712 540.031 300.839Z" fill="#898CAB"/>
<path d="M591.735 301.54C596.122 304.742 600.238 308.203 604.084 311.925C605.503 313.312 606.548 315.012 607.905 316.291C610.69 318.889 613.544 321.42 616.465 323.884C616.88 324.248 617.109 324.705 617.151 325.256C617.213 325.994 617.551 326.389 618.164 326.441C618.559 326.472 618.902 326.623 619.193 326.893C625.087 332.267 628.803 336.036 630.342 338.198C636.371 346.701 642.145 355.464 647.665 364.486C647.744 364.613 647.786 364.76 647.784 364.909C647.783 365.059 647.738 365.204 647.656 365.329C647.574 365.454 647.458 365.553 647.321 365.614C647.184 365.674 647.033 365.694 646.885 365.671L628.736 363.192C627.655 355.406 625.264 348.057 621.563 341.145C621.449 340.937 621.387 340.578 621.376 340.069C621.366 339.549 621.231 339.066 620.971 338.619C618.008 333.52 615.872 328.11 612.286 323.603C609.027 319.534 605.971 315.698 601.948 311.987C598.373 308.692 594.968 305.21 591.735 301.54Z" fill="#6E2251"/>
<path d="M542.105 309.882C539.257 309.539 536.128 311.452 532.718 315.62L528.804 317.819C528.389 318.058 528.092 318.406 527.916 318.863C527.594 319.716 527.017 320.381 526.185 320.859C525.748 321.098 525.53 321.467 525.53 321.966C525.541 322.652 525.395 323.312 525.093 323.946C524.927 324.279 524.662 324.461 524.298 324.492C523.269 324.586 522.578 325.168 522.225 326.238C515.785 333.099 511.06 337.325 507.677 346.851C506.336 350.64 503.296 350.562 499.959 349.034C495.645 347.049 490.946 346.02 485.863 345.947C488.639 344.076 490.375 342.74 491.071 341.94C506.274 324.476 525.561 312.471 546.205 302.647C547.734 301.92 547.983 302.226 546.954 303.567L542.105 309.882Z" fill="#FF4254"/>
<path d="M542.106 309.882L529.117 329.794C526.571 329.014 526.29 326.607 528.275 322.574C529.564 319.965 531.046 317.647 532.719 315.62C536.129 311.452 539.258 309.539 542.106 309.882Z" fill="#01010A"/>
<path d="M532.718 315.62C531.044 317.647 529.563 319.965 528.274 322.574C526.289 326.608 526.569 329.014 529.116 329.794L519.231 347.46C519.137 343.863 520.333 339.404 522.817 334.081C523.295 333.042 523.633 330.636 523.831 326.862C523.862 326.29 523.591 325.999 523.02 325.989C522.749 325.979 522.484 326.062 522.224 326.238C522.578 325.168 523.269 324.586 524.298 324.492C524.662 324.461 524.927 324.279 525.093 323.946C525.395 323.312 525.54 322.652 525.53 321.966C525.53 321.467 525.748 321.098 526.185 320.859C527.017 320.381 527.593 319.716 527.916 318.863C528.092 318.406 528.389 318.058 528.804 317.819L532.718 315.62Z" fill="#6E2251"/>
<path d="M567.412 317.678L559.46 356.939C559.345 357.48 559.018 357.719 558.477 357.657C557.448 357.563 556.664 357.069 556.123 356.175C557.61 342.589 559.902 329.32 562.999 316.368C563.054 316.131 563.184 315.918 563.37 315.763C563.557 315.608 563.788 315.519 564.028 315.511C565.92 315.428 567.048 316.15 567.412 317.678Z" fill="white"/>
<path d="M452.153 386.908C453.338 388.893 454.633 389.995 456.036 390.213C456.275 390.245 456.472 390.213 456.628 390.12C456.784 390.026 456.894 389.912 456.956 389.777C457.174 389.278 457.05 388.898 456.582 388.639C453.806 387.048 451.623 380.297 449.627 377.256C443.422 367.979 438.994 357.438 433.162 347.678C429.592 341.721 427.315 334.705 420.454 329.482C420.007 329.149 419.571 329.159 419.145 329.513L418.303 330.214L416.541 326.706C416.425 326.473 416.359 326.219 416.346 325.959C416.333 325.7 416.374 325.44 416.467 325.197C416.559 324.954 416.7 324.733 416.882 324.547C417.064 324.361 417.282 324.215 417.523 324.118L422.076 322.293C422.752 322.034 423.271 322.21 423.635 322.824L462.787 388.483C462.924 388.709 462.998 388.966 463.004 389.23C463.01 389.494 462.946 389.754 462.82 389.986C462.694 390.218 462.51 390.412 462.285 390.551C462.061 390.689 461.804 390.766 461.54 390.775C457.798 390.899 453.073 392.194 452.153 386.908Z" fill="#FB9426"/>
<path d="M449.628 377.256C451.26 381.321 451.177 383.078 449.378 382.527L418.303 330.215L419.145 329.513C419.571 329.159 420.007 329.149 420.454 329.482C427.315 334.705 429.592 341.722 433.162 347.678C438.994 357.439 443.422 367.979 449.628 377.256Z" fill="#FEFBEC"/>
<path d="M478.769 383.368L470.256 369.491C469.983 369.048 469.808 368.55 469.744 368.033C469.68 367.516 469.728 366.991 469.885 366.494C470.042 365.997 470.304 365.54 470.653 365.153C471.002 364.766 471.43 364.459 471.909 364.252C481.623 360.027 498.259 364.533 505.338 369.445C506.513 370.255 506.388 370.76 504.964 370.957C495.63 372.246 488.005 376.461 482.09 383.602C481.883 383.854 481.619 384.052 481.32 384.181C481.02 384.31 480.694 384.365 480.369 384.342C480.044 384.319 479.729 384.219 479.451 384.05C479.173 383.88 478.939 383.647 478.769 383.368Z" fill="white"/>
<path d="M525.313 372.594C524.803 372.48 524.57 372.163 524.611 371.643L524.642 371.222C524.653 371.129 524.705 371.082 524.798 371.082L541.061 371.893C541.601 371.924 541.945 372.199 542.09 372.719C542.579 374.549 542.553 376.357 542.012 378.145C541.814 378.821 541.409 378.987 540.796 378.644C535.931 375.869 530.77 373.852 525.313 372.594Z" fill="white"/>
<path d="M562.75 376.898C563.373 381.17 561.565 385.848 558.727 389.216C558.579 389.389 558.397 389.53 558.193 389.631C557.989 389.731 557.767 389.789 557.541 389.801C557.314 389.813 557.088 389.778 556.876 389.699C556.665 389.619 556.472 389.498 556.31 389.34C553.379 386.471 555.905 380.796 555.702 377.225C555.64 376.071 556.191 375.479 557.355 375.448L560.941 375.37C561.991 375.349 562.594 375.858 562.75 376.898Z" fill="#FB9426"/>
<path d="M578.544 376.882C586.543 375.401 595.352 376.757 600.529 383.992C600.997 384.647 600.914 384.725 600.28 384.226C593.845 379.174 586.631 377.646 578.637 379.642C577.899 379.829 577.525 379.543 577.515 378.784V378.114C577.504 377.417 577.848 377.007 578.544 376.882Z" fill="#BDBFD0"/>
<path d="M449.627 377.256C451.623 380.297 453.806 387.048 456.582 388.639C457.049 388.899 457.174 389.278 456.956 389.777C456.893 389.912 456.784 390.026 456.628 390.12C456.472 390.214 456.275 390.245 456.036 390.214C454.632 389.995 453.338 388.893 452.153 386.908L449.378 382.527C451.176 383.077 451.259 381.321 449.627 377.256Z" fill="#FEAD7F"/>
<path d="M591.268 398.321C594.344 405.057 595.784 411.57 595.586 417.858C558.976 419.34 522.178 418.669 485.552 418.389C468.837 418.264 454.399 417.141 438.931 414.802C437.455 414.584 436.488 414.116 436.031 413.399C435.47 412.536 435.677 411.954 436.655 411.653C449.113 407.723 458.593 408.129 471.534 408.986C472.156 409.027 472.783 408.887 473.343 408.581C478.811 405.556 483.941 402.235 488.733 398.618C499.148 390.743 504.621 387.064 516.721 388.327C529.522 389.668 534.621 397.074 541.902 405.587C542.464 406.242 543.571 406.767 545.224 407.162C548.176 407.848 550.988 408.43 553.659 408.908C554.816 409.109 556.006 408.888 557.011 408.285C567.676 401.783 578.014 394.766 591.268 398.321Z" fill="white"/>
<path d="M591.268 398.322C596.522 399.631 598.923 402.89 601.87 406.461C602.262 406.934 602.758 407.309 603.318 407.555C603.879 407.802 604.488 407.913 605.098 407.88C610.545 407.557 615.96 407.744 621.345 408.441C623.949 408.784 625.82 410.125 627.8 411.653C627.898 411.728 627.972 411.828 628.015 411.943C628.058 412.058 628.068 412.183 628.044 412.303C628.019 412.423 627.962 412.534 627.877 412.623C627.793 412.712 627.685 412.776 627.566 412.807C616.485 415.728 605.825 417.412 595.586 417.859C595.784 411.57 594.344 405.057 591.268 398.322Z" fill="#A4C9D7"/>
<path d="M594.666 434.09C599.677 433.55 602.65 435.281 603.585 439.283C605.706 448.279 606.969 460.457 609.448 471.106C610.726 486.813 609.017 501.896 604.318 516.355C599.718 530.123 591.829 540.367 582.723 551.173C578.731 555.913 573.445 558.86 568.612 562.82C567.998 563.319 567.671 563.174 567.629 562.384L567.567 561.058L578.326 540.679L580.992 534.598C582.052 533.101 582.593 531.589 582.614 530.061L583.986 525.399L584.516 522.904C585.878 521.501 586.252 519.713 585.638 517.54C590.638 497.561 591.283 477.317 587.572 456.808C587.291 455.27 586.377 454.579 584.828 454.735L584.11 454.797C582.697 454.942 582.026 455.722 582.099 457.136C583.05 475.238 582.193 493.622 577.577 510.726L575.784 514.827C572.993 521.719 570.249 528.954 565.992 534.723C554.527 550.253 538.768 558.023 518.716 558.033C509.85 558.044 501.326 554.775 493.145 548.226C489.226 541.5 486.368 535.399 484.569 529.92C477.444 508.278 473.374 480.555 476.461 456.684C476.49 456.458 476.467 456.228 476.396 456.012C476.325 455.796 476.207 455.598 476.051 455.432C475.894 455.267 475.703 455.138 475.491 455.055C475.279 454.972 475.051 454.937 474.824 454.953L474.247 454.984C472.688 455.088 471.742 455.904 471.41 457.432C463.364 494.479 470.926 533.631 492.818 564.769C496.757 570.372 500.681 575.954 504.59 581.515C504.517 581.765 504.444 581.978 504.371 582.155C504.184 582.581 503.867 582.726 503.42 582.591C502.37 582.259 501.404 581.76 500.52 581.094C500.073 580.762 499.886 580.315 499.959 579.753C500.489 575.684 491.991 568.106 489.013 562.929C488.14 561.412 487.392 559.972 486.768 558.61C486.273 557.528 485.428 556.64 484.367 556.084C470.084 548.569 457.065 537.873 451.14 522.374C448.208 514.141 445.927 505.207 444.295 495.571C440.5 493.107 438.458 494.635 438.167 500.155C437.434 514.172 441.769 526.475 445.978 539.853C446.665 542.036 446.587 543.704 445.745 544.858C441.025 538.922 437.278 532.566 434.503 525.789C432.652 519.24 431.031 512.639 429.638 505.986C428.12 498.731 427.439 493.663 427.595 490.784C428.297 477.764 427.969 465.727 431.119 452.676C431.17 452.471 431.179 452.258 431.145 452.05C431.112 451.842 431.037 451.642 430.925 451.463C430.813 451.284 430.666 451.13 430.493 451.009C430.32 450.888 430.125 450.803 429.918 450.759L429.435 450.649C428.105 450.369 427.185 450.857 426.675 452.115C424.867 456.574 422.73 460.706 421.888 465.181C418.224 484.968 417.928 504.271 425.381 524.229C427.221 531.152 430.085 537.587 433.972 543.533L441.846 553.917C441.95 554.52 441.847 554.66 441.535 554.338C423.77 539.92 413.703 521.849 411.332 500.124C408.822 477.094 413.625 450.416 423.401 428.742C423.561 428.395 423.834 428.114 424.175 427.946C424.516 427.779 424.904 427.735 425.272 427.822C442.548 431.876 460.043 434.064 477.756 434.387C529.491 435.322 562.437 435.213 594.666 434.09Z" fill="white"/>
<path d="M650.425 494.557L649.364 505.456C646.807 527.987 632.088 545.809 614.703 559.015C613.175 560.18 612.873 559.92 613.798 558.236L614.999 556.068C616.818 554.333 618.211 552.28 619.178 549.91C619.3 549.614 619.494 549.361 619.739 549.177C620.155 548.865 620.591 548.314 621.049 547.524C630.602 531.048 636.262 513.813 638.029 495.82C640.258 479.557 639.915 450.867 629.11 437.287C628.133 436.06 627.384 435.41 626.865 435.338C624.838 435.067 624.068 435.925 624.557 437.91C629.547 458.196 632.774 474.77 630.186 497.161C628.117 515.56 622.093 532.659 612.114 548.459C608.518 554.156 604.781 559.93 600.903 565.782C599.864 566.572 599.204 567.539 598.923 568.683L587.634 575.122C586.699 575.351 586.122 575.164 585.904 574.561C585.874 574.467 585.865 574.369 585.875 574.272C585.886 574.176 585.917 574.083 585.966 574L596.288 557.862C598.825 553.257 601.366 548.699 603.913 544.187C606.751 539.146 608.85 534.395 610.212 529.936C615.69 512.046 618.382 493.668 618.289 474.802C618.278 473.544 618.071 472.302 617.665 471.075C617.488 470.545 617.125 470.233 616.574 470.14C615.825 470.015 614.833 470.082 613.596 470.342L609.448 471.106C606.969 460.457 605.706 448.279 603.585 439.282C602.65 435.28 599.677 433.55 594.667 434.09C608.637 432.016 622.125 431.112 636.002 427.713C636.463 427.597 636.95 427.649 637.376 427.861C637.802 428.072 638.139 428.429 638.325 428.867C645.482 445.628 649.879 460.722 650.378 479.869C650.575 487.426 650.591 492.322 650.425 494.557Z" fill="#A4C9D7"/>
<path d="M638.028 495.82L637.779 492.031C637.737 491.334 637.472 491.236 636.983 491.735C635.601 493.169 634.494 494.77 633.662 496.537C633.496 496.911 633.231 497 632.867 496.802C632.087 496.386 631.193 496.506 630.185 497.161C632.773 474.77 629.546 458.196 624.556 437.91C624.068 435.925 624.837 435.067 626.864 435.337C627.384 435.41 628.132 436.06 629.109 437.286C639.915 450.867 640.258 479.557 638.028 495.82Z" fill="#575F7E"/>
<path d="M434.503 525.788L432.398 521.158C432.179 520.679 432.013 520.191 431.899 519.692C431.618 518.517 431.005 517.493 430.059 516.62C429.97 516.542 429.862 516.49 429.745 516.469C429.629 516.449 429.509 516.461 429.399 516.505C429.289 516.548 429.194 516.622 429.123 516.716C429.052 516.811 429.009 516.924 428.999 517.041C428.957 517.592 428.728 518.029 428.312 518.351C428.021 518.58 427.756 518.548 427.517 518.257C427.32 518.008 427.044 517.831 426.691 517.727C426.088 517.54 425.771 517.764 425.74 518.398L425.381 524.229C417.928 504.271 418.224 484.968 421.888 465.181C422.73 460.706 424.867 456.574 426.675 452.115C427.185 450.857 428.105 450.369 429.435 450.649L429.919 450.758C430.125 450.802 430.32 450.888 430.493 451.009C430.666 451.13 430.813 451.284 430.925 451.463C431.037 451.642 431.112 451.842 431.145 452.05C431.179 452.258 431.17 452.471 431.119 452.676C427.969 465.727 428.297 477.764 427.595 490.784C427.439 493.663 428.12 498.731 429.638 505.986C431.031 512.639 432.652 519.24 434.503 525.788Z" fill="#A4C9D7"/>
<path d="M585.639 517.54C584.651 519.328 584.277 521.116 584.516 522.904L583.986 525.399C582.583 524.65 581.949 526.189 582.084 530.014C581.741 531.053 581.258 531.864 580.634 532.446C579.023 534.879 578.253 537.623 578.326 540.679L567.568 561.058L565.307 564.753C564.215 564.566 563.332 565.689 562.656 568.121L557.09 576.183L550.619 583.184C549.964 583.89 550.109 584.145 551.055 583.948L561.455 581.765L568.363 580.096C569.891 579.857 571.247 578.818 572.432 576.978C572.931 576.999 573.321 576.578 573.602 575.715C573.955 575.943 574.293 575.881 574.615 575.528C576.689 573.329 579.355 571.973 581.211 569.572C582.084 568.438 582.973 567.82 583.877 567.716C585.114 567.571 585.478 568.064 584.969 569.197L582.006 575.73C581.94 575.874 581.91 576.031 581.918 576.188C581.926 576.346 581.972 576.499 582.051 576.635C582.131 576.771 582.242 576.886 582.375 576.97C582.508 577.054 582.66 577.105 582.817 577.118C584.594 577.274 586.2 576.609 587.635 575.122L598.924 568.683C597.811 570.959 596.263 572.939 594.277 574.623C593.882 574.956 593.43 575.185 592.921 575.309C592.12 575.507 590.972 575.98 589.475 576.728C585.743 578.579 581.996 578.683 578.233 577.04C577.973 576.926 577.806 577.035 577.734 577.368C577.703 577.534 577.604 577.601 577.438 577.57C574.787 577.071 574.241 578.709 572.666 579.675C570.296 581.11 568.737 582.856 565.884 583.215C562.017 583.693 558.145 583.994 554.267 584.119C553.883 584.129 553.675 584.327 553.644 584.712C553.623 584.899 553.535 585.039 553.379 585.133C553.14 585.278 552.88 585.346 552.599 585.335C550.614 585.294 548.743 584.821 546.986 583.916C546.518 583.677 546.035 583.636 545.536 583.792L539.735 585.616C541.69 583.111 542.085 582.487 540.92 583.745L551.055 569.634C562.822 554.062 571.107 536.771 575.909 517.758C577.074 515.981 577.63 513.637 577.578 510.726C582.193 493.621 583.051 475.238 582.1 457.136C582.027 455.722 582.697 454.942 584.111 454.797L584.828 454.734C586.377 454.578 587.292 455.27 587.573 456.808C591.283 477.317 590.639 497.561 585.639 517.54Z" fill="#01061E"/>
<path d="M493.146 548.226C494.351 552.228 495.973 554.909 498.01 556.271C502.2 565.814 507.849 574.576 514.959 582.56C514.72 583.973 514.143 583.984 513.229 582.591C513.062 582.331 512.823 582.201 512.511 582.201C512.366 582.191 512.22 582.185 512.075 582.185C511.996 582.181 511.918 582.193 511.844 582.22C511.771 582.247 511.703 582.289 511.646 582.343C511.59 582.397 511.544 582.462 511.513 582.534C511.482 582.606 511.466 582.684 511.467 582.762V583.573C511.456 583.792 511.342 583.911 511.124 583.932C507.054 584.306 501.612 585.943 498.276 583.152L504.544 583.464C505.219 583.495 505.412 583.204 505.121 582.591L504.59 581.515C500.682 575.954 496.758 570.372 492.818 564.769C470.927 533.631 463.365 494.479 471.41 457.432C471.743 455.904 472.689 455.088 474.248 454.984L474.825 454.953C475.052 454.937 475.28 454.972 475.492 455.055C475.704 455.138 475.895 455.266 476.051 455.432C476.208 455.597 476.326 455.795 476.397 456.012C476.468 456.228 476.49 456.457 476.462 456.683C473.375 480.555 477.444 508.278 484.57 529.92C486.368 535.398 489.227 541.5 493.146 548.226Z" fill="#01061E"/>
<path d="M613.595 470.342C614.198 477.089 614 483.726 613.003 490.254C612.363 494.339 612.316 497.831 612.16 501.745C612.088 503.325 611.615 505.134 610.742 507.171C610.097 508.71 609.489 510.524 608.917 512.613C606.807 520.399 603.647 529.645 599.437 540.352C597.743 544.707 596.527 547.399 595.789 548.428C592.182 553.439 588.538 558.678 584.858 564.145C588.091 556.807 591.688 549.832 595.648 543.221C597.239 540.559 598.455 537.68 599.297 534.582C600.212 531.225 601.256 527.914 602.431 524.65C602.504 524.453 602.618 524.26 602.774 524.073C603.164 523.605 603.444 523.278 603.585 522.639C604.042 520.57 604.287 518.476 604.318 516.355C609.016 501.896 610.726 486.813 609.447 471.106L613.595 470.342Z" fill="#6C7899"/>
<path d="M613.595 470.342C614.832 470.082 615.825 470.015 616.574 470.139C617.125 470.233 617.488 470.545 617.665 471.075C618.07 472.301 618.278 473.544 618.289 474.801C618.382 493.668 615.69 512.046 610.212 529.936C608.85 534.395 606.751 539.145 603.913 544.187C601.366 548.698 598.824 553.257 596.288 557.861C596.371 555.741 597.156 553.537 598.643 551.25C599.245 551.084 599.422 550.684 599.173 550.05C599.144 549.981 599.13 549.906 599.133 549.831C599.135 549.756 599.154 549.681 599.188 549.613C599.355 549.301 599.547 549.062 599.765 548.896C600.056 548.667 600.295 548.397 600.482 548.085C602.676 544.239 603.819 540.091 603.913 535.642C603.923 534.852 603.689 534.774 603.211 535.409L599.438 540.351C603.648 529.645 606.808 520.398 608.918 512.613C609.49 510.523 610.098 508.709 610.742 507.171C611.615 505.134 612.088 503.325 612.161 501.745C612.317 497.831 612.364 494.338 613.003 490.253C614.001 483.725 614.198 477.088 613.595 470.342Z" fill="#474766"/>
<path d="M670.351 530.373C669.312 531.859 668.641 531.812 668.34 530.232C668.309 530.089 668.315 529.939 668.355 529.796L674.296 510.243C677.196 500.123 678.085 488.866 679.239 478.403C679.322 477.665 679.738 477.265 680.486 477.203L681.282 477.156C682.02 477.094 682.373 477.437 682.342 478.185C681.552 496.459 677.555 513.855 670.351 530.373Z" fill="#E1E3EF"/>
<path d="M380.601 477.702C381.568 478.076 381.953 478.887 381.755 480.134C381.568 495.425 384.567 509.843 390.752 523.387C393.73 529.889 396.085 536.781 399.452 542.8C401.292 546.085 403.163 549.349 405.066 552.592C405.923 554.042 407.467 554.666 408.137 555.71C409.956 558.548 412.015 561.256 414.312 563.834C414.644 564.198 414.073 564.395 412.597 564.426C390.97 540.897 377.452 510.976 377.686 478.669C377.696 477.463 378.668 477.141 380.601 477.702Z" fill="white"/>
<path d="M380.601 477.702C382.409 477.546 383.865 477.915 384.966 478.809C385.382 479.141 385.595 479.573 385.606 480.103C386.022 500.092 391.25 518.689 401.292 535.892C402.768 538.408 404.202 540.934 405.595 543.47L403.895 542.846C402.856 542.472 402.596 542.773 403.116 543.751C409.706 556.193 419.254 566.988 431.759 576.136C430.459 575.71 429.462 575.517 428.765 575.559C428.604 575.566 428.448 575.621 428.318 575.718C428.188 575.814 428.09 575.947 428.037 576.1C427.983 576.252 427.976 576.417 428.017 576.574C428.058 576.73 428.145 576.871 428.266 576.978C430.168 578.714 432.206 580.294 434.378 581.718C435.2 582.248 435.818 582.804 436.234 583.386C437.346 584.945 437.398 585.85 436.39 586.099C427.45 579.8 419.519 572.575 412.596 564.426C414.072 564.395 414.644 564.197 414.311 563.833C412.014 561.255 409.956 558.548 408.136 555.71C407.466 554.665 405.922 554.042 405.065 552.591C403.163 549.348 401.292 546.084 399.452 542.799C396.084 536.781 393.729 529.889 390.751 523.387C391.011 523.429 391.292 523.631 391.593 523.995C391.926 524.401 392.217 524.38 392.466 523.933C392.768 523.413 392.815 522.878 392.607 522.327C389.301 513.58 386.089 504.895 385.933 496.132C385.892 494.074 385.434 492.083 384.561 490.16C384.353 489.703 384.275 489.219 384.327 488.71C384.805 484.635 383.948 481.777 381.754 480.134C381.952 478.887 381.567 478.076 380.601 477.702Z" fill="#E1E3EF"/>
<path d="M381.754 480.134C383.948 481.777 384.805 484.635 384.327 488.71C384.275 489.219 384.353 489.703 384.561 490.16C385.434 492.083 385.891 494.074 385.933 496.132C386.089 504.895 389.301 513.58 392.607 522.327C392.814 522.878 392.768 523.413 392.466 523.933C392.217 524.38 391.926 524.401 391.593 523.995C391.292 523.632 391.011 523.429 390.751 523.387C384.566 509.843 381.567 495.425 381.754 480.134Z" fill="#A6ADC7"/>
<path d="M638.029 495.82C636.261 513.814 630.601 531.048 621.049 547.524C620.591 548.314 620.155 548.865 619.739 549.177C619.494 549.361 619.299 549.614 619.177 549.91C618.211 552.28 616.818 554.333 614.999 556.069L615.326 553.2C615.378 552.701 615.17 552.358 614.702 552.171C613.174 551.589 611.937 552.03 610.991 553.496C607.759 558.475 604.396 562.571 600.903 565.783C604.781 559.93 608.518 554.156 612.114 548.46C622.093 532.66 628.117 515.56 630.186 497.161C631.194 496.506 632.088 496.387 632.867 496.802C633.231 497 633.496 496.912 633.663 496.537C634.494 494.77 635.601 493.169 636.984 491.735C637.472 491.236 637.738 491.335 637.779 492.031L638.029 495.82Z" fill="#474766"/>
<path d="M444.294 495.571C444.222 498.294 444.513 500.607 445.167 502.509C445.334 502.998 445.355 503.486 445.23 503.975C445.001 504.921 445.121 505.7 445.588 506.314C445.859 506.667 446.03 507.062 446.103 507.499C446.742 511.397 447.272 515.622 449.408 519.037C450.022 520.035 450.599 521.147 451.139 522.374C457.064 537.872 470.084 548.569 484.366 556.084C485.428 556.64 486.273 557.528 486.768 558.61C487.391 559.972 488.14 561.412 489.013 562.929C491.991 568.106 500.489 575.684 499.959 579.753C499.886 580.315 500.073 580.761 500.52 581.094C501.404 581.759 502.37 582.258 503.42 582.591C503.867 582.726 504.184 582.581 504.371 582.154C504.444 581.978 504.517 581.765 504.59 581.515L505.12 582.591C505.411 583.204 505.219 583.495 504.543 583.464L498.275 583.152C496.57 581.707 494.184 580.741 491.118 580.252L493.94 579.847C495.395 579.649 495.416 579.358 494.003 578.974C481.3 575.522 469.341 570.377 458.125 563.537C455.053 561.666 453.665 559.047 451.872 556.084C451.813 555.986 451.729 555.904 451.63 555.846C451.531 555.789 451.419 555.757 451.304 555.754C451.189 555.75 451.075 555.776 450.973 555.829C450.871 555.881 450.783 555.958 450.718 556.053C450.438 556.458 450.323 557.228 450.375 558.361C447.361 554.348 445.817 549.847 445.744 544.858C446.586 543.704 446.664 542.035 445.978 539.853C441.768 526.474 437.434 514.172 438.167 500.155C438.458 494.635 440.5 493.107 444.294 495.571Z" fill="#A4C9D7"/>
<path d="M650.424 494.557C651.079 498.58 650.726 502.213 649.364 505.456L650.424 494.557Z" fill="#575F7E"/>
<path d="M444.295 495.57C445.927 505.206 448.209 514.141 451.14 522.373C450.6 521.147 450.023 520.035 449.409 519.037C447.273 515.622 446.743 511.396 446.104 507.498C446.031 507.062 445.859 506.667 445.589 506.313C445.121 505.7 445.002 504.921 445.231 503.975C445.355 503.486 445.334 502.997 445.168 502.509C444.513 500.607 444.222 498.294 444.295 495.57Z" fill="#BDC9C7"/>
<path d="M674.296 510.243L668.355 529.796C668.315 529.939 668.309 530.089 668.34 530.232C668.641 531.812 669.312 531.859 670.351 530.373C670.33 533.72 669.01 536.656 666.391 539.182C666.017 539.546 665.772 539.983 665.658 540.492C665.606 540.71 665.554 540.939 665.502 541.178C665.45 541.386 665.351 541.583 665.206 541.771C662.586 545.242 660.227 548.995 658.127 553.028L659.795 547.119C659.951 546.568 660.3 546.199 660.84 546.012C661.599 545.762 661.957 545.216 661.916 544.374C661.895 543.917 661.718 543.527 661.386 543.205C659.265 541.095 657.618 541.318 656.443 543.875C654.884 547.327 652.966 549.681 650.689 550.939L662.649 532.322C662.929 531.895 663.085 531.428 663.116 530.918C663.127 530.742 663.137 530.565 663.148 530.388C663.158 530.222 663.2 530.061 663.272 529.905C665.674 524.759 667.701 517.914 672.051 514.11C672.467 513.756 672.721 513.309 672.815 512.769C673.054 511.386 673.548 510.544 674.296 510.243Z" fill="#030F39"/>
<path d="M577.578 510.726C577.63 513.637 577.074 515.981 575.91 517.758L575.785 514.827L577.578 510.726Z" fill="#6C7899"/>
<path d="M575.785 514.827L575.909 517.758C571.107 536.77 562.822 554.062 551.055 569.634L551.086 567.997C551.107 567.3 550.894 567.222 550.447 567.763L539.454 581.001C538.841 581.739 538.082 581.952 537.178 581.64C535.92 581.224 534.314 581.136 532.36 581.375C526.788 582.05 521.3 581.629 515.895 580.112C515.375 579.966 514.944 579.691 514.6 579.285C508.52 572.217 502.989 564.545 498.01 556.271C495.973 554.909 494.351 552.228 493.146 548.226C501.326 554.774 509.85 558.044 518.717 558.033C538.769 558.023 554.527 550.253 565.993 534.723C570.249 528.954 572.994 521.719 575.785 514.827Z" fill="#A4C9D7"/>
<path d="M604.319 516.355C604.288 518.476 604.043 520.57 603.586 522.639C603.446 523.278 603.165 523.605 602.775 524.073C602.619 524.26 602.505 524.452 602.432 524.65C601.257 527.914 600.213 531.225 599.298 534.582C598.456 537.68 597.24 540.559 595.65 543.22C591.689 549.832 588.092 556.806 584.86 564.145L573.602 575.715C573.321 576.577 572.932 576.999 572.433 576.978C572.318 576.645 572.391 576.255 572.651 575.808C572.671 575.775 572.685 575.738 572.689 575.7C572.694 575.661 572.691 575.621 572.679 575.583C572.667 575.545 572.648 575.509 572.621 575.478C572.595 575.447 572.563 575.422 572.526 575.403C572.36 575.32 572.199 575.237 572.043 575.153C571.974 575.122 571.9 575.105 571.825 575.103C571.75 575.102 571.676 575.115 571.607 575.143C571.538 575.171 571.476 575.212 571.425 575.265C571.374 575.318 571.335 575.381 571.31 575.45C570.977 576.344 570.317 576.874 569.33 577.04C568.831 577.123 568.431 577.373 568.129 577.788C567.786 578.256 567.287 578.454 566.632 578.381C563.997 578.085 560.037 580.252 558.322 579.176C557.875 578.896 557.838 578.563 558.212 578.178C559.948 576.422 561.222 574.363 562.033 572.004C562.085 571.837 562.048 571.723 561.923 571.661H561.908C561.741 571.578 561.606 571.619 561.502 571.785C560.432 573.646 558.961 575.112 557.09 576.183L562.656 568.121C563.872 567.55 564.756 566.427 565.307 564.753L567.568 561.058L567.63 562.383C567.672 563.173 567.999 563.319 568.613 562.82C573.446 558.859 578.732 555.913 582.723 551.172C591.829 540.367 599.719 530.123 604.319 516.355Z" fill="#A6ADC7"/>
<path d="M434.502 525.788C437.278 532.566 441.025 538.922 445.744 544.858C445.817 549.847 447.361 554.348 450.375 558.361L452.293 562.274L441.535 554.338C441.846 554.66 441.95 554.52 441.846 553.917C442.356 554.541 442.896 554.977 443.468 555.227C443.582 555.274 443.706 555.29 443.829 555.274C443.952 555.257 444.07 555.209 444.17 555.133C444.637 554.79 444.705 554.385 444.372 553.917C441.909 550.487 439.45 546.994 436.997 543.439C436.706 543.007 436.32 542.648 435.869 542.389C435.417 542.129 434.913 541.977 434.393 541.942C434.248 541.932 434.107 542.462 433.972 543.532C430.085 537.587 427.221 531.152 425.381 524.229L425.74 518.398C425.771 517.764 426.088 517.54 426.691 517.727C427.044 517.831 427.32 518.008 427.517 518.257C427.756 518.548 428.021 518.58 428.312 518.351C428.728 518.029 428.957 517.592 428.998 517.041C429.009 516.924 429.052 516.811 429.123 516.716C429.194 516.622 429.289 516.548 429.399 516.505C429.509 516.461 429.629 516.449 429.745 516.469C429.862 516.49 429.97 516.542 430.059 516.62C431.004 517.493 431.618 518.517 431.899 519.692C432.013 520.191 432.179 520.679 432.397 521.158L434.502 525.788Z" fill="#A6ADC7"/>
<path d="M585.639 517.54C586.252 519.713 585.878 521.5 584.516 522.904C584.277 521.116 584.651 519.328 585.639 517.54Z" fill="#A4C9D7"/>
<path d="M583.986 525.398L582.614 530.061C582.438 530.05 582.261 530.034 582.084 530.014C581.949 526.188 582.583 524.65 583.986 525.398Z" fill="#575F7E"/>
<path d="M582.083 530.014C582.26 530.034 582.436 530.05 582.613 530.06C582.592 531.589 582.052 533.101 580.991 534.598L580.633 532.446C581.257 531.864 581.74 531.053 582.083 530.014Z" fill="#A4C9D7"/>
<path d="M580.634 532.446L580.992 534.598L578.326 540.679C578.253 537.623 579.022 534.879 580.634 532.446Z" fill="#575F7E"/>
<path d="M596.288 557.862L585.966 574C585.917 574.083 585.886 574.176 585.876 574.272C585.865 574.369 585.874 574.467 585.904 574.561C586.122 575.164 586.699 575.351 587.635 575.122C586.2 576.609 584.594 577.274 582.817 577.118C582.66 577.105 582.508 577.054 582.375 576.97C582.241 576.886 582.13 576.771 582.051 576.635C581.971 576.499 581.926 576.346 581.918 576.188C581.91 576.031 581.94 575.874 582.006 575.73L584.968 569.197C585.478 568.064 585.114 567.571 583.877 567.716C582.973 567.82 582.084 568.439 581.211 569.572C579.355 571.973 576.689 573.329 574.615 575.528C574.293 575.881 573.955 575.943 573.602 575.715L584.859 564.145C588.539 558.678 592.182 553.439 595.789 548.428C596.527 547.399 597.744 544.707 599.438 540.352L603.211 535.409C603.689 534.775 603.923 534.853 603.913 535.643C603.819 540.092 602.676 544.239 600.483 548.085C600.296 548.397 600.056 548.667 599.765 548.896C599.547 549.063 599.355 549.302 599.189 549.613C599.155 549.682 599.136 549.756 599.133 549.831C599.13 549.907 599.144 549.981 599.173 550.05C599.422 550.684 599.246 551.084 598.643 551.251C597.156 553.537 596.372 555.741 596.288 557.862Z" fill="#1B254B"/>
<path d="M405.594 543.47C441.971 592.882 498.868 610.766 558.508 602.44L565.072 601.489L586.792 595.969C586.751 596.302 586.907 596.52 587.26 596.624C587.26 597.362 586.886 597.851 586.137 598.09C578.419 600.491 570.452 603.531 562.827 604.888C541.559 608.661 520.245 608.651 498.883 604.857C473.936 600.179 451.561 590.605 431.758 576.136C419.253 566.988 409.706 556.193 403.115 543.751C402.596 542.774 402.855 542.472 403.895 542.846L405.594 543.47Z" fill="white"/>
<path d="M658.128 553.028C654.884 557.591 651.859 562.373 649.053 567.373C648.845 567.737 648.273 568.168 647.338 568.667C644.391 570.226 640.992 574.717 638.544 576.728C635.862 578.963 631.246 582.596 624.698 587.627C623.627 588.438 621.907 589.28 619.537 590.153C617.011 591.073 614.984 593.007 612.598 593.911C609.937 594.93 607.323 596.052 604.755 597.279C597.427 600.772 590.363 603.438 582.957 606.213C584.173 604.561 585.395 602.981 586.621 601.473C587.65 600.226 587.806 598.947 588.258 597.45C588.383 597.024 588.232 596.744 587.806 596.609C587.65 596.567 587.468 596.572 587.261 596.624C586.907 596.52 586.751 596.302 586.793 595.969C592.198 593.495 597.583 591.042 602.946 588.61C605.046 587.664 606.98 586.572 608.747 585.335C612.707 582.575 615.373 580.315 620.721 578.802C621.2 578.667 621.605 578.402 621.938 578.007C622.946 576.822 624.776 575.549 627.426 574.187C629.401 573.179 632.073 570.912 635.441 567.389C639.978 562.664 646.293 557.176 650.69 550.939C652.966 549.681 654.884 547.327 656.443 543.875C657.618 541.318 659.266 541.095 661.386 543.205C661.719 543.527 661.896 543.917 661.916 544.374C661.958 545.216 661.599 545.762 660.841 546.012C660.3 546.199 659.952 546.568 659.796 547.119L658.128 553.028Z" fill="#1B254B"/>
<path d="M441.848 553.917L433.974 543.532C434.109 542.462 434.249 541.932 434.395 541.942C434.914 541.976 435.419 542.129 435.87 542.389C436.321 542.648 436.707 543.007 436.999 543.439C439.452 546.994 441.91 550.486 444.374 553.917C444.706 554.385 444.639 554.79 444.171 555.133C444.071 555.209 443.954 555.257 443.831 555.274C443.707 555.29 443.583 555.274 443.469 555.227C442.898 554.977 442.357 554.54 441.848 553.917Z" fill="#1B254B"/>
<path d="M491.118 580.252C477.345 576.635 464.403 570.642 452.293 562.274L450.375 558.361C450.323 557.228 450.438 556.458 450.719 556.053C450.783 555.958 450.871 555.881 450.973 555.828C451.075 555.776 451.189 555.75 451.304 555.753C451.419 555.757 451.531 555.788 451.63 555.846C451.73 555.904 451.813 555.986 451.872 556.084C453.666 559.047 455.053 561.666 458.125 563.537C469.341 570.377 481.3 575.522 494.003 578.973C495.416 579.358 495.396 579.649 493.94 579.847L491.118 580.252Z" fill="#F2FCFF"/>
<path d="M551.055 569.634L540.92 583.745C533.435 584.712 524.844 584.348 515.146 582.653L514.959 582.56C507.848 574.577 502.199 565.814 498.01 556.271C502.989 564.546 508.519 572.217 514.6 579.285C514.943 579.691 515.374 579.966 515.894 580.112C521.299 581.629 526.788 582.05 532.36 581.375C534.314 581.136 535.92 581.224 537.178 581.64C538.082 581.952 538.841 581.739 539.454 581.001L550.447 567.763C550.894 567.222 551.107 567.3 551.086 567.997L551.055 569.634Z" fill="#E1E3EF"/>
<path d="M565.307 564.753C564.756 566.427 563.872 567.549 562.656 568.121C563.332 565.689 564.216 564.566 565.307 564.753Z" fill="#575F7E"/>
<path d="M572.432 576.978C571.247 578.818 569.891 579.857 568.363 580.096C565.785 579.566 563.482 580.122 561.455 581.764L551.055 583.947C550.109 584.145 549.964 583.89 550.619 583.183L557.089 576.183C558.961 575.112 560.431 573.646 561.502 571.785C561.606 571.619 561.741 571.578 561.907 571.661H561.923C562.048 571.723 562.084 571.837 562.032 572.004C561.221 574.363 559.948 576.422 558.212 578.178C557.838 578.563 557.874 578.896 558.321 579.176C560.036 580.252 563.997 578.085 566.632 578.381C567.287 578.454 567.786 578.256 568.129 577.788C568.43 577.373 568.83 577.123 569.329 577.04C570.317 576.874 570.977 576.344 571.31 575.45C571.334 575.381 571.373 575.318 571.425 575.265C571.476 575.212 571.538 575.171 571.607 575.143C571.675 575.115 571.75 575.102 571.825 575.103C571.9 575.105 571.974 575.122 572.042 575.153C572.198 575.237 572.36 575.32 572.526 575.403C572.562 575.422 572.595 575.447 572.621 575.478C572.647 575.509 572.667 575.545 572.679 575.583C572.69 575.621 572.694 575.661 572.689 575.7C572.684 575.738 572.671 575.775 572.651 575.808C572.391 576.255 572.318 576.645 572.432 576.978Z" fill="#E1E3EF"/>
<path d="M431.759 576.136C451.561 590.605 473.936 600.179 498.884 604.857L492.382 604.935C492.039 604.945 491.92 605.111 492.023 605.434C492.075 605.61 492.159 605.761 492.273 605.886C492.345 605.966 492.392 606.065 492.409 606.17C492.426 606.276 492.412 606.385 492.37 606.483C492.327 606.582 492.257 606.666 492.168 606.726C492.079 606.786 491.975 606.819 491.868 606.821L484.898 607.087C484.399 607.097 483.931 606.983 483.495 606.743C482.871 606.38 482.211 606.255 481.514 606.369C481.015 606.452 480.532 606.39 480.064 606.182C478.266 605.382 476.348 605.111 474.311 605.371C464.571 601.556 455.059 597.165 445.777 592.196C442.367 590.377 439.238 588.345 436.39 586.099C437.398 585.85 437.347 584.945 436.234 583.386C435.818 582.804 435.2 582.248 434.379 581.718C432.206 580.294 430.169 578.714 428.267 576.978C428.145 576.871 428.058 576.73 428.018 576.574C427.977 576.418 427.983 576.252 428.037 576.1C428.091 575.947 428.189 575.814 428.319 575.718C428.448 575.622 428.604 575.566 428.766 575.559C429.462 575.517 430.46 575.71 431.759 576.136Z" fill="#898CAB"/>
<path d="M568.363 580.096L561.456 581.765C563.483 580.122 565.785 579.566 568.363 580.096Z" fill="#A6ADC7"/>
<path d="M515.146 582.653C524.845 584.348 533.436 584.712 540.921 583.745C542.085 582.487 541.69 583.111 539.736 585.616C530.484 585.928 523.405 585.824 518.499 585.304C517.47 585.2 516.352 584.316 515.146 582.653Z" fill="#5E8EB3"/>
<path d="M587.26 596.624C587.468 596.572 587.65 596.567 587.806 596.608C588.232 596.743 588.383 597.024 588.258 597.45C587.806 598.947 587.65 600.226 586.621 601.473C585.394 602.98 584.173 604.56 582.956 606.213C567.104 610.922 551.652 613.469 536.601 613.853C527.448 614.087 514.148 614.087 503.95 612.481C493.909 610.901 484.029 608.531 474.31 605.371C476.347 605.111 478.265 605.381 480.063 606.182C480.531 606.39 481.014 606.452 481.513 606.369C482.21 606.255 482.87 606.379 483.493 606.743C483.93 606.982 484.398 607.097 484.897 607.086L491.866 606.821C491.974 606.819 492.078 606.786 492.167 606.726C492.256 606.666 492.326 606.582 492.369 606.483C492.411 606.385 492.425 606.276 492.408 606.17C492.39 606.064 492.343 605.966 492.272 605.886C492.158 605.761 492.074 605.61 492.022 605.433C491.918 605.111 492.038 604.945 492.381 604.934L498.883 604.856C520.244 608.651 541.559 608.661 562.827 604.888C570.452 603.531 578.419 600.491 586.137 598.089C586.886 597.85 587.26 597.362 587.26 596.624Z" fill="#474766"/>
<path d="M565.073 601.489L558.509 602.44C560.203 601.276 562.391 600.959 565.073 601.489Z" fill="#474766"/>
<path d="M527.635 635.043C527.541 642.122 527.635 655.235 527.916 674.383C528.072 685.017 527.962 704.637 527.588 733.244C527.588 733.576 527.365 734.195 526.918 735.099C525.847 735.213 525.312 734.855 525.312 734.023C525.062 712.527 524.922 679.965 524.891 636.338C524.891 635.496 525.14 635.033 525.639 634.95C526.096 634.877 526.762 634.908 527.635 635.043Z" fill="white"/>
<path d="M527.635 635.044L534.745 635.589C533.529 666.119 533.072 687.106 533.373 698.551C533.675 710.11 533.924 721.524 534.122 732.792C534.13 733.289 533.967 733.774 533.659 734.164C533.352 734.553 532.921 734.823 532.438 734.928C530.66 735.323 528.82 735.38 526.918 735.099C527.365 734.195 527.588 733.576 527.588 733.244C527.963 704.637 528.072 685.017 527.916 674.383C527.635 655.236 527.542 642.122 527.635 635.044Z" fill="#474766"/>
<path d="M534.745 635.589C535.774 648.551 536.034 661.483 535.525 674.383C535.515 674.622 535.426 674.788 535.26 674.882C534.99 675.027 534.854 675.251 534.854 675.552V692.719C534.854 693.27 534.984 693.795 535.244 694.294C535.598 694.98 535.759 695.619 535.728 696.212C535.551 699.611 535.592 703 535.852 706.378C536.601 716.03 536.601 724.465 536.445 733.571C536.414 735.432 535.468 736.3 533.607 736.175L527.635 735.769C527.427 735.749 527.266 735.65 527.152 735.473L526.918 735.099C528.82 735.38 530.66 735.323 532.438 734.928C532.921 734.823 533.352 734.553 533.659 734.163C533.967 733.774 534.13 733.289 534.122 732.791C533.924 721.523 533.675 710.11 533.373 698.551C533.072 687.106 533.529 666.119 534.745 635.589Z" fill="#030F39"/>
<path d="M601.356 774.298C600.732 770.182 597.13 766.585 590.55 763.508C587.234 761.117 583.523 759.09 579.417 757.427C574.802 755.556 570.124 755.618 565.104 755.166C569.641 754.745 574.007 754.122 578.575 754.402C593.98 755.353 614.157 753.638 619.177 772.957C619.223 773.13 619.227 773.312 619.19 773.487C619.153 773.662 619.076 773.827 618.965 773.969C618.853 774.11 618.711 774.225 618.547 774.304C618.384 774.382 618.205 774.423 618.024 774.423L601.356 774.298Z" fill="#DC5A39"/>
<path d="M541.778 755.119C543.586 755.026 544.267 756.31 543.82 758.971C543.955 758.908 544.07 759.179 544.163 759.781C519.746 759.865 495.401 759.974 471.129 760.109C462.631 760.171 454.757 761.044 449.393 767.967C447.502 769.277 446.301 771.585 445.792 774.89L442.798 775.343C442.351 775.124 441.904 775.02 441.457 775.031C441.253 775.037 441.05 774.993 440.868 774.902C440.685 774.811 440.528 774.675 440.41 774.508C440.292 774.341 440.218 774.148 440.194 773.945C440.17 773.742 440.197 773.537 440.272 773.347C440.74 772.141 441.077 770.956 441.285 769.792C442.408 763.789 449.269 758.752 454.399 756.694C457.444 755.468 462.314 754.828 469.008 754.776C493.249 754.61 517.506 754.724 541.778 755.119Z" fill="white"/>
<path d="M565.103 755.166C570.124 755.618 574.802 755.556 579.417 757.427C583.523 759.09 587.234 761.117 590.55 763.508C591.028 764.038 591.127 764.469 590.846 764.802C590.68 765 590.352 765.109 589.864 765.13C582.92 765.4 575.945 765.639 568.939 765.847C565.841 765.94 563.57 766.876 562.125 768.653C562.042 761.918 558.097 757.63 550.291 755.79C548.555 755.727 546.86 756.793 545.208 758.986C545.01 759.257 544.547 759.251 543.82 758.971C544.267 756.31 543.586 755.026 541.777 755.119L565.103 755.166Z" fill="#FEB43C"/>
<path d="M550.291 755.79C551.31 756.382 551.965 756.975 552.256 757.567C552.484 758.025 552.344 758.3 551.835 758.394L544.163 759.782C544.07 759.179 543.955 758.908 543.82 758.971C544.548 759.251 545.011 759.257 545.208 758.986C546.861 756.793 548.555 755.728 550.291 755.79Z" fill="#FEDD43"/>
<path d="M550.291 755.79C558.098 757.63 562.042 761.918 562.126 768.654L560.005 770.104C552.573 769.449 545.166 769.106 537.786 769.074C510.978 768.939 483.66 769.158 455.833 769.729C455.751 769.731 455.671 769.713 455.597 769.677C455.524 769.641 455.46 769.588 455.412 769.522C455.363 769.457 455.33 769.38 455.317 769.3C455.303 769.219 455.309 769.137 455.334 769.059L455.818 767.562C455.994 766.99 455.792 766.756 455.209 766.86L449.394 767.967C454.757 761.045 462.631 760.171 471.129 760.109C495.401 759.974 519.746 759.865 544.163 759.782L551.835 758.394C552.344 758.3 552.484 758.025 552.256 757.567C551.965 756.975 551.31 756.382 550.291 755.79Z" fill="#FEC648"/>
<path d="M590.55 763.508C597.13 766.585 600.731 770.182 601.355 774.298L576.672 774.984L554.22 775.249C556.891 774.896 558.819 773.181 560.004 770.104L562.125 768.654C563.57 766.876 565.841 765.941 568.939 765.847C575.945 765.639 582.92 765.4 589.864 765.13C590.352 765.109 590.68 765 590.846 764.802C591.127 764.47 591.028 764.038 590.55 763.508Z" fill="#F87529"/>
<path d="M560.005 770.104C558.82 773.18 556.892 774.896 554.221 775.249L445.792 774.89C446.301 771.585 447.502 769.277 449.394 767.967L455.21 766.86C455.792 766.756 455.995 766.99 455.818 767.562L455.334 769.059C455.31 769.137 455.304 769.219 455.317 769.3C455.331 769.38 455.363 769.457 455.412 769.522C455.461 769.588 455.524 769.64 455.598 769.676C455.671 769.713 455.752 769.731 455.833 769.729C483.66 769.158 510.978 768.939 537.786 769.074C545.167 769.106 552.573 769.449 560.005 770.104Z" fill="#FDA930"/>
<path d="M445.792 774.891L554.221 775.249L576.673 774.984L597.084 776.855C597.541 776.897 597.931 776.756 598.253 776.434C598.763 775.925 599.407 775.837 600.187 776.169C600.665 776.377 601.159 776.419 601.668 776.294C603.352 775.888 605.078 775.8 606.845 776.029C607.364 776.102 607.848 776.273 608.295 776.543C608.825 776.855 609.308 777.281 609.745 777.822C609.967 778.084 610.088 778.421 610.088 778.773V785.244C610.088 785.535 609.989 785.779 609.792 785.977L609.48 786.289C609.386 786.372 609.402 786.429 609.527 786.46C609.703 786.502 609.833 786.429 609.916 786.242C609.936 786.201 609.97 786.168 610.01 786.147C610.051 786.126 610.097 786.118 610.14 786.125C610.184 786.133 610.222 786.154 610.25 786.187C610.277 786.219 610.291 786.261 610.291 786.304C610.311 786.585 610.441 786.767 610.68 786.85C611.377 787.079 611.283 787.328 610.4 787.598C609.963 787.723 609.631 787.946 609.402 788.269C609.121 788.643 608.747 788.83 608.279 788.83L596.647 788.783C596.159 788.783 595.727 788.939 595.353 789.251C595.145 789.417 594.922 789.558 594.683 789.672C594.475 789.766 594.231 789.802 593.95 789.781C590.208 789.501 586.44 789.469 582.645 789.688L459.544 789.454L447.913 787.24C447.424 787.146 447.377 786.943 447.772 786.632L448.115 786.367C448.261 786.252 448.313 786.101 448.271 785.914C448.136 785.426 447.835 785.119 447.367 784.994C447.097 784.932 447.097 784.859 447.367 784.776L447.959 784.62C448.198 784.547 448.266 784.392 448.162 784.152C448.037 783.872 447.829 783.804 447.538 783.95C447.445 784.002 447.409 783.976 447.429 783.872L448.225 780.644C448.37 780.072 448.162 779.693 447.601 779.506L443.516 778.118C443.496 778.113 443.478 778.104 443.462 778.09C443.445 778.077 443.432 778.06 443.422 778.04C442.684 776.689 442.476 775.79 442.798 775.343L445.792 774.891Z" fill="#010001"/>
<path d="M459.544 789.454L582.645 789.688C584.588 790.675 586.948 790.997 589.724 790.654L588.944 790.717C588.435 790.769 588.128 791.044 588.024 791.543C587.889 792.177 587.483 792.557 586.808 792.681C584.344 793.149 582.146 793.866 579.62 793.866C541.45 794.033 503.342 794.09 465.297 794.038L464.19 793.975C453.494 793.632 442.813 793.456 432.148 793.445C429.362 793.445 426.67 793.731 424.071 794.303C423.739 794.521 423.333 794.677 422.855 794.771L420.953 795.114C420.391 795.218 420.204 795.005 420.391 794.474C422.933 787.084 453.01 789.391 459.544 789.454Z" fill="#E1E3EF"/>
<path d="M592.281 792.821L593.201 792.447C593.555 792.665 593.898 792.733 594.23 792.65C594.604 792.567 594.812 792.348 594.854 791.995C594.896 791.683 594.818 791.319 594.62 790.904C609.791 789.251 619.926 790.904 633.071 791.902C633.173 791.91 633.273 791.937 633.364 791.983C633.456 792.029 633.537 792.092 633.604 792.169C633.671 792.246 633.721 792.335 633.753 792.431C633.784 792.527 633.796 792.628 633.788 792.728L633.757 793.118C633.736 793.367 633.601 793.492 633.351 793.492L592.281 792.821Z" fill="#030F39"/>
<path d="M589.724 790.654L590.799 791.013C592.556 791.293 593.357 791.771 593.201 792.447L592.281 792.821L586.808 792.681C587.483 792.556 587.889 792.177 588.024 791.543C588.128 791.044 588.435 790.768 588.944 790.716L589.724 790.654Z" fill="#A6ADC7"/>
<path d="M590.799 791.013L594.619 790.904C594.816 791.32 594.894 791.683 594.853 791.995C594.811 792.349 594.603 792.567 594.229 792.65C593.896 792.733 593.554 792.666 593.2 792.447C593.356 791.772 592.556 791.294 590.799 791.013Z" fill="#575F7E"/>
<path d="M464.19 793.975C457.247 793.726 449.554 794.074 441.114 795.02C435.802 795.623 430.121 795.384 424.071 794.303C426.67 793.731 429.362 793.445 432.148 793.445C442.813 793.456 453.494 793.632 464.19 793.975Z" fill="#575F7E"/>
<path d="M464.191 793.976L465.298 794.038C452.554 795.504 439.685 796.023 426.691 795.597C425.808 795.566 424.529 795.291 422.855 794.771C423.334 794.677 423.739 794.521 424.072 794.303C430.122 795.384 435.802 795.623 441.114 795.02C449.555 794.074 457.247 793.726 464.191 793.976Z" fill="#030F39"/>
</svg>
