<svg width="1024" height="1024" viewBox="0 0 1024 1024" fill="none" xmlns="http://www.w3.org/2000/svg">
<rect width="1024" height="1024" fill="white"/>
<path fill-rule="evenodd" clip-rule="evenodd" d="M621.995 555.861C618.509 556.054 613.144 555.98 605.899 555.639C605.332 555.605 605.195 555.344 605.491 554.856C608.92 549.246 612.031 543.467 614.825 537.516C616.961 532.964 621.457 529.172 625.5 525.761C627.357 524.195 629.118 522.709 630.512 521.267C649.606 501.475 644.274 474.103 635.213 451.109C635.065 450.737 634.824 450.409 634.514 450.157C634.204 449.904 633.834 449.734 633.44 449.665C633.046 449.595 632.641 449.626 632.262 449.757C631.884 449.888 631.545 450.113 631.278 450.411C622.932 459.745 613.172 469.062 602.033 474.189C601.488 474.438 600.937 474.444 600.381 474.206L579.516 465.008C579.298 464.915 579.119 464.75 579.007 464.54C578.896 464.329 578.859 464.086 578.902 463.85L580.487 455.35C580.577 454.839 580.844 454.436 581.287 454.141C609.408 435.303 612.082 412.649 603.191 381.547C603.021 380.968 602.64 380.678 602.05 380.678C599.836 380.667 597.883 381.468 596.191 383.08C591.626 387.418 586.442 390.955 580.64 393.691C580.445 393.787 580.23 393.835 580.014 393.832C579.798 393.829 579.586 393.775 579.396 393.674L565.378 386.453C565.211 386.366 565.067 386.24 564.958 386.085C564.849 385.931 564.78 385.752 564.754 385.565C564.729 385.378 564.75 385.188 564.814 385.01C564.878 384.832 564.984 384.673 565.123 384.545C565.433 384.256 565.729 383.888 566.032 383.512C566.479 382.957 566.943 382.382 567.49 382.007C582.002 372.247 591.694 362.368 589.65 343.445C588.969 337.222 588.146 330.857 587.18 324.351C587.148 324.146 587.064 323.953 586.937 323.789C586.809 323.626 586.643 323.497 586.452 323.416C586.262 323.334 586.054 323.302 585.847 323.323C585.641 323.343 585.443 323.416 585.273 323.533C582.88 325.18 580.685 326.959 578.498 328.731C575.19 331.412 571.902 334.076 567.984 336.24C567.747 336.369 567.487 336.449 567.221 336.475C566.955 336.502 566.687 336.474 566.434 336.393L554.052 332.629C553.576 332.482 553.155 332.198 552.84 331.812C552.526 331.426 552.333 330.956 552.286 330.46C552.238 329.965 552.339 329.466 552.574 329.028C552.81 328.589 553.17 328.23 553.609 327.996C561.012 324.124 566.889 319.111 571.238 312.956C577.778 303.673 575.053 291.733 571.732 281.548C571.626 281.223 571.437 280.932 571.182 280.705C570.927 280.478 570.617 280.322 570.282 280.255C569.948 280.187 569.601 280.21 569.278 280.32C568.955 280.431 568.667 280.625 568.444 280.883C565.492 284.278 561.995 286.919 557.952 288.804C556.658 289.417 555.375 289.394 554.103 288.735L548.38 285.755C547.346 285.221 547.352 284.71 548.397 284.222C567.116 275.331 565.804 258.144 560.643 240.958C560.534 240.59 560.323 240.261 560.033 240.01C559.742 239.758 559.387 239.595 559.007 239.539C558.627 239.484 558.239 239.538 557.889 239.696C557.539 239.854 557.242 240.109 557.032 240.43C554.103 244.95 550.077 248.18 544.956 250.122C544.721 250.207 544.471 250.241 544.221 250.22C543.971 250.2 543.728 250.126 543.508 250.003L530.717 242.628C530.126 242.276 529.916 241.77 530.086 241.112C531.841 234.35 532.386 227.639 528.928 221.745C524.806 214.66 515.557 210.35 507.535 212.599C496.214 215.778 491.524 223.687 493.466 236.325C493.738 238.086 494.022 239.874 494.318 241.691C494.408 242.247 494.187 242.622 493.653 242.815C491.979 243.392 490.082 244.475 488.125 245.593C483.553 248.205 478.652 251.005 475.479 247.976C472.788 245.421 470.086 242.792 467.372 240.09C467.137 239.855 466.847 239.682 466.528 239.588C466.209 239.494 465.872 239.481 465.547 239.55C465.222 239.62 464.919 239.769 464.667 239.986C464.414 240.202 464.22 240.478 464.101 240.788C457.901 256.612 459.537 276.233 476.961 284.239C478.63 285.011 478.585 285.652 476.825 286.163L468.479 288.565C468.072 288.686 467.638 288.662 467.253 288.497C462.858 286.612 458.975 283.978 455.602 280.594C455.348 280.338 455.03 280.155 454.681 280.064C454.333 279.972 453.966 279.975 453.619 280.072C453.272 280.169 452.957 280.357 452.707 280.616C452.457 280.876 452.28 281.197 452.195 281.548C447 303.298 450.083 316.942 470.676 328.694C472.981 330 472.902 331.141 470.438 332.118L462.092 335.371C460.82 335.868 459.443 336.04 458.087 335.87C456.731 335.701 455.438 335.195 454.325 334.4L439.727 323.976C439.586 323.874 439.422 323.807 439.249 323.782C439.076 323.757 438.9 323.775 438.735 323.834C438.571 323.892 438.423 323.99 438.305 324.119C438.187 324.248 438.102 324.403 438.058 324.572C432.659 344.807 430.802 365.059 450.918 378.055C453.961 380.02 457.095 382.251 460.32 384.749C460.433 384.837 460.521 384.951 460.577 385.083C460.633 385.214 460.654 385.357 460.639 385.499C460.623 385.641 460.572 385.776 460.489 385.892C460.407 386.009 460.296 386.102 460.167 386.163L445.195 392.993C444.898 393.131 444.576 393.202 444.251 393.199C443.927 393.196 443.609 393.12 443.321 392.976C438.149 390.476 433.35 386.793 428.73 383.247C427.432 382.251 426.149 381.266 424.875 380.321C422.99 378.924 421.673 379.344 420.923 381.581C411.862 408.731 414.366 435.967 440.511 451.688C441.067 452.017 441.385 452.506 441.465 453.153C441.93 456.753 443.299 460.006 445.57 462.913C445.747 463.139 445.863 463.406 445.908 463.69C445.952 463.974 445.924 464.264 445.825 464.533C445.726 464.803 445.56 465.043 445.342 465.23C445.125 465.417 444.863 465.546 444.582 465.604C437.394 467.148 430.785 469.998 424.756 474.154C424.313 474.461 423.842 474.495 423.342 474.257C412.668 469.192 403.521 462.129 395.902 453.068C394.767 451.728 393.671 450.598 392.615 449.678C392.391 449.485 392.126 449.347 391.839 449.276C391.553 449.204 391.254 449.2 390.966 449.265C390.678 449.329 390.409 449.46 390.18 449.647C389.952 449.835 389.771 450.073 389.651 450.343C377.949 476.488 375.258 509.191 402.579 527.314C405.577 529.29 409.426 533.531 411.061 537.738C413.491 543.972 416.614 549.769 420.429 555.128C420.804 555.651 420.668 555.929 420.021 555.963C419.591 555.984 419.163 556.006 418.734 556.027C405.695 556.68 393.024 557.315 382.685 547.651C378.358 543.609 374.089 539.333 369.876 534.825C369.664 534.603 369.397 534.442 369.103 534.356C368.808 534.271 368.496 534.265 368.198 534.34C367.901 534.414 367.628 534.566 367.408 534.78C367.188 534.994 367.029 535.262 366.946 535.558C359.299 563.543 360.321 596.705 388.186 613.329C388.656 613.606 389.047 613.998 389.324 614.469C389.601 614.94 389.755 615.474 389.77 616.021L390.383 638.436C390.388 638.566 390.366 638.696 390.32 638.818C390.273 638.94 390.202 639.051 390.111 639.144C390.021 639.238 389.912 639.313 389.792 639.364C389.672 639.415 389.543 639.441 389.413 639.441L359.81 639.185C359.049 639.174 358.663 638.793 358.651 638.044L358.345 618.286C358.311 615.811 357.062 614.686 354.598 614.913C352.735 615.095 350.635 616.424 348.295 618.899C346.433 620.864 343.203 621.596 338.604 621.096C338.184 621.051 337.837 620.864 337.565 620.534C335.35 617.877 335.623 615.725 338.382 614.079C353.439 605.069 354.955 591.238 349.948 575.653C349.8 575.199 349.522 575.085 349.113 575.312L337.616 581.802C336.287 582.551 335.072 582.398 333.971 581.342C328.983 576.547 334.386 573.295 338.246 570.971C338.829 570.621 339.376 570.291 339.847 569.981C349.198 563.815 349.028 544.653 346.081 535.268C345.997 534.987 345.845 534.73 345.639 534.52C345.433 534.31 345.179 534.153 344.898 534.063C344.616 533.973 344.317 533.951 344.025 534.001C343.733 534.051 343.456 534.17 343.22 534.348L333.477 541.758C332.796 542.269 332.182 542.195 331.637 541.536C329.911 539.435 327.742 538.118 325.131 537.585C324.552 537.471 324.302 537.125 324.381 536.546C325.931 524.18 326.374 514.454 311.964 511.405C309.137 510.803 306.65 511.155 304.504 512.461C296.635 517.281 296.516 524.299 296.873 532.611C296.895 533.117 296.738 533.612 296.431 534.008C289.211 543.565 285.035 539.597 278.747 533.623C278.299 533.198 277.841 532.763 277.371 532.321C277.117 532.084 276.807 531.913 276.47 531.825C276.133 531.737 275.78 531.734 275.442 531.817C275.104 531.9 274.791 532.066 274.534 532.3C274.276 532.533 274.08 532.828 273.964 533.156C268.871 547.532 269.4 561.192 283.435 571.463C285.376 572.882 285.62 574.551 284.167 576.47L282.668 578.429C281.328 580.189 279.613 580.717 277.524 580.013C274.515 579.003 272.136 577.095 270.387 574.29C270.069 573.779 269.638 573.405 269.093 573.166C268.025 572.678 267.083 572.729 266.265 573.319C265.607 573.785 265.153 574.688 264.903 576.028C261.394 595.053 263.506 604.098 279.483 615.527C279.914 615.833 280.176 616.242 280.266 616.753C280.794 619.598 280.556 621.897 278.086 623.685C273.266 627.16 264.29 620.177 260.662 616.957C260.332 616.668 259.932 616.47 259.503 616.384C259.073 616.298 258.628 616.326 258.212 616.466C257.796 616.605 257.425 616.852 257.134 617.18C256.844 617.509 256.645 617.908 256.557 618.337C255.944 621.278 255.279 624.486 254.564 627.961C250.817 646.271 258.516 659.131 273.368 668.908C273.766 669.169 273.97 669.543 273.981 670.032L274.509 727.364C274.509 727.435 274.481 727.504 274.431 727.558C274.381 727.611 274.312 727.645 274.237 727.654C266.288 728.346 258.55 727.432 251.021 724.911C250.851 724.855 250.671 724.836 250.493 724.855C250.314 724.875 250.143 724.933 249.989 725.025C249.835 725.117 249.703 725.242 249.602 725.39C249.501 725.537 249.433 725.706 249.403 725.882C248.154 733.025 248.353 739.895 249.999 746.492C252.435 756.218 258.481 761.106 266.282 766.965C266.646 767.238 266.805 767.601 266.759 768.055L265.806 779.859C265.764 780.353 265.542 780.814 265.184 781.154C264.826 781.493 264.355 781.687 263.864 781.699C257.687 781.812 251.668 781.886 245.809 781.92C236.969 781.988 230.258 791.816 237.599 798.732C239.7 800.719 241.676 801.707 243.527 801.695C421.905 801.582 600.284 801.593 778.663 801.729C795.491 801.746 795.134 782.09 778.595 781.886C771.68 781.807 764.736 781.795 757.764 781.852C757.151 781.852 756.844 781.551 756.844 780.949L756.81 767.851C756.81 767.215 757.077 766.721 757.611 766.369C773.519 756.098 777.13 743.596 774.439 725.269C774.41 725.07 774.335 724.88 774.219 724.715C774.104 724.55 773.952 724.415 773.775 724.319C773.598 724.223 773.401 724.17 773.2 724.163C772.999 724.156 772.799 724.197 772.616 724.281C765.417 727.574 757.849 728.846 749.912 728.096C749.599 728.062 749.31 727.914 749.102 727.681C748.894 727.448 748.782 727.146 748.788 726.836L748.839 669.878C748.839 669.322 749.066 668.885 749.52 668.567C758.905 662.06 765.394 656.61 767.575 644.738C768.971 637.141 768.534 628.773 766.263 619.632C765.888 618.167 765.332 617.23 764.594 616.821C763.976 616.477 763.28 616.326 762.61 616.391C761.941 616.455 761.334 616.732 760.881 617.179C758.087 619.955 748.856 628.54 745.483 622.902C745.349 622.68 745.159 622.497 744.932 622.371C744.704 622.246 744.448 622.182 744.189 622.187L742.077 622.221C741.822 622.226 741.575 622.135 741.382 621.965C741.19 621.795 741.067 621.558 741.038 621.301L740.407 616.412C740.328 615.731 740.595 615.248 741.208 614.965C755.357 608.344 760.784 597.04 757.491 581.052C756.98 578.543 756.538 576.363 756.163 574.512C756.087 574.108 755.895 573.734 755.612 573.437C755.328 573.139 754.965 572.93 754.565 572.835C754.165 572.739 753.746 572.761 753.359 572.899C752.971 573.036 752.632 573.283 752.381 573.609C749.401 577.458 744.376 580.047 739.539 578.548C738.097 578.106 737.171 577.663 736.762 577.22C734.548 574.79 734.917 572.859 737.87 571.429C753.301 563.985 751.973 546.714 747.68 532.764C747.215 531.265 746.38 531.021 745.177 532.032L735.519 540.191C735.345 540.333 735.134 540.423 734.908 540.451C734.682 540.478 734.451 540.441 734.242 540.344L725.947 536.375C725.7 536.258 725.491 536.075 725.341 535.847C725.19 535.618 725.106 535.354 725.095 535.081C725.029 533.453 725.048 531.931 725.065 530.48C725.13 525.207 725.183 520.872 721.109 515.783C713.649 506.483 701.556 512.342 697.757 522.102C696.406 525.576 696.525 530.516 698.115 536.92C698.263 537.522 698.035 537.874 697.434 537.976C694.425 538.521 691.87 539.89 689.769 542.081C689.224 542.649 688.656 542.672 688.066 542.149L678.629 533.82C678.445 533.657 678.222 533.542 677.982 533.488C677.742 533.433 677.492 533.44 677.257 533.509C677.021 533.577 676.808 533.704 676.637 533.878C676.466 534.052 676.342 534.266 676.279 534.502C672.089 549.456 672.566 565.757 688.304 573.626C688.906 573.921 689.144 574.398 689.019 575.057L688.1 579.809C687.986 580.388 687.634 580.712 687.044 580.78C684.659 581.03 682.445 580.678 680.401 579.724C678.965 579.053 678.063 577.732 677.209 576.48C676.37 575.252 675.578 574.09 674.371 573.677C673.554 573.393 672.855 573.461 672.276 573.881C671.72 574.279 671.425 575.045 671.391 576.181C671.22 581.949 670.863 587.706 670.317 593.452C669.415 602.854 677.233 611.064 685.238 614.76C685.772 615.01 686.044 615.43 686.056 616.021C686.067 617.258 685.857 618.445 685.426 619.581C685.198 620.182 684.778 620.568 684.165 620.739C676.824 622.783 672.532 619.529 667.354 615.118C666.968 614.789 666.497 614.575 665.996 614.5C665.494 614.425 664.981 614.493 664.516 614.695C664.051 614.898 663.652 615.227 663.365 615.645C663.078 616.063 662.914 616.553 662.891 617.06L661.903 638.368C661.894 638.56 661.812 638.742 661.672 638.876C661.532 639.009 661.347 639.083 661.154 639.083L633.782 639.185C633.146 639.185 632.834 638.867 632.845 638.231L633.476 614.641C633.487 613.994 633.782 613.517 634.361 613.21C665.378 597.063 665.446 565.808 657.441 535.949C656.839 533.69 655.743 533.417 654.153 535.132C645.79 544.193 634.906 555.145 621.995 555.861ZM540.05 620.517C538.71 620.336 537.336 620.398 535.928 620.705L486.431 621.079C486.18 621.079 485.932 621.134 485.703 621.24C485.473 621.345 485.269 621.5 485.103 621.693L484.643 622.238L484.387 780.813C484.387 781.46 484.716 781.784 485.375 781.784L540.578 781.835C540.794 781.835 540.902 781.721 540.902 781.494L540.885 621.454C540.885 620.898 540.607 620.586 540.05 620.517Z" fill="#010107"/>
<path d="M390.69 349.1C395.675 340.788 398.565 332.106 399.359 323.056" stroke="#804B0B" stroke-width="2"/>
<path d="M399.359 323.057C399.677 322.16 399.802 321.257 399.734 320.349" stroke="#80692F" stroke-width="2"/>
<path d="M399.734 320.348C401.256 309.913 399.882 299.903 395.612 290.32C379.84 254.891 338.859 241.299 305.509 262.096C297.64 267.002 293.024 273.9 287.352 280.236C287.139 280.473 286.989 280.759 286.914 281.069C286.839 281.378 286.842 281.701 286.924 282.008C287.005 282.314 287.162 282.595 287.379 282.824C287.597 283.053 287.868 283.223 288.169 283.319L294.012 285.227" stroke="#80807F" stroke-width="2"/>
<path d="M294.011 285.227C305.106 288.645 314.229 294.646 321.383 303.23" stroke="#807547" stroke-width="2"/>
<path d="M321.384 303.23L322.542 304.763" stroke="#80692F" stroke-width="2"/>
<path d="M322.542 304.763C327.311 310.907 331.075 317.629 333.834 324.93C334.039 325.464 334.368 325.566 334.822 325.237C351.736 312.82 374.986 319.872 384.728 337.126" stroke="#804B0B" stroke-width="2"/>
<path d="M399.359 323.057C395.714 321.336 391.933 322.392 388.816 320.11C368.121 304.951 348.159 298.887 322.542 304.763" stroke="#FFB333" stroke-width="2"/>
<path d="M321.383 303.23C322.326 303.684 322.859 303.787 322.984 303.537C323.365 302.739 323.459 301.834 323.251 300.975C323.043 300.116 322.546 299.355 321.843 298.819C319.674 297.172 317.619 295.469 315.677 293.709C313.451 291.688 311.288 290.177 309.188 289.178C305.679 287.486 302.091 285.936 298.423 284.528C297.878 284.312 297.594 283.915 297.571 283.336L297.486 281.582" stroke="#FFDD6F" stroke-width="2"/>
<path d="M399.734 320.349C398.882 320.61 398.337 320.235 398.099 319.224C391.115 289.809 369.245 258.332 335.418 261.432C319.805 262.863 307.161 269.579 297.486 281.582" stroke="#FFE8A7" stroke-width="2"/>
<path d="M297.486 281.582C296.544 283.092 295.385 284.307 294.011 285.227" stroke="#FEF4BF" stroke-width="2"/>
<path d="M385.086 344.041C384.984 343.121 384.785 342.332 384.49 341.674C384.263 341.197 383.888 340.918 383.366 340.839L381.015 340.498" stroke="#804B0B" stroke-width="2"/>
<path d="M636.899 343.99C636.274 342.843 636.229 341.741 636.763 340.685C648.209 317.946 669.244 314.693 691.268 323.652C691.5 323.749 691.762 323.749 691.995 323.653C692.228 323.557 692.413 323.374 692.511 323.141L697.246 311.798" stroke="#804B0B" stroke-width="2"/>
<path d="M697.246 311.797C699.688 307.028 702.788 302.833 706.546 299.21" stroke="#80692F" stroke-width="2"/>
<path d="M706.546 299.21C712.678 293.68 719.61 289.473 727.343 286.589" stroke="#807547" stroke-width="2"/>
<path d="M727.343 286.59L729.898 285.551" stroke="#80692F" stroke-width="2"/>
<path d="M729.898 285.55L738.244 282.842C738.835 282.661 738.999 282.286 738.738 281.718C737.875 279.833 736.677 277.942 735.144 276.046C720.428 257.94 699.001 249.032 675.955 252.694C645.518 257.549 624.073 286.385 624.925 317.078" stroke="#808082" stroke-width="2"/>
<path d="M624.925 317.078L625.776 325.407" stroke="#80692F" stroke-width="2"/>
<path d="M625.777 325.407C627.355 333.469 630.052 341.321 633.867 348.963" stroke="#804B0B" stroke-width="2"/>
<path d="M727.343 286.589C727.105 285.249 726.333 284.778 725.027 285.176C718.401 287.186 712.882 291.41 707.159 296.213C705.206 297.859 705.002 298.859 706.546 299.211" stroke="#FFDD6F" stroke-width="2"/>
<path d="M697.246 311.798C696.747 312.048 696.287 312.059 695.867 311.832C695.74 311.765 695.63 311.672 695.544 311.558C695.458 311.443 695.398 311.312 695.369 311.172C695.339 311.032 695.341 310.887 695.374 310.748C695.407 310.609 695.471 310.479 695.56 310.367L703.191 300.88C703.318 300.725 703.4 300.537 703.426 300.337C703.452 300.138 703.422 299.936 703.338 299.753C703.255 299.57 703.122 299.414 702.954 299.303C702.786 299.192 702.591 299.131 702.39 299.126C681.099 298.41 659.587 303.282 642.043 314.983C638.364 317.436 633.901 321.404 629.49 322.018C628.899 322.097 628.468 322.404 628.195 322.937C627.616 324.027 626.81 324.851 625.777 325.407" stroke="#FFB333" stroke-width="2"/>
<path d="M729.898 285.55C729.506 283.489 729.574 282.536 728.144 280.849C713.064 263.169 694.492 257.077 672.429 262.573C658.531 266.048 650.168 274.973 642.264 286.078C636.848 293.692 633.56 303.861 630.358 312.598C629.45 315.074 627.639 316.567 624.925 317.078" stroke="#FFE8AA" stroke-width="2"/>
<path d="M390.69 349.1C395.675 340.788 398.565 332.107 399.36 323.057C399.678 322.16 399.802 321.257 399.734 320.349C401.256 309.913 399.882 299.904 395.612 290.32C379.84 254.892 338.859 241.299 305.509 262.096C297.64 267.002 293.024 273.9 287.352 280.236C287.139 280.473 286.989 280.76 286.914 281.069C286.839 281.379 286.842 281.701 286.924 282.008C287.005 282.314 287.162 282.595 287.379 282.824C287.597 283.053 287.868 283.223 288.169 283.319L294.012 285.227C305.106 288.645 314.23 294.646 321.383 303.231L322.542 304.764C327.311 310.907 331.075 317.629 333.834 324.93C334.039 325.464 334.368 325.566 334.822 325.237C351.736 312.82 374.986 319.872 384.728 337.126C380.913 336.308 378.494 337.495 377.472 340.686C377.291 341.242 376.91 341.537 376.331 341.571C372.062 341.855 368.99 341.799 367.116 341.401C355 338.812 343.782 340.635 333.46 346.869C332.699 347.323 332.761 347.539 333.647 347.516C363.216 346.562 396.788 365.043 394.165 399.193C393.739 404.78 393.858 407.063 391.695 411.031C391.482 411.422 391.188 411.762 390.833 412.03C390.478 412.297 390.07 412.486 389.636 412.583C389.202 412.679 388.752 412.682 388.317 412.591C387.882 412.5 387.471 412.316 387.113 412.053C382.037 408.34 377.03 398.257 373.64 392.823C366.373 381.195 356.323 372.935 343.492 368.04C342.118 367.518 341.925 367.802 342.913 368.892C359.605 387.265 365.697 409.231 361.189 434.792C360.315 439.788 358.85 444.461 356.795 448.81C356.713 448.978 356.588 449.121 356.432 449.223C356.276 449.326 356.095 449.385 355.909 449.394C355.722 449.402 355.537 449.361 355.372 449.273C355.207 449.185 355.069 449.055 354.972 448.895C346.864 435.047 342.317 422.358 337.854 405.666C335.112 395.446 332.557 384.222 326.629 375.279C326.266 374.746 326.016 374.791 325.88 375.416C322.178 392.051 320.316 405.882 320.293 416.908C320.248 438.789 320.254 460.653 320.31 482.501C320.327 491.92 304.351 492.533 300.672 485.379C299.843 483.79 299.428 480.951 299.428 476.863C299.405 460.148 299.462 443.433 299.598 426.718C299.723 411.355 301.921 397.229 306.19 384.341C307.394 380.707 306.633 380.236 303.908 382.927C289.18 397.473 279.977 414.699 276.298 434.605C275.389 439.578 274.623 444.484 273.998 449.321C273.957 449.639 273.846 449.944 273.673 450.214C273.5 450.484 273.268 450.712 272.996 450.881C272.724 451.051 272.417 451.158 272.099 451.194C271.78 451.231 271.457 451.196 271.154 451.092C263.267 448.401 257.97 435.712 256.999 428.745C254.036 407.437 270.558 382.927 287.471 371.498C289.174 370.34 289.044 370.067 287.079 370.681C272.107 375.365 258.447 385.55 246.848 396.059C241.312 401.084 234.942 396.843 235.862 389.808C239.558 361.142 273.879 347.516 299.122 350.02C302.891 350.394 303.011 349.895 299.479 348.521C284.456 342.696 268.332 340.379 251.106 341.571C245.269 341.969 239.603 342.128 234.107 342.048C233.908 342.044 233.714 341.988 233.543 341.885C233.373 341.782 233.232 341.636 233.137 341.463C233.042 341.29 232.995 341.095 233 340.898C233.006 340.702 233.065 340.511 233.171 340.345C239.598 329.978 248.761 323.971 260.661 322.324C274.288 320.434 284.013 323.227 296.175 328.712C297.924 329.495 298.179 329.155 296.941 327.69C291.945 321.751 287.17 315.29 282.617 308.306C280.402 304.911 277.541 302.254 274.032 300.335C273.555 300.08 273.009 299.973 272.465 300.028C269.081 300.369 266.543 299.847 264.852 298.461C259.554 294.118 260.798 287.697 263.421 281.718C271.324 263.686 283.837 250.304 300.961 241.572C331.972 225.765 361.24 227.974 388.765 248.198C421.332 272.112 433.459 328.184 404.027 359.575C403.732 359.886 403.327 360.068 402.899 360.08C402.472 360.093 402.056 359.936 401.744 359.643L390.69 349.1Z" fill="#010107"/>
<path d="M636.899 343.99C636.274 342.843 636.229 341.741 636.762 340.685C648.209 317.947 669.244 314.693 691.267 323.653C691.5 323.749 691.761 323.749 691.994 323.653C692.227 323.558 692.413 323.374 692.511 323.142L697.246 311.798C699.687 307.029 702.787 302.833 706.546 299.211C712.678 293.681 719.61 289.473 727.343 286.589L729.898 285.55L738.244 282.842C738.834 282.66 738.999 282.286 738.738 281.718C737.875 279.833 736.677 277.942 735.144 276.046C720.428 257.94 699 249.032 675.955 252.694C645.517 257.548 624.073 286.385 624.925 317.078L625.776 325.407C627.355 333.469 630.052 341.321 633.867 348.963L623.954 360.018C623.71 360.291 623.378 360.469 623.014 360.522C622.65 360.575 622.277 360.499 621.961 360.307C613.683 355.248 607.892 339.067 606.086 330.074C600.057 300.13 611.809 268.96 634.94 249.918C678.442 214.098 741.242 232.561 763.027 282.655C766.041 289.57 765.735 296.094 758.973 300.079C758.45 300.386 757.894 300.494 757.304 300.403C753.034 299.778 749.809 300.443 747.629 302.396C740.555 308.721 734.247 317.572 728.706 328.95C728.422 329.54 728.598 329.739 729.234 329.546C729.642 329.421 729.904 329.092 730.017 328.558C730.06 328.364 730.143 328.181 730.26 328.02C730.377 327.859 730.526 327.723 730.698 327.621C740.611 321.949 757.61 320.348 768.392 323.465C777.908 326.225 785.595 331.72 791.454 339.953C791.631 340.204 791.733 340.5 791.749 340.807C791.765 341.114 791.694 341.419 791.545 341.687C791.396 341.956 791.174 342.177 790.905 342.325C790.636 342.473 790.33 342.542 790.024 342.525C769.533 341.162 745.244 339.374 726.168 348.844C724.998 349.423 725.066 349.701 726.372 349.679C752.432 349.168 784.079 360.682 789.393 390.081C790.132 394.123 788.848 396.894 785.544 398.393C785.015 398.635 784.426 398.689 783.875 398.546C781.093 397.808 778.816 396.689 777.045 395.19C764.645 384.675 751.598 376.205 737.903 369.777C737.746 369.702 737.566 369.688 737.402 369.738C737.237 369.789 737.099 369.901 737.018 370.05L736.779 370.442C736.711 370.567 736.734 370.669 736.847 370.748C750.042 379.821 759.433 391.256 765.019 405.052C770.266 418.014 770.249 444.347 754.323 450.956C753.992 451.091 753.634 451.146 753.278 451.117C752.922 451.088 752.578 450.974 752.274 450.787C751.971 450.599 751.715 450.342 751.53 450.037C751.344 449.732 751.233 449.387 751.206 449.031C749.253 422.006 738.761 399.017 719.729 380.065C719.048 379.384 718.821 379.515 719.048 380.457C726.781 413.773 725.537 441.792 725.844 473.49C725.889 478.907 725.1 482.75 723.477 485.021C718.486 492.039 704.383 490.268 704.536 478.787C704.996 443.444 706.427 408.953 699.477 374.019C699.352 373.405 699.159 373.383 698.898 373.95C693.289 386.214 689.002 398.881 686.038 411.951C684.187 420.092 682.439 426.116 680.792 430.022C678.112 436.381 674.996 442.434 671.441 448.179C671.326 448.361 671.165 448.508 670.974 448.606C670.784 448.705 670.571 448.75 670.358 448.738C670.145 448.726 669.94 448.656 669.765 448.537C669.59 448.418 669.451 448.253 669.363 448.06C656.861 421.046 662.448 388.701 682.99 367.495C683.342 367.132 683.285 367.052 682.819 367.257C667.058 374.024 655.01 384.948 646.676 400.028C644.62 403.752 642.185 407.181 639.369 410.316C638.119 411.712 636.694 411.922 635.093 410.946C633.373 409.907 632.47 408.51 632.147 406.415C630.716 397.2 630.392 387.406 634.327 378.873C643.899 358.144 667.711 347.464 689.394 347.499C692.13 347.499 692.289 346.857 689.871 345.574C675.631 337.96 658.054 340.43 643.303 344.416C641.94 344.79 641.526 344.325 642.06 343.019L642.622 341.622C642.985 340.725 642.69 340.373 641.736 340.566C639.828 340.952 638.216 342.093 636.899 343.99Z" fill="#010107"/>
<path d="M729.898 285.55C729.507 283.489 729.575 282.536 728.144 280.849C713.064 263.169 694.493 257.077 672.43 262.573C658.531 266.048 650.168 274.973 642.265 286.078C636.848 293.692 633.561 303.861 630.359 312.599C629.45 315.074 627.639 316.567 624.925 317.078C624.073 286.385 645.518 257.549 675.955 252.694C699.001 249.032 720.428 257.94 735.144 276.046C736.677 277.942 737.875 279.833 738.738 281.718C738.999 282.286 738.835 282.661 738.244 282.842L729.898 285.55Z" fill="#FEFEFD"/>
<path d="M399.734 320.348C398.883 320.61 398.338 320.235 398.099 319.224C391.116 289.809 369.246 258.332 335.418 261.432C319.805 262.863 307.161 269.579 297.486 281.582C296.544 283.092 295.386 284.307 294.012 285.227L288.169 283.319C287.868 283.223 287.597 283.053 287.379 282.824C287.162 282.595 287.005 282.314 286.924 282.008C286.842 281.701 286.839 281.378 286.914 281.069C286.989 280.759 287.139 280.473 287.352 280.236C293.024 273.9 297.64 267.002 305.509 262.096C338.859 241.299 379.84 254.891 395.612 290.32C399.882 299.903 401.256 309.913 399.734 320.348Z" fill="#FEFEF7"/>
<path d="M729.898 285.55L727.343 286.589C727.105 285.249 726.332 284.778 725.027 285.176C718.401 287.185 712.882 291.41 707.159 296.213C705.206 297.859 705.002 298.859 706.546 299.211C702.787 302.833 699.687 307.029 697.246 311.798C696.746 312.048 696.287 312.059 695.866 311.832C695.74 311.765 695.63 311.672 695.544 311.558C695.457 311.443 695.398 311.312 695.368 311.172C695.339 311.032 695.341 310.887 695.374 310.748C695.407 310.609 695.471 310.479 695.56 310.367L703.191 300.88C703.318 300.725 703.4 300.537 703.426 300.337C703.452 300.138 703.421 299.936 703.338 299.753C703.255 299.57 703.122 299.414 702.954 299.303C702.786 299.192 702.591 299.131 702.39 299.125C681.099 298.41 659.587 303.281 642.043 314.983C638.364 317.436 633.901 321.404 629.49 322.018C628.899 322.097 628.468 322.404 628.195 322.937C627.616 324.027 626.81 324.851 625.776 325.407L624.925 317.078C627.639 316.567 629.45 315.074 630.358 312.598C633.56 303.861 636.848 293.692 642.264 286.078C650.168 274.973 658.531 266.048 672.429 262.573C694.492 257.077 713.064 263.169 728.144 280.849C729.574 282.536 729.506 283.489 729.898 285.55Z" fill="#FFD157"/>
<path d="M399.734 320.349C399.802 321.257 399.677 322.16 399.359 323.057C395.714 321.336 391.933 322.392 388.816 320.11C368.121 304.951 348.159 298.887 322.541 304.764L321.383 303.231C322.326 303.685 322.859 303.787 322.984 303.537C323.365 302.739 323.459 301.835 323.251 300.976C323.043 300.116 322.546 299.355 321.843 298.819C319.674 297.173 317.619 295.469 315.677 293.709C313.451 291.688 311.288 290.178 309.188 289.179C305.679 287.487 302.091 285.937 298.423 284.529C297.878 284.313 297.594 283.915 297.571 283.336L297.486 281.582C307.161 269.579 319.805 262.863 335.418 261.432C369.245 258.332 391.115 289.809 398.099 319.224C398.337 320.235 398.882 320.61 399.734 320.349Z" fill="#FFD157"/>
<path d="M297.486 281.582L297.571 283.336C297.594 283.915 297.878 284.312 298.423 284.528C302.091 285.936 305.679 287.486 309.188 289.178C311.288 290.177 313.452 291.688 315.677 293.709C317.619 295.469 319.674 297.172 321.843 298.819C322.546 299.355 323.043 300.116 323.251 300.975C323.459 301.834 323.365 302.739 322.984 303.537C322.859 303.787 322.326 303.684 321.383 303.23C314.229 294.646 305.106 288.644 294.011 285.227C295.385 284.307 296.544 283.092 297.486 281.582Z" fill="#FEE986"/>
<path d="M727.343 286.589C719.61 289.474 712.678 293.681 706.546 299.211C705.002 298.859 705.206 297.859 707.159 296.213C712.882 291.41 718.401 287.186 725.027 285.176C726.333 284.778 727.105 285.249 727.343 286.589Z" fill="#FEE986"/>
<path d="M697.246 311.798L692.511 323.142C692.413 323.374 692.228 323.558 691.995 323.654C691.762 323.749 691.5 323.749 691.268 323.653C669.244 314.694 648.209 317.947 636.763 340.686C636.229 341.742 636.275 342.843 636.899 343.99L633.867 348.963C630.052 341.321 627.355 333.469 625.777 325.407C626.81 324.851 627.616 324.027 628.195 322.937C628.468 322.404 628.899 322.097 629.49 322.018C633.901 321.404 638.364 317.436 642.043 314.983C659.587 303.282 681.099 298.41 702.39 299.126C702.591 299.131 702.786 299.192 702.954 299.303C703.122 299.414 703.255 299.57 703.338 299.753C703.422 299.936 703.452 300.138 703.426 300.337C703.4 300.537 703.318 300.725 703.191 300.88L695.56 310.367C695.471 310.479 695.407 310.609 695.374 310.748C695.341 310.887 695.339 311.032 695.369 311.172C695.398 311.312 695.458 311.443 695.544 311.558C695.63 311.672 695.74 311.765 695.867 311.832C696.287 312.059 696.747 312.048 697.246 311.798Z" fill="#FE940E"/>
<path d="M399.359 323.057C398.565 332.107 395.675 340.788 390.69 349.1L385.086 344.041C384.984 343.121 384.785 342.332 384.49 341.674C384.263 341.197 383.888 340.918 383.366 340.839L381.015 340.498C382.151 340.635 383.15 340.549 384.013 340.243C384.717 339.993 385.097 339.584 385.154 339.016C385.2 338.494 385.058 337.864 384.728 337.126C374.986 319.872 351.736 312.82 334.822 325.237C334.368 325.566 334.039 325.464 333.834 324.93C331.075 317.629 327.311 310.907 322.542 304.763C348.159 298.887 368.121 304.951 388.816 320.11C391.933 322.392 395.714 321.336 399.359 323.057Z" fill="#FE940E"/>
<path d="M381.016 340.498L383.366 340.839C383.888 340.918 384.263 341.197 384.49 341.674C384.786 342.332 384.984 343.121 385.086 344.041C381.93 345.143 380.039 344.739 379.414 342.832C379.006 341.549 379.539 340.771 381.016 340.498Z" fill="#010107"/>
<path d="M535.997 811.966C535.02 811.989 534.021 812 532.999 812C477.336 811.75 442.276 811.506 427.821 811.268C390.86 810.671 356.471 811.796 320.838 811.847C306.94 811.864 287.147 810.569 270.183 811.148C270.056 811.153 269.93 811.132 269.811 811.087C269.693 811.042 269.584 810.975 269.492 810.887C269.4 810.8 269.327 810.695 269.275 810.579C269.224 810.463 269.197 810.338 269.195 810.212V809.666C269.195 808.565 269.746 807.986 270.847 807.929C284.456 807.231 296.669 808.747 309.58 807.997C316.881 807.589 325.068 807.549 334.141 807.878C341.317 808.151 354.501 808.185 373.691 807.98C373.759 807.98 374.071 808.02 374.628 808.1C375.003 808.145 375.338 808.071 375.633 807.878C376.064 807.606 376.53 807.481 377.029 807.503C390.633 808.071 400.325 808.224 406.104 807.963C423.767 807.129 445.007 808.406 458.906 808.406C477.926 808.395 496.946 808.349 515.966 808.27C530.864 808.213 545.768 808.213 560.677 808.27C624.505 808.486 688.338 808.452 752.177 808.168C758.632 808.134 767.983 807.061 776.278 808.576C776.553 808.629 776.8 808.778 776.975 808.997C777.15 809.215 777.241 809.489 777.232 809.769C777.221 810.121 777.067 810.439 776.772 810.723C776.545 810.916 776.233 811.018 775.835 811.029C771.441 811.114 766.825 811.574 762.618 811.506C728.808 811.08 694.998 811.745 661.188 811.216C619.457 810.581 577.727 810.83 535.997 811.966Z" fill="#B7CEE2"/>
<path d="M570.607 439.016L509.987 438.437" stroke="#005D8A" stroke-width="2"/>
<path d="M554.596 468.176L508.778 468.346" stroke="#C7934D" stroke-width="2"/>
<path d="M557.407 485.073C555.556 485.686 554.812 486.146 555.176 486.452" stroke="#CFE0EE" stroke-width="2"/>
<path d="M555.176 486.452C548.482 486.452 541.737 487.576 535.265 487.287C529.928 487.048 524.591 486.952 519.254 486.997C513.224 487.065 507.904 487.02 503.294 486.861C492.87 486.52 482.446 486.503 472.022 486.81C470.097 486.878 467.815 486.367 465.6 486.469" stroke="#54B2D2" stroke-width="2"/>
<path d="M465.6 486.469C465.884 485.674 465.901 485.248 465.651 485.191" stroke="#CFE0EE" stroke-width="2"/>
<path d="M592.562 506.04L562.738 490.864" stroke="#8094AB" stroke-width="2"/>
<path d="M562.738 490.863C559.689 488.7 560.371 485.294 555.176 486.452" stroke="#83D0E1" stroke-width="2"/>
<path d="M465.6 486.469C464.26 488.911 462.835 490.432 461.324 491.034" stroke="#83D0E1" stroke-width="2"/>
<path d="M461.325 491.034L428.758 505.802" stroke="#8094AB" stroke-width="2"/>
<path d="M562.738 490.864C562.17 490.841 561.739 491.108 561.443 491.664C561.318 491.903 561.25 492.351 561.239 493.01C561.154 498.324 554.017 501.134 549.554 501.186C527.707 501.39 505.871 501.18 484.046 500.555C475.564 500.3 465.736 499.108 461.324 491.034" stroke="#04668F" stroke-width="2"/>
<path d="M459.11 558.262C460.234 559.727 459.229 560.244 456.095 559.812C455.574 559.742 455.044 559.787 454.542 559.944C454.039 560.1 453.578 560.365 453.188 560.718C452.799 561.072 452.491 561.507 452.287 561.991C452.084 562.476 451.988 563 452.008 563.525C452.28 570.526 452.229 577.407 452.808 584.816C453.285 591.073 453.41 597.341 453.183 603.621C453.132 605.307 453.932 606.959 454.017 608.765C455.039 629.715 453.83 650.955 454.12 671.99C454.176 676.669 453.489 684.617 452.059 695.836" stroke="#FED25C" stroke-width="2"/>
<path d="M452.059 695.836C450.503 700.299 450.089 705.369 450.816 711.047" stroke="#FEBF4A" stroke-width="2"/>
<path d="M450.816 711.047C449.555 717.394 449.663 723.651 451.139 729.817" stroke="#C79F65" stroke-width="2"/>
<path d="M463.761 710.706C459.145 711.915 455.227 711.251 450.816 711.047" stroke="#C77529" stroke-width="2"/>
<path d="M575.24 558.245L575.172 559.864C575.149 560.329 574.905 560.579 574.44 560.613C573.27 560.693 572.651 561.34 572.583 562.555C571.72 577.033 571.118 592.788 570.778 609.821C570.352 631.18 571.357 658.858 570.488 683.488C570.397 686.02 570.715 689.216 571.442 693.077C571.658 694.224 572.072 695.081 572.685 695.649C573.707 696.58 574.775 696.768 575.887 696.211" stroke="#FED25C" stroke-width="2"/>
<path d="M575.956 708.645C575.626 709.417 575.127 709.764 574.457 709.684C573.821 709.605 573.492 709.247 573.469 708.611L573.162 699.073C573.144 698.392 572.895 697.738 572.455 697.217C572.015 696.697 571.412 696.342 570.744 696.211L561.767 694.508" stroke="#FEA820" stroke-width="2"/>
<path d="M463.931 695.734L452.059 695.836" stroke="#FEA820" stroke-width="2"/>
<path d="M576.16 710.076C570.676 711.915 565.895 711.984 561.819 710.28" stroke="#D87723" stroke-width="2"/>
<path d="M553.728 586.775L470.829 586.571" stroke="#E4A558" stroke-width="2"/>
<path d="M535.928 620.705L486.431 621.079C486.18 621.079 485.932 621.134 485.703 621.239C485.473 621.345 485.269 621.5 485.102 621.692L484.643 622.238" stroke="#CFE0EB" stroke-width="2"/>
<path d="M436.167 636.767L419.492 637.55C418.186 637.618 417.533 638.305 417.533 639.611L417.772 694.116C417.772 694.268 417.741 694.419 417.682 694.558C417.622 694.698 417.534 694.824 417.425 694.93C417.315 695.035 417.185 695.116 417.042 695.17C416.9 695.223 416.748 695.247 416.596 695.24C413.848 695.115 411.197 695.467 408.642 696.296" stroke="#FEDD98" stroke-width="2"/>
<path d="M436.559 707.402L436.389 709.701C436.343 710.224 436.065 710.507 435.554 710.553C426.163 711.473 417.147 711.001 408.506 709.139" stroke="#C6883B" stroke-width="2"/>
<path d="M616.085 696.228L609.016 695.07C608.591 695.002 608.203 694.786 607.923 694.462C607.642 694.138 607.486 693.725 607.483 693.299L607.04 639.254C607.04 639.162 607.022 639.071 606.987 638.986C606.952 638.902 606.901 638.825 606.836 638.76C606.771 638.695 606.694 638.643 606.609 638.608C606.524 638.573 606.434 638.555 606.342 638.555L589.599 638.64" stroke="#FEDD98" stroke-width="2"/>
<path d="M616.374 709.735C607.563 710.916 598.637 711.251 589.599 710.74" stroke="#C6883B" stroke-width="2"/>
<path d="M730.069 718.388L697.502 718.473" stroke="#D88A35" stroke-width="2"/>
<path d="M325.096 717.366L292.615 717.247" stroke="#D88A35" stroke-width="2"/>
<path d="M325.165 725.252C323.825 725.014 322.689 725.258 321.758 725.985C321.384 726.268 321.384 726.552 321.758 726.836C322.008 727.018 322.195 727.211 322.32 727.415" stroke="#D95743" stroke-width="2"/>
<path d="M389.327 702.292C379.822 702.349 365.118 702.74 345.212 703.467C343.747 703.524 343.117 702.837 343.321 701.406" stroke="#D88A35" stroke-width="2"/>
<path d="M679.413 703.28L636.184 703.654" stroke="#D88A35" stroke-width="2"/>
<path d="M679.515 712.852C665.094 711.626 650.946 711.353 637.069 712.035C636.769 712.053 636.474 711.953 636.248 711.755C636.021 711.558 635.882 711.278 635.86 710.979C635.815 710.275 635.627 709.65 635.298 709.105" stroke="#A1573D" stroke-width="2"/>
<path d="M388.867 728.591L352.724 728.369" stroke="#015684" stroke-width="2"/>
<path d="M388.476 735.727L343.101 734.518" stroke="#015684" stroke-width="2"/>
<path d="M679.532 733.734C666.337 733.973 653.12 733.95 639.879 733.666C637.722 733.621 636.501 732.621 636.217 730.668" stroke="#04668F" stroke-width="2"/>
<path d="M387.317 752.777L311.215 753.441" stroke="#7799B1" stroke-width="2"/>
<path d="M311.215 753.441L286.534 753.493" stroke="#7892AA" stroke-width="2"/>
<path d="M385.597 753.578L311.215 753.441" stroke="#01325F" stroke-width="2"/>
<path d="M461.955 756.252C461.796 756.297 461.637 756.343 461.478 756.388" stroke="#80B0C3" stroke-width="2"/>
<path d="M461.478 756.388C459.196 756.422 457.487 756.258 456.351 755.894C453.626 755.026 452.025 755.656 449.828 755.588C438.813 755.167 427.782 754.918 416.733 754.838C413.19 754.815 410.414 755.792 408.404 757.768" stroke="#CFE0EE" stroke-width="2"/>
<path d="M461.478 756.388C457.067 759.215 442.35 758.023 436.082 757.853C428.588 757.648 419.748 758.909 411.47 758.142C411.197 758.116 410.921 758.153 410.665 758.252C410.409 758.351 410.18 758.509 409.996 758.713C409.812 758.917 409.679 759.161 409.606 759.426C409.534 759.69 409.525 759.968 409.579 760.237C410.033 762.452 409.71 764.757 408.608 767.153" stroke="#5192B4" stroke-width="2"/>
<path d="M616.596 757.325L563.658 756.865" stroke="#7FC0D6" stroke-width="2"/>
<path d="M616.511 777.798C608.221 776.765 599.847 776.64 591.387 777.423" stroke="#005D8A" stroke-width="2"/>
<path d="M662.074 771.241C660.995 772.002 660.291 772.785 659.961 773.591C659.916 773.698 659.898 773.814 659.909 773.929C659.92 774.044 659.959 774.155 660.023 774.251C660.087 774.347 660.175 774.426 660.277 774.481C660.379 774.535 660.493 774.563 660.609 774.562L737.903 774.596" stroke="#78A6BE" stroke-width="2"/>
<path d="M311.47 771.377L338.484 772.467C339.177 772.501 339.256 772.745 338.723 773.199C338.393 773.472 338.002 773.586 337.547 773.54C333.579 773.097 329.746 774.426 326.187 774.375C321.996 774.307 317.812 774.414 313.633 774.698" stroke="#ACC8E1" stroke-width="2"/>
<path d="M313.633 774.698L285.666 774.817" stroke="#5C90B1" stroke-width="2"/>
<path d="M358.021 771.275L371.204 772.024C372.067 772.07 372.158 772.365 371.477 772.91C368.735 775.073 357.902 774.443 354.206 774.324" stroke="#507EA2" stroke-width="2"/>
<path d="M354.205 774.323L313.633 774.698" stroke="#518AAF" stroke-width="2"/>
<path d="M376.024 771.803C379.215 772.893 382.701 772.796 386.483 771.513" stroke="#014E77" stroke-width="2"/>
<path d="M337.803 780.54L345.74 778.922C346.183 778.832 346.586 778.656 346.95 778.394C347.347 778.11 347.551 777.787 347.563 777.423C347.574 776.742 347.92 776.373 348.602 776.316L365.635 774.971C365.862 774.948 365.975 774.852 365.975 774.681V774.664C365.964 774.482 365.867 774.392 365.686 774.392L354.206 774.323" stroke="#014672" stroke-width="2"/>
<path d="M524.704 257.701C523.978 258.121 523.194 258.331 522.354 258.331C514.519 258.388 506.689 258.019 498.866 257.224C498.298 257.168 497.764 257.258 497.264 257.497C494.863 258.621 490.077 260.972 487.505 260.137C486.517 259.819 486.517 259.507 487.505 259.2C492.206 257.701 496.072 254.806 501.046 254.908C508.733 255.078 516.409 255.101 524.074 254.976C526.799 254.942 531.307 256.901 537.598 260.852C537.678 260.898 537.695 260.96 537.649 261.04L537.428 261.448C537.371 261.539 537.292 261.568 537.189 261.534L526.544 257.531C525.908 257.292 525.295 257.349 524.704 257.701Z" fill="#FEFEFD"/>
<path d="M543.696 301.493C540.528 299.052 537.234 297.842 533.817 297.865C520.463 297.945 507.104 297.945 493.738 297.865C489.685 297.831 486.057 298.836 482.565 300.148C477.069 302.192 476.785 301.624 481.713 298.444C484.967 296.349 489.855 294.152 494.215 294.169C507.149 294.214 520.083 294.249 533.016 294.271C535.866 294.271 539.829 296.292 544.905 300.335C545.257 300.619 545.257 300.897 544.905 301.17L544.496 301.493C544.224 301.698 543.957 301.698 543.696 301.493Z" fill="#FEFEFD"/>
<path d="M534.345 328.246C534.345 328.307 534.333 328.366 534.31 328.422C534.287 328.478 534.253 328.529 534.211 328.572C534.168 328.614 534.117 328.648 534.062 328.672C534.006 328.695 533.946 328.707 533.886 328.707L489.362 328.785C489.302 328.785 489.242 328.773 489.186 328.75C489.13 328.727 489.079 328.693 489.036 328.651C488.994 328.608 488.96 328.557 488.937 328.502C488.913 328.446 488.901 328.386 488.901 328.326L488.901 328.121C488.901 328.061 488.912 328.001 488.935 327.945C488.959 327.889 488.992 327.839 489.035 327.796C489.078 327.753 489.128 327.719 489.184 327.696C489.24 327.673 489.299 327.661 489.36 327.66L533.884 327.583C533.944 327.583 534.004 327.594 534.06 327.617C534.115 327.64 534.166 327.674 534.209 327.717C534.252 327.759 534.286 327.81 534.309 327.866C534.332 327.922 534.344 327.981 534.344 328.042L534.345 328.246Z" fill="#FEE986"/>
<path d="M539.523 343.734C545.291 346.051 550.838 348.781 556.164 351.927C559.298 353.778 559.127 354.169 555.653 353.102C549.299 351.143 543.474 348.537 536.61 348.486C519.373 348.35 502.147 348.35 484.932 348.486C481.833 348.52 475.928 350.326 467.218 353.903C466.821 354.062 466.577 353.937 466.486 353.528C466.452 353.369 466.412 353.204 466.367 353.034C466.337 352.904 466.346 352.767 466.395 352.643C466.444 352.518 466.529 352.411 466.639 352.336C472.107 348.367 480.214 343.189 487.862 343.223C504.668 343.303 521.173 343.337 537.376 343.325C538.126 343.325 538.841 343.462 539.523 343.734Z" fill="#FEFEFD"/>
<path d="M478.46 399.67C470.284 403.292 462.023 407.108 453.677 411.116C453.572 411.166 453.458 411.191 453.342 411.189C453.226 411.188 453.113 411.159 453.012 411.106C452.91 411.053 452.824 410.976 452.759 410.883C452.694 410.79 452.652 410.683 452.638 410.571L452.553 409.975C452.53 409.816 452.587 409.697 452.723 409.617C460.899 404.428 468.592 399.977 475.802 396.264C478.176 395.049 480.742 394.424 483.501 394.39C503.123 394.14 522.733 394.191 542.333 394.543C544.626 394.577 546.767 395.185 548.754 396.366C556.884 401.203 565.117 405.813 573.452 410.196C573.588 410.264 573.622 410.367 573.554 410.503L573.349 410.929C573.145 411.338 572.838 411.445 572.43 411.252C566.071 408.311 559.678 405.421 553.251 402.583C550.548 401.39 547.715 400.772 544.751 400.726C523.756 400.42 502.765 400.192 481.781 400.045C481.032 400.028 480.231 399.568 479.43 399.483C479.135 399.46 478.812 399.522 478.46 399.67Z" fill="#FEFEFD"/>
<path d="M570.607 439.016L509.987 438.437C512.258 438.176 514.535 438.022 516.817 437.977C540.096 437.545 556.986 437.443 567.49 437.67C568.66 437.693 569.699 438.141 570.607 439.016Z" fill="#003965"/>
<path d="M509.987 438.437L570.607 439.016C571.413 438.754 572.049 438.715 572.515 438.896C572.706 438.975 572.865 439.118 572.964 439.3C573.063 439.482 573.096 439.693 573.059 439.897C573.021 440.1 572.914 440.285 572.756 440.419C572.598 440.553 572.398 440.629 572.191 440.634L451.326 440.889C450.747 440.901 450.458 440.611 450.458 440.021V439.288C450.458 438.948 450.628 438.777 450.969 438.777L509.987 438.437Z" fill="#0081AF"/>
<path d="M554.597 468.176L508.779 468.346L470.983 468.176C470.837 468.176 470.694 468.147 470.56 468.09C470.426 468.033 470.306 467.949 470.205 467.844C470.105 467.739 470.027 467.614 469.976 467.478C469.925 467.342 469.903 467.197 469.91 467.052L470.046 462.572C470.069 461.845 470.443 461.482 471.17 461.482L553.932 461.38C554.466 461.38 554.801 461.635 554.937 462.146C555.437 464.043 555.323 466.053 554.597 468.176Z" fill="#FFD157"/>
<path d="M557.407 485.073C555.556 485.686 554.813 486.146 555.176 486.452C548.482 486.452 541.737 487.576 535.265 487.287C529.928 487.048 524.591 486.952 519.254 486.997C513.224 487.065 507.904 487.02 503.294 486.861C492.87 486.52 482.446 486.503 472.022 486.81C470.097 486.878 467.815 486.367 465.6 486.469C465.884 485.674 465.901 485.248 465.651 485.192L557.407 485.073Z" fill="#A0C2DF"/>
<path d="M465.651 485.192C465.901 485.248 465.884 485.674 465.6 486.469C464.26 488.91 462.835 490.432 461.325 491.034L428.758 505.801C426.646 506.744 425.068 507.221 424.023 507.232C422.002 507.255 421.843 506.738 423.546 505.682C435.73 498.085 448.647 491.335 462.296 485.43C462.83 485.203 463.948 485.123 465.651 485.192Z" fill="#FEFEFD"/>
<path d="M557.407 485.073C562.142 486.14 565.52 487.241 567.541 488.377C578.545 494.531 589.44 500.675 600.227 506.806C601.272 507.397 601.198 507.709 600.006 507.743C597.269 507.823 594.788 507.255 592.563 506.04L562.738 490.864C559.689 488.7 560.371 485.294 555.176 486.452C554.812 486.146 555.556 485.686 557.407 485.073Z" fill="#FEFEFD"/>
<path d="M465.6 486.469C467.814 486.367 470.096 486.878 472.021 486.81C482.445 486.503 492.869 486.52 503.293 486.861C507.904 487.02 513.223 487.065 519.253 486.997C524.59 486.952 529.927 487.048 535.264 487.287C541.736 487.576 548.481 486.452 555.175 486.452C560.37 485.294 559.689 488.7 562.738 490.863C562.17 490.841 561.739 491.108 561.443 491.664C561.318 491.903 561.25 492.351 561.239 493.01C561.154 498.324 554.017 501.134 549.554 501.185C527.707 501.39 505.871 501.18 484.046 500.555C475.564 500.3 465.736 499.107 461.324 491.034C462.835 490.432 464.26 488.91 465.6 486.469Z" fill="#07A1C5"/>
<path d="M562.738 490.864L592.562 506.04C584.001 507.164 577.488 507.749 573.026 507.794C537.507 508.192 490.337 508.158 431.517 507.692C430.927 507.681 430.427 507.471 430.019 507.062L428.758 505.801L461.325 491.034C465.736 499.108 475.564 500.3 484.047 500.555C505.871 501.18 527.707 501.39 549.555 501.186C554.017 501.134 561.154 498.324 561.239 493.01C561.251 492.351 561.319 491.903 561.444 491.664C561.739 491.108 562.17 490.841 562.738 490.864Z" fill="#012A58"/>
<path d="M591.234 536.056C591.233 536.231 591.198 536.403 591.131 536.564C591.064 536.725 590.965 536.871 590.841 536.994C590.718 537.117 590.571 537.215 590.409 537.281C590.248 537.347 590.075 537.381 589.901 537.38L433.745 536.835C433.57 536.835 433.398 536.8 433.237 536.732C433.076 536.665 432.93 536.567 432.807 536.443C432.684 536.319 432.587 536.172 432.52 536.011C432.454 535.849 432.42 535.677 432.421 535.502L432.421 535.434C432.422 535.26 432.457 535.087 432.524 534.926C432.591 534.765 432.69 534.619 432.814 534.496C432.937 534.373 433.084 534.276 433.246 534.209C433.407 534.143 433.58 534.109 433.754 534.11L589.91 534.655C590.085 534.656 590.257 534.691 590.418 534.758C590.579 534.825 590.725 534.924 590.848 535.047C590.971 535.171 591.068 535.318 591.135 535.479C591.201 535.641 591.235 535.814 591.234 535.988L591.234 536.056Z" fill="#003965"/>
<path d="M297.707 542.762L316.12 542.728C316.252 542.729 316.379 542.778 316.478 542.865L318.607 544.789C318.684 544.864 318.737 544.959 318.76 545.063C318.783 545.167 318.775 545.276 318.737 545.376C318.699 545.476 318.633 545.562 318.546 545.624C318.459 545.687 318.356 545.722 318.249 545.726L295.783 545.59C295.672 545.589 295.565 545.555 295.474 545.492C295.383 545.429 295.314 545.34 295.275 545.236C295.236 545.133 295.23 545.02 295.257 544.913C295.283 544.806 295.342 544.709 295.425 544.636L297.35 542.899C297.449 542.812 297.576 542.763 297.707 542.762Z" fill="#FEFEFD"/>
<path d="M700.346 545.658C700.277 545.654 700.212 545.623 700.164 545.572C700.117 545.522 700.09 545.455 700.09 545.386V545.181C700.097 544.836 700.432 544.506 701.076 544.211C701.72 543.916 702.66 543.661 703.843 543.462C705.025 543.263 706.426 543.122 707.966 543.049C709.505 542.976 711.153 542.971 712.814 543.035L713.342 543.069C716.683 543.197 719.878 543.595 722.225 544.177C724.572 544.758 725.88 545.474 725.861 546.169V546.373C725.859 546.409 725.85 546.444 725.834 546.477C725.818 546.509 725.796 546.538 725.769 546.561C725.742 546.585 725.711 546.603 725.677 546.615C725.643 546.626 725.607 546.631 725.571 546.629L700.346 545.658Z" fill="#FEFEFD"/>
<path d="M459.111 558.262C460.235 559.727 459.23 560.244 456.096 559.812C455.575 559.742 455.044 559.787 454.542 559.944C454.04 560.1 453.578 560.365 453.189 560.718C452.799 561.072 452.492 561.507 452.288 561.991C452.084 562.476 451.989 563 452.008 563.525C452.281 570.526 452.23 577.407 452.809 584.816C453.286 591.073 453.41 597.341 453.183 603.621C453.132 605.307 453.933 606.959 454.018 608.765C455.04 629.715 453.831 650.955 454.12 671.99C454.177 676.669 453.49 684.617 452.059 695.836C450.504 700.299 450.089 705.369 450.816 711.047C449.555 717.394 449.663 723.651 451.139 729.817C449.845 729.942 449.186 728.976 449.164 726.921C448.562 670.985 448.42 615.158 448.738 559.438C448.742 559.141 448.862 558.857 449.072 558.648C449.282 558.438 449.565 558.318 449.862 558.313L459.111 558.262Z" fill="#FEE986"/>
<path d="M459.11 558.263L575.24 558.245L575.172 559.864C575.149 560.329 574.905 560.579 574.439 560.613C573.27 560.693 572.651 561.34 572.583 562.555C571.72 577.033 571.118 592.788 570.777 609.821C570.351 631.18 571.356 658.858 570.488 683.488C570.397 686.02 570.715 689.216 571.442 693.077C571.657 694.224 572.072 695.081 572.685 695.649C573.707 696.58 574.774 696.768 575.887 696.211L575.955 708.645C575.626 709.417 575.126 709.764 574.456 709.684C573.821 709.605 573.491 709.247 573.469 708.611L573.162 699.073C573.144 698.392 572.894 697.738 572.455 697.217C572.015 696.697 571.411 696.342 570.743 696.211L561.767 694.508C561.529 665.774 562.653 637.175 560.779 608.152C560.484 603.587 560.728 599.062 561.511 594.576C562.726 587.536 563.879 580.428 564.969 573.251C565.044 572.774 564.929 572.286 564.65 571.89C564.371 571.493 563.948 571.218 563.47 571.122C562.085 570.861 560.586 570.731 558.974 570.731C526.032 570.696 493.284 570.469 460.728 570.049C460.366 570.043 460.006 570.117 459.676 570.267C459.346 570.417 459.054 570.639 458.821 570.917C458.587 571.194 458.419 571.52 458.327 571.871C458.236 572.222 458.224 572.589 458.293 572.945C459.741 580.61 460.95 589.671 464.084 596.501C464.322 597.001 464.442 597.529 464.442 598.085L463.931 695.734L452.059 695.836C453.489 684.618 454.176 676.669 454.12 671.991C453.83 650.955 455.039 629.715 454.017 608.765C453.932 606.959 453.132 605.307 453.183 603.621C453.41 597.341 453.285 591.073 452.808 584.817C452.229 577.407 452.28 570.526 452.008 563.526C451.988 563 452.084 562.476 452.287 561.992C452.491 561.507 452.799 561.072 453.188 560.719C453.578 560.365 454.039 560.101 454.542 559.944C455.044 559.788 455.574 559.743 456.095 559.813C459.229 560.244 460.234 559.727 459.11 558.263Z" fill="#FDBB32"/>
<path d="M575.24 558.245L575.887 696.211C574.775 696.768 573.707 696.58 572.685 695.649C572.072 695.081 571.658 694.224 571.442 693.077C570.715 689.216 570.397 686.02 570.488 683.488C571.357 658.858 570.352 631.18 570.778 609.821C571.118 592.788 571.72 577.033 572.583 562.555C572.651 561.34 573.27 560.693 574.44 560.613C574.905 560.579 575.149 560.329 575.172 559.864L575.24 558.245Z" fill="#FEE986"/>
<path d="M721.739 580.218C721.739 580.462 721.642 580.695 721.47 580.868C721.297 581.04 721.063 581.137 720.82 581.137L706.716 581.018C705.955 581.012 705.203 580.947 704.501 580.827C703.798 580.707 703.161 580.534 702.625 580.319C702.089 580.104 701.664 579.85 701.375 579.573C701.087 579.295 700.939 578.999 700.942 578.702V578.259C700.948 577.658 701.563 577.088 702.652 576.673C703.741 576.257 705.215 576.031 706.75 576.045L720.854 576.164C721.097 576.164 721.331 576.261 721.504 576.433C721.676 576.606 721.773 576.84 721.773 577.084L721.739 580.218Z" fill="#FE940E"/>
<path d="M318.373 580.079C318.374 580.153 318.359 580.226 318.331 580.295C318.303 580.363 318.262 580.425 318.21 580.477C318.158 580.53 318.096 580.571 318.028 580.6C317.96 580.628 317.887 580.643 317.813 580.643L298.158 580.712C298.084 580.712 298.011 580.698 297.942 580.67C297.874 580.642 297.812 580.601 297.76 580.549C297.707 580.497 297.665 580.435 297.637 580.367C297.608 580.299 297.594 580.226 297.593 580.152L297.584 577.529C297.584 577.455 297.598 577.382 297.626 577.314C297.654 577.245 297.695 577.183 297.748 577.131C297.8 577.078 297.861 577.037 297.929 577.008C297.998 576.98 298.071 576.965 298.144 576.965L317.8 576.896C317.874 576.896 317.947 576.91 318.015 576.938C318.084 576.966 318.146 577.007 318.198 577.059C318.251 577.111 318.292 577.173 318.321 577.241C318.349 577.309 318.364 577.382 318.364 577.456L318.373 580.079Z" fill="#FDBB32"/>
<path d="M553.727 586.775L470.829 586.571L469.125 583.709C468.24 582.21 468.671 581.455 470.42 581.444L555.175 581.069C555.349 581.068 555.521 581.112 555.672 581.198C555.824 581.284 555.95 581.409 556.04 581.56C556.129 581.711 556.178 581.883 556.181 582.06C556.185 582.237 556.144 582.412 556.061 582.568L553.727 586.775Z" fill="#FEE986"/>
<path d="M400.058 588.223C399.081 587.985 398.514 587.514 398.355 586.809C398.317 586.646 398.315 586.477 398.351 586.313C398.387 586.149 398.459 585.996 398.562 585.864C398.665 585.731 398.796 585.624 398.946 585.549C399.096 585.474 399.26 585.433 399.428 585.43L431.245 584.8C432.63 584.777 433.34 585.458 433.374 586.844L433.391 587.695C433.393 587.86 433.363 588.023 433.301 588.176C433.24 588.329 433.149 588.468 433.033 588.585C432.917 588.703 432.78 588.796 432.628 588.859C432.476 588.923 432.312 588.956 432.148 588.956C423.177 589.001 414.07 588.961 404.827 588.836C403.215 588.814 401.625 588.609 400.058 588.223Z" fill="#FEFEFD"/>
<path d="M624.874 588.291C624.874 588.485 624.796 588.672 624.659 588.809C624.522 588.946 624.335 589.024 624.141 589.024L594.163 589.075C593.278 589.076 592.428 588.897 591.799 588.578C591.171 588.259 590.815 587.825 590.808 587.371V586.997C590.805 586.77 590.889 586.544 591.056 586.334C591.223 586.124 591.47 585.932 591.782 585.771C592.094 585.609 592.465 585.481 592.874 585.393C593.282 585.305 593.721 585.26 594.163 585.259L624.141 585.208C624.335 585.208 624.522 585.285 624.659 585.423C624.796 585.56 624.874 585.746 624.874 585.941V588.291Z" fill="#FEFEF7"/>
<path d="M553.728 586.775C553.012 589.228 552.093 590.267 549.418 590.267C524.63 590.324 499.853 590.369 475.087 590.403C472.635 590.403 471.215 589.126 470.829 586.571L553.728 586.775Z" fill="#CA6029"/>
<path d="M690.978 599.056C690.956 599.056 690.933 599.051 690.913 599.043C690.892 599.034 690.873 599.022 690.857 599.006C690.842 598.99 690.829 598.971 690.821 598.951C690.812 598.93 690.808 598.908 690.808 598.885V598.834C690.805 598.438 691.339 598.048 692.377 597.685C693.415 597.323 694.938 596.995 696.858 596.722C698.778 596.448 701.059 596.233 703.568 596.09C706.078 595.947 708.768 595.878 711.485 595.888H712.099C717.58 595.906 722.836 596.242 726.714 596.82C730.591 597.398 732.772 598.171 732.776 598.971V599.022C732.776 599.067 732.758 599.11 732.726 599.142C732.695 599.174 732.651 599.192 732.606 599.192L690.978 599.056Z" fill="#FEFEFD"/>
<path d="M286.449 596.995C286.449 596.887 286.492 596.783 286.569 596.706C286.646 596.629 286.75 596.586 286.858 596.586L317.432 596.688C318.365 596.692 319.29 596.724 320.152 596.784C321.013 596.844 321.795 596.931 322.453 597.038C323.11 597.146 323.629 597.273 323.981 597.412C324.332 597.55 324.509 597.698 324.5 597.847V598.119C324.484 598.416 323.732 598.696 322.408 598.901C321.084 599.105 319.296 599.216 317.432 599.209L286.858 599.107C286.75 599.107 286.646 599.064 286.569 598.987C286.492 598.911 286.449 598.807 286.449 598.698V596.995Z" fill="#FEFEFD"/>
<path d="M725.019 622.445C725.021 622.734 724.907 623.012 724.704 623.217C724.5 623.423 724.224 623.539 723.935 623.541L701.179 623.66C701.036 623.661 700.894 623.633 700.762 623.579C700.629 623.525 700.508 623.445 700.407 623.345C700.305 623.244 700.224 623.124 700.168 622.992C700.113 622.86 700.084 622.719 700.083 622.576L700.064 618.862C700.062 618.573 700.176 618.296 700.379 618.09C700.583 617.885 700.859 617.768 701.148 617.767L723.904 617.647C724.047 617.647 724.189 617.674 724.321 617.728C724.454 617.782 724.575 617.862 724.676 617.963C724.778 618.063 724.859 618.183 724.914 618.315C724.97 618.447 724.999 618.589 725 618.732L725.019 622.445Z" fill="#FE940E"/>
<path d="M321.305 622.117C321.306 622.271 321.276 622.424 321.218 622.567C321.16 622.71 321.074 622.84 320.965 622.95C320.857 623.059 320.727 623.147 320.585 623.206C320.443 623.266 320.29 623.297 320.136 623.298L295.813 623.426C295.659 623.426 295.506 623.397 295.363 623.338C295.22 623.28 295.09 623.194 294.98 623.086C294.871 622.977 294.784 622.848 294.724 622.706C294.664 622.563 294.633 622.411 294.632 622.256L294.618 619.599C294.617 619.445 294.647 619.292 294.705 619.149C294.763 619.006 294.849 618.876 294.958 618.767C295.066 618.657 295.196 618.57 295.338 618.51C295.48 618.45 295.633 618.419 295.787 618.418L320.11 618.291C320.264 618.29 320.417 618.319 320.56 618.378C320.703 618.436 320.833 618.522 320.942 618.63C321.052 618.739 321.139 618.868 321.199 619.01C321.259 619.153 321.29 619.305 321.291 619.46L321.305 622.117Z" fill="#FDBB32"/>
<path d="M535.928 620.705L486.431 621.079C486.18 621.079 485.932 621.134 485.703 621.239C485.473 621.345 485.269 621.5 485.102 621.692L484.643 622.238C484.472 621.897 484.552 621.573 484.881 621.267C485.001 621.157 485.159 621.096 485.324 621.096L535.928 620.705Z" fill="#A0C2DF"/>
<path d="M436.167 636.767L419.492 637.55C418.186 637.618 417.533 638.305 417.533 639.611L417.772 694.116C417.772 694.268 417.741 694.419 417.682 694.558C417.622 694.698 417.535 694.824 417.425 694.93C417.315 695.035 417.185 695.116 417.042 695.17C416.9 695.223 416.748 695.247 416.597 695.24C413.849 695.115 411.197 695.467 408.642 696.296L408.557 631.504C408.557 631.029 408.747 630.574 409.086 630.239C409.425 629.903 409.884 629.715 410.363 629.715L434.106 629.664C435.14 629.664 435.815 630.158 436.133 631.146C436.61 632.633 436.621 634.507 436.167 636.767Z" fill="#FEFEFD"/>
<path d="M616.085 696.228L609.016 695.07C608.591 695.001 608.203 694.786 607.923 694.462C607.642 694.137 607.486 693.725 607.483 693.298L607.04 639.253C607.04 639.162 607.022 639.071 606.987 638.986C606.952 638.901 606.901 638.824 606.836 638.76C606.771 638.695 606.694 638.643 606.609 638.608C606.524 638.573 606.434 638.555 606.342 638.555L589.599 638.64L589.65 631.061C589.661 630.288 590.053 629.902 590.825 629.902L613.649 629.919C614.238 629.924 614.801 630.161 615.216 630.579C615.63 630.997 615.863 631.562 615.863 632.151L616.085 696.228Z" fill="#FEFEFD"/>
<path d="M436.167 636.767L436.559 707.402L436.389 709.701C436.343 710.223 436.065 710.507 435.554 710.553C426.163 711.472 417.147 711.001 408.506 709.139L408.642 696.296C411.197 695.467 413.848 695.115 416.596 695.24C416.748 695.247 416.9 695.223 417.042 695.17C417.185 695.116 417.315 695.035 417.425 694.93C417.534 694.824 417.622 694.698 417.682 694.558C417.741 694.419 417.772 694.268 417.772 694.116L417.533 639.611C417.533 638.305 418.186 637.618 419.492 637.55L436.167 636.767Z" fill="#FDBB32"/>
<path d="M616.085 696.228L616.374 709.735C607.563 710.916 598.637 711.251 589.599 710.74V638.64L606.342 638.555C606.434 638.555 606.524 638.573 606.609 638.608C606.694 638.643 606.771 638.695 606.836 638.76C606.901 638.825 606.952 638.902 606.987 638.986C607.022 639.071 607.04 639.162 607.04 639.254L607.483 693.299C607.486 693.725 607.642 694.138 607.923 694.462C608.203 694.786 608.591 695.002 609.016 695.07L616.085 696.228Z" fill="#FDBB32"/>
<path d="M333.698 646.58C333.698 646.741 333.667 646.901 333.605 647.05C333.544 647.199 333.454 647.334 333.34 647.448C333.227 647.562 333.092 647.653 332.943 647.715C332.794 647.777 332.635 647.809 332.474 647.809L279.706 647.901C279.381 647.901 279.069 647.773 278.838 647.543C278.608 647.314 278.478 647.002 278.478 646.677L278.478 646.609C278.477 646.447 278.509 646.288 278.57 646.139C278.631 645.99 278.721 645.855 278.835 645.741C278.949 645.627 279.084 645.536 279.233 645.474C279.381 645.412 279.541 645.38 279.702 645.38L332.469 645.288C332.795 645.287 333.107 645.416 333.337 645.646C333.567 645.875 333.697 646.187 333.698 646.512L333.698 646.58Z" fill="#FEFEFD"/>
<path d="M741.804 648.303C741.805 648.48 741.771 648.655 741.704 648.819C741.638 648.982 741.539 649.131 741.415 649.257C741.291 649.383 741.143 649.482 740.98 649.551C740.817 649.619 740.642 649.655 740.466 649.656L686.711 649.937C686.534 649.938 686.359 649.905 686.195 649.838C686.032 649.771 685.883 649.673 685.757 649.548C685.632 649.424 685.532 649.276 685.463 649.113C685.395 648.951 685.359 648.776 685.358 648.599L685.358 648.531C685.357 648.354 685.391 648.179 685.457 648.015C685.524 647.852 685.623 647.703 685.747 647.577C685.871 647.452 686.019 647.352 686.182 647.283C686.345 647.215 686.52 647.179 686.696 647.178L740.451 646.897C740.628 646.896 740.803 646.93 740.966 646.996C741.13 647.063 741.279 647.162 741.405 647.286C741.53 647.41 741.63 647.558 741.699 647.721C741.767 647.884 741.803 648.058 741.804 648.235L741.804 648.303Z" fill="#FEFEFD"/>
<path d="M696.446 668.839C696.374 668.839 696.304 668.81 696.253 668.759C696.202 668.708 696.173 668.639 696.173 668.567V668.413C696.173 667.955 696.418 667.501 696.894 667.077C697.37 666.654 698.068 666.269 698.947 665.944C699.826 665.62 700.871 665.363 702.02 665.187C703.169 665.012 704.4 664.922 705.644 664.922H722.608C725.12 664.922 727.529 665.29 729.305 665.944C731.081 666.599 732.079 667.487 732.079 668.413V668.567C732.079 668.639 732.05 668.708 731.999 668.759C731.948 668.81 731.878 668.839 731.806 668.839H696.446Z" fill="#012A58"/>
<path d="M387.964 671.882C387.965 672.032 387.937 672.181 387.88 672.32C387.824 672.459 387.741 672.585 387.636 672.692C387.53 672.798 387.405 672.883 387.267 672.942C387.129 673 386.981 673.031 386.831 673.032L343.501 673.334C343.351 673.335 343.202 673.307 343.063 673.25C342.925 673.194 342.798 673.111 342.691 673.006C342.585 672.9 342.5 672.775 342.441 672.637C342.383 672.499 342.353 672.351 342.352 672.201L342.351 672.167C342.35 672.017 342.379 671.868 342.435 671.73C342.492 671.591 342.575 671.464 342.68 671.358C342.785 671.251 342.91 671.166 343.048 671.108C343.186 671.049 343.335 671.019 343.485 671.018L386.815 670.715C386.965 670.714 387.113 670.743 387.252 670.799C387.391 670.855 387.517 670.939 387.624 671.044C387.731 671.149 387.816 671.274 387.874 671.412C387.932 671.55 387.963 671.698 387.964 671.848L387.964 671.882Z" fill="#B7CEE2"/>
<path d="M679.021 672.059C679.021 672.285 678.931 672.501 678.771 672.661C678.612 672.821 678.395 672.91 678.169 672.91H638.721C638.495 672.91 638.279 672.821 638.119 672.661C637.959 672.501 637.87 672.285 637.87 672.059V671.582C637.87 671.356 637.959 671.139 638.119 670.98C638.279 670.82 638.495 670.73 638.721 670.73H678.169C678.395 670.73 678.612 670.82 678.771 670.98C678.931 671.139 679.021 671.356 679.021 671.582V672.059Z" fill="#FEFEF7"/>
<path d="M730.068 718.388L697.502 718.473L697.331 685.004C697.329 684.75 697.378 684.499 697.475 684.264C697.571 684.03 697.714 683.817 697.895 683.637C698.076 683.458 698.291 683.317 698.527 683.221C698.764 683.125 699.018 683.077 699.273 683.079L729.115 683.454C729.378 683.458 729.629 683.566 729.814 683.754C729.999 683.942 730.103 684.195 730.102 684.458L730.068 718.388Z" fill="#FDBB32"/>
<path d="M325.096 717.366L292.615 717.247L292.7 684.492C292.7 684.355 292.727 684.218 292.781 684.091C292.834 683.964 292.912 683.848 293.01 683.752C293.109 683.655 293.225 683.579 293.353 683.528C293.481 683.476 293.618 683.451 293.756 683.454L324.313 683.488C324.881 683.488 325.164 683.766 325.164 684.322L325.096 717.366Z" fill="#FDBB32"/>
<path d="M389.327 702.292C379.822 702.348 365.118 702.74 345.212 703.467C343.747 703.524 343.117 702.837 343.321 701.406L343.526 693.588C343.537 693.031 343.821 692.753 344.377 692.753H388.237C388.907 692.753 389.242 693.088 389.242 693.758L389.327 702.292Z" fill="#FDBB32"/>
<path d="M679.413 703.28L636.183 703.654L636.064 693.826C636.064 693.27 636.342 692.992 636.899 692.992L678.595 692.821C679.129 692.821 679.396 693.094 679.396 693.639L679.413 703.28Z" fill="#FDBB32"/>
<path d="M561.767 694.508L570.744 696.211C571.412 696.342 572.015 696.697 572.455 697.217C572.895 697.738 573.144 698.392 573.162 699.073L573.469 708.611C573.492 709.247 573.821 709.605 574.457 709.684C575.127 709.764 575.626 709.417 575.956 708.645C575.819 709.781 575.888 710.257 576.16 710.076C570.676 711.915 565.895 711.983 561.818 710.28L561.767 694.508Z" fill="#FE940E"/>
<path d="M463.931 695.734L463.76 710.706C459.145 711.915 455.227 711.251 450.816 711.047C450.089 705.369 450.503 700.299 452.059 695.836L463.931 695.734Z" fill="#FE940E"/>
<path d="M343.321 701.406C343.117 702.837 343.747 703.524 345.212 703.467C365.118 702.74 379.822 702.349 389.327 702.292L389.293 711.932C389.288 712.432 389.088 712.911 388.734 713.264C388.38 713.618 387.902 713.819 387.402 713.823L344.275 714.283C343.719 714.294 343.435 714.022 343.423 713.465L343.321 701.406Z" fill="#B25937"/>
<path d="M679.413 703.28L679.515 712.852C665.094 711.626 650.946 711.353 637.069 712.035C636.769 712.053 636.474 711.953 636.248 711.755C636.021 711.557 635.882 711.278 635.86 710.979C635.815 710.274 635.627 709.65 635.298 709.105L636.184 703.654L679.413 703.28Z" fill="#B25937"/>
<path d="M436.56 707.402L436.645 726.785C436.645 727.077 436.587 727.367 436.475 727.636C436.362 727.906 436.198 728.151 435.99 728.357C435.783 728.563 435.537 728.725 435.266 728.836C434.995 728.946 434.706 729.002 434.413 728.999L408.983 728.693C408.506 728.681 408.274 728.437 408.285 727.96L408.506 709.139C417.148 711.001 426.164 711.473 435.555 710.553C436.066 710.507 436.344 710.224 436.389 709.701L436.56 707.402Z" fill="#8F5543"/>
<path d="M616.374 709.735L615.949 726.836C615.915 728.131 615.256 728.772 613.973 728.761L590.485 728.556C590.33 728.554 590.178 728.522 590.036 728.46C589.894 728.399 589.766 728.311 589.658 728.2C589.551 728.09 589.466 727.959 589.409 727.815C589.352 727.672 589.324 727.519 589.326 727.364L589.599 710.74C598.638 711.251 607.563 710.916 616.374 709.735Z" fill="#8F5543"/>
<path d="M679.515 712.852C665.06 714.147 650.701 714.442 636.439 713.738C635.95 713.715 635.621 713.477 635.451 713.023C634.985 711.773 634.934 710.468 635.298 709.105C635.627 709.65 635.814 710.275 635.86 710.979C635.881 711.278 636.021 711.557 636.247 711.755C636.474 711.953 636.769 712.053 637.069 712.035C650.945 711.353 665.094 711.626 679.515 712.852Z" fill="#8F5543"/>
<path d="M561.819 710.28C565.895 711.984 570.676 711.915 576.16 710.076L576.126 728.335C576.126 728.994 575.797 729.323 575.138 729.323L563.266 729.306C562.903 729.306 562.555 729.163 562.297 728.908C562.039 728.653 561.891 728.306 561.887 727.943L561.819 710.28Z" fill="#B25937"/>
<path d="M463.761 710.706L463.522 728.863C463.511 729.51 463.181 729.834 462.534 729.834L451.139 729.817C449.663 723.651 449.555 717.394 450.816 711.047C455.227 711.251 459.145 711.915 463.761 710.706Z" fill="#8F5543"/>
<path d="M292.615 717.247L325.096 717.366L325.164 725.252C323.825 725.014 322.689 725.258 321.758 725.984C321.383 726.268 321.383 726.552 321.758 726.836C322.008 727.018 322.195 727.211 322.32 727.415L293.96 727.364C293.629 727.364 293.311 727.234 293.075 727.001C292.839 726.768 292.704 726.452 292.7 726.121L292.615 717.247Z" fill="#B25937"/>
<path d="M697.502 718.473L730.069 718.388L729.643 726.904C729.609 727.529 729.279 727.841 728.655 727.841L698.439 728.079C698.229 728.079 698.028 727.995 697.879 727.846C697.729 727.696 697.643 727.493 697.638 727.279L697.502 718.473Z" fill="#B25937"/>
<path d="M325.165 725.252V725.882C325.165 726.416 324.926 726.791 324.449 727.006C323.825 727.29 323.115 727.427 322.32 727.415C322.195 727.211 322.008 727.018 321.758 726.836C321.384 726.552 321.384 726.268 321.758 725.985C322.689 725.258 323.825 725.014 325.165 725.252Z" fill="#FF554E"/>
<path d="M388.867 728.59L352.724 728.369C364.965 727.313 377.013 727.387 388.867 728.59Z" fill="#012A58"/>
<path d="M352.724 728.369L388.867 728.59C389.412 731.622 389.282 734.001 388.476 735.727L343.1 734.518C342.68 732.621 342.697 730.822 343.151 729.118C343.229 728.811 343.411 728.54 343.665 728.351C343.919 728.161 344.231 728.066 344.548 728.079L352.724 728.369Z" fill="#0081AF"/>
<path d="M679.532 733.734C666.337 733.973 653.12 733.95 639.879 733.666C637.722 733.621 636.501 732.621 636.217 730.668C636.274 729.533 637.069 728.959 638.602 728.948C656.248 728.812 668.029 728.676 673.945 728.539C675.66 728.505 677.102 728.568 678.271 728.727C678.884 728.806 679.265 729.147 679.413 729.749C679.674 730.805 679.713 732.133 679.532 733.734Z" fill="#07A1C5"/>
<path d="M636.218 730.668C636.502 732.621 637.723 733.621 639.88 733.666C653.12 733.95 666.338 733.973 679.532 733.734C680.259 735.823 679.68 736.885 677.795 736.919C664.169 737.073 651.019 737.532 637.41 736.068C636.831 736.011 636.451 735.704 636.269 735.148C635.769 733.638 635.752 732.144 636.218 730.668Z" fill="#012A58"/>
<path d="M343.101 734.518L388.476 735.727C373.01 736.749 358.368 736.732 344.548 735.676C343.594 735.597 343.112 735.21 343.101 734.518Z" fill="#012A58"/>
<path d="M387.317 752.777L311.215 753.441L286.534 753.492C284.081 753.685 282.69 753.662 282.361 753.424C279.454 751.301 279.789 750.063 283.366 749.711C285.807 749.472 288.396 749.353 291.133 749.353C320.236 749.376 349.334 749.03 378.426 748.314C380.924 748.257 383.451 748.252 386.006 748.297C386.551 748.297 387.022 748.49 387.419 748.876C388.577 750 388.543 751.301 387.317 752.777Z" fill="#EEF9FC"/>
<path d="M638.636 753.39C638.576 753.39 638.516 753.378 638.46 753.355C638.405 753.332 638.354 753.298 638.311 753.255C638.269 753.213 638.235 753.162 638.212 753.106C638.188 753.05 638.177 752.991 638.177 752.93V752.147C638.176 751.679 638.278 751.216 638.476 750.784C638.673 750.352 638.963 749.96 639.328 749.629C639.694 749.299 640.128 749.036 640.605 748.858C641.083 748.679 641.594 748.587 642.111 748.587L733.202 748.757C734.246 748.758 735.246 749.133 735.984 749.8C736.722 750.468 737.137 751.373 737.137 752.317V753.101C737.137 753.223 737.089 753.34 737.002 753.426C736.916 753.512 736.799 753.561 736.677 753.561L638.636 753.39Z" fill="#B7CEE2"/>
<path d="M461.955 756.252C461.796 756.297 461.637 756.343 461.478 756.388C459.196 756.422 457.487 756.257 456.351 755.894C453.626 755.025 452.025 755.656 449.828 755.587C438.813 755.167 427.781 754.918 416.733 754.838C413.19 754.815 410.414 755.792 408.404 757.768L408.268 751.704C408.245 751.091 408.54 750.784 409.153 750.784C425.55 750.614 441.975 750.733 458.429 751.142C459.973 751.176 460.973 751.608 461.427 752.436C461.938 753.368 462.114 754.639 461.955 756.252Z" fill="#FEFEFD"/>
<path d="M616.596 757.325L563.658 756.865L564.084 751.976C564.129 751.454 564.419 751.193 564.952 751.193H615.25C615.897 751.193 616.238 751.522 616.272 752.181L616.596 757.325Z" fill="#FEFEFD"/>
<path d="M387.317 752.777C386.727 752.891 386.153 753.158 385.597 753.578L311.215 753.441L387.317 752.777Z" fill="#003965"/>
<path d="M286.534 753.493L311.215 753.441L385.597 753.578C385.586 753.748 385.506 753.913 385.359 754.072C385.188 754.276 384.972 754.378 384.711 754.378C348.602 754.503 324.506 754.497 312.424 754.361C310.465 754.344 307.927 753.51 305.594 753.527C299.224 753.572 292.87 753.561 286.534 753.493Z" fill="#012A58"/>
<path d="M461.478 756.388C457.067 759.216 442.35 758.023 436.082 757.853C428.588 757.649 419.748 758.909 411.47 758.142C411.197 758.116 410.921 758.153 410.665 758.252C410.409 758.352 410.18 758.509 409.996 758.713C409.812 758.917 409.679 759.161 409.606 759.426C409.534 759.69 409.525 759.969 409.579 760.238C410.034 762.452 409.71 764.757 408.608 767.153L408.404 757.768C410.414 755.792 413.19 754.815 416.733 754.838C427.782 754.918 438.813 755.167 449.828 755.588C452.025 755.656 453.626 755.026 456.351 755.894C457.487 756.258 459.196 756.422 461.478 756.388Z" fill="#A0C2DF"/>
<path d="M563.658 756.865L616.596 757.325L616.511 777.798C608.221 776.765 599.847 776.64 591.387 777.423L565.02 777.491C564.373 777.491 564.044 777.162 564.032 776.504L563.658 756.865Z" fill="#0081AF"/>
<path d="M461.478 756.388C461.637 756.343 461.796 756.297 461.955 756.252L461.546 777.1C461.538 777.758 461.273 778.388 460.809 778.855C460.345 779.322 459.718 779.59 459.06 779.604C457.107 779.649 454.932 779.564 452.536 779.348C438.388 778.065 424.33 777.679 410.363 778.19C409.97 778.205 409.584 778.077 409.275 777.831C408.966 777.584 408.754 777.234 408.677 776.844C407.95 773.245 407.927 770.014 408.609 767.153C409.71 764.757 410.034 762.452 409.579 760.237C409.525 759.968 409.534 759.69 409.606 759.426C409.679 759.161 409.812 758.917 409.996 758.713C410.18 758.509 410.409 758.351 410.665 758.252C410.921 758.153 411.197 758.116 411.47 758.142C419.748 758.909 428.588 757.648 436.082 757.853C442.35 758.023 457.067 759.215 461.478 756.388Z" fill="#016288"/>
<path d="M662.074 771.24C660.995 772.001 660.291 772.785 659.961 773.591C659.916 773.697 659.898 773.814 659.909 773.929C659.92 774.044 659.959 774.155 660.023 774.251C660.088 774.347 660.175 774.426 660.277 774.48C660.379 774.534 660.493 774.563 660.609 774.562L737.904 774.596C738.596 776.027 738.42 777.508 737.376 779.041C737.046 779.53 736.592 779.774 736.013 779.774L640.186 780.728C639.13 780.739 638.614 780.217 638.636 779.161L638.756 772.518C638.778 771.462 639.318 770.94 640.374 770.951L662.074 771.24Z" fill="#01527F"/>
<path d="M311.47 771.377L338.484 772.467C339.177 772.501 339.256 772.745 338.723 773.199C338.393 773.472 338.002 773.586 337.547 773.54C333.579 773.097 329.746 774.426 326.186 774.375C321.996 774.307 317.812 774.414 313.633 774.698L285.665 774.818C285.45 773.886 285.433 773.109 285.614 772.484C285.785 771.905 286.176 771.615 286.79 771.615L311.47 771.377Z" fill="#B7CEE2"/>
<path d="M311.47 771.377L358.021 771.275L371.204 772.024C372.067 772.07 372.158 772.365 371.477 772.91C368.735 775.073 357.902 774.443 354.206 774.324L313.633 774.698C317.812 774.414 321.996 774.307 326.187 774.375C329.746 774.426 333.579 773.097 337.547 773.54C338.002 773.586 338.393 773.472 338.723 773.199C339.256 772.745 339.177 772.501 338.484 772.467L311.47 771.377Z" fill="#A0C2DF"/>
<path d="M358.021 771.275L376.025 771.803C379.215 772.893 382.701 772.796 386.483 771.513C388.243 774.091 388.016 776.85 385.801 779.791C385.449 780.257 384.984 780.49 384.405 780.49L337.803 780.541L345.74 778.922C346.183 778.832 346.586 778.656 346.95 778.394C347.347 778.111 347.551 777.787 347.563 777.424C347.574 776.742 347.92 776.373 348.602 776.316L365.635 774.971C365.862 774.948 365.975 774.852 365.975 774.681V774.664C365.964 774.483 365.867 774.392 365.686 774.392L354.206 774.324C357.902 774.443 368.735 775.073 371.477 772.91C372.158 772.365 372.067 772.07 371.204 772.024L358.021 771.275Z" fill="#003965"/>
<path d="M386.483 771.513C382.701 772.796 379.215 772.893 376.024 771.803C379.045 770.974 382.531 770.877 386.483 771.513Z" fill="#016288"/>
<path d="M662.074 771.241C686.533 771.332 711.088 771.366 735.74 771.343C736.728 771.343 737.347 771.627 737.597 772.195C737.869 772.762 737.972 773.563 737.903 774.596L660.609 774.562C660.493 774.563 660.379 774.535 660.277 774.481C660.175 774.426 660.087 774.347 660.023 774.251C659.959 774.155 659.92 774.044 659.909 773.929C659.898 773.814 659.916 773.698 659.961 773.591C660.291 772.785 660.995 772.002 662.074 771.241Z" fill="#EEF9FC"/>
<path d="M285.665 774.817L313.633 774.698L354.205 774.323L365.685 774.392C365.867 774.392 365.964 774.482 365.975 774.664V774.681C365.975 774.852 365.862 774.948 365.634 774.971L348.602 776.316C347.92 776.373 347.574 776.742 347.563 777.423C347.551 777.787 347.347 778.11 346.949 778.394C346.586 778.656 346.183 778.832 345.74 778.922L337.803 780.54L287.267 780.523C286.642 780.523 286.171 780.251 285.853 779.706C285.115 778.411 285.052 776.782 285.665 774.817Z" fill="#01527F"/>
<path d="M616.511 777.798C608.653 779.479 600.278 779.354 591.387 777.423C599.847 776.64 608.221 776.765 616.511 777.798Z" fill="#003965"/>
<path d="M317.551 335.082C313.854 325.748 310.175 318.305 303.669 310.844C302.692 309.72 302.8 309.612 303.992 310.521C309.329 314.563 313.769 319.747 317.312 326.072C317.971 327.241 318.397 330.176 318.59 334.878C318.601 335.036 318.533 335.133 318.385 335.167C318.238 335.201 318.09 335.241 317.942 335.286C317.761 335.332 317.63 335.264 317.551 335.082Z" fill="#FEFEFD"/>
<path d="M722.642 308.919C715.846 317.18 711.06 325.39 707.125 335.354C706.671 336.501 706.444 336.456 706.444 335.218C706.478 325.441 715.182 314.557 722.199 308.493C722.336 308.38 722.472 308.386 722.608 308.511V308.528C722.744 308.652 722.756 308.783 722.642 308.919Z" fill="#FEFEFD"/>
<path d="M594.521 768.754C589.735 778.309 583.229 768.294 584.694 763.405C586.652 756.933 599.188 759.454 594.521 768.754Z" fill="#010107"/>
<path d="M441.269 768.919C441.254 769.268 441.171 769.61 441.024 769.927C440.877 770.243 440.67 770.528 440.413 770.764C440.156 771 439.855 771.183 439.527 771.303C439.199 771.423 438.851 771.477 438.503 771.463L433.363 771.247C433.015 771.233 432.672 771.15 432.356 771.003C432.039 770.856 431.755 770.648 431.519 770.391C431.283 770.134 431.099 769.833 430.979 769.506C430.86 769.178 430.805 768.83 430.82 768.481L431.065 762.627C431.08 762.279 431.163 761.936 431.31 761.62C431.457 761.303 431.665 761.019 431.921 760.782C432.178 760.546 432.479 760.363 432.807 760.243C433.135 760.123 433.483 760.069 433.831 760.084L438.971 760.299C439.319 760.314 439.662 760.397 439.978 760.544C440.295 760.691 440.579 760.898 440.815 761.155C441.051 761.412 441.235 761.713 441.355 762.041C441.475 762.368 441.529 762.716 441.514 763.065L441.269 768.919Z" fill="#010107"/>
</svg>
