<svg width="1024" height="1024" viewBox="0 0 1024 1024" fill="none" xmlns="http://www.w3.org/2000/svg">
<rect width="1024" height="1024" fill="white"/>
<path d="M644.531 769.275C647.598 774.834 651.148 781.738 648.046 787.153C646.516 789.843 644.107 793.071 640.819 796.837" stroke="#575A51" stroke-width="2"/>
<path d="M389.533 796.908C379.909 790.835 377.429 782.329 382.091 771.391" stroke="#575A51" stroke-width="2"/>
<path d="M344.487 771.158C345.754 775.521 346.423 779.765 346.495 783.89C346.585 788.731 343.967 792.408 341.331 796.245" stroke="#9DA98D" stroke-width="2"/>
<path d="M687.514 797.016C674.352 796.783 677.49 780.034 679.767 770.709" stroke="#9DA98D" stroke-width="2"/>
<path d="M644.531 769.275C647.597 774.834 651.148 781.738 648.045 787.153C646.515 789.843 644.106 793.071 640.819 796.837L389.533 796.908C379.909 790.835 377.429 782.329 382.091 771.391C385.857 767.015 389.748 765.437 395.863 765.563C404.219 765.73 412.594 765.718 420.986 765.527C421.62 765.515 421.937 765.192 421.937 764.558C421.925 752.436 421.984 740.362 422.116 728.335C422.241 716.607 427.209 711.712 438.524 711.64C457.293 711.533 475.979 711.449 494.58 711.389C494.736 711.389 494.89 711.358 495.033 711.298C495.177 711.237 495.307 711.149 495.417 711.037C495.527 710.926 495.614 710.793 495.674 710.647C495.733 710.502 495.764 710.345 495.764 710.188L495.603 651.513C495.603 650.927 495.31 650.581 494.724 650.473C493.002 650.15 491.155 650.222 489.595 649.612C459.146 637.705 439.062 608.655 442.792 575.588C443.079 573.077 444.298 570.764 444.98 568.164C445.135 567.554 444.95 567.076 444.424 566.729C438.1 562.545 433.527 559.598 430.705 557.888C380.686 527.619 330.607 497.439 280.468 467.348C265.746 458.525 241.143 442.763 222.117 432.434C212.218 427.072 209.51 416.779 214.316 407.006C229.594 376.001 249.481 350.483 273.564 325.683C292.698 305.957 315.329 289.729 339.071 274.217C347.643 268.61 355.88 263.978 363.782 260.32C397.961 244.503 434.202 232.775 471.609 227.772C487.641 225.62 503.816 226.015 520.134 226.051C526.841 226.075 533.87 226.643 541.222 227.754C550.565 229.171 560.715 230.337 569.215 231.951C607.698 239.231 645.642 252.142 678.799 273.016C705.07 289.567 731.7 308.629 752.931 331.349C772.818 352.653 791.755 376.162 806.406 401.429C813.471 413.605 815.712 425.907 801.851 434.084C788.402 442.022 767.546 453.995 739.285 470.002C687.269 499.459 635.642 529.573 584.403 560.345C582.61 561.421 580.883 562.593 579.221 563.86C578.707 564.243 578.587 564.727 578.862 565.312C579.867 567.357 580.835 569.222 581.086 571.517C584.296 600.119 572.855 625.045 549.274 641.363C544.193 644.878 538.945 647.395 533.529 648.913C532.418 649.224 531.862 649.953 531.862 651.101L531.7 710.618C531.7 710.88 531.804 711.13 531.989 711.315C532.174 711.5 532.425 711.604 532.687 711.604C550.643 711.676 568.629 711.64 586.645 711.497C596.848 711.407 604.326 715.926 604.326 726.596C604.326 739.172 604.356 751.743 604.416 764.307C604.416 764.905 604.721 765.192 605.33 765.168C619.868 764.582 632.934 765.951 644.531 769.275Z" fill="black"/>
<path d="M344.486 771.157C345.754 775.521 346.423 779.765 346.495 783.889C346.585 788.731 343.966 792.407 341.33 796.245C334.713 795.958 327.433 798.684 322.466 798.181C306.237 796.568 304.497 772.215 322.107 769.31C326.411 768.611 330.786 770.853 335.413 770.709C338.653 770.601 341.677 770.751 344.486 771.157Z" fill="#8D9F79"/>
<path d="M687.514 797.016C674.352 796.783 677.49 780.034 679.767 770.709C685.003 770.996 690.359 770.781 695.834 770.064C699.744 769.562 702.643 769.573 704.532 770.099C713.91 772.7 716.026 785.288 710.79 792.049C704.065 800.728 696.731 798.45 687.514 797.016Z" fill="#8D9F79"/>
<path d="M644.531 769.275C655.781 771.283 667.526 771.761 679.768 770.709C677.491 780.034 674.353 796.783 687.515 797.016L640.819 796.837C644.107 793.071 646.516 789.843 648.046 787.153C651.148 781.738 647.598 774.834 644.531 769.275Z" fill="#ADB3A1"/>
<path d="M382.091 771.391C377.428 782.33 379.909 790.835 389.533 796.909L341.331 796.245C343.967 792.408 346.585 788.731 346.495 783.89C346.423 779.765 345.754 775.521 344.487 771.158L382.091 771.391Z" fill="#ADB3A1"/>
<path d="M508.459 257.378C509.021 291.713 509.338 325.946 509.41 360.077C509.41 360.125 509.243 363.849 508.908 371.249C508.681 376.27 508.884 382.707 509.517 390.562C509.936 395.738 509.607 407.819 508.531 426.803" stroke="#FAE2C6" stroke-width="2"/>
<path d="M599.358 271.24C599.036 273.858 599.394 276.351 598.695 278.79C591.749 303.19 585.18 327.691 578.987 352.294C575.078 367.824 569.142 386.294 565.09 403.527C562.759 413.444 560.499 423.396 556.428 432.864" stroke="#FAE2C6" stroke-width="2"/>
<path d="M466.713 433.169C464.418 430.778 463.013 428.19 462.499 425.404C460.903 416.922 458.106 409.014 455.613 400.765C453.443 393.556 449.749 378.708 445.876 367.895C440.55 353.083 436.533 340.728 432.032 327.063C431.853 326.537 431.578 326.071 431.207 325.665C430.215 324.565 429.85 323.28 430.113 321.809C430.209 321.211 430.149 320.632 429.934 320.07C427.937 314.965 426.108 309.801 424.447 304.576C423.956 303.022 422.139 297.965 418.995 289.406C416.939 283.835 415.475 278.013 414.602 271.939" stroke="#FFEDCF" stroke-width="2"/>
<path d="M682.367 313.147C659.844 351.594 637.805 389.862 613.328 426.892C607.984 434.986 602.712 443.121 597.511 451.298" stroke="#DFC79C" stroke-width="2"/>
<path d="M361.379 305.383C361.355 306.591 360.943 307.338 360.142 307.625C359.58 307.816 358.893 307.649 358.08 307.123C357.243 306.585 356.43 306.041 355.641 305.491C355.103 305.12 354.547 305.084 353.973 305.383L336.651 314.421C336.219 314.645 335.84 314.959 335.54 315.342C335.24 315.726 335.025 316.169 334.91 316.644C334.794 317.119 334.781 317.615 334.871 318.097C334.961 318.579 335.152 319.038 335.431 319.442C340.56 326.848 346.101 334.075 350.692 341.983C365.432 367.357 382.324 391.548 398.087 415.739C406.431 428.554 415.134 441.179 424.196 453.612" stroke="#FFEDCF" stroke-width="2"/>
<path d="M636.407 486.033C644.136 481.425 649.372 475.776 656.294 471.347C660.478 468.669 663.724 466.386 666.032 464.497C670.825 460.599 675.888 457.085 681.22 453.953C684.287 452.141 686.959 449.039 690.886 447.587C691.448 447.383 691.974 447.102 692.464 446.744L752.483 402.648C752.95 402.313 753.266 401.871 753.434 401.321L753.703 400.496C753.755 400.336 753.852 400.193 753.982 400.085C754.112 399.977 754.27 399.909 754.438 399.887C756.542 399.636 758.437 398.799 760.122 397.376C760.545 397.023 760.891 396.587 761.138 396.094C761.384 395.602 761.528 395.064 761.558 394.514C761.588 393.964 761.505 393.414 761.314 392.898C761.122 392.381 760.827 391.91 760.445 391.512C756.225 387.125 752.728 382.349 749.955 377.184C749.357 376.061 748.395 375.606 747.068 375.821C746.946 375.843 746.834 375.903 746.748 375.993C746.661 376.083 746.603 376.198 746.583 376.324C746.572 376.479 746.542 376.634 746.494 376.79C746.422 377.029 746.273 377.25 746.046 377.453C742.877 380.322 739.691 383.174 736.488 386.007C707.533 411.722 678.841 437.724 650.412 464.013C644.399 469.572 638.481 475.208 632.659 480.923" stroke="#DFC79C" stroke-width="2"/>
<path d="M392.133 481.461C392.731 480.588 392.432 480.17 391.237 480.205C391.075 480.21 390.916 480.253 390.773 480.331C390.63 480.409 390.506 480.519 390.412 480.654C387.919 484.258 382.217 479.685 380.047 477.121C375.366 471.58 368.803 468.029 363.8 463.152C362.473 461.861 362.079 460.193 360.519 458.938C351.786 451.926 343.734 444.359 335.126 437.293C329.567 432.715 324.421 427.993 319.687 423.127C304.659 407.651 287.731 395.26 272.83 379.892C271.921 378.971 271.437 378.081 271.377 377.22C271.281 375.941 271.766 374.913 272.83 374.136C276.667 371.338 279.464 367.824 282.118 364.004C282.19 363.905 282.239 363.791 282.264 363.671C282.289 363.551 282.289 363.427 282.264 363.306C282.239 363.185 282.189 363.07 282.118 362.968C282.046 362.866 281.955 362.779 281.849 362.713C281.527 362.51 281.114 362.48 280.612 362.623" stroke="#FFEDCF" stroke-width="2"/>
<path d="M533.082 544.744C533.225 545.437 533.261 546.023 533.189 546.501C533.17 546.626 533.123 546.745 533.053 546.851C532.982 546.957 532.89 547.046 532.782 547.114C532.673 547.182 532.551 547.226 532.424 547.244C532.296 547.262 532.166 547.253 532.042 547.218C527.595 545.915 522.831 545.521 517.75 546.035C517.26 546.083 516.931 546.244 516.763 546.519C516.548 546.89 516.225 547.099 515.795 547.147C495.693 549.065 481.939 558.838 480.773 580.017C480.63 582.581 481.419 585.253 481.508 588.014C481.795 595.815 488.054 603.723 493.684 608.654C493.901 608.844 494.161 608.98 494.444 609.051C494.728 609.123 495.026 609.128 495.316 609.067C497.516 608.601 499.028 608.714 499.853 609.408" stroke="#FFD38A" stroke-width="2"/>
<path d="M499.852 609.408C498.226 608.906 497.085 609.444 496.427 611.022C496.345 611.228 496.306 611.448 496.312 611.67C496.319 611.891 496.371 612.108 496.466 612.307C496.56 612.506 496.695 612.683 496.861 612.826C497.027 612.969 497.221 613.075 497.431 613.138C499.822 613.868 500.815 614.842 500.408 616.061" stroke="#FFB388" stroke-width="2"/>
<path d="M525.137 595.008C525.257 598.14 524.008 601.099 521.389 603.885C520.995 604.303 520.78 604.805 520.744 605.391C520.493 610.233 513.894 611.183 511.096 607.561C510.929 607.344 510.712 607.168 510.463 607.046C510.215 606.925 509.94 606.862 509.662 606.862H504.766C504.192 606.862 503.72 607.083 503.349 607.525C502.309 608.78 501.144 609.408 499.853 609.408" stroke="#FF8813" stroke-width="2"/>
<path d="M536.811 743.901C536.01 746.232 536.058 749.113 536.955 752.544" stroke="#FFA259" stroke-width="2"/>
<path d="M536.955 752.544L463.773 752.76C462.876 752.772 462.518 753.214 462.697 754.087C463.45 757.709 463.193 761.307 461.926 764.882" stroke="#FFBC5E" stroke-width="2"/>
<path d="M532.651 765.007C535.628 763.286 539.071 760.632 538.945 756.812C538.849 754.302 538.186 752.879 536.955 752.544" stroke="#FE8217" stroke-width="2"/>
<path d="M508.459 257.378C509.021 291.713 509.338 325.946 509.41 360.077C509.41 360.125 509.242 363.849 508.908 371.249C508.68 376.27 508.884 382.707 509.517 390.562C509.936 395.738 509.607 407.819 508.531 426.803L500.82 427.287C500.326 427.316 499.839 427.162 499.452 426.855C499.065 426.547 498.805 426.107 498.722 425.619L470.765 261.019C470.724 260.784 470.734 260.544 470.793 260.313C470.853 260.083 470.961 259.868 471.11 259.683C471.26 259.498 471.447 259.347 471.66 259.24C471.873 259.133 472.106 259.073 472.343 259.064L508.459 257.378Z" fill="#FFFEFE"/>
<path d="M508.459 257.378L542.638 258.777C542.872 258.79 543.1 258.851 543.308 258.956C543.517 259.062 543.701 259.209 543.849 259.39C543.998 259.57 544.107 259.779 544.17 260.004C544.233 260.229 544.249 260.465 544.217 260.696C536.237 315.425 526.894 370.209 521.586 425.494C521.559 425.767 521.433 426.02 521.231 426.205C521.029 426.391 520.766 426.495 520.492 426.498L508.531 426.803C509.607 407.819 509.936 395.738 509.517 390.562C508.884 382.707 508.681 376.27 508.908 371.249C509.243 363.849 509.41 360.125 509.41 360.077C509.338 325.946 509.021 291.713 508.459 257.378Z" fill="#F4C68D"/>
<path d="M599.358 271.241C599.036 273.859 599.394 276.351 598.695 278.79C591.749 303.19 585.18 327.692 578.987 352.295C575.078 367.824 569.142 386.294 565.09 403.527C562.758 413.444 560.499 423.396 556.428 432.865L545.992 429.888C545.406 429.72 545.161 429.338 545.256 428.74C549.56 401.627 551.802 373.258 555.998 347.292C560.445 319.747 564.833 292.197 569.16 264.641C569.268 263.984 569.644 263.733 570.29 263.888L599.358 271.241Z" fill="#FFFEFE"/>
<path d="M466.713 433.169C464.418 430.778 463.013 428.19 462.499 425.404C460.903 416.922 458.106 409.014 455.613 400.765C453.443 393.557 449.749 378.709 445.876 367.895C440.55 353.083 436.533 340.728 432.032 327.063C431.853 326.537 431.578 326.071 431.207 325.665C430.215 324.565 429.85 323.28 430.113 321.809C430.209 321.212 430.149 320.632 429.934 320.07C427.937 314.965 426.108 309.801 424.447 304.576C423.956 303.022 422.139 297.965 418.995 289.406C416.939 283.835 415.475 278.013 414.602 271.939L444.961 264.569C445.619 264.414 446.001 264.671 446.109 265.34C447.992 278.019 449.731 290.804 451.973 303.196C459.648 345.372 466.695 387.621 474.729 429.744C474.785 430.023 474.733 430.314 474.584 430.559C474.435 430.804 474.199 430.987 473.922 431.071L466.713 433.169Z" fill="#FFDCA0"/>
<path d="M599.358 271.24C609.532 274.42 619.891 278.604 630.435 283.793C630.66 283.905 630.86 284.061 631.023 284.251C631.187 284.441 631.311 284.662 631.387 284.901C631.464 285.14 631.493 285.392 631.471 285.642C631.449 285.892 631.377 286.135 631.26 286.357C615.892 315.425 603.859 346.861 590.249 376.862C581.659 395.798 574.199 415.56 566.237 434.98C566.137 435.238 565.941 435.446 565.691 435.563C565.44 435.68 565.154 435.696 564.893 435.608L556.428 432.864C560.499 423.396 562.759 413.444 565.09 403.527C569.142 386.294 575.078 367.824 578.987 352.294C585.18 327.691 591.749 303.19 598.695 278.79C599.394 276.351 599.036 273.858 599.358 271.24Z" fill="#F4C68D"/>
<path d="M414.602 271.939C415.475 278.013 416.939 283.835 418.995 289.406C422.14 297.965 423.957 303.022 424.447 304.576C426.109 309.801 427.938 314.965 429.934 320.07C430.149 320.632 430.209 321.212 430.113 321.809C429.85 323.28 430.215 324.565 431.207 325.665C431.578 326.071 431.853 326.537 432.032 327.063C436.533 340.728 440.55 353.083 445.876 367.895C449.749 378.708 453.443 393.556 455.613 400.765C458.106 409.014 460.903 416.922 462.499 425.404C463.013 428.19 464.418 430.778 466.713 433.169L457.729 436.522C457.155 436.738 456.701 436.588 456.366 436.074C453.784 432.069 451.435 427.921 449.319 423.629C426.808 378.093 404.022 332.712 380.961 287.487C380.339 286.279 380.656 285.425 381.911 284.922L414.602 271.939Z" fill="#FFFEFE"/>
<path d="M682.367 313.148C659.844 351.595 637.805 389.862 613.328 426.893C607.984 434.986 602.712 443.121 597.511 451.299L588.922 445.973C588.749 445.869 588.62 445.704 588.561 445.509C588.501 445.314 588.515 445.103 588.599 444.915C610.476 395.188 631.457 345.139 655.845 296.507C656.335 295.526 657.029 295.347 657.925 295.969L682.367 313.148Z" fill="#FFDCA0"/>
<path d="M361.378 305.383C361.355 306.591 360.942 307.338 360.141 307.625C359.579 307.816 358.892 307.649 358.079 307.123C357.242 306.585 356.429 306.041 355.64 305.491C355.102 305.12 354.546 305.084 353.972 305.383L336.65 314.421C336.218 314.645 335.839 314.959 335.539 315.342C335.239 315.725 335.024 316.169 334.909 316.644C334.794 317.119 334.78 317.615 334.87 318.097C334.96 318.579 335.151 319.038 335.43 319.442C340.559 326.848 346.1 334.075 350.691 341.983C365.431 367.357 382.323 391.548 398.086 415.739C406.43 428.554 415.134 441.179 424.195 453.612L415.337 460.785C414.835 461.179 414.356 461.155 413.902 460.713C410.017 456.899 406.335 452.984 402.856 448.967C372.287 413.748 340.2 376.521 306.595 337.285C306.424 337.078 306.339 336.814 306.359 336.549C306.38 336.284 306.503 336.04 306.703 335.868C322.429 322.473 339.053 311.05 356.142 299.483C356.704 299.113 357.218 299.173 357.684 299.663C359.167 301.241 360.398 303.148 361.378 305.383Z" fill="#FFFEFE"/>
<path d="M361.379 305.383L433.413 446.242C433.688 446.792 433.605 447.282 433.162 447.712C430.676 450.055 427.687 452.022 424.196 453.612C415.134 441.179 406.431 428.554 398.087 415.739C382.324 391.548 365.432 367.357 350.692 341.983C346.101 334.075 340.56 326.848 335.431 319.442C335.152 319.038 334.961 318.579 334.871 318.097C334.781 317.615 334.794 317.119 334.91 316.644C335.025 316.169 335.24 315.726 335.54 315.342C335.84 314.959 336.219 314.645 336.651 314.421L353.973 305.383C354.547 305.084 355.103 305.12 355.641 305.491C356.43 306.041 357.243 306.585 358.08 307.123C358.893 307.649 359.58 307.816 360.142 307.625C360.943 307.338 361.355 306.591 361.379 305.383Z" fill="#FFDCA0"/>
<path d="M682.367 313.147L709.176 332.927C709.822 333.405 709.875 333.943 709.337 334.541C689.809 356.4 670.245 381.559 653.64 402.146C638.505 420.867 623.388 439.517 608.378 458.345C608.196 458.576 607.932 458.726 607.643 458.763C607.354 458.8 607.064 458.721 606.836 458.543L597.511 451.298C602.712 443.121 607.984 434.986 613.328 426.892C637.805 389.862 659.844 351.594 682.367 313.147Z" fill="#BEB197"/>
<path d="M636.407 486.033C644.136 481.425 649.372 475.776 656.294 471.347C660.478 468.669 663.724 466.386 666.031 464.497C670.825 460.599 675.888 457.085 681.22 453.953C684.286 452.141 686.958 449.039 690.886 447.587C691.447 447.383 691.973 447.102 692.464 446.744L752.483 402.648C752.949 402.313 753.266 401.871 753.433 401.321L753.702 400.496C753.755 400.336 753.852 400.193 753.982 400.085C754.112 399.977 754.27 399.909 754.438 399.887C756.542 399.636 758.437 398.799 760.122 397.376C760.545 397.023 760.89 396.587 761.137 396.094C761.384 395.602 761.527 395.064 761.558 394.514C761.588 393.964 761.505 393.414 761.313 392.898C761.122 392.381 760.826 391.91 760.445 391.512C756.225 387.125 752.728 382.349 749.955 377.184C749.357 376.061 748.395 375.606 747.068 375.821C746.946 375.843 746.834 375.903 746.747 375.993C746.661 376.083 746.603 376.198 746.583 376.323C746.571 376.479 746.541 376.634 746.494 376.79C746.422 377.029 746.272 377.25 746.045 377.453C742.877 380.322 739.691 383.174 736.487 386.007C707.533 411.722 678.841 437.724 650.412 464.013C644.399 469.572 638.481 475.208 632.659 480.923L627.62 475.812C627.142 475.334 627.106 474.826 627.513 474.288C630.824 469.805 634.261 465.495 637.824 461.359C668.524 425.745 699.063 390.257 728.579 353.585C728.744 353.384 728.951 353.22 729.186 353.108C729.42 352.995 729.676 352.936 729.935 352.934C730.195 352.932 730.45 352.988 730.684 353.098C730.918 353.207 731.124 353.368 731.287 353.567C738.424 362.193 746.834 370.585 753.075 379.049C756.805 384.094 760.379 389.199 763.798 394.363C764.108 394.831 764.225 395.4 764.125 395.951C764.025 396.503 763.715 396.994 763.26 397.322C742.889 412.134 723.146 427.072 702.219 441.794C681.824 456.152 661.656 470.821 641.715 485.8C640.807 486.482 639.826 487.026 638.774 487.432C637.686 487.863 636.897 487.396 636.407 486.033Z" fill="#FFDCA0"/>
<path d="M392.132 481.461C392.73 480.588 392.431 480.17 391.235 480.205C391.074 480.21 390.915 480.253 390.772 480.331C390.628 480.409 390.505 480.519 390.41 480.654C387.918 484.258 382.215 479.685 380.045 477.121C375.365 471.58 368.802 468.029 363.799 463.152C362.472 461.861 362.077 460.193 360.517 458.938C351.784 451.926 343.733 444.359 335.125 437.293C329.566 432.715 324.419 427.992 319.685 423.127C304.658 407.651 287.73 395.26 272.828 379.892C271.92 378.971 271.435 378.081 271.376 377.22C271.28 375.941 271.764 374.913 272.828 374.136C276.666 371.338 279.463 367.824 282.117 364.004C282.188 363.904 282.238 363.791 282.263 363.671C282.288 363.551 282.288 363.427 282.263 363.306C282.237 363.185 282.188 363.07 282.116 362.968C282.045 362.866 281.954 362.779 281.848 362.713C281.525 362.51 281.113 362.48 280.611 362.623L285.309 357.01C285.739 356.496 286.188 356.478 286.654 356.957C290.372 360.734 292.888 363.37 294.203 364.865C327.091 402.618 360.38 440.007 394.069 477.031C395.204 478.275 394.559 479.751 392.132 481.461Z" fill="#FFDCA0"/>
<path d="M280.612 362.623C281.114 362.48 281.527 362.51 281.85 362.713C281.955 362.779 282.046 362.866 282.118 362.968C282.189 363.07 282.239 363.185 282.264 363.306C282.289 363.427 282.289 363.551 282.264 363.671C282.239 363.791 282.19 363.905 282.119 364.004C279.465 367.824 276.667 371.338 272.83 374.136C271.766 374.913 271.281 375.941 271.377 377.22C271.437 378.081 271.921 378.971 272.83 379.892C287.731 395.26 304.659 407.651 319.687 423.127C324.421 427.993 329.567 432.715 335.126 437.293C343.734 444.359 351.786 451.926 360.519 458.938C362.079 460.193 362.473 461.861 363.8 463.152C368.803 468.029 375.367 471.58 380.047 477.121C382.217 479.685 387.919 484.258 390.412 480.654C390.506 480.519 390.63 480.409 390.773 480.331C390.916 480.253 391.075 480.21 391.237 480.205C392.432 480.17 392.731 480.588 392.133 481.461L384.476 490.158C384.046 490.648 383.538 490.75 382.952 490.463C380.358 489.207 377.973 487.827 375.797 486.32C339.825 461.359 303.972 436.235 268.239 410.951C263.086 407.305 258.113 403.431 253.319 399.331C252.865 398.948 252.811 398.506 253.158 398.004C261.67 385.618 270.821 373.825 280.612 362.623Z" fill="#FFFEFE"/>
<path d="M636.407 486.033C634.554 484.539 633.305 482.836 632.659 480.923C638.481 475.208 644.399 469.572 650.412 464.013C678.841 437.724 707.533 411.722 736.488 386.007C739.691 383.174 742.877 380.322 746.046 377.453C746.273 377.25 746.422 377.029 746.494 376.79C746.542 376.634 746.572 376.479 746.583 376.324C746.603 376.198 746.661 376.083 746.748 375.993C746.834 375.903 746.946 375.843 747.068 375.821C748.395 375.606 749.357 376.061 749.955 377.184C752.728 382.349 756.225 387.125 760.445 391.512C760.827 391.91 761.122 392.381 761.314 392.898C761.505 393.414 761.588 393.964 761.558 394.514C761.528 395.064 761.384 395.602 761.138 396.094C760.891 396.587 760.545 397.023 760.122 397.376C758.437 398.799 756.542 399.636 754.438 399.887C754.27 399.909 754.112 399.977 753.982 400.085C753.852 400.193 753.755 400.336 753.703 400.496L753.434 401.321C753.266 401.871 752.95 402.313 752.483 402.648L692.464 446.744C691.974 447.102 691.448 447.383 690.886 447.587C686.959 449.039 684.287 452.141 681.22 453.953C675.888 457.085 670.825 460.599 666.032 464.497C663.724 466.386 660.478 468.669 656.294 471.347C649.372 475.776 644.136 481.425 636.407 486.033Z" fill="#BEB197"/>
<path d="M505.231 455.943L518.716 455.638C518.887 455.632 519.056 455.663 519.214 455.727C519.371 455.792 519.513 455.89 519.63 456.013C519.747 456.137 519.837 456.284 519.892 456.445C519.948 456.606 519.969 456.777 519.954 456.947L515.004 507.695C514.981 507.989 514.851 508.264 514.639 508.468C514.426 508.672 514.146 508.79 513.852 508.801C513.558 508.813 513.269 508.715 513.042 508.528C512.815 508.34 512.665 508.076 512.619 507.785L504.084 457.341C504.055 457.172 504.064 456.999 504.108 456.834C504.152 456.668 504.231 456.514 504.34 456.382C504.449 456.249 504.584 456.141 504.738 456.066C504.892 455.99 505.06 455.948 505.231 455.943Z" fill="#FFA815"/>
<path d="M469.027 467.833C468.321 466.195 467.957 465.071 467.933 464.462C467.909 463.948 468.142 463.601 468.632 463.422L481.508 458.687C481.598 458.656 481.696 458.65 481.789 458.669C481.883 458.688 481.97 458.732 482.042 458.796C482.113 458.86 482.166 458.942 482.195 459.033C482.224 459.124 482.228 459.222 482.207 459.315C481.98 460.367 482.201 462.704 482.871 466.327C485.501 480.529 488.155 494.725 490.833 508.916C490.94 509.478 490.94 509.89 490.833 510.153C490.761 510.324 490.642 510.472 490.49 510.578C490.338 510.685 490.159 510.747 489.973 510.756C489.788 510.765 489.603 510.722 489.441 510.631C489.279 510.541 489.146 510.406 489.057 510.243C481.92 496.447 475.243 482.31 469.027 467.833Z" fill="#FEBF25"/>
<path d="M550.314 482.089C547.444 491.414 543.553 501.259 539.482 509.902C539.231 510.44 538.909 510.775 538.514 510.906C538.251 511.002 538.006 511.026 537.779 510.978C537.205 510.871 536.918 510.518 536.918 509.92C536.864 498.551 539.213 484.528 540.182 476.423C540.887 470.517 541.814 464.689 542.961 458.939C543.057 458.472 543.326 458.317 543.768 458.472L557.146 463.135C557.492 463.254 557.612 463.493 557.504 463.852C556.381 467.235 555.036 470.601 553.47 473.948C552.202 476.638 551.15 479.352 550.314 482.089Z" fill="#FE6811"/>
<path d="M577.176 475.759C578.061 473.786 579.489 473.242 581.462 474.127L589.334 477.641C591.546 478.634 591.935 480.098 590.5 482.035C582.502 492.812 572.639 503.141 561.701 517.146C561.485 517.433 561.222 517.672 560.912 517.864C560.362 518.198 560.051 518.372 559.979 518.384C558.509 518.635 558.078 518.079 558.688 516.716L577.176 475.759Z" fill="#FE6811"/>
<path d="M446.647 475.238C453.927 489.727 460.192 501.814 465.44 511.497C467.054 514.474 468.106 517.128 468.596 519.459C469.038 521.611 468.554 521.844 467.143 520.158L435.762 482.68C435.164 481.975 435.248 481.359 436.013 480.833L444.818 474.772C445.607 474.222 446.216 474.377 446.647 475.238Z" fill="#FEBF25"/>
<path d="M592.042 514.367C592.102 514.139 592.173 513.972 592.257 513.864C597.374 507.791 602.712 502.232 608.271 497.187C608.797 496.709 609.263 496.757 609.669 497.331L613.758 502.98C614.248 503.661 614.153 504.247 613.471 504.737C608.809 508.054 604.379 511.515 599.627 514.779C595.754 517.433 589.334 520.661 584.761 525.144C584.594 525.311 584.421 525.317 584.241 525.162V525.144C584.163 525.077 584.127 524.966 584.141 524.835C584.154 524.705 584.216 524.564 584.313 524.445L591.432 515.586C591.731 515.227 591.934 514.821 592.042 514.367Z" fill="#FE6811"/>
<path d="M443.114 530.721C432.713 523.428 422.145 516.195 411.41 509.023C411.182 508.869 410.989 508.671 410.842 508.439C410.694 508.208 410.597 507.948 410.555 507.677C410.512 507.406 410.527 507.129 410.597 506.864C410.667 506.598 410.791 506.351 410.961 506.135L416.251 499.554C417.112 498.466 418.009 498.437 418.941 499.465L447.507 531.205C449.707 533.656 449.325 534.188 446.36 532.801C445.798 532.538 444.716 531.844 443.114 530.721Z" fill="#FEBF25"/>
<path d="M533.081 544.744C533.224 545.437 533.26 546.023 533.189 546.501C533.169 546.626 533.122 546.746 533.052 546.851C532.982 546.957 532.889 547.047 532.781 547.114C532.672 547.182 532.55 547.226 532.423 547.244C532.295 547.262 532.165 547.254 532.041 547.219C527.594 545.916 522.83 545.521 517.749 546.035C517.259 546.083 516.93 546.244 516.763 546.519C516.547 546.89 516.225 547.099 515.794 547.147C495.692 549.066 481.938 558.839 480.772 580.017C480.629 582.581 481.418 585.253 481.508 588.015C481.795 595.815 488.053 603.723 493.684 608.655C493.9 608.844 494.16 608.98 494.444 609.052C494.727 609.123 495.025 609.129 495.316 609.067C497.515 608.601 499.028 608.715 499.852 609.408C498.227 608.906 497.085 609.444 496.427 611.022C496.345 611.228 496.306 611.448 496.313 611.669C496.319 611.89 496.371 612.107 496.466 612.306C496.56 612.505 496.695 612.682 496.861 612.825C497.027 612.968 497.222 613.075 497.432 613.138C499.823 613.867 500.815 614.841 500.408 616.061C473.241 607.669 466.588 577.686 481.992 555.557C485.578 550.417 490.683 546.495 497.306 543.794C509.93 538.665 521.855 538.982 533.081 544.744Z" fill="#FFFEFE"/>
<path d="M533.082 544.744C535.102 546.226 536.471 547.565 537.188 548.76C537.643 549.549 537.457 550.135 536.632 550.518C527.2 554.834 517.893 558.982 508.712 562.963C504.121 564.947 500.959 566.765 499.226 568.414C489.345 577.829 492.626 594.918 506.237 598.451C512.334 600.017 518.634 598.869 525.138 595.008C525.257 598.14 524.008 601.099 521.39 603.884C520.995 604.303 520.78 604.805 520.744 605.391C520.493 610.232 513.894 611.183 511.097 607.561C510.929 607.343 510.713 607.167 510.464 607.046C510.215 606.925 509.941 606.862 509.662 606.861H504.767C504.193 606.861 503.721 607.082 503.35 607.525C502.31 608.78 501.144 609.408 499.853 609.408C499.028 608.714 497.516 608.601 495.316 609.067C495.026 609.128 494.728 609.123 494.444 609.051C494.161 608.98 493.901 608.844 493.684 608.654C488.054 603.723 481.795 595.815 481.508 588.014C481.419 585.253 480.63 582.581 480.773 580.017C481.939 558.838 495.693 549.065 515.795 547.147C516.225 547.099 516.548 546.89 516.763 546.519C516.931 546.244 517.26 546.083 517.75 546.035C522.831 545.521 527.595 545.915 532.042 547.218C532.166 547.253 532.296 547.262 532.424 547.244C532.551 547.226 532.673 547.182 532.782 547.114C532.89 547.046 532.982 546.957 533.053 546.851C533.123 546.745 533.17 546.626 533.189 546.501C533.261 546.023 533.225 545.437 533.082 544.744Z" fill="#FFA815"/>
<path d="M500.408 616.061C500.815 614.841 499.822 613.867 497.431 613.138C497.221 613.075 497.027 612.968 496.861 612.825C496.695 612.682 496.56 612.505 496.466 612.306C496.371 612.107 496.319 611.89 496.312 611.669C496.306 611.448 496.345 611.227 496.427 611.022C497.085 609.444 498.226 608.906 499.852 609.408C501.143 609.408 502.309 608.78 503.349 607.525C503.72 607.083 504.192 606.861 504.766 606.861H509.661C509.94 606.862 510.214 606.925 510.463 607.046C510.712 607.167 510.928 607.344 511.096 607.561C513.893 611.183 520.492 610.233 520.743 605.391C520.779 604.805 520.994 604.303 521.389 603.885C524.007 601.099 525.256 598.14 525.137 595.008L548.807 581.684C549.393 581.35 549.674 581.517 549.65 582.187C549.005 598.828 539.931 612.151 524.258 617.495C515.758 620.382 508.316 620.956 500.408 616.061Z" fill="#FE6811"/>
<path d="M536.811 743.899C536.01 746.231 536.058 749.112 536.955 752.543L463.773 752.758C462.876 752.77 462.518 753.212 462.697 754.085C463.45 757.707 463.193 761.306 461.926 764.88L456.923 765.042C456.253 765.054 455.919 764.725 455.919 764.055L455.901 745.621C455.901 745.277 456.036 744.947 456.278 744.702C456.519 744.457 456.848 744.317 457.192 744.312L536.811 743.899Z" fill="#FFDCA0"/>
<path d="M532.651 765.006C535.628 763.284 539.071 760.63 538.945 756.811C538.849 754.3 538.186 752.877 536.955 752.543C536.058 749.112 536.01 746.231 536.811 743.899L568.928 743.989C569.072 743.991 569.215 744.023 569.347 744.081C569.479 744.14 569.598 744.224 569.697 744.329C569.795 744.435 569.872 744.559 569.922 744.695C569.971 744.83 569.993 744.975 569.986 745.119L569.179 764.091C569.143 764.665 568.838 764.952 568.264 764.952L532.651 765.006Z" fill="#FE6811"/>
<path d="M536.953 752.544C538.185 752.879 538.848 754.302 538.944 756.812C539.069 760.632 535.626 763.286 532.65 765.007L461.924 764.882C463.192 761.307 463.449 757.709 462.696 754.087C462.516 753.214 462.875 752.772 463.771 752.76L536.953 752.544Z" fill="#FE9C1C"/>
<path d="M544.414 489.692C543.816 490.397 543.517 490.289 543.517 489.369V488.06C543.511 487.874 543.574 487.721 543.694 487.634C543.814 487.548 543.98 487.536 544.156 487.6C544.332 487.664 544.504 487.8 544.633 487.977C544.762 488.154 544.838 488.358 544.844 488.544C544.88 488.915 544.737 489.297 544.414 489.692Z" fill="#FE9C1C"/>
<path d="M570.452 501.688C570.571 501.019 570.906 500.529 571.456 500.218C571.982 499.919 572.227 500.068 572.191 500.666C572.143 501.539 571.755 502.059 571.026 502.226C570.571 502.322 570.38 502.143 570.452 501.688Z" fill="#FE9C1C"/>
<path d="M598.767 509.416C598.899 508.448 599.646 507.647 601.009 507.013C601.248 506.296 601.654 505.955 602.228 505.991C602.814 506.027 602.898 506.254 602.479 506.673L599.413 509.739C598.875 510.289 598.66 510.182 598.767 509.416Z" fill="#FE9C1C"/>
</svg>
