<svg width="1024" height="1024" viewBox="0 0 1024 1024" fill="none" xmlns="http://www.w3.org/2000/svg">
<rect width="1024" height="1024" fill="white"/>
<path d="M300.887 791.275C297.415 788.695 295.947 784.967 296.482 780.093C298.123 765.266 299.502 755.599 300.62 751.093C301.464 747.681 302.059 744.714 302.403 742.193C303.955 730.761 306.969 719.668 309.109 708.343C312.516 690.419 317.438 674.314 321.986 657.174C322.012 657.076 322.012 656.973 321.985 656.875C321.959 656.777 321.906 656.688 321.833 656.617C321.761 656.546 321.67 656.496 321.572 656.472C321.473 656.447 321.37 656.45 321.273 656.479L312.605 659.065" stroke="#8C5B16" stroke-width="2"/>
<path d="M264.611 770.052C265.753 767.9 266.002 765.16 265.36 761.83" stroke="#7D2101" stroke-width="2"/>
<path d="M266.93 750.077C272.245 714.122 280.485 685.533 288.635 653.234C288.778 652.651 288.689 652.104 288.368 651.593C285.752 647.431 284.498 642.699 284.605 637.396C284.997 617.695 288.516 598.992 295.163 581.288" stroke="#78654D" stroke-width="2"/>
<path d="M295.163 581.287C297.054 577.019 300.424 570.533 305.275 561.829C308.438 556.17 311.851 551.176 315.513 546.848C326.428 533.953 342.854 527.033 359.119 520.31C373.661 514.293 388.559 504.651 403.813 491.381C409.925 486.067 415.555 479.914 420.703 472.922" stroke="#7D2101" stroke-width="2"/>
<path d="M420.703 472.922L429.514 459.956" stroke="#8C5B16" stroke-width="2"/>
<path d="M429.513 459.957C430.013 459.053 430.114 458.174 429.817 457.318C429.709 457.012 429.52 456.743 429.271 456.542C429.022 456.34 428.723 456.213 428.408 456.176C401.156 453.198 373.405 460.278 349.221 472.442C341.231 476.472 337.271 481.787 331.083 489.385" stroke="#8B8076" stroke-width="2"/>
<path d="M331.082 489.384L326.677 492.433" stroke="#8C5B16" stroke-width="2"/>
<path d="M326.677 492.434C313.836 505.18 304.544 520.791 298.801 539.268C296.209 547.651 292.303 556.966 287.083 567.216" stroke="#7D2101" stroke-width="2"/>
<path d="M287.084 567.215C282.875 574.189 279.022 581.394 274.082 587.333C268.428 594.11 259.618 601.619 252.555 594.039" stroke="#78654D" stroke-width="2"/>
<path d="M251.52 576.33C253.714 573.868 256.175 571.746 257.834 568.999C266.406 554.827 271.561 545.332 273.297 540.517C283.605 511.892 293.718 490.24 314.691 469.962C318.365 466.413 319.435 464.076 321.041 459.457C330.083 433.4 336.396 418.383 335.398 394.841" stroke="#8C520E" stroke-width="2"/>
<path d="M331.207 385.906C327.343 383.884 325.773 380.912 326.499 376.988C326.837 375.151 329.085 372.351 331.367 371.745C331.76 371.649 332.015 371.388 332.134 370.96C332.265 370.437 332.592 370.098 333.115 369.943C335.933 369.147 338.769 368.463 341.623 367.892C342.205 367.773 342.55 367.429 342.657 366.858C342.74 366.382 342.96 365.996 343.317 365.699L346.563 362.988C347.027 362.595 347.55 362.476 348.132 362.631L354.624 364.307C355.195 364.45 355.492 364.819 355.516 365.413C355.647 368.184 355.135 370.752 353.982 373.118C353.843 373.412 353.774 373.734 353.78 374.058C353.786 374.383 353.868 374.702 354.018 374.991L356.015 378.896" stroke="#230100" stroke-width="2"/>
<path d="M356.015 378.897C355.361 381.06 355.551 382.505 356.586 383.23C357.097 383.587 357.608 383.587 358.12 383.23L368.5 376.043" stroke="#8C7F7D" stroke-width="2"/>
<path d="M368.5 376.043L385.355 368.231" stroke="#8C5B16" stroke-width="2"/>
<path d="M385.354 368.231C391.453 366.483 397.273 364.087 402.814 361.043C404.33 360.205 406.22 360.259 407.968 359.474C414.942 356.317 423.092 358.511 428.585 351.983C438.727 339.927 446.729 329.369 452.591 320.308C455.682 315.529 458.726 308.965 461.723 300.619" stroke="#7D2101" stroke-width="2"/>
<path d="M461.723 300.619L464.809 290.257" stroke="#8C5B16" stroke-width="2"/>
<path d="M464.809 290.257C466.093 288.438 466.64 286.477 466.449 284.372C466.446 284.321 466.456 284.271 466.477 284.225C466.498 284.179 466.531 284.139 466.572 284.108C466.613 284.078 466.66 284.059 466.711 284.052C466.761 284.045 466.812 284.051 466.86 284.069C467.038 284.14 467.21 284.211 467.377 284.283C467.576 284.366 467.797 284.376 468.001 284.311C468.204 284.245 468.375 284.108 468.483 283.926C470.516 280.52 474.35 281.108 477.561 280.27C477.929 280.175 478.244 280.258 478.506 280.52C478.696 280.71 478.993 280.799 479.398 280.787C480.943 280.728 482.495 280.876 484.052 281.233C484.635 281.364 485.212 281.334 485.782 281.144C487.138 280.692 488.256 281.013 489.135 282.107" stroke="#230100" stroke-width="2"/>
<path d="M464.808 290.257C464.737 288.807 464.505 287.861 464.113 287.421" stroke="#965B16" stroke-width="2"/>
<path d="M464.113 287.421C464.874 285.674 465.023 284.229 464.559 283.087C464.456 282.837 464.262 282.634 464.015 282.519C463.768 282.403 463.485 282.383 463.221 282.463C429.157 292.807 403.795 311.962 380.235 338.09C369.071 350.468 363.756 362.167 356.016 378.897" stroke="#96807D" stroke-width="2"/>
<path d="M295.163 581.287C294.996 579.551 294.2 578.273 292.773 577.453C292.273 577.167 291.893 576.769 291.631 576.258L287.083 567.215" stroke="#DD864E" stroke-width="2"/>
<path d="M420.702 472.922C413.747 473.315 407.267 475.223 401.262 478.647C396.055 481.632 392.488 483.516 390.561 484.301C378.874 489.116 370.812 492.523 366.377 494.52C362.578 496.25 358.298 499.247 354.071 501.262C343.62 506.22 333.936 511.339 324.733 518.455C324.566 518.588 324.363 518.667 324.15 518.683C323.937 518.698 323.725 518.648 323.541 518.539C323.358 518.431 323.211 518.27 323.121 518.076C323.031 517.883 323.003 517.666 323.038 517.456C324.305 509.484 327.765 501.94 331.135 494.36C331.188 494.239 331.203 494.106 331.18 493.977C331.156 493.848 331.094 493.728 331.002 493.634C330.91 493.541 330.792 493.476 330.663 493.45C330.535 493.423 330.401 493.436 330.279 493.486C327.878 494.437 326.677 494.086 326.677 492.434" stroke="#F07C17" stroke-width="2"/>
<path d="M429.513 459.956C394.735 462.738 368.786 473.688 338.395 489.062C333.996 491.297 331.558 491.404 331.083 489.383" stroke="#FFDA8C" stroke-width="2"/>
<path d="M464.113 287.421C463.293 289.883 462.722 291.613 460.315 292.968C442.492 303.074 431.315 309.703 426.785 312.854C401.887 330.225 383.286 350.397 368.5 376.043" stroke="#FFDA93" stroke-width="2"/>
<path d="M461.723 300.619C447.276 312.984 433.579 325.897 420.631 339.356C414.175 346.062 406.631 350.949 400.299 357.833C395.27 363.308 390.329 364.361 385.354 368.231" stroke="#F07C17" stroke-width="2"/>
<path d="M503.439 790.633C503.118 791.715 502.083 792.286 500.335 792.346C494.557 792.548 488.82 792.465 483.125 792.096C482.447 792.06 482.049 791.71 481.93 791.044C480.907 785.717 481.781 780.711 484.551 776.027C485.36 774.671 485.057 774.35 483.642 775.064C470.753 781.591 457.425 787.726 443.656 793.469C435.06 797.054 425.964 797.536 423.021 786.621" stroke="#803B0B" stroke-width="2"/>
<path d="M423.021 786.621C422.664 779.642 425.714 774.939 432.171 772.514C460.457 761.866 485.533 752.877 508.986 738.253C516.904 733.313 524.074 726.179 531.654 719.99C533.651 718.349 536.439 715.079 540.018 710.181" stroke="#7D2101" stroke-width="2"/>
<path d="M540.019 710.18C541.992 708.385 543.592 706.25 544.816 703.777C545.03 703.346 545.135 702.869 545.12 702.388C545.106 701.907 544.973 701.437 544.734 701.018C544.494 700.599 544.156 700.245 543.747 699.986C543.339 699.727 542.873 699.571 542.391 699.532L538.717 699.247" stroke="#8C5B16" stroke-width="2"/>
<path d="M538.717 699.247C516.744 696.59 497.928 698.534 476.544 703.492C443.657 711.107 415.656 730.993 398.57 760.314C396.858 763.221 393.63 766.788 392.328 771.354" stroke="#8C7F7D" stroke-width="2"/>
<path d="M392.328 771.354C389.545 780.289 387.476 794.7 376.258 796.483" stroke="#803B0B" stroke-width="2"/>
<path d="M376.258 796.483L371.996 795.36" stroke="#7D2101" stroke-width="2"/>
<path d="M371.996 795.359L369.642 793.772" stroke="#803B0B" stroke-width="2"/>
<path d="M369.641 793.773L366.877 788.351C366.556 787.732 366.27 787.744 366.021 788.386C365.854 788.791 365.89 789.409 366.128 790.241" stroke="#3A0402" stroke-width="2"/>
<path d="M366.128 790.241C365.974 788.244 365.344 786.49 364.238 784.98" stroke="#803B0B" stroke-width="2"/>
<path d="M423.021 786.62C422.26 785.752 420.834 785.812 418.741 786.799C418.392 786.965 418.093 787.22 417.874 787.539C417.655 787.858 417.525 788.23 417.496 788.615C417.467 789.001 417.541 789.388 417.709 789.736C417.878 790.084 418.135 790.381 418.456 790.598C419.038 790.99 419.585 791.121 420.096 790.99C420.173 790.963 420.257 790.965 420.335 790.994C420.413 791.023 420.48 791.078 420.525 791.151C420.679 791.353 420.762 791.584 420.774 791.846C420.834 792.595 420.489 792.922 419.74 792.827L414.443 792.185C413.765 792.102 413.2 791.81 412.749 791.311C411.774 790.265 410.596 790.14 409.217 790.937C408.995 791.068 408.729 791.105 408.479 791.042C408.228 790.979 408.013 790.819 407.88 790.598C405.573 786.674 402.226 784.088 397.839 782.839C397.268 782.673 396.881 782.31 396.679 781.751C396.156 780.253 395.122 779.296 393.576 778.88C392.993 778.726 392.684 778.345 392.649 777.739C392.542 775.646 392.833 773.643 393.522 771.728" stroke="#E45C0B" stroke-width="2"/>
<path d="M540.019 710.181C537.147 712.802 534.044 712.945 531.19 715.067C527.588 717.743 523.432 718.67 518.242 719.491C515.763 719.901 513.605 721.363 511.001 721.773C508.195 722.213 506.37 722.588 505.526 722.897C491.686 727.819 477.9 732.849 463.988 737.522C455.677 740.316 444.774 744.84 431.279 751.094C423.23 754.827 417.255 758.174 413.355 761.135C412.903 761.48 412.398 761.706 411.839 761.813C410.056 762.158 407.832 762.978 405.169 764.274C404.123 764.785 401.941 765.255 398.624 765.683" stroke="#F07C17" stroke-width="2"/>
<path d="M590.063 789.849C594.582 790.8 598.987 790.788 603.279 789.813" stroke="#F39621" stroke-width="2"/>
<path d="M366.128 790.242C366.913 792.525 368.084 793.702 369.641 793.773" stroke="#A23F0C" stroke-width="2"/>
<path d="M371.996 795.36C373.351 796.442 373.821 798.017 373.405 800.086C373.37 800.269 373.401 800.459 373.494 800.621C374.053 801.584 374.825 802.286 375.812 802.726C375.911 802.764 376.021 802.769 376.125 802.74C376.228 802.711 376.319 802.649 376.382 802.565C376.446 802.481 376.479 802.379 376.475 802.276C376.472 802.172 376.433 802.073 376.365 801.994C375.592 801.103 374.95 800.199 374.439 799.284C374.023 798.546 373.88 797.916 374.011 797.393C374.237 796.501 374.986 796.198 376.258 796.483" stroke="#E45C0B" stroke-width="2"/>
<path d="M538.717 699.247L543.264 700.531C543.799 700.686 544.043 701.048 543.996 701.619L543.906 702.422C543.859 702.969 543.556 703.26 542.997 703.296C534.133 703.849 525.108 703.866 516.53 705.133C503.344 707.071 494.385 708.593 489.653 709.698C468.786 714.603 443.353 725.036 424.609 738.466C418.063 743.157 414.764 747.187 410.127 752.003C405.811 756.462 402.707 760.92 398.588 765.129C398.481 765.236 398.457 765.355 398.516 765.486C398.552 765.545 398.588 765.611 398.623 765.682" stroke="#FFDA93" stroke-width="2"/>
<path d="M398.623 765.682L393.522 771.728" stroke="#F0A07E" stroke-width="2"/>
<path d="M393.523 771.729C393.249 771.467 392.851 771.342 392.328 771.354" stroke="#F3BA88" stroke-width="2"/>
<path d="M718.035 227.782C717.807 231.043 716.293 234.079 713.827 236.224C711.36 238.368 708.142 239.445 704.882 239.217L702.32 239.037C699.059 238.809 696.023 237.296 693.878 234.829C691.734 232.362 690.658 229.144 690.886 225.884L691.055 223.464C691.283 220.204 692.797 217.167 695.263 215.023C697.73 212.879 700.948 211.802 704.208 212.03L706.77 212.209C710.031 212.437 713.067 213.951 715.212 216.418C717.356 218.885 718.432 222.102 718.204 225.363L718.035 227.782Z" fill="#5C0703"/>
<path d="M300.888 791.276C297.416 788.696 295.947 784.969 296.482 780.094C298.123 765.267 299.503 755.6 300.62 751.094C301.464 747.682 302.059 744.715 302.404 742.195C303.955 730.762 306.969 719.669 309.11 708.344C312.516 690.42 317.439 674.315 321.986 657.176C322.013 657.077 322.013 656.974 321.986 656.876C321.959 656.778 321.906 656.689 321.834 656.618C321.761 656.548 321.671 656.497 321.572 656.473C321.474 656.449 321.37 656.451 321.273 656.48L312.605 659.066L310.287 659.869C309.752 660.059 309.448 660.433 309.377 660.992C309.211 662.276 308.622 664.494 307.611 667.645C303.248 681.282 298.742 699.343 294.093 721.827C293.682 723.842 294.075 727.142 292.505 729.71C292.172 730.257 292.054 730.846 292.149 731.476C292.458 733.545 292.172 735.536 291.293 737.45C291.031 738.033 290.936 738.645 291.007 739.287C291.245 741.404 290.918 743.437 290.026 745.387C289.794 745.931 289.738 746.53 289.866 747.099C290.27 748.764 289.967 750.244 288.956 751.54C288.54 752.075 288.397 752.67 288.528 753.324C288.974 755.482 288.047 757.265 287.868 758.995C287.119 766.426 286.537 773.863 286.12 781.307C285.954 784.208 285.134 786.425 283.659 787.959C280.36 791.383 275.669 793.309 270.996 791.33C261.544 787.353 263.524 778.382 264.611 770.053C265.753 767.901 266.003 765.16 265.361 761.831L266.93 750.078C272.245 714.122 280.485 685.533 288.635 653.234C288.778 652.651 288.689 652.104 288.368 651.593C285.752 647.432 284.497 642.699 284.604 637.397C284.997 617.695 288.516 598.992 295.163 581.288C297.053 577.019 300.424 570.533 305.275 561.83C308.438 556.17 311.85 551.177 315.512 546.849C326.427 533.954 342.853 527.034 359.119 520.31C373.66 514.294 388.558 504.651 403.813 491.382C409.924 486.067 415.554 479.914 420.703 472.923L429.513 459.957C430.013 459.053 430.114 458.173 429.816 457.317C429.709 457.012 429.52 456.743 429.271 456.541C429.022 456.34 428.723 456.213 428.407 456.176C401.156 453.197 373.405 460.278 349.22 472.441C341.23 476.472 337.271 481.787 331.082 489.385L326.677 492.434C313.836 505.18 304.544 520.792 298.801 539.269C296.209 547.651 292.303 556.967 287.083 567.216C282.874 574.19 279.022 581.395 274.082 587.334C268.428 594.111 259.618 601.62 252.555 594.04C248.881 588.808 248.536 582.905 251.521 576.33C253.714 573.869 256.176 571.746 257.834 569C266.407 554.827 271.561 545.333 273.297 540.517C283.606 511.892 293.718 490.241 314.692 469.962C318.366 466.413 319.436 464.077 321.041 459.457C330.084 433.401 336.397 418.384 335.398 394.842C335.517 392.571 335.458 390.312 335.22 388.064C335.113 386.97 334.804 386.18 334.293 385.692C333.425 384.848 332.396 384.919 331.207 385.906C327.343 383.885 325.773 380.912 326.499 376.989C326.838 375.152 329.085 372.352 331.368 371.745C331.76 371.65 332.016 371.389 332.134 370.961C332.265 370.437 332.592 370.099 333.115 369.944C335.933 369.147 338.769 368.464 341.623 367.893C342.205 367.774 342.55 367.429 342.657 366.859C342.74 366.383 342.96 365.997 343.317 365.699L346.563 362.988C347.027 362.596 347.55 362.477 348.132 362.632L354.624 364.308C355.195 364.451 355.492 364.819 355.516 365.414C355.647 368.184 355.136 370.753 353.982 373.119C353.843 373.412 353.774 373.734 353.78 374.059C353.787 374.384 353.868 374.703 354.018 374.991L356.015 378.897C355.362 381.061 355.552 382.506 356.586 383.231C357.097 383.588 357.609 383.588 358.12 383.231L368.5 376.044L385.354 368.232C391.453 366.484 397.274 364.088 402.814 361.044C404.33 360.206 406.221 360.26 407.969 359.475C414.942 356.318 423.093 358.512 428.586 351.984C438.728 339.928 446.73 329.37 452.592 320.309C455.683 315.53 458.727 308.966 461.723 300.62L464.809 290.258C466.093 288.438 466.64 286.477 466.449 284.372C466.446 284.321 466.455 284.271 466.477 284.225C466.498 284.179 466.531 284.139 466.572 284.109C466.612 284.078 466.66 284.059 466.711 284.052C466.761 284.045 466.812 284.051 466.859 284.069C467.038 284.14 467.21 284.212 467.377 284.283C467.576 284.366 467.797 284.376 468.001 284.311C468.204 284.245 468.375 284.108 468.483 283.926C470.516 280.52 474.35 281.108 477.56 280.27C477.929 280.175 478.244 280.258 478.506 280.52C478.696 280.71 478.993 280.799 479.397 280.787C480.943 280.728 482.495 280.876 484.052 281.233C484.635 281.364 485.212 281.334 485.782 281.144C487.138 280.692 488.256 281.013 489.135 282.107C513.444 263.505 543.799 246.919 573.619 240.32C578.578 239.232 583.643 237.609 588.333 236.86C607.541 233.757 625.038 234.506 643.978 235.897C650.625 236.384 655.446 237.591 658.442 239.517C665.588 244.071 666.95 251.395 662.526 261.49C658.936 269.682 654.816 276.994 650.167 283.427C617.743 328.371 572.638 356.104 520.4 372.798C519.794 372.988 519.609 373.386 519.847 373.993C521.595 378.404 521.755 381.905 520.329 384.497C505.722 411.143 483.607 432.705 455.106 443.103C454.982 443.146 454.868 443.214 454.771 443.304C454.675 443.393 454.598 443.502 454.546 443.623C454.494 443.744 454.468 443.874 454.469 444.006C454.47 444.137 454.499 444.267 454.553 444.387C457.324 450.403 457.692 455.7 455.659 460.278C447.17 479.373 434.144 496.744 416.583 512.392C411.839 516.618 405.311 520.899 399.782 525.34C399.319 525.72 399.093 526.214 399.105 526.82C399.764 568.037 381.341 614.318 350.094 641.837C349.155 642.658 348.418 644.102 347.883 646.171C345.136 656.789 342.259 667.365 339.251 677.9C330.868 707.238 325.304 734.312 320.792 764.024C320.031 769.078 319.549 773.774 319.347 778.114C319.157 781.955 318.485 784.79 317.332 786.621C313.693 792.382 307.487 794.059 300.888 791.276Z" fill="#180000"/>
<path d="M489.135 282.107C488.255 281.013 487.138 280.692 485.782 281.144C485.212 281.334 484.635 281.364 484.052 281.233C482.495 280.876 480.943 280.727 479.397 280.787C478.993 280.799 478.696 280.71 478.506 280.519C478.244 280.258 477.929 280.175 477.56 280.27C474.35 281.108 470.516 280.519 468.482 283.926C468.375 284.108 468.204 284.245 468.001 284.31C467.797 284.376 467.576 284.366 467.377 284.283C467.21 284.211 467.038 284.14 466.859 284.069C466.812 284.051 466.761 284.045 466.711 284.052C466.66 284.058 466.612 284.078 466.572 284.108C466.531 284.138 466.498 284.178 466.477 284.224C466.455 284.27 466.446 284.321 466.449 284.372C466.64 286.476 466.093 288.438 464.808 290.257C464.737 288.807 464.505 287.861 464.113 287.422C464.874 285.674 465.022 284.229 464.559 283.088C464.456 282.837 464.262 282.634 464.015 282.519C463.767 282.403 463.485 282.384 463.221 282.463C429.156 292.808 403.795 311.962 380.235 338.091C369.071 350.468 363.756 362.168 356.015 378.897L354.018 374.991C353.868 374.703 353.787 374.384 353.78 374.059C353.774 373.734 353.843 373.412 353.982 373.118C355.136 370.752 355.647 368.184 355.516 365.414C355.492 364.819 355.195 364.451 354.624 364.308L348.132 362.631C347.55 362.477 347.027 362.596 346.563 362.988L343.317 365.699C342.96 365.996 342.74 366.383 342.657 366.858C342.55 367.429 342.205 367.774 341.623 367.893C338.769 368.463 335.933 369.147 333.115 369.944C332.592 370.098 332.265 370.437 332.134 370.96C332.016 371.388 331.76 371.65 331.368 371.745C329.085 372.351 326.838 375.151 326.499 376.988C325.773 380.912 327.343 383.885 331.207 385.906C293.772 415.958 267.287 460.509 254.071 506.577C252.68 511.446 248.631 520.916 242.264 518.901C237.508 517.391 234.53 514.252 233.329 509.484C232.556 506.405 233.145 501.06 235.095 493.45C246.188 450.379 274.884 404.882 307.522 374.973C315.709 367.5 323.074 359.457 332.723 359.724C334.186 359.778 335.452 360.491 337.003 360.794C337.645 360.913 338.121 360.687 338.43 360.117C343.424 350.985 348.079 341.658 354.321 333.436C364.154 320.44 372.632 310.66 379.754 304.097C405.388 280.472 434.578 264.908 467.323 257.405C479.968 254.498 490.223 261.721 489.189 274.866C488.999 277.267 488.981 279.681 489.135 282.107Z" fill="#2D0100"/>
<path d="M353.172 278.541C353.714 281.999 352.781 285.542 350.58 288.392C348.379 291.242 345.09 293.165 341.435 293.737C339.626 294.021 337.781 293.964 336.007 293.57C334.232 293.177 332.563 292.454 331.094 291.444C329.625 290.433 328.385 289.155 327.445 287.681C326.504 286.208 325.883 284.568 325.614 282.856C325.073 279.398 326.005 275.854 328.206 273.004C330.407 270.154 333.697 268.232 337.351 267.659C339.161 267.376 341.005 267.433 342.78 267.826C344.554 268.22 346.224 268.942 347.693 269.952C349.162 270.963 350.402 272.241 351.342 273.715C352.282 275.189 352.904 276.828 353.172 278.541Z" fill="#5C0703"/>
<path d="M464.113 287.421C463.292 289.883 462.721 291.613 460.314 292.968C442.491 303.074 431.314 309.703 426.784 312.854C401.887 330.225 383.285 350.396 368.5 376.043L358.12 383.231C357.608 383.587 357.097 383.587 356.586 383.231C355.551 382.505 355.361 381.061 356.015 378.897C363.756 362.167 369.07 350.468 380.235 338.09C403.795 311.962 429.156 292.807 463.221 282.463C463.484 282.383 463.767 282.403 464.015 282.519C464.262 282.634 464.456 282.837 464.558 283.087C465.022 284.229 464.874 285.674 464.113 287.421Z" fill="#FFFEFA"/>
<path d="M464.113 287.421C464.506 287.861 464.738 288.807 464.809 290.257L461.724 300.619C447.277 312.985 433.58 325.897 420.632 339.357C414.176 346.063 406.632 350.949 400.3 357.834C395.271 363.309 390.33 364.361 385.355 368.231L368.5 376.043C383.286 350.397 401.887 330.225 426.785 312.854C431.315 309.703 442.492 303.074 460.315 292.968C462.722 291.613 463.293 289.883 464.113 287.421Z" fill="#FFB52C"/>
<path d="M461.723 300.619C458.726 308.965 455.682 315.529 452.591 320.308C446.729 329.369 438.727 339.927 428.585 351.983C423.092 358.511 414.942 356.317 407.968 359.474C406.22 360.259 404.33 360.205 402.814 361.043C397.273 364.087 391.453 366.483 385.354 368.231C390.329 364.361 395.27 363.308 400.299 357.833C406.631 350.949 414.175 346.062 420.631 339.356C433.579 325.897 447.276 312.984 461.723 300.619Z" fill="#E14201"/>
<path d="M503.439 790.634C503.118 791.716 502.084 792.287 500.336 792.346C494.557 792.548 488.82 792.465 483.125 792.096C482.447 792.061 482.049 791.71 481.93 791.044C480.907 785.717 481.781 780.712 484.552 776.027C485.36 774.672 485.057 774.351 483.642 775.064C470.754 781.592 457.425 787.727 443.656 793.47C435.06 797.054 425.964 797.536 423.021 786.621C422.665 779.642 425.714 774.939 432.171 772.514C460.457 761.866 485.533 752.877 508.986 738.253C516.904 733.312 524.074 726.178 531.654 719.99C533.651 718.349 536.44 715.079 540.018 710.18C541.992 708.385 543.591 706.251 544.816 703.778C545.03 703.347 545.134 702.87 545.12 702.389C545.106 701.908 544.973 701.437 544.733 701.019C544.494 700.6 544.155 700.245 543.747 699.986C543.338 699.727 542.873 699.572 542.39 699.533L538.716 699.248C516.744 696.59 497.928 698.534 476.544 703.492C443.656 711.108 415.655 730.994 398.57 760.314C396.857 763.222 393.629 766.789 392.327 771.354C389.545 780.29 387.476 794.7 376.258 796.484L371.996 795.36L369.641 793.773L366.877 788.351C366.556 787.733 366.271 787.745 366.021 788.387C365.854 788.791 365.89 789.409 366.128 790.241C365.973 788.244 365.343 786.49 364.237 784.98C363.435 780.307 367.091 770.498 368.999 766.111C381.858 736.398 405.828 707.648 435.702 693.505C436.301 693.219 436.832 692.809 437.26 692.302C437.687 691.794 438.001 691.201 438.181 690.562C449.827 648.026 475.456 611.553 512.82 587.012C518.004 583.612 523.313 582.31 528.747 583.107C532.635 583.66 535.417 586.852 538.146 589.456C538.243 589.549 538.362 589.618 538.491 589.657C538.62 589.696 538.756 589.703 538.887 589.679C539.019 589.654 539.141 589.598 539.245 589.516C539.349 589.434 539.431 589.327 539.483 589.206C556.427 551.45 582.608 525.964 618.01 505.222C619.901 504.116 623.093 504.151 623.272 500.781C623.617 494.42 624.746 487.506 626.661 480.039C632.617 456.942 638.913 435.398 648.954 414.299C666.486 377.416 688.494 346.919 718.653 318.597C729.515 308.395 741.91 310.785 747.546 324.786C752.016 335.867 754.311 344.511 754.43 350.718C754.466 352.81 754.579 354.522 754.769 355.854C755.137 358.494 755.328 359.843 755.339 359.902C757.694 396.476 751.725 431.421 737.433 464.736C732.992 475.063 726.75 485.389 720.793 495.412C718.415 499.419 715.687 503.165 712.607 506.648C707.257 512.677 709.094 516.85 706.9 523.574C704.76 530.125 702.185 535.88 699.177 540.838C697.75 543.168 698.381 544.066 701.068 543.531C709.093 541.95 716.941 541.26 724.61 541.462C729.604 541.587 734.633 541.016 739.466 541.569C748.901 542.621 758.336 543.442 767.325 545.742C774.007 547.443 778.917 548.947 782.056 550.255C793.239 554.874 792.525 566.609 787.3 575.562C774.684 597.083 758.895 615.941 739.93 632.135C734.924 636.415 729.705 640.03 724.271 642.978C724.031 643.11 723.833 643.306 723.697 643.544C723.562 643.782 723.495 644.052 723.505 644.326C723.514 644.599 723.599 644.865 723.75 645.093C723.901 645.321 724.112 645.503 724.36 645.618C736.559 651.159 748.188 657.246 759.245 663.881C761.588 665.284 763.936 667.454 766.29 670.391C773.121 678.934 765.024 687.869 757.943 692.934C712.999 725.144 656.231 742.39 601.103 745.119C592.816 745.523 585.521 745.416 579.22 744.798C570.136 743.894 561.028 743.181 551.897 742.658C548.758 742.48 545.85 740.268 542.533 742.711C531.868 750.577 516.137 755.089 510.448 769.054C507.487 776.348 504.563 781.913 503.439 790.634Z" fill="#180000"/>
<path d="M335.399 394.841C336.397 418.383 330.084 433.4 321.041 459.457C319.436 464.076 318.366 466.413 314.692 469.962C293.718 490.24 283.606 511.892 273.297 540.517C271.561 545.332 266.407 554.827 257.834 568.999C256.176 571.746 253.715 573.868 251.521 576.33C250.689 561.443 250.897 549.096 252.145 539.286C253.019 532.331 258.708 522.807 260.706 518.188C263.821 510.959 266.901 503.712 269.944 496.447C284.194 462.453 300.924 437.592 320.506 409.466C323.182 405.626 328.146 400.751 335.399 394.841Z" fill="#FFA41C"/>
<path d="M551.182 445.224C551.557 441.443 553.876 439.428 555.088 436.343C555.98 434.048 557.181 431.789 558.691 429.565C558.952 429.187 559.289 428.867 559.681 428.628C560.073 428.388 560.51 428.233 560.965 428.174C561.42 428.116 561.881 428.153 562.319 428.285C562.757 428.418 563.161 428.641 563.506 428.941C567.287 432.241 569.784 438.233 572.067 444.565C572.269 445.147 572.68 445.391 573.298 445.296C576.211 444.868 579.118 444.939 582.019 445.51C582.602 445.629 583.149 445.528 583.66 445.207C586.603 443.263 589.849 446.063 591.864 447.65C592.782 448.371 593.379 449.425 593.526 450.583C593.673 451.742 593.358 452.911 592.649 453.839C589.831 457.536 586.436 460.485 582.465 462.685C581.43 463.255 580.485 464.498 579.629 466.412C579.391 466.947 579.362 467.488 579.54 468.035C581.181 473.136 586.406 481.822 581.092 486.263C579.082 487.951 577.269 488.308 575.652 487.333C570.836 484.443 566.128 481.394 561.527 478.183C560.885 477.732 560.385 477.862 560.029 478.576L559.6 479.45C559.363 479.925 559.012 480.282 558.548 480.52L545.832 487.083C545.534 487.234 545.202 487.303 544.87 487.284C544.538 487.266 544.217 487.159 543.941 486.976C537.004 482.285 540.464 474.616 543.656 468.749C544.047 468.022 544.141 467.172 543.918 466.379C543.695 465.587 543.172 464.914 542.461 464.504C539.732 462.952 526.338 452.715 530.333 448.417C532.848 445.688 535.951 443.976 539.857 445.242C540.44 445.433 541.028 445.438 541.623 445.26C544.477 444.428 547.271 444.642 550.005 445.902C550.707 446.235 551.099 446.009 551.182 445.224Z" fill="#2D0100"/>
<path d="M429.513 459.957C394.735 462.739 368.786 473.69 338.395 489.064C333.996 491.299 331.558 491.406 331.083 489.385C337.271 481.787 341.231 476.472 349.221 472.442C373.405 460.278 401.156 453.198 428.408 456.176C428.723 456.213 429.022 456.34 429.271 456.542C429.52 456.743 429.709 457.012 429.817 457.318C430.114 458.174 430.013 459.053 429.513 459.957Z" fill="#FEFFEB"/>
<path d="M429.513 459.956L420.702 472.922C413.747 473.314 407.267 475.222 401.262 478.647C396.055 481.631 392.488 483.515 390.561 484.3C378.874 489.116 370.812 492.522 366.377 494.52C362.578 496.25 358.298 499.246 354.071 501.261C343.62 506.219 333.936 511.338 324.733 518.454C324.566 518.587 324.363 518.667 324.15 518.682C323.937 518.697 323.725 518.647 323.541 518.539C323.358 518.43 323.211 518.269 323.121 518.075C323.031 517.882 323.003 517.666 323.038 517.455C324.305 509.483 327.765 501.939 331.135 494.359C331.188 494.239 331.203 494.105 331.18 493.976C331.156 493.847 331.094 493.728 331.002 493.634C330.91 493.54 330.792 493.476 330.663 493.449C330.535 493.423 330.401 493.435 330.279 493.485C327.878 494.436 326.677 494.086 326.677 492.433L331.082 489.383C331.558 491.404 333.995 491.297 338.394 489.062C368.785 473.688 394.735 462.738 429.513 459.956Z" fill="#FFB52C"/>
<path d="M420.703 472.922C415.554 479.914 409.925 486.067 403.813 491.381C388.558 504.651 373.66 514.293 359.119 520.31C342.853 527.033 326.427 533.953 315.512 546.848C311.85 551.176 308.438 556.17 305.275 561.829C300.424 570.533 297.053 577.019 295.163 581.287C294.996 579.551 294.2 578.273 292.773 577.453C292.273 577.167 291.893 576.769 291.631 576.258L287.083 567.216C292.303 556.966 296.209 547.651 298.801 539.268C304.544 520.791 313.836 505.18 326.677 492.434C326.677 494.086 327.878 494.437 330.28 493.486C330.401 493.436 330.535 493.423 330.664 493.45C330.792 493.476 330.91 493.541 331.002 493.634C331.094 493.728 331.156 493.848 331.18 493.977C331.204 494.106 331.188 494.239 331.136 494.36C327.765 501.94 324.305 509.484 323.039 517.456C323.003 517.666 323.032 517.883 323.122 518.076C323.211 518.27 323.358 518.431 323.542 518.539C323.725 518.648 323.938 518.698 324.151 518.683C324.363 518.668 324.566 518.588 324.733 518.455C333.936 511.339 343.62 506.22 354.071 501.262C358.298 499.247 362.579 496.25 366.378 494.52C370.813 492.523 378.874 489.116 390.562 484.301C392.488 483.516 396.055 481.632 401.263 478.647C407.267 475.223 413.747 473.315 420.703 472.922Z" fill="#E14201"/>
<path d="M507.47 499.371C507.47 502.768 506.121 506.025 503.719 508.426C501.318 510.828 498.061 512.177 494.664 512.177C491.268 512.177 488.011 510.828 485.61 508.426C483.208 506.025 481.859 502.768 481.859 499.371C481.859 495.975 483.208 492.718 485.61 490.317C488.011 487.915 491.268 486.566 494.664 486.566C498.061 486.566 501.318 487.915 503.719 490.317C506.121 492.718 507.47 495.975 507.47 499.371Z" fill="#5C0703"/>
<path d="M767.092 496.293C768.734 499.184 769.12 502.633 768.165 505.88C767.209 509.127 764.99 511.907 761.996 513.608C759.002 515.309 755.478 515.791 752.199 514.95C748.921 514.108 746.156 512.011 744.513 509.12C742.871 506.228 742.485 502.78 743.441 499.533C744.397 496.285 746.616 493.506 749.61 491.805C752.604 490.104 756.128 489.621 759.406 490.463C762.685 491.305 765.449 493.402 767.092 496.293Z" fill="#2D0100"/>
<path d="M287.083 567.215L291.631 576.258C291.892 576.769 292.273 577.167 292.772 577.453C294.199 578.273 294.996 579.551 295.162 581.287C288.515 598.991 284.996 617.694 284.604 637.396C284.497 642.699 285.751 647.431 288.367 651.592C288.688 652.104 288.777 652.651 288.634 653.233C280.484 685.532 272.244 714.122 266.929 750.077C263.523 749.007 259.474 748.81 256.906 746.599C253.684 743.829 252.037 740.274 251.966 735.934C251.407 701.084 251.567 661.455 252.447 617.046C252.519 613.586 252.875 606.042 252.055 601.833C251.556 599.217 251.722 596.619 252.554 594.039C259.617 601.619 268.427 594.11 274.081 587.333C279.021 581.394 282.874 574.189 287.083 567.215Z" fill="#D8CA9A"/>
<path d="M300.888 791.275C295.169 791.144 290.995 787.108 288.368 779.165C287.726 777.203 288.237 774.159 289.901 770.034C290.127 769.487 290.169 768.928 290.026 768.357C289.551 766.467 289.836 764.808 290.882 763.381C291.192 762.953 291.364 762.478 291.4 761.954C291.649 756.8 293.504 751.967 294.057 747.258C294.699 741.676 295.359 734.738 297.214 728.835C299.978 719.971 301.084 710.804 302.636 701.672C303.385 697.267 305.346 691.881 306.256 686.798C307.29 681.037 309.502 676.133 310.073 670.105C310.132 669.542 310.327 668.997 310.643 668.517C312.475 665.794 313.128 662.644 312.605 659.065L321.273 656.479C321.37 656.45 321.474 656.447 321.572 656.472C321.671 656.496 321.761 656.546 321.834 656.617C321.907 656.688 321.959 656.777 321.986 656.875C322.013 656.973 322.013 657.076 321.986 657.174C317.439 674.314 312.516 690.419 309.11 708.343C306.97 719.668 303.955 730.761 302.404 742.193C302.059 744.714 301.464 747.681 300.62 751.093C299.503 755.599 298.123 765.266 296.483 780.093C295.948 784.967 297.416 788.695 300.888 791.275Z" fill="#FFB52C"/>
<path d="M538.717 699.249L543.265 700.533C543.8 700.687 544.043 701.05 543.996 701.621L543.907 702.423C543.859 702.97 543.556 703.261 542.997 703.297C534.133 703.85 525.109 703.868 516.53 705.134C503.344 707.072 494.385 708.594 489.653 709.7C468.786 714.604 443.353 725.038 424.609 738.468C418.063 743.158 414.764 747.189 410.127 752.004C405.811 756.463 402.708 760.922 398.588 765.131C398.481 765.238 398.457 765.357 398.516 765.488C398.552 765.547 398.588 765.612 398.623 765.684L393.523 771.73C393.249 771.468 392.851 771.343 392.328 771.355C393.63 766.789 396.858 763.222 398.57 760.315C415.656 730.995 443.657 711.109 476.544 703.493C497.928 698.535 516.744 696.591 538.717 699.249Z" fill="#FFFEFA"/>
<path d="M538.717 699.248L542.391 699.533C542.873 699.572 543.339 699.727 543.747 699.986C544.155 700.245 544.494 700.6 544.734 701.018C544.973 701.437 545.106 701.908 545.12 702.389C545.134 702.87 545.03 703.347 544.816 703.778C543.591 706.251 541.992 708.385 540.018 710.18C537.147 712.802 534.044 712.945 531.19 715.067C527.587 717.742 523.432 718.67 518.242 719.49C515.763 719.9 513.605 721.363 511.001 721.773C508.195 722.213 506.37 722.588 505.526 722.897C491.686 727.819 477.899 732.849 463.988 737.521C455.677 740.315 444.774 744.84 431.279 751.094C423.229 754.827 417.255 758.174 413.355 761.135C412.903 761.48 412.398 761.705 411.839 761.813C410.055 762.157 407.832 762.978 405.169 764.274C404.122 764.785 401.941 765.255 398.623 765.683C398.588 765.611 398.552 765.546 398.516 765.486C398.457 765.356 398.481 765.237 398.588 765.13C402.707 760.921 405.811 756.462 410.127 752.003C414.764 747.188 418.063 743.157 424.609 738.467C443.353 725.037 468.786 714.603 489.653 709.699C494.385 708.593 503.344 707.071 516.53 705.133C525.108 703.867 534.133 703.849 542.997 703.296C543.556 703.26 543.859 702.969 543.906 702.422L543.996 701.62C544.043 701.049 543.799 700.686 543.264 700.532L538.717 699.248Z" fill="#FFB52C"/>
<path d="M540.019 710.181C536.44 715.079 533.651 718.349 531.654 719.99C524.074 726.179 516.905 733.313 508.986 738.253C485.533 752.877 460.457 761.866 432.171 772.514C425.715 774.939 422.665 779.642 423.021 786.621C422.26 785.753 420.834 785.813 418.741 786.8C418.392 786.966 418.093 787.221 417.874 787.54C417.655 787.859 417.525 788.23 417.496 788.616C417.467 789.002 417.541 789.388 417.709 789.736C417.878 790.084 418.135 790.382 418.456 790.598C419.038 790.991 419.585 791.121 420.096 790.991C420.173 790.964 420.257 790.965 420.335 790.995C420.413 791.024 420.48 791.079 420.525 791.151C420.679 791.353 420.762 791.585 420.774 791.847C420.834 792.596 420.489 792.923 419.74 792.828L414.443 792.186C413.765 792.102 413.2 791.811 412.749 791.312C411.774 790.265 410.596 790.141 409.217 790.937C408.995 791.068 408.729 791.106 408.479 791.043C408.228 790.979 408.013 790.82 407.88 790.598C405.573 786.675 402.226 784.089 397.839 782.84C397.268 782.674 396.881 782.311 396.679 781.752C396.156 780.254 395.122 779.297 393.576 778.881C392.993 778.726 392.684 778.346 392.649 777.739C392.542 775.647 392.833 773.643 393.522 771.729L398.623 765.683C401.941 765.255 404.122 764.785 405.169 764.274C407.832 762.978 410.055 762.158 411.839 761.813C412.398 761.706 412.903 761.48 413.355 761.135C417.255 758.174 423.23 754.827 431.279 751.094C444.774 744.84 455.677 740.316 463.988 737.522C477.899 732.849 491.686 727.819 505.526 722.897C506.37 722.588 508.195 722.213 511.001 721.773C513.605 721.363 515.763 719.901 518.242 719.491C523.432 718.67 527.588 717.743 531.19 715.067C534.044 712.945 537.147 712.802 540.019 710.181Z" fill="#E14201"/>
<path d="M265.361 761.83C266.003 765.16 265.753 767.9 264.612 770.052C263.886 766.996 264.136 764.256 265.361 761.83Z" fill="#E14201"/>
<path d="M392.328 771.354C392.851 771.342 393.249 771.467 393.523 771.729C392.833 773.643 392.542 775.646 392.649 777.739C392.684 778.345 392.993 778.726 393.576 778.88C395.122 779.297 396.156 780.254 396.679 781.752C396.881 782.311 397.268 782.673 397.839 782.84C402.226 784.088 405.573 786.674 407.88 790.598C408.013 790.819 408.228 790.979 408.479 791.042C408.729 791.106 408.995 791.068 409.217 790.937C410.597 790.14 411.774 790.265 412.749 791.311C413.2 791.811 413.765 792.102 414.443 792.185L419.74 792.827C420.489 792.922 420.834 792.595 420.774 791.846C420.762 791.585 420.679 791.353 420.525 791.151C420.48 791.079 420.413 791.023 420.335 790.994C420.257 790.965 420.173 790.964 420.097 790.99C419.585 791.121 419.038 790.99 418.456 790.598C418.135 790.382 417.878 790.084 417.709 789.736C417.541 789.388 417.467 789.001 417.496 788.616C417.525 788.23 417.655 787.859 417.874 787.54C418.093 787.221 418.392 786.965 418.741 786.799C420.834 785.812 422.261 785.753 423.022 786.621C425.964 797.536 435.06 797.054 443.657 793.469C457.425 787.727 470.754 781.591 483.642 775.064C485.057 774.35 485.361 774.671 484.552 776.027C481.782 780.711 480.908 785.717 481.93 791.044C482.049 791.71 482.448 792.06 483.125 792.096C488.821 792.465 494.557 792.548 500.336 792.346C502.084 792.286 503.118 791.716 503.439 790.634L590.063 789.849C594.582 790.8 598.987 790.788 603.279 789.813C607.988 789.831 613.909 788.172 617.725 791.579C619.414 793.077 620.716 795.586 621.631 799.105C622.452 802.232 622.19 804.884 620.847 807.06C618.029 811.697 614.283 812.642 609.058 811.607C607.007 811.197 605.277 812.018 603.493 812C547.563 811.75 491.633 811.578 435.702 811.483C414.728 811.447 386.603 812.16 362.008 811.768C361.134 811.75 360.724 811.447 359.904 811.197C359.392 811.043 358.893 811.061 358.406 811.251C356.836 811.845 355.255 811.768 353.662 811.019C348.739 808.712 346.468 805.026 346.849 799.961C347.063 797.09 349.131 795.128 350.273 792.328C350.47 791.831 350.827 791.411 351.289 791.133C355.427 788.672 359.535 788.612 363.613 790.955C365.219 791.882 365.801 791.442 365.361 789.635L364.238 784.98C365.343 786.49 365.974 788.244 366.128 790.241C366.913 792.524 368.084 793.701 369.642 793.773L371.996 795.36C373.351 796.442 373.821 798.017 373.405 800.086C373.37 800.269 373.402 800.459 373.494 800.621C374.053 801.584 374.826 802.286 375.812 802.726C375.912 802.764 376.022 802.769 376.125 802.74C376.228 802.711 376.319 802.649 376.382 802.565C376.446 802.481 376.479 802.379 376.476 802.276C376.473 802.172 376.434 802.073 376.365 801.994C375.592 801.103 374.951 800.199 374.439 799.284C374.023 798.546 373.88 797.916 374.011 797.393C374.237 796.501 374.986 796.198 376.258 796.484C387.477 794.7 389.545 780.289 392.328 771.354Z" fill="#E77615"/>
<path d="M369.641 793.773C368.084 793.701 366.913 792.524 366.128 790.241C365.89 789.409 365.854 788.791 366.021 788.386C366.27 787.744 366.556 787.732 366.877 788.351L369.641 793.773Z" fill="#5C0703"/>
<path d="M603.279 789.813C598.987 790.788 594.582 790.8 590.063 789.849L603.279 789.813Z" fill="#FFB52C"/>
<path d="M696.466 800.996C696.466 803.668 695.404 806.231 693.515 808.121C691.625 810.011 689.062 811.073 686.389 811.073C683.717 811.073 681.154 810.011 679.264 808.121C677.374 806.231 676.312 803.668 676.312 800.996C676.312 798.323 677.374 795.76 679.264 793.871C681.154 791.981 683.717 790.919 686.389 790.919C689.062 790.919 691.625 791.981 693.515 793.871C695.404 795.76 696.466 798.323 696.466 800.996Z" fill="#FB8F0F"/>
<path d="M658.585 800.853C658.585 803.341 657.597 805.727 655.837 807.487C654.078 809.246 651.692 810.234 649.204 810.234C646.716 810.234 644.33 809.246 642.57 807.487C640.811 805.727 639.823 803.341 639.823 800.853C639.823 798.365 640.811 795.979 642.57 794.22C644.33 792.46 646.716 791.472 649.204 791.472C651.692 791.472 654.078 792.46 655.837 794.22C657.597 795.979 658.585 798.365 658.585 800.853Z" fill="#FB8F0F"/>
<path d="M371.996 795.361L376.258 796.484C374.986 796.199 374.237 796.502 374.011 797.394C373.88 797.917 374.023 798.547 374.439 799.284C374.95 800.2 375.592 801.103 376.365 801.995C376.433 802.074 376.472 802.173 376.475 802.277C376.479 802.38 376.446 802.482 376.382 802.566C376.319 802.65 376.228 802.711 376.125 802.74C376.021 802.769 375.911 802.765 375.812 802.726C374.825 802.287 374.053 801.585 373.494 800.622C373.401 800.46 373.37 800.27 373.405 800.087C373.821 798.018 373.351 796.443 371.996 795.361Z" fill="#E14201"/>
<path d="M633.063 265.895C618.343 267.298 604.694 269.836 592.114 273.51C551.397 285.388 515.852 303.526 481.93 332.793C475.705 338.162 466.735 341.746 463.596 350.486C463.513 350.71 463.375 350.909 463.194 351.065C463.013 351.221 462.795 351.329 462.561 351.377L461.027 351.68" stroke="#FFD284" stroke-width="2"/>
<path d="M619.241 283.837C594.997 292.231 575.736 299.656 561.456 306.113C545.833 313.158 526.178 324.34 508.183 333.115C498.142 338.019 490.74 344.208 481.948 349.041C480.806 349.648 480.503 350.54 480.004 351.645C479.754 352.168 479.344 352.436 478.773 352.448L472.656 352.662" stroke="#F0730F" stroke-width="2"/>
<path d="M502.243 356.817C502.517 355.949 502.457 355.23 502.065 354.659C501.72 354.148 501.245 353.946 500.638 354.053C498.331 354.445 497.606 355.699 498.462 357.816" stroke="#EE6908" stroke-width="2"/>
<path d="M474.047 376.097C476.639 377.429 479.284 377.988 481.983 377.774" stroke="#DBC2AC" stroke-width="2"/>
<path d="M484.23 378.379C486.24 380.199 488.564 381.037 491.204 380.894" stroke="#DBC2AC" stroke-width="2"/>
<path d="M492.077 386.477C486.917 384.135 480.081 382.868 471.567 382.678C467.679 382.583 464.487 382.827 461.99 383.41C459.243 384.069 457.317 383.516 454.66 383.891C431.528 387.244 412.659 392.398 389.669 404.151C381.358 408.396 373.047 413.889 364.754 418.937C364.088 419.341 362.953 420.245 361.348 421.648C359.861 422.967 358.44 423.49 357.085 423.217" stroke="#FFD18B" stroke-width="2"/>
<path d="M479.112 400.495C470.717 399.948 463.09 400.531 456.229 402.243C446.087 404.775 435.119 408.039 423.324 412.034C396.857 420.987 378.737 427.372 358.94 441.712" stroke="#F0730F" stroke-width="2"/>
<path d="M312.07 607.523C311.903 608.201 311.903 608.706 312.07 609.039C312.319 609.574 312.629 609.609 312.997 609.146C326.968 591.525 338.959 572.008 348.97 550.594" stroke="#F07C17" stroke-width="2"/>
<path d="M729.817 347.097L721.399 362.649" stroke="#F0A07E" stroke-width="2"/>
<path d="M721.4 362.649C712.839 377.036 704.349 391.161 695.931 405.025C682.08 427.842 671.028 451.954 662.776 477.363C661.659 480.787 660.915 483.784 660.547 486.352C660.508 486.617 660.405 486.869 660.247 487.086C660.088 487.304 659.879 487.48 659.637 487.6L654.715 490.062" stroke="#FFDA93" stroke-width="2"/>
<path d="M675.617 484.515L681.895 482.535C682.441 482.369 682.84 482.024 683.09 481.501C696.377 453.589 704.705 434.845 712.695 410.036C714.467 404.531 715.965 398.622 717.19 392.308C719.098 382.464 721.702 373.243 721.399 362.649" stroke="#F07C17" stroke-width="2"/>
<path d="M684.517 509.484H680.54" stroke="#F07C17" stroke-width="2"/>
<path d="M680.54 509.485L671.961 509.377" stroke="#F0A176" stroke-width="2"/>
<path d="M680.539 509.484L682.965 509.681C683.547 509.728 683.898 510.043 684.017 510.626C684.374 512.338 683.708 513.509 682.019 514.139C668.964 519.062 653.715 526.749 644.637 531.1C623.057 541.462 604.759 556.301 588.012 574.35C584.504 578.119 582.952 583.238 583.357 589.706" stroke="#FFDA8C" stroke-width="2"/>
<path d="M680.04 526.106C676.711 525.179 673.649 525.964 670.855 528.46C667.312 531.623 665.487 533.246 665.38 533.329C658.691 538.056 651.611 543.157 645.226 548.239C632.171 558.596 619.306 569.196 606.631 580.039C604.123 582.191 600.924 583.975 597.036 585.39" stroke="#F07C17" stroke-width="2"/>
<path d="M762.081 572.085C746.351 571.776 731.067 572.65 716.228 574.707C713.695 575.046 711.662 576.455 709.023 576.954C705.658 577.596 702.388 578.565 699.213 579.861C696.966 580.788 693.274 580.753 690.403 581.734C685.754 583.303 680.891 584.379 675.814 584.962" stroke="#FFD284" stroke-width="2"/>
<path d="M753.841 582.804C738.598 588.868 729.158 593.023 725.519 595.27C720.187 598.552 715.692 600.71 711.02 603.51C709.082 604.687 707.001 605.757 704.777 606.72" stroke="#F0730F" stroke-width="2"/>
<path d="M678.399 612.855C669.184 611.547 662.597 611.107 658.638 611.535C654.025 612.034 650.6 612.266 648.365 612.231C645.208 612.159 642.515 613.39 639.269 613.533C625.869 614.103 611.792 616.981 597.036 622.165C574.172 630.208 560.492 637.913 540.482 652.555C539.935 652.948 539.263 652.882 538.466 652.359" stroke="#FFDA8C" stroke-width="2"/>
<path d="M668.341 626.821C666.902 626.428 666.159 626.167 666.111 626.036C665.966 625.681 665.752 625.358 665.481 625.086C665.211 624.815 664.889 624.601 664.534 624.456C664.18 624.311 663.801 624.239 663.42 624.244C663.038 624.249 662.661 624.331 662.312 624.484C656.338 627.124 651.308 628.693 644.388 629.942C620.739 634.222 601.406 641.178 577.329 649.881C566.521 653.769 556.159 659.245 545.511 663.953C544.997 664.175 544.554 664.532 544.227 664.987C543.05 666.569 541.522 667.568 539.644 667.984C539.405 668.037 539.185 668.152 539.003 668.318C538.822 668.484 538.686 668.694 538.609 668.929C538.122 670.391 536.98 671.895 535.185 673.441" stroke="#F07C17" stroke-width="2"/>
<path d="M535.06 660.795C536.641 660.248 536.998 659.113 536.13 657.389" stroke="#F07C17" stroke-width="2"/>
<path d="M520.81 622.682C503.849 639.483 490.544 656.355 477.632 676.027C475.385 679.451 472.388 680.378 468.75 681.538" stroke="#FFDA8C" stroke-width="2"/>
<path d="M512.356 653.804C511.144 654.875 510.169 657.056 509.432 660.35C509.406 660.461 509.347 660.561 509.261 660.638C509.174 660.714 509.066 660.763 508.95 660.778C507.904 660.932 506.905 660.819 505.954 660.439C505.686 660.324 505.388 660.299 505.102 660.366C504.817 660.434 504.559 660.59 504.366 660.814L495.164 671.479C495.062 671.6 494.923 671.685 494.768 671.721C494.614 671.757 494.452 671.741 494.307 671.677C494.162 671.612 494.042 671.502 493.965 671.364C493.888 671.225 493.858 671.065 493.879 670.908L494.218 668.179C494.355 667.002 494.95 665.921 495.877 665.165L500.906 661.081C501.061 660.95 501.109 660.784 501.049 660.582L500.889 660.082C500.663 659.393 500.241 659.238 499.622 659.619C492.928 663.816 488.03 669.678 484.926 677.204" stroke="#FDA21E" stroke-width="2"/>
<path d="M736.202 680.557C729.092 677.822 724.045 675.991 721.06 675.064C720.858 675.004 720.674 675.004 720.508 675.064C720.317 675.123 720.133 675.1 719.955 674.993C719.348 674.612 718.682 674.499 717.957 674.654C717.422 674.773 716.917 674.683 716.441 674.386C715.644 673.875 714.771 673.786 713.819 674.119C713.249 674.321 712.696 674.285 712.161 674.012C703.885 669.927 697.286 670.052 689.582 667.538C687.495 666.86 685.426 666.735 683.25 666.343C683.036 666.307 682.929 666.176 682.929 665.95C682.929 665.772 682.929 665.599 682.929 665.433C682.93 665.346 682.912 665.261 682.876 665.181C682.841 665.102 682.789 665.03 682.723 664.972C682.658 664.913 682.581 664.868 682.496 664.84C682.412 664.812 682.323 664.801 682.234 664.809C680.89 664.94 679.683 664.619 678.613 663.846C678.185 663.537 677.71 663.323 677.187 663.204C673.441 662.359 669.66 662.169 665.843 662.633C665.356 662.692 665.112 662.478 665.112 661.991C665.112 661.456 665.035 661.028 664.88 660.707" stroke="#FED788" stroke-width="2"/>
<path d="M727.285 685.853C724.955 686.186 723.992 685.841 724.396 684.819C724.456 684.675 724.478 684.518 724.458 684.363C724.439 684.208 724.38 684.062 724.286 683.937C724.192 683.813 724.067 683.715 723.924 683.654C723.78 683.592 723.623 683.57 723.468 683.588C713.826 684.742 704.831 685.211 696.484 684.997C693.868 684.926 691.003 685.306 687.888 686.139C683.156 687.411 678.304 687.904 673.334 687.619C667.431 687.28 660.975 690.062 655.125 690.936C637.897 693.493 620.573 696.447 603.154 699.8C602.987 699.832 602.815 699.827 602.65 699.785C602.486 699.743 602.333 699.665 602.203 699.558C602.073 699.45 601.969 699.315 601.9 699.162C601.83 699.01 601.795 698.844 601.799 698.677L601.816 697.392" stroke="#F07C17" stroke-width="2"/>
<path d="M633.063 265.895C618.343 267.298 604.694 269.837 592.114 273.511C551.397 285.389 515.852 303.527 481.93 332.794C475.706 338.163 466.735 341.747 463.596 350.486C463.513 350.711 463.375 350.91 463.194 351.066C463.013 351.222 462.795 351.329 462.561 351.378L461.027 351.681C460.635 351.705 460.415 351.444 460.368 350.897C460.344 350.611 460.433 350.32 460.635 350.023C470.819 334.738 480.253 319.026 494.575 307.112C521.803 284.509 552.616 269.123 587.013 260.955C603.207 257.121 618.973 256.318 635.221 257.781C635.452 257.803 635.674 257.882 635.867 258.011C636.06 258.14 636.219 258.314 636.328 258.519C636.437 258.723 636.495 258.952 636.494 259.184C636.494 259.416 636.437 259.645 636.327 259.849L633.063 265.895Z" fill="#FEFFEB"/>
<path d="M633.063 265.895L619.241 283.836C594.997 292.231 575.736 299.656 561.456 306.112C545.832 313.157 526.178 324.34 508.183 333.114C498.142 338.019 490.74 344.208 481.948 349.041C480.806 349.647 480.503 350.539 480.004 351.645C479.754 352.168 479.344 352.435 478.773 352.447L472.656 352.661C469.255 352.649 465.855 352.59 462.454 352.483C462.133 352.471 461.658 352.204 461.027 351.68L462.561 351.377C462.795 351.329 463.013 351.221 463.194 351.065C463.375 350.909 463.513 350.71 463.596 350.486C466.735 341.746 475.705 338.162 481.93 332.793C515.852 303.526 551.397 285.388 592.114 273.51C604.694 269.836 618.343 267.298 633.063 265.895Z" fill="#FFA41C"/>
<path d="M619.241 283.836C605.092 300.232 589.076 313.87 571.194 324.749C552.717 335.967 532.742 344.403 512.945 353.178C512.41 353.416 511.851 353.547 511.268 353.57C510.983 353.582 510.71 353.63 510.448 353.713C510.282 353.773 510.121 353.88 509.967 354.034C507.862 356.174 505.288 357.102 502.244 356.816C502.517 355.948 502.458 355.229 502.066 354.658C501.721 354.147 501.245 353.945 500.639 354.052C498.332 354.444 497.607 355.699 498.463 357.815C495.913 355.051 493.665 358.047 491.24 355.336C490.847 354.896 490.36 354.647 489.777 354.587L472.656 352.661L478.773 352.447C479.344 352.435 479.754 352.168 480.004 351.644C480.503 350.539 480.806 349.647 481.948 349.04C490.74 344.207 498.142 338.018 508.183 333.114C526.178 324.339 545.833 313.157 561.456 306.112C575.736 299.656 594.997 292.23 619.241 283.836Z" fill="#E14201"/>
<path d="M502.243 356.817C500.805 358.446 499.544 358.779 498.462 357.816C497.606 355.699 498.331 354.445 500.638 354.053C501.245 353.946 501.72 354.148 502.065 354.659C502.457 355.23 502.517 355.949 502.243 356.817Z" fill="#FB8F0F"/>
<path d="M474.048 376.097C476.64 377.429 479.285 377.988 481.984 377.774C482.852 377.881 483.602 378.083 484.232 378.38C486.241 380.199 488.566 381.038 491.205 380.895C492.798 381.335 493.446 382.268 493.149 383.695C492.876 385.027 492.519 385.954 492.079 386.477C486.919 384.135 480.082 382.869 471.569 382.678C467.681 382.583 464.488 382.827 461.991 383.41C459.245 384.07 457.319 383.517 454.661 383.891C431.529 387.244 412.66 392.398 389.671 404.152C381.36 408.396 373.049 413.89 364.755 418.937C364.09 419.341 362.954 420.245 361.349 421.648C359.863 422.968 358.442 423.491 357.086 423.217C358.026 419.793 358.329 416.707 357.996 413.961C357.926 413.368 358.02 412.768 358.269 412.224C358.517 411.68 358.91 411.213 359.405 410.875C368.215 404.936 376.741 397.945 386.015 393.451C414.23 379.789 442.498 373.279 474.048 376.097Z" fill="#FFFEFA"/>
<path d="M474.047 376.097L476.722 376.169C477.317 376.18 477.869 376.341 478.381 376.65C479.51 377.352 480.711 377.726 481.983 377.774C479.284 377.988 476.639 377.429 474.047 376.097Z" fill="#B7855D"/>
<path d="M484.231 378.379L491.204 380.894C488.565 381.037 486.24 380.199 484.231 378.379Z" fill="#B7855D"/>
<path d="M492.078 386.477C487.857 392.386 483.535 397.059 479.112 400.495C470.718 399.948 463.091 400.531 456.23 402.243C446.088 404.776 435.119 408.04 423.325 412.035C396.858 420.988 378.737 427.373 358.941 441.712C356.658 443.531 354.232 444.708 351.664 445.243C350.986 445.386 350.742 445.124 350.933 444.458L357.086 423.217C358.441 423.49 359.862 422.967 361.348 421.648C362.953 420.245 364.089 419.341 364.755 418.937C373.048 413.889 381.359 408.396 389.67 404.151C412.659 392.398 431.529 387.244 454.661 383.891C457.318 383.516 459.244 384.069 461.991 383.41C464.488 382.827 467.68 382.583 471.568 382.678C480.081 382.868 486.918 384.135 492.078 386.477Z" fill="#FFA41C"/>
<path d="M479.113 400.495C462.437 416.653 446.225 422.735 426.874 431.135C425.828 431.587 424.734 431.795 423.593 431.76C401.62 431.201 380.069 434.518 358.941 441.712C378.738 427.372 396.858 420.987 423.325 412.034C435.12 408.039 446.088 404.775 456.23 402.243C463.091 400.531 470.718 399.948 479.113 400.495Z" fill="#E14201"/>
<path d="M312.07 607.522C311.903 608.2 311.903 608.705 312.07 609.038C312.319 609.573 312.629 609.609 312.997 609.145C326.968 591.524 338.959 572.007 348.97 550.593L374.831 537.271C374.953 537.208 375.089 537.179 375.226 537.185C375.363 537.192 375.496 537.235 375.612 537.309C375.727 537.382 375.821 537.485 375.884 537.607C375.948 537.729 375.978 537.865 375.972 538.002C374.581 560.652 366.573 582.447 354.231 601.387C344.761 615.905 325.91 636.718 307.379 636.272C306.844 636.26 306.618 635.993 306.701 635.47C307.219 632.117 306.719 629.192 307.807 625.982C309.876 619.882 310.536 613.729 312.07 607.522Z" fill="#E14201"/>
<path d="M348.971 550.594C338.96 572.008 326.969 591.525 312.998 609.146C312.63 609.609 312.32 609.574 312.071 609.039C311.904 608.706 311.904 608.201 312.071 607.523C312.909 603.474 313.497 599.658 315.156 595.805C317.748 589.753 320.334 583.695 322.914 577.631C327.492 566.859 336.178 557.847 348.971 550.594Z" fill="#FFB52C"/>
<path d="M729.817 347.097L721.399 362.649C712.839 377.036 704.349 391.161 695.931 405.025C682.079 427.842 671.028 451.955 662.776 477.364C661.658 480.788 660.915 483.784 660.547 486.352C660.508 486.617 660.405 486.869 660.246 487.087C660.088 487.304 659.879 487.48 659.637 487.601L654.715 490.062L647.581 491.917C647.435 491.953 647.281 491.948 647.138 491.901C646.995 491.855 646.868 491.769 646.771 491.654C646.674 491.539 646.612 491.398 646.591 491.249C646.57 491.1 646.592 490.948 646.653 490.811C649.186 485.407 649.293 479.432 650.827 474.67C657.176 454.749 661.795 439.875 669.821 423.752C684.463 394.288 702.798 366.091 727 344.44C727.487 344 727.969 344.006 728.444 344.458C729.015 345.016 729.473 345.896 729.817 347.097Z" fill="#FFFEFA"/>
<path d="M729.817 347.097C733.051 366.489 733.663 384.485 731.654 401.083C728.23 429.565 717.065 462.043 699.747 486.37C699.673 486.472 699.578 486.557 699.47 486.621C699.361 486.685 699.241 486.726 699.117 486.741C698.993 486.756 698.867 486.745 698.749 486.709C698.63 486.673 698.521 486.612 698.428 486.53L696.822 485.139C696.489 484.841 696.057 484.675 695.61 484.675L675.617 484.515L681.895 482.535C682.441 482.369 682.84 482.024 683.09 481.501C696.377 453.589 704.705 434.845 712.695 410.036C714.467 404.531 715.965 398.622 717.19 392.308C719.098 382.463 721.702 373.243 721.399 362.649L729.817 347.097Z" fill="#E14201"/>
<path d="M721.4 362.649C721.703 373.243 719.099 382.464 717.191 392.308C715.966 398.622 714.468 404.531 712.696 410.036C704.706 434.845 696.377 453.589 683.09 481.501C682.841 482.024 682.442 482.369 681.895 482.535L675.617 484.515L654.715 490.062L659.637 487.6C659.879 487.48 660.088 487.304 660.247 487.086C660.405 486.869 660.508 486.617 660.547 486.352C660.915 483.784 661.659 480.787 662.776 477.363C671.028 451.954 682.08 427.842 695.931 405.025C704.349 391.161 712.839 377.036 721.4 362.649Z" fill="#FFB52C"/>
<path d="M684.517 509.484H680.54L671.961 509.377C676.42 506.915 680.605 506.951 684.517 509.484Z" fill="#E14201"/>
<path d="M671.962 509.376L680.54 509.484L682.966 509.68C683.548 509.727 683.899 510.042 684.018 510.625C684.375 512.337 683.709 513.508 682.02 514.138C668.965 519.061 653.717 526.748 644.639 531.099C623.058 541.462 604.76 556.3 588.013 574.349C584.505 578.118 582.953 583.237 583.358 589.705L563.133 597.695C562.669 597.885 562.33 598.206 562.116 598.658C561.938 599.027 561.659 599.288 561.278 599.443C560.684 599.693 560.499 599.514 560.725 598.908C578.685 551.895 625.626 521.611 671.962 509.376Z" fill="#FEFFEB"/>
<path d="M680.539 509.484H684.516C684.16 514.764 682.667 520.304 680.04 526.106C676.711 525.179 673.649 525.964 670.855 528.461C667.312 531.623 665.487 533.246 665.38 533.33C658.691 538.056 651.611 543.157 645.226 548.24C632.171 558.596 619.306 569.196 606.631 580.039C604.122 582.191 600.924 583.975 597.036 585.39L583.357 589.706C582.952 583.238 584.504 578.119 588.012 574.35C604.759 556.301 623.057 541.462 644.637 531.1C653.715 526.749 668.964 519.062 682.019 514.139C683.708 513.509 684.374 512.338 684.017 510.626C683.898 510.043 683.547 509.728 682.965 509.681L680.539 509.484Z" fill="#FFB52C"/>
<path d="M680.04 526.106C671.384 540.493 664.856 549.821 660.457 554.089C651.445 562.828 641.677 570.658 631.154 577.578C630.727 577.851 630.286 578.107 629.834 578.345C625.144 580.717 622.005 581.305 615.941 581.805C608.843 582.358 605.347 586.067 597.036 585.39C600.924 583.975 604.123 582.191 606.631 580.039C619.306 569.196 632.171 558.596 645.226 548.239C651.611 543.157 658.691 538.056 665.38 533.329C665.487 533.246 667.312 531.623 670.855 528.46C673.649 525.964 676.711 525.179 680.04 526.106Z" fill="#E14201"/>
<path d="M762.08 572.085C746.35 571.776 731.065 572.65 716.227 574.707C713.694 575.045 711.661 576.454 709.021 576.954C705.657 577.596 702.387 578.565 699.212 579.861C696.965 580.788 693.273 580.753 690.402 581.734C685.753 583.303 680.89 584.379 675.813 584.962L665.932 582.536C663.364 581.906 663.263 581.002 665.629 579.825C695.092 565.218 729.264 560.332 761.278 569.338C761.991 569.54 762.437 569.826 762.615 570.194C762.889 570.765 762.711 571.395 762.08 572.085Z" fill="#FEFFEB"/>
<path d="M762.081 572.085L753.842 582.804C738.599 588.868 729.158 593.023 725.52 595.27C720.187 598.552 715.693 600.71 711.02 603.51C709.082 604.687 707.001 605.757 704.778 606.72C703.191 592.756 687.139 588.065 675.814 584.962C680.891 584.379 685.754 583.303 690.403 581.734C693.274 580.753 696.966 580.788 699.213 579.861C702.388 578.565 705.658 577.596 709.023 576.954C711.662 576.455 713.695 575.046 716.228 574.707C731.067 572.65 746.351 571.776 762.081 572.085Z" fill="#FFA41C"/>
<path d="M753.841 582.804C745.506 593.505 736.44 603.177 726.643 611.821C717.368 620.025 704.581 628.301 694.058 635.952C689.148 639.507 688.5 638.853 692.114 633.99C695.087 629.983 698.386 625.34 702.013 620.061C704.914 615.828 705.835 611.381 704.777 606.72C707 605.757 709.081 604.687 711.019 603.51C715.692 600.71 720.186 598.552 725.519 595.27C729.157 593.023 738.598 588.868 753.841 582.804Z" fill="#E14201"/>
<path d="M678.399 612.855C669.184 611.547 662.597 611.107 658.638 611.535C654.025 612.035 650.6 612.267 648.365 612.231C645.208 612.16 642.515 613.39 639.269 613.533C625.869 614.103 611.792 616.981 597.036 622.165C574.172 630.208 560.492 637.913 540.482 652.556C539.935 652.948 539.263 652.883 538.466 652.359C542.729 637.235 558.852 626.41 571.461 620.364C603.064 605.204 643.353 599.051 677.65 609.038C678.316 609.229 678.625 609.669 678.577 610.358L678.399 612.855Z" fill="#FEFFEB"/>
<path d="M520.81 622.682C503.849 639.483 490.544 656.355 477.632 676.027C475.385 679.451 472.388 680.378 468.75 681.538L464.434 683C464.284 683.053 464.121 683.059 463.967 683.017C463.813 682.975 463.676 682.887 463.573 682.765C463.47 682.643 463.407 682.493 463.392 682.334C463.377 682.175 463.411 682.016 463.489 681.876C468.037 673.458 472.477 664.042 477.239 656.64C488.689 638.823 502.583 625.5 517.957 611.072C518.244 610.801 518.605 610.623 518.994 610.559C519.384 610.495 519.783 610.549 520.141 610.714C520.5 610.879 520.801 611.147 521.006 611.484C521.211 611.821 521.31 612.212 521.292 612.606L520.81 622.682Z" fill="#FEFFEB"/>
<path d="M678.4 612.855C675.998 617.813 672.645 622.468 668.341 626.82C666.902 626.427 666.159 626.166 666.111 626.035C665.967 625.679 665.752 625.357 665.482 625.085C665.211 624.814 664.889 624.599 664.535 624.455C664.181 624.31 663.801 624.238 663.42 624.243C663.038 624.248 662.662 624.33 662.313 624.483C656.338 627.123 651.309 628.692 644.389 629.941C620.739 634.221 601.406 641.177 577.329 649.88C566.521 653.768 556.159 659.243 545.512 663.952C544.998 664.174 544.554 664.531 544.228 664.986C543.05 666.568 541.523 667.566 539.644 667.983C539.406 668.036 539.185 668.151 539.004 668.317C538.822 668.483 538.687 668.693 538.61 668.928C538.122 670.39 536.981 671.894 535.185 673.44L531.208 673.262C530.661 673.238 530.4 672.947 530.423 672.388C530.655 667.876 533.99 664.362 535.061 660.795C536.642 660.248 536.999 659.113 536.131 657.389L538.467 652.359C539.264 652.882 539.935 652.948 540.482 652.555C560.493 637.913 574.172 630.208 597.037 622.165C611.792 616.981 625.87 614.103 639.27 613.533C642.516 613.39 645.209 612.159 648.366 612.231C650.601 612.266 654.025 612.034 658.639 611.535C662.598 611.107 669.185 611.547 678.4 612.855Z" fill="#FFB52C"/>
<path d="M520.81 622.682C519.062 633.336 516.244 643.71 512.356 653.804C511.144 654.874 510.169 657.056 509.431 660.35C509.406 660.46 509.347 660.561 509.26 660.637C509.174 660.714 509.066 660.763 508.95 660.778C507.904 660.932 506.905 660.819 505.954 660.439C505.686 660.324 505.387 660.299 505.102 660.366C504.817 660.434 504.559 660.59 504.366 660.813L495.164 671.479C495.061 671.6 494.923 671.685 494.768 671.721C494.614 671.756 494.452 671.741 494.307 671.676C494.162 671.612 494.042 671.502 493.965 671.364C493.887 671.225 493.858 671.065 493.879 670.908L494.218 668.179C494.355 667.002 494.95 665.92 495.877 665.165L500.906 661.081C501.061 660.95 501.108 660.784 501.049 660.582L500.888 660.082C500.663 659.393 500.241 659.238 499.622 659.619C492.928 663.816 488.029 669.677 484.926 677.204L468.75 681.538C472.388 680.378 475.385 679.451 477.632 676.027C490.544 656.355 503.849 639.483 520.81 622.682Z" fill="#FFB52C"/>
<path d="M668.341 626.819C640.161 653.09 605.419 664.701 568.126 671.692C564.149 672.441 557.318 675.794 553.858 675.473C547.818 674.902 541.594 674.224 535.185 673.44C536.98 671.894 538.122 670.39 538.609 668.927C538.686 668.693 538.822 668.482 539.003 668.317C539.185 668.151 539.405 668.036 539.644 667.982C541.522 667.566 543.05 666.567 544.227 664.986C544.554 664.531 544.997 664.173 545.511 663.951C556.159 659.243 566.521 653.768 577.329 649.88C601.406 641.176 620.739 634.221 644.388 629.94C651.308 628.692 656.338 627.122 662.312 624.483C662.661 624.329 663.038 624.248 663.42 624.243C663.801 624.238 664.18 624.31 664.534 624.454C664.889 624.599 665.211 624.813 665.481 625.085C665.752 625.356 665.966 625.679 666.111 626.034C666.159 626.165 666.902 626.427 668.341 626.819Z" fill="#E14201"/>
<path d="M512.356 653.804L505.098 673.708C504.907 674.219 504.545 674.511 504.01 674.582L484.926 677.204C488.03 669.678 492.928 663.816 499.622 659.619C500.241 659.238 500.663 659.393 500.889 660.082L501.049 660.582C501.109 660.784 501.061 660.95 500.906 661.081L495.877 665.165C494.95 665.921 494.355 667.002 494.218 668.179L493.879 670.908C493.858 671.065 493.888 671.225 493.965 671.364C494.042 671.502 494.162 671.612 494.307 671.677C494.452 671.741 494.614 671.757 494.768 671.721C494.923 671.685 495.062 671.6 495.164 671.479L504.366 660.814C504.559 660.59 504.817 660.434 505.102 660.366C505.388 660.299 505.686 660.324 505.954 660.439C506.905 660.819 507.904 660.932 508.95 660.778C509.066 660.763 509.174 660.714 509.261 660.638C509.347 660.561 509.406 660.461 509.432 660.35C510.169 657.056 511.144 654.875 512.356 653.804Z" fill="#FB8F0F"/>
<path d="M536.13 657.389C536.998 659.113 536.641 660.248 535.06 660.795C535.155 659.416 535.511 658.281 536.13 657.389Z" fill="#E14201"/>
<path d="M736.202 680.557C729.092 677.822 724.045 675.991 721.06 675.063C720.858 675.004 720.674 675.004 720.508 675.063C720.317 675.123 720.133 675.099 719.955 674.992C719.348 674.612 718.682 674.499 717.957 674.653C717.422 674.772 716.917 674.683 716.441 674.386C715.644 673.874 714.771 673.785 713.819 674.118C713.249 674.32 712.696 674.285 712.161 674.011C703.885 669.927 697.286 670.052 689.582 667.537C687.495 666.859 685.426 666.734 683.25 666.342C683.036 666.306 682.929 666.176 682.929 665.95C682.929 665.771 682.929 665.599 682.929 665.432C682.93 665.346 682.912 665.26 682.876 665.181C682.841 665.101 682.789 665.03 682.723 664.971C682.658 664.912 682.581 664.868 682.496 664.839C682.412 664.811 682.323 664.801 682.234 664.808C680.89 664.939 679.683 664.618 678.613 663.845C678.185 663.536 677.71 663.322 677.187 663.203C673.441 662.359 669.66 662.169 665.843 662.632C665.356 662.692 665.112 662.478 665.112 661.99C665.112 661.455 665.035 661.027 664.88 660.706C667.33 658.614 671.194 657.9 676.473 658.566C697.827 661.265 717.452 667.709 735.346 677.899C736.595 678.613 736.88 679.498 736.202 680.557Z" fill="#FDF8E3"/>
<path d="M664.881 660.706C665.035 661.027 665.113 661.455 665.113 661.99C665.113 662.478 665.356 662.692 665.844 662.632C669.66 662.169 673.442 662.359 677.187 663.203C677.71 663.322 678.186 663.536 678.614 663.845C679.684 664.618 680.89 664.939 682.234 664.808C682.323 664.801 682.412 664.811 682.497 664.839C682.581 664.867 682.658 664.912 682.724 664.971C682.789 665.03 682.841 665.101 682.877 665.18C682.912 665.26 682.93 665.346 682.93 665.432C682.93 665.599 682.93 665.771 682.93 665.95C682.93 666.175 683.037 666.306 683.251 666.342C685.427 666.734 687.495 666.859 689.582 667.537C697.287 670.052 703.886 669.927 712.161 674.011C712.696 674.284 713.249 674.32 713.82 674.118C714.771 673.785 715.645 673.874 716.441 674.385C716.917 674.683 717.422 674.772 717.957 674.653C718.683 674.498 719.349 674.611 719.955 674.992C720.133 675.099 720.318 675.123 720.508 675.063C720.674 675.004 720.859 675.004 721.061 675.063C724.045 675.991 729.092 677.822 736.203 680.556C733.801 682.673 730.828 684.438 727.285 685.853C724.955 686.186 723.992 685.841 724.396 684.819C724.456 684.675 724.478 684.518 724.458 684.363C724.439 684.209 724.38 684.062 724.286 683.937C724.192 683.813 724.067 683.715 723.924 683.654C723.78 683.592 723.623 683.57 723.468 683.588C713.826 684.742 704.831 685.211 696.484 684.997C693.868 684.926 691.003 685.306 687.888 686.139C683.156 687.411 678.304 687.904 673.334 687.619C667.431 687.28 660.975 690.062 655.125 690.936C637.897 693.493 620.573 696.447 603.154 699.8C602.987 699.832 602.815 699.827 602.65 699.785C602.486 699.743 602.333 699.665 602.203 699.558C602.073 699.45 601.969 699.315 601.9 699.163C601.83 699.01 601.795 698.844 601.799 698.677L601.816 697.393C609.462 690.306 617.987 684.331 627.392 679.468C639.745 673.072 652.242 666.817 664.881 660.706Z" fill="#FFB52C"/>
<path d="M727.285 685.853C707.013 697.755 685.623 706.696 663.115 712.677C642.855 718.063 625.091 721.416 609.824 722.736C596.876 723.859 585.462 724.626 579.184 722.754C576.473 721.957 576.366 720.899 578.863 719.579C579.993 718.997 581.199 718.075 582.484 716.815C589.011 710.489 595.456 704.015 601.817 697.392L601.799 698.677C601.795 698.844 601.83 699.01 601.9 699.162C601.97 699.315 602.073 699.45 602.203 699.558C602.333 699.665 602.486 699.743 602.651 699.785C602.815 699.827 602.987 699.832 603.154 699.8C620.573 696.447 637.897 693.493 655.125 690.936C660.975 690.062 667.431 687.28 673.335 687.619C678.305 687.904 683.156 687.411 687.888 686.139C691.003 685.306 693.869 684.926 696.484 684.997C704.831 685.211 713.826 684.742 723.469 683.588C723.623 683.57 723.78 683.592 723.924 683.654C724.067 683.715 724.192 683.813 724.286 683.937C724.38 684.062 724.439 684.208 724.459 684.363C724.478 684.518 724.456 684.675 724.396 684.819C723.992 685.841 724.955 686.186 727.285 685.853Z" fill="#E14201"/>
<path d="M575.449 692.049C575.555 692.204 575.576 692.415 575.51 692.671C575.444 692.927 575.292 693.222 575.063 693.541C574.834 693.86 574.533 694.195 574.177 694.528C573.82 694.861 573.415 695.186 572.986 695.482C572.556 695.779 572.109 696.042 571.671 696.257C571.233 696.472 570.813 696.635 570.433 696.735C570.054 696.836 569.724 696.873 569.461 696.844C569.198 696.815 569.008 696.72 568.902 696.566C568.795 696.412 568.774 696.201 568.841 695.945C568.907 695.689 569.059 695.393 569.288 695.074C569.516 694.755 569.817 694.42 570.174 694.087C570.53 693.754 570.935 693.43 571.365 693.133C571.795 692.837 572.242 692.573 572.68 692.358C573.117 692.143 573.538 691.981 573.917 691.88C574.296 691.78 574.627 691.743 574.89 691.772C575.153 691.801 575.343 691.895 575.449 692.049Z" fill="#E77615"/>
<path d="M366.324 798.285C366.003 797.892 365.872 797.458 365.932 796.983C365.991 796.376 366.301 796.198 366.859 796.448C367.085 796.543 367.275 796.697 367.43 796.911C367.573 797.09 367.662 797.333 367.698 797.643C367.852 799.236 367.87 800.918 367.751 802.69C367.747 802.786 367.705 802.877 367.635 802.943C367.566 803.01 367.473 803.047 367.377 803.047H366.574C366.098 803.047 365.914 802.815 366.021 802.351L366.645 799.694C366.701 799.449 366.7 799.195 366.645 798.951C366.589 798.707 366.48 798.479 366.324 798.285Z" fill="#E14201"/>
<path d="M578.557 801.693C578.308 802.003 577.889 802.155 577.393 802.116C576.896 802.077 576.362 801.851 575.909 801.486C575.455 801.121 575.119 800.649 574.975 800.172C574.83 799.696 574.889 799.254 575.138 798.944C575.387 798.634 575.806 798.482 576.302 798.521C576.799 798.56 577.333 798.786 577.786 799.151C578.239 799.516 578.575 799.988 578.72 800.465C578.864 800.942 578.806 801.383 578.557 801.693Z" fill="#E14201"/>
</svg>
