<svg width="1024" height="1024" viewBox="0 0 1024 1024" fill="none" xmlns="http://www.w3.org/2000/svg">
<rect width="1024" height="1024" fill="white"/>
<path d="M493.882 249.155L517.583 248.89" stroke="#093238" stroke-width="2"/>
<path d="M517.582 248.89L549.411 249.487C549.887 249.499 550.354 249.347 550.735 249.054C551.117 248.761 551.39 248.345 551.51 247.874C553.564 239.613 543.514 234.688 541.99 226.89C541.519 224.534 541.106 222.215 540.753 219.932" stroke="#0C1839" stroke-width="2"/>
<path d="M518.886 219.579C517.869 219.461 516.942 219.542 516.102 219.822C515.293 220.087 515.175 220.529 515.749 221.147C516.787 222.23 517.384 223.025 517.384 224.615C517.339 232.655 517.406 240.747 517.582 248.89" stroke="#144960" stroke-width="2"/>
<path d="M493.882 249.155L517.583 248.89L549.412 249.487C549.888 249.499 550.355 249.347 550.736 249.054C551.117 248.761 551.39 248.345 551.51 247.874C553.565 239.613 543.514 234.687 541.99 226.89C541.519 224.534 541.107 222.215 540.753 219.932C546.688 212.01 553.66 210.022 561.671 213.968C587.139 226.47 590.209 259.228 569.093 277.362C568.548 277.833 568.32 278.415 568.408 279.107C573.076 315.229 579.349 347.375 587.227 375.545C601.386 426.216 616.914 478.478 627.34 528.022C629.328 537.49 630.359 547.96 630.432 559.432C630.83 623.68 630.778 687.935 630.278 752.197C630.175 763.536 629.453 771.54 628.113 776.208C623.651 791.692 611.149 804.658 595.621 809.318C591.071 810.673 583.605 811.402 573.223 811.505C505.044 812.109 458.032 812.16 432.189 811.66C416.837 811.372 401.994 794.121 397.179 781.376C395.087 775.839 394.035 767.254 394.02 755.621C393.976 688.752 394.005 621.883 394.108 555.014C394.13 538.691 398.084 521.815 401.508 504.984C407.501 475.547 413.576 452.472 419.731 435.758C422.485 428.293 424.384 422.689 425.43 418.949C438.219 373.425 449.815 326.752 456.928 279.969C457.031 279.247 456.795 278.658 456.221 278.202C451.17 274.226 447.651 269.175 445.663 263.049C440.339 246.681 441.753 229.364 456.044 217.834C464.615 210.876 474.223 209.264 481.954 218.497C490.568 228.746 471.44 237.559 473.141 248.493C473.244 249.17 473.641 249.509 474.333 249.509L493.882 249.155Z" fill="#010111"/>
<path d="M518.887 219.579C517.871 219.461 516.943 219.542 516.104 219.822C515.294 220.087 515.176 220.529 515.75 221.147C516.789 222.23 517.385 223.025 517.385 224.615C517.341 232.655 517.407 240.747 517.584 248.89L493.883 249.155L495.584 222.119C495.623 221.414 495.931 220.751 496.445 220.266C496.959 219.781 497.638 219.512 498.345 219.513L518.887 219.579Z" fill="#11625F"/>
<path d="M540.754 219.932C541.108 222.215 541.52 224.534 541.991 226.89C543.515 234.687 553.565 239.613 551.511 247.874C551.391 248.345 551.118 248.761 550.737 249.054C550.355 249.347 549.889 249.499 549.413 249.487L517.583 248.89C517.407 240.747 517.34 232.655 517.384 224.615C517.384 223.025 516.788 222.23 515.75 221.147C515.176 220.529 515.294 220.087 516.103 219.822C516.943 219.542 517.87 219.461 518.886 219.579L540.754 219.932Z" fill="#172F60"/>
<path d="M517.075 281.25L517.804 352.154C517.806 352.504 517.884 352.85 518.032 353.168C518.179 353.485 518.393 353.768 518.659 353.996C518.924 354.224 519.236 354.393 519.572 354.49C519.909 354.588 520.262 354.612 520.609 354.562C527.397 353.56 532.345 355.209 535.452 359.509" stroke="#E6E3E8" stroke-width="2"/>
<path d="M511.509 387.804C513.409 388.791 512.334 389.572 508.284 390.146C507.532 390.245 506.847 390.615 506.362 391.184C502.85 395.315 498.278 397.855 495.274 402.096C492.159 406.469 488.382 410.423 487.123 415.636C486.24 419.332 485.548 423.58 485.047 428.381" stroke="#EBB49A" stroke-width="2"/>
<path d="M484.119 405.74C484.987 406.182 485.724 406.116 486.327 405.541C486.681 405.218 486.895 404.673 486.968 403.907C487.027 403.288 487.101 402.685 487.189 402.096" stroke="#E6E3E8" stroke-width="2"/>
<path d="M487.189 402.096L491.253 395.889" stroke="#D29A8F" stroke-width="2"/>
<path d="M487.189 402.095C486.924 402.434 486.563 402.39 486.106 401.963" stroke="#B97E7C" stroke-width="2"/>
<path d="M539.473 405.232C527.457 409.076 521.831 416.483 522.597 427.453C523.098 434.551 523.208 440.139 522.929 444.218" stroke="#BE4F2E" stroke-width="2"/>
<path d="M522.309 445.234C522.412 444.528 522.213 443.975 521.713 443.578C521.389 443.327 520.881 443.202 520.189 443.202C514.475 443.202 508.74 443.202 502.982 443.202C502.302 443.203 501.631 443.02 501.038 442.672C498.373 441.082 497.261 441.325 497.703 443.401" stroke="#EB965B" stroke-width="2"/>
<path d="M570.838 582.757C569.792 567.545 568.658 552.775 567.436 538.447C566.199 524.031 564.152 509.732 561.296 495.552C561.237 495.301 561.075 495.147 560.81 495.088C560.604 495.043 560.397 494.999 560.191 494.955C559.69 494.823 559.403 495.014 559.33 495.529C558.49 500.786 550.097 502.045 545.966 503.481C545.592 503.61 545.196 503.664 544.801 503.639C544.406 503.614 544.021 503.511 543.667 503.336C543.313 503.161 542.999 502.918 542.741 502.621C542.484 502.323 542.288 501.978 542.167 501.604L532.757 472.977" stroke="#144960" stroke-width="2"/>
<path d="M452.444 435.714C449.19 445.374 446.178 454.556 443.41 463.259C440.936 471.078 450.566 471.21 455.757 471.453C456.479 471.483 457.105 471.262 457.635 470.791L460.396 468.295C461.618 467.205 462.899 467.117 464.239 468.03C469.688 471.741 473.457 472.153 475.548 469.267C476.712 467.647 476.299 465.652 474.311 463.281" stroke="#88B1AD" stroke-width="2"/>
<path d="M442.261 590.532L442.813 545.052C442.818 544.709 442.894 544.37 443.035 544.057C443.177 543.744 443.382 543.463 443.637 543.233C443.892 543.003 444.192 542.828 444.517 542.719C444.843 542.61 445.188 542.57 445.53 542.6C454.366 543.454 460.536 539.839 464.04 531.755C468.591 521.196 458.209 512.472 448.203 514.747C447.9 514.816 447.585 514.804 447.289 514.711C446.992 514.618 446.726 514.447 446.515 514.217C446.305 513.986 446.158 513.704 446.09 513.397C446.022 513.091 446.034 512.772 446.126 512.472C448.512 504.873 452.576 494.293 447.54 487.048C445.434 484.014 442.725 483.403 439.412 485.214" stroke="#88B1AD" stroke-width="2"/>
<path d="M566.464 618.474C567.451 630.903 567.981 647.116 568.055 667.113C568.077 679.681 567.282 692.448 561.649 703.139C560.162 705.981 558.726 708.823 557.342 711.665" stroke="#E6E3E8" stroke-width="2"/>
<path d="M532.403 780.382C543.381 774.176 553.94 767.549 551.598 753.236" stroke="#144960" stroke-width="2"/>
<path d="M443.608 732.826L443.387 781.089" stroke="#88B1AD" stroke-width="2"/>
<path d="M517.075 281.25L517.804 352.154C517.806 352.504 517.884 352.85 518.032 353.167C518.179 353.485 518.393 353.768 518.659 353.996C518.925 354.224 519.236 354.392 519.573 354.49C519.909 354.587 520.262 354.612 520.609 354.561C527.398 353.56 532.345 355.209 535.452 359.509C512.193 351.712 483.699 356.616 467.928 377.357C467.737 377.607 467.678 377.585 467.751 377.29C476.278 346.219 482.845 314.736 487.454 282.84C487.523 282.386 487.75 281.972 488.094 281.672C488.439 281.372 488.878 281.206 489.332 281.206L517.075 281.25Z" fill="#FFFFFB"/>
<path d="M517.074 281.25L536.645 281.338C537.455 281.353 537.911 281.758 538.014 282.553C542.962 318.248 546.408 345.064 555.309 371.857C556.414 375.17 555.766 375.553 553.366 373.005C548.462 367.778 542.491 363.279 535.452 359.509C532.345 355.209 527.397 353.56 520.608 354.562C520.262 354.612 519.908 354.588 519.572 354.49C519.236 354.393 518.924 354.224 518.658 353.996C518.392 353.768 518.178 353.485 518.031 353.168C517.884 352.85 517.806 352.504 517.803 352.154L517.074 281.25Z" fill="#CDC6D4"/>
<path d="M511.508 387.804C513.408 388.791 512.333 389.571 508.283 390.146C507.531 390.244 506.846 390.614 506.361 391.184C502.849 395.314 498.277 397.855 495.273 402.095C492.159 406.469 488.381 410.423 487.122 415.636C486.239 419.332 485.547 423.58 485.046 428.381C482.057 420.871 481.748 413.324 484.118 405.74C484.987 406.182 485.723 406.116 486.327 405.541C486.681 405.217 486.894 404.672 486.968 403.907C487.027 403.288 487.1 402.685 487.189 402.095L491.253 395.889C496.569 390.425 503.321 387.731 511.508 387.804Z" fill="#FFFFFB"/>
<path d="M511.508 387.805C524.408 386.921 533.729 392.731 539.472 405.233C527.456 409.076 521.831 416.483 522.596 427.454C523.097 434.551 523.207 440.14 522.928 444.219C522.574 444.94 522.368 445.279 522.309 445.235C522.412 444.528 522.213 443.976 521.713 443.578C521.389 443.328 520.881 443.203 520.189 443.203C514.475 443.203 508.74 443.203 502.982 443.203C502.302 443.203 501.631 443.02 501.038 442.673C498.373 441.082 497.261 441.325 497.703 443.401C490.811 439.661 486.592 434.654 485.046 428.381C485.547 423.581 486.239 419.332 487.122 415.636C488.381 410.423 492.158 406.47 495.273 402.096C498.277 397.855 502.849 395.315 506.361 391.184C506.846 390.615 507.531 390.245 508.283 390.146C512.333 389.572 513.408 388.791 511.508 387.805Z" fill="#D76839"/>
<path d="M491.253 395.889L487.189 402.096C486.924 402.434 486.563 402.39 486.106 401.963C486.681 398.885 488.396 396.861 491.253 395.889Z" fill="#A43523"/>
<path d="M486.106 401.963C486.563 402.39 486.923 402.434 487.188 402.095C487.1 402.684 487.027 403.288 486.968 403.907C486.894 404.672 486.68 405.217 486.327 405.541C485.723 406.116 484.987 406.182 484.118 405.74L486.106 401.963Z" fill="#CDC6D4"/>
<path d="M539.472 405.232C541.386 410.578 542.122 416.313 541.681 422.439C540.863 434.102 533.618 441.148 522.928 444.218C523.207 440.139 523.097 434.551 522.596 427.453C521.83 416.483 527.456 409.076 539.472 405.232Z" fill="#A43523"/>
<path d="M570.838 582.757C569.792 567.545 568.658 552.776 567.436 538.448C566.199 524.031 564.152 509.733 561.296 495.552C561.237 495.302 561.075 495.147 560.81 495.088C560.604 495.044 560.397 495 560.191 494.955C559.69 494.823 559.403 495.014 559.33 495.53C558.49 500.787 550.097 502.046 545.966 503.482C545.592 503.61 545.196 503.664 544.801 503.639C544.406 503.614 544.021 503.511 543.667 503.336C543.313 503.162 542.999 502.918 542.741 502.621C542.484 502.324 542.288 501.978 542.167 501.604L532.757 472.977C543.338 468.67 553.211 463.413 559.727 453.473C561.612 450.602 563.792 447.966 566.265 445.566C566.81 445.036 567.178 444.41 567.37 443.688C568.018 441.288 568.754 438.946 569.579 436.664C569.859 435.854 570.308 435.272 570.926 434.919C571.029 434.864 571.144 434.831 571.26 434.824C571.377 434.817 571.493 434.835 571.601 434.878C571.709 434.92 571.805 434.985 571.883 435.069C571.961 435.152 572.019 435.252 572.053 435.361C580.424 462.596 587.36 488.793 595.864 528.022C600.215 548.056 598.846 569.128 599.31 589.45C599.316 589.821 599.175 590.18 598.919 590.448C598.663 590.717 598.311 590.874 597.94 590.886C591.844 591.062 581.352 592.321 576.205 588.522C573.731 586.696 571.942 584.774 570.838 582.757Z" fill="#172F60"/>
<path d="M452.443 435.714C449.189 445.374 446.178 454.556 443.409 463.259C440.935 471.078 450.566 471.21 455.757 471.453C456.478 471.483 457.104 471.262 457.634 470.791L460.395 468.295C461.617 467.205 462.899 467.117 464.239 468.03C469.687 471.74 473.457 472.153 475.548 469.267C476.711 467.647 476.299 465.651 474.311 463.281C476.858 463.398 480.017 465.151 483.787 468.538C495.825 479.339 519.15 478.698 532.757 472.977L542.167 501.604C542.288 501.978 542.483 502.324 542.741 502.621C542.998 502.918 543.313 503.162 543.667 503.336C544.02 503.511 544.406 503.614 544.801 503.639C545.195 503.664 545.591 503.61 545.966 503.482C550.096 502.046 558.49 500.787 559.329 495.53C559.403 495.014 559.69 494.823 560.191 494.955C560.397 495 560.603 495.044 560.809 495.088C561.074 495.147 561.236 495.302 561.295 495.552C564.152 509.733 566.199 524.031 567.436 538.448C568.658 552.776 569.792 567.545 570.837 582.757C562.149 576.749 556.524 573.06 553.962 571.691C519.636 553.313 479.789 557.289 453.371 586.91C449.999 590.679 446.295 591.887 442.261 590.532L442.813 545.052C442.817 544.709 442.893 544.37 443.035 544.057C443.177 543.744 443.381 543.463 443.636 543.233C443.891 543.003 444.191 542.828 444.517 542.719C444.843 542.61 445.188 542.57 445.53 542.6C454.365 543.454 460.535 539.839 464.04 531.755C468.59 521.196 458.208 512.472 448.202 514.747C447.9 514.816 447.584 514.804 447.288 514.711C446.992 514.618 446.725 514.447 446.515 514.217C446.304 513.986 446.158 513.704 446.089 513.397C446.021 513.091 446.034 512.772 446.126 512.472C448.512 504.873 452.576 494.293 447.54 487.048C445.434 484.014 442.724 483.403 439.411 485.215C438.719 478.014 438.785 470.931 439.61 463.965C440.14 459.481 442.481 456.08 443.829 451.552C445.353 446.427 447.849 442.451 448.998 437.062C449.07 436.729 449.234 436.422 449.471 436.173C449.709 435.924 450.011 435.743 450.345 435.648C451.803 435.236 452.502 435.258 452.443 435.714Z" fill="#11625F"/>
<path d="M452.443 435.714C458.215 447.274 465.505 456.463 474.31 463.281C476.298 465.652 476.711 467.647 475.547 469.267C473.456 472.153 469.687 471.741 464.238 468.03C462.898 467.117 461.617 467.205 460.395 468.295L457.634 470.791C457.104 471.262 456.478 471.483 455.756 471.453C450.566 471.21 440.935 471.078 443.409 463.259C446.177 454.556 449.189 445.374 452.443 435.714Z" fill="#FFFFFB"/>
<path d="M522.309 445.234C513.606 448.15 505.404 447.539 497.703 443.401C497.261 441.325 498.373 441.082 501.038 442.672C501.631 443.02 502.302 443.203 502.982 443.202C508.74 443.202 514.475 443.202 520.189 443.202C520.881 443.202 521.389 443.327 521.713 443.578C522.213 443.975 522.412 444.528 522.309 445.234Z" fill="#FFC47C"/>
<path d="M442.261 590.532L426.114 590.355C425.363 590.355 424.965 589.973 424.921 589.207C422.933 555.868 426.305 523.148 435.038 491.046C435.671 488.675 437.129 486.731 439.411 485.214C442.724 483.403 445.434 484.014 447.54 487.048C452.576 494.293 448.512 504.873 446.126 512.472C446.034 512.772 446.021 513.091 446.089 513.397C446.158 513.704 446.304 513.986 446.515 514.217C446.725 514.447 446.992 514.618 447.288 514.711C447.584 514.804 447.9 514.816 448.202 514.747C458.208 512.472 468.59 521.196 464.04 531.755C460.535 539.839 454.365 543.454 445.53 542.6C445.188 542.57 444.843 542.61 444.517 542.719C444.191 542.828 443.891 543.003 443.636 543.233C443.381 543.463 443.176 543.744 443.035 544.057C442.893 544.37 442.817 544.709 442.813 545.052L442.261 590.532Z" fill="#FFFFFB"/>
<path d="M566.464 618.474C567.45 630.903 567.98 647.115 568.054 667.113C568.076 679.681 567.281 692.448 561.648 703.139C560.161 705.981 558.725 708.823 557.341 711.665C539.317 729.13 518.753 734.888 495.648 728.938C481.865 725.382 469.783 715.884 459.291 706.165C453.194 700.533 435.082 702.256 426.6 702.896C426.396 702.911 426.192 702.885 425.999 702.819C425.806 702.752 425.63 702.647 425.48 702.51C425.331 702.373 425.212 702.207 425.131 702.023C425.05 701.839 425.008 701.639 425.009 701.438L425.076 620.639C425.079 620.375 425.139 620.115 425.251 619.876C425.363 619.637 425.525 619.424 425.726 619.253C425.927 619.082 426.161 618.955 426.415 618.882C426.669 618.808 426.935 618.79 427.196 618.828C435.391 620.042 444.756 622.207 452.355 619.932C463.973 616.442 470.269 606.591 480.275 600.472C491.304 593.698 502.68 590.385 514.401 590.532C538.456 590.864 550.516 604.691 566.464 618.474Z" fill="#FFFFFB"/>
<path d="M566.464 618.474C577.523 621.979 588.486 622.251 599.354 619.291C600.105 619.085 600.48 619.38 600.48 620.175L600.525 701.306C600.525 701.998 600.179 702.337 599.487 702.322C591.962 702.145 584.592 702.108 577.376 702.211C569.689 702.3 563.681 708.021 557.342 711.665C558.726 708.823 560.162 705.981 561.649 703.139C567.282 692.448 568.077 679.681 568.055 667.113C567.981 647.116 567.451 630.903 566.464 618.474Z" fill="#CDC6D4"/>
<path d="M532.403 780.382C543.381 774.176 553.94 767.549 551.598 753.236C566.685 742.059 580.534 730.573 598.757 733.687C599.611 733.835 600.031 734.343 600.016 735.212L599.243 768.234C599.243 768.798 599.091 769.362 598.801 769.868C594.737 776.966 588.501 780.655 580.092 780.935C564.395 781.45 548.498 781.266 532.403 780.382Z" fill="#172F60"/>
<path d="M443.609 732.826L443.388 781.089C436.467 782.061 431.349 780.007 428.036 774.926C422.647 766.688 424.922 745.461 425.121 735.167C425.126 734.807 425.268 734.463 425.518 734.204C425.769 733.946 426.108 733.793 426.468 733.776L443.609 732.826Z" fill="#FFFFFB"/>
<path d="M443.608 732.826C452.929 739.791 462.413 745.983 472.058 751.402C482.366 757.204 491.974 760.746 500.883 762.027C518.333 764.53 535.238 761.6 551.598 753.236C553.94 767.549 543.382 774.176 532.404 780.382L443.387 781.089L443.608 732.826Z" fill="#11625F"/>
<path d="M485.377 656.621C492.247 625.896 527.699 622.075 540.289 651.077C546.099 664.462 536.115 678.798 524.496 684.408C513.967 689.489 504.418 689.121 495.847 683.304C486.32 676.854 482.83 667.96 485.377 656.621Z" fill="#D76839"/>
</svg>
