<svg width="1024" height="1024" viewBox="0 0 1024 1024" fill="none" xmlns="http://www.w3.org/2000/svg">
<rect width="1024" height="1024" fill="white"/>
<path d="M487.648 225.407C487.648 228.963 486.236 232.373 483.721 234.888C481.207 237.402 477.797 238.815 474.241 238.815C470.685 238.815 467.275 237.402 464.76 234.888C462.246 232.373 460.833 228.963 460.833 225.407C460.833 221.851 462.246 218.441 464.76 215.927C467.275 213.413 470.685 212 474.241 212C477.797 212 481.207 213.413 483.721 215.927C486.236 218.441 487.648 221.851 487.648 225.407Z" fill="#010107"/>
<path d="M322.87 393.833C296.732 407.379 285.149 434.749 268.459 455.903C268.234 456.188 267.935 456.406 267.595 456.534C267.254 456.662 266.886 456.694 266.528 456.628C266.171 456.562 265.839 456.4 265.567 456.159C265.295 455.918 265.094 455.607 264.985 455.26C251.786 412.711 286.955 377.369 327.055 372.02C328.676 371.8 328.682 371.574 327.073 371.342C302.689 367.73 274.52 369.814 259.115 369.276C247.219 368.859 244.388 361.009 244.284 350.085C244.203 341.992 244.11 333.911 244.006 325.841C243.925 319.531 244.649 314.94 246.177 312.069C248.782 307.171 253.095 304.445 259.115 303.889C264.928 303.356 276.644 303.813 294.266 305.261C312.93 306.801 331.64 308.474 350.397 310.28C350.779 310.315 350.981 310.141 351.004 309.759L351.039 309.307C351.044 309.233 351.033 309.158 351.009 309.088C350.984 309.018 350.945 308.953 350.895 308.898C350.845 308.843 350.784 308.798 350.716 308.767C350.649 308.736 350.575 308.719 350.501 308.717C340.764 308.532 334.998 303.906 333.203 294.84C332.74 292.49 333.331 290.123 334.975 287.737C341.238 278.626 347.346 269.415 353.297 260.106C360.087 249.513 368.632 246.543 379.504 254.358C405.103 272.784 432.352 288.536 457.812 307.05C470.75 316.48 472.851 328.376 459.635 339.022C459.195 339.37 459.016 339.821 459.097 340.377L466.287 389.091C466.495 390.492 467.306 391.135 468.718 391.019C496.992 388.692 525.248 388.895 553.487 391.627C553.925 391.67 554.364 391.548 554.717 391.284C555.07 391.021 555.313 390.635 555.397 390.203C558.153 375.522 560.573 360.586 562.657 345.396C562.987 342.999 563.907 341.662 564.949 339.422C565.215 338.831 565.146 338.281 564.741 337.772C557.678 328.88 556.676 320.874 561.736 313.753C563.762 310.905 569.192 306.696 578.026 301.127C600.731 286.829 623.181 272.119 645.376 256.998C654.771 250.607 663.125 248.366 670.402 258.491C677.453 268.309 684.139 278.336 690.461 288.571C692.545 291.929 693.025 295.414 691.902 299.026C691.717 299.605 691.925 299.917 692.527 299.964C715.348 301.932 738.162 303.634 760.971 305.07C772.885 305.816 780.839 308.995 780.943 321.933C781.024 332.492 780.972 343.046 780.787 353.593C780.596 363.77 775.663 369.102 765.677 369.172C745.271 369.31 723.197 368.234 704.267 369.241C702.16 369.345 699.897 370.011 697.477 371.238C696.852 371.551 696.886 371.759 697.581 371.863C738.793 378.237 772.972 414.187 759.147 457.5C759.052 457.795 758.884 458.06 758.659 458.272C758.434 458.485 758.159 458.637 757.859 458.715C757.56 458.793 757.246 458.794 756.946 458.718C756.645 458.643 756.369 458.492 756.143 458.282C752.195 454.623 748.831 450.154 746.053 444.874C735.511 424.902 721.183 406.111 702.374 393.346C702.281 393.278 702.169 393.242 702.054 393.246C701.94 393.25 701.829 393.293 701.74 393.368C701.651 393.444 701.589 393.547 701.562 393.662C701.535 393.778 701.546 393.898 701.593 394.006C709.385 411.709 714.566 430.344 717.136 449.911C723.805 500.623 725.16 551.143 718.196 601.907C718.115 602.509 718.3 603.001 718.752 603.383C722.48 606.51 726.179 610.336 729.849 614.863C751.801 641.921 761.029 672.278 757.532 705.936C754.441 735.703 739.713 758.766 718.63 779.086C717.912 779.769 718.045 780.105 719.029 780.093C733.05 779.919 747.199 779.827 761.474 779.815C772.468 779.798 778.13 791.364 768.925 798.815C767.501 799.961 765.533 800.54 763.02 800.551C601.854 800.725 440.688 800.696 279.522 800.465C272.436 800.465 267.625 800.76 264.673 794.178C261.147 786.363 267.643 780.232 275.614 780.18C288.454 780.099 301.022 780.07 313.318 780.093C314.441 780.093 314.563 779.74 313.683 779.034C271.133 744.647 263.579 684.435 307.5 647.027C307.776 646.788 307.987 646.484 308.111 646.143C308.236 645.802 308.271 645.437 308.212 645.082C304.368 622.076 302.099 598.839 301.404 575.37C300.136 533.516 300.623 491.227 306.197 449.668C308.814 430.24 314.557 411.813 323.426 394.388C323.808 393.636 323.622 393.451 322.87 393.833Z" fill="#010107"/>
<path d="M540.097 287.182C527.089 292.878 536.502 304.011 531.656 312.156C527.401 319.276 518.457 319.241 512.274 314.379C504.407 308.161 507.551 288.658 511.806 281.347C516.703 272.929 524.385 267.847 534.852 266.098C542.389 264.836 547.564 267.065 550.378 272.785C552.276 276.652 551.738 280.137 548.763 283.24C546.592 285.497 543.049 285.879 540.097 287.182Z" fill="#010107"/>
<path d="M418.405 806.352C418.614 806.19 418.845 806.132 419.1 806.179C419.332 806.213 419.488 806.231 419.569 806.231C442.193 805.571 456.439 805.536 462.309 806.127C473.795 807.284 484.36 807.412 494.004 806.509C495.405 806.381 496.569 806.538 497.495 806.978C497.97 807.198 498.462 807.308 498.971 807.308L613.246 807.585C613.849 807.585 614.398 807.412 614.896 807.064C615.417 806.705 616.077 806.515 616.876 806.491C657.55 805.762 697.442 806.561 738.897 805.415C739.72 805.391 740.52 805.694 741.121 806.256C741.723 806.819 742.078 807.596 742.11 808.419L742.127 809.01C742.208 811.07 741.213 812.066 739.14 811.997C719.249 811.383 704.69 811.105 695.462 811.163C660.577 811.395 625.699 811.551 590.826 811.632C583.288 811.655 575.757 811.58 568.231 811.406C544.82 810.885 530.064 810.758 523.962 811.024C510.069 811.661 499.938 811.939 493.57 811.858C428.803 811.059 364.041 810.96 299.285 811.562C296.553 811.586 295.621 810.677 296.489 808.836C296.692 808.414 297.01 808.058 297.406 807.809C297.803 807.56 298.261 807.429 298.729 807.429C331.298 807.487 362.958 807.487 393.71 807.429C401.235 807.418 408.749 807.116 416.252 806.526C416.449 806.514 416.617 806.439 416.756 806.3C417.022 806.034 417.288 806.034 417.555 806.3C417.663 806.415 417.812 806.484 417.97 806.494C418.128 806.504 418.283 806.453 418.405 806.352Z" fill="#B7CEE2"/>
<path d="M756.49 336.209L731.03 334.385" stroke="#FEC986" stroke-width="2"/>
<path d="M731.03 334.385L689.766 330.756C689.662 330.744 689.604 330.68 689.592 330.565C689.592 330.495 689.581 330.437 689.557 330.391C689.531 330.308 689.468 330.23 689.376 330.166C689.284 330.101 689.167 330.053 689.037 330.026C680.029 328.347 670.871 328.307 661.562 329.905" stroke="#FFE8AA" stroke-width="2"/>
<path d="M731.03 334.385C717.101 333.876 703.219 332.932 689.384 331.555C684.799 331.103 679.154 331.398 673.771 330.686C670.124 330.2 666.233 330.275 662.1 330.912" stroke="#FFB333" stroke-width="2"/>
<path d="M757.15 342.461C747.622 342.427 738.116 341.998 728.634 341.176C721.86 340.586 713.16 341.437 705.292 339.769C702.01 339.075 697.894 339.596 695.463 338.901C693.286 338.276 691.497 337.946 690.096 337.911C685.129 337.772 680.319 337.112 675.3 337.164C672.243 337.182 668.005 339.596 664.671 336.47" stroke="#FEA820" stroke-width="2"/>
<path d="M365.333 343.816C356.475 342.044 347.41 341.384 338.466 340.29C315.333 337.488 292.032 335.781 268.563 335.167" stroke="#FEC986" stroke-width="2"/>
<path d="M644.229 334.507C636.229 337.216 628.923 340.736 622.312 345.066" stroke="#FFE8A7" stroke-width="2"/>
<path d="M622.312 345.066L596.557 357.015C596.036 357.258 595.706 357.663 595.567 358.231C593.118 368.981 589.454 379.54 588.012 390.082C586.97 397.712 586.033 405.347 585.199 412.989C584.487 419.588 582.351 425.632 581.517 432.249C581.147 435.271 580.55 438.252 579.728 441.193" stroke="#FEDD95" stroke-width="2"/>
<path d="M645.341 337.72C637.468 339.294 629.791 341.743 622.312 345.066" stroke="#FEC645" stroke-width="2"/>
<path d="M440.723 440.793C437.84 417.07 433.915 393.619 428.948 370.439C428.305 367.418 428.931 357.345 424.103 356.025C410.591 352.343 397.392 345.952 383.134 346.073" stroke="#FEDD98" stroke-width="2"/>
<path d="M551.559 422.176C538.476 421.134 525.37 420.705 512.24 420.891C500.651 421.041 489.078 421.493 477.523 422.245C476.007 422.349 474.542 422.616 473.13 423.044C471.902 423.426 471.242 423.137 471.15 422.176" stroke="#CFE0EE" stroke-width="2"/>
<path d="M409.201 499.945C409.248 505.075 409.821 509.156 410.921 512.189C413.074 518.163 413.56 523.374 412.38 527.82" stroke="#DBE6F0" stroke-width="2"/>
<path d="M412.379 527.82C412.182 533.852 412.379 539.994 412.97 546.246C415.453 573.026 417.068 599.841 419.934 626.673" stroke="#7FC0D6" stroke-width="2"/>
<path d="M419.934 626.673C420.681 641.244 420.733 658.211 424.328 670.924C427.894 683.486 434.326 694.618 443.623 704.321" stroke="#7F9CB1" stroke-width="2"/>
<path d="M443.622 704.321L443.449 705.259C443.411 705.463 443.32 705.654 443.187 705.812C443.053 705.971 442.88 706.091 442.686 706.162C442.493 706.232 442.284 706.25 442.083 706.213C441.881 706.177 441.694 706.087 441.538 705.953L435.998 701.299C435.921 701.233 435.821 701.2 435.718 701.207C435.615 701.213 435.517 701.259 435.443 701.334L434.991 701.82C434.894 701.924 434.836 702.057 434.827 702.197C434.817 702.336 434.857 702.473 434.939 702.584C457.012 733.932 492.25 746.627 529.242 739.715C552.583 735.356 578.999 719.048 588.724 696.54C589.627 694.468 589.089 693.982 587.109 695.082C586.437 695.464 585.893 695.232 585.477 694.387" stroke="#CFE0EE" stroke-width="2"/>
<path d="M585.477 694.387C591.301 686.699 595.608 678.415 598.398 669.535C600.042 664.278 601.159 656.683 601.75 646.749C602.213 638.888 602.664 631.188 603.104 623.651" stroke="#7F9CB1" stroke-width="2"/>
<path d="M603.104 623.651L610.277 529.313" stroke="#7FC0D6" stroke-width="2"/>
<path d="M610.277 529.313C610.543 523.49 610.618 516.12 610.503 507.205C610.48 504.971 609.623 502.8 607.932 500.693" stroke="#F6FCFD" stroke-width="2"/>
<path d="M414.985 501.04C414.638 501.41 414.435 501.717 414.377 501.96C414.331 502.145 414.446 502.441 414.724 502.846C414.898 503.112 415.118 503.297 415.384 503.402C415.778 503.575 416.01 503.876 416.079 504.305C416.23 505.243 416.837 505.74 417.903 505.798" stroke="#DBE6ED" stroke-width="2"/>
<path d="M417.903 505.798C419.037 508.079 419.228 510.574 418.476 513.283C417.758 515.865 417.932 519.842 418.997 525.215C419.113 525.747 419.431 526.089 419.952 526.239C422.117 526.853 424.351 527.079 426.655 526.916" stroke="#D3E4EF" stroke-width="2"/>
<path d="M426.655 526.917L412.379 527.82" stroke="#5CA8C9" stroke-width="2"/>
<path d="M603.105 623.651L559.34 623.807C558.761 623.807 558.379 624.08 558.194 624.624C558.02 625.098 557.968 625.585 558.037 626.083" stroke="#005D8A" stroke-width="2"/>
<path d="M585.477 694.387C577.593 705.896 567.612 714.533 555.536 720.299C523.442 735.605 491.649 734.597 460.157 717.277C454.68 714.266 449.169 709.948 443.623 704.321" stroke="#507EA2" stroke-width="2"/>
<path d="M610.277 529.313C609.999 528.804 609.751 528.485 609.531 528.358" stroke="#77BDD6" stroke-width="2"/>
<path d="M609.53 528.358C609.519 520.774 609.582 513.139 609.721 505.451C609.756 503.506 608.714 502.753 606.595 503.193C606.132 503.297 605.79 503.564 605.57 503.992C603.469 508.23 600.447 512.884 600.656 517.747C600.795 520.925 602.966 528.184 596.974 527.316" stroke="#D3E4EF" stroke-width="2"/>
<path d="M596.974 527.316L592.545 527.038" stroke="#77BDD6" stroke-width="2"/>
<path d="M452.411 526.013L459.462 622.73" stroke="#0AA6CE" stroke-width="2"/>
<path d="M459.462 622.73L459.34 623.772" stroke="#0491BA" stroke-width="2"/>
<path d="M459.34 623.773C450.854 623.46 439.038 623.321 423.894 623.356C422.123 623.356 420.803 624.462 419.934 626.673" stroke="#005D8A" stroke-width="2"/>
<path d="M601.472 501.804C603.764 503.043 603.631 505.312 601.072 508.612C599.208 511.02 598.311 513.011 598.38 514.586C598.519 517.492 598.722 520.717 598.988 524.26C599.012 524.602 598.956 524.945 598.825 525.262C598.694 525.579 598.491 525.861 598.233 526.085C597.975 526.309 597.669 526.47 597.339 526.554C597.008 526.638 596.663 526.643 596.331 526.569C595.266 526.338 594.004 526.494 592.545 527.038" stroke="#F6FCFA" stroke-width="2"/>
<path d="M592.545 527.038L564.046 525.492" stroke="#7FC0D3" stroke-width="2"/>
<path d="M564.046 525.492L452.411 526.013" stroke="#89E4F2" stroke-width="2"/>
<path d="M452.411 526.013L437.996 526.274" stroke="#7FC0D3" stroke-width="2"/>
<path d="M437.996 526.274C435.287 525.799 433.261 525.301 431.918 524.78C431.628 524.665 431.565 524.456 431.727 524.155C431.755 524.104 431.771 524.047 431.773 523.988C431.775 523.929 431.762 523.871 431.737 523.818C431.711 523.765 431.673 523.719 431.626 523.684C431.579 523.649 431.524 523.626 431.466 523.617C431.119 523.559 430.8 523.634 430.511 523.843C430.495 523.857 430.476 523.866 430.455 523.869C430.434 523.871 430.413 523.868 430.394 523.859C430.376 523.849 430.36 523.834 430.35 523.816C430.34 523.798 430.335 523.777 430.337 523.756C430.337 523.582 430.343 523.414 430.355 523.252C430.366 523.009 430.256 522.841 430.025 522.748C429.874 522.691 429.718 522.627 429.556 522.557C429.22 522.419 429.133 522.181 429.295 521.845C430.152 520.039 429.973 518.592 428.757 517.504C428.433 517.226 428.195 516.878 428.045 516.462C427.489 514.956 426.47 513.926 424.988 513.37C424.502 513.197 424.282 512.849 424.328 512.328C424.409 511.124 424.062 510.059 423.286 509.133C422.98 508.77 422.577 508.499 422.123 508.351C420.641 507.9 419.234 507.049 417.903 505.798" stroke="#F6FCFA" stroke-width="2"/>
<path d="M437.996 526.274L426.655 526.916" stroke="#77BDD6" stroke-width="2"/>
<path d="M564.046 525.492L558.037 626.082" stroke="#0AA6CE" stroke-width="2"/>
<path d="M558.037 626.082C557.979 640.069 554.813 651.907 548.537 661.598C534.974 682.543 507.517 689.212 486.016 677.732C475.665 672.209 468.325 663.057 463.995 650.275" stroke="#0A82A9" stroke-width="2"/>
<path d="M463.994 650.275C467.665 655.554 471.115 660.677 474.345 665.644C475.509 667.433 476.968 667.781 478.409 669.292C485.946 677.089 500.066 681.935 510.573 680.528C518.128 679.521 527.714 679.052 533.463 674.71C542.493 667.902 547.078 662.119 551.142 652.185C554.494 643.988 555.727 635.478 556.196 626.725C556.22 626.288 556.155 625.852 556.005 625.442C555.855 625.032 555.623 624.657 555.324 624.34C555.025 624.023 554.664 623.77 554.265 623.598C553.865 623.426 553.435 623.337 553.001 623.338L460.052 623.512C459.832 623.512 459.687 623.408 459.618 623.199L459.462 622.73" stroke="#0DB6D9" stroke-width="2"/>
<path d="M609.53 528.358L596.974 527.316" stroke="#5CA8C9" stroke-width="2"/>
<path d="M463.994 650.275C460.915 642.575 459.363 633.741 459.34 623.773" stroke="#046D95" stroke-width="2"/>
<path d="M728.564 662.241L727.782 663.89C727.562 664.342 727.209 664.504 726.723 664.377C725.889 664.145 725.021 664.076 724.118 664.168C723.869 664.19 723.617 664.155 723.382 664.064C723.148 663.974 722.936 663.832 722.763 663.647L720.87 661.633" stroke="#FEDD98" stroke-width="2"/>
<path d="M720.871 661.633C714.121 648.492 706.352 637.712 697.564 629.295C692.354 624.305 685.268 619.558 676.307 615.054C672.822 613.306 668.642 611.98 663.768 611.077C657.052 609.827 650.54 608.351 644.23 606.649" stroke="#FFE8AA" stroke-width="2"/>
<path d="M733.08 702.011C724.431 710.104 713.681 720.438 702.392 723.529" stroke="#D88A35" stroke-width="2"/>
<path d="M702.392 723.529C701.94 723.807 701.61 723.627 701.402 722.991" stroke="#FEA820" stroke-width="2"/>
<path d="M701.402 722.99C701.425 722.458 700.8 721.746 699.526 720.854C699.273 720.674 699.074 720.427 698.954 720.141C698.833 719.854 698.795 719.539 698.844 719.232C698.892 718.925 699.026 718.638 699.23 718.403C699.433 718.168 699.698 717.994 699.995 717.902C702.716 717.103 705.043 715.598 706.977 713.386" stroke="#7F5E1D" stroke-width="2"/>
<path d="M706.977 713.386C707.834 715.25 708.991 715.054 710.45 712.796C711.909 710.538 714.01 704.46 713.889 701.299C713.692 696.332 711.18 693.044 706.352 691.435" stroke="#E69B3C" stroke-width="2"/>
<path d="M706.351 691.435C708.713 691.562 709.582 690.676 708.956 688.778C708.771 688.233 708.447 687.793 707.984 687.458C705.222 685.478 705.17 682.56 701.159 681.501" stroke="#FEA820" stroke-width="2"/>
<path d="M720.87 661.633L701.159 681.501" stroke="#FEC645" stroke-width="2"/>
<path d="M701.159 681.501L678.582 695.308" stroke="#FFB333" stroke-width="2"/>
<path d="M678.581 695.307C674.483 693.883 670.998 695.4 668.126 699.858" stroke="#80692F" stroke-width="2"/>
<path d="M668.126 699.858C664.566 700.882 661.839 703.071 658.088 703.592C648.305 704.958 639.031 703.956 630.266 700.587" stroke="#FFB333" stroke-width="2"/>
<path d="M632.646 694.821C634.359 691.846 635.471 688.598 635.98 685.078" stroke="#D99547" stroke-width="2"/>
<path d="M701.402 722.991C697.772 728.774 695.132 734.696 687.004 733.15C676.966 731.223 680.075 721.532 683.531 715.801C683.577 715.726 683.605 715.641 683.612 715.553C683.619 715.465 683.605 715.376 683.571 715.295C683.537 715.213 683.484 715.141 683.417 715.084C683.35 715.027 683.27 714.987 683.184 714.967C673.667 712.987 668.647 707.951 668.126 699.858" stroke="#804B0B" stroke-width="2"/>
<path d="M706.351 691.435C704.545 693.287 702.56 694.468 700.394 694.977C699.839 695.105 699.318 695.319 698.831 695.62L689.471 701.525" stroke="#E7882A" stroke-width="2"/>
<path d="M689.471 701.525L678.582 695.308" stroke="#804B0B" stroke-width="2"/>
<path d="M706.977 713.386C712.187 707.435 713.281 701.548 710.259 695.724C710.023 695.269 709.683 694.875 709.267 694.575C708.851 694.274 708.371 694.076 707.864 693.995C707.357 693.914 706.839 693.952 706.35 694.108C705.861 694.264 705.415 694.532 705.049 694.891C700.221 699.626 695.028 701.837 689.471 701.525" stroke="#683E27" stroke-width="2"/>
<path d="M702.392 723.529L697.668 730.945C697.355 731.431 696.939 731.79 696.418 732.021L689.766 735.113" stroke="#D87723" stroke-width="2"/>
<path d="M689.766 735.113C682.333 734.372 678.744 730.545 678.998 723.633C679.085 721.358 680.683 719.361 681.325 717.034C681.395 716.788 681.377 716.525 681.276 716.289C681.176 716.052 680.997 715.856 680.77 715.731C678.495 714.533 676.324 714.515 674.396 713.004C672.185 711.268 670.095 709.166 668.127 706.7C667.822 706.321 667.391 706.064 666.912 705.978C666.433 705.892 665.939 705.982 665.521 706.231C658.551 710.423 650.869 713.543 642.475 715.592C638.4 716.588 631.465 716.455 621.67 715.193" stroke="#E47A1C" stroke-width="2"/>
<path d="M603.33 737.891C603.666 738.331 603.758 738.829 603.608 739.385C603.434 740.033 603.666 740.265 604.302 740.08C605.02 739.871 605.669 739.541 606.248 739.09C606.387 738.985 606.601 738.899 606.89 738.829C607.064 738.783 607.197 738.835 607.29 738.985C607.417 739.182 607.596 739.275 607.828 739.263C608.963 739.205 609.854 738.794 610.502 738.03C610.815 737.66 610.943 737.718 610.885 738.204C610.792 739.095 610.422 739.912 609.773 740.653C609.695 740.745 609.644 740.857 609.626 740.977C609.609 741.097 609.625 741.219 609.674 741.33C609.723 741.441 609.803 741.535 609.903 741.603C610.004 741.67 610.121 741.708 610.242 741.712C611.62 741.782 612.934 741.533 614.184 740.965C614.624 740.768 615.082 740.722 615.556 740.826C617.901 741.347 619.777 740.462 621.878 740.67C630.654 741.562 639.442 741.897 648.241 741.677C650.325 741.619 654.846 741.029 661.805 739.906C668.508 738.829 676.254 740.548 682.402 738.638C684.521 737.967 686.68 737.405 688.88 736.953C688.933 736.943 688.981 736.916 689.018 736.877C689.055 736.838 689.079 736.788 689.087 736.735C689.094 736.682 689.085 736.627 689.061 736.579C689.036 736.531 688.997 736.492 688.949 736.467C688.811 736.398 688.666 736.334 688.515 736.276C687.531 735.975 687.583 735.773 688.672 735.668C689.308 735.61 689.673 735.425 689.766 735.113" stroke="#BE5D30" stroke-width="2"/>
<path d="M362.484 632.543L367.364 639.438" stroke="#8B90A3" stroke-width="2"/>
<path d="M364.916 641.105L363.717 638.274C363.324 637.371 363.121 637.406 363.109 638.378C363.098 639.524 363.451 640.537 364.169 641.417C364.285 641.545 364.285 641.672 364.169 641.799L363.7 642.286C363.387 642.622 363.04 642.656 362.658 642.39C361.106 641.313 359.931 641.157 359.132 641.921" stroke="#976755" stroke-width="2"/>
<path d="M356.354 641.504C357.083 638.888 356.927 637.846 355.885 638.378" stroke="#976755" stroke-width="2"/>
<path d="M381.987 667.225C368.533 669.019 355.224 669.019 342.06 667.225C338.865 666.796 336.016 667.479 333.515 669.274C325.075 675.329 318.192 683.179 312.866 692.824" stroke="#DCB9AA" stroke-width="2"/>
<path d="M312.866 692.824C310.458 690.3 308.762 687.869 307.778 685.53" stroke="#7F9CB1" stroke-width="2"/>
<path d="M395.151 705.919C377.796 713.352 359.67 714.579 340.775 709.6C328.965 706.498 319.662 700.905 312.866 692.824" stroke="#5D565E" stroke-width="2"/>
<path d="M404.773 724.067C389.386 735.269 377.298 742.963 357.205 741.295C333.325 739.333 317.729 724.172 304.791 705.033" stroke="#001F40" stroke-width="2"/>
<path d="M460.156 779.26L459.965 764.689C459.953 764.469 460.057 764.371 460.277 764.394L460.764 764.428C460.949 764.452 461.053 764.556 461.076 764.741L461.597 770.194C461.632 770.646 461.875 770.877 462.327 770.889C462.547 770.901 462.738 770.819 462.9 770.646C463.05 770.484 463.126 770.217 463.126 769.847C463.137 769.152 463.19 768.44 463.282 767.711C463.352 767.143 463.67 766.935 464.237 767.086L472.278 769.256C472.44 769.296 472.61 769.275 472.755 769.196C472.9 769.117 473.011 768.986 473.067 768.828C473.123 768.67 473.119 768.495 473.057 768.338C472.995 768.18 472.878 768.05 472.73 767.971C472.463 767.821 472.145 767.323 471.774 766.478" stroke="#ACC8E1" stroke-width="2"/>
<path d="M417.833 329.453C399.748 318.94 380.91 307.304 361.32 294.545C359.861 293.596 359.612 292.398 360.573 290.95L368.944 278.377C369.039 278.236 369.16 278.116 369.301 278.022C369.442 277.928 369.6 277.864 369.766 277.831C369.933 277.799 370.104 277.8 370.269 277.834C370.435 277.868 370.593 277.934 370.733 278.029L441.556 325.563C441.788 325.714 441.828 325.91 441.677 326.154L434.783 337.616C434.713 337.735 434.602 337.824 434.47 337.866C434.339 337.908 434.196 337.899 434.071 337.842C428.525 335.317 423.112 332.521 417.833 329.453Z" fill="#FEFEF7"/>
<path d="M588.134 327.317L586.189 325.303C586.073 325.181 585.985 325.034 585.931 324.874C585.878 324.714 585.861 324.544 585.881 324.377C585.9 324.209 585.957 324.048 586.047 323.905C586.136 323.762 586.256 323.64 586.397 323.549L656.248 279.436C656.595 279.216 656.885 279.269 657.116 279.593L667.05 293.33C667.093 293.389 667.123 293.456 667.139 293.526C667.155 293.597 667.156 293.67 667.143 293.742C667.13 293.813 667.103 293.881 667.063 293.942C667.023 294.002 666.972 294.054 666.911 294.094C643.691 309.429 618.214 321.569 593.101 333.396C592.662 333.603 592.166 333.656 591.693 333.545C591.22 333.435 590.798 333.168 590.496 332.788C589.535 331.595 588.979 330.27 588.829 328.811C588.771 328.232 588.539 327.734 588.134 327.317Z" fill="#FEFEFD"/>
<path d="M756.49 336.209L731.03 334.386L689.766 330.756C689.662 330.744 689.604 330.681 689.592 330.565C689.592 330.495 689.581 330.437 689.558 330.391C689.531 330.308 689.469 330.23 689.377 330.166C689.285 330.101 689.167 330.053 689.037 330.026C680.029 328.348 670.871 328.307 661.562 329.905L657.62 319.988C657.284 319.132 657.573 318.744 658.488 318.825L755.083 327.282C755.499 327.322 755.884 327.516 756.162 327.825C756.439 328.135 756.587 328.537 756.577 328.95L756.49 336.209Z" fill="#FEFEFD"/>
<path d="M365.332 343.816C356.475 342.044 347.409 341.384 338.465 340.29C315.332 337.488 292.031 335.781 268.563 335.167L268.441 326.744C268.43 326.026 268.777 325.696 269.483 325.754L368.232 332.84C368.776 332.886 368.962 333.164 368.788 333.674L365.332 343.816Z" fill="#FEFEFD"/>
<path d="M644.23 334.507C636.229 337.216 628.923 340.736 622.312 345.066L596.557 357.015C596.036 357.258 595.706 357.663 595.567 358.231C593.118 368.981 589.454 379.54 588.012 390.082C586.97 397.712 586.033 405.347 585.199 412.989C584.487 419.588 582.351 425.632 581.517 432.249C581.147 435.271 580.55 438.252 579.728 441.193L573.233 441.749C572.596 441.807 572.318 441.511 572.399 440.863C576 410.748 580.741 380.808 586.623 351.041C586.692 350.697 586.842 350.375 587.06 350.103C587.278 349.831 587.557 349.617 587.874 349.478C603.678 342.484 619.377 335.474 634.973 328.446C636.814 327.612 638.527 326.756 640.114 325.876C640.244 325.801 640.39 325.757 640.54 325.747C640.69 325.736 640.84 325.759 640.98 325.814C641.12 325.869 641.246 325.954 641.348 326.064C641.451 326.174 641.527 326.305 641.572 326.449L644.23 334.507Z" fill="#FEFEF7"/>
<path d="M731.03 334.385C717.102 333.876 703.22 332.932 689.384 331.555C684.799 331.103 679.155 331.398 673.771 330.686C670.124 330.2 666.234 330.275 662.1 330.912C661.892 330.808 661.712 330.472 661.562 329.905C670.871 328.307 680.029 328.347 689.037 330.026C689.167 330.053 689.284 330.101 689.376 330.166C689.468 330.23 689.531 330.308 689.557 330.391C689.581 330.437 689.592 330.495 689.592 330.565C689.604 330.68 689.662 330.744 689.766 330.756L731.03 334.385Z" fill="#FFD157"/>
<path d="M731.03 334.385L756.49 336.209C756.93 337.089 757.15 339.173 757.15 342.461C747.621 342.426 738.116 341.998 728.633 341.176C721.86 340.585 713.159 341.436 705.292 339.769C702.01 339.075 697.894 339.596 695.462 338.901C693.285 338.276 691.497 337.946 690.096 337.911C685.129 337.772 680.318 337.112 675.299 337.164C672.242 337.182 668.005 339.596 664.67 336.469C663.57 334.918 662.714 333.065 662.1 330.912C666.233 330.275 670.124 330.2 673.771 330.686C679.154 331.398 684.799 331.103 689.384 331.555C703.219 332.932 717.101 333.876 731.03 334.385Z" fill="#FE940E"/>
<path d="M644.229 334.507L645.341 337.72C637.468 339.295 629.791 341.743 622.312 345.066C628.923 340.736 636.229 337.216 644.229 334.507Z" fill="#FFD157"/>
<path d="M365.332 343.816C364.858 346.351 364.007 348.684 362.779 350.815C362.639 351.059 362.433 351.259 362.184 351.391C361.935 351.523 361.654 351.582 361.373 351.561L268.963 343.885C268.569 343.851 268.378 343.636 268.389 343.243L268.563 335.167C292.032 335.781 315.332 337.488 338.465 340.29C347.409 341.384 356.475 342.044 365.332 343.816Z" fill="#FE940E"/>
<path d="M440.723 440.793C437.84 417.07 433.915 393.619 428.948 370.439C428.305 367.418 428.931 357.345 424.103 356.025C410.591 352.343 397.392 345.952 383.134 346.073L385.044 336.643C385.088 336.413 385.182 336.195 385.318 336.004C385.454 335.813 385.629 335.652 385.833 335.534C386.037 335.416 386.264 335.342 386.499 335.318C386.735 335.293 386.973 335.319 387.198 335.393L435.738 351.666C435.859 351.708 435.967 351.781 436.049 351.879C436.132 351.977 436.186 352.095 436.207 352.221L449.823 440.307C449.848 440.466 449.836 440.629 449.788 440.783C449.74 440.937 449.657 441.078 449.547 441.195C449.436 441.312 449.3 441.402 449.15 441.459C448.999 441.516 448.837 441.538 448.677 441.523L440.723 440.793Z" fill="#FEFEFD"/>
<path d="M757.15 342.461C757.336 342.855 757.255 343.671 756.907 344.91C756.777 345.36 756.494 345.751 756.108 346.017C755.722 346.283 755.256 346.407 754.789 346.369L665.904 338.658C665.14 338.588 664.74 338.172 664.706 337.407L664.671 336.47C668.005 339.596 672.243 337.182 675.3 337.164C680.319 337.112 685.129 337.772 690.096 337.911C691.497 337.946 693.286 338.276 695.463 338.901C697.894 339.596 702.01 339.075 705.292 339.769C713.16 341.437 721.86 340.586 728.634 341.176C738.116 341.998 747.622 342.427 757.15 342.461Z" fill="#FDBB32"/>
<path d="M645.341 337.72L648.415 342.895C648.503 343.042 648.559 343.206 648.577 343.376C648.596 343.546 648.577 343.717 648.522 343.878C648.468 344.039 648.378 344.186 648.261 344.307C648.143 344.428 648 344.521 647.842 344.58C634.203 349.906 620.72 355.677 607.394 361.895C603.295 363.805 602.618 365.768 602.114 370.005C601.003 379.43 599.289 389.618 596.974 400.571C594.074 414.256 592.389 425.771 590.67 438.605C590.598 439.152 590.337 439.657 589.932 440.034C589.526 440.411 589.001 440.637 588.447 440.672L579.728 441.193C580.55 438.252 581.147 435.271 581.517 432.249C582.351 425.632 584.487 419.588 585.199 412.989C586.033 405.347 586.97 397.711 588.012 390.082C589.454 379.54 593.118 368.981 595.567 358.23C595.706 357.663 596.036 357.258 596.557 357.015L622.312 345.066C629.792 341.743 637.468 339.294 645.341 337.72Z" fill="#FDBB32"/>
<path d="M383.133 346.073C397.392 345.952 410.591 352.343 424.102 356.025C428.93 357.345 428.305 367.418 428.948 370.439C433.915 393.619 437.839 417.07 440.722 440.793L431.605 440.081C431.272 440.055 430.957 439.919 430.712 439.696C430.466 439.472 430.304 439.174 430.25 438.848L418.354 365.438C418.291 365.06 418.122 364.708 417.866 364.425C417.61 364.142 417.279 363.939 416.912 363.84L381.466 354.566C380.771 354.392 380.54 353.97 380.771 353.298L383.133 346.073Z" fill="#FDBB32"/>
<path d="M665.991 448.522C665.655 451.324 666.251 451.503 667.779 449.06C668.532 447.844 669.232 446.235 669.881 444.232C674.778 428.972 678.147 413.678 679.988 398.348C680.15 397.063 680.538 396.988 681.152 398.123C682.333 400.276 682.593 404.6 683.965 406.216C684.127 406.412 684.243 406.615 684.313 406.823C688.18 419.849 691.265 434.64 693.569 451.196C699.879 496.478 700.991 541.806 696.904 587.18C696.894 587.253 696.868 587.322 696.827 587.383C696.785 587.443 696.731 587.493 696.667 587.527C696.604 587.561 696.534 587.579 696.463 587.579C696.392 587.579 696.323 587.561 696.261 587.527C681.719 579.261 666.066 574.508 649.301 573.269C647.993 573.176 647.396 572.476 647.512 571.168C651.09 528.514 654.36 485.78 657.324 442.964C658.54 425.493 634.678 416.757 619.047 412.068C618.787 411.992 618.562 411.825 618.412 411.596C618.263 411.367 618.199 411.091 618.231 410.818C618.683 407.321 619.366 403.94 620.28 400.675C621.67 395.674 624.449 397.48 627.071 394.736C630.84 390.794 629.207 384.663 628.564 380.443C628.522 380.157 628.547 379.864 628.637 379.586C628.727 379.309 628.881 379.056 629.086 378.845C632.298 375.684 636.866 375.007 639.836 373.652C645.202 371.221 652.34 366.706 658.123 367.609C661.55 368.13 664.763 369.351 667.762 371.273C668.295 371.609 668.318 371.974 667.831 372.367C659.692 379.036 653.081 386.932 647.998 396.056C646.296 399.112 644.351 401.526 642.25 404.097C642.165 404.201 642.106 404.323 642.077 404.455C642.049 404.586 642.051 404.722 642.085 404.854C642.119 404.985 642.182 405.107 642.271 405.211C642.36 405.315 642.472 405.397 642.597 405.451C657.064 411.356 669.03 423.565 667.745 440.307C667.536 443.034 666.286 445.986 665.991 448.522Z" fill="#FEFEF7"/>
<path d="M356.874 447.688C356.434 445.824 355.965 443.983 355.467 442.165C350.796 425.024 365.384 410.297 380.424 405.712C381.084 405.515 381.24 405.116 380.893 404.514C374.363 393.375 366.704 383.088 357.916 373.652C357.864 373.601 357.83 373.534 357.818 373.462C357.806 373.39 357.817 373.316 357.85 373.25C357.883 373.185 357.935 373.131 358 373.097C358.065 373.064 358.139 373.051 358.212 373.062C370.212 374.503 382.664 378.324 394.196 381.936C394.775 382.122 395.001 382.515 394.873 383.117C393.97 387.042 392.893 391.992 395.846 395.292C397.096 396.681 398.59 396.594 400.309 397.202C400.853 397.399 401.183 397.775 401.299 398.331L403.765 410.766C403.985 411.877 403.539 412.52 402.428 412.693C390.375 414.656 364.186 425.041 365.019 440.324C366.739 471.967 369.708 503.94 371.949 534.957C373.871 561.61 376.024 588.239 378.409 614.846C378.537 616.247 378.78 617.63 379.139 618.997C379.289 619.552 379.075 619.848 378.496 619.882C378.195 619.905 377.946 619.795 377.75 619.552C375.492 616.791 373.998 614.776 370.473 613.856C365.853 612.64 359.254 612.918 355.155 614.377C349.702 616.305 346.888 621.654 344.961 626.569C344.694 627.251 344.277 627.866 343.739 628.368C343.201 628.87 342.556 629.246 341.852 629.469L331.223 632.734C331.11 632.771 330.99 632.782 330.872 632.768C330.754 632.753 330.641 632.713 330.54 632.65C330.439 632.587 330.353 632.503 330.288 632.404C330.223 632.304 330.181 632.192 330.164 632.074C326.667 607.193 324.774 582.138 324.485 556.909C324.068 520.508 325.405 483.742 330.39 448.157C332.682 431.745 337.753 414.465 342.911 397.827C343.235 396.797 343.542 396.803 343.832 397.845C346.888 408.485 349.1 419.461 350.466 430.773C350.987 435.068 352.735 440.735 355.711 447.775C355.826 448.041 356.023 448.134 356.301 448.053L356.753 447.914C356.868 447.879 356.909 447.804 356.874 447.688Z" fill="#FEFEF7"/>
<path d="M551.559 422.176C538.476 421.134 525.37 420.705 512.24 420.891C500.651 421.041 489.079 421.493 477.524 422.245C476.007 422.35 474.542 422.616 473.13 423.044C471.903 423.426 471.243 423.137 471.15 422.176L470.559 416.115C470.502 415.501 470.779 415.165 471.393 415.107C498.011 412.931 524.623 413.012 551.229 415.351C551.474 415.371 551.705 415.469 551.887 415.629C552.069 415.789 552.192 416.002 552.237 416.236C552.503 417.545 552.277 419.524 551.559 422.176Z" fill="#FEFEFD"/>
<path d="M551.559 422.176L548.867 441.349C548.779 441.965 548.471 442.529 548.002 442.934C547.532 443.34 546.933 443.56 546.314 443.555L474.623 443.294C474.249 443.288 473.891 443.144 473.616 442.892C473.341 442.639 473.168 442.294 473.13 441.922L471.15 422.176C471.242 423.137 471.902 423.426 473.13 423.044C474.542 422.616 476.007 422.349 477.523 422.245C489.078 421.493 500.651 421.041 512.24 420.891C525.37 420.705 538.476 421.134 551.559 422.176Z" fill="#A0C2DF"/>
<path d="M406.892 435.201C406.912 435.306 406.91 435.414 406.887 435.517C406.864 435.621 406.82 435.719 406.758 435.804C406.696 435.889 406.617 435.959 406.526 436.011C406.436 436.063 406.335 436.095 406.232 436.104C405.56 436.185 404.975 435.989 404.477 435.514C404.358 435.402 404.269 435.261 404.219 435.105C404.169 434.949 404.161 434.783 404.194 434.622C404.227 434.462 404.301 434.313 404.408 434.189C404.516 434.065 404.653 433.971 404.808 433.916C405.954 433.499 406.648 433.928 406.892 435.201Z" fill="#5E5263"/>
<path d="M393.588 449.025C408.605 453.101 423.419 455.914 438.03 457.466C483.405 462.27 529.271 462.67 575.63 458.664C593.946 457.078 611.545 453.818 628.425 448.886C628.97 448.736 629.236 448.944 629.224 449.511L628.912 466.34C628.9 466.849 628.645 467.151 628.147 467.243C613.988 469.952 599.816 472.453 585.633 474.746C560.989 478.723 537.717 479.556 511.354 479.47C472.232 479.331 433.503 475.591 395.169 468.25C394.807 468.181 394.479 467.993 394.237 467.716C393.995 467.44 393.852 467.09 393.831 466.722L392.859 449.616C392.852 449.524 392.868 449.432 392.905 449.347C392.942 449.263 392.998 449.189 393.07 449.131C393.141 449.073 393.226 449.033 393.316 449.015C393.406 448.996 393.5 449 393.588 449.025Z" fill="#FEFEF7"/>
<path d="M409.201 499.945C409.247 505.075 409.821 509.156 410.921 512.189C413.074 518.163 413.56 523.374 412.379 527.82C412.182 533.852 412.379 539.994 412.97 546.246C415.453 573.026 417.068 599.841 419.934 626.673C420.681 641.244 420.733 658.211 424.328 670.924C427.894 683.486 434.325 694.618 443.623 704.321L443.449 705.259C443.411 705.463 443.321 705.654 443.187 705.812C443.053 705.971 442.88 706.091 442.687 706.162C442.493 706.232 442.285 706.25 442.083 706.213C441.881 706.177 441.694 706.087 441.539 705.953L435.998 701.299C435.922 701.233 435.821 701.2 435.718 701.207C435.615 701.213 435.517 701.259 435.443 701.334L434.991 701.82C434.894 701.924 434.836 702.057 434.827 702.197C434.817 702.336 434.857 702.473 434.939 702.584C457.013 733.932 492.25 746.627 529.242 739.715C552.583 735.356 578.999 719.048 588.724 696.54C589.627 694.468 589.089 693.982 587.109 695.082C586.438 695.464 585.893 695.232 585.477 694.387C591.3 686.699 595.607 678.415 598.398 669.535C600.042 664.278 601.159 656.683 601.75 646.749C602.213 638.888 602.664 631.188 603.104 623.651L610.277 529.313C610.543 523.489 610.618 516.12 610.502 507.205C610.479 504.97 609.623 502.799 607.932 500.692C612.888 496.79 619.001 494.052 626.272 492.478C626.438 492.442 626.609 492.446 626.773 492.488C626.938 492.53 627.09 492.61 627.218 492.722C627.346 492.833 627.446 492.972 627.511 493.129C627.576 493.285 627.604 493.455 627.592 493.624C623.91 543.178 620.217 592.871 616.512 642.703C615.365 658.275 613.692 669.703 611.492 676.985C594.803 732.316 536.918 758.124 482.751 745.116C445.568 736.189 419.014 708.402 409.653 671.219C408.252 665.65 407.163 656.093 406.388 642.546C405.137 620.409 403.522 598.295 401.542 576.204C399.088 548.741 396.917 521.133 395.03 493.381C395.026 493.297 395.042 493.213 395.077 493.137C395.113 493.061 395.166 492.995 395.232 492.943C395.299 492.892 395.377 492.858 395.459 492.843C395.542 492.829 395.627 492.834 395.707 492.86C399.238 494.075 402.897 495.123 406.683 496.003C408.605 496.443 409.444 497.757 409.201 499.945Z" fill="#FEFEFD"/>
<path d="M409.201 499.945L414.985 501.04C414.637 501.41 414.435 501.717 414.377 501.96C414.33 502.145 414.446 502.44 414.724 502.846C414.898 503.112 415.118 503.297 415.384 503.401C415.778 503.575 416.009 503.876 416.079 504.305C416.229 505.242 416.837 505.74 417.902 505.798C419.037 508.079 419.228 510.574 418.475 513.283C417.758 515.865 417.931 519.842 418.996 525.214C419.112 525.747 419.431 526.089 419.952 526.239C422.117 526.853 424.351 527.078 426.655 526.916L412.38 527.82C413.56 523.374 413.074 518.163 410.921 512.189C409.821 509.156 409.248 505.075 409.201 499.945Z" fill="#B7CEE2"/>
<path d="M601.472 501.804C603.765 503.043 603.632 505.312 601.073 508.612C599.209 511.02 598.311 513.011 598.381 514.586C598.52 517.492 598.722 520.717 598.989 524.26C599.012 524.602 598.957 524.945 598.826 525.262C598.695 525.579 598.492 525.861 598.234 526.085C597.976 526.309 597.67 526.47 597.339 526.554C597.009 526.638 596.664 526.643 596.332 526.569C595.266 526.338 594.004 526.494 592.546 527.038L564.046 525.493L452.411 526.014L437.996 526.274C435.287 525.799 433.261 525.302 431.918 524.781C431.628 524.665 431.565 524.456 431.727 524.155C431.755 524.104 431.771 524.047 431.773 523.988C431.775 523.929 431.763 523.871 431.737 523.818C431.711 523.765 431.673 523.719 431.626 523.684C431.579 523.649 431.524 523.626 431.466 523.617C431.119 523.559 430.8 523.634 430.511 523.843C430.495 523.857 430.476 523.866 430.455 523.869C430.434 523.872 430.413 523.868 430.395 523.859C430.376 523.849 430.36 523.834 430.35 523.816C430.34 523.798 430.335 523.777 430.337 523.756C430.337 523.582 430.343 523.414 430.355 523.252C430.366 523.009 430.256 522.841 430.025 522.749C429.874 522.691 429.718 522.627 429.556 522.558C429.22 522.419 429.133 522.181 429.295 521.846C430.152 520.039 429.973 518.592 428.757 517.504C428.433 517.226 428.195 516.879 428.045 516.462C427.489 514.957 426.47 513.926 424.988 513.37C424.502 513.197 424.282 512.849 424.328 512.328C424.409 511.124 424.062 510.059 423.286 509.133C422.981 508.77 422.577 508.499 422.123 508.351C420.641 507.9 419.234 507.049 417.903 505.798C416.837 505.74 416.23 505.243 416.079 504.305C416.01 503.876 415.778 503.575 415.384 503.402C415.118 503.298 414.898 503.112 414.724 502.846C414.446 502.441 414.331 502.145 414.377 501.96C414.435 501.717 414.638 501.41 414.985 501.04C426.447 503.002 437.718 505.642 449.267 504.669C451.56 504.473 452.602 503.604 452.394 502.064C452.365 501.836 452.387 501.604 452.458 501.386C452.53 501.167 452.648 500.967 452.806 500.799C452.964 500.632 453.156 500.501 453.37 500.417C453.584 500.332 453.814 500.296 454.043 500.31C491.73 502.568 528.114 503.61 565.314 500.119C565.997 500.061 566.327 500.368 566.304 501.04L566.217 504.148C566.21 504.424 566.262 504.698 566.371 504.951C566.48 505.205 566.642 505.432 566.846 505.617C567.051 505.801 567.293 505.94 567.556 506.022C567.819 506.104 568.097 506.129 568.371 506.094L601.472 501.804Z" fill="#FEFEF7"/>
<path d="M607.932 500.693C609.622 502.8 610.479 504.971 610.502 507.205C610.618 516.12 610.543 523.49 610.277 529.313C609.999 528.804 609.75 528.486 609.53 528.358C609.518 520.775 609.582 513.139 609.721 505.451C609.756 503.506 608.714 502.753 606.595 503.193C606.132 503.298 605.79 503.564 605.57 503.992C603.469 508.23 600.447 512.884 600.655 517.747C600.794 520.925 602.965 528.185 596.974 527.316L592.545 527.038C594.004 526.494 595.266 526.338 596.331 526.569C596.663 526.643 597.008 526.638 597.339 526.554C597.669 526.47 597.975 526.309 598.233 526.085C598.491 525.861 598.694 525.579 598.825 525.262C598.956 524.945 599.012 524.602 598.988 524.26C598.722 520.717 598.519 517.492 598.38 514.586C598.311 513.012 599.208 511.02 601.072 508.612C603.631 505.312 603.764 503.043 601.472 501.804L607.932 500.693Z" fill="#EEF9FC"/>
<path d="M609.53 528.358L596.974 527.316C602.966 528.184 600.795 520.925 600.656 517.747C600.447 512.884 603.469 508.23 605.57 503.992C605.79 503.564 606.132 503.297 606.595 503.193C608.714 502.753 609.756 503.506 609.721 505.451C609.582 513.139 609.519 520.774 609.53 528.358Z" fill="#B7CEE2"/>
<path d="M417.903 505.798C419.234 507.049 420.641 507.9 422.123 508.351C422.577 508.499 422.98 508.77 423.286 509.133C424.062 510.059 424.409 511.124 424.328 512.328C424.282 512.849 424.502 513.197 424.988 513.37C426.47 513.926 427.489 514.956 428.045 516.462C428.195 516.878 428.433 517.226 428.757 517.504C429.973 518.592 430.152 520.039 429.295 521.845C429.133 522.181 429.22 522.419 429.556 522.557C429.718 522.627 429.874 522.691 430.025 522.748C430.256 522.841 430.366 523.009 430.355 523.252C430.343 523.414 430.337 523.582 430.337 523.756C430.335 523.777 430.34 523.798 430.35 523.816C430.36 523.834 430.376 523.849 430.394 523.859C430.413 523.868 430.434 523.871 430.455 523.869C430.476 523.866 430.495 523.857 430.511 523.843C430.8 523.634 431.119 523.559 431.466 523.617C431.524 523.626 431.579 523.649 431.626 523.684C431.673 523.719 431.711 523.765 431.737 523.818C431.762 523.871 431.775 523.929 431.773 523.988C431.771 524.047 431.755 524.104 431.727 524.155C431.565 524.456 431.628 524.665 431.918 524.78C433.261 525.301 435.287 525.799 437.996 526.274L426.655 526.916C424.351 527.079 422.117 526.853 419.952 526.239C419.431 526.089 419.113 525.747 418.997 525.215C417.932 519.842 417.758 515.865 418.476 513.283C419.228 510.574 419.037 508.079 417.903 505.798Z" fill="#EEF9FC"/>
<path d="M452.41 526.013L459.461 622.73L459.34 623.772C450.853 623.46 439.038 623.321 423.894 623.356C422.122 623.356 420.802 624.461 419.934 626.673C417.068 599.841 415.453 573.026 412.97 546.246C412.379 539.994 412.182 533.852 412.379 527.82L426.655 526.916L437.996 526.274L452.41 526.013Z" fill="#0081AF"/>
<path d="M564.046 525.493L558.037 626.083C557.979 640.069 554.812 651.907 548.537 661.598C534.974 682.543 507.516 689.212 486.016 677.732C475.665 672.209 468.325 663.057 463.994 650.275C467.665 655.554 471.115 660.678 474.345 665.645C475.509 667.433 476.968 667.781 478.409 669.292C485.946 677.09 500.066 681.935 510.573 680.528C518.128 679.521 527.714 679.052 533.463 674.71C542.493 667.902 547.078 662.119 551.142 652.185C554.494 643.988 555.727 635.478 556.196 626.725C556.22 626.289 556.154 625.852 556.004 625.442C555.854 625.032 555.623 624.657 555.324 624.34C555.025 624.023 554.664 623.77 554.265 623.598C553.865 623.426 553.435 623.338 553 623.339L460.052 623.512C459.832 623.512 459.687 623.408 459.618 623.2L459.462 622.731L452.411 526.014L564.046 525.493Z" fill="#13CAED"/>
<path d="M564.046 525.493L592.546 527.038L596.974 527.316L609.531 528.358C609.751 528.486 609.999 528.804 610.277 529.313L603.105 623.651L559.34 623.807C558.761 623.807 558.379 624.08 558.194 624.624C558.02 625.098 557.968 625.585 558.037 626.083L564.046 525.493Z" fill="#0081AF"/>
<path d="M728.564 662.241L727.783 663.891C727.563 664.342 727.209 664.504 726.723 664.377C725.89 664.145 725.021 664.076 724.118 664.168C723.869 664.19 723.617 664.155 723.382 664.065C723.148 663.974 722.936 663.832 722.763 663.647L720.871 661.633C714.121 648.492 706.352 637.713 697.564 629.295C692.354 624.305 685.268 619.558 676.307 615.054C672.822 613.306 668.642 611.981 663.768 611.077C657.052 609.827 650.54 608.351 644.23 606.649L645.306 597.549C645.319 597.425 645.357 597.305 645.417 597.196C645.477 597.087 645.559 596.991 645.658 596.913C645.756 596.836 645.87 596.778 645.991 596.744C646.113 596.71 646.24 596.7 646.366 596.715C683.774 601.358 710.427 620.56 726.324 654.321C726.995 655.745 727.742 658.385 728.564 662.241Z" fill="#FEFEFD"/>
<path d="M644.229 606.649C650.539 608.351 657.052 609.827 663.767 611.077C668.642 611.98 672.821 613.306 676.306 615.054C685.268 619.558 692.353 624.305 697.563 629.295C706.351 637.712 714.12 648.492 720.87 661.633L701.159 681.501L678.581 695.307C674.483 693.883 670.998 695.4 668.126 699.858C664.566 700.882 661.839 703.071 658.088 703.592C648.305 704.958 639.031 703.956 630.266 700.587L632.645 694.821C634.359 691.846 635.471 688.598 635.98 685.078C639.627 669.569 640.756 654.148 641.885 638.326C642.718 626.609 643.5 616.05 644.229 606.649Z" fill="#FFD157"/>
<path d="M459.462 622.73L459.618 623.199C459.687 623.408 459.832 623.512 460.052 623.512L553 623.338C553.435 623.337 553.865 623.426 554.265 623.598C554.664 623.77 555.025 624.023 555.324 624.34C555.623 624.657 555.854 625.032 556.004 625.442C556.154 625.852 556.22 626.288 556.196 626.725C555.727 635.478 554.494 643.988 551.142 652.185C547.078 662.119 542.493 667.902 533.463 674.71C527.714 679.052 518.128 679.521 510.573 680.528C500.066 681.935 485.946 677.089 478.409 669.292C476.968 667.781 475.509 667.433 474.345 665.644C471.115 660.677 467.665 655.554 463.994 650.275C460.915 642.575 459.363 633.741 459.34 623.772L459.462 622.73Z" fill="#07A1C5"/>
<path d="M459.34 623.772C459.363 633.741 460.915 642.575 463.995 650.275C468.325 663.057 475.665 672.209 486.016 677.732C507.516 689.211 534.974 682.543 548.537 661.598C554.813 651.907 557.979 640.069 558.037 626.082C557.968 625.584 558.02 625.098 558.193 624.623C558.379 624.079 558.761 623.807 559.34 623.807L603.104 623.651C602.665 631.188 602.213 638.888 601.75 646.749C601.16 656.683 600.042 664.278 598.398 669.535C595.608 678.415 591.301 686.699 585.477 694.387C577.592 705.895 567.612 714.533 555.536 720.299C523.442 735.605 491.649 734.597 460.156 717.277C454.68 714.266 449.169 709.948 443.623 704.321C434.326 694.618 427.894 683.486 424.328 670.924C420.733 658.211 420.681 641.244 419.934 626.673C420.803 624.461 422.123 623.356 423.894 623.356C439.038 623.321 450.854 623.46 459.34 623.772Z" fill="#003965"/>
<path d="M362.484 632.543L367.364 639.437C365.882 639.252 365.066 639.808 364.916 641.105L363.717 638.274C363.324 637.371 363.121 637.406 363.11 638.378C363.098 639.524 363.451 640.537 364.169 641.417C364.285 641.545 364.285 641.672 364.169 641.799L363.7 642.286C363.387 642.621 363.04 642.656 362.658 642.39C361.106 641.313 359.931 641.157 359.132 641.921C358.345 641.562 357.419 641.423 356.354 641.504C357.083 638.888 356.927 637.846 355.885 638.378C357.367 634.801 359.567 632.855 362.484 632.543Z" fill="#5E5263"/>
<path d="M362.484 632.543C366.386 634.349 368.956 637.741 370.195 642.72C370.345 643.322 370.143 643.501 369.587 643.258C368.371 642.726 367.63 641.452 367.364 639.437L362.484 632.543Z" fill="#B7CEE2"/>
<path d="M364.916 641.105C365.298 641.614 365.859 642.043 366.6 642.39C366.666 642.423 366.718 642.477 366.747 642.545C366.776 642.612 366.781 642.687 366.761 642.758C366.74 642.828 366.695 642.889 366.634 642.93C366.573 642.971 366.5 642.988 366.427 642.98L359.132 641.921C359.931 641.157 361.106 641.313 362.658 642.39C363.04 642.656 363.387 642.622 363.7 642.286L364.169 641.799C364.285 641.672 364.285 641.545 364.169 641.417C363.451 640.537 363.098 639.524 363.109 638.378C363.121 637.406 363.324 637.371 363.717 638.274L364.916 641.105Z" fill="#CF7B46"/>
<path d="M355.885 638.378C356.927 637.846 357.083 638.888 356.354 641.504C355.647 642.5 354.814 643.056 353.853 643.171C353.089 643.276 352.915 643.004 353.332 642.355L355.885 638.378Z" fill="#CF7B46"/>
<path d="M381.987 667.225C368.534 669.02 355.225 669.02 342.06 667.225C338.865 666.797 336.017 667.48 333.516 669.274C325.075 675.33 318.192 683.18 312.866 692.824C310.458 690.3 308.762 687.869 307.778 685.53C312.918 672.898 321.642 663.312 333.95 656.77C334.471 656.504 335.548 656.631 337.18 657.152C350.917 661.529 363.04 660.851 380.476 659.653C381.148 659.607 381.501 659.919 381.536 660.591L381.987 667.225Z" fill="#FEFEFD"/>
<path d="M720.87 661.633L722.763 663.647C722.936 663.832 723.148 663.974 723.382 664.064C723.617 664.155 723.869 664.19 724.118 664.168C725.021 664.076 725.889 664.145 726.723 664.377C727.209 664.504 727.562 664.342 727.782 663.89L728.564 662.241C729.884 665.598 730.92 669.755 731.673 674.71C733.224 684.806 733.693 693.906 733.08 702.011C724.431 710.104 713.68 720.438 702.392 723.529C701.94 723.807 701.61 723.627 701.402 722.99C701.425 722.458 700.8 721.746 699.526 720.854C699.273 720.675 699.074 720.427 698.954 720.141C698.833 719.854 698.795 719.54 698.844 719.232C698.892 718.925 699.026 718.638 699.23 718.403C699.433 718.168 699.698 717.994 699.995 717.902C702.716 717.103 705.043 715.598 706.977 713.386C707.834 715.251 708.991 715.054 710.45 712.796C711.909 710.538 714.01 704.46 713.889 701.299C713.692 696.332 711.18 693.044 706.352 691.435C708.714 691.562 709.582 690.676 708.957 688.777C708.771 688.233 708.447 687.793 707.984 687.457C705.223 685.478 705.171 682.56 701.159 681.501L720.87 661.633Z" fill="#FDBB32"/>
<path d="M381.987 667.225C385.46 683.011 388.065 692.007 395.151 705.918C377.796 713.352 359.67 714.579 340.775 709.6C328.965 706.497 319.662 700.905 312.866 692.824C318.192 683.179 325.075 675.329 333.515 669.274C336.016 667.479 338.865 666.796 342.06 667.225C355.224 669.019 368.533 669.019 381.987 667.225Z" fill="#B97357"/>
<path d="M701.159 681.501C705.171 682.56 705.223 685.478 707.984 687.458C708.447 687.793 708.771 688.233 708.957 688.778C709.582 690.676 708.714 691.562 706.352 691.435C704.545 693.287 702.56 694.468 700.395 694.978C699.839 695.105 699.318 695.319 698.832 695.62L689.471 701.525L678.582 695.308L701.159 681.501Z" fill="#FE940E"/>
<path d="M635.98 685.078C635.47 688.598 634.359 691.846 632.645 694.821C632.622 691.325 633.734 688.077 635.98 685.078Z" fill="#B25937"/>
<path d="M307.778 685.53C308.762 687.869 310.458 690.3 312.866 692.824C319.662 700.905 328.965 706.498 340.775 709.6C359.67 714.579 377.796 713.352 395.151 705.919L405.519 721.879C405.855 722.4 405.814 722.892 405.398 723.355L404.772 724.067C389.385 735.269 377.298 742.963 357.204 741.295C333.324 739.333 317.729 724.171 304.791 705.033C304.188 699.418 305.184 692.917 307.778 685.53Z" fill="#003965"/>
<path d="M706.351 691.435C711.179 693.044 713.692 696.332 713.889 701.299C714.01 704.46 711.909 710.538 710.45 712.796C708.991 715.054 707.833 715.25 706.977 713.386C712.187 707.435 713.281 701.548 710.259 695.724C710.023 695.269 709.683 694.875 709.267 694.575C708.851 694.274 708.371 694.076 707.864 693.995C707.357 693.914 706.839 693.952 706.35 694.108C705.861 694.264 705.415 694.532 705.049 694.891C700.221 699.626 695.028 701.837 689.471 701.525L698.831 695.62C699.318 695.319 699.839 695.105 700.394 694.977C702.56 694.468 704.545 693.287 706.351 691.435Z" fill="#CF7B46"/>
<path d="M706.977 713.386C705.043 715.598 702.716 717.103 699.995 717.902C699.698 717.994 699.433 718.168 699.229 718.403C699.026 718.638 698.892 718.925 698.843 719.232C698.795 719.539 698.833 719.854 698.953 720.141C699.074 720.427 699.272 720.674 699.526 720.854C700.8 721.746 701.425 722.458 701.402 722.99C697.772 728.774 695.132 734.696 687.004 733.15C676.966 731.222 680.075 721.532 683.531 715.8C683.577 715.725 683.605 715.64 683.612 715.552C683.619 715.464 683.605 715.376 683.571 715.294C683.537 715.213 683.484 715.141 683.417 715.084C683.35 715.027 683.27 714.987 683.184 714.967C673.667 712.987 668.647 707.951 668.126 699.857C670.998 695.4 674.483 693.883 678.581 695.307L689.471 701.525C695.028 701.837 700.221 699.626 705.049 694.891C705.415 694.532 705.861 694.264 706.35 694.108C706.839 693.952 707.357 693.914 707.864 693.995C708.371 694.076 708.851 694.274 709.267 694.575C709.683 694.875 710.023 695.269 710.259 695.724C713.281 701.548 712.187 707.435 706.977 713.386Z" fill="#010107"/>
<path d="M585.477 694.387C585.893 695.232 586.437 695.464 587.109 695.082C589.089 693.982 589.627 694.468 588.724 696.54C578.999 719.048 552.583 735.356 529.242 739.715C492.25 746.627 457.012 733.932 434.939 702.584C434.857 702.473 434.817 702.336 434.827 702.197C434.836 702.057 434.894 701.924 434.991 701.82L435.443 701.334C435.517 701.259 435.615 701.213 435.718 701.207C435.821 701.2 435.921 701.233 435.998 701.299L441.538 705.953C441.694 706.087 441.881 706.177 442.083 706.213C442.284 706.25 442.493 706.232 442.686 706.162C442.88 706.091 443.053 705.971 443.187 705.812C443.32 705.654 443.411 705.463 443.449 705.259L443.622 704.321C449.168 709.948 454.68 714.266 460.156 717.277C491.648 734.597 523.441 735.605 555.536 720.299C567.612 714.533 577.592 705.896 585.477 694.387Z" fill="#A0C2DF"/>
<path d="M630.266 700.587C639.031 703.956 648.305 704.958 658.088 703.591C661.84 703.07 664.566 700.882 668.127 699.857C668.648 707.95 673.667 712.987 683.184 714.967C683.27 714.987 683.35 715.027 683.417 715.084C683.484 715.141 683.537 715.213 683.571 715.294C683.605 715.376 683.619 715.464 683.612 715.552C683.605 715.64 683.577 715.725 683.531 715.8C680.075 721.531 676.966 731.222 687.004 733.15C695.132 734.696 697.772 728.774 701.402 722.99C701.61 723.627 701.94 723.807 702.392 723.529L697.668 730.944C697.355 731.431 696.939 731.79 696.417 732.021L689.766 735.112C682.333 734.372 678.744 730.545 678.998 723.633C679.085 721.358 680.683 719.361 681.325 717.033C681.395 716.788 681.377 716.525 681.276 716.289C681.176 716.052 680.997 715.855 680.77 715.731C678.495 714.533 676.324 714.515 674.396 713.004C672.185 711.268 670.095 709.166 668.127 706.7C667.822 706.32 667.391 706.064 666.912 705.978C666.433 705.892 665.939 705.982 665.521 706.231C658.551 710.422 650.869 713.543 642.475 715.592C638.4 716.588 631.465 716.455 621.67 715.193L630.266 700.587Z" fill="#FE940E"/>
<path d="M733.08 702.011C730.428 722.053 721.999 738.644 707.793 751.785C699.457 759.496 689.957 767.172 679.832 771.358C653.591 782.195 616.738 777.957 593.9 760.781C591.573 759.033 589.581 757.042 587.926 754.807C587.488 754.215 587.287 753.481 587.365 752.753C587.442 752.025 587.791 751.357 588.343 750.882L603.33 737.891C603.666 738.331 603.759 738.829 603.608 739.385C603.435 740.033 603.666 740.265 604.303 740.08C605.021 739.871 605.669 739.541 606.248 739.09C606.387 738.986 606.601 738.899 606.891 738.829C607.064 738.783 607.197 738.835 607.29 738.986C607.417 739.182 607.597 739.275 607.829 739.263C608.963 739.206 609.855 738.794 610.503 738.03C610.816 737.66 610.943 737.718 610.885 738.204C610.793 739.096 610.422 739.912 609.774 740.653C609.695 740.745 609.644 740.857 609.627 740.977C609.609 741.097 609.626 741.219 609.675 741.33C609.724 741.441 609.803 741.535 609.904 741.603C610.004 741.671 610.122 741.709 610.243 741.712C611.62 741.782 612.934 741.533 614.185 740.965C614.625 740.769 615.082 740.722 615.557 740.827C617.901 741.348 619.777 740.462 621.878 740.67C630.655 741.562 639.442 741.897 648.242 741.677C650.326 741.62 654.847 741.029 661.805 739.906C668.509 738.829 676.255 740.549 682.403 738.638C684.521 737.967 686.681 737.405 688.88 736.954C688.933 736.943 688.982 736.916 689.019 736.877C689.056 736.838 689.08 736.788 689.087 736.735C689.095 736.682 689.086 736.627 689.061 736.579C689.036 736.531 688.998 736.492 688.95 736.467C688.811 736.398 688.666 736.334 688.516 736.276C687.532 735.975 687.584 735.773 688.672 735.668C689.309 735.611 689.674 735.425 689.766 735.113L696.418 732.021C696.939 731.79 697.356 731.431 697.668 730.945L702.392 723.529C713.681 720.438 724.431 710.104 733.08 702.011Z" fill="#B25937"/>
<path d="M304.791 705.033C317.729 724.171 333.325 739.333 357.204 741.295C377.298 742.962 389.386 735.269 404.773 724.067C404.923 725.804 406.295 727.535 408.889 729.26C409.41 729.607 409.636 730.093 409.566 730.719C408.906 736.676 405.85 739.61 401.421 744.109C399.291 746.274 396.697 748.005 393.641 749.301C388.153 751.611 383.845 754.32 377.784 754.789C366.01 755.692 354.808 756.04 343.016 754.633C337.302 753.956 329.174 748.641 324.051 745.776C319.831 743.414 317.538 739.472 313.04 736.901C312.571 736.622 312.224 736.182 312.068 735.668C311.454 733.7 310.557 731.952 309.376 730.423C305.902 725.943 305.659 722.4 306.336 717.155C306.406 716.553 306.14 716.246 305.538 716.234H304.148C303.792 716.229 303.449 716.095 303.181 715.856C302.913 715.617 302.739 715.289 302.689 714.932C302.435 713.126 302.521 711.331 302.95 709.548C303.006 709.335 303.131 709.155 303.307 709.033C303.484 708.911 303.702 708.854 303.928 708.872C304.155 708.89 304.379 708.98 304.565 709.13C304.752 709.28 304.892 709.482 304.965 709.704C305.057 710.005 305.26 710.168 305.572 710.191C306.128 710.226 306.325 709.971 306.163 709.427L304.791 705.033Z" fill="#00051B"/>
<path d="M689.766 735.113C689.673 735.425 689.308 735.611 688.672 735.668C687.583 735.773 687.531 735.975 688.515 736.276C688.666 736.334 688.811 736.398 688.949 736.467C688.997 736.492 689.036 736.531 689.061 736.579C689.085 736.627 689.094 736.682 689.087 736.735C689.079 736.788 689.055 736.838 689.018 736.877C688.981 736.916 688.933 736.943 688.88 736.954C686.68 737.405 684.521 737.967 682.402 738.638C676.254 740.549 668.508 738.829 661.805 739.906C654.846 741.029 650.325 741.62 648.241 741.677C639.442 741.897 630.654 741.562 621.878 740.67C619.777 740.462 617.901 741.348 615.556 740.826C615.082 740.722 614.624 740.769 614.184 740.965C612.934 741.533 611.62 741.782 610.242 741.712C610.121 741.708 610.004 741.671 609.903 741.603C609.803 741.535 609.723 741.441 609.674 741.33C609.625 741.219 609.609 741.097 609.626 740.977C609.644 740.857 609.695 740.745 609.773 740.653C610.422 739.912 610.792 739.096 610.885 738.204C610.943 737.718 610.815 737.66 610.502 738.03C609.854 738.794 608.963 739.206 607.828 739.263C607.596 739.275 607.417 739.182 607.29 738.986C607.197 738.835 607.064 738.783 606.89 738.829C606.601 738.899 606.387 738.986 606.248 739.09C605.669 739.541 605.02 739.871 604.302 740.08C603.666 740.265 603.434 740.033 603.608 739.385C603.758 738.829 603.666 738.331 603.33 737.891C610.346 730.945 616.459 723.378 621.67 715.193C631.465 716.455 638.4 716.588 642.475 715.592C650.869 713.543 658.551 710.423 665.521 706.231C665.939 705.982 666.433 705.892 666.912 705.978C667.39 706.064 667.822 706.321 668.126 706.7C670.095 709.166 672.184 711.268 674.396 713.004C676.324 714.515 678.495 714.533 680.77 715.731C680.997 715.856 681.175 716.052 681.276 716.289C681.377 716.525 681.394 716.788 681.325 717.034C680.683 719.361 679.085 721.358 678.998 723.633C678.743 730.545 682.333 734.372 689.766 735.113Z" fill="#CA6029"/>
<path d="M460.156 779.26L459.965 764.689C459.953 764.469 460.057 764.37 460.277 764.393L460.764 764.428C460.949 764.451 461.053 764.555 461.076 764.741L461.597 770.194C461.632 770.646 461.875 770.877 462.327 770.889C462.547 770.9 462.738 770.819 462.9 770.646C463.05 770.483 463.126 770.217 463.126 769.847C463.137 769.152 463.19 768.44 463.282 767.71C463.352 767.143 463.67 766.935 464.237 767.085L472.278 769.256C472.44 769.296 472.61 769.274 472.755 769.195C472.9 769.116 473.011 768.986 473.067 768.828C473.123 768.669 473.119 768.495 473.057 768.337C472.995 768.18 472.878 768.049 472.73 767.971C472.463 767.821 472.145 767.323 471.774 766.477C503.73 775.416 534.875 773.453 565.209 760.59C565.811 760.335 566.112 760.538 566.112 761.198L566.147 778.079C566.147 778.762 565.811 779.103 565.14 779.103L460.156 779.26Z" fill="#A0C2DF"/>
<path d="M471.775 766.478C472.145 767.323 472.464 767.821 472.73 767.971C472.879 768.05 472.995 768.18 473.057 768.338C473.119 768.495 473.123 768.67 473.067 768.828C473.012 768.986 472.901 769.117 472.756 769.196C472.61 769.275 472.441 769.296 472.279 769.256L464.238 767.086C463.67 766.935 463.352 767.143 463.282 767.711C463.19 768.44 463.138 769.152 463.126 769.847C463.126 770.217 463.051 770.484 462.9 770.646C462.738 770.819 462.547 770.901 462.327 770.889C461.876 770.877 461.632 770.646 461.598 770.194L461.077 764.741C461.054 764.556 460.949 764.452 460.764 764.428L460.278 764.394C460.058 764.371 459.954 764.469 459.965 764.689L460.156 779.26C459.172 779.503 458.368 779.572 457.742 779.468C457.013 779.353 456.654 778.924 456.666 778.183L456.874 762.101C456.877 761.948 456.918 761.797 456.992 761.663C457.066 761.528 457.171 761.413 457.299 761.328C457.427 761.243 457.573 761.189 457.726 761.173C457.879 761.156 458.033 761.177 458.176 761.233L471.775 766.478Z" fill="#B7CEE2"/>
<path d="M538.03 591.678C538.03 594.824 536.781 597.841 534.556 600.066C532.332 602.29 529.315 603.54 526.169 603.54C523.023 603.54 520.006 602.29 517.781 600.066C515.557 597.841 514.307 594.824 514.307 591.678C514.307 588.532 515.557 585.515 517.781 583.291C520.006 581.066 523.023 579.816 526.169 579.816C529.315 579.816 532.332 581.066 534.556 583.291C536.781 585.515 538.03 588.532 538.03 591.678Z" fill="#FEFEF7"/>
</svg>
