<svg width="1024" height="1024" viewBox="0 0 1024 1024" fill="none" xmlns="http://www.w3.org/2000/svg">
<rect width="1024" height="1024" fill="white"/>
<path d="M371.103 605.912C371.97 605.898 372.044 605.654 371.327 605.18C333.413 579.417 297.713 533.558 319.738 485.16C320.023 484.523 320.043 483.88 319.799 483.23C311.123 460.006 306.633 441.313 319.048 418.354C319.562 417.392 319.616 416.41 319.21 415.407C303.098 375.746 312.241 331.432 336.501 296.728C356.264 268.459 383.07 247.192 416.921 232.929C504.553 196.011 607.141 206.861 676.71 274.053C713.873 309.935 731.915 363.941 713.202 413.437C712.647 414.886 712.911 416.85 713.994 419.329C723.219 440.528 722.67 461.008 712.349 480.771C711.994 481.456 711.801 482.214 711.783 482.989C711.766 483.763 711.924 484.533 712.247 485.241C722.975 508.282 720.842 529.373 710.337 553.491C701.214 574.398 683.029 590.49 664.215 603.92C664.02 604.063 663.874 604.263 663.798 604.492C663.722 604.721 663.72 604.969 663.792 605.199C663.863 605.43 664.005 605.632 664.198 605.778C664.39 605.924 664.623 606.006 664.865 606.013C733.845 607.903 780.72 666.724 779.44 733.206C779.115 750.944 778.18 769.596 780.171 787.232C780.217 787.687 780.442 788.106 780.796 788.395C781.151 788.685 781.605 788.822 782.061 788.776C785.515 788.451 789.172 788.41 792.037 790.524C798.762 795.461 796.913 805.803 790.615 809.989C788.596 811.33 785.555 812 781.492 812C552.654 811.729 373.582 811.729 244.276 812C236.007 812 226.193 806.981 228.286 797.351C229.085 793.626 231.218 790.781 234.686 788.817C235.193 788.527 235.613 788.109 235.906 787.606C236.198 787.103 236.352 786.532 236.352 785.952C236.271 769.806 236.115 753.829 235.885 738.021C235.749 727.862 236.21 719.389 237.266 712.603C244.134 668.756 270.202 634.113 310.575 616.172C330.771 607.212 349.362 606.318 371.103 605.912Z" fill="#01020A"/>
<path d="M773.873 241.199C773.873 244.276 772.651 247.226 770.475 249.402C768.3 251.578 765.349 252.8 762.272 252.8C759.195 252.8 756.244 251.578 754.068 249.402C751.892 247.226 750.67 244.276 750.67 241.199C750.67 238.122 751.892 235.171 754.068 232.995C756.244 230.819 759.195 229.597 762.272 229.597C765.349 229.597 768.3 230.819 770.475 232.995C772.651 235.171 773.873 238.122 773.873 241.199Z" fill="#01020A"/>
<path d="M310.351 242.072C310.351 243.566 310.057 245.046 309.485 246.426C308.913 247.807 308.075 249.061 307.019 250.118C305.962 251.174 304.708 252.013 303.327 252.584C301.947 253.156 300.467 253.45 298.973 253.45C295.955 253.45 293.061 252.252 290.927 250.118C288.793 247.984 287.595 245.09 287.595 242.072C287.595 239.054 288.793 236.16 290.927 234.027C293.061 231.893 295.955 230.694 298.973 230.694C300.467 230.694 301.947 230.988 303.327 231.56C304.708 232.132 305.962 232.97 307.019 234.027C308.075 235.083 308.913 236.337 309.485 237.718C310.057 239.098 310.351 240.578 310.351 242.072Z" fill="#01020A"/>
<path d="M267.138 274.735C265.864 275.479 264.446 275.949 262.965 276.118C261.485 276.286 259.971 276.15 258.509 275.717C257.048 275.284 255.668 274.562 254.447 273.594C253.227 272.625 252.191 271.428 251.398 270.071C249.797 267.33 249.283 264.105 249.97 261.104C250.657 258.103 252.489 255.573 255.062 254.069C256.336 253.325 257.753 252.855 259.234 252.687C260.714 252.518 262.228 252.654 263.69 253.087C265.151 253.52 266.532 254.242 267.752 255.211C268.972 256.179 270.008 257.376 270.801 258.733C272.402 261.474 272.916 264.699 272.229 267.7C271.542 270.701 269.71 273.231 267.138 274.735Z" fill="#01020A"/>
<path d="M751.969 272.285C751.969 275.352 750.751 278.292 748.583 280.46C746.415 282.629 743.474 283.847 740.408 283.847C737.342 283.847 734.401 282.629 732.233 280.46C730.065 278.292 728.847 275.352 728.847 272.285C728.847 269.219 730.065 266.279 732.233 264.111C734.401 261.942 737.342 260.724 740.408 260.724C743.474 260.724 746.415 261.942 748.583 264.111C750.751 266.279 751.969 269.219 751.969 272.285Z" fill="#01020A"/>
<path d="M654.543 285.208L649.301 293.214" stroke="#FFB3B3" stroke-width="2"/>
<path d="M649.301 293.213C649.247 293.918 648.99 294.446 648.529 294.798C648.088 295.132 647.548 295.308 646.995 295.297C646.442 295.286 645.909 295.089 645.481 294.737C573.413 235.306 440.571 235.022 377.808 311.703C362.773 330.111 361.696 354.636 365.699 377.026C368.157 390.782 377.626 407.93 387.947 417.541C390.074 419.519 392.045 421.638 393.86 423.901" stroke="#FFCAC3" stroke-width="2"/>
<path d="M393.86 423.901C389.837 426.867 386.106 428.777 382.665 429.631C382.234 429.737 381.784 429.737 381.355 429.63C380.927 429.524 380.532 429.315 380.207 429.021C371.063 420.894 363.627 412.299 357.958 401.165C355.601 396.532 353.441 392.021 351.476 387.633C350.501 385.438 349.77 385.54 349.282 387.937C349.106 388.831 349.248 390.206 349.709 392.062C353.935 408.621 364.053 418.821 374.436 431.54C378.459 436.457 372.648 442.248 368.584 444.788" stroke="#FFB3B3" stroke-width="2"/>
<path d="M649.301 293.214C665.718 308.127 677.99 332.306 675.065 354.981C671.468 382.695 656.859 406.143 635.322 422.885C607.445 444.585 576.277 455.211 540.517 458.096C502.359 461.164 459.65 457.69 424.337 439.546C414.523 434.487 406.457 431.764 397.395 423.291C397.155 423.071 396.868 422.91 396.557 422.822C396.247 422.734 395.921 422.72 395.607 422.783C394.78 422.959 394.198 423.332 393.859 423.901" stroke="#FF7D77" stroke-width="2"/>
<path d="M631.989 524.882C633.75 522.227 632.585 521.252 628.495 521.957C627.397 522.146 626.158 522.6 624.777 523.318C618.905 526.406 611.305 528.357 606.449 530.206C597.103 533.782 587.188 537.541 577.293 539.247C568.8 540.71 560.754 543.128 552.098 543.535C547.486 543.758 543.828 545.018 539.866 544.876C531.678 544.611 523.388 545.526 515.545 545.079C509.22 544.727 502.887 544.456 496.548 544.266C491.57 544.124 487.364 541.096 482.487 541.117C476.108 541.157 470.689 540.805 466.233 540.06C463.002 539.532 459.955 537.784 456.379 537.256C453.182 536.796 450.744 536.213 449.064 535.509C445.772 534.141 442.461 532.847 439.128 531.628C436.568 530.693 434.597 527.991 431.001 528.763C430.54 528.858 430.181 528.844 429.924 528.723C429.531 528.546 429.22 528.275 428.989 527.91C428.664 527.354 428.19 527.144 427.567 527.28C426.484 527.497 425.705 527.063 425.231 525.98C424.933 525.262 424.391 524.903 423.605 524.903H420.496C420.172 524.903 419.852 524.822 419.565 524.666C419.277 524.51 419.032 524.284 418.851 524.009C417.164 521.449 414.563 521.103 412.41 519.823C408.956 517.751 405.319 517.568 401.926 515.617C396.196 512.346 390.954 511.696 387.5 505.925C387.12 505.316 387.276 504.903 387.967 504.686C389.376 504.225 390.54 504.456 391.462 505.377C391.922 505.837 392.471 506.068 393.107 506.068C393.988 506.068 394.645 506.447 395.078 507.205C395.417 507.815 395.932 508.12 396.622 508.12H398.126C398.627 508.12 399.027 508.323 399.325 508.729C400.016 509.678 400.903 510.158 401.986 510.172C402.623 510.185 403.226 510.321 403.795 510.578C404.377 510.822 404.845 511.14 405.197 511.533C405.657 512.048 406.219 512.258 406.883 512.163C407.845 512.028 408.57 512.36 409.057 513.159C409.236 513.444 409.505 513.662 409.822 513.776C410.139 513.89 410.485 513.894 410.805 513.789C412.186 513.328 413.101 513.572 413.548 514.52C413.873 515.184 414.401 515.57 415.132 515.678C416.771 515.922 418.458 515.834 420.192 515.414" stroke="#FF7D77" stroke-width="2"/>
<path d="M420.192 515.414C427.615 518.231 432.566 520.006 435.045 520.737C442.861 523.053 453.291 525.681 466.335 528.621C475.925 530.774 485.109 530.023 484.865 517.689" stroke="#FFB3B3" stroke-width="2"/>
<path d="M420.191 515.414L388.982 500.846" stroke="#FFCAC3" stroke-width="2"/>
<path d="M388.983 500.846C383.402 495.306 377.042 491.269 369.904 488.736C368.116 488.107 366.389 488.716 364.601 487.802C364.032 487.504 363.639 487.66 363.422 488.269C363.084 489.258 363.395 490.145 364.357 490.931C368.84 494.656 373.46 498.239 378.214 501.679C381.709 504.212 384.987 507.077 388.048 510.274" stroke="#F8F2ED" stroke-width="2"/>
<path d="M388.048 510.274L388.556 511.472" stroke="#FFCAC3" stroke-width="2"/>
<path d="M388.556 511.472C388.367 513.45 387.175 514.161 384.98 513.606C383.45 513.213 382.4 513.247 381.831 513.707" stroke="#F8F2ED" stroke-width="2"/>
<path d="M439.149 539.044C439.393 537.974 440.477 537.663 442.4 538.11C443.104 538.272 443.707 538.252 444.208 538.049C444.338 537.996 444.45 537.908 444.532 537.795C444.614 537.682 444.663 537.549 444.674 537.41C444.684 537.27 444.656 537.131 444.592 537.007C444.527 536.883 444.43 536.779 444.31 536.708C441.235 534.852 438.729 533.626 436.792 533.03C426.213 529.725 416.813 525.831 408.59 521.347C401.005 517.189 394.327 513.897 388.557 511.472" stroke="#F8BCB0" stroke-width="2"/>
<path d="M388.983 500.846C386.802 499.844 384.893 499.39 383.254 499.485C382.921 499.508 382.6 499.621 382.326 499.811C382.052 500.002 381.835 500.263 381.697 500.567C381.56 500.872 381.507 501.207 381.545 501.539C381.583 501.871 381.71 502.186 381.912 502.451L388.049 510.274" stroke="#F8BCB0" stroke-width="2"/>
<path d="M612.322 559.525C615.532 560.04 614.875 561.408 610.351 563.629" stroke="#FFBF96" stroke-width="2"/>
<path d="M610.351 563.629C601.465 571.432 591.705 576.863 581.072 579.925C552.87 588.032 518.126 588.032 494.191 587.016C468.576 585.919 443.876 580.676 420.09 571.289C417.923 570.423 414.008 569.082 408.346 567.266C402.373 565.357 394.828 561.232 385.712 554.893C377.422 549.122 369.599 545.953 360.639 542.295C359.948 542.011 359.528 542.234 359.379 542.966C359.081 544.429 359.413 545.675 360.375 546.704C362.61 549.102 364.926 551.432 367.324 553.694C367.974 554.303 369.789 556.518 372.769 560.338C374.584 562.654 377.117 564.896 380.368 567.063" stroke="#FFDFBB" stroke-width="2"/>
<path d="M380.369 567.063C379.353 570.206 375.878 572.935 369.945 575.251" stroke="#FFBF96" stroke-width="2"/>
<path d="M380.367 567.063C377.577 564.543 376.053 562.275 375.796 560.256C375.687 559.403 376.013 559.179 376.771 559.586C377.516 559.992 378.261 560.358 379.006 560.683C382.562 562.227 386.199 566.291 389.104 568.892C391.407 570.964 393.994 572.657 396.866 573.971C403.002 576.755 408.508 579.721 415.071 582.18C436.71 590.307 455.809 597.378 481.999 600.405C504.011 602.938 528.393 602.552 555.145 599.247C570.973 597.297 586.435 591.465 603.93 586.426C625.819 580.1 644.505 568.262 659.988 550.91C660.178 550.7 660.281 550.427 660.278 550.144C660.274 549.861 660.163 549.59 659.967 549.386L659.52 548.898C659.046 548.397 658.545 548.37 658.017 548.817C651.474 554.384 646.821 557.554 644.058 558.326C637.543 560.155 631.081 562.193 624.674 564.442C620.408 565.945 617.461 570.05 611.021 568.323C610.384 568.147 610.14 567.733 610.289 567.083C610.574 565.878 610.594 564.726 610.35 563.629" stroke="#FF9F52" stroke-width="2"/>
<path d="M621.587 634.865C594.509 641.868 566.341 646.589 537.083 649.027C536.565 649.072 536.063 649.229 535.613 649.488C535.163 649.748 534.776 650.103 534.479 650.527C534.182 650.952 533.983 651.437 533.896 651.947C533.808 652.457 533.835 652.979 533.974 653.477C537.246 665.424 526.741 681.475 513.006 676.518C501.113 672.224 496.765 663.968 499.962 651.75C500.001 651.598 500.006 651.439 499.977 651.285C499.949 651.131 499.887 650.985 499.796 650.857C499.705 650.73 499.587 650.623 499.451 650.546C499.314 650.468 499.163 650.422 499.007 650.409C483.551 649.339 468.394 646.704 453.534 642.505" stroke="#B0C9DE" stroke-width="2"/>
<path d="M453.533 642.505C455.308 643.277 454.955 642.18 452.477 639.213" stroke="#E0EAF3" stroke-width="2"/>
<path d="M622.217 683.71C617.286 686.785 614.028 688.594 612.444 689.135C590.893 696.436 568.739 700.954 545.982 702.688" stroke="#C8D0D8" stroke-width="2"/>
<path d="M528.753 702.708C520.693 692.657 512.593 692.542 504.452 702.363" stroke="#515F70" stroke-width="2"/>
<path d="M453.534 642.505L420.558 634.601C420.355 634.552 420.143 634.55 419.939 634.594C419.735 634.638 419.543 634.729 419.379 634.858C419.215 634.987 419.082 635.151 418.99 635.339C418.899 635.527 418.851 635.733 418.851 635.942L418.77 668.269C418.763 669.075 418.966 669.869 419.358 670.574C419.749 671.279 420.317 671.871 421.005 672.292C436.853 682.031 453.473 689.826 470.866 695.678C480.903 699.051 492.098 701.279 504.452 702.363" stroke="#D0DEEA" stroke-width="2"/>
<path d="M504.452 702.363C502.745 712.292 506.26 718.082 514.997 719.735C526.72 721.929 529.159 712.542 528.752 702.708" stroke="#808185" stroke-width="2"/>
<path d="M528.752 702.708L545.982 702.688" stroke="#D0DEEA" stroke-width="2"/>
<path d="M545.983 702.688C547.947 703.46 547.961 704.442 546.024 705.634C545.36 706.04 544.595 706.264 543.728 706.304C541.723 706.413 540.138 706.277 538.973 705.898C537.783 705.506 536.485 705.603 535.363 706.166C534.24 706.729 533.384 707.713 532.979 708.905C531.76 712.481 530.988 716.403 528.367 719.288C521.08 727.32 513.061 727.286 504.31 719.186C501.669 716.734 500.307 713.287 500.226 708.844C500.172 706.162 498.804 704.76 496.122 704.638C483.22 704.069 469.464 698.238 457.111 694.56C451.76 692.962 443.809 689.271 433.257 683.487C430.047 681.74 427.162 678.692 423.443 677.087C423.102 676.939 422.729 676.878 422.358 676.91C421.987 676.942 421.63 677.064 421.318 677.268C421.006 677.471 420.75 677.748 420.571 678.074C420.392 678.401 420.297 678.767 420.294 679.139L419.359 789.122" stroke="#F8F2ED" stroke-width="2"/>
<path d="M507.419 789.325C503.735 786.887 500.511 785.627 497.747 785.546C483.105 785.085 462.367 785.275 435.533 786.115C432.58 786.209 430.541 787.374 429.417 789.609" stroke="#F8F2ED" stroke-width="2"/>
<path d="M304.236 751.248L303.748 747.693C303.748 747.59 303.707 747.492 303.635 747.42C303.563 747.347 303.464 747.307 303.362 747.307C303.26 747.307 303.162 747.347 303.089 747.42C303.017 747.492 302.976 747.59 302.976 747.693C302.813 749.061 302.902 750.415 303.24 751.756C303.47 752.583 303.166 753.111 302.326 753.341C300.809 753.775 300.057 754.926 300.071 756.795C300.084 757.865 299.888 757.906 299.481 756.917C299.292 756.457 299.231 755.989 299.298 755.515C300.091 750.253 300.071 745.6 302.448 741.821C305.821 736.403 310.975 734.574 317.91 736.335C326.139 738.407 330.324 748.526 330.202 756.186C330.053 765.315 330.087 774.357 330.304 783.311C330.312 783.577 330.373 783.838 330.482 784.081C330.592 784.323 330.749 784.542 330.943 784.723C331.138 784.904 331.367 785.045 331.616 785.138C331.866 785.23 332.131 785.272 332.397 785.261L365.841 783.941C366.281 783.925 366.698 783.735 367.001 783.412C367.305 783.09 367.472 782.659 367.466 782.214C366.836 747.611 367.69 712.928 366.41 678.407C365.902 664.489 366.532 650.917 364.337 637.06C364.291 636.764 364.181 636.482 364.014 636.234C363.847 635.985 363.628 635.775 363.371 635.619C363.114 635.462 362.826 635.363 362.526 635.328C362.227 635.292 361.923 635.322 361.635 635.414C355.336 637.507 356.88 647.849 357.226 652.705C357.243 652.934 357.213 653.164 357.137 653.38C357.062 653.597 356.944 653.795 356.789 653.963C356.635 654.131 356.447 654.265 356.239 654.356C356.031 654.447 355.807 654.494 355.58 654.493C309.072 654.472 273.108 695.394 273.169 740.52C273.196 754.079 273.162 768.018 273.067 782.335C273.065 782.765 273.148 783.19 273.314 783.586C273.479 783.983 273.723 784.341 274.03 784.641C274.337 784.941 274.702 785.175 275.102 785.331C275.503 785.486 275.93 785.559 276.359 785.546L304.154 784.652" stroke="#F8F2ED" stroke-width="2"/>
<path d="M748.048 789.203L749.085 787.679C749.231 787.465 749.319 787.217 749.34 786.958C749.36 786.7 749.313 786.44 749.201 786.206C749.09 785.971 748.92 785.77 748.707 785.622C748.494 785.474 748.246 785.385 747.987 785.363C746.267 785.2 744.587 784.719 742.948 783.92C742.325 783.609 741.993 783.108 741.953 782.417C740.978 765.004 741.038 747.794 740.937 730.361C740.91 725.133 739.84 718.902 737.727 711.668" stroke="#C8D0D8" stroke-width="2"/>
<path d="M737.726 711.668C733.013 696.213 725.488 683.812 715.153 674.466C698.383 659.295 678.58 654.289 655.742 659.45" stroke="#D0DEEA" stroke-width="2"/>
<path d="M655.742 659.45L647.757 660.405" stroke="#C8D0D8" stroke-width="2"/>
<path d="M647.757 660.406C647.106 658.74 645.731 659.187 643.632 661.747" stroke="#D0DEEA" stroke-width="2"/>
<path d="M684.391 784.55C684.756 785.336 685.332 785.81 686.118 785.973C686.768 786.122 687.357 785.979 687.885 785.546C689.064 784.544 690.107 784.632 691.014 785.81" stroke="#BCCDDE" stroke-width="2"/>
<path d="M719.237 789.182C718.668 779.972 718.438 770.706 718.546 761.387C718.627 753.571 718.052 748.187 716.819 745.234C712.654 735.278 699.467 732.84 690.832 738.834C686.809 741.624 685.231 745.308 686.098 749.887" stroke="#F8F2ED" stroke-width="2"/>
<path d="M686.097 749.887L684.391 784.55" stroke="#B5BFCB" stroke-width="2"/>
<path d="M684.39 784.55C684.566 782.329 683.34 781.794 680.712 782.945C679.48 783.487 678.342 783.765 677.299 783.778C669.822 783.887 661.633 784.408 652.734 785.343C652.027 785.417 651.312 785.341 650.635 785.12C649.959 784.9 649.337 784.539 648.81 784.061C648.283 783.584 647.862 783.001 647.575 782.35C647.289 781.699 647.143 780.995 647.147 780.283L647.756 660.406" stroke="#F8F2ED" stroke-width="2"/>
<path d="M737.726 711.668C736.981 712.332 735.911 712.014 734.516 710.714C731.631 708.032 728.36 698.766 726.49 694.845C722.467 686.433 710.216 674.811 702.373 670.118C689.057 662.153 673.514 658.597 655.742 659.451" stroke="#F8F2ED" stroke-width="2"/>
<path d="M690.222 746.311L686.098 749.887" stroke="#BCCDDE" stroke-width="2"/>
<path d="M654.543 285.208L649.301 293.213C649.246 293.918 648.989 294.446 648.529 294.798C648.088 295.132 647.547 295.308 646.994 295.297C646.441 295.286 645.908 295.089 645.481 294.737C573.412 235.306 440.571 235.022 377.808 311.703C362.772 330.111 361.695 354.636 365.698 377.026C368.156 390.782 377.625 407.93 387.947 417.541C390.073 419.519 392.044 421.639 393.859 423.901C389.836 426.867 386.104 428.777 382.664 429.63C382.232 429.737 381.783 429.737 381.354 429.63C380.925 429.524 380.531 429.315 380.205 429.021C371.062 420.893 363.626 412.299 357.957 401.164C355.6 396.532 353.439 392.021 351.475 387.632C350.5 385.438 349.768 385.54 349.281 387.937C349.105 388.831 349.247 390.206 349.708 392.062C353.934 408.621 364.052 418.821 374.435 431.54C378.458 436.457 372.647 442.248 368.583 444.788C323.395 408.134 323.578 352.868 356.128 308.533C378.614 277.92 409.423 256.668 448.556 244.775C476.338 236.349 502.724 232.841 527.716 234.25C573.717 236.83 621.769 251.602 654.543 285.208Z" fill="white"/>
<path d="M649.301 293.213C665.719 308.127 677.991 332.306 675.065 354.981C671.469 382.695 656.86 406.142 635.322 422.885C607.446 444.585 576.277 455.211 540.517 458.096C502.359 461.164 459.65 457.69 424.337 439.546C414.523 434.486 406.457 431.764 397.395 423.291C397.155 423.071 396.868 422.91 396.558 422.822C396.247 422.734 395.921 422.72 395.607 422.783C394.781 422.959 394.198 423.332 393.86 423.901C392.045 421.638 390.074 419.519 387.947 417.541C377.626 407.93 368.157 390.782 365.699 377.026C361.696 354.636 362.773 330.111 377.808 311.703C440.571 235.022 573.413 235.306 645.481 294.737C645.909 295.089 646.442 295.286 646.995 295.297C647.548 295.308 648.088 295.132 648.529 294.798C648.99 294.446 649.247 293.918 649.301 293.213Z" fill="#FF9486"/>
<path d="M654.544 285.208C668.056 296.566 680.531 313.065 688.333 329.624C696.075 346.041 699.468 368.94 696.928 386.454C693.779 408.113 676.792 431.154 659.989 446.718C637.03 467.991 602.163 482.621 571.625 488.493C513.271 499.688 449.979 493.999 397.03 465.35C386.681 459.742 377.199 452.888 368.584 444.788C372.648 442.248 378.459 436.457 374.436 431.54C364.053 418.821 353.935 408.621 349.709 392.062C349.248 390.206 349.106 388.831 349.282 387.937C349.77 385.54 350.501 385.438 351.476 387.633C353.441 392.021 355.601 396.532 357.958 401.165C363.627 412.299 371.063 420.894 380.207 429.021C380.532 429.315 380.927 429.524 381.355 429.63C381.784 429.737 382.234 429.737 382.665 429.63C386.106 428.777 389.837 426.867 393.86 423.901C394.199 423.332 394.781 422.959 395.608 422.783C395.922 422.72 396.248 422.734 396.558 422.822C396.869 422.91 397.156 423.071 397.396 423.291C406.458 431.764 414.524 434.487 424.338 439.546C459.651 457.69 502.36 461.164 540.518 458.096C576.278 455.211 607.446 444.585 635.323 422.885C656.86 406.143 671.469 382.695 675.066 354.981C677.991 332.306 665.719 308.127 649.302 293.214L654.544 285.208Z" fill="#FE6667"/>
<path d="M631.989 524.882C633.75 522.228 632.585 521.252 628.495 521.957C627.397 522.146 626.158 522.6 624.777 523.318C618.905 526.406 611.305 528.357 606.449 530.206C597.103 533.782 587.188 537.541 577.293 539.247C568.8 540.71 560.754 543.128 552.098 543.535C547.486 543.758 543.828 545.018 539.866 544.876C531.678 544.611 523.388 545.526 515.545 545.079C509.22 544.727 502.887 544.456 496.548 544.266C491.57 544.124 487.364 541.096 482.487 541.117C476.108 541.157 470.689 540.805 466.233 540.06C463.002 539.532 459.955 537.785 456.379 537.256C453.182 536.796 450.744 536.213 449.064 535.509C445.772 534.141 442.461 532.847 439.128 531.628C436.568 530.693 434.597 527.991 431.001 528.763C430.54 528.858 430.181 528.845 429.924 528.723C429.531 528.547 429.22 528.276 428.989 527.91C428.664 527.354 428.19 527.145 427.567 527.28C426.484 527.497 425.705 527.063 425.231 525.98C424.933 525.262 424.391 524.903 423.605 524.903H420.496C420.172 524.903 419.852 524.822 419.565 524.666C419.277 524.51 419.032 524.284 418.851 524.009C417.164 521.449 414.563 521.103 412.41 519.823C408.956 517.751 405.319 517.568 401.926 515.617C396.196 512.346 390.954 511.696 387.5 505.925C387.12 505.316 387.276 504.903 387.967 504.686C389.376 504.225 390.54 504.456 391.462 505.377C391.922 505.837 392.471 506.068 393.107 506.068C393.988 506.068 394.645 506.447 395.078 507.206C395.417 507.815 395.932 508.12 396.622 508.12H398.126C398.627 508.12 399.027 508.323 399.325 508.729C400.016 509.678 400.903 510.158 401.986 510.172C402.623 510.186 403.226 510.321 403.795 510.578C404.377 510.822 404.845 511.14 405.197 511.533C405.657 512.048 406.219 512.258 406.883 512.163C407.845 512.028 408.57 512.36 409.057 513.159C409.236 513.444 409.505 513.662 409.822 513.776C410.139 513.89 410.485 513.895 410.805 513.789C412.186 513.328 413.101 513.572 413.548 514.52C413.873 515.184 414.401 515.57 415.132 515.678C416.771 515.922 418.458 515.834 420.192 515.414C427.615 518.232 432.566 520.006 435.044 520.737C442.86 523.054 453.29 525.682 466.334 528.621C475.925 530.775 485.109 530.023 484.865 517.69C540.293 521.184 588.59 514.845 637.191 490.626C660.841 478.841 679.575 463.42 696.175 443.731C697.218 442.512 697.726 442.702 697.699 444.3C697.557 457.487 694.549 468.357 686.341 479.309C671.529 499.058 653.893 514.337 631.989 524.882Z" fill="#FE6667"/>
<path d="M484.866 517.689C485.109 530.023 475.926 530.774 466.335 528.621C453.291 525.681 442.861 523.053 435.045 520.737C432.566 520.006 427.615 518.231 420.193 515.414L388.984 500.846C383.403 495.306 377.043 491.269 369.905 488.736C368.117 488.106 366.39 488.716 364.602 487.801C364.033 487.503 363.64 487.659 363.423 488.269C363.085 489.257 363.396 490.145 364.358 490.93C368.841 494.655 373.46 498.238 378.215 501.679C381.71 504.212 384.988 507.077 388.049 510.273L388.557 511.472C388.367 513.45 387.175 514.161 384.981 513.606C383.45 513.213 382.401 513.247 381.832 513.707C358.791 499.566 332.418 474.066 333.677 444.828C333.759 442.905 334.429 442.668 335.689 444.117C362.441 474.608 395.621 495.509 435.228 506.819C447.785 510.395 464.331 514.019 484.866 517.689Z" fill="white"/>
<path d="M388.983 500.846C386.802 499.843 384.892 499.39 383.253 499.484C382.92 499.508 382.599 499.621 382.326 499.811C382.052 500.002 381.834 500.263 381.697 500.567C381.559 500.871 381.507 501.207 381.545 501.539C381.582 501.87 381.709 502.186 381.912 502.451L388.048 510.273C384.987 507.077 381.709 504.212 378.214 501.679C373.46 498.238 368.84 494.655 364.357 490.93C363.395 490.145 363.084 489.258 363.422 488.269C363.639 487.659 364.032 487.503 364.601 487.801C366.389 488.716 368.116 488.106 369.904 488.736C377.042 491.269 383.402 495.306 388.983 500.846Z" fill="#F0E4DA"/>
<path d="M388.983 500.846L420.192 515.414C418.458 515.834 416.772 515.922 415.133 515.678C414.401 515.57 413.873 515.184 413.548 514.52C413.101 513.572 412.187 513.328 410.805 513.789C410.485 513.895 410.139 513.89 409.822 513.776C409.506 513.662 409.236 513.444 409.058 513.159C408.57 512.36 407.845 512.028 406.884 512.163C406.22 512.258 405.658 512.048 405.197 511.533C404.845 511.14 404.378 510.822 403.795 510.578C403.226 510.321 402.624 510.186 401.987 510.172C400.903 510.158 400.016 509.678 399.325 508.729C399.027 508.323 398.628 508.12 398.126 508.12H396.623C395.932 508.12 395.417 507.815 395.079 507.206C394.645 506.447 393.988 506.068 393.108 506.068C392.471 506.068 391.923 505.837 391.462 505.377C390.541 504.456 389.376 504.226 387.967 504.686C387.276 504.903 387.121 505.316 387.5 505.926C390.954 511.696 396.196 512.346 401.926 515.617C405.319 517.568 408.956 517.751 412.41 519.823C414.564 521.103 417.165 521.449 418.851 524.009C419.033 524.284 419.278 524.51 419.565 524.666C419.853 524.822 420.173 524.903 420.497 524.903H423.606C424.391 524.903 424.933 525.262 425.231 525.98C425.705 527.063 426.484 527.497 427.568 527.28C428.191 527.145 428.665 527.354 428.99 527.91C429.22 528.276 429.532 528.547 429.925 528.723C430.182 528.845 430.541 528.858 431.002 528.763C434.598 527.991 436.569 530.693 439.129 531.628C442.461 532.847 445.773 534.141 449.064 535.509C450.744 536.213 453.182 536.796 456.379 537.256C459.955 537.785 463.003 539.532 466.233 540.06C470.69 540.805 476.108 541.157 482.488 541.117C487.364 541.096 491.57 544.124 496.548 544.266C502.888 544.456 509.22 544.727 515.546 545.079C523.389 545.526 531.679 544.611 539.867 544.876C543.829 545.018 547.486 543.758 552.098 543.535C560.754 543.128 568.8 540.71 577.293 539.247C587.188 537.541 597.103 533.782 606.45 530.206C611.306 528.357 618.905 526.406 624.777 523.318C626.159 522.6 627.398 522.146 628.495 521.957C632.586 521.252 633.751 522.228 631.99 524.882C612.918 533.511 596.778 539.369 583.571 542.458C536.731 553.43 488.59 552.292 439.149 539.044C439.393 537.974 440.477 537.663 442.4 538.11C443.104 538.272 443.707 538.252 444.208 538.049C444.338 537.996 444.45 537.908 444.532 537.795C444.614 537.682 444.663 537.549 444.674 537.41C444.684 537.27 444.656 537.131 444.591 537.007C444.527 536.883 444.43 536.779 444.31 536.708C441.235 534.852 438.729 533.626 436.792 533.03C426.213 529.725 416.813 525.831 408.59 521.347C401.005 517.189 394.327 513.897 388.557 511.472L388.049 510.274L381.912 502.451C381.71 502.186 381.583 501.871 381.545 501.539C381.507 501.207 381.56 500.872 381.697 500.567C381.835 500.263 382.052 500.002 382.326 499.811C382.6 499.621 382.921 499.508 383.254 499.485C384.893 499.39 386.802 499.844 388.983 500.846Z" fill="#FF9486"/>
<path d="M612.323 559.525C615.533 560.04 614.876 561.408 610.352 563.629C601.466 571.432 591.706 576.863 581.073 579.925C552.871 588.032 518.127 588.032 494.192 587.016C468.577 585.919 443.877 580.676 420.091 571.289C417.924 570.422 414.009 569.082 408.347 567.266C402.374 565.356 394.829 561.232 385.713 554.893C377.423 549.122 369.6 545.953 360.64 542.295C359.949 542.011 359.529 542.234 359.38 542.966C359.082 544.429 359.414 545.675 360.376 546.704C362.611 549.102 364.927 551.432 367.325 553.694C367.975 554.303 369.79 556.518 372.77 560.338C374.585 562.654 377.118 564.896 380.369 567.063C379.353 570.206 375.879 572.935 369.946 575.251C350.054 559.81 331.91 533.741 335.283 507.409C335.329 507.058 335.494 506.734 335.75 506.493C336.006 506.252 336.336 506.109 336.685 506.088C337.579 506.034 338.439 506.467 339.265 507.388C370.108 541.97 420.254 563.345 467.799 570.273C511.104 576.572 553.894 574.242 596.169 563.284C601.384 561.929 606.769 560.677 612.323 559.525Z" fill="white"/>
<path d="M369.945 575.251C375.878 572.935 379.353 570.206 380.369 567.063C377.578 564.544 376.054 562.275 375.797 560.257C375.689 559.403 376.014 559.18 376.772 559.586C377.517 559.992 378.262 560.358 379.007 560.683C382.563 562.227 386.2 566.291 389.106 568.892C391.408 570.964 393.995 572.657 396.867 573.971C403.003 576.755 408.509 579.721 415.072 582.18C436.711 590.307 455.81 597.378 482.001 600.405C504.012 602.938 528.394 602.552 555.147 599.247C570.974 597.297 586.437 591.465 603.931 586.426C625.82 580.101 644.506 568.262 659.989 550.91C660.179 550.701 660.283 550.427 660.279 550.144C660.275 549.861 660.164 549.59 659.969 549.386L659.522 548.899C659.047 548.397 658.546 548.37 658.018 548.817C651.476 554.385 646.823 557.554 644.059 558.326C637.544 560.155 631.083 562.194 624.676 564.442C620.409 565.946 617.463 570.05 611.022 568.323C610.385 568.147 610.141 567.734 610.29 567.083C610.575 565.878 610.595 564.727 610.351 563.629C614.875 561.408 615.533 560.04 612.322 559.525C620.531 556.545 626.166 554.269 629.227 552.698C652.939 540.548 675.187 527.016 694.002 508.12C694.241 507.873 694.548 507.703 694.884 507.632C695.22 507.56 695.57 507.59 695.891 507.718C696.212 507.846 696.489 508.066 696.688 508.351C696.886 508.635 696.998 508.972 697.009 509.319C697.144 513.477 696.989 517.737 696.542 522.099C691.198 574.317 615.715 608.309 571.767 616.274C510.528 627.348 436.894 622.37 383.477 586.67C378.967 583.663 374.456 579.857 369.945 575.251Z" fill="#FE7F2D"/>
<path d="M388.555 511.472C394.326 513.897 401.004 517.189 408.589 521.347C416.811 525.831 426.212 529.725 436.791 533.03C438.728 533.626 441.234 534.852 444.309 536.708C444.429 536.779 444.526 536.883 444.59 537.007C444.655 537.131 444.683 537.27 444.672 537.41C444.662 537.549 444.613 537.682 444.531 537.795C444.448 537.908 444.336 537.996 444.207 538.049C443.706 538.252 443.103 538.272 442.399 538.11C440.475 537.663 439.392 537.974 439.148 539.044C419.128 532.434 400.022 523.988 381.83 513.707C382.399 513.247 383.449 513.213 384.979 513.606C387.174 514.161 388.366 513.45 388.555 511.472Z" fill="#F0E4DA"/>
<path d="M610.351 563.629C610.594 564.727 610.574 565.878 610.29 567.084C610.141 567.734 610.384 568.147 611.021 568.323C617.462 570.05 620.408 565.946 624.675 564.442C631.082 562.194 637.543 560.155 644.059 558.326C646.822 557.554 651.475 554.385 658.017 548.817C658.546 548.37 659.047 548.398 659.521 548.899L659.968 549.386C660.164 549.591 660.274 549.861 660.278 550.144C660.282 550.427 660.178 550.701 659.988 550.91C644.506 568.262 625.82 580.101 603.93 586.427C586.436 591.466 570.974 597.297 555.146 599.247C528.393 602.553 504.011 602.939 482 600.406C455.81 597.378 436.711 590.307 415.072 582.18C408.509 579.722 403.002 576.755 396.866 573.971C393.995 572.658 391.408 570.964 389.105 568.892C386.199 566.291 382.562 562.227 379.007 560.683C378.262 560.358 377.517 559.993 376.772 559.586C376.013 559.18 375.688 559.403 375.796 560.257C376.054 562.275 377.578 564.544 380.368 567.063C377.117 564.896 374.584 562.654 372.769 560.338C369.789 556.518 367.974 554.303 367.324 553.694C364.926 551.432 362.61 549.102 360.375 546.704C359.413 545.675 359.081 544.429 359.379 542.966C359.528 542.234 359.948 542.011 360.639 542.295C369.599 545.953 377.422 549.122 385.712 554.893C394.828 561.232 402.373 565.357 408.346 567.266C414.008 569.082 417.923 570.423 420.09 571.289C443.876 580.676 468.576 585.919 494.191 587.016C518.126 588.032 552.87 588.032 581.072 579.925C591.705 576.863 601.465 571.432 610.351 563.629Z" fill="#FFBE77"/>
<path d="M621.586 634.865C594.508 641.868 566.34 646.589 537.082 649.027C536.564 649.072 536.062 649.229 535.612 649.488C535.162 649.748 534.775 650.103 534.478 650.527C534.181 650.952 533.982 651.437 533.895 651.947C533.807 652.457 533.834 652.979 533.973 653.477C537.245 665.424 526.74 681.475 513.005 676.518C501.112 672.224 496.764 663.968 499.961 651.75C499.999 651.598 500.005 651.439 499.976 651.285C499.947 651.131 499.886 650.985 499.795 650.857C499.704 650.73 499.586 650.623 499.45 650.546C499.313 650.468 499.162 650.422 499.005 650.409C483.55 649.339 468.393 646.704 453.533 642.505C455.308 643.277 454.955 642.18 452.477 639.213C470.519 643.629 488.812 645.668 507.356 645.329C507.517 645.323 507.675 645.364 507.812 645.448C507.948 645.532 508.057 645.654 508.125 645.8C508.192 645.946 508.215 646.108 508.19 646.266C508.165 646.425 508.094 646.572 507.986 646.69C492.179 664.103 518.044 680.622 527.878 666.155C531.725 660.52 531.738 654.269 527.918 647.402C527.818 647.22 527.765 647.015 527.766 646.807C527.767 646.6 527.82 646.395 527.922 646.214C528.024 646.033 528.17 645.881 528.348 645.772C528.525 645.663 528.727 645.602 528.934 645.593C549.347 644.767 569.767 642.207 590.194 637.913C600.502 635.746 610.431 632.454 619.981 628.038C620.807 627.659 621.24 627.923 621.281 628.831L621.586 634.865Z" fill="#C0D5E6"/>
<path d="M452.478 639.213C454.957 642.18 455.309 643.277 453.535 642.505L420.558 634.601C420.355 634.552 420.144 634.55 419.939 634.594C419.735 634.638 419.544 634.729 419.38 634.858C419.215 634.987 419.082 635.151 418.991 635.339C418.899 635.527 418.852 635.733 418.852 635.942L418.77 668.269C418.764 669.075 418.967 669.869 419.358 670.574C419.75 671.279 420.317 671.871 421.005 672.292C436.853 682.031 453.474 689.826 470.866 695.678C480.904 699.051 492.099 701.279 504.452 702.363C502.746 712.292 506.261 718.082 514.998 719.735C526.721 721.929 529.16 712.542 528.753 702.708L545.983 702.688C547.947 703.46 547.961 704.442 546.024 705.634C545.36 706.04 544.595 706.264 543.728 706.304C541.723 706.413 540.138 706.277 538.973 705.898C537.783 705.507 536.485 705.603 535.363 706.166C534.241 706.729 533.384 707.714 532.979 708.905C531.76 712.481 530.988 716.403 528.367 719.288C521.08 727.32 513.061 727.286 504.31 719.186C501.669 716.734 500.307 713.287 500.226 708.844C500.172 706.162 498.804 704.76 496.122 704.638C483.22 704.069 469.464 698.238 457.111 694.56C451.76 692.962 443.809 689.271 433.257 683.487C430.047 681.74 427.162 678.692 423.443 677.087C423.102 676.939 422.729 676.878 422.358 676.91C421.987 676.942 421.63 677.065 421.318 677.268C421.006 677.471 420.75 677.748 420.571 678.075C420.392 678.401 420.297 678.767 420.294 679.139L419.359 789.122C416.068 789.542 414.429 788.411 414.442 785.729C414.754 733.605 414.937 681.604 414.991 629.725C414.991 628.831 415.424 628.506 416.291 628.75L452.478 639.213Z" fill="white"/>
<path d="M304.236 751.249L303.748 747.693C303.748 747.59 303.707 747.492 303.635 747.42C303.562 747.348 303.464 747.307 303.362 747.307C303.259 747.307 303.161 747.348 303.089 747.42C303.016 747.492 302.976 747.59 302.976 747.693C302.813 749.061 302.901 750.416 303.24 751.757C303.47 752.583 303.165 753.111 302.326 753.341C300.808 753.775 300.057 754.926 300.07 756.795C300.084 757.866 299.887 757.906 299.481 756.917C299.291 756.457 299.23 755.99 299.298 755.515C300.091 750.253 300.07 745.6 302.447 741.821C305.82 736.403 310.974 734.574 317.91 736.335C326.139 738.407 330.324 748.526 330.202 756.186C330.053 765.316 330.087 774.357 330.304 783.311C330.312 783.577 330.372 783.839 330.482 784.081C330.592 784.323 330.748 784.542 330.943 784.723C331.138 784.904 331.366 785.045 331.616 785.138C331.865 785.23 332.131 785.272 332.397 785.261L365.841 783.941C366.281 783.925 366.697 783.735 367.001 783.413C367.305 783.09 367.472 782.659 367.466 782.214C366.836 747.612 367.689 712.928 366.409 678.408C365.901 664.489 366.531 650.917 364.337 637.06C364.291 636.764 364.18 636.482 364.014 636.234C363.847 635.985 363.627 635.775 363.371 635.619C363.114 635.462 362.826 635.363 362.526 635.328C362.226 635.292 361.922 635.322 361.635 635.414C355.336 637.507 356.88 647.849 357.226 652.705C357.242 652.934 357.212 653.164 357.137 653.38C357.062 653.597 356.944 653.795 356.789 653.963C356.634 654.131 356.447 654.265 356.239 654.356C356.031 654.447 355.807 654.494 355.58 654.493C309.071 654.473 273.108 695.394 273.169 740.521C273.196 754.08 273.162 768.018 273.067 782.336C273.064 782.765 273.148 783.19 273.313 783.587C273.479 783.983 273.722 784.341 274.03 784.641C274.337 784.941 274.702 785.176 275.102 785.331C275.502 785.486 275.93 785.56 276.359 785.546L304.154 784.652C304.384 787.402 304.222 788.776 303.667 788.776C289.119 788.885 274.415 788.864 259.556 788.715C258.838 788.715 258.465 788.357 258.438 787.639C256.284 741.577 252.424 691.553 289.383 656.443C309.647 637.195 335.946 628.086 368.279 629.115C369.01 629.136 369.705 629.44 370.216 629.963C370.728 630.486 371.017 631.188 371.022 631.919L372.18 787.639C372.18 787.98 372.043 788.308 371.8 788.551C371.557 788.794 371.226 788.934 370.879 788.939L329.247 789.366C326.863 789.379 325.664 788.201 325.651 785.83C325.549 775.305 324.798 764.029 325.976 753.809C328.191 735.055 301.655 733.47 304.236 751.249Z" fill="white"/>
<path d="M748.048 789.203L749.084 787.679C749.23 787.465 749.318 787.217 749.339 786.958C749.359 786.7 749.312 786.44 749.201 786.206C749.09 785.971 748.919 785.77 748.706 785.622C748.493 785.475 748.245 785.385 747.987 785.363C746.266 785.2 744.587 784.72 742.948 783.92C742.325 783.609 741.993 783.108 741.952 782.417C740.977 765.004 741.038 747.794 740.936 730.361C740.909 725.133 739.839 718.902 737.726 711.669C733.012 696.213 725.487 683.812 715.152 674.466C698.383 659.295 678.579 654.29 655.742 659.451L647.757 660.406C647.106 658.739 645.731 659.186 643.632 661.747L644.099 633.545C644.113 632.84 644.472 632.448 645.176 632.366C652.138 631.635 659.033 631.242 665.86 631.188C718.992 630.741 755.972 674.974 756.561 726.277C756.791 746.772 756.886 767.253 756.845 787.72C756.845 788.465 756.473 788.851 755.728 788.878L748.048 789.203Z" fill="#A0BCD5"/>
<path d="M621.587 634.865L622.217 683.71C617.286 686.785 614.028 688.594 612.444 689.135C590.893 696.436 568.739 700.954 545.982 702.688L528.753 702.708C520.693 692.657 512.593 692.542 504.452 702.363C492.098 701.279 480.903 699.051 470.866 695.678C453.473 689.826 436.853 682.031 421.005 672.292C420.317 671.871 419.749 671.279 419.358 670.574C418.966 669.869 418.763 669.075 418.77 668.269L418.851 635.942C418.851 635.733 418.899 635.527 418.99 635.339C419.082 635.151 419.215 634.987 419.379 634.858C419.543 634.729 419.735 634.638 419.939 634.594C420.143 634.55 420.355 634.552 420.558 634.601L453.534 642.505C468.394 646.704 483.551 649.339 499.007 650.409C499.163 650.422 499.314 650.468 499.451 650.546C499.587 650.623 499.705 650.73 499.796 650.857C499.887 650.985 499.949 651.131 499.977 651.285C500.006 651.439 500.001 651.598 499.962 651.75C496.765 663.968 501.113 672.224 513.006 676.518C526.741 681.475 537.246 665.424 533.974 653.477C533.835 652.979 533.809 652.457 533.896 651.947C533.983 651.437 534.182 650.952 534.479 650.528C534.776 650.103 535.163 649.748 535.613 649.489C536.063 649.229 536.565 649.072 537.083 649.027C566.341 646.589 594.509 641.868 621.587 634.865Z" fill="#A0BCD5"/>
<path d="M304.236 751.248L304.154 784.652L276.359 785.546C275.93 785.559 275.503 785.486 275.102 785.331C274.702 785.175 274.337 784.941 274.03 784.641C273.723 784.341 273.479 783.983 273.314 783.586C273.148 783.19 273.065 782.765 273.067 782.335C273.162 768.018 273.196 754.079 273.169 740.52C273.108 695.394 309.072 654.472 355.58 654.493C355.807 654.494 356.031 654.447 356.239 654.356C356.447 654.265 356.635 654.131 356.789 653.963C356.944 653.795 357.062 653.597 357.137 653.38C357.213 653.164 357.243 652.934 357.226 652.705C356.88 647.849 355.336 637.507 361.635 635.414C361.923 635.322 362.227 635.292 362.526 635.328C362.826 635.363 363.114 635.462 363.371 635.619C363.628 635.775 363.847 635.985 364.014 636.234C364.181 636.482 364.291 636.764 364.337 637.06C366.532 650.917 365.902 664.489 366.41 678.407C367.69 712.928 366.836 747.611 367.466 782.214C367.472 782.659 367.305 783.09 367.001 783.412C366.698 783.735 366.281 783.925 365.841 783.941L332.397 785.261C332.131 785.272 331.866 785.23 331.616 785.138C331.367 785.045 331.138 784.904 330.943 784.723C330.749 784.542 330.592 784.323 330.482 784.081C330.373 783.838 330.312 783.577 330.304 783.311C330.087 774.357 330.053 765.315 330.202 756.186C330.324 748.526 326.139 738.407 317.91 736.335C310.975 734.574 305.821 736.403 302.448 741.821C300.071 745.6 300.091 750.253 299.298 755.515C299.231 755.989 299.292 756.457 299.481 756.917C299.888 757.906 300.084 757.865 300.071 756.795C300.057 754.926 300.809 753.775 302.326 753.341C303.166 753.111 303.47 752.583 303.24 751.756C302.902 750.415 302.813 749.061 302.976 747.693C302.976 747.59 303.017 747.492 303.089 747.42C303.162 747.347 303.26 747.307 303.362 747.307C303.464 747.307 303.563 747.347 303.635 747.42C303.707 747.492 303.748 747.59 303.748 747.693L304.236 751.248Z" fill="#F0E4DA"/>
<path d="M393.758 647.158C394.516 648.214 394.896 649.095 394.896 649.799C394.679 695.664 394.706 741.34 394.977 786.826C394.978 787.005 394.941 787.182 394.869 787.346C394.797 787.509 394.692 787.656 394.56 787.777C394.428 787.898 394.272 787.989 394.102 788.046C393.933 788.102 393.753 788.123 393.575 788.106L391.116 787.882C390.155 787.801 389.674 787.273 389.674 786.297L389.938 641.042C389.936 640.771 390.035 640.509 390.215 640.306C390.395 640.104 390.644 639.975 390.913 639.945L391.624 639.884C391.755 639.87 391.886 639.887 392.009 639.933C392.132 639.978 392.244 640.051 392.336 640.147C392.427 640.243 392.497 640.358 392.539 640.485C392.581 640.612 392.595 640.747 392.579 640.88C392.315 643.358 392.214 645.004 393.758 647.158Z" fill="#799ABC"/>
<path d="M737.726 711.668C736.981 712.332 735.911 712.014 734.516 710.713C731.631 708.031 728.36 698.766 726.49 694.845C722.467 686.433 710.216 674.811 702.373 670.117C689.057 662.153 673.514 658.597 655.742 659.45C678.58 654.289 698.383 659.295 715.153 674.466C725.488 683.812 733.013 696.213 737.726 711.668Z" fill="white"/>
<path d="M655.741 659.451C673.513 658.597 689.056 662.153 702.372 670.118C710.215 674.811 722.466 686.433 726.489 694.845C728.359 698.766 731.63 708.032 734.515 710.714C735.91 712.014 736.98 712.332 737.725 711.668C739.838 718.902 740.909 725.133 740.936 730.361C741.037 747.794 740.976 765.004 741.952 782.417C741.992 783.108 742.324 783.609 742.947 783.92C744.586 784.719 746.266 785.2 747.986 785.363C748.245 785.385 748.493 785.474 748.706 785.622C748.919 785.77 749.089 785.971 749.2 786.206C749.311 786.44 749.359 786.7 749.338 786.958C749.318 787.217 749.23 787.465 749.083 787.679L748.047 789.203L719.236 789.183C718.667 779.972 718.437 770.707 718.545 761.387C718.626 753.572 718.051 748.187 716.818 745.234C712.653 735.278 699.466 732.84 690.831 738.834C686.808 741.624 685.23 745.309 686.097 749.887L684.39 784.55C684.566 782.329 683.34 781.794 680.712 782.945C679.48 783.487 678.342 783.765 677.299 783.778C669.822 783.886 661.633 784.408 652.734 785.343C652.027 785.417 651.312 785.341 650.635 785.12C649.959 784.9 649.337 784.539 648.81 784.061C648.283 783.584 647.862 783.001 647.575 782.35C647.289 781.699 647.143 780.995 647.147 780.283L647.756 660.405L655.741 659.451Z" fill="#F0E4DA"/>
<path d="M647.757 660.405L647.147 780.283C647.143 780.994 647.289 781.699 647.576 782.35C647.863 783.001 648.283 783.584 648.811 784.061C649.338 784.539 649.96 784.899 650.636 785.12C651.312 785.341 652.027 785.417 652.735 785.342C661.634 784.408 669.822 783.886 677.299 783.778C678.342 783.764 679.48 783.487 680.713 782.945C683.341 781.793 684.567 782.329 684.39 784.55C684.756 785.336 685.332 785.81 686.118 785.972C686.768 786.121 687.357 785.979 687.885 785.546C689.064 784.543 690.107 784.631 691.014 785.81C691.312 786.799 691.312 787.55 691.014 788.065C690.77 788.471 690.202 788.681 689.308 788.695C674.543 788.83 659.751 788.857 644.932 788.776C644.564 788.771 644.213 788.621 643.954 788.358C643.696 788.096 643.551 787.743 643.551 787.374L643.632 661.746C645.732 659.186 647.106 658.739 647.757 660.405Z" fill="white"/>
<path d="M545.983 702.688C568.739 700.954 590.893 696.436 612.444 689.135C614.029 688.594 617.287 686.785 622.217 683.71L622.055 786.623C622.041 788.356 621.174 789.223 619.454 789.223L507.419 789.325C503.735 786.887 500.511 785.627 497.747 785.546C483.105 785.085 462.366 785.275 435.533 786.115C432.58 786.209 430.541 787.374 429.417 789.609L419.359 789.122L420.294 679.139C420.297 678.767 420.392 678.401 420.571 678.074C420.75 677.748 421.006 677.471 421.318 677.268C421.63 677.064 421.987 676.942 422.358 676.91C422.729 676.878 423.102 676.939 423.443 677.087C427.162 678.692 430.047 681.74 433.257 683.487C443.809 689.271 451.76 692.962 457.111 694.56C469.464 698.238 483.22 704.069 496.122 704.638C498.804 704.76 500.172 706.162 500.226 708.844C500.307 713.287 501.669 716.734 504.31 719.186C513.061 727.286 521.08 727.32 528.367 719.288C530.988 716.402 531.76 712.481 532.979 708.905C533.384 707.713 534.24 706.729 535.363 706.166C536.485 705.603 537.783 705.506 538.973 705.898C540.138 706.277 541.723 706.413 543.728 706.304C544.595 706.264 545.36 706.04 546.024 705.634C547.961 704.442 547.947 703.46 545.983 702.688Z" fill="#F0E4DA"/>
<path d="M528.752 702.708C529.159 712.542 526.72 721.929 514.997 719.735C506.26 718.082 502.745 712.292 504.452 702.363C512.592 692.542 520.693 692.657 528.752 702.708Z" fill="#01020A"/>
<path d="M719.237 789.182C717.449 789.48 716.074 789.433 715.112 789.04C714.218 788.675 713.731 787.625 713.649 785.891C713.189 775.325 713.311 764.767 714.015 754.215C714.272 750.449 713.683 747.557 712.247 745.539C710.283 742.775 707.581 741.028 704.14 740.297C697.544 738.902 692.904 740.906 690.222 746.311L686.098 749.887C685.231 745.308 686.809 741.624 690.832 738.834C699.467 732.84 712.654 735.278 716.819 745.234C718.052 748.187 718.627 753.571 718.546 761.387C718.438 770.706 718.668 779.972 719.237 789.182Z" fill="white"/>
<path d="M690.222 746.311C691.617 759.626 691.881 772.792 691.014 785.81C690.107 784.631 689.064 784.543 687.885 785.546C687.357 785.979 686.768 786.121 686.118 785.972C685.332 785.81 684.756 785.336 684.391 784.55L686.097 749.887L690.222 746.311Z" fill="#799ABC"/>
<path d="M507.419 789.325L429.417 789.609C430.541 787.374 432.58 786.209 435.533 786.115C462.367 785.275 483.105 785.085 497.747 785.546C500.511 785.627 503.735 786.887 507.419 789.325Z" fill="white"/>
<path d="M401.987 337.913C398.33 345.736 391.015 350.165 383.172 345.147C372.221 338.117 377.463 321.069 390.121 319.017C391.787 318.753 393.88 319.119 395.749 318.956C396.427 318.902 396.887 318.55 397.131 317.9C397.646 316.491 398.052 315.13 398.35 313.816C400.91 302.438 410.44 299.634 420.071 304.632C428.198 308.858 430.121 316.295 425.841 326.941C421.615 337.426 413.244 337.385 403.653 336.897C402.868 336.857 402.312 337.195 401.987 337.913Z" fill="white"/>
<path d="M531.894 745.992C533.53 749.469 533.718 753.453 532.417 757.068C531.115 760.683 528.431 763.633 524.955 765.269L522.601 766.376C519.125 768.012 515.141 768.2 511.526 766.898C507.911 765.597 504.961 762.913 503.325 759.436L501.716 756.017C500.08 752.54 499.892 748.556 501.193 744.941C502.495 741.326 505.179 738.376 508.656 736.74L511.009 735.633C514.485 733.997 518.469 733.809 522.084 735.111C525.699 736.412 528.649 739.096 530.285 742.573L531.894 745.992Z" fill="white"/>
<path d="M529.825 752.84C529.411 756.068 527.656 758.99 524.945 760.963C522.233 762.936 518.788 763.798 515.367 763.36C511.946 762.922 508.83 761.219 506.704 758.627C504.577 756.034 503.615 752.764 504.029 749.535C504.442 746.307 506.198 743.385 508.909 741.412C511.62 739.439 515.065 738.577 518.486 739.015C521.907 739.453 525.023 741.156 527.15 743.749C529.276 746.341 530.239 749.611 529.825 752.84Z" fill="#01020A"/>
</svg>
