<svg width="1024" height="1024" viewBox="0 0 1024 1024" fill="none" xmlns="http://www.w3.org/2000/svg">
<rect width="1024" height="1024" fill="white"/>
<path d="M750.48 249.691C750.275 249.86 750.021 249.975 749.718 250.035C745.388 250.991 741.735 249.981 738.759 247.005C738.36 246.606 738.16 246.128 738.16 245.572L738.324 218.355C738.332 216.721 738.974 215.153 740.114 213.982C741.255 212.811 742.805 212.128 744.438 212.077L746.416 212.004C747.43 211.97 748.44 212.141 749.387 212.506C750.333 212.871 751.197 213.423 751.925 214.129C752.653 214.836 753.232 215.682 753.626 216.617C754.02 217.551 754.221 218.556 754.218 219.571L754.146 246.552C754.146 247.132 753.885 247.568 753.365 247.858C752.797 248.16 752.234 248.457 751.678 248.747C751.678 248.747 751.279 249.061 750.48 249.691Z" fill="#010101"/>
<path d="M712.286 659.341C719.266 668.885 726.578 678.169 734.223 687.193C762.686 720.784 786.056 748.691 804.334 770.912C810.013 777.807 812.154 783.903 811.102 793.157C809.632 805.858 796.749 814.169 784.447 811.501C771.783 808.743 763.019 801.032 753.402 792.758C751.89 791.464 750.602 789.988 749.537 788.331C749.211 787.823 748.745 787.508 748.14 787.387C744.777 786.722 741.402 786.389 738.015 786.389C727.201 786.401 716.393 786.395 705.591 786.371C689.297 786.335 688.354 767.229 704.013 766.63C713.036 766.291 721.976 766.46 730.83 767.138C730.958 767.151 731.087 767.126 731.201 767.068C731.316 767.01 731.411 766.92 731.476 766.809C731.541 766.699 731.573 766.572 731.567 766.443C731.562 766.315 731.521 766.191 731.447 766.086L703.867 725.823C703.444 725.194 702.863 724.94 702.125 725.061C701.037 725.242 700.015 725.629 699.059 726.222C698.539 726.536 697.97 726.694 697.353 726.694L688.082 726.585C687.549 726.585 687.162 726.821 686.92 727.292C683.074 734.804 679.094 742.225 674.981 749.556C672.078 754.691 670.59 760.279 668.268 765.831C668.05 766.352 668.219 766.678 668.776 766.811C673.493 767.912 675.653 771.408 675.253 777.299C674.8 784.339 671.86 786.317 664.893 786.335C521.442 787.006 377.972 786.371 234.503 786.788C224.143 786.825 211.333 788.059 206.923 781.563C205.641 779.688 205 776.99 205 773.47C205.012 762.874 205.012 752.271 205 741.663C204.982 733.335 207.431 728.163 216.359 728.2C229.822 728.26 243.188 728.103 256.458 727.728C256.789 727.718 257.102 727.58 257.333 727.343C257.563 727.106 257.692 726.788 257.692 726.458L257.746 712.468C257.746 711.815 257.498 711.283 257.003 710.872C242.027 698.255 226.35 686.521 209.972 675.671C206.016 673.046 204.8 669.889 206.325 666.2C207.147 664.204 209.137 662.135 212.294 659.994C240.769 640.749 259.331 628.404 267.98 622.961C272.504 620.118 275.843 617.741 277.996 615.83C278.54 615.346 278.558 614.838 278.05 614.306C275.57 611.693 273.073 609.141 270.556 606.649C268.434 604.544 264.496 598.157 260.359 598.175C252.001 598.2 243.648 598.067 235.302 597.776C226.901 597.486 221.294 595.218 220.967 586.146C220.95 585.629 221.045 585.115 221.245 584.642C221.446 584.168 221.748 583.747 222.129 583.406C243.866 563.864 268.016 546.935 292.421 530.877C293.05 530.466 293.116 529.976 292.62 529.408C290.77 527.248 287.667 525.506 286.052 523.982C279.072 517.293 271.984 510.731 264.787 504.295C256.912 497.255 254.245 493.009 264.877 486.604C282.344 476.117 299.503 465.466 316.353 454.652C316.958 454.265 316.995 453.823 316.462 453.327C305.66 443.203 294.834 433.538 283.984 424.332C279.484 420.522 280.355 415.931 284.891 412.52C299.08 401.851 314.448 393.033 328.438 382.237C329.647 381.305 329.708 380.307 328.619 379.243C319.305 370.134 309.815 361.492 300.15 353.314C294.689 348.706 294.29 344.823 300.314 340.504C312.071 332.073 323.835 323.926 335.605 316.063C335.739 315.976 335.851 315.86 335.933 315.723C336.016 315.586 336.066 315.432 336.08 315.273C336.094 315.114 336.071 314.954 336.014 314.805C335.957 314.656 335.867 314.521 335.75 314.412L311.799 292.33C311.216 291.791 310.758 291.13 310.457 290.395C310.156 289.659 310.02 288.867 310.058 288.073C310.096 287.279 310.307 286.504 310.677 285.8C311.047 285.097 311.566 284.483 312.198 284.002L342.645 260.795C343.685 260.009 344.097 258.975 343.879 257.692L342.064 247.06C341.968 246.467 342.07 245.91 342.373 245.39C345.929 239.439 350.998 235.459 357.578 233.451C357.775 233.39 357.945 233.265 358.06 233.097C358.175 232.928 358.229 232.727 358.213 232.526L357.759 224.833C357.736 224.412 357.871 223.992 358.14 223.653C361.497 219.444 363.021 215.924 369.499 217.738C370.047 217.89 370.514 218.24 370.805 218.718C371.616 219.988 372.674 220.968 373.981 221.657C374.743 222.069 375.148 222.704 375.196 223.562L375.723 231.8C375.759 232.405 376.037 232.858 376.557 233.161C388.297 240.001 393.795 243.667 390.801 259.017C390.704 259.561 390.855 260.021 391.254 260.396C395.706 264.497 400.435 268.24 405.443 271.627C411.443 275.68 417.383 279.659 423.261 283.567C423.777 283.91 424.206 284.367 424.516 284.903C424.826 285.439 425.008 286.039 425.048 286.657C425.089 287.275 424.986 287.893 424.749 288.465C424.511 289.037 424.145 289.546 423.679 289.953L397.151 313.033C397.066 313.109 396.998 313.203 396.953 313.308C396.907 313.413 396.886 313.526 396.889 313.641C396.893 313.755 396.921 313.867 396.973 313.969C397.024 314.071 397.098 314.16 397.188 314.231C399.8 316.227 402.444 318.241 405.117 320.273C415.677 328.275 430.029 333.9 439.047 343.407C439.426 343.807 439.72 344.278 439.914 344.793C440.107 345.308 440.195 345.856 440.174 346.406C440.152 346.955 440.02 347.495 439.786 347.993C439.552 348.491 439.22 348.937 438.811 349.304L404.191 380.386C404.011 380.543 403.871 380.742 403.784 380.965C403.696 381.188 403.664 381.429 403.689 381.668C403.713 381.908 403.795 382.139 403.927 382.342C404.058 382.545 404.236 382.714 404.445 382.836C418.798 391.055 432.388 401.579 445.652 411.468C450.26 414.897 453.164 418.417 447.738 423.298C436.065 433.773 424.538 444.122 413.155 454.343C412.465 454.96 412.502 455.529 413.264 456.049C428.094 466.355 443.208 475.778 458.607 484.318C462.145 486.278 472.215 493.463 467.026 498.58C462.841 502.693 458.643 506.787 454.434 510.864C450.315 514.837 444.182 518.593 439.827 523.692C437.831 526.033 435.055 527.085 433.205 529.244C432.991 529.497 432.834 529.793 432.744 530.112C432.655 530.431 432.635 530.765 432.687 531.093C432.739 531.42 432.86 531.732 433.044 532.008C433.227 532.284 433.467 532.517 433.749 532.692C457.131 547.268 479.292 562.769 500.231 579.196C503.279 581.591 506.491 583.751 506.182 587.996C505.638 595.309 500.158 597.686 493.245 597.849C485.152 598.03 477.03 598.127 468.877 598.139C468.591 598.14 468.308 598.199 468.046 598.315C467.784 598.43 467.548 598.599 467.353 598.811L458.28 608.572C458.039 608.83 457.858 609.138 457.751 609.475C457.644 609.811 457.614 610.168 457.662 610.519C457.711 610.87 457.837 611.206 458.032 611.504C458.227 611.801 458.485 612.052 458.788 612.238C485.098 628.108 510.615 644.517 535.34 661.464C536.732 662.407 537.802 664.542 538.552 667.869C539.75 673.185 532.601 677.322 529.081 679.881C508.668 694.741 494.624 704.104 483.81 713.666C483.587 713.861 483.406 714.1 483.278 714.368C483.15 714.636 483.078 714.928 483.066 715.226L482.667 727.311C482.662 727.44 482.683 727.569 482.729 727.69C482.775 727.811 482.845 727.921 482.935 728.014C483.025 728.107 483.133 728.181 483.252 728.232C483.371 728.283 483.499 728.309 483.628 728.308C499.874 728.393 515.914 728.339 531.748 728.145C538.262 728.054 542.036 729.579 545.32 734.931C545.522 735.263 545.628 735.64 545.628 736.02L545.955 766.412C545.96 766.582 546.031 766.744 546.153 766.862C546.275 766.981 546.438 767.047 546.608 767.047L607.792 766.993C608.554 766.993 609.122 766.66 609.497 765.995L638.565 714.754C638.973 714.033 639.124 713.195 638.992 712.377C638.86 711.559 638.453 710.811 637.839 710.255C632.849 705.791 630.11 699.422 626.481 693.924C626.166 693.453 626.021 692.939 626.045 692.382L626.118 691.021C626.166 690.308 625.84 689.872 625.138 689.715C587.633 681.568 560.652 658.869 547.624 622.671C547.201 621.497 546.784 619.598 546.372 616.973C545.955 614.27 544.83 611.675 544.449 609.316C542.018 594.244 543.288 579.511 548.259 565.116C551.616 555.372 550.473 547.842 541.8 541.619C529.123 532.51 516.458 523.396 503.805 514.275C502.075 513.029 500.479 511.608 499.015 510.011C498.517 509.469 498.185 508.796 498.056 508.073C497.928 507.349 498.008 506.606 498.289 505.928C501.338 498.562 510.247 497.437 517.014 494.407C517.099 494.369 517.173 494.314 517.233 494.244C517.293 494.174 517.336 494.092 517.359 494.004C517.381 493.917 517.384 493.825 517.365 493.738C517.346 493.65 517.307 493.569 517.25 493.499C514.311 489.743 511.263 486.278 509.412 482.032C504.295 470.286 505.638 459.66 513.44 450.152C520.371 441.709 528.306 441.249 537.246 448.773C548.078 457.863 569.724 472.796 583.859 469.022C587.851 467.952 590.845 468.297 594.691 468.043C629.837 465.72 658.778 489.925 664.548 524.182C664.56 524.267 664.911 525.742 665.6 528.609C666.562 532.547 664.258 536.938 669.247 539.042C710.762 556.57 743.078 583.025 774.105 615.104C784.907 626.269 792.619 635.499 797.239 642.793C800.772 648.382 800.016 653.492 794.971 658.125C794.113 658.924 792.818 659.196 791.088 658.942C789.105 658.651 787.841 658.5 787.296 658.488C762.45 658.307 737.598 658.276 712.74 658.397C711.978 658.409 711.827 658.724 712.286 659.341ZM400.617 360.899L336.603 361.225C336.535 361.225 336.471 361.252 336.423 361.3C336.376 361.347 336.349 361.412 336.349 361.479C336.352 361.999 336.521 362.513 336.846 362.992C337.17 363.47 337.645 363.904 338.241 364.268C338.838 364.632 339.545 364.919 340.322 365.113C341.1 365.307 341.932 365.404 342.772 365.399L394.52 365.145C396.212 365.133 397.831 364.706 399.022 363.958C400.213 363.21 400.878 362.201 400.871 361.153C400.871 361.119 400.864 361.086 400.852 361.056C400.839 361.025 400.82 360.997 400.797 360.973C400.773 360.95 400.745 360.931 400.714 360.918C400.683 360.905 400.65 360.899 400.617 360.899Z" fill="#010101"/>
<path d="M606.112 235.046C606.1 236.09 605.672 237.086 604.925 237.815C604.178 238.545 603.171 238.947 602.127 238.934L592.511 238.817C591.467 238.804 590.471 238.377 589.742 237.63C589.012 236.882 588.61 235.876 588.622 234.832L588.75 224.345C588.763 223.301 589.19 222.304 589.938 221.575C590.685 220.846 591.691 220.443 592.736 220.456L602.352 220.574C603.396 220.586 604.392 221.013 605.121 221.761C605.851 222.508 606.253 223.515 606.24 224.559L606.112 235.046Z" fill="#C06701"/>
<path d="M707.223 247.815C707.605 248.38 707.872 249.013 708.009 249.681C708.146 250.349 708.15 251.037 708.021 251.706C707.893 252.375 707.633 253.012 707.258 253.581C706.883 254.15 706.399 254.64 705.835 255.022L700.817 258.419C700.252 258.801 699.618 259.068 698.951 259.206C698.283 259.343 697.595 259.347 696.926 259.218C696.257 259.089 695.62 258.83 695.051 258.455C694.482 258.079 693.992 257.596 693.61 257.032L679.247 235.817C678.865 235.252 678.598 234.618 678.461 233.951C678.323 233.283 678.319 232.595 678.448 231.926C678.577 231.257 678.836 230.619 679.211 230.05C679.586 229.482 680.07 228.992 680.634 228.61L685.653 225.212C686.217 224.83 686.851 224.563 687.519 224.426C688.186 224.289 688.874 224.285 689.543 224.414C690.212 224.543 690.85 224.802 691.419 225.177C691.988 225.552 692.477 226.036 692.859 226.6L707.223 247.815Z" fill="#010101"/>
<path d="M446.771 255.761C446.768 256.4 446.639 257.031 446.391 257.62C446.144 258.209 445.783 258.743 445.329 259.192C444.875 259.641 444.337 259.997 443.746 260.238C443.155 260.479 442.522 260.602 441.883 260.598L433.754 260.556C432.465 260.549 431.23 260.03 430.323 259.114C429.416 258.197 428.91 256.957 428.917 255.668L428.962 247.031C428.966 246.392 429.095 245.761 429.342 245.172C429.59 244.583 429.951 244.049 430.404 243.6C430.858 243.151 431.396 242.795 431.988 242.554C432.579 242.313 433.212 242.19 433.85 242.194L441.979 242.236C443.269 242.243 444.503 242.762 445.41 243.679C446.317 244.595 446.823 245.835 446.816 247.124L446.771 255.761Z" fill="#AF4F02"/>
<path d="M292.853 256.398C292.856 256.96 292.75 257.518 292.538 258.039C292.326 258.56 292.014 259.034 291.62 259.435C291.225 259.835 290.755 260.154 290.237 260.373C289.719 260.591 289.163 260.706 288.6 260.71L279.819 260.771C279.256 260.775 278.699 260.668 278.178 260.457C277.657 260.245 277.182 259.933 276.782 259.538C276.382 259.143 276.063 258.674 275.844 258.156C275.625 257.638 275.511 257.081 275.507 256.519L275.44 246.903C275.436 246.34 275.543 245.783 275.754 245.262C275.966 244.741 276.278 244.267 276.673 243.866C277.067 243.466 277.537 243.147 278.055 242.928C278.573 242.709 279.129 242.595 279.692 242.591L288.474 242.53C289.036 242.526 289.593 242.632 290.114 242.844C290.635 243.056 291.11 243.368 291.51 243.763C291.911 244.157 292.229 244.627 292.448 245.145C292.667 245.663 292.782 246.219 292.785 246.782L292.853 256.398Z" fill="#8A3500"/>
<path d="M793.72 270.43C788.912 274.622 775.231 262.32 784.466 256.622C787.756 254.59 791.228 252.437 794.881 250.163C795.274 249.918 795.715 249.761 796.172 249.701C796.629 249.642 797.092 249.682 797.53 249.818C803.155 251.632 805.224 255.521 803.736 261.485C803.603 261.993 803.337 262.404 802.938 262.719C799.792 265.235 796.72 267.805 793.72 270.43Z" fill="#010101"/>
<path d="M556.222 288.863C558.758 297.948 557.534 307.681 552.819 315.922C548.103 324.163 540.283 330.237 531.078 332.807C521.873 335.377 512.037 334.233 503.734 329.627C495.432 325.02 489.343 317.329 486.806 308.244C484.27 299.16 485.494 289.426 490.209 281.185C494.925 272.944 502.745 266.871 511.95 264.3C521.155 261.73 530.991 262.874 539.294 267.481C547.596 272.087 553.685 279.779 556.222 288.863Z" fill="#010101"/>
<path d="M689.297 302.745C691.492 290.352 699.458 278.903 710.054 272.135C720.487 265.44 731.374 261.466 741.735 263.39C743.622 263.752 745.309 263.281 747.015 263.553C778.459 268.416 800.197 300.804 789.564 331.758C788.312 335.351 787.35 339.288 785.572 342.409C780.111 352.117 769.931 361.842 758.845 364.763C757.176 365.199 756.069 366.269 754.309 366.705C723.59 374.398 692.636 354.149 688.081 322.414C687.011 315.047 688.19 308.969 689.297 302.745Z" fill="#010101"/>
<path d="M654.714 277.942C663.096 280.531 669.247 282.593 673.167 284.129C681.676 287.468 676.741 295.016 672.223 298.826C671.94 299.064 671.606 299.233 671.248 299.321C670.889 299.409 670.515 299.414 670.155 299.334C661.506 297.399 653.202 294.901 645.242 291.841C637.73 288.956 632.323 283.785 639.853 276.309C642.992 273.188 651.139 276.835 654.714 277.942Z" fill="#010101"/>
<path d="M251.722 329.944L251.74 336.44C251.74 337.045 251.547 337.589 251.16 338.073C248.196 341.75 244.882 342.591 241.217 340.595C238.253 338.986 237.061 335.563 237.642 330.325C237.775 329.164 237.267 328.505 236.118 328.347L226.701 327.077C226.011 326.98 225.503 326.618 225.177 325.989C223.423 322.638 223.507 319.456 225.431 316.444C225.77 315.9 226.229 315.489 226.81 315.211C229.894 313.723 233.118 313.057 236.481 313.215C236.691 313.225 236.901 313.191 237.097 313.116C237.293 313.04 237.471 312.924 237.62 312.775C237.769 312.627 237.885 312.449 237.96 312.252C238.036 312.056 238.07 311.846 238.059 311.636L237.642 302.401C237.618 301.772 237.836 301.245 238.295 300.822C241.803 297.653 245.535 297.235 249.491 299.57C253.537 301.947 251.305 307.826 251.849 311.781C251.892 312.046 252.026 312.287 252.228 312.463C252.431 312.639 252.688 312.738 252.956 312.743C256.766 312.815 261.158 312.235 263.988 315.102C266.347 317.485 266.909 320.188 265.675 323.212C264.151 326.938 260.341 328.438 254.244 327.712C252.563 327.507 251.722 328.251 251.722 329.944Z" fill="#010101"/>
<path d="M654.932 351.482C650.051 353.133 645.86 356.671 640.489 353.242C634.265 349.286 636.588 340.903 643.065 338.69C647.456 337.19 651.793 335.617 656.075 333.972C658.742 332.938 661.791 332.774 664.621 331.595C666.835 330.688 668.631 330.851 670.808 330.053C671.486 329.799 672.085 329.92 672.605 330.416C675.254 332.932 677.014 335.98 677.885 339.561C678.018 340.093 677.939 340.595 677.649 341.067C675.617 344.478 673.784 346.365 672.151 346.728C666.321 347.998 660.581 349.582 654.932 351.482Z" fill="#010101"/>
<path d="M817.871 343.311C817.609 344.214 817.171 345.058 816.582 345.792C815.994 346.527 815.266 347.138 814.442 347.592C813.617 348.045 812.711 348.332 811.775 348.435C810.84 348.538 809.893 348.456 808.989 348.194L806.515 347.475C805.611 347.212 804.768 346.774 804.034 346.186C803.299 345.597 802.688 344.87 802.234 344.045C801.781 343.22 801.494 342.314 801.391 341.379C801.288 340.443 801.37 339.496 801.632 338.593L802.483 335.665C802.745 334.762 803.183 333.918 803.772 333.184C804.36 332.449 805.088 331.838 805.912 331.384C806.737 330.931 807.643 330.644 808.579 330.541C809.514 330.438 810.461 330.52 811.365 330.782L813.839 331.501C814.743 331.764 815.586 332.202 816.321 332.79C817.055 333.379 817.667 334.106 818.12 334.931C818.573 335.756 818.86 336.662 818.963 337.597C819.066 338.533 818.984 339.48 818.722 340.383L817.871 343.311Z" fill="#010101"/>
<path d="M790.598 392.779C786.424 386.924 782.928 382.503 780.11 379.515C774.775 373.872 783.285 366.651 788.457 365.871C789.183 365.76 789.925 365.845 790.607 366.116C791.289 366.387 791.887 366.834 792.339 367.413L802.736 380.767C805.833 384.747 805.627 388.545 802.119 392.162L800.777 393.559C797.075 397.358 793.682 397.097 790.598 392.779Z" fill="#010101"/>
<path d="M707.569 381.366L693.071 399.946C692.197 401.067 690.915 401.797 689.504 401.978C688.094 402.158 686.669 401.773 685.541 400.908L681.64 397.914C680.544 397.073 679.813 395.844 679.597 394.48C679.381 393.116 679.696 391.721 680.479 390.583L694.178 370.697C694.615 370.062 695.182 369.529 695.842 369.132C696.502 368.735 697.24 368.484 698.005 368.397C698.77 368.309 699.545 368.386 700.278 368.624C701.011 368.861 701.684 369.252 702.253 369.771L706.952 374.072C707.954 374.987 708.575 376.246 708.689 377.598C708.803 378.95 708.403 380.296 707.569 381.366Z" fill="#010101"/>
<path d="M499.752 388.721C499.754 389.217 499.659 389.708 499.472 390.167C499.285 390.626 499.009 391.043 498.66 391.396C498.312 391.748 497.897 392.028 497.44 392.22C496.983 392.412 496.493 392.512 495.997 392.515L485.365 392.571C484.869 392.573 484.378 392.478 483.919 392.291C483.46 392.104 483.043 391.828 482.69 391.479C482.338 391.131 482.058 390.716 481.866 390.259C481.674 389.802 481.574 389.312 481.571 388.816L481.513 377.712C481.51 377.216 481.605 376.725 481.792 376.266C481.98 375.807 482.256 375.39 482.604 375.038C482.953 374.685 483.367 374.405 483.824 374.213C484.281 374.021 484.772 373.921 485.267 373.918L495.9 373.862C496.395 373.86 496.887 373.955 497.345 374.142C497.804 374.329 498.222 374.605 498.574 374.954C498.926 375.302 499.207 375.717 499.399 376.174C499.591 376.631 499.691 377.121 499.693 377.617L499.752 388.721Z" fill="#AF4F02"/>
<path d="M596.536 396.447C596.537 397.193 596.242 397.909 595.715 398.437C595.189 398.966 594.474 399.263 593.728 399.265L582.37 399.284C582 399.285 581.635 399.213 581.293 399.072C580.952 398.932 580.641 398.725 580.38 398.464C580.118 398.204 579.91 397.894 579.768 397.553C579.626 397.212 579.553 396.846 579.552 396.477L579.529 383.268C579.528 382.522 579.823 381.806 580.349 381.278C580.876 380.749 581.591 380.452 582.337 380.45L593.695 380.43C594.064 380.43 594.43 380.502 594.772 380.643C595.113 380.783 595.424 380.99 595.685 381.251C595.947 381.511 596.155 381.821 596.297 382.162C596.438 382.503 596.512 382.869 596.512 383.238L596.536 396.447Z" fill="#C06701"/>
<path d="M754.364 415.133C754.364 417.092 753.586 418.97 752.201 420.355C750.816 421.74 748.938 422.518 746.979 422.518H745.891C743.932 422.518 742.054 421.74 740.669 420.355C739.284 418.97 738.506 417.092 738.506 415.133V389.077C738.506 387.119 739.284 385.241 740.669 383.856C742.054 382.471 743.932 381.693 745.891 381.693H746.979C748.938 381.693 750.816 382.471 752.201 383.856C753.586 385.241 754.364 387.119 754.364 389.077V415.133Z" fill="#010101"/>
<path d="M253.008 436.166C252.995 437.393 252.495 438.565 251.618 439.424C250.742 440.282 249.56 440.757 248.333 440.744L239.479 440.652C238.252 440.639 237.08 440.139 236.222 439.262C235.363 438.386 234.888 437.204 234.901 435.977L235.013 425.199C235.026 423.972 235.526 422.801 236.403 421.942C237.28 421.084 238.461 420.609 239.689 420.621L248.543 420.714C249.77 420.727 250.941 421.227 251.8 422.103C252.658 422.98 253.134 424.162 253.121 425.389L253.008 436.166Z" fill="#AF4F02"/>
<path d="M706.328 458.395C706.323 461.408 705.121 464.294 702.987 466.421C700.853 468.547 697.962 469.739 694.95 469.734L690.704 469.726C689.212 469.724 687.736 469.427 686.359 468.854C684.982 468.281 683.731 467.442 682.678 466.385C681.625 465.329 680.791 464.075 680.222 462.696C679.654 461.317 679.363 459.84 679.365 458.348L679.378 451.126C679.383 448.114 680.585 445.227 682.719 443.101C684.853 440.974 687.744 439.783 690.756 439.788L695.002 439.795C696.494 439.798 697.97 440.094 699.347 440.668C700.724 441.241 701.975 442.08 703.028 443.136C704.081 444.193 704.915 445.446 705.484 446.825C706.052 448.204 706.343 449.682 706.341 451.174L706.328 458.395Z" fill="#8A3500"/>
<path d="M777.444 520.117C776.936 524.817 779.131 529.607 774.305 532.764C770.083 535.51 766.618 534.833 763.908 530.732C763.581 530.224 763.418 529.668 763.418 529.063L763.4 520.48C763.4 519.718 763.019 519.301 762.257 519.228C757.703 518.865 749.701 518.684 749.356 512.043C748.993 505.094 756.741 502.717 762.166 503.388C762.377 503.414 762.591 503.394 762.794 503.331C762.997 503.268 763.184 503.163 763.344 503.023C763.503 502.882 763.631 502.71 763.719 502.516C763.807 502.323 763.853 502.113 763.854 501.9L763.835 494.407C763.835 493.741 764.011 493.13 764.362 492.574C767.029 488.201 772.508 487.566 775.575 491.467C777.77 494.243 776.936 498.743 777.008 502.318C777.013 502.57 777.116 502.809 777.296 502.986C777.476 503.162 777.718 503.261 777.97 503.261C784.974 503.297 792.613 503.914 790.962 513.44C790.526 515.926 788.948 516.888 787.061 518.303C786.565 518.666 786.014 518.865 785.409 518.902L778.351 519.265C777.795 519.301 777.492 519.585 777.444 520.117Z" fill="#010101"/>
<path d="M375.233 252.558L358.631 252.594" stroke="#CD7802" stroke-width="2"/>
<path d="M381.329 325.118C380.023 326.594 379.956 327.573 381.13 328.057" stroke="#F6EBD8" stroke-width="2"/>
<path d="M381.13 328.057C373.932 328.142 366.759 328.305 359.61 328.547C354.615 328.716 350.284 329.581 346.619 331.142C341.526 333.319 336.712 336.053 332.176 339.343" stroke="#8F7C5F" stroke-width="2"/>
<path d="M383.924 329.509C383.065 328.807 382.134 328.323 381.13 328.057" stroke="#959185" stroke-width="2"/>
<path d="M351.953 392.18L319.184 411.976" stroke="#8F7C5F" stroke-width="2"/>
<path d="M356.018 392.398C355.837 392.531 355.565 392.646 355.202 392.742C354.161 393.033 354.155 393.184 355.184 393.196L382.981 393.704" stroke="#83603A" stroke-width="2"/>
<path d="M421.465 413.627C417.546 413.155 415.102 412.665 414.135 412.157C403.2 406.387 392.815 400.236 382.98 393.704" stroke="#959185" stroke-width="2"/>
<path d="M382.981 393.704L382.31 392.216" stroke="#EACFB3" stroke-width="2"/>
<path d="M409.018 435.183C400.817 434.566 392.694 434.281 384.65 434.33C364.34 434.475 343.565 434.505 322.323 434.421" stroke="#904702" stroke-width="2"/>
<path d="M558.947 487.893C547.624 482.655 536.725 476.474 526.25 469.349" stroke="#FDB294" stroke-width="2"/>
<path d="M398.73 469.385C396.855 469.833 398.131 471.563 402.559 474.575" stroke="#A59C8E" stroke-width="2"/>
<path d="M402.558 474.574C381.014 474.054 359.967 473.891 339.415 474.085C336.639 474.103 333.246 473.359 329.817 473.885C327.204 474.284 325.643 476.298 322.649 476.353" stroke="#3E2E15" stroke-width="2"/>
<path d="M322.649 476.353C326.544 473.861 330.337 471.406 334.026 468.986C334.715 468.539 334.83 468.055 334.371 467.535" stroke="#936C42" stroke-width="2"/>
<path d="M416.53 484.282L402.559 474.574" stroke="#959185" stroke-width="2"/>
<path d="M322.65 476.353L310.13 484.427" stroke="#83603A" stroke-width="2"/>
<path d="M580.267 588.305C577.962 603.637 579.613 616.501 579.523 631.071C579.486 633.902 581.065 638.039 579.378 640.743" stroke="#F2DFC2" stroke-width="2"/>
<path d="M376.558 518.684L419.216 517.976C419.567 517.971 419.911 517.864 420.207 517.668C420.502 517.472 420.737 517.195 420.885 516.869L421.157 516.253C421.436 515.624 421.236 515.309 420.558 515.309C381.62 515.309 342.585 515.297 303.453 515.273C302.643 515.273 302.528 516.367 303.109 518.557" stroke="#C37A1A" stroke-width="2"/>
<path d="M760.207 635.68C754.352 631.568 748.667 627.261 743.151 622.761C742.28 622.06 741.403 621.34 740.52 620.602C737.925 618.497 733.389 617.772 730.214 616.375" stroke="#9C919F" stroke-width="2"/>
<path d="M730.214 616.374C728.327 611.203 730.994 609.933 733.262 606.83C734.81 604.713 734.526 604.429 732.409 605.978C731.248 606.849 730.522 608.59 728.944 609.225C727.359 609.879 726.627 609.274 726.748 607.411" stroke="#7F8080" stroke-width="2"/>
<path d="M726.748 607.411C703.051 586.533 676.596 570.057 647.383 557.985C642.545 555.977 637.525 554.749 632.323 554.302C619.162 553.177 607.755 558.644 598.103 570.704" stroke="#CBBBE9" stroke-width="2"/>
<path d="M726.747 607.411C724.945 607.75 723.04 607.508 721.032 606.685C714.844 604.145 703.758 604.381 697.045 604.472C673.693 604.78 652.3 607.157 636.297 592.514C631.216 587.887 625.41 583.986 622.888 577.382C622.791 577.124 622.634 576.893 622.43 576.708C622.227 576.522 621.982 576.388 621.717 576.315C621.451 576.243 621.172 576.234 620.903 576.29C620.633 576.346 620.381 576.465 620.166 576.638L613.942 581.591" stroke="#4E3C6B" stroke-width="2"/>
<path d="M613.943 581.591L597.758 579.396" stroke="#6B4C8A" stroke-width="2"/>
<path d="M730.213 616.375C730.842 618.431 730.855 619.997 730.25 621.074C729.766 621.921 728.568 622.38 726.657 622.453C708.9 623.034 690.967 623.015 672.858 622.399" stroke="#1F1220" stroke-width="2"/>
<path d="M672.858 622.398C655.929 623.487 639.091 619.296 626.789 607.193" stroke="#181207" stroke-width="2"/>
<path d="M626.789 607.193C619.446 599.79 615.164 591.256 613.942 581.591" stroke="#1F1220" stroke-width="2"/>
<path d="M626.789 607.193C626.729 607.931 626.541 608.445 626.227 608.736C626.181 608.782 626.127 608.817 626.067 608.839C626.008 608.861 625.944 608.869 625.882 608.863L609.044 606.867" stroke="#352226" stroke-width="2"/>
<path d="M672.859 622.398C672.375 625.592 674.135 627.207 678.139 627.243C687.066 627.352 695.987 627.406 704.902 627.406C708.035 627.406 712.873 628.513 719.418 630.727C722.877 631.9 725.073 633.243 726.004 634.755" stroke="#352226" stroke-width="2"/>
<path d="M420.377 547.806C418.961 548.072 418.272 548.435 418.308 548.895C418.336 549.327 418.425 549.726 418.565 550.05C418.705 550.375 418.892 550.615 419.106 550.746L433.205 559.491" stroke="#9F8867" stroke-width="2"/>
<path d="M433.204 559.491L425.348 557.477C424.791 557.332 424.253 557.368 423.733 557.586C423.14 557.828 422.511 557.937 421.846 557.913C411.322 557.513 400.804 557.114 390.292 556.715C387.407 556.606 383.779 557.477 380.476 556.969C376.847 556.425 374.458 556.165 373.309 556.189C363.475 556.352 353.531 554.991 343.77 556.153C338.822 556.733 334.909 557.012 332.03 556.987C321.307 556.915 311.454 558.384 301.565 557.586C298.39 557.332 296.05 558.584 293.165 559.491C292.596 559.661 292.136 559.981 291.786 560.453C290.382 562.34 288.471 563.38 286.052 563.574" stroke="#3E2E15" stroke-width="2"/>
<path d="M286.052 563.574C288.882 561.227 291.779 559.164 294.743 557.386C296.836 556.14 300.519 552.856 305.793 547.534" stroke="#936C42" stroke-width="2"/>
<path d="M286.052 563.573L274.82 570.523" stroke="#83603A" stroke-width="2"/>
<path d="M450.26 569.181L433.204 559.491" stroke="#8F7C5F" stroke-width="2"/>
<path d="M441.769 597.541L287.468 596.851" stroke="#B87332" stroke-width="2"/>
<path d="M444.98 627.951C442.791 628.894 444.2 630.987 449.208 634.229" stroke="#A59C8E" stroke-width="2"/>
<path d="M449.208 634.229C440.196 634.652 431.396 635.015 422.807 635.318C414.848 635.608 406.042 635.686 396.389 635.553C374.93 635.287 353.477 635.166 332.03 635.191C322.196 635.215 312.367 635.33 302.545 635.535C300.67 635.572 299.364 634.652 298.626 632.777C298.372 632.136 297.9 631.816 297.211 631.816C295.965 631.791 295.039 632.39 294.435 633.612C294.168 634.132 293.745 634.441 293.164 634.537C292.693 634.622 292.293 634.531 291.967 634.265" stroke="#3E2E15" stroke-width="2"/>
<path d="M291.967 634.265C293.842 632.922 295.311 631.289 296.376 629.366C296.545 629.052 296.195 628.9 295.324 628.912" stroke="#936C42" stroke-width="2"/>
<path d="M507.888 669.483L505.928 669.411C505.464 669.399 505.013 669.267 504.622 669.03L449.208 634.228" stroke="#959185" stroke-width="2"/>
<path d="M291.967 634.265C285.653 639.261 279.03 643.851 272.099 648.037C265.289 652.149 258.63 656.486 252.122 661.046C248.275 663.744 244.084 665.576 239.548 666.544" stroke="#83603A" stroke-width="2"/>
<path d="M674.855 675.943L644.408 668.341" stroke="#AC5701" stroke-width="2"/>
<path d="M670.173 705.174C661.318 699.356 655.681 692.201 653.262 683.709C652.488 680.999 652.615 678.417 653.643 675.961C653.754 675.697 653.797 675.409 653.766 675.124C653.735 674.839 653.632 674.567 653.467 674.333C653.302 674.098 653.08 673.91 652.822 673.786C652.564 673.661 652.278 673.604 651.992 673.621L642.647 674.201" stroke="#E5BC80" stroke-width="2"/>
<path d="M756.269 745.709C749.047 743.181 744.009 743.127 741.154 745.546" stroke="#D44716" stroke-width="2"/>
<path d="M465.484 704.594C365.797 704.473 303.017 704.485 277.143 704.63C276.187 704.642 275.589 705.078 275.347 705.936" stroke="#893F02" stroke-width="2"/>
<path d="M465.302 706.916C465.314 705.876 465.097 705.434 464.649 705.592C464.516 705.64 464.401 705.664 464.304 705.664C401.56 706.971 338.708 705.465 275.946 705.7C275.837 705.712 275.746 705.761 275.673 705.846C275.637 705.894 275.601 705.942 275.564 705.991" stroke="#DE931A" stroke-width="2"/>
<path d="M278.884 710.327L388.024 708.622C388.048 708.622 388.06 708.634 388.06 708.658C388.024 709.093 388.024 709.039 388.06 708.495C388.06 708.434 388.03 708.41 387.97 708.422C383.524 709.275 379.914 707.261 376.266 707.152C353.695 706.462 331.812 706.952 308.623 706.172C298.341 705.834 288.06 705.731 277.778 705.864C277.064 705.876 276.756 706.233 276.852 706.934L276.979 707.896" stroke="#FEC743" stroke-width="2"/>
<path d="M417.401 747.759L306.338 747.161" stroke="#B25F02" stroke-width="2"/>
<path d="M409.961 760.878C405.879 767.211 405.661 765.85 398.712 765.759C384.196 765.565 369.68 765.517 355.165 765.614C342.669 765.686 330.119 765.686 317.515 765.614" stroke="#964F03" stroke-width="2"/>
<path d="M455.25 753.312L436.271 753.384" stroke="#A2BD87" stroke-width="2"/>
<path d="M525.905 756.124C515.297 751.467 504.356 750.518 493.082 753.276C492.15 753.505 491.642 753.1 491.558 752.06" stroke="#A2BD87" stroke-width="2"/>
<path d="M486.677 753.711C486.81 753.916 486.883 754.122 486.895 754.328C486.943 754.811 486.719 755.047 486.223 755.035L460.549 753.783" stroke="#A2BD87" stroke-width="2"/>
<path d="M265.132 754.019C261.249 754.074 258.382 752.314 254.499 752.477C244.531 752.9 234.576 752.985 224.633 752.731" stroke="#A2BD87" stroke-width="2"/>
<path d="M287.468 755.435C279.43 750.899 276.744 751.715 269.813 754.509C269.196 754.751 268.646 754.848 268.162 754.8C267.23 754.691 266.734 754.358 266.674 753.802" stroke="#A2BD87" stroke-width="2"/>
<path d="M539.006 301.82C535.812 299.449 533.883 297.568 533.218 296.177C530.024 289.512 525.01 286.766 518.176 287.939C512.587 288.901 510.392 293.8 508.196 298.427C507.235 300.423 505.729 301.584 503.569 300.84" stroke="#FCDF99" stroke-width="2"/>
<path d="M772.725 320.926C772.556 320.974 772.374 320.98 772.181 320.944C771.721 320.884 771.389 320.648 771.183 320.236C768.262 314.503 766.774 307.571 763.744 302.836C760.248 297.344 755.645 292.983 749.936 289.753C743.349 286.016 730.231 287.268 724.134 291.64C714.173 298.789 713.955 307.753 707.387 316.734C707.226 316.957 706.994 317.119 706.727 317.194C706.461 317.27 706.176 317.255 705.917 317.152L705.354 316.916" stroke="#FEE7A9" stroke-width="2"/>
<path d="M772.453 323.212C772.042 323.575 771.631 323.4 771.219 322.686C771.05 322.408 770.953 322.124 770.929 321.833C770.88 321.374 770.632 321.156 770.185 321.18C769.556 321.204 769.036 321.035 768.624 320.672C768.068 320.164 767.524 320.176 766.991 320.708C762.764 325.009 759.098 330.452 754.254 333.355C746.802 337.782 739.121 338.641 731.21 335.932C725.331 333.918 712.521 325.861 710.308 318.041C710.114 317.364 709.673 317.098 708.983 317.243C707.882 317.461 706.655 318.083 705.3 319.112" stroke="#FEC743" stroke-width="2"/>
<path d="M375.233 252.557L358.63 252.594C357.602 250.707 357.675 249.183 358.848 248.021C359.671 247.187 360.669 246.788 361.842 246.824L374.525 247.132C374.94 247.141 375.339 247.292 375.656 247.559C375.973 247.827 376.188 248.195 376.267 248.602C376.582 250.199 376.237 251.517 375.233 252.557Z" fill="#DA8803"/>
<path d="M358.631 252.594L375.233 252.558C369.62 253.537 364.086 253.55 358.631 252.594Z" fill="#C06701"/>
<path d="M374.053 274.422C369.009 274.386 363.953 274.319 358.884 274.222C352.515 274.095 347.58 278.414 342.935 282.17C342.805 282.271 342.65 282.334 342.489 282.35C342.328 282.366 342.168 282.335 342.028 282.26L340.794 281.607C340.747 281.583 340.707 281.547 340.678 281.503C340.649 281.458 340.631 281.407 340.628 281.354C340.624 281.301 340.634 281.249 340.657 281.201C340.68 281.153 340.714 281.112 340.758 281.081L350.701 273.932C351.976 273.011 353.503 272.504 355.074 272.48C362.211 272.359 369.535 272.366 377.047 272.499C379.817 272.547 382.406 273.237 384.813 274.567C388.405 276.551 391.883 278.529 395.246 280.5C395.343 280.559 395.426 280.638 395.49 280.731C395.554 280.825 395.597 280.93 395.616 281.041C395.635 281.152 395.63 281.264 395.6 281.372C395.571 281.479 395.518 281.578 395.446 281.662L395.119 282.043C394.915 282.28 394.632 282.437 394.322 282.483C394.013 282.53 393.696 282.464 393.431 282.297C389.948 280.156 386.337 278.172 382.599 276.345C380.023 275.087 377.174 274.446 374.053 274.422Z" fill="#FCFFFE"/>
<path d="M390.402 299.886C390.403 300.074 390.366 300.261 390.295 300.435C390.224 300.609 390.118 300.768 389.986 300.901C389.853 301.035 389.695 301.141 389.522 301.214C389.348 301.286 389.162 301.324 388.974 301.325L344.12 301.481C343.74 301.482 343.375 301.333 343.105 301.065C342.836 300.797 342.683 300.433 342.682 300.053L342.681 299.654C342.68 299.465 342.716 299.279 342.788 299.105C342.859 298.93 342.964 298.772 343.097 298.638C343.23 298.505 343.387 298.399 343.561 298.326C343.735 298.253 343.921 298.216 344.109 298.215L388.962 298.059C389.342 298.057 389.707 298.207 389.977 298.475C390.247 298.743 390.399 299.107 390.401 299.487L390.402 299.886Z" fill="#E6B063"/>
<path d="M381.329 325.118C380.022 326.594 379.956 327.573 381.129 328.057C373.932 328.142 366.759 328.305 359.61 328.547C354.614 328.717 350.283 329.581 346.618 331.142C341.526 333.319 336.711 336.053 332.175 339.343L327.33 340.976C325.843 341.472 325.728 341.248 326.986 340.305C333.663 335.309 340.764 330.985 348.287 327.331C350.622 326.194 353.235 325.662 356.126 325.735C364.122 325.94 372.523 325.735 381.329 325.118Z" fill="#F0D6B1"/>
<path d="M381.329 325.118L407.857 340.323C411.461 342.391 411.262 342.869 407.258 341.756C398.349 339.289 391.744 334.244 383.924 329.509C383.065 328.807 382.134 328.323 381.13 328.057C379.956 327.573 380.023 326.594 381.329 325.118Z" fill="#FCFFFE"/>
<path d="M381.13 328.057C382.134 328.323 383.065 328.807 383.924 329.509C381.589 329.013 380.67 329.539 381.166 331.087C381.247 331.354 381.436 331.582 381.692 331.722L390.91 336.857C392.918 337.97 392.785 338.641 390.511 338.871C378.608 340.051 367.14 337.547 355.31 338.599C347.593 339.276 339.881 339.524 332.176 339.343C336.712 336.053 341.526 333.319 346.619 331.142C350.284 329.581 354.615 328.716 359.61 328.547C366.759 328.305 373.932 328.142 381.13 328.057Z" fill="#2E220C"/>
<path d="M400.617 360.899C400.65 360.899 400.683 360.905 400.714 360.918C400.745 360.931 400.773 360.95 400.796 360.973C400.82 360.997 400.839 361.025 400.851 361.055C400.864 361.086 400.871 361.119 400.871 361.153C400.878 362.201 400.213 363.21 399.022 363.958C397.831 364.706 396.212 365.133 394.52 365.144L342.772 365.399C341.932 365.404 341.1 365.307 340.322 365.113C339.545 364.919 338.838 364.632 338.241 364.268C337.644 363.904 337.17 363.47 336.845 362.992C336.521 362.513 336.352 361.999 336.349 361.479C336.349 361.412 336.375 361.347 336.423 361.3C336.471 361.252 336.535 361.225 336.603 361.225L400.617 360.899Z" fill="#E6B063"/>
<path d="M351.953 392.18L319.183 411.976C317.792 412.907 316.504 413.397 315.319 413.446C313.782 413.494 313.643 413.077 314.901 412.194C325.679 404.742 337.056 397.823 349.031 391.436C349.781 391.037 350.755 391.285 351.953 392.18Z" fill="#F0D6B1"/>
<path d="M421.466 413.627C417.546 413.155 415.103 412.665 414.135 412.157C403.2 406.387 392.815 400.236 382.981 393.704L382.31 392.216C384.051 391.66 385.709 391.853 387.281 392.797C397.914 399.184 409.309 406.127 421.466 413.627Z" fill="#FCFFFE"/>
<path d="M351.953 392.18C353.066 391.926 354.42 391.999 356.017 392.398C355.836 392.531 355.564 392.646 355.201 392.743C354.16 393.033 354.154 393.184 355.182 393.196L382.98 393.704C392.814 400.236 403.199 406.387 414.134 412.157C415.102 412.665 417.545 413.155 421.465 413.627C416.856 414.268 412.501 414.032 408.401 412.919C405.872 412.242 403.75 412 402.032 412.193C399.02 412.538 396.407 413.282 393.359 413.083C381.057 412.266 368.791 413.101 356.562 412.085C349.322 411.486 342.372 412.447 335.169 412.756C330.215 412.974 325.226 410.869 319.184 411.976L351.953 392.18Z" fill="#2E220C"/>
<path d="M356.018 392.398L382.31 392.216L382.981 393.704L355.184 393.196C354.155 393.184 354.161 393.033 355.202 392.742C355.565 392.646 355.837 392.531 356.018 392.398Z" fill="#D89E67"/>
<path d="M409.018 435.183C400.817 434.566 392.694 434.282 384.65 434.33C364.34 434.475 343.565 434.505 322.323 434.421C324.331 433.03 326.811 432.364 329.762 432.425C348.064 432.848 366.366 433.108 384.668 433.205C390.746 433.241 399.039 432.28 406.351 432.806C407.04 432.854 407.633 433.024 408.129 433.314C409.363 434.04 409.659 434.663 409.018 435.183Z" fill="#511602"/>
<path d="M322.323 434.421C343.565 434.505 364.34 434.475 384.65 434.33C392.694 434.281 400.817 434.566 409.018 435.183C408.329 436.852 407.306 437.566 405.952 437.324C405.873 437.308 405.792 437.309 405.714 437.328C405.636 437.347 405.564 437.383 405.501 437.433C405.439 437.483 405.388 437.547 405.353 437.619C405.318 437.691 405.299 437.77 405.298 437.85C405.286 438.068 405.196 438.273 405.026 438.467C404.917 438.576 404.784 438.63 404.627 438.63C379.66 438.558 354.693 438.57 329.726 438.666C327.875 438.679 326.424 438.443 325.372 437.959C323.569 437.136 322.553 435.957 322.323 434.421Z" fill="#CE7801"/>
<path d="M558.946 487.893C547.624 482.655 536.725 476.474 526.249 469.349C524.713 467.389 525.512 466.107 528.644 465.502C528.949 465.441 529.265 465.452 529.567 465.533C529.869 465.615 530.15 465.766 530.386 465.974C539.18 473.728 549.009 479.825 559.871 484.264C560.549 484.542 560.809 485.038 560.652 485.752C560.47 486.659 559.902 487.373 558.946 487.893Z" fill="#FCFFFE"/>
<path d="M398.73 469.385C396.855 469.833 398.131 471.563 402.558 474.575C381.014 474.054 359.967 473.891 339.415 474.085C336.639 474.103 333.246 473.359 329.817 473.885C327.204 474.284 325.643 476.298 322.649 476.353C326.544 473.861 330.337 471.405 334.026 468.986C334.715 468.539 334.83 468.055 334.371 467.534C337.51 466.337 340.159 467.299 343.135 466.609C344.973 466.186 346.37 465.98 347.326 465.992C358.866 466.089 370.4 466.113 381.928 466.065C386.192 466.047 395.863 465.738 398.73 469.385Z" fill="#4D391D"/>
<path d="M334.371 467.535C334.83 468.055 334.715 468.539 334.026 468.986C330.336 471.406 326.544 473.861 322.649 476.353L310.129 484.427C305.884 486.52 301.414 488.697 296.721 490.959C295.571 491.528 294.706 491.419 294.126 490.633C293.811 490.222 293.866 489.871 294.289 489.58C306.277 481.21 317.768 474.224 328.764 468.623C330.361 467.813 332.229 467.45 334.371 467.535Z" fill="#D89E67"/>
<path d="M398.73 469.385L435.038 491.159C435.137 491.22 435.217 491.31 435.266 491.416C435.315 491.523 435.332 491.641 435.315 491.757C435.298 491.873 435.247 491.981 435.168 492.068C435.09 492.155 434.988 492.218 434.874 492.247C430.229 493.39 420.631 486.568 416.53 484.282L402.559 474.575C398.131 471.563 396.855 469.833 398.73 469.385Z" fill="#FCFFFE"/>
<path d="M526.25 469.349C536.725 476.474 547.624 482.655 558.946 487.893C557.761 490.711 556.025 492.822 553.739 494.225C553.327 494.467 552.886 494.528 552.414 494.407C540.33 491.225 531.499 484.076 525.923 472.96C525.7 472.515 525.642 472 525.76 471.508L526.25 469.349Z" fill="#FE652A"/>
<path d="M402.558 474.574L416.53 484.282C414.873 484.076 413.899 484.536 413.609 485.661C413.439 486.326 413.01 486.665 412.32 486.677C409.417 486.75 407.131 487.747 404.373 487.657C395.93 487.379 387.565 486.477 379.279 484.953C373.932 483.973 369.009 483.508 364.509 483.556C350.985 483.701 337.474 483.556 323.974 483.121C323.914 483.121 322.644 482.969 320.164 482.667C317.358 482.328 314.013 482.915 310.13 484.427L322.65 476.353C325.644 476.298 327.204 474.284 329.817 473.885C333.246 473.359 336.639 474.103 339.415 474.085C359.967 473.891 381.015 474.054 402.558 474.574Z" fill="#2E220C"/>
<path d="M580.266 588.305C577.962 603.637 579.613 616.502 579.522 631.072C579.486 633.902 581.064 638.039 579.377 640.743C568.109 626.046 558.964 601.587 562.847 583.043C563.5 579.904 563.174 577.219 564.335 574.261C571.865 555.118 571.883 536.593 552.94 524.908C547.049 521.279 540.91 517.033 534.523 512.17C533.81 511.626 533.519 510.906 533.652 510.011C533.81 508.959 534.523 508.318 535.794 508.088C541.328 507.054 560.47 524.363 564.625 513.803C567.982 505.257 573.171 495.731 582.425 492.048C605.94 482.649 627.787 505.366 625.555 528.21C625.494 528.875 625.131 529.172 624.466 529.099C602.312 526.486 583.695 543.579 579.032 563.483C577.423 570.366 577.835 578.64 580.266 588.305Z" fill="#FCFFFE"/>
<path d="M376.557 518.684L419.215 517.976C419.567 517.971 419.91 517.864 420.206 517.668C420.501 517.472 420.737 517.195 420.884 516.869L421.156 516.253C421.435 515.624 421.235 515.309 420.558 515.309C381.619 515.309 342.584 515.297 303.453 515.273C302.642 515.273 302.527 516.367 303.108 518.557C301.547 516.331 300.81 514.976 300.894 514.493C301.124 513.259 301.674 512.642 302.545 512.642L421.628 512.968C423.745 512.981 424.277 513.906 423.225 515.744L422.88 516.325C421.888 518.055 420.4 518.914 418.417 518.902L376.557 518.684Z" fill="#8A3500"/>
<path d="M376.558 518.684L303.109 518.557C302.528 516.367 302.643 515.273 303.453 515.273C342.585 515.297 381.62 515.309 420.558 515.309C421.236 515.309 421.436 515.624 421.157 516.253L420.885 516.869C420.737 517.195 420.502 517.472 420.207 517.668C419.911 517.864 419.567 517.971 419.216 517.976L376.558 518.684Z" fill="#FCBE33"/>
<path d="M760.206 635.68C754.352 631.568 748.666 627.261 743.15 622.761C742.279 622.06 741.402 621.34 740.519 620.602C737.925 618.497 733.388 617.772 730.213 616.374C728.326 611.203 730.993 609.933 733.262 606.83C734.81 604.713 734.526 604.429 732.409 605.978C731.248 606.849 730.522 608.59 728.943 609.225C727.358 609.879 726.627 609.274 726.748 607.411C703.051 586.533 676.596 570.057 647.383 557.985C642.545 555.977 637.525 554.749 632.323 554.302C619.162 553.177 607.755 558.644 598.103 570.705C599.034 561.789 602.917 555.064 609.751 550.528C622.471 542.091 639.635 545.774 653.208 551.78C679.445 563.392 701.926 575.604 722.738 593.258C728.508 598.169 736.007 604.98 745.237 613.689C752.543 620.572 759.638 627.818 766.52 635.426C766.599 635.518 766.652 635.629 766.674 635.748C766.696 635.867 766.686 635.99 766.645 636.104C766.605 636.218 766.535 636.319 766.443 636.398C766.351 636.476 766.24 636.529 766.121 636.551C764.101 636.878 762.13 636.588 760.206 635.68Z" fill="#FCFFFE"/>
<path d="M420.376 547.806C418.961 548.072 418.271 548.435 418.308 548.895C418.336 549.327 418.424 549.725 418.565 550.05C418.705 550.375 418.891 550.615 419.106 550.745L433.204 559.491L425.348 557.477C424.791 557.332 424.253 557.368 423.733 557.586C423.14 557.828 422.511 557.937 421.846 557.912C411.322 557.513 400.804 557.114 390.292 556.715C387.407 556.606 383.779 557.477 380.476 556.969C376.847 556.425 374.458 556.165 373.309 556.189C363.475 556.352 353.531 554.991 343.77 556.152C338.822 556.733 334.909 557.011 332.03 556.987C321.307 556.915 311.454 558.384 301.565 557.586C298.39 557.332 296.05 558.584 293.165 559.491C292.596 559.66 292.136 559.981 291.786 560.453C290.382 562.34 288.471 563.38 286.052 563.574C288.882 561.227 291.779 559.164 294.743 557.386C296.836 556.14 300.519 552.856 305.793 547.534L420.376 547.806Z" fill="#4D391D"/>
<path d="M305.793 547.534C300.519 552.856 296.836 556.141 294.743 557.386C291.779 559.165 288.882 561.227 286.052 563.574L274.82 570.523L268.234 570.832C267.714 570.856 267.665 570.711 268.089 570.396C276.096 564.408 284.298 558.723 292.693 553.34C297.41 550.328 298.916 546.953 305.793 547.534Z" fill="#D89E67"/>
<path d="M420.377 547.806C428.735 552.355 437.118 557.247 445.525 562.485C449.063 564.681 452.511 568.146 456.466 570.541C456.914 570.82 456.871 570.935 456.339 570.886C454.029 570.668 452.002 570.1 450.261 569.181L433.205 559.491L419.106 550.746C418.892 550.615 418.705 550.375 418.565 550.05C418.425 549.726 418.336 549.327 418.308 548.895C418.272 548.435 418.961 548.072 420.377 547.806Z" fill="#F0D6B1"/>
<path d="M726.748 607.411C724.945 607.75 723.04 607.508 721.032 606.685C714.845 604.145 703.759 604.381 697.045 604.472C673.693 604.78 652.3 607.157 636.297 592.514C631.216 587.887 625.41 583.986 622.888 577.382C622.791 577.124 622.634 576.893 622.431 576.708C622.227 576.522 621.983 576.388 621.717 576.315C621.452 576.242 621.172 576.234 620.903 576.29C620.633 576.346 620.381 576.465 620.166 576.638L613.943 581.591L597.758 579.396L598.103 570.704C607.755 558.644 619.162 553.177 632.323 554.302C637.525 554.749 642.545 555.977 647.383 557.985C676.596 570.057 703.051 586.533 726.748 607.411Z" fill="#9A76D4"/>
<path d="M433.204 559.491L450.26 569.18C425.91 572.374 400.127 570.959 375.577 570.687C359.09 570.505 342.609 570.487 326.133 570.632C309.138 570.789 292.033 570.753 274.82 570.523L286.052 563.574C288.471 563.38 290.382 562.34 291.786 560.453C292.136 559.981 292.596 559.661 293.165 559.491C296.05 558.584 298.39 557.332 301.566 557.586C311.454 558.384 321.307 556.915 332.03 556.987C334.909 557.012 338.822 556.733 343.77 556.153C353.532 554.991 363.475 556.352 373.309 556.189C374.458 556.165 376.847 556.425 380.476 556.969C383.779 557.477 387.407 556.606 390.292 556.715C400.804 557.114 411.322 557.513 421.846 557.913C422.511 557.937 423.14 557.828 423.733 557.586C424.253 557.368 424.791 557.332 425.348 557.477L433.204 559.491Z" fill="#2E220C"/>
<path d="M726.747 607.411C726.626 609.274 727.358 609.879 728.943 609.226C730.521 608.591 731.247 606.849 732.408 605.978C734.525 604.429 734.81 604.714 733.261 606.83C730.993 609.933 728.326 611.203 730.213 616.375C730.842 618.431 730.854 619.997 730.249 621.074C729.765 621.921 728.568 622.38 726.657 622.453C708.899 623.034 690.966 623.015 672.858 622.399C655.929 623.487 639.091 619.296 626.789 607.193C619.446 599.79 615.164 591.256 613.942 581.591L620.166 576.638C620.381 576.465 620.633 576.346 620.903 576.29C621.172 576.234 621.451 576.243 621.717 576.315C621.982 576.388 622.227 576.522 622.43 576.708C622.634 576.893 622.791 577.124 622.888 577.382C625.41 583.986 631.216 587.887 636.297 592.514C652.3 607.157 673.693 604.78 697.045 604.472C703.758 604.381 714.844 604.145 721.032 606.685C723.04 607.508 724.945 607.75 726.747 607.411Z" fill="#010101"/>
<path d="M597.758 579.396L613.943 581.591C615.164 591.256 619.447 599.79 626.789 607.193C626.729 607.931 626.541 608.445 626.227 608.736C626.181 608.782 626.127 608.817 626.067 608.839C626.007 608.861 625.944 608.869 625.882 608.863L609.044 606.867C602.548 597.468 598.786 588.311 597.758 579.396Z" fill="#3C223F"/>
<path d="M580.267 588.305C580.521 590.966 581.174 593.633 582.226 596.307C592.157 621.503 609.782 638.789 635.1 648.164C635.239 648.212 635.361 648.298 635.453 648.412C635.546 648.527 635.604 648.665 635.621 648.811C635.638 648.957 635.613 649.105 635.55 649.237C635.487 649.37 635.387 649.482 635.263 649.561C629.118 653.577 625.574 659.292 624.63 666.707C624.594 666.979 624.499 667.239 624.354 667.47C624.208 667.702 624.014 667.899 623.785 668.049C623.556 668.199 623.297 668.298 623.027 668.338C622.756 668.379 622.48 668.361 622.217 668.286C604.181 663.036 589.901 653.855 579.378 640.743C581.065 638.039 579.486 633.902 579.523 631.071C579.613 616.501 577.962 603.637 580.267 588.305Z" fill="#E8BF85"/>
<path d="M441.769 597.54L287.467 596.851C285.871 596.367 284.8 595.46 284.256 594.129C284.19 593.966 284.165 593.789 284.182 593.614C284.2 593.438 284.26 593.271 284.357 593.125C284.454 592.98 284.585 592.861 284.738 592.78C284.891 592.699 285.062 592.657 285.236 592.66L444.109 592.641C444.342 592.643 444.571 592.701 444.777 592.811C444.982 592.921 445.158 593.079 445.288 593.272C445.419 593.465 445.5 593.687 445.526 593.918C445.551 594.15 445.52 594.384 445.434 594.601C444.745 596.294 443.523 597.274 441.769 597.54Z" fill="#E6B063"/>
<path d="M287.468 596.851L441.769 597.541C437.874 598.46 434.409 598.871 431.372 598.774C420.425 598.399 411.202 598.254 403.702 598.339C356.441 598.859 318.187 598.823 288.937 598.23C288.321 598.218 287.831 597.758 287.468 596.851Z" fill="#8A3500"/>
<path d="M609.044 606.867L625.882 608.863C625.944 608.869 626.008 608.861 626.067 608.839C626.127 608.817 626.181 608.782 626.227 608.736C626.541 608.445 626.729 607.931 626.789 607.193C639.091 619.296 655.93 623.487 672.858 622.399C672.375 625.592 674.135 627.207 678.139 627.243C687.066 627.352 695.987 627.407 704.902 627.407C708.035 627.407 712.873 628.513 719.417 630.727C722.877 631.9 725.073 633.243 726.004 634.755C706.492 635.844 686.921 635.729 667.288 634.41C642.442 632.765 623.027 623.584 609.044 606.867Z" fill="#2E220C"/>
<path d="M730.214 616.375C733.389 617.772 737.925 618.497 740.52 620.602C741.403 621.34 742.28 622.06 743.151 622.761C748.667 627.261 754.352 631.568 760.207 635.68C748.534 636.624 737.133 636.315 726.004 634.755C725.073 633.243 722.877 631.9 719.418 630.727C712.873 628.513 708.035 627.406 704.902 627.406C695.987 627.406 687.066 627.352 678.139 627.243C674.135 627.207 672.375 625.592 672.859 622.399C690.967 623.015 708.9 623.034 726.657 622.453C728.568 622.38 729.766 621.921 730.25 621.074C730.855 619.997 730.843 618.431 730.214 616.375Z" fill="#3C223F"/>
<path d="M444.98 627.951C442.791 628.894 444.2 630.987 449.208 634.229C440.196 634.652 431.396 635.015 422.807 635.317C414.848 635.608 406.042 635.686 396.389 635.553C374.93 635.287 353.477 635.166 332.03 635.19C322.196 635.214 312.367 635.329 302.545 635.535C300.67 635.571 299.364 634.652 298.626 632.777C298.372 632.136 297.9 631.815 297.211 631.815C295.965 631.791 295.039 632.39 294.435 633.612C294.168 634.132 293.745 634.44 293.164 634.537C292.693 634.622 292.293 634.531 291.967 634.265C293.842 632.922 295.311 631.289 296.376 629.366C296.545 629.051 296.195 628.9 295.324 628.912C296.848 628.168 297.828 627.642 299.606 627.624C336.566 627.225 373.527 627.551 410.505 627.388C421.985 627.328 433.476 627.515 444.98 627.951Z" fill="#4D391D"/>
<path d="M444.98 627.951C452.48 631.072 459.793 634.973 466.917 639.654C481.125 648.999 495.459 657.962 509.303 667.778C509.485 667.908 509.611 668.104 509.655 668.326C509.698 668.548 509.657 668.78 509.539 668.976C509.358 669.278 508.807 669.447 507.888 669.484L505.928 669.411C505.464 669.399 505.013 669.268 504.622 669.03L449.208 634.229C444.2 630.987 442.791 628.894 444.98 627.951Z" fill="#FCFFFE"/>
<path d="M295.324 628.912C296.195 628.9 296.546 629.052 296.377 629.366C295.312 631.289 293.842 632.922 291.967 634.265C285.653 639.261 279.03 643.852 272.099 648.037C265.289 652.15 258.63 656.486 252.122 661.047C248.275 663.744 244.084 665.577 239.548 666.544C240.891 665.202 242.288 663.242 243.63 662.298C254.142 655.004 264.69 647.759 275.274 640.561C279.03 638.021 284.8 635.009 289.191 631.489C290.365 630.546 292.409 629.687 295.324 628.912Z" fill="#D89E67"/>
<path d="M449.209 634.229L504.622 669.03C505.014 669.268 505.464 669.399 505.928 669.411L507.888 669.484C502.154 669.066 501.81 676.342 495.332 676.27C470.377 675.943 445.422 676.064 420.467 676.633C386.755 677.413 353.514 677.195 320.11 676.415C297.78 675.907 275.444 675.949 253.102 676.542C252.013 676.578 250.864 675.949 249.654 674.655C247.646 672.514 245.523 670.488 243.286 668.577C242.858 668.208 242.34 667.952 241.78 667.833C240.836 667.651 240.092 667.222 239.548 666.544C244.084 665.577 248.275 663.744 252.122 661.047C258.63 656.486 265.289 652.15 272.099 648.037C279.03 643.852 285.653 639.261 291.967 634.265C292.294 634.531 292.693 634.622 293.165 634.537C293.746 634.441 294.169 634.132 294.435 633.612C295.04 632.39 295.965 631.791 297.211 631.816C297.901 631.816 298.373 632.136 298.627 632.777C299.364 634.652 300.671 635.572 302.546 635.535C312.368 635.33 322.196 635.215 332.031 635.191C353.478 635.166 374.931 635.287 396.39 635.553C406.042 635.686 414.849 635.608 422.808 635.318C431.397 635.015 440.197 634.652 449.209 634.229Z" fill="#2E220C"/>
<path d="M674.855 675.943L644.408 668.341C644.989 665.377 646.44 662.958 648.763 661.083C652.41 658.125 666.545 655.512 668.922 661.046C670.591 664.929 672.569 669.895 674.855 675.943Z" fill="#8A3500"/>
<path d="M644.408 668.341L674.855 675.943C678.363 685.511 683.498 695.4 690.26 705.61C690.326 705.707 690.365 705.82 690.373 705.937C690.381 706.055 690.357 706.173 690.303 706.279C690.25 706.386 690.169 706.477 690.069 706.544C689.969 706.611 689.853 706.652 689.733 706.662C682.451 707.218 675.931 706.722 670.173 705.174C661.319 699.356 655.682 692.201 653.263 683.709C652.489 680.999 652.616 678.417 653.644 675.961C653.755 675.697 653.797 675.409 653.767 675.124C653.736 674.839 653.633 674.567 653.468 674.333C653.303 674.098 653.081 673.91 652.822 673.786C652.564 673.661 652.279 673.604 651.993 673.621L642.648 674.201C642.418 672.423 643.005 670.47 644.408 668.341Z" fill="#CE7801"/>
<path d="M670.173 705.174C655.621 702.507 641.232 690.205 642.647 674.201L651.992 673.621C652.278 673.604 652.563 673.661 652.822 673.786C653.08 673.91 653.302 674.098 653.467 674.333C653.632 674.567 653.735 674.839 653.766 675.124C653.797 675.409 653.754 675.697 653.643 675.961C652.615 678.417 652.488 680.999 653.262 683.709C655.681 692.201 661.318 699.356 670.173 705.174Z" fill="#FCFFFE"/>
<path d="M756.268 745.709C749.047 743.181 744.008 743.126 741.154 745.546C737.948 742.667 734.888 738.917 731.972 734.296C724.061 721.788 716.223 709.232 708.457 696.628C707.205 694.559 705.3 690.059 705.3 688.245C705.3 683.866 706.54 683.473 709.02 687.066C711.33 690.404 714.16 693.725 717.511 697.027C720.287 699.767 721.376 702.978 723.789 705.664C732.426 715.232 740.948 724.891 749.355 734.641C752.089 737.798 754.393 741.487 756.268 745.709Z" fill="#AA2801"/>
<path d="M465.484 704.594C365.797 704.473 303.017 704.485 277.143 704.63C276.187 704.642 275.589 705.077 275.347 705.936C274.234 705.706 273.901 705.096 274.349 704.104C274.523 703.721 274.801 703.395 275.15 703.161C275.499 702.927 275.906 702.795 276.327 702.779C287.667 702.362 297.919 703.36 308.751 703.069C317.085 702.852 322.323 702.749 324.464 702.761C358.104 703.003 388.448 702.846 415.495 702.289C417.927 702.241 420.159 702.344 422.191 702.598C426.056 703.051 429.685 702.453 433.568 702.997C435.237 703.227 436.797 703.281 438.249 703.16C443.801 702.688 449.353 703.959 454.506 703.94C458.184 703.928 461.843 704.146 465.484 704.594Z" fill="#511602"/>
<path d="M465.484 704.593C465.847 704.424 466.119 704.503 466.3 704.829C466.409 705.023 466.439 705.253 466.391 705.519C466.246 706.16 465.883 706.626 465.302 706.916C465.314 705.876 465.097 705.434 464.649 705.591C464.516 705.64 464.401 705.664 464.304 705.664C401.56 706.97 338.708 705.464 275.945 705.7C275.837 705.712 275.746 705.761 275.673 705.845C275.637 705.894 275.601 705.942 275.564 705.991C275.492 705.966 275.419 705.948 275.347 705.936C275.589 705.077 276.187 704.642 277.143 704.63C303.017 704.485 365.797 704.472 465.484 704.593Z" fill="#C06701"/>
<path d="M465.302 706.916C464.613 708.089 463.79 709.081 462.835 709.892C462.363 710.291 461.825 710.491 461.22 710.491L278.885 710.327L388.025 708.622C388.049 708.622 388.061 708.634 388.061 708.658C388.025 709.093 388.025 709.039 388.061 708.495C388.061 708.434 388.031 708.41 387.97 708.422C383.525 709.275 379.914 707.261 376.267 707.152C353.695 706.462 331.813 706.952 308.624 706.172C298.342 705.833 288.06 705.731 277.778 705.864C277.064 705.876 276.756 706.233 276.853 706.934L276.98 707.896L275.564 705.991C275.601 705.942 275.637 705.894 275.673 705.846C275.746 705.761 275.837 705.712 275.946 705.7C338.708 705.465 401.56 706.971 464.304 705.664C464.401 705.664 464.516 705.64 464.649 705.592C465.097 705.434 465.314 705.876 465.302 706.916Z" fill="#FCBE33"/>
<path d="M278.884 710.327L276.979 707.896L276.852 706.934C276.756 706.233 277.064 705.876 277.778 705.864C288.06 705.731 298.341 705.834 308.623 706.172C331.812 706.952 353.695 706.462 376.266 707.152C379.914 707.261 383.524 709.275 387.97 708.422C388.03 708.41 388.06 708.434 388.06 708.495C388.024 709.039 388.024 709.093 388.06 708.658C388.06 708.634 388.048 708.622 388.024 708.622L278.884 710.327Z" fill="#FFCF53"/>
<path d="M644.916 767.156L632.341 766.956C632.242 766.955 632.144 766.929 632.057 766.879C631.971 766.83 631.898 766.759 631.847 766.673C631.796 766.587 631.768 766.49 631.766 766.39C631.763 766.29 631.787 766.192 631.833 766.103L654.423 722.702C654.482 722.58 654.581 722.483 654.704 722.427C654.826 722.371 654.964 722.359 655.095 722.393L665.582 725.133C665.664 725.156 665.74 725.197 665.805 725.253C665.869 725.309 665.921 725.378 665.955 725.456C665.99 725.534 666.007 725.619 666.005 725.704C666.004 725.789 665.983 725.873 665.945 725.95L645.442 766.829C645.394 766.928 645.319 767.011 645.226 767.069C645.133 767.126 645.025 767.157 644.916 767.156Z" fill="#FCFFFE"/>
<path d="M417.4 747.76L306.337 747.161C305.854 745.431 305.067 743.647 303.979 741.808C301.293 737.29 296.939 735.802 295.56 729.796C295.509 729.579 295.51 729.354 295.562 729.137C295.614 728.92 295.716 728.718 295.86 728.546C296.004 728.374 296.186 728.237 296.392 728.145C296.598 728.054 296.822 728.01 297.047 728.018C317.696 728.817 335.677 728.526 358.322 729.089C373.654 729.488 387.843 727.746 404.155 728.998C408.564 729.325 414.388 727.692 418.707 727.438C421.416 727.28 424.126 727.178 426.836 727.129C428.505 727.093 429.721 727.873 431.462 728.127C431.97 728.2 432.134 728.478 431.952 728.962C431.251 730.849 430.537 732.083 429.811 732.663C423.618 737.526 419.481 742.558 417.4 747.76Z" fill="#8A3500"/>
<path d="M756.269 745.709C766.442 758.205 777.232 770.773 788.639 783.414C790.465 785.434 791.004 787.508 790.254 789.637C790.098 790.095 789.846 790.514 789.515 790.866C789.183 791.219 788.781 791.497 788.333 791.682C787.885 791.867 787.403 791.955 786.917 791.941C786.432 791.926 785.955 791.809 785.518 791.597C766.738 782.543 753.257 762.348 741.154 745.546C744.009 743.127 749.047 743.181 756.269 745.709Z" fill="#FE652A"/>
<path d="M455.25 753.312L436.271 753.384C440.879 742.57 450.078 745.528 455.25 753.312Z" fill="#FCFFFE"/>
<path d="M265.131 754.019C261.248 754.074 258.381 752.314 254.499 752.477C244.531 752.9 234.576 752.985 224.633 752.731L224.578 748.068C224.578 747.354 224.935 746.997 225.649 746.997C234.346 746.973 243.025 746.967 251.686 746.979C257.837 746.979 261.43 749.664 265.131 754.019Z" fill="#FCFFFE"/>
<path d="M287.468 755.435C279.43 750.898 276.744 751.715 269.813 754.509C269.196 754.751 268.646 754.848 268.162 754.799C267.23 754.691 266.734 754.358 266.674 753.802L273.877 747.614C274.349 747.203 274.899 746.997 275.528 746.997H280.337C280.954 746.997 281.486 747.203 281.933 747.614C284.135 749.659 285.98 752.265 287.468 755.435Z" fill="#FCFFFE"/>
<path d="M417.401 747.759C415.405 753.058 412.925 757.431 409.962 760.878C405.879 767.21 405.661 765.85 398.712 765.759C384.196 765.565 369.681 765.517 355.165 765.614C342.669 765.686 330.119 765.686 317.515 765.614L306.338 747.161L417.401 747.759Z" fill="#DA8803"/>
<path d="M486.677 753.711C486.81 753.916 486.883 754.122 486.895 754.328C486.943 754.811 486.719 755.047 486.223 755.035L460.549 753.783C470.147 743.259 476.697 745.128 486.677 753.711Z" fill="#FCFFFE"/>
<path d="M525.905 756.124C515.297 751.467 504.356 750.518 493.082 753.276C492.15 753.505 491.642 753.1 491.558 752.06C492.737 748.703 496.856 746.979 500.539 746.997C507.978 747.034 515.381 747.046 522.748 747.034C525.046 747.034 526.159 748.183 526.087 750.481L525.905 756.124Z" fill="#FCFFFE"/>
<path d="M525.905 756.124L526.014 765.414C526.019 765.689 525.969 765.962 525.866 766.217C525.763 766.472 525.61 766.704 525.416 766.9C525.222 767.096 524.99 767.252 524.735 767.358C524.479 767.464 524.205 767.519 523.928 767.519H511.571C510.984 767.519 510.418 767.306 509.977 766.919C509.536 766.531 509.251 765.996 509.176 765.414C508.45 759.681 503.189 755.435 497.691 758.628C494.915 760.243 493.263 763.564 491.413 766.394C491.026 766.975 490.493 767.332 489.816 767.465C487.421 767.924 485.026 767.906 482.631 767.41C482.026 767.289 481.633 766.932 481.451 766.34C480.024 761.755 477.562 758.616 474.067 756.923C469.639 754.8 465.375 762.439 462.545 766.575C462.17 767.12 461.65 767.453 460.984 767.574C458.964 767.936 456.938 767.894 454.906 767.446C454.576 767.377 454.277 767.204 454.049 766.954C453.821 766.703 453.677 766.387 453.636 766.049C452.384 755.707 438.685 755.961 436.417 765.414C436.078 766.842 435.177 767.549 433.713 767.537L430.937 767.501C429.425 767.489 429.032 766.817 429.757 765.487L436.271 753.384L455.25 753.312L460.549 753.784L486.223 755.036C486.719 755.048 486.943 754.812 486.895 754.328C486.883 754.122 486.81 753.917 486.677 753.711C489.338 754.401 490.965 753.85 491.558 752.06C491.642 753.1 492.151 753.505 493.082 753.276C504.356 750.518 515.297 751.467 525.905 756.124Z" fill="#487A0F"/>
<path d="M224.632 752.731C234.576 752.985 244.531 752.901 254.498 752.477C258.381 752.314 261.248 754.074 265.131 754.019C265.312 753.572 265.827 753.499 266.673 753.802C266.734 754.358 267.23 754.691 268.161 754.8C268.645 754.848 269.195 754.751 269.812 754.509C276.744 751.715 279.429 750.899 287.467 755.435C289.608 757.927 291.423 761.271 292.91 765.469C293.334 766.69 292.904 767.301 291.622 767.301L288.519 767.319C287.976 767.324 287.443 767.168 286.988 766.871C286.533 766.574 286.175 766.149 285.961 765.65C283.784 760.588 279.52 756.142 273.84 759.989C271.717 761.404 270.919 763.799 269.703 766.049C269.401 766.594 268.947 766.963 268.343 767.156C263.534 768.626 256.911 767.555 251.958 767.374C250.984 767.339 250.055 766.952 249.345 766.285C248.634 765.617 248.189 764.715 248.093 763.745C247.73 759.88 243.847 757.05 239.964 757.521C235.011 758.12 232.271 761.949 230.856 766.648C230.699 767.168 230.372 767.537 229.876 767.755C228.279 768.456 226.683 768.481 225.086 767.827C224.445 767.561 224.136 767.077 224.16 766.376L224.632 752.731Z" fill="#487A0F"/>
<path d="M409.961 760.878L406.732 768.535C406.618 768.804 406.426 769.033 406.181 769.194C405.936 769.355 405.648 769.442 405.353 769.442C395.506 769.358 385.581 769.327 375.577 769.352C374.96 769.364 373.745 769.17 371.93 768.771C368.828 768.118 365.725 768.626 362.531 768.081C360.124 767.67 358.225 767.477 356.834 767.501C346.141 767.634 335.454 767.833 324.772 768.1C321.035 768.196 318.615 767.368 317.515 765.614C330.119 765.686 342.669 765.686 355.165 765.614C369.68 765.517 384.196 765.565 398.712 765.759C405.661 765.85 405.879 767.211 409.961 760.878Z" fill="#511602"/>
<path d="M539.006 301.82C535.812 299.449 533.883 297.568 533.218 296.177C530.024 289.512 525.01 286.766 518.176 287.94C512.587 288.901 510.392 293.8 508.196 298.427C507.235 300.423 505.728 301.584 503.569 300.84C503.376 292.796 506.412 286.905 512.678 283.168C525.488 275.529 542.743 287.069 539.006 301.82Z" fill="#FCFFFE"/>
<path d="M539.006 301.82C532.329 320.763 510.12 320.672 503.569 300.84C505.729 301.584 507.235 300.423 508.196 298.427C510.392 293.8 512.587 288.901 518.176 287.939C525.01 286.766 530.024 289.512 533.218 296.177C533.883 297.568 535.812 299.449 539.006 301.82Z" fill="#FCBE33"/>
<path d="M772.726 320.926C772.557 320.975 772.375 320.981 772.181 320.944C771.722 320.884 771.389 320.648 771.184 320.237C768.262 314.503 766.775 307.572 763.744 302.836C760.249 297.344 755.646 292.983 749.936 289.754C743.35 286.016 730.231 287.268 724.135 291.641C714.173 298.79 713.956 307.753 707.387 316.735C707.226 316.957 706.994 317.119 706.728 317.195C706.462 317.27 706.177 317.255 705.918 317.152L705.355 316.916C703.613 301.602 715.189 287.341 728.018 282.659C736.025 279.744 743.858 279.901 751.515 283.131C765.958 289.209 775.466 304.741 772.726 320.926Z" fill="#FCFFFE"/>
<path d="M772.725 320.926C772.858 321.64 772.767 322.402 772.453 323.212C772.042 323.575 771.631 323.4 771.219 322.686C771.05 322.408 770.953 322.123 770.929 321.833C770.88 321.373 770.632 321.156 770.185 321.18C769.556 321.204 769.036 321.035 768.624 320.672C768.068 320.164 767.524 320.176 766.991 320.708C762.764 325.008 759.098 330.452 754.254 333.355C746.802 337.782 739.121 338.641 731.21 335.931C725.331 333.917 712.521 325.861 710.308 318.041C710.114 317.364 709.673 317.097 708.983 317.243C707.882 317.46 706.655 318.083 705.3 319.111L705.354 316.916L705.917 317.152C706.176 317.255 706.461 317.27 706.727 317.194C706.993 317.119 707.225 316.957 707.386 316.734C713.955 307.753 714.173 298.789 724.134 291.64C730.23 287.268 743.349 286.016 749.935 289.753C755.645 292.983 760.248 297.344 763.744 302.836C766.774 307.571 768.262 314.503 771.183 320.236C771.389 320.648 771.721 320.884 772.181 320.944C772.374 320.98 772.556 320.974 772.725 320.926Z" fill="#FFCF53"/>
<path d="M772.453 323.212C762.981 362.695 712.412 356.707 705.3 319.112C706.655 318.083 707.882 317.461 708.983 317.243C709.673 317.098 710.114 317.364 710.308 318.041C712.521 325.861 725.331 333.918 731.21 335.932C739.121 338.641 746.802 337.782 754.254 333.355C759.098 330.452 762.764 325.009 766.991 320.708C767.524 320.176 768.068 320.164 768.624 320.672C769.036 321.035 769.556 321.204 770.185 321.18C770.632 321.156 770.88 321.374 770.929 321.833C770.953 322.124 771.05 322.408 771.219 322.686C771.631 323.4 772.042 323.575 772.453 323.212Z" fill="#FCBE33"/>
<path d="M599.998 510.058C599.841 511.261 599.432 512.418 598.792 513.465C598.152 514.512 597.294 515.427 596.268 516.159C595.242 516.89 594.068 517.424 592.811 517.729C591.555 518.034 590.242 518.104 588.948 517.936C587.653 517.768 586.401 517.364 585.265 516.749C584.128 516.133 583.129 515.317 582.323 514.348C581.518 513.378 580.923 512.274 580.572 511.099C580.221 509.923 580.12 508.699 580.277 507.497C580.433 506.294 580.843 505.136 581.482 504.089C582.122 503.042 582.98 502.127 584.006 501.395C585.032 500.664 586.207 500.13 587.463 499.825C588.719 499.521 590.032 499.45 591.327 499.618C592.621 499.787 593.873 500.19 595.01 500.806C596.146 501.421 597.145 502.237 597.951 503.207C598.756 504.176 599.351 505.28 599.702 506.455C600.053 507.631 600.154 508.855 599.998 510.058Z" fill="#010101"/>
</svg>
