<svg width="1024" height="1024" viewBox="0 0 1024 1024" fill="none" xmlns="http://www.w3.org/2000/svg">
<rect width="1024" height="1024" fill="white"/>
<path d="M674.407 784.806C674.495 791.123 672.497 796.536 668.414 801.043C664.613 805.238 659.35 806.662 653.862 806.68C561.157 806.818 468.452 806.637 375.747 806.137C365.896 806.087 359.297 801.774 355.951 793.196C355.439 791.885 355.277 788.608 355.464 783.364" stroke="#47503D" stroke-width="2"/>
<path d="M674.408 784.805C674.495 791.123 672.498 796.536 668.415 801.043C664.613 805.238 659.35 806.661 653.863 806.68C561.158 806.817 468.453 806.636 375.747 806.137C365.896 806.087 359.298 801.773 355.952 793.196C355.44 791.885 355.277 788.607 355.465 783.363L356.307 766.171C356.345 765.459 356.014 765.103 355.315 765.103C323.165 764.966 291.058 764.928 258.995 764.991C250.081 765.01 245.23 760.59 245.23 751.825C245.093 670.332 245.068 588.832 245.155 507.327C245.155 502.695 245.811 498.25 247.121 493.992C262.31 444.306 280.945 393.234 297.707 348.042C314.937 301.634 345.239 265.619 394.775 253.109C395.937 252.821 397.229 251.779 398.652 249.981C407.892 238.344 418.111 227.663 429.31 217.937C433.955 213.892 437.963 212.187 444.518 212.187C492.05 212.125 539.576 212.062 587.096 212C590.979 212 594.169 212.587 596.667 213.76C599.688 215.171 602.454 217.038 604.963 219.36C615.663 229.236 625.802 239.668 635.378 250.655C635.79 251.117 636.296 251.429 636.895 251.592C697.874 267.829 720.592 310.473 740.65 365.591C755.62 406.743 768.536 444.237 779.399 478.073C782.47 487.625 785.279 498.056 785.317 508.862C785.604 589.931 785.698 671 785.598 752.068C785.598 759.709 781.721 764.785 774.005 764.878C740.981 765.216 708.05 765.191 675.213 764.803C674.651 764.803 674.37 765.084 674.37 765.646L674.408 784.805Z" fill="black"/>
<path d="M342.075 248.783C342.075 252.289 340.682 255.652 338.202 258.132C335.722 260.612 332.359 262.005 328.853 262.005C325.346 262.005 321.983 260.612 319.503 258.132C317.023 255.652 315.63 252.289 315.63 248.783C315.63 247.046 315.972 245.327 316.637 243.723C317.301 242.119 318.275 240.661 319.503 239.433C320.731 238.205 322.188 237.232 323.793 236.567C325.397 235.903 327.116 235.561 328.853 235.561C330.589 235.561 332.308 235.903 333.912 236.567C335.517 237.232 336.974 238.205 338.202 239.433C339.43 240.661 340.404 242.119 341.068 243.723C341.733 245.327 342.075 247.046 342.075 248.783Z" fill="black"/>
<path d="M270.944 294.143C269.671 297.776 270.57 303.151 267.273 305.96C263.397 309.257 257.872 308.245 255.493 303.732C254.22 301.297 254.482 298.3 254.22 295.416C253.808 290.865 247.047 290.659 243.489 290.322C240.792 290.079 239.649 289.292 237.664 287.775C234.312 285.228 236.615 279.685 239.387 278.411C243.27 276.613 246.991 274.953 250.549 273.429C251.311 273.103 251.987 272.605 252.523 271.975C253.059 271.344 253.441 270.598 253.639 269.796L256.411 258.597C256.464 258.385 256.563 258.188 256.698 258.02C256.834 257.851 257.005 257.716 257.198 257.623C262.048 255.282 267.011 255.806 269.296 261.312C270.682 264.683 270.813 270.377 273.135 272.549C277.031 276.164 289.598 276.201 287.406 284.273C286.17 288.768 279.915 291.146 275.701 290.94C274.667 290.893 273.646 291.179 272.789 291.756C271.932 292.333 271.285 293.17 270.944 294.143Z" fill="black"/>
<path d="M769.567 263.447C769.792 266.762 769.68 269.889 771.459 272.848C771.808 273.423 772.302 273.81 772.939 274.01C777.452 275.433 792.678 278.429 786.161 286.895C782.34 291.858 775.13 289.666 771.721 294.33C769.68 297.12 770.316 302.065 769.118 304.387C766.708 309.019 763.056 310.474 758.162 308.751C753.143 306.971 753.33 299.143 752.843 294.798C752.798 294.383 752.643 293.985 752.393 293.647C752.143 293.308 751.807 293.04 751.42 292.869C746.813 290.865 738.703 290.49 735.594 286.913C735.245 286.501 735.057 286.027 735.032 285.49C734.489 273.916 748.067 278.748 752.674 271.874C756.308 266.443 752.525 259.645 760.409 256.798C764.867 255.206 769.249 258.783 769.567 263.447Z" fill="black"/>
<path d="M355.466 783.364C355.279 788.608 355.441 791.885 355.953 793.196C359.299 801.774 365.898 806.087 375.749 806.137C468.454 806.637 561.159 806.818 653.864 806.68C659.351 806.662 664.614 805.238 668.416 801.043C672.499 796.536 674.496 791.123 674.409 784.806C687.294 784.643 700.117 784.643 712.877 784.806C718.246 784.868 722.06 785.48 724.32 786.641C732.354 790.743 732.448 804.058 725.088 808.928C718.402 813.366 705.03 811.718 695.778 811.625C594.408 810.626 493.038 810.557 391.668 811.419C367.583 811.625 343.498 811.737 319.395 811.887C313.315 811.924 308.92 811.1 306.21 809.415C298.588 804.658 298.775 790.893 306.922 786.192C309.045 784.968 312.297 784.35 316.679 784.338C329.652 784.325 342.581 784.001 355.466 783.364Z" fill="#8D9F79"/>
<path d="M502.351 373.831C500.403 370.735 498.793 367.488 497.519 364.092C496.414 361.133 494.354 359.092 492.875 356.283C490.028 350.914 487.287 345.489 484.653 340.008C482.799 336.187 480.121 332.273 478.173 328.153C477.187 326.08 475.489 323.202 473.079 319.519C470.438 315.474 469.314 310.642 467.273 306.896C463.415 299.835 458.827 292.831 455.924 285.34C453.957 280.321 449.725 274.159 448.226 271.293C446.341 267.673 444.443 264.052 442.533 260.431C441.484 258.433 440.136 257.559 438.488 257.809C433.749 258.54 434.611 265.432 436.128 268.372C446.466 288.536 457.072 308.55 467.947 328.415C472.043 335.906 476.993 345.408 482.799 356.919C487.581 366.371 492.606 375.847 497.875 385.349" stroke="#FFEDCF" stroke-width="2"/>
<path d="M597.941 257.229C593.615 267.304 590.244 277.493 585.131 287.306C583.82 289.816 583.352 292.101 581.872 294.554C580.698 296.502 579.494 299.142 578.258 302.476C575.623 309.53 572.059 317.708 567.564 327.01C560.297 342.011 554.398 355.777 547.543 370.029C540.67 384.375 535.033 399.358 528.328 413.872C514.038 444.792 500.666 476.013 485.796 506.671C484.841 508.637 482.631 511.353 481.732 513.994C481.684 514.138 481.672 514.292 481.695 514.442C481.719 514.592 481.778 514.734 481.868 514.857C481.958 514.98 482.075 515.079 482.211 515.147C482.347 515.215 482.497 515.25 482.65 515.248L496.359 515.061" stroke="#FFEDCF" stroke-width="2"/>
<path d="M470.008 425.915C469.272 426.365 468.217 426.233 466.843 425.522C466.306 425.247 465.888 424.848 465.588 424.323C464.54 422.525 463.322 421.608 462.779 419.529C461.705 415.384 460.038 411.494 457.779 407.861C457.042 406.687 456.642 405.688 456.58 404.864C456.54 404.417 456.39 403.986 456.144 403.611C455.897 403.236 455.56 402.927 455.165 402.714C454.77 402.501 454.328 402.389 453.878 402.388C453.429 402.387 452.987 402.498 452.591 402.711C440.118 409.434 404.01 431.084 403.916 444.344C403.766 465.638 404.478 487.288 403.317 508.526C403.142 511.597 403.154 514.762 403.354 518.021" stroke="#FFEDCF" stroke-width="2"/>
<path d="M376.59 412.974C375.979 399.252 375.236 385.961 374.362 373.101C373.968 367.445 369.829 364.955 365.091 368.981C358.524 374.562 356.376 381.629 358.649 390.182C359.011 391.505 359.978 393.234 361.552 395.369C363 397.342 363.78 399.252 363.893 401.1" stroke="#FFEDCF" stroke-width="2"/>
<path d="M650.044 293.917C647.621 300.559 645.343 307.202 643.208 313.844C640.548 322.066 638.432 330.662 635.211 338.621C634.574 340.207 634.043 342.049 633.619 344.146C632.77 348.217 630.398 356.239 626.502 368.212C624.199 375.31 620.359 382.839 617.681 390.387C614.647 398.877 608.223 408.503 598.41 419.266" stroke="#FAE2C6" stroke-width="2"/>
<path d="M598.408 419.266C592.727 423.174 587.508 427.538 582.751 432.357C579.83 435.316 577.295 439.068 575.148 443.613C566.72 461.517 558.573 479.946 549.19 497.119C545.395 504.061 541.455 511.135 537.373 518.339" stroke="#FFEDCF" stroke-width="2"/>
<path d="M677.274 394.095L677.892 375.611C677.954 373.588 677.205 371.934 675.644 370.648L665.156 361.995C663.471 360.609 662.641 361.003 662.666 363.175L663.078 405.314" stroke="#85826B" stroke-width="2"/>
<path d="M640.81 427.281C640.161 426.944 639.699 426.145 639.424 424.884C639.387 424.722 639.287 424.634 639.124 424.622C638.962 424.609 638.825 424.678 638.712 424.828C638.675 424.878 638.65 424.872 638.637 424.809C638.475 424.06 638.294 423.33 638.094 422.618C637.383 419.977 638.75 415.127 639.199 412.355C639.287 411.83 639.493 411.356 639.817 410.931C640.779 409.683 641.328 408.297 641.465 406.774C641.54 406.075 641.802 405.457 642.252 404.92C642.714 404.37 642.926 403.746 642.889 403.047C642.851 402.048 642.633 402.011 642.233 402.935C642.033 403.421 641.709 403.721 641.259 403.833C640.273 404.083 639.655 404.27 639.405 404.395C636.346 405.881 634.03 408.097 632.457 411.044C632.182 411.543 631.808 411.949 631.333 412.261C629.348 413.572 627.975 415.383 627.213 417.692C627.067 418.128 626.776 418.499 626.389 418.741C625.54 419.253 625.272 419.99 625.584 420.951C625.609 421.051 625.571 421.12 625.471 421.157L624.835 421.401C624.31 421.588 624.079 421.407 624.142 420.858C624.179 420.583 624.123 420.327 623.973 420.09C623.536 419.415 623.124 419.428 622.737 420.127L622.044 421.419C621.982 421.544 621.514 421.994 620.64 422.768C620.365 423.017 620.071 423.18 619.759 423.255C619.422 423.342 619.291 423.217 619.366 422.88C619.603 421.831 620.196 421.026 621.145 420.464C621.357 420.352 621.407 420.189 621.295 419.977C621.22 419.815 621.145 419.653 621.07 419.49C620.958 419.291 620.802 419.241 620.602 419.341L616.95 421.176C616.85 421.238 616.769 421.213 616.707 421.101C616.607 420.889 616.501 420.676 616.388 420.464C616.263 420.202 616.07 420.127 615.808 420.239L608.672 423.273C608.098 423.523 607.673 423.929 607.399 424.491C605.513 428.224 602.91 430.952 599.589 432.675" stroke="#E8C08D" stroke-width="2"/>
<path d="M599.59 432.675C599.977 427.594 599.583 423.124 598.41 419.266" stroke="#FAD197" stroke-width="2"/>
<path d="M640.529 518.227C639.742 515.904 637.008 514.812 632.326 514.949C622.637 515.261 612.411 515.755 601.649 516.429C601.37 516.447 601.09 516.407 600.827 516.311C600.564 516.216 600.324 516.067 600.12 515.874C599.916 515.681 599.754 515.447 599.643 515.188C599.533 514.93 599.476 514.651 599.476 514.369L599.588 432.676" stroke="#EECB97" stroke-width="2"/>
<path d="M352.844 436.702C350.222 454.213 351.533 474.308 351.683 492.1C351.72 495.771 350.615 503.281 348.368 514.63C347.394 519.587 346.47 525.842 345.596 533.396C342.936 556.17 333.291 575.909 318.178 593.889C314.569 598.171 310.98 602.472 307.409 606.792C301.191 614.296 294.917 621.763 288.587 629.192C286.24 631.963 283.693 634.591 280.946 637.076" stroke="#FFEDCF" stroke-width="2"/>
<path d="M280.851 625.97C291.526 611.793 304.917 599.189 317.203 586.454C320.518 583.026 322.728 579.206 325.5 575.254C325.856 574.75 326.087 574.165 326.174 573.55C326.835 569.355 325.244 567.663 321.398 568.474C319.675 568.837 317.247 570.591 314.113 573.737C305.61 582.277 296.04 589.244 289.148 599.282C287.987 600.987 286.339 601.717 285.028 603.44C284.655 603.923 284.474 604.53 284.522 605.144C284.909 611.112 283.611 614.034 280.626 613.909" stroke="#FFEDCF" stroke-width="2"/>
<path d="M356.588 670.843L305.197 721.784C303.15 723.807 303.562 724.899 306.433 725.062L308.494 725.174C309.564 725.233 310.635 725.06 311.633 724.669C312.632 724.278 313.534 723.678 314.281 722.908C326.704 710.173 339.314 697.612 352.112 685.227C352.923 684.44 353.673 683.385 354.359 682.062C354.983 680.863 355.708 679.764 356.532 678.765" stroke="#FFBC5E" stroke-width="2"/>
<path d="M280.796 690.639C300.698 674.308 318.958 656.029 335.576 635.802C335.953 635.338 336.153 634.755 336.139 634.154C336.125 633.554 335.899 632.977 335.501 632.525C333.004 629.703 330.22 629.909 327.148 633.143C319.133 641.571 310.817 649.605 302.951 658.239C295.772 666.105 288.318 673.883 280.59 681.574" stroke="#FFBC5E" stroke-width="2"/>
<path d="M280.104 661.48C287.87 652.403 296.085 643.257 304.75 634.043C307.765 630.822 309.994 627.132 312.522 623.536C312.707 623.274 312.822 622.97 312.858 622.652C312.894 622.333 312.849 622.011 312.728 621.714C312.607 621.418 312.413 621.157 312.164 620.955C311.915 620.753 311.62 620.616 311.305 620.559C308.814 620.109 306.173 621.869 304.375 623.873C296.747 632.401 288.868 640.935 280.74 649.475" stroke="#FFBC5E" stroke-width="2"/>
<path d="M743.309 476.874L715.779 504.105" stroke="#848F85" stroke-width="2"/>
<path d="M715.779 504.105C714.406 492.843 713.064 481.868 711.753 471.181C710.542 461.342 709.031 452.253 707.22 443.912C705.273 434.935 703.194 425.952 700.984 416.962" stroke="#DFC79C" stroke-width="2"/>
<path d="M715.778 504.105L677.835 543.978C677.63 544.194 677.487 544.459 677.421 544.746C677.355 545.033 677.369 545.33 677.46 545.607C678.172 547.742 677.891 549.652 676.617 551.338C676.548 551.435 676.509 551.551 676.507 551.671C676.504 551.79 676.536 551.908 676.601 552.009C676.665 552.109 676.758 552.188 676.868 552.236C676.978 552.283 677.099 552.297 677.217 552.274C681.524 551.469 683.079 548.416 685.588 546.113C690.701 541.487 695.552 536.037 700.327 531.729C716.072 517.546 731.535 502.832 746.717 487.587" stroke="#A5A589" stroke-width="2"/>
<path d="M749.977 501.558C730.999 518.738 713.257 537.217 696.751 556.994C692.893 561.626 687.306 567.176 679.99 573.643C678.516 574.954 677.767 576.59 677.742 578.55L677.705 581.06C677.702 581.317 677.774 581.569 677.911 581.787C678.049 582.004 678.247 582.176 678.481 582.283C678.715 582.391 678.975 582.427 679.229 582.39C679.484 582.352 679.722 582.241 679.915 582.071C689.528 573.294 697.538 565.877 703.943 559.822C712.015 552.199 722.222 543.64 730.874 535.044C732.685 533.246 736.075 530.012 741.044 525.343C744.49 522.109 747.749 518.732 750.82 515.211" stroke="#A5A589" stroke-width="2"/>
<path d="M750.819 528.677L750.557 533.04C750.519 533.652 750.27 534.164 749.808 534.576C725.236 556.301 704.841 580.779 683.041 605.107C680.157 608.328 678.74 611.493 678.79 614.602C678.827 616.874 679.67 617.224 681.318 615.651C686.768 610.425 691.357 604.657 696.825 599.788C706.995 590.761 715.76 580.498 726.229 571.733C731.348 567.45 735.555 563.673 738.852 560.402C742.797 556.507 746.88 552.58 751.1 548.622" stroke="#A5A589" stroke-width="2"/>
<path d="M751.118 567.876C739.02 579.431 726.977 590.425 715.609 602.823C704.46 614.971 693.167 627.001 681.73 638.912C677.073 643.744 675.287 649.862 676.374 657.266C676.473 657.953 676.661 657.978 676.935 657.341C678.078 654.681 678.883 653.202 680.981 651.123C700.633 631.795 720.341 612.53 740.106 593.327C743.377 590.144 746.368 586.716 749.077 583.046C749.289 582.758 749.882 582.883 750.856 583.42" stroke="#A5A589" stroke-width="2"/>
<path d="M750.969 585.199L750.52 600.631C750.495 601.255 750.245 601.774 749.771 602.186C740.931 609.696 732.297 619.341 724.956 626.364C716.166 634.779 707.769 643.575 699.766 652.752C693.155 660.337 683.885 669.364 676.918 678.56C676.618 678.959 676.25 679.034 675.813 678.784C675.451 678.572 675.232 678.166 675.157 677.567" stroke="#A5A589" stroke-width="2"/>
<path d="M750.8 614.153C732.659 633.081 714.455 651.36 696.189 668.99C690.982 674.028 682.742 683.598 674.52 689.572" stroke="#A5A589" stroke-width="2"/>
<path d="M751.587 633.968C740.537 641.178 729.244 653.895 720.742 662.941C711.203 673.079 704.498 680.102 700.627 684.01C693.723 690.989 687.043 698.187 680.588 705.604C680.451 705.754 680.282 705.829 680.082 705.829C679.895 705.829 679.708 705.835 679.52 705.847C679.325 705.846 679.135 705.917 678.987 706.048C678.839 706.179 678.742 706.361 678.715 706.559C678.303 709.218 676.992 710.529 674.782 710.492" stroke="#8A8D74" stroke-width="2"/>
<path d="M751.232 638.781C748.473 641.165 747.355 643.581 747.879 646.029C748.028 646.73 748 647.458 747.798 648.145C747.595 648.832 747.224 649.456 746.718 649.962L674.558 721.316" stroke="#617975" stroke-width="2"/>
<path d="M751.4 661.629C751.868 666.105 747.392 666.368 745.407 668.84C740.837 674.521 736.043 680.039 731.023 685.396" stroke="#7C908A" stroke-width="2"/>
<path d="M751.25 670.375C749.165 670.95 747.685 672.716 746.811 675.675C746.649 676.225 746.63 676.78 746.755 677.342C747.972 682.567 740.949 687.643 737.746 691.145C728.345 701.408 718.743 711.471 708.942 721.335C705.584 724.706 705.084 726.641 707.444 727.141" stroke="#7C908A" stroke-width="2"/>
<path d="M751.287 681.275L750.688 694.104C750.663 694.728 750.444 695.284 750.032 695.771C742.241 704.892 731.267 715.08 723.775 726.766" stroke="#7C908A" stroke-width="2"/>
<path d="M751.213 709.312C750.95 708.987 750.707 708.787 750.482 708.712C750.245 708.637 749.964 709.012 749.64 709.836C749.565 710.036 749.434 710.136 749.246 710.136C748.959 710.136 748.716 710.242 748.516 710.454L736.811 723.452C736.504 723.789 736.303 724.208 736.232 724.658C736.161 725.108 736.222 725.569 736.409 725.985C736.596 726.401 736.9 726.753 737.284 726.998C737.668 727.243 738.115 727.371 738.571 727.366L739.639 727.347" stroke="#7C908A" stroke-width="2"/>
<path d="M393.071 551.862C392.671 552.174 392.347 552.499 392.097 552.836C391.847 553.148 391.729 553.573 391.741 554.109C391.866 559.204 391.685 564.285 391.198 569.354C391.161 569.679 391.329 570.122 391.704 570.684" stroke="#FFCD8D" stroke-width="2"/>
<path d="M391.705 570.684C391.243 570.447 390.793 570.453 390.356 570.703" stroke="#FF7337" stroke-width="2"/>
<path d="M402.979 570.329C399.595 571.577 395.837 571.696 391.704 570.684" stroke="#FFA4A8" stroke-width="2"/>
<path d="M573.405 594.694C568.449 594.132 563.511 593.889 558.591 593.964C510.484 594.701 462.378 594.882 414.271 594.507C414.109 594.507 412.161 594.388 408.428 594.151C406.006 594.001 403.902 594.207 402.116 594.769" stroke="#FA886F" stroke-width="2"/>
<path d="M402.117 594.769L394.195 595.106C392.41 595.181 391.486 596.111 391.423 597.896L390.937 611.25C390.862 613.085 391.742 613.959 393.577 613.872L402.286 613.403" stroke="#FFA4A8" stroke-width="2"/>
<path d="M402.286 613.404C410.901 613.117 420.159 612.923 430.06 612.824C448.788 612.636 467.517 612.599 486.245 612.711C486.62 612.711 486.957 612.742 487.256 612.805C488.38 613.03 488.979 613.142 489.054 613.142L571.047 612.805" stroke="#FA886F" stroke-width="2"/>
<path d="M599.533 552.087L599.87 569.13C599.875 569.274 599.85 569.419 599.797 569.554C599.743 569.689 599.663 569.812 599.559 569.915C599.456 570.019 599.332 570.1 599.196 570.155C599.059 570.21 598.913 570.237 598.765 570.235L572.583 569.954" stroke="#DD403F" stroke-width="2"/>
<path d="M572.581 569.954L476.037 570.46C475.864 570.46 475.691 570.422 475.531 570.348C472.984 569.355 470.306 570.647 468.339 570.685C446.527 571.034 424.74 570.916 402.978 570.329" stroke="#FF6053" stroke-width="2"/>
<path d="M402.979 570.328L402.604 551.506" stroke="#FFBBA9" stroke-width="2"/>
<path d="M640.341 596.323C638.331 594.613 635.11 594.026 630.678 594.563C627.681 594.919 625.808 597.185 623.86 599.301C622.487 600.787 620.889 602.166 619.066 603.44C615.682 605.787 612.78 608.64 610.357 611.999C610.02 612.473 610.126 612.804 610.676 612.991C611.288 613.204 611.787 613.16 612.174 612.86C615.408 610.263 618.685 609.832 622.006 611.568C622.531 611.843 623.011 611.78 623.448 611.381L634.592 601.061C634.785 600.885 635.026 600.77 635.284 600.733C635.542 600.697 635.803 600.739 636.034 600.855C636.646 601.155 636.97 601.742 637.008 602.616" stroke="#DD403F" stroke-width="2"/>
<path d="M637.009 602.616C635.585 601.979 634.555 602.035 633.918 602.785C631.371 605.794 628.612 608.497 625.64 610.894C625.378 611.106 625.36 611.337 625.584 611.587L625.996 612.018C626.144 612.183 626.343 612.292 626.562 612.326C626.781 612.36 627.004 612.317 627.195 612.205C629.892 610.607 632.071 608.516 633.731 605.931C634.056 605.426 634.56 605.07 635.136 604.938C636.671 604.601 637.296 603.827 637.009 602.616Z" stroke="#DD403F" stroke-width="2"/>
<path d="M637.008 602.616C637.445 602.641 637.794 602.703 638.056 602.803C638.668 603.065 638.737 603.421 638.263 603.871L630.172 611.793C628.911 613.029 629.136 613.428 630.846 612.991C632.082 612.679 633.312 612.779 634.536 613.291C634.724 613.367 634.925 613.403 635.125 613.397C635.325 613.39 635.52 613.342 635.697 613.254L640.21 611.062" stroke="#DD403F" stroke-width="2"/>
<path d="M573.312 630.54C573.069 626.682 574.286 618.085 571.496 615.426C571.483 615.418 571.472 615.406 571.466 615.392C571.459 615.378 571.457 615.361 571.459 615.345C571.461 615.328 571.467 615.311 571.476 615.296C571.486 615.281 571.499 615.268 571.515 615.257C572.039 614.945 572.257 614.627 572.17 614.302C571.983 613.615 571.827 613.26 571.702 613.235C571.377 613.135 571.159 612.991 571.046 612.804" stroke="#DD293E" stroke-width="2"/>
<path d="M571.046 612.805C571.458 612.617 572.176 612.561 573.2 612.636" stroke="#D8675C" stroke-width="2"/>
<path d="M573.201 612.636L600.47 612.973C601.256 612.973 601.562 612.592 601.387 611.831C601.237 611.169 601.431 610.626 601.968 610.201C602.058 610.136 602.166 610.098 602.277 610.092C602.388 610.086 602.499 610.113 602.595 610.168C602.692 610.223 602.771 610.305 602.823 610.404C602.874 610.503 602.896 610.615 602.886 610.726C602.736 611.899 603.185 612.692 604.234 613.104C605.17 613.466 605.514 613.16 605.264 612.186C605.089 611.537 605.239 611.038 605.714 610.688C606.4 610.189 606.756 610.357 606.781 611.194C606.831 612.193 607.374 612.811 608.41 613.048C608.498 613.067 608.588 613.067 608.676 613.047C608.763 613.027 608.844 612.988 608.914 612.932C608.984 612.877 609.041 612.806 609.08 612.725C609.12 612.645 609.14 612.557 609.141 612.467C609.141 612.305 609.153 612.143 609.178 611.98C609.241 611.356 609.503 610.825 609.965 610.388L625.022 596.286C625.572 595.762 625.472 595.431 624.723 595.293C622.201 594.831 620.553 595.681 619.778 597.841C619.566 598.452 619.21 598.97 618.711 599.395C616.089 601.63 613.598 604.002 611.238 606.512C611.213 606.537 611.182 606.537 611.145 606.512L610.733 606.081C610.583 605.944 610.583 605.8 610.733 605.65L618.692 597.841C618.79 597.751 618.856 597.633 618.881 597.504C618.907 597.374 618.89 597.239 618.833 597.12C618.777 597.001 618.684 596.903 618.567 596.84C618.451 596.778 618.317 596.754 618.187 596.773C616.389 596.96 614.947 597.778 613.86 599.226C613.834 599.263 613.798 599.293 613.757 599.312C613.716 599.331 613.67 599.339 613.625 599.336C613.58 599.332 613.536 599.316 613.498 599.291C613.461 599.265 613.431 599.23 613.411 599.189C613.311 598.989 613.23 598.789 613.167 598.59C613.005 598.078 613.142 597.659 613.579 597.335L614.272 596.829C614.495 596.669 614.646 596.427 614.691 596.154C614.737 595.881 614.674 595.599 614.516 595.368C614.041 594.732 613.436 594.451 612.699 594.526C612.449 594.563 612.331 594.707 612.343 594.956C612.343 595.194 612.35 595.437 612.362 595.687C612.387 596.311 612.094 596.679 611.482 596.792C609.497 597.179 607.805 598.14 606.406 599.676C606.35 599.744 606.27 599.789 606.183 599.804C606.096 599.819 606.006 599.803 605.93 599.758C605.853 599.713 605.795 599.643 605.766 599.559C605.737 599.475 605.738 599.384 605.77 599.301C606.182 598.215 606.943 597.478 608.055 597.091C608.517 596.929 608.785 596.611 608.86 596.136C608.885 595.936 608.897 595.718 608.897 595.481C608.891 595.115 608.748 594.807 608.492 594.604C608.235 594.401 607.879 594.316 607.48 594.361C607.081 594.406 606.662 594.579 606.287 594.853C605.913 595.127 605.606 595.486 605.414 595.874C605.064 596.598 604.509 597.091 603.747 597.354C603.21 597.541 602.804 597.391 602.53 596.904C601.631 595.331 599.852 594.557 597.192 594.582C589.214 594.669 581.286 594.707 573.407 594.694" stroke="#DD403F" stroke-width="2"/>
<path d="M573.407 594.694C572.795 594.158 572.539 593.202 572.639 591.829C573.064 585.973 573.045 578.682 572.583 569.954" stroke="#DD293E" stroke-width="2"/>
<path d="M573.407 594.694L573.201 612.636" stroke="#FA9F71" stroke-width="2"/>
<path d="M402.285 613.403C403.571 607.51 403.515 601.299 402.116 594.769" stroke="#FAE2C6" stroke-width="2"/>
<path d="M639.91 668.11C612.579 667.548 585.38 667.86 558.311 669.046" stroke="#DFD8CB" stroke-width="2"/>
<path d="M558.311 669.045L405.263 668.951C403.678 668.951 402.897 669.744 402.922 671.33L403.091 684.421C403.103 685.882 403.84 686.612 405.301 686.612L558.255 686.556" stroke="#FFEDCF" stroke-width="2"/>
<path d="M558.255 686.557C558.667 686.731 558.923 687.012 559.023 687.399C559.16 687.886 559.004 688.255 558.554 688.504C558.217 688.692 557.961 688.898 557.787 689.122" stroke="#DFD8CB" stroke-width="2"/>
<path d="M558.255 686.557L558.312 669.046" stroke="#DFC79C" stroke-width="2"/>
<path d="M639.761 724.838C638.812 724.775 637.838 724.482 636.839 723.957C636.277 723.658 635.684 723.521 635.06 723.545C625.409 723.87 615.757 723.783 606.106 723.283C605.07 723.233 603.297 723.464 600.787 723.976C600.538 724.028 600.314 724.165 600.154 724.362C599.993 724.56 599.906 724.808 599.907 725.062L599.664 766.789C599.664 767.451 599.994 767.782 600.656 767.782L636.034 768.1C636.339 768.103 636.641 768.045 636.923 767.929C637.205 767.814 637.461 767.644 637.675 767.43C637.89 767.215 638.059 766.96 638.173 766.68C638.287 766.399 638.343 766.099 638.338 765.797C638.113 753.523 637.882 741.025 637.645 728.302C637.632 727.691 637.894 727.397 638.431 727.422C638.818 727.447 639.043 727.647 639.105 728.021C639.168 728.458 639.411 728.658 639.836 728.621" stroke="#DFC79C" stroke-width="2"/>
<path d="M403.822 769.785C401.874 758.411 401.156 747.161 401.668 736.036C401.756 733.976 402.155 729.013 402.867 721.147" stroke="#FFEDCF" stroke-width="2"/>
<path d="M502.351 373.831C500.403 370.735 498.792 367.489 497.519 364.093C496.414 361.133 494.354 359.092 492.874 356.283C490.027 350.914 487.287 345.489 484.652 340.008C482.798 336.187 480.12 332.273 478.172 328.153C477.186 326.08 475.488 323.202 473.078 319.519C470.438 315.474 469.314 310.642 467.272 306.896C463.414 299.836 458.826 292.831 455.923 285.34C453.957 280.321 449.724 274.159 448.226 271.294C446.34 267.673 444.443 264.052 442.532 260.431C441.484 258.434 440.135 257.56 438.487 257.809C433.749 258.54 434.61 265.432 436.127 268.372C446.465 288.536 457.072 308.551 467.947 328.415C472.042 335.906 476.992 345.408 482.798 356.92C487.58 366.371 492.606 375.848 497.875 385.349L493.979 395.481C493.855 395.801 493.642 396.08 493.365 396.283C493.088 396.486 492.758 396.605 492.416 396.627C492.073 396.649 491.731 396.572 491.43 396.405C491.13 396.238 490.884 395.989 490.72 395.687L423.991 270.9C423.629 270.214 423.71 269.589 424.235 269.028L438.899 253.221C439.399 252.672 439.867 252.703 440.304 253.315C442.663 256.686 444.817 260.163 446.765 263.746C461.773 291.352 476.399 319.151 490.645 347.143C493.773 353.324 503.755 367.276 502.351 373.831Z" fill="#FFFEFE"/>
<path d="M597.94 257.229C593.614 267.305 590.243 277.493 585.13 287.307C583.819 289.816 583.351 292.101 581.871 294.554C580.698 296.502 579.493 299.143 578.257 302.477C575.622 309.531 572.058 317.709 567.563 327.011C560.296 342.012 554.397 355.777 547.542 370.03C540.669 384.375 535.032 399.358 528.327 413.872C514.037 444.793 500.665 476.013 485.795 506.671C484.84 508.638 482.63 511.353 481.731 513.994C481.683 514.138 481.671 514.292 481.694 514.442C481.718 514.592 481.777 514.735 481.867 514.858C481.957 514.98 482.074 515.08 482.21 515.148C482.346 515.216 482.497 515.251 482.649 515.249L496.358 515.062C496.096 516.073 495.777 516.847 495.403 517.384C495.028 517.921 494.335 518.202 493.324 518.227C486.22 518.401 479.084 518.401 471.917 518.227C471.256 518.214 471.093 517.921 471.43 517.346C477.967 506.091 483.248 492.325 488.099 482.493C498.699 461.087 510.76 432.545 517.558 417.356C526.754 396.792 535.818 375.405 545.051 355.627C559.21 325.3 573.35 294.966 587.471 264.627C588.395 262.654 590.418 258.946 593.539 253.502C593.926 252.828 594.363 252.79 594.85 253.39L597.94 257.229Z" fill="#FFFEFE"/>
<path d="M597.941 257.229L610.058 271.649C610.224 271.848 610.325 272.092 610.349 272.35C610.372 272.607 610.316 272.866 610.189 273.091C599.127 293.717 588.745 314.781 579.044 336.281C551.863 396.498 524.301 456.092 496.359 515.061L482.65 515.248C482.497 515.25 482.347 515.215 482.211 515.147C482.075 515.079 481.958 514.98 481.868 514.857C481.778 514.734 481.719 514.592 481.695 514.442C481.672 514.292 481.684 514.138 481.732 513.994C482.631 511.353 484.841 508.637 485.796 506.671C500.666 476.013 514.038 444.792 528.328 413.872C535.033 399.358 540.67 384.375 547.543 370.029C554.398 355.777 560.297 342.011 567.564 327.01C572.059 317.708 575.623 309.53 578.258 302.476C579.494 299.142 580.698 296.502 581.872 294.554C583.352 292.101 583.82 289.816 585.131 287.306C590.244 277.493 593.615 267.304 597.941 257.229Z" fill="#FFDCA0"/>
<path d="M502.351 373.831L497.875 385.349C492.606 375.847 487.581 366.371 482.799 356.919C476.993 345.408 472.043 335.906 467.947 328.415C457.072 308.55 446.466 288.536 436.128 268.372C434.611 265.432 433.749 258.54 438.488 257.809C440.136 257.559 441.484 258.433 442.533 260.431C444.443 264.052 446.341 267.673 448.226 271.293C449.725 274.159 453.957 280.321 455.924 285.34C458.827 292.831 463.415 299.835 467.273 306.896C469.314 310.642 470.438 315.474 473.079 319.519C475.489 323.202 477.187 326.08 478.173 328.153C480.121 332.273 482.799 336.187 484.653 340.008C487.287 345.489 490.028 350.914 492.875 356.283C494.354 359.092 496.414 361.133 497.519 364.092C498.793 367.488 500.403 370.735 502.351 373.831Z" fill="#FFDCA0"/>
<path d="M470.008 425.915C469.272 426.365 468.217 426.234 466.843 425.522C466.306 425.247 465.888 424.848 465.588 424.323C464.54 422.525 463.322 421.608 462.779 419.529C461.705 415.384 460.038 411.494 457.779 407.861C457.042 406.688 456.642 405.689 456.58 404.865C456.54 404.417 456.39 403.986 456.144 403.611C455.897 403.236 455.56 402.928 455.165 402.714C454.77 402.501 454.328 402.389 453.878 402.388C453.429 402.387 452.987 402.498 452.591 402.711C440.118 409.434 404.01 431.084 403.916 444.344C403.766 465.638 404.478 487.288 403.317 508.526C403.142 511.597 403.154 514.762 403.354 518.021L391.312 517.909C390.625 517.896 390.288 517.547 390.3 516.86L390.544 429.605C390.544 427.926 389.877 426.316 388.69 425.129L376.591 412.974C375.98 399.252 375.237 385.962 374.363 373.101C373.969 367.445 369.83 364.955 365.092 368.981C358.525 374.562 356.377 381.629 358.65 390.182C359.012 391.505 359.979 393.234 361.553 395.369C363.001 397.342 363.781 399.252 363.894 401.1L326.905 368.494C326.697 368.309 326.536 368.076 326.436 367.816C326.336 367.555 326.301 367.275 326.332 366.998C326.363 366.721 326.46 366.455 326.615 366.223C326.771 365.992 326.979 365.801 327.224 365.666C328.048 365.217 328.597 364.48 328.872 363.456C329.321 361.771 329.565 360.884 329.602 360.797C342.056 329.914 358.032 305.324 386.892 291.109C389.963 289.598 392.96 287.969 395.882 286.221C396.002 286.149 396.136 286.102 396.276 286.084C396.415 286.066 396.556 286.077 396.692 286.115C396.827 286.154 396.952 286.22 397.061 286.309C397.17 286.398 397.259 286.508 397.324 286.633L470.008 425.915Z" fill="#FFFEFE"/>
<path d="M650.043 293.918C647.621 300.56 645.342 307.202 643.207 313.844C640.548 322.066 638.431 330.662 635.21 338.622C634.573 340.208 634.043 342.049 633.618 344.147C632.769 348.217 630.397 356.239 626.501 368.213C624.198 375.311 620.358 382.84 617.68 390.387C614.646 398.877 608.223 408.504 598.409 419.266C592.728 423.174 587.509 427.538 582.752 432.357C579.83 435.316 577.296 439.068 575.148 443.613C566.721 461.517 558.574 479.946 549.191 497.12C545.395 504.062 541.456 511.135 537.373 518.339L529.47 518.301C528.846 518.301 528.665 518.014 528.927 517.44C559.591 450.692 590.512 384.069 621.688 317.571C626.458 307.421 630.921 297.232 635.079 287.007C635.161 286.808 635.286 286.629 635.443 286.483C635.601 286.336 635.789 286.225 635.993 286.158C636.197 286.09 636.414 286.068 636.628 286.091C636.842 286.115 637.048 286.184 637.233 286.295L650.043 293.918Z" fill="#FFFEFE"/>
<path d="M650.044 293.917C680.084 310.061 691.208 340.344 706.247 368.137C706.722 368.999 706.578 369.742 705.816 370.366L677.275 394.095L677.893 375.61C677.955 373.587 677.206 371.933 675.645 370.647L665.157 361.994C663.472 360.609 662.642 361.002 662.666 363.174L663.079 405.313L640.811 427.281C640.161 426.944 639.699 426.145 639.425 424.884C639.387 424.722 639.287 424.634 639.125 424.622C638.963 424.609 638.825 424.678 638.713 424.828C638.676 424.878 638.651 424.872 638.638 424.809C638.476 424.06 638.295 423.33 638.095 422.618C637.383 419.977 638.75 415.127 639.2 412.355C639.287 411.83 639.493 411.356 639.818 410.931C640.779 409.683 641.329 408.297 641.466 406.774C641.541 406.075 641.803 405.457 642.253 404.92C642.715 404.37 642.927 403.746 642.889 403.047C642.852 402.048 642.633 402.011 642.234 402.935C642.034 403.421 641.709 403.721 641.26 403.833C640.274 404.083 639.656 404.27 639.406 404.395C636.347 405.881 634.031 408.097 632.458 411.044C632.183 411.543 631.808 411.949 631.334 412.261C629.349 413.572 627.975 415.383 627.214 417.692C627.068 418.128 626.777 418.499 626.39 418.741C625.541 419.253 625.272 419.99 625.584 420.951C625.609 421.051 625.572 421.12 625.472 421.157L624.835 421.401C624.311 421.588 624.08 421.407 624.142 420.858C624.18 420.583 624.124 420.327 623.974 420.09C623.537 419.415 623.125 419.428 622.738 420.127L622.045 421.419C621.982 421.544 621.514 421.994 620.64 422.768C620.365 423.017 620.072 423.18 619.76 423.255C619.423 423.342 619.292 423.217 619.367 422.88C619.604 421.831 620.197 421.026 621.146 420.464C621.358 420.352 621.408 420.189 621.296 419.977C621.221 419.815 621.146 419.653 621.071 419.49C620.959 419.291 620.802 419.241 620.603 419.341L616.951 421.176C616.851 421.238 616.77 421.213 616.707 421.101C616.607 420.889 616.501 420.676 616.389 420.464C616.264 420.202 616.07 420.127 615.808 420.239L608.673 423.273C608.098 423.523 607.674 423.929 607.399 424.491C605.514 428.224 602.911 430.952 599.59 432.675C599.977 427.593 599.583 423.124 598.41 419.266C608.223 408.503 614.647 398.877 617.681 390.387C620.359 382.839 624.199 375.31 626.502 368.212C630.398 356.239 632.77 348.217 633.619 344.146C634.043 342.049 634.574 340.207 635.211 338.621C638.432 330.662 640.548 322.066 643.208 313.844C645.343 307.202 647.621 300.559 650.044 293.917Z" fill="#F4C68D"/>
<path d="M677.274 394.095C670.344 396.455 667.685 400.594 663.078 405.314L662.666 363.175C662.641 361.003 663.471 360.609 665.156 361.995L675.644 370.648C677.205 371.934 677.954 373.588 677.892 375.611L677.274 394.095Z" fill="#153E48"/>
<path d="M376.59 412.974L363.893 401.1C363.78 399.252 363 397.342 361.552 395.369C359.978 393.234 359.011 391.505 358.649 390.182C356.376 381.629 358.524 374.562 365.091 368.981C369.829 364.955 373.968 367.445 374.362 373.101C375.236 385.961 375.979 399.252 376.59 412.974Z" fill="#FFDCA0"/>
<path d="M352.844 436.702C350.222 454.213 351.533 474.309 351.683 492.1C351.72 495.771 350.616 503.281 348.368 514.631C347.394 519.587 346.47 525.843 345.596 533.396C342.937 556.17 333.292 575.91 318.178 593.889C314.57 598.171 310.98 602.473 307.409 606.793C301.192 614.296 294.918 621.763 288.587 629.192C286.24 631.963 283.693 634.592 280.946 637.076L280.853 625.97C291.528 611.793 304.918 599.189 317.204 586.454C320.519 583.026 322.729 579.206 325.501 575.254C325.857 574.75 326.089 574.166 326.175 573.55C326.837 569.355 325.245 567.663 321.399 568.475C319.676 568.837 317.248 570.591 314.114 573.737C305.611 582.277 296.041 589.244 289.149 599.283C287.988 600.987 286.34 601.717 285.029 603.44C284.656 603.923 284.476 604.53 284.523 605.144C284.91 611.113 283.612 614.034 280.628 613.909C280.422 608.74 279.71 603.59 279.729 598.796C279.816 565.934 280.178 533.078 280.815 500.229C280.878 496.42 281.577 492.687 282.913 489.029C287.407 476.668 291.64 464.214 295.61 451.666C300.667 435.709 307.447 418.629 312.522 401.755C312.772 400.894 313.178 400.812 313.739 401.512L315.107 403.235C315.419 403.622 315.768 403.971 316.155 404.283C329.053 414.509 341.283 425.315 352.844 436.702Z" fill="#FFFEFE"/>
<path d="M470.008 425.915L475.046 433.875C475.421 434.449 475.464 435.048 475.177 435.673L438.807 516.391C438.562 516.933 438.165 517.393 437.663 517.715C437.161 518.037 436.577 518.208 435.979 518.208L403.354 518.021C403.154 514.762 403.142 511.597 403.317 508.526C404.478 487.288 403.766 465.638 403.916 444.344C404.01 431.084 440.118 409.434 452.591 402.711C452.987 402.498 453.429 402.387 453.878 402.388C454.328 402.389 454.77 402.501 455.165 402.714C455.56 402.927 455.897 403.236 456.144 403.611C456.39 403.986 456.54 404.417 456.58 404.864C456.642 405.688 457.042 406.687 457.779 407.861C460.038 411.494 461.705 415.384 462.779 419.529C463.322 421.608 464.54 422.525 465.588 424.323C465.888 424.848 466.306 425.247 466.843 425.522C468.217 426.233 469.272 426.365 470.008 425.915Z" fill="#FFDCA0"/>
<path d="M640.809 427.281L640.529 518.226C639.742 515.904 637.008 514.811 632.326 514.949C622.637 515.261 612.411 515.754 601.649 516.428C601.37 516.446 601.09 516.406 600.827 516.31C600.564 516.215 600.324 516.066 600.12 515.873C599.916 515.68 599.754 515.447 599.643 515.188C599.533 514.929 599.476 514.65 599.476 514.368L599.588 432.675C602.91 430.952 605.513 428.224 607.398 424.491C607.673 423.929 608.097 423.523 608.672 423.273L615.807 420.239C616.069 420.127 616.263 420.202 616.388 420.464C616.5 420.676 616.606 420.889 616.706 421.101C616.769 421.213 616.85 421.238 616.95 421.176L620.602 419.341C620.801 419.241 620.957 419.29 621.07 419.49C621.145 419.653 621.22 419.815 621.295 419.977C621.407 420.189 621.357 420.352 621.145 420.464C620.196 421.026 619.603 421.831 619.366 422.88C619.291 423.217 619.422 423.342 619.759 423.255C620.071 423.18 620.364 423.017 620.639 422.768C621.513 421.994 621.981 421.544 622.044 421.419L622.737 420.127C623.124 419.428 623.536 419.415 623.973 420.09C624.123 420.327 624.179 420.583 624.141 420.858C624.079 421.407 624.31 421.588 624.834 421.401L625.471 421.157C625.571 421.12 625.608 421.051 625.583 420.951C625.271 419.99 625.54 419.253 626.389 418.741C626.776 418.499 627.067 418.128 627.213 417.692C627.974 415.383 629.348 413.572 631.333 412.261C631.807 411.949 632.182 411.543 632.457 411.044C634.03 408.097 636.346 405.881 639.405 404.395C639.655 404.27 640.273 404.083 641.259 403.833C641.708 403.721 642.033 403.421 642.233 402.935C642.632 402.011 642.851 402.048 642.888 403.047C642.926 403.746 642.713 404.37 642.252 404.92C641.802 405.457 641.54 406.075 641.465 406.774C641.328 408.297 640.778 409.683 639.817 410.931C639.492 411.356 639.286 411.83 639.199 412.355C638.749 415.127 637.382 419.977 638.094 422.618C638.294 423.33 638.475 424.06 638.637 424.809C638.649 424.872 638.674 424.878 638.712 424.828C638.824 424.678 638.962 424.609 639.124 424.622C639.286 424.634 639.386 424.722 639.424 424.884C639.698 426.145 640.16 426.944 640.809 427.281Z" fill="#DCBA8D"/>
<path d="M743.31 476.875L715.779 504.106C714.406 492.844 713.064 481.869 711.753 471.181C710.542 461.343 709.031 452.253 707.22 443.913C705.273 434.936 703.194 425.953 700.984 416.963L716.94 404.209C717.527 403.747 717.939 403.866 718.177 404.565L743.31 476.875Z" fill="#BEB197"/>
<path d="M700.984 416.962C703.194 425.952 705.273 434.935 707.22 443.912C709.031 452.253 710.542 461.342 711.753 471.181C713.064 481.868 714.406 492.843 715.779 504.105L677.836 543.978C677.631 544.194 677.488 544.459 677.422 544.746C677.356 545.033 677.37 545.33 677.461 545.607C678.173 547.742 677.892 549.652 676.618 551.338C676.549 551.435 676.51 551.551 676.508 551.671C676.505 551.79 676.537 551.908 676.602 552.009C676.666 552.109 676.759 552.188 676.869 552.236C676.979 552.283 677.1 552.297 677.218 552.274C681.525 551.469 683.08 548.416 685.589 546.113C690.702 541.487 695.553 536.037 700.328 531.729C716.073 517.546 731.536 502.832 746.718 487.587C749.016 491.982 750.102 496.639 749.977 501.558C730.999 518.738 713.257 537.217 696.751 556.994C692.893 561.626 687.306 567.176 679.99 573.643C678.516 574.954 677.767 576.59 677.742 578.55L677.705 581.06C677.702 581.317 677.774 581.57 677.911 581.787C678.049 582.004 678.247 582.177 678.481 582.284C678.715 582.391 678.975 582.428 679.229 582.39C679.484 582.352 679.722 582.241 679.915 582.071C689.528 573.294 697.538 565.877 703.943 559.822C712.015 552.199 722.222 543.641 730.874 535.044C732.685 533.246 736.074 530.013 741.044 525.343C744.49 522.109 747.749 518.732 750.82 515.211V528.677L750.558 533.04C750.52 533.652 750.271 534.164 749.809 534.576C725.237 556.301 704.842 580.779 683.042 605.107C680.158 608.328 678.741 611.493 678.791 614.602C678.828 616.875 679.671 617.224 681.319 615.651C686.769 610.426 691.358 604.658 696.826 599.788C706.996 590.761 715.761 580.498 726.23 571.733C731.349 567.451 735.556 563.674 738.853 560.402C742.798 556.507 746.881 552.58 751.101 548.622L751.12 567.875C739.021 579.431 726.979 590.424 715.611 602.822C704.461 614.971 693.168 627 681.731 638.912C677.074 643.744 675.289 649.861 676.375 657.265C676.475 657.952 676.662 657.977 676.937 657.34C678.079 654.681 678.885 653.201 680.982 651.122C700.634 631.795 720.343 612.53 740.107 593.327C743.379 590.143 746.369 586.716 749.078 583.045C749.291 582.758 749.883 582.883 750.857 583.42L750.97 585.199L750.52 600.631C750.495 601.255 750.246 601.773 749.771 602.185C740.931 609.695 732.298 619.341 724.956 626.364C716.166 634.779 707.77 643.575 699.767 652.752C693.155 660.337 683.885 669.364 676.918 678.559C676.618 678.959 676.25 679.034 675.813 678.784C675.451 678.572 675.232 678.166 675.158 677.567L673.959 441.534C673.959 440.825 674.116 440.123 674.421 439.479C674.725 438.834 675.168 438.264 675.719 437.807L700.984 416.962Z" fill="#FFDCA0"/>
<path d="M598.408 419.266C599.582 423.124 599.975 427.594 599.588 432.675L599.476 514.368C599.475 514.65 599.532 514.929 599.643 515.188C599.754 515.447 599.916 515.68 600.12 515.873C600.323 516.067 600.564 516.215 600.827 516.311C601.09 516.406 601.369 516.446 601.648 516.428C612.411 515.754 622.636 515.261 632.325 514.949C637.007 514.812 639.742 515.904 640.528 518.226L537.373 518.339C541.455 511.135 545.395 504.061 549.19 497.119C558.573 479.946 566.72 461.517 575.148 443.613C577.295 439.068 579.83 435.316 582.751 432.357C587.508 427.538 592.727 423.174 598.408 419.266Z" fill="#FFDCA0"/>
<path d="M352.843 436.702C355.14 438.325 356.295 440.036 356.308 441.833C356.495 517.933 356.589 594.269 356.589 670.843L305.198 721.784C303.151 723.807 303.563 724.899 306.434 725.062L308.494 725.174C309.565 725.233 310.636 725.06 311.634 724.669C312.632 724.278 313.535 723.678 314.281 722.908C326.705 710.173 339.315 697.612 352.113 685.227C352.924 684.44 353.673 683.385 354.36 682.061C354.984 680.863 355.708 679.764 356.533 678.765L356.607 726.354C356.62 726.966 356.314 727.272 355.69 727.272L280.645 727.066C280.456 727.067 280.27 727.021 280.104 726.931C279.937 726.841 279.796 726.711 279.693 726.552C279.591 726.394 279.53 726.212 279.516 726.023C279.502 725.835 279.537 725.646 279.615 725.474C280.233 724.144 280.645 723.582 280.608 721.99C280.321 711.065 280.383 700.615 280.795 690.639C300.697 674.308 318.957 656.029 335.576 635.803C335.953 635.338 336.152 634.755 336.138 634.155C336.125 633.555 335.899 632.977 335.501 632.525C333.004 629.703 330.219 629.909 327.148 633.143C319.132 641.571 310.817 649.605 302.951 658.239C295.772 666.105 288.318 673.883 280.589 681.575L280.102 661.479C287.868 652.402 296.084 643.256 304.749 634.042C307.764 630.821 309.993 627.131 312.521 623.536C312.705 623.273 312.821 622.969 312.857 622.651C312.893 622.333 312.848 622.01 312.727 621.714C312.606 621.417 312.412 621.156 312.163 620.954C311.914 620.752 311.619 620.616 311.304 620.558C308.813 620.108 306.172 621.869 304.374 623.873C296.746 632.4 288.867 640.934 280.739 649.474L280.945 637.076C283.692 634.591 286.239 631.963 288.586 629.192C294.916 621.763 301.19 614.296 307.408 606.792C310.979 602.472 314.569 598.171 318.177 593.889C333.291 575.909 342.936 556.17 345.595 533.396C346.469 525.842 347.393 519.587 348.367 514.63C350.614 503.281 351.719 495.771 351.682 492.1C351.532 474.308 350.221 454.213 352.843 436.702Z" fill="#FFDCA0"/>
<path d="M743.309 476.874L746.717 487.586C731.535 502.831 716.072 517.545 700.327 531.729C695.552 536.036 690.701 541.486 685.588 546.112C683.079 548.416 681.524 551.469 677.217 552.274C677.099 552.296 676.978 552.283 676.868 552.235C676.758 552.188 676.665 552.109 676.601 552.008C676.536 551.907 676.504 551.79 676.507 551.67C676.509 551.551 676.548 551.435 676.617 551.338C677.891 549.652 678.172 547.742 677.46 545.607C677.369 545.33 677.355 545.032 677.421 544.745C677.487 544.459 677.63 544.193 677.835 543.977L715.778 504.105L743.309 476.874Z" fill="#4A6D72"/>
<path d="M749.977 501.558L750.82 515.211C747.749 518.732 744.49 522.109 741.044 525.343C736.075 530.012 732.685 533.246 730.874 535.044C722.222 543.64 712.015 552.199 703.943 559.822C697.538 565.877 689.528 573.294 679.915 582.071C679.722 582.241 679.484 582.352 679.229 582.39C678.975 582.427 678.715 582.391 678.481 582.283C678.247 582.176 678.049 582.004 677.911 581.787C677.774 581.569 677.702 581.317 677.705 581.06L677.742 578.55C677.767 576.59 678.516 574.954 679.99 573.643C687.306 567.176 692.893 561.626 696.751 556.994C713.257 537.217 730.999 518.738 749.977 501.558Z" fill="#4A6D72"/>
<path d="M750.819 528.677C751.893 535.793 751.986 542.442 751.1 548.622C746.88 552.58 742.797 556.507 738.852 560.402C735.555 563.673 731.348 567.45 726.229 571.733C715.76 580.498 706.995 590.761 696.825 599.788C691.357 604.657 686.768 610.425 681.318 615.651C679.67 617.224 678.827 616.874 678.79 614.602C678.74 611.493 680.157 608.328 683.041 605.107C704.841 580.779 725.236 556.301 749.808 534.576C750.27 534.164 750.519 533.652 750.557 533.04L750.819 528.677Z" fill="#4A6D72"/>
<path d="M393.071 551.863C392.672 552.175 392.347 552.5 392.097 552.837C391.848 553.149 391.729 553.573 391.742 554.11C391.866 559.204 391.685 564.286 391.198 569.355C391.161 569.68 391.329 570.123 391.704 570.685C391.242 570.448 390.793 570.454 390.356 570.703L390.131 552.837C390.131 552.075 390.512 551.713 391.273 551.75L393.071 551.863Z" fill="#FE9C1C"/>
<path d="M599.532 552.087L599.869 569.13C599.874 569.274 599.849 569.419 599.796 569.554C599.743 569.689 599.662 569.812 599.558 569.915C599.455 570.019 599.331 570.1 599.195 570.155C599.058 570.21 598.912 570.237 598.764 570.234L572.582 569.954L476.038 570.459C475.865 570.459 475.692 570.421 475.532 570.347C472.985 569.354 470.307 570.647 468.34 570.684C446.528 571.034 424.741 570.915 402.979 570.328L402.604 551.506L599.532 552.087Z" fill="#FF7754"/>
<path d="M640.341 596.323C638.331 594.613 635.11 594.026 630.677 594.563C627.681 594.918 625.808 597.185 623.86 599.301C622.487 600.787 620.889 602.166 619.066 603.44C615.682 605.787 612.779 608.64 610.357 611.999C610.02 612.473 610.126 612.804 610.675 612.991C611.287 613.203 611.787 613.16 612.174 612.86C615.407 610.263 618.685 609.832 622.006 611.568C622.53 611.843 623.011 611.78 623.448 611.381L634.592 601.061C634.785 600.884 635.026 600.77 635.284 600.733C635.541 600.697 635.803 600.739 636.034 600.855C636.645 601.155 636.97 601.742 637.007 602.616C635.584 601.979 634.554 602.035 633.917 602.784C631.37 605.793 628.611 608.496 625.639 610.894C625.377 611.106 625.358 611.337 625.583 611.587L625.995 612.017C626.142 612.183 626.342 612.292 626.561 612.326C626.78 612.36 627.003 612.317 627.194 612.205C629.891 610.606 632.069 608.515 633.73 605.931C634.055 605.426 634.559 605.069 635.135 604.938C636.67 604.601 637.295 603.827 637.007 602.616C637.444 602.641 637.794 602.703 638.056 602.803C638.668 603.065 638.737 603.421 638.262 603.871L630.172 611.793C628.911 613.029 629.135 613.428 630.846 612.991C632.082 612.679 633.312 612.779 634.535 613.291C634.724 613.367 634.925 613.403 635.125 613.397C635.325 613.39 635.52 613.341 635.696 613.253L640.21 611.062L640.734 628.217C640.744 628.511 640.695 628.804 640.59 629.079C640.484 629.353 640.324 629.604 640.12 629.815C639.915 630.027 639.67 630.195 639.399 630.31C639.129 630.425 638.837 630.484 638.543 630.483L573.312 630.54C573.069 626.682 574.286 618.085 571.496 615.426C571.483 615.418 571.472 615.406 571.466 615.392C571.459 615.378 571.457 615.361 571.459 615.345C571.461 615.328 571.467 615.311 571.476 615.296C571.486 615.281 571.499 615.268 571.515 615.257C572.039 614.945 572.257 614.627 572.17 614.302C571.983 613.615 571.827 613.26 571.702 613.235C571.377 613.135 571.159 612.991 571.046 612.804C571.458 612.617 572.176 612.56 573.2 612.635L600.469 612.972C601.255 612.972 601.561 612.592 601.386 611.83C601.236 611.168 601.43 610.625 601.967 610.201C602.057 610.136 602.164 610.098 602.276 610.092C602.387 610.086 602.498 610.112 602.594 610.168C602.691 610.223 602.77 610.305 602.821 610.404C602.873 610.503 602.895 610.614 602.885 610.725C602.735 611.899 603.184 612.692 604.233 613.104C605.169 613.466 605.513 613.16 605.263 612.186C605.088 611.537 605.238 611.037 605.713 610.688C606.399 610.188 606.755 610.357 606.78 611.193C606.83 612.192 607.373 612.81 608.409 613.047C608.497 613.067 608.587 613.067 608.674 613.047C608.762 613.027 608.843 612.987 608.913 612.932C608.983 612.876 609.04 612.805 609.079 612.725C609.118 612.645 609.139 612.556 609.14 612.467C609.14 612.305 609.152 612.142 609.177 611.98C609.24 611.356 609.502 610.825 609.964 610.388L625.021 596.286C625.571 595.761 625.471 595.43 624.722 595.293C622.2 594.831 620.552 595.68 619.777 597.84C619.565 598.452 619.209 598.97 618.71 599.394C616.088 601.629 613.597 604.002 611.237 606.511C611.212 606.536 611.181 606.536 611.144 606.511L610.732 606.08C610.582 605.943 610.582 605.8 610.732 605.65L618.691 597.84C618.789 597.751 618.855 597.633 618.88 597.503C618.906 597.373 618.889 597.239 618.832 597.12C618.776 597 618.683 596.902 618.566 596.84C618.45 596.777 618.316 596.754 618.186 596.773C616.388 596.96 614.946 597.778 613.859 599.226C613.833 599.263 613.797 599.293 613.756 599.312C613.715 599.331 613.669 599.339 613.624 599.335C613.579 599.331 613.535 599.316 613.497 599.29C613.46 599.264 613.43 599.229 613.41 599.188C613.31 598.989 613.229 598.789 613.166 598.589C613.004 598.077 613.141 597.659 613.578 597.334L614.271 596.829C614.494 596.669 614.645 596.426 614.69 596.153C614.736 595.88 614.673 595.598 614.515 595.368C614.04 594.731 613.435 594.45 612.698 594.525C612.448 594.563 612.33 594.706 612.342 594.956C612.342 595.193 612.349 595.437 612.361 595.686C612.386 596.311 612.093 596.679 611.481 596.791C609.496 597.178 607.804 598.14 606.405 599.675C606.348 599.743 606.269 599.789 606.182 599.804C606.095 599.819 606.005 599.802 605.929 599.757C605.852 599.713 605.794 599.642 605.765 599.558C605.736 599.475 605.737 599.384 605.769 599.301C606.181 598.215 606.942 597.478 608.054 597.091C608.516 596.929 608.784 596.61 608.859 596.136C608.884 595.936 608.896 595.717 608.896 595.48C608.89 595.115 608.747 594.806 608.491 594.604C608.234 594.401 607.878 594.315 607.479 594.36C607.08 594.405 606.66 594.579 606.286 594.852C605.912 595.126 605.605 595.486 605.413 595.873C605.063 596.598 604.508 597.091 603.746 597.353C603.209 597.54 602.803 597.391 602.529 596.904C601.63 595.33 599.851 594.556 597.191 594.581C589.213 594.669 581.285 594.706 573.406 594.694C572.794 594.157 572.538 593.202 572.638 591.828C573.063 585.973 573.044 578.681 572.582 569.954L598.764 570.234C598.912 570.237 599.058 570.21 599.195 570.155C599.331 570.1 599.455 570.019 599.558 569.915C599.662 569.812 599.743 569.689 599.796 569.554C599.849 569.419 599.874 569.274 599.869 569.13L599.532 552.087L639.555 551.881C640.216 551.868 640.547 552.199 640.547 552.873L640.66 570.347C640.66 570.442 640.641 570.536 640.604 570.624C640.567 570.711 640.513 570.791 640.444 570.857C640.376 570.923 640.296 570.975 640.207 571.01C640.119 571.044 640.024 571.061 639.929 571.058C632.762 570.809 625.608 570.89 618.466 571.302C616.818 571.396 614.178 570.853 612.118 571.733C611.506 571.982 610.969 571.876 610.507 571.414L610.095 570.984C609.945 570.846 609.664 571.04 609.252 571.564C609.102 571.751 608.996 571.964 608.934 572.201C608.897 572.354 608.822 572.496 608.717 572.614C608.612 572.732 608.479 572.822 608.331 572.875C608.182 572.929 608.023 572.945 607.867 572.922C607.71 572.899 607.562 572.838 607.435 572.744L606.593 572.089C606.068 571.689 605.613 571.751 605.226 572.276C605.026 572.526 604.801 572.732 604.551 572.894C603.765 573.406 603.228 573.212 602.941 572.313C602.841 571.989 602.641 571.72 602.341 571.508C602.294 571.476 602.24 571.456 602.184 571.45C602.127 571.443 602.07 571.45 602.017 571.471C601.963 571.491 601.916 571.523 601.878 571.566C601.84 571.608 601.813 571.659 601.798 571.714C601.162 574.099 600.955 576.527 601.18 578.999C601.189 579.077 601.213 579.151 601.253 579.218C601.293 579.285 601.347 579.343 601.41 579.387C601.474 579.432 601.547 579.462 601.624 579.476C601.7 579.49 601.779 579.487 601.854 579.468C602.042 579.43 602.217 579.405 602.379 579.393C602.398 579.393 602.416 579.389 602.434 579.381C602.451 579.373 602.466 579.362 602.479 579.348C602.491 579.334 602.501 579.317 602.506 579.299C602.511 579.281 602.513 579.262 602.51 579.243C602.423 577.407 602.972 575.847 604.158 574.561C604.395 574.305 604.698 574.118 605.034 574.019C605.37 573.921 605.727 573.913 606.068 573.999C607.429 574.361 608.497 575.091 609.271 576.19C609.496 576.515 609.77 576.565 610.095 576.34L614.552 573.062C615.064 572.688 615.601 572.65 616.163 572.95C616.587 573.187 616.893 573.531 617.081 573.98C617.355 574.642 617.786 574.767 618.373 574.355L621.051 572.519C621.133 572.459 621.236 572.433 621.338 572.447C621.439 572.461 621.531 572.513 621.594 572.594C622.343 573.556 622.905 574.679 623.28 575.965C623.316 576.098 623.392 576.215 623.498 576.301C623.604 576.388 623.734 576.44 623.872 576.45C624.01 576.46 624.149 576.428 624.271 576.358C624.392 576.288 624.491 576.184 624.553 576.059C625.327 574.461 626.663 573.743 628.561 573.905C632.369 574.217 636.04 573.968 639.573 573.156C639.692 573.128 639.815 573.127 639.934 573.153C640.054 573.179 640.165 573.232 640.261 573.308C640.356 573.384 640.433 573.48 640.486 573.59C640.539 573.7 640.566 573.821 640.566 573.943L640.341 596.323Z" fill="#BB082A"/>
<path d="M393.071 551.862L402.604 551.506L402.978 570.328C399.595 571.577 395.836 571.695 391.704 570.684C391.329 570.122 391.161 569.679 391.198 569.354C391.685 564.285 391.866 559.203 391.741 554.109C391.729 553.572 391.847 553.148 392.097 552.836C392.347 552.499 392.671 552.174 393.071 551.862Z" fill="#FFFEFE"/>
<path d="M280.851 625.97L280.626 613.909C283.611 614.034 284.909 611.112 284.522 605.144C284.474 604.53 284.655 603.923 285.028 603.44C286.339 601.717 287.987 600.987 289.148 599.282C296.04 589.244 305.61 582.277 314.113 573.737C317.247 570.591 319.675 568.837 321.398 568.474C325.244 567.663 326.835 569.355 326.174 573.55C326.087 574.165 325.856 574.75 325.5 575.254C322.728 579.206 320.518 583.026 317.203 586.454C304.917 599.189 291.526 611.793 280.851 625.97Z" fill="#FFDCA0"/>
<path d="M751.118 567.876L750.856 583.42C749.882 582.883 749.289 582.758 749.077 583.046C746.368 586.716 743.377 590.144 740.106 593.327C720.341 612.53 700.633 631.795 680.981 651.123C678.883 653.202 678.078 654.681 676.935 657.341C676.661 657.978 676.473 657.953 676.374 657.266C675.287 649.862 677.073 643.744 681.73 638.912C693.167 627.001 704.46 614.971 715.609 602.823C726.977 590.425 739.02 579.431 751.118 567.876Z" fill="#4A6D72"/>
<path d="M572.581 569.954C573.043 578.682 573.062 585.973 572.638 591.829C572.538 593.202 572.794 594.158 573.405 594.694C568.449 594.133 563.511 593.889 558.591 593.964C510.485 594.701 462.378 594.882 414.271 594.507C414.109 594.507 412.161 594.389 408.428 594.151C406.006 594.001 403.902 594.208 402.116 594.769L394.194 595.106C392.409 595.181 391.485 596.112 391.422 597.897L390.935 611.25C390.861 613.086 391.741 613.96 393.576 613.872L402.285 613.404C410.9 613.117 420.158 612.923 430.059 612.823C448.787 612.636 467.516 612.599 486.244 612.711C486.618 612.711 486.956 612.742 487.255 612.805C488.379 613.029 488.978 613.142 489.053 613.142L571.046 612.805C571.158 612.992 571.376 613.136 571.701 613.235C571.826 613.26 571.982 613.616 572.169 614.303C572.257 614.628 572.038 614.946 571.514 615.258C571.499 615.268 571.485 615.282 571.476 615.297C571.466 615.312 571.46 615.329 571.458 615.346C571.456 615.362 571.459 615.378 571.465 615.393C571.472 615.407 571.482 615.418 571.495 615.427C574.286 618.086 573.068 626.682 573.312 630.54L390.992 630.634C390.193 630.634 389.799 630.235 389.812 629.435L390.355 570.703C390.792 570.454 391.241 570.448 391.703 570.685C395.836 571.696 399.594 571.577 402.978 570.329C424.74 570.916 446.527 571.034 468.34 570.685C470.306 570.647 472.984 569.355 475.531 570.348C475.691 570.422 475.864 570.46 476.037 570.46L572.581 569.954Z" fill="#FF4951"/>
<path d="M750.969 585.199C750.931 591.654 751.25 598.078 751.924 604.47C752.199 607.092 751.824 610.32 750.8 614.153C732.659 633.081 714.455 651.36 696.189 668.989C690.982 674.027 682.742 683.597 674.52 689.572L675.157 677.567C675.232 678.166 675.45 678.572 675.812 678.784C676.249 679.034 676.618 678.959 676.917 678.56C683.884 669.364 693.155 660.337 699.766 652.752C707.769 643.575 716.166 634.779 724.955 626.364C732.297 619.341 740.931 609.696 749.77 602.186C750.245 601.774 750.494 601.255 750.519 600.631L750.969 585.199Z" fill="#4A6D72"/>
<path d="M573.405 594.694L573.199 612.636C572.176 612.561 571.458 612.617 571.046 612.805L489.053 613.142C488.978 613.142 488.379 613.029 487.255 612.805C486.955 612.742 486.618 612.711 486.244 612.711C467.515 612.599 448.787 612.636 430.059 612.823C420.158 612.923 410.9 613.117 402.285 613.404C403.571 607.511 403.515 601.299 402.116 594.769C403.902 594.207 406.006 594.001 408.428 594.151C412.161 594.388 414.109 594.507 414.271 594.507C462.378 594.882 510.484 594.701 558.591 593.964C563.511 593.889 568.449 594.132 573.405 594.694Z" fill="#F4C68D"/>
<path d="M640.341 596.323L640.21 611.062L635.697 613.254C635.52 613.341 635.325 613.39 635.125 613.397C634.925 613.403 634.724 613.367 634.536 613.291C633.312 612.779 632.082 612.679 630.846 612.991C629.136 613.428 628.911 613.029 630.172 611.793L638.263 603.871C638.737 603.421 638.668 603.065 638.057 602.803C637.794 602.703 637.445 602.641 637.008 602.616C636.97 601.742 636.646 601.155 636.034 600.855C635.803 600.739 635.542 600.697 635.284 600.733C635.026 600.77 634.785 600.885 634.592 601.061L623.448 611.381C623.011 611.78 622.531 611.843 622.006 611.568C618.685 609.832 615.408 610.263 612.174 612.86C611.787 613.16 611.288 613.204 610.676 612.991C610.126 612.804 610.02 612.473 610.357 611.999C612.78 608.64 615.682 605.787 619.066 603.44C620.889 602.166 622.487 600.787 623.86 599.301C625.808 597.185 627.681 594.919 630.678 594.563C635.11 594.026 638.331 594.613 640.341 596.323Z" fill="#FF7754"/>
<path d="M402.117 594.769C403.516 601.299 403.572 607.51 402.286 613.403L393.577 613.872C391.742 613.959 390.862 613.085 390.937 611.25L391.423 597.896C391.486 596.111 392.41 595.181 394.195 595.106L402.117 594.769Z" fill="#FFFEFE"/>
<path d="M573.406 594.694C581.284 594.707 589.212 594.669 597.191 594.582C599.85 594.557 601.629 595.331 602.528 596.904C602.803 597.391 603.209 597.541 603.746 597.354C604.507 597.091 605.063 596.598 605.412 595.874C605.605 595.486 605.912 595.127 606.286 594.853C606.66 594.579 607.08 594.406 607.479 594.361C607.878 594.316 608.234 594.401 608.49 594.604C608.747 594.807 608.889 595.115 608.896 595.481C608.896 595.718 608.883 595.936 608.858 596.136C608.784 596.611 608.515 596.929 608.053 597.091C606.942 597.478 606.18 598.215 605.768 599.301C605.737 599.384 605.735 599.475 605.765 599.559C605.794 599.643 605.852 599.713 605.928 599.758C606.005 599.803 606.094 599.819 606.182 599.804C606.269 599.789 606.348 599.744 606.405 599.676C607.803 598.14 609.495 597.179 611.48 596.792C612.092 596.679 612.386 596.311 612.361 595.687C612.348 595.437 612.342 595.194 612.342 594.956C612.329 594.707 612.448 594.563 612.698 594.526C613.434 594.451 614.04 594.732 614.514 595.368C614.672 595.599 614.735 595.881 614.69 596.154C614.644 596.427 614.494 596.669 614.271 596.829L613.578 597.335C613.141 597.659 613.004 598.078 613.166 598.59C613.228 598.789 613.31 598.989 613.409 599.189C613.429 599.23 613.459 599.265 613.497 599.291C613.535 599.316 613.578 599.332 613.623 599.336C613.669 599.339 613.714 599.331 613.756 599.312C613.797 599.293 613.833 599.263 613.859 599.226C614.945 597.778 616.387 596.96 618.185 596.773C618.316 596.754 618.449 596.778 618.566 596.84C618.682 596.903 618.775 597.001 618.832 597.12C618.889 597.239 618.905 597.374 618.88 597.504C618.854 597.633 618.788 597.751 618.691 597.841L610.731 605.65C610.581 605.8 610.581 605.944 610.731 606.081L611.143 606.512C611.181 606.537 611.212 606.537 611.237 606.512C613.597 604.002 616.088 601.63 618.71 599.395C619.209 598.97 619.565 598.452 619.777 597.841C620.551 595.681 622.199 594.831 624.721 595.293C625.47 595.431 625.57 595.762 625.021 596.286L609.963 610.388C609.501 610.825 609.239 611.356 609.177 611.98C609.152 612.143 609.139 612.305 609.139 612.467C609.139 612.557 609.118 612.645 609.079 612.725C609.04 612.806 608.983 612.877 608.913 612.932C608.843 612.988 608.761 613.027 608.674 613.047C608.587 613.067 608.496 613.067 608.409 613.048C607.373 612.811 606.829 612.193 606.78 611.194C606.755 610.357 606.399 610.189 605.712 610.688C605.238 611.038 605.088 611.537 605.263 612.186C605.512 613.16 605.169 613.466 604.233 613.104C603.184 612.692 602.734 611.899 602.884 610.726C602.894 610.615 602.872 610.503 602.821 610.404C602.77 610.305 602.691 610.223 602.594 610.168C602.497 610.113 602.387 610.086 602.275 610.092C602.164 610.098 602.057 610.136 601.966 610.201C601.43 610.626 601.236 611.169 601.386 611.831C601.561 612.592 601.255 612.973 600.468 612.973L573.2 612.636L573.406 594.694Z" fill="#FF7754"/>
<path d="M637.009 602.616C637.296 603.827 636.671 604.601 635.136 604.938C634.56 605.07 634.056 605.426 633.731 605.931C632.071 608.516 629.892 610.607 627.195 612.205C627.004 612.317 626.781 612.36 626.562 612.326C626.343 612.292 626.144 612.183 625.996 612.018L625.584 611.587C625.36 611.337 625.378 611.106 625.64 610.894C628.612 608.497 631.371 605.794 633.918 602.785C634.555 602.035 635.585 601.979 637.009 602.616Z" fill="#FF7754"/>
<path d="M750.801 614.153L751.587 633.968C740.538 641.178 729.244 653.895 720.742 662.94C711.203 673.079 704.498 680.102 700.627 684.01C693.723 690.989 687.043 698.187 680.588 705.603C680.451 705.753 680.282 705.828 680.083 705.828C679.895 705.828 679.708 705.834 679.521 705.847C679.325 705.846 679.136 705.917 678.988 706.048C678.839 706.179 678.743 706.36 678.715 706.559C678.303 709.218 676.992 710.529 674.782 710.492C673.684 703.687 673.596 696.714 674.52 689.572C682.742 683.598 690.982 674.028 696.189 668.99C714.455 651.36 732.659 633.081 750.801 614.153Z" fill="#FFDCA0"/>
<path d="M280.102 661.48L280.739 649.475C288.867 640.935 296.745 632.401 304.374 623.873C306.172 621.869 308.813 620.109 311.303 620.559C311.619 620.616 311.914 620.753 312.163 620.955C312.411 621.157 312.605 621.418 312.727 621.714C312.848 622.011 312.892 622.333 312.856 622.652C312.821 622.97 312.705 623.274 312.521 623.536C309.992 627.132 307.764 630.822 304.749 634.043C296.084 643.257 287.868 652.403 280.102 661.48Z" fill="#FE9C1C"/>
<path d="M280.796 690.639L280.59 681.574C288.318 673.883 295.772 666.105 302.951 658.239C310.817 649.605 319.133 641.571 327.148 633.143C330.22 629.909 333.004 629.703 335.501 632.525C335.899 632.977 336.125 633.554 336.139 634.154C336.153 634.755 335.953 635.338 335.576 635.802C318.958 656.029 300.698 674.308 280.796 690.639Z" fill="#FE9C1C"/>
<path d="M751.588 633.968C752.224 635.679 752.106 637.283 751.232 638.781C748.473 641.166 747.355 643.582 747.879 646.029C748.028 646.731 748 647.458 747.798 648.145C747.595 648.832 747.224 649.456 746.718 649.962L674.558 721.317L674.783 710.492C676.993 710.529 678.304 709.218 678.716 706.559C678.743 706.361 678.84 706.179 678.988 706.048C679.136 705.917 679.326 705.846 679.521 705.847C679.708 705.835 679.896 705.829 680.083 705.829C680.283 705.829 680.451 705.754 680.589 705.604C687.044 698.187 693.723 690.989 700.628 684.01C704.498 680.102 711.203 673.079 720.742 662.941C729.245 653.895 740.538 641.178 751.588 633.968Z" fill="#153E48"/>
<path d="M751.231 638.781L751.4 661.629C751.868 666.105 747.392 666.368 745.407 668.84C740.837 674.521 736.043 680.039 731.024 685.396L691.713 725.661C691.28 726.106 690.762 726.459 690.189 726.7C689.617 726.941 689.001 727.066 688.379 727.066H675.513C674.801 727.066 674.389 726.716 674.277 726.017C673.977 724.219 674.071 722.652 674.558 721.316L746.718 649.962C747.223 649.456 747.594 648.832 747.797 648.145C748 647.458 748.028 646.73 747.879 646.029C747.355 643.581 748.472 641.165 751.231 638.781Z" fill="#ADB3A1"/>
<path d="M751.4 661.629C751.95 664.851 751.9 667.766 751.25 670.375C749.165 670.95 747.686 672.717 746.812 675.676C746.65 676.225 746.631 676.781 746.756 677.342C747.973 682.568 740.95 687.643 737.747 691.145C728.346 701.408 718.744 711.472 708.943 721.335C705.585 724.706 705.085 726.642 707.445 727.141L695.871 726.729C694.847 726.692 694.691 726.304 695.403 725.568L732.653 687.212C733.889 685.939 733.621 685.327 731.848 685.377L731.024 685.396C736.043 680.039 740.838 674.521 745.407 668.84C747.392 666.368 751.868 666.105 751.4 661.629Z" fill="#4A6D72"/>
<path d="M639.911 668.109C612.58 667.547 585.381 667.859 558.312 669.045L405.264 668.952C403.679 668.952 402.898 669.744 402.923 671.33L403.092 684.421C403.104 685.882 403.841 686.612 405.302 686.612L558.256 686.556C558.668 686.731 558.924 687.012 559.024 687.399C559.161 687.886 559.005 688.254 558.555 688.504C558.218 688.691 557.962 688.897 557.788 689.122L391.593 689.159C390.968 689.159 390.656 688.854 390.656 688.242L390.619 664.738C390.619 663.989 390.993 663.614 391.742 663.614C474.297 663.464 556.832 663.664 639.349 664.213C640.311 664.213 640.498 665.512 639.911 668.109Z" fill="#FFFEFE"/>
<path d="M639.91 668.11L640.041 687.981C640.041 688.53 639.767 688.805 639.217 688.805L557.787 689.123C557.961 688.898 558.217 688.692 558.554 688.505C559.004 688.255 559.16 687.887 559.023 687.4C558.923 687.013 558.667 686.732 558.255 686.557L558.311 669.046C585.38 667.86 612.579 667.548 639.91 668.11Z" fill="#BEB197"/>
<path d="M558.311 669.045L558.255 686.556L405.301 686.612C403.84 686.612 403.103 685.882 403.091 684.421L402.922 671.33C402.897 669.744 403.678 668.951 405.263 668.951L558.311 669.045Z" fill="#FFDCA0"/>
<path d="M356.588 670.843L356.532 678.765C355.708 679.764 354.983 680.863 354.359 682.062C353.673 683.385 352.923 684.44 352.112 685.227C339.314 697.612 326.704 710.173 314.281 722.908C313.534 723.678 312.632 724.278 311.633 724.669C310.635 725.06 309.564 725.233 308.494 725.174L306.433 725.062C303.562 724.899 303.15 723.807 305.197 721.784L356.588 670.843Z" fill="#FE9C1C"/>
<path d="M751.25 670.375L751.287 681.275L750.688 694.104C750.663 694.728 750.444 695.284 750.032 695.771C742.241 704.892 731.267 715.08 723.775 726.766L707.444 727.141C705.084 726.641 705.584 724.706 708.942 721.335C718.743 711.471 728.345 701.408 737.746 691.145C740.949 687.643 747.972 682.567 746.755 677.342C746.63 676.78 746.649 676.225 746.811 675.675C747.685 672.716 749.165 670.95 751.25 670.375Z" fill="#ADB3A1"/>
<path d="M751.287 681.275L751.212 709.311C750.95 708.987 750.707 708.787 750.482 708.712C750.245 708.637 749.964 709.012 749.639 709.836C749.564 710.036 749.433 710.135 749.246 710.135C748.959 710.135 748.715 710.242 748.515 710.454L736.81 723.451C736.504 723.789 736.303 724.208 736.232 724.658C736.16 725.108 736.222 725.569 736.409 725.985C736.596 726.4 736.9 726.752 737.284 726.998C737.668 727.243 738.115 727.371 738.571 727.365L739.638 727.347L723.775 726.766C731.267 715.08 742.241 704.892 750.032 695.771C750.444 695.284 750.663 694.728 750.688 694.104L751.287 681.275Z" fill="#4A6D72"/>
<path d="M751.213 709.312L751.531 726.205C751.544 727.016 751.15 727.422 750.351 727.422L739.639 727.347L738.571 727.366C738.115 727.371 737.668 727.243 737.284 726.998C736.9 726.753 736.596 726.401 736.409 725.985C736.222 725.569 736.161 725.108 736.232 724.658C736.303 724.208 736.504 723.789 736.811 723.452L748.516 710.454C748.716 710.242 748.959 710.136 749.246 710.136C749.434 710.136 749.565 710.036 749.64 709.836C749.964 709.012 750.245 708.637 750.482 708.712C750.707 708.787 750.95 708.987 751.213 709.312Z" fill="#ADB3A1"/>
<path d="M639.761 724.837C638.812 724.775 637.838 724.481 636.839 723.957C636.278 723.657 635.685 723.52 635.06 723.545C625.409 723.869 615.758 723.782 606.106 723.283C605.07 723.233 603.297 723.464 600.787 723.975C600.538 724.027 600.314 724.164 600.154 724.362C599.993 724.56 599.906 724.807 599.907 725.062L599.664 766.788C599.664 767.45 599.995 767.781 600.656 767.781L636.034 768.099C636.339 768.102 636.641 768.044 636.923 767.929C637.205 767.814 637.461 767.644 637.675 767.429C637.89 767.214 638.059 766.959 638.173 766.679C638.287 766.398 638.343 766.098 638.338 765.796C638.113 753.523 637.882 741.024 637.645 728.302C637.632 727.69 637.895 727.397 638.431 727.422C638.818 727.446 639.043 727.646 639.106 728.021C639.168 728.458 639.412 728.657 639.836 728.62L640.005 768.811C640.005 769.385 639.711 769.673 639.124 769.673L403.822 769.785C401.874 758.411 401.156 747.161 401.668 736.036C401.756 733.976 402.155 729.013 402.867 721.147L638.244 721.522C638.571 721.522 638.893 721.604 639.18 721.762C639.467 721.921 639.709 722.15 639.884 722.428C640.06 722.706 640.163 723.024 640.184 723.354C640.205 723.683 640.143 724.013 640.005 724.313L639.761 724.837Z" fill="#FFDCA0"/>
<path d="M402.866 721.148C402.155 729.014 401.755 733.977 401.668 736.037C401.156 747.161 401.874 758.411 403.822 769.785L390.805 769.766C390.169 769.766 389.857 769.448 389.869 768.811L390.131 721.953C390.131 721.841 390.154 721.73 390.197 721.626C390.241 721.523 390.304 721.429 390.385 721.35C390.465 721.272 390.56 721.21 390.664 721.169C390.769 721.128 390.88 721.108 390.993 721.11L402.866 721.148Z" fill="#FFFEFE"/>
<path d="M639.761 724.838L639.836 728.621C639.411 728.658 639.168 728.458 639.105 728.021C639.043 727.647 638.818 727.447 638.431 727.422C637.894 727.397 637.632 727.691 637.645 728.302C637.882 741.025 638.113 753.523 638.338 765.797C638.343 766.099 638.287 766.399 638.173 766.68C638.059 766.96 637.89 767.215 637.675 767.43C637.461 767.644 637.205 767.814 636.923 767.929C636.641 768.045 636.339 768.103 636.034 768.1L600.656 767.782C599.994 767.782 599.664 767.451 599.664 766.789L599.907 725.062C599.906 724.808 599.993 724.56 600.154 724.362C600.314 724.165 600.538 724.028 600.787 723.976C603.297 723.464 605.07 723.233 606.106 723.283C615.757 723.783 625.409 723.87 635.06 723.545C635.684 723.521 636.277 723.658 636.839 723.957C637.838 724.482 638.812 724.775 639.761 724.838Z" fill="#BEB197"/>
<path d="M288.792 566.845C287.83 561.639 287.949 557.624 289.148 554.803C290.221 552.306 294.473 547.592 301.902 540.663C304.436 538.303 306.946 538.322 309.43 540.719L310.61 541.861C312.845 544.021 312.845 546.182 310.61 548.342L290.833 567.501C289.747 568.562 289.066 568.343 288.792 566.845Z" fill="#FFDCA0"/>
<path d="M288.343 707.232C293.006 703.674 296.995 697.325 300.647 693.467C311.497 681.993 326.505 667.241 345.67 649.212C345.976 648.919 346.354 648.713 346.766 648.616C347.177 648.518 347.608 648.532 348.012 648.656C348.417 648.78 348.781 649.009 349.067 649.321C349.354 649.633 349.551 650.016 349.64 650.429L349.79 651.122C350.29 653.42 349.703 655.399 348.03 657.059L285.552 719.237C284.591 720.199 283.935 720.017 283.586 718.694C283.436 718.145 283.124 717.751 282.649 717.514C282.037 717.202 281.856 716.734 282.106 716.109C283.661 712.176 284.766 709.967 288.343 707.232Z" fill="#FE9C1C"/>
<path d="M352.599 714.05C353.348 714.998 353.198 715.779 352.149 716.391C349.927 717.689 347.742 719.275 345.594 721.148C343.628 722.852 341.437 723.17 339.339 724.107C337.129 725.068 336.624 724.506 337.822 722.421C340.444 717.801 343.815 713.837 347.935 710.529C348.71 709.904 349.409 709.985 350.033 710.772L352.599 714.05Z" fill="#FE9C1C"/>
<path d="M687.35 541.019C686.975 541.518 686.501 541.843 685.926 541.993C684.94 542.255 684.765 541.993 685.402 541.206C692.931 532.042 701.065 523.458 709.805 515.455C710.517 514.793 711.272 514.743 712.071 515.305L712.614 515.68C712.704 515.742 712.778 515.825 712.83 515.922C712.881 516.019 712.909 516.127 712.911 516.237C712.913 516.346 712.889 516.455 712.84 516.553C712.792 516.652 712.721 516.738 712.633 516.803C710.86 518.139 709.405 519.494 708.269 520.867C704.187 525.793 699.467 531.374 694.036 534.895C692.026 536.206 690.209 537.748 688.586 539.521C688.162 539.969 687.749 540.47 687.35 541.019Z" fill="#DCBA8D"/>
<path d="M622.381 604.639L621.838 604.096C621.805 604.064 621.779 604.026 621.761 603.985C621.744 603.943 621.734 603.898 621.734 603.852C621.734 603.807 621.744 603.762 621.761 603.72C621.779 603.678 621.805 603.64 621.838 603.609L630.472 595.668C630.532 595.61 630.61 595.576 630.693 595.573C630.776 595.569 630.857 595.596 630.922 595.649L631.483 596.136C631.519 596.168 631.548 596.207 631.568 596.25C631.587 596.294 631.597 596.341 631.597 596.389C631.597 596.437 631.587 596.484 631.568 596.528C631.548 596.571 631.519 596.61 631.483 596.642L622.85 604.639C622.787 604.699 622.703 604.733 622.616 604.733C622.528 604.733 622.444 604.699 622.381 604.639Z" fill="#BB082A"/>
<path d="M626.258 605.463C624.847 606.587 623.792 608.073 623.093 609.92C623.018 610.133 622.88 610.195 622.681 610.108L622.156 609.902C621.844 609.764 621.757 609.533 621.894 609.209C623.898 604.658 628.337 602.523 630.902 599.994C632.463 598.471 634.111 597.01 635.847 595.612C635.891 595.581 635.944 595.566 635.995 595.569C636.047 595.573 636.094 595.594 636.128 595.631L636.54 595.968C636.852 596.23 636.845 596.486 636.521 596.736C634.111 598.621 631.832 600.619 629.685 602.729C629.585 602.816 628.443 603.728 626.258 605.463Z" fill="#BB082A"/>
<path d="M636.989 608.571C637.176 607.997 637.613 607.691 638.3 607.654C638.937 607.629 639.074 607.878 638.712 608.403C637.513 610.088 635.897 611.162 633.861 611.624C633.025 611.811 632.913 611.605 633.524 611.006C634.136 610.394 634.885 609.964 635.772 609.714C636.384 609.552 636.789 609.171 636.989 608.571Z" fill="#BB082A"/>
<path d="M603.971 604.695C604.159 604.682 604.327 604.726 604.477 604.826C604.525 604.86 604.565 604.904 604.594 604.953C604.624 605.003 604.644 605.058 604.651 605.115C604.658 605.172 604.653 605.229 604.636 605.282C604.619 605.336 604.59 605.385 604.552 605.425L601.743 608.609C601.665 608.695 601.561 608.752 601.447 608.772C601.333 608.792 601.216 608.774 601.113 608.721C601.011 608.667 600.929 608.581 600.88 608.477C600.831 608.372 600.818 608.254 600.844 608.141C600.994 607.454 601.299 606.867 601.761 606.38C602.173 605.943 602.242 605.463 601.967 604.938C601.605 604.227 601.53 603.503 601.743 602.766C601.905 602.154 602.255 601.73 602.791 601.492C603.253 601.28 603.74 601.161 604.252 601.136C604.355 601.139 604.453 601.176 604.531 601.242C604.61 601.308 604.663 601.399 604.683 601.5C604.702 601.6 604.687 601.704 604.639 601.795C604.592 601.886 604.515 601.957 604.421 601.998C603.509 602.348 603.116 603.041 603.241 604.077C603.291 604.501 603.534 604.707 603.971 604.695Z" fill="#BB082A"/>
</svg>
