<svg width="1024" height="1024" viewBox="0 0 1024 1024" fill="none" xmlns="http://www.w3.org/2000/svg">
<rect width="1024" height="1024" fill="white"/>
<path d="M346.349 399.943L346.105 381.976C346.094 381.326 346.403 381.066 347.031 381.196C351.612 382.128 356.654 384.099 362.155 387.11C364.04 388.138 365.031 389.378 365.128 390.83C365.724 399.234 365.962 407.779 365.843 416.465C365.843 416.622 365.878 416.776 365.945 416.917C366.013 417.058 366.111 417.181 366.233 417.277L373.868 423.499C374.226 423.802 374.421 423.721 374.453 423.255L376.273 392.942C376.278 392.844 376.307 392.749 376.357 392.665C376.407 392.581 376.475 392.51 376.558 392.458C376.64 392.405 376.734 392.373 376.831 392.364C376.928 392.355 377.026 392.369 377.117 392.405L389.009 397.198C389.637 397.447 389.929 397.236 389.886 396.564C389.187 386.07 394.581 379.604 402.573 374.016C408.649 369.743 411.313 365.975 410.095 358.729C408.584 349.762 407.301 340.746 409.9 332.331C414.01 319.01 426.08 307.102 439.726 304.747C443.755 304.053 449.035 304.048 455.565 304.73C457.547 304.941 459.48 304.227 461.349 303.025C464.554 300.967 468.009 299.738 471.713 299.337C472.013 299.308 472.29 299.163 472.485 298.932C472.679 298.701 472.775 298.403 472.752 298.102C472.092 288.139 475.98 281.175 484.417 277.211C487.048 275.976 490.492 275.473 493.66 274.677C494.375 274.493 494.451 274.168 493.887 273.702C488.776 269.554 485.407 264.329 483.783 258.025C478.455 237.329 490.882 216.568 512.082 212.571C525.631 210.037 539.39 216.097 547.123 227.485C557.211 242.365 555.327 260.105 543.354 273.637C543.285 273.718 543.236 273.815 543.214 273.919C543.192 274.023 543.197 274.131 543.228 274.233C543.258 274.335 543.314 274.428 543.39 274.503C543.466 274.577 543.56 274.632 543.663 274.66C547.691 275.83 552.467 276.626 555.798 278.771C559.892 281.386 564.343 286.714 564.603 291.767C564.7 293.694 564.857 295.617 565.074 297.534C565.15 298.14 565.464 298.573 566.016 298.833L578.249 304.73C578.736 304.958 579.24 305.006 579.759 304.876C591.001 301.909 601.014 303.393 609.797 309.328C621.542 317.255 629.519 331.746 627.472 346.155C626.188 355.123 622.809 365.39 631.533 372.002C640.841 379.036 647.567 384.51 647.421 397.62C647.42 397.674 647.434 397.726 647.46 397.773C647.487 397.82 647.525 397.86 647.572 397.889C647.618 397.918 647.672 397.935 647.728 397.939C647.784 397.943 647.84 397.934 647.892 397.913L661.18 392.113C662.177 391.669 662.686 391.994 662.707 393.088L663.162 424.327C663.16 424.383 663.173 424.438 663.201 424.486C663.229 424.535 663.271 424.574 663.32 424.599C663.37 424.625 663.425 424.636 663.481 424.631C663.536 424.626 663.589 424.605 663.633 424.571L672.536 418.284C672.861 418.057 673.023 417.743 673.023 417.342L672.812 391.35C672.802 390.455 673.064 389.578 673.563 388.836C674.061 388.093 674.774 387.52 675.606 387.191L691.153 380.985C691.24 380.95 691.334 380.938 691.427 380.948C691.52 380.958 691.609 380.991 691.686 381.044C691.763 381.098 691.826 381.169 691.869 381.252C691.912 381.335 691.934 381.428 691.932 381.521L691.884 401.616C691.884 401.671 691.899 401.725 691.927 401.772C691.955 401.819 691.995 401.858 692.043 401.884C692.091 401.911 692.145 401.924 692.2 401.923C692.255 401.921 692.308 401.905 692.355 401.876L703.759 394.615C703.869 394.544 703.959 394.447 704.022 394.334C704.084 394.22 704.117 394.093 704.116 393.965L704.149 379.019C704.153 378.424 704.349 377.845 704.709 377.368C705.069 376.891 705.573 376.542 706.147 376.372C725.23 370.805 744.458 368.011 763.833 367.989C767.169 367.989 768.344 369.76 767.359 373.301C766.092 377.839 764.862 382.377 763.671 386.915C754.817 420.786 735.697 452.253 711.54 477.839C710.847 478.575 710.917 479.22 711.751 479.772C712.444 480.238 713.414 480.628 714.659 480.942C729.719 484.824 745.054 492.589 743.527 511.028C742.601 522.383 740.635 532.016 749.879 540.805C752.662 543.458 755.354 546.177 757.953 548.96C781.768 574.481 775.14 613.567 744.079 629.455C738.816 632.152 732.383 633.614 726.47 635.043C725.43 635.296 724.507 635.892 723.85 636.736C723.192 637.579 722.839 638.62 722.847 639.689C722.977 655.902 716.219 668.568 702.573 677.687C679.554 693.071 648.671 686.573 626.529 671.709C624.141 670.1 621.932 669.905 619.251 669.84C619.006 669.83 618.762 669.886 618.545 670.003C618.329 670.12 618.147 670.294 618.019 670.506C617.892 670.718 617.823 670.96 617.82 671.209C617.816 671.458 617.879 671.703 618.001 671.92C624.726 683.898 625.04 695.459 618.943 706.603C615.044 713.735 606.467 720.152 602.454 726.195C598.604 732.027 599.79 742.034 599.351 749.198C598.133 769.829 585.835 785.977 566.877 794.213C555.809 799.033 545.303 800.295 535.361 797.999C529.806 796.71 524.829 795.903 520.432 795.578C510.376 794.847 500.191 799.639 489.729 798.941C466.271 797.349 444.08 781.022 438.622 757.418C436.526 748.321 439.092 738.606 435.226 729.996C432.627 724.246 429.248 720.395 424.131 715.766C414.968 707.416 410.745 695.102 414.254 683.324C414.806 681.472 416.317 677.698 418.786 672.001C419.024 671.449 418.862 671.07 418.299 670.864C413.019 668.898 406.147 672.521 401.777 675.331C397.933 677.811 391.635 680.394 382.884 683.08C349.728 693.25 311.665 678.84 310.415 639.495C310.387 638.605 310.079 637.745 309.534 637.037C308.989 636.329 308.235 635.808 307.377 635.547C303.651 634.399 299.72 633.094 295.583 631.632C264.896 620.796 252.874 589.947 266.455 560.673C272.336 548.018 287.054 542.235 291.099 529.352C292.919 523.536 291.473 517.233 291.05 511.044C290.319 500.696 296.59 492.102 305.249 487.391C310.739 484.418 319.512 483.053 326.432 480.974C327.743 480.584 327.856 479.702 326.773 478.326C326.741 478.283 326.703 478.245 326.66 478.212C304.518 456.59 289.117 428.129 278.574 399.326C275.731 391.577 273.213 381.814 270.403 373.35C270.211 372.764 270.158 372.141 270.248 371.531C270.338 370.921 270.569 370.341 270.922 369.835C271.275 369.329 271.74 368.913 272.281 368.618C272.823 368.323 273.425 368.157 274.042 368.135C292.464 367.55 314.736 370.653 330.77 375.624C332.308 376.101 333.071 377.514 333.06 379.864C333.039 384.38 333.358 388.377 334.019 391.853C334.235 392.958 334.809 393.824 335.741 394.452L345.001 400.674C345.91 401.292 346.36 401.048 346.349 399.943Z" fill="#010F0C"/>
<path d="M350.616 267.307C348.997 268.139 347.225 268.633 345.4 268.76C343.575 268.887 341.734 268.646 339.98 268.049C338.227 267.453 336.596 266.513 335.182 265.283C333.767 264.054 332.595 262.559 331.734 260.883C329.995 257.499 329.626 253.587 330.708 250.007C331.789 246.426 334.233 243.471 337.502 241.791C339.121 240.959 340.893 240.466 342.717 240.338C344.542 240.211 346.384 240.452 348.137 241.049C349.891 241.645 351.521 242.585 352.936 243.815C354.351 245.045 355.522 246.54 356.384 248.215C358.122 251.599 358.492 255.511 357.41 259.092C356.328 262.672 353.884 265.627 350.616 267.307Z" fill="#010F0C"/>
<path d="M701.032 269.186C697.481 269.019 694.146 267.374 691.76 264.614C689.374 261.855 688.132 258.205 688.308 254.47C688.396 252.62 688.828 250.805 689.582 249.128C690.335 247.45 691.395 245.944 692.699 244.695C694.004 243.446 695.529 242.478 697.186 241.846C698.844 241.215 700.602 240.933 702.36 241.016C705.911 241.183 709.246 242.828 711.632 245.588C714.018 248.348 715.259 251.997 715.083 255.732C714.996 257.582 714.563 259.397 713.81 261.074C713.057 262.752 711.997 264.258 710.692 265.507C709.388 266.757 707.863 267.724 706.205 268.356C704.548 268.987 702.79 269.269 701.032 269.186Z" fill="#010F0C"/>
<path d="M316.263 288.826C316.263 290.735 315.887 292.626 315.157 294.39C314.426 296.154 313.355 297.757 312.005 299.107C310.655 300.457 309.052 301.528 307.288 302.259C305.524 302.989 303.633 303.365 301.724 303.365C297.868 303.365 294.17 301.834 291.443 299.107C288.717 296.38 287.185 292.682 287.185 288.826C287.185 284.97 288.717 281.272 291.443 278.545C294.17 275.818 297.868 274.287 301.724 274.287C303.633 274.287 305.524 274.663 307.288 275.393C309.052 276.124 310.655 277.195 312.005 278.545C313.355 279.895 314.426 281.498 315.157 283.262C315.887 285.026 316.263 286.917 316.263 288.826Z" fill="#010F0C"/>
<path d="M672.162 288.534C672.162 292.304 670.665 295.92 667.999 298.585C665.333 301.251 661.718 302.749 657.948 302.749C654.178 302.749 650.563 301.251 647.897 298.585C645.231 295.92 643.733 292.304 643.733 288.534C643.733 284.764 645.231 281.149 647.897 278.483C650.563 275.817 654.178 274.32 657.948 274.32C661.718 274.32 665.333 275.817 667.999 278.483C670.665 281.149 672.162 284.764 672.162 288.534Z" fill="#010F0C"/>
<path d="M760.423 288.713C760.423 292.569 758.891 296.267 756.164 298.993C753.437 301.72 749.739 303.252 745.883 303.252C742.027 303.252 738.329 301.72 735.602 298.993C732.875 296.267 731.344 292.569 731.344 288.713C731.344 284.856 732.875 281.158 735.602 278.432C738.329 275.705 742.027 274.173 745.883 274.173C749.739 274.173 753.437 275.705 756.164 278.432C758.891 281.158 760.423 284.856 760.423 288.713Z" fill="#010F0C"/>
<path d="M384.038 302.7C382.35 302.158 380.791 301.271 379.45 300.088C378.11 298.906 377.013 297.452 376.224 295.809C375.435 294.166 374.968 292.367 374.851 290.513C374.733 288.66 374.967 286.79 375.539 285.008C376.694 281.411 379.156 278.395 382.383 276.625C385.611 274.855 389.339 274.475 392.748 275.57C394.436 276.112 395.994 276.999 397.335 278.182C398.676 279.364 399.772 280.818 400.561 282.461C401.35 284.104 401.817 285.903 401.934 287.756C402.052 289.61 401.818 291.48 401.246 293.262C400.091 296.859 397.629 299.875 394.402 301.645C391.175 303.415 387.446 303.794 384.038 302.7Z" fill="#010F0C"/>
<path d="M346.426 338.283C342.74 338.502 339.113 337.164 336.343 334.564C333.573 331.963 331.887 328.313 331.655 324.416C331.541 322.487 331.787 320.555 332.379 318.731C332.972 316.907 333.899 315.227 335.109 313.786C336.318 312.345 337.786 311.171 339.428 310.333C341.07 309.494 342.855 309.007 344.68 308.898C348.366 308.679 351.993 310.017 354.763 312.618C357.533 315.218 359.219 318.868 359.451 322.765C359.565 324.694 359.319 326.626 358.727 328.45C358.134 330.274 357.207 331.955 355.997 333.396C354.788 334.837 353.32 336.01 351.678 336.849C350.036 337.687 348.251 338.175 346.426 338.283Z" fill="#010F0C"/>
<path d="M702.317 338.841C700.487 338.997 698.642 338.774 696.888 338.184C695.135 337.594 693.506 336.647 692.095 335.4C690.685 334.152 689.52 332.627 688.668 330.912C687.815 329.197 687.291 327.325 687.127 325.403C686.794 321.523 687.943 317.675 690.321 314.707C692.7 311.739 696.112 309.893 699.808 309.577C701.638 309.42 703.483 309.643 705.237 310.233C706.991 310.823 708.619 311.77 710.03 313.017C711.44 314.265 712.605 315.79 713.458 317.505C714.31 319.221 714.834 321.092 714.999 323.014C715.331 326.894 714.182 330.742 711.804 333.71C709.426 336.678 706.013 338.524 702.317 338.841Z" fill="#010F0C"/>
<path d="M352.184 709.173C352.55 712.435 351.576 715.713 349.476 718.285C347.376 720.856 344.323 722.511 340.987 722.885C339.336 723.07 337.665 722.936 336.07 722.489C334.475 722.041 332.987 721.291 331.691 720.28C330.395 719.268 329.316 718.016 328.517 716.594C327.717 715.173 327.213 713.61 327.032 711.994C326.666 708.731 327.64 705.454 329.739 702.882C331.839 700.311 334.892 698.656 338.228 698.282C339.879 698.097 341.55 698.231 343.146 698.678C344.741 699.125 346.229 699.876 347.525 700.887C348.821 701.899 349.899 703.151 350.699 704.573C351.498 705.994 352.003 707.557 352.184 709.173Z" fill="#010F0C"/>
<path d="M648.251 731.007C646.651 731.261 645.016 731.182 643.437 730.777C641.858 730.372 640.367 729.647 639.049 728.645C637.731 727.642 636.612 726.382 635.755 724.935C634.899 723.488 634.322 721.883 634.057 720.212C633.793 718.541 633.846 716.837 634.213 715.196C634.581 713.556 635.255 712.011 636.199 710.65C637.143 709.29 638.337 708.14 639.713 707.266C641.09 706.393 642.621 705.813 644.22 705.56C645.82 705.306 647.455 705.385 649.034 705.79C650.613 706.195 652.104 706.92 653.422 707.922C654.74 708.925 655.859 710.186 656.716 711.632C657.572 713.079 658.149 714.684 658.414 716.355C658.678 718.026 658.626 719.73 658.258 721.371C657.89 723.011 657.216 724.556 656.272 725.917C655.328 727.277 654.134 728.427 652.758 729.301C651.382 730.174 649.85 730.754 648.251 731.007Z" fill="#010F0C"/>
<path d="M699.817 742.877C696.499 743.114 693.216 741.926 690.689 739.572C688.163 737.218 686.599 733.891 686.344 730.324C686.217 728.558 686.415 726.786 686.927 725.109C687.439 723.433 688.254 721.884 689.326 720.552C690.398 719.22 691.706 718.13 693.175 717.345C694.644 716.561 696.246 716.096 697.889 715.979C701.207 715.741 704.49 716.93 707.016 719.284C709.543 721.638 711.106 724.964 711.362 728.531C711.489 730.297 711.29 732.069 710.779 733.746C710.267 735.423 709.452 736.971 708.38 738.303C707.308 739.636 706 740.725 704.531 741.51C703.061 742.294 701.46 742.759 699.817 742.877Z" fill="#010F0C"/>
<path d="M405.677 730.11C405.677 733.557 404.308 736.863 401.87 739.3C399.433 741.737 396.127 743.106 392.681 743.106C389.234 743.106 385.928 741.737 383.491 739.3C381.054 736.863 379.685 733.557 379.685 730.11C379.685 726.663 381.054 723.358 383.491 720.92C385.928 718.483 389.234 717.114 392.681 717.114C396.127 717.114 399.433 718.483 401.87 720.92C404.308 723.358 405.677 726.663 405.677 730.11Z" fill="#010F0C"/>
<path d="M295.93 754.097C294.273 754.291 292.593 754.15 290.986 753.681C289.379 753.213 287.877 752.425 286.564 751.364C285.252 750.303 284.156 748.99 283.337 747.498C282.519 746.007 281.996 744.367 281.797 742.671C281.598 740.976 281.727 739.26 282.177 737.619C282.627 735.979 283.389 734.447 284.42 733.11C285.451 731.774 286.73 730.66 288.184 729.832C289.639 729.003 291.24 728.476 292.897 728.282C294.554 728.087 296.234 728.228 297.841 728.697C299.448 729.166 300.951 729.953 302.263 731.014C303.576 732.075 304.672 733.389 305.49 734.88C306.308 736.372 306.832 738.012 307.031 739.707C307.23 741.402 307.101 743.119 306.651 744.759C306.201 746.4 305.438 747.932 304.408 749.268C303.377 750.604 302.098 751.718 300.643 752.547C299.188 753.375 297.587 753.902 295.93 754.097Z" fill="#010F0C"/>
<path d="M744.863 756.693C745.711 759.811 745.215 763.157 743.485 765.994C741.756 768.832 738.935 770.929 735.642 771.824C732.349 772.718 728.854 772.337 725.927 770.765C722.999 769.193 720.879 766.558 720.031 763.439C719.184 760.321 719.68 756.975 721.409 754.137C723.139 751.3 725.96 749.203 729.253 748.308C732.546 747.414 736.04 747.794 738.968 749.367C741.895 750.939 744.016 753.574 744.863 756.693Z" fill="#010F0C"/>
<path d="M324.451 783.556C327.147 780.421 328.057 775.336 330.299 772.461C339.299 760.959 355.284 768.952 350.573 783.556C346.067 797.495 336.878 806.451 323.005 810.426C314.07 812.993 296.704 812.717 289.02 807.372C287.233 806.121 285.803 805.991 283.789 806.007C273.771 806.126 263.759 806.267 253.752 806.43C245.954 806.56 236.808 799.233 241.097 790.818C245.288 782.631 250.779 783.443 260.185 783.459C272.293 783.492 284.184 783.427 295.859 783.264C297.387 783.243 298.886 783.654 300.18 784.45C308.368 789.421 317.481 791.663 324.451 783.556Z" fill="#010F0C"/>
<path d="M681.829 808.606C667.782 802.054 660.742 791.392 660.71 776.62C660.694 766.434 675.347 764.111 681.585 770.869C684.412 773.907 684.103 778.277 685.728 781.168C688.63 786.334 692.935 788.787 698.642 788.527C704.166 788.284 710.03 783.199 715.083 783.248C733.396 783.453 751.694 783.573 769.975 783.605C773.787 783.605 776.673 784.239 778.634 785.506C784.644 789.421 785.473 799.493 779.608 803.733C777.605 805.173 774.496 805.899 770.284 805.91C756.215 805.953 742.152 806.072 728.095 806.267C723.692 806.332 721.759 808.152 717.974 809.532C709.186 812.733 690.796 812.781 681.829 808.606Z" fill="#010F0C"/>
<path d="M529.042 241.375C525.63 243.356 522.403 244.407 519.36 244.526C513.49 244.754 508.405 245.517 504.105 246.817" stroke="#CAE3DC" stroke-width="2"/>
<path d="M516.111 284.749C517.303 284.564 518.505 284.575 519.718 284.781" stroke="#9CBDBF" stroke-width="2"/>
<path d="M519.718 284.781C519.382 285.767 518.732 286.509 517.768 287.007C517.314 287.245 517.086 287.624 517.086 288.144L517.557 508.721C517.557 509.187 517.389 509.582 517.054 509.907L513.269 513.692" stroke="#FEDB9E" stroke-width="2"/>
<path d="M523.145 475.646L522.203 289.167C522.193 288.604 522.285 288.063 522.48 287.543L522.756 286.763C522.929 286.276 522.821 285.853 522.431 285.496C521.619 284.77 520.714 284.532 519.718 284.781" stroke="#9C9A5E" stroke-width="2"/>
<path d="M548.537 300.198C544.589 303.82 540.073 302.91 535.216 302.634" stroke="#FEDB9E" stroke-width="2"/>
<path d="M501.621 299.532C501.123 300.192 500.375 300.663 499.379 300.945" stroke="#FEDB9E" stroke-width="2"/>
<path d="M499.379 300.945C497.755 299.776 496.293 299.781 494.993 300.962" stroke="#EEEFC4" stroke-width="2"/>
<path d="M494.992 300.961C492.598 302.456 491.721 305.331 492.36 309.588" stroke="#FEDB9E" stroke-width="2"/>
<path d="M494.993 300.962C496.618 301.568 498.08 301.563 499.379 300.945" stroke="#EFCC64" stroke-width="2"/>
<path d="M601.22 354.245C598.122 340.859 590.362 335.59 577.94 338.439C571.848 339.836 565.415 343.394 559.713 339.137C555.067 335.683 550.426 333.522 545.791 332.656" stroke="#FEA9A7" stroke-width="2"/>
<path d="M599.27 377.492L588.191 387.239C587.991 387.416 587.843 387.643 587.761 387.896C587.68 388.15 587.668 388.421 587.728 388.681C587.788 388.94 587.917 389.179 588.102 389.371C588.286 389.564 588.519 389.703 588.776 389.774C595.697 391.658 604.485 393.445 609.96 397.263C615.142 400.885 619.772 407.919 622.68 413.459C622.757 413.601 622.874 413.716 623.017 413.791C623.16 413.866 623.321 413.897 623.482 413.879C623.642 413.862 623.793 413.797 623.917 413.693C624.04 413.59 624.13 413.451 624.174 413.297L624.45 412.371" stroke="#FFA6A1" stroke-width="2"/>
<path d="M624.386 420.136C618.245 420.602 612.873 423.867 608.27 429.932C608.186 430.049 608.068 430.144 607.929 430.208L603.738 432.044C603.153 432.293 602.817 432.737 602.731 433.376C602.417 435.563 601.204 436.554 599.092 436.349C598.55 436.295 598.204 436.522 598.052 437.031C597.955 437.356 597.803 437.643 597.597 437.892C597.518 437.986 597.419 438.062 597.307 438.114C597.196 438.167 597.074 438.195 596.951 438.196C596.828 438.198 596.706 438.173 596.593 438.123C596.48 438.073 596.38 438 596.298 437.908L594.153 435.423C593.536 434.719 593.086 434.805 592.805 435.683C592.025 438.038 588.013 440.832 588.175 442.441C588.218 442.852 588.44 443.025 588.841 442.96C591.224 442.56 592.881 441.303 593.812 439.192C594.05 438.661 594.43 438.536 594.949 438.818C595.567 439.164 595.854 439.695 595.81 440.41C595.767 441.027 595.431 441.639 594.803 442.246C592.994 443.989 590.828 445.251 588.305 446.031C588.196 446.061 588.037 446.185 587.847 446.389C587.658 446.593 587.445 446.869 587.233 447.184C586.8 447.823 585.57 448.652 583.545 449.67C583.134 449.875 582.874 449.756 582.765 449.312L581.108 442.83C580.87 441.91 580.296 441.325 579.386 441.076C576.841 440.361 574.968 441.049 573.766 443.139C571.762 446.637 569.536 448.403 567.089 448.435" stroke="#FA3C42" stroke-width="2"/>
<path d="M554.515 441.839L561.906 397.847C562.242 395.811 561.717 395.557 560.33 397.084L542.363 416.757" stroke="#FA3C42" stroke-width="2"/>
<path d="M488.023 329.992C482.484 336.051 474.183 343.345 466.953 340.876C457.141 337.529 448.613 334.199 440.912 342.858C437.057 347.19 435.2 352.22 435.34 357.95" stroke="#FEA9A7" stroke-width="2"/>
<path d="M495.155 414.84C491.245 413.843 487.953 411.639 485.278 408.228C482.137 404.221 479.219 400.463 476.522 396.954C476.421 396.824 476.281 396.731 476.123 396.689C475.964 396.647 475.796 396.658 475.645 396.721C475.493 396.784 475.367 396.895 475.284 397.037C475.202 397.179 475.169 397.344 475.19 397.506C476.749 408.439 477.578 417.975 479.82 427.998C480.21 429.731 481.011 431.924 482.224 434.578C483.209 436.765 483.962 439.094 484.482 441.563" stroke="#FA3C42" stroke-width="2"/>
<path d="M461.316 469.684L468.383 471.552C468.74 471.649 468.995 471.525 469.147 471.178L469.991 469.148C470.098 468.887 470.127 468.601 470.075 468.327C470.023 468.053 469.892 467.802 469.699 467.604L464.224 462.032C463.888 461.686 463.504 461.426 463.071 461.253C458.392 459.384 455.176 455.81 451.326 452.756C450.47 452.085 450.053 451.229 450.075 450.19C450.086 449.648 449.831 449.296 449.311 449.134C448.997 449.025 448.688 449.047 448.385 449.199C447.93 449.426 447.508 449.377 447.118 449.052C446.544 448.565 446.143 447.937 445.916 447.168C445.797 446.756 445.542 446.469 445.152 446.307C444.936 446.22 444.703 446.22 444.454 446.307C444.227 446.394 444.075 446.323 443.999 446.096C443.458 444.428 442.293 443.914 440.506 444.553C440.274 444.635 440.021 444.638 439.789 444.561C439.556 444.485 439.357 444.333 439.223 444.13C437.144 440.881 436.396 437.421 432.01 435.926C431.49 435.742 431.073 435.434 430.759 435L427.088 429.851C425.463 427.576 424.7 427.836 424.797 430.63L424.976 435.959C424.998 436.565 425.274 437.009 425.805 437.291C427.018 437.952 427.792 438.915 428.127 440.183C428.236 440.605 428.133 441.011 427.819 441.401C427.494 441.812 427.369 442.278 427.445 442.798L428.582 450.856C428.647 451.343 428.826 451.792 429.118 452.204C431.084 454.933 432.173 459.79 436.786 459.238C437.306 459.184 437.777 459.309 438.2 459.612C438.763 460.023 439.277 460.229 439.743 460.229C444.822 460.327 449.311 462.276 453.21 466.077" stroke="#FA3C42" stroke-width="2"/>
<path d="M412.354 421.517C415.278 408.023 422.079 399.05 432.757 394.599C437.003 392.833 441.129 391.355 445.136 390.164C445.531 390.046 445.887 389.825 446.168 389.524C446.449 389.223 446.645 388.853 446.736 388.451C446.827 388.049 446.81 387.631 446.686 387.238C446.561 386.845 446.335 386.493 446.03 386.216L436.266 377.46" stroke="#FEA9A7" stroke-width="2"/>
<path d="M350.313 452.756C341.671 451.132 336.862 446.973 329.52 442.7" stroke="#8DAE85" stroke-width="2"/>
<path d="M708.276 439.777C699.98 445.517 691.852 448.831 683.892 449.719" stroke="#8DAE85" stroke-width="2"/>
<path d="M427.998 484.922C435.417 488.669 441.769 493.25 447.054 498.665" stroke="#F9929A" stroke-width="2"/>
<path d="M447.053 498.665C443.804 498.243 440.766 497.268 437.94 495.741C436.153 494.799 431.052 495.822 428.436 495.335C423.952 494.512 419.496 493.613 415.066 492.638" stroke="#FEA9A7" stroke-width="2"/>
<path d="M415.068 492.638C412.111 491.555 409.252 491.198 406.49 491.566" stroke="#EEEFC4" stroke-width="2"/>
<path d="M406.49 491.566C401.205 490.396 394.555 490.028 386.541 490.461C367.631 491.468 359.768 493.987 349.501 510.15C344.937 517.347 332.834 515.641 325.751 519.979C322.957 521.679 320.065 523.71 317.076 526.071" stroke="#FEA9A7" stroke-width="2"/>
<path d="M406.49 491.566L415.068 492.638" stroke="#EF996D" stroke-width="2"/>
<path d="M369.417 530.262L367.338 532.52C366.677 533.246 366.828 533.533 367.792 533.381C381.048 531.367 394.5 532.374 408.568 527.695C415.716 525.307 424.845 526.266 432.351 526.282C432.502 526.282 432.573 526.212 432.562 526.071V526.055C432.54 525.903 432.459 525.849 432.318 525.892C431.452 526.141 430.78 525.919 430.304 525.226" stroke="#FFA6A1" stroke-width="2"/>
<path d="M361.589 584.554C361.361 584.9 361.221 585.22 361.166 585.512C361.047 586.151 361.313 586.443 361.962 586.389C363.219 586.259 364.442 585.989 365.634 585.577C378.998 580.974 391.935 575.066 404.444 567.854" stroke="#FFA6A1" stroke-width="2"/>
<path d="M464.664 574.303C457.126 582.079 450.092 589.795 443.561 597.452C436.706 605.51 427.771 609.425 418.755 614.363C415.853 615.955 412.652 617.255 409.154 618.262C400.707 620.715 391.967 623.997 384.169 625.459C374.649 627.257 366.77 627.966 360.532 627.587C358.226 627.446 355.323 626.412 351.825 624.484C342.858 619.513 346.058 613.811 343.41 606.062C342.814 604.297 342.202 602.688 341.574 601.237C341.286 600.559 340.804 599.982 340.188 599.577C339.572 599.172 338.851 598.959 338.114 598.963C335.428 598.974 332.672 598.974 329.845 598.963C329.455 598.963 327.224 599.245 323.152 599.808C319.264 600.338 316.687 598.687 315.419 594.853C315.105 593.921 314.521 593.223 313.665 592.757L312.934 592.367C312.208 591.988 311.889 592.205 311.976 593.017L312.528 598.346C312.744 600.414 312.17 600.669 310.806 599.109C309.582 597.701 309.349 596.277 310.107 594.837C310.166 594.726 310.197 594.602 310.198 594.477C310.198 594.351 310.169 594.227 310.111 594.116C310.054 594.004 309.97 593.908 309.868 593.835C309.765 593.763 309.647 593.716 309.522 593.699C308.797 593.613 308.104 593.721 307.443 594.024C307.043 594.208 306.696 594.138 306.404 593.813L304.828 592.124C304.649 591.926 304.415 591.785 304.155 591.719C303.895 591.652 303.621 591.663 303.366 591.75C302.586 592.01 302.163 592.514 302.099 593.261C302.034 594.149 301.622 594.36 300.864 593.894C299.553 593.082 298.741 591.918 298.427 590.402C298.375 590.136 298.24 589.895 298.04 589.714C297.841 589.533 297.588 589.42 297.318 589.393C297.048 589.366 296.775 589.425 296.539 589.563C296.303 589.701 296.117 589.909 296.007 590.158C295.942 590.32 295.866 590.483 295.779 590.645C295.698 590.814 295.565 590.952 295.4 591.04C295.235 591.128 295.046 591.16 294.861 591.133C294.676 591.106 294.504 591.02 294.372 590.889C294.239 590.757 294.151 590.586 294.122 590.402C293.808 588.571 293.066 586.974 291.896 585.609C291.496 585.133 291.295 585.209 291.295 585.837V587.331C291.295 587.862 291.507 588.295 291.929 588.631C292.449 589.032 292.627 589.476 292.465 589.963C292.368 590.266 292.156 590.423 291.831 590.434H291.133C290.31 590.445 290.153 590.77 290.662 591.409C292.091 593.207 293.147 595.216 293.83 597.436C293.981 597.945 293.83 598.34 293.375 598.622C293.072 598.806 292.714 598.898 292.303 598.898" stroke="#FA3C42" stroke-width="2"/>
<path d="M286.941 581.126C287.147 581.136 287.337 581.142 287.51 581.142C287.77 581.131 287.949 581.006 288.046 580.768C293.586 567.902 316.28 557.7 328.172 554.63C331.453 553.785 331.405 553.238 328.026 552.989C321.668 552.523 314.759 553.054 307.297 554.581" stroke="#FFA6A1" stroke-width="2"/>
<path d="M466.06 509.549C466.623 509.647 466.986 509.479 467.148 509.046C467.186 508.936 467.201 508.82 467.192 508.704C467.184 508.588 467.152 508.475 467.099 508.372C467.046 508.269 466.973 508.178 466.883 508.104C466.794 508.029 466.691 507.974 466.579 507.941C462.951 506.847 459.215 505.927 455.37 505.179C452.37 504.595 449.598 502.423 447.053 498.665" stroke="#FA3C42" stroke-width="2"/>
<path d="M716.414 526.071C715.949 525.67 715.846 525.453 716.105 525.421" stroke="#FEFCF9" stroke-width="2"/>
<path d="M716.106 525.421C709.624 519.069 703.711 518.078 695.93 515.739C690.195 514.017 689.237 511.694 686.036 507.048C680.307 498.687 672.629 493.559 663.001 491.663C660.838 491.242 658.655 490.889 656.47 490.608C642.933 488.886 627.933 490.407 611.471 495.172C605.022 497.041 598.134 496.829 591.36 498.941C591.106 499.016 590.835 499.009 590.587 498.921C590.339 498.834 590.126 498.67 589.979 498.454C589.795 498.183 589.665 497.853 589.589 497.463" stroke="#FEA9A7" stroke-width="2"/>
<path d="M589.589 497.463C596.26 494.452 602.547 490.667 608.449 486.107" stroke="#F9929A" stroke-width="2"/>
<path d="M589.588 497.463C584.888 500.723 581.417 504.638 579.175 509.208" stroke="#FA3C42" stroke-width="2"/>
<path d="M716.105 525.421C714.979 534.215 716.728 541.807 721.352 548.197" stroke="#FFA6A1" stroke-width="2"/>
<path d="M726.828 555.263C719.615 553.465 712.364 552.523 705.076 552.436C704.805 552.432 704.544 552.533 704.347 552.718C704.15 552.903 704.033 553.157 704.02 553.427L703.987 553.98C703.983 554.046 703.992 554.113 704.015 554.176C704.037 554.239 704.072 554.297 704.118 554.346C704.164 554.394 704.219 554.433 704.28 554.46C704.342 554.486 704.408 554.5 704.475 554.5C708.309 554.543 711.72 555.317 714.709 556.823C717.503 558.231 722.924 561.355 730.971 566.196C734.891 568.557 738.075 571.806 740.523 575.943" stroke="#FFA6A1" stroke-width="2"/>
<path d="M740.522 575.944C739.926 579.03 739.212 581.147 738.378 582.295C738.031 582.772 738.134 583.108 738.686 583.303C740.138 583.812 741.475 583.546 742.699 582.507C742.821 582.403 742.963 582.324 743.116 582.275C743.269 582.226 743.43 582.208 743.59 582.222C743.75 582.235 743.906 582.28 744.049 582.354C744.191 582.428 744.318 582.53 744.421 582.653L744.892 583.238C745.444 583.92 745.298 584.348 744.453 584.521L740.814 585.301C740.414 585.377 740.073 585.555 739.791 585.837L739.255 586.389C738.659 586.985 738.231 586.882 737.972 586.081C737.3 583.947 736.011 582.23 734.105 580.931C734.027 580.876 733.936 580.842 733.84 580.834C733.745 580.826 733.65 580.844 733.563 580.885C733.477 580.927 733.404 580.99 733.35 581.07C733.297 581.149 733.266 581.242 733.261 581.337C733.196 582.344 733.423 583.281 733.943 584.147C734.027 584.29 734.077 584.451 734.089 584.616C734.1 584.781 734.073 584.946 734.01 585.098C733.947 585.25 733.849 585.384 733.724 585.49C733.6 585.596 733.452 585.67 733.293 585.707L732.513 585.902C732.102 586.01 732.02 586.232 732.269 586.568L735.194 590.564C735.584 591.084 735.47 591.452 734.853 591.669L734.219 591.88C734.084 591.924 733.942 591.938 733.801 591.922C733.661 591.905 733.525 591.858 733.405 591.784C733.284 591.71 733.181 591.61 733.103 591.492C733.025 591.374 732.973 591.24 732.952 591.1C732.779 589.974 732.286 589.043 731.473 588.306C731.04 587.916 730.78 587.434 730.694 586.86C730.401 584.987 730.493 583.129 730.97 581.288C730.992 581.206 730.995 581.121 730.98 581.037C730.964 580.954 730.93 580.875 730.881 580.807C730.831 580.738 730.766 580.682 730.692 580.641C730.617 580.601 730.535 580.578 730.45 580.573L729.784 580.541C729.286 580.519 729.021 580.758 728.988 581.256L728.355 589.086C728.311 589.584 728.057 589.931 727.591 590.126L725.82 590.889C725.484 591.019 725.425 590.943 725.642 590.662L726.015 590.191C726.297 589.822 726.383 589.416 726.275 588.972C725.744 586.774 725.772 584.559 726.356 582.328C726.378 582.252 726.351 582.203 726.275 582.182L725.755 582.003C725.684 581.98 725.607 581.975 725.534 581.99C725.46 582.005 725.391 582.038 725.334 582.087C725.277 582.136 725.233 582.199 725.208 582.27C725.182 582.34 725.175 582.416 725.187 582.49C725.403 583.693 725.16 584.727 724.456 585.593C724.055 586.091 723.909 586.649 724.017 587.266L724.342 589.346C724.381 589.58 724.36 589.82 724.279 590.043C724.199 590.267 724.062 590.465 723.883 590.62C723.703 590.776 723.487 590.882 723.254 590.929C723.022 590.976 722.781 590.962 722.555 590.889C722.122 590.748 721.754 590.483 721.45 590.093C720.974 589.497 720.616 589.562 720.378 590.288C720.096 591.111 719.636 591.793 718.997 592.335C718.521 592.736 718.304 593.239 718.347 593.846C718.402 594.582 718.131 595.043 717.535 595.227C717.296 595.302 717.089 595.452 716.945 595.655C716.801 595.857 716.729 596.101 716.739 596.348L716.772 597.079C716.804 597.588 716.593 597.961 716.138 598.199C709.266 601.887 697.895 595.503 693.265 603.447C692.821 604.205 692.263 606.571 691.592 610.546C690.823 615.138 689.182 619.459 686.669 623.509C685.521 625.383 684.124 625.887 682.478 625.02C682.002 624.771 681.509 624.728 681 624.89C664.836 630.17 647.372 623.916 631.046 619.546C626.562 618.327 624.109 619.432 620.34 615.647C614.898 610.188 612.526 608.32 604.875 606.29C604.345 606.152 603.871 605.864 603.51 605.461C601.658 603.403 599.655 601.519 597.5 599.808C587.915 592.221 579.175 582.994 573.002 577.796C569.125 574.514 564.776 572.825 559.957 572.727" stroke="#FA3C42" stroke-width="2"/>
<path d="M627.83 565.806C631.122 567.994 634.556 569.824 638.129 571.297C644.747 574.048 648.31 575.537 648.819 575.764C656.151 579.176 663.661 582.187 671.351 584.797C671.504 584.845 671.67 584.833 671.814 584.764C671.959 584.694 672.072 584.573 672.131 584.423C672.271 584.022 672.217 583.508 671.968 582.88" stroke="#FFA6A1" stroke-width="2"/>
<path d="M583.692 525.876C588.88 527.045 593.965 527.782 598.947 528.085C618.073 529.276 637.161 530.885 656.211 532.91C659.492 533.267 662.346 532.964 664.772 532C665.357 531.762 665.465 531.383 665.097 530.863C664.891 530.571 664.62 530.321 664.285 530.116" stroke="#FFA6A1" stroke-width="2"/>
<path d="M746.192 579.647C744.156 579.571 742.266 578.337 740.522 575.943" stroke="#FA8F94" stroke-width="2"/>
<path d="M498.534 604.632C490.802 616.361 484.867 628.648 480.73 641.493C477.887 650.281 476.62 659.915 475.369 669.418C475.31 669.874 475.344 670.337 475.467 670.78C475.591 671.223 475.803 671.635 476.09 671.994C476.377 672.352 476.733 672.648 477.136 672.864C477.54 673.08 477.983 673.212 478.439 673.252C483.15 673.663 484.715 676.425 483.134 681.537C480.578 689.822 479.414 698.264 479.642 706.863C479.804 713.378 485.993 739.11 496.504 737.193C497.013 737.106 497.392 736.836 497.641 736.381C498.67 734.475 498.643 732.568 497.56 730.662C497.376 730.344 497.278 729.964 497.281 729.581C497.283 729.197 497.386 728.831 497.573 728.538C497.76 728.244 498.021 728.039 498.318 727.953C498.615 727.868 498.93 727.906 499.217 728.063C500.116 728.561 500.49 729.298 500.338 730.273C500.313 730.422 500.323 730.576 500.368 730.72C500.413 730.864 500.492 730.995 500.598 731.101L500.971 731.475C501.329 731.832 501.367 732.216 501.085 732.628L499.087 735.52C499.015 735.632 498.985 735.766 499.004 735.898C499.023 736.03 499.089 736.151 499.19 736.238C499.291 736.325 499.42 736.373 499.553 736.372C499.687 736.371 499.815 736.323 499.915 736.234C501.258 735 502.775 734.886 504.464 735.893C504.751 736.064 505.09 736.126 505.418 736.066C505.747 736.006 506.043 735.829 506.251 735.568C507.009 734.615 507.464 733.516 507.616 732.271C507.637 732.076 507.74 731.989 507.924 732.011C508.087 732.032 508.249 732.049 508.412 732.059C508.545 732.073 508.672 732.129 508.774 732.219C508.875 732.309 508.948 732.429 508.98 732.563L509.224 733.603C509.441 734.491 509.738 734.518 510.117 733.684C510.724 732.33 511.585 731.139 512.7 730.11C513.123 729.731 513.388 729.818 513.496 730.37L513.643 731.117C513.762 731.745 514.141 732.027 514.78 731.962C515.581 731.875 516.188 731.507 516.599 730.857C516.87 730.436 517.255 730.107 517.724 729.897C518.192 729.686 518.731 729.601 519.298 729.647C519.865 729.692 520.445 729.868 520.991 730.16C521.538 730.452 522.036 730.852 522.448 731.328C523.162 732.152 524.11 732.52 525.29 732.433C525.387 732.43 525.479 732.393 525.552 732.33C525.624 732.267 525.674 732.181 525.691 732.086C525.708 731.991 525.692 731.893 525.646 731.809C525.599 731.724 525.526 731.658 525.437 731.621L522.058 730.045C521.963 730.001 521.879 729.938 521.811 729.859C521.743 729.78 521.693 729.687 521.664 729.587C521.635 729.487 521.627 729.382 521.642 729.279C521.656 729.176 521.693 729.077 521.749 728.989C524.695 724.365 528.377 723.742 532.796 727.121C532.871 727.18 532.929 727.259 532.963 727.349C532.996 727.439 533.004 727.536 532.985 727.631C532.967 727.725 532.923 727.812 532.858 727.883C532.793 727.953 532.709 728.005 532.617 728.031C531.036 728.453 530.5 729.612 531.009 731.507C531.334 732.731 531.518 734.063 531.561 735.503C531.561 735.818 531.718 735.969 532.032 735.958L533.104 735.91C533.321 735.91 533.418 735.801 533.397 735.585C533.234 733.321 533.37 731.079 533.803 728.859C533.944 728.177 534.117 728.171 534.323 728.843L534.583 729.671C534.658 729.92 534.821 730.094 535.07 730.191C535.233 730.256 535.4 730.294 535.574 730.305C536.115 730.337 536.429 730.088 536.516 729.558C536.537 729.384 536.559 729.211 536.581 729.038C536.635 728.637 536.862 728.469 537.263 728.534L537.978 728.648C538.357 728.703 538.719 728.84 539.04 729.049C539.36 729.258 539.631 729.535 539.834 729.86C540.037 730.184 540.166 730.55 540.213 730.93C540.26 731.309 540.223 731.695 540.106 732.059C539.835 732.883 539.554 733.451 539.261 733.765C539.212 733.818 539.152 733.859 539.086 733.887C539.02 733.915 538.949 733.929 538.878 733.927C538.807 733.926 538.738 733.909 538.675 733.878C538.613 733.847 538.558 733.803 538.514 733.749L537.003 731.978C536.912 731.869 536.796 731.784 536.663 731.732C536.531 731.68 536.388 731.662 536.247 731.68C536.107 731.698 535.972 731.751 535.858 731.834C535.743 731.918 535.651 732.029 535.59 732.157L534.729 733.928C534.548 734.305 534.487 734.729 534.553 735.142C534.619 735.555 534.809 735.938 535.097 736.239C535.386 736.54 535.759 736.745 536.167 736.825C536.574 736.906 536.997 736.858 537.377 736.689C539.976 735.536 542.868 735.633 545.175 734.074C548.315 731.951 550.687 729.125 552.29 725.594C557.911 713.28 561.306 704.556 558.755 690.586C557.813 685.409 556.611 680.21 555.149 674.99C555.108 674.838 555.108 674.678 555.147 674.526C555.187 674.373 555.265 674.234 555.375 674.121C555.485 674.008 555.622 673.925 555.773 673.881C555.924 673.837 556.084 673.833 556.237 673.869L560.218 674.844C560.802 674.985 561.344 674.893 561.842 674.568C566.846 671.319 563.044 659.135 562.183 654.099C559.974 641.2 553.931 630.462 547.579 618.863C545.846 615.712 543.783 613.508 541.389 612.251" stroke="#FA3C42" stroke-width="2"/>
<path d="M529.042 241.374C525.63 243.356 522.403 244.407 519.36 244.526C513.49 244.753 508.405 245.517 504.105 246.816C506.234 232.781 521.569 227.192 529.042 241.374Z" fill="#FDFEFE"/>
<path d="M529.042 241.375C531.067 243.855 532.036 246.827 531.95 250.293C531.739 258.075 525.387 262.932 517.784 262.282C508.178 261.459 503.618 256.304 504.106 246.817C508.405 245.517 513.49 244.754 519.36 244.526C522.403 244.407 525.63 243.356 529.042 241.375Z" fill="#97C8BA"/>
<path d="M516.111 284.749C517.303 284.564 518.505 284.575 519.718 284.781C519.382 285.767 518.732 286.508 517.768 287.007C517.314 287.245 517.086 287.624 517.086 288.144L517.557 508.721C517.557 509.186 517.389 509.582 517.054 509.907L513.269 513.692L513.285 285.593C513.285 285.03 513.566 284.749 514.13 284.749H516.111Z" fill="#FDFEFE"/>
<path d="M523.145 475.645L522.203 289.167C522.192 288.604 522.285 288.063 522.48 287.543L522.756 286.763C522.929 286.276 522.821 285.853 522.431 285.496C521.618 284.77 520.714 284.532 519.718 284.781C518.505 284.575 517.303 284.564 516.111 284.749C518.559 284.272 520.828 284.364 522.918 285.025C523.481 285.198 523.752 285.577 523.73 286.162C523.026 307.551 522.858 322.535 523.227 331.112C523.682 341.59 523.21 351.614 523.194 359.915C523.162 372.651 523.14 385.393 523.129 398.14C523.107 423.97 523.113 449.805 523.145 475.645Z" fill="#3A7C7F"/>
<path d="M519.718 284.781C520.714 284.532 521.619 284.77 522.431 285.496C522.821 285.853 522.929 286.276 522.756 286.763L522.48 287.543C522.285 288.063 522.193 288.604 522.203 289.167L523.146 475.646C522.777 486.01 522.815 496.374 523.259 506.739C523.373 509.468 524.283 512.408 524.494 515.446C524.509 515.687 524.467 515.929 524.371 516.152C524.275 516.375 524.128 516.573 523.942 516.73C519.555 520.466 515.998 519.453 513.269 513.692L517.054 509.907C517.389 509.582 517.557 509.186 517.557 508.721L517.086 288.144C517.086 287.624 517.314 287.245 517.768 287.007C518.732 286.508 519.382 285.767 519.718 284.781Z" fill="#FEB83D"/>
<path d="M548.536 300.198C544.589 303.82 540.073 302.911 535.215 302.634C534.127 291.344 549.219 288.534 548.536 300.198Z" fill="#FDFEFE"/>
<path d="M501.621 299.532C501.123 300.192 500.376 300.663 499.379 300.945C497.755 299.775 496.293 299.781 494.993 300.961C492.6 302.456 491.722 305.331 492.361 309.587C489.903 307.779 488.522 305.58 488.219 302.992C486.968 292.303 499.753 288.469 501.621 299.532Z" fill="#FDFEFE"/>
<path d="M501.62 299.532C505.275 306.647 500.905 313.096 492.36 309.588C491.721 305.331 492.598 302.456 494.992 300.961C496.616 301.568 498.078 301.562 499.378 300.945C500.374 300.663 501.122 300.192 501.62 299.532Z" fill="#FEB83D"/>
<path d="M499.379 300.945C498.08 301.563 496.618 301.568 494.993 300.962C496.293 299.781 497.755 299.776 499.379 300.945Z" fill="#DFDF8A"/>
<path d="M548.537 300.198C548.959 309.831 538.091 315.322 535.216 302.634C540.073 302.91 544.589 303.82 548.537 300.198Z" fill="#FEB83D"/>
<path d="M601.22 354.245C598.122 340.859 590.362 335.59 577.94 338.439C571.848 339.836 565.415 343.393 559.713 339.137C555.067 335.682 550.426 333.522 545.791 332.655C546.852 331.507 548.179 330.69 549.771 330.202C550.049 330.117 550.294 329.972 550.486 329.78L556.529 323.834C556.788 323.584 557.111 323.409 557.462 323.328C557.813 323.247 558.179 323.264 558.522 323.376C558.864 323.488 559.17 323.691 559.405 323.963C559.641 324.236 559.798 324.568 559.859 324.923C560.785 330.414 565.318 332.184 570.581 330.901C577.014 329.309 583.057 327.392 590.173 329.358C602.178 332.672 605.46 342.402 601.22 354.245Z" fill="#FDFEFE"/>
<path d="M488.024 329.992C482.484 336.051 474.183 343.345 466.954 340.876C457.142 337.53 448.613 334.199 440.913 342.858C437.057 347.19 435.2 352.221 435.341 357.95C429.216 344.515 434.057 329.537 450.319 328.4C456.281 327.977 463.006 330.089 468.903 332.201C469.477 332.412 470.102 332.443 470.696 332.289C471.291 332.135 471.827 331.804 472.234 331.34L478.033 324.712C478.499 324.192 479.024 324.122 479.609 324.501L488.024 329.992Z" fill="#FDFEFE"/>
<path d="M488.022 329.992L494.553 334.167C494.997 334.448 495.219 334.854 495.219 335.385L495.154 414.84C491.244 413.844 487.952 411.64 485.277 408.228C482.136 404.221 479.218 400.463 476.521 396.954C476.421 396.825 476.28 396.732 476.122 396.689C475.963 396.647 475.795 396.659 475.644 396.721C475.492 396.784 475.366 396.895 475.284 397.037C475.201 397.179 475.168 397.344 475.189 397.507C476.748 408.44 477.577 417.976 479.819 427.999C480.209 429.732 481.01 431.925 482.223 434.578C483.209 436.766 483.961 439.094 484.481 441.564L468.025 428.567C467.614 428.24 467.106 428.058 466.579 428.048H459.967C459.624 428.049 459.287 428.144 458.994 428.322C458.701 428.5 458.462 428.756 458.303 429.06C458.144 429.364 458.071 429.706 458.093 430.049C458.114 430.392 458.228 430.722 458.424 431.004C468.658 445.544 478.438 460.31 489.127 474.103C493.351 479.561 493.936 482.875 495.203 488.122C496.156 492.097 495.474 492.4 493.156 489.032C493.059 488.891 492.214 488.203 490.622 486.969C481.611 479.983 471.842 474.222 461.316 469.684L468.382 471.552C468.74 471.65 468.994 471.525 469.146 471.178L469.99 469.148C470.097 468.887 470.126 468.601 470.074 468.327C470.022 468.053 469.891 467.802 469.698 467.605L464.223 462.032C463.888 461.686 463.503 461.426 463.07 461.253C458.391 459.384 455.175 455.811 451.325 452.756C450.469 452.085 450.052 451.229 450.074 450.19C450.085 449.648 449.83 449.296 449.31 449.134C448.996 449.025 448.687 449.047 448.384 449.199C447.929 449.426 447.507 449.377 447.117 449.053C446.543 448.565 446.143 447.937 445.915 447.168C445.796 446.757 445.541 446.47 445.151 446.307C444.935 446.22 444.702 446.22 444.453 446.307C444.226 446.394 444.074 446.323 443.998 446.096C443.457 444.428 442.292 443.914 440.505 444.553C440.273 444.635 440.02 444.638 439.788 444.561C439.555 444.485 439.356 444.333 439.222 444.13C437.143 440.881 436.395 437.421 432.009 435.926C431.489 435.742 431.072 435.434 430.758 435L427.087 429.851C425.462 427.576 424.699 427.836 424.796 430.631L424.975 435.959C424.997 436.565 425.273 437.009 425.804 437.291C427.017 437.952 427.791 438.916 428.127 440.183C428.235 440.605 428.132 441.011 427.818 441.401C427.493 441.813 427.369 442.278 427.444 442.798L428.581 450.856C428.646 451.343 428.825 451.793 429.117 452.204C431.083 454.933 432.172 459.791 436.785 459.238C437.305 459.184 437.776 459.309 438.199 459.612C438.762 460.023 439.276 460.229 439.742 460.229C444.821 460.327 449.31 462.276 453.209 466.077C446.332 463.879 440.072 462.07 434.43 460.652C431.034 459.791 427.217 451.847 425.332 447.379C424.152 444.574 422.625 441.71 420.751 438.786C416.961 432.851 414.161 427.094 412.353 421.517C415.277 408.023 422.078 399.05 432.756 394.599C437.002 392.833 441.128 391.355 445.135 390.164C445.53 390.046 445.886 389.825 446.167 389.524C446.448 389.223 446.644 388.853 446.735 388.451C446.826 388.049 446.809 387.631 446.685 387.238C446.56 386.845 446.334 386.493 446.029 386.216L436.265 377.46C437.478 371.07 437.17 364.567 435.339 357.95C435.199 352.22 437.056 347.19 440.911 342.858C448.612 334.199 457.14 337.529 466.953 340.876C474.182 343.345 482.483 336.051 488.022 329.992Z" fill="#FF534F"/>
<path d="M545.791 332.656C550.426 333.522 555.066 335.683 559.713 339.137C565.415 343.394 571.848 339.836 577.94 338.439C590.362 335.59 598.122 340.859 601.219 354.245C599.205 361.87 598.555 369.619 599.269 377.492L588.19 387.239C587.99 387.415 587.842 387.642 587.76 387.896C587.679 388.15 587.667 388.421 587.727 388.681C587.787 388.94 587.916 389.179 588.101 389.371C588.285 389.564 588.518 389.703 588.775 389.774C595.696 391.658 604.484 393.445 609.959 397.263C615.141 400.885 619.771 407.919 622.679 413.459C622.756 413.601 622.873 413.716 623.016 413.791C623.159 413.866 623.32 413.897 623.481 413.879C623.641 413.862 623.792 413.797 623.916 413.693C624.039 413.59 624.129 413.451 624.173 413.297L624.45 412.371C625.11 414.298 625.089 416.887 624.385 420.136C618.244 420.601 612.872 423.867 608.269 429.932C608.185 430.049 608.067 430.144 607.928 430.208L603.737 432.043C603.152 432.293 602.816 432.737 602.73 433.376C602.416 435.563 601.203 436.554 599.091 436.348C598.549 436.294 598.203 436.522 598.051 437.031C597.954 437.356 597.802 437.643 597.596 437.892C597.517 437.986 597.418 438.062 597.306 438.114C597.195 438.167 597.074 438.194 596.95 438.196C596.827 438.198 596.705 438.173 596.592 438.123C596.479 438.073 596.379 438 596.297 437.908L594.152 435.422C593.535 434.718 593.086 434.805 592.804 435.682C592.024 438.038 588.012 440.832 588.174 442.44C588.217 442.852 588.44 443.025 588.84 442.96C591.223 442.559 592.88 441.303 593.811 439.191C594.049 438.661 594.429 438.536 594.948 438.818C595.566 439.164 595.853 439.695 595.809 440.41C595.766 441.027 595.43 441.639 594.802 442.245C592.993 443.989 590.827 445.251 588.304 446.031C588.195 446.06 588.036 446.185 587.847 446.389C587.657 446.593 587.444 446.869 587.232 447.184C586.799 447.823 585.57 448.651 583.544 449.669C583.133 449.875 582.873 449.756 582.765 449.312L581.108 442.83C580.869 441.91 580.295 441.325 579.385 441.076C576.84 440.361 574.967 441.049 573.765 443.139C571.761 446.637 569.536 448.402 567.088 448.435C571.008 441.893 574.756 435.563 578.33 429.444C578.99 428.307 578.649 427.581 577.306 427.267C577.156 427.235 577.007 427.23 576.868 427.251C568.647 428.746 560.509 435.991 554.514 441.839L561.906 397.847C562.241 395.811 561.716 395.557 560.33 397.084L542.363 416.757L542.07 336.294C542.07 335.764 542.238 335.293 542.574 334.881C543.473 333.776 544.545 333.035 545.791 332.656Z" fill="#FF534F"/>
<path d="M412.354 421.517C407.269 403.68 414.661 392.357 430.402 385.225C433.456 383.839 435.411 381.251 436.267 377.46L446.03 386.216C446.335 386.493 446.562 386.845 446.686 387.238C446.81 387.631 446.827 388.049 446.736 388.451C446.645 388.853 446.449 389.223 446.168 389.524C445.887 389.825 445.531 390.046 445.136 390.164C441.129 391.355 437.003 392.833 432.758 394.599C422.079 399.05 415.278 408.023 412.354 421.517Z" fill="#FDFEFE"/>
<path d="M599.269 377.492C600.396 380.828 601.75 382.891 603.331 383.682C615.563 389.887 626.61 396.84 624.45 412.371L624.173 413.297C624.129 413.451 624.039 413.59 623.916 413.693C623.792 413.797 623.641 413.862 623.481 413.879C623.32 413.897 623.159 413.866 623.016 413.791C622.873 413.716 622.756 413.601 622.679 413.459C619.771 407.919 615.141 400.885 609.959 397.263C604.484 393.445 595.696 391.658 588.775 389.774C588.518 389.703 588.285 389.564 588.101 389.371C587.916 389.179 587.787 388.94 587.727 388.681C587.667 388.421 587.679 388.15 587.76 387.896C587.842 387.643 587.99 387.416 588.19 387.239L599.269 377.492Z" fill="#FEF9F3"/>
<path d="M495.155 414.84C496.574 424.294 496.644 431.453 495.366 436.316C493.985 441.547 496.179 446.583 495.058 452.431C494.971 452.897 494.771 452.951 494.457 452.594L484.482 441.563C483.962 439.094 483.209 436.765 482.224 434.578C481.011 431.924 480.21 429.731 479.82 427.998C477.578 417.975 476.749 408.439 475.19 397.506C475.169 397.344 475.202 397.179 475.284 397.037C475.367 396.895 475.493 396.784 475.645 396.721C475.796 396.658 475.964 396.647 476.123 396.689C476.281 396.731 476.421 396.824 476.522 396.954C479.219 400.463 482.137 404.221 485.278 408.228C487.953 411.639 491.245 413.843 495.155 414.84Z" fill="#F52535"/>
<path d="M317.563 425.546C312.64 416.871 306.37 406.799 303.121 397.344C303.088 397.241 303.084 397.13 303.11 397.025C303.136 396.92 303.191 396.824 303.269 396.748C303.346 396.672 303.443 396.619 303.549 396.596C303.655 396.572 303.765 396.578 303.868 396.613C318.082 401.552 330.039 411.575 342.223 420.169C342.359 420.267 342.463 420.403 342.523 420.56C342.583 420.717 342.595 420.888 342.559 421.052C342.523 421.216 342.439 421.366 342.319 421.483C342.199 421.601 342.046 421.68 341.881 421.712L318.521 426.001C318.335 426.034 318.144 426.008 317.972 425.927C317.8 425.845 317.657 425.712 317.563 425.546Z" fill="#DFDF8A"/>
<path d="M554.515 441.839L543.078 454.754C542.666 455.22 542.461 455.144 542.461 454.527L542.363 416.757L560.33 397.084C561.717 395.557 562.242 395.811 561.906 397.847L554.515 441.839Z" fill="#F52535"/>
<path d="M731.75 403.874C728.484 410.324 724.342 419.648 719.582 424.977C719.16 425.453 718.634 425.648 718.006 425.562L697.05 422.508C695.425 422.269 695.268 421.652 696.579 420.656C708.194 411.818 720.28 401.535 734.121 397.068C735.486 396.624 735.778 396.997 734.999 398.188C733.959 399.781 732.876 401.676 731.75 403.874Z" fill="#DFDF8A"/>
<path d="M624.385 420.136C618.504 433.554 610.787 445.056 609.13 460.489C609.066 461.085 608.735 461.415 608.14 461.48C582.099 464.274 562.994 475.288 543.874 491.062C543.754 491.164 543.608 491.229 543.453 491.251C543.297 491.273 543.139 491.25 542.996 491.186C542.853 491.121 542.731 491.017 542.645 490.886C542.559 490.755 542.512 490.602 542.509 490.445C542.455 488.723 542.931 486.969 543.939 485.182C551.13 472.305 558.846 460.056 567.088 448.435C569.536 448.403 571.761 446.637 573.765 443.139C574.967 441.049 576.84 440.361 579.385 441.076C580.295 441.325 580.869 441.91 581.108 442.83L582.765 449.312C582.873 449.756 583.133 449.875 583.544 449.67C585.57 448.652 586.799 447.823 587.232 447.184C587.444 446.869 587.657 446.593 587.847 446.389C588.036 446.185 588.195 446.061 588.304 446.031C590.827 445.251 592.994 443.989 594.802 442.246C595.43 441.639 595.766 441.027 595.809 440.41C595.853 439.695 595.566 439.164 594.948 438.818C594.429 438.536 594.049 438.661 593.811 439.192C592.88 441.303 591.223 442.56 588.84 442.96C588.44 443.025 588.217 442.852 588.174 442.441C588.012 440.832 592.024 438.038 592.804 435.683C593.086 434.805 593.535 434.719 594.152 435.423L596.297 437.908C596.379 438 596.48 438.073 596.592 438.123C596.705 438.173 596.827 438.198 596.95 438.196C597.074 438.195 597.195 438.167 597.306 438.114C597.418 438.062 597.517 437.986 597.596 437.892C597.802 437.643 597.954 437.356 598.051 437.031C598.203 436.522 598.549 436.295 599.091 436.349C601.203 436.554 602.416 435.563 602.73 433.376C602.816 432.737 603.152 432.293 603.737 432.044L607.928 430.208C608.067 430.144 608.185 430.049 608.269 429.932C612.872 423.867 618.244 420.602 624.385 420.136Z" fill="#F52535"/>
<path d="M640.841 441.921C642.709 436.95 645.438 432.093 645.844 426.813C645.844 426.78 645.833 426.764 645.812 426.764C645.801 426.764 645.796 426.764 645.796 426.764C645.785 426.764 645.779 426.775 645.779 426.797C646.283 432.288 647.989 439.907 641.523 442.571C640.797 442.863 640.57 442.647 640.841 441.921Z" fill="#DFDF8A"/>
<path d="M461.316 469.684L453.21 466.077C449.311 462.276 444.822 460.327 439.743 460.229C439.277 460.229 438.763 460.023 438.2 459.612C437.777 459.309 437.306 459.184 436.786 459.238C432.173 459.79 431.084 454.933 429.118 452.204C428.826 451.792 428.647 451.343 428.582 450.856L427.445 442.798C427.369 442.278 427.494 441.812 427.819 441.401C428.133 441.011 428.236 440.605 428.127 440.183C427.792 438.915 427.018 437.952 425.805 437.291C425.274 437.009 424.998 436.565 424.976 435.959L424.797 430.63C424.7 427.836 425.463 427.576 427.088 429.851L430.759 435C431.073 435.434 431.49 435.742 432.01 435.926C436.396 437.421 437.144 440.881 439.223 444.13C439.357 444.333 439.556 444.485 439.789 444.561C440.021 444.638 440.274 444.635 440.506 444.553C442.293 443.914 443.458 444.428 443.999 446.096C444.075 446.323 444.227 446.394 444.454 446.307C444.703 446.22 444.936 446.22 445.152 446.307C445.542 446.469 445.797 446.756 445.916 447.168C446.143 447.937 446.544 448.565 447.118 449.052C447.508 449.377 447.93 449.426 448.385 449.199C448.688 449.047 448.997 449.025 449.311 449.134C449.831 449.296 450.086 449.648 450.075 450.19C450.053 451.229 450.47 452.085 451.326 452.756C455.176 455.81 458.392 459.384 463.071 461.253C463.504 461.426 463.888 461.686 464.224 462.032L469.699 467.604C469.892 467.802 470.023 468.053 470.075 468.327C470.127 468.601 470.098 468.887 469.991 469.148L469.147 471.178C468.995 471.525 468.74 471.649 468.383 471.552L461.316 469.684Z" fill="#F52535"/>
<path d="M350.313 452.756C341.671 451.132 336.862 446.973 329.519 442.701C327.689 441.856 328.328 440.941 331.436 439.955C332.184 439.717 333.191 439.484 334.458 439.257C342.191 437.925 349.75 435.921 357.136 433.246C357.71 433.04 358.214 433.143 358.647 433.555C362.188 436.847 366.071 439.657 370.295 441.986C373.327 443.665 373.143 444.829 369.743 445.479C363.407 446.702 356.93 449.128 350.313 452.756Z" fill="#DFDF8A"/>
<path d="M392.998 438.886C392.951 438.891 392.898 438.831 392.842 438.711C392.787 438.59 392.729 438.411 392.672 438.183C392.616 437.955 392.562 437.683 392.513 437.383C392.465 437.083 392.422 436.76 392.389 436.433C392.356 436.107 392.332 435.782 392.32 435.478C392.307 435.174 392.305 434.897 392.315 434.663C392.324 434.428 392.345 434.241 392.375 434.112C392.406 433.982 392.445 433.913 392.492 433.908C392.539 433.904 392.592 433.963 392.647 434.084C392.703 434.205 392.761 434.384 392.818 434.612C392.874 434.84 392.928 435.111 392.977 435.412C393.025 435.712 393.067 436.034 393.101 436.361C393.134 436.688 393.157 437.013 393.17 437.317C393.183 437.62 393.185 437.898 393.175 438.132C393.166 438.366 393.145 438.554 393.114 438.683C393.084 438.813 393.044 438.882 392.998 438.886Z" fill="#DFDF8A"/>
<path d="M708.275 439.776C699.979 445.516 691.851 448.83 683.891 449.718L668.117 444.504C667.554 444.32 667.522 444.076 668.02 443.773L683.209 434.383C683.62 434.134 684.059 434.063 684.525 434.172L708.275 439.776Z" fill="#DFDF8A"/>
<path d="M708.276 439.777C708.915 439.798 709.429 439.917 709.819 440.134C710.295 440.405 710.393 440.778 710.111 441.255C706.592 447.255 702.005 452.323 696.352 456.46C696.234 456.543 696.097 456.591 695.956 456.6C695.815 456.609 695.676 456.577 695.556 456.509L683.892 449.719C691.852 448.831 699.98 445.517 708.276 439.777Z" fill="#3A7C7F"/>
<path d="M329.52 442.7C336.862 446.973 341.671 451.132 350.313 452.756L343.377 458.913C343.301 458.983 343.211 459.037 343.114 459.072C343.016 459.107 342.912 459.122 342.807 459.116C342.703 459.11 342.601 459.083 342.506 459.037C342.411 458.991 342.326 458.927 342.256 458.848C337.999 454.105 331.875 448.711 329.52 442.7Z" fill="#3A7C7F"/>
<path d="M670.532 461.111C670.503 461.241 670.422 461.354 670.309 461.425C670.196 461.496 670.059 461.519 669.929 461.49L656.248 458.356C656.117 458.326 656.004 458.246 655.933 458.133C655.862 458.02 655.839 457.883 655.869 457.753L655.891 457.658C655.921 457.528 656.001 457.415 656.114 457.344C656.227 457.273 656.364 457.25 656.494 457.279L670.176 460.413C670.306 460.443 670.419 460.523 670.49 460.636C670.561 460.749 670.584 460.886 670.554 461.016L670.532 461.111Z" fill="#DFDF8A"/>
<path d="M375.672 458.523C377.751 457.235 379.944 457.007 382.251 457.841C382.359 457.881 382.451 457.958 382.509 458.057C382.568 458.157 382.591 458.273 382.573 458.388C382.556 458.502 382.5 458.607 382.415 458.685C382.33 458.763 382.22 458.809 382.105 458.816L375.915 459.254C375.826 459.257 375.738 459.231 375.664 459.18C375.59 459.129 375.534 459.055 375.506 458.972C375.479 458.888 375.48 458.798 375.51 458.717C375.54 458.636 375.597 458.568 375.672 458.523Z" fill="#FEF9F3"/>
<path d="M427.997 484.922C435.416 488.669 441.768 493.25 447.053 498.665C443.804 498.243 440.766 497.268 437.94 495.741C436.153 494.799 431.052 495.822 428.436 495.335C423.952 494.512 419.496 493.613 415.066 492.638C412.11 491.555 409.251 491.198 406.489 491.566C401.204 490.396 394.554 490.028 386.54 490.461C367.63 491.468 359.768 493.987 349.501 510.15C344.936 517.347 332.833 515.641 325.75 519.979C322.956 521.679 320.065 523.71 317.075 526.071C316.994 521.587 315.662 513.627 318.505 510.362C321.705 506.658 329.341 506.105 333.987 505.651C337.479 505.309 341.817 501.378 344.497 498.097C353.725 486.757 363.537 482.404 377.995 481.202C394.922 479.794 411.59 481.034 427.997 484.922Z" fill="#FDFEFE"/>
<path d="M716.414 526.071C715.948 525.67 715.845 525.453 716.105 525.421C709.623 519.069 703.71 518.078 695.929 515.739C690.194 514.017 689.236 511.694 686.035 507.047C680.306 498.687 672.628 493.559 663 491.663C660.837 491.241 658.654 490.889 656.469 490.607C642.932 488.885 627.932 490.407 611.47 495.172C605.021 497.04 598.133 496.829 591.359 498.941C591.105 499.016 590.834 499.009 590.586 498.921C590.338 498.834 590.125 498.67 589.978 498.454C589.794 498.183 589.664 497.853 589.588 497.463C596.259 494.452 602.546 490.667 608.449 486.107C627.748 479.463 653.009 478.895 672 483.914C680.74 486.221 687.221 491.582 692.452 498.6C697.212 504.984 702.004 504.107 708.551 506.479C712.742 507.99 719.062 510.475 718.152 515.934C717.6 519.248 717.021 522.627 716.414 526.071Z" fill="#FDFEFE"/>
<path d="M427.998 484.922C439.38 487.423 450.877 491.912 462.487 498.389C469.071 502.071 474.6 506.046 479.073 510.313C479.636 510.843 479.533 511.065 478.764 510.979L466.06 509.549C466.624 509.647 466.986 509.479 467.149 509.046C467.187 508.936 467.202 508.82 467.193 508.704C467.185 508.588 467.153 508.475 467.1 508.372C467.047 508.269 466.973 508.178 466.884 508.104C466.795 508.029 466.692 507.974 466.58 507.941C462.952 506.847 459.216 505.927 455.371 505.179C452.371 504.595 449.599 502.423 447.054 498.665C441.769 493.25 435.417 488.669 427.998 484.922Z" fill="#F52535"/>
<path d="M608.449 486.107C602.546 490.667 596.259 494.452 589.588 497.463C584.888 500.723 581.417 504.638 579.175 509.208L560.59 511.092C558.554 511.298 558.305 510.724 559.843 509.371C573.597 497.295 589.799 489.541 608.449 486.107Z" fill="#F52535"/>
<path d="M406.489 491.566L415.067 492.638C419.496 493.613 423.953 494.512 428.436 495.335C431.052 495.822 436.153 494.799 437.94 495.741C440.767 497.268 443.804 498.243 447.053 498.665C449.598 502.423 452.371 504.595 455.371 505.179C459.216 505.927 462.952 506.847 466.58 507.941C466.691 507.974 466.795 508.029 466.884 508.104C466.973 508.178 467.047 508.269 467.1 508.372C467.153 508.475 467.185 508.588 467.193 508.704C467.201 508.82 467.186 508.936 467.149 509.046C466.986 509.479 466.623 509.647 466.06 509.549C447.432 507.297 429.211 507.854 411.395 511.223C396.222 514.093 382.23 520.439 369.418 530.262L367.338 532.52C366.678 533.246 366.829 533.533 367.793 533.381C381.049 531.367 394.5 532.374 408.569 527.695C415.717 525.307 424.846 526.266 432.351 526.282C432.503 526.282 432.573 526.211 432.563 526.071V526.054C432.541 525.903 432.46 525.849 432.319 525.892C431.453 526.141 430.781 525.919 430.305 525.226C444.893 524.825 459.329 526.136 473.614 529.157C473.749 529.192 473.868 529.272 473.952 529.384C474.036 529.495 474.079 529.632 474.075 529.771C474.072 529.911 474.021 530.045 473.931 530.151C473.841 530.258 473.718 530.332 473.582 530.359C466.726 531.578 459.546 532.358 449.864 534.356C417.081 541.146 388.083 555.783 364.349 579.404C362.432 581.299 361.512 583.015 361.588 584.553C361.36 584.9 361.219 585.219 361.165 585.512C361.046 586.151 361.311 586.443 361.961 586.389C363.217 586.259 364.441 585.988 365.633 585.577C378.997 580.974 391.934 575.066 404.442 567.853C423.612 561.583 443.247 555.794 463.347 550.487C475.271 547.336 484.563 546.426 493.303 543.307C493.487 543.242 493.607 543.301 493.661 543.486L493.791 543.924C493.932 544.379 493.769 544.671 493.303 544.801C480.908 548.164 470.43 555.28 459.335 561.16C450.422 565.893 443.626 570.133 438.947 573.88C432.135 579.339 425.843 585.376 420.07 591.994C419.897 592.199 419.81 592.4 419.81 592.595C419.799 592.746 419.821 592.882 419.875 593.001C419.951 593.196 420.081 593.25 420.265 593.163L464.663 574.303C457.125 582.079 450.091 589.795 443.561 597.452C436.705 605.51 427.77 609.425 418.754 614.363C415.852 615.955 412.652 617.255 409.153 618.262C400.706 620.715 391.966 623.997 384.168 625.459C374.649 627.256 366.77 627.966 360.532 627.587C358.225 627.446 355.322 626.412 351.824 624.484C342.857 619.513 346.057 613.811 343.409 606.062C342.813 604.297 342.202 602.688 341.573 601.237C341.285 600.559 340.803 599.981 340.187 599.577C339.572 599.172 338.85 598.958 338.113 598.963C335.427 598.974 332.671 598.974 329.844 598.963C329.455 598.963 327.224 599.244 323.151 599.808C319.263 600.338 316.686 598.687 315.419 594.853C315.105 593.921 314.52 593.223 313.664 592.757L312.933 592.367C312.208 591.988 311.888 592.205 311.975 593.017L312.527 598.345C312.744 600.414 312.17 600.668 310.805 599.109C309.581 597.701 309.348 596.277 310.107 594.836C310.165 594.725 310.196 594.602 310.197 594.476C310.198 594.351 310.168 594.227 310.111 594.115C310.053 594.004 309.97 593.908 309.867 593.835C309.765 593.763 309.646 593.716 309.522 593.699C308.796 593.613 308.103 593.721 307.442 594.024C307.042 594.208 306.695 594.138 306.403 593.813L304.827 592.124C304.648 591.926 304.414 591.785 304.154 591.719C303.895 591.652 303.62 591.663 303.365 591.75C302.585 592.01 302.163 592.513 302.098 593.261C302.033 594.149 301.621 594.36 300.863 593.894C299.553 593.082 298.74 591.918 298.426 590.402C298.375 590.136 298.239 589.895 298.039 589.714C297.84 589.532 297.587 589.42 297.317 589.393C297.047 589.366 296.774 589.425 296.538 589.563C296.303 589.7 296.116 589.909 296.006 590.158C295.941 590.32 295.865 590.483 295.778 590.645C295.697 590.814 295.564 590.952 295.399 591.04C295.234 591.127 295.045 591.16 294.86 591.133C294.675 591.106 294.504 591.02 294.371 590.888C294.238 590.757 294.15 590.586 294.121 590.402C293.807 588.571 293.065 586.974 291.896 585.609C291.495 585.133 291.295 585.209 291.295 585.837V587.331C291.295 587.862 291.506 588.295 291.928 588.631C292.448 589.032 292.627 589.476 292.464 589.963C292.367 590.266 292.156 590.423 291.831 590.434H291.132C290.309 590.445 290.152 590.77 290.661 591.409C292.091 593.207 293.147 595.216 293.829 597.436C293.981 597.945 293.829 598.34 293.374 598.622C293.071 598.806 292.713 598.898 292.302 598.898C289.297 595.324 284.537 585.69 286.941 581.126C287.147 581.136 287.336 581.142 287.51 581.142C287.77 581.131 287.948 581.006 288.046 580.768C293.585 567.902 316.28 557.7 328.171 554.63C331.453 553.785 331.404 553.238 328.025 552.989C321.668 552.523 314.758 553.054 307.296 554.581C314.217 545.917 317.476 536.413 317.076 526.071C320.065 523.71 322.956 521.679 325.751 519.979C332.834 515.641 344.936 517.347 349.501 510.15C359.768 493.987 367.631 491.468 386.54 490.461C394.554 490.028 401.204 490.396 406.489 491.566Z" fill="#FF534F"/>
<path d="M716.105 525.421C714.978 534.215 716.727 541.807 721.352 548.197L726.826 555.263C719.614 553.465 712.363 552.523 705.074 552.437C704.804 552.432 704.542 552.533 704.345 552.718C704.148 552.903 704.031 553.158 704.018 553.428L703.986 553.98C703.981 554.047 703.991 554.113 704.013 554.176C704.036 554.239 704.071 554.297 704.117 554.346C704.162 554.394 704.217 554.433 704.279 554.46C704.34 554.486 704.406 554.5 704.473 554.5C708.307 554.543 711.719 555.317 714.708 556.823C717.502 558.231 722.922 561.355 730.969 566.196C734.89 568.557 738.074 571.806 740.521 575.943C739.926 579.03 739.211 581.147 738.377 582.295C738.03 582.772 738.133 583.107 738.686 583.302C740.137 583.811 741.474 583.546 742.698 582.506C742.82 582.402 742.962 582.324 743.115 582.275C743.268 582.226 743.429 582.208 743.589 582.221C743.749 582.235 743.905 582.28 744.048 582.354C744.19 582.428 744.317 582.53 744.42 582.653L744.891 583.237C745.443 583.92 745.297 584.348 744.452 584.521L740.814 585.301C740.413 585.376 740.072 585.555 739.79 585.837L739.254 586.389C738.658 586.985 738.231 586.882 737.971 586.08C737.299 583.947 736.01 582.23 734.104 580.931C734.026 580.875 733.935 580.842 733.84 580.834C733.744 580.826 733.649 580.844 733.562 580.885C733.476 580.927 733.403 580.99 733.35 581.07C733.296 581.149 733.265 581.241 733.26 581.337C733.195 582.344 733.422 583.281 733.942 584.147C734.026 584.29 734.076 584.45 734.088 584.615C734.1 584.781 734.073 584.946 734.009 585.098C733.946 585.249 733.848 585.384 733.724 585.49C733.599 585.595 733.451 585.67 733.292 585.707L732.512 585.902C732.101 586.01 732.019 586.232 732.269 586.568L735.193 590.564C735.583 591.084 735.469 591.452 734.852 591.669L734.218 591.88C734.084 591.924 733.941 591.938 733.8 591.922C733.66 591.905 733.524 591.858 733.404 591.784C733.283 591.709 733.18 591.61 733.102 591.492C733.024 591.374 732.972 591.24 732.951 591.1C732.778 589.974 732.285 589.042 731.473 588.306C731.039 587.916 730.779 587.434 730.693 586.86C730.4 584.987 730.493 583.129 730.969 581.288C730.991 581.206 730.994 581.12 730.979 581.037C730.963 580.954 730.929 580.875 730.88 580.807C730.83 580.738 730.765 580.682 730.691 580.641C730.616 580.601 730.534 580.578 730.449 580.573L729.783 580.541C729.285 580.519 729.02 580.757 728.987 581.256L728.354 589.086C728.31 589.584 728.056 589.93 727.59 590.125L725.819 590.889C725.484 591.019 725.424 590.943 725.641 590.661L726.014 590.19C726.296 589.822 726.382 589.416 726.274 588.972C725.743 586.773 725.771 584.559 726.355 582.328C726.377 582.252 726.35 582.203 726.274 582.182L725.754 582.003C725.683 581.98 725.606 581.975 725.533 581.99C725.459 582.005 725.39 582.038 725.333 582.087C725.276 582.136 725.233 582.199 725.207 582.269C725.181 582.34 725.174 582.416 725.186 582.49C725.402 583.692 725.159 584.727 724.455 585.593C724.054 586.091 723.908 586.649 724.016 587.266L724.341 589.346C724.38 589.58 724.359 589.82 724.278 590.043C724.198 590.266 724.061 590.465 723.882 590.62C723.702 590.775 723.486 590.882 723.253 590.929C723.021 590.976 722.78 590.962 722.554 590.889C722.121 590.748 721.753 590.483 721.449 590.093C720.973 589.497 720.615 589.562 720.377 590.288C720.096 591.111 719.635 591.793 718.996 592.335C718.52 592.735 718.303 593.239 718.347 593.846C718.401 594.582 718.13 595.042 717.534 595.226C717.295 595.301 717.088 595.452 716.944 595.654C716.8 595.857 716.728 596.101 716.738 596.347L716.771 597.078C716.803 597.587 716.592 597.961 716.137 598.199C709.265 601.887 697.894 595.503 693.264 603.446C692.82 604.205 692.262 606.571 691.591 610.546C690.822 615.138 689.181 619.459 686.668 623.509C685.52 625.383 684.123 625.886 682.477 625.02C682.001 624.771 681.508 624.728 680.999 624.89C664.835 630.17 647.371 623.915 631.045 619.545C626.561 618.327 624.108 619.432 620.339 615.647C614.897 610.188 612.526 608.32 604.874 606.289C604.344 606.152 603.87 605.863 603.51 605.461C601.658 603.403 599.654 601.519 597.499 599.808C587.914 592.221 579.174 582.994 573.001 577.795C569.124 574.514 564.776 572.824 559.956 572.727L555.732 568.113C554.021 566.24 554.324 565.823 556.642 566.862C577.501 576.187 598.636 584.813 620.047 592.741C620.74 593.001 620.886 592.822 620.486 592.205C619.381 590.472 618.103 588.918 616.652 587.542C596.215 568.292 570.45 554.207 544.279 544.72C544.225 544.698 544.204 544.661 544.215 544.606L544.328 544.217C544.415 543.902 544.621 543.778 544.946 543.843C567.461 548.24 583.295 551.901 592.446 554.825C604.522 558.68 616.316 562.341 627.828 565.806C631.121 567.994 634.554 569.824 638.128 571.297C644.745 574.048 648.308 575.537 648.817 575.765C656.149 579.176 663.66 582.187 671.349 584.797C671.502 584.845 671.668 584.833 671.813 584.764C671.958 584.694 672.071 584.573 672.129 584.423C672.27 584.023 672.216 583.508 671.966 582.88L672.568 583.059C673.271 583.275 673.407 583.086 672.974 582.49C650.165 551.348 603.087 534.258 567.153 530.197C562.897 529.72 562.875 529.087 567.088 528.296C572.34 527.311 577.875 526.504 583.69 525.876C588.878 527.045 593.963 527.782 598.945 528.085C618.071 529.276 637.159 530.885 656.209 532.91C659.49 533.267 662.344 532.964 664.77 532C665.355 531.762 665.463 531.383 665.095 530.863C664.889 530.571 664.618 530.321 664.283 530.116C664.369 529.553 664.174 529.087 663.698 528.719C641.377 511.418 606.791 507.892 579.174 509.208C581.416 504.638 584.887 500.723 589.587 497.463C589.663 497.853 589.793 498.183 589.977 498.454C590.124 498.67 590.337 498.834 590.585 498.921C590.834 499.009 591.104 499.016 591.358 498.941C598.132 496.829 605.02 497.041 611.469 495.172C627.931 490.407 642.931 488.886 656.469 490.608C658.654 490.889 660.836 491.242 662.999 491.663C672.627 493.559 680.306 498.687 686.035 507.048C689.235 511.694 690.194 514.017 695.928 515.739C703.71 518.078 709.623 519.069 716.105 525.421Z" fill="#FF534F"/>
<path d="M406.488 491.566C409.25 491.198 412.109 491.555 415.066 492.638L406.488 491.566Z" fill="#DFDF8A"/>
<path d="M664.284 530.116C664.619 530.321 664.89 530.57 665.096 530.863C665.464 531.383 665.356 531.762 664.771 532C662.345 532.964 659.491 533.267 656.21 532.91C637.16 530.885 618.072 529.276 598.946 528.085C593.964 527.782 588.879 527.045 583.691 525.876C609.781 523.13 637.82 523.439 663.114 530.197C663.601 530.327 663.991 530.3 664.284 530.116Z" fill="#FEF9F3"/>
<path d="M430.304 525.226C430.78 525.919 431.452 526.141 432.318 525.892C432.459 525.849 432.54 525.903 432.562 526.055V526.071C432.573 526.212 432.502 526.282 432.351 526.282C424.845 526.266 415.716 525.307 408.568 527.695C394.5 532.374 381.048 531.367 367.792 533.381C366.828 533.533 366.677 533.246 367.338 532.52L369.417 530.262C391.51 525.795 409.607 525.632 430.304 525.226Z" fill="#FEF9F3"/>
<path d="M716.105 525.421C715.845 525.453 715.948 525.67 716.414 526.071C716.804 533.273 718.45 540.648 721.352 548.197C716.728 541.807 714.979 534.215 716.105 525.421Z" fill="#FEF9F3"/>
<path d="M726.827 555.263C736.563 561.036 743.018 569.164 746.191 579.647C744.155 579.571 742.265 578.337 740.522 575.943C738.074 571.806 734.89 568.557 730.97 566.196C722.923 561.355 717.502 558.231 714.708 556.823C711.719 555.317 708.308 554.543 704.474 554.5C704.407 554.5 704.341 554.486 704.279 554.46C704.218 554.433 704.163 554.394 704.117 554.346C704.071 554.297 704.036 554.239 704.014 554.176C703.991 554.113 703.982 554.046 703.986 553.98L704.019 553.427C704.032 553.157 704.149 552.903 704.346 552.718C704.543 552.533 704.804 552.432 705.075 552.436C712.363 552.523 719.614 553.465 726.827 555.263Z" fill="#FEF9F3"/>
<path d="M286.941 581.126C288.68 569.218 296.624 560.121 307.297 554.581C314.759 553.054 321.668 552.523 328.026 552.989C331.405 553.238 331.453 553.785 328.172 554.63C316.28 557.7 293.586 567.902 288.046 580.768C287.949 581.006 287.77 581.131 287.51 581.142C287.337 581.142 287.147 581.136 286.941 581.126Z" fill="#FEF9F3"/>
<path d="M627.829 565.806C641.973 568.914 655.24 573.647 667.63 580.004C669.2 580.806 670.646 581.764 671.967 582.88C672.216 583.508 672.271 584.022 672.13 584.423C672.071 584.573 671.958 584.694 671.813 584.764C671.669 584.833 671.503 584.845 671.35 584.797C663.66 582.187 656.15 579.176 648.818 575.764C648.309 575.537 644.746 574.048 638.128 571.297C634.555 569.824 631.121 567.994 627.829 565.806Z" fill="#FEF9F3"/>
<path d="M292.302 598.898C292.713 598.898 293.071 598.806 293.374 598.622C293.829 598.34 293.98 597.945 293.829 597.436C293.147 595.216 292.09 593.207 290.661 591.409C290.152 590.77 290.309 590.445 291.132 590.434H291.83C292.155 590.423 292.367 590.266 292.464 589.963C292.627 589.476 292.448 589.032 291.928 588.631C291.506 588.295 291.294 587.862 291.294 587.331V585.837C291.294 585.209 291.495 585.133 291.896 585.609C293.065 586.974 293.807 588.571 294.121 590.402C294.15 590.586 294.238 590.757 294.371 590.888C294.503 591.02 294.675 591.106 294.86 591.133C295.045 591.16 295.234 591.127 295.399 591.04C295.564 590.952 295.697 590.814 295.778 590.645C295.865 590.483 295.941 590.32 296.006 590.158C296.116 589.909 296.302 589.7 296.538 589.563C296.774 589.425 297.047 589.366 297.317 589.393C297.587 589.42 297.84 589.533 298.039 589.714C298.239 589.895 298.374 590.136 298.426 590.402C298.74 591.918 299.552 593.082 300.863 593.894C301.621 594.36 302.033 594.149 302.098 593.261C302.163 592.513 302.585 592.01 303.365 591.75C303.62 591.663 303.894 591.652 304.154 591.719C304.414 591.785 304.648 591.926 304.827 592.124L306.403 593.813C306.695 594.138 307.042 594.208 307.442 594.024C308.103 593.721 308.796 593.613 309.521 593.699C309.646 593.716 309.764 593.763 309.867 593.835C309.969 593.908 310.053 594.004 310.11 594.116C310.168 594.227 310.197 594.351 310.197 594.477C310.196 594.602 310.165 594.726 310.106 594.837C309.348 596.277 309.581 597.701 310.805 599.109C312.17 600.669 312.743 600.414 312.527 598.346L311.975 593.017C311.888 592.205 312.207 591.988 312.933 592.367L313.664 592.757C314.52 593.223 315.104 593.921 315.418 594.853C316.686 598.687 319.263 600.338 323.151 599.808C327.223 599.244 329.454 598.963 329.844 598.963C332.671 598.974 335.427 598.974 338.113 598.963C338.85 598.959 339.571 599.172 340.187 599.577C340.803 599.981 341.285 600.559 341.573 601.237C342.201 602.688 342.813 604.297 343.409 606.062C346.057 613.811 342.857 619.513 351.824 624.484C355.322 626.412 358.225 627.446 360.531 627.587C366.77 627.966 374.648 627.256 384.168 625.459C391.966 623.997 400.706 620.715 409.153 618.262C412.651 617.255 415.852 615.955 418.754 614.363C427.77 609.425 436.705 605.51 443.56 597.452C450.091 589.795 457.125 582.079 464.663 574.303L481.964 566.521C483.957 565.622 484.271 566.023 482.906 567.723C477.145 574.904 471.632 582.599 466.369 590.808C459.221 601.968 455.468 614.006 448.856 625.735C441.708 638.39 430.71 644.888 415.749 642.419C408.243 641.168 399.309 633.435 393.087 641.753C388.278 648.169 386.069 654.115 377.605 657.673C369.499 661.068 357.104 661.263 349.241 657.462C341.671 653.812 337.42 647.173 336.488 637.545C335.449 626.921 336.765 611.163 321.949 609.977C310.269 609.051 300.717 607.946 292.302 598.898Z" fill="#F52535"/>
<path d="M404.442 567.854C391.933 575.066 378.996 580.974 365.632 585.577C364.441 585.989 363.217 586.259 361.96 586.389C361.311 586.443 361.045 586.151 361.164 585.512C361.219 585.22 361.359 584.9 361.587 584.554C374.762 576.301 389.269 571.46 404.442 567.854Z" fill="#FEF9F3"/>
<path d="M498.533 604.632C490.801 616.361 484.866 628.648 480.729 641.493C477.886 650.281 476.619 659.915 475.368 669.418C475.309 669.874 475.342 670.338 475.466 670.78C475.59 671.223 475.802 671.635 476.089 671.994C476.375 672.352 476.731 672.648 477.135 672.864C477.539 673.08 477.982 673.212 478.438 673.252C483.149 673.664 484.714 676.425 483.133 681.537C480.577 689.822 479.413 698.264 479.64 706.863C479.803 713.378 485.992 739.11 496.503 737.193C497.012 737.106 497.391 736.836 497.64 736.381C498.669 734.475 498.642 732.569 497.559 730.662C497.375 730.344 497.277 729.964 497.279 729.581C497.282 729.198 497.384 728.831 497.571 728.538C497.759 728.244 498.02 728.039 498.317 727.953C498.614 727.868 498.929 727.906 499.216 728.063C500.115 728.561 500.488 729.298 500.337 730.273C500.311 730.423 500.322 730.576 500.367 730.72C500.412 730.864 500.491 730.995 500.596 731.101L500.97 731.475C501.327 731.832 501.365 732.217 501.084 732.628L499.086 735.52C499.013 735.632 498.984 735.766 499.003 735.898C499.022 736.03 499.088 736.151 499.189 736.238C499.29 736.325 499.419 736.373 499.552 736.372C499.686 736.372 499.814 736.323 499.914 736.235C501.257 735 502.773 734.886 504.463 735.893C504.75 736.065 505.089 736.126 505.417 736.066C505.746 736.006 506.041 735.83 506.25 735.569C507.008 734.615 507.463 733.516 507.614 732.271C507.636 732.076 507.739 731.989 507.923 732.011C508.085 732.032 508.248 732.049 508.41 732.06C508.544 732.073 508.671 732.129 508.772 732.219C508.874 732.309 508.946 732.429 508.979 732.563L509.223 733.603C509.439 734.491 509.737 734.518 510.116 733.684C510.723 732.33 511.584 731.139 512.699 730.11C513.122 729.731 513.387 729.818 513.495 730.37L513.641 731.117C513.76 731.745 514.139 732.027 514.778 731.962C515.58 731.875 516.187 731.507 516.598 730.857C516.869 730.436 517.254 730.107 517.722 729.897C518.191 729.687 518.73 729.601 519.297 729.647C519.864 729.692 520.444 729.868 520.99 730.16C521.537 730.452 522.035 730.852 522.446 731.329C523.161 732.152 524.109 732.52 525.289 732.433C525.386 732.43 525.478 732.393 525.55 732.33C525.623 732.267 525.672 732.181 525.689 732.086C525.706 731.991 525.691 731.893 525.644 731.809C525.598 731.724 525.524 731.658 525.435 731.621L522.056 730.045C521.962 730.001 521.878 729.938 521.81 729.859C521.742 729.78 521.692 729.687 521.663 729.587C521.633 729.487 521.626 729.382 521.64 729.279C521.655 729.176 521.692 729.077 521.748 728.989C524.693 724.365 528.376 723.742 532.794 727.121C532.87 727.18 532.928 727.259 532.961 727.349C532.995 727.439 533.003 727.537 532.984 727.631C532.966 727.725 532.922 727.812 532.857 727.883C532.791 727.953 532.708 728.005 532.616 728.031C531.035 728.453 530.499 729.612 531.008 731.507C531.332 732.731 531.516 734.063 531.56 735.504C531.56 735.818 531.717 735.969 532.031 735.958L533.103 735.91C533.32 735.91 533.417 735.801 533.396 735.585C533.233 733.321 533.368 731.079 533.802 728.859C533.942 728.177 534.116 728.172 534.321 728.843L534.581 729.672C534.657 729.921 534.82 730.094 535.069 730.191C535.231 730.256 535.399 730.294 535.572 730.305C536.114 730.338 536.428 730.088 536.514 729.558C536.536 729.385 536.558 729.211 536.58 729.038C536.634 728.637 536.861 728.469 537.262 728.534L537.977 728.648C538.355 728.703 538.718 728.84 539.038 729.049C539.359 729.258 539.63 729.535 539.833 729.86C540.035 730.185 540.165 730.55 540.212 730.93C540.259 731.31 540.222 731.695 540.105 732.06C539.834 732.883 539.552 733.451 539.26 733.765C539.211 733.818 539.151 733.859 539.085 733.887C539.019 733.915 538.948 733.929 538.877 733.927C538.806 733.926 538.737 733.909 538.674 733.878C538.611 733.848 538.556 733.803 538.513 733.749L537.002 731.978C536.911 731.869 536.794 731.785 536.662 731.732C536.53 731.68 536.387 731.662 536.246 731.68C536.105 731.698 535.971 731.751 535.856 731.834C535.741 731.918 535.649 732.029 535.589 732.157L534.728 733.928C534.547 734.305 534.486 734.729 534.551 735.142C534.617 735.555 534.808 735.938 535.096 736.239C535.385 736.54 535.758 736.745 536.166 736.825C536.573 736.906 536.995 736.858 537.376 736.689C539.975 735.536 542.866 735.634 545.173 734.074C548.314 731.951 550.686 729.125 552.289 725.594C557.909 713.28 561.305 704.556 558.754 690.586C557.812 685.409 556.61 680.21 555.148 674.99C555.107 674.838 555.106 674.678 555.146 674.526C555.186 674.373 555.264 674.234 555.374 674.121C555.483 674.008 555.621 673.925 555.772 673.881C555.923 673.837 556.083 673.833 556.236 673.869L560.216 674.844C560.801 674.985 561.343 674.893 561.841 674.568C566.844 671.319 563.043 659.135 562.182 654.099C559.973 641.2 553.929 630.462 547.578 618.863C545.845 615.712 543.781 613.508 541.388 612.251L530.829 569.283C530.677 568.666 530.867 568.53 531.397 568.877C533.206 570.036 534.776 571.714 536.108 573.913C543.809 586.584 551.677 602.78 559.713 622.502C565.279 636.159 573.754 649.085 585.136 661.279C589.62 666.077 592.457 669.673 593.649 672.066C597.223 679.165 598.522 688.555 595.046 695.882C591.326 703.744 580.734 707.659 575.081 712.582C566.406 720.152 572.498 739.175 572.79 749.036C573.375 768.497 544.588 781.981 530.91 767.75C525.387 761.967 521.455 758.832 513.723 761.967C509.012 763.851 508.784 768.676 504.577 770.999C493.725 776.994 481.638 773.079 472.817 765.443C455.11 750.124 472.72 735.114 465.621 717.748C462.437 709.917 451.114 707.708 445.428 702.103C430.157 687.06 445.265 667.501 457.124 655.935C465.832 647.455 472.557 633.581 478.357 620.033C483.057 609.04 488.093 598.199 493.465 587.51C496.844 580.774 500.699 574.904 505.031 569.9C506.363 568.362 506.802 568.584 506.347 570.566L498.533 604.632Z" fill="#F52535"/>
<path d="M559.957 572.727C564.776 572.825 569.125 574.514 573.002 577.796C579.175 582.994 587.915 592.221 597.5 599.808C599.655 601.519 601.658 603.403 603.51 605.461C603.871 605.864 604.345 606.152 604.875 606.29C612.526 608.32 614.898 610.188 620.34 615.647C624.109 619.432 626.562 618.327 631.046 619.546C647.372 623.916 664.836 630.17 681 624.89C681.509 624.728 682.002 624.771 682.478 625.02C684.124 625.887 685.521 625.383 686.669 623.509C689.182 619.459 690.823 615.138 691.592 610.546C692.263 606.571 692.821 604.205 693.265 603.447C697.895 595.503 709.266 601.887 716.138 598.199C716.593 597.961 716.804 597.588 716.772 597.079L716.739 596.348C716.729 596.101 716.801 595.857 716.945 595.655C717.089 595.452 717.296 595.302 717.535 595.227C718.131 595.043 718.402 594.582 718.347 593.846C718.304 593.239 718.521 592.736 718.997 592.335C719.636 591.793 720.096 591.111 720.378 590.288C720.616 589.562 720.974 589.497 721.45 590.093C721.754 590.483 722.122 590.748 722.555 590.889C722.781 590.962 723.022 590.976 723.254 590.929C723.487 590.882 723.703 590.776 723.883 590.62C724.062 590.465 724.199 590.267 724.279 590.043C724.36 589.82 724.381 589.58 724.342 589.346L724.017 587.266C723.909 586.649 724.055 586.091 724.456 585.593C725.16 584.727 725.403 583.693 725.187 582.49C725.175 582.416 725.182 582.34 725.208 582.27C725.233 582.199 725.277 582.136 725.334 582.087C725.391 582.038 725.46 582.005 725.534 581.99C725.607 581.975 725.684 581.98 725.755 582.003L726.275 582.182C726.351 582.203 726.378 582.252 726.356 582.328C725.772 584.559 725.744 586.774 726.275 588.972C726.383 589.416 726.297 589.822 726.015 590.191L725.642 590.662C725.425 590.943 725.484 591.019 725.82 590.889L727.591 590.126C728.057 589.931 728.311 589.584 728.355 589.086L728.988 581.256C729.021 580.758 729.286 580.519 729.784 580.541L730.45 580.573C730.535 580.578 730.617 580.601 730.692 580.641C730.766 580.682 730.831 580.738 730.881 580.807C730.93 580.875 730.964 580.954 730.98 581.037C730.995 581.121 730.992 581.206 730.97 581.288C730.493 583.129 730.401 584.987 730.694 586.86C730.78 587.434 731.04 587.916 731.473 588.306C732.286 589.043 732.779 589.974 732.952 591.1C732.973 591.24 733.025 591.374 733.103 591.492C733.181 591.61 733.284 591.71 733.405 591.784C733.525 591.858 733.661 591.905 733.801 591.922C733.942 591.938 734.084 591.924 734.219 591.88L734.853 591.669C735.47 591.452 735.584 591.084 735.194 590.564L732.269 586.568C732.02 586.232 732.102 586.01 732.513 585.902L733.293 585.707C733.452 585.67 733.6 585.596 733.724 585.49C733.849 585.384 733.947 585.25 734.01 585.098C734.073 584.946 734.1 584.781 734.089 584.616C734.077 584.451 734.027 584.29 733.943 584.147C733.423 583.281 733.196 582.344 733.261 581.337C733.266 581.242 733.297 581.149 733.35 581.07C733.404 580.99 733.477 580.927 733.563 580.885C733.65 580.844 733.745 580.826 733.84 580.834C733.936 580.842 734.027 580.876 734.105 580.931C736.011 582.23 737.3 583.947 737.972 586.081C738.231 586.882 738.659 586.985 739.255 586.389L739.791 585.837C740.073 585.555 740.414 585.377 740.814 585.301L744.453 584.521C745.298 584.348 745.444 583.92 744.892 583.238L744.421 582.653C744.318 582.53 744.191 582.428 744.049 582.354C743.906 582.28 743.75 582.235 743.59 582.222C743.43 582.208 743.269 582.226 743.116 582.275C742.963 582.324 742.821 582.403 742.699 582.507C741.475 583.546 740.138 583.812 738.686 583.303C738.134 583.108 738.031 582.772 738.378 582.295C739.212 581.147 739.926 579.03 740.522 575.944C742.266 578.337 744.156 579.572 746.192 579.648C748.271 594.057 740.587 602.147 728.371 607.817C725.912 608.965 723.286 609.62 720.492 609.782C715.293 610.091 708.649 608.905 704.507 611.829C695.052 618.49 700.868 632.623 697.619 642.37C693.395 655.041 683.789 660.976 668.8 660.175C656.502 659.525 649.078 652.215 643.571 642.078C641.475 638.195 638.957 636.766 634.75 638.228C629.243 640.128 623.005 642.857 617.676 643.345C599.319 645.018 590.758 629.764 584.049 615.273C577.204 600.479 569.173 586.297 559.957 572.727Z" fill="#F52535"/>
<path d="M498.534 604.632C496.715 622.047 493.661 638.227 494.376 655.626C494.527 659.406 494.999 662.898 495.789 666.104C495.832 666.255 495.921 666.387 496.045 666.483C496.168 666.579 496.319 666.633 496.476 666.636C496.632 666.64 496.785 666.593 496.913 666.503C497.041 666.413 497.137 666.285 497.186 666.137C502.953 647.048 508.688 628.058 514.081 608.84C514.125 608.699 514.179 608.629 514.244 608.629C514.319 608.629 514.395 608.629 514.471 608.629C514.536 608.629 514.563 608.694 514.552 608.824C512.755 629.856 512.771 650.866 514.601 671.855C515.202 678.71 516.875 686.979 517.655 694.598C517.785 695.919 518.164 697.051 518.792 697.993C518.865 698.103 518.968 698.189 519.09 698.239C519.212 698.288 519.346 698.3 519.475 698.272C519.603 698.243 519.72 698.177 519.81 698.081C519.9 697.985 519.959 697.864 519.978 697.733C522.09 685.208 523.032 672.456 524.218 659.817C525.891 642.029 525.193 624.793 524.478 607.118C524.473 607.111 524.471 607.104 524.473 607.099C524.474 607.093 524.478 607.091 524.485 607.091C524.491 607.091 524.499 607.093 524.507 607.099C524.515 607.104 524.522 607.111 524.527 607.118C528.734 624.646 533.933 641.509 539.196 658.761C539.83 660.873 540.073 663.326 541.666 665.471C541.736 665.564 541.833 665.635 541.943 665.675C542.053 665.714 542.173 665.72 542.287 665.693C542.401 665.665 542.504 665.605 542.584 665.519C542.665 665.433 542.718 665.326 542.738 665.211C545.776 646.772 543.729 630.657 541.389 612.251C543.783 613.508 545.846 615.712 547.579 618.863C553.931 630.462 559.974 641.2 562.183 654.099C563.044 659.135 566.846 671.319 561.842 674.568C561.344 674.893 560.802 674.985 560.218 674.844L556.237 673.869C556.084 673.833 555.924 673.837 555.773 673.881C555.622 673.925 555.485 674.008 555.375 674.121C555.265 674.234 555.187 674.373 555.147 674.526C555.108 674.678 555.108 674.838 555.149 674.99C556.611 680.21 557.813 685.409 558.755 690.586C561.306 704.556 557.911 713.28 552.29 725.594C550.687 729.125 548.315 731.951 545.175 734.074C542.868 735.633 539.976 735.536 537.377 736.689C536.997 736.858 536.574 736.906 536.167 736.825C535.759 736.745 535.386 736.54 535.097 736.239C534.809 735.938 534.619 735.555 534.553 735.142C534.487 734.729 534.548 734.305 534.729 733.928L535.59 732.157C535.651 732.029 535.743 731.918 535.858 731.834C535.972 731.751 536.107 731.698 536.247 731.68C536.388 731.662 536.531 731.68 536.663 731.732C536.796 731.784 536.912 731.869 537.003 731.978L538.514 733.749C538.558 733.803 538.613 733.847 538.675 733.878C538.738 733.909 538.807 733.926 538.878 733.927C538.949 733.929 539.02 733.915 539.086 733.887C539.152 733.859 539.212 733.818 539.261 733.765C539.554 733.451 539.835 732.883 540.106 732.059C540.223 731.695 540.26 731.309 540.213 730.93C540.166 730.55 540.037 730.184 539.834 729.86C539.631 729.535 539.36 729.258 539.04 729.049C538.719 728.84 538.357 728.703 537.978 728.648L537.263 728.534C536.862 728.469 536.635 728.637 536.581 729.038C536.559 729.211 536.537 729.384 536.516 729.558C536.429 730.088 536.115 730.337 535.574 730.305C535.4 730.294 535.233 730.256 535.07 730.191C534.821 730.094 534.658 729.92 534.583 729.671L534.323 728.843C534.117 728.171 533.944 728.177 533.803 728.859C533.37 731.079 533.234 733.321 533.397 735.585C533.418 735.801 533.321 735.91 533.104 735.91L532.032 735.958C531.718 735.969 531.561 735.818 531.561 735.503C531.518 734.063 531.334 732.731 531.009 731.507C530.5 729.612 531.036 728.453 532.617 728.031C532.709 728.005 532.793 727.953 532.858 727.883C532.923 727.812 532.967 727.725 532.985 727.631C533.004 727.536 532.996 727.439 532.963 727.349C532.929 727.259 532.871 727.18 532.796 727.121C528.377 723.742 524.695 724.365 521.749 728.989C521.693 729.077 521.656 729.176 521.642 729.279C521.627 729.382 521.635 729.487 521.664 729.587C521.693 729.687 521.743 729.78 521.811 729.859C521.879 729.938 521.963 730.001 522.058 730.045L525.437 731.621C525.526 731.658 525.599 731.724 525.646 731.809C525.692 731.893 525.708 731.991 525.691 732.086C525.674 732.181 525.624 732.267 525.552 732.33C525.479 732.393 525.387 732.43 525.29 732.433C524.11 732.52 523.162 732.152 522.448 731.328C522.036 730.852 521.538 730.452 520.991 730.16C520.445 729.868 519.865 729.692 519.298 729.647C518.731 729.601 518.192 729.686 517.724 729.897C517.255 730.107 516.87 730.436 516.599 730.857C516.188 731.507 515.581 731.875 514.78 731.962C514.141 732.027 513.762 731.745 513.643 731.117L513.496 730.37C513.388 729.818 513.123 729.731 512.7 730.11C511.585 731.139 510.724 732.33 510.117 733.684C509.738 734.518 509.441 734.491 509.224 733.603L508.98 732.563C508.948 732.429 508.875 732.309 508.774 732.219C508.672 732.129 508.545 732.073 508.412 732.059C508.249 732.049 508.087 732.032 507.924 732.011C507.74 731.989 507.637 732.076 507.616 732.271C507.464 733.516 507.009 734.615 506.251 735.568C506.043 735.829 505.747 736.006 505.418 736.066C505.09 736.126 504.751 736.064 504.464 735.893C502.775 734.886 501.258 735 499.915 736.234C499.815 736.323 499.687 736.371 499.553 736.372C499.42 736.373 499.291 736.325 499.19 736.238C499.089 736.151 499.023 736.03 499.004 735.898C498.985 735.766 499.015 735.632 499.087 735.52L501.085 732.628C501.367 732.216 501.329 731.832 500.971 731.475L500.598 731.101C500.492 730.995 500.413 730.864 500.368 730.72C500.323 730.576 500.313 730.422 500.338 730.273C500.49 729.298 500.116 728.561 499.217 728.063C498.93 727.906 498.615 727.868 498.318 727.953C498.021 728.039 497.76 728.244 497.573 728.538C497.386 728.831 497.283 729.197 497.281 729.581C497.278 729.964 497.376 730.344 497.56 730.662C498.643 732.568 498.67 734.475 497.641 736.381C497.392 736.836 497.013 737.106 496.504 737.193C485.993 739.11 479.804 713.378 479.642 706.863C479.414 698.264 480.578 689.822 483.134 681.537C484.715 676.425 483.15 673.663 478.439 673.252C477.983 673.212 477.54 673.08 477.136 672.864C476.733 672.648 476.377 672.352 476.09 671.994C475.803 671.635 475.591 671.223 475.467 670.78C475.344 670.337 475.31 669.874 475.369 669.418C476.62 659.915 477.887 650.281 480.73 641.493C484.867 628.648 490.802 616.361 498.534 604.632Z" fill="#FF534F"/>
<path d="M493.498 725.447L493.417 724.781C493.352 724.251 493.563 723.872 494.051 723.644C494.462 723.449 494.884 723.417 495.318 723.547C495.427 723.579 495.527 723.638 495.609 723.717C495.691 723.797 495.753 723.894 495.79 724.003C495.827 724.111 495.837 724.226 495.82 724.339C495.802 724.452 495.758 724.559 495.691 724.651C495.009 725.594 494.863 726.666 495.253 727.868C495.308 728.031 495.322 728.205 495.296 728.375C495.269 728.545 495.202 728.706 495.1 728.845C494.998 728.983 494.864 729.095 494.71 729.171C494.555 729.247 494.385 729.285 494.213 729.281C493.422 729.249 492.794 728.918 492.329 728.29C491.971 727.792 492.047 727.37 492.556 727.023C492.816 726.85 493.043 726.633 493.238 726.373C493.444 726.103 493.531 725.794 493.498 725.447Z" fill="#F52535"/>
<path d="M541.402 728.382C541.276 728.323 541.168 728.231 541.082 728.112C540.997 727.993 540.936 727.85 540.903 727.689C540.871 727.528 540.867 727.354 540.893 727.177C540.918 726.999 540.972 726.821 541.051 726.653C541.13 726.485 541.234 726.331 541.355 726.199C541.476 726.066 541.613 725.959 541.758 725.882C541.903 725.805 542.052 725.761 542.198 725.751C542.345 725.742 542.484 725.767 542.61 725.827C542.735 725.886 542.844 725.978 542.929 726.097C543.015 726.216 543.075 726.359 543.108 726.52C543.141 726.681 543.144 726.855 543.119 727.032C543.094 727.21 543.04 727.388 542.96 727.556C542.881 727.724 542.778 727.878 542.657 728.01C542.535 728.143 542.398 728.25 542.254 728.327C542.109 728.404 541.959 728.448 541.813 728.458C541.667 728.467 541.527 728.442 541.402 728.382Z" fill="#F52535"/>
<path d="M496.357 734.415C495.122 735.823 493.774 735.936 492.312 734.756C491.969 734.477 491.733 734.089 491.643 733.656C491.554 733.223 491.617 732.773 491.821 732.381C492.026 731.989 492.359 731.68 492.765 731.506C493.172 731.332 493.625 731.304 494.05 731.426C495.014 731.707 495.794 732.205 496.389 732.92C496.562 733.128 496.654 733.392 496.648 733.666C496.642 733.94 496.539 734.205 496.357 734.415Z" fill="#F52535"/>
</svg>
