<svg width="1024" height="1024" viewBox="0 0 1024 1024" fill="none" xmlns="http://www.w3.org/2000/svg">
<rect width="1024" height="1024" fill="white"/>
<path d="M656.496 640.822L656.05 724.15C656.044 724.586 656.164 725.015 656.395 725.386C656.626 725.757 656.959 726.055 657.355 726.245C668.63 731.58 679.757 736.988 690.735 742.471C708.088 751.125 724.028 761.886 738.555 774.752C743.065 778.747 747.461 782.605 751.742 786.325C752.615 787.089 753.738 787.51 754.901 787.51L777.927 787.407C778.625 787.407 779.226 787.642 779.73 788.111C786.684 794.584 790.41 802.191 781.842 809.608C780.262 810.994 778.013 811.692 775.094 811.703C599.072 812.195 423.051 812.075 247.029 811.343C237.345 811.291 228.725 808.166 231.541 796.61C233.379 789.055 239.526 787.664 246.96 787.647C251.963 787.647 256.959 787.458 261.95 787.081C262.514 787.048 263.042 786.802 263.427 786.394C290.763 758.251 322.563 738.642 359.582 724.374C360.258 724.11 360.475 723.635 360.235 722.948L354.826 707.443C354.574 706.711 354.094 706.505 353.384 706.825C320.571 721.523 284.358 727.842 248.729 731.276C246.909 731.448 245.249 731.476 243.75 731.362C243.08 731.314 242.45 731.025 241.976 730.548C241.503 730.071 241.218 729.44 241.174 728.769C238.896 695.745 241.54 662.989 249.107 630.502C255.58 602.686 268.012 580.02 286.041 553.045C286.361 552.553 286.47 552.021 286.367 551.448C284.112 538.353 281.594 525.361 278.812 512.471C278.297 510.136 279.344 507.286 281.954 503.92C282.12 503.708 282.226 503.454 282.259 503.185C282.292 502.916 282.252 502.642 282.143 502.392C276.385 489.606 270.667 476.825 264.99 464.05C254.401 440.252 247.069 415.48 242.994 389.736C241.563 380.681 240.098 371.638 238.598 362.606C238.049 359.309 239.428 357.524 242.736 357.249C293.39 353.025 342.927 364.1 388.738 385.306C394.044 387.761 399.453 391.178 405.016 394.063C405.221 394.171 405.447 394.231 405.679 394.238C405.911 394.245 406.141 394.199 406.352 394.102C406.562 394.006 406.748 393.863 406.895 393.683C407.041 393.504 407.144 393.293 407.196 393.067C418.186 347.324 437.932 303.213 465.886 265.112C475.553 251.942 482.953 242.618 492.946 232.882C496.793 229.128 500.828 229.03 505.052 232.59C523.562 248.199 539.221 272.804 551.12 293.718C555.259 300.998 559.483 310.373 563.93 318.615C564.033 318.812 564.189 318.977 564.38 319.09C564.572 319.204 564.791 319.262 565.013 319.259C565.236 319.255 565.453 319.19 565.641 319.07C565.828 318.951 565.979 318.781 566.076 318.581C570.575 309.635 575.245 300.706 581.083 292.602C605.534 258.673 636.561 232.882 671.898 212.587C672.721 212.118 673.671 211.923 674.612 212.028C675.553 212.132 676.436 212.533 677.135 213.171C678.612 214.521 679.665 216.393 680.295 218.785C692.692 265.592 706.171 313.928 705.57 362.812C705.568 362.905 705.587 362.996 705.625 363.08C705.664 363.164 705.72 363.239 705.791 363.298C705.862 363.357 705.945 363.4 706.035 363.423C706.124 363.446 706.218 363.448 706.308 363.43C732.671 357.798 759.44 355.406 786.615 356.253C789.179 356.333 791.028 357.215 792.161 358.897C792.476 359.364 792.691 359.89 792.795 360.442C792.898 360.994 792.887 361.561 792.762 362.108C781.756 411.834 770.166 461.44 740.993 504.195C740.604 504.756 740.701 505.208 741.285 505.552C745.555 508.07 747.037 511.504 745.732 515.854C743.42 523.546 740.598 534.57 737.267 548.924C731.658 573.055 724.366 601.535 715.392 634.365C713.451 641.44 711.82 653.493 708.472 660.121C706.6 663.796 702.891 663.263 699.577 661.564C685.52 654.386 671.423 647.306 657.286 640.324C656.76 640.06 656.496 640.226 656.496 640.822Z" fill="#010F0C"/>
<path d="M425.107 268.898C425.11 270.19 424.858 271.47 424.365 272.664C423.873 273.859 423.15 274.945 422.238 275.86C421.326 276.775 420.243 277.502 419.05 277.998C417.857 278.495 416.578 278.752 415.286 278.754L326.789 278.908C325.497 278.911 324.217 278.658 323.022 278.166C321.828 277.674 320.742 276.951 319.827 276.039C318.912 275.127 318.185 274.044 317.688 272.851C317.192 271.658 316.935 270.379 316.933 269.087L316.931 267.851C316.928 266.559 317.181 265.279 317.673 264.084C318.165 262.89 318.888 261.804 319.8 260.888C320.712 259.973 321.796 259.247 322.988 258.75C324.181 258.254 325.46 257.997 326.752 257.995L415.249 257.84C416.541 257.838 417.821 258.09 419.016 258.582C420.21 259.075 421.296 259.798 422.211 260.71C423.127 261.622 423.853 262.705 424.35 263.898C424.846 265.091 425.103 266.37 425.105 267.662L425.107 268.898Z" fill="#010F0C"/>
<path d="M399.642 309.395C399.642 312.496 398.41 315.47 396.217 317.663C394.024 319.856 391.05 321.088 387.949 321.088C384.847 321.088 381.873 319.856 379.68 317.663C377.487 315.47 376.255 312.496 376.255 309.395C376.255 306.293 377.487 303.319 379.68 301.126C381.873 298.933 384.847 297.701 387.949 297.701C391.05 297.701 394.024 298.933 396.217 301.126C398.41 303.319 399.642 306.293 399.642 309.395Z" fill="#010F0C"/>
<path d="M352.472 310.394C352.47 311.672 352.216 312.938 351.724 314.118C351.233 315.299 350.514 316.371 349.608 317.273C348.703 318.176 347.628 318.891 346.446 319.378C345.264 319.865 343.998 320.115 342.719 320.113L299.484 320.037C298.205 320.035 296.94 319.781 295.759 319.289C294.579 318.798 293.507 318.079 292.605 317.173C291.702 316.268 290.987 315.193 290.5 314.011C290.013 312.829 289.763 311.563 289.765 310.284L289.767 309.22C289.769 307.941 290.023 306.676 290.515 305.495C291.006 304.315 291.725 303.243 292.631 302.34C293.536 301.438 294.611 300.723 295.793 300.236C296.975 299.748 298.241 299.499 299.52 299.501L342.755 299.577C344.034 299.579 345.299 299.833 346.48 300.324C347.66 300.815 348.732 301.534 349.634 302.44C350.537 303.346 351.252 304.42 351.739 305.602C352.227 306.784 352.476 308.051 352.474 309.329L352.472 310.394Z" fill="#010F0C"/>
<path d="M783.746 677.827C783.737 680.409 782.702 682.882 780.87 684.701C779.038 686.521 776.558 687.538 773.976 687.529L742.726 687.42C740.143 687.41 737.671 686.376 735.851 684.544C734.032 682.712 733.015 680.232 733.024 677.65L733.027 676.826C733.036 674.244 734.07 671.771 735.902 669.951C737.735 668.132 740.214 667.115 742.796 667.124L774.047 667.233C776.629 667.242 779.101 668.277 780.921 670.109C782.74 671.941 783.757 674.421 783.748 677.003L783.746 677.827Z" fill="#010F0C"/>
<path d="M750.694 713.597C750.697 714.905 750.441 716.201 749.943 717.41C749.445 718.619 748.713 719.718 747.79 720.644C746.867 721.571 745.77 722.306 744.563 722.809C743.355 723.312 742.061 723.571 740.753 723.574L689.962 723.662C688.655 723.665 687.359 723.409 686.15 722.911C684.941 722.413 683.842 721.681 682.915 720.758C681.989 719.835 681.253 718.738 680.751 717.53C680.248 716.323 679.988 715.029 679.986 713.721L679.985 713.102C679.983 711.795 680.238 710.499 680.736 709.29C681.235 708.081 681.966 706.982 682.889 706.055C683.813 705.129 684.909 704.393 686.117 703.891C687.324 703.388 688.619 703.128 689.926 703.126L740.717 703.038C742.025 703.035 743.32 703.291 744.529 703.789C745.739 704.287 746.838 705.019 747.764 705.942C748.69 706.865 749.426 707.962 749.929 709.169C750.431 710.377 750.691 711.671 750.693 712.979L750.694 713.597Z" fill="#010F0C"/>
<path d="M645.439 274.383C636.144 279.203 628.938 287.13 623.821 298.165" stroke="#EEEFC4" stroke-width="2"/>
<path d="M612.281 310.459C604.085 319.502 597.709 329.535 593.153 340.559" stroke="#EEEFC4" stroke-width="2"/>
<path d="M585.736 353.042L581.855 362.177" stroke="#EEEFC4" stroke-width="2"/>
<path d="M505.412 272.581C505.561 275.523 506.196 278.425 507.318 281.286C508.314 283.805 508.812 286.054 508.812 288.034C508.938 329.896 509.104 371.718 509.31 413.5" stroke="#FEDB9E" stroke-width="2"/>
<path d="M496.844 413.397L496.656 280.119C496.656 278.505 496.226 278.384 495.368 279.758C490.182 288.126 485.031 296.803 479.914 305.789C475.45 313.63 472.354 321.42 470.625 329.158" stroke="#FEA9A7" stroke-width="2"/>
<path d="M470.625 329.158C469.046 330.932 468.004 332.581 467.5 334.103C467.374 334.481 467.22 334.853 467.037 335.219C466.602 336.044 466.23 336.839 465.921 337.606C459.247 353.643 453.501 370.013 448.681 386.714C448.636 386.851 448.561 386.954 448.458 387.023C448.401 387.057 448.344 387.092 448.286 387.126C448.035 387.275 447.88 387.47 447.823 387.71C446.781 391.808 445.854 395.917 445.041 400.038C444.595 402.316 443.484 406.025 441.71 411.165C439.306 418.136 437.223 430.614 435.46 448.597" stroke="#FEDB9E" stroke-width="2"/>
<path d="M407.334 471.331L398.303 474.473" stroke="#F9929A" stroke-width="2"/>
<path d="M360.046 488.879L306.439 512.162" stroke="#FEA9A7" stroke-width="2"/>
<path d="M420.949 440.509C422.289 438.987 422.661 436.904 422.065 434.259" stroke="#CAE3DC" stroke-width="2"/>
<path d="M470.436 412.916L470.625 329.158" stroke="#FF8646" stroke-width="2"/>
<path d="M368.133 503.714C361.162 504.493 356.103 507.835 352.955 513.742C350.688 518.011 352.119 521.222 357.247 523.374" stroke="#FEA9A7" stroke-width="2"/>
<path d="M342.018 538.862L310.939 540.408" stroke="#FA3C42" stroke-width="2"/>
<path d="M443.031 583.369L442.756 597.26" stroke="#FEA9A7" stroke-width="2"/>
<path d="M442.757 597.26C420.006 601.535 415.456 591.37 410.133 571.263C407.969 563.073 396.002 547.774 385.321 549.886C382.208 550.493 382.019 551.592 384.755 553.183C388.206 555.192 391.64 557.046 393.752 560.91C395.916 564.836 398.159 568.716 400.483 572.551C404.295 578.801 403.127 585.103 407.094 591.302C407.403 591.794 407.563 592.337 407.575 592.933C407.609 599.194 406.281 604.901 403.591 610.052" stroke="#7F8785" stroke-width="2"/>
<path d="M403.591 610.052C400.5 615.111 396.717 617.813 392.241 618.156" stroke="#FEA9A7" stroke-width="2"/>
<path d="M494.835 644.839C488.539 644.13 482.512 644.788 476.754 646.814" stroke="#FEA9A7" stroke-width="2"/>
<path d="M476.755 646.814L465.182 635.001C465.001 634.814 464.773 634.68 464.522 634.613C464.27 634.547 464.006 634.55 463.756 634.623C462.497 634.989 461.393 635.607 460.443 636.477C460.042 636.855 459.567 637.073 459.017 637.13C453.855 637.714 448.692 638.212 443.53 638.624C440.874 638.841 438.893 639.849 437.588 641.646C430.48 651.45 434.412 659.847 440.233 668.999" stroke="#80312E" stroke-width="2"/>
<path d="M440.234 668.998C424.494 670.67 416.098 678.774 415.044 693.312" stroke="#FEA9A7" stroke-width="2"/>
<path d="M403.591 610.052L419.834 640.186C419.977 640.454 420.18 640.684 420.428 640.86C420.675 641.035 420.96 641.151 421.26 641.198C421.559 641.244 421.866 641.221 422.155 641.128C422.444 641.036 422.707 640.878 422.925 640.667C431.957 631.841 448.801 611.477 443.959 597.998C443.661 597.151 443.261 596.905 442.757 597.26" stroke="#80312E" stroke-width="2"/>
<path d="M475.021 705.967L474.832 702.464C474.798 701.846 474.506 701.388 473.956 701.09C472.136 700.117 470.104 699.436 467.861 699.047" stroke="#FCAF8D" stroke-width="2"/>
<path d="M434.017 741.527L432.352 730.229" stroke="#FEA9A7" stroke-width="2"/>
<path d="M476.756 646.814C470.214 652.223 470.334 657.889 469.767 666.011C469.201 674.424 474.884 681.361 473.184 690.444C473.15 690.633 473.074 690.811 472.962 690.966C472.85 691.121 472.705 691.25 472.537 691.342C472.369 691.434 472.183 691.487 471.992 691.499C471.801 691.51 471.61 691.478 471.433 691.406C470.826 691.166 470.323 690.605 469.922 689.723C463.517 675.764 454.091 673.411 440.234 668.998" stroke="#7F8785" stroke-width="2"/>
<path d="M427.046 748.739L416.744 757.015" stroke="#FA3C42" stroke-width="2"/>
<path d="M482.541 763.454C480.32 764.759 476.715 765.022 471.724 764.244" stroke="#F9929A" stroke-width="2"/>
<path d="M738.521 391.109C734.435 390.96 730.514 391.487 726.759 392.689C722.387 394.097 719.113 395.03 716.938 395.488C713.298 396.266 709.686 397.359 706.103 398.767" stroke="#EEEFC4" stroke-width="2"/>
<path d="M691.422 403.696C684.543 405.47 677.795 408.372 671.178 412.401" stroke="#EEEFC4" stroke-width="2"/>
<path d="M654.917 419.595C647.385 422.984 640.843 426.813 635.291 431.083C634.718 431.529 634.518 432.016 634.69 432.542" stroke="#EEEFC4" stroke-width="2"/>
<path d="M385.424 422.686C379.609 418.302 373.09 415.016 365.867 412.83" stroke="#EEEFC4" stroke-width="2"/>
<path d="M350.791 407.559C345.148 403.644 338.617 401.103 331.2 399.935" stroke="#EEEFC4" stroke-width="2"/>
<path d="M317.033 396.055C309.867 393.822 302.049 392.649 293.578 392.535" stroke="#EEEFC4" stroke-width="2"/>
<path d="M311.849 437.453C311.288 438.312 310 438.758 307.986 438.792C299.48 438.953 290.809 439.027 281.972 439.016" stroke="#8DAE85" stroke-width="2"/>
<path d="M744.805 440.183C738.658 439.244 732.471 438.958 726.244 439.324C722.398 439.531 719.29 438.414 715.598 437.607" stroke="#69A29D" stroke-width="2"/>
<path d="M452.322 468.343C453.369 472.138 453.936 475.881 455.584 479.401C460.449 489.761 464.879 500.206 468.874 510.737C468.93 510.881 469.022 511.009 469.141 511.107C469.259 511.206 469.401 511.273 469.551 511.3C469.702 511.328 469.856 511.316 470 511.265C470.143 511.215 470.27 511.128 470.368 511.012L483.624 495.799C484.459 494.837 484.568 493.801 483.95 492.691L462.384 454.366" stroke="#FEA9A7" stroke-width="2"/>
<path d="M566.712 456.529L545.042 494.322C544.777 494.78 544.67 495.314 544.738 495.842C544.807 496.369 545.046 496.86 545.42 497.241L559.792 511.801C559.9 511.915 560.035 511.998 560.185 512.045C560.334 512.092 560.494 512.101 560.649 512.07C560.804 512.039 560.949 511.97 561.072 511.87C561.196 511.769 561.292 511.639 561.354 511.492L577.649 472.738" stroke="#FEA9A7" stroke-width="2"/>
<path d="M714.207 531.891C710.968 528.205 706.326 525.2 700.282 522.876" stroke="#FEA9A7" stroke-width="2"/>
<path d="M700.281 522.877C691.135 517.439 681.56 512.946 671.555 509.398C666.919 507.749 662.409 507.955 658.025 510.016C657.947 510.052 657.881 510.108 657.834 510.179C657.786 510.25 657.759 510.332 657.756 510.418C657.752 510.503 657.772 510.587 657.814 510.662C657.855 510.736 657.916 510.798 657.99 510.84C662.936 513.896 666.833 520.164 664.859 526.122C663.622 529.831 663.33 533.282 660.017 535.48C657.04 537.46 653.938 537.266 650.71 534.896" stroke="#7F8785" stroke-width="2"/>
<path d="M650.711 534.896L645.233 524.233C644.214 522.242 643.35 522.305 642.641 524.422C641.044 529.093 646.109 532.647 647.208 536.339C650.024 545.748 644.495 550.006 637.678 554.831C637.197 555.163 636.671 555.329 636.099 555.329C631.823 555.347 626.844 552.479 622.963 550.676C616.988 547.877 612.54 544.357 616.301 537.403C616.587 536.877 616.673 536.321 616.558 535.738C615.219 529.075 621.521 524.852 625.676 520.731C625.875 520.53 625.992 520.263 626.001 519.984C626.011 519.706 625.913 519.438 625.727 519.237C623.907 517.211 621.778 517.331 619.151 518.413C616.633 519.466 613.737 519.832 610.463 519.511C609.766 519.44 609.117 519.124 608.633 518.621C608.149 518.117 607.86 517.459 607.818 516.764C607.67 514.406 607.029 512.208 605.895 510.171C605.529 509.518 605.655 508.98 606.273 508.557L606.737 508.23C607.252 507.876 607.429 507.395 607.269 506.788C605.747 500.824 608.03 497.459 614.12 496.692C620.416 495.902 625.653 498.065 629.831 503.182C635.944 510.669 621.521 520.834 632.578 523.409C633.128 523.535 633.62 523.426 634.055 523.083C640.151 518.275 646.504 511.75 654.093 509.724C654.632 509.578 655.114 509.286 655.484 508.883C657.373 506.8 659.508 505.002 661.889 503.491C662.427 503.148 662.782 502.764 662.953 502.341C663.629 500.578 662.169 499.92 658.575 500.366C658.211 500.412 657.852 500.516 657.51 500.675C650.865 503.612 642.967 506.857 639.138 513.433C639.042 513.597 638.895 513.725 638.72 513.799C638.545 513.872 638.351 513.887 638.167 513.84C637.983 513.794 637.819 513.689 637.7 513.541C637.581 513.393 637.513 513.211 637.506 513.021C637.209 503.703 636.305 494.179 634.794 484.449C634.599 483.144 633.969 482.492 632.905 482.492C632.403 482.487 631.92 482.678 631.558 483.024C631.195 483.371 630.982 483.845 630.964 484.346C630.838 488.467 631.142 492.565 631.875 496.64C631.909 496.798 631.903 496.958 631.857 497.104C631.422 498.821 630.615 499.096 629.436 497.928C623.541 492.136 617.486 485.783 611.27 478.869" stroke="#FEA9A7" stroke-width="2"/>
<path d="M650.71 534.896C650.538 537.987 650.246 540.768 652.478 543.275C657.321 548.684 663.76 550.624 670.731 549.628C682.973 547.894 692.331 542.726 696.847 530.432C697.82 527.776 698.965 525.257 700.281 522.876" stroke="#80312E" stroke-width="2"/>
<path d="M630.414 732.684C621.606 734.212 612.454 739.26 612.574 749.408C612.631 753.586 612.328 757.415 611.664 760.895C611.355 762.555 611.853 762.847 613.158 761.771L616.97 758.577C617.416 758.211 617.931 758.011 618.515 757.976C623.643 757.725 626.74 760.077 627.804 765.033C627.919 765.606 628.268 765.909 628.852 765.944L629.899 765.978" stroke="#FEA9A7" stroke-width="2"/>
<path d="M629.9 765.978L626.432 766.819" stroke="#FA3C42" stroke-width="2"/>
<path d="M626.432 766.819C624.245 765.503 622.608 764.072 621.521 762.527C621.366 762.312 621.169 762.132 620.943 761.996C620.716 761.861 620.464 761.773 620.203 761.739C619.942 761.706 619.677 761.726 619.425 761.799C619.174 761.873 618.94 761.998 618.739 762.166C616.152 764.307 613.164 765.343 609.776 765.274C609.517 765.27 609.263 765.343 609.046 765.484C608.829 765.624 608.659 765.826 608.557 766.064C606.977 769.727 606.021 773.688 605.689 777.946" stroke="#FEA9A7" stroke-width="2"/>
<path d="M605.689 777.946C605.345 777.145 605.242 776.235 605.38 775.216C605.46 774.621 605.208 774.26 604.624 774.134L603.01 773.808" stroke="#FA3C42" stroke-width="2"/>
<path d="M603.01 773.808C603.445 771.438 603.302 769.126 602.58 766.871C602.374 766.23 601.974 766.064 601.379 766.373C594.373 770.036 587.047 772.984 579.4 775.216C572.498 777.225 567.999 779.423 569.493 787.287" stroke="#FEA9A7" stroke-width="2"/>
<path d="M539.908 535.84C534.895 539.498 529.142 541.249 529.4 548.701C530.035 566.438 541.849 567.778 555.911 562.867C557.611 562.283 559.225 562.335 560.015 564.069C560.107 564.271 560.157 564.49 560.162 564.712C560.167 564.934 560.126 565.154 560.043 565.36C559.959 565.566 559.834 565.753 559.676 565.908C559.518 566.064 559.329 566.186 559.122 566.267C556.089 567.411 553.313 568.888 550.795 570.697C547.772 572.877 543.858 572.774 541.66 575.848C539.553 578.778 539.096 582.149 540.286 585.961" stroke="#FFA6A1" stroke-width="2"/>
<path d="M540.286 585.961C538.615 591.067 537.716 595.468 537.59 599.166C537.155 612.444 537.161 628.596 537.607 647.621C537.756 653.94 538.357 658.776 539.41 662.13C545.471 681.55 566.523 693.312 585.719 693.226C605.929 693.14 627.444 678.992 627.907 657.099C628.377 635.167 628.56 613.537 628.457 592.212C628.452 591.578 628.2 590.972 627.754 590.523C627.308 590.073 626.703 589.817 626.07 589.808L572.532 589.052" stroke="#80312E" stroke-width="2"/>
<path d="M572.532 589.052C573.528 585.378 573.236 581.978 577.031 579.9C577.673 579.54 578.175 578.973 578.452 578.293C578.73 577.613 578.768 576.86 578.559 576.157C576.83 570.365 573.533 567.578 568.668 567.795" stroke="#FFA6A1" stroke-width="2"/>
<path d="M582.457 552.032L589.068 555.243C589.709 555.564 590.27 555.46 590.75 554.934C593.257 552.232 596.194 550.138 599.559 548.649C599.849 548.521 600.105 548.331 600.31 548.093C600.515 547.855 600.663 547.576 600.744 547.276L603.44 537.403C603.515 537.128 603.53 536.839 603.483 536.555C603.435 536.27 603.327 535.997 603.165 535.754L594.064 521.846" stroke="#FFA6A1" stroke-width="2"/>
<path d="M630.277 772.606C627.718 776.366 629.212 781.603 629.109 785.913C628.685 785.81 628.874 786.102 629.675 786.789" stroke="#FA8F94" stroke-width="2"/>
<path d="M572.532 589.052C563.397 589.396 554.297 589.447 545.231 589.207C542.604 589.121 541.625 587.988 540.286 585.961" stroke="#808480" stroke-width="2"/>
<path d="M603.011 773.808C600.389 777.334 598.403 781.208 597.052 785.432C596.858 786.039 596.44 786.354 595.799 786.377L587.969 786.583" stroke="#F9929A" stroke-width="2"/>
<path d="M626.431 766.819C623.935 768.01 622.59 769.441 622.396 771.112C621.583 777.946 620.015 783.28 617.691 787.115" stroke="#F9929A" stroke-width="2"/>
<path d="M608.042 786.961L605.689 777.946" stroke="#F9929A" stroke-width="2"/>
<path d="M630.586 765.789C630.357 765.858 630.128 765.921 629.899 765.978" stroke="#F9929A" stroke-width="2"/>
<path d="M294.833 601.175C292.647 603.327 291.027 606.074 289.974 609.416C287.707 616.645 284.994 622.02 283.466 628.579" stroke="#EFECBF" stroke-width="2"/>
<path d="M362.571 758.045C346.035 765.136 330.255 776.933 318.614 786.874" stroke="#9CBDBF" stroke-width="2"/>
<path d="M692.967 787.527C681.954 778.438 669.861 770.42 656.685 763.471" stroke="#9CBDBF" stroke-width="2"/>
<path d="M645.44 274.384C636.145 279.203 628.939 287.13 623.822 298.165C620.445 298.543 617.074 300.598 613.708 304.329C611.774 306.47 611.299 308.513 612.283 310.459C604.087 319.502 597.711 329.536 593.155 340.559C587.42 343.467 584.947 347.628 585.737 353.042L581.857 362.177C579.762 358.228 575.572 351.617 577.083 347.582C578.714 343.186 581.754 339.048 583.488 335.614C598.409 306.167 621.572 276.633 648.994 258.553C649.875 257.969 650.728 257.517 651.552 257.196C651.689 257.139 651.839 257.124 651.984 257.153C652.129 257.182 652.261 257.254 652.365 257.359C652.469 257.465 652.538 257.599 652.565 257.744C652.591 257.89 652.573 258.04 652.514 258.175L645.44 274.384Z" fill="#FDFEFE"/>
<path d="M505.413 272.581C505.561 275.523 506.197 278.425 507.319 281.286C508.314 283.805 508.812 286.054 508.812 288.035C508.938 329.896 509.104 371.718 509.31 413.5L496.845 413.397L496.656 280.119C496.656 278.505 496.226 278.385 495.368 279.758C490.182 288.126 485.031 296.803 479.914 305.789C475.45 313.63 472.354 321.42 470.625 329.158C469.045 330.932 468.004 332.581 467.5 334.103C467.374 334.481 467.22 334.853 467.036 335.219C466.601 336.044 466.229 336.839 465.92 337.606C459.247 353.643 453.5 370.013 448.681 386.714C448.635 386.851 448.561 386.954 448.458 387.023C448.401 387.057 448.343 387.092 448.286 387.126C448.034 387.275 447.88 387.469 447.822 387.71C446.781 391.808 445.854 395.917 445.041 400.038C444.594 402.316 443.484 406.025 441.71 411.165C439.306 418.136 437.222 430.613 435.46 448.597C433.296 452.718 431.957 456.615 427.922 459.449C423.457 462.574 419.68 466.111 414.683 468.24C412.279 469.259 409.83 470.289 407.334 471.331L398.302 474.473L360.046 488.879L306.44 512.162C306.337 508.579 305.696 505.609 304.517 503.251C304.383 502.983 304.307 502.69 304.295 502.391C304.283 502.092 304.335 501.793 304.447 501.516C304.559 501.238 304.729 500.987 304.945 500.78C305.161 500.573 305.419 500.414 305.701 500.315C319.472 495.421 330.53 489.051 346.344 483.058C364.717 476.121 381.922 468.961 399.917 462.385C406.155 460.107 412.142 457.451 417.877 454.418C418.191 454.252 418.462 454.015 418.668 453.726C418.874 453.437 419.008 453.103 419.062 452.752L420.95 440.509C422.29 438.987 422.662 436.904 422.067 434.259C432.197 389.53 443.427 353.197 464.186 314.34C473.132 297.581 484.791 279.089 497.737 265.284C497.872 265.142 498.037 265.031 498.219 264.959C498.401 264.886 498.597 264.854 498.794 264.864C498.99 264.873 499.183 264.925 499.36 265.015C499.536 265.105 499.691 265.232 499.815 265.387L505.413 272.581Z" fill="#FDFEFE"/>
<path d="M645.747 345.951L666.06 275.311C666.93 272.3 667.766 272.312 668.567 275.345C672.619 290.707 675.309 307.214 676.637 324.865C676.74 326.307 675.888 327.584 674.079 328.694C664.681 334.406 655.34 340.238 646.056 346.191C646.02 346.215 645.978 346.227 645.934 346.226C645.891 346.224 645.849 346.209 645.815 346.183C645.781 346.156 645.756 346.119 645.744 346.077C645.731 346.036 645.733 345.991 645.747 345.951Z" fill="#DFDF8A"/>
<path d="M505.412 272.581C516.413 286.718 526.314 302.566 535.117 320.126C554.005 357.781 566.162 389.684 573.768 426.756C574.157 428.656 573.688 428.896 572.36 427.477C568.84 423.716 563.191 415.286 558.555 413.792C556.048 412.991 554.079 412.664 552.648 412.813C539.003 414.244 524.557 414.473 509.31 413.5C509.104 371.718 508.938 329.896 508.812 288.034C508.812 286.054 508.314 283.805 507.318 281.286C506.196 278.425 505.561 275.523 505.412 272.581Z" fill="#FEB83D"/>
<path d="M645.439 274.383L633.952 313.481C633.911 313.625 633.828 313.754 633.713 313.851C633.599 313.948 633.458 314.009 633.309 314.026C633.159 314.042 633.008 314.014 632.875 313.944C632.742 313.875 632.633 313.767 632.561 313.635L623.821 298.165C628.938 287.13 636.144 279.203 645.439 274.383Z" fill="#DFDF8A"/>
<path d="M496.844 413.397L470.436 412.916L470.625 329.158C472.353 321.42 475.45 313.63 479.914 305.789C485.031 296.803 490.182 288.126 495.368 279.758C496.226 278.384 496.656 278.505 496.656 280.119L496.844 413.397Z" fill="#FF534F"/>
<path d="M612.281 310.459C615.887 318.643 620.214 326.153 625.262 332.987C625.606 333.456 625.846 334.515 625.984 336.163C626.052 337.125 625.972 338.184 625.743 339.34C624.072 347.524 622.401 355.709 620.729 363.894C620.615 364.489 620.472 364.981 620.3 365.37C620.245 365.493 620.16 365.6 620.053 365.681C619.946 365.761 619.82 365.813 619.688 365.83C619.556 365.847 619.423 365.83 619.302 365.779C619.18 365.729 619.074 365.647 618.995 365.542C612.024 356.339 603.41 348.011 593.153 340.559C597.709 329.535 604.085 319.502 612.281 310.459Z" fill="#DFDF8A"/>
<path d="M470.625 329.158L470.436 412.916C466.59 412.756 463.311 414.09 460.598 416.917C449.626 428.387 444.406 438.157 435.46 448.597C437.223 430.614 439.306 418.136 441.71 411.165C443.484 406.025 444.595 402.316 445.041 400.038C445.854 395.917 446.781 391.808 447.823 387.71C447.88 387.47 448.035 387.275 448.286 387.126C448.344 387.092 448.401 387.057 448.458 387.023C448.561 386.954 448.636 386.851 448.681 386.714C453.501 370.013 459.247 353.643 465.921 337.606C466.23 336.839 466.602 336.044 467.037 335.219C467.22 334.853 467.374 334.481 467.5 334.103C468.004 332.581 469.046 330.932 470.625 329.158Z" fill="#FEB83D"/>
<path d="M676.93 369.492L635.343 390.972C635.206 391.044 635.052 391.077 634.898 391.069C634.743 391.061 634.594 391.011 634.466 390.925C634.337 390.838 634.234 390.719 634.168 390.579C634.102 390.44 634.075 390.285 634.089 390.131C634.381 387.246 635.824 384.653 636.425 381.992C637.936 375.381 640.923 369.801 646.864 366.178C657.464 359.699 667.978 353.128 678.407 346.466C678.534 346.385 678.681 346.341 678.832 346.34C678.983 346.339 679.131 346.38 679.26 346.458C679.389 346.537 679.493 346.65 679.561 346.785C679.628 346.92 679.657 347.071 679.643 347.221L677.806 368.187C677.748 368.782 677.457 369.217 676.93 369.492Z" fill="#DFDF8A"/>
<path d="M585.736 353.042C595.901 363.574 604.972 374.626 612.951 386.199C613.077 386.394 613.111 386.6 613.054 386.817L608.075 405.997C608.062 406.038 608.038 406.075 608.007 406.104C607.975 406.132 607.936 406.152 607.894 406.161C607.852 406.17 607.808 406.167 607.767 406.153C607.727 406.14 607.69 406.115 607.662 406.082C600.605 397.257 591.522 387.899 587.075 378.421C584.591 373.155 582.851 367.74 581.855 362.177L585.736 353.042Z" fill="#DFDF8A"/>
<path d="M738.521 391.11C734.434 390.961 730.514 391.487 726.759 392.689C722.386 394.097 719.112 395.03 716.937 395.488C713.297 396.267 709.686 397.36 706.103 398.768C700.951 399.111 696.058 400.754 691.422 403.696C684.542 405.47 677.794 408.372 671.178 412.401L654.917 419.596C647.385 422.984 640.843 426.813 635.291 431.083C634.719 431.529 634.518 432.016 634.69 432.542C628.234 435.072 623.066 439.09 619.185 444.596C618.636 445.374 617.949 445.518 617.125 445.025L612.489 442.244C612.339 442.154 612.209 442.035 612.106 441.895C612.003 441.754 611.93 441.594 611.89 441.424C611.85 441.255 611.844 441.079 611.873 440.907C611.902 440.735 611.966 440.571 612.059 440.424C617.743 431.564 626.946 424.695 635.686 419.046C668.705 397.652 708.3 385.323 747.501 382.679C748.153 382.633 748.279 382.873 747.879 383.4C745.383 386.651 742.264 389.221 738.521 391.11Z" fill="#FDFEFE"/>
<path d="M385.424 422.686C379.609 418.302 373.09 415.017 365.867 412.83L350.791 407.559C345.147 403.644 338.617 401.103 331.199 399.935C330.89 399.351 330.449 398.928 329.877 398.664C326.809 397.245 322.528 396.375 317.033 396.055C309.867 393.822 302.049 392.649 293.578 392.535L283.19 383.966C283.124 383.917 283.075 383.848 283.048 383.77C283.022 383.691 283.02 383.607 283.042 383.527C283.064 383.448 283.11 383.376 283.173 383.323C283.236 383.27 283.314 383.237 283.396 383.228C288.719 382.455 293.286 383.245 298.541 383.863C312.552 385.558 326.294 388.454 339.767 392.552C345.571 394.303 352.714 397.651 359.342 400.004C373.113 404.897 387.107 412.367 398.267 418.737C401.135 420.368 399.126 426.756 395.555 426.172C393.906 425.897 390.529 424.735 385.424 422.686Z" fill="#FDFEFE"/>
<path d="M738.521 391.109L706.532 418.445C706.5 418.47 706.461 418.486 706.419 418.491C706.378 418.495 706.336 418.488 706.299 418.47C706.261 418.452 706.23 418.425 706.207 418.39C706.185 418.355 706.173 418.314 706.172 418.273L706.103 398.767C709.686 397.359 713.298 396.266 716.938 395.488C719.113 395.03 722.387 394.097 726.759 392.689C730.514 391.487 734.435 390.96 738.521 391.109Z" fill="#DFDF8A"/>
<path d="M317.033 396.055L318.046 409.619C318.264 412.653 317.228 413.168 314.938 411.165L293.578 392.535C302.049 392.649 309.867 393.822 317.033 396.055Z" fill="#DFDF8A"/>
<path d="M350.791 407.559L350.173 439.53C350.168 439.719 350.109 439.902 350.002 440.058C349.895 440.213 349.746 440.335 349.571 440.407C349.397 440.48 349.206 440.501 349.02 440.467C348.834 440.433 348.662 440.346 348.525 440.217L331.921 424.592C331.509 424.203 331.303 423.722 331.303 423.15L331.2 399.935C338.617 401.103 345.148 403.644 350.791 407.559Z" fill="#DFDF8A"/>
<path d="M311.849 437.453C311.288 438.311 310 438.758 307.985 438.792C299.48 438.952 290.809 439.027 281.972 439.015C277.244 426.733 273.564 414.204 270.931 401.429C270.679 400.204 271.023 400.004 271.961 400.828C284.507 411.886 297.128 423.012 309.822 434.207C310.326 434.642 311.001 435.724 311.849 437.453Z" fill="#DFDF8A"/>
<path d="M744.805 440.183C738.658 439.244 732.471 438.958 726.244 439.324C722.398 439.53 719.29 438.414 715.598 437.607L756.584 402.03C757.317 401.389 757.58 401.549 757.374 402.511C754.409 416.098 750.22 428.656 744.805 440.183Z" fill="#97C8BA"/>
<path d="M691.422 403.696L691.783 429.074C691.794 429.669 691.582 430.167 691.147 430.568L671.092 448.872C671.004 448.957 670.892 449.014 670.771 449.036C670.65 449.057 670.525 449.042 670.412 448.992C670.3 448.943 670.205 448.86 670.139 448.756C670.074 448.652 670.041 448.531 670.045 448.408L671.178 412.401C677.794 408.372 684.542 405.47 691.422 403.696Z" fill="#DFDF8A"/>
<path d="M365.867 412.83C373.09 415.016 379.609 418.302 385.424 422.686C386.237 423.831 386.477 424.998 386.145 426.189C384.686 431.443 387.158 434.001 388.463 438.552C388.669 439.261 388.423 439.742 387.725 439.994L366.45 447.652C366.319 447.699 366.179 447.714 366.041 447.695C365.903 447.676 365.772 447.624 365.658 447.543C365.545 447.462 365.453 447.354 365.391 447.23C365.328 447.105 365.297 446.967 365.3 446.828L365.867 412.83Z" fill="#DFDF8A"/>
<path d="M654.917 419.595L655.483 456.993C655.486 457.248 655.43 457.501 655.32 457.731C655.209 457.961 655.047 458.163 654.846 458.321C654.646 458.478 654.411 458.588 654.161 458.64C653.912 458.693 653.653 458.687 653.406 458.624C648.289 457.302 635.686 454.16 635.634 447.91C635.577 442.942 635.514 437.985 635.445 433.04C635.445 432.823 635.348 432.662 635.153 432.559C634.936 432.456 634.781 432.451 634.69 432.542C634.518 432.016 634.718 431.529 635.291 431.083C640.843 426.813 647.385 422.984 654.917 419.595Z" fill="#DFDF8A"/>
<path d="M422.066 434.259C422.661 436.904 422.289 438.987 420.95 440.509C420.881 438.415 421.253 436.331 422.066 434.259Z" fill="#97C8BA"/>
<path d="M311.849 437.453C312.925 437.705 313.686 438.031 314.133 438.432C320.486 443.972 326.822 449.581 333.141 455.259C333.269 455.378 333.365 455.527 333.42 455.693C333.475 455.859 333.486 456.036 333.454 456.208C333.421 456.38 333.345 456.54 333.233 456.675C333.121 456.809 332.977 456.913 332.814 456.976C323.599 460.559 314.178 464.148 304.551 467.742C302.892 468.36 301.318 468.606 299.83 468.48C299.246 468.423 298.759 468.177 298.37 467.742C290.975 459.454 285.509 449.879 281.972 439.016C290.809 439.027 299.48 438.953 307.986 438.792C310 438.758 311.288 438.312 311.849 437.453Z" fill="#3A7C7F"/>
<path d="M715.598 437.607C719.289 438.414 722.397 439.531 726.244 439.324C732.471 438.958 738.658 439.244 744.805 440.183L734.022 464.72C733.834 465.151 733.498 465.501 733.074 465.708C732.649 465.916 732.164 465.967 731.704 465.853L696.899 456.873C696.246 456.701 696.161 456.386 696.641 455.928L715.598 437.607Z" fill="#3A7C7F"/>
<path d="M527.167 460.908H501.995C501.823 460.907 501.654 460.863 501.504 460.779C501.353 460.695 501.227 460.574 501.137 460.427L489.787 441.986C489.692 441.833 489.64 441.657 489.636 441.477C489.632 441.297 489.676 441.119 489.763 440.962C489.851 440.804 489.979 440.673 490.134 440.581C490.289 440.49 490.465 440.441 490.645 440.441L538.139 440.406C538.318 440.406 538.494 440.452 538.649 440.542C538.804 440.631 538.933 440.76 539.022 440.916C539.111 441.071 539.157 441.247 539.156 441.426C539.155 441.605 539.106 441.78 539.015 441.934L528.043 460.41C527.953 460.562 527.825 460.688 527.671 460.776C527.518 460.863 527.344 460.909 527.167 460.908Z" fill="#F52535"/>
<path d="M452.32 468.343C453.368 472.138 453.934 475.881 455.583 479.401C460.448 489.76 464.878 500.206 468.873 510.737C468.929 510.881 469.02 511.009 469.139 511.107C469.258 511.206 469.399 511.273 469.55 511.3C469.701 511.328 469.855 511.316 469.998 511.265C470.141 511.215 470.268 511.127 470.367 511.012L483.622 495.799C484.458 494.837 484.567 493.801 483.949 492.691L462.382 454.366L466.915 447.12C466.993 446.994 467.104 446.891 467.234 446.821C467.365 446.751 467.512 446.717 467.66 446.723C467.808 446.728 467.952 446.772 468.078 446.851C468.203 446.93 468.306 447.04 468.375 447.172L494.766 496.709C495.018 497.178 494.938 497.579 494.526 497.911C485.105 505.809 476.319 514.366 468.169 523.581C467.665 524.153 467.247 524.096 466.915 523.409L445.28 478.456C444.994 477.861 445.057 477.312 445.469 476.808L452.32 468.343Z" fill="#FDFEFE"/>
<path d="M566.712 456.53L545.042 494.322C544.777 494.781 544.67 495.315 544.738 495.842C544.807 496.369 545.046 496.861 545.42 497.241L559.792 511.802C559.9 511.915 560.035 511.999 560.185 512.045C560.334 512.092 560.494 512.101 560.649 512.07C560.804 512.04 560.949 511.971 561.073 511.87C561.196 511.769 561.293 511.639 561.354 511.493L577.649 472.739L583.195 481.135C583.352 481.376 583.441 481.654 583.457 481.943C583.472 482.232 583.411 482.522 583.281 482.783C576.653 496.096 570.781 509.741 565.664 523.718C565.183 525.012 564.445 525.183 563.449 524.233L535.289 497.516C534.98 497.218 534.923 496.881 535.118 496.503L559.088 449.181C559.351 448.654 559.712 448.58 560.17 448.957C563.123 451.419 565.304 453.943 566.712 456.53Z" fill="#FDFEFE"/>
<path d="M462.384 454.366L483.95 492.691C484.568 493.801 484.459 494.837 483.624 495.799L470.368 511.012C470.27 511.128 470.143 511.215 470 511.265C469.856 511.316 469.702 511.328 469.551 511.3C469.401 511.273 469.259 511.206 469.141 511.107C469.022 511.009 468.93 510.881 468.874 510.737C464.879 500.206 460.449 489.761 455.584 479.401C453.936 475.881 453.369 472.138 452.322 468.343L462.384 454.366Z" fill="#FF534F"/>
<path d="M566.712 456.529L577.649 472.738L561.354 511.492C561.292 511.639 561.196 511.769 561.072 511.87C560.949 511.97 560.804 512.039 560.649 512.07C560.494 512.101 560.334 512.092 560.185 512.045C560.035 511.998 559.9 511.915 559.792 511.801L545.42 497.241C545.046 496.86 544.807 496.369 544.738 495.842C544.67 495.314 544.777 494.78 545.042 494.322L566.712 456.529Z" fill="#FF534F"/>
<path d="M714.207 531.891C710.968 528.205 706.326 525.2 700.282 522.877C691.136 517.439 681.56 512.946 671.556 509.398C666.92 507.749 662.409 507.955 658.025 510.016C657.948 510.052 657.882 510.108 657.834 510.179C657.787 510.25 657.76 510.332 657.756 510.417C657.753 510.503 657.773 510.587 657.814 510.662C657.856 510.736 657.917 510.798 657.991 510.84C662.936 513.896 666.834 520.164 664.859 526.122C663.623 529.831 663.331 533.282 660.017 535.48C657.041 537.46 653.939 537.266 650.71 534.896L645.233 524.233C644.214 522.241 643.35 522.304 642.64 524.422C641.044 529.092 646.109 532.647 647.208 536.338C650.024 545.748 644.495 550.006 637.678 554.831C637.197 555.163 636.671 555.329 636.098 555.329C631.823 555.346 626.843 552.479 622.963 550.676C616.987 547.877 612.54 544.357 616.301 537.403C616.587 536.876 616.673 536.321 616.558 535.737C615.219 529.075 621.521 524.851 625.676 520.73C625.875 520.53 625.992 520.262 626.001 519.984C626.011 519.706 625.913 519.438 625.727 519.236C623.907 517.21 621.778 517.331 619.151 518.412C616.633 519.465 613.736 519.832 610.463 519.511C609.766 519.439 609.117 519.124 608.633 518.62C608.149 518.117 607.86 517.459 607.818 516.764C607.67 514.406 607.029 512.208 605.895 510.17C605.529 509.518 605.655 508.98 606.273 508.556L606.737 508.23C607.252 507.875 607.429 507.394 607.269 506.788C605.746 500.824 608.03 497.458 614.12 496.691C620.416 495.902 625.653 498.065 629.831 503.182C635.944 510.668 621.52 520.833 632.578 523.409C633.128 523.535 633.62 523.426 634.055 523.083C640.151 518.275 646.504 511.75 654.093 509.724C654.632 509.578 655.114 509.286 655.484 508.883C657.373 506.799 659.508 505.002 661.889 503.491C662.427 503.148 662.781 502.764 662.953 502.341C663.628 500.578 662.169 499.92 658.575 500.366C658.211 500.412 657.851 500.516 657.51 500.675C650.865 503.611 642.967 506.856 639.138 513.433C639.042 513.597 638.895 513.725 638.72 513.798C638.545 513.872 638.351 513.886 638.167 513.84C637.983 513.793 637.819 513.688 637.7 513.541C637.581 513.393 637.513 513.21 637.506 513.021C637.209 503.703 636.304 494.179 634.793 484.449C634.599 483.144 633.969 482.491 632.905 482.491C632.403 482.487 631.92 482.678 631.557 483.024C631.195 483.371 630.982 483.845 630.964 484.346C630.838 488.467 631.142 492.565 631.874 496.64C631.908 496.798 631.902 496.958 631.857 497.104C631.422 498.821 630.615 499.095 629.436 497.928C623.541 492.136 617.485 485.782 611.27 478.868L598.907 462.041C598.3 461.206 598.46 461.017 599.388 461.475L717.453 518.721C717.751 518.867 717.986 519.117 718.113 519.424C718.239 519.731 718.249 520.073 718.139 520.387L714.207 531.891Z" fill="#FDFEFE"/>
<path d="M686.339 471.279C687.278 472.664 688.325 473.099 689.482 472.584C689.985 472.366 690.506 472.298 691.044 472.378C696.802 473.248 702.445 474.524 707.974 476.207C713.492 477.878 719.055 479.017 724.664 479.624C724.755 479.633 724.843 479.666 724.917 479.72C724.991 479.774 725.05 479.846 725.086 479.93C725.123 480.014 725.137 480.106 725.126 480.198C725.115 480.289 725.08 480.375 725.025 480.448L718.637 488.518C718.259 489.011 717.784 489.125 717.212 488.862L684.176 473.288C683.535 472.979 683.495 472.601 684.056 472.155L685.326 471.124C685.716 470.815 686.053 470.867 686.339 471.279Z" fill="#3A7C7F"/>
<path d="M407.334 471.331L406.905 481.152C406.905 481.278 406.842 481.341 406.716 481.341C406.682 481.341 406.648 481.341 406.613 481.341C406.556 481.33 406.522 481.295 406.51 481.238C406.213 479.681 405.789 478.622 405.24 478.061C403.603 476.39 401.29 475.194 398.303 474.473L407.334 471.331Z" fill="#F52535"/>
<path d="M611.27 478.869C617.485 485.783 623.541 492.136 629.436 497.928C630.615 499.096 631.422 498.821 631.857 497.104C631.902 496.958 631.908 496.798 631.874 496.64C631.142 492.565 630.838 488.467 630.964 484.346C630.982 483.845 631.195 483.371 631.558 483.024C631.92 482.678 632.403 482.487 632.905 482.492C633.969 482.492 634.599 483.144 634.793 484.449C636.304 494.179 637.209 503.703 637.506 513.021C637.513 513.211 637.581 513.393 637.7 513.541C637.819 513.689 637.983 513.794 638.167 513.84C638.351 513.887 638.545 513.872 638.72 513.799C638.895 513.725 639.042 513.597 639.138 513.433C642.967 506.857 650.865 503.612 657.51 500.675C657.852 500.516 658.211 500.412 658.575 500.366C662.169 499.92 663.629 500.578 662.953 502.341C662.781 502.764 662.427 503.148 661.889 503.491C659.508 505.002 657.373 506.8 655.484 508.883C655.114 509.286 654.632 509.578 654.093 509.724C646.504 511.75 640.151 518.275 634.055 523.083C633.62 523.426 633.128 523.535 632.578 523.409C621.521 520.834 635.944 510.669 629.831 503.182C625.653 498.065 620.416 495.902 614.12 496.692C608.03 497.459 605.746 500.824 607.269 506.788C607.429 507.395 607.252 507.876 606.737 508.23L606.273 508.557C605.655 508.98 605.529 509.518 605.895 510.171C607.029 512.208 607.67 514.406 607.818 516.764C607.86 517.459 608.149 518.117 608.633 518.621C609.117 519.124 609.766 519.44 610.463 519.511C613.737 519.832 616.633 519.466 619.151 518.413C621.778 517.331 623.907 517.211 625.727 519.237C625.913 519.438 626.011 519.706 626.001 519.984C625.992 520.263 625.875 520.53 625.676 520.731C621.521 524.852 615.219 529.075 616.558 535.738C616.673 536.321 616.587 536.877 616.301 537.403C612.54 544.357 616.988 547.877 622.963 550.676C626.843 552.479 631.823 555.347 636.098 555.329C636.671 555.329 637.197 555.163 637.678 554.831C644.495 550.006 650.024 545.748 647.208 536.339C646.109 532.647 641.044 529.093 642.64 524.422C643.35 522.305 644.214 522.242 645.233 524.233L650.711 534.896C650.539 537.987 650.247 540.769 652.479 543.276C657.321 548.684 663.76 550.625 670.732 549.629C682.974 547.894 692.332 542.726 696.848 530.432C697.821 527.776 698.966 525.258 700.282 522.877C706.326 525.201 710.968 528.206 714.207 531.891C710.619 547.002 705.657 562.507 702.531 576.518C698.823 593.059 695.102 609.863 691.371 626.931C691.305 627.243 691.166 627.535 690.965 627.784C690.765 628.033 690.508 628.231 690.216 628.363C689.924 628.495 689.604 628.556 689.283 628.543C688.962 628.53 688.648 628.442 688.366 628.287L656.377 610.533C655.072 609.812 654.706 608.77 655.278 607.408L655.553 606.772C655.616 606.626 655.708 606.494 655.823 606.384C655.938 606.274 656.074 606.189 656.223 606.133C656.372 606.076 656.531 606.051 656.69 606.058C656.85 606.064 657.006 606.103 657.15 606.171L686.838 620.681C687.018 620.768 687.216 620.814 687.416 620.814C687.617 620.814 687.814 620.769 687.995 620.681C688.175 620.593 688.333 620.466 688.457 620.308C688.581 620.15 688.667 619.967 688.709 619.771C689.9 614.287 691.227 608.713 692.693 603.046C693.517 599.87 691.577 598.977 689.362 597.621C672.826 587.61 651.638 575.47 632.269 572.946C632.097 572.922 631.922 572.935 631.755 572.985C631.588 573.035 631.433 573.121 631.301 573.236C631.17 573.352 631.064 573.494 630.991 573.655C630.918 573.815 630.88 573.989 630.879 574.165L630.415 732.684C621.606 734.213 612.455 739.261 612.575 749.409C612.632 753.587 612.329 757.416 611.665 760.896C611.356 762.556 611.853 762.848 613.158 761.771L616.97 758.578C617.417 758.211 617.932 758.011 618.516 757.977C623.644 757.725 626.74 760.077 627.805 765.034C627.919 765.606 628.269 765.91 628.852 765.944L629.9 765.978L626.431 766.82C624.245 765.503 622.608 764.072 621.521 762.527C621.366 762.313 621.169 762.132 620.942 761.996C620.716 761.861 620.464 761.774 620.203 761.74C619.942 761.706 619.677 761.726 619.425 761.8C619.173 761.873 618.94 761.998 618.739 762.166C616.152 764.307 613.164 765.343 609.776 765.274C609.517 765.27 609.263 765.343 609.046 765.484C608.829 765.625 608.659 765.826 608.557 766.064C606.977 769.727 606.021 773.688 605.689 777.946C605.346 777.145 605.243 776.235 605.38 775.216C605.46 774.621 605.208 774.26 604.625 774.134L603.011 773.808C603.446 771.439 603.303 769.126 602.581 766.871C602.375 766.23 601.975 766.064 601.379 766.373C594.374 770.036 587.048 772.984 579.401 775.216C572.499 777.225 568 779.423 569.494 787.287L522.532 787.51C522.309 787.508 522.092 787.426 521.923 787.278C521.753 787.13 521.642 786.927 521.611 786.707C521.579 786.486 521.629 786.263 521.751 786.079C521.873 785.896 522.059 785.763 522.274 785.707C528.971 783.807 535.536 781.964 541.969 780.178C544.03 779.606 545.489 778.776 546.348 777.689C546.824 777.077 547.066 776.315 547.028 775.543C546.99 774.77 546.675 774.039 546.142 773.482C538.838 765.835 530.345 759.797 520.66 755.367C520.394 755.245 520.169 755.048 520.011 754.798C519.853 754.549 519.768 754.257 519.768 753.959L520.472 519.443C520.469 519.312 520.503 519.183 520.57 519.071C520.637 518.958 520.733 518.866 520.849 518.806C520.965 518.745 521.095 518.718 521.226 518.727C521.356 518.737 521.482 518.782 521.588 518.859C523.843 520.393 525.669 522.31 527.065 524.611C527.374 525.126 527.758 525.578 528.216 525.968L539.909 535.841C534.895 539.498 529.143 541.249 529.4 548.701C530.036 566.439 541.849 567.778 555.912 562.867C557.612 562.283 559.226 562.335 560.015 564.069C560.108 564.271 560.158 564.49 560.162 564.712C560.167 564.934 560.126 565.155 560.043 565.361C559.959 565.566 559.835 565.753 559.676 565.909C559.518 566.065 559.33 566.187 559.123 566.267C556.089 567.412 553.313 568.888 550.795 570.697C547.773 572.878 543.858 572.775 541.66 575.848C539.554 578.779 539.096 582.15 540.286 585.962C538.615 591.067 537.717 595.468 537.591 599.166C537.156 612.444 537.161 628.596 537.608 647.621C537.757 653.94 538.358 658.777 539.411 662.13C545.472 681.55 566.523 693.312 585.72 693.226C605.93 693.141 627.444 678.992 627.908 657.099C628.377 635.167 628.561 613.538 628.457 592.212C628.453 591.579 628.201 590.972 627.755 590.523C627.308 590.074 626.704 589.817 626.071 589.808L572.533 589.052C573.529 585.378 573.237 581.978 577.032 579.9C577.674 579.54 578.176 578.974 578.453 578.293C578.731 577.613 578.769 576.86 578.56 576.157C576.831 570.365 573.534 567.578 568.669 567.795C571.485 566.502 574.044 565.105 576.345 563.606C579.538 561.511 580.843 555.381 582.457 552.033L589.068 555.244C589.709 555.564 590.27 555.461 590.751 554.934C593.258 552.233 596.194 550.138 599.559 548.65C599.849 548.521 600.106 548.331 600.311 548.094C600.516 547.856 600.664 547.577 600.744 547.276L603.44 537.403C603.516 537.129 603.53 536.84 603.483 536.555C603.436 536.271 603.327 535.998 603.165 535.755L594.065 521.847C598.438 507.675 604.173 493.349 611.27 478.869Z" fill="#FF534F"/>
<path d="M360.046 488.879C361.637 494.202 364.333 499.147 368.133 503.714C361.162 504.493 356.103 507.835 352.955 513.742C350.688 518.012 352.119 521.223 357.247 523.375L342.017 538.863L310.938 540.408L306.439 512.162L360.046 488.879Z" fill="#FF534F"/>
<path d="M443.032 583.369L442.757 597.26C420.006 601.535 415.456 591.37 410.133 571.263C407.969 563.073 396.001 547.774 385.321 549.886C382.208 550.493 382.019 551.592 384.755 553.183C388.206 555.192 391.64 557.046 393.752 560.909C395.915 564.836 398.159 568.716 400.483 572.551C404.295 578.801 403.127 585.103 407.094 591.301C407.403 591.794 407.563 592.337 407.574 592.933C407.609 599.194 406.281 604.901 403.591 610.052C400.5 615.111 396.717 617.813 392.241 618.156L390.919 563.674C390.901 562.876 390.59 562.113 390.045 561.531C389.5 560.948 388.76 560.586 387.965 560.515C382.145 559.999 369.438 560.48 365.3 556.342C364.865 555.896 364.819 555.415 365.163 554.9C367.515 551.397 369.061 549.251 370.606 544.906C371.808 541.541 373.743 538.605 376.41 536.098C376.833 535.709 377.32 535.594 377.869 535.755C385.132 537.884 389.099 542.125 394.92 546.143C395.17 546.32 395.465 546.423 395.772 546.441C396.078 546.46 396.384 546.392 396.655 546.247C396.927 546.101 397.154 545.883 397.311 545.616C397.469 545.349 397.55 545.044 397.547 544.735C397.375 535.051 383.261 523.546 375.706 520.696C369.719 518.429 363.566 519.322 357.247 523.375C352.119 521.222 350.688 518.012 352.955 513.742C356.103 507.835 361.162 504.493 368.133 503.714C380.462 505.208 391.623 506.273 401.513 514.48C402.91 515.636 403.465 515.316 403.179 513.519C402.406 508.745 400.483 499.628 403.865 495.593C408.192 490.441 417.173 490.493 422.204 493.978C427.818 497.876 432.042 509.535 435.082 516.232C435.276 516.666 435.327 517.149 435.228 517.613C435.13 518.076 434.886 518.495 434.532 518.807C426.891 525.487 415.421 535.308 411.438 544.838C411.346 545.064 411.322 545.311 411.367 545.549C411.413 545.787 411.527 546.005 411.695 546.177L415.421 550.058C415.504 550.146 415.604 550.215 415.716 550.26C415.828 550.306 415.948 550.327 416.068 550.322C416.189 550.317 416.307 550.286 416.414 550.232C416.522 550.177 416.617 550.1 416.692 550.006C423.045 542.05 430.766 535.726 439.855 531.033C440.92 530.483 441.698 530.758 442.19 531.857C446.363 541.077 450.518 551.895 456.322 560.205C456.642 560.663 456.768 561.167 456.699 561.717C455.154 573.272 442.499 569.203 434.961 566.507C432.008 565.443 429.398 565.563 426.462 565.803C426.286 565.817 426.115 565.873 425.965 565.965C425.814 566.057 425.687 566.182 425.595 566.332C425.503 566.481 425.448 566.649 425.434 566.823C425.421 566.997 425.449 567.171 425.518 567.331C426.685 570.113 427.99 571.985 430.961 573.358C435.849 575.625 439.872 578.961 443.032 583.369Z" fill="#FDFEFE"/>
<path d="M700.281 522.877C698.965 525.258 697.82 527.776 696.847 530.432C692.331 542.726 682.973 547.894 670.731 549.628C663.76 550.624 657.321 548.684 652.478 543.275C650.246 540.768 650.538 537.987 650.71 534.896C653.938 537.266 657.04 537.46 660.016 535.48C663.33 533.282 663.622 529.831 664.859 526.122C666.833 520.164 662.935 513.896 657.99 510.84C657.916 510.798 657.855 510.736 657.814 510.662C657.772 510.587 657.752 510.503 657.756 510.418C657.759 510.332 657.786 510.25 657.834 510.179C657.881 510.108 657.947 510.052 658.025 510.016C662.409 507.955 666.919 507.749 671.555 509.398C681.56 512.946 691.135 517.439 700.281 522.877Z" fill="#010F0C"/>
<path d="M594.064 521.846L603.165 535.754C603.327 535.997 603.435 536.27 603.483 536.555C603.53 536.839 603.515 537.128 603.44 537.403L600.744 547.276C600.663 547.576 600.515 547.855 600.31 548.093C600.105 548.331 599.849 548.521 599.559 548.649C596.194 550.138 593.257 552.232 590.75 554.934C590.27 555.46 589.709 555.564 589.068 555.243L582.457 552.032L594.064 521.846Z" fill="#FEF9F3"/>
<path d="M494.836 644.839C488.54 644.13 482.513 644.788 476.755 646.814L465.182 635.001C465.002 634.814 464.773 634.68 464.522 634.613C464.271 634.547 464.006 634.55 463.757 634.623C462.498 634.989 461.393 635.607 460.443 636.477C460.042 636.855 459.567 637.072 459.018 637.13C453.855 637.714 448.693 638.212 443.53 638.624C440.874 638.841 438.894 639.848 437.589 641.646C430.48 651.45 434.412 659.846 440.233 668.998C424.493 670.67 416.097 678.774 415.044 693.312C405.652 691.99 398.217 696.883 394.302 705.16C392.55 708.846 391.698 708.571 391.743 704.335L392.19 659.228C392.201 658.736 392.453 658.513 392.945 658.559C397.101 658.994 400.89 660.362 404.312 662.662C404.814 662.997 405.404 663.159 405.995 663.126C410.408 662.868 415.267 663.281 415.799 657.099C416.813 645.372 406.235 635.619 396.225 631.979C390.439 629.867 392.585 623.634 392.241 618.156C396.717 617.813 400.5 615.111 403.591 610.052L419.835 640.186C419.978 640.454 420.181 640.684 420.428 640.86C420.675 641.035 420.96 641.151 421.26 641.198C421.56 641.244 421.866 641.22 422.155 641.128C422.444 641.036 422.708 640.878 422.925 640.667C431.957 631.841 448.801 611.477 443.959 597.998C443.662 597.151 443.261 596.905 442.757 597.26L443.032 583.369C446.729 587.043 451.165 589.39 456.339 590.409C465.972 592.332 478.97 583.884 483.932 576.26C490.612 566.009 488.414 554.728 478.884 547.121C478.666 546.948 478.491 546.726 478.373 546.474C478.254 546.221 478.195 545.945 478.2 545.666C478.205 545.388 478.274 545.114 478.401 544.866C478.529 544.618 478.712 544.403 478.936 544.237C484.453 540.173 489.164 535.371 493.067 529.831C494.464 527.839 495.156 528.056 495.145 530.483L494.836 644.839Z" fill="#FF534F"/>
<path d="M539.908 535.84C550.508 545.513 560.095 556.165 568.669 567.795C573.534 567.577 576.831 570.365 578.559 576.157C578.768 576.859 578.731 577.613 578.453 578.293C578.175 578.973 577.674 579.54 577.031 579.9C573.236 581.978 573.528 585.377 572.532 589.052C563.398 589.395 554.297 589.447 545.231 589.207C542.604 589.121 541.625 587.987 540.286 585.961C539.096 582.149 539.553 578.778 541.66 575.848C543.858 572.774 547.772 572.877 550.795 570.697C553.313 568.888 556.089 567.411 559.122 566.267C559.329 566.186 559.518 566.064 559.676 565.908C559.834 565.753 559.959 565.566 560.043 565.36C560.126 565.154 560.167 564.934 560.162 564.712C560.157 564.49 560.107 564.271 560.015 564.069C559.225 562.335 557.611 562.283 555.911 562.867C541.849 567.778 530.035 566.438 529.4 548.701C529.142 541.249 534.895 539.498 539.908 535.84Z" fill="#FEF9F3"/>
<path d="M342.017 538.862C335.732 551.62 336.78 566.747 349.503 574.457C353.71 576.998 359.754 578.183 364.819 579.78C366.685 580.364 366.731 581.068 364.957 581.892C363.583 582.544 361.66 582.768 360.149 583.54C350.591 588.497 341.004 593.396 331.388 598.238C329.797 599.04 328.687 599.675 328.057 600.144C327.291 600.718 326.703 601.469 326.37 602.302C326.036 603.135 325.972 604.01 326.185 604.815L330.495 620.8C330.512 620.863 330.542 620.922 330.584 620.972C330.625 621.022 330.677 621.063 330.736 621.09C330.795 621.118 330.86 621.133 330.925 621.133C330.99 621.133 331.054 621.119 331.113 621.092L363.617 605.793C363.952 605.638 364.333 605.616 364.681 605.731C365.029 605.846 365.318 606.09 365.489 606.411L365.729 606.875C366.416 608.157 366.13 609.159 364.871 609.88L328.023 631C327.903 631.068 327.768 631.106 327.631 631.111C327.493 631.117 327.356 631.089 327.231 631.03C327.107 630.971 326.998 630.883 326.915 630.773C326.831 630.663 326.775 630.535 326.752 630.399L310.938 540.408L342.017 538.862Z" fill="#F52535"/>
<path d="M442.757 597.26C443.261 596.905 443.661 597.151 443.959 597.998C448.801 611.477 431.957 631.841 422.925 640.667C422.708 640.878 422.444 641.036 422.155 641.128C421.866 641.221 421.559 641.244 421.26 641.198C420.96 641.151 420.675 641.035 420.428 640.86C420.181 640.684 419.977 640.454 419.834 640.186L403.591 610.052C406.281 604.901 407.609 599.194 407.575 592.933C407.563 592.337 407.403 591.794 407.094 591.302C403.127 585.103 404.295 578.801 400.483 572.551C398.159 568.716 395.916 564.836 393.752 560.91C391.64 557.046 388.206 555.192 384.755 553.183C382.019 551.592 382.208 550.493 385.321 549.886C396.002 547.774 407.969 563.073 410.133 571.263C415.456 591.37 420.006 601.535 442.757 597.26Z" fill="#010F0C"/>
<path d="M540.286 585.961C541.625 587.988 542.604 589.121 545.231 589.207C554.297 589.447 563.397 589.396 572.532 589.052L626.07 589.808C626.703 589.817 627.308 590.073 627.754 590.523C628.2 590.972 628.452 591.578 628.457 592.212C628.56 613.537 628.377 635.167 627.907 657.099C627.444 678.992 605.929 693.14 585.719 693.226C566.523 693.312 545.471 681.55 539.41 662.13C538.357 658.776 537.756 653.94 537.607 647.621C537.161 628.596 537.155 612.444 537.59 599.166C537.716 595.468 538.615 591.067 540.286 585.961Z" fill="#010F0C"/>
<path d="M294.832 601.174C292.645 603.326 291.026 606.074 289.973 609.416C287.706 616.645 284.993 622.019 283.465 628.579L276.425 628.132C275.83 628.098 275.624 627.789 275.807 627.205C279.813 614.464 284.924 602.187 291.14 590.374C292.056 588.634 292.68 588.731 293.012 590.666L294.832 601.174Z" fill="#FEF9F3"/>
<path d="M294.832 601.175L299.88 630.468C299.994 631.074 299.743 631.378 299.124 631.378C293.939 631.366 288.719 630.433 283.465 628.579C284.993 622.02 287.706 616.645 289.973 609.416C291.026 606.074 292.645 603.327 294.832 601.175Z" fill="#DFDF8A"/>
<path d="M476.755 646.814C470.213 652.223 470.333 657.889 469.766 666.011C469.2 674.424 474.883 681.361 473.183 690.445C473.149 690.633 473.073 690.811 472.961 690.966C472.849 691.121 472.704 691.25 472.536 691.342C472.368 691.434 472.182 691.488 471.991 691.499C471.8 691.51 471.609 691.478 471.432 691.406C470.825 691.166 470.321 690.605 469.921 689.723C463.516 675.764 454.089 673.411 440.233 668.999C434.412 659.847 430.48 651.45 437.588 641.646C438.893 639.849 440.874 638.841 443.53 638.624C448.692 638.212 453.855 637.714 459.017 637.13C459.567 637.073 460.042 636.855 460.443 636.477C461.393 635.607 462.497 634.989 463.756 634.623C464.006 634.55 464.27 634.547 464.522 634.613C464.773 634.68 465.001 634.814 465.182 635.001L476.755 646.814Z" fill="#010F0C"/>
<path d="M357.025 643.826L364.906 640.255C365.811 639.843 366.263 640.134 366.263 641.13L366.555 689.242C366.555 689.46 366.44 689.586 366.211 689.62L365.748 689.672C365.748 689.672 365.725 689.574 365.679 689.38C362.623 674.979 359.326 660.636 355.789 646.35C355.668 645.854 355.726 645.33 355.951 644.869C356.177 644.409 356.557 644.04 357.025 643.826Z" fill="#FEB83D"/>
<path d="M301.769 654.421L268.372 686.221C267.044 687.48 266.432 687.199 266.535 685.379C267.245 672.066 268.922 658.891 271.566 645.853C271.715 645.143 272.156 644.794 272.888 644.805L300.636 645.286C301.39 645.301 302.114 645.586 302.675 646.091C303.237 646.595 303.598 647.285 303.692 648.033L304.448 654.301C304.528 654.964 304.253 655.176 303.624 654.936C303.349 654.833 303.086 654.661 302.834 654.421C302.479 654.089 302.124 654.089 301.769 654.421Z" fill="#DFDF8A"/>
<path d="M494.836 644.839L495.025 678.339C495.025 678.923 494.762 679.335 494.235 679.575C485.123 683.88 480.098 691.126 479.159 701.313C479.034 702.641 477.654 704.192 475.021 705.967L474.832 702.464C474.798 701.846 474.506 701.388 473.957 701.09C472.137 700.117 470.105 699.436 467.861 699.047C464.667 692.316 453.283 689.62 446.638 691.99C444.601 692.711 444.086 694.039 445.093 695.973C445.345 696.454 445.728 696.775 446.243 696.935C453.009 699.03 459.018 704.456 464.822 708.456C465.326 708.811 465.875 708.909 466.47 708.748C467.111 708.577 467.701 708.296 468.239 707.907C469.12 707.277 469.418 707.483 469.132 708.525C464.187 726.703 452.482 737.704 434.018 741.527L432.352 730.229C434.997 718.845 441.487 715.84 448.87 708.371C451.183 706.035 450.702 705.011 447.428 705.297C442.872 705.709 437.83 707.066 432.301 709.366C425.759 712.097 417.225 698.566 415.044 693.312C416.098 678.774 424.494 670.67 440.234 668.998C454.09 673.411 463.517 675.764 469.922 689.723C470.322 690.605 470.826 691.166 471.433 691.406C471.61 691.478 471.801 691.51 471.992 691.499C472.183 691.487 472.369 691.434 472.537 691.342C472.705 691.25 472.85 691.121 472.962 690.966C473.074 690.811 473.15 690.633 473.184 690.445C474.884 681.361 469.2 674.424 469.767 666.011C470.334 657.889 470.214 652.223 476.756 646.814C482.513 644.788 488.54 644.13 494.836 644.839Z" fill="#FDFEFE"/>
<path d="M343.202 653.476L345.572 682.838C345.581 682.961 345.55 683.084 345.481 683.187C345.412 683.29 345.311 683.366 345.194 683.404L332.488 687.731C332.411 687.757 332.329 687.766 332.249 687.757C332.168 687.748 332.091 687.721 332.022 687.678C331.953 687.636 331.894 687.578 331.85 687.51C331.806 687.442 331.777 687.365 331.766 687.285L328.298 663.332C328.285 663.234 328.299 663.134 328.339 663.044C328.378 662.953 328.441 662.875 328.521 662.817L342.343 653.064C342.423 653.009 342.516 652.977 342.612 652.969C342.708 652.962 342.805 652.98 342.892 653.022C342.979 653.064 343.053 653.128 343.108 653.207C343.162 653.287 343.195 653.38 343.202 653.476Z" fill="#3A7C7F"/>
<path d="M315.385 674.27L316.501 692.505C316.518 692.733 316.45 692.958 316.31 693.139C316.171 693.319 315.97 693.442 315.746 693.484L290.951 698.068C290.754 698.108 290.549 698.083 290.368 697.997C290.186 697.91 290.038 697.767 289.945 697.589C289.852 697.41 289.819 697.207 289.852 697.008C289.885 696.81 289.982 696.628 290.127 696.489L313.823 673.652C313.951 673.531 314.111 673.449 314.284 673.415C314.457 673.382 314.637 673.399 314.801 673.463C314.965 673.528 315.107 673.639 315.21 673.782C315.314 673.924 315.374 674.094 315.385 674.27Z" fill="#3A7C7F"/>
<path d="M494.234 696.729C495.906 696.935 496.1 698.005 494.818 699.94C494.486 700.443 494.063 700.541 493.548 700.232C493.158 700.003 492.838 699.682 492.586 699.27C492.422 699 492.338 698.689 492.343 698.372C492.348 698.056 492.442 697.748 492.614 697.483C492.786 697.218 493.029 697.006 493.316 696.873C493.602 696.739 493.921 696.69 494.234 696.729Z" fill="#FDFEFE"/>
<path d="M467.861 699.047C470.104 699.436 472.136 700.117 473.956 701.09C474.506 701.388 474.798 701.846 474.832 702.464L475.021 705.967C470.728 706.413 468.342 704.106 467.861 699.047Z" fill="#FB5F1C"/>
<path d="M482.54 763.454C480.32 764.759 476.714 765.022 471.723 764.244C467.585 755.83 463.447 749.391 464.82 739.467C465.713 732.942 470.658 725.953 472.684 720.15C474.15 715.96 475.077 711.902 475.466 707.976C475.603 706.442 476.107 706.31 476.977 707.581L487.503 722.845C487.869 723.395 488.378 723.71 489.031 723.79C490.508 723.996 491.956 723.841 493.375 723.326C493.488 723.282 493.61 723.266 493.731 723.279C493.852 723.292 493.968 723.334 494.069 723.401C494.17 723.469 494.254 723.56 494.312 723.666C494.371 723.773 494.403 723.892 494.405 724.013L495.298 747.691C495.321 748.344 495.126 748.91 494.714 749.391L482.54 763.454Z" fill="#FDFEFE"/>
<path d="M432.351 730.229L434.017 741.527C430.148 742.111 427.824 744.515 427.046 748.739L416.743 757.015C416.732 754.817 416.52 753.381 416.108 752.705C415.849 752.296 415.52 751.936 415.14 751.647C414.76 751.358 414.337 751.145 413.895 751.021C413.453 750.896 413 750.863 412.564 750.922C412.128 750.981 411.716 751.132 411.352 751.366C406.132 754.766 400.494 757.255 394.439 758.835C393.008 759.213 392.281 758.663 392.258 757.187L391.674 726.28C391.674 726.161 391.705 726.043 391.764 725.94C391.822 725.836 391.907 725.75 392.008 725.691C392.11 725.631 392.225 725.6 392.341 725.601C392.458 725.602 392.571 725.635 392.67 725.696C404.26 732.513 419.577 736.221 432.351 730.229Z" fill="#FF534F"/>
<path d="M630.414 732.684L630.586 765.789C630.357 765.858 630.128 765.921 629.899 765.978L628.852 765.944C628.268 765.909 627.919 765.606 627.804 765.033C626.74 760.077 623.643 757.725 618.515 757.976C617.931 758.011 617.416 758.211 616.97 758.577L613.158 761.771C611.853 762.847 611.355 762.555 611.664 760.895C612.328 757.415 612.631 753.586 612.574 749.408C612.454 739.26 621.606 734.212 630.414 732.684Z" fill="#FDFEFE"/>
<path d="M427.045 748.739C430.994 769.721 446.997 774.632 465.49 779.663C465.962 779.79 466.456 779.819 466.939 779.748C467.423 779.677 467.886 779.507 468.301 779.249C468.715 778.991 469.071 778.651 469.347 778.249C469.622 777.848 469.812 777.394 469.903 776.915C470.384 774.386 471.242 772.033 472.479 769.858C472.788 769.332 472.868 768.777 472.719 768.193L471.723 764.244C476.714 765.022 480.32 764.759 482.541 763.454C481.384 767.712 480.349 772.188 479.433 776.881C477.544 786.428 487.108 786.239 494.114 785.209C494.348 785.174 494.586 785.231 494.778 785.369C494.971 785.507 495.102 785.714 495.144 785.947L495.247 786.531C495.277 786.703 495.27 786.88 495.225 787.049C495.18 787.217 495.099 787.374 494.987 787.507C494.876 787.64 494.736 787.746 494.579 787.818C494.422 787.889 494.252 787.925 494.079 787.922C465.095 787.681 436.117 787.521 407.145 787.441C403.092 787.43 398.187 787.161 392.429 786.634C392.335 786.625 392.244 786.598 392.16 786.554C392.077 786.51 392.004 786.451 391.944 786.378C391.885 786.306 391.841 786.223 391.815 786.135C391.79 786.046 391.782 785.953 391.794 785.861L391.863 785.312C391.943 784.568 392.361 784.179 393.116 784.144C402.514 783.709 409.234 779.159 413.274 770.494C415.438 765.869 416.594 761.376 416.743 757.015L427.045 748.739Z" fill="#F52535"/>
<path d="M362.57 758.045C346.035 765.137 330.255 776.933 318.614 786.875L299.932 787.338C299.188 787.361 299.045 787.081 299.503 786.497C300.957 784.7 302.576 783.131 304.362 781.792C321.018 769.349 338.915 759.053 358.055 750.902C359.714 750.204 361.426 749.649 363.189 749.237C363.784 749.088 364.104 749.323 364.15 749.941C364.425 753.318 363.898 756.019 362.57 758.045Z" fill="#FDFEFE"/>
<path d="M692.967 787.527C681.955 778.438 669.861 770.419 656.685 763.471C655.712 760.815 655.569 757.776 656.256 754.353C656.439 753.437 656.966 753.151 657.836 753.495C677.421 761.313 695.313 771.976 711.511 785.484C712.839 786.582 712.638 787.149 710.91 787.183L692.967 787.527Z" fill="#FDFEFE"/>
<path d="M362.571 758.045L362.605 785.484C362.605 787.098 361.798 787.882 360.184 787.836L318.614 786.874C330.255 776.933 346.035 765.136 362.571 758.045Z" fill="#3A7C7F"/>
<path d="M626.43 766.819C623.935 768.01 622.59 769.441 622.395 771.112C621.582 777.946 620.014 783.28 617.69 787.115L608.04 786.96L605.688 777.946C606.02 773.688 606.976 769.727 608.555 766.064C608.658 765.826 608.828 765.624 609.045 765.484C609.262 765.343 609.516 765.27 609.775 765.274C613.163 765.343 616.151 764.307 618.738 762.166C618.938 761.998 619.172 761.873 619.424 761.799C619.676 761.726 619.941 761.706 620.202 761.739C620.463 761.773 620.714 761.861 620.941 761.996C621.168 762.132 621.365 762.312 621.519 762.527C622.607 764.072 624.244 765.503 626.43 766.819Z" fill="#FDFEFE"/>
<path d="M656.685 763.471C669.86 770.42 681.954 778.438 692.966 787.527L657.526 788.008C657.343 788.01 657.162 787.976 656.993 787.907C656.825 787.837 656.671 787.735 656.543 787.605C656.415 787.475 656.314 787.321 656.247 787.151C656.18 786.981 656.148 786.8 656.152 786.617L656.685 763.471Z" fill="#3A7C7F"/>
<path d="M629.899 765.978C630.128 765.921 630.357 765.858 630.586 765.789L630.277 772.606C627.719 776.366 629.212 781.603 629.109 785.913C628.686 785.81 628.875 786.102 629.676 786.789L617.691 787.115C620.015 783.28 621.583 777.946 622.396 771.112C622.59 769.441 623.935 768.01 626.431 766.819L629.899 765.978Z" fill="#F52535"/>
<path d="M603.01 773.808C600.388 777.334 598.402 781.208 597.052 785.432C596.857 786.039 596.439 786.354 595.798 786.377L587.968 786.583C582.027 787.636 575.869 787.871 569.493 787.287C567.999 779.423 572.498 777.225 579.4 775.216C587.047 772.984 594.373 770.036 601.379 766.373C601.974 766.064 602.374 766.23 602.58 766.871C603.302 769.126 603.445 771.438 603.01 773.808Z" fill="#FDFEFE"/>
<path d="M630.277 772.606L630.637 786.016C630.648 786.337 630.494 786.503 630.173 786.514C629.899 786.514 629.733 786.606 629.675 786.789C628.874 786.102 628.685 785.81 629.109 785.913C629.212 781.603 627.718 776.366 630.277 772.606Z" fill="#FEF9F3"/>
<path d="M603.011 773.808L604.625 774.134C605.209 774.26 605.46 774.621 605.38 775.216C605.243 776.235 605.346 777.145 605.689 777.946L608.042 786.961L587.969 786.583L595.799 786.377C596.44 786.354 596.858 786.039 597.052 785.432C598.403 781.208 600.389 777.334 603.011 773.808Z" fill="#F52535"/>
<path d="M604.176 623.909C601.715 624.573 599.283 624.899 596.879 624.887C585.787 624.819 574.58 624.71 563.259 624.561" stroke="#FEA9A7" stroke-width="2"/>
<path d="M591.282 562.506L591.556 558.712C591.573 558.449 591.647 558.192 591.775 557.961C591.903 557.729 592.08 557.528 592.295 557.372C601.447 550.71 610.478 554.453 616.832 562.489C620.369 566.954 615.08 576.724 612.659 580.141C610.564 583.111 607.594 585.446 603.627 585.463C596.948 585.481 587.968 584.656 583.967 578.475C581.369 574.48 580.069 569.987 580.069 564.996C580.07 564.441 580.2 563.894 580.449 563.399C580.699 562.904 581.061 562.474 581.506 562.143C581.952 561.813 582.469 561.591 583.015 561.496C583.562 561.401 584.123 561.436 584.654 561.596L590.183 563.262C590.305 563.302 590.435 563.312 590.563 563.294C590.69 563.275 590.812 563.228 590.918 563.155C591.024 563.082 591.112 562.985 591.175 562.873C591.238 562.76 591.275 562.635 591.282 562.506Z" fill="#FEF9F3"/>
<path d="M565.148 734.882C565.148 739.368 563.366 743.67 560.195 746.842C557.023 750.013 552.721 751.795 548.235 751.795C543.75 751.795 539.448 750.013 536.276 746.842C533.104 743.67 531.322 739.368 531.322 734.882C531.322 730.397 533.104 726.095 536.276 722.923C539.448 719.751 543.75 717.969 548.235 717.969C552.721 717.969 557.023 719.751 560.195 722.923C563.366 726.095 565.148 730.397 565.148 734.882Z" fill="#010F0C"/>
<path d="M604.229 759.092C603.256 753.323 600.983 749.042 597.412 746.249C590.87 741.132 581.031 732.718 593.033 727.069C601.464 723.103 611.337 724.974 618.721 730.194C619.865 730.996 619.848 731.774 618.669 732.529C615.149 734.796 611.698 736.977 609.895 740.943C606.959 747.434 608.916 753.598 605.723 760.174C605.673 760.274 605.598 760.359 605.505 760.421C605.412 760.483 605.304 760.519 605.193 760.526C605.081 760.533 604.97 760.51 604.87 760.461C604.77 760.411 604.685 760.336 604.624 760.243C604.44 759.979 604.309 759.596 604.229 759.092Z" fill="#FDFEFE"/>
<path d="M578.921 769.446C563.776 751.847 593.773 731.019 600.006 761.96C600.054 762.202 600.049 762.452 599.991 762.691C599.934 762.931 599.825 763.155 599.673 763.348C599.521 763.54 599.33 763.697 599.111 763.808C598.893 763.918 598.654 763.979 598.409 763.986C593.75 764.158 589.538 765.841 585.772 769.034C584.352 770.248 582.504 770.637 580.226 770.202C579.699 770.099 579.264 769.847 578.921 769.446Z" fill="#FEF9F3"/>
<path d="M402.13 543.499L399.074 525.332C399.03 525.075 399.04 524.812 399.102 524.558C399.164 524.305 399.277 524.068 399.435 523.86C399.593 523.652 399.792 523.479 400.019 523.351C400.246 523.224 400.497 523.144 400.757 523.117L404.86 522.653C405.12 522.625 405.383 522.65 405.633 522.728C405.883 522.805 406.114 522.933 406.312 523.104C406.51 523.275 406.671 523.485 406.785 523.72C406.898 523.956 406.962 524.212 406.972 524.474L407.608 538.468C407.617 538.719 407.576 538.97 407.487 539.206L405.805 543.825C405.663 544.222 405.393 544.561 405.038 544.789C404.682 545.016 404.262 545.119 403.841 545.082C403.421 545.045 403.025 544.869 402.715 544.582C402.406 544.296 402.2 543.915 402.13 543.499Z" fill="#010F0C"/>
<path d="M414.871 564.035C414.509 564.267 414.094 564.407 413.665 564.441C413.236 564.476 412.804 564.404 412.409 564.233C412.014 564.062 411.667 563.796 411.398 563.459C411.13 563.122 410.949 562.724 410.871 562.3L410.613 560.892C410.144 558.408 411.071 556.657 413.395 555.638C418.391 553.458 429.277 549.817 431.235 556.325C431.286 556.489 431.301 556.663 431.279 556.834C431.257 557.005 431.199 557.17 431.108 557.317C431.017 557.465 430.896 557.592 430.752 557.69C430.608 557.789 430.445 557.856 430.273 557.888C424.744 558.918 419.61 560.967 414.871 564.035Z" fill="#010F0C"/>
<path d="M604.177 623.909C601.716 624.572 599.284 624.899 596.88 624.887C585.788 624.819 574.581 624.71 563.26 624.561L562.951 617.641C562.939 617.429 562.971 617.217 563.044 617.017C563.117 616.817 563.231 616.635 563.377 616.48C563.523 616.326 563.699 616.203 563.895 616.119C564.09 616.036 564.301 615.993 564.513 615.993L603.748 615.684C604.366 615.684 604.658 615.993 604.624 616.611L604.177 623.909Z" fill="#FDFEFE"/>
<path d="M604.178 623.909C604.35 631.275 606.05 653.854 598.718 661.341C589.223 671.059 573.855 665.427 565.836 656.773C560.479 651.004 562.814 632.511 563.261 624.561C574.582 624.71 585.788 624.819 596.881 624.887C599.285 624.899 601.717 624.573 604.178 623.909Z" fill="#FF534F"/>
</svg>
