<svg width="1024" height="1024" viewBox="0 0 1024 1024" fill="none" xmlns="http://www.w3.org/2000/svg">
<rect width="1024" height="1024" fill="white"/>
<path d="M388.725 779.082C369.374 760.653 376.933 731.712 392.905 714.511C392.981 714.425 393.037 714.323 393.067 714.213C393.098 714.103 393.102 713.988 393.081 713.876C393.059 713.765 393.012 713.661 392.943 713.573C392.874 713.485 392.785 713.414 392.684 713.367C350.717 693.994 316.457 665.325 289.905 627.363C279.166 612.005 269.325 593.126 260.383 570.726C250.259 545.357 244.804 517.718 244.019 487.81C243.882 482.679 244.496 478.533 245.862 475.37C251.937 461.19 273.95 449.927 288.181 445.269C304.097 440.081 320.706 436.35 338.009 434.074C338.579 434 339.108 433.743 339.518 433.343C339.927 432.942 340.194 432.421 340.279 431.856C341.525 423.529 349.801 414.519 356.388 409.57C369.357 399.82 383.839 393.564 399.834 390.799C400.448 390.697 400.579 390.39 400.226 389.878C393.184 379.616 387.883 369.884 384.322 360.68C382.53 356.022 388.213 351.466 392.496 349.896C441.983 331.688 473.978 288.549 477.698 236.127C478.091 230.769 477.562 224.882 477.528 219.165C477.505 217.038 477.977 215.4 478.944 214.251C489.439 201.657 520.496 245.701 525.12 252.714C535.308 268.174 545.273 283.669 556.485 298.412C574.522 322.183 603.668 340.169 632.268 351.551C634.782 352.552 636.352 354.344 636.978 356.926C638.565 363.547 626.244 383.615 622.388 389.536C622.058 390.048 622.188 390.344 622.78 390.424C633.394 391.891 642.848 395.645 653.581 400.611C667.625 407.113 679.621 418.119 683.632 433.409C683.779 434 684.155 434.325 684.758 434.382C710.218 436.89 735.337 443.136 757.435 455.576C766.735 460.814 781.718 473.544 780.83 485.489C780.08 495.557 778.987 505.58 777.554 515.557C765.302 600.657 710.798 679.324 630.459 712.873C630.336 712.925 630.228 713.007 630.144 713.112C630.061 713.216 630.004 713.339 629.978 713.47C629.953 713.602 629.96 713.737 630 713.865C630.039 713.993 630.109 714.109 630.203 714.204C646.926 731.046 655.151 761.37 635.288 779.236C634.572 779.873 634.691 780.192 635.647 780.192C641.448 780.175 654.281 778.468 658.939 781.42C662.386 783.621 664.332 787.239 663.427 791.437C662.267 796.807 658.382 799.497 651.772 799.508C542.788 799.611 433.798 799.503 324.802 799.184C321.138 799.173 318.522 798.661 316.952 797.648C308.061 791.949 315.177 780.14 323.709 780.157C345.279 780.192 366.848 780.089 388.418 779.85C389.146 779.839 389.248 779.583 388.725 779.082Z" fill="#010107"/>
<path d="M655.249 271.275C653.522 271.227 651.822 270.827 650.245 270.099C648.669 269.372 647.247 268.33 646.061 267.033C644.875 265.737 643.948 264.211 643.333 262.543C642.718 260.875 642.427 259.098 642.477 257.312C642.578 253.707 644.06 250.288 646.598 247.807C649.135 245.326 652.52 243.987 656.008 244.085C657.735 244.133 659.436 244.532 661.012 245.26C662.589 245.988 664.011 247.03 665.197 248.326C666.383 249.623 667.31 251.149 667.925 252.817C668.539 254.484 668.83 256.262 668.78 258.047C668.68 261.653 667.197 265.072 664.66 267.553C662.122 270.033 658.737 271.372 655.249 271.275Z" fill="#010107"/>
<path d="M606.206 298.014C604.523 298.229 602.813 298.099 601.173 297.63C599.533 297.162 597.995 296.364 596.647 295.283C595.299 294.201 594.168 292.857 593.318 291.328C592.467 289.798 591.914 288.113 591.691 286.368C591.239 282.844 592.156 279.292 594.24 276.492C596.324 273.692 599.403 271.875 602.802 271.44C604.484 271.224 606.194 271.354 607.834 271.823C609.475 272.291 611.012 273.089 612.36 274.171C613.708 275.252 614.84 276.596 615.69 278.126C616.54 279.655 617.093 281.34 617.317 283.085C617.768 286.609 616.851 290.162 614.767 292.961C612.684 295.761 609.604 297.578 606.206 298.014Z" fill="#010107"/>
<path d="M750.66 356.875C750.66 368.769 745.935 380.175 737.525 388.585C729.115 396.996 717.709 401.72 705.815 401.72C693.921 401.72 682.515 396.996 674.105 388.585C665.694 380.175 660.97 368.769 660.97 356.875C660.97 344.981 665.694 333.575 674.105 325.165C682.515 316.755 693.921 312.03 705.815 312.03C717.709 312.03 729.115 316.755 737.525 325.165C745.935 333.575 750.66 344.981 750.66 356.875Z" fill="#010107"/>
<path d="M335.518 347.575C332.532 338.565 319.58 336.944 312.174 339.76C308.028 341.33 306.287 346.142 304.308 349.828C304.035 350.328 303.642 350.692 303.13 350.92C295.724 354.145 285.656 352.66 283.233 344.316C280.776 335.801 287.568 325.869 294.479 321.245C317.311 305.972 349.119 313.395 358.794 339.777C361.235 346.432 359.767 354.81 352.907 357.916C348.846 359.759 339.597 358.138 337.856 353.855C337.003 351.784 336.224 349.691 335.518 347.575Z" fill="#010107"/>
<path d="M312.014 400.963C309.155 402.98 305.578 403.73 302.07 403.048C298.562 402.366 295.409 400.308 293.307 397.328C291.204 394.347 290.323 390.687 290.858 387.154C291.392 383.62 293.299 380.502 296.157 378.485C299.016 376.469 302.593 375.719 306.101 376.401C309.609 377.082 312.762 379.14 314.864 382.121C316.967 385.101 317.848 388.761 317.313 392.295C316.779 395.828 314.872 398.947 312.014 400.963Z" fill="#010107"/>
<path d="M292.96 797.205C292.135 798.258 291.101 799.131 289.917 799.773C288.733 800.415 287.423 800.815 286.061 800.95C284.699 801.084 283.312 800.95 281.98 800.556C280.647 800.162 279.395 799.515 278.295 798.652C276.072 796.909 274.603 794.393 274.211 791.658C273.818 788.922 274.534 786.191 276.201 784.065C277.027 783.012 278.061 782.139 279.245 781.497C280.428 780.854 281.739 780.455 283.1 780.32C284.462 780.186 285.849 780.32 287.182 780.714C288.514 781.108 289.766 781.755 290.867 782.618C293.089 784.361 294.558 786.876 294.951 789.612C295.343 792.348 294.627 795.079 292.96 797.205Z" fill="#010107"/>
<path d="M713.188 790.075C713.19 791.238 712.963 792.391 712.52 793.466C712.077 794.541 711.426 795.519 710.605 796.342C709.784 797.166 708.809 797.82 707.735 798.267C706.661 798.714 705.51 798.945 704.347 798.947L687.146 798.977C685.983 798.979 684.831 798.752 683.756 798.309C682.681 797.866 681.703 797.215 680.879 796.394C680.055 795.573 679.401 794.598 678.954 793.525C678.507 792.451 678.276 791.3 678.274 790.136L678.272 789.147C678.27 787.984 678.498 786.832 678.941 785.756C679.384 784.681 680.035 783.704 680.855 782.88C681.676 782.056 682.652 781.402 683.725 780.955C684.799 780.508 685.95 780.277 687.113 780.275L704.314 780.245C705.477 780.243 706.629 780.47 707.705 780.913C708.78 781.356 709.757 782.007 710.581 782.828C711.405 783.649 712.059 784.624 712.506 785.698C712.953 786.771 713.184 787.923 713.186 789.086L713.188 790.075Z" fill="#010107"/>
<path d="M751.472 791.399C751.189 794.095 749.792 796.562 747.59 798.258C745.388 799.954 742.56 800.74 739.729 800.442C738.327 800.295 736.967 799.886 735.725 799.239C734.484 798.592 733.386 797.719 732.494 796.671C731.602 795.623 730.933 794.42 730.526 793.13C730.119 791.84 729.982 790.49 730.123 789.155C730.406 786.458 731.802 783.991 734.005 782.295C736.207 780.599 739.035 779.813 741.866 780.111C743.268 780.258 744.628 780.667 745.869 781.314C747.111 781.961 748.209 782.834 749.101 783.882C749.993 784.93 750.661 786.133 751.068 787.423C751.475 788.713 751.612 790.064 751.472 791.399Z" fill="#010107"/>
<path d="M314.511 808.006L314.289 807.512C313.652 806.089 314.113 805.424 315.672 805.515C329.067 806.317 344.255 804.235 355.363 804.15C368.662 804.036 381.956 804.116 395.243 804.389C404.918 804.576 416.062 804.013 426.522 804.303C440.879 804.702 455.241 804.838 469.61 804.713C479.996 804.622 502.607 804.338 537.441 803.86C548.72 803.689 564.948 804.542 578.412 804.559C615.817 804.576 653.342 805.634 690.73 805.071C696.009 804.992 701.532 805.014 707.3 805.14C708.892 805.174 709.888 805.959 710.286 807.494L710.422 808.041C710.489 808.303 710.5 808.577 710.455 808.844C710.409 809.112 710.307 809.367 710.156 809.594C710.005 809.82 709.808 810.013 709.577 810.16C709.347 810.307 709.089 810.404 708.818 810.447C704.404 811.106 697.618 811.323 688.461 811.095C672.193 810.685 637.557 810.503 584.555 810.549C583.998 810.549 583.458 810.441 582.934 810.225C582.593 810.065 582.218 809.991 581.808 810.003C536.371 810.447 490.94 810.646 445.515 810.6C435.333 810.589 423.957 810.867 411.386 811.436C377.104 812.972 349.016 810.976 317.651 810.105C316.161 810.071 315.114 809.371 314.511 808.006Z" fill="#EEF9FC"/>
<path d="M571.006 410.065C545.325 396.465 524.608 383.53 510.462 357.199C509.961 356.255 509.529 356.289 509.165 357.302C500.804 381.055 478.637 398.785 455.873 406.311" stroke="#CFE0EB" stroke-width="2"/>
<path d="M455.873 406.311C452.819 406.43 452.187 408.871 450.003 409.382" stroke="#F6FCFA" stroke-width="2"/>
<path d="M430.618 387.096C432.95 388.223 434.946 390.088 436.607 392.693C436.772 392.948 436.992 393.161 437.25 393.315C437.507 393.469 437.796 393.56 438.092 393.581C441.186 393.842 444.576 393.285 448.262 391.908C470.15 383.683 485.855 369.571 495.377 349.572C498.062 343.929 499.524 338.673 499.763 333.804C500.018 328.719 499.319 318.822 495.974 314.504C495.855 314.348 495.697 314.226 495.516 314.15C495.334 314.075 495.137 314.047 494.942 314.072C494.747 314.096 494.562 314.17 494.404 314.288C494.247 314.406 494.124 314.563 494.046 314.743C490.07 324.026 486.077 332.388 479.883 340.22C465.651 358.252 447.796 371.971 426.317 381.38" stroke="#CFE0EB" stroke-width="2"/>
<path d="M566.024 413.631C563.066 413.791 560.182 414.786 557.372 416.618C553.038 419.45 550.53 421.026 549.847 421.345C539.028 426.344 528.175 429.621 515.701 429.774C500.935 429.956 487.448 427.658 475.241 422.88C467.449 419.832 460.936 415.054 455.703 408.546C455.396 408.16 455.27 407.79 455.327 407.437C455.384 407.028 455.566 406.652 455.873 406.311" stroke="#C7DEEE" stroke-width="2"/>
<path d="M658.205 447.299C654.229 458.425 647.386 465.217 636.738 470.712" stroke="#CFE0EB" stroke-width="2"/>
<path d="M636.738 470.712C628.286 473.966 620.567 478.215 613.582 483.459" stroke="#DBE6ED" stroke-width="2"/>
<path d="M597.968 485.387C590.539 489.027 583.736 491.434 577.559 492.605C530.086 501.581 482.533 500.847 434.901 490.404C434.656 490.353 434.404 490.357 434.162 490.417C433.92 490.476 433.694 490.59 433.502 490.749C433.31 490.909 433.157 491.109 433.053 491.336C432.95 491.563 432.899 491.81 432.904 492.059L433.962 535.249C433.977 535.664 433.832 536.07 433.556 536.383C433.28 536.697 432.895 536.896 432.477 536.939L427.802 537.416" stroke="#CFE0EB" stroke-width="2"/>
<path d="M404.441 481.223L402.564 480.114" stroke="#DBE6ED" stroke-width="2"/>
<path d="M402.564 480.114C397.342 475.729 391.882 473.527 386.165 470.149C376.182 464.227 367.735 456.053 364.527 444.842" stroke="#CFE0EB" stroke-width="2"/>
<path d="M402.564 480.114C399.823 491.866 399.106 503.822 400.414 515.983C400.596 517.69 400.056 519.527 398.793 521.495C398.497 521.962 398.071 522.189 397.513 522.178C387.445 521.996 377.639 520.272 368.094 517.007C367.764 516.905 367.395 516.922 366.985 517.058C366.689 517.161 366.45 517.081 366.268 516.82C365.995 516.387 365.313 516.074 364.221 515.881" stroke="#ACC8E1" stroke-width="2"/>
<path d="M632.558 522.434C630.624 521.922 629.322 522.792 628.651 525.045C628.48 525.602 628.218 526.103 627.866 526.547L624.521 530.762C624.157 531.217 623.685 531.495 623.105 531.598C622.32 531.734 621.922 532.212 621.91 533.031C621.91 533.452 622.121 533.674 622.542 533.697L625.733 533.953" stroke="#D3E4EF" stroke-width="2"/>
<path d="M591.757 538.918L593.242 537.331C593.89 536.626 593.737 536.307 592.781 536.376C583.532 536.99 574.403 538.321 565.137 538.713C541.81 539.754 519.746 540.761 490.651 540.215C482.084 540.062 472.17 538.918 462.87 538.679C459.104 538.577 455.652 538.338 452.512 537.963C449.252 537.57 442.819 536.137 439.833 536.836C438.343 537.189 437.819 537.877 438.263 538.901" stroke="#ACC8E1" stroke-width="2"/>
<path d="M384.766 531.905C385.312 532.03 385.727 532.058 386.011 531.99C386.095 531.972 386.17 531.926 386.224 531.859C386.278 531.792 386.307 531.709 386.307 531.623C386.307 531.537 386.278 531.454 386.224 531.387C386.17 531.321 386.095 531.274 386.011 531.256C384.328 530.801 382.581 530.705 380.772 530.966" stroke="#ACC8E1" stroke-width="2"/>
<path d="M657.71 516.171L636.738 520.847" stroke="#CFE0EE" stroke-width="2"/>
<path d="M636.738 520.847V470.712" stroke="#ACC8E1" stroke-width="2"/>
<path d="M364.221 515.881C365.324 522.275 364.772 526.216 362.565 527.707" stroke="#DBE6F0" stroke-width="2"/>
<path d="M655.185 529.277C652.125 528.742 649.145 528.884 646.244 529.704C643.582 530.471 641.67 530.318 639.077 530.284C636.671 530.267 634.708 531.461 631.961 531.154C631.654 531.12 631.5 530.949 631.5 530.642V529.345C631.5 529.049 631.648 528.919 631.944 528.953C635.686 529.442 638.661 528.395 640.868 525.813C641.54 525.028 641.653 524.203 641.21 523.338C640.948 522.849 640.556 522.707 640.032 522.912C637.131 524.061 634.64 523.902 632.558 522.434" stroke="#F6FCFD" stroke-width="2"/>
<path d="M632.558 522.434L636.738 520.847" stroke="#DBE6F0" stroke-width="2"/>
<path d="M548.482 542.792L486.691 543.099" stroke="#8B90A3" stroke-width="2"/>
<path d="M295.98 534.447L306.509 577.023" stroke="#7F673A" stroke-width="2"/>
<path d="M314.29 586.562C317.14 596.084 322.874 600.606 330.262 606.596C330.456 606.755 330.581 606.931 330.638 607.125C330.717 607.364 330.746 607.591 330.723 607.807" stroke="#7F673A" stroke-width="2"/>
<path d="M330.723 607.807L329.938 608.677C329.13 609.565 329.278 609.758 330.381 609.258C333.982 607.636 338.794 610.537 341.866 611.049" stroke="#80475A" stroke-width="2"/>
<path d="M335.945 602.876L331.457 606.118C331.127 606.357 330.928 606.675 330.86 607.073L330.723 607.807" stroke="#FF752E" stroke-width="2"/>
<path d="M684.348 609.65C693.938 607.244 700.133 600.145 706.276 592.329" stroke="#7F673A" stroke-width="2"/>
<path d="M708.017 593.132C709.279 593.609 710.241 593.587 710.9 593.063C715.098 589.719 719.672 587.995 722.607 582.756C723.073 581.915 723.642 581.187 724.313 580.572C727.316 577.825 729.228 572.74 731.19 569.139C733.323 565.18 732.845 561.307 734.637 557.484C735.149 556.392 735.649 555.288 736.139 554.174C736.377 553.65 736.435 553.116 736.309 552.57C735.445 548.656 736.173 545.112 738.493 541.938C738.676 541.688 738.698 541.426 738.562 541.153C738.482 540.971 738.403 540.789 738.323 540.607C738.243 540.403 738.238 540.198 738.306 539.993C739.068 537.763 739.278 535.46 738.937 533.082C738.858 532.525 738.573 532.104 738.084 531.819C737.822 531.671 737.584 531.461 737.367 531.188C737.185 530.972 737.145 530.733 737.248 530.471C737.35 530.175 737.31 529.988 737.128 529.908" stroke="#01325F" stroke-width="2"/>
<path d="M718.034 575.863C721.634 564.634 726.361 547.877 725.713 535.283" stroke="#805F33" stroke-width="2"/>
<path d="M715.388 545.317C717.299 542.598 718.118 539.976 717.845 537.451" stroke="#D87723" stroke-width="2"/>
<path d="M415.243 615.077C406.461 606.931 399.732 599.485 395.056 592.739C390.517 586.198 384.26 575.675 376.285 561.17C376.171 560.977 375.813 560.67 375.21 560.249" stroke="#AE874B" stroke-width="2"/>
<path d="M375.21 560.249C374.823 559.964 374.698 559.617 374.835 559.208" stroke="#FE8840" stroke-width="2"/>
<path d="M375.21 560.249C364.527 565.96 353.231 570.726 341.32 574.549" stroke="#AF5459" stroke-width="2"/>
<path d="M648.087 557.962C642.717 570.965 636.113 583.143 628.275 594.497C624.179 600.435 616.808 607.688 611.842 615.657" stroke="#AE874B" stroke-width="2"/>
<path d="M653.939 560.573C653.336 560.505 652.864 560.601 652.523 560.863C652.445 560.918 652.385 560.993 652.348 561.08C652.31 561.168 652.298 561.264 652.312 561.357C652.327 561.451 652.367 561.539 652.428 561.612C652.489 561.684 652.569 561.738 652.659 561.768C659.713 564.27 666.351 567.604 672.574 571.767C672.972 572.029 673.404 572.16 673.87 572.16C676.208 572.126 678.7 574.378 681.208 574.754C682.05 574.879 682.448 574.355 682.403 573.184" stroke="#8C635D" stroke-width="2"/>
<path d="M495.821 616.271L484.866 607.124" stroke="#AE874B" stroke-width="2"/>
<path d="M572.525 614.957L550.921 600.316C550.444 599.997 549.983 600.02 549.539 600.384L530.956 615.435" stroke="#C7934D" stroke-width="2"/>
<path d="M454.047 643.847C450.725 646.873 447.29 648.727 443.74 649.41" stroke="#7F7A4C" stroke-width="2"/>
<path d="M580.273 649.717L571.502 644.12" stroke="#7F7A4C" stroke-width="2"/>
<path d="M534.915 644.564C531.639 649.837 520.769 641.612 518.278 638.967C518.095 638.774 517.875 638.622 517.631 638.519C517.387 638.416 517.125 638.366 516.861 638.371C516.598 638.375 516.338 638.435 516.1 638.547C515.862 638.658 515.65 638.819 515.479 639.018C511.668 643.386 507.169 646.811 501.981 649.291" stroke="#AE874B" stroke-width="2"/>
<path d="M501.981 649.29C499.933 647.686 498.283 645.724 497.032 643.403C496.861 643.085 496.594 642.931 496.23 642.943C496.002 642.954 495.792 642.931 495.599 642.874C495.291 642.783 495.098 642.596 495.019 642.311C494.95 642.05 494.967 641.742 495.07 641.39" stroke="#FEA820" stroke-width="2"/>
<path d="M494.354 652.584C495.628 651.401 497.05 650.866 498.62 650.98C499.166 651.026 499.666 650.889 500.121 650.57L501.981 649.291" stroke="#AE7339" stroke-width="2"/>
<path d="M562.867 664.768L545.325 679.7" stroke="#303E5E" stroke-width="2"/>
<path d="M545.325 679.699C545.12 677.981 545.632 676.099 546.86 674.051C547.213 673.448 547.054 673.05 546.383 672.856C544.187 672.219 542.611 672.8 541.656 674.597C541.314 675.245 540.791 675.473 540.086 675.28C539.233 675.041 538.522 674.597 537.953 673.949C537.532 673.448 537.549 672.959 538.004 672.481C538.527 671.958 538.886 671.423 539.079 670.877" stroke="#2F4664" stroke-width="2"/>
<path d="M541.895 683.778L545.325 679.699" stroke="#01325F" stroke-width="2"/>
<path d="M489.354 682.327C487.614 682.123 486.521 682.208 485.105 681.099C478.359 675.843 471.323 671.019 463.996 666.628C463.439 666.287 463.416 665.428 463.928 664.052" stroke="#2F4664" stroke-width="2"/>
<path d="M579.59 755.67C579.169 752.291 578.703 748.833 578.191 745.295C577.929 743.52 576.57 742.804 574.112 743.145" stroke="#D99547" stroke-width="2"/>
<path d="M533.926 777.41C534.113 771.728 535.035 766.54 532.543 761.233" stroke="#013E6C" stroke-width="2"/>
<path d="M452.136 743.333C451.624 744.288 451.92 744.885 453.023 745.124C457.289 746.063 461.18 747.172 465.549 747.36C471.578 747.599 477.607 747.678 483.637 747.599" stroke="#FFB333" stroke-width="2"/>
<path d="M483.637 747.598C500.986 748.531 518.323 748.418 535.649 747.257" stroke="#D99547" stroke-width="2"/>
<path d="M579.59 755.67L559.676 758.622" stroke="#807E58" stroke-width="2"/>
<path d="M559.676 758.622C561.541 758.725 562.946 758.236 563.891 757.155C564.368 756.597 564.243 756.273 563.515 756.182C559.226 755.613 554.915 755.374 550.58 755.465C549.204 755.488 547.867 755.312 546.57 754.936C541.417 753.418 535.598 753.571 530.274 753.281C530.16 753.27 526.133 752.957 518.192 752.343C507.715 751.546 496.316 751.888 483.995 753.366C482.118 753.594 480.81 754.043 480.07 754.715" stroke="#FFDD6F" stroke-width="2"/>
<path d="M480.071 754.714C477.022 755.351 476.209 756.967 477.631 759.561" stroke="#FFE8AA" stroke-width="2"/>
<path d="M477.631 759.561L443.997 756.233" stroke="#807E58" stroke-width="2"/>
<path d="M559.676 758.622L550.751 759.561" stroke="#808A6F" stroke-width="2"/>
<path d="M550.751 759.561C551.308 758.867 551.013 758.52 549.864 758.52C549.34 758.531 548.845 758.406 548.379 758.144C547.389 757.576 545.876 757.155 543.84 756.882C522.919 754.032 502.135 752.786 480.07 754.715" stroke="#FEF4C2" stroke-width="2"/>
<path d="M550.751 759.561L532.543 761.233" stroke="#8094AB" stroke-width="2"/>
<path d="M532.544 761.233L488.347 760.602" stroke="#80A8BE" stroke-width="2"/>
<path d="M488.346 760.602L477.63 759.561" stroke="#8094AB" stroke-width="2"/>
<path d="M488.347 760.602L489.661 777.342" stroke="#013E6C" stroke-width="2"/>
<path d="M463.125 745.261L483.636 747.598" stroke="#D87723" stroke-width="2"/>
<path d="M451.351 743.298C449.884 743.071 448.712 743.065 447.836 743.281C447.005 743.498 446.408 744.322 446.044 745.756C445.202 749.089 444.048 752.246 442.58 755.226" stroke="#D99547" stroke-width="2"/>
<path d="M571.007 410.065C545.325 396.465 524.609 383.53 510.462 357.199C509.962 356.255 509.529 356.289 509.165 357.302C500.804 381.055 478.637 398.785 455.873 406.311C452.819 406.43 452.187 408.87 450.003 409.382C442.847 402.818 436.386 395.39 430.618 387.096C432.95 388.223 434.946 390.088 436.607 392.693C436.772 392.948 436.992 393.161 437.25 393.315C437.507 393.469 437.796 393.56 438.092 393.581C441.186 393.842 444.576 393.285 448.262 391.908C470.15 383.683 485.855 369.571 495.377 349.572C498.062 343.929 499.524 338.673 499.763 333.804C500.019 328.719 499.319 318.822 495.974 314.504C495.855 314.348 495.697 314.226 495.516 314.15C495.335 314.075 495.137 314.047 494.942 314.072C494.747 314.096 494.562 314.17 494.405 314.288C494.248 314.406 494.124 314.563 494.046 314.743C490.07 324.026 486.077 332.388 479.883 340.22C465.651 358.252 447.796 371.971 426.318 381.38L418.024 367.353C417.706 366.807 417.837 366.403 418.417 366.141C461.402 347.353 489.524 308.685 499.114 263.431C499.603 261.11 500.406 260.99 501.52 263.072C521.127 299.556 547.407 335.664 584.487 357.131C587.184 358.69 593.469 361.96 603.344 366.943C603.878 367.216 604.038 367.626 603.821 368.172C597.337 384.349 583.993 399.178 571.007 410.065Z" fill="#FEFEF7"/>
<path d="M430.618 387.096L426.317 381.38C447.796 371.971 465.651 358.252 479.883 340.22C486.077 332.388 490.07 324.026 494.046 314.743C494.124 314.563 494.247 314.406 494.404 314.288C494.562 314.17 494.747 314.096 494.942 314.072C495.137 314.047 495.334 314.075 495.516 314.15C495.697 314.226 495.855 314.348 495.974 314.504C499.319 318.822 500.018 328.719 499.763 333.804C499.524 338.673 498.062 343.929 495.377 349.572C485.855 369.571 470.15 383.683 448.262 391.908C444.576 393.285 441.186 393.842 438.092 393.581C437.796 393.56 437.507 393.469 437.25 393.315C436.992 393.161 436.772 392.948 436.607 392.693C434.946 390.088 432.95 388.223 430.618 387.096Z" fill="#A0C2DF"/>
<path d="M571.007 410.065C568.72 412.306 567.059 413.495 566.024 413.631C563.066 413.791 560.182 414.786 557.372 416.618C553.038 419.45 550.53 421.026 549.847 421.345C539.028 426.344 528.175 429.621 515.701 429.774C500.935 429.956 487.448 427.658 475.241 422.88C467.449 419.831 460.936 415.053 455.703 408.546C455.396 408.159 455.27 407.79 455.327 407.437C455.384 407.028 455.566 406.652 455.873 406.311C478.637 398.785 500.804 381.055 509.165 357.302C509.529 356.289 509.962 356.255 510.462 357.199C524.609 383.53 545.325 396.465 571.007 410.065Z" fill="#A0C2DF"/>
<path d="M455.873 406.311C455.566 406.652 455.384 407.028 455.327 407.437C455.27 407.79 455.395 408.16 455.702 408.546C460.935 415.054 467.448 419.832 475.241 422.88C487.448 427.658 500.934 429.956 515.701 429.774C528.175 429.621 539.028 426.344 549.847 421.345C550.529 421.026 553.038 419.45 557.372 416.618C560.182 414.786 563.066 413.791 566.024 413.631C531.127 440.303 482.579 438.563 450.003 409.382C452.187 408.871 452.819 406.43 455.873 406.311Z" fill="#EEF9FC"/>
<path d="M658.206 447.299C654.23 458.425 647.387 465.217 636.739 470.712C628.286 473.965 620.567 478.214 613.582 483.459C608.719 482.094 598.617 475.848 597.968 485.387C590.54 489.028 583.737 491.434 577.559 492.605C530.086 501.581 482.533 500.847 434.901 490.404C434.657 490.353 434.404 490.357 434.162 490.417C433.92 490.476 433.695 490.59 433.503 490.749C433.311 490.909 433.157 491.109 433.054 491.336C432.95 491.563 432.899 491.81 432.904 492.059L433.962 535.249C433.977 535.664 433.832 536.07 433.556 536.383C433.281 536.697 432.895 536.896 432.478 536.939L427.802 537.416C426.869 537.542 426.056 537.496 425.362 537.28C424.793 537.098 424.503 536.706 424.492 536.103C424.321 519.152 424.133 502.213 423.929 485.285C423.843 478.596 415.396 481.036 411.13 482.35C408.4 483.186 406.796 482.452 404.441 481.223L402.564 480.114C397.342 475.729 391.882 473.527 386.165 470.149C376.182 464.227 367.735 456.053 364.527 444.842C369.851 423.204 395.021 413.256 414.68 410.986C415.271 410.918 415.738 411.134 416.079 411.635C432.495 435.866 455.788 449.654 483.876 455.439C525.752 464.091 581.45 449.996 605.579 412.113C605.727 411.879 605.928 411.684 606.165 411.541C606.402 411.399 606.669 411.314 606.944 411.294C608.048 411.18 609.339 411.242 610.818 411.481C626.756 414.024 658.888 426.396 658.206 447.299Z" fill="#FEFEF7"/>
<path d="M364.528 444.842C367.736 456.053 376.183 464.227 386.165 470.149C391.882 473.527 397.343 475.729 402.564 480.114C399.823 491.866 399.106 503.822 400.414 515.984C400.596 517.69 400.056 519.527 398.793 521.495C398.497 521.962 398.071 522.189 397.513 522.178C387.445 521.996 377.639 520.272 368.094 517.007C367.764 516.905 367.395 516.922 366.985 517.059C366.689 517.161 366.45 517.081 366.268 516.82C365.995 516.387 365.313 516.075 364.221 515.881C364.425 515.836 364.625 515.739 364.818 515.591C365.228 515.273 365.432 514.852 365.432 514.328L364.528 444.842Z" fill="#A0C2DF"/>
<path d="M658.205 447.299L657.71 516.171L636.738 520.847V470.712C647.386 465.217 654.229 458.425 658.205 447.299Z" fill="#A0C2DF"/>
<path d="M364.221 515.881C365.324 522.275 364.772 526.217 362.565 527.707C339.984 523.532 318.346 517.787 297.652 510.472C288.165 507.11 276.202 501.513 270.264 492.998C262.039 481.224 282.175 470.063 289.973 466.889C305.627 460.53 321.639 456.014 338.01 453.34C339.011 453.181 339.358 453.585 339.051 454.552L338.522 456.293C338.283 457.043 337.776 457.476 337.003 457.589C323.374 459.523 310.013 463.516 296.919 469.569C289.461 473.033 279.411 482.776 288.25 490.899C296.68 498.629 310.246 502.895 321.15 505.745C335.484 509.488 349.841 512.867 364.221 515.881Z" fill="#FEFEFD"/>
<path d="M655.185 529.277C652.125 528.742 649.145 528.884 646.244 529.703C643.582 530.471 641.67 530.318 639.077 530.283C636.671 530.266 634.708 531.461 631.961 531.154C631.654 531.12 631.5 530.949 631.5 530.642V529.345C631.5 529.049 631.648 528.918 631.944 528.952C635.686 529.442 638.661 528.395 640.868 525.813C641.54 525.028 641.653 524.203 641.21 523.338C640.948 522.849 640.556 522.707 640.032 522.912C637.131 524.061 634.64 523.901 632.558 522.434L636.739 520.847L657.711 516.171C669.679 514.055 681.783 511.621 694.024 508.868C707.914 505.745 769.193 489.977 722.931 468.391C713.557 464.022 700.912 460.53 684.997 457.913C684.802 457.884 684.615 457.814 684.448 457.707C684.281 457.601 684.138 457.461 684.027 457.296C683.917 457.131 683.841 456.945 683.806 456.748C683.77 456.552 683.775 456.35 683.82 456.156L683.99 455.388C684.331 453.92 685.236 453.357 686.703 453.698L691.396 454.791C691.976 454.927 692.556 455.041 693.137 455.132C712.471 458.494 738.835 465.609 752.231 479.995C766.855 495.711 732.026 510.182 722.283 513.321C700.383 520.409 678.018 525.727 655.185 529.277Z" fill="#FEFEFD"/>
<path d="M636.738 470.712V520.847L632.558 522.434C630.624 521.922 629.321 522.792 628.65 525.045C628.479 525.602 628.218 526.103 627.865 526.547L624.52 530.762C624.156 531.217 623.684 531.495 623.104 531.598C622.319 531.734 621.921 532.212 621.909 533.031C621.909 533.452 622.12 533.674 622.541 533.697L625.732 533.953C624.094 534.533 622.353 534.828 620.51 534.84C620.257 534.84 620.014 534.741 619.834 534.565C619.655 534.389 619.555 534.15 619.555 533.901L619.52 486.189C619.52 485.393 619.134 484.898 618.36 484.705L613.582 483.459C620.567 478.215 628.286 473.966 636.738 470.712Z" fill="#B7CEE2"/>
<path d="M336.338 488.902C326.082 488.083 318.403 493.715 307.891 490.728C307.3 490.569 306.93 490.188 306.782 489.585C304.325 479.688 330.57 476.445 336.338 475.149C338.34 474.693 339.335 475.49 339.324 477.538L339.307 486.189C339.295 488.157 338.306 489.062 336.338 488.902Z" fill="#003965"/>
<path d="M686.259 475.643C697.806 476.656 707.789 480.012 716.207 485.711C717.424 486.542 718.05 487.133 718.084 487.486C718.135 488.026 718.071 488.571 717.896 489.084C717.722 489.598 717.441 490.069 717.072 490.467C716.704 490.865 716.255 491.18 715.756 491.393C715.257 491.605 714.719 491.711 714.176 491.701C710.815 491.65 707.419 491.786 704.126 490.865C697.823 489.113 691.873 487.827 686.276 487.008C685.025 486.826 684.405 486.104 684.416 484.841L684.501 477.23C684.503 477.009 684.55 476.791 684.641 476.588C684.732 476.386 684.864 476.205 685.029 476.056C685.194 475.907 685.389 475.793 685.6 475.722C685.812 475.651 686.036 475.624 686.259 475.643Z" fill="#01527F"/>
<path d="M402.564 480.114L404.441 481.223C403.486 485.501 403.042 489.272 403.11 492.537C403.395 506.041 403.622 519.499 403.793 532.911C403.796 533.165 403.744 533.416 403.64 533.647C403.536 533.878 403.383 534.084 403.191 534.25C402.999 534.415 402.773 534.537 402.53 534.607C402.286 534.676 402.03 534.692 401.779 534.652L384.766 531.905C385.312 532.03 385.727 532.058 386.012 531.99C386.096 531.972 386.171 531.925 386.225 531.859C386.278 531.792 386.308 531.709 386.308 531.623C386.308 531.537 386.278 531.454 386.225 531.387C386.171 531.321 386.096 531.274 386.012 531.256C384.328 530.801 382.582 530.704 380.773 530.966L362.565 527.707C364.772 526.216 365.324 522.274 364.221 515.881C365.313 516.074 365.995 516.387 366.268 516.82C366.45 517.081 366.689 517.161 366.985 517.058C367.395 516.922 367.764 516.905 368.094 517.007C377.639 520.272 387.445 521.996 397.513 522.178C398.071 522.189 398.497 521.962 398.793 521.495C400.056 519.527 400.596 517.69 400.414 515.983C399.106 503.822 399.823 491.866 402.564 480.114Z" fill="#B7CEE2"/>
<path d="M597.968 485.387L598.207 536.887C598.208 537.089 598.14 537.283 598.016 537.439C597.891 537.595 597.718 537.701 597.524 537.741L591.757 538.918L593.241 537.331C593.89 536.626 593.736 536.307 592.78 536.376C583.531 536.99 574.402 538.321 565.136 538.713C541.809 539.754 519.745 540.761 490.65 540.215C482.084 540.061 472.169 538.918 462.869 538.679C459.104 538.577 455.651 538.338 452.511 537.962C449.252 537.57 442.818 536.137 439.832 536.836C438.342 537.189 437.819 537.877 438.262 538.901L427.802 537.416L432.477 536.939C432.895 536.896 433.28 536.697 433.556 536.383C433.832 536.07 433.977 535.664 433.962 535.249L432.904 492.059C432.899 491.81 432.95 491.563 433.053 491.336C433.157 491.109 433.31 490.909 433.502 490.749C433.694 490.59 433.92 490.476 434.162 490.417C434.404 490.357 434.656 490.353 434.901 490.404C482.533 500.847 530.086 501.581 577.559 492.605C583.736 491.434 590.539 489.027 597.968 485.387Z" fill="#A0C2DF"/>
<path d="M632.558 522.434C634.64 523.901 637.132 524.061 640.033 522.912C640.556 522.707 640.948 522.849 641.21 523.338C641.654 524.203 641.54 525.028 640.869 525.813C638.662 528.395 635.687 529.442 631.944 528.952C631.648 528.918 631.5 529.049 631.5 529.345V530.642C631.5 530.949 631.654 531.12 631.961 531.154C634.708 531.461 636.671 530.266 639.077 530.283C641.671 530.318 643.582 530.471 646.244 529.703C649.145 528.884 652.126 528.742 655.186 529.277L629.777 532.945C629.561 532.98 629.561 533.008 629.777 533.031C630.107 533.054 630.471 533.048 630.869 533.014C630.96 533.002 631.023 533.025 631.057 533.082C631.114 533.173 631.074 533.224 630.937 533.236L625.733 533.952L622.542 533.696C622.121 533.674 621.91 533.452 621.91 533.031C621.922 532.212 622.32 531.734 623.105 531.597C623.685 531.495 624.157 531.216 624.521 530.761L627.866 526.546C628.218 526.103 628.48 525.602 628.651 525.045C629.322 522.792 630.624 521.922 632.558 522.434Z" fill="#EEF9FC"/>
<path d="M295.98 534.447L306.508 577.023C304.336 577.319 303.903 579.907 305.212 584.787C305.348 585.277 305.661 585.464 306.15 585.351C309.961 584.475 312.674 584.878 314.29 586.562C317.14 596.084 322.873 600.606 330.262 606.596C330.456 606.755 330.581 606.931 330.638 607.125C330.717 607.364 330.746 607.591 330.723 607.807L329.938 608.678C329.13 609.565 329.278 609.758 330.382 609.258C333.982 607.637 338.794 610.538 341.866 611.05L366.183 641.083C366.24 641.152 366.279 641.236 366.295 641.325C366.312 641.413 366.305 641.505 366.276 641.591C366.247 641.676 366.196 641.753 366.129 641.813C366.062 641.874 365.981 641.916 365.893 641.936C359.488 643.506 353.401 645.918 347.634 649.171C346.92 649.576 346.091 649.732 345.279 649.614C344.466 649.497 343.716 649.113 343.146 648.523C321.064 625.793 300.997 599.036 288.318 569.993C281.168 553.611 277.226 541.273 273.745 526.257C273.696 526.051 273.707 525.836 273.775 525.636C273.843 525.436 273.966 525.259 274.13 525.126C274.293 524.992 274.491 524.907 274.701 524.881C274.91 524.855 275.123 524.888 275.315 524.977L295.98 534.447Z" fill="#003965"/>
<path d="M684.348 609.65C693.939 607.244 700.133 600.145 706.276 592.33C706.219 592.682 706.208 592.978 706.242 593.217C706.287 593.536 706.469 593.74 706.788 593.831C707.288 593.968 707.698 593.735 708.017 593.132C709.279 593.61 710.241 593.587 710.901 593.063C715.098 589.719 719.672 587.995 722.607 582.757C723.073 581.915 723.642 581.187 724.313 580.572C727.316 577.825 729.228 572.74 731.19 569.139C733.323 565.18 732.845 561.307 734.637 557.484C735.149 556.392 735.649 555.289 736.139 554.174C736.378 553.65 736.435 553.116 736.309 552.57C735.445 548.656 736.173 545.113 738.494 541.939C738.676 541.688 738.698 541.427 738.562 541.154C738.482 540.972 738.403 540.789 738.323 540.607C738.243 540.403 738.238 540.198 738.306 539.993C739.068 537.763 739.278 535.46 738.937 533.082C738.858 532.525 738.573 532.104 738.084 531.819C737.822 531.671 737.584 531.461 737.367 531.188C737.185 530.972 737.145 530.733 737.248 530.471C737.35 530.175 737.31 529.988 737.128 529.908L748.766 525.284C749.278 525.079 749.483 525.244 749.381 525.779C746.366 542.263 742.68 554.925 738.323 563.764C732.606 575.368 726.89 588.285 721.156 598.541C715.752 608.2 711.003 615.389 706.907 620.111C697.897 630.537 690.048 641.39 679.331 650.366C678.822 650.79 678.197 651.053 677.537 651.12C676.877 651.186 676.213 651.055 675.628 650.741L659.963 642.345C659.805 642.261 659.667 642.142 659.559 641.999C659.451 641.855 659.377 641.69 659.341 641.515C659.305 641.341 659.309 641.161 659.351 640.988C659.394 640.816 659.475 640.656 659.588 640.519L684.348 609.65Z" fill="#003965"/>
<path d="M737.128 529.908C737.31 529.988 737.35 530.175 737.248 530.471C737.145 530.733 737.185 530.972 737.367 531.188C737.584 531.461 737.822 531.671 738.084 531.819C738.573 532.104 738.858 532.525 738.937 533.082C739.278 535.46 739.068 537.763 738.306 539.993C738.238 540.198 738.243 540.403 738.323 540.607C738.403 540.789 738.482 540.971 738.562 541.153C738.698 541.426 738.676 541.688 738.493 541.938C736.173 545.112 735.445 548.656 736.309 552.57C736.435 553.116 736.377 553.65 736.139 554.174C735.649 555.288 735.149 556.392 734.637 557.484C732.845 561.307 733.323 565.18 731.19 569.139C729.228 572.74 727.316 577.825 724.313 580.572C723.642 581.187 723.073 581.915 722.607 582.756C719.672 587.995 715.098 589.719 710.9 593.063C710.241 593.587 709.279 593.609 708.017 593.132C710.303 589.571 713.005 586.295 716.122 583.303C716.452 582.973 716.839 582.756 717.283 582.654C717.783 582.54 718.227 582.444 718.614 582.364C718.888 582.307 719.147 582.192 719.373 582.027C719.599 581.861 719.787 581.649 719.924 581.405C720.062 581.161 720.145 580.891 720.169 580.611C720.194 580.332 720.158 580.051 720.064 579.787C719.347 577.819 718.67 576.511 718.033 575.862C721.634 564.634 726.361 547.877 725.712 535.283L737.128 529.908Z" fill="#012A58"/>
<path d="M380.772 530.966C382.581 530.705 384.328 530.801 386.011 531.256C386.095 531.274 386.17 531.321 386.224 531.387C386.278 531.454 386.307 531.537 386.307 531.623C386.307 531.709 386.278 531.792 386.224 531.859C386.17 531.926 386.095 531.972 386.011 531.99C385.727 532.058 385.312 532.03 384.766 531.905C383.264 531.848 381.933 531.535 380.772 530.966Z" fill="#A0C2DF"/>
<path d="M295.98 534.447L305.075 535.949C305.656 536.04 306.019 536.37 306.167 536.939C309.262 548.656 313.3 560.033 318.283 571.067C318.568 571.705 318.386 572.154 317.737 572.416L306.509 577.023L295.98 534.447Z" fill="#FE940E"/>
<path d="M725.712 535.283C726.361 547.877 721.634 564.634 718.033 575.862C713.756 574.998 709.882 573.411 706.413 571.101C705.958 570.794 705.827 570.379 706.02 569.856L715.389 545.317C717.3 542.598 718.119 539.976 717.846 537.451C719.848 535.653 722.47 534.931 725.712 535.283Z" fill="#FE940E"/>
<path d="M591.757 538.918L548.482 542.792L486.692 543.099C470.617 542.803 454.474 541.404 438.263 538.901C437.819 537.877 438.343 537.189 439.833 536.836C442.819 536.137 449.252 537.57 452.512 537.963C455.652 538.338 459.104 538.577 462.87 538.679C472.17 538.918 482.084 540.062 490.651 540.215C519.746 540.761 541.81 539.754 565.137 538.713C574.403 538.321 583.532 536.99 592.781 536.376C593.737 536.307 593.89 536.626 593.242 537.331L591.757 538.918Z" fill="#B7CEE2"/>
<path d="M717.845 537.451C718.118 539.976 717.299 542.598 715.388 545.317C715.502 540.573 716.321 537.951 717.845 537.451Z" fill="#B25937"/>
<path d="M328.675 542.894L354.561 548.406C354.668 548.43 354.764 548.486 354.835 548.568C354.907 548.65 354.951 548.753 354.961 548.861C354.97 548.97 354.945 549.078 354.888 549.171C354.832 549.264 354.747 549.337 354.647 549.379L333.06 558.201C332.994 558.228 332.924 558.241 332.853 558.239C332.782 558.237 332.712 558.22 332.648 558.189C332.583 558.159 332.526 558.115 332.48 558.061C332.433 558.008 332.399 557.945 332.378 557.877L328.077 543.543C328.052 543.458 328.049 543.367 328.069 543.28C328.089 543.194 328.131 543.113 328.191 543.048C328.251 542.983 328.328 542.934 328.413 542.907C328.497 542.88 328.588 542.876 328.675 542.894Z" fill="#FE940E"/>
<path d="M548.482 542.792C531.44 544.521 514.25 545.033 496.913 544.327C493.773 544.191 490.19 543.201 486.691 543.099L548.482 542.792Z" fill="#5E5263"/>
<path d="M670.919 548.798L695.355 544.618C695.844 544.538 696.009 544.731 695.85 545.198L691.857 557.365C691.652 558.002 691.242 558.189 690.628 557.928L670.833 549.566C669.992 549.202 670.02 548.946 670.919 548.798Z" fill="#CF7B46"/>
<path d="M415.243 615.076C406.461 606.931 399.732 599.485 395.056 592.739C390.517 586.198 384.26 575.675 376.285 561.17C376.171 560.977 375.813 560.669 375.21 560.249C374.823 559.964 374.698 559.617 374.835 559.208L384.459 555.146C385.016 554.919 385.426 555.078 385.688 555.624C392.377 569.344 400.443 582.165 409.885 594.087C413.98 599.252 418.059 604.343 422.12 609.36C422.655 610.02 422.564 610.571 421.847 611.015L415.243 615.076Z" fill="#FDBB32"/>
<path d="M648.086 557.962C642.717 570.965 636.113 583.143 628.275 594.497C624.179 600.435 616.807 607.688 611.841 615.657C609.726 613.245 607.029 611.214 603.753 609.565C603.67 609.522 603.597 609.461 603.54 609.387C603.483 609.313 603.444 609.227 603.424 609.136C603.405 609.044 603.406 608.949 603.427 608.858C603.448 608.767 603.49 608.682 603.548 608.609C617.66 591.494 629.298 576.204 637.523 555.351C637.74 554.782 638.138 554.595 638.718 554.788L648.086 557.962Z" fill="#FDBB32"/>
<path d="M648.087 557.962L653.94 560.573C653.337 560.505 652.865 560.601 652.523 560.863C652.446 560.918 652.385 560.993 652.348 561.08C652.311 561.168 652.299 561.263 652.313 561.357C652.327 561.451 652.367 561.539 652.428 561.611C652.49 561.684 652.57 561.738 652.66 561.767C659.713 564.27 666.351 567.603 672.574 571.767C672.972 572.029 673.405 572.16 673.871 572.16C676.209 572.125 678.7 574.378 681.209 574.753C682.05 574.878 682.449 574.355 682.403 573.183C682.608 573.252 682.79 573.36 682.949 573.508C683.128 573.686 683.252 573.913 683.306 574.164C683.36 574.414 683.343 574.678 683.256 574.924C682.289 577.518 681.118 580.015 679.741 582.415C670.469 598.638 659.844 613.905 647.865 628.216C644.196 632.602 643.906 634.957 638.189 631.885C626.426 625.582 617.644 620.173 611.842 615.657C616.808 607.688 624.179 600.435 628.275 594.497C636.113 583.143 642.717 570.965 648.087 557.962Z" fill="#5E5263"/>
<path d="M374.835 559.208C374.698 559.617 374.823 559.964 375.21 560.248C364.528 565.959 353.231 570.726 341.32 574.548C340.967 574.298 340.763 574.002 340.706 573.661C340.603 573.104 340.82 572.723 341.354 572.518L374.835 559.208Z" fill="#FF554E"/>
<path d="M437.939 597.893C426.403 588.064 415.925 573.986 408.741 560.402C408.423 559.799 408.588 559.379 409.236 559.14C409.509 559.037 410.01 559.037 410.738 559.14C424.742 561.131 438.769 562.939 452.819 564.566C458.45 565.215 464.661 565.044 470.651 565.522C470.779 565.535 470.902 565.583 471.005 565.661C471.108 565.738 471.188 565.842 471.236 565.961C471.284 566.079 471.297 566.207 471.275 566.332C471.254 566.456 471.197 566.571 471.112 566.665C461.283 577.962 450.583 588.377 439.014 597.91C438.861 598.034 438.67 598.1 438.473 598.097C438.276 598.094 438.087 598.022 437.939 597.893Z" fill="#CF7B46"/>
<path d="M589.027 597.279C576.092 588.166 563.737 577.586 552.748 566.187C552.676 566.112 552.628 566.018 552.608 565.916C552.587 565.815 552.597 565.709 552.634 565.613C552.672 565.516 552.736 565.432 552.82 565.37C552.903 565.309 553.003 565.273 553.106 565.266C573.874 563.935 594.266 561.597 614.948 559.549C615.619 559.481 615.789 559.742 615.459 560.334C608.133 573.303 599.755 585.555 590.324 597.091C590.172 597.282 589.954 597.407 589.712 597.442C589.471 597.477 589.226 597.418 589.027 597.279Z" fill="#CF7B46"/>
<path d="M375.21 560.249C375.813 560.67 376.171 560.977 376.285 561.17C384.26 575.675 390.516 586.198 395.056 592.739C399.731 599.485 406.46 606.931 415.243 615.077L384.885 634.308C384.49 634.56 384.02 634.669 383.554 634.616C383.088 634.563 382.654 634.352 382.326 634.018C365.557 616.863 351.888 597.04 341.32 574.549C353.231 570.726 364.527 565.96 375.21 560.249Z" fill="#5E5263"/>
<path d="M653.939 560.573C663.82 564.48 672.147 570.385 682.403 573.183C682.448 574.355 682.05 574.878 681.208 574.753C678.7 574.378 676.208 572.125 673.87 572.159C673.404 572.159 672.972 572.029 672.574 571.767C666.351 567.603 659.713 564.27 652.659 561.767C652.569 561.738 652.489 561.684 652.428 561.611C652.367 561.539 652.327 561.451 652.312 561.357C652.298 561.263 652.31 561.167 652.348 561.08C652.385 560.993 652.445 560.918 652.523 560.863C652.864 560.601 653.336 560.504 653.939 560.573Z" fill="#B97357"/>
<path d="M483.62 566.392C483.108 565.778 483.256 565.47 484.063 565.47C502.345 565.539 520.848 565.601 539.574 565.658C540.256 565.67 540.82 565.795 541.263 566.034C542.014 566.42 542.105 566.932 541.536 567.569L514.848 597.176C514.108 597.995 513.329 598.041 512.51 597.313C502.271 588.354 493.125 577.757 483.62 566.392Z" fill="#CF7B46"/>
<path d="M706.276 592.33C700.133 600.145 693.938 607.244 684.348 609.65C690.548 600.629 695.804 591.494 700.116 582.245C700.559 581.278 701.213 581.101 702.078 581.716L708.631 586.408C709.291 586.875 709.404 587.449 708.972 588.132L706.276 592.33Z" fill="#FE940E"/>
<path d="M335.945 602.875L331.457 606.118C331.127 606.357 330.928 606.675 330.86 607.073L330.723 607.807C330.746 607.591 330.717 607.363 330.638 607.125C330.581 606.931 330.456 606.755 330.262 606.596C322.874 600.606 317.14 596.084 314.29 586.562L323.744 582.569C324.267 582.353 324.671 582.495 324.955 582.995L335.945 602.875Z" fill="#FE940E"/>
<path d="M495.82 616.271L484.865 607.125L479.131 601.886C478.87 601.649 478.532 601.513 478.181 601.503C477.83 601.494 477.489 601.612 477.22 601.835L457.835 617.961C457.562 618.189 457.21 618.301 456.853 618.273C456.496 618.244 456.163 618.077 455.924 617.807L451.453 612.807C451.078 612.375 451.1 611.96 451.521 611.561L476.691 587.722C476.799 587.619 476.927 587.539 477.066 587.486C477.206 587.432 477.355 587.407 477.504 587.412C477.653 587.417 477.8 587.451 477.936 587.513C478.072 587.575 478.194 587.664 478.295 587.774L499.882 611.101C499.986 611.213 500.066 611.345 500.118 611.488C500.171 611.632 500.193 611.785 500.185 611.938C500.177 612.091 500.139 612.24 500.072 612.378C500.005 612.515 499.912 612.638 499.796 612.739L495.82 616.271Z" fill="#FDBB32"/>
<path d="M572.526 614.957L550.922 600.316C550.444 599.997 549.984 600.02 549.54 600.384L530.957 615.435L527.22 611.766C526.742 611.311 526.725 610.833 527.169 610.333L545.223 590.026C545.634 589.564 546.136 589.191 546.696 588.929C547.257 588.668 547.866 588.524 548.484 588.507C549.103 588.489 549.718 588.598 550.293 588.827C550.868 589.056 551.39 589.4 551.827 589.838L573.686 611.851C573.853 612.02 573.957 612.242 573.979 612.478C574 612.715 573.939 612.952 573.806 613.148L572.526 614.957Z" fill="#FFD157"/>
<path d="M572.525 614.957C566.803 622.067 560.574 628.535 553.839 634.359C553.339 634.792 552.816 634.814 552.269 634.428C544.124 628.557 537.02 622.226 530.956 615.435L549.539 600.384C549.983 600.02 550.444 599.997 550.921 600.316L572.525 614.957Z" fill="#8F5543"/>
<path d="M335.944 602.875L341.866 611.049C338.794 610.537 333.982 607.636 330.381 609.257C329.278 609.758 329.13 609.565 329.938 608.677L330.723 607.807L330.859 607.073C330.928 606.675 331.127 606.356 331.457 606.118L335.944 602.875Z" fill="#FF554E"/>
<path d="M484.865 607.125L495.821 616.271C489.245 623.347 481.464 629.468 472.477 634.633C471.931 634.94 471.413 634.9 470.924 634.513C465.77 630.384 461.254 625.628 457.375 620.247C457.285 620.125 457.223 619.984 457.192 619.836C457.16 619.687 457.161 619.534 457.193 619.386C457.225 619.237 457.289 619.098 457.379 618.975C457.469 618.853 457.584 618.752 457.716 618.677C464.894 614.616 471.311 609.582 476.965 603.575C477.159 603.368 477.398 603.207 477.664 603.105C477.929 603.002 478.215 602.961 478.498 602.984C478.782 603.007 479.057 603.093 479.302 603.237C479.548 603.381 479.758 603.578 479.917 603.814C481.362 606.01 483.011 607.113 484.865 607.125Z" fill="#5E5263"/>
<path d="M454.047 643.847C450.726 646.873 447.29 648.728 443.741 649.41L425.021 632.312C424.938 632.236 424.872 632.143 424.829 632.039C424.786 631.935 424.766 631.823 424.771 631.711C424.776 631.599 424.806 631.489 424.858 631.389C424.91 631.29 424.983 631.202 425.072 631.134L434.884 623.694C435.086 623.541 435.336 623.469 435.586 623.491C435.836 623.513 436.066 623.628 436.232 623.814L454.047 643.847Z" fill="#FDBB32"/>
<path d="M580.273 649.717L571.502 644.12C572.139 642.607 573.015 641.276 574.13 640.127C579.397 634.723 584.528 629.308 589.522 623.882C589.689 623.699 589.918 623.586 590.164 623.564C590.411 623.541 590.656 623.612 590.853 623.762L598.447 629.735C598.613 629.864 598.75 630.027 598.848 630.214C598.946 630.401 599.003 630.606 599.014 630.817C599.025 631.027 598.991 631.238 598.914 631.434C598.837 631.63 598.718 631.807 598.566 631.953L580.273 649.717Z" fill="#FDBB32"/>
<path d="M534.915 644.564C531.639 649.837 520.769 641.612 518.277 638.967C518.095 638.774 517.875 638.622 517.631 638.519C517.387 638.416 517.125 638.366 516.861 638.37C516.597 638.375 516.338 638.435 516.1 638.547C515.862 638.658 515.65 638.819 515.479 639.018C511.668 643.386 507.168 646.81 501.981 649.291C499.933 647.686 498.283 645.724 497.032 643.403C496.861 643.085 496.594 642.931 496.23 642.943C496.002 642.954 495.792 642.931 495.599 642.874C495.291 642.783 495.098 642.596 495.019 642.311C494.95 642.05 494.967 641.742 495.07 641.39L512.441 625.332C512.731 625.06 513.117 624.91 513.519 624.913C513.921 624.916 514.311 625.072 514.608 625.349L534.915 644.564Z" fill="#FDBB32"/>
<path d="M571.501 644.12L580.272 649.717C585.369 647.681 590.011 644.496 594.197 640.161C596.586 637.693 598.611 635.093 600.272 632.363C600.355 632.228 600.465 632.112 600.594 632.021C600.724 631.93 600.871 631.867 601.026 631.835C601.181 631.803 601.341 631.803 601.496 631.835C601.651 631.867 601.798 631.931 601.927 632.022C609.896 637.482 618.872 644.41 627.95 647.874C628.108 647.935 628.247 648.035 628.356 648.164C628.465 648.293 628.539 648.447 628.571 648.611C628.604 648.775 628.594 648.944 628.542 649.102C628.49 649.26 628.398 649.401 628.275 649.513L610.357 666.065C609.952 666.439 609.415 666.646 608.855 666.645C607.137 666.634 605.408 666.276 603.668 665.57C591.074 660.485 579.772 653.818 569.761 645.571C569.272 645.172 569.3 644.808 569.846 644.479C570.256 644.24 570.807 644.12 571.501 644.12Z" fill="#003965"/>
<path d="M443.74 649.41C447.29 648.728 450.725 646.873 454.047 643.847L456.863 647.055C457.273 647.522 457.227 647.926 456.726 648.267C444.85 656.492 432.41 661.321 419.185 666.799C418.101 667.247 416.911 667.375 415.756 667.166C414.6 666.957 413.528 666.421 412.666 665.621L397.308 651.39C397.087 651.183 396.916 650.929 396.808 650.647C396.7 650.365 396.657 650.063 396.683 649.763C396.71 649.463 396.804 649.174 396.96 648.918C397.116 648.661 397.328 648.444 397.581 648.284L421.71 632.909C421.898 632.787 422.122 632.732 422.345 632.754C422.569 632.775 422.778 632.872 422.939 633.028C429.355 639.297 436.289 644.757 443.74 649.41Z" fill="#003965"/>
<path d="M534.916 644.564C536.235 645.121 537.174 645.992 537.731 647.175C538.016 647.766 537.902 648.273 537.39 648.693L514.046 667.652C513.545 668.062 513.028 668.09 512.493 667.737C505.747 663.392 499.7 658.34 494.354 652.584C495.628 651.401 497.05 650.866 498.62 650.98C499.166 651.026 499.666 650.889 500.121 650.57L501.981 649.291C507.169 646.811 511.668 643.386 515.479 639.018C515.651 638.819 515.862 638.658 516.1 638.547C516.338 638.435 516.598 638.375 516.862 638.371C517.125 638.366 517.388 638.416 517.632 638.519C517.876 638.622 518.096 638.774 518.278 638.967C520.769 641.612 531.639 649.837 534.916 644.564Z" fill="#5E5263"/>
<path d="M495.07 641.39C494.968 641.742 494.95 642.05 495.019 642.311C495.098 642.596 495.292 642.783 495.599 642.874C495.792 642.931 496.003 642.954 496.23 642.943C496.594 642.931 496.862 643.085 497.032 643.403C498.284 645.724 499.933 647.686 501.981 649.29L500.121 650.57C499.666 650.889 499.165 651.025 498.619 650.98C497.049 650.866 495.627 651.401 494.353 652.584L489.149 648.591C489.011 648.484 488.899 648.348 488.82 648.193C488.741 648.038 488.696 647.868 488.69 647.694C488.683 647.52 488.715 647.347 488.782 647.186C488.85 647.026 488.951 646.882 489.08 646.765L495.07 641.39Z" fill="#FE940E"/>
<path d="M562.867 664.768L545.325 679.699C545.12 677.982 545.632 676.099 546.86 674.051C547.213 673.448 547.054 673.05 546.383 672.857C544.187 672.219 542.611 672.8 541.656 674.597C541.314 675.246 540.791 675.473 540.086 675.28C539.233 675.041 538.522 674.597 537.953 673.949C537.532 673.448 537.549 672.959 538.004 672.481C538.527 671.958 538.886 671.423 539.079 670.877L551.451 660.144C551.852 659.795 552.353 659.581 552.883 659.532C553.412 659.483 553.944 659.602 554.403 659.871L562.867 664.768Z" fill="#5E5263"/>
<path d="M592.969 705.296C590.739 706.081 590.512 705.7 592.286 704.153C607.576 690.808 623.446 680.382 637.37 666.782C639.748 664.461 642.239 662.135 644.845 659.802C645.027 659.643 645.237 659.609 645.476 659.7L658.087 665.075C658.348 665.178 658.371 665.32 658.155 665.502C652.319 670.576 646.454 675.61 640.561 680.604C638.662 682.219 636.91 682.396 635.306 681.133C634.85 680.78 634.292 680.588 633.718 680.584C633.144 680.581 632.586 680.768 632.132 681.116C620.989 689.631 611.62 697.122 598.208 703.743C596.655 704.511 594.812 704.648 592.969 705.296Z" fill="#01527F"/>
<path d="M423.264 701.678C420.499 700.211 416.916 699.05 414.714 697.583C409.709 694.215 404.686 690.854 399.646 687.498C397.769 686.269 395.892 684.341 393.793 683.044C390.807 681.201 386.933 682.14 384.22 680.262C379.988 677.316 374.038 672.214 366.371 664.956C366.334 664.923 366.306 664.881 366.291 664.835C366.276 664.788 366.273 664.737 366.283 664.688C366.294 664.638 366.317 664.592 366.35 664.552C366.383 664.512 366.425 664.481 366.473 664.461L377.343 660.092C377.466 660.041 377.601 660.024 377.733 660.045C377.866 660.066 377.991 660.124 378.094 660.212C395.796 675.57 414.145 690.114 433.144 703.845C434.156 704.585 434.037 704.886 432.785 704.75C429.68 704.42 426.506 703.396 423.264 701.678Z" fill="#003965"/>
<path d="M489.354 682.327C487.614 682.122 486.521 682.208 485.105 681.099C478.359 675.843 471.323 671.019 463.996 666.628C463.439 666.287 463.416 665.428 463.928 664.051L469.764 660.604C470.242 660.32 470.697 660.348 471.129 660.69L493.279 678.164C493.39 678.25 493.479 678.362 493.539 678.489C493.6 678.617 493.629 678.756 493.626 678.897C493.623 679.038 493.587 679.176 493.52 679.301C493.454 679.425 493.36 679.532 493.245 679.614L489.354 682.327Z" fill="#5E5263"/>
<path d="M463.927 664.052C463.415 665.428 463.438 666.287 463.995 666.628C471.322 671.019 478.358 675.843 485.104 681.099C486.52 682.208 487.613 682.123 489.353 682.327L457.511 695.638C457.019 695.841 456.485 695.918 455.957 695.861C455.429 695.805 454.925 695.616 454.491 695.313L437.034 683.164C436.806 683.005 436.621 682.791 436.496 682.543C436.372 682.295 436.311 682.019 436.319 681.741C436.328 681.463 436.405 681.192 436.545 680.952C436.684 680.712 436.882 680.51 437.119 680.365L463.927 664.052Z" fill="#003965"/>
<path d="M562.867 664.768L589.385 680.774C589.463 680.822 589.529 680.889 589.577 680.967C589.624 681.046 589.653 681.134 589.659 681.226C589.666 681.318 589.651 681.41 589.615 681.494C589.579 681.579 589.524 681.654 589.453 681.713C584.186 686.195 578.487 690.12 572.355 693.487C565.888 697.054 547.953 687.583 541.895 683.778L545.325 679.699L562.867 664.768Z" fill="#012A58"/>
<path d="M539.079 670.877C538.886 671.423 538.528 671.958 538.004 672.481C537.549 672.959 537.532 673.448 537.953 673.949C538.522 674.597 539.233 675.041 540.086 675.28C540.791 675.473 541.315 675.245 541.656 674.597C542.612 672.8 544.187 672.219 546.383 672.856C547.054 673.05 547.213 673.448 546.861 674.051C545.632 676.099 545.12 677.981 545.325 679.699L541.895 683.778L531.383 678.351C531.313 678.316 531.253 678.264 531.208 678.201C531.163 678.137 531.134 678.063 531.124 677.986C531.114 677.908 531.123 677.83 531.15 677.756C531.177 677.683 531.222 677.618 531.281 677.566L539.079 670.877Z" fill="#003965"/>
<path d="M520.565 695.757C532.51 703.419 539.557 706.866 550.052 709.886C550.267 709.952 550.455 710.085 550.588 710.266C550.721 710.447 550.791 710.666 550.79 710.891C550.788 711.115 550.713 711.333 550.577 711.512C550.441 711.691 550.251 711.821 550.035 711.883L534.762 716.115C534.296 716.243 533.807 716.27 533.33 716.193C532.853 716.117 532.399 715.939 531.998 715.671L515.565 704.886C514.37 704.09 513.142 704.033 511.879 704.716C507.044 707.332 502.34 710.535 497.767 714.323C493.62 717.77 482.323 713.794 477.75 711.763C477.602 711.695 477.476 711.588 477.383 711.454C477.291 711.319 477.237 711.163 477.226 711C477.216 710.838 477.25 710.675 477.324 710.53C477.398 710.385 477.51 710.263 477.648 710.176C483.125 706.815 489.576 705.364 494.661 702.378C501.691 698.271 506.47 695.364 508.995 693.658C513.927 690.364 515.753 692.668 520.565 695.757Z" fill="#003965"/>
<path d="M579.59 755.67C579.169 752.291 578.703 748.833 578.191 745.295C577.929 743.52 576.57 742.804 574.112 743.145C585.477 740.056 596.381 738.998 607.456 733.145C609.311 732.167 610.88 732.508 612.166 734.169L617.319 740.824C618.764 742.701 618.355 743.981 616.091 744.664L579.59 755.67Z" fill="#B25937"/>
<path d="M451.35 743.298C449.883 743.071 448.711 743.065 447.835 743.281C447.005 743.497 446.407 744.322 446.043 745.756C445.202 749.089 444.047 752.246 442.579 755.226C430.316 752.826 418.155 749.316 406.096 744.698C404.128 743.935 403.855 742.781 405.277 741.233L411.13 734.817C412.563 733.259 414.258 732.883 416.215 733.691C426.954 738.139 438.666 741.342 451.35 743.298Z" fill="#B25937"/>
<path d="M451.351 743.298C451.909 743.571 452.17 743.583 452.136 743.333C451.624 744.288 451.92 744.885 453.024 745.124C457.29 746.063 461.18 747.172 465.549 747.36C471.578 747.599 477.608 747.678 483.637 747.599C500.986 748.531 518.323 748.418 535.649 747.257C548.721 746.95 561.542 745.579 574.112 743.145C576.57 742.804 577.929 743.52 578.191 745.295C578.703 748.833 579.169 752.291 579.59 755.67L559.676 758.622C561.542 758.725 562.947 758.235 563.891 757.155C564.369 756.597 564.244 756.273 563.516 756.182C559.227 755.613 554.915 755.374 550.581 755.465C549.204 755.488 547.867 755.312 546.571 754.936C541.417 753.418 535.598 753.571 530.274 753.281C530.16 753.27 526.133 752.957 518.192 752.343C507.715 751.546 496.316 751.887 483.995 753.366C482.118 753.594 480.81 754.043 480.071 754.715C477.022 755.352 476.208 756.967 477.63 759.561L443.996 756.233C443.325 756.29 442.853 755.955 442.58 755.226C444.048 752.246 445.202 749.089 446.044 745.756C446.408 744.322 447.005 743.498 447.836 743.281C448.712 743.065 449.884 743.071 451.351 743.298Z" fill="#FFD157"/>
<path d="M452.136 743.333L463.125 745.261L483.637 747.599C477.607 747.678 471.578 747.599 465.549 747.36C461.18 747.172 457.289 746.063 453.023 745.124C451.92 744.885 451.624 744.288 452.136 743.333Z" fill="#FE940E"/>
<path d="M463.125 745.261C471.475 745.295 478.329 745.517 483.688 745.926C486.298 746.114 489.097 747.035 491.93 747.087C506.514 747.348 521.087 747.405 535.649 747.257C518.323 748.418 500.985 748.531 483.636 747.598L463.125 745.261Z" fill="#B25937"/>
<path d="M559.676 758.622L550.751 759.561C551.308 758.867 551.013 758.52 549.864 758.52C549.34 758.531 548.845 758.406 548.379 758.145C547.389 757.576 545.876 757.155 543.84 756.882C522.919 754.032 502.135 752.786 480.07 754.715C480.81 754.043 482.118 753.594 483.995 753.366C496.316 751.888 507.715 751.546 518.192 752.343C526.133 752.957 530.16 753.27 530.274 753.281C535.598 753.571 541.417 753.418 546.57 754.936C547.867 755.312 549.204 755.488 550.58 755.465C554.915 755.374 559.226 755.613 563.515 756.182C564.243 756.273 564.368 756.597 563.891 757.155C562.946 758.236 561.541 758.725 559.676 758.622Z" fill="#FEE986"/>
<path d="M550.752 759.561L532.544 761.233L488.347 760.602L477.631 759.561C476.209 756.967 477.022 755.352 480.071 754.715C502.135 752.786 522.919 754.032 543.84 756.882C545.877 757.155 547.39 757.576 548.38 758.144C548.846 758.406 549.341 758.531 549.864 758.52C551.013 758.52 551.309 758.867 550.752 759.561Z" fill="#FEFEFD"/>
<path d="M579.59 755.67C579.67 756.023 579.675 756.404 579.607 756.813C579.527 757.314 579.613 757.792 579.863 758.247C582.821 763.514 584.146 769.219 583.839 775.362C583.822 775.746 583.658 776.108 583.382 776.375C583.106 776.641 582.738 776.792 582.354 776.796L533.926 777.41C534.113 771.728 535.035 766.54 532.543 761.233L550.751 759.561L559.676 758.622L579.59 755.67Z" fill="#012A58"/>
<path d="M443.997 756.233L477.631 759.561L488.347 760.602L489.661 777.342L441.539 776.386C441.353 776.384 441.169 776.341 441 776.261C440.831 776.182 440.681 776.067 440.56 775.925C440.439 775.783 440.35 775.617 440.298 775.437C440.246 775.258 440.233 775.07 440.26 774.885C440.84 770.772 441.778 762.291 444.031 758.776C444.634 757.82 444.622 756.973 443.997 756.233Z" fill="#012A58"/>
<path d="M488.347 760.602L532.544 761.233C535.035 766.54 534.113 771.728 533.926 777.41L489.661 777.342L488.347 760.602Z" fill="#01527F"/>
<path d="M725.166 356.841C725.166 361.982 723.124 366.913 719.489 370.548C715.853 374.184 710.922 376.226 705.781 376.226C700.64 376.226 695.709 374.184 692.074 370.548C688.438 366.913 686.396 361.982 686.396 356.841C686.396 351.7 688.438 346.769 692.074 343.134C695.709 339.498 700.64 337.456 705.781 337.456C710.922 337.456 715.853 339.498 719.489 343.134C723.124 346.769 725.166 351.7 725.166 356.841Z" fill="#FEFEF7"/>
<path d="M525.905 320.528C527.134 324.237 529.028 327.087 531.588 329.077" stroke="#ACC8E1" stroke-width="2"/>
<path d="M525.905 320.528C527.134 324.237 529.028 327.086 531.588 329.077C547.992 351.443 568.64 368.61 593.531 380.578C593.715 380.665 593.877 380.791 594.007 380.948C594.137 381.104 594.231 381.287 594.283 381.483C594.335 381.68 594.344 381.885 594.308 382.085C594.273 382.286 594.194 382.476 594.078 382.642C591.381 386.453 588.492 390.179 585.409 393.82C583.378 396.209 581.706 396.277 578.993 395.048C542.816 378.786 517.817 353.053 512.271 312.508C511.827 309.231 511.787 306.035 512.151 302.917C512.178 302.699 512.264 302.493 512.399 302.319C512.534 302.146 512.714 302.013 512.919 301.934C513.124 301.855 513.347 301.833 513.563 301.871C513.78 301.909 513.982 302.006 514.148 302.15C517.834 305.409 520.086 310.733 521.963 313.651C523.442 315.938 524.756 318.23 525.905 320.528Z" fill="#A0C2DF"/>
<path d="M525.905 320.528C528.556 323.327 530.45 326.176 531.588 329.077C529.028 327.087 527.134 324.237 525.905 320.528Z" fill="#B7CEE2"/>
<path d="M424.543 442.897C424.611 442.931 424.674 442.977 424.731 443.033C425.527 443.705 425.726 444.421 425.328 445.183C425.123 445.57 424.708 445.889 424.082 446.139C415.567 449.415 409.629 451.634 403.895 459.125C402.553 460.877 401.062 461.019 399.424 459.552C395.226 455.78 386.438 451.224 386.012 445.149C385.585 438.955 390.517 433.153 395.653 430.116C400.175 427.454 406.898 422.59 409.765 428.273C412.723 434.143 417.649 439.017 424.543 442.897Z" fill="#EEF9FC"/>
<path d="M601.449 442.146C608.326 437.829 610.118 433.016 614.486 426.549C614.653 426.294 614.903 426.106 615.196 426.016C615.489 425.925 615.805 425.939 616.09 426.054C622.711 428.836 637.131 435.525 636.943 443.494C636.824 449.671 626.875 456.48 622.097 459.995C621.893 460.144 621.662 460.251 621.417 460.31C621.172 460.369 620.918 460.379 620.669 460.34C620.42 460.3 620.181 460.211 619.966 460.079C619.752 459.947 619.565 459.773 619.418 459.569C614.663 453.039 608.701 447.925 601.534 444.228C601.347 444.132 601.19 443.989 601.077 443.812C600.964 443.635 600.9 443.431 600.891 443.22C600.883 443.009 600.929 442.799 601.027 442.61C601.125 442.422 601.271 442.261 601.449 442.146Z" fill="#B7CEE2"/>
<path d="M420.106 465.166C422.103 458.528 436.949 453.938 441.966 452.538C444.303 451.89 447.17 452.589 449.696 453.664C490.343 470.917 535.803 469.04 576.689 452.487C582.286 450.218 600.255 460.405 603.719 465.098C603.852 465.276 603.941 465.483 603.981 465.702C604.021 465.922 604.01 466.147 603.949 466.363C603.888 466.578 603.779 466.777 603.63 466.945C603.481 467.114 603.295 467.246 603.088 467.333C558.737 485.285 508.278 487.401 461.658 479.824C448.928 477.759 435.566 473.425 422.563 469.688C420.22 469.005 419.401 467.498 420.106 465.166Z" fill="#B7CEE2"/>
</svg>
