<svg width="512" height="512" viewBox="0 0 512 512" fill="none" xmlns="http://www.w3.org/2000/svg">
<rect width="512" height="512" fill="white"/>
<path d="M300.276 195.911C300.412 195.264 300.804 195.025 301.451 195.196C305.88 196.371 306.561 203.95 301.213 204.308C300.645 204.342 300.31 204.08 300.208 203.524C299.697 201.003 299.72 198.466 300.276 195.911Z" fill="black"/>
<path d="M295.916 217.643C299.163 215.452 299.691 212.63 297.5 209.179C297.243 208.77 297.088 208.306 297.047 207.825C297.007 207.344 297.082 206.861 297.267 206.415C297.453 205.97 297.742 205.575 298.112 205.264C298.481 204.954 298.92 204.737 299.39 204.631C301.877 204.069 303.342 206.573 303.665 208.787C304.914 217.382 300.952 222.106 291.777 222.957C290.21 223.094 288.734 223.514 287.349 224.218C286.952 224.422 286.634 224.331 286.395 223.945L286.174 223.57C286.151 223.536 286.236 223.451 286.429 223.315C289.336 221.101 291.544 218.336 293.055 215.02C293.079 214.97 293.118 214.928 293.165 214.9C293.213 214.871 293.268 214.856 293.324 214.858C293.38 214.86 293.434 214.878 293.48 214.91C293.526 214.941 293.561 214.986 293.583 215.037L294.434 217.183C294.491 217.322 294.578 217.447 294.688 217.549C294.798 217.65 294.929 217.726 295.071 217.77C295.213 217.814 295.363 217.825 295.509 217.803C295.655 217.782 295.794 217.727 295.916 217.643Z" fill="black"/>
<path d="M288.303 225.751C299.237 223.468 299.373 237.894 291.913 242.357C291.505 242.607 291.147 242.686 290.84 242.595C290.659 242.55 290.5 242.465 290.364 242.34C290.232 242.219 290.151 242.052 290.135 241.87C290.119 241.689 290.17 241.504 290.278 241.352C294.349 235.646 290.5 226.194 282.852 232.461C280.582 234.335 278.674 235.947 277.13 237.298C275.449 238.786 275.137 238.542 276.193 236.566C278.407 232.41 283.261 226.807 288.303 225.751Z" fill="black"/>
<path d="M270.981 127.937C270.777 127.63 270.839 127.562 271.169 127.732C272.758 128.595 274.274 129.822 275.716 131.411C294.809 152.446 300.583 182.779 288.814 208.736C284.436 218.393 276.108 229.361 269.329 239.257C251.054 265.963 245.672 297.352 249.095 330.241C249.141 330.695 248.936 330.962 248.482 331.041L248.056 331.11C247.875 331.144 247.761 331.07 247.716 330.888C246.268 324.314 244.65 318.131 244.224 311.336C243.662 302.377 242.589 292.805 243.134 284.425C244.326 265.997 249.402 249.584 258.361 235.186C269.806 216.809 279.174 200.68 282.563 180.02C285.538 161.83 281.677 144.469 270.981 127.937Z" fill="black"/>
<path d="M282.239 261.654C288.235 256.442 284.845 247.585 276.772 248.658C273.775 249.067 270.385 251.503 267.626 253.24C267.53 253.299 267.418 253.328 267.305 253.324C267.192 253.321 267.083 253.284 266.99 253.219C266.898 253.154 266.827 253.063 266.785 252.958C266.744 252.852 266.734 252.737 266.757 252.627C268.886 242.919 282.307 239.887 288.967 246.734C296.682 254.687 290.432 264.651 283.823 271.225C273.366 281.615 259.451 292.379 256.249 306.856C255.454 310.455 254.744 313.095 254.12 314.776C254.079 314.878 254.003 314.962 253.906 315.013C253.809 315.064 253.696 315.078 253.589 315.053C253.482 315.029 253.388 314.966 253.323 314.878C253.257 314.79 253.226 314.681 253.234 314.571C254.154 303.955 256.254 294.911 259.536 287.44C263.692 277.97 273.979 268.841 282.239 261.654Z" fill="black"/>
<path d="M252.962 381.745C260.456 365.281 272.985 354.67 290.551 349.912C292.186 349.47 292.413 349.856 291.232 351.071C276.04 366.842 263.913 386.803 252.928 405.845C252.898 405.894 252.856 405.934 252.805 405.961C252.755 405.988 252.699 406.002 252.642 406C252.585 405.998 252.529 405.981 252.48 405.951C252.432 405.921 252.392 405.878 252.365 405.828C241.09 385.73 229.117 367.898 214.606 349.231C214.095 348.561 214.248 348.329 215.066 348.533C233.392 352.916 245.734 363.975 252.093 381.711C252.354 382.438 252.644 382.449 252.962 381.745Z" fill="black"/>
<path d="M258.429 314.503C263.623 302.871 274.439 295.172 287.23 297.471C288.672 297.733 288.757 298.232 287.485 298.97C284.726 300.571 281.558 301.661 279.174 303.62C270.113 311.046 264.083 320.322 261.086 331.45C258.275 341.856 261.188 352.74 258.82 363.333C258.491 364.798 258.043 364.838 257.475 363.453C250.821 347.204 251.139 330.888 258.429 314.503Z" fill="black"/>
<path d="M223.343 249.203C220.244 273.712 227.158 294.951 233.699 318.029C233.971 318.972 233.846 319.028 233.324 318.199C220.789 298.34 209.36 270.544 212.239 247.228C214.282 230.718 221.646 216.445 234.329 204.41C243.816 195.417 254.018 186.441 261.375 175.609C271.067 161.319 269.125 142.754 261.563 128.26C259.962 125.195 257.254 121.72 254.818 118.45C254.745 118.358 254.708 118.242 254.712 118.124C254.717 118.006 254.764 117.894 254.844 117.808C254.924 117.721 255.033 117.667 255.15 117.653C255.267 117.64 255.385 117.669 255.482 117.735C259.899 120.46 263.686 123.849 266.843 127.903C292.016 160.28 280.349 198.806 258.327 229.072C258.225 229.219 258.094 229.242 257.935 229.14L257.543 228.901C257.305 228.754 257.248 228.549 257.373 228.288C267.371 209.093 276.925 189.302 276.96 167.621C276.962 167.598 276.955 167.576 276.941 167.558C276.926 167.541 276.906 167.53 276.883 167.527C276.86 167.525 276.838 167.532 276.82 167.546C276.803 167.561 276.792 167.581 276.789 167.604C274.303 184.67 269.431 196.354 260.745 214.033C250.748 234.437 240.733 256.834 238.876 278.396C237.275 296.91 240.801 313.839 246.064 335.248C249.05 347.432 251.747 359.706 254.154 372.071C254.2 372.312 254.173 372.562 254.076 372.79C253.979 373.017 253.816 373.211 253.609 373.348L253.064 373.689C252.99 373.734 252.907 373.762 252.82 373.77C252.734 373.778 252.647 373.766 252.566 373.734C252.486 373.703 252.413 373.653 252.355 373.589C252.296 373.525 252.253 373.449 252.229 373.365C249.436 364.236 246.149 355.005 243.747 345.808C238.979 327.499 232.03 308.321 230.633 290.591C230.111 284.13 230.701 273.973 232.404 260.121C235.163 237.656 243.254 222.855 254.699 202.008C254.767 201.883 254.739 201.781 254.614 201.702H254.597C254.483 201.633 254.387 201.662 254.307 201.787C245.837 215.56 240.761 224.36 239.081 228.186C233.154 241.607 229.884 255.653 229.27 270.323C229.032 275.977 228.822 280.752 228.64 284.647C228.47 288.178 227.897 288.246 226.92 284.851C223.667 273.678 223.667 261.126 223.616 249.22C223.616 247.767 223.525 247.761 223.343 249.203Z" fill="black"/>
<path d="M279.514 257.276C264.441 268.245 256.061 283.539 252.894 302.002C252.871 302.138 252.786 302.195 252.638 302.172L252.178 302.104C252.066 302.088 251.965 302.027 251.896 301.935C251.826 301.844 251.793 301.727 251.804 301.61C253.268 283.25 258.531 264.345 274.354 253.751C276.057 252.604 277.675 252.717 279.208 254.091L279.651 254.5C279.849 254.678 280.005 254.898 280.108 255.143C280.211 255.389 280.258 255.655 280.245 255.921C280.231 256.187 280.159 256.447 280.033 256.681C279.906 256.916 279.729 257.119 279.514 257.276Z" fill="black"/>
<path d="M264.867 155.29C264.469 160.626 261.381 165.804 255.602 170.823C254.58 171.709 254.114 171.476 254.205 170.125L254.273 169.171C254.328 168.306 254.712 167.496 255.346 166.905C258.979 163.533 261.585 159.542 263.164 154.932C264.628 150.64 265.196 150.759 264.867 155.29Z" fill="black"/>
<path d="M246.592 155C252.042 150.01 250.816 141.664 248.533 134.937C244.094 121.97 235.521 113.272 222.815 108.844C220.84 108.163 217.297 107.635 214.589 106.851C213.521 106.533 213.539 106.329 214.64 106.238C235.135 104.49 249.584 112.37 257.986 129.878C264.458 143.334 259.485 166.071 240.971 166.173C214.742 166.309 213.601 129.504 236.679 128.993C238.155 128.959 239.41 129.464 240.443 130.509L240.835 130.9C241.959 132.024 241.732 132.694 240.154 132.91C217.655 135.993 232.234 168.2 246.592 155Z" fill="black"/>
<path d="M238.025 179.339C230.803 175.898 225.404 186.203 233.937 190.529C234.38 190.767 234.703 191.119 234.908 191.585C235.476 192.89 235.141 193.668 233.903 193.918C225.983 195.451 220.107 189.524 222.73 181.877C228.299 165.696 251.786 174.263 243.747 187.787C243.475 188.241 243.146 188.474 242.759 188.485C242.631 188.493 242.502 188.47 242.383 188.42C242.264 188.37 242.158 188.292 242.073 188.194C241.987 188.096 241.925 187.979 241.891 187.852C241.856 187.725 241.851 187.592 241.874 187.463C242.578 183.591 241.295 180.883 238.025 179.339Z" fill="black"/>
<path d="M238.204 149.748C237.99 149.345 238.052 148.817 238.375 148.281C238.699 147.745 239.257 147.244 239.928 146.889C240.598 146.534 241.326 146.353 241.952 146.387C242.577 146.421 243.048 146.667 243.261 147.07C243.475 147.473 243.413 148.001 243.09 148.537C242.767 149.073 242.208 149.574 241.538 149.929C240.867 150.284 240.139 150.465 239.514 150.431C238.889 150.397 238.417 150.151 238.204 149.748Z" fill="black"/>
<path d="M214.521 292.583C219.494 301.559 226.119 312.238 230.94 322.525C233.341 327.669 237.326 334.839 238.417 340.102C238.916 342.487 238.57 342.617 237.378 340.494C231.837 330.615 226.102 320.374 220.175 309.768C216.531 303.262 214.129 297.738 212.971 293.196C211.915 289.018 212.432 288.814 214.521 292.583Z" fill="black"/>
<path d="M223.956 205.5C217.876 215.208 212.818 224.916 209.275 235.833C209.262 235.874 209.239 235.911 209.208 235.939C209.176 235.968 209.137 235.988 209.096 235.996C209.054 236.005 209.011 236.002 208.97 235.989C208.93 235.975 208.894 235.951 208.866 235.918C208.73 235.793 208.599 235.663 208.474 235.527C208.395 235.436 208.361 235.334 208.372 235.22C209.258 226.125 214.657 210.217 223.275 204.835C223.37 204.775 223.485 204.748 223.598 204.759C223.711 204.771 223.817 204.82 223.897 204.898C223.978 204.976 224.027 205.079 224.038 205.189C224.049 205.298 224.02 205.408 223.956 205.5Z" fill="black"/>
<path fill-rule="evenodd" clip-rule="evenodd" d="M267.808 334.241C266.407 336.544 266 339.273 266.675 341.828C267.009 343.093 267.599 344.277 268.411 345.313C269.223 346.348 270.241 347.215 271.407 347.865C272.573 348.513 273.864 348.931 275.207 349.094C276.55 349.257 277.917 349.163 279.232 348.815C281.887 348.114 284.166 346.426 285.566 344.123C286.966 341.821 287.374 339.092 286.699 336.537C286.364 335.272 285.775 334.088 284.963 333.052C284.151 332.016 283.133 331.149 281.967 330.5C280.801 329.851 279.509 329.433 278.167 329.27C276.824 329.107 275.456 329.202 274.142 329.549C271.486 330.251 269.208 331.939 267.808 334.241ZM273.192 343.461C274.105 344.375 275.344 344.888 276.636 344.888C277.928 344.888 279.167 344.375 280.08 343.461C280.994 342.548 281.507 341.309 281.507 340.017C281.507 338.725 280.994 337.486 280.08 336.573C279.167 335.659 277.928 335.146 276.636 335.146C275.344 335.146 274.105 335.659 273.192 336.573C272.278 337.486 271.765 338.725 271.765 340.017C271.765 341.309 272.278 342.548 273.192 343.461Z" fill="black"/>
<path fill-rule="evenodd" clip-rule="evenodd" d="M215.182 338.823C215.359 339.543 215.682 340.212 216.133 340.791C216.584 341.37 217.153 341.848 217.808 342.196C218.464 342.545 219.193 342.758 219.953 342.823C220.714 342.889 221.491 342.806 222.241 342.578C222.99 342.35 223.698 341.982 224.322 341.496C224.947 341.009 225.477 340.414 225.882 339.743C226.287 339.072 226.558 338.339 226.681 337.585C226.805 336.832 226.777 336.074 226.599 335.353C226.422 334.632 226.099 333.963 225.648 333.384C225.198 332.805 224.628 332.327 223.973 331.979C223.317 331.63 222.589 331.417 221.828 331.352C221.068 331.286 220.291 331.37 219.541 331.598C218.791 331.826 218.084 332.193 217.459 332.679C216.834 333.166 216.304 333.761 215.9 334.432C215.495 335.103 215.223 335.836 215.1 336.59C214.977 337.343 215.005 338.101 215.182 338.823ZM220.306 338.524C220.727 338.946 221.299 339.183 221.895 339.183C222.492 339.183 223.064 338.946 223.485 338.524C223.907 338.102 224.144 337.531 224.144 336.934C224.144 336.639 224.085 336.347 223.973 336.074C223.86 335.801 223.694 335.553 223.485 335.345C223.276 335.136 223.029 334.97 222.756 334.857C222.483 334.744 222.191 334.686 221.895 334.686C221.6 334.686 221.308 334.744 221.035 334.857C220.762 334.97 220.515 335.136 220.306 335.345C220.156 335.494 220.029 335.664 219.927 335.848C219.887 335.921 219.85 335.997 219.818 336.074C219.705 336.347 219.647 336.639 219.647 336.934C219.647 337.531 219.884 338.102 220.306 338.524Z" fill="black"/>
</svg>
