<svg width="512" height="512" viewBox="0 0 512 512" fill="none" xmlns="http://www.w3.org/2000/svg">
<rect width="512" height="512" fill="white"/>
<path d="M255.998 116.473C254.926 116.579 254.918 116.75 255.971 116.987C263.846 118.752 270.484 121.886 274.553 129.379C274.594 129.454 274.617 129.537 274.62 129.622C274.623 129.707 274.605 129.791 274.569 129.868C274.533 129.945 274.48 130.012 274.413 130.065C274.346 130.117 274.268 130.153 274.184 130.169L267.363 131.565C266.897 131.662 266.511 131.526 266.204 131.157C260.611 124.432 253.636 121.82 245.278 123.321C228.974 126.245 213.448 141.1 206.876 155.981C205.902 158.185 205.585 158.097 205.928 155.718C207.833 142.364 214.383 130.929 225.576 121.412C241.459 107.926 259.439 103.291 279.518 107.505C300.391 111.877 318.855 129.445 318.999 151.622C319.092 168.044 307.45 183.242 289.79 181.503C273.302 179.87 263.254 164.001 269.206 148.501C272.169 140.81 278.912 135.332 287.34 136.148C294.873 136.886 301.195 142.074 302.037 149.989C302.389 153.369 301.339 156.258 298.89 158.655C295.413 162.052 289.487 162.777 286.221 158.826C283.627 155.692 286.88 149.765 291.357 153.282C291.735 153.571 291.879 153.953 291.792 154.427C291.634 155.253 291.212 155.907 290.527 156.389C289.29 157.285 289.412 157.904 290.896 158.246C292.556 158.624 294.083 157.904 295.479 156.087C301.958 147.645 293.188 136.333 283.139 142.035C271.972 148.369 272.499 165.134 283.113 171.837C291.95 177.408 302.828 173.681 307.885 164.252C315.378 150.292 309.478 135.108 297.086 126.495C290.176 121.693 282.74 117.887 274.777 115.077C274.575 114.998 274.43 115.06 274.342 115.262L274.211 115.578C274.184 115.631 274.197 115.67 274.25 115.696C280.159 118.629 284.9 122.874 288.473 128.431C288.535 128.536 288.504 128.589 288.381 128.589L277.911 128.734C277.683 128.734 277.521 128.633 277.424 128.431C274.04 120.727 264.413 115.657 255.998 116.473Z" fill="black"/>
<path d="M258.658 145.406C258.662 145.24 258.631 145.074 258.568 144.921C258.504 144.767 258.409 144.628 258.289 144.512C258.169 144.397 258.026 144.308 257.87 144.251C257.713 144.194 257.546 144.171 257.38 144.182C248.57 144.695 241.617 154.401 249.36 161.447C249.729 161.78 249.663 161.965 249.163 162C246.555 162.175 244.58 161.6 243.236 160.275C238.877 155.968 241.301 150.345 245.159 146.592C248.785 143.08 253.228 140.898 258.487 140.046C258.944 139.974 259.411 140.004 259.856 140.134C260.3 140.264 260.71 140.491 261.056 140.798C261.402 141.105 261.676 141.485 261.858 141.911C262.04 142.337 262.125 142.797 262.108 143.26C261.994 146.324 260.444 148.369 257.459 149.397C257.367 149.429 257.269 149.443 257.171 149.437C257.073 149.43 256.978 149.404 256.89 149.36C256.803 149.316 256.725 149.254 256.662 149.179C256.6 149.104 256.553 149.016 256.524 148.923C256.48 148.756 256.485 148.589 256.538 148.422C256.581 148.308 256.691 148.198 256.867 148.093C258.034 147.382 258.631 146.486 258.658 145.406Z" fill="black"/>
<path d="M251.125 235.642C249.993 235.695 249.057 236.156 248.32 237.025C248.177 237.194 247.99 237.32 247.78 237.39C247.57 237.46 247.345 237.471 247.13 237.422C246.914 237.373 246.716 237.266 246.556 237.113C246.397 236.959 246.283 236.765 246.226 236.551C244.988 231.678 253.877 229.374 256.103 234.984C258.052 239.874 257.214 243.619 253.588 246.217C243.698 253.329 233.202 240.476 226.604 232.745C226.472 232.596 226.477 232.455 226.617 232.324L226.63 232.311C226.771 232.17 226.911 232.166 227.052 232.297C232.254 237.078 241.946 246.56 249.268 242.596C251.446 241.419 252.372 239.361 252.047 236.419C252.021 236.197 251.911 235.993 251.739 235.849C251.568 235.705 251.349 235.631 251.125 235.642Z" fill="black"/>
<path d="M248.201 259.518C254.417 262.534 255.471 264.918 251.467 270.949C250.168 272.907 249.47 272.709 249.374 270.356C249.251 267.284 248.351 264.461 246.674 261.889C246.419 261.502 246.274 261.076 246.239 260.611C246.204 260.005 246.094 259.584 245.91 259.347C242.978 255.414 239.979 251.52 236.915 247.666C236.845 247.588 236.807 247.487 236.807 247.382C236.807 247.277 236.847 247.177 236.918 247.099C236.988 247.022 237.085 246.974 237.189 246.964C237.294 246.954 237.398 246.984 237.482 247.047C240.59 249.022 242.67 251.103 246.924 252.749C249.202 253.631 250.427 255.027 249.4 257.451C249.227 257.856 248.955 258.206 248.61 258.465L248.136 258.833C248.082 258.876 248.039 258.931 248.012 258.994C247.985 259.057 247.974 259.126 247.981 259.194C247.988 259.262 248.011 259.328 248.05 259.384C248.088 259.441 248.14 259.487 248.201 259.518Z" fill="black"/>
<path d="M246.002 308.008C246.52 307.024 246.762 307.086 246.727 308.192C246.542 313.986 237.6 321.045 233.505 324.311C232.723 324.934 232.622 324.834 233.202 324.008C237.126 318.411 242.749 314.184 246.002 308.008Z" fill="black"/>
<path d="M242.815 336.493C236.902 341.892 233.794 349.676 233.465 357.287C233.395 358.929 233.127 358.96 232.662 357.379C230.37 349.636 231.424 338.231 238.68 332.977C239.558 332.336 240.142 331.818 240.432 331.423C241.248 330.299 241.178 329.426 240.221 328.802C237.947 327.327 238.153 326.423 240.84 326.089C241.911 325.958 243.21 326.138 244.738 326.629C244.938 326.696 245.123 326.803 245.281 326.943C245.44 327.083 245.568 327.254 245.66 327.446C247.438 331.186 245.844 333.741 242.815 336.493Z" fill="black"/>
<path d="M221.902 372.261C222.21 359.083 222.214 345.905 221.915 332.727C221.692 322.415 221.073 314.237 214.791 305.624C208.061 296.366 200.792 287.846 201.845 275.598C201.968 274.185 202.254 274.15 202.701 275.493C205.928 285.159 216.819 295.155 221.534 301.186C228.197 309.707 228.526 322.244 228.526 332.727C228.526 345.957 228.483 359.201 228.395 372.458C228.395 372.595 228.449 372.725 228.545 372.822C228.642 372.918 228.772 372.972 228.908 372.972L245.317 372.906C245.394 372.905 245.47 372.925 245.536 372.965C245.602 373.005 245.655 373.063 245.689 373.132C245.724 373.201 245.738 373.278 245.73 373.354C245.723 373.431 245.694 373.504 245.647 373.565C237.943 383.481 231.898 394.82 225.247 405.737C225.197 405.821 225.126 405.889 225.04 405.935C224.955 405.981 224.859 406.004 224.761 406C224.664 405.995 224.57 405.965 224.489 405.912C224.407 405.859 224.342 405.785 224.299 405.698C220.994 399.284 217.082 393.24 213.342 386.945C210.7 382.493 207.75 378.047 204.492 373.604C204.446 373.541 204.418 373.466 204.412 373.388C204.405 373.31 204.421 373.232 204.456 373.163C204.492 373.093 204.546 373.034 204.613 372.994C204.68 372.953 204.757 372.932 204.835 372.933H221.218C221.665 372.933 221.893 372.709 221.902 372.261Z" fill="black"/>
<path d="M232.675 259.36C241.169 276.401 240.892 294.852 230.989 311.274C230.366 312.31 229.957 312.231 229.764 311.037L228.856 305.255C228.777 304.773 228.812 304.294 228.961 303.82C233.667 289.018 232.446 274.711 225.3 260.901C221.599 253.75 215.844 246.428 212.855 240.502C208.088 231.033 204.045 218.536 204.927 207.789C204.936 207.623 205.002 207.504 205.125 207.434C205.37 207.276 205.515 207.342 205.559 207.631C208.562 227.122 223.324 240.607 232.675 259.36Z" fill="black"/>
<path d="M215.133 286.107C211.499 276.981 214.699 268.263 221.204 261.454C221.828 260.804 222.346 260.879 222.758 261.678L224.404 264.918C224.641 265.383 224.65 265.848 224.431 266.314C220.875 274.11 219.519 281.801 225.063 289.083C225.139 289.182 225.194 289.295 225.225 289.416C225.256 289.536 225.262 289.662 225.244 289.786C225.226 289.91 225.183 290.029 225.118 290.137C225.053 290.245 224.967 290.339 224.865 290.413C220.994 293.218 216.582 289.729 215.133 286.107Z" fill="black"/>
<path d="M215.239 318.662C213.307 314.852 210.441 311.41 206.639 308.337C205.954 307.784 206.029 307.358 206.863 307.06L207.89 306.704C208.83 306.37 209.637 306.568 210.313 307.297C215.976 313.32 219.172 319.588 219.901 326.102C220.19 328.692 219.839 328.78 218.847 326.366C218.048 324.399 216.845 321.831 215.239 318.662Z" fill="black"/>
<path d="M217.175 356.879C218.294 343.526 211.485 331.225 201.582 322.771C201.196 322.437 200.932 322.108 200.792 321.783C200.625 321.388 200.752 321.234 201.174 321.322C209.69 323.017 215.204 328.016 217.715 336.322C220.024 343.934 220.151 350.848 218.096 357.063C217.271 359.574 216.964 359.513 217.175 356.879Z" fill="black"/>
<path d="M202.859 199.295C202.614 204.888 202.526 209.084 202.596 211.885C202.912 223.86 205.915 235.08 211.604 245.546C211.823 245.949 211.731 246.037 211.327 245.809C209.194 244.58 207.671 242.938 206.757 240.884C200.919 227.802 199.251 213.904 201.753 199.19C201.788 198.97 201.916 198.874 202.135 198.9L202.543 198.939C202.763 198.957 202.868 199.075 202.859 199.295Z" fill="black"/>
<path d="M203.448 361.934C202.784 361.801 202.205 361.38 201.84 360.763C201.474 360.146 201.352 359.383 201.5 358.644C201.648 357.904 202.054 357.247 202.628 356.818C203.202 356.389 203.898 356.222 204.563 356.355C205.227 356.488 205.806 356.909 206.171 357.526C206.536 358.143 206.658 358.905 206.511 359.645C206.363 360.385 205.957 361.041 205.383 361.471C204.808 361.9 204.112 362.066 203.448 361.934Z" fill="black"/>
<path fill-rule="evenodd" clip-rule="evenodd" d="M219.506 156.429C216.319 160.577 214.212 165.173 211.946 170.297C206.323 183.018 207.271 198.36 211.946 211.095C215.387 220.458 221.084 228.771 226.735 237.016C231.425 243.858 236.083 250.654 239.391 257.965C249.918 281.23 247.236 302.354 231.345 321.335C230.599 322.222 230.278 322.086 230.383 320.927C230.454 320.19 230.761 319.316 231.305 318.306C242.302 298.144 246.213 279.299 235.928 257.806C232.263 250.14 227.698 243.347 223.22 236.681L223.218 236.678C216.304 226.388 209.595 216.403 206.718 203.984C206.051 201.086 205.45 198.663 204.914 196.714C202.82 189.142 202.781 182.834 205.243 175.367C205.296 175.182 205.235 175.051 205.059 174.972H205.046C204.861 174.901 204.73 174.954 204.651 175.13C200.055 185.336 198.606 196.622 198.079 207.961C197.588 218.584 199.199 228.878 202.912 238.843C205.533 245.901 210.524 250.287 216.108 254.791C216.283 254.937 216.403 255.139 216.45 255.362C216.496 255.585 216.466 255.818 216.364 256.022C216.262 256.226 216.094 256.389 215.887 256.486C215.681 256.583 215.448 256.608 215.226 256.555L208.601 254.883C208.022 254.742 207.68 254.967 207.574 255.555C207.153 258.013 206.499 260.401 205.612 262.719C205.094 264.062 204.646 264.088 204.269 262.798C204.161 262.41 204.122 261.974 204.08 261.517C204.02 260.855 203.956 260.149 203.676 259.479C196.288 242.082 192.548 227.069 193.667 208.843C194.194 200.336 195.801 191.723 198.487 183.005C203.953 165.332 211.815 148.765 225.827 136.135C231.981 130.578 238.25 127.207 244.633 126.021C251.533 124.744 260.33 126.588 264.031 133.225C264.098 133.347 264.137 133.484 264.143 133.623C264.149 133.762 264.123 133.901 264.067 134.027C264.035 134.099 263.994 134.166 263.945 134.226C263.907 134.272 263.865 134.315 263.819 134.352C263.712 134.439 263.586 134.5 263.452 134.529C252.745 136.873 237.271 144.853 238.746 158.009C238.999 160.258 240.317 162.575 241.642 164.905C244.104 169.233 246.591 173.605 242.328 177.671C237.587 182.202 232.372 175.367 231.292 170.744C229.124 161.517 230.146 152.711 234.361 144.327C239.286 134.489 247.411 132.185 257.894 133.884C257.938 133.892 257.964 133.879 257.973 133.844L258.039 133.515C258.06 133.412 258.052 133.326 258.012 133.259C257.971 133.189 257.896 133.138 257.789 133.106C247.947 130.244 240.313 133.058 234.887 141.548C222.192 161.42 228.54 183.321 239.26 202.087C239.628 202.737 239.457 202.956 238.746 202.746C227.223 199.414 222.995 188.681 221.902 177.118C221.894 177.03 221.845 176.991 221.758 177H221.705C221.652 177.009 221.626 177.03 221.626 177.065C221.244 189.181 226.354 202.074 238.022 205.722C241.015 206.661 240.945 207.056 237.811 206.907C236.134 206.828 234.084 206.644 231.661 206.354C222.521 205.274 218.294 194.502 217.188 186.64C216.4 181.017 216.98 176.308 217.566 171.557C217.861 169.165 218.157 166.761 218.281 164.225C218.29 164.067 218.215 163.98 218.057 163.962H218.044C217.895 163.953 217.807 164.023 217.78 164.173C217.525 165.772 217.146 167.384 216.77 168.981L216.77 168.983C216.236 171.253 215.709 173.492 215.555 175.617C214.225 193.356 219.216 216.613 242.973 212.201C249.426 210.999 253.228 207.324 254.378 201.178C255.168 196.964 253.14 193.527 249.321 191.92C248.794 191.701 248.338 191.806 247.951 192.236L243.592 197.162C243.531 197.231 243.456 197.286 243.371 197.322C243.286 197.359 243.194 197.375 243.102 197.371C243.01 197.368 242.92 197.343 242.838 197.3C242.757 197.257 242.686 197.197 242.631 197.123C240.331 194.129 240.664 191.358 243.632 188.813C250.335 183.084 259.132 189.537 260.989 196.833C264.887 212.149 250.835 225.384 237.074 227.306C227.565 228.637 218.939 220.182 215.515 212.175C210.511 200.441 208.404 187.522 211.775 175.011C212.776 171.271 215.445 165.138 219.782 156.614C220.318 155.569 220.226 155.507 219.506 156.429ZM238.812 219.286C232.543 220.458 227.486 217.43 223.351 213.097C223.29 213.026 223.259 212.956 223.259 212.886C223.268 212.746 223.342 212.728 223.483 212.833C227.565 216.113 233.702 218.852 239.036 218.509C239.053 218.509 239.07 218.515 239.082 218.525C239.089 218.53 239.094 218.537 239.097 218.544L239.101 218.555L239.101 218.562L239.115 218.904C239.123 219.124 239.022 219.251 238.812 219.286ZM237.776 175.717C238.058 175.999 238.44 176.157 238.838 176.157C239.236 176.157 239.618 175.999 239.899 175.717C240.181 175.436 240.339 175.054 240.339 174.656C240.339 174.258 240.181 173.876 239.899 173.594C239.618 173.313 239.236 173.154 238.838 173.154C238.44 173.154 238.058 173.313 237.776 173.594C237.495 173.876 237.337 174.258 237.337 174.656C237.337 175.054 237.495 175.436 237.776 175.717Z" fill="black"/>
</svg>
