<svg width="512" height="512" viewBox="0 0 512 512" fill="none" xmlns="http://www.w3.org/2000/svg">
<rect width="512" height="512" fill="white"/>
<path d="M287.368 262.252C297.608 257.095 304.74 249.671 308.764 239.982C309.38 238.487 309.687 238.549 309.687 240.166C309.675 251.474 298.232 261.55 287.38 262.301C287.377 262.302 287.373 262.302 287.37 262.302L287.365 262.3L287.361 262.298C287.358 262.297 287.356 262.294 287.354 262.292C287.352 262.289 287.35 262.286 287.349 262.283C287.348 262.279 287.348 262.276 287.349 262.273L287.349 262.269L287.352 262.263C287.354 262.26 287.356 262.258 287.359 262.256C287.361 262.254 287.365 262.253 287.368 262.252Z" fill="black"/>
<path d="M300.905 219.953C301.266 215.215 300.675 210.595 299.131 206.095C293.576 189.848 282.958 178.676 265.91 174.858C260.679 173.683 260.745 173.224 266.107 173.478C293.65 174.771 310.168 202.918 307.138 228.255C306.431 234.168 304.013 240.495 299.883 247.237C294.709 255.674 285.458 262.08 275.148 261.18C274.344 261.107 273.601 260.881 272.919 260.503C272.508 260.273 272.537 260.117 273.005 260.035C279.965 258.791 285.643 251.634 288.255 245.5C289.059 243.628 289.835 241.743 290.583 239.846C297.912 221.37 293.206 202.93 279.731 188.765C278.967 187.968 279.082 187.812 280.076 188.296C292.073 194.246 298.343 207.106 300.646 219.978C300.761 220.635 300.847 220.626 300.905 219.953Z" fill="black"/>
<path d="M280.889 264.174C279.328 263.936 277.752 263.825 276.159 263.841L276.269 263.841C276.294 263.841 276.319 263.845 276.343 263.853C284.375 267.807 295.756 267.684 302.765 261.513C304.054 260.388 304.785 259.542 304.957 258.975C305.639 256.758 305.253 256.557 303.8 258.372C302.683 259.768 301.09 260.922 299.02 261.833C293.206 264.379 287.162 265.159 280.889 264.174Z" fill="black"/>
<path d="M252.435 144.729C256.204 155.876 265.886 162.454 277.575 162.7C278.273 162.717 278.302 162.86 277.661 163.131C276.832 163.476 275.978 163.653 275.099 163.661C263.792 163.751 255.473 159.325 250.144 150.382C241.312 135.576 247.298 115.511 263.25 108.946C268.604 106.745 274.007 106.511 279.46 108.243C292.443 112.382 299.328 125.735 297.653 139.013C296.138 150.998 288.304 160.335 275.37 159.14C267.873 158.442 262.383 155.646 258.901 150.752C257.152 148.288 257.419 148.046 259.702 150.025C262.502 152.472 266.189 153.979 270.763 154.546C290.349 156.948 298.404 132.546 285.693 119.748C278.967 112.986 268.793 111.791 260.872 117.001C252.151 122.741 249.195 135.145 252.435 144.729Z" fill="black"/>
<path d="M287.885 345.31C287.86 345.31 287.84 345.315 287.823 345.323C287.741 345.347 287.708 345.319 287.725 345.236C291.248 320.687 283.611 299.599 268.349 280.605C262.625 273.486 256.955 266.329 251.338 259.136C249.203 256.401 246.075 251.207 241.952 243.554C234.496 229.692 231.462 215.104 232.849 199.789C232.932 198.828 232.751 198.779 232.307 199.641C231.453 201.292 230.907 203.127 230.669 205.147C227.898 228.354 239.378 249.811 253.26 267.499L254.656 269.278C271.855 291.184 289.237 313.323 285.927 343.413C284.629 355.271 280.289 365.803 272.907 375.009C271.149 377.193 271.387 377.435 273.621 375.735C284.264 367.63 290.964 346.641 292.652 334.003C295.296 314.089 291.051 295.473 279.915 278.154C276.414 272.716 272.25 267.732 268.054 262.709L268.052 262.707C265.548 259.71 263.032 256.698 260.638 253.568C260.375 253.223 260.359 252.874 260.589 252.521C270.948 236.274 272.205 218.278 265.208 199.924C264.831 198.933 264.47 197.947 264.112 196.966C263.018 193.975 261.944 191.037 260.478 188.161C259.244 185.731 257.973 183.327 256.706 180.929L256.705 180.926C251.965 171.957 247.263 163.058 244.601 153.117C240.499 137.855 243.418 119.181 257.854 110.054C259.323 109.128 261.058 108.388 262.813 107.639L262.827 107.633L262.835 107.63C263.663 107.277 264.495 106.921 265.307 106.543C266.054 106.19 266.013 106.01 265.183 106.002C264.264 105.985 263.348 106.1 262.437 106.346C248.657 110.025 239.476 117.937 234.894 130.083C225.41 155.211 239.242 179.169 251.289 199.395C253.219 202.638 255.53 208.001 258.224 215.482C261.911 225.73 262.827 236.253 260.971 247.052C260.7 248.629 260.137 249.893 259.283 250.846C258.971 251.207 258.667 251.199 258.372 250.821C246.756 236.052 238.269 220.889 235.695 202.129C235.588 201.357 235.399 201.337 235.128 202.067C234.463 203.866 234.221 206.128 234.401 208.855C234.993 217.863 236.573 225.68 239.144 232.308C244.054 244.954 250.899 256.438 259.677 266.76C279.349 289.868 295.855 312.816 287.984 345.212C287.978 345.228 287.971 345.243 287.961 345.256C287.954 345.266 287.946 345.275 287.936 345.283L287.92 345.295C287.909 345.301 287.898 345.306 287.885 345.31Z" fill="black"/>
<path d="M285.963 241.607C284.732 244.095 282.539 247.101 279.386 250.624C279.287 250.731 279.181 250.739 279.066 250.649L278.819 250.452C278.548 250.246 278.511 250 278.708 249.712C290.829 232.11 283.352 205.517 270.739 190.797C267.421 186.921 267.787 186.535 271.835 189.639C277.945 194.311 283.073 201.378 287.22 210.838C291.589 220.807 291.17 231.063 285.963 241.607Z" fill="black"/>
<path d="M267.043 139.974C257.99 127.755 277.711 117.531 279.805 128.469C280.741 133.335 276.627 136.316 272.069 135.798C271.667 135.757 271.581 135.901 271.81 136.229C272.09 136.624 272.402 136.878 272.747 136.993C283.241 140.565 286.9 125.846 278.253 121.005C271.823 117.395 263.2 122.31 261.365 128.876C258.039 140.75 269.236 152.119 280.987 145.283C281.652 144.897 282.153 144.347 282.49 143.632C282.72 143.148 282.597 143.033 282.12 143.287C276.142 146.572 271.117 145.468 267.043 139.974Z" fill="black"/>
<path d="M272.857 248.111C278.548 233.47 278.372 218.832 272.328 204.198C272.065 203.558 272.184 203.476 272.685 203.952C273.104 204.346 273.506 204.856 273.892 205.48C282.145 218.684 282.662 232.456 275.444 246.793C273.794 250.07 272.036 252.685 270.172 254.64C269.548 255.297 269.408 255.206 269.753 254.369C270.197 253.299 270.775 252.23 271.338 251.191L271.339 251.188C271.916 250.12 272.477 249.084 272.857 248.111Z" fill="black"/>
<path d="M280.458 336.861L280.458 336.947C280.458 336.956 280.456 336.966 280.454 336.977L280.451 336.989L280.445 337.008L280.387 337.14L280.384 336.836C280.384 336.819 280.388 336.811 280.396 336.811L280.421 336.811C280.445 336.811 280.458 336.828 280.458 336.861Z" fill="black"/>
<path d="M280.387 337.14C280.513 352.916 274.546 365.165 262.486 373.888C260.926 375.013 260.696 374.787 261.796 373.21C262.765 371.831 264.243 370.241 266.231 368.443C272.316 362.913 277.28 348.833 279.263 340.038C279.366 339.568 279.741 338.602 280.387 337.14Z" fill="black"/>
<path d="M269.69 132.178C269.181 131.272 269.108 130.171 269.486 129.116C269.864 128.062 270.662 127.141 271.704 126.556C272.221 126.266 272.781 126.068 273.355 125.972C273.928 125.876 274.503 125.884 275.046 125.996C275.589 126.109 276.09 126.323 276.52 126.626C276.95 126.93 277.301 127.317 277.553 127.766C278.061 128.671 278.135 129.773 277.757 130.827C277.379 131.882 276.581 132.803 275.538 133.388C275.022 133.678 274.461 133.876 273.888 133.972C273.314 134.068 272.74 134.06 272.197 133.947C271.654 133.835 271.153 133.621 270.722 133.317C270.292 133.014 269.941 132.627 269.69 132.178Z" fill="black"/>
<path d="M228.452 270.417L228.455 270.419C234.745 274.441 241.72 278.901 246.029 284.658C246.654 285.496 246.567 285.574 245.771 284.892C239.768 279.752 233.034 276.068 225.57 273.843C219.3 271.983 209.113 271.589 204.075 276.701C202.408 278.392 202.679 278.803 204.888 277.932C205.071 277.856 205.273 277.729 205.499 277.587C205.929 277.317 206.442 276.995 207.056 276.873C217.526 274.791 227.922 278.253 236.471 284.436C255.218 297.998 266.859 319.616 267.893 342.65C268.247 350.492 266.345 357.686 262.19 364.231C262.166 364.271 262.19 364.329 262.264 364.403L262.523 364.674C262.671 364.822 262.814 364.818 262.954 364.662C280.864 343.783 271.047 304.859 254.837 285.446C248.431 277.785 240.729 271.498 231.729 266.588C226.563 263.771 222.556 261.336 219.706 259.284C215.666 256.376 212.078 252.57 208.941 247.865C208.842 247.725 208.723 247.701 208.584 247.791L208.3 247.963C208.128 248.07 208.091 248.214 208.189 248.395C213.256 257.584 219.041 264.301 225.545 268.547C226.488 269.162 227.462 269.784 228.452 270.417Z" fill="black"/>
<path d="M258.483 382.325C261.373 382.022 263.718 380.749 265.516 378.507C265.812 378.129 266.05 378.162 266.231 378.605C266.575 379.468 266.555 380.383 266.169 381.352C262.884 389.704 259.242 397.862 255.243 405.828C255.214 405.881 255.171 405.925 255.119 405.955L255.101 405.965C255.088 405.972 255.074 405.978 255.06 405.982C255.024 405.995 254.987 406.001 254.949 406C254.89 405.999 254.833 405.981 254.784 405.948C254.765 405.935 254.747 405.92 254.732 405.902C254.709 405.877 254.69 405.848 254.677 405.815L244.256 381.833C244.185 381.668 244.165 381.485 244.198 381.309C244.23 381.132 244.314 380.969 244.439 380.84C244.564 380.711 244.725 380.622 244.9 380.584C245.076 380.546 245.259 380.56 245.426 380.626L251.942 383.138C252.029 383.175 252.124 383.188 252.218 383.178L252.252 383.174C252.265 383.172 252.278 383.169 252.292 383.165C252.316 383.159 252.341 383.152 252.364 383.143C252.405 383.127 252.444 383.107 252.481 383.082C252.517 383.058 252.549 383.03 252.579 382.999C252.615 382.961 252.646 382.918 252.671 382.872C252.716 382.787 252.741 382.692 252.743 382.597C252.981 372.118 252.899 361.632 252.496 351.137C252.127 341.8 244.071 332.315 234.057 337.526C230.164 339.546 229.401 342.933 230.534 346.924C230.731 347.622 230.912 347.992 231.076 348.033C232.759 348.468 232.78 348.965 231.137 349.523C230.719 349.671 230.205 349.659 229.598 349.486C229.162 349.355 228.735 349.109 228.317 348.747C221.517 342.736 226.26 332.389 234.192 330.899C244.49 328.965 253.679 335.949 256.302 345.939C258.373 353.782 258.165 362.141 257.957 370.464C257.862 374.271 257.768 378.07 257.891 381.808C257.908 382.186 258.105 382.358 258.483 382.325Z" fill="black"/>
<path d="M244.724 306.35C252.032 313.79 257.193 322.523 260.207 332.549C260.651 334.027 260.995 334.003 261.242 332.475C261.595 330.308 261.472 327.692 260.872 324.629C257.719 308.493 249.277 296.052 235.547 287.306C228.871 283.044 217.07 280.162 210.554 286.148C209.216 287.38 209.438 287.807 211.219 287.429C222.207 285.077 237.727 299.23 244.724 306.35Z" fill="black"/>
<path d="M258.396 233.539C257.846 226.617 256.241 219.932 253.58 213.486C251.215 207.754 248.739 202.08 246.153 196.463C246.095 196.348 246.128 196.258 246.251 196.192L246.251 196.18C246.366 196.122 246.461 196.147 246.534 196.254C254.024 207.721 259.567 219.263 259.456 233.182C259.456 233.318 259.403 233.449 259.309 233.548C259.215 233.647 259.087 233.705 258.951 233.712L258.63 233.736C258.491 233.745 258.413 233.679 258.396 233.539Z" fill="black"/>
<path d="M227.43 233.133C219.374 214.927 220.47 189.159 235.19 174.291C235.246 174.236 235.286 174.166 235.305 174.09C235.325 174.014 235.323 173.933 235.3 173.856C235.278 173.78 235.235 173.711 235.177 173.655C235.151 173.63 235.123 173.609 235.093 173.591C235.054 173.568 235.012 173.551 234.968 173.54C234.705 173.482 234.418 173.54 234.106 173.712C202.055 191.031 202.499 227.27 224.35 252.299C230.511 259.356 237.79 264.787 245.006 270.172L245.012 270.176L245.016 270.179C249.209 273.308 253.381 276.422 257.3 279.829C258.844 281.168 259.045 280.987 257.904 279.287C257.181 278.212 256.073 276.774 254.578 274.976C243.874 262.129 234.217 248.493 227.43 233.133Z" fill="black"/>
<path d="M227.331 307.778C222.687 305.82 217.477 305.795 214.2 310.033C213.946 310.369 213.745 310.341 213.597 309.946C213.523 309.749 213.523 309.556 213.597 309.367C218.253 297.924 231.95 300.794 239.403 307.051C248.624 314.812 254.323 324.157 256.5 335.087C256.935 337.263 256.656 337.361 255.662 335.382C249.848 323.779 239.784 313.026 227.331 307.778Z" fill="black"/>
<path d="M238.688 344.99C238.721 345.039 238.795 345.085 238.91 345.125C242.396 346.37 242.051 352.061 240.45 354.413C236.939 359.574 228.649 359.685 224.03 356.261C218.98 352.516 216.615 347.355 217.206 340.962C217.929 333.235 221.965 327.482 229.314 323.705C231.088 322.802 232.882 321.915 234.697 321.045C235.116 320.847 235.091 320.737 234.623 320.712C224.88 320.318 216.331 328.484 213.966 336.75C210.678 348.205 217.686 363.454 231.162 363.306C238.454 363.22 245.906 358.33 244.514 349.979C243.989 346.875 242.158 345.048 239.021 344.497C238.958 344.484 238.893 344.489 238.834 344.513C238.774 344.537 238.724 344.578 238.688 344.631C238.652 344.684 238.633 344.747 238.633 344.811C238.633 344.859 238.644 344.907 238.665 344.95C238.672 344.964 238.679 344.978 238.688 344.99Z" fill="black"/>
<path d="M230.558 194.935C226.062 210.012 228.378 221.271 232.443 236.065C233.617 240.318 233.223 240.474 231.26 236.532C225.36 224.695 221.948 206.465 230.14 194.726C230.698 193.921 230.838 193.991 230.558 194.935Z" fill="black"/>
</svg>
