<svg width="512" height="512" viewBox="0 0 512 512" fill="none" xmlns="http://www.w3.org/2000/svg">
<rect width="512" height="512" fill="white"/>
<path d="M241.648 149.814C243.224 150.923 243.505 150.661 242.491 149.027C239.96 144.934 236.885 141.305 233.267 138.14C233.199 138.081 233.118 138.04 233.031 138.021C232.943 138.002 232.852 138.005 232.766 138.03C232.68 138.055 232.602 138.101 232.539 138.164C232.475 138.227 232.428 138.305 232.403 138.391C231.775 140.616 230.291 142.097 227.949 142.834C220.76 145.12 211.504 139.715 205.486 136.269C204.246 135.554 204.337 135.295 205.759 135.492C211.354 136.287 217.153 136.148 223.157 135.076C226.461 134.485 228.529 135.404 231.111 137.122C231.192 137.173 231.261 137.162 231.319 137.089L231.494 136.848C231.567 136.754 231.56 136.662 231.473 136.575C227.957 133.183 223.937 130.575 219.415 128.751C219.225 128.676 219.015 128.667 218.818 128.727C218.622 128.787 218.45 128.911 218.331 129.08C214.119 135.054 200.584 130.13 195.955 127.592C194.314 126.694 194.431 126.239 196.306 126.224C199.398 126.209 202.688 125.91 206.175 125.327C213.079 124.178 217.401 124.998 222.796 128.817C222.837 128.844 222.885 128.858 222.934 128.859C222.983 128.86 223.031 128.848 223.073 128.823C223.115 128.798 223.149 128.761 223.172 128.718C223.194 128.674 223.204 128.625 223.201 128.576L223.124 127.81C223.11 127.67 223.065 127.535 222.991 127.414C222.917 127.293 222.817 127.189 222.697 127.11C218.747 124.44 216.406 122.646 214.775 117.941C213.386 113.947 212.281 108.826 208.342 106.715C208.272 106.675 208.216 106.615 208.182 106.541C208.149 106.468 208.139 106.387 208.155 106.309C208.171 106.231 208.212 106.161 208.271 106.11C208.331 106.059 208.405 106.029 208.484 106.025C213.572 105.675 219.021 109.012 222.172 112.623C226.002 117.033 226.691 122.351 225.039 127.854C224.899 128.312 224.913 128.803 225.077 129.253C225.24 129.703 225.546 130.088 225.947 130.349C228.934 132.318 231.385 134.769 234.405 136.991C239.734 140.908 244.843 148.14 247.776 154.027C251.015 160.541 253.104 166.059 254.045 170.582C256.278 181.316 259.09 192.028 260.786 202.696C261.595 207.795 262.427 212.887 263.28 217.971C265.764 232.863 267.657 247.766 268.609 262.614C269.776 280.989 270.17 295.173 269.791 305.166C269.101 323.122 267.942 334.961 266.815 349.885C265.425 368.355 263.007 386.223 258.816 405.24C258.692 405.787 258.349 406.039 257.788 405.995L255.271 405.776C254.673 405.725 254.454 405.412 254.614 404.835C256.409 398.416 257.868 391.902 258.991 385.293C262.865 362.578 264.703 339.611 266.125 316.633C267.942 287.506 266.322 258.073 262.339 229.164C262.332 229.103 262.311 229.043 262.279 228.989C262.247 228.936 262.204 228.889 262.153 228.852C262.102 228.815 262.044 228.789 261.982 228.775C261.92 228.761 261.855 228.759 261.792 228.771C239.526 232.994 231.462 214.492 225.422 197.619C224.459 194.939 223.069 192.717 221.373 190.671C221.316 190.599 221.287 190.508 221.292 190.416C221.297 190.324 221.334 190.236 221.398 190.17C221.462 190.103 221.548 190.062 221.64 190.053C221.732 190.045 221.824 190.07 221.898 190.124C224.721 192.323 227.391 194.588 230.685 196.47C239.427 201.46 248.892 208.025 254.417 216.363C255.738 218.369 257.638 221.666 260.118 226.254C260.293 226.582 260.611 226.878 260.873 227.129C261.814 228.012 262.219 227.815 262.088 226.538C261.398 219.908 259.713 213.288 259.002 207.029C258.586 203.36 258.127 199.702 257.623 196.055C257.609 195.96 257.591 195.868 257.569 195.781C255.621 187.37 253.673 178.967 251.726 170.571C251.562 169.849 251.791 169.072 251.562 168.383C249.578 162.518 247.043 156.825 243.957 151.303C243.68 150.799 243.337 150.755 242.929 151.171C234.153 160.154 221.45 153.655 212.904 148.348C211.941 147.75 212.011 147.579 213.112 147.834C220.126 149.421 228.135 146.193 235.455 146.882C237.994 147.123 239.755 148.491 241.648 149.814Z" fill="black"/>
<path d="M232.162 112.043C232.206 110.894 231.473 108.695 230.838 107.491C230.32 106.507 230.495 106.361 231.363 107.054C241.31 114.976 246.058 125.348 239.023 137.384C238.904 137.585 238.739 137.754 238.542 137.878C238.345 138.003 238.121 138.078 237.889 138.098C237.657 138.119 237.423 138.083 237.207 137.995C236.992 137.907 236.8 137.769 236.648 137.592C230.236 130.075 231.779 121.147 232.162 112.043Z" fill="black"/>
<path d="M247.951 128.675C250.15 123.27 253.028 119.67 252.251 113.63C251.959 111.325 252.244 111.252 253.104 113.411C258.258 126.311 260.599 140.043 248.476 149.672C247.513 150.431 247.192 150.227 247.513 149.059C247.601 148.731 247.52 148.166 247.272 147.363C245.288 140.915 245.514 134.685 247.951 128.675Z" fill="black"/>
<path d="M192.06 119.571C189.15 118.229 186.228 117.288 183.296 116.748C182.917 116.675 182.902 116.559 183.252 116.398C187.753 114.246 192.538 113.119 197.608 113.017C205.606 112.864 208.703 116.168 213.025 122.252C213.207 122.507 213.145 122.653 212.839 122.69C205.595 123.674 198.669 122.635 192.06 119.571Z" fill="black"/>
<path d="M268.828 125.567C270.48 142.111 272.165 159.367 254.998 168.952C254.962 168.972 254.922 168.983 254.881 168.984C254.84 168.985 254.799 168.975 254.762 168.957C254.726 168.939 254.694 168.912 254.67 168.878C254.646 168.845 254.631 168.806 254.625 168.766C254.027 164.681 253.9 160.545 254.243 156.358C254.888 148.337 262.143 139.682 266.486 133.008C267.187 131.928 267.737 129.423 268.139 125.491C268.147 125.411 268.184 125.337 268.243 125.284C268.302 125.231 268.378 125.203 268.456 125.206C268.573 125.206 268.668 125.243 268.74 125.316C268.784 125.367 268.813 125.451 268.828 125.567Z" fill="black"/>
<path d="M282.56 141.608C281.367 150.416 281.411 159.29 280.251 168.131C278.61 180.638 271.596 188.614 261.344 195.125C260.921 195.394 260.709 195.274 260.709 194.763C260.775 186.502 260.928 177.716 264.79 170.56C266.563 167.278 269.349 163.55 273.15 159.378C277.315 154.797 280.236 148.917 281.914 141.739C281.958 141.557 282.071 141.48 282.253 141.51L282.527 141.564C282.556 141.564 282.567 141.579 282.56 141.608Z" fill="black"/>
<path d="M250.927 170.276C236.9 176.852 229.974 165.352 219.623 159.345C218.704 158.805 218.773 158.604 219.831 158.743C226.166 159.553 233.191 159.246 239.526 160.669C244.209 161.73 248.247 166.183 251.026 169.86C251.165 170.042 251.132 170.181 250.927 170.276Z" fill="black"/>
<path d="M266.169 225.816C265.797 215.673 268.007 206.405 273.467 197.75C275.247 194.92 279.051 190.336 284.879 183.997C289.949 178.475 293.326 172.07 295.011 164.783C295.07 164.527 295.227 164.425 295.482 164.476L295.745 164.531C295.832 164.546 295.869 164.597 295.854 164.684C294.286 174.08 293.02 183.526 292.057 193.024C291.816 195.402 291.109 198.352 289.934 201.875C285.82 214.185 277.986 220.422 266.858 226.221C266.787 226.258 266.708 226.277 266.628 226.275C266.548 226.273 266.47 226.251 266.401 226.21C266.332 226.17 266.274 226.112 266.234 226.043C266.193 225.974 266.171 225.896 266.169 225.816Z" fill="black"/>
<path d="M256.431 196.109C256.521 196.178 256.589 196.273 256.625 196.381C256.661 196.489 256.664 196.605 256.633 196.714C256.603 196.824 256.54 196.922 256.453 196.995C256.366 197.069 256.26 197.115 256.146 197.127C237.677 199.403 232.764 188.352 224.634 175.528C223.967 174.466 222.807 173.602 222.052 172.803C220.921 171.614 221.118 171.326 222.643 171.939C236.736 177.596 248.006 180.101 255.315 194.851C255.556 195.343 256.07 195.825 256.431 196.109Z" fill="black"/>
<path d="M304.607 220.925C300.537 239.986 289.869 250.501 273.39 259.561C272.42 260.093 271.694 260.557 271.213 260.95C269.973 261.972 269.554 261.705 269.955 260.152C271.235 255.173 271.837 249.177 273.073 244.811C277.056 230.718 287.177 220.892 297.266 211.406C302.419 206.548 308.831 198.79 310.33 191.7C310.364 191.522 310.466 191.365 310.614 191.259C310.763 191.153 310.947 191.107 311.129 191.131L311.479 191.175C311.763 191.218 311.866 191.379 311.785 191.656C309.101 201.336 306.708 211.092 304.607 220.925Z" fill="black"/>
<path d="M226.188 233.333C224.558 227.534 222.336 221.866 218.386 216.964C218.328 216.891 218.317 216.815 218.354 216.734C218.419 216.618 218.499 216.552 218.594 216.538C218.653 216.53 218.715 216.556 218.78 216.614C224.448 221.407 231.637 226.739 240.347 232.611C250.851 239.687 258.368 249.385 262.898 261.705C263.149 262.395 263.598 262.985 264.057 263.489C265.21 264.743 264.933 265.422 263.226 265.524C262.409 265.575 261.421 265.623 260.261 265.666C241.43 266.454 230.663 249.254 226.188 233.333Z" fill="black"/>
<path d="M271.749 303.328C274.529 288.819 278.851 274.19 288.25 262.241C296.281 252.011 307.901 243.487 315.987 232.622C319.445 227.972 320.878 223.89 323.296 219.623C325.032 216.574 325.441 216.742 324.522 220.126C322.253 228.471 320.054 237.09 317.924 245.982C315.429 256.362 313.387 263.354 311.796 266.957C303.743 285.186 290.099 295.231 272.132 303.634C271.804 303.788 271.676 303.685 271.749 303.328Z" fill="black"/>
<path d="M260.84 358.125C235.959 355.903 218.364 338.758 212.74 315.003C209.6 301.709 209.654 288.349 208.878 274.814C208.447 267.388 207.663 259.995 206.525 252.635C206.394 251.766 206.35 251.128 206.394 250.72C206.547 249.254 206.839 249.228 207.269 250.643C213.856 272.395 225.039 289.476 238.661 307.584C248.575 320.758 252.973 334.654 257.689 350.17C258.535 352.956 259.812 355.072 261.519 356.516C262.985 357.756 262.759 358.292 260.84 358.125Z" fill="black"/>
<path d="M226.56 269.988C225.575 265.896 224.372 263.445 222.424 259.834C221.293 257.741 221.654 257.442 223.507 258.937C236.911 269.726 251.179 275.645 259.823 291.719C262.176 296.085 263.894 301.632 265.557 306.633C265.585 306.72 265.592 306.814 265.577 306.905C265.562 306.996 265.526 307.082 265.471 307.155C265.416 307.229 265.344 307.287 265.262 307.326C265.18 307.364 265.089 307.382 264.999 307.377C256.562 306.917 250.752 306.775 243.761 301.391C233.574 293.546 229.481 282.024 226.56 269.988Z" fill="black"/>
<path d="M268.051 357.862C267.095 358.001 266.909 357.687 267.493 356.921C271.585 351.516 272.811 343.474 274.879 337.116C279.08 324.183 286.021 312.946 295.701 303.405C308.306 290.975 321.217 280.613 327.235 263.204C327.425 262.636 327.757 262.537 328.231 262.909L328.45 263.084C328.508 263.13 328.552 263.191 328.575 263.259C328.599 263.327 328.601 263.4 328.581 263.467C325.437 276.59 322.91 289.76 320.999 302.978C318.963 317.082 313.438 330.945 303.568 341.34C293.994 351.428 281.542 355.914 268.051 357.862Z" fill="black"/>
</svg>
