<svg width="512" height="512" viewBox="0 0 512 512" fill="none" xmlns="http://www.w3.org/2000/svg">
<rect width="512" height="512" fill="white"/>
<path d="M139.479 243.002L139.48 243.002C139.637 243.042 139.781 243.084 139.892 243.131C139.944 243.153 140.019 243.188 140.088 243.242C140.134 243.278 140.321 243.432 140.306 243.704C140.292 243.984 140.08 244.116 140.025 244.147C139.947 244.192 139.866 244.216 139.811 244.23C139.694 244.259 139.546 244.279 139.386 244.293L139.381 244.293C135.736 244.577 132.113 244.375 128.512 243.687L139.479 243.002ZM139.479 243.002C129.254 240.459 119.078 237.755 108.95 234.889L108.948 234.888C108.226 234.688 107.673 234.288 107.27 233.674M139.479 243.002L107.27 233.674M107.27 233.674C122.574 237.219 138.028 239.816 153.632 241.462L153.633 241.462C155.432 241.65 157.19 241.606 158.906 241.329L158.907 241.329C159.094 241.298 159.257 241.265 159.382 241.226C159.441 241.207 159.521 241.179 159.595 241.133L159.596 241.133C159.634 241.11 159.868 240.966 159.868 240.666C159.868 240.358 159.624 240.216 159.586 240.194L159.586 240.194C159.509 240.149 159.428 240.123 159.369 240.106C159.244 240.07 159.08 240.042 158.894 240.017C146.232 238.263 133.715 234.784 121.087 231.275C116.758 230.072 112.417 228.865 108.052 227.724M107.27 233.674L336.56 232.425M108.052 227.724C108.052 227.724 108.052 227.724 108.052 227.724L107.925 228.207L108.051 227.723C108.051 227.723 108.052 227.724 108.052 227.724ZM108.052 227.724C107.623 227.611 107.241 227.365 106.963 227.023C106.708 226.71 106.551 226.332 106.509 225.935M106.509 225.935C106.513 225.934 106.517 225.933 106.521 225.931C106.701 225.88 107.035 225.856 107.566 225.892C113.085 226.287 118.516 227.172 123.956 228.144C125.036 228.337 126.118 228.533 127.2 228.73C131.56 229.522 135.938 230.317 140.36 230.902L140.36 230.902C147.093 231.788 155.164 232.479 164.572 232.975C213.407 235.586 262.515 235.266 311.412 234.946C315.523 234.92 319.634 234.893 323.742 234.868C323.742 234.868 323.742 234.868 323.742 234.868L323.739 234.368M106.509 225.935C106.505 225.897 106.502 225.859 106.5 225.821L106.5 225.821L106.5 225.818C106.5 225.819 106.5 225.82 106.5 225.821C106.501 225.862 106.483 225.917 106.448 225.954C106.441 225.96 106.437 225.963 106.437 225.963C106.438 225.963 106.456 225.951 106.509 225.935ZM323.739 234.368C327.642 234.346 331.242 234.26 334.541 234.109C334.962 234.088 335.359 233.901 335.644 233.589C335.928 233.277 336.078 232.866 336.061 232.444M323.739 234.368C319.631 234.393 315.522 234.42 311.411 234.446C262.511 234.766 213.418 235.086 164.599 232.476C155.199 231.98 147.141 231.29 140.426 230.406L323.739 234.368ZM336.061 232.444L336.56 232.425M336.061 232.444L336.56 232.423C336.56 232.424 336.56 232.424 336.56 232.425M336.061 232.444C336.046 232.03 336.025 231.582 336.003 231.108C335.698 224.475 335.157 212.688 346.037 218.619C351.616 221.656 357.719 225.59 363.04 229.02C365.708 230.74 368.18 232.333 370.292 233.624C380.705 239.984 391.086 246.398 401.434 252.866C403.008 253.847 404.253 254.806 405.169 255.744M336.56 232.425C336.545 232.004 336.524 231.551 336.502 231.073C336.442 229.773 336.374 228.293 336.385 226.781C336.398 224.711 336.559 222.64 337.07 220.972C337.582 219.301 338.411 218.139 339.691 217.7C340.99 217.254 342.926 217.492 345.798 219.058L345.798 219.058C351.362 222.087 357.43 225.999 362.742 229.423C365.417 231.147 367.9 232.748 370.031 234.051L370.291 233.625L370.031 234.051C380.443 240.41 390.822 246.823 401.169 253.29L401.17 253.29C402.722 254.257 403.931 255.192 404.811 256.092M405.169 255.744L404.81 256.091C404.81 256.092 404.81 256.092 404.811 256.092M405.169 255.744C405.479 256.065 405.713 256.451 405.852 256.874C405.991 257.298 406.033 257.747 405.974 258.187C405.915 258.628 405.756 259.049 405.51 259.419C405.264 259.788 404.938 260.096 404.555 260.32M405.169 255.744L404.812 256.093C404.811 256.093 404.811 256.093 404.811 256.092M404.811 256.092L404.555 260.32M169.025 271.336C169.001 271.579 168.913 271.842 168.691 272.031C168.467 272.222 168.192 272.266 167.946 272.251L167.944 272.25C157.121 271.507 146.292 270.747 135.458 269.971C131.471 269.687 122.287 268.024 107.951 264.997L169.025 271.336ZM169.025 271.336L169.072 270.927C169.09 270.799 169.075 270.618 168.94 270.46C168.813 270.311 168.647 270.268 168.55 270.254L168.549 270.254C161.558 269.271 154.573 268.165 147.592 266.938C147.625 266.876 147.657 266.814 147.687 266.754C149.494 266.751 150.816 266.635 151.583 266.371L169.025 271.336ZM129.386 250.632C129.386 250.632 129.386 250.632 129.386 250.632L129.414 250.133L129.386 250.632ZM129.386 250.632C137.836 251.106 143.384 251.547 146.053 251.952M129.386 250.632L146.053 251.952M146.053 251.952C146.286 251.992 146.522 251.937 146.713 251.805C146.906 251.672 147.039 251.471 147.09 251.246L147.102 251.191V251.164C147.133 250.97 147.12 250.741 146.984 250.534C146.836 250.308 146.606 250.205 146.402 250.162C143.177 249.424 139.977 248.743 136.798 248.066C126.634 245.901 116.683 243.781 106.777 240.012L106.774 240.011C106.735 239.997 106.703 239.968 106.685 239.931C106.666 239.895 106.663 239.852 106.674 239.813L106.674 239.813L106.677 239.803L146.053 251.952ZM404.555 260.32C384.699 272.027 364.837 283.334 344.97 294.243L404.555 260.32ZM147.799 257.781C135.639 256.692 123.189 253.992 110.447 249.68C108.722 249.087 107.429 248.327 106.567 247.4C106.483 247.316 106.428 247.206 106.413 247.087C106.397 246.969 106.42 246.849 106.478 246.744C106.536 246.64 106.627 246.558 106.736 246.51C106.846 246.462 106.968 246.451 107.084 246.479L147.799 257.781ZM106.001 225.846L106.001 225.846L106.001 225.846Z" fill="white" stroke="black"/>
<path d="M345.344 230.177L345.344 230.177L345.121 236.114L344.904 236.213V226.951L354.454 233.621L354.259 233.837L346.541 229.501L346.541 229.501L346.533 229.497C346.412 229.432 346.277 229.399 346.14 229.4C346.003 229.402 345.869 229.439 345.75 229.507C345.63 229.575 345.531 229.672 345.46 229.789C345.389 229.907 345.349 230.04 345.344 230.177Z" fill="black" stroke="black"/>
<path d="M201.371 240.609C201.168 240.618 200.966 240.628 200.765 240.639L200.764 240.639C200.761 240.639 200.758 240.64 200.755 240.64L200.706 241.029L201.371 240.609ZM201.371 240.609C234.453 244.733 265.505 243.718 297.86 242.624C296.04 242.511 294.197 242.443 292.332 242.419L292.331 242.419C273.036 242.138 253.741 241.89 234.446 241.675L234.445 241.675C230.928 241.632 226.882 241.394 222.627 241.144C221.173 241.058 219.694 240.971 218.204 240.89C212.556 240.582 206.731 240.358 201.371 240.609Z" fill="black" stroke="black"/>
<path d="M365.528 242.245L384.965 253.466C384.987 253.479 385.014 253.483 385.039 253.476C385.064 253.469 385.086 253.453 385.099 253.43L385.115 253.402C385.115 253.402 385.115 253.402 385.115 253.402C385.128 253.38 385.132 253.353 385.125 253.328C385.118 253.302 385.102 253.281 385.079 253.268L365.528 242.245ZM365.528 242.245C365.528 242.245 365.528 242.245 365.528 242.245C365.506 242.232 365.489 242.21 365.483 242.185C365.476 242.16 365.479 242.133 365.492 242.11L365.492 242.11L365.494 242.108L365.509 242.082C365.522 242.059 365.543 242.043 365.568 242.037C365.593 242.03 365.62 242.033 365.643 242.046C365.643 242.046 365.643 242.046 365.643 242.046L385.079 253.268L365.528 242.245Z" fill="black" stroke="black"/>
<path d="M173.668 247.646L173.681 247.338C219.519 249.161 265.388 248.87 311.245 248.45C313.29 248.434 315.487 248.534 317.739 248.639L317.885 248.646C318.535 248.676 319.19 248.707 319.845 248.735C315.797 248.94 311.745 249.078 307.691 249.148L307.69 249.148C306.389 249.171 305.088 249.195 303.787 249.219C260.445 250.007 216.917 250.799 173.681 247.678C173.676 247.677 173.671 247.677 173.667 247.676C173.667 247.671 173.667 247.665 173.668 247.659L173.668 247.659L173.668 247.646Z" fill="black" stroke="black"/>
<path d="M391.336 258.393L391.336 258.393C391.363 258.441 391.381 258.494 391.388 258.549C391.394 258.604 391.39 258.66 391.375 258.713C391.361 258.767 391.335 258.817 391.301 258.86C391.267 258.904 391.225 258.94 391.177 258.968L368.659 271.708L368.659 271.708C368.612 271.735 368.559 271.752 368.503 271.759C368.448 271.766 368.393 271.762 368.339 271.747C368.286 271.732 368.236 271.707 368.192 271.673C368.149 271.639 368.112 271.596 368.085 271.548L368.037 271.464L368.037 271.464C368.01 271.415 367.992 271.362 367.986 271.307C367.979 271.253 367.983 271.197 367.998 271.143C368.013 271.09 368.038 271.04 368.072 270.996C368.106 270.953 368.148 270.916 368.196 270.889L390.714 258.149L390.714 258.149C390.762 258.122 390.815 258.105 390.87 258.098C390.925 258.091 390.981 258.095 391.034 258.11C391.087 258.125 391.137 258.15 391.181 258.184C391.224 258.218 391.261 258.26 391.288 258.309C391.288 258.309 391.288 258.309 391.288 258.309L391.336 258.393Z" fill="black" stroke="black"/>
<path d="M277.706 269.969L261.987 269.914L261.987 269.912L277.706 269.967L277.706 269.969ZM277.706 269.936V269.936V269.936ZM261.987 269.945L261.987 269.945C261.987 269.945 261.987 269.945 261.987 269.945Z" fill="black" stroke="black"/>
<path d="M334.258 270.455L334.278 271.168L334.229 271.171C332.359 271.204 330.508 271.218 328.782 271.214C327.052 271.21 325.484 271.187 324.167 271.146C323.196 271.116 322.38 271.078 321.741 271.032C322.392 270.962 323.232 270.893 324.246 270.827C326.895 270.655 330.482 270.522 334.227 270.457L334.239 270.456L334.251 270.456L334.258 270.455Z" fill="black" stroke="black"/>
<path d="M193.333 271.326C193.836 271.285 194.406 271.246 195.037 271.211C196.428 271.133 198.082 271.071 199.905 271.031C201.727 270.99 203.681 270.971 205.654 270.975C209.64 270.981 213.459 271.08 216.269 271.248C216.904 271.286 217.473 271.326 217.974 271.369C217.471 271.41 216.901 271.449 216.269 271.484C214.878 271.563 213.225 271.624 211.402 271.664C209.58 271.705 207.626 271.724 205.653 271.721C201.667 271.714 197.848 271.615 195.038 271.447C194.403 271.409 193.834 271.369 193.333 271.326Z" fill="black" stroke="black"/>
<path d="M345.409 278.049L352.452 274.624C352.421 274.647 352.388 274.669 352.353 274.691L352.353 274.691L352.346 274.695C350.138 276.126 347.823 277.401 345.402 278.52L345.353 278.158C345.351 278.136 345.355 278.114 345.366 278.095C345.376 278.076 345.391 278.06 345.409 278.049Z" fill="black" stroke="black"/>
<path d="M358.884 277.69L358.883 277.69L346.303 284.128C346.303 284.128 346.303 284.128 346.303 284.128C346.259 284.15 346.212 284.164 346.163 284.168C346.114 284.172 346.065 284.166 346.018 284.151C345.972 284.136 345.928 284.112 345.891 284.08C345.854 284.048 345.823 284.009 345.801 283.966L345.8 283.965L345.771 283.908C345.771 283.908 345.771 283.908 345.771 283.908C345.749 283.864 345.735 283.817 345.731 283.768C345.728 283.72 345.733 283.67 345.748 283.624C345.763 283.577 345.788 283.534 345.819 283.497C345.851 283.459 345.89 283.428 345.933 283.406L345.934 283.406L358.514 276.968C358.514 276.968 358.514 276.968 358.514 276.968C358.558 276.946 358.605 276.932 358.654 276.928C358.703 276.925 358.752 276.93 358.799 276.945C358.845 276.96 358.889 276.984 358.926 277.016C358.963 277.048 358.994 277.087 359.016 277.131L359.017 277.131L359.046 277.188C359.046 277.188 359.046 277.188 359.046 277.188C359.068 277.232 359.082 277.279 359.086 277.328C359.09 277.377 359.084 277.426 359.069 277.473C359.054 277.519 359.03 277.563 358.998 277.6C358.966 277.637 358.927 277.668 358.884 277.69Z" fill="black" stroke="black"/>
</svg>
