<svg width="512" height="512" viewBox="0 0 512 512" fill="none" xmlns="http://www.w3.org/2000/svg">
<rect width="512" height="512" fill="white"/>
<path d="M271.89 223.244L271.891 223.238C271.918 222.519 272.118 221.894 272.568 221.452C273.02 221.009 273.645 220.827 274.357 220.827H274.358L323.962 220.936C323.962 220.936 323.963 220.936 323.963 220.936C325.73 220.936 326.98 220.494 327.801 219.694C328.623 218.893 329.097 217.655 329.144 215.888C329.189 213.742 328.289 211.59 326.357 209.422C326.357 209.422 326.357 209.422 326.357 209.422L326.73 209.089C324.326 206.394 322.748 204.403 321.995 203.116L271.89 223.244ZM271.89 223.244C271.526 237.857 270.968 252.445 270.216 267.009C267.863 312.871 258.502 357.52 242.13 400.959L242.13 400.959C241.493 402.655 240.224 404.039 238.588 404.818C236.953 405.598 235.079 405.714 233.36 405.141L233.358 405.14C226.271 402.802 218.554 400.806 210.209 399.152L271.89 223.244ZM182.502 216.706C182.472 215.645 182.736 214.595 183.265 213.674L205.559 388.606C226.148 336.161 236.662 281.724 237.099 225.296L237.599 225.302C237.599 225.302 237.599 225.302 237.599 225.301C237.611 224.196 237.2 223.128 236.45 222.316C235.699 221.504 234.666 221.011 233.563 220.937L233.56 220.937C218.622 220.012 203.72 220.438 188.855 222.214L188.855 222.214C187.806 222.34 186.744 222.171 185.787 221.724C184.831 221.278 184.017 220.573 183.436 219.687C182.856 218.801 182.533 217.769 182.502 216.706Z" fill="white" stroke="black"/>
<path d="M203.032 209.125L203.031 209.126C202.872 209.455 202.682 209.651 202.479 209.76C202.277 209.869 202.013 209.918 201.656 209.869L201.656 209.868L201.643 209.867L200.337 209.722C199.843 209.655 199.706 209.512 199.671 209.446C199.635 209.379 199.593 209.181 199.814 208.727C201.948 204.437 204.713 200.812 208.108 197.848C208.365 197.623 208.583 197.446 208.764 197.313C208.683 197.524 208.571 197.782 208.422 198.09C208.421 198.091 208.421 198.091 208.421 198.091L203.032 209.125ZM209.264 197.016C209.264 197.016 209.263 197.016 209.261 197.016L209.264 197.016ZM208.918 196.755C208.918 196.753 208.918 196.752 208.918 196.752L208.918 196.755Z" fill="black" stroke="black"/>
<path d="M209.658 209.252L209.657 209.251C209.056 208.984 208.852 208.714 208.802 208.508C208.752 208.3 208.813 207.959 209.226 207.434C211.875 204.135 214.812 201.175 218.037 198.551C218.597 198.098 219.049 197.761 219.395 197.534C219.2 197.899 218.907 198.379 218.508 198.978L218.507 198.979L213.085 207.131C212.922 207.36 212.801 207.657 212.872 207.984C212.943 208.313 213.179 208.534 213.422 208.68C213.652 208.818 213.767 208.995 213.8 209.242C213.804 209.359 213.779 209.408 213.767 209.427C213.754 209.445 213.719 209.485 213.61 209.52C212.214 209.901 210.904 209.808 209.658 209.252Z" fill="black" stroke="black"/>
<path d="M232.057 208.069L232.057 208.069L230.2 205.92C230.2 205.92 230.2 205.92 230.2 205.92L230.2 205.92L230.578 205.593L232.057 208.069ZM232.057 208.069L232.066 208.079M232.057 208.069L232.066 208.079M232.066 208.079C232.233 208.261 232.32 208.502 232.309 208.749C232.298 208.995 232.189 209.227 232.007 209.394C231.825 209.56 231.584 209.648 231.337 209.637C231.091 209.626 230.858 209.517 230.692 209.335L230.687 209.329M232.066 208.079L230.687 209.329M230.687 209.329L230.682 209.324M230.687 209.329L230.682 209.324M230.682 209.324C229.967 208.586 229.405 207.77 228.992 206.877L228.992 206.877M230.682 209.324L228.992 206.877M228.992 206.877L228.987 206.866M228.992 206.877L228.987 206.866M228.987 206.866C228.853 206.592 228.656 206.352 228.412 206.168C228.169 205.983 227.886 205.858 227.585 205.805C227.285 205.752 226.977 205.771 226.686 205.864C226.396 205.956 226.134 206.119 225.922 206.337L225.922 206.337M228.987 206.866L225.922 206.337M225.922 206.337L225.918 206.341M225.922 206.337L225.918 206.341M225.918 206.341C225.37 206.916 225.01 207.594 224.844 208.365L224.844 208.365M225.918 206.341L224.844 208.365M224.844 208.365L224.843 208.373M224.844 208.365L224.843 208.373M224.843 208.373C224.799 208.593 224.71 208.801 224.579 208.983C224.449 209.165 224.282 209.317 224.088 209.43C223.895 209.543 223.679 209.612 223.457 209.635C223.234 209.658 223.01 209.633 222.798 209.562C222.798 209.562 222.797 209.562 222.797 209.562L221.416 209.09L221.416 209.089M224.843 208.373L221.416 209.089M221.416 209.089L221.404 209.086M221.416 209.089L221.404 209.086M221.404 209.086C221.188 209.018 220.996 208.894 220.845 208.726C220.695 208.558 220.594 208.352 220.551 208.131C220.508 207.909 220.526 207.681 220.603 207.469C220.68 207.257 220.813 207.07 220.987 206.927L220.988 206.927M221.404 209.086L220.988 206.927M220.988 206.927L226.559 202.375M220.988 206.927L226.559 202.375M226.559 202.375C226.559 202.375 226.56 202.375 226.56 202.375M226.559 202.375L226.56 202.375M226.56 202.375C227.03 201.992 227.353 201.925 227.566 201.968C227.781 202.011 228.058 202.199 228.354 202.737C228.667 203.314 229.003 203.951 229.365 204.649L226.56 202.375Z" fill="black" stroke="black"/>
<path d="M293.409 205.419L293.328 205.635L293.441 205.837C293.759 206.408 293.84 206.856 293.777 207.207C293.715 207.547 293.502 207.883 293.047 208.205C292.278 208.724 291.625 208.92 291.071 208.882L291.067 208.882C290.312 208.836 290 208.634 289.884 208.449C289.768 208.266 289.72 207.9 290.006 207.203L291.826 202.763C291.985 202.388 292.136 202.139 292.269 201.988C292.402 201.838 292.481 201.823 292.504 201.821C292.527 201.82 292.605 201.822 292.756 201.949C292.909 202.077 293.093 202.3 293.304 202.647L293.304 202.647L293.307 202.652C293.763 203.387 293.831 204.286 293.409 205.419Z" fill="black" stroke="black"/>
<path d="M301.758 207.988L301.76 207.999L301.762 208.01C301.796 208.21 301.759 208.289 301.74 208.317C301.721 208.345 301.659 208.411 301.456 208.455L301.456 208.455L301.446 208.457C301.004 208.563 300.634 208.556 300.322 208.465C299.928 208.343 299.669 208.161 299.503 207.941C299.337 207.721 299.232 207.419 299.221 207.001L299.221 207.001L299.221 206.995C299.158 205.304 299.787 204.031 301.132 203.115L301.758 207.988Z" fill="black" stroke="black"/>
<path d="M311.434 205.634L311.434 205.634L311.439 205.636C312.108 205.83 312.554 206.144 312.833 206.549C313.112 206.957 313.26 207.512 313.229 208.259C313.197 208.696 313.069 208.978 312.893 209.162C312.716 209.347 312.436 209.488 311.995 209.539L311.995 209.539L311.99 209.54C310.326 209.748 308.711 209.54 307.138 208.916L307.138 208.916L307.13 208.913C306.746 208.767 306.639 208.614 306.609 208.524C306.578 208.428 306.576 208.226 306.798 207.855C307.458 206.78 308.172 206.097 308.923 205.745C309.664 205.398 310.491 205.349 311.434 205.634Z" fill="black" stroke="black"/>
<path d="M278.53 207.559L278.53 207.559L278.535 207.564C278.906 207.982 278.884 208.162 278.876 208.187C278.867 208.218 278.777 208.383 278.231 208.534L275.505 209.261C275.101 209.363 274.662 209.312 274.276 209.113C273.889 208.914 273.594 208.585 273.445 208.199C273.296 207.813 273.304 207.399 273.459 207.039C273.613 206.682 273.904 206.396 274.281 206.242C275.089 205.948 275.825 205.92 276.505 206.126C277.194 206.335 277.871 206.797 278.53 207.559Z" fill="black" stroke="black"/>
<path d="M239.35 315.983L239.35 315.983L239.348 315.986C238.831 316.714 238.408 317.272 238.075 317.667C238.219 317.174 238.447 316.517 238.765 315.69C240.242 311.854 242.349 308.981 245.068 307.033C245.125 306.995 245.193 306.977 245.261 306.983C245.331 306.989 245.396 307.018 245.446 307.067C245.496 307.115 245.528 307.179 245.536 307.248C245.543 307.315 245.529 307.381 245.495 307.438L239.35 315.983Z" fill="black" stroke="black"/>
<path d="M252.138 311.752L235.123 334.344L234.721 334.027C234.711 334.017 234.667 333.966 234.648 333.797C234.629 333.615 234.647 333.35 234.724 332.994C234.877 332.283 235.242 331.311 235.828 330.113C236.996 327.722 238.904 324.714 241.139 321.748L241.139 321.748L241.147 321.737L241.689 320.978C242.802 319.502 243.959 318.084 245.095 316.805C246.233 315.525 247.324 314.413 248.305 313.532C249.29 312.647 250.127 312.029 250.77 311.692C251.092 311.522 251.337 311.44 251.509 311.414C251.666 311.392 251.717 311.421 251.725 311.427L252.138 311.752Z" fill="black" stroke="black"/>
<path d="M229.274 352.309L229.274 352.309L229.271 352.312C229.203 352.382 229.143 352.439 229.09 352.484C229.082 352.418 229.077 352.339 229.074 352.247C229.041 350.615 229.735 348.665 230.932 346.546C232.122 344.438 233.777 342.219 235.59 340.066C238.718 336.353 242.279 332.878 244.667 330.55C245.048 330.178 245.4 329.835 245.715 329.525C246.64 328.618 247.351 327.978 247.856 327.592C247.867 327.583 247.879 327.574 247.89 327.566C247.886 327.575 247.882 327.584 247.878 327.593C247.622 328.169 247.167 329.006 246.502 330.112C241.642 338.164 235.9 345.563 229.274 352.309Z" fill="black" stroke="black"/>
<path d="M224.067 367.337C224.067 367.337 224.067 367.336 224.066 367.335C224.067 367.336 224.067 367.337 224.067 367.337ZM224.065 367.248C224.067 367.227 224.07 367.202 224.075 367.172C224.108 366.981 224.205 366.699 224.389 366.318C224.755 365.562 225.412 364.528 226.353 363.252C228.231 360.708 231.035 357.485 234.148 354.294L233.79 353.945L234.148 354.294C237.261 351.104 240.415 348.223 242.913 346.283C244.165 345.311 245.183 344.629 245.93 344.245C246.306 344.051 246.586 343.947 246.776 343.91C246.805 343.904 246.83 343.901 246.851 343.898C246.849 343.919 246.846 343.944 246.841 343.974C246.809 344.165 246.712 344.447 246.527 344.828C246.161 345.584 245.504 346.618 244.563 347.893C242.685 350.438 239.882 353.662 236.768 356.852L237.126 357.201L236.768 356.852C233.655 360.042 230.501 362.923 228.003 364.863C226.752 365.835 225.733 366.517 224.987 366.901C224.611 367.095 224.331 367.199 224.141 367.236C224.111 367.242 224.086 367.245 224.065 367.248ZM246.85 343.812C246.85 343.81 246.85 343.809 246.85 343.809C246.85 343.809 246.85 343.81 246.85 343.812ZM246.94 343.897C246.94 343.897 246.939 343.897 246.938 343.897C246.94 343.897 246.94 343.897 246.94 343.897ZM223.979 367.249C223.977 367.249 223.976 367.249 223.976 367.249C223.976 367.249 223.977 367.249 223.979 367.249Z" fill="black" stroke="black"/>
<path d="M244.102 358.302C244.102 358.302 244.102 358.303 244.103 358.304L244.102 358.302ZM244.103 358.375C244.101 358.404 244.095 358.441 244.085 358.49C244.04 358.697 243.92 359 243.7 359.405C243.263 360.211 242.498 361.3 241.434 362.616C240.374 363.928 239.05 365.425 237.538 367.021C236.025 368.616 234.356 370.277 232.625 371.908C230.895 373.539 229.138 375.107 227.455 376.522C225.773 377.937 224.2 379.17 222.827 380.151C221.45 381.134 220.317 381.833 219.488 382.222C219.07 382.417 218.761 382.519 218.551 382.551C218.502 382.559 218.464 382.562 218.436 382.563C218.439 382.535 218.444 382.497 218.455 382.448C218.5 382.241 218.619 381.939 218.839 381.533C219.277 380.728 220.041 379.638 221.105 378.322C222.165 377.01 223.489 375.514 225.002 373.918C226.514 372.322 228.183 370.661 229.914 369.031C231.645 367.4 233.402 365.832 235.084 364.416C236.767 363.001 238.34 361.768 239.712 360.788C241.089 359.804 242.222 359.105 243.052 358.717C243.47 358.521 243.779 358.42 243.988 358.387C244.037 358.379 244.075 358.376 244.103 358.375ZM218.437 382.635C218.437 382.636 218.437 382.636 218.437 382.636L218.437 382.635ZM244.176 358.381C244.176 358.381 244.176 358.381 244.175 358.38L244.176 358.381ZM218.363 382.557C218.363 382.557 218.364 382.558 218.365 382.558L218.363 382.557Z" fill="black" stroke="black"/>
<mask id="path-14-inside-1_61_7985" fill="white">
<path d="M217.285 386.676C218.693 387.283 219.968 387.563 221.109 387.514C222.748 387.405 235.604 375.787 239.101 373.856C239.266 373.764 239.458 373.727 239.648 373.75C239.837 373.772 240.014 373.854 240.15 373.982C240.287 374.11 240.375 374.278 240.403 374.459C240.43 374.64 240.395 374.825 240.302 374.985L232.144 390.938C231.513 392.2 230.505 392.71 229.121 392.467L218.086 390.683C216.945 390.488 216.301 389.821 216.156 388.679C216.058 388.024 216.204 387.417 216.593 386.858C216.671 386.755 216.782 386.682 216.907 386.649C217.033 386.616 217.165 386.625 217.285 386.676Z"/>
</mask>
<path d="M217.285 386.676C218.693 387.283 219.968 387.563 221.109 387.514C222.748 387.405 235.604 375.787 239.101 373.856C239.266 373.764 239.458 373.727 239.648 373.75C239.837 373.772 240.014 373.854 240.15 373.982C240.287 374.11 240.375 374.278 240.403 374.459C240.43 374.64 240.395 374.825 240.302 374.985L232.144 390.938C231.513 392.2 230.505 392.71 229.121 392.467L218.086 390.683C216.945 390.488 216.301 389.821 216.156 388.679C216.058 388.024 216.204 387.417 216.593 386.858C216.671 386.755 216.782 386.682 216.907 386.649C217.033 386.616 217.165 386.625 217.285 386.676Z" fill="black"/>
<path d="M217.285 386.676L217.68 385.758L217.678 385.757L217.285 386.676ZM221.109 387.514L221.151 388.513L221.164 388.513L221.175 388.512L221.109 387.514ZM239.101 373.856L239.584 374.732L239.586 374.731L239.101 373.856ZM240.302 374.985L239.436 374.485L239.424 374.507L239.412 374.53L240.302 374.985ZM232.144 390.938L231.254 390.482L231.25 390.49L232.144 390.938ZM229.121 392.467L229.294 391.482L229.281 391.48L229.121 392.467ZM218.086 390.683L217.918 391.668L217.926 391.67L218.086 390.683ZM216.156 388.679L217.148 388.553L217.146 388.543L217.145 388.533L216.156 388.679ZM216.593 386.858L215.798 386.251L215.784 386.269L215.772 386.287L216.593 386.858ZM216.889 387.595C218.39 388.242 219.818 388.57 221.151 388.513L221.066 386.515C220.118 386.555 218.996 386.325 217.68 385.758L216.889 387.595ZM221.175 388.512C221.489 388.491 221.787 388.359 221.986 388.26C222.219 388.145 222.478 387.992 222.751 387.816C223.299 387.462 223.974 386.974 224.726 386.401C226.233 385.254 228.116 383.719 230.042 382.141C231.974 380.558 233.951 378.929 235.665 377.574C237.402 376.2 238.795 375.167 239.584 374.732L238.617 372.981C237.658 373.511 236.133 374.654 234.424 376.005C232.693 377.374 230.698 379.018 228.774 380.594C226.844 382.176 224.988 383.688 223.514 384.81C222.776 385.372 222.15 385.824 221.668 386.134C221.426 386.29 221.237 386.399 221.099 386.468C220.928 386.552 220.934 386.523 221.042 386.516L221.175 388.512ZM239.586 374.731C239.566 374.742 239.546 374.745 239.529 374.743L239.767 372.757C239.37 372.709 238.966 372.787 238.615 372.982L239.586 374.731ZM239.529 374.743C239.511 374.74 239.488 374.732 239.466 374.711L240.835 373.253C240.539 372.976 240.163 372.804 239.767 372.757L239.529 374.743ZM239.466 374.711C239.442 374.689 239.421 374.654 239.414 374.609L241.391 374.309C241.33 373.901 241.131 373.531 240.835 373.253L239.466 374.711ZM239.414 374.609C239.407 374.563 239.417 374.519 239.436 374.485L241.169 375.485C241.373 375.13 241.453 374.717 241.391 374.309L239.414 374.609ZM239.412 374.53L231.254 390.482L233.035 391.393L241.193 375.441L239.412 374.53ZM231.25 390.49C231.006 390.978 230.732 391.239 230.464 391.375C230.195 391.51 229.826 391.576 229.294 391.482L228.949 393.452C229.8 393.602 230.627 393.533 231.367 393.159C232.105 392.785 232.651 392.159 233.039 391.385L231.25 390.49ZM229.281 391.48L218.246 389.695L217.926 391.67L228.962 393.454L229.281 391.48ZM218.254 389.697C217.841 389.626 217.608 389.488 217.468 389.342C217.328 389.197 217.2 388.962 217.148 388.553L215.164 388.806C215.257 389.538 215.524 390.207 216.027 390.73C216.531 391.252 217.19 391.544 217.918 391.668L218.254 389.697ZM217.145 388.533C217.086 388.136 217.166 387.785 217.414 387.429L215.772 386.287C215.242 387.049 215.031 387.911 215.166 388.826L217.145 388.533ZM217.387 387.465C217.331 387.539 217.251 387.592 217.162 387.616L216.653 385.682C216.313 385.771 216.012 385.971 215.798 386.251L217.387 387.465ZM217.162 387.616C217.072 387.639 216.977 387.632 216.892 387.596L217.678 385.757C217.354 385.618 216.993 385.592 216.653 385.682L217.162 387.616Z" fill="black" mask="url(#path-14-inside-1_61_7985)"/>
</svg>
