<svg width="512" height="512" viewBox="0 0 512 512" fill="none" xmlns="http://www.w3.org/2000/svg">
<rect width="512" height="512" fill="white"/>
<path d="M279.944 287.179L279.944 287.179C280.61 287.167 281.276 287.295 281.613 287.815C281.951 288.336 281.791 288.993 281.504 289.59C281.504 289.591 281.503 289.593 281.503 289.594L258.426 339.41C257.292 341.86 256.649 343.845 256.468 345.379C256.287 346.916 256.576 347.907 257.182 348.502C257.796 349.104 258.86 349.424 260.519 349.317C262.167 349.21 264.309 348.687 266.96 347.723L266.96 347.722C272.797 345.601 279.041 341.444 285.268 336.858C287.346 335.327 289.425 333.746 291.483 332.181C295.563 329.079 299.563 326.037 303.324 323.563L303.324 323.563C336.959 301.45 370.116 279.271 402.796 257.026C403.643 256.448 404.333 255.669 404.804 254.758C405.276 253.847 405.515 252.833 405.499 251.805C405.484 250.777 405.215 249.767 404.716 248.865C404.217 247.962 403.504 247.196 402.639 246.634C395.259 241.897 387.169 237.25 379.285 232.779C378.178 232.151 377.075 231.527 375.978 230.906C369.27 227.109 362.808 223.452 357.19 219.998C328.169 202.168 299.292 184.127 270.559 165.875L270.559 165.874C266.258 163.13 262.287 162.788 258.571 164.73L279.944 287.179ZM279.944 287.179L115.222 290.143L115.221 290.143C114.11 290.164 113.005 289.964 111.971 289.556C110.936 289.148 109.993 288.539 109.195 287.765C108.397 286.99 107.761 286.065 107.322 285.044C106.883 284.022 106.651 282.924 106.639 281.812L106.639 281.811C106.417 263.077 106.461 245.064 106.772 227.774M279.944 287.179L106.772 227.774M106.772 227.774C106.829 224.761 107.369 222.559 108.258 220.942C109.141 219.335 110.386 218.275 111.918 217.57C113.461 216.86 115.304 216.507 117.375 216.339C119.398 216.176 121.603 216.191 123.922 216.208L124.086 216.209H124.086C174.687 216.542 225.354 216.697 276.088 216.675L106.772 227.774ZM277.735 214.018L256.387 171.456L256.387 171.456C255.795 170.279 255.692 168.915 256.1 167.657C256.508 166.399 257.395 165.348 258.57 164.73L277.735 214.018Z" fill="white" stroke="black"/>
<mask id="path-2-inside-1_61_7992" fill="white">
<path d="M134.281 272.592C137.368 273.791 140.265 273.403 142.974 271.427C143.188 271.27 143.432 271.158 143.691 271.098C143.95 271.039 144.218 271.032 144.479 271.078C144.741 271.125 144.99 271.224 145.212 271.37C145.434 271.516 145.624 271.705 145.771 271.926C147.014 273.747 148.713 273.969 150.867 272.592C151.799 271.993 152.743 271.971 153.698 272.526C156.828 274.347 159.504 274.424 161.724 272.759C166.475 269.229 171.304 265.821 176.211 262.535C176.5 262.357 176.744 262.39 176.944 262.635V262.668C176.986 262.72 177.011 262.785 177.018 262.858C177.024 262.932 177.011 263.014 176.98 263.097C176.949 263.181 176.9 263.266 176.837 263.347C176.773 263.428 176.696 263.502 176.611 263.567L167.452 270.761C165.01 272.648 165.332 273.636 168.418 273.725C170.705 273.769 172.736 273.137 174.513 271.827C175.445 271.138 175.956 271.371 176.045 272.526C176.067 272.859 176.133 273.27 176.244 273.758C176.339 274.115 176.519 274.444 176.768 274.717C177.016 274.989 177.327 275.197 177.672 275.322C178.016 275.447 178.385 275.485 178.746 275.433C179.107 275.381 179.449 275.24 179.741 275.024L192.83 265.166C192.911 265.104 193.003 265.06 193.101 265.034C193.199 265.009 193.302 265.003 193.402 265.016C193.503 265.03 193.6 265.064 193.687 265.115C193.775 265.167 193.851 265.235 193.912 265.316C193.973 265.396 194.018 265.489 194.044 265.587C194.069 265.685 194.075 265.787 194.061 265.888C194.048 265.988 194.014 266.085 193.963 266.173C193.911 266.26 193.843 266.337 193.762 266.398L186.635 271.86C186.458 272 186.325 272.188 186.253 272.403C186.181 272.617 186.173 272.847 186.229 273.066C186.286 273.285 186.404 273.482 186.571 273.635C186.738 273.787 186.945 273.888 187.168 273.925C189.877 274.369 192.375 273.902 194.662 272.526C195.195 272.215 195.694 272.271 196.16 272.692C197.359 273.78 198.858 274.224 200.656 274.025C201.7 273.891 202.854 273.37 204.12 272.459C208.294 269.44 211.913 266.631 214.977 264.033C218.618 260.947 218.963 261.28 216.01 265.032C214.167 267.386 212.035 269.362 209.615 270.961C205.241 273.869 205.607 274.691 210.714 273.425C213.489 272.737 216.909 272.715 220.972 273.359C222.193 273.558 223.237 273.214 224.102 272.326C224.569 271.86 225.101 271.793 225.701 272.126C227.448 273.072 229.484 273.482 231.585 273.311C233.687 273.141 235.776 272.397 237.624 271.16L248.714 263.767C248.781 263.723 248.836 263.734 248.881 263.8L249.28 264.566C249.502 264.966 249.403 265.288 248.981 265.532C245.806 267.264 242.831 269.318 240.055 271.693C238.901 272.67 239.067 273.292 240.555 273.558C248.814 275.024 251.212 268.696 257.773 265.932C259.904 265.044 260.104 265.366 258.372 266.898C256.13 268.918 253.71 270.616 251.112 271.993C250.925 272.1 250.778 272.264 250.692 272.461C250.605 272.658 250.585 272.877 250.634 273.087C250.683 273.296 250.797 273.485 250.962 273.623C251.126 273.762 251.33 273.845 251.545 273.858L277.056 274.491C277.966 274.513 278.799 274.269 279.554 273.758L287.414 268.363C287.639 268.191 287.923 268.115 288.204 268.152C288.485 268.19 288.74 268.337 288.912 268.563C289.085 268.788 289.16 269.072 289.123 269.353C289.085 269.634 288.938 269.889 288.712 270.061C286.803 271.749 285.393 273.814 284.483 276.256C284.083 277.344 283.295 277.888 282.118 277.888L118.695 278.554C118.406 278.554 118.12 278.497 117.854 278.387C117.587 278.276 117.345 278.114 117.141 277.91C116.937 277.706 116.775 277.464 116.664 277.197C116.554 276.93 116.497 276.645 116.497 276.356L116.364 230.263C116.364 230.053 116.405 229.845 116.485 229.651C116.566 229.457 116.683 229.281 116.832 229.133C116.98 228.984 117.157 228.866 117.351 228.786C117.545 228.706 117.752 228.664 117.962 228.664C171.893 228.687 225.834 228.653 279.787 228.564C280.098 228.564 280.342 228.687 280.52 228.931L281.386 230.063C281.918 230.729 281.763 231.062 280.919 231.062L121.259 231.862C120.916 231.867 120.578 231.949 120.272 232.102C119.965 232.255 119.697 232.474 119.489 232.744C119.28 233.013 119.136 233.326 119.068 233.658C119 233.989 119.009 234.332 119.095 234.659C119.961 238.089 121.06 240.487 120.393 244.184C119.594 248.824 119.572 253.465 120.327 258.105C120.593 259.637 121.326 259.915 122.525 258.938L132.416 250.845C132.572 250.734 132.716 250.745 132.849 250.878L133.549 251.544C133.704 251.678 133.682 251.833 133.482 252.011L121.726 262.535C121.348 262.868 121.193 263.29 121.259 263.8L121.892 267.53C121.981 268.152 122.27 268.263 122.758 267.863L140.609 253.343C141.12 252.943 141.42 252.788 141.508 252.877L141.542 252.91C141.678 253.032 141.74 253.227 141.715 253.451C141.69 253.675 141.58 253.911 141.408 254.109C135.791 260.548 129.319 265.943 121.992 270.294C121.659 270.494 121.559 270.772 121.692 271.127L122.325 272.759C122.452 273.079 122.647 273.368 122.895 273.606C123.144 273.844 123.44 274.025 123.764 274.136C124.087 274.247 124.43 274.285 124.769 274.249C125.107 274.212 125.432 274.102 125.722 273.925C135.269 268.219 144.361 261.869 152.998 254.875C153.354 254.564 153.631 254.531 153.831 254.775H153.864C154.086 255.041 154.075 255.297 153.831 255.541C147.836 261.447 141.275 266.609 134.148 271.027C133.149 271.649 133.193 272.171 134.281 272.592Z"/>
</mask>
<path d="M134.281 272.592C137.368 273.791 140.265 273.403 142.974 271.427C143.188 271.27 143.432 271.158 143.691 271.098C143.95 271.039 144.218 271.032 144.479 271.078C144.741 271.125 144.99 271.224 145.212 271.37C145.434 271.516 145.624 271.705 145.771 271.926C147.014 273.747 148.713 273.969 150.867 272.592C151.799 271.993 152.743 271.971 153.698 272.526C156.828 274.347 159.504 274.424 161.724 272.759C166.475 269.229 171.304 265.821 176.211 262.535C176.5 262.357 176.744 262.39 176.944 262.635V262.668C176.986 262.72 177.011 262.785 177.018 262.858C177.024 262.932 177.011 263.014 176.98 263.097C176.949 263.181 176.9 263.266 176.837 263.347C176.773 263.428 176.696 263.502 176.611 263.567L167.452 270.761C165.01 272.648 165.332 273.636 168.418 273.725C170.705 273.769 172.736 273.137 174.513 271.827C175.445 271.138 175.956 271.371 176.045 272.526C176.067 272.859 176.133 273.27 176.244 273.758C176.339 274.115 176.519 274.444 176.768 274.717C177.016 274.989 177.327 275.197 177.672 275.322C178.016 275.447 178.385 275.485 178.746 275.433C179.107 275.381 179.449 275.24 179.741 275.024L192.83 265.166C192.911 265.104 193.003 265.06 193.101 265.034C193.199 265.009 193.302 265.003 193.402 265.016C193.503 265.03 193.6 265.064 193.687 265.115C193.775 265.167 193.851 265.235 193.912 265.316C193.973 265.396 194.018 265.489 194.044 265.587C194.069 265.685 194.075 265.787 194.061 265.888C194.048 265.988 194.014 266.085 193.963 266.173C193.911 266.26 193.843 266.337 193.762 266.398L186.635 271.86C186.458 272 186.325 272.188 186.253 272.403C186.181 272.617 186.173 272.847 186.229 273.066C186.286 273.285 186.404 273.482 186.571 273.635C186.738 273.787 186.945 273.888 187.168 273.925C189.877 274.369 192.375 273.902 194.662 272.526C195.195 272.215 195.694 272.271 196.16 272.692C197.359 273.78 198.858 274.224 200.656 274.025C201.7 273.891 202.854 273.37 204.12 272.459C208.294 269.44 211.913 266.631 214.977 264.033C218.618 260.947 218.963 261.28 216.01 265.032C214.167 267.386 212.035 269.362 209.615 270.961C205.241 273.869 205.607 274.691 210.714 273.425C213.489 272.737 216.909 272.715 220.972 273.359C222.193 273.558 223.237 273.214 224.102 272.326C224.569 271.86 225.101 271.793 225.701 272.126C227.448 273.072 229.484 273.482 231.585 273.311C233.687 273.141 235.776 272.397 237.624 271.16L248.714 263.767C248.781 263.723 248.836 263.734 248.881 263.8L249.28 264.566C249.502 264.966 249.403 265.288 248.981 265.532C245.806 267.264 242.831 269.318 240.055 271.693C238.901 272.67 239.067 273.292 240.555 273.558C248.814 275.024 251.212 268.696 257.773 265.932C259.904 265.044 260.104 265.366 258.372 266.898C256.13 268.918 253.71 270.616 251.112 271.993C250.925 272.1 250.778 272.264 250.692 272.461C250.605 272.658 250.585 272.877 250.634 273.087C250.683 273.296 250.797 273.485 250.962 273.623C251.126 273.762 251.33 273.845 251.545 273.858L277.056 274.491C277.966 274.513 278.799 274.269 279.554 273.758L287.414 268.363C287.639 268.191 287.923 268.115 288.204 268.152C288.485 268.19 288.74 268.337 288.912 268.563C289.085 268.788 289.16 269.072 289.123 269.353C289.085 269.634 288.938 269.889 288.712 270.061C286.803 271.749 285.393 273.814 284.483 276.256C284.083 277.344 283.295 277.888 282.118 277.888L118.695 278.554C118.406 278.554 118.12 278.497 117.854 278.387C117.587 278.276 117.345 278.114 117.141 277.91C116.937 277.706 116.775 277.464 116.664 277.197C116.554 276.93 116.497 276.645 116.497 276.356L116.364 230.263C116.364 230.053 116.405 229.845 116.485 229.651C116.566 229.457 116.683 229.281 116.832 229.133C116.98 228.984 117.157 228.866 117.351 228.786C117.545 228.706 117.752 228.664 117.962 228.664C171.893 228.687 225.834 228.653 279.787 228.564C280.098 228.564 280.342 228.687 280.52 228.931L281.386 230.063C281.918 230.729 281.763 231.062 280.919 231.062L121.259 231.862C120.916 231.867 120.578 231.949 120.272 232.102C119.965 232.255 119.697 232.474 119.489 232.744C119.28 233.013 119.136 233.326 119.068 233.658C119 233.989 119.009 234.332 119.095 234.659C119.961 238.089 121.06 240.487 120.393 244.184C119.594 248.824 119.572 253.465 120.327 258.105C120.593 259.637 121.326 259.915 122.525 258.938L132.416 250.845C132.572 250.734 132.716 250.745 132.849 250.878L133.549 251.544C133.704 251.678 133.682 251.833 133.482 252.011L121.726 262.535C121.348 262.868 121.193 263.29 121.259 263.8L121.892 267.53C121.981 268.152 122.27 268.263 122.758 267.863L140.609 253.343C141.12 252.943 141.42 252.788 141.508 252.877L141.542 252.91C141.678 253.032 141.74 253.227 141.715 253.451C141.69 253.675 141.58 253.911 141.408 254.109C135.791 260.548 129.319 265.943 121.992 270.294C121.659 270.494 121.559 270.772 121.692 271.127L122.325 272.759C122.452 273.079 122.647 273.368 122.895 273.606C123.144 273.844 123.44 274.025 123.764 274.136C124.087 274.247 124.43 274.285 124.769 274.249C125.107 274.212 125.432 274.102 125.722 273.925C135.269 268.219 144.361 261.869 152.998 254.875C153.354 254.564 153.631 254.531 153.831 254.775H153.864C154.086 255.041 154.075 255.297 153.831 255.541C147.836 261.447 141.275 266.609 134.148 271.027C133.149 271.649 133.193 272.171 134.281 272.592Z" fill="black" stroke="black" stroke-width="2" mask="url(#path-2-inside-1_61_7992)"/>
<path d="M373.85 265.639L385.245 255.378C382.882 258.855 380.045 260.973 376.853 263.356C375.887 264.078 374.887 264.824 373.859 265.639L373.854 265.644C373.853 265.642 373.851 265.641 373.85 265.639Z" fill="black" stroke="black"/>
<path d="M339.737 272.195C343.242 268.328 346.884 264.726 350.663 261.392C347.456 265.231 344.011 268.842 340.327 272.223C340.104 272.427 339.959 272.487 339.888 272.498C339.859 272.503 339.843 272.499 339.832 272.495C339.82 272.491 339.793 272.478 339.753 272.439C339.678 272.363 339.661 272.32 339.658 272.309C339.661 272.297 339.676 272.261 339.733 272.2L339.733 272.2L339.737 272.195ZM339.657 272.305C339.657 272.305 339.658 272.305 339.658 272.306L339.657 272.305ZM339.658 272.31C339.658 272.312 339.657 272.313 339.657 272.313L339.658 272.31Z" fill="black" stroke="black"/>
<path d="M163.212 260.653C163.212 260.653 163.212 260.653 163.212 260.654L163.212 260.653ZM150.375 269.247L162.507 261.362C159.194 264.43 155.634 267.223 151.827 269.741C151.543 269.917 151.337 269.968 151.194 269.964C150.922 269.909 150.65 269.794 150.377 269.612C150.255 269.531 150.192 269.468 150.162 269.429C150.192 269.39 150.255 269.327 150.375 269.247Z" fill="black" stroke="black"/>
<path d="M293.916 290.391L293.243 289.879L293.24 289.877C293.082 289.758 293.056 289.677 293.05 289.645C293.045 289.612 293.044 289.523 293.156 289.355L293.156 289.355L293.162 289.346C293.841 288.279 294.524 287.306 295.192 286.357C296.927 283.888 298.551 281.578 299.676 278.178L299.677 278.176C301.802 271.669 305.481 266.127 310.721 261.545L310.721 261.545C310.78 261.494 310.822 261.47 310.847 261.459C310.86 261.454 310.867 261.452 310.871 261.452L310.874 261.451L310.875 261.451L310.875 261.451L310.875 261.451L310.875 261.451L310.878 261.452C310.882 261.453 310.889 261.456 310.901 261.463C310.924 261.477 310.963 261.506 311.014 261.565L311.143 261.711C311.15 261.731 311.149 261.742 311.149 261.744V261.744C311.149 261.748 311.147 261.803 311.041 261.91C306.155 266.544 303.718 271.642 301.574 276.581C301.369 277.052 301.168 277.521 300.967 277.987C299.059 282.427 297.237 286.665 293.916 290.391Z" fill="black" stroke="black"/>
<path d="M178.054 268.753L178.054 268.753L178.047 268.755C177.906 268.803 177.78 268.843 177.667 268.875C177.744 268.784 177.835 268.683 177.939 268.573C179.442 266.989 181.143 265.672 183.044 264.621C181.827 266.696 180.165 268.062 178.054 268.753Z" fill="black" stroke="black"/>
<path d="M198.403 268.317C200.607 267.291 202.685 266.053 204.636 264.604C203.916 265.552 203.026 266.213 202.051 266.839C201.804 266.998 201.549 267.155 201.289 267.316C200.476 267.818 199.619 268.347 198.837 269.012C198.513 269.278 198.153 269.467 197.755 269.581L197.746 269.583L197.738 269.586C197.621 269.624 197.533 269.644 197.468 269.653C197.477 269.588 197.497 269.501 197.534 269.385C197.627 269.108 197.754 268.863 197.914 268.646C198.01 268.54 198.165 268.426 198.401 268.317L198.403 268.317Z" fill="black" stroke="black"/>
<path d="M237.709 262.899L237.734 262.889L237.758 262.876C237.771 262.87 237.784 262.866 237.797 262.865C237.811 262.863 237.824 262.865 237.837 262.869C237.85 262.873 237.862 262.879 237.873 262.888C237.883 262.897 237.892 262.908 237.898 262.919C237.904 262.931 237.908 262.944 237.91 262.958C237.911 262.972 237.91 262.985 237.906 262.998C237.902 263.011 237.896 263.023 237.887 263.033C237.878 263.044 237.867 263.053 237.855 263.059L237.827 263.074L237.8 263.093L229.008 269.354L229.008 269.354L229.006 269.356C228.876 269.449 228.761 269.527 228.658 269.59C228.701 269.477 228.755 269.348 228.821 269.202L228.821 269.202L228.824 269.196C229.299 268.107 230.058 267.453 231.12 267.182L231.121 267.182C231.988 266.959 232.727 266.522 233.326 265.874C234.587 264.55 236.046 263.56 237.709 262.899Z" fill="black" stroke="black"/>
<path d="M221.692 267.082L221.692 267.082C222.212 266.618 222.742 266.177 223.252 265.785C223.762 265.392 224.239 265.059 224.654 264.803C224.943 264.625 225.189 264.493 225.388 264.403C225.277 264.591 225.118 264.82 224.908 265.088C224.608 265.472 224.224 265.908 223.777 266.372C223.33 266.835 222.833 267.312 222.313 267.777L222.616 268.116L222.313 267.777C221.793 268.242 221.263 268.683 220.753 269.075C220.243 269.467 219.766 269.8 219.351 270.056C219.062 270.235 218.816 270.367 218.617 270.457C218.728 270.269 218.888 270.039 219.097 269.772C219.398 269.388 219.782 268.951 220.229 268.488C220.675 268.025 221.172 267.547 221.692 267.082Z" fill="black" stroke="black"/>
<path d="M360.677 266.934C361.219 266.47 361.63 266.133 361.912 265.92C361.889 265.948 361.864 265.978 361.838 266.009C361.584 266.313 361.199 266.742 360.687 267.292C359.664 268.389 358.152 269.949 356.208 271.909C352.32 275.828 347.022 281.026 341.452 286.386L341.452 286.386L341.445 286.392L341.168 286.67L340.406 285.849L340.684 285.571C343.49 282.87 346.282 280.209 348.898 277.741C351.515 275.272 353.903 273.045 355.926 271.19C357.949 269.333 359.563 267.888 360.677 266.934ZM362.24 265.694C362.24 265.694 362.24 265.694 362.238 265.695C362.24 265.694 362.24 265.694 362.24 265.694Z" fill="black" stroke="black"/>
<mask id="path-12-inside-2_61_7992" fill="white">
<path d="M289.011 308.76L320.55 280.585C320.661 280.496 320.761 280.507 320.85 280.618L321.416 281.251C321.749 281.584 321.749 281.917 321.416 282.25C307.939 295.705 295.206 307.306 283.216 317.053C282.128 317.941 280.696 318.596 278.92 319.018C278.733 319.072 278.532 319.06 278.354 318.982C278.175 318.904 278.029 318.765 277.942 318.591C277.855 318.417 277.831 318.217 277.876 318.027C277.921 317.838 278.031 317.67 278.187 317.553L280.752 315.521C281.817 314.677 282.561 313.612 282.983 312.324C285.248 305.552 288.756 299.468 293.507 294.073C294.262 293.229 295.172 292.641 296.238 292.308C297.504 291.886 298.503 291.242 299.235 290.376C304.386 284.115 309.549 277.887 314.722 271.693C315.033 271.315 315.377 271.282 315.754 271.593H315.788C316.165 271.904 316.209 272.259 315.921 272.659C309.326 281.584 302.155 290.043 294.406 298.036C291.231 301.3 288.911 304.497 287.446 307.628C286.114 310.514 286.635 310.892 289.011 308.76Z"/>
</mask>
<path d="M289.011 308.76L320.55 280.585C320.661 280.496 320.761 280.507 320.85 280.618L321.416 281.251C321.749 281.584 321.749 281.917 321.416 282.25C307.939 295.705 295.206 307.306 283.216 317.053C282.128 317.941 280.696 318.596 278.92 319.018C278.733 319.072 278.532 319.06 278.354 318.982C278.175 318.904 278.029 318.765 277.942 318.591C277.855 318.417 277.831 318.217 277.876 318.027C277.921 317.838 278.031 317.67 278.187 317.553L280.752 315.521C281.817 314.677 282.561 313.612 282.983 312.324C285.248 305.552 288.756 299.468 293.507 294.073C294.262 293.229 295.172 292.641 296.238 292.308C297.504 291.886 298.503 291.242 299.235 290.376C304.386 284.115 309.549 277.887 314.722 271.693C315.033 271.315 315.377 271.282 315.754 271.593H315.788C316.165 271.904 316.209 272.259 315.921 272.659C309.326 281.584 302.155 290.043 294.406 298.036C291.231 301.3 288.911 304.497 287.446 307.628C286.114 310.514 286.635 310.892 289.011 308.76Z" fill="black"/>
<path d="M289.011 308.76L288.345 308.015L288.343 308.016L289.011 308.76ZM320.55 280.585L319.925 279.804L319.904 279.821L319.884 279.839L320.55 280.585ZM320.85 280.618L320.069 281.243L320.086 281.265L320.104 281.285L320.85 280.618ZM321.416 281.251L320.671 281.918L320.689 281.939L320.709 281.958L321.416 281.251ZM321.416 282.25L322.122 282.958L322.123 282.957L321.416 282.25ZM283.216 317.053L282.585 316.277L282.584 316.278L283.216 317.053ZM278.92 319.018L278.689 318.045L278.664 318.051L278.64 318.058L278.92 319.018ZM278.187 317.553L278.787 318.353L278.798 318.345L278.808 318.336L278.187 317.553ZM280.752 315.521L280.131 314.737L280.131 314.737L280.752 315.521ZM282.983 312.324L282.034 312.007L282.033 312.013L282.983 312.324ZM293.507 294.073L292.762 293.406L292.757 293.412L293.507 294.073ZM296.238 292.308L296.536 293.263L296.545 293.26L296.554 293.257L296.238 292.308ZM299.235 290.376L299.999 291.022L300.008 291.012L299.235 290.376ZM314.722 271.693L315.489 272.334L315.494 272.329L314.722 271.693ZM315.754 271.593L315.118 272.365L315.395 272.593H315.754V271.593ZM315.788 271.593L316.423 270.821L316.146 270.593H315.788V271.593ZM315.921 272.659L316.725 273.253L316.731 273.244L315.921 272.659ZM294.406 298.036L295.123 298.734L295.124 298.732L294.406 298.036ZM287.446 307.628L286.54 307.204L286.538 307.209L287.446 307.628ZM289.677 309.506L321.216 281.331L319.884 279.839L288.345 308.015L289.677 309.506ZM321.175 281.366C321.11 281.418 320.904 281.555 320.597 281.521C320.291 281.486 320.12 281.308 320.069 281.243L321.63 279.994C321.49 279.818 321.225 279.578 320.819 279.533C320.412 279.488 320.101 279.663 319.925 279.804L321.175 281.366ZM320.104 281.285L320.671 281.918L322.161 280.584L321.595 279.951L320.104 281.285ZM320.709 281.958C320.766 282.016 320.666 281.943 320.666 281.751C320.666 281.558 320.766 281.485 320.709 281.543L322.123 282.957C322.399 282.682 322.666 282.276 322.666 281.751C322.666 281.225 322.399 280.819 322.123 280.544L320.709 281.958ZM320.709 281.542C307.251 294.979 294.543 306.556 282.585 316.277L283.847 317.829C295.868 308.056 308.627 296.431 322.122 282.958L320.709 281.542ZM282.584 316.278C281.642 317.047 280.36 317.648 278.689 318.045L279.151 319.991C281.032 319.544 282.614 318.836 283.848 317.828L282.584 316.278ZM278.64 318.058C278.678 318.047 278.718 318.05 278.754 318.065L277.953 319.898C278.347 320.07 278.788 320.098 279.2 319.978L278.64 318.058ZM278.754 318.065C278.789 318.081 278.819 318.108 278.836 318.144L277.047 319.038C277.24 319.422 277.56 319.726 277.953 319.898L278.754 318.065ZM278.836 318.144C278.854 318.179 278.859 318.219 278.85 318.257L276.903 317.798C276.804 318.215 276.856 318.654 277.047 319.038L278.836 318.144ZM278.85 318.257C278.841 318.295 278.818 318.329 278.787 318.353L277.587 316.753C277.244 317.01 277.002 317.38 276.903 317.798L278.85 318.257ZM278.808 318.336L281.372 316.305L280.131 314.737L277.566 316.769L278.808 318.336ZM281.372 316.305C282.591 315.34 283.45 314.11 283.933 312.635L282.033 312.013C281.672 313.113 281.043 314.015 280.131 314.737L281.372 316.305ZM283.931 312.641C286.153 305.997 289.594 300.03 294.258 294.734L292.757 293.412C287.918 298.907 284.342 305.107 282.034 312.007L283.931 312.641ZM294.252 294.74C294.889 294.029 295.645 293.541 296.536 293.263L295.94 291.354C294.699 291.741 293.635 292.43 292.762 293.406L294.252 294.74ZM296.554 293.257C297.963 292.787 299.128 292.051 299.999 291.022L298.472 289.73C297.877 290.433 297.044 290.985 295.922 291.359L296.554 293.257ZM300.008 291.012C305.157 284.752 310.318 278.526 315.489 272.334L313.954 271.052C308.779 277.248 303.616 283.478 298.463 289.741L300.008 291.012ZM315.494 272.329C315.551 272.259 315.494 272.362 315.309 272.38C315.124 272.398 315.049 272.307 315.118 272.365L316.39 270.821C316.082 270.568 315.646 270.338 315.117 270.389C314.588 270.441 314.203 270.749 313.95 271.057L315.494 272.329ZM315.754 272.593H315.788V270.593H315.754V272.593ZM315.152 272.365C315.217 272.418 315.131 272.373 315.112 272.216C315.092 272.062 315.163 272 315.11 272.073L316.731 273.244C316.967 272.917 317.16 272.479 317.096 271.969C317.032 271.457 316.736 271.079 316.423 270.821L315.152 272.365ZM315.116 272.064C308.549 280.954 301.406 289.379 293.688 297.34L295.124 298.732C302.904 290.708 310.104 282.214 316.725 273.253L315.116 272.064ZM293.689 297.339C290.46 300.659 288.065 303.946 286.54 307.204L288.351 308.052C289.757 305.049 292.003 301.941 295.123 298.734L293.689 297.339ZM286.538 307.209C286.197 307.947 285.948 308.58 285.824 309.081C285.763 309.327 285.715 309.604 285.731 309.875C285.746 310.131 285.833 310.583 286.252 310.886C286.667 311.187 287.121 311.131 287.366 311.069C287.628 311.003 287.877 310.876 288.095 310.744C288.538 310.476 289.071 310.049 289.679 309.505L288.343 308.016C288.058 308.272 287.806 308.485 287.589 308.656C287.48 308.741 287.381 308.815 287.292 308.879C287.203 308.942 287.125 308.993 287.059 309.033C287.026 309.053 286.997 309.07 286.971 309.084C286.945 309.097 286.924 309.108 286.907 309.116C286.89 309.124 286.878 309.129 286.872 309.131C286.865 309.133 286.867 309.132 286.875 309.13C286.883 309.128 286.9 309.124 286.927 309.121C286.954 309.119 286.993 309.117 287.042 309.121C287.091 309.125 287.152 309.136 287.219 309.159C287.253 309.17 287.287 309.185 287.322 309.203C287.357 309.221 287.391 309.242 287.424 309.266C287.457 309.289 287.488 309.315 287.516 309.343C287.544 309.371 287.569 309.399 287.591 309.428C287.634 309.486 287.664 309.542 287.684 309.589C287.703 309.635 287.714 309.675 287.72 309.702C287.725 309.73 287.727 309.75 287.727 309.759C287.728 309.768 287.728 309.771 287.728 309.765C287.728 309.759 287.729 309.747 287.731 309.729C287.734 309.711 287.737 309.689 287.743 309.66C287.748 309.632 287.756 309.6 287.765 309.563C287.783 309.489 287.808 309.401 287.842 309.298C287.876 309.195 287.917 309.08 287.966 308.952C288.065 308.695 288.194 308.394 288.354 308.047L286.538 307.209Z" fill="black" mask="url(#path-12-inside-2_61_7992)"/>
<path d="M307.432 301.199L307.415 301.211C307.321 301.277 307.256 301.377 307.236 301.49C307.216 301.603 307.241 301.72 307.307 301.814C307.372 301.908 307.473 301.973 307.586 301.993C307.699 302.013 307.815 301.988 307.91 301.922L307.926 301.911L307.943 301.901C310.286 300.534 312.701 298.506 315.187 295.8L307.432 301.199ZM307.432 301.199L307.448 301.186M307.432 301.199L307.448 301.186M307.448 301.186L323.919 287.547M307.448 301.186L323.919 287.547M323.919 287.547C322.876 289.514 321.515 290.753 320.041 291.868C319.662 292.154 319.27 292.436 318.873 292.722C317.635 293.612 316.34 294.544 315.187 295.8L323.919 287.547Z" fill="black" stroke="black"/>
<path d="M288.278 319.527L288.279 319.527C300.644 313.021 315.05 302.929 331.494 289.262L331.495 289.262C331.636 289.144 331.7 289.15 331.704 289.151C331.708 289.151 331.772 289.157 331.89 289.297L331.904 289.315L331.92 289.331L331.936 289.347C332.037 289.473 332.035 289.536 332.034 289.55C332.032 289.567 332.019 289.64 331.88 289.765C315.184 303.711 297.468 316.261 278.731 327.414L278.731 327.414C278.472 327.569 278.251 327.692 278.065 327.786C278.174 327.614 278.315 327.411 278.49 327.175L278.49 327.174C280.494 324.46 283.742 321.906 288.278 319.527ZM277.465 328.02C277.465 328.02 277.466 328.02 277.468 328.02C277.466 328.021 277.465 328.02 277.465 328.02ZM277.772 328.356C277.772 328.357 277.771 328.358 277.771 328.358L277.772 328.356Z" fill="black" stroke="black"/>
</svg>
