<svg width="512" height="512" viewBox="0 0 512 512" fill="none" xmlns="http://www.w3.org/2000/svg">
<rect width="512" height="512" fill="white"/>
<path d="M262.166 322.683C265.217 316.221 268.329 308.373 271.503 299.139C279.439 276.105 285.499 257.548 289.683 243.47C296.949 219.045 304.709 194.542 310.507 169.731C310.637 169.178 310.884 168.66 311.231 168.212C311.578 167.763 312.016 167.396 312.516 167.133L328.717 158.662C328.928 158.555 329.17 158.528 329.398 158.584C329.625 158.641 329.823 158.779 329.954 158.971L339.894 173.379C340.842 174.739 340.951 176.162 340.219 177.646C333.046 192.26 325.522 207.131 317.649 222.261C301.231 253.797 283.901 285.241 270.066 317.272C268.375 321.188 268.746 321.4 271.179 317.906C278.862 306.884 284.999 294.795 291.476 282.675C309.888 248.263 328.656 213.634 345.846 178.79C346.061 178.355 346.362 177.969 346.732 177.655C347.101 177.342 347.531 177.107 347.995 176.965L365.185 171.663C366.494 171.261 367.406 171.694 367.922 172.962L374.523 189.224C374.708 189.678 374.651 190.101 374.353 190.492C341.533 233.839 305.853 275.115 275.662 320.348C273.58 323.461 273.853 323.688 276.481 321.029C282.5 314.948 288.622 307.961 294.846 300.066C307.863 283.566 320.916 267.092 334.004 250.643C349.134 231.618 364.114 212.475 378.944 193.213C379.748 192.172 381.289 191.476 383.566 191.126C389.42 190.24 395.382 189.178 401.452 187.941C401.56 187.919 401.671 187.918 401.779 187.938C401.887 187.959 401.99 188 402.082 188.06C402.174 188.121 402.253 188.199 402.315 188.29C402.377 188.381 402.42 188.483 402.442 188.591L405.966 206.446C406.069 206.961 405.936 207.41 405.564 207.791C404.565 208.791 403.57 209.759 402.581 210.697C364.17 247.129 325.677 283.484 287.101 319.761C283.005 323.626 278.104 329.315 273.08 333.612C269.566 336.622 266.268 339.853 263.186 343.305C262.846 343.697 262.805 344.114 263.063 344.557C267.855 353.091 259.832 363.881 250.757 360.959C243.584 358.656 240.956 352.163 243.692 345.083C243.817 344.754 243.847 344.398 243.779 344.056C243.71 343.714 243.546 343.4 243.306 343.151C201.092 299.958 158.198 257.847 114.624 216.819C111.821 214.181 109.276 211.625 106.988 209.151C106.607 208.741 106.325 208.252 106.161 207.719C105.998 207.186 105.958 206.624 106.045 206.075L108.688 188.73C108.76 188.276 109.023 188.091 109.477 188.173L130.315 191.883C131.532 192.1 132.516 192.698 133.268 193.677C159.765 228.367 186.025 263.511 212.048 299.108C217.448 306.487 224.384 314.824 232.856 324.12C232.879 324.149 232.909 324.171 232.944 324.184C232.98 324.198 233.018 324.202 233.057 324.198L233.783 324.105C233.845 324.095 233.86 324.059 233.829 323.997C226.425 313.407 219.654 301.983 212.403 291.842C188.302 258.079 163.491 224.95 138.401 191.914C138.067 191.477 137.846 190.963 137.757 190.416C137.668 189.869 137.714 189.306 137.89 188.776L143.193 172.869C143.347 172.395 143.672 172.225 144.167 172.359L162.919 177.398C163.347 177.516 163.746 177.721 164.09 178C164.433 178.28 164.714 178.628 164.913 179.021C173.369 195.934 182.892 213.418 190.791 229.635C209.188 267.386 221.941 293.233 229.053 307.177C230.495 310.001 233.659 315.175 238.544 322.698C238.575 322.75 238.622 322.776 238.684 322.776C238.828 322.765 238.957 322.745 239.07 322.714C239.194 322.683 239.23 322.611 239.178 322.497C236.643 316.113 234.386 309.295 231.712 303.297C221.354 280.062 210.223 257.801 199.047 234.35C189.972 215.35 179.893 196.784 171.004 177.8C170.775 177.319 170.668 176.788 170.693 176.254C170.717 175.721 170.871 175.201 171.143 174.739L179.414 160.764C179.628 160.401 179.97 160.131 180.374 160.008C180.778 159.885 181.213 159.917 181.593 160.1L198.243 167.999C198.933 168.329 199.387 168.86 199.603 169.591C214.506 220.545 227.615 272.441 244.141 323.023C244.244 323.363 244.47 323.492 244.821 323.409L245.223 323.317C245.316 323.286 245.357 323.224 245.346 323.131C243.079 308.517 240.431 295.372 237.401 283.695C231.505 260.929 225.301 238.245 218.788 215.644C214.325 200.154 209.919 184.649 205.57 169.128C205.498 168.869 205.489 168.596 205.543 168.333C205.596 168.07 205.712 167.823 205.879 167.613L216.469 154.333C216.717 154.023 217.065 153.809 217.452 153.729C217.84 153.65 218.242 153.711 218.587 153.9L234.015 162.403C234.468 162.65 234.716 163.032 234.757 163.547C237.632 198.309 240.425 233.066 243.136 267.818C244.512 285.488 246.877 301.767 249.629 318.679C250.041 321.266 250.412 321.255 250.742 318.648C251.154 315.329 251.226 311.284 250.958 306.513C249.319 277.218 246.63 247.969 244.713 218.813C243.651 202.561 242.466 186.318 241.157 170.086C240.961 167.664 240.899 165.474 240.972 163.516C240.991 163.086 241.097 162.663 241.282 162.273C241.468 161.883 241.73 161.533 242.054 161.244L254.143 150.329C254.37 150.123 254.665 150.006 254.972 150C255.279 149.995 255.577 150.101 255.812 150.299L269.231 161.506C269.484 161.715 269.682 161.982 269.808 162.284C269.935 162.586 269.986 162.913 269.957 163.238L255.843 320.488C255.812 320.879 255.987 321.09 256.369 321.121L257.034 321.199C257.157 321.209 257.229 321.152 257.25 321.029C261.218 303.168 264.583 280.418 267.345 252.777C270.334 222.941 273.24 193.1 276.064 163.253C276.115 162.717 276.373 162.321 276.837 162.063L292.11 153.452C292.412 153.285 292.762 153.226 293.103 153.285C293.443 153.344 293.753 153.518 293.981 153.777L305.266 166.469C305.408 166.62 305.508 166.807 305.557 167.01C305.606 167.213 305.601 167.426 305.544 167.628C296.547 200.68 286.993 233.314 276.821 265.917C270.998 284.571 266.015 303.462 261.872 322.59C261.676 323.497 261.774 323.528 262.166 322.683Z" fill="black"/>
</svg>
