<svg width="512" height="512" viewBox="0 0 512 512" fill="none" xmlns="http://www.w3.org/2000/svg">
<rect width="512" height="512" fill="white"/>
<path d="M274.438 301.575L282.47 296.285C282.892 296.011 283.209 295.616 283.382 295.149C283.555 294.683 283.576 294.165 283.443 293.662C283.309 293.16 283.027 292.694 282.632 292.323C282.236 291.953 281.745 291.694 281.221 291.58C280.745 291.482 280.317 291.109 279.939 290.46C278.495 288.075 281.383 284.943 283.314 284.44C288.36 283.094 292.952 288.773 292.27 293.397C291.183 300.666 281.172 306.653 275.542 311.147C275.087 311.515 274.801 311.986 274.682 312.559C273.373 318.919 273.059 325.35 273.741 331.851C273.816 332.587 274.168 332.755 274.795 332.354L282.129 327.6C282.521 327.35 282.843 327.005 283.065 326.596C283.287 326.187 283.402 325.729 283.398 325.262C283.395 324.796 283.274 324.338 283.047 323.929C282.819 323.521 282.492 323.176 282.097 322.927L280.685 322.035C280.22 321.754 279.917 321.353 279.777 320.834C277.716 313.208 293.374 312.575 291.686 324.534C291.199 328.006 289.285 331.089 285.942 333.782C280.61 338.087 274.779 342.149 268.451 345.968C267.95 346.271 267.354 346.375 266.78 346.26C265.547 346.011 264.93 345.151 264.93 343.68C265.157 301.861 265.314 259.875 265.401 217.721C265.4 216.865 265.615 216.021 266.026 215.267C266.437 214.513 267.031 213.873 267.754 213.405L281.367 204.659C283 203.61 283.892 204.048 284.044 205.974L284.125 207.207C284.187 207.956 284.02 208.707 283.647 209.361C283.273 210.016 282.71 210.543 282.032 210.874L274.828 214.395C273.833 214.871 273.384 215.66 273.481 216.764L273.546 217.429C273.562 217.608 273.624 217.781 273.724 217.93C273.825 218.079 273.962 218.201 274.122 218.283C274.282 218.366 274.461 218.407 274.641 218.402C274.821 218.397 274.997 218.347 275.152 218.256C279.165 215.898 283.179 213.583 287.192 211.312C289.496 210.03 288.311 205.503 288.587 202.729C288.627 202.316 288.764 201.918 288.986 201.566C289.209 201.214 289.511 200.917 289.869 200.7L297.105 196.271C297.258 196.177 297.433 196.124 297.613 196.119C297.792 196.114 297.97 196.157 298.128 196.242C298.286 196.328 298.419 196.454 298.513 196.607C298.606 196.76 298.658 196.935 298.663 197.115L299.215 212.772C299.234 213.302 299.103 213.826 298.839 214.282C298.575 214.739 298.188 215.11 297.722 215.352L275.347 227.197C274.911 227.428 274.543 227.769 274.279 228.184C274.015 228.599 273.863 229.075 273.838 229.566L273.432 239.739C273.423 239.913 273.465 240.087 273.554 240.237C273.642 240.388 273.773 240.51 273.93 240.589C274.087 240.667 274.265 240.699 274.441 240.681C274.618 240.663 274.786 240.595 274.925 240.485L281.918 234.92C282.377 234.552 282.714 234.053 282.885 233.489C283.056 232.924 283.053 232.32 282.876 231.756L282.113 229.338C282.042 229.117 282.025 228.883 282.061 228.654C282.098 228.426 282.188 228.21 282.324 228.024C287.37 221.112 294.217 228.057 291.929 234.579C289.788 240.648 281.156 245.71 276.369 249.02C275.627 249.532 275.018 250.213 274.595 251.006C274.171 251.8 273.945 252.682 273.935 253.579L273.757 269.902C273.746 271.038 274.19 271.254 275.087 270.551L282.308 264.905C282.572 264.697 282.788 264.434 282.942 264.135C283.095 263.836 283.181 263.507 283.195 263.172C283.209 262.837 283.15 262.504 283.022 262.195C282.894 261.886 282.7 261.61 282.454 261.384L279.858 258.983C279.661 258.8 279.515 258.571 279.435 258.317C279.355 258.064 279.344 257.795 279.403 257.538C282.227 245.596 302.444 259.469 285.683 272.644C282.502 275.143 279.246 277.534 275.915 279.816C275.473 280.121 275.147 280.561 274.99 281.065C272.865 288.026 274.098 294.127 273.676 301.12C273.632 301.78 273.887 301.932 274.438 301.575Z" fill="black"/>
<path d="M263.502 198.299C263.537 198.371 263.585 198.435 263.645 198.488C263.705 198.541 263.774 198.582 263.85 198.607C263.925 198.633 264.005 198.643 264.085 198.638C264.165 198.632 264.242 198.611 264.314 198.575C272.091 194.605 279.43 189.954 286.332 184.621C286.743 184.307 286.943 183.896 286.932 183.388L286.916 166.416C286.916 163.668 287.916 161.348 289.917 159.455L294.947 154.717C297.251 152.543 298.414 153.035 298.436 156.194L298.647 185.627C298.652 186.166 298.526 186.696 298.28 187.172C298.034 187.647 297.675 188.053 297.235 188.353C285.563 196.412 273.265 203.356 260.338 209.186C260.048 209.32 259.729 209.379 259.41 209.356C259.091 209.334 258.783 209.231 258.515 209.058C258.246 208.885 258.026 208.647 257.873 208.366C257.721 208.085 257.643 207.77 257.645 207.45C257.677 202.161 256.282 190.527 260.63 186.73C267.11 181.062 273.535 175.329 279.906 169.531C280.036 169.412 280.155 169.32 280.263 169.255C280.392 169.163 280.543 169.107 280.701 169.095C280.859 169.083 281.017 169.115 281.158 169.187C281.299 169.26 281.417 169.369 281.5 169.504C281.583 169.639 281.626 169.795 281.626 169.953C281.691 175.746 283.119 180.224 277.91 184.15C273.14 187.742 268.548 191.538 264.135 195.541C263.205 196.374 262.994 197.293 263.502 198.299Z" fill="black"/>
<path d="M258.018 170.846C258.072 169.277 258.678 167.958 259.835 166.887L284.774 143.911C286.115 142.667 287.419 142.705 288.684 144.025L289.82 145.193C291.28 146.718 291.253 148.211 289.739 149.671L259.43 178.812C258.261 179.927 257.704 179.678 257.758 178.066L258.018 170.846Z" fill="black"/>
<path d="M259.219 143.587L269.879 134.42C270.119 134.209 270.409 134.063 270.722 133.996C271.034 133.929 271.359 133.943 271.666 134.037C271.973 134.131 272.251 134.302 272.475 134.534C272.699 134.765 272.861 135.05 272.946 135.361L273.757 138.411C274.157 139.893 273.811 141.175 272.719 142.257L259.365 155.415C259.225 155.548 259.049 155.638 258.859 155.672C258.668 155.706 258.472 155.684 258.295 155.608C258.117 155.532 257.965 155.406 257.858 155.245C257.752 155.084 257.694 154.895 257.694 154.702L257.726 146.8C257.737 145.502 258.235 144.431 259.219 143.587Z" fill="black"/>
<path d="M250.181 154.539L236.503 141.818C236.321 141.651 236.186 141.438 236.112 141.202C236.038 140.965 236.027 140.713 236.081 140.472L237.428 134.501C237.481 134.262 237.594 134.04 237.758 133.859C237.922 133.677 238.131 133.541 238.363 133.464C238.595 133.387 238.844 133.372 239.084 133.42C239.324 133.468 239.547 133.578 239.732 133.738L252.193 144.414C252.351 144.551 252.476 144.721 252.56 144.912C252.645 145.102 252.685 145.309 252.68 145.518L252.55 153.533C252.544 153.805 252.46 154.069 252.308 154.294C252.155 154.519 251.941 154.695 251.691 154.801C251.441 154.908 251.165 154.939 250.897 154.893C250.63 154.846 250.381 154.724 250.181 154.539Z" fill="black"/>
<path d="M250.717 178.731L218.915 148.99C218.73 148.814 218.616 148.577 218.595 148.322C218.574 148.068 218.647 147.815 218.801 147.611L222.144 143.165C222.23 143.05 222.34 142.954 222.466 142.884C222.592 142.813 222.731 142.77 222.874 142.756C223.018 142.742 223.162 142.759 223.299 142.804C223.436 142.849 223.562 142.922 223.669 143.019L252.21 168.38C252.321 168.476 252.411 168.596 252.472 168.731C252.534 168.865 252.566 169.011 252.566 169.158L252.469 177.985C252.468 178.187 252.407 178.385 252.295 178.553C252.183 178.722 252.024 178.854 251.838 178.933C251.652 179.012 251.446 179.035 251.247 178.999C251.048 178.964 250.864 178.871 250.717 178.731Z" fill="black"/>
<path d="M245.784 197.309C246.206 196.109 245.925 195.065 244.94 194.178C240.473 190.132 235.654 186.46 230.483 183.16C228.893 182.144 228.098 180.689 228.098 178.796L228.066 170.521C228.067 170.283 228.137 170.05 228.267 169.851C228.398 169.651 228.583 169.494 228.801 169.398C229.019 169.302 229.26 169.271 229.496 169.309C229.731 169.347 229.95 169.452 230.126 169.612L251.479 189.407C251.802 189.704 252.059 190.065 252.235 190.467C252.411 190.869 252.502 191.304 252.502 191.744L252.437 206.655C252.434 207.055 252.33 207.447 252.133 207.795C251.935 208.142 251.653 208.433 251.312 208.639C250.97 208.844 250.582 208.958 250.185 208.969C249.788 208.979 249.396 208.887 249.045 208.7L211.808 189.002C211.659 188.923 211.535 188.805 211.446 188.66C211.358 188.514 211.309 188.347 211.305 188.174L210.996 157.589C210.953 153.435 212.56 152.646 215.816 155.22L219.823 158.4C220.901 159.255 221.771 160.341 222.37 161.577C222.968 162.814 223.279 164.168 223.279 165.54L223.296 183.307C223.296 183.707 223.458 184.01 223.782 184.215L244.583 197.731C245.157 198.11 245.557 197.969 245.784 197.309Z" fill="black"/>
<path d="M237.363 331.576C237.472 327.693 237.401 322.257 237.152 315.269C237.088 313.236 236.352 311.781 234.946 310.905C228.737 307.021 223.923 303.057 220.505 299.011C214.956 292.44 219.856 279.086 229.591 285.901C230.034 286.211 230.382 286.636 230.6 287.13C230.817 287.624 230.895 288.168 230.825 288.704C230.754 289.239 230.539 289.745 230.201 290.166C229.864 290.587 229.417 290.908 228.91 291.093L228.196 291.353C227.763 291.511 227.382 291.787 227.096 292.149C226.811 292.511 226.632 292.946 226.58 293.404C226.528 293.862 226.604 294.326 226.801 294.743C226.998 295.161 227.306 295.515 227.693 295.766L236.179 301.299C236.302 301.382 236.446 301.429 236.594 301.434C236.743 301.44 236.89 301.404 237.021 301.33C237.151 301.256 237.259 301.148 237.334 301.017C237.409 300.885 237.447 300.736 237.445 300.585L237.201 283.484C237.191 282.65 236.973 281.83 236.569 281.097C236.164 280.365 235.585 279.741 234.881 279.281C228.115 274.868 214.047 267.193 218.964 257.133C221.738 251.438 231.392 251.584 230.516 258.253C230.451 258.804 230.186 259.237 229.721 259.551L227.644 260.93C227.332 261.139 227.077 261.422 226.902 261.755C226.728 262.087 226.639 262.458 226.643 262.833C226.648 263.209 226.747 263.577 226.93 263.905C227.113 264.233 227.376 264.51 227.693 264.71L236.601 270.373C236.679 270.422 236.769 270.45 236.862 270.452C236.955 270.455 237.046 270.433 237.127 270.388C237.208 270.343 237.276 270.278 237.323 270.198C237.371 270.119 237.396 270.028 237.396 269.935C237.472 265.132 237.493 260.232 237.461 255.235C237.412 247.155 225.73 242.4 220.489 237.338C212.474 229.598 224.367 219.782 227.304 226.954C227.52 227.484 227.52 228.014 227.304 228.544C226.73 229.993 226.59 231.464 226.882 232.957C227.001 233.595 227.347 234.082 227.92 234.418L235.514 238.863C236.758 239.588 237.364 239.236 237.331 237.809L237.201 229.501C237.18 227.9 236.428 226.786 234.946 226.159L213.447 217.121C212.214 216.602 211.57 215.672 211.516 214.33L210.997 200.441C210.983 200.071 211.062 199.703 211.227 199.372C211.391 199.04 211.636 198.755 211.938 198.543C212.241 198.332 212.591 198.2 212.956 198.16C213.322 198.12 213.692 198.174 214.031 198.316L221.543 201.415C222.214 201.696 222.577 202.199 222.631 202.924L223.117 209.576C223.137 209.915 223.241 210.244 223.419 210.533C223.598 210.822 223.845 211.062 224.14 211.231L236.211 218.192C237.228 218.776 237.769 218.489 237.834 217.332L237.866 216.699C237.895 216.164 237.773 215.633 237.515 215.165C237.256 214.697 236.872 214.312 236.406 214.054L228.699 209.722C227.368 208.987 226.784 207.867 226.947 206.364L227.011 205.747C227.185 204.211 227.936 203.832 229.267 204.611L244.746 213.616C245.244 213.898 245.492 214.325 245.492 214.898L245.622 344.816C245.622 345.072 245.558 345.324 245.436 345.549C245.315 345.774 245.139 345.965 244.925 346.105C244.711 346.245 244.465 346.33 244.21 346.351C243.955 346.372 243.699 346.33 243.464 346.228C236.487 343.112 223.88 335.567 219.824 329.191C214.145 320.283 224.983 308.227 230.5 319.764C230.619 320.009 230.682 320.278 230.685 320.55C230.687 320.823 230.628 321.092 230.513 321.339C230.398 321.587 230.23 321.805 230.02 321.979C229.81 322.152 229.564 322.277 229.299 322.344L227.871 322.701C227.442 322.808 227.054 323.039 226.757 323.367C226.459 323.694 226.265 324.102 226.199 324.539C226.133 324.977 226.198 325.424 226.386 325.824C226.574 326.225 226.876 326.561 227.255 326.789L236.179 332.225C236.296 332.296 236.43 332.336 236.567 332.339C236.704 332.342 236.839 332.309 236.959 332.243C237.079 332.177 237.18 332.081 237.251 331.964C237.322 331.847 237.361 331.713 237.363 331.576Z" fill="black"/>
<path fill-rule="evenodd" clip-rule="evenodd" d="M256.817 135.75L270.187 122.753C270.329 122.614 270.443 122.448 270.521 122.265C270.599 122.081 270.64 121.885 270.641 121.686C270.643 121.486 270.605 121.289 270.53 121.105C270.454 120.92 270.343 120.753 270.203 120.611L256.136 106.447C255.993 106.302 255.822 106.189 255.634 106.112C255.446 106.035 255.245 105.997 255.042 106C254.839 106.003 254.638 106.047 254.453 106.13C254.267 106.212 254.1 106.331 253.962 106.479L240.478 121.066C240.34 121.213 240.234 121.385 240.164 121.574C240.094 121.763 240.063 121.964 240.072 122.165C240.081 122.366 240.13 122.564 240.217 122.745C240.303 122.927 240.425 123.09 240.576 123.224L254.757 135.799C255.042 136.053 255.414 136.19 255.796 136.181C256.179 136.172 256.544 136.018 256.817 135.75ZM256.042 125.387C256.185 125.328 256.317 125.241 256.43 125.131L259.161 122.447C259.266 122.343 259.35 122.223 259.411 122.092C259.484 121.936 259.523 121.765 259.525 121.589C259.528 121.267 259.402 120.956 259.176 120.726L256.265 117.763C256.038 117.533 255.73 117.402 255.407 117.399C255.175 117.397 254.95 117.461 254.756 117.581C254.68 117.629 254.609 117.684 254.544 117.748L251.812 120.432C251.582 120.658 251.451 120.967 251.449 121.29C251.446 121.612 251.571 121.923 251.798 122.153L254.709 125.115C254.935 125.346 255.243 125.477 255.566 125.479C255.731 125.481 255.893 125.449 256.042 125.387Z" fill="black"/>
<path fill-rule="evenodd" clip-rule="evenodd" d="M216.464 360.021L216.475 360.033C220.967 365.639 225.409 371.182 230.24 376.212C230.51 376.493 230.7 376.823 230.808 377.202C230.895 377.494 231.073 377.802 231.343 378.127C237.444 385.72 242.252 391.345 245.768 395.001C248.905 398.257 251.566 401.529 253.751 404.818C254.768 406.332 255.865 406.392 257.045 404.996L304.439 348.791C304.501 348.719 304.558 348.643 304.609 348.565C304.657 348.493 304.7 348.419 304.739 348.343C304.815 348.195 304.876 348.039 304.919 347.877C305.01 347.54 305.024 347.187 304.962 346.843C304.9 346.499 304.763 346.173 304.561 345.887C304.358 345.601 304.095 345.363 303.79 345.189C302.557 344.497 300.989 344.405 299.085 344.913C289.079 347.574 279.198 350.651 269.441 354.145C266.661 355.14 264.173 355.8 261.977 356.125C260.517 356.341 259.787 355.714 259.787 354.243L259.771 215.498C259.771 215.227 259.735 214.959 259.666 214.699C259.619 214.521 259.556 214.348 259.478 214.18C259.286 213.768 259.006 213.403 258.657 213.112C258.571 213.04 258.48 212.972 258.387 212.91C258.262 212.827 258.131 212.753 257.996 212.689C257.825 212.608 257.646 212.543 257.462 212.495C257.23 212.434 256.992 212.401 256.754 212.396C256.661 212.394 256.569 212.396 256.477 212.402C256.418 212.406 256.359 212.412 256.301 212.419C256.24 212.427 256.18 212.436 256.12 212.448L254.773 212.707C251.625 213.292 250.051 215.184 250.051 218.386L250.003 355.119C250.003 355.142 250.001 355.165 249.999 355.188C249.992 355.248 249.977 355.306 249.955 355.361C249.923 355.438 249.876 355.508 249.817 355.567C249.759 355.625 249.689 355.672 249.612 355.704C249.535 355.735 249.453 355.752 249.37 355.752C246.536 355.73 243.788 355.222 241.127 354.226C232.47 350.995 223.492 348.306 214.607 345.645L212.489 345.01C210.072 344.28 207.427 344.491 207.167 347.542C207.137 347.885 207.175 348.23 207.281 348.557C207.313 348.655 207.351 348.751 207.395 348.844C207.458 348.98 207.533 349.109 207.619 349.231C207.649 349.274 207.681 349.316 207.715 349.358C207.737 349.386 207.76 349.413 207.784 349.44C210.77 352.915 213.625 356.478 216.46 360.016L216.464 360.021ZM262.75 381.296C262.918 381.325 263.088 381.339 263.259 381.339C263.509 381.339 263.757 381.308 263.998 381.247C264.042 381.236 264.085 381.223 264.128 381.21C264.221 381.182 264.312 381.149 264.402 381.112C264.764 380.962 265.093 380.742 265.37 380.465C265.648 380.188 265.868 379.859 266.018 379.496C266.168 379.134 266.245 378.746 266.245 378.354C266.245 377.562 265.93 376.803 265.37 376.243C264.811 375.683 264.051 375.368 263.259 375.368C262.468 375.368 261.708 375.683 261.148 376.243C260.588 376.803 260.274 377.562 260.274 378.354C260.274 378.746 260.351 379.134 260.501 379.496C260.651 379.859 260.871 380.188 261.148 380.465C261.425 380.742 261.755 380.962 262.117 381.112C262.221 381.155 262.327 381.192 262.435 381.224C262.513 381.246 262.591 381.265 262.67 381.281L262.75 381.296ZM247.072 368.1L247.066 368.151C247.054 368.244 247.038 368.335 247.017 368.423C247.007 368.467 246.979 368.435 246.936 368.326C246.731 367.796 246.596 367.32 246.531 366.898C246.501 366.709 246.498 366.516 246.522 366.328C246.547 366.13 246.602 365.936 246.685 365.753C246.719 365.678 246.758 365.605 246.8 365.536C246.961 365.271 247.181 365.046 247.445 364.879C247.612 364.773 247.793 364.693 247.982 364.639C248.17 364.586 248.366 364.559 248.564 364.561C248.961 364.566 249.348 364.684 249.678 364.903C251.712 366.266 253.086 368.164 253.8 370.598C253.87 370.844 254.008 371.066 254.199 371.236C254.39 371.406 254.626 371.519 254.88 371.562C255.134 371.604 255.396 371.574 255.635 371.475C255.875 371.377 256.082 371.213 256.233 371.003L261.328 363.88C261.474 363.674 261.67 363.509 261.897 363.399C262.125 363.288 262.376 363.237 262.63 363.25C262.883 363.263 263.13 363.339 263.348 363.472C263.464 363.543 263.569 363.628 263.662 363.726C263.744 363.812 263.815 363.907 263.876 364.01L264.168 364.513C264.446 364.992 264.574 365.543 264.537 366.095C264.499 366.648 264.297 367.176 263.957 367.612L256.006 377.818C255.935 377.912 255.843 377.988 255.738 378.041C255.675 378.072 255.608 378.095 255.539 378.108C255.493 378.117 255.445 378.121 255.398 378.121C255.28 378.121 255.164 378.094 255.058 378.041C254.952 377.988 254.86 377.912 254.789 377.818L247.228 367.953C247.142 367.834 247.093 367.845 247.082 367.985C247.079 368.024 247.076 368.062 247.072 368.1ZM245.083 379.061C245.311 379.59 245.723 379.975 246.229 380.132C246.734 380.288 247.292 380.203 247.779 379.895C248.266 379.587 248.643 379.082 248.826 378.49C249.009 377.898 248.984 377.268 248.756 376.739C248.636 376.461 248.466 376.223 248.258 376.036C248.069 375.868 247.85 375.742 247.61 375.668C247.105 375.511 246.547 375.596 246.06 375.904C245.573 376.212 245.196 376.718 245.013 377.31C244.83 377.902 244.855 378.532 245.083 379.061Z" fill="black"/>
</svg>
