<svg width="512" height="512" viewBox="0 0 512 512" fill="none" xmlns="http://www.w3.org/2000/svg">
<rect width="512" height="512" fill="white"/>
<path d="M255.917 171.876C256.336 173.743 256.725 173.737 257.084 171.858C260.296 155.219 271.407 139.173 288.494 134.453C290.014 134.022 291.312 133.938 292.389 134.201C294.411 134.704 294.429 135.272 292.443 135.906C273.471 141.955 263.276 159.114 256.599 176.578C256.431 177.021 256.282 177.015 256.15 176.56C251.286 159.258 237.196 139.46 218.224 136.032C217.901 135.972 217.758 135.781 217.794 135.458L217.919 134.489C217.955 134.165 218.141 134.01 218.476 134.022C223.92 134.189 228.198 135.165 231.309 136.948C245.04 144.755 252.471 156.619 255.917 171.876Z" fill="black"/>
<path d="M231.633 170.261C224.04 164.786 216.017 164.302 207.043 163.422C201.066 162.83 192.971 160.425 194.281 152.545C196.184 141.04 210.094 141.632 218.405 144.756C241.576 153.479 252.938 176.435 255.756 199.607C255.971 201.342 256.252 201.354 256.599 199.643C257.7 194.318 259.052 188.808 260.656 183.112C266.902 160.963 284.923 140.556 309.01 143.158C316.477 143.966 322.112 152.671 316.1 159.186C313.389 162.13 310.894 163.045 306.641 163.297C298.079 163.781 289.518 164.607 281.907 168.897C281.584 169.076 281.381 169.298 281.297 169.561C281.129 170.051 281.291 170.195 281.782 169.992C294.776 164.499 314.628 166.868 319.312 182.448C320.222 185.451 319.707 185.721 317.769 183.256C315.543 180.432 312.019 178.589 307.197 177.728C279.287 172.756 258.753 195.533 258.771 222.115C258.783 251.67 257.981 280.628 256.366 308.987C256.151 312.672 255.804 312.684 255.325 309.023C254.93 305.971 254.601 302.124 254.338 297.482C253.105 275.429 252.429 253.364 252.31 231.287C252.238 217.825 251.394 208.785 249.779 204.166C242.887 184.458 222.353 172.02 201.389 178.589C197.931 179.666 195.699 180.767 194.694 181.892C191.942 185.015 191.356 184.65 192.935 180.797C199.163 165.72 218.404 164.338 231.363 170.692C231.392 170.709 231.423 170.721 231.456 170.727C231.489 170.732 231.523 170.731 231.555 170.724C231.588 170.716 231.618 170.702 231.646 170.683C231.673 170.664 231.696 170.639 231.713 170.611C231.731 170.583 231.743 170.551 231.749 170.518C231.754 170.485 231.753 170.452 231.746 170.419C231.738 170.387 231.724 170.356 231.705 170.329C231.686 170.302 231.661 170.278 231.633 170.261Z" fill="black"/>
<path d="M234.791 205.728C228.533 201.899 222.466 202.013 216.591 206.069C207.67 212.225 205.032 230.192 218.709 232.741C219.175 232.826 219.606 233.047 219.949 233.375C220.291 233.703 220.53 234.125 220.635 234.587C220.74 235.05 220.707 235.533 220.54 235.977C220.373 236.421 220.08 236.806 219.696 237.084C218.511 237.946 217.004 238.7 215.46 238.79C177.247 241.141 183.224 178.607 219.265 181.677C232.26 182.789 243.514 192.266 247.768 204.561C250.263 211.741 249.671 221.02 248.576 228.666C247.822 233.955 247.241 233.997 246.835 228.792C245.901 216.73 230.483 209.228 219.624 210.825C216.238 211.316 215.903 210.514 218.619 208.42C223.465 204.675 228.778 203.939 234.558 206.213C234.621 206.24 234.693 206.241 234.758 206.217C234.823 206.192 234.876 206.144 234.906 206.082C234.936 206.019 234.94 205.948 234.919 205.882C234.898 205.816 234.852 205.761 234.791 205.728Z" fill="black"/>
<path d="M273.597 207.917C280.226 203.837 286.808 203.915 293.341 208.151C296.919 210.472 296.584 211.411 292.336 210.969C278.276 209.497 268.727 215.133 263.69 227.876C263.39 228.654 262.972 228.72 262.433 228.074C262.11 227.691 261.925 227.045 261.877 226.135C261.087 211.346 263.779 197.687 275.733 188.353C287.041 179.522 304.684 179.217 314.718 190.184C326.061 202.604 328.018 225.938 311.792 235.774C306.964 238.699 297.379 240.584 292.443 236.474C292.164 236.242 291.954 235.939 291.836 235.596C291.719 235.253 291.697 234.884 291.775 234.53C291.853 234.176 292.027 233.85 292.278 233.588C292.529 233.326 292.847 233.139 293.197 233.046C317.679 226.584 295.118 190.363 273.31 207.505C273.255 207.543 273.218 207.601 273.206 207.667C273.194 207.732 273.209 207.8 273.247 207.855C273.285 207.909 273.344 207.947 273.409 207.958C273.475 207.97 273.543 207.955 273.597 207.917Z" fill="black"/>
<path d="M341.892 209.586C341.652 209.203 341.533 208.976 341.533 208.904C341.544 208.342 341.754 208.264 342.161 208.671C359.535 226.171 352.966 253.166 328.825 259.538C328.119 259.717 327.485 259.687 326.922 259.448C326.795 259.395 326.686 259.305 326.609 259.19C326.532 259.075 326.491 258.94 326.491 258.802C326.491 258.664 326.532 258.528 326.609 258.413C326.686 258.298 326.795 258.209 326.922 258.156C346.809 249.397 353.504 228.289 341.892 209.586Z" fill="black"/>
<path d="M187.82 258.389C188.753 258.88 188.693 259.065 187.64 258.946C162.422 256.11 152.173 227.625 169.871 209.586C170.888 208.545 171.074 208.677 170.427 209.981C163.948 223.048 163.392 235.666 172.204 247.028C176.279 252.251 181.645 255.176 187.82 258.389Z" fill="black"/>
<path d="M284.976 226.153C272.107 228.432 270.94 236.097 268.176 246.65C267.614 248.768 267.076 248.762 266.561 246.632C265.053 240.35 265.418 233.967 267.656 227.481C270.241 220.015 280.687 211.112 287.328 220.391C287.689 220.897 287.916 221.486 287.988 222.103C288.06 222.72 287.975 223.345 287.74 223.92C287.506 224.496 287.129 225.002 286.646 225.392C286.162 225.783 285.588 226.044 284.976 226.153Z" fill="black"/>
<path d="M244.214 246.92C243.317 237.497 237.717 228.271 227.307 226.009C226.881 225.919 226.479 225.741 226.126 225.487C225.773 225.233 225.477 224.908 225.256 224.534C225.035 224.159 224.894 223.743 224.842 223.311C224.79 222.879 224.829 222.441 224.955 222.025L225.278 220.984C225.678 219.664 226.541 218.534 227.709 217.801C228.877 217.069 230.271 216.784 231.632 216.999C244.825 219.027 248.055 236.797 245.453 247.01C244.855 249.355 244.442 249.325 244.214 246.92Z" fill="black"/>
<path d="M331.751 229.671C333.043 227.141 334.802 223.784 334.82 221.02C334.82 220.984 334.838 220.972 334.874 220.984C334.874 220.984 334.88 220.984 334.892 220.984C334.976 220.996 335.018 221.002 335.018 221.002L333.367 230.533C333.319 230.844 333.157 230.916 332.882 230.748L331.913 230.174C331.697 230.054 331.643 229.887 331.751 229.671Z" fill="black"/>
<path d="M210.739 246.471C210.955 246.531 211.182 246.555 211.421 246.543V246.561C209.507 246.884 207.616 246.747 205.75 246.148C194.609 242.618 187.256 235.702 183.691 225.4C182.757 222.683 182.913 222.623 184.157 225.22C189.279 235.834 198.139 242.917 210.739 246.471Z" fill="black"/>
<path d="M329.364 226.118L329.795 226.315C329.891 226.351 329.92 226.423 329.885 226.53C326.115 238.089 318.469 245.658 306.946 249.236C306.731 249.295 306.581 249.224 306.497 249.02L306.318 248.554C306.27 248.47 306.294 248.404 306.39 248.356C317.518 243.259 324.177 237.551 328.897 226.297C328.993 226.07 329.149 226.01 329.364 226.118Z" fill="black"/>
<path d="M318.972 254.979C329.729 248.59 335.808 239.125 337.208 226.584C337.255 226.225 337.453 226.058 337.8 226.082L338.266 226.1C338.314 226.1 338.338 226.124 338.338 226.172C338.195 239.813 332.17 249.858 320.264 256.308C320.162 256.362 320.045 256.384 319.927 256.371C319.809 256.358 319.695 256.311 319.6 256.236L318.918 255.697C318.583 255.434 318.601 255.195 318.972 254.979Z" fill="black"/>
<path d="M209.807 251.659C209.962 251.707 210.016 251.808 209.968 251.964V251.982C209.92 252.137 209.813 252.197 209.645 252.161C200.408 250.163 193.037 245.795 187.532 239.059C186.168 237.395 183.596 233.65 179.814 227.823C179.683 227.619 179.713 227.452 179.904 227.32L180.353 227.015C180.52 226.907 180.658 226.931 180.766 227.087C188.555 238.843 196.309 246.687 209.807 251.659Z" fill="black"/>
<path d="M197.512 251.515C187.365 246.561 180.12 238.789 175.776 228.199C175.728 228.087 175.725 227.961 175.768 227.847C175.812 227.733 175.899 227.64 176.01 227.589L176.404 227.392C176.44 227.38 176.47 227.398 176.494 227.446C182.956 239.591 192.499 248.368 205.122 253.776C205.41 253.896 205.541 254.004 205.517 254.1L205.499 254.118C205.428 254.369 205.26 254.458 204.997 254.387C202.424 253.657 199.929 252.7 197.512 251.515Z" fill="black"/>
<path d="M169.404 228.72C172.921 244.174 185.27 253.938 199.863 258.264C200.138 258.347 200.239 258.527 200.168 258.802L200.15 258.82C200.066 259.095 199.886 259.191 199.611 259.107C195.986 257.958 192.055 257.528 188.86 256.271C176.882 251.557 170.014 242.481 168.255 229.043C168.246 228.972 168.254 228.901 168.276 228.833C168.298 228.766 168.335 228.705 168.383 228.655C168.432 228.604 168.491 228.566 168.556 228.543C168.62 228.521 168.689 228.513 168.757 228.523L169.26 228.594C169.332 228.606 169.38 228.648 169.404 228.72Z" fill="black"/>
<path d="M202.089 256.307C202.855 256.559 203.644 256.654 204.458 256.594C205.319 256.523 205.373 256.696 204.62 257.115C203.435 257.773 202.388 257.659 201.479 256.774C201.06 256.379 200.575 256.104 200.025 255.948C187.532 252.538 178.648 244.856 173.371 232.902C173 232.088 172.808 230.946 172.796 229.474C172.784 228.923 172.91 228.888 173.173 229.366C174.519 231.861 175.417 234.715 177.032 236.869C182.004 243.474 191.319 252.341 199.504 254.566C199.971 254.698 200.348 254.943 200.635 255.302C201.03 255.769 201.514 256.104 202.089 256.307Z" fill="black"/>
<path d="M325.845 256.864C322.614 258.359 319.426 258.635 316.279 257.689C315.417 257.426 315.387 257.085 316.189 256.666C317.098 256.2 317.846 256.349 318.432 257.115C318.657 257.405 318.974 257.611 319.332 257.699C319.69 257.786 320.069 257.752 320.407 257.6C331.595 252.478 338.762 244.12 341.909 232.525C342.071 231.915 342.143 230.335 342.43 229.366C342.633 228.72 342.801 228.732 342.932 229.402C345.409 241.823 336.453 251.964 325.845 256.864Z" fill="black"/>
<path d="M329.632 234.194C329.74 233.428 329.974 232.836 330.333 232.417C330.835 231.831 331.152 231.92 331.284 232.686C331.404 233.32 331.762 233.769 332.361 234.032C332.628 234.153 332.846 234.363 332.977 234.628C333.107 234.893 333.144 235.196 333.079 235.486C332.48 238.238 331.17 240.943 329.148 243.599C324.469 249.714 318.702 253.962 311.845 256.343C311.51 256.462 311.277 256.355 311.145 256.02L310.966 255.589C310.894 255.409 310.948 255.278 311.127 255.194C320.185 251.329 326.88 244.999 331.212 236.204C331.475 235.666 331.433 235.151 331.086 234.661C330.871 234.373 330.386 234.218 329.632 234.194Z" fill="black"/>
<path d="M305.94 244.73C312.365 242.708 317.577 238.992 321.573 233.584C321.693 233.428 321.836 233.404 322.004 233.512C322.136 233.608 322.154 233.727 322.058 233.871C318.432 239.722 313.233 243.563 306.46 245.394C306.281 245.442 306.155 245.382 306.083 245.214L305.904 244.784C305.892 244.76 305.904 244.742 305.94 244.73Z" fill="black"/>
<path d="M329.633 234.194C329.74 235.259 329.483 236.276 328.861 237.246C326.862 240.345 324.673 243.306 322.292 246.13C318.893 250.151 313.162 253.065 305.097 254.871C304.976 254.895 304.851 254.873 304.745 254.81C304.639 254.747 304.56 254.648 304.522 254.53L304.397 254.1C304.373 254.004 304.409 253.944 304.504 253.92C317.104 250.492 322.525 243.402 329.633 234.194Z" fill="black"/>
<path d="M265.717 268.081C264.246 270.068 263.055 271.593 262.146 272.658C261.583 273.328 261.386 273.233 261.553 272.371C264.479 257.869 280.166 250.348 292.91 253.992C296.105 254.913 296.045 255.505 292.73 255.769C282.284 256.594 272.161 259.466 265.717 268.081Z" fill="black"/>
<path d="M250.425 271.958C251.633 275.943 251.185 276.14 249.079 272.551C242.563 261.44 230.915 257.617 218.261 255.715C216.586 255.463 216.55 255.069 218.153 254.53C231.381 250.097 246.368 258.676 250.425 271.958Z" fill="black"/>
<path d="M226.983 264.133C238.901 264.833 249.958 279.82 251.788 290.697C251.824 290.889 251.747 291.015 251.555 291.074H251.537C251.334 291.122 251.202 291.05 251.142 290.859C247.391 280.215 238.129 267.902 226.876 264.797C224.782 264.223 224.817 264.002 226.983 264.133Z" fill="black"/>
<path d="M285.102 264.671C273.956 267.992 265.358 276.374 261.607 287.7C260.614 290.679 260.255 290.607 260.53 287.484C261.427 277.128 274.351 264.097 284.994 263.953C286.789 263.918 286.825 264.157 285.102 264.671Z" fill="black"/>
<path d="M274.44 309.381C286.807 297.661 313.909 294.322 322.166 313.061C323.434 315.933 322.92 316.298 320.622 314.156C318.396 312.11 315.112 310.656 312.007 309.92C288.619 304.32 266.453 319.522 265.95 343.663C265.783 351.477 268.523 358.519 274.171 364.789C274.314 364.945 274.47 364.957 274.637 364.825C274.805 364.682 274.829 364.526 274.709 364.358C265.986 351.902 264.604 333.971 276.091 322.34C289.912 308.358 310.75 310.979 321.053 327.061C327.389 336.951 327.371 351.669 317.93 360.194C308.291 368.899 288.691 364.287 294.794 348.725C296.858 343.484 304.755 342.999 309.44 342.138C309.978 342.042 310.397 341.761 310.696 341.294C311.079 340.696 311.343 340.068 311.486 339.41C311.821 337.866 312.366 337.788 313.12 339.176C315.19 342.993 315.728 346.996 314.735 351.184C313.981 354.403 314.693 354.768 316.871 352.279C320.329 348.306 321.31 343.837 319.814 338.871C315.489 324.566 296.732 323.274 286.573 330.884C277.186 337.92 275.804 352.064 280.543 362.33C284.294 370.443 291.312 373.279 301.65 374.141C302.536 374.212 302.614 374.506 301.884 375.02C300.304 376.145 298.342 376.851 295.996 377.138C271.353 380.135 257.299 354.487 257.73 332.894C258.107 314.12 261.248 295.363 274.871 280.807C283.055 272.066 297.899 265.497 309.907 269.553C323.153 274.022 314.232 284.181 304.989 284.325C300.382 284.397 295.093 285.366 289.122 287.233C288.966 287.28 288.907 287.382 288.943 287.538L288.96 287.556C288.996 287.699 289.092 287.759 289.248 287.735C305.096 285.222 325.72 292.169 326.204 310.458C326.264 312.971 325.743 313.097 324.643 310.835C315.094 291.092 286.196 294.681 273.919 308.897C273.87 308.968 273.847 309.054 273.856 309.141C273.865 309.227 273.905 309.307 273.969 309.366C274.032 309.425 274.115 309.459 274.201 309.462C274.288 309.465 274.373 309.436 274.44 309.381Z" fill="black"/>
<path d="M236.873 365.418C242.772 358.98 245.494 351.137 245.04 341.887C243.64 313.42 212.032 301.754 189.219 313.349C187.699 314.114 187.352 313.755 188.178 312.272C195.788 298.702 212.66 297.284 226.211 302.418C229.263 303.566 232.26 305.864 235.275 307.408C236.807 308.185 236.927 308.012 235.634 306.887C226.516 298.918 216.118 295.783 204.439 297.482C195.764 298.75 189.536 303.327 185.755 311.213C185.444 311.847 185.103 311.865 184.732 311.266C184.445 310.812 184.349 310.231 184.445 309.525C187.155 289.046 209.878 284.325 226.965 289.225C227.157 289.285 227.282 289.225 227.342 289.046V289.028C227.402 288.848 227.342 288.729 227.163 288.669C219.253 285.845 211.086 284.397 202.663 284.325C199.791 284.289 195.788 280.448 195.483 277.218C194.604 267.956 211.332 268.082 216.95 269.338C253.601 277.577 263.76 339.787 242.993 365.579C236.083 374.159 221.706 381.464 210.632 376.097C207.521 374.59 207.688 373.8 211.134 373.728C213.743 373.68 216.908 373.148 220.629 372.131C234.288 368.379 235.491 350.431 231.309 339.679C223.699 320.079 186.006 321.066 191.606 346.805C192.396 350.455 194.077 353.237 196.65 355.151C197.009 355.414 197.374 355.456 197.745 355.277C198.307 355.002 198.415 354.613 198.068 354.11C194.454 348.809 194.574 343.55 198.427 338.333C198.527 338.197 198.666 338.094 198.826 338.04C198.986 337.985 199.16 337.981 199.322 338.028C199.485 338.075 199.629 338.171 199.735 338.302C199.841 338.434 199.905 338.595 199.916 338.764L200.042 340.487C200.084 341.053 200.316 341.588 200.7 342.005C201.085 342.422 201.599 342.697 202.16 342.784C208.873 343.808 215.998 343.52 217.506 351.651C219.032 359.908 212.983 365.131 204.709 364.538C188.304 363.354 182.309 346.661 186.778 332.787C191.211 319.092 205.445 311.069 219.534 313.941C244.268 318.984 248.504 346.446 236.424 365.059C236.377 365.118 236.355 365.194 236.363 365.27C236.371 365.346 236.41 365.415 236.469 365.463C236.529 365.51 236.605 365.532 236.68 365.524C236.756 365.516 236.825 365.477 236.873 365.418Z" fill="black"/>
<path d="M261.912 377.856C263.898 382.487 267.063 386.095 271.407 388.679C271.647 388.824 271.918 388.913 272.198 388.938C272.478 388.963 272.76 388.923 273.022 388.823C274.386 388.308 275.774 388.219 277.186 388.554C277.484 388.622 277.747 388.798 277.926 389.049C278.104 389.3 278.186 389.609 278.155 389.918C277.653 395.213 270.222 393.346 267.53 390.977C260.799 385.09 258.807 375.702 255.396 367.787C255.097 367.093 254.786 367.093 254.463 367.787C252.62 371.807 250.873 376.6 249.222 382.164C247.535 387.854 239.727 397.995 233.23 390.869C233.003 390.623 232.858 390.312 232.815 389.981C232.772 389.649 232.833 389.312 232.99 389.014C233.147 388.717 233.391 388.474 233.691 388.317C233.991 388.161 234.331 388.1 234.666 388.141L236.945 388.428C237.531 388.512 238.1 388.428 238.65 388.177C243.317 386.107 246.302 383.097 247.607 379.148C250.335 370.91 253.296 363.318 254.912 354.72C255.043 354.038 254.792 353.841 254.158 354.128C254.002 354.212 253.847 354.319 253.691 354.451C253.548 354.583 253.446 354.756 253.386 354.972C251.137 363.049 246.679 369.606 240.014 374.643C239.775 374.823 239.56 374.799 239.368 374.572H239.35C239.159 374.344 239.165 374.129 239.368 373.925C247.804 365.364 250.227 358.759 255.289 349.928C255.337 349.844 255.408 349.776 255.493 349.729C255.577 349.682 255.672 349.659 255.767 349.663C255.863 349.666 255.954 349.697 256.031 349.75C256.108 349.803 256.168 349.877 256.204 349.964C258.394 355.061 259.884 360.787 262.953 365.005C265.944 369.121 269.594 372.633 273.902 375.541C273.973 375.589 273.979 375.643 273.919 375.702L273.471 376.133C273.361 376.232 273.223 376.293 273.078 376.31C272.933 376.326 272.788 376.295 272.663 376.223C265.675 371.939 260.835 365.932 258.143 358.202C257.975 357.712 257.706 357.335 257.335 357.072C256.856 356.725 256.617 356.844 256.617 357.431C256.707 367.284 261.696 377.515 271.604 379.113C273.698 379.46 274.009 380.393 272.537 381.913C271.52 382.966 270.049 383.037 268.122 382.128C266.004 381.123 264.604 378.879 262.612 377.318C261.69 376.588 261.457 376.767 261.912 377.856Z" fill="black"/>
<path d="M255.953 376.026C256.635 382.846 258.681 389.236 262.092 395.195C262.178 395.353 262.22 395.53 262.214 395.708C262.208 395.885 262.153 396.055 262.056 396.2L255.953 405.82C255.81 406.06 255.66 406.06 255.504 405.82C253.548 402.805 248.217 397.367 249.671 393.472C251.992 387.249 253.716 381.416 254.84 375.972C255.343 373.531 255.714 373.549 255.953 376.026Z" fill="black"/>
<path d="M247.535 376.474C245.369 379.884 243.281 381.93 241.271 382.612C239.153 383.318 237.855 382.804 237.376 381.069C236.945 379.561 237.489 379.005 239.009 379.399C242.725 380.351 243.981 376.384 246.584 375.325C248.079 374.715 248.396 375.098 247.535 376.474Z" fill="black"/>
<path fill-rule="evenodd" clip-rule="evenodd" d="M252.553 137.407C253.169 139.212 253.757 140.937 254.194 142.494C254.266 142.781 254.164 142.966 253.889 143.05H253.871C253.813 143.068 253.738 143.03 253.661 142.943C253.584 142.856 253.511 142.727 253.458 142.584C251.448 137.163 249.049 131.922 246.261 126.86C246.172 126.706 246.037 126.582 245.874 126.507C245.711 126.432 245.53 126.41 245.356 126.444C245.182 126.478 245.024 126.566 244.906 126.696C244.788 126.826 244.716 126.99 244.699 127.166C244.174 131.737 249.338 143.021 252.286 149.466C252.764 150.51 253.184 151.427 253.512 152.168C254.163 153.649 254.619 155.303 255.083 156.985C255.462 158.361 255.847 159.756 256.348 161.089C256.731 162.082 257.078 162.07 257.389 161.053C257.818 159.654 258.213 158.254 258.605 156.863C259.541 153.541 260.463 150.271 261.804 147.196C262.163 146.366 262.67 145.272 263.252 144.018C265.701 138.735 269.476 130.595 269.056 127.201C268.78 125.036 268.164 124.928 267.207 126.878L260.53 140.376C260.398 140.639 260.261 140.741 260.117 140.681H260.099C259.86 140.597 259.782 140.43 259.866 140.178C261.182 136.002 262.468 131.802 263.725 127.578C265.528 121.463 261.115 113.18 258.103 107.526C257.906 107.157 257.715 106.798 257.532 106.453C257.465 106.32 257.363 106.207 257.237 106.128C257.111 106.048 256.965 106.004 256.816 106C256.667 105.997 256.52 106.033 256.39 106.107C256.26 106.18 256.152 106.287 256.079 106.417C253.368 110.994 249.94 117.258 249.42 122.607C248.986 126.944 250.871 132.474 252.553 137.407Z" fill="black"/>
</svg>
