<svg width="512" height="512" viewBox="0 0 512 512" fill="none" xmlns="http://www.w3.org/2000/svg">
<rect width="512" height="512" fill="white"/>
<path d="M257.894 148.113C257.395 155.481 257.177 162.858 257.24 170.245C257.24 170.379 257.199 170.51 257.123 170.62C257.047 170.73 256.939 170.815 256.814 170.864C256.689 170.913 256.552 170.922 256.422 170.892C256.291 170.862 256.173 170.793 256.082 170.695C247.728 161.237 242.508 153.905 244.73 140.74C245.752 134.689 249.513 128.106 252.457 122.246C253.919 119.321 255.746 114.128 257.935 106.669C257.99 106.478 258.072 106.328 258.181 106.219C258.335 106.083 258.489 106.01 258.644 106.001C258.742 105.996 258.841 106.009 258.934 106.041C259.027 106.073 259.113 106.123 259.187 106.187C259.26 106.252 259.32 106.33 259.362 106.417C259.405 106.505 259.429 106.599 259.434 106.696C260.075 115.364 264.436 124.754 270.037 136.542C270.555 137.632 271.105 139.663 271.686 142.634C273.989 154.422 266.862 163.69 260.211 172.316C259.512 173.234 259.157 173.116 259.148 171.962C259.085 164.003 258.762 156.053 258.181 148.113C258.081 146.813 257.985 146.813 257.894 148.113Z" fill="black"/>
<path d="M170.906 176.05C181.168 189.011 190.953 202.326 201.079 215.382C201.878 216.408 202.369 217.312 202.551 218.094C202.759 219.011 202.414 219.334 201.515 219.061C186.156 214.482 166.613 204.643 161.802 187.948C159.04 178.363 158.595 168.855 160.466 159.424C160.739 158.07 161.103 158.048 161.557 159.356C163.583 165.171 166.699 170.735 170.906 176.05Z" fill="black"/>
<path d="M351.276 256.566L359.412 254.399C359.456 254.389 359.501 254.388 359.546 254.395C359.59 254.403 359.632 254.419 359.67 254.443C359.708 254.467 359.741 254.499 359.767 254.536C359.793 254.573 359.811 254.614 359.821 254.658L359.916 255.067C359.925 255.121 359.903 255.153 359.848 255.162C358.64 255.335 357.663 255.821 356.918 256.621C356.455 257.12 356.564 257.32 357.245 257.22C366.412 255.839 375.234 253.3 383.711 249.602C384.583 249.22 384.815 249.461 384.406 250.324C381.353 256.73 378.532 262.78 374.512 268.804C371.637 273.097 361.688 271.353 357.313 270.862C347.11 269.699 336.975 269.458 326.909 270.14C326.791 270.148 326.673 270.124 326.568 270.072C326.462 270.02 326.372 269.94 326.307 269.842C326.242 269.744 326.204 269.63 326.197 269.512C326.191 269.395 326.215 269.277 326.268 269.172C328.49 264.716 330.983 259.946 334.486 256.621C337.498 253.759 347.215 247.04 351.562 248.907C351.962 249.08 351.957 249.239 351.549 249.384C348.678 250.392 346.302 251.551 344.421 252.859C342.549 254.149 342.686 254.413 344.83 253.65C347.11 252.841 349.713 252.014 352.639 251.169C355.923 250.229 358.662 250.61 361.947 250.924C363.183 251.033 363.196 251.233 361.988 251.524C358.099 252.45 354.438 253.913 351.003 255.912C349.486 256.793 349.577 257.011 351.276 256.566Z" fill="black"/>
<path d="M189.059 273.779C180.8 281.124 170.906 287.38 159.704 288.783C154.593 289.424 145.735 279.271 142.491 275.687C142.291 275.459 142.255 275.187 142.382 274.869C142.435 274.731 142.528 274.611 142.648 274.524C142.769 274.437 142.914 274.386 143.064 274.378C158.518 273.792 173.359 271.326 188.923 273.315C188.972 273.32 189.019 273.34 189.057 273.372C189.095 273.404 189.123 273.447 189.138 273.496C189.152 273.544 189.152 273.597 189.138 273.647C189.124 273.697 189.097 273.743 189.059 273.779Z" fill="black"/>
<path d="M368.801 273.697C369.523 273.656 370.3 273.302 371.145 273.52C371.234 273.543 371.316 273.586 371.384 273.646C371.453 273.706 371.507 273.782 371.542 273.867C371.576 273.951 371.59 274.043 371.583 274.134C371.575 274.226 371.547 274.314 371.499 274.392C368.542 279.244 359.711 290.351 353.224 289.056C343.157 287.066 334.244 282.342 326.485 274.883C326.348 274.756 326.252 274.591 326.21 274.41C326.168 274.228 326.182 274.038 326.25 273.865C326.318 273.691 326.436 273.542 326.59 273.436C326.744 273.331 326.926 273.275 327.112 273.274C331.182 273.193 335.312 273.079 339.5 272.934C348.999 272.593 358.893 274.133 368.801 273.697Z" fill="black"/>
<path d="M322.833 326.629C313.988 327.583 305.143 327.924 296.285 329.068C296.173 329.083 296.059 329.07 295.953 329.03C295.847 328.99 295.752 328.925 295.677 328.841C295.601 328.756 295.548 328.654 295.521 328.544C295.494 328.434 295.494 328.32 295.522 328.21C297.948 318.902 307.038 310.888 315.378 308.476C324.591 305.805 337.388 310.956 347.623 315.44C348.122 315.667 348.222 316.008 347.923 316.462C345.701 319.747 337.701 322.581 334.199 323.958C330.846 325.275 327.058 326.165 322.833 326.629Z" fill="black"/>
<path d="M221.344 328.946C212.145 327.869 202.796 327.978 193.542 326.506C185.365 325.198 177.665 321.464 170.592 317.13C170.455 317.046 170.343 316.925 170.27 316.782C170.196 316.639 170.163 316.479 170.174 316.319C170.185 316.16 170.241 316.007 170.334 315.878C170.427 315.75 170.554 315.65 170.701 315.59C178.319 312.374 187.75 307.89 196.268 308.122C207.62 308.408 217.105 318.316 221.971 328.06C222.021 328.159 222.044 328.271 222.035 328.382C222.027 328.494 221.989 328.601 221.924 328.692C221.86 328.783 221.772 328.855 221.669 328.9C221.567 328.944 221.454 328.96 221.344 328.946Z" fill="black"/>
<path d="M312.775 331.903L312.421 331.998C312.31 332.027 312.209 332.083 312.125 332.16C312.041 332.237 311.977 332.334 311.939 332.442C311.901 332.55 311.891 332.665 311.908 332.778C311.926 332.891 311.971 332.997 312.039 333.089C319.644 343.074 329.711 348.552 342.24 349.524C343.621 349.633 343.739 350.074 342.594 350.846C338.051 353.945 333.018 356.516 327.494 358.56C317.772 362.149 309.841 359.964 303.699 352.005C299.347 346.372 296.372 340.048 294.772 333.034C294.751 332.947 294.748 332.855 294.764 332.766C294.78 332.677 294.815 332.592 294.866 332.516C294.918 332.441 294.984 332.376 295.062 332.327C295.139 332.278 295.227 332.245 295.318 332.23C302.35 331.131 309.432 330.154 316.564 329.3C324.541 328.346 330.46 327.183 334.322 325.811C340.091 323.758 345.515 320.946 350.594 317.375C350.975 317.103 351.384 317.048 351.82 317.212C358.971 319.928 366.375 321.373 374.034 321.546C374.125 321.547 374.214 321.573 374.291 321.622C374.368 321.671 374.43 321.741 374.469 321.823C374.509 321.905 374.525 321.996 374.516 322.087C374.506 322.178 374.472 322.264 374.416 322.336C367.575 331.045 359.548 339.835 349.749 344.646C337.715 350.533 322.479 341.62 314.67 332.489C314.161 331.899 313.529 331.703 312.775 331.903Z" fill="black"/>
<path d="M204.758 331.481C203.668 331.472 202.705 331.885 201.869 332.721C188.922 345.709 173.645 353.395 158.109 338.063C153.084 333.112 148.156 328.069 143.322 322.936C143.265 322.876 143.226 322.801 143.21 322.72C143.194 322.638 143.201 322.554 143.231 322.477C143.261 322.4 143.313 322.333 143.379 322.284C143.446 322.235 143.526 322.205 143.608 322.2C151.167 321.664 158.504 320.11 165.618 317.539C165.95 317.416 166.307 317.367 166.663 317.398C167.018 317.429 167.364 317.537 167.676 317.716C176.343 322.759 185.815 327.828 195.982 329.082C202.887 329.945 209.787 330.781 216.683 331.59C217.828 331.717 219.177 332.108 220.73 332.762C221.176 332.953 221.344 333.28 221.235 333.743C218.441 345.545 209.255 362.076 194.591 359.691C187.178 358.483 180.727 355.666 175.239 351.242C174.086 350.315 174.244 349.774 175.716 349.62C188.209 348.275 197.976 342.392 205.017 331.971C205.049 331.924 205.068 331.869 205.071 331.812C205.075 331.755 205.062 331.698 205.036 331.648C205.009 331.597 204.969 331.555 204.92 331.526C204.871 331.496 204.815 331.481 204.758 331.481Z" fill="black"/>
<path fill-rule="evenodd" clip-rule="evenodd" d="M296.395 202.044L296.395 202.044L296.395 202.044C295.971 203.255 295.542 204.479 294.99 205.665C294.791 206.083 294.704 206.064 294.732 205.61C295.013 200.431 296.59 195.707 299.461 191.437C299.529 191.335 299.565 191.215 299.564 191.093C299.564 190.971 299.527 190.851 299.458 190.75C299.389 190.649 299.291 190.571 299.178 190.526C299.064 190.48 298.94 190.47 298.82 190.496C298.611 190.533 298.393 190.66 298.166 190.878C284.728 203.457 277.097 222.727 287.359 239.912C287.731 240.521 287.677 241.089 287.195 241.616C275.066 254.944 266.403 270.249 261.206 287.529C260.87 288.629 260.706 288.606 260.715 287.461L260.838 221.078C260.839 220.669 260.98 220.272 261.238 219.955C261.496 219.637 261.855 219.418 262.255 219.334C279.045 215.831 288.163 198.21 289.716 182.51C291.447 165.189 284.633 151.233 274.194 137.523C273.603 136.76 273.358 136.856 273.458 137.81C273.564 138.887 273.897 139.961 274.222 141.007L274.222 141.007C274.566 142.118 274.901 143.197 274.943 144.215C275.42 156.494 270.133 165.679 261.847 174.279C258.794 177.438 258.973 185.849 259.107 192.143V192.144V192.144C259.145 193.941 259.18 195.566 259.135 196.847C259.12 197.282 259.007 197.741 258.891 198.218C258.69 199.04 258.475 199.916 258.726 200.813C258.862 201.285 259.107 201.349 259.462 201.004C260.232 200.25 261.01 199.496 261.792 198.738C269.561 191.2 277.648 183.355 282.044 173.597C282.68 172.171 282.811 172.216 282.439 173.734C279.345 186.163 269.874 195.048 260.116 202.258C259.707 202.557 259.448 202.957 259.339 203.457L258.194 209.126C258.173 209.203 258.126 209.27 258.061 209.316C257.996 209.362 257.917 209.383 257.838 209.377C257.758 209.37 257.684 209.336 257.627 209.28C257.57 209.225 257.534 209.151 257.526 209.072L257.431 202.298C257.426 201.88 257.324 201.47 257.132 201.101C256.94 200.731 256.665 200.413 256.327 200.172C245.942 192.704 236.662 182.06 233.677 169.277C233.641 169.132 233.695 169.041 233.841 169.005C233.986 168.968 234.081 169.018 234.127 169.154C237.67 180.166 247.142 189.76 255.741 197.419C255.853 197.52 255.992 197.585 256.141 197.608C256.29 197.631 256.442 197.61 256.579 197.548C256.717 197.486 256.833 197.385 256.914 197.259C256.995 197.132 257.037 196.984 257.036 196.833L256.641 175.478C256.631 174.951 256.427 174.515 256.027 174.17C244.457 164.33 238.883 152.446 242.099 137.632C242.372 136.388 242.163 136.301 241.472 137.373C231.36 153.209 225.214 165.966 227.858 185.181C229.916 200.118 239.374 215.586 254.76 219.647C255.064 219.729 255.332 219.909 255.522 220.158C255.712 220.407 255.813 220.712 255.809 221.024L255.659 283.4C255.65 285.526 255.341 285.572 254.733 283.536C250.399 269.05 239.142 253.663 229.384 242.215C228.212 240.844 227.944 239.567 228.58 238.386C232.514 231.063 233.582 223.667 231.783 216.199C229.752 207.763 224.546 198.21 218.209 191.205C218.12 191.106 217.999 191.042 217.867 191.024C217.735 191.007 217.601 191.037 217.489 191.109C217.378 191.181 217.295 191.291 217.257 191.419C217.22 191.546 217.228 191.683 217.282 191.805L218.768 195.321C218.958 195.775 219.09 196.238 219.163 196.711L220.621 205.665C220.667 205.955 220.621 205.973 220.485 205.719C218.059 201.331 215.938 196.697 214.12 191.818C213.575 190.365 212.403 188.92 210.604 187.485C210.232 187.194 210.109 187.276 210.236 187.73C210.39 188.289 210.58 188.943 210.789 189.668C212.116 194.261 214.25 201.645 213.344 205.024C213.135 205.833 212.944 205.828 212.771 205.01C211.122 196.942 206.857 186.244 200.179 181.216C198.153 179.68 197.603 180.093 198.53 182.456C198.744 182.997 199.127 183.52 199.532 184.075C200.107 184.86 200.727 185.708 200.983 186.762C201.919 190.569 202.709 194.389 203.354 198.224C203.378 198.377 203.342 198.533 203.253 198.66C203.164 198.787 203.029 198.875 202.877 198.905L202.523 198.973C202.368 199 202.278 198.937 202.25 198.782C201.31 194.149 197.031 181.052 191.757 179.403C191.23 179.239 191.071 179.412 191.28 179.921C191.687 180.912 192.316 181.829 192.943 182.743L192.943 182.743C193.764 183.94 194.582 185.131 194.891 186.476C195 186.976 194.814 187.139 194.332 186.967C193.796 186.785 193.424 186.49 193.215 186.081C191.052 181.801 187.741 178.803 183.28 177.086C182.662 176.841 182.567 176.977 182.994 177.495C183.4 177.984 183.873 178.514 184.372 179.074L184.372 179.075L184.372 179.075C186.282 181.219 188.586 183.805 189.126 186.203C189.172 186.403 189.117 186.44 188.963 186.312L175.702 175.56C175.593 175.469 175.471 175.428 175.334 175.437C175.026 175.455 174.862 175.582 174.844 175.819C174.835 175.946 174.898 176.096 175.035 176.268C178.073 180.111 181.005 184.302 183.849 188.369L183.849 188.369L183.849 188.369C186.21 191.745 188.511 195.034 190.762 197.965C198.575 208.131 206.125 218.248 213.412 228.315C214.302 229.532 214.13 229.705 212.894 228.833C209.514 226.416 206.611 223.499 204.185 220.083C203.858 219.611 203.554 219.624 203.272 220.124C203.2 220.251 203.113 220.36 203.013 220.451C202.741 220.697 202.427 220.783 202.073 220.71C188.336 217.903 173.563 211.593 164.432 200.309C164.16 199.969 163.928 199.512 163.682 199.028C163.286 198.249 162.853 197.396 162.156 196.833C161.656 196.443 161.434 196.565 161.488 197.201C162.892 213.133 167.158 227.647 180.023 238.1C191.825 247.676 205.03 250.252 219.64 245.827C220.75 245.5 221.63 244.872 222.546 244.218L222.546 244.218C222.698 244.11 222.851 244 223.006 243.892C223.37 243.637 223.701 243.674 224.001 244.001C240.164 261.036 253.751 283.264 253.833 306.418C253.841 306.482 253.825 306.547 253.788 306.6C253.75 306.653 253.694 306.69 253.631 306.704C253.568 306.717 253.502 306.707 253.446 306.674C253.39 306.641 253.348 306.589 253.329 306.527C247.251 293.785 233.173 282.896 220.498 277.376C220.09 277.195 219.858 276.881 219.803 276.436C217.662 259.114 196.856 252.326 182.525 247.651L182.523 247.651C181.713 247.386 180.923 247.129 180.159 246.876C177.606 246.031 175.221 245.613 173.004 245.623C171.469 245.632 171.387 245.977 172.759 246.658C182.026 251.306 188.377 261.063 193.215 269.949C193.433 270.358 193.769 270.571 194.223 270.59C201.519 270.953 208.478 272.697 215.102 275.823C215.202 275.859 215.233 275.927 215.197 276.027L215.061 276.382C214.897 276.818 214.588 276.963 214.134 276.818C208.506 274.923 195.627 271.993 190.639 275.85C180.418 283.768 172.95 288.838 162.783 291.304C159.294 292.159 159.19 293.308 162.469 294.752C163.639 295.266 164.845 295.849 166.064 296.438L166.064 296.438C168.468 297.6 170.921 298.785 173.236 299.509C190.108 304.742 209.773 300.108 218.182 283.632C218.408 283.19 218.797 282.853 219.265 282.692C219.733 282.532 220.244 282.561 220.689 282.773C235.19 289.551 245.465 299.927 251.516 313.9C254.755 321.366 254.605 329.569 254.46 337.518V337.518C254.381 341.844 254.303 346.095 254.774 350.11C254.873 350.919 254.696 350.987 254.242 350.315C250.399 344.618 247.128 341.334 241.459 337.504C241.281 337.384 241.139 337.221 241.045 337.029C240.952 336.838 240.911 336.625 240.927 336.414C243.067 312.796 224.233 305.151 204.404 307.44C202.868 307.613 202.845 307.917 204.335 308.353C212.212 310.643 224.164 319.774 224.437 329.314C224.446 329.732 224.66 329.968 225.078 330.022C229.139 330.567 232.864 331.957 236.253 334.193C238.878 335.919 238.674 336.373 235.639 335.555L225.078 332.693C224.908 332.648 224.731 332.638 224.558 332.664C224.384 332.691 224.218 332.754 224.07 332.848C223.921 332.943 223.793 333.068 223.695 333.215C223.596 333.362 223.529 333.528 223.497 333.702C221.725 343.569 214.747 357.606 204.649 361.285C204.516 361.327 204.402 361.416 204.33 361.536C204.258 361.655 204.232 361.797 204.257 361.935C204.282 362.072 204.357 362.195 204.467 362.282C204.576 362.368 204.714 362.411 204.853 362.403C220.335 362.062 233.404 356.979 239.401 341.702C239.436 341.612 239.492 341.532 239.565 341.469C239.637 341.406 239.724 341.361 239.818 341.338C239.911 341.315 240.009 341.315 240.102 341.338C240.196 341.361 240.282 341.406 240.355 341.47C249.504 349.765 254.474 360.082 255.264 372.42C255.7 379.334 255.664 390.305 255.155 405.332C255.137 405.786 255.355 406.009 255.809 406L261.52 405.959C262.019 405.95 262.269 405.695 262.269 405.196C262.178 396.583 262.142 387.774 262.16 378.771C262.187 366.369 265.267 348.979 275.611 342.179C276.038 341.897 276.379 341.979 276.633 342.424C282.63 352.454 289.416 359.405 301.396 361.095C304.576 361.549 307.765 361.949 310.963 362.294C311.099 362.303 311.176 362.244 311.194 362.117C311.2 362.05 311.206 361.983 311.214 361.916C311.22 361.865 311.227 361.814 311.235 361.763C311.253 361.599 311.185 361.485 311.031 361.422C301.055 357.211 294.759 344.809 293.423 335.01C293.105 332.657 291.82 331.858 289.566 332.612L277.901 336.496C277.851 336.516 277.797 336.518 277.747 336.502C277.697 336.486 277.654 336.452 277.625 336.406C277.596 336.36 277.584 336.304 277.589 336.249C277.595 336.193 277.618 336.141 277.655 336.1C280.746 332.896 285.543 331.567 289.928 330.353C290.802 330.111 291.659 329.874 292.483 329.627C292.919 329.491 293.178 329.195 293.26 328.741C294.95 318.547 301.219 312.878 310.322 308.721C312.103 307.904 312.012 307.445 310.05 307.345C290.411 306.282 273.512 313.355 275.298 336.727C275.334 337.191 275.152 337.541 274.753 337.777C268.811 341.361 265.363 346.581 262.433 352.604C261.897 353.722 261.669 353.663 261.751 352.427C261.898 350.312 261.971 348.139 262.044 345.962L262.044 345.962C262.194 341.49 262.344 337.004 263.141 332.98C267.13 313.028 277.792 297.546 295.127 286.535C295.527 286.28 296.007 286.182 296.475 286.26C296.943 286.338 297.366 286.586 297.662 286.957C307.665 299.454 323.46 305.055 339.119 299.958C344.734 298.132 349.217 296.647 353.81 292.776C353.922 292.685 354.005 292.564 354.051 292.427C354.097 292.29 354.103 292.143 354.069 292.001C354.035 291.86 353.962 291.73 353.859 291.626C353.755 291.522 353.625 291.449 353.483 291.414C345.565 289.519 338.887 287.257 331.814 282.514C328.652 280.388 325.49 278.271 322.329 276.164C317.709 273.084 305.334 277.635 301.3 279.857C301.246 279.884 301.205 279.875 301.178 279.83L300.987 279.543C300.928 279.446 300.908 279.331 300.93 279.219C300.953 279.108 301.017 279.01 301.11 278.944C307.99 273.949 314 272.623 321.402 270.991C321.917 270.877 322.44 270.762 322.969 270.644C323.198 270.59 323.409 270.479 323.581 270.321C323.753 270.164 323.88 269.965 323.95 269.745C327.339 259.305 333.926 251.624 343.711 246.699C345.683 245.709 345.578 245.368 343.398 245.677C325.341 248.212 298.82 256.457 296.149 278.726C296.077 279.303 295.873 279.856 295.554 280.342C295.235 280.829 294.809 281.236 294.309 281.533C278.564 290.7 267.784 303.951 261.969 321.287C261.197 323.594 260.924 323.535 261.152 321.109C261.386 318.691 261.573 316.243 261.76 313.788L261.76 313.788C262.258 307.252 262.76 300.668 264.177 294.466C268.456 275.618 278.596 258.283 291.134 243.769C291.461 243.388 291.847 243.319 292.292 243.565C292.789 243.839 293.233 244.128 293.662 244.407L293.662 244.407C294.469 244.933 295.224 245.424 296.176 245.718C302.945 247.817 310.245 247.867 318.077 245.868C342.39 239.667 352.202 221.569 353.633 197.801C353.715 196.438 353.397 196.338 352.679 197.501C344.161 211.307 328.121 217.739 312.285 220.942C312.216 220.955 312.146 220.95 312.079 220.929C312.013 220.908 311.953 220.871 311.904 220.821C311.856 220.771 311.82 220.71 311.801 220.643C311.782 220.576 311.779 220.506 311.794 220.438L311.889 219.974C311.943 219.738 312.06 219.521 312.227 219.344C312.395 219.166 312.608 219.036 312.843 218.966C336.039 212.247 355.527 199.709 356.781 173.107C356.881 170.89 357.094 168.673 357.421 166.456C357.476 166.056 357.322 165.77 356.958 165.598C356.431 165.343 356.013 165.47 355.704 165.979C355.463 166.372 355.233 166.762 355.006 167.146C354.069 168.734 353.184 170.234 351.725 171.539C337.047 184.677 324.141 201.317 312.748 217.33C311.481 219.106 309.976 220.863 308.437 222.662L308.437 222.662C306.716 224.672 304.952 226.734 303.426 228.928C303.354 229.032 303.309 229.153 303.293 229.279C303.277 229.404 303.292 229.532 303.336 229.651C303.38 229.77 303.452 229.877 303.546 229.962C303.64 230.047 303.753 230.109 303.876 230.141C309.664 231.631 315.542 232.253 321.511 232.008C321.675 231.999 321.765 232.072 321.784 232.226V232.24C321.793 232.403 321.72 232.494 321.566 232.512L321.1 232.566C316.006 233.154 306.94 234.2 302.077 231.517C301.904 231.425 301.712 231.376 301.515 231.373C301.318 231.371 301.123 231.416 300.946 231.504C300.71 231.631 300.464 231.694 300.21 231.694C299.674 231.704 299.56 231.49 299.869 231.054C306.365 221.914 313.048 212.91 319.916 204.043C326.767 195.203 333.608 186.531 340.441 178.027C341.022 177.309 340.863 177.05 339.964 177.25C339.228 177.413 338.455 177.867 337.647 178.613C336.204 179.955 334.796 180.891 333.427 181.803C331.096 183.354 328.874 184.833 326.772 188.111C326.662 188.284 326.522 188.316 326.349 188.207L326.036 188.016C325.954 187.971 325.94 187.907 325.995 187.825L332.332 178.599C332.695 178.072 332.564 177.886 331.937 178.04C325.054 179.73 319.249 186.408 316.946 192.445C316.282 194.171 315.655 195.671 315.065 196.942C314.72 197.697 314.602 197.66 314.711 196.833C315.637 189.788 317.191 184.786 322.819 180.057C323.91 179.139 323.751 178.799 322.342 179.035C310.663 181.052 306.942 194.026 305.552 204.561C305.552 204.615 305.53 204.638 305.484 204.629L305.089 204.602C304.889 204.583 304.789 204.474 304.789 204.274C304.871 197.687 306.084 191.319 308.428 185.168C308.919 183.896 308.705 183.764 307.787 184.772C304.471 188.434 301.414 192.491 298.616 196.942C297.634 198.508 297.019 200.262 296.395 202.044L296.395 202.044ZM215.219 232.211C215.233 232.172 215.239 232.131 215.238 232.09L215.197 230.727C215.195 230.686 215.185 230.645 215.168 230.608C215.15 230.571 215.126 230.537 215.095 230.509C215.065 230.482 215.029 230.46 214.991 230.446C214.952 230.432 214.911 230.425 214.87 230.427L214.638 230.441C211.806 230.545 209.003 230.662 206.388 230.787C203.773 230.912 201.397 231.041 199.397 231.168C197.398 231.294 195.813 231.416 194.733 231.525C193.653 231.634 193.1 231.729 193.105 231.804L193.146 232.649C193.154 232.8 195.43 232.862 199.473 232.821C203.516 232.781 208.995 232.64 214.706 232.431L214.938 232.417C214.979 232.415 215.019 232.405 215.057 232.388C215.094 232.371 215.128 232.346 215.156 232.316C215.183 232.285 215.205 232.25 215.219 232.211Z" fill="black"/>
<path fill-rule="evenodd" clip-rule="evenodd" d="M162.36 248.907C166.521 249.579 170.11 251.342 173.127 254.195C173.59 254.622 173.54 254.699 172.977 254.426C169.152 252.537 165.177 251.033 161.052 249.916C158.879 249.329 156.992 250.04 155.111 250.748C153.889 251.208 152.669 251.667 151.376 251.769C148.668 251.978 148.632 252.41 151.267 253.064C153.455 253.606 155.215 254.534 156.965 255.457C158.028 256.017 159.086 256.575 160.234 257.043C161.879 257.724 161.829 257.897 160.084 257.561C149.659 255.558 139.247 253.391 129.08 249.657C126.927 248.866 126.445 249.452 127.636 251.415L138.729 269.799C139.075 270.373 139.563 270.849 140.148 271.181C140.733 271.512 141.394 271.689 142.068 271.693C148.784 271.722 155.413 271.233 162.03 270.745C171.418 270.052 180.78 269.362 190.325 270.153C190.387 270.159 190.449 270.147 190.504 270.12C190.56 270.093 190.607 270.051 190.64 269.999C190.674 269.948 190.693 269.888 190.695 269.826C190.697 269.764 190.682 269.703 190.653 269.649C184.479 258.815 176.765 249.316 162.878 247.885C162.533 247.858 162.333 248.012 162.279 248.348L162.224 248.716C162.22 248.738 162.221 248.76 162.225 248.781C162.23 248.802 162.239 248.823 162.252 248.84C162.265 248.858 162.281 248.873 162.299 248.885C162.318 248.896 162.339 248.904 162.36 248.907Z" fill="black"/>
</svg>
