<svg width="512" height="512" viewBox="0 0 512 512" fill="none" xmlns="http://www.w3.org/2000/svg">
<rect width="512" height="512" fill="white"/>
<path d="M224.099 302.376C222.269 284.253 227.116 267.655 237.985 253.115C243.097 246.275 248.234 239.464 253.396 232.683C265.616 216.629 270.949 199.087 269.395 180.056C268.077 163.905 257.742 147.023 243.398 139.53C216.518 125.481 182.766 144.66 190.216 176.887C190.717 179.058 191.294 181.218 191.948 183.367C192.129 183.955 191.995 184.039 191.545 183.618C190.267 182.405 189.276 180.993 188.571 179.381C181.285 162.641 187.21 143.647 203.166 134.575C219.394 125.339 241.481 127.397 254.997 139.944C260.74 145.281 265.565 152.342 269.471 161.128C278.043 180.383 274.1 205.248 264.854 223.763C261.957 229.557 256.13 237.137 250.455 244.031C242.832 253.311 235.818 263.745 232.082 274.941C228.564 285.473 226.582 298.117 228.978 309.041C228.999 309.132 228.993 309.227 228.96 309.314C228.926 309.401 228.868 309.476 228.792 309.53C228.716 309.583 228.626 309.613 228.533 309.616C228.44 309.618 228.348 309.592 228.27 309.542C225.504 307.756 224.436 305.796 224.099 302.376Z" fill="black"/>
<path d="M213.24 170.908C210.223 165.843 215.68 160.463 220.407 160.158C226.408 159.766 231.08 165.527 231.45 171.202C231.712 175.217 230.321 178.931 227.279 182.344C220.287 190.214 212.108 191.982 202.741 187.648C196.62 184.816 192.514 178.161 191.414 171.474C187.907 150.291 208.274 134.694 227.835 137.722C234.362 138.739 239.528 141.574 243.333 146.228C248.735 152.839 251.97 162.478 249.269 170.875C247.156 177.453 240.545 178.303 234.456 178.717C232.757 178.833 232.674 178.521 234.206 177.78C246.622 171.844 245.718 153.09 234.195 146.849C220.94 139.661 205.312 147.884 204.462 163.022C204.005 171.104 209.2 179.501 218.032 179.305C225.406 179.142 230.459 169.797 223.456 164.852C219.067 161.77 212.859 165.179 213.349 171.049C213.349 171.078 213.338 171.089 213.317 171.082C213.309 171.082 213.302 171.078 213.295 171.071C213.273 171.071 213.262 171.057 213.262 171.028C213.262 171.006 213.262 170.98 213.262 170.951C213.255 170.937 213.248 170.922 213.24 170.908Z" fill="black"/>
<path d="M252.198 180.699C253.875 177.395 254.576 173.961 254.3 170.396C254.264 169.931 254.14 169.499 253.93 169.1C253.763 168.795 253.683 168.465 253.69 168.109C253.854 161.204 250.902 154.56 247.809 148.766C247.141 147.517 247.257 147.441 248.158 148.537C250.782 151.728 253.658 155.05 255.259 158.829C265.507 183.16 252.111 205.705 224.404 195.424C224.157 195.337 223.986 195.134 223.892 194.814C223.805 194.531 223.91 194.411 224.208 194.455C234.173 195.892 240.294 187.778 246.458 181.657C250.118 178.009 250.967 174.654 252.122 170.407C252.797 167.953 253.16 167.996 253.211 170.538C253.276 173.493 252.881 176.858 252.024 180.634C252.023 180.654 252.029 180.675 252.04 180.692C252.052 180.709 252.068 180.722 252.087 180.729C252.107 180.737 252.128 180.737 252.148 180.732C252.168 180.727 252.185 180.715 252.198 180.699Z" fill="black"/>
<path d="M228.967 221.737C227.257 221.52 225.439 221.618 223.881 221.084C214.036 217.729 211.117 206.239 215.647 197.701C215.814 197.381 216.083 197.152 216.453 197.014C216.831 196.862 216.991 196.989 216.933 197.396C216.78 198.354 216.377 199.378 216.377 200.271C216.399 207.753 227.116 210.073 232.758 209.398C242.995 208.167 254.279 201.131 259.234 191.841C265.311 180.46 262.284 165.266 255.607 154.767C255.535 154.651 255.535 154.535 255.607 154.419L255.792 154.103C255.829 154.038 255.876 154.041 255.934 154.114C262.614 162.13 266.219 171.271 266.749 181.538C268.383 213.536 249.28 243.999 212.794 232.226C212.402 232.095 212.104 231.914 211.901 231.681C211.77 231.536 211.661 231.387 211.574 231.235C211.371 230.886 211.465 230.752 211.857 230.832C215.495 231.609 218.668 230.723 221.376 228.174C224.404 225.332 226.495 223.97 229.109 222.413C229.712 222.05 229.664 221.825 228.967 221.737Z" fill="black"/>
<path d="M292.801 186.994C297.212 195.446 306.578 193.899 309.922 203.473C310.662 205.585 311.621 207.633 312.601 208.973C315.313 212.654 321.314 213.057 324.712 210.41C324.759 210.365 324.821 210.341 324.886 210.341C324.951 210.341 325.013 210.366 325.059 210.411C325.106 210.457 325.133 210.518 325.135 210.583C325.138 210.647 325.115 210.711 325.071 210.759C323.213 213.264 320.66 215.05 317.415 216.117C307.123 219.515 297.887 214.418 293.922 205.084C292.782 202.405 291.791 199.682 290.949 196.916C290.927 196.848 290.88 196.79 290.818 196.754C290.755 196.718 290.682 196.706 290.612 196.72H290.601C290.426 196.764 290.354 196.872 290.383 197.047C291.744 206.261 296.155 217.805 303.833 224.22C305.177 225.353 305.032 225.6 303.398 224.961C298.453 223.044 293.411 221.89 288.695 218.296C276.486 208.962 277.891 193.67 276.801 180.198C276.054 170.977 273.48 162.551 269.08 154.919C268.637 154.143 268.753 154.045 269.428 154.625C274.58 158.993 279.59 163.023 285.602 166.671C291.359 170.156 297.07 173.718 302.733 177.355C305.478 179.113 308.408 179.806 311.523 179.436C312.042 179.376 312.528 179.153 312.912 178.799C313.296 178.444 313.557 177.977 313.657 177.464C313.97 175.911 313.581 174.527 312.492 173.315C312.488 173.312 312.485 173.309 312.484 173.305C312.483 173.301 312.484 173.296 312.486 173.292C312.488 173.287 312.492 173.283 312.497 173.279C312.502 173.275 312.508 173.273 312.514 173.271L312.949 173.184C313.116 173.155 313.254 173.202 313.363 173.326C318.602 179.327 313.908 187.626 307.602 190.24C301.666 192.69 297.538 190.632 292.942 186.874C292.703 186.678 292.655 186.718 292.801 186.994Z" fill="black"/>
<path d="M253.342 270.715C263.721 259.192 270.202 244.304 270.114 228.642C270.093 224.271 270.071 219.936 270.049 215.638C270.049 215.468 270.105 215.303 270.21 215.168C270.315 215.034 270.461 214.939 270.626 214.897L270.975 214.821C271.02 214.81 271.067 214.809 271.113 214.817C271.159 214.826 271.202 214.844 271.241 214.871C271.279 214.898 271.311 214.933 271.334 214.973C271.358 215.013 271.373 215.058 271.378 215.104C272.87 229.47 279.045 242.332 278.816 256.426C278.61 269.321 270.496 278.48 261.51 286.3C248.473 297.66 242.374 313.071 249.432 329.745C250.674 332.679 252.318 335.169 254.366 337.217C254.634 337.478 254.711 337.431 254.594 337.075C253.07 332.348 252.587 328.417 253.146 325.28C254.032 320.292 256.333 316.102 260.051 312.712C260.117 312.65 260.205 312.615 260.296 312.615C260.387 312.615 260.474 312.65 260.541 312.712L260.759 312.908C260.788 312.937 260.788 312.969 260.759 313.006C258.617 315.627 257.88 318.644 258.548 322.056C262.893 344.351 292.953 349.143 308.985 337.337C328.415 323.026 326.335 293.478 307.613 279.896C299.15 273.754 292.779 269.364 287.824 261.468C286.059 258.658 284.226 254.476 282.323 248.922C278.272 237.057 275.11 224.95 272.837 212.599C272.699 211.844 272.623 210.102 272.608 207.372C272.608 207.306 272.612 207.274 272.619 207.274H272.946C273.007 207.273 273.066 207.296 273.114 207.338C273.162 207.379 273.195 207.438 273.207 207.502C275.625 220.604 279.492 229.84 285.471 242.648C289.835 252.015 295.919 260.078 303.725 266.838C307.174 269.829 310.568 272.882 313.908 275.997C324.69 286.039 329.526 298.531 328.415 313.474C326.879 334.026 310.238 348.718 290.829 352.552C277.753 355.136 265.878 352.563 255.204 344.83C247.755 339.417 242.995 332.501 238.639 324.365C231.178 310.424 230.917 292.225 237.136 277.958C239.88 271.684 243.267 266.653 248.027 260.357C254.703 251.514 260.704 242.997 265.083 232.737C266.161 230.21 266.477 227.422 267.402 224.7C267.406 224.695 267.411 224.692 267.416 224.691C267.422 224.689 267.427 224.689 267.433 224.69C267.438 224.691 267.443 224.693 267.447 224.697C267.452 224.701 267.455 224.705 267.457 224.71C266.825 241.352 262.055 256.64 253.146 270.573C252.623 271.394 252.688 271.441 253.342 270.715Z" fill="black"/>
<path d="M296.362 230.004C300.937 231.427 305.108 233.297 308.876 235.613C310.249 236.455 310.147 236.706 308.571 236.364C304.574 235.482 299.575 235.275 296.101 234.012C291.498 232.327 287.922 229.267 285.373 224.83C285.119 224.395 285.21 224.3 285.645 224.547C289.468 226.78 290.917 228.305 296.362 230.004Z" fill="black"/>
<path d="M280.123 225.037C279.942 224.551 280.003 224.518 280.308 224.939C286.484 233.543 294.456 238.401 302.951 244.609C309.823 249.641 316.227 252.712 323.405 247.473C324.581 246.609 324.752 246.776 323.917 247.974C317.284 257.461 305.739 258.561 296.536 252.407C288.193 246.82 283.499 234.186 280.123 225.037Z" fill="black"/>
<path d="M263.95 228.446C264.19 228.083 264.295 228.12 264.266 228.555C264.113 231.104 260.922 235.831 259.506 238.031C254.867 245.197 249.839 252.073 244.422 258.659C244.328 258.775 244.219 258.789 244.095 258.702L243.845 258.528C243.736 258.448 243.721 258.354 243.801 258.245L263.95 228.446Z" fill="black"/>
<path d="M221.801 249.924C226.68 246.642 231.879 243.992 237.397 241.973C238.748 241.479 238.893 241.719 237.833 242.692C233.781 246.409 229.846 250.563 226.027 255.151C217.88 264.943 205.322 268.776 193.429 263.396C191.295 262.43 189.592 261 188.321 259.105C188.031 258.662 188.122 258.557 188.594 258.789C192.87 260.851 196.718 260.713 200.138 258.375C200.951 257.816 202.56 255.99 204.963 252.897C211.759 244.108 223.761 241.777 233.661 240.045C236.98 239.472 237.107 239.882 234.043 241.276C229.817 243.204 224.665 246.21 221.583 249.684C221.024 250.316 221.097 250.396 221.801 249.924Z" fill="black"/>
<path d="M219.002 269.234C220.527 267.295 221.529 264.877 222.803 263.124C228.604 255.108 235.27 248.126 242.799 242.18C244.23 241.054 244.407 241.229 243.333 242.703C238.911 248.78 233.542 254.585 229.675 261.849C226.048 268.667 223.729 277.685 220.636 284.068C216.039 293.554 204.255 298.019 194.344 293.793C193.516 293.438 192.87 292.904 192.405 292.192C192.137 291.771 192.235 291.651 192.7 291.833C198.08 293.957 203.798 291.452 205.148 285.647C206.738 278.774 208.274 274.069 213.24 269.419C215.796 267.015 218.308 264.579 220.777 262.111C221.024 261.871 221.278 261.868 221.539 262.1L221.746 262.285C221.877 262.401 221.881 262.525 221.757 262.655C220.022 264.478 219.002 266.627 218.697 269.103C218.653 269.517 218.755 269.56 219.002 269.234Z" fill="black"/>
<path d="M312.775 322.274C309.214 327.001 304.879 328.439 298.91 327.959C298.264 327.908 298.228 327.734 298.802 327.436C304.312 324.561 307.279 319.856 307.7 313.321C309.018 292.977 284.534 277.163 267.729 290.199C267.671 290.243 267.62 290.232 267.576 290.167L267.369 289.84C267.303 289.73 267.275 289.601 267.288 289.473C267.302 289.345 267.357 289.225 267.446 289.132C271.715 284.674 276.939 282.096 283.118 281.399C286.117 281.065 289.007 281.083 291.788 281.454C292.782 281.584 292.801 281.497 291.842 281.192C284.327 278.774 277.161 279.526 270.343 283.447C270.334 283.452 270.324 283.455 270.313 283.456C270.303 283.457 270.292 283.455 270.282 283.451C270.273 283.446 270.264 283.44 270.258 283.432C270.251 283.423 270.247 283.414 270.245 283.403L270.212 283.011C270.205 282.866 270.259 282.757 270.375 282.684C282.16 275.358 293.131 274.69 303.289 280.68C321.967 291.691 327.064 316.589 311.925 333.002C311.526 333.438 311.385 333.365 311.501 332.784C312.209 329.223 313.069 326.881 313.178 322.405C313.185 321.947 313.051 321.904 312.775 322.274Z" fill="black"/>
<path d="M272.761 358.705C273.676 358.233 273.622 357.965 272.598 357.899C258.918 356.974 242.048 354.872 234.435 341.573C231.908 337.173 230.612 329.277 228.118 324.779C222.455 314.541 208.22 310.098 198.331 317.863C189.835 324.518 189.465 337.38 197.361 344.634C203.776 350.515 215.092 350.079 219.329 341.617C222.008 336.273 221.024 332.116 216.377 329.147C213.088 327.055 209.941 328.188 207.098 330.497C206.59 330.911 206.455 330.813 206.695 330.203C209.625 322.764 219.917 322.252 224.644 327.731C230.329 334.32 228.009 345.897 221.431 351.049C209.657 360.274 192.362 355.852 186.318 342.336C182.299 333.351 183.54 322.982 189.781 315.304C200.084 302.616 223.827 303.411 232.137 318.157C233.923 321.33 235.724 324.492 237.539 327.644C245.195 340.931 257.982 351.855 273.284 354.686C286.299 357.093 300.131 352.868 311.218 345.56C312.373 344.797 313.636 343.272 315.019 342.314C315.665 341.871 315.778 341.98 315.357 342.641C307.559 355.035 297.299 359.206 283.369 362.572C272.837 365.12 266.009 375.151 270.332 385.759C274.057 394.897 287.53 399.613 295.393 392.882C298.849 389.927 300.189 386.46 299.412 382.481C297.909 374.705 285.21 371.764 283.489 381.119C283.249 382.455 283.079 382.445 282.977 381.087C282.411 373.082 291.167 369.15 297.963 372.853C312.329 380.673 305.62 399.58 292.583 404.165C261.619 415.067 242.233 374.487 272.761 358.705Z" fill="black"/>
<path d="M242.854 356.309C249.617 356.418 256.479 359.925 263.667 360.001C264.741 360.016 264.76 360.158 263.721 360.426C258.145 361.864 253.342 362.245 247.079 361.799C238.922 361.2 231.962 361.123 224.818 363.345C224.244 363.527 224.182 363.418 224.633 363.018C229.831 358.43 235.905 356.193 242.854 356.309Z" fill="black"/>
<path d="M252.056 368.311L256.555 365.774C256.692 365.694 256.79 365.687 256.849 365.752C256.928 365.846 256.925 365.941 256.838 366.035C254.63 368.257 252.394 371.107 250.129 374.585C248.778 376.654 244.443 379.573 242.265 376.981C239.749 373.964 242.973 368.954 245.707 367.408C248.255 365.963 251.269 365.128 254.747 364.903C255.153 364.873 255.273 365.048 255.106 365.425C255.004 365.636 254.874 365.77 254.714 365.828C253.501 366.228 252.488 366.899 251.675 367.843C250.906 368.729 251.033 368.885 252.056 368.311Z" fill="black"/>
<path fill-rule="evenodd" clip-rule="evenodd" d="M304.601 151.235C309.99 147.234 313.538 141.279 314.466 134.68C314.925 131.413 314.727 128.085 313.883 124.888C313.039 121.691 311.565 118.687 309.546 116.047C307.528 113.407 305.003 111.184 302.117 109.503C299.231 107.822 296.039 106.717 292.725 106.252C286.032 105.311 279.244 107.03 273.855 111.031C268.466 115.032 264.918 120.987 263.991 127.586C263.531 130.854 263.729 134.181 264.573 137.378C265.418 140.575 266.891 143.579 268.91 146.219C270.929 148.859 273.453 151.083 276.339 152.763C279.226 154.444 282.417 155.549 285.731 156.015C292.425 156.955 299.212 155.236 304.601 151.235ZM302.502 142.08C304.05 140.547 305.258 138.724 306.057 136.716C306.856 134.708 307.231 132.554 307.16 130.377C307.088 128.2 306.572 126.042 305.641 124.027C304.71 122.012 303.383 120.179 301.734 118.632C300.085 117.086 298.148 115.857 296.032 115.015C293.916 114.173 291.664 113.735 289.404 113.726C287.143 113.716 284.919 114.136 282.858 114.96C280.797 115.785 278.94 116.998 277.392 118.531C275.844 120.064 274.636 121.886 273.837 123.894C273.038 125.902 272.663 128.056 272.735 130.234C272.806 132.411 273.322 134.569 274.253 136.584C275.184 138.599 276.512 140.432 278.16 141.979C279.809 143.525 281.747 144.754 283.862 145.596C285.978 146.438 288.23 146.876 290.491 146.885C292.751 146.895 294.975 146.475 297.036 145.651C299.097 144.826 300.954 143.613 302.502 142.08Z" fill="black"/>
<path fill-rule="evenodd" clip-rule="evenodd" d="M291.882 312.501C294.053 310.33 295.273 307.385 295.273 304.315C295.273 302.794 294.974 301.289 294.392 299.884C293.81 298.48 292.957 297.203 291.882 296.128C290.807 295.053 289.531 294.2 288.126 293.619C286.722 293.037 285.216 292.737 283.696 292.737C282.175 292.737 280.67 293.037 279.265 293.619C277.861 294.2 276.584 295.053 275.509 296.128C274.434 297.203 273.582 298.48 273 299.884C272.418 301.289 272.118 302.794 272.118 304.315C272.118 307.385 273.338 310.33 275.509 312.501C277.681 314.672 280.625 315.892 283.696 315.892C286.766 315.892 289.711 314.672 291.882 312.501ZM287.326 308.075C288.537 306.864 289.218 305.221 289.218 303.508C289.218 301.796 288.537 300.153 287.326 298.942C286.115 297.73 284.472 297.05 282.759 297.05C281.046 297.05 279.403 297.73 278.192 298.942C276.981 300.153 276.301 301.796 276.301 303.508C276.301 305.221 276.981 306.864 278.192 308.075C279.403 309.286 281.046 309.967 282.759 309.967C284.472 309.967 286.115 309.286 287.326 308.075Z" fill="black"/>
</svg>
