<svg width="512" height="512" viewBox="0 0 512 512" fill="none" xmlns="http://www.w3.org/2000/svg">
<rect width="512" height="512" fill="white"/>
<path d="M255.245 366.843L255.86 366.564C256.084 366.464 256.196 366.29 256.196 366.041C256.408 328.817 256.489 303.437 256.439 289.901C256.402 283.071 262.691 276.726 267.225 272.285C267.686 271.824 267.711 271.345 267.3 270.848C262.896 265.623 256.887 259.278 256.756 252.111C256.532 239.521 256.414 227.148 256.402 214.993C256.402 214.215 256.561 213.445 256.869 212.73C257.177 212.014 257.627 211.369 258.193 210.832C263.406 205.855 268.874 200.624 274.597 195.137C275.58 194.204 276.581 193.626 277.601 193.402C277.797 193.36 277.999 193.363 278.193 193.409C278.387 193.455 278.568 193.544 278.724 193.669C278.879 193.794 279.005 193.952 279.091 194.132C279.178 194.312 279.224 194.509 279.225 194.708V331.517C279.225 331.603 279.242 331.688 279.275 331.767C279.307 331.846 279.356 331.918 279.416 331.979C279.477 332.039 279.549 332.088 279.628 332.12C279.707 332.153 279.792 332.17 279.878 332.17L297.98 332.245C298.16 332.246 298.338 332.295 298.493 332.386C298.649 332.477 298.778 332.608 298.867 332.765C298.956 332.923 299.002 333.1 299 333.281C298.998 333.461 298.949 333.638 298.857 333.794L256.196 405.436C256.095 405.603 255.954 405.742 255.785 405.841C255.617 405.939 255.427 405.994 255.233 406C255.039 406.005 254.848 405.962 254.677 405.873C254.506 405.784 254.361 405.653 254.256 405.492C238.654 382.314 225.666 357.793 211.782 333.514C211.707 333.377 211.67 333.224 211.672 333.069C211.675 332.914 211.718 332.762 211.797 332.628C211.876 332.495 211.988 332.384 212.123 332.307C212.258 332.23 212.41 332.189 212.565 332.189L230.238 332.282C230.34 332.282 230.441 332.262 230.535 332.223C230.629 332.185 230.714 332.128 230.786 332.057C230.857 331.985 230.913 331.901 230.95 331.808C230.988 331.716 231.006 331.616 231.003 331.517C230.841 286.878 230.81 242.526 230.91 198.459C230.922 196.655 231.252 195.405 231.899 194.708C232.226 194.365 232.621 194.094 233.059 193.914C233.496 193.733 233.967 193.647 234.439 193.661C234.912 193.675 235.375 193.789 235.799 193.995C236.223 194.202 236.599 194.495 236.9 194.857C240.881 199.61 245.124 203.859 249.627 207.603C252.744 210.179 254.05 212.773 254.05 217.065C254.063 229.344 253.926 241.611 253.64 253.866C253.49 260.304 247.687 265.921 243.003 270.904C242.567 271.364 242.586 271.812 243.059 272.247C248.415 277.323 253.752 282.922 253.752 290.834C253.752 315.99 253.913 341.115 254.237 366.209C254.238 366.327 254.269 366.444 254.327 366.547C254.385 366.65 254.468 366.737 254.568 366.8C254.668 366.864 254.783 366.901 254.901 366.908C255.019 366.916 255.137 366.893 255.245 366.843Z" fill="black"/>
<path d="M255.954 187.617C262.97 177.465 269.539 167.35 279.02 158.542C280.002 157.634 280.973 157.64 281.931 158.561L283.386 159.998C284.282 160.844 284.313 161.727 283.48 162.648L267.636 180.19C266.653 181.285 266.386 182.529 266.833 183.922L267.02 184.482C267.09 184.691 267.213 184.878 267.378 185.024C267.543 185.17 267.743 185.27 267.959 185.313C268.175 185.357 268.399 185.343 268.608 185.272C268.816 185.201 269.002 185.077 269.148 184.911L284.45 167.425C286.167 165.459 287.903 165.447 289.657 167.388L290.198 167.985C290.752 168.598 291.05 169.4 291.029 170.224C291.008 171.048 290.67 171.83 290.086 172.408L255.823 206.503C255.772 206.549 255.705 206.574 255.636 206.574C255.568 206.574 255.501 206.549 255.45 206.503L220.179 172.613C218.475 170.971 218.531 169.384 220.347 167.854L221.019 167.294C222.686 165.876 224.254 165.976 225.722 167.593L241.715 185.284C241.887 185.485 242.135 185.607 242.404 185.624C242.672 185.642 242.941 185.553 243.152 185.378L243.768 184.855C243.972 184.684 244.139 184.474 244.261 184.237C244.383 184.001 244.457 183.743 244.478 183.478C244.499 183.214 244.466 182.949 244.383 182.698C244.299 182.447 244.166 182.216 243.992 182.019L227.7 163.338C226.841 162.355 226.792 161.335 227.551 160.278L228.95 158.337C229.697 157.292 230.536 157.211 231.47 158.094C240.688 166.791 248.458 176.619 254.778 187.58C254.836 187.68 254.918 187.763 255.017 187.823C255.117 187.882 255.23 187.915 255.347 187.918C255.464 187.922 255.581 187.896 255.687 187.844C255.793 187.791 255.885 187.713 255.954 187.617Z" fill="black"/>
<path d="M255.45 159.774C255.523 159.854 255.613 159.918 255.712 159.962C255.812 160.006 255.92 160.029 256.028 160.029C256.137 160.029 256.245 160.006 256.344 159.962C256.444 159.918 256.533 159.854 256.607 159.774L275.698 138.313C276.282 137.653 276.861 137.672 277.433 138.369L281.072 142.848C281.304 143.13 281.424 143.486 281.41 143.851C281.396 144.215 281.25 144.562 280.998 144.826C272.14 154.194 263.978 164.134 256.514 174.647C256.441 174.751 256.346 174.837 256.235 174.898C256.124 174.959 256.001 174.994 255.874 174.999C255.748 175.004 255.622 174.981 255.506 174.929C255.39 174.878 255.288 174.801 255.207 174.703L231.003 145.591C230.095 144.496 230.045 143.364 230.854 142.194L232.981 139.153C233.79 137.983 234.686 137.915 235.668 138.947L255.45 159.774Z" fill="black"/>
<path d="M258.025 130.848C260.178 133.635 262.74 135.961 265.714 137.828C265.878 137.928 266.019 138.063 266.125 138.224C266.231 138.385 266.301 138.568 266.33 138.759C266.358 138.951 266.344 139.148 266.29 139.335C266.235 139.522 266.14 139.695 266.012 139.843L257.372 149.752C257.245 149.901 257.089 150.023 256.913 150.11C256.736 150.196 256.544 150.246 256.347 150.257C256.15 150.267 255.953 150.238 255.767 150.17C255.58 150.103 255.409 149.999 255.263 149.864L245.802 140.888C245.623 140.718 245.482 140.513 245.388 140.285C245.293 140.057 245.248 139.812 245.255 139.565C245.262 139.318 245.321 139.076 245.428 138.854C245.535 138.632 245.688 138.435 245.877 138.275L252.856 132.285C253.117 132.061 253.329 131.787 253.478 131.477C253.628 131.168 253.713 130.832 253.727 130.489C253.741 130.145 253.684 129.803 253.56 129.483C253.436 129.163 253.247 128.871 253.005 128.627L244.514 119.968C244.316 119.768 244.203 119.497 244.199 119.212C244.196 118.927 244.302 118.65 244.496 118.438L255.543 106.215C255.805 105.928 256.066 105.928 256.327 106.215L267.916 118.793C268.065 118.967 268.059 119.128 267.897 119.278L258.175 128.814C257.904 129.075 257.739 129.427 257.712 129.802C257.684 130.178 257.796 130.55 258.025 130.848Z" fill="black"/>
</svg>
