<svg width="512" height="512" viewBox="0 0 512 512" fill="none" xmlns="http://www.w3.org/2000/svg">
<rect width="512" height="512" fill="white"/>
<path d="M164.07 154.942C154.068 155.5 148.383 157.386 141.927 159.033C141.848 159.057 141.763 159.051 141.688 159.016C141.613 158.981 141.555 158.919 141.523 158.842C141.492 158.766 141.49 158.681 141.518 158.603C141.546 158.526 141.602 158.461 141.674 158.422C161.812 146.361 190.119 153.202 209.3 163.258C213.79 165.613 218.276 167.973 222.757 170.338C228.097 173.154 246.72 184.67 239.587 192.733C239.294 193.052 238.936 193.229 238.511 193.265C234.96 193.539 232.524 192.034 231.205 188.748C228.256 181.429 226.715 176.461 219.064 171.414C203.442 161.106 182.415 153.919 164.07 154.942Z" fill="black"/>
<path d="M323.007 179.942C327.297 177.87 333.727 171.52 338.482 175.12C344.314 179.543 337.273 187.779 332.624 189.745C315.276 197.078 296.108 190.795 281.284 180.898C273.393 175.612 264.653 169.103 257.095 165.49C243.12 158.821 228.336 157.679 212.741 162.062C212.192 162.213 211.701 162.2 211.267 162.023C211.193 161.995 211.129 161.947 211.083 161.883C211.037 161.82 211.01 161.744 211.006 161.664C211.002 161.585 211.02 161.505 211.059 161.434C211.099 161.364 211.157 161.305 211.227 161.265C229.717 151.356 254.332 155.527 272.118 164.613C281.217 169.262 307.04 185.308 314.173 171.029C315.617 168.124 314.962 166.393 312.207 165.835C311.981 165.792 311.766 165.7 311.578 165.565C311.391 165.43 311.234 165.255 311.121 165.053C311.007 164.851 310.938 164.626 310.92 164.394C310.901 164.162 310.932 163.928 311.012 163.71C314.771 153.481 333.753 163.749 326.407 175.213C325.597 176.488 323.764 177.949 322.568 179.371C321.833 180.248 321.98 180.438 323.007 179.942Z" fill="black"/>
<path d="M360.586 228.519C366.271 226.872 370.234 225.575 372.474 224.627C386.431 218.729 394.157 208.714 395.654 194.58C396.73 184.338 393.834 175.598 382.384 174.668C380.489 174.517 380.232 175.093 381.613 176.395C384.974 179.556 384.575 186.583 379.873 189.041C368.516 194.965 357.955 184.71 359.629 173.074C361.808 157.918 379.342 153.268 391.43 159.352C409.097 168.226 408.924 192.88 400.303 207.89C389.822 226.141 370.362 233.288 350.344 233.58C334.82 233.81 321.041 228.608 309.006 217.972C308.976 217.944 308.952 217.909 308.936 217.871C308.92 217.833 308.912 217.791 308.914 217.75C308.915 217.708 308.925 217.668 308.943 217.63C308.961 217.593 308.987 217.56 309.019 217.534L309.338 217.268C309.347 217.259 309.36 217.259 309.378 217.268C322.103 225.53 337.366 231.056 352.469 225.902C358.699 223.777 363.442 219.739 365.314 213.509C365.39 213.26 365.527 213.035 365.712 212.853C365.897 212.671 366.125 212.538 366.374 212.467C366.624 212.395 366.888 212.388 367.141 212.444C367.394 212.501 367.63 212.62 367.825 212.792C369.304 214.111 370.048 215.767 370.057 217.76C370.058 217.853 370.087 217.944 370.141 218.021C370.194 218.097 370.27 218.156 370.358 218.189C370.445 218.222 370.541 218.228 370.631 218.206C370.722 218.184 370.804 218.135 370.867 218.065C372.222 216.48 372.983 214.638 373.152 212.539C373.17 212.314 373.11 212.089 372.982 211.903C372.853 211.716 372.665 211.58 372.448 211.516C371.81 211.322 371.234 211.038 370.721 210.666C370.492 210.501 370.302 210.288 370.165 210.042C370.027 209.796 369.945 209.523 369.925 209.241C369.905 208.96 369.946 208.678 370.047 208.414C370.148 208.151 370.305 207.913 370.508 207.717C372.244 206.052 374.015 205.738 375.822 206.774C379.621 208.966 378.372 215.515 375.928 218.012C370.083 224.016 366.178 224.667 360.439 228.187C359.66 228.656 359.709 228.767 360.586 228.519Z" fill="black"/>
<path d="M107.629 208.873C107.62 209.094 107.505 209.196 107.283 209.179L106.938 209.152C106.746 209.137 106.565 209.054 106.429 208.917C106.293 208.781 106.209 208.6 106.194 208.408C105.601 200.562 106.367 194.403 108.492 189.931C128.856 146.946 183.796 153.308 214.282 178.945C214.37 179.025 214.379 179.109 214.308 179.198V179.211C214.237 179.309 214.153 179.322 214.056 179.251C209.154 176.036 204.199 172.662 198.966 170.364C185.124 164.272 171.336 161.473 157.601 161.969C130.915 162.952 108.878 181.469 107.629 208.873Z" fill="black"/>
<path d="M265.143 212.699C261.902 213.912 259.179 213.301 256.974 210.866C254.437 208.063 256.668 197.077 257.147 193.292C259.405 175.558 238.43 165.835 223.965 164.281C222.167 164.095 220.33 163.895 218.452 163.683C217.85 163.612 217.832 163.466 218.399 163.245C227.139 159.831 244.235 165.941 252.192 170.218C260.445 174.655 266.042 180.792 268.982 188.629C271.068 194.182 272.303 210.015 265.143 212.699Z" fill="black"/>
<path d="M126.199 240.421C130.024 245.708 137.875 249.999 143.826 252.748C143.919 252.79 144 252.855 144.061 252.938C144.121 253.02 144.159 253.117 144.171 253.22C144.183 253.323 144.169 253.427 144.129 253.524C144.09 253.62 144.026 253.705 143.945 253.771C132.296 263.003 119.504 243.875 115.599 234.284C110.206 221.014 106.911 206.456 112.915 192.707C126.836 160.867 164.11 159.246 191.088 173.46C200.453 178.388 213.312 186.956 223.686 194.368C224.359 194.855 224.279 195.112 223.447 195.138C222.712 195.156 221.782 194.895 220.657 194.354C209.194 188.802 199.019 181.536 187.768 175.691C162.223 162.434 130.848 166.074 116.794 193.717C115.377 196.506 114.678 200.354 114.695 205.26C114.722 216.617 118.92 226.089 127.833 233.341C145.128 247.422 171.761 245.615 188.219 230.924C202.087 218.544 202.459 197.051 189.388 183.768C187.891 182.235 186.382 180.743 184.858 179.291C184.788 179.22 184.774 179.136 184.819 179.039L185.044 178.64C185.23 178.295 185.478 178.237 185.788 178.467C201.184 189.705 207.746 205.021 199.869 223.246C188.086 250.437 148.953 258.673 126.358 240.275C125.924 239.912 125.871 239.961 126.199 240.421Z" fill="black"/>
<path d="M176.968 179.051C177.225 179.37 177.951 180.313 179.147 181.881C180.86 184.112 180.98 186.703 181.79 189.32C181.817 189.382 181.817 189.435 181.79 189.479C181.711 189.612 181.653 189.616 181.618 189.492C181.286 188.257 180.435 187.779 179.984 186.756C176.424 178.724 170.265 173.552 161.506 171.241C161.391 171.214 161.351 171.148 161.387 171.042L161.467 170.683C161.529 170.47 161.666 170.386 161.878 170.431C175.6 173.26 184.938 178.892 191.66 191.139C194.024 195.461 195.145 200.234 195.021 205.459C194.011 245.07 128.524 249.6 121.404 208.607C120.102 201.168 123.609 192.946 128.696 187.168C137.658 177.01 149.184 174.486 163.273 179.596C168.294 181.416 179.413 189.585 177.978 196.36C177.952 196.471 177.889 196.57 177.8 196.64C177.711 196.711 177.6 196.749 177.486 196.749C177.373 196.749 177.262 196.711 177.173 196.64C177.084 196.57 177.021 196.471 176.995 196.36C174.989 186.796 161.44 182.332 152.952 181.615C130.888 179.742 118.335 205.738 133.16 222.076C153.483 244.499 200.148 227.217 188.831 193.517C186.865 187.646 182.481 182.266 177.845 178.201C174.197 175.013 173.904 175.297 176.968 179.051Z" fill="black"/>
<path d="M247.61 192.707C248.779 182.664 241.194 176.275 233.955 171.055C233.919 171.028 233.915 171.006 233.941 170.988L234.327 170.683C234.442 170.594 234.557 170.585 234.672 170.656C242.815 175.93 251.011 182.12 248.447 192.547C248.385 192.778 248.234 192.875 247.995 192.84L247.663 192.773C247.619 192.773 247.601 192.751 247.61 192.707Z" fill="black"/>
<path d="M161.427 175.2C157.433 173.933 151.274 173.752 142.949 174.655C142.912 174.659 142.875 174.655 142.84 174.643C142.804 174.631 142.772 174.612 142.744 174.587C142.717 174.562 142.695 174.532 142.68 174.498C142.665 174.464 142.657 174.427 142.657 174.39C142.657 174.274 142.662 174.155 142.671 174.031C142.671 173.942 142.71 173.885 142.79 173.858C157.304 168.934 168.905 172.539 177.593 184.671C177.858 185.043 178.027 185.455 178.097 185.906C178.195 186.535 178.013 186.632 177.553 186.199C171.535 180.673 168.175 177.365 161.427 175.2Z" fill="black"/>
<path d="M183.73 177.073C181.392 175.913 180.002 175.191 179.559 174.908C175.069 171.959 175.282 171.574 180.196 173.752C190.478 178.304 199.962 184.414 208.65 192.083C210.841 194.023 218.28 201.275 218.094 204.676C218.086 204.779 218.046 204.877 217.98 204.957C217.914 205.037 217.826 205.094 217.727 205.12C217.628 205.147 217.525 205.141 217.431 205.104C217.337 205.067 217.257 205.001 217.204 204.915C215.491 202.139 214.029 199.482 211.758 197.237C204.487 190.046 196.447 183.839 187.635 178.614C186.32 177.843 184.939 177.657 183.73 177.073Z" fill="black"/>
<path d="M251.675 192.946C252.392 183.475 248.819 179.543 242.23 173.765C242.124 173.676 242.115 173.579 242.203 173.473L242.217 173.459C242.305 173.353 242.403 173.34 242.509 173.42C243.395 174.101 244.298 174.766 245.219 175.412C253.711 181.301 256.058 189.01 252.259 198.538C251.683 199.991 251.4 199.933 251.409 198.366C251.409 197.037 251.497 195.231 251.675 192.946Z" fill="black"/>
<path d="M392.439 185.8C390.818 182.267 387.75 179.743 384.495 177.259C383.991 176.878 383.977 176.528 384.455 176.209C384.525 176.164 384.604 176.134 384.684 176.122C384.765 176.111 384.845 176.118 384.92 176.143C390.048 177.985 392.944 181.084 393.608 185.441C394.05 188.311 393.661 188.43 392.439 185.8Z" fill="black"/>
<path d="M279.955 228.652C278.804 230.945 277.657 232.252 276.515 232.57C267.748 235.041 269.063 223.431 270.205 218.41C272.835 206.734 275.638 197.515 270.869 185.733C270.595 185.051 270.75 184.927 271.334 185.361C273.096 186.672 275.155 188.438 277.511 190.661C287.474 200.066 294.673 207.022 299.11 211.529C303.192 215.683 306.177 219.358 308.063 222.555C308.371 223.075 308.505 223.681 308.445 224.283C308.385 224.885 308.135 225.452 307.731 225.902L307.359 226.327C307.154 226.554 306.902 226.734 306.621 226.854C306.34 226.974 306.036 227.032 305.73 227.023C305.424 227.014 305.124 226.939 304.851 226.803C304.577 226.667 304.336 226.473 304.144 226.234L296.958 217.334C296.843 217.193 296.714 217.175 296.573 217.281C296.449 217.37 296.431 217.476 296.52 217.6C300.89 224.003 307.997 233.407 307.107 241.112C306.084 250.038 294.952 247.714 292.588 240.886C292.514 240.673 292.373 240.49 292.186 240.363C291.999 240.236 291.777 240.173 291.553 240.184C291.329 240.194 291.116 240.278 290.945 240.421C290.775 240.565 290.656 240.761 290.608 240.979C289.798 244.433 284.804 249.839 280.486 247.421C273.632 243.582 278.919 233.434 280.579 228.918C280.618 228.836 280.622 228.744 280.591 228.661C280.559 228.579 280.495 228.513 280.412 228.478C280.33 228.442 280.235 228.441 280.149 228.474C280.063 228.506 279.994 228.57 279.955 228.652Z" fill="black"/>
<path d="M352.8 211.118L351.233 211.476C350.817 211.574 350.507 211.437 350.303 211.065C348.39 207.691 353.186 206.017 355.816 206.748C363.959 209.046 361.368 217.879 355.311 220.894C339.331 228.811 321.239 221.479 307.424 212.911C299.361 207.903 292.321 200.239 285.786 193.331C283.434 190.847 280.419 188.669 278.161 186.251C277.063 185.082 277.187 184.932 278.533 185.8C291.683 194.261 302.323 205.738 316.762 213.15C324.826 217.295 348.683 224.056 353.863 212.393C353.931 212.235 353.955 212.061 353.93 211.891C353.906 211.721 353.834 211.561 353.724 211.429C353.614 211.296 353.469 211.197 353.306 211.142C353.143 211.088 352.968 211.079 352.8 211.118Z" fill="black"/>
<path d="M182.441 185.733C182.344 185.556 182.383 185.419 182.561 185.321L182.879 185.135C182.95 185.1 183.003 185.118 183.039 185.189L186.293 191.884C186.337 191.99 186.284 192.078 186.134 192.149C186.01 192.211 185.899 192.154 185.802 191.976L182.441 185.733Z" fill="black"/>
<path d="M196.588 186.69C204.957 191.511 214.083 199.667 214.136 210.029C214.136 210.135 214.087 210.192 213.99 210.201L213.644 210.214C213.518 210.225 213.393 210.186 213.294 210.104C213.195 210.023 213.13 209.905 213.113 209.776C212.582 205.773 211.147 202.147 208.809 198.897C207.813 197.502 206.471 197.343 205.409 196.094C202.522 192.658 199.52 189.612 196.402 186.955C195.455 186.158 195.517 186.07 196.588 186.69Z" fill="black"/>
<path d="M347.727 194.447C347.373 193.571 346.727 193.172 345.788 193.252C344.77 193.34 344.039 193.097 343.596 192.521C343.215 192.034 343.193 191.396 343.53 190.608C346.319 184.166 354.927 187.752 355.751 194.168C356.335 198.729 354.263 201.882 349.534 203.626C332.013 210.095 308.568 200.983 294.527 190.369C294.492 190.343 294.463 190.309 294.442 190.269C294.421 190.23 294.409 190.187 294.406 190.143C294.404 190.099 294.411 190.055 294.427 190.013C294.443 189.972 294.469 189.935 294.501 189.904L294.753 189.652C294.788 189.617 294.824 189.612 294.859 189.639C307.744 197.157 324.083 202.072 339.252 200.571C343.012 200.199 345.243 199.15 347.196 196.081C347.683 195.32 347.86 194.775 347.727 194.447Z" fill="black"/>
<path d="M160.138 206.256C157.522 198.259 159.488 191.618 168.573 190.369C170.061 190.165 171.363 190.405 172.479 191.086C172.544 191.132 172.592 191.197 172.615 191.273C172.639 191.348 172.637 191.43 172.61 191.504C172.582 191.578 172.531 191.641 172.464 191.684C172.398 191.726 172.319 191.745 172.24 191.737C167.71 191.02 163.513 192.627 162.357 197.396C160.311 205.884 170.021 212.101 177.141 206.495C178.027 205.796 178.855 205.065 179.625 204.303C179.731 204.199 179.863 204.125 180.008 204.09C180.152 204.055 180.304 204.059 180.447 204.102C180.591 204.145 180.72 204.226 180.823 204.336C180.926 204.446 180.999 204.582 181.033 204.728C182.787 212.725 174.657 218.849 167.551 218.809C158.846 218.747 152.965 214.753 149.91 206.827C149.793 206.525 149.577 206.271 149.298 206.107C149.018 205.943 148.69 205.878 148.369 205.924C141.289 206.894 142.126 216.033 146.975 217.534C149.729 218.393 149.684 219.07 146.842 219.566C133.426 221.917 129.015 201.78 139.549 194.859C143.933 191.976 150.933 192.787 154.958 196.851C157.309 199.216 157.482 203.467 159.7 206.482C160.311 207.323 160.457 207.248 160.138 206.256Z" fill="black"/>
<path d="M170.831 259.51C168.759 263.114 165.606 264.469 161.374 263.574C155.887 262.419 158.199 254.223 162.41 252.788C184.181 245.389 204.173 233.394 205.063 208.422C205.182 205.22 204.213 201.926 203.615 198.671C203.588 198.494 203.655 198.37 203.814 198.3L204.173 198.14C204.297 198.078 204.381 198.114 204.425 198.246C207.095 207.266 207.188 218.344 205.581 225.199C204.053 231.734 203.057 238.429 200.613 244.433C199.178 247.993 190.756 268.263 184.221 259.828C183.938 259.465 183.645 259.452 183.344 259.789C179.997 263.481 174.232 264.956 171.681 259.536C171.416 258.996 171.132 258.987 170.831 259.51Z" fill="black"/>
<path d="M206.843 200.358C205.922 197.799 206.214 197.648 207.719 199.907C209.889 203.157 210.761 207.336 210.336 212.446C210.327 212.482 210.31 212.513 210.283 212.539C210.168 212.637 210.053 212.694 209.938 212.712C209.915 212.716 209.892 212.715 209.869 212.71C209.847 212.704 209.826 212.694 209.807 212.681C209.789 212.667 209.773 212.65 209.761 212.63C209.749 212.61 209.742 212.589 209.739 212.566C209.225 208.359 208.26 204.29 206.843 200.358Z" fill="black"/>
<path d="M232.307 237.764C228.242 240.461 225.307 242.32 220.605 239.212C216.38 236.436 216.208 231.083 219.688 227.523C219.758 227.448 219.807 227.355 219.829 227.254C219.851 227.153 219.845 227.049 219.812 226.953C219.779 226.857 219.72 226.772 219.642 226.708C219.564 226.645 219.469 226.605 219.369 226.593C216.593 226.221 212.037 224.122 212.342 220.668C212.568 218.158 214.72 217.055 216.978 215.687C217.403 215.439 217.625 215.072 217.642 214.585L217.749 212.552C217.784 211.941 218.107 211.605 218.718 211.543L222.438 211.171C223.173 211.091 223.545 210.684 223.553 209.949C223.62 202.231 228.761 200.876 233.609 205.95C233.99 206.34 234.278 206.282 234.472 205.778C236.04 201.673 241.433 200.265 243.452 204.343C244.249 205.977 243.744 207.837 243.625 209.643C243.618 209.732 243.639 209.821 243.684 209.897C243.729 209.974 243.797 210.035 243.877 210.073C243.958 210.11 244.048 210.122 244.136 210.107C244.224 210.092 244.305 210.051 244.369 209.988L245.684 208.7C246.022 208.379 246.441 208.163 246.892 208.076C248.557 207.766 250.218 207.792 251.874 208.155C252.272 208.244 252.578 208.461 252.79 208.806C254.03 210.887 254.526 213.141 254.278 215.568C254.263 215.709 254.297 215.85 254.375 215.967C254.453 216.084 254.569 216.168 254.703 216.205C257.227 216.896 259.977 216.962 260.999 219.845C262.328 223.564 256.749 226.42 253.919 226.393C252.91 226.393 252.737 226.77 253.401 227.523C256.368 230.923 256.678 234.178 254.331 237.286C250.78 241.997 246.365 242.148 241.088 237.738C240.689 237.401 240.507 237.494 240.543 238.016C240.578 238.539 240.941 239.137 241.632 239.81C243.209 241.36 244.789 242.546 246.374 243.37C247.632 244.025 247.875 244.95 247.105 246.146C243.598 251.566 239.892 249.972 236.837 245.721C236.773 245.637 236.69 245.569 236.594 245.525C236.498 245.481 236.393 245.461 236.288 245.468C236.182 245.475 236.08 245.507 235.991 245.563C235.901 245.619 235.827 245.696 235.774 245.787C233.419 250.144 230.213 250.839 226.157 247.873C225.807 247.617 225.531 247.274 225.355 246.877C225.179 246.481 225.11 246.046 225.154 245.615C225.199 245.184 225.355 244.772 225.608 244.42C225.861 244.068 226.201 243.789 226.595 243.609C229.208 242.413 231.267 240.616 232.772 238.216C233.303 237.366 233.148 237.215 232.307 237.764Z" fill="black"/>
<path d="M225.32 267.267L234.087 266.869C234.53 266.851 234.601 267.006 234.3 267.333C232.148 269.698 228.694 271.89 225.121 270.761C224.935 270.699 224.815 270.761 224.762 270.947V270.96C224.709 271.155 224.775 271.279 224.961 271.332C229.584 272.673 232.812 270.561 235.801 267.652C236.323 267.148 236.562 267.258 236.518 267.984L236.12 274.015C236.093 274.396 236.27 274.6 236.651 274.626L237.634 274.706C238.139 274.741 238.378 274.507 238.351 274.002L237.953 267.36C237.926 266.891 238.139 266.727 238.59 266.869C238.794 266.939 238.958 267.103 239.082 267.36C239.232 267.652 239.445 267.887 239.719 268.064C243.93 270.774 246.494 274.453 251.767 270.495C251.81 270.456 251.839 270.403 251.847 270.346C251.856 270.288 251.844 270.23 251.814 270.18C251.785 270.13 251.739 270.092 251.684 270.072C251.63 270.052 251.57 270.051 251.515 270.07C246.082 272.527 243.917 269.605 239.746 267.015C238.807 266.421 238.887 266.196 239.985 266.337C247.716 267.294 253.534 267.998 259.618 261.755C265.463 255.764 265.476 246.797 268.239 238.92C268.947 236.875 269.359 236.932 269.474 239.093C270.019 249.56 269.554 261.808 262.128 270.269C251.037 282.902 234.618 285.054 220.299 276.38C206.272 267.891 203.668 251.925 205.82 237.167C206.015 235.821 206.267 235.812 206.577 237.14C208.038 243.383 211.213 261.263 217.762 264.092C218.258 264.305 218.364 264.181 218.081 263.72C217.177 262.233 216.766 260.798 215.69 259.417C212.395 255.237 210.607 250.557 210.323 245.376C210.316 245.289 210.338 245.201 210.387 245.129C210.436 245.056 210.508 245.002 210.591 244.976C210.675 244.949 210.765 244.952 210.847 244.984C210.928 245.016 210.997 245.074 211.04 245.15C212.236 247.103 213.551 248.551 215.756 249.56C219.037 251.061 226.117 253.266 228.508 255.551C229.695 256.685 229.531 257.07 228.017 256.707C223.722 255.688 219.834 253.851 216.354 251.194C216.168 251.052 216.035 251.026 215.955 251.114L215.942 251.128C215.862 251.216 215.867 251.309 215.955 251.407C220.126 255.697 226.369 258.381 231.802 260.081C234.291 260.851 234.242 261.391 231.656 261.701C228.096 262.126 224.111 262.002 219.701 261.329C218.798 261.197 218.74 261.356 219.529 261.808C224.032 264.358 229.372 263.654 234.14 263.774C236.452 263.836 236.487 264.159 234.247 264.743C231.603 265.434 228.76 266.629 225.307 267.121C225.293 267.128 225.282 267.14 225.274 267.154C225.267 267.167 225.264 267.183 225.265 267.198C225.267 267.214 225.273 267.229 225.282 267.241C225.292 267.253 225.305 267.262 225.32 267.267Z" fill="black"/>
<path d="M253.893 261.476L241.353 261.728C241.141 261.728 241.034 261.622 241.034 261.409C241.043 261.276 241.043 261.144 241.034 261.011C241.034 260.896 241.088 260.816 241.194 260.772C248.42 257.982 258.701 254.263 262.487 247.515C263.984 244.867 264.559 245.053 264.214 248.073C263.324 255.95 258.29 265.222 249.403 266.019C246.374 266.298 242.854 264.863 239.666 264.371C238.028 264.115 238.028 263.889 239.666 263.694C243.811 263.189 250.133 263.827 254.012 261.954C254.694 261.617 254.654 261.458 253.893 261.476Z" fill="black"/>
<path d="M245.205 255.378C246.892 254.741 248.128 253.532 250.067 252.987C253.344 252.057 256.412 250.663 259.273 248.803C259.503 248.652 259.702 248.688 259.87 248.909L260.083 249.188C260.118 249.232 260.114 249.277 260.07 249.321C255.722 253.067 250.696 255.458 244.993 256.494C244.935 256.503 244.877 256.497 244.822 256.478C244.767 256.458 244.718 256.425 244.68 256.381C244.641 256.337 244.614 256.284 244.602 256.228C244.589 256.171 244.591 256.112 244.608 256.056C244.714 255.71 244.913 255.484 245.205 255.378Z" fill="black"/>
<path d="M300.663 266.55C303.865 265.421 304.502 263.8 305.326 261.104C305.494 260.554 305.614 260.563 305.684 261.13C305.986 263.503 305.18 265.328 303.267 266.603C297.794 270.229 290.94 269.764 285.746 265.886C281.345 262.6 279.463 257.738 280.101 251.3C280.127 251.079 280.251 250.973 280.472 250.981L280.844 250.995C280.96 251.004 281.013 251.066 281.004 251.181C280.698 262.286 289.479 270.455 300.663 266.55Z" fill="black"/>
<path d="M243.2 254.528C243.2 254.598 243.186 254.667 243.16 254.732C243.133 254.796 243.094 254.855 243.044 254.904C242.995 254.953 242.936 254.992 242.872 255.019C242.808 255.046 242.738 255.06 242.669 255.06H231.085C230.944 255.06 230.809 255.004 230.71 254.904C230.61 254.804 230.554 254.669 230.554 254.528V254.475C230.554 254.334 230.61 254.199 230.71 254.099C230.809 254 230.944 253.944 231.085 253.944H242.669C242.738 253.944 242.808 253.958 242.872 253.984C242.936 254.011 242.995 254.05 243.044 254.099C243.094 254.149 243.133 254.207 243.16 254.272C243.186 254.336 243.2 254.405 243.2 254.475V254.528Z" fill="black"/>
<path d="M204.771 256.308C205.74 263.548 205.979 273.856 200.546 279.302C193.878 285.97 182.282 283.792 175.6 278.624C175.042 278.199 175.117 277.96 175.826 277.907C190.287 276.968 199.807 269.756 204.385 256.268C204.571 255.719 204.7 255.733 204.771 256.308Z" fill="black"/>
<path d="M271.042 259.124C275.199 271.345 285.959 277.854 298.445 277.907C299.189 277.907 299.264 278.133 298.671 278.585C283.209 290.38 264.214 278.771 270.072 259.138C270.382 258.119 270.705 258.115 271.042 259.124Z" fill="black"/>
<path d="M204.385 292.785C201.928 297.899 197.199 305.112 191.022 301.087C190.685 300.866 190.46 300.556 190.345 300.157C188.658 294.272 194.157 291.191 198.899 287.737C203.061 284.691 205.629 279.979 206.603 273.603C206.639 273.373 206.772 273.285 207.002 273.338C207.17 273.382 207.259 273.444 207.268 273.524C208.277 280.254 207.316 286.674 204.385 292.785Z" fill="black"/>
<path d="M212.024 284.044C211.953 286.134 212.019 288.215 212.223 290.287C212.781 295.601 208.437 303.411 205.754 308.698C205.55 309.097 205.413 309.517 205.342 309.96L204.983 312.205C204.965 312.298 204.918 312.382 204.848 312.446C204.777 312.509 204.689 312.548 204.595 312.557C204.501 312.566 204.406 312.545 204.325 312.495C204.245 312.446 204.182 312.372 204.146 312.285C201.49 304.992 202.42 300.237 205.926 292.824C208.61 287.183 209.814 281.985 209.54 277.23C209.3 272.979 209.792 272.908 211.014 277.017C212.555 282.215 215.384 286.595 219.502 290.155C219.766 290.382 220.083 290.54 220.422 290.612C220.761 290.684 221.112 290.668 221.442 290.566C224.218 289.69 232.068 286.369 232.852 291.323C234.446 301.313 217.735 305.643 214.149 297.274C212.767 294.02 213.538 288.242 212.648 283.991C212.628 283.919 212.584 283.857 212.523 283.815C212.462 283.772 212.388 283.752 212.314 283.759C212.24 283.765 212.17 283.797 212.117 283.849C212.064 283.901 212.031 283.97 212.024 284.044Z" fill="black"/>
<path d="M262.633 287.033C262.567 290.022 262.607 293.449 261.411 296.052C256.032 307.729 236.784 298.868 243.877 289.411C244.255 288.905 244.784 288.534 245.386 288.35C245.988 288.166 246.632 288.179 247.225 288.388L253.282 290.5C253.705 290.648 254.156 290.693 254.597 290.63C255.039 290.568 255.458 290.4 255.819 290.141C258.334 288.344 260.256 286.059 261.584 283.287C262.78 280.816 262.54 277.695 264.174 275.025C264.918 273.812 265.295 273.918 265.303 275.344C265.343 279.461 265.835 283.566 267.336 287.591C270.657 296.477 274.163 300.622 270.776 310.598C270.342 311.882 270.001 311.855 269.753 310.518C269.134 307.241 267.792 303.938 265.729 300.609C264.586 298.749 263.678 294.219 263.005 287.02C263.004 286.97 262.982 286.924 262.946 286.89C262.91 286.857 262.862 286.839 262.813 286.84C262.763 286.842 262.717 286.863 262.683 286.9C262.65 286.936 262.632 286.984 262.633 287.033Z" fill="black"/>
<path d="M269.833 290.048C267.646 285.328 266.862 280.586 267.482 275.822C267.721 273.962 268.009 273.958 268.345 275.808C269.275 281.029 272.211 284.881 276.687 288.202C280.672 291.164 285.747 293.914 284.365 299.001C283.949 300.516 283.05 301.516 281.668 302.003C275.996 303.996 271.706 294.073 269.833 290.048Z" fill="black"/>
<path d="M236.717 314.888C236.558 318.169 237.076 326.484 231.975 326.617C231.107 326.644 230.261 326.374 229.438 325.807C224.589 322.433 229.438 317.717 231.257 314.277C231.355 314.091 231.315 313.945 231.138 313.839H231.125C230.974 313.75 230.753 313.923 230.46 314.357C228.007 318.041 224.554 320.197 220.099 320.826C219.947 320.847 219.792 320.823 219.654 320.756C219.516 320.689 219.401 320.583 219.324 320.45C219.247 320.317 219.211 320.164 219.222 320.011C219.232 319.858 219.288 319.712 219.382 319.59L224.191 313.36C224.332 313.175 224.288 313.09 224.058 313.108L215.45 313.759C214.317 313.848 214.201 313.551 215.105 312.869C219.807 309.296 226.409 307.41 229.956 303.969C235.03 299.068 235.667 294.339 236.903 287.63C236.938 287.427 237.049 287.383 237.235 287.498L237.766 287.83C237.851 287.882 237.92 287.956 237.967 288.044C238.013 288.133 238.036 288.233 238.032 288.335C237.758 294.843 239.856 300.033 244.328 303.903C248.22 307.263 254.371 308.379 258.94 312.55C259.032 312.634 259.095 312.745 259.121 312.867C259.146 312.988 259.133 313.115 259.084 313.229C259.034 313.343 258.95 313.439 258.843 313.503C258.736 313.567 258.612 313.596 258.488 313.586L251.222 312.962C250.691 312.909 250.585 313.099 250.904 313.533L255.726 320.015C256.505 321.069 256.252 321.459 254.968 321.184C248.792 319.843 245.869 316.495 242.283 311.727C242.185 311.603 242.07 311.585 241.937 311.673L241.924 311.687C241.791 311.775 241.769 311.89 241.858 312.032C243.837 315.247 250.465 323.31 243.97 325.953C237.78 328.477 237.474 319.099 236.983 314.875C236.85 313.794 236.761 313.799 236.717 314.888Z" fill="black"/>
<path d="M239.188 340.592C239.427 342.717 240.623 344.882 240.849 346.675C241.407 351.13 240.322 355.332 237.594 359.281C237.542 359.358 237.472 359.421 237.391 359.466C237.309 359.511 237.219 359.537 237.126 359.541C237.033 359.545 236.941 359.527 236.856 359.489C236.771 359.451 236.696 359.393 236.638 359.321C234.008 355.956 232.768 352.193 232.918 348.03C233.011 345.586 234.22 342.783 234.765 340.114C234.951 339.219 234.778 339.144 234.247 339.888C232.201 342.757 232.453 346.596 228.03 347.074C223.461 347.552 223.049 342.332 225.413 339.104C227.393 336.381 230.992 334.269 233.237 331.519C234.61 329.837 235.938 328.136 237.222 326.418C237.248 326.384 237.282 326.358 237.321 326.341C237.36 326.324 237.403 326.317 237.446 326.321C237.488 326.325 237.529 326.34 237.564 326.364C237.599 326.388 237.628 326.42 237.647 326.458C240.317 332.157 243.346 333.684 247.729 337.271C250.426 339.476 253.242 345.918 247.743 346.981C244.395 347.619 240.981 342.969 239.719 340.432C239.241 339.449 239.064 339.502 239.188 340.592Z" fill="black"/>
<path fill-rule="evenodd" clip-rule="evenodd" d="M286.529 259.561C286.749 259.981 287.052 260.343 287.42 260.628C287.789 260.913 288.216 261.114 288.677 261.221C289.139 261.328 289.625 261.338 290.109 261.251C290.593 261.163 291.065 260.98 291.497 260.711C291.93 260.443 292.315 260.094 292.631 259.686C292.947 259.277 293.187 258.817 293.338 258.33C293.488 257.844 293.547 257.341 293.509 256.851C293.472 256.361 293.34 255.892 293.12 255.473C292.901 255.053 292.598 254.691 292.229 254.406C291.861 254.121 291.434 253.92 290.972 253.813C290.511 253.706 290.025 253.696 289.541 253.784C289.057 253.871 288.585 254.054 288.152 254.323C287.72 254.591 287.334 254.94 287.019 255.348C286.703 255.757 286.463 256.217 286.312 256.704C286.161 257.19 286.103 257.693 286.14 258.183C286.178 258.674 286.31 259.142 286.529 259.561ZM288.446 258.271C288.595 258.66 288.883 258.954 289.246 259.087C289.61 259.221 290.02 259.184 290.385 258.984C290.751 258.784 291.042 258.438 291.196 258.021C291.349 257.605 291.352 257.152 291.203 256.763C291.054 256.374 290.766 256.08 290.402 255.946C290.039 255.812 289.629 255.849 289.263 256.049C288.898 256.249 288.606 256.596 288.453 257.012C288.3 257.429 288.297 257.882 288.446 258.271Z" fill="black"/>
</svg>
