<svg width="512" height="512" viewBox="0 0 512 512" fill="none" xmlns="http://www.w3.org/2000/svg">
<rect width="512" height="512" fill="white"/>
<path d="M198.658 378.025C183.676 363.353 172.595 345.145 170.791 324.094C168.773 300.716 176.386 280.139 193.628 262.362C218.324 236.882 275.555 215.229 277.487 169.536C278.598 143.053 264.929 119.979 236.824 115.987C231.49 115.234 226.046 115.915 220.493 118.029C206.641 123.333 197.929 135.562 200.864 150.781C203.434 164.086 218.215 177.045 232.249 170.374C232.383 170.301 232.486 170.338 232.559 170.484L232.796 170.939C232.93 171.207 232.863 171.419 232.596 171.577C220.712 178.309 209.959 178.315 200.335 171.596C191.441 165.399 187.249 154.809 187.504 144.183C188.032 123.004 206.951 108.661 226.708 106.437C245.323 104.347 261.18 109.754 274.279 122.658C283.975 132.209 290.196 142.883 292.942 154.682C295.786 166.845 295.148 178.801 291.029 190.551C289.097 196.043 287.074 201.493 284.959 206.9C284.838 207.179 284.917 207.38 285.196 207.501L285.634 207.683C285.658 207.696 285.676 207.689 285.688 207.665C287.39 203.862 289.267 200.138 291.32 196.493C291.624 195.946 292.08 195.751 292.687 195.909C304.972 199.263 317.785 189.967 323.672 180.034C329.923 169.518 329.34 154.955 321.94 145.058C320.555 143.211 320.853 142.883 322.833 144.074C336.94 152.604 341.023 169.208 333.806 183.57C327.08 196.93 307.487 208.668 292.469 204.749C291.825 204.591 291.326 204.791 290.974 205.35C286.345 212.568 280.433 218.522 273.24 223.212C273.179 223.249 273.149 223.309 273.149 223.394C273.161 223.565 273.179 223.716 273.203 223.85C273.228 223.959 273.295 223.996 273.404 223.959C281.715 220.715 288.477 215.831 296.077 213.607C310.221 209.488 328.702 200.156 336.43 186.596C336.491 186.486 336.57 186.468 336.667 186.541L337.25 186.978C337.493 187.161 337.554 187.386 337.433 187.653C328.265 207.611 311.387 214.701 291.739 220.788C286.982 222.264 279.965 224.871 275.682 227.568C265.463 233.996 255.008 240.005 244.315 245.594C244.133 245.691 244.084 245.831 244.169 246.013V246.031C244.254 246.214 244.394 246.268 244.588 246.195C261.047 239.561 279.145 233.528 296.661 237.283C305.373 239.16 313.556 247.344 311.697 256.694C310.664 261.882 306.879 264.92 300.342 265.807C300.136 265.831 300.014 265.746 299.978 265.552L299.96 265.533C299.923 265.339 300.002 265.211 300.196 265.151C309.182 262.307 311.169 251.098 303.313 245.685C287.147 234.549 260.062 245.484 241.581 247.599C239.54 247.83 237.893 248.534 236.642 249.713C235.815 250.503 235.967 250.813 237.097 250.643C250.779 248.674 264.497 248.96 278.252 251.499C284.17 252.593 287.238 250.266 287.456 244.519C287.461 244.399 287.489 244.282 287.541 244.175C287.592 244.068 287.664 243.972 287.753 243.895C287.843 243.818 287.947 243.761 288.059 243.727C288.171 243.693 288.288 243.683 288.404 243.698C292.268 244.154 296.169 245.977 296.497 250.369C297.28 260.612 284.631 259.045 278.143 257.022C258.623 251.007 231.429 251.062 213.203 261.961C213.021 262.07 212.978 262.216 213.075 262.398L213.094 262.417C213.191 262.599 213.337 262.648 213.531 262.562C240.159 250.661 283.72 250.697 299.668 280.898C305.683 292.271 295.221 301.184 288.477 288.498C279.309 271.256 254.813 264.385 236.623 265.77C236.563 265.77 236.532 265.752 236.532 265.716C236.532 265.691 236.532 265.679 236.532 265.679C236.532 265.643 236.545 265.624 236.569 265.624C243.677 267.228 254.722 267.575 260.427 272.186C261.715 273.219 261.563 273.522 259.971 273.097C235.566 266.463 210.87 268.522 193.537 286.894C185.347 295.57 180.882 306.937 180.141 320.996C178.992 342.904 187.559 359.617 199.424 377.096C199.655 377.46 199.582 377.734 199.205 377.916C199.047 377.989 198.865 378.025 198.658 378.025Z" fill="black"/>
<path d="M236.531 138.388C235.584 136.273 233.907 134.961 232.139 133.248C231.143 132.288 231.301 132.039 232.613 132.501C234.836 133.278 236.872 134.688 238.719 136.729C249.673 148.813 244.679 164.433 229.46 168.88C217.212 172.471 205.383 162.829 202.849 151.492C196.707 124.208 232.576 111.285 250.238 127.78C262.959 139.627 262.431 158.291 249.089 169.937C248.178 170.739 248.038 170.624 248.67 169.591C254.466 160.095 258.221 152.076 254.266 140.739C251.641 133.242 246.726 128.272 239.521 125.83C228.476 122.075 215.316 126.614 213.676 139.554C212.856 145.915 216.337 153.406 222.989 154.481C232.066 155.921 240.359 147.154 236.531 138.388Z" fill="black"/>
<path d="M310.057 154.281C306.691 146.48 300.725 142.646 292.158 142.78C291.502 142.792 291.113 142.47 290.992 141.814C290.919 141.328 290.98 140.83 291.174 140.319C291.332 139.882 291.672 139.499 292.195 139.171C305.063 130.842 321.266 141.632 324.51 154.445C327.244 165.344 325.658 179.67 315.087 185.375C305.154 190.715 297.189 186.359 297.207 174.421C297.205 174.175 297.267 173.934 297.386 173.719C297.505 173.505 297.678 173.324 297.888 173.195C298.097 173.065 298.338 172.991 298.585 172.979C298.833 172.967 299.08 173.018 299.303 173.126C303.848 175.411 307.341 175.052 309.783 172.051C313.483 167.495 312.298 159.53 310.057 154.281Z" fill="black"/>
<path d="M245.663 201.65C245.626 198.868 244.277 197.082 241.616 196.292C241.332 196.209 241.077 196.05 240.88 195.834C240.683 195.618 240.553 195.354 240.505 195.07C240.359 194.183 240.723 193.509 241.598 193.047C242.035 192.799 242.547 192.703 243.056 192.774C247.929 193.382 249.885 195.751 248.925 199.882C248.585 201.316 247.886 202.191 246.829 202.507C246.064 202.738 245.675 202.452 245.663 201.65Z" fill="black"/>
<path d="M238.246 205.734C237.748 204.689 236.909 204.008 235.731 203.692C235.51 203.633 235.321 203.491 235.199 203.295C235.078 203.1 235.033 202.864 235.074 202.635C235.196 201.955 235.621 201.535 236.35 201.377C238.999 200.806 240.621 201.809 241.217 204.385C242.31 209.197 238.246 211.475 235.002 213.68C234.729 213.862 234.417 213.977 234.091 214.013C233.766 214.049 233.436 214.006 233.131 213.888C232.825 213.77 232.552 213.581 232.335 213.335C232.119 213.089 231.964 212.795 231.885 212.477C230.955 208.668 235.494 208.631 237.662 207.483C237.967 207.323 238.198 207.052 238.306 206.726C238.415 206.4 238.393 206.044 238.246 205.734Z" fill="black"/>
<path d="M194.32 211.675C194.13 211.647 193.937 211.684 193.772 211.78C193.607 211.877 193.479 212.027 193.411 212.206C193.343 212.384 193.338 212.581 193.397 212.763C193.456 212.945 193.576 213.101 193.736 213.206C199.605 217.264 201.276 222.939 198.748 230.229C198.712 230.363 198.688 230.363 198.676 230.229C198.566 224.105 197.855 215.502 190.747 214.008C190.274 213.908 189.832 213.694 189.46 213.385C189.087 213.077 188.796 212.682 188.609 212.236C188.423 211.79 188.347 211.305 188.39 210.823C188.432 210.341 188.59 209.877 188.852 209.47C194.01 201.377 202.722 205.97 205.055 213.899C209.429 228.844 202.576 245.74 192.497 256.256C185.012 264.081 180.395 269.045 178.645 271.147C178.499 271.317 178.341 271.335 178.171 271.202C178.001 271.068 177.977 270.916 178.098 270.746C181.27 266.177 184.799 261.894 188.688 257.897C196.209 250.157 200.948 240.964 202.904 230.32C204.089 223.923 202.339 212.586 194.32 211.675Z" fill="black"/>
<path d="M320.19 220.46C323.453 221.044 327.335 220.916 330.415 221.718C341.485 224.634 350.173 230.983 356.479 240.764C356.661 241.056 356.618 241.311 356.351 241.53L355.987 241.821C355.95 241.846 355.914 241.84 355.877 241.803C340.895 224.926 314.887 222.319 294.072 226.639C293.477 226.76 292.961 227.028 292.523 227.441C291.976 227.939 291.545 228.206 291.229 228.243C287.353 228.668 283.896 229.063 280.858 229.428C276.642 229.938 276.539 229.488 280.549 228.079C284.765 226.597 289.491 225.005 294.728 223.304C305.865 219.695 314.613 219.221 324.127 210.545C324.233 210.45 324.367 210.389 324.509 210.372C324.65 210.355 324.794 210.382 324.92 210.45C325.046 210.518 325.147 210.623 325.211 210.751C325.275 210.879 325.297 211.024 325.276 211.165C324.704 214.604 322.918 217.222 319.917 219.02C318.738 219.737 318.83 220.217 320.19 220.46Z" fill="black"/>
<path d="M198.658 378.025C207.358 385.17 216.756 391.246 226.854 396.252C226.89 396.264 226.902 396.288 226.89 396.325L226.69 396.762C226.568 397.029 226.362 397.108 226.07 396.999C204.126 388.02 186.695 375.644 173.779 359.872C155.425 337.418 148.372 305.194 162.442 279.075C167.145 270.345 174.891 262.708 182.692 256.457C184.697 254.865 184.429 253.929 181.89 253.65C179.946 253.443 178.178 252.83 176.586 251.809C176.311 251.631 176.078 251.396 175.902 251.12C175.726 250.843 175.611 250.531 175.565 250.205C174.508 242.732 185.098 238.868 187.03 245.557C187.098 245.782 187.233 245.981 187.417 246.126C187.602 246.271 187.826 246.357 188.06 246.371C188.295 246.385 188.528 246.326 188.728 246.204C188.928 246.081 189.086 245.9 189.18 245.685C192.188 238.723 196.452 225.29 190.529 219.531C190.371 219.373 190.335 219.19 190.42 218.984C190.48 218.814 190.541 218.65 190.602 218.492C190.638 218.394 190.705 218.364 190.802 218.401C196.416 220.478 196.944 228.06 196.744 233.237C196.288 245.813 183.931 255.691 179.138 263.528C155.498 302.168 162.315 346.658 195.887 376.877C196.702 377.618 197.625 378.001 198.658 378.025Z" fill="black"/>
<path d="M307.377 267.757C317.237 264.695 325.22 258.717 325.056 247.343C324.838 231.541 305.846 229.919 294.619 228.224C294.473 228.2 294.4 228.121 294.4 227.987C294.4 227.963 294.4 227.939 294.4 227.914C294.4 227.841 294.43 227.805 294.491 227.805C305.354 227.878 319.37 227.003 325.822 237.702C334.607 252.283 325.129 272.787 305.7 269.634C304.752 269.476 304.704 269.099 305.554 268.504C305.882 268.273 306.49 268.024 307.377 267.757Z" fill="black"/>
<path d="M194.175 290.248C204.892 278.073 219.582 270.801 236.897 272.095C237.237 272.119 237.407 272.307 237.407 272.66L237.389 273.17C237.389 273.45 237.249 273.589 236.97 273.589C225.84 273.905 215.633 276.973 206.35 282.794C196.933 288.699 190.596 296.992 187.34 307.672C187.243 307.976 187.042 308.085 186.738 308L186.283 307.873C186.091 307.817 185.928 307.689 185.829 307.516C185.731 307.342 185.704 307.137 185.754 306.943C187.31 300.406 190.116 294.841 194.175 290.248Z" fill="black"/>
<path d="M268.883 317.241C278.853 305.941 274.169 289.154 261.957 281.791C259.406 280.248 257.425 278.905 256.016 277.763C254.485 276.536 254.667 276.183 256.562 276.706C272.334 280.995 279.132 291.056 276.957 306.888C276.32 311.481 273.731 316.348 269.722 318.353C267.559 319.422 267.279 319.051 268.883 317.241Z" fill="black"/>
<path d="M267.115 402.759C263.507 401.1 259.734 399.988 256.654 397.984C245.171 390.493 236.368 374.526 242.164 361.057C246.155 351.798 258.112 348.7 266.623 353.694C271.435 356.519 276.411 363.336 274.971 369.314C274.925 369.519 274.81 369.702 274.644 369.832C274.479 369.962 274.273 370.031 274.063 370.026C273.853 370.022 273.65 369.945 273.49 369.809C273.33 369.672 273.222 369.484 273.185 369.277C272.802 367.327 270.761 365.669 268.646 365.632C261.392 365.523 260.098 371.756 261.538 377.588C266.241 396.489 288.112 400.153 304.352 394.63C324.309 387.85 339.036 365.632 327.134 345.529C321.083 335.286 306.375 330.036 296.332 337.965C287.839 344.69 290.208 355.863 301.435 357.922C302.541 358.129 302.559 358.402 301.49 358.743C298.343 359.763 295.299 359.447 292.359 357.795C282.261 352.145 278.817 338.949 283.792 328.87C288.768 318.754 300.87 313.924 311.952 315.182C341.26 318.517 349.862 352.09 338.544 375.529C326.624 400.207 300.451 409.229 273.695 404.673C273.088 404.575 272.498 404.642 271.927 404.873C269.959 405.712 268.403 406.082 267.261 405.985C235.365 403.251 211.963 387.953 197.054 360.091C189.229 345.45 186.173 331.203 187.886 317.351C189.126 307.363 195.45 289.21 207.297 287.387C210.238 286.925 210.456 287.496 207.953 289.1C192.917 298.669 189.727 328.177 196.689 342.886C197.236 344.052 197.412 343.998 197.218 342.722C195.013 328.451 197.728 310.935 206.313 299.216C216.483 285.309 241.271 277.508 253.464 293.383C256.696 297.588 256.696 301.859 253.464 306.197C253.385 306.308 253.277 306.395 253.151 306.449C253.026 306.503 252.888 306.522 252.753 306.503C252.617 306.484 252.49 306.429 252.384 306.343C252.278 306.256 252.198 306.143 252.152 306.014L250.912 302.806C250.738 302.327 250.385 301.934 249.928 301.713C245.724 299.623 241.775 299.495 238.081 301.33C221.112 309.732 218.233 334.593 222.571 350.76C223.178 353.007 223.476 352.965 223.464 350.632C223.409 342.43 223.117 335.759 229.916 329.654C237.443 322.892 249.163 327.375 248.907 337.801C248.762 343.578 242.237 352.564 240.687 356.829C236.641 368.044 237.486 378.087 243.221 386.957C248.421 394.976 256.362 400.304 267.042 402.941C267.067 402.942 267.093 402.935 267.115 402.922C267.137 402.908 267.154 402.889 267.163 402.867C267.171 402.845 267.171 402.822 267.163 402.802C267.154 402.783 267.137 402.767 267.115 402.759Z" fill="black"/>
<path d="M169.059 370.316C162.917 367.764 153.621 363.608 155.754 355.425C155.912 354.854 156.246 354.422 156.756 354.131C158.409 353.207 160.11 353.037 161.86 353.62C162.467 353.815 162.905 354.204 163.172 354.787C168.621 366.616 182.382 373.815 193.555 380.468C193.774 380.601 193.822 380.777 193.701 380.996L193.682 381.014C193.561 381.245 193.385 381.306 193.154 381.197C185.134 377.369 178.609 374.252 169.059 370.316Z" fill="black"/>
<path fill-rule="evenodd" clip-rule="evenodd" d="M242.602 212.021C237.243 216.079 231.18 221.195 224.412 227.367C223.622 228.096 223.44 227.969 223.865 226.985C225.931 222.234 226.702 217.264 226.18 212.076C225.925 209.5 225.311 209.427 224.339 211.857C223.97 212.788 223.821 214.243 223.664 215.768C223.51 217.258 223.35 218.816 222.972 220.022C220.615 227.519 217.377 234.512 213.258 241.001C212.042 242.92 212.273 243.115 213.95 241.584C217.134 238.655 219.819 235.326 222.006 231.596C222.322 231.037 222.766 230.618 223.337 230.338C224.661 229.658 225.9 228.838 227.055 227.878C230.979 224.609 234.916 221.407 238.865 218.272C250.421 209.123 267.408 190.441 263.781 174.293C263.61 173.527 263.137 173.096 262.359 172.999L261.867 172.944C261.758 172.933 261.648 172.947 261.545 172.987C261.443 173.027 261.352 173.09 261.279 173.172C261.206 173.254 261.153 173.352 261.126 173.458C261.098 173.564 261.096 173.675 261.119 173.782C262.407 179.189 262.122 184.475 260.263 189.639C259.959 190.49 259.728 190.465 259.57 189.566C259.48 189.03 259.4 188.507 259.321 187.998C258.689 183.881 258.196 180.672 253.72 179.05C247.395 176.771 238.592 184.208 234.582 188.582C234.445 188.733 234.366 188.927 234.359 189.131C234.352 189.335 234.419 189.535 234.546 189.694L234.947 190.149C235.008 190.222 235.085 190.281 235.172 190.321C235.258 190.361 235.353 190.382 235.448 190.382C235.543 190.382 235.638 190.361 235.724 190.321C235.811 190.281 235.888 190.222 235.949 190.149C240.287 185.046 247.559 184.718 250.731 191.152C254.613 199.044 248.981 207.191 242.602 212.021Z" fill="black"/>
</svg>
