<svg width="512" height="512" viewBox="0 0 512 512" fill="none" xmlns="http://www.w3.org/2000/svg">
<rect width="512" height="512" fill="white"/>
<path d="M267.636 170.574C266.608 173.332 265.338 176.265 263.828 179.371C263.788 179.451 263.768 179.555 263.768 179.684V179.756C263.768 179.796 263.776 179.8 263.792 179.768C264.624 178.269 265.544 176.811 266.46 175.361C268.265 172.502 270.051 169.673 271.103 166.622L271.276 166.122C272.461 162.692 274.433 156.986 273.588 153.717C273.508 153.405 273.624 153.217 273.936 153.153L274.272 153.093C274.368 153.069 274.424 153.109 274.44 153.213C275.12 157.927 274.728 162.545 273.264 167.066C271.487 172.549 269.27 177.831 266.613 182.913C266.541 183.049 266.573 183.149 266.709 183.213L267.009 183.381C267.141 183.449 267.295 183.461 267.437 183.416C267.578 183.371 267.696 183.272 267.765 183.141C268.574 181.629 269.465 180.106 270.367 178.565C273.144 173.817 276.019 168.901 276.889 163.645C276.913 163.533 276.981 163.465 277.093 163.441C277.205 163.417 277.317 163.397 277.429 163.381C277.557 163.357 277.633 163.409 277.657 163.537C277.865 164.745 277.805 165.934 277.477 167.102C275.34 174.746 272.095 181.88 267.741 188.507C267.661 188.627 267.681 188.727 267.801 188.807V188.819C267.897 188.883 268.009 188.835 268.138 188.675C272.411 183.489 276.197 177.967 279.494 172.108C280.014 171.18 280.122 171.228 279.818 172.253C277.489 180.188 273.984 186.61 268.726 194.269C268.614 194.43 268.634 194.57 268.786 194.69L269.026 194.87C269.05 194.886 269.074 194.882 269.098 194.858L281.967 179.023C282.167 178.767 282.227 178.795 282.147 179.107C281.483 181.828 280.411 184.225 278.93 186.298C277.249 188.651 274.968 191.448 272.087 194.69C271.951 194.842 271.959 194.986 272.111 195.122L272.447 195.434C272.567 195.546 272.687 195.542 272.807 195.422L278.534 189.54C278.67 189.395 278.81 189.395 278.954 189.54L279.242 189.828C279.354 189.94 279.354 190.052 279.242 190.164C277.297 192.061 275.5 194.057 273.852 196.154C273.189 196.999 272.355 197.805 271.502 198.631C269.991 200.091 268.419 201.611 267.621 203.513C267.157 204.634 267.265 204.69 267.945 203.681C269.066 202.033 270.627 200.837 272.158 199.664C273.168 198.89 274.167 198.125 275.016 197.247C276.651 195.55 278.062 193.769 279.431 192.04C280.474 190.723 281.493 189.437 282.567 188.243C285.449 185.058 287.073 183.213 287.441 182.709C295.149 171.808 300.311 154.581 295.437 141.592C294.108 138.039 294.532 137.81 296.709 140.908C298.221 143.061 299.161 145.492 300.369 148.615L300.37 148.618C300.563 149.115 300.762 149.63 300.971 150.164C305.581 161.832 306.457 173.469 303.6 185.074C299.614 201.304 290.383 210.644 276.325 218.855C272.691 220.976 272.911 221.497 276.985 220.416C280.395 219.512 284.044 218.159 287.934 216.358C288.026 216.311 288.133 216.299 288.234 216.322C288.335 216.345 288.425 216.403 288.488 216.486C288.551 216.569 288.583 216.671 288.578 216.775C288.573 216.879 288.532 216.978 288.462 217.055C285.885 220.048 281.432 222.402 277.367 224.552C275.807 225.376 274.305 226.17 272.987 226.959C266.585 230.8 261.655 236.503 258.197 244.066C257.893 244.722 257.609 244.714 257.345 244.042C257.144 243.549 257.388 242.658 257.635 241.759C257.815 241.105 257.995 240.447 258.005 239.936C258.221 229.452 258.273 218.972 258.161 208.495C257.929 186.59 257.625 164.697 257.249 142.817C257.249 142.744 257.213 142.708 257.141 142.708H256.817C256.665 142.708 256.589 142.785 256.589 142.937L254.56 240.608C254.552 241.153 254.404 241.193 254.116 240.728C251.635 236.775 248.714 233.205 245.352 230.02C243.419 228.189 240.906 226.403 238.301 224.551C235.696 222.699 232.999 220.782 230.694 218.687C228.95 217.095 229.166 216.763 231.343 217.691C233.031 218.411 235.236 218.887 237.957 219.12C238.157 219.136 238.273 219.044 238.305 218.843L238.365 218.507C238.381 218.387 238.325 218.315 238.197 218.291C237.978 218.253 237.76 218.217 237.543 218.182C236.407 217.998 235.308 217.819 234.26 217.235C233.279 216.688 232.379 216.219 231.548 215.784C227.595 213.722 225.16 212.451 222.651 207.403C222.459 207.011 222.523 206.963 222.843 207.259C226.284 210.396 230.206 212.769 234.608 214.378C235.104 214.554 235.156 214.466 234.764 214.114C231.371 211.072 227.709 208.267 223.779 205.698C221.915 204.474 220.478 203.085 219.47 201.532C208.221 184.077 208.713 164.845 216.156 145.71C216.973 143.621 217.745 142 218.473 140.848C220.314 137.959 220.814 138.175 219.974 141.496C215.472 159.263 223.695 174.257 234.572 188.135C236.614 190.751 239.119 193.145 241.649 195.563C243.195 197.041 244.751 198.528 246.217 200.08C246.289 200.152 246.365 200.156 246.445 200.092C246.525 200.028 246.537 199.952 246.481 199.864L246.256 199.546C245.099 197.907 244.041 196.41 242.507 194.966C238.457 191.156 234.848 186.979 231.679 182.433C231.503 182.169 231.539 181.94 231.787 181.748L232.063 181.556C232.143 181.492 232.215 181.5 232.279 181.58C235.08 185.214 238.225 188.547 241.715 191.58C242.011 191.836 242.295 191.82 242.567 191.532L242.783 191.304C242.879 191.2 242.875 191.096 242.771 190.992C238.369 186.39 234.944 181.148 232.495 175.266C232.431 175.106 232.475 174.994 232.627 174.93L232.903 174.798C233.023 174.742 233.111 174.77 233.167 174.882C235.352 179.395 238.533 184.666 242.567 187.715C242.951 188.003 243.039 187.927 242.831 187.487C242.133 185.996 241.426 184.587 240.73 183.201C238.624 179.008 236.624 175.025 235.316 169.611C235.172 169.011 235.276 168.911 235.628 169.311C235.724 169.423 235.816 169.591 235.904 169.816C237.849 174.946 240.714 179.331 244.5 182.973C245.196 183.637 245.332 183.537 244.908 182.673C244.398 181.619 243.76 180.586 243.126 179.559C242.372 178.339 241.624 177.128 241.102 175.902C238.861 170.637 237.71 166.719 238.202 161.175C239.069 167.274 241.536 174.825 245.868 179.335C245.913 179.394 245.979 179.433 246.052 179.443C246.125 179.453 246.2 179.434 246.259 179.389C246.317 179.345 246.356 179.279 246.366 179.206C246.377 179.132 246.357 179.058 246.313 178.999L244.296 175.518C244.056 175.118 243.892 174.69 243.804 174.233C243.469 172.59 243.075 171.01 242.69 169.465C241.414 164.35 240.23 159.602 241.595 154.089C241.955 152.641 242.183 152.661 242.279 154.149C242.559 158.671 243.119 163.169 243.96 167.643C244.68 171.484 245.112 171.452 245.256 167.547C245.416 163.041 245.012 157.687 244.044 151.484C243.788 149.819 244.14 148.267 245.1 146.826C245.372 146.418 245.512 146.458 245.52 146.946C245.712 153.333 246.325 159.663 247.357 165.938C247.484 166.723 247.511 167.688 247.54 168.68C247.584 170.222 247.63 171.829 248.053 172.925C249.166 175.806 249.494 175.718 249.038 172.661C247.597 163.153 246.661 152.42 247.333 141.88C247.381 141.128 247.529 140.352 247.777 139.551C251.203 128.571 254.612 117.582 258.005 106.586C258.173 106.05 258.498 105.881 258.978 106.082C259.306 106.226 259.462 106.474 259.446 106.826C259.076 115.346 261.783 123.822 264.591 132.61L264.592 132.614C265.059 134.077 265.53 135.548 265.989 137.03C268.718 145.874 268.288 154.942 267.271 163.86L267.317 163.876C267.448 163.556 267.603 163.287 267.754 163.024C267.993 162.607 268.225 162.204 268.342 161.64C269.302 156.974 269.762 152.276 269.722 147.546C269.722 147.402 269.79 147.346 269.926 147.378L270.382 147.498C270.543 147.536 270.686 147.628 270.788 147.759C270.89 147.889 270.946 148.051 270.947 148.219C271.027 154.229 270.831 158.515 270.358 161.076C270.146 162.231 269.874 163.428 269.542 164.669L270.133 164.88L269.066 168.601C269.016 168.769 268.911 169.097 268.717 169.44C268.623 169.606 268.421 169.934 268.069 170.251C267.959 170.349 267.814 170.464 267.636 170.574Z" fill="black"/>
<path d="M238.202 161.175L238.173 160.968C238.165 160.944 238.169 160.932 238.185 160.932H238.209C238.217 160.932 238.221 160.944 238.221 160.968L238.202 161.175Z" fill="black"/>
<path d="M210.538 232.349C216.792 240.824 228.209 246.875 237.597 251.149C238.581 251.597 238.545 251.697 237.489 251.449C230.95 249.904 224.464 248.171 218.029 246.251C217.269 246.027 217.145 246.215 217.657 246.815C217.761 246.935 217.917 247.143 218.125 247.439C218.293 247.663 218.489 247.847 218.713 247.991C221.886 250.085 225.041 251.952 228.11 253.768C238.802 260.096 248.447 265.805 254.128 278.304C254.696 279.576 254.984 279.516 254.992 278.124C254.992 268.424 254.892 258.9 254.692 249.552C254.415 236.782 239.323 226.889 228.377 219.713C227.921 219.415 227.473 219.121 227.033 218.831C214.728 210.752 203.995 201.148 204.067 185.11C204.075 183.613 203.839 183.573 203.359 184.99C197.501 202.133 199.894 217.919 210.538 232.349Z" fill="black"/>
<path d="M252.051 308.64C250.886 300.921 241.595 291.365 235.928 288.436C229.094 284.89 222.547 281.169 216.288 277.271C215.424 276.735 215.496 276.519 216.504 276.623C222.523 277.255 228.473 278.3 234.356 279.756C235.46 280.036 235.5 279.924 234.476 279.42C231.938 278.189 229.013 277.254 226.232 276.365C223.699 275.555 221.286 274.783 219.398 273.862C212.255 270.405 208.173 264.774 203.095 257.631C196.405 248.242 196.259 236.679 196.091 223.407C196.081 222.628 196.071 221.843 196.06 221.052C196.057 220.975 196.084 220.899 196.135 220.841C196.187 220.782 196.259 220.746 196.336 220.74H196.348C196.54 220.724 196.648 220.812 196.672 221.004C198.233 231.173 205.568 239.636 213.479 245.482C213.759 245.698 214.115 245.827 214.548 245.867C214.804 245.891 214.932 246.035 214.932 246.299C214.924 246.723 215.072 247.103 215.376 247.439C218.986 251.4 224.741 254.53 229.942 257.359C231.503 258.209 233.015 259.031 234.404 259.84C242.887 264.778 249.338 271.601 253.756 280.309C254.341 281.439 254.338 282.139 254.332 283.205C254.331 283.384 254.33 283.575 254.332 283.778C254.436 291.597 254.592 299.416 254.8 307.236C254.825 308.108 254.795 308.963 254.765 309.807C254.724 310.96 254.684 312.091 254.788 313.214C255.276 318.248 255.752 323.274 256.217 328.292C256.233 328.42 256.305 328.48 256.433 328.472C256.561 328.464 256.625 328.396 256.625 328.268C256.757 316.779 261.475 303.55 270.022 295.735C276.407 289.911 284.738 286.345 292.615 282.973C293.506 282.592 294.393 282.213 295.268 281.833C296.869 281.137 296.817 280.617 295.112 280.273C294.808 280.209 294.128 280.397 293.072 280.837C278.27 287.019 265.52 292.41 259.494 309.096C258.221 312.61 257.717 312.498 257.981 308.76C258.51 301.253 258.73 293.242 258.642 284.726C258.522 272.673 268.858 262.721 279.182 258.208C280.128 257.794 281.122 257.376 282.142 256.947C287.365 254.753 293.285 252.266 297.021 248.46C297.046 248.436 297.063 248.406 297.073 248.373C297.083 248.34 297.084 248.305 297.077 248.272C297.07 248.238 297.054 248.207 297.032 248.181C297.01 248.155 296.981 248.135 296.949 248.123C296.829 248.083 296.713 248.043 296.601 248.003C296.497 247.971 296.397 247.979 296.301 248.027C294.652 248.755 293.079 249.526 291.501 250.299C289.357 251.349 287.206 252.403 284.848 253.358C274.596 257.487 262.819 265.038 259.026 276.047C258.994 276.135 258.934 276.179 258.846 276.179H258.522C258.433 276.179 258.389 276.131 258.389 276.035C258.509 266.727 258.654 257.419 258.822 248.111C258.854 246.239 259.79 243.782 261.631 240.74C267.309 231.377 274.26 227.691 284.524 222.493C286.295 221.597 287.931 219.991 289.54 218.412C290.602 217.369 291.654 216.337 292.723 215.53C302.339 208.219 310.179 198.183 309.83 185.626C309.782 183.929 310.026 183.885 310.563 185.494C314.38 196.883 314.348 208.511 310.467 220.38C308.138 227.511 301.691 237.403 293.972 240.873C293.657 241.015 293.381 241.229 293.168 241.497C291.37 243.745 288.424 245.052 285.579 246.313C283.882 247.065 282.222 247.801 280.863 248.712C279.518 249.608 279.638 249.9 281.223 249.588C282.654 249.306 284.131 249.073 285.627 248.837C290.819 248.017 296.224 247.164 300.623 244.126C308.77 238.5 314.164 230.84 316.805 221.148C316.853 220.964 316.921 220.84 317.009 220.776C317.105 220.712 317.205 220.692 317.309 220.716C317.462 220.748 317.534 220.84 317.526 220.992C317.462 222.7 317.422 224.468 317.382 226.263C317.231 232.938 317.072 239.992 315.653 245.734C311.463 262.697 296.697 275.05 279.602 278.604C279.564 278.617 279.532 278.643 279.51 278.677C279.488 278.712 279.479 278.752 279.483 278.792C279.487 278.832 279.505 278.87 279.533 278.899C279.561 278.928 279.598 278.947 279.638 278.952C286.865 279.084 295.172 278.856 301.499 274.99C309.062 270.369 316.733 262.926 319.434 254.198C319.778 253.086 319.951 253.11 319.951 254.27C319.927 266.251 318.918 276.491 312.207 287.968C308.374 294.53 302.788 298.848 295.449 300.921C295.438 300.924 295.427 300.929 295.418 300.936C295.409 300.942 295.402 300.95 295.396 300.959C295.391 300.968 295.387 300.978 295.386 300.988C295.384 300.998 295.385 301.008 295.389 301.017L295.509 301.401C295.565 301.569 295.673 301.625 295.833 301.569L304.2 298.964C305.305 298.612 305.445 298.844 304.62 299.66C299.582 304.593 293.469 307.29 287.406 309.965C279.702 313.365 272.08 316.727 266.853 324.595C263.095 330.249 260.43 336.912 259.758 344.031C259.75 344.151 259.802 344.219 259.914 344.235H259.926C260.038 344.259 260.11 344.215 260.142 344.103C262.231 335.987 267.249 326.335 273.035 321.749C278.719 317.25 285.909 314.806 292.839 312.451C294.414 311.916 295.975 311.386 297.501 310.837C306.205 307.704 316.853 299.48 317.454 289.648C317.478 289.216 317.706 289.004 318.138 289.012H318.498C318.587 289.015 318.671 289.053 318.732 289.116C318.793 289.179 318.825 289.262 318.822 289.348C318.792 290.219 318.768 291.099 318.743 291.985L318.743 291.989L318.743 291.992C318.619 296.457 318.491 301.05 317.67 305.075C314.204 322.018 303.852 331.613 286.613 333.862C284.3 334.167 284.308 334.395 286.637 334.547C293.312 334.963 299.442 333.85 305.028 331.209C307.397 330.089 307.638 330.437 305.749 332.254C300.675 337.123 294.974 339.97 288.89 343.008C287.835 343.535 286.766 344.069 285.689 344.619C261.799 356.804 259.158 381.186 260.19 405.159C260.214 405.664 259.974 405.92 259.47 405.928L254.068 406C253.644 406.008 253.443 405.8 253.467 405.376C254.512 381.81 252.051 355.183 225.688 344.475C217.609 341.197 210.058 337.74 205.424 331.846C204.84 331.109 204.984 330.929 205.856 331.305C211.522 333.778 217.689 334.955 224.356 334.835C224.404 334.835 224.436 334.811 224.452 334.763L224.584 334.451C224.672 334.243 224.604 334.127 224.38 334.102C200.478 331.509 192.891 310.945 193.119 289.696C193.122 289.635 193.147 289.576 193.188 289.529C193.229 289.483 193.284 289.451 193.345 289.44C193.406 289.429 193.469 289.439 193.524 289.468C193.579 289.497 193.622 289.544 193.647 289.6C198.081 300.701 206.112 308.188 217.741 312.061C231.414 316.623 241.811 321.942 249.266 334.811C252.339 340.117 254.164 347.188 255.292 353.25C255.297 353.284 255.315 353.315 255.342 353.337C255.369 353.36 255.403 353.372 255.436 353.37C255.47 353.368 255.5 353.354 255.52 353.329C255.54 353.304 255.549 353.272 255.544 353.238C255.66 350.48 255.002 347.873 254.34 345.251C254.107 344.324 253.872 343.396 253.672 342.458C251.835 333.862 247.369 326.431 241.15 320.309C236.324 315.554 230.463 312.734 224.598 309.912C218.675 307.062 212.746 304.21 207.873 299.36C206.408 297.904 206.58 297.676 208.389 298.676C211.374 300.341 215.044 301.621 219.398 302.518C219.598 302.558 219.726 302.482 219.782 302.29L219.878 301.977C219.926 301.825 219.874 301.721 219.722 301.665C212.795 299.396 206.708 295.387 202.495 289.732C194.199 278.616 193.059 266.803 192.002 253.454C191.994 253.422 192.006 253.406 192.038 253.406L192.351 253.358C192.575 253.318 192.715 253.41 192.771 253.634C194.299 259.66 197.445 264.694 202.207 268.736C210.042 275.379 220.514 282.185 233.623 289.156C240.514 292.818 248.281 300.621 251.727 308.736C252.079 309.552 252.187 309.52 252.051 308.64Z" fill="black"/>
</svg>
