<svg width="512" height="512" viewBox="0 0 512 512" fill="none" xmlns="http://www.w3.org/2000/svg">
<rect width="512" height="512" fill="white"/>
<path d="M192.938 361.408L129.139 381.561C128.038 381.908 126.878 382.032 125.728 381.925C124.579 381.818 123.462 381.482 122.444 380.937C121.426 380.392 120.527 379.65 119.8 378.753C119.073 377.856 118.532 376.822 118.21 375.713C115.425 366.014 112.061 355.259 108.116 343.448C105.216 334.77 105.297 328.482 108.36 324.583" stroke="black" stroke-width="2"/>
<path d="M108.149 343.437L108.59 343.29C112.537 355.106 115.903 365.868 118.69 375.575M108.149 343.437L118.21 375.713M108.149 343.437L108.59 343.29C105.736 334.75 105.854 328.732 108.645 325.033C152.137 315.531 188.696 303.682 224.289 280.906L224.02 280.484L108.149 343.437ZM118.69 375.575C118.69 375.575 118.69 375.575 118.69 375.575L118.21 375.713M118.69 375.575C118.69 375.575 118.69 375.574 118.69 375.574L118.21 375.713M118.69 375.575C118.994 376.62 119.503 377.593 120.188 378.438C120.873 379.283 121.72 379.983 122.68 380.496C123.639 381.009 124.691 381.326 125.775 381.427C126.858 381.528 127.951 381.411 128.989 381.084M118.21 375.713C118.532 376.822 119.073 377.856 119.8 378.753C120.527 379.65 121.426 380.392 122.444 380.937C123.462 381.482 124.579 381.818 125.728 381.925C126.878 382.032 128.038 381.908 129.139 381.561L192.938 361.408M128.989 381.084L128.988 381.084L129.138 381.559L128.989 381.084ZM128.989 381.084L192.764 360.939M192.764 360.939C192.756 360.942 192.749 360.945 192.741 360.949L192.938 361.408M192.764 360.939L192.787 360.931L192.938 361.408M192.764 360.939C226.16 346.623 256.269 326.866 283.091 301.665L283.091 301.665C308.873 277.466 327.464 254.273 346.567 230.442C349.697 226.537 352.841 222.614 356.033 218.668C356.491 218.096 357.04 217.699 357.685 217.691C358.329 217.682 358.893 218.062 359.376 218.621L359.378 218.623C367.409 228.023 375.335 237.517 383.157 247.103C385.945 250.512 388.453 252.494 390.675 253.17C391.688 253.472 392.757 253.534 393.798 253.351C394.839 253.168 395.823 252.745 396.673 252.116C397.522 251.487 398.214 250.668 398.692 249.726C399.17 248.784 399.422 247.744 399.429 246.687C399.429 246.687 399.429 246.686 399.429 246.685L399.929 246.688C399.955 219.492 401.974 192.644 403.995 165.769C404.684 156.598 405.374 147.424 405.985 138.233L192.938 361.408" fill="white" stroke="black"/>
<path d="M380.117 198.568L380.117 198.568L380.112 198.576L379.068 200.351L379.068 200.351L379.065 200.355C378.855 200.721 378.679 200.954 378.541 201.083C378.503 201.12 378.474 201.143 378.452 201.157C378.435 201.136 378.413 201.102 378.385 201.052C378.294 200.883 378.197 200.603 378.108 200.187L378.108 200.187L378.105 200.174C377.939 199.489 377.951 198.836 378.134 198.205C378.232 197.879 378.469 197.56 378.91 197.259L378.916 197.255L378.922 197.25C382.185 194.884 385.676 192.943 389.398 191.426L389.398 191.427L389.405 191.424C389.534 191.369 389.679 191.366 389.81 191.415C389.94 191.465 390.047 191.562 390.108 191.688C390.169 191.815 390.179 191.959 390.135 192.092C390.092 192.225 390 192.337 389.877 192.403L389.877 192.403L389.874 192.405L382.077 196.686L382.077 196.686L382.073 196.688C381.257 197.147 380.602 197.776 380.117 198.568ZM378.407 201.182C378.407 201.182 378.408 201.181 378.41 201.181C378.408 201.182 378.407 201.182 378.407 201.182ZM378.486 201.193C378.487 201.194 378.487 201.194 378.487 201.194L378.486 201.193Z" fill="black" stroke="black"/>
<path d="M390.182 202.116L390.182 202.116C390.286 202.015 390.345 201.877 390.346 201.733C390.348 201.589 390.292 201.45 390.191 201.347C390.191 201.347 390.191 201.347 390.191 201.347L389.655 200.8C389.554 200.697 389.416 200.638 389.272 200.636C389.128 200.635 388.989 200.691 388.885 200.791C388.885 200.791 388.885 200.791 388.885 200.792L372.92 216.426L372.92 216.426C372.817 216.527 372.758 216.665 372.757 216.809C372.755 216.953 372.811 217.092 372.912 217.195L390.182 202.116ZM390.182 202.116L374.218 217.751C374.218 217.751 374.218 217.751 374.218 217.751C374.115 217.851 373.975 217.907 373.831 217.906C373.687 217.904 373.549 217.846 373.448 217.742L373.448 217.742L372.912 217.195L390.182 202.116Z" fill="black" stroke="black"/>
<path d="M339.249 218.056L339.249 218.056L339.248 218.053L338.59 216.147C338.575 216.099 338.573 216.07 338.573 216.056C338.585 216.046 338.613 216.027 338.673 216.005L338.673 216.005L338.685 216C340.84 215.126 342.53 213.905 343.725 212.323C344.922 210.739 345.602 208.824 345.782 206.597C345.804 206.338 345.843 206.174 345.883 206.08C345.885 206.076 345.887 206.072 345.889 206.068C345.894 206.07 345.9 206.073 345.906 206.075C346.001 206.12 346.142 206.218 346.332 206.397C346.332 206.397 346.333 206.398 346.333 206.398L347.932 207.927L347.932 207.927L347.938 207.933C348.508 208.461 348.731 208.932 348.743 209.347C348.755 209.762 348.56 210.244 348.021 210.804L348.019 210.807L340.814 218.394L340.812 218.396C340.279 218.964 339.981 219.015 339.865 218.99C339.749 218.965 339.499 218.794 339.249 218.056ZM338.574 216.046C338.574 216.046 338.574 216.047 338.573 216.048C338.574 216.046 338.574 216.045 338.574 216.046ZM338.567 216.062C338.566 216.063 338.565 216.064 338.565 216.064C338.565 216.064 338.566 216.063 338.567 216.062ZM345.918 206.017C345.918 206.017 345.917 206.018 345.916 206.019C345.917 206.018 345.918 206.017 345.918 206.017ZM345.836 206.05C345.834 206.05 345.833 206.05 345.833 206.05L345.836 206.05Z" fill="black" stroke="black"/>
<path d="M365.566 205.351L365.574 205.351L365.581 205.35C366.381 205.285 367.13 205.361 367.831 205.573C368.155 205.674 368.372 205.781 368.508 205.881C368.64 205.978 368.667 206.047 368.673 206.076C368.68 206.104 368.685 206.176 368.608 206.319C368.528 206.467 368.378 206.655 368.127 206.884C367.657 207.314 367.12 207.597 366.509 207.74C366.024 207.848 365.678 207.747 365.397 207.482C365.083 207.184 364.881 206.771 364.821 206.198C364.813 206.095 364.825 205.99 364.858 205.891C364.891 205.791 364.944 205.699 365.013 205.619C365.083 205.54 365.168 205.475 365.263 205.429C365.358 205.383 365.461 205.356 365.566 205.351Z" fill="black" stroke="black"/>
<path d="M378.271 225.471L378.271 225.471C377.899 225.129 377.767 224.837 377.753 224.593C377.74 224.349 377.839 224.043 378.171 223.661L378.171 223.661L378.173 223.658L388.994 211.028C389.056 210.959 389.136 210.908 389.225 210.881C389.315 210.854 389.41 210.852 389.501 210.876C389.592 210.899 389.674 210.947 389.739 211.015C389.803 211.081 389.848 211.164 389.869 211.253L390.424 214.135L390.424 214.135L390.426 214.145C390.478 214.387 390.457 214.64 390.364 214.87C390.271 215.1 390.112 215.296 389.906 215.434C385.556 218.335 382.327 221.91 380.236 226.161C379.315 226.099 378.682 225.849 378.271 225.471Z" fill="black" stroke="black"/>
<path d="M333.09 219.622L329.996 216.111L329.996 216.111L329.995 216.109C329.881 215.981 329.779 215.863 329.688 215.753C329.817 215.818 329.959 215.892 330.112 215.975C332.306 217.184 333.999 218.823 335.204 220.894C335.276 221.035 335.304 221.219 335.269 221.408C335.232 221.6 335.137 221.76 335.018 221.862C334.9 221.962 334.777 221.994 334.674 221.981C334.575 221.97 334.471 221.915 334.387 221.801C334.171 221.454 333.988 221.108 333.838 220.766C333.654 220.345 333.404 219.963 333.09 219.622Z" fill="black" stroke="black"/>
<path d="M329.414 231.809L329.414 231.808C329.803 231.588 330.14 231.286 330.4 230.922C330.66 230.559 330.838 230.143 330.921 229.704C331.004 229.265 330.99 228.813 330.881 228.379C330.771 227.946 330.569 227.542 330.287 227.195L330.285 227.192L326.923 223.103C326.865 223.014 326.839 222.908 326.848 222.802C326.858 222.691 326.906 222.586 326.985 222.508C327.064 222.429 327.168 222.38 327.28 222.37C327.387 222.361 327.495 222.389 327.584 222.449L332.515 226.303L332.518 226.305C333.063 226.725 333.276 227.103 333.309 227.429C333.341 227.755 333.21 228.164 332.76 228.677L324.721 237.829C324.721 237.829 324.721 237.829 324.721 237.829C324.408 238.182 324.177 238.263 324.025 238.261C323.869 238.258 323.632 238.166 323.316 237.799L323.316 237.799L323.315 237.797L313.479 226.507L314.154 225.897L314.154 225.897L314.161 225.89C314.231 225.824 314.283 225.792 314.317 225.776C314.347 225.763 314.36 225.764 314.362 225.764L314.362 225.764L314.362 225.764C314.363 225.764 314.377 225.765 314.406 225.782C314.438 225.802 314.487 225.841 314.548 225.915L314.548 225.916L314.555 225.923L323.082 235.739L323.083 235.74C323.325 236.016 323.635 236.224 323.982 236.343C324.329 236.463 324.701 236.489 325.062 236.42C325.422 236.35 325.758 236.188 326.036 235.948C326.313 235.71 326.523 235.402 326.645 235.057C327.161 233.641 328.078 232.563 329.414 231.809Z" fill="black" stroke="black"/>
<path d="M322.236 225.671L322.236 225.671L322.246 225.68C323.138 226.528 323.774 227.488 324.165 228.561C324.167 228.578 324.166 228.594 324.16 228.609C324.152 228.628 324.139 228.643 324.122 228.654C324.105 228.664 324.085 228.669 324.065 228.667C324.049 228.665 324.035 228.66 324.022 228.651L319.485 223.491L319.485 223.491L319.484 223.489C319.448 223.448 319.422 223.399 319.409 223.346C319.397 223.293 319.398 223.241 319.41 223.194C319.423 223.148 319.446 223.109 319.477 223.078C319.507 223.048 319.543 223.027 319.583 223.017L319.583 223.017L319.586 223.016C319.937 222.922 320.277 222.829 320.604 222.735L320.621 222.73L320.638 222.724C320.695 222.703 320.719 222.708 320.721 222.709L320.721 222.709C320.721 222.709 320.721 222.709 320.721 222.709C320.722 222.709 320.736 222.712 320.763 222.736C321.092 223.129 321.304 223.576 321.403 224.087C321.512 224.685 321.803 225.237 322.236 225.671Z" fill="black" stroke="black"/>
<path d="M382.837 228.137L382.837 228.137L382.842 228.139C383.375 228.248 383.886 228.213 384.324 227.96C384.761 227.708 385.049 227.283 385.226 226.766L385.226 226.766L385.227 226.763C385.805 225.03 386.946 223.855 388.684 223.211C388.833 223.157 388.996 223.148 389.152 223.186C389.309 223.224 389.448 223.306 389.553 223.42C389.658 223.534 389.723 223.674 389.744 223.821C389.764 223.968 389.738 224.118 389.669 224.252L389.666 224.259L389.662 224.265C388.907 225.84 387.682 226.974 385.957 227.673L385.957 227.673L385.95 227.676C385.639 227.808 385.361 228.007 385.136 228.26C384.912 228.514 384.747 228.813 384.653 229.138C384.559 229.462 384.539 229.804 384.593 230.137C384.648 230.47 384.775 230.786 384.967 231.063C385.803 232.304 386.965 233.107 388.43 233.46L388.43 233.46L388.436 233.461C388.762 233.536 388.961 233.664 389.082 233.813C389.204 233.962 389.291 234.182 389.3 234.519L389.3 234.519L389.301 234.531C389.309 234.688 389.28 234.798 389.237 234.879C389.194 234.96 389.121 235.041 388.99 235.118C388.777 235.242 388.592 235.288 388.427 235.285C388.263 235.281 388.082 235.228 387.88 235.096L387.878 235.095C385.128 233.321 383.016 230.876 381.546 227.743C381.962 227.91 382.392 228.041 382.837 228.137Z" fill="black" stroke="black"/>
<path d="M320.92 245.635L320.92 245.635L309.839 232.441L310.044 232.236L321.994 244.117C321.994 244.117 321.994 244.117 321.994 244.117C321.994 244.117 321.995 244.118 321.995 244.118L321.988 244.133L321.982 244.148L321.461 245.573C321.391 245.757 321.327 245.864 321.279 245.919C321.272 245.928 321.265 245.935 321.26 245.94C321.251 245.936 321.239 245.93 321.224 245.921C321.154 245.878 321.052 245.792 320.92 245.635ZM321.241 245.956C321.241 245.956 321.242 245.955 321.243 245.955C321.242 245.956 321.241 245.956 321.241 245.956ZM321.281 245.948C321.283 245.948 321.283 245.948 321.283 245.948L321.281 245.948Z" fill="black" stroke="black"/>
<path d="M315.069 249.476L315.07 249.477C315.177 249.607 315.177 249.675 315.175 249.697C315.173 249.725 315.153 249.808 315.009 249.944L315.009 249.944L315.006 249.946L314.294 250.625L304.214 238.536L304.214 238.536L304.208 238.529C304.147 238.459 304.132 238.419 304.128 238.404C304.134 238.39 304.159 238.344 304.25 238.27L304.25 238.27L304.26 238.262L304.991 237.635L304.991 237.635L304.996 237.63C305.066 237.569 305.118 237.538 305.153 237.523C305.184 237.51 305.198 237.511 305.199 237.511L305.199 237.511C305.199 237.511 305.199 237.511 305.199 237.511C305.2 237.511 305.21 237.511 305.234 237.526C305.261 237.542 305.304 237.576 305.359 237.643C305.359 237.643 305.359 237.643 305.359 237.643L315.069 249.476ZM304.127 238.398C304.127 238.398 304.128 238.399 304.128 238.401C304.127 238.399 304.127 238.398 304.127 238.398ZM304.127 238.408C304.127 238.409 304.127 238.409 304.127 238.409L304.127 238.408Z" fill="black" stroke="black"/>
<path d="M303.465 247.646L303.757 247.373L303.465 247.646C304.356 248.598 305.213 249.562 305.988 250.484C306.763 251.407 307.438 252.266 307.976 253.012C308.516 253.763 308.895 254.37 309.106 254.804C309.113 254.82 309.12 254.835 309.127 254.85C309.113 254.842 309.098 254.834 309.083 254.825C308.663 254.586 308.083 254.168 307.369 253.578C306.66 252.993 305.848 252.262 304.979 251.428C304.111 250.594 303.205 249.674 302.314 248.722L301.988 249.027L302.314 248.722C301.423 247.771 300.566 246.806 299.791 245.884C299.016 244.962 298.341 244.103 297.804 243.356C297.263 242.606 296.884 241.999 296.674 241.564C296.666 241.549 296.659 241.533 296.652 241.518C296.666 241.526 296.681 241.535 296.697 241.543C297.116 241.782 297.696 242.201 298.41 242.79C299.119 243.376 299.931 244.106 300.8 244.941C301.669 245.775 302.574 246.694 303.465 247.646Z" fill="black" stroke="black"/>
<path d="M291.857 247.718L292.236 247.466C296.486 252.173 301.093 256.511 306.059 260.479L306.062 260.481C306.118 260.525 306.164 260.563 306.203 260.597L305.905 261.124C305.736 261.403 305.598 261.471 305.52 261.485C305.438 261.501 305.274 261.487 304.994 261.284L304.992 261.283C299.79 257.551 295.412 253.03 291.857 247.718ZM306.349 260.739C306.349 260.739 306.349 260.738 306.348 260.737C306.349 260.738 306.349 260.739 306.349 260.739Z" fill="black" stroke="black"/>
<path d="M300.224 268.484L300.224 268.484L300.218 268.477C295.89 263.055 291.294 257.947 286.43 253.153L286.43 253.153L286.422 253.146C286.273 253.005 286.258 252.919 286.257 252.886C286.256 252.85 286.269 252.757 286.412 252.595L286.882 252.102L301.383 267.015L301.383 267.015L301.388 267.019C301.566 267.197 301.575 267.297 301.573 267.328C301.571 267.363 301.548 267.469 301.348 267.642L300.317 268.502C300.296 268.517 300.28 268.528 300.268 268.534C300.257 268.524 300.242 268.508 300.224 268.484Z" fill="black" stroke="black"/>
<path d="M294.301 274.271L294.295 274.277L294.288 274.283C294.271 274.3 294.248 274.31 294.224 274.31C294.202 274.31 294.181 274.302 294.164 274.288L293.828 273.918L293.828 273.918L293.824 273.914C290.04 269.842 286.489 265.866 283.941 262.85C282.666 261.341 281.699 260.14 281.073 259.291C280.758 258.865 280.538 258.54 280.408 258.315C280.397 258.297 280.388 258.28 280.379 258.265L280.817 257.862C281.011 257.989 281.302 258.213 281.692 258.545C282.482 259.216 283.612 260.267 285.018 261.641C286.422 263.013 288.068 264.674 289.861 266.527C291.653 268.38 293.555 270.388 295.456 272.434L295.766 272.779L295.766 272.779L295.77 272.783C295.786 272.801 295.795 272.825 295.794 272.849C295.793 272.873 295.783 272.896 295.764 272.912L295.763 272.913L294.301 274.271Z" fill="black" stroke="black"/>
<path d="M289.525 277.92L289.525 277.92L289.534 277.929C289.773 278.148 289.801 278.284 289.799 278.342C289.798 278.399 289.764 278.535 289.515 278.745L289.515 278.745L289.509 278.751L288.674 279.482L288.673 279.482L288.669 279.485C288.504 279.633 288.409 279.646 288.373 279.645C288.34 279.644 288.255 279.629 288.115 279.482L272.983 263.082L273.335 262.75C273.335 262.749 273.335 262.749 273.335 262.749C273.486 262.607 273.589 262.547 273.644 262.524L289.525 277.92Z" fill="black" stroke="black"/>
<path d="M265.711 268.147L265.71 268.146L265.712 268.144L265.723 268.133L265.745 268.111C266.03 267.866 266.38 267.694 266.783 267.609C267.193 267.523 267.654 267.528 268.139 267.634C268.625 267.74 269.122 267.945 269.6 268.242C270.078 268.539 270.524 268.919 270.91 269.361L270.91 269.362L281.317 281.265C281.317 281.265 281.317 281.265 281.317 281.265C281.705 281.71 282.022 282.206 282.251 282.723C282.48 283.24 282.615 283.763 282.652 284.26C282.69 284.758 282.629 285.215 282.484 285.609C282.339 286.003 282.113 286.329 281.822 286.577L281.816 286.582L265.711 268.147Z" fill="black" stroke="black"/>
<path d="M275.843 290.831C275.751 290.788 275.642 290.732 275.515 290.66C274.982 290.355 274.249 289.826 273.354 289.089C272.463 288.356 271.442 287.443 270.35 286.401C269.258 285.36 268.118 284.214 266.996 283.027C265.874 281.841 264.793 280.639 263.814 279.49C262.835 278.341 261.981 277.271 261.298 276.34C260.612 275.405 260.125 274.644 259.85 274.095C259.785 273.965 259.736 273.853 259.699 273.759C259.791 273.801 259.9 273.857 260.026 273.929C260.56 274.234 261.292 274.763 262.187 275.5C263.078 276.234 264.099 277.147 265.192 278.188C266.284 279.229 267.424 280.376 268.546 281.562C269.668 282.749 270.749 283.951 271.727 285.099C272.706 286.248 273.561 287.319 274.244 288.25C274.929 289.184 275.416 289.945 275.691 290.494C275.756 290.625 275.806 290.736 275.843 290.831Z" fill="black" stroke="black"/>
<path d="M270.564 296.263L270.564 296.263C270.601 296.301 270.63 296.346 270.65 296.396C270.669 296.445 270.679 296.498 270.678 296.551C270.677 296.604 270.666 296.657 270.645 296.706C270.624 296.754 270.593 296.799 270.555 296.836L270.555 296.836L269.655 297.708L269.655 297.708C269.616 297.745 269.571 297.774 269.522 297.793C269.472 297.813 269.42 297.823 269.367 297.822C269.314 297.821 269.261 297.81 269.212 297.789C269.163 297.767 269.119 297.737 269.082 297.699L269.082 297.699L251.546 279.602L251.546 279.602C251.509 279.564 251.479 279.519 251.46 279.47C251.44 279.419 251.43 279.366 251.431 279.314C251.432 279.261 251.443 279.208 251.464 279.16C251.485 279.111 251.516 279.067 251.554 279.03L251.555 279.03L252.454 278.158L252.454 278.158C252.493 278.12 252.538 278.091 252.587 278.072C252.636 278.052 252.689 278.043 252.743 278.044C252.796 278.044 252.848 278.056 252.897 278.077C252.946 278.098 252.99 278.129 253.027 278.167L253.027 278.167L270.564 296.263Z" fill="black" stroke="black"/>
<path d="M264.778 303.032L264.757 303.049L264.738 303.068L264.612 303.194C264.431 303.345 264.046 303.443 263.306 303.24C262.573 303.04 261.635 302.58 260.541 301.86C259.452 301.143 258.251 300.198 257.009 299.075C255.768 297.953 254.513 296.68 253.319 295.329L253.319 295.329L253.314 295.324L252.621 294.56C251.422 293.205 250.309 291.8 249.347 290.428C248.383 289.054 247.593 287.744 247.018 286.575C246.44 285.401 246.104 284.417 246.002 283.672C245.897 282.905 246.055 282.548 246.234 282.4L246.251 282.386L246.267 282.37L246.388 282.248C246.393 282.245 246.397 282.243 246.402 282.242C246.409 282.239 246.417 282.238 246.424 282.239C246.432 282.24 246.44 282.242 246.446 282.245C246.453 282.249 246.459 282.254 246.464 282.26L246.471 282.269L246.479 282.278L264.785 302.95C264.785 302.951 264.785 302.951 264.785 302.951C264.791 302.957 264.794 302.964 264.796 302.97C264.799 302.977 264.8 302.985 264.799 302.993C264.798 303.001 264.796 303.008 264.793 303.015C264.789 303.021 264.784 303.027 264.778 303.032Z" fill="black" stroke="black"/>
<path d="M236.734 287.937L236.733 287.935L237.497 287.403L237.515 287.391L237.522 287.385L256.582 307.696L256.587 307.702L254.196 310.164L236.734 287.937Z" fill="black" stroke="black"/>
<path d="M249.335 315.439L249.336 315.438C249.512 315.295 249.624 315.087 249.648 314.861C249.671 314.635 249.604 314.409 249.461 314.232L249.335 315.439ZM249.335 315.439L249.228 315.526C249.228 315.526 249.228 315.526 249.228 315.527C249.051 315.67 248.825 315.737 248.599 315.714C248.372 315.69 248.165 315.578 248.021 315.402L230.46 293.793C230.46 293.793 230.46 293.793 230.46 293.793C230.317 293.616 230.25 293.39 230.273 293.164C230.296 292.938 230.409 292.73 230.585 292.587L230.585 292.587L230.694 292.499C230.694 292.499 230.694 292.499 230.694 292.499C230.87 292.355 231.096 292.288 231.322 292.311C231.549 292.335 231.756 292.447 231.9 292.623C231.9 292.623 231.9 292.623 231.9 292.623L249.461 314.232L249.335 315.439Z" fill="black" stroke="black"/>
<path d="M240.704 320.787L240.704 320.787L240.931 320.626C241.116 320.495 241.242 320.295 241.28 320.071C241.319 319.847 241.266 319.617 241.135 319.431L240.704 320.787ZM240.704 320.787C240.612 320.852 240.508 320.899 240.398 320.924C240.288 320.949 240.175 320.952 240.064 320.933C239.953 320.914 239.847 320.873 239.751 320.813C239.656 320.753 239.573 320.675 239.508 320.583L222.775 296.949C222.775 296.949 222.775 296.949 222.775 296.949C222.643 296.763 222.591 296.533 222.629 296.309C222.668 296.084 222.793 295.885 222.979 295.754L223.206 295.593L223.206 295.593C223.298 295.528 223.402 295.481 223.512 295.456C223.622 295.431 223.735 295.428 223.846 295.447C223.957 295.466 224.063 295.507 224.159 295.567C224.254 295.627 224.336 295.705 224.401 295.797C224.401 295.797 224.401 295.797 224.401 295.797L241.135 319.431L240.704 320.787Z" fill="black" stroke="black"/>
<path d="M233.998 324.629L233.998 324.629C234.144 324.522 234.241 324.361 234.269 324.182C234.296 324.002 234.25 323.82 234.143 323.674L233.998 324.629ZM233.998 324.629L233.606 324.919C233.46 325.026 233.278 325.071 233.099 325.044C232.919 325.017 232.758 324.92 232.651 324.774C232.651 324.774 232.651 324.774 232.651 324.774L215.218 301.129L233.998 324.629ZM216.711 300.029L234.143 323.674L215.218 301.129C215.111 300.983 215.066 300.801 215.093 300.621C215.12 300.442 215.217 300.281 215.363 300.174C215.363 300.174 215.363 300.174 215.363 300.174L215.755 299.884L215.755 299.884C215.901 299.777 216.084 299.732 216.263 299.759C216.442 299.786 216.603 299.883 216.711 300.029C216.711 300.029 216.711 300.029 216.711 300.029Z" fill="black" stroke="black"/>
<path d="M226.581 329.015L226.581 329.015L226.355 329.177L226.355 329.177C226.267 329.24 226.168 329.285 226.062 329.309C225.957 329.334 225.848 329.337 225.741 329.32C225.635 329.302 225.532 329.263 225.441 329.206C225.349 329.149 225.27 329.075 225.207 328.987C225.207 328.987 225.207 328.987 225.207 328.987L208.39 305.497L208.028 305.756L208.39 305.497C208.327 305.409 208.282 305.31 208.258 305.205C208.233 305.1 208.23 304.991 208.247 304.884C208.265 304.777 208.304 304.675 208.36 304.584C208.417 304.492 208.492 304.412 208.58 304.349L208.58 304.349L208.806 304.188L208.806 304.188C208.894 304.125 208.993 304.08 209.099 304.055C209.204 304.031 209.313 304.027 209.42 304.045C209.526 304.062 209.628 304.101 209.72 304.158C209.812 304.215 209.891 304.289 209.954 304.377C209.954 304.377 209.954 304.377 209.954 304.377L226.771 327.867C226.834 327.955 226.879 328.055 226.903 328.16C226.928 328.265 226.931 328.374 226.914 328.48C226.896 328.587 226.857 328.689 226.8 328.781C226.743 328.872 226.669 328.952 226.581 329.015Z" fill="black" stroke="black"/>
<path d="M220.263 332.773C220.369 333.01 220.446 333.208 220.498 333.368C220.355 333.279 220.182 333.156 219.978 332.995C219.319 332.475 218.418 331.627 217.313 330.471C215.106 328.164 212.308 324.868 209.537 321.307C206.765 317.747 204.256 314.226 202.56 311.52C201.711 310.165 201.11 309.085 200.768 308.318C200.662 308.081 200.585 307.883 200.533 307.723C200.675 307.812 200.848 307.935 201.052 308.096C201.712 308.616 202.612 309.464 203.717 310.62C205.924 312.927 208.722 316.223 211.494 319.784C214.266 323.344 216.775 326.865 218.47 329.571C219.319 330.926 219.921 332.006 220.263 332.773Z" fill="black" stroke="black"/>
<path d="M213.952 337.564L213.951 337.564L213.842 337.649C213.752 337.717 213.651 337.768 213.542 337.797C213.433 337.827 213.32 337.834 213.208 337.82C213.096 337.805 212.988 337.769 212.891 337.713C212.793 337.657 212.708 337.582 212.639 337.493L192.932 311.902C192.932 311.902 192.932 311.902 192.932 311.902C192.793 311.721 192.731 311.493 192.761 311.268C192.79 311.042 192.907 310.838 193.087 310.699L193.197 310.615L193.198 310.614C193.287 310.545 193.389 310.495 193.498 310.466C193.606 310.436 193.72 310.429 193.831 310.443C193.943 310.458 194.051 310.494 194.148 310.55C194.246 310.606 194.332 310.681 194.4 310.77L214.108 336.361C214.247 336.542 214.308 336.769 214.279 336.995C214.25 337.22 214.132 337.425 213.952 337.564Z" fill="black" stroke="black"/>
<path d="M195.31 323.104L195.31 323.104L195.322 323.108C195.74 323.248 196.184 323.598 196.637 324.244L196.637 324.244C200.283 329.446 203.999 334.567 207.784 339.606L207.784 339.607L207.79 339.614C207.878 339.728 207.937 339.862 207.96 340.004C207.983 340.146 207.97 340.292 207.922 340.428C207.873 340.564 207.792 340.686 207.684 340.781C207.577 340.877 207.447 340.945 207.306 340.977L207.306 340.977L207.3 340.978L206.152 341.257L206.14 341.26L206.129 341.263C206.008 341.298 205.95 341.285 205.927 341.276C205.905 341.267 205.856 341.241 205.794 341.137L205.794 341.137L205.789 341.131L196.291 325.857C196.104 325.536 195.801 325.301 195.445 325.196C195.086 325.089 194.7 325.121 194.362 325.279L194.362 325.279L194.357 325.282L193.283 325.802C193.069 325.9 192.877 326.042 192.72 326.217C192.561 326.395 192.441 326.603 192.368 326.829C192.294 327.055 192.268 327.294 192.291 327.531C192.314 327.767 192.386 327.995 192.502 328.202L200.886 343.509C200.989 343.708 200.979 343.806 200.968 343.842C200.959 343.873 200.923 343.954 200.74 344.053L200.74 344.053L200.736 344.055L199.803 344.574C199.579 344.689 199.478 344.672 199.449 344.662C199.424 344.654 199.34 344.614 199.244 344.395L199.244 344.395L199.24 344.386L185.422 314.696L185.422 314.696L185.42 314.693C185.415 314.681 185.411 314.664 185.416 314.641C185.42 314.618 185.433 314.592 185.456 314.57L185.463 314.563L185.47 314.556L186.12 313.872C186.173 313.824 186.212 313.8 186.236 313.789C186.248 313.783 186.256 313.781 186.26 313.78L186.264 313.78L186.265 313.78L186.266 313.78L186.27 313.781C186.274 313.782 186.282 313.785 186.293 313.791C186.318 313.805 186.359 313.833 186.413 313.891L186.418 313.896L186.423 313.902C188.83 316.331 190.315 319.285 190.879 322.782C190.924 323.069 190.993 323.332 191.104 323.548C191.216 323.766 191.396 323.981 191.676 324.074C191.957 324.168 192.23 324.103 192.45 323.994C192.667 323.886 192.879 323.714 193.084 323.51C193.393 323.2 193.72 323.026 194.068 322.96C194.419 322.893 194.828 322.93 195.31 323.104Z" fill="black" stroke="black"/>
<path d="M193.605 346.394L193.551 346.064L193.225 345.989C192.962 345.928 192.709 345.837 192.466 345.716L192.455 345.71L192.444 345.705C191.981 345.502 191.671 345.181 191.488 344.725C187.687 335.187 182.533 326.407 176.028 318.386L176.022 318.379L176.016 318.372C175.91 318.25 175.896 318.174 175.896 318.136C175.896 318.094 175.912 318.008 176.026 317.87L176.026 317.87L176.032 317.862L177.076 316.54L177.077 316.539C177.351 316.191 177.496 316.187 177.513 316.189C177.537 316.191 177.688 316.228 177.923 316.621L194.729 346.129C194.773 346.208 194.794 346.297 194.792 346.388C194.789 346.479 194.762 346.568 194.714 346.644C194.666 346.721 194.598 346.784 194.516 346.826C194.436 346.867 194.347 346.887 194.257 346.882C194.001 346.863 193.857 346.798 193.776 346.732C193.701 346.672 193.636 346.575 193.605 346.394Z" fill="black" stroke="black"/>
<path d="M182 349.671C180.501 344.7 177.854 339.879 174.979 335.177C174.016 333.604 173.03 332.047 172.052 330.502C170.093 327.408 168.162 324.36 166.508 321.316L166.508 321.316L166.503 321.308C166.451 321.217 166.437 321.109 166.463 321.007C166.489 320.905 166.554 320.818 166.643 320.763L166.643 320.763L166.646 320.761L167.474 320.244C167.476 320.243 167.477 320.242 167.479 320.241C167.484 320.247 167.489 320.255 167.495 320.263L186.214 349.386C186.293 349.517 186.338 349.666 186.345 349.819C186.353 349.974 186.321 350.128 186.254 350.267C186.187 350.406 186.085 350.527 185.959 350.617C185.833 350.707 185.687 350.764 185.533 350.783L185.533 350.783L185.524 350.784L184.067 350.992C183.476 351.063 183.049 350.969 182.74 350.771C182.431 350.573 182.173 350.229 182 349.671ZM182 349.671C182 349.672 182.001 349.673 182.001 349.673L181.522 349.818L182 349.67C182 349.67 182 349.671 182 349.671Z" fill="black" stroke="black"/>
<path d="M177.876 354.11L177.876 354.11C177.943 354.233 177.984 354.368 177.999 354.508C178.013 354.647 178 354.788 177.96 354.922C177.92 355.056 177.854 355.181 177.766 355.29C177.678 355.398 177.569 355.489 177.445 355.555L176.894 355.853L176.894 355.853C176.771 355.92 176.636 355.961 176.496 355.976C176.357 355.99 176.216 355.977 176.082 355.937C175.948 355.897 175.823 355.831 175.714 355.743C175.606 355.655 175.516 355.546 175.449 355.422L175.009 355.66L175.449 355.422L158.994 324.989L158.994 324.989C158.927 324.866 158.885 324.731 158.871 324.592C158.856 324.452 158.87 324.311 158.91 324.177C158.95 324.043 159.016 323.918 159.104 323.809C159.192 323.701 159.301 323.611 159.425 323.544C159.425 323.544 159.425 323.544 159.425 323.544L159.976 323.246L159.976 323.246C160.099 323.179 160.234 323.138 160.373 323.123C160.513 323.109 160.653 323.122 160.788 323.162C160.922 323.202 161.047 323.268 161.156 323.356C161.264 323.444 161.354 323.553 161.421 323.677L161.421 323.677L177.876 354.11Z" fill="black" stroke="black"/>
<path d="M167.014 358.702L167.014 358.702L167.01 358.692L151.869 326.009C151.869 326.009 151.869 326.009 151.869 326.009C151.85 325.968 151.84 325.925 151.838 325.881C151.836 325.837 151.844 325.793 151.859 325.751C151.875 325.709 151.899 325.671 151.929 325.639C151.959 325.606 151.996 325.58 152.037 325.562L152.037 325.562L152.04 325.561L153.568 324.866C153.645 324.833 153.733 324.83 153.813 324.858C153.893 324.886 153.959 324.944 153.998 325.019C153.998 325.02 153.998 325.02 153.999 325.021L170.249 357.452C170.249 357.452 170.249 357.453 170.249 357.453C170.27 357.495 170.281 357.541 170.283 357.586C170.285 357.633 170.277 357.679 170.26 357.722C170.243 357.766 170.217 357.805 170.184 357.838C170.151 357.87 170.112 357.895 170.069 357.912C170.068 357.912 170.068 357.913 170.067 357.913L167.433 358.883C167.432 358.884 167.431 358.884 167.431 358.884C167.351 358.912 167.265 358.908 167.188 358.875C167.11 358.841 167.048 358.779 167.014 358.702Z" fill="black" stroke="black"/>
<path d="M159.437 360.156L159.437 360.156C159.17 360.274 158.867 360.28 158.595 360.174C158.323 360.068 158.104 359.858 157.986 359.591L145.003 330.015L144.621 330.183L145.003 330.015C144.886 329.748 144.88 329.445 144.986 329.173C145.092 328.901 145.302 328.682 145.569 328.564C145.569 328.564 145.569 328.564 145.569 328.564L145.76 328.481L145.76 328.481C146.028 328.363 146.331 328.357 146.603 328.463C146.875 328.569 147.094 328.779 147.211 329.046C147.211 329.046 147.211 329.046 147.211 329.046L160.194 358.622C160.311 358.889 160.318 359.192 160.211 359.464C160.105 359.736 159.896 359.955 159.628 360.073L159.437 360.156Z" fill="black" stroke="black"/>
<path d="M149.36 361.363L149.348 361.375L149.337 361.388C145.689 365.463 141.154 367.133 135.678 366.411L135.673 366.411C135.276 366.362 134.981 366.234 134.761 366.047C134.541 365.861 134.364 365.588 134.247 365.197C134.247 365.197 134.247 365.197 134.247 365.197L125.826 336.906C125.825 336.905 125.825 336.904 125.825 336.903C125.61 336.156 125.12 335.519 124.454 335.119L124.454 335.118L124.448 335.115C123.564 334.6 122.709 334.362 121.938 334.578C121.579 334.679 121.24 334.867 121.052 335.211C120.862 335.557 120.889 335.944 121.007 336.296C121.007 336.296 121.007 336.297 121.007 336.297L130.578 365.358L130.579 365.36C130.704 365.737 130.678 365.972 130.604 366.121C130.53 366.272 130.359 366.439 129.979 366.576L129.968 366.58L129.957 366.584L128.958 366.998C128.683 367.097 128.552 367.068 128.496 367.041C128.443 367.015 128.343 366.934 128.26 366.659L128.26 366.658L119.28 336.865L119.28 336.865L119.279 336.861C119.011 335.991 119.065 335.396 119.303 334.991C119.54 334.585 120.034 334.245 120.926 334.052L120.926 334.052L120.932 334.05L129.597 332.067C129.597 332.067 129.597 332.067 129.598 332.067C130.471 331.87 131.389 332.015 132.165 332.473C132.941 332.932 133.517 333.671 133.776 334.54C135.951 341.977 139.39 348.784 144.091 354.958L144.09 354.958L144.097 354.967C144.407 355.356 144.551 355.725 144.572 356.078C144.594 356.432 144.495 356.819 144.234 357.251L144.232 357.254C143.88 357.847 143.332 358.201 142.517 358.301C142.029 358.354 141.557 358.523 141.291 358.937C141.025 359.352 141.071 359.851 141.23 360.315C141.23 360.316 141.23 360.316 141.231 360.317L141.682 361.67L141.682 361.67L141.684 361.677C141.798 362.005 141.996 362.326 142.343 362.482C142.697 362.64 143.066 362.566 143.379 362.417C145.445 361.456 146.844 360.169 147.462 358.52C148.08 356.873 147.878 354.969 146.966 352.856L146.966 352.855C143.667 345.26 140.218 337.816 136.618 330.522L136.618 330.522L136.615 330.516C136.409 330.116 136.439 329.927 136.474 329.851C136.511 329.774 136.64 329.628 137.083 329.525L137.083 329.525L137.091 329.523L138.337 329.212C138.651 329.144 138.981 329.189 139.27 329.343C139.56 329.498 139.79 329.752 139.918 330.062C139.918 330.063 139.918 330.063 139.918 330.063L151.334 358.254L151.334 358.254L151.337 358.262C151.708 359.137 152.326 359.795 153.175 360.219L154.915 361.089L154.915 361.089L154.925 361.094C154.97 361.115 155.009 361.146 155.041 361.184C155.072 361.223 155.095 361.268 155.107 361.316C155.119 361.364 155.12 361.414 155.11 361.463C155.101 361.508 155.083 361.55 155.057 361.589C154.666 362.057 154.198 362.412 153.648 362.656L153.641 362.659L153.635 362.662C153.152 362.894 152.726 362.956 152.344 362.89C151.96 362.824 151.57 362.621 151.174 362.235C151.173 362.235 151.173 362.234 151.172 362.233L150.334 361.395C150.282 361.33 150.217 361.277 150.145 361.238C150.046 361.185 149.942 361.163 149.844 361.163C149.746 361.163 149.654 361.184 149.574 361.219C149.493 361.254 149.421 361.304 149.36 361.363Z" fill="black" stroke="black"/>
<path d="M130.144 334.881L130.144 334.881L130.15 334.893C130.377 335.366 130.424 335.848 130.291 336.361L130.29 336.364C130.163 336.867 130.021 337.214 129.877 337.435C129.735 337.653 129.626 337.699 129.571 337.709C129.512 337.72 129.383 337.713 129.152 337.556C128.923 337.398 128.643 337.123 128.317 336.703C127.951 336.228 127.921 335.893 128.022 335.631C128.14 335.324 128.496 334.954 129.261 334.566C129.339 334.527 129.424 334.503 129.512 334.498C129.599 334.492 129.687 334.505 129.77 334.534C129.852 334.563 129.928 334.609 129.993 334.669C130.057 334.728 130.109 334.8 130.144 334.881Z" fill="white" stroke="black"/>
<path d="M131.929 341.887C132.718 343.044 133.3 344.391 133.668 345.935C133.128 345.608 132.707 345.205 132.393 344.73C131.924 344.022 131.669 343.117 131.658 341.984C131.658 341.81 131.665 341.667 131.676 341.552C131.749 341.638 131.833 341.749 131.929 341.887Z" fill="white" stroke="black"/>
<path d="M135.485 349.976L138.615 355.799C137.173 354.136 136.129 352.197 135.485 349.976Z" fill="white" stroke="black"/>
</svg>
