<svg width="512" height="512" viewBox="0 0 512 512" fill="none" xmlns="http://www.w3.org/2000/svg">
<rect width="512" height="512" fill="white"/>
<path d="M108.351 296.774L108.351 296.775C108.554 301.152 109.817 304.444 112.095 306.707C114.374 308.972 117.734 310.274 122.264 310.535C133.731 311.184 146.894 311.48 161.752 311.42C209.088 311.184 243.771 310.928 265.803 310.653M108.351 296.774L271.069 348.959C267.771 341.674 267.718 332.176 267.668 323.228C267.648 319.515 267.628 315.897 267.377 312.57M108.351 296.774C106.519 259.041 106.049 233.955 106.932 221.486L106.932 221.486M108.351 296.774L106.932 221.486M265.803 310.653C265.804 310.653 265.804 310.653 265.805 310.653L265.811 311.153M265.803 310.653C265.802 310.653 265.802 310.653 265.801 310.653L265.811 311.153M265.803 310.653C266.371 310.642 266.889 310.771 267.277 311.122C267.665 311.473 267.84 311.974 267.875 312.536C267.876 312.537 267.876 312.539 267.876 312.54L267.377 312.57M265.811 311.153C243.777 311.428 209.092 311.684 161.755 311.92M265.811 311.153C266.796 311.133 267.318 311.605 267.377 312.57M267.377 312.57L161.755 311.92M161.755 311.92C146.888 311.98 133.715 311.684 122.235 311.034L161.755 311.92ZM106.932 221.486C107.31 216.092 109.06 212.135 112.118 209.53M106.932 221.486L112.118 209.53M112.118 209.53C115.184 206.918 119.642 205.598 125.569 205.647M112.118 209.53L125.569 205.647M125.569 205.647C172.828 206.041 220.354 206.1 268.145 205.824L125.569 205.647Z" fill="white" stroke="black"/>
<path d="M147.363 220.093C148.935 220.19 150.507 220.286 152.087 220.358L129.206 221.749L129.206 221.749L129.201 221.75C129.099 221.757 129.044 221.748 129.018 221.742C129.012 221.711 129.009 221.651 129.023 221.552L129.14 220.756L129.14 220.756L129.141 220.754C129.169 220.56 129.26 220.381 129.4 220.244C129.539 220.109 129.719 220.022 129.912 219.999C135.896 219.382 141.462 219.727 147.015 220.071C147.131 220.079 147.247 220.086 147.363 220.093ZM128.999 221.734C128.999 221.734 128.999 221.735 129 221.735L128.999 221.734Z" fill="black" stroke="black"/>
<path d="M130.321 237.731L130.321 237.731C129.735 237.811 129.435 237.705 129.284 237.568C129.135 237.433 129.002 237.152 129.027 236.573L129.086 235.783L129.086 235.775L129.087 235.768C129.113 235.185 129.272 234.836 129.486 234.63C129.7 234.426 130.048 234.288 130.617 234.296C134.038 234.36 137.342 234.727 140.64 235.093C141.114 235.145 141.589 235.198 142.064 235.25C144.694 235.536 147.327 235.794 149.998 235.862C143.346 236.261 136.766 236.855 130.321 237.731ZM210.926 235.538C210.926 235.538 210.925 235.538 210.923 235.538C210.925 235.538 210.926 235.538 210.926 235.538Z" fill="black" stroke="black"/>
<path d="M130.302 253.465C147.099 254.47 164.175 254.831 181.529 254.548C174.595 255.877 167.594 256.472 160.525 256.335C155.238 256.231 150.125 256.655 145.074 257.075L145.008 257.081C139.972 257.5 134.998 257.914 129.926 257.812C129.728 257.808 129.533 257.761 129.354 257.677C129.174 257.592 129.014 257.471 128.885 257.32C128.755 257.17 128.658 256.994 128.601 256.804C128.543 256.614 128.526 256.415 128.551 256.218L128.551 256.217L128.728 254.771C128.796 254.242 128.972 253.926 129.194 253.742C129.416 253.557 129.762 253.44 130.302 253.465Z" fill="black" stroke="black"/>
<path d="M176.526 276.106C190.531 276.265 204.531 276.484 218.476 277.299C204.894 278.827 190.96 279.012 176.96 279.008C174.702 279.008 172.443 279.002 170.183 278.997C156.836 278.965 143.473 278.933 130.381 279.907L130.38 279.907C130.131 279.926 129.881 279.896 129.644 279.818C129.407 279.74 129.188 279.616 128.999 279.454C128.81 279.291 128.655 279.092 128.544 278.869C128.432 278.646 128.365 278.404 128.347 278.155L128.347 278.155L128.347 278.149L128.229 276.733C128.176 276.027 128.324 275.627 128.544 275.403C128.766 275.179 129.172 275.021 129.891 275.057L129.891 275.057C143.834 275.749 157.849 275.902 171.865 276.054C173.418 276.071 174.972 276.088 176.526 276.106ZM223.192 277.216C223.189 277.216 223.186 277.216 223.183 277.217L223.192 277.216Z" fill="black" stroke="black"/>
<path d="M266.671 294.553C266.671 294.852 266.612 295.148 266.497 295.424C266.383 295.7 266.215 295.951 266.004 296.163C265.792 296.374 265.542 296.542 265.265 296.656C264.989 296.771 264.693 296.83 264.394 296.83H131.422C130.818 296.83 130.239 296.59 129.812 296.163C129.385 295.736 129.146 295.157 129.146 294.553V294.376C129.146 293.772 129.385 293.193 129.812 292.766C130.239 292.339 130.818 292.1 131.422 292.1H264.394C264.693 292.1 264.989 292.159 265.265 292.273C265.542 292.387 265.792 292.555 266.004 292.766C266.215 292.978 266.383 293.229 266.497 293.505C266.612 293.781 266.671 294.077 266.671 294.376V294.553Z" fill="black" stroke="black"/>
</svg>
