<svg width="512" height="512" viewBox="0 0 512 512" fill="none" xmlns="http://www.w3.org/2000/svg">
<rect width="512" height="512" fill="white"/>
<path d="M257.918 377.749C269.73 367.595 281.272 357.136 292.545 346.373C294.542 344.447 296.631 344.34 298.812 346.054C300.143 347.088 300.356 348.32 299.449 349.75C293.82 358.588 288.615 367.234 281.839 375.264C273.242 385.461 264.667 395.629 256.113 405.769C256.052 405.843 255.974 405.902 255.887 405.942C255.8 405.982 255.704 406.002 255.608 406C255.512 405.998 255.418 405.974 255.332 405.93C255.247 405.887 255.172 405.824 255.114 405.748C246.688 394.659 238.077 383.676 229.282 372.799C223.313 365.407 218.172 357.228 212.606 349.432C212.413 349.166 212.316 348.842 212.331 348.514C212.347 348.186 212.474 347.872 212.691 347.626L215.856 343.993C216.522 343.229 217.23 343.179 217.981 343.845L256.176 377.728C256.757 378.238 257.338 378.245 257.918 377.749Z" fill="black"/>
<path d="M257.43 342.442L291.993 310.322C293.381 309.019 294.075 309.317 294.075 311.215L294.011 328.634C293.997 330.489 293.232 331.948 291.717 333.01C279.459 341.614 268.412 353.51 257.557 363.813C256.948 364.38 256.346 364.366 255.751 363.771C245.937 353.857 235.783 344.255 225.288 334.965C223.589 333.456 221.571 332.862 219.489 331.757C219.182 331.597 218.924 331.357 218.744 331.061C218.564 330.765 218.469 330.425 218.469 330.079L218.363 309.366C218.359 309.238 218.395 309.111 218.464 309.003C218.534 308.895 218.634 308.81 218.754 308.758C218.874 308.706 219.007 308.69 219.137 308.711C219.268 308.732 219.39 308.79 219.489 308.878L255.603 342.442C256.212 343.009 256.821 343.009 257.43 342.442Z" fill="black"/>
<path d="M261.891 305.585L276.166 291.076C277.767 289.447 279.367 289.447 280.967 291.076L285.046 295.261C286.618 296.876 286.618 298.49 285.046 300.105L257.111 328.847C257.034 328.927 256.941 328.99 256.839 329.033C256.737 329.076 256.627 329.099 256.516 329.099C256.405 329.099 256.295 329.076 256.193 329.033C256.091 328.99 255.998 328.927 255.921 328.847L226.329 298.809C225.451 297.916 225.465 297.045 226.372 296.196L232.957 290.078C233.364 289.698 233.904 289.494 234.457 289.51C235.011 289.526 235.533 289.761 235.91 290.163L249.697 304.672C251.17 306.216 251.871 305.925 251.8 303.801C251.545 296.026 250.971 285.786 254.073 278.309C254.155 278.103 254.293 277.925 254.472 277.793C254.65 277.662 254.862 277.583 255.083 277.565C255.303 277.548 255.525 277.592 255.722 277.693C255.919 277.795 256.083 277.949 256.197 278.139C262.146 287.783 260.34 294.305 260.467 305.012C260.481 306.343 260.956 306.534 261.891 305.585Z" fill="black"/>
<path d="M273.256 278.372C273.256 277.257 273.699 276.187 274.488 275.398C275.277 274.609 276.347 274.166 277.462 274.166C278.578 274.166 279.648 274.609 280.436 275.398C281.225 276.187 281.668 277.257 281.668 278.372C281.668 278.925 281.559 279.472 281.348 279.982C281.137 280.492 280.827 280.956 280.436 281.347C280.046 281.737 279.582 282.047 279.072 282.258C278.561 282.47 278.014 282.579 277.462 282.579C276.91 282.579 276.363 282.47 275.852 282.258C275.342 282.047 274.878 281.737 274.488 281.347C274.097 280.956 273.787 280.492 273.576 279.982C273.365 279.472 273.256 278.925 273.256 278.372Z" fill="black"/>
<path d="M235.719 273.954C237.234 274.718 238.41 275.866 239.246 277.395C239.465 277.797 239.594 278.242 239.625 278.699C239.656 279.156 239.587 279.615 239.424 280.045C239.261 280.474 239.006 280.864 238.679 281.187C238.351 281.511 237.957 281.761 237.525 281.92C230.536 284.469 229.41 277.926 232.724 274.464C233.1 274.07 233.595 273.809 234.134 273.717C234.673 273.625 235.228 273.708 235.719 273.954Z" fill="black"/>
<path d="M255.582 246.996L234.636 269.918C234.489 270.075 234.306 270.195 234.102 270.265C233.898 270.335 233.68 270.355 233.467 270.321L229.304 269.705C229.063 269.673 228.836 269.576 228.648 269.423C228.459 269.271 228.316 269.069 228.235 268.841C228.154 268.612 228.137 268.366 228.187 268.129C228.237 267.891 228.351 267.672 228.518 267.496L255.348 238.796C255.471 238.666 255.619 238.563 255.784 238.492C255.948 238.421 256.125 238.385 256.304 238.385C256.483 238.385 256.66 238.421 256.824 238.492C256.989 238.563 257.137 238.666 257.26 238.796L283.389 266.901C283.543 267.068 283.652 267.273 283.703 267.494C283.755 267.716 283.748 267.947 283.684 268.165C283.62 268.383 283.5 268.581 283.337 268.739C283.174 268.897 282.972 269.011 282.752 269.068L279.013 270.045C278.778 270.106 278.53 270.1 278.298 270.029C278.065 269.958 277.857 269.824 277.696 269.641L257.536 246.996C257.413 246.859 257.262 246.75 257.094 246.675C256.925 246.601 256.743 246.562 256.559 246.562C256.375 246.562 256.193 246.601 256.024 246.675C255.856 246.75 255.705 246.859 255.582 246.996Z" fill="black"/>
<path d="M232.022 232.402L252.374 213.495C252.576 213.314 252.828 213.195 253.097 213.154C253.366 213.113 253.641 213.151 253.889 213.264C254.136 213.376 254.346 213.559 254.492 213.788C254.638 214.018 254.714 214.285 254.71 214.557L254.477 223.267C254.47 223.451 254.427 223.632 254.351 223.8C254.274 223.968 254.166 224.119 254.031 224.244L234.083 242.938C233.886 243.122 233.641 243.245 233.376 243.293C233.111 243.341 232.838 243.312 232.59 243.209C232.341 243.106 232.127 242.933 231.974 242.712C231.821 242.491 231.734 242.23 231.725 241.961L231.576 233.464C231.571 233.265 231.608 233.068 231.685 232.885C231.762 232.702 231.877 232.537 232.022 232.402Z" fill="black"/>
<path d="M260.362 213.877L278.631 231.467C278.763 231.593 278.869 231.745 278.941 231.913C279.014 232.081 279.053 232.261 279.056 232.444L279.12 240.984C279.12 241.255 279.041 241.52 278.892 241.746C278.743 241.972 278.53 242.149 278.281 242.256C278.032 242.362 277.757 242.393 277.491 242.344C277.225 242.296 276.978 242.17 276.783 241.982L258.556 224.393C258.428 224.264 258.326 224.112 258.257 223.944C258.188 223.777 258.152 223.597 258.152 223.416L258.025 214.897C258.02 214.624 258.096 214.356 258.244 214.127C258.391 213.898 258.603 213.717 258.853 213.608C259.103 213.499 259.38 213.466 259.648 213.514C259.917 213.562 260.165 213.688 260.362 213.877Z" fill="black"/>
<path d="M255.306 204.785L235.018 224.605C233.205 226.361 232.249 225.979 232.15 223.458L231.895 217.319C231.796 215.01 232.589 213.063 234.275 211.477L254.201 192.868C254.699 192.404 255.352 192.144 256.029 192.14C256.707 192.136 257.359 192.389 257.855 192.846L276.825 210.308C278.241 211.611 278.95 213.233 278.95 215.173V222.927C278.944 223.285 278.835 223.634 278.635 223.931C278.435 224.228 278.154 224.46 277.826 224.598C277.497 224.736 277.137 224.774 276.789 224.707C276.441 224.641 276.121 224.472 275.869 224.223L256.368 204.785C256.014 204.431 255.66 204.431 255.306 204.785Z" fill="black"/>
<path d="M232.617 194.121L252.48 176.659C252.671 176.488 252.908 176.375 253.161 176.335C253.415 176.294 253.674 176.327 253.909 176.43C254.145 176.533 254.345 176.702 254.487 176.916C254.629 177.129 254.707 177.379 254.71 177.636L254.88 186.452C254.886 186.637 254.853 186.822 254.783 186.994C254.714 187.166 254.61 187.321 254.477 187.451L234.466 206.527C234.276 206.704 234.04 206.822 233.785 206.867C233.53 206.912 233.267 206.882 233.029 206.781C232.791 206.68 232.587 206.512 232.442 206.297C232.297 206.082 232.218 205.83 232.214 205.571L232.171 195.141C232.168 194.949 232.206 194.758 232.283 194.582C232.36 194.406 232.474 194.249 232.617 194.121Z" fill="black"/>
<path d="M259.554 177.275L278.546 193.739C278.679 193.85 278.786 193.99 278.86 194.148C278.933 194.306 278.971 194.478 278.971 194.652L278.801 204.849C278.796 205.078 278.725 205.301 278.597 205.491C278.469 205.681 278.288 205.83 278.077 205.92C277.866 206.009 277.634 206.036 277.408 205.997C277.182 205.958 276.972 205.854 276.804 205.699L257.876 187.79C257.756 187.679 257.66 187.545 257.594 187.395C257.528 187.245 257.494 187.083 257.494 186.919L257.6 178.167C257.603 177.942 257.671 177.723 257.794 177.535C257.917 177.347 258.091 177.197 258.295 177.104C258.5 177.01 258.727 176.977 258.95 177.007C259.172 177.038 259.382 177.13 259.554 177.275Z" fill="black"/>
<path d="M255.497 168.417L234.976 186.792C233.375 188.222 232.497 187.868 232.342 185.73L231.98 180.971C231.839 179.187 232.419 177.679 233.722 176.447L252.693 158.645C253.259 158.106 253.542 157.448 253.542 156.669L253.649 107.129C253.647 106.961 253.685 106.795 253.757 106.643C253.83 106.492 253.937 106.358 254.069 106.252C254.201 106.146 254.356 106.071 254.523 106.031C254.689 105.992 254.862 105.99 255.029 106.025L255.709 106.173C257.069 106.457 257.749 107.292 257.749 108.68L257.94 156.711C257.94 157.405 258.195 157.993 258.705 158.475L277.441 176.404C279.594 178.443 280.153 180.851 279.12 183.627L278.716 184.731C277.81 187.21 276.407 187.536 274.51 185.709L256.41 168.438C256.288 168.321 256.127 168.255 255.958 168.251C255.789 168.247 255.624 168.306 255.497 168.417Z" fill="black"/>
</svg>
