<svg width="512" height="512" viewBox="0 0 512 512" fill="none" xmlns="http://www.w3.org/2000/svg">
<rect width="512" height="512" fill="white"/>
<path d="M279.603 314.847C290.191 306.492 300.313 302.383 312.64 301.781C313.58 301.735 313.667 301.986 312.9 302.534C311.174 303.776 309.216 304.945 307.024 306.04C280.425 319.34 257.593 344.857 252.004 374.565C251.393 377.825 251.219 380.911 251.484 383.824C251.566 384.746 251.758 384.769 252.059 383.892C258.086 366.772 265.208 350.13 285.507 345.884C285.762 345.829 285.885 345.934 285.876 346.199C285.876 346.409 285.776 346.583 285.575 346.72C266.345 360.17 251.429 381.427 251.717 405.341C251.717 405.798 251.493 406.017 251.046 405.999L245.896 405.862C245.792 405.858 245.69 405.834 245.596 405.791C245.501 405.748 245.417 405.686 245.347 405.609C245.276 405.533 245.222 405.443 245.187 405.345C245.152 405.248 245.137 405.144 245.142 405.04C245.416 398.895 244.96 393.786 243.773 389.714C239.02 373.497 223.378 355.609 208.038 348.213C205.564 347.016 205.687 346.596 208.408 346.952C218.206 348.231 226.538 353.294 233.404 362.142C238.353 368.525 242.225 375.501 245.019 383.071C245.028 383.08 245.037 383.084 245.047 383.084L245.444 382.975C245.52 382.952 245.584 382.902 245.625 382.836C245.666 382.77 245.679 382.693 245.663 382.619C242.691 367.004 234.733 346.569 220.886 337.639C213.161 332.639 201.395 329.612 194.218 325.832C188.995 323.093 184.055 319.915 179.398 316.299C179.305 316.227 179.234 316.13 179.193 316.019C179.152 315.908 179.143 315.787 179.167 315.672C179.192 315.556 179.248 315.449 179.33 315.364C179.412 315.279 179.516 315.219 179.631 315.19C187.644 313.19 195.903 310.862 204.258 312.081C224.132 314.971 234.514 337.529 240.198 353.76C241.412 357.23 242.59 360.494 243.732 363.553C244.188 364.767 244.353 364.731 244.225 363.443C242.513 346.583 242.513 331.626 232.98 316.56C221.872 299 206.175 300.617 191.246 292.289C184.22 288.372 180.426 283.92 175.193 278.866C175.106 278.782 175.045 278.675 175.017 278.557C174.989 278.439 174.996 278.316 175.036 278.202C175.077 278.087 175.149 277.987 175.245 277.913C175.341 277.839 175.456 277.794 175.577 277.784C183.836 277.209 193.232 275.921 201.382 278.154C210.558 280.66 219.105 288.577 224.817 296.069C229.419 302.123 235.295 310.738 238.979 318.463C240.157 320.92 240.495 320.81 239.992 318.135C238.938 312.492 238.883 305.767 237.212 300.795C231.638 284.249 216.599 271.538 200.587 266.402C200.368 266.329 200.29 266.183 200.354 265.964L200.45 265.622C200.505 265.439 200.624 265.375 200.806 265.43C208.869 267.667 215.704 270.361 221.31 273.511C227.515 277.017 232.706 283.66 237.554 290.536C237.901 291.02 238.066 290.965 238.048 290.371C237.801 279.839 226.625 265.211 217.475 260.595C212.284 257.965 203.902 255.527 198.656 252.144C188.164 245.378 181.416 234.909 178.412 220.737C177.974 218.674 178.535 218.35 180.097 219.765C188.082 226.997 198.272 229.928 206.285 235.42C219.982 244.83 228.186 261.362 235.911 273.1C236.829 274.497 237.239 275.826 237.787 277.401C237.933 277.812 238.038 277.802 238.102 277.373C239.125 270.552 239.486 265.973 239.184 263.636C237.212 248.651 230.035 241.269 217.968 232.325C200.313 219.258 195.122 200.59 196.916 179.387C197.117 177.059 197.533 177.018 198.163 179.264C198.765 181.382 199.994 183.569 201.847 185.825C206.376 191.331 210.965 196.787 215.612 202.192C227.474 215.985 232.213 235.489 240.718 251.377C240.768 251.478 240.852 251.558 240.956 251.601C241.059 251.645 241.175 251.65 241.282 251.615C241.389 251.58 241.479 251.507 241.537 251.411C241.594 251.314 241.615 251.2 241.595 251.089C241.431 249.875 241.321 247.889 241.266 245.131C241.02 233.064 241.061 223.326 234.555 213.958C224.2 199.042 217.42 186.482 218.187 168.772C218.47 162.335 219.11 155.87 220.105 149.378C220.122 149.236 220.192 149.106 220.302 149.015C220.411 148.923 220.551 148.877 220.694 148.885C221.041 148.903 221.265 149.081 221.365 149.419C222.324 152.35 222.981 155.473 224.46 158.157C228.012 164.54 231.501 170.959 234.925 177.415C244.663 195.755 243.197 221.436 244.375 242.68C244.412 243.3 244.553 243.328 244.8 242.762C246.896 237.913 247.471 231.818 248.526 226.956C251.32 214.067 253.278 200.329 248.498 187.879C245.101 179.031 242.882 172.662 241.842 168.772C237.582 152.747 239.376 137.9 244.417 122.327C245.348 119.46 245.96 119.523 246.252 122.518C246.517 125.112 247.247 128.088 248.443 131.449C254.223 147.707 260.414 160.856 258.223 179.702C256.944 190.751 255.47 201.772 253.799 212.766C253.534 214.51 253.415 215.574 253.443 215.957C253.634 218.614 254.159 218.683 255.018 216.163C259.949 201.754 268.673 186.153 267.235 170.471C265.701 153.665 263.715 141.242 268.755 126.354C270.892 120.039 273.207 113.958 275.179 107.548C275.828 105.457 276.353 105.484 276.754 107.63C278.179 115.177 281 123.71 281.904 130.298C283.493 141.895 282.124 153.231 277.795 164.307C274.417 172.954 271.002 181.588 267.55 190.208C266.276 193.399 265.592 197.439 264.03 200.946C263.939 201.156 264.007 201.261 264.236 201.261C264.345 201.261 264.468 201.229 264.605 201.165C264.624 201.165 264.637 201.156 264.646 201.138C268.865 194.769 274.207 188.495 277.727 182.428C281.955 175.114 284.772 168.991 286.178 164.061C289.465 152.651 291.917 144.2 298.381 135.229C302.18 129.969 306.074 124.774 310.065 119.642C310.421 119.195 310.599 119.259 310.599 119.834C310.64 136.695 311.886 152.295 300.135 165.759C294.985 171.676 287.136 177.209 282.151 182.962C279.421 186.103 276.864 189.381 274.481 192.796C269.03 200.576 261.907 208.027 258.524 217.984C258.122 219.162 258.291 219.249 259.031 218.245C265.044 210.123 271.714 204.562 279.535 198.289C281.927 196.371 286.178 191.947 292.286 185.016C299.765 176.561 308.969 171.247 319.899 169.074C324.926 168.074 331.24 168.348 336.267 165.992C336.355 165.949 336.455 165.935 336.552 165.951C336.649 165.967 336.739 166.013 336.809 166.082C336.879 166.15 336.927 166.239 336.945 166.336C336.963 166.432 336.951 166.532 336.91 166.622C333.23 174.876 327.651 181.286 320.173 185.852C312.804 190.345 303.312 192.084 294.19 193.974C283.438 196.207 276.563 204.301 269.071 211.78C261.154 219.678 255.301 227.494 251.511 235.229C249.658 239.018 248.297 244.246 247.43 250.911C247.412 251.094 247.494 251.185 247.676 251.185C247.795 251.185 247.914 251.185 248.032 251.185C248.142 251.185 248.22 251.135 248.265 251.035C250.484 246.67 252.246 243.702 253.552 242.132C263.606 230.106 273.28 221.185 282.575 215.368C295.149 207.506 308.394 207.794 322.296 211.561C324.118 212.054 326.021 212.109 327.857 212.287C327.992 212.3 328.12 212.352 328.226 212.436C328.332 212.52 328.413 212.633 328.457 212.761C328.502 212.889 328.509 213.027 328.478 213.159C328.447 213.291 328.378 213.411 328.281 213.506C320.529 221.121 311.261 225.403 300.477 226.353C290.218 227.257 279.001 226.997 269.714 232.38C258.647 238.79 249.923 251.432 245.184 263.279C244.745 264.375 244.485 265.517 244.403 266.704C243.873 274.337 243.599 281.3 243.581 287.591C243.572 290.568 244.056 290.645 245.033 287.824C248.338 278.273 252.593 268.69 257.798 259.074C263.66 248.227 272.458 241.305 284.192 238.31C288.52 237.201 292.766 237.831 297.176 238.379C297.322 238.397 297.391 238.479 297.382 238.625V238.639C297.372 238.776 297.295 238.844 297.149 238.844C288.725 238.886 281.945 238.968 274.796 243.899C274.038 244.428 274.102 244.565 274.988 244.309C278.695 243.269 282.594 242.209 286.684 241.132C288.739 240.584 292.328 240.652 297.45 241.337C297.557 241.351 297.654 241.406 297.721 241.491C297.787 241.575 297.818 241.682 297.806 241.789L297.765 242.159C297.738 242.424 297.587 242.547 297.313 242.529C289.944 241.862 283.105 243.396 276.796 247.131C275.006 248.181 275.079 248.336 277.015 247.597C284.877 244.542 294.382 243.433 302.573 246.72C303.65 247.158 303.609 247.295 302.449 247.131C297.29 246.41 291.903 246.442 286.287 247.227C282.617 247.734 279.48 249.377 276.138 250.939C275.974 251.012 275.928 251.13 276.001 251.295V251.308C276.074 251.473 276.197 251.523 276.371 251.459C279.028 250.35 281.357 249.24 284.315 249.144C290.533 248.953 298.477 248.802 304.038 251.528C305.097 252.057 305.034 252.359 303.846 252.432L294.231 253.048C293.939 253.066 293.738 253.217 293.629 253.5C293.583 253.637 293.505 253.76 293.396 253.87C293.378 253.888 293.355 253.902 293.327 253.911C269.687 258.349 251.046 271.949 245.512 296.412C243.458 305.465 244.033 315.272 245.649 324.449C245.823 325.453 246.019 325.458 246.238 324.463C248.183 315.368 250.881 306.433 254.333 297.658C256.999 290.883 259.647 285.82 262.277 282.468C266.797 276.702 273.673 270.566 281.37 269.498C281.763 269.443 281.786 269.511 281.439 269.703C275.576 273.004 271.194 276.182 267.18 281.551C266.852 281.998 266.948 282.131 267.468 281.948C270.207 281.044 271.495 278.866 273.18 277.414C276.887 274.191 281.183 272.155 286.068 271.306C286.625 271.205 286.684 271.338 286.246 271.703C284.027 273.511 281.302 274.141 279.179 275.469C277.225 276.693 275.216 277.816 273.152 278.839C273.054 278.887 272.969 278.956 272.9 279.041C272.832 279.126 272.783 279.226 272.757 279.333C272.731 279.439 272.729 279.551 272.75 279.66C272.77 279.768 272.814 279.871 272.878 279.962C273.088 280.236 273.353 280.446 273.673 280.592C273.682 280.592 273.905 280.414 274.344 280.058C274.408 280.003 274.462 279.944 274.508 279.88C274.699 279.608 274.893 279.372 275.073 279.192C275.254 279.011 275.417 278.89 275.549 278.839C280.562 276.866 285.753 275.775 291.122 275.565C293.706 275.474 293.802 275.912 291.41 276.88C283.603 280.067 276.252 284.824 269.358 291.152C256.88 302.603 251.169 316.464 247.854 332.79C245.868 342.57 248.539 354.869 249.799 364.895C249.982 366.393 250.233 366.406 250.553 364.936C251.539 360.307 252.785 355.718 253.443 350.801C257.36 321.655 267.893 295.508 299.683 289.289C300.861 289.061 300.934 289.248 299.902 289.851C297.834 291.043 294.957 291.399 292.903 292.604C285.602 296.864 277.124 303.068 272.44 310.382C272.321 310.556 272.349 310.702 272.522 310.821L272.536 310.834C272.709 310.953 272.855 310.926 272.974 310.752C279.001 301.959 293.752 295.193 302.874 292.166C302.965 292.136 303.064 292.141 303.15 292.179C303.236 292.217 303.304 292.286 303.34 292.371L303.463 292.7C303.499 292.782 303.477 292.846 303.394 292.892C295.82 296.48 284.041 302.712 278.809 309.273C277.841 310.496 277.983 310.638 279.233 309.697C284.137 306.027 289.721 302.575 295.985 299.343C297.783 298.421 302.07 297.361 308.846 296.165C309.083 296.129 309.179 296.229 309.133 296.466L309.038 297.028C309.017 297.138 308.965 297.241 308.888 297.323C308.81 297.406 308.71 297.465 308.599 297.494C300.066 299.644 292.492 304.63 285.178 309.369C282.95 310.811 281.01 312.556 279.357 314.601C278.718 315.404 278.8 315.487 279.603 314.847Z" fill="black"/>
</svg>
