<svg width="512" height="512" viewBox="0 0 512 512" fill="none" xmlns="http://www.w3.org/2000/svg">
<rect width="512" height="512" fill="white"/>
<path d="M260.813 112.234C259.711 118.635 258.647 125.051 257.619 131.482C257.545 131.973 257.366 132.323 257.083 132.531C256.726 132.799 256.332 132.941 255.9 132.956C255.521 132.96 255.154 132.829 254.867 132.587C254.579 132.345 254.391 132.008 254.337 131.638C253.444 125.728 252.588 119.699 251.769 113.551C251.278 109.688 252.126 105.222 256.994 106.115C260.135 106.711 261.408 108.75 260.813 112.234Z" fill="black"/>
<path d="M271.575 184.515L271.71 358.842C271.711 359.02 271.761 359.195 271.856 359.346C271.95 359.497 272.085 359.619 272.245 359.698C272.405 359.777 272.584 359.809 272.761 359.792C272.939 359.775 273.108 359.709 273.25 359.601C281.334 353.505 291.94 354.063 301.341 351.652C302.204 351.443 302.353 351.674 301.788 352.344L257.151 405.6C257.041 405.731 256.903 405.835 256.747 405.904C256.592 405.973 256.422 406.006 256.252 405.999C256.082 405.993 255.915 405.947 255.765 405.867C255.615 405.786 255.486 405.672 255.386 405.533C241.602 386.568 226.313 368.89 209.522 352.5C208.063 351.086 208.331 350.595 210.325 351.027L234.62 356.475C235.335 356.624 235.937 356.966 236.429 357.502C236.756 357.845 237.158 358.127 237.634 358.351C237.782 358.421 237.946 358.453 238.109 358.442C238.273 358.432 238.432 358.38 238.572 358.291C238.711 358.203 238.828 358.08 238.91 357.934C238.992 357.789 239.037 357.625 239.041 357.458C240.381 300.443 240.507 243.428 239.421 186.413C239.391 185.252 238.982 185.088 238.193 185.921C234.248 190.09 230.705 194.474 227.564 199.074C222.942 205.839 218.007 209.836 211.553 213.499C209.186 214.853 208.732 214.377 210.191 212.069L255.521 140.816C255.583 140.72 255.668 140.641 255.769 140.588C255.869 140.534 255.982 140.507 256.096 140.51C256.21 140.512 256.322 140.543 256.42 140.601C256.519 140.658 256.601 140.74 256.659 140.838L302.011 212.382C303.246 214.332 302.837 214.779 300.783 213.722C289.149 207.737 280.373 194.563 272.67 184.157C271.94 183.19 271.575 183.309 271.575 184.515Z" fill="black"/>
<path d="M282.517 203.405L283.298 221.626C283.307 221.8 283.273 221.974 283.2 222.132C283.126 222.29 283.016 222.427 282.877 222.533C282.739 222.639 282.576 222.709 282.405 222.738C282.233 222.766 282.057 222.753 281.891 222.698L278.519 221.626C278.304 221.555 278.116 221.418 277.984 221.233C277.851 221.048 277.781 220.826 277.783 220.599L277.559 198.984C277.562 198.755 277.638 198.532 277.776 198.35C277.914 198.167 278.107 198.033 278.327 197.968C278.547 197.903 278.782 197.91 278.998 197.989C279.213 198.067 279.398 198.212 279.524 198.404L282.338 202.869C282.444 203.029 282.506 203.214 282.517 203.405Z" fill="black"/>
<path d="M234.174 199.364V220.13C234.172 220.362 234.109 220.59 233.992 220.79C233.874 220.99 233.706 221.155 233.504 221.269L230.645 222.877C230.446 222.99 230.22 223.048 229.99 223.047C229.761 223.046 229.536 222.985 229.337 222.87C229.139 222.754 228.974 222.59 228.859 222.391C228.743 222.193 228.682 221.968 228.68 221.738L228.457 204.008C228.457 203.746 228.534 203.489 228.68 203.272L231.762 198.649C231.918 198.416 232.145 198.239 232.409 198.144C232.673 198.048 232.961 198.04 233.231 198.12C233.5 198.2 233.737 198.363 233.906 198.587C234.076 198.811 234.169 199.083 234.174 199.364Z" fill="black"/>
<path d="M290.399 218.031C289.127 225.869 294.061 233.885 303.015 231.764C303.879 231.556 304.318 231.898 304.333 232.791C304.348 233.535 303.924 234.168 303.06 234.689C291.985 241.41 284.66 227.745 287.362 218.188C287.46 217.847 287.678 217.552 287.976 217.355C288.275 217.159 288.635 217.074 288.993 217.116L289.796 217.227C290.273 217.302 290.474 217.57 290.399 218.031Z" fill="black"/>
<path d="M211.688 232.188C217.761 233.573 221.222 224.596 220.687 219.974C220.66 219.745 220.686 219.512 220.764 219.295C220.842 219.077 220.969 218.881 221.136 218.721C221.302 218.561 221.504 218.441 221.724 218.372C221.944 218.303 222.178 218.286 222.406 218.322L223.098 218.433C223.694 218.532 224.231 218.851 224.603 219.326C224.975 219.802 225.155 220.399 225.108 221.001C224.587 227.015 223.202 231.169 220.954 233.461C217.054 237.421 213.467 237.972 210.192 235.114C206.857 232.181 207.356 231.206 211.688 232.188Z" fill="black"/>
<path d="M300.782 222.854C300.782 223.713 300.441 224.537 299.834 225.144C299.227 225.751 298.403 226.092 297.544 226.092C296.686 226.092 295.862 225.751 295.255 225.144C294.648 224.537 294.307 223.713 294.307 222.854C294.307 221.996 294.648 221.172 295.255 220.565C295.862 219.958 296.686 219.617 297.544 219.617C298.403 219.617 299.227 219.958 299.834 220.565C300.441 221.172 300.782 221.996 300.782 222.854Z" fill="black"/>
<path d="M213.132 226.311C212.401 226.002 211.841 225.37 211.577 224.554C211.313 223.737 211.365 222.804 211.722 221.958C212.079 221.113 212.712 220.424 213.482 220.045C214.251 219.665 215.094 219.626 215.825 219.934C216.556 220.243 217.115 220.875 217.38 221.691C217.644 222.508 217.592 223.441 217.235 224.287C216.878 225.132 216.245 225.821 215.475 226.2C214.706 226.58 213.863 226.62 213.132 226.311Z" fill="black"/>
<path d="M231.65 243.711C225.13 248.556 216.778 249.427 210.995 255.456C206.454 260.205 204.981 259.393 206.574 253.022C207.005 251.28 208.658 249.628 211.531 248.065C217.917 244.566 225.152 239.423 233.235 232.635C234.084 231.92 234.433 232.114 234.285 233.216L233.235 241.031C233.165 241.56 232.988 242.07 232.716 242.53C232.443 242.991 232.081 243.392 231.65 243.711Z" fill="black"/>
<path d="M302.681 259.654C296.004 252.665 288.546 249.762 280.083 245.586C279.503 245.303 279.168 244.842 279.078 244.202L277.761 234.957C277.404 232.441 278.036 232.166 279.659 234.131C286.157 241.991 305.36 247.931 304.512 259.006C304.5 259.21 304.429 259.406 304.306 259.569C304.183 259.731 304.014 259.855 303.82 259.923C303.626 259.992 303.415 260.003 303.213 259.955C303.01 259.907 302.825 259.803 302.681 259.654Z" fill="black"/>
<path d="M224.259 259.743C215.215 265.392 215.215 273.141 214.434 282.162C214.423 282.265 214.388 282.365 214.334 282.453C214.279 282.541 214.206 282.615 214.119 282.669C214.032 282.723 213.935 282.756 213.835 282.765C213.734 282.774 213.634 282.758 213.541 282.72C213.347 282.631 213.154 282.549 212.96 282.475C212.836 282.419 212.726 282.335 212.641 282.23C212.555 282.125 212.497 282.003 212.469 281.872C210.132 271.049 213.288 262.341 221.937 255.746C225.048 253.364 227.988 252.173 230.757 252.173C232.513 252.158 233.451 253.022 233.57 254.764L233.66 256.215C233.779 257.852 233.019 258.552 231.382 258.314C228.747 257.942 226.373 258.418 224.259 259.743Z" fill="black"/>
<path d="M279.257 257.599C277.724 257.183 277.21 256.222 277.716 254.719L277.962 254.004C278.483 252.471 279.503 251.98 281.021 252.531C294.836 257.517 300.954 267.432 299.376 282.274C299.301 282.929 298.944 283.211 298.304 283.122L297.389 283.01C296.51 282.891 296.094 282.385 296.138 281.492C296.883 268.853 291.255 260.889 279.257 257.599Z" fill="black"/>
<path d="M232.137 266.809C232.181 267.856 231.741 268.881 230.914 269.657C230.088 270.433 228.942 270.898 227.729 270.949C226.516 271 225.335 270.633 224.447 269.928C223.558 269.223 223.034 268.239 222.99 267.192C222.946 266.145 223.386 265.12 224.213 264.344C225.039 263.567 226.185 263.102 227.398 263.051C228.611 263.001 229.792 263.368 230.681 264.073C231.569 264.777 232.093 265.761 232.137 266.809Z" fill="black"/>
<path d="M287.519 267.826C287.519 268.928 287.081 269.984 286.302 270.763C285.523 271.542 284.467 271.98 283.366 271.98C282.264 271.98 281.208 271.542 280.429 270.763C279.65 269.984 279.212 268.928 279.212 267.826C279.212 266.725 279.65 265.668 280.429 264.889C281.208 264.111 282.264 263.673 283.366 263.673C284.467 263.673 285.523 264.111 286.302 264.889C287.081 265.668 287.519 266.725 287.519 267.826Z" fill="black"/>
<path d="M221.758 331.957C227.274 328.786 227.542 321.976 227.609 315.656C227.728 303.762 227.705 291.205 227.542 277.986C227.529 277.181 227.802 276.398 228.314 275.777C228.825 275.155 229.541 274.735 230.333 274.592L231.003 274.458C231.286 274.407 231.576 274.417 231.855 274.487C232.134 274.558 232.394 274.688 232.619 274.868C232.843 275.048 233.026 275.274 233.156 275.53C233.285 275.787 233.358 276.069 233.37 276.356C234.59 303.003 234.717 319.728 233.749 326.531C231.405 342.921 211.531 349.285 201.795 335.418C201.007 334.299 200.461 333.026 200.192 331.681C199.923 330.335 199.937 328.946 200.232 327.603L201.215 323.181C201.885 320.085 202.927 319.959 204.341 322.802C209.298 332.701 215.104 335.753 221.758 331.957Z" fill="black"/>
<path d="M290.176 331.734C299.599 335.329 304.802 328.965 307.75 321.35C308.449 319.534 309.208 319.505 310.027 321.261C320.455 343.725 278.141 355.18 277.761 321.976C277.612 307.268 277.664 292.783 277.917 278.522C277.947 276.528 278.892 275.902 280.753 276.647L281.289 276.87C282.111 277.2 282.814 277.771 283.304 278.509C283.795 279.246 284.049 280.115 284.036 281.001C283.842 292.3 283.723 303.018 283.678 313.156C283.656 318.917 284.638 329.635 290.176 331.734Z" fill="black"/>
<path d="M294.441 302.348C293.086 307.588 292.989 312.858 294.15 318.157C294.209 318.434 294.207 318.719 294.143 318.994C294.079 319.27 293.955 319.527 293.781 319.749C293.606 319.971 293.384 320.151 293.132 320.277C292.879 320.404 292.602 320.473 292.319 320.48L291.716 320.502C290.094 320.547 289.186 319.758 288.992 318.135C288.188 311.592 286.603 297.212 291.314 293.081C295.11 289.747 299.107 289.977 303.305 293.773C303.592 294.032 303.809 294.358 303.938 294.722C304.067 295.086 304.103 295.476 304.043 295.857C303.983 296.238 303.829 296.598 303.595 296.905C303.361 297.212 303.054 297.456 302.702 297.614L295.847 300.696C295.506 300.849 295.203 301.076 294.96 301.362C294.716 301.648 294.539 301.985 294.441 302.348Z" fill="black"/>
<path d="M217.27 303.196C215.29 299.668 213.042 297.86 210.526 297.77C206.462 297.636 205.949 296.215 208.986 293.505C214.836 288.258 222.428 292.322 223.053 300.316C223.455 305.214 223.239 311.213 222.406 318.314C222.227 319.892 221.341 320.74 219.748 320.859L219.123 320.904C218.92 320.919 218.716 320.886 218.527 320.808C218.338 320.731 218.17 320.61 218.036 320.456C217.901 320.303 217.805 320.12 217.753 319.922C217.702 319.725 217.697 319.518 217.739 319.318C219.347 312.024 219.19 306.65 217.27 303.196Z" fill="black"/>
</svg>
