<svg width="512" height="512" viewBox="0 0 512 512" fill="none" xmlns="http://www.w3.org/2000/svg">
<rect width="512" height="512" fill="white"/>
<path d="M354.179 255.62C354.179 255.714 354.226 255.762 354.32 255.762L354.91 255.785C355.303 255.801 355.515 255.612 355.546 255.219C359.901 216.373 348.755 183.28 322.108 155.941C310.113 143.631 295.917 133.688 279.519 126.11C279.472 126.095 279.457 126.055 279.472 125.992L279.732 125.332C279.842 125.049 280.054 124.947 280.368 125.026C345.595 143.679 382.382 210.061 354.556 274.533C351.962 280.585 348.708 286.245 344.793 291.511C344.604 291.763 344.369 291.81 344.086 291.653L344.062 291.629C343.779 291.472 343.716 291.244 343.873 290.945C352.245 274.226 350.83 252.154 347.08 233.548C341.641 206.523 330.809 182.714 314.585 162.119C314.349 161.821 314.373 161.538 314.656 161.27L314.679 161.247C314.962 160.98 315.245 160.98 315.528 161.247C343.213 186.361 354.815 218.904 354.179 255.62Z" fill="black"/>
<path d="M142.369 239.703C136.804 214.447 143.43 188.413 162.956 170.279C163.084 170.162 163.251 170.097 163.422 170.097C163.593 170.097 163.755 170.162 163.875 170.279L164.323 170.68C164.355 170.695 164.355 170.719 164.323 170.75C125.296 218.574 162.673 291.983 221.084 297.312C222.452 297.438 222.483 297.698 221.178 298.091C218.946 298.782 216.902 299.081 215.047 298.987C178.614 297.1 150.151 275.004 142.369 239.703Z" fill="black"/>
<path d="M315.033 312.923C326.894 292.808 334.511 268.566 329.182 245.197C329.119 244.914 329.221 244.733 329.488 244.655H329.512C329.779 244.56 329.968 244.647 330.078 244.914C341.114 272.245 332.766 302.995 310.269 321.672C309.074 322.662 308.815 322.466 309.491 321.082C310.93 318.158 313.736 315.116 315.033 312.923Z" fill="black"/>
<path d="M176.067 318.819C202.573 335.703 236.743 335.656 265.323 324.926C294.682 313.914 318.594 285.545 316.283 253.663C315.827 247.327 316.637 247.162 318.712 253.168C324.937 271.137 319.514 293.209 309.232 308.301C296.137 327.528 277.547 338.47 253.462 341.127C224.692 344.302 198.485 337.527 174.841 320.799C174.706 320.7 174.611 320.557 174.576 320.4C174.541 320.242 174.569 320.081 174.652 319.95L175.265 319.007C175.47 318.677 175.737 318.614 176.067 318.819Z" fill="black"/>
<path fill-rule="evenodd" clip-rule="evenodd" d="M148.241 292.195L148.759 291.841C149.027 291.669 149.239 291.716 149.396 291.983C167.695 320.446 203.775 330.279 236.271 326.2C265.826 322.505 285.831 306.831 296.285 279.178C296.412 278.817 296.309 278.557 295.979 278.4L295.956 278.376C295.61 278.219 295.35 278.306 295.177 278.636C278.67 308.372 250.325 317.758 218.042 319.007C217.382 319.039 217.028 318.717 216.981 318.04L216.934 317.427C216.902 317.16 217.028 317.011 217.311 316.979C242.15 315.486 262.116 305.747 277.208 287.762C278.324 286.426 278.183 286.268 276.784 287.29C240.751 313.701 190.971 315.14 158.404 282.621C124.919 249.182 124.353 192.257 162.413 163.369C176.491 152.663 197.149 145.612 214.434 147.405C247.236 150.753 274.072 176.952 267.917 210.98C260.229 253.498 200.002 263.992 181.986 223.502C177.112 212.576 176.759 202.373 180.925 192.893C189.697 172.92 213.255 164.643 232.238 175.561C238.416 179.114 242.646 184.152 244.925 190.677C250.679 207.184 239.548 224.917 221.155 221.875C201.983 218.692 201.157 193.931 220.612 189.427C221.477 189.222 221.579 188.822 220.919 188.224C220.431 187.784 219.85 187.564 219.174 187.564C199.554 187.47 192.338 209.283 205.19 222.276C221.461 238.689 250.09 229.162 254.193 205.745C259.499 175.75 230.847 156.743 203.327 161.837C177.506 166.6 161.541 190.064 163.757 215.838C166.006 242.061 179.329 259.81 203.728 269.085C217.39 274.289 231.193 274.564 245.137 269.911C290.862 254.701 306.119 204.472 283.103 164.171C263.766 130.284 220.447 117.904 183.636 129.601C132.299 145.919 101.549 201.288 106.525 253.427C112.538 316.366 165.738 367.585 225.352 381.829C266.023 391.544 305.475 385.971 343.708 365.109C363.123 354.513 377.862 340.718 387.924 323.724C409.131 287.895 411.678 249.701 395.564 209.141C395.422 208.779 395.163 208.654 394.786 208.764L394.078 209C393.701 209.11 393.567 209.361 393.677 209.754C397.78 225.271 398.409 240.85 395.564 256.493C382.853 326.648 317.792 369.33 248.675 364.991C234.84 364.127 221.619 360.88 209.01 355.252C208.743 355.126 208.664 354.93 208.775 354.663V354.639C208.885 354.372 209.073 354.277 209.341 354.356C251.292 367.019 296.851 364.732 332.719 341.174C374.01 314.079 389.291 272.363 386.343 223.526C385.07 202.507 377.917 183.862 364.884 167.59C364.413 167.009 364.098 167.087 363.941 167.826C363.815 168.424 363.98 169.225 364.436 170.232C405.774 262.152 336.468 354.403 237.497 347.022C198.776 344.13 168.937 326.278 147.982 293.469C147.667 292.966 147.754 292.541 148.241 292.195ZM122.065 267.364C121.798 263.795 121.437 260.258 120.981 256.752C117.286 227.432 122.915 200.211 137.866 175.089C137.881 175.074 137.881 175.058 137.866 175.042L137.276 174.665C137.164 174.594 137.031 174.567 136.904 174.589C136.777 174.611 136.665 174.68 136.592 174.783C119.589 198.459 113.222 226.096 118.528 254.818C119.33 259.189 120.077 263.567 120.769 267.953C120.784 268.063 120.847 268.111 120.957 268.095L121.523 268.024C121.916 267.977 122.097 267.757 122.065 267.364Z" fill="black"/>
</svg>
