<svg width="512" height="512" viewBox="0 0 512 512" fill="none" xmlns="http://www.w3.org/2000/svg">
<rect width="512" height="512" fill="white"/>
<path fill-rule="evenodd" clip-rule="evenodd" d="M195.044 221.008C194.83 216.613 194.248 212.265 193.298 207.963C193.075 206.994 193.103 206.291 193.382 205.854C193.838 205.137 194.402 205.034 195.072 205.546C205.194 213.368 213.533 222.773 220.088 233.761C220.312 234.142 220.642 234.361 221.08 234.417C221.517 234.482 221.922 234.431 222.295 234.264C222.751 234.059 222.91 233.719 222.77 233.244C220.302 224.593 217.858 215.952 215.437 207.32C212.709 197.562 211.275 187.58 211.135 177.374C211.134 177.246 211.176 177.121 211.255 177.02C211.333 176.919 211.444 176.846 211.568 176.815C211.885 176.731 212.131 176.82 212.308 177.081C216.62 183.17 221.601 188.669 227.253 193.576C227.305 193.621 227.365 193.655 227.43 193.675C227.496 193.694 227.564 193.7 227.632 193.69C227.699 193.681 227.764 193.657 227.822 193.621C227.88 193.584 227.929 193.536 227.966 193.478C228.031 193.376 228.068 193.246 228.077 193.087C228.077 192.966 228.04 192.841 227.966 192.71C220.563 180.139 221.429 168.77 223.943 154.928C224.111 154.044 224.432 153.978 224.907 154.733L235.508 171.48C235.555 171.545 235.573 171.54 235.564 171.466C235.294 168.803 234.959 166.125 234.558 163.434C233.432 155.855 234.367 148.419 237.366 141.128C237.915 139.797 238.493 139.783 239.098 141.086L243.26 149.998C243.958 151.506 244.266 151.427 244.182 149.76C243.893 144.248 244.559 138.772 246.179 133.334C246.328 132.841 246.566 132.515 246.892 132.357C246.999 132.302 247.118 132.272 247.238 132.268C247.359 132.264 247.479 132.285 247.59 132.332C247.702 132.378 247.802 132.448 247.884 132.537C247.966 132.626 248.028 132.731 248.065 132.846L250.356 140.081C250.358 140.096 250.365 140.109 250.377 140.118C250.389 140.127 250.404 140.131 250.418 140.13C250.433 140.128 250.447 140.12 250.456 140.108C250.465 140.097 250.469 140.082 250.467 140.067C251.156 128.567 253.605 117.449 257.814 106.712C258.187 105.772 258.582 105.763 259.001 106.684C263.276 115.931 266.241 125.573 267.899 135.611C268.104 136.84 268.346 136.85 268.625 135.639L269.379 132.441C269.488 131.955 269.732 131.551 270.064 131.309C270.203 131.207 270.357 131.156 270.525 131.156C270.767 131.156 270.925 131.272 270.999 131.505C272.787 137.157 273.42 142.939 272.899 148.852C272.815 149.737 273.016 149.807 273.5 149.062C275.39 146.138 276.861 143.06 277.913 139.829C278.109 139.205 278.528 138.861 279.171 138.796C279.291 138.783 279.413 138.811 279.518 138.873C279.624 138.936 279.707 139.031 279.757 139.145C283.528 148.233 284.511 157.643 282.704 167.373C282.555 168.193 282.742 168.272 283.263 167.611C286.829 163.076 289.981 158.276 292.719 153.21C292.721 153.192 292.73 153.175 292.744 153.163C292.759 153.151 292.777 153.145 292.796 153.147C292.814 153.149 292.831 153.158 292.843 153.173C292.855 153.187 292.86 153.206 292.859 153.224C296.164 166.717 295.107 179.814 289.688 192.515C289.101 193.874 289.32 194.023 290.345 192.962C291.513 191.751 292.757 190.557 294.014 189.348C297.4 186.094 300.889 182.742 303.292 178.729C304.652 176.475 305.252 176.662 305.094 179.287C304.973 181.174 304.925 183.086 304.876 185.006C304.78 188.829 304.683 192.688 304.005 196.454C302.33 205.729 299.917 214.848 297.496 223.999C296.687 227.056 295.877 230.117 295.093 233.188C295.047 233.375 295.068 233.573 295.152 233.746C295.236 233.92 295.379 234.058 295.554 234.138C296.281 234.454 296.872 234.184 297.328 233.328C303.129 222.629 311.184 213.275 321.492 205.267C322.665 204.354 323.187 204.638 323.056 206.119L321.827 220.855C321.566 223.993 322.116 224.142 323.475 221.302C327.638 212.586 333.853 205.686 342.122 200.602C343.435 199.792 343.849 200.118 343.365 201.58C342.21 205.044 341.428 208.582 341.018 212.195C340.87 213.554 341.256 213.727 342.178 212.712C347.15 207.227 353.063 203.055 359.917 200.197C361.313 199.61 361.653 199.983 360.936 201.314L357.779 207.181C357.719 207.291 357.698 207.419 357.719 207.543C357.74 207.667 357.803 207.781 357.897 207.865C357.99 207.949 358.11 207.999 358.236 208.007C358.362 208.014 358.486 207.979 358.59 207.907C364.141 204.161 370.3 201.144 376.409 198.151C379.752 196.513 383.081 194.882 386.287 193.143C386.902 192.808 387.139 192.985 387 193.674C385.752 199.801 384.043 205.83 381.873 211.762C378.675 220.506 375.001 225.38 370.671 230.925C370.159 231.577 370.308 231.815 371.118 231.638C373.977 231.014 376.691 230.031 379.261 228.69C379.83 228.402 380.039 228.565 379.89 229.179C378 237.243 373.847 243.682 367.431 248.496C366.287 249.362 364.899 250.087 363.523 250.805C362.412 251.385 361.31 251.96 360.35 252.603C358.376 253.925 358.566 254.433 360.922 254.125C366.844 253.352 372.664 252.114 378.382 250.41C378.513 250.372 378.653 250.374 378.784 250.414C378.916 250.454 379.032 250.531 379.121 250.635C379.209 250.74 379.266 250.868 379.283 251.004C379.301 251.14 379.279 251.278 379.22 251.402C372.487 265.043 361.844 274.057 347.29 278.443C346.247 278.75 346.261 279.015 347.332 279.239C357.342 281.278 367.454 282.274 377.669 282.228C378.433 282.228 378.605 282.549 378.186 283.192C374.177 289.379 365.238 297.927 357.696 298.905C356.765 299.026 356.206 299.138 356.02 299.24C354.437 300.069 354.581 300.646 356.453 300.972L360.224 301.629C360.442 301.668 360.643 301.773 360.8 301.931C360.957 302.088 361.062 302.289 361.101 302.506C361.139 302.724 361.109 302.947 361.014 303.145C360.92 303.343 360.766 303.506 360.573 303.612C351.541 308.761 341.898 311.122 331.646 310.694C329.253 310.6 326.841 310.577 324.411 310.624C323.666 310.642 323.615 310.843 324.258 311.224C328.895 313.999 333.802 316.127 338.979 317.607C339.491 317.756 339.869 318.003 340.111 318.348C340.16 318.418 340.191 318.5 340.201 318.585C340.211 318.671 340.199 318.757 340.167 318.835C340.134 318.914 340.083 318.982 340.017 319.034C339.951 319.085 339.872 319.118 339.789 319.13C335.862 319.73 331.871 319.933 327.905 320.135C322.647 320.402 317.436 320.667 312.483 321.854C309.14 322.645 309.177 323.213 312.595 323.558C319.141 324.209 325.962 326.402 333.057 330.136C333.402 330.313 333.676 330.495 333.881 330.681C334.02 330.805 334.123 330.964 334.179 331.142C334.235 331.319 334.242 331.508 334.199 331.688C334.156 331.868 334.064 332.032 333.935 332.163C333.805 332.293 333.641 332.384 333.462 332.427L327.163 333.977C326.092 334.238 326.092 334.508 327.163 334.788C327.808 334.952 328.473 335.105 329.145 335.26C332.864 336.117 336.811 337.027 339.035 340.221C339.296 340.603 339.31 340.966 339.077 341.31C338.816 341.683 338.49 341.748 338.099 341.506C337.624 341.217 337.117 341.045 336.577 340.989C336.288 340.97 336.246 341.064 336.451 341.268C336.935 341.753 337.55 342.041 338.295 342.134C338.77 342.19 339.203 342.349 339.594 342.609L353.268 351.772C353.438 351.887 353.572 352.049 353.653 352.238C353.734 352.427 353.759 352.636 353.725 352.839C353.691 353.042 353.6 353.23 353.462 353.383C353.324 353.536 353.145 353.645 352.947 353.699C343.323 356.283 332.708 358.127 323.21 354.873C323.141 354.848 323.066 354.847 322.996 354.871C322.927 354.894 322.868 354.941 322.829 355.003C322.79 355.065 322.773 355.139 322.781 355.211C322.79 355.284 322.823 355.352 322.875 355.404C323.386 355.957 324.424 356.598 325.399 357.2C326.368 357.799 327.275 358.359 327.54 358.756C327.726 359.044 327.759 359.333 327.638 359.622C327.596 359.721 327.526 359.806 327.437 359.865C327.348 359.925 327.242 359.957 327.135 359.957C321.445 360.106 316.059 358.975 310.974 356.563C309.81 356.004 309.671 356.195 310.555 357.135L313.628 360.418C314.448 361.284 314.266 361.633 313.084 361.465C307.259 360.655 301.393 359.58 296.7 355.669C295.359 354.542 295.187 354.7 296.183 356.144L299.074 360.334C299.151 360.443 299.2 360.57 299.216 360.702C299.232 360.835 299.215 360.969 299.167 361.094C299.118 361.218 299.04 361.328 298.938 361.415C298.837 361.502 298.716 361.562 298.585 361.591C298.064 361.712 297.431 361.675 296.686 361.479C285.782 358.565 278.146 351.935 273.779 341.59C273.686 341.366 273.56 341.227 273.402 341.171C273.281 341.124 273.165 341.119 273.053 341.157C272.876 341.203 272.792 341.32 272.801 341.506C273.062 345.231 274.133 348.704 276.014 351.926C276.768 353.211 276.484 353.509 275.162 352.82C266.604 348.36 264.017 339.804 261.406 331.165C261.294 330.795 261.181 330.423 261.069 330.053C260.78 329.112 260.249 328.716 259.476 328.865C259.333 328.893 259.204 328.968 259.108 329.08C259.012 329.191 258.955 329.332 258.946 329.48C257.8 352.135 261.32 380.81 273.053 400.742C273.816 402.036 273.528 403.033 272.187 403.731L268.527 405.631C267.112 406.376 266.125 405.994 265.566 404.485C260.99 392.167 258.952 380.394 256.809 368.014C256.551 366.525 256.292 365.027 256.026 363.519C254.639 355.622 254.341 344.588 255.132 330.416C255.151 329.959 254.946 329.652 254.518 329.494L254.169 329.368C253.945 329.284 253.81 329.359 253.764 329.592C251.594 341.073 247.734 348.699 242.185 352.47C240.788 353.42 240.374 353.104 240.942 351.521C241.845 349.016 242.362 346.427 242.492 343.755C242.585 341.836 242.175 341.725 241.263 343.419C235.802 353.532 229.097 359.314 217.923 362.178C217.821 362.203 217.715 362.207 217.612 362.191C217.508 362.175 217.409 362.139 217.319 362.085C217.23 362.03 217.152 361.958 217.09 361.874C217.028 361.789 216.984 361.693 216.959 361.591C216.848 361.135 217.029 360.674 217.504 360.208C218.817 358.942 219.66 357.773 220.032 356.703C220.498 355.343 220.144 355.073 218.971 355.892C213.747 359.515 207.95 361.647 201.581 362.289C201.475 362.299 201.369 362.277 201.275 362.226C201.182 362.176 201.105 362.099 201.055 362.005C201.004 361.912 200.982 361.806 200.991 361.7C201.001 361.594 201.04 361.493 201.106 361.41L203.886 358.015C203.963 357.929 204.007 357.819 204.011 357.703C204.014 357.588 203.976 357.475 203.904 357.384C203.832 357.294 203.731 357.232 203.617 357.209C203.504 357.187 203.386 357.205 203.285 357.261C198.08 359.813 192.567 361.018 186.748 360.879C186.642 360.876 186.54 360.842 186.453 360.782C186.366 360.722 186.299 360.638 186.259 360.541C186.219 360.443 186.209 360.336 186.228 360.232C186.248 360.129 186.297 360.033 186.371 359.957C187.311 358.961 188.41 358.034 189.667 357.177C189.946 356.982 190.128 356.749 190.212 356.479C190.379 355.911 190.179 355.697 189.611 355.837C179.294 358.239 169.139 357.643 159.148 354.049C159.045 354.009 158.954 353.943 158.884 353.858C158.814 353.773 158.767 353.671 158.749 353.563C158.731 353.456 158.741 353.346 158.779 353.245C158.817 353.144 158.882 353.055 158.966 352.987C164.078 348.843 169.563 345.286 175.42 342.316C175.848 342.102 175.862 341.864 175.462 341.604C175.062 341.334 174.629 341.208 174.163 341.227C173.893 341.236 173.679 341.189 173.52 341.087C173.083 340.798 173.083 340.51 173.52 340.221C177.115 337.828 181.082 336.445 185.421 336.073C188.671 335.793 188.712 335.267 185.546 334.494L180.839 333.321C178.456 332.734 178.414 332.017 180.714 331.17C182.262 330.591 183.815 329.953 185.38 329.311C188.686 327.954 192.04 326.576 195.491 325.695C198.285 324.978 201.106 324.331 203.956 323.753C204.71 323.604 204.719 323.404 203.983 323.153C198.711 321.383 193.242 321.136 187.692 320.885C182.596 320.655 177.432 320.422 172.291 319.004C171.723 318.855 171.691 318.632 172.193 318.334C172.78 317.989 173.39 317.822 174.023 317.831C178.367 317.901 185.072 314.06 188.633 311.643C189.099 311.327 189.052 311.155 188.494 311.127C187.078 311.061 185.677 311.075 184.289 311.168C173.041 311.876 162.919 309.655 153.924 304.506C151.689 303.221 151.838 302.336 154.371 301.852C154.53 301.822 154.721 301.809 154.931 301.796C155.588 301.753 156.425 301.699 156.997 301.042C157.351 300.632 157.272 300.339 156.76 300.162C147.485 296.959 139.849 291.488 133.853 283.75C133.779 283.656 133.735 283.543 133.724 283.424C133.714 283.306 133.739 283.187 133.795 283.081C133.851 282.976 133.937 282.89 134.041 282.832C134.146 282.775 134.265 282.75 134.384 282.759C144.204 283.447 155.145 281.804 164.898 280.34L164.903 280.339C166.038 280.169 167.156 280.001 168.255 279.839C169.735 279.625 169.74 279.383 168.269 279.113C153.086 276.348 141.591 264.14 134.3 251.22C134.237 251.106 134.208 250.977 134.217 250.847C134.226 250.718 134.273 250.594 134.352 250.49C134.43 250.387 134.537 250.308 134.659 250.264C134.781 250.22 134.914 250.212 135.04 250.242C136.157 250.52 137.269 250.81 138.38 251.098C144.241 252.622 150.059 254.134 156.271 253.958C156.373 253.955 156.472 253.92 156.553 253.857C156.634 253.793 156.692 253.706 156.719 253.607C156.745 253.507 156.74 253.402 156.702 253.307C156.664 253.212 156.596 253.131 156.508 253.078C155.288 252.314 153.673 251.527 151.661 250.717C144.049 247.644 137.401 237.644 133.601 230.353C132.493 228.23 133.019 227.685 135.18 228.718C138.578 230.329 142.108 231.535 145.767 232.336C146.642 232.522 146.754 232.308 146.102 231.693C135.208 221.464 130.455 208.256 125.583 194.72L125.151 193.52C124.779 192.468 125.095 192.179 126.101 192.654C129.936 194.468 133.872 196.171 137.824 197.881C144.795 200.896 151.816 203.933 158.422 207.641C159.092 208.014 159.241 207.865 158.869 207.195C157.695 205.053 156.224 203.139 154.455 201.454C154.398 201.402 154.355 201.338 154.328 201.266C154.301 201.195 154.291 201.118 154.299 201.042C154.307 200.966 154.333 200.892 154.375 200.828C154.416 200.764 154.472 200.71 154.539 200.672C154.855 200.485 155.228 200.471 155.656 200.63C163.292 203.433 169.633 207.609 174.68 213.159C175.862 214.453 176.295 214.239 175.979 212.516C175.299 208.903 174.298 205.397 172.976 201.999C172.926 201.875 172.913 201.741 172.94 201.611C172.967 201.481 173.031 201.361 173.126 201.267C173.221 201.172 173.341 201.106 173.473 201.078C173.605 201.049 173.743 201.058 173.87 201.105C182.432 204.373 189.569 213.675 194.5 221.19C194.9 221.795 195.082 221.735 195.044 221.008ZM288.054 283.569C287.774 285.124 288.207 285.366 289.353 284.295C292.835 281.064 296.509 278.238 300.373 275.817C308.449 270.76 309.045 261.557 309.645 252.286C309.975 247.19 310.307 242.075 311.882 237.616C311.895 237.591 311.916 237.571 311.941 237.559C311.967 237.547 311.995 237.545 312.023 237.551C312.05 237.557 312.074 237.573 312.092 237.595C312.109 237.617 312.119 237.644 312.12 237.672L310.597 264.182C310.59 264.273 310.609 264.363 310.652 264.443C310.696 264.523 310.761 264.589 310.84 264.633C310.919 264.677 311.01 264.698 311.1 264.692C311.191 264.686 311.278 264.655 311.351 264.601C313.675 262.98 315.851 260.819 317.732 258.952C318.508 258.182 319.235 257.461 319.899 256.849C328.773 248.627 337.978 240.768 347.513 233.272C347.699 233.123 347.867 233.137 348.016 233.314L348.254 233.607C348.272 233.635 348.221 233.705 348.1 233.817L325.026 254.698C324.95 254.764 324.895 254.849 324.866 254.944C324.837 255.04 324.836 255.142 324.862 255.238C324.888 255.334 324.941 255.421 325.015 255.488C325.088 255.556 325.179 255.602 325.277 255.62C331.683 256.756 338.015 256.332 344.273 254.349C344.301 254.34 344.319 254.349 344.329 254.377L344.44 254.698C344.524 254.94 344.45 255.103 344.217 255.187C337.832 257.672 332.237 257.809 326.13 257.958C325.063 257.984 323.98 258.011 322.875 258.05C322.307 258.069 321.818 258.274 321.408 258.665L308.321 271.012C308.179 271.146 308.07 271.311 308.003 271.494C307.936 271.677 307.912 271.873 307.933 272.067C307.955 272.26 308.022 272.446 308.128 272.61C308.233 272.774 308.376 272.91 308.544 273.009C309.503 273.577 310.686 273.922 312.092 274.043C320.565 274.76 329.002 274.513 337.401 273.303C337.643 273.265 337.787 273.368 337.834 273.61L337.918 274.029C337.927 274.113 337.894 274.164 337.82 274.183C327.622 276.732 318.717 276.451 309.232 276.151C307.648 276.101 306.048 276.05 304.424 276.012C303.949 276.003 303.53 276.147 303.166 276.445C296.797 281.753 292.062 285.282 288.961 287.033C287.276 287.992 286.424 289.226 286.405 290.734C286.405 291.135 286.606 291.349 287.006 291.377L332.4 294.366C332.689 294.384 332.829 294.538 332.819 294.827L332.791 295.176C332.782 295.362 332.684 295.455 332.498 295.455C317.86 295.083 303.26 294.659 288.696 294.184C285.917 294.1 284.827 294.1 282.634 295.972C274.111 303.259 269.043 309.982 263.408 317.457C262.293 318.936 261.156 320.445 259.965 321.993C259.686 322.347 259.746 322.636 260.147 322.859C261.637 323.669 262.828 323.59 263.722 322.622C273.653 311.951 292.244 312.468 305.429 313.487C305.643 313.506 305.741 313.618 305.722 313.822V313.836C305.713 314.051 305.601 314.158 305.387 314.158C292.495 313.781 274.98 315.191 264.309 323.264C263.843 323.609 263.876 323.898 264.407 324.13C272.256 327.566 279.664 331.785 286.629 336.785C286.694 336.841 286.703 336.901 286.657 336.967L286.475 337.274C286.354 337.469 286.187 337.511 285.973 337.4C279.967 334.057 273.965 330.742 267.968 327.455C261.837 324.102 255.244 324.815 248.847 326.7C246.826 327.296 244.484 328.591 241.821 330.583C238.329 333.209 234.572 335.439 230.549 337.274C230.373 337.358 230.219 337.33 230.089 337.19L229.739 336.869C229.684 336.804 229.693 336.748 229.767 336.701C231.381 335.671 233.028 334.513 234.712 333.33C240.61 329.185 246.961 324.722 253.903 324.298C254.402 324.269 254.883 324.099 255.291 323.81C255.698 323.52 256.017 323.122 256.209 322.66C256.401 322.199 256.46 321.692 256.378 321.199C256.296 320.706 256.078 320.245 255.747 319.87C249.527 312.775 243.041 305.507 236.29 298.067C232.257 293.628 221.089 294.112 211.066 294.546L211.062 294.547C210.396 294.575 209.735 294.604 209.081 294.631C200.245 294.985 191.408 295.176 182.571 295.204C182.385 295.204 182.287 295.111 182.278 294.924V294.91C182.269 294.724 182.357 294.622 182.543 294.603C192.181 293.644 201.842 292.89 211.526 292.34C212.283 292.303 212.975 292.139 213.658 291.978C214.486 291.782 215.301 291.59 216.205 291.628C220.227 291.814 224.255 291.991 228.287 292.159C229.143 292.187 229.791 291.996 230.228 291.586C230.352 291.471 230.449 291.33 230.512 291.173C230.576 291.017 230.605 290.848 230.597 290.678C230.589 290.508 230.544 290.342 230.466 290.19C230.388 290.038 230.278 289.904 230.144 289.798L212.936 276.082C212.665 275.865 212.33 275.747 211.987 275.747C206.279 275.747 200.617 276.185 195.002 277.06C190.291 277.798 185.21 276.358 180.57 275.043C179.502 274.74 178.457 274.444 177.445 274.183C175.704 273.736 175.727 273.587 177.515 273.736C179.209 273.872 180.912 274.105 182.619 274.338C185.809 274.774 189.009 275.212 192.167 275.021C197.931 274.676 203.671 274.076 209.389 273.219C209.919 273.144 210.022 272.893 209.696 272.465C205.734 267.433 200.174 263.274 194.976 259.385C194.402 258.956 193.833 258.53 193.27 258.106C192.92 257.836 192.483 257.702 192.041 257.729C186.333 258.046 180.653 257.799 175.001 256.989C174.423 256.914 173.967 256.705 173.632 256.36C173.166 255.895 173.264 255.671 173.925 255.69L190.463 256.262C190.582 256.269 190.701 256.238 190.801 256.174C190.902 256.11 190.98 256.015 191.025 255.905C191.07 255.794 191.079 255.672 191.051 255.555C191.022 255.439 190.958 255.335 190.868 255.257C183.754 248.813 176.63 242.388 169.498 235.982C168.324 234.929 167.547 234.082 167.165 233.44C166.411 232.164 166.62 232.001 167.793 232.951C171.974 236.321 176.249 239.762 180.616 243.273C185.84 247.463 191.097 252.052 196.359 256.646C199.622 259.495 202.888 262.346 206.148 265.104C207.098 265.914 207.517 265.7 207.405 264.461L204.835 236.121C204.798 235.721 204.91 235.67 205.17 235.968C205.599 236.452 205.874 236.992 205.995 237.588C207.82 246.927 208.774 256.365 208.858 265.9C208.877 267.697 210.027 269.527 212.308 271.389C217.672 275.747 222.714 280.142 227.435 284.574C229.074 286.13 229.777 285.78 229.544 283.527C228.967 278.014 227.826 272.306 226.122 266.403C225.155 263.026 224.471 259.689 223.79 256.364C223.271 253.832 222.753 251.306 222.113 248.776C221.899 247.938 221.987 247.905 222.379 248.678C223.496 250.904 224.436 253.38 225.2 256.109C228.142 266.556 230.675 277.107 232.798 287.759C233.208 289.808 234.046 291.572 235.312 293.053C236.891 294.902 238.658 296.744 240.375 298.534C241.925 300.15 243.434 301.723 244.727 303.221C248.628 307.765 252.399 312.286 256.04 316.784C256.804 317.733 257.167 317.598 257.13 316.378C256.878 307.728 256.813 298.812 256.934 289.631C256.948 287.703 256.473 285.873 254.993 284.337C246.77 275.798 240.005 266.482 234.698 256.388C234.065 255.178 234.172 255.108 235.019 256.179C236.687 258.311 238.335 260.507 239.996 262.72C244.884 269.234 249.877 275.889 255.789 281.446C256.869 282.461 257.376 282.223 257.311 280.733C256.939 272.576 256.808 264.135 256.92 255.41C256.948 253.413 256.054 251.695 254.657 250.033C245.653 239.371 237.254 228.253 229.46 216.679C228.929 215.896 228.45 215.091 228.021 214.262C227.928 214.095 227.966 213.964 228.133 213.871L228.147 213.857C228.305 213.764 228.44 213.797 228.552 213.955C236.988 225.688 245.997 236.582 255.859 248.231C256.864 249.404 257.353 249.218 257.325 247.672L257.004 227.839C256.986 226.549 256.566 225.299 255.803 224.263L243.064 206.985C242.994 206.889 242.965 206.768 242.983 206.648C243.001 206.528 243.065 206.419 243.162 206.343L243.455 206.119C243.521 206.073 243.581 206.082 243.637 206.147L255.998 221.078C257.078 222.391 257.604 222.196 257.577 220.492L257.381 204.08C257.372 203.605 257.162 203.256 256.752 203.032C254.796 201.941 253.847 200.263 252.984 198.737C252.19 197.333 251.469 196.059 250.104 195.49C249.997 195.445 249.902 195.382 249.823 195.302C249.743 195.223 249.682 195.13 249.643 195.029C248.982 193.418 248.079 191.965 246.933 190.671C246.505 190.196 246.58 190.098 247.157 190.378C248.249 190.905 248.789 191.729 249.319 192.537C249.603 192.969 249.883 193.397 250.244 193.772C252.152 195.737 253.796 197.673 255.174 199.582C256.85 201.901 257.716 201.631 257.772 198.772L258.331 171.075C258.331 170.991 258.373 170.949 258.456 170.949H258.834C259.122 170.949 259.271 171.098 259.281 171.396L259.392 189.33C259.411 191.416 259.988 191.588 261.124 189.847L266.488 181.634C266.6 181.467 266.739 181.439 266.907 181.55L267.298 181.802C267.335 181.83 267.34 181.867 267.312 181.913C265.431 184.865 263.69 187.906 262.088 191.034C259.009 197.04 259.226 204.574 259.432 211.672C259.506 214.264 259.58 216.798 259.49 219.179C259.425 220.967 259.89 221.12 260.887 219.64C265.72 212.488 270.473 204.811 275.148 196.607C275.166 196.57 275.194 196.561 275.231 196.579L275.79 196.887C276.023 197.008 276.074 197.185 275.944 197.417L260.188 224.207C260.106 224.354 260.063 224.522 260.063 224.696L259.923 247.114C259.923 247.169 259.934 247.224 259.956 247.275C259.978 247.326 260.011 247.372 260.052 247.41C260.092 247.448 260.14 247.478 260.193 247.496C260.245 247.515 260.301 247.523 260.356 247.519C260.71 247.5 261.036 247.3 261.334 246.918C264.258 243.106 267.661 239.047 271.355 234.642C276.66 228.314 282.563 221.274 288.501 213.229C288.612 213.08 288.743 213.056 288.892 213.159L288.906 213.173C289.055 213.275 289.078 213.405 288.975 213.564C281.602 224.966 273.481 234.906 265.23 245.008L265.226 245.012C264.038 246.466 262.847 247.924 261.655 249.39C260.642 250.638 260.086 252.2 260.077 253.818L260.007 280.245C260.007 281.623 260.435 281.772 261.292 280.692L282.564 253.692C282.611 253.636 282.667 253.632 282.732 253.678L283.011 253.888C283.114 253.962 283.128 254.051 283.053 254.153C281.154 256.919 279.226 259.67 277.271 262.408C276.01 264.156 274.731 266.004 273.419 267.899C269.952 272.908 266.256 278.248 262.06 282.94C260.999 284.132 260.463 286.013 260.454 288.583C260.445 297.802 260.244 307.02 259.853 316.239C259.852 316.336 259.88 316.432 259.933 316.514C259.987 316.596 260.064 316.66 260.154 316.697C260.244 316.735 260.344 316.744 260.439 316.725C260.535 316.705 260.623 316.658 260.691 316.588C262.181 314.996 263.867 312.793 265.747 309.981C268.867 305.335 274.496 299.441 282.634 292.299C282.997 291.982 283.244 291.591 283.374 291.125C283.795 289.536 284.341 288.055 284.881 286.592C285.651 284.507 286.407 282.456 286.769 280.175C288.305 270.528 290.535 261.1 293.459 251.891C293.461 251.879 293.465 251.867 293.469 251.856C293.475 251.841 293.482 251.826 293.491 251.813C293.507 251.79 293.527 251.771 293.55 251.756C293.574 251.741 293.6 251.732 293.628 251.728C293.655 251.724 293.683 251.726 293.711 251.733C293.724 251.737 293.738 251.742 293.75 251.748C293.756 251.75 293.761 251.753 293.766 251.756C293.774 251.761 293.781 251.765 293.788 251.771C293.801 251.781 293.814 251.792 293.824 251.805C293.833 251.814 293.84 251.824 293.847 251.835C293.862 251.86 293.873 251.888 293.878 251.916C293.881 251.929 293.882 251.942 293.882 251.955C293.883 251.971 293.881 251.987 293.878 252.002L288.054 283.569ZM254.601 321.491C240.536 312.663 221.065 312.454 205.003 314.381C204.863 314.4 204.793 314.479 204.793 314.619V314.632C204.803 314.772 204.877 314.842 205.017 314.842C217.085 315.149 227.169 315.773 235.27 316.714C241.509 317.431 247.753 319.498 254.001 322.915C254.196 323.018 254.359 322.98 254.49 322.803L254.769 322.398C254.821 322.329 254.858 322.25 254.878 322.165C254.897 322.081 254.899 321.993 254.884 321.908C254.868 321.823 254.835 321.741 254.786 321.67C254.737 321.598 254.675 321.537 254.601 321.491Z" fill="black"/>
</svg>
