<svg width="512" height="512" viewBox="0 0 512 512" fill="none" xmlns="http://www.w3.org/2000/svg">
<rect width="512" height="512" fill="white"/>
<path d="M190.724 311.842C190.356 307.678 187.897 303.379 187.219 299.505C184.004 281.068 182.3 266.291 189.02 248.087C189.12 247.836 189.3 247.625 189.532 247.487C189.764 247.35 190.036 247.293 190.304 247.326C190.572 247.36 190.821 247.481 191.013 247.671C191.205 247.861 191.328 248.109 191.363 248.377C191.389 248.609 191.395 248.874 191.383 249.171C190.472 274.096 198.316 299.409 209.975 321.177C210.054 321.317 210.182 321.424 210.333 321.474C210.484 321.524 210.647 321.515 210.788 321.448L211.253 321.254C211.356 321.203 211.389 321.112 211.35 320.983C207.283 310.176 203.926 299.144 201.279 287.885C197.496 271.746 197.567 255.633 201.492 239.546C202.164 236.809 203.009 235.059 204.029 234.297C205.191 233.419 205.766 233.71 205.753 235.169C205.656 245.162 206.276 255.233 208.367 265.071C211.44 279.545 216.133 293.444 222.447 306.768C222.731 307.362 223.177 307.536 223.783 307.291L224.248 307.097C224.571 306.981 224.674 306.761 224.558 306.439C219.432 291.255 215.701 275.878 213.364 260.307C212.822 256.679 212.912 249.926 213.635 240.049C213.964 235.634 215.649 231.799 216.889 227.558C217.489 225.563 218.554 224.73 220.414 224.246C220.546 224.212 220.684 224.21 220.818 224.24C220.951 224.27 221.075 224.331 221.181 224.417C221.287 224.504 221.37 224.614 221.425 224.739C221.48 224.864 221.505 225 221.498 225.137C220.917 239.727 221.111 248.874 222.079 252.58C223.396 257.705 224.558 262.863 225.565 268.054C227.482 278.047 232.673 286.994 236.469 296.29C236.513 296.403 236.586 296.501 236.681 296.576C236.776 296.651 236.889 296.699 237.01 296.717C237.131 296.735 237.255 296.72 237.371 296.676C237.486 296.632 237.589 296.559 237.669 296.465C238.005 296.039 238.05 295.464 237.805 294.741C230 272.334 224.868 246.189 229.69 222.542C230.219 219.947 231.078 218.036 232.266 216.809C234.319 214.692 235.274 215.105 235.132 218.049C234.603 229.423 235.836 240.979 238.831 252.715C240.439 259.029 243.518 269.274 247.159 275.045C249.173 278.221 249.845 277.963 249.173 274.27C247.972 267.783 245.222 260.83 244.138 254.846C242.201 244.097 238.618 217.564 246.578 208.811C246.685 208.693 246.824 208.609 246.978 208.569C247.132 208.529 247.294 208.536 247.444 208.587C247.595 208.639 247.727 208.733 247.824 208.859C247.921 208.985 247.98 209.136 247.992 209.295C248.47 214.24 248.702 219.146 248.689 224.014C248.663 232.806 252.227 245.136 259.38 261.004C259.754 261.843 260.4 262.205 261.316 262.089L261.858 262.011C261.969 261.996 262.075 261.958 262.17 261.898C262.264 261.838 262.344 261.758 262.405 261.664C262.466 261.571 262.506 261.465 262.521 261.354C262.537 261.243 262.529 261.131 262.498 261.024C255.719 237.415 251.768 221.418 257.656 203.795C257.927 203.001 258.837 202.265 259.534 202.071C259.742 202.015 259.959 202.007 260.17 202.048C260.38 202.088 260.579 202.176 260.751 202.305C260.923 202.434 261.063 202.6 261.161 202.791C261.259 202.982 261.312 203.193 261.316 203.407C261.497 211.67 262.827 219.669 265.306 227.403C266.816 232.109 269.876 236.931 272.065 242.063C272.111 242.179 272.182 242.283 272.273 242.368C272.363 242.453 272.472 242.517 272.59 242.555C272.708 242.594 272.833 242.607 272.956 242.592C273.08 242.577 273.199 242.536 273.304 242.47L273.982 242.063C274.821 241.547 275.06 240.83 274.699 239.914C272.045 233.058 269.315 226.686 268.714 219.385C268.036 210.98 266.526 202.942 271.077 195.021C271.231 194.759 271.459 194.549 271.732 194.415C272.005 194.282 272.311 194.231 272.612 194.271C272.914 194.31 273.197 194.437 273.427 194.636C273.657 194.835 273.823 195.097 273.905 195.389C274.931 199.166 274.466 203.369 275.609 206.913C277.313 212.297 279.469 217.513 282.077 222.561C282.749 223.852 283.536 224.485 284.44 224.459C284.616 224.454 284.788 224.409 284.943 224.327C285.099 224.246 285.234 224.131 285.337 223.99C285.44 223.85 285.508 223.688 285.538 223.517C285.567 223.347 285.556 223.172 285.505 223.007C283.336 215.821 280.373 208.249 279.986 200.851C279.818 197.623 279.766 194.679 279.831 192.02C279.855 191.161 280.049 190.317 280.402 189.535C280.754 188.754 281.258 188.051 281.884 187.468L284.614 184.951C286.047 183.621 286.906 183.918 287.19 185.842C288.288 193.408 290.786 200.509 294.685 207.145C294.778 207.295 294.913 207.415 295.074 207.488C295.234 207.561 295.413 207.585 295.585 207.555C295.757 207.526 295.915 207.445 296.038 207.323C296.161 207.202 296.243 207.045 296.273 206.874C296.609 205.118 296.325 203.272 295.421 201.335C292.613 195.254 287.791 179.044 296.041 174.686C296.673 174.364 297.132 174.525 297.416 175.171L303.633 188.766C303.968 189.489 304.53 189.889 305.318 189.967L306.073 190.064C306.209 190.077 306.347 190.054 306.472 189.996C306.596 189.939 306.703 189.85 306.782 189.738C306.861 189.625 306.908 189.494 306.92 189.357C306.931 189.221 306.907 189.084 306.848 188.96C304.369 183.769 301.076 178.463 300.418 172.362C300.34 171.691 300.495 171.078 300.883 170.522L305.531 163.783C305.673 163.58 305.867 163.42 306.094 163.321C306.32 163.221 306.57 163.185 306.815 163.217C307.061 163.249 307.293 163.347 307.486 163.502C307.68 163.656 307.827 163.86 307.913 164.093C309.23 167.643 311.179 170.8 313.761 173.563C314.497 174.351 314.756 174.215 314.536 173.156C313.2 166.746 306.208 165.894 311.069 157.953C320.456 142.589 327.48 126.205 332.141 108.8C332.373 107.948 332.651 107.316 332.973 106.903C334.2 105.353 335.633 105.799 337.273 108.239C337.516 108.61 337.687 109.024 337.776 109.459C341.282 127.18 341.959 147.728 338.57 165.41C337.776 169.554 338.357 173.776 337.66 178.017C336.711 183.905 329.429 182.356 325.072 183.227C324.824 183.278 324.606 183.422 324.459 183.63C324.312 183.838 324.247 184.095 324.278 184.35L324.355 185.048C324.394 185.345 324.562 185.474 324.859 185.435L335.646 184.002C336.305 183.924 336.679 184.208 336.769 184.854C338.88 198.972 324.355 198.662 314.962 200.502C313.929 200.696 313.109 201.322 312.503 202.381C312.141 203.026 312.335 203.343 313.084 203.33C320.249 203.11 327.176 201.709 333.864 199.127C334.16 199.011 334.481 198.974 334.796 199.021C335.111 199.067 335.408 199.195 335.66 199.392C335.912 199.589 336.109 199.848 336.232 200.145C336.355 200.441 336.4 200.764 336.363 201.083C334.813 214.698 321.624 216.267 308.397 217.022C305.879 217.158 303.826 218.494 302.18 219.482C298.074 221.909 298.378 222.774 303.09 222.077C308.461 221.276 314.42 220.502 320.966 219.753C324.278 219.366 327.086 217.816 329.875 216.964C335.22 215.324 336.33 216.822 333.206 221.457C332.315 222.755 331.54 224.73 330.01 225.97C318.778 235.033 304.427 235.324 291.315 238.306C289.417 238.745 288.01 239.655 287.093 241.037C286.984 241.196 286.921 241.382 286.913 241.574C286.904 241.767 286.95 241.958 287.045 242.126C287.14 242.294 287.28 242.431 287.45 242.523C287.619 242.615 287.811 242.657 288.004 242.644C301.928 241.792 316.144 240.088 328.558 233.561C328.846 233.41 329.164 233.323 329.489 233.306C329.814 233.29 330.139 233.344 330.441 233.466C330.744 233.588 331.015 233.773 331.239 234.011C331.462 234.248 331.631 234.531 331.734 234.84C331.863 235.227 331.669 235.931 331.153 236.951C322.05 255.078 295.46 256.259 278.572 258.409C277.095 258.594 275.746 259.36 274.815 260.539L273.421 262.321C272.413 263.599 272.723 264.251 274.35 264.277C291.832 264.561 308.636 261.359 324.762 254.671C327.435 253.561 328.196 254.329 327.047 256.976C318.409 276.885 282.465 278.473 264.609 278.028C263.33 278.002 262.459 278.589 261.994 279.79L261.645 280.681C261.31 281.585 261.619 282.049 262.575 282.075C283.142 282.695 301.909 283.741 320.598 275.161C324.045 273.573 324.891 274.458 323.135 277.815C311.224 300.59 271.813 299.718 250.878 297.743C249.845 297.653 249.128 298.092 248.728 299.06L247.973 300.958C247.585 301.939 247.914 302.481 248.96 302.585C274.544 305.064 294.298 306.148 314.343 296.91C314.439 296.866 314.543 296.842 314.649 296.84C314.755 296.838 314.859 296.857 314.957 296.897C315.055 296.937 315.144 296.997 315.218 297.072C315.293 297.148 315.35 297.238 315.388 297.336C315.608 297.891 315.55 298.44 315.214 298.982C309.172 308.924 300.411 315.109 288.933 317.536C273.259 320.841 257.088 320.738 240.419 317.226C238.909 316.903 237.579 317.258 236.43 318.291L235.888 318.775C235.749 318.899 235.645 319.057 235.588 319.233C235.53 319.41 235.521 319.598 235.56 319.78C235.599 319.961 235.686 320.129 235.812 320.265C235.938 320.402 236.097 320.503 236.275 320.557C257.055 326.871 279.347 329.892 299.604 322.358C302.819 321.157 303.516 322.016 301.696 324.934C291.838 340.737 275.454 345.095 257.327 344.03C249.812 343.591 238.799 341.299 224.287 337.154C224.161 337.118 224.026 337.132 223.91 337.193C223.794 337.255 223.707 337.359 223.667 337.484L223.357 338.316C223.267 338.575 223.344 338.762 223.59 338.878C240.025 346.354 257.288 350.227 275.377 350.498C279.302 350.55 279.689 351.751 276.539 354.1C256.01 369.361 232.344 369.439 208.077 364.539C207.319 364.382 206.535 364.392 205.779 364.569C205.023 364.746 204.314 365.086 203.7 365.566C195.508 371.937 187.587 394.461 186.541 404.532C186.507 404.849 186.371 405.146 186.154 405.377C185.937 405.608 185.651 405.76 185.34 405.81C182.293 406.3 179.401 405.842 176.664 404.435C176.37 404.287 176.127 404.055 175.965 403.769C175.803 403.483 175.73 403.155 175.754 402.827C175.986 399.199 176.716 395.745 177.942 392.466C182.164 381.143 187.057 370.323 192.622 360.007C192.932 359.435 193.079 358.789 193.049 358.14C193.018 357.492 192.81 356.865 192.448 356.328C175.502 330.996 167.465 302.817 174.611 272.489C174.895 271.249 175.47 270.339 176.335 269.758C177.109 269.242 177.548 269.442 177.652 270.358C179.227 284.987 183.178 298.924 189.504 312.171C189.566 312.311 189.675 312.425 189.813 312.491C189.951 312.557 190.108 312.571 190.256 312.531C190.403 312.491 190.532 312.4 190.618 312.273C190.704 312.147 190.741 311.994 190.724 311.842Z" fill="black"/>
</svg>
