<svg width="512" height="512" viewBox="0 0 512 512" fill="none" xmlns="http://www.w3.org/2000/svg">
<rect width="512" height="512" fill="white"/>
<path d="M110.55 281.592L110.553 281.592L289.148 281.458C289.491 281.458 289.831 281.527 290.147 281.661C290.462 281.795 290.748 281.992 290.988 282.239C291.227 282.486 291.415 282.779 291.541 283.1C291.668 283.42 291.73 283.763 291.724 284.108C291.724 284.108 291.724 284.108 291.724 284.109L291.323 312.935V312.936C291.306 314.331 291.688 315.701 292.423 316.887C293.158 318.073 294.217 319.024 295.474 319.63C296.731 320.235 298.135 320.469 299.52 320.305C300.905 320.141 302.215 319.585 303.295 318.703C303.296 318.703 303.296 318.703 303.296 318.702L110.55 281.592ZM110.55 281.592C109.579 281.599 108.643 281.22 107.947 280.535C107.251 279.85 106.851 278.915 106.835 277.933C106.835 277.933 106.835 277.932 106.835 277.932L106.5 240.938C106.5 240.938 106.5 240.938 106.5 240.938C106.492 239.865 106.695 238.8 107.098 237.806C107.501 236.811 108.096 235.906 108.849 235.141C109.602 234.376 110.498 233.767 111.487 233.349C112.475 232.931 113.536 232.711 114.609 232.703H114.609L289.751 231.23C289.752 231.23 289.753 231.23 289.753 231.23C290.068 231.23 290.378 231.166 290.667 231.044C290.957 230.921 291.219 230.741 291.438 230.514C291.656 230.287 291.827 230.019 291.939 229.725C292.051 229.432 292.104 229.119 292.092 228.804M110.55 281.592L397.839 246.175M397.839 246.175C364.324 229.295 331.814 211.32 300.307 192.251L300.306 192.251C299.63 191.84 298.869 191.59 298.081 191.52C297.292 191.45 296.498 191.563 295.761 191.849C295.023 192.136 294.361 192.588 293.826 193.171C293.291 193.754 292.898 194.452 292.676 195.211L292.675 195.213C291.175 200.275 290.946 205.994 291.138 211.804C291.234 214.686 291.432 217.58 291.626 220.421L291.63 220.481C291.826 223.337 292.017 226.14 292.092 228.804M397.839 246.175C400.866 247.722 403.031 249.324 404.376 250.968L397.839 246.175ZM292.092 228.804C292.092 228.805 292.092 228.806 292.093 228.807L291.593 228.821L292.092 228.803C292.092 228.803 292.092 228.804 292.092 228.804Z" fill="white" stroke="black"/>
<path d="M303.949 230.837L303.949 230.836L303.939 230.838C303.873 230.848 303.805 230.843 303.741 230.822C303.677 230.802 303.618 230.767 303.57 230.719C303.521 230.672 303.484 230.615 303.462 230.552C303.439 230.488 303.432 230.42 303.44 230.353L303.44 230.35C304.115 224.361 303.834 218.417 302.596 212.518C302.572 212.388 302.588 212.251 302.642 212.128C302.696 212.004 302.786 211.902 302.897 211.834C303.007 211.767 303.132 211.738 303.254 211.748C303.376 211.758 303.492 211.806 303.586 211.888L303.586 211.888L303.591 211.892C311.656 218.725 320.359 224.538 329.702 229.333L329.923 228.903L329.702 229.333C330.968 229.983 331.877 230.513 332.447 230.927C332.655 231.078 332.804 231.204 332.906 231.306C332.766 231.328 332.573 231.343 332.319 231.345C331.618 231.349 330.572 231.25 329.167 231.039C320.817 229.782 312.41 229.714 303.949 230.837ZM333.058 231.494C333.058 231.494 333.056 231.491 333.055 231.486C333.057 231.491 333.058 231.494 333.058 231.494ZM333.132 231.246C333.136 231.243 333.139 231.241 333.139 231.242C333.14 231.242 333.137 231.243 333.132 231.246Z" fill="black" stroke="black"/>
<path d="M124.526 248.645L120.779 248.813C120.297 248.828 119.939 248.787 119.686 248.71C119.437 248.634 119.324 248.534 119.27 248.449C119.217 248.366 119.176 248.226 119.214 247.977C119.254 247.723 119.373 247.39 119.598 246.971L119.598 246.971L119.599 246.97C119.829 246.539 120.086 246.277 120.354 246.132C120.617 245.99 120.934 245.937 121.334 246.005C122.167 246.147 123.288 246.804 124.713 248.107L124.714 248.108C124.932 248.307 125.063 248.459 125.132 248.568C125.012 248.604 124.818 248.635 124.531 248.645L124.531 248.645L124.526 248.645ZM125.181 248.666C125.181 248.666 125.181 248.665 125.18 248.663C125.181 248.665 125.181 248.666 125.181 248.666ZM125.231 248.527C125.232 248.525 125.234 248.524 125.234 248.525C125.234 248.525 125.233 248.525 125.231 248.527Z" fill="black" stroke="black"/>
<path d="M141.129 255.14L141.131 255.141C141.189 255.184 141.241 255.223 141.287 255.26C141.223 255.267 141.151 255.271 141.071 255.275C137.617 255.382 134.708 254.381 132.311 252.284L132.311 252.284L132.309 252.282C132.1 252.102 131.954 251.954 131.858 251.838C132.011 251.826 132.224 251.828 132.506 251.853C135.674 252.157 138.546 253.251 141.129 255.14Z" fill="black" stroke="black"/>
<path d="M260.023 270.443C257.886 270.567 255.368 270.832 252.683 271.113L252.545 271.128C249.803 271.416 246.887 271.72 243.997 271.916C238.194 272.31 232.596 272.256 228.792 270.81C227.53 270.316 226.256 270.343 225 270.884C220.986 272.598 216.895 272.751 212.702 271.339C211.545 270.939 210.301 270.852 209.097 271.087L209.092 271.088C204.153 272.107 199.172 272.517 194.145 272.317C175.579 271.535 157.024 271.714 138.481 272.854L138.479 272.854C136.035 273.015 133.369 272.771 130.548 272.513C129.908 272.454 129.26 272.395 128.605 272.34C125.089 272.042 121.398 271.86 117.793 272.56C117.43 272.627 117.3 272.558 117.261 272.526C117.226 272.496 117.138 272.386 117.147 272.027H117.147L117.147 272.021L117.415 254.913C117.415 254.913 117.415 254.913 117.415 254.913C117.425 254.377 117.563 254.125 117.704 254.007C117.845 253.89 118.115 253.801 118.637 253.89C123.838 254.823 128.905 256.079 133.838 257.657C135.035 258.045 135.9 258.384 136.45 258.672C136.658 258.781 136.805 258.874 136.904 258.95C136.791 258.997 136.628 259.048 136.406 259.097C135.804 259.231 134.886 259.332 133.632 259.393L133.629 259.394L131.188 259.527C130.21 259.567 129.356 259.3 128.604 258.726C126.01 256.717 123 255.997 119.613 256.553L119.613 256.553L119.607 256.555C119.174 256.632 118.797 256.742 118.502 256.902C118.205 257.063 117.941 257.303 117.841 257.654C117.741 258.005 117.838 258.349 118.003 258.642C118.168 258.935 118.429 259.229 118.754 259.525C120.055 260.723 121.821 260.995 123.931 260.479L123.932 260.479C124.779 260.27 125.368 260.317 125.765 260.516C126.144 260.705 126.442 261.08 126.608 261.752C126.738 262.298 126.988 262.76 127.386 263.09C127.784 263.421 128.284 263.581 128.845 263.607L128.845 263.607L128.851 263.607C132.72 263.745 136.122 262.601 139.032 260.177C139.226 260.016 139.45 259.894 139.69 259.819C139.931 259.744 140.182 259.717 140.431 259.739C140.68 259.761 140.921 259.832 141.139 259.947C141.358 260.062 141.55 260.219 141.706 260.409C141.707 260.41 141.707 260.41 141.707 260.411L142.542 261.446L142.542 261.446L142.549 261.454C142.639 261.561 142.707 261.685 142.748 261.819C142.789 261.954 142.802 262.095 142.788 262.234C142.773 262.373 142.73 262.508 142.662 262.631C142.594 262.752 142.502 262.859 142.393 262.945C138.03 266.237 133.066 267.643 127.472 267.163C127.043 267.125 126.573 267.182 126.262 267.527C125.949 267.875 125.946 268.349 126.036 268.769L126.035 268.769L126.038 268.78L126.3 269.893C126.325 270.064 126.395 270.254 126.558 270.401C126.731 270.557 126.941 270.604 127.121 270.605C133.667 270.739 140.046 269.873 146.256 268.006C147.758 267.555 148.988 267.519 149.977 267.836L149.985 267.838L149.992 267.84C150.557 268.001 151.082 268.264 151.571 268.63L151.571 268.63L151.577 268.635C152.571 269.355 153.698 269.655 154.934 269.531L154.937 269.531C161.761 268.81 168.193 266.907 174.23 263.82L174.231 263.82C174.294 263.787 174.365 263.776 174.435 263.786C174.505 263.796 174.57 263.828 174.62 263.877C174.671 263.927 174.705 263.99 174.717 264.06C174.73 264.129 174.72 264.201 174.69 264.265L174.688 264.268C174.313 265.07 173.8 265.643 173.158 266.014C172.513 266.387 171.703 266.578 170.703 266.558C170.368 266.546 170.038 266.648 169.769 266.848C169.498 267.05 169.305 267.338 169.222 267.665C169.139 267.992 169.17 268.338 169.312 268.645C169.452 268.948 169.691 269.195 169.991 269.344C170.796 269.771 171.66 269.804 172.541 269.467L172.541 269.467L172.546 269.465C175.411 268.328 178.372 267.771 181.432 267.792H181.436C182.386 267.792 183.25 268.054 184.038 268.579L184.039 268.579C185.603 269.619 187.206 270.139 188.838 270.103C190.469 270.066 192.083 269.476 193.674 268.373L193.676 268.372C194.432 267.843 195.231 267.738 196.132 268.064L196.133 268.064C199.733 269.357 203.301 269.253 206.81 267.753C207.672 267.389 208.479 267.437 209.279 267.894L209.283 267.896C214.453 270.791 219.772 270.892 225.183 268.21C225.647 267.983 226.16 267.88 226.672 267.91C227.184 267.94 227.677 268.102 228.104 268.38C231.021 270.294 233.991 270.616 236.953 269.289C237.793 268.913 238.589 268.566 239.207 268.305C239.516 268.175 239.769 268.071 239.958 267.997C240.053 267.96 240.13 267.931 240.188 267.91C240.217 267.9 240.24 267.892 240.258 267.886C240.259 267.886 240.261 267.885 240.262 267.885C241.969 267.684 243.528 268.02 244.96 268.891L244.965 268.895C246.203 269.628 247.498 269.68 248.788 269.047L248.791 269.045C249.857 268.512 250.898 268.302 251.922 268.393C252.947 268.484 253.987 268.881 255.046 269.612C255.547 269.962 256.153 270.133 256.764 270.096C257.375 270.058 257.956 269.815 258.411 269.405L258.412 269.405C259.623 268.31 260.829 267.758 262.034 267.683C263.238 267.608 264.51 268.006 265.861 268.942L265.867 268.946C266.448 269.338 267.058 269.54 267.684 269.49C268.31 269.44 268.882 269.143 269.398 268.665C270.702 267.462 272.368 266.967 274.456 267.22L274.463 267.22C274.691 267.245 274.905 267.339 275.077 267.49C275.248 267.641 275.369 267.842 275.422 268.064C275.475 268.287 275.458 268.52 275.373 268.733C275.288 268.945 275.139 269.126 274.948 269.25L274.947 269.25L274.937 269.257C272.505 270.926 269.947 271.176 267.402 271.025C266.411 270.966 265.437 270.847 264.471 270.73C264.188 270.695 263.906 270.661 263.624 270.628C262.393 270.485 261.175 270.373 260.023 270.443ZM260.023 270.443C260.023 270.443 260.023 270.443 260.023 270.443L260.052 270.942M260.023 270.443C260.022 270.443 260.022 270.443 260.022 270.443L260.052 270.942M260.052 270.942C257.927 271.066 255.419 271.329 252.728 271.612C244.481 272.478 234.519 273.524 228.612 271.277M260.052 270.942C261.405 270.86 262.871 271.038 264.401 271.225C267.869 271.647 271.665 272.109 275.22 269.67L228.612 271.277M228.612 271.277C227.474 270.83 226.336 270.853 225.197 271.344C221.068 273.107 216.849 273.263 212.541 271.813L228.612 271.277ZM137.043 259.084C137.043 259.084 137.042 259.082 137.04 259.079C137.043 259.082 137.044 259.084 137.043 259.084ZM137.069 258.862C137.072 258.859 137.073 258.858 137.074 258.858C137.074 258.858 137.073 258.86 137.069 258.862Z" fill="black" stroke="black"/>
<path d="M160.718 256.385L160.718 256.385L160.708 256.384C157.767 255.996 154.869 256.167 152.017 256.896C151.885 256.928 151.745 256.909 151.626 256.841C151.507 256.774 151.418 256.663 151.377 256.532L151.378 256.532L151.374 256.52L151.2 255.998C155.553 254.155 159.604 254.358 163.404 256.575L163.404 256.575L163.407 256.576C164.215 257.041 165.141 257.241 166.052 257.142C169.565 256.781 173.062 256.692 176.543 256.878C174.098 257.119 171.674 257.689 169.273 258.587L169.272 258.588C168.15 259.011 167.141 259.14 166.233 259.005C165.329 258.87 164.493 258.468 163.721 257.779L163.721 257.779L163.715 257.773C162.841 257.021 161.84 256.556 160.718 256.385ZM181.309 257.303C182.84 257.495 184.367 257.741 185.892 258.04C186.135 258.088 186.324 258.137 186.467 258.185C186.338 258.255 186.165 258.334 185.942 258.422C184.591 258.938 183.357 258.756 182.175 257.856C181.897 257.64 181.608 257.456 181.309 257.303Z" fill="black" stroke="black"/>
<path d="M148.523 259.391L148.113 259.678L148.113 259.678L148.113 259.678L148.113 259.678L148.113 259.678L148.114 259.679L148.117 259.683L148.128 259.699L148.172 259.761L148.345 260.01C149.591 261.842 151.048 263.126 152.728 263.813C154.279 264.448 155.982 264.558 157.816 264.171C156.92 265.213 155.774 265.736 154.345 265.755C153.341 265.754 152.498 265.405 151.789 264.696C150.625 263.532 149.215 262.942 147.585 262.942C147.133 262.942 146.915 262.829 146.807 262.711C146.699 262.594 146.606 262.365 146.643 261.916C146.78 260.626 147.288 259.665 148.164 258.991C148.135 259.049 148.105 259.108 148.075 259.167L147.942 259.434L148.113 259.678L148.523 259.391Z" fill="black" stroke="black"/>
<path d="M200.173 262.482L200.169 262.49L195.399 259.921L195.399 259.921L195.398 259.921C195.342 259.891 195.289 259.862 195.238 259.834C195.303 259.84 195.372 259.847 195.443 259.854L195.443 259.854L195.448 259.855C196.229 259.931 196.878 260.161 197.549 260.439C197.685 260.495 197.824 260.554 197.965 260.615C198.508 260.847 199.094 261.097 199.748 261.278C200.022 261.357 200.288 261.465 200.544 261.602C200.567 261.615 200.582 261.627 200.593 261.635C200.589 261.646 200.584 261.66 200.575 261.678L200.374 262.08L200.173 262.482Z" fill="black" stroke="black"/>
<path d="M214.552 265.25C213.368 263.935 211.966 262.764 210.347 261.735C211.113 261.836 211.898 261.89 212.701 261.899L212.701 261.899H212.707C213.63 261.899 214.397 262.208 215.038 262.83L215.038 262.83L215.043 262.835C215.856 263.599 216.823 264.057 217.93 264.205C218.535 264.289 219.151 264.241 219.735 264.064C220.319 263.887 220.857 263.585 221.31 263.179C222.985 261.69 224.891 261.269 227.092 261.911C227.166 261.935 227.233 261.985 227.28 262.054C227.327 262.123 227.347 262.203 227.34 262.278C227.334 262.352 227.303 262.416 227.256 262.462C227.21 262.508 227.146 262.537 227.075 262.541L227.063 262.542L227.051 262.543C223.463 262.929 220.044 263.963 216.799 265.642C216.422 265.832 215.997 265.895 215.592 265.823C215.186 265.751 214.821 265.549 214.552 265.25L214.552 265.25Z" fill="black" stroke="black"/>
<path d="M268.102 265.592L268.102 265.593L268.107 265.602C268.142 265.675 268.155 265.757 268.143 265.837C268.131 265.918 268.096 265.993 268.041 266.052C267.986 266.112 267.914 266.154 267.835 266.172C267.756 266.191 267.674 266.185 267.598 266.156L267.598 266.156L267.587 266.152C265.742 265.488 264.686 264.33 264.324 262.668C264.314 262.616 264.304 262.566 264.295 262.518C264.315 262.541 264.335 262.565 264.355 262.59L264.355 262.59L264.36 262.595C264.578 262.85 264.701 263.106 264.75 263.366L264.75 263.366L264.752 263.376C264.824 263.72 264.981 264.046 265.284 264.255C265.587 264.464 265.945 264.494 266.29 264.438C266.716 264.375 267.049 264.444 267.324 264.613C267.606 264.786 267.873 265.094 268.102 265.592Z" fill="black" stroke="black"/>
<path d="M335.311 262.724L335.311 262.725L320.65 272.499C320.611 272.524 320.585 272.534 320.571 272.538C320.561 272.53 320.543 272.514 320.52 272.484L320.043 271.823C324.821 268.179 329.839 264.884 335.095 261.937C335.292 261.828 335.374 261.835 335.389 261.838C335.4 261.846 335.472 261.904 335.538 262.156C335.562 262.261 335.554 262.372 335.514 262.474C335.474 262.576 335.403 262.664 335.311 262.724ZM320.558 272.541C320.558 272.541 320.559 272.541 320.561 272.541L320.558 272.541ZM335.392 261.839C335.392 261.839 335.392 261.839 335.391 261.839L335.392 261.839Z" fill="black" stroke="black"/>
<path d="M321.443 262.934C321.384 263.009 321.313 263.094 321.231 263.187C320.785 263.687 320.061 264.362 319.073 265.185C317.1 266.826 314.292 268.874 311.266 270.877C308.239 272.881 305.257 274.665 302.975 275.839C301.832 276.428 300.927 276.831 300.293 277.045C300.175 277.085 300.07 277.117 299.977 277.142C300.037 277.067 300.107 276.983 300.19 276.889C300.635 276.389 301.359 275.714 302.348 274.891C304.32 273.25 307.128 271.202 310.155 269.199C313.181 267.196 316.164 265.411 318.445 264.237C319.589 263.648 320.493 263.245 321.128 263.031C321.246 262.991 321.351 262.959 321.443 262.934Z" fill="black" stroke="black"/>
<path d="M292.914 263.162C289.014 265.489 285.309 268.087 281.799 270.957L281.799 270.957L281.794 270.961C280.217 272.282 278.795 272.68 277.489 272.334L277.489 272.334L277.481 272.332C276.981 272.208 276.639 272.078 276.428 271.953C276.285 271.869 276.24 271.811 276.227 271.79C276.234 271.766 276.263 271.698 276.379 271.58C276.551 271.406 276.848 271.193 277.299 270.946C277.299 270.946 277.299 270.946 277.3 270.945L292.353 262.783C292.395 262.764 292.442 262.758 292.487 262.765C292.531 262.772 292.573 262.792 292.606 262.822L292.914 263.162Z" fill="black" stroke="black"/>
<path d="M305.61 263.789C305.61 263.789 305.61 263.79 305.61 263.792C305.61 263.79 305.61 263.789 305.61 263.789ZM305.593 263.854C305.594 263.854 305.594 263.854 305.595 263.854C305.595 263.855 305.595 263.855 305.594 263.856C305.562 263.95 305.484 264.095 305.333 264.291C305.033 264.681 304.515 265.183 303.778 265.775C302.31 266.953 300.172 268.322 297.834 269.576C295.496 270.829 293.172 271.852 291.379 272.423C290.478 272.71 289.774 272.863 289.283 272.897C289.035 272.915 288.872 272.9 288.776 272.874C288.775 272.874 288.774 272.874 288.774 272.874C288.774 272.873 288.774 272.872 288.774 272.872C288.806 272.777 288.884 272.633 289.036 272.437C289.336 272.047 289.853 271.544 290.59 270.953C292.059 269.775 294.196 268.406 296.534 267.152C298.872 265.899 301.196 264.876 302.989 264.305C303.89 264.018 304.595 263.865 305.086 263.83C305.333 263.813 305.497 263.828 305.593 263.854ZM288.758 272.936C288.758 272.938 288.758 272.939 288.758 272.939C288.758 272.939 288.758 272.938 288.758 272.936ZM288.711 272.85C288.711 272.85 288.712 272.851 288.713 272.852C288.711 272.851 288.711 272.85 288.711 272.85ZM305.656 263.876C305.657 263.877 305.658 263.877 305.658 263.877C305.658 263.877 305.657 263.877 305.656 263.876Z" fill="black" stroke="black"/>
<path d="M341.19 266.983L341.19 266.983L304.128 292.741L304.128 292.741C304.04 292.802 303.931 292.826 303.826 292.807C303.72 292.788 303.626 292.728 303.565 292.64L303.03 291.87C303 291.826 302.978 291.777 302.967 291.726C302.956 291.674 302.955 291.621 302.965 291.568C302.974 291.515 302.994 291.465 303.022 291.421C303.05 291.377 303.088 291.338 303.132 291.308L303.132 291.308L340.194 265.549L339.909 265.139L340.194 265.549C340.282 265.488 340.39 265.464 340.496 265.483C340.601 265.502 340.694 265.562 340.756 265.65C340.756 265.65 340.756 265.65 340.756 265.65L341.291 266.42C341.321 266.464 341.343 266.513 341.354 266.565C341.365 266.617 341.366 266.671 341.357 266.722C341.347 266.774 341.328 266.824 341.299 266.869C341.27 266.914 341.233 266.952 341.19 266.983Z" fill="black" stroke="black"/>
<path d="M302.656 300.076L302.656 300.076L357.918 265.811C357.918 265.811 357.918 265.811 357.918 265.811C358.009 265.755 358.074 265.665 358.098 265.56C358.123 265.456 358.105 265.346 358.049 265.255C358.049 265.255 358.049 265.255 358.049 265.255L357.625 264.572L358.021 264.327L357.625 264.572C357.598 264.528 357.561 264.488 357.517 264.457C357.474 264.426 357.425 264.404 357.374 264.392C357.322 264.38 357.269 264.378 357.216 264.386C357.164 264.395 357.114 264.414 357.069 264.442L357.069 264.442L301.806 298.706C301.806 298.706 301.806 298.706 301.806 298.706C301.715 298.762 301.65 298.853 301.626 298.957C301.601 299.061 301.619 299.171 301.676 299.262L302.656 300.076ZM302.656 300.076C302.61 300.104 302.56 300.122 302.508 300.131C302.456 300.14 302.402 300.138 302.351 300.126C302.299 300.113 302.25 300.091 302.207 300.06C302.164 300.03 302.128 299.99 302.1 299.945L302.099 299.945L301.676 299.262L302.656 300.076Z" fill="black" stroke="black"/>
<path d="M302.513 284.366C305.982 280.608 310.077 277.692 314.802 275.618L303.047 286.204C303.038 286.211 303.03 286.218 303.023 286.224C303.015 286.209 303.006 286.192 302.997 286.172L302.997 286.172L302.996 286.169L302.428 284.933C302.371 284.805 302.363 284.709 302.374 284.636C302.386 284.563 302.421 284.474 302.513 284.366Z" fill="black" stroke="black"/>
<path d="M317.496 226.604C317.562 226.721 317.601 226.812 317.624 226.88C317.552 226.879 317.453 226.87 317.322 226.844C316.938 226.768 316.393 226.575 315.699 226.25C314.318 225.602 312.56 224.528 310.817 223.261L310.523 223.666L310.817 223.261C309.955 222.635 309.127 221.983 308.379 221.344C307.63 220.703 306.981 220.091 306.466 219.541C305.947 218.987 305.591 218.526 305.399 218.182C305.334 218.064 305.294 217.973 305.272 217.906C305.343 217.906 305.442 217.916 305.574 217.941C305.957 218.017 306.503 218.21 307.197 218.536C308.578 219.184 310.335 220.257 312.079 221.524L312.361 221.136L312.079 221.524C312.941 222.15 313.77 222.802 314.517 223.442C315.266 224.082 315.915 224.695 316.43 225.244C316.949 225.798 317.304 226.259 317.496 226.604Z" fill="white" stroke="black"/>
<path d="M125.689 265.443V265.443C125.688 265.518 125.655 265.635 125.507 265.788C125.356 265.943 125.11 266.108 124.759 266.256C124.411 266.404 123.987 266.524 123.509 266.606C123.031 266.688 122.516 266.729 121.994 266.725L121.994 266.725C120.933 266.718 119.941 266.528 119.237 266.218C118.885 266.063 118.643 265.895 118.495 265.739C118.35 265.586 118.318 265.468 118.318 265.392L118.318 265.392C118.319 265.316 118.352 265.199 118.5 265.047C118.651 264.892 118.897 264.727 119.248 264.579C119.596 264.431 120.02 264.311 120.498 264.229C120.976 264.147 121.491 264.106 122.013 264.109L122.013 264.109C123.074 264.117 124.066 264.307 124.771 264.617C125.122 264.772 125.365 264.94 125.512 265.096C125.657 265.249 125.689 265.367 125.689 265.443Z" fill="white" stroke="black"/>
</svg>
