<svg width="512" height="512" viewBox="0 0 512 512" fill="none" xmlns="http://www.w3.org/2000/svg">
<rect width="512" height="512" fill="white"/>
<path d="M167.089 321.927C187.872 317.498 209.942 324.166 224.441 339.531C225.669 340.826 226.667 342.269 227.434 343.861C227.83 344.694 227.665 344.826 226.94 344.257C226.086 343.589 225.455 342.389 224.75 341.758C210.301 328.855 188.441 321.061 169.069 326.418C166.726 327.061 165.415 326.517 165.135 324.785C165.028 324.148 165.173 323.495 165.537 322.963C165.901 322.43 166.457 322.059 167.089 321.927Z" fill="black"/>
<path d="M305.693 326.442C317.148 321.358 332.909 318.006 344.847 322.323C345.258 322.469 345.598 322.768 345.796 323.159C345.994 323.551 346.035 324.004 345.91 324.426L345.787 324.859C345.617 325.423 345.234 325.898 344.718 326.183C344.202 326.467 343.595 326.538 343.028 326.381C322.554 320.665 299.606 329.374 285.231 343.873C285 344.104 284.802 344.079 284.638 343.799L284.477 343.527C284.452 343.485 284.456 343.444 284.489 343.403C289.578 336.112 296.645 330.459 305.693 326.442Z" fill="black"/>
<path d="M185.596 331.354C191.126 329.634 200.936 328.793 206.119 332.578C206.367 332.76 206.338 332.834 206.033 332.801C191.385 331.209 179.241 335.906 169.6 346.892C167.943 348.788 166.87 350.982 166.384 353.473C166.304 353.858 166.1 354.21 165.802 354.475C164.227 355.836 162.668 355.799 161.126 354.364C160.671 353.931 160.376 353.357 160.29 352.736C160.205 352.116 160.334 351.485 160.656 350.949C166.503 341.217 174.817 334.686 185.596 331.354Z" fill="black"/>
<path d="M305.297 332.244C323.94 326.826 340.925 334.162 350.945 350.628C352.067 352.467 351.671 353.885 349.758 354.883L349.226 355.155C348.704 355.428 348.098 355.489 347.532 355.328C346.966 355.167 346.483 354.795 346.183 354.289C344.785 351.927 344.451 349.601 342.867 347.696C333.671 336.611 321.622 331.758 306.719 333.135C306.043 333.201 305.536 333.007 305.198 332.554C305.179 332.528 305.166 332.499 305.16 332.467C305.155 332.436 305.157 332.404 305.167 332.373C305.176 332.343 305.193 332.315 305.216 332.293C305.239 332.27 305.266 332.254 305.297 332.244Z" fill="black"/>
<path d="M215.534 361.885C218.008 368.936 229.389 358.854 221.237 349.823C209.954 337.329 189.406 343.712 183.691 358.458C183.221 359.662 182.978 362.615 182.961 367.316C182.953 368.916 182.165 369.559 180.598 369.246L179.745 369.073C177.955 368.718 177.155 367.633 177.345 365.819C179.101 349.564 191.893 337.119 208.358 339.605C213.538 340.397 218.35 343.077 222.795 347.646C229.055 354.091 229.154 368.145 217.624 367.959C209.014 367.823 208.989 353.015 217.847 354.339C218.861 354.487 219.509 355.056 219.789 356.046L219.999 356.801C220.321 357.939 219.896 358.409 218.725 358.211C216.4 357.815 214.742 359.621 215.534 361.885Z" fill="black"/>
<path d="M295.635 359.052L292.678 358.211C292.225 358.087 291.944 357.799 291.837 357.345C291.763 356.999 291.804 356.615 291.961 356.194C293.297 352.78 298.381 354.772 299.705 357.036C306.2 368.169 286.901 372.648 284.885 360.264C283.079 349.168 294.918 340.508 304.53 339.618C321.552 338.034 333.255 350.145 334.529 366.289C334.661 368.013 333.865 368.965 332.142 369.147L331.523 369.209C329.882 369.374 328.97 368.635 328.789 366.994C328.529 364.767 328.913 362.603 328.368 360.574C326.554 353.861 322.806 349.007 317.123 346.013C308.662 341.56 295.153 342.661 289.462 351.32C286.889 355.23 286.897 358.99 289.487 362.603C291.478 365.361 297.28 364.656 296.526 360.054C296.435 359.535 296.138 359.201 295.635 359.052Z" fill="black"/>
<path fill-rule="evenodd" clip-rule="evenodd" d="M151.242 183.98C149.568 193.736 149.391 203.513 150.71 213.311C150.776 213.797 150.566 214.033 150.079 214.016C141.148 213.793 132.294 214.569 123.519 216.342C123.334 216.377 123.169 216.479 123.053 216.63C122.937 216.78 122.878 216.967 122.888 217.158C123.507 227.117 124.744 237.261 128.925 246.378C129.115 246.799 128.983 247.063 128.529 247.17C121.041 248.819 113.726 251.042 106.583 253.838C106.386 253.915 106.221 254.058 106.117 254.243C106.013 254.428 105.977 254.643 106.014 254.852C107.029 260.353 107.449 265.904 107.276 271.503C107.27 271.771 107.351 272.032 107.507 272.249C107.664 272.466 107.887 272.625 108.142 272.703C114.521 274.616 121.327 277.099 127.629 279.398C131.275 280.728 134.753 281.997 137.882 283.058C141.642 284.328 145.403 285.619 149.164 286.93C152.838 288.207 156.707 289.812 160.66 291.45L160.661 291.451C164.402 293.001 168.218 294.583 172.013 295.948C172.169 296.006 172.311 296.094 172.431 296.209C172.551 296.323 172.646 296.461 172.71 296.613C172.774 296.765 172.806 296.929 172.803 297.093C172.8 297.258 172.763 297.42 172.693 297.569C167.06 309.758 157.403 314.756 143.721 312.562C138.005 311.635 133.119 307.33 134.678 301.317C135.263 299.066 136.834 297.519 139.391 296.678C143.535 295.293 145.156 300.921 142.743 303.457C142.414 303.804 142.018 303.907 141.556 303.767L138.463 302.789C138.347 302.754 138.224 302.747 138.104 302.768C137.985 302.79 137.872 302.84 137.775 302.913C137.678 302.987 137.601 303.083 137.548 303.192C137.496 303.302 137.47 303.423 137.473 303.544C137.659 310.843 146.38 307.775 147.556 302.035C149.832 290.864 135.482 290.06 131.672 298.41C129.585 302.987 130.22 307.292 133.577 311.325C138.067 316.719 146.343 317.338 153.184 316.546C163.613 315.321 172.928 308.802 176.59 298.67C176.633 298.552 176.701 298.445 176.79 298.356C176.879 298.267 176.986 298.199 177.104 298.156C177.222 298.114 177.348 298.098 177.473 298.11C177.598 298.121 177.719 298.161 177.827 298.225C187.147 303.783 196.445 309.445 205.724 315.21C214.196 320.469 223.152 326.453 232.117 332.443C237.197 335.837 242.279 339.233 247.277 342.5C247.772 342.822 247.97 343.275 247.871 343.861C247.038 348.669 247.962 352.219 250.642 354.512C257.793 360.648 268.827 352.446 264.696 344.121C264.586 343.906 264.56 343.658 264.621 343.423C264.682 343.189 264.828 342.984 265.03 342.846C282.044 331.473 299.169 320.319 316.406 309.383C322.294 305.647 328.22 302.192 334.183 299.016C334.843 298.662 335.325 298.827 335.63 299.511C340.158 309.292 347.725 315.004 358.331 316.645C366.953 317.981 380.042 314.678 381.031 304.286C381.6 298.225 377.073 292.843 371.085 292.658C361.263 292.373 361.188 306.439 369.774 307.614C372.904 308.047 374.203 305.239 373.547 302.53C373.528 302.451 373.49 302.378 373.435 302.318C373.38 302.258 373.311 302.214 373.233 302.189C373.156 302.164 373.074 302.16 372.994 302.176C372.915 302.192 372.841 302.229 372.78 302.282L371.419 303.42C371.269 303.544 371.093 303.633 370.904 303.68C370.716 303.727 370.52 303.731 370.33 303.692C366.384 302.864 366.768 297.495 370.083 296.567C372.941 295.763 376.157 298.757 376.85 301.33C378.903 308.901 369.192 313.008 363.304 313.082C353.374 313.206 346.001 309.288 341.185 301.33C341.005 301.033 340.812 300.741 340.62 300.447C339.912 299.37 339.192 298.276 339.007 296.876C338.975 296.637 339.024 296.394 339.147 296.186C339.271 295.977 339.461 295.815 339.688 295.726L401.938 271.936C402.375 271.772 402.821 271.722 403.274 271.788C403.596 271.838 403.905 271.833 404.202 271.776C404.697 271.685 404.928 271.388 404.895 270.885C404.474 265.351 404.837 259.879 405.983 254.469C406.024 254.267 405.99 254.059 405.887 253.883C405.784 253.707 405.62 253.576 405.427 253.516L384.409 246.663C384.362 246.648 384.32 246.624 384.284 246.591C384.248 246.558 384.219 246.518 384.201 246.474C384.182 246.429 384.173 246.381 384.175 246.332C384.176 246.284 384.189 246.236 384.211 246.193C388.243 237.669 389.246 226.152 389.27 216.898C389.271 216.727 389.212 216.56 389.104 216.427C388.996 216.294 388.845 216.203 388.676 216.169C380.017 214.321 371.271 213.624 362.438 214.078C362.124 214.094 361.988 213.946 362.03 213.633C363.043 206.387 362.496 199.474 361.94 192.434C361.728 189.762 361.516 187.072 361.386 184.338C361.362 183.951 361.16 183.744 360.78 183.72C351.667 183.076 342.698 183.909 333.873 186.219C333.502 186.309 333.313 186.165 333.304 185.786C333.069 176.409 328.381 165.411 324.645 156.825C324.571 156.661 324.444 156.526 324.287 156.445C324.129 156.364 323.949 156.341 323.779 156.38C318.105 157.576 312.587 159.258 307.227 161.427C305.37 162.178 303.379 163.281 301.366 164.396C300.16 165.064 298.947 165.736 297.751 166.339C297.674 166.378 297.59 166.399 297.504 166.4C297.418 166.402 297.332 166.383 297.254 166.346C297.175 166.309 297.106 166.255 297.05 166.187C296.995 166.12 296.955 166.04 296.934 165.955C294.88 157.407 285.825 148.055 279.466 142.438C279.12 142.133 278.741 142.084 278.328 142.29C269.9 146.405 262.749 152.116 256.877 159.423C256.794 159.527 256.689 159.612 256.57 159.671C256.451 159.73 256.32 159.763 256.187 159.766C256.054 159.77 255.921 159.744 255.799 159.692C255.677 159.639 255.568 159.56 255.479 159.46C249.187 152.417 241.892 146.611 233.595 142.042C233.534 142.009 233.464 141.995 233.396 142.002C233.327 142.008 233.263 142.035 233.212 142.079C225.303 148.628 219.34 156.623 215.323 166.067C215.134 166.528 214.82 166.631 214.383 166.376C206.235 161.609 197.526 158.244 188.256 156.281C188.13 156.253 187.998 156.273 187.886 156.337C187.774 156.401 187.69 156.505 187.65 156.628C186.872 158.948 186.054 161.154 185.252 163.318L185.251 163.319C182.592 170.487 180.109 177.182 179.881 185.971C179.873 186.458 179.633 186.635 179.163 186.503C178.666 186.36 178.194 186.171 177.731 185.987C177.078 185.726 176.445 185.474 175.786 185.365C167.819 184.054 159.753 183.493 151.589 183.683C151.504 183.687 151.424 183.718 151.361 183.772C151.298 183.826 151.256 183.899 151.242 183.98ZM229.55 191.543C229.286 192.608 229.008 193.732 228.647 194.73C228.457 195.241 228.313 195.229 228.214 194.693C226.643 186.243 231.566 173.835 237.393 167.675C237.465 167.599 237.515 167.505 237.537 167.402C237.56 167.3 237.553 167.193 237.519 167.093C237.485 166.993 237.424 166.903 237.343 166.834C237.262 166.764 237.164 166.717 237.059 166.697L236.7 166.636C236.074 166.528 235.55 166.718 235.129 167.205C230.948 172.137 228.358 177.266 227.36 182.594C227.055 184.202 226.684 185.559 226.247 186.664C226.218 186.743 226.164 186.809 226.092 186.853C226.021 186.897 225.937 186.915 225.854 186.905C225.771 186.895 225.693 186.857 225.635 186.798C225.576 186.738 225.539 186.661 225.529 186.577C224.845 181.002 225.591 175.708 227.769 170.693C228.913 168.054 230.926 165.48 232.905 162.948C233.514 162.17 234.12 161.395 234.696 160.623C234.834 160.44 235.039 160.318 235.267 160.286C235.494 160.253 235.725 160.312 235.909 160.45C244.774 167.13 250.321 175.905 252.547 186.775C252.787 187.963 252.947 187.951 253.03 186.738C253.784 175.147 245.15 164.384 236.131 158.05C235.938 157.913 235.703 157.846 235.465 157.859C235.227 157.872 235 157.966 234.82 158.124C220.977 170.668 222.066 181.493 227.138 198.528C227.252 198.911 227.358 199.412 227.475 199.967C227.725 201.148 228.025 202.572 228.573 203.625C228.927 204.309 229.142 204.268 229.216 203.501C230.272 193.546 233.727 184.536 239.583 176.47C240.045 175.835 240.486 175.848 240.906 176.508C241.583 177.575 242.349 178.733 243.154 179.952C246.911 185.636 251.542 192.642 252.164 198.021C252.395 199.992 252.749 201.53 253.228 202.635C253.706 203.715 253.937 203.666 253.921 202.486C253.879 199.361 253.739 196.173 253.5 192.924C253.434 192.033 253.079 191.332 252.436 190.821C252.159 190.592 251.935 190.305 251.78 189.979C248.869 183.712 245.22 177.905 240.832 172.561C240.735 172.443 240.613 172.348 240.474 172.283C240.336 172.219 240.184 172.186 240.031 172.187C239.878 172.188 239.728 172.223 239.59 172.29C239.453 172.357 239.332 172.454 239.236 172.574C235.385 177.415 232.383 182.916 230.23 189.076C229.986 189.78 229.773 190.641 229.55 191.543ZM276.856 160.438C276.705 160.31 276.516 160.237 276.32 160.232C276.123 160.228 275.932 160.292 275.78 160.413C268.308 166.425 263.013 173.967 259.896 183.039C259.599 183.889 259.454 183.864 259.463 182.965C259.537 173.081 267.714 163.246 275.767 158.446C276.048 158.282 276.371 158.206 276.696 158.228C277.02 158.25 277.33 158.369 277.586 158.57C285.924 165.225 291.206 176.47 288.336 187.01C287.767 189.097 287.507 189.06 287.557 186.899C287.78 177.274 284.551 167.044 276.856 160.438ZM274.654 167.798C279.701 173.625 286.06 185.328 284.229 193.369C284.014 194.309 283.796 194.309 283.573 193.369C281.825 186.252 278.563 179.757 273.788 173.885C273.277 173.266 272.988 172.697 272.922 172.178C272.79 171.163 272.378 171.031 271.685 171.782C265.017 179.019 257.582 189.299 259.141 199.357C259.232 199.959 259.347 199.963 259.487 199.369C261.524 190.52 265.541 182.722 271.536 175.976C271.8 175.679 272.052 175.691 272.291 176.013C276.745 182.198 280.027 188.94 282.138 196.239C282.746 198.34 282.753 200.724 282.76 202.898C282.762 203.335 282.763 203.765 282.769 204.181C282.819 206.928 283.144 206.961 283.746 204.28C284.571 200.602 285.652 196.618 286.988 192.33C287.523 190.608 287.03 189.086 286.597 187.75C286.42 187.205 286.254 186.69 286.171 186.206C285.017 179.204 281.784 172.8 276.472 166.994C276.101 166.59 275.668 166.512 275.173 166.759L274.815 166.945C274.741 166.984 274.677 167.039 274.628 167.107C274.579 167.174 274.545 167.251 274.529 167.333C274.514 167.415 274.517 167.499 274.539 167.58C274.56 167.66 274.6 167.735 274.654 167.798ZM200.194 210.775C198.743 202.692 199.943 195.084 203.794 187.951C203.904 187.747 204.057 187.569 204.24 187.428C204.424 187.288 204.635 187.188 204.86 187.135C205.085 187.083 205.318 187.079 205.543 187.123C205.769 187.168 205.982 187.26 206.169 187.394C212.911 192.181 219.406 196.833 223.303 204.453C223.674 205.179 223.587 205.241 223.043 204.639C217.913 199.014 212.28 193.942 206.144 189.423C205.872 189.225 205.666 189.278 205.526 189.583C202.186 197.105 200.957 205.026 201.839 213.348C201.988 214.758 202.351 215.892 202.928 216.75C203.695 217.896 204.062 217.781 204.029 216.404C203.868 210.367 203.967 204.354 207.109 198.491C207.349 198.045 207.612 198.029 207.901 198.441C208.149 198.804 208.202 199.241 208.062 199.752C205.786 207.967 204.833 219.076 208.371 227.018C208.627 227.579 208.788 227.554 208.854 226.944L210.932 209.154C211.023 208.387 211.435 208.123 212.169 208.362C219.798 210.837 225.229 215.723 228.462 223.022C228.536 223.195 228.49 223.323 228.325 223.405L228.041 223.566C228.033 223.566 228 223.521 227.942 223.43C224.692 218.102 220.103 214.358 214.173 212.197C214.067 212.16 213.953 212.146 213.841 212.157C213.729 212.168 213.62 212.204 213.523 212.262C213.426 212.32 213.344 212.398 213.281 212.492C213.218 212.586 213.176 212.692 213.159 212.804C212.868 214.661 212.511 216.493 212.155 218.318C211.344 222.473 210.54 226.592 210.548 230.89C210.548 232.424 210.186 232.515 209.46 231.162C205.526 223.871 201.382 216.787 197.027 209.909C189.567 198.144 187.749 184.61 194.417 172.215C194.945 171.242 195.712 170.982 196.718 171.435C204.487 174.912 213.406 180.157 217.699 187.431C218.664 189.064 218.47 189.221 217.117 187.901C210.973 181.905 204.062 176.982 196.384 173.13C196.322 173.098 196.255 173.08 196.185 173.077C196.116 173.073 196.046 173.085 195.981 173.111C195.915 173.136 195.856 173.176 195.806 173.226C195.756 173.276 195.717 173.336 195.691 173.402C192.202 182.903 191.724 192.577 194.256 202.424C194.273 202.513 194.321 202.592 194.391 202.648C194.461 202.705 194.549 202.735 194.639 202.733C194.728 202.732 194.815 202.699 194.883 202.64C194.951 202.582 194.996 202.501 195.011 202.412C195.085 202.066 195.11 201.484 195.085 200.668C194.862 193.604 195.27 186.454 199.687 180.615C199.868 180.375 200.079 180.347 200.318 180.528L200.578 180.726C200.734 180.84 200.844 181.006 200.89 181.194C200.935 181.382 200.912 181.58 200.825 181.753C197.571 188.235 194.479 205.158 199.749 210.997C200.145 211.435 200.293 211.36 200.194 210.775ZM318.138 200.767C317.379 203.315 317.053 203.262 317.161 200.606C317.359 195.831 317.507 190.981 315.515 186.293C314.682 184.346 313.833 182.413 312.967 180.491C312.942 180.434 312.904 180.382 312.857 180.341C312.81 180.299 312.754 180.268 312.693 180.249C312.633 180.231 312.568 180.225 312.505 180.232C312.441 180.24 312.379 180.261 312.324 180.293L312.051 180.454C311.868 180.563 311.733 180.736 311.671 180.94C311.609 181.143 311.626 181.363 311.717 181.555C313.647 185.654 314.724 188.887 314.946 191.254C315.342 195.324 315.8 204.688 314.018 211.505C313.985 211.653 314.051 211.769 314.216 211.851C314.305 211.898 314.408 211.907 314.505 211.877C314.603 211.847 314.685 211.78 314.736 211.69C317.804 205.934 319.701 201.893 320.426 199.567C323.569 189.588 322.521 180.314 317.284 171.745C317.133 171.492 316.895 171.302 316.614 171.209C316.332 171.116 316.026 171.126 315.75 171.237C307.548 174.479 298.122 179.526 294.757 188.05C294.303 189.221 294.452 189.307 295.202 188.309C299.858 182.146 304.832 179.229 310.843 175.705C312.132 174.949 313.469 174.165 314.86 173.316C314.938 173.269 315.025 173.238 315.116 173.226C315.207 173.213 315.299 173.218 315.387 173.241C315.476 173.264 315.559 173.304 315.632 173.36C315.705 173.415 315.766 173.484 315.812 173.563C320.464 181.802 320.761 191.946 318.138 200.767ZM277.821 193.678C280.332 197.971 283.635 206.989 281.718 212.494C281.537 213.039 281.4 213.026 281.31 212.457C279.945 203.192 276.386 196.688 272.05 188.762L271.735 188.186C271.685 188.094 271.613 188.017 271.526 187.96C271.439 187.902 271.339 187.868 271.234 187.858C271.129 187.848 271.023 187.864 270.925 187.904C270.827 187.944 270.74 188.006 270.671 188.087C265.813 193.777 262.135 200.14 259.636 207.175C259.273 208.198 259.026 208.173 258.894 207.101C258.176 201.324 266.947 187.592 271.252 183.757C271.326 183.694 271.412 183.648 271.505 183.621C271.598 183.595 271.695 183.589 271.789 183.605C271.884 183.62 271.974 183.656 272.052 183.71C272.13 183.764 272.195 183.835 272.242 183.918C274.023 187.118 275.883 190.371 277.821 193.678ZM240.09 197.006C236.263 202.144 233.909 207.892 233.026 214.251C232.977 214.647 232.857 214.668 232.667 214.313C229.154 207.521 235.909 194.594 239.62 188.742C239.672 188.659 239.745 188.589 239.83 188.539C239.916 188.49 240.012 188.462 240.111 188.458C240.21 188.455 240.308 188.475 240.397 188.518C240.486 188.561 240.563 188.626 240.622 188.705C243.129 192.128 245.628 195.48 248.119 198.763C250.11 201.384 250.826 203.894 251.535 206.383C252.011 208.054 252.485 209.715 253.339 211.393C253.735 212.152 253.896 212.107 253.822 211.257C252.881 200.544 247.352 192.565 240.709 184.437C240.637 184.351 240.546 184.282 240.444 184.236C240.342 184.19 240.231 184.168 240.119 184.171C240.008 184.175 239.899 184.204 239.802 184.257C239.705 184.309 239.621 184.384 239.558 184.474C235.608 189.984 232.688 195.893 230.799 202.202C229.315 207.163 230.441 211.307 232.21 215.946C232.714 217.284 232.877 218.549 233.043 219.842L233.043 219.843C233.133 220.547 233.225 221.259 233.373 221.995C233.386 222.04 233.415 222.08 233.454 222.107C233.493 222.134 233.539 222.147 233.586 222.144C233.634 222.141 233.678 222.122 233.714 222.091C233.749 222.059 233.773 222.017 233.781 221.971C234.432 214.391 236.766 207.373 240.783 200.915C240.851 200.805 240.945 200.713 241.056 200.647C241.168 200.58 241.293 200.541 241.422 200.532C241.552 200.524 241.681 200.546 241.8 200.598C241.919 200.649 242.024 200.729 242.106 200.829C245.183 204.482 247.913 208.416 250.296 212.63C250.709 213.362 251.061 214.226 251.411 215.084C251.754 215.924 252.094 216.758 252.486 217.455C253.327 218.981 253.545 218.845 253.141 217.047C251.335 209.055 247.401 202.334 241.339 196.882C240.878 196.462 240.461 196.503 240.09 197.006ZM305.99 189.621C305.046 190.362 304.12 191.079 303.214 191.78C296.64 196.872 291.139 201.131 287.78 207.818C287.722 207.934 287.631 207.967 287.507 207.917L287.495 207.905C287.371 207.855 287.334 207.765 287.384 207.633C290.793 198.294 299.001 192.6 306.662 187.287L307.363 186.8C307.408 186.769 307.458 186.747 307.512 186.736C307.566 186.725 307.621 186.726 307.674 186.737C307.728 186.749 307.778 186.771 307.823 186.804C307.867 186.836 307.904 186.877 307.932 186.924C312.794 195.447 315.515 211.666 309.837 219.274C309.581 219.612 309.478 219.571 309.528 219.15L309.57 218.765C310.511 210.148 311.889 197.521 306.868 189.757C306.629 189.394 306.336 189.348 305.99 189.621ZM259.5 217.183C262.048 211.08 265.462 205.509 269.743 200.47C270.073 200.082 270.382 200.099 270.671 200.519C274.666 206.544 277.833 213.014 279.108 219.905C279.281 220.861 279.442 220.857 279.59 219.892C280.78 211.894 275.941 203.771 272.116 197.348C271.764 196.758 271.421 196.181 271.091 195.62C271.029 195.512 270.941 195.419 270.835 195.352C270.729 195.284 270.608 195.243 270.483 195.232C270.358 195.221 270.232 195.241 270.116 195.289C270 195.337 269.897 195.413 269.817 195.509C264.906 201.187 259.797 209.377 259.166 217.096C259.159 217.139 259.168 217.183 259.191 217.219C259.215 217.256 259.251 217.282 259.293 217.293C259.335 217.303 259.379 217.298 259.418 217.278C259.456 217.258 259.485 217.224 259.5 217.183ZM172.483 230.915C168.928 222.989 167.493 214.651 168.178 205.901C168.186 205.797 168.217 205.696 168.267 205.605C168.317 205.514 168.385 205.434 168.468 205.371C168.551 205.308 168.646 205.263 168.747 205.239C168.849 205.216 168.954 205.213 169.056 205.233C176.231 206.519 191.942 211.48 196.185 217.764C196.672 218.49 196.544 218.622 195.802 218.16C187.926 213.261 179.514 209.538 170.565 206.989C170.112 206.866 169.889 207.039 169.897 207.509C170.021 218.482 172.557 229.826 179.757 238.411C179.785 238.446 179.821 238.473 179.862 238.49C179.903 238.507 179.948 238.513 179.993 238.509C180.039 238.504 180.082 238.488 180.121 238.462C180.159 238.437 180.192 238.402 180.215 238.362C180.264 238.255 180.318 238.152 180.375 238.053C180.433 237.945 180.437 237.838 180.388 237.731L180.363 237.666C177.503 230.282 174.945 223.679 175.105 215.562C175.114 215.092 175.353 214.866 175.823 214.882C184.26 215.253 197.361 221.179 201.975 227.698C202.33 228.193 202.264 228.255 201.777 227.884C197.608 224.667 193.563 222.478 188.181 220.597C187.288 220.289 186.33 219.868 185.341 219.433C182.961 218.387 180.397 217.261 178.099 217.418C177.97 217.426 177.843 217.462 177.729 217.523C177.614 217.584 177.514 217.669 177.435 217.772C177.357 217.876 177.301 217.995 177.273 218.122C177.244 218.248 177.243 218.38 177.27 218.507C178.78 225.533 180.705 232.3 183.048 238.807C183.946 241.298 184.829 243.067 185.695 244.114C187.179 245.888 187.579 245.727 186.895 243.632C185.146 238.263 184.561 232.779 185.138 227.179C185.163 226.938 185.283 226.716 185.471 226.563C185.658 226.41 185.899 226.338 186.14 226.362C193.084 227.071 199.043 229.818 204.016 234.601C205.327 235.871 205.196 236.04 203.62 235.108C203.309 234.925 202.989 234.734 202.66 234.539C198.842 232.269 193.892 229.325 189.381 228.96C189.153 228.943 188.924 228.971 188.707 229.042C188.491 229.114 188.291 229.227 188.119 229.376C187.947 229.524 187.808 229.705 187.708 229.908C187.608 230.111 187.55 230.331 187.538 230.556C187.151 237.03 188.169 243.273 190.594 249.285C190.825 249.871 190.676 249.995 190.148 249.657C189.537 249.253 189.042 248.689 188.563 248.143C188.16 247.684 187.769 247.238 187.328 246.91C170.318 234.242 156.821 219.855 161.807 197.006C161.881 196.635 162.108 196.47 162.487 196.511C171.877 197.451 182.652 201.113 189.765 207.633C192.025 209.703 191.847 209.917 189.233 208.276C181.695 203.542 173.538 200.379 164.763 198.788C164.013 198.647 163.592 198.957 163.502 199.715C162.363 209.525 164.912 223.492 172.248 231.076C172.635 231.48 172.714 231.426 172.483 230.915ZM331.746 237.607L331.424 237.496C331.386 237.483 331.351 237.461 331.322 237.434C331.292 237.406 331.269 237.372 331.254 237.334C331.239 237.297 331.232 237.257 331.233 237.216C331.235 237.176 331.245 237.136 331.263 237.1C334.645 230.618 336.682 223.744 337.374 216.478C337.457 215.562 337.045 215.142 336.137 215.216C327.305 215.967 319.379 219.381 312.361 225.459C311.824 225.913 311.478 226.486 311.321 227.179C311.189 227.772 311.371 227.892 311.866 227.537C318.645 222.688 326.1 219.311 334.232 217.406C334.367 217.375 334.507 217.379 334.64 217.417C334.772 217.456 334.893 217.527 334.991 217.624C335.088 217.722 335.16 217.843 335.198 217.976C335.236 218.108 335.24 218.248 335.21 218.383C333.395 225.962 331.003 233.141 328.034 239.921C327.449 241.24 326.422 242.552 324.954 243.855C324.179 244.531 323.985 244.395 324.373 243.446C326.402 238.44 327.478 233.245 327.601 227.859C327.626 226.803 327.115 226.342 326.067 226.474C319.593 227.323 314.088 229.612 309.552 233.339C308.093 234.535 308.225 234.746 309.948 233.97C314.748 231.793 318.843 230.086 324.509 229.195C324.587 229.182 324.667 229.187 324.744 229.209C324.82 229.23 324.891 229.268 324.951 229.32C325.011 229.372 325.059 229.437 325.092 229.509C325.124 229.581 325.141 229.66 325.14 229.739C324.966 236.131 323.767 242.312 321.54 248.283C321.243 249.083 321.424 249.215 322.084 248.679C329.457 242.708 335.783 237.232 341.061 232.251C350.723 223.121 352.937 210.033 350.228 197.427C350.145 197.031 349.902 196.845 349.498 196.87C342.781 197.303 325.251 201.695 322.195 208.56C321.948 209.121 322.076 209.229 322.579 208.882C330.15 203.703 338.475 200.342 347.556 198.8C347.708 198.774 347.864 198.809 347.991 198.897C348.118 198.985 348.206 199.119 348.236 199.27C350.265 210.589 347.741 223.876 339.255 232.275C337.605 233.908 337.387 233.686 338.599 231.607C343.152 223.797 345.036 215.34 344.253 206.235C344.243 206.128 344.21 206.024 344.157 205.93C344.105 205.836 344.033 205.755 343.947 205.691C343.86 205.626 343.761 205.581 343.656 205.558C343.551 205.534 343.443 205.533 343.337 205.554C335.803 207.064 321.527 211.233 316.95 217.505C316.571 218.008 316.67 218.131 317.247 217.876C318.622 217.249 319.953 216.433 321.254 215.636C322.622 214.798 323.957 213.98 325.276 213.422C330.603 211.162 335.968 209.183 341.37 207.484C341.515 207.44 341.668 207.43 341.818 207.455C341.967 207.481 342.108 207.541 342.23 207.632C342.352 207.722 342.45 207.84 342.518 207.975C342.586 208.111 342.621 208.26 342.62 208.412C342.471 219.216 339.073 228.882 332.426 237.409C332.35 237.51 332.243 237.583 332.121 237.619C331.998 237.654 331.867 237.65 331.746 237.607ZM304.888 228.502C304.854 228.555 304.802 228.593 304.742 228.612C304.683 228.63 304.618 228.628 304.56 228.605C304.502 228.581 304.454 228.539 304.423 228.484C304.393 228.43 304.382 228.366 304.393 228.304C305.028 226.135 305.486 223.727 305.767 221.08C306.311 216.041 305.779 208.536 304.171 198.565C304.16 198.489 304.165 198.412 304.186 198.339C304.206 198.266 304.241 198.198 304.289 198.139C304.337 198.081 304.396 198.034 304.463 198.001C304.53 197.967 304.603 197.949 304.678 197.946L305.136 197.922C305.317 197.913 305.433 197.996 305.482 198.169C307.453 204.618 308.286 211.224 307.981 217.987C307.956 218.573 308.166 219.232 308.612 219.966C308.843 220.371 308.851 220.783 308.637 221.204L304.888 228.502ZM242.651 213.026C242.708 212.952 242.783 212.915 242.873 212.915C243.244 212.915 243.525 213.026 243.714 213.249C246.964 216.919 249.793 220.882 252.201 225.137C252.275 225.269 252.382 225.302 252.523 225.236H252.535C252.675 225.17 252.72 225.063 252.671 224.915C250.457 218.71 247.594 214.559 244.389 209.91L244.387 209.906C243.886 209.18 243.377 208.442 242.861 207.682C242.823 207.63 242.772 207.588 242.714 207.56C242.656 207.531 242.591 207.518 242.527 207.52C242.462 207.523 242.399 207.541 242.343 207.574C242.287 207.606 242.239 207.652 242.205 207.707C239.669 211.863 234.09 223.839 235.958 228.552C236.156 229.047 236.296 229.03 236.379 228.502C237.319 222.886 239.409 217.727 242.651 213.026ZM269.483 213.237C269.201 213.135 268.896 213.119 268.605 213.192C268.314 213.265 268.051 213.422 267.85 213.645C264.461 217.406 261.826 221.641 259.945 226.35C259.879 226.523 259.76 226.577 259.587 226.511L259.29 226.399C259.166 226.358 259.125 226.28 259.166 226.164C261.195 219.278 264.543 213.117 269.211 207.682C269.279 207.603 269.366 207.541 269.463 207.502C269.56 207.463 269.665 207.448 269.769 207.457C269.873 207.467 269.973 207.501 270.061 207.558C270.149 207.614 270.223 207.691 270.275 207.781C273.504 213.459 277.215 220.771 276.461 227.575C276.411 228.012 276.337 228.016 276.238 227.587C275.473 224.134 274.152 221.534 272.748 218.773C272.04 217.379 271.31 215.944 270.622 214.338C270.391 213.793 270.011 213.426 269.483 213.237ZM303.367 227.179C303.32 226.458 303.275 225.76 303.293 225.137C303.466 220.016 302.167 215.068 300.757 210.144C300.427 209.006 299.709 208.643 298.604 209.055C291.305 211.76 286.328 216.808 283.672 224.197C283.417 224.89 283.516 224.944 283.969 224.358C284.183 224.082 284.392 223.81 284.599 223.542C288.28 218.765 291.067 215.149 297.169 212.63C297.363 212.551 297.58 212.551 297.773 212.63C297.965 212.709 298.117 212.86 298.196 213.051C299.293 215.665 300.208 218.366 300.942 221.154C301.499 223.273 301.708 225.605 301.919 227.966C302.046 229.38 302.173 230.806 302.377 232.201C302.427 232.581 302.559 232.609 302.773 232.288C303.614 230.969 303.486 228.997 303.367 227.179ZM212.527 235.356C211.773 226.919 216.808 221.055 225.282 226.869C225.727 227.174 225.69 227.253 225.17 227.104C216.845 224.791 214.643 227.797 213.245 235.38C212.923 237.104 212.684 237.096 212.527 235.356ZM288.992 226.832C296.179 223.739 299.569 230.296 299.186 236.778C299.169 236.968 299.256 237.071 299.445 237.088H299.458C299.647 237.104 299.763 237.018 299.804 236.828C300.579 232.943 299.854 229.607 297.627 226.82C295.252 223.863 291.206 223.579 288.547 226.177C287.491 227.199 287.639 227.418 288.992 226.832ZM152.56 259.858C151.521 258.707 150.512 257.588 149.807 256.151C145.923 248.172 143.622 243.075 143.943 234.082C143.955 233.865 144.033 233.657 144.166 233.488C144.299 233.32 144.481 233.198 144.686 233.141C152.1 231.071 159.176 231.81 165.914 235.356C166.153 235.48 166.236 235.62 166.161 235.776V235.789C166.087 235.946 165.964 235.995 165.79 235.937C159.555 233.554 153.275 232.766 146.95 233.574C146.598 233.621 146.277 233.797 146.05 234.067C145.823 234.338 145.707 234.683 145.725 235.034C146.207 245.809 151.143 257.054 159.37 264.168C159.404 264.199 159.446 264.221 159.491 264.233C159.536 264.244 159.583 264.244 159.628 264.233C159.673 264.222 159.715 264.2 159.75 264.17C159.785 264.139 159.811 264.1 159.828 264.056L159.951 263.735C159.984 263.66 159.976 263.594 159.927 263.537C154.434 257.091 152.591 249.817 151.032 241.69C150.986 241.442 150.992 241.187 151.051 240.941C151.109 240.696 151.219 240.466 151.372 240.266C151.525 240.067 151.718 239.902 151.938 239.783C152.159 239.663 152.403 239.592 152.653 239.574C159.522 239.046 166.161 240.044 172.57 242.568C172.617 242.586 172.659 242.614 172.692 242.652C172.726 242.689 172.75 242.734 172.762 242.783C172.774 242.832 172.774 242.883 172.762 242.931C172.75 242.98 172.727 243.025 172.693 243.063L172.446 243.335C172.405 243.385 172.351 243.405 172.285 243.397C171.765 243.281 171.254 243.166 170.753 243.052C164.525 241.647 159.645 240.546 154.31 241.554C154.099 241.593 153.91 241.713 153.786 241.888C153.661 242.064 153.61 242.281 153.642 242.494C154.393 247.285 155.692 251.953 157.539 256.498C158.702 259.343 162.685 267.359 166.706 267.471C167.432 267.495 167.522 267.269 166.978 266.79C162.537 262.906 160.805 255.966 160.953 250.399C160.965 249.979 161.09 249.571 161.314 249.216C161.538 248.861 161.854 248.573 162.228 248.382C167.262 245.822 173.312 246.749 178.334 248.444C181.213 249.417 181.138 249.817 178.112 249.644C176.845 249.573 175.611 249.457 174.386 249.342C170.934 249.017 167.568 248.7 163.823 249.422C163.642 249.455 163.47 249.525 163.316 249.627C163.162 249.728 163.03 249.86 162.927 250.013C162.825 250.166 162.754 250.338 162.718 250.519C162.683 250.7 162.685 250.886 162.722 251.067C164.504 259.529 167.015 268.027 176.058 271.602C176.256 271.685 176.438 271.66 176.603 271.528L176.887 271.318C176.994 271.235 177.097 271.24 177.196 271.33L179.473 273.409C179.918 273.821 179.844 273.957 179.25 273.817C176.213 273.123 173.339 272.045 170.464 270.966C168.314 270.16 166.165 269.353 163.947 268.708C145.081 263.252 134.306 247.442 136.249 227.476C136.29 227.047 136.525 226.808 136.954 226.758C144.368 225.892 151.671 226.453 158.863 228.441C159.052 228.498 159.131 228.593 159.098 228.725V228.737C159.065 228.869 158.982 228.923 158.85 228.898C152.31 227.546 145.791 227.298 139.292 228.156C139.059 228.186 138.844 228.3 138.687 228.477C138.53 228.654 138.442 228.883 138.438 229.121C138.232 242.415 143.176 253.294 153.271 261.755C153.304 261.788 153.341 261.788 153.382 261.755L153.63 261.545C153.786 261.405 153.795 261.256 153.655 261.1C153.295 260.673 152.927 260.265 152.563 259.862L152.562 259.86L152.561 259.859L152.56 259.858ZM360.335 256.436C359.403 258.489 357.803 260.11 355.535 261.298C355.032 261.561 354.916 261.446 355.189 260.951C358.586 254.658 360.57 247.925 361.139 240.749C361.173 240.348 361.054 239.948 360.806 239.629C360.559 239.311 360.201 239.097 359.803 239.03C353.964 238.04 345.379 240.18 339.638 241.764C339.441 241.813 339.362 241.941 339.403 242.147L339.465 242.494C339.506 242.692 339.63 242.778 339.836 242.754C340.451 242.665 341.062 242.576 341.671 242.487L341.673 242.487L341.679 242.486C347.128 241.691 352.352 240.929 357.836 241.207C358.727 241.257 359.061 241.714 358.838 242.58C358.622 243.423 358.409 244.281 358.194 245.146C356.147 253.39 353.912 262.393 346.702 266.939C345.209 267.879 345.007 267.652 346.096 266.258C348.323 263.388 356.203 248.679 348.434 247.578C343.04 246.819 337.515 247.327 331.857 249.1C331.659 249.158 331.581 249.29 331.622 249.496L331.696 249.83C331.713 249.929 331.775 249.974 331.882 249.966C337.185 249.38 342.5 249.257 347.828 249.595C348.014 249.606 348.196 249.654 348.363 249.736C348.53 249.818 348.679 249.933 348.801 250.073C348.923 250.214 349.016 250.378 349.074 250.554C349.132 250.731 349.154 250.918 349.139 251.104C348.57 257.99 345.997 263.998 341.42 269.128C339.589 271.182 339.906 271.602 342.372 270.39C343.264 269.952 344.196 269.586 345.134 269.218C346.554 268.661 347.987 268.099 349.312 267.273C350.252 266.687 351.231 266.04 352.237 265.376L352.241 265.373C355.633 263.133 359.338 260.685 362.896 259.665C365.502 258.927 368.704 254.444 370.386 252.09L370.578 251.821C375.378 245.104 376.875 235.752 376.454 227.698C376.421 227.162 376.141 226.861 375.613 226.795C370.401 226.177 365.205 226.292 360.026 227.142C359.968 227.158 359.939 227.195 359.939 227.253L359.964 227.562C359.972 227.661 360.026 227.706 360.125 227.698C364.471 227.426 368.817 227.513 373.164 227.958C373.376 227.982 373.573 228.081 373.718 228.238C373.864 228.394 373.948 228.598 373.955 228.812C374.252 237.867 370.999 250.906 363.168 256.708C363.131 256.737 363.088 256.757 363.042 256.767C362.997 256.778 362.949 256.778 362.902 256.769C362.856 256.76 362.811 256.741 362.772 256.713C362.758 256.703 362.744 256.692 362.732 256.681C362.724 256.673 362.716 256.665 362.709 256.657C362.696 256.642 362.684 256.626 362.673 256.609C362.624 256.51 362.57 256.415 362.512 256.324C362.397 256.126 362.401 255.933 362.525 255.743C366.434 249.203 368.434 242.119 368.524 234.49C368.528 234.118 368.403 233.756 368.172 233.464C367.94 233.171 367.615 232.966 367.25 232.882C360.751 231.364 354.389 231.793 348.162 234.168C347.783 234.317 347.609 234.444 347.642 234.552C347.684 234.692 347.75 234.75 347.84 234.725C353.523 233.092 359.304 232.589 365.184 233.216C366.273 233.331 366.788 233.933 366.731 235.022C366.372 241.541 362.586 251.438 360.335 256.436ZM241.933 240.267C241.563 240.294 241.192 240.248 240.84 240.131C240.489 240.015 240.163 239.83 239.883 239.587C239.603 239.345 239.373 239.05 239.207 238.719C239.04 238.387 238.941 238.026 238.915 237.657L238.754 235.517C238.615 233.623 239.185 231.754 240.338 230.323C241.49 228.892 243.132 228.014 244.902 227.884L245.248 227.859C246.125 227.795 247.007 227.916 247.843 228.215C248.68 228.515 249.454 228.987 250.123 229.605C250.792 230.223 251.341 230.975 251.74 231.817C252.139 232.66 252.38 233.576 252.448 234.515L252.609 236.655C252.636 237.024 252.59 237.396 252.473 237.748C252.357 238.099 252.172 238.425 251.93 238.705C251.687 238.985 251.392 239.215 251.061 239.381C250.729 239.547 250.369 239.647 249.999 239.673L241.933 240.267ZM260.399 237.941C260.818 238.556 261.465 238.978 262.197 239.116L270.374 240.638C271.106 240.776 271.862 240.617 272.477 240.197C273.091 239.777 273.514 239.13 273.652 238.399L273.974 236.63C274.154 235.67 274.159 234.687 273.99 233.737C273.821 232.788 273.48 231.89 272.987 231.095C272.494 230.3 271.859 229.623 271.118 229.104C270.377 228.585 269.544 228.233 268.667 228.069L268.333 228.007C266.564 227.677 264.723 228.128 263.216 229.262C261.708 230.396 260.656 232.121 260.292 234.057L259.958 235.838C259.82 236.57 259.979 237.326 260.399 237.941ZM282.423 243.644C281.711 243.385 281.131 242.854 280.811 242.167C280.491 241.48 280.457 240.695 280.716 239.983L281.309 238.362C282.011 236.447 283.356 234.856 285.05 233.94C286.743 233.023 288.646 232.856 290.34 233.475L290.699 233.599C292.391 234.221 293.735 235.578 294.436 237.371C295.136 239.164 295.136 241.247 294.435 243.162L293.853 244.782C293.725 245.136 293.528 245.461 293.274 245.739C293.019 246.017 292.713 246.241 292.371 246.4C292.03 246.558 291.66 246.648 291.284 246.663C290.908 246.679 290.533 246.62 290.179 246.49L282.423 243.644ZM219.795 246.311C220.463 246.631 221.231 246.673 221.929 246.428L230.094 243.545C230.793 243.299 231.365 242.785 231.685 242.117C232.005 241.449 232.047 240.681 231.801 239.982L231.269 238.473C230.598 236.573 229.265 234.994 227.565 234.082C225.865 233.171 223.936 233.001 222.202 233.611L221.855 233.735C220.12 234.346 218.722 235.688 217.968 237.465C217.214 239.242 217.166 241.309 217.835 243.211L218.367 244.721C218.613 245.419 219.127 245.991 219.795 246.311ZM193.897 240.304C193.072 242.242 192.854 245.343 193.241 249.607C193.266 249.863 193.146 250.003 192.882 250.028L192.573 250.065C192.515 250.073 192.482 250.048 192.474 249.991C192.435 249.674 192.394 249.35 192.352 249.021C191.846 245.043 191.241 240.287 193.674 237.842C195.79 235.727 200.095 236.148 202.618 237.051C204.474 237.71 204.424 237.946 202.47 237.756C199.835 237.496 195.282 237.063 193.897 240.304ZM318.454 250.318C319.625 246.722 322.915 236.626 316.282 236.543C312.455 236.502 309.536 236.803 307.524 237.446C307.35 237.504 307.289 237.62 307.338 237.793V237.805C307.387 237.978 307.503 238.04 307.684 237.991C309.606 237.455 311.754 237.286 314.13 237.484C320.266 238.01 319.2 243.534 318.346 247.958C318.157 248.938 317.978 249.865 317.89 250.671C317.879 250.727 317.89 250.785 317.921 250.832C317.953 250.88 318.002 250.913 318.057 250.925C318.113 250.936 318.171 250.925 318.219 250.894C318.266 250.862 318.3 250.813 318.311 250.758C318.354 250.625 318.402 250.478 318.454 250.318ZM242.143 256.955L239.805 246.391C239.795 246.338 239.795 246.283 239.806 246.23C239.817 246.177 239.839 246.127 239.871 246.083C239.902 246.039 239.942 246.002 239.988 245.974C240.034 245.946 240.086 245.928 240.139 245.921L252.745 244.337C252.801 244.33 252.858 244.335 252.912 244.352C252.966 244.368 253.016 244.396 253.058 244.434C253.1 244.471 253.134 244.518 253.156 244.569C253.179 244.621 253.191 244.677 253.191 244.733L253.079 255.285C253.077 255.378 253.043 255.468 252.982 255.538C252.921 255.608 252.837 255.654 252.745 255.669L242.601 257.252C242.501 257.271 242.398 257.251 242.313 257.195C242.228 257.14 242.167 257.054 242.143 256.955ZM201.844 257.821C202.544 257.963 203.272 257.82 203.868 257.425L211.093 252.65C211.688 252.255 212.102 251.639 212.243 250.938C212.385 250.238 212.242 249.51 211.847 248.914L211.278 248.061C210.125 246.32 208.42 245.049 206.536 244.524C204.653 244 202.746 244.266 201.233 245.265L200.924 245.463C200.173 245.958 199.542 246.619 199.068 247.408C198.593 248.196 198.283 249.097 198.157 250.059C198.031 251.021 198.09 252.024 198.331 253.012C198.572 254 198.991 254.954 199.563 255.817L200.132 256.671C200.528 257.266 201.143 257.68 201.844 257.821ZM259.97 244.597L271.673 245.896C271.77 245.906 271.865 245.936 271.949 245.985C272.034 246.034 272.108 246.1 272.165 246.18C272.222 246.259 272.262 246.35 272.282 246.446C272.301 246.542 272.3 246.641 272.279 246.737L270.151 256.671C270.115 256.841 270.016 256.992 269.874 257.093C269.732 257.194 269.557 257.238 269.384 257.215L259.636 255.916C259.468 255.892 259.314 255.807 259.205 255.677C259.095 255.547 259.037 255.381 259.042 255.211L259.203 245.277C259.204 245.181 259.225 245.085 259.266 244.998C259.306 244.91 259.364 244.831 259.436 244.767C259.508 244.703 259.593 244.655 259.685 244.626C259.777 244.596 259.874 244.586 259.97 244.597ZM299.989 250.819C302.365 253.232 306.447 256.955 310.282 258.267C310.703 258.415 311.065 258.329 311.371 258.007C322.01 246.787 304.604 238.807 299.804 249.83C299.647 250.201 299.709 250.531 299.989 250.819ZM235.909 258.935L226.952 262.399C226.738 262.48 226.501 262.479 226.288 262.394C226.075 262.309 225.901 262.147 225.802 261.941L221.781 253.479C221.727 253.365 221.696 253.242 221.692 253.115C221.687 252.989 221.709 252.864 221.756 252.746C221.802 252.629 221.872 252.523 221.962 252.434C222.051 252.345 222.158 252.275 222.276 252.23L232.989 248.061C233.111 248.013 233.241 247.991 233.371 247.998C233.501 248.004 233.629 248.039 233.745 248.098C233.861 248.158 233.963 248.242 234.043 248.344C234.124 248.447 234.183 248.565 234.214 248.692L236.465 257.858C236.52 258.075 236.493 258.304 236.391 258.502C236.288 258.7 236.117 258.854 235.909 258.935ZM289.883 252.168L279.231 248.518C279.097 248.473 278.956 248.456 278.815 248.468C278.674 248.48 278.537 248.521 278.413 248.588C278.289 248.656 278.18 248.748 278.093 248.859C278.006 248.971 277.943 249.099 277.908 249.236L275.767 257.648C275.705 257.892 275.736 258.151 275.852 258.375C275.968 258.598 276.163 258.771 276.398 258.861L285.763 262.485C286.014 262.583 286.294 262.578 286.541 262.472C286.789 262.365 286.985 262.166 287.087 261.916L290.501 253.516C290.552 253.387 290.577 253.25 290.573 253.111C290.569 252.972 290.538 252.836 290.48 252.71C290.422 252.584 290.339 252.471 290.237 252.378C290.134 252.285 290.014 252.213 289.883 252.168ZM182.924 253.454C179.172 253.372 176.153 254.18 173.869 255.879C169.725 258.959 174.215 267.248 176.627 270.489C176.652 270.519 176.667 270.554 176.672 270.592C176.676 270.63 176.67 270.669 176.654 270.704C176.637 270.74 176.611 270.771 176.578 270.794C176.545 270.817 176.507 270.831 176.467 270.835C176.359 270.844 176.252 270.856 176.145 270.873C176.054 270.881 175.976 270.856 175.91 270.798C171.778 267.293 169.766 262.811 169.873 257.351C169.877 257.142 169.926 256.935 170.018 256.745C170.11 256.555 170.242 256.386 170.405 256.25C174.009 253.24 178.203 252.122 182.986 252.898C183.151 252.922 183.229 253.013 183.221 253.17V253.182C183.213 253.364 183.114 253.454 182.924 253.454ZM327.49 253.442C331.3 253.64 334.962 254.073 338.327 255.619C338.918 255.894 339.416 256.338 339.759 256.897C340.101 257.455 340.275 258.103 340.257 258.762C340.117 263.223 338.673 267.24 335.927 270.811C335.389 271.514 334.659 272.072 333.912 272.642C333.319 273.094 332.716 273.554 332.191 274.101C331.828 274.481 331.89 274.58 332.377 274.398C335.428 273.293 337.309 272.254 338.018 271.281C340.871 267.372 342.434 262.931 342.706 257.957C342.736 257.443 342.615 256.931 342.358 256.483C342.101 256.035 341.719 255.67 341.259 255.434C336.896 253.182 332.286 252.329 327.428 252.873C327.288 252.89 327.222 252.988 327.23 253.17V253.182C327.23 253.347 327.317 253.434 327.49 253.442ZM220.618 265.677L211.872 271.8C211.775 271.868 211.657 271.896 211.54 271.88C211.423 271.864 211.316 271.805 211.241 271.714L204.697 263.908C204.654 263.857 204.623 263.798 204.605 263.735C204.587 263.671 204.582 263.605 204.592 263.539C204.601 263.474 204.624 263.411 204.659 263.355C204.694 263.3 204.741 263.252 204.796 263.215L215.472 255.941C215.527 255.902 215.59 255.875 215.657 255.862C215.724 255.85 215.792 255.852 215.858 255.868C215.924 255.885 215.985 255.915 216.038 255.958C216.091 256 216.134 256.053 216.165 256.114L220.767 265.083C220.817 265.183 220.83 265.298 220.802 265.407C220.775 265.516 220.71 265.612 220.618 265.677ZM307.45 263.673L296.675 255.978C296.63 255.947 296.579 255.926 296.526 255.917C296.473 255.907 296.418 255.908 296.366 255.921C296.313 255.934 296.264 255.958 296.221 255.991C296.178 256.024 296.143 256.066 296.118 256.114L291.479 265.145C291.436 265.23 291.427 265.327 291.452 265.418C291.477 265.51 291.535 265.589 291.615 265.64L300.893 271.516C300.972 271.563 301.066 271.581 301.157 271.565C301.247 271.549 301.33 271.501 301.388 271.429L307.511 264.242C307.548 264.202 307.575 264.154 307.592 264.103C307.608 264.052 307.614 263.997 307.608 263.943C307.602 263.89 307.585 263.838 307.558 263.791C307.53 263.745 307.494 263.704 307.45 263.673ZM180.129 264.242C181.304 256.263 190.805 257.289 194.615 262.609C194.87 262.964 194.924 263.347 194.776 263.759C193.625 266.951 189.444 270.279 187.093 271.986C186.916 272.114 186.706 272.189 186.488 272.2C186.271 272.211 186.055 272.158 185.869 272.048C182.875 270.341 179.51 268.374 180.129 264.242ZM327.119 271.788C339.861 265.924 326.822 251.067 317.432 262.572C317.16 262.91 317.144 263.26 317.383 263.623C318.868 265.9 323.989 273.235 327.119 271.788ZM348.087 285.099C354.607 282.254 363.13 278.493 368.116 273.372C368.181 273.306 368.232 273.226 368.264 273.139C368.296 273.051 368.309 272.958 368.302 272.864C368.295 272.771 368.268 272.679 368.223 272.596C368.179 272.513 368.117 272.44 368.042 272.382C365.819 270.639 364.201 270.813 361.786 271.073C361.526 271.101 361.257 271.13 360.978 271.157C354.792 271.792 348.623 272.514 342.471 273.322C342.463 273.322 342.459 273.318 342.459 273.31L342.397 272.939C342.39 272.906 342.389 272.872 342.395 272.84C342.397 272.828 342.401 272.816 342.405 272.804C342.411 272.784 342.421 272.765 342.433 272.748C342.451 272.72 342.475 272.697 342.503 272.678C342.518 272.669 342.533 272.66 342.55 272.654C342.556 272.652 342.562 272.65 342.568 272.648C342.577 272.645 342.586 272.643 342.595 272.642C350.083 270.934 357.654 269.673 365.308 268.856C367.176 268.646 369.353 268.992 370.157 270.687C370.335 271.054 370.647 271.338 371.027 271.481C371.407 271.624 371.827 271.614 372.198 271.454C376.239 269.747 379.984 267.512 383.431 264.749C383.61 264.607 383.747 264.419 383.83 264.206C383.912 263.993 383.936 263.762 383.899 263.537C383.863 263.311 383.767 263.1 383.622 262.924C383.476 262.748 383.287 262.613 383.072 262.535C375.303 259.702 367.683 260.815 359.827 264.687C359.679 264.761 359.572 264.72 359.506 264.563L359.382 264.279C359.357 264.213 359.374 264.163 359.431 264.13C369.188 258.737 379.25 258.209 389.616 262.547C389.733 262.596 389.834 262.677 389.908 262.779C389.982 262.882 390.027 263.003 390.037 263.129C390.048 263.256 390.023 263.382 389.966 263.496C389.909 263.609 389.823 263.704 389.715 263.772C377.893 270.997 365.763 277.646 353.603 284.312C350.544 285.989 347.484 287.667 344.426 289.355C342.628 290.344 340.743 291.062 338.772 291.507C338.327 291.606 337.919 291.52 337.547 291.247C332.117 287.202 331.98 278.654 340.207 278.938C343.589 279.054 345.902 280.967 347.147 284.679C347.304 285.157 347.617 285.297 348.087 285.099ZM175.242 290.951C187.699 277.973 164.974 274.077 165.592 285.433C165.6 285.535 165.581 285.636 165.537 285.728C165.493 285.82 165.425 285.899 165.342 285.956C165.258 286.014 165.16 286.048 165.059 286.056C164.957 286.064 164.855 286.046 164.763 286.002C157.151 282.505 149.848 278.46 142.855 273.866C142.738 273.79 142.639 273.689 142.565 273.571C142.491 273.452 142.442 273.32 142.424 273.181C142.405 273.043 142.416 272.902 142.456 272.769C142.496 272.635 142.565 272.512 142.657 272.407C143.679 271.252 145.065 270.79 146.813 271.021C151.201 271.598 155.197 271.994 158.801 272.209C160.442 272.308 160.479 272.118 158.912 271.64C154.137 270.196 149.164 269.302 143.993 268.955C142.154 268.84 141.23 269.541 141.222 271.058C141.221 271.194 141.188 271.327 141.124 271.446C141.06 271.566 140.968 271.668 140.856 271.744C140.744 271.819 140.615 271.866 140.48 271.88C140.345 271.895 140.209 271.876 140.083 271.825C135.49 270.036 131.271 267.603 127.428 264.526C127.292 264.422 127.204 264.268 127.181 264.097C127.157 263.926 127.202 263.752 127.304 263.611C129.111 261.112 139.415 261.223 142.001 261.273C143.543 261.298 143.56 261.137 142.05 260.79C135.758 259.322 129.407 259.788 122.999 262.188C122.513 262.361 122.253 262.489 122.22 262.572C122.092 262.853 122.07 263.171 122.159 263.467C122.248 263.762 122.441 264.016 122.702 264.18C138.042 273.706 153.522 282.427 169.143 290.344C170.743 291.161 172.417 291.528 174.165 291.445C174.571 291.422 174.955 291.245 175.242 290.951ZM245.768 271.268L243.727 262.497C243.714 262.439 243.714 262.379 243.726 262.321C243.739 262.263 243.763 262.208 243.798 262.161C243.833 262.113 243.878 262.073 243.93 262.043C243.981 262.014 244.039 261.996 244.098 261.99L252.485 261.248C252.543 261.243 252.602 261.25 252.658 261.269C252.713 261.288 252.764 261.318 252.807 261.357C252.85 261.397 252.884 261.445 252.908 261.499C252.931 261.552 252.943 261.61 252.943 261.669V270.217C252.941 270.316 252.904 270.412 252.838 270.487C252.773 270.561 252.683 270.611 252.584 270.625L246.238 271.59C246.133 271.605 246.027 271.58 245.94 271.521C245.853 271.461 245.792 271.371 245.768 271.268ZM267.961 262.126L259.698 261.335C259.617 261.328 259.536 261.338 259.46 261.364C259.383 261.39 259.313 261.432 259.254 261.486C259.195 261.541 259.147 261.608 259.115 261.682C259.083 261.756 259.066 261.835 259.067 261.916V270.168C259.066 270.315 259.122 270.458 259.224 270.566C259.325 270.674 259.463 270.739 259.611 270.749L266.403 271.182C266.545 271.194 266.688 271.152 266.802 271.065C266.916 270.979 266.994 270.853 267.021 270.712L268.481 262.807C268.495 262.728 268.492 262.646 268.473 262.568C268.454 262.49 268.419 262.417 268.37 262.353C268.322 262.289 268.26 262.236 268.19 262.197C268.119 262.158 268.041 262.134 267.961 262.126ZM275.545 263.685L283.561 266.864C283.651 266.9 283.732 266.953 283.801 267.02C283.87 267.087 283.924 267.168 283.961 267.257C283.998 267.346 284.017 267.441 284.016 267.537C284.015 267.633 283.995 267.729 283.957 267.817L280.778 275.165C280.704 275.335 280.568 275.469 280.397 275.541C280.226 275.612 280.035 275.615 279.862 275.549L272.885 272.938C272.718 272.877 272.58 272.755 272.498 272.597C272.416 272.44 272.395 272.257 272.44 272.085L274.592 264.168C274.618 264.07 274.665 263.98 274.728 263.901C274.792 263.823 274.871 263.759 274.961 263.714C275.051 263.668 275.149 263.642 275.25 263.637C275.35 263.632 275.451 263.649 275.545 263.685ZM233.001 276.056L239.31 273.47C239.402 273.432 239.477 273.363 239.522 273.274C239.568 273.186 239.58 273.085 239.558 272.988L237.653 264.192C237.639 264.134 237.613 264.08 237.577 264.032C237.54 263.985 237.494 263.946 237.441 263.918C237.389 263.89 237.331 263.874 237.271 263.87C237.212 263.866 237.152 263.874 237.096 263.895L228.832 267.174C228.779 267.195 228.731 267.227 228.691 267.268C228.651 267.309 228.619 267.357 228.598 267.41C228.578 267.464 228.568 267.52 228.57 267.578C228.572 267.635 228.585 267.691 228.61 267.743L232.457 275.846C232.503 275.944 232.585 276.021 232.687 276.061C232.788 276.1 232.901 276.098 233.001 276.056ZM312.905 267.941L321.54 276.6C321.596 276.654 321.641 276.72 321.671 276.792C321.701 276.864 321.715 276.942 321.712 277.02C321.71 277.098 321.691 277.175 321.657 277.246C321.623 277.316 321.575 277.379 321.515 277.429L314.031 283.751C313.923 283.841 313.786 283.887 313.646 283.88C313.506 283.873 313.374 283.814 313.276 283.714L305.816 276.044C305.718 275.944 305.661 275.811 305.656 275.671C305.652 275.531 305.7 275.395 305.792 275.289L312.088 267.978C312.138 267.919 312.199 267.871 312.268 267.837C312.337 267.804 312.412 267.784 312.488 267.781C312.565 267.777 312.642 267.79 312.713 267.817C312.785 267.845 312.85 267.887 312.905 267.941ZM199.018 284.171C199.435 284.166 199.832 283.995 200.123 283.697L206.862 276.791C207.007 276.644 207.12 276.469 207.197 276.278C207.273 276.086 207.312 275.881 207.309 275.675C207.307 275.469 207.263 275.265 207.182 275.075C207.101 274.885 206.983 274.714 206.835 274.57L200.779 268.66C200.481 268.369 200.08 268.208 199.663 268.213C199.246 268.218 198.849 268.389 198.558 268.687L191.818 275.593C191.674 275.741 191.561 275.915 191.484 276.107C191.407 276.298 191.369 276.503 191.372 276.709C191.374 276.916 191.417 277.119 191.499 277.309C191.58 277.499 191.698 277.671 191.846 277.815L197.902 283.724C198.2 284.015 198.601 284.176 199.018 284.171ZM290.551 270.811L296.613 275.586C296.719 275.67 296.808 275.775 296.873 275.894C296.938 276.012 296.979 276.143 296.993 276.278C297.007 276.413 296.993 276.55 296.954 276.679C296.914 276.809 296.848 276.929 296.761 277.033L292.629 281.994C292.484 282.168 292.284 282.288 292.062 282.335C291.84 282.383 291.608 282.354 291.405 282.254L286.135 279.644C285.894 279.526 285.71 279.319 285.622 279.066C285.534 278.814 285.549 278.536 285.665 278.295L289.005 271.182C289.069 271.043 289.164 270.921 289.282 270.824C289.401 270.727 289.539 270.658 289.688 270.622C289.837 270.587 289.992 270.585 290.141 270.618C290.291 270.65 290.431 270.716 290.551 270.811ZM227.088 278.901L223.228 271.244C223.178 271.143 223.106 271.054 223.018 270.984C222.93 270.914 222.828 270.863 222.718 270.836C222.609 270.809 222.495 270.806 222.384 270.828C222.274 270.849 222.169 270.894 222.078 270.959L215.719 275.524C215.633 275.586 215.56 275.665 215.505 275.757C215.451 275.848 215.415 275.949 215.401 276.055C215.387 276.16 215.395 276.268 215.424 276.37C215.453 276.472 215.503 276.567 215.57 276.65L220.741 282.984C220.863 283.132 221.035 283.231 221.224 283.26C221.414 283.29 221.607 283.249 221.768 283.145L226.816 279.916C226.979 279.811 227.098 279.649 227.148 279.461C227.199 279.274 227.177 279.074 227.088 278.901ZM216.227 287.536L211.365 293.61C211.325 293.661 211.276 293.702 211.22 293.733C211.163 293.763 211.102 293.782 211.038 293.788C210.974 293.794 210.91 293.786 210.849 293.766C210.788 293.747 210.732 293.714 210.684 293.672L204.227 288.093C204.179 288.053 204.14 288.003 204.112 287.948C204.084 287.892 204.067 287.831 204.062 287.769C204.058 287.707 204.065 287.645 204.085 287.585C204.105 287.526 204.136 287.472 204.177 287.425L210.115 280.559C210.159 280.507 210.214 280.465 210.276 280.436C210.338 280.408 210.406 280.393 210.474 280.393C210.542 280.393 210.61 280.408 210.672 280.436C210.734 280.465 210.789 280.507 210.833 280.559L216.227 286.942C216.295 287.026 216.332 287.131 216.332 287.239C216.332 287.347 216.295 287.452 216.227 287.536ZM308.904 287.072C308.86 286.963 308.795 286.864 308.713 286.781L302.956 280.922C302.874 280.839 302.776 280.772 302.668 280.727C302.561 280.681 302.445 280.657 302.328 280.656C302.211 280.655 302.095 280.677 301.987 280.721C301.878 280.764 301.78 280.829 301.696 280.911L296.349 286.166C296.266 286.248 296.199 286.345 296.153 286.453C296.108 286.561 296.084 286.676 296.083 286.793C296.082 286.91 296.104 287.026 296.147 287.135C296.191 287.243 296.256 287.342 296.338 287.425L302.095 293.284C302.177 293.368 302.275 293.434 302.383 293.48C302.49 293.525 302.606 293.549 302.723 293.55C302.84 293.552 302.956 293.529 303.064 293.486C303.173 293.442 303.272 293.377 303.355 293.295L308.702 288.041C308.786 287.959 308.852 287.861 308.898 287.753C308.943 287.646 308.967 287.53 308.968 287.413C308.969 287.296 308.947 287.18 308.904 287.072ZM325.647 281.821L332.117 292.522C332.145 292.568 332.163 292.62 332.17 292.674C332.177 292.728 332.173 292.783 332.158 292.835C332.142 292.887 332.117 292.936 332.082 292.978C332.076 292.985 332.07 292.991 332.064 292.998C332.059 293.004 332.053 293.009 332.047 293.015C332.039 293.022 332.031 293.029 332.022 293.036C332.016 293.041 332.009 293.046 332.003 293.051C331.988 293.061 331.972 293.07 331.956 293.078L322.777 297.755C322.69 297.798 322.591 297.808 322.497 297.783C322.404 297.758 322.323 297.699 322.27 297.618L316.505 288.897C316.449 288.814 316.427 288.713 316.444 288.614C316.46 288.515 316.512 288.426 316.591 288.365L325.065 281.71C325.11 281.675 325.161 281.651 325.215 281.638C325.27 281.625 325.326 281.624 325.381 281.635C325.436 281.645 325.488 281.667 325.534 281.699C325.58 281.731 325.618 281.773 325.647 281.821ZM190.532 297.68L195.963 289.107C196.053 288.962 196.084 288.789 196.052 288.622C196.02 288.455 195.927 288.306 195.79 288.204L187.427 281.969C187.352 281.912 187.265 281.871 187.173 281.85C187.08 281.828 186.985 281.826 186.891 281.843C186.798 281.861 186.71 281.897 186.632 281.951C186.553 282.005 186.487 282.074 186.438 282.155L180.487 291.792C180.44 291.869 180.409 291.954 180.396 292.043C180.382 292.133 180.386 292.224 180.408 292.311C180.43 292.399 180.469 292.481 180.523 292.553C180.577 292.625 180.645 292.686 180.722 292.732L189.617 297.903C189.769 297.991 189.949 298.017 190.119 297.976C190.29 297.934 190.438 297.828 190.532 297.68ZM250.617 339.395C250.747 339.51 250.827 339.672 250.841 339.847C250.855 340.022 250.801 340.196 250.691 340.335L250.481 340.595C250.341 340.768 250.188 340.784 250.023 340.644C248.506 339.391 246.914 338.145 245.248 336.908C237.694 331.308 230.185 325.647 222.721 319.923C216.099 314.847 209.3 310.139 202.507 305.435L202.506 305.435C200.326 303.926 198.147 302.417 195.975 300.897C195.464 300.542 195.373 300.101 195.703 299.573L199.884 293.054C200.231 292.509 200.651 292.439 201.146 292.843C202.045 293.565 202.945 294.283 203.845 295.001C208.914 299.043 213.965 303.072 218.651 307.664C222.438 311.367 226.296 315.318 230.224 319.34C236.832 326.106 243.635 333.072 250.617 339.395ZM262.51 340.466C262.685 340.482 262.86 340.431 263.001 340.323C280.728 326.937 298.196 313.886 316.406 301.354C316.991 300.95 317.115 300.435 316.777 299.808L313.226 293.19C313.162 293.073 313.074 292.971 312.967 292.891C312.861 292.811 312.738 292.755 312.608 292.727C312.477 292.699 312.342 292.699 312.212 292.728C312.082 292.756 311.96 292.813 311.853 292.893C311.013 293.523 310.172 294.148 309.333 294.772C304.635 298.266 299.977 301.731 295.684 305.845C289.764 311.514 283.938 317.411 278.094 323.327L278.091 323.33C272.726 328.761 267.345 334.208 261.862 339.506C261.706 339.655 261.697 339.811 261.838 339.976L262.06 340.236C262.174 340.368 262.335 340.45 262.51 340.466Z" fill="black"/>
</svg>
