<svg width="512" height="512" viewBox="0 0 512 512" fill="none" xmlns="http://www.w3.org/2000/svg">
<rect width="512" height="512" fill="white"/>
<path d="M337.058 268.007H337.058C337.355 268.007 337.667 268.081 337.903 268.314C338.139 268.545 338.22 268.853 338.226 269.148C338.412 274.36 338.429 278.901 338.274 282.77C338.169 285.421 338.363 287.336 338.808 288.67C339.247 289.986 339.915 290.696 340.76 291.029C341.634 291.373 342.793 291.35 344.28 290.982C345.76 290.615 347.497 289.924 349.49 289.01C367.787 280.623 385.63 271.349 403.02 261.19L403.022 261.189C404.296 260.451 405.198 259.411 405.436 258.418C405.552 257.934 405.514 257.459 405.287 257.006C405.058 256.549 404.616 256.076 403.862 255.644L403.861 255.644C400.673 253.809 397.485 251.915 394.304 250.026C388.408 246.524 382.537 243.037 376.737 239.964L376.737 239.964C371.88 237.381 367.019 234.807 362.155 232.242L362.154 232.241C359.386 230.777 356.484 229.017 353.525 227.222C353.313 227.093 353.101 226.965 352.888 226.836C349.703 224.904 346.453 222.952 343.204 221.279L343.204 221.279C342.323 220.824 341.595 220.681 341.007 220.734C340.427 220.787 339.944 221.033 339.546 221.431C338.73 222.247 338.262 223.721 338.238 225.406C338.157 232.021 338.222 238.607 338.432 245.164L338.433 245.168C338.436 245.3 338.413 245.431 338.365 245.553C338.317 245.675 338.244 245.787 338.153 245.881C338.061 245.975 337.951 246.05 337.83 246.101C337.709 246.152 337.578 246.178 337.447 246.178L337.446 246.178C333.77 246.17 330.095 246.162 326.419 246.154C273.082 246.035 219.735 245.915 166.431 247.028C166.271 247.033 166.112 247.007 165.961 246.95C165.81 246.894 165.672 246.808 165.554 246.697C165.436 246.587 165.341 246.455 165.274 246.308C165.208 246.161 165.171 246.002 165.165 245.84L165.165 245.839C164.971 239.326 165.031 232.764 165.348 226.154L337.058 268.007ZM337.058 268.007C325.453 268.015 313.784 268.01 302.121 268.004C264.366 267.986 226.675 267.968 191.401 268.432C184.005 268.529 175.576 268.934 166.113 269.647L166.11 269.647C165.811 269.672 165.531 269.804 165.323 270.02C165.115 270.235 164.994 270.518 164.983 270.818C164.772 275.3 164.724 280.799 164.837 287.312C164.87 289.419 163.604 291.027 161.483 291.363C159.521 291.671 157.417 291.15 155.149 289.722M337.058 268.007L155.149 289.722M155.149 289.722C141.861 281.341 128.468 273.146 114.97 265.138L114.969 265.138C112.549 263.707 110.222 262.139 107.987 260.435C107.268 259.885 106.859 259.383 106.659 258.942C106.466 258.514 106.459 258.124 106.583 257.751C106.847 256.957 107.735 256.155 109.053 255.431C110.336 254.735 111.608 253.794 112.758 252.886C113.181 252.552 113.583 252.226 113.965 251.917C114.639 251.371 115.248 250.879 115.784 250.492C129.531 240.62 143.497 231.065 157.681 221.824L157.682 221.824C159.965 220.331 161.933 220.198 163.258 220.944C164.582 221.688 165.476 223.428 165.348 226.153L155.149 289.722Z" fill="white" stroke="black"/>
<path d="M343.316 229.062C343.395 229.472 343.473 229.979 343.547 230.573C343.662 231.491 343.764 232.586 343.846 233.796C343.928 235.005 343.99 236.303 344.026 237.615C344.063 238.927 344.074 240.226 344.06 241.438C344.045 242.651 344.005 243.75 343.941 244.673C343.9 245.27 343.851 245.78 343.794 246.194C343.715 245.783 343.637 245.277 343.563 244.683C343.448 243.765 343.347 242.67 343.264 241.46C343.182 240.251 343.121 238.953 343.084 237.641C343.047 236.329 343.036 235.03 343.051 233.818C343.065 232.605 343.106 231.506 343.169 230.583C343.21 229.986 343.26 229.476 343.316 229.062Z" fill="black" stroke="black"/>
<path d="M158.679 247.026L158.727 247.026C158.82 247.026 158.911 247.007 158.996 246.971C159.082 246.936 159.159 246.884 159.224 246.818C159.29 246.752 159.341 246.675 159.376 246.589C159.411 246.503 159.429 246.412 159.429 246.319L158.679 247.026ZM158.679 247.026C158.492 247.027 158.312 246.953 158.18 246.822C158.047 246.69 157.973 246.511 157.972 246.324L158.679 247.026ZM158.871 229.613L158.929 246.321C158.929 246.348 158.924 246.374 158.914 246.399C158.904 246.424 158.889 246.447 158.87 246.466C158.851 246.485 158.828 246.5 158.804 246.51C158.779 246.52 158.752 246.526 158.725 246.526L158.677 246.526H158.677C158.623 246.526 158.571 246.505 158.532 246.467C158.494 246.429 158.472 246.377 158.472 246.323C158.472 246.323 158.472 246.322 158.472 246.322L158.414 229.614C158.414 229.614 158.414 229.614 158.414 229.614C158.413 229.588 158.419 229.561 158.429 229.536C158.439 229.511 158.454 229.489 158.473 229.47C158.492 229.451 158.514 229.435 158.539 229.425C158.564 229.415 158.59 229.409 158.617 229.409L158.666 229.409L158.666 229.409C158.72 229.409 158.772 229.43 158.81 229.469C158.849 229.507 158.87 229.559 158.871 229.613C158.871 229.613 158.871 229.613 158.871 229.613Z" fill="black" stroke="black"/>
<path d="M349.356 247.219L349.356 247.219L349.283 247.223C349.283 247.223 349.283 247.223 349.283 247.223C349.222 247.226 349.163 247.205 349.119 247.164C349.074 247.123 349.047 247.066 349.044 247.006L349.044 247.006L348.27 231.191L348.27 231.191C348.267 231.13 348.289 231.071 348.329 231.026C348.37 230.981 348.427 230.954 348.487 230.951L348.488 230.951L348.56 230.948C348.56 230.948 348.56 230.948 348.56 230.948C348.621 230.945 348.68 230.966 348.725 231.007C348.77 231.047 348.797 231.104 348.8 231.165L348.8 231.165L349.573 246.98L350.017 246.958L349.573 246.98C349.576 247.04 349.555 247.1 349.514 247.144C349.473 247.189 349.416 247.216 349.356 247.219Z" fill="black" stroke="black"/>
<mask id="path-5-inside-1_61_8015" fill="white">
<path d="M355.192 247.222C355.198 247.341 355.157 247.458 355.078 247.546C354.998 247.635 354.886 247.689 354.767 247.695L354.719 247.698C354.66 247.701 354.601 247.693 354.545 247.673C354.49 247.653 354.438 247.623 354.394 247.584C354.351 247.544 354.315 247.496 354.289 247.443C354.264 247.39 354.249 247.332 354.246 247.273L353.558 234.567C353.551 234.448 353.592 234.331 353.672 234.242C353.752 234.154 353.863 234.1 353.982 234.094L354.031 234.091C354.09 234.088 354.149 234.096 354.204 234.116C354.26 234.135 354.311 234.166 354.355 234.205C354.399 234.245 354.435 234.292 354.46 234.345C354.486 234.399 354.5 234.456 354.504 234.515L355.192 247.222Z"/>
</mask>
<path d="M355.192 247.222C355.198 247.341 355.157 247.458 355.078 247.546C354.998 247.635 354.886 247.689 354.767 247.695L354.719 247.698C354.66 247.701 354.601 247.693 354.545 247.673C354.49 247.653 354.438 247.623 354.394 247.584C354.351 247.544 354.315 247.496 354.289 247.443C354.264 247.39 354.249 247.332 354.246 247.273L353.558 234.567C353.551 234.448 353.592 234.331 353.672 234.242C353.752 234.154 353.863 234.1 353.982 234.094L354.031 234.091C354.09 234.088 354.149 234.096 354.204 234.116C354.26 234.135 354.311 234.166 354.355 234.205C354.399 234.245 354.435 234.292 354.46 234.345C354.486 234.399 354.5 234.456 354.504 234.515L355.192 247.222Z" fill="black"/>
<path d="M355.192 247.222L354.193 247.276L354.193 247.276L355.192 247.222ZM354.767 247.695L354.713 246.697L354.713 246.697L354.767 247.695ZM354.719 247.698L354.773 248.696L354.774 248.696L354.719 247.698ZM354.246 247.273L355.244 247.219L355.244 247.219L354.246 247.273ZM353.558 234.567L354.556 234.512L354.556 234.512L353.558 234.567ZM353.982 234.094L354.036 235.092L354.037 235.092L353.982 234.094ZM354.031 234.091L353.976 233.092L353.976 233.092L354.031 234.091ZM354.504 234.515L353.505 234.569L353.505 234.569L354.504 234.515ZM354.193 247.276C354.185 247.13 354.236 246.987 354.333 246.879L355.822 248.214C356.078 247.928 356.211 247.552 356.19 247.168L354.193 247.276ZM354.333 246.879C354.431 246.77 354.567 246.704 354.713 246.697L354.822 248.694C355.205 248.673 355.565 248.5 355.822 248.214L354.333 246.879ZM354.713 246.697L354.664 246.699L354.774 248.696L354.822 248.694L354.713 246.697ZM354.665 246.699C354.737 246.695 354.809 246.706 354.877 246.73L354.213 248.616C354.393 248.679 354.583 248.707 354.773 248.696L354.665 246.699ZM354.877 246.73C354.946 246.754 355.009 246.791 355.062 246.839L353.727 248.328C353.868 248.455 354.034 248.553 354.213 248.616L354.877 246.73ZM355.062 246.839C355.116 246.888 355.16 246.946 355.191 247.011L353.387 247.875C353.47 248.047 353.585 248.201 353.727 248.328L355.062 246.839ZM355.191 247.011C355.223 247.077 355.241 247.147 355.244 247.219L353.247 247.327C353.258 247.517 353.305 247.704 353.387 247.875L355.191 247.011ZM355.244 247.219L354.556 234.512L352.559 234.621L353.247 247.327L355.244 247.219ZM354.556 234.512C354.564 234.658 354.514 234.801 354.416 234.91L352.928 233.575C352.671 233.861 352.538 234.237 352.559 234.621L354.556 234.512ZM354.416 234.91C354.319 235.019 354.182 235.084 354.036 235.092L353.928 233.095C353.544 233.116 353.184 233.288 352.928 233.575L354.416 234.91ZM354.037 235.092L354.085 235.089L353.976 233.092L353.927 233.095L354.037 235.092ZM354.085 235.09C354.013 235.093 353.94 235.083 353.872 235.059L354.536 233.173C354.357 233.109 354.166 233.082 353.976 233.092L354.085 235.09ZM353.872 235.059C353.804 235.035 353.741 234.998 353.687 234.949L355.023 233.461C354.881 233.334 354.716 233.236 354.536 233.173L353.872 235.059ZM353.687 234.949C353.633 234.901 353.59 234.843 353.558 234.778L355.362 233.913C355.28 233.742 355.165 233.588 355.023 233.461L353.687 234.949ZM353.558 234.778C353.527 234.712 353.509 234.641 353.505 234.569L355.502 234.461C355.492 234.271 355.444 234.085 355.362 233.913L353.558 234.778ZM353.505 234.569L354.193 247.276L356.19 247.168L355.502 234.461L353.505 234.569Z" fill="black" mask="url(#path-5-inside-1_61_8015)"/>
<path d="M378.92 247.757L378.92 247.757L378.92 247.757ZM378.897 247.8C378.897 247.8 378.897 247.8 378.897 247.8L378.897 247.8L378.897 247.8Z" fill="black" stroke="black"/>
<path d="M144.233 240.748C137.182 245.565 129.82 249.819 122.146 253.51C122.033 253.566 121.902 253.576 121.782 253.537C121.662 253.499 121.562 253.415 121.502 253.304L121.344 253.012C121.296 252.923 121.312 252.851 121.393 252.794M144.233 240.748C144.61 240.487 144.903 240.152 145.112 239.743C145.111 239.744 145.109 239.744 145.108 239.745C145.083 239.753 145.05 239.765 145.007 239.785L145.004 239.786C144.73 239.906 144.456 240.028 144.183 240.151M144.233 240.748L143.951 240.335C143.951 240.336 143.95 240.336 143.949 240.337M144.233 240.748L143.948 240.338C143.948 240.337 143.949 240.337 143.949 240.337M144.183 240.151C144.395 239.959 144.565 239.73 144.693 239.463L144.695 239.46C144.716 239.417 144.73 239.385 144.738 239.361C144.739 239.359 144.74 239.357 144.74 239.356C137.717 242.44 131.354 246.479 124.942 250.549C123.762 251.298 122.581 252.048 121.393 252.794M144.183 240.151C137.496 243.173 131.397 247.044 125.217 250.967C124.126 251.66 123.031 252.354 121.931 253.046M144.183 240.151C144.11 240.217 144.032 240.279 143.949 240.337M121.393 252.794L121.483 252.937L121.483 252.937L121.659 253.217C121.749 253.16 121.84 253.103 121.931 253.046M121.393 252.794L121.49 252.933L121.49 252.933L121.68 253.203C121.708 253.184 121.781 253.12 121.808 252.999C121.834 252.883 121.797 252.799 121.784 252.774L121.931 253.046M121.931 253.046L121.936 253.056M143.949 240.337C136.922 245.137 129.585 249.377 121.936 253.056M121.936 253.056C121.934 253.057 121.931 253.058 121.929 253.06L121.929 253.06L121.924 253.062C121.926 253.061 121.928 253.061 121.929 253.061C121.931 253.06 121.933 253.061 121.935 253.061C121.937 253.062 121.94 253.064 121.941 253.066C121.942 253.066 121.943 253.067 121.943 253.068M121.936 253.056L121.942 253.066L121.943 253.068M121.943 253.068C121.943 253.068 121.943 253.068 121.943 253.068L121.943 253.068L121.943 253.068ZM144.804 239.328C145.241 239.133 145.354 239.251 145.144 239.68C145.135 239.699 145.125 239.718 145.116 239.737C145.102 239.737 145.083 239.735 145.059 239.731C145.034 239.725 145.002 239.716 144.969 239.699C144.968 239.699 144.967 239.698 144.966 239.698C144.93 239.68 144.892 239.654 144.857 239.617C144.821 239.58 144.797 239.541 144.78 239.505C144.779 239.503 144.779 239.502 144.778 239.5C144.763 239.467 144.755 239.436 144.751 239.41C144.747 239.386 144.746 239.367 144.746 239.353C144.766 239.344 144.785 239.336 144.804 239.328ZM144.804 239.328L144.804 239.328L144.804 239.328Z" fill="black" stroke="black"/>
<path d="M206.265 252.744C192.166 253.599 178.059 253.704 163.912 253.648C163.948 253.644 163.985 253.639 164.022 253.635C164.139 253.62 164.256 253.605 164.372 253.591C165.653 253.43 166.868 253.278 167.987 253.245L167.989 253.245C180.751 252.828 193.51 252.661 206.265 252.744ZM160.216 253.511C160.216 253.511 160.216 253.512 160.216 253.512V253.51L160.216 253.511Z" fill="black" stroke="black"/>
<path d="M173.831 258.863C170.63 259.003 167.544 259.086 165.082 259.101C166.117 259.017 167.271 258.935 168.51 258.857C170.192 258.751 171.996 258.656 173.819 258.576C177.02 258.436 180.107 258.353 182.569 258.338C181.534 258.422 180.379 258.504 179.14 258.582C177.458 258.688 175.654 258.784 173.831 258.863Z" fill="black" stroke="black"/>
<mask id="path-11-inside-2_61_8015" fill="white">
<path d="M241.338 261.636C241.34 261.755 241.294 261.87 241.211 261.955C241.128 262.041 241.014 262.089 240.895 262.091L214.353 262.415C214.294 262.416 214.235 262.405 214.181 262.383C214.126 262.361 214.076 262.329 214.034 262.288C213.991 262.246 213.958 262.197 213.934 262.143C213.911 262.089 213.899 262.03 213.898 261.971L213.896 261.802C213.895 261.682 213.941 261.568 214.024 261.482C214.107 261.397 214.221 261.348 214.34 261.347L240.882 261.022C240.941 261.022 240.999 261.033 241.054 261.055C241.109 261.076 241.159 261.109 241.201 261.15C241.243 261.191 241.277 261.241 241.3 261.295C241.323 261.349 241.336 261.407 241.336 261.466L241.338 261.636Z"/>
</mask>
<path d="M241.338 261.636C241.34 261.755 241.294 261.87 241.211 261.955C241.128 262.041 241.014 262.089 240.895 262.091L214.353 262.415C214.294 262.416 214.235 262.405 214.181 262.383C214.126 262.361 214.076 262.329 214.034 262.288C213.991 262.246 213.958 262.197 213.934 262.143C213.911 262.089 213.899 262.03 213.898 261.971L213.896 261.802C213.895 261.682 213.941 261.568 214.024 261.482C214.107 261.397 214.221 261.348 214.34 261.347L240.882 261.022C240.941 261.022 240.999 261.033 241.054 261.055C241.109 261.076 241.159 261.109 241.201 261.15C241.243 261.191 241.277 261.241 241.3 261.295C241.323 261.349 241.336 261.407 241.336 261.466L241.338 261.636Z" fill="black"/>
<path d="M241.338 261.636L240.338 261.648L240.338 261.648L241.338 261.636ZM240.895 262.091L240.907 263.091L240.907 263.091L240.895 262.091ZM214.353 262.415L214.341 261.415L214.341 261.415L214.353 262.415ZM213.898 261.971L214.898 261.959L214.898 261.959L213.898 261.971ZM213.896 261.802L214.896 261.789L214.896 261.789L213.896 261.802ZM214.34 261.347L214.328 260.347L214.327 260.347L214.34 261.347ZM240.882 261.022L240.894 262.022L240.894 262.022L240.882 261.022ZM241.336 261.466L240.336 261.478L240.336 261.478L241.336 261.466ZM240.338 261.648C240.337 261.502 240.393 261.362 240.495 261.257L241.926 262.654C242.195 262.379 242.343 262.008 242.338 261.624L240.338 261.648ZM240.495 261.257C240.597 261.153 240.736 261.093 240.882 261.091L240.907 263.091C241.291 263.086 241.658 262.929 241.926 262.654L240.495 261.257ZM240.883 261.091L214.341 261.415L214.365 263.415L240.907 263.091L240.883 261.091ZM214.341 261.415C214.413 261.414 214.485 261.428 214.552 261.455L213.809 263.312C213.986 263.382 214.175 263.417 214.365 263.415L214.341 261.415ZM214.552 261.455C214.619 261.481 214.68 261.521 214.732 261.572L213.335 263.003C213.471 263.136 213.633 263.241 213.809 263.312L214.552 261.455ZM214.732 261.572C214.784 261.622 214.825 261.683 214.854 261.749L213.015 262.537C213.09 262.712 213.199 262.87 213.335 263.003L214.732 261.572ZM214.854 261.749C214.882 261.816 214.897 261.887 214.898 261.959L212.898 261.984C212.9 262.174 212.94 262.362 213.015 262.537L214.854 261.749ZM214.898 261.959L214.896 261.789L212.896 261.814L212.898 261.984L214.898 261.959ZM214.896 261.789C214.898 261.935 214.841 262.076 214.739 262.181L213.308 260.784C213.04 261.059 212.891 261.429 212.896 261.814L214.896 261.789ZM214.739 262.181C214.637 262.285 214.498 262.345 214.352 262.347L214.327 260.347C213.943 260.352 213.576 260.509 213.308 260.784L214.739 262.181ZM214.352 262.347L240.894 262.022L240.869 260.023L214.328 260.347L214.352 262.347ZM240.894 262.022C240.822 262.023 240.75 262.01 240.683 261.983L241.425 260.126C241.249 260.055 241.06 260.02 240.869 260.023L240.894 262.022ZM240.683 261.983C240.615 261.956 240.554 261.916 240.502 261.866L241.899 260.435C241.763 260.302 241.602 260.197 241.425 260.126L240.683 261.983ZM240.502 261.866C240.451 261.815 240.409 261.755 240.381 261.689L242.219 260.901C242.144 260.726 242.036 260.568 241.899 260.435L240.502 261.866ZM240.381 261.689C240.352 261.622 240.337 261.551 240.336 261.478L242.336 261.454C242.334 261.264 242.294 261.076 242.219 260.901L240.381 261.689ZM240.336 261.478L240.338 261.648L242.338 261.624L242.336 261.454L240.336 261.478Z" fill="black" mask="url(#path-11-inside-2_61_8015)"/>
<path d="M326.82 261.871C318.388 262.225 309.997 262.212 301.684 262.163C310.053 261.573 318.432 261.476 326.82 261.871Z" fill="black" stroke="black"/>
<path d="M358.209 274.734C358.363 274.642 358.531 274.545 358.713 274.441L358.713 274.441C361.421 272.901 364.237 271.475 367.089 270.031C367.946 269.598 368.805 269.163 369.666 268.722C373.386 266.819 377.12 264.823 380.66 262.463C380.784 262.381 380.887 262.322 380.969 262.28C380.957 262.373 380.934 262.49 380.896 262.636L380.895 262.636C380.573 263.87 379.259 265.172 376.673 266.481C375.662 266.992 374.63 267.525 373.584 268.066C368.723 270.577 363.554 273.247 358.769 274.582L358.768 274.582C358.568 274.638 358.382 274.688 358.209 274.734Z" fill="black" stroke="black"/>
<path d="M129.637 263.899C136.763 267.545 143.578 271.693 150.081 276.343C143.485 273.114 135.865 268.762 129.637 263.899Z" fill="black" stroke="black"/>
<path d="M144.948 278.598L144.947 278.599C144.92 278.642 144.877 278.673 144.827 278.684C144.778 278.695 144.725 278.686 144.682 278.659C144.682 278.659 144.682 278.659 144.682 278.659L120.084 263.169L120.084 263.169C120.063 263.155 120.044 263.138 120.029 263.117C120.015 263.097 120.005 263.073 119.999 263.049C119.993 263.024 119.993 262.999 119.997 262.974C120.001 262.949 120.01 262.925 120.024 262.904L120.036 262.884L120.036 262.884L120.037 262.883C120.064 262.84 120.107 262.81 120.157 262.798C120.206 262.787 120.258 262.796 120.302 262.823C120.302 262.823 120.302 262.823 120.302 262.823L144.9 278.313L144.9 278.313C144.921 278.327 144.94 278.344 144.954 278.365C144.969 278.385 144.979 278.409 144.985 278.433C144.991 278.458 144.991 278.483 144.987 278.508C144.983 278.533 144.974 278.557 144.96 278.578L144.948 278.598Z" fill="black" stroke="black"/>
<path d="M166.505 264.425C165.698 264.442 164.859 264.299 163.986 263.989C175.329 262.706 186.769 262.564 198.168 263.237C184.892 263.885 174.339 264.281 166.506 264.425L166.505 264.425Z" fill="black" stroke="black"/>
<path d="M357.518 280.146C357.519 280.146 357.519 280.146 357.52 280.145L357.52 280.145L357.52 280.145C357.52 280.146 357.519 280.146 357.518 280.146ZM357.518 280.146C357.515 280.148 357.513 280.149 357.514 280.149C357.514 280.149 357.515 280.148 357.518 280.146ZM358.006 280.043L358.006 280.043L358 280.045C357.977 280.055 357.963 280.058 357.957 280.059C357.957 280.059 357.957 280.058 357.956 280.058C357.95 280.055 357.937 280.045 357.916 280.024L357.916 280.023L357.862 279.967C359.525 279.104 361.195 278.275 362.87 277.444C366.034 275.874 369.216 274.295 372.4 272.461C378.065 269.205 383.963 266.322 390.097 263.811L390.134 263.888C384.657 266.921 377.451 270.658 368.517 275.102C363.905 277.391 360.403 279.037 358.006 280.043ZM357.587 279.682C357.587 279.682 357.589 279.683 357.591 279.686C357.588 279.683 357.587 279.681 357.587 279.682Z" fill="black" stroke="black"/>
<path d="M159.448 285.407L159.447 285.407L159.399 285.407C159.399 285.407 159.399 285.407 159.399 285.407C159.397 285.407 159.394 285.406 159.391 285.405C159.388 285.404 159.386 285.402 159.384 285.4C159.382 285.398 159.38 285.395 159.379 285.393C159.378 285.39 159.377 285.387 159.377 285.384L159.427 271.032V271.032C159.427 271.029 159.428 271.026 159.429 271.023C159.43 271.021 159.432 271.018 159.434 271.016C159.436 271.014 159.438 271.013 159.441 271.011C159.444 271.01 159.447 271.01 159.45 271.01L159.45 271.01L159.498 271.01C159.498 271.01 159.498 271.01 159.498 271.01C159.501 271.01 159.504 271.01 159.507 271.012C159.509 271.013 159.512 271.014 159.514 271.016C159.516 271.019 159.518 271.021 159.519 271.024C159.52 271.026 159.52 271.029 159.52 271.032V271.032L159.47 285.385C159.47 285.387 159.47 285.39 159.469 285.393C159.467 285.396 159.466 285.398 159.464 285.4C159.461 285.402 159.459 285.404 159.457 285.405C159.454 285.406 159.451 285.407 159.448 285.407Z" fill="black" stroke="black"/>
<path d="M343.152 270.559L343.079 270.559C342.889 270.559 342.707 270.635 342.573 270.769C342.439 270.904 342.364 271.086 342.364 271.276L342.39 286.212C342.39 286.306 342.409 286.399 342.445 286.486C342.481 286.573 342.534 286.652 342.601 286.718C342.668 286.784 342.747 286.837 342.834 286.873C342.921 286.909 343.014 286.927 343.108 286.927L343.152 270.559ZM343.152 270.559C343.246 270.558 343.339 270.577 343.426 270.613C343.513 270.648 343.593 270.701 343.659 270.767C343.726 270.834 343.779 270.913 343.815 271C343.851 271.086 343.87 271.18 343.87 271.274L343.152 270.559ZM343.18 286.427L343.107 286.427C343.107 286.427 343.107 286.427 343.107 286.427C343.079 286.427 343.05 286.421 343.024 286.411C342.998 286.4 342.974 286.384 342.954 286.364C342.934 286.344 342.918 286.32 342.907 286.294C342.896 286.267 342.89 286.239 342.89 286.211C342.89 286.211 342.89 286.211 342.89 286.211L342.864 271.275C342.864 271.275 342.864 271.275 342.864 271.275C342.864 271.218 342.887 271.163 342.927 271.122C342.968 271.082 343.023 271.059 343.08 271.059L343.153 271.059L343.153 271.059C343.182 271.059 343.21 271.064 343.236 271.075C343.262 271.086 343.286 271.102 343.306 271.122C343.326 271.142 343.342 271.166 343.353 271.192C343.364 271.218 343.37 271.246 343.37 271.275C343.37 271.275 343.37 271.275 343.37 271.275L343.396 286.21C343.396 286.21 343.396 286.21 343.396 286.21C343.396 286.267 343.373 286.322 343.333 286.363C343.292 286.404 343.237 286.427 343.18 286.427H343.18Z" fill="black" stroke="black"/>
<mask id="path-21-inside-3_61_8015" fill="white">
<path d="M347.344 271.943L347.562 281.876C347.562 281.924 347.542 281.948 347.502 281.948L347.186 281.936C347.008 281.936 346.919 281.847 346.919 281.669C346.927 278.374 346.822 275.088 346.603 271.809C346.603 271.796 346.608 271.784 346.617 271.775C346.626 271.766 346.639 271.761 346.652 271.761L347.113 271.736C347.259 271.728 347.336 271.797 347.344 271.943Z"/>
</mask>
<path d="M347.344 271.943L347.562 281.876C347.562 281.924 347.542 281.948 347.502 281.948L347.186 281.936C347.008 281.936 346.919 281.847 346.919 281.669C346.927 278.374 346.822 275.088 346.603 271.809C346.603 271.796 346.608 271.784 346.617 271.775C346.626 271.766 346.639 271.761 346.652 271.761L347.113 271.736C347.259 271.728 347.336 271.797 347.344 271.943Z" fill="black"/>
<path d="M347.344 271.943L348.344 271.921L348.343 271.904L348.342 271.887L347.344 271.943ZM347.562 281.876H348.562V281.865L348.562 281.854L347.562 281.876ZM347.502 281.948L347.463 282.948L347.482 282.948H347.502V281.948ZM347.186 281.936L347.224 280.937L347.205 280.936H347.186V281.936ZM346.919 281.669L345.919 281.667V281.669H346.919ZM346.603 271.809L345.603 271.809L345.603 271.843L345.605 271.876L346.603 271.809ZM346.652 271.761L346.652 272.761L346.678 272.761L346.704 272.759L346.652 271.761ZM347.113 271.736L347.166 272.735L347.169 272.735L347.113 271.736ZM346.344 271.965L346.563 281.898L348.562 281.854L348.344 271.921L346.344 271.965ZM346.562 281.876C346.562 281.785 346.577 281.532 346.779 281.29C347.01 281.013 347.315 280.948 347.502 280.948V282.948C347.729 282.948 348.064 282.872 348.315 282.571C348.537 282.304 348.562 282.014 348.562 281.876H346.562ZM347.54 280.949L347.224 280.937L347.147 282.936L347.463 282.948L347.54 280.949ZM347.186 280.936C347.251 280.936 347.484 280.953 347.693 281.162C347.902 281.372 347.919 281.604 347.919 281.669H345.919C345.919 281.912 345.98 282.278 346.278 282.577C346.577 282.875 346.943 282.936 347.186 282.936V280.936ZM347.919 281.672C347.927 278.354 347.821 275.044 347.601 271.743L345.605 271.876C345.822 275.131 345.927 278.395 345.919 281.667L347.919 281.672ZM347.603 271.809C347.603 272.063 347.502 272.304 347.324 272.482L345.91 271.068C345.714 271.264 345.603 271.53 345.603 271.809L347.603 271.809ZM347.324 272.482C347.146 272.661 346.904 272.761 346.652 272.761L346.652 270.761C346.373 270.761 346.107 270.871 345.91 271.068L347.324 272.482ZM346.704 272.759L347.166 272.735L347.06 270.738L346.599 270.762L346.704 272.759ZM347.169 272.735C347.088 272.739 346.842 272.732 346.613 272.527C346.384 272.322 346.35 272.079 346.345 271.998L348.342 271.887C348.33 271.661 348.253 271.31 347.947 271.037C347.641 270.763 347.284 270.725 347.058 270.738L347.169 272.735Z" fill="black" mask="url(#path-21-inside-3_61_8015)"/>
</svg>
