<svg width="512" height="512" viewBox="0 0 512 512" fill="none" xmlns="http://www.w3.org/2000/svg">
<rect width="512" height="512" fill="white"/>
<path d="M279.896 367.233C296.329 353.394 305.487 332.4 299.527 310.948C295.28 295.685 289.163 276.176 300.299 262.144C304.86 256.376 313.426 253.444 319.893 257.124C322.942 258.854 324.293 261.303 323.947 264.472C323.69 266.797 323.255 266.829 322.644 264.569C321.397 259.944 318.59 257.768 314.222 258.041C301.94 258.801 298.622 273.738 298.308 283.306C298.22 286.089 298.686 289.721 299.708 294.201C302.797 307.811 305.946 319.092 305.366 334.475C304.715 351.958 291.805 371.021 277.821 380.855C265.37 389.614 254.414 396.588 248.623 405.468C248.124 406.24 247.795 406.172 247.634 405.263C245.812 394.73 252.532 387.261 260.592 381.784C267.71 376.933 274.145 372.083 279.896 367.233Z" fill="black"/>
<path d="M245.293 386.067C245.319 386.132 245.364 386.189 245.421 386.23C245.478 386.271 245.545 386.295 245.614 386.299C245.683 386.303 245.751 386.286 245.81 386.252C245.869 386.217 245.916 386.165 245.945 386.103C249.443 379.045 253.884 375.546 261.557 370.997C281.767 359.004 294.773 344.61 296.679 320.226C296.681 320.202 296.687 320.178 296.698 320.156C296.709 320.134 296.724 320.115 296.743 320.101C296.761 320.086 296.782 320.075 296.805 320.07C296.827 320.064 296.85 320.064 296.872 320.069C296.977 320.086 297.037 320.162 297.053 320.299C298.332 330.94 296.329 340.508 290.984 349.992C283.637 363.022 272.645 369.694 260.821 377.501C255.621 380.927 248.333 386.248 246.427 392.196C246.386 392.335 246.3 392.457 246.183 392.543C246.066 392.629 245.924 392.673 245.778 392.671C245.633 392.668 245.493 392.618 245.379 392.528C245.265 392.438 245.184 392.313 245.148 392.172C243.037 384.679 232.624 379.009 225.699 374.629C207.408 363.07 194.558 346.517 194.679 323.943C194.679 323.822 194.735 323.79 194.848 323.846C194.88 323.862 194.908 323.874 194.932 323.882C195.013 323.906 195.057 323.939 195.065 323.979C198.886 344.635 209.761 359.845 227.69 369.61C235.387 373.809 242.144 377.356 245.293 386.067Z" fill="black"/>
<path d="M240.443 275.958C240.482 276.085 240.559 276.197 240.664 276.278C240.769 276.359 240.896 276.405 241.029 276.411C241.162 276.416 241.293 276.38 241.404 276.308C241.515 276.235 241.601 276.13 241.649 276.007C246.27 264.943 253.449 255.326 263.5 250.09C274.576 244.323 283.842 248.775 290.466 258.162C290.876 258.749 290.743 258.922 290.068 258.681C288.62 258.15 287.474 257.39 285.978 257.172C262.209 253.77 249.504 279.047 241.77 296.952C241.728 297.048 241.66 297.129 241.573 297.187C241.486 297.245 241.384 297.276 241.279 297.277C241.175 297.278 241.072 297.25 240.984 297.194C240.895 297.139 240.825 297.059 240.781 296.964C235.001 284.404 223.25 261.733 208.916 258.138C204.404 257.003 197.937 256.798 194.944 261.239C194.775 261.48 194.586 261.705 194.377 261.914C194.015 262.292 193.891 262.228 194.003 261.721C198.19 243.406 216.952 245.541 227.762 255.797C233.819 261.548 238.046 268.269 240.443 275.958Z" fill="black"/>
<path d="M281.948 239.388C281.529 238.133 280.862 237.087 279.945 236.251C279.229 235.607 279.35 235.229 280.307 235.117C288.125 234.212 289.392 245.577 281.815 245.469C278.268 245.408 274.262 243.731 270.896 243.912C263.669 244.286 261.183 248.352 255.561 251.67C254.957 252.024 254.841 251.904 255.211 251.308C258.332 246.337 262.072 242.79 266.432 240.667C270.86 238.519 276.422 240.8 281.296 240.377C281.41 240.366 281.521 240.33 281.62 240.271C281.718 240.212 281.802 240.132 281.864 240.037C281.927 239.942 281.967 239.834 281.982 239.721C281.996 239.609 281.984 239.495 281.948 239.388Z" fill="black"/>
<path d="M276.796 319.333C277.978 320.274 279.993 320.214 281.139 321.3C281.542 321.67 281.465 321.871 280.91 321.903C278.521 322.036 275.77 321.939 273.659 322.374C261.34 324.847 257.66 334.921 252.098 344.682C250.956 346.685 250.493 346.54 250.71 344.248C252.243 328.225 268.29 312.263 284.325 310.369C286.311 310.127 286.416 310.465 284.638 311.382C281.634 312.914 278.461 314.278 276.482 317.547C276.309 317.832 276.245 318.171 276.303 318.499C276.361 318.828 276.536 319.124 276.796 319.333Z" fill="black"/>
<path d="M240.636 302.297C241.03 303.382 241.42 303.382 241.806 302.297C244.758 294.02 248.965 286.362 254.427 279.324C258.312 274.317 264.26 271.771 270.63 272.326C287.558 273.798 290.237 294.249 278.087 303.588C273.027 307.481 267.099 312.025 260.303 317.221C260.273 317.246 260.236 317.26 260.198 317.261C260.16 317.262 260.123 317.251 260.091 317.228C260.059 317.205 260.034 317.173 260.02 317.135C260.006 317.097 260.004 317.055 260.013 317.016C261.219 312.202 263.307 308.957 267.083 305.132C272.778 299.353 280.041 293.984 277.339 284.681C274.89 276.26 263.512 276.235 258.794 282.534C256.775 285.244 255.167 288.8 253.968 293.199C248.563 312.938 249.118 331.29 246.391 350.413C246.021 353.011 245.526 353.036 244.907 350.486C242.052 338.718 238.883 326.435 235.4 313.638C232.83 304.227 227.533 280.326 216.421 278.455C211.353 277.611 206.937 281.11 206.696 286.214C206.141 298.375 218.339 302.273 222.876 311.732C224.042 314.161 223.551 314.587 221.404 313.011C215.118 308.414 208.627 305.675 203.39 298.93C198.484 292.6 197.792 286.057 201.315 279.3C205.61 271.072 217.084 270.89 223.817 276.03C231.539 281.93 237.451 293.561 240.636 302.297Z" fill="black"/>
<path d="M245.329 358.208C245.361 358.265 245.407 358.312 245.464 358.344C245.52 358.377 245.583 358.394 245.647 358.392C245.711 358.391 245.773 358.372 245.826 358.337C245.878 358.303 245.919 358.254 245.945 358.196C252.508 344.309 263.62 334.475 279.981 336.189C282.024 336.398 283.737 337.021 285.121 338.059C286.207 338.871 286.118 339.028 284.855 338.529C278.931 336.201 274.54 338.759 269.979 343.114C261.593 351.102 251.29 359.523 246.138 369.549C246.116 369.596 246.081 369.635 246.038 369.663C245.995 369.691 245.945 369.706 245.894 369.707C245.843 369.708 245.792 369.696 245.748 369.67C245.704 369.644 245.667 369.607 245.643 369.561C239.888 359.366 229.62 350.752 221.223 342.692C217.41 339.024 212.475 336.249 207.758 338.831C205.457 340.094 205.313 339.881 207.323 338.191C214.044 332.557 229.801 337.974 235.267 343.898C239.321 348.298 242.675 353.068 245.329 358.208Z" fill="black"/>
<path d="M276.675 348.242C275.678 347.976 274.668 347.884 273.647 347.964C273.561 347.973 273.475 347.957 273.398 347.919C273.321 347.881 273.257 347.823 273.211 347.75C273.166 347.677 273.142 347.593 273.142 347.507C273.143 347.421 273.167 347.337 273.212 347.264C275.264 343.91 280.259 339.76 283.794 344.236C284.735 345.434 284.864 346.621 284.18 347.795C281.839 351.849 279.523 349.002 276.675 348.242Z" fill="black"/>
<path d="M281.513 330.771C279.378 330.868 276.965 330.663 275.095 330.88C269.625 331.523 264.811 333.389 260.652 336.478C259.422 337.395 259.12 337.158 259.747 335.766C261.308 332.316 264.191 329.577 268.398 327.55C268.957 327.279 269.584 327.183 270.199 327.273C270.815 327.363 271.389 327.636 271.849 328.056C272.315 328.491 273.12 328.728 274.262 328.768C276.812 328.857 279.253 329.384 281.586 330.349C282.205 330.606 282.181 330.747 281.513 330.771Z" fill="black"/>
<path d="M275.794 182.488C277.496 183.791 279.378 183.646 280.355 186.023C280.398 186.126 280.413 186.238 280.399 186.349C280.385 186.459 280.343 186.564 280.275 186.653C280.208 186.742 280.119 186.812 280.017 186.856C279.914 186.9 279.802 186.916 279.692 186.904C272.923 186.168 266.83 185.323 263.222 192.647C260.978 197.224 259.217 201.752 257.938 206.232C257.592 207.447 257.367 207.423 257.262 206.16C256.45 196.17 259.012 187.181 264.948 179.194C266.436 177.191 268.495 176.439 271.125 176.938C273.502 177.396 274.576 179.447 275.179 181.571C275.284 181.941 275.489 182.246 275.794 182.488Z" fill="black"/>
<path d="M267.083 355.107C270.091 352.115 273.622 351.041 277.676 351.885C277.971 351.945 278.243 352.087 278.46 352.294C278.677 352.502 278.831 352.767 278.905 353.058C278.978 353.35 278.967 353.656 278.874 353.942C278.78 354.227 278.608 354.481 278.376 354.672L277.894 355.083C277.405 355.486 276.823 355.76 276.202 355.88C275.58 356 274.938 355.962 274.334 355.77C272.018 355.03 269.701 354.982 267.385 355.626C266.629 355.835 266.528 355.662 267.083 355.107Z" fill="black"/>
<path d="M270.305 165.801C262.088 176.069 256.562 188.038 254.97 201.153C254.519 204.869 254.137 208.396 253.823 211.734C253.719 212.917 253.51 212.933 253.196 211.782C251.7 206.244 250.083 200.477 251.386 194.131C253.244 185.021 258.963 175.116 264.296 167.575C266.685 164.185 269.906 161.168 272.899 158.14C274.105 156.917 274.978 156.238 275.517 156.101C277.665 155.562 278.047 156.153 276.663 157.874C274.491 160.577 272.372 163.219 270.305 165.801Z" fill="black"/>
<path d="M270.124 262.291C270.434 261.779 270.986 261.443 271.66 261.357C272.334 261.27 273.074 261.441 273.718 261.83C274.036 262.023 274.321 262.264 274.557 262.539C274.792 262.814 274.974 263.118 275.09 263.434C275.207 263.749 275.257 264.07 275.237 264.378C275.217 264.686 275.128 264.975 274.974 265.229C274.664 265.741 274.111 266.077 273.437 266.163C272.763 266.25 272.023 266.079 271.38 265.69C271.062 265.497 270.776 265.256 270.541 264.981C270.305 264.706 270.124 264.401 270.008 264.086C269.891 263.77 269.841 263.449 269.861 263.141C269.881 262.833 269.97 262.545 270.124 262.291Z" fill="black"/>
<path d="M271.762 156.284C271.195 156.207 270.685 155.878 270.345 155.369C270.005 154.859 269.863 154.211 269.95 153.567C269.993 153.249 270.091 152.941 270.239 152.661C270.386 152.381 270.58 152.134 270.809 151.936C271.038 151.737 271.298 151.59 271.575 151.504C271.851 151.417 272.137 151.392 272.419 151.43C272.986 151.506 273.496 151.836 273.836 152.345C274.176 152.855 274.318 153.502 274.231 154.146C274.188 154.465 274.09 154.773 273.942 155.053C273.795 155.333 273.601 155.579 273.372 155.778C273.143 155.976 272.882 156.123 272.606 156.21C272.33 156.297 272.043 156.322 271.762 156.284Z" fill="black"/>
<path d="M245.595 374.641C245.629 374.698 245.677 374.746 245.736 374.779C245.794 374.812 245.86 374.83 245.926 374.83C245.993 374.83 246.059 374.812 246.117 374.779C246.175 374.746 246.224 374.698 246.258 374.641C250.867 366.823 257.986 363.275 266.202 360.307C268.125 359.616 269.279 359.29 269.665 359.33C273.212 359.668 273.385 360.621 270.184 362.189C261.871 366.28 252.182 371.359 246.113 379.95C245.735 380.488 245.418 380.456 245.16 379.853L244.605 378.55C244.589 378.534 244.573 378.514 244.557 378.49C238.307 371.057 229.584 366.762 221.464 362.201C220.201 361.486 219.413 360.826 219.099 360.223C218.665 359.394 218.906 359.048 219.823 359.185C229.874 360.645 240.117 365.568 245.595 374.641Z" fill="black"/>
<path d="M266.673 267.054L261.907 269.25C261.84 269.281 261.764 269.289 261.691 269.271C261.619 269.254 261.555 269.212 261.509 269.152C261.464 269.093 261.441 269.02 261.443 268.946C261.445 268.871 261.473 268.8 261.521 268.743C264.184 265.558 267.425 264.757 271.246 266.342C271.477 266.437 271.667 266.61 271.786 266.829C271.905 267.049 271.944 267.303 271.897 267.548L271.801 268.019C271.757 268.238 271.633 268.432 271.453 268.566C271.273 268.7 271.049 268.763 270.824 268.743C269.537 268.63 268.439 268.12 267.53 267.211C267.28 266.961 266.995 266.909 266.673 267.054Z" fill="black"/>
<path d="M253.051 323.399C253.148 312.07 254.74 298.798 262.667 289.978C268.036 284.018 274.986 290.473 269.762 295.89C261.256 304.722 258.625 313.312 254.716 323.701C253.582 326.725 253.027 326.624 253.051 323.399Z" fill="black"/>
<path d="M265.877 193.721L264.115 196.037C263.6 196.705 263.407 196.624 263.536 195.796C263.801 193.986 265.72 192.285 266.781 190.801C267.976 189.124 269.617 188.327 271.065 190.282C271.238 190.517 271.34 190.798 271.36 191.089C271.379 191.381 271.315 191.672 271.174 191.928C271.033 192.185 270.822 192.395 270.565 192.535C270.308 192.675 270.017 192.739 269.725 192.719C268.776 192.655 267.855 192.743 266.962 192.985C266.52 193.105 266.158 193.351 265.877 193.721Z" fill="black"/>
<path d="M249.902 176.238C260.544 158.285 267.385 143.119 268.085 123.621C268.089 123.601 268.099 123.583 268.113 123.569C268.128 123.556 268.147 123.547 268.167 123.544C268.187 123.542 268.207 123.545 268.225 123.555C268.242 123.564 268.257 123.579 268.266 123.597C274.576 146.449 260.049 172.872 248.032 190.68C247.979 190.756 247.905 190.817 247.82 190.854C247.735 190.891 247.641 190.905 247.549 190.892C247.457 190.88 247.37 190.842 247.297 190.783C247.225 190.725 247.17 190.647 247.139 190.559C245.245 185.118 246.826 181.426 249.902 176.238Z" fill="black"/>
<path d="M244.545 172.329C245.744 170.382 246.186 168.219 245.872 165.838C245.647 164.157 245.727 163.075 246.114 162.592C247.867 160.404 248.591 160.706 248.285 163.497C248.205 164.229 248.289 164.828 248.539 165.295C248.868 165.906 249.126 165.874 249.311 165.198C250.147 162.15 250.413 159.053 250.107 155.908C250.079 155.66 250.138 155.409 250.275 155.2C250.411 154.991 250.617 154.836 250.855 154.762L251.169 154.653C251.239 154.629 251.316 154.634 251.384 154.665C251.451 154.697 251.504 154.753 251.531 154.822C251.989 155.932 252.235 157.086 252.267 158.285C252.267 158.367 252.296 158.445 252.347 158.508C252.399 158.57 252.47 158.613 252.551 158.63C252.632 158.647 252.716 158.636 252.792 158.6C252.867 158.563 252.929 158.503 252.967 158.43C254.109 155.984 254.624 153.406 254.511 150.696C254.487 150.255 254.634 149.822 254.921 149.489C257.592 146.36 259.458 142.817 260.52 138.86C260.576 138.626 260.725 138.534 260.966 138.582L261.328 138.667C261.376 138.683 261.396 138.715 261.388 138.763C260.729 142.471 260.001 146.175 259.204 149.875C257.817 156.318 254.68 160.963 251.857 166.706C246.91 176.793 239.019 184.889 233.952 195.024C233.34 196.246 233.027 196.174 233.011 194.807L232.854 173.765C232.853 173.655 232.881 173.547 232.934 173.45C232.986 173.354 233.063 173.272 233.155 173.213C233.248 173.154 233.354 173.12 233.464 173.113C233.574 173.106 233.683 173.127 233.783 173.173L234.253 173.391C234.865 173.68 235.178 174.163 235.194 174.839L235.412 183.936C235.428 184.644 235.677 184.736 236.16 184.213C238.484 181.671 239.417 178.659 238.959 175.176C238.935 175.015 239.003 174.923 239.164 174.899L239.562 174.851C239.844 174.81 240.025 174.927 240.105 175.2L240.624 177.01C240.809 177.678 241.09 177.722 241.468 177.143C241.79 176.644 241.935 176.097 241.903 175.502C241.726 172.832 241.895 170.326 242.41 167.985C242.44 167.848 242.516 167.725 242.626 167.638C242.736 167.55 242.872 167.502 243.013 167.503H243.423C243.52 167.503 243.615 167.522 243.704 167.56C243.793 167.598 243.873 167.654 243.94 167.724C244.006 167.794 244.058 167.877 244.091 167.967C244.125 168.058 244.14 168.154 244.135 168.251L243.99 172.16C243.958 172.916 244.143 172.972 244.545 172.329Z" fill="black"/>
<path d="M213.609 130.522L214.526 129.292C214.609 129.183 214.717 129.095 214.84 129.036C214.963 128.977 215.099 128.948 215.234 128.951C215.37 128.955 215.503 128.991 215.621 129.056C215.739 129.122 215.84 129.215 215.914 129.328C219.208 134.25 210.834 137.725 208.614 132.284C207.094 128.568 207.914 125.523 211.076 123.15C216.831 118.843 223.612 124.357 224.287 130.317C224.585 133.012 223.945 135.658 222.369 138.256C215.986 148.729 200.832 144.41 197.092 133.285C195.322 128.009 195.934 122.788 198.926 117.624C209.133 100.021 234.688 103.568 243.302 120.496C246.475 126.746 245.221 134.6 242.807 140.802C242.742 140.971 242.616 141.109 242.455 141.19C242.294 141.27 242.11 141.287 241.939 141.236C241.665 141.156 241.432 141.015 241.239 140.814C241.152 140.724 241.087 140.615 241.047 140.496C241.007 140.377 240.995 140.251 241.01 140.126C241.179 138.646 240.66 137.613 239.453 137.026C239.059 136.832 238.894 136.515 238.959 136.072C240.889 123.585 230.983 110.892 217.615 112.979C209.885 114.186 205.268 118.429 203.764 125.708C203 129.376 203.792 132.429 206.141 134.866C214.237 143.312 224.613 129.702 215.733 126.348C212.849 125.25 211.498 127.434 211.968 130.124C211.998 130.302 212.079 130.467 212.201 130.599C212.323 130.731 212.482 130.824 212.657 130.867C212.832 130.909 213.016 130.899 213.185 130.838C213.354 130.777 213.502 130.667 213.609 130.522Z" fill="black"/>
<path d="M192.676 355.082C187.235 343.608 186.837 331.326 188.755 318.959C188.763 318.919 188.783 318.903 188.815 318.911L189.117 318.923C189.334 318.939 189.447 319.055 189.455 319.273C189.998 342.124 201.351 359.788 218.677 372.831C223.97 376.812 229.287 380.762 234.627 384.679C241.022 389.372 245.329 395.429 243.52 403.766C243.222 405.118 242.707 405.202 241.975 404.02C240.286 401.285 237.953 398.824 234.977 396.636C218.122 384.22 202.099 374.906 192.676 355.082Z" fill="black"/>
<path d="M211.679 319.695C211.8 319.599 211.899 319.478 211.967 319.34C212.036 319.202 212.074 319.05 212.077 318.895C212.081 318.741 212.05 318.588 211.988 318.446C211.925 318.305 211.832 318.18 211.715 318.078C210.541 317.065 209.391 315.971 208.264 314.797C206.43 312.902 204.391 312.577 202.159 311.672C200.784 311.125 200.836 310.843 202.316 310.827C220.028 310.682 236.015 327.67 239.634 344.248C239.731 344.691 239.558 344.888 239.116 344.839C239.003 344.831 238.858 344.695 238.681 344.429C230.863 332.726 224.975 321.034 208.361 322.241C207.983 322.265 207.766 322.092 207.709 321.722L207.661 321.348C207.637 321.195 207.705 321.111 207.866 321.095C209.387 320.958 210.657 320.492 211.679 319.695Z" fill="black"/>
<path d="M232.902 123.681C225.554 116.599 217.591 116.659 208.795 121.425C208.713 121.469 208.619 121.485 208.527 121.473C208.434 121.461 208.348 121.42 208.28 121.356C208.213 121.292 208.166 121.208 208.148 121.117C208.13 121.026 208.141 120.931 208.18 120.846C208.461 120.219 208.908 119.7 209.519 119.29C214.309 116.068 217.265 114.15 223.382 116.02C227.476 117.267 230.786 119.591 233.312 122.994C233.441 123.163 233.445 123.335 233.324 123.512C233.252 123.641 233.163 123.714 233.059 123.73C233.002 123.738 232.95 123.722 232.902 123.681Z" fill="black"/>
<path d="M225.482 297.302C229.037 305.531 231.402 314.105 232.576 323.026C232.632 323.42 232.536 323.46 232.287 323.146C229.648 319.76 228.011 317.339 227.376 315.883C224.352 308.925 220.402 302.53 215.528 296.699C214.152 295.05 213.316 293.164 213.018 291.04C212.934 290.43 213.078 289.811 213.423 289.299C213.768 288.788 214.289 288.42 214.888 288.265C219.304 287.131 224.034 293.96 225.482 297.302Z" fill="black"/>
<path d="M222.996 179.17C225.626 184.599 226.041 184.434 224.239 178.675C221.681 170.495 219.775 162.508 213.103 155.884C212.62 155.401 212.704 155.256 213.356 155.449C217.12 156.547 221.174 161.916 222.972 165.246C230.742 179.725 231.756 197.425 227.834 213.025C227.127 215.84 226.636 215.804 226.362 212.917C226.282 212.08 226.198 210.568 226.109 208.38C225.518 193.853 219.292 172.836 207.07 163.328C203.949 160.899 204.182 160.513 207.77 162.17C214.189 165.126 219.944 172.86 222.996 179.17Z" fill="black"/>
<path d="M209.917 331.423C212.58 330.103 215.323 328.937 218.146 327.924C222.091 326.5 223.479 328.261 226.037 330.819C227.838 332.629 229.15 334.085 229.97 335.187C230.037 335.273 230.071 335.38 230.066 335.488C230.061 335.597 230.018 335.701 229.944 335.78C229.87 335.86 229.77 335.911 229.662 335.924C229.554 335.937 229.445 335.911 229.355 335.851C223.201 331.857 216.903 329.83 209.302 331.724C209.23 331.748 209.189 331.728 209.181 331.664C209.181 331.648 209.181 331.632 209.181 331.616C209.181 331.583 209.197 331.563 209.23 331.555C209.334 331.531 209.439 331.519 209.543 331.519C209.68 331.519 209.805 331.487 209.917 331.423Z" fill="black"/>
<path d="M224.275 354.733L214.949 355.843C213.742 355.98 212.958 355.469 212.596 354.311L212.415 353.707C212.359 353.523 212.342 353.33 212.364 353.139C212.387 352.948 212.449 352.764 212.547 352.599C212.644 352.433 212.775 352.289 212.931 352.177C213.087 352.065 213.265 351.986 213.453 351.946C217.482 351.109 221.11 351.966 224.336 354.516C224.496 354.636 224.476 354.709 224.275 354.733Z" fill="black"/>
<path d="M202.353 181.861C205.57 177.461 209.186 177.107 213.199 180.799C220.982 187.966 221.911 195.024 223.515 204.966C223.539 205.135 223.471 205.239 223.31 205.279L223.298 205.291C223.129 205.332 223.016 205.267 222.96 205.098C220.764 198.462 216.795 186.807 208.12 187.109C203.881 187.254 200.241 185.951 197.201 183.2C196.356 182.444 196.501 182.09 197.635 182.138L201.411 182.307C201.806 182.331 202.119 182.182 202.353 181.861Z" fill="black"/>
<path d="M210.641 266.475C213.139 265.401 217.289 266.065 218.532 268.864C218.571 268.952 218.58 269.051 218.56 269.146C218.539 269.24 218.489 269.325 218.416 269.39C218.344 269.454 218.253 269.494 218.157 269.503C218.061 269.513 217.964 269.492 217.881 269.443C215.765 268.164 213.465 267.617 210.979 267.802C210.902 267.809 210.825 267.799 210.752 267.774C210.679 267.75 210.612 267.71 210.555 267.658C210.498 267.605 210.453 267.542 210.422 267.471C210.391 267.401 210.376 267.324 210.376 267.247C210.384 267.118 210.384 266.994 210.376 266.873C210.376 266.688 210.464 266.555 210.641 266.475Z" fill="black"/>
<path d="M218.182 347.47C214.382 347.542 211.293 350.631 208.108 348.857C207.732 348.647 207.411 348.352 207.167 347.997C206.924 347.642 206.766 347.236 206.705 346.81C206.645 346.384 206.683 345.95 206.817 345.541C206.952 345.132 207.179 344.76 207.48 344.453C211.377 340.496 215.817 343.162 218.52 346.782C218.842 347.224 218.729 347.454 218.182 347.47Z" fill="black"/>
<path d="M211.691 191.79L209.821 192.393C209.516 192.487 209.192 192.494 208.885 192.413C208.578 192.332 208.3 192.166 208.084 191.935C207.513 191.34 207.319 190.664 207.504 189.908C207.58 189.595 207.731 189.306 207.944 189.065C208.157 188.824 208.425 188.638 208.726 188.524C209.026 188.41 209.35 188.371 209.669 188.41C209.988 188.45 210.293 188.566 210.557 188.75C213.469 190.777 215.846 193.326 217.688 196.399C217.736 196.48 217.704 196.568 217.591 196.665C217.559 196.689 217.535 196.713 217.519 196.737C217.422 196.841 217.322 196.838 217.217 196.725L212.729 192.056C212.598 191.921 212.432 191.825 212.249 191.778C212.066 191.731 211.873 191.735 211.691 191.79Z" fill="black"/>
<path d="M208.892 265.184C208.815 265.198 208.736 265.183 208.671 265.14C208.605 265.097 208.559 265.031 208.542 264.955L208.506 264.774C208.437 264.435 208.436 264.085 208.503 263.746C208.569 263.406 208.702 263.083 208.894 262.795C209.086 262.507 209.332 262.26 209.62 262.067C209.907 261.875 210.23 261.741 210.569 261.673L210.81 261.637C211.493 261.502 212.202 261.643 212.781 262.03C213.36 262.417 213.762 263.017 213.899 263.7L213.935 263.869C213.944 263.909 213.944 263.95 213.937 263.989C213.93 264.029 213.914 264.067 213.892 264.101C213.869 264.135 213.84 264.164 213.806 264.186C213.772 264.209 213.734 264.224 213.694 264.231L208.892 265.184Z" fill="black"/>
<path fill-rule="evenodd" clip-rule="evenodd" d="M259.168 117.431C250.493 123.452 246.572 131.536 245.124 141.767C244.742 144.494 245.627 146.901 246.533 149.367C246.713 149.859 246.894 150.353 247.067 150.852C247.092 150.928 247.138 150.995 247.2 151.045C247.263 151.095 247.338 151.125 247.417 151.133C247.497 151.141 247.576 151.125 247.647 151.088C247.718 151.051 247.776 150.994 247.815 150.925C249.022 148.817 250.425 146.774 252.026 144.796C256.771 138.94 259.229 132.276 259.398 124.803C259.416 124.036 259.493 123.181 259.573 122.287C259.708 120.791 259.853 119.185 259.748 117.697C259.715 117.271 259.522 117.182 259.168 117.431ZM252.858 134.026C252.752 134.764 252.776 135.203 252.923 135.247C253.07 135.29 253.329 134.935 253.643 134.258C253.957 133.582 254.299 132.64 254.596 131.64C254.892 130.64 255.117 129.663 255.223 128.925C255.328 128.187 255.305 127.748 255.157 127.704C255.01 127.66 254.751 128.016 254.438 128.693C254.124 129.369 253.781 130.311 253.485 131.311C253.189 132.311 252.963 133.288 252.858 134.026Z" fill="black"/>
<path fill-rule="evenodd" clip-rule="evenodd" d="M228.056 162.152C230.508 163.911 233.488 164.575 236.34 164C239.191 163.426 241.68 161.658 243.26 159.087C244.84 156.515 245.38 153.351 244.763 150.289C244.146 147.228 242.421 144.52 239.968 142.762C237.516 141.003 234.536 140.339 231.685 140.914C228.833 141.489 226.344 143.256 224.764 145.828C223.184 148.399 222.644 151.563 223.261 154.625C223.878 157.686 225.603 160.394 228.056 162.152ZM231.387 155.264C232.374 156.113 233.645 156.524 234.92 156.406C235.551 156.347 236.164 156.16 236.724 155.856C237.283 155.552 237.779 155.137 238.183 154.634C238.586 154.13 238.889 153.549 239.075 152.923C239.26 152.298 239.324 151.639 239.264 150.986C239.141 149.667 238.518 148.449 237.53 147.6C236.542 146.751 235.271 146.34 233.997 146.458C233.366 146.517 232.753 146.703 232.193 147.007C231.633 147.311 231.137 147.727 230.734 148.23C230.331 148.733 230.028 149.315 229.842 149.94C229.656 150.566 229.592 151.225 229.653 151.878C229.775 153.197 230.399 154.415 231.387 155.264Z" fill="black"/>
<path fill-rule="evenodd" clip-rule="evenodd" d="M241.396 266.547C242.675 262.747 237.945 253.094 235.701 249.149C235.508 248.811 235.239 248.546 234.893 248.353C233.574 247.589 232.251 246.402 230.923 244.793C227.626 240.768 222.679 238.563 217.774 236.377C216.99 236.027 216.207 235.678 215.431 235.322C207.432 231.654 202.847 227.443 200.47 218.889C198.998 213.588 196.895 208.585 194.16 203.88C194.105 203.782 194.077 203.672 194.079 203.56C194.08 203.448 194.112 203.339 194.17 203.245C194.229 203.15 194.312 203.074 194.41 203.025C194.43 203.014 194.451 203.005 194.473 202.997C194.484 202.993 194.495 202.989 194.506 202.986L194.531 202.979L194.563 202.972C194.617 202.961 194.672 202.958 194.727 202.963C196.286 203.089 197.757 203.174 199.158 203.255C206.735 203.695 212.262 204.015 218.544 210.033C223.955 215.223 225.182 222.305 226.478 229.782L226.64 230.713C227.621 236.344 230.264 241.849 234.567 247.23C234.608 247.276 234.65 247.299 234.691 247.3C234.73 247.301 234.769 247.282 234.808 247.242L235.134 246.905C235.234 246.809 235.299 246.682 235.319 246.542C235.339 246.402 235.312 246.258 235.243 246.133C224.77 227.709 228.703 208.03 240.286 190.97C240.664 190.415 241.034 190.423 241.396 190.994C250.421 205.231 254.716 220.035 251.048 236.734C250.043 241.311 249.323 244.677 248.889 246.832C248.8 247.259 248.949 247.371 249.335 247.17C250.027 246.808 250.312 246.269 250.192 245.553C250.127 245.159 250.164 244.777 250.3 244.407C250.712 243.281 251.142 242.181 251.568 241.09C252.841 237.833 254.081 234.66 254.704 231.135C254.867 230.222 255.017 229.312 255.166 228.407C256.188 222.215 257.165 216.284 261.955 211.336C269.291 203.783 277.604 202.866 287.667 202.564C287.723 202.563 287.779 202.566 287.833 202.576C287.933 202.593 288.029 202.627 288.116 202.679C288.143 202.695 288.169 202.712 288.194 202.731C288.214 202.746 288.234 202.762 288.252 202.779C288.327 202.846 288.389 202.926 288.435 203.016C288.507 203.157 288.538 203.315 288.523 203.472C288.509 203.629 288.451 203.779 288.354 203.904C285.024 208.247 282.849 213.162 281.827 218.648C281.328 221.35 279.997 224.242 277.834 227.323C274.46 232.11 269.971 234.902 264.89 238.062L263.995 238.619L263.461 238.953C262.932 239.284 262.398 239.621 261.859 239.967C252.641 245.855 246.029 258.27 241.71 269.057C241.509 269.54 241.267 269.56 240.986 269.117C239.956 267.516 239.011 265.9 238.151 264.267C234.338 257.052 222.647 241.149 214.092 242.694C211.977 243.072 211.792 242.633 213.537 241.379C222.067 235.25 234.072 249.921 237.246 256.231C238.202 258.128 238.964 260.536 239.722 262.933L239.724 262.94L239.726 262.947C239.849 263.335 239.972 263.724 240.096 264.11C240.362 264.941 240.632 265.761 240.913 266.547C241.074 267.014 241.235 267.014 241.396 266.547ZM278.038 212.748C276.325 213.906 274.608 215.133 272.886 216.428C272.38 216.814 272.223 216.701 272.416 216.09C273.269 213.492 274.322 211.453 275.577 209.973C276.671 208.678 276.912 208.822 276.301 210.407L275.348 212.881C275.291 213.025 275.332 213.13 275.468 213.194L275.536 213.233L275.61 213.272C275.662 213.3 275.716 213.326 275.77 213.351C275.808 213.37 275.844 213.379 275.879 213.378C275.934 213.377 275.986 213.352 276.036 213.303L281.272 208.501C282.02 207.817 282.185 207.934 281.767 208.851C281.147 210.202 279.904 211.501 278.038 212.748ZM278.615 214.069C278.581 214.076 278.549 214.09 278.521 214.111L271.511 219.275C271.485 219.293 271.462 219.317 271.445 219.343L271.434 219.362L271.426 219.38C271.422 219.388 271.419 219.397 271.417 219.406C271.414 219.414 271.412 219.423 271.41 219.431C271.407 219.448 271.406 219.466 271.407 219.482C271.407 219.497 271.409 219.512 271.412 219.526C271.416 219.542 271.421 219.557 271.427 219.571C271.433 219.586 271.441 219.6 271.451 219.613L271.535 219.722C271.666 219.906 271.888 220.021 272.189 220.06C272.49 220.098 272.864 220.06 273.289 219.947C273.714 219.833 274.182 219.647 274.666 219.4C274.93 219.264 275.196 219.112 275.46 218.946C275.569 218.876 275.679 218.804 275.787 218.73C275.895 218.657 276.002 218.581 276.108 218.503L276.41 218.274C276.877 217.931 277.313 217.555 277.694 217.169C278.074 216.782 278.391 216.392 278.627 216.021C278.862 215.65 279.011 215.305 279.065 215.006C279.12 214.708 279.078 214.461 278.943 214.28L278.859 214.16C278.821 214.108 278.763 214.074 278.7 214.065C278.687 214.064 278.674 214.063 278.661 214.063C278.646 214.064 278.63 214.065 278.615 214.069ZM267.522 224.463C267.527 224.433 267.538 224.402 267.553 224.369C267.594 224.286 267.668 224.191 267.777 224.087C267.983 223.889 268.307 223.659 268.73 223.411C269.154 223.162 269.668 222.9 270.245 222.64C270.821 222.379 271.448 222.124 272.09 221.891C272.732 221.657 273.376 221.449 273.985 221.278C274.594 221.108 275.157 220.977 275.641 220.895C276.125 220.814 276.521 220.781 276.806 220.8C277.091 220.82 277.26 220.89 277.303 221.008C277.346 221.125 277.262 221.288 277.056 221.486C276.85 221.684 276.526 221.914 276.102 222.162C275.881 222.292 275.635 222.425 275.368 222.56C275.235 222.627 275.097 222.695 274.955 222.763L274.775 222.848L274.587 222.933C274.307 223.06 274.014 223.186 273.714 223.308C273.397 223.437 273.072 223.562 272.742 223.682C272.1 223.916 271.457 224.124 270.847 224.295C270.238 224.466 269.675 224.595 269.191 224.677C268.909 224.725 268.658 224.756 268.44 224.77C268.284 224.78 268.145 224.78 268.026 224.772C267.88 224.762 267.764 224.739 267.68 224.702C267.601 224.668 267.55 224.622 267.53 224.565C267.524 224.55 267.521 224.534 267.519 224.518C267.518 224.5 267.519 224.482 267.522 224.463ZM253.751 243.418C254.306 243.233 254.817 242.924 255.283 242.489C256.401 241.427 257.415 240.269 258.324 239.014C261.823 234.2 268.145 230.303 273.116 227.263C275.601 225.742 275.412 225.24 272.549 225.755C267.312 226.696 257.093 238.858 253.63 243.237C253.469 243.446 253.51 243.507 253.751 243.418ZM272.983 210.383C271.463 213.592 270.727 215.825 270.22 219.275C270.148 219.75 270.015 220.092 269.822 220.301C269.524 220.598 269.17 220.715 268.76 220.651C268.679 220.639 268.601 220.611 268.531 220.568C268.502 220.552 268.476 220.533 268.451 220.512C268.413 220.48 268.38 220.444 268.351 220.404C268.336 220.383 268.322 220.362 268.31 220.34L268.294 220.308C268.287 220.295 268.281 220.281 268.275 220.267C268.27 220.254 268.266 220.241 268.261 220.227C268.257 220.213 268.253 220.198 268.249 220.182C268.23 220.102 268.228 220.02 268.241 219.939C268.845 216.166 270.091 212.631 271.982 209.333C272.134 209.068 272.311 209.048 272.512 209.273L272.874 209.659L272.899 209.688L272.921 209.718C272.98 209.803 273.02 209.901 273.035 210.005C273.045 210.069 273.045 210.133 273.037 210.196C273.028 210.26 273.01 210.323 272.983 210.383ZM263.825 221.809C264.903 218.189 266.552 214.851 268.772 211.794C268.795 211.769 268.79 211.718 268.759 211.653C268.727 211.588 268.672 211.513 268.603 211.445C268.555 211.396 268.454 211.368 268.302 211.36C268.253 211.36 268.213 211.372 268.181 211.396C265.165 214.179 263.415 217.586 262.933 221.616C262.514 225.171 262.812 225.235 263.825 221.809ZM243.314 228.469C243.065 228.654 242.944 228.899 242.952 229.205C242.964 229.282 242.944 229.36 242.897 229.422C242.851 229.484 242.782 229.526 242.705 229.537C242.628 229.548 242.55 229.528 242.488 229.482L242.47 229.468L242.45 229.448C242.409 229.404 242.382 229.349 242.373 229.289C242.261 228.871 242.269 228.445 242.397 228.01C244.159 221.889 243.837 216.098 241.432 210.636C240.869 209.374 240.439 209.418 240.141 210.769C239.498 213.713 239.486 216.669 240.105 219.637C240.193 220.055 240.399 220.405 240.72 220.687C240.75 220.712 240.779 220.739 240.807 220.766C240.832 220.791 240.856 220.816 240.879 220.842L240.902 220.87L240.93 220.903C240.997 220.988 241.056 221.081 241.106 221.181C241.275 221.543 241.231 221.881 240.974 222.195C239.903 223.465 240.123 226.175 240.321 228.603C240.422 229.842 240.516 231.007 240.431 231.871C240.31 233.078 240.012 233.122 239.538 232.004C236.896 225.766 237.909 213.459 240.431 208.054L240.44 208.035L240.452 208.015L240.462 208C240.489 207.962 240.523 207.93 240.563 207.905C240.62 207.869 240.687 207.851 240.754 207.852C240.822 207.854 240.888 207.875 240.944 207.913C241 207.951 241.044 208.004 241.07 208.066C241.32 208.625 241.731 209.368 242.206 210.227L242.208 210.231C244.033 213.53 246.808 218.546 245.076 221.483C244.939 221.708 244.879 221.954 244.895 222.219C245.136 227.685 244.931 232.402 241.589 236.746C241.551 236.793 241.5 236.829 241.443 236.848C241.385 236.867 241.323 236.869 241.264 236.854C241.206 236.838 241.153 236.807 241.112 236.762C241.092 236.74 241.076 236.716 241.063 236.691C241.049 236.663 241.039 236.632 241.034 236.601L240.865 235.479C240.839 235.313 240.85 235.145 240.898 234.986C240.946 234.827 241.03 234.682 241.143 234.562C242.647 232.953 243.584 231.055 243.954 228.867C243.966 228.788 243.954 228.707 243.921 228.634C243.887 228.561 243.833 228.5 243.765 228.458C243.697 228.415 243.618 228.394 243.538 228.396C243.458 228.398 243.38 228.423 243.314 228.469ZM237.948 234.3C238.029 234.403 238.095 234.448 238.143 234.433C238.192 234.419 238.222 234.344 238.231 234.214C238.241 234.084 238.229 233.9 238.198 233.675C238.167 233.449 238.116 233.184 238.05 232.897C238.033 232.826 238.015 232.753 237.997 232.679L237.95 232.499C237.906 232.335 237.859 232.168 237.808 232.001C237.744 231.79 237.676 231.582 237.605 231.382L237.554 231.239L237.51 231.121C237.406 230.846 237.301 230.598 237.201 230.393C237.101 230.188 237.009 230.029 236.928 229.926C236.848 229.823 236.782 229.778 236.733 229.792C236.685 229.807 236.655 229.882 236.646 230.012C236.636 230.142 236.647 230.326 236.679 230.552C236.71 230.777 236.76 231.041 236.827 231.329C236.894 231.616 236.976 231.92 237.069 232.225C237.113 232.369 237.159 232.512 237.206 232.652C237.258 232.808 237.312 232.959 237.367 233.105C237.471 233.381 237.576 233.628 237.676 233.833C237.775 234.038 237.868 234.197 237.948 234.3ZM236.437 215.873C236.413 217.176 236.22 218.612 235.882 219.855C235.737 220.377 235.665 220.369 235.665 219.831L235.641 215.547C235.641 215.535 235.642 215.525 235.645 215.516C235.649 215.5 235.656 215.488 235.667 215.479C235.681 215.468 235.7 215.463 235.725 215.463L236.039 215.475C236.304 215.475 236.437 215.607 236.437 215.873ZM207.878 225.658C210.605 228.686 215.552 231.63 219.811 232.861C221.291 233.295 221.335 233.09 219.944 232.246L208.276 225.175C207.07 224.443 206.937 224.604 207.878 225.658ZM213.368 211.457C213.288 211.344 213.304 211.251 213.416 211.179L213.718 210.998C213.887 210.886 214.032 210.914 214.152 211.083C216.847 214.895 218.866 219.07 220.209 223.606C220.224 223.665 220.223 223.714 220.206 223.755C220.185 223.803 220.142 223.838 220.076 223.86L219.727 223.968C219.509 224.041 219.369 223.964 219.304 223.739C218.074 219.275 216.095 215.181 213.368 211.457ZM216.105 220.58C216.103 220.554 216.095 220.529 216.083 220.506L210.883 209.888C210.86 209.844 210.82 209.811 210.773 209.795C210.726 209.779 210.674 209.783 210.629 209.804L210.557 209.84C210.262 209.993 210.244 210.678 210.507 211.745C210.769 212.812 211.29 214.175 211.957 215.535L212.282 216.211C212.951 217.574 213.71 218.822 214.393 219.682C215.076 220.542 215.628 220.942 215.926 220.796L215.998 220.771C216.022 220.76 216.043 220.744 216.06 220.724C216.077 220.704 216.089 220.681 216.097 220.657C216.105 220.632 216.108 220.606 216.105 220.58ZM205.528 222.019C205.503 222.005 205.479 221.989 205.457 221.971C205.405 221.93 205.362 221.878 205.329 221.82C205.297 221.762 205.276 221.698 205.269 221.632C205.261 221.566 205.267 221.499 205.285 221.435L205.338 221.249C205.357 221.185 205.388 221.125 205.429 221.073C205.47 221.022 205.522 220.978 205.58 220.946C205.608 220.93 205.637 220.918 205.667 220.908C205.7 220.897 205.734 220.89 205.768 220.885C205.834 220.878 205.901 220.884 205.965 220.902L213.55 223.077C213.614 223.095 213.674 223.126 213.726 223.167C213.744 223.182 213.762 223.198 213.778 223.215C213.807 223.246 213.833 223.281 213.854 223.318C213.872 223.351 213.886 223.385 213.896 223.42C213.905 223.448 213.911 223.477 213.914 223.506C213.918 223.541 213.918 223.577 213.915 223.611C213.912 223.642 213.906 223.673 213.898 223.704L213.845 223.889C213.826 223.953 213.795 224.013 213.754 224.065C213.734 224.091 213.711 224.114 213.686 224.135C213.674 224.145 213.662 224.154 213.649 224.164C213.635 224.174 213.619 224.184 213.603 224.193C213.584 224.203 213.565 224.213 213.545 224.22C213.503 224.237 213.46 224.248 213.415 224.253C213.349 224.261 213.282 224.255 213.218 224.237L205.633 222.062C205.596 222.051 205.561 222.037 205.528 222.019ZM208.337 214.98C209.189 216.492 208.803 216.951 207.179 216.356C207.122 216.331 206.817 216.026 206.262 215.439C204.347 213.42 202.622 211.208 201.086 208.803C200.547 207.974 200.358 208.047 200.518 209.02C201.351 214.135 206.913 218.286 211.498 219.734C211.739 219.806 211.812 219.73 211.715 219.504L207.299 209.177C206.76 207.906 206.523 207.962 206.587 209.346C206.676 211.212 207.259 213.09 208.337 214.98Z" fill="black"/>
<path d="M232.809 151.01C232.753 150.74 232.762 150.459 232.835 150.184C232.908 149.909 233.043 149.645 233.234 149.407C233.424 149.169 233.665 148.962 233.943 148.797C234.222 148.632 234.532 148.513 234.857 148.446C235.181 148.38 235.513 148.367 235.834 148.409C236.155 148.451 236.458 148.546 236.727 148.69C236.996 148.834 237.224 149.023 237.399 149.247C237.575 149.471 237.694 149.726 237.749 149.996C237.804 150.266 237.795 150.546 237.723 150.821C237.65 151.096 237.514 151.36 237.324 151.598C237.134 151.836 236.893 152.044 236.614 152.209C236.336 152.374 236.025 152.493 235.701 152.559C235.377 152.626 235.044 152.639 234.724 152.597C234.403 152.555 234.099 152.459 233.831 152.315C233.562 152.172 233.334 151.982 233.158 151.758C232.983 151.534 232.864 151.28 232.809 151.01Z" fill="black"/>
</svg>
