<svg width="512" height="512" viewBox="0 0 512 512" fill="none" xmlns="http://www.w3.org/2000/svg">
<rect width="512" height="512" fill="white"/>
<path d="M293.287 217.221L403.881 296.442C404.498 296.882 405.008 297.456 405.373 298.12C405.739 298.784 405.95 299.522 405.992 300.279C406.034 301.036 405.905 301.793 405.615 302.493C405.325 303.194 404.88 303.82 404.315 304.326C401.089 307.207 397.057 310.035 392.218 312.808C356.622 333.179 321.298 353.696 286.246 374.357C285.308 374.905 284.242 375.197 283.156 375.203C282.069 375.21 281 374.931 280.056 374.394C279.111 373.857 278.325 373.081 277.775 372.144C277.224 371.207 276.93 370.142 276.921 369.056L276.622 337.819C276.622 336.931 276.187 336.405 275.317 336.242L237.719 328.413" stroke="black" stroke-width="2"/>
<path d="M293.01 217.638C293.007 217.636 293.005 217.635 293.002 217.633C289.413 215.26 286.263 214.284 283.527 214.592L283.526 214.592C282.129 214.744 280.835 215.401 279.887 216.442C278.938 217.483 278.399 218.836 278.371 220.248C278.371 220.248 278.371 220.249 278.371 220.249M293.01 217.638L277.871 220.239L278.371 220.249M293.01 217.638L403.588 296.848L403.589 296.849C404.145 297.246 404.604 297.762 404.934 298.361C405.263 298.96 405.454 299.625 405.491 300.307C405.529 300.989 405.413 301.671 405.151 302.302C404.89 302.933 404.49 303.497 403.98 303.953C400.787 306.806 396.784 309.614 391.968 312.374C356.37 332.746 321.045 353.264 285.991 373.926C285.129 374.43 284.15 374.698 283.151 374.704C282.152 374.709 281.17 374.453 280.301 373.959C279.433 373.465 278.71 372.752 278.204 371.891C277.698 371.03 277.428 370.051 277.419 369.052V369.051L277.12 337.819C277.12 337.818 277.12 337.817 277.12 337.816C277.12 337.292 276.99 336.816 276.68 336.44C276.369 336.065 275.926 335.849 275.413 335.752C275.411 335.751 275.409 335.751 275.408 335.751L237.852 327.93C171.438 304.605 125.749 249.351 108.986 181.867C107.887 177.433 107.066 172.77 106.524 167.88C106.425 166.907 106.631 165.927 107.116 165.077C107.6 164.227 108.338 163.55 109.227 163.14L109.227 163.14C137.079 150.291 166.179 141.432 196.528 136.564C197.229 136.452 197.946 136.487 198.633 136.667C199.319 136.846 199.96 137.167 200.515 137.607C201.07 138.047 201.525 138.598 201.853 139.224C202.181 139.85 202.374 140.537 202.42 141.241L202.42 141.244C205.198 180.947 214.358 212.779 245.825 238.865C252.826 244.68 261.747 249.506 270.253 254.107C271.946 255.023 273.623 255.93 275.265 256.835L275.272 256.838C275.523 256.971 275.804 257.039 276.087 257.035C276.371 257.032 276.65 256.956 276.896 256.816C277.143 256.675 277.349 256.473 277.493 256.229C277.638 255.985 277.715 255.708 277.718 255.424M293.01 217.638L277.718 255.424M278.371 220.249L277.718 255.423M278.371 220.249L277.718 255.423M277.718 255.423C277.718 255.424 277.718 255.424 277.718 255.424M277.718 255.423L277.718 255.424" fill="white" stroke="black"/>
<mask id="path-3-inside-1_61_8004" fill="white">
<path d="M133.813 176.632L136.776 189.192C136.849 189.555 137.039 189.627 137.347 189.41C142.875 185.568 148.983 182.912 155.671 181.444C156.124 181.336 156.369 181.336 156.405 181.444V181.472C156.423 181.526 156.36 181.598 156.215 181.689L139.549 190.796C139.154 191.013 138.843 191.355 138.665 191.769C138.488 192.183 138.455 192.645 138.571 193.08L138.924 194.412C139.214 195.536 139.876 195.826 140.909 195.282L156.405 187.126C156.641 186.999 156.831 187.054 156.976 187.289L157.356 187.969C157.356 187.969 157.248 188.033 157.03 188.159L142.594 196.669C142.018 197.003 141.567 197.519 141.312 198.138C141.056 198.757 141.01 199.444 141.181 200.094C141.597 201.58 142.422 202.758 143.655 203.628C144.009 203.879 144.434 204.009 144.865 203.999C145.296 203.989 145.711 203.84 146.047 203.574L149.853 200.529C149.972 200.433 150.112 200.369 150.261 200.34C150.411 200.312 150.566 200.321 150.711 200.367C150.856 200.413 150.988 200.494 151.094 200.603C151.201 200.711 151.279 200.845 151.321 200.991L151.511 201.698C151.674 202.296 151.475 202.713 150.913 202.949L147.243 204.498C146.246 204.915 145.802 205.658 145.911 206.728C146.056 208.069 146.437 209.337 147.053 210.534C147.47 211.349 148.14 211.684 149.065 211.539C150.786 211.25 152.236 210.488 153.414 209.256C153.553 209.111 153.732 209.011 153.929 208.972C154.126 208.932 154.33 208.954 154.514 209.034C154.698 209.114 154.852 209.248 154.957 209.419C155.062 209.59 155.112 209.79 155.1 209.99C155.1 210.28 155.109 210.552 155.127 210.805C155.163 211.53 154.819 211.965 154.094 212.11L149.608 212.98C149.316 213.038 149.041 213.164 148.806 213.347C148.571 213.531 148.382 213.767 148.255 214.037C148.128 214.307 148.066 214.603 148.075 214.901C148.083 215.199 148.161 215.491 148.303 215.753C169.155 253.923 196.124 285.377 236.142 305.196C236.903 305.576 237.266 306.202 237.229 307.072C237.139 308.721 237.855 309.854 239.377 310.47C255.526 316.995 272.209 321.254 289.427 323.247C289.997 323.318 290.523 323.586 290.911 324.004C291.3 324.423 291.525 324.964 291.547 325.531L292.499 348.286C292.514 348.531 292.589 348.77 292.718 348.979C292.846 349.188 293.024 349.361 293.236 349.483C293.447 349.605 293.684 349.671 293.926 349.676C294.168 349.68 294.406 349.623 294.619 349.509L378.516 303.728C378.797 303.574 379.036 303.353 379.21 303.085C379.385 302.816 379.489 302.509 379.513 302.192C379.538 301.875 379.481 301.558 379.35 301.27C379.218 300.983 379.016 300.734 378.76 300.547L295.544 237.91C293.006 236.007 291.738 236.65 291.738 239.84L291.71 257.729C291.71 258.871 291.139 259.414 289.998 259.36L288.965 259.333C288.753 259.326 288.552 259.237 288.405 259.084C288.258 258.932 288.176 258.729 288.176 258.517L288.203 230.379C288.207 230.228 288.249 230.081 288.327 229.951C288.405 229.822 288.515 229.715 288.647 229.641C288.778 229.566 288.927 229.528 289.078 229.529C289.229 229.53 289.377 229.57 289.508 229.645C292.716 231.621 295.861 233.723 298.942 235.953C327.959 256.85 356.948 278.354 385.91 300.465C386.216 300.701 386.459 301.008 386.618 301.36C386.776 301.712 386.845 302.097 386.818 302.482C386.791 302.867 386.669 303.239 386.463 303.566C386.258 303.892 385.974 304.163 385.639 304.353L290.215 358.861C288.602 359.768 287.778 359.296 287.741 357.448L287.415 328.957C287.409 328.578 287.259 328.217 286.997 327.944C286.735 327.672 286.379 327.509 286.001 327.488C263.491 326.129 242.15 320.674 221.978 311.122C213.822 307.262 205.856 304.299 198.652 299.079C176.74 283.148 158.562 263.837 144.117 241.145C131.829 221.87 120.356 194.004 117.202 171.331C117.057 170.371 117.447 169.727 118.371 169.401C141.86 160.665 165.838 153.579 190.306 148.141C191.248 147.924 191.747 148.304 191.801 149.283C196.151 216.08 232.254 260.176 298.153 273.741C298.547 273.827 298.901 274.042 299.157 274.353C299.414 274.664 299.558 275.051 299.567 275.454L299.594 276.297C299.596 276.4 299.574 276.501 299.532 276.595C299.49 276.689 299.428 276.772 299.35 276.84C299.273 276.907 299.182 276.956 299.083 276.985C298.984 277.013 298.88 277.02 298.779 277.004C231.085 266.999 196.124 220.565 186.717 155.155C186.572 154.159 186.001 153.742 185.005 153.905C175.326 155.482 166.083 157.974 157.275 161.381C151.294 163.692 141.507 164.888 134.71 170.787C134.203 171.222 133.922 171.685 133.867 172.174C133.849 172.446 133.877 172.69 133.949 172.908C134.13 173.506 134.493 173.66 135.036 173.37L146.128 167.579C146.98 167.144 147.669 167.326 148.195 168.123C148.34 168.341 148.557 168.477 148.847 168.531C150.098 168.767 150.786 168.857 150.913 168.803L153.632 167.688C153.715 167.648 153.808 167.637 153.896 167.659C153.984 167.681 154.062 167.733 154.118 167.808C154.174 167.883 154.205 167.976 154.205 168.072C154.206 168.169 154.176 168.263 154.121 168.341C153.958 168.54 153.686 168.721 153.306 168.884C145.857 172.02 139.549 174.276 134.384 175.654C133.877 175.799 133.686 176.125 133.813 176.632Z"/>
</mask>
<path d="M133.813 176.632L136.776 189.192C136.849 189.555 137.039 189.627 137.347 189.41C142.875 185.568 148.983 182.912 155.671 181.444C156.124 181.336 156.369 181.336 156.405 181.444V181.472C156.423 181.526 156.36 181.598 156.215 181.689L139.549 190.796C139.154 191.013 138.843 191.355 138.665 191.769C138.488 192.183 138.455 192.645 138.571 193.08L138.924 194.412C139.214 195.536 139.876 195.826 140.909 195.282L156.405 187.126C156.641 186.999 156.831 187.054 156.976 187.289L157.356 187.969C157.356 187.969 157.248 188.033 157.03 188.159L142.594 196.669C142.018 197.003 141.567 197.519 141.312 198.138C141.056 198.757 141.01 199.444 141.181 200.094C141.597 201.58 142.422 202.758 143.655 203.628C144.009 203.879 144.434 204.009 144.865 203.999C145.296 203.989 145.711 203.84 146.047 203.574L149.853 200.529C149.972 200.433 150.112 200.369 150.261 200.34C150.411 200.312 150.566 200.321 150.711 200.367C150.856 200.413 150.988 200.494 151.094 200.603C151.201 200.711 151.279 200.845 151.321 200.991L151.511 201.698C151.674 202.296 151.475 202.713 150.913 202.949L147.243 204.498C146.246 204.915 145.802 205.658 145.911 206.728C146.056 208.069 146.437 209.337 147.053 210.534C147.47 211.349 148.14 211.684 149.065 211.539C150.786 211.25 152.236 210.488 153.414 209.256C153.553 209.111 153.732 209.011 153.929 208.972C154.126 208.932 154.33 208.954 154.514 209.034C154.698 209.114 154.852 209.248 154.957 209.419C155.062 209.59 155.112 209.79 155.1 209.99C155.1 210.28 155.109 210.552 155.127 210.805C155.163 211.53 154.819 211.965 154.094 212.11L149.608 212.98C149.316 213.038 149.041 213.164 148.806 213.347C148.571 213.531 148.382 213.767 148.255 214.037C148.128 214.307 148.066 214.603 148.075 214.901C148.083 215.199 148.161 215.491 148.303 215.753C169.155 253.923 196.124 285.377 236.142 305.196C236.903 305.576 237.266 306.202 237.229 307.072C237.139 308.721 237.855 309.854 239.377 310.47C255.526 316.995 272.209 321.254 289.427 323.247C289.997 323.318 290.523 323.586 290.911 324.004C291.3 324.423 291.525 324.964 291.547 325.531L292.499 348.286C292.514 348.531 292.589 348.77 292.718 348.979C292.846 349.188 293.024 349.361 293.236 349.483C293.447 349.605 293.684 349.671 293.926 349.676C294.168 349.68 294.406 349.623 294.619 349.509L378.516 303.728C378.797 303.574 379.036 303.353 379.21 303.085C379.385 302.816 379.489 302.509 379.513 302.192C379.538 301.875 379.481 301.558 379.35 301.27C379.218 300.983 379.016 300.734 378.76 300.547L295.544 237.91C293.006 236.007 291.738 236.65 291.738 239.84L291.71 257.729C291.71 258.871 291.139 259.414 289.998 259.36L288.965 259.333C288.753 259.326 288.552 259.237 288.405 259.084C288.258 258.932 288.176 258.729 288.176 258.517L288.203 230.379C288.207 230.228 288.249 230.081 288.327 229.951C288.405 229.822 288.515 229.715 288.647 229.641C288.778 229.566 288.927 229.528 289.078 229.529C289.229 229.53 289.377 229.57 289.508 229.645C292.716 231.621 295.861 233.723 298.942 235.953C327.959 256.85 356.948 278.354 385.91 300.465C386.216 300.701 386.459 301.008 386.618 301.36C386.776 301.712 386.845 302.097 386.818 302.482C386.791 302.867 386.669 303.239 386.463 303.566C386.258 303.892 385.974 304.163 385.639 304.353L290.215 358.861C288.602 359.768 287.778 359.296 287.741 357.448L287.415 328.957C287.409 328.578 287.259 328.217 286.997 327.944C286.735 327.672 286.379 327.509 286.001 327.488C263.491 326.129 242.15 320.674 221.978 311.122C213.822 307.262 205.856 304.299 198.652 299.079C176.74 283.148 158.562 263.837 144.117 241.145C131.829 221.87 120.356 194.004 117.202 171.331C117.057 170.371 117.447 169.727 118.371 169.401C141.86 160.665 165.838 153.579 190.306 148.141C191.248 147.924 191.747 148.304 191.801 149.283C196.151 216.08 232.254 260.176 298.153 273.741C298.547 273.827 298.901 274.042 299.157 274.353C299.414 274.664 299.558 275.051 299.567 275.454L299.594 276.297C299.596 276.4 299.574 276.501 299.532 276.595C299.49 276.689 299.428 276.772 299.35 276.84C299.273 276.907 299.182 276.956 299.083 276.985C298.984 277.013 298.88 277.02 298.779 277.004C231.085 266.999 196.124 220.565 186.717 155.155C186.572 154.159 186.001 153.742 185.005 153.905C175.326 155.482 166.083 157.974 157.275 161.381C151.294 163.692 141.507 164.888 134.71 170.787C134.203 171.222 133.922 171.685 133.867 172.174C133.849 172.446 133.877 172.69 133.949 172.908C134.13 173.506 134.493 173.66 135.036 173.37L146.128 167.579C146.98 167.144 147.669 167.326 148.195 168.123C148.34 168.341 148.557 168.477 148.847 168.531C150.098 168.767 150.786 168.857 150.913 168.803L153.632 167.688C153.715 167.648 153.808 167.637 153.896 167.659C153.984 167.681 154.062 167.733 154.118 167.808C154.174 167.883 154.205 167.976 154.205 168.072C154.206 168.169 154.176 168.263 154.121 168.341C153.958 168.54 153.686 168.721 153.306 168.884C145.857 172.02 139.549 174.276 134.384 175.654C133.877 175.799 133.686 176.125 133.813 176.632Z" fill="black" stroke="black" stroke-width="2" mask="url(#path-3-inside-1_61_8004)"/>
<path d="M136.75 181.759L136.751 181.759L136.791 181.86L136.75 181.759ZM136.75 181.759C136.698 181.628 136.699 181.481 136.755 181.351C136.81 181.221 136.915 181.118 137.046 181.065L162.22 170.946L162.033 170.482L162.22 170.946C162.351 170.893 162.498 170.894 162.628 170.95C162.758 171.005 162.86 171.11 162.913 171.241L162.913 171.242L162.954 171.342L136.75 181.759ZM137.671 182.619L137.484 182.155L162.658 172.036C162.658 172.036 162.658 172.036 162.658 172.036C162.789 171.983 162.894 171.88 162.95 171.75C163.005 171.62 163.007 171.474 162.954 171.343L137.671 182.619ZM137.671 182.619L137.484 182.155C137.353 182.208 137.206 182.207 137.076 182.151M137.671 182.619L137.076 182.151M137.076 182.151C136.946 182.096 136.844 181.991 136.791 181.86L137.076 182.151Z" fill="black" stroke="black"/>
<path d="M157.31 218.036C157.31 218.036 157.31 218.038 157.309 218.042C157.309 218.038 157.31 218.036 157.31 218.036ZM156.825 218.294C156.982 218.256 157.11 218.236 157.21 218.229C157.153 218.311 157.072 218.411 156.959 218.528C156.597 218.906 156.025 219.337 155.365 219.716C155.04 219.903 154.71 220.068 154.393 220.203C154.076 220.338 153.784 220.437 153.535 220.497C153.379 220.535 153.25 220.555 153.15 220.563C153.207 220.481 153.288 220.38 153.401 220.263C153.764 219.886 154.336 219.455 154.996 219.075C155.32 218.888 155.651 218.723 155.967 218.589C156.285 218.454 156.576 218.355 156.825 218.294ZM153.052 220.749C153.051 220.753 153.051 220.755 153.05 220.755C153.05 220.755 153.05 220.753 153.052 220.749Z" fill="black" stroke="black"/>
<path d="M169.079 240.31L169.082 240.308C169.081 240.309 169.08 240.31 169.079 240.31C169.079 240.31 169.079 240.31 169.079 240.31ZM169.442 239.973L169.636 239.788L176.91 247.652L169.442 239.973Z" fill="black" stroke="black"/>
<path d="M195.847 270.943L213.087 284.352C212.983 284.321 212.846 284.271 212.671 284.195C212.177 283.979 211.481 283.599 210.605 283.056C208.859 281.974 206.598 280.371 204.314 278.593L204.314 278.593L203.58 278.023C203.58 278.022 203.58 278.022 203.58 278.022C201.294 276.243 199.182 274.443 197.703 273.013C196.961 272.296 196.42 271.714 196.089 271.287C195.981 271.147 195.902 271.033 195.847 270.943Z" fill="black" stroke="black"/>
<path d="M221.066 289.465C223.624 291.514 226.19 293.528 228.766 295.505C228.776 295.512 228.783 295.522 228.789 295.531C228.794 295.54 228.797 295.549 228.798 295.558C228.799 295.565 228.799 295.571 228.798 295.575C228.798 295.575 228.798 295.575 228.798 295.575L228.771 295.602L228.746 295.637C228.741 295.644 228.736 295.651 228.731 295.657C228.718 295.648 228.703 295.637 228.684 295.622C225.756 293.187 222.581 291.101 219.159 289.363L218.932 289.808L219.159 289.363C219.103 289.334 219.052 289.307 219.006 289.28C219.058 289.265 219.117 289.25 219.181 289.235L219.191 289.233L219.2 289.231C219.55 289.135 219.896 289.096 220.241 289.112M221.066 289.465C221.066 289.465 221.066 289.465 221.066 289.465L221.379 289.074L221.067 289.465C221.067 289.465 221.067 289.465 221.066 289.465ZM221.066 289.465C220.768 289.226 220.495 289.124 220.241 289.112M220.241 289.112C220.241 289.112 220.242 289.112 220.242 289.112L220.264 288.612L220.241 289.112C220.241 289.112 220.241 289.112 220.241 289.112Z" fill="black" stroke="black"/>
<path d="M241.897 300.48L241.897 300.48C242.326 300.264 242.614 300.083 242.786 299.94C242.572 299.871 242.235 299.809 241.753 299.766C241.053 299.708 240.25 299.98 239.33 300.696L239.329 300.697C239.226 300.776 239.154 300.843 239.106 300.895C239.17 300.923 239.262 300.954 239.386 300.985L241.897 300.48ZM241.897 300.48L241.893 300.482M241.897 300.48L241.893 300.482M241.893 300.482C240.864 301.014 240.041 301.145 239.387 300.985L241.893 300.482Z" fill="black" stroke="black"/>
<path d="M253.321 304.035L253.321 304.035L253.318 304.037L246.902 308.931L246.902 308.931L246.893 308.938C246.844 308.977 246.788 309.005 246.729 309.019C246.669 309.034 246.606 309.036 246.545 309.024C246.485 309.012 246.428 308.987 246.378 308.951C246.328 308.914 246.286 308.867 246.256 308.813L246.256 308.813L245.604 307.645C245.575 307.592 245.565 307.558 245.562 307.54C245.561 307.531 245.561 307.526 245.561 307.524L245.561 307.523C245.561 307.523 245.561 307.523 245.561 307.523L245.561 307.523L245.561 307.522L245.563 307.518C245.565 307.515 245.569 307.508 245.577 307.498C245.593 307.478 245.626 307.447 245.684 307.409L245.684 307.409L245.689 307.406C248.319 305.653 250.825 304.456 253.209 303.803C253.433 303.743 253.629 303.695 253.8 303.659C253.666 303.77 253.507 303.896 253.321 304.035Z" fill="black" stroke="black"/>
<path d="M353.789 311.592C353.406 311.887 353.097 312.078 352.874 312.174C352.934 311.938 353.073 311.603 353.306 311.178C353.541 310.747 353.855 310.254 354.231 309.727C354.607 309.201 355.035 308.655 355.49 308.122C355.945 307.59 356.417 307.082 356.878 306.628C357.339 306.174 357.777 305.787 358.166 305.487C358.55 305.192 358.859 305.001 359.082 304.905C359.022 305.14 358.882 305.476 358.65 305.901C358.415 306.332 358.101 306.825 357.724 307.352C357.349 307.878 356.921 308.424 356.466 308.956C356.011 309.489 355.539 309.997 355.078 310.45C354.616 310.904 354.178 311.292 353.789 311.592ZM358.908 304.436C359.191 304.318 359.395 304.307 359.509 304.405L352.447 312.674C352.332 312.577 352.311 312.373 352.383 312.075C352.455 311.778 352.619 311.391 352.867 310.939C353.114 310.486 353.439 309.975 353.824 309.437C354.209 308.898 354.646 308.341 355.109 307.798C355.573 307.255 356.055 306.736 356.527 306.272C356.999 305.808 357.452 305.406 357.861 305.091C358.269 304.776 358.625 304.553 358.908 304.436Z" fill="black" stroke="black"/>
<path d="M264.567 306.137C264.028 306.328 263.337 306.602 262.49 306.96L264.567 306.137ZM264.567 306.137C264.119 306.489 263.522 306.926 262.771 307.449L262.77 307.45L256.11 312.098C256.11 312.098 256.11 312.098 256.11 312.098C255.849 312.279 255.532 312.354 255.224 312.311C254.917 312.268 254.641 312.111 254.451 311.874L253.91 311.17L253.905 311.164L253.9 311.158C253.859 311.108 253.83 311.049 253.816 310.987C253.801 310.925 253.801 310.862 253.815 310.803C253.829 310.745 253.856 310.692 253.892 310.649C253.929 310.606 253.975 310.574 254.026 310.553L254.026 310.553L254.035 310.549L262.49 306.961L264.567 306.137Z" fill="black" stroke="black"/>
<path d="M347.157 308.549L347.157 308.549L347.159 308.551C347.212 308.593 347.239 308.626 347.252 308.646C347.264 308.664 347.266 308.674 347.266 308.676L347.266 308.676C347.266 308.679 347.274 308.731 347.193 308.855C343.648 313.84 339.998 317.55 336.248 320.006C339.204 317.079 342.769 313.201 346.941 308.377L347.157 308.549Z" fill="black" stroke="black"/>
<path d="M267.974 314.647L267.974 314.647L267.968 314.649C267.882 314.681 267.788 314.682 267.701 314.652C267.615 314.622 267.541 314.563 267.493 314.485C267.445 314.407 267.425 314.315 267.437 314.225C267.449 314.134 267.492 314.05 267.558 313.988L267.566 313.98L267.574 313.973C269.61 311.883 271.652 310.684 273.695 310.309L273.695 310.309C274.007 310.252 274.239 310.229 274.401 310.23C274.314 310.367 274.169 310.547 273.951 310.776C272.208 312.571 270.217 313.859 267.974 314.647Z" fill="black" stroke="black"/>
<path d="M279.071 314.136L279.071 314.136L279.06 314.135C279.056 314.134 279.053 314.133 279.051 314.132C279.049 314.131 279.048 314.13 279.046 314.128C279.044 314.126 279.04 314.119 279.038 314.108C279.037 314.095 279.04 314.078 279.05 314.06C279.059 314.044 279.072 314.032 279.086 314.024L282.605 312.535C282.766 312.468 282.905 312.416 283.024 312.376C282.953 312.481 282.863 312.603 282.754 312.742C282.267 313.353 281.724 313.759 281.127 313.985C280.53 314.211 279.849 314.269 279.071 314.136Z" fill="black" stroke="black"/>
<path d="M313.902 314.73L313.893 314.737C313.247 315.29 312.541 315.934 311.783 316.625C311.553 316.835 311.318 317.049 311.08 317.265C310.056 318.194 308.957 319.174 307.822 320.086C305.57 321.894 303.104 323.5 300.736 323.876C300.387 323.936 300.131 324.06 299.942 324.23C299.754 324.4 299.603 324.641 299.506 324.981C299.306 325.769 299.256 326.552 299.355 327.335C299.366 327.401 299.394 327.462 299.437 327.513C299.481 327.564 299.538 327.603 299.603 327.625C299.667 327.646 299.737 327.65 299.803 327.634C299.869 327.619 299.929 327.586 299.978 327.539C299.978 327.539 299.978 327.539 299.978 327.538L300.328 327.896C304.823 323.455 309.49 319.251 314.329 315.281L313.902 314.73ZM313.902 314.73L313.91 314.722C313.928 314.705 313.943 314.692 313.955 314.684C313.967 314.694 313.981 314.709 313.997 314.729L314.013 314.748L314.03 314.765L314.038 314.773C314.058 314.799 314.07 314.819 314.076 314.832C314.066 314.845 314.046 314.866 314.011 314.895L313.902 314.73ZM314.083 314.851C314.083 314.851 314.083 314.85 314.083 314.848C314.083 314.85 314.083 314.851 314.083 314.851ZM314.086 314.817C314.086 314.815 314.087 314.814 314.087 314.814C314.087 314.814 314.087 314.815 314.086 314.817Z" fill="black" stroke="black"/>
<path d="M325.381 322.818L325.374 322.822L325.368 322.826C322.585 324.613 320.143 326.816 318.044 329.431L318.043 329.431L318.04 329.435C318.033 329.445 318.023 329.452 318.013 329.456C318.002 329.461 317.99 329.463 317.978 329.462C317.967 329.461 317.955 329.457 317.945 329.451C317.937 329.445 317.93 329.438 317.924 329.429C317.813 329.207 317.694 328.987 317.565 328.767C317.472 328.589 317.467 328.476 317.482 328.405C317.497 328.332 317.549 328.227 317.713 328.095L317.714 328.094L334.028 314.958L328.505 322.07L328.505 322.07C328.175 322.496 327.773 322.668 327.238 322.613L327.226 322.612L327.214 322.611C326.861 322.593 326.526 322.583 326.209 322.583C325.913 322.583 325.635 322.665 325.381 322.818Z" fill="black" stroke="black"/>
<path d="M300.415 317.169C299.861 317.841 299.417 318.533 299.173 319.085C299.077 319.301 299.023 319.472 298.998 319.598C299.117 319.549 299.275 319.463 299.468 319.328C299.711 319.159 299.983 318.933 300.268 318.658C300.552 318.385 300.839 318.074 301.112 317.743C301.666 317.071 302.11 316.379 302.354 315.828C302.449 315.611 302.504 315.44 302.529 315.314C302.409 315.363 302.252 315.45 302.058 315.584C301.816 315.753 301.544 315.98 301.259 316.254C300.974 316.527 300.687 316.838 300.415 317.169ZM300.415 317.169L300.029 316.851L300.415 317.169ZM298.983 319.782C298.983 319.782 298.982 319.78 298.982 319.775C298.983 319.779 298.983 319.782 298.983 319.782ZM302.544 315.131C302.544 315.131 302.544 315.133 302.545 315.137C302.544 315.133 302.543 315.131 302.544 315.131Z" fill="black" stroke="black"/>
<path d="M308.004 332.884L308.009 332.878L308.013 332.873C311.02 328.882 313.965 325.095 316.216 322.321C317.342 320.934 318.246 319.86 318.893 319.138C319.218 318.775 319.471 318.509 319.652 318.337C319.659 318.33 319.666 318.324 319.673 318.317L319.759 318.382C319.657 318.582 319.489 318.871 319.251 319.253C318.748 320.062 317.967 321.226 316.951 322.683C315.937 324.139 314.71 325.852 313.342 327.727C311.975 329.6 310.493 331.597 308.982 333.603L308.982 333.603L308.978 333.608L308.736 333.938L307.746 333.207L308.004 332.884Z" fill="black" stroke="black"/>
<path d="M301.633 337.094L301.633 337.094L301.631 337.097C301.42 337.399 301.252 337.583 301.129 337.681C301.122 337.687 301.115 337.692 301.109 337.696C301.106 337.689 301.102 337.681 301.098 337.672C301.036 337.527 300.976 337.284 300.933 336.918L300.933 336.918L300.932 336.912L300.742 335.447C300.652 334.674 300.872 334.015 301.424 333.433L301.424 333.433L301.426 333.43L309.066 325.275C309.105 325.233 309.141 325.195 309.174 325.161L309.476 325.37L309.483 325.376L309.491 325.381C309.682 325.504 309.708 325.588 309.713 325.609C309.717 325.628 309.725 325.713 309.598 325.895C309.597 325.895 309.597 325.895 309.597 325.896L301.633 337.094ZM301.027 337.746C301.027 337.746 301.028 337.746 301.03 337.745C301.028 337.746 301.027 337.746 301.027 337.746ZM301.156 337.777C301.157 337.778 301.158 337.779 301.158 337.779C301.158 337.779 301.157 337.779 301.156 337.777ZM308.85 324.935L308.858 324.941C308.853 324.938 308.848 324.934 308.842 324.93L308.85 324.935Z" fill="black" stroke="black"/>
<path d="M234.003 309.704L234.007 309.699L234.984 308.451C234.984 308.451 234.984 308.45 234.985 308.45C235.02 308.404 235.04 308.369 235.052 308.345C235.031 308.33 234.998 308.309 234.948 308.284C234.947 308.284 234.946 308.284 234.945 308.283L235.162 307.832C182.448 283.256 145.447 233.043 128.538 177.801L234.003 309.704ZM234.003 309.704C233.931 309.798 233.879 309.822 233.857 309.829C233.838 309.835 233.795 309.843 233.707 309.811C214.826 302.5 197.451 290.691 181.583 274.371L181.583 274.371C154.254 246.3 135.958 214.56 126.684 179.145C126.635 178.947 126.665 178.736 126.772 178.554C126.879 178.371 127.055 178.233 127.264 178.172L127.264 178.172L127.277 178.168L128.027 177.927C128.035 177.925 128.043 177.923 128.049 177.922C128.053 177.931 128.057 177.941 128.062 177.954L234.003 309.704Z" fill="white" stroke="black"/>
</svg>
