<svg width="512" height="512" viewBox="0 0 512 512" fill="none" xmlns="http://www.w3.org/2000/svg">
<rect width="512" height="512" fill="white"/>
<path d="M272.9 205.942C273.593 202.397 272.778 202.01 270.455 204.781C247.414 232.1 220.4 272.498 213.739 308.251C207.688 340.154 197.787 367.718 194.793 398.032C194.182 404.062 190.861 406.669 184.831 405.854L177.986 404.938C171.141 404.001 168.696 400.211 170.652 393.57L195.954 307.09C196.443 305.46 196.362 303.871 195.71 302.323C178.923 260.234 182.223 221.914 205.611 187.362C224.373 159.676 253.954 147.025 285.796 139.447C294.882 137.287 302.338 133.804 308.165 128.996C315.865 122.579 328.516 106.994 338.478 106.016C339.153 105.956 339.831 106.066 340.451 106.338C341.072 106.609 341.615 107.032 342.029 107.567C342.443 108.103 342.715 108.735 342.821 109.403C342.927 110.072 342.862 110.757 342.634 111.394C333.955 134.863 326.682 153.687 329.005 179.967C334.872 247.868 307.125 330.131 223.212 321.758C222.683 321.7 222.174 321.521 221.725 321.235C221.275 320.95 220.898 320.565 220.62 320.11C220.343 319.656 220.174 319.144 220.125 318.614C220.076 318.084 220.15 317.549 220.34 317.052C232.563 284.782 247.557 253.898 265.322 224.399C269.192 217.962 271.718 211.809 272.9 205.942Z" fill="black"/>
</svg>
