<svg width="512" height="512" viewBox="0 0 512 512" fill="none" xmlns="http://www.w3.org/2000/svg">
<rect width="512" height="512" fill="white"/>
<path d="M259.415 110.017C263.983 121.515 259.447 131.95 256.323 142.956C255.837 144.637 255.366 144.637 254.911 142.956C251.645 130.982 246.316 120.436 252.295 108.193C253.394 105.952 255.044 105.428 257.243 106.623C257.941 107.004 258.665 108.135 259.415 110.017Z" fill="black"/>
<path d="M266.884 151.155C277.827 135.439 292.814 147.936 276.431 158.831C267.202 164.953 260.826 172.105 258.368 182.936C257.417 187.155 256.877 187.107 256.751 182.794C256.476 173.352 256.634 163.034 257.226 151.837C257.575 145.224 259.018 137.295 263.078 132.172C266.266 128.16 271.008 128.08 272.8 133.584C274.116 137.612 268.343 146.556 266.71 151.06C266.53 151.546 266.588 151.578 266.884 151.155Z" fill="black"/>
<path d="M244.285 150.188C242.604 145.446 234.5 135.011 240.939 130.523C242.8 129.233 244.767 129.439 246.839 131.141C257.068 139.515 254.863 171.788 254.578 183.729C254.557 184.438 254.44 185.014 254.229 185.458C253.817 186.304 253.521 186.267 253.341 185.347C250.846 172.84 243.989 163.583 232.772 157.578C229.251 155.707 225.683 148.967 229.235 145.256C234.231 140.022 240.812 146.841 243.841 150.441C244.455 151.171 244.603 151.086 244.285 150.188Z" fill="black"/>
<path d="M235.944 165.174C248.678 170.995 253.182 188.582 253.261 201.618C253.272 202.411 253.087 202.459 252.706 201.761C246.426 189.898 242.366 180.732 229.917 175.07C229.391 174.831 228.918 174.488 228.526 174.063C228.134 173.637 227.831 173.137 227.634 172.592C227.438 172.047 227.352 171.468 227.382 170.889C227.412 170.309 227.557 169.741 227.808 169.218L228.458 167.886C230.076 164.545 232.571 163.641 235.944 165.174Z" fill="black"/>
<path d="M257.353 204.171C257.332 204.224 257.321 204.277 257.321 204.33C257.321 204.351 257.316 204.361 257.305 204.361C257.295 204.361 257.29 204.351 257.29 204.33C257.94 191.817 261.334 170.09 274.687 165.349C283.076 162.367 285.978 173.167 281.57 175.007C268.66 180.399 262.047 191.452 257.353 204.171Z" fill="black"/>
<path d="M258.511 248.37C259.066 233.495 263.57 219.333 275.432 210.214C287.057 201.285 302.741 198.668 316.348 204.98C316.514 205.056 316.656 205.175 316.76 205.325C316.863 205.476 316.923 205.652 316.935 205.835C316.946 206.019 316.908 206.202 316.824 206.367C316.74 206.532 316.614 206.672 316.459 206.772C315.423 207.438 314.175 208.046 312.716 208.596C304.512 211.673 298.533 217.128 294.78 224.963C294.537 225.47 294.14 225.66 293.591 225.533C275.813 221.489 264.775 237.903 259.383 252.716C258.368 255.486 257.998 255.401 258.273 252.462C258.368 251.436 258.447 250.072 258.511 248.37Z" fill="black"/>
<path d="M195.313 208.168C193.844 207.703 193.638 206.91 194.695 205.789C195.773 204.658 197.417 203.785 199.627 203.172C213.012 199.514 225.006 201.993 235.611 210.61C248.076 220.744 251.977 234.208 252.723 249.734C252.966 254.819 252.416 254.904 251.073 249.988C248.895 241.995 243.387 235.017 234.548 229.054C229.072 225.353 223.421 224.064 217.595 225.184C217.035 225.29 216.607 225.1 216.311 224.613C211.415 216.494 204.416 211.012 195.313 208.168Z" fill="black"/>
<path d="M225.446 269.082C219.758 266.037 213.752 263.785 207.43 262.326C205.86 261.961 203.83 260.597 203.481 258.742C201.927 250.495 215.55 252.525 219.657 254.206C234.2 260.106 241.447 271.302 246.792 285.94C247.373 287.536 247.109 287.695 245.999 286.415C237.615 276.773 227.317 270.779 215.106 268.431C207.398 266.957 198.375 266.75 190.968 264.245C185.957 262.548 173.318 257.758 170.399 253.35C170.019 252.779 170.14 252.631 170.764 252.906C187.543 260.216 203.386 248.893 201.546 230.735C201.229 227.552 200.283 224.957 198.708 222.948C187.702 208.96 167.592 216.382 160.012 229.514C152.907 241.836 154.001 261.39 168.845 267.845C168.898 267.866 168.914 267.903 168.893 267.956L168.734 268.336C168.712 268.395 168.678 268.449 168.634 268.495C168.59 268.54 168.537 268.577 168.478 268.602C168.419 268.627 168.355 268.64 168.29 268.641C168.225 268.642 168.161 268.63 168.1 268.606C160.995 265.994 156.491 261.607 154.588 255.443C149.497 238.965 156.951 221.299 173.096 215.066C182.373 211.482 194.473 213.369 200.547 221.727C209.365 233.891 203.83 246.261 196.709 257.298C196.434 257.732 196.398 258.187 196.598 258.662C198.396 262.849 201.25 265.08 205.162 265.355C213.071 265.926 219.811 267.205 225.382 269.193C225.397 269.201 225.415 269.203 225.431 269.199C225.447 269.194 225.461 269.184 225.47 269.169C225.478 269.154 225.48 269.137 225.476 269.12C225.471 269.104 225.461 269.09 225.446 269.082Z" fill="black"/>
<path d="M285.646 268.669C291.842 266.787 298.185 265.646 304.677 265.244C308.737 264.99 311.819 263.319 313.923 260.232C314.197 259.824 314.35 259.348 314.364 258.859C314.378 258.37 314.253 257.889 314.002 257.473C309.91 250.59 306.183 244.516 305.866 236.254C305.295 221.521 317.269 211.672 332.033 213.75C354.68 216.922 367.732 250.447 348.4 265.735C347.48 266.465 346.37 267.009 345.069 267.369C344.16 267.612 344.086 267.459 344.847 266.909C361.61 254.618 356.06 230.275 341.168 219.998C328.005 210.895 309.149 216.24 308.959 234.16C308.848 244.405 315.572 252.493 325.325 254.999C329.322 256.025 332.948 255.908 336.204 254.65C339.862 253.223 340.121 253.683 336.981 256.03C322.867 266.544 303.947 266.401 287.248 271.064C277.606 273.76 270.004 279.675 264.443 288.81C264.436 288.827 264.424 288.841 264.407 288.848C264.391 288.855 264.372 288.856 264.355 288.85C264.339 288.843 264.325 288.831 264.318 288.814C264.31 288.798 264.309 288.779 264.316 288.762C265.828 279.469 269.829 271.297 276.321 264.245C283.606 256.347 292.561 252.609 303.186 253.032C308.578 253.254 309.767 259.297 304.677 261.2C298.291 263.568 291.889 265.873 285.472 268.114C285.292 268.178 285.228 268.299 285.281 268.479C285.345 268.659 285.466 268.722 285.646 268.669Z" fill="black"/>
<path d="M189.382 235.953C189.382 237.858 188.625 239.685 187.278 241.033C185.93 242.38 184.103 243.137 182.198 243.137C180.292 243.137 178.465 242.38 177.118 241.033C175.771 239.685 175.014 237.858 175.014 235.953C175.014 234.048 175.771 232.22 177.118 230.873C178.465 229.526 180.292 228.769 182.198 228.769C184.103 228.769 185.93 229.526 187.278 230.873C188.625 232.22 189.382 234.048 189.382 235.953Z" fill="black"/>
<path d="M328.982 243.327C328.076 243.338 327.177 243.159 326.335 242.8C325.494 242.441 324.727 241.91 324.078 241.236C323.429 240.562 322.911 239.758 322.554 238.872C322.196 237.985 322.006 237.033 321.994 236.069C321.97 234.121 322.674 232.245 323.951 230.852C325.228 229.46 326.973 228.665 328.803 228.642C329.709 228.631 330.608 228.81 331.449 229.169C332.291 229.528 333.058 230.059 333.707 230.733C334.356 231.407 334.874 232.21 335.231 233.097C335.589 233.983 335.779 234.936 335.791 235.9C335.814 237.847 335.11 239.724 333.834 241.117C332.557 242.509 330.812 243.304 328.982 243.327Z" fill="black"/>
<path d="M219.911 238.664C219.578 233.653 223.067 230.735 227.983 231.528C240.781 233.589 248.853 248.75 251.28 259.994C253.389 269.732 253.643 285.559 252.961 297.009C252.728 300.91 252.321 300.926 251.74 297.057C248.219 273.538 234.422 252.35 210.459 245.737C210.086 245.634 209.745 245.441 209.465 245.174C209.185 244.907 208.976 244.576 208.855 244.208C208.734 243.841 208.706 243.45 208.773 243.069C208.839 242.689 208.999 242.33 209.238 242.026C211.743 238.844 215.005 237.95 219.023 239.346C219.657 239.568 219.953 239.341 219.911 238.664Z" fill="black"/>
<path d="M292.497 238.934C296.546 237.813 299.987 238.701 302.821 241.598C303.072 241.859 303.256 242.176 303.358 242.523C303.459 242.871 303.475 243.237 303.403 243.59C303.331 243.943 303.174 244.273 302.945 244.551C302.717 244.828 302.424 245.045 302.091 245.182C299.924 246.092 297.635 246.996 295.225 247.894C280.603 253.371 270.479 263.394 264.855 277.963C260.012 290.47 257.39 299.166 256.989 304.051C256.777 306.683 256.418 309.279 255.91 311.837C255.868 312.028 255.752 312.107 255.561 312.075H255.546C255.345 312.054 255.249 311.943 255.26 311.742C255.768 303.4 257.845 295.059 258.099 287.177C258.416 277.424 258.162 266.021 260.446 257.505C263.063 247.783 273.339 229.593 285.614 231.068C289.283 231.512 291.218 233.875 291.418 238.157C291.461 238.865 291.82 239.124 292.497 238.934Z" fill="black"/>
<path d="M267.186 292.394C278.509 275.647 299.84 268.907 319.394 271.635C325.563 272.492 332.604 275.013 338.71 276.932C343.446 278.412 343.536 280.136 338.979 282.102C338.472 282.313 337.219 282.287 335.221 282.023C328.893 281.166 322.121 279.676 316.142 279.771C301.695 279.993 282.442 284.417 272.689 296.042C265.183 304.997 260.573 315.437 258.86 327.363C258.754 328.05 258.421 328.199 257.861 327.807C257.174 327.332 256.814 326.544 256.783 325.444C256.513 313.566 260.605 302.116 267.186 292.394Z" fill="black"/>
<path d="M185.751 273.094C222.877 263.42 254.864 288.763 253.897 327.078C253.889 327.392 253.777 327.694 253.58 327.941C253.383 328.187 253.11 328.363 252.802 328.442L252.374 328.553C252.292 328.573 252.207 328.577 252.124 328.562C252.041 328.547 251.962 328.514 251.893 328.466C251.824 328.418 251.766 328.355 251.723 328.283C251.68 328.21 251.653 328.129 251.645 328.045C249.456 305.303 237.784 288.366 215.106 282.546C199.548 278.55 189.081 280.294 175.062 282.007C172.334 282.345 170.606 281.277 169.876 278.803C169.834 278.665 169.819 278.521 169.832 278.378C169.845 278.235 169.885 278.096 169.952 277.969C170.018 277.842 170.109 277.73 170.218 277.639C170.328 277.548 170.454 277.48 170.59 277.439C175.633 275.864 180.687 274.416 185.751 273.094Z" fill="black"/>
<path d="M312.416 284.037C308.123 284.428 305.036 284.539 303.154 284.37C298.164 283.894 298.143 283.249 303.091 282.435C313.272 280.775 324.109 281.003 335.601 283.117C338.456 283.635 342.564 282.974 347.924 281.135C348.4 280.97 348.819 280.666 349.129 280.263L351.207 277.646C351.545 277.223 351.804 277.271 351.984 277.789C353.4 281.859 352.386 284.751 348.939 286.463C344.546 288.636 339.186 288.192 333.92 286.781C325.177 284.444 318.009 283.529 312.416 284.037Z" fill="black"/>
<path d="M216.088 286.606C206.658 284.248 197.465 283.572 188.51 284.576C180.802 285.448 171.334 289.635 162.85 286.019C160.566 285.052 158.156 282.641 158.06 280.294C157.912 276.943 158.89 276.568 160.994 279.168C165.863 285.195 185.417 281.737 193.267 281.389C200.52 281.05 207.53 282.145 214.296 284.671C215.237 285.01 215.882 285.596 216.231 286.432C216.24 286.453 216.243 286.477 216.24 286.5C216.237 286.523 216.228 286.544 216.213 286.562C216.198 286.58 216.179 286.594 216.157 286.602C216.135 286.609 216.111 286.611 216.088 286.606Z" fill="black"/>
<path d="M356.963 281.071C357.059 280.97 357.185 280.902 357.322 280.877C357.46 280.852 357.601 280.87 357.728 280.93C357.854 280.99 357.958 281.087 358.025 281.209C358.093 281.331 358.121 281.471 358.105 281.61C357.735 284.549 356.101 286.167 353.204 286.463C352.305 286.547 352.163 286.262 352.776 285.606L356.963 281.071Z" fill="black"/>
<path d="M157.823 286.432L154.476 285.306C153.62 285.01 153.176 284.407 153.144 283.498L153.097 282.594C153.065 281.61 153.44 281.41 154.223 281.991C155.84 283.207 157.225 284.386 158.378 285.528C159.509 286.648 159.324 286.95 157.823 286.432Z" fill="black"/>
<path d="M192.68 377.62C219.466 382.267 245.935 359.589 251.564 334.547C251.605 334.368 251.706 334.209 251.85 334.096C251.995 333.984 252.174 333.924 252.357 333.929H252.833C252.982 333.933 253.13 333.967 253.266 334.029C253.402 334.091 253.524 334.18 253.626 334.291C253.728 334.402 253.807 334.532 253.859 334.674C253.911 334.816 253.934 334.967 253.927 335.118C253.653 340.732 251.818 346.521 248.424 352.484C237.403 371.784 217.341 382.568 195.265 379.365C194.187 379.206 193.246 378.794 192.442 378.128C191.914 377.673 191.993 377.504 192.68 377.62Z" fill="black"/>
<path d="M260.494 347.821C258.443 343.434 257.618 339.554 258.02 336.181C258.39 333.051 259.05 332.988 260.002 335.991C266.916 357.654 280.999 371.372 302.726 377.271C306.775 378.382 311.179 378.651 315.936 378.08C316.106 378.059 316.201 378.133 316.222 378.302L316.285 378.699C316.317 378.963 316.206 379.122 315.952 379.174C292.56 383.805 270.104 368.375 260.494 347.821Z" fill="black"/>
<path fill-rule="evenodd" clip-rule="evenodd" d="M251.93 225.47C253.119 210.594 250.407 198.494 240.543 187.028C237.022 182.936 231.662 179.4 226.286 181.192C218.325 183.872 217.786 194.228 224.541 198.732C225.127 199.124 225.718 199.517 226.312 199.913L226.313 199.914L226.314 199.915C232.334 203.925 238.704 208.169 243.525 213.148C246.658 216.387 248.176 219.356 249.717 222.371C250.259 223.431 250.804 224.496 251.422 225.581C251.708 226.089 251.877 226.051 251.93 225.47ZM260.786 224.07C261.023 223.362 261.248 222.69 261.54 222.155C266.858 212.619 274.751 205.049 285.218 199.446C292.767 195.402 294.115 182.794 283.664 181.081C270.263 178.876 261.873 197.114 259.748 207.312C258.558 213.092 258.976 220.048 259.354 226.316L259.368 226.548C259.389 226.961 259.505 226.993 259.717 226.644C260.188 225.858 260.496 224.937 260.786 224.07Z" fill="black"/>
<path fill-rule="evenodd" clip-rule="evenodd" d="M162.216 311.98C162.29 311.8 162.237 311.674 162.057 311.6H162.041C161.861 311.525 161.735 311.578 161.661 311.758C161.222 312.765 160.761 313.788 160.294 314.823L160.294 314.823L160.294 314.823C158.248 319.361 156.099 324.128 155.285 328.791C154.581 332.792 154.779 336.303 154.973 339.753C155.011 340.419 155.048 341.083 155.079 341.747C155.142 342.963 154.973 343 154.572 341.858C145.199 315.009 166.957 291.395 192.506 286.638C196.957 285.802 202.973 285.76 210.554 286.511C216.369 287.092 221.285 288.472 225.302 290.65C251.565 304.939 255.07 339.495 233.375 359.652C217.627 374.29 190.635 379.222 172.73 364.647C160.582 354.762 155.417 342.138 157.236 326.776C157.657 323.143 159.101 319.657 160.557 316.142L160.557 316.142C161.129 314.762 161.702 313.379 162.216 311.98ZM180.517 365.123C180.654 365.219 180.675 365.34 180.58 365.488H180.564C180.48 365.636 180.364 365.663 180.216 365.567C172.434 360.968 166.72 354.212 163.072 345.3C159.187 335.753 160.027 327.823 163.231 317.88C167.46 304.748 176.298 295.17 189.747 289.143C190.825 288.667 191.798 288.446 192.665 288.477C192.723 288.482 192.778 288.507 192.822 288.546C192.865 288.586 192.894 288.639 192.904 288.695C192.913 288.751 192.902 288.808 192.873 288.855C192.844 288.902 192.798 288.937 192.744 288.953C192.075 289.217 191.395 289.414 190.722 289.609C189.578 289.94 188.456 290.264 187.447 290.904C170.637 301.481 157.062 324.081 164.563 344.332C167.682 352.738 173 359.668 180.517 365.123ZM205.908 345.364C220.91 342.097 225.287 325.381 217.516 313.36C216.924 312.451 217.046 312.34 217.881 313.027C225.065 318.879 226.144 328.775 222.813 336.863C216.073 353.23 193.982 353.737 182.024 343.476C172.953 335.705 169.363 325.831 171.256 313.852C171.467 312.478 171.219 312.388 170.51 313.582C165.309 322.352 168.401 336.673 173.016 344.253C185.212 364.251 219.197 366.726 233.803 348.472C248.156 330.52 243.144 308.254 224.399 297.2C211.633 289.683 192.998 291.078 182.88 301.894C167.101 318.752 180.438 350.93 205.908 345.364Z" fill="black"/>
<path fill-rule="evenodd" clip-rule="evenodd" d="M352.824 319.18C352.977 320.928 353.199 322.725 353.421 324.528C353.934 328.696 354.451 332.896 354.141 336.594C352.507 356.052 336.569 370.405 317.792 372.926C292.211 376.352 269.517 359.414 263.935 334.183C259.494 314.121 274.449 292.236 294.273 287.241C299.532 285.911 305.776 286.064 311.835 286.213C313.652 286.257 315.453 286.301 317.205 286.305C319.838 286.316 323.416 287.214 327.942 289.001C348.384 297.137 364.116 319.212 356.868 341.716C356.854 341.764 356.83 341.808 356.798 341.846C356.766 341.884 356.726 341.915 356.682 341.938C356.637 341.96 356.589 341.973 356.539 341.976C356.489 341.978 356.439 341.971 356.392 341.954L355.98 341.811C355.917 341.79 355.89 341.742 355.901 341.668C357.011 333.855 356.049 326.343 353.014 319.133C352.845 318.72 352.782 318.736 352.824 319.18ZM316.174 288.842C316.121 288.821 316.063 288.81 316 288.81C320.98 288.334 329.623 293.663 333.619 296.517C354.981 311.805 357.154 345.664 335.712 362.11C335.627 362.175 335.52 362.205 335.411 362.193C335.302 362.181 335.2 362.129 335.126 362.047L334.872 361.761C334.84 361.729 334.84 361.703 334.872 361.682C345.957 351.151 349.97 342.223 348.304 326.602C346.433 308.983 332.287 294.202 316.174 288.842ZM292.195 313.772C292.798 313.074 293.622 312.493 294.669 312.028C295.388 311.721 295.483 311.848 294.955 312.408C287.548 320.338 288.77 333.754 295.89 340.336C300.563 344.649 306.415 346.394 313.446 345.569C335.855 342.937 343.245 311.25 324.785 299.071C305.802 286.558 282.045 292.315 272.372 313.265C262.698 334.198 276.971 357.035 298.507 360.191C318.743 363.157 340.739 352.087 342.833 329.837C343.488 322.87 342.404 315.976 339.582 309.157C339.434 308.798 339.175 308.676 338.805 308.792L338.408 308.919C338.292 308.962 338.249 309.046 338.281 309.173C342.108 323.034 339.307 334.145 329.876 342.508C322.517 349.042 311.67 352.087 302.329 349.185C286.486 344.253 281.459 326.348 292.195 313.772Z" fill="black"/>
<path fill-rule="evenodd" clip-rule="evenodd" d="M357.376 303.274C357.943 304.105 358.57 304.913 359.195 305.719C360.562 307.481 361.923 309.234 362.641 311.203C364.84 317.293 364.872 323.658 362.736 330.297C362.398 331.344 362.234 331.318 362.244 330.218C362.371 314.756 350.762 301.149 339.709 291.538C339.603 291.448 339.523 291.33 339.48 291.198C339.436 291.066 339.429 290.924 339.46 290.789C339.491 290.653 339.559 290.528 339.656 290.428C339.753 290.328 339.875 290.257 340.01 290.222C355.98 286.035 373.853 284.798 383.178 301.624C383.38 301.991 383.485 302.403 383.485 302.821C383.484 303.239 383.378 303.651 383.175 304.017C382.972 304.383 382.68 304.691 382.325 304.914C381.971 305.136 381.566 305.265 381.148 305.288C377.236 305.499 373.7 304.654 370.539 302.751C370.424 302.678 370.291 302.64 370.155 302.644C370.02 302.647 369.888 302.69 369.778 302.769C369.667 302.847 369.582 302.956 369.534 303.083C369.486 303.21 369.477 303.348 369.508 303.48C369.738 304.593 370.152 305.478 370.542 306.313C371.31 307.954 371.986 309.4 370.998 311.996C370.957 312.102 370.89 312.196 370.803 312.27C370.717 312.344 370.614 312.396 370.503 312.421C370.391 312.446 370.276 312.444 370.166 312.414C370.056 312.384 369.955 312.328 369.872 312.25C366.13 308.782 362.154 305.6 357.946 302.703C356.731 301.868 356.54 302.058 357.376 303.274ZM381.64 302.338C380.897 302.059 380.153 301.779 379.408 301.498C372.276 298.809 365.031 296.078 357.709 294.139C357.582 294.097 357.529 294.012 357.55 293.885C357.582 293.737 357.682 293.674 357.851 293.695C366.489 294.657 374.62 297.248 382.242 301.466C382.348 301.519 382.38 301.604 382.337 301.72L382.163 302.116C382.068 302.359 381.894 302.434 381.64 302.338ZM369.78 307.802C369.813 307.724 369.818 307.636 369.793 307.555C368.768 304.056 366.722 301.407 363.656 299.61C363.546 299.549 363.417 299.528 363.293 299.55C363.168 299.572 363.055 299.636 362.974 299.731C362.893 299.825 362.848 299.944 362.848 300.067C362.848 300.19 362.893 300.309 362.974 300.403L369.159 307.888C369.212 307.955 369.286 308 369.369 308.018C369.452 308.035 369.538 308.023 369.614 307.984C369.689 307.945 369.748 307.88 369.78 307.802Z" fill="black"/>
<path fill-rule="evenodd" clip-rule="evenodd" d="M140.505 302.83C137.175 305.473 133.342 306.314 129.007 305.351C128.811 305.308 128.628 305.219 128.472 305.092C128.316 304.965 128.193 304.803 128.111 304.62C128.029 304.436 127.992 304.236 128.001 304.035C128.011 303.835 128.068 303.639 128.167 303.464C138.092 285.913 152.089 287.609 169.236 289.686L169.238 289.686C169.707 289.743 170.179 289.8 170.653 289.857C172.471 290.069 172.672 290.756 171.255 291.919C160.059 301.101 148.926 313.709 148.752 328.902C148.741 329.769 148.572 329.8 148.244 328.997C144.517 319.973 146.817 310.617 152.97 303.29C153.404 302.761 153.293 302.581 152.637 302.751C150.57 303.292 148.813 305.085 147.001 306.933C145.31 308.659 143.571 310.433 141.488 311.283C139.934 311.906 139.162 311.383 139.173 309.713C139.194 307.408 139.812 305.267 141.028 303.29C141.715 302.169 141.541 302.016 140.505 302.83ZM154.381 293.632C154.804 293.568 155.032 293.584 155.063 293.679V293.695C155.084 293.801 154.994 293.885 154.794 293.949C146.875 296.19 139.257 299.188 131.941 302.941C131.655 303.089 131.455 303.01 131.338 302.703L131.18 302.259C131.159 302.185 131.185 302.127 131.259 302.085C138.374 297.665 146.082 294.848 154.381 293.632ZM144.189 305.384C144.926 303.63 145.552 302.139 147.15 300.292C147.266 300.165 147.256 300.049 147.118 299.943L146.801 299.674C146.738 299.621 146.674 299.626 146.611 299.689C144.264 301.846 142.609 304.463 141.647 307.54C141.605 307.677 141.647 307.778 141.774 307.841L142.186 308.015C142.37 308.094 142.577 308.1 142.763 308.032C142.949 307.964 143.1 307.827 143.185 307.651C143.583 306.827 143.895 306.085 144.189 305.384Z" fill="black"/>
<path fill-rule="evenodd" clip-rule="evenodd" d="M306.294 392.147C306.231 392.147 306.17 392.172 306.126 392.217C306.081 392.262 306.056 392.322 306.056 392.385C306.056 392.448 306.081 392.509 306.126 392.553C306.17 392.598 306.231 392.623 306.294 392.623C331.811 396.318 356.218 374.433 363.18 350.692C363.222 350.544 363.317 350.486 363.465 350.518H363.481C363.629 350.549 363.693 350.644 363.671 350.803C358.026 382.648 326.467 403.09 295.209 396.159C276.432 391.994 264.569 380.607 259.621 361.999C258.088 356.237 256.693 350.454 255.434 344.65C255.424 344.597 255.445 344.565 255.498 344.555L255.878 344.444C256.185 344.348 256.391 344.449 256.497 344.745C267.963 375.226 297.35 393.067 329.305 382.632C329.845 382.452 329.918 382.574 329.527 382.997C325.69 387.129 321.364 387.482 316.637 387.867C315.777 387.937 314.904 388.008 314.017 388.103C313.816 388.124 313.716 388.235 313.716 388.436L313.732 388.833C313.732 388.864 313.748 388.88 313.779 388.88C316.042 388.838 318.299 388.944 320.551 389.198C320.648 389.195 320.742 389.232 320.811 389.299C320.881 389.366 320.922 389.458 320.924 389.554C320.926 389.651 320.89 389.745 320.823 389.815C320.756 389.884 320.664 389.925 320.567 389.927L306.294 392.147ZM213.551 390.529C212.915 390.555 212.286 390.582 211.665 390.608C199.698 391.117 190.597 391.504 181.31 382.79C178.836 380.464 179.069 380.152 182.008 381.854C189.018 385.914 198.882 385.835 207.208 385.09C227.127 383.298 245.65 367.851 252.358 349.693C254.007 345.241 254.7 345.39 254.436 350.137C254.224 353.816 253.267 358.452 251.565 364.045C241.019 398.744 199.833 406.166 171.922 387.754C159.309 379.433 151.03 367.391 147.087 351.627C147.065 351.532 147.06 351.437 147.071 351.342C147.113 351.162 147.129 351.056 147.118 351.025C147.087 350.707 147.124 350.702 147.229 351.009C153.002 367.079 163.305 379.238 178.138 387.484C188.5 393.246 200.314 394.33 213.583 390.735C213.603 390.724 213.619 390.708 213.629 390.687C213.639 390.667 213.643 390.644 213.639 390.621C213.636 390.599 213.626 390.578 213.61 390.561C213.594 390.545 213.574 390.534 213.551 390.529ZM255.212 396.033C255.635 395.092 255.952 395.124 256.164 396.128C256.989 400.014 259.399 403.915 263.443 405.168C268.248 406.658 275.797 404.279 276.305 398.158C276.4 396.963 276.178 396.038 275.639 395.383L275.607 395.344C266.375 383.958 258.445 374.179 256.529 359.653C255.683 353.288 254.964 353.283 254.372 359.637C253.04 374.116 244.857 383.933 235.151 395.066C231.789 398.919 237.815 404.533 240.955 405.469C248.567 407.753 252.374 402.313 255.212 396.033Z" fill="black"/>
<path d="M304.295 301.529C308.165 303.168 311.035 305.361 312.907 308.11C316.967 314.105 314.826 328.267 304.708 323.779C304.116 323.515 304.137 323.314 304.771 323.176C318.584 320.179 311.733 302.797 299.125 303.828C282.616 305.176 274.782 323.731 280.903 338.353C280.967 338.522 280.919 338.644 280.761 338.718C280.602 338.802 280.475 338.771 280.38 338.623C262.031 307.587 305.358 279.802 322.2 310.806C322.327 311.039 322.316 311.261 322.168 311.472L321.867 311.948C321.814 312.022 321.767 312.022 321.724 311.948C318.679 307.634 310.036 300.165 304.375 300.942C303.635 301.048 303.608 301.243 304.295 301.529Z" fill="black"/>
<path d="M206.763 300.815C199.976 301.819 194.557 305.05 190.508 310.505C190.265 310.833 190.101 310.801 190.016 310.41C189.974 310.177 190.022 309.908 190.159 309.601C195.329 298.595 208.254 294.345 219.26 299.372C233.644 305.938 238.148 320.116 232.09 335.086C230.906 338.015 230.531 337.914 230.964 334.785C231.17 333.421 232.106 331.502 232.265 329.71C233.438 316.246 223.812 303.337 209.539 304.114C199.167 304.685 194.33 319.085 205.051 323.462C205.643 323.705 205.627 323.895 205.003 324.033C198.675 325.523 195.757 320.845 196.281 315.199C196.915 308.147 200.441 303.485 206.859 301.212C208.117 300.757 208.085 300.625 206.763 300.815Z" fill="black"/>
</svg>
