<svg width="512" height="512" viewBox="0 0 512 512" fill="none" xmlns="http://www.w3.org/2000/svg">
<rect width="512" height="512" fill="white"/>
<path d="M282.968 279.839L282.967 279.839C268.506 279.474 253.242 279.189 237.176 278.986C235.661 278.967 234.53 279.288 233.727 279.891C232.931 280.489 232.396 281.411 232.159 282.719L232.157 282.728C232.064 283.195 232.064 283.674 232.156 284.137C232.248 284.601 232.43 285.04 232.691 285.429L232.697 285.437C255.692 321.148 278.595 356.921 301.408 392.754C303.157 395.468 306.207 399.409 310.572 404.586L310.573 404.587C310.847 404.915 311.201 405.169 311.602 405.325C312.003 405.481 312.438 405.534 312.867 405.479C315.757 405.076 318.146 403.405 320.034 400.378C329.191 385.642 337.666 371.612 345.91 357.965C361.024 332.946 375.361 309.212 391.709 284.759L391.709 284.759C392.116 284.153 392.305 283.429 392.248 282.706C392.19 281.983 391.889 281.304 391.395 280.779L391.395 280.779C389.385 278.639 387.328 278.061 385.193 277.999C384.109 277.968 383.009 278.07 381.865 278.179L381.812 278.184C380.695 278.29 379.538 278.4 378.372 278.377C368.32 278.174 358.186 278.67 347.97 279.866L347.965 279.867C347.323 279.936 346.73 279.838 346.286 279.462C345.842 279.086 345.65 278.519 345.615 277.876C345.469 275.591 345.347 273.266 345.223 270.934C344.829 263.471 344.432 255.947 343.276 249.475L343.276 249.474C337.481 216.752 324.294 188.775 303.721 165.528C257.587 113.441 193.761 102.262 126.432 107.771L282.968 279.839ZM282.968 279.839C283.58 279.853 284.188 279.731 284.748 279.483C285.307 279.234 285.805 278.865 286.206 278.402C286.606 277.938 286.899 277.392 287.064 276.802C287.229 276.213 287.261 275.594 287.159 274.99L287.159 274.989M282.968 279.839L287.159 274.989M287.159 274.989C282.16 245.85 271.72 222.373 255.814 204.589C239.907 186.804 218.56 174.745 191.805 168.397L191.805 168.397M287.159 274.989L191.805 168.397M191.805 168.397C176.381 164.742 158.962 165.171 142.403 165.579C140.657 165.622 138.921 165.665 137.197 165.703L137.197 165.703M191.805 168.397L137.197 165.703M137.197 165.703C135.832 165.734 134.5 165.281 133.437 164.423C132.375 163.566 131.65 162.36 131.392 161.019L131.392 161.017M137.197 165.703L131.392 161.017M131.392 161.017C128.383 145.732 124.847 130.162 120.782 114.309L120.782 114.309M131.392 161.017L120.782 114.309M120.782 114.309C120.245 112.22 120.494 110.728 121.364 109.707M120.782 114.309L121.364 109.707M121.364 109.707C122.252 108.663 123.892 107.98 126.432 107.771L121.364 109.707Z" fill="white" stroke="black"/>
<path d="M139.454 152.184L139.454 152.183C139.704 152.131 139.923 151.982 140.063 151.768C140.203 151.555 140.252 151.294 140.2 151.044L133.358 118.295L133.358 118.295C133.332 118.171 133.282 118.054 133.211 117.949C133.14 117.845 133.049 117.756 132.943 117.686C132.837 117.617 132.719 117.569 132.594 117.546C132.47 117.523 132.343 117.524 132.219 117.55L132.219 117.55L132.1 117.575L132.1 117.575C131.85 117.627 131.631 117.776 131.491 117.99C131.351 118.203 131.302 118.464 131.354 118.714C131.354 118.714 131.354 118.714 131.354 118.714L138.196 151.463L137.708 151.565L138.196 151.463C138.222 151.587 138.272 151.704 138.343 151.809C138.414 151.913 138.505 152.003 138.611 152.072C138.717 152.141 138.835 152.189 138.96 152.212C139.084 152.236 139.211 152.234 139.335 152.209L139.454 152.184ZM139.454 152.184L139.335 152.209L139.454 152.184Z" fill="black" stroke="black"/>
<path d="M186.822 156.283C187.957 156.891 188.848 157.281 189.459 157.399C249.35 169.907 290.006 217.409 298.055 277.699L298.056 277.71L298.058 277.72C298.073 277.807 298.059 277.847 298.05 277.867C298.039 277.888 298.008 277.933 297.914 277.987C297.912 277.988 297.91 277.989 297.909 277.99L296.884 278.532L296.88 278.534C296.576 278.699 296.463 278.662 296.445 278.654C296.425 278.645 296.319 278.581 296.231 278.24L296.23 278.234C294.933 273.431 293.828 268.659 292.917 263.918L292.916 263.917C288.509 241.27 277.038 219.958 262.583 202.569L262.199 202.889L262.583 202.569C233.913 168.085 191.298 153.444 146.889 157.172C146.514 157.201 146.256 157.188 146.093 157.153C146.063 157.147 146.039 157.14 146.02 157.134C146.026 157.119 146.034 157.101 146.044 157.079C146.112 156.935 146.256 156.728 146.506 156.454L146.506 156.454L146.509 156.451L148.886 153.8L148.886 153.8L148.89 153.795C149.121 153.531 149.346 153.4 149.56 153.352C149.774 153.304 150.033 153.327 150.355 153.467L150.355 153.467L150.367 153.472C154.747 155.253 158.799 154.876 162.457 152.308C162.46 152.667 162.516 153.012 162.63 153.338C162.683 153.532 162.781 153.71 162.934 153.853C163.092 154.001 163.283 154.089 163.482 154.136C167.24 155.016 171.898 153.593 177.395 150.078L177.395 150.078C177.852 149.786 178.24 149.55 178.562 149.368C178.329 149.651 178.033 149.99 177.671 150.386L177.669 150.387L176.178 152.031C176.178 152.031 176.177 152.031 176.177 152.032C175.683 152.57 175.363 153.176 175.484 153.81C175.604 154.443 176.121 154.893 176.777 155.222C178.652 156.191 180.643 156.089 182.389 155.956C182.501 155.948 182.612 155.939 182.722 155.931C183.485 155.871 184.19 155.816 184.855 155.837C185.608 155.861 186.261 155.983 186.822 156.283ZM186.822 156.283L187.059 155.842M186.822 156.283C186.823 156.283 186.823 156.283 186.823 156.283L187.059 155.842M187.059 155.842C188.196 156.452 189.029 156.807 189.557 156.909L187.059 155.842ZM145.959 157.108C145.959 157.108 145.96 157.108 145.961 157.109C145.96 157.108 145.959 157.108 145.959 157.108ZM146.003 157.196C146.003 157.198 146.003 157.199 146.003 157.199C146.003 157.199 146.003 157.198 146.003 157.196Z" fill="black" stroke="black"/>
<path d="M191.617 153.016C192.087 152.812 192.541 152.588 192.953 152.357C193.365 152.126 193.722 151.894 194.005 151.678C194.245 151.494 194.412 151.335 194.517 151.21C194.354 151.2 194.123 151.214 193.825 151.263C193.474 151.321 193.061 151.423 192.61 151.565C192.16 151.707 191.685 151.884 191.215 152.088M191.617 153.016C191.147 153.219 190.672 153.397 190.222 153.539C189.771 153.681 189.358 153.783 189.007 153.841C188.708 153.89 188.478 153.904 188.315 153.894C188.419 153.768 188.587 153.61 188.827 153.426C189.11 153.209 189.467 152.978 189.879 152.746C190.291 152.515 190.745 152.291 191.215 152.088M191.617 153.016L191.815 153.475L191.617 153.016ZM191.215 152.088L191.017 151.63L191.215 152.088Z" fill="black" stroke="black"/>
<path d="M294.456 241.467L294.467 241.627L294.569 241.751C294.901 242.155 295.067 242.598 295.075 243.098L292.419 238.106C292.391 238.04 292.386 237.965 292.405 237.895C292.426 237.822 292.471 237.758 292.534 237.715C292.598 237.672 292.674 237.653 292.75 237.66C292.822 237.668 292.89 237.7 292.942 237.75C293.859 238.823 294.362 240.057 294.456 241.467Z" fill="black" stroke="black"/>
<path d="M277.686 318.562C275.842 317.962 274.602 316.934 274.124 315.416C273.958 314.906 273.925 314.402 274.057 313.921C274.189 313.439 274.475 313.022 274.878 312.665C274.878 312.665 274.879 312.665 274.879 312.665L287.764 301.201L287.183 300.673L287.181 300.67C287.134 300.628 287.107 300.616 287.097 300.613C287.087 300.615 287.058 300.625 287.006 300.666L286.997 300.673L286.997 300.673L275.327 309.418L275.322 309.421L275.322 309.421C274.889 309.738 274.353 309.995 273.84 309.785C273.326 309.575 273.125 309.016 273.04 308.487L273.039 308.479L273.038 308.471L272.856 307.052C272.815 306.815 272.83 306.571 272.931 306.34C273.035 306.106 273.209 305.926 273.416 305.794C276.974 303.502 280.211 300.778 283.128 297.62C283.247 297.486 283.281 297.348 283.266 297.239C283.252 297.13 283.184 297.013 283.04 296.925C282.892 296.835 282.683 296.791 282.459 296.825C282.235 296.86 282.042 296.966 281.919 297.103L281.915 297.107L281.915 297.107C280.188 298.978 277.235 301.716 273.069 305.312M277.686 318.562L282.957 290.399C282.957 290.399 282.957 290.399 282.957 290.401M277.686 318.562C277.504 319.397 277.491 320.168 277.674 320.861C277.895 321.696 278.389 322.375 279.127 322.894L279.127 322.895L279.137 322.901C279.631 323.231 280.154 323.405 280.693 323.357C281.233 323.308 281.715 323.043 282.14 322.631L282.143 322.627L293.295 311.566L293.297 311.565C293.342 311.52 293.373 311.499 293.39 311.489C293.405 311.499 293.429 311.518 293.462 311.553L293.464 311.555L294.01 312.132C294.01 312.132 294.011 312.132 294.011 312.133C294.053 312.177 294.07 312.207 294.078 312.222C294.069 312.237 294.049 312.266 294.004 312.308L294.004 312.308L293.994 312.318L282.052 324.108C282.052 324.108 282.051 324.109 282.051 324.109C281.851 324.304 281.69 324.536 281.579 324.793C281.468 325.049 281.409 325.325 281.405 325.605C281.402 325.884 281.454 326.161 281.559 326.419C281.664 326.677 281.82 326.91 282.018 327.106C282.018 327.106 282.018 327.107 282.019 327.107L282.839 327.928L282.839 327.928L282.848 327.936C283.069 328.146 283.36 328.271 283.667 328.281C283.974 328.291 284.275 328.183 284.504 327.974L284.506 327.973L297.516 316.059L297.52 316.056C297.565 316.014 297.595 315.996 297.611 315.988C297.626 315.997 297.655 316.017 297.697 316.062L297.697 316.062L297.701 316.066L298.317 316.712L284.252 332.451L284.252 332.452C283.942 332.799 283.792 332.795 283.775 332.792C283.755 332.79 283.607 332.746 283.4 332.325C280.354 325.825 276.481 319.846 271.78 314.389L271.78 314.389L271.776 314.385C271.26 313.799 270.921 313.083 270.797 312.319L270.797 312.317C270.454 310.279 269.526 308.59 268.015 307.272C267.254 306.589 266.592 305.829 266.027 304.992L256.461 290.52L256.461 290.52L256.458 290.516C256.402 290.433 256.37 290.337 256.366 290.237C256.362 290.137 256.386 290.038 256.435 289.952C256.484 289.865 256.557 289.794 256.644 289.746C256.732 289.698 256.831 289.675 256.931 289.68L256.931 289.681L256.942 289.681L267.332 290.016C267.332 290.016 267.332 290.016 267.332 290.016C267.401 290.018 267.453 290.025 267.489 290.032C267.48 290.065 267.465 290.11 267.44 290.167L267.439 290.168L266.406 292.508C266.365 292.592 266.295 292.659 266.208 292.695C266.12 292.731 266.022 292.734 265.932 292.702L265.928 292.7L262.942 291.664L262.941 291.664C262.519 291.518 262.157 291.42 261.87 291.385C261.727 291.368 261.573 291.363 261.428 291.392C261.281 291.422 261.084 291.5 260.956 291.698C260.828 291.896 260.838 292.108 260.872 292.254C260.905 292.399 260.973 292.537 261.048 292.659C261.197 292.905 261.436 293.193 261.742 293.515L263.934 295.889L263.934 295.889L263.936 295.891C264.426 296.415 264.986 296.753 265.617 296.795C266.247 296.837 266.844 296.575 267.392 296.118C269.119 294.703 270.566 293.069 271.733 291.215L271.733 291.214C272.018 290.76 272.351 290.45 272.725 290.259C273.099 290.068 273.545 289.98 274.079 290.015L274.08 290.015L275.478 290.106C275.478 290.107 275.479 290.107 275.48 290.107C275.802 290.13 276.013 290.176 276.138 290.225C276.145 290.228 276.151 290.23 276.156 290.233C276.152 290.24 276.147 290.248 276.142 290.256C276.068 290.373 275.923 290.538 275.675 290.753C275.675 290.753 275.675 290.753 275.675 290.753L264.798 300.107L264.798 300.107L264.788 300.115C264.514 300.363 264.316 300.664 264.239 301.019C264.162 301.373 264.215 301.731 264.356 302.076L264.361 302.089L264.367 302.101C264.628 302.652 265.102 302.975 265.709 303.081L265.708 303.081L265.72 303.083C266.367 303.18 266.948 303.169 267.416 302.985C267.918 302.789 268.251 302.409 268.382 301.887L268.382 301.887L268.384 301.878L268.475 301.482L268.566 301.09C268.647 300.768 268.837 300.545 269.185 300.399C274.144 298.366 277.858 294.987 280.31 290.275M277.686 318.562L279.872 290.034M273.069 305.312C273.069 305.313 273.068 305.313 273.068 305.313L272.742 304.934M273.069 305.312C273.069 305.312 273.069 305.312 273.069 305.312L272.742 304.934M273.069 305.312C272.642 305.683 272.19 305.939 271.716 306.015C271.225 306.093 270.763 305.97 270.353 305.68M272.742 304.934C271.97 305.605 271.269 305.717 270.639 305.27C269.928 304.782 269.877 304.234 270.487 303.624L282.949 291.223C283.762 290.431 283.599 289.973 282.461 289.852L280.572 289.638M272.742 304.934L282.957 290.401M270.353 305.68C270.354 305.68 270.355 305.681 270.356 305.682L270.639 305.27L270.35 305.677C270.351 305.678 270.352 305.679 270.353 305.68ZM270.353 305.68C269.946 305.4 269.615 305.027 269.57 304.539C269.524 304.049 269.783 303.621 270.133 303.271L270.134 303.27L282.596 290.868L282.6 290.865L282.6 290.865C282.783 290.686 282.884 290.553 282.931 290.464M282.931 290.464C282.968 290.48 282.985 290.492 282.99 290.497M282.931 290.464C282.931 290.463 282.932 290.462 282.932 290.461C282.95 290.426 282.955 290.408 282.957 290.401M282.931 290.464C282.93 290.463 282.929 290.463 282.928 290.463C282.833 290.42 282.668 290.377 282.408 290.349L282.405 290.348L280.53 290.137M282.99 290.497C282.991 290.498 282.992 290.498 282.992 290.498C282.992 290.498 282.991 290.498 282.99 290.497ZM282.99 290.497C282.985 290.492 282.974 290.479 282.965 290.453C282.956 290.426 282.956 290.408 282.957 290.401M280.53 290.137C280.533 290.137 280.536 290.137 280.539 290.137L280.572 289.638M280.53 290.137L280.516 290.135L280.572 289.638M280.53 290.137C280.467 290.134 280.434 290.146 280.415 290.157C280.393 290.17 280.355 290.199 280.31 290.275M280.572 289.638C280.268 289.618 280.034 289.75 279.872 290.034M279.872 290.034L280.315 290.265C280.313 290.268 280.312 290.272 280.31 290.275M279.872 290.034L280.306 290.282C280.307 290.28 280.309 290.277 280.31 290.275M293.407 311.481C293.407 311.481 293.407 311.482 293.406 311.482L293.407 311.481ZM294.082 312.235C294.082 312.235 294.082 312.234 294.082 312.233C294.082 312.235 294.083 312.235 294.082 312.235ZM294.083 312.212C294.083 312.211 294.083 312.21 294.083 312.21C294.083 312.21 294.083 312.211 294.083 312.212ZM265.764 293.173L265.764 293.173L265.764 293.173ZM297.624 315.984C297.624 315.984 297.623 315.984 297.621 315.984C297.623 315.984 297.624 315.984 297.624 315.984ZM297.601 315.983C297.599 315.983 297.598 315.983 297.598 315.983C297.598 315.983 297.599 315.983 297.601 315.983ZM276.226 290.271C276.226 290.271 276.225 290.27 276.223 290.269C276.225 290.27 276.226 290.271 276.226 290.271ZM276.188 290.163C276.189 290.161 276.189 290.16 276.189 290.16C276.189 290.16 276.189 290.161 276.188 290.163ZM287.101 300.612C287.101 300.612 287.1 300.612 287.099 300.612L287.101 300.612ZM287.096 300.612C287.094 300.612 287.093 300.612 287.093 300.612L287.096 300.612Z" fill="black" stroke="black"/>
<path d="M310.842 389.801L310.842 389.801L310.848 389.809C310.873 389.844 310.887 389.87 310.895 389.887C310.88 389.901 310.854 389.922 310.813 389.947L310.67 390.034C310.657 390.02 310.639 389.997 310.617 389.961L310.609 389.948L310.6 389.935C308.709 387.23 306.787 384.546 304.835 381.882L304.834 381.881C295.945 369.786 287.574 357.345 279.72 344.559C268.707 326.577 257.44 308.799 245.92 291.223C245.855 291.124 245.827 291.053 245.816 291.009C245.811 290.988 245.81 290.975 245.81 290.969C245.81 290.966 245.81 290.964 245.81 290.963L245.811 290.962L245.811 290.961C245.812 290.96 245.813 290.958 245.815 290.955C245.819 290.949 245.827 290.938 245.844 290.923C245.88 290.891 245.945 290.848 246.057 290.802L246.868 290.471C246.908 290.457 246.944 290.446 246.973 290.438C250.328 294.503 253.445 298.755 256.326 303.196C272.004 327.403 287.133 351.936 301.715 376.793C303.024 379.042 304.569 381.201 306.151 383.339C306.489 383.797 306.829 384.253 307.169 384.709C308.422 386.391 309.674 388.072 310.842 389.801Z" fill="black" stroke="black"/>
<path d="M278.579 317.273C278.317 315.849 278.589 315.042 279.138 314.627L279.139 314.626C282.621 311.979 286.022 309.22 289.341 306.349L289.341 306.349L289.347 306.343C289.481 306.223 289.553 306.219 289.571 306.219C289.59 306.22 289.661 306.228 289.787 306.355L290.11 306.677L278.579 317.273Z" fill="black" stroke="black"/>
<path d="M302.012 323.153L302.014 323.156L302.589 324.186C302.599 324.207 302.603 324.23 302.599 324.253C302.595 324.276 302.584 324.298 302.566 324.315L302.566 324.314L302.557 324.323L287.292 339.284L287.292 339.284L287.285 339.291C287.272 339.304 287.256 339.313 287.238 339.319C287.221 339.324 287.202 339.325 287.184 339.321C287.166 339.317 287.149 339.309 287.135 339.297C287.122 339.285 287.111 339.27 287.104 339.252L287.105 339.252L287.1 339.242L285.881 336.195L285.881 336.194C285.873 336.173 285.871 336.149 285.877 336.126C285.883 336.104 285.896 336.083 285.914 336.069L285.915 336.068L301.848 323.121C301.848 323.12 301.849 323.12 301.849 323.12C301.861 323.11 301.875 323.103 301.89 323.1C301.906 323.096 301.922 323.096 301.938 323.099C301.953 323.102 301.968 323.108 301.981 323.118C301.994 323.127 302.005 323.14 302.012 323.153Z" fill="black" stroke="black"/>
<path d="M292.841 344.713L292.842 344.712C296.631 339.428 301.178 334.881 306.481 331.072C306.52 331.042 306.541 331.02 306.551 331.007C306.545 330.991 306.531 330.964 306.5 330.923C306.5 330.923 306.499 330.922 306.499 330.921L305.973 330.236L290.656 341.837L292.841 344.713ZM292.841 344.713C292.752 344.839 292.636 344.943 292.501 345.019C292.367 345.094 292.218 345.14 292.064 345.152C291.91 345.163 291.756 345.141 291.612 345.087C291.469 345.033 291.34 344.95 291.234 344.842M292.841 344.713L293.248 345.004C293.116 345.189 292.945 345.342 292.747 345.454C292.549 345.566 292.329 345.633 292.103 345.65C291.876 345.668 291.648 345.635 291.436 345.555C291.223 345.475 291.03 345.349 290.871 345.186M290.871 345.186L291.239 344.847L291.234 344.842M290.871 345.186L291.229 344.837C291.231 344.839 291.232 344.84 291.234 344.842M290.871 345.186L290.655 341.837C290.124 342.241 289.936 342.594 289.915 342.884C289.894 343.176 290.03 343.559 290.5 344.047L290.508 344.055L290.508 344.055L291.234 344.842M306.556 331.024C306.556 331.024 306.556 331.023 306.556 331.021L306.556 331.024ZM306.559 330.995C306.56 330.993 306.56 330.992 306.561 330.992C306.561 330.992 306.56 330.993 306.559 330.995Z" fill="black" stroke="black"/>
<path d="M293.065 348.813L293.065 348.813C292.69 349.101 292.451 349.347 292.317 349.547C292.184 349.746 292.182 349.856 292.192 349.906C292.202 349.957 292.246 350.061 292.446 350.2C292.647 350.339 292.962 350.483 293.419 350.618L293.065 348.813ZM293.065 348.813L293.068 348.81L307.454 337.584M293.065 348.813L307.454 337.584M308.131 338.686C303.77 341.772 300.199 345.589 297.422 350.136C297.175 350.54 296.801 350.852 296.358 351.022C295.915 351.192 295.429 351.21 294.975 351.075L294.973 351.075L293.419 350.618L308.243 338.575C308.243 338.575 308.243 338.576 308.243 338.577M308.131 338.686C308.132 338.685 308.132 338.685 308.133 338.684L308.422 339.092M308.131 338.686C308.13 338.686 308.13 338.686 308.129 338.687L308.422 339.092M308.131 338.686C308.2 338.635 308.228 338.601 308.238 338.585M308.422 339.092C308.788 338.828 308.838 338.524 308.574 338.178M308.422 339.092L308.243 338.577M308.238 338.585C308.239 338.588 308.24 338.591 308.24 338.593M308.238 338.585C308.24 338.581 308.242 338.578 308.243 338.577M308.238 338.585C308.233 338.569 308.219 338.537 308.18 338.486M308.24 338.593C308.24 338.595 308.24 338.596 308.24 338.596C308.241 338.596 308.241 338.595 308.24 338.593ZM308.24 338.593C308.24 338.591 308.24 338.588 308.241 338.584C308.242 338.58 308.242 338.578 308.243 338.577M308.18 338.486L308.185 338.492L308.574 338.178M308.18 338.486L307.454 337.584M308.18 338.486C308.179 338.485 308.178 338.483 308.177 338.482L308.574 338.178M308.574 338.178L307.454 337.584" fill="black" stroke="black"/>
<path d="M299.308 357.13L299.307 357.13C299.177 357.274 299.018 357.39 298.841 357.468C298.663 357.547 298.471 357.588 298.277 357.588C298.082 357.588 297.89 357.547 297.713 357.468C297.537 357.39 297.379 357.276 297.249 357.133C296.699 356.502 296.579 355.955 296.73 355.444C296.894 354.888 297.414 354.25 298.436 353.552C302.53 350.783 306.397 347.727 310.037 344.385L310.527 344.735L299.308 357.13ZM310.638 344.609C310.638 344.609 310.638 344.61 310.637 344.611C310.637 344.61 310.638 344.609 310.638 344.609Z" fill="black" stroke="black"/>
<path d="M302.414 362.859L302.414 362.859L302.409 362.865C302.161 363.149 302.035 363.148 302.019 363.146C301.997 363.144 301.864 363.112 301.656 362.778L301.655 362.776L300.986 361.712C300.865 361.515 300.842 361.374 300.852 361.274C300.863 361.176 300.913 361.051 301.067 360.897C304.16 357.804 306.868 355.581 309.194 354.21C309.931 353.778 310.503 353.476 310.918 353.297C310.657 353.67 310.243 354.174 309.666 354.815C309.666 354.815 309.666 354.815 309.666 354.815L302.414 362.859Z" fill="black" stroke="black"/>
<path d="M311.76 362.237L311.76 362.238C309.947 364.838 307.494 366.833 304.384 368.22C304.215 368.291 304.022 368.298 303.843 368.238C303.663 368.177 303.514 368.054 303.423 367.895C303.333 367.737 303.307 367.555 303.347 367.384C303.387 367.214 303.491 367.063 303.642 366.962L303.648 366.958L303.654 366.953L312.369 360.737C312.369 360.737 312.369 360.737 312.369 360.737C312.527 360.625 312.666 360.532 312.787 360.456C312.725 360.588 312.648 360.74 312.554 360.914L312.553 360.914L312.549 360.922C312.294 361.413 312.03 361.851 311.76 362.237Z" fill="black" stroke="black"/>
<path d="M308.072 373.81C308.069 373.812 308.069 373.811 308.072 373.81L308.072 373.81ZM308.288 373.633L307.824 373.104C307.824 373.104 307.824 373.104 307.824 373.103C307.67 372.926 307.675 372.842 307.677 372.83C307.678 372.816 307.695 372.731 307.889 372.59L318.405 365.199C318.422 365.22 318.441 365.245 318.462 365.275L318.484 365.307L308.288 373.633Z" fill="black" stroke="black"/>
<path d="M314.962 376.116L314.962 376.116L314.958 376.123C314.154 377.638 312.937 378.57 311.276 378.946C311.199 378.96 311.119 378.949 311.047 378.916C310.974 378.883 310.913 378.827 310.874 378.756C310.834 378.686 310.818 378.605 310.827 378.525C310.836 378.445 310.869 378.371 310.923 378.311C313.251 375.811 315.949 373.802 319.019 372.284L316.365 374.445C316.365 374.446 316.365 374.446 316.365 374.446C315.787 374.913 315.318 375.47 314.962 376.116Z" fill="black" stroke="black"/>
</svg>
