<svg width="512" height="512" viewBox="0 0 512 512" fill="none" xmlns="http://www.w3.org/2000/svg">
<rect width="512" height="512" fill="white"/>
<path d="M135.03 182.444C136.924 178.443 136.641 173.31 140.06 169.548C144.199 164.99 151.028 166.558 153.11 172.188C154.995 177.277 150.051 181.93 146.384 184.672C137.772 191.09 128.527 197.722 120.883 205.271C120.798 205.357 120.706 205.36 120.609 205.28V205.271C120.518 205.186 120.509 205.094 120.583 204.997C125.956 198.442 130.103 192.384 131.534 184.098C132.46 178.777 130.163 170.645 123.831 170.071C117.567 169.497 114.791 178.091 121.543 179.634C121.863 179.702 121.866 179.779 121.552 179.865C120.501 180.134 119.589 179.965 118.818 179.36C111.004 173.259 119.984 164.544 127.918 167.123C134.182 169.154 135.313 176.515 134.328 182.221C134.013 184.032 134.248 184.107 135.03 182.444Z" fill="black"/>
<path d="M355.682 255.235C368.749 255.595 382.357 262.836 383.496 277.103C384.182 285.757 378.603 296.116 368.467 294.848C363.891 294.274 358.835 289.913 359.847 284.857C360.235 282.943 361.169 281.678 362.649 281.061C364.385 280.336 366.207 280.833 368.115 282.552C368.16 282.59 368.188 282.643 368.194 282.702C368.2 282.761 368.184 282.82 368.15 282.869L367.995 283.075C367.915 283.189 367.818 283.201 367.704 283.109C362.451 278.705 360.061 290.127 367.901 289.947C376.727 289.75 375.339 277.094 372.245 272.321C366.513 263.461 354.962 259.871 344.877 259.802C344.774 259.797 344.72 259.848 344.714 259.957C344.709 260.059 344.757 260.117 344.86 260.128C354.662 261.156 373.454 266.237 370.069 280.17C370.058 280.204 370.015 280.222 369.94 280.222C369.94 280.222 369.938 280.222 369.932 280.222C369.92 280.222 369.915 280.202 369.915 280.162C369.915 275.803 368.295 272.447 365.056 270.093C360.526 266.792 355.542 264.418 350.104 262.973C345.854 261.842 341.664 260.214 337.499 259.434C335.363 259.04 333.227 258.654 331.09 258.277C330.976 258.254 330.904 258.3 330.876 258.414C330.847 258.528 330.887 258.603 330.996 258.637C338.331 260.976 351.055 265.62 350.575 275.543C350.558 275.949 350.47 275.966 350.31 275.594C347.79 269.733 343.001 266.383 337.277 264.061C326.454 259.674 315.863 255.715 306.087 249.177C303.47 247.429 297.809 242.736 289.104 235.099C288.464 234.539 287.595 233.574 286.499 232.203C286.43 232.123 286.436 232.046 286.516 231.971C286.596 231.897 286.673 231.897 286.747 231.971C288.581 233.685 291.211 235.287 292.668 236.333C307.895 247.232 327.86 254.807 346.454 247.995C362.409 242.151 382.185 228.655 380.806 209.024C380.8 208.944 380.834 208.899 380.908 208.887H380.917C380.997 208.876 381.045 208.907 381.063 208.981C384.807 224.457 373.891 238.406 361.62 245.758C360.209 246.604 359.27 247.198 358.801 247.541C358.716 247.603 358.701 247.681 358.758 247.772H358.767C358.824 247.863 358.898 247.883 358.99 247.832C367.927 242.656 375.09 237.19 380.634 228.133C384.661 221.546 386.321 214.38 385.613 206.634C384.636 195.923 375.262 184.107 363.171 188.22C361.338 188.842 359.735 190.279 358.364 192.53C357.233 194.392 357.245 196.246 358.398 198.091L358.587 198.391C359.667 200.127 360.755 200.133 361.852 198.408C367.01 190.31 375.57 198.913 370.84 206.154C367.378 211.449 360.978 212.092 355.494 209.616C348.253 206.334 345.297 197.876 347.859 190.37C351.381 180.019 362.349 176.001 372.614 177.997C386.11 180.628 393.607 192.89 394.027 206.017C394.567 223.12 384.576 238.038 369.186 245.253C367.787 245.91 364.708 247.181 359.949 249.066C357.567 250.008 354.517 250.42 352.383 251.362C349.578 252.596 349.667 252.87 352.649 252.185C354.603 251.733 356.765 251.134 359.135 250.385C370.926 246.692 388.92 233.951 400.959 243.813C404.815 246.975 407.223 252.433 405.355 257.189C402.87 263.53 395.424 266.443 389.726 262.15C387.235 260.276 386.689 257.652 388.089 254.276C388.11 254.223 388.15 254.18 388.203 254.156C388.255 254.132 388.316 254.129 388.372 254.147L388.637 254.241C388.774 254.287 388.82 254.378 388.774 254.515C388.089 256.692 388.466 258.257 389.905 259.211C395.861 263.161 401.67 256.109 398.311 250.334C394.258 243.376 383.222 245.501 377.25 247.669C370.103 250.268 362.908 252.733 355.665 255.064C355.328 255.172 355.334 255.229 355.682 255.235Z" fill="black"/>
<path d="M116.941 203.857C119.803 198.605 120.72 193.327 125.279 188.811C126.581 187.52 126.847 187.708 126.075 189.376C124.285 193.224 124.045 197.268 121.534 200.781C119.021 204.3 116.524 207.468 114.045 210.284C112.868 211.621 112.714 211.512 113.582 209.958C114.645 208.05 115.764 206.017 116.941 203.857Z" fill="black"/>
<path d="M187.761 196.222C180.649 194.32 172.449 194.175 165.783 193.686C165.783 193.68 165.783 193.68 165.783 193.686C167.628 193.252 169.202 193.035 170.504 193.035C195.31 192.975 219.611 204.688 234.264 225.459C241.418 235.613 226.303 242.725 224.135 228.698C221.462 211.346 203.211 200.344 187.761 196.222Z" fill="black"/>
<path d="M349.667 233.625C349.691 233.585 349.7 233.537 349.692 233.491C349.684 233.444 349.659 233.402 349.623 233.372C349.587 233.342 349.541 233.326 349.494 233.327C349.447 233.328 349.402 233.346 349.367 233.377C343.72 238.775 334.714 241.106 327.405 241.054C315.186 240.977 305.529 237.378 294.733 231.954C294.619 231.897 294.587 231.809 294.639 231.689V231.68C294.69 231.566 294.776 231.529 294.896 231.569C308.905 236.427 324.937 238.586 338.665 231.38C341.635 229.815 343.817 227.616 345.211 224.782C351.586 211.809 330.893 210.19 333.121 221.706C333.132 221.758 333.123 221.763 333.095 221.723C330.301 217.43 333.301 212.649 337.499 210.987C344.817 208.09 352.743 213.369 356.05 219.538C361.629 229.966 355.536 242.674 345.168 246.881C337.731 249.903 330.102 250.44 322.281 248.492C312.581 246.075 303.653 241.974 295.496 236.187C293.93 235.079 292.334 234.016 290.706 233C287.887 231.235 285.813 229.435 283.516 227.301C283.425 227.221 283.419 227.136 283.499 227.044V227.036C283.579 226.95 283.665 226.944 283.756 227.019C285.739 228.612 287.301 229.724 288.443 230.352C301.031 237.241 312.736 242.211 326.334 242.674C333.969 242.931 345.082 240.454 349.667 233.625Z" fill="black"/>
<path d="M290.8 217.859C290.406 217.933 290.086 217.924 289.84 217.833C289.669 217.77 289.666 217.705 289.832 217.636C294.67 215.448 299.56 213.523 304.501 211.861C311.099 209.65 317.388 210.575 322.05 216.051C322.08 216.085 322.102 216.127 322.113 216.171C322.124 216.216 322.125 216.263 322.115 216.309C322.105 216.354 322.085 216.397 322.056 216.434C322.027 216.471 321.989 216.501 321.947 216.522L321.604 216.685C321.547 216.713 321.496 216.708 321.45 216.668C314.432 210.515 298.854 216.342 290.8 217.859Z" fill="black"/>
<path d="M292.53 220.618C291.085 220.492 291.071 220.284 292.487 219.992C297.672 218.913 315.529 216.136 315.126 226.239C315.12 226.329 315.083 226.414 315.02 226.48C314.958 226.545 314.874 226.587 314.785 226.597C314.695 226.607 314.604 226.585 314.529 226.536C314.453 226.486 314.398 226.411 314.372 226.325C313.009 221.518 296.763 220.969 292.53 220.618Z" fill="black"/>
<path d="M130.685 224.38C127.789 228.938 127.498 235.887 130.077 240.908C133.761 248.06 139.774 251.234 148.114 250.428C153.335 249.926 156.783 247.729 158.456 243.839C159.227 242.045 159.502 242.12 159.279 244.062C157.754 257.343 144.601 263.65 133.341 256.332C122.091 249.032 121.62 233.325 130.368 224.14C131.299 223.163 131.405 223.243 130.685 224.38Z" fill="black"/>
<path fill-rule="evenodd" clip-rule="evenodd" d="M206.578 192.178C185.945 185.912 165.611 186.674 145.578 194.466C145.486 194.5 145.421 194.472 145.381 194.38H145.372C145.338 194.289 145.366 194.221 145.458 194.175C164.566 185.426 189.141 183.858 209.166 190.173C219.123 193.309 229.025 197.534 238.874 202.846C239.926 203.414 240.976 203.987 242.027 204.559C256.622 212.511 271.172 220.439 287.638 215.571C301.108 211.595 311.425 203.103 311.228 188.271C311.125 180.508 307.706 173.627 299.814 171.905C295.77 171.031 290.286 173.302 289.412 177.732C288.958 180.079 290.157 183.781 293.096 183.901C293.536 183.918 293.567 183.818 293.19 183.601C291.04 182.376 290.611 180.225 291.965 178.151C294.716 173.944 301.485 176.798 300.962 181.562C299.797 192.093 279.361 191.758 272.146 191.09C267.936 190.702 263.72 190.367 259.498 190.088C257.265 189.939 254.054 190.113 249.867 190.61C241.487 191.604 233.21 189.376 223.484 186.394C223.44 186.381 223.4 186.356 223.368 186.321C223.336 186.287 223.314 186.244 223.304 186.197L223.219 185.82C223.201 185.763 223.224 185.74 223.287 185.752C224.289 185.959 225.297 186.174 226.309 186.39C237.883 188.856 250.02 191.443 260.287 184.501C267.279 179.779 269.772 172.179 269.489 164.047C269.491 164.036 269.487 164.025 269.48 164.016C269.473 164.007 269.462 164.001 269.451 164C269.44 163.999 269.428 164.003 269.419 164.01C269.411 164.017 269.405 164.027 269.404 164.039C268.504 167.518 267.382 170.979 265.051 173.696C258.89 180.868 249.045 182.162 239.996 180.602C231.896 179.208 223.798 177.609 215.704 175.804C215.344 175.724 215.347 175.664 215.712 175.624C216.615 175.527 217.609 175.547 218.694 175.684C223.544 176.289 228.377 177.006 233.193 177.834C244.82 179.848 259.661 181.81 266.319 169.78C266.782 168.94 266.645 168.829 265.908 169.446C258.287 175.789 249.816 173.214 241.477 170.68C240.421 170.359 239.367 170.038 238.317 169.737C217.152 163.653 197.375 169.171 177.453 176.815C165.063 181.562 152.927 186.88 141.045 192.77C135.535 195.494 131.071 198.279 126.838 202.058C120.977 207.293 114.833 213.343 110.935 220.464C110.889 220.544 110.906 220.609 110.986 220.661H110.995C111.075 220.712 111.143 220.701 111.2 220.626C116.918 212.795 123.888 206.508 132.108 201.767C140.265 197.062 150.642 194.398 160.102 192.83C182.586 189.099 202.817 193.389 220.794 205.7C226.021 209.276 230.236 213.097 233.441 217.165C244.289 230.96 247.974 251.893 240.39 268.285C239.139 270.999 237.551 272.975 235.626 274.215C234.306 275.06 234.409 275.3 235.935 274.935C248.573 271.901 255.197 261.996 255.728 249.237C256.025 241.908 254.366 234.839 250.75 228.03C250.715 227.962 250.707 227.884 250.728 227.811C250.748 227.737 250.796 227.675 250.861 227.636L251.05 227.516C251.135 227.464 251.204 227.478 251.255 227.558C256.748 235.562 259.087 245.647 258.624 255.261C258.35 261.088 258.23 264.869 258.265 266.606C258.453 275.903 264.254 285.037 274.142 284.789C275.153 284.76 275.193 284.546 274.262 284.146C267.579 281.268 270.003 270.104 271.29 264.173C271.382 263.747 271.469 263.348 271.546 262.981C272.723 257.332 272.269 250.974 270.184 243.907C265.942 229.538 254.254 218.561 242.498 209.89C231.642 201.887 219.483 196.103 206.578 192.178ZM255.822 200.173C268.898 206.831 287.218 211.698 300.311 201.201C300.494 201.058 300.522 200.89 300.397 200.696L300.268 200.507C300.217 200.427 300.151 200.416 300.071 200.473C287.406 209.367 269.224 205.126 255.985 199.804C255.871 199.753 255.788 199.787 255.737 199.907L255.728 199.916C255.677 200.03 255.708 200.116 255.822 200.173Z" fill="black"/>
<path fill-rule="evenodd" clip-rule="evenodd" d="M166.451 202.82C166.48 202.695 166.557 202.64 166.683 202.658C184.231 205.442 197.958 219.144 202.003 236.144C202.38 237.714 202.562 239.61 202.752 241.595C203.03 244.482 203.325 247.556 204.265 250.085C207.932 259.931 213.99 282.312 203.656 289.39C199.552 292.2 192.149 291.892 190.581 286.322C188.918 280.435 196.279 275.449 200.383 281.198C200.56 281.444 200.712 281.429 200.837 281.155C200.889 281.035 200.889 280.895 200.837 280.735C198.995 274.969 192.406 272.527 186.948 274.677C180.41 277.248 178.19 284.154 180.367 290.709C183.272 299.432 192.123 303.117 200.794 302.208C210.294 301.22 217.829 297.122 223.399 289.912C226.004 286.545 228.754 281.018 229.671 277.051C233.23 261.707 231.282 247.557 223.827 234.602C213.425 216.539 194.222 201.981 173.34 198.527C165.509 197.231 157.605 197.399 149.631 199.033C134.533 202.126 122.974 208.099 113.908 220.635C109.789 226.324 107.256 232.648 106.308 239.606C103.866 257.514 116.222 277.359 134.19 281.584C158.791 287.359 181.909 270.633 178.053 244.361C176.1 231.088 164.686 221.654 151.105 223.891C143.35 225.167 136.804 232.597 140.505 240.625C140.51 240.644 140.521 240.659 140.537 240.669C140.553 240.678 140.573 240.681 140.591 240.677C140.609 240.672 140.625 240.661 140.634 240.645C140.644 240.629 140.647 240.609 140.642 240.591C140.174 235.855 141.579 232.422 144.858 230.292C149.956 226.975 157.711 228.381 161.824 232.776C169.287 240.737 167.334 254.01 158.782 259.862C147.077 267.874 129.734 262.261 124.019 250.102C121.631 245.024 120.971 239.451 122.04 233.385C123.942 222.548 131.097 215.848 143.504 213.283C143.533 213.277 143.544 213.26 143.539 213.231L143.513 213.017C143.49 212.874 143.407 212.806 143.264 212.811C129.246 213.548 118.818 221.689 113.085 234.122C113.04 234.225 112.965 234.256 112.863 234.216H112.854C112.751 234.176 112.714 234.105 112.743 234.002C114.525 227.712 119.718 218.544 125.621 215.622C138.035 209.481 150.456 208.413 162.887 212.417C177.171 217.01 187.719 228.569 190.709 243.282C191.149 245.447 191.423 245.427 191.532 243.222C191.88 236.287 190.355 230.146 186.956 224.799C176.691 208.647 156.82 203.009 138.894 208.073C136.129 208.856 132.619 210.324 128.363 212.477C128.329 212.494 128.303 212.486 128.286 212.452L128.183 212.263C128.115 212.137 128.141 212.037 128.261 211.963C147.463 200.284 172.938 202.726 186.939 220.943C195.319 231.825 198.07 249.614 186.014 259.279C185.214 259.919 184.417 260.59 183.623 261.293C183.417 261.47 183.446 261.53 183.709 261.473C188.673 260.416 192.737 258.12 195.902 254.584C206.321 242.93 199.244 226.153 190.075 216.496C183.694 209.772 175.814 205.317 166.434 203.129C166.406 203.123 166.394 203.106 166.4 203.077L166.451 202.82ZM214.178 244.387C214.104 244.41 214.078 244.461 214.101 244.541C215.866 250.488 216.866 256.563 217.1 262.767C217.1 262.83 217.146 262.861 217.237 262.861H217.246C217.337 262.867 217.389 262.821 217.4 262.724C217.931 256.338 216.943 250.205 214.435 244.327C214.424 244.31 214.407 244.304 214.384 244.31L214.178 244.387Z" fill="black"/>
<path fill-rule="evenodd" clip-rule="evenodd" d="M274.819 236.71C275.208 237.486 275.87 238.9 276.807 240.951C281.486 251.199 282.043 264.361 276.405 274.497C276.359 274.577 276.347 274.575 276.37 274.489C278.844 264.606 278.538 255.052 275.453 245.827C270.089 229.778 257.425 218.244 244.512 207.893C244.468 207.858 244.439 207.809 244.429 207.755C244.42 207.701 244.431 207.647 244.46 207.602L244.469 207.593C244.543 207.479 244.638 207.456 244.752 207.525C247.613 209.139 250.445 210.642 253.258 212.135L253.259 212.135C260.657 216.062 267.929 219.921 275.273 225.57C277.398 227.204 281.212 230.486 286.713 235.416C290.704 238.997 295.008 242.447 299.356 245.932L299.356 245.932L299.357 245.932C304.185 249.802 309.068 253.716 313.635 257.9C329.453 272.407 329.676 295.825 311.322 308.644C311.082 308.809 310.931 309.035 310.868 309.321C306.832 326.844 294.484 341.676 277.039 347.083C275.548 347.545 275.468 347.368 276.799 346.552C302.179 330.922 313.156 298.798 302.35 270.633C302.311 270.53 302.239 270.496 302.136 270.53H302.128C302.025 270.564 301.985 270.636 302.008 270.744C302.762 274.035 303.036 277.371 302.83 280.753C302.239 290.315 295.238 298.061 285.436 297.23C283.105 297.03 281.012 296.211 279.155 294.771C279.11 294.733 279.081 294.68 279.071 294.622C279.062 294.564 279.073 294.504 279.104 294.454L279.224 294.265C279.246 294.237 279.272 294.234 279.301 294.257C283.371 297.196 289.395 293.871 291.982 290.512C296.832 284.183 298.252 277.065 296.241 269.159C293.733 259.288 289.28 250.397 282.882 242.485C282.837 242.428 282.782 242.419 282.72 242.459L282.711 242.468C282.648 242.508 282.637 242.562 282.677 242.631C289.815 254.67 295.418 270.367 285.899 282.526C285.847 282.589 285.79 282.598 285.727 282.552C285.664 282.506 285.653 282.449 285.693 282.381C294.219 269.193 283.842 247.069 275.085 236.538C275.058 236.513 275.024 236.498 274.988 236.495C274.952 236.491 274.916 236.5 274.885 236.52C274.854 236.54 274.831 236.569 274.819 236.603C274.808 236.638 274.807 236.675 274.819 236.71ZM310.645 283.444C310.66 283.545 310.635 283.649 310.574 283.733C310.513 283.818 310.422 283.877 310.32 283.898L310.105 283.94C310.077 283.952 310.057 283.941 310.045 283.906C307.738 274.892 304.353 266.298 299.892 258.123C299.6 257.592 299.68 257.532 300.131 257.943C300.896 258.644 301.537 259.746 302.048 260.625L302.048 260.625C302.224 260.929 302.385 261.206 302.531 261.431C306.849 268.154 309.554 275.492 310.645 283.444ZM305.718 260.239C310.731 268.799 312.796 275.74 314.501 284.06C314.518 284.146 314.572 284.189 314.664 284.189C314.738 284.194 314.778 284.157 314.784 284.077C315.229 275.543 311.245 266.571 305.941 260.085C305.889 260.022 305.83 260.013 305.761 260.059V260.068C305.692 260.113 305.678 260.171 305.718 260.239Z" fill="black"/>
<path fill-rule="evenodd" clip-rule="evenodd" d="M275.405 343.868C281.933 339.79 286.501 333.332 288.104 325.916C288.898 322.243 288.941 318.446 288.229 314.741C287.517 311.035 286.065 307.494 283.956 304.32C281.847 301.146 279.122 298.401 275.936 296.241C272.751 294.081 269.167 292.549 265.39 291.733C257.763 290.083 249.81 291.448 243.283 295.526C236.755 299.605 232.187 306.062 230.584 313.479C229.79 317.152 229.747 320.949 230.459 324.654C231.171 328.359 232.623 331.9 234.732 335.074C236.841 338.249 239.567 340.994 242.752 343.154C245.938 345.314 249.521 346.845 253.298 347.662C260.926 349.311 268.878 347.947 275.405 343.868ZM252.935 317.598C253.546 315.627 254.9 314.251 256.996 313.468C257.134 313.422 257.231 313.465 257.288 313.597L257.373 313.794C257.385 313.811 257.382 313.825 257.365 313.836C255.228 314.882 253.94 316.427 253.5 318.472C251.684 326.912 266.508 327.898 267.305 316.921C267.939 308.293 257.922 303.923 250.921 305.816C240.116 308.73 236.911 319.672 240.485 329.226C242.652 335.027 246.791 338.848 252.815 341.119C252.929 341.159 253.009 341.125 253.055 341.016C253.106 340.908 253.081 340.825 252.978 340.768C247.042 337.466 243.406 332.762 242.07 326.655C239.868 316.578 246.423 306.065 257.536 308.49C260.947 309.227 263.389 311.36 264.228 314.676C264.371 315.23 264.257 315.29 263.886 314.856C259.953 310.255 253.895 311.292 251.624 316.733C248.865 323.331 253.877 330.245 260.587 331.411C268.273 332.756 274.982 327.863 276.37 320.263C278.632 307.813 269.164 297.582 256.722 297.856C254.563 297.902 252.007 298.364 249.053 299.244C249.008 299.261 248.99 299.293 249.002 299.338L249.053 299.552C249.088 299.695 249.176 299.752 249.319 299.724C258.23 298.241 266.645 300.067 271.829 307.581C274.682 311.711 275.368 316.356 273.817 321.043C269.43 334.299 249.13 329.86 252.935 317.598Z" fill="black"/>
</svg>
