<svg width="512" height="512" viewBox="0 0 512 512" fill="none" xmlns="http://www.w3.org/2000/svg">
<rect width="512" height="512" fill="white"/>
<path d="M306.28 201.896L306.277 201.902C305.598 203.254 305.207 205.195 305.017 207.503C304.828 209.8 304.842 212.412 304.941 215.075C305.02 217.201 305.153 219.349 305.279 221.39C305.311 221.905 305.342 222.414 305.373 222.914C305.521 225.382 305.636 227.638 305.593 229.392C305.593 229.393 305.593 229.394 305.593 229.394L305.093 229.382L306.28 201.896ZM306.28 201.896C306.545 201.352 306.923 200.871 307.388 200.484C307.854 200.097 308.396 199.814 308.98 199.653C309.563 199.493 310.174 199.458 310.772 199.551C311.37 199.645 311.941 199.864 312.447 200.196L312.448 200.196C339.115 217.558 366.038 233.493 393.217 248M306.28 201.896L393.217 248M303.641 231.385C254.33 233.9 206.246 232.217 159.389 226.334C145.038 224.533 130.567 220.95 115.978 215.588L115.975 215.587C115.456 215.393 114.885 215.395 114.372 215.591C113.859 215.788 113.44 216.165 113.192 216.65L113.188 216.659L113.188 216.659L112.764 217.45C112.572 217.821 112.462 218.229 112.442 218.646C112.421 219.064 112.492 219.481 112.648 219.87C112.804 220.258 113.043 220.608 113.347 220.896C113.651 221.183 114.014 221.401 114.41 221.536L114.412 221.536C125.246 225.255 134.194 229.892 141.244 235.455L141.244 235.455C143.804 237.482 146.182 240.236 148.623 243.064C148.753 243.215 148.884 243.366 149.015 243.517C151.609 246.519 154.302 249.582 157.435 252.043L157.436 252.044C157.983 252.477 158.436 253.015 158.771 253.626C159.106 254.237 159.315 254.909 159.385 255.602C159.455 256.296 159.385 256.996 159.18 257.662C158.975 258.328 158.638 258.946 158.189 259.479L158.187 259.481C147.853 271.638 135.466 281.605 120.999 288.952C116.941 291.029 112.92 293.18 108.938 295.408C107.552 296.193 106.829 296.951 106.592 297.644C106.373 298.284 106.529 299.002 107.278 299.856C107.474 300.07 107.722 300.226 107.994 300.309C108.266 300.392 108.552 300.399 108.821 300.33C108.821 300.33 108.822 300.33 108.822 300.329L108.947 300.814C132.484 294.518 154.999 289.613 179.726 287.854L303.641 231.385ZM303.641 231.385C303.64 231.385 303.639 231.385 303.638 231.385L303.619 230.886L303.644 231.384C303.643 231.384 303.642 231.384 303.641 231.385ZM393.217 248C393.217 248 393.217 247.999 393.217 247.999L393.454 247.559L393.218 248C393.218 248 393.218 248 393.217 248ZM398.53 250.962C399.295 251.522 400.103 251.962 400.894 252.392C402.505 253.27 404.044 254.108 404.995 255.839C407.774 260.915 404.371 264.063 399.891 266.388L398.53 250.962Z" fill="white" stroke="black"/>
<path d="M320.113 228.489L320.113 228.492C320.096 228.953 320.207 229.189 320.336 229.313C320.469 229.441 320.724 229.551 321.212 229.535L321.213 229.535C321.64 229.521 321.936 229.473 322.124 229.408C322.235 229.369 322.282 229.335 322.299 229.319C322.297 229.297 322.285 229.241 322.231 229.14C322.137 228.967 321.953 228.734 321.648 228.438C321.647 228.437 321.647 228.437 321.647 228.437L317.029 224.017C317.028 224.017 317.028 224.016 317.028 224.016C316.848 223.846 316.702 223.643 316.626 223.407L316.71 231.759L316.71 231.764H316.71C316.71 232.252 316.833 232.478 316.955 232.584C317.079 232.691 317.325 232.781 317.815 232.715C317.815 232.715 317.816 232.715 317.816 232.715L317.883 233.21C318.148 233.173 318.422 233.173 318.705 233.21L320.113 228.489ZM320.113 228.489C320.119 228.287 320.077 228.087 319.992 227.904C319.906 227.721 319.78 227.56 319.623 227.434C319.466 227.308 319.283 227.219 319.088 227.172C318.892 227.126 318.689 227.122 318.492 227.163L318.492 227.163L318.488 227.163C318.073 227.251 317.719 227.457 317.453 227.783C317.193 228.101 317.04 228.505 316.965 228.96L316.964 228.962C316.928 229.183 316.945 229.41 317.012 229.624C317.079 229.838 317.196 230.033 317.353 230.194C317.509 230.355 317.701 230.476 317.913 230.55C318.125 230.623 318.352 230.645 318.574 230.615L318.507 230.12L318.573 230.615C319.318 230.516 319.499 230.7 319.551 230.801C319.593 230.883 319.628 231.039 319.595 231.314C319.562 231.586 319.466 231.936 319.291 232.372L319.29 232.373C319.226 232.534 319.151 232.611 319.086 232.651C319.023 232.691 318.923 232.723 318.755 232.713L320.113 228.489ZM317.77 216.962L317.391 217.288C323.004 223.805 329.225 229.659 336.053 234.85L335.766 235.302C335.765 235.301 335.764 235.3 335.764 235.3L335.761 235.297L319.316 221.262C319.032 221.015 318.677 220.834 318.275 220.89C317.877 220.946 317.579 221.213 317.361 221.523L317.361 221.523L317.359 221.526L316.85 222.261C316.749 222.403 316.668 222.559 316.619 222.724L316.568 217.609L316.568 217.609C316.564 217.188 316.596 216.899 316.646 216.718C316.655 216.684 316.664 216.658 316.672 216.637C316.692 216.647 316.716 216.66 316.744 216.679C316.901 216.78 317.117 216.974 317.393 217.29L317.77 216.962ZM317.77 216.962C316.616 215.638 316.049 215.856 316.068 217.614L335.812 235.344L336.173 235.592M317.77 216.962C323.403 223.503 329.651 229.373 336.514 234.572C336.543 234.594 336.568 234.622 336.587 234.654C336.606 234.686 336.619 234.721 336.624 234.758C336.629 234.795 336.627 234.833 336.618 234.869C336.609 234.905 336.593 234.939 336.57 234.969L336.173 235.592M336.173 235.592L335.782 235.343L317.77 221.811C318.129 221.3 318.535 221.244 318.989 221.641L335.436 235.677C335.72 235.923 335.965 235.895 336.173 235.592ZM316.706 216.57C316.706 216.57 316.706 216.571 316.705 216.572C316.706 216.571 316.706 216.57 316.706 216.57ZM316.605 216.61C316.603 216.61 316.603 216.61 316.602 216.609L316.605 216.61ZM322.299 229.332C322.299 229.332 322.299 229.332 322.299 229.33L322.299 229.332ZM322.306 229.311C322.307 229.311 322.307 229.31 322.307 229.31L322.306 229.311Z" fill="black" stroke="black"/>
<path d="M161.791 242.631C161.822 242.715 161.852 242.795 161.88 242.873C161.829 242.807 161.778 242.739 161.724 242.667L161.724 242.667L161.722 242.664L158.002 237.76C157.919 237.617 157.797 237.499 157.651 237.423C156.634 236.823 155.709 236.124 154.874 235.327C154.818 235.265 154.783 235.186 154.773 235.102C154.764 235.014 154.782 234.926 154.827 234.85C154.871 234.774 154.939 234.715 155.02 234.68C155.099 234.647 155.186 234.64 155.269 234.659L158.093 235.478L158.093 235.478L158.102 235.48C158.851 235.683 159.339 236.133 159.606 236.869L159.606 236.869L159.608 236.876L161.791 242.629C161.791 242.63 161.791 242.63 161.791 242.631Z" fill="black" stroke="black"/>
<path d="M324.14 247.069C321.439 244.28 319.374 241.107 317.945 237.549C320.131 240.499 322.24 243.521 324.271 246.614L324.271 246.614L324.277 246.623C324.43 246.847 324.437 246.961 324.433 247.001C324.426 247.017 324.418 247.025 324.407 247.034C324.388 247.048 324.339 247.076 324.233 247.095L324.21 247.099L324.188 247.105C324.184 247.106 324.181 247.107 324.178 247.107C324.173 247.103 324.165 247.096 324.155 247.085L324.148 247.077L324.14 247.069Z" fill="black" stroke="black"/>
<path d="M321.565 234.825L321.877 234.331C321.916 234.272 321.945 234.244 321.96 234.231C321.978 234.237 322.012 234.253 322.065 234.292L334.594 243.816C334.687 243.888 334.72 243.936 334.73 243.955C334.722 243.974 334.698 244.017 334.629 244.086L334.623 244.093L334.616 244.1L333.886 244.886C333.865 244.906 333.849 244.918 333.838 244.926C333.824 244.918 333.802 244.902 333.77 244.874C329.981 241.067 325.913 237.717 321.565 234.825ZM321.973 234.222C321.973 234.222 321.973 234.223 321.971 234.223C321.973 234.223 321.973 234.222 321.973 234.222ZM321.947 234.228C321.945 234.228 321.944 234.228 321.944 234.227L321.947 234.228ZM334.734 243.965C334.734 243.965 334.734 243.965 334.734 243.964L334.734 243.965ZM334.733 243.947C334.733 243.945 334.733 243.944 334.733 243.944C334.733 243.944 334.733 243.945 334.733 243.947ZM333.856 244.934C333.856 244.934 333.856 244.934 333.855 244.933L333.856 244.934Z" fill="black" stroke="black"/>
<path d="M168.979 251.779L168.979 251.779C168.993 251.91 168.954 252.039 168.871 252.14C168.789 252.242 168.669 252.306 168.539 252.319C168.539 252.319 168.539 252.319 168.539 252.319L167.411 252.434L167.411 252.434C167.281 252.447 167.151 252.408 167.049 252.325C166.948 252.243 166.884 252.124 166.871 251.994L165.295 236.477L165.295 236.477C165.282 236.347 165.321 236.217 165.403 236.116C165.486 236.015 165.605 235.951 165.735 235.937C165.735 235.937 165.735 235.937 165.735 235.937L166.864 235.823L166.864 235.823C166.994 235.81 167.123 235.849 167.224 235.931C167.326 236.014 167.39 236.133 167.403 236.263C167.403 236.263 167.403 236.263 167.403 236.263L168.979 251.779Z" fill="black" stroke="black"/>
<path d="M177.148 252.77L177.148 252.77C177.162 252.844 177.161 252.921 177.145 252.995C177.13 253.069 177.1 253.14 177.057 253.203C177.014 253.266 176.96 253.319 176.896 253.361C176.833 253.402 176.762 253.431 176.687 253.445L176.687 253.445L176.13 253.55C175.98 253.579 175.824 253.546 175.697 253.46C175.571 253.373 175.484 253.24 175.455 253.09L175.455 253.09L172.665 238.322L172.665 238.322C172.65 238.248 172.651 238.171 172.667 238.096C172.682 238.022 172.712 237.952 172.755 237.889C172.798 237.826 172.853 237.773 172.916 237.731C172.979 237.69 173.051 237.661 173.125 237.647L173.125 237.647L173.682 237.542C173.682 237.542 173.682 237.542 173.682 237.542C173.833 237.513 173.989 237.546 174.115 237.632C174.242 237.719 174.329 237.852 174.357 238.002L174.357 238.002L177.148 252.77Z" fill="black" stroke="black"/>
<path d="M183.501 254.839L183.501 254.839L183.333 254.866L183.333 254.866C183.236 254.882 183.137 254.879 183.041 254.856C182.945 254.834 182.855 254.793 182.775 254.736C182.696 254.679 182.628 254.606 182.576 254.523C182.524 254.439 182.489 254.346 182.474 254.249L179.816 238.019C179.816 238.019 179.816 238.019 179.816 238.019C179.784 237.823 179.831 237.623 179.947 237.461C180.062 237.301 180.237 237.192 180.433 237.16L180.433 237.16L180.601 237.132C180.601 237.132 180.601 237.132 180.601 237.132C180.698 237.117 180.797 237.12 180.892 237.142C180.988 237.165 181.079 237.206 181.158 237.263C181.238 237.32 181.305 237.393 181.357 237.476C181.409 237.56 181.444 237.653 181.46 237.749L184.118 253.98C184.15 254.176 184.103 254.376 183.987 254.537C183.871 254.698 183.696 254.807 183.501 254.839Z" fill="black" stroke="black"/>
<path d="M189.354 238.543L189.354 238.543L189.354 238.545C189.926 243.271 190.393 247.814 190.652 251.182C190.782 252.868 190.855 254.184 190.869 255.082C190.877 255.52 190.87 255.845 190.852 256.062L190.547 256.098C190.477 255.889 190.391 255.569 190.293 255.135C190.093 254.257 189.849 252.961 189.574 251.295C189.023 247.965 188.394 243.453 187.823 238.737L187.771 238.295L189.303 238.11L189.354 238.543ZM190.822 256.28C190.822 256.28 190.822 256.279 190.823 256.277C190.822 256.279 190.822 256.28 190.822 256.28ZM190.626 256.299C190.627 256.3 190.627 256.3 190.627 256.3C190.627 256.3 190.627 256.3 190.626 256.299Z" fill="black" stroke="black"/>
<path d="M198.805 255.822L198.805 255.822L197.789 255.917C197.704 255.925 197.619 255.898 197.553 255.844C197.487 255.789 197.446 255.71 197.438 255.625L197.438 255.625L195.919 239.249C195.919 239.249 195.919 239.249 195.919 239.249C195.911 239.164 195.937 239.079 195.992 239.013C196.047 238.947 196.125 238.906 196.21 238.898L196.21 238.898L197.227 238.804C197.227 238.804 197.227 238.804 197.227 238.804C197.227 238.804 197.227 238.804 197.227 238.804C197.312 238.796 197.397 238.822 197.462 238.877C197.528 238.931 197.569 239.009 197.577 239.095L197.577 239.095L199.097 255.472C199.097 255.472 199.097 255.472 199.097 255.472C199.105 255.557 199.078 255.641 199.024 255.707C198.969 255.773 198.891 255.814 198.805 255.822Z" fill="black" stroke="black"/>
<path d="M205.685 239.307L205.685 239.307L205.686 239.317L205.713 239.677C205.801 241.851 205.855 244.005 205.874 246.013C205.893 248.024 205.875 249.847 205.823 251.378C205.77 252.912 205.684 254.11 205.571 254.91C205.517 255.294 205.461 255.559 205.408 255.722L205.407 255.722C205.406 255.72 205.406 255.718 205.405 255.715C205.334 255.539 205.252 255.254 205.165 254.851C204.992 254.05 204.812 252.861 204.637 251.324C204.288 248.254 203.994 244.091 203.82 239.741L203.819 239.732L203.819 239.723L203.793 239.388C203.793 239.387 203.794 239.386 203.795 239.385C203.797 239.383 203.799 239.382 203.802 239.382H203.813L203.825 239.381L205.677 239.297C205.679 239.298 205.68 239.299 205.682 239.3C205.684 239.302 205.685 239.304 205.685 239.307Z" fill="black" stroke="black"/>
<path d="M212.612 239.59L212.612 239.59C212.527 239.592 212.445 239.627 212.386 239.688C212.326 239.749 212.294 239.832 212.295 239.917L212.612 239.59ZM212.612 239.59L213.746 239.572C213.746 239.572 213.746 239.572 213.746 239.572C213.832 239.571 213.914 239.604 213.975 239.663C214.037 239.723 214.072 239.805 214.074 239.89C214.074 239.89 214.074 239.89 214.074 239.89L214.308 254.804M212.612 239.59L214.308 254.804M214.308 254.804L214.308 254.804C214.309 254.889 214.276 254.972 214.217 255.033C214.158 255.094 214.076 255.13 213.99 255.131L212.856 255.149C212.771 255.15 212.689 255.118 212.627 255.058C212.566 254.999 212.531 254.917 212.529 254.832C212.529 254.832 212.529 254.832 212.529 254.832L212.295 239.918L214.308 254.804Z" fill="black" stroke="black"/>
<path d="M315.439 245.918L315.91 245.749L315.439 245.918C316.115 247.806 316.637 249.649 316.892 251.04C317.021 251.74 317.072 252.272 317.061 252.627C317.06 252.639 317.06 252.65 317.059 252.66C317.052 252.652 317.045 252.644 317.037 252.636C316.803 252.368 316.505 251.924 316.16 251.303C315.475 250.065 314.707 248.31 314.031 246.422L313.602 246.575L314.031 246.422C313.355 244.533 312.834 242.69 312.578 241.299C312.45 240.6 312.399 240.068 312.41 239.712C312.41 239.7 312.411 239.689 312.411 239.679C312.418 239.687 312.426 239.695 312.433 239.703C312.668 239.971 312.966 240.415 313.31 241.037C313.996 242.274 314.763 244.029 315.439 245.918ZM317.008 252.98C317.008 252.98 317.009 252.979 317.01 252.977C317.009 252.979 317.009 252.98 317.008 252.98ZM317.298 252.874C317.3 252.874 317.301 252.875 317.301 252.875C317.301 252.875 317.3 252.875 317.298 252.874ZM312.462 239.359C312.462 239.359 312.462 239.36 312.46 239.363C312.461 239.36 312.462 239.359 312.462 239.359ZM312.173 239.466C312.17 239.465 312.169 239.464 312.169 239.464C312.169 239.464 312.17 239.464 312.173 239.466Z" fill="black" stroke="black"/>
<path d="M222.646 254.823L222.646 254.823L222.297 240.535C222.297 240.535 222.297 240.535 222.297 240.535C222.293 240.359 222.219 240.193 222.091 240.071C221.964 239.95 221.794 239.885 221.618 239.889L221.618 239.889M222.646 254.823L221.606 239.389L221.618 239.889M222.646 254.823C222.65 254.998 222.585 255.169 222.463 255.296C222.342 255.423 222.175 255.497 222 255.501L221.49 255.514C221.314 255.518 221.143 255.452 221.016 255.331C220.889 255.21 220.815 255.044 220.811 254.868C220.811 254.868 220.811 254.868 220.811 254.868L220.462 240.58L220.462 240.58C220.457 240.405 220.523 240.234 220.644 240.107C220.766 239.98 220.932 239.906 221.108 239.901L222.646 254.823ZM221.618 239.889L221.108 239.901L221.618 239.889Z" fill="black" stroke="black"/>
<path d="M230.792 254.732V254.732C230.792 254.83 230.773 254.928 230.736 255.018C230.698 255.109 230.643 255.192 230.574 255.261C230.505 255.331 230.423 255.386 230.332 255.424C230.241 255.461 230.144 255.481 230.046 255.481C230.046 255.481 230.046 255.481 230.046 255.481L229.649 255.482H229.649C229.451 255.482 229.26 255.403 229.12 255.264C228.979 255.124 228.9 254.934 228.9 254.735C228.9 254.735 228.9 254.735 228.9 254.735L228.875 240.897L228.875 240.897C228.875 240.799 228.894 240.702 228.932 240.611C228.969 240.52 229.024 240.437 229.093 240.368C229.163 240.298 229.245 240.243 229.336 240.205C229.426 240.168 229.524 240.148 229.622 240.148C229.622 240.148 229.622 240.148 229.622 240.148L230.019 240.147L230.019 240.147C230.217 240.147 230.408 240.226 230.548 240.366C230.689 240.505 230.768 240.695 230.768 240.894C230.768 240.894 230.768 240.894 230.768 240.894L230.792 254.732Z" fill="black" stroke="black"/>
<path d="M239.069 240.86L239.166 254.812L239.069 240.86ZM239.069 240.86C239.069 240.86 239.069 240.86 239.069 240.86M239.069 240.86L239.069 240.86M238.113 255.708H238.113L238.283 255.707C238.283 255.707 238.283 255.707 238.283 255.707C238.4 255.706 238.515 255.683 238.623 255.637C238.73 255.592 238.828 255.526 238.91 255.442C238.992 255.359 239.057 255.261 239.101 255.152C239.145 255.044 239.167 254.928 239.166 254.812L238.113 255.708ZM238.113 255.708C237.877 255.71 237.65 255.618 237.482 255.452M238.113 255.708L237.482 255.452M238.173 239.977L238.173 239.977L238.003 239.978C238.003 239.978 238.003 239.978 238.003 239.978C237.886 239.979 237.771 240.003 237.663 240.048C237.555 240.094 237.458 240.16 237.376 240.243C237.294 240.326 237.229 240.425 237.185 240.533C237.141 240.641 237.119 240.757 237.12 240.874L237.12 240.874M238.173 239.977L236.62 240.877L237.12 240.874M238.173 239.977C238.409 239.975 238.636 240.068 238.804 240.233M238.173 239.977L238.804 240.233M237.12 240.874L237.217 254.825M237.12 240.874L237.217 254.825M237.217 254.825C237.217 254.825 237.217 254.825 237.217 254.825M237.217 254.825L237.217 254.825M237.482 255.452C237.314 255.287 237.219 255.061 237.217 254.825M237.482 255.452L237.217 254.825M238.804 240.233C238.972 240.399 239.067 240.624 239.069 240.86M238.804 240.233L239.069 240.86M238.286 256.207L238.116 256.208L239.666 254.808C239.667 254.991 239.633 255.171 239.564 255.341C239.495 255.51 239.394 255.663 239.266 255.793C239.138 255.923 238.986 256.027 238.817 256.098C238.649 256.169 238.469 256.206 238.286 256.207Z" fill="black" stroke="black"/>
<path d="M247.643 240.062L247.644 240.062C247.645 240.062 247.646 240.062 247.648 240.063C247.648 240.063 247.649 240.064 247.651 240.065C247.652 240.066 247.653 240.068 247.653 240.069C247.654 240.07 247.654 240.072 247.654 240.073L247.653 240.087V240.101V240.495C247.632 242.503 247.58 244.489 247.5 246.34C247.42 248.192 247.314 249.869 247.189 251.275C247.063 252.685 246.92 253.781 246.772 254.51C246.704 254.847 246.639 255.081 246.583 255.226H246.406C246.348 255.064 246.285 254.804 246.22 254.435C246.091 253.691 245.973 252.589 245.878 251.164C245.688 248.317 245.605 244.465 245.647 240.446L245.647 240.446V240.441V240.069C245.648 240.067 245.649 240.066 245.65 240.065C245.652 240.063 245.654 240.062 245.657 240.062V240.062H245.658L247.643 240.062Z" fill="black" stroke="black"/>
<path d="M254.465 254.153L254.465 254.153L254.465 254.144L253.841 240.447C253.841 240.447 253.841 240.447 253.841 240.447C253.837 240.367 253.848 240.33 253.853 240.318C253.865 240.311 253.9 240.295 253.98 240.288L255.395 240.175L255.405 240.174L255.414 240.173C255.469 240.166 255.507 240.166 255.531 240.168C255.535 240.192 255.538 240.228 255.536 240.28L255.535 240.287L255.535 240.295L255.395 254.172L254.776 254.371L254.763 254.375L254.75 254.38C254.722 254.391 254.692 254.395 254.661 254.391C254.63 254.387 254.598 254.375 254.569 254.355C254.541 254.334 254.515 254.306 254.496 254.27C254.477 254.234 254.466 254.194 254.465 254.153ZM253.856 240.312C253.856 240.312 253.856 240.313 253.855 240.314C253.856 240.313 253.856 240.312 253.856 240.312ZM253.85 240.32C253.849 240.321 253.848 240.321 253.848 240.321C253.848 240.321 253.849 240.321 253.85 240.32Z" fill="black" stroke="black"/>
<path d="M261.778 240.49L261.778 240.49L261.777 240.487C261.761 240.364 261.772 240.307 261.779 240.287C261.798 240.277 261.858 240.257 261.996 240.261L262.896 240.317L262.909 240.318C262.909 240.32 262.909 240.323 262.91 240.325L263.413 253.596C263.37 253.602 263.318 253.607 263.256 253.61H263.239H263.227L263.215 253.61C263.158 253.613 263.128 253.607 263.115 253.603C263.108 253.589 263.093 253.552 263.085 253.474C262.782 249.155 262.346 244.827 261.778 240.49ZM261.783 240.277C261.783 240.277 261.782 240.278 261.781 240.279C261.782 240.278 261.783 240.277 261.783 240.277ZM263.106 253.6C263.107 253.6 263.108 253.6 263.11 253.601C263.107 253.6 263.106 253.6 263.106 253.6ZM263.119 253.609C263.119 253.61 263.119 253.61 263.119 253.61L263.119 253.609Z" fill="black" stroke="black"/>
<path d="M270.345 253.026L270.344 253.017L270.344 253.009L269.068 240.426C269.061 240.319 269.073 240.269 269.08 240.251C269.097 240.244 269.138 240.232 269.222 240.232H269.23L269.238 240.232L270.117 240.203L270.117 240.203L270.121 240.203C270.199 240.2 270.247 240.208 270.274 240.216C270.287 240.22 270.294 240.223 270.297 240.225L270.3 240.227L270.301 240.227L270.301 240.228L270.303 240.23C270.305 240.234 270.309 240.24 270.314 240.253C270.324 240.279 270.336 240.326 270.339 240.404L270.339 240.404L270.339 240.407C270.54 244.754 270.767 249.039 271.021 253.263L270.674 253.3C270.674 253.3 270.673 253.3 270.673 253.3C270.474 253.32 270.42 253.276 270.416 253.272C270.411 253.269 270.359 253.224 270.345 253.026ZM269.084 240.242C269.084 240.242 269.084 240.242 269.083 240.243L269.084 240.242ZM269.073 240.254C269.071 240.255 269.07 240.256 269.07 240.256C269.07 240.256 269.071 240.255 269.073 240.254Z" fill="black" stroke="black"/>
<path d="M279.052 253.438L278.572 253.5L278.559 253.502L278.545 253.504C278.409 253.53 278.357 253.512 278.345 253.507C278.337 253.498 278.3 253.449 278.283 253.291C278.283 253.291 278.283 253.291 278.283 253.291L276.923 240.368C276.915 240.264 276.928 240.217 276.935 240.2C276.951 240.192 276.998 240.176 277.105 240.176H277.956C278.032 240.176 278.078 240.186 278.102 240.194C278.114 240.198 278.12 240.202 278.123 240.204C278.126 240.205 278.127 240.206 278.127 240.207C278.127 240.207 278.129 240.209 278.132 240.214C278.135 240.219 278.139 240.228 278.144 240.243C278.154 240.275 278.165 240.328 278.165 240.412C278.146 244.825 278.442 249.167 279.052 253.438ZM276.938 240.193C276.938 240.193 276.938 240.194 276.937 240.195C276.938 240.194 276.938 240.193 276.938 240.193ZM276.93 240.203C276.929 240.204 276.928 240.204 276.928 240.204C276.928 240.204 276.929 240.204 276.93 240.203ZM278.342 253.505C278.342 253.505 278.343 253.506 278.344 253.507C278.343 253.506 278.342 253.505 278.342 253.505Z" fill="black" stroke="black"/>
<path d="M284.895 240.08L284.895 240.08L284.902 240.078C285.207 240.008 285.309 240.065 285.332 240.082C285.355 240.099 285.437 240.182 285.453 240.495L285.453 240.496L286.077 252.491L286.077 252.491L286.078 252.502C286.082 252.562 286.075 252.624 286.055 252.682C286.036 252.741 286.005 252.795 285.965 252.841C285.925 252.887 285.877 252.925 285.822 252.953C285.767 252.98 285.708 252.997 285.646 253.001C285.585 253.006 285.524 252.998 285.466 252.979C285.407 252.96 285.354 252.929 285.307 252.889C285.261 252.849 285.223 252.8 285.195 252.746C285.167 252.69 285.151 252.631 285.147 252.57L285.146 252.561L285.145 252.551L283.812 240.67C283.812 240.67 283.812 240.67 283.812 240.67C283.793 240.498 283.828 240.423 283.851 240.39C283.876 240.355 283.939 240.294 284.112 240.247L284.895 240.08Z" fill="black" stroke="black"/>
<path d="M293.053 253.047L293.053 253.047L293.053 253.056C293.054 253.086 293.054 253.108 293.052 253.124C293.036 253.126 293.014 253.128 292.986 253.128H292.978L292.971 253.128L292.248 253.149L291.386 240.239L291.386 240.239L291.386 240.234C291.377 240.125 291.391 240.076 291.397 240.059C291.413 240.051 291.459 240.035 291.563 240.035L292.689 240.06L293.053 253.047ZM291.401 240.052C291.401 240.052 291.401 240.053 291.4 240.054C291.4 240.053 291.401 240.052 291.401 240.052ZM291.392 240.062C291.391 240.063 291.391 240.063 291.391 240.063C291.39 240.063 291.391 240.063 291.392 240.062Z" fill="black" stroke="black"/>
<path d="M300.118 253.468L299.099 240.325C299.098 240.3 299.098 240.282 299.1 240.269C299.113 240.265 299.134 240.261 299.162 240.258L299.162 240.258L299.167 240.258L300.298 240.129L301.59 252.908C301.611 253.161 301.555 253.258 301.525 253.293C301.495 253.328 301.407 253.397 301.152 253.412C301.152 253.412 301.152 253.412 301.152 253.412L300.118 253.468ZM300.282 239.999C300.282 239.998 300.282 239.999 300.282 240.001L300.282 239.999Z" fill="black" stroke="black"/>
<path d="M307.771 252.357L307.771 252.357L307.77 252.352L305.758 240.563C305.741 240.437 305.744 240.353 305.754 240.3C305.759 240.274 305.764 240.259 305.768 240.251C305.772 240.243 305.774 240.24 305.774 240.24C305.774 240.24 305.774 240.24 305.774 240.24C305.774 240.24 305.776 240.238 305.78 240.236C305.785 240.233 305.796 240.227 305.817 240.221C305.86 240.208 305.936 240.196 306.057 240.203L306.072 240.204H306.086H306.089H306.091H306.093H306.095H306.098H306.1H306.102H306.104H306.106H306.109H306.111H306.113H306.115H306.117H306.12H306.122H306.124H306.126H306.129H306.131H306.133H306.135H306.137H306.14H306.142H306.144H306.146H306.148H306.151H306.153H306.155H306.157H306.159H306.162H306.164H306.166H306.168H306.17H306.173H306.175H306.177H306.179H306.181H306.184H306.186H306.188H306.19H306.192H306.195H306.197H306.199H306.201H306.203H306.205H306.208H306.21H306.212H306.214H306.216H306.219H306.221H306.223H306.225H306.227H306.23H306.232H306.234H306.236H306.238H306.241H306.243H306.245H306.247H306.249H306.251H306.254H306.256H306.258H306.26H306.262H306.265H306.267H306.269H306.271H306.273H306.275H306.278H306.28H306.282H306.284H306.286H306.288H306.291H306.293H306.295H306.297H306.299H306.302H306.304H306.306H306.308H306.31H306.312H306.315H306.317H306.319H306.321H306.323H306.325H306.328H306.33H306.332H306.334H306.336H306.338H306.341H306.343H306.345H306.347H306.349H306.351H306.354H306.356H306.358H306.36H306.362H306.364H306.367H306.369H306.371H306.373H306.375H306.377H306.379H306.382H306.384H306.386H306.388H306.39H306.392H306.395H306.397H306.399H306.401H306.403H306.405H306.407H306.41H306.412H306.414H306.416H306.418H306.42H306.423H306.425H306.427H306.429H306.431H306.433H306.435H306.438H306.44H306.442H306.444H306.446H306.448H306.45H306.453H306.455H306.457H306.459H306.461H306.463H306.465H306.468H306.47H306.472H306.474H306.476H306.478H306.48H306.483H306.485H306.487H306.489H306.491H306.493H306.495H306.497H306.5H306.502H306.504H306.506H306.508H306.51H306.512H306.515H306.517H306.519H306.521H306.523H306.525H306.527H306.529H306.532H306.534H306.536H306.538H306.54H306.542H306.544H306.546H306.549H306.551H306.553H306.555H306.557H306.559H306.561H306.563H306.566H306.568H306.57H306.572H306.574H306.576H306.578H306.58H306.582H306.585H306.587H306.589H306.591H306.593H306.595H306.597H306.599H306.602H306.604H306.606H306.608H306.61H306.612H306.614H306.616H306.618H306.62H306.623H306.625H306.627H306.629H306.631H306.633H306.635H306.637H306.639H306.642H306.644H306.646H306.648H306.65H306.652H306.654H306.656H306.658H306.66H306.663H306.665H306.667H306.669H306.671H306.673H306.675H306.677H306.679H306.681H306.684H306.686H306.688H306.69H306.692H306.694H306.696H306.698H306.7H306.702H306.704H306.707H306.709H306.711H306.713H306.715H306.717H306.719H306.721H306.723H306.725H306.727H306.73H306.732H306.734H306.736H306.738H306.74H306.742H306.744H306.746H306.748H306.75H306.752H306.755H306.757H306.759H306.761H306.763H306.765H306.767H306.769H306.771H306.773H306.775H306.777H306.779H306.782H306.784H306.786H306.788H306.79H306.792H306.794H306.796H306.798H306.8H306.802H306.804H306.806H306.809H306.811H306.813H306.815H306.817H306.819H306.821H306.823H306.825H306.827H306.829H306.831H306.833H306.835H306.837H306.84H306.842H306.844H306.846H306.848H306.85H306.852H306.854H306.856H306.858H306.86H306.862H306.864H306.866H306.868H306.87H306.872H306.875H306.877H306.879H306.881H306.883H306.885H306.887H306.889H306.891H306.893H306.895H306.897H306.899H306.901H306.903H306.905H306.907H306.909H306.911H306.914H306.916H306.918H306.92H306.922H306.924H306.926H306.928H306.93H306.932H306.934H306.936H306.938H306.94H306.942H306.944H306.946H306.948H306.95H306.952H306.954H306.956H306.958H306.96H306.963H306.965H306.967H306.969H306.971H306.973H306.975H306.977H306.979H306.981H306.983H306.985H306.987H306.989H306.991H306.993H306.995H306.997H306.999H307.001H307.003H307.005H307.007H307.009H307.011H307.013H307.015H307.017H307.019H307.021H307.023H307.025H307.027H307.03H307.032H307.034H307.036H307.038H307.04H307.042H307.044H307.046H307.048H307.05H307.052H307.054H307.056H307.058H307.06H307.062H307.064H307.066H307.068H307.07H307.072H307.074H307.076H307.078H307.08H307.082H307.084H307.086H307.088H307.09H307.092H307.094H307.096H307.098H307.1H307.102H307.104H307.106H307.108H307.11H307.112H307.114H307.116H307.118H307.12H307.122H307.124H307.126H307.128L309.077 252.4L308.306 252.672C308.031 252.764 307.934 252.719 307.916 252.709C307.9 252.699 307.817 252.639 307.771 252.357Z" fill="black" stroke="black"/>
<path d="M362.836 258.259L362.836 258.26L323.554 283.575L323.554 283.575C323.528 283.592 323.499 283.603 323.468 283.609C323.437 283.614 323.406 283.614 323.375 283.607C323.345 283.601 323.317 283.588 323.291 283.57C323.265 283.553 323.243 283.53 323.226 283.504L323.226 283.503L323.165 283.409C323.148 283.383 323.136 283.353 323.131 283.323C323.125 283.292 323.126 283.26 323.132 283.23C323.139 283.2 323.151 283.171 323.169 283.145C323.187 283.119 323.21 283.097 323.236 283.081L323.236 283.081L362.517 257.765L362.247 257.345L362.517 257.765C362.544 257.748 362.573 257.737 362.604 257.731C362.634 257.726 362.666 257.726 362.696 257.733C362.727 257.74 362.756 257.752 362.781 257.77C362.806 257.787 362.828 257.809 362.845 257.836L362.846 257.837L362.907 257.931C362.924 257.958 362.935 257.987 362.941 258.018C362.946 258.048 362.946 258.08 362.939 258.11C362.933 258.141 362.92 258.169 362.902 258.195C362.884 258.221 362.862 258.243 362.836 258.259Z" fill="black" stroke="black"/>
<path d="M348.86 259.617C348.86 259.617 348.86 259.617 348.86 259.617L348.731 259.43C348.691 259.372 348.63 259.332 348.561 259.319C348.492 259.307 348.42 259.322 348.362 259.362L315.785 281.751C315.785 281.751 315.785 281.751 315.785 281.751C315.727 281.791 315.687 281.853 315.674 281.922C315.661 281.991 315.676 282.063 315.716 282.121L348.86 259.617ZM348.86 259.617C348.9 259.675 348.915 259.747 348.902 259.816C348.889 259.885 348.849 259.946 348.791 259.986L316.214 282.376C316.156 282.416 316.084 282.431 316.015 282.418C315.946 282.406 315.885 282.366 315.845 282.308C315.845 282.308 315.845 282.308 315.845 282.308L315.716 282.121L348.86 259.617Z" fill="black" stroke="black"/>
<path d="M357.291 276.73L357.291 276.73L357.287 276.735C356.841 277.37 356.278 277.865 355.592 278.225L355.588 278.227L315.069 300.032C315.069 300.032 315.068 300.032 315.068 300.032C314.835 300.155 314.665 300.212 314.549 300.23C314.464 300.243 314.43 300.232 314.422 300.229C314.416 300.223 314.392 300.197 314.368 300.115C314.335 300.004 314.315 299.827 314.327 299.565C314.327 299.564 314.327 299.563 314.327 299.562L314.384 298.633L314.384 298.625L314.384 298.618C314.391 298.392 314.446 298.22 314.533 298.084C314.62 297.948 314.756 297.822 314.965 297.714L314.965 297.714L314.975 297.708L334.537 287.02C335.134 286.709 335.594 286.25 335.905 285.653C336.043 285.405 336.212 285.285 336.416 285.236C336.644 285.182 336.978 285.204 337.449 285.376L337.634 285.443L337.815 285.366C345.885 281.929 353.461 277.629 360.543 272.464L360.546 272.462C362.92 270.704 365.512 270.031 368.346 270.428L368.346 270.428L368.352 270.429C369.501 270.576 370.578 270.355 371.564 269.767L387.768 260.151L388.028 260.519L363.373 275.002C363.372 275.002 363.372 275.002 363.371 275.003C363.307 275.04 363.272 275.047 363.258 275.049C363.246 275.041 363.214 275.015 363.167 274.942C362.981 274.644 362.794 274.336 362.608 274.018L362.603 274.01L362.598 274.002C362.431 273.741 362.172 273.553 361.872 273.473C361.574 273.394 361.257 273.43 360.984 273.572C359.496 274.326 358.263 275.381 357.291 276.73ZM314.424 300.23C314.424 300.23 314.423 300.23 314.422 300.229C314.423 300.23 314.424 300.23 314.424 300.23ZM388.129 260.663C388.129 260.663 388.129 260.662 388.128 260.661C388.129 260.662 388.129 260.663 388.129 260.663ZM363.252 275.049C363.252 275.049 363.253 275.049 363.255 275.049C363.253 275.049 363.252 275.049 363.252 275.049ZM363.262 275.051C363.263 275.051 363.264 275.051 363.264 275.051L363.262 275.051Z" fill="black" stroke="black"/>
<path d="M316.214 289.862L316.215 289.861C317.016 289.093 317.936 288.786 319.013 288.918L319.013 288.918L319.019 288.919C319.666 288.99 320.307 288.911 320.697 288.446C321.085 287.984 321.06 287.337 320.889 286.705C320.796 286.355 320.811 286.086 320.889 285.874C320.968 285.663 321.128 285.458 321.419 285.267L321.425 285.262L321.432 285.258C321.46 285.238 321.492 285.228 321.525 285.228C321.557 285.229 321.592 285.24 321.623 285.263C321.655 285.286 321.683 285.321 321.698 285.365C321.714 285.407 321.717 285.452 321.707 285.495C321.532 286.161 321.555 286.838 322.06 287.286C322.523 287.697 323.237 287.759 324.008 287.671L324.015 287.67L324.022 287.669C324.619 287.584 325.183 287.381 325.711 287.064L325.714 287.062L363.942 263.745C354.448 270.526 344.646 276.85 334.535 282.714C333.745 283.161 332.814 283.785 331.811 284.459C331.146 284.905 330.449 285.373 329.74 285.824C327.925 286.98 325.967 288.076 324.009 288.651C322.636 289.054 321.436 289.817 320.371 290.495L320.347 290.51C319.244 291.212 318.313 291.797 317.386 291.987C316.393 292.188 315.651 292.269 315.14 292.249C314.884 292.239 314.713 292.204 314.606 292.163C314.534 292.135 314.508 292.112 314.501 292.104C314.499 292.094 314.495 292.064 314.51 291.998C314.534 291.894 314.599 291.739 314.733 291.528C315.002 291.106 315.486 290.552 316.214 289.862ZM314.503 292.107C314.503 292.108 314.502 292.107 314.502 292.105C314.502 292.107 314.503 292.107 314.503 292.107Z" fill="black" stroke="black"/>
<path d="M182.984 278.714L182.983 278.715C182.903 278.729 182.852 278.73 182.823 278.727C182.816 278.702 182.808 278.657 182.808 278.585L183.006 263.799C183.007 263.788 183.008 263.779 183.009 263.771C183.019 263.77 183.031 263.77 183.045 263.77H183.746L184.929 277.941C184.936 278.049 184.903 278.159 184.833 278.25C184.762 278.341 184.658 278.406 184.538 278.432L182.984 278.714Z" fill="black" stroke="black"/>
<path d="M176.449 265.812L176.449 265.812L176.449 265.813L176.96 278.63L176.96 278.63L176.96 278.64C176.974 278.88 176.919 278.973 176.885 279.01C176.849 279.049 176.752 279.117 176.495 279.132L176.495 279.132L176.488 279.133C176.38 279.14 176.25 279.109 176.081 278.966L176.073 278.959L176.065 278.953C176.018 278.916 175.949 278.832 175.908 278.626L175.906 278.614L175.903 278.603C174.673 273.665 174.787 269.398 176.196 265.776L176.196 265.775C176.275 265.571 176.348 265.395 176.415 265.246C176.429 265.407 176.441 265.595 176.449 265.812Z" fill="black" stroke="black"/>
<path d="M230.159 264.509L230.159 264.51L231.322 276.051L231.322 276.051L231.323 276.058C231.352 276.319 231.292 276.381 231.29 276.383L231.29 276.383C231.286 276.388 231.217 276.453 230.94 276.438C230.94 276.438 230.94 276.438 230.94 276.438L229.948 276.381L229.948 276.381L229.938 276.38C229.761 276.374 229.713 276.328 229.705 276.32C229.698 276.312 229.654 276.263 229.654 276.086H229.654L229.654 276.079L229.484 264.429L230.047 264.393C230.098 264.394 230.124 264.401 230.136 264.405C230.142 264.417 230.153 264.447 230.159 264.509ZM230.142 264.409C230.142 264.409 230.141 264.408 230.14 264.407C230.141 264.408 230.142 264.409 230.142 264.409ZM230.133 264.401C230.132 264.4 230.132 264.399 230.132 264.399C230.132 264.399 230.132 264.4 230.133 264.401Z" fill="black" stroke="black"/>
<path d="M168.833 279.082L168.833 279.083C168.832 279.125 168.823 279.167 168.806 279.205C168.789 279.244 168.764 279.279 168.734 279.308C168.704 279.337 168.668 279.36 168.628 279.376C168.588 279.391 168.546 279.399 168.504 279.398C168.504 279.398 168.504 279.398 168.504 279.398L167.313 279.37C167.228 279.368 167.147 279.333 167.088 279.271C167.029 279.209 166.997 279.126 166.998 279.041L167.311 265.263L167.311 265.263C167.312 265.221 167.321 265.179 167.339 265.14C167.356 265.101 167.38 265.066 167.411 265.037C167.441 265.008 167.477 264.985 167.517 264.97C167.556 264.954 167.598 264.947 167.641 264.948C167.641 264.948 167.641 264.948 167.641 264.948L168.831 264.975L168.831 264.975C168.917 264.977 168.998 265.013 169.057 265.075C169.116 265.137 169.148 265.219 169.146 265.305C169.146 265.305 169.146 265.305 169.146 265.305L168.833 279.082Z" fill="black" stroke="black"/>
<path d="M190.713 266.952L190.714 266.951C190.864 266.032 191.013 265.369 191.156 264.945C191.162 264.928 191.168 264.911 191.174 264.895C191.179 264.91 191.185 264.926 191.192 264.943C191.346 265.363 191.512 266.021 191.685 266.935C192.138 269.367 192.44 271.302 192.594 272.744C192.671 273.465 192.71 274.055 192.714 274.518C192.717 274.991 192.683 275.294 192.633 275.463C192.3 276.578 191.998 277.379 191.731 277.889C191.601 278.135 191.493 278.287 191.411 278.372C191.344 278.276 191.261 278.109 191.172 277.847C190.987 277.303 190.814 276.465 190.659 275.312C190.268 272.329 190.288 269.544 190.713 266.952ZM191.354 264.517C191.354 264.517 191.353 264.519 191.348 264.523C191.352 264.518 191.354 264.516 191.354 264.517ZM190.989 264.528C190.985 264.524 190.983 264.522 190.983 264.521C190.983 264.521 190.985 264.523 190.989 264.528ZM191.34 278.433C191.34 278.433 191.341 278.432 191.343 278.431C191.341 278.432 191.34 278.433 191.34 278.433ZM191.47 278.441C191.472 278.442 191.473 278.443 191.473 278.443C191.473 278.443 191.472 278.443 191.47 278.441Z" fill="black" stroke="black"/>
<path d="M199.759 275.907L199.759 275.907C199.713 276.529 199.643 276.969 199.561 277.246C199.559 277.251 199.558 277.255 199.557 277.259C199.555 277.257 199.554 277.255 199.553 277.253C199.385 277.02 199.177 276.63 198.931 276.059C197.685 273.151 197.612 269.579 198.784 265.301L198.784 265.298C198.823 265.153 198.862 265.024 198.899 264.913C198.934 265.028 198.969 265.161 199.006 265.312C199.787 268.7 200.039 272.231 199.759 275.907Z" fill="black" stroke="black"/>
<path d="M213.63 276.018L213.63 276.018L213.63 276.011L212.637 265.462L212.637 265.462L212.637 265.459C212.636 265.447 212.635 265.435 212.634 265.424C212.644 265.427 212.654 265.431 212.664 265.435C213.494 265.768 214.001 266.284 214.249 266.981L214.249 266.981L214.25 266.983C214.483 267.63 214.677 268.686 214.818 270.185C214.958 271.674 215.042 273.565 215.071 275.862C215.07 275.94 215.061 275.991 215.051 276.021C215.042 276.049 215.034 276.058 215.033 276.059L215.033 276.059C215.033 276.06 215.027 276.066 215.007 276.074C214.983 276.083 214.941 276.094 214.869 276.097L214.859 276.098L214.848 276.099L213.828 276.184L213.826 276.184C213.802 276.186 213.778 276.183 213.756 276.176C213.733 276.169 213.712 276.157 213.694 276.142C213.676 276.126 213.661 276.108 213.65 276.086C213.639 276.065 213.632 276.041 213.63 276.018Z" fill="black" stroke="black"/>
<path d="M236.963 275.116L236.962 275.124L236.962 275.132C236.955 275.309 236.91 275.357 236.902 275.365C236.894 275.373 236.846 275.415 236.675 275.416L235.986 275.393L236.797 265.18L236.797 265.18L236.798 265.178C236.806 265.067 236.826 265.017 236.836 264.998C236.855 264.994 236.903 264.99 236.996 265.007L237.661 265.145L236.963 275.116ZM235.975 275.55C235.975 275.55 235.975 275.55 235.975 275.548L235.975 275.55ZM236.842 264.989C236.842 264.989 236.841 264.989 236.841 264.99L236.842 264.989ZM236.827 265C236.825 265.001 236.824 265.002 236.824 265.002C236.824 265.002 236.825 265.001 236.827 265Z" fill="black" stroke="black"/>
<path d="M244.142 275.851L244.142 275.851L244.143 275.857C244.144 275.858 244.144 275.86 244.144 275.862C243.573 276.209 243.238 276.247 243.068 276.2C242.94 276.165 242.756 276.035 242.625 275.534L242.625 275.534L242.624 275.531C242.095 273.571 242.077 271.794 242.543 270.186C243.01 268.579 243.97 267.106 245.452 265.768C245.573 265.661 245.677 265.576 245.766 265.509C245.749 265.616 245.722 265.745 245.683 265.897L245.683 265.899C245.137 268.083 244.553 270.183 243.932 272.196L243.926 272.215L243.922 272.235C243.898 272.343 243.896 272.489 243.897 272.612C243.899 272.756 243.906 272.943 243.917 273.171C243.941 273.627 243.987 274.263 244.053 275.077C244.073 275.335 244.103 275.593 244.142 275.851Z" fill="black" stroke="black"/>
<path d="M310.267 265.838L310.267 265.838C310.269 265.837 310.269 265.836 310.269 265.836C310.269 265.836 310.269 265.837 310.268 265.838L310.368 266.02L310.623 265.878M310.267 265.838L310.379 266.041L310.509 266.275M310.267 265.838L310.368 266.02L310.186 266.121M310.267 265.838C310.255 265.847 310.208 265.885 310.185 265.967C310.161 266.05 310.181 266.107 310.186 266.121M310.623 265.878L310.38 266.04L310.509 266.275M310.623 265.878C310.717 266.048 310.68 266.181 310.509 266.275M310.623 265.878L310.226 265.283L296.331 276.455M310.509 266.275C305.991 268.771 302.012 271.899 298.571 275.661C297.966 276.323 297.219 276.588 296.331 276.455M310.186 266.121L310.186 266.121C310.187 266.123 310.187 266.124 310.187 266.124C310.187 266.124 310.187 266.123 310.186 266.121ZM296.331 276.455C294.781 276.21 293.278 276.389 291.822 276.994L296.331 276.455ZM309.546 265.496L309.549 265.494C309.629 265.437 309.672 265.427 309.686 265.426C309.699 265.432 309.743 265.459 309.81 265.56L309.81 265.56L310.069 265.948C305.585 268.451 301.629 271.577 298.202 275.324L298.202 275.324C297.71 275.862 297.13 276.068 296.407 275.961C294.766 275.701 293.17 275.892 291.631 276.532C291.11 276.747 290.937 276.67 290.904 276.646C290.865 276.618 290.735 276.462 290.762 275.884C290.929 272.668 291.759 269.729 293.251 267.059C293.381 266.827 293.497 266.636 293.599 266.483C293.597 266.664 293.586 266.882 293.564 267.141L293.564 267.141L293.564 267.146C293.398 269.395 292.863 271.512 291.962 273.498L291.962 273.498L291.961 273.502C291.832 273.792 291.789 274.113 291.836 274.426C291.884 274.739 292.02 275.033 292.229 275.272C292.438 275.51 292.71 275.685 293.015 275.773C293.32 275.862 293.643 275.862 293.948 275.773C296.705 274.966 299.467 273.167 302.089 271.206C303.18 270.39 304.238 269.553 305.267 268.739C306.751 267.566 308.174 266.441 309.546 265.496ZM309.691 265.426C309.691 265.426 309.69 265.426 309.688 265.425C309.69 265.425 309.691 265.425 309.691 265.426ZM309.683 265.424C309.683 265.424 309.682 265.424 309.682 265.424L309.683 265.424Z" fill="black" stroke="black"/>
<path d="M315.925 266.844L315.925 266.844L315.918 266.852C315.545 267.276 315.116 267.603 314.63 267.838L314.63 267.838L314.624 267.841C314.419 267.944 314.245 268.022 314.1 268.081C314.194 267.923 314.321 267.732 314.486 267.505L314.486 267.505L314.489 267.501C315.236 266.452 316.184 265.636 317.34 265.049C317.661 264.89 317.912 264.785 318.102 264.724C318.005 264.927 317.846 265.196 317.611 265.538L317.611 265.539C317.423 265.813 317.16 266.03 316.803 266.185L316.791 266.19L316.779 266.196C316.458 266.357 316.173 266.574 315.925 266.844ZM318.209 264.42C318.209 264.42 318.209 264.421 318.209 264.421L318.209 264.42Z" fill="black" stroke="black"/>
<path d="M320.817 270.932C322.797 268.78 325.034 267.241 327.528 266.3C325.579 268.201 323.344 269.745 320.817 270.932Z" fill="black" stroke="black"/>
<path d="M263.623 274.5C263.582 274.296 263.552 274.022 263.539 273.678C263.522 273.227 263.535 272.688 263.58 272.093C263.625 271.498 263.7 270.863 263.801 270.224C263.902 269.586 264.027 268.958 264.168 268.379C264.309 267.799 264.463 267.283 264.619 266.859C264.737 266.537 264.851 266.285 264.952 266.104C264.993 266.308 265.023 266.582 265.036 266.925C265.054 267.377 265.04 267.915 264.995 268.51C264.95 269.105 264.875 269.74 264.774 270.379C264.673 271.017 264.548 271.645 264.407 272.224C264.266 272.804 264.112 273.32 263.956 273.744C263.838 274.067 263.724 274.318 263.623 274.5Z" fill="black" stroke="black"/>
<path d="M270.74 275.793L270.739 275.793L270.738 275.805C270.737 275.819 270.732 275.832 270.724 275.845C270.717 275.858 270.705 275.871 270.69 275.882C270.674 275.893 270.655 275.902 270.633 275.906C270.61 275.911 270.587 275.911 270.563 275.907L270.562 275.907L269.662 275.738C269.44 275.688 269.373 275.615 269.352 275.582C269.331 275.549 269.292 275.456 269.342 275.229L269.342 275.228L271.354 265.931C271.357 265.921 271.359 265.912 271.361 265.902L271.808 265.974L271.808 265.974C271.961 265.999 271.992 266.043 271.995 266.046L271.995 266.046C271.999 266.051 272.034 266.102 272.015 266.27L270.74 275.793Z" fill="black" stroke="black"/>
<path d="M206.755 276.911L206.755 276.911L206.755 276.911ZM206.752 276.855C206.726 276.825 206.695 276.784 206.66 276.728C206.516 276.503 206.359 276.135 206.209 275.623C206.061 275.117 205.931 274.505 205.827 273.82C205.723 273.137 205.648 272.4 205.608 271.653C205.526 270.138 205.589 268.695 205.777 267.641C205.871 267.111 205.987 266.73 206.105 266.494C206.135 266.432 206.162 266.388 206.183 266.357C206.209 266.387 206.24 266.428 206.276 266.484C206.42 266.709 206.577 267.077 206.726 267.589C206.874 268.095 207.005 268.707 207.109 269.391C207.213 270.075 207.287 270.812 207.327 271.559C207.41 273.074 207.346 274.517 207.159 275.571C207.065 276.101 206.948 276.481 206.83 276.718C206.8 276.78 206.774 276.824 206.752 276.855Z" fill="black" stroke="black"/>
<path d="M224.741 272.811L224.741 272.811L224.741 272.815C224.764 273.452 224.982 274.021 225.393 274.503C225.671 274.859 225.731 275.165 225.662 275.457C225.63 275.582 225.573 275.647 225.442 275.691C225.06 275.789 224.669 275.83 224.269 275.813C224.175 275.809 224.082 275.786 223.996 275.744C223.91 275.703 223.832 275.644 223.768 275.57C223.703 275.496 223.653 275.409 223.622 275.313C223.59 275.218 223.577 275.117 223.584 275.017C223.776 272.498 223.557 270.025 222.926 267.6C222.919 267.519 222.939 267.438 222.982 267.37C223.029 267.294 223.101 267.237 223.186 267.21C223.27 267.182 223.362 267.185 223.445 267.218C223.52 267.248 223.583 267.301 223.626 267.37C224.314 269.121 224.686 270.934 224.741 272.811Z" fill="black" stroke="black"/>
<path d="M278.92 266.718L278.92 266.717C278.946 266.62 278.974 266.551 278.999 266.504C279.013 266.477 279.025 266.46 279.033 266.45C279.035 266.45 279.036 266.451 279.038 266.451L279.092 266.463H279.124C279.182 266.477 279.208 266.492 279.217 266.499C279.221 266.512 279.229 266.55 279.218 266.633C278.821 269.547 278.451 272.481 278.111 275.434L278.111 275.434L278.11 275.437C278.039 276.095 277.865 276.37 277.726 276.47C277.517 276.612 277.257 276.659 276.883 276.544L276.882 276.544C276.616 276.463 276.511 276.359 276.468 276.284C276.426 276.21 276.39 276.074 276.454 275.815L278.92 266.718ZM279.221 266.503C279.221 266.503 279.22 266.502 279.219 266.501C279.22 266.502 279.221 266.502 279.221 266.503ZM279.216 266.496C279.215 266.495 279.215 266.494 279.215 266.494C279.215 266.494 279.215 266.495 279.216 266.496Z" fill="black" stroke="black"/>
<path d="M283.173 275.912L283.173 275.912L283.176 275.899L285.7 266.116L285.7 266.116L285.701 266.112C285.712 266.068 285.723 266.037 285.733 266.016C285.755 266.021 285.786 266.031 285.827 266.048L286.429 266.349L284.984 276.269L283.509 276.323C283.455 276.322 283.402 276.309 283.354 276.286C283.304 276.261 283.261 276.227 283.229 276.186C283.197 276.145 283.176 276.099 283.167 276.052C283.158 276.005 283.16 275.957 283.173 275.912Z" fill="black" stroke="black"/>
<path d="M257.578 275.776L257.578 275.776C257.405 272.887 257.713 270.028 258.5 267.2H256.886C256.857 267.2 256.835 267.202 256.819 267.204L257.578 275.776ZM257.578 275.776L257.578 275.779C257.584 275.864 257.579 275.92 257.573 275.954C257.541 275.955 257.489 275.952 257.413 275.937L257.405 275.935L257.397 275.934L255.935 275.681C255.886 275.669 255.841 275.647 255.801 275.618C255.759 275.588 255.725 275.549 255.702 275.507C255.678 275.465 255.664 275.42 255.661 275.375C255.657 275.33 255.664 275.286 255.68 275.245L255.683 275.236L255.686 275.227C256.576 272.635 256.954 269.982 256.819 267.271L257.578 275.776Z" fill="black" stroke="black"/>
<path d="M249.957 271.959L249.957 271.958C249.92 270.847 250.02 269.715 250.258 268.561C250.291 268.408 250.324 268.273 250.356 268.157C250.396 268.268 250.437 268.396 250.48 268.541C251.14 270.816 251.215 272.888 250.731 274.771L250.729 274.779L250.727 274.788C250.7 274.91 250.636 275.021 250.543 275.106C250.45 275.19 250.333 275.244 250.209 275.259C250.084 275.274 249.958 275.251 249.848 275.191C249.738 275.132 249.649 275.04 249.593 274.928L249.587 274.916L249.581 274.905C249.521 274.799 249.476 274.509 249.677 273.888C249.884 273.266 249.977 272.621 249.957 271.959Z" fill="black" stroke="black"/>
<path d="M160.6 280.225L160.59 280.228L160.58 280.231C160.463 280.267 160.317 280.267 160.119 280.187L160.111 280.184L160.103 280.181C159.796 280.071 159.635 279.882 159.574 279.565L159.572 279.555L159.57 279.545C159.514 279.309 159.52 279.076 159.591 278.837C159.724 278.392 159.758 277.94 159.691 277.488C159.183 273.947 160.152 271.369 162.524 269.628C162.766 269.455 162.961 269.331 163.115 269.249C163.069 269.416 162.992 269.633 162.877 269.905C161.998 271.904 161.508 273.186 161.273 274.537C161.04 275.884 161.065 277.275 161.163 279.479C161.17 279.726 161.114 279.874 161.043 279.969C160.972 280.064 160.843 280.161 160.6 280.225Z" fill="black" stroke="black"/>
<path d="M304.118 277.435L304.118 277.436C303.715 277.593 303.405 277.691 303.179 277.739C303.299 277.542 303.492 277.28 303.772 276.95C306.059 274.276 308.673 272.079 311.613 270.358C311.21 270.868 310.802 271.267 310.369 271.69C310.287 271.77 310.204 271.851 310.119 271.934C309.575 272.472 309.012 273.063 308.472 273.917C307.415 275.546 305.969 276.717 304.118 277.435Z" fill="black" stroke="black"/>
<path d="M316.988 273.632C315.667 274.963 314.327 276.295 312.968 277.627C312.512 278.066 312.207 278.157 312.031 278.14L312.032 278.14L312.02 278.139C311.843 278.127 311.665 278.07 311.483 277.959C311.357 277.879 311.314 277.825 311.3 277.803C311.309 277.78 311.337 277.725 311.428 277.633C313.175 275.94 315.029 274.608 316.988 273.632ZM311.296 277.816C311.296 277.816 311.296 277.815 311.297 277.814L311.296 277.816Z" fill="black" stroke="black"/>
</svg>
