<svg width="512" height="512" viewBox="0 0 512 512" fill="none" xmlns="http://www.w3.org/2000/svg">
<rect width="512" height="512" fill="white"/>
<path d="M264.922 349.458C265.14 349.478 265.501 349.285 266.006 348.879C288.2 331.083 280.965 299.441 265.442 280.174C254.419 266.508 239.728 251.667 223.328 244.626C221.436 243.814 221.253 242.715 222.778 241.328L223.238 240.927C223.858 240.363 224.631 239.995 225.461 239.868C226.29 239.741 227.14 239.862 227.903 240.214C234.518 243.284 239.049 245.894 241.495 248.043C259.619 263.938 278.009 279.966 284.144 303.556C287.214 315.391 286.492 326.943 281.976 338.213C277.742 348.79 269.705 355.193 260.035 359.872C259.891 359.94 259.733 359.971 259.575 359.963C259.416 359.954 259.263 359.906 259.13 359.823C258.996 359.74 258.886 359.624 258.81 359.487C258.735 359.35 258.696 359.196 258.698 359.04L258.712 285.507C258.712 285.021 258.901 284.554 259.24 284.204C259.578 283.855 260.039 283.651 260.525 283.636L261.03 283.621C261.402 283.607 261.773 283.668 262.121 283.8C262.47 283.933 262.788 284.134 263.056 284.391C263.325 284.649 263.539 284.958 263.686 285.301C263.833 285.643 263.91 286.011 263.912 286.384L264.149 348.627C264.149 349.142 264.407 349.419 264.922 349.458Z" fill="black"/>
<path d="M274.771 245.725C277.786 243.868 287.62 237.614 290.844 240.481C291.166 240.768 291.409 241.131 291.551 241.538C291.693 241.945 291.728 242.381 291.654 242.805C291.579 243.23 291.398 243.628 291.126 243.962C290.854 244.297 290.501 244.556 290.101 244.715C283.129 247.498 276.801 251.4 271.116 256.421C268.839 258.441 266.605 260.407 264.417 262.318C263.939 262.733 263.324 262.954 262.69 262.941C262.057 262.927 261.449 262.679 260.985 262.244L260.02 261.338C258.9 260.268 258.905 259.204 260.034 258.144C264.521 253.896 269.467 249.008 274.771 245.725Z" fill="black"/>
<path d="M233.637 259.704C233.637 260.413 233.355 261.093 232.854 261.594C232.353 262.096 231.672 262.377 230.963 262.377C230.254 262.377 229.574 262.096 229.072 261.594C228.571 261.093 228.289 260.413 228.289 259.704C228.289 258.994 228.571 258.314 229.072 257.813C229.574 257.311 230.254 257.03 230.963 257.03C231.672 257.03 232.353 257.311 232.854 257.813C233.355 258.314 233.637 258.994 233.637 259.704Z" fill="black"/>
<path d="M284.781 261.547C284.438 262.117 283.835 262.5 283.106 262.611C282.376 262.722 281.579 262.552 280.89 262.138C280.549 261.933 280.245 261.674 279.995 261.377C279.745 261.079 279.553 260.749 279.432 260.404C279.311 260.059 279.262 259.707 279.289 259.367C279.315 259.028 279.416 258.708 279.586 258.425C279.929 257.854 280.531 257.472 281.261 257.361C281.991 257.25 282.788 257.42 283.476 257.834C283.818 258.039 284.122 258.298 284.372 258.595C284.622 258.893 284.813 259.223 284.934 259.568C285.056 259.913 285.104 260.265 285.078 260.604C285.052 260.944 284.951 261.264 284.781 261.547Z" fill="black"/>
<path d="M227.025 270.065C226.57 270.546 225.921 270.806 225.221 270.788C224.521 270.77 223.827 270.475 223.292 269.969C223.027 269.719 222.809 269.424 222.65 269.101C222.491 268.778 222.395 268.434 222.367 268.088C222.339 267.743 222.379 267.402 222.486 267.087C222.592 266.771 222.763 266.485 222.988 266.247C223.443 265.766 224.092 265.506 224.792 265.524C225.492 265.542 226.186 265.837 226.721 266.343C226.986 266.593 227.204 266.888 227.363 267.211C227.522 267.534 227.618 267.878 227.646 268.224C227.674 268.569 227.634 268.91 227.527 269.226C227.421 269.541 227.25 269.827 227.025 270.065Z" fill="black"/>
<path d="M291.364 268.245C291.364 268.974 291.074 269.673 290.559 270.189C290.044 270.704 289.345 270.994 288.616 270.994C287.887 270.994 287.188 270.704 286.673 270.189C286.157 269.673 285.868 268.974 285.868 268.245C285.868 267.517 286.157 266.818 286.673 266.302C287.188 265.787 287.887 265.497 288.616 265.497C288.977 265.497 289.334 265.568 289.667 265.706C290.001 265.845 290.304 266.047 290.559 266.302C290.814 266.557 291.017 266.86 291.155 267.194C291.293 267.527 291.364 267.885 291.364 268.245Z" fill="black"/>
<path d="M247.601 349.577C247.72 349.669 247.862 349.725 248.012 349.74C248.161 349.755 248.312 349.728 248.447 349.661C248.581 349.595 248.695 349.492 248.773 349.364C248.852 349.236 248.894 349.088 248.893 348.938L248.864 286.562C248.864 284.749 249.75 283.655 251.523 283.279L252.117 283.145C252.415 283.083 252.723 283.089 253.018 283.161C253.314 283.233 253.59 283.37 253.826 283.562C254.062 283.754 254.253 283.996 254.384 284.271C254.514 284.546 254.583 284.846 254.583 285.151L254.553 359.337C254.554 359.557 254.495 359.773 254.381 359.961C254.268 360.15 254.106 360.303 253.911 360.406C253.717 360.509 253.498 360.556 253.279 360.543C253.059 360.53 252.847 360.457 252.666 360.332C244.719 354.955 238.346 351.434 233.31 342.105C219.658 316.792 229.908 291.003 247.333 271.083C248.344 269.924 249.473 269.8 250.72 270.711L251.76 271.484C253.018 272.405 253.122 273.445 252.072 274.603C243.12 284.428 237.148 295.108 234.157 306.646C230.102 322.333 234.424 339.372 247.601 349.577Z" fill="black"/>
<path d="M235.122 274.96C235.122 275.34 235.048 275.717 234.902 276.068C234.756 276.42 234.543 276.739 234.274 277.008C234.005 277.277 233.686 277.491 233.334 277.636C232.983 277.782 232.606 277.857 232.226 277.857C231.845 277.857 231.469 277.782 231.117 277.636C230.766 277.491 230.446 277.277 230.177 277.008C229.908 276.739 229.695 276.42 229.55 276.068C229.404 275.717 229.329 275.34 229.329 274.96C229.329 274.192 229.634 273.455 230.177 272.912C230.721 272.368 231.457 272.063 232.226 272.063C232.994 272.063 233.731 272.368 234.274 272.912C234.817 273.455 235.122 274.192 235.122 274.96Z" fill="black"/>
<path d="M283.595 275.034C283.595 275.755 283.308 276.446 282.799 276.956C282.289 277.466 281.597 277.752 280.876 277.752C280.155 277.752 279.464 277.466 278.954 276.956C278.444 276.446 278.158 275.755 278.158 275.034C278.158 274.313 278.444 273.621 278.954 273.112C279.464 272.602 280.155 272.315 280.876 272.315C281.597 272.315 282.289 272.602 282.799 273.112C283.308 273.621 283.595 274.313 283.595 275.034Z" fill="black"/>
<path d="M242.52 313.35C242.646 313.581 242.718 313.839 242.733 314.109C242.747 314.378 242.703 314.654 242.603 314.92C242.503 315.187 242.35 315.439 242.151 315.662C241.952 315.885 241.713 316.075 241.445 316.22C241.178 316.366 240.889 316.465 240.594 316.511C240.298 316.557 240.004 316.55 239.725 316.489C239.447 316.429 239.192 316.316 238.973 316.158C238.754 316.001 238.577 315.8 238.451 315.569C238.325 315.338 238.252 315.08 238.238 314.811C238.224 314.541 238.268 314.266 238.368 313.999C238.468 313.732 238.621 313.48 238.82 313.257C239.018 313.034 239.258 312.845 239.525 312.699C239.793 312.553 240.082 312.455 240.377 312.408C240.672 312.362 240.967 312.37 241.245 312.43C241.523 312.491 241.779 312.603 241.998 312.761C242.217 312.919 242.394 313.119 242.52 313.35Z" fill="black"/>
<path d="M274.295 313.494C274.53 313.702 274.695 313.977 274.768 314.282C274.84 314.587 274.818 314.907 274.704 315.201C274.589 315.494 274.388 315.746 274.127 315.924C273.866 316.102 273.556 316.198 273.241 316.198H271.012C269.26 316.188 268.799 315.41 269.631 313.865C270.74 311.825 272.295 311.701 274.295 313.494Z" fill="black"/>
<path d="M243.016 321.952C243.256 322.303 243.275 322.785 243.068 323.291C242.861 323.797 242.445 324.287 241.912 324.652C241.648 324.833 241.363 324.977 241.074 325.078C240.784 325.178 240.496 325.233 240.225 325.238C239.954 325.242 239.706 325.198 239.495 325.106C239.284 325.015 239.114 324.878 238.995 324.705C238.755 324.353 238.736 323.872 238.943 323.365C239.15 322.859 239.566 322.37 240.099 322.005C240.363 321.824 240.648 321.679 240.937 321.579C241.227 321.478 241.515 321.424 241.786 321.419C242.057 321.414 242.305 321.459 242.516 321.55C242.727 321.641 242.897 321.778 243.016 321.952Z" fill="black"/>
<path d="M274.126 323.527C274.065 323.988 273.753 324.397 273.257 324.663C272.761 324.929 272.122 325.031 271.482 324.947C271.165 324.905 270.856 324.819 270.575 324.693C270.293 324.567 270.044 324.404 269.841 324.213C269.638 324.022 269.485 323.807 269.392 323.58C269.298 323.354 269.265 323.119 269.295 322.891C269.356 322.43 269.669 322.022 270.164 321.756C270.66 321.489 271.299 321.387 271.939 321.471C272.257 321.513 272.565 321.599 272.846 321.725C273.128 321.851 273.377 322.014 273.58 322.205C273.783 322.396 273.936 322.611 274.03 322.838C274.123 323.065 274.156 323.299 274.126 323.527Z" fill="black"/>
<path d="M244.442 330.248C244.584 330.444 244.678 330.671 244.719 330.918C244.76 331.164 244.747 331.425 244.68 331.685C244.613 331.945 244.494 332.199 244.33 332.433C244.165 332.667 243.959 332.876 243.722 333.048C243.485 333.22 243.223 333.352 242.95 333.436C242.677 333.52 242.398 333.554 242.13 333.538C241.862 333.521 241.61 333.453 241.388 333.338C241.166 333.223 240.979 333.063 240.837 332.867C240.694 332.672 240.6 332.444 240.559 332.197C240.519 331.951 240.532 331.69 240.599 331.43C240.666 331.17 240.785 330.916 240.949 330.682C241.113 330.448 241.32 330.239 241.557 330.067C241.793 329.895 242.056 329.764 242.329 329.68C242.602 329.596 242.88 329.561 243.148 329.578C243.416 329.595 243.668 329.662 243.89 329.777C244.112 329.892 244.3 330.052 244.442 330.248Z" fill="black"/>
<path d="M272.795 331.632C272.795 332.18 272.577 332.705 272.19 333.092C271.803 333.479 271.278 333.697 270.73 333.697C270.183 333.697 269.657 333.479 269.27 333.092C268.883 332.705 268.665 332.18 268.665 331.632C268.665 331.361 268.719 331.092 268.823 330.842C268.926 330.591 269.078 330.364 269.27 330.172C269.462 329.98 269.69 329.828 269.94 329.724C270.191 329.621 270.459 329.567 270.73 329.567C271.001 329.567 271.27 329.621 271.52 329.724C271.771 329.828 271.999 329.98 272.19 330.172C272.382 330.364 272.534 330.591 272.638 330.842C272.742 331.092 272.795 331.361 272.795 331.632Z" fill="black"/>
<path d="M257.167 369.23C262.05 364.605 267.383 360.619 273.166 357.272C278.465 354.202 279.866 355.459 277.37 361.045L257.628 405.283C257.532 405.496 257.377 405.676 257.182 405.803C256.987 405.93 256.759 405.998 256.526 406C256.293 406.002 256.064 405.936 255.867 405.812C255.67 405.687 255.513 405.509 255.415 405.298L234.023 358.713C233.859 358.348 233.83 357.938 233.941 357.556C234.053 357.174 234.298 356.846 234.632 356.633C235.89 355.831 237.321 355.9 238.925 356.841C245.046 360.436 250.755 364.57 256.053 369.245C256.206 369.384 256.406 369.46 256.613 369.457C256.82 369.454 257.018 369.373 257.167 369.23Z" fill="black"/>
<path fill-rule="evenodd" clip-rule="evenodd" d="M227.369 204.933C224.709 212.435 226.15 217.649 231.929 223.309C234.474 225.785 237.995 229.246 242.491 233.693C243.787 234.98 244.533 236.721 244.571 238.55L244.6 240.526C244.64 242.725 243.877 243.051 242.313 241.506C236.876 236.149 231.513 231.291 226.225 226.934C221.813 223.309 220.045 216.579 220.045 210.415C220.094 176.585 220.08 143.71 220 111.792C219.981 104.839 222.05 104.146 226.21 109.712C228.263 112.455 230.753 114.881 233.182 117.248C240.264 124.146 246.831 130.543 240.56 142.854C240.482 143.001 240.45 143.169 240.469 143.335C240.477 143.41 240.496 143.483 240.523 143.552C240.558 143.636 240.605 143.715 240.665 143.785C240.774 143.911 240.919 144.002 241.08 144.045C241.242 144.089 241.412 144.082 241.57 144.027L242.298 143.79C243.397 143.423 244.219 142.725 244.764 141.695C248.908 133.822 247.438 126.231 241.778 119.516C241.339 118.993 241.12 118.32 241.168 117.641C241.215 116.962 241.524 116.329 242.03 115.877L242.461 115.491C243.719 114.362 244.972 114.367 246.22 115.506C246.687 115.929 247.188 116.363 247.704 116.809C250.732 119.428 254.26 122.479 254.286 126.528C254.454 166.211 254.534 206.141 254.523 246.32C254.523 248.34 253.518 249.35 251.508 249.35H251.048C250.558 249.351 250.086 249.164 249.727 248.828C249.368 248.491 249.15 248.03 249.116 247.538L249.04 246.427C248.545 239.138 248.235 234.572 244.259 228.969C242.995 227.198 240.943 225.529 238.779 223.769C234.99 220.688 230.86 217.329 230.027 212.658C229.77 211.222 230.394 210.598 231.899 210.786C231.982 210.797 232.066 210.796 232.148 210.785C232.285 210.765 232.418 210.715 232.536 210.637C232.724 210.511 232.862 210.322 232.924 210.103C233.142 209.33 233.058 208.701 232.672 208.216C231.553 206.869 230.077 205.671 228.245 204.621C227.829 204.374 227.537 204.478 227.369 204.933ZM240.278 170.202C239.06 170.4 238.871 170.949 239.713 171.851C246.042 178.55 251.092 187.404 243.353 195.47C242.481 196.381 241.392 196.668 240.085 196.332C239.609 196.213 239.48 195.931 239.698 195.485C239.888 195.103 240.092 194.724 240.3 194.346C240.457 194.064 240.616 193.782 240.776 193.5L240.778 193.497C241.689 191.886 242.597 190.281 242.892 188.563C244.201 180.954 236.783 174.639 230.763 169.514C229.402 168.356 228.113 167.258 227.012 166.22C226.925 166.136 226.849 166.043 226.784 165.943C226.728 165.859 226.681 165.769 226.643 165.676C226.558 165.472 226.517 165.252 226.522 165.032L226.819 152.138C226.822 151.934 226.884 151.736 226.999 151.568C227.113 151.399 227.275 151.268 227.463 151.191C227.651 151.113 227.858 151.093 228.058 151.132C228.257 151.171 228.441 151.267 228.587 151.41L233.652 156.208C233.783 156.334 233.876 156.495 233.918 156.672C233.93 156.72 233.937 156.769 233.941 156.819C233.952 156.949 233.935 157.08 233.892 157.203C233.831 157.373 233.724 157.522 233.581 157.63C233.438 157.738 233.267 157.802 233.088 157.813L231.944 157.887C231.399 157.926 231.018 158.194 230.8 158.689C228.75 163.413 234.246 167.26 237.812 169.711C238.297 170.058 238.713 169.989 239.06 169.503C248.057 156.92 239.436 150.098 230.931 143.367L230.916 143.355C229.808 142.478 228.701 141.601 227.636 140.714C227.257 140.4 226.955 140.004 226.755 139.556C226.554 139.107 226.459 138.619 226.477 138.13L226.982 126.231C226.991 126.041 227.049 125.856 227.151 125.695C227.252 125.534 227.394 125.403 227.562 125.313C227.729 125.223 227.917 125.178 228.107 125.183C228.161 125.184 228.213 125.189 228.265 125.198C228.399 125.221 228.529 125.269 228.646 125.339C230.161 126.25 231.429 127.419 232.449 128.845C232.756 129.281 232.702 129.672 232.286 130.019C228.215 133.376 230.414 136.644 233.682 139.452C241.005 145.75 248.894 152.717 246.472 163.636C245.611 167.468 243.546 169.657 240.278 170.202ZM237.049 196.226C232.709 192.124 228.902 188.525 230.354 184.047C230.503 183.581 230.805 183.438 231.26 183.616C231.914 183.873 232.365 184.012 232.612 184.032C234.444 184.19 234.717 183.566 233.43 182.16C231.756 180.338 229.755 178.882 227.428 177.793C227.354 177.758 227.273 177.742 227.192 177.747C227.11 177.752 227.032 177.777 226.962 177.819C226.893 177.862 226.835 177.921 226.795 177.992C226.754 178.062 226.732 178.142 226.73 178.223C226.721 179.016 226.686 179.897 226.648 180.833C226.442 185.97 226.169 192.783 229.775 195.886C230.604 196.598 231.438 197.291 232.262 197.975C239.553 204.032 246.007 209.395 240.708 220.754C239.975 222.328 240.436 222.843 242.09 222.298C244.467 221.516 245.987 219.56 246.65 216.431C248.623 207.167 242.427 201.309 237.049 196.226Z" fill="black"/>
<path fill-rule="evenodd" clip-rule="evenodd" d="M279.732 208.572C280.881 206.79 282.629 205.423 284.976 204.472C285.422 204.294 285.689 204.438 285.778 204.903C288.227 217.049 283.042 221.618 277.476 226.522C273.588 229.948 269.514 233.538 267.729 239.991C267.642 240.303 267.646 240.633 267.741 240.943C267.836 241.253 268.018 241.529 268.265 241.738C268.385 241.84 268.517 241.924 268.658 241.988C268.763 242.035 268.872 242.072 268.984 242.098C269.034 242.109 269.084 242.118 269.135 242.125C269.456 242.168 269.783 242.118 270.076 241.981C271.325 241.401 272.483 240.112 273.558 238.914C273.891 238.542 274.217 238.18 274.535 237.85C274.74 237.636 274.943 237.437 275.142 237.257C276.565 235.981 278.012 234.784 279.434 233.607C285.542 228.553 291.197 223.874 292.522 214.886C292.81 212.905 292.938 209.077 292.909 203.403C292.711 171.712 292.691 140.204 292.849 108.88C292.852 108.457 292.734 108.042 292.509 107.684C292.283 107.326 291.959 107.04 291.576 106.86C291.194 106.681 290.767 106.614 290.348 106.67C289.928 106.725 289.534 106.899 289.21 107.171C287.972 108.211 286.808 109.405 285.719 110.751C284.139 112.683 282.205 114.598 280.228 116.557C273.189 123.531 265.602 131.046 271.517 141.739C271.582 141.857 271.62 141.986 271.631 142.12C271.642 142.254 271.624 142.388 271.579 142.514C271.534 142.64 271.463 142.756 271.371 142.853C271.278 142.949 271.166 143.026 271.042 143.076L270.641 143.239C269.76 143.606 269.052 143.398 268.517 142.616C263.451 135.188 266.021 125.725 271.488 119.367C272.597 118.09 272.572 116.832 271.413 115.594L271.087 115.252C269.888 113.965 268.656 113.93 267.388 115.149L259.024 123.185C258.761 123.439 258.552 123.743 258.409 124.08C258.266 124.417 258.193 124.779 258.192 125.146L258.415 246.497C258.425 248.379 259.371 249.32 261.253 249.32H261.951C262.241 249.32 262.529 249.261 262.796 249.145C263.063 249.03 263.303 248.86 263.502 248.647C263.701 248.434 263.855 248.182 263.953 247.907C264.014 247.737 264.054 247.56 264.07 247.38C264.08 247.27 264.082 247.158 264.075 247.047C263.198 233.276 268.234 227.498 277.712 220.248C280.376 218.198 282.055 215.45 282.748 212.004C282.877 211.38 282.619 211.038 281.975 210.979L280.683 210.86C280.227 210.82 279.896 210.597 279.688 210.191C279.391 209.627 279.406 209.087 279.732 208.572ZM279.852 131.37L281.53 131.771C281.956 131.86 282.233 132.113 282.362 132.529C283.254 135.331 282.719 137.372 280.758 138.649C270.671 145.26 263.273 152.806 266.66 165.893C267.057 167.419 268.012 168.691 269.527 169.711C269.973 170.008 270.399 170.122 270.805 170.053C271.29 169.983 271.662 169.761 271.919 169.384C272.216 168.949 272.226 168.513 271.949 168.077C264.833 156.758 274.979 148.513 283.016 142.318C286.948 139.298 286.475 132.876 286.108 127.895C286.057 127.193 286.007 126.52 285.972 125.889C285.966 125.758 285.926 125.631 285.857 125.519C285.788 125.408 285.691 125.316 285.577 125.252C285.52 125.22 285.459 125.196 285.396 125.179C285.333 125.163 285.268 125.154 285.203 125.154C285.139 125.154 285.076 125.162 285.015 125.177C284.95 125.193 284.887 125.217 284.828 125.25C282.659 126.419 280.827 127.968 279.332 129.9C279.235 130.022 279.171 130.166 279.145 130.32C279.119 130.474 279.133 130.632 279.185 130.779C279.196 130.808 279.208 130.837 279.221 130.866C279.249 130.924 279.282 130.979 279.321 131.03C279.357 131.077 279.398 131.121 279.442 131.16C279.559 131.264 279.7 131.336 279.852 131.37ZM281.857 158.808L279.272 157.486C279.169 157.43 279.081 157.35 279.017 157.251C278.953 157.153 278.915 157.04 278.906 156.923C278.902 156.866 278.905 156.809 278.914 156.753C278.924 156.695 278.942 156.637 278.966 156.582C279.015 156.476 279.089 156.383 279.183 156.312L285.125 151.9C285.203 151.844 285.294 151.81 285.389 151.801C285.485 151.793 285.58 151.81 285.667 151.851C285.753 151.892 285.827 151.955 285.881 152.034C285.91 152.077 285.932 152.123 285.947 152.171C285.961 152.213 285.969 152.257 285.972 152.301C286.004 153.09 286.059 153.912 286.115 154.754C286.45 159.782 286.833 165.508 282.659 168.88L282.195 169.255C273.596 176.208 264.208 183.798 272.394 195.545C272.929 196.317 272.731 196.758 271.8 196.867L271.369 196.911C270.944 196.961 270.513 196.9 270.117 196.734C269.721 196.567 269.375 196.301 269.111 195.961C265.071 190.692 264.551 184.859 267.552 178.461C270.045 173.162 273.525 170.415 277.215 167.501L277.218 167.499C278.958 166.125 280.745 164.714 282.496 162.982C282.787 162.692 283.007 162.337 283.136 161.946C283.264 161.555 283.299 161.14 283.237 160.733C283.174 160.326 283.017 159.94 282.777 159.605C282.538 159.271 282.222 158.997 281.857 158.808ZM279.569 185.19L281.783 185.116C282.258 185.096 282.526 185.324 282.585 185.799C282.872 188.206 282.441 189.87 281.293 190.791C276.816 194.336 273.216 197.669 270.493 200.788C266.096 205.794 263.422 215.212 268.16 221.11C268.458 221.479 268.854 221.757 269.303 221.912C269.752 222.067 270.236 222.093 270.701 221.986L271.146 221.882C271.287 221.849 271.418 221.783 271.528 221.69C271.639 221.597 271.726 221.479 271.782 221.346C271.838 221.213 271.863 221.068 271.853 220.924C271.848 220.847 271.833 220.771 271.809 220.699C271.788 220.635 271.76 220.574 271.726 220.516C265.323 209.85 274.652 201.843 282.644 195.619C286.796 192.374 286.475 186.508 286.199 181.459C286.145 180.475 286.093 179.521 286.076 178.624C286.073 178.496 286.044 178.371 285.99 178.256C285.968 178.212 285.944 178.169 285.916 178.128C285.815 177.982 285.674 177.869 285.509 177.803C285.345 177.736 285.164 177.72 284.99 177.755C284.817 177.79 284.657 177.875 284.531 178L278.916 183.69C278.789 183.814 278.704 183.974 278.67 184.148C278.652 184.24 278.649 184.334 278.661 184.427C278.671 184.508 278.694 184.588 278.727 184.665C278.798 184.827 278.916 184.965 279.066 185.058C279.217 185.152 279.392 185.198 279.569 185.19Z" fill="black"/>
</svg>
