<svg width="512" height="512" viewBox="0 0 512 512" fill="none" xmlns="http://www.w3.org/2000/svg">
<rect width="512" height="512" fill="white"/>
<path d="M248.835 240.473L249.507 244.191C250.092 247.254 251.193 247.443 252.811 244.758L281.98 195.765C282.318 195.2 282.781 194.72 283.335 194.363C283.888 194.006 284.516 193.782 285.17 193.707C285.824 193.632 286.487 193.709 287.107 193.931C287.726 194.154 288.286 194.516 288.743 194.99C301.306 208.241 309.48 223.798 313.266 241.661C313.319 241.953 313.301 242.253 313.214 242.537C313.127 242.82 312.974 243.079 312.767 243.291C312.559 243.503 312.305 243.663 312.023 243.757C311.742 243.85 311.442 243.875 311.149 243.829C310.633 243.726 310.168 243.777 309.755 243.984C308.717 244.481 307.74 244.965 307.021 245.339C306.302 245.713 305.896 245.948 305.883 245.997L270.674 304.852C269.779 306.332 270.037 307.571 271.448 308.569L272.687 309.446C273.444 309.997 274.081 309.877 274.597 309.085L312.181 249.611C314.246 246.41 316.122 246.514 317.809 249.921C337.634 290.086 319.254 328.393 289.465 356.736C288.192 357.975 287.952 359.387 288.743 360.97L304.128 391.429C306.881 396.833 305.539 400.86 300.101 403.51L297.261 404.852C292.443 407.193 288.881 405.954 286.575 401.135L269.538 365.823C268.746 364.136 267.507 362.897 265.821 362.106C256.528 357.511 245.48 355.394 237.581 350.231C213.351 334.33 199.549 311.546 196.177 281.878C196.073 281.017 196.417 279.297 197.209 276.715C197.863 274.616 199.068 272.878 200.823 271.501C202.682 270.055 202.716 268.575 200.926 267.061C187.572 255.703 182.616 240.921 186.058 222.714C186.333 221.234 187.056 220.046 188.226 219.152C188.57 218.876 188.932 218.601 189.31 218.326C190.894 217.19 191.324 215.71 190.601 213.886C181.05 189.208 190.756 134.226 201.391 110.013C201.837 109.02 202.514 108.148 203.365 107.471C204.217 106.794 205.217 106.332 206.281 106.125C207.346 105.917 208.442 105.969 209.478 106.278C210.514 106.586 211.459 107.142 212.232 107.896L245.377 140.008C246.009 140.623 246.414 141.436 246.527 142.316C246.639 143.197 246.452 144.093 245.996 144.861C241.453 152.502 238.132 160.693 236.032 169.435C234.69 175.011 235.722 175.493 239.13 170.881C242.743 165.993 245.669 159.557 247.906 151.572C248.135 150.788 248.571 150.08 249.167 149.523C249.764 148.966 250.5 148.579 251.298 148.405C252.096 148.231 252.926 148.275 253.701 148.532C254.476 148.79 255.167 149.251 255.702 149.869L283.787 182.755C284.337 183.403 284.723 184.174 284.913 185.002C285.104 185.83 285.091 186.688 284.877 187.503C284.664 188.317 284.255 189.063 283.687 189.675C283.119 190.288 282.409 190.748 281.619 191.015C281.275 191.153 280.482 191.91 279.243 193.287C268.608 205.436 258.662 219.995 249.404 236.963C248.805 238.029 248.603 239.273 248.835 240.473Z" fill="black"/>
</svg>
