<svg width="512" height="512" viewBox="0 0 512 512" fill="none" xmlns="http://www.w3.org/2000/svg">
<rect width="512" height="512" fill="white"/>
<path d="M351.795 219.657L351.794 219.658L383.921 226.407C377.8 234.179 366.256 225.905 358.896 220.631C357.774 219.827 356.749 219.092 355.856 218.495L356.136 218.081C356.136 218.081 356.136 218.081 356.136 218.081C355.209 217.454 354.291 217.155 353.464 217.456C352.641 217.757 352.12 218.577 351.795 219.657ZM248.955 180.365L248.635 179.981L249.287 197.584C247.836 197.422 246.457 196.859 245.308 195.957C244.158 195.056 243.284 193.852 242.784 192.483C242.284 191.114 242.178 189.635 242.477 188.212C242.777 186.789 243.471 185.48 244.48 184.433L244.48 184.433L244.486 184.426C245.409 183.43 246.894 182.078 248.955 180.365C248.955 180.365 248.955 180.365 248.955 180.365ZM274.627 200.383L249.288 197.584L341.824 253.763L341.347 253.612C341.347 253.612 341.347 253.612 341.347 253.612C326.853 299.385 303.287 336.298 271.244 362.293C239.203 388.287 198.658 403.388 150.163 405.492C148.167 405.574 146.196 405.018 144.534 403.903C142.871 402.788 141.603 401.173 140.914 399.289L140.913 399.288C135.799 385.385 131.776 370.447 128.844 354.475C127.936 349.44 128.846 346.266 131.278 344.644C131.866 344.26 132.853 343.955 134.302 343.771C135.74 343.589 137.581 343.533 139.83 343.607H139.831C213.014 345.968 277.143 281.543 282.759 210.175L282.759 210.173C282.977 207.309 282.433 204.998 281.041 203.322C279.648 201.646 277.479 200.69 274.627 200.383C274.627 200.383 274.627 200.383 274.627 200.383Z" fill="white" stroke="black"/>
<path d="M353.854 179.944L353.854 179.944L353.85 179.947C348.186 183.998 345.427 186.378 340.768 192.052C340.686 192.149 340.571 192.213 340.445 192.229C340.319 192.246 340.191 192.215 340.087 192.141C339.982 192.067 339.909 191.957 339.882 191.833C339.856 191.708 339.877 191.578 339.941 191.468L339.941 191.468L339.944 191.464C343.132 185.946 347.531 181.657 353.149 178.591L353.149 178.591L353.159 178.585C353.419 178.435 353.553 178.444 353.611 178.462C353.668 178.48 353.782 178.546 353.911 178.81C354.08 179.193 354.107 179.478 354.062 179.689L354.057 179.711L354.055 179.732C354.055 179.732 354.046 179.81 353.854 179.944Z" fill="black" stroke="black"/>
<path d="M336.379 205.266L335.994 205.635C335.121 203.712 335.41 202.152 336.861 200.954C344.5 194.635 350.272 189.385 354.178 185.205C354.216 185.165 354.263 185.132 354.314 185.11C354.366 185.088 354.421 185.077 354.476 185.077C354.532 185.077 354.588 185.088 354.639 185.11C354.69 185.132 354.737 185.165 354.775 185.205L355.447 185.877C356.044 186.524 356.019 187.146 355.372 187.743L336.603 205.744C336.519 205.581 336.444 205.422 336.379 205.266ZM336.379 205.266C336.059 204.509 335.953 203.848 336.023 203.273C336.111 202.564 336.476 201.921 337.18 201.34L337.18 201.34C344.783 195.049 350.552 189.807 354.479 185.616M336.379 205.266L355.026 187.382L355.033 187.376L355.033 187.376C355.3 187.129 355.371 186.941 355.376 186.809C355.382 186.678 355.327 186.486 355.086 186.223M354.479 185.616L355.086 186.223M354.479 185.616C354.5 185.593 354.522 185.57 354.543 185.547L354.487 185.494L354.478 185.486L354.477 185.485L354.476 185.484L354.475 185.483L354.178 185.205L354.476 185.487L354.477 185.487L354.477 185.487L354.477 185.487L354.485 185.495L354.542 185.549C354.533 185.558 354.523 185.565 354.512 185.569C354.501 185.574 354.489 185.577 354.476 185.577C354.465 185.577 354.453 185.574 354.441 185.569C354.435 185.566 354.428 185.563 354.422 185.558C354.419 185.555 354.415 185.552 354.412 185.549L354.417 185.554L354.422 185.559L354.479 185.616ZM355.086 186.223L355.093 186.231L355.447 185.877L355.079 186.216C355.082 186.219 355.084 186.221 355.086 186.223Z" fill="black" stroke="black"/>
<path d="M363.377 204.498L363.378 204.498C363.569 204.98 363.677 205.336 363.718 205.578C363.496 205.467 363.183 205.258 362.774 204.931L362.773 204.93C359.973 202.695 356.789 201.586 353.24 201.611L353.24 201.611L353.237 201.611C352.791 201.617 352.472 201.576 352.258 201.507C352.046 201.439 351.987 201.362 351.97 201.329C351.952 201.295 351.922 201.203 351.987 200.99C352.052 200.775 352.199 200.488 352.457 200.124L352.457 200.124L352.461 200.12C352.655 199.839 352.878 199.606 353.13 199.416C353.714 198.993 354.175 198.652 354.511 198.392C354.814 198.158 355.055 197.961 355.175 197.827C355.938 197.066 356.782 196.412 357.711 195.864C358.419 195.465 358.923 195.414 359.284 195.539C359.644 195.665 360.009 196.02 360.318 196.775L363.377 204.498Z" fill="black" stroke="black"/>
<path d="M336.551 209.312C336.976 211.792 336.881 214.353 336.262 217L336.261 217.004C336.014 218.106 335.449 218.955 334.559 219.578L334.557 219.579L325.722 225.822C326.259 224.151 327.142 222.988 328.192 221.979C328.743 221.449 329.338 220.963 329.962 220.462C330.03 220.408 330.097 220.354 330.165 220.299C330.723 219.853 331.3 219.391 331.863 218.886C333.135 217.745 334.357 216.37 335.256 214.353C335.864 212.991 336.318 211.351 336.551 209.312ZM325.22 226.137C325.22 226.137 325.22 226.137 325.221 226.136L325.22 226.137Z" fill="black" stroke="black"/>
<path d="M312.629 261.428L328.824 240.371L328.825 240.369C329.234 239.834 329.462 239.259 329.411 238.661C329.36 238.062 329.036 237.537 328.541 237.085L328.54 237.084C328.231 236.802 327.858 236.654 327.447 236.621L333.43 227.81C333.43 227.809 333.43 227.809 333.431 227.809C333.493 227.719 333.576 227.644 333.673 227.592C333.77 227.54 333.878 227.512 333.988 227.509C334.099 227.507 334.208 227.532 334.307 227.58C334.406 227.628 334.492 227.7 334.558 227.788L334.562 227.794L334.567 227.8L335.387 228.833C332.393 232.723 330.603 237.059 330.021 241.834C329.912 242.73 329.537 243.559 328.951 244.21L328.951 244.211L322.457 251.451L322.455 251.453C321.627 252.388 321.078 253.473 320.811 254.701C320.349 256.799 319.351 258.392 317.83 259.519C316.521 260.487 314.796 261.132 312.629 261.428Z" fill="black" stroke="black"/>
<path d="M309.515 251.922L309.515 251.922L309.521 251.916L319.686 241.825C319.691 241.828 319.695 241.831 319.7 241.835C319.762 241.886 319.838 241.957 319.927 242.051L319.932 242.057L319.937 242.062C319.95 242.075 319.956 242.084 319.959 242.088C319.958 242.092 319.958 242.099 319.955 242.11C319.938 242.178 319.864 242.323 319.641 242.547L309.719 252.133C309.719 252.134 309.719 252.134 309.718 252.134C309.69 252.161 309.653 252.175 309.614 252.174C309.575 252.174 309.538 252.157 309.511 252.129C309.484 252.101 309.469 252.063 309.47 252.025C309.471 251.986 309.487 251.949 309.515 251.922ZM319.575 241.751C319.575 241.751 319.576 241.752 319.577 241.752L319.575 241.751ZM319.96 242.091C319.96 242.091 319.96 242.091 319.96 242.09L319.96 242.091Z" fill="black" stroke="black"/>
<path d="M300.622 312.953C304.106 306.658 308.024 300.662 312.378 294.964L300.622 312.953ZM300.622 312.953C297.304 318.994 292.386 322.959 287.323 327.041M300.622 312.953L287.323 327.041M297.892 307.357L297.891 307.357C294.549 308.967 291.449 310.879 288.592 313.09C287.185 315.919 284.899 317.933 281.768 319.13L281.766 319.131C276.688 321.051 271.893 323.927 267.207 327.087C265.115 328.497 263.051 329.96 260.993 331.418C260.746 331.594 260.498 331.769 260.251 331.944C257.949 333.574 255.654 335.188 253.35 336.696M297.892 307.357L253.077 336.278M297.892 307.357C303.741 304.529 306.332 301.017 309.538 296.671C310.127 295.872 310.738 295.044 311.393 294.188M297.892 307.357L311.393 294.188M253.35 336.696L253.077 336.278M253.35 336.696C253.351 336.696 253.351 336.696 253.351 336.696L253.077 336.278M253.35 336.696C249.599 339.16 245.226 341.145 240.788 343.159L240.454 343.311C235.888 345.384 231.259 347.505 227.08 350.242M253.077 336.278C249.358 338.72 245.016 340.691 240.564 342.712C235.901 344.828 231.118 347 226.803 349.825M227.08 350.242C227.081 350.241 227.082 350.24 227.083 350.24L226.803 349.825M227.08 350.242C225.932 351.015 224.659 351.417 223.273 351.444M227.08 350.242C227.079 350.242 227.078 350.243 227.077 350.243L226.803 349.825M226.803 349.825L223.273 351.444M223.273 351.444C223.275 351.444 223.276 351.444 223.278 351.444L223.258 350.945L223.267 351.445C223.269 351.445 223.271 351.444 223.273 351.444ZM223.273 351.444C220.31 351.564 217.989 352.764 216.268 355.052L216.266 355.054C215.885 355.556 215.397 355.966 214.839 356.253C214.28 356.539 213.666 356.695 213.042 356.707L213.035 356.707L206.062 356.744L206.053 356.244M223.273 351.444L215.868 354.751C215.531 355.195 215.101 355.556 214.61 355.808C214.119 356.06 213.58 356.196 213.032 356.207L206.053 356.244M206.053 356.244L206.056 356.744L206.059 356.744M206.053 356.244C205.418 356.255 204.805 356.479 204.317 356.879C203.829 357.279 203.493 357.832 203.366 358.446C202.719 361.457 203.677 363.696 206.24 365.164C207.459 365.835 207.521 366.594 206.426 367.44C205.232 368.336 203.901 368.585 202.433 368.187M206.059 356.744L324.097 265.929C307.402 281.679 290.845 297.602 274.424 313.699C261.695 326.203 245.793 333.884 229.95 341.535C224.751 344.046 219.559 346.554 214.487 349.228C212.664 350.19 210.873 350.611 209.108 351.026C206.284 351.689 203.523 352.338 200.791 355.162C199.995 356.008 199.211 355.995 198.44 355.124C198.141 354.801 197.78 354.577 197.357 354.453C196.686 354.303 196.076 354.428 195.529 354.826C193.016 356.742 190.254 358.222 187.244 359.267C185.975 359.715 184.681 359.989 183.362 360.088M206.059 356.744C205.537 356.754 205.034 356.938 204.634 357.266C204.233 357.594 203.959 358.046 203.855 358.547L203.855 358.551C203.547 359.982 203.63 361.185 204.059 362.187C204.486 363.186 205.279 364.036 206.485 364.728M206.059 356.744L186.916 363.536M202.433 368.187C201.413 367.938 201.002 367.291 201.201 366.246M202.433 368.187L202.302 368.669C202.304 368.67 202.306 368.67 202.308 368.671M202.433 368.187L202.314 368.672C202.312 368.672 202.31 368.671 202.308 368.671M201.201 366.246C201.799 363.061 200.803 360.648 198.216 359.006C196.947 358.185 195.852 358.384 194.931 359.603C192.991 362.116 190.329 363.26 186.945 363.037C186.595 363.019 186.247 363.095 185.936 363.257C185.625 363.419 185.364 363.66 185.18 363.955C184.996 364.249 184.897 364.587 184.892 364.931C184.887 365.275 184.978 365.614 185.154 365.91C186.049 367.428 186.547 369.07 186.647 370.836C186.721 371.981 186.211 372.665 185.116 372.889M201.201 366.246L200.71 366.152C200.71 366.153 200.71 366.153 200.71 366.153M201.201 366.246L200.71 366.154C200.71 366.154 200.71 366.154 200.71 366.153M185.116 372.889L172.316 375.539C170.698 375.862 170.325 375.327 171.196 373.934C172.44 371.968 172.888 369.854 172.539 367.59C172.34 366.321 172.714 365.251 173.659 364.38C176.471 361.768 179.705 360.337 183.362 360.088M185.116 372.889L185.218 373.379M185.116 372.889L185.218 373.379M183.362 360.088L183.328 359.589C183.327 359.589 183.327 359.589 183.326 359.589M183.362 360.088L183.325 359.59C183.325 359.59 183.325 359.589 183.326 359.589M183.326 359.589C179.55 359.847 176.21 361.327 173.32 364.012M183.326 359.589C184.599 359.493 185.85 359.229 187.077 358.796L187.08 358.795C190.041 357.767 192.755 356.312 195.226 354.428L195.235 354.422L195.235 354.422C195.9 353.938 196.657 353.785 197.466 353.965L197.482 353.968L197.498 353.973C198.008 354.123 198.447 354.395 198.807 354.785L198.814 354.793L198.814 354.793C199.152 355.174 199.419 355.284 199.614 355.287C199.809 355.29 200.078 355.189 200.427 354.819L200.432 354.814C202.74 352.429 205.076 351.537 207.4 350.928C207.95 350.783 208.492 350.656 209.03 350.529C210.784 350.117 212.492 349.715 214.254 348.786L214.254 348.786C219.334 346.107 224.533 343.596 229.73 341.086L229.917 340.996C235.178 338.455 240.436 335.913 245.579 333.191C255.865 327.748 265.67 321.598 274.073 313.342L274.074 313.342C290.497 297.242 307.057 281.317 323.753 265.566L323.754 265.565C324.348 265.005 324.689 264.44 324.823 263.874C324.956 263.311 324.896 262.699 324.607 262.021C324.423 261.596 324.279 261.544 324.258 261.54C324.243 261.536 324.098 261.523 323.779 261.842L323.778 261.843C309.125 276.421 294.571 291.062 280.117 305.764C278.084 307.836 275.65 309.577 273.199 311.291C273.029 311.41 272.858 311.529 272.688 311.648C270.395 313.25 268.106 314.849 266.067 316.717C261.539 320.922 258.11 323.739 255.798 325.137C246.193 330.974 236.127 335.889 225.599 339.88L225.599 339.881C210.78 345.475 195.974 351.579 181.18 358.193C180.812 358.36 180.42 358.432 180.038 358.319C179.652 358.204 179.367 357.927 179.163 357.581C179.163 357.581 179.163 357.581 179.162 357.581L178.233 356.019C178.232 356.018 178.232 356.017 178.231 356.017C177.982 355.605 177.847 355.143 177.999 354.687C178.149 354.236 178.531 353.937 178.977 353.736L178.979 353.735L236.369 328.137C236.37 328.136 236.372 328.136 236.373 328.135C236.477 328.086 236.555 328.002 236.596 327.905C236.637 327.808 236.636 327.705 236.601 327.618L236.598 327.609L236.595 327.601L236.225 326.564C236.225 326.563 236.224 326.562 236.224 326.561C236.189 326.47 236.135 326.387 236.066 326.317C235.996 326.247 235.912 326.193 235.82 326.158C235.728 326.123 235.629 326.109 235.531 326.115C235.432 326.121 235.335 326.149 235.248 326.195L235.247 326.195C203.769 342.849 175.477 354.796 143.011 356.631C141.768 356.702 141.052 357.051 140.689 357.547C140.326 358.043 140.21 358.832 140.518 360.039L140.518 360.039L149.027 393.441L149.029 393.448C149.16 393.992 149.383 394.353 149.669 394.585C149.954 394.815 150.351 394.957 150.904 394.968C164.356 395.215 179.249 393.147 195.586 388.752L195.586 388.752C236.235 377.846 260.415 361.78 290.18 330.227C290.226 330.177 290.249 330.139 290.26 330.116C290.266 330.103 290.268 330.094 290.269 330.089L290.127 329.921C290.074 329.858 290.041 329.84 290.029 329.835C290.017 329.837 289.972 329.848 289.885 329.915C286.913 332.274 284.101 334.915 281.306 337.54C280.892 337.929 280.478 338.318 280.065 338.705C276.865 341.699 273.659 344.615 270.266 346.953L270.266 346.953C256.548 356.381 241.883 364.037 226.271 369.923M173.32 364.012L226.094 369.456M173.32 364.012C172.252 364.996 171.821 366.233 172.045 367.667C172.375 369.809 171.954 371.802 170.773 373.667L170.772 373.669C170.542 374.036 170.372 374.381 170.292 374.693C170.213 375.001 170.2 375.362 170.413 375.666C170.625 375.97 170.967 376.084 171.283 376.118C171.604 376.152 171.988 376.114 172.414 376.029L172.417 376.028L185.216 373.379L173.32 364.012ZM226.271 369.923L226.094 369.456M226.271 369.923C226.271 369.923 226.271 369.923 226.271 369.923L226.094 369.456M226.271 369.923C224.697 370.52 223.209 371.465 221.808 372.768M226.094 369.456C224.452 370.078 222.909 371.06 221.466 372.404C219.376 374.369 217.834 375.377 216.838 375.427M221.808 372.768C221.808 372.768 221.808 372.768 221.809 372.768L221.466 372.404L221.807 372.77C221.807 372.769 221.808 372.769 221.808 372.768ZM221.808 372.768C220.752 373.761 219.82 374.526 219.015 375.052C218.223 375.57 217.497 375.894 216.863 375.926M216.863 375.926C216.864 375.926 216.865 375.926 216.865 375.926L216.838 375.427M216.863 375.926C215.003 376.026 213.561 376.022 212.555 375.907C212.055 375.85 211.631 375.762 211.308 375.628C211.004 375.502 210.66 375.279 210.567 374.878C210.473 374.477 210.682 374.125 210.898 373.877C211.128 373.613 211.469 373.344 211.891 373.069C212.742 372.516 214.032 371.867 215.744 371.124C235.243 362.654 254.373 351.996 273.133 339.149L273.135 339.148C274.409 338.283 275.884 336.946 277.563 335.119M216.863 375.926L216.838 375.427M216.838 375.427C209.424 375.825 209.126 374.544 215.943 371.583C235.474 363.099 254.631 352.425 273.416 339.562L277.563 335.119M277.563 335.119L277.932 335.457M277.563 335.119C277.563 335.119 277.563 335.119 277.563 335.119L277.932 335.457M277.563 335.119C280.536 331.869 283.827 329.216 287.027 326.637C287.957 325.887 288.879 325.144 289.784 324.394C293.815 321.05 297.525 317.554 300.184 312.712L300.185 312.711C303.68 306.395 307.612 300.378 311.981 294.661L311.984 294.657C312.109 294.497 312.101 294.422 312.099 294.407C312.096 294.388 312.074 294.304 311.895 294.173L311.692 294.023V294.015C311.653 294.003 311.629 294.004 311.619 294.005C311.598 294.008 311.52 294.026 311.393 294.188M277.563 335.119L311.393 294.188M277.932 335.457C280.877 332.238 284.129 329.616 287.323 327.041M277.932 335.457L287.323 327.041M185.218 373.379C185.847 373.25 186.372 372.974 186.721 372.507C187.068 372.041 187.188 371.455 187.146 370.806M185.218 373.379L186.916 363.536M200.71 366.153C200.995 364.633 200.893 363.336 200.441 362.238C199.989 361.143 199.17 360.204 197.948 359.428L197.944 359.426C197.377 359.059 196.915 358.962 196.532 359.031C196.148 359.101 195.744 359.357 195.331 359.904L195.327 359.909C193.278 362.562 190.451 363.768 186.916 363.536M200.71 366.153C200.596 366.751 200.642 367.316 200.938 367.783C201.234 368.249 201.723 368.527 202.308 368.671M186.916 363.536C186.918 363.536 186.919 363.536 186.92 363.536L186.945 363.037L186.912 363.535C186.913 363.536 186.915 363.536 186.916 363.536ZM186.916 363.536C186.657 363.524 186.398 363.58 186.167 363.701C185.934 363.821 185.74 364.001 185.604 364.219C185.468 364.437 185.395 364.686 185.392 364.938C185.389 365.19 185.455 365.438 185.584 365.655L185.584 365.656C186.52 367.242 187.041 368.961 187.146 370.806M202.308 368.671C203.919 369.106 205.408 368.829 206.726 367.84L206.732 367.836C207.307 367.392 207.752 366.845 207.699 366.196C207.646 365.55 207.121 365.079 206.485 364.728M206.485 364.728C206.483 364.727 206.482 364.726 206.481 364.726L206.24 365.163L206.488 364.73C206.487 364.729 206.486 364.728 206.485 364.728ZM187.146 370.806C187.146 370.805 187.145 370.805 187.145 370.804L186.647 370.836L187.146 370.808C187.146 370.807 187.146 370.807 187.146 370.806Z" fill="black" stroke="black"/>
<path d="M295.23 278.468C299.401 272.821 304.341 267.901 310.052 263.707C306.602 269.673 301.666 274.594 295.23 278.468Z" fill="black" stroke="black"/>
<path d="M283.131 313.613L283.131 313.613L283.132 313.603C283.274 312.273 283.669 311.425 284.227 310.945C297.752 299.608 310.062 287.142 321.156 273.548L321.782 274.017L321.784 274.018C321.954 274.145 322.07 274.331 322.109 274.539C322.148 274.746 322.108 274.96 321.997 275.139C313.75 287.719 302.65 299.107 288.686 309.301C288.052 309.756 287.609 310.306 287.441 310.962C287.326 311.411 287.348 311.871 287.484 312.335C286.19 312.525 284.904 313.059 283.628 313.916C283.401 314.063 283.239 314.137 283.134 314.166C283.13 314.167 283.126 314.168 283.122 314.169C283.122 314.167 283.122 314.165 283.121 314.162C283.101 314.057 283.096 313.881 283.131 313.613ZM283.056 314.179C283.056 314.179 283.057 314.179 283.058 314.179L283.056 314.179ZM283.141 314.231C283.142 314.232 283.142 314.233 283.142 314.233C283.142 314.233 283.141 314.233 283.141 314.231Z" fill="black" stroke="black"/>
<path d="M284.835 290.05L284.833 290.051C284.663 290.181 284.508 290.296 284.368 290.396C284.461 290.25 284.568 290.089 284.69 289.912C286.543 287.233 288.923 284.62 291.835 282.075C289.937 285.303 287.603 287.959 284.835 290.05Z" fill="black" stroke="black"/>
<path d="M263.943 297.331C265.291 295.31 266.865 293.549 268.664 292.046C267.668 294.389 266.12 296.169 264.02 297.407C263.949 297.449 263.882 297.487 263.819 297.522C263.857 297.462 263.898 297.399 263.943 297.331Z" fill="black" stroke="black"/>
<path d="M277.66 298.388C277.66 298.388 277.66 298.389 277.66 298.392L277.66 298.388ZM277.497 298.687C277.516 298.681 277.534 298.676 277.551 298.671C277.543 298.687 277.534 298.703 277.524 298.72C277.351 299.033 277.034 299.465 276.563 300.001C275.627 301.067 274.228 302.384 272.672 303.658C271.902 304.287 271.121 304.885 270.372 305.417C269.623 305.948 268.925 306.401 268.318 306.75C267.706 307.102 267.217 307.33 266.873 307.438C266.854 307.444 266.836 307.45 266.819 307.455C266.828 307.439 266.836 307.422 266.846 307.405C267.019 307.092 267.336 306.66 267.807 306.124C268.743 305.058 270.142 303.742 271.698 302.468C272.468 301.838 273.249 301.24 273.998 300.709C274.747 300.177 275.445 299.725 276.052 299.376C276.665 299.024 277.153 298.795 277.497 298.687ZM266.71 307.734C266.71 307.736 266.71 307.737 266.71 307.737L266.71 307.734ZM266.521 307.506C266.521 307.506 266.522 307.506 266.524 307.506L266.521 307.506ZM277.846 298.619C277.849 298.62 277.85 298.62 277.849 298.62C277.849 298.62 277.848 298.62 277.846 298.619Z" fill="black" stroke="black"/>
<path d="M247.066 320.005C250.853 315.875 255.19 312.507 260.08 309.899L260.488 310.902L260.489 310.904C260.509 310.953 260.518 310.987 260.522 311.009C260.501 311.021 260.465 311.037 260.407 311.053L260.395 311.056L260.384 311.06C255.612 312.642 252.015 315.637 249.615 320.028L249.613 320.031C248.939 321.286 247.98 322.234 246.726 322.884L246.726 322.884L246.723 322.886L241.513 325.639C241.417 325.68 241.31 325.69 241.207 325.668C241.1 325.645 241.003 325.588 240.932 325.506C240.86 325.423 240.817 325.32 240.808 325.211C240.8 325.105 240.825 325 240.881 324.909C241.898 323.446 243.204 322.365 244.806 321.658C245.66 321.284 246.43 320.719 247.066 320.005Z" fill="black" stroke="black"/>
<path d="M213.774 362.008L213.778 362.007C243.357 350.078 272.027 331.648 297.212 310.386L297.215 310.383C297.323 310.291 297.399 310.272 297.447 310.27C297.499 310.268 297.589 310.284 297.726 310.378L297.726 310.378L297.732 310.382L298.734 311.05C298.735 311.051 298.736 311.052 298.737 311.052C299.119 311.315 299.201 311.511 299.209 311.618C299.217 311.725 299.166 311.931 298.828 312.248C275.622 333.143 258.645 342.899 236.155 355.207C233.811 356.472 231.225 357.487 228.531 358.544C227.485 358.954 226.423 359.371 225.352 359.812C221.551 361.375 217.696 363.218 214.314 366.087C214.166 366.21 213.992 366.295 213.804 366.336C213.616 366.376 213.418 366.371 213.229 366.319C213.039 366.267 212.863 366.17 212.714 366.035C212.567 365.901 212.453 365.735 212.381 365.549C212.137 364.859 212.102 364.244 212.245 363.689C212.476 362.873 212.974 362.324 213.774 362.008Z" fill="white" stroke="black"/>
<path d="M196.682 366.784V366.784L196.688 366.784C196.875 366.783 197.055 366.84 197.205 366.946C197.355 367.053 197.471 367.206 197.535 367.385C197.598 367.565 197.606 367.764 197.556 367.955C197.506 368.145 197.399 368.316 197.252 368.445C197.252 368.445 197.252 368.445 197.252 368.445C197.252 368.445 197.252 368.445 197.252 368.445L193.632 371.617L193.631 371.618C193.481 371.75 193.293 371.832 193.094 371.852C192.895 371.872 192.695 371.828 192.522 371.728C192.348 371.628 192.211 371.476 192.129 371.294C192.047 371.112 192.024 370.908 192.063 370.712L192.064 370.712L192.065 370.705C192.324 369.325 192.846 368.355 193.585 367.729C194.323 367.104 195.337 366.772 196.682 366.784Z" fill="white" stroke="black"/>
<path d="M204.197 378.753L204.197 378.753C204.948 378.534 205.335 378.235 205.504 377.928C205.666 377.636 205.695 377.216 205.443 376.589C205.383 376.45 205.314 376.322 205.238 376.206C204.68 375.504 204.047 375.032 203.34 374.766C202.626 374.497 201.808 374.426 200.871 374.577L204.197 378.753ZM204.197 378.753L204.187 378.757M204.197 378.753L204.187 378.757M204.187 378.757C202.83 379.185 201.843 379.148 201.145 378.781M204.187 378.757L201.145 378.781M201.145 378.781C200.458 378.42 199.931 377.675 199.638 376.401M201.145 378.781L199.638 376.401M199.638 376.401C199.505 375.778 199.582 375.386 199.75 375.138C199.918 374.891 200.249 374.677 200.871 374.577L199.638 376.401Z" fill="white" stroke="black"/>
</svg>
