<svg width="512" height="512" viewBox="0 0 512 512" fill="none" xmlns="http://www.w3.org/2000/svg">
<rect width="512" height="512" fill="white"/>
<path d="M158.296 319.622C156.197 327.43 152.972 334.756 148.622 341.597L148.621 341.598C146.428 345.029 144.937 348.027 144.129 350.597L144.129 350.598C143.874 351.403 143.725 351.999 143.669 352.401C143.971 352.13 144.381 351.674 144.904 351.014L173.406 314.903L173.408 314.9C173.498 314.788 173.644 314.674 173.85 314.653C174.044 314.634 174.201 314.707 174.301 314.774L174.317 314.784L174.332 314.796L174.838 315.193C174.84 315.194 174.842 315.196 174.845 315.197C175.044 315.346 175.224 315.554 175.284 315.835C175.345 316.124 175.258 316.39 175.122 316.605L175.121 316.606C173.623 318.967 172.095 321.331 170.562 323.703C161.222 338.156 151.668 352.939 147.106 369.492L147.105 369.497C147.074 369.604 147.066 369.717 147.081 369.829C147.096 369.94 147.134 370.047 147.193 370.142C147.252 370.237 147.33 370.319 147.423 370.383C147.515 370.447 147.62 370.49 147.73 370.511L147.738 370.512C148.181 370.604 148.552 370.546 148.879 370.363C149.216 370.175 149.548 369.829 149.857 369.273L149.858 369.271C157.993 354.79 167.392 341.189 178.053 328.467C184.787 320.428 191.424 312.33 197.963 304.171C198.063 304.034 198.23 303.882 198.477 303.853C198.72 303.824 198.916 303.928 199.044 304.028L199.508 304.359L199.514 304.364L199.521 304.369C199.806 304.587 200.036 304.873 200.098 305.239C200.161 305.609 200.034 305.952 199.83 306.245C199.416 306.843 199.003 307.44 198.59 308.037C186.279 325.82 174.372 343.02 165.725 363.094C165.429 363.784 165.471 364.154 165.586 364.343C165.702 364.534 166.015 364.744 166.771 364.808L166.773 364.808C167.193 364.845 167.696 364.685 168.298 364.206C168.901 363.726 169.561 362.96 170.274 361.879L170.275 361.878C186.172 337.897 204.151 315.643 224.21 295.118L224.21 295.118C230.182 289.016 237.06 283.708 243.901 278.427C245.374 277.291 246.845 276.155 248.305 275.014L248.305 275.014C270.468 257.698 295.285 243.093 320.054 229.268L320.055 229.267C320.755 228.878 321.392 228.618 321.957 228.516C322.526 228.412 323.065 228.461 323.512 228.749C323.959 229.037 324.226 229.508 324.366 230.068C324.506 230.625 324.532 231.312 324.466 232.109L324.466 232.11C324.233 234.907 323.796 237.62 323.351 240.279C323.31 240.52 323.27 240.761 323.23 241.001C322.824 243.415 322.425 245.786 322.174 248.162C321.622 253.376 321.782 258.579 324.135 264.159C324.534 265.1 325.181 265.915 326.008 266.516C326.835 267.117 327.81 267.482 328.829 267.57C329.559 267.633 330.238 267.704 330.886 267.772C331.654 267.852 332.379 267.928 333.094 267.981C334.387 268.078 335.543 268.091 336.62 267.913C338.73 267.562 340.623 266.46 342.6 263.533L342.6 263.533C349.917 252.707 356.807 241.618 363.27 230.267C367.117 223.491 371.056 216.766 374.994 210.044C384.993 192.974 394.984 175.918 403.44 158.053L403.44 158.053C405.777 153.125 405.936 149.695 404.861 147.296C403.786 144.896 401.407 143.371 398.295 142.42C395.189 141.47 391.447 141.12 387.796 141.002C385.552 140.93 383.387 140.944 381.429 140.958C380.181 140.966 379.017 140.974 377.971 140.958C319.397 140.118 281.797 140.434 265.137 141.902C260.966 142.271 258.039 143.586 256.249 145.768C254.458 147.951 253.726 151.095 254.153 155.29C254.218 155.905 254.451 156.427 254.858 156.872L254.861 156.875C263.57 166.569 273.733 174.321 285.354 180.131L285.359 180.134C285.632 180.274 285.859 180.49 286.013 180.755C286.167 181.021 286.242 181.325 286.228 181.632C286.214 181.938 286.113 182.235 285.935 182.485C285.758 182.736 285.513 182.93 285.228 183.046L285.223 183.048C245.658 198.52 209.115 219.366 175.593 245.588L175.592 245.588C170.131 249.852 164.968 254.446 160.106 259.369L160.105 259.369C139.857 279.82 120.762 302.088 107.671 327.843C106.82 329.531 106.437 331.21 106.508 332.886C106.511 332.944 106.53 332.999 106.562 333.047C106.595 333.094 106.64 333.132 106.693 333.155C106.746 333.178 106.804 333.187 106.862 333.179C106.919 333.17 106.973 333.147 107.017 333.11L107.021 333.106C109.67 330.945 112.03 328.243 114.155 325.562C115.084 324.391 115.979 323.209 116.832 322.082C117.908 320.66 118.92 319.324 119.853 318.202C120.171 317.82 120.489 317.438 120.807 317.055C131.394 304.32 142.277 291.228 154.998 280.941C155.613 280.44 156.105 280.067 156.465 279.833C156.642 279.718 156.809 279.622 156.956 279.564C157.028 279.536 157.125 279.505 157.232 279.498C157.336 279.492 157.53 279.505 157.689 279.664C157.846 279.821 157.86 280.014 157.855 280.116C157.85 280.222 157.82 280.318 157.793 280.39C157.738 280.539 157.645 280.708 157.533 280.888C157.306 281.254 156.942 281.754 156.451 282.38L156.451 282.381C152.035 287.998 147.154 294.035 141.809 300.492L141.808 300.492C133.863 310.066 125.569 324.175 116.932 342.844L116.931 342.846C116.82 343.083 116.794 343.35 116.857 343.604C116.919 343.856 117.065 344.079 117.271 344.237C117.272 344.238 117.274 344.239 117.276 344.24L117.828 344.638L117.831 344.64C117.847 344.652 117.866 344.66 117.886 344.665C117.906 344.67 117.926 344.67 117.947 344.667C117.967 344.664 117.986 344.656 118.003 344.645C118.02 344.634 118.035 344.62 118.047 344.603C119.459 342.546 120.852 340.508 122.234 338.488C138.265 315.041 152.687 293.947 175.827 273.776C175.936 273.675 176.08 273.619 176.23 273.619C176.388 273.619 176.539 273.681 176.651 273.793C176.763 273.905 176.826 274.057 176.826 274.214C176.826 274.36 176.772 274.5 176.676 274.609C169.179 283.83 161.877 293.202 154.77 302.724L154.77 302.724C146.528 313.758 141.489 321.796 139.595 326.869L139.595 326.87C136.233 335.847 132.548 345.483 128.54 355.78M158.296 319.622C158.296 319.622 158.296 319.623 158.296 319.623L157.814 319.49L158.296 319.62C158.296 319.62 158.296 319.621 158.296 319.622ZM158.296 319.622C158.359 319.393 158.403 319.181 158.412 319.002C158.416 318.914 158.413 318.804 158.381 318.693C158.349 318.58 158.272 318.421 158.097 318.32C157.922 318.219 157.745 318.233 157.631 318.261C157.519 318.29 157.423 318.342 157.348 318.39C157.198 318.488 157.036 318.633 156.871 318.803L156.868 318.805C154.147 321.629 151.842 324.833 149.674 328.05C149.056 328.967 148.45 329.884 147.848 330.794C146.333 333.086 144.847 335.332 143.275 337.426L143.274 337.427C139.329 342.702 135.999 348.684 133.283 355.369M133.283 355.369C133.035 355.976 132.6 356.489 132.038 356.834C131.478 357.178 130.822 357.338 130.164 357.288L130.169 357.289L130.121 357.787M133.283 355.369L133.746 355.558M133.283 355.369C133.283 355.369 133.283 355.369 133.283 355.369L133.746 355.558M130.121 357.787L130.159 357.288L129.472 357.221L129.464 357.221C129.298 357.207 129.138 357.156 128.996 357.07C128.854 356.984 128.733 356.867 128.644 356.727C128.555 356.587 128.499 356.428 128.481 356.263C128.464 356.1 128.484 355.934 128.54 355.78M130.121 357.787C130.886 357.845 131.649 357.66 132.3 357.26C132.952 356.859 133.458 356.263 133.746 355.558M130.121 357.787L129.423 357.719M128.54 355.78C128.54 355.781 128.539 355.783 128.539 355.784L128.073 355.603M128.54 355.78C128.541 355.778 128.541 355.777 128.542 355.776L128.073 355.603M128.073 355.603C127.988 355.831 127.958 356.075 127.984 356.317C128.01 356.559 128.092 356.791 128.223 356.996C128.354 357.201 128.53 357.373 128.738 357.498C128.947 357.624 129.181 357.699 129.423 357.719M128.073 355.603C132.08 345.306 135.765 335.67 139.127 326.695C141.048 321.546 146.129 313.456 154.369 302.424C161.115 293.387 168.036 284.485 175.133 275.717L129.423 357.719M129.423 357.719L133.746 355.558M254.489 157.209C263.239 166.95 273.453 174.74 285.131 180.578C285.318 180.675 285.475 180.823 285.581 181.006C285.687 181.189 285.738 181.398 285.728 181.609C285.719 181.82 285.649 182.024 285.527 182.197C285.405 182.369 285.236 182.503 285.04 182.582C245.431 198.072 208.845 218.942 175.284 245.194C169.806 249.471 164.628 254.079 159.75 259.017C139.487 279.483 120.35 301.794 107.225 327.618L254.489 157.209ZM254.489 157.209C254.009 156.684 253.731 156.061 253.656 155.34C252.785 146.8 256.598 142.155 265.093 141.404C281.783 139.933 319.412 139.618 377.978 140.458L254.489 157.209ZM145.296 351.325C143.164 354.012 142.617 353.719 143.652 350.447L173.799 315.212L145.296 351.325ZM143.326 352.65C143.326 352.649 143.329 352.648 143.333 352.647C143.328 352.649 143.326 352.65 143.326 352.65ZM143.653 352.818C143.655 352.821 143.655 352.824 143.655 352.824C143.655 352.825 143.655 352.823 143.653 352.818ZM166.729 365.306L166.729 365.306L166.729 365.306Z" fill="white" stroke="black"/>
<path d="M388.854 152.161L388.852 152.161C386.5 152.169 384.171 152.159 382.004 152.132C379.837 152.105 377.875 152.06 376.235 152.002C374.593 151.943 373.314 151.872 372.467 151.792C372.133 151.761 371.88 151.729 371.703 151.699V151.536C371.703 151.536 371.703 151.536 371.704 151.536C371.93 151.496 372.266 151.455 372.713 151.414C373.605 151.333 374.897 151.256 376.543 151.189C379.833 151.055 384.251 150.971 388.854 150.955H388.984V152.161L388.854 152.161Z" fill="black" stroke="black"/>
<path d="M287.638 170.001L287.638 170L287.776 169.823L287.638 170.001ZM287.638 170.001C287.629 170.012 287.618 170.021 287.606 170.028C287.594 170.035 287.58 170.04 287.566 170.041C287.552 170.043 287.538 170.042 287.524 170.038C287.51 170.034 287.498 170.028 287.487 170.019C287.487 170.019 287.487 170.019 287.486 170.019L272.371 158.21L287.638 170.001ZM272.491 157.881L272.491 157.881L272.352 158.058C272.335 158.081 272.327 158.109 272.33 158.138C272.334 158.166 272.349 158.192 272.371 158.21L272.491 157.881ZM272.491 157.881C272.5 157.869 272.511 157.86 272.523 157.853M272.491 157.881L272.523 157.853M272.523 157.853C272.535 157.846 272.549 157.842 272.563 157.84M272.523 157.853L272.563 157.84M272.563 157.84C272.577 157.838 272.591 157.839 272.605 157.843M272.563 157.84L272.605 157.843M272.605 157.843C272.619 157.847 272.631 157.853 272.642 157.862M272.605 157.843L272.642 157.862M272.642 157.862C272.642 157.862 272.642 157.862 272.643 157.862M272.642 157.862L272.643 157.862M272.643 157.862L287.758 169.672C287.78 169.69 287.795 169.715 287.799 169.744C287.802 169.772 287.794 169.801 287.777 169.823L272.643 157.862Z" fill="black" stroke="black"/>
<path d="M334.89 250.723L334.89 250.723L363.995 200.715C363.995 200.715 363.995 200.715 363.995 200.715C364.007 200.696 364.025 200.681 364.047 200.676C364.069 200.67 364.092 200.673 364.112 200.684L364.112 200.684L365.202 201.319C365.221 201.33 365.235 201.349 365.241 201.371C365.247 201.393 365.244 201.416 365.232 201.435L365.232 201.435L336.127 251.443C336.116 251.463 336.097 251.477 336.075 251.483C336.053 251.489 336.03 251.486 336.01 251.474L335.759 251.906L336.01 251.474L334.921 250.84C334.901 250.829 334.887 250.81 334.881 250.788C334.875 250.766 334.879 250.743 334.89 250.723Z" fill="black" stroke="black"/>
</svg>
