<svg width="512" height="512" viewBox="0 0 512 512" fill="none" xmlns="http://www.w3.org/2000/svg">
<rect width="512" height="512" fill="white"/>
<path d="M253.097 303.324C253.208 303.386 253.335 303.413 253.461 303.401C253.587 303.39 253.708 303.341 253.806 303.26C253.903 303.179 253.974 303.071 254.009 302.949C254.044 302.827 254.041 302.697 254.001 302.577L244.684 276.784C244.422 276.077 243.936 275.592 243.228 275.33C226.663 269.668 210.648 261.765 195.183 251.621C179.18 241.123 154.607 217.729 151.422 199.446C149.731 189.853 152.955 177.468 164.082 176.878C193.256 175.344 211.146 198.306 228.052 219.852C228.472 220.376 228.982 220.599 229.585 220.521C230.712 220.363 231.066 219.76 230.647 218.712C218.812 189.774 207.646 169.801 209.337 136.538C210.988 103.865 231.394 91.8336 245.903 128.596C256.007 154.152 253.805 186.55 246.099 212.5C245.72 213.79 245.847 215.168 246.453 216.353C250.332 224.138 252.429 232.395 252.744 241.123C252.821 242.99 253.609 244.751 254.945 246.038L256.322 247.375C256.478 247.535 256.679 247.643 256.898 247.686C257.118 247.729 257.345 247.704 257.55 247.614C257.755 247.525 257.928 247.375 258.046 247.184C258.163 246.994 258.22 246.772 258.209 246.549C257.383 213.09 259.585 170.43 289.781 156.039C315.298 143.851 315.888 176.839 312.428 190.954C304.879 222.133 285.653 251.464 266.19 275.683C265.325 276.758 265.077 277.964 265.444 279.301C269.087 293.35 273.87 307.02 279.794 320.309C280 320.774 280.325 321.18 280.738 321.489C283.385 323.376 284.709 322.996 284.709 320.348C284.578 283.888 298.759 254.74 327.251 232.906C331.419 229.708 338.26 227.834 347.775 227.283C348.994 227.207 350.206 227.569 351.196 228.305C355.678 231.569 360.002 234.911 360.317 241.005C362.165 280.795 317.657 319.208 291.786 341.659C291.316 342.063 290.995 342.615 290.874 343.227C290.753 343.839 290.84 344.477 291.118 345.04C299.506 362.392 309.702 378.578 321.707 393.597C323.49 395.799 323.188 397.66 320.802 399.18L311.248 405.314C310.329 405.911 309.213 406.13 308.131 405.925C307.048 405.72 306.081 405.108 305.429 404.213C291.642 385.21 279.624 365.118 269.375 343.939C268.995 343.157 268.386 342.513 267.631 342.097C266.877 341.681 266.015 341.514 265.168 341.619C232.534 345.368 202.129 340.073 173.951 325.735C162.746 320.034 140.767 302.813 156.887 289.484C170.294 278.357 201.355 281.227 217.083 285.788C226.86 288.593 238.864 294.438 253.097 303.324Z" fill="black"/>
</svg>
