<svg width="512" height="512" viewBox="0 0 512 512" fill="none" xmlns="http://www.w3.org/2000/svg">
<rect width="512" height="512" fill="white"/>
<path d="M274.583 113.518C260.435 125.942 249.29 143.965 246.713 162.875C244.289 180.75 245.507 197.232 250.365 212.319C263.541 253.297 278.765 290.076 262.551 331.14C262.527 331.193 262.489 331.24 262.443 331.275C262.396 331.311 262.342 331.334 262.285 331.343C262.229 331.351 262.172 331.345 262.12 331.324C262.067 331.304 262.022 331.27 261.988 331.225C261.897 331.089 261.8 330.963 261.698 330.85C261.618 330.747 261.59 330.633 261.612 330.508C266.067 307.604 267.313 287.004 261.766 263.913C256.219 240.753 243.59 214.401 240.603 188.852C237.48 162.073 246.474 135.824 265.862 117.358C271.21 112.26 276.825 108.665 282.707 106.571C285.563 105.547 285.751 105.9 283.271 107.629C280.591 109.507 277.212 111.231 274.583 113.518Z" fill="black"/>
<path d="M259.667 350.016C266.346 345.897 273.457 342.688 281.001 340.39C281.031 340.377 281.065 340.373 281.097 340.38C281.129 340.388 281.159 340.405 281.182 340.43C281.206 340.455 281.222 340.487 281.229 340.523C281.236 340.558 281.234 340.595 281.223 340.629L255.281 405.091C254.791 406.309 254.308 406.303 253.83 405.074L229.219 340.919C229.128 340.657 229.214 340.572 229.475 340.663C237.172 343.36 243.931 345.561 250.894 350.016C251.361 350.323 251.6 350.198 251.611 349.64C251.93 334.871 252.192 320.114 252.396 305.368C252.704 283.369 246.901 267.667 239.374 247.613C235.244 236.605 228.793 223.839 227.291 210.253C226.881 206.567 227.279 206.476 228.485 209.98C237.002 234.711 251.099 256.744 255.844 282.754C259.786 304.447 258.421 327.504 258.779 349.521C258.791 350.203 259.087 350.368 259.667 350.016Z" fill="black"/>
<path d="M237.804 159.513C230.516 193.135 244.75 222.32 255.059 252.819C259.792 266.848 261.613 281.241 260.52 295.999C260.509 296.078 260.463 296.124 260.384 296.135C259.303 296.329 259.235 296.334 260.179 296.152C260.202 296.141 260.219 296.118 260.23 296.084C260.998 265.807 244.887 240.838 235.466 209.434C230.448 192.709 230.744 176.097 236.353 159.599C236.413 159.426 236.534 159.283 236.693 159.197C236.851 159.111 237.035 159.09 237.207 159.138L237.65 159.257C237.787 159.291 237.838 159.377 237.804 159.513Z" fill="black"/>
<path d="M248.881 327.726C248.875 327.816 248.85 327.903 248.808 327.983C248.766 328.062 248.707 328.132 248.636 328.186C248.565 328.241 248.483 328.281 248.396 328.301C248.309 328.322 248.218 328.324 248.13 328.307L247.549 328.187C247.367 328.153 247.276 328.045 247.276 327.863C247.003 320.615 245.734 313.532 243.47 306.614C240.774 298.371 238.094 297.398 233.008 292.961C232.693 292.688 232.483 292.314 232.418 291.905C232.352 291.495 232.434 291.077 232.65 290.725C234.959 286.902 238.191 286.174 242.344 288.54C248.659 292.124 249.444 317.725 248.881 327.726Z" fill="black"/>
</svg>
