<svg width="512" height="512" viewBox="0 0 512 512" fill="none" xmlns="http://www.w3.org/2000/svg">
<rect width="512" height="512" fill="white"/>
<path d="M255.984 179.777C254.612 178.192 252.894 174.023 252.014 172.012C249.231 165.605 256.383 161.449 260.473 165.778C263.643 169.135 258.435 176.221 256.703 179.684C256.508 180.075 256.268 180.106 255.984 179.777Z" fill="black"/>
<path d="M259.487 215.701C269.024 199.637 286.593 186.17 306.254 190.539C317.456 193.017 323.13 202.687 324.262 213.889C325.852 229.633 319.995 241.621 306.693 249.853C303.301 251.958 302.906 251.496 305.508 248.468C313.779 238.811 320.319 222.96 305.428 215.434C299.256 212.317 293.493 213.17 288.138 217.992C287.854 218.249 287.619 218.209 287.432 217.872C287.255 217.552 287.277 217.241 287.499 216.939C294.705 206.776 308.784 204.272 317.256 214.662C317.576 215.053 317.695 214.995 317.616 214.489C317.438 213.299 317.149 212.384 316.75 211.745C311.209 202.86 299.38 193.736 288.178 195.748C277.469 197.679 258.595 213.37 256.81 224.385C256.677 225.185 256.397 225.238 255.971 224.545C253.467 220.429 253.76 215.581 252.294 211.865C250.652 207.682 248.481 203.828 245.781 200.303C245.714 200.22 245.672 200.12 245.663 200.013C245.653 199.907 245.676 199.801 245.727 199.708C245.779 199.614 245.857 199.539 245.952 199.491C246.048 199.442 246.155 199.424 246.261 199.437C250.936 199.93 252.747 205.378 253.893 210.066C253.973 210.377 254.173 210.506 254.492 210.453L254.825 210.386C254.932 210.368 254.976 210.306 254.958 210.2C254.497 207.056 254.199 203.886 254.066 200.689C253.88 196.374 248.485 192.844 245.328 190.606C230.064 179.764 249.324 168.228 253.693 182.334C255.331 187.649 254.119 190.966 253.587 195.934C253.562 196.148 253.582 196.365 253.646 196.572C253.71 196.778 253.817 196.969 253.959 197.133C256.943 200.489 255.944 204.539 256.357 208.668C256.508 210.124 256.197 211.443 255.425 212.624C255.176 213.006 255.069 213.419 255.105 213.863C255.327 216.385 255.349 218.906 255.172 221.428C255.163 221.553 255.22 221.61 255.345 221.601L255.704 221.562C255.802 221.553 255.869 221.499 255.904 221.402C256.819 218.463 257.178 215.448 256.983 212.357C256.956 211.967 257.072 211.62 257.329 211.318C257.773 210.786 257.818 210.262 257.463 209.747C257.223 209.392 257.094 209.001 257.076 208.575C257.005 205.396 257.356 202.279 258.129 199.224C259.94 192.164 254.812 180.603 263.27 176.447C270.743 172.784 276.59 181.575 271.142 187.369C265.268 193.59 257.503 195.428 258.728 206.244C258.826 207.105 259.083 207.154 259.501 206.39L262.058 201.648C262.591 200.663 263.412 200.103 264.522 199.97L265.495 199.85C265.636 199.834 265.778 199.858 265.907 199.918C266.036 199.978 266.145 200.073 266.224 200.191C266.302 200.309 266.347 200.447 266.352 200.589C266.357 200.731 266.323 200.872 266.254 200.996C263.483 205.764 260.207 210.24 259.088 215.541C258.91 216.385 259.043 216.438 259.487 215.701Z" fill="black"/>
<path d="M194.365 215.302C201.185 204.885 215.904 206.657 223.562 215.049C223.864 215.386 224.078 215.794 224.202 216.274C224.317 216.745 224.166 216.856 223.749 216.607C217.373 212.824 211.046 212.784 204.768 216.487C193.539 223.12 196.723 238.119 203.929 246.337C205.643 248.3 206.837 249.623 207.512 250.306C210.105 252.935 209.79 253.348 206.566 251.545C197.495 246.444 189.45 236.56 187.372 226.33C180.979 194.829 212.44 179.085 236.39 197.226C241.984 201.476 249.456 208.362 251.774 215.168C252.502 217.335 252.223 217.473 250.935 215.581C247.809 211.008 243.831 206.777 239 202.887C232.86 197.972 222.111 192.991 214.358 196.574C206.993 199.97 195.271 205.924 194.085 215.195C194.023 215.639 194.117 215.675 194.365 215.302Z" fill="black"/>
<path d="M115.379 200.929C115.379 202.098 114.914 203.22 114.087 204.046C113.261 204.873 112.139 205.338 110.97 205.338C109.801 205.338 108.679 204.873 107.852 204.046C107.026 203.22 106.561 202.098 106.561 200.929C106.561 199.76 107.026 198.638 107.852 197.811C108.679 196.985 109.801 196.52 110.97 196.52C112.139 196.52 113.261 196.985 114.087 197.811C114.914 198.638 115.379 199.76 115.379 200.929Z" fill="black"/>
<path d="M256.53 235.947C256.565 235.939 256.601 235.925 256.637 235.907C256.716 235.881 256.761 235.823 256.77 235.734C258.448 217.713 272.301 204.1 289.47 200.17C289.923 200.064 290.225 199.793 290.376 199.358C291.828 195.189 298.088 196.987 297.542 201.276C297.491 201.665 297.358 202.039 297.15 202.372C296.943 202.705 296.666 202.99 296.339 203.207C296.012 203.424 295.642 203.569 295.255 203.631C294.867 203.693 294.471 203.671 294.092 203.567C290.949 202.705 287.85 202.879 284.795 204.086C272.927 208.748 262.91 220.11 259.341 232.711C258.497 235.677 257.853 241.791 257.409 251.052C257.399 251.268 257.309 251.473 257.156 251.625C257.004 251.778 256.799 251.868 256.583 251.878L256.157 251.905C255.891 251.922 255.766 251.798 255.784 251.532C256.503 241 254.585 231.694 250.03 223.613C249.044 221.864 246.527 218.569 242.477 213.73C237.389 207.638 230.503 203.882 221.818 202.461C221.392 202.39 221.001 202.479 220.646 202.728C217.516 204.952 212.721 202.221 215.625 198.811C217.063 197.115 218.697 196.663 220.526 197.453C220.96 197.644 221.323 197.965 221.565 198.372L222.165 199.424C222.413 199.842 222.773 200.095 223.243 200.183C240.32 203.434 253.999 218.565 256.264 235.694C256.268 235.732 256.279 235.768 256.295 235.801C256.31 235.834 256.332 235.863 256.356 235.887C256.381 235.91 256.409 235.928 256.439 235.938C256.469 235.949 256.5 235.952 256.53 235.947Z" fill="black"/>
<path d="M404.651 199.967C404.933 201.051 404.75 202.208 404.142 203.185C403.534 204.162 402.552 204.877 401.41 205.175C400.268 205.472 399.061 205.327 398.054 204.771C397.047 204.215 396.323 203.294 396.04 202.21C395.758 201.126 395.941 199.969 396.549 198.993C397.156 198.016 398.139 197.3 399.281 197.003C400.423 196.705 401.63 196.851 402.637 197.407C403.644 197.963 404.368 198.884 404.651 199.967Z" fill="black"/>
<path d="M181.299 232.098C182.018 232.879 181.876 233.092 180.873 232.737C179.807 232.355 178.648 231.516 177.396 230.22C173.014 225.677 165.835 218.644 166.993 211.611C167.659 207.576 171.482 206.417 174.906 208.468C175.172 208.627 175.389 208.859 175.53 209.137C175.672 209.415 175.732 209.728 175.705 210.04C174.945 218.778 174.905 225.078 181.299 232.098Z" fill="black"/>
<path d="M330.428 232.325C334.566 225.753 336.347 218.756 335.77 211.332C335.733 210.856 335.812 210.378 336 209.939C336.188 209.501 336.479 209.115 336.849 208.815C341.99 204.672 345.347 209.494 344.041 214.649C342.27 221.615 336.649 226.424 332.213 231.739C331.583 232.493 330.815 233.004 329.909 233.27C329.563 233.368 329.505 233.275 329.736 232.991C329.86 232.84 329.998 232.706 330.149 232.591C330.273 232.511 330.366 232.422 330.428 232.325Z" fill="black"/>
<path d="M324.661 236.454C329.536 227.396 330.069 220.057 330.482 210.68C330.488 210.532 330.53 210.388 330.603 210.261C330.677 210.133 330.78 210.024 330.904 209.945C331.028 209.865 331.169 209.816 331.316 209.803C331.463 209.789 331.611 209.811 331.747 209.867C332.218 210.054 332.635 210.395 333 210.893C333.275 211.266 333.466 211.758 333.572 212.371C335.091 220.883 331.894 231.245 324.794 236.573C324.777 236.584 324.757 236.589 324.737 236.587C324.717 236.585 324.698 236.577 324.683 236.564C324.668 236.55 324.657 236.532 324.654 236.512C324.65 236.492 324.652 236.472 324.661 236.454Z" fill="black"/>
<path d="M181.099 211.545C180.673 221.389 181.992 228.861 186.867 236.387C187.701 237.666 187.55 237.794 186.414 236.773C179.594 230.699 174.692 221.042 177.769 211.785C178.062 210.866 178.941 210.24 179.86 210.24C180.028 210.242 180.194 210.277 180.348 210.344C180.502 210.411 180.641 210.508 180.756 210.63C180.872 210.752 180.962 210.895 181.021 211.053C181.08 211.21 181.106 211.377 181.099 211.545Z" fill="black"/>
<path d="M248.058 230.486C243.876 225.198 237.176 224.319 231.076 224.479C230.722 224.486 230.374 224.39 230.074 224.203C229.775 224.015 229.537 223.744 229.389 223.422C229.242 223.101 229.192 222.743 229.245 222.393C229.299 222.044 229.454 221.718 229.69 221.455C239.6 210.559 249.164 224.878 251.455 233.256C251.855 234.73 251.575 234.873 250.616 233.683C249.994 232.919 249.142 231.853 248.058 230.486Z" fill="black"/>
<path d="M262.351 235.095C262.332 235.146 262.303 235.192 262.265 235.232C262.228 235.271 262.184 235.303 262.134 235.325C262.085 235.348 262.031 235.36 261.977 235.361C261.923 235.363 261.869 235.354 261.818 235.335L261.259 235.135C261.054 235.055 260.979 234.908 261.032 234.695C262.95 227.463 267.998 217.1 276.523 217.526C278.752 217.632 280.479 218.618 281.705 220.483L282.277 221.349C283.494 223.196 283.001 224.248 280.799 224.506C277.749 224.865 274.259 224.705 271.582 225.678C267.222 227.267 264.145 230.406 262.351 235.095Z" fill="black"/>
<path d="M190.836 244.472C187.519 240.716 177.356 236.813 174.985 236.507C170.874 235.965 166.785 235.295 162.717 234.496C152.035 232.391 165.954 215.635 175.278 230.113C176.379 231.818 177.516 233.088 178.688 233.923C184.922 238.345 191.036 243.673 197.656 247.443C199.84 248.681 201.971 250.36 204.103 251.345C207.885 253.095 211.708 254.471 215.571 255.475C216.086 255.608 216.126 255.523 215.691 255.221C207.726 249.614 199.68 241.435 201.225 230.993C202.358 223.334 213.799 221.162 218.102 227.836C220.446 231.459 217.049 236.6 215.478 239.957C213.054 245.112 215.012 250.44 217.303 255.648C217.471 256.038 217.751 256.323 218.142 256.5C233.619 263.533 245.821 268.675 253.799 284.885C253.826 284.938 253.817 284.974 253.773 284.992L253.413 285.191C253.336 285.231 253.246 285.242 253.161 285.22C253.075 285.198 252.999 285.145 252.947 285.071C234.738 259.071 204.302 258.325 175.252 256.82C175.056 256.811 175.047 256.767 175.225 256.687C183.217 253.184 189.251 252.997 197.842 253.09C197.958 253.09 198.02 253.033 198.029 252.917C198.038 252.802 197.984 252.739 197.869 252.731C192.106 251.949 188.136 251.683 185.961 251.931C177.116 252.957 170.177 253.81 164.036 250.253C163.095 249.711 163.108 249.197 164.076 248.708C165.941 247.758 167.841 246.897 169.777 246.124C174.559 244.219 180.5 244.712 185.601 244.872C185.734 244.881 185.805 244.819 185.814 244.685V244.672C185.823 244.548 185.761 244.477 185.628 244.459C180.593 243.926 174.839 243.274 170.043 244.339C166.674 245.085 163.25 246.83 159.867 247.882C159.763 247.914 159.652 247.915 159.547 247.883C159.443 247.852 159.351 247.79 159.282 247.705C159.213 247.621 159.171 247.518 159.162 247.409C159.152 247.301 159.175 247.192 159.228 247.096C166.287 235.082 180.979 239.943 190.623 244.739C191.156 245.005 191.227 244.916 190.836 244.472Z" fill="black"/>
<path d="M295.491 253.676C295.997 250.027 297.569 247.962 297.142 243.3C296.823 239.757 292.827 235.548 292.814 231.645C292.787 220.39 314.045 221.096 310.303 237.146C308.509 244.818 303.873 250.542 296.397 254.316C295.677 254.68 295.375 254.467 295.491 253.676Z" fill="black"/>
<path d="M322.025 241.248C321.9 241.311 321.812 241.28 321.758 241.155H321.745C321.692 241.031 321.723 240.938 321.838 240.876C327.699 237.705 333.191 233.363 338.315 227.849C341.219 224.732 346.227 223.24 350.036 225.837C353.833 228.435 352.341 233.416 348.305 234.535C346.644 234.997 342.586 235.681 336.13 236.586C332.037 237.155 327.335 238.709 322.025 241.248Z" fill="black"/>
<path d="M251.375 243.3C247.432 236.214 238.348 239.89 233.26 239.331C228.251 238.771 227.279 232.218 231.941 230.086C238.237 227.227 243.507 228.346 247.752 233.443C248.72 234.606 250.238 237.603 252.307 242.434C252.369 242.578 252.375 242.74 252.323 242.888C252.271 243.036 252.166 243.159 252.027 243.233L251.694 243.406C251.561 243.477 251.455 243.442 251.375 243.3Z" fill="black"/>
<path d="M263.589 243.393C265.907 242.505 267.883 242.922 269.517 244.645C269.96 245.119 270.199 245.748 270.181 246.396C270.164 247.044 269.892 247.66 269.423 248.108L263.403 253.902C263.232 254.067 263.005 254.157 262.77 254.155C262.535 254.152 262.313 254.057 262.151 253.889C260.908 252.619 260.321 250.87 260.392 248.641C260.619 240.742 264.282 231.205 272.527 229.061C276.723 227.969 282.783 229.287 284.701 233.816C284.872 234.225 284.877 234.68 284.715 235.081C280.599 245.351 265.867 233.563 262.843 242.687C262.812 242.789 262.81 242.898 262.837 243.002C262.864 243.105 262.919 243.198 262.997 243.272C263.075 243.345 263.171 243.396 263.276 243.417C263.38 243.438 263.489 243.43 263.589 243.393Z" fill="black"/>
<path d="M228.025 243.047C228.025 244.011 227.642 244.936 226.96 245.618C226.278 246.3 225.353 246.683 224.389 246.683C223.424 246.683 222.499 246.3 221.818 245.618C221.136 244.936 220.752 244.011 220.752 243.047C220.752 242.569 220.847 242.097 221.029 241.655C221.212 241.214 221.48 240.813 221.818 240.476C222.155 240.138 222.556 239.87 222.997 239.687C223.438 239.505 223.911 239.411 224.389 239.411C224.866 239.411 225.339 239.505 225.78 239.687C226.222 239.87 226.622 240.138 226.96 240.476C227.298 240.813 227.566 241.214 227.748 241.655C227.931 242.097 228.025 242.569 228.025 243.047Z" fill="black"/>
<path d="M325.114 244.392C324.964 244.41 324.897 244.494 324.915 244.645V244.658C324.924 244.8 324.999 244.871 325.141 244.871C333.293 244.845 339.433 244.392 346.693 248.761C346.799 248.822 346.886 248.912 346.944 249.021C347.003 249.129 347.03 249.251 347.023 249.374C347.016 249.497 346.976 249.615 346.905 249.716C346.835 249.817 346.739 249.897 346.626 249.946C335.238 255.114 324.555 250.159 312.74 252.57C310.005 253.13 310.023 253.298 312.794 253.076C319.041 252.57 328.032 253.436 333.826 256.26C334.598 256.633 334.558 256.837 333.706 256.873C308.078 257.978 277.456 259.217 260.38 282.114C260.184 282.38 259.949 282.425 259.674 282.247L259.394 282.074C259.305 282.012 259.283 281.936 259.327 281.848C268.292 265.064 285.767 259.736 302.79 252.557C315.697 247.109 338.261 230.366 351.248 245.537C351.405 245.723 351.504 245.951 351.533 246.193C351.561 246.434 351.518 246.679 351.408 246.896C351.044 247.588 350.405 247.704 349.49 247.242C341.738 243.339 334.532 243.007 325.114 244.392Z" fill="black"/>
<path d="M291.824 242.083C292.089 242.94 291.975 243.877 291.506 244.686C291.037 245.495 290.253 246.111 289.325 246.398C288.397 246.686 287.401 246.621 286.558 246.218C285.714 245.815 285.091 245.107 284.825 244.25C284.56 243.393 284.674 242.456 285.143 241.647C285.611 240.838 286.396 240.222 287.324 239.935C288.252 239.647 289.247 239.712 290.091 240.115C290.935 240.518 291.558 241.226 291.824 242.083Z" fill="black"/>
<path d="M146.001 241.675C143.843 246.936 146.014 251.332 149.091 255.9C149.686 256.797 149.522 256.97 148.599 256.42C144.434 253.942 142.631 250.111 143.191 244.925C143.377 243.273 144.034 241.981 145.162 241.049C146.272 240.134 146.552 240.343 146.001 241.675Z" fill="black"/>
<path d="M362.89 256.007C365.78 251.705 367.658 246.657 365.953 241.742C365.793 241.298 365.949 241.071 366.419 241.062C366.659 241.053 366.859 241.169 367.019 241.409C368.173 243.087 368.559 245.045 368.178 247.283C367.6 250.701 366.193 253.849 363.955 256.726C363.897 256.799 363.814 256.846 363.722 256.859C363.63 256.871 363.537 256.848 363.462 256.793L362.983 256.473C362.796 256.349 362.765 256.194 362.89 256.007Z" fill="black"/>
<path d="M251.481 244.179L251.908 244.139C251.988 244.13 252.045 244.165 252.081 244.245C253.453 247.535 253.746 252.477 249.563 253.436C249.388 253.473 249.207 253.467 249.037 253.418C248.867 253.37 248.714 253.28 248.591 253.156L242.744 247.376C242.396 247.03 242.197 246.562 242.189 246.072C242.182 245.581 242.366 245.108 242.704 244.752C245.101 242.239 247.752 241.977 250.656 243.966C250.904 244.134 251.18 244.206 251.481 244.179Z" fill="black"/>
<path d="M224.815 249.081C243.277 238.158 255.811 270.3 256.383 282.913C256.472 284.805 256.188 284.863 255.531 283.087C252.427 274.655 248.764 266.543 242.371 260.017C237.695 255.221 231.195 252.264 224.882 249.853C224.805 249.826 224.737 249.777 224.687 249.712C224.637 249.648 224.607 249.57 224.6 249.489C224.593 249.407 224.61 249.325 224.648 249.253C224.686 249.181 224.744 249.121 224.815 249.081Z" fill="black"/>
<path d="M257.143 281.688C257.476 269.021 266.067 245.072 282.531 247.269C284.315 247.509 285.763 248.126 286.873 249.121C286.964 249.2 287.032 249.302 287.07 249.416C287.108 249.53 287.116 249.652 287.091 249.77C287.067 249.888 287.012 249.998 286.931 250.087C286.851 250.177 286.748 250.243 286.633 250.28C271.217 255.19 261.814 265.624 258.421 281.582C258.35 281.919 258.142 282.07 257.795 282.034L257.396 281.981C257.218 281.963 257.134 281.866 257.143 281.688Z" fill="black"/>
<path d="M255.731 269.66C255.358 265.917 249.963 258.618 253.24 255.381C256.357 252.304 260.886 254.182 260.046 258.884C259.407 262.534 258.559 266.157 257.502 269.753C256.623 272.755 256.033 272.724 255.731 269.66Z" fill="black"/>
<path d="M243.85 286.377C237.683 283.606 227.986 285.591 220.913 286.164C214.555 286.679 208.427 285.982 202.531 284.072C201.59 283.77 201.563 283.398 202.451 282.954C218.155 275.201 239.454 275.894 251.815 290.093C251.83 290.112 251.838 290.136 251.837 290.16C251.837 290.184 251.828 290.208 251.813 290.226C251.797 290.245 251.776 290.258 251.752 290.263C251.728 290.267 251.703 290.264 251.682 290.253C249.16 288.885 246.549 287.593 243.85 286.377Z" fill="black"/>
<path d="M287.526 286.097C274.685 284.299 269.317 284.765 258.821 292.784C258.439 293.077 258.337 292.997 258.515 292.544C258.808 291.771 259.225 291.092 259.767 290.506C272.434 276.72 291.455 275.081 307.972 282.474C308.327 282.634 308.54 282.82 308.611 283.033C308.643 283.131 308.637 283.237 308.595 283.328C308.553 283.42 308.477 283.491 308.385 283.526C301.52 286.217 294.567 287.074 287.526 286.097Z" fill="black"/>
<path d="M259.087 333.995C259.575 335.22 260.245 336.335 261.098 337.338C261.826 338.2 261.919 339.123 261.378 340.109L257.848 346.449C257.288 347.462 256.64 347.519 255.903 346.622L250.908 340.575C250.696 340.315 250.565 339.998 250.531 339.664C250.498 339.33 250.564 338.994 250.722 338.697L253.386 333.596C253.412 333.533 253.412 333.498 253.386 333.489L253.026 333.303C252.875 333.223 252.76 333.258 252.68 333.409C247.552 342.347 234.871 341.095 229.397 333.529C228.668 332.525 228.913 332.153 230.129 332.41C233.823 333.209 237.184 332.517 240.212 330.332C240.914 329.826 240.834 329.622 239.973 329.719C236.074 330.163 232.385 329.524 228.904 327.801C227.767 327.251 227.829 326.998 229.09 327.042C236.594 327.317 242.57 324.298 247.019 317.985C252.893 309.646 250.615 298.644 241.131 294.715C235.644 292.437 228.291 295.567 225.028 299.949C224.184 301.086 222.848 304.523 221.018 310.259C218.821 317.145 216.796 323.472 210.589 328.041C210.423 328.162 210.228 328.235 210.024 328.254C209.82 328.272 209.615 328.235 209.431 328.146C209.246 328.058 209.089 327.92 208.976 327.749C208.864 327.578 208.799 327.38 208.791 327.175L208.644 323.472C208.609 322.576 208.289 322.46 207.685 323.126L203.463 327.788C203.239 328.036 202.931 328.193 202.597 328.228C201.318 328.387 200.106 328.192 198.961 327.642C198.879 327.602 198.809 327.54 198.761 327.463C198.712 327.386 198.685 327.297 198.684 327.206C198.682 327.115 198.706 327.025 198.753 326.947C198.799 326.869 198.867 326.805 198.947 326.762C205.168 323.725 211.348 318.957 214.252 312.577C214.731 311.52 214.603 311.44 213.866 312.337C210.522 316.426 208.99 319.556 203.263 322.846C199.436 325.057 195.457 325.67 191.328 324.684C188.265 323.938 186.453 321.714 184.575 319.29C184.475 319.165 184.414 319.013 184.402 318.854C184.389 318.694 184.424 318.534 184.503 318.395C184.582 318.256 184.701 318.144 184.844 318.073C184.988 318.002 185.149 317.976 185.308 317.998C197.256 319.436 206.833 315.361 211.588 303.972C212.001 302.986 212.254 302.906 212.973 302.214C213.266 301.93 213.461 301.592 213.559 301.201L214.318 298.284C214.514 297.538 214.758 297.521 215.051 298.231C216.17 300.922 214.691 302.56 215.171 304.864C215.295 305.45 215.477 305.473 215.717 304.931C217.138 301.708 218.266 299.323 219.1 297.778C227.558 282.127 247.978 283.086 255.89 298.604C256.156 299.11 256.432 299.115 256.716 298.617C265.054 284.179 286.353 281.674 293.972 298.444C295.055 300.824 296.311 303.115 297.741 305.317C298.167 305.966 298.349 305.903 298.287 305.131C298.061 302.493 296.849 299.603 297.235 296.979C297.35 296.233 297.55 296.211 297.834 296.912C298.278 297.996 298.651 299.079 298.953 300.163C302.727 313.589 311.532 319.45 325.367 317.745C325.56 317.723 325.756 317.755 325.931 317.839C326.107 317.923 326.255 318.054 326.358 318.218C326.462 318.381 326.516 318.57 326.515 318.762C326.514 318.954 326.457 319.142 326.352 319.303C317.108 333.675 300.339 319.623 295.57 309.473C295.49 309.313 295.366 309.269 295.197 309.34C295.037 309.411 295.019 309.611 295.144 309.939C298.101 317.381 303.207 322.722 310.462 325.963C312.495 326.869 312.424 327.597 310.249 328.148C307.398 328.867 304.694 325.43 303.136 323.619C302.523 322.909 302.132 323.059 301.964 324.072C301.893 324.507 302.106 325.199 302.603 326.15C302.694 326.324 302.729 326.522 302.704 326.717C302.679 326.911 302.594 327.094 302.462 327.239C302.33 327.384 302.156 327.485 301.965 327.529C301.773 327.572 301.573 327.556 301.391 327.482C294.305 324.618 291.734 316.493 290.056 308.661C289.07 304.016 287.951 300.873 286.699 299.23C282.41 293.622 273.312 292.517 267.651 296.646C261.604 301.055 260.166 309.74 264.015 316.106C268.162 322.944 273.814 326.496 280.971 326.762C283.857 326.869 283.968 327.477 281.304 328.587C278.907 329.582 276.034 329.915 272.686 329.586C272.065 329.524 271.976 329.71 272.42 330.146C274.871 332.556 280.998 332.597 284.221 332.277C284.326 332.268 284.432 332.289 284.525 332.338C284.619 332.386 284.696 332.46 284.748 332.55C284.8 332.64 284.825 332.743 284.819 332.846C284.813 332.948 284.776 333.047 284.714 333.129C279.879 339.816 270.702 341.801 263.629 337.432C262.164 336.526 260.912 334.941 259.54 333.689C258.927 333.12 258.776 333.222 259.087 333.995Z" fill="black"/>
<path d="M317.135 293.303C317.135 295.076 316.431 296.777 315.177 298.031C313.923 299.285 312.222 299.989 310.449 299.989C308.675 299.989 306.975 299.285 305.721 298.031C304.467 296.777 303.762 295.076 303.762 293.303C303.762 291.529 304.467 289.829 305.721 288.575C306.975 287.321 308.675 286.616 310.449 286.616C312.222 286.616 313.923 287.321 315.177 288.575C316.431 289.829 317.135 291.529 317.135 293.303Z" fill="black"/>
<path d="M208.259 293.529C208.259 295.225 207.585 296.851 206.386 298.05C205.187 299.249 203.561 299.923 201.865 299.923C200.17 299.923 198.543 299.249 197.344 298.05C196.145 296.851 195.472 295.225 195.472 293.529C195.472 291.834 196.145 290.208 197.344 289.008C198.543 287.809 200.17 287.136 201.865 287.136C203.561 287.136 205.187 287.809 206.386 289.008C207.585 290.208 208.259 291.834 208.259 293.529Z" fill="black"/>
<path fill-rule="evenodd" clip-rule="evenodd" d="M350.942 321.994C354.232 320.023 354.978 309.713 354.832 306.317C354.826 306.28 354.828 306.243 354.838 306.207C354.847 306.171 354.863 306.137 354.885 306.107C354.907 306.077 354.935 306.053 354.967 306.034C354.999 306.015 355.035 306.002 355.071 305.997C355.108 305.992 355.145 305.994 355.181 306.003C355.217 306.012 355.251 306.028 355.281 306.051C355.298 306.064 355.314 306.078 355.328 306.095C355.338 306.107 355.346 306.119 355.354 306.133C355.373 306.165 355.386 306.2 355.391 306.237C356.563 310.81 357.007 315.459 356.723 320.183C356.718 320.265 356.736 320.348 356.776 320.421C356.816 320.494 356.875 320.554 356.948 320.594C357.02 320.634 357.102 320.654 357.185 320.649C357.268 320.645 357.348 320.617 357.416 320.569C357.877 320.24 358.21 319.677 358.415 318.877C360.35 311.507 360.009 304.456 357.389 297.725C357.345 297.61 357.376 297.526 357.482 297.472H357.496C357.575 297.437 357.651 297.481 357.722 297.605L361.931 305.171C362.428 306.068 362.668 306.001 362.65 304.971C362.384 292.371 343.922 279.597 334.372 273.949C334.339 273.92 334.316 273.881 334.307 273.837C334.298 273.794 334.304 273.748 334.324 273.709C334.344 273.669 334.377 273.637 334.417 273.618C334.457 273.599 334.502 273.593 334.545 273.603C341.671 276.56 348.092 281.555 353.912 286.51C361.065 292.611 368.378 302.547 369.537 312.764C370.149 318.105 371.322 321.781 376.983 322.207C379.06 322.367 381.067 321.883 383.003 320.755C392.061 315.481 389.583 301.442 383.616 295.328C382.861 294.555 383.003 294.315 384.042 294.608C390.027 296.278 395.417 295.794 400.213 293.157C409.124 288.255 407.485 276.054 397.082 274.802C392.909 274.296 389.565 274.753 387.052 276.174C381.769 279.166 377.604 281.058 374.558 281.848C374.345 281.901 374.208 281.821 374.145 281.608L374.065 281.262C374.039 281.155 374.079 281.084 374.185 281.049C378.705 279.512 382.519 276.946 385.627 273.35C385.76 273.199 385.743 273.07 385.574 272.964L385.228 272.737C385.201 272.728 385.139 272.755 385.041 272.817L379.46 276.72C378.972 277.066 378.488 277.057 378.008 276.693C377.502 276.32 377.449 275.987 377.848 275.694C380.663 273.67 382.75 271.907 384.109 270.406C384.286 270.22 384.282 270.038 384.095 269.86L383.856 269.62C383.829 269.585 383.798 269.585 383.762 269.62C378.368 274.629 371.854 278.225 364.302 278.505C364.298 278.503 364.295 278.501 364.292 278.498C364.289 278.495 364.287 278.492 364.286 278.488C364.284 278.484 364.284 278.48 364.284 278.476C364.285 278.474 364.285 278.472 364.286 278.47C364.287 278.468 364.288 278.466 364.289 278.465L364.359 278.442C371.185 276.202 376.561 274.438 381.831 269.234C381.875 269.19 381.875 269.145 381.831 269.101L381.525 268.768C381.409 268.643 381.289 268.639 381.165 268.754C376.246 273.185 370.447 275.49 363.769 275.668C363.396 275.676 363.205 275.628 363.196 275.521V275.508C363.188 275.366 363.25 275.286 363.383 275.268C371.202 274.002 376.21 272.098 380.353 266.956C381.791 265.18 381.631 265.025 379.873 266.49C367.912 276.48 343.483 273.07 329.857 269.114C329.835 269.111 329.817 269.099 329.804 269.081C329.792 269.064 329.786 269.042 329.79 269.021C329.794 269 329.805 268.981 329.823 268.968C329.84 268.956 329.862 268.951 329.883 268.954C341.072 270.819 352.181 271.112 363.33 268.701C363.401 268.683 363.441 268.634 363.45 268.555C363.45 268.519 363.458 268.488 363.476 268.461C363.521 268.355 363.632 268.293 363.809 268.275C367.592 267.822 371.148 266.659 374.478 264.785C374.567 264.741 374.572 264.692 374.492 264.639C374.376 264.568 374.301 264.474 374.265 264.359C374.239 264.288 374.261 264.239 374.332 264.212C376.614 263.244 378.732 262.028 380.686 260.563C397.486 247.953 404.635 230.713 402.131 208.841C402.006 207.794 401.42 207.305 400.372 207.376L399.959 207.416C399.828 207.425 399.7 207.461 399.584 207.524C399.469 207.586 399.367 207.673 399.288 207.777C399.208 207.882 399.152 208.003 399.123 208.131C399.094 208.26 399.093 208.393 399.12 208.522C399.502 210.342 399.649 212.176 399.56 214.023C399.427 217.113 399.04 217.149 398.401 214.129C396.483 205.205 387.465 198.585 378.075 199.744C364.782 201.396 357.749 214.502 365.088 226.184C366.62 228.608 371.348 231.765 374.079 232.218C377.715 232.817 382.817 232.484 385.401 229.66C389.557 225.105 389.53 217.659 384.175 214.316C381.192 212.438 375.158 212.704 373.932 217.02C373.799 217.499 373.883 217.868 374.185 218.125C374.576 218.472 374.949 218.458 375.304 218.085C379.66 213.477 387.412 216.394 384.908 222.854C384.144 224.825 382.777 226.073 380.805 226.597C370.283 229.407 364.235 215.355 372.494 209.081C378.474 204.552 390.502 206.883 392.767 214.649C394.618 220.989 394.538 224.173 392.447 230.167C387.052 245.578 372.187 257.526 357.029 261.602C353.708 262.49 353.548 262.09 356.55 260.403C359.787 258.578 363.703 250.773 361.398 246.377C361.252 246.102 361.033 245.871 360.766 245.71C360.499 245.548 360.194 245.462 359.883 245.461C359.573 245.46 359.268 245.543 359.002 245.702C358.736 245.861 358.519 246.09 358.375 246.364C357.913 247.225 357.491 248.184 357.109 249.241C353.539 259.217 341.485 262.96 331.815 262.574C325.039 262.299 318.268 262.055 311.502 261.841C291.695 261.229 270.543 269.261 258.915 285.897C258.258 286.847 257.814 287.846 257.583 288.894C257.361 289.889 257.543 289.969 258.129 289.134C263.364 281.648 273.02 276.973 281.865 276.36C297.303 275.295 309.451 277.852 321.105 288.175C321.319 288.361 321.496 288.335 321.638 288.095C321.736 287.935 321.714 287.753 321.572 287.549C319.344 284.274 315.391 282.312 311.788 280.524C311.449 280.356 311.113 280.189 310.783 280.023C310.756 280.005 310.751 279.988 310.769 279.97L310.929 279.597C311.018 279.428 311.151 279.379 311.329 279.45L311.568 279.548C316.646 281.626 322.182 283.891 324.555 289.254C324.697 289.573 324.942 289.702 325.288 289.64C326.025 289.516 326.784 289.591 327.566 289.866C327.93 289.991 328.183 290.231 328.325 290.586C331.002 297.059 322.024 299.697 317.709 298.325C317.291 298.193 316.846 298.17 316.416 298.258C315.987 298.346 315.587 298.542 315.254 298.827C314.921 299.112 314.666 299.477 314.513 299.888C314.36 300.299 314.313 300.742 314.379 301.175C316.883 317.599 334.798 313.683 339.221 301.721C340.473 298.338 340.619 292.251 339.633 288.921C336.49 278.354 329.661 271.538 319.147 268.475C318.943 268.413 318.863 268.284 318.908 268.088V268.075C318.952 267.871 319.076 267.782 319.281 267.809C322.939 268.288 326.345 269.438 329.497 271.259C334.345 274.056 340.086 283.047 341.645 288.281C343.363 294.009 342.191 301.055 340.926 307.063C340.924 307.07 340.925 307.077 340.929 307.083C340.932 307.09 340.938 307.094 340.945 307.096C340.953 307.098 340.96 307.097 340.966 307.093C340.973 307.089 340.977 307.083 340.979 307.076C342.932 303.879 343.883 300.38 343.829 296.58C343.82 296.464 343.834 296.402 343.869 296.393L344.202 296.367C344.46 296.34 344.611 296.455 344.655 296.713C346.653 308.408 341.352 316.32 330.443 320.183C330.285 320.24 330.149 320.345 330.053 320.483C329.957 320.621 329.907 320.785 329.908 320.953C329.91 321.121 329.963 321.285 330.061 321.421C330.159 321.557 330.297 321.66 330.456 321.714C332.658 322.46 334.834 322.336 336.983 321.341C337.064 321.307 337.154 321.297 337.241 321.315C337.328 321.332 337.408 321.375 337.47 321.439C337.532 321.502 337.573 321.582 337.588 321.67C337.604 321.757 337.592 321.847 337.556 321.928C335.411 326.376 332.281 326.816 327.832 326.949C325.665 327.02 325.537 327.571 327.446 328.601C340.739 335.794 349.877 321.888 349.917 310.353C349.914 310.341 349.915 310.329 349.919 310.319C349.921 310.316 349.922 310.313 349.925 310.31C349.933 310.299 349.947 310.293 349.963 310.293C349.979 310.293 349.996 310.299 350.009 310.31C350.023 310.322 350.033 310.337 350.036 310.353C350.765 313.984 350.72 317.621 349.903 321.262C349.672 322.309 350.019 322.554 350.942 321.994Z" fill="black"/>
<path fill-rule="evenodd" clip-rule="evenodd" d="M132.516 275.705C133.383 276.378 134.194 277.008 134.812 277.572C135.558 278.264 135.456 278.429 134.506 278.065C131.558 276.928 128.783 275.467 126.181 273.682C125.568 273.256 125.435 273.376 125.781 274.042C127.886 278.011 136.024 280.689 139.847 281.368C140.051 281.412 140.136 281.537 140.1 281.741V281.754C140.056 281.967 139.931 282.052 139.727 282.007C133.577 280.847 130.106 279.265 125.886 277.341C124.97 276.923 124.019 276.489 122.997 276.04C115.938 272.95 107.133 274.761 106.081 283.619C104.802 294.435 118.961 296.38 126.634 295.128C127.531 294.985 127.673 295.247 127.06 295.913C123.011 300.3 121.146 305.069 121.466 310.219C121.839 316.173 125.781 321.727 131.962 322.26C135.46 322.553 138.089 321.421 139.847 318.864C140.637 317.718 141.161 315.627 141.419 312.59C142.884 295.194 161.186 280.316 175.678 273.323C175.838 273.243 175.957 273.283 176.037 273.443H176.051C176.131 273.602 176.095 273.727 175.944 273.816C165.235 280.183 155.098 287.575 150.277 298.351C150.111 298.727 150.046 299.14 150.09 299.55C150.214 300.624 149.899 301.641 149.144 302.6C149.135 302.609 149.135 302.613 149.144 302.613L149.557 302.986C149.708 303.12 149.828 303.093 149.917 302.906C150.254 302.214 150.752 301.708 151.409 301.388C151.968 301.13 152.141 301.286 151.928 301.854C149.97 307.075 149.278 314.428 152.608 319.103C153.478 320.329 153.797 320.2 153.567 318.717C152.838 314.144 153.154 309.327 154.512 304.265C154.566 304.096 154.681 304.025 154.859 304.052L154.872 304.065C155.05 304.092 155.125 304.198 155.098 304.385C154.499 309.353 154.832 318.517 159.467 321.767C160.417 322.442 160.728 322.22 160.4 321.101C159.068 316.644 158.974 312.142 160.12 307.595C160.122 307.574 160.132 307.554 160.148 307.54C160.164 307.527 160.185 307.52 160.207 307.522C160.228 307.523 160.247 307.534 160.261 307.55C160.275 307.566 160.282 307.587 160.28 307.608L160.305 307.9C161.023 316.103 161.504 321.606 168.179 327.082C172.734 330.825 179.474 331.757 184.482 328.654C186.161 327.624 186.014 327.149 184.043 327.229C179.86 327.406 176.601 325.777 174.266 322.34C173.689 321.496 173.875 321.257 174.825 321.621C176.965 322.429 179.145 322.518 181.365 321.887C181.44 321.865 181.509 321.828 181.568 321.777C181.628 321.726 181.675 321.664 181.708 321.593C181.741 321.522 181.758 321.445 181.759 321.368C181.759 321.29 181.743 321.213 181.712 321.141C181.543 320.768 181.254 320.529 180.846 320.422C170.447 317.589 165.426 310.632 165.781 299.55C165.79 299.15 165.905 298.808 166.127 298.524C166.491 298.036 166.665 298.093 166.647 298.697C166.593 300.518 166.776 301.934 167.193 302.946C167.566 303.825 167.775 303.786 167.819 302.826C167.863 302.029 167.9 301.221 167.938 300.407C168.149 295.81 168.369 291.02 169.897 286.856C172.037 281.022 174.918 276.386 178.541 272.95C181.41 270.224 185.597 268.563 191.102 267.968C191.333 267.942 191.466 268.039 191.502 268.261L191.568 268.594C191.577 268.63 191.564 268.652 191.528 268.661C185.481 270.002 180.806 272.723 177.503 276.826C172.148 283.486 168.525 295.953 172.334 303.812C177.902 315.294 199.48 315.667 196.364 299.536C196.284 299.083 196.013 298.861 195.551 298.87C189.078 298.977 182.071 298.884 182.364 290.945C182.4 290.217 182.675 289.418 183.19 288.547C183.439 288.139 183.585 288.17 183.63 288.641C183.718 289.475 184.056 290.204 184.642 290.825C184.73 290.917 184.838 290.987 184.957 291.031C185.077 291.074 185.205 291.089 185.331 291.075C185.457 291.061 185.579 291.018 185.686 290.949C185.792 290.88 185.882 290.788 185.947 290.679C187.599 287.917 189.672 285.586 192.168 283.686C192.336 283.561 192.492 283.575 192.634 283.726L192.647 283.739C192.789 283.881 192.789 284.028 192.647 284.179C192.043 284.818 191.511 285.524 191.049 286.296C190.685 286.9 190.778 286.985 191.329 286.549C191.413 286.483 191.496 286.416 191.579 286.35C195.321 283.371 198.548 280.802 203.343 279.29C213.2 276.2 227.013 274.708 236.443 277.239C243.929 279.25 249.976 284.844 254.585 290.692C254.727 290.861 254.891 290.883 255.078 290.759L255.344 290.572C255.371 290.554 255.38 290.532 255.371 290.506C242.157 268.088 216.543 259.99 191.755 261.788C190.693 261.865 189.639 261.948 188.594 262.031C175.755 263.045 164.22 263.956 155.192 252.304C154.217 251.036 153.854 249.653 153.472 248.2C153.317 247.607 153.158 247.003 152.954 246.39C152.881 246.175 152.761 245.978 152.604 245.813C152.447 245.649 152.255 245.521 152.043 245.439C151.831 245.356 151.604 245.321 151.377 245.336C151.15 245.35 150.929 245.415 150.729 245.524C149.362 246.279 148.731 247.424 148.838 248.961C149.255 255.088 152.115 259.55 157.416 262.347C157.532 262.4 157.585 262.471 157.576 262.56C157.576 262.613 157.554 262.658 157.509 262.694C157.421 262.782 157.278 262.796 157.083 262.733C139.914 257.312 117.536 240.569 118.349 220.349C119.081 202.114 145.401 203.06 142.724 218.818C140.833 229.993 124.636 228.395 126.794 219.31C127.726 215.381 133.693 214.449 136.064 217.566C137.156 219.004 137.658 218.755 137.569 216.82C137.534 216.162 136.992 215.461 135.944 214.715C130.923 211.132 126.514 213.396 124.622 218.711C118.362 236.213 150.769 238.518 149.411 215.647C148.718 203.979 137.596 197.239 126.674 200.436C119.667 202.487 114.193 208.828 112.621 216.367C112.248 218.152 111.982 218.143 111.822 216.34C111.591 213.88 111.64 211.434 111.968 209.001C111.989 208.857 111.981 208.711 111.944 208.571C111.908 208.43 111.843 208.298 111.755 208.183C111.667 208.068 111.557 207.971 111.431 207.899C111.306 207.827 111.167 207.78 111.023 207.762L110.397 207.695C109.651 207.607 109.233 207.931 109.145 208.668C107.537 222.005 110.09 233.971 116.804 244.565C130.696 266.49 151.555 273.376 176.65 268.927C177.725 268.741 179.447 268.585 181.818 268.461C181.934 268.452 181.982 268.501 181.965 268.607C181.947 268.652 181.92 268.692 181.885 268.727C181.84 268.772 181.769 268.794 181.672 268.794C181.252 268.821 180.848 268.836 180.454 268.851C179.074 268.904 177.814 268.952 176.384 269.46C163.45 274.055 144.909 275.014 132.721 266.903C130.838 265.642 130.661 265.846 132.188 267.515C134.941 270.517 138.364 272.799 142.458 274.362C142.564 274.397 142.595 274.464 142.551 274.561L142.431 274.894C142.316 275.196 142.103 275.298 141.792 275.201C137.014 273.78 132.943 271.28 129.577 267.702C129.524 267.649 129.466 267.644 129.404 267.688L129.164 267.915C129.04 268.03 129.027 268.15 129.125 268.274C132.455 272.963 136.855 276.182 142.325 277.931C142.342 277.94 142.347 277.954 142.338 277.971L142.218 278.304C142.174 278.438 142.085 278.486 141.952 278.451C136.508 276.773 131.717 273.984 127.579 270.086C126.993 269.527 126.86 269.62 127.18 270.366C127.981 272.186 130.413 274.073 132.516 275.705Z" fill="black"/>
<path d="M336.969 299.19C336.969 299.164 336.969 299.124 336.969 299.071C336.978 299.062 336.991 299.071 337.009 299.097C337.026 299.142 337.031 299.199 337.022 299.27C336.249 302.774 333.958 307.169 330.255 308.008C329.66 308.141 329.594 308.008 330.056 307.609C332.791 305.238 335.082 302.472 336.929 299.31C336.955 299.275 336.969 299.235 336.969 299.19Z" fill="black"/>
<path fill-rule="evenodd" clip-rule="evenodd" d="M227.632 316.978C229.629 319.362 232.451 320.807 235.476 320.998C236.974 321.092 238.476 320.875 239.898 320.36C241.32 319.844 242.633 319.04 243.762 317.993C244.891 316.946 245.815 315.677 246.479 314.259C247.144 312.84 247.537 311.299 247.636 309.724C247.836 306.544 246.827 303.419 244.829 301.036C242.831 298.652 240.01 297.206 236.985 297.016C235.487 296.922 233.984 297.139 232.562 297.654C231.141 298.17 229.828 298.974 228.698 300.021C227.569 301.067 226.646 302.337 225.981 303.755C225.316 305.174 224.923 306.715 224.824 308.289C224.624 311.469 225.634 314.595 227.632 316.978ZM236.903 314.855C238.468 314.903 239.954 314.327 241.034 313.254C242.114 312.181 242.701 310.699 242.664 309.134C242.627 307.569 241.97 306.049 240.837 304.908C239.704 303.768 238.189 303.1 236.624 303.052C235.059 303.004 233.573 303.58 232.493 304.653C231.413 305.726 230.826 307.208 230.863 308.773C230.9 310.338 231.557 311.858 232.69 312.999C233.823 314.139 235.338 314.807 236.903 314.855Z" fill="black"/>
<path fill-rule="evenodd" clip-rule="evenodd" d="M269.173 318.619C271.66 320.485 274.752 321.261 277.769 320.778C279.263 320.539 280.694 319.998 281.98 319.185C283.265 318.372 284.38 317.304 285.262 316.042C286.143 314.78 286.773 313.348 287.116 311.828C287.459 310.308 287.508 308.73 287.261 307.185C286.761 304.063 285.082 301.261 282.595 299.395C280.108 297.529 277.016 296.752 273.999 297.235C272.504 297.475 271.074 298.016 269.788 298.829C268.503 299.642 267.388 300.71 266.506 301.972C265.625 303.234 264.995 304.666 264.652 306.186C264.309 307.706 264.26 309.283 264.507 310.829C265.007 313.951 266.685 316.753 269.173 318.619ZM280.868 311.284C281.165 310.566 281.318 309.797 281.318 309.02C281.318 308.244 281.165 307.475 280.868 306.757C280.571 306.039 280.135 305.388 279.586 304.838C279.037 304.289 278.385 303.854 277.667 303.556C276.95 303.259 276.181 303.106 275.404 303.106C273.836 303.106 272.331 303.729 271.222 304.838C270.113 305.947 269.49 307.452 269.49 309.02C269.49 310.589 270.113 312.093 271.222 313.202C272.331 314.311 273.836 314.934 275.404 314.934C276.181 314.934 276.95 314.781 277.667 314.484C278.385 314.187 279.037 313.751 279.586 313.202C280.135 312.653 280.571 312.001 280.868 311.284Z" fill="black"/>
</svg>
