<svg width="512" height="512" viewBox="0 0 512 512" fill="none" xmlns="http://www.w3.org/2000/svg">
<rect width="512" height="512" fill="white"/>
<path fill-rule="evenodd" clip-rule="evenodd" d="M371.527 210.121C364.85 210.059 358.348 211.728 352.002 213.574C351.947 213.59 351.889 213.592 351.834 213.58C351.778 213.568 351.726 213.542 351.683 213.505C351.64 213.468 351.606 213.421 351.586 213.368C351.566 213.315 351.559 213.257 351.566 213.201L352.489 206.948C352.517 206.744 352.488 206.536 352.404 206.348C352.32 206.159 352.186 205.998 352.016 205.882C351.846 205.765 351.647 205.699 351.441 205.689C351.235 205.68 351.031 205.728 350.851 205.828C345.336 208.905 340.066 212.375 334.796 215.846C332.962 217.054 331.127 218.262 329.282 219.453C319.38 225.851 314.185 214.901 323.019 208.835C327.167 205.987 332.691 202.333 339.59 197.875C341.601 196.568 343.385 195.006 344.94 193.188C345.07 193.035 345.165 192.856 345.22 192.663C345.275 192.47 345.288 192.268 345.258 192.07C345.229 191.872 345.158 191.682 345.049 191.514C344.941 191.345 344.797 191.202 344.629 191.093C343.535 190.385 341.778 190.096 340.099 189.821C339.073 189.652 338.076 189.489 337.277 189.237C337.029 189.159 336.802 189.024 336.615 188.843C336.428 188.661 336.286 188.439 336.201 188.193C336.115 187.947 336.088 187.685 336.122 187.427C336.156 187.169 336.25 186.922 336.396 186.707C336.852 186.022 337.457 185.338 338.21 184.654C341.301 181.819 343.793 178.733 345.687 175.394C346.558 173.852 346.109 173.029 344.339 172.926L339.994 172.677C339.864 172.669 339.736 172.633 339.622 172.57C339.508 172.506 339.409 172.418 339.333 172.312C339.258 172.205 339.207 172.083 339.185 171.954C339.163 171.825 339.17 171.693 339.206 171.567C339.529 170.419 339.948 169.308 340.36 168.214C340.926 166.709 341.481 165.238 341.757 163.749C342.365 160.424 342.794 157.06 343.043 153.659C343.058 153.459 343.021 153.258 342.936 153.076C342.85 152.894 342.719 152.738 342.555 152.622C342.391 152.506 342.2 152.435 342 152.415C341.8 152.395 341.598 152.427 341.415 152.508C335.414 155.19 329.87 158.599 324.782 162.733C324.661 162.831 324.517 162.896 324.364 162.921C324.21 162.946 324.053 162.93 323.907 162.876C323.761 162.821 323.632 162.73 323.533 162.61C323.434 162.49 323.367 162.347 323.341 162.193C323.023 160.216 322.286 158.391 321.132 156.718C321.036 156.575 320.904 156.46 320.749 156.385C320.595 156.309 320.423 156.276 320.251 156.289C320.079 156.301 319.914 156.359 319.772 156.457C319.629 156.554 319.516 156.687 319.442 156.843C317.209 161.502 315.332 166.054 313.811 170.499C313.355 171.847 312.474 172.234 311.167 171.661C310.903 171.544 310.668 171.371 310.477 171.155C310.285 170.938 310.142 170.683 310.058 170.406C309.401 168.263 308.364 166.338 306.947 164.63C306.331 163.884 305.668 163.835 304.956 164.485C303.912 165.439 303.096 166.818 302.509 168.622C300.607 174.443 298.582 180.222 296.432 185.96C295.326 188.905 293.909 191.1 292.181 192.545C290.024 194.359 285.669 195.044 283.201 193.146C279.125 190.025 281.459 180.734 283.035 176.265C283.84 173.977 284.728 171.695 285.619 169.407C288.317 162.474 291.041 155.474 291.579 148.029C291.606 147.624 291.479 147.224 291.222 146.912C290.966 146.6 290.6 146.398 290.2 146.349C288.218 146.098 284.593 148.716 282.408 150.294C282.066 150.54 281.759 150.762 281.5 150.942C279.167 152.57 274.428 153.794 274.48 148.92C274.526 145.45 274.997 142.133 275.464 138.852C275.949 135.437 276.43 132.06 276.419 128.586C276.418 128.323 276.342 128.066 276.2 127.845C276.058 127.624 275.856 127.448 275.617 127.338C275.379 127.228 275.114 127.189 274.854 127.224C274.593 127.26 274.349 127.369 274.148 127.539C272.676 128.797 271.677 129.768 271.151 130.452C269.16 133.079 268.079 132.754 267.906 129.478L267.346 119.015C267.337 118.863 267.285 118.715 267.196 118.591C267.107 118.467 266.985 118.371 266.844 118.314C266.703 118.257 266.55 118.242 266.402 118.271C266.253 118.3 266.117 118.371 266.008 118.476L263.748 120.633C263.647 120.73 263.522 120.799 263.386 120.832C263.25 120.865 263.108 120.861 262.974 120.821C262.84 120.781 262.719 120.706 262.623 120.604C262.528 120.501 262.461 120.375 262.431 120.239C261.352 115.317 259.496 110.709 256.862 106.416C256.785 106.291 256.678 106.187 256.55 106.114C256.423 106.041 256.279 106.002 256.132 106C255.985 105.998 255.84 106.033 255.71 106.102C255.58 106.171 255.47 106.272 255.39 106.395C252.535 110.792 250.641 115.565 249.707 120.716C249.631 121.116 249.4 121.258 249.013 121.141C248.148 120.885 247.419 120.391 246.825 119.658C245.774 118.365 245.141 118.541 244.927 120.187L243.517 130.795C243.219 133 242.431 133.193 241.152 131.375C240.178 130.007 239.016 128.752 237.668 127.611C237.457 127.431 237.197 127.316 236.922 127.28C236.646 127.244 236.366 127.288 236.115 127.408C235.864 127.527 235.653 127.717 235.508 127.953C235.362 128.19 235.288 128.464 235.294 128.742C235.418 134.5 236.137 140.362 237.451 146.328C238.415 150.683 235.024 154.136 230.752 151.181C230.386 150.926 229.952 150.597 229.469 150.232C226.878 148.27 222.89 145.252 220.538 146.826C220.403 146.912 220.292 147.029 220.212 147.166C220.133 147.303 220.088 147.457 220.082 147.614C219.874 151.658 221.72 157.216 223.244 161.001C223.471 161.567 223.693 162.121 223.909 162.662C227.283 171.081 229.473 176.546 230.866 183.668C231.882 188.822 230.524 195.033 224.23 194.245C218.103 193.486 214.532 183.716 211.289 174.846C209.928 171.12 208.624 167.553 207.213 164.879C207.132 164.725 207.011 164.597 206.863 164.507C206.715 164.418 206.546 164.37 206.373 164.371C204.262 164.356 203.541 166.381 202.838 168.354C202.109 170.402 201.4 172.394 199.177 171.992C198.824 171.93 198.583 171.733 198.451 171.401L192.872 157.776C192.8 157.601 192.688 157.445 192.544 157.32C192.4 157.194 192.228 157.103 192.041 157.051C191.854 156.999 191.656 156.989 191.46 157.021C191.265 157.054 191.078 157.127 190.913 157.237C190.871 157.264 190.785 157.444 190.653 157.776C189.865 159.712 189.119 161.599 188.414 163.438C188.378 163.531 188.32 163.613 188.246 163.679C188.171 163.746 188.082 163.793 187.985 163.817C187.889 163.841 187.788 163.842 187.691 163.82C187.594 163.797 187.504 163.751 187.428 163.687C182.783 159.746 177.66 156.428 172.061 153.732C170.651 153.054 169.666 153.075 169.106 153.794C168.504 154.568 168.331 155.432 168.587 156.386C169.272 158.917 169.838 161.416 170.288 163.884C170.679 166.034 171.383 167.832 172.135 169.75C172.34 170.275 172.549 170.808 172.756 171.36C172.794 171.464 172.808 171.575 172.798 171.686C172.788 171.796 172.753 171.903 172.697 171.998C172.64 172.093 172.563 172.175 172.471 172.237C172.379 172.299 172.274 172.339 172.165 172.355L166.783 173.164C166.514 173.205 166.26 173.316 166.047 173.485C165.833 173.654 165.668 173.875 165.567 174.127C165.467 174.379 165.434 174.652 165.473 174.92C165.511 175.188 165.62 175.441 165.787 175.653C168.338 178.895 171.138 181.906 174.187 184.685C175.168 185.576 175.732 186.534 175.877 187.557C175.942 188.016 175.823 188.482 175.545 188.854C175.267 189.225 174.853 189.471 174.394 189.538C172.555 189.793 170.716 190.156 168.878 190.626C167.896 190.875 167.277 191.152 167.021 191.456C166.829 191.678 166.685 191.937 166.597 192.218C166.51 192.498 166.481 192.793 166.513 193.084C166.545 193.376 166.638 193.657 166.784 193.91C166.93 194.164 167.128 194.384 167.363 194.556C173.827 199.299 180.284 203.671 186.734 207.674C191.172 210.422 197.528 216.788 190.27 220.532C186.908 222.277 184.115 220.741 180.666 218.844C180.509 218.757 180.351 218.67 180.191 218.582C177.658 217.196 174.547 215.119 171.221 212.897C167.533 210.435 163.58 207.796 159.856 205.724C159.652 205.61 159.422 205.55 159.187 205.551C158.953 205.552 158.723 205.613 158.52 205.729C158.317 205.845 158.146 206.011 158.026 206.212C157.906 206.413 157.84 206.641 157.834 206.875C157.786 208.521 158.097 210.059 158.767 211.49C159.638 213.335 159.099 213.947 157.15 213.325C156.69 213.178 156.224 213.026 155.754 212.873C152.446 211.797 148.899 210.642 145.494 210.37C142.778 210.149 140.158 210.149 137.634 210.37C137.368 210.391 137.114 210.486 136.899 210.643C136.683 210.8 136.516 211.015 136.414 211.262C136.312 211.509 136.28 211.781 136.322 212.046C136.363 212.311 136.477 212.56 136.649 212.765L143.763 221.164C144.039 221.496 143.984 221.759 143.597 221.952L139.439 224.006C138.298 224.572 138.184 225.302 139.097 226.194C139.269 226.353 139.615 226.612 140.133 226.971C144.737 230.11 149.051 233.608 153.074 237.465C153.24 237.624 153.363 237.821 153.431 238.04C153.499 238.259 153.511 238.491 153.466 238.716C153.42 238.94 153.319 239.15 153.171 239.325C153.022 239.499 152.832 239.634 152.618 239.715C150.378 240.552 148.135 241.53 145.888 242.65C143.825 243.676 143.483 245.304 145.328 246.777C151.799 251.92 160.444 253.564 168.356 255.067L168.546 255.104C169.064 255.202 169.644 255.307 170.275 255.422C178.309 256.885 194.553 259.842 194.957 267.889C195.185 272.597 189.762 274.909 185.8 273.883C184.375 273.514 182.909 273.111 181.414 272.7C174.7 270.852 167.422 268.85 160.789 269.206C160.577 269.216 160.372 269.284 160.197 269.403C160.021 269.522 159.882 269.687 159.794 269.88C159.497 270.523 159.711 271.149 160.437 271.757C160.656 271.942 160.906 272.147 161.178 272.369C163.503 274.271 167.355 277.422 165.953 280.208C165.885 280.344 165.787 280.464 165.667 280.559C165.547 280.654 165.408 280.722 165.259 280.758C163.18 281.246 159.718 280.438 157.04 279.813C156.365 279.656 155.741 279.51 155.2 279.399C153.66 279.082 152.148 279.088 150.618 279.094C150.099 279.096 149.577 279.099 149.051 279.088C148.835 279.084 148.62 279.138 148.431 279.244C148.242 279.35 148.085 279.504 147.976 279.69C147.867 279.876 147.81 280.088 147.811 280.303C147.813 280.518 147.872 280.729 147.983 280.913L150.472 285.092C150.545 285.215 150.587 285.354 150.593 285.497C150.599 285.64 150.57 285.783 150.507 285.911C150.444 286.04 150.35 286.151 150.233 286.234C150.117 286.318 149.981 286.371 149.839 286.388C144.893 287.031 136.317 288.711 133.207 292.745C133.127 292.849 133.068 292.967 133.034 293.094C133 293.221 132.991 293.353 133.009 293.483C133.026 293.613 133.069 293.739 133.135 293.852C133.201 293.966 133.289 294.065 133.393 294.144C137.448 297.203 143.161 298.748 147.993 299.817C148.103 299.842 148.203 299.895 148.285 299.971C148.368 300.047 148.428 300.144 148.462 300.25C148.495 300.357 148.5 300.471 148.476 300.581C148.452 300.69 148.4 300.791 148.325 300.874C148.2 301.011 148.07 301.149 147.939 301.288C147.148 302.125 146.312 303.009 146.179 304.13C146.013 305.52 146.697 306.284 148.232 306.422C152.317 306.781 156.327 306.882 160.26 306.723C160.491 306.712 160.72 306.766 160.922 306.878C161.123 306.989 161.29 307.155 161.403 307.356C161.516 307.558 161.571 307.786 161.561 308.017C161.552 308.247 161.478 308.47 161.349 308.662L157.056 315.029C156.807 315.402 156.801 315.779 157.036 316.159C157.976 317.673 159.455 318.381 161.474 318.285C168.524 317.936 174.926 315.17 181.299 312.417C183.832 311.324 186.359 310.232 188.922 309.294C191.355 308.409 193.875 308.472 196.481 309.481C199.903 310.808 201.168 313.566 198.389 316.553C197.515 317.493 196.634 318.426 195.754 319.36C189.933 325.534 184.13 331.688 180.284 339.345C176.271 347.34 183.488 347.464 188.89 345.992C192.119 345.114 195.402 344.35 198.741 343.7C198.797 343.689 198.853 343.691 198.908 343.706C198.962 343.72 199.013 343.746 199.056 343.783C199.1 343.82 199.135 343.865 199.16 343.917C199.184 343.969 199.197 344.026 199.198 344.084L199.281 349.756C199.281 349.935 199.305 350.109 199.353 350.274C200.031 352.687 201.624 353.012 204.134 351.249C207.96 348.563 210.812 343.783 212.979 339.811C213.127 339.538 213.346 339.31 213.613 339.151C213.879 338.992 214.184 338.907 214.495 338.906C214.806 338.905 215.111 338.987 215.379 339.145C215.646 339.302 215.867 339.529 216.017 339.801C217.365 342.259 221.388 344.893 223.763 341.865C225.419 339.755 226.831 336.698 227.978 334.215C228.455 333.183 228.886 332.251 229.269 331.526C229.719 330.683 230.211 329.683 230.742 328.607C232.683 324.667 235.133 319.695 237.845 317.569C242.566 313.864 247.319 313.774 252.103 317.299C252.386 317.507 252.58 317.776 252.683 318.108C253.451 320.459 253.824 322.304 253.803 323.646C253.548 337.776 253.855 353.848 254.726 371.863C255.276 383.384 256.188 395.33 260.212 405.263C260.35 405.609 260.599 405.823 260.958 405.906C265.417 406.881 270.26 400.006 270.363 396.366C270.377 396.039 270.266 395.717 270.052 395.464C266.132 390.701 263.62 385.513 262.514 379.9C258.926 361.691 258.065 341.678 258.49 322.598C258.587 318.312 260.457 315.765 264.1 314.956C273.384 312.914 279.095 324.487 283.554 333.523C285.071 336.599 286.444 339.381 287.763 341.232C290.809 345.522 293.605 342.211 295.745 339.677C296.031 339.338 296.305 339.014 296.567 338.723C296.699 338.573 296.865 338.456 297.051 338.383C297.237 338.31 297.438 338.283 297.636 338.303C297.835 338.323 298.026 338.391 298.194 338.5C298.361 338.609 298.5 338.756 298.599 338.93C300.808 342.736 305.765 351.218 310.016 352.493C310.28 352.573 310.558 352.591 310.83 352.546C311.101 352.5 311.359 352.392 311.582 352.231C311.805 352.069 311.987 351.858 312.115 351.614C312.243 351.37 312.312 351.099 312.318 350.824L312.411 345.577C312.416 345.306 312.484 345.039 312.61 344.799C312.736 344.559 312.916 344.352 313.136 344.195C313.356 344.037 313.61 343.934 313.877 343.893C314.143 343.852 314.416 343.875 314.672 343.959C318.903 345.349 323.22 346.227 327.623 346.593C339.382 347.578 328.702 333.082 326.213 330.251C323.081 326.691 319.031 322.615 314.06 318.025C313.32 317.341 312.55 316.266 311.748 314.8C311.589 314.51 311.533 314.202 311.582 313.878C312.505 308.081 319.546 308.257 323.89 309.75C324.499 309.959 325.655 310.447 327.175 311.088C335.16 314.457 353.193 322.065 354.708 315.775C354.788 315.448 354.744 315.101 354.584 314.8C353.768 313.217 352.707 311.797 351.4 310.539C351.074 310.227 350.849 309.826 350.754 309.385C350.659 308.945 350.698 308.486 350.866 308.067C351.034 307.648 351.324 307.288 351.698 307.034C352.072 306.78 352.514 306.642 352.966 306.64C356.761 306.619 360.36 306.474 364.321 305.561C364.59 305.499 364.841 305.377 365.056 305.204C365.271 305.031 365.444 304.811 365.561 304.562C365.679 304.312 365.739 304.039 365.736 303.763C365.733 303.488 365.667 303.216 365.544 302.969C365.316 302.52 365.005 302.208 364.611 302.036C362.281 301.019 362.333 300.145 364.767 299.412C365.125 299.306 365.634 299.171 366.246 299.01C370.037 298.01 377.777 295.968 378.205 293.004C378.344 292.057 377.818 291.279 376.629 290.671C371.942 288.313 367.19 286.896 362.371 286.419C362.134 286.395 361.909 286.306 361.719 286.161C361.53 286.016 361.385 285.821 361.3 285.599C361.215 285.376 361.194 285.134 361.238 284.9C361.283 284.666 361.391 284.449 361.552 284.273C362.651 283.077 363.529 281.687 364.186 280.104C364.233 279.991 364.251 279.867 364.24 279.745C364.229 279.622 364.189 279.504 364.123 279.401C364.057 279.297 363.967 279.211 363.861 279.149C363.754 279.087 363.635 279.052 363.512 279.047C358.929 278.874 354.598 279.282 350.519 280.27C349.247 280.574 347.944 280.661 346.61 280.529C346.344 280.504 346.09 280.411 345.869 280.261C345.649 280.111 345.47 279.907 345.349 279.67C345.228 279.432 345.169 279.168 345.177 278.901C345.186 278.634 345.261 278.374 345.397 278.144C346.848 275.704 348.656 273.589 350.82 271.798C352.603 270.312 352.344 269.406 350.042 269.082C347.947 268.777 345.49 268.902 342.669 269.455C337.174 270.526 331.723 271.778 326.317 273.209C322.2 274.297 315.937 272.877 315.864 267.733C315.792 262.943 321.941 260.859 325.56 259.822C334.533 257.257 343.502 254.689 352.468 252.117C356.402 250.99 360.052 249.096 363.419 246.435C363.653 246.248 363.843 246.011 363.972 245.74C364.102 245.47 364.168 245.174 364.166 244.875C364.164 244.576 364.094 244.282 363.961 244.015C363.827 243.748 363.635 243.515 363.398 243.334C361.442 241.827 359.295 240.766 356.958 240.151C356.802 240.109 356.657 240.03 356.537 239.921C356.416 239.812 356.323 239.676 356.265 239.524C356.208 239.372 356.187 239.209 356.205 239.047C356.222 238.886 356.278 238.731 356.367 238.595C356.879 237.821 357.449 237.178 358.078 236.667C360.199 234.933 362.334 233.233 364.468 231.534C366.905 229.594 369.34 227.654 371.756 225.665C371.854 225.582 371.93 225.476 371.977 225.357C372.024 225.237 372.04 225.108 372.023 224.981C372.007 224.855 371.958 224.735 371.882 224.633C371.806 224.531 371.706 224.451 371.59 224.4L367.141 222.357C366.623 222.122 366.523 221.769 366.841 221.299L372.751 212.433C372.9 212.212 372.986 211.954 373 211.687C373.014 211.42 372.955 211.155 372.83 210.918C372.705 210.681 372.518 210.482 372.288 210.342C372.059 210.201 371.796 210.125 371.527 210.121ZM254.56 266.126L254.353 255.995C254.332 255.007 253.986 254.146 253.316 253.413C245.919 245.353 239.141 236.798 232.981 227.749C232.884 227.604 232.884 227.493 232.981 227.417H232.992C233.019 227.396 233.082 227.438 233.178 227.542L253.077 249.328C254.017 250.365 254.491 250.182 254.498 248.778L254.529 243.013C254.536 241.782 254.111 240.728 253.254 239.85C249.479 236 244.581 229.947 238.56 221.693C238.512 221.631 238.519 221.572 238.581 221.517L238.861 221.289C239.068 221.123 239.262 221.137 239.441 221.33L253.803 237.03C254.246 237.514 254.47 237.427 254.477 236.77L254.861 192.016C254.868 191.263 254.623 190.533 254.166 189.942L247.333 180.993C247.276 180.929 247.248 180.844 247.254 180.759C247.259 180.673 247.299 180.593 247.364 180.537C247.428 180.481 247.513 180.452 247.598 180.458C247.684 180.464 247.764 180.503 247.82 180.568L253.45 186.313C254.522 187.405 255.051 187.187 255.037 185.659C254.94 175.311 255.196 164.658 255.804 153.701C255.811 153.632 255.856 153.597 255.939 153.597C255.953 153.59 255.97 153.587 255.991 153.587C256.026 153.587 256.046 153.607 256.053 153.649C256.772 164.184 257.287 174.865 257.598 185.69C257.599 185.803 257.633 185.912 257.696 186.005C257.758 186.098 257.847 186.17 257.951 186.214C258.055 186.258 258.17 186.271 258.282 186.252C258.395 186.232 258.499 186.182 258.583 186.105L263.426 181.626C264.214 180.893 264.328 180.99 263.768 181.916C262.524 183.969 260.999 186.012 259.195 188.044C257.515 189.932 257.443 191.114 257.443 193.509C257.45 202.994 257.519 212.243 257.65 221.258C257.671 222.474 258.072 222.616 258.853 221.683C261.701 218.275 264.93 215.268 268.538 212.661C268.575 212.638 268.619 212.629 268.662 212.635C268.705 212.64 268.745 212.661 268.774 212.693C268.804 212.725 268.821 212.766 268.824 212.81C268.826 212.853 268.813 212.896 268.787 212.931L259.102 225.053C258.279 226.076 257.861 227.244 257.847 228.558L257.795 234.261C257.782 235.609 258.207 235.765 259.071 234.728C264.491 228.202 270.339 222.084 276.616 216.374C276.692 216.305 276.768 216.305 276.844 216.374L277.051 216.56C277.1 216.609 277.103 216.657 277.062 216.706L258.252 239.829C257.975 240.175 257.833 240.569 257.826 241.011L257.775 248.529C257.768 249.421 258.061 249.535 258.656 248.872L279.011 226.266C279.036 226.233 279.073 226.211 279.114 226.205C279.154 226.2 279.196 226.21 279.229 226.235C279.262 226.26 279.284 226.297 279.29 226.337C279.295 226.378 279.285 226.42 279.26 226.453C273.946 235.036 267.342 243.073 260.921 250.89C259.988 252.026 259.059 253.157 258.137 254.284C258.07 254.365 258.034 254.468 258.034 254.575L258.003 266.614C258.002 266.662 258.018 266.709 258.047 266.747C258.075 266.786 258.116 266.814 258.163 266.827C258.211 266.841 258.261 266.84 258.309 266.824C258.356 266.808 258.398 266.778 258.428 266.738C274.231 244.492 290.874 222.889 308.357 201.929C308.454 201.812 308.564 201.798 308.689 201.888L308.906 202.053C308.948 202.088 308.955 202.126 308.927 202.168L258.179 273.323C258.017 273.546 257.927 273.813 257.92 274.09L257.795 286.585C257.782 288.161 258.21 288.293 259.081 286.979C260.436 284.926 262.095 282.869 264.058 280.809C275.61 268.656 286.56 260.827 301.181 251.599C306.02 248.543 313.635 244.824 324.025 240.441C324.184 240.372 324.305 240.417 324.388 240.576L324.512 240.835C324.595 240.994 324.561 241.115 324.409 241.198C318.954 244.392 313.548 247.6 308.191 250.821C289.222 262.241 272.589 276.413 258.293 293.336C258.065 293.612 257.947 293.93 257.941 294.29L257.733 303.913C257.705 305.198 258.075 305.323 258.843 304.286C262.797 298.942 267.84 295.223 273.972 293.128C289.235 287.902 308.761 288.369 324.046 292.568C324.115 292.589 324.142 292.634 324.129 292.703L324.113 292.819C324.106 292.811 324.094 292.807 324.077 292.807C323.423 292.768 322.764 292.729 322.099 292.689C298.912 291.297 269.844 289.552 256.416 312.768C256.367 312.852 256.296 312.921 256.212 312.97C256.127 313.018 256.031 313.043 255.934 313.043C255.837 313.043 255.741 313.018 255.656 312.97C255.572 312.921 255.501 312.852 255.452 312.768C248.224 300.221 236.548 293.999 221.855 293.076C211.395 292.413 201.202 292.572 191.275 293.553C188.261 293.851 186.229 294.02 185.178 294.062C185.144 294.062 185.126 294.044 185.126 294.01L185.095 293.75C185.074 293.55 185.161 293.429 185.354 293.388C188.569 292.682 191.783 291.974 194.998 291.262C203.086 289.458 210.604 289.001 218.568 289.385C219.211 289.419 219.425 289.129 219.211 288.514C217.531 283.716 214.731 279.62 210.811 276.226C210.803 276.22 210.795 276.211 210.79 276.201C210.785 276.192 210.782 276.181 210.781 276.169C210.78 276.158 210.781 276.146 210.784 276.134C210.786 276.128 210.788 276.123 210.791 276.117C210.794 276.112 210.797 276.107 210.801 276.102L210.977 275.905C211.129 275.732 211.292 275.721 211.465 275.874C211.806 276.168 212.146 276.459 212.483 276.747C214.925 278.833 217.243 280.814 219.065 283.547C220.296 285.4 221.482 287.273 222.622 289.167C222.809 289.478 223.082 289.641 223.441 289.655C235.954 290.27 246.192 295.316 254.156 304.794C254.536 305.243 254.678 305.178 254.581 304.597C254.409 303.497 254.414 302.036 254.419 300.485C254.429 297.356 254.44 293.866 253.005 292.257C246.016 284.446 239.663 277.92 233.946 272.68C229.606 268.707 224.811 265.266 220.016 261.826C218.429 260.688 216.841 259.548 215.27 258.391C212.706 256.497 210.286 254.827 208.012 253.382C199.405 247.907 190.788 242.449 182.161 237.009C181.117 236.345 180.059 235.688 178.988 235.039C178.856 234.963 178.801 234.869 178.822 234.759C178.826 234.74 178.832 234.72 178.84 234.699C178.844 234.688 178.848 234.677 178.853 234.665C178.88 234.603 178.925 234.589 178.988 234.624C184.725 237.444 190.463 240.261 196.201 243.075C198.075 243.989 199.953 245.102 201.836 246.219C203.307 247.091 204.781 247.965 206.259 248.747C207.199 249.245 207.417 249.027 206.912 248.094C204.673 243.925 202.022 240.044 198.959 236.449C198.779 236.242 198.79 236.045 198.99 235.858L199.229 235.64C199.367 235.523 199.495 235.533 199.612 235.671C200.456 236.639 202.27 238.468 205.056 241.157C207.296 243.32 209.087 246.068 210.428 249.4C211.375 251.768 212.562 252.488 214.044 253.386C214.672 253.766 215.352 254.178 216.089 254.761C219 257.07 222.014 259.234 225.132 261.253C225.408 261.432 225.633 261.477 225.806 261.387C226.054 261.249 226.117 261.052 225.992 260.796C221.554 251.485 215.944 242.94 209.163 235.163C209.156 235.156 209.159 235.149 209.173 235.142L209.609 235.028C209.816 234.973 209.996 235.021 210.148 235.173C215.028 239.86 219.069 244.592 222.27 249.369C225.38 254.015 228.46 259.566 231.509 266.023C231.937 266.942 232.677 267.768 233.728 268.501C241.291 273.762 247.851 279.928 253.409 287C254.038 287.802 254.342 287.691 254.322 286.668C254.305 285.9 254.335 284.879 254.369 283.725C254.484 279.786 254.644 274.302 253.16 272.089C239.708 252.055 225.826 232.325 211.517 212.9C208.157 208.344 204.818 203.782 201.5 199.212C201.469 199.165 201.456 199.108 201.463 199.052C201.471 198.995 201.499 198.941 201.541 198.901L201.78 198.704C201.786 198.697 201.793 198.697 201.8 198.704C203.231 200.156 204.604 201.666 205.917 203.236C222.957 223.587 238.888 244.641 253.71 266.396C254.297 267.253 254.581 267.163 254.56 266.126ZM324.118 292.859C324.122 292.841 324.12 292.828 324.113 292.819C323.983 293.756 323.985 293.77 324.118 292.859ZM201.033 277.844C200.964 277.795 200.964 277.719 201.033 277.616H201.043C201.106 277.526 201.182 277.512 201.271 277.574C202.675 278.576 204.092 279.562 205.523 280.529C206.711 281.324 207.459 282.363 208.239 283.445C208.65 284.016 209.069 284.599 209.567 285.165C209.609 285.214 209.639 285.273 209.653 285.336C209.668 285.399 209.666 285.465 209.648 285.528C209.631 285.591 209.598 285.648 209.553 285.695C209.508 285.742 209.452 285.777 209.391 285.797L208.903 285.942C208.774 285.98 208.636 285.973 208.512 285.922C208.388 285.872 208.284 285.78 208.219 285.662C206.442 282.475 204.047 279.869 201.033 277.844Z" fill="black"/>
</svg>
