<svg width="512" height="512" viewBox="0 0 512 512" fill="none" xmlns="http://www.w3.org/2000/svg">
<rect width="512" height="512" fill="white"/>
<path fill-rule="evenodd" clip-rule="evenodd" d="M259.198 106.941C254.858 103.93 248.727 108.826 246.801 112.095C239.3 124.926 236.818 143.087 235.543 158.061C235.363 160.195 234.268 161.922 232.261 163.242C231.904 163.478 231.473 163.57 231.054 163.5C228.205 163.057 226.293 162.935 225.317 163.134C215.334 165.114 214.208 176.141 218.277 183.737C220.243 187.392 223.694 191.16 227.239 195.031C230.298 198.371 233.428 201.788 235.733 205.275C240.589 212.64 232.478 218.133 225.954 213.725C225.146 213.18 224.355 212.638 223.578 212.107L223.574 212.104L223.573 212.103C216.607 207.334 210.728 203.31 202.896 203.444C193.714 203.607 186.58 208.517 186.186 218.187C185.706 230.205 205.506 243.719 217.53 251.926C219.429 253.223 221.135 254.387 222.536 255.392C226.695 258.367 229.304 260.727 230.362 262.472C232.356 265.754 231.067 270.461 226.673 270.556C222.541 270.637 218.815 270.063 215.497 268.833C212.82 267.848 207.164 267.563 198.529 267.979C190.906 268.345 180.096 272.007 180.001 281.149C179.841 294.626 195.314 297.568 208.873 300.147C219.438 302.156 228.841 303.943 228.775 310.323C228.748 313.769 225.384 315.79 222.265 316.047C220.596 316.185 218.589 316.222 216.423 316.262C211.108 316.362 204.831 316.479 200.224 318.136C195.124 319.981 190.73 325.935 193.592 331.604C198.511 341.387 214.458 344.33 226.547 346.56C228.923 346.999 231.15 347.41 233.115 347.84C239.789 349.305 244.735 352.971 247.954 358.84C250.44 363.379 251.806 368.217 252.05 373.353C252.529 383.172 252.525 392.712 252.036 401.971C251.892 404.684 253.18 406.027 255.902 406L256.458 405.986C259.342 405.95 260.717 404.494 260.581 401.619C259.966 388.299 259.912 377.693 260.419 369.799C260.988 361.019 264.641 354.617 271.378 350.593C273.846 349.11 278.756 347.605 286.107 346.077C292.193 344.811 298.224 343.323 304.201 341.614C311.051 339.648 322.552 333.286 318.076 324.063C314.508 316.715 305.411 316.52 297.339 316.347C290.408 316.198 284.233 316.066 282.961 311.436C281.577 306.417 287.152 303.325 290.746 302.457C297.971 300.739 305.2 299.039 312.434 297.357C317.995 296.068 324.234 294.509 328.385 290.345C333.756 284.974 332.345 275.818 326.621 271.614C319.175 266.12 305.042 267.206 296.226 269.145C290.547 270.402 286.686 270.931 284.643 270.732C279 270.176 278.729 265.7 281.686 261.943C283.223 259.999 284.733 258.543 286.216 257.576L286.289 257.528L286.29 257.527C297.281 250.34 308.752 242.838 318.049 233.487C320.617 230.91 322.448 228.102 323.543 225.064C326.554 216.668 322.444 205.479 312.773 203.905C306.887 202.956 301.231 204.271 295.805 207.852C295.491 208.06 295.115 208.317 294.687 208.608L294.686 208.609L294.686 208.609C289.896 211.875 278.661 219.534 275.474 212.437C273.561 208.164 278.376 202.183 281.794 198.588C286.609 193.529 293.405 186.178 295.086 179.776C296.402 174.771 295.561 167.881 291.126 164.477C288.481 162.456 284.833 162.862 281.754 163.229C280.909 163.33 280.058 163.114 279.363 162.623C278.669 162.132 278.182 161.4 277.997 160.57C277.291 157.442 276.69 154.318 276.193 151.198C274.253 139.072 269.954 114.387 259.198 106.941ZM302.831 283.956C288.223 285.679 273.792 287.849 259.469 291.118C259.338 291.146 259.203 291.145 259.073 291.116C258.944 291.086 258.822 291.028 258.718 290.946C258.614 290.864 258.53 290.76 258.472 290.642C258.414 290.524 258.384 290.395 258.384 290.263L258.153 257.155C258.149 256.758 258.248 256.367 258.441 256.02C258.633 255.673 258.913 255.381 259.252 255.175C273.475 246.386 287.305 237.013 300.742 227.058C300.932 226.922 300.982 226.787 300.891 226.651L300.701 226.339C300.656 226.267 300.597 226.253 300.525 226.298L259.346 248.922C259.217 248.995 259.07 249.032 258.921 249.03C258.773 249.028 258.627 248.987 258.498 248.91C258.369 248.833 258.262 248.724 258.187 248.593C258.112 248.462 258.073 248.313 258.072 248.163V198.873C258.072 198.308 258.195 197.749 258.434 197.236C258.673 196.723 259.022 196.268 259.455 195.903L278.254 180.196C279.556 179.111 279.465 178.98 277.983 179.803C271.59 183.357 265.351 187.168 259.265 191.237C259.132 191.326 258.976 191.377 258.816 191.384C258.655 191.391 258.496 191.354 258.355 191.277C258.214 191.201 258.097 191.087 258.016 190.948C257.935 190.81 257.893 190.652 257.895 190.491C257.908 189.679 257.921 188.865 257.934 188.05C258.16 174.089 258.39 159.788 256.647 146.152C256.195 142.535 255.834 142.544 255.562 146.179C254.45 161.334 254.057 176.521 254.382 191.739C254.385 191.867 254.353 191.993 254.29 192.104C254.227 192.215 254.134 192.307 254.023 192.37C253.912 192.432 253.785 192.464 253.657 192.46C253.529 192.456 253.405 192.418 253.297 192.349L233.237 179.654C232.893 179.437 232.857 179.478 233.129 179.776C239.06 186.223 245.679 191.847 252.985 196.649C253.339 196.878 253.629 197.192 253.831 197.564C254.032 197.936 254.138 198.353 254.138 198.778L254.152 248.068C254.151 248.166 254.125 248.263 254.076 248.349C254.028 248.435 253.959 248.507 253.875 248.557C253.792 248.608 253.697 248.636 253.6 248.638C253.504 248.64 253.409 248.616 253.324 248.569L210.356 224.589C209.768 224.255 209.659 224.368 210.03 224.928C210.582 225.742 212.096 227.026 214.574 228.78C227.378 237.814 240.48 246.431 253.881 254.632C254.061 254.741 254.152 254.904 254.152 255.121L254.097 289.368C254.097 289.829 253.867 290.033 253.406 289.978L204.849 283.346C204.795 283.337 204.763 283.359 204.754 283.414L204.686 283.78C204.659 283.925 204.718 284.011 204.863 284.038L253.474 295.933C253.862 296.023 254.057 296.267 254.057 296.665L254.064 297.356C254.292 317.885 254.517 338.169 255.671 358.69C255.68 358.808 255.739 358.867 255.847 358.867H256.254C256.534 358.867 256.684 358.727 256.702 358.446C258.148 338.029 258.637 317.589 258.166 297.126C258.157 296.53 258.442 296.159 259.021 296.014C273.651 292.533 288.381 288.776 303.211 284.743C303.283 284.716 303.31 284.666 303.292 284.594L303.224 284.255C303.188 284.029 303.057 283.929 302.831 283.956ZM215.768 328.539C208.443 328.141 208.453 327.893 215.795 327.793C225.425 327.667 235.887 327.707 247.181 327.915C247.312 327.919 247.441 327.953 247.558 328.013C247.675 328.073 247.776 328.159 247.855 328.264C247.933 328.368 247.987 328.489 248.011 328.617C248.035 328.744 248.029 328.875 247.994 329L247.859 329.489C247.606 330.411 247 330.899 246.041 330.953C243.03 331.125 239.933 331.189 236.75 331.143C233.09 331.092 229.309 330.454 225.528 329.816L225.528 329.816C222.248 329.263 218.968 328.709 215.768 328.539ZM264.438 328.568C264.424 328.607 264.417 328.647 264.419 328.688L264.568 331.374C264.57 331.415 264.58 331.455 264.597 331.492C264.606 331.511 264.616 331.528 264.628 331.544C264.64 331.561 264.654 331.577 264.669 331.591C264.7 331.618 264.735 331.64 264.774 331.654C264.812 331.668 264.853 331.674 264.894 331.672L265.125 331.659C268.952 331.445 272.739 331.194 276.27 330.921C279.802 330.648 283.008 330.357 285.705 330.066C288.402 329.775 290.537 329.489 291.988 329.225C293.44 328.961 294.179 328.723 294.164 328.526L294.15 328.227C294.146 328.029 293.387 327.875 291.916 327.774C290.446 327.673 288.293 327.627 285.581 327.638C282.868 327.65 279.65 327.718 276.109 327.84C272.569 327.962 268.776 328.135 264.948 328.349L264.718 328.363C264.677 328.365 264.637 328.374 264.599 328.392C264.562 328.409 264.529 328.434 264.501 328.464C264.473 328.494 264.452 328.529 264.438 328.568Z" fill="black"/>
</svg>
