<svg width="512" height="512" viewBox="0 0 512 512" fill="none" xmlns="http://www.w3.org/2000/svg">
<rect width="512" height="512" fill="white"/>
<path d="M256.558 106.398C263.715 116.894 273.36 143.231 264.741 154.818C261.22 159.589 258.427 164.746 256.362 170.289C256.316 170.402 256.239 170.501 256.139 170.571C256.038 170.642 255.92 170.682 255.798 170.687C255.675 170.691 255.554 170.66 255.449 170.597C255.344 170.534 255.259 170.442 255.205 170.332C253.067 165.633 250.659 161.066 247.983 156.629C238.905 141.486 246.106 119.469 255.467 106.376C255.845 105.867 256.209 105.875 256.558 106.398Z" fill="black"/>
<path d="M281.106 219.712C288.147 207.536 292.678 198.634 294.7 193.004C300.199 177.773 306.592 162.259 309.276 146.243C309.323 145.977 309.447 145.73 309.632 145.533C309.817 145.335 310.054 145.196 310.315 145.134C310.576 145.071 310.849 145.086 311.099 145.179C311.349 145.271 311.565 145.437 311.72 145.654C320.492 157.59 324.398 174.588 318.135 188.291C313.073 199.31 304.716 204.525 293.325 211.159C288.503 213.974 285.121 217.748 281.215 221.48C280.08 222.542 279.717 222.323 280.124 220.825C280.153 220.68 280.32 220.483 280.626 220.236C280.83 220.09 280.99 219.916 281.106 219.712Z" fill="black"/>
<path d="M215.078 193.047C217.849 201.819 224.548 211.398 229.654 219.079C229.69 219.13 229.712 219.189 229.719 219.252C229.727 219.314 229.718 219.378 229.694 219.438C229.671 219.497 229.633 219.551 229.585 219.595C229.536 219.639 229.477 219.672 229.414 219.69C229.21 219.733 229.014 219.784 228.825 219.843C228.738 219.857 228.628 219.806 228.498 219.69C218.94 211.747 205.193 204.328 198.473 196.997C185.817 183.184 185.642 160.775 197.993 146.046C198.138 145.871 198.329 145.738 198.544 145.662C198.759 145.586 198.99 145.57 199.214 145.615C199.437 145.659 199.644 145.763 199.813 145.916C199.983 146.069 200.107 146.265 200.175 146.482C205.164 161.829 210.132 177.351 215.078 193.047Z" fill="black"/>
<path d="M255.882 216.33C256.712 192.655 252.195 167.103 277.637 154.578C277.803 154.494 277.987 154.451 278.173 154.452C278.359 154.454 278.542 154.501 278.708 154.588C278.874 154.675 279.018 154.801 279.128 154.954C279.237 155.108 279.31 155.286 279.339 155.472C281.543 169.852 279.056 179.388 271.222 192.524C265.134 202.736 262.123 212.991 256.864 222.549C256.37 223.436 255.919 223.414 255.511 222.483C250.405 210.438 244.885 200.423 238.339 189.163C232.338 178.842 231.247 167.954 232.229 156.52C232.249 156.26 232.332 156.009 232.471 155.789C232.61 155.569 232.801 155.386 233.027 155.257C233.253 155.128 233.508 155.056 233.768 155.048C234.028 155.04 234.286 155.096 234.52 155.211C242.07 158.92 247.554 164.273 250.973 171.271C253.053 175.518 254.217 182.195 254.464 191.302C254.682 199.652 254.944 207.994 255.25 216.33C255.264 216.519 255.366 216.613 255.555 216.613H255.577C255.781 216.613 255.882 216.519 255.882 216.33Z" fill="black"/>
<path d="M271.897 231.538C272.574 214.736 274.385 192 291.667 183.664C291.843 183.579 292.039 183.546 292.234 183.569C292.428 183.592 292.612 183.67 292.763 183.794C292.914 183.917 293.027 184.082 293.088 184.268C293.149 184.454 293.155 184.653 293.107 184.842C289.485 198.611 283.92 210.722 278.618 223.639C277.163 227.189 275.018 231 272.181 235.073C271.728 235.725 271.498 236.498 271.526 237.277L271.657 240.572C271.715 242.114 272.13 242.216 272.901 240.877C285.557 219.348 304.519 211.478 329.787 217.268C330.088 217.341 330.366 217.49 330.595 217.7C330.823 217.91 330.994 218.175 331.093 218.469C331.191 218.763 331.212 219.078 331.156 219.383C331.099 219.688 330.966 219.974 330.769 220.213C326.95 224.796 323.546 229.88 318.899 233.044C311.974 237.772 304.322 240.121 295.943 240.092C286.015 240.048 280.953 239.066 272.748 243.67C272.094 244.034 271.519 244.499 271.025 245.067L269.257 247.14C268.152 248.42 267.911 248.274 268.537 246.703C269.657 243.867 269.875 241.248 269.192 238.848C267.402 232.52 266.311 226.57 265.919 220.999C265.899 220.694 265.986 220.392 266.165 220.145C266.345 219.898 266.605 219.722 266.9 219.646L267.708 219.428C267.986 219.355 268.278 219.346 268.561 219.403C268.843 219.46 269.109 219.58 269.338 219.754C269.567 219.929 269.754 220.153 269.883 220.41C270.013 220.667 270.082 220.951 270.086 221.239C270.13 225.618 270.501 229.08 271.199 231.625C271.606 233.138 271.839 233.109 271.897 231.538Z" fill="black"/>
<path d="M240.302 242.471C241.458 234.746 235.982 229.837 233.21 224.098C226.708 210.591 218.94 200.706 216.147 185.323C216.081 184.971 216.143 184.608 216.324 184.299C216.504 183.991 216.79 183.757 217.129 183.643C218.074 183.308 219.02 183.57 219.965 184.428C233.319 196.342 235.894 210.765 238.404 227.524C238.767 229.895 239.153 229.902 239.56 227.545C239.982 225.029 240.702 222.658 241.72 220.432C242.317 219.094 242.913 218.563 243.51 218.839C244.203 219.172 244.764 219.761 245.11 220.52C245.456 221.279 245.568 222.166 245.43 223.05L241.873 245.984C241.728 246.987 241.313 247.111 240.629 246.355C236.702 241.976 232.599 239.896 228.323 240.114C207.899 241.161 190.53 238.434 178.965 219.952C178.814 219.714 178.723 219.443 178.701 219.163C178.679 218.882 178.726 218.6 178.838 218.342C178.95 218.084 179.123 217.857 179.343 217.681C179.563 217.505 179.823 217.386 180.099 217.333C206.284 212.184 226.271 218.905 239.626 242.58C239.975 243.191 240.2 243.154 240.302 242.471Z" fill="black"/>
<path d="M261.991 229.793C270.697 245.22 261.947 258.989 255.336 275.376C254.914 276.438 254.55 276.423 254.245 275.332C249.204 257.156 238.97 242.34 254.965 225.931C255.474 225.407 256.07 225.276 256.754 225.538C259.154 226.469 260.9 227.887 261.991 229.793Z" fill="black"/>
<path d="M192.515 297.546C172.615 288.97 151.514 293.312 142.35 267.673C139.818 260.582 141.128 250.654 151.383 252.006C161.617 253.337 171.196 266.495 176.695 275.376C181.597 283.275 187.191 290.177 193.475 296.084C195.962 298.411 195.642 298.898 192.515 297.546Z" fill="black"/>
<path d="M318.201 295.909C325.62 289.45 329.94 282.097 335.155 273.718C340.196 265.622 348.509 253.818 358.11 252.137C364.089 251.076 367.515 253.374 368.388 259.033C370.068 269.965 363.151 280.286 354.379 285.872C346.022 291.196 330.158 293.225 319.073 297.371C316.077 298.491 315.786 298.004 318.201 295.909Z" fill="black"/>
<path d="M254.157 284.671C255.496 289.733 254.878 289.988 252.303 285.435C251.925 284.78 250.986 282.896 249.488 279.783C244.353 269.12 234.526 263.156 220.009 261.89C216.823 261.614 216.408 260.399 218.765 258.246L221.689 255.584C222.503 254.846 223.467 254.294 224.514 253.966C225.562 253.638 226.668 253.543 227.755 253.686C244.186 255.824 250.382 270.51 254.157 284.671Z" fill="black"/>
<path d="M291.122 262.24C271.374 263.375 266.159 269.877 257.758 285.632C257.045 286.97 256.762 286.883 256.907 285.37C257.62 278.329 259.817 271.841 263.497 265.906C269.388 256.414 283.092 249.279 292.605 258.094C292.947 258.414 293.187 258.827 293.297 259.282C293.406 259.736 293.381 260.213 293.223 260.654C293.066 261.094 292.783 261.479 292.409 261.761C292.036 262.043 291.588 262.209 291.122 262.24Z" fill="black"/>
<path d="M252.26 353.777C251.911 340.117 245.976 325.781 237.858 314.893C227.646 301.212 219.66 290.498 221.58 273.26C221.668 272.489 222.089 272.183 222.846 272.343C257.344 279.609 255.271 325.498 254.311 351.77C254.282 352.701 253.875 353.493 253.089 354.148C252.551 354.599 252.274 354.475 252.26 353.777Z" fill="black"/>
<path d="M256.493 333.222C255.598 306.666 258.937 282.162 287.609 271.994C287.857 271.908 288.121 271.882 288.381 271.918C288.641 271.953 288.89 272.049 289.106 272.197C289.322 272.346 289.501 272.543 289.627 272.773C289.754 273.003 289.825 273.259 289.834 273.521C290.249 287.901 285.492 298.942 275.782 311.445C264.915 325.454 260.115 342.692 257.518 359.974C257.329 361.21 256.667 362.49 255.533 363.814C255.053 364.367 254.863 364.28 254.965 363.552C256.318 353.471 256.827 343.361 256.493 333.222Z" fill="black"/>
<path d="M226.708 346.248C221.908 340.706 213.223 337.389 206.917 334.88C203.775 333.629 203.818 332.509 207.048 331.52C218.176 328.116 231.923 338.109 238.316 346.598C249.925 362.003 255.315 384.783 254.638 404.094C254.634 404.214 254.597 404.33 254.53 404.429C254.463 404.529 254.369 404.607 254.259 404.655C254.15 404.703 254.029 404.718 253.91 404.7C253.792 404.682 253.681 404.631 253.591 404.553C253.038 404.073 252.631 403.382 252.369 402.48C249.343 392.282 244.666 382.929 238.338 374.419C227.886 360.388 216.278 356.7 200.262 352.031C199.156 351.696 199.083 351.209 200.043 350.569C208.146 345.143 216.816 344.03 226.053 347.23C227.493 347.74 227.712 347.412 226.708 346.248Z" fill="black"/>
<path fill-rule="evenodd" clip-rule="evenodd" d="M248.855 352.358C245 337.535 236.141 326.69 222.278 319.824C221.754 319.562 221.471 319.133 221.427 318.536C221.325 317.343 220.918 316.216 220.205 315.154C211.112 301.404 208.957 288.151 206.674 274.113C205.576 267.366 204.449 260.437 202.509 253.184C202.381 252.699 202.149 252.249 201.827 251.864C201.505 251.48 201.102 251.171 200.646 250.958C200.191 250.746 199.693 250.636 199.19 250.636C198.686 250.636 198.187 250.746 197.73 250.958C183.961 257.483 186.143 280.809 192.122 290.475C196.24 297.13 204.528 303.569 211.964 309.345C213.671 310.671 215.332 311.961 216.888 313.212C216.99 313.285 217.005 313.379 216.932 313.496L216.605 313.954C216.328 314.361 215.979 314.434 215.557 314.172C204.793 307.626 197.883 303.495 194.828 301.778C170.52 288.097 136.066 299.64 136 331.039C135.957 347.819 144.816 359.449 163.101 355.325C163.552 355.223 163.968 355.005 164.31 354.694C164.652 354.383 164.908 353.989 165.053 353.55C165.198 353.111 165.227 352.642 165.137 352.188C165.047 351.735 164.842 351.312 164.541 350.961C149.791 333.723 159.043 317.532 178.288 312.383C192.362 308.63 205.214 311.925 219.223 317.031C219.503 317.128 219.732 317.334 219.863 317.603C219.993 317.872 220.014 318.183 219.921 318.471L219.725 319.016C219.609 319.38 219.369 319.489 219.005 319.344C203.367 313.307 188.442 313.685 174.229 320.478C165.087 324.842 161.835 337.149 169.734 344.175C182.194 355.26 199.89 338.48 187.409 323.337C186.9 322.726 187.038 322.384 187.824 322.311C209.23 320.325 228.737 321.395 240.258 342.561C245.8 352.743 249.699 362.977 251.954 373.262C252.187 374.338 252.71 375.189 253.525 375.815C254.267 376.397 254.681 376.215 254.769 375.269C255.074 371.749 254.303 368.563 252.456 365.712C252.034 365.057 251.867 364.344 251.954 363.573C252.295 360.68 251.103 357.928 250.057 355.516C249.566 354.381 249.107 353.321 248.855 352.358ZM183.893 338.63C185.194 337.329 185.925 335.564 185.925 333.724C185.925 331.883 185.194 330.118 183.893 328.817C182.592 327.516 180.827 326.785 178.986 326.785C177.146 326.785 175.381 327.516 174.08 328.817C172.779 330.118 172.048 331.883 172.048 333.724C172.048 335.564 172.779 337.329 174.08 338.63C175.381 339.931 177.146 340.662 178.986 340.662C180.827 340.662 182.592 339.931 183.893 338.63Z" fill="black"/>
<path fill-rule="evenodd" clip-rule="evenodd" d="M311.676 349.915C303.239 345.202 294.416 344.423 285.208 347.58C283.608 348.118 283.433 347.82 284.684 346.685C290.372 341.536 296.875 337.761 304.192 335.36C306.548 334.59 306.73 333.469 304.737 332C303.268 330.924 300.715 330.786 297.078 331.586C274.775 336.479 269.564 349.899 262.382 368.393C262.039 369.278 261.691 370.173 261.337 371.081C261.308 371.182 261.242 371.212 261.14 371.168L260.617 370.971C260.482 370.919 260.374 370.815 260.313 370.682C260.252 370.548 260.244 370.394 260.289 370.251C264.304 358.89 267.046 351.406 268.515 347.798C278.247 323.796 298.584 318.952 322.281 323.097C323.27 323.272 323.474 323.774 322.892 324.603C317.939 331.738 318.615 340.75 325.794 345.878C334.13 351.813 346.654 345.092 345.411 334.291C344.538 326.727 340.268 321.606 332.602 318.93C318.462 314.02 306.745 314.653 291.536 318.493C291.172 318.581 290.94 318.45 290.838 318.101L290.641 317.424C290.54 317.075 290.663 316.842 291.012 316.726C297.151 314.602 303.341 313.009 309.582 311.947C324.529 309.372 354.793 313.671 353.222 334.815C352.771 341.114 350.488 346.22 346.371 350.133C345.991 350.498 345.71 350.954 345.554 351.457C345.399 351.961 345.375 352.496 345.485 353.011C345.594 353.527 345.833 354.006 346.179 354.403C346.525 354.801 346.966 355.103 347.462 355.283C366.206 361.981 378.338 344.612 375.392 327.789C370.395 299.117 341.374 288.774 317.131 301.43C309.945 305.183 303.028 309.336 296.38 313.889C295.9 314.238 295.486 314.166 295.136 313.671L294.809 313.213C294.678 313.024 294.707 312.856 294.896 312.711C295.419 312.334 295.942 311.958 296.463 311.584C313.761 299.143 329.552 287.787 322.456 262.982C320.783 257.134 317.641 253.156 313.029 251.046C312.57 250.836 312.069 250.731 311.563 250.74C311.058 250.748 310.561 250.87 310.108 251.096C309.656 251.322 309.26 251.647 308.95 252.046C308.64 252.445 308.423 252.909 308.316 253.403C307.083 259.035 306.259 265.227 305.469 271.168C304.636 277.426 303.84 283.406 302.643 288.163C300.17 297.924 296.249 307.081 290.881 315.635C289.383 318.035 287.019 320.377 283.79 322.661C276.487 327.84 270.697 334.357 266.421 342.212C261.969 350.395 256.951 367.546 258.216 376.863C258.318 377.605 258.231 378.318 257.954 379.001C256.148 383.453 256.183 391.552 256.212 398.402C256.223 400.987 256.233 403.394 256.143 405.36C256.142 405.5 256.186 405.636 256.27 405.747C256.354 405.859 256.472 405.94 256.607 405.977C256.741 406.014 256.884 406.006 257.013 405.954C257.143 405.902 257.251 405.808 257.322 405.688C258.951 402.735 260.813 398.48 262.908 392.923C271.621 369.837 287.739 356.301 311.262 352.315C313.691 351.908 313.829 351.108 311.676 349.915ZM332.174 340.926C333.007 341 333.83 340.891 334.595 340.607C335.36 340.322 336.054 339.867 336.636 339.267C337.217 338.666 337.676 337.933 337.986 337.109C338.296 336.285 338.45 335.386 338.44 334.463C338.43 333.54 338.257 332.612 337.929 331.731C337.601 330.85 337.126 330.034 336.531 329.329C335.935 328.624 335.231 328.044 334.458 327.622C333.685 327.201 332.859 326.945 332.026 326.871C331.193 326.797 330.371 326.906 329.606 327.19C328.84 327.475 328.147 327.93 327.565 328.53C326.983 329.13 326.524 329.864 326.215 330.688C325.905 331.512 325.751 332.411 325.76 333.334C325.77 334.257 325.944 335.185 326.271 336.066C326.599 336.947 327.074 337.763 327.67 338.468C328.265 339.173 328.97 339.753 329.743 340.175C330.515 340.596 331.342 340.852 332.174 340.926Z" fill="black"/>
</svg>
