<svg width="512" height="512" viewBox="0 0 512 512" fill="none" xmlns="http://www.w3.org/2000/svg">
<rect width="512" height="512" fill="white"/>
<path d="M257.692 358.004C260.948 360.928 263.779 361.696 266.185 360.306C289.611 346.618 319.01 323.317 339.48 308.882C359.846 294.53 380.12 280.043 400.3 265.421C402.27 263.969 403.691 262.756 404.562 261.781C405.088 261.175 405.484 260.467 405.726 259.702C405.968 258.936 406.051 258.13 405.969 257.331C405.888 256.532 405.643 255.759 405.252 255.058C404.86 254.358 404.328 253.745 403.691 253.257L360.386 220.312" stroke="black" stroke-width="2"/>
<path d="M339.192 308.474L339.192 308.474C359.556 294.123 379.827 279.638 400.004 265.019C401.964 263.575 403.35 262.387 404.187 261.452C404.667 260.897 405.028 260.251 405.25 259.552C405.471 258.851 405.547 258.113 405.472 257.382C405.397 256.652 405.174 255.944 404.815 255.303C404.457 254.662 403.971 254.102 403.388 253.656L339.192 308.474ZM339.192 308.474C332.953 312.873 325.897 318.087 318.439 323.597C301.379 336.202 282.218 350.359 265.934 359.875L339.192 308.474ZM360.096 220.72L403.387 253.655L257.134 206.271C256.803 191.076 256.813 175.819 257.165 160.5V160.5C257.227 157.779 257.717 155.892 258.487 154.645C259.243 153.419 260.286 152.781 261.558 152.575C262.854 152.365 264.412 152.602 266.159 153.2C267.901 153.796 269.793 154.737 271.74 155.89C275.634 158.198 279.696 161.326 283.14 164.143C284.664 165.39 286.076 166.584 287.296 167.615C288.813 168.898 290.034 169.93 290.806 170.503L290.807 170.504C313.29 187.096 336.384 203.833 360.089 220.715C360.092 220.717 360.094 220.718 360.096 220.72Z" fill="white" stroke="black"/>
<path d="M265.735 220.16L265.734 220.161C264.404 220.641 262.882 220.875 261.178 220.875C213.429 220.896 165.919 220.097 118.647 218.479C118.464 218.473 118.281 218.504 118.11 218.57C117.939 218.636 117.783 218.736 117.651 218.863C117.52 218.991 117.415 219.143 117.343 219.312C117.272 219.48 117.235 219.661 117.235 219.844C117.235 219.845 117.235 219.845 117.235 219.846L117.888 299.483C117.888 299.483 117.888 299.483 117.888 299.483C117.898 300.545 118.172 301.248 118.624 301.688C119.076 302.128 119.793 302.388 120.868 302.378L263.875 301.103C263.876 301.103 263.877 301.103 263.877 301.103C264.516 301.091 265.089 301.244 265.503 301.65C265.915 302.055 266.084 302.629 266.096 303.274V303.274L266.749 341.875C266.749 341.876 266.749 341.877 266.749 341.879C266.757 342.148 266.833 342.411 266.969 342.643C267.106 342.877 267.299 343.072 267.53 343.212C267.762 343.351 268.025 343.43 268.295 343.442C268.564 343.453 268.832 343.397 269.074 343.278C277.075 339.27 285.08 333.708 292.526 328.162C295.174 326.19 297.754 324.218 300.238 322.319C304.721 318.891 308.89 315.705 312.57 313.198C338.364 295.615 364.023 277.41 389.548 258.583C389.714 258.454 389.843 258.283 389.921 258.088C389.999 257.891 390.022 257.678 389.989 257.473C389.956 257.268 389.867 257.079 389.734 256.925C389.601 256.771 389.428 256.658 389.233 256.598L389.228 256.596C387.946 256.183 386.605 255.483 385.207 254.508C345.666 227.103 307.327 198.007 270.192 167.22M265.735 220.16L270.511 166.835M265.735 220.16C266.279 219.963 266.75 219.605 267.087 219.134C267.423 218.663 267.609 218.101 267.62 217.522L267.62 217.515L267.807 168.334M265.735 220.16L267.807 168.334M270.192 167.22C270.192 167.22 270.192 167.22 270.192 167.22L270.511 166.835M270.192 167.22C270.193 167.221 270.193 167.221 270.194 167.221L270.511 166.835M270.192 167.22C269.98 167.046 269.722 166.935 269.45 166.901C269.177 166.866 268.899 166.91 268.65 167.026C268.4 167.142 268.189 167.327 268.04 167.558C267.89 167.789 267.81 168.058 267.807 168.333L267.807 168.33L267.307 168.328M270.511 166.835C270.225 166.6 269.879 166.451 269.513 166.405C269.146 166.358 268.774 166.416 268.439 166.573C268.104 166.729 267.82 166.976 267.619 167.287C267.419 167.598 267.311 167.959 267.307 168.328M267.307 168.328L267.807 168.334M267.307 168.328L267.807 168.334" fill="black" stroke="black"/>
<mask id="path-4-inside-1_61_8007" fill="white">
<path d="M156.275 268.812C151.018 272.203 144.733 276.527 143.271 282.967C143.043 284.025 142.39 284.523 141.311 284.46C139.507 284.336 138.594 283.289 138.574 281.318C138.491 267.091 138.024 252.863 137.174 238.636C137.153 238.47 137.07 238.387 136.925 238.387C136.883 238.387 136.831 238.387 136.769 238.387C136.645 238.387 136.583 238.387 136.583 238.387L135.649 287.603C135.645 287.721 135.619 287.837 135.571 287.945C135.523 288.053 135.456 288.15 135.372 288.231C135.288 288.312 135.19 288.375 135.083 288.417C134.975 288.458 134.861 288.478 134.747 288.474H133.876C133.005 288.474 132.569 288.038 132.569 287.167L131.792 230.827C131.792 230.309 131.522 230.07 130.983 230.112L130.174 230.174C129.946 230.174 129.832 230.288 129.832 230.516L128.681 290.527C128.675 290.785 128.612 291.039 128.495 291.268C128.377 291.498 128.21 291.697 128.005 291.85C127.801 292.004 127.564 292.107 127.315 292.153C127.065 292.199 126.808 292.185 126.565 292.113L125.663 291.865C125.113 291.71 124.629 291.385 124.281 290.936C123.933 290.487 123.742 289.94 123.734 289.376L123.33 242.4C123.33 241.342 123.589 240.357 124.108 239.445C126.493 235.172 126.358 230.983 123.703 226.876C123.468 226.503 123.336 226.073 123.321 225.632C123.307 225.191 123.41 224.755 123.62 224.37C123.83 223.985 124.139 223.665 124.515 223.444C124.891 223.222 125.32 223.108 125.756 223.112L267.866 224.201C268.892 224.209 269.88 223.812 270.614 223.095C271.348 222.378 271.769 221.4 271.786 220.374L272.284 178.407C272.325 175.151 273.611 174.549 276.141 176.603C310.829 204.664 345.547 231.045 382.164 256.151C383.636 257.167 383.647 258.204 382.195 259.262C357.494 277.274 336.619 292.456 308.9 309.659C297.431 316.753 286.366 324.271 275.706 332.214C274.938 332.774 274.285 332.67 273.746 331.903L273.248 331.156C272.418 329.933 272.626 328.916 273.87 328.108C293.656 315.041 315.713 304.371 334.721 290.029C335.634 289.365 335.52 289.034 334.379 289.034C332.637 289.054 331.029 289.48 329.557 290.309C311.368 300.721 292.951 310.427 274.306 319.428C273.476 319.843 272.999 319.594 272.875 318.681L272.377 314.668C272.33 314.313 272.402 313.952 272.583 313.643C272.763 313.333 273.04 313.092 273.372 312.957C297.514 302.473 319.571 286.14 341.876 272.234C342.055 272.125 342.184 271.95 342.236 271.746C342.289 271.543 342.26 271.328 342.156 271.145L341.752 270.461C341.752 270.44 341.742 270.44 341.721 270.461C318.202 282.936 296.674 297.527 272.035 308.042C270.79 308.581 270.313 308.187 270.604 306.86C271.268 303.624 273.227 302.058 276.483 302.162C277.603 302.203 278.63 301.923 279.563 301.322L306.1 284.958C306.494 284.709 306.567 284.378 306.318 283.963L306.287 283.932C306.1 283.6 305.872 283.506 305.602 283.652L276.235 300.42C276.063 300.516 275.873 300.577 275.678 300.601C275.483 300.625 275.286 300.611 275.098 300.558C274.91 300.506 274.735 300.418 274.583 300.298C274.431 300.178 274.305 300.029 274.212 299.86L273.808 299.144C273.663 298.895 273.715 298.698 273.964 298.553L301.34 281.661C301.631 281.474 301.641 281.163 301.371 280.727V280.696C301.205 280.447 300.988 280.395 300.718 280.541C291.468 285.352 282.488 290.641 273.777 296.407C270.199 298.802 267.088 298.709 263.2 297.589C262.142 297.278 261.966 296.707 262.671 295.878L263.417 294.913C263.687 294.602 263.614 294.447 263.2 294.447L141.778 296.5C141.342 296.5 141.114 296.417 141.094 296.251V296.22C141.052 295.805 141.166 295.567 141.436 295.504C158.422 292.373 175.532 290.994 192.767 291.367C193.97 291.388 195.059 291.035 196.033 290.309C197.195 289.438 198.221 289.645 199.113 290.931C199.43 291.382 199.885 291.718 200.411 291.892C200.938 292.065 201.507 292.066 202.038 291.896C211.339 289.002 220.704 292.798 227.703 284.181C232.038 278.809 235.564 275.304 238.281 273.665C238.571 273.499 238.623 273.271 238.436 272.981V272.95C238.25 272.659 238.011 272.608 237.721 272.794C230.317 277.212 222.259 287.229 213.922 287.478C211.018 287.561 210.676 286.659 212.895 284.772L225.432 274.163C225.868 273.811 225.951 273.468 225.681 273.136L225.65 273.105C225.401 272.794 225.111 272.753 224.779 272.981C218.184 277.741 208.384 287.198 200.513 288.474C198.315 288.826 198.024 288.245 199.642 286.731L212.522 274.474C212.874 274.122 212.874 273.769 212.522 273.416L211.931 272.794C211.806 272.67 211.682 272.67 211.557 272.794C204.547 279.286 199.082 283.911 195.162 286.669C194.188 287.374 193.078 287.561 191.834 287.229C190.672 286.918 190.517 286.337 191.367 285.487L207.109 269.777C207.212 269.652 207.202 269.517 207.077 269.372C206.87 269.144 206.715 269.082 206.611 269.186L185.083 287.229C184.851 287.418 184.563 287.523 184.264 287.529C183.965 287.535 183.673 287.44 183.434 287.26L182.687 286.731C182.314 286.441 182.283 286.12 182.594 285.767L194.26 272.545C194.385 272.4 194.281 272.182 193.949 271.892C193.762 271.726 193.607 271.705 193.482 271.83L177.865 287.323C177.758 287.438 177.626 287.527 177.48 287.581C177.334 287.635 177.178 287.653 177.025 287.634L174.443 287.292C173.551 287.188 173.427 286.814 174.07 286.171L185.269 275.003C185.332 274.941 185.332 274.879 185.269 274.816L184.367 273.945C183.994 273.593 183.641 273.613 183.309 274.008C177.544 280.893 170.565 286.14 162.373 289.749C161.896 289.957 161.595 289.811 161.47 289.314C161.408 289.044 161.419 288.754 161.502 288.443C161.564 288.194 161.719 287.976 161.968 287.789C167.838 283.247 173.458 278.425 178.83 273.323C179.12 273.074 179.141 272.794 178.892 272.483H178.861C178.612 272.193 178.332 272.162 178.021 272.39C173.012 276.279 167.63 278.27 162.87 282.501C159.324 285.612 156.057 287.737 153.071 288.878C150.022 290.019 149.587 289.376 151.764 286.949L166.168 270.834C166.458 270.523 166.448 270.223 166.137 269.932L165.515 269.372C165.473 269.331 165.328 269.434 165.079 269.683C159.396 274.91 153.579 279.991 147.627 284.927C144.951 287.146 144.526 286.783 146.351 283.838C149.483 278.798 152.998 274.028 156.897 269.528C158.349 267.869 158.142 267.63 156.275 268.812Z"/>
</mask>
<path d="M156.275 268.812C151.018 272.203 144.733 276.527 143.271 282.967C143.043 284.025 142.39 284.523 141.311 284.46C139.507 284.336 138.594 283.289 138.574 281.318C138.491 267.091 138.024 252.863 137.174 238.636C137.153 238.47 137.07 238.387 136.925 238.387C136.883 238.387 136.831 238.387 136.769 238.387C136.645 238.387 136.583 238.387 136.583 238.387L135.649 287.603C135.645 287.721 135.619 287.837 135.571 287.945C135.523 288.053 135.456 288.15 135.372 288.231C135.288 288.312 135.19 288.375 135.083 288.417C134.975 288.458 134.861 288.478 134.747 288.474H133.876C133.005 288.474 132.569 288.038 132.569 287.167L131.792 230.827C131.792 230.309 131.522 230.07 130.983 230.112L130.174 230.174C129.946 230.174 129.832 230.288 129.832 230.516L128.681 290.527C128.675 290.785 128.612 291.039 128.495 291.268C128.377 291.498 128.21 291.697 128.005 291.85C127.801 292.004 127.564 292.107 127.315 292.153C127.065 292.199 126.808 292.185 126.565 292.113L125.663 291.865C125.113 291.71 124.629 291.385 124.281 290.936C123.933 290.487 123.742 289.94 123.734 289.376L123.33 242.4C123.33 241.342 123.589 240.357 124.108 239.445C126.493 235.172 126.358 230.983 123.703 226.876C123.468 226.503 123.336 226.073 123.321 225.632C123.307 225.191 123.41 224.755 123.62 224.37C123.83 223.985 124.139 223.665 124.515 223.444C124.891 223.222 125.32 223.108 125.756 223.112L267.866 224.201C268.892 224.209 269.88 223.812 270.614 223.095C271.348 222.378 271.769 221.4 271.786 220.374L272.284 178.407C272.325 175.151 273.611 174.549 276.141 176.603C310.829 204.664 345.547 231.045 382.164 256.151C383.636 257.167 383.647 258.204 382.195 259.262C357.494 277.274 336.619 292.456 308.9 309.659C297.431 316.753 286.366 324.271 275.706 332.214C274.938 332.774 274.285 332.67 273.746 331.903L273.248 331.156C272.418 329.933 272.626 328.916 273.87 328.108C293.656 315.041 315.713 304.371 334.721 290.029C335.634 289.365 335.52 289.034 334.379 289.034C332.637 289.054 331.029 289.48 329.557 290.309C311.368 300.721 292.951 310.427 274.306 319.428C273.476 319.843 272.999 319.594 272.875 318.681L272.377 314.668C272.33 314.313 272.402 313.952 272.583 313.643C272.763 313.333 273.04 313.092 273.372 312.957C297.514 302.473 319.571 286.14 341.876 272.234C342.055 272.125 342.184 271.95 342.236 271.746C342.289 271.543 342.26 271.328 342.156 271.145L341.752 270.461C341.752 270.44 341.742 270.44 341.721 270.461C318.202 282.936 296.674 297.527 272.035 308.042C270.79 308.581 270.313 308.187 270.604 306.86C271.268 303.624 273.227 302.058 276.483 302.162C277.603 302.203 278.63 301.923 279.563 301.322L306.1 284.958C306.494 284.709 306.567 284.378 306.318 283.963L306.287 283.932C306.1 283.6 305.872 283.506 305.602 283.652L276.235 300.42C276.063 300.516 275.873 300.577 275.678 300.601C275.483 300.625 275.286 300.611 275.098 300.558C274.91 300.506 274.735 300.418 274.583 300.298C274.431 300.178 274.305 300.029 274.212 299.86L273.808 299.144C273.663 298.895 273.715 298.698 273.964 298.553L301.34 281.661C301.631 281.474 301.641 281.163 301.371 280.727V280.696C301.205 280.447 300.988 280.395 300.718 280.541C291.468 285.352 282.488 290.641 273.777 296.407C270.199 298.802 267.088 298.709 263.2 297.589C262.142 297.278 261.966 296.707 262.671 295.878L263.417 294.913C263.687 294.602 263.614 294.447 263.2 294.447L141.778 296.5C141.342 296.5 141.114 296.417 141.094 296.251V296.22C141.052 295.805 141.166 295.567 141.436 295.504C158.422 292.373 175.532 290.994 192.767 291.367C193.97 291.388 195.059 291.035 196.033 290.309C197.195 289.438 198.221 289.645 199.113 290.931C199.43 291.382 199.885 291.718 200.411 291.892C200.938 292.065 201.507 292.066 202.038 291.896C211.339 289.002 220.704 292.798 227.703 284.181C232.038 278.809 235.564 275.304 238.281 273.665C238.571 273.499 238.623 273.271 238.436 272.981V272.95C238.25 272.659 238.011 272.608 237.721 272.794C230.317 277.212 222.259 287.229 213.922 287.478C211.018 287.561 210.676 286.659 212.895 284.772L225.432 274.163C225.868 273.811 225.951 273.468 225.681 273.136L225.65 273.105C225.401 272.794 225.111 272.753 224.779 272.981C218.184 277.741 208.384 287.198 200.513 288.474C198.315 288.826 198.024 288.245 199.642 286.731L212.522 274.474C212.874 274.122 212.874 273.769 212.522 273.416L211.931 272.794C211.806 272.67 211.682 272.67 211.557 272.794C204.547 279.286 199.082 283.911 195.162 286.669C194.188 287.374 193.078 287.561 191.834 287.229C190.672 286.918 190.517 286.337 191.367 285.487L207.109 269.777C207.212 269.652 207.202 269.517 207.077 269.372C206.87 269.144 206.715 269.082 206.611 269.186L185.083 287.229C184.851 287.418 184.563 287.523 184.264 287.529C183.965 287.535 183.673 287.44 183.434 287.26L182.687 286.731C182.314 286.441 182.283 286.12 182.594 285.767L194.26 272.545C194.385 272.4 194.281 272.182 193.949 271.892C193.762 271.726 193.607 271.705 193.482 271.83L177.865 287.323C177.758 287.438 177.626 287.527 177.48 287.581C177.334 287.635 177.178 287.653 177.025 287.634L174.443 287.292C173.551 287.188 173.427 286.814 174.07 286.171L185.269 275.003C185.332 274.941 185.332 274.879 185.269 274.816L184.367 273.945C183.994 273.593 183.641 273.613 183.309 274.008C177.544 280.893 170.565 286.14 162.373 289.749C161.896 289.957 161.595 289.811 161.47 289.314C161.408 289.044 161.419 288.754 161.502 288.443C161.564 288.194 161.719 287.976 161.968 287.789C167.838 283.247 173.458 278.425 178.83 273.323C179.12 273.074 179.141 272.794 178.892 272.483H178.861C178.612 272.193 178.332 272.162 178.021 272.39C173.012 276.279 167.63 278.27 162.87 282.501C159.324 285.612 156.057 287.737 153.071 288.878C150.022 290.019 149.587 289.376 151.764 286.949L166.168 270.834C166.458 270.523 166.448 270.223 166.137 269.932L165.515 269.372C165.473 269.331 165.328 269.434 165.079 269.683C159.396 274.91 153.579 279.991 147.627 284.927C144.951 287.146 144.526 286.783 146.351 283.838C149.483 278.798 152.998 274.028 156.897 269.528C158.349 267.869 158.142 267.63 156.275 268.812Z" fill="white" stroke="black" stroke-width="2" mask="url(#path-4-inside-1_61_8007)"/>
<path d="M145.849 274.343L145.849 274.343C145.85 274.4 145.828 274.455 145.788 274.497C145.748 274.538 145.694 274.561 145.637 274.562L145.636 274.562L145.575 274.564C145.575 274.564 145.574 274.564 145.574 274.564C145.546 274.564 145.518 274.559 145.492 274.549C145.466 274.538 145.442 274.523 145.421 274.503C145.401 274.484 145.385 274.46 145.373 274.434C145.362 274.408 145.356 274.38 145.356 274.352L145.356 274.352L144.736 238.83L144.736 238.83C144.735 238.773 144.756 238.718 144.796 238.677C144.836 238.635 144.89 238.612 144.947 238.611L144.947 238.611L144.949 238.611L145.01 238.609C145.038 238.609 145.066 238.614 145.092 238.624C145.119 238.635 145.143 238.65 145.163 238.67C145.183 238.69 145.2 238.713 145.211 238.739C145.222 238.765 145.228 238.793 145.229 238.821L145.229 238.821L145.849 274.343Z" fill="black" stroke="black"/>
<path d="M297.021 272.603C285.653 281.752 277.49 288.321 264.777 293.124L264.477 292.345C264.402 292.131 264.428 292.037 264.444 292.002C264.461 291.967 264.519 291.885 264.736 291.808C272.673 288.984 278.583 285.118 284.127 281.009C285.539 279.963 286.925 278.903 288.313 277.842C292.384 274.727 296.476 271.598 301.314 268.746L301.06 268.315L301.314 268.746C301.385 268.705 301.423 268.697 301.436 268.696L301.519 268.817C301.563 268.88 301.573 268.916 301.575 268.929C301.569 268.94 301.55 268.969 301.495 269.013C299.942 270.252 298.456 271.448 297.021 272.603ZM301.432 268.694C301.432 268.694 301.433 268.694 301.435 268.695C301.433 268.694 301.432 268.694 301.432 268.694ZM301.576 268.935C301.576 268.935 301.576 268.934 301.576 268.933C301.576 268.934 301.576 268.935 301.576 268.935ZM301.577 268.926C301.577 268.924 301.577 268.923 301.578 268.923C301.578 268.923 301.577 268.924 301.577 268.926Z" fill="black" stroke="black"/>
<path d="M225.421 291.791L225.421 291.791L225.433 291.785C237.777 285.757 249.379 278.558 260.237 270.189C253.608 276.01 246.799 281.631 239.809 287.052C237.749 288.646 235.258 289.659 232.615 290.448C231.294 290.843 229.944 291.18 228.596 291.507C228.381 291.559 228.166 291.611 227.952 291.663C226.9 291.917 225.852 292.17 224.835 292.443C224.896 292.31 224.977 292.169 225.079 292.018C225.146 291.947 225.252 291.867 225.421 291.791Z" fill="black" stroke="black"/>
<path d="M311.366 278.076C311.386 278.057 311.407 278.038 311.428 278.018C311.934 277.552 312.553 277.017 313.251 276.442C313.949 275.868 314.709 275.268 315.488 274.676C317.064 273.48 318.615 272.397 319.798 271.665C319.823 271.65 319.848 271.635 319.872 271.62C319.851 271.639 319.83 271.658 319.809 271.678C319.303 272.144 318.684 272.679 317.986 273.254C317.289 273.828 316.529 274.428 315.749 275.02C314.173 276.216 312.622 277.299 311.439 278.031C311.414 278.046 311.39 278.061 311.366 278.076Z" fill="black" stroke="black"/>
<path d="M257.403 283.542C252.06 286.975 246.591 289.887 241.571 290.886L270.604 274.407C269.306 275.306 267.951 276.267 266.557 277.257C266.153 277.544 265.745 277.833 265.334 278.124C262.785 279.93 260.117 281.799 257.403 283.542Z" fill="black" stroke="black"/>
<path d="M264.843 287.116L276.242 281.194C273.573 283.816 269.925 285.809 265.27 287.154C265.054 287.215 264.965 287.183 264.935 287.166L264.92 287.157L264.904 287.15C264.878 287.138 264.858 287.127 264.843 287.116Z" fill="black" stroke="black"/>
<path d="M255.943 289.937L255.943 289.937L255.937 289.936C255.595 289.903 255.319 289.865 255.106 289.823C255.306 289.729 255.568 289.623 255.9 289.506C257.716 288.873 259.605 288.403 261.566 288.097L261.566 288.097L261.579 288.095C261.752 288.063 261.93 288.091 262.084 288.173C262.239 288.256 262.36 288.388 262.43 288.548C262.71 289.195 262.584 289.403 262.499 289.48C262.426 289.546 262.281 289.624 262.006 289.671C261.735 289.717 261.374 289.726 260.912 289.687C260.055 289.607 259.219 289.714 258.437 289.814C258.408 289.818 258.379 289.822 258.35 289.825C257.524 289.931 256.747 290.023 255.943 289.937ZM254.683 290.076C254.683 290.076 254.684 290.076 254.684 290.075L254.683 290.076Z" fill="black" stroke="black"/>
</svg>
