<svg width="512" height="512" viewBox="0 0 512 512" fill="none" xmlns="http://www.w3.org/2000/svg">
<rect width="512" height="512" fill="white"/>
<path d="M322.026 334.983C321.484 334.37 320.86 333.77 320.154 333.181C297.258 313.924 277.259 291.381 254.469 272.513C250.559 269.263 250.358 269.486 253.868 273.185C274.903 295.374 296.857 317.304 319.73 338.975" stroke="black" stroke-width="2"/>
<path d="M364.615 397.081L364.625 397.076L365.822 396.477C365.823 396.477 365.823 396.476 365.824 396.476C366.302 396.232 366.716 395.879 367.035 395.446C367.354 395.013 367.569 394.51 367.662 393.977C367.754 393.444 367.723 392.895 367.57 392.374C367.416 391.852 367.145 391.372 366.777 390.971L319.371 339.326C296.497 317.653 274.541 295.721 253.503 273.529C252.624 272.603 251.971 271.887 251.547 271.385C251.338 271.136 251.174 270.928 251.067 270.767C251.015 270.69 250.962 270.601 250.926 270.512C250.909 270.469 250.884 270.397 250.877 270.31C250.871 270.225 250.88 270.057 251.011 269.91C251.146 269.76 251.315 269.734 251.406 269.733C251.496 269.731 251.572 269.751 251.616 269.765C251.709 269.795 251.802 269.843 251.881 269.888C252.048 269.984 252.266 270.132 252.526 270.324C253.052 270.712 253.807 271.315 254.787 272.129M364.615 397.081L254.467 272.513M364.615 397.081C363.911 397.452 363.11 397.603 362.315 397.513C361.52 397.423 360.768 397.097 360.155 396.577C317.953 360.689 278.344 318.826 240.162 278.471C237.767 275.94 235.378 273.415 232.994 270.898C232.708 270.593 232.349 270.366 231.951 270.238C231.553 270.109 231.129 270.083 230.718 270.162C230.307 270.242 229.922 270.424 229.601 270.692C229.279 270.961 229.031 271.306 228.879 271.696L228.879 271.697C219.03 297.143 209.594 322.954 200.57 349.13L200.569 349.133C199.408 352.57 196.759 354.861 192.506 355.982L192.505 355.982C188.338 357.088 184.933 356.087 182.274 353.918C179.596 351.734 177.651 348.342 176.504 344.657L176.504 344.657C154.784 274.997 131.875 205.715 107.775 136.81L107.775 136.809C105.246 129.612 106.471 122.417 111.529 115.178L111.529 115.178L111.532 115.174C112.062 114.4 112.778 113.971 113.717 113.869L113.717 113.869L113.721 113.869C117.798 113.397 120.563 113.387 122.088 113.785L122.089 113.785C151.585 121.381 181.154 128.638 210.717 135.894C256.678 147.175 302.622 158.452 348.251 170.988L348.251 170.988C353.324 172.378 357.808 174.984 361.707 178.813L361.708 178.814C362.791 179.87 363.467 181.274 363.617 182.779C363.767 184.284 363.381 185.794 362.528 187.042C360.105 190.584 356.354 193.237 351.226 194.978L351.224 194.978C324.215 204.233 297.076 212.757 269.808 220.551M364.615 397.081L402.174 353.248M254.787 272.129L254.467 272.513M254.787 272.129C254.786 272.129 254.786 272.129 254.786 272.128L254.467 272.513M254.787 272.129C266.199 281.577 276.91 291.943 287.618 302.343L288.348 303.051C298.818 313.22 309.301 323.402 320.473 332.798M254.467 272.513C266.123 282.163 277.048 292.774 288.005 303.415C298.471 313.58 308.966 323.773 320.152 333.181C320.858 333.77 321.483 334.37 322.024 334.983M320.473 332.798C320.473 332.798 320.472 332.797 320.472 332.797L320.152 333.18L320.473 332.798ZM320.473 332.798C321.191 333.396 321.829 334.009 322.385 334.636M322.385 334.636L322.371 334.622L322.024 334.983M322.385 334.636L374.592 384.83M322.385 334.636C322.39 334.641 322.394 334.646 322.399 334.652L322.024 334.983M322.024 334.983L374.592 384.83M374.592 384.83L374.247 385.192L374.594 384.831L374.592 384.83ZM374.592 384.83C374.72 384.952 374.875 385.041 375.044 385.089C375.212 385.138 375.388 385.144 375.556 385.109C375.724 385.073 375.878 384.997 376.005 384.889C376.132 384.78 376.229 384.642 376.288 384.486L376.291 384.476L376.784 383.245L377.25 383.425M374.592 384.83L376.756 384.661L377.25 383.425M377.25 383.425C377.933 381.658 377.663 380.056 376.438 378.62L322.272 314.984C321.583 314.174 321.129 313.579 320.912 313.198L389.556 372.06C388.259 372.411 386.891 372.409 385.592 372.053C384.293 371.698 383.11 371.002 382.166 370.037L382.165 370.036C364.307 351.896 347.51 335.193 331.772 319.926C329.782 317.992 327.698 316.539 325.485 314.998C324.829 314.541 324.161 314.076 323.482 313.589L323.477 313.585C322.748 313.076 322.166 312.702 321.737 312.475C321.526 312.364 321.328 312.274 321.155 312.227C321.069 312.204 320.962 312.183 320.847 312.189C320.731 312.196 320.559 312.235 320.421 312.383C320.283 312.531 320.257 312.708 320.261 312.826C320.264 312.942 320.295 313.048 320.326 313.131C320.388 313.299 320.496 313.488 320.626 313.686C320.891 314.09 321.316 314.633 321.891 315.308L322.251 315.001L321.891 315.308L376.057 378.944L376.057 378.944C376.621 379.605 376.948 380.284 377.067 380.982C377.184 381.679 377.099 382.429 376.785 383.241L376.786 383.239L377.25 383.425ZM403.786 353.533C404.231 353.48 404.653 353.309 405.01 353.038C405.367 352.767 405.644 352.405 405.814 351.991C405.983 351.576 406.038 351.123 405.974 350.68C405.909 350.237 405.727 349.819 405.446 349.469M403.786 353.533L362.94 187.325C360.443 190.976 356.592 193.685 351.386 195.451C324.368 204.709 297.22 213.236 269.943 221.033M403.786 353.533L402.231 353.745C399.781 354.027 397.626 353.356 395.765 351.731L403.786 353.533ZM405.446 349.469C390.63 331.073 375.696 315.102 360.644 301.557C355.754 297.142 350.873 292.692 345.983 288.236C321.335 265.769 296.492 243.125 269.484 223.753C269.251 223.58 269.071 223.345 268.962 223.076C268.854 222.807 268.821 222.514 268.869 222.23C268.917 221.947 269.043 221.685 269.233 221.473C269.423 221.261 269.669 221.109 269.943 221.033M405.446 349.469L405.057 349.783C405.057 349.783 405.057 349.783 405.057 349.783M405.446 349.469L405.057 349.783M269.943 221.033L269.809 220.551C269.809 220.551 269.808 220.551 269.808 220.551M269.943 221.033L269.806 220.552C269.806 220.552 269.807 220.552 269.808 220.551M269.808 220.551C269.442 220.653 269.114 220.857 268.86 221.139C268.607 221.422 268.439 221.772 268.376 222.147C268.313 222.523 268.356 222.909 268.498 223.263C268.641 223.617 268.879 223.925 269.184 224.154L269.192 224.16C296.174 243.513 320.992 266.133 345.641 288.6C350.531 293.058 355.415 297.509 360.309 301.929L360.309 301.929C375.338 315.453 390.255 331.404 405.057 349.783M405.057 349.783C405.282 350.063 405.427 350.397 405.479 350.752C405.531 351.107 405.486 351.469 405.351 351.801C405.215 352.133 404.993 352.423 404.707 352.64C404.422 352.857 404.083 352.994 403.727 353.036L403.718 353.037L402.174 353.248M402.174 353.248C402.172 353.248 402.171 353.248 402.169 353.249C399.862 353.514 397.849 352.887 396.096 351.356L402.174 353.248ZM264.007 237.215L264.608 236.544C264.772 236.403 264.926 236.403 265.067 236.544L264.007 237.215ZM264.007 237.215C263.724 237.545 263.724 237.851 264.007 238.134M264.007 237.215V238.134M264.007 238.134C277.267 251.272 291.299 263.643 304.486 275.269M264.007 238.134L304.486 275.269M304.486 275.269C321.799 290.532 337.653 304.509 348.383 317.245L304.486 275.269ZM396.094 351.354L265.407 236.178C265.273 236.048 265.084 235.938 264.846 235.938C264.609 235.938 264.418 236.048 264.282 236.164L264.257 236.186L264.235 236.211L263.634 236.882L263.634 236.882L263.627 236.89C263.44 237.108 263.295 237.378 263.295 237.692C263.295 238.015 263.448 238.282 263.653 238.488L263.655 238.489C276.926 251.638 290.971 264.02 304.157 275.645C306.219 277.464 308.261 279.264 310.276 281.046C325.178 294.224 338.576 306.382 348.001 317.568L348.001 317.568C362.701 335.001 377.26 351.987 391.678 368.525L391.68 368.527C392.549 369.511 392.72 370.161 392.601 370.562C392.482 370.961 391.986 371.405 390.725 371.741L390.722 371.742L389.557 372.06L396.094 351.354Z" fill="white" stroke="black"/>
<path d="M319.23 336.749V337.812C296.869 316.599 275.389 295.138 254.79 273.43C265.928 282.706 276.412 292.852 286.923 303.06C287.17 303.3 287.417 303.539 287.664 303.779C298.126 313.94 308.632 324.144 319.832 333.563L319.833 333.565C320.339 333.986 320.799 334.411 321.214 334.841C321.026 334.921 320.84 334.981 320.656 335.022C320.238 335.097 319.865 335.272 319.601 335.591C319.335 335.912 319.23 336.317 319.23 336.749ZM252.426 270.872C252.927 271.251 253.608 271.798 254.469 272.513C266.125 282.163 277.05 292.774 288.007 303.415C298.473 313.58 308.968 323.773 320.154 333.181C320.715 333.649 321.224 334.124 321.681 334.606L252.426 270.872Z" fill="black" stroke="black"/>
<path d="M147.77 189.409C147.77 189.409 147.767 189.408 147.761 189.403C147.767 189.406 147.77 189.409 147.77 189.409ZM147.057 188.002C147.11 188.244 147.153 188.46 147.187 188.652C147.083 188.488 146.968 188.299 146.844 188.084C146.234 187.029 145.425 185.427 144.453 183.333C142.511 179.147 140.094 173.379 137.735 167.296C135.375 161.213 133.27 155.324 131.883 150.923C131.188 148.721 130.705 146.993 130.444 145.803C130.391 145.561 130.348 145.344 130.315 145.153C130.419 145.317 130.534 145.506 130.658 145.721C131.268 146.776 132.077 148.378 133.049 150.472C134.991 154.657 137.408 160.426 139.767 166.508C142.126 172.591 144.231 178.481 145.619 182.881C146.314 185.083 146.797 186.811 147.057 188.002ZM129.741 144.402C129.735 144.398 129.732 144.396 129.732 144.396C129.731 144.396 129.735 144.397 129.741 144.402ZM130.235 144.201C130.235 144.201 130.234 144.205 130.232 144.211C130.234 144.204 130.235 144.2 130.235 144.201ZM147.27 189.593C147.268 189.601 147.267 189.604 147.267 189.604C147.267 189.604 147.267 189.6 147.27 189.593Z" fill="black" stroke="black"/>
</svg>
