<svg width="512" height="512" viewBox="0 0 512 512" fill="none" xmlns="http://www.w3.org/2000/svg">
<rect width="512" height="512" fill="white"/>
<path d="M246.509 364.165C246.434 293.997 246.45 223.823 246.558 153.645C246.574 151.221 245.75 149.735 244.28 148.071C243.939 147.682 243.704 147.213 243.596 146.71C243.489 146.206 243.513 145.685 243.666 145.195L243.843 144.614C244.21 143.429 244.824 143.278 245.685 144.162L255.572 154.081C255.764 154.276 256.024 154.39 256.298 154.399C256.571 154.408 256.838 154.312 257.042 154.129C260.241 151.318 263.499 148.486 266.816 145.632C267.387 145.147 267.888 144.899 268.319 144.889C268.581 144.884 268.839 144.955 269.062 145.093C269.285 145.231 269.464 145.429 269.578 145.665C269.692 145.901 269.736 146.165 269.704 146.426C269.673 146.686 269.568 146.932 269.401 147.134C267.543 149.347 266.122 150.769 266.122 153.936C266.175 223.877 266.219 293.814 266.251 363.745C266.251 364.008 266.354 364.26 266.539 364.447C266.723 364.635 266.974 364.742 267.236 364.746L280.128 364.843C280.232 364.842 280.334 364.87 280.423 364.923C280.512 364.976 280.585 365.053 280.633 365.145C280.681 365.237 280.704 365.34 280.697 365.443C280.691 365.547 280.656 365.647 280.597 365.732C271.76 378.494 264.409 392.194 256.978 405.7C256.93 405.79 256.858 405.864 256.771 405.917C256.684 405.97 256.584 405.998 256.481 406C256.379 406.002 256.276 405.976 256.185 405.926C256.093 405.877 256.016 405.804 255.96 405.716L232.147 365.619C231.856 365.123 231.996 364.881 232.567 364.892L245.701 364.972C246.251 364.983 246.52 364.714 246.509 364.165Z" fill="black"/>
<path d="M257.285 131.431L265.831 123.467C265.944 123.363 266.078 123.286 266.224 123.241C266.37 123.196 266.525 123.183 266.676 123.205C266.827 123.227 266.972 123.282 267.1 123.366C267.227 123.45 267.335 123.562 267.414 123.693L269.353 126.989C269.477 127.197 269.523 127.442 269.485 127.681C269.447 127.92 269.325 128.138 269.143 128.297L257.026 138.717C256.835 138.883 256.59 138.973 256.337 138.97C256.083 138.967 255.84 138.871 255.653 138.701L244.086 128.2C243.908 128.037 243.793 127.817 243.761 127.578C243.728 127.339 243.78 127.096 243.908 126.892L246.299 122.998C246.383 122.864 246.496 122.75 246.631 122.666C246.765 122.583 246.917 122.531 247.075 122.515C247.233 122.5 247.392 122.521 247.54 122.576C247.689 122.632 247.822 122.721 247.931 122.837L255.815 131.383C255.907 131.483 256.019 131.564 256.144 131.621C256.268 131.678 256.403 131.71 256.54 131.714C256.676 131.719 256.813 131.696 256.94 131.647C257.068 131.599 257.185 131.525 257.285 131.431Z" fill="black"/>
<path d="M256.768 142.691L266.138 134.339C266.33 134.167 266.56 134.044 266.809 133.98C267.058 133.917 267.319 133.914 267.57 133.973C267.82 134.031 268.053 134.15 268.248 134.317C268.443 134.485 268.595 134.698 268.69 134.937L268.852 135.341C269.477 136.902 269.181 138.27 267.963 139.444L256.816 150.252C256.674 150.392 256.483 150.471 256.283 150.471C256.084 150.471 255.892 150.392 255.75 150.252C251.83 146.471 247.969 142.524 244.167 138.41C243.273 137.452 243.278 136.207 244.183 134.678C244.29 134.492 244.46 134.35 244.664 134.276C244.867 134.203 245.092 134.202 245.298 134.274C249.692 135.841 252.212 139.622 255.459 142.675C255.89 143.073 256.326 143.079 256.768 142.691Z" fill="black"/>
<path d="M257.236 106.325L264.975 119.847C265.05 119.976 265.078 120.127 265.054 120.274C265.031 120.422 264.957 120.556 264.846 120.655L256.994 127.57C256.87 127.679 256.709 127.737 256.543 127.731C256.378 127.725 256.221 127.655 256.106 127.537L248.9 120.17C248.805 120.071 248.745 119.943 248.727 119.807C248.71 119.67 248.736 119.532 248.803 119.411L256.106 106.342C256.16 106.24 256.241 106.154 256.339 106.094C256.438 106.034 256.551 106.002 256.666 106C256.782 105.998 256.895 106.028 256.996 106.085C257.096 106.142 257.179 106.225 257.236 106.325Z" fill="black"/>
</svg>
