<svg width="512" height="512" viewBox="0 0 512 512" fill="none" xmlns="http://www.w3.org/2000/svg">
<rect width="512" height="512" fill="white"/>
<path d="M189.674 230.373H189.674C209.012 230.248 222.383 230.14 229.788 230.051M189.674 230.373L229.796 230.551M189.674 230.373C187.81 230.386 186.462 230.031 185.52 229.454C184.587 228.884 184.015 228.075 183.727 227.102C183.14 225.117 183.731 222.415 185.053 219.772C203.613 182.733 224.454 147.219 246.801 112.371L246.801 112.37C248.582 109.587 250.945 107.396 253.352 106.719C254.541 106.384 255.741 106.418 256.913 106.929C258.09 107.442 259.278 108.456 260.401 110.15L260.401 110.15C272.073 127.724 290.635 156.426 304.607 181.019C307.375 185.894 310.329 190.676 313.277 195.448C314.351 197.186 315.423 198.923 316.486 200.662C320.472 207.186 324.325 213.762 327.587 220.647C328.517 222.62 328.792 224.291 328.496 225.691C328.203 227.077 327.332 228.274 325.806 229.274L325.801 229.277C324.818 229.939 323.654 230.293 322.458 230.292H322.458H283.574C283.058 230.292 282.58 230.422 282.234 230.768C281.888 231.113 281.759 231.592 281.759 232.107M189.674 230.373L281.759 232.107M229.788 230.051C229.789 230.051 229.789 230.051 229.79 230.051L229.796 230.551M229.788 230.051C229.788 230.051 229.788 230.051 229.787 230.051L229.796 230.551M229.788 230.051C230.059 230.046 230.327 230.096 230.578 230.198C230.829 230.3 231.057 230.452 231.248 230.644C231.44 230.835 231.592 231.064 231.696 231.315C231.799 231.565 231.852 231.834 231.852 232.105L231.852 232.104L231.352 232.107C231.352 231.901 231.312 231.696 231.233 231.505C231.155 231.315 231.04 231.142 230.895 230.997C230.75 230.852 230.578 230.738 230.39 230.662C230.201 230.585 229.999 230.547 229.796 230.551M239.393 405.499L239.391 405.499C238.563 405.515 237.74 405.367 236.97 405.063C236.199 404.759 235.496 404.304 234.902 403.727C234.308 403.149 233.834 402.459 233.509 401.696C233.184 400.934 233.013 400.115 233.006 399.286L231.852 232.107L281.507 400.014C281.501 401.353 280.973 402.637 280.037 403.594C279.1 404.551 277.828 405.105 276.489 405.14L239.403 405.999L239.393 405.499ZM239.393 405.499L276.476 404.64C277.685 404.609 278.834 404.108 279.679 403.244C280.525 402.38 281.001 401.221 281.007 400.012L281.759 232.107M239.393 405.499L281.759 232.107M281.759 232.107C281.759 232.107 281.759 232.107 281.759 232.107M281.759 232.107V232.107" fill="white" stroke="black"/>
<path d="M245.473 137.49L245.465 137.495L245.458 137.5C242.275 139.622 239.484 142.169 237.085 145.142L236.76 144.864L245.2 136.922L245.476 137.328C245.488 137.347 245.495 137.368 245.499 137.387C245.503 137.409 245.503 137.428 245.5 137.443C245.497 137.458 245.492 137.469 245.487 137.476C245.483 137.483 245.478 137.487 245.473 137.49ZM245.357 136.775C245.357 136.775 245.356 136.776 245.356 136.776L245.357 136.775ZM245.079 136.748C245.079 136.747 245.08 136.748 245.081 136.749C245.08 136.748 245.079 136.748 245.079 136.748Z" fill="black" stroke="black"/>
<path d="M238.366 150.789C238.151 151.076 237.871 151.418 237.528 151.81C236.456 153.034 234.899 154.599 233.197 156.159C231.495 157.718 229.8 159.134 228.487 160.094C228.066 160.403 227.701 160.652 227.397 160.841C227.612 160.555 227.892 160.213 228.236 159.82C229.307 158.596 230.865 157.031 232.567 155.472C234.269 153.912 235.964 152.497 237.276 151.536C237.697 151.228 238.062 150.979 238.366 150.789Z" fill="black" stroke="black"/>
<path d="M220.17 176.038C219.221 177.255 218.264 178.521 217.298 179.836M220.17 176.038C220.17 176.037 220.17 176.037 220.17 176.037L220.565 176.344L220.169 176.038C220.169 176.038 220.17 176.038 220.17 176.038ZM220.17 176.038C222.113 173.524 224.553 171.112 227.026 168.71C227.219 168.522 227.412 168.335 227.606 168.147C229.897 165.924 232.19 163.699 234.164 161.369L234.166 161.367C234.177 161.354 234.188 161.341 234.199 161.328M217.298 179.836L234.546 161.692C235.069 161.081 235.449 160.606 235.687 160.266C235.664 160.28 235.64 160.294 235.615 160.31C235.534 160.361 235.442 160.421 235.339 160.491C235.237 160.56 235.125 160.639 235.002 160.727C234.769 160.895 234.502 161.095 234.199 161.328M217.298 179.836L222.864 168.65L222.864 168.65L222.866 168.647C223.028 168.315 223.226 168.103 223.447 167.974C223.666 167.846 223.946 167.779 224.311 167.799L225.161 167.879L225.184 167.881H225.207C225.526 167.881 225.823 167.786 226.084 167.603L226.094 167.596L226.103 167.589L234.154 161.363L233.848 160.968L234.154 161.363C234.169 161.351 234.184 161.34 234.199 161.328M217.298 179.836L235.335 159.896M234.199 161.328C234.448 161.036 234.663 160.778 234.843 160.553C234.937 160.435 235.021 160.327 235.095 160.229C235.17 160.13 235.234 160.041 235.289 159.963C235.305 159.939 235.321 159.917 235.335 159.896M235.335 159.896C234.983 160.117 234.487 160.474 233.848 160.968L225.798 167.193L235.335 159.896ZM235.498 159.797C236.026 159.492 236.125 159.596 235.794 160.108C235.768 160.1 235.74 160.089 235.711 160.073C235.675 160.052 235.64 160.026 235.608 159.993C235.576 159.96 235.551 159.923 235.532 159.886C235.516 159.854 235.505 159.824 235.498 159.797Z" fill="black" stroke="black"/>
<path d="M218.713 220.434L218.971 220.862C219.524 220.53 220.1 220.511 220.767 220.852L220.767 220.852L220.774 220.856C221.015 220.974 221.162 221.076 221.242 221.154C221.254 221.165 221.263 221.175 221.271 221.184C221.266 221.189 221.26 221.195 221.253 221.202C221.179 221.275 221.04 221.372 220.804 221.486L220.801 221.488C219.897 221.931 218.909 222.131 217.825 222.081C212.051 221.793 204.755 222.028 195.941 222.78L195.941 222.78C195.345 222.831 194.892 222.805 194.564 222.723C194.24 222.642 194.074 222.516 193.986 222.39C193.899 222.264 193.841 222.065 193.879 221.736C193.918 221.404 194.054 220.974 194.314 220.437C196.797 215.326 199.591 210.174 202.419 204.958C204.298 201.493 206.192 198 208.021 194.473L208.021 194.472C209.802 191.016 211.902 188.108 214.318 185.739L227.819 175.399C227.87 175.36 227.932 175.344 227.987 175.35C228.042 175.356 228.087 175.382 228.115 175.418L228.115 175.418L228.123 175.428L228.523 175.912L210.563 192.696C210.563 192.696 210.563 192.696 210.563 192.696C209.263 193.907 208.305 194.872 207.703 195.585C207.404 195.939 207.174 196.252 207.036 196.517C206.967 196.648 206.906 196.795 206.883 196.947C206.859 197.101 206.867 197.316 207.012 197.505C207.155 197.692 207.357 197.756 207.507 197.777C207.657 197.798 207.815 197.784 207.962 197.758C208.259 197.705 208.632 197.581 209.065 197.404C209.94 197.047 211.164 196.432 212.728 195.566C215.723 193.933 219.804 190.983 224.961 186.739L224.962 186.739L224.971 186.731C224.983 186.721 224.997 186.713 225.012 186.708C225.027 186.703 225.043 186.702 225.058 186.703C225.069 186.704 225.079 186.706 225.089 186.71L225.136 186.77C225.135 186.772 225.133 186.774 225.132 186.776C225.109 186.806 225.069 186.849 225.002 186.902L225.002 186.902L224.994 186.908L202.48 205.693C202.21 205.918 201.983 206.219 201.965 206.603C201.947 206.986 202.143 207.307 202.39 207.554L203.189 208.381C203.36 208.562 203.605 208.737 203.92 208.737C204.239 208.737 204.481 208.56 204.646 208.372C207.746 205.08 211.38 202.547 215.553 200.768C215.685 200.713 215.808 200.663 215.923 200.618C215.837 200.698 215.744 200.783 215.643 200.874L215.641 200.875C212.593 203.622 208.846 206.35 204.394 209.056C202.966 209.902 202.246 211.215 202.246 212.92C202.246 213.231 202.279 213.521 202.364 213.768C202.451 214.019 202.606 214.259 202.866 214.403C203.126 214.548 203.411 214.552 203.67 214.495C203.925 214.438 204.189 214.315 204.455 214.152C204.455 214.152 204.456 214.152 204.456 214.151L214.572 208.007L214.575 208.005C214.638 207.966 214.677 207.953 214.696 207.948C214.709 207.961 214.732 207.987 214.764 208.042L214.769 208.051L214.774 208.059L214.947 208.337C208.727 211.803 202.645 215.517 196.699 219.481L196.689 219.488L196.68 219.495C196.427 219.682 196.244 219.948 196.159 220.25C196.074 220.553 196.093 220.875 196.212 221.166C196.332 221.457 196.544 221.7 196.817 221.856C197.09 222.012 197.407 222.073 197.718 222.029L197.725 222.028L197.732 222.027L203.207 221.087L203.209 221.087C204.131 220.925 205.026 221.029 205.904 221.403C207.792 222.212 209.71 222.17 211.622 221.291C212.347 220.96 213.108 220.872 213.921 221.032L213.923 221.032L215.876 221.407C215.877 221.407 215.878 221.407 215.879 221.407C216.97 221.629 218.009 221.443 218.972 220.862L218.713 220.434ZM218.713 220.434C217.855 220.952 216.942 221.113 215.976 220.917L195.984 223.278C204.786 222.527 212.058 222.294 217.801 222.58C218.964 222.634 220.037 222.419 221.021 221.936C222.059 221.435 222.05 220.926 220.994 220.407C220.189 219.995 219.429 220.004 218.713 220.434ZM214.71 207.946C214.71 207.946 214.709 207.947 214.708 207.946C214.709 207.946 214.71 207.946 214.71 207.946ZM214.686 207.941C214.685 207.94 214.684 207.94 214.684 207.939C214.684 207.939 214.685 207.94 214.686 207.941ZM221.299 221.222C221.299 221.222 221.298 221.221 221.298 221.22C221.298 221.221 221.299 221.222 221.299 221.222ZM221.298 221.148C221.299 221.147 221.299 221.146 221.299 221.146C221.299 221.146 221.299 221.147 221.298 221.148ZM228.623 175.818C228.624 175.817 228.624 175.816 228.624 175.816C228.624 175.816 228.624 175.817 228.623 175.818Z" fill="black" stroke="black"/>
<path d="M301.016 202.052L301.016 202.052L301.016 202.052ZM291.529 179.637L315.663 222.317C315.625 222.299 315.58 222.275 315.528 222.244C315.267 222.087 314.915 221.797 314.475 221.354C313.599 220.473 312.452 219.07 311.084 217.186C308.351 213.422 305.002 208.104 301.775 202.4L301.455 201.813L301.455 201.812L301.451 201.806C298.237 196.125 295.412 190.537 293.592 186.261C292.681 184.12 292.065 182.412 291.754 181.2C291.598 180.59 291.526 180.132 291.522 179.818C291.521 179.745 291.524 179.685 291.529 179.637Z" fill="black" stroke="black"/>
<path d="M245.219 392.276L245.211 392.276C244.846 392.265 244.489 392.162 244.223 391.895C243.956 391.629 243.853 391.272 243.842 390.906L243.841 390.896L241.994 225.226L241.326 225.173C241.239 225.167 241.185 225.175 241.155 225.183C241.141 225.187 241.133 225.191 241.13 225.193L241.127 225.194L241.126 225.195L241.125 225.196C241.125 225.197 241.123 225.199 241.122 225.201C241.119 225.206 241.114 225.216 241.108 225.233C241.096 225.269 241.085 225.329 241.084 225.424C241.084 225.425 241.084 225.425 241.084 225.426L241.97 396.336L241.97 396.338C241.97 396.817 242.089 397.078 242.237 397.223C242.384 397.368 242.647 397.483 243.124 397.475C243.124 397.475 243.125 397.475 243.126 397.475L271.191 396.805L271.193 396.805C271.75 396.793 272.281 396.564 272.671 396.166C273.061 395.768 273.279 395.233 273.279 394.676C273.047 340.398 272.85 286.218 272.689 232.137C272.671 228.233 272.484 224.249 272.128 220.183C272.128 220.183 272.128 220.183 272.127 220.183L245.219 392.276ZM245.219 392.276H245.227M245.219 392.276H245.227M245.227 392.276H246.643C247.03 392.286 247.414 392.199 247.704 391.925C247.994 391.651 248.103 391.271 248.115 390.882C248.115 390.88 248.115 390.879 248.115 390.878L249.913 346.771M245.227 392.276L249.913 346.771M249.913 346.771L251.007 389.884L251.007 389.885C251.027 390.609 251.225 391.237 251.674 391.692C252.122 392.146 252.748 392.353 253.471 392.383L253.475 392.383L254.28 392.41L254.281 392.41L249.913 346.771Z" fill="black" stroke="black"/>
<path d="M295.998 221.395L295.997 221.394C292.319 220.598 289.032 220.875 285.359 221.277C285.346 221.277 285.335 221.277 285.327 221.277C285.325 221.27 285.323 221.262 285.32 221.252L285.316 221.236L285.311 221.221L285.099 220.557C285.076 220.476 285.069 220.421 285.068 220.387C285.1 220.379 285.154 220.37 285.236 220.37C285.237 220.37 285.237 220.37 285.238 220.37L300.37 220.451L300.382 220.451L300.393 220.45C300.395 220.45 300.397 220.451 300.399 220.452C300.401 220.454 300.402 220.455 300.403 220.457C300.403 220.459 300.403 220.461 300.403 220.464C300.402 220.466 300.4 220.468 300.399 220.469L300.399 220.469L300.394 220.472C298.935 221.427 297.479 221.72 295.998 221.395Z" fill="black" stroke="black"/>
</svg>
