<svg width="512" height="512" viewBox="0 0 512 512" fill="none" xmlns="http://www.w3.org/2000/svg">
<rect width="512" height="512" fill="white"/>
<path d="M232.222 125.054C236.437 130.729 240.119 136.235 243.266 141.573C244.506 143.676 244.275 143.853 242.571 142.103C237.933 137.322 232.811 132.118 227.536 127.35C221.685 122.063 220.507 111.255 227.36 106.086C227.423 106.032 227.504 106.002 227.587 106C227.67 105.998 227.752 106.025 227.818 106.076C227.884 106.127 227.931 106.199 227.95 106.28C227.97 106.361 227.961 106.446 227.925 106.522C225.064 113.669 227.76 119.037 232.222 125.054Z" fill="black"/>
<path d="M201.704 133.908L202.305 135.697C202.412 136.018 202.407 136.362 202.293 136.674C201.17 139.775 199.047 140.972 195.923 140.266C191.567 139.277 189.459 134.897 189.801 130.576C190.272 124.681 193.6 121.215 199.785 120.179C217.87 117.142 236.743 136.333 245.55 150.203C247.999 154.057 250.264 157.742 252.344 161.258C253.042 162.451 252.905 162.561 251.932 161.588C247.705 157.373 243.054 152.499 238.521 149.002C228.301 141.125 215.468 134.12 202.352 133.083C202.247 133.077 202.143 133.095 202.047 133.138C201.952 133.18 201.868 133.245 201.804 133.326C201.74 133.408 201.697 133.504 201.68 133.605C201.662 133.706 201.671 133.81 201.704 133.908Z" fill="black"/>
<path d="M262.881 153.782C263.486 156.231 263.835 158.715 263.929 161.235C263.953 161.871 263.796 161.922 263.458 161.388C261.009 157.479 258.925 153.386 257.206 149.108C257.159 148.99 257.069 148.947 256.936 148.978L256.641 149.061C256.618 149.069 256.61 149.08 256.618 149.096C258.125 157.114 262.893 165.591 266.237 173.068C266.237 173.076 266.233 173.083 266.225 173.091L265.919 173.256C265.778 173.327 265.664 173.299 265.578 173.174C260.079 164.72 252.155 157.573 252.061 147.153C252.038 144.186 253.592 131.153 249.436 128.574C248.682 128.111 248.278 127.852 248.223 127.797C246.755 126.125 247.046 125.725 249.094 126.596C257.442 130.152 265.849 140.619 266.684 149.779C266.967 152.934 266.606 157.495 265.601 163.46C265.57 163.656 265.464 163.715 265.283 163.637L264.648 163.343C264.522 163.28 264.471 163.178 264.495 163.036C265.052 159.795 264.691 156.651 263.411 153.605C263.38 153.546 263.329 153.499 263.267 153.473C263.204 153.448 263.135 153.445 263.071 153.467C263.007 153.488 262.952 153.532 262.918 153.589C262.883 153.647 262.87 153.716 262.881 153.782Z" fill="black"/>
<path d="M284.004 174.657C284.852 182.404 285.77 190.787 284.451 199.453C284.428 199.634 284.326 199.708 284.145 199.677C284.035 199.661 283.929 199.626 283.827 199.571C283.796 199.555 283.78 199.535 283.78 199.512C283.05 191.835 281.535 184.32 279.235 176.965C279.22 176.926 279.192 176.91 279.153 176.918L278.859 176.988C278.67 177.028 278.592 177.145 278.623 177.342C279.879 184.791 280.99 192.24 281.955 199.689C282.246 201.933 282.308 204.006 282.144 205.905C282.089 206.517 281.987 206.525 281.837 205.929C279.718 197.44 275.903 190.14 272.866 182.063C270.896 176.82 270.428 170.481 271.465 163.048C272.948 152.357 278.552 145.952 286.806 139.642C288.564 138.292 288.902 138.582 287.819 140.513C282.791 149.414 289.008 161.777 291.928 170.383C295.154 179.944 290.939 192.318 286.924 201.125C286.398 202.271 286.166 202.216 286.229 200.96C286.406 197.463 287.089 193.872 286.853 190.434C286.5 185.383 286.194 179.32 284.404 174.563C284.019 173.527 283.886 173.558 284.004 174.657Z" fill="black"/>
<path d="M202.046 200.348C200.445 203.519 197.921 204.693 194.475 203.868C185.739 201.784 186.081 189.704 191.65 184.877C196.748 180.462 204.789 180.321 210.641 183.711C219.966 189.092 222.744 201.702 218.529 211.262C216.065 216.867 211.544 221.007 204.966 223.684C179.805 233.915 157.976 211.639 161.45 186.937C165.241 159.858 192.368 148.625 216.763 151.486C239.84 154.206 260.386 170.819 270.641 191.27C275.645 201.231 279.765 211.651 280.354 222.73C280.417 223.892 280.276 223.915 279.93 222.801C271.712 196.274 252.156 170.336 225.405 161.565C216.638 158.692 207.697 158.08 198.584 159.728C185.716 162.071 173.553 171.949 175.119 186.278C176.273 196.981 186.045 209.143 198.007 205.222C200.221 204.492 201.756 202.954 202.611 200.607C202.674 200.426 202.619 200.297 202.446 200.218H202.434C202.262 200.14 202.132 200.183 202.046 200.348Z" fill="black"/>
<path d="M265.495 212.499C260.02 204.139 249.883 198.158 240.488 192.389C236.586 190.003 232.634 189.143 228.631 189.81C228.286 189.865 228.243 189.775 228.502 189.539C241.641 177.777 258.066 190.34 265.778 202.067C277.21 219.481 280.095 236.07 281.355 256.768C281.363 256.973 281.265 257.09 281.06 257.122L280.766 257.157C280.743 257.165 280.731 257.157 280.731 257.133C277.823 242.251 271.877 219.916 256.253 213.146C251.885 211.251 244.926 211.992 243.937 217.773C243.455 220.611 244.561 221.8 246.975 222.659C249.345 223.515 249.283 224.115 246.787 224.461C235.943 225.956 235.26 206.93 249.2 206.047C256.394 205.587 259.82 208.637 265.201 212.769C265.852 213.272 265.951 213.181 265.495 212.499Z" fill="black"/>
<path d="M253.921 231.372C267.579 234.245 273.831 247.09 276.421 259.429C276.429 259.445 276.425 259.457 276.409 259.465L276.127 259.547C275.931 259.61 275.797 259.543 275.726 259.347C271.688 249.045 264.577 235.846 253.839 231.643C252.732 231.211 252.759 231.121 253.921 231.372Z" fill="black"/>
<path d="M239.77 267.848C241.104 268.24 241.21 268.028 240.087 267.212C233.482 262.361 227.913 256.51 221.555 251.364C214.126 245.348 202.058 240.744 194.04 248.574C193.945 248.676 193.847 248.68 193.745 248.586H193.734C193.632 248.491 193.624 248.389 193.71 248.28C209.628 228.888 240.711 229.5 258.843 244.853C279.177 262.079 280.107 289.971 271.5 313.33C271.218 314.076 271.01 314.041 270.876 313.224C270.837 313.028 270.908 312.514 271.088 311.682C274.55 295.803 272.289 280.858 264.306 266.847C264.236 266.729 264.138 266.698 264.012 266.753V266.765C263.886 266.827 263.847 266.922 263.894 267.047C270.617 283.366 272.101 300.826 267.579 317.899C266.944 320.285 266.241 322.173 265.472 323.562C264.813 324.771 264.675 324.712 265.06 323.385C271.269 302.294 267.678 282.965 254.287 265.399C252.764 263.405 251.174 261.686 249.518 260.242C248.671 259.504 248.553 259.606 249.165 260.548C252.32 265.422 255.134 268.519 258.337 275.183C263.918 286.78 266.178 299.249 264.66 311.965C264.393 314.178 264.181 314.174 264.024 311.953C262.905 295.834 252.497 289.17 241.724 279.139C237.791 275.477 235.225 271.592 232.74 267.035C232.674 266.912 232.646 266.772 232.659 266.633C232.672 266.494 232.726 266.362 232.814 266.254C232.902 266.145 233.021 266.065 233.154 266.024C233.288 265.983 233.431 265.983 233.565 266.023L239.77 267.848Z" fill="black"/>
<path d="M331.877 262.243C334.985 262.149 334.302 258.04 332.336 257.345C328.498 255.968 325.436 258.735 323.341 262.055C318.007 270.462 314.993 279.08 309.341 286.368C308.321 287.687 308.148 287.585 308.823 286.062C311.688 279.571 313.921 272.608 315.523 265.175C316.08 262.561 317.269 259.838 319.09 257.004C323.282 250.458 333.737 247.349 338.176 255.579C340.719 260.301 337.316 267.589 331.935 264.068C331.417 263.731 331.17 263.342 331.194 262.903C331.205 262.726 331.282 262.56 331.409 262.438C331.535 262.315 331.702 262.246 331.877 262.243Z" fill="black"/>
<path d="M301.829 307.361C295.271 313.389 291.586 317.887 284.745 326.011C284.722 326.034 284.698 326.038 284.675 326.022L284.428 325.846C284.247 325.712 284.216 325.548 284.333 325.351C291.339 313.719 296.048 302.946 307.587 293.515C319.302 283.919 338.199 284.731 350.161 294.009C351.872 295.344 353.179 296.753 354.082 298.236C355.487 300.536 355.11 300.877 352.952 299.26C347.971 295.516 339.294 299.731 334.855 303.146C330.617 306.411 326.339 309.621 322.022 312.777C321.425 313.216 321.492 313.389 322.222 313.295L326.908 312.694C327.402 312.632 327.536 312.824 327.308 313.271C324.435 318.805 320.668 322.765 316.005 325.151C307.657 329.413 295.695 328.566 286.194 333.982C284.286 335.073 284.157 334.888 285.805 333.428C294.73 325.524 303.595 316.937 312.402 307.667C312.489 307.581 312.532 307.498 312.532 307.42C312.532 307.365 312.524 307.314 312.508 307.267C312.469 307.165 312.402 307.149 312.308 307.22C303.843 313.236 296.213 320.842 288.348 327.635C283.58 331.756 277.54 337.832 271.7 342.506C271.582 342.592 271.476 342.581 271.382 342.471H271.37C271.276 342.361 271.28 342.255 271.382 342.153C278.859 334.747 286.052 327.588 292.917 319.241C295.954 315.567 299.011 311.898 302.088 308.232C302.175 308.13 302.198 308.012 302.159 307.879L301.982 307.396C301.951 307.31 301.9 307.298 301.829 307.361Z" fill="black"/>
<path d="M235.26 372.836C249.906 370.351 270.24 366.878 278.34 384.775C279.345 386.98 279.051 387.169 277.457 385.34C268.721 375.25 249.565 375.038 237.638 376.604C231.359 377.428 225.087 378.299 218.823 379.217C218.713 379.233 218.662 379.3 218.67 379.417C218.686 379.535 218.749 379.59 218.859 379.582C226.221 379.174 233.592 378.974 240.97 378.982C255.181 379.005 276.763 385.634 274.502 404.225C274.22 406.58 273.862 406.592 273.431 404.26C272.088 396.996 260.079 391.085 253.662 389.284C239.91 385.422 225.122 385.634 210.97 384.669C190.107 383.244 169.349 373.342 158.906 354.681C157.532 352.232 157.721 352.106 159.471 354.304C173.988 372.483 196.076 377.993 218.305 374.602C233.6 372.282 247.069 364.194 259.749 355.658C274.161 345.956 285.617 338.821 302.171 340.929C314.427 342.495 323.317 352.75 322.104 365.242C321.186 374.673 313.462 381.972 303.678 380.524C299.62 379.92 296.406 378.044 294.035 374.896C290.868 370.681 291.798 363.346 296.884 361.156C301.252 359.284 308.741 363.346 303.784 368.02C303.525 368.264 303.234 368.319 302.913 368.185L301.252 367.491C301.019 367.392 300.767 367.349 300.515 367.364C300.262 367.38 300.017 367.453 299.797 367.578C299.577 367.703 299.389 367.877 299.248 368.086C299.106 368.296 299.014 368.535 298.98 368.786C298.144 374.72 304.125 375.732 307.763 372.859C313.332 368.456 314.38 360.061 309 354.904C295.001 341.47 269.781 358.189 256.37 364.818C249.459 368.232 242.501 370.328 235.166 372.459C235.14 372.464 235.117 372.473 235.096 372.487C235.075 372.501 235.057 372.519 235.044 372.54C235.031 372.56 235.022 372.584 235.018 372.608C235.014 372.633 235.015 372.658 235.021 372.683C235.027 372.708 235.039 372.732 235.054 372.753C235.069 372.774 235.088 372.792 235.111 372.806C235.133 372.82 235.157 372.83 235.183 372.835C235.208 372.84 235.235 372.84 235.26 372.836Z" fill="black"/>
<path fill-rule="evenodd" clip-rule="evenodd" d="M320.02 223.531C319.384 224.379 319.047 224.273 319.008 223.213C318.986 222.517 319.101 221.777 319.217 221.029C319.349 220.183 319.482 219.328 319.42 218.515C319.216 215.963 318.845 213.219 318.46 210.371C316.912 198.92 315.136 185.776 323.046 176.612C323.384 176.22 323.309 176.114 322.822 176.294C310.146 181.004 300.295 189.116 293.27 200.631C282.628 218.093 283.314 235.446 284.125 255.957C284.196 257.753 284.268 259.573 284.333 261.419C285.205 286.145 280.601 310.846 267.25 331.768C256.406 348.746 241.618 363.487 222.45 371.399C222.285 371.47 222.23 371.592 222.285 371.764H222.297C222.352 371.937 222.466 372.004 222.638 371.964C242.442 366.925 259.232 354.363 271.735 338.609C277.996 330.726 281.596 324.239 287.425 313.735C288.108 312.504 288.821 311.218 289.573 309.869C295.377 299.437 300.817 289.559 305.55 278.103C308.933 269.924 312.453 261.8 316.111 253.731C321.904 240.945 324.906 232.75 323.623 220.093C323.544 219.292 323.266 219.214 322.787 219.857L320.02 223.531ZM301.417 270.203C301.512 270.226 301.57 270.187 301.594 270.085C305.495 256.113 306.696 241.918 305.197 227.499C305.181 227.342 305.087 227.267 304.914 227.275C304.726 227.291 304.632 227.389 304.632 227.57C304.585 243.005 303.513 254.697 300.923 269.92C300.899 270.046 300.95 270.12 301.076 270.144L301.417 270.203Z" fill="black"/>
<path fill-rule="evenodd" clip-rule="evenodd" d="M166.465 342.541C181.865 380.453 235.26 378.464 250.589 341.493C258.843 321.596 251.131 296.152 231.728 285.473C226.288 282.483 220.103 280.662 213.172 280.01C178.203 276.761 153.29 310.104 166.465 342.541ZM234.828 346.219C240.743 340.303 244.067 332.28 244.067 323.915C244.067 315.549 240.743 307.526 234.828 301.611C228.913 295.696 220.89 292.373 212.524 292.373C204.159 292.373 196.136 295.696 190.221 301.611C184.305 307.526 180.982 315.549 180.982 323.915C180.982 332.28 184.305 340.303 190.221 346.219C196.136 352.134 204.159 355.457 212.524 355.457C220.89 355.457 228.913 352.134 234.828 346.219Z" fill="black"/>
<path d="M199.727 312.318C192.509 317.086 191.932 327.035 197.431 333.334C203.447 340.222 215.598 339.21 220.472 331.533C225.123 324.233 222.674 314.849 215.15 310.564C213.816 309.81 213.871 309.688 215.315 310.199C226.453 314.119 230.245 327.989 224.11 337.502C214.044 353.138 186.952 344.673 189.33 324.928C190.005 319.347 193.239 314.92 199.032 311.647C199.132 311.591 199.25 311.578 199.36 311.609C199.47 311.639 199.564 311.712 199.621 311.812L199.786 312.094C199.833 312.181 199.813 312.255 199.727 312.318Z" fill="black"/>
</svg>
