<svg width="512" height="512" viewBox="0 0 512 512" fill="none" xmlns="http://www.w3.org/2000/svg">
<rect width="512" height="512" fill="white"/>
<path d="M198.736 190.67C257.837 258.746 334.821 309.271 386.476 384.194C389.977 389.291 389.823 394.299 386.011 399.219L383.75 402.077C379.628 407.351 375.573 407.307 371.584 401.944L334.621 352.616C333.169 350.687 331.197 349.212 328.936 348.365C326.676 347.517 324.22 347.331 321.857 347.829C255.51 361.724 185.439 332.007 141.297 281.814C139.925 280.257 138.945 278.396 138.433 276.383C137.922 274.371 137.895 272.265 138.356 270.236C138.816 268.207 139.75 266.314 141.082 264.709C142.413 263.105 144.104 261.836 146.016 261.006L158.648 255.555C159.325 255.256 159.911 254.782 160.346 254.183C160.78 253.584 161.048 252.881 161.122 252.144C161.196 251.408 161.075 250.665 160.768 249.991C160.462 249.317 159.983 248.737 159.379 248.308C138.903 233.882 115.502 214.138 127.07 186.149C132.654 172.676 132.676 159.047 127.136 145.264C126.909 144.671 126.811 144.035 126.849 143.402C126.887 142.769 127.061 142.153 127.358 141.596C127.655 141.04 128.068 140.556 128.569 140.18C129.071 139.803 129.648 139.541 130.261 139.414L193.018 125.586C194.926 125.181 196.698 124.289 198.165 122.997C199.632 121.705 200.744 120.055 201.395 118.206C209.971 93.8081 239.421 110.894 247.332 126.915C253.138 138.616 259.189 149.629 265.482 159.956C265.941 160.719 266.577 161.359 267.337 161.823C268.097 162.287 268.957 162.559 269.846 162.618C270.734 162.677 271.623 162.52 272.438 162.161C273.252 161.801 273.968 161.25 274.523 160.554L290.213 140.943C292.104 138.58 294.732 136.925 297.667 136.249C300.601 135.573 303.669 135.915 306.367 137.22C318.289 142.937 328.705 152.134 337.613 164.809C372.515 214.403 392.526 266.524 365.934 326.157C365.598 326.912 365.082 327.573 364.431 328.082C363.78 328.591 363.014 328.933 362.2 329.077C361.386 329.222 360.55 329.164 359.764 328.91C358.977 328.656 358.266 328.213 357.69 327.619C308.406 277.804 255.798 231.755 199.866 189.473C195.567 186.194 195.19 186.593 198.736 190.67Z" fill="black"/>
</svg>
