<svg width="512" height="512" viewBox="0 0 512 512" fill="none" xmlns="http://www.w3.org/2000/svg">
<rect width="512" height="512" fill="white"/>
<path d="M324.339 357.018C381.905 355.122 416.858 305.313 402.95 249.294" stroke="black" stroke-width="2"/>
<path d="M402.951 249.294C391.751 207.358 360.821 177.646 320.664 163.7C287.135 152.068 253.562 152.1 219.943 163.796C180.985 177.35 154.259 203.476 139.765 242.176C136.876 249.875 135.309 257.786 135.064 265.91C135.058 266.113 135.002 266.31 134.9 266.485C134.798 266.661 134.654 266.808 134.482 266.913C134.309 267.019 134.112 267.08 133.91 267.09C133.708 267.101 133.506 267.061 133.323 266.974C125.683 263.241 117.481 258.386 108.409 260.997C107.965 261.124 107.553 261.342 107.198 261.638C106.843 261.933 106.554 262.301 106.348 262.715C106.142 263.13 106.025 263.584 106.004 264.047C105.982 264.511 106.057 264.974 106.223 265.407C106.636 266.503 107.261 267.806 108.099 269.315C121.472 293.532 135.586 317.312 150.442 340.653C154.021 346.243 161.062 349.009 164.969 342.22C178.103 319.395 192.127 299.626 206.538 278.599C208.646 275.505 212.534 271.036 214.72 266.703C214.911 266.327 215.024 265.915 215.052 265.494C215.079 265.072 215.02 264.65 214.879 264.252C214.738 263.854 214.517 263.488 214.231 263.178C213.944 262.868 213.597 262.62 213.211 262.448C210.465 261.21 207.911 261.152 204.816 262.119C198.871 263.963 192.946 265.343 187.04 266.258C186.868 266.287 186.691 266.268 186.53 266.202C186.368 266.137 186.227 266.029 186.123 265.889C186.019 265.749 185.956 265.583 185.94 265.409C185.924 265.235 185.957 265.061 186.034 264.904C205.629 224.032 249.132 202.154 293.893 211.42C318.826 216.565 342.116 231.479 351.671 255.968C358.674 273.88 354.302 293.571 337.937 304.906C321.051 316.59 292.829 319.046 283.389 296.163C280.501 289.161 281.313 283.655 285.826 279.644C293.37 272.971 304.551 273.59 313.7 277.516C318.123 279.412 321.141 278.367 322.753 274.383C322.998 273.764 322.979 273.151 322.695 272.545C307.878 240.454 267.431 242.698 251.859 272.139C238.28 297.846 252.691 329.376 275.632 343.554C290.514 352.762 306.749 357.25 324.339 357.017" stroke="black" stroke-width="2"/>
<path d="M275.895 343.129L275.895 343.129C290.694 352.286 306.835 356.748 324.328 356.518C352.96 355.573 375.942 342.719 390.042 323.16C404.144 303.597 409.386 277.295 402.466 249.418C391.313 207.664 360.518 178.071 320.5 164.172C287.078 152.577 253.62 152.609 220.107 164.269C181.29 177.773 154.675 203.791 140.233 242.351L140.233 242.352C137.363 249.999 135.807 257.857 135.564 265.925L135.564 265.925C135.555 266.211 135.476 266.49 135.332 266.737C135.189 266.983 134.986 267.191 134.742 267.34C134.499 267.489 134.221 267.575 133.936 267.59C133.651 267.605 133.367 267.548 133.109 267.426L133.104 267.423C132.359 267.06 131.612 266.687 130.862 266.312C127.735 264.752 124.551 263.162 121.247 262.081C117.168 260.747 112.957 260.208 108.547 261.477L108.546 261.478C108.169 261.585 107.819 261.77 107.518 262.022C107.217 262.273 106.971 262.585 106.796 262.937C106.621 263.29 106.521 263.676 106.503 264.07C106.485 264.465 106.548 264.859 106.69 265.228L106.691 265.231C107.092 266.296 107.705 267.575 108.537 269.072L108.537 269.073C121.905 293.282 136.014 317.052 150.864 340.384C152.602 343.1 155.154 345.081 157.681 345.589C158.935 345.841 160.181 345.73 161.337 345.175C162.495 344.618 163.599 343.598 164.536 341.97C175.87 322.274 187.866 304.85 200.189 286.952C202.16 284.089 204.139 281.215 206.125 278.318L275.895 343.129ZM275.895 343.129C253.105 329.044 238.882 297.779 252.301 272.373C260.003 257.81 273.844 249.994 287.568 249.768C301.281 249.541 314.915 256.889 322.241 272.755L322.242 272.757C322.468 273.239 322.482 273.708 322.288 274.198C321.517 276.103 320.446 277.222 319.117 277.682C317.773 278.147 316.051 277.98 313.897 277.057C304.666 273.095 293.248 272.411 285.495 279.269L285.494 279.27C283.158 281.346 281.762 283.829 281.337 286.709C280.914 289.578 281.46 292.798 282.927 296.354C287.731 308 297.333 313.198 307.833 313.996C318.307 314.791 329.697 311.216 338.222 305.318L338.222 305.317C354.803 293.832 359.211 273.883 352.137 255.786C342.502 231.094 319.039 216.099 293.994 210.93C249.007 201.618 205.278 223.609 185.584 264.686M275.895 343.129L185.584 264.686M185.584 264.686C185.585 264.685 185.585 264.684 185.585 264.683L186.034 264.904L185.583 264.688C185.583 264.687 185.584 264.687 185.584 264.686ZM108.409 260.997C107.965 261.124 107.553 261.342 107.198 261.638C106.843 261.933 106.554 262.301 106.348 262.715C106.142 263.13 106.025 263.584 106.004 264.047C105.982 264.511 106.057 264.974 106.223 265.407L108.409 260.997ZM108.409 260.997C116.607 258.637 124.095 262.375 131.1 265.872C131.847 266.245 132.587 266.615 133.323 266.974L108.409 260.997ZM187.04 266.258C192.946 265.343 198.871 263.963 204.816 262.119C207.911 261.152 210.465 261.21 213.211 262.448C213.597 262.62 213.944 262.868 214.231 263.178C214.517 263.488 214.738 263.854 214.879 264.252C215.02 264.65 215.079 265.072 215.052 265.494C215.024 265.915 214.911 266.327 214.72 266.703C213.226 269.666 210.936 272.691 208.963 275.298C208.05 276.504 207.205 277.621 206.538 278.599C204.551 281.499 202.571 284.374 200.6 287.237C188.276 305.136 176.292 322.542 164.969 342.22C161.062 349.009 154.021 346.243 150.442 340.653C135.586 317.312 121.472 293.532 108.099 269.315L187.04 266.258Z" fill="white" stroke="black"/>
<path d="M281.841 166.21C287.036 166.626 292.093 167.71 297.014 169.461C291.015 168.81 285.007 168.296 278.991 167.921C230.602 164.835 184.149 186.264 158.181 227.751C152.381 237.007 148.366 246.972 146.138 257.644L145.8 257.451C145.799 257.451 145.799 257.45 145.799 257.45C145.717 257.403 145.651 257.332 145.609 257.248C145.567 257.164 145.55 257.07 145.561 256.976C147.089 245.272 150.371 235.535 155.389 227.746L155.003 227.497L155.389 227.746C170.022 205.031 187.87 188.562 208.928 178.314C229.986 168.065 254.285 164.024 281.841 166.21Z" fill="black" stroke="black"/>
<path d="M171.982 225.01C171.989 225.004 171.996 224.997 172.005 224.989C172.057 224.94 172.133 224.862 172.234 224.75C172.434 224.528 172.713 224.198 173.072 223.755C173.072 223.755 173.072 223.755 173.072 223.755L173.461 224.07C184.022 210.974 191.527 203.469 208.182 191.225L171.982 225.01ZM171.982 225.01C171.567 225.152 171.264 225.219 171.06 225.232C171.01 225.235 170.972 225.235 170.943 225.233C170.948 225.205 170.956 225.168 170.97 225.12C171.032 224.915 171.175 224.619 171.427 224.221L171.428 224.218C180.758 209.256 193.203 197.529 208.77 189.033C209.668 188.544 210.584 188.16 211.518 187.879C210.335 188.923 209.125 189.904 207.885 190.822" fill="black" stroke="black"/>
<path d="M292.088 194.297L292.088 194.297C261.849 187.448 228.051 198.324 205.26 218.278C199.752 223.098 194.501 229.292 189.504 236.852C188.867 237.813 188.196 238.81 187.505 239.835C185.565 242.716 183.473 245.823 181.551 249.002C178.944 253.313 176.625 257.796 175.398 262.096C175.377 262.165 175.356 262.206 175.34 262.229C175.325 262.25 175.316 262.255 175.314 262.257C175.311 262.258 175.301 262.264 175.273 262.267C175.243 262.269 175.195 262.268 175.124 262.252C175.122 262.251 175.121 262.251 175.119 262.251L174.514 262.099C174.514 262.099 174.513 262.099 174.512 262.099C174.49 262.093 174.473 262.087 174.462 262.082C174.462 262.067 174.464 262.045 174.471 262.015C176.521 253.187 182.544 244.47 188.155 236.347C188.667 235.607 189.175 234.871 189.676 234.141L189.677 234.141C194.654 226.862 199.446 221.103 204.052 216.856L204.053 216.855C227.392 195.286 261.755 186.349 293.117 192.644C319.7 197.984 341.563 211.823 358.721 234.182L358.722 234.183C373.946 253.988 380.281 283.012 365.764 304.55C351.249 326.05 326.065 334.157 301.036 327.423C305.1 327.711 309.164 327.885 313.228 327.942C333.432 328.253 349.517 320.649 361.43 305.134C373.026 290.031 372.524 268.703 365.538 251.811L365.109 251.989L365.538 251.811C352.945 221.372 323.365 201.403 292.088 194.297Z" fill="black" stroke="black"/>
<path d="M358.697 253.957L358.242 254.125L241.04 205.305C229.143 209.907 221.196 213.581 217.258 216.329C214.768 218.058 212.271 219.764 209.767 221.444C231.504 203.204 261.734 193.634 288.98 198.931L288.981 198.931C321.812 205.293 356.634 228.7 363.774 263.322C368.523 286.397 357.136 308.051 336.214 317.975L336.214 317.975C316.847 327.169 291.087 324.46 278.152 305.84C276.199 303.016 274.673 299.274 273.591 294.596L273.734 294.55L273.735 294.55C273.78 294.535 273.808 294.532 273.822 294.532C273.832 294.544 273.85 294.571 273.871 294.624C277.64 304.234 283.707 311.433 291.418 315.827C299.128 320.221 308.448 321.789 318.69 320.198C335.074 317.654 348.092 309.269 355.507 297.41C362.924 285.545 364.704 270.25 358.697 253.957ZM273.834 294.532C273.834 294.532 273.833 294.532 273.831 294.532C273.833 294.532 273.834 294.532 273.834 294.532ZM273.815 294.524C273.814 294.523 273.813 294.523 273.813 294.523C273.814 294.523 273.814 294.523 273.815 294.524Z" fill="black" stroke="black"/>
<path d="M379.099 222.456C378.854 221.84 378.582 221.222 378.286 220.603C378.699 221.141 379.11 221.681 379.518 222.222L379.099 222.456ZM379.099 222.456C379.107 222.478 379.116 222.499 379.124 222.52L379.099 222.456Z" fill="black" stroke="black"/>
<path d="M189.592 221.25C189.043 221.772 188.56 222.213 188.148 222.572C188.47 222.131 188.867 221.611 189.339 221.019C190.926 219.025 193.188 216.409 195.626 213.748C198.065 211.087 200.473 208.606 202.321 206.851C202.87 206.33 203.353 205.888 203.764 205.53C203.443 205.971 203.045 206.49 202.574 207.083C200.987 209.076 198.725 211.692 196.287 214.353C193.848 217.014 191.439 219.495 189.592 221.25Z" fill="black" stroke="black"/>
<path d="M390.956 303.003C381.83 326.332 360.005 343.451 335.209 346.371C336.676 345.78 338.173 345.266 339.7 344.829C359.743 339.107 374.645 327.569 384.372 310.219C388.478 302.904 391.767 292.856 393.59 282.594C394.941 274.984 395.492 267.227 394.96 260.354C397.46 275.6 396.12 289.813 390.956 303.003L390.956 303.003Z" fill="black" stroke="black"/>
<path d="M289.793 260.161C293.789 259.897 297.77 260.903 300.793 263.571C296.64 261.551 293.305 261.052 289.928 261.387C287.175 261.66 284.392 262.492 281.152 263.46C280.533 263.645 279.898 263.835 279.243 264.027C282.156 261.834 285.963 260.415 289.793 260.161Z" fill="black" stroke="black"/>
<path d="M141.074 308.616L140.754 308.808L120.755 276.458L121.173 276.238C121.173 276.238 121.173 276.238 121.173 276.238C120.763 275.458 120.427 274.795 120.164 274.248C120.546 274.716 121.001 275.3 121.531 275.999L121.531 275.999C128.382 285.035 134.929 295.793 141.172 308.279C141.241 308.421 141.226 308.477 141.224 308.483L141.224 308.484C141.222 308.488 141.207 308.539 141.08 308.613L141.08 308.613L141.074 308.616Z" fill="black" stroke="black"/>
<path d="M176.3 290.097L176.3 290.097L176.297 290.094C176.291 290.087 176.27 290.055 176.259 289.963C176.243 289.838 176.253 289.646 176.312 289.377C176.428 288.841 176.714 288.105 177.184 287.192C178.121 285.372 179.66 283.096 181.47 280.869C181.47 280.869 181.47 280.869 181.47 280.869L181.721 280.56C183.531 278.334 185.443 276.362 187.033 275.074C187.83 274.428 188.492 273.998 188.992 273.775C189.243 273.663 189.428 273.615 189.554 273.605C189.645 273.597 189.681 273.611 189.689 273.615L189.698 273.622L189.706 273.628L176.303 290.1L176.3 290.097ZM176.298 290.096C176.298 290.096 176.297 290.095 176.297 290.094L176.298 290.096Z" fill="black" stroke="black"/>
<path d="M182.839 293.905C182.819 293.921 182.799 293.938 182.78 293.953C182.788 293.93 182.797 293.906 182.806 293.881C183.009 293.338 183.384 292.569 183.92 291.609C184.453 290.653 185.127 289.542 185.905 288.339C186.682 287.137 187.545 285.868 188.445 284.606C189.345 283.344 190.264 282.115 191.148 280.988C192.033 279.862 192.863 278.862 193.593 278.047C194.326 277.228 194.932 276.623 195.379 276.254C195.399 276.238 195.419 276.221 195.439 276.206C195.43 276.229 195.421 276.253 195.412 276.278C195.209 276.821 194.834 277.59 194.299 278.55C193.765 279.506 193.091 280.617 192.313 281.82C191.536 283.022 190.673 284.291 189.773 285.553C188.873 286.815 187.954 288.044 187.07 289.171C186.186 290.297 185.355 291.297 184.625 292.112C183.892 292.931 183.286 293.536 182.839 293.905Z" fill="black" stroke="black"/>
<path d="M259.524 307.047L259.524 307.047L259.296 307.129C257.239 300.524 256.52 293.772 257.141 286.871L257.206 286.881C256.691 293.608 257.543 300.168 259.761 306.558C259.793 306.654 259.787 306.759 259.743 306.85C259.698 306.942 259.62 307.013 259.524 307.047Z" fill="black" stroke="black"/>
<path d="M350.576 334.292L350.571 334.282L350.565 334.273L350.437 334.072C366.286 323.702 377.821 308.879 381.898 290.231C379.808 309.552 367.865 324.853 350.668 334.31C350.646 334.319 350.625 334.32 350.608 334.315C350.591 334.31 350.581 334.301 350.576 334.292Z" fill="black" stroke="black"/>
<path d="M277.299 334.325C275.058 332.898 273.135 331.114 271.528 328.971C273.259 330.969 275.182 332.754 277.299 334.325Z" fill="black" stroke="black"/>
</svg>
