<svg width="512" height="512" viewBox="0 0 512 512" fill="none" xmlns="http://www.w3.org/2000/svg">
<rect width="512" height="512" fill="white"/>
<path d="M208.685 251.872L208.68 251.871C174.51 242.953 147.016 249.467 116.966 267.279C116.68 267.454 116.557 267.624 116.511 267.772C116.465 267.919 116.468 268.129 116.604 268.434C116.604 268.434 116.604 268.435 116.605 268.435L116.849 268.977L116.851 268.981C116.894 269.078 116.928 269.107 116.937 269.113C116.948 269.115 116.987 269.117 117.071 269.085C128.296 264.614 138.738 261.216 148.396 258.896L148.396 258.896C149.51 258.629 150.372 258.451 150.971 258.368C151.266 258.327 151.522 258.306 151.722 258.315C151.819 258.319 151.934 258.331 152.044 258.37C152.143 258.404 152.344 258.499 152.429 258.736C152.514 258.976 152.416 259.177 152.36 259.267C152.297 259.366 152.214 259.448 152.141 259.512C151.991 259.642 151.777 259.784 151.521 259.935C151.001 260.24 150.217 260.635 149.179 261.115L149.178 261.116C147.344 261.962 145.138 262.832 142.8 263.754C141.187 264.389 139.511 265.05 137.851 265.745C133.957 267.375 130.101 269.213 127.113 271.427L153.643 264.632C153.644 264.632 153.645 264.631 153.646 264.631C153.816 264.586 154.026 264.579 154.228 264.685C154.428 264.79 154.542 264.964 154.605 265.122L154.61 265.134L154.609 265.134L154.785 265.608L154.788 265.615L154.79 265.623C154.829 265.739 154.86 265.917 154.782 266.105C154.703 266.295 154.552 266.4 154.423 266.452C149.701 268.575 144.941 270.525 140.208 272.464C139.013 272.954 137.819 273.443 136.628 273.934C130.713 276.372 124.858 278.86 119.16 281.726L119.159 281.727C118.705 281.954 118.429 282.227 118.278 282.529C118.127 282.831 118.074 283.216 118.165 283.715L118.167 283.725L118.167 283.725L118.235 284.153C118.254 284.24 118.291 284.321 118.344 284.392C118.399 284.465 118.47 284.524 118.552 284.566C118.633 284.607 118.722 284.63 118.814 284.632C118.905 284.634 118.995 284.615 119.078 284.577C137.324 276.156 160.52 268.722 180.478 273.941L180.494 273.945L180.509 273.95C180.724 274.022 180.9 274.16 181.021 274.353L181.041 274.385L181.056 274.421C181.121 274.572 181.191 274.723 181.267 274.875C181.335 274.999 181.368 275.139 181.364 275.28C181.36 275.427 181.316 275.568 181.239 275.69C181.162 275.811 181.056 275.909 180.933 275.977C180.809 276.045 180.671 276.081 180.53 276.082L180.529 276.082C162.612 276.152 145.823 280.502 130.152 289.134L130.15 289.135C129.895 289.274 129.684 289.481 129.541 289.731C129.399 289.98 129.33 290.263 129.341 290.547C129.341 290.549 129.341 290.55 129.341 290.551L129.376 291.139L129.376 291.144C129.387 291.368 129.431 291.447 129.445 291.467C129.469 291.472 129.559 291.481 129.769 291.402L129.771 291.401C155.269 281.855 179.553 275.831 205.968 286.991C208.093 287.888 209.985 289.09 211.821 290.37C212.462 290.818 213.093 291.272 213.725 291.726C214.914 292.582 216.104 293.439 217.37 294.254L217.371 294.255C220.675 296.399 223.434 298.33 225.646 300.048L225.647 300.048C234.739 307.133 244.158 313.769 253.904 319.955C254.336 320.225 254.798 320.374 255.297 320.404L255.302 320.404C256.309 320.476 257.163 320.996 257.854 321.501C258.071 321.659 258.29 321.83 258.492 321.988C258.606 322.077 258.714 322.162 258.814 322.238C259.11 322.464 259.353 322.631 259.563 322.729L259.564 322.729C306.616 344.782 367.254 316.289 374.008 263.351L374.008 263.35C374.068 262.889 374.301 262.469 374.659 262.174C375.017 261.879 375.472 261.73 375.935 261.758C383.481 262.166 390.893 262.219 398.17 261.915C402.035 261.757 404.012 260.579 404.889 258.965C405.786 257.311 405.64 255.015 404.809 252.374C403.279 247.513 399.575 241.932 397.112 238.22C396.908 237.913 396.713 237.619 396.528 237.339C385.19 220.18 373.922 202.979 362.724 185.738C360.885 182.908 358.571 181.552 356.292 181.501C354.011 181.451 351.626 182.707 349.643 185.394C335.357 204.785 321.953 224.765 309.43 245.336C307.652 248.265 305.742 252.393 305.633 255.791C305.578 257.476 305.968 258.92 306.968 259.967C307.971 261.016 309.666 261.751 312.404 261.845C318.234 262.043 323.876 261.985 329.33 261.67L329.332 261.67C329.916 261.639 330.505 261.737 330.852 262.181C331.201 262.627 331.151 263.221 330.974 263.776C328.31 272.194 323.984 278.452 318.061 282.469C312.139 286.486 304.673 288.227 295.79 287.705C295.79 287.705 295.79 287.705 295.79 287.705L295.819 287.206C279.447 286.265 267.656 276.933 255.656 267.435C254.009 266.132 252.358 264.825 250.691 263.537L208.685 251.872ZM208.685 251.872C208.814 251.905 208.991 251.912 209.164 251.817C209.334 251.724 209.423 251.576 209.467 251.458L209.474 251.44L209.479 251.422L209.599 251.009M208.685 251.872L250.385 263.933C229.479 247.785 207.002 236.317 180.048 236.02C154.92 235.741 130.5 242.953 108.816 256.145L108.815 256.146C108.195 256.52 107.67 257.032 107.283 257.642C106.896 258.252 106.656 258.943 106.582 259.661L106.582 259.661L106.529 260.17L106.529 260.172C106.482 260.602 106.495 260.917 106.545 261.134C106.593 261.347 106.667 261.427 106.714 261.46C106.762 261.493 106.865 261.533 107.085 261.503C107.309 261.473 107.61 261.374 108 261.179C139.664 245.32 174.606 236.541 209.019 249.815M209.019 249.815C209.02 249.816 209.021 249.816 209.021 249.816L208.841 250.283L209.017 249.814C209.018 249.815 209.019 249.815 209.019 249.815ZM209.019 249.815C209.231 249.895 209.45 250.038 209.572 250.288C209.692 250.537 209.669 250.795 209.599 251.009M209.599 251.009L209.602 251.001L209.122 250.861L209.596 251.019C209.597 251.016 209.598 251.013 209.599 251.009Z" fill="white" stroke="black"/>
<path d="M331.343 243.345L339.265 230.193L333.175 243.621L331.343 243.345Z" fill="black" stroke="black"/>
<path d="M321.441 243.381C323.71 240.131 325.703 236.738 327.419 233.201L327.424 233.203L323.357 243.149C323.299 243.285 323.197 243.4 323.061 243.476C322.926 243.553 322.765 243.584 322.603 243.563L322.599 243.563L321.448 243.423C321.437 243.421 321.426 243.42 321.416 243.418C321.423 243.406 321.432 243.394 321.441 243.381L321.441 243.381Z" fill="black" stroke="black"/>
<path d="M316.832 251.962L316.832 251.963L316.832 252.068C316.832 252.068 316.832 252.068 316.832 252.068C316.832 252.14 316.847 252.212 316.875 252.279C316.902 252.346 316.943 252.406 316.995 252.458C317.046 252.509 317.107 252.549 317.174 252.577C317.241 252.605 317.313 252.619 317.385 252.619L317.385 252.619M316.832 251.962L317.386 253.119L317.385 252.619M316.832 251.962C316.832 251.816 316.89 251.676 316.993 251.572C317.096 251.468 317.237 251.41 317.383 251.41L316.832 251.962ZM317.385 252.619L332.428 252.592L317.385 252.619ZM332.426 251.383L332.426 251.383C332.498 251.383 332.57 251.397 332.637 251.425C332.704 251.453 332.765 251.493 332.816 251.544C332.867 251.595 332.908 251.656 332.936 251.723C332.964 251.79 332.978 251.862 332.978 251.934V251.935L332.979 252.04L333.479 252.039L332.979 252.04C332.979 252.186 332.921 252.326 332.818 252.43C332.714 252.534 332.574 252.592 332.428 252.592L332.425 250.883L332.426 251.383ZM332.426 251.383L317.383 251.41L332.426 251.383Z" fill="black" stroke="black"/>
<path d="M393.976 252.578L393.976 252.578C394.044 252.576 394.111 252.561 394.173 252.534C394.235 252.506 394.291 252.467 394.338 252.417C394.385 252.368 394.422 252.31 394.446 252.247C394.47 252.184 394.482 252.116 394.481 252.049L393.976 252.578ZM393.976 252.578L377.361 252.984L377.361 252.984C377.224 252.987 377.091 252.936 376.992 252.841C376.892 252.747 376.835 252.617 376.831 252.48C376.831 252.48 376.831 252.48 376.831 252.48L376.83 252.41L376.83 252.41C376.828 252.342 376.84 252.274 376.864 252.211C376.889 252.148 376.925 252.09 376.972 252.041C377.019 251.991 377.075 251.952 377.137 251.924C377.199 251.897 377.266 251.882 377.334 251.88L377.334 251.88L393.949 251.474L393.94 251.074L393.949 251.474C394.086 251.471 394.219 251.522 394.318 251.617C394.418 251.711 394.475 251.841 394.479 251.978L394.479 251.979L394.481 252.048L393.976 252.578Z" fill="black" stroke="black"/>
</svg>
