<svg width="512" height="512" viewBox="0 0 512 512" fill="none" xmlns="http://www.w3.org/2000/svg">
<rect width="512" height="512" fill="white"/>
<path d="M250.795 120.585C251.406 121.196 251.715 121.932 251.722 122.794L251.765 130.22C251.765 130.895 251.503 131.021 250.978 130.597L232.464 115.444C232.393 115.387 232.334 115.315 232.294 115.233C232.253 115.151 232.23 115.062 232.227 114.97L232 106.704C231.996 106.574 232.029 106.444 232.095 106.332C232.162 106.219 232.26 106.129 232.378 106.07C232.495 106.012 232.627 105.989 232.757 106.004C232.887 106.019 233.009 106.072 233.111 106.155C238.952 110.907 245.525 115.304 250.795 120.585Z" fill="black"/>
<path d="M260.969 120.369L279.99 106.133C280.06 106.082 280.143 106.051 280.23 106.043C280.317 106.036 280.404 106.053 280.482 106.092C280.56 106.131 280.626 106.19 280.672 106.264C280.718 106.338 280.743 106.423 280.744 106.51L280.755 115.283C280.755 115.355 280.739 115.427 280.707 115.493C280.676 115.558 280.629 115.615 280.572 115.66L261.529 130.176C261.459 130.231 261.375 130.265 261.286 130.274C261.197 130.283 261.108 130.267 261.028 130.227C260.949 130.188 260.881 130.127 260.835 130.051C260.788 129.976 260.763 129.888 260.764 129.799L260.775 120.747C260.776 120.673 260.793 120.601 260.827 120.535C260.861 120.47 260.909 120.413 260.969 120.369Z" fill="black"/>
<path d="M251.108 143.874L232.83 129.012C232.528 128.768 232.374 128.448 232.367 128.053L232.183 120.154C232.182 120.032 232.215 119.912 232.278 119.808C232.342 119.704 232.434 119.62 232.543 119.566C232.653 119.512 232.775 119.49 232.896 119.502C233.018 119.515 233.133 119.561 233.229 119.637C239.163 124.256 244.972 128.901 250.655 133.571C252.778 135.328 251.927 140.716 252.056 143.389C252.062 143.501 252.036 143.614 251.98 143.712C251.924 143.81 251.84 143.889 251.74 143.941C251.639 143.992 251.526 144.013 251.414 144.001C251.302 143.989 251.195 143.945 251.108 143.874Z" fill="black"/>
<path d="M280.819 120.218L280.852 128.409C280.852 128.513 280.828 128.617 280.781 128.71C280.734 128.804 280.666 128.885 280.582 128.947L261.874 143.044C261.774 143.121 261.655 143.168 261.53 143.181C261.404 143.193 261.278 143.17 261.165 143.113C261.053 143.057 260.958 142.97 260.893 142.862C260.828 142.755 260.794 142.631 260.796 142.505L260.828 134.325C260.828 134.221 260.852 134.117 260.899 134.024C260.946 133.93 261.014 133.849 261.098 133.786L279.742 119.69C279.841 119.614 279.959 119.566 280.083 119.553C280.208 119.541 280.333 119.563 280.445 119.618C280.558 119.673 280.652 119.759 280.718 119.865C280.784 119.971 280.819 120.093 280.819 120.218Z" fill="black"/>
<path d="M258.361 186.13C258.361 186.427 258.242 186.712 258.032 186.922C257.822 187.133 257.537 187.251 257.24 187.251H255.537C255.39 187.251 255.244 187.222 255.108 187.165C254.972 187.109 254.849 187.026 254.744 186.922C254.64 186.818 254.558 186.695 254.501 186.559C254.445 186.423 254.416 186.277 254.416 186.13V123.279C254.416 122.982 254.534 122.697 254.744 122.487C254.955 122.277 255.24 122.158 255.537 122.158H257.24C257.537 122.158 257.822 122.277 258.032 122.487C258.242 122.697 258.361 122.982 258.361 123.279V186.13Z" fill="black"/>
<path d="M261.669 146.46C267.316 142.106 273.75 136.664 280.162 132.903C280.672 132.608 280.924 132.755 280.916 133.344L280.83 141.244C280.823 141.826 280.564 142.253 280.054 142.526C273.739 145.975 267.779 151.417 262.089 155.89C261.141 156.63 260.652 156.4 260.624 155.2L260.473 148.971C260.451 147.929 260.85 147.092 261.669 146.46Z" fill="black"/>
<path d="M234.307 133.808C240.202 137.925 245.375 142.581 250.472 146.784C251.456 147.588 251.952 148.626 251.959 149.898L251.981 155.427C251.981 155.606 251.931 155.781 251.836 155.933C251.742 156.084 251.606 156.206 251.444 156.284C251.283 156.362 251.103 156.392 250.926 156.372C250.748 156.352 250.579 156.282 250.44 156.17L234.102 143.109C232.881 142.132 232.256 140.86 232.227 139.294L232.151 134.951C232.123 133.169 232.841 132.788 234.307 133.808Z" fill="black"/>
<path d="M233.337 145.792L251.819 160.47C251.891 160.526 251.948 160.598 251.988 160.68C252.027 160.763 252.047 160.853 252.045 160.944L251.948 168.876C251.948 168.987 251.916 169.095 251.857 169.189C251.798 169.283 251.713 169.359 251.613 169.407C251.514 169.455 251.402 169.474 251.292 169.462C251.181 169.451 251.076 169.408 250.989 169.339L232.593 154.877C232.521 154.82 232.464 154.748 232.425 154.666C232.385 154.584 232.366 154.494 232.367 154.402L232.378 146.255C232.378 146.144 232.41 146.035 232.469 145.942C232.528 145.848 232.612 145.772 232.712 145.724C232.812 145.676 232.924 145.656 233.034 145.668C233.145 145.68 233.249 145.723 233.337 145.792Z" fill="black"/>
<path d="M280.496 154.952L262.294 168.639C262.163 168.736 262.008 168.796 261.845 168.81C261.683 168.825 261.519 168.794 261.373 168.722C261.227 168.649 261.104 168.538 261.017 168.399C260.93 168.261 260.884 168.101 260.882 167.938L260.818 160.287C260.817 160.149 260.849 160.012 260.911 159.889C260.973 159.765 261.062 159.658 261.173 159.575L279.397 145.943C279.528 145.845 279.685 145.785 279.848 145.771C280.012 145.757 280.176 145.788 280.323 145.862C280.469 145.936 280.592 146.049 280.678 146.189C280.764 146.329 280.809 146.49 280.809 146.654L280.852 154.241C280.852 154.379 280.82 154.515 280.758 154.639C280.697 154.762 280.607 154.87 280.496 154.952Z" fill="black"/>
<path d="M251.894 174.706L251.808 182.099C251.801 182.911 251.485 183.059 250.86 182.541L234.188 168.779C232.995 167.795 232.385 166.53 232.356 164.986L232.259 160.287C232.223 158.476 232.906 158.142 234.307 159.285L251.043 172.896C251.312 173.114 251.528 173.391 251.675 173.704C251.823 174.017 251.898 174.36 251.894 174.706Z" fill="black"/>
<path d="M260.656 173.165L280.216 158.412C280.269 158.371 280.333 158.346 280.4 158.34C280.466 158.334 280.533 158.347 280.593 158.377C280.653 158.408 280.703 158.455 280.737 158.512C280.771 158.57 280.789 158.636 280.787 158.703L280.733 167.367C280.733 167.421 280.72 167.475 280.696 167.523C280.671 167.572 280.636 167.614 280.593 167.647L261.475 182.606C261.423 182.645 261.362 182.67 261.297 182.677C261.232 182.683 261.166 182.672 261.107 182.645C261.049 182.617 260.998 182.573 260.962 182.519C260.926 182.465 260.906 182.401 260.904 182.336L260.516 173.456C260.515 173.4 260.527 173.344 260.551 173.294C260.575 173.243 260.611 173.199 260.656 173.165Z" fill="black"/>
<path d="M255.602 405.481L243.456 374.552C243.393 374.391 243.364 374.218 243.373 374.045C243.381 373.872 243.425 373.702 243.504 373.546C243.582 373.391 243.692 373.254 243.827 373.143C243.961 373.032 244.118 372.95 244.286 372.903C244.408 372.867 244.717 373.05 245.213 373.453C248.913 376.477 252.519 379.631 256.033 382.915C256.449 383.303 256.841 383.285 257.207 382.861C259.373 380.436 265.937 373.744 269.094 373.183C269.195 373.164 269.299 373.172 269.396 373.207C269.492 373.242 269.577 373.303 269.643 373.382C269.708 373.462 269.75 373.557 269.765 373.659C269.781 373.76 269.769 373.864 269.73 373.959L257.121 405.492C257.059 405.643 256.953 405.772 256.817 405.863C256.681 405.953 256.521 406.001 256.358 406C256.194 405.999 256.035 405.949 255.9 405.856C255.766 405.764 255.662 405.633 255.602 405.481Z" fill="black"/>
<path fill-rule="evenodd" clip-rule="evenodd" d="M254.287 212.468L254.265 369.433C254.265 369.501 254.245 369.566 254.208 369.622C254.17 369.678 254.118 369.722 254.056 369.748C254.033 369.758 254.008 369.765 253.984 369.77C253.943 369.777 253.901 369.778 253.86 369.77C253.793 369.758 253.732 369.727 253.684 369.681L243.607 360.122C243.578 360.094 243.544 360.072 243.507 360.056C243.482 360.045 243.455 360.037 243.428 360.033C243.361 360.021 243.292 360.03 243.23 360.057C243.168 360.085 243.115 360.13 243.078 360.188C243.042 360.246 243.023 360.313 243.025 360.381L243.208 368.269C243.209 368.301 243.215 368.332 243.224 368.362C243.229 368.377 243.235 368.391 243.242 368.406C243.262 368.448 243.291 368.486 243.327 368.517L256.076 379.197C256.137 379.246 256.213 379.273 256.291 379.273C256.331 379.273 256.369 379.266 256.405 379.253C256.442 379.241 256.476 379.222 256.507 379.197L269.676 368.453C269.715 368.421 269.747 368.382 269.769 368.338C269.792 368.293 269.804 368.244 269.806 368.194L269.87 360.758C269.87 360.692 269.851 360.627 269.815 360.572C269.779 360.517 269.728 360.473 269.668 360.445C269.608 360.418 269.541 360.409 269.475 360.418C269.41 360.428 269.349 360.456 269.299 360.499L259.309 369.584C259.287 369.605 259.263 369.622 259.238 369.636C259.205 369.654 259.17 369.667 259.133 369.673C259.103 369.679 259.073 369.68 259.043 369.677C259.006 369.674 258.971 369.666 258.937 369.651C258.91 369.64 258.885 369.625 258.862 369.608C258.832 369.585 258.806 369.557 258.785 369.525C258.753 369.477 258.734 369.422 258.728 369.364C258.728 369.355 258.727 369.346 258.727 369.336L258.792 212.35C258.793 212.261 258.827 212.177 258.889 212.113L267.37 203.556C267.434 203.492 267.47 203.404 267.47 203.314C267.47 203.223 267.434 203.136 267.37 203.071L256.798 192.38C256.765 192.348 256.726 192.322 256.683 192.305C256.64 192.288 256.594 192.28 256.548 192.281C256.502 192.282 256.456 192.292 256.414 192.311C256.372 192.33 256.334 192.357 256.302 192.391L245.849 203.308C245.788 203.372 245.754 203.457 245.754 203.545C245.754 203.633 245.788 203.718 245.849 203.782L254.19 212.231C254.252 212.295 254.286 212.38 254.287 212.468ZM254.826 205.403C255.157 205.899 255.663 206.231 256.232 206.326C256.515 206.373 256.804 206.361 257.083 206.29C257.363 206.219 257.628 206.09 257.863 205.911C258.098 205.732 258.298 205.507 258.452 205.248C258.544 205.093 258.619 204.928 258.675 204.756C258.713 204.64 258.742 204.521 258.762 204.4C258.864 203.794 258.735 203.175 258.404 202.679C258.073 202.183 257.567 201.851 256.997 201.756C256.716 201.709 256.426 201.721 256.147 201.792C255.867 201.863 255.602 201.992 255.367 202.171C255.132 202.35 254.932 202.575 254.778 202.835C254.623 203.094 254.518 203.382 254.468 203.682C254.367 204.288 254.495 204.907 254.826 205.403Z" fill="black"/>
</svg>
