<svg width="512" height="512" viewBox="0 0 512 512" fill="none" xmlns="http://www.w3.org/2000/svg">
<rect width="512" height="512" fill="white"/>
<path d="M290.659 257.501L290.66 257.501C291.082 257.201 291.422 256.977 291.673 256.835C291.794 256.766 291.917 256.705 292.029 256.667C292.083 256.649 292.165 256.626 292.258 256.625C292.345 256.623 292.538 256.639 292.687 256.807C292.836 256.975 292.83 257.169 292.817 257.256C292.804 257.349 292.771 257.427 292.747 257.478C292.696 257.585 292.619 257.699 292.536 257.812C292.365 258.042 292.1 258.351 291.75 258.732L291.748 258.735C267.036 285.311 239.21 311.877 204.26 325.153C186.065 332.078 169.046 331.873 154.556 325.655C140.069 319.438 128.161 307.234 120.139 290.255L120.139 290.254C118.486 286.744 117.316 282.964 116.304 279.174C115.875 277.564 115.476 275.964 115.082 274.38C114.541 272.209 114.008 270.07 113.414 267.982L113.413 267.98C112.819 265.856 112.225 264.297 111.64 263.278C111.032 262.217 110.534 261.91 110.195 261.905C109.856 261.9 109.347 262.194 108.706 263.237C108.089 264.24 107.446 265.781 106.784 267.887C106.254 269.577 106.451 272.372 107.493 276.36C112.721 296.327 119.512 312.041 136.14 324.01L136.14 324.01C167.583 346.66 207.44 339.755 237.955 318.524L238.241 318.934L237.955 318.523C264.889 299.789 290.478 277.266 314.721 250.955C314.863 250.799 315.07 250.651 315.343 250.638C315.612 250.625 315.83 250.75 315.986 250.89L316.521 251.344L316.526 251.349L316.532 251.354C316.782 251.58 316.976 251.873 316.993 252.234C317.011 252.591 316.85 252.903 316.63 253.157C316.63 253.158 316.63 253.158 316.629 253.159L316.251 252.832C298.087 274.2 278.438 294.047 257.305 312.372L290.659 257.501ZM290.659 257.501C282.721 263.16 275.175 269.137 267.686 275.068C263.324 278.522 258.981 281.961 254.591 285.314C242.647 294.435 230.313 302.949 216.159 309.516M290.659 257.501L216.159 309.516M216.159 309.516C201.836 316.153 184.799 319.558 169.164 317.48C153.541 315.403 139.336 307.859 130.584 292.601L130.582 292.597C129.443 290.647 129.179 288.915 129.681 287.36L129.682 287.358C129.753 287.135 129.882 286.935 130.056 286.779C130.23 286.622 130.443 286.516 130.673 286.47C130.902 286.424 131.14 286.441 131.361 286.518C131.581 286.595 131.778 286.73 131.929 286.908L131.931 286.911C132.351 287.399 132.771 287.891 133.194 288.385C138.378 294.451 143.85 300.853 150.761 304.524C172.313 316.009 195.703 310.481 217.139 298.763C238.576 287.044 258.172 269.075 272.229 255.464C272.388 255.317 272.528 255.109 272.541 254.84C272.553 254.572 272.434 254.35 272.297 254.186L272.147 254.006H272.094C271.986 253.92 271.853 253.852 271.693 253.829C271.423 253.79 271.192 253.897 271.022 254.023C267.377 256.675 263.717 259.41 260.031 262.166C247.4 271.606 234.455 281.282 220.672 288.673C202.887 298.21 183.768 303.903 162.257 300.322L162.257 300.322C157.868 299.593 154.751 298.157 152.822 296.075C152.235 295.439 151.856 294.929 151.655 294.539C151.444 294.126 151.496 293.977 151.51 293.953C151.524 293.927 151.622 293.802 152.087 293.752C152.526 293.705 153.164 293.742 154.02 293.883C185.107 299.023 211.125 284.132 233.709 264.469L233.709 264.469C251.862 248.657 270.122 231.838 288.49 214.01L288.492 214.008C289.062 213.448 289.418 212.819 289.47 212.123C289.522 211.429 289.266 210.755 288.787 210.115C288.786 210.114 288.785 210.113 288.784 210.111L288.304 209.444L288.304 209.444L288.297 209.435C288.15 209.24 287.964 209.076 287.752 208.954C287.54 208.832 287.306 208.754 287.063 208.726C286.82 208.698 286.574 208.72 286.34 208.791C286.107 208.863 285.891 208.983 285.707 209.143L285.705 209.145C265.78 226.64 246.349 243.407 227.414 259.444C209.869 274.294 187.312 287.236 163.445 285.924C139.385 284.586 122.883 269.558 114.415 249.904C105.941 230.234 105.54 205.978 113.682 186.328L113.683 186.325C113.942 185.687 114.436 185.174 115.063 184.89C115.69 184.606 116.401 184.574 117.051 184.799C117.051 184.799 117.052 184.799 117.052 184.799L117.886 185.095L117.89 185.097C118.732 185.388 119.431 185.991 119.844 186.782C120.257 187.572 120.352 188.491 120.11 189.349L120.11 189.349C113.032 214.49 115.724 241.204 133.265 260.379C133.265 260.379 133.265 260.379 133.265 260.379L133.634 260.042M216.159 309.516L278.507 201.433C278.679 201.063 278.77 200.66 278.773 200.251C278.776 199.841 278.692 199.436 278.525 199.061C278.359 198.686 278.115 198.351 277.809 198.077L277.808 198.076C276.984 197.343 276.117 196.579 275.218 195.786C271.153 192.202 266.429 188.039 262.095 183.58C256.796 178.13 252.131 172.291 249.969 166.598M133.634 260.042C151.077 279.186 175.325 280.24 197.116 266.792C220.461 252.358 239.971 235.064 259.616 217.651C265.512 212.424 271.421 207.187 277.448 202.014M133.634 260.042C116.244 241.032 113.544 214.516 120.591 189.485C120.868 188.503 120.759 187.454 120.287 186.55C119.816 185.647 119.016 184.958 118.053 184.624M133.634 260.042L118.053 184.624M277.448 202.014L277.771 202.395C277.772 202.395 277.772 202.394 277.773 202.394C277.773 202.394 277.774 202.393 277.774 202.393L277.448 202.014ZM277.448 202.014C277.705 201.797 277.911 201.527 278.053 201.222C278.196 200.917 278.271 200.585 278.273 200.247C278.276 199.909 278.206 199.574 278.068 199.264C277.931 198.954 277.728 198.676 277.475 198.449C276.655 197.719 275.79 196.957 274.893 196.166C265.863 188.206 253.504 177.312 249.501 166.775M249.501 166.775L249.969 166.6C249.969 166.599 249.969 166.599 249.969 166.598M249.501 166.775C249.177 165.911 249.267 165.092 249.771 164.318C254.738 156.713 263.826 156.492 272.855 156.272C274.085 156.242 275.313 156.212 276.53 156.164L249.969 166.598M249.501 166.775L249.968 166.598C249.968 166.598 249.968 166.598 249.969 166.598M271.913 254.506C272.093 254.722 272.084 254.92 271.886 255.1C243.776 282.319 193.66 326.819 150.996 304.083C144.173 300.459 138.762 294.129 133.562 288.046C133.144 287.557 132.727 287.07 132.311 286.585C132.102 286.338 131.831 286.152 131.525 286.046C131.22 285.939 130.892 285.916 130.575 285.98C130.258 286.043 129.963 286.19 129.723 286.406C129.482 286.622 129.303 286.898 129.205 287.206C128.647 288.934 128.962 290.815 130.15 292.85L271.913 254.506ZM271.913 254.506H271.886C271.724 254.29 271.535 254.263 271.319 254.425C267.684 257.07 264.032 259.8 260.35 262.552C231.396 284.194 200.6 307.212 162.175 300.815C157.729 300.077 154.488 298.61 152.454 296.414C150.06 293.822 150.609 292.814 154.101 293.39C184.965 298.493 210.833 283.723 233.38 264.092C251.526 248.287 269.78 231.473 288.141 213.652C289.167 212.644 289.248 211.563 288.384 210.411L287.898 209.736M271.913 254.506L287.898 209.736M287.898 209.736C287.791 209.594 287.657 209.476 287.503 209.387C287.349 209.299 287.18 209.243 287.005 209.223C286.83 209.202 286.654 209.218 286.487 209.269C286.32 209.321 286.166 209.406 286.035 209.52C266.107 227.018 246.675 243.786 227.737 259.826C210.158 274.704 187.476 287.746 163.417 286.423C114.84 283.723 96.8294 225.695 113.22 186.136C113.527 185.38 114.114 184.771 114.857 184.434C115.601 184.098 116.445 184.059 117.216 184.327L118.053 184.624M287.898 209.736L118.053 184.624M291.844 257.048C291.844 257.048 291.844 257.048 291.844 257.048L291.844 257.048ZM276.55 156.663C304.787 155.547 341.801 154.827 387.595 154.503L387.596 154.503C393.231 154.45 398.111 155.04 402.246 156.265L402.247 156.265C402.611 156.373 402.947 156.556 403.233 156.803C403.519 157.049 403.748 157.353 403.904 157.694C406.039 162.436 406.035 167.34 403.872 172.44C388.232 209.335 371.585 245.78 353.929 281.774C351.09 287.554 348.194 289.482 345.512 289.364C344.144 289.303 342.748 288.714 341.343 287.697C339.938 286.68 338.55 285.255 337.207 283.573C332.791 278.042 329.016 269.941 326.749 265.077C326.247 264 325.819 263.082 325.475 262.385L325.473 262.382C325.3 262.038 325.046 261.742 324.732 261.519C324.418 261.296 324.055 261.153 323.674 261.103C323.292 261.052 322.904 261.095 322.543 261.229C322.183 261.362 321.86 261.582 321.603 261.868L321.602 261.869C297.3 289.089 265.359 324.707 229.887 344.07C212.161 353.746 193.587 359.342 174.668 357.822C155.759 356.304 136.447 347.672 117.243 328.784L117.242 328.784C115.477 327.053 114.9 325.028 115.487 322.645L116 320.567C116 320.567 116 320.567 116 320.566C116.071 320.285 116.216 320.029 116.42 319.824C116.624 319.618 116.88 319.472 117.161 319.4C117.441 319.328 117.736 319.334 118.014 319.416C118.291 319.498 118.541 319.653 118.738 319.866L276.55 156.663Z" fill="white" stroke="black"/>
<path d="M135.986 199.591L135.986 199.591L135.994 199.599C136.172 199.792 136.306 200.02 136.386 200.268C136.466 200.515 136.491 200.776 136.459 201.032C133.676 222.48 132.083 237.353 144.035 256.819C144.781 258.043 145.35 258.978 145.741 259.625C145.937 259.949 146.087 260.2 146.193 260.378C146.246 260.467 146.287 260.537 146.317 260.589C146.332 260.615 146.344 260.635 146.352 260.65C146.356 260.657 146.359 260.662 146.361 260.666C146.902 261.861 147.236 262.773 147.381 263.415C147.454 263.739 147.471 263.965 147.458 264.11C147.453 264.161 147.446 264.193 147.44 264.213C147.419 264.214 147.386 264.212 147.335 264.203C147.192 264.177 146.979 264.101 146.686 263.944C146.103 263.633 145.309 263.067 144.295 262.223C125.777 246.773 123.864 220.953 133.145 199.948C133.59 198.954 134.024 198.625 134.36 198.58C134.706 198.535 135.24 198.748 135.986 199.591ZM147.429 264.237C147.429 264.237 147.43 264.237 147.431 264.235C147.43 264.237 147.429 264.237 147.429 264.237ZM147.464 264.21C147.465 264.209 147.466 264.209 147.466 264.209C147.466 264.209 147.465 264.21 147.464 264.21Z" fill="white" stroke="black"/>
<path d="M343.368 267.155L343.36 267.151L343.352 267.147C343.35 267.147 343.349 267.146 343.348 267.144C343.347 267.143 343.346 267.142 343.345 267.14C343.345 267.138 343.344 267.136 343.345 267.135C343.345 267.133 343.345 267.132 343.346 267.13L343.559 266.731L343.559 266.731L343.565 266.718C346.575 260.682 349.562 254.943 351.877 250.745C353.036 248.646 353.976 247.023 354.66 245.934C355.004 245.389 355.276 244.988 355.475 244.732C355.512 244.684 355.545 244.643 355.574 244.609L355.701 244.667C355.689 244.716 355.675 244.773 355.657 244.838C355.566 245.162 355.405 245.63 355.172 246.239C354.707 247.454 353.972 249.189 352.991 251.377C351.031 255.75 348.256 261.564 345.262 267.568L345.262 267.568L345.257 267.58L345.068 267.985L345.068 267.985L345.066 267.989C345.065 267.991 345.064 267.992 345.063 267.993C345.062 267.994 345.062 267.994 345.062 267.994C345.061 267.995 345.06 267.995 345.058 267.996C345.057 267.996 345.055 267.997 345.053 267.997C345.051 267.996 345.05 267.996 345.048 267.995L345.048 267.995L345.042 267.992L343.368 267.155Z" fill="black" stroke="black"/>
</svg>
