<svg width="512" height="512" viewBox="0 0 512 512" fill="none" xmlns="http://www.w3.org/2000/svg">
<rect width="512" height="512" fill="white"/>
<path d="M265.871 145.375C264.163 150.239 259.708 152.392 256.961 156.643C256.602 157.199 256.231 157.206 255.847 156.661C252.395 151.779 247.494 148.327 245.768 142.721C241.499 128.948 244.5 116.802 254.771 106.284C254.856 106.196 254.957 106.125 255.07 106.076C255.182 106.028 255.303 106.002 255.426 106C255.548 105.998 255.67 106.021 255.784 106.066C255.897 106.112 256.001 106.18 256.088 106.265C266.576 116.66 270.938 131.027 265.871 145.375Z" fill="black"/>
<path d="M304.22 188.161C304.319 185.315 303.75 182.716 302.512 180.365C292.563 161.469 280.535 141.96 297.426 122.693C299.01 120.874 300.854 119.519 302.958 118.628C303.737 118.294 303.88 118.473 303.385 119.166C289.426 138.415 305.501 150.258 317.417 163.27C317.502 163.37 317.62 163.438 317.75 163.46C317.879 163.483 318.013 163.458 318.126 163.391C318.24 163.325 318.326 163.22 318.37 163.096C318.413 162.971 318.411 162.836 318.364 162.713L314.8 152.466C314.095 150.449 314.695 149.923 316.601 150.889C319.595 152.411 322.225 155.3 324.49 159.557C338.56 185.934 320.907 213.498 302.568 232.19C296.764 238.105 292.266 243.55 289.073 248.525C288.987 248.661 288.875 248.692 288.739 248.617L288.312 248.376C288.145 248.286 288.018 248.136 287.956 247.954C287.894 247.772 287.902 247.571 287.978 247.392C299.839 221.127 310.234 193.47 287.551 170.453C286.103 168.98 286.264 168.764 288.034 169.803C295.236 174.023 300.464 180.173 303.719 188.254C304.028 189.033 304.195 189.003 304.22 188.161Z" fill="black"/>
<path d="M214.399 219.717C214.374 217.031 214.362 213.913 214.362 210.362C214.337 199.794 217.789 191.1 224.719 184.282C225.561 183.453 225.715 183.57 225.183 184.635C218.705 197.609 217.573 206.89 216.663 221.629C216.181 229.369 219.373 238.427 222.863 244.794C225.103 248.865 224.701 249.144 221.656 245.629C203.206 224.394 176.217 202.417 182.676 170.249C184.322 162.094 188.208 155.622 194.333 150.833C197.291 148.519 198.138 149.132 196.876 152.671L194.872 158.314C192.632 164.6 193.387 165.027 197.136 159.595C198.683 157.342 201.696 154.088 206.176 149.831C215.358 141.082 216.731 131.418 210.297 120.837C210 120.355 210.111 120.218 210.631 120.429C212.549 121.196 213.811 121.963 214.417 122.73C233.629 147.195 214.51 165.683 205.99 187.827C205.879 188.112 205.959 188.316 206.231 188.44H206.25C206.535 188.564 206.72 188.533 206.807 188.347C210.16 181.417 214.789 175.459 220.691 170.472C220.852 170.348 221.007 170.348 221.155 170.472L221.564 170.825C221.663 170.911 221.669 171.01 221.582 171.121C210.024 185.798 207.308 202.046 213.433 219.865C214.089 221.783 214.411 221.734 214.399 219.717Z" fill="black"/>
<path d="M255.045 160.966C254.941 161.095 254.707 161.116 254.356 161.029C254.005 160.942 253.545 160.748 253.001 160.459C252.457 160.169 251.84 159.789 251.186 159.341C250.532 158.893 249.853 158.385 249.188 157.847C247.845 156.759 246.641 155.613 245.84 154.66C245.039 153.707 244.708 153.026 244.919 152.765C245.023 152.637 245.257 152.615 245.608 152.702C245.959 152.789 246.419 152.983 246.963 153.273C247.507 153.562 248.124 153.942 248.778 154.39C249.432 154.838 250.111 155.346 250.776 155.885C252.119 156.972 253.323 158.118 254.124 159.071C254.924 160.024 255.256 160.706 255.045 160.966Z" fill="black"/>
<path d="M258.224 162.898C258.187 162.928 258.145 162.95 258.1 162.964C258.055 162.977 258.008 162.981 257.962 162.976C257.915 162.971 257.87 162.956 257.829 162.933C257.788 162.91 257.752 162.88 257.723 162.843L257.593 162.676C257.392 162.423 257.333 162.063 257.416 161.618C257.5 161.172 257.726 160.649 258.082 160.078C258.437 159.507 258.914 158.9 259.486 158.292C260.059 157.683 260.715 157.085 261.416 156.532L261.788 156.234C262.488 155.681 263.221 155.184 263.945 154.769C264.668 154.355 265.368 154.033 266.004 153.821C266.64 153.609 267.2 153.511 267.652 153.534C268.104 153.556 268.438 153.698 268.637 153.951L268.767 154.118C268.821 154.191 268.846 154.281 268.836 154.371C268.825 154.461 268.781 154.543 268.711 154.601L258.224 162.898Z" fill="black"/>
<path d="M257.407 170.657C258.632 163.739 262.827 160.231 269.992 160.132C271.515 160.108 272.993 160.614 274.169 161.561L275.858 162.935C276.099 163.134 276.274 163.402 276.36 163.703C276.445 164.004 276.437 164.324 276.336 164.62C276.236 164.916 276.047 165.175 275.796 165.361C275.544 165.547 275.242 165.653 274.93 165.663C263.904 165.998 260.748 169.617 256.999 178.527C256.919 178.708 256.777 178.854 256.6 178.941C256.422 179.027 256.219 179.048 256.028 178.999C255.836 178.95 255.668 178.834 255.554 178.673C255.439 178.512 255.386 178.316 255.402 178.119C256.312 169.858 244.841 165.422 238.381 165.292C236.562 165.267 236.308 164.618 237.62 163.343C242.36 158.74 247.062 158.616 251.727 162.972C253.88 164.977 254.753 168.114 256.275 170.842C256.832 171.845 257.209 171.783 257.407 170.657Z" fill="black"/>
<path d="M297.426 207.113C297.81 210.615 297.606 214.68 296.814 219.308C296.777 219.519 296.653 219.611 296.442 219.587L295.96 219.549C295.502 219.512 295.273 219.265 295.273 218.807C295.298 206.21 291.87 194.707 284.99 184.3C283.876 182.63 284.086 182.444 285.621 183.743C292.439 189.597 296.374 197.386 297.426 207.113Z" fill="black"/>
<path d="M167.697 203.196C162.239 201.841 154.703 194.528 163.279 191.075C175.325 186.212 178.908 200.69 184.235 207.707C184.364 207.876 184.43 208.085 184.424 208.297C184.417 208.51 184.337 208.714 184.198 208.875C184.059 209.036 183.869 209.144 183.659 209.181C183.45 209.219 183.234 209.183 183.047 209.08C178.642 206.593 173.525 204.632 167.697 203.196Z" fill="black"/>
<path d="M341.864 203.901C335.677 205.955 330.071 208.269 325.047 210.843C323.203 211.784 322.931 211.45 324.23 209.841C326.866 206.586 329.248 202.979 331.376 199.019C333.492 195.084 335.268 192.609 336.704 191.595C347.284 184.151 358.848 198.221 341.864 203.901Z" fill="black"/>
<path d="M209.239 239.206C198.51 231.67 182.732 229.758 167.808 229.48C165.445 229.43 162.995 228.242 160.458 225.916C160.012 225.507 159.783 225.006 159.771 224.412C159.684 221.108 161.008 218.41 163.743 216.319C181.656 202.602 200.403 226.268 210.519 237.665C214.368 241.997 213.941 242.51 209.239 239.206Z" fill="black"/>
<path d="M317.603 232.858C313.483 233.674 305.594 238.538 301.417 241.211C298.608 243.005 298.231 242.59 300.285 239.967C309.993 227.66 321.706 210.119 339.859 212.458C346.034 213.25 349.518 216.938 350.31 223.521C350.384 224.09 350.242 224.598 349.883 225.043C347.816 227.666 345.248 229.139 342.179 229.461C331.55 230.599 323.358 231.732 317.603 232.858Z" fill="black"/>
<path d="M369.149 294.669L373.938 295.449C374.294 295.509 374.629 295.662 374.908 295.89C375.187 296.119 375.402 296.417 375.531 296.754C375.661 297.092 375.7 297.457 375.645 297.813C375.59 298.17 375.444 298.507 375.219 298.79C368.63 307.013 356.026 309.129 345.928 309.018C317.473 308.665 282.465 305.175 265.147 334.262C265.108 334.331 265.05 334.387 264.981 334.425C264.912 334.463 264.834 334.481 264.755 334.477C264.676 334.474 264.6 334.448 264.535 334.403C264.469 334.359 264.418 334.297 264.386 334.225C264.237 333.878 264.225 333.507 264.349 333.111C271.291 311.988 286.196 303.969 305.259 295.375C319.997 288.748 332.36 279.114 340.638 264.97C341.69 263.188 342.012 263.312 341.603 265.341C339.722 274.833 334.828 282.282 326.921 287.69C325.646 288.556 325.751 288.767 327.236 288.321C334.971 286.019 342.501 282.61 349.826 278.093C357.734 273.212 368.76 257.081 359.534 248.543C359.042 248.088 358.689 247.503 358.517 246.855C358.345 246.207 358.362 245.524 358.564 244.885C358.767 244.246 359.147 243.678 359.661 243.248C360.175 242.817 360.8 242.542 361.465 242.454C371.08 241.13 376.345 245.257 377.261 254.835C377.323 255.442 377.595 255.559 378.078 255.188C378.585 254.792 378.901 254.316 379.024 253.759C380.757 245.827 379.297 239.534 374.644 234.881C371.835 232.085 372.175 231.621 375.665 233.489C386.059 239.021 391.684 252.571 386.356 263.801C384.63 267.402 381.27 270.724 378.375 273.657C378.297 273.737 378.25 273.844 378.243 273.957C378.235 274.07 378.267 274.181 378.334 274.27C378.4 274.359 378.495 274.419 378.602 274.44C378.708 274.46 378.819 274.439 378.913 274.381C382.081 272.636 385.49 271.609 389.141 271.3C393.051 270.978 394.22 272.611 392.649 276.2C389.864 282.548 383.034 285.147 376.778 286.391C375.306 286.675 375.306 286.954 376.778 287.226C382.198 288.21 392.872 291.309 391.182 297.286C391.111 297.542 390.986 297.779 390.816 297.982C390.646 298.185 390.434 298.349 390.195 298.464C389.955 298.578 389.694 298.64 389.429 298.645C389.164 298.65 388.901 298.598 388.658 298.493C382.495 295.795 376.005 294.434 369.187 294.409C368.073 294.397 368.06 294.484 369.149 294.669Z" fill="black"/>
<path d="M183.475 287.133C176.483 282.221 172.115 275.582 170.37 267.216C169.788 264.445 170.172 264.302 171.521 266.79C188.951 298.846 234.297 293.222 246.214 330.643C247.464 334.566 247.062 334.739 245.008 331.162C230.418 305.751 192.904 308.294 168.068 309.222C156.356 309.668 141.766 307.941 133.45 298.623C133.257 298.406 133.12 298.145 133.053 297.863C132.985 297.58 132.988 297.285 133.061 297.004C133.135 296.723 133.276 296.465 133.474 296.252C133.671 296.039 133.918 295.878 134.193 295.783C136.185 295.103 138.239 294.781 140.355 294.818C140.442 294.83 140.492 294.738 140.504 294.54V294.521C140.504 294.442 140.488 294.367 140.46 294.311C140.433 294.255 140.395 294.224 140.355 294.224C134.044 294.162 127.993 295.381 122.202 297.881C121.94 297.995 121.657 298.048 121.372 298.037C121.087 298.025 120.809 297.95 120.557 297.816C120.306 297.682 120.087 297.494 119.919 297.264C119.751 297.034 119.636 296.769 119.585 296.489C118.935 293.055 124.652 289.751 127.381 289.027C131.439 287.95 135.523 287.393 139.631 287.356C139.641 287.356 139.651 287.352 139.658 287.345C139.665 287.338 139.669 287.329 139.669 287.319C139.669 287.309 139.665 287.3 139.658 287.293C139.651 287.286 139.641 287.282 139.631 287.282C135.003 286.762 130.499 285.562 126.118 283.681C122.332 282.029 120.531 279.207 118.471 275.811C118.17 275.312 118.007 274.742 118 274.159C117.993 273.576 118.143 273.002 118.432 272.497C118.722 271.991 119.142 271.572 119.648 271.284C120.154 270.995 120.728 270.847 121.311 270.855C124.751 270.904 127.937 271.777 130.87 273.472C130.991 273.544 131.133 273.572 131.272 273.549C131.41 273.527 131.537 273.455 131.628 273.349C131.719 273.242 131.77 273.106 131.77 272.965C131.771 272.825 131.722 272.689 131.631 272.581C128.977 269.351 125.728 266.493 124.429 262.409C120.791 250.962 123.786 241.434 133.413 233.824C134.044 233.329 134.651 233.137 135.232 233.248C135.913 233.384 136.049 233.731 135.641 234.288C130.74 241.081 130.053 248.444 133.58 256.376C133.716 256.686 133.902 256.89 134.137 256.989C134.669 257.199 134.898 257.013 134.824 256.432C134.391 252.732 135.183 249.354 137.2 246.297C139.563 242.696 142.88 241.18 147.149 241.749L147.743 241.824C152.086 242.405 153.145 244.583 150.917 248.357C144.587 259.086 150.509 269.24 159.363 276.553C163.632 280.068 171.614 283.712 183.308 287.486C183.351 287.492 183.395 287.485 183.433 287.464C183.472 287.443 183.503 287.411 183.521 287.371C183.54 287.332 183.546 287.287 183.537 287.245C183.529 287.202 183.507 287.163 183.475 287.133Z" fill="black"/>
<path d="M238.325 289.528C230.102 274.437 217.536 264.172 199.772 263.467C198.151 263.405 196.511 262.947 194.853 262.093C194.382 261.852 193.972 261.507 193.652 261.085C193.332 260.663 193.111 260.175 193.006 259.656C192.901 259.137 192.914 258.601 193.044 258.088C193.174 257.575 193.418 257.098 193.758 256.692C198.102 251.513 210.984 257.917 215.346 260.849C226.619 268.447 236.314 278.873 244.432 292.127C244.443 292.138 244.456 292.147 244.472 292.15C244.487 292.154 244.503 292.152 244.517 292.146C244.532 292.14 244.544 292.129 244.552 292.116C244.56 292.102 244.564 292.086 244.562 292.071C241.128 276.256 223.699 261.128 209.759 254.464C198.417 249.026 186.166 247.838 175.178 242.25C174.734 242.024 174.353 241.694 174.066 241.287C173.779 240.88 173.596 240.409 173.532 239.916C173.468 239.422 173.525 238.92 173.699 238.454C173.872 237.988 174.157 237.57 174.528 237.239C184.032 228.682 206.028 237.796 213.842 244.329C219.856 249.366 226.495 256.772 233.759 266.548C247.136 284.566 253.856 305.367 253.917 328.953C253.917 330.141 253.633 331.026 253.063 331.608C252.951 331.722 252.811 331.803 252.656 331.844C252.502 331.885 252.339 331.883 252.185 331.84C252.032 331.796 251.892 331.712 251.782 331.596C251.672 331.48 251.596 331.337 251.56 331.181C247.513 312.953 239.068 290.363 223.216 280.934C217.777 277.704 210.724 276.757 204.45 275.365C202.816 275.006 202.662 274.313 203.986 273.286L205.693 271.95C206.334 271.456 207.066 271.093 207.846 270.883C208.627 270.673 209.441 270.619 210.241 270.725C223.55 272.488 230.084 280.748 237.991 289.751C238.771 290.629 238.882 290.555 238.325 289.528Z" fill="black"/>
<path d="M268.321 286.521C268.148 286.855 268.012 287.053 267.913 287.114C267.788 287.191 267.644 287.23 267.497 287.225C267.351 287.22 267.209 287.172 267.09 287.086C266.971 287.001 266.88 286.882 266.828 286.745C266.776 286.608 266.766 286.459 266.799 286.316C270.326 271.875 285.695 255.671 296.628 246.185C302.976 240.691 330.393 226.974 336.704 237.072C336.956 237.477 337.122 237.93 337.192 238.402C337.261 238.874 337.234 239.355 337.11 239.817C336.987 240.278 336.77 240.708 336.473 241.082C336.177 241.456 335.807 241.765 335.386 241.99C330.597 244.57 326.309 245.944 320.202 247.225C298.689 251.735 278.456 266.919 268.321 286.521Z" fill="black"/>
<path d="M231.754 306.549C223.104 299.811 216.255 297.379 207.289 293.407C192.7 286.948 170.871 271.3 173.692 252.404C173.71 252.27 173.769 252.146 173.863 252.05C173.957 251.955 174.08 251.892 174.215 251.871C174.349 251.85 174.488 251.873 174.611 251.935C174.734 251.998 174.835 252.097 174.899 252.218C175.846 254.111 176.013 256.506 176.922 258.177C185.535 274.103 199.085 282.994 214.083 290.883C220.431 294.224 228.729 299.644 232.385 305.992C233.103 307.254 232.893 307.44 231.754 306.549Z" fill="black"/>
<path d="M282.54 304.878C279.187 307.032 278.71 306.518 281.111 303.338C282.41 301.63 285.287 299.013 287.441 297.602C305.353 285.889 329.094 276.07 335.498 252.608C335.683 251.89 336.036 251.797 336.556 252.329C336.89 252.676 337.051 253.152 337.038 253.759C336.5 274.975 317.474 290.233 298.708 296.878C293.213 298.821 287.824 301.488 282.54 304.878Z" fill="black"/>
<path d="M268.822 296.377C275.95 285.444 287.848 272.173 301.899 270.446C303.842 270.211 305.463 270.824 306.763 272.284L307.505 273.101C307.682 273.299 307.8 273.542 307.846 273.804C307.892 274.065 307.865 274.335 307.766 274.581C307.668 274.828 307.503 275.043 307.29 275.201C307.076 275.359 306.823 275.454 306.558 275.476C279.031 277.834 269.286 305.306 261.657 327.172C260.234 331.231 259.349 331.119 259.003 326.838C257.939 313.857 260.735 301.117 267.393 288.618C267.578 288.284 267.832 288.031 268.154 287.857C268.315 287.771 268.482 287.684 268.655 287.597C268.989 287.437 269.268 287.208 269.49 286.911C278.14 275.384 299.171 251.494 315.394 254.836C315.767 254.912 316.122 255.063 316.435 255.28C316.749 255.497 317.015 255.775 317.218 256.098C317.421 256.42 317.556 256.781 317.616 257.157C317.676 257.534 317.659 257.918 317.566 258.288C315.877 265.045 310.122 264.469 304.647 264.432C290.892 264.358 275.226 283.904 268.284 296.043C268.185 296.229 268.222 296.371 268.395 296.47H268.414C268.575 296.582 268.711 296.551 268.822 296.377Z" fill="black"/>
<path d="M163.52 330.884C157.432 333.371 155.223 335.339 148.355 335.859C147.95 335.887 147.544 335.806 147.18 335.625C146.816 335.443 146.508 335.168 146.287 334.828C146.067 334.488 145.943 334.096 145.928 333.693C145.913 333.289 146.008 332.89 146.202 332.536C150.001 325.631 155.799 320.78 163.595 317.983C184.867 310.317 218.538 308.962 235.522 326.967C235.745 327.19 235.794 327.469 235.671 327.803C235.534 328.174 235.299 328.254 234.965 328.044C219.027 317.823 202.624 317.359 185.758 326.652C176.903 331.515 169.739 340.462 171.001 351.191C172.3 362.384 180.672 366.152 191.048 365.632C191.194 365.622 191.339 365.656 191.466 365.729C191.593 365.801 191.696 365.91 191.761 366.041C191.827 366.172 191.852 366.319 191.834 366.464C191.816 366.61 191.756 366.746 191.66 366.857C179.595 381.892 154.462 378.644 153.348 356.481C152.853 346.742 156.386 338.439 163.947 331.571C165.073 330.544 164.931 330.315 163.52 330.884Z" fill="black"/>
<path d="M346.782 332.554C355.779 340.907 358.78 350.993 355.785 362.81C351.312 380.389 328.443 378.997 319.069 366.82C318.253 365.756 318.5 365.329 319.812 365.539C328.388 366.894 336.518 362.773 338.856 354.031C341.511 344.1 335.2 333.297 326.847 327.784C312.034 318.002 294.883 318.763 279.124 326.058C277.206 326.949 276.959 326.615 278.382 325.056C285.138 317.705 298.558 314.345 308.359 313.436C327.682 311.654 353.483 314.679 364.231 332.016C364.464 332.389 364.594 332.817 364.608 333.257C364.621 333.697 364.518 334.132 364.309 334.519C364.099 334.906 363.791 335.23 363.415 335.459C363.04 335.688 362.61 335.813 362.17 335.821C356.874 335.945 351.93 334.609 347.339 331.812C347.24 331.738 347.154 331.756 347.079 331.868C346.968 332.028 346.863 332.159 346.764 332.258C346.677 332.357 346.683 332.455 346.782 332.554Z" fill="black"/>
<path d="M246.103 344.638C246.152 345.591 245.707 345.987 244.766 345.826C242.761 345.468 240.775 345.567 238.808 346.124C238.09 346.322 237.589 346.074 237.304 345.381C234.854 339.311 234.743 336.88 227.596 334.856C215.327 331.404 200.941 333.501 200.774 349.409C200.762 349.949 200.558 350.468 200.199 350.875C194.389 357.613 186.927 349.428 186.76 343.358C185.999 316.016 244.766 319.023 246.103 344.638Z" fill="black"/>
<path d="M284.34 334.763C277.732 336.526 275.431 340.573 273.129 346.234C273.011 346.523 272.792 346.757 272.513 346.891C272.235 347.025 271.918 347.049 271.625 346.958L267.096 345.603C266.802 345.519 266.543 345.341 266.359 345.096C266.175 344.852 266.075 344.554 266.075 344.248C266.075 337.547 271.699 331.663 277.194 329.027C287.155 324.251 297.08 322.914 306.967 325.018C314.299 326.577 322.578 332.795 323.636 340.759C324.434 346.717 321.334 353.455 315.153 354.29C314.657 354.358 314.152 354.326 313.667 354.197C313.183 354.068 312.729 353.845 312.332 353.539C311.935 353.234 311.603 352.852 311.354 352.417C311.105 351.982 310.946 351.502 310.884 351.005C309.04 335.982 300.192 330.568 284.34 334.763Z" fill="black"/>
<path d="M320.016 327.691C317.343 325.55 317.584 325.154 320.74 326.503C327.954 329.572 333.09 335.555 336.146 344.452C336.197 344.603 336.207 344.763 336.174 344.917C336.142 345.071 336.068 345.212 335.961 345.325L335.33 345.993C335.181 346.166 335.057 346.154 334.958 345.956C331.283 338.804 326.302 332.715 320.016 327.691Z" fill="black"/>
<path d="M175.678 345.678C175.542 345.95 175.443 345.938 175.381 345.641C173.952 338.921 184.18 329.863 189.358 327.283C189.779 327.06 190.113 327.159 190.361 327.58L190.621 328.007C190.621 328.019 190.515 328.1 190.305 328.248C183.969 332.839 179.094 338.649 175.678 345.678Z" fill="black"/>
<path d="M254.325 361.641C253.471 352.991 244.506 343.413 252.803 335.969C253.604 335.247 254.621 334.808 255.7 334.717C256.778 334.627 257.86 334.891 258.78 335.468C263.847 338.661 263.55 343.747 260.97 348.926C258.755 353.381 257.239 358.083 256.422 363.033C256.41 363.057 256.422 363.07 256.459 363.07L256.923 363.144C256.982 363.154 257.042 363.152 257.1 363.138C257.158 363.124 257.212 363.098 257.261 363.062C257.309 363.025 257.35 362.979 257.382 362.927C257.413 362.874 257.434 362.815 257.443 362.754C258.223 356.684 263.699 345.585 271.587 349.891C272.144 350.188 272.491 350.64 272.627 351.246C276.265 366.782 263.736 367.079 258.65 377.678C257.214 380.648 256.521 380.481 256.571 377.177L256.719 364.425C256.732 364.029 256.54 363.874 256.144 363.961L255.346 364.165C255.225 364.195 255.118 364.268 255.044 364.373C254.969 364.478 254.932 364.608 254.937 364.741L255.698 378.086C255.711 378.292 255.651 378.495 255.531 378.662C255.41 378.828 255.235 378.948 255.036 379.001C254.837 379.053 254.626 379.035 254.439 378.95C254.252 378.864 254.1 378.717 254.009 378.532C248.923 368.323 233.888 365.613 238.863 351.487C239.061 350.943 239.413 350.528 239.921 350.244C247.475 346.104 251.652 354.958 253.768 361.752C254.312 363.46 254.498 363.423 254.325 361.641Z" fill="black"/>
<path d="M281.185 359.729C281.044 359.705 280.899 359.719 280.765 359.77C280.631 359.82 280.513 359.906 280.424 360.018C280.335 360.13 280.277 360.264 280.258 360.406C280.238 360.548 280.257 360.692 280.312 360.824C285.225 372.877 294.123 377.072 307.005 373.409C307.71 373.211 307.84 373.403 307.394 373.985C304.87 377.326 299.227 378.551 295.44 378.792C273.519 380.166 269.751 346.216 285.157 347.441C294.178 348.165 294.661 362.049 281.185 359.729Z" fill="black"/>
<path d="M229.193 359.432C225.518 361.028 222.48 360.119 220.079 356.703C219.767 356.26 219.616 355.723 219.652 355.181C220.097 349.204 225.165 345.752 230.511 348.963C238.066 353.474 234.91 366.727 231.049 371.757C223.661 381.391 211.578 380.778 202.798 373.186C201.82 372.345 201.938 372.147 203.15 372.592C216.936 377.691 225.858 373.527 229.917 360.1C230.152 359.345 229.911 359.123 229.193 359.432Z" fill="black"/>
<path d="M231.439 376.268C236.265 363.052 249.778 376.528 252.581 382.765C252.648 382.909 252.666 383.071 252.634 383.226C252.602 383.382 252.52 383.523 252.402 383.629C252.284 383.735 252.134 383.8 251.976 383.815C251.818 383.83 251.659 383.793 251.523 383.711C247.278 381.187 242.378 380.382 236.822 381.298C235.287 381.558 234.161 381.515 233.444 381.168C231.29 380.141 230.622 378.508 231.439 376.268Z" fill="black"/>
<path d="M261.806 383.637C261.113 383.971 260.482 384.151 259.913 384.176C259.794 384.176 259.676 384.147 259.571 384.091C259.465 384.035 259.376 383.954 259.311 383.856C259.246 383.758 259.208 383.645 259.2 383.529C259.191 383.413 259.213 383.297 259.263 383.192C261.899 377.438 268.73 369.437 275.802 371.034C280.35 372.073 282.874 380.649 277.398 381.8C276.891 381.911 275.239 381.849 272.442 381.614C268.779 381.305 265.234 381.979 261.806 383.637Z" fill="black"/>
<path d="M256.591 399.378C260.173 393.029 259.616 385.586 268.6 383.563C273.624 382.424 277.17 384.85 279.236 390.839C279.57 391.804 279.23 392.238 278.215 392.139C268.798 391.223 261.664 394.663 256.813 402.459C256.492 402.966 256.337 403.517 256.349 404.111C256.349 404.581 256.269 405.027 256.108 405.447C255.823 406.202 255.601 406.184 255.44 405.392C253.342 395.368 241.815 390.486 232.924 392.64C231.748 392.912 231.482 392.541 232.126 391.526L235.783 385.642C236.093 385.144 236.504 384.714 236.989 384.379C237.474 384.044 238.023 383.811 238.604 383.693C250.966 381.131 252.674 390.06 255.273 399.211C255.312 399.346 255.39 399.467 255.498 399.559C255.605 399.651 255.737 399.709 255.877 399.727C256.017 399.745 256.159 399.721 256.286 399.659C256.413 399.597 256.519 399.499 256.591 399.378Z" fill="black"/>
<path fill-rule="evenodd" clip-rule="evenodd" d="M273.686 199.558C285.454 197.312 290.559 204.978 291.914 215.614C293.399 227.252 288.034 245.888 280.702 254.928L280.215 255.528C269.338 268.916 259.893 280.542 257.295 297.862C257.273 297.971 257.218 298.072 257.139 298.151C257.06 298.23 256.96 298.284 256.85 298.307C256.689 298.332 256.528 298.363 256.367 298.4C256.169 298.437 256.046 298.357 255.996 298.159C252.525 285.704 247.513 275.235 239.105 264.803C238.3 263.808 237.478 262.819 236.655 261.828L236.655 261.828C233.054 257.494 229.432 253.134 227.151 248.209C221.341 235.624 215.475 214.259 226.705 202.732C229.75 199.601 234.143 199.05 239.884 201.08C240.986 201.476 241.32 201.129 240.887 200.04C240.664 199.474 240.29 198.889 239.905 198.285C239.457 197.582 238.993 196.854 238.734 196.105C234.557 183.984 249.184 174.499 255.217 185.246C255.65 186.026 256.101 186.038 256.572 185.284C258.626 181.967 261.633 180.495 265.593 180.866C275.802 181.831 276.47 190.666 273.017 198.741C272.72 199.434 272.943 199.706 273.686 199.558ZM264.497 212.83C272.479 212.112 276.823 215.453 277.528 222.853C277.65 224.174 277.296 225.348 276.946 226.511C276.498 227.995 276.056 229.46 276.618 231.188C279.143 239.095 276.841 243.29 270.4 248.302C264.633 252.769 260.63 258.628 258.391 265.88C258.378 265.905 258.36 265.917 258.335 265.917C258.149 265.868 257.994 265.837 257.871 265.824C257.747 265.8 257.697 265.725 257.722 265.602C259.096 255.411 263.384 251.606 270.846 245.555C274.632 242.473 276.247 239.132 275.133 234.492C275.058 234.19 274.917 233.908 274.722 233.668C274.526 233.427 274.28 233.233 274.001 233.1L265.351 228.867C262.814 227.618 262.944 226.801 265.741 226.417L272.126 225.526C272.716 225.446 273.272 225.201 273.729 224.819C274.185 224.437 274.525 223.933 274.707 223.366C274.89 222.799 274.908 222.192 274.76 221.615C274.612 221.039 274.304 220.515 273.871 220.106C270.654 217.025 266.83 216.171 262.4 217.545C262.276 217.582 262.145 217.589 262.018 217.563C261.891 217.538 261.772 217.481 261.673 217.398C261.573 217.315 261.496 217.209 261.448 217.088C261.4 216.968 261.383 216.838 261.398 216.709C262.864 204.551 246.418 208.171 250.687 217.842C251.145 218.856 250.892 219.085 249.926 218.528C245.892 216.177 242.186 216.604 238.808 219.809C238.422 220.178 238.139 220.641 237.986 221.153C237.833 221.664 237.815 222.207 237.935 222.727C238.055 223.247 238.308 223.727 238.669 224.121C239.03 224.514 239.487 224.806 239.996 224.969L247.105 227.252C247.959 227.525 248.064 227.97 247.42 228.589C245.812 230.148 243.857 230.959 241.555 231.021C240.704 231.043 239.872 231.275 239.134 231.696C238.395 232.117 237.773 232.714 237.323 233.434C233.392 239.734 239.631 244.188 244.499 247.663L244.5 247.663C245.425 248.324 246.302 248.949 247.049 249.545C251.083 252.75 253.824 258.09 255.272 265.564C255.297 265.688 255.247 265.769 255.124 265.806L254.66 265.917C254.363 265.991 254.165 265.88 254.066 265.583C252.432 260.596 249.945 256.135 246.604 252.2C244.959 250.263 243.076 248.82 241.286 247.448C237.277 244.376 233.735 241.662 234.39 234.566C234.577 232.492 234.602 230.407 234.627 228.391C234.732 219.635 234.822 212.178 248.144 212.57C248.874 212.595 249.295 212.236 249.406 211.493C249.889 208.226 251.343 205.467 253.769 203.215C254.121 202.89 254.537 202.64 254.99 202.482C255.442 202.324 255.923 202.26 256.401 202.295C256.88 202.33 257.346 202.462 257.771 202.684C258.196 202.906 258.571 203.213 258.873 203.586C260.816 205.974 262.14 208.66 262.845 211.642C262.933 212.008 263.149 212.329 263.453 212.548C263.756 212.766 264.127 212.866 264.497 212.83ZM258.149 233.267C257.605 233.712 257.234 234.282 257.036 234.975C256.862 235.556 256.72 235.55 256.609 234.956L256.219 233.026C256.046 232.159 255.532 231.838 254.678 232.06C250.904 233.05 248.404 235.389 247.179 239.077C246.934 239.821 246.925 240.625 247.154 241.379C247.383 242.133 247.839 242.8 248.46 243.29L249.073 243.792C249.284 243.956 249.528 244.073 249.788 244.136C250.048 244.199 250.318 244.207 250.582 244.158C250.845 244.108 251.094 244.004 251.314 243.851C251.534 243.699 251.719 243.501 251.857 243.272L255.811 236.682C255.9 236.53 256.028 236.403 256.181 236.315C256.335 236.227 256.509 236.179 256.688 236.177C256.866 236.175 257.043 236.219 257.201 236.304C257.359 236.389 257.494 236.513 257.592 236.664L261.695 243.068C262.586 244.466 263.576 244.54 264.665 243.29L265.277 242.585C265.769 242.022 266.065 241.317 266.122 240.574C266.179 239.831 265.993 239.09 265.593 238.464C264.083 236.088 262.078 234.3 259.579 233.1C259.346 232.984 259.087 232.938 258.833 232.968C258.578 232.998 258.341 233.102 258.149 233.267Z" fill="black"/>
</svg>
