<svg width="512" height="512" viewBox="0 0 512 512" fill="none" xmlns="http://www.w3.org/2000/svg">
<rect width="512" height="512" fill="white"/>
<path d="M225.165 249.241C177.558 238.648 139.804 258.12 106.966 290.694C106.607 291.053 106.498 291.339 106.5 291.56C106.502 291.78 106.615 292.06 106.976 292.403C106.977 292.404 106.978 292.405 106.979 292.406L107.526 292.909L107.528 292.911C107.681 293.053 107.781 293.075 107.833 293.075C107.888 293.075 107.993 293.052 108.156 292.905L108.157 292.904C127.365 275.729 155.561 257.127 183.436 257.86C184.535 257.886 185.389 257.946 185.982 258.045C186.274 258.094 186.533 258.157 186.734 258.245C186.893 258.315 187.214 258.486 187.261 258.855C187.308 259.225 187.038 259.471 186.902 259.577C186.729 259.712 186.493 259.837 186.222 259.957C185.673 260.199 184.861 260.467 183.802 260.763L183.8 260.764C181.602 261.371 179.326 261.904 177.052 262.436C175.724 262.748 174.396 263.059 173.085 263.384C169.513 264.271 166.03 265.273 162.847 266.701L162.847 266.701C141.271 276.373 122.617 290.272 106.881 308.401C106.693 308.618 106.595 308.899 106.606 309.186C106.617 309.474 106.738 309.746 106.942 309.948L106.952 309.958L106.952 309.958L107.475 310.503C107.533 310.558 107.604 310.587 107.67 310.592C107.738 310.596 107.795 310.575 107.837 310.54L107.846 310.533L107.846 310.533C109.508 309.198 111.133 307.883 112.73 306.591C131.061 291.761 145.72 279.901 170.75 274.347L170.751 274.347C173.268 273.796 175.335 273.663 176.923 273.993L176.924 273.993C177.269 274.066 177.565 274.151 177.788 274.258C177.899 274.311 178.017 274.381 178.115 274.477C178.216 274.576 178.319 274.726 178.335 274.928C178.352 275.131 178.273 275.297 178.186 275.412C178.103 275.522 177.996 275.609 177.893 275.677C177.688 275.813 177.408 275.938 177.079 276.057L177.078 276.057C151.737 285.131 131.645 298.629 116.781 316.542L116.781 316.543C116.024 317.452 115.459 318.227 115.076 318.869C114.686 319.523 114.514 319.995 114.487 320.307L114.487 320.309C114.415 321.117 114.432 321.717 114.516 322.13C114.603 322.555 114.738 322.677 114.805 322.711C114.871 322.744 115.047 322.78 115.436 322.595C115.814 322.416 116.301 322.07 116.9 321.528L116.901 321.528C121.601 317.284 126.485 313.004 131.553 308.687C156.214 287.619 188.716 278.269 219.316 293.669L219.318 293.67C219.722 293.876 220.041 294.057 220.259 294.212C220.365 294.287 220.473 294.375 220.556 294.473C220.612 294.54 220.795 294.775 220.691 295.079C220.588 295.377 220.305 295.454 220.221 295.474C220.097 295.503 219.958 295.509 219.827 295.506C219.558 295.501 219.192 295.457 218.744 295.382C195.804 291.57 178.486 291.318 157.6 302.507L157.6 302.507C157.347 302.642 157.094 302.778 156.84 302.913C148.678 307.27 139.942 311.934 134.473 319.427C134.374 319.572 134.328 319.746 134.34 319.921C134.353 320.098 134.426 320.266 134.547 320.396C134.668 320.526 134.829 320.611 135.005 320.637C135.179 320.663 135.356 320.629 135.509 320.542C136.179 320.13 136.841 319.723 137.496 319.32C149.922 311.678 159.925 305.526 174.749 301.583M225.165 249.241L134.064 319.138C133.899 319.378 133.821 319.667 133.842 319.957C133.863 320.248 133.982 320.523 134.18 320.736C134.378 320.95 134.643 321.089 134.931 321.132C135.219 321.175 135.514 321.118 135.765 320.971C136.433 320.561 137.092 320.156 137.745 319.754C150.18 312.107 160.126 305.99 174.878 302.066C198.685 295.728 217.568 303.657 239.366 313.86M225.165 249.241C225.503 249.319 225.775 249.373 225.971 249.399C226.066 249.412 226.168 249.421 226.259 249.417C226.301 249.415 226.374 249.41 226.452 249.383C226.518 249.36 226.706 249.281 226.785 249.058C226.865 248.831 226.765 248.649 226.724 248.588C226.678 248.517 226.623 248.468 226.59 248.44C226.52 248.382 226.433 248.328 226.35 248.281C226.178 248.183 225.928 248.063 225.612 247.921C187.702 230.956 148.651 247.393 118.043 270.281C118.001 270.312 117.952 270.331 117.9 270.338C117.848 270.345 117.794 270.339 117.745 270.321C117.696 270.302 117.652 270.271 117.617 270.231C117.583 270.191 117.559 270.143 117.548 270.092L117.547 270.089L117.417 269.503C117.417 269.502 117.416 269.5 117.416 269.498C117.246 268.639 117.47 267.939 118.109 267.337L118.109 267.337C146.576 240.477 187.516 225.295 224.991 237.216C229.829 238.755 234.971 241.111 240.3 243.756C242.475 244.836 244.687 245.966 246.92 247.108C250.138 248.754 253.401 250.422 256.662 251.992C267.715 257.314 279.006 261.646 289.398 260.514L289.398 260.514C296.551 259.73 304.03 256.635 310.989 252.541C317.953 248.444 324.426 243.33 329.573 238.472L329.573 238.471C329.755 238.299 329.893 238.087 329.976 237.852C330.06 237.616 330.087 237.365 330.056 237.117C330.025 236.869 329.937 236.631 329.799 236.422C329.662 236.213 329.478 236.039 329.263 235.911L329.258 235.908L298.936 218.417C298.49 218.159 298.104 217.81 297.801 217.393C297.499 216.976 297.288 216.5 297.182 215.996C297.075 215.492 297.076 214.971 297.184 214.467C297.292 213.963 297.505 213.488 297.809 213.072L297.812 213.068C299.625 210.529 302.241 208.618 305.492 207.853L305.493 207.853C345.805 198.297 374.966 191.651 392.98 187.913L392.981 187.913C395.83 187.317 398.012 187.398 399.683 187.954C401.343 188.506 402.538 189.54 403.402 190.933C405.156 193.762 405.541 198.058 405.497 202.723C405.188 235.231 404.738 261.744 404.15 282.264C404.062 285.31 403.639 289.083 402.876 293.59C402.787 294.113 402.518 294.447 402.031 294.647L402.03 294.647C399.683 295.61 397.682 295.944 395.889 295.562C394.106 295.182 392.449 294.076 390.82 291.996L390.819 291.995C385.394 285.129 380.337 278.228 375.648 271.29C375.425 270.955 375.12 270.682 374.763 270.497C374.405 270.311 374.006 270.22 373.604 270.231C373.201 270.242 372.808 270.356 372.461 270.56C372.115 270.765 371.826 271.054 371.622 271.401C343.407 318.26 290.651 337.273 239.577 313.407M225.165 249.241L117.766 266.973C146.322 240.03 187.444 224.747 225.143 236.739C232.018 238.927 239.481 242.743 247.159 246.669C261.26 253.879 276.089 261.461 289.344 260.017C303.456 258.471 318.982 247.782 329.229 238.108C329.353 237.991 329.448 237.846 329.505 237.684C329.563 237.523 329.581 237.35 329.56 237.179C329.539 237.007 329.478 236.843 329.382 236.697C329.286 236.552 329.158 236.43 329.008 236.342L298.686 218.85C298.179 218.557 297.74 218.161 297.396 217.687C297.053 217.213 296.813 216.672 296.692 216.099C296.571 215.526 296.572 214.934 296.695 214.362C296.818 213.79 297.06 213.25 297.405 212.777C299.282 210.149 301.999 208.161 305.378 207.366C345.69 197.811 374.857 191.163 392.878 187.423C404.495 184.994 406.085 193.408 405.997 202.728C405.687 235.237 405.238 261.754 404.649 282.278C404.561 285.355 404.134 289.154 403.369 293.674C403.251 294.366 402.868 294.845 402.22 295.11C397.428 297.075 393.784 296.589 390.427 292.305C384.994 285.429 379.929 278.516 375.232 271.567C375.056 271.302 374.815 271.087 374.533 270.941C374.25 270.794 373.936 270.722 373.618 270.731C373.3 270.74 372.989 270.829 372.716 270.991C372.442 271.153 372.213 271.381 372.052 271.655C343.717 318.718 290.691 337.844 239.366 313.86M174.749 301.583L174.874 302.054L174.749 301.583C174.749 301.583 174.749 301.583 174.749 301.583ZM174.749 301.583C198.749 295.194 217.783 303.205 239.577 313.407M239.577 313.407L239.366 313.86M239.577 313.407C239.577 313.407 239.577 313.407 239.578 313.407L239.366 313.86" fill="white" stroke="black"/>
<path d="M337.804 249.29C321.604 273.248 295.221 278.169 269.188 272.4C295.539 277.478 319.436 269.45 337.641 249.153C337.985 248.77 338.301 248.423 338.588 248.113C338.356 248.469 338.094 248.861 337.804 249.29Z" fill="black" stroke="black"/>
<path d="M332.847 290.758C343.567 284.096 352.78 275.102 361.535 262.748L361.609 262.856C361.643 262.909 361.647 262.942 361.647 262.959C361.647 262.979 361.642 263.021 361.599 263.091C356.688 271.095 351.099 278.03 344.833 283.901L344.833 283.901C331.382 296.517 315.341 303.368 296.687 304.457C310.743 301.444 322.487 297.197 332.847 290.758Z" fill="black" stroke="black"/>
<path d="M337.333 270.132C336.9 270.541 336.465 270.939 336.045 271.308C336.434 270.913 336.855 270.501 337.292 270.088C337.724 269.679 338.159 269.282 338.579 268.912C338.19 269.307 337.77 269.719 337.333 270.132Z" fill="black" stroke="black"/>
</svg>
