<svg width="512" height="512" viewBox="0 0 512 512" fill="none" xmlns="http://www.w3.org/2000/svg">
<rect width="512" height="512" fill="white"/>
<path d="M256.674 146.207L255.753 238.896C255.743 239.56 255.557 239.615 255.195 239.062C253.471 236.401 251.896 233.254 250.449 230.364C249.452 228.371 248.515 226.5 247.634 224.997C235.561 204.473 223.624 184.01 227.835 158.566C228.318 155.679 230.591 151.192 234.656 145.105C242.549 133.319 250.803 120.642 255.451 107.438C256.115 105.536 256.82 105.521 257.564 107.392C263.192 121.483 272.65 135.753 281.133 148.552L282.359 150.402C293.511 167.213 284.321 192.265 274.451 210.54C269.793 219.172 265.296 227.95 260.96 236.874C260.895 237.001 260.798 237.109 260.678 237.186C260.558 237.263 260.42 237.306 260.279 237.311C260.137 237.315 259.998 237.281 259.876 237.212C259.754 237.143 259.654 237.042 259.586 236.919C259.415 236.617 259.335 236.16 259.345 235.546C259.707 205.766 259.109 176.017 257.549 146.297C257.539 146.116 257.443 146.025 257.262 146.025H256.84C256.729 146.036 256.674 146.096 256.674 146.207Z" fill="black"/>
<path d="M244.194 256.447C238.328 245.511 231.733 235.038 224.409 225.027C215.958 213.437 207.779 198.588 210.058 184.462C210.812 179.814 216.849 166.761 221.391 163.999C222.005 163.617 222.297 163.788 222.266 164.512C221.178 188.45 231.238 205.947 241.891 224.476C246.013 231.645 250.224 238.968 253.912 246.879C254.628 248.43 254.999 250.114 254.999 251.814V283.762C254.999 285.442 254.647 285.518 253.943 283.988C253.138 282.238 252.454 280.045 251.89 277.409C250.311 270.064 247.745 263.077 244.194 256.447Z" fill="black"/>
<path d="M282.838 234.703C294.219 218.411 308.864 197.447 301.238 178.652C299.226 173.682 296.696 169.1 293.648 164.904C292.772 163.697 292.34 163.838 292.35 165.327C292.365 191.337 279.337 213.2 266.018 235.551L265.42 236.554C262.043 242.207 259.376 246.673 259.24 253.64C259.039 263.872 259.019 273.817 259.179 283.475C259.23 286.322 259.552 286.353 260.145 283.566C263.244 268.887 269.205 254.928 278.028 241.688C279.501 239.48 281.133 237.144 282.838 234.703Z" fill="black"/>
<path d="M197.487 224.695C192.628 212.064 197.125 200.203 203.81 189.428C204.524 188.281 204.952 188.381 205.093 189.729C206.421 201.933 210.666 213.352 217.83 223.986C219.88 227.023 222.061 230.072 224.243 233.123C228.969 239.729 233.699 246.341 237.116 252.855C245.316 268.46 251.06 284.999 254.35 302.475C254.944 305.604 255.336 311.178 255.527 319.196C255.537 319.578 255.361 319.704 254.999 319.573C254.838 319.503 254.727 319.357 254.667 319.136C248.993 296.851 238.997 277.303 224.681 260.492C222.609 258.058 220.27 255.544 217.836 252.929C210.203 244.723 201.641 235.521 197.487 224.695Z" fill="black"/>
<path d="M293.881 254.696C312.2 234.499 327.101 218.07 309.493 189.518C308.769 188.341 308.356 188.447 308.256 189.835C307.441 201.304 303.603 211.974 296.741 221.843C287.747 234.802 281.776 243.806 278.828 248.856C271.871 260.763 267.374 273.394 263.435 286.539C260.311 297.012 258.878 306.474 259.542 316.766C259.743 319.855 260.16 319.88 260.794 316.842C265.533 294.099 277.877 272.338 293.21 255.436L293.881 254.696Z" fill="black"/>
<path d="M294.115 284.079C275.538 302.324 266.468 327.3 261.322 352.245C261.262 352.537 261.212 352.693 261.171 352.713C261.091 352.764 260.965 352.784 260.794 352.774C260.623 352.774 260.538 352.688 260.538 352.517C260.276 346.32 260.799 339.524 262.107 332.129C266.287 308.557 275.191 285.573 289.377 267.056C292.946 262.392 296.815 258.152 300.615 253.988C309.749 243.979 318.476 234.415 321.642 220.485C321.752 219.982 321.974 219.67 322.306 219.549C322.363 219.525 322.424 219.513 322.486 219.514C322.549 219.515 322.61 219.529 322.666 219.554C322.723 219.579 322.774 219.616 322.816 219.662C322.857 219.708 322.889 219.762 322.909 219.821C327.064 231.401 329.353 243.343 329.776 255.647C329.816 256.985 329.253 257.981 328.085 258.635C315.691 265.517 304.367 273.998 294.115 284.079Z" fill="black"/>
<path d="M210.118 251.422C201.32 242.503 194.846 232.588 191.043 220.56C190.621 219.253 190.153 219.238 189.64 220.515C185.143 231.582 182.748 243.097 182.456 255.059C182.442 255.659 182.574 256.253 182.839 256.79C183.105 257.326 183.497 257.789 183.981 258.137C191.124 263.218 198.196 268.128 205.199 272.866C226.266 287.122 240.351 306.504 247.454 331.012C247.758 332.065 248.057 333.082 248.35 334.075C250.427 341.127 252.156 346.995 252.54 356.109C252.967 366.545 252.625 377.162 252.283 387.783C252.094 393.658 251.904 399.534 251.845 405.381C251.845 405.753 252.031 405.945 252.404 405.955L258.455 406C258.918 406 259.139 405.769 259.119 405.306C258.571 395.684 258.144 386.067 257.718 376.452C257.393 369.132 257.068 361.813 256.69 354.494C256.569 352.009 256.212 349.439 255.618 346.783C253.998 339.408 252.524 332.003 251.196 324.568C250.482 320.544 247.67 312.133 242.761 299.336C236.12 282.057 224.214 265.683 210.118 251.422Z" fill="black"/>
<path d="M192.3 295.758L192.296 295.757L192.293 295.755C190.264 294.889 188.247 294.028 186.259 293.149C185.674 292.893 185.163 292.497 184.77 291.996C184.378 291.496 184.116 290.906 184.011 290.281C182.542 281.539 181.878 272.71 182.018 263.796C182.049 261.895 182.813 261.528 184.312 262.695C192.462 269.073 200.349 275.437 207.975 281.785C224.274 295.377 235.622 312.163 242.021 332.144C243.882 337.952 244.958 344.556 246.012 351.025C246.239 352.422 246.466 353.813 246.699 355.188C246.709 355.269 246.674 355.319 246.593 355.339L246.156 355.445C246.076 355.464 245.991 355.454 245.919 355.415C245.846 355.376 245.791 355.311 245.763 355.233C239.697 336.732 232.045 318.532 215.189 307.259C208.12 302.514 200.127 299.101 192.3 295.758Z" fill="black"/>
<path d="M269.592 354.449C270.266 349.398 271.343 345.143 272.822 341.682C273.627 339.8 275.835 335.343 279.447 328.311C289.845 308.134 306.173 300.815 326.772 293.254C327.255 293.073 327.557 292.731 327.678 292.228C330.123 281.363 330.168 273.078 330.123 263.117C330.121 262.939 330.072 262.764 329.978 262.612C329.885 262.46 329.752 262.336 329.594 262.254C329.436 262.171 329.258 262.134 329.08 262.145C328.902 262.156 328.73 262.216 328.583 262.318C320.414 268.092 312.582 274.24 305.087 280.759C286.112 297.269 274.255 317.828 269.517 342.436C269.012 345.042 268.925 347.765 268.837 350.507C268.799 351.704 268.76 352.905 268.687 354.102C268.677 354.353 268.797 354.494 269.049 354.524L269.441 354.554C269.532 354.565 269.582 354.529 269.592 354.449Z" fill="black"/>
<path d="M196.974 326.41C190.907 317.717 187.255 307.847 185.55 297.284C185.53 297.172 185.542 297.057 185.584 296.952C185.625 296.846 185.695 296.754 185.785 296.686C185.876 296.617 185.983 296.575 186.096 296.563C186.209 296.551 186.323 296.571 186.425 296.62C205.153 305.222 220.667 312.496 231.019 330.726C232.005 332.486 231.703 332.748 230.114 331.51C220.335 323.95 209.62 322.305 198.166 326.772C197.955 326.853 197.723 326.862 197.507 326.796C197.291 326.73 197.103 326.594 196.974 326.41Z" fill="black"/>
<path d="M326.26 297.601C324.519 298.013 322.708 298.607 320.827 299.381C305.555 305.614 290.886 314.171 283.582 330.213C283.26 330.917 283.416 331.048 284.05 330.605C293.497 323.915 303.789 322.516 314.926 326.41C315.156 326.488 315.405 326.493 315.638 326.422C315.871 326.352 316.076 326.21 316.224 326.017C321.037 319.847 323.194 312.322 325.341 304.832C325.941 302.741 326.54 300.652 327.195 298.597C327.237 298.464 327.242 298.323 327.211 298.187C327.18 298.052 327.113 297.927 327.018 297.826C326.923 297.724 326.802 297.65 326.669 297.611C326.536 297.571 326.395 297.568 326.26 297.601Z" fill="black"/>
<path d="M238.731 354.962C234.355 345.802 223.625 340.731 213.439 339.343C207.463 338.528 203.75 336.309 200.717 331.616C199.992 330.499 200.269 329.77 201.547 329.428C221.271 324.101 235.502 336.023 239.803 354.585C240.598 357.985 240.24 358.111 238.731 354.962Z" fill="black"/>
<path d="M312.3 329.956C294.688 323.195 277.228 335.253 274.195 353.166C274.074 353.84 274.22 353.905 274.632 353.362C281.891 343.719 291.474 339.026 303.668 338.995C304.181 338.985 304.634 338.814 305.026 338.482L312.647 331.963C313.643 331.098 313.527 330.429 312.3 329.956Z" fill="black"/>
</svg>
