<svg width="512" height="512" viewBox="0 0 512 512" fill="none" xmlns="http://www.w3.org/2000/svg">
<rect width="512" height="512" fill="white"/>
<path d="M280.985 233.395C293.824 225.02 306.809 216.55 320.182 209.377C322.192 208.294 322.263 208.409 320.395 209.722L271.621 244.09C271.59 244.112 271.565 244.141 271.548 244.175C271.531 244.209 271.523 244.247 271.524 244.285C271.525 244.323 271.535 244.36 271.554 244.394C271.572 244.427 271.599 244.455 271.631 244.475L274.809 246.475C274.884 246.523 274.959 246.547 275.035 246.547C275.071 246.546 275.107 246.54 275.143 246.529C275.181 246.517 275.218 246.499 275.255 246.475C282.771 241.735 290.165 236.802 297.561 231.868L297.567 231.864C303.348 228.008 309.131 224.15 314.973 220.383C330.316 210.49 345.216 199.877 359.989 189.354L362.154 187.812C362.925 187.271 362.837 187 361.89 187L311.552 187.081C311.356 187.081 311.173 187.118 311.003 187.192C310.915 187.23 310.831 187.277 310.75 187.335L256.006 225.581C255.795 225.73 255.543 225.81 255.285 225.81C255.026 225.81 254.775 225.73 254.564 225.581L200.165 187.599C199.681 187.268 199.109 187.088 198.52 187.081L150.994 187.041C149.309 187.041 149.18 187.487 150.609 188.381C153.628 190.262 156.734 192.415 159.929 194.838C161.317 195.896 162.936 196.916 164.455 197.874C165.459 198.506 166.419 199.111 167.239 199.681C170.863 202.201 174.486 204.727 178.108 207.253L178.157 207.288C197.193 220.566 216.241 233.851 235.811 246.364C235.858 246.394 235.908 246.418 235.96 246.434C236.017 246.452 236.077 246.461 236.138 246.461C236.216 246.461 236.294 246.446 236.367 246.417C236.403 246.403 236.438 246.385 236.472 246.364L239.385 244.425C239.405 244.411 239.424 244.397 239.442 244.381C239.471 244.355 239.497 244.327 239.521 244.296C239.538 244.273 239.553 244.248 239.567 244.222C239.578 244.2 239.588 244.178 239.596 244.155C239.608 244.122 239.616 244.088 239.622 244.053C239.627 244.021 239.629 243.989 239.628 243.957C239.627 243.922 239.623 243.888 239.616 243.854C239.612 243.833 239.606 243.812 239.599 243.792C239.587 243.758 239.573 243.726 239.555 243.695C239.509 243.615 239.444 243.549 239.365 243.501C238.933 243.248 238.48 243.011 238.028 242.775C237.299 242.394 236.568 242.012 235.923 241.561C231.947 238.756 227.96 235.963 223.972 233.169C212.217 224.936 200.459 216.7 188.966 208.118C188.858 208.03 188.841 207.928 188.915 207.813L189.078 207.59C189.094 207.563 189.112 207.545 189.131 207.535C189.16 207.52 189.193 207.525 189.23 207.549L242.624 241.551C242.749 241.63 242.887 241.683 243.03 241.71C243.128 241.728 243.227 241.733 243.326 241.726C243.452 241.717 243.575 241.687 243.69 241.638C243.8 241.592 243.903 241.528 243.995 241.45L245.091 240.506C245.565 240.099 245.545 239.717 245.03 239.358C243.767 238.468 242.496 237.578 241.22 236.688L238.026 234.462C228.945 228.14 219.727 221.721 211.201 214.687C211.165 214.657 211.145 214.625 211.141 214.59C211.136 214.554 211.15 214.515 211.181 214.474L211.323 214.26C211.332 214.249 211.342 214.24 211.353 214.235C211.366 214.229 211.38 214.227 211.395 214.23L211.408 214.233L211.424 214.24L247.741 237.003C248.35 237.382 248.96 237.385 249.569 237.013L250.442 236.475C250.503 236.437 250.559 236.392 250.608 236.34C250.659 236.288 250.703 236.229 250.739 236.166C250.771 236.11 250.796 236.051 250.815 235.99C250.824 235.959 250.832 235.928 250.838 235.896C250.847 235.849 250.852 235.801 250.853 235.752C250.854 235.717 250.852 235.682 250.849 235.647C250.847 235.627 250.844 235.607 250.841 235.587L250.836 235.564C250.821 235.484 250.793 235.407 250.756 235.334C250.72 235.264 250.674 235.198 250.62 235.14C250.576 235.093 250.526 235.05 250.472 235.013C234.668 224.203 218.968 213.316 203.373 202.351C199.908 199.908 196.571 197.319 193.362 194.584C193.132 194.388 193.139 194.205 193.383 194.036L193.596 193.894C193.603 193.888 193.611 193.884 193.618 193.881C193.625 193.879 193.632 193.878 193.639 193.879C193.649 193.88 193.658 193.885 193.667 193.894C195.602 195.245 197.814 196.591 199.851 197.832L199.868 197.842L199.892 197.856L199.928 197.878L199.959 197.897C201.206 198.655 202.385 199.373 203.394 200.026C219.659 210.585 235.866 221.229 252.015 231.957C252.97 232.593 253.86 233.236 254.686 233.886C254.756 233.941 254.832 233.986 254.912 234.02C255.017 234.064 255.128 234.09 255.241 234.097C255.271 234.099 255.302 234.1 255.333 234.099C255.567 234.091 255.79 234.002 255.965 233.845C257.454 232.505 259.065 231.253 260.798 230.089C275.431 220.268 290.146 210.578 304.943 201.021C307.09 199.631 309.453 198.282 311.838 196.921L311.844 196.918L311.856 196.911C313.714 195.85 315.586 194.782 317.38 193.681C317.529 193.593 317.651 193.62 317.745 193.762L317.938 194.056C318.016 194.178 318.044 194.326 318.016 194.468C317.988 194.61 317.905 194.735 317.786 194.818L259.752 235.226C259.645 235.303 259.56 235.407 259.505 235.527C259.477 235.588 259.458 235.653 259.448 235.718C259.438 235.781 259.436 235.846 259.443 235.91C259.447 235.948 259.453 235.986 259.463 236.023L259.473 236.058C259.48 236.078 259.488 236.099 259.496 236.119C259.518 236.172 259.547 236.222 259.582 236.269L259.604 236.297C259.613 236.309 259.624 236.321 259.634 236.332L259.649 236.347L259.676 236.373C259.737 236.428 259.807 236.473 259.884 236.505L261.386 237.145C262.104 237.443 262.784 237.372 263.427 236.932C271.802 231.15 279.769 226.286 287.241 221.726L287.25 221.72C292.095 218.763 296.731 215.933 301.135 213.062C301.154 213.048 301.173 213.043 301.194 213.048L301.21 213.054C301.222 213.06 301.234 213.07 301.247 213.083C301.253 213.092 301.261 213.1 301.271 213.107C301.283 213.117 301.299 213.126 301.318 213.133C301.412 213.194 301.423 213.259 301.348 213.326C300.435 214.166 299.483 214.964 298.495 215.722C290.224 222.105 279.489 229.801 266.29 238.81C266.194 238.877 266.113 238.964 266.054 239.066C265.996 239.168 265.962 239.282 265.954 239.398C265.946 239.515 265.965 239.631 266.009 239.739C266.053 239.846 266.122 239.942 266.209 240.018L267.448 241.115C267.901 241.521 268.382 241.561 268.89 241.237C272.912 238.661 276.941 236.033 280.985 233.395Z" fill="black"/>
<path d="M237.333 198.724C237.295 198.776 237.251 198.825 237.203 198.869L231.517 203.986C230.935 204.514 230.942 205.031 231.538 205.539L234.147 207.752C234.488 208.042 234.921 208.202 235.368 208.204C235.816 208.206 236.25 208.05 236.594 207.762C242.232 203.065 248.157 198.764 254.371 194.858C254.638 194.69 254.949 194.605 255.265 194.614C255.582 194.623 255.889 194.726 256.148 194.909L274.281 207.661C274.701 207.959 275.123 207.959 275.55 207.661L279.621 204.849C279.703 204.791 279.77 204.716 279.818 204.628C279.849 204.571 279.871 204.509 279.883 204.445C279.889 204.411 279.893 204.378 279.894 204.343C279.897 204.244 279.877 204.145 279.835 204.055C279.809 204.001 279.777 203.951 279.739 203.906C279.727 203.893 279.716 203.88 279.703 203.868C279.687 203.852 279.669 203.837 279.652 203.823L273.713 199.051C273.566 198.933 273.449 198.781 273.371 198.609C273.311 198.476 273.276 198.334 273.266 198.189L273.263 198.121L273.265 198.061C273.273 197.873 273.325 197.689 273.417 197.524C273.508 197.359 273.638 197.218 273.793 197.112L281.256 192.046C281.588 191.823 281.983 191.716 282.382 191.741C282.78 191.767 283.159 191.924 283.459 192.188L289.256 197.366C289.683 197.745 290.113 197.755 290.546 197.396L294.028 194.482C294.482 194.097 294.455 193.755 293.947 193.457C290.949 191.711 288.16 189.66 285.581 187.304C285.527 187.252 285.466 187.21 285.4 187.177C285.302 187.127 285.194 187.101 285.084 187.101L225.07 187.081C224.971 187.081 224.877 187.117 224.806 187.183L217.161 193.772C216.43 194.401 216.464 194.99 217.263 195.538L219.395 197.011C220.308 197.64 221.178 197.583 222.004 196.838L227.436 191.954C227.688 191.731 228.007 191.599 228.342 191.579C228.678 191.559 229.009 191.651 229.283 191.843L237.101 197.285C237.226 197.372 237.33 197.486 237.405 197.619C237.419 197.645 237.432 197.671 237.444 197.698C237.459 197.731 237.472 197.764 237.484 197.798C237.511 197.88 237.528 197.965 237.533 198.052C237.536 198.09 237.536 198.128 237.534 198.165C237.529 198.279 237.504 198.392 237.461 198.498C237.429 198.579 237.385 198.655 237.333 198.724Z" fill="black"/>
<path d="M136.598 229.814C142.517 236.982 151.127 234.241 155.716 227.53C160.132 221.052 158.823 212.687 153.919 206.849C149.593 201.691 142.152 198.676 135.806 198.077C133.938 197.901 133.792 197.308 135.369 196.3C136.635 195.481 138.276 195.146 140.294 195.295C150.128 196.026 157.185 200.53 161.463 208.808C163.405 212.565 164.183 216.562 163.797 220.799C162.762 231.987 153.574 239.825 142.812 242.018C130.273 244.567 116.84 236.383 116.84 223.063C116.84 209.651 129.684 200.95 142.07 206.412C148.284 209.143 154.102 217.235 149.076 224.068C148.933 224.261 148.738 224.408 148.513 224.493C148.387 224.54 148.255 224.567 148.122 224.572C148.017 224.576 147.913 224.567 147.81 224.545C147.576 224.495 147.361 224.378 147.191 224.209C147.021 224.04 146.903 223.825 146.852 223.591C146.809 223.395 146.771 223.199 146.734 223.004C146.705 222.848 146.676 222.693 146.649 222.538C146.463 221.509 146.281 220.505 145.766 219.58C140.913 210.859 129.074 220.697 136.598 229.814Z" fill="black"/>
<path d="M350.691 220.352C351.412 238.323 372.459 247.227 387.262 239.511C398.369 233.734 401.709 219.174 392.703 209.895C386.795 203.813 376.368 202.889 369.494 208.169C364.885 211.712 361.859 218.494 365.819 223.804C365.958 223.989 366.146 224.131 366.362 224.214C366.578 224.297 366.813 224.318 367.04 224.275C367.079 224.267 367.118 224.258 367.157 224.246C367.237 224.223 367.315 224.191 367.389 224.152C367.482 224.103 367.569 224.041 367.647 223.969C367.817 223.812 367.94 223.611 368.001 223.388C368.956 219.844 370.611 216.149 374.865 216.352C378.977 216.555 381.83 220.555 381.129 224.586C379.434 234.201 368.367 236.678 361.342 230.789C355.138 225.601 354.437 216.555 358.306 209.813C362.417 202.666 369.007 199.518 376.855 197.955C377.036 197.92 377.205 197.835 377.341 197.709C377.477 197.584 377.575 197.423 377.624 197.245C377.674 197.066 377.673 196.878 377.621 196.7C377.57 196.523 377.47 196.363 377.332 196.239C375.362 194.422 370.286 195.467 368.032 196.178C357.148 199.6 350.234 209.021 350.691 220.352Z" fill="black"/>
<path d="M283.154 201.661L279.733 199.569C279.696 199.547 279.661 199.522 279.628 199.495C279.611 199.481 279.595 199.467 279.579 199.452L279.547 199.421C279.5 199.373 279.458 199.32 279.423 199.263C279.4 199.228 279.38 199.191 279.364 199.153C279.349 199.121 279.336 199.088 279.324 199.054C279.303 198.988 279.288 198.92 279.281 198.851C279.276 198.8 279.275 198.75 279.278 198.699C279.281 198.643 279.29 198.587 279.303 198.532L279.314 198.492C279.32 198.467 279.329 198.443 279.338 198.418C279.389 198.281 279.473 198.157 279.58 198.056L281.327 196.422C281.349 196.401 281.372 196.382 281.396 196.363L281.414 196.35C281.445 196.327 281.477 196.307 281.511 196.288C281.589 196.244 281.673 196.212 281.761 196.191L281.814 196.181L281.87 196.173C281.91 196.168 281.95 196.166 281.991 196.167C282.237 196.171 282.471 196.269 282.646 196.442L285.449 199.163C285.496 199.21 285.539 199.261 285.575 199.316C285.611 199.37 285.642 199.427 285.666 199.488C285.716 199.61 285.739 199.741 285.735 199.872C285.731 200.004 285.7 200.133 285.644 200.253C285.588 200.372 285.507 200.478 285.408 200.564L284.281 201.559C284.129 201.694 283.937 201.777 283.735 201.795C283.532 201.813 283.329 201.766 283.154 201.661Z" fill="black"/>
<path d="M227.7 202.3L231.547 199.396C231.64 199.327 231.715 199.238 231.767 199.135C231.818 199.032 231.845 198.918 231.845 198.803C231.845 198.687 231.818 198.573 231.767 198.47C231.715 198.367 231.64 198.278 231.547 198.209L229.314 196.554C229.176 196.453 229.008 196.404 228.838 196.413C228.668 196.422 228.506 196.49 228.38 196.604L224.968 199.711C224.933 199.745 224.901 199.782 224.872 199.822C224.839 199.868 224.811 199.917 224.79 199.97C224.769 200.02 224.754 200.071 224.745 200.124C224.736 200.175 224.732 200.227 224.734 200.279C224.738 200.385 224.765 200.488 224.812 200.583C224.823 200.604 224.834 200.624 224.846 200.644C224.871 200.684 224.9 200.721 224.931 200.755C224.955 200.781 224.981 200.806 225.009 200.828L226.785 202.28L226.826 202.311C226.849 202.327 226.873 202.342 226.897 202.356C226.927 202.372 226.958 202.386 226.99 202.399C227.016 202.409 227.043 202.417 227.071 202.424L227.108 202.433L227.13 202.437C227.166 202.443 227.202 202.447 227.239 202.448C227.307 202.449 227.375 202.441 227.441 202.424C227.469 202.417 227.496 202.409 227.523 202.398C227.556 202.385 227.588 202.37 227.619 202.353C227.647 202.337 227.674 202.319 227.7 202.3Z" fill="black"/>
<path d="M260.442 207.336C260.882 206.937 260.842 206.588 260.321 206.29L258.077 205.011C257.843 204.878 257.568 204.834 257.303 204.889C257.038 204.943 256.801 205.091 256.635 205.306C255.613 206.619 254.78 207.292 254.137 207.326C253.819 207.34 253.494 207.052 253.162 206.463C253 206.158 252.817 205.834 252.614 205.488C252.545 205.372 252.439 205.282 252.314 205.232C252.189 205.182 252.052 205.176 251.924 205.214C250.658 205.6 249.555 206.27 248.614 207.225C248.534 207.307 248.476 207.408 248.444 207.519C248.413 207.629 248.409 207.746 248.433 207.858C248.442 207.9 248.455 207.941 248.471 207.981L248.486 208.015C248.512 208.068 248.544 208.118 248.582 208.163C248.657 208.251 248.751 208.319 248.858 208.362C250.022 208.815 251.051 209.475 251.944 210.341C252.027 210.42 252.091 210.516 252.134 210.621C252.177 210.727 252.197 210.841 252.193 210.955C252.19 211.069 252.162 211.18 252.112 211.283C252.062 211.385 251.991 211.476 251.904 211.55L247.517 215.266C247.212 215.521 246.826 215.659 246.427 215.655C246.029 215.652 245.645 215.506 245.345 215.245L244.939 214.89C244.296 214.328 244.323 213.807 245.02 213.326L248.117 211.194C248.186 211.147 248.248 211.09 248.301 211.025C248.347 210.968 248.386 210.905 248.416 210.837C248.481 210.692 248.504 210.532 248.483 210.375C248.462 210.218 248.397 210.07 248.297 209.947C248.196 209.825 248.064 209.733 247.914 209.681C246.37 209.147 244.946 209.431 243.639 210.534C243.375 210.758 243.257 211.042 243.284 211.387C243.304 211.631 243.369 211.864 243.477 212.088C243.552 212.235 243.575 212.403 243.544 212.565C243.533 212.625 243.514 212.682 243.489 212.737C243.467 212.784 243.44 212.83 243.408 212.872L243.391 212.893L243.36 212.93C243.342 212.949 243.323 212.967 243.304 212.985C243.179 213.095 243.021 213.161 242.853 213.173C242.788 213.178 242.722 213.174 242.657 213.162C242.559 213.144 242.465 213.107 242.38 213.052L239.741 211.347C239.274 211.042 239.26 210.72 239.7 210.382L254.168 199.234C254.19 199.218 254.212 199.203 254.235 199.19L254.26 199.176L254.283 199.163C254.341 199.134 254.402 199.112 254.466 199.098L254.501 199.091L254.524 199.087C254.555 199.082 254.586 199.08 254.618 199.079C254.78 199.075 254.939 199.123 255.071 199.214L269.996 209.621C270.713 210.121 270.713 210.626 269.996 211.133L264.331 215.154C263.559 215.702 262.781 215.709 261.996 215.174L257.081 211.793C257.033 211.76 256.989 211.722 256.948 211.68C256.899 211.629 256.856 211.572 256.821 211.509C256.756 211.396 256.718 211.27 256.709 211.14C256.707 211.106 256.707 211.072 256.709 211.038C256.714 210.943 256.734 210.849 256.77 210.759C256.793 210.702 256.822 210.648 256.856 210.597C256.894 210.541 256.94 210.489 256.99 210.443L260.442 207.336Z" fill="black"/>
<path d="M254.087 218.941L254.31 218.555C254.402 218.399 254.548 218.283 254.721 218.228C254.893 218.174 255.08 218.185 255.244 218.26C255.698 218.464 256.026 218.782 256.229 219.215C256.412 219.607 256.679 219.679 257.031 219.428L258.97 218.068C259.058 218.005 259.132 217.923 259.184 217.829C259.212 217.781 259.233 217.73 259.248 217.677C259.255 217.654 259.26 217.63 259.265 217.606C259.27 217.579 259.273 217.551 259.275 217.523L259.277 217.492V217.466C259.276 217.433 259.273 217.401 259.268 217.369C259.26 217.314 259.245 217.261 259.224 217.209C259.205 217.162 259.18 217.117 259.152 217.076L259.135 217.053C259.123 217.037 259.11 217.022 259.098 217.007C259.086 216.994 259.075 216.982 259.062 216.97L259.042 216.951L255.163 213.519C254.906 213.289 254.659 213.299 254.422 213.55L250.807 217.296C250.523 217.594 250.56 217.841 250.919 218.037L253.061 219.225C253.235 219.321 253.44 219.345 253.632 219.292C253.823 219.239 253.987 219.113 254.087 218.941Z" fill="black"/>
<path d="M359.93 257.227C359.572 256.679 359.101 256.215 358.519 255.836C352.028 251.621 346.047 247.612 339.69 243.352L339.617 243.304C335.556 240.581 331.34 237.756 326.74 234.708C322.7 232.035 318.767 229.229 314.943 226.291C314.907 226.264 314.874 226.232 314.847 226.195C314.837 226.181 314.828 226.167 314.819 226.153L314.803 226.121C314.77 226.054 314.754 225.98 314.756 225.905C314.758 225.831 314.778 225.758 314.814 225.693L314.832 225.663L314.845 225.644L314.864 225.62C314.892 225.585 314.926 225.555 314.963 225.53L324.354 219.063C324.534 218.943 324.745 218.88 324.96 218.882C325.176 218.884 325.386 218.95 325.563 219.073L379.485 256.963C380.297 257.532 380.297 258.1 379.485 258.669C379.054 258.975 378.529 259.201 378.015 259.423C377.574 259.613 377.141 259.799 376.784 260.029C367.789 265.796 359.189 271.33 350.194 277.868C341.997 283.824 333.658 289.699 325.177 295.493C325.03 295.592 324.857 295.643 324.681 295.641C324.506 295.64 324.335 295.584 324.192 295.483L314.862 289.036C314.759 288.966 314.675 288.872 314.617 288.763C314.559 288.653 314.529 288.531 314.529 288.407C314.529 288.283 314.559 288.16 314.617 288.051C314.636 288.015 314.657 287.981 314.681 287.949C314.709 287.913 314.739 287.879 314.773 287.848C314.801 287.822 314.831 287.799 314.862 287.777L359.87 257.562C359.895 257.544 359.916 257.522 359.933 257.496C359.95 257.469 359.962 257.439 359.968 257.407C359.98 257.345 359.966 257.28 359.93 257.227Z" fill="black"/>
<path d="M132.455 258.811C143.8 265.573 154.836 272.815 165.564 280.538C172.556 285.574 179.619 290.468 186.753 295.219L186.77 295.23L186.793 295.242C186.818 295.254 186.846 295.264 186.873 295.271C186.904 295.278 186.936 295.281 186.968 295.28C187.044 295.279 187.118 295.254 187.18 295.209L196.632 288.66C196.719 288.601 196.791 288.521 196.841 288.428C196.891 288.335 196.917 288.231 196.918 288.124C196.919 288.018 196.895 287.912 196.847 287.816L196.833 287.79L196.814 287.759C196.805 287.744 196.794 287.729 196.784 287.715L196.752 287.674C196.737 287.657 196.721 287.641 196.704 287.626L196.68 287.604L196.642 287.574C184.533 278.762 171.863 270.54 159.267 262.366C157.278 261.076 155.292 259.786 153.309 258.496C153.149 258.391 153.017 258.248 152.925 258.08C152.877 257.992 152.841 257.898 152.817 257.801C152.802 257.742 152.792 257.682 152.787 257.62C152.784 257.591 152.783 257.562 152.783 257.532C152.781 257.34 152.826 257.151 152.914 256.981C153.002 256.811 153.132 256.665 153.289 256.557L196.885 226.687C197.008 226.605 197.108 226.495 197.177 226.365C197.247 226.235 197.284 226.091 197.285 225.944C197.286 225.879 197.279 225.815 197.266 225.752C197.249 225.672 197.221 225.594 197.183 225.521C197.116 225.391 197.017 225.279 196.896 225.195L188.631 219.377C188.381 219.201 188.082 219.107 187.775 219.107C187.468 219.107 187.168 219.201 186.916 219.377C183.436 221.844 179.976 224.303 176.528 226.753C163.356 236.114 150.353 245.355 137.045 254.455C136.951 254.519 136.853 254.584 136.751 254.648C136.675 254.697 136.596 254.746 136.515 254.795L136.295 254.928C136.155 255.012 136.01 255.097 135.862 255.184L135.815 255.211L135.792 255.224C134.634 255.903 133.282 256.695 132.293 257.836C132.232 257.907 132.187 257.99 132.161 258.08C132.136 258.17 132.131 258.265 132.147 258.358C132.162 258.451 132.198 258.54 132.251 258.618L132.269 258.643L132.29 258.669C132.299 258.68 132.308 258.69 132.318 258.7C132.358 258.743 132.404 258.78 132.455 258.811Z" fill="black"/>
<path d="M337.462 255.806L302.262 233.328C302.256 233.324 302.25 233.32 302.244 233.315C302.234 233.306 302.226 233.296 302.219 233.285C302.21 233.267 302.204 233.247 302.204 233.226C302.204 233.204 302.21 233.183 302.219 233.164C302.225 233.154 302.231 233.145 302.238 233.137C302.245 233.128 302.253 233.121 302.262 233.114L310.679 227.551C310.725 227.52 310.779 227.504 310.835 227.504C310.891 227.504 310.946 227.52 310.994 227.551L354.762 256.283C354.892 256.369 354.999 256.486 355.073 256.624C355.147 256.761 355.185 256.914 355.185 257.07C355.185 257.226 355.147 257.379 355.073 257.517C354.999 257.654 354.892 257.771 354.762 257.857L310.699 286.711C310.633 286.753 310.567 286.776 310.503 286.782C310.468 286.784 310.434 286.782 310.4 286.774C310.379 286.77 310.359 286.763 310.339 286.754C310.321 286.747 310.303 286.738 310.284 286.727C310.267 286.716 310.25 286.704 310.232 286.691L302.445 280.508C302.256 280.352 302.262 280.21 302.465 280.081L337.462 257.238C337.581 257.16 337.68 257.054 337.748 256.929C337.816 256.804 337.852 256.664 337.852 256.522C337.852 256.379 337.816 256.239 337.748 256.114C337.68 255.989 337.581 255.883 337.462 255.806Z" fill="black"/>
<path d="M198.697 233.249C198.733 233.172 198.787 233.104 198.855 233.053L202.733 230.251C203.417 229.757 203.41 229.273 202.713 228.799L201.952 228.282C201.854 228.216 201.752 228.16 201.645 228.116C201.577 228.088 201.508 228.064 201.438 228.045C201.306 228.008 201.17 227.988 201.032 227.984C200.704 227.975 200.382 228.061 200.104 228.231C189.975 234.456 180.124 241.217 170.311 247.952C165.832 251.026 161.36 254.095 156.873 257.106C156.789 257.161 156.721 257.236 156.674 257.325C156.628 257.414 156.604 257.513 156.606 257.614C156.607 257.665 156.615 257.716 156.628 257.765C156.634 257.787 156.642 257.81 156.651 257.832C156.661 257.856 156.673 257.88 156.686 257.903C156.736 257.992 156.807 258.066 156.893 258.121C163.73 262.432 170.492 266.683 177.179 270.873C184.638 275.557 192.117 280.593 199.617 285.98C199.901 286.19 200.189 286.194 200.48 285.99L208.125 280.549C208.147 280.532 208.169 280.515 208.19 280.497C208.225 280.467 208.257 280.434 208.287 280.399C208.328 280.349 208.363 280.294 208.393 280.236C208.455 280.112 208.486 279.974 208.483 279.835C208.48 279.696 208.443 279.559 208.375 279.438C208.307 279.316 208.211 279.213 208.094 279.137L174.874 257.694C174.72 257.596 174.592 257.459 174.504 257.299C174.416 257.138 174.369 256.957 174.368 256.773C174.367 256.589 174.412 256.407 174.498 256.243C174.585 256.08 174.71 255.94 174.864 255.836L208.713 233.358C208.795 233.301 208.861 233.224 208.904 233.134C208.947 233.044 208.965 232.945 208.957 232.847C208.948 232.748 208.914 232.654 208.857 232.575C208.8 232.495 208.722 232.432 208.632 232.394L204.723 230.668C204.331 230.498 204.148 230.627 204.175 231.053L204.328 233.389C204.336 233.547 204.296 233.703 204.212 233.838C204.129 233.972 204.006 234.078 203.861 234.14C202.175 234.844 200.527 234.766 198.916 233.906C198.841 233.866 198.778 233.807 198.732 233.735C198.716 233.711 198.703 233.687 198.692 233.661L198.678 233.624L198.666 233.586L198.659 233.553L198.655 233.53L198.652 233.497C198.646 233.412 198.662 233.327 198.697 233.249Z" fill="black"/>
<path d="M188.621 257.826L215.293 275.137C215.38 275.193 215.452 275.269 215.502 275.359C215.552 275.45 215.58 275.551 215.582 275.654C215.584 275.758 215.56 275.86 215.514 275.952C215.467 276.044 215.398 276.124 215.313 276.183L213.12 277.726C212.768 277.97 212.406 277.98 212.033 277.756L179.209 257.339C179.141 257.298 179.084 257.239 179.044 257.17C179.004 257.1 178.983 257.021 178.982 256.94C178.981 256.859 179 256.779 179.039 256.707C179.076 256.635 179.132 256.573 179.199 256.527C185.692 252.094 192.33 247.931 198.958 243.773C203.565 240.883 208.168 237.995 212.714 235.023C213.431 234.549 214.061 234.647 214.602 235.317L215.181 236.018C215.29 236.152 215.371 236.307 215.42 236.472C215.468 236.638 215.484 236.811 215.465 236.982C215.446 237.154 215.393 237.319 215.31 237.469C215.269 237.543 215.221 237.612 215.166 237.676C215.135 237.712 215.101 237.747 215.066 237.78C215.038 237.807 215.008 237.832 214.978 237.856C209.301 242.275 203.396 246.15 197.306 250.144C194.443 252.022 191.539 253.927 188.601 255.928C187.66 256.571 187.667 257.204 188.621 257.826Z" fill="black"/>
<path d="M324.327 256.75C324.312 256.819 324.284 256.885 324.243 256.943C324.06 257.207 323.776 257.451 323.39 257.674C314.516 262.893 305.41 268.822 296.069 275.462C295.325 275.99 295.341 276.494 296.12 276.975L297.226 277.655C298.012 278.142 298.797 278.139 299.582 277.645L332.711 256.841C332.765 256.807 332.812 256.763 332.848 256.71L332.861 256.688L332.871 256.672C332.891 256.637 332.906 256.6 332.915 256.561C332.925 256.524 332.93 256.485 332.93 256.446C332.93 256.408 332.925 256.371 332.917 256.335C332.907 256.295 332.892 256.256 332.871 256.219C332.833 256.15 332.778 256.092 332.711 256.05C321.793 249.267 310.835 242.431 299.835 235.541C298.57 234.756 297.416 235.196 296.374 236.861C296.035 237.409 296.133 237.859 296.668 238.211L324.091 256.192C324.151 256.231 324.203 256.282 324.244 256.342L324.259 256.366L324.273 256.389C324.28 256.402 324.287 256.416 324.292 256.43C324.308 256.464 324.319 256.501 324.327 256.538C324.341 256.608 324.341 256.68 324.327 256.75Z" fill="black"/>
<path d="M258.747 241.095L255.295 243.572C255.145 243.678 254.965 243.73 254.782 243.719C254.76 243.717 254.738 243.715 254.716 243.712C254.685 243.708 254.656 243.702 254.626 243.694C254.501 243.661 254.386 243.598 254.29 243.511L252.361 241.754C252.277 241.678 252.21 241.586 252.165 241.482C252.119 241.378 252.096 241.266 252.097 241.153C252.098 241.04 252.123 240.928 252.17 240.825C252.218 240.723 252.286 240.631 252.371 240.556L255.305 237.998C255.443 237.877 255.618 237.808 255.8 237.8C255.824 237.799 255.848 237.8 255.872 237.801C255.908 237.802 255.944 237.807 255.98 237.813C256.035 237.824 256.089 237.84 256.14 237.861L256.162 237.871L256.189 237.883C256.213 237.895 256.237 237.908 256.26 237.923C256.277 237.934 256.294 237.945 256.31 237.957L258.757 239.795C258.859 239.87 258.942 239.968 258.999 240.082C259.056 240.195 259.085 240.32 259.084 240.447C259.083 240.481 259.081 240.515 259.076 240.549C259.073 240.574 259.069 240.598 259.063 240.623C259.048 240.688 259.025 240.752 258.993 240.811C258.934 240.924 258.85 241.021 258.747 241.095Z" fill="black"/>
<path d="M209.111 258.268L209.126 258.253L209.14 258.242L226.806 245.907C227.747 245.25 227.709 244.655 226.694 244.12L226.055 243.785C225.236 243.345 224.443 243.382 223.679 243.896L205.952 255.694C205.68 255.874 205.352 255.946 205.031 255.895C204.709 255.844 204.418 255.675 204.216 255.42L203.85 254.963C203.827 254.933 203.806 254.901 203.788 254.867C203.764 254.822 203.745 254.775 203.732 254.726C203.71 254.639 203.705 254.55 203.718 254.462C203.732 254.374 203.763 254.291 203.81 254.216C203.857 254.142 203.919 254.078 203.992 254.029L221.303 242.018C222.352 241.287 222.298 240.654 221.14 240.12L220.734 239.937C220.254 239.714 219.724 239.618 219.196 239.659C218.668 239.7 218.159 239.876 217.719 240.17L193.575 256.253C193.455 256.332 193.357 256.441 193.289 256.569C193.221 256.697 193.187 256.839 193.189 256.984C193.191 257.129 193.229 257.27 193.301 257.396C193.332 257.452 193.37 257.504 193.412 257.551C193.466 257.61 193.527 257.662 193.596 257.704L219.191 273.543C219.381 273.658 219.563 273.658 219.739 273.543L225.537 269.715C225.574 269.689 225.605 269.654 225.626 269.613C225.633 269.601 225.639 269.587 225.644 269.574C225.649 269.559 225.653 269.544 225.655 269.528L225.657 269.513L225.658 269.5L225.659 269.482C225.659 269.436 225.648 269.391 225.626 269.35C225.605 269.309 225.574 269.274 225.537 269.248L209.14 258.537C209.125 258.528 209.113 258.517 209.102 258.504C209.094 258.496 209.088 258.486 209.082 258.476C209.077 258.467 209.073 258.457 209.069 258.446C209.064 258.43 209.061 258.412 209.061 258.394L209.062 258.378C209.063 258.368 209.065 258.359 209.067 258.35L209.071 258.337C209.074 258.328 209.078 258.319 209.082 258.31C209.087 258.301 209.091 258.293 209.097 258.286L209.111 258.268Z" fill="black"/>
<path d="M307.318 253.674L290.414 242.12C289.811 241.714 289.804 241.298 290.393 240.871L291.368 240.16C292.058 239.666 292.762 239.649 293.48 240.11L318.425 256.07C318.838 256.341 318.838 256.608 318.425 256.872L292.17 273.787C292.106 273.829 292.031 273.851 291.954 273.851C291.876 273.851 291.799 273.829 291.733 273.787L285.692 270.01C285.516 269.902 285.513 269.79 285.682 269.675L302.069 258.628C302.13 258.586 302.179 258.53 302.213 258.465C302.225 258.442 302.235 258.419 302.243 258.395C302.258 258.349 302.266 258.301 302.266 258.253C302.266 258.217 302.262 258.181 302.254 258.147C302.245 258.11 302.231 258.074 302.213 258.041C302.179 257.975 302.13 257.919 302.069 257.877L284.291 245.958C283.628 245.511 283.591 245.02 284.18 244.485L284.728 243.988C285.046 243.7 285.45 243.525 285.878 243.49C286.306 243.455 286.733 243.562 287.094 243.795L305.257 255.593C305.819 255.958 306.333 255.904 306.8 255.43L307.42 254.811C307.846 254.391 307.812 254.012 307.318 253.674Z" fill="black"/>
<path d="M261.163 242.952L255.904 246.689C255.721 246.82 255.496 246.878 255.272 246.851C255.169 246.839 255.07 246.809 254.978 246.764C254.871 246.712 254.775 246.638 254.696 246.547L250.665 241.856C250.601 241.782 250.512 241.734 250.416 241.723C250.319 241.711 250.224 241.737 250.147 241.795L246.695 244.435C246.683 244.445 246.671 244.456 246.66 244.467C246.651 244.477 246.642 244.487 246.635 244.498L246.623 244.516C246.619 244.523 246.614 244.531 246.611 244.538C246.591 244.579 246.58 244.623 246.58 244.668C246.58 244.713 246.591 244.758 246.611 244.798L246.624 244.823L246.635 244.84L246.647 244.855C246.662 244.872 246.678 244.888 246.695 244.902L255.255 251.054C255.399 251.158 255.573 251.212 255.752 251.211C255.834 251.21 255.915 251.197 255.993 251.173C256.084 251.145 256.171 251.102 256.249 251.044L264.301 245.166L264.321 245.151L264.351 245.127L264.386 245.098L264.423 245.064L264.462 245.025C264.531 244.951 264.591 244.868 264.638 244.778C264.72 244.624 264.765 244.453 264.77 244.279C264.775 244.104 264.74 243.93 264.667 243.771C264.633 243.696 264.591 243.625 264.542 243.559C264.515 243.523 264.486 243.489 264.456 243.456C264.423 243.422 264.388 243.389 264.351 243.359L263.976 243.054C263.583 242.73 263.095 242.545 262.587 242.527C262.078 242.508 261.578 242.658 261.163 242.952Z" fill="black"/>
<path d="M108.211 252.253C114.393 253.024 124.811 252.77 128.79 247.572C129.711 246.381 130.831 246.147 132.151 246.872L132.486 247.064C134.016 247.911 134.189 248.977 133.004 250.263C126.303 257.522 117.612 257.826 108.099 256.923C106.488 256.767 105.804 255.891 106.048 254.293L106.119 253.836C106.192 253.353 106.451 252.918 106.841 252.622C107.232 252.326 107.723 252.194 108.211 252.253Z" fill="black"/>
<path d="M271.698 253.965C271.69 253.981 271.681 253.996 271.67 254.01C271.655 254.029 271.639 254.045 271.621 254.06L263.681 260.04C263.383 260.263 263.082 260.27 262.777 260.06L244.096 247.277C243.548 246.905 242.996 246.895 242.441 247.247L240.736 248.344C240.079 248.763 240.072 249.19 240.715 249.623L262.757 264.527C263.089 264.751 263.414 264.744 263.732 264.507L275.093 255.938C275.837 255.376 276.616 255.319 277.428 255.765L278.281 256.242C279.059 256.669 279.09 257.139 278.373 257.654L257.285 272.995C256.96 273.232 256.632 273.235 256.3 273.005L233.365 257.177C232.532 256.601 232.563 256.07 233.456 255.583L233.842 255.369C234.762 254.862 235.659 254.902 236.532 255.491L256.757 269.167C256.835 269.22 256.909 269.236 256.98 269.215C257.012 269.205 257.044 269.187 257.075 269.162C257.087 269.151 257.1 269.139 257.112 269.126L259.143 266.964C259.152 266.954 259.161 266.943 259.169 266.933C259.183 266.914 259.196 266.894 259.207 266.873C259.218 266.853 259.227 266.832 259.234 266.81C259.253 266.753 259.259 266.693 259.253 266.633C259.25 266.614 259.247 266.595 259.242 266.576L259.233 266.547C259.223 266.518 259.211 266.49 259.195 266.464C259.163 266.412 259.122 266.368 259.072 266.334L237.71 251.684C237.419 251.481 237.125 251.477 236.827 251.674L228.126 257.268C228.071 257.302 228.022 257.343 227.978 257.39C227.936 257.433 227.901 257.482 227.871 257.535C227.81 257.644 227.776 257.767 227.774 257.892C227.772 258.017 227.802 258.14 227.86 258.251C227.883 258.297 227.912 258.34 227.944 258.38C227.99 258.436 228.045 258.486 228.106 258.527L256.493 277.807C256.71 277.956 256.926 277.953 257.143 277.797L283.987 258.283C284.097 258.2 284.183 258.09 284.237 257.963C284.265 257.897 284.283 257.827 284.292 257.757C284.3 257.692 284.3 257.627 284.292 257.562C284.289 257.542 284.286 257.523 284.282 257.503C284.275 257.468 284.265 257.434 284.253 257.401C284.226 257.325 284.187 257.255 284.137 257.191C284.053 257.084 283.941 257.002 283.814 256.953C282.434 256.412 281.046 255.677 279.652 254.75C275.854 252.225 272.074 249.65 268.311 247.024C268.136 246.904 267.963 246.869 267.791 246.918C267.741 246.932 267.692 246.954 267.642 246.982L267.607 247.004L267.589 247.016L267.55 247.044L260.057 252.862C259.563 253.241 259.579 253.599 260.107 253.938L261.641 254.923C262.324 255.356 262.957 255.291 263.539 254.73L267.336 251.024C267.427 250.935 267.545 250.881 267.669 250.872C267.794 250.863 267.917 250.899 268.016 250.973L271.621 253.643C271.631 253.651 271.642 253.659 271.651 253.669C271.67 253.687 271.686 253.708 271.698 253.732C271.716 253.767 271.726 253.807 271.726 253.847C271.726 253.861 271.725 253.875 271.722 253.889C271.721 253.899 271.719 253.909 271.716 253.919C271.711 253.935 271.705 253.95 271.698 253.965Z" fill="black"/>
<path d="M382.48 247.42C386.348 253.024 397.131 252.567 402.857 252.232C404.39 252.141 405.385 252.567 405.903 253.999C406.023 254.332 406.032 254.695 405.929 255.032C405.827 255.369 405.618 255.662 405.334 255.867C403.329 257.321 400.444 257.21 397.881 257.111L397.397 257.093L397.266 257.088L396.918 257.077C396.786 257.074 396.656 257.07 396.528 257.068C396.311 257.064 396.099 257.063 395.892 257.065C389.587 257.136 382.927 255.319 378.876 250.222C378.05 249.186 378.145 248.239 379.16 247.379L379.566 247.034C380.676 246.086 381.648 246.215 382.48 247.42Z" fill="black"/>
<path d="M195.2 318.48L194.916 318.287C194.845 318.242 194.787 318.18 194.746 318.107C194.706 318.034 194.684 317.952 194.683 317.867C194.682 317.783 194.702 317.699 194.741 317.624C194.78 317.548 194.837 317.483 194.906 317.434L249.417 278.66C250.1 278.173 250.107 277.679 249.437 277.178L248.432 276.437C248.149 276.227 247.807 276.113 247.456 276.109C247.106 276.105 246.765 276.213 246.482 276.416C234.915 284.586 223.023 292.248 210.806 299.402C210.772 299.419 210.738 299.42 210.705 299.405C210.671 299.39 210.636 299.359 210.602 299.311L210.45 299.088C210.43 299.054 210.436 299.027 210.47 299.006L243.772 274.558C243.879 274.481 243.954 274.367 243.984 274.238C244.014 274.11 243.996 273.974 243.934 273.858C242.949 272.01 241.467 271.837 239.751 273.066C228.05 281.429 216.56 288.581 202.032 297.625L193.87 302.712C192.828 303.362 191.775 303.981 190.713 304.57C190.604 304.631 190.517 304.611 190.449 304.509L190.317 304.286C190.283 304.232 190.29 304.188 190.337 304.154L237.589 270.619C237.66 270.567 237.718 270.499 237.758 270.421C237.798 270.342 237.819 270.255 237.819 270.167C237.819 270.079 237.798 269.992 237.758 269.914C237.718 269.835 237.66 269.767 237.589 269.715L222.075 258.608C221.962 258.528 221.87 258.423 221.806 258.3C221.742 258.177 221.709 258.041 221.709 257.903C221.709 257.764 221.742 257.628 221.806 257.505C221.87 257.382 221.962 257.277 222.075 257.197L233.182 249.298C233.649 248.966 233.649 248.635 233.182 248.303L231.72 247.257C231.308 246.959 230.891 246.963 230.471 247.267L216.359 257.38C216.219 257.479 216.106 257.612 216.029 257.766C215.978 257.871 215.944 257.982 215.93 258.097C215.923 258.153 215.921 258.208 215.923 258.265C215.929 258.437 215.977 258.606 216.064 258.756C216.151 258.907 216.273 259.034 216.42 259.126L231.791 268.7C231.845 268.734 231.895 268.774 231.939 268.818C231.998 268.877 232.049 268.944 232.089 269.018C232.159 269.147 232.196 269.292 232.195 269.439C232.194 269.585 232.155 269.729 232.083 269.855C232.011 269.982 231.906 270.088 231.781 270.162C224.586 274.44 217.493 279.005 210.501 283.858C209.154 284.794 207.591 285.859 205.902 287.009L205.878 287.025C201.179 290.224 195.516 294.079 190.855 297.666C189.388 298.797 187.795 299.887 186.232 300.955C184.723 301.987 183.242 302.999 181.93 304.012C176.264 308.383 170.671 312.696 165.153 316.95L154.883 324.866C154.037 325.515 154.149 325.84 155.219 325.84C169.385 325.834 183.69 325.817 198.135 325.79C201.445 325.79 202.808 324.734 205.138 322.93L205.576 322.591C215.668 314.821 228.495 305.487 244.056 294.59C247.244 292.356 250.496 289.98 253.813 287.463C253.996 287.322 254.205 287.22 254.426 287.161C254.558 287.126 254.693 287.107 254.831 287.103C255.201 287.094 255.566 287.202 255.874 287.412C269.648 296.766 283.442 306.333 297.257 316.114C301.108 318.842 304.882 321.688 308.577 324.653C309.51 325.402 310.674 325.81 311.877 325.81L357.585 325.82C358.695 325.82 358.793 325.505 357.88 324.876C347.472 317.704 337.15 310.35 326.814 302.985L326.806 302.98C311.143 291.819 295.447 280.636 279.368 270.03C278.535 269.475 277.926 268.954 277.54 268.467C277.154 267.979 276.711 267.925 276.21 268.304L273.631 270.253C273.157 270.612 273.164 270.957 273.652 271.289C287.493 280.948 301.379 290.799 315.309 300.844C316.358 301.602 317.224 302.306 317.908 302.956C318.483 303.511 318.419 303.599 317.715 303.22C314.168 301.304 310.598 299.206 307.004 296.925C294.665 289.101 282.43 281.103 270.301 272.934C269.969 272.717 269.651 272.734 269.347 272.985L267.641 274.406C267.575 274.461 267.523 274.531 267.488 274.61C267.468 274.654 267.454 274.701 267.446 274.748C267.44 274.785 267.438 274.822 267.439 274.86C267.442 274.946 267.465 275.03 267.505 275.106C267.545 275.183 267.602 275.249 267.671 275.299L272.545 278.815L272.592 278.85C282.025 285.652 291.474 292.466 300.658 299.575C300.746 299.643 300.759 299.724 300.699 299.819L300.689 299.829C300.641 299.903 300.587 299.923 300.526 299.89C288.275 292.789 276.339 285.192 264.717 277.096C264.602 277.015 264.487 277.019 264.372 277.107L261.976 278.975C261.957 278.99 261.942 279.007 261.929 279.027C261.923 279.036 261.918 279.045 261.913 279.055C261.899 279.086 261.892 279.121 261.893 279.155C261.894 279.189 261.902 279.223 261.919 279.253C261.935 279.284 261.958 279.31 261.986 279.33C267.167 282.974 272.373 286.569 277.575 290.161L277.586 290.168C291.079 299.485 304.549 308.786 317.502 318.896C317.61 318.977 317.627 319.075 317.552 319.19H317.542C317.468 319.305 317.37 319.326 317.248 319.251C306.858 312.943 296.671 306.303 286.483 299.663L286.467 299.652C281.938 296.7 277.407 293.747 272.859 290.823C267.032 287.087 261.374 283.219 255.884 279.218C255.818 279.17 255.745 279.132 255.668 279.107C255.626 279.094 255.584 279.084 255.54 279.078C255.511 279.074 255.483 279.071 255.454 279.071C255.353 279.068 255.254 279.086 255.162 279.123C255.131 279.136 255.1 279.151 255.07 279.168L255.044 279.183L255.021 279.198L195.667 318.48C195.512 318.581 195.356 318.581 195.2 318.48Z" fill="black"/>
<path d="M289.886 257.359L277.783 249.095C277.56 248.946 277.553 248.787 277.763 248.617L279.713 247.074C279.834 246.979 279.956 246.973 280.078 247.054L294.942 257.065C294.989 257.096 295.032 257.13 295.073 257.168C295.155 257.245 295.223 257.334 295.277 257.434C295.356 257.583 295.398 257.749 295.398 257.917C295.398 258.086 295.356 258.252 295.277 258.401C295.197 258.55 295.082 258.677 294.942 258.77L283.033 266.75C282.254 267.272 281.408 267.414 280.494 267.177L279.987 267.045C278.85 266.747 278.758 266.26 279.713 265.583L289.896 258.283C289.921 258.266 289.943 258.247 289.965 258.226C289.987 258.204 290.008 258.18 290.027 258.155L290.051 258.119L290.073 258.08C290.115 257.999 290.137 257.909 290.136 257.818C290.135 257.727 290.111 257.638 290.068 257.558C290.024 257.478 289.962 257.409 289.886 257.359Z" fill="black"/>
<path d="M111.571 292.559C107.849 299.084 107.737 305.738 111.236 312.52C119.704 328.968 142.669 327.993 153.675 315.952C163.858 304.814 162.488 289.889 152.64 279.158C141.461 266.994 124.313 263.553 108.485 264.883C107.864 264.937 107.288 265.228 106.877 265.696C106.467 266.163 106.253 266.77 106.282 267.39L106.302 267.797C106.323 268.253 106.521 268.684 106.852 268.997C107.184 269.31 107.624 269.48 108.079 269.472C113.69 269.37 117.521 269.421 119.572 269.624C132.649 270.913 145.268 276.447 152.396 287.747C153.261 289.112 153.694 290.613 154.138 292.153C154.226 292.456 154.314 292.761 154.406 293.067C158.021 305.189 148.64 317.769 136.101 316.652C131.674 316.266 127.955 314.219 124.942 310.51C121.998 306.895 121.491 300.803 125.156 297.504C126.787 296.035 128.713 295.551 130.933 296.052C134.354 296.817 134.345 299.142 134.336 301.494C134.326 303.98 134.317 306.495 138.354 307.23C145.431 308.52 148.203 299.575 146.274 294.143C141.228 279.899 118.628 280.183 111.571 292.559Z" fill="black"/>
<path d="M398.44 316.845C387.536 329.12 366.753 326.592 357.006 313.972C345.95 299.636 353.057 281.3 367.393 272.72C378.277 266.202 390.284 263.603 403.415 264.923C404.803 265.058 405.52 265.823 405.567 267.218L405.588 267.715C405.595 267.933 405.558 268.15 405.48 268.354C405.436 268.47 405.379 268.579 405.31 268.682C405.288 268.714 405.265 268.746 405.241 268.776C405.208 268.819 405.172 268.861 405.134 268.9L405.108 268.927L405.074 268.96L405.025 269.004C404.98 269.044 404.932 269.081 404.882 269.115C404.795 269.175 404.702 269.226 404.604 269.269C404.511 269.309 404.414 269.34 404.315 269.362C404.203 269.387 404.089 269.4 403.974 269.4C400.555 269.428 397.364 269.522 394.399 269.685C385.851 270.165 377.918 272.588 370.601 276.954C360.539 282.965 352.895 295.534 359.575 306.936C364.293 314.977 370.899 317.985 379.394 315.962C384.693 314.703 388.369 311.291 389.495 306.042C390.572 301.057 387.038 295.605 381.434 296.204C377.34 296.638 377.732 299.631 378.131 302.669L378.165 302.935C378.211 303.259 378.155 303.589 378.003 303.88C375.515 308.712 370.52 308.387 367.545 304.377C362.997 298.235 367.038 289.645 373.007 286C380.551 281.391 391.191 282.823 397.405 288.803C405.243 296.367 405.68 308.682 398.44 316.845Z" fill="black"/>
<path d="M255.414 291.951C255.298 291.938 255.182 291.963 255.082 292.021L251.214 294.275C250.787 294.519 250.777 294.78 251.183 295.057L254.432 297.28C254.953 297.639 255.464 297.626 255.965 297.24L258.757 295.118C258.852 295.047 258.927 294.951 258.973 294.842C259.019 294.732 259.035 294.612 259.019 294.495C259.004 294.377 258.957 294.265 258.884 294.172C258.858 294.137 258.828 294.106 258.795 294.077C258.739 294.028 258.675 293.989 258.605 293.96C257.522 293.514 256.561 292.891 255.722 292.092C255.637 292.013 255.529 291.964 255.414 291.951Z" fill="black"/>
<path d="M265.621 299.352L265.093 299.047C264.348 298.621 263.644 298.685 262.981 299.24L255.163 305.809C255.079 305.883 254.971 305.925 254.857 305.927C254.744 305.928 254.633 305.89 254.544 305.819L245.447 298.651C244.98 298.286 245 297.947 245.508 297.636L246.533 297.006C246.778 296.858 247.061 296.784 247.348 296.793C247.634 296.802 247.912 296.893 248.148 297.057L254.493 301.463C254.6 301.538 254.726 301.578 254.855 301.578C254.984 301.578 255.109 301.538 255.214 301.463L262.442 296.367C262.707 296.184 262.97 296.187 263.235 296.377L269.011 300.611C269.211 300.759 269.361 300.964 269.445 301.198C269.528 301.432 269.539 301.686 269.479 301.927C269.467 301.973 269.453 302.019 269.436 302.063C269.411 302.131 269.379 302.196 269.343 302.258C269.279 302.367 269.198 302.467 269.103 302.553C268.918 302.72 268.689 302.828 268.443 302.865C266.356 303.166 261.398 307.341 258.152 310.074C257.757 310.406 257.388 310.717 257.052 310.997L256.686 311.301L256.468 311.48L256.291 311.625L256.137 311.748C255.346 312.378 254.54 312.395 253.721 311.799L240.533 302.164C240.276 301.974 240.269 301.782 240.513 301.585L242.299 300.113C242.386 300.043 242.474 300.004 242.563 299.997C242.663 299.99 242.764 300.022 242.868 300.093L254.158 308.073C254.407 308.249 254.707 308.341 255.012 308.333C255.317 308.326 255.612 308.22 255.853 308.032L265.691 300.316C265.766 300.256 265.825 300.178 265.864 300.09C265.874 300.065 265.883 300.04 265.891 300.014C265.91 299.948 265.917 299.879 265.912 299.811C265.905 299.715 265.874 299.624 265.824 299.544C265.773 299.464 265.703 299.398 265.621 299.352Z" fill="black"/>
<path d="M272.028 314.631C272.044 314.596 272.068 314.565 272.098 314.54L279.987 308.499C280.001 308.489 280.015 308.477 280.026 308.464C280.034 308.455 280.041 308.446 280.048 308.436C280.055 308.427 280.061 308.416 280.067 308.405C280.085 308.368 280.095 308.327 280.095 308.286C280.095 308.265 280.092 308.245 280.088 308.225C280.083 308.205 280.076 308.185 280.067 308.166C280.059 308.151 280.05 308.137 280.039 308.123C280.024 308.104 280.007 308.087 279.987 308.073L273.946 303.687C273.803 303.578 273.658 303.578 273.509 303.687L255.417 317.007C255.352 317.057 255.274 317.085 255.193 317.087C255.112 317.089 255.034 317.064 254.97 317.017C250.306 313.728 245.633 310.448 240.949 307.179C239.46 306.144 238.394 305.247 237.751 304.489C237.148 303.785 236.468 303.7 235.71 304.235L231.456 307.271C230.792 307.744 230.783 308.232 231.426 308.733L238.238 313.982C238.311 314.038 238.37 314.111 238.41 314.194C238.429 314.234 238.444 314.276 238.454 314.319C238.465 314.366 238.471 314.413 238.47 314.461C238.469 314.554 238.447 314.645 238.405 314.727C238.363 314.809 238.302 314.881 238.228 314.936L228.948 321.992C228.763 322.131 228.537 322.202 228.306 322.195C228.076 322.187 227.855 322.102 227.679 321.952L220.43 315.779C220.2 315.582 219.963 315.579 219.719 315.768L215.82 318.814C215.783 318.844 215.754 318.882 215.733 318.925C215.712 318.969 215.701 319.016 215.701 319.064C215.701 319.113 215.712 319.161 215.733 319.206C215.739 319.219 215.746 319.231 215.753 319.243L215.77 319.268C215.785 319.288 215.802 319.306 215.82 319.322L223.192 325.332C223.557 325.624 223.973 325.769 224.44 325.769L285.408 325.708C286.195 325.708 286.957 325.432 287.561 324.926L294.363 319.261C294.485 319.153 294.481 319.048 294.353 318.946L290.596 315.84C290.495 315.752 290.393 315.748 290.292 315.829L282.484 321.718C282.336 321.831 282.169 321.914 281.992 321.965C281.853 322.005 281.708 322.024 281.561 322.023C281.227 322.019 280.901 321.905 280.636 321.698L272.098 314.946C272.068 314.921 272.044 314.89 272.028 314.855C272.021 314.84 272.015 314.824 272.011 314.808C272.006 314.787 272.003 314.765 272.003 314.743C272.003 314.704 272.011 314.666 272.028 314.631Z" fill="black"/>
<path d="M228.288 317.576L224.248 314.022C224.224 314.002 224.202 313.979 224.183 313.954C224.169 313.936 224.156 313.917 224.146 313.897C224.138 313.883 224.131 313.869 224.124 313.854C224.096 313.79 224.084 313.72 224.087 313.65C224.088 313.616 224.093 313.583 224.101 313.551C224.105 313.535 224.11 313.52 224.116 313.505C224.123 313.486 224.132 313.467 224.142 313.449C224.149 313.434 224.158 313.42 224.167 313.406C224.178 313.389 224.191 313.373 224.205 313.358C224.227 313.333 224.252 313.311 224.278 313.291L227.649 310.804C227.69 310.773 227.735 310.75 227.783 310.734C227.83 310.719 227.878 310.711 227.928 310.711C228.029 310.711 228.127 310.744 228.207 310.804L232.817 314.357C232.876 314.403 232.923 314.462 232.955 314.53C232.987 314.597 233.002 314.672 232.999 314.746C232.996 314.821 232.975 314.893 232.938 314.958C232.924 314.982 232.908 315.005 232.891 315.026C232.861 315.062 232.826 315.093 232.786 315.119L228.847 317.617C228.805 317.644 228.759 317.664 228.711 317.676C228.662 317.688 228.612 317.693 228.561 317.689C228.46 317.682 228.365 317.642 228.288 317.576Z" fill="black"/>
<path d="M281.834 317.403L285.723 314.114C285.752 314.089 285.779 314.062 285.803 314.032C285.826 314.005 285.846 313.976 285.863 313.946C285.876 313.924 285.887 313.902 285.897 313.88C285.91 313.849 285.92 313.818 285.928 313.786C285.934 313.766 285.938 313.745 285.942 313.724L285.948 313.674C285.95 313.647 285.95 313.62 285.949 313.593C285.944 313.495 285.916 313.399 285.868 313.313C285.852 313.284 285.834 313.257 285.813 313.231C285.774 313.18 285.726 313.135 285.672 313.098L282.87 311.19C282.758 311.115 282.625 311.077 282.49 311.083C282.47 311.083 282.451 311.085 282.431 311.088C282.406 311.091 282.381 311.096 282.356 311.102C282.319 311.112 282.283 311.125 282.248 311.141C282.233 311.148 282.218 311.156 282.203 311.164C282.173 311.18 282.145 311.199 282.119 311.22L278.373 314.195C278.298 314.254 278.237 314.329 278.195 314.415C278.153 314.5 278.131 314.594 278.13 314.69C278.129 314.785 278.149 314.88 278.189 314.966C278.23 315.053 278.289 315.129 278.362 315.19L281.002 317.403C281.118 317.502 281.266 317.557 281.418 317.557C281.571 317.557 281.718 317.502 281.834 317.403Z" fill="black"/>
</svg>
