<svg width="512" height="512" viewBox="0 0 512 512" fill="none" xmlns="http://www.w3.org/2000/svg">
<rect width="512" height="512" fill="white"/>
<path d="M247.774 127.604L194.21 266.254C193.837 267.195 193.965 268.078 194.592 268.902C195.632 270.276 196.947 270.776 198.536 270.403C199.616 270.148 200.891 269.246 202.362 267.696C210.328 259.259 219.069 251.352 228.585 243.974C228.917 243.72 229.331 243.592 229.756 243.614C230.18 243.635 230.589 243.804 230.911 244.092C231.754 244.877 232.176 246.064 232.176 247.653C232.039 298.922 231.283 350.044 229.91 401.018C229.886 401.95 230.232 402.854 230.871 403.532C231.511 404.21 232.392 404.607 233.324 404.638L273.32 405.992C277.676 406.149 279.854 404.05 279.854 399.694L279.619 242.503C279.599 240.678 280.286 240.354 281.679 241.532C292.058 250.341 301.8 259.651 310.904 269.462C312.454 271.129 314.956 271.11 318.409 269.403" stroke="black" stroke-width="2"/>
<path d="M282 241.149L282.001 241.15C292.395 249.972 302.151 259.296 311.269 269.121C311.938 269.841 312.811 270.206 313.937 270.197C315.042 270.189 316.394 269.818 318.007 269.042C318.858 266.581 318.125 263.869 316.899 261.146C316.361 259.95 315.739 258.777 315.138 257.643C315.042 257.462 314.947 257.282 314.853 257.104C314.173 255.815 313.535 254.569 313.139 253.44C309.417 242.878 305.596 232.351 301.774 221.817C293.121 197.972 284.458 174.099 276.903 149.737C272.901 136.868 268.811 124.029 264.633 111.219L264.632 111.217C264.123 109.634 263.384 108.481 262.438 107.714C261.498 106.951 260.314 106.538 258.857 106.501C257.816 106.478 256.795 106.789 255.945 107.39C255.095 107.99 254.46 108.848 254.134 109.836L282 241.149ZM282 241.149C281.634 240.84 281.284 240.602 280.955 240.467C280.628 240.333 280.254 240.274 279.904 240.439C279.555 240.603 279.362 240.93 279.257 241.267C279.152 241.606 279.112 242.026 279.117 242.505M282 241.149L279.117 242.505M194.208 266.253C193.836 267.195 193.963 268.078 194.591 268.902C195.631 270.276 196.946 270.776 198.535 270.403L194.208 266.253ZM194.208 266.253L247.773 127.604L194.208 266.253ZM279.117 242.505C279.117 242.506 279.117 242.507 279.117 242.508L279.353 399.694C279.353 399.694 279.353 399.694 279.353 399.694C279.353 401.796 278.827 403.255 277.872 404.175C276.917 405.096 275.44 405.568 273.337 405.492L273.336 405.492L233.339 404.138C232.539 404.112 231.782 403.77 231.233 403.188L279.117 242.505ZM248.248 127.76L254.134 109.837L202.361 267.695L201.998 267.351C201.998 267.351 201.998 267.352 201.998 267.352C200.542 268.885 199.351 269.696 198.421 269.916C197.707 270.084 197.085 270.049 196.535 269.84C195.983 269.63 195.466 269.229 194.99 268.6L194.989 268.599C194.464 267.91 194.367 267.212 194.673 266.437L194.675 266.434L248.239 127.784L248.244 127.772L248.248 127.76Z" fill="white" stroke="black"/>
<path d="M266.676 165.62L266.676 165.62C267.048 165.099 267.444 164.604 267.838 164.164C268.233 163.723 268.616 163.35 268.963 163.063C269.315 162.772 269.602 162.594 269.811 162.51C269.869 162.487 269.914 162.474 269.947 162.467C269.951 162.501 269.953 162.547 269.95 162.61C269.938 162.834 269.862 163.164 269.7 163.591C269.54 164.012 269.31 164.494 269.02 165.01C268.73 165.525 268.389 166.059 268.017 166.58L268.423 166.871L268.017 166.58C267.644 167.1 267.249 167.595 266.854 168.035C266.459 168.476 266.077 168.849 265.73 169.136C265.378 169.427 265.091 169.605 264.882 169.689C264.824 169.712 264.779 169.725 264.745 169.733C264.741 169.699 264.739 169.652 264.742 169.59C264.754 169.365 264.831 169.035 264.993 168.609C265.152 168.188 265.382 167.705 265.673 167.189C265.962 166.674 266.303 166.14 266.676 165.62Z" fill="black" stroke="black"/>
<path d="M266.057 186.163L266.054 186.171L266.051 186.179C265.967 186.412 265.895 186.573 265.837 186.674C265.822 186.701 265.809 186.721 265.799 186.735C265.689 186.774 265.565 186.781 265.445 186.754C265.308 186.723 265.19 186.65 265.108 186.552C265.027 186.454 264.986 186.338 264.986 186.225C264.987 186.116 265.024 186.008 265.098 185.918L273.386 177.306L273.398 177.294L273.409 177.28C273.468 177.211 273.555 177.163 273.654 177.152C273.753 177.141 273.848 177.17 273.919 177.225C273.99 177.28 274.031 177.356 274.04 177.436C274.048 177.517 274.024 177.6 273.967 177.669L273.948 177.691L273.932 177.716C272.141 180.45 269.949 182.718 267.355 184.525C266.762 184.935 266.328 185.485 266.057 186.163ZM265.78 186.759C265.78 186.759 265.781 186.758 265.782 186.757C265.781 186.759 265.78 186.759 265.78 186.759Z" fill="black" stroke="black"/>
<path d="M271.5 188.847C272.64 185.633 274.346 183.642 276.567 182.751L276.567 182.751L276.573 182.748C277.028 182.559 277.359 182.463 277.582 182.435C277.638 182.428 277.681 182.427 277.711 182.427C277.708 182.459 277.7 182.504 277.685 182.565C277.627 182.787 277.489 183.108 277.242 183.539C275.499 186.582 273.576 188.298 271.5 188.847ZM277.783 182.435C277.783 182.435 277.782 182.435 277.781 182.435L277.783 182.435Z" fill="black" stroke="black"/>
<path d="M277.597 195.6L277.597 195.6C277.385 195.399 277.161 195.1 277.2 194.721C277.239 194.344 277.515 194.104 277.765 193.958C278.057 193.763 278.369 193.559 278.699 193.345L278.709 193.339L278.709 193.339C279.194 193.04 279.732 192.422 280.206 191.529L280.208 191.526C280.437 191.102 280.51 190.738 280.475 190.421C280.44 190.105 280.292 189.784 279.987 189.454L277.597 195.6ZM277.597 195.6L284.454 202.075L284.455 202.075C284.891 202.485 285.038 202.828 285.041 203.107C285.044 203.386 284.904 203.731 284.477 204.15L284.477 204.15L282.772 205.826M277.597 195.6L282.772 205.826M282.772 205.826C282.771 205.826 282.771 205.827 282.771 205.827C281.955 206.621 281.51 207.602 281.444 208.746L281.444 208.747C281.371 210.072 280.945 211.022 280.22 211.668C279.486 212.322 278.377 212.723 276.824 212.808L276.824 212.807L276.817 212.808C276.313 212.843 276.12 212.732 276.049 212.652C275.978 212.572 275.891 212.367 275.988 211.873L275.989 211.87L276.813 207.545M282.772 205.826L276.813 207.545M276.813 207.545C276.813 207.545 276.813 207.544 276.813 207.544C276.905 207.065 277.085 206.759 277.313 206.567C277.541 206.376 277.873 206.251 278.361 206.243V206.243L278.367 206.243C279.839 206.199 281.032 205.562 281.906 204.36L281.908 204.357C282.118 204.063 282.264 203.728 282.336 203.374C282.407 203.02 282.404 202.655 282.324 202.303C282.245 201.95 282.092 201.619 281.875 201.33C281.659 201.041 281.384 200.802 281.069 200.627M276.813 207.545L281.069 200.627M281.069 200.627C280.252 200.167 279.364 199.854 278.409 199.688L278.409 199.688L278.404 199.687C278.089 199.635 277.801 199.481 277.583 199.247C277.366 199.014 277.232 198.715 277.202 198.398L277.201 198.386L277.199 198.373C277.159 198.089 277.108 197.795 277.048 197.493L277.048 197.493L277.046 197.484C276.976 197.165 276.812 196.875 276.575 196.651C276.338 196.427 276.038 196.28 275.716 196.229C275.393 196.179 275.063 196.227 274.768 196.367C274.474 196.507 274.228 196.734 274.064 197.016L274.064 197.016L274.061 197.023L263.995 215.005L263.995 215.005L263.992 215.011C263.903 215.176 263.84 215.193 263.838 215.193L263.838 215.193C263.834 215.194 263.767 215.212 263.596 215.113C263.595 215.112 263.595 215.112 263.594 215.112L262.805 214.644C266.964 205.491 272.312 197.1 278.85 189.469L278.85 189.469L278.856 189.462C278.921 189.382 279.004 189.318 279.098 189.273C279.192 189.228 279.296 189.203 279.403 189.202C279.51 189.2 279.618 189.221 279.719 189.265C279.82 189.308 279.911 189.373 279.987 189.454L281.069 200.627Z" fill="black" stroke="black"/>
<path d="M269.665 190.538C266.737 191.983 265.124 193.741 264.654 195.761L269.665 190.538ZM269.665 190.538C268.211 193.367 267.131 195.352 266.421 196.502C265.65 197.726 265.03 198.599 264.558 199.137C264.366 199.356 264.212 199.504 264.094 199.596C264.076 199.447 264.073 199.233 264.093 198.942C264.143 198.227 264.326 197.172 264.654 195.761L269.665 190.538ZM263.921 199.704C263.921 199.704 263.924 199.703 263.928 199.702C263.923 199.704 263.921 199.704 263.921 199.704ZM264.136 199.788C264.138 199.792 264.139 199.794 264.139 199.794C264.139 199.795 264.138 199.793 264.136 199.788Z" fill="black" stroke="black"/>
<path d="M285.344 222.277L285.336 222.278C284.257 222.423 283.364 222.448 282.68 222.327C282.007 222.207 281.418 221.921 281.162 221.336C280.915 220.773 281.062 220.117 281.376 219.468C281.698 218.802 282.251 218.03 283.008 217.158L283.01 217.156L283.01 217.156L288.484 210.917L288.484 210.916C288.757 210.606 288.918 210.373 288.996 210.211C288.999 210.204 289.002 210.197 289.005 210.191C288.996 210.19 288.986 210.189 288.976 210.188C288.793 210.172 288.507 210.191 288.098 210.266C285.827 210.7 283.772 212.688 281.842 215.177C280.934 216.348 280.075 217.6 279.247 218.807C279.204 218.869 279.161 218.931 279.119 218.993C278.257 220.25 277.423 221.456 276.619 222.426L276.618 222.427C276.469 222.605 276.428 222.737 276.425 222.827C276.421 222.911 276.447 223.026 276.568 223.18C276.743 223.4 276.899 223.488 277.031 223.516C277.162 223.544 277.342 223.528 277.594 223.399L277.595 223.398C278.386 222.991 279.237 222.88 280.129 223.058L280.133 223.059L280.133 223.059C280.606 223.158 281.013 223.292 281.331 223.477C281.65 223.663 281.919 223.926 282.026 224.291C282.134 224.658 282.047 225.024 281.874 225.35C281.703 225.673 281.428 225.998 281.08 226.326L281.077 226.328C280.3 227.05 279.669 227.902 279.185 228.889C279.105 229.054 279.063 229.235 279.062 229.419C279.061 229.604 279.101 229.786 279.179 229.952C279.258 230.119 279.372 230.266 279.515 230.383C279.658 230.499 279.824 230.583 280.003 230.627L280.005 230.627C280.744 230.812 281.465 230.873 282.169 230.813C282.104 230.726 282.04 230.638 281.979 230.55C281.823 230.335 281.722 230.083 281.731 229.801C281.74 229.519 281.858 229.272 282.024 229.064L285.344 222.277ZM285.344 222.277L285.352 222.276M285.344 222.277L285.352 222.276M285.352 222.276C285.506 222.25 285.631 222.176 285.719 222.108C285.811 222.037 285.894 221.951 285.97 221.86C286.121 221.679 286.278 221.436 286.441 221.145C286.77 220.56 287.161 219.715 287.614 218.621C287.984 217.754 288.398 217.336 288.797 217.19L288.797 217.19M285.352 222.276L288.797 217.19M288.797 217.19L288.807 217.186M288.797 217.19L288.807 217.186M288.807 217.186C289.163 217.047 289.473 217.04 289.761 217.136L289.761 217.136M288.807 217.186L289.761 217.136M289.761 217.136L289.773 217.14M289.761 217.136L289.773 217.14M289.773 217.14C290.442 217.344 290.64 217.581 290.685 217.729M289.773 217.14L290.685 217.729M290.685 217.729C290.731 217.878 290.701 218.186 290.264 218.734L290.685 217.729ZM290.264 218.734L282.024 229.064L290.264 218.734ZM289.121 210.217C289.121 210.217 289.12 210.217 289.118 210.216C289.12 210.216 289.121 210.217 289.121 210.217ZM289.042 210.082C289.042 210.079 289.043 210.078 289.043 210.078C289.043 210.078 289.043 210.079 289.042 210.082Z" fill="black" stroke="black"/>
<path d="M264.92 228.642L264.92 228.642L264.917 228.646C264.779 228.873 264.665 229.007 264.583 229.077C264.568 229.089 264.555 229.098 264.546 229.105C264.536 229.096 264.524 229.083 264.51 229.066C264.439 228.981 264.349 228.827 264.251 228.577C263.543 226.724 263.769 225.174 264.875 223.84C268.417 219.613 270.722 216.54 271.753 214.645C271.756 214.64 271.759 214.636 271.761 214.632L272.507 215.062C272.782 215.228 272.869 215.373 272.894 215.474C272.919 215.574 272.911 215.744 272.746 216.019L264.92 228.642ZM264.513 229.123C264.513 229.123 264.514 229.123 264.516 229.122C264.514 229.123 264.513 229.123 264.513 229.123ZM264.572 229.127C264.574 229.128 264.575 229.128 264.575 229.128C264.575 229.129 264.574 229.128 264.572 229.127Z" fill="black" stroke="black"/>
<path d="M286.202 234.488L286.202 234.487L286.194 234.485C285.901 234.406 285.693 234.283 285.545 234.133C285.4 233.984 285.29 233.784 285.228 233.511C285.177 233.25 285.216 232.916 285.403 232.491L285.403 232.491L285.404 232.489C286.827 229.206 289.152 226.815 292.397 225.297L292.397 225.297L292.405 225.293C292.822 225.089 292.991 225.134 293.037 225.159C293.085 225.185 293.215 225.3 293.278 225.755L293.394 226.952L293.395 226.963L293.397 226.973C293.422 227.153 293.405 227.335 293.347 227.507C293.29 227.678 293.195 227.834 293.069 227.962L286.459 234.425C286.421 234.457 286.378 234.479 286.334 234.49C286.287 234.501 286.242 234.499 286.202 234.488Z" fill="black" stroke="black"/>
<path d="M262.529 248.219L262.254 248.099C263.149 246.145 263.765 244.119 264.102 242.023L264.102 242.023L264.103 242.019C264.249 241.07 264.585 240.196 265.115 239.393L265.115 239.393L265.117 239.39L272.822 227.498L273.09 227.598C271.811 231.76 269.887 235.35 267.97 238.646C267.587 239.303 267.204 239.95 266.826 240.588C265.282 243.196 263.822 245.661 262.85 248.085L262.85 248.085L262.849 248.089C262.82 248.163 262.792 248.205 262.773 248.227C262.756 248.247 262.746 248.251 262.744 248.252L262.744 248.252C262.742 248.253 262.687 248.276 262.529 248.219Z" fill="black" stroke="black"/>
<path d="M292.003 238.082L292.003 238.082L291.994 238.085C291.403 238.288 290.991 238.238 290.685 238.046C289.969 237.597 289.816 237.269 289.816 237.094C289.816 236.922 289.966 236.598 290.681 236.159L290.681 236.159L290.69 236.154C292.054 235.278 293.207 234.198 294.146 232.912C294.249 232.778 294.392 232.68 294.554 232.633C294.717 232.585 294.892 232.591 295.051 232.649C295.211 232.708 295.348 232.816 295.442 232.959C295.535 233.1 295.58 233.268 295.571 233.438C295.484 234.848 294.833 235.846 293.583 236.491C293.176 236.684 292.884 237.001 292.741 237.429C292.643 237.723 292.429 237.946 292.003 238.082Z" fill="black" stroke="black"/>
<path d="M298.031 239.655L298.032 239.656L302.211 248.455C302.211 248.455 302.211 248.455 302.211 248.455C302.392 248.838 302.522 249.148 302.607 249.39C302.397 249.241 302.134 249.03 301.816 248.749L301.816 248.749C299.702 246.889 297.667 245.02 295.71 243.142L295.71 243.142L295.707 243.14C295.039 242.508 294.676 241.864 294.561 241.209L294.562 241.209L294.559 241.198C294.386 240.322 294.494 239.757 294.748 239.401C294.999 239.05 295.477 238.784 296.323 238.703C296.679 238.671 297.034 238.746 297.339 238.917C297.645 239.088 297.886 239.346 298.031 239.655ZM302.729 249.894C302.729 249.894 302.729 249.893 302.729 249.891L302.729 249.894ZM303.055 249.646C303.056 249.646 303.057 249.646 303.057 249.646L303.055 249.646Z" fill="black" stroke="black"/>
<path d="M262.021 259.214L262.021 259.214C262.052 259.237 262.087 259.254 262.124 259.263C262.162 259.273 262.201 259.275 262.239 259.27C262.278 259.264 262.314 259.251 262.348 259.231C262.381 259.212 262.41 259.186 262.433 259.155L262.021 259.214ZM262.021 259.214L261.314 258.685C261.314 258.685 261.314 258.685 261.314 258.685C261.251 258.638 261.209 258.568 261.198 258.491C261.187 258.414 261.207 258.335 261.254 258.273C261.254 258.273 261.254 258.272 261.254 258.272L271.197 244.981L262.021 259.214ZM272.377 245.863L262.433 259.154L271.197 244.981C271.221 244.95 271.25 244.924 271.283 244.904C271.316 244.884 271.353 244.871 271.391 244.866C271.429 244.86 271.469 244.862 271.506 244.872C271.544 244.882 271.579 244.899 271.61 244.922L271.61 244.922L272.317 245.45L272.317 245.451C272.38 245.498 272.421 245.567 272.432 245.644C272.443 245.722 272.423 245.8 272.377 245.863C272.377 245.863 272.377 245.863 272.377 245.863Z" fill="black" stroke="black"/>
<path d="M260.075 269.159L260.075 269.16L260.084 269.153C264.545 265.762 267.932 261.472 270.241 256.289L271.154 256.949L261.919 271.666C261.919 271.666 261.919 271.666 261.919 271.667C261.627 272.127 261.459 272.147 261.445 272.147C261.429 272.147 261.258 272.118 260.975 271.646L260.975 271.646L260.971 271.64L259.914 269.937C259.839 269.811 259.814 269.662 259.843 269.518C259.873 269.374 259.955 269.246 260.075 269.159Z" fill="black" stroke="black"/>
<path d="M271.528 266.305L271.527 266.305L271.531 266.311L272.528 267.689C272.541 267.708 272.548 267.731 272.548 267.754C272.548 267.778 272.541 267.801 272.527 267.821L272.52 267.83L272.515 267.839L260.713 286.41L260.713 286.41L260.711 286.414C260.702 286.428 260.691 286.44 260.678 286.448C260.665 286.457 260.65 286.464 260.634 286.467C260.618 286.47 260.602 286.47 260.586 286.467C260.57 286.463 260.555 286.457 260.542 286.448C260.542 286.447 260.542 286.447 260.542 286.447L259.513 285.712L259.513 285.712L259.508 285.709C259.484 285.692 259.467 285.666 259.46 285.637C259.454 285.608 259.459 285.579 259.474 285.553L271.331 266.311C271.331 266.311 271.331 266.311 271.331 266.311C271.341 266.294 271.355 266.281 271.372 266.271C271.389 266.261 271.408 266.256 271.428 266.255C271.447 266.255 271.466 266.259 271.484 266.268C271.501 266.277 271.516 266.289 271.528 266.305Z" fill="black" stroke="black"/>
<path d="M247.257 271.102L247.257 271.101C247.286 271.089 247.318 271.087 247.348 271.095C247.379 271.102 247.406 271.119 247.426 271.143C247.446 271.166 247.458 271.196 247.46 271.227C247.462 271.256 247.456 271.285 247.442 271.31C247.074 271.85 246.615 272.273 246.061 272.585C245.555 272.86 245.09 273.197 244.669 273.597L242.699 275.364C242.67 275.381 242.637 275.389 242.603 275.387C242.564 275.386 242.525 275.371 242.495 275.345C242.465 275.32 242.445 275.285 242.437 275.246C242.43 275.212 242.433 275.178 242.445 275.146C243.645 273.265 245.246 271.921 247.257 271.102Z" fill="black" stroke="black"/>
<path d="M242.534 287.68L242.534 287.68L242.531 287.682C242.307 287.911 242.126 288.046 241.989 288.115C241.855 288.182 241.799 288.17 241.789 288.167C241.78 288.165 241.727 288.148 241.647 288.025C241.565 287.899 241.479 287.694 241.402 287.385C241.243 286.71 241.236 286.062 241.375 285.436C241.478 284.998 241.777 284.562 242.358 284.14L242.358 284.14L242.361 284.137C244.074 282.873 245.44 282.109 246.475 281.801L246.475 281.801L246.48 281.799C247.244 281.562 247.826 281.426 248.237 281.377C248.395 281.358 248.516 281.354 248.605 281.359C248.595 281.379 248.583 281.402 248.568 281.428C248.42 281.688 248.117 282.062 247.625 282.559C247.625 282.559 247.625 282.559 247.625 282.559L242.534 287.68Z" fill="black" stroke="black"/>
<path d="M272.69 283.601L272.69 283.601L272.684 283.607C267.356 289.548 262.935 296.149 259.423 303.41C259.297 303.661 259.189 303.814 259.108 303.897C259.098 303.907 259.088 303.916 259.08 303.923C259.073 303.916 259.066 303.908 259.057 303.899C258.981 303.814 258.882 303.657 258.769 303.4L258.769 303.4C258.117 301.915 258.157 300.59 258.836 299.371L258.837 299.371C261.423 294.723 265.382 289.307 270.727 283.12L270.727 283.12C270.982 282.824 271.188 282.731 271.342 282.718C271.494 282.704 271.708 282.758 272 283.001L272.002 283.002L272.679 283.562L272.679 283.562L272.685 283.567C272.693 283.573 272.699 283.578 272.705 283.584C272.701 283.589 272.696 283.595 272.69 283.601ZM259.039 303.953C259.039 303.953 259.039 303.953 259.041 303.952C259.039 303.953 259.039 303.953 259.039 303.953ZM259.118 303.954C259.119 303.955 259.12 303.956 259.12 303.956C259.12 303.956 259.119 303.955 259.118 303.954Z" fill="black" stroke="black"/>
<path d="M243.391 298.83L243.391 298.83L243.389 298.833C243.049 299.469 242.708 299.722 242.409 299.786C242.107 299.851 241.685 299.758 241.1 299.317L241.099 299.316C240.597 298.94 240.433 298.578 240.445 298.225C240.458 297.836 240.689 297.321 241.285 296.669L241.286 296.668C244.042 293.639 246.472 291.318 248.578 289.694C248.896 289.451 249.134 289.313 249.299 289.249C249.33 289.237 249.356 289.229 249.376 289.224C249.38 289.244 249.384 289.27 249.388 289.303C249.405 289.479 249.388 289.752 249.313 290.145C249.028 291.606 248.083 293.063 246.39 294.509L246.39 294.509L246.385 294.513C245.554 295.24 244.87 296.102 244.332 297.094L243.391 298.83ZM249.444 289.213C249.444 289.213 249.443 289.213 249.441 289.212L249.444 289.213ZM249.357 289.161C249.356 289.159 249.356 289.158 249.356 289.158C249.356 289.158 249.356 289.159 249.357 289.161Z" fill="black" stroke="black"/>
<path d="M269.849 293.616L269.849 293.615C269.927 293.558 269.997 293.511 270.059 293.472C270.048 293.541 270.032 293.619 270.011 293.707C269.315 296.335 267.925 298.137 265.856 299.181C265.535 299.341 265.296 299.433 265.13 299.475C265.173 299.306 265.269 299.063 265.436 298.738C266.479 296.71 267.948 295.003 269.849 293.616Z" fill="black" stroke="black"/>
<path d="M248.644 300.226L248.644 300.226L248.652 300.22C248.694 300.185 248.747 300.166 248.802 300.166C248.856 300.165 248.909 300.184 248.951 300.219C248.994 300.253 249.023 300.301 249.034 300.355C249.044 300.408 249.036 300.464 249.011 300.512L249.01 300.512L249.005 300.523C247.135 304.263 244.563 307.473 241.284 310.155C241.224 310.2 241.153 310.228 241.079 310.236C241.003 310.244 240.926 310.231 240.857 310.198C240.787 310.165 240.729 310.113 240.688 310.048C240.647 309.985 240.625 309.912 240.623 309.836C240.624 308.14 241.364 306.896 242.382 305.812C242.895 305.265 243.472 304.766 244.059 304.271C244.121 304.218 244.184 304.165 244.247 304.112C244.764 303.675 245.287 303.235 245.742 302.779C246.651 301.89 247.618 301.039 248.644 300.226Z" fill="black" stroke="black"/>
<path d="M271.291 303.418L271.29 303.418L271.29 303.427C271.305 306.922 269.498 310.262 267.12 313.504C266.023 314.999 264.818 316.455 263.635 317.885C263.54 318 263.446 318.115 263.351 318.229C262.083 319.764 260.849 321.272 259.841 322.743L259.84 322.744C259.74 322.891 259.652 323.01 259.574 323.105C259.569 322.984 259.569 322.838 259.576 322.663L259.576 322.661L259.753 317.628L259.753 317.628L259.753 317.622C259.769 316.884 260.047 316.163 260.545 315.581L260.545 315.581L260.547 315.579L270.907 303.306L270.914 303.297L270.921 303.289C270.947 303.254 270.984 303.229 271.025 303.217C271.067 303.205 271.111 303.206 271.152 303.22C271.193 303.234 271.229 303.261 271.253 303.297C271.278 303.332 271.291 303.375 271.291 303.418Z" fill="black" stroke="black"/>
<path d="M240.681 322.793L240.681 322.793L240.673 322.802C240.655 322.824 240.631 322.841 240.603 322.85C240.576 322.859 240.546 322.859 240.518 322.851C240.49 322.843 240.465 322.828 240.446 322.806C240.428 322.784 240.416 322.757 240.412 322.729C240.412 322.729 240.412 322.728 240.412 322.728L240 319.259L240 319.256C239.997 319.234 239.999 319.212 240.006 319.191C240.013 319.171 240.024 319.152 240.039 319.136L251.308 307.72C251.308 307.72 251.308 307.72 251.308 307.72C251.333 307.695 251.367 307.679 251.403 307.677C251.437 307.674 251.472 307.685 251.5 307.705L252.491 308.492C252.505 308.504 252.517 308.519 252.526 308.535C252.535 308.553 252.541 308.572 252.542 308.59C252.544 308.609 252.542 308.628 252.536 308.648C252.531 308.666 252.522 308.683 252.51 308.697L240.681 322.793Z" fill="black" stroke="black"/>
<path d="M239.101 331.048L251.845 317.631L251.845 317.631L251.849 317.627C251.859 317.615 251.869 317.606 251.877 317.599C251.889 317.608 251.905 317.622 251.923 317.64L251.931 317.648L251.939 317.655L252.645 318.303L252.645 318.303L252.654 318.31C252.701 318.351 252.723 318.382 252.733 318.399C252.742 318.415 252.743 318.421 252.743 318.422L252.743 318.422L252.743 318.422C252.743 318.423 252.744 318.434 252.736 318.458C252.727 318.484 252.707 318.526 252.666 318.583C249.104 323.507 244.9 327.858 240.052 331.635C239.911 331.743 239.831 331.749 239.8 331.746C239.769 331.744 239.696 331.727 239.58 331.608L239.101 331.048Z" fill="black" stroke="black"/>
<path d="M259.811 334.976V334.975C259.811 334.559 259.938 334.186 260.206 333.839C260.206 333.839 260.206 333.838 260.207 333.838L270.83 320.183L270.83 320.183L270.832 320.181C271.218 319.68 271.521 319.346 271.746 319.157C271.751 319.152 271.757 319.148 271.762 319.143C271.762 319.149 271.762 319.156 271.763 319.162C271.774 319.455 271.732 319.902 271.621 320.523C271.621 320.524 271.621 320.524 271.621 320.524L270.445 326.907C270.445 326.907 270.445 326.907 270.444 326.907C270.286 327.752 269.91 328.477 269.312 329.093C265.407 333.094 262.231 337.618 259.783 342.664L259.811 334.976Z" fill="black" stroke="black"/>
<path d="M239.566 342.455L239.566 342.456C239.836 342.705 240.193 342.837 240.559 342.823C240.926 342.809 241.272 342.65 241.522 342.381C241.522 342.381 241.522 342.381 241.522 342.381L252.64 330.374L252.64 330.374C252.763 330.241 252.859 330.085 252.922 329.914C252.985 329.744 253.014 329.562 253.007 329.381C253 329.199 252.957 329.021 252.881 328.856C252.806 328.691 252.698 328.543 252.564 328.419L252.564 328.419L252.392 328.259L239.566 342.455ZM239.566 342.455L239.394 342.296M239.566 342.455L239.394 342.296M239.394 342.296C239.26 342.172 239.153 342.024 239.077 341.859C239.001 341.694 238.958 341.515 238.951 341.334C238.944 341.152 238.973 340.971 239.036 340.8C239.099 340.63 239.195 340.474 239.318 340.34L238.951 340.001M239.394 342.296L238.951 340.001M238.951 340.001L239.318 340.34L250.436 328.334M238.951 340.001L250.436 328.334M250.436 328.334C250.686 328.065 251.032 327.906 251.398 327.892C251.765 327.878 252.122 328.01 252.392 328.259L250.436 328.334Z" fill="black" stroke="black"/>
<path d="M271.305 337.513L271.305 337.513L271.309 337.509C271.339 337.468 271.382 337.438 271.432 337.423C271.481 337.409 271.533 337.411 271.581 337.429C271.629 337.447 271.67 337.48 271.697 337.524C271.725 337.567 271.737 337.618 271.733 337.669L271.732 337.68L271.731 337.69L271.496 343.133C271.403 344.906 270.787 346.459 269.643 347.807L269.641 347.808L261.489 357.491L261.489 357.491L261.486 357.494C261.385 357.617 261.257 357.714 261.111 357.779C260.965 357.844 260.805 357.875 260.643 357.87C260.48 357.864 260.32 357.821 260.173 357.744C260.027 357.667 259.899 357.558 259.799 357.425L259.797 357.423L259.152 356.572C258.828 356.133 258.655 355.601 258.659 355.052C258.664 354.502 258.846 353.965 259.18 353.523L271.305 337.513Z" fill="black" stroke="black"/>
<path d="M239.092 352.259L239.092 352.259V352.251C239.092 350.671 239.735 349.451 241.053 348.543C245.339 345.606 248.992 342.013 252.008 337.766L252.01 337.763C252.024 337.743 252.037 337.726 252.048 337.712C252.063 337.727 252.081 337.746 252.101 337.769L252.101 337.769L252.11 337.779L252.814 338.572C252.866 338.631 252.899 338.704 252.911 338.781C252.923 338.859 252.912 338.938 252.88 339.01L252.88 339.01L252.878 339.014C250.108 345.387 245.907 350.664 240.268 354.85C239.952 355.079 239.707 355.207 239.527 355.264C239.347 355.32 239.285 355.291 239.277 355.287C239.269 355.283 239.21 355.25 239.152 355.072C239.095 354.893 239.058 354.62 239.062 354.23C239.062 354.229 239.062 354.229 239.062 354.229L239.092 352.259Z" fill="black" stroke="black"/>
<path d="M238.173 365.697C238.167 365.678 238.159 365.641 238.158 365.575C238.157 365.43 238.194 365.211 238.296 364.905C238.499 364.295 238.916 363.468 239.544 362.464C240.169 361.464 240.977 360.328 241.924 359.121C242.87 357.915 243.934 356.664 245.054 355.442C247.319 352.971 249.664 350.777 251.569 349.341C252.524 348.621 253.308 348.138 253.891 347.885C254.185 347.758 254.4 347.702 254.545 347.69C254.613 347.684 254.651 347.689 254.67 347.693C254.676 347.712 254.684 347.749 254.684 347.816C254.686 347.96 254.649 348.18 254.547 348.486C254.344 349.095 253.927 349.922 253.299 350.927C252.674 351.926 251.866 353.062 250.919 354.269C249.972 355.475 248.909 356.726 247.788 357.948C245.524 360.42 243.179 362.613 241.274 364.049C240.319 364.769 239.535 365.253 238.951 365.505C238.658 365.632 238.443 365.689 238.298 365.7C238.23 365.706 238.192 365.701 238.173 365.697ZM238.179 365.711C238.179 365.711 238.179 365.711 238.178 365.709C238.179 365.711 238.179 365.711 238.179 365.711ZM254.685 347.699C254.685 347.699 254.684 347.698 254.683 347.697C254.684 347.698 254.685 347.698 254.685 347.699ZM254.665 347.681C254.664 347.68 254.663 347.679 254.663 347.679C254.663 347.679 254.664 347.679 254.665 347.681ZM238.16 365.693C238.158 365.692 238.158 365.692 238.158 365.692C238.158 365.692 238.159 365.692 238.16 365.693Z" fill="black" stroke="black"/>
<path d="M258.965 368.015L258.966 368.014C262.642 363.419 266.591 359.069 270.814 354.963C270.97 354.812 271.085 354.734 271.159 354.699C271.165 354.696 271.171 354.694 271.176 354.692C271.18 354.698 271.185 354.706 271.191 354.716C271.234 354.792 271.286 354.927 271.329 355.144L271.329 355.144L271.33 355.149C271.99 358.297 270.581 361.292 268.334 364.045C266.317 366.518 263.694 368.713 261.484 370.563C261.237 370.771 260.994 370.974 260.758 371.172C260.575 371.322 260.358 371.419 260.131 371.456C259.903 371.494 259.674 371.469 259.466 371.387C259.013 371.207 258.71 370.974 258.519 370.707C258.329 370.442 258.222 370.107 258.222 369.673C258.222 369.223 258.434 368.675 258.965 368.015ZM271.212 354.681C271.212 354.681 271.211 354.681 271.21 354.681L271.212 354.681ZM271.154 354.664C271.153 354.663 271.152 354.662 271.152 354.662C271.152 354.662 271.153 354.663 271.154 354.664Z" fill="black" stroke="black"/>
<path d="M239.344 371.658L239.344 371.658L239.35 371.653L252.651 358.852C252.651 358.852 252.651 358.852 252.651 358.851C252.706 358.799 252.772 358.759 252.845 358.734C252.919 358.709 252.998 358.7 253.078 358.707C253.158 358.714 253.237 358.739 253.31 358.779C253.382 358.819 253.446 358.874 253.498 358.94L254.199 359.876C254.5 360.29 254.665 360.788 254.674 361.3C254.683 361.812 254.534 362.314 254.248 362.739C250.56 368.019 245.98 372.346 240.507 375.723L240.505 375.724C240.392 375.795 240.264 375.84 240.131 375.856C239.998 375.872 239.864 375.859 239.737 375.817C239.61 375.775 239.494 375.706 239.396 375.614C239.299 375.523 239.223 375.411 239.174 375.287L239.173 375.286L238.763 374.259C238.591 373.809 238.555 373.321 238.659 372.859C238.763 372.395 239.002 371.977 239.344 371.658Z" fill="black" stroke="black"/>
<path d="M271.604 369.266C271.648 369.412 271.677 369.646 271.673 369.99C271.636 372.116 270.716 374.431 268.837 376.946C266.958 379.459 264.142 382.14 260.369 384.987C260.345 385.004 260.325 385.017 260.31 385.025C260.302 385.014 260.293 384.999 260.284 384.981L260.284 384.981L260.278 384.969L258.338 381.501C258.221 381.281 258.206 381.124 258.228 381.011C258.25 380.897 258.323 380.755 258.516 380.592L258.516 380.592L258.525 380.584L270.883 369.609C270.884 369.608 270.884 369.608 270.885 369.608C271.141 369.383 271.335 369.257 271.471 369.199C271.514 369.18 271.545 369.171 271.565 369.167C271.575 369.186 271.589 369.217 271.604 369.266ZM271.596 369.163C271.596 369.163 271.595 369.163 271.593 369.163C271.595 369.163 271.596 369.163 271.596 369.163ZM271.549 369.142C271.548 369.141 271.547 369.141 271.547 369.141C271.547 369.141 271.548 369.141 271.549 369.142Z" fill="black" stroke="black"/>
<path d="M244.448 392.358L244.448 392.358L244.45 392.354C244.635 391.823 244.584 391.298 244.28 390.828L244.275 390.821L244.27 390.814C244.224 390.748 244.193 390.672 244.179 390.592C244.165 390.513 244.168 390.431 244.189 390.352C244.21 390.274 244.247 390.201 244.299 390.139C244.351 390.076 244.415 390.026 244.487 389.991C247.345 388.633 249.56 386.581 251.121 383.845C251.258 383.61 251.469 383.427 251.72 383.324C251.972 383.22 252.252 383.203 252.514 383.275C252.777 383.347 253.009 383.503 253.174 383.72C253.338 383.937 253.426 384.201 253.425 384.472L253.337 389.648C253.337 389.648 253.337 389.649 253.337 389.649C253.325 390.311 253.489 390.964 253.812 391.542C254.135 392.12 254.607 392.601 255.177 392.935C255.747 393.269 256.395 393.443 257.054 393.439C257.713 393.435 258.357 393.253 258.921 392.912C263.166 390.392 266.896 387.257 270.109 383.508L270.109 383.508L270.115 383.502C270.221 383.374 270.361 383.28 270.52 383.231C270.678 383.181 270.846 383.179 271.006 383.225C271.165 383.27 271.308 383.361 271.417 383.485C271.526 383.61 271.596 383.764 271.619 383.928C272.179 388.004 271.966 392.009 270.982 395.947C270.892 396.276 270.698 396.565 270.43 396.769C270.163 396.972 269.838 397.079 269.507 397.075L239.197 396.045L239.197 396.045L239.191 396.045C239.083 396.042 238.977 396.019 238.877 395.975C238.778 395.931 238.688 395.868 238.614 395.79C238.539 395.712 238.48 395.62 238.441 395.519C238.402 395.418 238.383 395.31 238.385 395.202L238.385 395.202L238.65 383.197C238.668 382.685 238.794 382.276 239.009 381.95C239.225 381.623 239.549 381.348 240.008 381.135C244.822 378.907 248.923 375.763 252.305 371.705C252.411 371.584 252.545 371.491 252.696 371.437C252.847 371.382 253.009 371.368 253.164 371.395C253.319 371.422 253.462 371.489 253.58 371.587C253.697 371.686 253.785 371.814 253.836 371.959L253.839 371.966L253.841 371.972L254.134 372.734C254.342 373.299 254.388 373.81 254.296 374.279C254.203 374.749 253.966 375.211 253.556 375.665C250.256 379.257 246.535 382.793 242.391 386.273L242.391 386.273L242.388 386.275C241.432 387.089 240.786 387.925 240.552 388.791L240.552 388.791L240.55 388.797C240.341 389.614 240.372 390.396 240.667 391.125C240.96 391.85 241.498 392.482 242.237 393.032L242.24 393.034C242.421 393.166 242.631 393.254 242.852 393.292C243.072 393.329 243.299 393.314 243.514 393.249C243.728 393.183 243.924 393.068 244.086 392.914C244.249 392.759 244.372 392.568 244.448 392.358ZM237.888 395.191L237.888 395.191L237.888 395.191Z" fill="black" stroke="black"/>
</svg>
