<svg width="512" height="512" viewBox="0 0 512 512" fill="none" xmlns="http://www.w3.org/2000/svg">
<rect width="512" height="512" fill="white"/>
<path d="M366.089 205.777L396.132 175.859C398.931 173.067 400.525 169.289 400.572 165.336C400.618 161.382 399.114 157.568 396.381 154.711L364.721 121.869" stroke="black" stroke-width="2"/>
<path d="M365.738 205.423L365.736 205.424L233.064 338.781C230.775 341.07 229.136 342.983 228.17 344.512C227.688 345.276 227.358 345.97 227.208 346.585C227.058 347.203 227.08 347.793 227.375 348.286C227.67 348.779 228.179 349.077 228.795 349.24C229.409 349.401 230.179 349.442 231.083 349.383C232.893 349.266 235.362 348.74 238.473 347.824L238.473 347.824L315.415 325.121L315.416 325.121C319.563 323.888 324.028 324.329 327.854 326.349C331.679 328.369 334.561 331.807 335.882 335.926C335.882 335.927 335.883 335.927 335.883 335.928L337.25 340.279L337.252 340.284C337.72 341.723 337.894 343.241 337.765 344.748C337.636 346.256 337.207 347.722 336.501 349.06C335.796 350.398 334.83 351.582 333.659 352.54C332.489 353.499 331.138 354.213 329.687 354.64L329.685 354.641C262.522 374.748 196.914 391.477 132.863 404.826C126.279 406.18 120.563 405.496 116.724 402.77C112.917 400.066 110.835 395.265 111.691 388.083L111.249 388.03L111.691 388.083C119.069 326.028 130.905 260.218 147.197 190.652L146.776 190.553L147.197 190.652C148.668 184.371 152.841 177.238 158.17 173.363C160.826 171.431 163.739 170.331 166.729 170.508C169.712 170.684 172.848 172.136 175.953 175.454L175.954 175.455C179.411 179.123 180.563 183.909 180.74 189.07C180.867 192.77 180.494 196.599 180.133 200.305C179.988 201.789 179.846 203.253 179.738 204.681C178.081 225.438 175.367 246.092 171.597 266.643L171.596 266.643L171.595 266.654C171.452 267.537 171.567 268.441 171.929 269.251C172.29 270.061 172.882 270.741 173.63 271.202L173.638 271.207C174.644 271.801 175.678 271.998 176.716 271.744C177.74 271.494 178.703 270.822 179.614 269.803L179.616 269.801C226.428 216.729 274.338 164.651 323.347 113.569L323.347 113.569C327.292 109.455 331.013 107.408 334.55 106.747C338.087 106.086 341.503 106.799 344.861 108.321C348.225 109.847 351.507 112.174 354.762 114.711C355.893 115.592 357.024 116.501 358.153 117.408C360.242 119.088 362.327 120.764 364.394 122.249L396.021 155.056C396.021 155.056 396.021 155.056 396.022 155.056C398.664 157.819 400.118 161.507 400.073 165.329C400.028 169.152 398.487 172.805 395.781 175.504C395.781 175.505 395.781 175.505 395.78 175.505L365.738 205.423Z" fill="white" stroke="black"/>
<path d="M274.299 270.8L274.299 270.8C273.022 272.105 271.68 273.604 270.276 275.172C270.098 275.372 269.918 275.573 269.737 275.775C268.132 277.564 266.444 279.429 264.655 281.214C261.071 284.79 257.121 288.01 252.714 289.652C250.948 290.298 249.558 290.649 248.53 290.726C247.479 290.806 246.941 290.593 246.691 290.297C246.443 290.001 246.329 289.44 246.594 288.428C246.854 287.437 247.448 286.141 248.403 284.529L248.403 284.528C249.386 282.865 251.602 281.401 255.219 280.209C257.383 279.502 258.943 278.099 259.872 276.023C262.215 271.035 265.652 267.955 269.352 265.272C270.345 264.552 271.365 263.856 272.389 263.158C275.154 261.271 277.952 259.362 280.363 256.882C309.137 227.569 338.387 198.838 368.114 170.686L368.118 170.683C368.5 170.313 369.017 170.11 369.56 170.119C370.102 170.128 370.626 170.348 371.021 170.735L372.072 171.848L372.077 171.853L372.082 171.858C372.276 172.053 372.308 172.182 372.308 172.251C372.308 172.321 372.276 172.449 372.083 172.643C339.281 205.03 306.687 237.749 274.299 270.8Z" fill="black" stroke="black"/>
<path d="M229.487 302.43L229.487 302.43L229.488 302.424C229.835 300.918 230.601 299.737 231.787 298.857L231.787 298.857L231.792 298.853C233.407 297.622 235.148 297.302 237.065 297.876C239.135 298.522 241.308 298.649 243.577 298.264L243.577 298.264L243.583 298.263C245.343 297.944 246.67 297.824 247.585 297.885C248.043 297.915 248.367 297.989 248.582 298.085C248.79 298.178 248.863 298.275 248.892 298.346C248.923 298.425 248.941 298.568 248.856 298.822C248.77 299.076 248.594 299.4 248.303 299.796C247.722 300.588 246.743 301.59 245.343 302.805L245.341 302.807C232.25 314.287 220.493 326.957 210.07 340.818L208.857 339.808L208.849 339.801L208.841 339.794C208.551 339.573 208.471 339.395 208.459 339.271C208.446 339.144 208.491 338.943 208.731 338.649L235.597 308.053L235.598 308.051C236.028 307.556 236.35 307.094 236.532 306.668C236.713 306.244 236.784 305.787 236.593 305.37C236.402 304.952 236.011 304.706 235.572 304.565C235.131 304.423 234.571 304.362 233.914 304.362H230.991C230.18 304.362 229.773 304.162 229.582 303.917C229.39 303.671 229.293 303.224 229.487 302.43Z" fill="black" stroke="black"/>
<path d="M206.453 326.189L206.453 326.189L206.457 326.186C207.789 324.921 209.248 323.327 210.741 321.695C211.32 321.062 211.904 320.423 212.488 319.796C214.597 317.531 216.708 315.41 218.644 314.109L218.646 314.108C219.211 313.725 219.645 313.469 219.956 313.326C219.817 313.642 219.567 314.086 219.191 314.665C216.517 318.737 213.434 322.396 209.939 325.644L209.933 325.65L209.926 325.656C209.231 326.351 208.594 326.66 208.013 326.692L208.013 326.692L208.005 326.693C207.475 326.731 206.993 326.693 206.556 326.585C206.389 326.534 206.288 326.484 206.232 326.446C206.264 326.39 206.33 326.304 206.453 326.189ZM220.331 313.199C220.33 313.199 220.329 313.199 220.327 313.199C220.329 313.199 220.331 313.199 220.331 313.199ZM220.075 312.953C220.075 312.95 220.075 312.948 220.075 312.948C220.075 312.948 220.075 312.95 220.075 312.953ZM206.194 326.414C206.194 326.414 206.194 326.414 206.195 326.415L206.194 326.414ZM206.212 326.49C206.212 326.491 206.211 326.491 206.211 326.491L206.212 326.49Z" fill="black" stroke="black"/>
<path d="M184.164 364.24L184.164 364.24L184.161 364.242C183.826 364.504 183.41 364.638 182.985 364.623C182.561 364.607 182.156 364.442 181.842 364.156C181.527 363.871 181.324 363.484 181.267 363.063C181.21 362.643 181.304 362.216 181.531 361.858C183.217 359.231 186.056 357.547 190.145 356.858C191.22 356.694 192.019 356.639 192.562 356.676C192.835 356.695 193.014 356.736 193.121 356.78C193.156 356.794 193.179 356.807 193.192 356.816C193.189 356.83 193.183 356.853 193.171 356.884C193.131 356.988 193.039 357.143 192.866 357.35C192.521 357.763 191.931 358.296 191.069 358.952L191.068 358.953L184.164 364.24ZM193.21 356.83C193.21 356.83 193.21 356.83 193.209 356.828C193.21 356.83 193.21 356.83 193.21 356.83ZM193.194 356.795C193.194 356.793 193.194 356.792 193.194 356.792C193.194 356.792 193.194 356.793 193.194 356.795Z" fill="black" stroke="black"/>
</svg>
