<svg width="512" height="512" viewBox="0 0 512 512" fill="none" xmlns="http://www.w3.org/2000/svg">
<rect width="512" height="512" fill="white"/>
<path d="M358.214 257.879L348.459 244.781C348.38 244.666 348.259 244.587 348.121 244.561C347.984 244.535 347.842 244.565 347.727 244.644C347.611 244.723 347.532 244.844 347.506 244.982C347.48 245.119 347.51 245.261 347.589 245.377L356.268 259.78" stroke="black" stroke-width="2"/>
<path d="M358.622 257.592L358.622 257.592C368.898 272.235 379.037 287.038 389.038 302.002L389.039 302.003C391.49 305.695 394.698 308.394 398.667 310.11C399.182 310.333 399.633 310.288 400.085 309.975L400.086 309.974C403.579 307.566 404.952 303.061 405.358 298.322C405.711 294.215 405.328 290.056 405.063 287.175C405.023 286.744 404.986 286.342 404.955 285.973L404.955 285.972C403.031 262.989 401.434 239.99 399.851 216.991L399.631 213.8C398.122 191.864 396.613 169.93 394.833 148.006M358.622 257.592L186.404 305.325C237.606 293.67 270.603 262.07 303.783 223.989L304.159 224.319C304.159 224.318 304.16 224.318 304.16 224.318C304.844 223.537 305.34 222.843 305.621 222.242C305.895 221.656 306.017 221.041 305.734 220.517C305.452 219.994 304.87 219.759 304.231 219.669C303.574 219.576 302.723 219.614 301.697 219.762L301.696 219.762C284.062 222.31 265.678 224.278 246.546 225.666C243.259 225.903 240.452 225.611 238.094 224.587C235.748 223.568 233.807 221.808 232.274 219.033C231.958 218.447 231.96 217.904 232.273 217.339L232.273 217.339L232.277 217.331C233.378 215.25 235.641 212.941 238.618 210.555C241.583 208.179 245.211 205.763 248.989 203.458C254.864 199.875 261.068 196.581 265.672 194.137C266.992 193.435 268.181 192.804 269.192 192.256C319.632 164.93 352.593 147.301 368.081 139.366C370.929 137.908 373.952 136.562 376.905 135.657C379.862 134.75 382.718 134.295 385.244 134.589C387.756 134.881 389.94 135.911 391.601 137.993C393.271 140.088 394.449 143.295 394.833 148.006M358.622 257.592L358.614 257.581L348.864 244.49M358.622 257.592L348.864 244.49M394.833 148.006L395.332 147.966M394.833 148.006C394.833 148.006 394.833 148.006 394.833 148.007L395.332 147.966M395.332 147.966C397.112 169.89 398.621 191.825 400.129 213.757C401.785 237.823 403.44 261.886 405.453 285.93C405.484 286.296 405.521 286.695 405.561 287.125C406.13 293.31 407.264 305.632 400.37 310.386C399.774 310.798 399.141 310.859 398.469 310.569C394.408 308.814 391.126 306.051 388.622 302.28C378.623 287.319 368.487 272.519 358.213 257.879L348.458 244.781M395.332 147.966C393.775 128.891 379.303 133.059 367.853 138.921C352.359 146.859 319.392 164.491 268.954 191.817C267.948 192.362 266.763 192.991 265.446 193.69C254.921 199.279 235.926 209.363 231.835 217.097C231.438 217.814 231.438 218.54 231.835 219.272L135.066 369.442M124.945 334.146C152.085 338.015 176.576 337.712 198.412 333.225L198.413 333.225C211.598 330.511 227.303 324.668 245.52 315.712L245.521 315.712C263.875 306.665 280.194 294.846 294.477 280.258L294.482 280.252L294.487 280.247C294.633 280.089 294.757 279.875 294.757 279.61C294.757 279.346 294.633 279.131 294.487 278.973C294.341 278.815 294.136 278.674 293.872 278.654C293.608 278.633 293.384 278.741 293.215 278.874L293.215 278.873L293.205 278.882C261.335 305.329 226.247 321.324 187.936 326.882C173.51 328.964 156.242 328.564 136.122 325.668C136.074 325.661 136.046 325.652 136.03 325.645C136.028 325.625 136.027 325.587 136.038 325.52C136.039 325.52 136.039 325.519 136.039 325.518L136.175 324.79L136.177 324.781C136.202 324.635 136.277 324.505 136.386 324.414C136.495 324.323 136.631 324.277 136.767 324.282L136.776 324.282C137.139 324.287 137.503 324.292 137.866 324.297C150.948 324.477 164.296 324.66 176.847 322.557L176.847 322.557C206.611 317.555 238.116 305.367 261.694 285.788L261.695 285.787C262.164 285.396 262.519 285.082 262.752 284.849C262.866 284.736 262.967 284.626 263.039 284.526C263.072 284.479 263.119 284.409 263.15 284.323C263.173 284.259 263.242 284.036 263.09 283.819C262.939 283.601 262.706 283.588 262.638 283.587C262.547 283.587 262.464 283.606 262.409 283.621C262.291 283.653 262.152 283.71 262.006 283.778C261.707 283.916 261.29 284.14 260.76 284.443C229.434 302.255 197.71 314.331 159.9 315.244C153.757 315.382 147.081 314.814 140.376 314.244C137.061 313.963 133.739 313.68 130.471 313.482C122.106 312.958 114.808 311.568 106.935 309.965C106.843 309.945 106.758 309.902 106.687 309.84C106.616 309.777 106.563 309.698 106.531 309.608C106.5 309.519 106.492 309.423 106.508 309.33C106.524 309.239 106.563 309.153 106.621 309.08C107.513 308.042 108.631 307.622 110.037 307.813C110.037 307.813 110.038 307.813 110.039 307.813L110.106 307.318L125.013 333.651M124.945 334.146C124.944 334.146 124.943 334.146 124.943 334.146L125.013 333.651M124.945 334.146C124.945 334.146 124.945 334.146 124.945 334.146L125.013 333.651M124.945 334.146C123.934 334.008 123.033 334.181 122.22 334.655L122.212 334.66L122.205 334.663C122.109 334.715 122.031 334.793 121.98 334.889C121.929 334.984 121.905 335.094 121.914 335.206C121.923 335.318 121.965 335.427 122.035 335.52C122.104 335.612 122.198 335.683 122.305 335.725M125.013 333.651C123.899 333.498 122.884 333.689 121.968 334.224C121.786 334.322 121.638 334.47 121.54 334.651C121.442 334.833 121.399 335.039 121.416 335.246C121.433 335.453 121.509 335.653 121.635 335.821C121.761 335.988 121.932 336.118 122.128 336.193M122.305 335.725C122.304 335.725 122.302 335.724 122.301 335.724L122.128 336.193M122.305 335.725C122.306 335.725 122.307 335.726 122.308 335.726L122.128 336.193M122.305 335.725C125.699 336.977 129.314 337.822 133.153 338.261M122.128 336.193C125.563 337.46 129.219 338.315 133.096 338.757M133.096 338.757L133.152 338.261C133.152 338.261 133.153 338.261 133.153 338.261M133.096 338.757C160.872 341.849 193.022 343.108 219.997 333.949M133.096 338.757L133.153 338.261M133.153 338.261C160.918 341.351 192.973 342.597 219.836 333.475M219.997 333.949L219.836 333.475M219.997 333.949L219.836 333.475C219.836 333.475 219.836 333.475 219.836 333.475M219.997 333.949C222.002 333.266 224.029 332.592 226.062 331.915C234.807 329.005 243.68 326.052 251.482 322.225L302.477 288.68M219.836 333.475C221.849 332.79 223.881 332.114 225.918 331.436C234.661 328.526 243.493 325.586 251.262 321.776L251.263 321.775C269.357 312.942 285.943 301.747 301.021 288.192L301.026 288.187C301.141 288.087 301.313 287.983 301.533 287.983C301.761 287.983 301.937 288.094 302.053 288.21L302.062 288.219L302.071 288.229L302.477 288.68M302.477 288.68C302.474 288.677 302.471 288.674 302.468 288.671L302.111 289.022M302.477 288.68L301.356 288.564C301.478 288.457 301.592 288.457 301.699 288.564L302.111 289.022M302.477 288.68C302.675 288.887 302.778 289.163 302.77 289.446C302.762 289.731 302.642 290.001 302.442 290.2C284.796 307.998 264.539 321.849 241.674 331.751C216.847 342.5 190.859 346.721 164.458 347.409C164.315 347.413 164.201 347.423 164.112 347.437C164.171 347.502 164.251 347.581 164.357 347.674C164.802 348.047 165.501 348.37 166.499 348.616C167.494 348.862 168.753 349.021 170.283 349.089C196.42 350.231 219.256 347.423 246.19 338.125L246.19 338.124C269.836 329.984 289.741 314.837 308.2 297.751C308.376 297.578 308.615 297.429 308.912 297.429C309.214 297.429 309.455 297.582 309.632 297.759C309.632 297.759 309.632 297.759 309.632 297.759L309.655 297.782L309.655 297.782C309.833 297.96 309.981 298.198 309.99 298.492C309.999 298.786 309.866 299.033 309.699 299.222L309.697 299.224C259.034 355.93 179.146 364.089 109.507 346.708M302.477 288.68L302.483 288.687L302.111 289.022M302.111 289.022C302.218 289.13 302.275 289.277 302.27 289.432C302.266 289.586 302.201 289.735 302.089 289.846C284.487 307.6 264.283 321.416 241.476 331.292C216.722 342.009 190.801 346.222 164.445 346.909C163.33 346.94 163.193 347.322 164.032 348.054C165.086 348.94 167.162 349.451 170.261 349.589C196.457 350.733 219.356 347.917 246.353 338.597C270.099 330.422 290.067 315.218 308.546 298.112C308.79 297.868 309.034 297.868 309.279 298.112L309.302 298.135C309.546 298.38 309.553 298.631 309.324 298.891C258.833 355.405 179.169 363.58 109.625 346.222C109.125 346.103 108.6 346.148 108.129 346.351C107.658 346.553 107.268 346.902 107.015 347.344M134.768 369.968L135.066 369.442M134.768 369.968C134.712 370.073 134.681 370.189 134.677 370.308C134.673 370.426 134.697 370.544 134.745 370.653C134.794 370.761 134.867 370.857 134.958 370.933C135.049 371.008 135.156 371.062 135.272 371.09M134.768 369.968L135.203 370.214L135.207 370.207C135.189 370.244 135.178 370.284 135.177 370.325C135.176 370.367 135.184 370.409 135.201 370.448C135.219 370.487 135.245 370.521 135.277 370.548C135.31 370.575 135.349 370.594 135.39 370.604L135.272 371.09M134.768 369.968L135.209 370.203L135.501 369.688L135.505 369.68C135.72 369.283 135.971 369.037 136.247 368.898C136.522 368.759 136.866 368.704 137.306 368.769L137.307 368.769C216.078 380.192 289.033 358.081 331.506 288.182L331.511 288.174L331.515 288.165C331.629 287.96 331.704 287.705 331.639 287.433C331.573 287.163 331.393 286.972 331.198 286.844M135.066 369.442C135.569 368.51 136.34 368.121 137.378 368.274C216.012 379.677 288.739 357.603 331.078 287.922C331.231 287.648 331.177 287.426 330.918 287.258M135.066 369.442L348.864 244.49M135.272 371.09C186.084 383.433 236.324 379.334 281.068 352.52C315.69 331.773 340.879 296.922 356.267 259.78L347.588 245.377C347.509 245.261 347.479 245.119 347.505 244.982C347.531 244.844 347.61 244.723 347.726 244.644C347.841 244.565 347.983 244.535 348.12 244.561C348.258 244.587 348.379 244.666 348.458 244.781M135.272 371.09L135.39 370.605C186.1 382.922 236.2 378.825 280.811 352.091C315.244 331.458 340.34 296.808 355.708 259.822L347.166 245.645C347.019 245.423 346.964 245.152 347.014 244.89C347.064 244.622 347.218 244.385 347.443 244.231C347.668 244.078 347.945 244.019 348.212 244.069C348.476 244.119 348.71 244.27 348.864 244.49M348.458 244.781L348.871 244.499C348.869 244.496 348.867 244.493 348.864 244.49M348.458 244.781L348.859 244.483L348.864 244.49M331.198 286.844C331.009 286.713 330.766 286.61 330.489 286.649C330.204 286.688 329.996 286.86 329.855 287.049M331.198 286.844C331.201 286.846 331.204 286.848 331.206 286.85L330.918 287.258M331.198 286.844C331.195 286.842 331.192 286.84 331.19 286.839L330.918 287.258M329.855 287.049C292.08 337.043 229.273 366.477 166.299 360.792C149.664 359.284 130.046 355.573 107.439 349.654L107.43 349.652C107.314 349.624 107.206 349.569 107.115 349.491C107.024 349.413 106.951 349.314 106.904 349.201C106.856 349.088 106.835 348.964 106.842 348.839C106.849 348.714 106.885 348.592 106.947 348.483M329.855 287.049L330.254 287.35M329.855 287.049C329.855 287.049 329.854 287.05 329.854 287.05L330.254 287.35M106.947 348.483L107.449 347.592L107.015 347.344M106.947 348.483L106.947 348.483L106.511 348.238M106.947 348.483L106.511 348.238M107.015 347.344L107.45 347.59L107.45 347.591C107.648 347.244 107.956 346.969 108.327 346.81C108.697 346.651 109.111 346.615 109.507 346.708M107.015 347.344L106.511 348.238M109.507 346.708C109.508 346.708 109.509 346.709 109.51 346.709L109.625 346.223L109.504 346.708C109.505 346.708 109.506 346.708 109.507 346.708ZM106.511 348.238C106.412 348.413 106.355 348.609 106.343 348.81C106.331 349.011 106.365 349.211 106.443 349.395C106.521 349.579 106.639 349.742 106.79 349.871C106.941 350 107.12 350.091 107.312 350.138C129.936 356.061 149.583 359.778 166.254 361.29C229.408 366.992 292.379 337.475 330.254 287.35M330.254 287.35C330.437 287.106 330.658 287.075 330.918 287.258" fill="white" stroke="black"/>
<path d="M357.299 257.488C356.919 257.585 356.587 257.752 356.325 258.008C356.203 258.128 356.102 258.26 356.022 258.402L348.017 245.119L348.01 245.106L348.002 245.094C347.998 245.088 347.996 245.081 347.998 245.074C347.999 245.067 348.003 245.061 348.009 245.057C348.015 245.052 348.022 245.051 348.029 245.052C348.036 245.054 348.043 245.058 348.047 245.064L348.052 245.072L348.058 245.08L357.299 257.488Z" fill="black" stroke="black"/>
</svg>
