<svg width="512" height="512" viewBox="0 0 512 512" fill="none" xmlns="http://www.w3.org/2000/svg">
<rect width="512" height="512" fill="white"/>
<path d="M231.324 277.028C231.691 277.186 232.096 277.238 232.491 277.179C232.887 277.119 233.258 276.95 233.563 276.691C233.867 276.432 234.094 276.093 234.216 275.712C234.339 275.331 234.352 274.924 234.256 274.535C233.43 271.316 231.998 268.458 229.96 265.96C227.201 262.558 222.388 264.298 218.656 264.659C209.25 265.536 206.02 254.986 211.1 248.354C214.408 244.043 218.233 244.356 220.506 249.561C220.593 249.753 220.628 249.964 220.608 250.173C220.588 250.383 220.514 250.584 220.393 250.757C220.271 250.931 220.107 251.07 219.916 251.163C219.724 251.255 219.512 251.298 219.299 251.286C215.098 251.003 213.781 256.71 217.12 258.45C217.361 258.573 217.624 258.642 217.892 258.653C218.16 258.663 218.426 258.616 218.672 258.513C224.692 255.984 229.876 257.186 234.224 262.119C240.244 268.939 243.38 277.875 235.588 284.616C235.412 284.768 235.205 284.878 234.983 284.941C234.761 285.003 234.528 285.016 234.303 284.977C231.387 284.475 228.7 283.446 226.244 281.888C223.391 280.07 221.024 280.368 220.6 284.114C220.56 284.42 220.615 284.732 220.757 285.008C222.105 287.642 224.217 288.849 227.091 288.63C228.669 288.504 229.328 289.22 229.066 290.777L228.925 291.561C228.79 292.377 228.39 293.127 227.787 293.696C227.184 294.265 226.411 294.622 225.586 294.713C210.943 296.296 210.802 271.855 225.413 274.457C227.451 274.818 229.443 276.197 231.324 277.028Z" fill="black"/>
<path d="M215.96 340.726C215.657 343.13 216.305 345.09 217.904 346.605C221.619 350.133 223.391 347.985 226.103 345.147C226.276 344.966 226.484 344.821 226.714 344.722C226.945 344.623 227.193 344.573 227.444 344.573C227.694 344.573 227.943 344.623 228.173 344.722C228.403 344.821 228.611 344.966 228.784 345.147C230.195 346.642 230.498 348.241 229.693 349.945C225.633 358.614 215.082 356.467 211.178 349.412C207.807 343.313 209.124 335.302 215.819 332.088C223.893 328.216 229.552 338.5 222.45 341.761C222.22 341.865 221.965 341.903 221.713 341.869C221.461 341.836 221.222 341.734 221.024 341.573L218.625 339.645C218.396 339.461 218.123 339.342 217.833 339.299C217.543 339.256 217.246 339.292 216.975 339.402C216.703 339.513 216.465 339.693 216.287 339.926C216.109 340.159 215.996 340.435 215.96 340.726Z" fill="black"/>
<path d="M279.595 277.216C284.33 273.846 291.244 272.748 294.943 278.22C302.171 288.88 285.364 301.328 281.915 290.746C281.806 290.419 281.785 290.069 281.854 289.732C281.923 289.394 282.08 289.081 282.309 288.823C282.538 288.565 282.831 288.373 283.158 288.264C283.486 288.156 283.836 288.136 284.173 288.206C287.951 288.99 291.479 286.638 290.209 282.515C290.082 282.11 289.863 281.74 289.569 281.434C289.275 281.128 288.914 280.895 288.514 280.752C288.115 280.609 287.687 280.561 287.266 280.611C286.844 280.661 286.441 280.809 286.086 281.042C283.436 282.766 278.059 286.435 274.86 283.315C266.645 275.288 273.371 263.702 281.273 258.873C286.697 255.566 289.049 257.839 293.956 257.933C294.441 257.942 294.918 257.808 295.328 257.547C295.737 257.286 296.06 256.91 296.256 256.466C296.452 256.022 296.512 255.53 296.429 255.052C296.346 254.573 296.124 254.13 295.79 253.778C294.64 252.576 293.323 251.646 291.839 250.988C290.407 250.35 290.198 249.43 291.212 248.228L292.419 246.802C292.842 246.302 293.404 245.939 294.035 245.761C294.667 245.582 295.337 245.595 295.963 245.798C305.871 249.059 304.036 264.831 293.956 265.035C290.852 265.098 287.105 262.37 283.75 264.517C279.862 266.994 275.409 272.262 278.404 276.981C278.717 277.483 279.114 277.561 279.595 277.216Z" fill="black"/>
<path d="M293.502 339.253L292.53 340.899C292.413 341.099 292.239 341.26 292.03 341.363C291.822 341.466 291.587 341.506 291.354 341.479C283.766 340.554 286.651 331.696 292.498 330.975C303.19 329.643 307.094 341.62 302.109 349.773C297.688 357 288.893 357.313 283.139 351.325C281.707 349.84 281.55 348.231 282.669 346.496L283.186 345.681C283.344 345.436 283.556 345.232 283.807 345.084C284.057 344.935 284.338 344.847 284.628 344.826C284.919 344.804 285.21 344.851 285.479 344.961C285.748 345.071 285.988 345.242 286.18 345.461C291.871 351.905 299.349 346.543 297.484 339.786C297.371 339.372 297.139 339 296.817 338.718C296.494 338.435 296.095 338.254 295.67 338.197C295.245 338.14 294.812 338.21 294.426 338.398C294.041 338.585 293.719 338.883 293.502 339.253Z" fill="black"/>
<path d="M255.201 266.509C246.469 252.979 233.801 241.252 222.31 230.011C222.211 229.914 222.134 229.799 222.082 229.671C222.03 229.544 222.005 229.407 222.008 229.27C222.011 229.134 222.042 228.999 222.099 228.876C222.156 228.753 222.239 228.643 222.341 228.553C234.115 218.065 245.622 206.855 254.574 193.765C254.655 193.645 254.762 193.547 254.888 193.477C255.014 193.408 255.155 193.369 255.299 193.364C255.443 193.36 255.586 193.389 255.716 193.451C255.846 193.512 255.96 193.604 256.048 193.718C265.987 206.427 277.051 218.086 289.237 228.694C289.296 228.747 289.343 228.811 289.377 228.882C289.41 228.953 289.429 229.03 289.432 229.108C289.435 229.186 289.422 229.263 289.394 229.335C289.366 229.406 289.323 229.471 289.269 229.525C277.918 241.033 265.031 252.806 256.377 266.493C256.313 266.593 256.225 266.675 256.122 266.733C256.019 266.79 255.903 266.822 255.786 266.823C255.669 266.825 255.554 266.797 255.452 266.742C255.349 266.687 255.263 266.607 255.201 266.509Z" fill="black"/>
<path d="M243.176 318.809C251.015 321.694 254.182 315.501 253.79 308.901C253.76 308.403 253.567 307.93 253.241 307.553C250.764 304.668 247.08 304.401 243.897 304.26C243.775 304.256 243.656 304.219 243.552 304.155C243.448 304.09 243.362 304 243.304 303.892C243.245 303.785 243.216 303.664 243.218 303.542C243.22 303.419 243.254 303.299 243.317 303.194L254.48 283.974C254.614 283.743 254.808 283.552 255.04 283.42C255.272 283.288 255.534 283.219 255.801 283.221C256.068 283.223 256.33 283.294 256.56 283.429C256.791 283.564 256.981 283.757 257.113 283.989L268.307 303.79C268.673 304.438 268.48 304.772 267.727 304.793C264.074 304.872 260.923 304.684 259.167 308.321C257.537 311.676 258.744 316.536 262.209 318.574C264.278 319.765 267.884 318.919 270.33 318.997C270.525 319.003 270.718 319.048 270.896 319.13C271.073 319.212 271.233 319.329 271.365 319.474C271.496 319.619 271.597 319.789 271.662 319.973C271.727 320.158 271.753 320.354 271.741 320.549C270.972 334.44 264.404 341.902 257.349 352.673C257.232 352.851 257.072 352.997 256.884 353.097C256.696 353.197 256.486 353.248 256.274 353.245C256.062 353.242 255.856 353.185 255.673 353.079C255.491 352.973 255.339 352.823 255.232 352.641C249.839 343.627 238.52 331.336 241.091 319.954C241.363 318.783 242.058 318.401 243.176 318.809Z" fill="black"/>
<path fill-rule="evenodd" clip-rule="evenodd" d="M231.23 203.343C230.185 203.27 229.166 203.265 228.173 203.328C218.093 203.986 217.434 188.936 226.167 188.026C230.603 187.556 234.319 185.973 233.347 181.066C232.5 176.76 229.391 174.748 224.019 175.03C223.162 175.082 222.556 175.495 222.2 176.268L221.965 176.77C221.912 176.88 221.888 177.002 221.897 177.124C221.905 177.246 221.944 177.364 222.012 177.468C222.079 177.571 222.172 177.656 222.282 177.715C222.392 177.774 222.514 177.805 222.639 177.805C224.813 177.784 226.679 178.427 228.236 179.733C228.612 180.045 228.884 180.465 229.013 180.937C229.142 181.408 229.123 181.908 228.959 182.369C228.795 182.829 228.493 183.228 228.094 183.511C227.696 183.794 227.22 183.947 226.731 183.95C212.966 184.107 213.891 201.353 220.648 208.721C221.819 210.007 221.657 211.093 220.162 211.982L219.221 212.531C217.821 213.356 216.488 213.257 215.224 212.233C208.608 206.856 207.51 195.113 210.27 187.886C210.886 186.258 211.998 184.741 213.131 183.196C213.754 182.346 214.385 181.486 214.941 180.595C215.234 180.136 215.344 179.634 215.271 179.09C214.455 173.117 218.249 169.606 223.987 168.978C242.487 166.972 244.509 195.677 228.753 194.266C227.729 194.172 227.389 194.611 227.734 195.583L227.969 196.257C228.325 197.261 229.03 197.81 230.086 197.903C244.211 199.252 247.645 184.311 241.86 174.92C237.846 168.419 235.265 164.082 234.115 161.908C225.931 146.356 221.934 129.1 222.122 110.14C222.143 108.238 222.686 107.01 223.752 106.456C224.327 106.153 224.839 106.242 225.289 106.723C232.03 114.018 238.865 121.188 245.795 128.232C246.955 129.424 248.225 130.474 249.605 131.383C250.117 131.729 250.582 131.671 251 131.211L254.167 127.793C254.352 127.593 254.575 127.433 254.824 127.322C255.072 127.211 255.34 127.151 255.612 127.146H255.672L255.744 127.149C255.81 127.152 255.875 127.159 255.939 127.168C256.098 127.192 256.253 127.235 256.402 127.296C256.551 127.357 256.69 127.436 256.819 127.53C256.873 127.57 256.925 127.613 256.975 127.658C257.007 127.686 257.037 127.716 257.067 127.746C257.841 128.541 258.442 129.513 258.87 130.662C259.602 132.575 260.678 132.8 262.1 131.336L286.415 106.378C286.581 106.21 286.791 106.091 287.02 106.036C287.249 105.98 287.489 105.99 287.712 106.063C287.823 106.1 287.928 106.153 288.024 106.218C288.119 106.284 288.205 106.362 288.279 106.452C288.427 106.633 288.52 106.852 288.548 107.083C291.244 128.154 283.139 152.219 271.694 169.48C269.797 172.349 267.179 177.475 266.615 180.831C265.235 189.046 270.283 199.691 280.144 198.013C281.42 197.794 282.36 197.114 282.966 195.975L283.155 195.614C283.251 195.436 283.299 195.236 283.295 195.034C283.291 194.831 283.234 194.634 283.131 194.461C283.101 194.411 283.068 194.363 283.031 194.318C283.017 194.301 283.002 194.284 282.987 194.268C282.967 194.247 282.947 194.227 282.926 194.207C282.86 194.146 282.787 194.093 282.707 194.049C282.533 193.951 282.336 193.902 282.136 193.905C281.665 193.909 281.225 193.931 280.807 193.953C279.191 194.035 277.892 194.101 276.335 192.981C265.486 185.126 273.262 168.351 285.883 168.821C290.408 168.989 293.47 171.001 295.07 174.857C295.395 175.636 295.484 176.753 295.572 177.852C295.679 179.188 295.783 180.499 296.308 181.144C303.786 190.331 304.602 203.986 295.43 212.734C294.73 213.403 293.967 213.482 293.141 212.97L289.833 210.884C288.914 210.31 288.799 209.609 289.488 208.784C289.931 208.245 290.416 207.787 290.897 207.333C291.591 206.678 292.275 206.032 292.812 205.162C296.339 199.471 296.7 190.221 290.429 186.161C289.316 185.44 287.881 185.176 286.503 184.921C284.074 184.474 281.822 184.059 281.822 181.238C281.819 180.671 282.019 180.122 282.387 179.688C282.754 179.254 283.266 178.964 283.829 178.871L288.438 178.103C288.465 178.098 288.491 178.092 288.517 178.085C288.56 178.074 288.603 178.059 288.643 178.042C288.71 178.014 288.773 177.979 288.832 177.938C288.95 177.855 289.048 177.747 289.118 177.622C289.158 177.552 289.189 177.477 289.21 177.4C289.215 177.38 289.22 177.36 289.224 177.34L289.232 177.296C289.236 177.27 289.239 177.244 289.24 177.217C289.245 177.152 289.243 177.087 289.234 177.023C289.223 176.948 289.204 176.873 289.175 176.801C288.851 175.976 288.145 175.479 287.058 175.312C282.057 174.544 277.197 177.225 277.448 182.68C277.664 187.512 280.729 187.944 283.814 188.379C286.996 188.827 290.2 189.278 290.319 194.564C290.466 200.731 287.283 203.741 280.772 203.595C280.548 203.592 280.329 203.658 280.145 203.785C280.07 203.837 280.002 203.898 279.943 203.966C279.911 204.003 279.881 204.042 279.854 204.083C279.809 204.151 279.772 204.225 279.744 204.302C279.666 204.512 279.656 204.74 279.714 204.956C279.742 205.062 279.786 205.162 279.844 205.254C279.904 205.349 279.979 205.434 280.066 205.507C283.578 208.413 287.043 211.59 290.46 215.039C294.869 219.478 299.365 222.899 304.032 226.45L304.57 226.86C304.894 227.111 305.159 227.43 305.347 227.795C305.534 228.159 305.639 228.56 305.654 228.969C305.66 229.132 305.651 229.294 305.629 229.455C305.619 229.53 305.605 229.604 305.588 229.678C305.567 229.774 305.54 229.869 305.509 229.962L305.488 230.019L305.472 230.063L305.453 230.111L305.433 230.159C305.384 230.274 305.327 230.386 305.263 230.493C305.119 230.734 304.938 230.952 304.727 231.14C294.411 240.337 284.43 249.739 274.783 259.344C262.159 271.909 266.353 279.02 273.461 291.069C273.927 291.859 274.406 292.67 274.892 293.505C283.4 308.085 284.754 322.916 278.953 337.998C276.718 343.835 272.672 349.929 268.756 355.825L268.731 355.864C267.712 357.398 266.703 358.918 265.737 360.417C265.677 360.507 265.643 360.612 265.638 360.72C265.636 360.757 265.638 360.793 265.643 360.828C265.653 360.899 265.675 360.967 265.71 361.031C265.731 361.07 265.756 361.106 265.785 361.139C265.808 361.166 265.834 361.19 265.862 361.212L265.89 361.234C265.903 361.243 265.917 361.252 265.931 361.26C265.98 361.289 266.033 361.31 266.087 361.324C266.136 361.336 266.187 361.343 266.238 361.342L277.15 361.452C279.596 361.483 280.348 362.628 279.408 364.885C273.529 379.027 265.8 392.055 258.023 405.036C257.847 405.329 257.598 405.571 257.301 405.74C257.004 405.909 256.669 405.998 256.327 406C255.985 406.002 255.649 405.915 255.35 405.749C255.051 405.583 254.8 405.343 254.621 405.052C246.992 392.666 239.869 379.863 233.253 366.641C232.751 365.628 232.49 364.697 232.469 363.851C232.456 363.275 232.668 362.717 233.061 362.295C233.453 361.873 233.995 361.622 234.57 361.593L245.56 361.044C245.624 361.041 245.688 361.032 245.75 361.016C245.851 360.99 245.947 360.948 246.035 360.891C246.177 360.797 246.29 360.667 246.364 360.515C246.438 360.362 246.469 360.192 246.455 360.024C246.44 359.854 246.38 359.693 246.281 359.555C234.146 342.545 223.235 322.885 233.112 301.846C235.986 295.711 239.085 289.685 242.409 283.77C249.018 271.98 242.019 264.877 233.247 255.975L232.72 255.44C225.111 247.727 217.162 240.364 208.874 233.351C207.996 232.608 207.197 231.798 206.475 230.92C206.311 230.717 206.187 230.487 206.107 230.243C206.022 229.984 205.987 229.71 206.005 229.433C206.039 228.896 206.275 228.392 206.664 228.02L231.575 204.331C232.213 203.735 232.098 203.406 231.23 203.343ZM254.919 174.795C255.41 175.505 255.886 175.5 256.346 174.779C264.482 162.049 270.973 149.71 270.91 134.456C270.9 133.547 271.218 132.774 271.866 132.136L276.648 127.417C277.233 126.842 277.463 126.962 277.338 127.778C276.596 132.7 275.875 137.691 275.174 142.75C273.747 152.984 268.708 161.764 263.682 170.522L263.64 170.595L263.63 170.613C263.15 171.449 262.67 172.286 262.193 173.123L261.756 173.894C261.524 174.304 261.294 174.713 261.064 175.124C259.863 177.277 259 179.519 258.478 181.85C255.807 193.904 284.669 219.148 294.364 227.628L295.116 228.287C295.261 228.413 295.378 228.567 295.459 228.741C295.541 228.915 295.585 229.104 295.59 229.295C295.594 229.487 295.558 229.678 295.485 229.855C295.441 229.96 295.385 230.06 295.317 230.151C295.27 230.213 295.219 230.271 295.163 230.324C294.26 231.193 293.345 232.064 292.42 232.939C291.438 233.871 290.445 234.807 289.446 235.748C278.885 245.706 267.662 256.288 260.469 268.515C258.033 272.665 257.966 276.861 260.265 281.104C261.802 283.943 263.422 286.657 265.029 289.351L265.031 289.354C268.536 295.229 271.983 301.006 274.39 307.756C274.447 307.919 274.465 308.093 274.442 308.264C274.419 308.435 274.356 308.598 274.258 308.739C274.16 308.881 274.031 308.998 273.879 309.081C273.728 309.163 273.559 309.209 273.387 309.214L263.62 309.543C263.337 309.553 263.062 309.634 262.819 309.779C262.577 309.924 262.376 310.129 262.234 310.374C262.093 310.619 262.017 310.896 262.012 311.178C262.008 311.461 262.075 311.74 262.209 311.989L262.711 312.961C263.641 314.707 265.088 315.6 267.053 315.642L274.422 315.799C274.759 315.802 275.082 315.932 275.329 316.165C275.458 316.286 275.561 316.431 275.634 316.59C275.7 316.735 275.741 316.891 275.754 317.053C277.056 333.954 267.837 346.59 257.866 358.896C257.684 359.121 257.453 359.303 257.191 359.427C256.929 359.551 256.642 359.616 256.351 359.616C256.06 359.616 255.773 359.551 255.509 359.427C255.245 359.303 255.011 359.121 254.825 358.896C244.744 346.621 234.852 333.546 236.216 316.583C236.247 316.133 236.487 315.903 236.937 315.893L245.105 315.814C247.331 315.794 248.7 314.696 249.212 312.522L249.338 311.973C249.871 309.726 248.982 308.66 246.672 308.775L238.41 309.167C238.188 309.176 237.967 309.127 237.769 309.026C237.571 308.923 237.403 308.772 237.281 308.585C237.159 308.399 237.088 308.184 237.075 307.961C237.061 307.739 237.105 307.517 237.203 307.317C241.938 297.838 246.913 288.536 252.128 279.411C258.954 267.458 225.192 238.298 216.24 230.567L215.85 230.23C215.734 230.13 215.64 230.006 215.575 229.867C215.545 229.802 215.521 229.736 215.504 229.668C215.484 229.588 215.473 229.505 215.472 229.422C215.469 229.268 215.498 229.116 215.558 228.974C215.602 228.87 215.662 228.774 215.735 228.688C215.761 228.657 215.789 228.628 215.819 228.6C224.619 220.28 233.143 211.95 241.389 203.61C246.202 198.734 253.085 190.253 252.646 182.696C252.411 178.513 248.818 172.943 245.929 168.463L245.918 168.446C245.335 167.543 244.781 166.684 244.289 165.889C237.057 154.205 233.644 141.166 234.052 126.774C234.053 126.718 234.071 126.664 234.103 126.619C234.135 126.573 234.18 126.538 234.232 126.518C234.284 126.498 234.341 126.493 234.395 126.506C234.45 126.518 234.499 126.546 234.538 126.586L239.32 131.572C239.414 131.666 239.487 131.779 239.536 131.903C239.584 132.027 239.607 132.16 239.602 132.293C238.74 148.535 246.045 161.892 254.919 174.795ZM263.025 369.965L257.224 381.457C257.131 381.638 256.991 381.791 256.817 381.898C256.644 382.005 256.445 382.063 256.241 382.064C256.037 382.066 255.837 382.012 255.662 381.908C255.487 381.803 255.344 381.653 255.248 381.472L249.369 370.216C249.014 369.526 248.45 369.176 247.676 369.166L245.497 369.119C245.477 369.118 245.457 369.118 245.437 369.12C245.41 369.122 245.383 369.125 245.357 369.13C245.327 369.137 245.298 369.145 245.269 369.155C245.238 369.166 245.207 369.18 245.178 369.196C245.11 369.233 245.05 369.282 244.999 369.341C244.977 369.367 244.957 369.395 244.939 369.425C244.88 369.522 244.848 369.632 244.844 369.746C244.84 369.86 244.865 369.973 244.917 370.075L254.48 388.669C254.625 388.945 254.841 389.178 255.108 389.341C255.374 389.504 255.679 389.592 255.992 389.596C256.304 389.599 256.611 389.517 256.881 389.359C257.15 389.202 257.372 388.974 257.522 388.7L267.508 370.545C267.958 369.73 267.717 369.254 266.787 369.119L265.078 368.883C264.138 368.758 263.453 369.119 263.025 369.965ZM254.897 154.747C255.228 154.69 255.571 154.726 255.907 154.85C256.103 154.923 256.294 155.026 256.476 155.155C256.607 155.248 256.734 155.355 256.855 155.474C256.943 155.562 257.029 155.657 257.11 155.758C257.168 155.83 257.224 155.905 257.278 155.982C257.32 156.042 257.36 156.103 257.398 156.166C257.469 156.28 257.535 156.4 257.596 156.524C257.66 156.654 257.718 156.789 257.771 156.927C257.881 157.219 257.965 157.526 258.018 157.84C258.178 158.774 258.066 159.716 257.706 160.457C257.347 161.199 256.77 161.68 256.102 161.794C255.771 161.85 255.428 161.815 255.092 161.69C254.756 161.565 254.434 161.353 254.144 161.066C254.1 161.022 254.057 160.977 254.014 160.93C253.943 160.851 253.875 160.769 253.81 160.682C253.658 160.48 253.521 160.257 253.403 160.016C253.203 159.611 253.06 159.164 252.981 158.701C252.821 157.767 252.933 156.825 253.292 156.083C253.652 155.342 254.229 154.861 254.897 154.747Z" fill="black"/>
<path d="M245.998 228.443L254.95 218.755C255.001 218.702 255.063 218.66 255.131 218.631C255.199 218.603 255.272 218.589 255.346 218.591C255.419 218.592 255.492 218.609 255.559 218.64C255.626 218.671 255.685 218.715 255.734 218.771L265.015 229.039C265.106 229.138 265.156 229.266 265.156 229.4C265.156 229.533 265.106 229.662 265.015 229.761L255.922 239.857C255.872 239.914 255.811 239.959 255.742 239.99C255.673 240.021 255.598 240.037 255.523 240.037C255.447 240.037 255.372 240.021 255.303 239.99C255.234 239.959 255.173 239.914 255.123 239.857L245.983 229.149C245.899 229.05 245.854 228.923 245.857 228.793C245.86 228.663 245.91 228.539 245.998 228.443Z" fill="black"/>
</svg>
