<svg width="512" height="512" viewBox="0 0 512 512" fill="none" xmlns="http://www.w3.org/2000/svg">
<rect width="512" height="512" fill="white"/>
<path fill-rule="evenodd" clip-rule="evenodd" d="M259.305 144.64L300.97 106.247C301.107 106.124 301.277 106.042 301.459 106.013C301.64 105.983 301.827 106.006 301.996 106.079C302.166 106.151 302.311 106.271 302.414 106.424C302.518 106.576 302.576 106.755 302.581 106.939L303 146.606C303.005 146.856 302.912 147.099 302.742 147.283L260.723 192.62C260.591 192.763 260.419 192.863 260.229 192.906C260.039 192.949 259.841 192.934 259.66 192.863C259.479 192.791 259.323 192.667 259.214 192.506C259.105 192.345 259.047 192.154 259.048 191.96L258.999 145.349C258.999 145.216 259.026 145.085 259.078 144.963C259.131 144.841 259.208 144.731 259.305 144.64ZM296.62 258.839L296.62 257.147C296.62 255.472 296.04 255.241 294.88 256.455L262.302 290.402C261.26 291.497 260.664 291.293 260.514 289.789L260.272 287.228C260.1 285.369 260.67 283.78 261.98 282.459C275.116 269.14 287.78 256.449 299.971 244.387C300.358 244 300.766 243.796 301.195 243.775C301.352 243.766 301.508 243.79 301.655 243.844C301.802 243.898 301.937 243.982 302.052 244.09C302.166 244.199 302.258 244.329 302.321 244.474C302.384 244.619 302.418 244.776 302.42 244.935L302.823 272.663C302.834 273.211 302.651 273.683 302.275 274.081L260.433 318.935C260.328 319.047 260.192 319.126 260.042 319.16C259.892 319.194 259.735 319.183 259.591 319.128C259.447 319.072 259.324 318.975 259.235 318.849C259.147 318.723 259.099 318.573 259.096 318.419L259.064 303.404C259.064 301.151 259.935 298.986 261.497 297.362L295.347 262.045C296.206 261.154 296.631 260.085 296.62 258.839ZM296.539 300.132L296.539 301.695C296.539 303.081 296.067 304.273 295.121 305.272L260.079 342.071C259.438 342.743 259.08 343.643 259.08 344.584L259.144 361.292C259.144 362.731 259.633 362.924 260.61 361.872L302.13 317.597C302.517 317.189 302.71 316.7 302.71 316.131L302.565 288.532C302.554 285.557 301.502 285.127 299.407 287.243L261.69 325.411C260.723 326.399 260.213 327.581 260.159 328.956L260.03 332.726C260.022 332.912 260.071 333.097 260.171 333.254C260.27 333.412 260.415 333.536 260.586 333.61C260.758 333.683 260.947 333.703 261.13 333.666C261.313 333.629 261.48 333.537 261.609 333.403L295.025 299.52C295.149 299.393 295.308 299.306 295.482 299.269C295.656 299.233 295.836 299.249 296 299.315C296.163 299.381 296.302 299.494 296.398 299.64C296.494 299.786 296.543 299.957 296.539 300.132ZM296.572 344.972L296.476 343.715C296.458 343.506 296.381 343.307 296.252 343.141C296.124 342.975 295.95 342.851 295.752 342.782C295.553 342.714 295.34 342.705 295.136 342.756C294.933 342.807 294.749 342.916 294.607 343.07L262.126 377.452C261.363 378.258 260.907 378.113 260.756 377.017L260.273 373.425C260.08 371.953 260.504 370.686 261.546 369.622L299.988 330.214C300.198 330.003 300.467 329.857 300.761 329.795C301.9 329.548 302.474 330.015 302.485 331.196C302.539 340.025 302.614 349.418 302.711 359.375C302.721 360.492 302.34 361.448 301.567 362.243L260.869 404.745C259.655 406.002 259.048 405.76 259.048 404.02L259.032 390.213C259.032 388.279 259.693 386.609 261.014 385.202L295.299 348.629C296.266 347.598 296.69 346.379 296.572 344.972ZM296.201 174.56L296.233 175.816C296.265 177.073 295.846 178.163 294.976 179.087L260.723 215.144C259.679 216.24 259.102 217.69 259.112 219.188L259.176 233.753C259.175 233.868 259.2 233.981 259.25 234.084C259.3 234.188 259.373 234.278 259.463 234.348C259.554 234.419 259.659 234.467 259.772 234.489C259.884 234.512 260 234.508 260.111 234.478C260.444 234.392 260.734 234.221 260.981 233.963C274.751 219.473 288.478 204.914 302.162 190.284C302.473 189.953 302.646 189.509 302.645 189.044L302.581 160.8C302.58 160.563 302.509 160.331 302.377 160.134C302.245 159.936 302.057 159.783 301.839 159.693C301.621 159.603 301.382 159.58 301.152 159.628C300.923 159.676 300.713 159.793 300.551 159.962L261.384 199.822C260.331 200.896 259.794 202.185 259.773 203.689L259.724 207.169C259.703 208.952 260.315 209.199 261.561 207.91L294.396 173.867C295.556 172.664 296.158 172.895 296.201 174.56ZM296.62 216.771L296.539 215.241C296.453 213.716 295.873 213.495 294.799 214.58L261.593 248.189C260.487 249.306 259.923 249.081 259.901 247.512L259.853 244.209C259.832 242.802 260.315 241.599 261.303 240.6L299.939 201.594C300.155 201.377 300.431 201.229 300.731 201.169C301.032 201.109 301.343 201.14 301.627 201.257C301.91 201.375 302.152 201.574 302.321 201.829C302.491 202.084 302.582 202.384 302.581 202.69L302.677 229.935C302.677 230.482 302.49 230.96 302.114 231.369L260.03 276.271C259.956 276.352 259.858 276.409 259.751 276.434C259.644 276.459 259.531 276.451 259.429 276.41C259.326 276.37 259.238 276.3 259.175 276.209C259.113 276.119 259.08 276.011 259.08 275.901L258.999 259.467C258.999 258.413 259.403 257.402 260.127 256.647L295.54 219.672C295.906 219.29 296.191 218.836 296.377 218.338C296.562 217.839 296.645 217.306 296.62 216.771ZM210.181 148.781L252.748 192.492C253.768 193.544 254.278 193.34 254.278 191.879L254.375 146.3C254.375 145.763 254.182 145.312 253.795 144.946C248.233 139.598 242.575 134.375 236.918 129.154L236.917 129.153L236.917 129.153C231.481 124.136 226.047 119.12 220.702 113.996C218.006 111.407 215.176 108.975 212.211 106.698C210.965 105.752 210.036 106.289 209.424 108.309C209.36 108.511 209.327 108.729 209.327 108.953L209.569 147.315C209.58 147.884 209.784 148.373 210.181 148.781ZM215.015 172.803L214.886 173.529C214.671 174.796 215.015 175.881 215.917 176.783L253.537 214.919C254.107 215.51 254.397 216.213 254.407 217.03L254.536 233.415C254.547 235.123 253.951 235.37 252.748 234.156L210.197 191.219C209.617 190.65 209.327 189.957 209.327 189.141L209.359 161.284C209.362 160.952 209.462 160.628 209.647 160.352C209.833 160.077 210.095 159.862 210.4 159.736C210.706 159.61 211.041 159.578 211.364 159.644C211.686 159.71 211.981 159.872 212.211 160.108L252.893 201.095C253.332 201.54 253.669 202.076 253.88 202.666C254.092 203.255 254.173 203.885 254.117 204.511L253.908 206.734C253.747 208.41 253.07 208.657 251.878 207.475L216.594 172.304C215.745 171.445 215.219 171.611 215.015 172.803ZM215.144 257.647L215.176 255.053C215.187 254.269 215.472 254.156 216.03 254.715L251.927 290.772C253.216 292.072 253.941 291.803 254.102 289.967L254.247 288.226C254.397 286.519 253.866 285.063 252.652 283.86L212.212 243.291C211.975 243.056 211.675 242.897 211.348 242.832C211.02 242.767 210.681 242.801 210.373 242.928C210.065 243.056 209.801 243.271 209.616 243.548C209.43 243.825 209.329 244.15 209.328 244.484L209.263 273.468C209.253 273.984 209.43 274.424 209.795 274.789L252.507 317.952C253.785 319.252 254.413 318.994 254.392 317.179L254.215 299.843C254.204 299.48 254.061 299.131 253.812 298.86L216.046 259.919C215.434 259.285 215.133 258.528 215.144 257.647ZM214.983 213.759L214.821 215.048C214.693 216.079 214.988 216.971 215.708 217.723L253.811 257.421C254.141 257.75 254.326 258.197 254.327 258.662L254.327 275.934C254.33 276.077 254.289 276.217 254.21 276.337C254.131 276.456 254.018 276.549 253.886 276.603C253.753 276.657 253.608 276.67 253.468 276.639C253.328 276.609 253.201 276.537 253.103 276.433L210.278 232.706C209.668 232.075 209.327 231.232 209.327 230.354L209.279 203.383C209.276 203.013 209.383 202.649 209.588 202.339C209.792 202.03 210.083 201.788 210.425 201.644C210.768 201.501 211.145 201.463 211.509 201.534C211.872 201.606 212.207 201.784 212.469 202.046L252.78 241.954C254.069 243.233 254.569 244.763 254.279 246.546L254.021 248.125C253.984 248.37 253.879 248.6 253.719 248.789C253.559 248.978 253.349 249.119 253.113 249.196C252.878 249.273 252.625 249.283 252.385 249.224C252.144 249.166 251.924 249.042 251.749 248.866L216.336 213.292C215.563 212.519 215.111 212.674 214.983 213.759ZM214.902 299.714L214.918 298.715C214.929 297.458 215.38 297.27 216.272 298.151L251.685 332.904C253.038 334.225 253.774 333.946 253.892 332.066L253.989 330.6C254.096 328.956 253.564 327.549 252.394 326.378L212.518 286.728C212.245 286.459 211.899 286.277 211.523 286.203C211.147 286.13 210.759 286.169 210.406 286.316C210.054 286.463 209.754 286.71 209.545 287.027C209.336 287.345 209.226 287.717 209.231 288.097L209.424 316.824C209.434 317.599 209.741 318.333 210.278 318.87L253.086 362.275C253.188 362.378 253.318 362.448 253.459 362.476C253.6 362.504 253.747 362.49 253.88 362.435C254.013 362.379 254.127 362.286 254.207 362.165C254.286 362.045 254.328 361.904 254.327 361.759L254.263 342.716C254.263 342.146 254.064 341.658 253.666 341.249L216.094 302.646C215.289 301.83 214.891 300.852 214.902 299.714ZM215.079 341.701L214.951 343.57C214.886 344.332 215.117 344.988 215.643 345.535L253.634 385.782C253.946 386.125 254.129 386.564 254.15 387.023C254.279 392.952 254.284 398.88 254.166 404.81C254.166 404.873 254.149 404.934 254.118 404.987C253.634 406.104 253.054 406.297 252.378 405.567C245.399 398.007 238.213 390.647 231.025 383.286L231.025 383.286L231.025 383.286C224.058 376.151 217.091 369.015 210.31 361.695C209.741 361.083 209.457 360.358 209.457 359.52L209.36 331.341C209.356 330.983 209.459 330.633 209.656 330.335C209.853 330.036 210.135 329.803 210.466 329.665C210.797 329.527 211.163 329.49 211.517 329.559C211.871 329.628 212.197 329.8 212.453 330.052L252.974 370.492C253.37 370.888 253.677 371.364 253.877 371.888C254.077 372.413 254.165 372.975 254.134 373.537L253.957 376.759C253.881 378.188 253.339 378.398 252.329 377.388L216.384 341.217C216.284 341.113 216.155 341.04 216.013 341.008C215.871 340.976 215.723 340.986 215.586 341.037C215.448 341.088 215.327 341.177 215.238 341.295C215.148 341.413 215.093 341.554 215.079 341.701Z" fill="black"/>
</svg>
