<svg width="512" height="512" viewBox="0 0 512 512" fill="none" xmlns="http://www.w3.org/2000/svg">
<rect width="512" height="512" fill="white"/>
<path d="M267.542 187.089C265.367 208.838 263.627 230.638 262.322 252.49C262.3 252.785 262.142 252.932 261.847 252.932L249.24 252.8C249.185 252.8 249.132 252.78 249.091 252.743C249.05 252.706 249.024 252.655 249.019 252.601C247.53 235.349 246.284 218.094 245.281 200.835C245.06 196.994 244.5 191.663 243.6 184.844C243.576 184.659 243.601 184.472 243.673 184.3C243.745 184.129 243.861 183.981 244.009 183.871C248.506 180.45 252.178 176.292 255.024 171.397C255.094 171.273 255.196 171.171 255.32 171.102C255.443 171.032 255.583 170.997 255.725 171C255.867 171.004 256.005 171.045 256.125 171.121C256.245 171.197 256.342 171.303 256.406 171.43C259.09 176.598 262.872 180.771 267.752 183.948C268.069 184.155 268.198 184.446 268.139 184.822C267.996 185.618 267.62 186.304 267.542 187.089Z" fill="black"/>
<path d="M227.708 257.809L204.253 195.482C204.166 195.251 204.141 195.001 204.182 194.756C204.223 194.511 204.327 194.281 204.485 194.089C207.972 189.968 210.722 185.404 212.735 180.398C212.78 180.291 212.85 180.197 212.939 180.123C213.029 180.05 213.135 179.999 213.248 179.977C213.362 179.954 213.479 179.959 213.59 179.992C213.701 180.025 213.803 180.085 213.885 180.166C217.225 183.484 221.103 185.965 225.519 187.609C226.455 187.962 227.023 188.626 227.222 189.599L240.105 252.733C240.319 253.765 239.921 254.433 238.911 254.735L228.051 257.975C227.984 257.997 227.911 257.992 227.847 257.961C227.783 257.93 227.733 257.876 227.708 257.809Z" fill="black"/>
<path d="M305.75 197.639C299.115 215.399 292.656 233.237 286.364 251.119C285.59 253.319 285.126 255.675 284.495 257.975C284.481 258.027 284.456 258.076 284.423 258.118C284.39 258.161 284.349 258.196 284.303 258.222C284.256 258.248 284.205 258.264 284.153 258.269C284.1 258.274 284.047 258.268 283.998 258.252L271.966 254.459C271.747 254.389 271.562 254.242 271.446 254.046C271.329 253.85 271.29 253.619 271.335 253.397L283.964 188.737C284.031 188.405 284.219 188.169 284.528 188.029C289.129 185.913 293.342 183.193 297.168 179.868C297.22 179.824 297.28 179.793 297.346 179.777C297.411 179.761 297.479 179.76 297.545 179.775C297.61 179.79 297.671 179.821 297.723 179.864C297.775 179.906 297.816 179.961 297.843 180.022C300.084 185.257 303.129 189.972 306.977 194.166C307.236 194.439 307.291 194.749 307.143 195.095C306.767 196.013 306.071 196.776 305.75 197.639Z" fill="black"/>
<path d="M266.547 244.926C268.903 225.85 270.683 206.585 274.178 187.686C274.215 187.471 274.334 187.278 274.511 187.146C274.688 187.015 274.908 186.955 275.129 186.978L276.268 187.122C276.762 187.181 276.975 187.457 276.909 187.951L267.907 252.722C267.826 253.342 267.476 253.603 266.857 253.507L266.436 253.441C266.285 253.42 266.148 253.341 266.05 253.221C265.952 253.1 265.901 252.946 265.906 252.789C266.046 249.891 266.259 247.27 266.547 244.926Z" fill="black"/>
<path d="M243.733 253.187C239.818 232.629 237.739 213.232 234.399 189.334C234.267 188.375 234.643 187.704 235.527 187.321L235.937 187.144C236.075 187.083 236.225 187.055 236.376 187.063C236.527 187.071 236.674 187.114 236.806 187.189C236.938 187.264 237.051 187.369 237.136 187.496C237.222 187.622 237.276 187.767 237.297 187.918L245.735 253.165C245.752 253.31 245.716 253.457 245.632 253.577C245.549 253.698 245.424 253.783 245.281 253.817L244.839 253.917C244.718 253.944 244.593 253.947 244.471 253.925C244.35 253.902 244.234 253.856 244.13 253.788C244.027 253.719 243.939 253.631 243.87 253.528C243.802 253.425 243.755 253.309 243.733 253.187Z" fill="black"/>
<path d="M169.186 215.598C170.351 210.076 170.841 204.525 170.657 198.944C170.656 198.888 170.669 198.833 170.695 198.784C170.721 198.735 170.758 198.693 170.805 198.662C170.851 198.631 170.904 198.613 170.959 198.608C171.015 198.603 171.071 198.612 171.121 198.634C176.238 200.949 181.583 202.501 187.157 203.29C187.48 203.338 187.787 203.461 188.056 203.649C188.325 203.837 188.547 204.085 188.705 204.374L219.614 260.994C219.693 261.142 219.715 261.313 219.677 261.476C219.638 261.639 219.541 261.783 219.404 261.879L208.511 269.344C208.238 269.528 208.006 269.484 207.814 269.211C204.106 263.91 200.298 258.698 196.391 253.574C187.201 241.531 178.951 230.118 169.783 218.739C169.112 217.913 168.913 216.866 169.186 215.598Z" fill="black"/>
<path d="M316.101 200.614L289.217 260.032C288.967 260.585 288.62 260.659 288.178 260.253L287.946 260.043C287.437 259.586 287.312 259.04 287.57 258.406C295.502 238.663 303.966 219.144 312.96 199.851C313.27 199.187 313.786 198.933 314.509 199.088L315.449 199.298C316.201 199.467 316.418 199.906 316.101 200.614Z" fill="black"/>
<path d="M303.008 269.377L292.413 262.244C292.294 262.165 292.207 262.045 292.169 261.907C292.13 261.769 292.142 261.622 292.203 261.492C295.086 255.343 298.208 249.257 301.57 243.234C307.638 232.382 313.598 221.47 319.452 210.5C320.37 208.786 321.188 206.276 322.283 204.219C322.46 203.887 322.733 203.677 323.101 203.588C328.83 202.272 334.26 201.355 339.59 198.811C339.685 198.767 339.79 198.748 339.895 198.757C340 198.766 340.1 198.801 340.187 198.86C340.274 198.919 340.344 199 340.391 199.094C340.437 199.188 340.458 199.292 340.453 199.397C340.128 205.162 340.921 210.773 342.83 216.229C342.955 216.59 342.904 216.925 342.675 217.235C341.201 219.225 339.734 221.186 338.274 223.118C329.184 235.128 320.027 247.09 310.804 259.004C308.36 262.166 306.082 265.816 303.715 269.244C303.524 269.524 303.288 269.568 303.008 269.377Z" fill="black"/>
<path d="M222.357 259.689L194.942 200.846C194.894 200.744 194.868 200.633 194.864 200.521C194.86 200.408 194.878 200.296 194.919 200.191C194.959 200.085 195.02 199.989 195.098 199.908C195.176 199.827 195.27 199.762 195.373 199.718L196.634 199.176C197.157 198.947 197.545 199.091 197.795 199.607C207.188 218.997 215.946 238.667 224.071 258.617C224.292 259.155 224.141 259.56 223.617 259.833L223.285 259.999C223.205 260.042 223.116 260.068 223.025 260.076C222.933 260.084 222.841 260.073 222.754 260.044C222.668 260.015 222.587 259.968 222.519 259.907C222.451 259.847 222.395 259.772 222.357 259.689Z" fill="black"/>
<path d="M341.768 229.941C343.98 227.368 346.413 224.843 349.067 222.366C349.231 222.211 349.436 222.107 349.657 222.065C349.879 222.023 350.108 222.045 350.318 222.128C350.529 222.211 350.712 222.352 350.847 222.535C350.981 222.719 351.062 222.936 351.08 223.162C351.139 223.988 350.77 224.843 349.974 225.728C336.007 241.243 322.482 257.046 308.15 272.23C307.634 272.775 307.129 272.768 306.635 272.208L306.424 271.964C306.332 271.859 306.278 271.725 306.272 271.586C306.266 271.447 306.308 271.311 306.391 271.201C317.417 256.969 330.013 243.621 341.768 229.941Z" fill="black"/>
<path d="M162.705 222.632L204.662 270.394C205.266 271.08 205.226 271.725 204.54 272.329L204.22 272.606C204.063 272.741 203.86 272.809 203.653 272.797C203.447 272.784 203.253 272.692 203.114 272.54L160.35 225.352C159.539 224.46 159.587 223.612 160.493 222.809L160.836 222.51C161.101 222.279 161.446 222.162 161.796 222.185C162.146 222.208 162.473 222.368 162.705 222.632Z" fill="black"/>
<path d="M136.751 234.055C136.427 233.281 136.685 232.857 137.525 232.783L153.992 231.456C154.677 231.397 155.271 231.604 155.772 232.076L201.168 274.795C201.233 274.858 201.286 274.933 201.322 275.016C201.358 275.099 201.377 275.188 201.378 275.278C201.379 275.367 201.362 275.456 201.328 275.539C201.294 275.621 201.243 275.695 201.179 275.758C197.921 278.876 195.119 282.356 192.775 286.197C192.699 286.319 192.599 286.425 192.482 286.507C192.365 286.589 192.232 286.647 192.092 286.676C191.952 286.705 191.808 286.705 191.669 286.676C191.529 286.647 191.398 286.589 191.282 286.507L141.363 251.395C141.12 251.222 140.918 250.998 140.771 250.738C140.624 250.478 140.535 250.189 140.511 249.891C140.084 244.413 138.83 239.135 136.751 234.055Z" fill="black"/>
<path d="M310.019 275.061L354.696 232.352C354.988 232.073 355.335 231.858 355.714 231.721C356.093 231.584 356.496 231.528 356.897 231.556L372.467 232.673C372.564 232.681 372.657 232.711 372.74 232.761C372.823 232.811 372.894 232.878 372.947 232.959C373 233.04 373.034 233.132 373.047 233.228C373.06 233.324 373.051 233.421 373.02 233.513C371.236 238.866 370.366 244.369 370.41 250.024C370.414 250.218 370.37 250.409 370.283 250.581C370.196 250.752 370.069 250.899 369.913 251.008L319.728 286.33C319.641 286.39 319.542 286.432 319.438 286.453C319.334 286.474 319.227 286.475 319.123 286.454C319.019 286.434 318.92 286.392 318.832 286.333C318.744 286.274 318.669 286.197 318.611 286.109C316.156 282.297 313.292 278.825 310.019 275.691C309.977 275.65 309.944 275.601 309.921 275.547C309.898 275.493 309.887 275.435 309.887 275.376C309.887 275.317 309.898 275.259 309.921 275.205C309.944 275.151 309.977 275.102 310.019 275.061Z" fill="black"/>
<path d="M134.074 257.511C134.128 257.419 134.199 257.339 134.284 257.275C134.369 257.211 134.465 257.165 134.568 257.138C134.67 257.111 134.777 257.105 134.882 257.12C134.988 257.134 135.089 257.169 135.18 257.223L161.223 272.318C164.953 274.481 168.631 276.649 172.045 278.7C175.459 280.75 178.542 282.643 181.118 284.268C183.693 285.893 185.711 287.22 187.055 288.171C188.398 289.123 189.042 289.681 188.948 289.813L188.295 290.941C188.092 291.198 184.932 289.726 179.507 286.845C174.082 283.965 166.833 279.911 159.344 275.57L133.289 260.475C133.198 260.421 133.118 260.35 133.054 260.265C132.99 260.18 132.943 260.084 132.916 259.981C132.889 259.879 132.883 259.772 132.898 259.666C132.913 259.561 132.948 259.46 133.002 259.369L134.074 257.511Z" fill="black"/>
<path d="M376.692 261.459L324.837 290.875C324.026 291.332 323.308 291.222 322.681 290.543L322.404 290.256C322.331 290.177 322.275 290.083 322.242 289.981C322.209 289.879 322.199 289.77 322.213 289.663C322.227 289.557 322.264 289.454 322.322 289.364C322.38 289.273 322.457 289.196 322.548 289.139C337.754 279.263 353.479 270.505 369.183 261.492C371.107 260.394 373.101 259.1 375.166 257.61C376.139 256.91 376.839 257.124 377.267 258.252L377.565 259.059C377.729 259.498 377.731 259.98 377.57 260.42C377.41 260.86 377.099 261.228 376.692 261.459Z" fill="black"/>
<path d="M254.67 315.325L248.975 259.744C248.967 259.656 248.977 259.566 249.006 259.482C249.034 259.397 249.079 259.32 249.138 259.254C249.198 259.189 249.27 259.136 249.35 259.101C249.431 259.065 249.517 259.047 249.605 259.048L261.825 259.125C261.927 259.127 262.028 259.151 262.121 259.195C262.214 259.239 262.296 259.301 262.362 259.379C262.428 259.456 262.476 259.547 262.504 259.644C262.531 259.742 262.537 259.844 262.522 259.943C261.217 268.558 260.653 278.577 259.812 285.876C258.787 294.753 257.799 303.633 256.848 312.517C256.694 313.962 256.443 314.983 256.096 315.58C255.3 316.951 254.825 316.866 254.67 315.325Z" fill="black"/>
<path d="M248.444 311.19C242.03 295.951 235.594 280.59 229.379 265.374C229.31 265.202 229.277 265.018 229.283 264.833C229.289 264.649 229.333 264.467 229.413 264.301C229.494 264.134 229.608 263.986 229.748 263.866C229.889 263.746 230.053 263.657 230.231 263.604L241.588 260.176C241.75 260.127 241.92 260.113 242.088 260.135C242.256 260.158 242.418 260.216 242.562 260.306C242.706 260.395 242.83 260.515 242.925 260.657C243.02 260.798 243.085 260.959 243.114 261.127C246.078 278.423 248.787 295.752 251.651 313.07C251.828 314.109 251.773 315.112 251.485 316.078C251.338 316.572 251.135 316.594 250.877 316.144C249.963 314.515 249.152 312.863 248.444 311.19Z" fill="black"/>
<path d="M259.68 315.845C262.489 297.521 264.91 279.142 268.615 260.895C268.636 260.79 268.678 260.692 268.738 260.604C268.798 260.517 268.876 260.443 268.966 260.387C269.057 260.331 269.157 260.294 269.263 260.279C269.368 260.263 269.475 260.27 269.577 260.297L282.007 263.67C282.117 263.7 282.219 263.752 282.306 263.824C282.394 263.895 282.465 263.985 282.516 264.087C282.566 264.188 282.594 264.299 282.598 264.412C282.602 264.526 282.581 264.638 282.538 264.743L260.863 316.553C260.822 316.655 260.748 316.741 260.652 316.797C260.556 316.853 260.444 316.876 260.332 316.863C259.801 316.796 259.584 316.457 259.68 315.845Z" fill="black"/>
<path d="M268.361 308.049C273.801 294.38 281.012 281.386 287.437 268.448C288.012 267.275 288.834 267.069 289.903 267.828L300.044 275.028C300.079 275.053 300.108 275.085 300.13 275.121C300.152 275.158 300.166 275.2 300.171 275.242C300.176 275.285 300.173 275.328 300.16 275.369C300.148 275.41 300.127 275.448 300.099 275.481C288.089 289.26 277.042 304.289 265.165 317.648C263.639 319.366 263.288 319.152 264.114 317.006C265.275 313.987 267.188 311.002 268.361 308.049Z" fill="black"/>
<path d="M185.631 295.387C183.319 298.605 181.296 303.758 180.754 307.651C180.724 307.894 180.595 307.979 180.367 307.905L123.304 290.554C122.957 290.451 122.699 290.237 122.53 289.913C120.163 285.364 117.019 281.427 113.096 278.102C112.972 277.998 112.877 277.863 112.82 277.71C112.763 277.558 112.747 277.394 112.773 277.234C112.798 277.073 112.865 276.922 112.966 276.795C113.068 276.668 113.2 276.57 113.351 276.509C118.829 274.253 123.963 271.397 128.756 267.939C128.975 267.782 129.233 267.69 129.503 267.673C129.772 267.655 130.042 267.713 130.282 267.839C148.318 277.328 167.229 284.792 185.354 294.237C185.454 294.289 185.542 294.362 185.612 294.451C185.681 294.54 185.731 294.643 185.757 294.752C185.784 294.861 185.786 294.974 185.764 295.084C185.742 295.193 185.697 295.297 185.631 295.387Z" fill="black"/>
<path d="M224.358 268.437C232.32 284.704 240.802 300.584 247.482 317.537C247.512 317.617 247.515 317.704 247.489 317.786C247.464 317.867 247.411 317.937 247.341 317.984C247.27 318.032 247.185 318.054 247.1 318.047C247.016 318.04 246.936 318.005 246.873 317.947C245.244 316.339 243.467 314.367 241.543 312.03C231.48 299.814 221.453 287.598 211.463 275.382C211.287 275.16 211.312 274.972 211.541 274.818L221.98 267.795C222.173 267.665 222.391 267.577 222.621 267.539C222.851 267.501 223.086 267.512 223.312 267.573C223.537 267.634 223.747 267.743 223.928 267.892C224.108 268.041 224.255 268.226 224.358 268.437Z" fill="black"/>
<path d="M378.052 269.543C379.298 268.827 380.33 268.282 381.148 267.906C381.315 267.825 381.501 267.792 381.686 267.809C381.871 267.827 382.048 267.895 382.199 268.005C387.065 271.529 392.303 274.342 397.913 276.443C398.051 276.496 398.173 276.583 398.266 276.698C398.36 276.812 398.421 276.949 398.445 277.095C398.468 277.241 398.453 277.39 398.4 277.528C398.348 277.666 398.26 277.788 398.146 277.881C394.017 281.213 390.81 285.272 388.524 290.056C388.355 290.403 388.086 290.631 387.717 290.742L331.174 307.352C331.126 307.367 331.074 307.362 331.028 307.339C330.983 307.317 330.948 307.278 330.931 307.231L326.109 294.856C325.995 294.569 325.994 294.249 326.107 293.963C326.221 293.677 326.439 293.446 326.717 293.319C335.896 289.072 344.887 285.028 353.69 281.187C364.704 276.388 372.825 272.506 378.052 269.543Z" fill="black"/>
<path d="M243.899 319.76C244.208 320.114 244.131 320.269 243.666 320.225C243.01 320.158 242.306 319.897 241.554 319.439C226.735 310.467 212.193 300.85 197.928 290.587C197.86 290.539 197.803 290.478 197.76 290.407C197.718 290.336 197.69 290.257 197.68 290.175C197.67 290.093 197.676 290.009 197.7 289.93C197.724 289.85 197.763 289.777 197.817 289.714L205.669 280.336C205.767 280.218 205.889 280.121 206.027 280.054C206.165 279.986 206.317 279.948 206.471 279.943C206.625 279.938 206.779 279.965 206.923 280.023C207.067 280.082 207.197 280.169 207.305 280.281C219.68 293.142 232.121 306.213 243.899 319.76Z" fill="black"/>
<path d="M267.299 320.147C278.933 306.335 291.573 292.921 304.279 280.413C304.899 279.801 305.492 279.823 306.06 280.48L313.967 289.614C314.291 289.997 314.247 290.329 313.834 290.609C298.684 300.923 283.389 311.02 267.951 320.899C266.071 322.108 265.854 321.858 267.299 320.147Z" fill="black"/>
<path d="M190.573 297.632C188.715 301.369 187.454 304.908 186.249 308.845C186.181 309.056 186.032 309.231 185.835 309.332C185.638 309.433 185.41 309.453 185.198 309.387L184.778 309.254C184.58 309.191 184.412 309.056 184.306 308.877C184.2 308.698 184.163 308.486 184.203 308.281C185.036 304.079 186.728 300.256 189.279 296.813C189.326 296.748 189.386 296.693 189.454 296.652C189.523 296.61 189.6 296.583 189.679 296.571C189.759 296.56 189.839 296.565 189.917 296.586C189.995 296.606 190.067 296.642 190.131 296.692L190.407 296.902C190.516 296.983 190.592 297.1 190.623 297.234C190.653 297.367 190.635 297.508 190.573 297.632Z" fill="black"/>
<path d="M207.892 303.946C220.174 310.331 232.106 317.28 243.689 324.792C243.769 324.838 243.83 324.912 243.86 325C243.889 325.088 243.885 325.184 243.848 325.269C243.811 325.354 243.743 325.423 243.659 325.461C243.574 325.5 243.479 325.506 243.39 325.478L190.861 311.621C190.694 311.577 190.537 311.499 190.401 311.392C190.265 311.286 190.152 311.153 190.069 311.002C189.986 310.85 189.935 310.684 189.919 310.513C189.904 310.342 189.923 310.17 189.976 310.007L194.135 297.488C194.177 297.359 194.248 297.241 194.342 297.143C194.436 297.045 194.551 296.97 194.677 296.922C194.803 296.874 194.938 296.855 195.072 296.867C195.206 296.879 195.335 296.921 195.451 296.991C199.461 299.401 203.608 301.72 207.892 303.946Z" fill="black"/>
<path d="M327.106 308.104C327.148 308.212 327.169 308.327 327.167 308.443C327.165 308.559 327.14 308.674 327.094 308.781C327.048 308.887 326.981 308.984 326.897 309.064C326.814 309.145 326.715 309.208 326.607 309.251L326.319 309.364C326.1 309.45 325.857 309.446 325.642 309.353C325.427 309.259 325.257 309.084 325.171 308.865L321.021 298.329C320.978 298.221 320.958 298.106 320.96 297.99C320.962 297.874 320.987 297.759 321.033 297.652C321.079 297.546 321.146 297.449 321.23 297.369C321.313 297.288 321.412 297.225 321.52 297.182L321.808 297.068C322.026 296.983 322.27 296.987 322.485 297.08C322.7 297.174 322.869 297.349 322.955 297.567L327.106 308.104Z" fill="black"/>
<path d="M275.637 319.661C288.853 311.687 302.211 304.267 315.98 297.267C316.053 297.229 316.133 297.207 316.215 297.203C316.298 297.199 316.38 297.213 316.456 297.243C316.533 297.273 316.602 297.32 316.659 297.379C316.716 297.439 316.76 297.51 316.787 297.588L321.078 309.83C321.132 309.992 321.153 310.163 321.139 310.333C321.126 310.503 321.077 310.669 320.998 310.819C320.918 310.969 320.808 311.101 320.675 311.207C320.543 311.313 320.39 311.39 320.226 311.433L270.064 325.124C266.842 326.008 266.606 325.5 269.356 323.598C270.639 322.72 272.733 321.408 275.637 319.661Z" fill="black"/>
<path d="M135.037 305.196C128.763 303.891 123.525 302.601 119.323 301.325C118.924 301.207 118.703 300.942 118.659 300.529C118.578 299.829 118.7 299.176 119.024 298.572C119.201 298.233 119.477 298.104 119.853 298.185L177.624 310.758C178.354 310.921 178.645 311.367 178.498 312.096L178.387 312.627C178.262 313.224 177.897 313.471 177.292 313.368C166.027 311.459 151.942 308.735 135.037 305.196Z" fill="black"/>
<path d="M333.087 310.792L391.3 298.284C391.588 298.222 391.89 298.276 392.14 298.435C392.39 298.595 392.569 298.846 392.638 299.136L392.76 299.645C392.988 300.632 392.608 301.248 391.621 301.491C372.283 306.335 352.768 310.324 333.076 313.457C332.979 313.473 332.879 313.468 332.785 313.442C332.69 313.416 332.602 313.37 332.526 313.307C332.451 313.244 332.389 313.166 332.347 313.077C332.304 312.988 332.281 312.892 332.28 312.793L332.257 311.842C332.243 311.267 332.519 310.917 333.087 310.792Z" fill="black"/>
<path d="M393.269 309.531C393.336 309.521 393.404 309.527 393.467 309.551C393.529 309.574 393.583 309.613 393.623 309.664C396.992 313.601 400.984 316.749 405.599 319.108C405.714 319.168 405.81 319.257 405.88 319.365C405.95 319.474 405.991 319.599 405.999 319.727C406.007 319.856 405.981 319.985 405.925 320.101C405.868 320.217 405.783 320.317 405.677 320.391C401.113 323.48 397.221 327.265 393.999 331.748C393.92 331.857 393.817 331.947 393.698 332.008C393.578 332.07 393.447 332.102 393.313 332.102L335.377 332.146C335.045 332.146 334.868 331.976 334.846 331.637L333.994 317.438C333.985 317.279 334.036 317.123 334.139 317C334.241 316.877 334.387 316.796 334.547 316.774L393.269 309.531Z" fill="black"/>
<path d="M117.829 331.505C114.401 327.435 110.475 324.007 106.339 320.678C106.223 320.584 106.131 320.462 106.073 320.324C106.014 320.185 105.99 320.035 106.004 319.885C106.017 319.736 106.066 319.592 106.148 319.466C106.23 319.34 106.341 319.236 106.472 319.163C110.733 316.789 114.501 313.803 117.774 310.206C118.025 309.933 118.334 309.819 118.703 309.863L176.153 316.487C176.303 316.501 176.442 316.574 176.541 316.691C176.639 316.809 176.691 316.961 176.684 317.117L175.965 331.328C175.936 331.859 175.655 332.124 175.125 332.124L119.179 332.135C118.922 332.135 118.668 332.079 118.435 331.97C118.202 331.861 117.995 331.702 117.829 331.505Z" fill="black"/>
<path d="M265.087 332.721C264.269 344.963 246.243 344.465 246.807 332.677C246.812 332.607 246.802 332.537 246.778 332.472C246.755 332.406 246.718 332.346 246.67 332.295C246.623 332.245 246.565 332.204 246.501 332.176C246.437 332.149 246.368 332.135 246.298 332.135L187.179 331.969C187.1 331.967 187.022 331.95 186.95 331.919C186.878 331.887 186.813 331.842 186.759 331.785C186.705 331.728 186.664 331.661 186.637 331.588C186.61 331.515 186.599 331.438 186.603 331.361L187.389 318.19C187.396 318.064 187.43 317.941 187.488 317.829C187.546 317.718 187.627 317.62 187.726 317.543C187.824 317.465 187.938 317.41 188.059 317.38C188.18 317.351 188.306 317.348 188.428 317.371L246.42 328.497C246.737 328.555 247.002 328.467 247.216 328.231C252.414 322.547 258.54 321.806 263.815 327.877C264.044 328.135 264.353 328.303 264.689 328.353C265.891 328.537 266.956 328.526 267.885 328.32C285.527 324.397 303.807 320.859 322.725 317.703C322.818 317.687 322.914 317.692 323.005 317.717C323.096 317.741 323.181 317.786 323.254 317.846C323.328 317.907 323.387 317.983 323.43 318.069C323.472 318.155 323.496 318.249 323.499 318.345L323.897 331.405C323.9 331.476 323.889 331.548 323.863 331.615C323.838 331.682 323.799 331.743 323.75 331.795C323.7 331.846 323.641 331.887 323.575 331.915C323.509 331.944 323.438 331.958 323.367 331.958L265.817 332.035C265.36 332.035 265.117 332.264 265.087 332.721Z" fill="black"/>
<path d="M331.007 331.166C331.013 331.284 330.995 331.401 330.956 331.512C330.916 331.622 330.854 331.724 330.775 331.811C330.696 331.898 330.601 331.969 330.494 332.019C330.388 332.069 330.272 332.098 330.155 332.103L328.675 332.173C328.557 332.178 328.44 332.161 328.329 332.121C328.218 332.081 328.117 332.02 328.03 331.941C327.943 331.861 327.872 331.766 327.822 331.659C327.772 331.553 327.743 331.438 327.738 331.32L327.139 318.617C327.133 318.499 327.151 318.382 327.191 318.271C327.23 318.161 327.292 318.059 327.371 317.972C327.45 317.885 327.546 317.814 327.652 317.764C327.758 317.714 327.874 317.685 327.991 317.68L329.471 317.61C329.589 317.605 329.706 317.622 329.817 317.662C329.928 317.702 330.03 317.763 330.117 317.842C330.204 317.922 330.274 318.017 330.324 318.124C330.374 318.23 330.403 318.345 330.408 318.463L331.007 331.166Z" fill="black"/>
<path d="M182.805 331.498C182.8 331.644 182.737 331.783 182.629 331.883C182.522 331.983 182.379 332.036 182.233 332.031L180.332 331.964C180.185 331.959 180.047 331.896 179.947 331.789C179.847 331.682 179.794 331.539 179.799 331.393L180.25 318.462C180.255 318.315 180.318 318.177 180.426 318.077C180.533 317.977 180.676 317.923 180.822 317.929L182.723 317.995C182.87 318 183.008 318.063 183.108 318.17C183.208 318.278 183.261 318.42 183.256 318.567L182.805 331.498Z" fill="black"/>
</svg>
